<?xml version="1.0" encoding="UTF-8" standalone="no"?>
<!-- Created with Inkscape (http://www.inkscape.org/) -->

<svg
   xmlns:osb="http://www.openswatchbook.org/uri/2009/osb"
   xmlns:dc="http://purl.org/dc/elements/1.1/"
   xmlns:cc="http://creativecommons.org/ns#"
   xmlns:rdf="http://www.w3.org/1999/02/22-rdf-syntax-ns#"
   xmlns:svg="http://www.w3.org/2000/svg"
   xmlns="http://www.w3.org/2000/svg"
   xmlns:xlink="http://www.w3.org/1999/xlink"
   xmlns:sodipodi="http://sodipodi.sourceforge.net/DTD/sodipodi-0.dtd"
   xmlns:inkscape="http://www.inkscape.org/namespaces/inkscape"
   width="128"
   height="128"
   viewBox="0 0 33.866666 33.866668"
   version="1.1"
   id="svg1038"
   inkscape:version="0.92.2 5c3e80d, 2017-08-06"
   sodipodi:docname="application-template.svg">
  <defs
     id="defs1032">
    <linearGradient
       id="linearGradient8130">
      <stop
         id="stop8128"
         offset="0"
         style="stop-color:#4bb6ed;stop-opacity:1" />
      <stop
         id="stop8126"
         offset="1"
         style="stop-color:#0b82fe;stop-opacity:1" />
    </linearGradient>
    <linearGradient
       osb:paint="solid"
       id="linearGradient6987">
      <stop
         id="stop6985"
         offset="0"
         style="stop-color:#77d2fb;stop-opacity:1;" />
    </linearGradient>
    <linearGradient
       gradientTransform="matrix(1.0010488,0,0,1.0010383,-0.01775799,-0.26586616)"
       gradientUnits="userSpaceOnUse"
       y2="294.83975"
       x2="5.8018413"
       y1="268.28818"
       x1="18.924377"
       id="linearGradient1503"
       xlink:href="#linearGradient8130"
       inkscape:collect="always" />
    <linearGradient
       id="linearGradient4590"
       inkscape:collect="always">
      <stop
         id="stop4592"
         offset="0"
         style="stop-color:#ffffff;stop-opacity:1" />
      <stop
         id="stop4594"
         offset="1"
         style="stop-color:#d9d9d9;stop-opacity:1" />
    </linearGradient>
    <linearGradient
       inkscape:collect="always"
       xlink:href="#linearGradient4590"
       id="linearGradient8140"
       x1="22.367529"
       y1="269.73138"
       x2="23.350012"
       y2="268.83844"
       gradientUnits="userSpaceOnUse" />
  </defs>
  <sodipodi:namedview
     id="base"
     pagecolor="#ffffff"
     bordercolor="#666666"
     borderopacity="1.0"
     inkscape:pageopacity="0.0"
     inkscape:pageshadow="2"
     inkscape:zoom="1.1816406"
     inkscape:cx="86.589051"
     inkscape:cy="125.99495"
     inkscape:document-units="mm"
     inkscape:current-layer="layer1"
     showgrid="false"
     inkscape:window-width="1600"
     inkscape:window-height="798"
     inkscape:window-x="0"
     inkscape:window-y="0"
     inkscape:window-maximized="1"
     units="px" />
  <metadata
     id="metadata1035">
    <rdf:RDF>
      <cc:Work
         rdf:about="">
        <dc:format>image/svg+xml</dc:format>
        <dc:type
           rdf:resource="http://purl.org/dc/dcmitype/StillImage" />
        <dc:title />
      </cc:Work>
    </rdf:RDF>
  </metadata>
  <g
     inkscape:label="Layer 1"
     inkscape:groupmode="layer"
     id="layer1"
     transform="translate(0,-263.13332)">
    <path
       style="opacity:0.25;fill:#000000;fill-opacity:1;stroke:none;stroke-width:0.40000004;stroke-miterlimit:4;stroke-dasharray:none;stroke-opacity:1"
       d="m 5.0986302,264.72039 v 31.22126 H 28.768036 v -17.51947 c -0.04515,-0.79584 -0.09732,-1.50813 -0.299168,-2.2303 -0.205331,-0.73463 -0.528904,-1.43023 -0.915619,-2.09587 -0.494825,-0.85175 -1.331049,-1.40093 -2.074259,-2.09896 -0.450892,-0.40891 -1.424734,-1.38022 -2.603491,-2.5399 -1.169109,-1.15017 -2.540281,-2.48615 -3.684997,-3.52407 -0.338097,-0.3051 -0.829221,-0.62173 -1.285499,-0.80459 -0.354304,-0.14198 -0.771116,-0.23036 -1.173546,-0.28975 -0.414962,-0.0612 -0.814633,-0.0917 -1.114722,-0.11835 z"
       id="path1127"
       inkscape:connector-curvature="0"
       sodipodi:nodetypes="ccccascscsscc" />
    <path
       sodipodi:nodetypes="ccccascscsscc"
       inkscape:connector-curvature="0"
       id="path4623-8"
       d="m 5.0986302,264.19165 v 31.22126 H 28.768036 v -17.51947 c -0.04515,-0.79584 -0.09732,-1.50813 -0.299168,-2.2303 -0.205331,-0.73463 -0.528904,-1.43022 -0.915619,-2.09587 -0.494825,-0.85175 -1.331049,-1.40093 -2.074259,-2.09896 -0.450892,-0.40891 -1.424734,-1.38021 -2.603491,-2.5399 -1.169109,-1.15017 -2.540281,-2.48615 -3.684997,-3.52407 -0.338097,-0.3051 -0.829221,-0.62173 -1.285499,-0.80459 -0.354304,-0.14198 -0.771116,-0.23036 -1.173546,-0.28975 -0.414962,-0.0613 -0.814633,-0.0917 -1.114722,-0.11835 z"
       style="opacity:1;fill:url(#linearGradient1503);fill-opacity:1;stroke:#317599;stroke-width:0.3;stroke-miterlimit:4;stroke-dasharray:none;stroke-opacity:1" />
    <g
       id="g3269"
       transform="matrix(0.95734836,0,0,0.95734836,0.72223472,10.823447)"
       style="opacity:0.8;stroke-width:1.04455197">
      <path
         inkscape:connector-curvature="0"
         id="path2334"
         d="m 17.126594,271.63778 h 1.403313"
         style="opacity:1;fill:none;stroke:#ffffff;stroke-width:0.52227598;stroke-linecap:square;stroke-miterlimit:4;stroke-dasharray:none;stroke-opacity:1" />
      <path
         inkscape:connector-curvature="0"
         id="path2336"
         d="m 19.581532,271.63778 h 1.402611"
         style="opacity:1;fill:none;stroke:#ffffff;stroke-width:0.52227598;stroke-linecap:square;stroke-miterlimit:4;stroke-dasharray:none;stroke-opacity:1" />
      <path
         inkscape:connector-curvature="0"
         id="path2338"
         d="m 22.036469,271.63778 h 1.403453"
         style="opacity:1;fill:none;stroke:#ffffff;stroke-width:0.52227598;stroke-linecap:square;stroke-miterlimit:4;stroke-dasharray:none;stroke-opacity:1" />
      <path
         inkscape:connector-curvature="0"
         id="path2340"
         d="m 17.126594,273.0406 h 1.403313"
         style="opacity:1;fill:none;stroke:#ffffff;stroke-width:0.52227598;stroke-linecap:square;stroke-miterlimit:4;stroke-dasharray:none;stroke-opacity:1" />
      <path
         inkscape:connector-curvature="0"
         id="path2342"
         d="m 19.581532,273.0406 h 1.402611"
         style="opacity:1;fill:none;stroke:#ffffff;stroke-width:0.52227598;stroke-linecap:square;stroke-miterlimit:4;stroke-dasharray:none;stroke-opacity:1" />
      <path
         inkscape:connector-curvature="0"
         id="path2344"
         d="m 22.036469,273.0406 h 7.01e-4"
         style="opacity:1;fill:none;stroke:#ffffff;stroke-width:0.52227598;stroke-linecap:square;stroke-miterlimit:4;stroke-dasharray:none;stroke-opacity:1" />
      <path
         inkscape:connector-curvature="0"
         id="path2346"
         d="m 17.126594,274.44343 h 2.104232"
         style="opacity:1;fill:none;stroke:#ffffff;stroke-width:0.52227598;stroke-linecap:square;stroke-miterlimit:4;stroke-dasharray:none;stroke-opacity:1" />
      <path
         inkscape:connector-curvature="0"
         id="path2348"
         d="m 20.282942,274.44343 h 1.052116"
         style="opacity:1;fill:none;stroke:#ffffff;stroke-width:0.52227598;stroke-linecap:square;stroke-miterlimit:4;stroke-dasharray:none;stroke-opacity:1" />
      <path
         inkscape:connector-curvature="0"
         id="path2350"
         d="m 22.387174,274.44343 h 0.701411"
         style="opacity:1;fill:none;stroke:#ffffff;stroke-width:0.52227598;stroke-linecap:square;stroke-miterlimit:4;stroke-dasharray:none;stroke-opacity:1" />
      <path
         inkscape:connector-curvature="0"
         id="path2352"
         d="m 17.126594,275.84625 h 1.403313"
         style="opacity:1;fill:none;stroke:#ffffff;stroke-width:0.52227598;stroke-linecap:square;stroke-miterlimit:4;stroke-dasharray:none;stroke-opacity:1" />
      <path
         inkscape:connector-curvature="0"
         id="path2354"
         d="m 19.581532,275.84625 h 1.402611"
         style="opacity:1;fill:none;stroke:#ffffff;stroke-width:0.52227598;stroke-linecap:square;stroke-miterlimit:4;stroke-dasharray:none;stroke-opacity:1" />
      <path
         inkscape:connector-curvature="0"
         id="path2356"
         d="m 22.036469,275.84625 h 1.403453"
         style="opacity:1;fill:none;stroke:#ffffff;stroke-width:0.52227598;stroke-linecap:square;stroke-miterlimit:4;stroke-dasharray:none;stroke-opacity:1" />
      <path
         inkscape:connector-curvature="0"
         id="path2358"
         d="m 17.126594,277.24907 h 2.104232"
         style="opacity:1;fill:none;stroke:#ffffff;stroke-width:0.52227598;stroke-linecap:square;stroke-miterlimit:4;stroke-dasharray:none;stroke-opacity:1" />
      <path
         inkscape:connector-curvature="0"
         id="path2360"
         d="m 20.282942,277.24907 h 1.052116"
         style="opacity:1;fill:none;stroke:#ffffff;stroke-width:0.52227598;stroke-linecap:square;stroke-miterlimit:4;stroke-dasharray:none;stroke-opacity:1" />
      <path
         inkscape:connector-curvature="0"
         id="path2362"
         d="m 22.387174,277.24907 h 7.02e-4"
         style="opacity:1;fill:none;stroke:#ffffff;stroke-width:0.52227598;stroke-linecap:square;stroke-miterlimit:4;stroke-dasharray:none;stroke-opacity:1" />
      <path
         inkscape:connector-curvature="0"
         id="path2364"
         d="m 23.43929,277.24907 h 7.02e-4"
         style="opacity:1;fill:none;stroke:#ffffff;stroke-width:0.52227598;stroke-linecap:square;stroke-miterlimit:4;stroke-dasharray:none;stroke-opacity:1" />
    </g>
    <g
       id="g8124"
       transform="matrix(0.95734836,0,0,0.95734836,0.72651383,11.917472)"
       style="stroke-width:0.20891038;stroke-miterlimit:4;stroke-dasharray:none">
      <path
         style="opacity:1;fill:none;fill-opacity:1;stroke:#ffffff;stroke-width:0.20891038;stroke-miterlimit:4;stroke-dasharray:none;stroke-opacity:1"
         d="m 5.7901675,264.7606 v 30.11943 H 28.067559 l -0.220138,-16.64072 c -0.04798,-1.84435 -0.860498,-6.65872 -2.422118,-7.04249 -0.79989,-1.20945 -1.00047,-0.85575 -2.128352,-2.02271 -1.100357,-1.1096 -1.650438,-1.58847 -2.727836,-2.58975 -1.221725,-1.24268 -3.153437,-1.55226 -4.87942,-1.72686 z"
         id="path7427"
         inkscape:connector-curvature="0"
         sodipodi:nodetypes="ccccccccc" />
      <path
         style="fill:none;fill-rule:evenodd;stroke:#ffffff;stroke-width:0.20891038;stroke-linecap:butt;stroke-linejoin:miter;stroke-miterlimit:4;stroke-dasharray:none;stroke-opacity:1"
         d="M 5.7671545,292.54851 H 28.090573"
         id="path7433"
         inkscape:connector-curvature="0" />
    </g>
    <path
       inkscape:connector-curvature="0"
       style="opacity:0.25;fill:#000000;fill-opacity:1;stroke:none;stroke-width:0.40000001;stroke-miterlimit:4;stroke-dasharray:none;stroke-opacity:1"
       d="m 19.824992,266.3155 c 0.01503,0.0239 0.516415,0.82132 0.669856,1.26996 0.415784,0.91893 0.28411,3.08043 0.27655,4.61132 0.399566,-0.0205 4.630432,-0.64793 6.833615,1.46487 -0.01781,-0.0313 -0.03386,-0.0634 -0.05195,-0.0945 -0.494825,-0.85175 -1.33067,-1.40059 -2.07388,-2.09862 -0.227372,-0.2062 -0.589829,-0.55755 -1.042382,-1.00181 -0.35528,-0.20716 -0.700944,-0.45029 -1.0033,-0.74358 -1.142781,-1.10848 -2.474077,-2.38714 -3.608512,-3.40765 z"
       id="path1488" />
    <path
       style="opacity:1;fill:url(#linearGradient8140);fill-opacity:1;stroke:#317599;stroke-width:0.3;stroke-miterlimit:4;stroke-dasharray:none;stroke-opacity:1"
       d="m 19.317808,265.52098 c 0.01482,0.0239 0.509395,0.82115 0.660679,1.26978 0.409944,0.91893 0.279772,3.08077 0.272318,4.61164 0.410695,-0.0214 4.928561,-0.70458 7.004951,1.74726 -0.02803,-0.0485 -0.08751,-0.0897 -0.126756,-0.16673 -0.479409,-0.54873 -1.090976,-0.98963 -1.65001,-1.51467 -0.450887,-0.40891 -1.424765,-1.38018 -2.603524,-2.53987 -1.12673,-1.10848 -2.439157,-2.3869 -3.557658,-3.40741 z"
       id="path4753-0"
       inkscape:connector-curvature="0"
       sodipodi:nodetypes="ccccccsc" />
    <g
       id="g7451"
       style="font-style:normal;font-weight:normal;font-size:6.53817463px;line-height:125%;font-family:sans-serif;letter-spacing:0px;word-spacing:0px;fill:#ffffff;fill-opacity:1;stroke:none;stroke-width:4.20012903px;stroke-linecap:butt;stroke-linejoin:miter;stroke-opacity:1;opacity:0.8"
       transform="matrix(0.23808794,0,0,0.23808794,0.65396328,225.38808)">
      <path
         id="path7435"
         style="font-style:normal;font-variant:normal;font-weight:bold;font-stretch:normal;font-size:6.28385401px;font-family:'Liberation Sans';-inkscape-font-specification:'Liberation Sans Bold';fill:#ffffff;fill-opacity:1;stroke-width:4.20012903px"
         d="m 80.796149,282.72285 v 3.62365 h -0.905145 v -3.62365 h -1.396071 v -0.69957 h 3.700355 v 0.69957 z"
         inkscape:connector-curvature="0" />
      <path
         id="path7437"
         style="font-style:normal;font-variant:normal;font-weight:bold;font-stretch:normal;font-size:6.28385401px;font-family:'Liberation Sans';-inkscape-font-specification:'Liberation Sans Bold';fill:#ffffff;fill-opacity:1;stroke-width:4.20012903px"
         d="m 82.686214,286.3465 v -4.32322 h 3.399664 v 0.69957 h -2.494519 v 1.08617 h 2.307353 v 0.69957 h -2.307353 v 1.13834 h 2.620318 v 0.69957 z"
         inkscape:connector-curvature="0" />
      <path
         id="path7439"
         style="font-style:normal;font-variant:normal;font-weight:bold;font-stretch:normal;font-size:6.28385401px;font-family:'Liberation Sans';-inkscape-font-specification:'Liberation Sans Bold';fill:#ffffff;fill-opacity:1;stroke-width:4.20012903px"
         d="m 90.473529,286.3465 v -2.62032 q 0,-0.15648 0.0031,-0.32217 0.0061,-0.16569 0.01227,-0.30376 0.0092,-0.16262 0.01534,-0.31604 -0.06443,0.2424 -0.122731,0.46025 -0.02455,0.092 -0.05216,0.19023 -0.02761,0.0982 -0.05523,0.19024 -0.02455,0.092 -0.04909,0.17182 -0.02455,0.0798 -0.04296,0.13807 l -0.779345,2.41168 h -0.644341 l -0.779345,-2.41168 q -0.01841,-0.0583 -0.04296,-0.13807 -0.02148,-0.0798 -0.04909,-0.17182 -0.02455,-0.0921 -0.05216,-0.19024 -0.02761,-0.0982 -0.05523,-0.19023 -0.06136,-0.21785 -0.128868,-0.46025 0.0092,0.17796 0.01841,0.34979 0.0061,0.14728 0.01227,0.3099 0.0061,0.16262 0.0061,0.28228 v 2.62032 h -0.803892 v -4.32322 h 1.211974 l 0.773209,2.41781 q 0.03068,0.0951 0.06443,0.23319 0.03682,0.13807 0.07057,0.26694 0.03682,0.15035 0.07978,0.31297 0.04296,-0.15955 0.08284,-0.30683 0.01841,-0.0644 0.03682,-0.13194 0.01841,-0.0675 0.03682,-0.13194 0.01841,-0.0644 0.03682,-0.12273 0.01841,-0.0583 0.03375,-0.10432 l 0.760936,-2.43315 h 1.205837 v 4.32322 h -0.803892 z"
         inkscape:connector-curvature="0" />
      <path
         id="path7441"
         style="font-style:normal;font-variant:normal;font-weight:bold;font-stretch:normal;font-size:6.28385401px;font-family:'Liberation Sans';-inkscape-font-specification:'Liberation Sans Bold';fill:#ffffff;fill-opacity:1;stroke-width:4.20012903px"
         d="m 95.680414,283.39174 q 0,0.27921 -0.09512,0.54001 -0.09205,0.25774 -0.285351,0.45718 -0.193302,0.19944 -0.490926,0.3191 -0.297624,0.1166 -0.705706,0.1166 H 93.02941 v 1.52187 h -0.905145 v -4.32322 h 1.942227 q 0.414218,0 0.717979,0.10125 0.30376,0.0982 0.503199,0.27922 0.199439,0.18103 0.294556,0.43263 0.09819,0.25159 0.09819,0.55536 z m -0.911281,0.0153 q 0,-0.33445 -0.202507,-0.50627 -0.199439,-0.17489 -0.601385,-0.17489 h -0.935828 v 1.4022 h 0.960374 q 0.202507,0 0.346717,-0.0522 0.147278,-0.0522 0.242395,-0.14727 0.09818,-0.0951 0.144209,-0.22706 0.04603,-0.135 0.04603,-0.29455 z"
         inkscape:connector-curvature="0" />
      <path
         id="path7443"
         style="font-style:normal;font-variant:normal;font-weight:bold;font-stretch:normal;font-size:6.28385401px;font-family:'Liberation Sans';-inkscape-font-specification:'Liberation Sans Bold';fill:#ffffff;fill-opacity:1;stroke-width:4.20012903px"
         d="m 96.321686,286.3465 v -4.32322 h 0.905145 v 3.62365 h 2.319626 v 0.69957 z"
         inkscape:connector-curvature="0" />
      <path
         id="path7445"
         style="font-style:normal;font-variant:normal;font-weight:bold;font-stretch:normal;font-size:6.28385401px;font-family:'Liberation Sans';-inkscape-font-specification:'Liberation Sans Bold';fill:#ffffff;fill-opacity:1;stroke-width:4.20012903px"
         d="m 103.2192,286.3465 -0.38354,-1.10459 h -1.64767 l -0.38353,1.10459 h -0.905149 l 1.577099,-4.32322 h 1.06777 l 1.57096,4.32322 z m -1.01254,-3.0284 q -0.0368,-0.10739 -0.0736,-0.21478 -0.0337,-0.11046 -0.0614,-0.19944 -0.0245,-0.0921 -0.043,-0.15035 -0.0153,-0.0583 -0.0184,-0.0644 -0.003,0.009 -0.0184,0.0675 -0.0153,0.0583 -0.0429,0.14728 -0.0246,0.089 -0.0614,0.19944 -0.0337,0.10739 -0.0706,0.21478 l -0.42649,1.24265 h 1.24266 l -0.4265,-1.24265 z"
         inkscape:connector-curvature="0" />
      <path
         id="path7447"
         style="font-style:normal;font-variant:normal;font-weight:bold;font-stretch:normal;font-size:6.28385401px;font-family:'Liberation Sans';-inkscape-font-specification:'Liberation Sans Bold';fill:#ffffff;fill-opacity:1;stroke-width:4.20012903px"
         d="m 106.1893,282.72285 v 3.62365 h -0.90514 v -3.62365 h -1.39607 v -0.69957 h 3.70035 v 0.69957 z"
         inkscape:connector-curvature="0" />
      <path
         id="path7449"
         style="font-style:normal;font-variant:normal;font-weight:bold;font-stretch:normal;font-size:6.28385401px;font-family:'Liberation Sans';-inkscape-font-specification:'Liberation Sans Bold';fill:#ffffff;fill-opacity:1;stroke-width:4.20012903px"
         d="m 108.07937,286.3465 v -4.32322 h 3.39966 v 0.69957 h -2.49452 v 1.08617 h 2.30735 v 0.69957 h -2.30735 v 1.13834 h 2.62032 v 0.69957 z"
         inkscape:connector-curvature="0" />
    </g>
    <g
       style="stroke-width:4.26647043"
       inkscape:transform-center-y="-9.4924686"
       inkscape:transform-center-x="5.4653607"
       inkscape:label="Capa 1"
       id="layer1-4"
       transform="matrix(0.51316181,0,0,0.5143535,-198.35467,-1.3367599)">
      <g
         style="stroke-width:4.26647043"
         id="layer1-3-65"
         inkscape:label="Capa 1"
         transform="translate(0.41988239,0.03484499)" />
    </g>
    <g
       style="stroke-width:1.04455197"
       id="g3052"
       transform="matrix(0.95734836,0,0,0.95734836,1.9108289,13.028278)">
      <path
         style="opacity:1;fill:none;stroke:#ffffff;stroke-width:0.26614529;stroke-linecap:square;stroke-linejoin:round;stroke-opacity:1"
         d="m 15.552185,266.72844 -9.1442905,-0.026"
         id="path2800"
         inkscape:connector-curvature="0" />
      <path
         style="opacity:1;fill:none;stroke:#ffffff;stroke-width:0.26614529;stroke-linecap:square;stroke-linejoin:round;stroke-opacity:1"
         d="m 7.1352565,265.29966 -0.02595,13.35276"
         id="path2802"
         inkscape:connector-curvature="0" />
    </g>
    <g
       id="g3044"
       transform="matrix(0.95734836,0,0,0.95734836,1.9108289,13.028278)"
       style="opacity:0.8;stroke-width:1.04455197">
      <g
         style="stroke-width:1.04455197"
         transform="translate(-1.5908685)"
         id="g2916">
        <path
           inkscape:connector-curvature="0"
           id="path2678"
           d="m 9.8945393,276.92589 h 1.6453697 v 0.70141 H 9.8945393 Z"
           style="opacity:1;fill:#ffffff;fill-opacity:1;stroke-width:0.276371" />
        <path
           inkscape:connector-curvature="0"
           id="path2680"
           d="m 11.7638,276.92589 h 1.552502 v 0.70141 H 11.7638 Z"
           style="opacity:1;fill:#ffffff;fill-opacity:1;stroke-width:0.276371" />
        <path
           inkscape:connector-curvature="0"
           id="path2682"
           d="m 13.540473,276.92589 h 1.366699 v 0.70141 h -1.366699 z"
           style="opacity:1;fill:#ffffff;fill-opacity:1;stroke-width:0.276371" />
        <path
           inkscape:connector-curvature="0"
           id="path2684"
           d="m 15.131272,276.92589 h 0.600317 v 0.70141 h -0.600317 z"
           style="opacity:1;fill:#ffffff;fill-opacity:1;stroke-width:0.276371" />
        <path
           inkscape:connector-curvature="0"
           id="path2686"
           d="m 15.956131,276.92589 h 1.343482 v 0.70141 h -1.343482 z"
           style="opacity:1;fill:#ffffff;fill-opacity:1;stroke-width:0.276371" />
        <path
           inkscape:connector-curvature="0"
           id="path2688"
           d="m 17.523784,276.92589 h 3.48012 v 0.70141 h -3.48012 z"
           style="opacity:1;fill:#ffffff;fill-opacity:1;stroke-width:0.276371" />
        <path
           inkscape:connector-curvature="0"
           id="path2690"
           d="m 21.227934,276.92589 h 2.644038 v 0.70141 h -2.644038 z"
           style="opacity:1;fill:#ffffff;fill-opacity:1;stroke-width:0.276371" />
        <path
           inkscape:connector-curvature="0"
           id="path2692"
           d="m 24.096002,276.92589 h 0.809358 v 0.70141 h -0.809358 z"
           style="opacity:1;fill:#ffffff;fill-opacity:1;stroke-width:0.276371" />
        <path
           inkscape:connector-curvature="0"
           id="path2694"
           d="m 9.8945393,281.13435 h 2.5894687 v 0.70141 H 9.8945393 Z"
           style="opacity:1;fill:#ffffff;fill-opacity:1;stroke-width:0.276371" />
        <path
           inkscape:connector-curvature="0"
           id="path2696"
           d="m 12.676335,281.13435 h 1.245846 v 0.70141 h -1.245846 z"
           style="opacity:1;fill:#ffffff;fill-opacity:1;stroke-width:0.276371" />
        <path
           inkscape:connector-curvature="0"
           id="path2698"
           d="m 14.185069,281.13435 h 0.585762 v 0.70141 h -0.585762 z"
           style="opacity:1;fill:#ffffff;fill-opacity:1;stroke-width:0.276371" />
        <path
           inkscape:connector-curvature="0"
           id="path2700"
           d="m 14.915939,281.13435 h 1.127939 v 0.70141 h -1.127939 z"
           style="opacity:1;fill:#ffffff;fill-opacity:1;stroke-width:0.276371" />
        <path
           inkscape:connector-curvature="0"
           id="path2702"
           d="m 16.235994,281.13435 h 1.127939 v 0.70141 h -1.127939 z"
           style="opacity:1;fill:#ffffff;fill-opacity:1;stroke-width:0.276371" />
        <path
           inkscape:connector-curvature="0"
           id="path2704"
           d="m 17.720881,281.13435 h 1.811533 v 0.70141 h -1.811533 z"
           style="opacity:1;fill:#ffffff;fill-opacity:1;stroke-width:0.276371" />
        <path
           inkscape:connector-curvature="0"
           id="path2706"
           d="m 19.747958,281.13435 h 2.377291 v 0.70141 h -2.377291 z"
           style="opacity:1;fill:#ffffff;fill-opacity:1;stroke-width:0.276371" />
        <path
           inkscape:connector-curvature="0"
           id="path2708"
           d="m 22.45891,281.13435 h 1.599426 v 0.70141 H 22.45891 Z"
           style="opacity:1;fill:#ffffff;fill-opacity:1;stroke-width:0.276371" />
        <path
           inkscape:connector-curvature="0"
           id="path2710"
           d="m 24.250312,281.13435 h 0.373614 v 0.70141 h -0.373614 z"
           style="opacity:1;fill:#ffffff;fill-opacity:1;stroke-width:0.276371" />
        <path
           inkscape:connector-curvature="0"
           id="path2712"
           d="m 9.8945393,278.32871 h 2.7551417 v 0.70141 H 9.8945393 Z"
           style="opacity:1;fill:#ffffff;fill-opacity:1;stroke-width:0.276371" />
        <path
           inkscape:connector-curvature="0"
           id="path2714"
           d="m 12.865716,278.32871 h 2.952167 v 0.70141 h -2.952167 z"
           style="opacity:1;fill:#ffffff;fill-opacity:1;stroke-width:0.276371" />
        <path
           inkscape:connector-curvature="0"
           id="path2716"
           d="m 16.033988,278.32871 h 1.178931 v 0.70141 h -1.178931 z"
           style="opacity:1;fill:#ffffff;fill-opacity:1;stroke-width:0.276371" />
        <path
           inkscape:connector-curvature="0"
           id="path2718"
           d="m 17.429094,278.32871 h 2.777095 v 0.70141 h -2.777095 z"
           style="opacity:1;fill:#ffffff;fill-opacity:1;stroke-width:0.276371" />
        <path
           inkscape:connector-curvature="0"
           id="path2720"
           d="m 22.538871,278.32871 h 0.74104 v 0.70141 h -0.74104 z"
           style="opacity:1;fill:#ffffff;fill-opacity:1;stroke-width:0.276371" />
        <path
           inkscape:connector-curvature="0"
           id="path2722"
           d="m 20.422013,278.32871 h 1.901384 v 0.70141 h -1.901384 z"
           style="opacity:1;fill:#ffffff;fill-opacity:1;stroke-width:0.276371" />
        <path
           inkscape:connector-curvature="0"
           id="path2724"
           d="m 23.496296,278.32871 h 0.701411 v 0.70141 h -0.701411 z"
           style="opacity:1;fill:#ffffff;fill-opacity:1;stroke-width:0.276371" />
        <path
           inkscape:connector-curvature="0"
           id="path2726"
           d="m 9.8945393,279.73153 h 3.0056157 v 0.70141 H 9.8945393 Z"
           style="opacity:1;fill:#ffffff;fill-opacity:1;stroke-width:0.276371" />
        <path
           inkscape:connector-curvature="0"
           id="path2728"
           d="m 13.135759,279.73153 h 3.220597 v 0.70141 h -3.220597 z"
           style="opacity:1;fill:#ffffff;fill-opacity:1;stroke-width:0.276371" />
        <path
           inkscape:connector-curvature="0"
           id="path2730"
           d="m 16.592311,279.73153 h 1.286107 v 0.70141 h -1.286107 z"
           style="opacity:1;fill:#ffffff;fill-opacity:1;stroke-width:0.276371" />
        <path
           inkscape:connector-curvature="0"
           id="path2732"
           d="m 18.113671,279.73153 h 3.029533 v 0.70141 h -3.029533 z"
           style="opacity:1;fill:#ffffff;fill-opacity:1;stroke-width:0.276371" />
        <path
           inkscape:connector-curvature="0"
           id="path2734"
           d="m 23.688482,279.73153 h 0.808446 v 0.70141 h -0.808446 z"
           style="opacity:1;fill:#ffffff;fill-opacity:1;stroke-width:0.276371" />
        <path
           inkscape:connector-curvature="0"
           id="path2736"
           d="m 21.378737,279.73153 h 2.074212 v 0.70141 h -2.074212 z"
           style="opacity:1;fill:#ffffff;fill-opacity:1;stroke-width:0.276371" />
        <path
           inkscape:connector-curvature="0"
           id="path2738"
           d="m 9.8945393,285.34281 h 2.5894687 v 0.70141 H 9.8945393 Z"
           style="opacity:1;fill:#ffffff;fill-opacity:1;stroke-width:0.276371" />
        <path
           inkscape:connector-curvature="0"
           id="path2740"
           d="m 12.676335,285.34281 h 1.245846 v 0.70141 h -1.245846 z"
           style="opacity:1;fill:#ffffff;fill-opacity:1;stroke-width:0.276371" />
        <path
           inkscape:connector-curvature="0"
           id="path2742"
           d="m 14.185069,285.34281 h 0.585762 v 0.70141 h -0.585762 z"
           style="opacity:1;fill:#ffffff;fill-opacity:1;stroke-width:0.276371" />
        <path
           inkscape:connector-curvature="0"
           id="path2744"
           d="m 14.915939,285.34281 h 1.127939 v 0.70141 h -1.127939 z"
           style="opacity:1;fill:#ffffff;fill-opacity:1;stroke-width:0.276371" />
        <path
           inkscape:connector-curvature="0"
           id="path2746"
           d="m 16.235994,285.34281 h 1.127939 v 0.70141 h -1.127939 z"
           style="opacity:1;fill:#ffffff;fill-opacity:1;stroke-width:0.276371" />
        <path
           inkscape:connector-curvature="0"
           id="path2748"
           d="m 17.720881,285.34281 h 1.811533 v 0.70141 h -1.811533 z"
           style="opacity:1;fill:#ffffff;fill-opacity:1;stroke-width:0.276371" />
        <path
           inkscape:connector-curvature="0"
           id="path2750"
           d="m 19.747958,285.34281 h 2.377291 v 0.70141 h -2.377291 z"
           style="opacity:1;fill:#ffffff;fill-opacity:1;stroke-width:0.276371" />
        <path
           inkscape:connector-curvature="0"
           id="path2752"
           d="m 22.45891,285.34281 h 1.599426 v 0.70141 H 22.45891 Z"
           style="opacity:1;fill:#ffffff;fill-opacity:1;stroke-width:0.276371" />
        <path
           inkscape:connector-curvature="0"
           id="path2754"
           d="m 24.250312,285.34281 h 0.373614 v 0.70141 h -0.373614 z"
           style="opacity:1;fill:#ffffff;fill-opacity:1;stroke-width:0.276371" />
        <path
           inkscape:connector-curvature="0"
           id="path2756"
           d="m 9.8945393,283.93999 h 2.1474397 v 0.70141 H 9.8945393 Z"
           style="opacity:1;fill:#ffffff;fill-opacity:1;stroke-width:0.276371" />
        <path
           inkscape:connector-curvature="0"
           id="path2758"
           d="m 12.270218,283.93999 h 3.565621 v 0.70141 h -3.565621 z"
           style="opacity:1;fill:#ffffff;fill-opacity:1;stroke-width:0.276371" />
        <path
           inkscape:connector-curvature="0"
           id="path2760"
           d="m 16.064149,283.93999 h 1.721963 v 0.70141 h -1.721963 z"
           style="opacity:1;fill:#ffffff;fill-opacity:1;stroke-width:0.276371" />
        <path
           inkscape:connector-curvature="0"
           id="path2762"
           d="m 19.846155,283.93999 h 1.3674 v 0.70141 h -1.3674 z"
           style="opacity:1;fill:#ffffff;fill-opacity:1;stroke-width:0.276371" />
        <path
           inkscape:connector-curvature="0"
           id="path2764"
           d="m 21.441163,283.93999 h 2.194714 v 0.70141 h -2.194714 z"
           style="opacity:1;fill:#ffffff;fill-opacity:1;stroke-width:0.276371" />
        <path
           inkscape:connector-curvature="0"
           id="path2766"
           d="m 18.01407,283.93999 h 1.603776 v 0.70141 H 18.01407 Z"
           style="opacity:1;fill:#ffffff;fill-opacity:1;stroke-width:0.276371" />
        <path
           inkscape:connector-curvature="0"
           id="path2768"
           d="m 9.8945393,286.74423 h 2.7135487 v 0.70141 H 9.8945393 Z"
           style="opacity:1;fill:#ffffff;fill-opacity:1;stroke-width:0.276371" />
        <path
           inkscape:connector-curvature="0"
           id="path2770"
           d="m 12.832048,286.74423 h 0.854459 v 0.70141 h -0.854459 z"
           style="opacity:1;fill:#ffffff;fill-opacity:1;stroke-width:0.276371" />
        <path
           inkscape:connector-curvature="0"
           id="path2772"
           d="m 13.910818,286.74423 h 1.950833 v 0.70141 h -1.950833 z"
           style="opacity:1;fill:#ffffff;fill-opacity:1;stroke-width:0.276371" />
        <path
           inkscape:connector-curvature="0"
           id="path2774"
           d="m 16.085892,286.74423 h 1.331138 v 0.70141 h -1.331138 z"
           style="opacity:1;fill:#ffffff;fill-opacity:1;stroke-width:0.276371" />
        <path
           inkscape:connector-curvature="0"
           id="path2776"
           d="m 17.64092,286.74423 h 1.331137 v 0.70141 H 17.64092 Z"
           style="opacity:1;fill:#ffffff;fill-opacity:1;stroke-width:0.276371" />
        <path
           inkscape:connector-curvature="0"
           id="path2778"
           d="m 19.195947,286.74423 h 1.926986 v 0.70141 h -1.926986 z"
           style="opacity:1;fill:#ffffff;fill-opacity:1;stroke-width:0.276371" />
        <path
           inkscape:connector-curvature="0"
           id="path2780"
           d="m 21.347174,286.74423 h 0.4016 v 0.70141 h -0.4016 z"
           style="opacity:1;fill:#ffffff;fill-opacity:1;stroke-width:0.276371" />
        <path
           inkscape:connector-curvature="0"
           id="path2782"
           d="m 21.972832,286.74423 h 2.499056 v 0.70141 h -2.499056 z"
           style="opacity:1;fill:#ffffff;fill-opacity:1;stroke-width:0.276371" />
        <path
           inkscape:connector-curvature="0"
           id="path2784"
           d="m 9.8945393,288.14705 h 2.6628367 v 0.70141 H 9.8945393 Z"
           style="opacity:1;fill:#ffffff;fill-opacity:1;stroke-width:0.276371" />
        <path
           inkscape:connector-curvature="0"
           id="path2786"
           d="m 14.283267,288.14705 h 1.71053 v 0.70141 h -1.71053 z"
           style="opacity:1;fill:#ffffff;fill-opacity:1;stroke-width:0.276371" />
        <path
           inkscape:connector-curvature="0"
           id="path2788"
           d="m 16.239501,288.14705 h 1.567723 v 0.70141 h -1.567723 z"
           style="opacity:1;fill:#ffffff;fill-opacity:1;stroke-width:0.276371" />
        <path
           inkscape:connector-curvature="0"
           id="path2790"
           d="m 20.440951,288.14705 h 1.37722 v 0.70141 h -1.37722 z"
           style="opacity:1;fill:#ffffff;fill-opacity:1;stroke-width:0.276371" />
        <path
           inkscape:connector-curvature="0"
           id="path2792"
           d="m 19.651864,288.14705 h 0.543972 v 0.70141 h -0.543972 z"
           style="opacity:1;fill:#ffffff;fill-opacity:1;stroke-width:0.276371" />
        <path
           inkscape:connector-curvature="0"
           id="path2794"
           d="m 18.052648,288.14705 h 1.353442 v 0.70141 h -1.353442 z"
           style="opacity:1;fill:#ffffff;fill-opacity:1;stroke-width:0.276371" />
        <path
           inkscape:connector-curvature="0"
           id="path2796"
           d="m 12.80329,288.14705 h 1.234413 v 0.70141 H 12.80329 Z"
           style="opacity:1;fill:#ffffff;fill-opacity:1;stroke-width:0.276371" />
      </g>
      <path
         style="opacity:1;fill:#ffffff;fill-opacity:1;stroke-width:0.276371"
         d="m 9.8707583,272.31833 c -0.6903137,0.45999 -0.6087187,1.66823 0.1442027,2.02581 1.716072,0.624 2.82907,-0.26169 3.234766,-1.9051 0.01118,-0.24218 0.102238,-0.59814 -0.257355,-0.48704 -1.077156,-0.052 -2.10353,0.0222 -3.1216277,0.3663 z m 4.6166147,-0.8196 c 1e-6,1.27039 1e-6,2.54079 1e-6,3.81126 h -1.227819 c -0.02415,-0.2814 0.04883,-0.87999 -0.03744,-0.95855 -0.480712,0.70106 -1.319143,1.08115 -2.154032,1.1177 -2.2385515,0.108 -3.2189835,-1.24627 -2.5650585,-3.30098 1.2553148,-1.30231 3.0526095,-1.07541 4.7242815,-1.07597 -0.07188,-2.17367 -2.81918,-1.67967 -4.2824624,-1.24907 -0.3879511,0.25999 -0.1651691,-0.37461 -0.2230141,-0.59783 -0.134264,-0.4901 0.5215621,-0.41215 0.8309608,-0.55575 1.1270267,-0.27203 2.3593357,-0.35118 3.4558507,0.0847 1.14842,0.56254 1.388793,1.57186 1.478644,2.72442 z"
         id="path2804"
         inkscape:connector-curvature="0" />
    </g>
  </g>
</svg>
