<?xml version="1.0" encoding="UTF-8" standalone="no"?>
<!-- Created with Inkscape (http://www.inkscape.org/) -->

<svg
   xmlns:osb="http://www.openswatchbook.org/uri/2009/osb"
   xmlns:dc="http://purl.org/dc/elements/1.1/"
   xmlns:cc="http://creativecommons.org/ns#"
   xmlns:rdf="http://www.w3.org/1999/02/22-rdf-syntax-ns#"
   xmlns:svg="http://www.w3.org/2000/svg"
   xmlns="http://www.w3.org/2000/svg"
   xmlns:xlink="http://www.w3.org/1999/xlink"
   xmlns:sodipodi="http://sodipodi.sourceforge.net/DTD/sodipodi-0.dtd"
   xmlns:inkscape="http://www.inkscape.org/namespaces/inkscape"
   width="128"
   height="128"
   viewBox="0 0 33.866666 33.866668"
   version="1.1"
   id="svg1038"
   inkscape:version="0.92.2 5c3e80d, 2017-08-06"
   sodipodi:docname="application-x-sharedlib.svg">
  <defs
     id="defs1032">
    <linearGradient
       osb:paint="solid"
       id="linearGradient6987">
      <stop
         id="stop6985"
         offset="0"
         style="stop-color:#77d2fb;stop-opacity:1;" />
    </linearGradient>
    <linearGradient
       id="linearGradient1830">
      <stop
         offset="0"
         style="stop-color:#d9d9d9;stop-opacity:1"
         id="stop1826" />
      <stop
         offset="1"
         style="stop-color:#ffffff;stop-opacity:1;"
         id="stop1828" />
    </linearGradient>
    <linearGradient
       inkscape:collect="always"
       id="linearGradient1425">
      <stop
         id="stop1423"
         offset="0"
         style="stop-color:#b0b6b1;stop-opacity:1" />
      <stop
         id="stop1421"
         offset="1"
         style="stop-color:#7c766f;stop-opacity:1" />
    </linearGradient>
    <linearGradient
       y2="382.94708"
       x2="-418.2702"
       y1="295.88895"
       x1="-446.64023"
       gradientTransform="matrix(0.1643932,0,0,0.16426631,87.420429,224.18166)"
       gradientUnits="userSpaceOnUse"
       id="linearGradient1048"
       xlink:href="#linearGradient1425"
       inkscape:collect="always" />
    <linearGradient
       inkscape:collect="always"
       xlink:href="#linearGradient1830"
       id="linearGradient1503"
       x1="29.203474"
       y1="263.52237"
       x2="4.5843229"
       y2="296.16849"
       gradientUnits="userSpaceOnUse"
       gradientTransform="matrix(1.0010487,0,0,1.0010383,-0.01775767,-0.29086231)" />
  </defs>
  <sodipodi:namedview
     id="base"
     pagecolor="#ffffff"
     bordercolor="#666666"
     borderopacity="1.0"
     inkscape:pageopacity="0.0"
     inkscape:pageshadow="2"
     inkscape:zoom="1.4142136"
     inkscape:cx="31.426164"
     inkscape:cy="39.699651"
     inkscape:document-units="mm"
     inkscape:current-layer="layer1"
     showgrid="false"
     inkscape:window-width="1600"
     inkscape:window-height="814"
     inkscape:window-x="0"
     inkscape:window-y="0"
     inkscape:window-maximized="1"
     units="px" />
  <metadata
     id="metadata1035">
    <rdf:RDF>
      <cc:Work
         rdf:about="">
        <dc:format>image/svg+xml</dc:format>
        <dc:type
           rdf:resource="http://purl.org/dc/dcmitype/StillImage" />
        <dc:title />
      </cc:Work>
    </rdf:RDF>
  </metadata>
  <g
     inkscape:label="Layer 1"
     inkscape:groupmode="layer"
     id="layer1"
     transform="translate(0,-263.13332)">
    <path
       style="opacity:0.25;fill:#000000;fill-opacity:1;stroke:none;stroke-width:1.87499988;stroke-miterlimit:4;stroke-dasharray:none;stroke-opacity:1"
       d="M 4.5713723,264.09818 V 296.7104 H 29.295294 v -18.3 c -0.04716,-0.8313 -0.101653,-1.57532 -0.312496,-2.32966 -0.21448,-0.76736 -0.552469,-1.49394 -0.956412,-2.18925 -0.516871,-0.8897 -1.39035,-1.46334 -2.166671,-2.19248 -0.47098,-0.42711 -1.488209,-1.44169 -2.719481,-2.65304 -1.221196,-1.20143 -2.653456,-2.59692 -3.849171,-3.68107 -0.35316,-0.3187 -0.866164,-0.64943 -1.342771,-0.84044 -0.370088,-0.14831 -0.80547,-0.24063 -1.22583,-0.30267 -0.433449,-0.064 -0.850926,-0.0958 -1.164384,-0.12361 z"
       id="path5023"
       inkscape:connector-curvature="0"
       sodipodi:nodetypes="ccccascscsscc" />
    <path
       sodipodi:nodetypes="ccccascscsscc"
       inkscape:connector-curvature="0"
       id="path4623-8"
       d="m 4.5713723,263.5729 v 32.61222 H 29.295294 v -18.3 c -0.04716,-0.83129 -0.101653,-1.57532 -0.312496,-2.32966 -0.21448,-0.76736 -0.552469,-1.49394 -0.956412,-2.18925 -0.516871,-0.88969 -1.39035,-1.46334 -2.166671,-2.19247 -0.47098,-0.42712 -1.488209,-1.4417 -2.719481,-2.65305 -1.221196,-1.20142 -2.653456,-2.59692 -3.849171,-3.68107 -0.35316,-0.3187 -0.866164,-0.64944 -1.342771,-0.84044 -0.370088,-0.14831 -0.80547,-0.24063 -1.22583,-0.30267 -0.433449,-0.064 -0.850926,-0.0958 -1.164384,-0.12361 z"
       style="opacity:1;fill:url(#linearGradient1503);fill-opacity:1;stroke:#808080;stroke-width:0.30000001;stroke-miterlimit:4;stroke-dasharray:none;stroke-opacity:1" />
    <path
       sodipodi:nodetypes="ccccsccsc"
       inkscape:connector-curvature="0"
       id="path1355-3"
       d="m 19.751144,265.48426 c 0.01633,0.0263 0.561139,0.90462 0.727791,1.39886 0.451585,1.01234 0.25858,3.97236 0.250369,5.65885 0.02772,-0.19401 4.690513,-1.39583 7.111042,0.80464 -0.01547,-0.0273 -0.04888,-0.0804 -0.12512,-0.18628 -0.07235,-0.10046 -0.182749,-0.24915 -0.371644,-0.44224 -0.528108,-0.60452 -0.230926,-0.0845 -0.805409,-0.682 -0.496688,-0.45047 -1.569491,-1.52048 -2.867987,-2.79805 -1.241182,-1.22116 -2.686924,-2.62954 -3.919042,-3.75378 z"
       style="opacity:0.24800002;fill:#000000;fill-opacity:1;stroke:none;stroke-width:0.30000001;stroke-miterlimit:4;stroke-dasharray:none;stroke-opacity:1" />
    <path
       style="opacity:1;fill:#ffffff;fill-opacity:1;stroke:#808080;stroke-width:0.30000001;stroke-miterlimit:4;stroke-dasharray:none;stroke-opacity:1"
       d="m 19.42404,264.96145 c 0.01548,0.0249 0.53209,0.85773 0.690114,1.32635 0.428208,0.95987 0.292236,3.21802 0.28445,4.8171 0.428992,-0.0223 5.159507,-0.73701 7.328403,1.82407 -0.02928,-0.0506 -0.102779,-0.0927 -0.143771,-0.17312 -0.500768,-0.57318 -1.139582,-1.03373 -1.723521,-1.58216 -0.470975,-0.42712 -1.488241,-1.44167 -2.719516,-2.65302 -1.176928,-1.15787 -2.547826,-2.49325 -3.716159,-3.55922 z"
       id="path4753-0"
       inkscape:connector-curvature="0"
       sodipodi:nodetypes="ccccccsc" />
    <g
       style="stroke-width:4.08449793"
       inkscape:transform-center-y="-9.4924686"
       inkscape:transform-center-x="5.4653607"
       inkscape:label="Capa 1"
       id="layer1-4-9"
       transform="matrix(0.53602412,0,0,0.5372689,-234.93365,-13.785303)">
      <g
         style="stroke-width:4.08449793"
         id="layer1-3-65-0"
         inkscape:label="Capa 1"
         transform="translate(0.41988239,0.03484499)" />
    </g>
    <g
       style="stroke-width:4.08449793"
       inkscape:transform-center-y="-9.4924686"
       inkscape:transform-center-x="5.4653607"
       inkscape:label="Capa 1"
       id="layer1-4"
       transform="matrix(0.53602412,0,0,0.5372689,-234.93365,-13.760303)">
      <g
         style="stroke-width:4.08449793"
         id="layer1-3-65"
         inkscape:label="Capa 1"
         transform="translate(0.41988239,0.03484499)" />
    </g>
    <g
       id="g6757"
       transform="translate(-0.471312,0.63473663)">
      <path
         inkscape:connector-curvature="0"
         id="path6753"
         d="m 17.397481,271.70901 c -0.392371,0 -0.382828,-0.0126 -0.512966,0.6816 -0.04811,0.25666 -0.09856,0.47779 -0.112071,0.49129 -0.04728,0.0473 -0.620737,0.12006 -0.713614,0.0906 -0.0602,-0.0192 -0.178881,-0.2078 -0.331514,-0.52716 -0.268123,-0.561 -0.274255,-0.56443 -0.736809,-0.41007 -0.229219,0.0765 -0.239472,0.0875 -0.253035,0.27121 -0.0078,0.10526 0.0055,0.35242 0.0297,0.54925 0.02414,0.1968 0.0268,0.39096 0.0058,0.43145 -0.04717,0.0913 -0.641627,0.34032 -0.725212,0.30378 -0.03364,-0.0147 -0.208876,-0.20941 -0.389497,-0.43265 -0.296069,-0.36593 -0.340863,-0.40286 -0.454183,-0.37501 -0.17817,0.0438 -0.532769,0.25747 -0.564553,0.34025 -0.01473,0.0383 0.05105,0.27555 0.146262,0.52714 0.0952,0.2516 0.173154,0.49737 0.173154,0.54605 0,0.0993 -0.465183,0.4736 -0.588546,0.4736 -0.04287,0 -0.274538,-0.12888 -0.514766,-0.2865 -0.240218,-0.15762 -0.460583,-0.2866 -0.489672,-0.2866 -0.07183,0 -0.510267,0.43587 -0.510267,0.50727 0,0.0315 0.139616,0.26569 0.310219,0.52066 0.349954,0.52309 0.349859,0.49037 -5.99e-4,0.90517 -0.183205,0.21683 -0.162241,0.21808 -0.899167,-0.0524 l -0.3744014,-0.13747 -0.1156697,0.14336 c -0.063622,0.0788 -0.1521488,0.23818 -0.1967492,0.35415 l -0.08108,0.21077 0.2593322,0.21907 c 0.1426422,0.12047 0.3423421,0.29481 0.4437831,0.3874 l 0.184452,0.16843 -0.127767,0.31877 c -0.07024,0.17533 -0.152751,0.33848 -0.183352,0.36271 -0.03412,0.027 -0.2660245,0.0247 -0.5994429,-0.006 -0.6285888,-0.0583 -0.6178876,-0.0637 -0.7219114,0.36951 -0.08028,0.33439 -0.067815,0.34992 0.5029686,0.62185 0.2808668,0.13382 0.4545512,0.24592 0.4734774,0.3055 0.039101,0.12309 -0.051904,0.68389 -0.1175694,0.72444 -0.028017,0.0172 -0.270488,0.0696 -0.5389603,0.11619 -0.2684681,0.0466 -0.5150007,0.10658 -0.5478577,0.13325 -0.080596,0.0654 -0.080596,0.67689 0,0.74234 0.032865,0.0267 0.2793896,0.0866 0.5478577,0.13316 0.2684723,0.0466 0.5109408,0.0989 0.5389603,0.11628 0.065655,0.0406 0.1566714,0.60134 0.1175694,0.72445 -0.01892,0.0596 -0.1926106,0.17167 -0.4734774,0.30548 -0.568669,0.27093 -0.5858314,0.29156 -0.5059684,0.60919 0.098709,0.39257 0.1191958,0.41522 0.3742031,0.41346 0.1239523,-7.6e-4 0.3759217,-0.0213 0.5599544,-0.0451 0.2465392,-0.0322 0.3499436,-0.0283 0.3928956,0.0138 0.112678,0.11075 0.293382,0.62511 0.248836,0.70827 -0.02327,0.0434 -0.216355,0.22409 -0.4290873,0.40139 -0.3450327,0.28757 -0.383507,0.33579 -0.3562071,0.44673 0.043548,0.177 0.2577344,0.53137 0.340311,0.56302 0.038364,0.0147 0.2757664,-0.0511 0.5275614,-0.14623 0.251795,-0.0952 0.497542,-0.17295 0.546259,-0.17295 0.09937,0 0.474177,0.46484 0.474177,0.58811 0,0.0428 -0.129087,0.27423 -0.286828,0.51427 -0.157742,0.24004 -0.286824,0.46023 -0.286824,0.48929 0,0.0726 0.436592,0.50988 0.508968,0.50988 0.03212,0 0.251348,-0.12898 0.487173,-0.28661 0.235824,-0.15761 0.466476,-0.28659 0.512566,-0.28659 0.122624,0 0.594446,0.3794 0.594446,0.47798 0,0.0464 -0.07775,0.29005 -0.172955,0.54165 -0.0952,0.25161 -0.161179,0.48883 -0.146462,0.52715 0.03178,0.0829 0.386583,0.2966 0.564753,0.34036 0.11332,0.0278 0.158011,-0.009 0.454082,-0.37501 0.180619,-0.22324 0.353579,-0.41712 0.3845,-0.43076 0.08119,-0.036 0.684453,0.21327 0.729211,0.30118 0.02083,0.0409 0.02058,0.2247 -7.03e-4,0.40859 -0.02127,0.18389 -0.0397,0.42675 -0.04119,0.53974 -0.0023,0.19074 0.0096,0.21048 0.165857,0.27571 0.09255,0.0386 0.262677,0.0832 0.378102,0.0991 l 0.209846,0.0286 0.240637,-0.50329 c 0.154728,-0.32373 0.273911,-0.51392 0.334213,-0.53305 0.09289,-0.0294 0.666424,0.0435 0.713713,0.0906 0.01353,0.0135 0.06398,0.23453 0.112073,0.4912 0.0481,0.25656 0.109001,0.51496 0.135364,0.57421 0.04296,0.0963 0.08189,0.10748 0.377702,0.10748 0.212819,0 0.34811,-0.0221 0.381501,-0.0623 0.02846,-0.0342 0.08781,-0.27968 0.131966,-0.54533 0.04416,-0.26565 0.09501,-0.50687 0.11307,-0.53607 0.04185,-0.0676 0.601361,-0.15927 0.72781,-0.11916 0.05967,0.019 0.159924,0.16769 0.266732,0.3958 0.09413,0.20102 0.213418,0.42687 0.265132,0.50187 0.08463,0.12276 0.112946,0.13328 0.283125,0.10609 0.103977,-0.0166 0.262266,-0.0607 0.351709,-0.098 0.153353,-0.064 0.162535,-0.0811 0.161057,-0.2973 -7.61e-4,-0.12613 -0.02113,-0.37973 -0.04509,-0.56362 -0.03205,-0.24593 -0.02852,-0.34908 0.0135,-0.39009 0.0885,-0.0865 0.652343,-0.30081 0.716714,-0.27242 0.03158,0.0139 0.203666,0.20626 0.382598,0.42746 0.178932,0.22118 0.361966,0.40201 0.406495,0.40169 0.09543,-5.8e-4 0.560486,-0.25931 0.610042,-0.33946 0.01884,-0.0304 -0.04937,-0.30179 -0.151761,-0.60298 l -0.18625,-0.54764 0.260131,-0.23384 c 0.143033,-0.12864 0.283898,-0.23388 0.31302,-0.23388 0.02913,0 0.263487,0.13974 0.520863,0.31049 0.257374,0.17075 0.496716,0.31048 0.531762,0.31048 0.08233,0 0.501469,-0.41798 0.501469,-0.50009 0,-0.0344 -0.129085,-0.25904 -0.286824,-0.49908 -0.157741,-0.24004 -0.286929,-0.47147 -0.286926,-0.51427 0,-0.1181 0.382427,-0.5882 0.478476,-0.5882 0.04638,0 0.290367,0.0779 0.542158,0.17304 0.251798,0.0951 0.489731,0.16064 0.528863,0.14564 0.08482,-0.0324 0.361385,-0.50017 0.362205,-0.61206 4.11e-4,-0.0431 -0.182424,-0.23224 -0.405893,-0.42027 -0.465992,-0.3921 -0.480239,-0.43741 -0.272031,-0.86251 0.107622,-0.21972 0.148193,-0.26162 0.248137,-0.25575 0.06572,0.004 0.329189,0.0229 0.585447,0.042 l 0.465879,0.0348 0.07288,-0.17421 c 0.04008,-0.0959 0.08591,-0.26896 0.101772,-0.38471 l 0.02889,-0.21048 -0.504369,-0.24135 c -0.318737,-0.15247 -0.51519,-0.27509 -0.533659,-0.33325 -0.0393,-0.12369 0.05374,-0.68256 0.120468,-0.72376 0.02921,-0.0179 0.270602,-0.069 0.536459,-0.11297 0.265845,-0.0442 0.511372,-0.10349 0.545659,-0.13187 0.08489,-0.0704 0.08489,-0.67833 0,-0.74873 -0.03428,-0.0284 -0.279814,-0.0879 -0.545659,-0.13196 -0.265857,-0.0442 -0.507251,-0.0949 -0.536459,-0.11299 -0.06718,-0.0415 -0.159552,-0.60042 -0.11987,-0.72534 0.01914,-0.0603 0.209473,-0.17945 0.533462,-0.33408 l 0.503769,-0.24034 -0.0288,-0.20977 c -0.01581,-0.11534 -0.0604,-0.28535 -0.09908,-0.37783 -0.06675,-0.15965 -0.08193,-0.168 -0.299824,-0.16651 -0.126214,7.5e-4 -0.380027,0.0211 -0.564053,0.0451 -0.392194,0.051 -0.396003,0.0487 -0.564951,-0.35673 -0.0811,-0.19458 -0.105699,-0.31132 -0.07688,-0.36512 0.02332,-0.0436 0.214946,-0.22297 0.425788,-0.3987 0.210844,-0.17571 0.382901,-0.35518 0.382901,-0.39889 -5.77e-4,-0.11267 -0.27697,-0.58037 -0.362205,-0.61305 -0.03913,-0.015 -0.277066,0.0505 -0.528863,0.14564 -0.251791,0.0952 -0.495792,0.17301 -0.542159,0.17301 -0.09605,0 -0.478475,-0.4701 -0.478475,-0.58818 0,-0.0427 0.129185,-0.27433 0.286926,-0.51436 0.157739,-0.24005 0.286824,-0.46455 0.286824,-0.49899 0,-0.0827 -0.419594,-0.50009 -0.502768,-0.50009 -0.03568,0 -0.243606,0.11997 -0.462181,0.26662 -0.586051,0.39322 -0.517867,0.38236 -0.847478,0.13477 -0.16732,-0.12567 -0.290826,-0.25501 -0.290826,-0.3045 0,-0.0473 0.07795,-0.29183 0.173155,-0.54343 0.0952,-0.25161 0.160776,-0.48945 0.145764,-0.52855 -0.03293,-0.0858 -0.50109,-0.36126 -0.614943,-0.36193 -0.04453,-1.6e-4 -0.227563,0.18058 -0.406494,0.40179 -0.178933,0.22119 -0.350486,0.41331 -0.381399,0.42696 -0.08118,0.036 -0.684363,-0.21326 -0.729212,-0.30119 -0.02076,-0.0408 -0.02107,-0.20312 -7.61e-4,-0.36073 0.02043,-0.15762 0.03887,-0.40057 0.04109,-0.53985 0.0039,-0.24423 -0.0014,-0.25557 -0.158459,-0.32106 -0.08944,-0.0374 -0.247731,-0.0814 -0.35171,-0.0981 -0.170183,-0.0272 -0.198391,-0.0165 -0.283026,0.10619 -0.05172,0.0749 -0.171006,0.30076 -0.26513,0.50178 -0.106805,0.2281 -0.207156,0.37697 -0.266831,0.3959 -0.126447,0.0402 -0.685857,-0.0516 -0.727711,-0.11919 -0.01805,-0.0292 -0.06902,-0.27048 -0.113171,-0.53614 -0.04416,-0.26565 -0.103608,-0.51098 -0.132065,-0.54525 -0.03337,-0.0402 -0.168632,-0.0623 -0.381401,-0.0623 z m -0.240236,2.67384 c 0.131799,5.9e-4 0.266866,0.007 0.403694,0.0202 0.136828,0.0125 0.275376,0.0306 0.414192,0.0531 0.27763,0.0451 0.556259,0.10832 0.823587,0.18191 0.267328,0.0736 0.523418,0.1575 0.756102,0.24404 0.232685,0.0866 0.441938,0.17572 0.61564,0.25973 0.115308,0.0559 0.228995,0.11721 0.340711,0.18352 0.111718,0.0662 0.221515,0.13746 0.329015,0.21287 0.107501,0.0754 0.212659,0.15504 0.315318,0.23816 0.10266,0.0832 0.202828,0.16976 0.300023,0.25914 0.194388,0.17874 0.377183,0.36864 0.545957,0.5639 0.168775,0.19527 0.323517,0.39592 0.46168,0.59629 0.138162,0.20038 0.259759,0.40049 0.362306,0.59459 0.102547,0.1941 0.186008,0.3822 0.247935,0.55862 0.03097,0.0882 0.05651,0.1735 0.07639,0.25514 0.01987,0.0816 0.03413,0.15969 0.0423,0.23336 0.0082,0.0737 0.01033,0.14292 0.006,0.20718 -0.0042,0.0643 -0.01475,0.12349 -0.0319,0.17691 -0.0194,0.0604 -0.04446,0.11538 -0.07408,0.16524 -0.02961,0.0498 -0.06381,0.0947 -0.101472,0.13487 -0.03767,0.0401 -0.07881,0.0757 -0.122367,0.10718 -0.04355,0.0315 -0.08949,0.0588 -0.136765,0.0822 -0.09456,0.0473 -0.194452,0.0796 -0.290924,0.10096 -0.09646,0.0213 -0.189544,0.0316 -0.270631,0.0343 -0.409647,0.0143 -0.7672,0.007 -1.272168,-0.005 -0.504968,-0.0125 -1.157354,-0.0308 -2.156639,-0.039 v -10e-5 c -0.01488,10e-4 -0.07888,0.006 -0.174756,-0.004 -0.04793,-0.004 -0.103808,-0.0127 -0.165556,-0.0262 -0.06174,-0.0135 -0.129297,-0.0325 -0.200549,-0.0588 -0.07125,-0.0264 -0.146188,-0.0603 -0.222641,-0.10359 -0.07646,-0.0433 -0.154478,-0.0962 -0.23184,-0.16062 -0.07736,-0.0644 -0.154072,-0.14036 -0.22804,-0.22986 -0.07397,-0.0895 -0.145171,-0.19259 -0.211446,-0.31128 -0.3286,-0.58846 -0.614664,-1.07753 -0.88567,-1.55909 -0.135502,-0.24079 -0.267173,-0.47963 -0.398595,-0.72816 -0.131424,-0.24852 -0.262574,-0.50673 -0.396797,-0.78599 -0.04288,-0.0893 -0.08374,-0.19318 -0.106973,-0.30447 -0.01163,-0.0557 -0.01879,-0.11318 -0.0197,-0.17154 -9.9e-4,-0.0584 0.0045,-0.11754 0.01819,-0.17672 0.0137,-0.0591 0.03563,-0.1183 0.06779,-0.17641 0.03215,-0.0582 0.07448,-0.11524 0.128967,-0.17042 0.05448,-0.0551 0.121149,-0.10846 0.201847,-0.15883 0.0807,-0.0503 0.175444,-0.0979 0.286226,-0.14156 0.06902,-0.0272 0.141278,-0.0503 0.216344,-0.0699 0.07507,-0.0195 0.152915,-0.0353 0.233138,-0.0475 0.16045,-0.0246 0.33034,-0.0354 0.50607,-0.0346 z m -3.592767,1.85238 c 0.05021,7.7e-4 0.09894,0.006 0.145962,0.0163 0.04702,0.009 0.09242,0.0242 0.136066,0.0417 0.08729,0.0353 0.167636,0.0843 0.240136,0.14057 0.07251,0.0564 0.137111,0.12023 0.193151,0.1852 0.05603,0.065 0.103451,0.13101 0.141364,0.1919 0.218869,0.35158 0.393422,0.66819 0.637633,1.11675 0.244211,0.44854 0.558072,1.02903 1.055425,1.90832 0.0088,0.0122 0.04466,0.0661 0.08507,0.15484 0.02021,0.0444 0.04161,0.0974 0.06129,0.15823 0.01968,0.0609 0.0376,0.12968 0.05109,0.20539 0.0135,0.0757 0.02246,0.1584 0.02419,0.24726 0.0016,0.0889 -0.004,0.18384 -0.0197,0.2841 -0.01576,0.1002 -0.04165,0.20581 -0.08048,0.31577 -0.03884,0.10996 -0.09062,0.2243 -0.158159,0.34225 -0.334874,0.58479 -0.60667,1.08211 -0.879672,1.56249 -0.136501,0.24017 -0.273241,0.47613 -0.41839,0.71666 -0.145153,0.24052 -0.298698,0.48562 -0.468578,0.74413 -0.05428,0.0825 -0.122193,0.17088 -0.205147,0.24743 -0.04148,0.0382 -0.08668,0.0737 -0.135865,0.10391 -0.04919,0.0303 -0.102309,0.0552 -0.159558,0.0733 -0.05724,0.0178 -0.11858,0.0286 -0.184253,0.0297 -0.06568,10e-4 -0.135689,-0.007 -0.210146,-0.027 -0.07445,-0.0199 -0.153438,-0.0514 -0.237038,-0.0965 -0.08359,-0.0453 -0.171831,-0.10421 -0.26493,-0.17921 -0.05799,-0.0468 -0.114197,-0.0983 -0.168657,-0.15424 -0.05445,-0.0561 -0.107208,-0.11615 -0.158158,-0.18022 -0.101907,-0.12815 -0.196751,-0.27149 -0.284826,-0.42577 -0.08808,-0.15425 -0.169318,-0.31942 -0.243836,-0.49119 -0.07451,-0.17174 -0.142315,-0.35013 -0.203548,-0.53075 -0.06124,-0.1806 -0.115942,-0.36341 -0.164157,-0.54424 -0.04821,-0.18082 -0.08999,-0.35963 -0.125467,-0.53205 -0.03547,-0.1724 -0.06467,-0.33842 -0.08768,-0.49377 -0.023,-0.15538 -0.03979,-0.30009 -0.05059,-0.42976 -0.01074,-0.12913 -0.01584,-0.25971 -0.01579,-0.39101 1.9e-5,-0.1313 0.0051,-0.26338 0.0151,-0.39559 0.0099,-0.13221 0.0246,-0.26454 0.0435,-0.39638 0.0189,-0.13187 0.04208,-0.26317 0.06909,-0.3934 0.05399,-0.26046 0.123275,-0.51644 0.204247,-0.7628 0.08097,-0.24637 0.173553,-0.48314 0.274328,-0.70529 0.100769,-0.22213 0.209712,-0.42968 0.323117,-0.61745 0.113406,-0.18779 0.231348,-0.3558 0.350209,-0.49909 0.05942,-0.0716 0.119103,-0.13717 0.178553,-0.1958 0.05945,-0.0586 0.118685,-0.11031 0.177254,-0.15464 0.05856,-0.0442 0.116462,-0.0813 0.173254,-0.10998 0.05679,-0.0287 0.112436,-0.0494 0.166558,-0.0614 0.06125,-0.0135 0.120668,-0.0196 0.178054,-0.0187 z m 3.840301,3.76082 a 0.66480458,0.64475349 0 0 1 0.664828,0.64475 0.66480458,0.64475349 0 0 1 -0.664828,0.64471 0.66480458,0.64475349 0 0 1 -0.664826,-0.64471 0.66480458,0.64475349 0 0 1 0.664826,-0.64475 z m 3.301143,1.30735 c 0.273293,-7.6e-4 0.543136,3.6e-4 0.821086,0.007 0.277947,0.006 0.563999,0.0181 0.869674,0.0374 0.09767,0.006 0.207005,0.0213 0.313918,0.0556 0.05345,0.0171 0.10627,0.039 0.156761,0.0669 0.05048,0.0279 0.09866,0.0619 0.142661,0.10303 0.044,0.0413 0.08388,0.0899 0.11787,0.14684 0.034,0.0571 0.0621,0.1225 0.08258,0.19779 0.02047,0.0752 0.03334,0.16028 0.03678,0.25634 0.0034,0.0961 -0.0026,0.20316 -0.0197,0.32247 -0.01066,0.0744 -0.02637,0.1496 -0.04668,0.22546 -0.02031,0.0758 -0.04526,0.15229 -0.07429,0.22916 -0.05804,0.15376 -0.132496,0.30909 -0.219745,0.46383 -0.08725,0.15475 -0.187257,0.30889 -0.296222,0.46053 -0.108964,0.15163 -0.226927,0.30071 -0.35011,0.44514 -0.123185,0.14442 -0.25159,0.28425 -0.381501,0.41737 -0.129906,0.13311 -0.261357,0.25949 -0.390499,0.37721 -0.129138,0.11771 -0.255928,0.22675 -0.376801,0.32496 -0.120874,0.0982 -0.235795,0.18562 -0.340911,0.26023 -0.104664,0.0743 -0.213377,0.14436 -0.325315,0.21029 -0.111935,0.0658 -0.227134,0.1277 -0.344811,0.1854 -0.11768,0.0577 -0.237818,0.11138 -0.359706,0.16104 -0.12189,0.0496 -0.245437,0.0954 -0.370004,0.13706 -0.249139,0.0835 -0.502125,0.15125 -0.752805,0.20399 -0.250677,0.0527 -0.499131,0.0904 -0.739108,0.11358 -0.239975,0.0232 -0.47149,0.0319 -0.688521,0.0267 -0.21703,-0.005 -0.419496,-0.0241 -0.601344,-0.0566 -0.09092,-0.0161 -0.176703,-0.0356 -0.256531,-0.0583 -0.07982,-0.0226 -0.153737,-0.0486 -0.220944,-0.0778 -0.0672,-0.0292 -0.127699,-0.0615 -0.180753,-0.0968 -0.05305,-0.0355 -0.0987,-0.0739 -0.136065,-0.11529 -0.04229,-0.047 -0.077,-0.0961 -0.105168,-0.14684 -0.02817,-0.0506 -0.04978,-0.10291 -0.06569,-0.15603 -0.01591,-0.053 -0.0261,-0.1069 -0.03159,-0.16084 -0.0054,-0.0539 -0.0061,-0.10798 -0.0032,-0.16133 0.006,-0.10674 0.02754,-0.21091 0.05678,-0.30659 0.02925,-0.0957 0.06632,-0.18287 0.103872,-0.25583 0.189728,-0.36859 0.372019,-0.68073 0.631735,-1.12025 0.259718,-0.43951 0.596857,-1.00642 1.096515,-1.88436 0.0059,-0.0138 0.034,-0.0726 0.08928,-0.15243 0.02765,-0.04 0.06215,-0.0854 0.104177,-0.13317 0.04201,-0.0479 0.0915,-0.0982 0.14926,-0.14804 0.05776,-0.0498 0.123771,-0.0991 0.19865,-0.14525 0.07487,-0.0462 0.158666,-0.0891 0.252035,-0.12556 0.09337,-0.0366 0.196287,-0.0668 0.309518,-0.0879 0.113231,-0.0212 0.23674,-0.0331 0.371204,-0.0331 0.666672,0 1.227055,-0.0114 1.773639,-0.0134 z"
         style="opacity:0.25;fill:#000000;fill-opacity:1;stroke-width:0.24771467" />
      <path
         style="fill:url(#linearGradient1048);fill-opacity:1;stroke:#808080;stroke-width:0.2;stroke-miterlimit:4;stroke-dasharray:none;stroke-opacity:1"
         d="m 17.397481,271.17984 c -0.392371,0 -0.382828,-0.0126 -0.512966,0.6816 -0.04811,0.25666 -0.09856,0.47779 -0.112071,0.49129 -0.04728,0.0473 -0.620737,0.12006 -0.713614,0.0906 -0.0602,-0.0192 -0.178881,-0.2078 -0.331514,-0.52716 -0.268123,-0.561 -0.274255,-0.56443 -0.736809,-0.41007 -0.229219,0.0765 -0.239472,0.0875 -0.253035,0.27121 -0.0078,0.10526 0.0055,0.35242 0.0297,0.54925 0.02414,0.1968 0.0268,0.39096 0.0058,0.43145 -0.04717,0.0913 -0.641627,0.34032 -0.725212,0.30378 -0.03364,-0.0147 -0.208876,-0.20941 -0.389497,-0.43265 -0.296069,-0.36593 -0.340863,-0.40286 -0.454183,-0.37501 -0.17817,0.0438 -0.532769,0.25747 -0.564553,0.34025 -0.01473,0.0383 0.05105,0.27555 0.146262,0.52714 0.0952,0.2516 0.173154,0.49737 0.173154,0.54605 0,0.0993 -0.465183,0.4736 -0.588546,0.4736 -0.04287,0 -0.274538,-0.12888 -0.514766,-0.2865 -0.240218,-0.15762 -0.460583,-0.2866 -0.489672,-0.2866 -0.07183,0 -0.510267,0.43587 -0.510267,0.50727 0,0.0315 0.139616,0.26569 0.310219,0.52066 0.349954,0.52309 0.349859,0.49037 -5.99e-4,0.90517 -0.183205,0.21683 -0.162241,0.21808 -0.899167,-0.0524 l -0.3744014,-0.13747 -0.1156697,0.14336 c -0.063622,0.0788 -0.1521488,0.23818 -0.1967492,0.35415 l -0.08108,0.21077 0.2593322,0.21907 c 0.1426422,0.12047 0.3423421,0.29481 0.4437831,0.3874 l 0.184452,0.16843 -0.127767,0.31877 c -0.07024,0.17533 -0.152751,0.33848 -0.183352,0.36271 -0.03412,0.027 -0.2660245,0.0247 -0.5994429,-0.006 -0.6285888,-0.0583 -0.6178876,-0.0637 -0.7219114,0.36951 -0.08028,0.33439 -0.067815,0.34992 0.5029686,0.62185 0.2808668,0.13382 0.4545512,0.24592 0.4734774,0.3055 0.039101,0.12309 -0.051904,0.68389 -0.1175694,0.72444 -0.028017,0.0172 -0.270488,0.0696 -0.5389603,0.11619 -0.2684681,0.0466 -0.5150007,0.10658 -0.5478577,0.13325 -0.080596,0.0654 -0.080596,0.67689 0,0.74234 0.032865,0.0267 0.2793896,0.0866 0.5478577,0.13316 0.2684723,0.0466 0.5109408,0.0989 0.5389603,0.11628 0.065655,0.0406 0.1566714,0.60134 0.1175694,0.72445 -0.01892,0.0596 -0.1926106,0.17167 -0.4734774,0.30548 -0.568669,0.27093 -0.5858314,0.29156 -0.5059684,0.60919 0.098709,0.39257 0.1191958,0.41522 0.3742031,0.41346 0.1239523,-7.6e-4 0.3759217,-0.0213 0.5599544,-0.0451 0.2465392,-0.0322 0.3499436,-0.0283 0.3928956,0.0138 0.112678,0.11075 0.293382,0.62511 0.248836,0.70827 -0.02327,0.0434 -0.216355,0.22409 -0.4290873,0.40139 -0.3450327,0.28757 -0.383507,0.33579 -0.3562071,0.44673 0.043548,0.177 0.2577344,0.53137 0.340311,0.56302 0.038364,0.0147 0.2757664,-0.0511 0.5275614,-0.14623 0.251795,-0.0952 0.497542,-0.17295 0.546259,-0.17295 0.09937,0 0.474177,0.46484 0.474177,0.58811 0,0.0428 -0.129087,0.27423 -0.286828,0.51427 -0.157742,0.24004 -0.286824,0.46023 -0.286824,0.48929 0,0.0726 0.436592,0.50988 0.508968,0.50988 0.03212,0 0.251348,-0.12898 0.487173,-0.28661 0.235824,-0.15761 0.466476,-0.28659 0.512566,-0.28659 0.122624,0 0.594446,0.3794 0.594446,0.47798 0,0.0464 -0.07775,0.29005 -0.172955,0.54165 -0.0952,0.25161 -0.161179,0.48883 -0.146462,0.52715 0.03178,0.0829 0.386583,0.2966 0.564753,0.34036 0.11332,0.0278 0.158011,-0.009 0.454082,-0.37501 0.180619,-0.22324 0.353579,-0.41712 0.3845,-0.43076 0.08119,-0.036 0.684453,0.21327 0.729211,0.30118 0.02083,0.0409 0.02058,0.2247 -7.03e-4,0.40859 -0.02127,0.18389 -0.0397,0.42675 -0.04119,0.53974 -0.0023,0.19074 0.0096,0.21048 0.165857,0.27571 0.09255,0.0386 0.262677,0.0832 0.378102,0.0991 l 0.209846,0.0286 0.240637,-0.50329 c 0.154728,-0.32373 0.273911,-0.51392 0.334213,-0.53305 0.09289,-0.0294 0.666424,0.0435 0.713713,0.0906 0.01353,0.0135 0.06398,0.23453 0.112073,0.4912 0.0481,0.25656 0.109001,0.51496 0.135364,0.57421 0.04296,0.0963 0.08189,0.10748 0.377702,0.10748 0.212819,0 0.34811,-0.0221 0.381501,-0.0623 0.02846,-0.0342 0.08781,-0.27968 0.131966,-0.54533 0.04416,-0.26565 0.09501,-0.50687 0.11307,-0.53607 0.04185,-0.0676 0.601361,-0.15927 0.72781,-0.11916 0.05967,0.019 0.159924,0.16769 0.266732,0.3958 0.09413,0.20102 0.213418,0.42687 0.265132,0.50187 0.08463,0.12276 0.112946,0.13328 0.283125,0.10609 0.103977,-0.0166 0.262266,-0.0607 0.351709,-0.098 0.153353,-0.064 0.162535,-0.0811 0.161057,-0.2973 -7.61e-4,-0.12613 -0.02113,-0.37973 -0.04509,-0.56362 -0.03205,-0.24593 -0.02852,-0.34908 0.0135,-0.39009 0.0885,-0.0865 0.652343,-0.30081 0.716714,-0.27242 0.03158,0.0139 0.203666,0.20626 0.382598,0.42746 0.178932,0.22118 0.361966,0.40201 0.406495,0.40169 0.09543,-5.8e-4 0.560486,-0.25931 0.610042,-0.33946 0.01884,-0.0304 -0.04937,-0.30179 -0.151761,-0.60298 l -0.18625,-0.54764 0.260131,-0.23384 c 0.143033,-0.12864 0.283898,-0.23388 0.31302,-0.23388 0.02913,0 0.263487,0.13974 0.520863,0.31049 0.257374,0.17075 0.496716,0.31048 0.531762,0.31048 0.08233,0 0.501469,-0.41798 0.501469,-0.50009 0,-0.0344 -0.129085,-0.25904 -0.286824,-0.49908 -0.157741,-0.24004 -0.286929,-0.47147 -0.286926,-0.51427 0,-0.1181 0.382427,-0.5882 0.478476,-0.5882 0.04638,0 0.290367,0.0779 0.542158,0.17304 0.251798,0.0951 0.489731,0.16064 0.528863,0.14564 0.08482,-0.0324 0.361385,-0.50017 0.362205,-0.61206 4.11e-4,-0.0431 -0.182424,-0.23224 -0.405893,-0.42027 -0.465992,-0.3921 -0.480239,-0.43741 -0.272031,-0.86251 0.107622,-0.21972 0.148193,-0.26162 0.248137,-0.25575 0.06572,0.004 0.329189,0.0229 0.585447,0.042 l 0.465879,0.0348 0.07288,-0.17421 c 0.04008,-0.0959 0.08591,-0.26896 0.101772,-0.38471 l 0.02889,-0.21048 -0.504369,-0.24135 c -0.318737,-0.15247 -0.51519,-0.27509 -0.533659,-0.33325 -0.0393,-0.12369 0.05374,-0.68256 0.120468,-0.72376 0.02921,-0.0179 0.270602,-0.069 0.536459,-0.11297 0.265845,-0.0442 0.511372,-0.10349 0.545659,-0.13187 0.08489,-0.0704 0.08489,-0.67833 0,-0.74873 -0.03428,-0.0284 -0.279814,-0.0879 -0.545659,-0.13196 -0.265857,-0.0442 -0.507251,-0.0949 -0.536459,-0.11299 -0.06718,-0.0415 -0.159552,-0.60042 -0.11987,-0.72534 0.01914,-0.0603 0.209473,-0.17945 0.533462,-0.33408 l 0.503769,-0.24034 -0.0288,-0.20977 c -0.01581,-0.11534 -0.0604,-0.28535 -0.09908,-0.37783 -0.06675,-0.15965 -0.08193,-0.168 -0.299824,-0.16651 -0.126214,7.5e-4 -0.380027,0.0211 -0.564053,0.0451 -0.392194,0.051 -0.396003,0.0487 -0.564951,-0.35673 -0.0811,-0.19458 -0.105699,-0.31132 -0.07688,-0.36512 0.02332,-0.0436 0.214946,-0.22297 0.425788,-0.3987 0.210844,-0.17571 0.382901,-0.35518 0.382901,-0.39889 -5.77e-4,-0.11267 -0.27697,-0.58037 -0.362205,-0.61305 -0.03913,-0.015 -0.277066,0.0505 -0.528863,0.14564 -0.251791,0.0952 -0.495792,0.17301 -0.542159,0.17301 -0.09605,0 -0.478475,-0.4701 -0.478475,-0.58818 0,-0.0427 0.129185,-0.27433 0.286926,-0.51436 0.157739,-0.24005 0.286824,-0.46455 0.286824,-0.49899 0,-0.0827 -0.419594,-0.50009 -0.502768,-0.50009 -0.03568,0 -0.243606,0.11997 -0.462181,0.26662 -0.586051,0.39322 -0.517867,0.38236 -0.847478,0.13477 -0.16732,-0.12567 -0.290826,-0.25501 -0.290826,-0.3045 0,-0.0473 0.07795,-0.29183 0.173155,-0.54343 0.0952,-0.25161 0.160776,-0.48945 0.145764,-0.52855 -0.03293,-0.0858 -0.50109,-0.36126 -0.614943,-0.36193 -0.04453,-1.6e-4 -0.227563,0.18058 -0.406494,0.40179 -0.178933,0.22119 -0.350486,0.41331 -0.381399,0.42696 -0.08118,0.036 -0.684363,-0.21326 -0.729212,-0.30119 -0.02076,-0.0408 -0.02107,-0.20312 -7.61e-4,-0.36073 0.02043,-0.15762 0.03887,-0.40057 0.04109,-0.53985 0.0039,-0.24423 -0.0014,-0.25557 -0.158459,-0.32106 -0.08944,-0.0374 -0.247731,-0.0814 -0.35171,-0.0981 -0.170183,-0.0272 -0.198391,-0.0165 -0.283026,0.10619 -0.05172,0.0749 -0.171006,0.30076 -0.26513,0.50178 -0.106805,0.2281 -0.207156,0.37697 -0.266831,0.3959 -0.126447,0.0402 -0.685857,-0.0516 -0.727711,-0.11919 -0.01805,-0.0292 -0.06902,-0.27048 -0.113171,-0.53614 -0.04416,-0.26565 -0.103608,-0.51098 -0.132065,-0.54525 -0.03337,-0.0402 -0.168632,-0.0623 -0.381401,-0.0623 z m -0.240236,2.67384 c 0.131799,5.9e-4 0.266866,0.007 0.403694,0.0202 0.136828,0.0125 0.275376,0.0306 0.414192,0.0531 0.27763,0.0451 0.556259,0.10832 0.823587,0.18191 0.267328,0.0736 0.523418,0.1575 0.756102,0.24404 0.232685,0.0866 0.441938,0.17572 0.61564,0.25973 0.115308,0.0559 0.228995,0.11721 0.340711,0.18352 0.111718,0.0662 0.221515,0.13746 0.329015,0.21287 0.107501,0.0754 0.212659,0.15504 0.315318,0.23816 0.10266,0.0832 0.202828,0.16976 0.300023,0.25914 0.194388,0.17874 0.377183,0.36864 0.545957,0.5639 0.168775,0.19527 0.323517,0.39592 0.46168,0.59629 0.138162,0.20038 0.259759,0.40049 0.362306,0.59459 0.102547,0.1941 0.186008,0.3822 0.247935,0.55862 0.03097,0.0882 0.05651,0.1735 0.07639,0.25514 0.01987,0.0816 0.03413,0.15969 0.0423,0.23336 0.0082,0.0737 0.01033,0.14292 0.006,0.20718 -0.0042,0.0643 -0.01475,0.12349 -0.0319,0.17691 -0.0194,0.0604 -0.04446,0.11538 -0.07408,0.16524 -0.02961,0.0498 -0.06381,0.0947 -0.101472,0.13487 -0.03767,0.0401 -0.07881,0.0757 -0.122367,0.10718 -0.04355,0.0315 -0.08949,0.0588 -0.136765,0.0822 -0.09456,0.0473 -0.194452,0.0796 -0.290924,0.10096 -0.09646,0.0213 -0.189544,0.0316 -0.270631,0.0343 -0.409647,0.0143 -0.7672,0.007 -1.272168,-0.005 -0.504968,-0.0125 -1.157354,-0.0308 -2.156639,-0.039 v -1e-4 c -0.01488,0.001 -0.07888,0.006 -0.174756,-0.004 -0.04793,-0.004 -0.103808,-0.0127 -0.165556,-0.0262 -0.06174,-0.0135 -0.129297,-0.0325 -0.200549,-0.0588 -0.07125,-0.0264 -0.146188,-0.0603 -0.222641,-0.10359 -0.07646,-0.0433 -0.154478,-0.0962 -0.23184,-0.16062 -0.07736,-0.0644 -0.154072,-0.14036 -0.22804,-0.22986 -0.07397,-0.0895 -0.145171,-0.19259 -0.211446,-0.31128 -0.3286,-0.58846 -0.614664,-1.07753 -0.88567,-1.55909 -0.135502,-0.24079 -0.267173,-0.47963 -0.398595,-0.72816 -0.131424,-0.24852 -0.262574,-0.50673 -0.396797,-0.78599 -0.04288,-0.0893 -0.08374,-0.19318 -0.106973,-0.30447 -0.01163,-0.0557 -0.01879,-0.11318 -0.0197,-0.17154 -9.9e-4,-0.0584 0.0045,-0.11754 0.01819,-0.17672 0.0137,-0.0591 0.03563,-0.1183 0.06779,-0.17641 0.03215,-0.0582 0.07448,-0.11524 0.128967,-0.17042 0.05448,-0.0551 0.121149,-0.10846 0.201847,-0.15883 0.0807,-0.0503 0.175444,-0.0979 0.286226,-0.14156 0.06902,-0.0272 0.141278,-0.0503 0.216344,-0.0699 0.07507,-0.0195 0.152915,-0.0353 0.233138,-0.0475 0.16045,-0.0246 0.33034,-0.0354 0.50607,-0.0346 z m -3.592767,1.85238 c 0.05021,7.7e-4 0.09894,0.006 0.145962,0.0163 0.04702,0.009 0.09242,0.0242 0.136066,0.0417 0.08729,0.0353 0.167636,0.0843 0.240136,0.14057 0.07251,0.0564 0.137111,0.12023 0.193151,0.1852 0.05603,0.065 0.103451,0.13101 0.141364,0.1919 0.218869,0.35158 0.393422,0.66819 0.637633,1.11675 0.244211,0.44854 0.558072,1.02903 1.055425,1.90832 0.0088,0.0122 0.04466,0.0661 0.08507,0.15484 0.02021,0.0444 0.04161,0.0974 0.06129,0.15823 0.01968,0.0609 0.0376,0.12968 0.05109,0.20539 0.0135,0.0757 0.02246,0.1584 0.02419,0.24726 0.0016,0.0889 -0.004,0.18384 -0.0197,0.2841 -0.01576,0.1002 -0.04165,0.20581 -0.08048,0.31577 -0.03884,0.10996 -0.09062,0.2243 -0.158159,0.34225 -0.334874,0.58479 -0.60667,1.08211 -0.879672,1.56249 -0.136501,0.24017 -0.273241,0.47613 -0.41839,0.71666 -0.145153,0.24052 -0.298698,0.48562 -0.468578,0.74413 -0.05428,0.0825 -0.122193,0.17088 -0.205147,0.24743 -0.04148,0.0382 -0.08668,0.0737 -0.135865,0.10391 -0.04919,0.0303 -0.102309,0.0552 -0.159558,0.0733 -0.05724,0.0178 -0.11858,0.0286 -0.184253,0.0297 -0.06568,0.001 -0.135689,-0.007 -0.210146,-0.027 -0.07445,-0.0199 -0.153438,-0.0514 -0.237038,-0.0965 -0.08359,-0.0453 -0.171831,-0.10421 -0.26493,-0.17921 -0.05799,-0.0468 -0.114197,-0.0983 -0.168657,-0.15424 -0.05445,-0.0561 -0.107208,-0.11615 -0.158158,-0.18022 -0.101907,-0.12815 -0.196751,-0.27149 -0.284826,-0.42577 -0.08808,-0.15425 -0.169318,-0.31942 -0.243836,-0.49119 -0.07451,-0.17174 -0.142315,-0.35013 -0.203548,-0.53075 -0.06124,-0.1806 -0.115942,-0.36341 -0.164157,-0.54424 -0.04821,-0.18082 -0.08999,-0.35963 -0.125467,-0.53205 -0.03547,-0.1724 -0.06467,-0.33842 -0.08768,-0.49377 -0.023,-0.15538 -0.03979,-0.30009 -0.05059,-0.42976 -0.01074,-0.12913 -0.01584,-0.25971 -0.01579,-0.39101 1.9e-5,-0.1313 0.0051,-0.26338 0.0151,-0.39559 0.0099,-0.13221 0.0246,-0.26454 0.0435,-0.39638 0.0189,-0.13187 0.04208,-0.26317 0.06909,-0.3934 0.05399,-0.26046 0.123275,-0.51644 0.204247,-0.7628 0.08097,-0.24637 0.173553,-0.48314 0.274328,-0.70529 0.100769,-0.22213 0.209712,-0.42968 0.323117,-0.61745 0.113406,-0.18779 0.231348,-0.3558 0.350209,-0.49909 0.05942,-0.0716 0.119103,-0.13717 0.178553,-0.1958 0.05945,-0.0586 0.118685,-0.11031 0.177254,-0.15464 0.05856,-0.0442 0.116462,-0.0813 0.173254,-0.10998 0.05679,-0.0287 0.112436,-0.0494 0.166558,-0.0614 0.06125,-0.0135 0.120668,-0.0196 0.178054,-0.0187 z m 3.840301,3.76082 a 0.66480458,0.64475349 0 0 1 0.664828,0.64475 0.66480458,0.64475349 0 0 1 -0.664828,0.64471 0.66480458,0.64475349 0 0 1 -0.664826,-0.64471 0.66480458,0.64475349 0 0 1 0.664826,-0.64475 z m 3.301143,1.30735 c 0.273293,-7.6e-4 0.543136,3.6e-4 0.821086,0.007 0.277947,0.006 0.563999,0.0181 0.869674,0.0374 0.09767,0.006 0.207005,0.0213 0.313918,0.0556 0.05345,0.0171 0.10627,0.039 0.156761,0.0669 0.05048,0.0279 0.09866,0.0619 0.142661,0.10303 0.044,0.0413 0.08388,0.0899 0.11787,0.14684 0.034,0.0571 0.0621,0.1225 0.08258,0.19779 0.02047,0.0752 0.03334,0.16028 0.03678,0.25634 0.0034,0.0961 -0.0026,0.20316 -0.0197,0.32247 -0.01066,0.0744 -0.02637,0.1496 -0.04668,0.22546 -0.02031,0.0758 -0.04526,0.15229 -0.07429,0.22916 -0.05804,0.15376 -0.132496,0.30909 -0.219745,0.46383 -0.08725,0.15475 -0.187257,0.30889 -0.296222,0.46053 -0.108964,0.15163 -0.226927,0.30071 -0.35011,0.44514 -0.123185,0.14442 -0.25159,0.28425 -0.381501,0.41737 -0.129906,0.13311 -0.261357,0.25949 -0.390499,0.37721 -0.129138,0.11771 -0.255928,0.22675 -0.376801,0.32496 -0.120874,0.0982 -0.235795,0.18562 -0.340911,0.26023 -0.104664,0.0743 -0.213377,0.14436 -0.325315,0.21029 -0.111935,0.0658 -0.227134,0.1277 -0.344811,0.1854 -0.11768,0.0577 -0.237818,0.11138 -0.359706,0.16104 -0.12189,0.0496 -0.245437,0.0954 -0.370004,0.13706 -0.249139,0.0835 -0.502125,0.15125 -0.752805,0.20399 -0.250677,0.0527 -0.499131,0.0904 -0.739108,0.11358 -0.239975,0.0232 -0.47149,0.0319 -0.688521,0.0267 -0.21703,-0.005 -0.419496,-0.0241 -0.601344,-0.0566 -0.09092,-0.0161 -0.176703,-0.0356 -0.256531,-0.0583 -0.07982,-0.0226 -0.153737,-0.0486 -0.220944,-0.0778 -0.0672,-0.0292 -0.127699,-0.0615 -0.180753,-0.0968 -0.05305,-0.0355 -0.0987,-0.0739 -0.136065,-0.11529 -0.04229,-0.047 -0.077,-0.0961 -0.105168,-0.14684 -0.02817,-0.0506 -0.04978,-0.10291 -0.06569,-0.15603 -0.01591,-0.053 -0.0261,-0.1069 -0.03159,-0.16084 -0.0054,-0.0539 -0.0061,-0.10798 -0.0032,-0.16133 0.006,-0.10674 0.02754,-0.21091 0.05678,-0.30659 0.02925,-0.0957 0.06632,-0.18287 0.103872,-0.25583 0.189728,-0.36859 0.372019,-0.68073 0.631735,-1.12025 0.259718,-0.43951 0.596857,-1.00642 1.096515,-1.88436 0.0059,-0.0138 0.034,-0.0726 0.08928,-0.15243 0.02765,-0.04 0.06215,-0.0854 0.104177,-0.13317 0.04201,-0.0479 0.0915,-0.0982 0.14926,-0.14804 0.05776,-0.0498 0.123771,-0.0991 0.19865,-0.14525 0.07487,-0.0462 0.158666,-0.0891 0.252035,-0.12556 0.09337,-0.0366 0.196287,-0.0668 0.309518,-0.0879 0.113231,-0.0212 0.23674,-0.0331 0.371204,-0.0331 0.666672,0 1.227055,-0.0114 1.773639,-0.0134 z"
         id="path1007"
         inkscape:connector-curvature="0" />
    </g>
  </g>
</svg>
