<?xml version="1.0" encoding="UTF-8" standalone="no"?>
<!-- Created with Inkscape (http://www.inkscape.org/) -->

<svg
   xmlns:osb="http://www.openswatchbook.org/uri/2009/osb"
   xmlns:dc="http://purl.org/dc/elements/1.1/"
   xmlns:cc="http://creativecommons.org/ns#"
   xmlns:rdf="http://www.w3.org/1999/02/22-rdf-syntax-ns#"
   xmlns:svg="http://www.w3.org/2000/svg"
   xmlns="http://www.w3.org/2000/svg"
   xmlns:xlink="http://www.w3.org/1999/xlink"
   xmlns:sodipodi="http://sodipodi.sourceforge.net/DTD/sodipodi-0.dtd"
   xmlns:inkscape="http://www.inkscape.org/namespaces/inkscape"
   width="128"
   height="128"
   viewBox="0 0 33.866666 33.866668"
   version="1.1"
   id="svg8"
   inkscape:version="0.92.2 5c3e80d, 2017-08-06"
   sodipodi:docname="org 3.svg">
  <defs
     id="defs2">
    <linearGradient
       id="linearGradient1830">
      <stop
         id="stop1826"
         style="stop-color:#d9d9d9;stop-opacity:1"
         offset="0" />
      <stop
         id="stop1828"
         style="stop-color:#ffffff;stop-opacity:1;"
         offset="1" />
    </linearGradient>
    <linearGradient
       osb:paint="solid"
       id="linearGradient6987">
      <stop
         id="stop6985"
         offset="0"
         style="stop-color:#77d2fb;stop-opacity:1;" />
    </linearGradient>
    <linearGradient
       inkscape:collect="always"
       xlink:href="#linearGradient1830"
       id="linearGradient1095"
       gradientUnits="userSpaceOnUse"
       gradientTransform="matrix(0.95481176,0,0,0.95480184,36.591081,12.6619)"
       x1="29.203474"
       y1="263.52237"
       x2="4.5843229"
       y2="296.16849" />
  </defs>
  <sodipodi:namedview
     id="base"
     pagecolor="#ffffff"
     bordercolor="#666666"
     borderopacity="1.0"
     inkscape:pageopacity="0.0"
     inkscape:pageshadow="2"
     inkscape:zoom="2.3632814"
     inkscape:cx="80.215245"
     inkscape:cy="31.350674"
     inkscape:document-units="mm"
     inkscape:current-layer="layer1"
     showgrid="false"
     units="px"
     inkscape:window-width="1600"
     inkscape:window-height="798"
     inkscape:window-x="0"
     inkscape:window-y="0"
     inkscape:window-maximized="1"
     showguides="false"
     inkscape:snap-nodes="false" />
  <metadata
     id="metadata5">
    <rdf:RDF>
      <cc:Work
         rdf:about="">
        <dc:format>image/svg+xml</dc:format>
        <dc:type
           rdf:resource="http://purl.org/dc/dcmitype/StillImage" />
        <dc:title />
      </cc:Work>
    </rdf:RDF>
  </metadata>
  <g
     inkscape:label="Layer 1"
     inkscape:groupmode="layer"
     id="layer1"
     transform="translate(0,-263.13332)">
    <g
       id="g1156"
       transform="translate(-35.825893,3.3363136e-6)">
      <g
         transform="matrix(0.53602412,0,0,0.5372689,-234.93365,-13.785303)"
         id="layer1-4-3"
         inkscape:label="Capa 1"
         inkscape:transform-center-x="5.4653607"
         inkscape:transform-center-y="-9.4924686"
         style="stroke-width:4.08449793">
        <g
           transform="translate(0.41988239,0.03484499)"
           inkscape:label="Capa 1"
           id="layer1-3-65-9"
           style="stroke-width:4.08449793" />
      </g>
      <g
         transform="matrix(0.53602412,0,0,0.5372689,-234.93365,-13.7603)"
         id="layer1-4"
         inkscape:label="Capa 1"
         inkscape:transform-center-x="5.4653607"
         inkscape:transform-center-y="-9.4924686"
         style="stroke-width:4.08449793">
        <g
           transform="translate(0.41988239,0.03484499)"
           inkscape:label="Capa 1"
           id="layer1-3-65"
           style="stroke-width:4.08449793" />
      </g>
      <g
         transform="matrix(0.51126596,0,0,0.51245325,-269.32006,5.6156869)"
         id="layer1-4-3-2"
         inkscape:label="Capa 1"
         inkscape:transform-center-x="5.4653607"
         inkscape:transform-center-y="-9.4924686"
         style="stroke-width:4.08449793">
        <g
           transform="translate(0.41988239,0.03484499)"
           inkscape:label="Capa 1"
           id="layer1-3-65-9-9"
           style="stroke-width:4.08449793" />
      </g>
      <g
         transform="matrix(0.51126596,0,0,0.51245325,-269.32006,5.6395364)"
         id="layer1-4-1"
         inkscape:label="Capa 1"
         inkscape:transform-center-x="5.4653607"
         inkscape:transform-center-y="-9.4924686"
         style="stroke-width:4.08449793">
        <g
           transform="translate(0.41988239,0.03484499)"
           inkscape:label="Capa 1"
           id="layer1-3-65-2"
           style="stroke-width:4.08449793" />
      </g>
      <g
         transform="matrix(0.53602412,0,0,0.5372689,-199.10776,-13.7853)"
         id="layer1-4-3-3"
         inkscape:label="Capa 1"
         inkscape:transform-center-x="5.4653607"
         inkscape:transform-center-y="-9.4924686"
         style="stroke-width:4.08449793">
        <g
           transform="translate(0.41988239,0.03484499)"
           inkscape:label="Capa 1"
           id="layer1-3-65-9-90"
           style="stroke-width:4.08449793" />
      </g>
      <g
         transform="matrix(0.53602412,0,0,0.5372689,-199.10776,-13.760297)"
         id="layer1-4-5"
         inkscape:label="Capa 1"
         inkscape:transform-center-x="5.4653607"
         inkscape:transform-center-y="-9.4924686"
         style="stroke-width:4.08449793">
        <g
           transform="translate(0.41988239,0.03484499)"
           inkscape:label="Capa 1"
           id="layer1-3-65-22"
           style="stroke-width:4.08449793" />
      </g>
      <path
         sodipodi:nodetypes="ccccascscsscc"
         inkscape:connector-curvature="0"
         id="path5023-4-5-7"
         d="m 40.968246,264.8392 v 31.10591 h 23.581961 v -17.45475 c -0.04498,-0.7929 -0.09696,-1.50255 -0.298063,-2.22205 -0.204573,-0.73192 -0.526951,-1.42494 -0.912236,-2.08813 -0.492998,-0.84861 -1.326132,-1.39576 -2.066596,-2.09122 -0.449226,-0.40738 -1.419471,-1.3751 -2.593872,-2.5305 -1.164791,-1.14594 -2.530897,-2.47697 -3.671384,-3.51104 -0.336848,-0.30398 -0.826157,-0.61944 -1.28075,-0.80163 -0.352994,-0.14146 -0.768267,-0.22951 -1.169211,-0.28869 -0.413429,-0.061 -0.811623,-0.0914 -1.110603,-0.1179 z"
         style="opacity:0.25;fill:#000000;fill-opacity:1;stroke:none;stroke-width:1.7883966;stroke-miterlimit:4;stroke-dasharray:none;stroke-opacity:1" />
      <path
         style="opacity:1;fill:url(#linearGradient1095);fill-opacity:1;stroke:#808080;stroke-width:0.30000001;stroke-miterlimit:4;stroke-dasharray:none;stroke-opacity:1"
         d="m 40.968246,264.33819 v 31.10591 h 23.581961 v -17.45475 c -0.04498,-0.7929 -0.09696,-1.50256 -0.298063,-2.22206 -0.204573,-0.73192 -0.526951,-1.42494 -0.912236,-2.08813 -0.492998,-0.8486 -1.326132,-1.39575 -2.066596,-2.09121 -0.449226,-0.40739 -1.419471,-1.37511 -2.593872,-2.53051 -1.164791,-1.14592 -2.530897,-2.47697 -3.671384,-3.51104 -0.336848,-0.30398 -0.826157,-0.61945 -1.28075,-0.80162 -0.352994,-0.14146 -0.768267,-0.22952 -1.169211,-0.28869 -0.413429,-0.0611 -0.811623,-0.0914 -1.110603,-0.1179 z"
         id="path4623-8-3-3"
         inkscape:connector-curvature="0"
         sodipodi:nodetypes="ccccascscsscc" />
      <g
         transform="translate(36.366857,0.55224827)"
         id="g1055">
        <path
           style="opacity:0.25;fill:#000000;fill-opacity:0.90196078;fill-rule:nonzero;stroke:none;stroke-width:0.15905213;stroke-linecap:round;stroke-linejoin:round;stroke-miterlimit:4;stroke-dasharray:none;stroke-dashoffset:0;stroke-opacity:1"
           d="m 19.756224,270.39074 a 4.7555531,4.7572883 0 0 0 -2.847034,0.95272 6.6260715,6.6284892 0 0 0 -2.292232,-0.41791 6.6260715,6.6284892 0 0 0 -6.6259914,6.6284 6.6260715,6.6284892 0 0 0 3.0823384,5.59174 3.6122404,3.6135584 0 0 0 -0.08552,0.771 3.6122404,3.6135584 0 0 0 3.612173,3.61349 3.6122404,3.6135584 0 0 0 2.947423,-1.52819 4.5653313,4.566997 0 0 0 2.681044,0.87621 4.5653313,4.566997 0 0 0 4.565345,-4.56701 4.5653313,4.566997 0 0 0 -1.835168,-3.65334 4.7555531,4.7572883 0 0 0 1.55312,-3.50988 4.7555531,4.7572883 0 0 0 -4.7555,-4.75723 z"
           id="circle1270"
           inkscape:connector-curvature="0" />
        <ellipse
           cy="283.64456"
           cx="14.600033"
           id="circle1049"
           style="opacity:1;fill:#c96fde;fill-opacity:0.90196078;fill-rule:nonzero;stroke:#744580;stroke-width:0.15875;stroke-linecap:round;stroke-linejoin:round;stroke-miterlimit:4;stroke-dasharray:none;stroke-dashoffset:0;stroke-opacity:1"
           rx="3.6122406"
           ry="3.6135585" />
        <ellipse
           style="opacity:1;fill:#ffca00;fill-opacity:0.90196078;fill-rule:nonzero;stroke:#806709;stroke-width:0.15875;stroke-linecap:round;stroke-linejoin:round;stroke-miterlimit:4;stroke-dasharray:none;stroke-dashoffset:0;stroke-opacity:1"
           id="circle1047"
           cx="19.756147"
           cy="274.87598"
           rx="4.7555532"
           ry="4.7572885" />
        <ellipse
           style="opacity:1;fill:#0078ff;fill-opacity:0.8;fill-rule:nonzero;stroke:#134680;stroke-width:0.15875;stroke-linecap:round;stroke-linejoin:round;stroke-miterlimit:4;stroke-dasharray:none;stroke-dashoffset:0;stroke-opacity:1"
           id="path1043"
           cx="14.616964"
           cy="277.28189"
           rx="6.6260715"
           ry="6.628489" />
        <ellipse
           cy="282.03918"
           cx="20.228514"
           id="circle1045"
           style="opacity:1;fill:#fc2b53;fill-opacity:0.8;fill-rule:nonzero;stroke:#802637;stroke-width:0.15875;stroke-linecap:round;stroke-linejoin:round;stroke-miterlimit:4;stroke-dasharray:none;stroke-dashoffset:0;stroke-opacity:1"
           rx="4.5653315"
           ry="4.5669971" />
      </g>
      <path
         style="opacity:0.24800002;fill:#000000;fill-opacity:1;stroke:none;stroke-width:0.28614345;stroke-miterlimit:4;stroke-dasharray:none;stroke-opacity:1"
         d="m 55.446887,266.16126 c 0.01558,0.0251 0.535221,0.86284 0.694175,1.33425 0.430727,0.96558 0.246637,3.78888 0.238805,5.39748 0.02644,-0.18505 4.473865,-1.33136 6.782594,0.76747 -0.01476,-0.026 -0.04662,-0.0767 -0.119341,-0.17767 -0.06901,-0.0958 -0.174308,-0.23765 -0.354479,-0.42182 -0.503715,-0.5766 -0.22026,-0.0806 -0.768208,-0.6505 -0.473747,-0.42966 -1.496999,-1.45025 -2.735519,-2.66881 -1.183854,-1.16476 -2.562819,-2.50808 -3.738027,-3.5804 z"
         id="path1355-8-5-7"
         inkscape:connector-curvature="0"
         sodipodi:nodetypes="ccccsccsc" />
      <path
         sodipodi:nodetypes="ccccccsc"
         inkscape:connector-curvature="0"
         id="path4753-0-6-9"
         d="m 55.134891,265.6626 c 0.01477,0.0238 0.507514,0.81811 0.658239,1.26509 0.40843,0.91553 0.278738,3.06938 0.271311,4.5946 0.409178,-0.0213 4.921198,-0.70296 6.989915,1.73982 -0.02793,-0.0483 -0.09803,-0.0884 -0.13713,-0.16512 -0.477638,-0.54671 -1.086946,-0.98598 -1.643914,-1.50908 -0.449221,-0.4074 -1.419501,-1.37509 -2.593906,-2.53048 -1.122567,-1.10439 -2.430145,-2.3781 -3.544515,-3.39483 z"
         style="opacity:1;fill:#ffffff;fill-opacity:1;stroke:#808080;stroke-width:0.30000001;stroke-miterlimit:4;stroke-dasharray:none;stroke-opacity:1" />
      <g
         transform="matrix(0.51126596,0,0,0.51245325,-233.49417,5.6156902)"
         id="layer1-4-3-2-0"
         inkscape:label="Capa 1"
         inkscape:transform-center-x="5.4653607"
         inkscape:transform-center-y="-9.4924686"
         style="stroke-width:4.08449793">
        <g
           transform="translate(0.41988239,0.03484499)"
           inkscape:label="Capa 1"
           id="layer1-3-65-9-9-2"
           style="stroke-width:4.08449793" />
      </g>
      <g
         transform="matrix(0.51126596,0,0,0.51245325,-233.49417,5.6395397)"
         id="layer1-4-1-3"
         inkscape:label="Capa 1"
         inkscape:transform-center-x="5.4653607"
         inkscape:transform-center-y="-9.4924686"
         style="stroke-width:4.08449793">
        <g
           transform="translate(0.41988239,0.03484499)"
           inkscape:label="Capa 1"
           id="layer1-3-65-2-9"
           style="stroke-width:4.08449793" />
      </g>
      <g
         transform="translate(34.467836)"
         id="text1198"
         style="font-style:normal;font-weight:normal;font-size:4.60694408px;line-height:1.25;font-family:sans-serif;letter-spacing:0px;word-spacing:0px;fill:#575757;fill-opacity:1;stroke:none;stroke-width:0.26458329"
         aria-label="NDS">
        <path
           inkscape:connector-curvature="0"
           id="path1097"
           style="font-style:normal;font-variant:normal;font-weight:600;font-stretch:normal;font-size:4.76249981px;font-family:'Lucida Grande';-inkscape-font-specification:'Lucida Grande Semi-Bold';fill:#575757;fill-opacity:1;stroke-width:0.26458329"
           d="m 13.517263,293.70905 v -3.44165 h 0.630194 l 1.595252,2.35101 v -2.35101 h 0.574383 v 3.44165 h -0.641821 l -1.583624,-2.35102 v 2.35102 z" />
        <path
           inkscape:connector-curvature="0"
           id="path1099"
           style="font-style:normal;font-variant:normal;font-weight:600;font-stretch:normal;font-size:4.76249981px;font-family:'Lucida Grande';-inkscape-font-specification:'Lucida Grande Semi-Bold';fill:#575757;fill-opacity:1;stroke-width:0.26458329"
           d="m 17.182156,293.70905 v -3.44165 h 1.481305 q 0.799951,0 1.225506,0.42555 0.425556,0.42323 0.425556,1.22318 0,0.85111 -0.451136,1.32318 -0.451135,0.46974 -1.262713,0.46974 z m 0.716235,-0.48835 h 0.534851 q 0.565082,0 0.841809,-0.31161 0.279053,-0.31393 0.279053,-0.9511 0,-0.49299 -0.223242,-0.82088 -0.153479,-0.22557 -0.369745,-0.31161 -0.216266,-0.086 -0.630194,-0.086 h -0.432532 z" />
        <path
           inkscape:connector-curvature="0"
           id="path1101"
           style="font-style:normal;font-variant:normal;font-weight:600;font-stretch:normal;font-size:4.76249981px;font-family:'Lucida Grande';-inkscape-font-specification:'Lucida Grande Semi-Bold';fill:#575757;fill-opacity:1;stroke-width:0.26458329"
           d="m 20.765658,293.67881 v -0.59066 q 0.55578,0.23255 0.951105,0.23255 0.276727,0 0.434857,-0.12325 0.160455,-0.12325 0.160455,-0.33486 0,-0.16744 -0.09999,-0.28138 -0.09999,-0.11627 -0.379046,-0.2744 l -0.230219,-0.1279 q -0.462762,-0.26045 -0.653448,-0.49765 -0.190686,-0.23952 -0.190686,-0.5581 0,-0.42556 0.311609,-0.68368 0.313934,-0.25813 0.827856,-0.25813 0.411603,0 0.92785,0.1186 v 0.55113 q -0.527874,-0.19766 -0.834832,-0.19766 -0.237195,0 -0.381372,0.10697 -0.141852,0.10464 -0.141852,0.27673 0,0.14185 0.09999,0.24882 0.09999,0.10697 0.376721,0.26277 l 0.246497,0.1372 q 0.497644,0.27906 0.686004,0.51393 0.188361,0.23486 0.188361,0.57205 0,0.47904 -0.355793,0.75112 -0.355792,0.27208 -0.981335,0.27208 -0.413928,0 -0.962732,-0.11628 z" />
      </g>
    </g>
  </g>
</svg>
