<?xml version="1.0" encoding="UTF-8" standalone="no"?>
<!-- Created with Inkscape (http://www.inkscape.org/) -->

<svg
   xmlns:osb="http://www.openswatchbook.org/uri/2009/osb"
   xmlns:dc="http://purl.org/dc/elements/1.1/"
   xmlns:cc="http://creativecommons.org/ns#"
   xmlns:rdf="http://www.w3.org/1999/02/22-rdf-syntax-ns#"
   xmlns:svg="http://www.w3.org/2000/svg"
   xmlns="http://www.w3.org/2000/svg"
   xmlns:xlink="http://www.w3.org/1999/xlink"
   xmlns:sodipodi="http://sodipodi.sourceforge.net/DTD/sodipodi-0.dtd"
   xmlns:inkscape="http://www.inkscape.org/namespaces/inkscape"
   width="128"
   height="128"
   viewBox="0 0 33.866666 33.866668"
   version="1.1"
   id="svg8"
   inkscape:version="0.92.2 5c3e80d, 2017-08-06"
   sodipodi:docname="audio-x-smart-playlist.svg">
  <defs
     id="defs2">
    <linearGradient
       id="linearGradient1830">
      <stop
         id="stop1826"
         style="stop-color:#d9d9d9;stop-opacity:1"
         offset="0" />
      <stop
         id="stop1828"
         style="stop-color:#ffffff;stop-opacity:1;"
         offset="1" />
    </linearGradient>
    <linearGradient
       osb:paint="solid"
       id="linearGradient6987">
      <stop
         id="stop6985"
         offset="0"
         style="stop-color:#77d2fb;stop-opacity:1;" />
    </linearGradient>
    <linearGradient
       id="linearGradient3580"
       inkscape:collect="always">
      <stop
         id="stop3576"
         offset="0"
         style="stop-color:#fbf9f9;stop-opacity:1" />
      <stop
         id="stop3578"
         offset="1"
         style="stop-color:#dee6e9;stop-opacity:1" />
    </linearGradient>
    <linearGradient
       id="linearGradient4574"
       inkscape:collect="always">
      <stop
         id="stop4570"
         offset="0"
         style="stop-color:#fe5d6a;stop-opacity:1" />
      <stop
         id="stop4572"
         offset="1"
         style="stop-color:#46a2fb;stop-opacity:1" />
    </linearGradient>
    <linearGradient
       spreadMethod="pad"
       gradientTransform="matrix(0.1733639,0,0,0.17075724,4.7983063,239.21981)"
       inkscape:collect="always"
       xlink:href="#linearGradient4574"
       id="linearGradient4568"
       x1="66.163536"
       y1="213.13301"
       x2="92.102058"
       y2="249.97525"
       gradientUnits="userSpaceOnUse" />
    <linearGradient
       gradientTransform="matrix(0.56295598,0,0,0.56316348,-20.727143,237.61236)"
       y2="82.708549"
       x2="73.504013"
       y1="62.201996"
       x1="66.085709"
       gradientUnits="userSpaceOnUse"
       id="linearGradient3548"
       xlink:href="#linearGradient4574"
       inkscape:collect="always" />
    <linearGradient
       gradientTransform="matrix(0.56295598,0,0,0.56316348,-20.881613,237.69542)"
       gradientUnits="userSpaceOnUse"
       y2="83.408073"
       x2="72.600494"
       y1="64.131287"
       x1="60.893303"
       id="linearGradient3582"
       xlink:href="#linearGradient3580"
       inkscape:collect="always" />
    <linearGradient
       gradientTransform="matrix(0.95481176,0,0,0.95480184,-29.539542,12.6619)"
       gradientUnits="userSpaceOnUse"
       y2="296.16849"
       x2="4.5843229"
       y1="263.52237"
       x1="29.203474"
       id="linearGradient1503-8-3"
       xlink:href="#linearGradient1830"
       inkscape:collect="always" />
  </defs>
  <sodipodi:namedview
     id="base"
     pagecolor="#ffffff"
     bordercolor="#666666"
     borderopacity="1.0"
     inkscape:pageopacity="0.0"
     inkscape:pageshadow="2"
     inkscape:zoom="1.6545194"
     inkscape:cx="20.560183"
     inkscape:cy="59.121562"
     inkscape:document-units="mm"
     inkscape:current-layer="layer1"
     showgrid="false"
     units="px"
     inkscape:window-width="1600"
     inkscape:window-height="792"
     inkscape:window-x="0"
     inkscape:window-y="0"
     inkscape:window-maximized="1"
     showguides="false" />
  <metadata
     id="metadata5">
    <rdf:RDF>
      <cc:Work
         rdf:about="">
        <dc:format>image/svg+xml</dc:format>
        <dc:type
           rdf:resource="http://purl.org/dc/dcmitype/StillImage" />
        <dc:title />
      </cc:Work>
    </rdf:RDF>
  </metadata>
  <g
     inkscape:label="Layer 1"
     inkscape:groupmode="layer"
     id="layer1"
     transform="translate(0,-263.13332)">
    <g
       id="g1563"
       transform="matrix(0.99977932,0,0,0.99978106,30.301779,0.06133761)"
       style="stroke-width:1.00021982">
      <g
         transform="matrix(0.53602412,0,0,0.5372689,-234.93365,-13.785303)"
         id="layer1-4-3"
         inkscape:label="Capa 1"
         inkscape:transform-center-x="5.4653607"
         inkscape:transform-center-y="-9.4924686"
         style="stroke-width:4.08539581">
        <g
           transform="translate(0.41988239,0.03484499)"
           inkscape:label="Capa 1"
           id="layer1-3-65-9"
           style="stroke-width:4.08539581" />
      </g>
      <g
         transform="matrix(0.53602412,0,0,0.5372689,-234.93365,-13.7603)"
         id="layer1-4"
         inkscape:label="Capa 1"
         inkscape:transform-center-x="5.4653607"
         inkscape:transform-center-y="-9.4924686"
         style="stroke-width:4.08539581">
        <g
           transform="translate(0.41988239,0.03484499)"
           inkscape:label="Capa 1"
           id="layer1-3-65"
           style="stroke-width:4.08539581" />
      </g>
      <g
         transform="matrix(0.53602412,0,0,0.5372689,-265.23838,-13.7853)"
         id="layer1-4-3-3"
         inkscape:label="Capa 1"
         inkscape:transform-center-x="5.4653607"
         inkscape:transform-center-y="-9.4924686"
         style="stroke-width:4.08539581">
        <g
           transform="translate(0.41988239,0.03484499)"
           inkscape:label="Capa 1"
           id="layer1-3-65-9-90"
           style="stroke-width:4.08539581" />
      </g>
      <g
         transform="matrix(0.53602412,0,0,0.5372689,-265.23838,-13.760297)"
         id="layer1-4-5"
         inkscape:label="Capa 1"
         inkscape:transform-center-x="5.4653607"
         inkscape:transform-center-y="-9.4924686"
         style="stroke-width:4.08539581">
        <g
           transform="translate(0.41988239,0.03484499)"
           inkscape:label="Capa 1"
           id="layer1-3-65-22"
           style="stroke-width:4.08539581" />
      </g>
      <path
         sodipodi:nodetypes="ccccascscsscc"
         inkscape:connector-curvature="0"
         id="path5023-4-5"
         d="m -25.162377,264.8392 v 31.10591 h 23.581961 v -17.45475 c -0.04498,-0.7929 -0.09696,-1.50255 -0.298063,-2.22205 -0.204573,-0.73192 -0.526951,-1.42494 -0.912236,-2.08813 -0.492998,-0.84861 -1.326132,-1.39576 -2.066596,-2.09122 -0.449226,-0.40738 -1.419471,-1.3751 -2.593872,-2.5305 -1.164791,-1.14594 -2.530897,-2.47697 -3.671384,-3.51104 -0.336848,-0.30398 -0.826157,-0.61944 -1.28075,-0.80163 -0.352994,-0.14146 -0.768267,-0.22951 -1.169211,-0.28869 -0.413429,-0.061 -0.811623,-0.0914 -1.110603,-0.1179 z"
         style="opacity:0.25;fill:#000000;fill-opacity:1;stroke:none;stroke-width:1.78878975;stroke-miterlimit:4;stroke-dasharray:none;stroke-opacity:1" />
      <path
         style="opacity:1;fill:url(#linearGradient1503-8-3);fill-opacity:1;stroke:#808080;stroke-width:0.30006596;stroke-miterlimit:4;stroke-dasharray:none;stroke-opacity:1"
         d="m -25.162377,264.33819 v 31.10591 h 23.581961 v -17.45475 c -0.04498,-0.7929 -0.09696,-1.50256 -0.298063,-2.22206 -0.204573,-0.73192 -0.526951,-1.42494 -0.912236,-2.08813 -0.492998,-0.8486 -1.326132,-1.39575 -2.066596,-2.09121 -0.449226,-0.40739 -1.419471,-1.37511 -2.593872,-2.53051 -1.164791,-1.14592 -2.530897,-2.47697 -3.671384,-3.51104 -0.336848,-0.30398 -0.826157,-0.61945 -1.28075,-0.80162 -0.352994,-0.14146 -0.768267,-0.22952 -1.169211,-0.28869 -0.413429,-0.0611 -0.811623,-0.0914 -1.110603,-0.1179 z"
         id="path4623-8-3"
         inkscape:connector-curvature="0"
         sodipodi:nodetypes="ccccascscsscc" />
      <g
         style="stroke-width:1.05526781"
         transform="matrix(0.94210291,0,0,0.95360241,-29.346758,12.997915)"
         id="g2509">
        <path
           style="opacity:1;fill:#b8d0ee;fill-opacity:1;stroke:none;stroke-width:0.31658033;stroke-miterlimit:4;stroke-dasharray:none;stroke-opacity:1"
           d="m 4.5950772,287.80933 v 1.7353 H 29.317083 c 7.4e-4,0 0.0013,-5.1e-4 0.0021,-5.2e-4 v -1.73426 c -7.38e-4,-10e-6 -0.0013,-5.2e-4 -0.0021,-5.2e-4 z"
           id="path2445"
           inkscape:connector-curvature="0" />
        <path
           style="opacity:1;fill:#b8d0ee;fill-opacity:1;stroke:none;stroke-width:0.31658033;stroke-miterlimit:4;stroke-dasharray:none;stroke-opacity:1"
           d="m 4.5950772,284.66741 v 1.73529 H 29.317083 c 7.4e-4,0 0.0013,-5.1e-4 0.0021,-5.2e-4 v -1.73426 c -7.38e-4,0 -0.0013,-5.1e-4 -0.0021,-5.1e-4 z"
           id="path2452"
           inkscape:connector-curvature="0" />
        <path
           style="opacity:1;fill:#b8d0ee;fill-opacity:1;stroke:none;stroke-width:0.31658033;stroke-miterlimit:4;stroke-dasharray:none;stroke-opacity:1"
           d="m 4.5950772,281.22782 v 1.7353 H 29.317083 c 7.4e-4,0 0.0013,-5.1e-4 0.0021,-5.2e-4 v -1.73426 c -7.38e-4,-10e-6 -0.0013,-5.2e-4 -0.0021,-5.2e-4 z"
           id="path2459"
           inkscape:connector-curvature="0" />
        <path
           style="opacity:1;fill:#b8d0ee;fill-opacity:1;stroke:none;stroke-width:0.31658033;stroke-miterlimit:4;stroke-dasharray:none;stroke-opacity:1"
           d="m 4.5950772,277.85439 v 1.73529 H 29.317083 c 7.4e-4,0 0.0013,-5.1e-4 0.0021,-5.2e-4 v -1.70429 c -5.91e-4,-0.0104 -0.0015,-0.0201 -0.0021,-0.0305 z"
           id="path2466"
           inkscape:connector-curvature="0" />
        <path
           style="opacity:1;fill:#b8d0ee;fill-opacity:1;stroke:none;stroke-width:0.31658033;stroke-miterlimit:4;stroke-dasharray:none;stroke-opacity:1"
           d="m 4.5950772,274.58017 v 1.73529 H 29.167222 c -0.04116,-0.25429 -0.09002,-0.50723 -0.160714,-0.76016 -0.09307,-0.33297 -0.21291,-0.65674 -0.347783,-0.97513 z"
           id="path2473"
           inkscape:connector-curvature="0" />
        <path
           style="opacity:1;fill:#b8d0ee;fill-opacity:1;stroke:none;stroke-width:0.31658033;stroke-miterlimit:4;stroke-dasharray:none;stroke-opacity:1"
           d="m 4.5950772,271.27287 v 1.7353 H 27.809682 c -0.493849,-0.6572 -1.17721,-1.15466 -1.813843,-1.7353 z"
           id="path2480"
           inkscape:connector-curvature="0" />
        <path
           style="opacity:1;fill:#b8d0ee;fill-opacity:1;stroke:none;stroke-width:0.31658033;stroke-miterlimit:4;stroke-dasharray:none;stroke-opacity:1"
           d="m 4.5950772,267.99866 v 1.73529 H 24.39542 c -0.383506,-0.37782 -0.770526,-0.7599 -1.23145,-1.21336 -0.169133,-0.1664 -0.359843,-0.34944 -0.535884,-0.52193 z"
           id="path2487"
           inkscape:connector-curvature="0" />
        <path
           style="opacity:1;fill:#b8d0ee;fill-opacity:1;stroke:none;stroke-width:0.31658033;stroke-miterlimit:4;stroke-dasharray:none;stroke-opacity:1"
           d="m 4.5950772,264.67793 v 1.73529 H 20.782292 c -0.572462,-0.55495 -1.13952,-1.09617 -1.659167,-1.57354 -0.05903,-0.054 -0.1277,-0.10783 -0.194836,-0.16175 z"
           id="path2494"
           inkscape:connector-curvature="0" />
      </g>
      <g
         transform="translate(-30.304729)"
         id="g1522"
         style="stroke-width:1.00021982">
        <ellipse
           cy="279.58478"
           cx="16.933332"
           id="circle970"
           style="opacity:0.25;fill:#000000;fill-opacity:1;fill-rule:nonzero;stroke:none;stroke-width:0.10002197;stroke-linecap:round;stroke-miterlimit:4;stroke-dasharray:0.02500549, 0.02500549;stroke-dashoffset:0;stroke-opacity:1"
           rx="8.4353447"
           ry="8.4384537" />
        <ellipse
           style="opacity:1;fill:url(#linearGradient3548);fill-opacity:1;fill-rule:nonzero;stroke:none;stroke-width:0.10002197;stroke-linecap:round;stroke-miterlimit:4;stroke-dasharray:0.02500549, 0.02500549;stroke-dashoffset:0;stroke-opacity:1"
           id="path2069"
           cx="16.933332"
           cy="279.08017"
           rx="8.4353447"
           ry="8.4384537" />
        <ellipse
           cy="279.08017"
           cx="16.933332"
           id="circle2071"
           style="opacity:1;fill:url(#linearGradient3582);fill-opacity:1;stroke:none;stroke-width:1.00021982;stroke-linecap:round;stroke-miterlimit:4;stroke-dasharray:0.25005495, 0.25005495;stroke-dashoffset:0;stroke-opacity:1"
           rx="7.6839848"
           ry="7.6868172" />
        <path
           style="fill:url(#linearGradient4568);fill-opacity:1;stroke:none;stroke-width:0.22754861px;stroke-linecap:butt;stroke-linejoin:miter;stroke-opacity:1"
           d="m 13.58173,284.21034 c 0,0 0.821712,0.0123 1.381968,-0.52731 0.560258,-0.53957 0.404504,-1.13409 0.421246,-1.72538 0.02686,-0.94854 -0.05645,-4.58613 -0.05645,-4.58613 0,0 -0.0033,-0.3591 0.362069,-0.43201 0.434386,-0.0878 4.240752,-0.82273 4.240752,-0.82273 0,0 0.261453,-0.0613 0.261453,0.18395 0,0.24526 0.07367,3.38092 -0.0249,3.86282 -0.03278,0.16029 -0.235741,0.26169 -0.398404,0.29431 -0.509105,0.10213 -1.066549,0.091 -1.618522,0.49053 -0.74104,0.62313 -0.443653,1.72101 0.324664,2.11188 0.939737,0.34784 2.150282,-0.14063 2.289871,-1.15537 0.06226,-0.30658 0.114833,-5.42238 0.03736,-8.09356 -0.0038,-0.1303 -0.08716,-0.28205 -0.298804,-0.25752 -0.211653,0.0245 -5.403371,1.05462 -5.403371,1.05462 0,0 -0.311254,0.0858 -0.336155,0.36789 -0.0249,0.28204 -0.06523,6.18519 -0.06523,6.18519 0,0 0.02788,0.30191 -0.370522,0.37549 -0.398405,0.0736 -1.108578,0.0872 -1.61852,0.50278 -0.963113,0.91455 -0.334113,2.19877 0.87151,2.17055 z"
           id="path4534"
           inkscape:connector-curvature="0"
           sodipodi:nodetypes="ccscccssscccssccccccc" />
      </g>
      <path
         style="opacity:0.24800002;fill:#000000;fill-opacity:1;stroke:none;stroke-width:0.28620636;stroke-miterlimit:4;stroke-dasharray:none;stroke-opacity:1"
         d="m -10.683736,266.16126 c 0.01558,0.0251 0.535221,0.86284 0.694175,1.33425 0.430727,0.96558 0.246637,3.78888 0.238805,5.39748 0.02644,-0.18505 4.473865,-1.33136 6.782594,0.76747 -0.01476,-0.026 -0.04662,-0.0767 -0.119341,-0.17767 -0.06901,-0.0958 -0.174308,-0.23765 -0.354479,-0.42182 -0.503715,-0.5766 -0.22026,-0.0806 -0.768208,-0.6505 -0.473747,-0.42966 -1.496999,-1.45025 -2.735519,-2.66881 -1.183854,-1.16476 -2.562819,-2.50808 -3.738027,-3.5804 z"
         id="path1355-8-5"
         inkscape:connector-curvature="0"
         sodipodi:nodetypes="ccccsccsc" />
      <path
         sodipodi:nodetypes="ccccccsc"
         inkscape:connector-curvature="0"
         id="path4753-0-6"
         d="m -10.995732,265.6626 c 0.01477,0.0238 0.507514,0.81811 0.658239,1.26509 0.40843,0.91553 0.278738,3.06938 0.271311,4.5946 0.409178,-0.0213 4.921198,-0.70296 6.989915,1.73982 -0.02793,-0.0483 -0.09803,-0.0884 -0.13713,-0.16512 -0.477638,-0.54671 -1.086946,-0.98598 -1.643914,-1.50908 -0.449221,-0.4074 -1.419501,-1.37509 -2.593906,-2.53048 -1.122567,-1.10439 -2.430145,-2.3781 -3.544515,-3.39483 z"
         style="opacity:1;fill:#ffffff;fill-opacity:1;stroke:#808080;stroke-width:0.30006596;stroke-miterlimit:4;stroke-dasharray:none;stroke-opacity:1" />
      <g
         transform="matrix(0.51126596,0,0,0.51245325,-299.62479,5.6156902)"
         id="layer1-4-3-2"
         inkscape:label="Capa 1"
         inkscape:transform-center-x="5.4653607"
         inkscape:transform-center-y="-9.4924686"
         style="stroke-width:4.08539581">
        <g
           transform="translate(0.41988239,0.03484499)"
           inkscape:label="Capa 1"
           id="layer1-3-65-9-9"
           style="stroke-width:4.08539581" />
      </g>
      <g
         transform="matrix(0.51126596,0,0,0.51245325,-299.62479,5.6395397)"
         id="layer1-4-1"
         inkscape:label="Capa 1"
         inkscape:transform-center-x="5.4653607"
         inkscape:transform-center-y="-9.4924686"
         style="stroke-width:4.08539581">
        <g
           transform="translate(0.41988239,0.03484499)"
           inkscape:label="Capa 1"
           id="layer1-3-65-2"
           style="stroke-width:4.08539581" />
      </g>
      <g
         id="text1198"
         style="font-style:normal;font-weight:normal;font-size:4.60694408px;line-height:1.25;font-family:sans-serif;letter-spacing:0px;word-spacing:0px;fill:#575757;fill-opacity:1;stroke:none;stroke-width:0.26464146"
         aria-label="PLAYLIST">
        <path
           inkscape:connector-curvature="0"
           id="path1501"
           style="font-style:normal;font-variant:normal;font-weight:600;font-stretch:normal;font-size:4.58611107px;font-family:'Lucida Grande';-inkscape-font-specification:'Lucida Grande Semi-Bold';fill:#575757;fill-opacity:1;stroke-width:0.26464146"
           d="m -24.13577,293.70905 v -3.31419 h 1.155485 q 0.604614,0 0.862135,0.20378 0.25976,0.20154 0.25976,0.67627 0,0.53744 -0.347093,0.83751 -0.344854,0.29782 -0.967383,0.29782 h -0.286632 v 1.29881 z m 0.676272,-1.75339 h 0.134359 q 0.353811,0 0.557588,-0.16347 0.206017,-0.1657 0.206017,-0.44786 0,-0.49489 -0.629247,-0.49489 h -0.268717 z" />
        <path
           inkscape:connector-curvature="0"
           id="path1503"
           style="font-style:normal;font-variant:normal;font-weight:600;font-stretch:normal;font-size:4.58611107px;font-family:'Lucida Grande';-inkscape-font-specification:'Lucida Grande Semi-Bold';fill:#575757;fill-opacity:1;stroke-width:0.26464146"
           d="m -21.323195,293.70905 v -3.31419 h 0.689709 v 2.84393 h 1.493621 v 0.47026 z" />
        <path
           inkscape:connector-curvature="0"
           id="path1505"
           style="font-style:normal;font-variant:normal;font-weight:600;font-stretch:normal;font-size:4.58611107px;font-family:'Lucida Grande';-inkscape-font-specification:'Lucida Grande Semi-Bold';fill:#575757;fill-opacity:1;stroke-width:0.26464146"
           d="m -19.016703,293.70905 1.289844,-3.31419 h 0.689708 l 1.289843,3.31419 h -0.707622 l -0.344854,-0.88453 h -1.370459 l -0.344854,0.88453 z m 1.016648,-1.32568 h 1.030083 l -0.515042,-1.32119 z" />
        <path
           inkscape:connector-curvature="0"
           id="path1507"
           style="font-style:normal;font-variant:normal;font-weight:600;font-stretch:normal;font-size:4.58611107px;font-family:'Lucida Grande';-inkscape-font-specification:'Lucida Grande Semi-Bold';fill:#575757;fill-opacity:1;stroke-width:0.26464146"
           d="m -14.488814,293.70905 v -1.38838 l -1.112938,-1.92581 h 0.761366 l 0.808392,1.39957 0.844221,-1.39957 h 0.546392 l -1.157725,1.92133 v 1.39286 z" />
        <path
           inkscape:connector-curvature="0"
           id="path1509"
           style="font-style:normal;font-variant:normal;font-weight:600;font-stretch:normal;font-size:4.58611107px;font-family:'Lucida Grande';-inkscape-font-specification:'Lucida Grande Semi-Bold';fill:#575757;fill-opacity:1;stroke-width:0.26464146"
           d="m -12.124101,293.70905 v -3.31419 h 0.689708 v 2.84393 h 1.493621 v 0.47026 z" />
        <path
           inkscape:connector-curvature="0"
           id="path1511"
           style="font-style:normal;font-variant:normal;font-weight:600;font-stretch:normal;font-size:4.58611107px;font-family:'Lucida Grande';-inkscape-font-specification:'Lucida Grande Semi-Bold';fill:#575757;fill-opacity:1;stroke-width:0.26464146"
           d="m -9.4548412,293.70905 v -3.31419 h 0.6897081 v 3.31419 z" />
        <path
           inkscape:connector-curvature="0"
           id="path1513"
           style="font-style:normal;font-variant:normal;font-weight:600;font-stretch:normal;font-size:4.58611107px;font-family:'Lucida Grande';-inkscape-font-specification:'Lucida Grande Semi-Bold';fill:#575757;fill-opacity:1;stroke-width:0.26464146"
           d="m -8.1179723,293.67993 v -0.56878 q 0.5351956,0.22393 0.9158786,0.22393 0.2664781,0 0.4187514,-0.11868 0.1545125,-0.11869 0.1545125,-0.32246 0,-0.16123 -0.09629,-0.27096 -0.09629,-0.11197 -0.3650079,-0.26424 L -7.31182,292.23558 q -0.4456231,-0.2508 -0.6292467,-0.47921 -0.1836235,-0.23065 -0.1836235,-0.53744 0,-0.40979 0.3000678,-0.65836 0.3023071,-0.24856 0.7971951,-0.24856 0.3963582,0 0.8934855,0.1142 v 0.53072 q -0.5083239,-0.19034 -0.8039131,-0.19034 -0.2284098,0 -0.3672471,0.10301 -0.1365981,0.10077 -0.1365981,0.26648 0,0.13659 0.09629,0.2396 0.096291,0.10301 0.3627686,0.25304 l 0.2373671,0.13212 q 0.4792127,0.26872 0.660597,0.49489 0.1813843,0.22617 0.1813843,0.55087 0,0.4613 -0.3426147,0.7233 -0.3426148,0.262 -0.9449897,0.262 -0.3985976,0 -0.9270748,-0.11197 z" />
        <path
           inkscape:connector-curvature="0"
           id="path1515"
           style="font-style:normal;font-variant:normal;font-weight:600;font-stretch:normal;font-size:4.58611107px;font-family:'Lucida Grande';-inkscape-font-specification:'Lucida Grande Semi-Bold';fill:#575757;fill-opacity:1;stroke-width:0.26464146"
           d="m -4.4858064,293.70905 v -2.85961 h -1.1868354 v -0.45458 h 3.0656182 v 0.45458 H -3.793859 v 2.85961 z" />
      </g>
    </g>
  </g>
</svg>
