<?xml version="1.0" encoding="UTF-8" standalone="no"?>
<!-- Created with Inkscape (http://www.inkscape.org/) -->

<svg
   xmlns:osb="http://www.openswatchbook.org/uri/2009/osb"
   xmlns:dc="http://purl.org/dc/elements/1.1/"
   xmlns:cc="http://creativecommons.org/ns#"
   xmlns:rdf="http://www.w3.org/1999/02/22-rdf-syntax-ns#"
   xmlns:svg="http://www.w3.org/2000/svg"
   xmlns="http://www.w3.org/2000/svg"
   xmlns:xlink="http://www.w3.org/1999/xlink"
   xmlns:sodipodi="http://sodipodi.sourceforge.net/DTD/sodipodi-0.dtd"
   xmlns:inkscape="http://www.inkscape.org/namespaces/inkscape"
   width="128"
   height="128"
   viewBox="0 0 33.866666 33.866668"
   version="1.1"
   id="svg1038"
   inkscape:version="0.92.2 5c3e80d, 2017-08-06"
   sodipodi:docname="application-x-perl.svg">
  <defs
     id="defs1032">
    <linearGradient
       osb:paint="solid"
       id="linearGradient6987">
      <stop
         id="stop6985"
         offset="0"
         style="stop-color:#77d2fb;stop-opacity:1;" />
    </linearGradient>
    <linearGradient
       id="linearGradient1830">
      <stop
         offset="0"
         style="stop-color:#d9d9d9;stop-opacity:1"
         id="stop1826" />
      <stop
         offset="1"
         style="stop-color:#ffffff;stop-opacity:1;"
         id="stop1828" />
    </linearGradient>
    <linearGradient
       inkscape:collect="always"
       xlink:href="#linearGradient1830"
       id="linearGradient1503"
       x1="29.203474"
       y1="263.52237"
       x2="4.5843229"
       y2="296.16849"
       gradientUnits="userSpaceOnUse"
       gradientTransform="matrix(1.0010487,0,0,1.0010383,-0.01775767,-0.29086231)" />
  </defs>
  <sodipodi:namedview
     id="base"
     pagecolor="#ffffff"
     bordercolor="#666666"
     borderopacity="1.0"
     inkscape:pageopacity="0.0"
     inkscape:pageshadow="2"
     inkscape:zoom="4.81684"
     inkscape:cx="67.738955"
     inkscape:cy="41.014611"
     inkscape:document-units="mm"
     inkscape:current-layer="layer1"
     showgrid="false"
     inkscape:window-width="1600"
     inkscape:window-height="814"
     inkscape:window-x="0"
     inkscape:window-y="0"
     inkscape:window-maximized="1"
     units="px" />
  <metadata
     id="metadata1035">
    <rdf:RDF>
      <cc:Work
         rdf:about="">
        <dc:format>image/svg+xml</dc:format>
        <dc:type
           rdf:resource="http://purl.org/dc/dcmitype/StillImage" />
        <dc:title />
      </cc:Work>
    </rdf:RDF>
  </metadata>
  <g
     inkscape:label="Layer 1"
     inkscape:groupmode="layer"
     id="layer1"
     transform="translate(0,-263.13332)">
    <path
       style="opacity:0.25;fill:#000000;fill-opacity:1;stroke:none;stroke-width:1.87499988;stroke-miterlimit:4;stroke-dasharray:none;stroke-opacity:1"
       d="M 4.5713723,264.09818 V 296.7104 H 29.295294 v -18.3 c -0.04716,-0.8313 -0.101653,-1.57532 -0.312496,-2.32966 -0.21448,-0.76736 -0.552469,-1.49394 -0.956412,-2.18925 -0.516871,-0.8897 -1.39035,-1.46334 -2.166671,-2.19248 -0.47098,-0.42711 -1.488209,-1.44169 -2.719481,-2.65304 -1.221196,-1.20143 -2.653456,-2.59692 -3.849171,-3.68107 -0.35316,-0.3187 -0.866164,-0.64943 -1.342771,-0.84044 -0.370088,-0.14831 -0.80547,-0.24063 -1.22583,-0.30267 -0.433449,-0.064 -0.850926,-0.0958 -1.164384,-0.12361 z"
       id="path5023"
       inkscape:connector-curvature="0"
       sodipodi:nodetypes="ccccascscsscc" />
    <path
       sodipodi:nodetypes="ccccascscsscc"
       inkscape:connector-curvature="0"
       id="path4623-8"
       d="m 4.5713723,263.5729 v 32.61222 H 29.295294 v -18.3 c -0.04716,-0.83129 -0.101653,-1.57532 -0.312496,-2.32966 -0.21448,-0.76736 -0.552469,-1.49394 -0.956412,-2.18925 -0.516871,-0.88969 -1.39035,-1.46334 -2.166671,-2.19247 -0.47098,-0.42712 -1.488209,-1.4417 -2.719481,-2.65305 -1.221196,-1.20142 -2.653456,-2.59692 -3.849171,-3.68107 -0.35316,-0.3187 -0.866164,-0.64944 -1.342771,-0.84044 -0.370088,-0.14831 -0.80547,-0.24063 -1.22583,-0.30267 -0.433449,-0.064 -0.850926,-0.0958 -1.164384,-0.12361 z"
       style="opacity:1;fill:url(#linearGradient1503);fill-opacity:1;stroke:#808080;stroke-width:0.30000001;stroke-miterlimit:4;stroke-dasharray:none;stroke-opacity:1" />
    <path
       inkscape:connector-curvature="0"
       style="fill:#4d4d4d;fill-rule:evenodd;stroke-width:0.26458332;fill-opacity:1"
       d="m 20.157476,289.34013 c -0.688278,-0.091 0.121306,-0.78205 0.349788,-0.92026 0.440047,-0.26293 0.798292,-0.56294 1.074734,-1.05846 0.437228,-0.79554 0.632179,-1.85065 0.818353,-2.76416 0.124119,-0.62024 0.2451,-0.98093 -0.08494,-1.50681 -0.327215,-0.52247 0.231307,-0.95395 -0.115658,-1.50679 -0.581092,-0.927 -0.826506,-2.15401 -1.401955,-3.0709 -0.163607,-0.25956 -0.104372,-0.50227 -0.338496,-0.52923 -0.112833,-0.0135 -0.403381,0.25618 -0.50211,0.33371 -0.284902,0.22921 -0.631867,0.33709 -0.911126,0.55956 -0.141045,0.11129 -0.409021,0.0303 -0.524677,0.13822 -0.335678,0.31349 -0.256695,1.28769 -0.222843,1.78657 0.05078,0.71129 0.527495,0.93376 0.527495,1.61806 0,0.82588 -0.124449,1.38882 0.09275,2.23492 0.124106,0.48541 0.437388,1.03825 0.488163,1.53377 0.04231,0.39102 -0.01973,0.38091 -0.115658,0.75171 -0.112833,0.44159 -0.163436,0.83598 -0.513216,1.03487 -0.200282,0.11128 -1.1188,0.15842 -1.231631,-0.11127 -0.222849,-0.52924 0.626223,-0.71127 0.770084,-1.03488 0.310288,-0.6944 -0.330885,-2.49447 -0.610147,-3.09786 -0.155142,-0.32698 -0.428995,-0.58993 -0.539004,-0.92026 -0.149507,-0.44498 0.152324,-0.74835 0.104372,-1.08881 -0.09309,-0.66407 -0.327211,-1.3686 -0.502104,-2.00908 -0.40902,-1.48656 -0.976006,0.77195 -1.212959,1.34163 -0.09591,0.22249 -0.163606,0.46856 -0.256694,0.69778 -0.112834,0.26968 0.135396,0.50226 0.0677,0.83599 -0.06207,0.31349 -0.366706,0.48878 -0.535958,0.72475 -0.256695,0.36069 -0.434406,0.81576 -0.572627,1.25735 -0.287726,0.92026 -0.389275,2.52482 -0.922412,3.26304 -0.07615,0.10784 -0.290546,0.0473 -0.37235,0.14158 -0.186175,0.21574 0.04795,0.45508 -0.315935,0.60003 -0.279258,0.11128 -0.984467,0.23258 -1.249625,0.0404 -0.507749,-0.36744 0.12693,-0.81914 0.442871,-1.20005 0.44569,-0.52924 0.9619,-1.01463 1.308862,-1.645 0.456978,-0.82926 0.552884,-1.76299 0.64315,-2.72033 0.04231,-0.46182 -0.37517,-0.69105 -0.01411,-1.24388 0.115658,-0.17529 0.46826,-0.15168 0.46826,-0.33371 0,-0.57643 0.01411,-1.15623 0,-1.72929 -0.01691,-0.69778 -0.01411,-1.84725 -0.57263,-2.28884 -0.74188,-0.59329 -1.684038,-0.74835 -2.392067,-1.38208 -0.705208,-0.63374 -1.351176,-1.20679 -1.7771224,-2.21806 -0.2200247,-0.52924 -0.3356785,-1.04836 -0.5133907,-1.59106 -0.1297553,-0.40115 -0.093086,-0.26632 -0.3018231,-0.50227 -0.124119,-0.13822 -0.3074702,-0.23597 -0.4456907,-0.39104 -0.3582462,-0.41124 -0.4231253,-0.81576 -1.0267822,-0.64385 -0.2397704,0.0708 -0.6346861,0.60679 -0.7700857,0.27979 -0.087437,-0.20899 -0.033845,-0.40114 0.011352,-0.61351 0.067703,-0.31686 -0.2538757,-0.42137 -0.2454119,-0.72474 0.014111,-0.52248 0.7193108,-1.07195 1.0860182,-1.15959 0.4626171,-0.11129 0.9703658,0.12816 1.4611897,0.0135 0.3949171,-0.091 0.7390585,-0.34722 1.1198697,-0.45845 0.3977371,-0.12131 0.7559811,-0.16181 1.0973041,0.12474 0.155145,0.13147 0.214382,0.36742 0.349782,0.50226 0.115658,0.11127 0.217206,0.0809 0.349783,0.19552 0.400559,0.34383 0.431587,0.85283 -0.256696,0.69778 0.290548,1.43264 1.698138,5.2856 3.269345,3.29338 0.733414,-0.93037 1.407592,-1.96187 2.101516,-2.92933 0.612118,-0.85285 0.967544,-1.81356 2.008431,-1.64837 1.026781,0.1618 1.729169,1.00452 2.524641,1.70231 0.648793,0.57305 1.413236,0.69778 2.101519,1.17308 0.730594,0.50225 1.382205,1.34836 1.633261,2.31581 0.363888,1.39894 0.155145,2.7473 0.795474,4.07544 0.386455,0.80566 0.936515,1.36859 1.42452,2.03603 0.262336,0.3607 0.437227,0.85622 0.349784,1.33826 -0.05924,0.33372 -0.256698,0.3944 -0.256698,0.78206 0,0.67755 0.05063,1.34836 0.02525,2.02593 -0.02256,0.60337 -0.06207,1.19329 -0.132573,1.78994 -0.06207,0.51576 -0.24246,0.6607 -0.383497,1.04161 -0.208747,0.56295 -0.174896,0.80903 -0.677001,1.03151 -0.284904,0.12474 -0.770087,0.37753 -1.074739,0.36406 -0.437228,-0.0236 -0.499285,-0.45509 -0.163604,-0.92026 0.217202,-0.30338 0.59816,-0.40113 0.840753,-0.72813 0.708028,-0.94722 1.012661,-3.79564 0.420287,-4.80019 -0.245411,-0.41798 -0.536089,-0.42136 -0.558654,-1.05846 -0.02256,-0.56968 0.127326,-0.76857 -0.304253,-1.28432 -1.370922,-0.83598 -1.470048,-1.43263 -1.915743,-1.14611 -0.541599,0.35058 -0.115659,2.32256 0,2.87539 0.208743,0.99106 1.029603,1.45624 0.490826,2.45739 -0.386452,0.71465 -0.566988,1.45288 -0.829325,2.28886 -0.236947,0.75172 -0.217203,1.82705 -0.595194,2.45403 -0.07334,0.12131 -0.188998,0.18877 -0.256696,0.30675 -0.05078,0.0876 -0.126931,0.34047 -0.163607,0.39102 -0.157966,0.21912 -0.191818,0.27643 -0.44569,0.39104 -0.451335,0.20563 -1.00422,0.13822 -1.492221,0.13822"
       id="path2154" />
    <path
       sodipodi:nodetypes="ccccsccsc"
       inkscape:connector-curvature="0"
       id="path1355-3"
       d="m 19.751144,265.48426 c 0.01633,0.0263 0.561139,0.90462 0.727791,1.39886 0.451585,1.01234 0.25858,3.97236 0.250369,5.65885 0.02772,-0.19401 4.690513,-1.39583 7.111042,0.80464 -0.01547,-0.0273 -0.04888,-0.0804 -0.12512,-0.18628 -0.07235,-0.10046 -0.182749,-0.24915 -0.371644,-0.44224 -0.528108,-0.60452 -0.230926,-0.0845 -0.805409,-0.682 -0.496688,-0.45047 -1.569491,-1.52048 -2.867987,-2.79805 -1.241182,-1.22116 -2.686924,-2.62954 -3.919042,-3.75378 z"
       style="opacity:0.24800002;fill:#000000;fill-opacity:1;stroke:none;stroke-width:0.30000001;stroke-miterlimit:4;stroke-dasharray:none;stroke-opacity:1" />
    <path
       style="opacity:1;fill:#ffffff;fill-opacity:1;stroke:#808080;stroke-width:0.30000001;stroke-miterlimit:4;stroke-dasharray:none;stroke-opacity:1"
       d="m 19.42404,264.96145 c 0.01548,0.0249 0.53209,0.85773 0.690114,1.32635 0.428208,0.95987 0.292236,3.21802 0.28445,4.8171 0.428992,-0.0223 5.159507,-0.73701 7.328403,1.82407 -0.02928,-0.0506 -0.102779,-0.0927 -0.143771,-0.17312 -0.500768,-0.57318 -1.139582,-1.03373 -1.723521,-1.58216 -0.470975,-0.42712 -1.488241,-1.44167 -2.719516,-2.65302 -1.176928,-1.15787 -2.547826,-2.49325 -3.716159,-3.55922 z"
       id="path4753-0"
       inkscape:connector-curvature="0"
       sodipodi:nodetypes="ccccccsc" />
    <g
       style="stroke-width:4.08449793"
       inkscape:transform-center-y="-9.4924686"
       inkscape:transform-center-x="5.4653607"
       inkscape:label="Capa 1"
       id="layer1-4-9"
       transform="matrix(0.53602412,0,0,0.5372689,-234.93365,-13.785303)">
      <g
         style="stroke-width:4.08449793"
         id="layer1-3-65-0"
         inkscape:label="Capa 1"
         transform="translate(0.41988239,0.03484499)" />
    </g>
    <g
       aria-label="PERL"
       style="font-style:normal;font-weight:normal;font-size:5.90152884px;line-height:1.25;font-family:sans-serif;letter-spacing:0px;word-spacing:0px;fill:#4d4d4d;fill-opacity:1;stroke:none;stroke-width:0.26458332"
       id="text2196">
      <path
         d="m 10.477095,290.87167 v 1.61658 h 0.731927 q 0.406307,0 0.62819,-0.21036 0.221884,-0.21036 0.221884,-0.59937 0,-0.38614 -0.221884,-0.5965 -0.221883,-0.21035 -0.62819,-0.21035 z m -0.5820849,-0.47835 h 1.3140119 q 0.723283,0 1.092129,0.3285 0.371727,0.32562 0.371727,0.9567 0,0.63683 -0.371727,0.96245 -0.368846,0.32562 -1.092129,0.32562 h -0.731927 v 1.72897 H 9.8950101 Z"
         style="font-style:normal;font-variant:normal;font-weight:normal;font-stretch:normal;font-family:sans-serif;-inkscape-font-specification:sans-serif;fill:#4d4d4d;fill-opacity:1;stroke-width:0.26458332"
         id="path827" />
      <path
         d="m 13.456675,290.39332 h 2.720236 v 0.48987 h -2.138152 v 1.27367 h 2.048822 v 0.48987 h -2.048822 v 1.55895 h 2.190021 v 0.48988 h -2.772105 z"
         style="font-style:normal;font-variant:normal;font-weight:normal;font-stretch:normal;font-family:sans-serif;-inkscape-font-specification:sans-serif;fill:#4d4d4d;fill-opacity:1;stroke-width:0.26458332"
         id="path829" />
      <path
         d="m 19.231413,292.67843 q 0.187304,0.0634 0.363082,0.27087 0.17866,0.20748 0.35732,0.57056 l 0.590729,1.1757 h -0.625309 l -0.550386,-1.10366 q -0.213239,-0.43224 -0.414952,-0.57344 -0.19883,-0.1412 -0.544623,-0.1412 h -0.633953 v 1.8183 h -0.582085 v -4.30224 h 1.314012 q 0.737692,0 1.100774,0.30833 0.363082,0.30833 0.363082,0.93076 0,0.40631 -0.190186,0.6743 -0.187304,0.26798 -0.547505,0.37172 z m -1.458092,-1.80676 v 1.52725 h 0.731927 q 0.420715,0 0.633954,-0.19307 0.21612,-0.19595 0.21612,-0.57344 0,-0.37749 -0.21612,-0.56768 -0.213239,-0.19306 -0.633954,-0.19306 z"
         style="font-style:normal;font-variant:normal;font-weight:normal;font-stretch:normal;font-family:sans-serif;-inkscape-font-specification:sans-serif;fill:#4d4d4d;fill-opacity:1;stroke-width:0.26458332"
         id="path831" />
      <path
         d="m 21.294644,290.39332 h 0.582084 v 3.81236 h 2.094927 v 0.48988 h -2.677011 z"
         style="font-style:normal;font-variant:normal;font-weight:normal;font-stretch:normal;font-family:sans-serif;-inkscape-font-specification:sans-serif;fill:#4d4d4d;fill-opacity:1;stroke-width:0.26458332"
         id="path833" />
    </g>
    <g
       style="stroke-width:4.08449793"
       inkscape:transform-center-y="-9.4924686"
       inkscape:transform-center-x="5.4653607"
       inkscape:label="Capa 1"
       id="layer1-4"
       transform="matrix(0.53602412,0,0,0.5372689,-234.93365,-13.760303)">
      <g
         style="stroke-width:4.08449793"
         id="layer1-3-65"
         inkscape:label="Capa 1"
         transform="translate(0.41988239,0.03484499)" />
    </g>
  </g>
</svg>
