<?xml version="1.0" encoding="UTF-8" standalone="no"?>
<!-- Created with Inkscape (http://www.inkscape.org/) -->

<svg
   xmlns:osb="http://www.openswatchbook.org/uri/2009/osb"
   xmlns:dc="http://purl.org/dc/elements/1.1/"
   xmlns:cc="http://creativecommons.org/ns#"
   xmlns:rdf="http://www.w3.org/1999/02/22-rdf-syntax-ns#"
   xmlns:svg="http://www.w3.org/2000/svg"
   xmlns="http://www.w3.org/2000/svg"
   xmlns:xlink="http://www.w3.org/1999/xlink"
   xmlns:sodipodi="http://sodipodi.sourceforge.net/DTD/sodipodi-0.dtd"
   xmlns:inkscape="http://www.inkscape.org/namespaces/inkscape"
   width="128"
   height="128"
   viewBox="0 0 33.866666 33.866668"
   version="1.1"
   id="svg1038"
   inkscape:version="0.92.2 5c3e80d, 2017-08-06"
   sodipodi:docname="application-ascii.svg">
  <defs
     id="defs1032">
    <linearGradient
       osb:paint="solid"
       id="linearGradient6987">
      <stop
         id="stop6985"
         offset="0"
         style="stop-color:#77d2fb;stop-opacity:1;" />
    </linearGradient>
    <linearGradient
       id="linearGradient1830">
      <stop
         offset="0"
         style="stop-color:#d9d9d9;stop-opacity:1"
         id="stop1826" />
      <stop
         offset="1"
         style="stop-color:#ffffff;stop-opacity:1;"
         id="stop1828" />
    </linearGradient>
    <linearGradient
       gradientTransform="matrix(1.0010487,0,0,1.0010383,-0.017758,-0.26586565)"
       gradientUnits="userSpaceOnUse"
       y2="296.16849"
       x2="4.5843229"
       y1="263.52237"
       x1="29.203474"
       id="linearGradient1503"
       xlink:href="#linearGradient1830"
       inkscape:collect="always" />
  </defs>
  <sodipodi:namedview
     id="base"
     pagecolor="#ffffff"
     bordercolor="#666666"
     borderopacity="1.0"
     inkscape:pageopacity="0.0"
     inkscape:pageshadow="2"
     inkscape:zoom="2"
     inkscape:cx="191.3405"
     inkscape:cy="46.45559"
     inkscape:document-units="mm"
     inkscape:current-layer="layer1"
     showgrid="false"
     inkscape:window-width="1600"
     inkscape:window-height="814"
     inkscape:window-x="0"
     inkscape:window-y="0"
     inkscape:window-maximized="1"
     units="px" />
  <metadata
     id="metadata1035">
    <rdf:RDF>
      <cc:Work
         rdf:about="">
        <dc:format>image/svg+xml</dc:format>
        <dc:type
           rdf:resource="http://purl.org/dc/dcmitype/StillImage" />
        <dc:title />
      </cc:Work>
    </rdf:RDF>
  </metadata>
  <g
     inkscape:label="Layer 1"
     inkscape:groupmode="layer"
     id="layer1"
     transform="translate(0,-263.13332)">
    <path
       style="opacity:0.25;fill:#000000;fill-opacity:1;stroke:none;stroke-width:1.87499988;stroke-miterlimit:4;stroke-dasharray:none;stroke-opacity:1"
       d="m 4.571372,264.12318 v 32.61222 h 24.723922 v -18.3 c -0.04716,-0.8313 -0.101653,-1.57532 -0.312496,-2.32966 -0.21448,-0.76736 -0.552469,-1.49394 -0.956412,-2.18925 -0.516871,-0.8897 -1.39035,-1.46334 -2.166671,-2.19248 -0.47098,-0.42711 -1.488209,-1.44169 -2.719481,-2.65304 -1.221196,-1.20143 -2.653456,-2.59692 -3.849171,-3.68107 -0.35316,-0.3187 -0.866164,-0.64943 -1.342771,-0.84044 -0.370088,-0.14831 -0.80547,-0.24063 -1.22583,-0.30267 -0.433449,-0.064 -0.850926,-0.0958 -1.164384,-0.12361 z"
       id="path5023"
       inkscape:connector-curvature="0"
       sodipodi:nodetypes="ccccascscsscc" />
    <path
       sodipodi:nodetypes="ccccascscsscc"
       inkscape:connector-curvature="0"
       id="path4623-8"
       d="m 4.571372,263.5979 v 32.61222 h 24.723922 v -18.3 c -0.04716,-0.83129 -0.101653,-1.57532 -0.312496,-2.32966 -0.21448,-0.76736 -0.552469,-1.49394 -0.956412,-2.18925 -0.516871,-0.88969 -1.39035,-1.46334 -2.166671,-2.19247 -0.47098,-0.42712 -1.488209,-1.4417 -2.719481,-2.65305 -1.221196,-1.20142 -2.653456,-2.59692 -3.849171,-3.68107 -0.35316,-0.3187 -0.866164,-0.64944 -1.342771,-0.84044 -0.370088,-0.14831 -0.80547,-0.24063 -1.22583,-0.30267 -0.433449,-0.064 -0.850926,-0.0958 -1.164384,-0.12361 z"
       style="opacity:1;fill:url(#linearGradient1503);fill-opacity:1;stroke:#808080;stroke-width:0.30000001;stroke-miterlimit:4;stroke-dasharray:none;stroke-opacity:1" />
    <path
       sodipodi:nodetypes="ccccsccsc"
       inkscape:connector-curvature="0"
       id="path1355"
       d="m 19.751144,265.50926 c 0.01633,0.0263 0.561139,0.90462 0.727791,1.39886 0.451585,1.01234 0.25858,3.97236 0.250369,5.65885 0.02772,-0.19401 4.690513,-1.39583 7.111042,0.80464 -0.01547,-0.0273 -0.04888,-0.0804 -0.12512,-0.18628 -0.07235,-0.10046 -0.182749,-0.24915 -0.371644,-0.44224 -0.528108,-0.60452 -0.230926,-0.0845 -0.805409,-0.682 -0.496688,-0.45047 -1.569491,-1.52048 -2.867987,-2.79805 -1.241182,-1.22116 -2.686924,-2.62954 -3.919042,-3.75378 z"
       style="opacity:0.24800002;fill:#000000;fill-opacity:1;stroke:none;stroke-width:0.30000001;stroke-miterlimit:4;stroke-dasharray:none;stroke-opacity:1" />
    <path
       style="opacity:1;fill:#ffffff;fill-opacity:1;stroke:#808080;stroke-width:0.30000001;stroke-miterlimit:4;stroke-dasharray:none;stroke-opacity:1"
       d="m 19.42404,264.98645 c 0.01548,0.0249 0.53209,0.85773 0.690114,1.32635 0.428208,0.95987 0.292236,3.21802 0.28445,4.8171 0.428992,-0.0223 5.159507,-0.73701 7.328403,1.82407 -0.02928,-0.0506 -0.102779,-0.0927 -0.143771,-0.17312 -0.500768,-0.57318 -1.139582,-1.03373 -1.723521,-1.58216 -0.470975,-0.42712 -1.488241,-1.44167 -2.719516,-2.65302 -1.176928,-1.15787 -2.547826,-2.49325 -3.716159,-3.55922 z"
       id="path4753-0"
       inkscape:connector-curvature="0"
       sodipodi:nodetypes="ccccccsc" />
    <g
       style="stroke-width:4.08449793"
       inkscape:transform-center-y="-9.4924686"
       inkscape:transform-center-x="5.4653607"
       inkscape:label="Capa 1"
       id="layer1-4"
       transform="matrix(0.53602412,0,0,0.5372689,-234.93365,-13.760306)">
      <g
         style="stroke-width:4.08449793"
         id="layer1-3-65"
         inkscape:label="Capa 1"
         transform="translate(0.41988239,0.03484499)" />
    </g>
    <g
       id="g1567"
       transform="translate(-36.079726,-0.19984464)">
      <g
         style="fill:#5e5e5e;fill-opacity:1;stroke-width:4.08449793"
         transform="matrix(0.14740663,0,0,0.14774894,47.116793,273.83603)"
         id="g3">
        <path
           style="fill:#5e5e5e;fill-opacity:1;stroke-width:4.08449793"
           inkscape:connector-curvature="0"
           id="path5"
           d="m 64,48 v 0 H 56 V 32 h 8 C 72.836,32 80,24.836 80,16 80,7.164 72.836,0 64,0 55.163,0 48,7.164 48,16 v 8 H 32 V 16 C 32,7.164 24.836,0 16,0 7.164,0 0,7.164 0,16 0,24.836 7.164,32 16,32 h 8 v 16 h -8 v 0 0 C 7.164,48 0,55.164 0,64 c 0,8.836 7.164,16 16,16 8.837,0 16,-7.164 16,-16 v 0 -8 h 16 v 7.98 c 0,0.008 -10e-4,0.014 -10e-4,0.02 0,8.836 7.164,16 16,16 8.836,0 16,-7.164 16,-16 C 79.999,55.164 72.836,48.002 64,48 Z M 64,8 c 4.418,0 8,3.582 8,8 0,4.418 -3.582,8 -8,8 h -8 v -8 c 0,-4.418 3.582,-8 8,-8 z M 8,16 c 0,-4.418 3.582,-8 8,-8 4.418,0 8,3.582 8,8 v 8 H 16 C 11.582,24 8,20.417 8,16 Z m 8,56 c -4.418,0 -8,-3.582 -8,-8 0,-4.418 3.582,-8 8,-8 v 0 h 8 v 8 c 0,4.418 -3.582,8 -8,8 z M 32,48 V 32 h 16 v 16 z m 32,24 c -4.418,0 -8,-3.582 -8,-8 v 0 -8 h 7.999 c 4.418,0 8,3.582 8,8 0,4.418 -3.581,8 -7.999,8 z" />
      </g>
      <g
         transform="matrix(0.24454434,0,0,0.24511223,31.724386,223.78062)"
         id="text4405"
         style="font-style:normal;font-weight:normal;font-size:21.48731804px;line-height:125%;font-family:sans-serif;letter-spacing:0px;word-spacing:0px;fill:#5e5e5e;fill-opacity:1;stroke:none;stroke-width:4.08449793px;stroke-linecap:butt;stroke-linejoin:miter;stroke-opacity:1">
        <path
           inkscape:connector-curvature="0"
           id="path4410"
           style="font-style:normal;font-variant:normal;font-weight:bold;font-stretch:normal;font-family:Aileron;-inkscape-font-specification:'Aileron Bold';fill:#5e5e5e;fill-opacity:1;stroke-width:4.08449793px"
           d="m 69.873154,281.63009 1.461138,4.46937 h 3.223098 l -5.242906,-14.82625 h -3.717306 l -5.350342,14.82625 h 3.158636 l 1.482625,-4.46937 z m -2.471041,-7.82138 1.718985,5.47927 h -3.480945 z" />
        <path
           inkscape:connector-curvature="0"
           id="path4412"
           style="font-style:normal;font-variant:normal;font-weight:bold;font-stretch:normal;font-family:Aileron;-inkscape-font-specification:'Aileron Bold';fill:#5e5e5e;fill-opacity:1;stroke-width:4.08449793px"
           d="m 81.026415,270.97238 c -2.836326,0 -5.307367,1.61155 -5.307367,4.34044 0,2.72889 1.912371,3.78177 4.942083,4.51234 2.191706,0.5157 2.96525,1.24626 2.96525,2.49253 0,1.13883 -1.074366,1.8694 -2.428067,1.8694 -1.504113,0 -2.750377,-0.83801 -3.072687,-2.47105 h -3.029712 c 0.279336,3.11567 2.599966,4.68424 6.145373,4.68424 2.922276,0 5.479266,-1.59006 5.479266,-4.38341 0,-2.3851 -1.461137,-3.88921 -4.727209,-4.64126 -2.363605,-0.55867 -3.158636,-1.18181 -3.158636,-2.42807 0,-1.20329 0.902467,-1.76196 2.08427,-1.76196 1.547087,0 2.385092,0.94544 2.55699,2.44955 h 3.029712 c -0.322309,-2.64294 -1.933858,-4.66275 -5.479266,-4.66275 z" />
        <path
           inkscape:connector-curvature="0"
           id="path4414"
           style="font-style:normal;font-variant:normal;font-weight:bold;font-stretch:normal;font-family:Aileron;-inkscape-font-specification:'Aileron Bold';fill:#5e5e5e;fill-opacity:1;stroke-width:4.08449793px"
           d="m 95.517933,270.97238 c -4.104078,0 -7.176764,2.94377 -7.176764,7.7999 0,4.72721 2.836326,7.628 6.961891,7.628 3.803255,0 6.20983,-2.06278 6.53214,-5.22142 l 0.0215,-0.21487 h -2.943761 l -0.04297,0.21487 c -0.386772,1.84791 -1.504113,3.00823 -3.437971,3.00823 -2.256169,0 -3.953667,-1.89089 -3.953667,-5.58671 0,-3.37351 1.611549,-5.4148 3.996641,-5.4148 1.976834,0 3.094174,1.07436 3.459459,2.90079 l 0.04297,0.21487 h 2.965249 l -0.0215,-0.21487 c -0.30082,-2.92228 -2.385089,-5.11399 -6.403217,-5.11399 z" />
        <path
           inkscape:connector-curvature="0"
           id="path4416"
           style="font-style:normal;font-variant:normal;font-weight:bold;font-stretch:normal;font-family:Aileron;-inkscape-font-specification:'Aileron Bold';fill:#5e5e5e;fill-opacity:1;stroke-width:4.08449793px"
           d="m 107.56695,286.09946 v -14.82625 h -2.96525 v 14.82625 z" />
        <path
           inkscape:connector-curvature="0"
           id="path4418"
           style="font-style:normal;font-variant:normal;font-weight:bold;font-stretch:normal;font-family:Aileron;-inkscape-font-specification:'Aileron Bold';fill:#5e5e5e;fill-opacity:1;stroke-width:4.08449793px"
           d="m 113.86206,286.09946 v -14.82625 h -2.96525 v 14.82625 z" />
      </g>
    </g>
  </g>
</svg>
