<?xml version="1.0" encoding="UTF-8" standalone="no"?>
<!-- Created with Inkscape (http://www.inkscape.org/) -->

<svg
   xmlns:osb="http://www.openswatchbook.org/uri/2009/osb"
   xmlns:dc="http://purl.org/dc/elements/1.1/"
   xmlns:cc="http://creativecommons.org/ns#"
   xmlns:rdf="http://www.w3.org/1999/02/22-rdf-syntax-ns#"
   xmlns:svg="http://www.w3.org/2000/svg"
   xmlns="http://www.w3.org/2000/svg"
   xmlns:xlink="http://www.w3.org/1999/xlink"
   xmlns:sodipodi="http://sodipodi.sourceforge.net/DTD/sodipodi-0.dtd"
   xmlns:inkscape="http://www.inkscape.org/namespaces/inkscape"
   width="128"
   height="128"
   viewBox="0 0 33.866666 33.866668"
   version="1.1"
   id="svg1038"
   inkscape:version="0.92.2 5c3e80d, 2017-08-06"
   sodipodi:docname="application-text-template.svg">
  <defs
     id="defs1032">
    <linearGradient
       id="linearGradient8130">
      <stop
         id="stop8128"
         offset="0"
         style="stop-color:#4bb6ed;stop-opacity:1" />
      <stop
         id="stop8126"
         offset="1"
         style="stop-color:#0b82fe;stop-opacity:1" />
    </linearGradient>
    <linearGradient
       osb:paint="solid"
       id="linearGradient6987">
      <stop
         id="stop6985"
         offset="0"
         style="stop-color:#77d2fb;stop-opacity:1;" />
    </linearGradient>
    <linearGradient
       gradientTransform="matrix(1.0010487,0,0,1.0010383,-0.017758,-0.26586565)"
       gradientUnits="userSpaceOnUse"
       y2="294.83975"
       x2="5.8018413"
       y1="268.28818"
       x1="18.924377"
       id="linearGradient1503"
       xlink:href="#linearGradient8130"
       inkscape:collect="always" />
    <linearGradient
       id="linearGradient4590"
       inkscape:collect="always">
      <stop
         id="stop4592"
         offset="0"
         style="stop-color:#ffffff;stop-opacity:1" />
      <stop
         id="stop4594"
         offset="1"
         style="stop-color:#d9d9d9;stop-opacity:1" />
    </linearGradient>
    <linearGradient
       inkscape:collect="always"
       xlink:href="#linearGradient4590"
       id="linearGradient8140"
       x1="22.367529"
       y1="269.73138"
       x2="23.350012"
       y2="268.83844"
       gradientUnits="userSpaceOnUse" />
  </defs>
  <sodipodi:namedview
     id="base"
     pagecolor="#ffffff"
     bordercolor="#666666"
     borderopacity="1.0"
     inkscape:pageopacity="0.0"
     inkscape:pageshadow="2"
     inkscape:zoom="2"
     inkscape:cx="53.438848"
     inkscape:cy="105.38043"
     inkscape:document-units="mm"
     inkscape:current-layer="layer1"
     showgrid="false"
     inkscape:window-width="1600"
     inkscape:window-height="814"
     inkscape:window-x="0"
     inkscape:window-y="0"
     inkscape:window-maximized="1"
     units="px" />
  <metadata
     id="metadata1035">
    <rdf:RDF>
      <cc:Work
         rdf:about="">
        <dc:format>image/svg+xml</dc:format>
        <dc:type
           rdf:resource="http://purl.org/dc/dcmitype/StillImage" />
        <dc:title />
      </cc:Work>
    </rdf:RDF>
  </metadata>
  <g
     inkscape:label="Layer 1"
     inkscape:groupmode="layer"
     id="layer1"
     transform="translate(0,-263.13332)">
    <path
       style="opacity:0.25;fill:#000000;fill-opacity:1;stroke:none;stroke-width:1.87499988;stroke-miterlimit:4;stroke-dasharray:none;stroke-opacity:1"
       d="m 4.571372,264.12318 v 32.61222 h 24.723922 v -18.3 c -0.04716,-0.8313 -0.101653,-1.57532 -0.312496,-2.32966 -0.21448,-0.76736 -0.552469,-1.49394 -0.956412,-2.18925 -0.516871,-0.8897 -1.39035,-1.46334 -2.166671,-2.19248 -0.47098,-0.42711 -1.488209,-1.44169 -2.719481,-2.65304 -1.221196,-1.20143 -2.653456,-2.59692 -3.849171,-3.68107 -0.35316,-0.3187 -0.866164,-0.64943 -1.342771,-0.84044 -0.370088,-0.14831 -0.80547,-0.24063 -1.22583,-0.30267 -0.433449,-0.064 -0.850926,-0.0958 -1.164384,-0.12361 z"
       id="path5023"
       inkscape:connector-curvature="0"
       sodipodi:nodetypes="ccccascscsscc" />
    <path
       sodipodi:nodetypes="ccccascscsscc"
       inkscape:connector-curvature="0"
       id="path4623-8"
       d="m 4.571372,263.5979 v 32.61222 h 24.723922 v -18.3 c -0.04716,-0.83129 -0.101653,-1.57532 -0.312496,-2.32966 -0.21448,-0.76736 -0.552469,-1.49394 -0.956412,-2.18925 -0.516871,-0.88969 -1.39035,-1.46334 -2.166671,-2.19247 -0.47098,-0.42712 -1.488209,-1.4417 -2.719481,-2.65305 -1.221196,-1.20142 -2.653456,-2.59692 -3.849171,-3.68107 -0.35316,-0.3187 -0.866164,-0.64944 -1.342771,-0.84044 -0.370088,-0.14831 -0.80547,-0.24063 -1.22583,-0.30267 -0.433449,-0.064 -0.850926,-0.0958 -1.164384,-0.12361 z"
       style="opacity:1;fill:url(#linearGradient1503);fill-opacity:1;stroke:none;stroke-width:0.40000001;stroke-miterlimit:4;stroke-dasharray:none;stroke-opacity:1" />
    <g
       id="g1024"
       transform="translate(-0.84427884,-0.52916667)"
       style="stroke:#f2f2f2">
      <path
         style="fill:none;stroke:#f2f2f2;stroke-width:0.30000001;stroke-linecap:butt;stroke-linejoin:miter;stroke-miterlimit:4;stroke-dasharray:none;stroke-opacity:1"
         id="path997"
         d="m 7.704872,268.00872 h 1.698695 z m 1.947836,0 h 1.585448 z m 1.834589,0 h 1.404254 z m 1.630747,0 h 0.61153 z m 0.860673,0 h 1.358955 z m 1.630747,0 h 3.578582 z m -7.904592,0.87396 h 2.649963 z m 2.944403,0 h 1.268358 z m 1.494851,0 h 0.634179 z m 0.883321,0 h 1.155113 z m 1.404255,0 h 1.177762 z m 1.404254,0 h 1.879888 z m 2.12903,0 h 2.446121 z m 2.672614,0 h 1.630746 z m 1.857239,0 h 0.407687 z m -14.789967,0.86713 h 2.242276 z m 2.46877,0 h 3.66918 z m 3.895671,0 h 1.789293 z m 2.015785,0 h 1.676044 z m 1.902538,0 h 1.426903 z m 1.653397,0 2.242276,0.0136 z m 2.44612,0.0136 h 2.072661 z m -14.382281,0.86713 h 3.102947 z m 3.35209,0 h 3.352091 z m 3.578582,0 h 1.336307 z m 1.5628,0 h 3.148247 z m 3.352091,0 h 2.15168 z m 2.400822,0 h 0.860672 z m 1.087165,0 h 0.475634 z m 0.724776,0 h 1.336307 z m -16.058326,0.87397 h 1.155112 z m 1.517501,0 h 4.280709 z m -1.517501,1.74108 h 2.242276 z m 2.46877,0 h 3.66918 z m 3.895671,0 h 1.789293 z m 2.015785,0 h 1.676044 z m 1.902538,0 h 1.426903 z m 1.653397,0 2.242276,0.0137 z m 2.44612,0.0137 h 3.646532 z m -14.382281,0.86713 h 1.698695 z m 1.947836,0 h 1.562799 z m 1.834589,0 h 1.404254 z m 1.630747,0 h 0.61153 z m 0.860673,0 h 1.358955 z m 1.630747,0 h 3.555933 z m 3.805075,0 h 2.717912 z m 2.944405,0 h 0.860672 z m 1.087164,0 h 2.038433 z m -15.741236,0.87396 h 2.853806 z m 3.080298,0 h 3.057652 z m 3.284143,0 h 1.177762 z m 1.404255,0 h 2.876456 z m 3.102949,0 h 3.623881 z m 3.873023,0 h 1.336307 z m -14.744668,0.87396 h 3.102947 z m 3.35209,0 h 3.352091 z m 3.578582,0 h 1.336307 z m 1.5628,0 h 3.148247 z m 3.352091,0 h 2.15168 z m 2.400822,0 h 0.860672 z m 1.087165,0 h 0.475634 z m 0.724776,0 h 1.336307 z m -16.058326,0.87395 h 2.649963 z m 2.944403,0 h 1.268358 z m 1.494851,0 h 0.634179 z m 0.883321,0 h 1.155113 z m 1.404255,0 h 1.177762 z m 1.404254,0 h 1.879888 z m 2.12903,0 h 2.446121 z m 2.672614,0 h 1.630746 z m 1.857239,0 h 0.407687 z m -14.789967,1.74109 h 2.242276 z m 2.46877,0 h 3.66918 z m 3.895671,0 h 1.789293 z m 2.015785,0 h 1.676044 z m 1.902538,0 h 1.426903 z m 1.653397,0 2.242276,0.0137 z m 2.44612,0.0137 h 3.646532 z m -14.382281,0.86713 h 2.649963 z m 2.944403,0 h 1.268358 z m 1.494851,0 h 0.634179 z m 0.883321,0 h 1.155113 z m 1.404255,0 h 1.177762 z m 1.404254,0 h 1.879888 z m 2.12903,0 h 2.446121 z m 2.672614,0 h 1.630746 z m 1.857239,0 h 0.407687 z m -14.789967,0.87397 h 2.808508 z m 3.05765,0 h 0.88332 z m 1.109814,0 h 2.015783 z m 2.242276,0 h 2.967053 z m 3.216195,0 h 2.015784 z m 2.219628,0 h 0.430335 z m 0.656829,0 h 2.559366 z m 2.831158,0 h 1.336307 z m -15.33355,0.87395 h 2.808509 z m 3.05765,0 h 1.268358 z m 1.494851,0 h 1.993135 z m 2.219627,0 h 2.15168 z m 2.400823,0 h 0.860671 z m 1.087163,0 h 0.475635 z m 0.724777,0 h 1.336307 z"
         inkscape:connector-curvature="0"
         sodipodi:nodetypes="cccccccccccccccccccccccccccccccccccccccccccccccccccccccccccccccccccccccccccccccccccccccccccccccccccccccccccccccccccccccccccccccccccccccccccccccccccccccccccccccccccccccccccccccccccccccccccccccccccccccccccccccccccccccccccccccccccccccccccccccccccccccccccccccccccccccccccccccccccccccccccccccccccccccccccccccccc" />
      <path
         sodipodi:nodetypes="cccccccccccccccccccccccccccccccccccccccccccccccccccccccccccccccccccccccccccccccccccccccccccccccccccccccccccccccccccccccccccccccccccccccccccccccccccccccccccccccccccccccccccccccccccccccccccccccccccccccccccccccccc"
         inkscape:connector-curvature="0"
         d="m 7.704872,290.71801 h 2.242276 z m 2.46877,0 h 3.66918 z m 3.895671,0 h 1.789293 z m 2.015785,0 h 1.676044 z m 1.902538,0 h 1.426903 z m 1.653397,0 2.242276,-0.0137 z m 2.44612,-0.0137 h 3.646532 z M 7.704872,289.83718 h 1.698695 z m 1.947836,0 h 1.562799 z m 1.834589,0 h 1.404254 z m 1.630747,0 h 0.61153 z m 0.860673,0 h 1.358955 z m 1.630747,0 h 3.555933 z m 3.805075,0 h 2.717912 z m 2.944405,0 h 0.860672 z m 1.087164,0 h 2.038433 z M 7.704872,288.96322 h 2.853806 z m 3.080298,0 h 3.057652 z m 3.284143,0 h 1.177762 z m 1.404255,0 h 2.876456 z m 3.102949,0 h 3.623881 z m 3.873023,0 h 1.336307 z M 7.704872,288.08926 h 3.102947 z m 3.35209,0 h 3.352091 z m 3.578582,0 h 1.336307 z m 1.5628,0 h 3.148247 z m 3.352091,0 h 2.15168 z m 2.400822,0 h 0.860672 z m 1.087165,0 h 0.475634 z m 0.724776,0 h 1.336307 z M 7.704872,287.21531 h 2.649963 z m 2.944403,0 h 1.268358 z m 1.494851,0 h 0.634179 z m 0.883321,0 h 1.155113 z m 1.404255,0 h 1.177762 z m 1.404254,0 h 1.879888 z m 2.12903,0 h 2.446121 z m 2.672614,0 h 1.630746 z m 1.857239,0 h 0.407687 z M 7.704872,285.47422 h 2.242276 z m 2.46877,0 h 3.66918 z m 3.895671,0 h 1.789293 z m 2.015785,0 h 1.676044 z m 1.902538,0 h 1.426903 z m 1.653397,0 2.242276,-0.0137 z m 2.44612,-0.0137 h 3.646532 z M 7.704872,284.59339 h 2.649963 z m 2.944403,0 h 1.268358 z m 1.494851,0 h 0.634179 z m 0.883321,0 h 1.155113 z m 1.404255,0 h 1.177762 z m 1.404254,0 h 1.879888 z m 2.12903,0 h 2.446121 z m 2.672614,0 h 1.630746 z m 1.857239,0 h 0.407687 z M 7.704872,283.71942 h 2.808508 z m 3.05765,0 h 0.88332 z m 1.109814,0 h 2.015783 z m 2.242276,0 h 2.967053 z m 3.216195,0 h 2.015784 z m 2.219628,0 h 0.430335 z m 0.656829,0 h 2.559366 z m 2.831158,0 h 1.336307 z m -15.33355,-0.87395 h 2.808509 z m 3.05765,0 h 1.268358 z m 1.494851,0 h 1.993135 z m 2.219627,0 h 2.15168 z m 2.400823,0 h 0.860671 z m 1.087163,0 h 0.475635 z m 0.724777,0 h 1.336307 z"
         id="path999"
         style="fill:none;stroke:#f2f2f2;stroke-width:0.30000001;stroke-linecap:butt;stroke-linejoin:miter;stroke-miterlimit:4;stroke-dasharray:none;stroke-opacity:1" />
    </g>
    <g
       id="g8124"
       transform="translate(0.00446975,0.08443272)"
       style="stroke-width:0.2;stroke-miterlimit:4;stroke-dasharray:none">
      <path
         style="opacity:1;fill:none;fill-opacity:1;stroke:#ffffff;stroke-width:0.2;stroke-miterlimit:4;stroke-dasharray:none;stroke-opacity:1"
         d="m 5.7901675,264.7606 v 30.11943 H 28.067559 l -0.220138,-16.64072 c -0.04798,-1.84435 -0.860498,-6.65872 -2.422118,-7.04249 -0.79989,-1.20945 -1.00047,-0.85575 -2.128352,-2.02271 -1.100357,-1.1096 -1.650438,-1.58847 -2.727836,-2.58975 -1.221725,-1.24268 -3.153437,-1.55226 -4.87942,-1.72686 z"
         id="path7427"
         inkscape:connector-curvature="0"
         sodipodi:nodetypes="ccccccccc" />
      <path
         style="fill:none;fill-rule:evenodd;stroke:#ffffff;stroke-width:0.2;stroke-linecap:butt;stroke-linejoin:miter;stroke-miterlimit:4;stroke-dasharray:none;stroke-opacity:1"
         d="M 5.7671545,292.54851 H 28.090573"
         id="path7433"
         inkscape:connector-curvature="0" />
    </g>
    <path
       style="opacity:0.25;fill:#000000;fill-opacity:1;stroke:none;stroke-width:1.51181102;stroke-miterlimit:4;stroke-dasharray:none;stroke-opacity:1"
       d="M 75.416016 10.140625 C 75.475354 10.234735 77.454779 13.383135 78.060547 15.154297 C 79.702026 18.782152 79.182191 27.315608 79.152344 33.359375 C 80.729797 33.278527 97.432887 30.801445 106.13086 39.142578 C 106.06056 39.01914 105.99719 38.892449 105.92578 38.769531 C 103.97225 35.406923 100.67241 33.240142 97.738281 30.484375 C 96.840635 29.670322 95.409687 28.283215 93.623047 26.529297 C 92.220432 25.71146 90.855783 24.751613 89.662109 23.59375 C 85.15051 19.217548 79.894665 14.169488 75.416016 10.140625 z "
       transform="matrix(0.26458333,0,0,0.26458333,0,263.13332)"
       id="path1488" />
    <path
       style="opacity:1;fill:url(#linearGradient8140);fill-opacity:1;stroke:none;stroke-width:0.3;stroke-miterlimit:4;stroke-dasharray:none;stroke-opacity:1"
       d="m 19.42404,264.98645 c 0.01548,0.0249 0.53209,0.85773 0.690114,1.32635 0.428208,0.95987 0.292236,3.21802 0.28445,4.8171 0.428992,-0.0223 5.148138,-0.73598 7.317034,1.8251 -0.02928,-0.0506 -0.09141,-0.0937 -0.132402,-0.17415 -0.500768,-0.57318 -1.139582,-1.03373 -1.723521,-1.58216 -0.470975,-0.42712 -1.488241,-1.44167 -2.719516,-2.65302 -1.176928,-1.15787 -2.547826,-2.49325 -3.716159,-3.55922 z"
       id="path4753-0"
       inkscape:connector-curvature="0"
       sodipodi:nodetypes="ccccccsc" />
    <g
       id="g7451"
       style="font-style:normal;font-weight:normal;font-size:6.53817463px;line-height:125%;font-family:sans-serif;letter-spacing:0px;word-spacing:0px;fill:#ffffff;fill-opacity:1;stroke:none;stroke-width:4.02098608px;stroke-linecap:butt;stroke-linejoin:miter;stroke-opacity:1"
       transform="matrix(0.2486952,0,0,0.2486952,-0.07131306,223.06555)">
      <path
         id="path7435"
         style="font-style:normal;font-variant:normal;font-weight:bold;font-stretch:normal;font-size:6.28385401px;font-family:'Liberation Sans';-inkscape-font-specification:'Liberation Sans Bold';fill:#ffffff;fill-opacity:1;stroke-width:4.02098608px"
         d="m 80.796149,282.72285 v 3.62365 h -0.905145 v -3.62365 h -1.396071 v -0.69957 h 3.700355 v 0.69957 z"
         inkscape:connector-curvature="0" />
      <path
         id="path7437"
         style="font-style:normal;font-variant:normal;font-weight:bold;font-stretch:normal;font-size:6.28385401px;font-family:'Liberation Sans';-inkscape-font-specification:'Liberation Sans Bold';fill:#ffffff;fill-opacity:1;stroke-width:4.02098608px"
         d="m 82.686214,286.3465 v -4.32322 h 3.399664 v 0.69957 h -2.494519 v 1.08617 h 2.307353 v 0.69957 h -2.307353 v 1.13834 h 2.620318 v 0.69957 z"
         inkscape:connector-curvature="0" />
      <path
         id="path7439"
         style="font-style:normal;font-variant:normal;font-weight:bold;font-stretch:normal;font-size:6.28385401px;font-family:'Liberation Sans';-inkscape-font-specification:'Liberation Sans Bold';fill:#ffffff;fill-opacity:1;stroke-width:4.02098608px"
         d="m 90.473529,286.3465 v -2.62032 q 0,-0.15648 0.0031,-0.32217 0.0061,-0.16569 0.01227,-0.30376 0.0092,-0.16262 0.01534,-0.31604 -0.06443,0.2424 -0.122731,0.46025 -0.02455,0.092 -0.05216,0.19023 -0.02761,0.0982 -0.05523,0.19024 -0.02455,0.092 -0.04909,0.17182 -0.02455,0.0798 -0.04296,0.13807 l -0.779345,2.41168 h -0.644341 l -0.779345,-2.41168 q -0.01841,-0.0583 -0.04296,-0.13807 -0.02148,-0.0798 -0.04909,-0.17182 -0.02455,-0.0921 -0.05216,-0.19024 -0.02761,-0.0982 -0.05523,-0.19023 -0.06136,-0.21785 -0.128868,-0.46025 0.0092,0.17796 0.01841,0.34979 0.0061,0.14728 0.01227,0.3099 0.0061,0.16262 0.0061,0.28228 v 2.62032 h -0.803892 v -4.32322 h 1.211974 l 0.773209,2.41781 q 0.03068,0.0951 0.06443,0.23319 0.03682,0.13807 0.07057,0.26694 0.03682,0.15035 0.07978,0.31297 0.04296,-0.15955 0.08284,-0.30683 0.01841,-0.0644 0.03682,-0.13194 0.01841,-0.0675 0.03682,-0.13194 0.01841,-0.0644 0.03682,-0.12273 0.01841,-0.0583 0.03375,-0.10432 l 0.760936,-2.43315 h 1.205837 v 4.32322 h -0.803892 z"
         inkscape:connector-curvature="0" />
      <path
         id="path7441"
         style="font-style:normal;font-variant:normal;font-weight:bold;font-stretch:normal;font-size:6.28385401px;font-family:'Liberation Sans';-inkscape-font-specification:'Liberation Sans Bold';fill:#ffffff;fill-opacity:1;stroke-width:4.02098608px"
         d="m 95.680414,283.39174 q 0,0.27921 -0.09512,0.54001 -0.09205,0.25774 -0.285351,0.45718 -0.193302,0.19944 -0.490926,0.3191 -0.297624,0.1166 -0.705706,0.1166 H 93.02941 v 1.52187 h -0.905145 v -4.32322 h 1.942227 q 0.414218,0 0.717979,0.10125 0.30376,0.0982 0.503199,0.27922 0.199439,0.18103 0.294556,0.43263 0.09819,0.25159 0.09819,0.55536 z m -0.911281,0.0153 q 0,-0.33445 -0.202507,-0.50627 -0.199439,-0.17489 -0.601385,-0.17489 h -0.935828 v 1.4022 h 0.960374 q 0.202507,0 0.346717,-0.0522 0.147278,-0.0522 0.242395,-0.14727 0.09818,-0.0951 0.144209,-0.22706 0.04603,-0.135 0.04603,-0.29455 z"
         inkscape:connector-curvature="0" />
      <path
         id="path7443"
         style="font-style:normal;font-variant:normal;font-weight:bold;font-stretch:normal;font-size:6.28385401px;font-family:'Liberation Sans';-inkscape-font-specification:'Liberation Sans Bold';fill:#ffffff;fill-opacity:1;stroke-width:4.02098608px"
         d="m 96.321686,286.3465 v -4.32322 h 0.905145 v 3.62365 h 2.319626 v 0.69957 z"
         inkscape:connector-curvature="0" />
      <path
         id="path7445"
         style="font-style:normal;font-variant:normal;font-weight:bold;font-stretch:normal;font-size:6.28385401px;font-family:'Liberation Sans';-inkscape-font-specification:'Liberation Sans Bold';fill:#ffffff;fill-opacity:1;stroke-width:4.02098608px"
         d="m 103.2192,286.3465 -0.38354,-1.10459 h -1.64767 l -0.38353,1.10459 h -0.905149 l 1.577099,-4.32322 h 1.06777 l 1.57096,4.32322 z m -1.01254,-3.0284 q -0.0368,-0.10739 -0.0736,-0.21478 -0.0337,-0.11046 -0.0614,-0.19944 -0.0245,-0.0921 -0.043,-0.15035 -0.0153,-0.0583 -0.0184,-0.0644 -0.003,0.009 -0.0184,0.0675 -0.0153,0.0583 -0.0429,0.14728 -0.0246,0.089 -0.0614,0.19944 -0.0337,0.10739 -0.0706,0.21478 l -0.42649,1.24265 h 1.24266 l -0.4265,-1.24265 z"
         inkscape:connector-curvature="0" />
      <path
         id="path7447"
         style="font-style:normal;font-variant:normal;font-weight:bold;font-stretch:normal;font-size:6.28385401px;font-family:'Liberation Sans';-inkscape-font-specification:'Liberation Sans Bold';fill:#ffffff;fill-opacity:1;stroke-width:4.02098608px"
         d="m 106.1893,282.72285 v 3.62365 h -0.90514 v -3.62365 h -1.39607 v -0.69957 h 3.70035 v 0.69957 z"
         inkscape:connector-curvature="0" />
      <path
         id="path7449"
         style="font-style:normal;font-variant:normal;font-weight:bold;font-stretch:normal;font-size:6.28385401px;font-family:'Liberation Sans';-inkscape-font-specification:'Liberation Sans Bold';fill:#ffffff;fill-opacity:1;stroke-width:4.02098608px"
         d="m 108.07937,286.3465 v -4.32322 h 3.39966 v 0.69957 h -2.49452 v 1.08617 h 2.30735 v 0.69957 h -2.30735 v 1.13834 h 2.62032 v 0.69957 z"
         inkscape:connector-curvature="0" />
    </g>
    <g
       style="stroke-width:4.08449793"
       inkscape:transform-center-y="-9.4924686"
       inkscape:transform-center-x="5.4653607"
       inkscape:label="Capa 1"
       id="layer1-4"
       transform="matrix(0.53602412,0,0,0.5372689,-207.94615,-13.7603)">
      <g
         style="stroke-width:4.08449793"
         id="layer1-3-65"
         inkscape:label="Capa 1"
         transform="translate(0.41988239,0.03484499)" />
    </g>
  </g>
</svg>
