<?xml version="1.0" encoding="UTF-8" standalone="no"?>
<!-- Created with Inkscape (http://www.inkscape.org/) -->

<svg
   xmlns:osb="http://www.openswatchbook.org/uri/2009/osb"
   xmlns:dc="http://purl.org/dc/elements/1.1/"
   xmlns:cc="http://creativecommons.org/ns#"
   xmlns:rdf="http://www.w3.org/1999/02/22-rdf-syntax-ns#"
   xmlns:svg="http://www.w3.org/2000/svg"
   xmlns="http://www.w3.org/2000/svg"
   xmlns:xlink="http://www.w3.org/1999/xlink"
   xmlns:sodipodi="http://sodipodi.sourceforge.net/DTD/sodipodi-0.dtd"
   xmlns:inkscape="http://www.inkscape.org/namespaces/inkscape"
   width="128"
   height="128"
   viewBox="0 0 33.866666 33.866668"
   version="1.1"
   id="svg1038"
   inkscape:version="0.92.2 5c3e80d, 2017-08-06"
   sodipodi:docname="application-x-trash.svg">
  <defs
     id="defs1032">
    <linearGradient
       osb:paint="solid"
       id="linearGradient6987">
      <stop
         id="stop6985"
         offset="0"
         style="stop-color:#77d2fb;stop-opacity:1;" />
    </linearGradient>
    <linearGradient
       id="linearGradient1830">
      <stop
         offset="0"
         style="stop-color:#d9d9d9;stop-opacity:1"
         id="stop1826" />
      <stop
         offset="1"
         style="stop-color:#ffffff;stop-opacity:1;"
         id="stop1828" />
    </linearGradient>
    <linearGradient
       gradientTransform="matrix(1.0010487,0,0,1.0010383,-0.01775749,-0.29085897)"
       gradientUnits="userSpaceOnUse"
       y2="296.16849"
       x2="4.5843229"
       y1="263.52237"
       x1="29.203474"
       id="linearGradient1503-2"
       xlink:href="#linearGradient1830"
       inkscape:collect="always" />
  </defs>
  <sodipodi:namedview
     id="base"
     pagecolor="#ffffff"
     bordercolor="#666666"
     borderopacity="1.0"
     inkscape:pageopacity="0.0"
     inkscape:pageshadow="2"
     inkscape:zoom="2"
     inkscape:cx="42.327424"
     inkscape:cy="67.286858"
     inkscape:document-units="mm"
     inkscape:current-layer="layer1"
     showgrid="false"
     inkscape:window-width="1600"
     inkscape:window-height="814"
     inkscape:window-x="0"
     inkscape:window-y="0"
     inkscape:window-maximized="1"
     units="px" />
  <metadata
     id="metadata1035">
    <rdf:RDF>
      <cc:Work
         rdf:about="">
        <dc:format>image/svg+xml</dc:format>
        <dc:type
           rdf:resource="http://purl.org/dc/dcmitype/StillImage" />
        <dc:title />
      </cc:Work>
    </rdf:RDF>
  </metadata>
  <g
     inkscape:label="Layer 1"
     inkscape:groupmode="layer"
     id="layer1"
     transform="translate(0,-263.13332)">
    <g
       style="stroke-width:4.08449793"
       inkscape:transform-center-y="-9.4924686"
       inkscape:transform-center-x="5.4653607"
       inkscape:label="Capa 1"
       id="layer1-4"
       transform="matrix(0.53602412,0,0,0.5372689,-234.93365,-13.760306)">
      <g
         style="stroke-width:4.08449793"
         id="layer1-3-65"
         inkscape:label="Capa 1"
         transform="translate(0.41988239,0.03484499)" />
    </g>
    <path
       style="opacity:0.25;fill:#000000;fill-opacity:1;stroke:none;stroke-width:1.87499988;stroke-miterlimit:4;stroke-dasharray:none;stroke-opacity:1"
       d="M 4.5713725,264.09818 V 296.7104 H 29.295294 v -18.3 c -0.04716,-0.8313 -0.101653,-1.57532 -0.312496,-2.32966 -0.21448,-0.76736 -0.552469,-1.49394 -0.956412,-2.18925 -0.516871,-0.8897 -1.39035,-1.46334 -2.166671,-2.19248 -0.47098,-0.42711 -1.488209,-1.44169 -2.719481,-2.65304 -1.221196,-1.20143 -2.653456,-2.59692 -3.849171,-3.68107 -0.35316,-0.3187 -0.866164,-0.64943 -1.342771,-0.84044 -0.370088,-0.14831 -0.80547,-0.24063 -1.22583,-0.30267 -0.433449,-0.064 -0.850926,-0.0958 -1.164384,-0.12361 z"
       id="path5023-9"
       inkscape:connector-curvature="0"
       sodipodi:nodetypes="ccccascscsscc" />
    <path
       sodipodi:nodetypes="ccccascscsscc"
       inkscape:connector-curvature="0"
       id="path4623-8-0"
       d="m 4.5713725,263.5729 v 32.61222 H 29.295294 v -18.3 c -0.04716,-0.83129 -0.101653,-1.57532 -0.312496,-2.32966 -0.21448,-0.76736 -0.552469,-1.49394 -0.956412,-2.18925 -0.516871,-0.88969 -1.39035,-1.46334 -2.166671,-2.19247 -0.47098,-0.42712 -1.488209,-1.4417 -2.719481,-2.65305 -1.221196,-1.20142 -2.653456,-2.59692 -3.849171,-3.68107 -0.35316,-0.3187 -0.866164,-0.64944 -1.342771,-0.84044 -0.370088,-0.14831 -0.80547,-0.24063 -1.22583,-0.30267 -0.433449,-0.064 -0.850926,-0.0958 -1.164384,-0.12361 z"
       style="opacity:1;fill:url(#linearGradient1503-2);fill-opacity:1;stroke:#808080;stroke-width:0.30000001;stroke-miterlimit:4;stroke-dasharray:none;stroke-opacity:1" />
    <path
       sodipodi:nodetypes="ccccsccsc"
       inkscape:connector-curvature="0"
       id="path1355-3"
       d="m 19.751144,265.48426 c 0.01633,0.0263 0.561139,0.90462 0.727791,1.39886 0.451585,1.01234 0.25858,3.97236 0.250369,5.65885 0.02772,-0.19401 4.690513,-1.39583 7.111042,0.80464 -0.01547,-0.0273 -0.04888,-0.0804 -0.12512,-0.18628 -0.07235,-0.10046 -0.182749,-0.24915 -0.371644,-0.44224 -0.528108,-0.60452 -0.230926,-0.0845 -0.805409,-0.682 -0.496688,-0.45047 -1.569491,-1.52048 -2.867987,-2.79805 -1.241182,-1.22116 -2.686924,-2.62954 -3.919042,-3.75378 z"
       style="opacity:0.24800002;fill:#000000;fill-opacity:1;stroke:none;stroke-width:0.30000001;stroke-miterlimit:4;stroke-dasharray:none;stroke-opacity:1" />
    <path
       style="opacity:1;fill:#ffffff;fill-opacity:1;stroke:#808080;stroke-width:0.30000001;stroke-miterlimit:4;stroke-dasharray:none;stroke-opacity:1"
       d="m 19.42404,264.96145 c 0.01548,0.0249 0.53209,0.85773 0.690114,1.32635 0.428208,0.95987 0.292236,3.21802 0.28445,4.8171 0.428992,-0.0223 5.159507,-0.73701 7.328403,1.82407 -0.02928,-0.0506 -0.102779,-0.0927 -0.143771,-0.17312 -0.500768,-0.57318 -1.139582,-1.03373 -1.723521,-1.58216 -0.470975,-0.42712 -1.488241,-1.44167 -2.719516,-2.65302 -1.176928,-1.15787 -2.547826,-2.49325 -3.716159,-3.55922 z"
       id="path4753-0-5"
       inkscape:connector-curvature="0"
       sodipodi:nodetypes="ccccccsc" />
    <g
       style="stroke-width:4.08449793"
       inkscape:transform-center-y="-9.4924686"
       inkscape:transform-center-x="5.4653607"
       inkscape:label="Capa 1"
       id="layer1-4-9"
       transform="matrix(0.53602412,0,0,0.5372689,-234.93365,-13.7853)">
      <g
         style="stroke-width:4.08449793"
         id="layer1-3-65-0"
         inkscape:label="Capa 1"
         transform="translate(0.41988239,0.03484499)" />
    </g>
    <g
       style="stroke-width:4.08449793"
       inkscape:transform-center-y="-9.4924686"
       inkscape:transform-center-x="5.4653607"
       inkscape:label="Capa 1"
       id="layer1-4-2"
       transform="matrix(0.53602412,0,0,0.5372689,-234.93365,-13.7603)">
      <g
         style="stroke-width:4.08449793"
         id="layer1-3-65-2"
         inkscape:label="Capa 1"
         transform="translate(0.41988239,0.03484499)" />
    </g>
    <path
       id="path1844"
       d="m 8.3067469,277.35897 1.091364,0.87508 -1.027175,2.01933 c -0.513571,0.93111 0.368719,1.83818 0.930857,2.15393 0.553397,0.31084 1.4123331,0.34781 2.2147981,0.3366 l 1.444423,-2.42323 1.091357,0.60583 -1.89382,-3.60115 -3.8518041,0.0337 z m 0.160473,4.94314 2.3431881,4.44255 c 0.470774,0.61699 1.358847,0.76287 2.279003,0.74043 h 2.471575 v -4.20695 l -4.686377,-0.0337 c -0.727539,0.045 -1.6798241,-0.11228 -2.4073891,-0.94236 z m 14.7421701,-8.18707 -1.274865,0.55532 -1.223052,-1.90088 c -0.54457,-0.91238 -1.745428,-0.56029 -2.287041,-0.20883 -0.533171,0.34602 -0.981112,1.09906 -1.360595,1.82474 l 1.364963,2.47123 -1.04541,0.68586 3.987281,0.046 1.838719,-3.47356 z m -4.290694,-2.25239 -4.92226,-0.0509 c -0.754086,0.12348 -1.308934,0.84973 -1.73591,1.68657 l -1.198234,2.21836 3.585463,2.03957 2.300687,-4.18999 c 0.314479,-0.6748 0.909998,-1.45336 1.970254,-1.70389 z m 0.214109,17.14196 0.1447,-1.41352 2.213055,-0.17605 c 1.041598,-0.0464 1.323668,-1.29499 1.286695,-1.95156 -0.03639,-0.64631 -0.461036,-1.41344 -0.895558,-2.10587 l -2.767904,0.0267 -0.07771,-1.27085 -1.972345,3.55646 2.069039,3.3344 z m 3.99985,-2.75912 2.429497,-4.3934 c 0.260424,-0.7367 -0.08965,-1.58685 -0.595823,-2.37577 l -1.309739,-2.15099 -3.476537,2.22933 2.455601,4.09635 c 0.422667,0.6094 0.797484,1.52134 0.497001,2.59448 z"
       inkscape:connector-curvature="0"
       style="fill:#000000;fill-opacity:1;stroke-width:0.22277589;opacity:0.25" />
    <path
       style="fill:#516e17;fill-opacity:1;stroke-width:0.22277589"
       inkscape:connector-curvature="0"
       d="m 8.3067469,276.8298 1.091364,0.87508 -1.027175,2.01933 c -0.513571,0.93111 0.368719,1.83818 0.930857,2.15393 0.553397,0.31084 1.4123331,0.34781 2.2147981,0.3366 l 1.444423,-2.42323 1.091357,0.60583 -1.89382,-3.60115 -3.8518041,0.0337 z m 0.160473,4.94314 2.3431881,4.44255 c 0.470774,0.61699 1.358847,0.76287 2.279003,0.74043 h 2.471575 v -4.20695 l -4.686377,-0.0337 c -0.727539,0.045 -1.6798241,-0.11228 -2.4073891,-0.94236 z m 14.7421701,-8.18707 -1.274865,0.55532 -1.223052,-1.90088 c -0.54457,-0.91238 -1.745428,-0.56029 -2.287041,-0.20883 -0.533171,0.34602 -0.981112,1.09906 -1.360595,1.82474 l 1.364963,2.47123 -1.04541,0.68586 3.987281,0.046 1.838719,-3.47356 z m -4.290694,-2.25239 -4.92226,-0.0509 c -0.754086,0.12348 -1.308934,0.84973 -1.73591,1.68657 l -1.198234,2.21836 3.585463,2.03957 2.300687,-4.18999 c 0.314479,-0.6748 0.909998,-1.45336 1.970254,-1.70389 z m 0.214109,17.14196 0.1447,-1.41352 2.213055,-0.17605 c 1.041598,-0.0464 1.323668,-1.29499 1.286695,-1.95156 -0.03639,-0.64631 -0.461036,-1.41344 -0.895558,-2.10587 l -2.767904,0.0267 -0.07771,-1.27085 -1.972345,3.55646 2.069039,3.3344 z m 3.99985,-2.75912 2.429497,-4.3934 c 0.260424,-0.7367 -0.08965,-1.58685 -0.595823,-2.37577 l -1.309739,-2.15099 -3.476537,2.22933 2.455601,4.09635 c 0.422667,0.6094 0.797484,1.52134 0.497001,2.59448 z"
       id="path1146" />
  </g>
</svg>
