<?xml version="1.0" encoding="UTF-8" standalone="no"?>
<!-- Created with Inkscape (http://www.inkscape.org/) -->

<svg
   xmlns:osb="http://www.openswatchbook.org/uri/2009/osb"
   xmlns:dc="http://purl.org/dc/elements/1.1/"
   xmlns:cc="http://creativecommons.org/ns#"
   xmlns:rdf="http://www.w3.org/1999/02/22-rdf-syntax-ns#"
   xmlns:svg="http://www.w3.org/2000/svg"
   xmlns="http://www.w3.org/2000/svg"
   xmlns:xlink="http://www.w3.org/1999/xlink"
   xmlns:sodipodi="http://sodipodi.sourceforge.net/DTD/sodipodi-0.dtd"
   xmlns:inkscape="http://www.inkscape.org/namespaces/inkscape"
   width="128"
   height="128"
   viewBox="0 0 33.866666 33.866668"
   version="1.1"
   id="svg1038"
   inkscape:version="0.92.2 5c3e80d, 2017-08-06"
   sodipodi:docname="x-office-calendar.svg">
  <defs
     id="defs1032">
    <linearGradient
       inkscape:collect="always"
       id="linearGradient1307">
      <stop
         style="stop-color:#fcfbf5;stop-opacity:1"
         offset="0"
         id="stop1303" />
      <stop
         style="stop-color:#dedccc;stop-opacity:1"
         offset="1"
         id="stop1305" />
    </linearGradient>
    <linearGradient
       osb:paint="solid"
       id="linearGradient6987">
      <stop
         id="stop6985"
         offset="0"
         style="stop-color:#77d2fb;stop-opacity:1;" />
    </linearGradient>
    <linearGradient
       inkscape:collect="always"
       xlink:href="#linearGradient1307"
       id="linearGradient1309"
       x1="20.522125"
       y1="270.97537"
       x2="23.390802"
       y2="269.0394"
       gradientUnits="userSpaceOnUse"
       gradientTransform="translate(-0.16704345,-0.08352173)" />
  </defs>
  <sodipodi:namedview
     id="base"
     pagecolor="#ffffff"
     bordercolor="#666666"
     borderopacity="1.0"
     inkscape:pageopacity="0.0"
     inkscape:pageshadow="2"
     inkscape:zoom="1.4"
     inkscape:cx="-66.42989"
     inkscape:cy="87.083413"
     inkscape:document-units="mm"
     inkscape:current-layer="layer1"
     showgrid="false"
     inkscape:window-width="1600"
     inkscape:window-height="814"
     inkscape:window-x="0"
     inkscape:window-y="0"
     inkscape:window-maximized="1"
     units="px" />
  <metadata
     id="metadata1035">
    <rdf:RDF>
      <cc:Work
         rdf:about="">
        <dc:format>image/svg+xml</dc:format>
        <dc:type
           rdf:resource="http://purl.org/dc/dcmitype/StillImage" />
        <dc:title />
      </cc:Work>
    </rdf:RDF>
  </metadata>
  <g
     inkscape:label="Layer 1"
     inkscape:groupmode="layer"
     id="layer1"
     transform="translate(0,-263.13332)">
    <path
       style="opacity:0.25;fill:#000000;fill-opacity:1;stroke:none;stroke-width:1.87499988;stroke-miterlimit:4;stroke-dasharray:none;stroke-opacity:1"
       d="M 4.5713723,264.09818 V 296.7104 H 29.295294 v -18.3 c -0.04716,-0.8313 -0.101653,-1.57532 -0.312496,-2.32966 -0.21448,-0.76736 -0.552469,-1.49394 -0.956412,-2.18925 -0.516871,-0.8897 -1.39035,-1.46334 -2.166671,-2.19248 -0.47098,-0.42711 -1.488209,-1.44169 -2.719481,-2.65304 -1.221196,-1.20143 -2.653456,-2.59692 -3.849171,-3.68107 -0.35316,-0.3187 -0.866164,-0.64943 -1.342771,-0.84044 -0.370088,-0.14831 -0.80547,-0.24063 -1.22583,-0.30267 -0.433449,-0.064 -0.850926,-0.0958 -1.164384,-0.12361 z"
       id="path5023"
       inkscape:connector-curvature="0"
       sodipodi:nodetypes="ccccascscsscc" />
    <path
       sodipodi:nodetypes="ccccascscsscc"
       inkscape:connector-curvature="0"
       id="path4623-8"
       d="m 4.5713723,263.5729 v 32.61222 H 29.295294 v -18.3 c -0.04716,-0.83129 -0.101653,-1.57532 -0.312496,-2.32966 -0.21448,-0.76736 -0.552469,-1.49394 -0.956412,-2.18925 -0.516871,-0.88969 -1.39035,-1.46334 -2.166671,-2.19247 -0.47098,-0.42712 -1.488209,-1.4417 -2.719481,-2.65305 -1.221196,-1.20142 -2.653456,-2.59692 -3.849171,-3.68107 -0.35316,-0.3187 -0.866164,-0.64944 -1.342771,-0.84044 -0.370088,-0.14831 -0.80547,-0.24063 -1.22583,-0.30267 -0.433449,-0.064 -0.850926,-0.0958 -1.164384,-0.12361 z"
       style="opacity:1;fill:#ece9d8;fill-opacity:1;stroke:#808080;stroke-width:0.30000001;stroke-miterlimit:4;stroke-dasharray:none;stroke-opacity:1" />
    <g
       id="g2952"
       style="stroke:#807e75;stroke-width:0.80109516;stroke-opacity:1;stroke-miterlimit:4;stroke-dasharray:none"
       transform="matrix(0.24965823,0,0,0.24965823,53.546932,242.90735)">
      <path
         inkscape:connector-curvature="0"
         id="path2919"
         d="m -196.25935,136.02022 h 99.154905"
         style="stroke:#807e75;stroke-width:0.80109516;stroke-linecap:butt;stroke-linejoin:miter;stroke-miterlimit:4;stroke-dasharray:none;stroke-opacity:1" />
      <path
         style="stroke:#807e75;stroke-width:0.80109516;stroke-linecap:butt;stroke-linejoin:miter;stroke-miterlimit:4;stroke-dasharray:none;stroke-opacity:1"
         d="m -196.25935,148.19113 h 99.154905"
         id="path2921"
         inkscape:connector-curvature="0" />
      <path
         inkscape:connector-curvature="0"
         id="path2923"
         d="m -196.25935,160.36204 h 99.154905"
         style="stroke:#807e75;stroke-width:0.80109516;stroke-linecap:butt;stroke-linejoin:miter;stroke-miterlimit:4;stroke-dasharray:none;stroke-opacity:1" />
      <path
         style="stroke:#807e75;stroke-width:0.80109516;stroke-linecap:butt;stroke-linejoin:miter;stroke-miterlimit:4;stroke-dasharray:none;stroke-opacity:1"
         d="m -196.25935,172.53295 h 99.154905"
         id="path2925"
         inkscape:connector-curvature="0" />
      <path
         inkscape:connector-curvature="0"
         id="path2927"
         d="m -196.25935,184.70386 h 99.154905"
         style="stroke:#807e75;stroke-width:0.80109516;stroke-linecap:butt;stroke-linejoin:miter;stroke-miterlimit:4;stroke-dasharray:none;stroke-opacity:1" />
      <path
         style="stroke:#807e75;stroke-width:0.80109516;stroke-linecap:butt;stroke-linejoin:miter;stroke-miterlimit:4;stroke-dasharray:none;stroke-opacity:1"
         d="M -183.91256,184.73774 V 123.94745"
         id="path2929"
         inkscape:connector-curvature="0" />
      <path
         inkscape:connector-curvature="0"
         id="path2931"
         d="M -169.62497,184.73774 V 123.94745"
         style="stroke:#807e75;stroke-width:0.80109516;stroke-linecap:butt;stroke-linejoin:miter;stroke-miterlimit:4;stroke-dasharray:none;stroke-opacity:1" />
      <path
         style="stroke:#807e75;stroke-width:0.80109516;stroke-linecap:butt;stroke-linejoin:miter;stroke-miterlimit:4;stroke-dasharray:none;stroke-opacity:1"
         d="M -155.33738,184.73774 V 123.94745"
         id="path2933"
         inkscape:connector-curvature="0" />
      <path
         inkscape:connector-curvature="0"
         id="path2935"
         d="M -140.52062,184.73774 V 123.94745"
         style="stroke:#807e75;stroke-width:0.80109516;stroke-linecap:butt;stroke-linejoin:miter;stroke-miterlimit:4;stroke-dasharray:none;stroke-opacity:1" />
      <path
         style="stroke:#807e75;stroke-width:0.80109516;stroke-linecap:butt;stroke-linejoin:miter;stroke-miterlimit:4;stroke-dasharray:none;stroke-opacity:1"
         d="M -126.23303,184.73774 V 123.94745"
         id="path2937"
         inkscape:connector-curvature="0" />
      <path
         inkscape:connector-curvature="0"
         id="path2939"
         d="M -111.41627,184.73774 V 123.94745"
         style="stroke:#807e75;stroke-width:0.80109516;stroke-linecap:butt;stroke-linejoin:miter;stroke-miterlimit:4;stroke-dasharray:none;stroke-opacity:1" />
    </g>
    <path
       style="opacity:1;fill:#a74441;fill-opacity:1;stroke:none;stroke-width:0.07875;stroke-miterlimit:4;stroke-dasharray:none;stroke-opacity:1"
       d="m 4.7254079,263.70144 v 10.25683 H 28.192682 c -0.114624,-0.23154 -0.256989,-0.45986 -0.387753,-0.68441 -0.506449,-0.86963 -1.459696,-1.43026 -2.220364,-2.14297 -0.461484,-0.41747 -1.458258,-1.40918 -2.664703,-2.59322 -1.196572,-1.17434 -2.583199,-2.55097 -3.754803,-3.61068 -0.346039,-0.31151 -0.865382,-0.62218 -1.332378,-0.80888 -0.362626,-0.14497 -0.789239,-0.23519 -1.201121,-0.29583 -0.42471,-0.0625 -0.833774,-0.0937 -1.140909,-0.12084 z"
       id="path2906"
       inkscape:connector-curvature="0"
       sodipodi:nodetypes="ccccccccccc" />
    <path
       sodipodi:nodetypes="ccccssssc"
       inkscape:connector-curvature="0"
       id="path1355"
       d="m 19.751144,265.48426 c 0.01633,0.0263 0.561139,0.90462 0.727791,1.39886 0.451585,1.01234 0.25858,3.97236 0.250369,5.65885 0.02772,-0.19401 4.690513,-1.39583 7.111042,0.80464 -0.01547,-0.0273 -0.04888,-0.0804 -0.12512,-0.18628 -0.07235,-0.10046 -0.153476,-0.24136 -0.334059,-0.44224 -0.536634,-0.59696 -0.469051,-0.47711 -0.726064,-0.69035 -1.061841,-0.88101 -1.686421,-1.51213 -2.984917,-2.7897 -1.241182,-1.22116 -2.686924,-2.62954 -3.919042,-3.75378 z"
       style="opacity:0.24800002;fill:#000000;fill-opacity:1;stroke:none;stroke-width:0.30000001;stroke-miterlimit:4;stroke-dasharray:none;stroke-opacity:1" />
    <g
       style="stroke-width:4.08449793"
       inkscape:transform-center-y="-9.4924686"
       inkscape:transform-center-x="5.4653607"
       inkscape:label="Capa 1"
       id="layer1-4"
       transform="matrix(0.53602412,0,0,0.5372689,-234.93365,-13.785303)">
      <g
         style="stroke-width:4.08449793"
         id="layer1-3-65"
         inkscape:label="Capa 1"
         transform="translate(0.41988239,0.03484499)" />
    </g>
    <path
       style="opacity:1;fill:url(#linearGradient1309);fill-opacity:1;stroke:none;stroke-width:0.07875001;stroke-miterlimit:4;stroke-dasharray:none;stroke-opacity:1"
       d="m 19.368883,264.71131 c 0.01566,0.0251 0.538441,0.86291 0.698353,1.33435 0.43332,0.96567 0.295725,3.23744 0.287846,4.84618 0.434114,-0.0224 5.209601,-0.74042 7.404392,1.83611 -0.02963,-0.051 -0.09251,-0.0942 -0.133984,-0.1752 -0.506747,-0.57664 -1.153187,-1.03996 -1.744098,-1.59171 -0.476597,-0.42969 -1.50601,-1.45037 -2.751982,-2.66902 -1.190981,-1.16487 -2.578246,-2.50831 -3.760527,-3.58071 z"
       id="path4753"
       inkscape:connector-curvature="0"
       sodipodi:nodetypes="ccccccsc" />
  </g>
</svg>
