<?xml version="1.0" encoding="UTF-8" standalone="no"?>
<svg
   xmlns:osb="http://www.openswatchbook.org/uri/2009/osb"
   xmlns:dc="http://purl.org/dc/elements/1.1/"
   xmlns:cc="http://creativecommons.org/ns#"
   xmlns:rdf="http://www.w3.org/1999/02/22-rdf-syntax-ns#"
   xmlns:svg="http://www.w3.org/2000/svg"
   xmlns="http://www.w3.org/2000/svg"
   xmlns:sodipodi="http://sodipodi.sourceforge.net/DTD/sodipodi-0.dtd"
   xmlns:inkscape="http://www.inkscape.org/namespaces/inkscape"
   width="16"
   height="16"
   version="1.1"
   viewBox="0 0 16 16"
   id="svg9"
   sodipodi:docname="user-trash.svg"
   inkscape:version="0.92.4 (5da689c313, 2019-01-14)">
  <metadata
     id="metadata13">
    <rdf:RDF>
      <cc:Work
         rdf:about="">
        <dc:format>image/svg+xml</dc:format>
        <dc:type
           rdf:resource="http://purl.org/dc/dcmitype/StillImage" />
        <dc:title />
      </cc:Work>
    </rdf:RDF>
  </metadata>
  <sodipodi:namedview
     pagecolor="#ffffff"
     bordercolor="#666666"
     borderopacity="1"
     objecttolerance="10"
     gridtolerance="10"
     guidetolerance="10"
     inkscape:pageopacity="0"
     inkscape:pageshadow="2"
     inkscape:window-width="1600"
     inkscape:window-height="838"
     id="namedview11"
     showgrid="false"
     inkscape:zoom="4"
     inkscape:cx="42.613633"
     inkscape:cy="61.964993"
     inkscape:window-x="-8"
     inkscape:window-y="-8"
     inkscape:window-maximized="1"
     inkscape:current-layer="svg9" />
  <defs
     id="defs3">
    <style
       id="current-color-scheme"
       type="text/css">.ColorScheme-Text { color:#565656; } .ColorScheme-Highlight { color:#5294e2; }</style>
    <linearGradient
       id="linearGradient6088"
       osb:paint="solid">
      <stop
         style="stop-color:#51b3e3;stop-opacity:1;"
         offset="0"
         id="stop6086" />
    </linearGradient>
    <linearGradient
       id="linearGradient6987"
       osb:paint="solid">
      <stop
         style="stop-color:#77d2fb;stop-opacity:1;"
         offset="0"
         id="stop6985" />
    </linearGradient>
    <style
       type="text/css"
       id="current-color-scheme-3">.ColorScheme-Text { color:#565656; }</style>
    <style
       id="current-color-scheme-9"
       type="text/css">.ColorScheme-Text { color:#565656; } .ColorScheme-Highlight { color:#5294e2; }</style>
    <style
       type="text/css"
       id="current-color-scheme-2">.ColorScheme-Text { color:#565656; }</style>
    <style
       id="current-color-scheme-9-9"
       type="text/css">.ColorScheme-Text { color:#565656; } .ColorScheme-Highlight { color:#5294e2; }</style>
  </defs>
  <g
     id="g1000">
    <g
       transform="translate(-0.62158095,-0.46868448)"
       id="g922">
      <path
         inkscape:connector-curvature="0"
         id="path822-0-3-2"
         d="m 8.6235351,0.96871851 a 6.0215791,1.4487193 0 0 0 -6.0215822,1.44872719 6.0215791,1.4487193 0 0 0 0.00254,0.017683 c -0.00229,0.00559 -0.00432,0.010805 -0.00636,0.016043 L 4.0406654,13.695753 c -0.00712,0.04963 0.2907339,2.259898 3.8303314,2.26751 2.3354072,0.04888 5.0315202,-0.190321 5.3629842,-2.492168 0.158532,-0.775055 1.38093,-10.8400745 1.401008,-11.0054231 a 6.0215791,1.4487193 0 0 0 0.01004,-0.048255 6.0215791,1.4487193 0 0 0 -6.0215798,-1.44873232 z"
         style="opacity:0.75;fill:none;fill-opacity:1;stroke:#565656;stroke-width:0.98267716;stroke-miterlimit:4;stroke-dasharray:none;stroke-opacity:1" />
      <path
         transform="translate(-20.05418)"
         style="fill:none;stroke:#7f7f7f;stroke-width:1.00157475;stroke-linecap:round;stroke-linejoin:miter;stroke-miterlimit:4;stroke-dasharray:none;stroke-opacity:1"
         d="m 22.723296,2.6009257 c 0.446561,0.3545806 0.895912,0.7113764 1.982103,0.9482303 1.08619,0.236854 2.710439,0.5076577 4.198072,0.5015491 1.487633,-0.00611 2.846287,-0.2889843 3.744686,-0.5300836 0.898399,-0.2410993 1.439194,-0.5920926 1.980069,-0.9431378"
         id="path906"
         inkscape:connector-curvature="0"
         sodipodi:nodetypes="csssc" />
    </g>
    <path
       sodipodi:nodetypes="cssccccsccccssscc"
       inkscape:connector-curvature="0"
       id="path986"
       d="M 7.7917581,4.018988 C 6.5253632,4.0189878 5.0357482,3.787931 3.9458223,3.5060216 3.3212559,3.3444775 2.7794971,3.2821083 2.580611,3.0170716 2.3178164,2.66687 2.7822604,4.1820499 2.7822652,4.3793371 c 6.095e-4,0.00464 0.00135,0.00927 0.00222,0.013906 -0.00198,0.00439 -0.00371,0.00849 -0.00557,0.012616 l 1.120203,8.8592549 c -0.00344,0.02166 0.1124828,0.568339 0.744086,1.051646 0.5064779,0.387561 1.3445578,0.734372 2.7186052,0.737036 2.0371498,0.03844 4.4497076,-0.171764 4.7388406,-1.981926 0.138286,-0.609499 1.160374,-8.5245782 1.17789,-8.6546075 0.0039,-0.012638 0.0068,-0.025289 0.0088,-0.037948 8e-6,-0.1936233 0.153391,-1.090195 0.104281,-1.3592383 -0.01786,-0.097821 -0.0403,0.022081 -0.158042,0.066458 -0.352314,0.1327822 -0.776964,0.2606015 -1.394502,0.4699991 -1.156209,0.392053 -2.7421647,0.4569035 -3.9147808,0.4569036 z"
       style="opacity:0.25;fill:#575757;fill-opacity:1;stroke:none;stroke-width:0.81388187;stroke-miterlimit:4;stroke-dasharray:none;stroke-opacity:1" />
  </g>
</svg>
