<?xml version="1.0" encoding="UTF-8" standalone="no"?>
<!-- Created with Inkscape (http://www.inkscape.org/) -->

<svg
   xmlns:osb="http://www.openswatchbook.org/uri/2009/osb"
   xmlns:dc="http://purl.org/dc/elements/1.1/"
   xmlns:cc="http://creativecommons.org/ns#"
   xmlns:rdf="http://www.w3.org/1999/02/22-rdf-syntax-ns#"
   xmlns:svg="http://www.w3.org/2000/svg"
   xmlns="http://www.w3.org/2000/svg"
   xmlns:xlink="http://www.w3.org/1999/xlink"
   xmlns:sodipodi="http://sodipodi.sourceforge.net/DTD/sodipodi-0.dtd"
   xmlns:inkscape="http://www.inkscape.org/namespaces/inkscape"
   width="128"
   height="128"
   viewBox="0 0 33.866666 33.866668"
   version="1.1"
   id="svg1038"
   inkscape:version="0.92.2 5c3e80d, 2017-08-06"
   sodipodi:docname="application-octet-stream.svg">
  <defs
     id="defs1032">
    <linearGradient
       osb:paint="solid"
       id="linearGradient6987">
      <stop
         id="stop6985"
         offset="0"
         style="stop-color:#77d2fb;stop-opacity:1;" />
    </linearGradient>
    <linearGradient
       id="linearGradient1830">
      <stop
         offset="0"
         style="stop-color:#d9d9d9;stop-opacity:1"
         id="stop1826" />
      <stop
         offset="1"
         style="stop-color:#ffffff;stop-opacity:1;"
         id="stop1828" />
    </linearGradient>
    <linearGradient
       inkscape:collect="always"
       xlink:href="#linearGradient1830"
       id="linearGradient1068"
       gradientUnits="userSpaceOnUse"
       gradientTransform="matrix(1.0010487,0,0,1.0010383,36.063628,-0.26586565)"
       x1="29.203474"
       y1="263.52237"
       x2="4.5843229"
       y2="296.16849" />
  </defs>
  <sodipodi:namedview
     id="base"
     pagecolor="#ffffff"
     bordercolor="#666666"
     borderopacity="1.0"
     inkscape:pageopacity="0.0"
     inkscape:pageshadow="2"
     inkscape:zoom="2.8"
     inkscape:cx="160.34967"
     inkscape:cy="51.747734"
     inkscape:document-units="mm"
     inkscape:current-layer="layer1"
     showgrid="false"
     inkscape:window-width="1600"
     inkscape:window-height="814"
     inkscape:window-x="0"
     inkscape:window-y="0"
     inkscape:window-maximized="1"
     units="px" />
  <metadata
     id="metadata1035">
    <rdf:RDF>
      <cc:Work
         rdf:about="">
        <dc:format>image/svg+xml</dc:format>
        <dc:type
           rdf:resource="http://purl.org/dc/dcmitype/StillImage" />
        <dc:title />
      </cc:Work>
    </rdf:RDF>
  </metadata>
  <g
     inkscape:label="Layer 1"
     inkscape:groupmode="layer"
     id="layer1"
     transform="translate(0,-263.13332)">
    <g
       id="g1107"
       transform="translate(-36.081386,3.3348235e-6)">
      <path
         sodipodi:nodetypes="ccccascscsscc"
         inkscape:connector-curvature="0"
         id="path5023-3"
         d="M 40.652758,264.12318 V 296.7354 H 65.37668 v -18.3 c -0.04716,-0.8313 -0.101653,-1.57532 -0.312496,-2.32966 -0.21448,-0.76736 -0.552469,-1.49394 -0.956412,-2.18925 -0.516871,-0.8897 -1.39035,-1.46334 -2.166671,-2.19248 -0.47098,-0.42711 -1.488209,-1.44169 -2.719481,-2.65304 -1.221196,-1.20143 -2.653456,-2.59692 -3.849171,-3.68107 -0.35316,-0.3187 -0.866164,-0.64943 -1.342771,-0.84044 -0.370088,-0.14831 -0.80547,-0.24063 -1.22583,-0.30267 -0.433449,-0.064 -0.850926,-0.0958 -1.164384,-0.12361 z"
         style="opacity:0.25;fill:#000000;fill-opacity:1;stroke:none;stroke-width:1.87499988;stroke-miterlimit:4;stroke-dasharray:none;stroke-opacity:1" />
      <path
         style="opacity:1;fill:url(#linearGradient1068);fill-opacity:1;stroke:#808080;stroke-width:0.40000001;stroke-miterlimit:4;stroke-dasharray:none;stroke-opacity:1"
         d="m 40.652758,263.5979 v 32.61222 H 65.37668 v -18.3 c -0.04716,-0.83129 -0.101653,-1.57532 -0.312496,-2.32966 -0.21448,-0.76736 -0.552469,-1.49394 -0.956412,-2.18925 -0.516871,-0.88969 -1.39035,-1.46334 -2.166671,-2.19247 -0.47098,-0.42712 -1.488209,-1.4417 -2.719481,-2.65305 -1.221196,-1.20142 -2.653456,-2.59692 -3.849171,-3.68107 -0.35316,-0.3187 -0.866164,-0.64944 -1.342771,-0.84044 -0.370088,-0.14831 -0.80547,-0.24063 -1.22583,-0.30267 -0.433449,-0.064 -0.850926,-0.0958 -1.164384,-0.12361 z"
         id="path4623-8-9"
         inkscape:connector-curvature="0"
         sodipodi:nodetypes="ccccascscsscc" />
      <path
         style="opacity:0.24800002;fill:#000000;fill-opacity:1;stroke:none;stroke-width:0.30000001;stroke-miterlimit:4;stroke-dasharray:none;stroke-opacity:1"
         d="m 55.83253,265.50926 c 0.01633,0.0263 0.561139,0.90462 0.727791,1.39886 0.451585,1.01234 0.324726,3.80734 0.316515,5.49383 0,0 4.562213,-1.11612 6.998387,0.97483 -0.03016,-0.0532 -0.219403,-0.33222 -0.607351,-0.72877 -0.528108,-0.60452 -0.07383,0.0106 -0.648313,-0.58692 -0.496688,-0.45047 -1.569491,-1.52048 -2.867987,-2.79805 -1.241182,-1.22116 -2.686924,-2.62954 -3.919042,-3.75378 z"
         id="path1355"
         inkscape:connector-curvature="0"
         sodipodi:nodetypes="ccccccsc" />
      <path
         sodipodi:nodetypes="ccccccsc"
         inkscape:connector-curvature="0"
         id="path4753-0-0"
         d="m 55.505426,264.98645 c 0.01548,0.0249 0.53209,0.85773 0.690114,1.32635 0.428208,0.95987 0.292236,3.21802 0.28445,4.8171 0.428992,-0.0223 5.148138,-0.73598 7.317034,1.8251 -0.02928,-0.0506 -0.09141,-0.0937 -0.132402,-0.17415 -0.500768,-0.57318 -1.139582,-1.03373 -1.723521,-1.58216 -0.470975,-0.42712 -1.488241,-1.44167 -2.719516,-2.65302 -1.176928,-1.15787 -2.547826,-2.49325 -3.716159,-3.55922 z"
         style="opacity:1;fill:#ffffff;fill-opacity:1;stroke:#808080;stroke-width:0.30000001;stroke-miterlimit:4;stroke-dasharray:none;stroke-opacity:1" />
      <g
         transform="matrix(0.53602412,0,0,0.5372689,-198.85226,-13.760306)"
         id="layer1-4"
         inkscape:label="Capa 1"
         inkscape:transform-center-x="5.4653607"
         inkscape:transform-center-y="-9.4924686"
         style="stroke-width:4.08449793">
        <g
           transform="translate(0.41988239,0.03484499)"
           inkscape:label="Capa 1"
           id="layer1-3-65"
           style="stroke-width:4.08449793" />
      </g>
      <g
         transform="translate(36.282896,-0.689525)"
         aria-label="1 1 0 1 1 1 0 0 1 0 1 1 0 0 1"
         style="font-style:normal;font-weight:normal;font-size:4.08497334px;line-height:1.25;font-family:sans-serif;letter-spacing:0px;word-spacing:0px;fill:#000000;fill-opacity:1;stroke:none;stroke-width:0.26458332"
         id="g2231">
        <path
           inkscape:connector-curvature="0"
           d="m 7.5488249,268.94897 h 0.6582232 v -2.27187 l -0.7160671,0.14362 v -0.36701 l 0.7120779,-0.14362 h 0.4029124 v 2.63888 h 0.6582233 v 0.33909 H 7.5488249 Z"
           style="stroke-width:0.26458332"
           id="path2201" />
        <path
           inkscape:connector-curvature="0"
           d="m 7.5488249,274.05519 h 0.6582232 v -2.27187 l -0.7160671,0.14361 v -0.36701 l 0.7120779,-0.14361 h 0.4029124 v 2.63888 h 0.6582233 v 0.33908 H 7.5488249 Z"
           style="stroke-width:0.26458332"
           id="path2203" />
        <path
           inkscape:connector-curvature="0"
           d="m 12.242156,271.68159 q -0.31116,0 -0.468735,0.30718 -0.15558,0.30517 -0.15558,0.91951 0,0.61235 0.15558,0.91952 0.157575,0.30518 0.468735,0.30518 0.313155,0 0.468735,-0.30518 0.157575,-0.30717 0.157575,-0.91952 0,-0.61434 -0.157575,-0.91951 -0.15558,-0.30718 -0.468735,-0.30718 z m 0,-0.31913 q 0.500649,0 0.763938,0.39692 0.265284,0.39494 0.265284,1.1489 0,0.75197 -0.265284,1.1489 -0.263289,0.39494 -0.763938,0.39494 -0.500648,0 -0.765932,-0.39494 -0.26329,-0.39693 -0.26329,-1.1489 0,-0.75396 0.26329,-1.1489 0.265284,-0.39692 0.765932,-0.39692 z"
           style="stroke-width:0.26458332"
           id="path2205" />
        <path
           inkscape:connector-curvature="0"
           d="m 7.5488249,279.1614 h 0.6582232 v -2.27186 l -0.7160671,0.14361 v -0.36701 l 0.7120779,-0.14361 h 0.4029124 v 2.63887 h 0.6582233 v 0.33909 H 7.5488249 Z"
           style="stroke-width:0.26458332"
           id="path2207" />
        <path
           inkscape:connector-curvature="0"
           d="m 11.450294,279.1614 h 0.658223 v -2.27186 l -0.716067,0.14361 v -0.36701 l 0.712078,-0.14361 h 0.402912 v 2.63887 h 0.658223 v 0.33909 h -1.715369 z"
           style="stroke-width:0.26458332"
           id="path2209" />
        <path
           inkscape:connector-curvature="0"
           d="m 7.5488249,284.26762 h 0.6582232 v -2.27187 l -0.7160671,0.14362 v -0.36701 l 0.7120779,-0.14362 h 0.4029124 v 2.63888 h 0.6582233 v 0.33909 H 7.5488249 Z"
           style="stroke-width:0.26458332"
           id="path2211" />
        <path
           inkscape:connector-curvature="0"
           d="m 12.242156,281.89403 q -0.31116,0 -0.468735,0.30717 -0.15558,0.30517 -0.15558,0.91952 0,0.61234 0.15558,0.91951 0.157575,0.30518 0.468735,0.30518 0.313155,0 0.468735,-0.30518 0.157575,-0.30717 0.157575,-0.91951 0,-0.61435 -0.157575,-0.91952 -0.15558,-0.30717 -0.468735,-0.30717 z m 0,-0.31914 q 0.500649,0 0.763938,0.39693 0.265284,0.39493 0.265284,1.1489 0,0.75197 -0.265284,1.1489 -0.263289,0.39493 -0.763938,0.39493 -0.500648,0 -0.765932,-0.39493 -0.26329,-0.39693 -0.26329,-1.1489 0,-0.75397 0.26329,-1.1489 0.265284,-0.39693 0.765932,-0.39693 z"
           style="stroke-width:0.26458332"
           id="path2213" />
        <path
           inkscape:connector-curvature="0"
           d="m 16.143625,281.89403 q -0.31116,0 -0.468735,0.30717 -0.15558,0.30517 -0.15558,0.91952 0,0.61234 0.15558,0.91951 0.157575,0.30518 0.468735,0.30518 0.313155,0 0.468735,-0.30518 0.157574,-0.30717 0.157574,-0.91951 0,-0.61435 -0.157574,-0.91952 -0.15558,-0.30717 -0.468735,-0.30717 z m 0,-0.31914 q 0.500648,0 0.763938,0.39693 0.265284,0.39493 0.265284,1.1489 0,0.75197 -0.265284,1.1489 -0.26329,0.39493 -0.763938,0.39493 -0.500649,0 -0.765933,-0.39493 -0.263289,-0.39693 -0.263289,-1.1489 0,-0.75397 0.263289,-1.1489 0.265284,-0.39693 0.765933,-0.39693 z"
           style="stroke-width:0.26458332"
           id="path2215" />
        <path
           inkscape:connector-curvature="0"
           d="m 7.5488249,289.37384 h 0.6582232 v -2.27187 l -0.7160671,0.14361 v -0.36701 l 0.7120779,-0.14361 h 0.4029124 v 2.63888 h 0.6582233 v 0.33908 H 7.5488249 Z"
           style="stroke-width:0.26458332"
           id="path2217" />
        <path
           inkscape:connector-curvature="0"
           d="m 12.242156,287.00024 q -0.31116,0 -0.468735,0.30718 -0.15558,0.30517 -0.15558,0.91951 0,0.61235 0.15558,0.91952 0.157575,0.30518 0.468735,0.30518 0.313155,0 0.468735,-0.30518 0.157575,-0.30717 0.157575,-0.91952 0,-0.61434 -0.157575,-0.91951 -0.15558,-0.30718 -0.468735,-0.30718 z m 0,-0.31913 q 0.500649,0 0.763938,0.39692 0.265284,0.39494 0.265284,1.1489 0,0.75197 -0.265284,1.1489 -0.263289,0.39494 -0.763938,0.39494 -0.500648,0 -0.765932,-0.39494 -0.26329,-0.39693 -0.26329,-1.1489 0,-0.75396 0.26329,-1.1489 0.265284,-0.39692 0.765932,-0.39692 z"
           style="stroke-width:0.26458332"
           id="path2219" />
        <path
           inkscape:connector-curvature="0"
           d="m 15.351762,289.37384 h 0.658224 v -2.27187 l -0.716067,0.14361 v -0.36701 l 0.712077,-0.14361 h 0.402913 v 2.63888 h 0.658223 v 0.33908 h -1.71537 z"
           style="stroke-width:0.26458332"
           id="path2221" />
        <path
           inkscape:connector-curvature="0"
           d="m 7.5488249,294.48005 h 0.6582232 v -2.27186 L 7.490981,292.3518 v -0.36701 l 0.7120779,-0.14361 h 0.4029124 v 2.63887 h 0.6582233 v 0.33909 H 7.5488249 Z"
           style="stroke-width:0.26458332"
           id="path2223" />
        <path
           inkscape:connector-curvature="0"
           d="m 12.242156,292.10646 q -0.31116,0 -0.468735,0.30717 -0.15558,0.30518 -0.15558,0.91952 0,0.61235 0.15558,0.91952 0.157575,0.30517 0.468735,0.30517 0.313155,0 0.468735,-0.30517 0.157575,-0.30717 0.157575,-0.91952 0,-0.61434 -0.157575,-0.91952 -0.15558,-0.30717 -0.468735,-0.30717 z m 0,-0.31914 q 0.500649,0 0.763938,0.39693 0.265284,0.39494 0.265284,1.1489 0,0.75197 -0.265284,1.1489 -0.263289,0.39493 -0.763938,0.39493 -0.500648,0 -0.765932,-0.39493 -0.26329,-0.39693 -0.26329,-1.1489 0,-0.75396 0.26329,-1.1489 0.265284,-0.39693 0.765932,-0.39693 z"
           style="stroke-width:0.26458332"
           id="path2225" />
        <path
           inkscape:connector-curvature="0"
           d="m 16.143625,292.10646 q -0.31116,0 -0.468735,0.30717 -0.15558,0.30518 -0.15558,0.91952 0,0.61235 0.15558,0.91952 0.157575,0.30517 0.468735,0.30517 0.313155,0 0.468735,-0.30517 0.157574,-0.30717 0.157574,-0.91952 0,-0.61434 -0.157574,-0.91952 -0.15558,-0.30717 -0.468735,-0.30717 z m 0,-0.31914 q 0.500648,0 0.763938,0.39693 0.265284,0.39494 0.265284,1.1489 0,0.75197 -0.265284,1.1489 -0.26329,0.39493 -0.763938,0.39493 -0.500649,0 -0.765933,-0.39493 -0.263289,-0.39693 -0.263289,-1.1489 0,-0.75396 0.263289,-1.1489 0.265284,-0.39693 0.765933,-0.39693 z"
           style="stroke-width:0.26458332"
           id="path2227" />
        <path
           inkscape:connector-curvature="0"
           d="m 19.253231,294.48005 h 0.658223 v -2.27186 l -0.716067,0.14361 v -0.36701 l 0.712078,-0.14361 h 0.402912 v 2.63887 H 20.9686 v 0.33909 h -1.715369 z"
           style="stroke-width:0.26458332"
           id="path2229" />
      </g>
    </g>
  </g>
</svg>
