<?xml version="1.0" encoding="UTF-8" standalone="no"?>
<!-- Created with Inkscape (http://www.inkscape.org/) -->

<svg
   xmlns:osb="http://www.openswatchbook.org/uri/2009/osb"
   xmlns:dc="http://purl.org/dc/elements/1.1/"
   xmlns:cc="http://creativecommons.org/ns#"
   xmlns:rdf="http://www.w3.org/1999/02/22-rdf-syntax-ns#"
   xmlns:svg="http://www.w3.org/2000/svg"
   xmlns="http://www.w3.org/2000/svg"
   xmlns:sodipodi="http://sodipodi.sourceforge.net/DTD/sodipodi-0.dtd"
   xmlns:inkscape="http://www.inkscape.org/namespaces/inkscape"
   width="128"
   height="128"
   viewBox="0 0 33.866666 33.866668"
   version="1.1"
   id="svg1038"
   inkscape:version="0.92.2 5c3e80d, 2017-08-06"
   sodipodi:docname="x-office-calendar copy.svg">
  <defs
     id="defs1032">
    <linearGradient
       osb:paint="solid"
       id="linearGradient6987">
      <stop
         id="stop6985"
         offset="0"
         style="stop-color:#77d2fb;stop-opacity:1;" />
    </linearGradient>
  </defs>
  <sodipodi:namedview
     id="base"
     pagecolor="#ffffff"
     bordercolor="#666666"
     borderopacity="1.0"
     inkscape:pageopacity="0.0"
     inkscape:pageshadow="2"
     inkscape:zoom="3.959798"
     inkscape:cx="-1.7764253"
     inkscape:cy="74.531937"
     inkscape:document-units="mm"
     inkscape:current-layer="layer1"
     showgrid="false"
     inkscape:window-width="1600"
     inkscape:window-height="814"
     inkscape:window-x="0"
     inkscape:window-y="0"
     inkscape:window-maximized="1"
     units="px" />
  <metadata
     id="metadata1035">
    <rdf:RDF>
      <cc:Work
         rdf:about="">
        <dc:format>image/svg+xml</dc:format>
        <dc:type
           rdf:resource="http://purl.org/dc/dcmitype/StillImage" />
        <dc:title />
      </cc:Work>
    </rdf:RDF>
  </metadata>
  <g
     inkscape:label="Layer 1"
     inkscape:groupmode="layer"
     id="layer1"
     transform="translate(0,-263.13332)">
    <g
       id="g851">
      <path
         sodipodi:nodetypes="ccccascscsscc"
         inkscape:connector-curvature="0"
         id="path3124"
         d="M 4.4114421,263.92635 V 296.7354 H 29.430537 v -18.41045 c -0.04773,-0.83632 -0.102867,-1.58483 -0.316227,-2.34373 -0.217041,-0.77198 -0.559065,-1.50295 -0.96783,-2.20246 -0.523042,-0.89506 -1.406949,-1.47217 -2.192539,-2.20571 -0.476602,-0.42968 -1.505977,-1.45039 -2.751949,-2.66905 -1.235776,-1.20868 -2.685134,-2.6126 -3.895125,-3.70329 -0.357376,-0.32063 -0.876505,-0.65336 -1.358801,-0.84551 -0.374507,-0.14921 -0.815087,-0.24208 -1.240466,-0.3045 -0.438624,-0.0644 -0.861084,-0.0964 -1.178284,-0.12435 z"
         style="opacity:0.25;fill:#000000;fill-opacity:1;stroke-width:1" />
      <path
         style="opacity:1;fill:#f4f4fa;fill-opacity:1;stroke-width:0.3;stroke:#999999;stroke-miterlimit:4;stroke-dasharray:none"
         d="m 4.4114421,263.3979 v 32.80906 H 29.430537 V 277.7965 c -0.04773,-0.83631 -0.102867,-1.58482 -0.316227,-2.34372 -0.217041,-0.77198 -0.559065,-1.50296 -0.96783,-2.20247 -0.523042,-0.89506 -1.406949,-1.47217 -2.192539,-2.2057 -0.476602,-0.42969 -1.505977,-1.4504 -2.751949,-2.66905 -1.235776,-1.20868 -2.685134,-2.6126 -3.895125,-3.7033 -0.357376,-0.32062 -0.876505,-0.65335 -1.358801,-0.84551 -0.374507,-0.1492 -0.815087,-0.24207 -1.240466,-0.30449 -0.438624,-0.0644 -0.861084,-0.0964 -1.178284,-0.12436 z"
         id="path4623"
         inkscape:connector-curvature="0"
         sodipodi:nodetypes="ccccascscsscc" />
      <g
         transform="matrix(0.24965823,0,0,0.24965823,53.546932,242.90735)"
         style="stroke:#807e75;stroke-width:0.80109516;stroke-opacity:1;stroke-miterlimit:4;stroke-dasharray:none"
         id="g2952">
        <path
           style="stroke:#807e75;stroke-width:0.80109516;stroke-linecap:butt;stroke-linejoin:miter;stroke-miterlimit:4;stroke-dasharray:none;stroke-opacity:1"
           d="m -196.25935,136.02022 h 99.154905"
           id="path2919"
           inkscape:connector-curvature="0" />
        <path
           inkscape:connector-curvature="0"
           id="path2921"
           d="m -196.25935,148.19113 h 99.154905"
           style="stroke:#807e75;stroke-width:0.80109516;stroke-linecap:butt;stroke-linejoin:miter;stroke-miterlimit:4;stroke-dasharray:none;stroke-opacity:1" />
        <path
           style="stroke:#807e75;stroke-width:0.80109516;stroke-linecap:butt;stroke-linejoin:miter;stroke-miterlimit:4;stroke-dasharray:none;stroke-opacity:1"
           d="m -196.25935,160.36204 h 99.154905"
           id="path2923"
           inkscape:connector-curvature="0" />
        <path
           inkscape:connector-curvature="0"
           id="path2925"
           d="m -196.25935,172.53295 h 99.154905"
           style="stroke:#807e75;stroke-width:0.80109516;stroke-linecap:butt;stroke-linejoin:miter;stroke-miterlimit:4;stroke-dasharray:none;stroke-opacity:1" />
        <path
           style="stroke:#807e75;stroke-width:0.80109516;stroke-linecap:butt;stroke-linejoin:miter;stroke-miterlimit:4;stroke-dasharray:none;stroke-opacity:1"
           d="m -196.25935,184.70386 h 99.154905"
           id="path2927"
           inkscape:connector-curvature="0" />
        <path
           inkscape:connector-curvature="0"
           id="path2929"
           d="M -183.91256,184.73774 V 123.94745"
           style="stroke:#807e75;stroke-width:0.80109516;stroke-linecap:butt;stroke-linejoin:miter;stroke-miterlimit:4;stroke-dasharray:none;stroke-opacity:1" />
        <path
           style="stroke:#807e75;stroke-width:0.80109516;stroke-linecap:butt;stroke-linejoin:miter;stroke-miterlimit:4;stroke-dasharray:none;stroke-opacity:1"
           d="M -169.62497,184.73774 V 123.94745"
           id="path2931"
           inkscape:connector-curvature="0" />
        <path
           inkscape:connector-curvature="0"
           id="path2933"
           d="M -155.33738,184.73774 V 123.94745"
           style="stroke:#807e75;stroke-width:0.80109516;stroke-linecap:butt;stroke-linejoin:miter;stroke-miterlimit:4;stroke-dasharray:none;stroke-opacity:1" />
        <path
           style="stroke:#807e75;stroke-width:0.80109516;stroke-linecap:butt;stroke-linejoin:miter;stroke-miterlimit:4;stroke-dasharray:none;stroke-opacity:1"
           d="M -140.52062,184.73774 V 123.94745"
           id="path2935"
           inkscape:connector-curvature="0" />
        <path
           inkscape:connector-curvature="0"
           id="path2937"
           d="M -126.23303,184.73774 V 123.94745"
           style="stroke:#807e75;stroke-width:0.80109516;stroke-linecap:butt;stroke-linejoin:miter;stroke-miterlimit:4;stroke-dasharray:none;stroke-opacity:1" />
        <path
           style="stroke:#807e75;stroke-width:0.80109516;stroke-linecap:butt;stroke-linejoin:miter;stroke-miterlimit:4;stroke-dasharray:none;stroke-opacity:1"
           d="M -111.41627,184.73774 V 123.94745"
           id="path2939"
           inkscape:connector-curvature="0" />
      </g>
      <path
         inkscape:connector-curvature="0"
         id="path2906"
         d="m 4.4113832,263.39794 v 10.55674 H 28.526769 c -0.118379,-0.23831 -0.245287,-0.47331 -0.380335,-0.70442 -0.523042,-0.89506 -1.406882,-1.47209 -2.192472,-2.20563 -0.476603,-0.42968 -1.506035,-1.45039 -2.752008,-2.66905 -1.235776,-1.20868 -2.685085,-2.61267 -3.895076,-3.70336 -0.357376,-0.32062 -0.876483,-0.65327 -1.35878,-0.84543 -0.374507,-0.14921 -0.815096,-0.24206 -1.240474,-0.30448 -0.438624,-0.0644 -0.86109,-0.0964 -1.17829,-0.12437 z"
         style="opacity:1;fill:#a74441;fill-opacity:1;stroke:none;stroke-width:0.07875001;stroke-miterlimit:4;stroke-dasharray:none;stroke-opacity:1" />
      <path
         sodipodi:nodetypes="ccccccccssccc"
         inkscape:connector-curvature="0"
         id="path4402"
         d="m 23.320723,268.54124 c -1.388849,1.45979 -1.82864,1.75443 -2.871825,2.43704 0.582232,0.53291 5.830166,4.99894 8.014533,10.44894 0.17916,0.52075 0.344788,1.0211 0.500307,1.49399 0.333926,1.13195 0.46575,3.04007 0.475467,2.96572 l 0.01608,-7.75213 c -4.99e-4,-0.009 -0.0012,-0.0177 -0.002,-0.0266 v -0.2399 c -0.04773,-0.83632 -0.102894,-1.58486 -0.31626,-2.34376 -0.217043,-0.77198 -0.558992,-1.50292 -0.96776,-2.20243 -0.523041,-0.89506 -1.406979,-1.47215 -2.192563,-2.20569 -0.462874,-0.41731 -1.458412,-1.40304 -2.656115,-2.5752 z"
         style="opacity:0.25;fill:#000000;fill-opacity:1;stroke:none;stroke-width:0.09375001;stroke-miterlimit:4;stroke-dasharray:none;stroke-opacity:1" />
      <path
         sodipodi:nodetypes="ccccccsc"
         inkscape:connector-curvature="0"
         id="path4753"
         d="m 19.441432,264.79483 c 0.01566,0.0251 0.538441,0.86291 0.698353,1.33435 0.43332,0.96567 0.295725,3.23744 0.287846,4.84618 0.434114,-0.0224 5.209601,-0.74042 7.404392,1.83611 -0.02963,-0.051 -0.09251,-0.0942 -0.133984,-0.1752 -0.506747,-0.57664 -1.153187,-1.03996 -1.744098,-1.59171 -0.476597,-0.42969 -1.50601,-1.45037 -2.751982,-2.66902 -1.190981,-1.16487 -2.578246,-2.50831 -3.760527,-3.58071 z"
         style="opacity:1;fill:#dbdff0;fill-opacity:1;stroke:none;stroke-width:0.07875001;stroke-miterlimit:4;stroke-dasharray:none;stroke-opacity:1" />
    </g>
  </g>
</svg>
