<?xml version="1.0" encoding="UTF-8" standalone="no"?>
<!-- Created with Inkscape (http://www.inkscape.org/) -->

<svg
   xmlns:dc="http://purl.org/dc/elements/1.1/"
   xmlns:cc="http://creativecommons.org/ns#"
   xmlns:rdf="http://www.w3.org/1999/02/22-rdf-syntax-ns#"
   xmlns:svg="http://www.w3.org/2000/svg"
   xmlns="http://www.w3.org/2000/svg"
   xmlns:sodipodi="http://sodipodi.sourceforge.net/DTD/sodipodi-0.dtd"
   xmlns:inkscape="http://www.inkscape.org/namespaces/inkscape"
   width="128"
   height="128"
   viewBox="0 0 33.866666 33.866668"
   version="1.1"
   id="svg1005"
   inkscape:version="0.92.3 (2405546, 2018-03-11)"
   sodipodi:docname="screenie.svg">
  <defs
     id="defs999" />
  <sodipodi:namedview
     id="base"
     pagecolor="#ffffff"
     bordercolor="#666666"
     borderopacity="1.0"
     inkscape:pageopacity="0.0"
     inkscape:pageshadow="2"
     inkscape:zoom="1.4142136"
     inkscape:cx="84.374022"
     inkscape:cy="107.0085"
     inkscape:document-units="mm"
     inkscape:current-layer="layer1"
     showgrid="false"
     units="px"
     inkscape:window-width="1533"
     inkscape:window-height="837"
     inkscape:window-x="67"
     inkscape:window-y="27"
     inkscape:window-maximized="1" />
  <metadata
     id="metadata1002">
    <rdf:RDF>
      <cc:Work
         rdf:about="">
        <dc:format>image/svg+xml</dc:format>
        <dc:type
           rdf:resource="http://purl.org/dc/dcmitype/StillImage" />
        <dc:title></dc:title>
      </cc:Work>
    </rdf:RDF>
  </metadata>
  <g
     inkscape:label="Capa 1"
     inkscape:groupmode="layer"
     id="layer1"
     transform="translate(0,-263.13332)">
    <g
       id="g980"
       transform="matrix(1.0082649,0,0,1.0082649,0.22115381,-2.8686812)">
      <rect
         style="opacity:0.25;fill:#000000;fill-opacity:1;stroke:none;stroke-width:0.05;stroke-miterlimit:4;stroke-dasharray:none;stroke-opacity:1"
         id="rect1578"
         width="27.879889"
         height="27.600185"
         x="-40.192406"
         y="266.39191"
         rx="2.3261425"
         ry="2.3261425"
         transform="rotate(-8.7292689)" />
      <rect
         transform="rotate(-8.7292689)"
         ry="2.3261425"
         rx="2.3261425"
         y="265.86887"
         x="-40.112095"
         height="27.600185"
         width="27.879889"
         id="rect1665"
         style="fill:#ffffff;fill-opacity:1;stroke:#999999;stroke-width:0.2;stroke-miterlimit:4;stroke-dasharray:none;stroke-opacity:1" />
      <path
         id="path1743"
         d="m 28.811677,268.26479 -27.5145999,4.48758 0.05116,0.33124 0.074933,0.45837 27.5130469,-4.48758 -0.07286,-0.4749 z"
         style="color:#000000;font-style:normal;font-variant:normal;font-weight:normal;font-stretch:normal;font-size:medium;line-height:normal;font-family:sans-serif;font-variant-ligatures:normal;font-variant-position:normal;font-variant-caps:normal;font-variant-numeric:normal;font-variant-alternates:normal;font-feature-settings:normal;text-indent:0;text-align:start;text-decoration:none;text-decoration-line:none;text-decoration-style:solid;text-decoration-color:#000000;letter-spacing:normal;word-spacing:normal;text-transform:none;writing-mode:lr-tb;direction:ltr;text-orientation:mixed;dominant-baseline:auto;baseline-shift:baseline;text-anchor:start;white-space:normal;shape-padding:0;clip-rule:nonzero;display:inline;overflow:visible;visibility:visible;opacity:1;isolation:auto;mix-blend-mode:normal;color-interpolation:sRGB;color-interpolation-filters:linearRGB;solid-color:#000000;solid-opacity:1;vector-effect:none;fill:#000000;fill-opacity:0.078125;fill-rule:nonzero;stroke:none;stroke-width:0.80000001;stroke-linecap:butt;stroke-linejoin:miter;stroke-miterlimit:4;stroke-dasharray:none;stroke-dashoffset:0;stroke-opacity:1;color-rendering:auto;image-rendering:auto;shape-rendering:auto;text-rendering:auto;enable-background:accumulate"
         inkscape:connector-curvature="0" />
      <path
         sodipodi:nodetypes="sssccss"
         inkscape:connector-curvature="0"
         id="rect1575"
         d="m 3.0400128,268.57666 22.8621452,-3.48483 c 1.268406,-0.19333 2.446332,0.66473 2.641091,1.92391 l 0.262014,1.69404 -27.4018383,4.43749 -0.301408,-1.94873 C 0.90725889,269.93936 1.7716062,268.77 3.0400128,268.57666 Z"
         style="fill:#dbdbde;fill-opacity:1;stroke:#999999;stroke-width:0.1;stroke-miterlimit:4;stroke-dasharray:none;stroke-opacity:1" />
      <rect
         style="fill:none;fill-opacity:1;stroke:none;stroke-width:0.26458332;stroke-opacity:1"
         id="rect1580"
         width="27.879889"
         height="27.600185"
         x="-40.112095"
         y="265.86887"
         rx="2.3261425"
         ry="2.3261425"
         transform="rotate(-8.7292689)" />
      <path
         inkscape:connector-curvature="0"
         id="rect1696"
         d="m 21.738724,272.28677 c -0.133905,0.004 -0.26377,0.0161 -0.38809,0.0326 l -2.672188,0.35346 a 0.75007498,0.75007498 0 1 0 0.197404,1.48622 l 2.671672,-0.35347 c 0.318315,-0.0421 0.541797,-0.003 0.652673,0.0641 0.110875,0.0679 0.241787,0.18358 0.310575,0.70332 l 0.402043,3.0334 a 0.75007498,0.75007498 0 1 0 1.486214,-0.1974 l -0.402042,-3.03341 c -0.107038,-0.80875 -0.470138,-1.45172 -1.013892,-1.7849 -0.407816,-0.24988 -0.842653,-0.31485 -1.244369,-0.30386 z m -9.376688,1.53066 a 0.75007498,0.75007498 0 0 0 -0.127124,0.008 l -2.673739,0.34571 c -0.49748,0.0643 -1.067632,0.2198 -1.507401,0.68162 -0.439769,0.46182 -0.624432,1.17944 -0.519865,1.98851 l 0.390674,3.03288 a 0.75026974,0.75026974 0 1 0 1.488281,-0.1912 l -0.392741,-3.03547 c -0.0672,-0.51995 0.0297,-0.66547 0.119373,-0.75964 0.08967,-0.0942 0.296509,-0.18725 0.614949,-0.22841 l 2.672189,-0.34572 a 0.75007498,0.75007498 0 0 0 -0.0646,-1.49603 z m 5.017265,3.69745 c -0.03172,-0.003 -0.06551,-0.002 -0.101286,0.003 l -1.080554,0.15864 -0.397392,0.0584 -1.081071,0.15813 c -0.28622,0.042 -0.356623,0.31529 -0.440283,0.59221 l -0.199988,0.66249 -1.78387,0.27079 c -0.455932,0.069 -0.767371,0.49185 -0.698149,0.94774 l 0.740006,4.87051 c 0.06918,0.45591 0.491851,0.76737 0.947746,0.69814 l 7.707023,-1.17047 c 0.455932,-0.069 0.766854,-0.49185 0.697632,-0.94774 l -0.739489,-4.87051 c -0.06918,-0.45589 -0.49185,-0.76737 -0.947746,-0.69815 l -1.76165,0.26821 -0.369486,-0.55811 c -0.139783,-0.21102 -0.26942,-0.42205 -0.491443,-0.44338 z m -0.741557,2.0407 c 1.276293,0 2.320272,1.04398 2.320272,2.32027 0,1.27629 -1.043979,2.32027 -2.320272,2.32027 -1.276294,0 -2.320789,-1.04398 -2.320789,-2.32027 0,-1.27629 1.044495,-2.32027 2.320789,-2.32027 z m 0,0.9002 c -0.789898,0 -1.422136,0.63017 -1.422136,1.42007 1e-6,0.7899 0.632238,1.42007 1.422136,1.42007 0.789897,0 1.419552,-0.63017 1.419552,-1.42007 0,-0.7899 -0.629655,-1.42007 -1.419552,-1.42007 z m 7.966439,2.24431 a 0.75007498,0.75007498 0 0 0 -0.740007,0.89452 l 0.548804,3.00963 c 0.09379,0.51582 0.0046,0.6672 -0.0801,0.76585 -0.08472,0.0987 -0.285607,0.20198 -0.601513,0.25941 l -2.652551,0.48266 a 0.75030451,0.75030451 0 1 0 0.267684,1.4764 l 2.652551,-0.48214 c 0.493529,-0.0897 1.055217,-0.27638 1.470711,-0.76016 0.415494,-0.48377 0.563493,-1.20706 0.417545,-2.0097 l -0.546736,-3.00964 a 0.75007498,0.75007498 0 0 0 -0.736388,-0.62683 z m -14.962911,2.43138 a 0.75007498,0.75007498 0 0 0 -0.736389,0.89658 l 0.557072,3.00809 c 0.148397,0.80218 0.543159,1.42735 1.103292,1.73219 0.560133,0.30483 1.151093,0.27884 1.644343,0.18759 l 2.650485,-0.49041 a 0.75007498,0.75007498 0 1 0 -0.273369,-1.47433 l -2.650484,0.48989 c -0.315732,0.0584 -0.540007,0.0311 -0.654223,-0.031 -0.114217,-0.0622 -0.250348,-0.17021 -0.345716,-0.68574 l -0.556555,-3.00964 a 0.75007498,0.75007498 0 0 0 -0.738456,-0.62321 z"
         style="opacity:1;fill:#525252;fill-opacity:1;stroke:none;stroke-width:2.79999995;stroke-miterlimit:4;stroke-dasharray:none;stroke-opacity:0.01960784" />
      <g
         transform="translate(0.264583,0.33072916)"
         id="g1739">
        <circle
           style="opacity:1;fill:#ea6a5f;fill-opacity:1;stroke:#da6156;stroke-width:0.2;stroke-linecap:round;stroke-linejoin:round;stroke-miterlimit:4;stroke-dasharray:none;stroke-opacity:1"
           id="path1730"
           cx="3.9964263"
           cy="270.30826"
           r="1.1782837" />
        <circle
           r="1.1782837"
           cy="269.79846"
           cx="7.4565587"
           id="circle1732"
           style="opacity:1;fill:#f4bf4f;fill-opacity:1;stroke:#e0b869;stroke-width:0.2;stroke-linecap:round;stroke-linejoin:round;stroke-miterlimit:4;stroke-dasharray:none;stroke-opacity:1" />
        <circle
           style="opacity:1;fill:#66c555;fill-opacity:1;stroke:#6aba58;stroke-width:0.2;stroke-linecap:round;stroke-linejoin:round;stroke-miterlimit:4;stroke-dasharray:none;stroke-opacity:1"
           id="circle1734"
           cx="10.865906"
           cy="269.16809"
           r="1.1782837" />
      </g>
    </g>
  </g>
</svg>
