<?xml version="1.0" encoding="UTF-8" standalone="no"?>
<!-- Generator: Adobe Illustrator 21.1.0, SVG Export Plug-In . SVG Version: 6.00 Build 0)  -->

<svg
   xmlns:dc="http://purl.org/dc/elements/1.1/"
   xmlns:cc="http://creativecommons.org/ns#"
   xmlns:rdf="http://www.w3.org/1999/02/22-rdf-syntax-ns#"
   xmlns:svg="http://www.w3.org/2000/svg"
   xmlns="http://www.w3.org/2000/svg"
   xmlns:sodipodi="http://sodipodi.sourceforge.net/DTD/sodipodi-0.dtd"
   xmlns:inkscape="http://www.inkscape.org/namespaces/inkscape"
   version="1.1"
   id="Capa_1"
   x="0px"
   y="0px"
   viewBox="0 0 128 128"
   xml:space="preserve"
   sodipodi:docname="AdobePhotoshop.svg"
   width="128"
   height="128"
   inkscape:version="0.92.4 (5da689c313, 2019-01-14)"><metadata
     id="metadata13"><rdf:RDF><cc:Work
         rdf:about=""><dc:format>image/svg+xml</dc:format><dc:type
           rdf:resource="http://purl.org/dc/dcmitype/StillImage" /><dc:title /></cc:Work></rdf:RDF></metadata><defs
     id="defs11" /><sodipodi:namedview
     pagecolor="#ffffff"
     bordercolor="#666666"
     borderopacity="1"
     objecttolerance="10"
     gridtolerance="10"
     guidetolerance="10"
     inkscape:pageopacity="0"
     inkscape:pageshadow="2"
     inkscape:window-width="1600"
     inkscape:window-height="838"
     id="namedview9"
     showgrid="false"
     inkscape:zoom="2.017094"
     inkscape:cx="133.32116"
     inkscape:cy="86.194333"
     inkscape:window-x="-8"
     inkscape:window-y="-8"
     inkscape:window-maximized="1"
     inkscape:current-layer="Capa_1" /><style
     type="text/css"
     id="style2">
	.st0{fill:#001D26;}
	.st1{fill:#00C8FF;}
</style><path
     style="fill:#001d26;stroke-width:0.5"
     inkscape:connector-curvature="0"
     class="st0"
     d="m 9,10.5 h 110 v 107 H 9 Z"
     id="path4" /><path
     style="fill:#00c8ff;stroke:#001d26;stroke-width:0.5;stroke-opacity:1"
     inkscape:connector-curvature="0"
     class="st1"
     d="m 4,5.5 v 117 H 124 V 5.5 Z m 5,5 h 110 v 107 H 9 Z m 24,22.4 c 0,-0.35 0.7,-0.6 1.1,-0.6 3.2,-0.15 7.95,-0.25 12.9,-0.25 13.85,0 19.25,7.6 19.25,17.35 0,12.7 -9.2,18.15 -20.5,18.15 -1.9,0 -2.55,-0.1 -3.9,-0.1 v 19.2 c 0,0.4 -0.15,0.6 -0.6,0.6 H 33.6 c -0.4,0 -0.6,-0.15 -0.6,-0.6 z m 8.9,26.55 c 1.15,0.1 2.05,0.1 4.05,0.1 5.85,0 11.35,-2.05 11.35,-10 C 57.3,43.2 53.35,40 46.7,40 c -2,0 -3.9,0.1 -4.8,0.15 z m 43,-5.95 c -3.95,0 -5.3,2 -5.3,3.65 0,1.8 0.9,3.05 6.2,5.8 7.85,3.8 10.3,7.45 10.3,12.8 0,8 -6.1,12.3 -14.35,12.3 -4.35,0 -8.1,-0.9 -10.25,-2.15 -0.35,-0.15 -0.4,-0.4 -0.4,-0.8 v -7.35 c 0,-0.5 0.25,-0.65 0.6,-0.4 3.15,2.05 6.75,2.95 10.05,2.95 3.95,0 5.6,-1.65 5.6,-3.9 0,-1.8 -1.15,-3.4 -6.2,-6 C 74.05,67 71.1,63.55 71.1,57.8 71.1,51.35 76.15,46 84.9,46 c 4.3,0 7.3,0.65 8.95,1.4 0.4,0.25 0.5,0.65 0.5,1 v 6.85 c 0,0.4 -0.25,0.65 -0.75,0.5 -2.2,-1.4 -5.45,-2.25 -8.7,-2.25 z"
     id="path6" /></svg>