<?xml version="1.0" encoding="UTF-8" standalone="no"?>
<!-- Created with Inkscape (http://www.inkscape.org/) -->

<svg
   xmlns:osb="http://www.openswatchbook.org/uri/2009/osb"
   xmlns:dc="http://purl.org/dc/elements/1.1/"
   xmlns:cc="http://creativecommons.org/ns#"
   xmlns:rdf="http://www.w3.org/1999/02/22-rdf-syntax-ns#"
   xmlns:svg="http://www.w3.org/2000/svg"
   xmlns="http://www.w3.org/2000/svg"
   xmlns:xlink="http://www.w3.org/1999/xlink"
   xmlns:sodipodi="http://sodipodi.sourceforge.net/DTD/sodipodi-0.dtd"
   xmlns:inkscape="http://www.inkscape.org/namespaces/inkscape"
   width="128"
   height="128"
   viewBox="0 0 33.866666 33.866668"
   version="1.1"
   id="svg8"
   inkscape:version="0.92.2 5c3e80d, 2017-08-06"
   sodipodi:docname="amd.svg">
  <defs
     id="defs2">
    <linearGradient
       inkscape:collect="always"
       id="linearGradient944">
      <stop
         style="stop-color:#fddad3;stop-opacity:1"
         offset="0"
         id="stop940" />
      <stop
         style="stop-color:#fef6f5;stop-opacity:1"
         offset="1"
         id="stop942" />
    </linearGradient>
    <linearGradient
       inkscape:collect="always"
       id="linearGradient923">
      <stop
         style="stop-color:#e3093c;stop-opacity:1"
         offset="0"
         id="stop919" />
      <stop
         style="stop-color:#f6431b;stop-opacity:1"
         offset="1"
         id="stop921" />
    </linearGradient>
    <linearGradient
       osb:paint="solid"
       id="linearGradient6987">
      <stop
         id="stop6985"
         offset="0"
         style="stop-color:#77d2fb;stop-opacity:1;" />
    </linearGradient>
    <linearGradient
       inkscape:collect="always"
       xlink:href="#linearGradient923"
       id="linearGradient925"
       x1="16.503412"
       y1="292.81851"
       x2="17.76416"
       y2="266.22519"
       gradientUnits="userSpaceOnUse"
       gradientTransform="matrix(1.0031027,0,0,1.0031027,-0.05253864,-0.91821499)" />
    <linearGradient
       inkscape:collect="always"
       xlink:href="#linearGradient944"
       id="linearGradient946"
       x1="24.619932"
       y1="289.00031"
       x2="13.66755"
       y2="272.07144"
       gradientUnits="userSpaceOnUse"
       gradientTransform="matrix(1.0031027,0,0,1.0031027,-0.05253864,-0.91821499)" />
  </defs>
  <sodipodi:namedview
     id="base"
     pagecolor="#ffffff"
     bordercolor="#666666"
     borderopacity="1.0"
     inkscape:pageopacity="0.0"
     inkscape:pageshadow="2"
     inkscape:zoom="1.979899"
     inkscape:cx="56.682208"
     inkscape:cy="65.188498"
     inkscape:document-units="mm"
     inkscape:current-layer="layer1"
     showgrid="false"
     units="px"
     inkscape:window-width="1600"
     inkscape:window-height="803"
     inkscape:window-x="0"
     inkscape:window-y="0"
     inkscape:window-maximized="1" />
  <metadata
     id="metadata5">
    <rdf:RDF>
      <cc:Work
         rdf:about="">
        <dc:format>image/svg+xml</dc:format>
        <dc:type
           rdf:resource="http://purl.org/dc/dcmitype/StillImage" />
        <dc:title />
      </cc:Work>
    </rdf:RDF>
  </metadata>
  <g
     inkscape:label="Layer 1"
     inkscape:groupmode="layer"
     id="layer1"
     transform="translate(0,-263.13332)">
    <g
       id="g835"
       transform="matrix(0.9968601,0,0,0.9968601,0.05316891,0.92922437)">
      <rect
         style="opacity:0.25;fill:#000000;fill-opacity:1;stroke:none;stroke-width:0.19700716;stroke-miterlimit:4;stroke-dasharray:none;stroke-dashoffset:0;stroke-opacity:1"
         id="rect1085"
         width="31.228765"
         height="31.228765"
         x="1.3189507"
         y="264.71289"
         ry="2.2226524" />
      <rect
         ry="2.2226524"
         y="264.19165"
         x="1.3189507"
         height="31.228765"
         width="31.228765"
         id="rect1035"
         style="opacity:1;fill:url(#linearGradient925);fill-opacity:1;stroke:#800522;stroke-width:0.2;stroke-miterlimit:4;stroke-dasharray:none;stroke-dashoffset:0;stroke-opacity:1" />
      <path
         style="opacity:0.25;fill:#000000;fill-opacity:1;stroke:none;stroke-width:0.11222264;stroke-miterlimit:4;stroke-dasharray:none"
         inkscape:connector-curvature="0"
         d="m 9.6324318,271.18445 c -0.7571922,0 -1.3893019,0.51501 -1.5689447,1.21394 l 5.9348789,4.63689 c 0.138546,-0.10759 0.313949,-0.17208 0.502748,-0.17208 h 4.866845 c 0.450023,0 0.811752,0.36177 0.811752,0.81173 v 4.86626 c 0,0.18929 -0.06499,0.36418 -0.172242,0.50087 l 4.636314,5.93673 a 1.6155376,1.6155376 0 0 0 1.212116,-1.57076 V 272.8081 a 1.6198293,1.6198293 0 0 0 -1.621667,-1.62349 z m 4.0569302,6.56021 -5.6785996,4.43524 v 5.22797 a 1.6186032,1.6186032 0 0 0 1.6216694,1.6235 H 15.58141 l 3.786549,-5.678 h -4.866845 a 0.80930159,0.80930159 0 0 1 -0.811752,-0.81238 z m 0,0"
         id="path959" />
      <path
         id="path2055"
         d="m 9.6324318,270.5807 c -0.7571922,0 -1.3893019,0.51501 -1.5689447,1.21394 l 5.9348789,4.6369 c 0.138546,-0.1076 0.313949,-0.17209 0.502748,-0.17209 h 4.866845 c 0.450023,0 0.811752,0.36178 0.811752,0.81173 v 4.86627 c 0,0.18928 -0.06499,0.36417 -0.172242,0.50087 l 4.636314,5.93672 a 1.6155376,1.6155376 0 0 0 1.212116,-1.57076 v -14.59992 a 1.6198293,1.6198293 0 0 0 -1.621667,-1.6235 z m 4.0569302,6.56021 -5.6785996,4.43524 v 5.22797 a 1.6186032,1.6186032 0 0 0 1.6216694,1.6235 H 15.58141 l 3.786549,-5.678 h -4.866845 a 0.80930159,0.80930159 0 0 1 -0.811752,-0.81237 z m 0,0"
         inkscape:connector-curvature="0"
         style="opacity:1;fill:url(#linearGradient946);fill-opacity:1;stroke:none;stroke-width:0.11222264;stroke-miterlimit:4;stroke-dasharray:none" />
    </g>
  </g>
</svg>
