<?xml version="1.0" encoding="UTF-8" standalone="no"?>
<svg
   xmlns:osb="http://www.openswatchbook.org/uri/2009/osb"
   xmlns:dc="http://purl.org/dc/elements/1.1/"
   xmlns:cc="http://creativecommons.org/ns#"
   xmlns:rdf="http://www.w3.org/1999/02/22-rdf-syntax-ns#"
   xmlns:svg="http://www.w3.org/2000/svg"
   xmlns="http://www.w3.org/2000/svg"
   xmlns:xlink="http://www.w3.org/1999/xlink"
   xmlns:sodipodi="http://sodipodi.sourceforge.net/DTD/sodipodi-0.dtd"
   xmlns:inkscape="http://www.inkscape.org/namespaces/inkscape"
   width="128"
   height="128"
   version="1.1"
   id="svg28"
   sodipodi:docname="anjuta.svg"
   inkscape:version="0.92.3 (2405546, 2018-03-11)">
  <metadata
     id="metadata32">
    <rdf:RDF>
      <cc:Work
         rdf:about="">
        <dc:format>image/svg+xml</dc:format>
        <dc:type
           rdf:resource="http://purl.org/dc/dcmitype/StillImage" />
        <dc:title></dc:title>
      </cc:Work>
    </rdf:RDF>
  </metadata>
  <sodipodi:namedview
     pagecolor="#ffffff"
     bordercolor="#666666"
     borderopacity="1"
     objecttolerance="10"
     gridtolerance="10"
     guidetolerance="10"
     inkscape:pageopacity="0"
     inkscape:pageshadow="2"
     inkscape:window-width="1533"
     inkscape:window-height="837"
     id="namedview30"
     showgrid="false"
     inkscape:zoom="0.4609375"
     inkscape:cx="11.218999"
     inkscape:cy="-35.29571"
     inkscape:window-x="67"
     inkscape:window-y="27"
     inkscape:window-maximized="1"
     inkscape:current-layer="svg28" />
  <defs
     id="defs18">
    <linearGradient
       inkscape:collect="always"
       id="linearGradient3011">
      <stop
         style="stop-color:#feafc1;stop-opacity:1"
         offset="0"
         id="stop3007" />
      <stop
         style="stop-color:#a93fe7;stop-opacity:1"
         offset="1"
         id="stop3009" />
    </linearGradient>
    <linearGradient
       inkscape:collect="always"
       id="linearGradient3001">
      <stop
         style="stop-color:#42004a;stop-opacity:1"
         offset="0"
         id="stop2997" />
      <stop
         style="stop-color:#420049;stop-opacity:1"
         offset="1"
         id="stop2999" />
    </linearGradient>
    <linearGradient
       id="linearGradient6987"
       osb:paint="solid">
      <stop
         style="stop-color:#77d2fb;stop-opacity:1;"
         offset="0"
         id="stop6985" />
    </linearGradient>
    <radialGradient
       inkscape:collect="always"
       xlink:href="#linearGradient3011"
       id="radialGradient2967"
       cx="110.29932"
       cy="-83.631447"
       fx="110.29932"
       fy="-83.631447"
       r="54.058033"
       gradientTransform="matrix(0.97690946,-0.00807067,0.01205207,1.4588341,9.6026436,31.112332)"
       gradientUnits="userSpaceOnUse" />
    <linearGradient
       inkscape:collect="always"
       xlink:href="#linearGradient3001"
       id="linearGradient3005"
       x1="62.263332"
       y1="-54.963654"
       x2="110.37974"
       y2="-139.67526"
       gradientUnits="userSpaceOnUse" />
  </defs>
  <g
     id="g3016"
     transform="matrix(0.99686306,0,0,0.99686306,-31.375343,174.51041)">
    <rect
       style="opacity:0.25;fill:#000000;fill-opacity:1;stroke:none;stroke-width:0.34937826;stroke-miterlimit:4;stroke-dasharray:none;stroke-dashoffset:0;stroke-opacity:1"
       id="rect1123"
       width="107.36016"
       height="107.45942"
       x="57.989883"
       y="-147.18515"
       ry="16.411457"
       transform="rotate(-9.0000001)" />
    <rect
       transform="rotate(-9.0000001)"
       ry="16.411457"
       y="-148.95404"
       x="58.27005"
       height="107.45942"
       width="107.36016"
       id="rect1070"
       style="opacity:1;fill:url(#radialGradient2967);fill-opacity:1;stroke:#000000;stroke-width:0.75590551;stroke-miterlimit:4;stroke-dasharray:none;stroke-dashoffset:0;stroke-opacity:1" />
    <path
       sodipodi:nodetypes="cccsaacccccscccsccccccccccccccscssccccccccccscssccccsscccssscscc"
       inkscape:connector-curvature="0"
       id="path2991"
       d="m 103.24888,-58.25731 c 0.16474,-0.613574 0.34369,-2.256891 0.43164,-4.597657 0.09,-2.395445 0.0871,-5.451995 -0.11523,-8.666015 -0.20229,-3.21402 -0.60358,-6.58625 -1.3125,-9.61719 -0.35446,-1.51547 -0.7289,-2.869805 -1.30664,-4.22656 -0.49846,-1.170575 -1.204466,-2.242111 -1.84766,-3.33984 -1.283526,-2.190572 -2.692,-3.8669 -4.01171,-6.47461 -0.65986,-1.30386 -1.28464,-2.69027 -1.82813,-4.117186 -0.54349,-1.426922 -1.00512,-2.894592 -1.33984,-4.357422 -0.33473,-1.46282 -0.54261,-2.92046 -0.57618,-4.33203 -0.0336,-1.41157 0.10681,-2.77567 0.4668,-4.04883 0.35999,-1.27315 0.93922,-2.45632 1.78516,-3.5039 0.84594,-1.04758 1.95853,-1.96047 3.38281,-2.69532 0,0 0.45057,0.63091 1.25781,1.59375 0.80725,0.96284 1.97171,2.25738 3.40039,3.58203 1.42868,1.32466 3.12203,2.68019 4.98633,3.76563 0.93215,0.54272 1.90589,1.01845 2.91211,1.38867 1.00622,0.37023 2.0445,0.63521 3.10156,0.75781 0,0 0.0622,0.54134 0.31445,1.26758 0.25225,0.72625 0.69484,1.63787 1.45704,2.37695 0.38109,0.36955 0.84153,0.69461 1.39843,0.9336 0.55691,0.23899 1.20968,0.39089 1.97461,0.41016 0.76493,0.0193 1.64132,-0.0932 2.64649,-0.38282 1.00516,-0.28964 2.1384,-0.75564 3.41601,-1.44336 0.68195,-0.36551 1.25769,-0.94173 1.69336,-1.66211 0.43567,-0.72037 0.7322,-1.58605 0.85742,-2.52734 0.12523,-0.94129 0.0795,-1.95808 -0.16992,-2.98633 -0.24938,-1.02825 -0.70247,-2.06757 -1.39062,-3.04883 l -2.16797,-3.13476 c 0,0 -1.79376,-4.30825 -4.22656,-9.25391 -1.21641,-2.47283 -2.59298,-5.10485 -3.98438,-7.4375 -1.3914,-2.33265 -2.79662,-4.36588 -4.07422,-5.64062 0,0 -0.67082,-2.01113 -1.00586,-4.69141 -0.16752,-1.34014 -0.25064,-2.84781 -0.125,-4.35547 0.12564,-1.50766 0.46079,-3.01533 1.13086,-4.35547 0,0 -0.76045,0.56325 -1.64258,1.34766 -0.88212,0.78441 -1.88698,1.79103 -2.3789,2.67383 0,0 0.1706,-1.43291 0.46484,-2.98633 0.2941,-1.55269 0.71237,-3.22499 1.20508,-3.71289 -0.002,0.001 -2.14094,1.46803 -4.35547,3.35351 -1.10782,0.94322 -2.23524,1.98964 -3.12109,3.00977 -0.88586,1.02013 -1.53108,2.01373 -1.67774,2.84766 0,0 -1.13349,-0.35773 -3.08203,-0.65625 -0.97426,-0.14926 -2.15185,-0.28436 -3.49414,-0.35157 -1.34228,-0.0672 -2.84762,-0.0666 -4.47851,0.0527 -1.6309,0.1193 -3.38647,0.3573 -5.22657,0.76758 -1.84009,0.41027 -3.76644,0.99312 -5.73632,1.79882 -1.96988,0.8057 -3.98365,1.83505 -6.00391,3.14063 -2.02026,1.30558 -4.04588,2.88695 -6.03711,4.79687 h 8.04102 c 0,0 -1.31724,0.82348 -3.29883,2.1875 -1.98159,1.36403 -4.62777,3.26831 -7.28516,5.43164 -1.32869,1.08167 -2.66126,2.22869 -3.91406,3.4043 -1.2528,1.17561 -2.42576,2.37917 -3.43945,3.57813 -1.01369,1.19896 -1.86717,2.39319 -2.47852,3.54492 -0.61135,1.15172 -0.98155,2.26102 -1.02734,3.29492 0.36645,-0.23035 3.87466,-2.05894 5.36133,-2.67969 0,0 -7.16657,9.39342 -8.29772,12.99289 -0.827599,2.63353 6.099122,-2.71747 5.0493,-1.41754 -3.623764,4.48707 -8.796841,16.803901 -6.163562,14.506212 7.313876,-6.381781 0.251447,12.486846 -0.439588,16.086406 l 1.5625,9.86523 c 1.4223,8.980013 9.79734,15.064874 18.77735,13.64258 z"
       style="opacity:1;fill:url(#linearGradient3005);fill-opacity:1;stroke:none;stroke-width:0.75590551;stroke-miterlimit:4;stroke-dasharray:none;stroke-dashoffset:0;stroke-opacity:1" />
  </g>
</svg>
