<?xml version="1.0" encoding="UTF-8" standalone="no"?>
<!-- Created with Inkscape (http://www.inkscape.org/) -->

<svg
   xmlns:dc="http://purl.org/dc/elements/1.1/"
   xmlns:cc="http://creativecommons.org/ns#"
   xmlns:rdf="http://www.w3.org/1999/02/22-rdf-syntax-ns#"
   xmlns:svg="http://www.w3.org/2000/svg"
   xmlns="http://www.w3.org/2000/svg"
   xmlns:xlink="http://www.w3.org/1999/xlink"
   xmlns:sodipodi="http://sodipodi.sourceforge.net/DTD/sodipodi-0.dtd"
   xmlns:inkscape="http://www.inkscape.org/namespaces/inkscape"
   width="128"
   height="128"
   viewBox="0 0 33.866666 33.866668"
   version="1.1"
   id="svg8"
   inkscape:version="0.92.4 (5da689c313, 2019-01-14)"
   sodipodi:docname="appimagekit-gravit-designer.svg">
  <defs
     id="defs2">
    <linearGradient
       id="linearGradient1580"
       gradientUnits="userSpaceOnUse"
       x1="692.41608"
       y1="1446.6472"
       x2="960"
       y2="175.118"
       gradientTransform="scale(0.03308)">
      <stop
         id="stop1578"
         stop-color="#f48fb1"
         offset="0"
         style="stop-color:#e30a5f;stop-opacity:1" />
      <stop
         id="stop1576"
         stop-color="#ec407a"
         offset="1"
         style="stop-color:#bf0d6e;stop-opacity:1" />
    </linearGradient>
    <linearGradient
       y2="-95.330421"
       x2="364.33307"
       y1="119.28111"
       x1="268.16061"
       gradientUnits="userSpaceOnUse"
       id="f"
       gradientTransform="matrix(0.07252195,0,0,0.07252195,-2.5946701,278.54951)">
      <stop
         style="stop-color:#ffcd56;stop-opacity:1"
         offset="0"
         stop-color="#ffd54f"
         id="stop975" />
      <stop
         style="stop-color:#ff8964;stop-opacity:1"
         offset="1"
         stop-color="#ffca28"
         id="stop973" />
    </linearGradient>
    <linearGradient
       gradientTransform="matrix(0.07252195,0,0,0.07252195,-2.5946701,278.54951)"
       y2="-158.48332"
       x2="190.36076"
       y1="15.343812"
       x1="72.294838"
       gradientUnits="userSpaceOnUse"
       id="g"
       xlink:href="#i">
      <stop
         style="stop-color:#e93159;stop-opacity:1"
         offset="0"
         stop-color="#f48fb1"
         id="stop980" />
      <stop
         style="stop-color:#fd7463;stop-opacity:1"
         offset="1"
         stop-color="#ec407a"
         id="stop978" />
    </linearGradient>
    <linearGradient
       gradientTransform="scale(0.03308)"
       y2="175.118"
       x2="960"
       y1="1446.6472"
       x1="692.41608"
       gradientUnits="userSpaceOnUse"
       id="i">
      <stop
         id="stop988"
         stop-color="#ec407a"
         offset="0"
         style="stop-color:#fd7463;stop-opacity:1" />
      <stop
         id="stop990"
         stop-color="#f48fb1"
         offset="1"
         style="stop-color:#e93059;stop-opacity:1" />
    </linearGradient>
    <linearGradient
       inkscape:collect="always"
       xlink:href="#linearGradient1580"
       id="linearGradient1561"
       gradientUnits="userSpaceOnUse"
       gradientTransform="matrix(0.01919068,0,0,0.01919068,-2.5946701,262.9568)"
       x1="692.41608"
       y1="1446.6472"
       x2="959.89758"
       y2="201.90404" />
  </defs>
  <sodipodi:namedview
     id="base"
     pagecolor="#ffffff"
     bordercolor="#666666"
     borderopacity="1.0"
     inkscape:pageopacity="0.0"
     inkscape:pageshadow="2"
     inkscape:zoom="2.8"
     inkscape:cx="55.158379"
     inkscape:cy="52.108992"
     inkscape:document-units="mm"
     inkscape:current-layer="layer1"
     showgrid="false"
     units="px"
     inkscape:window-width="1600"
     inkscape:window-height="838"
     inkscape:window-x="-8"
     inkscape:window-y="-8"
     inkscape:window-maximized="1" />
  <metadata
     id="metadata5">
    <rdf:RDF>
      <cc:Work
         rdf:about="">
        <dc:format>image/svg+xml</dc:format>
        <dc:type
           rdf:resource="http://purl.org/dc/dcmitype/StillImage" />
        <dc:title />
      </cc:Work>
    </rdf:RDF>
  </metadata>
  <g
     inkscape:label="Layer 1"
     inkscape:groupmode="layer"
     id="layer1"
     transform="translate(0,-263.13332)">
    <g
       id="g847"
       transform="matrix(0.98360646,0,0,0.98360646,1.3687237,3.5111545)">
      <path
         id="path838"
         d="m 15.825245,265.55445 c 8.766948,0 15.873772,7.10732 15.873772,15.87497 0,8.76764 -7.106824,15.87495 -15.873772,15.87495 -8.7669485,0 -15.87621926,-7.10731 -15.87621926,-15.87495 0,-8.76765 7.10927076,-15.87505 15.87621926,-15.87505 z m 0,0"
         inkscape:connector-curvature="0"
         style="opacity:0.25;fill:#000000;stroke:none;stroke-width:0.2;stroke-linecap:round;stroke-miterlimit:4;stroke-dasharray:none" />
      <path
         style="fill:#e6e6e6;stroke:#999999;stroke-width:0.2;stroke-linecap:round;stroke-miterlimit:4;stroke-dasharray:none"
         inkscape:connector-curvature="0"
         d="m 15.825245,265.02528 c 8.766948,0 15.873772,7.10732 15.873772,15.87497 0,8.76764 -7.106824,15.87495 -15.873772,15.87495 -8.7669485,0 -15.87621926,-7.10731 -15.87621926,-15.87495 0,-8.76765 7.10927076,-15.87505 15.87621926,-15.87505 z m 0,0"
         id="path834" />
      <path
         id="path1005"
         d="m 15.826412,266.31796 c 8.053707,0 14.582351,6.52858 14.582351,14.58228 0,8.05371 -6.528644,14.58227 -14.582351,14.58227 -8.0537071,0 -14.5845986,-6.52856 -14.5845986,-14.58227 0,-8.0537 6.5308915,-14.58235 14.5845986,-14.58235 z m 0,0"
         inkscape:connector-curvature="0"
         style="fill:url(#f);stroke:none;stroke-width:0.21756585;stroke-linecap:round" />
      <path
         id="path1007"
         d="m 12.398188,266.71836 c -0.403769,0.0975 -0.797677,0.21117 -1.187525,0.33764 l -9.9486344,13.09177 c -0.013343,0.24946 -0.020305,0.50066 -0.020305,0.75243 0,0.55054 0.031907,1.09238 0.09108,1.62668 z m 0,0"
         inkscape:connector-curvature="0"
         style="fill:url(#g);fill-opacity:1;stroke:none;stroke-width:0.58012921" />
      <path
         id="path1009"
         d="m 30.311997,282.59301 c -5.382439,1.03089 -10.337902,6.92269 -10.632607,12.37997 5.669601,-1.53909 9.948054,-6.39767 10.632607,-12.37997 z m 0,0"
         inkscape:connector-curvature="0"
         style="fill:#11ab66;fill-opacity:1;stroke:none;stroke-width:0.58012921" />
      <path
         id="path1011"
         d="m 15.826752,266.31749 c -0.292385,0 -0.584771,0.009 -0.872515,0.025 L 3.2907403,288.37574 a 14.544998,14.544998 0 0 0 12.2708927,7.10427 c -1.74735,-10.99287 1.241476,-22.57689 6.010138,-27.99529 a 14.584447,14.584447 0 0 0 -5.745019,-1.16723 z m 0,0"
         inkscape:connector-curvature="0"
         style="fill:url(#linearGradient1561);stroke:none;stroke-width:0.58012921" />
      <path
         id="path1019"
         d="m 12.398188,266.71836 c -0.403769,0.0975 -0.797677,0.21117 -1.187525,0.33764 l -9.9486344,13.09177 c -0.013343,0.24946 -0.020305,0.50066 -0.020305,0.75243 0,0.55054 0.031907,1.09238 0.09108,1.62668 z m 0,0 m 17.913809,15.87465 c -5.382439,1.03089 -10.337902,6.92269 -10.632607,12.37997 5.669601,-1.53909 9.948054,-6.39767 10.632607,-12.37997 z m 0,0 M 15.826752,266.31749 c -0.292385,0 -0.584771,0.009 -0.872515,0.025 L 3.2907403,288.37574 a 14.544998,14.544998 0 0 0 12.2708927,7.10485 c -1.74735,-10.99345 1.241476,-22.57747 6.010138,-27.99587 a 14.585027,14.585027 0 0 0 -5.745019,-1.16723 z m 0,0"
         inkscape:connector-curvature="0"
         style="fill:none;stroke:none;stroke-width:0.21760304" />
    </g>
  </g>
</svg>
