<?xml version="1.0" encoding="UTF-8" standalone="no"?>
<!-- Created with Inkscape (http://www.inkscape.org/) -->

<svg
   xmlns:osb="http://www.openswatchbook.org/uri/2009/osb"
   xmlns:dc="http://purl.org/dc/elements/1.1/"
   xmlns:cc="http://creativecommons.org/ns#"
   xmlns:rdf="http://www.w3.org/1999/02/22-rdf-syntax-ns#"
   xmlns:svg="http://www.w3.org/2000/svg"
   xmlns="http://www.w3.org/2000/svg"
   xmlns:xlink="http://www.w3.org/1999/xlink"
   xmlns:sodipodi="http://sodipodi.sourceforge.net/DTD/sodipodi-0.dtd"
   xmlns:inkscape="http://www.inkscape.org/namespaces/inkscape"
   width="128"
   height="128"
   viewBox="0 0 33.866665 33.866665"
   version="1.1"
   id="svg4942"
   inkscape:version="0.92.4 (5da689c313, 2019-01-14)"
   sodipodi:docname="applications-development.svg">
  <defs
     id="defs4936">
    <linearGradient
       id="linearGradient1316"
       inkscape:collect="always">
      <stop
         id="stop1312"
         offset="0"
         style="stop-color:#ff7004;stop-opacity:1" />
      <stop
         id="stop1314"
         offset="1"
         style="stop-color:#ff9a29;stop-opacity:1" />
    </linearGradient>
    <linearGradient
       id="linearGradient6987"
       osb:paint="solid">
      <stop
         style="stop-color:#77d2fb;stop-opacity:1;"
         offset="0"
         id="stop6985" />
    </linearGradient>
    <linearGradient
       inkscape:collect="always"
       xlink:href="#linearGradient1316"
       id="linearGradient1014"
       gradientUnits="userSpaceOnUse"
       gradientTransform="matrix(0.1801107,0,0,0.18011144,66.201073,183.93954)"
       x1="-285.80493"
       y1="576.80786"
       x2="-299.31662"
       y2="484.03067" />
    <linearGradient
       y2="947.00079"
       y1="947.00079"
       x2="387.12045"
       x1="372.06885"
       gradientUnits="userSpaceOnUse"
       id="i">
      <stop
         id="stop16"
         stop-color="#828398"
         offset="0" />
      <stop
         id="stop18"
         stop-color="#4f4e50"
         offset=".05013223" />
      <stop
         id="stop20"
         stop-color="#e8e5eb"
         offset=".14024317" />
      <stop
         id="stop22"
         stop-opacity=".941176"
         stop-color="#e9d3d9"
         offset=".23170672" />
      <stop
         id="stop24"
         stop-color="#c4c2c7"
         offset=".76219523" />
      <stop
         id="stop26"
         stop-color="#f4f1fa"
         offset=".86999255" />
      <stop
         id="stop28"
         stop-color="#b8b8bf"
         offset=".93410021" />
      <stop
         id="stop30"
         stop-color="#c1bfcc"
         offset="1" />
    </linearGradient>
    <linearGradient
       y2="1018.5878"
       y1="1018.9549"
       x2="394.8298"
       x1="368.21414"
       gradientUnits="userSpaceOnUse"
       id="j">
      <stop
         id="stop33"
         stop-color="#130804"
         offset="0" />
      <stop
         id="stop35"
         stop-color="#0f0704"
         offset=".16970721" />
      <stop
         id="stop37"
         stop-color="#323033"
         offset=".23766069" />
      <stop
         id="stop39"
         stop-color="#323033"
         offset=".71842611" />
      <stop
         id="stop41"
         stop-color="#141215"
         offset=".84821641" />
      <stop
         id="stop43"
         stop-color="#00010e"
         offset="1" />
    </linearGradient>
    <linearGradient
       y2="917.9989"
       y1="904.78284"
       x2="372.25238"
       x1="367.84705"
       gradientUnits="userSpaceOnUse"
       id="k">
      <stop
         id="stop46"
         stop-color="#2d2d39"
         offset="0" />
      <stop
         id="stop48"
         stop-color="#acabb0"
         offset="1" />
    </linearGradient>
    <linearGradient
       y2="908.79163"
       y1="902.21301"
       x2="414.05841"
       x1="389.50668"
       gradientUnits="userSpaceOnUse"
       id="l">
      <stop
         id="stop51"
         stop-color="#59585d"
         offset="0" />
      <stop
         id="stop53"
         stop-color="#010103"
         offset=".19257796" />
      <stop
         id="stop55"
         stop-color="#5b5b5d"
         offset=".54332471" />
      <stop
         id="stop57"
         stop-color="#171719"
         offset="1" />
    </linearGradient>
    <linearGradient
       y2="883.11084"
       y1="903.40106"
       x2="-353.81839"
       x1="-353.81839"
       gradientUnits="userSpaceOnUse"
       id="m">
      <stop
         id="stop60"
         stop-color="#202024"
         offset="0" />
      <stop
         id="stop62"
         stop-color="#919095"
         offset=".3368493" />
      <stop
         id="stop64"
         stop-color="#4e4d51"
         offset=".53881687" />
      <stop
         id="stop66"
         stop-color="#cfcfd1"
         offset=".69465232" />
      <stop
         id="stop68"
         stop-color="#69696b"
         offset="1" />
    </linearGradient>
    <linearGradient
       y2="883.85742"
       y1="903.66016"
       x2="338.84512"
       x1="338.84512"
       gradientUnits="userSpaceOnUse"
       id="n">
      <stop
         id="stop71"
         stop-color="#181820"
         offset="0" />
      <stop
         id="stop73"
         stop-color="#86858a"
         offset=".03511503" />
      <stop
         id="stop75"
         stop-color="#7a797e"
         offset=".14091089" />
      <stop
         id="stop77"
         stop-color="#2f2e33"
         offset=".19626147" />
      <stop
         id="stop79"
         stop-color="#414045"
         offset=".33304867" />
      <stop
         id="stop81"
         stop-color="#545358"
         offset=".43142435" />
      <stop
         id="stop83"
         stop-color="#ebeaf0"
         offset=".56074804" />
      <stop
         id="stop85"
         stop-color="#abaaaf"
         offset=".69158942" />
      <stop
         id="stop87"
         stop-color="#d7d6dc"
         offset=".85981399" />
      <stop
         id="stop89"
         stop-color="#66656a"
         offset="1" />
    </linearGradient>
    <linearGradient
       y2="-50.845123"
       y1="-67.365196"
       x2="415.57172"
       x1="367.84705"
       gradientUnits="userSpaceOnUse"
       id="o">
      <stop
         id="stop92"
         stop-color="#c7c6cb"
         offset="0" />
      <stop
         id="stop94"
         stop-color="#fcfcfd"
         offset=".54332471" />
      <stop
         id="stop96"
         stop-color="#d8d8da"
         offset="1" />
    </linearGradient>
    <filter
       y="-0.136453"
       x="-0.019943001"
       width="1.039886"
       height="1.272905"
       id="p"
       style="color-interpolation-filters:sRGB">
      <feGaussianBlur
         id="feGaussianBlur99"
         stdDeviation=".19828681" />
    </filter>
  </defs>
  <sodipodi:namedview
     id="base"
     pagecolor="#ffffff"
     bordercolor="#666666"
     borderopacity="1.0"
     inkscape:pageopacity="0.0"
     inkscape:pageshadow="2"
     inkscape:zoom="0.86163604"
     inkscape:cx="-142.59994"
     inkscape:cy="-76.343716"
     inkscape:document-units="mm"
     inkscape:current-layer="layer1"
     showgrid="false"
     units="px"
     width="128px"
     inkscape:window-width="1600"
     inkscape:window-height="838"
     inkscape:window-x="-8"
     inkscape:window-y="-8"
     inkscape:window-maximized="1"
     inkscape:measure-start="-293.521,100.415"
     inkscape:measure-end="-294.709,409.978" />
  <metadata
     id="metadata4939">
    <rdf:RDF>
      <cc:Work
         rdf:about="">
        <dc:format>image/svg+xml</dc:format>
        <dc:type
           rdf:resource="http://purl.org/dc/dcmitype/StillImage" />
        <dc:title />
      </cc:Work>
    </rdf:RDF>
  </metadata>
  <g
     inkscape:label="Layer 1"
     inkscape:groupmode="layer"
     id="layer1"
     transform="translate(0,-263.13332)">
    <g
       transform="matrix(0.26458333,0,0,0.26458333,-9.8599493,209.18534)"
       style="opacity:1"
       id="g1068" />
    <path
       style="opacity:0.25;fill:#000000;fill-opacity:1;fill-rule:nonzero;stroke:none;stroke-width:0.29439712;stroke-linecap:round;stroke-linejoin:round;stroke-miterlimit:4;stroke-dasharray:none;stroke-dashoffset:0;stroke-opacity:1"
       d="m 1.1564643,272.926 26.3501047,-4.19259 3.494047,21.30524 -26.6208367,4.21096 z"
       id="path1030"
       inkscape:connector-curvature="0"
       sodipodi:nodetypes="ccccc" />
    <path
       sodipodi:nodetypes="ccccc"
       inkscape:connector-curvature="0"
       id="path998"
       d="m 1.1564643,272.40826 26.3501047,-4.19259 3.494047,21.30524 -26.6208367,4.21097 z"
       style="opacity:1;fill:url(#linearGradient1014);fill-opacity:1;fill-rule:nonzero;stroke:#8a3d02;stroke-width:0.19626474;stroke-linecap:round;stroke-linejoin:round;stroke-miterlimit:4;stroke-dasharray:none;stroke-dashoffset:0;stroke-opacity:1" />
    <path
       inkscape:connector-curvature="0"
       id="path1000"
       d="m 9.2958949,288.90005 c 0.4942953,-0.62057 1.0106241,-1.2654 1.1474041,-1.43291 0.13675,-0.16742 0.24724,-0.31917 0.245469,-0.33699 -0.0029,-0.0324 -1.8948488,-0.8968 -1.9750284,-0.90236 -0.024069,-7.2e-4 -0.050094,0.0468 -0.058997,0.10845 -0.019959,0.13785 -0.2224383,2.20849 -0.331226,3.38715 -0.023188,0.2515 -0.013012,0.3192 0.046375,0.3094 0.013991,-0.002 0.4313845,-0.51219 0.9256601,-1.13279 z m 16.2239241,-1.80922 c 0.242329,-0.45668 0.270673,-1.36292 0.06683,-2.1375 -0.23186,-0.88116 -0.577782,-1.46037 -1.128374,-1.88941 -0.408383,-0.31823 -0.715335,-0.35158 -1.020056,-0.11084 -0.47511,0.37534 -0.920533,0.76364 -0.981165,0.85532 -0.180886,0.27344 -0.101978,0.65698 0.228172,1.10904 0.33377,0.45718 0.654028,0.69679 1.327526,0.99322 0.694866,0.30585 1.001143,0.57684 1.226283,1.08492 0.0723,0.16299 0.129461,0.22672 0.195287,0.2173 0.01174,-9.9e-4 0.05088,-0.0566 0.08541,-0.12214 z m -14.188392,-1.43618 c 0.83694,-2.31123 1.91701,-5.18595 2.597406,-6.91324 0.148296,-0.3767 0.26816,-0.69487 0.266154,-0.707 -0.0069,-0.0393 -1.950971,-0.83254 -1.996153,-0.81442 -0.04569,0.0171 -1.1847,2.93566 -1.982171,5.07586 -0.2528173,0.67842 -0.6349591,1.64784 -0.8492572,2.15423 -0.214298,0.5064 -0.421982,0.99734 -0.4615484,1.09097 -0.041582,0.0982 -0.058019,0.17973 -0.038842,0.19282 0.091872,0.0629 2.0613906,0.90872 2.0868196,0.89613 0.01555,-0.008 0.186189,-0.44702 0.377564,-0.97547 z m 11.407214,-2.65664 c 0.415417,-0.33647 0.778559,-0.64215 0.80703,-0.67929 0.05069,-0.0662 0.04716,-0.0733 -0.170475,-0.33752 -0.12227,-0.1485 -0.419507,-0.51159 -0.660721,-0.80687 -0.241155,-0.29528 -0.460815,-0.53753 -0.488073,-0.53835 -0.0723,-0.002 -1.638137,1.2952 -1.63981,1.35863 -7.25e-4,0.0527 1.17378,1.50683 1.292949,1.59971 0.03424,0.0266 0.07162,0.0412 0.08297,0.032 0.01047,-0.009 0.360627,-0.29186 0.776024,-0.6283 z m 3.172869,-2.26617 c 0.0079,-0.0251 -0.06437,-0.52009 -0.164938,-1.0994 l -0.181238,-1.05355 -1.951626,0.3129 c -1.702741,0.27418 -1.94915,0.31968 -1.93327,0.35934 0.0088,0.0252 0.363689,0.4773 0.785945,1.00521 l 0.767767,0.9598 0.129941,-0.012 c 0.07152,-0.007 0.669965,-0.10592 1.330187,-0.21979 0.948907,-0.16395 1.203632,-0.218 1.216801,-0.25385 z m -6.177014,0.97425 c 0.002,-0.0171 -0.321598,-0.44216 -0.720646,-0.94485 l -0.725608,-0.91406 -2.377805,0.39288 -2.377834,0.39288 -0.393501,1.10932 c -0.216401,0.61012 -0.38453,1.11959 -0.373561,1.13216 0.02925,0.0322 6.962655,-1.1313 6.968985,-1.16817 z m -10.2427557,1.51316 c 0.045495,-0.1208 0.2329952,-0.61843 0.4169434,-1.10603 0.1839483,-0.48758 0.3320183,-0.90123 0.3290543,-0.9192 -0.0039,-0.0209 -0.6619241,0.0786 -1.9998411,0.30534 l -1.9942346,0.33907 0.025438,0.2264 c 0.015752,0.1243 0.09647,0.58884 0.1824708,1.03205 l 0.1570228,0.80569 1.4003876,-0.23138 1.4003875,-0.23139 z M 21.18444,280.86738 c 0.740176,-0.58268 0.728768,-0.57272 0.719307,-0.63002 -0.0088,-0.0558 -0.563556,-0.74349 -2.436293,-3.0222 -2.058487,-2.50479 -2.965263,-3.60904 -3.568347,-4.34551 -0.594463,-0.72593 -0.728406,-0.85739 -0.943252,-0.92575 -0.169233,-0.0537 -0.420681,-0.0248 -0.571471,0.0656 -0.143461,0.0863 -0.632944,0.49097 -0.75761,0.62663 -0.199926,0.21752 -0.228329,0.58712 -0.06496,0.84775 0.08796,0.14056 0.03346,0.0724 1.979157,2.43685 3.064326,3.72226 4.632861,5.59557 4.717022,5.63359 0.02055,0.009 0.103231,-0.0362 0.183518,-0.0998 0.08013,-0.0644 0.414487,-0.32849 0.743101,-0.5872 z m -6.671632,-3.76403 c 0.274989,-0.6962 0.312295,-0.81624 0.30753,-0.98974 -0.0099,-0.36038 -0.234482,-0.56584 -0.875263,-0.80132 -0.363327,-0.13352 -0.4207,-0.14507 -0.61731,-0.12382 -0.268491,0.03 -0.39082,0.10664 -0.539937,0.34326 -0.111722,0.17715 -0.486546,1.2101 -0.471087,1.2979 0.0059,0.0313 0.372621,0.19844 0.97049,0.44164 0.528881,0.21515 0.971664,0.39025 0.983962,0.38911 0.01174,-9.8e-4 0.121136,-0.25182 0.241615,-0.55705 z"
       style="fill:none;fill-opacity:1;stroke:#ffffff;stroke-width:0.19626474;stroke-linecap:round;stroke-linejoin:round;stroke-miterlimit:4;stroke-dasharray:none;stroke-opacity:1"
       sodipodi:nodetypes="ssccscsssssscssscsssscsssccsscssccccscscscsccccccscccsccsssscsscccsssssscsssscsssssscscs" />
    <path
       style="opacity:1;fill:none;fill-opacity:1;fill-rule:nonzero;stroke:#ffffff;stroke-width:0.19626474;stroke-linecap:round;stroke-linejoin:round;stroke-miterlimit:4;stroke-dasharray:none;stroke-dashoffset:0;stroke-opacity:1"
       d="m 2.5395441,273.20217 23.9077939,-3.80399 3.170198,19.33052 -24.1534301,3.82066 z"
       id="path1002"
       inkscape:connector-curvature="0"
       sodipodi:nodetypes="ccccc" />
    <g
       id="g3611"
       transform="matrix(-0.17283168,-0.02658781,-0.0304729,0.16963366,117.20582,126.0143)"
       style="opacity:0.25;fill:#000000">
      <path
         style="fill:#000000;fill-rule:evenodd"
         inkscape:connector-curvature="0"
         id="path3579"
         d="m 372.13767,921.50941 c -0.0918,-0.11473 -1.10134,-1.26195 -1.10134,-1.26195 l 1.23901,-2.34035 12.8234,-0.0115 1.68732,1.29794 0.0649,1.03835 -1.10324,1.62243 z" />
      <path
         inkscape:connector-curvature="0"
         style="fill:#000000"
         id="path3581"
         d="m 371.94827,920.17293 0.88494,-1.39528 h 12.06135 l 1.15757,0.60674 1.84392,32.45214 -3.57388,-1.11318 -9.87845,0.1142 -2.49545,1.11255 z" />
      <g
         style="fill:#000000;fill-rule:evenodd"
         id="g3595">
        <path
           inkscape:connector-curvature="0"
           style="fill:#000000"
           id="path3583"
           d="m 367.75525,1044.4233 0.27534,-48.96361 2.66102,-41.02707 c 0.12062,-0.91085 0.32891,-1.99276 1.23304,-2.51476 l 2.40119,-1.08702 9.72005,-0.15891 c 2.35837,0 4.29906,1.04146 4.6348,2.29446 l 3.94646,31.47992 2.01912,22.02679 2.01912,36.5277 c 0,0 0.91778,3.4658 0.91778,6.608 0,3.1422 -2.9369,3.8547 -2.9369,3.8547 l -21.84321,0.7342 c -2.15679,-0.673 -5.69025,-1.4397 -5.69025,-3.3499 0,-1.9101 0.64244,-6.4245 0.64244,-6.4245 z" />
        <path
           inkscape:connector-curvature="0"
           style="fill:#000000"
           id="path3585"
           d="m 371.04042,920.25625 c 0,0 2.18217,-8.85033 -6.31934,-13.8474 l 0.97346,-9.34517 c 0,0 8.35548,6.76552 6.60326,20.84816 z" />
        <path
           style="fill:#000000"
           inkscape:connector-curvature="0"
           id="path3587"
           d="m 373.28899,917.91591 c 0.56284,-12.76748 -4.46653,-17.71271 -7.59445,-20.85223 0,0 8.35548,6.76552 6.60326,20.84816 z" />
        <path
           inkscape:connector-curvature="0"
           style="fill:#000000"
           id="path3589"
           d="m 386.75335,919.19201 c 0,0 -0.73423,-5.41492 0.0918,-9.2696 0.82601,-3.85469 3.94647,-5.59847 11.47228,-5.59847 7.52581,0 21.29254,8.81071 28.91013,17.98853 1.09673,1.40642 1.86897,1.15797 1.92735,-0.55067 0.0453,-0.22669 -11.12154,-13.31773 -21.29255,-17.62142 -10.24822,-4.33636 -1.74378,-3.02868 -1.74378,-3.02868 0,0 13.0325,5.23136 23.03633,16.97897 1.32201,1.77634 1.73546,0.66477 2.01912,-1.19312 0,0 -8.99427,-13.49139 -23.12811,-20.09942 -14.13384,-6.60803 -21.01721,2.66156 -22.57744,9.26959 -1.56023,6.60803 -0.55067,11.93117 -0.55067,11.93117 z" />
        <path
           inkscape:connector-curvature="0"
           id="path3591"
           d="m 430.81867,916.46788 -0.61653,2.51476 c 1.13029,-0.0162 1.69273,-1.76844 1.83334,-3.35842 z"
           style="fill:#000000" />
        <path
           inkscape:connector-curvature="0"
           id="path3593"
           d="m 428.99344,921.56229 -0.59219,1.67921 c 1.09784,0 1.40759,-1.20809 1.53319,-2.62833 z"
           style="fill:#000000" />
      </g>
      <path
         inkscape:connector-curvature="0"
         style="fill:#000000"
         id="path3597"
         transform="scale(-1,1)"
         d="m -365.57721,882.75811 c 8.61383,6.97502 13.52853,6.0975 22.53174,0.87189 v 20.24786 c -6.6771,-3.74026 -14.54092,-7.07073 -21.70573,2.56979 l -0.95666,-9.19482 z" />
      <path
         inkscape:connector-curvature="0"
         style="fill:#000000"
         id="path3599"
         d="m 332.53217,883.63 h 10.51331 v 20.24786 h -10.51331 z" />
      <path
         style="fill:#000000;fill-rule:evenodd"
         inkscape:connector-curvature="0"
         id="path3601"
         d="m 365.57733,882.76177 c 22.86627,0 36.86892,2.30213 58.63722,22.82331 -22.53022,-19.79437 -35.19609,-19.86005 -58.63487,-19.66614 z" />
      <path
         inkscape:connector-curvature="0"
         style="fill:#000000"
         id="path3603"
         transform="translate(0,956.36218)"
         d="m 373.9043,-70.466797 c -2.6335,-0.0219 -5.39437,-8.03e-4 -8.32422,0.02344 l -0.0566,12.789062 0.17187,-1.644531 c 0,0 0.12917,0.104469 0.35157,0.314453 0.003,0.0024 9e-4,0.0014 0.004,0.0039 0.22223,0.209985 0.53579,0.523071 0.9082,0.94336 0.006,0.0066 0.008,0.009 0.0137,0.01563 0.0478,0.05401 0.10279,0.124178 0.15234,0.18164 0.11446,0.132614 0.23077,0.270829 0.35352,0.421875 0.009,0.0095 0.0168,0.01977 0.0254,0.0293 2.93354,3.265464 6.24805,8.442989 5.78515,18.94336 l -0.90234,-0.0059 0.10937,0.435547 12.54493,-0.238281 0.004,-0.02734 -0.12695,-0.08203 c 0,0 -1.00945,-5.323611 0.55078,-11.931641 1.56023,-6.60803 8.44428,-15.877561 22.57813,-9.269531 12.77532,5.972882 21.27795,17.470435 22.80859,19.644531 l 1.16406,-0.80664 c -1.99064,-3.845652 -5.33735,-7.551362 -7.80469,-10.050782 -19.71394,-17.320073 -31.87606,-19.536184 -50.31054,-19.689453 z m 30.06445,15.03125 c -1.59081,-0.002 -2.51061,0.502666 3.89453,3.212891 9.76464,4.13174 20.33877,16.244669 21.13672,17.416015 l 0.92383,-0.93164 -2.14063,-4.064453 C 418.00016,-50.464658 406.11914,-55.25 406.11914,-55.25 c 0,0 -1.1959,-0.184356 -2.15039,-0.185547 z m -32.46484,5.794922 c 0.17309,0.588758 0.33077,1.203983 0.46679,1.847656 -0.13621,-0.643235 -0.29354,-1.259307 -0.46679,-1.847656 z m 0.46679,1.849609 c 0.11913,0.563956 0.21642,1.159335 0.30078,1.765625 -0.0847,-0.60728 -0.18123,-1.200841 -0.30078,-1.765625 z m 0.34571,2.044922 c 0.0769,0.60149 0.12521,1.232552 0.16211,1.875 -0.037,-0.642378 -0.0851,-1.273592 -0.16211,-1.875 z m 0.1875,2.189453 c 0.0338,0.739919 0.0407,1.505456 0.0137,2.298829 0.0271,-0.794329 0.0203,-1.558104 -0.0137,-2.298829 z m 0.0117,2.353516 c -0.0282,0.784148 -0.0899,1.595197 -0.18554,2.431641 0.0956,-0.836473 0.1574,-1.647487 0.18554,-2.431641 z m 59.51563,0.492187 c -3e-4,0.0033 -0.002,0.0065 -0.002,0.0098 l 0.006,-0.0039 z m -2.10156,4.988282 c -0.004,0.04525 -0.0131,0.08414 -0.0176,0.128906 l 0.0547,-0.06055 z" />
      <path
         style="fill:#000000"
         inkscape:connector-curvature="0"
         id="path3605"
         transform="scale(-1,1)"
         d="m -332.53217,883.63 c 1.46878,7.9751 1.65097,10.31862 0,20.24786 z" />
      <rect
         style="fill:#000000;filter:url(#p)"
         id="rect3607"
         y="1049.2417"
         x="370.9675"
         width="23.862333"
         transform="matrix(1.0416015,0,0,1.1875727,-15.929152,-197.13614)"
         rx="1.743786"
         height="3.487572" />
      <rect
         style="fill:#000000"
         id="rect3609"
         y="1049.2417"
         x="370.9675"
         width="23.862333"
         rx="1.743786"
         height="3.487572" />
    </g>
    <g
       transform="matrix(-0.17283168,-0.02658781,-0.0304729,0.16963366,117.20582,125.49501)"
       id="g438">
      <path
         d="m 372.13767,921.50941 c -0.0918,-0.11473 -1.10134,-1.26195 -1.10134,-1.26195 l 1.23901,-2.34035 12.8234,-0.0115 1.68732,1.29794 0.0649,1.03835 -1.10324,1.62243 z"
         id="path406"
         inkscape:connector-curvature="0"
         style="fill-rule:evenodd" />
      <path
         d="m 371.94827,920.17293 0.88494,-1.39528 h 12.06135 l 1.15757,0.60674 1.84392,32.45214 -3.57388,-1.11318 -9.87845,0.1142 -2.49545,1.11255 z"
         id="path408"
         style="fill:url(#i)"
         inkscape:connector-curvature="0" />
      <g
         id="g422"
         style="fill-rule:evenodd">
        <path
           d="m 367.75525,1044.4233 0.27534,-48.96361 2.66102,-41.02707 c 0.12062,-0.91085 0.32891,-1.99276 1.23304,-2.51476 l 2.40119,-1.08702 9.72005,-0.15891 c 2.35837,0 4.29906,1.04146 4.6348,2.29446 l 3.94646,31.47992 2.01912,22.02679 2.01912,36.5277 c 0,0 0.91778,3.4658 0.91778,6.608 0,3.1422 -2.9369,3.8547 -2.9369,3.8547 l -21.84321,0.7342 c -2.15679,-0.673 -5.69025,-1.4397 -5.69025,-3.3499 0,-1.9101 0.64244,-6.4245 0.64244,-6.4245 z"
           id="path410"
           style="fill:url(#j)"
           inkscape:connector-curvature="0" />
        <path
           d="m 371.04042,920.25625 c 0,0 2.18217,-8.85033 -6.31934,-13.8474 l 0.97346,-9.34517 c 0,0 8.35548,6.76552 6.60326,20.84816 z"
           id="path412"
           style="fill:url(#k)"
           inkscape:connector-curvature="0" />
        <path
           d="m 373.28899,917.91591 c 0.56284,-12.76748 -4.46653,-17.71271 -7.59445,-20.85223 0,0 8.35548,6.76552 6.60326,20.84816 z"
           id="path414"
           inkscape:connector-curvature="0"
           style="fill:#5b5c60" />
        <path
           d="m 386.75335,919.19201 c 0,0 -0.73423,-5.41492 0.0918,-9.2696 0.82601,-3.85469 3.94647,-5.59847 11.47228,-5.59847 7.52581,0 21.29254,8.81071 28.91013,17.98853 1.09673,1.40642 1.86897,1.15797 1.92735,-0.55067 0.0453,-0.22669 -11.12154,-13.31773 -21.29255,-17.62142 -10.24822,-4.33636 -1.74378,-3.02868 -1.74378,-3.02868 0,0 13.0325,5.23136 23.03633,16.97897 1.32201,1.77634 1.73546,0.66477 2.01912,-1.19312 0,0 -8.99427,-13.49139 -23.12811,-20.09942 -14.13384,-6.60803 -21.01721,2.66156 -22.57744,9.26959 -1.56023,6.60803 -0.55067,11.93117 -0.55067,11.93117 z"
           id="path416"
           style="fill:url(#l)"
           inkscape:connector-curvature="0" />
        <path
           d="m 430.81867,916.46788 -0.61653,2.51476 c 1.13029,-0.0162 1.69273,-1.76844 1.83334,-3.35842 z"
           id="path418"
           inkscape:connector-curvature="0" />
        <path
           d="m 428.99344,921.56229 -0.59219,1.67921 c 1.09784,0 1.40759,-1.20809 1.53319,-2.62833 z"
           id="path420"
           inkscape:connector-curvature="0" />
      </g>
      <path
         d="m -365.57721,882.75811 c 8.61383,6.97502 13.52853,6.0975 22.53174,0.87189 v 20.24786 c -6.6771,-3.74026 -14.54092,-7.07073 -21.70573,2.56979 l -0.95666,-9.19482 z"
         transform="scale(-1,1)"
         id="path424"
         style="fill:url(#m)"
         inkscape:connector-curvature="0" />
      <path
         d="m 332.53217,883.63 h 10.51331 v 20.24786 h -10.51331 z"
         id="path426"
         style="fill:url(#n)"
         inkscape:connector-curvature="0" />
      <path
         d="m 365.57733,882.76177 c 22.86627,0 36.86892,2.30213 58.63722,22.82331 -22.53022,-19.79437 -35.19609,-19.86005 -58.63487,-19.66614 z"
         id="path428"
         inkscape:connector-curvature="0"
         style="fill:#3b3b3d;fill-rule:evenodd" />
      <path
         d="m 373.9043,-70.466797 c -2.6335,-0.0219 -5.39437,-8.03e-4 -8.32422,0.02344 l -0.0566,12.789062 0.17187,-1.644531 c 0,0 0.12917,0.104469 0.35157,0.314453 0.003,0.0024 9e-4,0.0014 0.004,0.0039 0.22223,0.209985 0.53579,0.523071 0.9082,0.94336 0.006,0.0066 0.008,0.009 0.0137,0.01563 0.0478,0.05401 0.10279,0.124178 0.15234,0.18164 0.11446,0.132614 0.23077,0.270829 0.35352,0.421875 0.009,0.0095 0.0168,0.01977 0.0254,0.0293 2.93354,3.265464 6.24805,8.442989 5.78515,18.94336 l -0.90234,-0.0059 0.10937,0.435547 12.54493,-0.238281 0.004,-0.02734 -0.12695,-0.08203 c 0,0 -1.00945,-5.323611 0.55078,-11.931641 1.56023,-6.60803 8.44428,-15.877561 22.57813,-9.269531 12.77532,5.972882 21.27795,17.470435 22.80859,19.644531 l 1.16406,-0.80664 c -1.99064,-3.845652 -5.33735,-7.551362 -7.80469,-10.050782 -19.71394,-17.320073 -31.87606,-19.536184 -50.31054,-19.689453 z m 30.06445,15.03125 c -1.59081,-0.002 -2.51061,0.502666 3.89453,3.212891 9.76464,4.13174 20.33877,16.244669 21.13672,17.416015 l 0.92383,-0.93164 -2.14063,-4.064453 C 418.00016,-50.464658 406.11914,-55.25 406.11914,-55.25 c 0,0 -1.1959,-0.184356 -2.15039,-0.185547 z m -32.46484,5.794922 c 0.17309,0.588758 0.33077,1.203983 0.46679,1.847656 -0.13621,-0.643235 -0.29354,-1.259307 -0.46679,-1.847656 z m 0.46679,1.849609 c 0.11913,0.563956 0.21642,1.159335 0.30078,1.765625 -0.0847,-0.60728 -0.18123,-1.200841 -0.30078,-1.765625 z m 0.34571,2.044922 c 0.0769,0.60149 0.12521,1.232552 0.16211,1.875 -0.037,-0.642378 -0.0851,-1.273592 -0.16211,-1.875 z m 0.1875,2.189453 c 0.0338,0.739919 0.0407,1.505456 0.0137,2.298829 0.0271,-0.794329 0.0203,-1.558104 -0.0137,-2.298829 z m 0.0117,2.353516 c -0.0282,0.784148 -0.0899,1.595197 -0.18554,2.431641 0.0956,-0.836473 0.1574,-1.647487 0.18554,-2.431641 z m 59.51563,0.492187 c -3e-4,0.0033 -0.002,0.0065 -0.002,0.0098 l 0.006,-0.0039 z m -2.10156,4.988282 c -0.004,0.04525 -0.0131,0.08414 -0.0176,0.128906 l 0.0547,-0.06055 z"
         transform="translate(0,956.36218)"
         id="path430"
         style="fill:url(#o)"
         inkscape:connector-curvature="0" />
      <path
         d="m -332.53217,883.63 c 1.46878,7.9751 1.65097,10.31862 0,20.24786 z"
         transform="scale(-1,1)"
         id="path432"
         inkscape:connector-curvature="0"
         style="fill:#5b5a60" />
      <rect
         height="3.487572"
         rx="1.743786"
         transform="matrix(1.0416015,0,0,1.1875727,-15.929152,-197.13614)"
         width="23.862333"
         x="370.9675"
         y="1049.2417"
         id="rect434"
         style="fill:#323033;filter:url(#p)" />
      <rect
         height="3.487572"
         rx="1.743786"
         width="23.862333"
         x="370.9675"
         y="1049.2417"
         id="rect436"
         style="fill:#060509" />
    </g>
  </g>
</svg>
