<?xml version="1.0" encoding="UTF-8" standalone="no"?>
<!-- Created with Inkscape (http://www.inkscape.org/) -->

<svg
   xmlns:osb="http://www.openswatchbook.org/uri/2009/osb"
   xmlns:dc="http://purl.org/dc/elements/1.1/"
   xmlns:cc="http://creativecommons.org/ns#"
   xmlns:rdf="http://www.w3.org/1999/02/22-rdf-syntax-ns#"
   xmlns:svg="http://www.w3.org/2000/svg"
   xmlns="http://www.w3.org/2000/svg"
   xmlns:xlink="http://www.w3.org/1999/xlink"
   xmlns:sodipodi="http://sodipodi.sourceforge.net/DTD/sodipodi-0.dtd"
   xmlns:inkscape="http://www.inkscape.org/namespaces/inkscape"
   width="128"
   height="128"
   viewBox="0 0 33.866665 33.866665"
   version="1.1"
   id="svg4942"
   inkscape:version="0.92.2 5c3e80d, 2017-08-06"
   sodipodi:docname="application-network.svg"
   inkscape:export-filename="C:\Users\Balasakthi\Desktop\Network.png"
   inkscape:export-xdpi="96"
   inkscape:export-ydpi="96">
  <defs
     id="defs4936">
    <linearGradient
       id="linearGradient6088"
       osb:paint="solid">
      <stop
         style="stop-color:#51b3e3;stop-opacity:1;"
         offset="0"
         id="stop6086" />
    </linearGradient>
    <linearGradient
       id="linearGradient6987"
       osb:paint="solid">
      <stop
         style="stop-color:#77d2fb;stop-opacity:1;"
         offset="0"
         id="stop6985" />
    </linearGradient>
    <linearGradient
       id="linearGradient4254"
       inkscape:collect="always">
      <stop
         id="stop4256"
         offset="0"
         style="stop-color:#bec9ec;stop-opacity:1" />
      <stop
         style="stop-color:#69759a;stop-opacity:1"
         offset="0.41037315"
         id="stop4258" />
      <stop
         id="stop4262"
         offset="0.72843254"
         style="stop-color:#55576e;stop-opacity:1" />
      <stop
         id="stop4260"
         offset="1"
         style="stop-color:#23263a;stop-opacity:1" />
    </linearGradient>
    <radialGradient
       inkscape:collect="always"
       xlink:href="#linearGradient4254"
       id="radialGradient1649"
       cx="20.909721"
       cy="273.02518"
       fx="20.909721"
       fy="273.02518"
       r="16.668755"
       gradientTransform="matrix(0.59337078,1.2149371,-1.0985459,0.53652578,308.24383,101.21944)"
       gradientUnits="userSpaceOnUse" />
  </defs>
  <sodipodi:namedview
     id="base"
     pagecolor="#ffffff"
     bordercolor="#666666"
     borderopacity="1.0"
     inkscape:pageopacity="0.0"
     inkscape:pageshadow="2"
     inkscape:zoom="1.6222764"
     inkscape:cx="-93.263017"
     inkscape:cy="28.003295"
     inkscape:document-units="mm"
     inkscape:current-layer="layer1"
     showgrid="false"
     units="px"
     width="128px"
     inkscape:window-width="1600"
     inkscape:window-height="803"
     inkscape:window-x="0"
     inkscape:window-y="0"
     inkscape:window-maximized="1"
     showguides="false"
     inkscape:lockguides="true" />
  <metadata
     id="metadata4939">
    <rdf:RDF>
      <cc:Work
         rdf:about="">
        <dc:format>image/svg+xml</dc:format>
        <dc:type
           rdf:resource="http://purl.org/dc/dcmitype/StillImage" />
        <dc:title />
      </cc:Work>
    </rdf:RDF>
  </metadata>
  <g
     inkscape:label="Layer 1"
     inkscape:groupmode="layer"
     id="layer1"
     transform="translate(0,-263.13332)">
    <g
       id="g861"
       transform="matrix(0.98437497,0,0,0.98437497,0.26458299,4.3760584)">
      <circle
         r="15.874995"
         cy="280.31863"
         cx="16.933329"
         id="path838"
         style="opacity:0.25;fill:#000000;fill-opacity:1;stroke:none;stroke-width:0.05710226;stroke-miterlimit:4;stroke-dasharray:none;stroke-opacity:1" />
      <ellipse
         ry="15.858206"
         rx="15.774322"
         cy="279.82321"
         cx="16.915407"
         id="path1055"
         style="opacity:1;fill:#ffffff;fill-opacity:1;stroke:none;stroke-width:0.23423773;stroke-linecap:round;stroke-linejoin:round;stroke-miterlimit:4;stroke-dasharray:none;stroke-opacity:1" />
      <path
         inkscape:connector-curvature="0"
         id="circle4881"
         d="m 16.933272,263.93966 a 15.874977,15.874977 0 0 0 -6.917353,1.61336 c -0.7321156,1.6903 -1.5148927,4.07234 -1.7110242,6.96663 -0.041805,0.61602 -0.055658,1.25157 -0.038797,1.90152 1.1939624,-2.56892 2.8243072,-4.69645 4.5102262,-6.33791 2.108018,-2.0533 4.239397,-3.30205 5.829055,-4.03543 a 15.874977,15.874977 0 0 0 -1.672107,-0.10817 z m 2.22586,0.16156 c -0.0851,0.0423 -0.171754,0.0858 -0.260847,0.13124 -1.547845,0.78932 -3.672406,2.09132 -5.770674,4.20546 -1.84157,1.85633 -3.6164903,4.30536 -4.7871676,7.28011 2.63e-5,2.3e-4 1.035e-4,4.9e-4 1.277e-4,9.6e-4 0.5242626,0.15202 1.0754899,0.28058 1.6533955,0.3771 1.7865204,0.29902 3.7620034,0.27647 5.7727934,-0.18674 1.22181,-0.28147 2.364,-0.70482 3.403472,-1.23474 -0.06793,-1.4176 0.03896,-2.7704 0.259849,-4.00139 0.445535,-2.48699 1.33195,-4.40534 2.077412,-5.66526 0.06274,-0.10603 0.123875,-0.20565 0.184125,-0.30239 a 15.874977,15.874977 0 0 0 -2.532486,-0.60439 z m 2.804558,0.68573 c -0.06267,0.11737 -0.126022,0.23659 -0.192481,0.36638 -0.656383,1.28192 -1.449757,3.17939 -1.83291,5.60551 -0.176614,1.12042 -0.261249,2.33966 -0.207328,3.6133 0.04699,-0.0267 0.09419,-0.0531 0.140711,-0.0802 2.530191,-1.47222 4.203222,-3.48301 5.244741,-5.1805 -0.615538,-1.0909 -1.260308,-2.06473 -1.889293,-2.91334 -0.367515,-0.49584 -0.722962,-0.94454 -1.059477,-1.35001 a 15.874977,15.874977 0 0 0 -0.203963,-0.0611 z m 0.920138,0.3458 c 0.218744,0.25478 0.442809,0.52533 0.671138,0.81436 0.616049,0.77978 1.245416,1.67354 1.849993,2.67507 0.05689,-0.10069 0.112667,-0.20059 0.164922,-0.29803 0.268443,-0.50056 0.48229,-0.95505 0.655042,-1.354 a 15.874977,15.874977 0 0 0 -3.341095,-1.8374 z m -13.3287225,0.6432 a 15.874977,15.874977 0 0 0 -6.8007097,6.95726 c 0.164364,0.1349 0.3406722,0.27531 0.530924,0.4204 1.0627532,0.81046 2.5788528,1.75081 4.493262,2.3899 -0.071702,-1.05727 -0.061176,-2.0845 0.020346,-3.06216 0.2305498,-2.76237 0.9952853,-5.04359 1.7561845,-6.7054 z m 16.8938645,1.35313 c -0.141202,0.40107 -0.324323,0.85556 -0.562857,1.35512 -0.07952,0.16654 -0.16604,0.3383 -0.258852,0.51371 0.492498,0.84681 0.964611,1.76675 1.395793,2.75555 1.000378,-0.5696 1.923217,-0.99291 2.707637,-1.30337 a 15.874977,15.874977 0 0 0 -3.281721,-3.32101 z m -1.108997,2.38578 c -1.01243,1.73879 -2.664082,3.75878 -5.183243,5.26097 -0.12735,0.0759 -0.256983,0.14963 -0.387834,0.22216 0.06869,0.88389 0.205835,1.78989 0.426885,2.70402 1.600633,-2.07661 3.424704,-3.70176 5.170016,-4.90743 0.40144,-0.27731 0.796283,-0.53072 1.181476,-0.76282 -0.375122,-0.89443 -0.782549,-1.73443 -1.2073,-2.5169 z m 4.58208,1.18684 c -0.784133,0.35484 -1.717362,0.82514 -2.730712,1.44657 0.760378,1.8235 1.376648,3.87184 1.721257,6.12696 0.130046,0.851 0.215041,1.69383 0.257606,2.5245 0.03359,0.65825 0.04024,1.30161 0.02508,1.93009 1.399462,-0.39605 2.58412,-0.84651 3.521111,-1.24684 a 15.874977,15.874977 0 0 0 0.09194,-1.66838 15.874977,15.874977 0 0 0 -2.886272,-9.1129 z m -3.204625,1.7451 c -0.351828,0.22711 -0.711374,0.47137 -1.076688,0.73625 -1.779841,1.29052 -3.645126,3.02021 -5.257217,5.22577 0.03823,0.13229 0.07771,0.26452 0.119637,0.39695 0.01119,0.0354 0.02248,0.0707 0.03392,0.10616 0.594967,1.83917 1.479132,3.4622 2.487832,4.84605 1.671062,-0.0906 3.232408,-0.32521 4.643581,-0.6412 0.328293,-0.0735 0.64628,-0.15145 0.955808,-0.23215 0.01546,-0.66778 0.0064,-1.35279 -0.0323,-2.05422 -0.04464,-0.81153 -0.12921,-1.635 -0.256357,-2.46699 -0.331174,-2.16714 -0.908821,-4.14459 -1.618217,-5.91662 z m -24.0936404,0.56597 a 15.874977,15.874977 0 0 0 -0.9138961,2.33565 c 0.641687,0.64162 1.5206975,1.46358 2.6498767,2.36407 0.6876469,0.54838 1.4638838,1.11398 2.3247821,1.66949 0.1263607,-0.67688 0.2873729,-1.35973 0.4870125,-2.04548 0.077099,-0.26481 0.159017,-0.52682 0.2456275,-0.78603 0.060113,-0.17974 0.1226367,-0.3575 0.1871205,-0.53366 -1.9618138,-0.70206 -3.4868231,-1.72156 -4.5279386,-2.60348 -0.1623314,-0.1375 -0.3120384,-0.2709 -0.4525846,-0.40056 z m 16.5872374,2.27913 c -1.017685,0.50765 -2.128598,0.91375 -3.313157,1.18671 -2.090755,0.4818 -4.144953,0.48977 -5.9974638,0.15382 -0.5235097,-0.0951 -1.0241771,-0.21638 -1.5024512,-0.35715 0.1780192,1.53638 0.5346347,3.12548 1.1136193,4.71145 1.9222907,0.94984 4.1316667,1.7681 6.6114647,2.27314 0.192554,0.0392 0.386272,0.0764 0.581073,0.11164 0.09769,0.0176 0.195061,0.0342 0.292405,0.0507 0.279166,-0.73642 0.604036,-1.47839 0.982258,-2.22075 0.08354,-0.16385 0.169494,-0.32721 0.257728,-0.49 0.462577,-0.85342 0.967725,-1.65102 1.502451,-2.39539 -0.276199,-1.02267 -0.445596,-2.03678 -0.527927,-3.02412 z m -17.5721135,0.33445 a 15.874977,15.874977 0 0 0 -0.5805768,4.18825 15.874977,15.874977 0 0 0 7.887505,13.69411 c -0.8591719,-1.54835 -1.7496489,-3.62419 -2.2413295,-6.16077 -0.4357961,-2.24918 -0.5376428,-4.79546 -0.110023,-7.44713 -0.9349745,-0.62098 -1.7676799,-1.25747 -2.4934446,-1.8742 -1.0608969,-0.90153 -1.8708654,-1.72976 -2.4621311,-2.40026 z m 6.2763981,1.28089 c -0.063424,0.19606 -0.1249818,0.39328 -0.1830088,0.59256 -0.216426,0.74334 -0.3876232,1.48337 -0.5183216,2.216 0.491073,0.30195 1.0074784,0.59914 1.5488579,0.88708 -0.4086111,-1.2431 -0.6843965,-2.48367 -0.8475275,-3.69564 z m 12.0320974,2.11921 c -0.422061,0.6193 -0.823703,1.27307 -1.197569,1.96314 -0.08591,0.15856 -0.16954,0.31766 -0.250995,0.47716 -0.34953,0.68395 -0.654545,1.36784 -0.920258,2.04723 1.654343,0.24231 3.253858,0.31817 4.7702,0.27269 -0.964937,-1.34797 -1.804521,-2.91763 -2.379176,-4.69099 -0.0075,-0.023 -0.01482,-0.0461 -0.02221,-0.0693 z m -12.820624,1.2184 c -0.3800786,2.48949 -0.2971501,4.88093 0.081462,7.00954 0.4895073,2.75342 1.4468703,4.98199 2.308564,6.58179 a 15.874977,15.874977 0 0 0 6.372705,1.81655 c -0.116092,-0.61668 -0.219192,-1.32197 -0.289042,-2.11359 -0.08619,-0.97667 -0.114621,-2.06774 -0.05027,-3.23905 -2.19933,-1.73803 -4.276684,-4.11587 -5.7446002,-7.12705 -0.031149,-0.064 -0.06203,-0.12812 -0.09256,-0.19248 C 9.454033,282.43452 9.2237803,281.88571 9.0198162,281.33639 8.3511579,280.98616 7.720479,280.6195 7.1267845,280.24485 Z m 2.6715806,1.48362 c 0.1372012,0.33466 0.2843514,0.66882 0.4423534,1.00184 0.02966,0.0626 0.05958,0.12481 0.08982,0.18688 1.360151,2.79266 3.249567,5.04047 5.264325,6.73658 0.146288,-1.76693 0.507985,-3.69443 1.199063,-5.67411 -0.06453,-0.0111 -0.128914,-0.0219 -0.193604,-0.0335 -0.199193,-0.0359 -0.397281,-0.0741 -0.594174,-0.11439 -2.310533,-0.47321 -4.384807,-1.22232 -6.2077808,-2.10336 z m 22.8632574,0.11676 c -0.930014,0.44338 -2.099099,0.92572 -3.481683,1.34865 -0.02272,0.53769 -0.06159,1.06357 -0.114771,1.57655 1.082865,-0.36302 2.143799,-0.57197 3.132772,-0.66453 a 15.874977,15.874977 0 0 0 0.463682,-2.26067 z m -4.052279,1.51593 c -0.270158,0.0761 -0.546871,0.1497 -0.831688,0.21993 -1.326381,0.32706 -2.790019,0.57805 -4.355916,0.70096 0.428251,0.54518 0.873925,1.04954 1.32581,1.51055 0.260911,0.26603 0.5224,0.51506 0.783034,0.75136 0.973755,-0.6751 1.973834,-1.18841 2.962994,-1.56845 0.05372,-0.52487 0.09305,-1.06335 0.115766,-1.61435 z m -11.240334,0.71181 c -0.753327,2.0862 -1.142811,4.11775 -1.304848,5.96415 0.342461,0.27149 0.687513,0.5279 1.033398,0.76795 1.205874,0.83701 2.400675,1.47204 3.514627,1.9594 0.608046,-1.53586 1.59647,-3.23896 3.153226,-4.76435 0.417088,-0.40828 0.869271,-0.79616 1.354003,-1.15927 -0.24568,-0.21482 -0.491981,-0.44123 -0.737748,-0.68187 -0.559568,-0.54757 -1.109844,-1.15944 -1.631066,-1.83253 -1.696956,0.0909 -3.50439,0.028 -5.381592,-0.25348 z m 14.657903,0.54926 c -0.964018,0.13427 -1.990251,0.37785 -3.032974,0.76631 -0.148947,1.16409 -0.369465,2.25649 -0.632721,3.26863 0.430477,0.26169 0.835593,0.4851 1.202062,0.67313 0.0025,9.6e-4 0.0043,0.002 0.0066,0.004 a 15.874977,15.874977 0 0 0 2.457019,-4.71143 z m -3.607438,0.99473 c -0.81411,0.34423 -1.632964,0.78125 -2.43556,1.32544 0.669315,0.56818 1.325638,1.04412 1.939192,1.4407 0.201853,-0.86762 0.372933,-1.79181 0.496368,-2.76614 z m -2.84161,1.61036 c -0.506596,0.37041 -0.977771,0.76727 -1.411261,1.18547 -1.502106,1.44773 -2.48741,3.06701 -3.126659,4.53343 1.113501,0.45852 2.13332,0.76997 2.980453,0.98388 0.02182,0.006 0.04214,0.0103 0.06375,0.0158 a 15.874977,15.874977 0 0 0 2.633284,-1.68209 c 0.0041,-0.0104 0.008,-0.0199 0.01208,-0.0303 0.391278,-1.0012 0.776217,-2.15843 1.096527,-3.44801 -0.70621,-0.40983 -1.469223,-0.92238 -2.248186,-1.5581 z m 2.683558,1.80247 c -0.268236,0.97248 -0.574286,1.86661 -0.893191,2.67021 a 15.874977,15.874977 0 0 0 2.004184,-2.1232 c -0.342467,-0.15207 -0.715374,-0.33303 -1.110993,-0.54701 z m -12.243668,1.6287 c -0.06362,1.02277 -0.05926,1.98138 -0.01123,2.85146 0.04433,0.8031 0.11897,1.52388 0.204465,2.15414 a 15.874977,15.874977 0 0 0 0.722285,0.0256 15.874977,15.874977 0 0 0 2.929929,-0.28568 c 0.03736,-0.21324 0.08233,-0.43826 0.136471,-0.67488 0.111041,-0.48523 0.262688,-1.01502 0.463939,-1.57168 -1.153503,-0.46793 -2.394327,-1.09357 -3.650226,-1.93583 -0.265949,-0.17839 -0.531344,-0.36644 -0.795634,-0.56311 z m 4.864635,2.6636 c -0.214221,0.53024 -0.383829,1.03617 -0.516456,1.50094 -0.0505,0.17704 -0.09503,0.34599 -0.1366,0.51035 a 15.874977,15.874977 0 0 0 3.434041,-1.17837 c -0.809565,-0.17823 -1.75509,-0.44312 -2.780985,-0.83292 z"
         style="opacity:1;fill:url(#radialGradient1649);fill-opacity:1;stroke:none;stroke-width:0.2424358;stroke-linecap:round;stroke-linejoin:round;stroke-miterlimit:4;stroke-dasharray:none;stroke-opacity:1" />
      <g
         transform="matrix(0.22020905,0,0,0.22020905,-41.211459,228.66439)"
         id="g4742">
        <path
           style="opacity:1;fill:#ffffff;fill-opacity:1;stroke:none;stroke-width:1.9481889;stroke-linecap:round;stroke-linejoin:round;stroke-miterlimit:4;stroke-dasharray:none;stroke-dashoffset:0;stroke-opacity:1"
           d="m 229.85538,212.75606 a 5.7606394,5.7606394 0 0 1 -5.76064,5.76064 5.7606394,5.7606394 0 0 1 -5.76064,-5.76064 5.7606394,5.7606394 0 0 1 5.76064,-5.76064 5.7606394,5.7606394 0 0 1 5.76064,5.76064 z"
           id="path4807"
           inkscape:connector-curvature="0" />
        <path
           style="opacity:1;fill:#ffffff;fill-opacity:1;stroke:none;stroke-width:2.24708557;stroke-linecap:round;stroke-linejoin:round;stroke-miterlimit:4;stroke-dasharray:none;stroke-dashoffset:0;stroke-opacity:1"
           d="m 232.9969,238.33679 a 3.2500039,3.2500039 0 0 1 -3.25001,3.25001 3.2500039,3.2500039 0 0 1 -3.24999,-3.25001 3.2500039,3.2500039 0 0 1 3.24999,-3.25 3.2500039,3.2500039 0 0 1 3.25001,3.25 z"
           id="path4809"
           inkscape:connector-curvature="0" />
        <path
           style="opacity:1;fill:#ffffff;fill-opacity:1;stroke:none;stroke-width:2.24708176;stroke-linecap:round;stroke-linejoin:round;stroke-miterlimit:4;stroke-dasharray:none;stroke-dashoffset:0;stroke-opacity:1"
           d="m 221.03518,231.43565 a 3.2499979,3.2499979 0 0 1 -3.25,3.25 3.2499979,3.2499979 0 0 1 -3.25,-3.25 3.2499979,3.2499979 0 0 1 3.25,-3.25 3.2499979,3.2499979 0 0 1 3.25,3.25 z"
           id="circle4811"
           inkscape:connector-curvature="0" />
        <path
           style="opacity:1;fill:#ffffff;fill-opacity:1;stroke:none;stroke-width:1.74204135;stroke-linecap:round;stroke-linejoin:round;stroke-miterlimit:4;stroke-dasharray:none;stroke-dashoffset:0;stroke-opacity:1"
           d="m 263.34176,278.83536 a 4.5925428,4.5925428 0 0 1 -4.59254,4.59254 4.5925428,4.5925428 0 0 1 -4.59255,-4.59254 4.5925428,4.5925428 0 0 1 4.59255,-4.59254 4.5925428,4.5925428 0 0 1 4.59254,4.59254 z"
           id="path4813"
           inkscape:connector-curvature="0" />
        <path
           style="opacity:1;fill:#ffffff;fill-opacity:1;stroke:none;stroke-width:1.74204135;stroke-linecap:round;stroke-linejoin:round;stroke-miterlimit:4;stroke-dasharray:none;stroke-dashoffset:0;stroke-opacity:1"
           d="m 271.27732,249.74203 a 6.0178152,6.0178152 0 0 1 -6.01781,6.01782 6.0178152,6.0178152 0 0 1 -6.01782,-6.01782 6.0178152,6.0178152 0 0 1 6.01782,-6.01781 6.0178152,6.0178152 0 0 1 6.01781,6.01781 z"
           id="path4815"
           inkscape:connector-curvature="0" />
        <path
           style="opacity:1;fill:#ffffff;fill-opacity:1;stroke:none;stroke-width:2.09721661;stroke-linecap:round;stroke-linejoin:round;stroke-miterlimit:4;stroke-dasharray:none;stroke-dashoffset:0;stroke-opacity:1"
           d="m 284.82209,225.30614 a 6.6727997,6.6727997 0 0 1 -6.6728,6.67279 6.6727997,6.6727997 0 0 1 -6.6728,-6.67279 6.6727997,6.6727997 0 0 1 6.6728,-6.67281 6.6727997,6.6727997 0 0 1 6.6728,6.67281 z"
           id="path4817"
           inkscape:connector-curvature="0" />
        <path
           style="opacity:1;fill:#ffffff;fill-opacity:1;stroke:none;stroke-width:2.38078976;stroke-linecap:round;stroke-linejoin:round;stroke-miterlimit:4;stroke-dasharray:none;stroke-dashoffset:0;stroke-opacity:1"
           d="m 278.57798,209.48226 a 3.2464526,3.2464526 0 0 1 -3.24646,3.24646 3.2464526,3.2464526 0 0 1 -3.24645,-3.24646 3.2464526,3.2464526 0 0 1 3.24645,-3.24645 3.2464526,3.2464526 0 0 1 3.24646,3.24645 z"
           id="path4819"
           inkscape:connector-curvature="0" />
        <path
           style="opacity:1;fill:#ffffff;fill-opacity:1;stroke:none;stroke-width:2.38454223;stroke-linecap:round;stroke-linejoin:round;stroke-miterlimit:4;stroke-dasharray:none;stroke-dashoffset:0;stroke-opacity:1"
           d="m 306.26578,183.01565 a 4.3354263,4.3354263 0 0 1 -4.33543,4.33542 4.3354263,4.3354263 0 0 1 -4.33541,-4.33542 4.3354263,4.3354263 0 0 1 4.33541,-4.33543 4.3354263,4.3354263 0 0 1 4.33543,4.33543 z"
           id="path4821"
           inkscape:connector-curvature="0" />
        <path
           style="opacity:1;fill:#ffffff;fill-opacity:1;stroke:none;stroke-width:1.82748067;stroke-linecap:round;stroke-linejoin:round;stroke-miterlimit:4;stroke-dasharray:none;stroke-dashoffset:0;stroke-opacity:1"
           d="m 313.34268,197.07045 a 3.876578,3.876578 0 0 1 -3.87659,3.87658 3.876578,3.876578 0 0 1 -3.87657,-3.87658 3.876578,3.876578 0 0 1 3.87657,-3.87657 3.876578,3.876578 0 0 1 3.87659,3.87657 z"
           id="path4823"
           inkscape:connector-curvature="0" />
        <path
           style="opacity:1;fill:#ffffff;fill-opacity:1;stroke:none;stroke-width:2.28951216;stroke-linecap:round;stroke-linejoin:round;stroke-miterlimit:4;stroke-dasharray:none;stroke-dashoffset:0;stroke-opacity:1"
           d="m 284.34998,292.046 a 3.3113662,3.3113662 0 0 1 -3.31137,3.31136 3.3113662,3.3113662 0 0 1 -3.31137,-3.31136 3.3113662,3.3113662 0 0 1 3.31137,-3.31137 3.3113662,3.3113662 0 0 1 3.31137,3.31137 z"
           id="path4825"
           inkscape:connector-curvature="0" />
        <path
           style="opacity:1;fill:#ffffff;fill-opacity:1;stroke:none;stroke-width:2.07422948;stroke-linecap:round;stroke-linejoin:round;stroke-miterlimit:4;stroke-dasharray:none;stroke-dashoffset:0;stroke-opacity:1"
           d="m 306.45659,264.13686 a 2.9999986,2.9999986 0 0 1 -3,3 2.9999986,2.9999986 0 0 1 -3,-3 2.9999986,2.9999986 0 0 1 3,-3 2.9999986,2.9999986 0 0 1 3,3 z"
           id="circle4827"
           inkscape:connector-curvature="0" />
        <path
           style="opacity:1;fill:#ffffff;fill-opacity:1;stroke:none;stroke-width:2.07422924;stroke-linecap:round;stroke-linejoin:round;stroke-miterlimit:4;stroke-dasharray:none;stroke-dashoffset:0;stroke-opacity:1"
           d="m 321.04254,256.24799 a 2.9999988,2.9999988 0 0 1 -3,3 2.9999988,2.9999988 0 0 1 -3,-3 2.9999988,2.9999988 0 0 1 3,-3 2.9999988,2.9999988 0 0 1 3,3 z"
           id="circle4829"
           inkscape:connector-curvature="0" />
        <path
           style="opacity:1;fill:#ffffff;fill-opacity:1;stroke:none;stroke-width:2.07422948;stroke-linecap:round;stroke-linejoin:round;stroke-miterlimit:4;stroke-dasharray:none;stroke-dashoffset:0;stroke-opacity:1"
           d="m 317.88966,272.15785 a 2.9999986,2.9999986 0 0 1 -3,3 2.9999986,2.9999986 0 0 1 -3,-3 2.9999986,2.9999986 0 0 1 3,-3 2.9999986,2.9999986 0 0 1 3,3 z"
           id="circle4831"
           inkscape:connector-curvature="0" />
        <path
           style="opacity:1;fill:#ffffff;fill-opacity:1;stroke:none;stroke-width:1.04691172;stroke-linecap:round;stroke-linejoin:round;stroke-miterlimit:4;stroke-dasharray:none;stroke-dashoffset:0;stroke-opacity:1"
           d="m 321.844,246.70089 a 3.331002,3.331002 0 0 1 -3.331,3.331 3.331002,3.331002 0 0 1 -3.331,-3.331 3.331002,3.331002 0 0 1 3.331,-3.331 3.331002,3.331002 0 0 1 3.331,3.331 z"
           id="circle4833"
           inkscape:connector-curvature="0" />
      </g>
    </g>
  </g>
</svg>
