<?xml version="1.0" encoding="UTF-8" standalone="no"?>
<svg
   xmlns:dc="http://purl.org/dc/elements/1.1/"
   xmlns:cc="http://creativecommons.org/ns#"
   xmlns:rdf="http://www.w3.org/1999/02/22-rdf-syntax-ns#"
   xmlns:svg="http://www.w3.org/2000/svg"
   xmlns="http://www.w3.org/2000/svg"
   xmlns:xlink="http://www.w3.org/1999/xlink"
   xmlns:sodipodi="http://sodipodi.sourceforge.net/DTD/sodipodi-0.dtd"
   xmlns:inkscape="http://www.inkscape.org/namespaces/inkscape"
   height="128"
   width="128"
   version="1.1"
   viewBox="0 0 128 128"
   id="svg14"
   sodipodi:docname="armagetronad.svg"
   inkscape:version="0.92.3 (2405546, 2018-03-11)">
  <metadata
     id="metadata20">
    <rdf:RDF>
      <cc:Work
         rdf:about="">
        <dc:format>image/svg+xml</dc:format>
        <dc:type
           rdf:resource="http://purl.org/dc/dcmitype/StillImage" />
        <dc:title></dc:title>
      </cc:Work>
    </rdf:RDF>
  </metadata>
  <defs
     id="defs18">
    <linearGradient
       inkscape:collect="always"
       id="linearGradient2012">
      <stop
         style="stop-color:#ebcd5c;stop-opacity:1"
         offset="0"
         id="stop2008" />
      <stop
         style="stop-color:#c79730;stop-opacity:1"
         offset="1"
         id="stop2010" />
    </linearGradient>
    <linearGradient
       inkscape:collect="always"
       id="linearGradient1992">
      <stop
         style="stop-color:#54524a;stop-opacity:1"
         offset="0"
         id="stop1988" />
      <stop
         style="stop-color:#32302b;stop-opacity:1"
         offset="1"
         id="stop1990" />
    </linearGradient>
    <linearGradient
       inkscape:collect="always"
       id="linearGradient1984">
      <stop
         style="stop-color:#f1d35f;stop-opacity:1"
         offset="0"
         id="stop1980" />
      <stop
         style="stop-color:#f3b83b;stop-opacity:1"
         offset="1"
         id="stop1982" />
    </linearGradient>
    <linearGradient
       inkscape:collect="always"
       xlink:href="#linearGradient1984"
       id="linearGradient1986"
       x1="32"
       y1="69"
       x2="34.779659"
       y2="120.40678"
       gradientUnits="userSpaceOnUse"
       gradientTransform="translate(-0.3998505,0.39985)" />
    <linearGradient
       inkscape:collect="always"
       xlink:href="#linearGradient1992"
       id="linearGradient1994"
       x1="32.513393"
       y1="76.025002"
       x2="31.483814"
       y2="115.975"
       gradientUnits="userSpaceOnUse"
       gradientTransform="translate(-0.3998505,0.39985)" />
    <linearGradient
       inkscape:collect="always"
       xlink:href="#linearGradient2012"
       id="linearGradient2014"
       x1="31.600149"
       y1="68.399849"
       x2="30.390108"
       y2="124.01297"
       gradientUnits="userSpaceOnUse" />
  </defs>
  <sodipodi:namedview
     pagecolor="#ffffff"
     bordercolor="#666666"
     borderopacity="1"
     objecttolerance="10"
     gridtolerance="10"
     guidetolerance="10"
     inkscape:pageopacity="0"
     inkscape:pageshadow="2"
     inkscape:window-width="1533"
     inkscape:window-height="837"
     id="namedview16"
     showgrid="false"
     inkscape:zoom="1.3037281"
     inkscape:cx="-40.271156"
     inkscape:cy="-19.053652"
     inkscape:window-x="67"
     inkscape:window-y="27"
     inkscape:window-maximized="1"
     inkscape:current-layer="svg14" />
  <g
     id="g2022"
     transform="matrix(2.0492195,0,0,2.0492195,-0.75564287,-133.54445)">
    <path
       d="M 31.600149,67.120409 A 29.279441,29.279441 0 0 0 2.3207083,96.39985 29.279441,29.279441 0 0 0 31.600149,125.67929 29.279441,29.279441 0 0 0 60.879591,96.39985 29.279441,29.279441 0 0 0 31.600149,67.120409 Z"
       style="fill:url(#linearGradient2014);fill-opacity:1;stroke-width:1.04569399"
       id="path1996"
       inkscape:connector-curvature="0" />
    <path
       inkscape:connector-curvature="0"
       id="path4"
       style="fill:url(#linearGradient1986);fill-opacity:1"
       d="m 31.600149,68.39985 a 28,28 0 0 0 -27.9999995,28 28,28 0 0 0 27.9999995,28 28,28 0 0 0 28,-28 28,28 0 0 0 -28,-28 z" />
    <path
       inkscape:connector-curvature="0"
       id="path6"
       d="m 32.113543,76.42485 c -0.19242,0.573377 -0.371782,1.076632 -0.583152,1.774564 -0.700503,2.313035 -1.366534,5.155968 -1.358822,6.766224 0.0072,1.537802 0.674708,4.268046 1.369984,6.487198 0.178241,0.5688 0.270452,0.789586 0.42132,1.233268 0.205278,-0.415184 0.297784,-0.6411 0.563624,-1.14956 1.129056,-2.159554 2.541906,-4.6501 4.12111,-6.244456 1.630154,-1.64586 4.196752,-3.137622 6.42582,-4.330383 0.28378,-0.15185 0.467357,-0.231807 0.73661,-0.371095 A 20.000112,20.000112 0 0 0 32.113543,76.42485 Z m -3.060844,0.16183 A 20.000112,20.000112 0 0 0 17.83612,81.902001 c 0.267291,0.535258 0.495641,1.009251 0.83706,1.646215 1.137289,2.121774 2.666834,4.601092 3.839304,5.784072 1.163782,1.174198 3.730665,2.795298 5.937536,4.009508 0.33757,0.18572 0.569872,0.295886 0.876122,0.457596 -0.17572,-0.510926 -0.299186,-0.818054 -0.510604,-1.492758 -0.728671,-2.325398 -1.490412,-5.085792 -1.501129,-7.329838 -0.011,-2.316491 0.748817,-5.186476 1.481594,-7.606069 0.09328,-0.308136 0.16474,-0.495073 0.256696,-0.784047 z m 17.042508,6.046351 c -0.543489,0.270303 -1.027714,0.502333 -1.67412,0.848219 -2.130894,1.14023 -4.611842,2.678494 -5.745006,3.82257 -1.082178,1.092606 -2.541342,3.494464 -3.618886,5.555274 -0.275276,0.526524 -0.365398,0.746914 -0.571986,1.166304 0.42495,-0.14328 0.711388,-0.254498 1.208156,-0.41016 2.325396,-0.72867 5.085792,-1.490412 7.329838,-1.501128 2.316492,-0.011 5.186472,0.748818 7.606066,1.481594 0.308136,0.09328 0.495074,0.16474 0.78405,0.256702 A 20.000112,20.000112 0 0 0 46.095207,82.633031 Z M 15.79091,84.18996 a 20.000112,20.000112 0 0 0 -4.16576,11.693704 c 0.56543,0.18864 1.058483,0.361318 1.746661,0.5692 2.304504,0.696132 5.139723,1.368138 6.805284,1.375566 1.6532,0.0072 4.615006,-0.662486 7.03408,-1.364404 0.25857,-0.07504 0.419118,-0.1338 0.658482,-0.206474 -0.281696,-0.1492 -0.487016,-0.24492 -0.792412,-0.41295 -2.298678,-1.264728 -4.941616,-2.83422 -6.59323,-4.50058 C 18.841114,89.68642 17.340184,87.117544 16.150845,84.89867 16.003963,84.624642 15.92589,84.450226 15.79091,84.18996 Z m 27.243452,10.78131 c -1.537802,0.0072 -4.268046,0.67471 -6.487198,1.369986 -0.519784,0.1629 -0.801484,0.27317 -1.230478,0.41853 0.402608,0.19958 0.68432,0.32463 1.14677,0.566412 2.159554,1.129056 4.6501,2.541914 6.244456,4.121112 1.64586,1.63015 3.137622,4.19675 4.330382,6.42582 0.15186,0.28378 0.231808,0.46735 0.371092,0.73661 A 20.000112,20.000112 0 0 0 51.57515,96.913244 C 51.001772,96.72082 50.498517,96.541468 49.800586,96.330094 47.487549,95.62959 44.644618,94.963558 43.034362,94.97127 Z m -14.171396,3.96766 c -0.30504,0.09386 -0.518586,0.17062 -0.853799,0.267856 -2.519706,0.731114 -5.49707,1.489234 -7.843232,1.478804 -2.333809,-0.0102 -5.212839,-0.76755 -7.622813,-1.495548 -0.298023,-0.09006 -0.476321,-0.15966 -0.756142,-0.248322 a 20.000112,20.000112 0 0 0 5.31532,11.22216 c 0.535258,-0.26729 1.009251,-0.49564 1.646214,-0.83706 2.121773,-1.13729 4.601091,-2.66683 5.784073,-3.8393 1.174196,-1.16379 2.795298,-3.73067 4.009506,-5.93754 0.1297,-0.235736 0.205744,-0.394812 0.320873,-0.61105 z m 5.359966,0.46596 c 0.06442,0.212288 0.117359,0.355856 0.184139,0.585942 0.731114,2.519708 1.489235,5.497068 1.478804,7.843228 -0.0102,2.33381 -0.767554,5.21285 -1.495546,7.62282 -0.09006,0.29802 -0.15968,0.47632 -0.248325,0.75614 a 20.000112,20.000112 0 0 0 11.224952,-5.31811 c -0.270302,-0.54349 -0.502328,-1.02771 -0.848216,-1.67412 -1.140231,-2.13089 -2.678492,-4.61184 -3.822568,-5.74501 -1.092606,-1.08218 -3.494466,-2.54134 -5.555274,-3.618878 -0.379736,-0.198554 -0.585342,-0.285812 -0.917974,-0.452012 z m -2.765081,0.72545 c -0.1457,0.27601 -0.244954,0.48707 -0.412952,0.79241 -1.264726,2.29868 -2.834216,4.94162 -4.50058,6.59323 -1.657604,1.64291 -4.226475,3.14384 -6.445352,4.33318 -0.274025,0.1469 -0.448443,0.22495 -0.708707,0.35993 a 20.000112,20.000112 0 0 0 11.693703,4.16576 c 0.18864,-0.56543 0.361316,-1.05848 0.569198,-1.74666 0.696134,-2.30451 1.368136,-5.13972 1.375568,-6.80529 0.0072,-1.6532 -0.662488,-4.615 -1.364406,-7.03408 -0.07504,-0.25857 -0.13496,-0.42402 -0.206472,-0.65848 z"
       style="fill:url(#linearGradient1994);fill-opacity:1;stroke-width:3.391958;stroke-linecap:round;stroke-linejoin:round" />
    <circle
       id="circle10"
       style="fill:#cccccc;stroke-width:1.35677588;stroke-linecap:round;stroke-linejoin:round"
       cx="31.600149"
       cy="96.399849"
       r="8" />
  </g>
</svg>
