<?xml version="1.0" encoding="UTF-8" standalone="no"?>
<!-- Created with Inkscape (http://www.inkscape.org/) -->

<svg
   xmlns:osb="http://www.openswatchbook.org/uri/2009/osb"
   xmlns:dc="http://purl.org/dc/elements/1.1/"
   xmlns:cc="http://creativecommons.org/ns#"
   xmlns:rdf="http://www.w3.org/1999/02/22-rdf-syntax-ns#"
   xmlns:svg="http://www.w3.org/2000/svg"
   xmlns="http://www.w3.org/2000/svg"
   xmlns:xlink="http://www.w3.org/1999/xlink"
   xmlns:sodipodi="http://sodipodi.sourceforge.net/DTD/sodipodi-0.dtd"
   xmlns:inkscape="http://www.inkscape.org/namespaces/inkscape"
   width="128"
   height="128"
   viewBox="0 0 33.866666 33.866668"
   version="1.1"
   id="svg8"
   inkscape:version="0.92.2 5c3e80d, 2017-08-06"
   sodipodi:docname="atom.svg">
  <defs
     id="defs2">
    <linearGradient
       inkscape:collect="always"
       id="linearGradient912">
      <stop
         style="stop-color:#0dbec0;stop-opacity:1"
         offset="0"
         id="stop908" />
      <stop
         style="stop-color:#3fdd90;stop-opacity:1"
         offset="1"
         id="stop910" />
    </linearGradient>
    <linearGradient
       osb:paint="solid"
       id="linearGradient6987">
      <stop
         id="stop6985"
         offset="0"
         style="stop-color:#77d2fb;stop-opacity:1;" />
    </linearGradient>
    <linearGradient
       inkscape:collect="always"
       xlink:href="#linearGradient912"
       id="linearGradient1747"
       gradientUnits="userSpaceOnUse"
       gradientTransform="matrix(0.24598092,0,0,0.24598092,75.73952,256.72914)"
       x1="-246.2551"
       y1="148.67415"
       x2="-245.41519"
       y2="61.378811" />
  </defs>
  <sodipodi:namedview
     id="base"
     pagecolor="#ffffff"
     bordercolor="#666666"
     borderopacity="1.0"
     inkscape:pageopacity="0.0"
     inkscape:pageshadow="2"
     inkscape:zoom="1.1949"
     inkscape:cx="13.639491"
     inkscape:cy="-13.948918"
     inkscape:document-units="mm"
     inkscape:current-layer="layer1"
     showgrid="false"
     units="px"
     inkscape:window-width="1600"
     inkscape:window-height="803"
     inkscape:window-x="0"
     inkscape:window-y="0"
     inkscape:window-maximized="1" />
  <metadata
     id="metadata5">
    <rdf:RDF>
      <cc:Work
         rdf:about="">
        <dc:format>image/svg+xml</dc:format>
        <dc:type
           rdf:resource="http://purl.org/dc/dcmitype/StillImage" />
        <dc:title />
      </cc:Work>
    </rdf:RDF>
  </metadata>
  <g
     inkscape:label="Layer 1"
     inkscape:groupmode="layer"
     id="layer1"
     transform="translate(0,-263.13332)">
    <g
       id="g922"
       transform="matrix(1.0774976,0,0,1.0774976,-1.3122917,-21.666794)">
      <circle
         style="opacity:0.25;fill:#000000;fill-opacity:1;stroke:none;stroke-width:0.2;stroke-miterlimit:4;stroke-dasharray:none;stroke-opacity:1"
         id="circle916"
         cx="16.933332"
         cy="280.34625"
         r="14.418624" />
      <circle
         r="14.418624"
         cy="279.81708"
         cx="16.933332"
         id="path4855"
         style="opacity:1;fill:url(#linearGradient1747);fill-opacity:1;stroke:#097e80;stroke-width:0.2;stroke-miterlimit:4;stroke-dasharray:none;stroke-opacity:1" />
      <path
         id="path914"
         style="opacity:0.25;fill:#000000;fill-opacity:1;stroke:none;stroke-width:0.05007424;stroke-miterlimit:4;stroke-dasharray:none;stroke-opacity:1"
         d="m 13.28848,271.35728 c -0.502751,0.0148 -0.855917,0.17595 -1.226303,0.5454 -0.519216,0.51791 -0.74157,1.17202 -0.781793,2.30151 -0.02369,0.66446 0.01688,1.21312 0.14622,1.97935 0.04625,0.2739 0.07837,0.50407 0.07117,0.51129 -0.0072,0.008 -0.275639,0.0812 -0.596094,0.16473 -1.5219888,0.3968 -2.4864071,0.86636 -3.1559286,1.53678 -0.3156608,0.31608 -0.4986936,0.61309 -0.6048665,0.98065 -0.08749,0.30288 -0.059486,0.83027 0.059467,1.11908 0.2778139,0.67448 0.8503415,1.25274 1.7707312,1.78877 0.2713002,0.15801 0.38272,0.204 0.5263928,0.21591 0.1748469,0.0145 0.1880108,0.009 0.3207117,-0.12331 0.1192877,-0.1193 0.1385325,-0.15946 0.138423,-0.28952 -1.726e-4,-0.21867 -0.09379,-0.34419 -0.3679885,-0.49616 -1.1107669,-0.61564 -1.6867758,-1.31707 -1.5650499,-1.90575 0.1573631,-0.76101 1.3621152,-1.4928 3.2100328,-1.95009 0.369791,-0.0915 0.454972,-0.10287 0.499587,-0.0658 0.02957,0.0245 0.0541,0.0654 0.0541,0.0911 0,0.0778 0.304129,1.03357 0.507388,1.5938 l 0.191059,0.52639 -0.293415,0.57904 c -1.238866,2.44468 -1.875627,4.83868 -1.682515,6.32648 0.107298,0.82661 0.416856,1.41563 0.918755,1.74879 0.556509,0.36939 1.242037,0.41317 2.082671,0.13355 0.720234,-0.23958 1.84615,-0.90031 1.981289,-1.16295 0.08441,-0.16403 0.05837,-0.33233 -0.07409,-0.48057 -0.07683,-0.086 -0.12971,-0.10946 -0.27392,-0.12331 -0.175943,-0.0169 -0.184934,-0.0128 -0.607791,0.26417 -1.349837,0.88417 -2.366156,1.04284 -2.821572,0.4406 -0.503538,-0.66586 -0.444603,-2.14615 0.159869,-4.03177 0.272726,-0.85077 1.001369,-2.54296 1.08252,-2.51354 0.01794,0.007 0.240978,0.42362 0.4952,0.92703 0.526575,1.04273 0.901039,1.69387 1.464642,2.54669 1.409301,2.1325 2.983635,3.73979 4.31936,4.40952 0.704143,0.35305 1.257724,0.46118 1.789739,0.34898 0.368832,-0.0778 0.655805,-0.23442 0.920704,-0.50251 1.0593,-1.07208 1.042456,-3.62115 -0.04533,-6.906 -0.392077,-1.18394 -1.094513,-2.83426 -1.282357,-3.01264 -0.238401,-0.22638 -0.627907,-0.12495 -0.749136,0.19496 -0.05221,0.13778 -0.02478,0.23702 0.195448,0.70479 1.068342,2.26923 1.699843,4.50029 1.760983,6.22314 0.05647,1.59147 -0.355372,2.45213 -1.173176,2.45213 -1.649816,0 -4.296675,-2.79541 -6.257755,-6.60966 -0.39514,-0.76853 -0.863128,-1.80282 -0.856366,-1.89258 0.0098,-0.1309 1.016986,-1.71344 1.540678,-2.42092 l 0.198374,-0.26759 h 0.801288 c 3.882715,1.6e-4 7.875777,1.06791 9.284034,2.48282 0.424031,0.42603 0.576032,0.81349 0.466933,1.18878 -0.13253,0.45589 -0.606443,0.87456 -1.460745,1.29064 -0.303919,0.14802 -0.555508,0.29362 -0.595605,0.34459 -0.15797,0.20083 -0.106895,0.50009 0.108204,0.63509 0.195837,0.12293 0.388912,0.0832 0.963106,-0.19837 1.065407,-0.52234 1.66734,-1.1163 1.880884,-1.85555 0.08662,-0.29987 0.05811,-0.82457 -0.06093,-1.11712 -0.150057,-0.3688 -0.307426,-0.59693 -0.648733,-0.94117 -1.493158,-1.50604 -5.236043,-2.62959 -9.184117,-2.75675 -0.492491,-0.0158 -0.709509,-0.0349 -0.718918,-0.0634 -0.03747,-0.113 1.483063,-1.65903 2.183561,-2.22012 0.845034,-0.67686 1.687373,-1.16289 2.276654,-1.31355 0.326678,-0.0835 0.70872,-0.0898 0.926551,-0.0155 0.327525,0.1116 0.567242,0.47599 0.670666,1.02014 0.06591,0.34676 0.04786,1.14082 -0.03753,1.64498 -0.04938,0.29155 -0.04966,0.33068 0.002,0.45816 0.138485,0.3462 0.594797,0.40318 0.815421,0.10186 0.154173,-0.21055 0.275626,-1.50018 0.201298,-2.13775 -0.08029,-0.68874 -0.290961,-1.18785 -0.657992,-1.55724 -0.415942,-0.41858 -0.832182,-0.56889 -1.502662,-0.54248 -0.468929,0.0185 -0.81609,0.10605 -1.351078,0.3402 -1.321513,0.57836 -3.089003,2.09894 -4.504569,3.87535 -0.160751,0.20172 -0.323173,0.37486 -0.361167,0.38455 -0.038,0.01 -0.310415,0.0342 -0.604867,0.0542 -0.505008,0.0342 -1.250316,0.11036 -1.553837,0.15889 -0.171922,0.0275 -0.175875,0.0184 -0.283181,-0.64873 -0.06717,-0.41786 -0.07961,-0.62388 -0.07945,-1.32379 1.73e-4,-0.74267 0.0083,-0.8605 0.07701,-1.13077 0.130846,-0.51428 0.352791,-0.86668 0.639959,-1.01574 0.16553,-0.0859 0.55115,-0.10022 0.81981,-0.0301 0.418735,0.10907 0.901243,0.36971 1.441735,0.77887 0.336528,0.25475 0.52654,0.26777 0.76181,0.0522 0.121018,-0.11091 0.127701,-0.12823 0.127701,-0.33047 0,-0.21251 -4.99e-4,-0.21438 -0.17449,-0.37431 -0.238636,-0.21943 -0.796152,-0.58802 -1.172204,-0.77498 -0.481355,-0.23931 -0.835909,-0.34076 -1.261397,-0.36066 -0.0784,-0.004 -0.153358,-0.005 -0.225179,-0.003 z m 11.79367,1.34425 c -0.01962,0.003 -0.03913,0.0109 -0.05849,0.0229 0.04482,0.004 0.08844,0.012 0.129648,0.0283 2.5e-4,-0.002 7.49e-4,-0.003 0.001,-0.005 -0.0233,-0.0167 -0.04832,-0.0304 -0.07214,-0.0463 z m -11.123005,4.63276 c 0.04683,0.003 0.07312,0.009 0.07312,0.0195 0,0.0205 -0.08158,0.15174 -0.181313,0.29147 -0.09974,0.13974 -0.298135,0.44295 -0.440612,0.67407 -0.243594,0.39516 -0.3262,0.48191 -0.362627,0.3797 -0.0688,-0.19306 -0.362541,-1.15731 -0.362629,-1.19072 -1.37e-4,-0.0485 0.04755,-0.0604 0.43184,-0.11016 0.374217,-0.0485 0.701744,-0.0722 0.84223,-0.0639 z m 2.990212,1.89405 c -0.246902,0.0133 -0.494728,0.10733 -0.703322,0.29488 -0.643754,0.57879 -0.427031,1.61015 0.404057,1.9228 0.229916,0.0865 0.589107,0.0641 0.843206,-0.0522 0.471689,-0.21595 0.734687,-0.71877 0.644345,-1.23165 -0.106315,-0.60358 -0.645101,-0.96321 -1.188286,-0.93387 z"
         inkscape:connector-curvature="0" />
      <path
         inkscape:connector-curvature="0"
         d="m 13.28848,270.82811 c -0.502751,0.0148 -0.855917,0.17595 -1.226303,0.5454 -0.519216,0.51791 -0.74157,1.17202 -0.781793,2.30151 -0.02369,0.66446 0.01688,1.21312 0.14622,1.97935 0.04625,0.2739 0.07837,0.50407 0.07117,0.51129 -0.0072,0.008 -0.275639,0.0812 -0.596094,0.16473 -1.5219888,0.3968 -2.4864071,0.86636 -3.1559286,1.53678 -0.3156608,0.31608 -0.4986936,0.61309 -0.6048665,0.98065 -0.08749,0.30288 -0.059486,0.83027 0.059467,1.11908 0.2778139,0.67448 0.8503415,1.25274 1.7707312,1.78877 0.2713002,0.15801 0.38272,0.204 0.5263928,0.21591 0.1748469,0.0145 0.1880108,0.009 0.3207117,-0.12331 0.1192877,-0.1193 0.1385325,-0.15946 0.138423,-0.28952 -1.726e-4,-0.21867 -0.09379,-0.34419 -0.3679885,-0.49616 -1.1107669,-0.61564 -1.6867758,-1.31707 -1.5650499,-1.90575 0.1573631,-0.76101 1.3621152,-1.4928 3.2100328,-1.95009 0.369791,-0.0915 0.454972,-0.10287 0.499587,-0.0658 0.02957,0.0245 0.0541,0.0654 0.0541,0.0911 0,0.0778 0.304129,1.03357 0.507388,1.5938 l 0.191059,0.52639 -0.293415,0.57904 c -1.238866,2.44468 -1.875627,4.83868 -1.682515,6.32648 0.107298,0.82661 0.416856,1.41563 0.918755,1.74879 0.556509,0.36939 1.242037,0.41317 2.082671,0.13355 0.720234,-0.23958 1.84615,-0.90031 1.981289,-1.16295 0.08441,-0.16403 0.05837,-0.33233 -0.07409,-0.48057 -0.07683,-0.086 -0.12971,-0.10946 -0.27392,-0.12331 -0.175943,-0.0169 -0.184934,-0.0128 -0.607791,0.26417 -1.349837,0.88417 -2.366156,1.04284 -2.821572,0.4406 -0.503538,-0.66586 -0.444603,-2.14615 0.159869,-4.03177 0.272726,-0.85077 1.001369,-2.54296 1.08252,-2.51354 0.01794,0.007 0.240978,0.42362 0.4952,0.92703 0.526575,1.04273 0.901039,1.69387 1.464642,2.54669 1.409301,2.1325 2.983635,3.73979 4.31936,4.40952 0.704143,0.35305 1.257724,0.46118 1.789739,0.34898 0.368832,-0.0778 0.655805,-0.23442 0.920704,-0.50251 1.0593,-1.07208 1.042456,-3.62115 -0.04533,-6.906 -0.392077,-1.18394 -1.094513,-2.83426 -1.282357,-3.01264 -0.238401,-0.22638 -0.627907,-0.12495 -0.749136,0.19496 -0.05221,0.13778 -0.02478,0.23702 0.195448,0.70479 1.068342,2.26923 1.699843,4.50029 1.760983,6.22314 0.05647,1.59147 -0.355372,2.45213 -1.173176,2.45213 -1.649816,0 -4.296675,-2.79541 -6.257755,-6.60966 -0.39514,-0.76853 -0.863128,-1.80282 -0.856366,-1.89258 0.0098,-0.1309 1.016986,-1.71344 1.540678,-2.42092 l 0.198374,-0.26759 h 0.801288 c 3.882715,1.6e-4 7.875777,1.06791 9.284034,2.48282 0.424031,0.42603 0.576032,0.81349 0.466933,1.18878 -0.13253,0.45589 -0.606443,0.87456 -1.460745,1.29064 -0.303919,0.14802 -0.555508,0.29362 -0.595605,0.34459 -0.15797,0.20083 -0.106895,0.50009 0.108204,0.63509 0.195837,0.12293 0.388912,0.0832 0.963106,-0.19837 1.065407,-0.52234 1.66734,-1.1163 1.880884,-1.85555 0.08662,-0.29987 0.05811,-0.82457 -0.06093,-1.11712 -0.150057,-0.3688 -0.307426,-0.59693 -0.648733,-0.94117 -1.493158,-1.50604 -5.236043,-2.62959 -9.184117,-2.75675 -0.492491,-0.0158 -0.709509,-0.0349 -0.718918,-0.0634 -0.03747,-0.113 1.483063,-1.65903 2.183561,-2.22012 0.845034,-0.67686 1.687373,-1.16289 2.276654,-1.31355 0.326678,-0.0835 0.70872,-0.0898 0.926551,-0.0155 0.327525,0.1116 0.567242,0.47599 0.670666,1.02014 0.06591,0.34676 0.04786,1.14082 -0.03753,1.64498 -0.04938,0.29155 -0.04966,0.33068 0.002,0.45816 0.138485,0.3462 0.594797,0.40318 0.815421,0.10186 0.154173,-0.21055 0.275626,-1.50018 0.201298,-2.13775 -0.08029,-0.68874 -0.290961,-1.18785 -0.657992,-1.55724 -0.415942,-0.41858 -0.832182,-0.56889 -1.502662,-0.54248 -0.468929,0.0185 -0.81609,0.10605 -1.351078,0.3402 -1.321513,0.57836 -3.089003,2.09894 -4.504569,3.87535 -0.160751,0.20172 -0.323173,0.37486 -0.361167,0.38455 -0.038,0.01 -0.310415,0.0342 -0.604867,0.0542 -0.505008,0.0342 -1.250316,0.11036 -1.553837,0.15889 -0.171922,0.0275 -0.175875,0.0184 -0.283181,-0.64873 -0.06717,-0.41786 -0.07961,-0.62388 -0.07945,-1.32379 1.73e-4,-0.74267 0.0083,-0.8605 0.07701,-1.13077 0.130846,-0.51428 0.352791,-0.86668 0.639959,-1.01574 0.16553,-0.0859 0.55115,-0.10022 0.81981,-0.0301 0.418735,0.10907 0.901243,0.36971 1.441735,0.77887 0.336528,0.25475 0.52654,0.26777 0.76181,0.0522 0.121018,-0.11091 0.127701,-0.12823 0.127701,-0.33047 0,-0.21251 -4.99e-4,-0.21438 -0.17449,-0.37431 -0.238636,-0.21943 -0.796152,-0.58802 -1.172204,-0.77498 -0.481355,-0.23931 -0.835909,-0.34076 -1.261397,-0.36066 -0.0784,-0.004 -0.153358,-0.005 -0.225179,-0.003 z m 11.79367,1.34425 c -0.01962,0.003 -0.03913,0.0109 -0.05849,0.0229 0.04482,0.004 0.08844,0.012 0.129648,0.0283 2.5e-4,-0.002 7.49e-4,-0.003 0.001,-0.005 -0.0233,-0.0167 -0.04832,-0.0304 -0.07214,-0.0463 z m -11.123005,4.63276 c 0.04683,0.003 0.07312,0.009 0.07312,0.0195 0,0.0205 -0.08158,0.15174 -0.181313,0.29147 -0.09974,0.13974 -0.298135,0.44295 -0.440612,0.67407 -0.243594,0.39516 -0.3262,0.48191 -0.362627,0.3797 -0.0688,-0.19306 -0.362541,-1.15731 -0.362629,-1.19072 -1.37e-4,-0.0485 0.04755,-0.0604 0.43184,-0.11016 0.374217,-0.0485 0.701744,-0.0722 0.84223,-0.0639 z m 2.990212,1.89405 c -0.246902,0.0133 -0.494728,0.10733 -0.703322,0.29488 -0.643754,0.57879 -0.427031,1.61015 0.404057,1.9228 0.229916,0.0865 0.589107,0.0641 0.843206,-0.0522 0.471689,-0.21595 0.734687,-0.71877 0.644345,-1.23165 -0.106315,-0.60358 -0.645101,-0.96321 -1.188286,-0.93387 z"
         style="fill:#f9f9f9;fill-opacity:1;stroke:none;stroke-width:0.05007424;stroke-miterlimit:4;stroke-dasharray:none;stroke-opacity:1"
         id="path967" />
    </g>
  </g>
</svg>
