<?xml version="1.0" encoding="UTF-8" standalone="no"?>
<svg
   xmlns:dc="http://purl.org/dc/elements/1.1/"
   xmlns:cc="http://creativecommons.org/ns#"
   xmlns:rdf="http://www.w3.org/1999/02/22-rdf-syntax-ns#"
   xmlns:svg="http://www.w3.org/2000/svg"
   xmlns="http://www.w3.org/2000/svg"
   xmlns:xlink="http://www.w3.org/1999/xlink"
   xmlns:sodipodi="http://sodipodi.sourceforge.net/DTD/sodipodi-0.dtd"
   xmlns:inkscape="http://www.inkscape.org/namespaces/inkscape"
   height="128"
   viewBox="0 0 95.999997 95.999997"
   width="128"
   version="1.1"
   id="svg54"
   sodipodi:docname="bomi.svg"
   inkscape:version="0.92.3 (2405546, 2018-03-11)">
  <metadata
     id="metadata60">
    <rdf:RDF>
      <cc:Work
         rdf:about="">
        <dc:format>image/svg+xml</dc:format>
        <dc:type
           rdf:resource="http://purl.org/dc/dcmitype/StillImage" />
        <dc:title></dc:title>
      </cc:Work>
    </rdf:RDF>
  </metadata>
  <defs
     id="defs58" />
  <sodipodi:namedview
     pagecolor="#ffffff"
     bordercolor="#666666"
     borderopacity="1"
     objecttolerance="10"
     gridtolerance="10"
     guidetolerance="10"
     inkscape:pageopacity="0"
     inkscape:pageshadow="2"
     inkscape:window-width="1529"
     inkscape:window-height="837"
     id="namedview56"
     showgrid="false"
     units="px"
     inkscape:zoom="0.48889805"
     inkscape:cx="199.82556"
     inkscape:cy="287.03417"
     inkscape:window-x="71"
     inkscape:window-y="27"
     inkscape:window-maximized="1"
     inkscape:current-layer="svg54" />
  <linearGradient
     id="a"
     gradientUnits="userSpaceOnUse"
     x1="31.75304"
     x2="31.75304"
     y1="56.067871"
     y2="58.713959"
     gradientTransform="translate(0,31.999995)">
    <stop
       offset="0"
       stop-opacity=".27451"
       id="stop2" />
    <stop
       offset="1"
       stop-opacity="0"
       id="stop4" />
  </linearGradient>
  <linearGradient
     id="b">
    <stop
       offset="0"
       stop-opacity=".313726"
       id="stop7" />
    <stop
       offset=".222222"
       stop-opacity=".27451"
       id="stop9" />
    <stop
       offset="1"
       stop-opacity="0"
       id="stop11" />
  </linearGradient>
  <radialGradient
     id="c"
     cx="450.90894"
     cy="189.57936"
     gradientTransform="matrix(3.5e-7,-0.156265,-0.281277,-2e-7,104.2613,159.19066)"
     gradientUnits="userSpaceOnUse"
     r="21.166656"
     xlink:href="#b" />
  <radialGradient
     id="d"
     cx="450.90894"
     cy="189.57936"
     gradientTransform="matrix(-3.5e-7,0.156265,0.281277,2e-7,-40.755227,16.945037)"
     gradientUnits="userSpaceOnUse"
     r="21.166656"
     xlink:href="#b" />
  <radialGradient
     id="e"
     cx="450.90894"
     cy="189.57936"
     gradientTransform="matrix(-3.5e-7,-0.156265,0.281277,-2e-7,-40.755227,159.19066)"
     gradientUnits="userSpaceOnUse"
     r="21.166656"
     xlink:href="#b" />
  <radialGradient
     id="f"
     cx="450.90894"
     cy="189.57936"
     gradientTransform="matrix(3.5e-7,0.156265,-0.281277,2e-7,104.26129,16.945036)"
     gradientUnits="userSpaceOnUse"
     r="21.166656"
     xlink:href="#b" />
  <linearGradient
     id="g"
     gradientUnits="userSpaceOnUse"
     x1="21.168697"
     x2="21.168697"
     y1="56.067867"
     y2="5.7922101"
     gradientTransform="translate(0,31.999995)">
    <stop
       offset="0"
       stop-color="#ec407a"
       id="stop18" />
    <stop
       offset="1"
       stop-color="#f06292"
       id="stop20" />
  </linearGradient>
  <linearGradient
     id="h"
     gradientUnits="userSpaceOnUse"
     x1="31.753056"
     x2="31.753056"
     y1="56.067898"
     y2="5.7922244"
     gradientTransform="translate(202.84745,-88.949154)">
    <stop
       offset="0"
       stop-color="#bdbdbd"
       id="stop23" />
    <stop
       offset="1"
       stop-color="#e0e0e0"
       id="stop25" />
  </linearGradient>
  <g
     id="g3755"
     transform="matrix(0.87420994,-0.13846125,0.13846125,0.87420994,-154.36172,124.74144)">
    <rect
       style="opacity:0.25;fill:#000000;fill-opacity:1;stroke:none;stroke-width:0.15173355;stroke-linecap:round;stroke-miterlimit:4;stroke-dasharray:none;stroke-dashoffset:0;stroke-opacity:1"
       id="rect3738"
       width="90"
       height="90"
       x="194.37817"
       y="-94.119987"
       ry="9.6267147" />
    <rect
       ry="9.6267147"
       y="-95.619987"
       x="194.37817"
       height="90"
       width="90"
       id="rect3732"
       style="opacity:1;fill:#cb456f;fill-opacity:1;stroke:none;stroke-width:0.15173355;stroke-linecap:round;stroke-miterlimit:4;stroke-dasharray:none;stroke-dashoffset:0;stroke-opacity:1" />
    <rect
       style="opacity:1;fill:#fb568a;fill-opacity:1;stroke:none;stroke-width:0.14009511;stroke-linecap:round;stroke-miterlimit:4;stroke-dasharray:none;stroke-dashoffset:0;stroke-opacity:1"
       id="rect3736"
       width="83.096718"
       height="83.096718"
       x="197.82982"
       y="-92.16835"
       ry="8.8883162" />
    <path
       d="m 239.38136,-75.02765 c -2.2376,0 -4.41145,0.280495 -6.47691,0.809613 v 35.897158 c 0,1.791351 -1.44711,3.238458 -3.23847,3.238458 -1.79772,0 -3.23845,-1.447107 -3.23845,-3.238458 v -33.264317 c -7.75828,4.468818 -12.96021,12.839083 -12.96021,22.465208 0,14.356312 11.55772,25.907663 25.91404,25.907663 14.34994,0 25.90767,-11.551351 25.90767,-25.907663 0,-14.356314 -11.55773,-25.907662 -25.90767,-25.907662 z m 0.0638,11.850969 c 0.65661,0.01913 1.29411,0.229497 1.8296,0.611992 l 15.11493,10.792736 c 1.81685,1.300481 1.81685,4.003446 0,5.303931 l -15.11492,10.799108 c -2.15472,1.536355 -5.15093,-0.0064 -5.15093,-2.651965 v -21.591844 c 0,-1.829602 1.4981,-3.295832 3.32133,-3.263958 z m 0,0"
       id="path3734"
       inkscape:connector-curvature="0"
       style="opacity:0.25;fill:#000000;fill-opacity:1;stroke-width:1.63197875" />
    <path
       style="fill:#f5f4f4;fill-opacity:1;stroke-width:1.63197875"
       inkscape:connector-curvature="0"
       id="path46"
       d="m 239.38136,-76.52765 c -2.2376,0 -4.41145,0.280495 -6.47691,0.809613 v 35.897158 c 0,1.791351 -1.44711,3.238458 -3.23847,3.238458 -1.79772,0 -3.23845,-1.447107 -3.23845,-3.238458 v -33.264317 c -7.75828,4.468818 -12.96021,12.839083 -12.96021,22.465208 0,14.356312 11.55772,25.907663 25.91404,25.907663 14.34994,0 25.90767,-11.551351 25.90767,-25.907663 0,-14.356314 -11.55773,-25.907662 -25.90767,-25.907662 z m 0.0638,11.850969 c 0.65661,0.01913 1.29411,0.229497 1.8296,0.611992 l 15.11493,10.792736 c 1.81685,1.300481 1.81685,4.003446 0,5.303931 l -15.11492,10.799108 c -2.15472,1.536355 -5.15093,-0.0064 -5.15093,-2.651965 v -21.591844 c 0,-1.829602 1.4981,-3.295832 3.32133,-3.263958 z m 0,0" />
  </g>
</svg>
