<?xml version="1.0" encoding="UTF-8" standalone="no"?>
<svg
   xmlns:osb="http://www.openswatchbook.org/uri/2009/osb"
   xmlns:dc="http://purl.org/dc/elements/1.1/"
   xmlns:cc="http://creativecommons.org/ns#"
   xmlns:rdf="http://www.w3.org/1999/02/22-rdf-syntax-ns#"
   xmlns:svg="http://www.w3.org/2000/svg"
   xmlns="http://www.w3.org/2000/svg"
   xmlns:xlink="http://www.w3.org/1999/xlink"
   xmlns:sodipodi="http://sodipodi.sourceforge.net/DTD/sodipodi-0.dtd"
   xmlns:inkscape="http://www.inkscape.org/namespaces/inkscape"
   width="128"
   height="128"
   viewBox="0 0 128 128"
   version="1.1"
   id="svg33"
   sodipodi:docname="brave.svg"
   inkscape:version="0.92.4 (5da689c313, 2019-01-14)">
  <metadata
     id="metadata37">
    <rdf:RDF>
      <cc:Work
         rdf:about="">
        <dc:format>image/svg+xml</dc:format>
        <dc:type
           rdf:resource="http://purl.org/dc/dcmitype/StillImage" />
        <dc:title>build-icons/Stable Copy 3</dc:title>
      </cc:Work>
    </rdf:RDF>
  </metadata>
  <sodipodi:namedview
     pagecolor="#ffffff"
     bordercolor="#666666"
     borderopacity="1"
     objecttolerance="10"
     gridtolerance="10"
     guidetolerance="10"
     inkscape:pageopacity="0"
     inkscape:pageshadow="2"
     inkscape:window-width="1600"
     inkscape:window-height="838"
     id="namedview35"
     showgrid="false"
     inkscape:zoom="1.3037281"
     inkscape:cx="-116.65897"
     inkscape:cy="-12.844482"
     inkscape:window-x="-8"
     inkscape:window-y="-8"
     inkscape:window-maximized="1"
     inkscape:current-layer="svg33" />
  <!-- Generator: Sketch 51.2 (57519) - http://www.bohemiancoding.com/sketch -->
  <title
     id="title2">build-icons/Stable Copy 3</title>
  <desc
     id="desc4">Created with Sketch.</desc>
  <defs
     id="defs21">
    <linearGradient
       id="linearGradient6987"
       osb:paint="solid">
      <stop
         style="stop-color:#77d2fb;stop-opacity:1;"
         offset="0"
         id="stop6985" />
    </linearGradient>
    <linearGradient
       id="linearGradient917"
       inkscape:collect="always">
      <stop
         id="stop913"
         offset="0"
         style="stop-color:#d9d9d9;stop-opacity:1" />
      <stop
         id="stop915"
         offset="1"
         style="stop-color:#ffffff;stop-opacity:1" />
    </linearGradient>
    <linearGradient
       inkscape:collect="always"
       id="linearGradient1495-7">
      <stop
         style="stop-color:#ff8b16;stop-opacity:1"
         offset="0"
         id="stop1491-9" />
      <stop
         style="stop-color:#fe0600;stop-opacity:1"
         offset="1"
         id="stop1493-2" />
    </linearGradient>
    <linearGradient
       gradientUnits="userSpaceOnUse"
       y2="159.15111"
       x2="109.84691"
       y1="139.77408"
       x1="110.0088"
       id="linearGradient911"
       xlink:href="#linearGradient1495-7"
       inkscape:collect="always"
       gradientTransform="matrix(3.7795276,0,0,3.7795276,-624.39607,-453.70081)" />
    <linearGradient
       gradientUnits="userSpaceOnUse"
       y2="135.43558"
       x2="116.39588"
       y1="162.69707"
       x1="114.12408"
       id="linearGradient919"
       xlink:href="#linearGradient917"
       inkscape:collect="always"
       gradientTransform="matrix(3.7795276,0,0,3.7795276,-624.39607,-453.70081)" />
  </defs>
  <g
     id="g902"
     transform="translate(270.64788,-47.375706)">
    <path
       inkscape:connector-curvature="0"
       style="opacity:0.25;fill:#000000;fill-opacity:1;stroke:none;stroke-width:0.71288407;stroke-miterlimit:4;stroke-dasharray:none;stroke-opacity:1"
       d="m -212.87064,171.13595 c -22.90673,-2.40688 -42.60263,-18.24068 -49.85773,-40.08129 -2.10952,-6.3504 -2.97381,-11.79247 -2.97381,-18.72484 0,-6.93229 0.86429,-12.374473 2.97381,-18.724873 5.49549,-16.543484 18.14515,-29.843868 34.56104,-36.338873 10.25722,-4.058305 22.20185,-5.077455 33.38215,-2.848214 11.26711,2.246476 21.74944,7.892032 29.99206,16.152945 9.21064,9.231043 15.011,20.974413 16.88255,34.180005 0.42266,2.98254 0.42266,12.17552 0,15.15802 -2.44653,17.26273 -11.76869,32.1998 -26.01124,41.67814 -7.74142,5.15191 -16.49938,8.35151 -25.85261,9.44489 -3.53129,0.4128 -9.69211,0.46178 -13.09622,0.10431 z"
       id="path839-1" />
    <path
       id="path4939-7"
       d="m -212.87064,169.24977 c -22.90673,-2.40688 -42.60263,-18.24068 -49.85773,-40.08128 -2.10952,-6.3504 -2.97381,-11.79251 -2.97381,-18.72484 0,-6.93233 0.86429,-12.374476 2.97381,-18.724914 5.49549,-16.543446 18.14515,-29.843792 34.56104,-36.338835 10.25722,-4.058343 22.20185,-5.077455 33.38215,-2.848252 11.26711,2.246551 21.74944,7.892069 29.99206,16.152983 9.21064,9.231042 15.011,20.974413 16.88255,34.180008 0.42266,2.98254 0.42266,12.17552 0,15.15802 -2.44653,17.26277 -11.76869,32.19972 -26.01124,41.67814 -7.74142,5.15191 -16.49938,8.35151 -25.85261,9.44485 -3.53129,0.41283 -9.69211,0.46182 -13.09622,0.10431 z"
       style="fill:url(#linearGradient919);fill-opacity:1;stroke:#990401;stroke-width:0.75590551;stroke-miterlimit:4;stroke-dasharray:none;stroke-opacity:1"
       inkscape:connector-curvature="0" />
    <path
       style="opacity:0.25;fill:#000000;fill-opacity:1;fill-rule:evenodd;stroke:none;stroke-width:0.36700046;stroke-miterlimit:4;stroke-dasharray:none;stroke-opacity:1"
       inkscape:connector-curvature="0"
       id="path1469-8"
       d="m -172.12245,88.76152 2.04181,-5.018003 c 0,0 -2.59869,-2.787779 -5.75422,-5.947276 -3.15556,-3.159533 -9.83792,-1.300989 -9.83792,-1.300989 l -7.61042,-8.644951 h -13.36467 -13.36467 l -7.61046,8.644951 c 0,0 -6.68232,-1.858544 -9.83788,1.300989 -3.15557,3.159497 -5.75426,5.947276 -5.75426,5.947276 l 2.04185,5.018003 -2.59869,7.434142 c 0,0 7.64293,28.984668 8.53852,32.524238 1.76342,6.96948 2.96995,9.66436 7.98168,13.19557 5.01177,3.53122 14.10717,9.66433 15.59214,10.5936 1.48498,0.92928 3.34118,2.51218 5.01177,2.51218 1.67059,0 3.52679,-1.5829 5.01177,-2.51218 1.48494,-0.92927 10.58037,-7.06238 15.5921,-10.5936 5.01176,-3.53121 6.2183,-6.22609 7.98168,-13.19557 0.89545,-3.53957 8.53856,-32.524238 8.53856,-32.524238 z" />
    <path
       d="m -172.12245,86.755196 2.04181,-5.018003 c 0,0 -2.59869,-2.78778 -5.75422,-5.947314 -3.15556,-3.159496 -9.83792,-1.300951 -9.83792,-1.300951 l -7.61042,-8.644951 h -13.36467 -13.36467 l -7.61046,8.644951 c 0,0 -6.68232,-1.858545 -9.83788,1.300951 -3.15557,3.159534 -5.75426,5.947314 -5.75426,5.947314 l 2.04185,5.018003 -2.59869,7.434142 c 0,0 7.64293,28.984672 8.53852,32.524232 1.76342,6.96949 2.96995,9.66437 7.98168,13.19558 5.01177,3.53121 14.10717,9.66433 15.59214,10.5936 1.48498,0.92927 3.34118,2.51218 5.01177,2.51218 1.67059,0 3.52679,-1.58291 5.01177,-2.51218 1.48494,-0.92927 10.58037,-7.06239 15.5921,-10.5936 5.01176,-3.53121 6.2183,-6.22609 7.98168,-13.19558 0.89545,-3.53956 8.53856,-32.524232 8.53856,-32.524232 z"
       id="Head-7"
       inkscape:connector-curvature="0"
       style="fill:url(#linearGradient911);fill-opacity:1;fill-rule:evenodd;stroke:#990401;stroke-width:0.3791486;stroke-miterlimit:4;stroke-dasharray:none;stroke-opacity:1" />
    <path
       d="m -187.80738,79.971586 c 0,0 9.78886,11.848139 9.78886,14.380385 0,2.532208 -1.2314,3.200542 -2.46946,4.516951 -1.2381,1.316368 -6.64543,7.065558 -7.33981,7.803778 -0.69441,0.73837 -2.14004,1.85779 -1.28972,3.87262 0.85031,2.01483 2.10474,4.57867 0.70983,7.1791 -1.39514,2.60046 -3.78501,4.33614 -5.31636,4.0492 -1.53139,-0.28725 -5.12776,-2.16892 -6.45033,-3.02846 -1.32253,-0.85958 -5.51422,-4.32091 -5.51422,-5.6453 0,-1.32419 4.33293,-3.70201 5.13332,-4.24229 0.8008,-0.54009 4.45194,-2.63112 4.52674,-3.45184 0.0748,-0.82092 0.0461,-1.0616 -1.03132,-3.08961 -1.07751,-2.02821 -3.01799,-4.734619 -2.69499,-6.535337 0.32277,-1.800529 3.45252,-2.736869 5.68592,-3.581367 2.23302,-0.844346 6.53291,-2.439156 7.06991,-2.687055 0.53737,-0.248315 0.39851,-0.484346 -1.2288,-0.638816 -1.62698,-0.154582 -6.24446,-0.768113 -8.32623,-0.187086 -2.08172,0.580951 -5.63818,1.464869 -5.9263,1.933606 -0.288,0.468699 -0.54221,0.484498 -0.24642,2.101455 0.29556,1.61692 1.8189,9.3755 1.96668,10.75363 0.14778,1.37809 0.4371,2.2891 -1.04693,2.62888 -1.48422,0.33978 -3.98249,0.92965 -4.84097,0.92965 -0.85852,0 -3.35694,-0.5899 -4.84101,-0.92965 -1.48422,-0.33978 -1.19501,-1.25079 -1.04704,-2.62888 0.14778,-1.37813 1.67093,-9.13671 1.96679,-10.75363 0.29556,-1.616957 0.0416,-1.632756 -0.24643,-2.101455 -0.288,-0.468737 -3.84476,-1.352655 -5.92649,-1.933606 -2.08172,-0.580989 -6.69902,0.03402 -8.32618,0.187086 -1.62717,0.154583 -1.76599,0.39069 -1.2288,0.638816 0.53718,0.247937 4.83707,1.842709 7.07009,2.687055 2.23321,0.844498 5.36297,1.780838 5.68593,3.581367 0.32315,1.800718 -1.61768,4.507127 -2.69503,6.535337 -1.07755,2.02801 -1.10612,2.26869 -1.03132,3.08961 0.0748,0.82072 3.72597,2.91175 4.52655,3.45184 0.80058,0.54028 5.13331,2.9181 5.13331,4.24229 0,1.32439 -4.19145,4.78572 -5.51399,5.6453 -1.32257,0.85954 -4.91894,2.74132 -6.45033,3.02846 -1.53135,0.28686 -3.92126,-1.44874 -5.31636,-4.0492 -1.39494,-2.60043 -0.14059,-5.16427 0.70961,-7.1791 0.85036,-2.01483 -0.59509,-3.13425 -1.28969,-3.87262 -0.69418,-0.73822 -6.10167,-6.48741 -7.33977,-7.803778 -1.23809,-1.316409 -2.46931,-1.984743 -2.46931,-4.516989 0,-2.532246 9.78886,-14.380347 9.78886,-14.380347 0,0 8.26012,1.579767 9.37383,1.579767 1.11372,0 3.5268,-0.929272 5.75422,-1.672705 2.22747,-0.743396 3.71244,-0.7488 3.71244,-0.7488 0,0 1.48498,0.0076 3.71241,0.7488 2.22746,0.743433 4.6405,1.672705 5.75421,1.672705 1.11375,0 9.37387,-1.579767 9.37387,-1.579767 z m -7.33837,45.321414 c 0.60586,0.37988 0.23622,1.09599 -0.31559,1.48664 -0.55204,0.39065 -7.96962,6.14169 -8.68947,6.77729 -0.72,0.6358 -1.77785,1.68571 -2.49714,1.68571 -0.71928,0 -1.77732,-1.04991 -2.49717,-1.68571 -0.72,-0.6356 -8.1374,-6.38664 -8.68943,-6.77729 -0.55204,-0.39065 -0.92141,-1.10676 -0.31559,-1.48664 0.60604,-0.37969 2.50178,-1.33814 5.11774,-2.69356 2.61558,-1.35526 5.87562,-2.50753 6.38442,-2.50753 0.5088,0 3.76864,1.15227 6.3846,2.50753 2.61577,1.35542 4.51151,2.31387 5.11756,2.69356 z"
       id="Face-9"
       inkscape:connector-curvature="0"
       style="fill:#ffffff;fill-opacity:1;fill-rule:evenodd;stroke:#990401;stroke-width:0.3791486;stroke-miterlimit:4;stroke-dasharray:none;stroke-opacity:1" />
  </g>
</svg>
