<?xml version="1.0" encoding="UTF-8" standalone="no"?>
<svg
   xmlns:dc="http://purl.org/dc/elements/1.1/"
   xmlns:cc="http://creativecommons.org/ns#"
   xmlns:rdf="http://www.w3.org/1999/02/22-rdf-syntax-ns#"
   xmlns:svg="http://www.w3.org/2000/svg"
   xmlns="http://www.w3.org/2000/svg"
   xmlns:xlink="http://www.w3.org/1999/xlink"
   xmlns:sodipodi="http://sodipodi.sourceforge.net/DTD/sodipodi-0.dtd"
   xmlns:inkscape="http://www.inkscape.org/namespaces/inkscape"
   height="128"
   viewBox="0 0 95.999997 95.999997"
   width="128"
   version="1.1"
   id="svg56"
   sodipodi:docname="com.github.bartzaalberg.php-tester.svg"
   inkscape:version="0.92.3 (2405546, 2018-03-11)">
  <metadata
     id="metadata62">
    <rdf:RDF>
      <cc:Work
         rdf:about="">
        <dc:format>image/svg+xml</dc:format>
        <dc:type
           rdf:resource="http://purl.org/dc/dcmitype/StillImage" />
        <dc:title></dc:title>
      </cc:Work>
    </rdf:RDF>
  </metadata>
  <defs
     id="defs60">
    <linearGradient
       inkscape:collect="always"
       id="linearGradient3613">
      <stop
         style="stop-color:#d4d1fc;stop-opacity:1"
         offset="0"
         id="stop3609" />
      <stop
         style="stop-color:#fdfdff;stop-opacity:1"
         offset="1"
         id="stop3611" />
    </linearGradient>
    <linearGradient
       inkscape:collect="always"
       id="linearGradient3605">
      <stop
         style="stop-color:#7267d7;stop-opacity:1"
         offset="0"
         id="stop3601" />
      <stop
         style="stop-color:#b1a9ff;stop-opacity:1"
         offset="1"
         id="stop3603" />
    </linearGradient>
    <linearGradient
       inkscape:collect="always"
       xlink:href="#linearGradient3605"
       id="linearGradient3607"
       x1="328.09753"
       y1="66.565186"
       x2="328.09753"
       y2="-43.120258"
       gradientUnits="userSpaceOnUse"
       gradientTransform="matrix(0.78354279,0,0,0.78354279,55.74437,14.470776)" />
    <linearGradient
       inkscape:collect="always"
       xlink:href="#linearGradient3613"
       id="linearGradient3615"
       x1="308.09592"
       y1="23.729069"
       x2="308.09592"
       y2="-7.7192049"
       gradientUnits="userSpaceOnUse"
       gradientTransform="matrix(0.83959603,0,0,0.83959603,40.639206,16.398404)" />
  </defs>
  <sodipodi:namedview
     pagecolor="#ffffff"
     bordercolor="#666666"
     borderopacity="1"
     objecttolerance="10"
     gridtolerance="10"
     guidetolerance="10"
     inkscape:pageopacity="0"
     inkscape:pageshadow="2"
     inkscape:window-width="1529"
     inkscape:window-height="837"
     id="namedview58"
     showgrid="false"
     units="px"
     inkscape:zoom="1.9555922"
     inkscape:cx="-8.1019383"
     inkscape:cy="29.278758"
     inkscape:window-x="71"
     inkscape:window-y="27"
     inkscape:window-maximized="1"
     inkscape:current-layer="svg56"
     showguides="false" />
  <linearGradient
     id="a"
     gradientUnits="userSpaceOnUse"
     x1="31.753042"
     x2="31.753042"
     y1="56.067871"
     y2="58.713959"
     gradientTransform="translate(0,31.999995)">
    <stop
       offset="0"
       stop-opacity=".27451"
       id="stop2" />
    <stop
       offset="1"
       stop-opacity="0"
       id="stop4" />
  </linearGradient>
  <linearGradient
     id="b">
    <stop
       offset="0"
       stop-opacity=".313725"
       id="stop7" />
    <stop
       offset=".222222"
       stop-opacity=".27451"
       id="stop9" />
    <stop
       offset="1"
       stop-opacity="0"
       id="stop11" />
  </linearGradient>
  <radialGradient
     id="c"
     cx="450.90894"
     cy="189.57936"
     gradientTransform="matrix(3.5e-7,-0.156265,-0.281277,-2e-7,104.2613,159.19067)"
     gradientUnits="userSpaceOnUse"
     r="21.166656"
     xlink:href="#b" />
  <radialGradient
     id="d"
     cx="450.90894"
     cy="189.57936"
     gradientTransform="matrix(-3.5e-7,0.156265,0.281277,2e-7,-40.755228,16.945038)"
     gradientUnits="userSpaceOnUse"
     r="21.166656"
     xlink:href="#b" />
  <radialGradient
     id="e"
     cx="450.90894"
     cy="189.57936"
     gradientTransform="matrix(-3.5e-7,-0.156265,0.281277,-2e-7,-40.755228,159.19067)"
     gradientUnits="userSpaceOnUse"
     r="21.166656"
     xlink:href="#b" />
  <radialGradient
     id="f"
     cx="450.90894"
     cy="189.57936"
     gradientTransform="matrix(3.5e-7,0.156265,-0.281277,2e-7,104.26129,16.945036)"
     gradientUnits="userSpaceOnUse"
     r="21.166656"
     xlink:href="#b" />
  <linearGradient
     id="g"
     gradientUnits="userSpaceOnUse"
     x1="21.168697"
     x2="21.168697"
     y1="56.067867"
     y2="5.7922096"
     gradientTransform="translate(0,31.999995)">
    <stop
       offset="0"
       stop-color="#5c6bc0"
       id="stop18" />
    <stop
       offset="1"
       stop-color="#7986cb"
       id="stop20" />
  </linearGradient>
  <linearGradient
     id="h"
     gradientUnits="userSpaceOnUse"
     x1="31.753046"
     x2="31.753048"
     y1="56.067867"
     y2="5.7922082"
     gradientTransform="matrix(1.7520167,0,0,1.7520167,255.93247,-47.19122)">
    <stop
       offset="0"
       stop-color="#424242"
       id="stop23" />
    <stop
       offset="1"
       stop-color="#616161"
       id="stop25" />
  </linearGradient>
  <g
     id="g3625"
     transform="matrix(0.98703183,0,0,0.98703183,-250.6074,25.533585)">
    <rect
       style="opacity:0.25;fill:#000000;fill-opacity:1;stroke:none;stroke-width:0.5669291;stroke-linecap:round;stroke-miterlimit:4;stroke-dasharray:none;stroke-dashoffset:0;stroke-opacity:1"
       id="rect3619"
       width="90"
       height="89.399002"
       x="257.53067"
       y="-21.046179"
       ry="8.7555742" />
    <rect
       ry="8.7555742"
       y="-22.546179"
       x="257.53067"
       height="89.399002"
       width="90"
       id="rect1403"
       style="opacity:1;fill:url(#linearGradient3607);fill-opacity:1;stroke:#29254d;stroke-width:0.5669291;stroke-linecap:round;stroke-miterlimit:4;stroke-dasharray:none;stroke-dashoffset:0;stroke-opacity:1" />
    <path
       style="opacity:0.25;fill:#000000;fill-opacity:1;fill-rule:evenodd;stroke-width:1.47098625"
       inkscape:connector-curvature="0"
       id="path3617"
       d="m 315.19745,37.156515 c -1.56866,0 -3.07412,0 -4.65428,0 1.38479,-7.119345 2.76384,-14.209957 4.1429,-21.306316 0.13209,-0.01148 0.24132,-0.03448 0.3505,-0.03448 3.00518,0 6.00461,-0.02299 9.00404,0.01724 0.84467,0.01148 1.71233,0.132153 2.53401,0.344762 2.67765,0.672286 4.26357,2.660417 4.28654,5.412769 0.0344,3.240768 -1.14921,5.947151 -3.71768,8.004234 -1.66636,1.327334 -3.61426,1.792764 -5.68283,1.861718 -1.56292,0.05172 -3.1316,0.03448 -4.69452,0.02299 -0.33328,0 -0.48267,0.0747 -0.55162,0.436699 -0.31603,1.741051 -0.66653,3.470608 -1.01706,5.240388 z M 316.95,28.181199 c 1.62038,-0.0632 3.1316,-0.05172 4.61982,-0.201112 1.95365,-0.20111 3.33844,-1.252636 3.91305,-3.160321 0.2758,-0.919366 0.44819,-1.884701 0.48841,-2.838543 0.069,-1.505463 -0.56311,-2.361623 -2.06282,-2.56848 -1.70083,-0.229842 -3.43614,-0.229842 -5.18867,-0.333271 -0.59759,3.068386 -1.1722,6.016105 -1.76979,9.101727 z m -38.10199,8.96957 c -1.56292,0 -3.08563,0 -4.64855,0 1.37905,-7.113599 2.7581,-14.19272 4.13715,-21.30057 0.15514,-0.01148 0.29879,-0.03448 0.44245,-0.03448 2.94196,0 5.88969,-0.02299 8.83167,0.01724 0.82743,0.0057 1.67783,0.114928 2.48228,0.310286 2.65466,0.649302 4.18312,2.327146 4.38423,5.039277 0.39647,5.286356 -3.14309,9.015536 -6.64243,9.871696 -0.9366,0.229841 -1.90767,0.356255 -2.86728,0.396477 -1.52844,0.06894 -3.05688,0.03448 -4.58533,0.02873 -0.31603,0 -0.44819,0.08045 -0.5114,0.413715 -0.31603,1.741049 -0.67228,3.470608 -1.02279,5.257627 z m 1.75253,-8.975315 c 1.6089,-0.05746 3.12012,-0.04022 4.61408,-0.195367 1.99963,-0.206856 3.39017,-1.298604 3.94753,-3.258003 0.25858,-0.884891 0.41946,-1.815749 0.45967,-2.735115 0.069,-1.505463 -0.56311,-2.367369 -2.05706,-2.574226 -1.70083,-0.229842 -3.43614,-0.229842 -5.19442,-0.333271 -0.5976,3.068386 -1.17221,6.016105 -1.7698,9.095982 z m 17.12895,-18.025328 h 4.61407 c -0.36774,1.896192 -0.72399,3.752164 -1.09174,5.665595 1.25264,0 2.46505,-0.04597 3.67172,0.01148 1.2239,0.05172 2.46505,0.08045 3.65448,0.33327 2.51676,0.540128 3.57403,2.172004 3.12584,4.740482 -0.51139,2.907497 -1.10324,5.809246 -1.6606,8.710998 -0.0977,0.511398 -0.17813,1.02854 -0.31028,1.534192 -0.0344,0.132153 -0.21836,0.321778 -0.33327,0.321778 -1.44802,0.02299 -2.90176,0.01724 -4.41296,0.01724 0.27581,-1.413527 0.53438,-2.7581 0.79295,-4.102674 0.3735,-1.959399 0.76997,-3.907307 1.10899,-5.866706 0.24708,-1.43651 -0.30454,-2.143272 -1.76979,-2.212225 -1.48247,-0.0632 -2.97645,-0.01148 -4.54511,-0.01148 -0.78721,4.027975 -1.57442,8.073187 -2.36738,12.152875 -1.52269,0 -3.03964,0 -4.6198,0 1.38478,-7.102106 2.7581,-14.181227 4.14288,-21.294825 z m 0,0" />
    <path
       d="m 315.19745,35.656515 c -1.56866,0 -3.07412,0 -4.65428,0 1.38479,-7.119345 2.76384,-14.209957 4.1429,-21.306316 0.13209,-0.01148 0.24132,-0.03448 0.3505,-0.03448 3.00518,0 6.00461,-0.02299 9.00404,0.01724 0.84467,0.01148 1.71233,0.132153 2.53401,0.344762 2.67765,0.672286 4.26357,2.660417 4.28654,5.412769 0.0344,3.240768 -1.14921,5.947151 -3.71768,8.004234 -1.66636,1.327334 -3.61426,1.792764 -5.68283,1.861718 -1.56292,0.05172 -3.1316,0.03448 -4.69452,0.02299 -0.33328,0 -0.48267,0.0747 -0.55162,0.436699 -0.31603,1.741051 -0.66653,3.470608 -1.01706,5.240388 z M 316.95,26.681199 c 1.62038,-0.0632 3.1316,-0.05172 4.61982,-0.201112 1.95365,-0.20111 3.33844,-1.252636 3.91305,-3.160321 0.2758,-0.919366 0.44819,-1.884701 0.48841,-2.838543 0.069,-1.505463 -0.56311,-2.361623 -2.06282,-2.56848 -1.70083,-0.229842 -3.43614,-0.229842 -5.18867,-0.333271 -0.59759,3.068386 -1.1722,6.016105 -1.76979,9.101727 z m -38.10199,8.96957 c -1.56292,0 -3.08563,0 -4.64855,0 1.37905,-7.113599 2.7581,-14.19272 4.13715,-21.30057 0.15514,-0.01148 0.29879,-0.03448 0.44245,-0.03448 2.94196,0 5.88969,-0.02299 8.83167,0.01724 0.82743,0.0057 1.67783,0.114928 2.48228,0.310286 2.65466,0.649302 4.18312,2.327146 4.38423,5.039277 0.39647,5.286356 -3.14309,9.015536 -6.64243,9.871696 -0.9366,0.229841 -1.90767,0.356255 -2.86728,0.396477 -1.52844,0.06894 -3.05688,0.03448 -4.58533,0.02873 -0.31603,0 -0.44819,0.08045 -0.5114,0.413715 -0.31603,1.741049 -0.67228,3.470608 -1.02279,5.257627 z m 1.75253,-8.975315 c 1.6089,-0.05746 3.12012,-0.04022 4.61408,-0.195367 1.99963,-0.206856 3.39017,-1.298604 3.94753,-3.258003 0.25858,-0.884891 0.41946,-1.815749 0.45967,-2.735115 0.069,-1.505463 -0.56311,-2.367369 -2.05706,-2.574226 -1.70083,-0.229842 -3.43614,-0.229842 -5.19442,-0.333271 -0.5976,3.068386 -1.17221,6.016105 -1.7698,9.095982 z M 297.72949,8.6501259 h 4.61407 c -0.36774,1.8961921 -0.72399,3.7521641 -1.09174,5.6655951 1.25264,0 2.46505,-0.04597 3.67172,0.01148 1.2239,0.05172 2.46505,0.08045 3.65448,0.33327 2.51676,0.540128 3.57403,2.172004 3.12584,4.740482 -0.51139,2.907497 -1.10324,5.809246 -1.6606,8.710998 -0.0977,0.511398 -0.17813,1.02854 -0.31028,1.534192 -0.0344,0.132153 -0.21836,0.321778 -0.33327,0.321778 -1.44802,0.02299 -2.90176,0.01724 -4.41296,0.01724 0.27581,-1.413527 0.53438,-2.7581 0.79295,-4.102674 0.3735,-1.959399 0.76997,-3.907307 1.10899,-5.866706 0.24708,-1.43651 -0.30454,-2.143272 -1.76979,-2.212225 -1.48247,-0.0632 -2.97645,-0.01148 -4.54511,-0.01148 -0.78721,4.027975 -1.57442,8.073187 -2.36738,12.152875 -1.52269,0 -3.03964,0 -4.6198,0 1.38478,-7.102106 2.7581,-14.181227 4.14288,-21.2948251 z m 0,0"
       id="path46"
       inkscape:connector-curvature="0"
       style="fill:url(#linearGradient3615);fill-opacity:1;fill-rule:evenodd;stroke-width:1.47098625" />
  </g>
</svg>
