<?xml version="1.0" encoding="UTF-8" standalone="no"?>
<svg
   xmlns:dc="http://purl.org/dc/elements/1.1/"
   xmlns:cc="http://creativecommons.org/ns#"
   xmlns:rdf="http://www.w3.org/1999/02/22-rdf-syntax-ns#"
   xmlns:svg="http://www.w3.org/2000/svg"
   xmlns="http://www.w3.org/2000/svg"
   xmlns:xlink="http://www.w3.org/1999/xlink"
   xmlns:sodipodi="http://sodipodi.sourceforge.net/DTD/sodipodi-0.dtd"
   xmlns:inkscape="http://www.inkscape.org/namespaces/inkscape"
   width="128"
   height="128"
   viewBox="0 0 128 128"
   version="1.1"
   id="svg74"
   sodipodi:docname="com.github.mdh34.hackup.svg"
   inkscape:version="0.92.3 (2405546, 2018-03-11)">
  <metadata
     id="metadata78">
    <rdf:RDF>
      <cc:Work
         rdf:about="">
        <dc:format>image/svg+xml</dc:format>
        <dc:type
           rdf:resource="http://purl.org/dc/dcmitype/StillImage" />
        <dc:title></dc:title>
      </cc:Work>
    </rdf:RDF>
  </metadata>
  <sodipodi:namedview
     pagecolor="#ffffff"
     bordercolor="#666666"
     borderopacity="1"
     objecttolerance="10"
     gridtolerance="10"
     guidetolerance="10"
     inkscape:pageopacity="0"
     inkscape:pageshadow="2"
     inkscape:window-width="1529"
     inkscape:window-height="837"
     id="namedview76"
     showgrid="false"
     inkscape:zoom="3.6875"
     inkscape:cx="102.54926"
     inkscape:cy="79.959774"
     inkscape:window-x="71"
     inkscape:window-y="27"
     inkscape:window-maximized="1"
     inkscape:current-layer="svg74" />
  <defs
     id="defs45">
    <linearGradient
       inkscape:collect="always"
       id="linearGradient1135">
      <stop
         style="stop-color:#ff7105;stop-opacity:1"
         offset="0"
         id="stop1131" />
      <stop
         style="stop-color:#ff9a29;stop-opacity:1"
         offset="1"
         id="stop1133" />
    </linearGradient>
    <linearGradient
       inkscape:collect="always"
       xlink:href="#linearGradient1135"
       id="linearGradient1137"
       x1="-78.278885"
       y1="40.758839"
       x2="-78.278885"
       y2="0.30102056"
       gradientUnits="userSpaceOnUse"
       gradientTransform="matrix(2.3869462,0,0,2.3869462,121.32338,-169.62869)" />
  </defs>
  <g
     id="g1147"
     transform="matrix(0.9805688,0,0,0.9805688,122.05663,180.59333)">
    <path
       style="opacity:0.25;fill:#000000;fill-opacity:1;fill-rule:nonzero;stroke:none;stroke-width:0.75590551;stroke-miterlimit:4;stroke-dasharray:none;stroke-opacity:1"
       d="M -112.89007,-177.7148 H -5.514787 c 3.487178,0 6.31235404,2.82517 6.31235404,6.31235 v 107.375297 c 0,3.487161 -2.82517604,6.312351 -6.31235404,6.312351 H -112.89007 c -3.48718,0 -6.32168,-2.82519 -6.32168,-6.312351 V -171.40245 c 0,-3.48718 2.8345,-6.31235 6.32168,-6.31235 z m 0,0"
       id="path1141"
       inkscape:connector-curvature="0" />
    <path
       inkscape:connector-curvature="0"
       id="path898"
       d="M -112.89007,-179.7148 H -5.514787 c 3.487178,0 6.31235404,2.82517 6.31235404,6.31235 v 107.375297 c 0,3.487161 -2.82517604,6.312351 -6.31235404,6.312351 H -112.89007 c -3.48718,0 -6.32168,-2.82519 -6.32168,-6.312351 V -173.40245 c 0,-3.48718 2.8345,-6.31235 6.32168,-6.31235 z m 0,0"
       style="fill:url(#linearGradient1137);fill-opacity:1;fill-rule:nonzero;stroke:#722e00;stroke-width:0.75590551;stroke-miterlimit:4;stroke-dasharray:none;stroke-opacity:1" />
    <path
       style="opacity:0.25;fill:#000000;fill-opacity:1;fill-rule:nonzero;stroke:none;stroke-width:2.3869462"
       d="m -65.524107,-70.339528 c -1.74359,0 -3.151516,-1.407916 -3.151516,-3.160818 v -50.526814 h -25.268063 l 34.741256,-41.05361 34.731934,41.05361 h -25.258741 v 50.526814 c 0,1.752902 -1.407926,3.160818 -3.160837,3.160818 z m 0,0"
       id="path1139"
       inkscape:connector-curvature="0" />
    <path
       inkscape:connector-curvature="0"
       id="path900"
       d="m -65.524107,-72.339528 c -1.74359,0 -3.151516,-1.407916 -3.151516,-3.160818 v -50.526814 h -25.268063 l 34.741256,-41.05361 34.731934,41.05361 h -25.258741 v 50.526814 c 0,1.752902 -1.407926,3.160818 -3.160837,3.160818 z m 0,0"
       style="fill:#ffffff;fill-opacity:1;fill-rule:nonzero;stroke:none;stroke-width:2.3869462" />
  </g>
</svg>
