<?xml version="1.0" encoding="UTF-8" standalone="no"?>
<!-- Created with Inkscape (http://www.inkscape.org/) -->

<svg
   xmlns:osb="http://www.openswatchbook.org/uri/2009/osb"
   xmlns:dc="http://purl.org/dc/elements/1.1/"
   xmlns:cc="http://creativecommons.org/ns#"
   xmlns:rdf="http://www.w3.org/1999/02/22-rdf-syntax-ns#"
   xmlns:svg="http://www.w3.org/2000/svg"
   xmlns="http://www.w3.org/2000/svg"
   xmlns:xlink="http://www.w3.org/1999/xlink"
   xmlns:sodipodi="http://sodipodi.sourceforge.net/DTD/sodipodi-0.dtd"
   xmlns:inkscape="http://www.inkscape.org/namespaces/inkscape"
   width="128"
   height="128"
   viewBox="0 0 33.866665 33.866665"
   version="1.1"
   id="svg4942"
   inkscape:version="0.92.2 5c3e80d, 2017-08-06"
   sodipodi:docname="goa-panel.svg">
  <defs
     id="defs4936">
    <linearGradient
       inkscape:collect="always"
       id="linearGradient948">
      <stop
         style="stop-color:#f6f6f6;stop-opacity:1"
         offset="0"
         id="stop944" />
      <stop
         style="stop-color:#dcdcdc;stop-opacity:1"
         offset="1"
         id="stop946" />
    </linearGradient>
    <linearGradient
       inkscape:collect="always"
       id="linearGradient1231">
      <stop
         style="stop-color:#07b2fa;stop-opacity:1"
         offset="0"
         id="stop1227" />
      <stop
         style="stop-color:#0071fc;stop-opacity:1"
         offset="1"
         id="stop1229" />
    </linearGradient>
    <linearGradient
       id="linearGradient6987"
       osb:paint="solid">
      <stop
         style="stop-color:#77d2fb;stop-opacity:1;"
         offset="0"
         id="stop6985" />
    </linearGradient>
    <linearGradient
       inkscape:collect="always"
       xlink:href="#linearGradient1231"
       id="linearGradient1233"
       x1="95.926155"
       y1="317.36301"
       x2="98.17926"
       y2="392.7926"
       gradientUnits="userSpaceOnUse"
       gradientTransform="matrix(0.28627619,0,0,0.28627619,-10.550326,182.25448)" />
    <linearGradient
       inkscape:collect="always"
       xlink:href="#linearGradient948"
       id="linearGradient950"
       x1="-81.496399"
       y1="254.97984"
       x2="-82.23941"
       y2="271.50272"
       gradientUnits="userSpaceOnUse" />
    <linearGradient
       inkscape:collect="always"
       xlink:href="#linearGradient948"
       id="linearGradient964"
       gradientUnits="userSpaceOnUse"
       x1="-81.496399"
       y1="254.97984"
       x2="-82.23941"
       y2="271.50272" />
  </defs>
  <sodipodi:namedview
     id="base"
     pagecolor="#ffffff"
     bordercolor="#666666"
     borderopacity="1.0"
     inkscape:pageopacity="0.0"
     inkscape:pageshadow="2"
     inkscape:zoom="3.0538834"
     inkscape:cx="14.635501"
     inkscape:cy="64.852648"
     inkscape:document-units="mm"
     inkscape:current-layer="layer1"
     showgrid="false"
     units="px"
     width="128px"
     inkscape:window-width="1600"
     inkscape:window-height="811"
     inkscape:window-x="0"
     inkscape:window-y="0"
     inkscape:window-maximized="1"
     inkscape:measure-start="-293.521,100.415"
     inkscape:measure-end="-294.709,409.978" />
  <metadata
     id="metadata4939">
    <rdf:RDF>
      <cc:Work
         rdf:about="">
        <dc:format>image/svg+xml</dc:format>
        <dc:type
           rdf:resource="http://purl.org/dc/dcmitype/StillImage" />
        <dc:title />
      </cc:Work>
    </rdf:RDF>
  </metadata>
  <g
     inkscape:label="Layer 1"
     inkscape:groupmode="layer"
     id="layer1"
     transform="translate(0,-263.13332)">
    <g
       id="g848"
       transform="matrix(0.99685986,0,0,0.99685986,0.05317583,0.92929443)">
      <circle
         style="opacity:0.25;fill:#000000;fill-opacity:1;fill-rule:nonzero;stroke:none;stroke-width:0.01092247;stroke-linecap:round;stroke-linejoin:round;stroke-miterlimit:4;stroke-dasharray:none;stroke-dashoffset:0;stroke-opacity:1"
         id="circle966"
         cx="16.933331"
         cy="280.34818"
         r="15.593482" />
      <circle
         r="15.593482"
         cy="279.78513"
         cx="16.933331"
         id="path1201"
         style="opacity:1;fill:url(#linearGradient1233);fill-opacity:1;fill-rule:nonzero;stroke:#025bb2;stroke-width:0.2;stroke-linecap:round;stroke-linejoin:round;stroke-miterlimit:4;stroke-dasharray:none;stroke-dashoffset:0;stroke-opacity:1" />
      <g
         transform="matrix(1.0639892,0,0,1.0639892,105.09693,-0.04883002)"
         id="g960"
         style="stroke-width:0.89510399">
        <g
           id="g954"
           style="font-style:normal;font-weight:normal;font-size:24.60793686px;line-height:1.25;font-family:sans-serif;letter-spacing:0px;word-spacing:0px;opacity:0.25;fill:#000000;fill-opacity:1;stroke:none;stroke-width:0.23682958"
           aria-label="@"
           transform="translate(0,0.52916667)">
          <path
             id="path952"
             style="font-style:normal;font-variant:normal;font-weight:normal;font-stretch:normal;font-family:MyriadSetPro-Semibold;-inkscape-font-specification:MyriadSetPro-Semibold;fill:#000000;fill-opacity:1;stroke-width:0.23682958"
             d="m -74.814578,261.38956 q 0,2.70688 -1.279613,4.331 -1.279612,1.59952 -3.149816,1.59952 -1.894811,0 -1.894811,-2.06707 h -0.07382 q -1.255004,2.06707 -3.346679,2.06707 -1.131965,0 -1.894811,-0.83667 -0.738238,-0.83667 -0.738238,-2.26393 0,-2.36237 1.574908,-4.06031 1.673339,-1.77178 4.183349,-1.77178 1.599516,0 2.682265,0.54138 l -0.812062,4.50325 q -0.123039,0.76285 -0.123039,1.27961 0,1.25501 0.812061,1.27962 0.984318,0.0246 1.722556,-1.13197 0.83667,-1.27961 0.83667,-3.32207 0,-2.65766 -1.525692,-4.25717 -1.574908,-1.69795 -4.330997,-1.69795 -3.002168,0 -5.069235,2.19011 -2.140891,2.28853 -2.140891,5.88129 0,3.02678 1.771772,4.82316 1.697948,1.74716 4.454036,1.74716 2.091675,0 3.641975,-0.83667 l 0.393727,1.15658 q -1.870203,0.95971 -4.380213,0.95971 -3.1006,0 -5.192274,-2.06707 -2.214715,-2.1655 -2.214715,-5.63522 0,-3.91266 2.436186,-6.61953 2.559226,-2.82992 6.521103,-2.82992 3.174424,0 5.143059,1.99325 1.993243,1.96863 1.993243,5.04462 z m -5.905905,-1.35343 q -0.467551,-0.14765 -1.033533,-0.14765 -1.476476,0 -2.534618,1.255 -1.033533,1.2304 -1.033533,2.90374 0,1.74716 1.476476,1.74716 0.885886,0 1.648732,-0.95971 0.787454,-0.95971 1.008925,-2.11628 z"
             inkscape:connector-curvature="0" />
        </g>
        <g
           aria-label="@"
           style="font-style:normal;font-weight:normal;font-size:24.60793686px;line-height:1.25;font-family:sans-serif;letter-spacing:0px;word-spacing:0px;opacity:1;fill:url(#linearGradient950);fill-opacity:1;stroke:none;stroke-width:0.23682958"
           id="text936">
          <path
             inkscape:connector-curvature="0"
             d="m -74.814578,261.38956 q 0,2.70688 -1.279613,4.331 -1.279612,1.59952 -3.149816,1.59952 -1.894811,0 -1.894811,-2.06707 h -0.07382 q -1.255004,2.06707 -3.346679,2.06707 -1.131965,0 -1.894811,-0.83667 -0.738238,-0.83667 -0.738238,-2.26393 0,-2.36237 1.574908,-4.06031 1.673339,-1.77178 4.183349,-1.77178 1.599516,0 2.682265,0.54138 l -0.812062,4.50325 q -0.123039,0.76285 -0.123039,1.27961 0,1.25501 0.812061,1.27962 0.984318,0.0246 1.722556,-1.13197 0.83667,-1.27961 0.83667,-3.32207 0,-2.65766 -1.525692,-4.25717 -1.574908,-1.69795 -4.330997,-1.69795 -3.002168,0 -5.069235,2.19011 -2.140891,2.28853 -2.140891,5.88129 0,3.02678 1.771772,4.82316 1.697948,1.74716 4.454036,1.74716 2.091675,0 3.641975,-0.83667 l 0.393727,1.15658 q -1.870203,0.95971 -4.380213,0.95971 -3.1006,0 -5.192274,-2.06707 -2.214715,-2.1655 -2.214715,-5.63522 0,-3.91266 2.436186,-6.61953 2.559226,-2.82992 6.521103,-2.82992 3.174424,0 5.143059,1.99325 1.993243,1.96863 1.993243,5.04462 z m -5.905905,-1.35343 q -0.467551,-0.14765 -1.033533,-0.14765 -1.476476,0 -2.534618,1.255 -1.033533,1.2304 -1.033533,2.90374 0,1.74716 1.476476,1.74716 0.885886,0 1.648732,-0.95971 0.787454,-0.95971 1.008925,-2.11628 z"
             style="font-style:normal;font-variant:normal;font-weight:normal;font-stretch:normal;font-family:MyriadSetPro-Semibold;-inkscape-font-specification:MyriadSetPro-Semibold;fill:url(#linearGradient964);fill-opacity:1;stroke-width:0.23682958"
             id="path941" />
        </g>
      </g>
    </g>
  </g>
</svg>
