<?xml version="1.0" encoding="UTF-8" standalone="no"?>
<!-- Created with Inkscape (http://www.inkscape.org/) -->

<svg
   xmlns:dc="http://purl.org/dc/elements/1.1/"
   xmlns:cc="http://creativecommons.org/ns#"
   xmlns:rdf="http://www.w3.org/1999/02/22-rdf-syntax-ns#"
   xmlns:svg="http://www.w3.org/2000/svg"
   xmlns="http://www.w3.org/2000/svg"
   xmlns:xlink="http://www.w3.org/1999/xlink"
   xmlns:sodipodi="http://sodipodi.sourceforge.net/DTD/sodipodi-0.dtd"
   xmlns:inkscape="http://www.inkscape.org/namespaces/inkscape"
   width="128"
   height="128"
   viewBox="0 0 33.866666 33.866668"
   version="1.1"
   id="svg8"
   inkscape:version="0.92.2 5c3e80d, 2017-08-06"
   sodipodi:docname="drawing.svg">
  <defs
     id="defs2">
    <linearGradient
       inkscape:collect="always"
       id="linearGradient1128">
      <stop
         style="stop-color:#eef2f5;stop-opacity:1"
         offset="0"
         id="stop1124" />
      <stop
         style="stop-color:#fdfdfe;stop-opacity:1"
         offset="1"
         id="stop1126" />
    </linearGradient>
    <linearGradient
       gradientUnits="userSpaceOnUse"
       gradientTransform="matrix(1.2966976,-31.66105,31.66105,1.2966976,12.386264,296.81354)"
       x2="1"
       id="_Linear1">
      <stop
         id="stop905"
         offset="0"
         style="stop-color:#787575;stop-opacity:1" />
      <stop
         id="stop907"
         offset="1"
         style="stop-color:#c4d9e7;stop-opacity:1" />
    </linearGradient>
    <linearGradient
       gradientUnits="userSpaceOnUse"
       gradientTransform="matrix(13.021006,-23.610727,23.610727,13.021006,4.173851,292.76137)"
       x2="1"
       id="_Linear2">
      <stop
         id="stop910"
         offset="0"
         style="stop-color:#1f1f1f" />
      <stop
         id="stop912"
         offset="1"
         style="stop-color:#393939" />
    </linearGradient>
    <linearGradient
       inkscape:collect="always"
       xlink:href="#linearGradient1128"
       id="linearGradient1130"
       x1="13.978461"
       y1="289.2955"
       x2="17.262531"
       y2="279.22299"
       gradientUnits="userSpaceOnUse"
       gradientTransform="matrix(0.93815461,0,0,0.93815461,-0.14843823,18.29766)" />
  </defs>
  <sodipodi:namedview
     id="base"
     pagecolor="#ffffff"
     bordercolor="#666666"
     borderopacity="1.0"
     inkscape:pageopacity="0.0"
     inkscape:pageshadow="2"
     inkscape:zoom="1.979899"
     inkscape:cx="150.71005"
     inkscape:cy="66.266132"
     inkscape:document-units="mm"
     inkscape:current-layer="layer1"
     showgrid="false"
     units="px"
     inkscape:window-width="1600"
     inkscape:window-height="803"
     inkscape:window-x="0"
     inkscape:window-y="0"
     inkscape:window-maximized="1" />
  <metadata
     id="metadata5">
    <rdf:RDF>
      <cc:Work
         rdf:about="">
        <dc:format>image/svg+xml</dc:format>
        <dc:type
           rdf:resource="http://purl.org/dc/dcmitype/StillImage" />
        <dc:title></dc:title>
      </cc:Work>
    </rdf:RDF>
  </metadata>
  <g
     inkscape:label="Layer 1"
     inkscape:groupmode="layer"
     id="layer1"
     transform="translate(0,-263.13332)">
    <g
       id="g1152"
       transform="matrix(0.98360626,0,0,0.98360626,4.2178237,4.410086)">
      <circle
         cx="12.927439"
         cy="281.06293"
         r="15.327589"
         style="clip-rule:evenodd;opacity:0.25;fill:#000000;fill-rule:evenodd;stroke-width:0.54741389;stroke-linejoin:round;stroke-miterlimit:1.41420996"
         id="circle1142" />
      <circle
         id="circle897"
         style="clip-rule:evenodd;fill:url(#_Linear1);fill-rule:evenodd;stroke:#4b5358;stroke-width:0.15000001;stroke-linejoin:round;stroke-miterlimit:1.41420996;stroke-dasharray:none;stroke-opacity:1"
         r="15.327589"
         cy="280.53375"
         cx="12.927439" />
      <path
         inkscape:connector-curvature="0"
         d="m 18.356142,276.48491 c 0.07171,0.6399 -0.05256,1.30557 0.01924,1.95645 0.07554,0.70726 -0.02298,1.45173 -0.151096,2.1475 -0.01531,-0.56493 -0.0301,-1.13698 -0.06021,-1.69097 -0.03066,-0.58355 -0.264399,-1.18241 -0.423151,-1.75063 0.170256,1.19721 0.245789,2.40916 0.275897,3.6102 0.02245,0.92787 0.02628,1.89296 -0.128649,2.79838 -0.151075,0.88297 -0.615291,1.76979 -0.905969,2.58871 -0.430269,1.21254 -0.294509,2.83233 -0.396327,4.16419 0,0 -0.101813,0.23209 -0.27535,-0.89776 -0.234294,-1.52674 -0.364031,-3.19908 -0.333923,-4.75155 v -0.0372 c 0,-0.0186 -0.0039,-0.0525 -0.0039,-0.0525 0,0 -0.04926,0.14235 -0.05638,0.18331 -0.0039,0.0145 -0.01159,0.0558 -0.01159,0.0673 v 0.004 c -0.0039,0.0187 -0.0077,0.0416 -0.01159,0.0675 -0.0039,0.0144 -0.0039,0.0263 -0.0077,0.0416 -0.0033,0.0256 -0.01097,0.0596 -0.01469,0.0898 -0.0039,0.0145 -0.0077,0.0333 -0.0077,0.0488 -0.02245,0.12311 -0.05311,0.27644 -0.09033,0.45984 -0.185028,0.87914 -1.305034,1.27601 -1.429299,2.16281 -0.0039,0.0186 -1.701908,0.15703 -0.0077,0.0525 -0.101815,0.61312 -0.157097,0.82442 -0.538656,1.25469 -0.403991,0.45653 -0.148345,-0.27864 -0.695763,0.0432 0.523327,0.1347 0.02299,-0.0144 0,0 -0.73244,0.49378 1.499914,-0.44722 0.733534,-0.0356 -0.05255,0.0295 0.383737,-0.42259 -0.03778,-0.008 1.393169,-0.60544 -0.858346,1.26014 -0.831522,1.23005 0.195972,-0.20912 -0.128649,0.23592 0,0 1.060341,-1.46161 -0.0039,0.008 0,0 0.422602,-0.85288 -0.245241,-0.30766 0.135765,-1.18681 0,0 -0.10564,0.15704 -0.237579,0.34378 -0.166407,0.2321 -0.385378,0.51677 -0.4757,0.62514 -0.717115,0.86054 -1.222925,2.10974 -1.974522,2.92922 -0.271519,0.29559 -0.7357246,0.40782 -1.0417309,0.69575 -0.2868437,0.26934 -0.6984993,0.44562 -1.0718361,0.50911 -0.6043451,0.10076 -1.2459125,0.46749 -1.8612068,0.69193 0,0 0.3623875,-0.43027 0.6267895,-0.77075 0.5506987,-0.71822 1.0603408,-1.47364 1.5250942,-2.2559 -0.011586,0.008 -0.3246165,0.2622 -0.5288002,0.6996 -0.3547247,0.77458 -1.2420839,1.3543 -1.8573773,1.95317 -0.4527103,0.4412 -1.090449,0.6996 -1.7062884,0.83041 -1.0378973,-0.041 -2.0949527,-0.1533 -3.1027428,-0.40015 -0.8380901,-0.20965 -2.36701727,-0.69249 -2.6724742,-1.26451 -0.041602,-0.0827 -0.060763,-0.41166 0.1133152,-0.72588 0.30162503,-0.54633 0.90980195,-0.99904 1.27930597,-1.53002 0.69466878,-1.0067 1.68767733,-2.53289 2.68780173,-3.12792 0.5550789,-0.32901 1.2984669,-0.52772 1.948246,-0.78938 0.2977927,-0.10075 0.4412159,-0.15331 0.7357243,-0.26166 -0.7324389,0.16096 -1.438055,0.43355 -2.1365571,0.69576 0,0 0.00394,0.007 0.377717,-0.48665 0.4149392,-0.54577 0.9623524,-0.99848 1.4457188,-1.47746 0.8490393,-0.84193 2.917718,-2.20389 2.917718,-2.20389 0,0 -1.0981137,0.65141 -1.6718028,0.65853 -0.3476069,0.004 -0.6875528,0.20586 -0.9743964,0.38538 0.3552707,-0.39633 0.7362703,-0.78171 1.1024921,-1.16325 0.7401017,-0.77843 1.7555546,-1.3357 2.6615258,-1.91923 -0.4494267,0.0931 -0.9475736,0.0482 -1.3970013,-0.0187 0.8534196,-0.53101 1.683845,-1.13315 2.3971277,-1.82564 1.755555,-1.70956 2.619921,-4.21618 3.978602,-6.19508 0.622958,-0.90542 1.483493,-1.69479 2.310635,-2.43598 0,0 0.550698,0.0827 0.633906,0.39687 0.204186,0.7817 0.551245,1.56012 0.819478,2.33799 0.279182,0.79705 0.309289,1.70247 0.403444,2.54057 z"
         style="clip-rule:evenodd;opacity:0.25;fill:#000000;fill-rule:nonzero;stroke-width:0.54741389;stroke-linejoin:round;stroke-miterlimit:1.41420996"
         id="path1144" />
      <path
         id="path899"
         style="clip-rule:evenodd;fill:url(#_Linear2);fill-rule:nonzero;stroke-width:0.54741389;stroke-linejoin:round;stroke-miterlimit:1.41420996"
         d="m 18.356142,275.95574 c 0.07171,0.6399 -0.05256,1.30557 0.01924,1.95645 0.07554,0.70726 -0.02298,1.45173 -0.151096,2.1475 -0.01531,-0.56493 -0.0301,-1.13698 -0.06021,-1.69097 -0.03066,-0.58355 -0.264399,-1.18241 -0.423151,-1.75063 0.170256,1.19721 0.245789,2.40916 0.275897,3.6102 0.02245,0.92787 0.02628,1.89296 -0.128649,2.79838 -0.151075,0.88297 -0.615291,1.76979 -0.905969,2.58871 -0.430269,1.21254 -0.294509,2.83233 -0.396327,4.16419 0,0 -0.101813,0.23209 -0.27535,-0.89776 -0.234294,-1.52674 -0.364031,-3.19908 -0.333923,-4.75155 v -0.0372 c 0,-0.0186 -0.0039,-0.0525 -0.0039,-0.0525 0,0 -0.04926,0.14235 -0.05638,0.18331 -0.0039,0.0145 -0.01159,0.0558 -0.01159,0.0673 v 0.004 c -0.0039,0.0187 -0.0077,0.0416 -0.01159,0.0675 -0.0039,0.0144 -0.0039,0.0263 -0.0077,0.0416 -0.0033,0.0256 -0.01097,0.0596 -0.01469,0.0898 -0.0039,0.0145 -0.0077,0.0333 -0.0077,0.0488 -0.02245,0.12311 -0.05311,0.27644 -0.09033,0.45984 -0.185028,0.87914 -1.305034,1.27601 -1.429299,2.16281 -0.0039,0.0186 -1.701908,0.15703 -0.0077,0.0525 -0.101815,0.61312 -0.157097,0.82442 -0.538656,1.25469 -0.403991,0.45653 -0.148345,-0.27864 -0.695763,0.0432 0.523327,0.1347 0.02299,-0.0144 0,0 -0.73244,0.49378 1.499914,-0.44722 0.733534,-0.0356 -0.05255,0.0295 0.383737,-0.42259 -0.03778,-0.008 1.393169,-0.60544 -0.858346,1.26014 -0.831522,1.23005 0.195972,-0.20912 -0.128649,0.23592 0,0 1.060341,-1.46161 -0.0039,0.008 0,0 0.422602,-0.85288 -0.245241,-0.30766 0.135765,-1.18681 0,0 -0.10564,0.15704 -0.237579,0.34378 -0.166407,0.2321 -0.385378,0.51677 -0.4757,0.62514 -0.717115,0.86054 -1.222925,2.10974 -1.974522,2.92922 -0.271519,0.29559 -0.7357246,0.40782 -1.0417309,0.69575 -0.2868437,0.26934 -0.6984993,0.44562 -1.0718361,0.50911 -0.6043451,0.10076 -1.2459125,0.46749 -1.8612068,0.69193 0,0 0.3623875,-0.43027 0.6267895,-0.77075 0.5506987,-0.71822 1.0603408,-1.47364 1.5250942,-2.2559 -0.011586,0.008 -0.3246165,0.2622 -0.5288002,0.6996 -0.3547247,0.77458 -1.2420839,1.3543 -1.8573773,1.95317 -0.4527103,0.4412 -1.090449,0.6996 -1.7062884,0.83041 -1.0378973,-0.041 -2.0949527,-0.1533 -3.1027428,-0.40015 -0.8380901,-0.20965 -2.36701727,-0.69249 -2.6724742,-1.26451 -0.041602,-0.0827 -0.060763,-0.41166 0.1133152,-0.72588 0.30162503,-0.54633 0.90980195,-0.99904 1.27930597,-1.53002 0.69466878,-1.0067 1.68767733,-2.53289 2.68780173,-3.12792 0.5550789,-0.32901 1.2984669,-0.52772 1.948246,-0.78938 0.2977927,-0.10075 0.4412159,-0.15331 0.7357243,-0.26166 -0.7324389,0.16096 -1.438055,0.43355 -2.1365571,0.69576 0,0 0.00394,0.007 0.377717,-0.48665 0.4149392,-0.54577 0.9623524,-0.99848 1.4457188,-1.47746 0.8490393,-0.84193 2.917718,-2.20389 2.917718,-2.20389 0,0 -1.0981137,0.65141 -1.6718028,0.65853 -0.3476069,0.004 -0.6875528,0.20586 -0.9743964,0.38538 0.3552707,-0.39633 0.7362703,-0.78171 1.1024921,-1.16325 0.7401017,-0.77843 1.7555546,-1.3357 2.6615258,-1.91923 -0.4494267,0.0931 -0.9475736,0.0482 -1.3970013,-0.0187 0.8534196,-0.53101 1.683845,-1.13315 2.3971277,-1.82564 1.755555,-1.70956 2.619921,-4.21618 3.978602,-6.19508 0.622958,-0.90542 1.483493,-1.69479 2.310635,-2.43598 0,0 0.550698,0.0827 0.633906,0.39687 0.204186,0.7817 0.551245,1.56012 0.819478,2.33799 0.279182,0.79705 0.309289,1.70247 0.403444,2.54057 z"
         inkscape:connector-curvature="0" />
      <path
         id="path901"
         style="clip-rule:evenodd;fill:url(#linearGradient1130);fill-opacity:1;fill-rule:nonzero;stroke-width:0.54741389;stroke-linejoin:round;stroke-miterlimit:1.41420996"
         d="m 15.41872,279.16249 c -0.105642,0.0372 0.481176,2.10699 0.668392,3.0447 0.08977,0.44779 0.154924,0.91528 0.110026,1.37071 0,0 -0.05309,0.14173 -0.06076,0.18332 -0.0043,0.0145 -0.01262,0.0558 -0.01262,0.0668 v 0.004 c -0.0039,0.0225 -0.0083,0.041 -0.012,0.0673 -0.0039,0.0145 -0.0039,0.0263 -0.0083,0.041 -0.0039,0.0263 -0.012,0.0596 -0.01634,0.0898 -0.0039,0.0145 -0.0077,0.0333 -0.0077,0.0482 -0.02465,0.12373 -0.05747,0.27646 -0.09799,0.45983 -0.1998,0.87807 -0.342682,1.76706 -0.476799,2.65223 -0.0043,0.0187 -0.0043,0.034 -0.0083,0.0525 -0.110027,0.61255 -0.318047,0.87422 -0.729703,1.30395 -0.436289,0.45543 -0.961807,1.02695 -1.553014,1.34827 -0.01593,0.0124 -0.04051,0.0223 -0.06513,0.0372 -0.790468,0.49323 -1.524002,1.11727 -2.351691,1.52837 -0.05694,0.0296 -0.07719,0.0296 -0.04051,-0.008 0.02847,-0.0296 0.05694,-0.0559 0.08539,-0.0858 0.211847,-0.20911 0.416033,-0.44067 0.55453,-0.67606 0.0039,-0.008 0.0077,-0.0144 0.012,-0.0225 0.456545,-0.85178 0.8682,-1.7446 1.279854,-2.62266 0.02027,-0.0333 0.02847,-0.0519 0.0449,-0.0858 0.04051,-0.0745 0.06898,-0.15662 0.08977,-0.24633 0.235935,-1.13206 0.488841,-2.44695 0.215682,-3.57898 -0.244695,-1.00506 -0.260571,-0.75873 -0.260571,-0.75873 -0.0613,0.4861 -0.159289,0.9755 -0.306003,1.44245 -0.113856,0.35471 -0.32188,0.6651 -0.350347,0.84794 -0.07774,0.48171 0.134669,0.97494 0.146711,1.00504 -0.012,-0.0187 -0.195435,-0.30271 -0.236484,-0.72476 -0.0449,-0.45983 0.256737,-0.95633 0.366768,-1.37838 0.179545,-0.68374 -0.179006,-1.67018 -0.02027,-2.16722 0.411655,-1.31107 2.02543,-3.33595 2.68178,-5.15171 0.342681,0.97165 0.607629,2.0287 0.974397,2.93303 0.0323,0.0821 0.0449,0.10779 0.012,0.0705 -0.171352,-0.3624 -0.627884,-1.09101 -0.627884,-1.09101 z"
         inkscape:connector-curvature="0" />
      <path
         id="path903"
         style="clip-rule:evenodd;fill:#666666;fill-rule:nonzero;stroke-width:0.54741389;stroke-linejoin:round;stroke-miterlimit:1.41420996"
         d="m 16.7139,264.11134 c 0.607631,2.24329 0.619126,3.78263 0.514569,6.07189 -0.116048,2.49129 -1.055961,5.10574 -1.867776,7.45743 -0.855061,2.47923 -2.224142,4.57529 -3.512208,6.82243 -1.183509,2.06156 -3.0594959,3.47334 -4.9042812,4.93931 -1.6088489,1.27657 -3.3884906,2.25097 -5.3027979,2.95493 -0.5955865,0.21679 -1.26069407,0.29396 -1.89131504,0.31312 -0.46420715,0.0124 -0.79703486,-0.0145 -0.81236246,-0.0145 1.36908217,-0.28629 2.7578709,-0.70015 3.9725832,-1.40029 3.3687856,-1.94551 6.5399537,-4.27748 8.5166644,-7.67365 1.256864,-2.15406 2.444204,-4.26982 3.271894,-6.63685 0.762,-2.18911 1.593522,-4.48277 1.821793,-6.79558 0.174083,-1.7676 0.166407,-2.81152 -0.150538,-4.56763 0.107835,-0.36731 0.154366,-0.5529 0.235934,-0.92076 0.046,-0.22388 0.06952,-0.33227 0.107835,-0.54904 z"
         inkscape:connector-curvature="0" />
    </g>
  </g>
</svg>
