<?xml version="1.0" encoding="UTF-8" standalone="no"?>
<svg
   xmlns:dc="http://purl.org/dc/elements/1.1/"
   xmlns:cc="http://creativecommons.org/ns#"
   xmlns:rdf="http://www.w3.org/1999/02/22-rdf-syntax-ns#"
   xmlns:svg="http://www.w3.org/2000/svg"
   xmlns="http://www.w3.org/2000/svg"
   xmlns:xlink="http://www.w3.org/1999/xlink"
   xmlns:sodipodi="http://sodipodi.sourceforge.net/DTD/sodipodi-0.dtd"
   xmlns:inkscape="http://www.inkscape.org/namespaces/inkscape"
   width="128"
   height="128"
   viewBox="0 0 128 128"
   version="1.1"
   id="svg83"
   sodipodi:docname="csgo.svg"
   inkscape:version="0.92.3 (2405546, 2018-03-11)">
  <metadata
     id="metadata87">
    <rdf:RDF>
      <cc:Work
         rdf:about="">
        <dc:format>image/svg+xml</dc:format>
        <dc:type
           rdf:resource="http://purl.org/dc/dcmitype/StillImage" />
        <dc:title></dc:title>
      </cc:Work>
    </rdf:RDF>
  </metadata>
  <sodipodi:namedview
     pagecolor="#ffffff"
     bordercolor="#666666"
     borderopacity="1"
     objecttolerance="10"
     gridtolerance="10"
     guidetolerance="10"
     inkscape:pageopacity="0"
     inkscape:pageshadow="2"
     inkscape:window-width="1529"
     inkscape:window-height="837"
     id="namedview85"
     showgrid="false"
     inkscape:zoom="0.45254835"
     inkscape:cx="396.91435"
     inkscape:cy="-180.48241"
     inkscape:window-x="71"
     inkscape:window-y="27"
     inkscape:window-maximized="1"
     inkscape:current-layer="svg83" />
  <defs
     id="defs50">
    <linearGradient
       inkscape:collect="always"
       id="linearGradient5014">
      <stop
         style="stop-color:#b9bcbf;stop-opacity:1"
         offset="0"
         id="stop5010" />
      <stop
         style="stop-color:#ffffff;stop-opacity:1"
         offset="1"
         id="stop5012" />
    </linearGradient>
    <linearGradient
       id="linearGradient4981"
       inkscape:collect="always">
      <stop
         id="stop4977"
         offset="0"
         style="stop-color:#dbdfe3;stop-opacity:1" />
      <stop
         id="stop4979"
         offset="1"
         style="stop-color:#586772;stop-opacity:1" />
    </linearGradient>
    <linearGradient
       inkscape:collect="always"
       id="linearGradient4964">
      <stop
         style="stop-color:#e9ecf1;stop-opacity:1"
         offset="0"
         id="stop4960" />
      <stop
         style="stop-color:#fafbfb;stop-opacity:1"
         offset="1"
         id="stop4962" />
    </linearGradient>
    <linearGradient
       inkscape:collect="always"
       id="linearGradient4956">
      <stop
         style="stop-color:#b1bbc2;stop-opacity:1"
         offset="0"
         id="stop4952" />
      <stop
         style="stop-color:#6b7b86;stop-opacity:1"
         offset="1"
         id="stop4954" />
    </linearGradient>
    <linearGradient
       inkscape:collect="always"
       xlink:href="#linearGradient4981"
       id="linearGradient4958"
       x1="938.34912"
       y1="-767.20917"
       x2="938.34912"
       y2="-549.79187"
       gradientUnits="userSpaceOnUse"
       gradientTransform="matrix(0.52789408,0,0,0.52789408,-422.65606,409.99118)" />
    <linearGradient
       inkscape:collect="always"
       xlink:href="#linearGradient4964"
       id="linearGradient4966"
       x1="913.10217"
       y1="-582.112"
       x2="913.10217"
       y2="-730.91608"
       gradientUnits="userSpaceOnUse"
       gradientTransform="matrix(0.52789408,0,0,0.52789408,-422.65646,409.99127)" />
    <linearGradient
       inkscape:collect="always"
       xlink:href="#linearGradient4956"
       id="linearGradient4975"
       gradientUnits="userSpaceOnUse"
       gradientTransform="matrix(0.49101699,0,0,0.49101699,-388.6598,385.75262)"
       x1="1003.3769"
       y1="-760.06323"
       x2="1003.3769"
       y2="-548.36267" />
    <linearGradient
       inkscape:collect="always"
       xlink:href="#linearGradient5014"
       id="linearGradient5016"
       x1="867.77472"
       y1="-563.1048"
       x2="870.08606"
       y2="-648.89343"
       gradientUnits="userSpaceOnUse"
       gradientTransform="matrix(0.9765469,0,0,0.9765469,-785.60056,653.9627)" />
  </defs>
  <path
     inkscape:connector-curvature="0"
     id="path5018"
     d="M 63.999964,5.9672145 A 59.016457,59.016457 0 0 0 4.9830587,64.984129 59.016457,59.016457 0 0 0 63.999964,124 59.016457,59.016457 0 0 0 122.93028,66.704939 c 0.0507,-0.397957 0.0867,-0.8004 0.0867,-1.212511 V 64.984129 15.445592 c 0,-5.25063 -4.22775,-9.4783775 -9.4784,-9.4783775 H 66.630187 c -0.386243,0 -0.765413,0.029803 -1.139302,0.074262 a 59.016457,59.016457 0 0 0 -1.490892,-0.074262 z"
     style="opacity:0.25;fill:#000000;fill-opacity:1;stroke:none;stroke-width:0.37557665;stroke-linecap:round;stroke-miterlimit:4;stroke-dasharray:none;stroke-dashoffset:0;stroke-opacity:1" />
  <path
     style="opacity:1;fill:url(#linearGradient4958);fill-opacity:1;stroke:none;stroke-width:0.37557665;stroke-linecap:round;stroke-miterlimit:4;stroke-dasharray:none;stroke-dashoffset:0;stroke-opacity:1"
     d="M 63.999964,4.0000014 A 59.016457,59.016457 0 0 0 4.9830587,63.016916 59.016457,59.016457 0 0 0 63.999964,122.03279 59.016457,59.016457 0 0 0 122.93028,64.737726 c 0.0507,-0.397957 0.0867,-0.8004 0.0867,-1.212511 V 63.016916 13.478378 c 0,-5.2506291 -4.22775,-9.4783766 -9.4784,-9.4783766 H 66.630187 c -0.386243,0 -0.765413,0.029803 -1.139302,0.074262 a 59.016457,59.016457 0 0 0 -1.490892,-0.074262 z"
     id="circle1429"
     inkscape:connector-curvature="0" />
  <path
     inkscape:connector-curvature="0"
     id="path4973"
     d="M 63.999974,8.1227096 A 54.893748,54.893748 0 0 0 9.1058062,63.016877 54.893748,54.893748 0 0 0 63.999974,117.91008 54.893748,54.893748 0 0 0 118.81359,64.61748 c 0.0471,-0.37016 0.0807,-0.744492 0.0807,-1.127813 v -0.47279 -46.077925 c 0,-4.883842 -3.9324,-8.8162424 -8.81625,-8.8162424 H 66.446508 c -0.359262,0 -0.711944,0.027738 -1.059708,0.069147 a 54.893748,54.893748 0 0 0 -1.386748,-0.069147 z"
     style="opacity:1;fill:url(#linearGradient4975);fill-opacity:1;stroke:none;stroke-width:0.34934002;stroke-linecap:round;stroke-miterlimit:4;stroke-dasharray:none;stroke-dashoffset:0;stroke-opacity:1" />
  <path
     style="opacity:1;fill:url(#linearGradient4966);fill-opacity:1;stroke:none;stroke-width:0.27171743;stroke-linecap:round;stroke-miterlimit:4;stroke-dasharray:none;stroke-dashoffset:0;stroke-opacity:1"
     d="M 64.000023,20.319864 A 42.696478,42.696478 0 0 0 21.303492,63.016395 42.696478,42.696478 0 0 0 64.000023,105.71293 42.696478,42.696478 0 0 0 106.69656,63.016395 42.696478,42.696478 0 0 0 64.000023,20.319864 Z m -4.725276,12.182813 c 0.801571,-0.0598 1.621279,0.196505 2.760109,0.794931 0.861078,0.452479 1.658921,0.997574 1.773393,1.211479 0.606482,1.133213 0.600531,4.282947 -0.0079,4.282947 -0.457347,0 -1.087642,0.8724 -0.966088,1.337263 0.211357,0.808209 2.455436,0.523593 2.788977,-0.353646 0.251685,-0.662027 0.290075,-0.660522 0.982583,0.03197 l 0.563981,0.56399 h 6.083154 c 3.345777,0 6.244652,0.06177 6.440921,0.137125 0.267354,0.10258 0.356744,-0.0059 0.356744,-0.433043 0,-1.345298 0.546807,-1.717623 0.743381,-0.506243 0.06934,0.42722 0.360462,1.092699 0.646465,1.479541 l 0.519649,0.703171 2.711646,-0.07013 c 2.584141,-0.06679 2.710604,-0.04859 2.710604,0.381472 0,0.428036 -0.187397,0.456983 -3.655043,0.56399 -2.49061,0.07692 -3.745948,0.20277 -3.937554,0.394898 -0.19019,0.190722 -1.066987,0.282492 -2.70958,0.282492 -2.400473,0 -2.437673,0.0079 -3.234384,0.707312 -1.193095,1.047541 -1.308905,1.372485 -1.006298,2.830209 0.253249,1.2198 0.243413,1.275168 -0.30725,1.737305 -0.374154,0.314027 -0.62218,0.815174 -0.723796,1.463056 -0.177256,1.130459 -1.262223,2.485446 -2.436354,3.0426 -0.643053,0.305164 -0.908991,0.311508 -2.022905,0.05262 -0.705571,-0.164006 -1.948574,-0.639521 -2.762164,-1.056816 -1.245138,-0.638636 -1.512227,-0.705974 -1.684731,-0.426856 -0.145987,0.236243 -0.02892,0.515134 0.406239,0.971252 0.598564,0.627394 0.609492,0.691446 0.548518,3.159109 -0.03423,1.384957 -0.166426,2.904462 -0.293853,3.377705 -0.30958,1.149727 -0.961003,1.785147 -1.652763,1.611511 -1.256371,-0.315305 -0.988555,1.095905 0.611409,3.2148 1.103164,1.460902 1.678672,2.570213 4.001479,7.719413 l 0.956813,2.120862 -0.181465,2.616787 c -0.09982,1.439558 -0.204,3.429463 -0.230961,4.422148 -0.02695,0.992675 -0.161134,2.566662 -0.298997,3.497292 -0.155557,1.050118 -0.175485,2.009351 -0.05262,2.529147 0.316122,1.337371 1.493046,2.625777 2.996204,3.277692 1.458472,0.632508 1.906544,1.367017 1.240347,2.033213 -0.434302,0.434292 -3.811613,0.492325 -5.22841,0.08971 -0.496337,-0.141049 -1.426977,-0.257075 -2.068278,-0.257764 -0.641292,-5.31e-4 -1.326571,-0.06285 -1.52285,-0.138157 -0.455793,-0.174905 -0.464754,-1.24258 -0.02164,-2.703394 0.467843,-1.542206 0.423393,-3.757514 -0.11342,-5.621252 -0.673534,-2.338456 -0.823701,-5.140269 -0.350557,-6.530626 0.59638,-1.752502 0.283584,-2.326466 -1.469233,-2.697207 -0.430485,-0.09098 -0.975295,-0.713764 -2.087862,-2.384803 -0.828079,-1.243722 -1.650069,-2.261076 -1.825977,-2.261076 -0.175928,0 -0.642925,-0.272557 -1.038256,-0.605223 l -0.718643,-0.6042 -0.44335,0.548518 c -0.674991,0.836656 -1.706322,3.100938 -2.089918,4.587109 -0.363955,1.410039 -0.431971,1.530206 -2.035289,3.595249 -0.863538,1.112252 -1.022793,1.473629 -1.022793,2.323977 0,0.670957 -0.300817,1.714318 -0.902154,3.127151 -0.496338,1.166174 -0.902164,2.207478 -0.902174,2.314692 0,0.107183 -0.302272,0.48477 -0.671204,0.838239 -1.080491,1.035177 -1.446727,2.506249 -1.268183,5.098505 0.09918,1.44002 0.07072,2.251967 -0.08243,2.346659 -0.5148,0.318157 -3.281961,0.367869 -3.844771,0.06905 -0.7938,-0.421446 -0.831128,-1.627131 -0.136092,-4.376784 0.692253,-2.738645 0.711482,-2.89919 0.495925,-4.089118 -0.147256,-0.812931 -0.07131,-1.170541 0.503154,-2.369331 0.37203,-0.77641 0.744374,-1.835842 0.826898,-2.354901 0.08528,-0.536233 0.727456,-1.920227 1.486761,-3.204482 1.302866,-2.203633 1.33619,-2.301374 1.33623,-3.90662 2.9e-5,-0.905597 0.15299,-2.447567 0.340249,-3.426167 0.250131,-1.307174 0.28081,-1.995177 0.114442,-2.594095 -0.389557,-1.402456 -0.284862,-3.127791 0.233017,-3.828266 0.442928,-0.599105 0.451387,-0.732325 0.190741,-3.135403 -0.243256,-2.24284 -0.233007,-2.568905 0.09898,-3.0756 0.36061,-0.550377 0.353725,-0.576531 -0.246413,-0.867108 -0.685338,-0.33183 -0.670416,-0.184781 -0.382515,-3.730319 0.09334,-1.149314 0.289367,-2.25419 0.436131,-2.454904 0.146774,-0.200735 0.665469,-0.428607 1.151676,-0.507276 l 0.883603,-0.143311 0.13919,-2.47864 c 0.200243,-3.551321 1.166154,-5.690783 3.072502,-6.807973 0.844977,-0.495187 1.171849,-0.562102 2.212623,-0.454692 l 1.220754,0.125793 -0.13919,-1.330052 c -0.256495,-2.45401 0.737114,-4.432731 2.70236,-5.384105 0.533873,-0.258443 1.007882,-0.408492 1.488827,-0.444374 z m 10.17124,11.69821 c -0.215951,-0.0098 -0.540049,0.211662 -0.676358,0.570167 -0.117924,0.31021 -0.293596,0.56518 -0.389734,0.567088 -0.0961,0.002 -0.311518,0.09049 -0.479439,0.196918 -0.241377,0.152941 -0.250112,0.297453 -0.04121,0.687699 0.351364,0.656528 0.695971,0.505092 1.286745,-0.565003 0.269203,-0.487564 0.498305,-1.014099 0.508308,-1.169214 0.01249,-0.192993 -0.07869,-0.281724 -0.208279,-0.287655 z"
     id="path1427"
     inkscape:connector-curvature="0" />
  <path
     style="opacity:1;fill:url(#linearGradient5016);fill-opacity:1;stroke:none;stroke-width:0.56859595;stroke-linecap:round;stroke-miterlimit:4;stroke-dasharray:none;stroke-dashoffset:0;stroke-opacity:1"
     d="M 64.000987,20.321074 A 42.695384,42.695384 0 0 0 21.303757,63.016395 42.695384,42.695384 0 0 0 64.000987,105.71171 42.695384,42.695384 0 0 0 106.6963,63.016395 42.695384,42.695384 0 0 0 64.000987,20.321074 Z m 0,2.246823 A 40.448257,40.448257 0 0 1 104.44758,63.016395 40.448257,40.448257 0 0 1 64.000987,103.4649 40.448257,40.448257 0 0 1 23.552488,63.016395 40.448257,40.448257 0 0 1 64.000987,22.567897 Z"
     id="path5005"
     inkscape:connector-curvature="0" />
</svg>
