<?xml version="1.0" encoding="UTF-8" standalone="no"?>
<!-- Created with Inkscape (http://www.inkscape.org/) -->

<svg
   xmlns:dc="http://purl.org/dc/elements/1.1/"
   xmlns:cc="http://creativecommons.org/ns#"
   xmlns:rdf="http://www.w3.org/1999/02/22-rdf-syntax-ns#"
   xmlns:svg="http://www.w3.org/2000/svg"
   xmlns="http://www.w3.org/2000/svg"
   xmlns:xlink="http://www.w3.org/1999/xlink"
   xmlns:sodipodi="http://sodipodi.sourceforge.net/DTD/sodipodi-0.dtd"
   xmlns:inkscape="http://www.inkscape.org/namespaces/inkscape"
   width="128"
   height="128"
   viewBox="0 0 33.866666 33.866668"
   version="1.1"
   id="svg8"
   inkscape:version="0.92.2 5c3e80d, 2017-08-06"
   sodipodi:docname="defold.svg">
  <defs
     id="defs2">
    <linearGradient
       id="linearGradient1407"
       gradientUnits="userSpaceOnUse"
       x1="254"
       y1="233.5"
       x2="254"
       y2="-168.66701"
       gradientTransform="matrix(0.04410075,0,0,0.04410075,-109.47521,128.07107)">
      <stop
         offset="0"
         stop-color="#ff7043"
         id="stop1403"
         style="stop-color:#f9bc30;stop-opacity:1" />
      <stop
         offset="1"
         stop-color="#ff8a65"
         id="stop1405"
         style="stop-color:#ed3740;stop-opacity:1" />
    </linearGradient>
    <linearGradient
       inkscape:collect="always"
       id="linearGradient1382">
      <stop
         style="stop-color:#10a1e6;stop-opacity:1"
         offset="0"
         id="stop1378" />
      <stop
         style="stop-color:#02e0e0;stop-opacity:1"
         offset="1"
         id="stop1380" />
    </linearGradient>
    <linearGradient
       inkscape:collect="always"
       xlink:href="#linearGradient1382"
       id="linearGradient1384"
       x1="-80.923782"
       y1="121.0053"
       x2="-80.90818"
       y2="137.44727"
       gradientUnits="userSpaceOnUse"
       gradientTransform="matrix(1.7900466,0,0,1.7900466,160.42353,47.97355)" />
    <linearGradient
       inkscape:collect="always"
       xlink:href="#linearGradient1407"
       id="linearGradient1401"
       gradientUnits="userSpaceOnUse"
       gradientTransform="matrix(0.0789424,0,0,0.0789424,-3.117699,277.24359)"
       x1="226.14508"
       y1="227.07195"
       x2="226.14508"
       y2="-119.38524" />
  </defs>
  <sodipodi:namedview
     id="base"
     pagecolor="#ffffff"
     bordercolor="#666666"
     borderopacity="1.0"
     inkscape:pageopacity="0.0"
     inkscape:pageshadow="2"
     inkscape:zoom="2.8"
     inkscape:cx="13.280544"
     inkscape:cy="35.935052"
     inkscape:document-units="mm"
     inkscape:current-layer="layer1"
     showgrid="false"
     units="px"
     inkscape:window-width="1600"
     inkscape:window-height="803"
     inkscape:window-x="0"
     inkscape:window-y="0"
     inkscape:window-maximized="1" />
  <metadata
     id="metadata5">
    <rdf:RDF>
      <cc:Work
         rdf:about="">
        <dc:format>image/svg+xml</dc:format>
        <dc:type
           rdf:resource="http://purl.org/dc/dcmitype/StillImage" />
        <dc:title />
      </cc:Work>
    </rdf:RDF>
  </metadata>
  <g
     inkscape:label="Layer 1"
     inkscape:groupmode="layer"
     id="layer1"
     transform="translate(0,-263.13332)">
    <rect
       ry="3.5111163"
       y="265.25586"
       x="1.8579528"
       height="30.150763"
       width="30.150763"
       id="rect1415"
       style="opacity:0.25;fill:#000000;fill-opacity:1;stroke:none;stroke-width:0.2;stroke-linecap:butt;stroke-linejoin:round;stroke-miterlimit:4;stroke-dasharray:none;stroke-dashoffset:0;stroke-opacity:1" />
    <rect
       style="opacity:1;fill:url(#linearGradient1384);fill-opacity:1;stroke:#142349;stroke-width:0.2;stroke-linecap:butt;stroke-linejoin:round;stroke-miterlimit:4;stroke-dasharray:none;stroke-dashoffset:0;stroke-opacity:1"
       id="rect1356"
       width="30.150763"
       height="30.150763"
       x="1.8579528"
       y="264.72668"
       ry="3.5111163" />
    <path
       style="opacity:0.25;fill:#000000;stroke:none;stroke-width:0.2;stroke-miterlimit:4;stroke-dasharray:none;stroke-opacity:1"
       inkscape:connector-curvature="0"
       d="m 12.756041,264.45782 a 1.6664986,1.6664986 0 0 0 -1.670293,1.66966 v 8.35523 H 2.7311532 a 1.6690246,1.6690246 0 0 0 -1.6728164,1.67217 v 8.3546 a 1.6683931,1.6683931 0 0 0 1.6728164,1.67029 h 8.3545948 v 8.35459 a 1.6664986,1.6664986 0 0 0 1.670293,1.6703 h 8.354586 a 1.6671301,1.6671301 0 0 0 1.672814,-1.66965 v -8.35461 h 8.354595 a 1.6664986,1.6664986 0 0 0 1.670288,-1.67028 v -8.35459 a 1.6671301,1.6671301 0 0 0 -1.670288,-1.67282 h -8.354595 v -8.3546 a 1.6671301,1.6671301 0 0 0 -1.672814,-1.67029 z m 0,0"
       id="path1417" />
    <path
       id="path1399"
       d="m 12.756041,263.92865 a 1.6664986,1.6664986 0 0 0 -1.670293,1.66967 v 8.35522 H 2.7311532 a 1.6690246,1.6690246 0 0 0 -1.6728164,1.67217 v 8.3546 a 1.6683931,1.6683931 0 0 0 1.6728164,1.67029 h 8.3545948 v 8.35459 a 1.6664986,1.6664986 0 0 0 1.670293,1.6703 h 8.354586 a 1.6671301,1.6671301 0 0 0 1.672814,-1.66965 v -8.35461 h 8.354595 a 1.6664986,1.6664986 0 0 0 1.670288,-1.67028 v -8.35459 a 1.6671301,1.6671301 0 0 0 -1.670288,-1.67282 h -8.354595 v -8.3546 a 1.6671301,1.6671301 0 0 0 -1.672814,-1.67029 z m 0,0"
       inkscape:connector-curvature="0"
       style="fill:url(#linearGradient1401);stroke:#993717;stroke-width:0.2;stroke-miterlimit:4;stroke-dasharray:none;stroke-opacity:1" />
  </g>
</svg>
