<?xml version="1.0" encoding="UTF-8" standalone="no"?>
<!-- Created with Inkscape (http://www.inkscape.org/) -->

<svg
   xmlns:dc="http://purl.org/dc/elements/1.1/"
   xmlns:cc="http://creativecommons.org/ns#"
   xmlns:rdf="http://www.w3.org/1999/02/22-rdf-syntax-ns#"
   xmlns:svg="http://www.w3.org/2000/svg"
   xmlns="http://www.w3.org/2000/svg"
   xmlns:xlink="http://www.w3.org/1999/xlink"
   xmlns:sodipodi="http://sodipodi.sourceforge.net/DTD/sodipodi-0.dtd"
   xmlns:inkscape="http://www.inkscape.org/namespaces/inkscape"
   version="1.1"
   id="svg2"
   width="128"
   height="128"
   viewBox="0 0 128 128"
   sodipodi:docname="discord.svg"
   inkscape:version="0.92.4 (5da689c313, 2019-01-14)">
  <metadata
     id="metadata8">
    <rdf:RDF>
      <cc:Work
         rdf:about="">
        <dc:format>image/svg+xml</dc:format>
        <dc:type
           rdf:resource="http://purl.org/dc/dcmitype/StillImage" />
        <dc:title />
      </cc:Work>
    </rdf:RDF>
  </metadata>
  <defs
     id="defs6">
    <linearGradient
       inkscape:collect="always"
       id="linearGradient881">
      <stop
         style="stop-color:#e3e9f1;stop-opacity:1"
         offset="0"
         id="stop877" />
      <stop
         style="stop-color:#a0b4c9;stop-opacity:1"
         offset="1"
         id="stop879" />
    </linearGradient>
    <linearGradient
       inkscape:collect="always"
       id="linearGradient849">
      <stop
         style="stop-color:#fefefe;stop-opacity:1"
         offset="0"
         id="stop845" />
      <stop
         style="stop-color:#eff2f6;stop-opacity:1"
         offset="1"
         id="stop847" />
    </linearGradient>
    <linearGradient
       inkscape:collect="always"
       id="linearGradient943">
      <stop
         style="stop-color:#829aec;stop-opacity:1"
         offset="0"
         id="stop939" />
      <stop
         style="stop-color:#4467df;stop-opacity:1"
         offset="1"
         id="stop941" />
    </linearGradient>
    <linearGradient
       inkscape:collect="always"
       xlink:href="#linearGradient943"
       id="linearGradient945"
       x1="69.324593"
       y1="24.412661"
       x2="67.338387"
       y2="125.93518"
       gradientUnits="userSpaceOnUse"
       gradientTransform="matrix(0.84139002,0,0,0.84139002,6.690952,5.7428838)" />
    <linearGradient
       inkscape:collect="always"
       xlink:href="#linearGradient849"
       id="linearGradient851"
       x1="64.628204"
       y1="38.716213"
       x2="62.864689"
       y2="87.31282"
       gradientUnits="userSpaceOnUse"
       gradientTransform="matrix(0.89963235,0,0,0.89963235,5.8709336,6.2691725)" />
    <linearGradient
       inkscape:collect="always"
       xlink:href="#linearGradient881"
       id="linearGradient883"
       x1="116.09328"
       y1="-67.844009"
       x2="120.93892"
       y2="58.97179"
       gradientUnits="userSpaceOnUse"
       gradientTransform="matrix(0.92874257,0,0,0.92874257,-45.311085,68.499938)" />
  </defs>
  <sodipodi:namedview
     pagecolor="#ffffff"
     bordercolor="#666666"
     borderopacity="1"
     objecttolerance="10"
     gridtolerance="10"
     guidetolerance="10"
     inkscape:pageopacity="0"
     inkscape:pageshadow="2"
     inkscape:window-width="1600"
     inkscape:window-height="838"
     id="namedview4"
     showgrid="false"
     inkscape:zoom="1.2222452"
     inkscape:cx="-12.548321"
     inkscape:cy="9.4661897"
     inkscape:window-x="-8"
     inkscape:window-y="-8"
     inkscape:window-maximized="1"
     inkscape:current-layer="svg2" />
  <circle
     style="fill:url(#linearGradient883);fill-opacity:1;stroke:#808080;stroke-width:0.70204163;stroke-miterlimit:4;stroke-dasharray:none;stroke-opacity:1"
     r="60"
     cy="64"
     cx="64"
     id="circle873" />
  <circle
     id="path12"
     cx="64"
     cy="64"
     r="53.867069"
     style="fill:url(#linearGradient945);fill-opacity:1;stroke:#0c2d69;stroke-width:0.70204163;stroke-miterlimit:4;stroke-dasharray:none;stroke-opacity:1" />
  <path
     id="path861"
     d="m 76.767101,86.120108 c 4.242348,-1.331861 7.903191,-3.397138 10.748032,-7.075077 -15.572023,8.999022 -30.976305,8.72351 -46.51898,0.06235 1.268106,1.809349 2.795121,3.183969 4.577546,4.215749 1.77702,1.028829 3.663197,1.869373 5.565188,2.82481 -0.820154,1.024168 -1.793477,2.094982 -2.595149,3.281471 -0.763101,1.130506 -1.628363,1.526523 -3.02304,1.364356 -5.255166,-0.610733 -9.979501,-2.359609 -13.89689,-6.017641 -0.113539,-0.106354 -0.220305,-0.21987 -0.335521,-0.323724 -1.599295,-1.440383 -2.266948,-3.04808 -2.129344,-5.37363 0.650696,-11.008326 3.397294,-21.423949 8.205913,-31.316998 0.235714,-0.484948 0.638258,-0.951706 1.078737,-1.264229 3.841202,-2.726546 8.053848,-4.609903 12.7132,-5.424013 0.889494,-0.155488 1.791934,-0.271933 2.692647,-0.311897 0.366139,-0.01618 0.743663,0.2194 1.107805,0.482929 -5.537201,1.851018 -10.799198,4.08111 -15.426988,7.807405 15.902281,-7.575114 31.711773,-7.949982 47.565716,-0.192009 -4.237992,-3.424822 -9.137249,-5.547158 -14.262737,-7.224348 0.382651,-0.787209 0.916724,-0.938648 1.735188,-0.862464 5.546674,0.515424 10.49989,2.55427 15.021167,5.725801 0.424323,0.297596 0.820488,0.73497 1.048903,1.196751 3.508148,7.102297 5.872736,14.575253 7.213153,22.380947 0.622555,3.628031 0.943129,7.281255 1.006748,10.955614 0.0084,0.516515 -0.210583,1.132071 -0.528659,1.544875 -2.954163,3.832956 -6.89192,6.200339 -11.528407,7.384489 -1.790997,0.457283 -3.65867,0.620072 -5.49771,0.87304 -0.284846,0.03914 -0.715829,-0.06252 -0.886559,-0.263242 -1.224882,-1.43558 -2.399416,-2.91328 -3.649959,-4.451318 z M 52.204433,76.304183 c 2.032776,-0.005 3.23808,-0.435507 4.295815,-1.314142 1.728984,-1.437281 2.37408,-3.330747 2.507169,-5.528802 0.148608,-2.458027 -0.805712,-4.286343 -2.847841,-5.533628 -2.106945,-1.286615 -4.308557,-1.392968 -6.441006,-0.05472 -3.422789,2.147992 -4.065716,7.257305 -1.342275,10.33633 1.191754,1.347103 2.672114,2.080666 3.828138,2.094968 z m 22.436424,0.09484 c 0.698776,-0.160314 1.430291,-0.236509 2.091129,-0.494747 4.078303,-1.591209 5.37688,-7.067152 2.556902,-10.67653 -2.197451,-2.812363 -6.291934,-3.065804 -8.795647,-0.518531 -1.65605,1.68465 -2.17258,3.745729 -1.890372,6.052158 0.37393,3.056948 3.049638,5.52943 6.037988,5.63765 z"
     inkscape:connector-curvature="0"
     style="opacity:0.25;fill:#000000;fill-opacity:1;stroke-width:0.15548261" />
  <path
     style="fill:url(#linearGradient851);fill-opacity:1;stroke-width:0.15548261"
     inkscape:connector-curvature="0"
     d="m 76.767101,84.320844 c 4.242348,-1.331862 7.903191,-3.397138 10.748032,-7.075078 -15.572023,8.999022 -30.976305,8.72351 -46.51898,0.06234 1.268106,1.80935 2.795121,3.18397 4.577546,4.215749 1.77702,1.028829 3.663197,1.869373 5.565188,2.82481 -0.820154,1.024168 -1.793477,2.094983 -2.595149,3.281472 -0.763101,1.130505 -1.628363,1.526523 -3.02304,1.364356 -5.255166,-0.610734 -9.979501,-2.35961 -13.89689,-6.017641 -0.113539,-0.106355 -0.220305,-0.219871 -0.335521,-0.323725 -1.599295,-1.440383 -2.266948,-3.04808 -2.129344,-5.373629 0.650696,-11.008327 3.397294,-21.42395 8.205913,-31.316999 0.235714,-0.484948 0.638258,-0.951706 1.078737,-1.264228 3.841202,-2.726547 8.053848,-4.609904 12.7132,-5.424014 0.889494,-0.155487 1.791934,-0.271932 2.692647,-0.311897 0.366139,-0.01618 0.743663,0.2194 1.107805,0.48293 -5.537201,1.851017 -10.799198,4.081109 -15.426988,7.807404 15.902281,-7.575114 31.711773,-7.949982 47.565716,-0.192009 -4.237992,-3.424821 -9.137249,-5.547158 -14.262737,-7.224348 0.382651,-0.787209 0.916724,-0.938648 1.735188,-0.862464 5.546674,0.515424 10.49989,2.554271 15.021167,5.725802 0.424323,0.297595 0.820488,0.734969 1.048903,1.19675 3.508148,7.102297 5.872736,14.575254 7.213153,22.380948 0.622555,3.628031 0.943129,7.281254 1.006748,10.955614 0.0084,0.516514 -0.210583,1.13207 -0.528659,1.544875 -2.954163,3.832955 -6.89192,6.200339 -11.528407,7.384488 -1.790997,0.457284 -3.65867,0.620072 -5.49771,0.87304 -0.284846,0.03914 -0.715829,-0.06252 -0.886559,-0.263242 -1.224882,-1.435579 -2.399416,-2.913279 -3.649959,-4.451317 z M 52.204433,74.504918 c 2.032776,-0.005 3.23808,-0.435507 4.295815,-1.314142 1.728984,-1.437281 2.37408,-3.330747 2.507169,-5.528802 0.148608,-2.458027 -0.805712,-4.286342 -2.847841,-5.533628 -2.106945,-1.286615 -4.308557,-1.392968 -6.441006,-0.05472 -3.422789,2.147992 -4.065716,7.257306 -1.342275,10.336331 1.191754,1.347103 2.672114,2.080666 3.828138,2.094967 z m 22.436424,0.09484 c 0.698776,-0.160313 1.430291,-0.236509 2.091129,-0.494746 4.078303,-1.59121 5.37688,-7.067152 2.556902,-10.676531 -2.197451,-2.812362 -6.291934,-3.065804 -8.795647,-0.518531 -1.65605,1.68465 -2.17258,3.745729 -1.890372,6.052159 0.37393,3.056948 3.049638,5.52943 6.037988,5.637649 z"
     id="path34-3" />
</svg>
