<?xml version="1.0" encoding="UTF-8" standalone="no"?>
<!-- Created with Inkscape (http://www.inkscape.org/) -->

<svg
   xmlns:dc="http://purl.org/dc/elements/1.1/"
   xmlns:cc="http://creativecommons.org/ns#"
   xmlns:rdf="http://www.w3.org/1999/02/22-rdf-syntax-ns#"
   xmlns:svg="http://www.w3.org/2000/svg"
   xmlns="http://www.w3.org/2000/svg"
   xmlns:sodipodi="http://sodipodi.sourceforge.net/DTD/sodipodi-0.dtd"
   xmlns:inkscape="http://www.inkscape.org/namespaces/inkscape"
   width="128"
   height="128"
   viewBox="0 0 33.866666 33.866668"
   version="1.1"
   id="svg8"
   inkscape:version="0.92.2 5c3e80d, 2017-08-06"
   sodipodi:docname="dd.svg">
  <defs
     id="defs2">
    <linearGradient
       id="path2312_1_"
       gradientUnits="userSpaceOnUse"
       x1="161.84163"
       y1="93.962212"
       x2="168.80435"
       y2="86.44812"
       gradientTransform="matrix(3.3732547,-0.53427107,-0.53425577,-3.3731583,-491.51242,673.19531)">
      <stop
         offset="0"
         style="stop-color:#d40000;stop-opacity:1"
         id="stop999" />
      <stop
         offset="1"
         style="stop-color:#aa0000;stop-opacity:1"
         id="stop1001" />
    </linearGradient>
  </defs>
  <sodipodi:namedview
     id="base"
     pagecolor="#ffffff"
     bordercolor="#666666"
     borderopacity="1.0"
     inkscape:pageopacity="0.0"
     inkscape:pageshadow="2"
     inkscape:zoom="1.4"
     inkscape:cx="7.3039517"
     inkscape:cy="82.899134"
     inkscape:document-units="mm"
     inkscape:current-layer="layer1"
     showgrid="false"
     units="px"
     inkscape:window-width="1600"
     inkscape:window-height="803"
     inkscape:window-x="0"
     inkscape:window-y="0"
     inkscape:window-maximized="1" />
  <metadata
     id="metadata5">
    <rdf:RDF>
      <cc:Work
         rdf:about="">
        <dc:format>image/svg+xml</dc:format>
        <dc:type
           rdf:resource="http://purl.org/dc/dcmitype/StillImage" />
        <dc:title></dc:title>
      </cc:Work>
    </rdf:RDF>
  </metadata>
  <g
     inkscape:label="Layer 1"
     inkscape:groupmode="layer"
     id="layer1"
     transform="translate(0,-263.13332)">
    <g
       style="opacity:0.25;fill:#000000;stroke:none;stroke-width:0.12795785;stroke-miterlimit:4;stroke-dasharray:none;stroke-opacity:1"
       transform="matrix(1.5513497,-0.24570965,0.24570262,1.5513053,-184.1559,131.14022)"
       id="g1104">
      <g
         style="fill:#000000;stroke:none;stroke-width:0.12795785;stroke-miterlimit:4;stroke-dasharray:none;stroke-opacity:1"
         id="g1102">
        <linearGradient
           gradientTransform="matrix(2.1744,0,0,-2.1744,-247.3132,310.5898)"
           y2="80.012398"
           x2="165.05479"
           y1="93.513"
           x1="165.05479"
           gradientUnits="userSpaceOnUse"
           id="linearGradient1096">
          <stop
             id="stop1092"
             style="stop-color:#BE0000"
             offset="0" />
          <stop
             id="stop1094"
             style="stop-color:#8E0000"
             offset="1" />
        </linearGradient>
        <path
           d="m 102.85,105.732 v 0.771 c 0.323,0 0.585,0.262 0.585,0.585 0,0.323 -0.263,0.585 -0.585,0.585 v 0.771 c 0.323,0 0.585,0.263 0.585,0.585 0,0.323 -0.263,0.585 -0.585,0.585 v 0.771 c 0.323,0 0.585,0.263 0.585,0.585 0,0.322 -0.263,0.585 -0.585,0.585 v 0.771 c 0.323,0 0.585,0.262 0.585,0.585 0,0.323 -0.263,0.585 -0.585,0.585 v 0.771 c 0.323,0 0.585,0.262 0.585,0.585 0,0.323 -0.263,0.585 -0.585,0.585 v 0.771 c 0.323,0 0.585,0.262 0.585,0.585 0,0.323 -0.263,0.585 -0.585,0.585 v 0.771 c 0.323,0 0.585,0.262 0.585,0.585 0,0.323 -0.263,0.585 -0.585,0.585 v 0.771 c 0.323,0 0.585,0.262 0.585,0.585 0,0.323 -0.263,0.585 -0.585,0.585 v 0.772 c 0.154,0 0.305,0.062 0.414,0.171 0.109,0.109 0.171,0.26 0.171,0.414 h 0.771 c 0,-0.323 0.262,-0.585 0.585,-0.585 0.323,0 0.585,0.262 0.585,0.585 h 0.771 c 0,-0.323 0.263,-0.585 0.585,-0.585 0.323,0 0.585,0.262 0.585,0.585 h 0.771 c 0,-0.323 0.262,-0.585 0.585,-0.585 0.323,0 0.585,0.262 0.585,0.585 h 0.771 c 0,-0.323 0.263,-0.585 0.585,-0.585 0.323,0 0.585,0.262 0.585,0.585 h 0.771 c 0,-0.323 0.262,-0.585 0.585,-0.585 0.323,0 0.585,0.262 0.585,0.585 h 0.771 c 0,-0.323 0.263,-0.585 0.585,-0.585 0.323,0 0.585,0.262 0.585,0.585 h 0.771 c 0,-0.323 0.262,-0.585 0.585,-0.585 0.323,0 0.585,0.262 0.585,0.585 h 0.771 c 0,-0.323 0.263,-0.585 0.585,-0.585 0.323,0 0.585,0.262 0.585,0.585 h 0.772 c 0,-0.154 0.063,-0.305 0.172,-0.414 0.109,-0.109 0.26,-0.171 0.414,-0.171 v -0.771 c -0.323,0 -0.585,-0.262 -0.585,-0.585 0,-0.323 0.262,-0.585 0.585,-0.585 v -0.771 c -0.323,0 -0.585,-0.263 -0.585,-0.585 0,-0.323 0.262,-0.585 0.585,-0.585 v -0.771 c -0.323,0 -0.585,-0.262 -0.585,-0.585 0,-0.323 0.262,-0.585 0.585,-0.585 v -0.771 c -0.323,0 -0.585,-0.263 -0.585,-0.585 0,-0.322 0.262,-0.585 0.585,-0.585 V 113.5 c -0.323,0 -0.585,-0.262 -0.585,-0.585 0,-0.323 0.262,-0.585 0.585,-0.585 v -0.771 c -0.323,0 -0.585,-0.263 -0.585,-0.585 0,-0.322 0.262,-0.585 0.585,-0.585 v -0.772 c -0.323,0 -0.585,-0.262 -0.585,-0.585 0,-0.323 0.262,-0.585 0.585,-0.585 v -0.771 c -0.323,0 -0.585,-0.263 -0.585,-0.585 0,-0.323 0.262,-0.585 0.585,-0.585 v -0.772 c -0.154,0 -0.305,-0.063 -0.414,-0.171 -0.109,-0.109 -0.172,-0.26 -0.172,-0.414 h -0.771 c 0,0.323 -0.262,0.585 -0.585,0.585 -0.323,0 -0.585,-0.263 -0.585,-0.585 h -0.772 c 0,0.323 -0.262,0.585 -0.585,0.585 -0.323,0 -0.585,-0.263 -0.585,-0.585 h -0.771 c 0,0.323 -0.262,0.585 -0.585,0.585 -0.323,0 -0.585,-0.263 -0.585,-0.585 h -0.772 c 0,0.323 -0.262,0.585 -0.585,0.585 -0.323,0 -0.585,-0.263 -0.585,-0.585 h -0.771 c 0,0.323 -0.262,0.585 -0.585,0.585 -0.323,0 -0.585,-0.263 -0.585,-0.585 h -0.771 c 0,0.323 -0.263,0.585 -0.585,0.585 -0.323,0 -0.585,-0.263 -0.585,-0.585 h -0.771 c 0,0.323 -0.262,0.585 -0.585,0.585 -0.323,0 -0.585,-0.263 -0.585,-0.585 h -0.771 c 0,0.323 -0.263,0.585 -0.585,0.585 -0.323,0 -0.585,-0.263 -0.585,-0.585 h -0.772 c 0,0.154 -0.063,0.305 -0.171,0.414 -0.107,0.107 -0.258,0.169 -0.412,0.169 z"
           id="path1098"
           inkscape:connector-curvature="0"
           style="fill:#000000;stroke:none;stroke-width:0.12795785;stroke-miterlimit:4;stroke-dasharray:none;stroke-opacity:1" />
        <path
           d="m 117.737,112.14 h -8.72 l 0.455,-2.129 h 5.315 l 0.488,-2.292 h -7.639 l -2.406,11.345 h 2.308 l 1.056,-4.958 h 5.536 l -4.81,4.763 0.845,1.495 c 0.39,-0.26 1.024,-0.293 1.463,-0.293 0.78,0 1.544,0.26 2.34,0.26 0.73,0 1.477,-0.049 2.697,-0.634 l 0.426,-1.999 c -0.829,0.341 -2.056,0.666 -3.123,0.666 -0.439,0 -0.845,-0.098 -1.268,-0.162 l 4.663,-4.535 z"
           id="path1100"
           inkscape:connector-curvature="0"
           style="fill:#000000;stroke:none;stroke-width:0.12795785;stroke-miterlimit:4;stroke-dasharray:none;stroke-opacity:1" />
      </g>
    </g>
    <path
       style="fill:url(#path2312_1_);stroke:#660000;stroke-width:0.20097892;stroke-miterlimit:4;stroke-dasharray:none;stroke-opacity:1"
       inkscape:connector-curvature="0"
       id="path2312_12_"
       d="m 1.3790423,269.35984 0.1894367,1.19605 c 0.501086,-0.0794 0.9719137,0.26271 1.0512756,0.76378 0.079362,0.50108 -0.264269,0.97214 -0.7638035,1.05126 l 0.1894367,1.19605 c 0.5010859,-0.0794 0.9721594,0.26426 1.0512755,0.76377 0.079362,0.50108 -0.2642688,0.97214 -0.7638035,1.05126 l 0.1894367,1.19606 c 0.501086,-0.0794 0.9721594,0.26424 1.0512757,0.76377 0.079116,0.49952 -0.2642689,0.97213 -0.7638036,1.05126 l 0.1894367,1.19605 c 0.501086,-0.0794 0.9719137,0.2627 1.0512757,0.76377 0.079361,0.50107 -0.2642689,0.97214 -0.7638035,1.05125 l 0.1894367,1.19606 c 0.5010859,-0.0794 0.9719136,0.26271 1.0512756,0.76378 0.079362,0.50107 -0.264269,0.97214 -0.7638035,1.05125 l 0.1894367,1.19606 c 0.5010858,-0.0794 0.9719135,0.2627 1.0512755,0.76377 0.079362,0.50108 -0.2642689,0.97213 -0.7638035,1.05126 l 0.1894367,1.19605 c 0.5010859,-0.0794 0.9719136,0.2627 1.0512756,0.76377 0.079362,0.50107 -0.2642689,0.97214 -0.7638035,1.05126 l 0.1894367,1.19606 c 0.5010859,-0.0794 0.9719136,0.2627 1.0512756,0.76377 0.079362,0.50107 -0.264269,0.97213 -0.7638035,1.05125 l 0.1896824,1.19761 c 0.2389078,-0.0379 0.4883951,0.0212 0.6842739,0.16355 0.1958787,0.14231 0.3291635,0.36132 0.3670017,0.60022 l 1.1960905,-0.18944 c -0.079362,-0.50107 0.2627176,-0.97188 0.7638036,-1.05125 0.5010859,-0.0794 0.9719136,0.2627 1.0512756,0.76377 l 1.1960907,-0.18944 c -0.07936,-0.50107 0.264269,-0.97214 0.763803,-1.05125 0.501086,-0.0794 0.971914,0.2627 1.051276,0.76377 l 1.196091,-0.18945 c -0.07936,-0.50107 0.262717,-0.97188 0.763803,-1.05125 0.501086,-0.0794 0.971914,0.2627 1.051276,0.76377 l 1.19609,-0.18944 c -0.07936,-0.50107 0.264269,-0.97213 0.763803,-1.05125 0.501087,-0.0794 0.971914,0.2627 1.051276,0.76377 l 1.196091,-0.18944 c -0.07936,-0.50107 0.262717,-0.97189 0.763803,-1.05125 0.501087,-0.0794 0.971914,0.2627 1.051276,0.76377 l 1.19609,-0.18945 c -0.07936,-0.50107 0.26427,-0.97213 0.763804,-1.05125 0.501086,-0.0794 0.971914,0.2627 1.051275,0.76377 l 1.196091,-0.18944 c -0.07937,-0.50107 0.262718,-0.97188 0.763803,-1.05125 0.501086,-0.0794 0.971914,0.2627 1.051276,0.76377 l 1.196091,-0.18944 c -0.07936,-0.50107 0.264269,-0.97214 0.763803,-1.05125 0.501086,-0.0794 0.971914,0.2627 1.051276,0.76377 l 1.197642,-0.18969 c -0.03783,-0.2389 0.02279,-0.48863 0.165111,-0.6845 0.142315,-0.19587 0.361336,-0.32915 0.600244,-0.367 l -0.189437,-1.19605 c -0.501085,0.0794 -0.971914,-0.2627 -1.051275,-0.76377 -0.07937,-0.50107 0.262717,-0.9719 0.763803,-1.05125 l -0.189437,-1.19607 c -0.501085,0.0794 -0.972159,-0.26425 -1.051275,-0.76377 -0.07937,-0.50107 0.262717,-0.97188 0.763803,-1.05125 l -0.189437,-1.19605 c -0.501085,0.0794 -0.971914,-0.26271 -1.051275,-0.76379 -0.07937,-0.50107 0.262718,-0.97188 0.763803,-1.05125 l -0.189436,-1.19605 c -0.501086,0.0794 -0.97216,-0.26426 -1.051276,-0.76377 -0.07911,-0.49952 0.262718,-0.9719 0.763803,-1.05126 l -0.188699,-1.1914 c -0.501085,0.0794 -0.971914,-0.2627 -1.051275,-0.76377 -0.07937,-0.50108 0.262717,-0.9719 0.763803,-1.05126 l -0.189437,-1.19605 c -0.501085,0.0794 -0.972159,-0.26426 -1.051275,-0.76378 -0.07912,-0.49951 0.262717,-0.97189 0.763803,-1.05125 l -0.189682,-1.1976 c -0.501086,0.0794 -0.971914,-0.26271 -1.051276,-0.76379 -0.07936,-0.50107 0.262717,-0.97188 0.763804,-1.05125 l -0.189437,-1.19605 c -0.501086,0.0794 -0.97216,-0.26426 -1.051275,-0.76378 -0.07937,-0.50107 0.262717,-0.97189 0.763803,-1.05125 l -0.189683,-1.1976 c -0.238907,0.0378 -0.488641,-0.0228 -0.684274,-0.16356 -0.195878,-0.1423 -0.330715,-0.36107 -0.368553,-0.59997 l -1.19609,0.18944 c 0.07936,0.50107 -0.262717,0.97188 -0.763804,1.05125 -0.501086,0.0794 -0.972159,-0.26426 -1.051276,-0.76377 l -1.197641,0.18968 c 0.07937,0.50107 -0.262718,0.9719 -0.763803,1.05125 -0.501087,0.0794 -0.972159,-0.26424 -1.051276,-0.76377 l -1.196091,0.18945 c 0.07936,0.50107 -0.262717,0.97189 -0.763803,1.05125 -0.501087,0.0794 -0.972159,-0.26425 -1.051275,-0.76377 l -1.197643,0.18968 c 0.07936,0.50108 -0.262717,0.97189 -0.763803,1.05126 -0.501086,0.0794 -0.97216,-0.26426 -1.051276,-0.76378 l -1.19609,0.18944 c 0.07936,0.50108 -0.262718,0.9719 -0.763804,1.05126 -0.501086,0.0794 -0.972159,-0.26425 -1.051276,-0.76378 l -1.19609,0.18945 c 0.07936,0.50107 -0.264269,0.97213 -0.763804,1.05126 -0.5010856,0.0794 -0.9721589,-0.26426 -1.0512752,-0.76378 l -1.1960906,0.18944 c 0.079362,0.50107 -0.2627176,0.97189 -0.7638035,1.05126 -0.5010859,0.0794 -0.9721593,-0.26426 -1.0512756,-0.76378 l -1.1960906,0.18944 c 0.079362,0.50107 -0.2642688,0.97214 -0.7638035,1.05126 -0.5010859,0.0794 -0.9721593,-0.26425 -1.0512756,-0.76378 l -1.1976419,0.1897 c 0.037838,0.23889 -0.022796,0.48862 -0.1635599,0.68425 -0.1397042,0.19228 -0.3587244,0.32556 -0.5976323,0.3634 z" />
    <path
       style="fill:#ffffff;stroke:#550000;stroke-width:0.20097892;stroke-miterlimit:4;stroke-dasharray:none;stroke-opacity:1"
       inkscape:connector-curvature="0"
       id="path2314_12_"
       d="m 26.048447,275.64273 -13.527769,2.14259 0.182763,-3.41453 8.245423,-1.30594 0.193909,-3.67551 -11.8507602,1.87698 -0.945051,18.19074 3.5805152,-0.5671 0.420031,-7.95084 8.588272,-1.36026 -6.29171,8.57074 1.678216,2.11157 c 0.541143,-0.49916 1.51659,-0.70613 2.197634,-0.814 1.210052,-0.19165 2.459166,0.0239 3.69404,-0.17162 1.132485,-0.17937 2.279304,-0.43892 4.028215,-1.6462 l 0.169716,-3.20574 c -1.202286,0.73269 -3.025938,1.53835 -4.681228,1.80052 -0.681042,0.10787 -1.334969,0.0556 -2.006915,0.0603 l 6.119682,-8.18091 z" />
  </g>
</svg>
