<?xml version="1.0" encoding="UTF-8" standalone="no"?>
<svg
   xmlns:dc="http://purl.org/dc/elements/1.1/"
   xmlns:cc="http://creativecommons.org/ns#"
   xmlns:rdf="http://www.w3.org/1999/02/22-rdf-syntax-ns#"
   xmlns:svg="http://www.w3.org/2000/svg"
   xmlns="http://www.w3.org/2000/svg"
   xmlns:xlink="http://www.w3.org/1999/xlink"
   xmlns:sodipodi="http://sodipodi.sourceforge.net/DTD/sodipodi-0.dtd"
   xmlns:inkscape="http://www.inkscape.org/namespaces/inkscape"
   height="128"
   width="128"
   id="svg1008"
   version="1.1"
   viewBox="0 0 128 128"
   sodipodi:docname="firefox-trunk.svg"
   inkscape:version="0.92.3 (2405546, 2018-03-11)">
  <sodipodi:namedview
     pagecolor="#ffffff"
     bordercolor="#666666"
     borderopacity="1"
     objecttolerance="10"
     gridtolerance="10"
     guidetolerance="10"
     inkscape:pageopacity="0"
     inkscape:pageshadow="2"
     inkscape:window-width="1529"
     inkscape:window-height="837"
     id="namedview95"
     showgrid="false"
     inkscape:zoom="1.0179538"
     inkscape:cx="192.57249"
     inkscape:cy="68.514923"
     inkscape:window-x="71"
     inkscape:window-y="27"
     inkscape:window-maximized="1"
     inkscape:current-layer="svg1008" />
  <metadata
     id="metadata1012">
    <rdf:RDF>
      <cc:Work
         rdf:about="">
        <dc:format>image/svg+xml</dc:format>
        <dc:type
           rdf:resource="http://purl.org/dc/dcmitype/StillImage" />
        <dc:title></dc:title>
      </cc:Work>
    </rdf:RDF>
  </metadata>
  <defs
     id="defs978">
    <radialGradient
       id="radialGradient3306"
       cx="584.1"
       cy="600.57"
       fx="717.5140400954007"
       fy="478.32765335281425"
       r="751.57"
       gradientTransform="matrix(1,0,0,-1,0,986.01)"
       gradientUnits="userSpaceOnUse">
      <stop
         id="stop3304"
         stop-color="#00c8d7"
         offset="0.02" />
      <stop
         id="stop3302"
         stop-color="#009cda"
         offset="0.09" />
      <stop
         id="stop3300"
         stop-color="#007bdd"
         offset="0.15" />
      <stop
         id="stop3298"
         stop-color="#0067de"
         offset="0.2" />
      <stop
         id="stop3296"
         stop-color="#0060df"
         offset="0.24" />
      <stop
         id="stop3294"
         stop-color="#0a84ff"
         offset="0.46" />
      <stop
         id="stop3292"
         stop-color="#2ea0ff"
         offset="0.61" />
      <stop
         id="stop3290"
         stop-color="#4cb8ff"
         offset="0.76" />
      <stop
         id="stop3288"
         stop-color="#58c1ff"
         offset="0.84" />
    </radialGradient>
    <radialGradient
       id="radialGradient3277"
       cx="584.1"
       cy="600.57"
       fx="717.5140400954007"
       fy="478.32765335281425"
       r="751.57"
       gradientTransform="matrix(1,0,0,-1,0,986.01)"
       gradientUnits="userSpaceOnUse">
      <stop
         id="stop3275"
         stop-color="#00c8d7"
         offset="0.02" />
      <stop
         id="stop3273"
         stop-color="#009cda"
         offset="0.09" />
      <stop
         id="stop3271"
         stop-color="#007bdd"
         offset="0.15" />
      <stop
         id="stop3269"
         stop-color="#0067de"
         offset="0.2" />
      <stop
         id="stop3267"
         stop-color="#0060df"
         offset="0.24" />
      <stop
         id="stop3265"
         stop-color="#0a84ff"
         offset="0.46" />
      <stop
         id="stop3263"
         stop-color="#2ea0ff"
         offset="0.61" />
      <stop
         id="stop3261"
         stop-color="#4cb8ff"
         offset="0.76" />
      <stop
         id="stop3259"
         stop-color="#58c1ff"
         offset="0.84" />
    </radialGradient>
    <inkscape:path-effect
       only_selected="false"
       apply_with_weight="true"
       apply_no_weight="true"
       helper_size="0"
       steps="2"
       weight="33.333333"
       is_visible="true"
       id="path-effect902"
       effect="bspline" />
    <inkscape:path-effect
       effect="bspline"
       id="path-effect974"
       is_visible="true"
       weight="33.333333"
       steps="2"
       helper_size="0"
       apply_no_weight="true"
       apply_with_weight="true"
       only_selected="false" />
    <linearGradient
       inkscape:collect="always"
       xlink:href="#linearGradient918"
       id="linearGradient1011"
       x1="308.36322"
       y1="315.43649"
       x2="364.1145"
       y2="399.99008"
       gradientUnits="userSpaceOnUse"
       gradientTransform="matrix(0.91487379,0,0,0.91487379,-234.18738,-261.30833)" />
    <linearGradient
       inkscape:collect="always"
       xlink:href="#radialGradient3306"
       id="linearGradient1019"
       x1="184.16879"
       y1="277.9357"
       x2="227.72429"
       y2="350.57108"
       gradientUnits="userSpaceOnUse"
       gradientTransform="matrix(1.1616939,0,0,1.1616939,-149.72696,-317.77864)" />
    <linearGradient
       inkscape:collect="always"
       xlink:href="#radialGradient3277"
       id="linearGradient1027"
       x1="718.43396"
       y1="-19.670221"
       x2="767.34235"
       y2="64.153069"
       gradientUnits="userSpaceOnUse"
       gradientTransform="matrix(1.1616939,0,0,1.1616939,-790.44822,34.053177)" />
    <linearGradient
       id="linearGradient918"
       inkscape:collect="always">
      <stop
         id="stop914"
         offset="0"
         style="stop-color:#1a46b3;stop-opacity:1" />
      <stop
         id="stop916"
         offset="1"
         style="stop-color:#030f41;stop-opacity:1" />
    </linearGradient>
    <radialGradient
       gradientUnits="userSpaceOnUse"
       gradientTransform="matrix(1,0,0,-1,0,986.01)"
       r="751.57"
       fy="478.32765335281425"
       fx="717.5140400954007"
       cy="600.57"
       cx="584.1"
       id="radial-gradient">
      <stop
         id="stop1836"
         stop-color="#58c1ff"
         offset="0.16" />
      <stop
         id="stop1838"
         stop-color="#4cb8ff"
         offset="0.24" />
      <stop
         id="stop1840"
         stop-color="#2ea0ff"
         offset="0.39" />
      <stop
         id="stop1842"
         stop-color="#0a84ff"
         offset="0.54" />
      <stop
         id="stop1844"
         stop-color="#0060df"
         offset="0.76" />
      <stop
         id="stop1846"
         stop-color="#0067de"
         offset="0.8" />
      <stop
         id="stop1848"
         stop-color="#007bdd"
         offset="0.85" />
      <stop
         id="stop1850"
         stop-color="#009cda"
         offset="0.91" />
      <stop
         id="stop1852"
         stop-color="#00c8d7"
         offset="0.98" />
    </radialGradient>
  </defs>
  <path
     sodipodi:nodetypes="cccccccccccccccccccccccccccccccccccc"
     inkscape:original-d="m 65.729687,6.1600605 c -3.017976,1.8030197 -6.034942,3.6059048 -9.054695,5.4109235 -5.017124,5.122163 -10.034538,10.244613 -15.053044,15.368136 -1.041075,7.260925 -2.083463,14.524004 -3.126943,21.78775 0.287008,2.941344 0.572622,5.881537 0.857376,8.826057 1.813556,-3.540158 3.6243,-7.075928 5.434718,-10.612159 4.23858,-2.318479 8.475974,-4.635782 12.712231,-6.951937 -0.673399,0.945762 -1.34796,1.89269 -2.023683,2.840774 -2.554193,6.034168 -5.108955,12.068122 -7.666064,18.106024 0.859944,6.718047 1.718191,13.433074 2.575754,20.152954 3.233563,3.232935 6.464943,6.466003 9.695683,9.70075 5.67635,3.118356 11.351422,6.237812 17.025391,9.358467 6.879389,-0.0134 13.757604,-0.0256 20.634657,-0.0367 4.965432,-2.032475 9.929702,-4.063787 14.892812,-6.093938 1.95086,-1.110472 3.90143,-2.220284 5.85042,-3.328684 0.90904,-0.812321 1.8182,-1.624623 2.72556,-2.435198 -1.51311,3.366741 -3.02639,6.732419 -4.54282,10.103657 -3.71875,4.127553 -7.43302,8.250023 -11.15246,12.378093 -5.2627,3.43331 -10.522683,6.86527 -15.788235,10.30125 -8.212677,1.6867 -16.420149,3.37326 -24.633801,5.062 -10.128135,-2.68407 -20.25354,-5.36595 -30.38336,-8.04752 C 28.070301,110.50847 21.431383,102.96863 14.790745,95.429321 13.135564,89.366599 11.479232,83.305037 9.8217275,77.244635 9.2047984,74.794861 8.5865797,72.345802 7.9672691,69.898128 c -0.098512,-1.809448 -0.198185,-3.618936 -0.29902,-5.426662 1.3796276,2.986634 2.7580359,5.97432 4.1353859,8.963385 2.460236,3.440912 4.919124,6.882288 7.376943,10.324543 -1.382951,-4.454665 -2.767225,-8.909433 -4.152104,-13.361988 -0.278655,-4.786637 -0.558345,-9.573079 -0.838998,-14.358442 1.207929,-5.081711 2.414825,-10.16223 3.620686,-15.24156 2.556342,-4.702865 5.111523,-9.404568 7.665542,-14.105105 4.23377,-4.322108 8.46639,-8.643064 12.697825,-12.962849 6.170802,-2.556985 12.340442,-5.1128077 18.508932,-7.6674714 3.016896,0.03154 6.032642,0.06423 9.047226,0.098082 0,0 0.0012,-0.00116 0,-3.5e-6 z"
     inkscape:path-effect="#path-effect902"
     inkscape:connector-curvature="0"
     id="path900"
     d="m 64.220802,7.061743 c -1.508885,0.9016826 -4.525851,2.7045675 -8.544397,6.167981 -4.018547,3.463413 -9.035966,8.585858 -12.06624,14.778019 -3.030273,6.192161 -4.072659,13.455241 -4.45104,18.557917 -0.378382,5.102677 -0.09277,8.04287 0.956799,7.744875 1.049566,-0.297995 2.860311,-3.833764 5.885144,-6.760802 3.024833,-2.927038 7.262227,-5.244342 9.043434,-5.92982 1.781208,-0.685478 1.106645,0.261449 -0.508483,3.752535 -1.615129,3.491086 -4.169895,9.525038 -5.018838,15.903215 -0.848942,6.378178 0.0093,13.093204 2.054934,18.070109 2.045626,4.976904 5.277006,8.209973 9.73075,11.386637 4.453744,3.176665 10.128815,6.296122 16.405876,7.849639 6.277061,1.553512 13.155276,1.541282 19.076638,0.519224 5.921361,-1.022058 10.885631,-3.053371 14.342601,-4.623787 3.45698,-1.570417 5.40755,-2.680224 6.83648,-3.640742 1.42894,-0.960517 2.3381,-1.772821 2.03493,-0.494893 -0.30318,1.277928 -1.81646,4.643606 -4.43381,8.393096 -2.61735,3.749494 -6.33162,7.871954 -10.82257,11.652824 -4.49094,3.78086 -9.750931,7.21281 -16.490045,9.77445 -6.739115,2.56165 -14.946588,4.2482 -24.117754,3.75078 -9.171166,-0.49742 -19.296572,-3.17929 -27.681358,-8.29137 C 28.069067,110.50956 21.43015,102.96972 17.282171,96.168345 13.134191,89.366974 11.477853,83.305414 10.340639,79.050311 9.2034253,74.795208 8.5852156,72.346146 8.226392,70.217446 7.8675685,68.088745 7.7678622,66.279259 8.4071681,66.869003 c 0.6393059,0.589744 2.0177169,3.577429 3.9366519,6.792493 1.918935,3.215064 4.377819,6.656443 4.915224,6.150021 0.537405,-0.506422 -0.846869,-4.96119 -1.678565,-9.580939 C 14.748783,65.61083 14.4691,60.824387 14.932897,55.890736 15.396694,50.957084 16.60359,45.876565 18.484843,40.985441 20.366096,36.094317 22.921277,31.392614 26.315369,26.881396 29.70946,22.370177 33.942077,18.049219 39.143325,14.611133 44.344572,11.173047 50.514212,8.6172244 55.106778,7.3559547 59.699344,6.094685 62.71509,6.127379 65.729687,6.1600606 c 0,-1.2e-6 0,-3.5e-6 0,-3.5e-6 0,0 0,3.4e-6 -1.508885,0.9016859 z"
     style="opacity:0.25;fill:#000000;fill-opacity:1;stroke:none;stroke-width:0.37118214;stroke-linecap:butt;stroke-linejoin:miter;stroke-miterlimit:4;stroke-dasharray:none;stroke-opacity:1" />
  <circle
     style="opacity:1;fill:url(#linearGradient1011);fill-opacity:1;stroke:none;stroke-width:0.39419895;stroke-linecap:round;stroke-linejoin:miter;stroke-miterlimit:4;stroke-dasharray:none;stroke-dashoffset:0;stroke-opacity:1"
     id="path1003"
     cx="68.237984"
     cy="68.922882"
     r="46.734386" />
  <path
     style="fill:url(#linearGradient1027);fill-opacity:1;stroke:#05144c;stroke-width:0.37118214;stroke-linecap:butt;stroke-linejoin:miter;stroke-miterlimit:4;stroke-dasharray:none;stroke-opacity:1"
     d="m 64.220802,5.0975711 c -1.508885,0.9016826 -4.525851,2.7045676 -8.544397,6.1679809 -4.018547,3.463413 -9.035966,8.585858 -12.06624,14.778019 -3.030273,6.192161 -4.072659,13.455241 -4.45104,18.557917 -0.378382,5.102677 -0.09277,8.04287 0.956799,7.744875 1.049566,-0.297995 2.860311,-3.833764 5.885144,-6.760802 3.024833,-2.927038 7.262227,-5.244342 9.043434,-5.92982 1.781208,-0.685478 1.106645,0.261449 -0.508483,3.752535 -1.615129,3.491086 -4.169895,9.525038 -5.018838,15.903215 -0.848942,6.378178 0.0093,13.093204 2.054934,18.070109 2.045626,4.976904 5.277006,8.209973 9.73075,11.386637 4.453744,3.176664 10.128817,6.296119 16.405877,7.849633 6.27706,1.553514 13.155275,1.541278 19.076636,0.519218 5.921362,-1.02206 10.885632,-3.053371 14.342602,-4.623787 3.45698,-1.570416 5.40755,-2.680223 6.83648,-3.640741 1.42894,-0.960517 2.3381,-1.772821 2.03493,-0.494893 -0.30318,1.277928 -1.81646,4.643606 -4.43381,8.393097 -2.61735,3.749486 -6.33163,7.871956 -10.82257,11.652816 -4.49095,3.78086 -9.750932,7.21282 -16.490046,9.77446 -6.739114,2.56165 -14.946585,4.2482 -24.117752,3.75078 -9.171167,-0.49742 -19.296573,-3.17929 -27.68136,-8.29137 -8.384786,-5.11207 -15.0237,-12.65191 -19.17168,-19.453277 C 13.134191,87.402802 11.477853,81.341242 10.340639,77.086139 9.2034253,72.831036 8.5852156,70.381974 8.226392,68.253274 7.8675685,66.124573 7.7678622,64.315087 8.4071681,64.904831 c 0.6393059,0.589744 2.0177169,3.577429 3.9366519,6.792493 1.918935,3.215064 4.377819,6.656443 4.915224,6.150021 0.537405,-0.506422 -0.846869,-4.96119 -1.678565,-9.580939 C 14.748783,63.646658 14.4691,58.860215 14.932897,53.926564 15.396694,48.992912 16.60359,43.912393 18.484843,39.021269 20.366096,34.130145 22.921277,29.428442 26.315369,24.917224 29.70946,20.406005 33.942077,16.085047 39.143325,12.646961 44.344572,9.2088747 50.514212,6.6530524 55.106778,5.3917827 59.699344,4.130513 62.71509,4.163207 65.729687,4.1958886 c 0,-1.2e-6 0,-3.5e-6 0,-3.5e-6 0,0 0,3.4e-6 -1.508885,0.901686 z"
     id="path972"
     inkscape:connector-curvature="0"
     inkscape:path-effect="#path-effect974"
     inkscape:original-d="M 65.729687,4.1958885 C 62.711711,5.9989082 59.694745,7.8017933 56.674992,9.6068124 51.657868,14.728975 46.640454,19.851425 41.621948,24.974948 c -1.041075,7.260925 -2.083463,14.524004 -3.126943,21.78775 0.287008,2.941344 0.572622,5.881537 0.857376,8.826057 1.813556,-3.540158 3.6243,-7.075928 5.434718,-10.612159 4.23858,-2.318479 8.475974,-4.635782 12.712231,-6.951937 -0.673399,0.945762 -1.34796,1.89269 -2.023683,2.840774 -2.554193,6.034168 -5.108955,12.068122 -7.666064,18.106024 0.859944,6.718047 1.718191,13.433074 2.575754,20.152954 3.233563,3.232935 6.464943,6.466003 9.695683,9.70075 5.67635,3.118356 11.351422,6.237812 17.025391,9.358462 6.879389,-0.01339 13.757604,-0.02564 20.634657,-0.03671 4.965432,-2.032471 9.929702,-4.063783 14.892812,-6.093934 1.95086,-1.110472 3.90143,-2.220284 5.85042,-3.328684 0.90904,-0.812321 1.8182,-1.624623 2.72556,-2.435198 -1.51311,3.366741 -3.02639,6.732419 -4.54282,10.103657 -3.71875,4.127556 -7.43302,8.250026 -11.15246,12.378086 -5.2627,3.43332 -10.522683,6.86528 -15.788235,10.30126 -8.212677,1.6867 -16.420149,3.37325 -24.633801,5.062 -10.128135,-2.68407 -20.25354,-5.36595 -30.38336,-8.04752 C 28.070301,108.54429 21.431383,101.00446 14.790745,93.465149 13.135564,87.402427 11.479232,81.340865 9.8217275,75.280463 9.2047984,72.830689 8.5865797,70.38163 7.9672691,67.933956 c -0.098512,-1.809448 -0.198185,-3.618936 -0.29902,-5.426662 1.3796276,2.986634 2.7580359,5.97432 4.1353859,8.963385 2.460236,3.440912 4.919124,6.882288 7.376943,10.324543 -1.382951,-4.454665 -2.767225,-8.909433 -4.152104,-13.361988 -0.278655,-4.786637 -0.558345,-9.573079 -0.838998,-14.358442 1.207929,-5.081711 2.414825,-10.16223 3.620686,-15.24156 2.556342,-4.702865 5.111523,-9.404568 7.665542,-14.105105 4.23377,-4.322108 8.46639,-8.643064 12.697825,-12.962849 6.170802,-2.5569847 12.340442,-5.1128077 18.508932,-7.6674714 3.016896,0.03154 6.032642,0.06423 9.047226,0.098082 0,0 0.0012,-0.00116 0,-3.5e-6 z"
     sodipodi:nodetypes="cccccccccccccccccccccccccccccccccccc" />
  <path
     style="fill:url(#linearGradient1019);fill-opacity:1;stroke:#05154d;stroke-width:0.37118214;stroke-linecap:butt;stroke-linejoin:miter;stroke-miterlimit:4;stroke-dasharray:none;stroke-opacity:1"
     d="m 65.608999,4.2688899 c -4.08253,1.2892944 -8.028443,2.8655736 -11.51938,4.5696391 -7.102085,3.466797 -12.154162,6.757821 -15.868541,11.263739 -3.714375,4.505911 -7.273177,10.379815 -9.38279,16.760233 -2.109612,6.380405 -2.920163,13.890141 -2.250412,22.668538 0.669751,8.778388 4.017207,18.631282 9.307166,26.367269 5.289971,7.735987 12.519621,13.350507 21.060244,17.166742 8.540622,3.81625 18.391716,5.83301 26.932234,5.39554 8.54053,-0.43748 15.768578,-3.32843 22.81185,-7.93446 4.53094,-2.963057 8.97998,-6.648402 12.96015,-11.156355 0.14113,-0.374913 0.28353,-0.752034 0.34034,-0.991518 0.30318,-1.277933 -0.6063,-0.465897 -2.03522,0.494627 -1.42895,0.960511 -3.37933,2.068952 -6.8363,3.639366 -3.45698,1.570413 -8.42057,3.602028 -14.341928,4.624087 -5.921363,1.022058 -12.800136,1.033931 -19.077198,-0.519591 -6.277061,-1.55351 -11.952912,-4.671577 -16.40665,-7.84824 -4.453748,-3.176665 -7.685835,-6.410867 -9.731463,-11.387772 -2.045626,-4.976906 -2.902329,-11.691613 -2.053387,-18.069789 0.848943,-6.378175 3.403763,-12.411863 5.01889,-15.90295 1.615126,-3.491088 2.289443,-4.438298 0.508242,-3.752817 -1.781215,0.685481 -6.019143,3.003954 -9.043974,5.930993 -3.02483,2.927038 -4.83605,6.461156 -5.885617,6.759153 -1.049555,0.297998 -1.333601,-2.641192 -0.955214,-7.743874 0.378375,-5.102671 1.419101,-12.365442 4.44938,-18.557608 3.030267,-6.192153 8.047634,-11.314143 12.066189,-14.777558 4.018543,-3.4634167 7.035915,-5.2675505 8.544793,-6.1692341 1.388271,-0.8296005 1.379721,-0.822851 1.388596,-0.82816 z"
     id="path985"
     inkscape:connector-curvature="0"
     sodipodi:nodetypes="ccssscccscccssccssscsccsccc" />
</svg>
