<?xml version="1.0" encoding="UTF-8" standalone="no"?>
<svg
   xmlns:dc="http://purl.org/dc/elements/1.1/"
   xmlns:cc="http://creativecommons.org/ns#"
   xmlns:rdf="http://www.w3.org/1999/02/22-rdf-syntax-ns#"
   xmlns:svg="http://www.w3.org/2000/svg"
   xmlns="http://www.w3.org/2000/svg"
   xmlns:xlink="http://www.w3.org/1999/xlink"
   xmlns:sodipodi="http://sodipodi.sourceforge.net/DTD/sodipodi-0.dtd"
   xmlns:inkscape="http://www.inkscape.org/namespaces/inkscape"
   viewBox="0 0 128 128"
   version="1.1"
   id="svg657"
   sodipodi:docname="firefox-logo-developer-edition (copy).svg"
   width="128"
   height="128"
   inkscape:version="0.92.3 (2405546, 2018-03-11)">
  <metadata
     id="metadata661">
    <rdf:RDF>
      <cc:Work
         rdf:about="">
        <dc:format>image/svg+xml</dc:format>
        <dc:type
           rdf:resource="http://purl.org/dc/dcmitype/StillImage" />
        <dc:title>firefox-logo-developer-edition</dc:title>
      </cc:Work>
    </rdf:RDF>
  </metadata>
  <sodipodi:namedview
     pagecolor="#ffffff"
     bordercolor="#666666"
     borderopacity="1"
     objecttolerance="10"
     gridtolerance="10"
     guidetolerance="10"
     inkscape:pageopacity="0"
     inkscape:pageshadow="2"
     inkscape:window-width="1529"
     inkscape:window-height="837"
     id="namedview659"
     showgrid="false"
     inkscape:zoom="1.3537536"
     inkscape:cx="-28.630346"
     inkscape:cy="74.150353"
     inkscape:window-x="71"
     inkscape:window-y="27"
     inkscape:window-maximized="1"
     inkscape:current-layer="svg657" />
  <defs
     id="defs203">
    <linearGradient
       gradientUnits="userSpaceOnUse"
       gradientTransform="matrix(0.15751993,0.00621789,0.01036315,-0.23213464,2555.3596,2003.5783)"
       y2="9250.14"
       x2="-14443.04"
       y1="9250.14"
       x1="-14706.28"
       id="linear-gradient-36">
      <stop
         id="stop1552"
         stop-color="#0083ff"
         offset="0" />
      <stop
         id="stop1554"
         stop-color="#0092f8"
         offset="0.1" />
      <stop
         id="stop1556"
         stop-color="#00abeb"
         offset="0.31" />
      <stop
         id="stop1558"
         stop-color="#00bee1"
         offset="0.52" />
      <stop
         id="stop1560"
         stop-color="#00c8dc"
         offset="0.75" />
      <stop
         id="stop1562"
         stop-color="#00ccda"
         offset="1" />
    </linearGradient>
    <radialGradient
       gradientUnits="userSpaceOnUse"
       gradientTransform="matrix(0.25493358,0,0,-0.25286095,1803.7539,2212.3291)"
       r="791.23"
       cy="8866.53"
       cx="-7588.66"
       id="radial-gradient-7">
      <stop
         id="stop1565"
         stop-color="#005fe7"
         offset="0.02" />
      <stop
         id="stop1567"
         stop-color="#0042b4"
         offset="0.18" />
      <stop
         id="stop1569"
         stop-color="#002989"
         offset="0.32" />
      <stop
         id="stop1571"
         stop-color="#002079"
         offset="0.4" />
      <stop
         id="stop1573"
         stop-color="#131d78"
         offset="0.47" />
      <stop
         id="stop1575"
         stop-color="#3b1676"
         offset="0.66" />
      <stop
         id="stop1577"
         stop-color="#4a1475"
         offset="0.75" />
    </radialGradient>
    <linearGradient
       gradientUnits="userSpaceOnUse"
       gradientTransform="matrix(1, 0, 0, -1, 1, 984)"
       y2="881.03"
       x2="348.2"
       y1="254.8"
       x1="539.64"
       id="linear-gradient-2-5">
      <stop
         id="stop1580"
         stop-opacity="0.4"
         stop-color="#000f43"
         offset="0" />
      <stop
         id="stop1582"
         stop-opacity="0.17"
         stop-color="#001962"
         offset="0.48" />
      <stop
         id="stop1584"
         stop-opacity="0"
         stop-color="#002079"
         offset="1" />
    </linearGradient>
    <linearGradient
       xlink:href="#linear-gradient-2-5"
       gradientTransform="matrix(0.20726307,0,0,-0.20726307,174.84585,-103.04355)"
       y2="881.03"
       x2="349.2"
       y1="254.8"
       x1="540.64"
       id="linear-gradient-3-3" />
    <linearGradient
       gradientUnits="userSpaceOnUse"
       gradientTransform="matrix(0.25286095,0.02487157,0.02487157,-0.25286095,2297.4394,1924.2629)"
       y2="7357.76"
       x2="-8482.36"
       y1="7348.87"
       x1="-8367.12"
       id="linear-gradient-4-5">
      <stop
         id="stop1588"
         stop-color="#812cc9"
         offset="0" />
      <stop
         id="stop1590"
         stop-color="#005fe7"
         offset="1" />
    </linearGradient>
    <linearGradient
       gradientUnits="userSpaceOnUse"
       gradientTransform="matrix(0.25286095,0.02487157,0.02487157,-0.25286095,2297.4394,1924.2629)"
       y2="7609.09"
       x2="-8341.94"
       y1="7496.97"
       x1="-8449.89"
       id="linear-gradient-5-6">
      <stop
         id="stop1593"
         stop-color="#005fe7"
         offset="0.05" />
      <stop
         id="stop1595"
         stop-color="#065de6"
         offset="0.18" />
      <stop
         id="stop1597"
         stop-color="#1856e1"
         offset="0.35" />
      <stop
         id="stop1599"
         stop-color="#354adb"
         offset="0.56" />
      <stop
         id="stop1601"
         stop-color="#5d3ad1"
         offset="0.78" />
      <stop
         id="stop1603"
         stop-color="#812cc9"
         offset="0.95" />
    </linearGradient>
    <linearGradient
       gradientUnits="userSpaceOnUse"
       gradientTransform="matrix(0.25286095,0.02487157,0.02487157,-0.25286095,2297.4394,1924.2629)"
       y2="7244.76"
       x2="-8422.52"
       y1="7245.3"
       x1="-8653.41"
       id="linear-gradient-6-2">
      <stop
         id="stop1606"
         stop-color="#002079"
         offset="0" />
      <stop
         id="stop1608"
         stop-color="#a238ff"
         offset="0.99" />
    </linearGradient>
    <radialGradient
       gradientUnits="userSpaceOnUse"
       gradientTransform="matrix(0.20726307,0,0,-0.20726307,174.84585,-103.04355)"
       r="793.95"
       fy="470.6889181532662"
       fx="785.0454815336918"
       cy="599.83"
       cx="644.11"
       id="radial-gradient-2">
      <stop
         id="stop1611"
         stop-color="#00fdff"
         offset="0.2" />
      <stop
         id="stop1613"
         stop-color="#0af1ff"
         offset="0.26" />
      <stop
         id="stop1615"
         stop-color="#23d2ff"
         offset="0.37" />
      <stop
         id="stop1617"
         stop-color="#4da0ff"
         offset="0.52" />
      <stop
         id="stop1619"
         stop-color="#855bff"
         offset="0.69" />
      <stop
         id="stop1621"
         stop-color="#a238ff"
         offset="0.77" />
      <stop
         id="stop1623"
         stop-color="#a738fd"
         offset="0.81" />
      <stop
         id="stop1625"
         stop-color="#b539f9"
         offset="0.86" />
      <stop
         id="stop1627"
         stop-color="#cd39f1"
         offset="0.9" />
      <stop
         id="stop1629"
         stop-color="#ee3ae6"
         offset="0.96" />
      <stop
         id="stop1631"
         stop-color="#ff3be0"
         offset="0.98" />
    </radialGradient>
    <linearGradient
       gradientUnits="userSpaceOnUse"
       gradientTransform="matrix(0.25493358,0,0,-0.25286095,2238.815,1982.8748)"
       y2="8282.84"
       x2="-7531.06"
       y1="9093.17"
       x1="-7458.97"
       id="linear-gradient-7-9">
      <stop
         id="stop1634"
         stop-color="#00ec00"
         offset="0" />
      <stop
         id="stop1636"
         stop-color="#00e244"
         offset="0.1" />
      <stop
         id="stop1638"
         stop-color="#00d694"
         offset="0.22" />
      <stop
         id="stop1640"
         stop-color="#00cfc7"
         offset="0.31" />
      <stop
         id="stop1642"
         stop-color="#00ccda"
         offset="0.35" />
      <stop
         id="stop1644"
         stop-opacity="0.92"
         stop-color="#0bc2dd"
         offset="0.42" />
      <stop
         id="stop1646"
         stop-opacity="0.72"
         stop-color="#29a7e4"
         offset="0.57" />
      <stop
         id="stop1648"
         stop-opacity="0.4"
         stop-color="#597df0"
         offset="0.77" />
      <stop
         id="stop1650"
         stop-opacity="0"
         stop-color="#9448ff"
         offset="1" />
    </linearGradient>
    <linearGradient
       gradientUnits="userSpaceOnUse"
       gradientTransform="matrix(0.25286095,0.02487157,0.02487157,-0.25286095,2297.4394,1924.2629)"
       y2="7680.53"
       x2="-8790.14"
       y1="7680.53"
       x1="-8926.61"
       id="linear-gradient-8-1">
      <stop
         id="stop1653"
         stop-color="#005fe7"
         offset="0" />
      <stop
         id="stop1655"
         stop-opacity="0.51"
         stop-color="#0071f3"
         offset="0.46" />
      <stop
         id="stop1657"
         stop-opacity="0.14"
         stop-color="#007efc"
         offset="0.83" />
      <stop
         id="stop1659"
         stop-opacity="0"
         stop-color="#0083ff"
         offset="1" />
    </linearGradient>
    <radialGradient
       gradientUnits="userSpaceOnUse"
       gradientTransform="matrix(0.25286095,0.02487157,0.02487157,-0.25286095,2297.4394,1924.2629)"
       r="165.97"
       cy="7721.05"
       cx="-8914.62"
       id="radial-gradient-3">
      <stop
         id="stop1662"
         stop-opacity="0"
         stop-color="#ffe302"
         offset="0.63" />
      <stop
         id="stop1664"
         stop-opacity="0.05"
         stop-color="#ffe302"
         offset="0.67" />
      <stop
         id="stop1666"
         stop-opacity="0.19"
         stop-color="#ffe302"
         offset="0.75" />
      <stop
         id="stop1668"
         stop-opacity="0.4"
         stop-color="#ffe302"
         offset="0.86" />
      <stop
         id="stop1670"
         stop-opacity="0.7"
         stop-color="#ffe302"
         offset="0.99" />
    </radialGradient>
    <linearGradient
       gradientUnits="userSpaceOnUse"
       gradientTransform="matrix(0.20519044,0.02072631,0.02072631,-0.20519044,123.00936,171.01834)"
       y2="2284.31"
       x2="96.19"
       y1="2032.47"
       x1="214.02"
       id="linear-gradient-9-2">
      <stop
         id="stop1673"
         stop-opacity="0.5"
         stop-color="#4a1475"
         offset="0.19" />
      <stop
         id="stop1675"
         stop-opacity="0.23"
         stop-color="#2277ac"
         offset="0.62" />
      <stop
         id="stop1677"
         stop-opacity="0"
         stop-color="#00ccda"
         offset="0.94" />
    </linearGradient>
    <linearGradient
       gradientUnits="userSpaceOnUse"
       gradientTransform="matrix(0.20519044,0.02072631,0.02072631,-0.20519044,222.31738,-152.3991)"
       y2="171.29"
       x2="55.67"
       y1="278.18"
       x1="-38.44"
       id="linear-gradient-10-7">
      <stop
         id="stop1680"
         stop-opacity="0.5"
         stop-color="#002079"
         offset="0.01" />
      <stop
         id="stop1682"
         stop-opacity="0"
         stop-color="#0083ff"
         offset="1" />
    </linearGradient>
    <linearGradient
       gradientUnits="userSpaceOnUse"
       gradientTransform="matrix(0.20519044,0.02072631,0.02072631,-0.20519044,222.31738,-152.3991)"
       y2="149.68"
       x2="142.5"
       y1="96.25"
       x1="142.45"
       id="linear-gradient-11-0">
      <stop
         id="stop1685"
         stop-opacity="0.9"
         stop-color="#4a1475"
         offset="0" />
      <stop
         id="stop1687"
         stop-opacity="0.6"
         stop-color="#6720a2"
         offset="0.18" />
      <stop
         id="stop1689"
         stop-opacity="0.34"
         stop-color="#812acb"
         offset="0.38" />
      <stop
         id="stop1691"
         stop-opacity="0.15"
         stop-color="#9332e8"
         offset="0.57" />
      <stop
         id="stop1693"
         stop-opacity="0.04"
         stop-color="#9e36f9"
         offset="0.76" />
      <stop
         id="stop1695"
         stop-opacity="0"
         stop-color="#a238ff"
         offset="0.93" />
    </linearGradient>
    <linearGradient
       gradientUnits="userSpaceOnUse"
       gradientTransform="matrix(0.20726307,0,0,-0.20726307,174.84585,-103.04355)"
       y2="264.39"
       x2="926.18"
       y1="947.88"
       x1="620.52"
       id="linear-gradient-12-9">
      <stop
         id="stop1698"
         stop-opacity="0"
         stop-color="#00ec00"
         offset="0" />
      <stop
         id="stop1700"
         stop-opacity="0.5"
         stop-color="#00dc6d"
         offset="0.28" />
      <stop
         id="stop1702"
         stop-opacity="0.86"
         stop-color="#00d1bb"
         offset="0.5" />
      <stop
         id="stop1704"
         stop-color="#00ccda"
         offset="0.6" />
      <stop
         id="stop1706"
         stop-color="#04c9db"
         offset="0.68" />
      <stop
         id="stop1708"
         stop-color="#0fc1df"
         offset="0.75" />
      <stop
         id="stop1710"
         stop-color="#23b2e6"
         offset="0.83" />
      <stop
         id="stop1712"
         stop-color="#3e9ef0"
         offset="0.9" />
      <stop
         id="stop1714"
         stop-color="#6184fc"
         offset="0.98" />
      <stop
         id="stop1716"
         stop-color="#6680fe"
         offset="0.99" />
    </linearGradient>
    <linearGradient
       gradientUnits="userSpaceOnUse"
       gradientTransform="matrix(0.20726307,0,0,-0.20726307,174.84585,-103.04355)"
       y2="166.04"
       x2="536.1"
       y1="554.79"
       x1="680.88"
       id="linear-gradient-13-3">
      <stop
         id="stop1719"
         stop-color="#0083ff"
         offset="0" />
      <stop
         id="stop1721"
         stop-opacity="0.92"
         stop-color="#0083ff"
         offset="0.04" />
      <stop
         id="stop1723"
         stop-opacity="0.71"
         stop-color="#0083ff"
         offset="0.14" />
      <stop
         id="stop1725"
         stop-opacity="0.52"
         stop-color="#0083ff"
         offset="0.26" />
      <stop
         id="stop1727"
         stop-opacity="0.36"
         stop-color="#0083ff"
         offset="0.37" />
      <stop
         id="stop1729"
         stop-opacity="0.23"
         stop-color="#0083ff"
         offset="0.49" />
      <stop
         id="stop1731"
         stop-opacity="0.13"
         stop-color="#0083ff"
         offset="0.61" />
      <stop
         id="stop1733"
         stop-opacity="0.06"
         stop-color="#0083ff"
         offset="0.73" />
      <stop
         id="stop1735"
         stop-opacity="0.01"
         stop-color="#0083ff"
         offset="0.86" />
      <stop
         id="stop1737"
         stop-opacity="0"
         stop-color="#0083ff"
         offset="1" />
    </linearGradient>
    <linearGradient
       inkscape:collect="always"
       xlink:href="#linear-gradient-2-5"
       id="linearGradient1907"
       gradientUnits="userSpaceOnUse"
       gradientTransform="matrix(0.20726307,0,0,-0.20726307,175.05311,-103.04355)"
       x1="539.64"
       y1="254.8"
       x2="348.2"
       y2="881.03" />
    <radialGradient
       inkscape:collect="always"
       xlink:href="#radial-gradient-7"
       id="radialGradient1979"
       gradientUnits="userSpaceOnUse"
       gradientTransform="matrix(0.16412135,0,0,-0.16193291,1147.6377,1459.5598)"
       cx="-7588.66"
       cy="8866.53"
       r="791.23" />
  </defs>
  <title
     id="title205">firefox-logo-developer-edition</title>
  <g
     id="g2018"
     transform="translate(181.43774,-0.0503903)">
    <path
       style="opacity:0.25;fill:#000000;stroke-width:0.13308148"
       d="m -117.4697,124.24881 c 32.722868,0 59.230463,-26.511863 59.230463,-59.198419 0,-32.686551 -26.507595,-59.1984204 -59.198433,-59.1984204 -32.69084,0 -59.19844,26.5039034 -59.19844,59.1944434 -0.0668,32.722386 26.47557,59.202396 59.16641,59.202396 z"
       data-name=" Path "
       id="path1998"
       inkscape:connector-curvature="0" />
    <path
       inkscape:connector-curvature="0"
       id="_Path_"
       data-name=" Path "
       d="m -117.4697,122.24881 c 32.722868,0 59.230463,-26.511863 59.230463,-59.198419 0,-32.686551 -26.507595,-59.1984204 -59.198433,-59.1984204 -32.69084,0 -59.19844,26.5039034 -59.19844,59.1944434 -0.0668,32.722386 26.47557,59.202396 59.16641,59.202396 z"
       style="fill:url(#radialGradient1979);stroke-width:0.13308148" />
    <g
       transform="matrix(0.51889982,0,0,0.51889982,-259.43185,169.43368)"
       id="g1996">
      <path
         id="path1744"
         style="fill:url(#linear-gradient-36);stroke-width:0.20726307"
         d="m 334.49645,-288.0134 c -4.96395,5.77849 -7.27494,18.78632 -2.24259,31.9724 5.03235,13.18607 12.74668,10.3217 17.55518,23.76685 6.3464,17.74172 3.3929,41.5749 3.3929,41.5749 0,0 7.62935,22.09632 12.94772,-1.37415 11.77047,-44.08693 -31.65321,-85.08356 -31.65321,-95.94 z"
         inkscape:connector-curvature="0" />
      <path
         id="path1747"
         style="fill:url(#linearGradient1907);stroke-width:0.20726307"
         d="m 342.8678,-140.42552 a 51.152526,51.152526 0 0 1 -6.24276,3.76805 146.18472,146.18472 0 0 0 7.93817,-13.05758 c 1.96071,-2.17004 3.75768,-4.27998 5.22096,-6.55987 0.71299,-1.1213 1.51509,-2.50374 2.36695,-4.10796 5.16499,-9.30611 10.86058,-24.36584 11.02225,-39.83596 v -1.17311 a 53.318425,53.318425 0 0 0 -1.18348,-11.55491 c 0.0415,0.29638 0.0788,0.59277 0.11607,0.88915 -0.0456,-0.22799 -0.085,-0.45805 -0.13265,-0.68604 0.0767,0.41453 0.1368,0.82906 0.20727,1.24358 1.05496,8.95791 0.30467,17.69405 -3.45715,24.13579 -0.0601,0.0933 -0.12021,0.18239 -0.18032,0.27358 1.95034,-9.78903 2.60322,-20.59987 0.43318,-31.42108 0,0 -0.86843,-5.26033 -7.33297,-21.23203 -3.73073,-9.19211 -10.32792,-16.73027 -16.16652,-22.22067 -5.11732,-6.33189 -9.76416,-10.57042 -12.32593,-13.27727 -5.35154,-5.63341 -7.59412,-9.85951 -8.51644,-12.61611 -0.79797,-0.40001 -11.01396,-10.32377 -11.82436,-10.70099 -4.45823,6.91223 -18.47958,28.53391 -11.814,48.73791 3.0219,9.15481 10.66783,18.65368 18.66819,23.98863 0.35027,0.40209 4.76705,5.18158 6.85833,15.99242 2.1659,11.16112 1.03632,19.86824 -3.42813,32.74756 -5.24168,11.29791 -18.65782,22.46525 -31.23869,23.60727 -26.8758,2.44156 -36.71665,-13.4949 -36.71665,-13.4949 9.60457,3.83022 20.22266,3.0364 26.6789,-0.93683 6.50806,-4.02712 10.44399,-7.01171 13.63999,-5.83446 3.14625,1.15653 5.66242,-2.2488 3.40325,-5.77227 a 16.270151,16.270151 0 0 0 -16.45668,-7.16509 c -6.51428,1.05912 -12.48346,6.2179 -21.01855,1.22078 a 17.88473,17.88473 0 0 1 -1.60214,-1.04875 c -0.56169,-0.371 1.83013,0.56376 1.27052,0.14301 -1.65811,-0.90159 -4.60124,-2.86852 -5.36397,-3.56907 -0.12643,-0.11606 1.28918,0.45184 1.16275,0.33577 -7.98171,-6.57231 -6.98477,-11.01189 -6.73398,-13.7975 0.20726,-2.22808 1.6581,-5.08209 4.09344,-6.24069 1.17933,0.64458 1.91512,1.1358 1.91512,1.1358 0,0 -0.50365,-1.03632 -0.77517,-1.57106 0.0953,-0.0414 0.18654,-0.0311 0.28188,-0.0705 0.96584,0.46635 3.10894,1.67884 4.23024,2.41876 1.46535,1.03632 1.93376,1.95657 1.93376,1.95657 0,0 0.38551,-0.20727 0.0995,-1.11301 -0.10363,-0.36892 -0.54925,-1.5441 -2.00009,-2.72965 h 0.0912 a 16.914739,16.914739 0 0 1 2.46021,1.69956 c 0.41452,-1.48815 1.14616,-3.04262 0.9845,-5.82202 -0.0995,-1.95449 -0.0539,-2.46021 -0.39795,-3.21465 -0.30882,-0.64874 0.17203,-0.9016 0.70884,-0.22799 a 6.7360498,6.7360498 0 0 0 -0.45805,-1.53375 v -0.0497 c 0.66946,-2.32964 14.14571,-8.38587 15.13021,-9.09471 a 13.928078,13.928078 0 0 0 3.96494,-4.30692 c 0.75029,-1.19384 1.31405,-2.8706 1.45084,-5.41164 0.0746,-1.83221 -0.77931,-3.05299 -14.40686,-4.48103 -3.73073,-0.36685 -5.91321,-3.06749 -7.15679,-5.55879 -0.22592,-0.53681 -0.45805,-1.02388 -0.69019,-1.50888 a 11.954934,11.954934 0 0 1 -0.53059,-1.74723 c 2.22808,-6.39821 5.97125,-11.81399 11.47616,-15.89707 0.30053,-0.27359 -1.19798,0.0705 -0.89953,-0.20727 0.35028,-0.31918 2.63432,-1.24358 3.06543,-1.45084 0.52644,-0.24871 -2.25503,-1.43011 -4.71109,-1.14202 -2.50167,0.28188 -3.03226,0.58034 -4.36704,1.14617 0.5534,-0.55132 2.31513,-1.27467 1.90268,-1.27053 -2.69442,0.41453 -6.04794,1.98144 -8.91231,3.75561 a 2.2094243,2.2094243 0 0 1 0.17202,-0.90159 c -1.33477,0.56582 -4.61367,2.85815 -5.56915,4.79606 a 9.1796814,9.1796814 0 0 0 0.056,-1.11922 17.445333,17.445333 0 0 0 -2.7338,2.86438 l -0.0498,0.0456 c -7.74334,-3.10895 -14.55608,-3.31621 -20.32214,-1.9234 -1.26223,-1.26638 -1.8778,-0.33992 -4.7484,-6.64693 -0.19482,-0.37929 0.14923,0.37515 0,0 -0.47256,-1.22285 0.2881,1.63116 0,0 -4.82508,3.80742 -11.17562,8.12264 -14.22446,11.16941 -0.0373,0.12228 3.55663,-1.01559 0,0 -1.24358,0.35649 -1.16067,1.09434 -1.34928,7.77236 -0.0456,0.50572 0,1.07362 -0.0456,1.5296 -2.43534,3.10895 -4.09345,5.72875 -4.72145,7.09047 -3.14833,5.42615 -6.61791,13.88663 -9.97972,27.26546 a 69.395821,69.395821 0 0 1 5.34531,-10.42533 c -2.79598,7.1029 -5.49869,18.25573 -6.03757,35.42955 a 99.917381,99.917381 0 0 1 2.59701,-10.49995 98.035432,98.035432 0 0 0 7.19824,41.67438 c 1.93377,4.72975 5.13184,11.90934 10.57042,19.7729 17.11371,18.00909 41.2412,29.20129 67.95741,29.20129 27.89347,0 52.94121,-12.20157 70.15026,-31.5786 z"
         inkscape:connector-curvature="0" />
      <path
         id="path1749"
         style="fill:url(#linear-gradient-3-3);stroke-width:0.20726307"
         d="m 342.8678,-140.42552 a 51.152526,51.152526 0 0 1 -6.24276,3.76805 146.18472,146.18472 0 0 0 7.93817,-13.05758 c 1.96071,-2.17004 3.75768,-4.27998 5.22096,-6.55987 0.71299,-1.1213 1.51509,-2.50374 2.36695,-4.10796 5.16499,-9.30611 10.86058,-24.36584 11.02225,-39.83596 v -1.17311 a 53.318425,53.318425 0 0 0 -1.18348,-11.55491 c 0.0415,0.29638 0.0788,0.59277 0.11607,0.88915 -0.0456,-0.22799 -0.085,-0.45805 -0.13265,-0.68604 0.0767,0.41453 0.1368,0.82906 0.20727,1.24358 1.05496,8.95791 0.30467,17.69405 -3.45715,24.13579 -0.0601,0.0933 -0.12021,0.18239 -0.18032,0.27358 1.95034,-9.78903 2.60322,-20.59987 0.43318,-31.42108 0,0 -0.86843,-5.26033 -7.33297,-21.23203 -3.73073,-9.19211 -10.32792,-16.73027 -16.16652,-22.22067 -5.11732,-6.33189 -9.76416,-10.57042 -12.32593,-13.27727 -5.35154,-5.63341 -7.59412,-9.85951 -8.51644,-12.61611 -0.79797,-0.40001 -11.01396,-10.32377 -11.82436,-10.70099 -4.45823,6.91223 -18.47958,28.53391 -11.814,48.73791 3.0219,9.15481 10.66783,18.65368 18.66819,23.98863 0.35027,0.40209 4.76705,5.18158 6.85833,15.99242 2.1659,11.16112 1.03632,19.86824 -3.42813,32.74756 -5.24168,11.29791 -18.65782,22.46525 -31.23869,23.60727 -26.8758,2.44156 -36.71665,-13.4949 -36.71665,-13.4949 9.60457,3.83022 20.22266,3.0364 26.6789,-0.93683 6.50806,-4.02712 10.44399,-7.01171 13.63999,-5.83446 3.14625,1.15653 5.66242,-2.2488 3.40325,-5.77227 a 16.270151,16.270151 0 0 0 -16.45668,-7.16509 c -6.51428,1.05912 -12.48346,6.2179 -21.01855,1.22078 a 17.88473,17.88473 0 0 1 -1.60214,-1.04875 c -0.56169,-0.371 1.83013,0.56376 1.27052,0.14301 -1.65811,-0.90159 -4.60124,-2.86852 -5.36397,-3.56907 -0.12643,-0.11606 1.28918,0.45184 1.16275,0.33577 -7.98171,-6.57231 -6.98477,-11.01189 -6.73398,-13.7975 0.20726,-2.22808 1.6581,-5.08209 4.09344,-6.24069 1.17933,0.64458 1.91512,1.1358 1.91512,1.1358 0,0 -0.50365,-1.03632 -0.77517,-1.57106 0.0953,-0.0414 0.18654,-0.0311 0.28188,-0.0705 0.96584,0.46635 3.10894,1.67884 4.23024,2.41876 1.46535,1.03632 1.93376,1.95657 1.93376,1.95657 0,0 0.38551,-0.20727 0.0995,-1.11301 -0.10363,-0.36892 -0.54925,-1.5441 -2.00009,-2.72965 h 0.0912 a 16.914739,16.914739 0 0 1 2.46021,1.69956 c 0.41452,-1.48815 1.14616,-3.04262 0.9845,-5.82202 -0.0995,-1.95449 -0.0539,-2.46021 -0.39795,-3.21465 -0.30882,-0.64874 0.17203,-0.9016 0.70884,-0.22799 a 6.7360498,6.7360498 0 0 0 -0.45805,-1.53375 v -0.0497 c 0.66946,-2.32964 14.14571,-8.38587 15.13021,-9.09471 a 13.928078,13.928078 0 0 0 3.96494,-4.30692 c 0.75029,-1.19384 1.31405,-2.8706 1.45084,-5.41164 0.0746,-1.83221 -0.77931,-3.05299 -14.40686,-4.48103 -3.73073,-0.36685 -5.91321,-3.06749 -7.15679,-5.55879 -0.22592,-0.53681 -0.45805,-1.02388 -0.69019,-1.50888 a 11.954934,11.954934 0 0 1 -0.53059,-1.74723 c 2.22808,-6.39821 5.97125,-11.81399 11.47616,-15.89707 0.30053,-0.27359 -1.19798,0.0705 -0.89953,-0.20727 0.35028,-0.31918 2.63432,-1.24358 3.06543,-1.45084 0.52644,-0.24871 -2.25503,-1.43011 -4.71109,-1.14202 -2.50167,0.28188 -3.03226,0.58034 -4.36704,1.14617 0.5534,-0.55132 2.31513,-1.27467 1.90268,-1.27053 -2.69442,0.41453 -6.04794,1.98144 -8.91231,3.75561 a 2.2094243,2.2094243 0 0 1 0.17202,-0.90159 c -1.33477,0.56582 -4.61367,2.85815 -5.56915,4.79606 a 9.1796814,9.1796814 0 0 0 0.056,-1.11922 17.445333,17.445333 0 0 0 -2.7338,2.86438 l -0.0498,0.0456 c -7.74334,-3.10895 -14.55608,-3.31621 -20.32214,-1.9234 -1.26223,-1.26638 -1.8778,-0.33992 -4.7484,-6.64693 -0.19482,-0.37929 0.14923,0.37515 0,0 -0.47256,-1.22285 0.2881,1.63116 0,0 -4.82508,3.80742 -11.17562,8.12264 -14.22446,11.16941 -0.0373,0.12228 3.55663,-1.01559 0,0 -1.24358,0.35649 -1.16067,1.09434 -1.34928,7.77236 -0.0456,0.50572 0,1.07362 -0.0456,1.5296 -2.43534,3.10895 -4.09345,5.72875 -4.72145,7.09047 -3.14833,5.42615 -6.61791,13.88663 -9.97972,27.26546 a 69.395821,69.395821 0 0 1 5.34531,-10.42533 c -2.79598,7.1029 -5.49869,18.25573 -6.03757,35.42955 a 99.917381,99.917381 0 0 1 2.59701,-10.49995 98.035432,98.035432 0 0 0 7.19824,41.67438 c 1.93377,4.72975 5.13184,11.90934 10.57042,19.7729 17.11371,18.00909 41.2412,29.20129 67.95741,29.20129 27.89347,0 52.94121,-12.20157 70.15026,-31.5786 z"
         inkscape:connector-curvature="0" />
      <path
         id="path1751"
         style="fill:url(#linear-gradient-4-5);stroke-width:0.20726307"
         d="m 322.23062,-127.35343 c 33.75694,-3.90899 48.70682,-38.69602 29.51011,-39.37999 -17.33341,-0.56168 -45.49009,41.22463 -29.51011,39.37999 z"
         inkscape:connector-curvature="0" />
      <path
         id="path1753"
         style="fill:url(#linear-gradient-5-6);stroke-width:0.20726307"
         d="m 354.17193,-173.84047 c 23.22383,-13.51562 17.15931,-42.71277 17.15931,-42.71277 0,0 -8.96413,10.41289 -15.05144,27.01052 -6.00649,16.44425 -16.07118,23.86634 -2.10787,15.70225 z"
         inkscape:connector-curvature="0" />
      <path
         id="path1755"
         style="fill:url(#linear-gradient-6-2);stroke-width:0.20726307"
         d="m 280.44017,-110.07806 c 32.38071,10.332066 60.21614,-15.1758 43.05683,-23.69431 -15.58826,-7.68117 -58.42539,18.80912 -43.05683,23.69431 z"
         inkscape:connector-curvature="0" />
      <path
         id="path1757"
         style="fill:url(#radial-gradient-2);stroke-width:0.20726307"
         d="m 307.1999,-302.55084 0.10985,-0.11813 a 0.35234722,0.35234722 0 0 0 -0.10985,0.11813 z m 49.38457,141.10678 c 0.7876,-1.11093 1.85293,-4.66964 2.79391,-6.26142 5.71631,-9.22735 5.75777,-16.58105 5.75777,-16.75515 3.453,-17.24843 3.14003,-24.29123 1.01559,-37.30735 -1.70992,-10.48751 -9.1859,-25.51201 -15.66287,-32.74757 -6.67387,-7.46147 -1.97108,-5.02613 -8.43354,-10.47093 -5.6645,-6.27799 -11.1549,-12.49589 -14.1457,-14.99755 -21.6134,-18.07541 -21.12633,-21.91185 -20.70973,-22.56681 -0.0705,0.0767 -0.1741,0.19069 -0.30468,0.33992 -0.257,-1.01974 -0.43732,-1.87781 -0.43732,-1.87781 0,0 -11.814,11.814 -14.30115,31.50399 -1.62287,12.85031 3.1877,26.25609 10.15589,34.8202 a 79.095733,79.095733 0 0 0 12.22852,12.02125 v 0 c 5.26448,7.56096 8.16202,16.88987 8.16202,26.92555 0,25.12857 -20.38225,45.50046 -45.52533,45.50046 a 45.626892,45.626892 0 0 1 -10.18284,-1.14409 c -11.86374,-2.26331 -18.71585,-8.24907 -22.13155,-12.3135 -1.95864,-2.32756 -2.78976,-4.02505 -2.78976,-4.02505 10.62845,3.80742 22.38441,3.01153 29.52877,-0.93683 7.20239,-3.99189 11.55906,-6.95367 15.09704,-5.78678 3.48617,1.16274 6.26142,-2.2115 3.77219,-5.70803 -2.43949,-3.49238 -8.78796,-8.49778 -18.21428,-7.10705 -7.21068,1.05082 -13.81616,6.16815 -23.26321,1.21042 a 20.174987,20.174987 0 0 1 -1.7721,-1.03632 c -0.62179,-0.36685 2.02496,0.55754 1.40732,0.14094 -1.83842,-0.89538 -5.09245,-2.84572 -5.93601,-3.53798 -0.14094,-0.11607 1.42597,0.44769 1.28503,0.33162 -8.83356,-6.51842 -7.73092,-10.92069 -7.46147,-13.67936 0.22177,-2.20943 1.82598,-5.04064 4.53077,-6.18888 1.30575,0.63837 2.1203,1.12544 2.1203,1.12544 0,0 -0.55754,-1.01973 -0.85807,-1.55654 0.1057,-0.0394 0.20726,-0.0311 0.31089,-0.0705 1.06948,0.46219 3.43643,1.6581 4.68208,2.39803 1.62287,1.02595 2.13895,1.93998 2.13895,1.93998 0,0 0.42696,-0.20726 0.11192,-1.10471 -0.11606,-0.36686 -0.60728,-1.53167 -2.21357,-2.70893 h 0.0995 a 18.99566,18.99566 0 0 1 2.72136,1.69334 c 0.45391,-1.47571 1.26845,-3.01775 1.08814,-5.77435 -0.10985,-1.93791 -0.058,-2.44156 -0.4394,-3.18978 -0.34199,-0.64251 0.19068,-0.8933 0.78345,-0.22591 a 6.1619311,6.1619311 0 0 0 -0.50572,-1.52131 v -0.0498 c 0.73993,-2.30891 15.65458,-8.31539 16.74064,-9.01801 a 14.558158,14.558158 0 0 0 4.38776,-4.27584 c 0.82905,-1.18555 1.45084,-2.84572 1.60629,-5.36604 0.0518,-1.1358 -0.29846,-2.03532 -4.2489,-2.90168 -2.37109,-0.51609 -6.03964,-1.01767 -11.69585,-1.54826 -4.12454,-0.36478 -6.54537,-3.04262 -7.91952,-5.5132 -0.25079,-0.53266 -0.5078,-1.01559 -0.76273,-1.49644 a 11.069921,11.069921 0 0 1 -0.58656,-1.73272 32.844979,32.844979 0 0 1 12.70108,-15.76442 c 0.33163,-0.27152 -1.32648,0.0684 -0.99486,-0.20727 0.38758,-0.31504 2.91412,-1.22907 3.3929,-1.43426 0.58241,-0.24664 -2.48716,-1.41768 -5.21474,-1.13373 -2.76903,0.27981 -3.35559,0.57619 -4.83338,1.13788 0.62179,-0.54718 2.56385,-1.26431 2.1058,-1.26016 -2.98459,0.41452 -6.6946,1.96485 -9.86572,3.73073 a 2.014597,2.014597 0 0 1 0.19068,-0.8933 c -1.47779,0.56168 -5.10696,2.83329 -6.16193,4.76705 a 8.2469976,8.2469976 0 0 0 0.0601,-1.10886 18.353145,18.353145 0 0 0 -3.02604,2.83951 l -0.056,0.0456 c -8.55789,-3.09029 -16.10019,-3.29755 -22.47353,-1.90474 -1.39696,-1.25602 -3.64162,-3.15662 -6.81689,-9.40975 -0.20726,-0.37722 -0.33162,0.77724 -0.49743,0.41453 -1.24358,-2.8623 -1.97936,-7.55267 -1.86537,-10.77768 0,0 -2.55348,1.16275 -4.66549,6.02306 -0.39172,0.87258 -0.64458,1.3555 -0.89537,1.83843 -0.11607,0.14094 0.26322,-1.59593 0.20726,-1.50059 -0.36686,0.62179 -1.31819,1.49022 -1.73479,2.61566 -0.28603,0.82906 -0.68812,1.29954 -0.94512,2.34 l -0.0601,0.0953 c -0.0207,-0.30675 0.0767,-1.26016 0,-1.06533 a 48.789727,48.789727 0 0 0 -2.55348,6.16815 c -1.13787,3.73074 -2.46228,8.83148 -2.67162,15.45561 -0.0497,0.50157 0,1.06533 -0.0518,1.51716 -2.69442,3.07372 -4.53077,5.67694 -5.22303,7.02829 -3.48409,5.38884 -7.3226,13.77056 -11.04504,27.03954 a 66.189461,66.189461 0 0 1 5.91528,-10.36315 c -3.09443,7.04487 -6.08524,18.1065 -6.68423,35.13938 a 90.557381,90.557381 0 0 1 2.87474,-10.41289 c -0.53474,11.35801 0.78967,25.43946 7.96926,41.33654 4.26341,9.32684 14.07731,28.31214 38.05765,43.11072 v 0 c 0,0 8.15787,6.07281 22.17715,10.62431 1.03631,0.37514 2.08506,0.74614 3.15661,1.10471 q -0.50365,-0.20727 -0.97621,-0.41453 a 100.50186,100.50186 0 0 0 28.77019,4.23024 c 36.30835,0.0311 47.01763,-14.54987 47.01763,-14.54987 l -0.10571,0.0788 q 0.76895,-0.72334 1.47986,-1.50473 c -5.72875,5.40542 -18.80912,5.77021 -23.69017,5.38884 8.33612,-2.44777 13.82238,-4.5204 24.49228,-8.60556 q 1.86537,-0.6964 3.83022,-1.58349 l 0.41453,-0.19483 c 0.25908,-0.12021 0.51608,-0.2342 0.77724,-0.36063 a 72.39699,72.39699 0 0 0 14.5623,-9.11958 c 10.7155,-8.55996 13.05757,-16.90438 14.26592,-22.40514 -0.16996,0.52645 -0.69848,1.75552 -1.07155,2.55348 -2.75868,5.90286 -8.87915,9.53411 -15.52608,12.64305 a 142.81462,142.81462 0 0 0 8.78381,-12.94151 c 2.18248,-2.17004 2.85194,-5.53599 4.47895,-7.7993 z"
         inkscape:connector-curvature="0" />
      <path
         id="path1759"
         style="fill:url(#linear-gradient-7-9);stroke-width:0.20726307"
         d="m 343.54141,-140.97269 c 4.3691,-4.81679 8.29052,-10.32585 11.26475,-16.58105 7.648,-16.07947 19.48272,-42.8164 10.15589,-70.74095 -7.35784,-22.0673 -17.46606,-34.13416 -30.29357,-45.92328 -20.84031,-19.14282 -26.66025,-27.69035 -26.66025,-32.77244 0,0 -24.06117,26.82191 -13.62548,54.79621 10.4357,27.9743 31.80659,26.9442 45.94608,56.14135 16.63701,34.35178 -13.46174,71.83945 -38.34367,82.33318 1.52339,-0.33784 55.33924,-12.51454 58.16009,-43.29311 -0.0725,0.56583 -1.28503,9.07812 -16.60384,16.04009 z"
         inkscape:connector-curvature="0" />
      <path
         id="path1761"
         style="fill:url(#linear-gradient-8-1);stroke-width:0.20726307"
         d="m 273.83262,-240.7968 c 0.0808,-1.8177 -0.86221,-3.03848 -15.89293,-4.44787 -6.18473,-0.57204 -8.55168,-6.28629 -9.27502,-8.69261 -2.19907,5.71217 -3.10895,11.70829 -2.61981,18.96042 0.33369,4.75047 3.52347,9.84914 5.051,12.85031 0,0 0.33991,-0.44147 0.49536,-0.60313 2.87267,-2.99081 14.9105,-7.54852 16.04009,-8.19518 1.24772,-0.79589 5.99197,-4.26133 6.20131,-9.87194 z"
         inkscape:connector-curvature="0" />
      <path
         id="path1763"
         style="opacity:0.5;isolation:isolate;fill:url(#radial-gradient-3);stroke-width:0.20726307"
         d="m 273.83262,-240.7968 c 0.0808,-1.8177 -0.86221,-3.03848 -15.89293,-4.44787 -6.18473,-0.57204 -8.55168,-6.28629 -9.27502,-8.69261 -2.19907,5.71217 -3.10895,11.70829 -2.61981,18.96042 0.33369,4.75047 3.52347,9.84914 5.051,12.85031 0,0 0.33991,-0.44147 0.49536,-0.60313 2.87267,-2.99081 14.9105,-7.54852 16.04009,-8.19518 1.24772,-0.79589 5.99197,-4.26133 6.20131,-9.87194 z"
         inkscape:connector-curvature="0" />
      <path
         id="path1765"
         style="fill:url(#linear-gradient-9-2);stroke-width:0.20726307"
         d="m 207.65767,-274.55996 c -0.20727,-0.37722 -0.33162,0.77724 -0.49743,0.41453 -1.24358,-2.8623 -1.98558,-7.50292 -1.80734,-10.77768 0,0 -2.55348,1.16274 -4.66549,6.02306 -0.39173,0.87258 -0.64459,1.3555 -0.89538,1.83635 -0.11606,0.14094 0.26323,-1.59592 0.20727,-1.50058 -0.36686,0.62179 -1.3182,1.49022 -1.73065,2.56592 -0.34198,0.87879 -0.69433,1.35135 -0.95548,2.43948 -0.0808,0.29639 0.0808,-1.3099 0,-1.11507 -4.90799,9.48436 -5.84689,23.85183 -5.32874,23.23004 10.46264,-11.16319 22.44867,-13.81201 22.44867,-13.81201 -1.27467,-0.9389 -4.04785,-3.65405 -6.77751,-9.30404 z"
         inkscape:connector-curvature="0" />
      <path
         id="path1767"
         style="fill:url(#linear-gradient-10-7);stroke-width:0.20726307"
         d="m 247.35476,-157.74027 c -14.45038,-6.17022 -30.8822,-14.87113 -30.26041,-34.64195 0.84564,-26.03432 24.28295,-20.88798 24.28295,-20.88798 -0.88502,0.20727 -3.24989,1.89853 -4.08723,3.69343 -0.88502,2.24466 -2.50167,7.31224 2.39389,12.62232 7.68738,8.32991 -15.79345,19.76461 20.44857,41.36349 0.91403,0.49744 -8.49779,-0.29638 -12.77569,-2.14724 z"
         inkscape:connector-curvature="0" />
      <path
         id="path1769"
         style="opacity:0.5;isolation:isolate;fill:url(#linear-gradient-11-0);stroke-width:0.20726307"
         d="m 242.22086,-170.71494 c 10.24708,3.567 22.17714,2.94106 29.33187,-1.0073 4.7857,-2.66333 10.92276,-6.9288 14.69909,-5.87591 -3.27061,-1.29332 -5.7474,-1.89646 -8.72577,-2.04361 -0.5078,0 -1.11508,0 -1.65811,-0.0663 a 28.187778,28.187778 0 0 0 -3.26646,0.17825 c -1.84464,0.16996 -3.89033,1.3327 -5.74948,1.14616 -0.0995,0 1.80319,-0.78138 1.6581,-0.74821 -0.9845,0.20726 -2.05605,0.25078 -3.18563,0.38965 -0.7192,0.0808 -1.33685,0.16996 -2.04983,0.20726 -21.3481,1.80941 -39.37998,-11.56735 -39.37998,-11.56735 -1.53582,5.18158 6.87491,15.39965 18.34692,19.39361 z"
         inkscape:connector-curvature="0" />
      <path
         id="path1771"
         style="fill:url(#linear-gradient-12-9);stroke-width:0.20726307"
         d="m 343.5041,-140.83797 c 21.58852,-21.19679 32.51129,-46.96167 27.89346,-75.85828 0,0 1.84465,14.81931 -5.15048,29.97645 3.35973,-14.79651 3.75146,-33.18489 -5.18158,-52.23029 -11.91141,-25.41874 -31.50813,-38.79343 -38.99033,-44.37295 -11.33522,-8.45426 -16.0318,-17.0619 -16.12092,-18.83814 -3.38668,6.93917 -13.63169,30.71639 -1.10057,51.19398 11.73938,19.18427 30.23139,24.87157 43.17912,42.48893 23.85183,32.40972 -4.5287,67.6403 -4.5287,67.6403 z"
         inkscape:connector-curvature="0" />
      <path
         id="path1773"
         style="fill:url(#linear-gradient-13-3);stroke-width:0.20726307"
         d="m 340.40966,-195.99067 c -7.54437,-15.58619 -16.95619,-22.38441 -25.8685,-29.75262 1.03631,1.45084 1.29125,1.96278 1.86537,2.90169 7.84076,8.35684 19.40189,28.73909 11.00774,54.32572 -15.79967,48.16172 -78.99003,25.48299 -85.62245,19.11173 2.67991,27.87481 49.32861,41.21219 79.71338,23.14714 17.28574,-16.37379 31.26978,-44.19056 18.90446,-69.73366 z"
         inkscape:connector-curvature="0" />
    </g>
  </g>
</svg>
