<?xml version="1.0" encoding="UTF-8" standalone="no"?>
<!-- Created with Inkscape (http://www.inkscape.org/) -->

<svg
   xmlns:dc="http://purl.org/dc/elements/1.1/"
   xmlns:cc="http://creativecommons.org/ns#"
   xmlns:rdf="http://www.w3.org/1999/02/22-rdf-syntax-ns#"
   xmlns:svg="http://www.w3.org/2000/svg"
   xmlns="http://www.w3.org/2000/svg"
   xmlns:sodipodi="http://sodipodi.sourceforge.net/DTD/sodipodi-0.dtd"
   xmlns:inkscape="http://www.inkscape.org/namespaces/inkscape"
   width="128"
   height="128"
   viewBox="0 0 33.866666 33.866668"
   version="1.1"
   id="svg8"
   sodipodi:docname="firefox 3.svg"
   inkscape:version="0.92.2 5c3e80d, 2017-08-06">
  <defs
     id="defs2">
    <linearGradient
       id="linearGradient-5"
       y2="54.577919"
       x2="43.477051"
       y1="11.036161"
       x1="41.09383"
       gradientUnits="userSpaceOnUse"
       gradientTransform="matrix(0.44613573,0,0,0.44613573,-0.80056851,261.06871)">
      <stop
         id="stop1087"
         offset="0%"
         stop-color="#01A2FC"
         style="stop-color:#244b66;stop-opacity:1" />
      <stop
         id="stop1089"
         offset="100%"
         stop-color="#441A7E"
         style="stop-color:#142054;stop-opacity:1" />
    </linearGradient>
    <linearGradient
       gradientTransform="matrix(0.01166989,0,0,0.01166989,-18.383775,240.24421)"
       y2="1102.2933"
       x2="400.26022"
       y1="1515.3191"
       x1="822.35211"
       gradientUnits="userSpaceOnUse"
       id="e">
      <stop
         id="stop5074"
         stop-color="#ffa726"
         offset="0"
         style="stop-color:#fe9000;stop-opacity:1" />
      <stop
         id="stop5076"
         stop-color="#ffb74d"
         offset="1"
         style="stop-color:#fe9000;stop-opacity:1" />
    </linearGradient>
    <linearGradient
       gradientTransform="matrix(0.01166989,0,0,0.01166989,-18.383775,240.24421)"
       y2="696.90936"
       x2="805.38403"
       y1="1087.9427"
       x1="622.75708"
       gradientUnits="userSpaceOnUse"
       id="f">
      <stop
         id="stop5079"
         stop-color="#ff7043"
         offset="0"
         style="stop-color:#ff6012;stop-opacity:1" />
      <stop
         id="stop5081"
         stop-color="#ff8a65"
         offset="1"
         style="stop-color:#fe701c;stop-opacity:1" />
    </linearGradient>
    <linearGradient
       gradientTransform="matrix(0.04410075,0,0,0.04410075,-18.383775,249.72617)"
       y2="305.355"
       x2="-470.68"
       y1="297"
       x1="-465.667"
       gradientUnits="userSpaceOnUse"
       id="g">
      <stop
         id="stop5084"
         stop-color="#ffca28"
         offset="0" />
      <stop
         id="stop5086"
         stop-color="#ffd54f"
         offset="1" />
    </linearGradient>
    <linearGradient
       gradientTransform="matrix(0.04410075,0,0,0.04410075,-18.383775,249.72617)"
       y2="-20.549307"
       x2="289.53989"
       y1="82.593384"
       x1="318.06876"
       gradientUnits="userSpaceOnUse"
       id="h">
      <stop
         id="stop5089"
         stop-color="#ff8a65"
         offset="0"
         style="stop-color:#fe8700;stop-opacity:1" />
      <stop
         id="stop5091"
         stop-color="#ffab91"
         offset="1"
         style="stop-color:#ff9500;stop-opacity:1" />
    </linearGradient>
    <linearGradient
       gradientTransform="matrix(0.01166989,0,0,0.01166989,-18.383775,240.24421)"
       y2="360.11673"
       x2="1389.1018"
       y1="623.07404"
       x1="1242.0515"
       gradientUnits="userSpaceOnUse"
       id="i">
      <stop
         id="stop5094"
         stop-color="#ff7043"
         offset="0"
         style="stop-color:#fe4a05;stop-opacity:1" />
      <stop
         id="stop5096"
         stop-color="#ff8a65"
         offset="1"
         style="stop-color:#fe701c;stop-opacity:1" />
    </linearGradient>
    <linearGradient
       gradientTransform="matrix(0.01166989,0,0,0.01166989,-18.383775,240.24421)"
       y2="363.13385"
       x2="530.65979"
       y1="617.79663"
       x1="677.68939"
       gradientUnits="userSpaceOnUse"
       id="j">
      <stop
         id="stop5099"
         stop-color="#ec407a"
         offset="0"
         style="stop-color:#df0992;stop-opacity:1" />
      <stop
         id="stop5101"
         stop-color="#f06292"
         offset="1"
         style="stop-color:#fb0f4f;stop-opacity:1" />
    </linearGradient>
  </defs>
  <sodipodi:namedview
     id="base"
     pagecolor="#ffffff"
     bordercolor="#666666"
     borderopacity="1.0"
     inkscape:pageopacity="0.0"
     inkscape:pageshadow="2"
     inkscape:zoom="0.59745"
     inkscape:cx="-335.94785"
     inkscape:cy="-13.9797"
     inkscape:document-units="mm"
     inkscape:current-layer="layer1"
     showgrid="false"
     inkscape:window-width="1600"
     inkscape:window-height="803"
     inkscape:window-x="0"
     inkscape:window-y="0"
     inkscape:window-maximized="1"
     units="px" />
  <metadata
     id="metadata5">
    <rdf:RDF>
      <cc:Work
         rdf:about="">
        <dc:format>image/svg+xml</dc:format>
        <dc:type
           rdf:resource="http://purl.org/dc/dcmitype/StillImage" />
        <dc:title />
      </cc:Work>
    </rdf:RDF>
  </metadata>
  <g
     inkscape:label="Layer 1"
     inkscape:groupmode="layer"
     id="layer1"
     transform="translate(0,-263.13332)">
    <circle
       r="15.61475"
       cy="280.3269"
       cx="16.933332"
       id="circle2920"
       style="opacity:0.25;fill:#000000;fill-rule:evenodd;stroke:none;stroke-width:0.44613567" />
    <circle
       style="fill:url(#linearGradient-5);fill-rule:evenodd;stroke:none;stroke-width:0.44613567"
       id="Oval-2"
       cx="16.933332"
       cy="279.8064"
       r="15.61475" />
    <g
       id="g5216"
       transform="matrix(1.1810306,0,0,1.1810306,25.415441,-17.128354)">
      <path
         style="opacity:0.25;fill:#000000;stroke-width:0.35277778"
         inkscape:connector-curvature="0"
         d="m -7.1816692,246.78471 c -0.09525,0 -0.188736,0.0286 -0.265995,0.0822 l -8.4017548,5.83495 a 0.46672502,0.46672502 0 0 0 -0.03316,0.74118 l 8.4017548,7.00194 c 0.08678,0.0716 0.19297,0.10724 0.299156,0.10724 z m 0,0"
         id="path5204" />
      <path
         style="opacity:0.25;fill:#000000;stroke-width:0.35277778"
         inkscape:connector-curvature="0"
         d="m -7.1816692,246.78471 c 0.09525,0 0.187325,0.0286 0.265994,0.0822 l 8.400345,5.83495 c 0.2539997,0.17638 0.2702277,0.54398 0.03316,0.74118 l -8.401756,7.00194 a 0.46249168,0.46249168 0 0 1 -0.297744,0.10724 z m 0,0"
         id="path5206" />
      <path
         id="path5116"
         d="m -7.1816692,246.25554 c -0.09525,0 -0.188736,0.0286 -0.265995,0.0822 l -8.4017548,5.83495 a 0.46672502,0.46672502 0 0 0 -0.03316,0.74118 l 8.4017548,7.00194 c 0.08678,0.0716 0.19297,0.10724 0.299156,0.10724 z m 0,0"
         inkscape:connector-curvature="0"
         style="fill:url(#e);stroke-width:0.35277778" />
      <path
         id="path5118"
         d="m -13.018025,242.28785 a 0.46672502,0.46672502 0 0 0 -0.463903,0.46567 v 9.80193 c 0,0.2413 0.183445,0.44238 0.422981,0.46461 2.842683,0.23565 5.8772778,3.27025 5.8772778,6.07025 V 246.15747 L -12.7545,242.36899 a 0.46037502,0.46037502 0 0 0 -0.263172,-0.0811 z m 0,0"
         inkscape:connector-curvature="0"
         style="fill:url(#f);stroke-width:0.35277778" />
      <path
         id="path5120"
         d="m -7.1816692,246.25554 c 0.09525,0 0.187325,0.0286 0.265994,0.0822 l 8.400345,5.83495 c 0.2539997,0.17638 0.2702277,0.54398 0.03316,0.74118 l -8.401756,7.00194 a 0.46249168,0.46249168 0 0 1 -0.297744,0.10724 z m 0,0"
         inkscape:connector-curvature="0"
         style="fill:url(#g);stroke-width:0.35277778" />
      <path
         id="path5122"
         d="m -1.3470772,242.28785 c 0.257528,0.001 0.46566597,0.20955 0.46566597,0.46567 v 9.80193 c 0,0.2413 -0.18344397,0.44238 -0.42439097,0.46461 -2.842684,0.23565 -5.875867,3.27025 -5.875867,6.07025 v -12.93284 l 5.57142,-3.78848 c 0.07867,-0.0536 0.169333,-0.0811 0.263172,-0.0811 z m 0,0"
         inkscape:connector-curvature="0"
         style="fill:url(#h);stroke-width:0.35277778" />
      <path
         id="path5124"
         d="m -1.3470772,242.28785 c -0.09384,0 -0.184503,0.0275 -0.263172,0.0811 l -5.57142,3.78848 v 0.0977 c 0.09525,0 0.187325,0.0289 0.265994,0.0826 l 6.03426397,4.19206 v -7.77628 c 0,-0.25612 -0.20813797,-0.46426 -0.46566597,-0.46567 z m 0,0"
         inkscape:connector-curvature="0"
         style="fill:url(#i);stroke-width:0.35277778" />
      <path
         id="path5126"
         d="m -13.018025,242.28785 a 0.46672502,0.46672502 0 0 0 -0.463903,0.46567 v 7.77628 l 6.0342638,-4.19206 c 0.07726,-0.0536 0.170745,-0.0826 0.265995,-0.0826 v -0.0977 L -12.7545,242.36896 a 0.46037502,0.46037502 0 0 0 -0.263172,-0.0811 z m 0,0"
         inkscape:connector-curvature="0"
         style="fill:url(#j);stroke-width:0.35277778" />
    </g>
  </g>
</svg>
