<?xml version="1.0" encoding="UTF-8" standalone="no"?>
<svg
   xmlns:dc="http://purl.org/dc/elements/1.1/"
   xmlns:cc="http://creativecommons.org/ns#"
   xmlns:rdf="http://www.w3.org/1999/02/22-rdf-syntax-ns#"
   xmlns:svg="http://www.w3.org/2000/svg"
   xmlns="http://www.w3.org/2000/svg"
   xmlns:xlink="http://www.w3.org/1999/xlink"
   xmlns:sodipodi="http://sodipodi.sourceforge.net/DTD/sodipodi-0.dtd"
   xmlns:inkscape="http://www.inkscape.org/namespaces/inkscape"
   viewBox="0 0 128 128"
   version="1.1"
   id="svg657"
   sodipodi:docname="firefox-developer-icon-old.svg"
   width="128"
   height="128"
   inkscape:version="0.92.3 (2405546, 2018-03-11)">
  <metadata
     id="metadata661">
    <rdf:RDF>
      <cc:Work
         rdf:about="">
        <dc:format>image/svg+xml</dc:format>
        <dc:type
           rdf:resource="http://purl.org/dc/dcmitype/StillImage" />
        <dc:title>firefox-logo-developer-edition</dc:title>
      </cc:Work>
    </rdf:RDF>
  </metadata>
  <sodipodi:namedview
     pagecolor="#ffffff"
     bordercolor="#666666"
     borderopacity="1"
     objecttolerance="10"
     gridtolerance="10"
     guidetolerance="10"
     inkscape:pageopacity="0"
     inkscape:pageshadow="2"
     inkscape:window-width="1529"
     inkscape:window-height="837"
     id="namedview659"
     showgrid="false"
     inkscape:zoom="0.95724835"
     inkscape:cx="249.89683"
     inkscape:cy="-4.316062"
     inkscape:window-x="71"
     inkscape:window-y="27"
     inkscape:window-maximized="1"
     inkscape:current-layer="svg657" />
  <defs
     id="defs203">
    <linearGradient
       inkscape:collect="always"
       id="linearGradient2655">
      <stop
         style="stop-color:#2257d7;stop-opacity:1"
         offset="0"
         id="stop2651" />
      <stop
         style="stop-color:#030f41;stop-opacity:1"
         offset="1"
         id="stop2653" />
    </linearGradient>
    <linearGradient
       id="linear-gradient"
       x1="-14371.64"
       y1="9293.5303"
       x2="-14108.4"
       y2="9293.5303"
       gradientTransform="matrix(0.76,0.03,0.05,-1.12,12460.122,11306.981)"
       gradientUnits="userSpaceOnUse">
      <stop
         offset="0"
         stop-color="#0083ff"
         id="stop2" />
      <stop
         offset="0.18"
         stop-color="#0096f6"
         id="stop4" />
      <stop
         offset="0.51"
         stop-color="#00b3e6"
         id="stop6" />
      <stop
         offset="0.79"
         stop-color="#00c6dd"
         id="stop8" />
      <stop
         offset="1"
         stop-color="#00ccda"
         id="stop10" />
    </linearGradient>
    <linearGradient
       id="linear-gradient-2"
       x1="-541.29999"
       y1="256.54001"
       x2="-732.72998"
       y2="882.77002"
       gradientTransform="matrix(1,0,0,-1,2319.9021,1106.2009)"
       gradientUnits="userSpaceOnUse">
      <stop
         offset="0"
         stop-color="#000f40"
         stop-opacity="0.6"
         id="stop13" />
      <stop
         offset="0.61"
         stop-color="#000f40"
         stop-opacity="0.18"
         id="stop15" />
      <stop
         offset="1"
         stop-color="#000f40"
         stop-opacity="0"
         id="stop17" />
    </linearGradient>
    <linearGradient
       id="linear-gradient-3"
       x1="540.64001"
       y1="256.54001"
       x2="349.20001"
       y2="882.77002"
       gradientTransform="matrix(1,0,0,-1,1237.9621,1106.2009)"
       gradientUnits="userSpaceOnUse">
      <stop
         offset="0"
         stop-color="#000f43"
         stop-opacity="0.4"
         id="stop20" />
      <stop
         offset="0.48"
         stop-color="#001962"
         stop-opacity="0.17"
         id="stop22" />
      <stop
         offset="1"
         stop-color="#002079"
         stop-opacity="0"
         id="stop24" />
    </linearGradient>
    <linearGradient
       id="linear-gradient-4"
       x1="-8570.46"
       y1="7439.0801"
       x2="-8685.71"
       y2="7447.98"
       gradientTransform="matrix(1.22,0.12,0.12,-1.22,11709.733,11020.211)"
       gradientUnits="userSpaceOnUse">
      <stop
         offset="0"
         stop-color="#002275"
         id="stop27" />
      <stop
         offset="1"
         stop-color="#005fe7"
         id="stop29" />
    </linearGradient>
    <linearGradient
       id="linear-gradient-5"
       x1="-8653.3203"
       y1="7586.8599"
       x2="-8545.3701"
       y2="7698.98"
       gradientTransform="matrix(1.22,0.12,0.12,-1.22,11710.225,11020.211)"
       gradientUnits="userSpaceOnUse">
      <stop
         offset="0.05"
         stop-color="#005fe7"
         id="stop32" />
      <stop
         offset="0.19"
         stop-color="#005ce1"
         id="stop34" />
      <stop
         offset="0.38"
         stop-color="#0052cf"
         id="stop36" />
      <stop
         offset="0.6"
         stop-color="#0043b2"
         id="stop38" />
      <stop
         offset="0.84"
         stop-color="#002d8a"
         id="stop40" />
      <stop
         offset="0.95"
         stop-color="#002275"
         id="stop42" />
    </linearGradient>
    <linearGradient
       id="linear-gradient-6"
       x1="-8856.7803"
       y1="7335.52"
       x2="-8625.9004"
       y2="7334.98"
       gradientTransform="matrix(1.22,0.12,0.12,-1.22,11709.436,11020.211)"
       gradientUnits="userSpaceOnUse">
      <stop
         offset="0"
         stop-color="#002079"
         id="stop45" />
      <stop
         offset="0.99"
         stop-color="#000f40"
         id="stop47" />
    </linearGradient>
    <radialGradient
       id="radial-gradient"
       cx="584.09998"
       cy="600.57001"
       fx="717.51404"
       fy="478.32767"
       r="751.57001"
       gradientTransform="matrix(1,0,0,-1,1231.8916,1106.2009)"
       gradientUnits="userSpaceOnUse">
      <stop
         offset="0.16"
         stop-color="#58c1ff"
         id="stop50" />
      <stop
         offset="0.24"
         stop-color="#4cb8ff"
         id="stop52" />
      <stop
         offset="0.39"
         stop-color="#2ea0ff"
         id="stop54" />
      <stop
         offset="0.54"
         stop-color="#0a84ff"
         id="stop56" />
      <stop
         offset="0.76"
         stop-color="#0060df"
         id="stop58" />
      <stop
         offset="0.8"
         stop-color="#0067de"
         id="stop60" />
      <stop
         offset="0.85"
         stop-color="#007bdd"
         id="stop62" />
      <stop
         offset="0.91"
         stop-color="#009cda"
         id="stop64" />
      <stop
         offset="0.98"
         stop-color="#00c8d7"
         id="stop66" />
    </radialGradient>
    <linearGradient
       id="linear-gradient-7"
       x1="-7658.5801"
       y1="9078.0898"
       x2="-7729.6099"
       y2="8279.7002"
       gradientTransform="matrix(1.23,0,0,-1.22,11433.802,11170.471)"
       gradientUnits="userSpaceOnUse">
      <stop
         offset="0"
         stop-color="#00feff"
         id="stop69" />
      <stop
         offset="0.3"
         stop-color="#04c9ff"
         id="stop71" />
      <stop
         offset="0.61"
         stop-color="#0897ff"
         id="stop73" />
      <stop
         offset="0.77"
         stop-color="#0a84ff"
         id="stop75" />
      <stop
         offset="0.79"
         stop-color="#0a84ff"
         stop-opacity="0.93"
         id="stop77" />
      <stop
         offset="0.84"
         stop-color="#0a84ff"
         stop-opacity="0.76"
         id="stop79" />
      <stop
         offset="0.9"
         stop-color="#0a84ff"
         stop-opacity="0.49"
         id="stop81" />
      <stop
         offset="0.98"
         stop-color="#0a84ff"
         stop-opacity="0.11"
         id="stop83" />
      <stop
         offset="1"
         stop-color="#0a84ff"
         stop-opacity="0"
         id="stop85" />
    </linearGradient>
    <linearGradient
       id="linear-gradient-8"
       x1="-9129.9902"
       y1="7770.7402"
       x2="-8993.5195"
       y2="7770.7402"
       gradientTransform="matrix(1.22,0.12,0.12,-1.22,11726.084,11020.211)"
       gradientUnits="userSpaceOnUse">
      <stop
         offset="0"
         stop-color="#003eaa"
         id="stop88" />
      <stop
         offset="0.3"
         stop-color="#0054c5"
         stop-opacity="0.68"
         id="stop90" />
      <stop
         offset="0.78"
         stop-color="#0076ef"
         stop-opacity="0.19"
         id="stop92" />
      <stop
         offset="1"
         stop-color="#0083ff"
         stop-opacity="0"
         id="stop94" />
    </linearGradient>
    <linearGradient
       id="linear-gradient-9"
       x1="553.41998"
       y1="650.09003"
       x2="358.39999"
       y2="653.09003"
       gradientTransform="matrix(1,0,0,-1,1231.8916,1106.2009)"
       gradientUnits="userSpaceOnUse">
      <stop
         offset="0"
         stop-color="#00feff"
         stop-opacity="0.25"
         id="stop97" />
      <stop
         offset="0.54"
         stop-color="#2ddfff"
         stop-opacity="0.12"
         id="stop99" />
      <stop
         offset="1"
         stop-color="#58c1ff"
         stop-opacity="0"
         id="stop101" />
    </linearGradient>
    <linearGradient
       id="linear-gradient-10"
       x1="208.63"
       y1="2142.48"
       x2="90.809998"
       y2="2394.3201"
       gradientTransform="matrix(0.99,0.1,0.1,-0.99,976.29155,2536.6809)"
       gradientUnits="userSpaceOnUse">
      <stop
         offset="0.19"
         stop-color="#002275"
         stop-opacity="0.7"
         id="stop104" />
      <stop
         offset="0.63"
         stop-color="#009dc2"
         stop-opacity="0.36"
         id="stop106" />
      <stop
         offset="0.94"
         stop-color="#00feff"
         stop-opacity="0.1"
         id="stop108" />
    </linearGradient>
    <linearGradient
       id="linear-gradient-11"
       x1="-43.75"
       y1="388.32001"
       x2="50.360001"
       y2="281.42999"
       gradientTransform="matrix(0.99,0.1,0.1,-0.99,1461.5021,976.26089)"
       gradientUnits="userSpaceOnUse">
      <stop
         offset="0"
         stop-color="#002275"
         stop-opacity="0.8"
         id="stop111" />
      <stop
         offset="0.07"
         stop-color="#002479"
         stop-opacity="0.74"
         id="stop113" />
      <stop
         offset="0.95"
         stop-color="#003eaa"
         stop-opacity="0"
         id="stop115" />
    </linearGradient>
    <linearGradient
       id="linear-gradient-12"
       x1="136.86"
       y1="206.19"
       x2="136.89999"
       y2="259.62"
       gradientTransform="matrix(0.99,0.1,0.1,-0.99,1470.6079,976.26089)"
       gradientUnits="userSpaceOnUse">
      <stop
         offset="0"
         stop-color="#002275"
         stop-opacity="0.6"
         id="stop118" />
      <stop
         offset="0.24"
         stop-color="#002275"
         stop-opacity="0.34"
         id="stop120" />
      <stop
         offset="0.49"
         stop-color="#002275"
         stop-opacity="0.15"
         id="stop122" />
      <stop
         offset="0.72"
         stop-color="#002275"
         stop-opacity="0.04"
         id="stop124" />
      <stop
         offset="0.93"
         stop-color="#002275"
         stop-opacity="0"
         id="stop126" />
    </linearGradient>
    <linearGradient
       id="linear-gradient-13"
       x1="569.33002"
       y1="1064.11"
       x2="877.67999"
       y2="374.60001"
       gradientTransform="matrix(1,0,0,-1,1231.8916,1106.2009)"
       gradientUnits="userSpaceOnUse">
      <stop
         offset="0"
         stop-color="#00feff"
         id="stop129" />
      <stop
         offset="0.28"
         stop-color="#03dfff"
         id="stop131" />
      <stop
         offset="0.9"
         stop-color="#0992ff"
         id="stop133" />
      <stop
         offset="1"
         stop-color="#0a84ff"
         id="stop135" />
    </linearGradient>
    <linearGradient
       id="linear-gradient-14"
       x1="680.88"
       y1="556.53998"
       x2="536.09998"
       y2="167.78999"
       gradientTransform="matrix(1,0,0,-1,1231.8916,1106.2009)"
       gradientUnits="userSpaceOnUse">
      <stop
         offset="0"
         stop-color="#0060df"
         id="stop138" />
      <stop
         offset="0.09"
         stop-color="#0067e5"
         stop-opacity="0.81"
         id="stop140" />
      <stop
         offset="0.21"
         stop-color="#006eec"
         stop-opacity="0.59"
         id="stop142" />
      <stop
         offset="0.33"
         stop-color="#0075f2"
         stop-opacity="0.41"
         id="stop144" />
      <stop
         offset="0.46"
         stop-color="#007af7"
         stop-opacity="0.26"
         id="stop146" />
      <stop
         offset="0.58"
         stop-color="#007efa"
         stop-opacity="0.15"
         id="stop148" />
      <stop
         offset="0.71"
         stop-color="#0081fd"
         stop-opacity="0.06"
         id="stop150" />
      <stop
         offset="0.85"
         stop-color="#0082fe"
         stop-opacity="0.02"
         id="stop152" />
      <stop
         offset="1"
         stop-color="#0083ff"
         stop-opacity="0"
         id="stop154" />
    </linearGradient>
    <linearGradient
       id="linear-gradient-15"
       x1="640"
       y1="1020.28"
       x2="747.98999"
       y2="109.82"
       gradientTransform="matrix(1,0,0,-1,1231.8916,1106.2009)"
       gradientUnits="userSpaceOnUse">
      <stop
         offset="0"
         stop-color="#75feff"
         id="stop157" />
      <stop
         offset="0.28"
         stop-color="#5adfff"
         id="stop159" />
      <stop
         offset="0.9"
         stop-color="#1692ff"
         id="stop161" />
      <stop
         offset="1"
         stop-color="#0a84ff"
         id="stop163" />
    </linearGradient>
    <linearGradient
       id="linear-gradient-16"
       x1="735.59003"
       y1="578.40997"
       x2="653.09998"
       y2="230.42999"
       gradientTransform="matrix(1,0,0,-1,0,986.01)"
       gradientUnits="userSpaceOnUse">
      <stop
         offset="0"
         stop-color="#9ee7ff"
         id="stop166" />
      <stop
         offset="0.14"
         stop-color="#8cdbff"
         stop-opacity="0.88"
         id="stop168" />
      <stop
         offset="0.46"
         stop-color="#5ebdff"
         stop-opacity="0.57"
         id="stop170" />
      <stop
         offset="0.92"
         stop-color="#168cff"
         stop-opacity="0.08"
         id="stop172" />
      <stop
         offset="1"
         stop-color="#0a84ff"
         stop-opacity="0"
         id="stop174" />
    </linearGradient>
    <linearGradient
       id="linear-gradient-17"
       x1="649"
       y1="1002.59"
       x2="724.57001"
       y2="429.48001"
       gradientTransform="matrix(1,0,0,-1,1231.8916,1106.2009)"
       gradientUnits="userSpaceOnUse">
      <stop
         offset="0"
         stop-color="#00feff"
         id="stop177" />
      <stop
         offset="0.14"
         stop-color="#0bf7ff"
         stop-opacity="0.88"
         id="stop179" />
      <stop
         offset="0.46"
         stop-color="#26e4ff"
         stop-opacity="0.57"
         id="stop181" />
      <stop
         offset="0.92"
         stop-color="#51c6ff"
         stop-opacity="0.08"
         id="stop183" />
      <stop
         offset="1"
         stop-color="#58c1ff"
         stop-opacity="0"
         id="stop185" />
    </linearGradient>
    <linearGradient
       id="linear-gradient-18"
       x1="662.79999"
       y1="968.07001"
       x2="1060.9399"
       y2="345.60001"
       gradientTransform="matrix(1,0,0,-1,0,986.01)"
       gradientUnits="userSpaceOnUse">
      <stop
         offset="0"
         stop-color="#00feff"
         id="stop188" />
      <stop
         offset="0.14"
         stop-color="#01efff"
         stop-opacity="0.88"
         id="stop190" />
      <stop
         offset="0.46"
         stop-color="#04caff"
         stop-opacity="0.57"
         id="stop192" />
      <stop
         offset="0.92"
         stop-color="#098eff"
         stop-opacity="0.08"
         id="stop194" />
      <stop
         offset="1"
         stop-color="#0a84ff"
         stop-opacity="0"
         id="stop196" />
    </linearGradient>
    <linearGradient
       id="linear-gradient-19"
       x1="754.44"
       y1="521.58002"
       x2="313.85999"
       y2="178"
       xlink:href="#linear-gradient-16"
       gradientTransform="translate(1231.8916,120.19089)" />
    <linearGradient
       id="linear-gradient-20"
       x1="358.66"
       y1="754.08002"
       x2="43.380001"
       y2="513.58002"
       xlink:href="#linear-gradient-18"
       gradientTransform="translate(1229.8103,120.19089)" />
    <linearGradient
       id="linear-gradient-21"
       x1="145.64999"
       y1="859.21002"
       x2="130.45"
       y2="726.90997"
       xlink:href="#linear-gradient-18"
       gradientTransform="translate(1231.8916,120.19089)" />
    <linearGradient
       id="linear-gradient-22"
       x1="292.53"
       y1="562.84003"
       x2="195.52"
       y2="368.82001"
       xlink:href="#linear-gradient-18"
       gradientTransform="translate(1231.8916,120.19089)" />
    <linearGradient
       inkscape:collect="always"
       xlink:href="#linear-gradient-16"
       id="linearGradient1468"
       gradientUnits="userSpaceOnUse"
       gradientTransform="matrix(1,0,0,-1,1231.8916,1106.2009)"
       x1="735.59003"
       y1="578.40997"
       x2="653.09998"
       y2="230.42999" />
    <linearGradient
       inkscape:collect="always"
       xlink:href="#linear-gradient-18"
       id="linearGradient1470"
       gradientUnits="userSpaceOnUse"
       gradientTransform="matrix(1,0,0,-1,1230.8834,1106.2009)"
       x1="662.79999"
       y1="968.07001"
       x2="1060.9399"
       y2="345.60001" />
    <radialGradient
       inkscape:collect="always"
       xlink:href="#linearGradient2655"
       id="radialGradient2657"
       cx="64.522324"
       cy="14.092676"
       fx="64.522324"
       fy="14.092676"
       r="59.191742"
       gradientUnits="userSpaceOnUse"
       gradientTransform="matrix(2.711846e-8,1.7737551,-0.95585109,1.4613748e-8,77.992822,-100.35412)" />
  </defs>
  <title
     id="title205">firefox-logo-developer-edition</title>
  <circle
     style="opacity:0.25;fill:#000000;fill-rule:evenodd;stroke:none;stroke-width:0.75332719;stroke-miterlimit:4;stroke-dasharray:none;stroke-opacity:1"
     id="circle3200"
     cx="63.999996"
     cy="65.184921"
     r="58.815079" />
  <circle
     r="58.815079"
     cy="63.191742"
     cx="63.999996"
     id="circle2150"
     style="fill:url(#radialGradient2657);fill-rule:evenodd;stroke:#192968;stroke-width:0.75332719;stroke-miterlimit:4;stroke-dasharray:none;stroke-opacity:1;fill-opacity:1" />
  <g
     id="g2749"
     transform="matrix(0.10294462,0,0,0.10294462,-111.99577,0.15527566)">
    <path
       inkscape:connector-curvature="0"
       id="path595"
       style="fill:url(#linear-gradient)"
       d="m 2002.1716,212.01089 c -23.95,27.88 -35.1,90.64 -10.82,154.26 24.28,63.62 61.5,49.8 84.7,114.67 30.62,85.6 16.37,200.59 16.37,200.59 0,0 36.82,106.6 62.47,-6.64 56.79,-212.7 -152.72,-410.5 -152.72,-462.88 z" />
    <path
       inkscape:connector-curvature="0"
       id="path597"
       style="fill:url(#linear-gradient-2)"
       d="m 2048.6321,924.08089 a 245.54,245.54 0 0 1 -30.12,18.18 702.48,702.48 0 0 0 38.3,-63 c 9.46,-10.47 18.15,-20.65 25.15,-31.65 3.44,-5.41 7.31,-12.08 11.42,-19.82 24.92,-44.9 52.4,-117.56 53.18,-192.2 v -5.69 a 257.57,257.57 0 0 0 -5.67,-55.71 c 0.2,1.43 0.38,2.86 0.56,4.29 -0.22,-1.1 -0.41,-2.21 -0.64,-3.31 0.37,2 0.66,4 1,6 5.09,43.22 1.47,85.37 -16.68,116.45 -0.29,0.45 -0.58,0.88 -0.87,1.32 9.41,-47.23 12.56,-99.39 2.09,-151.6 0,0 -4.19,-25.38 -35.38,-102.44 -18.01,-44.35 -49.83,-80.71 -78.01,-107.21 -24.69,-30.55 -47.11,-51 -59.47,-64.06 -25.82,-27.19 -36.64,-47.57 -41.09,-60.87 -3.85,-1.93 -53.14,-49.81 -57.05,-51.63 -21.51,33.35 -89.16,137.67 -57,235.15 14.58,44.17 51.47,90 90.07,115.74 1.69,1.94 23,25 33.09,77.16 10.45,53.85 5,95.86 -16.54,158 -25.28,54.51 -90.01,108.39 -150.71,113.9 -129.67,11.78 -177.15,-65.11 -177.15,-65.11 46.34,18.52 97.57,14.65 128.72,-4.56 31.4,-19.43 50.39,-33.83 65.81,-28.15 15.2,5.65 27.3,-10.76 16.44,-27.77 a 78.52,78.52 0 0 0 -79.4,-34.57 c -31.43,5.11 -60.23,30 -101.41,5.89 a 82.13,82.13 0 0 1 -7.73,-5.06 c -2.71,-1.79 8.83,2.72 6.13,0.69 -8,-4.35 -22.2,-13.84 -25.88,-17.22 -0.61,-0.56 6.22,2.18 5.61,1.62 -38.51,-31.71 -33.7,-53.13 -32.49,-66.57 1,-10.75 8,-24.52 19.75,-30.11 5.69,3.11 9.24,5.48 9.24,5.48 0,0 -2.43,-5 -3.74,-7.58 0.46,-0.2 0.9,-0.15 1.36,-0.34 4.66,2.25 15,8.1 20.41,11.67 7.07,5 9.33,9.44 9.33,9.44 0,0 1.86,-1 0.48,-5.37 -0.5,-1.78 -2.65,-7.45 -9.65,-13.17 h 0.44 a 81.61,81.61 0 0 1 11.87,8.24 c 2,-7.18 5.53,-14.68 4.75,-28.09 -0.48,-9.43 -0.26,-11.87 -1.92,-15.51 -1.49,-3.13 0.83,-4.35 3.42,-1.1 a 32.65,32.65 0 0 0 -2.21,-7.4 v -0.24 c 3.23,-11.24 68.25,-40.46 73,-43.88 a 67.2,67.2 0 0 0 19.13,-20.8 c 3.62,-5.76 6.34,-13.85 7,-26.11 0.36,-8.84 -3.76,-14.73 -69.51,-21.62 -18,-1.77 -28.53,-14.8 -34.53,-26.82 -1.09,-2.59 -2.21,-4.94 -3.33,-7.28 a 57.31,57.31 0 0 1 -2.56,-8.43 c 10.75,-30.87 28.81,-57 55.37,-76.7 1.45,-1.32 -5.78,0.34 -4.34,-1 1.69,-1.54 12.71,-6 14.79,-7 2.54,-1.2 -10.88,-6.9 -22.73,-5.51 -12.07,1.36 -14.63,2.8 -21.07,5.53 2.67,-2.66 11.17,-6.15 9.18,-6.13 -13,2 -29.18,9.56 -43,18.12 a 10.66,10.66 0 0 1 0.83,-4.35 c -6.44,2.73 -22.26,13.79 -26.87,23.14 a 44.19,44.19 0 0 0 0.27,-5.4 84.57,84.57 0 0 0 -13.19,13.82 l -0.24,0.22 c -37.36,-15 -70.23,-16 -98.05,-9.28 -6.09,-6.11 -9.06,-1.64 -22.91,-32.07 -0.94,-1.83 0.72,1.81 0,0 -2.28,-5.9 1.39,7.87 0,0 -23.28,18.37 -53.92,39.19 -68.63,53.89 -0.18,0.59 17.16,-4.9 0,0 -6,1.72 -5.6,5.28 -6.51,37.5 -0.22,2.44 0,5.18 -0.22,7.38 -11.75,15 -19.75,27.64 -22.78,34.21 -15.19,26.18 -31.93,67 -48.15,131.55 a 334.2,334.2 0 0 1 25.77,-50.36 c -13.49,34.27 -26.53,88.08 -29.14,171 a 482.08,482.08 0 0 1 12.53,-50.66 473,473 0 0 0 34.74,201.04 c 9.33,22.82 24.76,57.46 51,95.4 82.53,86.84001 198.95,140.90001 327.85,140.90001 134.61,-0.03 255.46,-58.91 338.49,-152.41001 z" />
    <path
       inkscape:connector-curvature="0"
       id="path599"
       style="fill:url(#linear-gradient-3)"
       d="m 2048.6321,924.08089 a 245.54,245.54 0 0 1 -30.12,18.18 702.48,702.48 0 0 0 38.3,-63 c 9.46,-10.47 18.15,-20.65 25.15,-31.65 3.44,-5.41 7.31,-12.08 11.42,-19.82 24.92,-44.9 52.4,-117.56 53.18,-192.2 v -5.69 a 257.57,257.57 0 0 0 -5.67,-55.71 c 0.2,1.43 0.38,2.86 0.56,4.29 -0.22,-1.1 -0.41,-2.21 -0.64,-3.31 0.37,2 0.66,4 1,6 5.09,43.22 1.47,85.37 -16.68,116.45 -0.29,0.45 -0.58,0.88 -0.87,1.32 9.41,-47.23 12.56,-99.39 2.09,-151.6 0,0 -4.19,-25.38 -35.38,-102.44 -18.01,-44.35 -49.83,-80.71 -78.01,-107.21 -24.69,-30.55 -47.11,-51 -59.47,-64.06 -25.82,-27.19 -36.64,-47.57 -41.09,-60.87 -3.85,-1.93 -53.14,-49.81 -57.05,-51.63 -21.51,33.35 -89.16,137.67 -57,235.15 14.58,44.17 51.47,90 90.07,115.74 1.69,1.94 23,25 33.09,77.16 10.45,53.85 5,95.86 -16.54,158 -25.28,54.51 -90.01,108.39 -150.71,113.9 -129.67,11.78 -177.15,-65.11 -177.15,-65.11 46.34,18.52 97.57,14.65 128.72,-4.56 31.4,-19.43 50.39,-33.83 65.81,-28.15 15.2,5.65 27.3,-10.76 16.44,-27.77 a 78.52,78.52 0 0 0 -79.4,-34.57 c -31.43,5.11 -60.23,30 -101.41,5.89 a 82.13,82.13 0 0 1 -7.73,-5.06 c -2.71,-1.79 8.83,2.72 6.13,0.69 -8,-4.35 -22.2,-13.84 -25.88,-17.22 -0.61,-0.56 6.22,2.18 5.61,1.62 -38.51,-31.71 -33.7,-53.13 -32.49,-66.57 1,-10.75 8,-24.52 19.75,-30.11 5.69,3.11 9.24,5.48 9.24,5.48 0,0 -2.43,-5 -3.74,-7.58 0.46,-0.2 0.9,-0.15 1.36,-0.34 4.66,2.25 15,8.1 20.41,11.67 7.07,5 9.33,9.44 9.33,9.44 0,0 1.86,-1 0.48,-5.37 -0.5,-1.78 -2.65,-7.45 -9.65,-13.17 h 0.44 a 81.61,81.61 0 0 1 11.87,8.24 c 2,-7.18 5.53,-14.68 4.75,-28.09 -0.48,-9.43 -0.26,-11.87 -1.92,-15.51 -1.49,-3.13 0.83,-4.35 3.42,-1.1 a 32.65,32.65 0 0 0 -2.21,-7.4 v -0.24 c 3.23,-11.24 68.25,-40.46 73,-43.88 a 67.2,67.2 0 0 0 19.13,-20.8 c 3.62,-5.76 6.34,-13.85 7,-26.11 0.36,-8.84 -3.76,-14.73 -69.51,-21.62 -18,-1.77 -28.53,-14.8 -34.53,-26.82 -1.09,-2.59 -2.21,-4.94 -3.33,-7.28 a 57.31,57.31 0 0 1 -2.56,-8.43 c 10.75,-30.87 28.81,-57 55.37,-76.7 1.45,-1.32 -5.78,0.34 -4.34,-1 1.69,-1.54 12.71,-6 14.79,-7 2.54,-1.2 -10.88,-6.9 -22.73,-5.51 -12.07,1.36 -14.63,2.8 -21.07,5.53 2.67,-2.66 11.17,-6.15 9.18,-6.13 -13,2 -29.18,9.56 -43,18.12 a 10.66,10.66 0 0 1 0.83,-4.35 c -6.44,2.73 -22.26,13.79 -26.87,23.14 a 44.19,44.19 0 0 0 0.27,-5.4 84.57,84.57 0 0 0 -13.19,13.82 l -0.24,0.22 c -37.36,-15 -70.23,-16 -98.05,-9.28 -6.09,-6.11 -9.06,-1.64 -22.91,-32.07 -0.94,-1.83 0.72,1.81 0,0 -2.28,-5.9 1.39,7.87 0,0 -23.28,18.37 -53.92,39.19 -68.63,53.89 -0.18,0.59 17.16,-4.9 0,0 -6,1.72 -5.6,5.28 -6.51,37.5 -0.22,2.44 0,5.18 -0.22,7.38 -11.75,15 -19.75,27.64 -22.78,34.21 -15.19,26.18 -31.93,67 -48.15,131.55 a 334.2,334.2 0 0 1 25.77,-50.36 c -13.49,34.27 -26.53,88.08 -29.14,171 a 482.08,482.08 0 0 1 12.53,-50.66 473,473 0 0 0 34.74,201.04 c 9.33,22.82 24.76,57.46 51,95.4 82.53,86.84001 198.95,140.90001 327.85,140.90001 134.61,-0.03 255.46,-58.91 338.49,-152.41001 z" />
    <path
       inkscape:connector-curvature="0"
       id="path601"
       style="fill:url(#linear-gradient-4)"
       d="m 1942.8019,987.19089 c 162.9,-18.86 235,-186.7 142.38,-190 -83.63,-2.7 -219.48,198.87 -142.38,190 z" />
    <path
       inkscape:connector-curvature="0"
       id="path603"
       style="fill:url(#linear-gradient-5)"
       d="m 2097.4047,762.87089 c 112.05,-65.21 82.79,-206.08 82.79,-206.08 0,0 -43.25,50.24 -72.62,130.32 -28.98,79.3 -77.54,115.15 -10.17,75.76 z" />
    <path
       inkscape:connector-curvature="0"
       id="path605"
       style="fill:url(#linear-gradient-6)"
       d="m 1740.875,1070.5109 c 156.23,49.85 290.53,-73.22001 207.74,-114.32001 -75.21,-37.07 -281.89,90.75001 -207.74,114.32001 z" />
    <path
       inkscape:connector-curvature="0"
       id="path607"
       style="fill:url(#radial-gradient)"
       d="m 1870.4716,141.87089 0.53,-0.57 a 1.8,1.8 0 0 0 -0.53,0.57 z m 238.27,680.81 c 3.8,-5.36 8.94,-22.53 13.48,-30.21 27.58,-44.52 27.78,-80 27.78,-80.84 16.66,-83.22 15.15,-117.2 4.9,-180 -8.25,-50.6 -44.32,-123.09 -75.57,-158 -32.2,-36 -9.51,-24.25 -40.69,-50.52 -27.33,-30.29 -53.82,-60.29 -68.25,-72.36 -104.28,-87.21 -101.93,-105.72 -99.92,-108.88 -0.34,0.37 -0.84,0.92 -1.47,1.64 -1.23,-4.92 -2.11,-9.06 -2.11,-9.06 0,0 -57,57 -69,152 -7.83,62 15.38,126.68 49,168 a 381.17,381.17 0 0 0 59,58 v 0 c 25.4,36.48 39.38,81.49 39.38,129.91 0,121.24 -98.34,219.53 -219.65,219.53 a 220.14,220.14 0 0 1 -49.13,-5.52 c -57.24,-10.91 -90.29,-39.78 -106.77,-59.38 -9.45,-11.23 -13.46,-19.42 -13.46,-19.42 51.28,18.37 108,14.53 142.47,-4.52 34.75,-19.26 55.77,-33.55 72.84,-27.92 16.82,5.61 30.21,-10.67 18.2,-27.54 -11.77,-16.85 -42.4,-41 -87.88,-34.29 -34.79,5.07 -66.66,29.76 -112.24,5.84 a 92.59,92.59 0 0 1 -8.55,-5 c -3,-1.77 9.77,2.69 6.79,0.68 -8.87,-4.32 -24.57,-13.73 -28.64,-17.07 -0.68,-0.56 6.88,2.16 6.2,1.6 -42.62,-31.45 -37.3,-52.69 -36,-66 1.07,-10.66 8.81,-24.32 21.86,-29.86 6.3,3.08 10.23,5.43 10.23,5.43 0,0 -2.69,-4.92 -4.14,-7.51 0.51,-0.19 1,-0.15 1.5,-0.34 5.16,2.23 16.58,8 22.59,11.57 7.83,4.95 10.32,9.36 10.32,9.36 0,0 2.06,-1 0.54,-5.33 -0.56,-1.77 -2.93,-7.39 -10.68,-13.07 h 0.48 a 91.65,91.65 0 0 1 13.13,8.17 c 2.19,-7.12 6.12,-14.56 5.25,-27.86 -0.53,-9.35 -0.28,-11.78 -2.12,-15.39 -1.65,-3.1 0.92,-4.31 3.78,-1.09 a 29.87,29.87 0 0 0 -2.44,-7.34 v -0.24 c 3.57,-11.14 75.53,-40.12 80.77,-43.51 a 70.12,70.12 0 0 0 21.17,-20.63 c 4,-5.72 7,-13.73 7.75,-25.89 0.25,-5.48 -1.44,-9.82 -20.5,-14 -11.44,-2.49 -29.14,-4.91 -56.43,-7.47 -19.9,-1.76 -31.58,-14.68 -38.21,-26.6 -1.21,-2.57 -2.45,-4.9 -3.68,-7.22 a 53.41,53.41 0 0 1 -2.83,-8.34 158.47,158.47 0 0 1 61.28,-76.06 c 1.6,-1.31 -6.4,0.33 -4.8,-1 1.87,-1.52 14.06,-5.93 16.37,-6.92 2.81,-1.19 -12,-6.84 -25.16,-5.47 -13.36,1.35 -16.19,2.78 -23.32,5.49 3,-2.64 12.37,-6.1 10.16,-6.08 -14.4,2 -32.3,9.48 -47.6,18 a 9.75,9.75 0 0 1 0.92,-4.31 c -7.13,2.71 -24.64,13.67 -29.73,23 a 39.79,39.79 0 0 0 0.29,-5.35 89,89 0 0 0 -14.6,13.7 l -0.27,0.22 c -41.3,-14.95 -77.69,-15.91 -108.44,-9.2 -6.74,-6.06 -17.57,-15.23 -32.89,-45.4 -1,-1.82 -1.6,3.75 -2.4,2 -6,-13.81 -9.55,-36.44 -9,-52 0,0 -12.32,5.61 -22.51,29.06 -1.89,4.21 -3.11,6.54 -4.32,8.87 -0.56,0.68 1.27,-7.7 1,-7.24 -1.77,3 -6.36,7.19 -8.37,12.62 -1.38,4 -3.32,6.27 -4.56,11.29 l -0.29,0.46 c -0.1,-1.48 0.37,-6.08 0,-5.14 a 237,237 0 0 0 -12.31,29.84 c -5.49,18 -11.88,42.61 -12.89,74.57 -0.24,2.42 0,5.14 -0.25,7.32 -13.01,14.73 -21.87,27.27 -25.21,33.79 -16.82,25.94 -35.34,66.43 -53.29,130.46 a 319.8,319.8 0 0 1 28.54,-50 c -14.93,33.99 -29.36,87.36 -32.25,169.53 a 437.48,437.48 0 0 1 13.87,-50.24 c -2.58,54.8 3.81,122.74 38.45,199.39 20.57,45.09 67.92,136.65 183.62,208.10001 v 0 c 0,0 39.36,29.3 107,51.26 5,1.81 10.06,3.6 15.23,5.33 q -2.43,-1 -4.71,-2 a 484.42,484.42 0 0 0 138.8,20.4 c 175.18,0.15 226.85,-70.2 226.85,-70.2 l -0.51,0.38 q 3.71,-3.48 7.14,-7.26 c -27.63,26.12 -90.74,27.84 -114.29,26 40.22,-11.81 66.69,-21.81 118.17,-41.52 q 9,-3.36 18.48,-7.64 l 2,-0.94 c 1.25,-0.58 2.49,-1.13 3.75,-1.74 a 348.86,348.86 0 0 0 70.26,-44.00001 c 51.7,-41.3 63,-81.56 68.83,-108.1 -0.82,2.54 -3.37,8.47 -5.17,12.32 -13.31,28.48 -42.84,46 -74.91,61 a 689.46,689.46 0 0 0 42.44,-62.59 c 10.47,-10.35 13.7,-26.59 21.55,-37.51 z" />
    <path
       inkscape:connector-curvature="0"
       id="path609"
       style="fill:url(#linear-gradient-7)"
       d="m 2045.8116,921.43089 c 21.08,-23.24 40,-49.82 54.35,-80 36.9,-77.58 94,-206.58 49,-341.31 -35.5,-106.45 -84.27,-164.68 -146.16,-221.55 -100.55,-92.38 -128.63,-133.6 -128.63,-158.12 0,0 -116.09,129.41 -65.74,264.38 50.35,134.97 153.46,130 221.68,270.87 80.27,165.74 -64.95,346.61001 -185,397.24001 7.35,-1.63 267,-60.38001 280.61,-208.88001 -0.35,2.73 -6.2,43.8 -80.11,77.37 z" />
    <path
       inkscape:connector-curvature="0"
       id="path611"
       style="fill:url(#linear-gradient-8)"
       d="m 1725.6436,439.82089 c 0.39,-8.77 -4.16,-14.66 -76.68,-21.46 -29.84,-2.76 -41.26,-30.33 -44.75,-41.94 -10.61,27.56 -15,56.49 -12.64,91.48 1.61,22.92 17,47.52 24.37,62 0,0 1.64,-2.13 2.39,-2.91 13.86,-14.43 71.94,-36.42 77.39,-39.54 6.02,-3.84 28.91,-20.57 29.92,-47.63 z" />
    <path
       inkscape:connector-curvature="0"
       id="path613"
       style="fill:url(#linear-gradient-9)"
       d="m 1709.4816,439.82089 c 0.39,-8.77 -4.16,-14.66 -76.68,-21.46 -29.84,-2.76 -41.26,-30.33 -44.75,-41.94 -10.61,27.56 -15,56.49 -12.64,91.48 1.61,22.92 17,47.52 24.37,62 0,0 1.64,-2.13 2.39,-2.91 13.86,-14.43 71.94,-36.42 77.39,-39.54 6.02,-3.84 28.91,-20.57 29.92,-47.63 z" />
    <path
       inkscape:connector-curvature="0"
       id="path615"
       style="fill:url(#linear-gradient-10)"
       d="m 1390.2016,276.92089 c -1,-1.82 -1.6,3.75 -2.4,2 -6,-13.81 -9.58,-36.2 -8.72,-52 0,0 -12.32,5.61 -22.51,29.06 -1.89,4.21 -3.11,6.54 -4.32,8.86 -0.56,0.68 1.27,-7.7 1,-7.24 -1.77,3 -6.36,7.19 -8.35,12.38 -1.65,4.24 -3.35,6.52 -4.61,11.77 -0.39,1.43 0.39,-6.32 0,-5.38 -23.68,45.76 -28.21,115.05 -25.71,112.12 50.48,-53.9 108.31,-66.68 108.31,-66.68 -6.15,-4.53 -19.53,-17.63 -32.7,-44.89 z" />
    <path
       inkscape:connector-curvature="0"
       id="path617"
       style="fill:url(#linear-gradient-11)"
       d="m 1587.8021,840.55089 c -69.72,-29.77 -149,-71.75 -146,-167.14 4.08,-125.62 117.16,-100.79 117.16,-100.79 -4.27,1 -15.68,9.16 -19.72,17.82 -4.27,10.83 -12.07,35.28 11.55,60.9 37.09,40.19 -76.2,95.36 98.66,199.57 4.41,2.4 -41,-1.43 -61.64,-10.36 z" />
    <path
       inkscape:connector-curvature="0"
       id="path619"
       style="fill:url(#linear-gradient-12)"
       d="m 1572.1379,777.95089 c 49.44,17.21 107,14.19 141.52,-4.86 23.09,-12.85 52.7,-33.43 70.92,-28.35 -15.78,-6.24 -27.73,-9.15 -42.1,-9.86 -2.45,0 -5.38,-0.05 -8,-0.32 a 138.21,138.21 0 0 0 -15.76,0.86 c -8.9,0.82 -18.77,6.43 -27.74,5.53 -0.48,0 8.7,-3.77 8,-3.61 -4.75,1 -9.92,1.21 -15.37,1.88 -3.47,0.39 -6.45,0.82 -9.89,1 -103,8.73 -190,-55.81 -190,-55.81 -7.41,25 33.17,74.3 88.52,93.57 z" />
    <path
       inkscape:connector-curvature="0"
       id="path621"
       style="fill:url(#linear-gradient-13)"
       d="m 2045.6316,922.09089 c 104.16,-102.27 156.86,-226.58 134.58,-366 0,0 8.9,71.5 -24.85,144.63 16.21,-71.39 18.1,-160.11 -25,-252 -57.47,-122.64 -152.02,-187.16 -188.12,-214.08 -54.69,-40.79 -77.35,-82.32 -77.78,-90.9 -16.34,33.48 -65.77,148.2 -5.31,247 56.64,92.56 145.86,120 208.33,205 115.08,156.37 -21.85,326.35 -21.85,326.35 z" />
    <path
       inkscape:connector-curvature="0"
       id="path623"
       style="fill:url(#linear-gradient-14)"
       d="m 2030.7016,656.00089 c -36.4,-75.2 -81.84,-108 -124.81,-143.55 5,7 6.23,9.47 9,14 37.83,40.32 93.61,138.66 53.11,262.11 -76.23,232.37001 -381.11,122.94 -413.11,92.21 12.93,134.49001 238,198.84001 384.6,111.63 83.4,-78.95 150.87,-213.21 91.21,-336.4 z" />
    <path
       inkscape:connector-curvature="0"
       id="path625"
       style="fill:url(#linear-gradient-15)"
       d="m 2046.0116,806.83089 0.94,-4.85 c 0.32,-1.75 0.75,-3.6 1,-5.61 0.61,-4 1.38,-8.47 1.87,-13.43 a 237.9,237.9 0 0 0 1.48,-35 223.29,223.29 0 0 0 -5.81,-43.75 232.05,232.05 0 0 0 -17.42,-48.75 336.56,336.56 0 0 0 -29.59,-49.81 c -5.8,-8.24 -12.31,-16.18 -19.09,-24.06 -6.78,-7.88 -14.23,-15.38 -21.92,-22.79 -7.69,-7.41 -15.83,-14.59 -24.14,-21.59 -8.31,-7 -16.85,-14 -25.36,-21 -8.51,-7 -17,-14.14 -25.3,-21.61 -8.3,-7.47 -16.23,-15.28 -23.73,-23.51 a 243.77,243.77 0 0 1 -20.75,-26 l -2.3,-3.42 c -0.79,-1.13 -1.57,-2.27 -2.28,-3.45 l -4.37,-7 c -1.44,-2.34 -2.72,-4.77 -4.08,-7.14 l -2,-3.57 c -0.66,-1.2 -1.24,-2.43 -1.86,-3.64 l -3.67,-7.29 c -1.14,-2.46 -2.22,-4.94 -3.34,-7.4 -2.31,-4.88 -4.12,-9.94 -6.13,-14.88 l -0.74,-1.86 -0.64,-1.9 -1.27,-3.79 c -0.83,-2.52 -1.71,-5 -2.49,-7.54 l -2,-7.63 -1,-3.8 c -0.36,-1.26 -0.53,-2.55 -0.8,-3.82 a 212.28,212.28 0 0 1 -3.8,-59.83 261.53,261.53 0 0 1 10.19,-53.46 310.75,310.75 0 0 1 17,-44.06 373.62,373.62 0 0 1 18.17,-33.81 366.73,366.73 0 0 1 24.69,-36 c 2.56,-3.27 5.11,-6.43 7.66,-9.35 a 1,1 0 0 1 1.31,0 1,1 0 0 1 0.17,1.29 c -2.42,2.81 -5,6 -7.55,9.3 a 376,376 0 0 0 -43,70.76 309.24,309.24 0 0 0 -16.54,43.94 256.66,256.66 0 0 0 -9.66,53 213.15,213.15 0 0 0 4.27,58.87 c 0.13,0.63 0.24,1.26 0.38,1.88 l 0.49,1.86 1,3.73 c 0.68,2.48 1.28,5 2,7.48 l 2.49,7.4 1.25,3.72 c 0.41,1.24 1,2.45 1.42,3.67 l 2.94,7.35 0.74,1.84 0.82,1.81 1.64,3.63 1.64,3.64 c 0.55,1.21 1.08,2.44 1.7,3.62 l 3.63,7.16 a 247.86,247.86 0 0 0 37.41,53.14 c 7.43,8.06 15.32,15.72 23.5,23.07 8.18,7.35 16.66,14.36 25.13,21.33 8.47,6.97 17,13.82 25.32,20.84 8.32,7.02 16.44,14.16 24.23,21.51 7.79,7.35 15.15,15 22.09,22.84 a 287.17,287.17 0 0 1 19.3,24.16 341.24,341.24 0 0 1 30,50.05 l 0.79,1.55 0.72,1.58 1.44,3.14 c 0.94,2.09 1.93,4.15 2.81,6.23 l 2.51,6.25 1.17,3.12 c 0.39,1 0.73,2.08 1.1,3.12 l 2.15,6.17 c 0.37,1 0.68,2 1,3.07 l 0.91,3.07 c 0.59,2 1.23,4 1.77,6.06 l 1.48,6 a 227.32,227.32 0 0 1 6.11,44.51 241.84,241.84 0 0 1 -1.32,35.8 c -1.06,10.17 -2.69,18.44 -3.92,24.66 a 282.32,282.32 0 0 1 -9.88,35.23 298.31,298.31 0 0 1 -12.74,30.91 c -4.59,9.51 -9.21,18.33 -14,26.26 l -1.73,3 -1.73,2.86 -3.45,5.54 c -2.34,3.55 -4.57,7 -6.77,10.15 -4.42,6.36 -8.57,12 -12.3,16.73 l -5.27,6.59 -4.57,5.37 -2,2.26 -1.76,1.93 q -1.64,1.8 -2.79,3 c -1.52,1.59 -2.37,2.37 -2.47,2.28 -0.1,-0.09 0.57,-1.07 1.94,-2.88 1.37,-1.81 3.49,-4.39 6.08,-7.84 5.29,-6.85 12.79,-16.85 21.36,-29.85 2.08,-3.28 4.3,-6.7 6.51,-10.34 2.21,-3.64 4.5,-7.43 6.7,-11.46 q 6.82,-12 13.38,-26.17 c 1.06,-2.37 2.2,-4.74 3.23,-7.2 l 3.12,-7.46 c 2,-5.08 4,-10.27 5.8,-15.67 a 292.34,292.34 0 0 0 9.38,-34.06 z" />
    <path
       inkscape:connector-curvature="0"
       id="path627"
       style="fill:url(#linearGradient1468)"
       d="m 1971.2516,770.19089 c 0.52,-2.06 1.32,-4.8 2,-8.22 0.68,-3.42 1.74,-7.41 2.49,-12 0.4,-2.29 0.87,-4.71 1.29,-7.26 l 1.11,-8 0.29,-2.11 0.22,-2.16 0.44,-4.45 c 0.14,-1.51 0.32,-3 0.43,-4.59 l 0.28,-4.75 a 262.14,262.14 0 0 0 -0.93,-41.93 l -0.27,-2.79 -0.37,-2.79 -0.75,-5.61 c -0.23,-1.88 -0.61,-3.74 -0.92,-5.63 -0.31,-1.89 -0.61,-3.77 -1,-5.65 l -1.17,-5.64 c -0.2,-0.94 -0.38,-1.89 -0.6,-2.82 l -0.68,-2.81 -1.37,-5.61 -1.55,-5.56 a 272.56,272.56 0 0 0 -15.87,-42.08 267.22,267.22 0 0 0 -19.66,-34.4 c -3.27,-4.92 -6.59,-9.3 -9.61,-13.26 -3.02,-3.96 -6,-7.34 -8.54,-10.2 l -1.86,-2.06 -0.45,-0.5 a 1.5,1.5 0 0 1 -0.3,-0.4 l -0.18,-0.29 -0.64,-1.08 -2.19,-3.78 c -1.32,-2.18 -2.34,-3.71 -2.92,-4.59 -0.8,-1.19 -1.6,-2.35 -2.36,-3.45 a 1,1 0 0 1 0.3,-1.27 0.94,0.94 0 0 1 1.3,0.14 c 0.77,1.07 1.59,2.24 2.43,3.46 0.65,1 1.75,2.59 3.14,4.85 l 2.31,3.82 0.64,1 a 0.24,0.24 0 0 0 0.09,0.11 l 0.22,0.24 0.46,0.5 1.92,2.1 a 222.87,222.87 0 0 1 18.55,23.67 269.68,269.68 0 0 1 20,34.53 274,274 0 0 1 16.24,42.32 l 1.6,5.59 1.42,5.64 0.71,2.82 0.62,2.84 1.22,5.67 c 0.39,1.89 0.69,3.79 1,5.68 0.31,1.89 0.72,3.77 1,5.66 l 0.8,5.65 0.39,2.81 0.29,2.81 a 264.72,264.72 0 0 1 1.26,42.32 258,258 0 0 1 -3.87,33.84 c -0.76,4.67 -1.76,8.67 -2.47,12.2 -0.71,3.53 -1.51,6.33 -2.06,8.47 l -1.66,6.3 -1.86,6 -1.8,5.72 c -0.63,1.85 -1.27,3.64 -1.9,5.38 -2.54,6.94 -5.14,13 -7.49,17.84 -4.71,9.79 -8.32,15.14 -8.77,14.89 -0.45,-0.25 2.33,-6.26 6.35,-16.34 2,-5 4.28,-11.11 6.57,-18 0.57,-1.72 1.15,-3.49 1.71,-5.31 l 1.66,-5.6 1.74,-5.82 z" />
    <path
       inkscape:connector-curvature="0"
       id="path629"
       style="fill:url(#linear-gradient-17)"
       d="m 1948.7816,488.88089 c -2.35,-1.89 -5.54,-4.37 -9.35,-7.54 l -6.23,-5.15 c -2.24,-1.86 -4.58,-3.92 -7.09,-6.07 a 404.29,404.29 0 0 1 -34.4,-33.24 292.74,292.74 0 0 1 -35.56,-48 c -1.31,-2.31 -2.66,-4.62 -4,-7 l -3.62,-7.22 -0.91,-1.81 c -0.29,-0.61 -0.55,-1.24 -0.82,-1.86 l -1.63,-3.74 -1.63,-3.75 c -0.51,-1.26 -1,-2.55 -1.45,-3.83 l -1.44,-3.84 c -0.49,-1.28 -1,-2.56 -1.36,-3.88 l -2.4,-7.76 -2.1,-8 c -0.37,-1.32 -0.66,-2.66 -0.94,-4 l -0.85,-4 a 223.53,223.53 0 0 1 -4.1,-32.31 249.74,249.74 0 0 1 0.42,-31.43 279.77,279.77 0 0 1 3.68,-29.26 c 1.69,-9.27 3.71,-18 5.86,-26.11 a 361.71,361.71 0 0 1 13.28,-39.89 c 4.07,-10.17 7.26,-17 8.51,-19.69 0.86,-1.85 1.72,-3.65 2.56,-5.35 a 1,1 0 0 1 1.25,-0.35 1,1 0 0 1 0.51,1.2 c -0.79,1.65 -1.65,3.47 -2.51,5.34 -1.35,2.85 -4.57,9.85 -8.57,20.09 a 363.43,363.43 0 0 0 -13,39.91 298,298 0 0 0 -9,54.85 250.51,250.51 0 0 0 -0.18,31 222.27,222.27 0 0 0 4.27,31.68 l 0.86,3.94 0.43,2 0.52,1.95 2.11,7.79 2.48,7.67 c 0.38,1.29 0.88,2.53 1.36,3.79 l 1.43,3.75 c 0.49,1.25 0.93,2.51 1.45,3.74 l 1.62,3.66 1.61,3.65 c 0.27,0.6 0.52,1.22 0.82,1.81 l 0.9,1.77 3.58,7 3.91,6.79 a 290.31,290.31 0 0 0 35.21,47 402,402 0 0 0 34.17,32.77 c 2.51,2.13 4.85,4.18 7.09,6 l 6.26,5.13 c 3.82,3.17 7.07,5.68 9.47,7.62 l 26.81,21.21 c 8.08,6.44 15.15,12.25 20.91,17.2 l 7.67,6.72 c 2.2,2 4,3.78 5.55,5.22 3,2.89 4.51,4.56 4.33,4.76 -0.18,0.2 -2.1,-1.14 -5.47,-3.73 l -14.17,-11.06 -21.46,-16.5 c -8.19,-6.24 -17.22,-13.12 -26.65,-20.64 z" />
    <path
       inkscape:connector-curvature="0"
       id="path631"
       style="fill:url(#linearGradient1470)"
       d="m 2156.6134,521.91089 c -0.5,-1.87 -1,-4.07 -1.73,-6.54 -0.73,-2.47 -1.49,-5.25 -2.42,-8.28 l -1.51,-4.73 c -0.52,-1.65 -1.07,-3.36 -1.71,-5.1 l -4,-11.24 -2.17,-6.14 -2.5,-6.4 -2.62,-6.71 c -0.92,-2.28 -1.75,-4.64 -2.8,-7 l -6.27,-14.58 c -2.29,-5 -4.76,-10.1 -7.25,-15.38 l -0.94,-2 -1,-2 -2.06,-4 -4.19,-8.06 c -0.69,-1.37 -1.45,-2.71 -2.22,-4.05 l -2.34,-4 -4.68,-8.24 -5.08,-8.21 -2.57,-4.15 c -0.43,-0.69 -0.85,-1.4 -1.3,-2.08 l -1.38,-2 c -3.7,-5.45 -7.31,-11.08 -11.36,-16.47 -2,-2.72 -4,-5.49 -6,-8.21 l -6.3,-8.15 c -1.06,-1.35 -2.1,-2.72 -3.19,-4.05 l -3.32,-4 -6.69,-8 -7,-7.79 c -1.17,-1.29 -2.3,-2.62 -3.5,-3.88 l -3.59,-3.8 c -2.4,-2.53 -4.77,-5.09 -7.2,-7.59 l -7.37,-7.42 c -2.43,-2.49 -4.95,-4.89 -7.45,-7.3 -2.5,-2.41 -5,-4.83 -7.5,-7.19 l -15.09,-14 c -10,-9.2 -19.77,-18.32 -29.12,-27.29 -18.7,-17.93 -35.79,-35.19 -50,-51 -14.21,-15.81 -25.56,-30.19 -32.86,-42 a 104.24,104.24 0 0 1 -8,-15.28 54.94,54.94 0 0 1 -3,-9.2 36.36,36.36 0 0 1 -1,-7.28 1,1 0 0 0 -1,-0.84 0.91,0.91 0 0 0 -1,0.85 v 0.06 a 37.31,37.31 0 0 0 1,7.67 57.38,57.38 0 0 0 3.22,9.94 107.1,107.1 0 0 0 8.33,15.83 230.52,230.52 0 0 0 14,19.82 c 5.57,7.13 12,14.72 19.12,22.68 14.24,15.91 31.27,33.23 49.86,51.19 9.29,9 19,18.12 28.92,27.33 l 14.93,14 7.39,7.17 c 2.47,2.39 4.94,4.79 7.34,7.27 l 7.26,7.38 7.09,7.55 3.54,3.78 c 1.16,1.27 2.29,2.58 3.44,3.86 l 6.83,7.73 6.57,7.89 3.27,3.93 c 1.07,1.33 2.09,2.68 3.14,4 l 6.21,8 c 2,2.7 3.94,5.44 5.9,8.14 4,5.34 7.52,10.92 11.16,16.31 1.85,2.67 3.46,5.48 5.15,8.2 l 5,8.13 4.6,8.16 c 1.49,2.71 3.07,5.33 4.45,8 l 4.11,8 2,3.92 c 0.68,1.3 1.34,2.59 1.93,3.9 a 545.2,545.2 0 0 1 23.28,55.87 l 4.02,11.35 0.9,2.58 0.79,2.5 1.5,4.72 c 0.93,3 1.68,5.8 2.41,8.28 0.73,2.48 1.23,4.7 1.74,6.6 l 0.73,2.83 0.65,2.83 1.29,5.58 c 0.73,3.71 1.57,7.32 2.16,10.9 l 1,5.29 0.8,5.19 c 0.57,3.41 0.93,6.76 1.38,10 1.6,13 2.24,24.61 2.54,34.24 0.52,19.29 -0.2,30.75 0.45,30.8 v 0 c 0.25,0 0.71,-2.93 1.26,-8.34 0.55,-5.41 1,-13.29 1.09,-23.12 a 307.49,307.49 0 0 0 -9.47,-77.16 z" />
    <path
       inkscape:connector-curvature="0"
       id="path633"
       style="fill:url(#linear-gradient-19)"
       d="m 1809.1816,843.19089 c 1.42,-0.52 3,-1.31 4.85,-2.12 l 6.14,-2.78 7.21,-3.68 2,-1 2,-1.14 4.19,-2.4 c 2.91,-1.58 5.82,-3.54 8.93,-5.5 3.11,-1.96 6.22,-4.24 9.51,-6.53 1.66,-1.13 3.26,-2.4 4.9,-3.69 l 5,-3.91 5,-4.28 c 1.68,-1.45 3.42,-2.9 5,-4.51 l 5,-4.78 c 1.69,-1.63 3.29,-3.39 5,-5.11 l 2.51,-2.62 c 0.84,-0.88 1.61,-1.83 2.43,-2.74 l 4.88,-5.61 a 242.24,242.24 0 0 0 18,-25.16 239.39,239.39 0 0 0 14.82,-28.69 234.94,234.94 0 0 0 10.5,-31.1 232.14,232.14 0 0 0 5.68,-32.06 c 0.41,-5.35 0.94,-10.64 1,-15.9 0.23,-5.25 0.11,-10.45 0,-15.57 a 236.67,236.67 0 0 0 -2.93,-29.45 c -0.69,-4.68 -1.68,-9.19 -2.58,-13.59 l -1.55,-6.44 c -0.48,-2.12 -1.14,-4.16 -1.69,-6.19 l -0.85,-3 c -0.29,-1 -0.62,-2 -0.93,-2.93 l -1.83,-5.67 -2,-5.37 -1,-2.59 -1,-2.49 -2,-4.8 c -0.67,-1.54 -1.37,-3 -2,-4.46 -0.63,-1.46 -1.27,-2.85 -1.93,-4.17 l -1.93,-3.83 a 211.15,211.15 0 0 0 -10.73,-18.7 l -3.29,-5 a 1,1 0 0 1 0.15,-1.11 l 0.43,-0.16 h -0.49 l 0.45,-0.16 a 0.93,0.93 0 0 1 1.06,0.28 l 3.36,5 a 212.54,212.54 0 0 1 11.2,19.34 218.69,218.69 0 0 1 15.71,39.84 c 1.24,4.07 2.22,8.36 3.31,12.75 l 1.4,6.74 c 0.25,1.14 0.46,2.29 0.65,3.45 l 0.59,3.51 a 248.2,248.2 0 0 1 3.05,29.66 l 0.18,7.79 v 3.94 l -0.09,4 c 0,5.3 -0.55,10.65 -0.91,16 a 219.8,219.8 0 0 1 -49,118.39 l -4.91,5.71 c -0.82,0.93 -1.6,1.89 -2.44,2.79 l -2.53,2.66 c -1.69,1.75 -3.31,3.53 -5,5.21 l -5,4.93 c -0.85,0.79 -1.65,1.62 -2.51,2.37 l -2.57,2.24 -5,4.37 -5.07,4 c -1.67,1.3 -3.27,2.63 -5,3.78 l -4.88,3.48 c -0.8,0.56 -1.58,1.14 -2.37,1.68 l -2.37,1.57 c -3.17,2 -6.11,4 -9.08,5.66 l -4.27,2.46 -2,1.17 c -0.67,0.37 -1.36,0.71 -2,1.05 l -7.39,3.79 c -2.3,1.09 -4.43,2 -6.32,2.89 -1.89,0.89 -3.55,1.67 -5,2.21 a 205.44,205.44 0 0 1 -33.27,10.63 c -2.58,0.56 -5.07,1.13 -7.5,1.63 l -7.17,1.17 -3.35,0.54 -3.24,0.36 -6.06,0.64 c -1.92,0.24 -3.76,0.29 -5.49,0.38 l -4.87,0.22 c -3,0.18 -5.62,0 -7.73,0 -4.22,-0.13 -6.5,-0.34 -6.5,-0.62 0,-0.28 2.36,-0.57 6.64,-0.92 2.14,-0.18 4.76,-0.3 7.8,-0.7 l 4.87,-0.53 2.66,-0.28 c 0.91,-0.1 1.84,-0.27 2.8,-0.41 3.81,-0.62 8,-1.07 12.49,-2 l 6.94,-1.36 7.31,-1.78 a 231.31,231.31 0 0 0 32.02,-10.69 z" />
    <path
       inkscape:connector-curvature="0"
       id="path635"
       style="fill:url(#linear-gradient-20)"
       d="m 1581.7503,383.19089 c 1,-2.74 2.18,-6 3.6,-9.69 1.42,-3.69 3.21,-7.86 5.47,-12.36 a 162.23,162.23 0 0 1 19.1,-30.7 152.53,152.53 0 0 1 34.89,-32.47 c 1.84,-1.25 3.77,-2.43 5.74,-3.6 l 1.49,-0.86 0.54,-0.31 0.19,-0.1 0.32,-0.17 h 0.09 c 0.12,0 0,0 -0.06,-0.07 h -0.1 l -0.42,-0.09 q -3.41,-0.72 -6.93,-1.23 a 126.12,126.12 0 0 0 -29.7,-0.78 112.84,112.84 0 0 0 -26.45,5.73 102,102 0 0 0 -13.72,6 c -4.56,2.42 -9.26,5.06 -14,7.77 -4.74,2.71 -9.53,5.59 -14.28,8.68 -1.2,0.76 -2.38,1.55 -3.56,2.35 -1.18,0.8 -2.36,1.61 -3.52,2.45 a 76.69,76.69 0 0 0 -6.73,5.32 c -0.5,0.48 -1,1 -1.48,1.46 l -0.35,0.37 -0.39,0.47 c -0.09,0.15 -0.25,0.22 -0.3,0.42 h -0.17 -0.09 l -0.19,0.1 -0.69,0.37 a 3,3 0 0 1 -0.64,0.26 c -0.27,0.07 -0.56,0.33 -0.86,0.12 l -1.51,-0.56 -2.09,-0.74 c -2.8,-1 -5.65,-1.88 -8.52,-2.77 q -8.62,-2.68 -17.62,-4.73 l -0.79,-0.18 -0.85,-0.2 a 190.45,190.45 0 0 0 -29.58,-4.16 132,132 0 0 0 -30.22,2.23 c -5,0.87 -10,2 -15,3.22 -5,1.22 -9.91,2.68 -14.8,4.23 a 239.93,239.93 0 0 0 -28.58,11.22 209.57,209.57 0 0 0 -50.18,32.6 177.19,177.19 0 0 0 -19.89,20.65 c -1.53,1.77 -2.89,3.67 -4.3,5.51 -1.41,1.84 -2.71,3.75 -4,5.63 l -3.92,5.61 c -1.28,1.87 -2.6,3.69 -3.75,5.61 l -7,11.19 -6.34,11.09 c -1.07,1.8 -2,3.64 -3,5.46 l -2.8,5.43 c -0.92,1.79 -1.88,3.53 -2.74,5.3 l -2.54,5.26 c -3.43,6.89 -6.32,13.63 -9.14,20 -2.65,6.39 -5.18,12.39 -7.29,18.05 -2.11,5.66 -4,10.9 -5.76,15.66 -1.76,4.76 -3.11,9.09 -4.27,12.91 l -1.66,5.29 -1.32,4.46 c -0.81,2.68 -1.38,4.79 -1.79,6.25 -1,3.42 -1.84,6.8 -2.62,10 a 1,1 0 0 1 -1.15,0.61 0.92,0.92 0 0 1 -0.72,-1.09 v 0 c 0.76,-3.15 1.62,-6.58 2.6,-10.08 0.43,-1.6 1,-3.84 1.88,-6.64 l 1.36,-4.63 1.69,-5.44 c 0.59,-2 1.27,-4 2,-6.22 0.73,-2.22 1.48,-4.52 2.33,-6.95 1.73,-4.84 3.57,-10.18 5.8,-15.87 2.23,-5.69 4.64,-11.8 7.34,-18.24 l 4.35,-9.84 c 0.73,-1.69 1.52,-3.38 2.35,-5.08 l 2.48,-5.17 2.49,-5.32 2.77,-5.32 2.82,-5.43 c 0.48,-0.91 0.94,-1.84 1.45,-2.75 l 1.55,-2.73 c 2.09,-3.65 4.15,-7.4 6.37,-11.14 l 7,-11.26 c 0.58,-1 1.22,-1.89 1.86,-2.82 l 1.92,-2.81 3.89,-5.67 2,-2.86 2.11,-2.8 2.13,-2.81 c 0.72,-0.93 1.49,-1.83 2.24,-2.75 a 181,181 0 0 1 20.13,-20.85 204.59,204.59 0 0 1 23.81,-18 230.67,230.67 0 0 1 26.75,-14.8 240,240 0 0 1 58.82,-18.93 c 5.09,-0.9 10.2,-1.62 15.34,-2.05 1.28,-0.11 2.57,-0.21 3.86,-0.27 1.29,-0.06 2.58,-0.12 3.87,-0.14 2.58,0 5.14,0.08 7.7,0.13 a 194.48,194.48 0 0 1 30,4.12 l 0.86,0.2 0.81,0.18 q 9.07,2 17.83,4.67 c 2.91,0.89 5.79,1.8 8.64,2.78 l 2.13,0.75 0.62,0.22 c 0.11,0 0.13,0.06 0.18,0 l 0.1,-0.14 0.28,-0.34 0.41,-0.44 c 0.54,-0.61 1.11,-1.11 1.67,-1.66 a 78.53,78.53 0 0 1 7,-5.58 c 1.19,-0.86 2.38,-1.71 3.59,-2.51 1.21,-0.8 2.4,-1.63 3.61,-2.4 4.81,-3.15 9.64,-6 14.39,-8.81 4.75,-2.81 9.43,-5.39 14.09,-7.89 a 104.82,104.82 0 0 1 14.19,-6.25 116.45,116.45 0 0 1 27.36,-6 129.84,129.84 0 0 1 30.39,0.7 q 3.62,0.51 7.13,1.23 c 0.35,0.07 1.77,0.37 2.79,0.62 1.02,0.25 2.17,0.53 3.13,0.83 l 2.93,0.87 1.45,0.44 0.3,0.1 h 0.16 -0.1 l -0.85,0.38 -3.37,1.53 -0.84,0.38 c -0.28,0.13 -0.57,0.26 -0.77,0.37 l -1.33,0.7 -1.33,0.69 -0.66,0.35 -0.32,0.17 -0.18,0.1 -1.43,0.83 c -1,0.54 -1.88,1.13 -2.81,1.7 -0.93,0.57 -1.84,1.16 -2.73,1.76 a 148.58,148.58 0 0 0 -33.92,31.52 159.38,159.38 0 0 0 -18.71,30 c -2.22,4.44 -3.86,8.6 -5.41,12.24 -1.55,3.64 -2.62,6.94 -3.6,9.7 a 232.16,232.16 0 0 0 -8.08,30 198.75,198.75 0 0 0 -3.66,28.22 127.54,127.54 0 0 0 0.92,25.09 l 0.47,2.85 c 0.15,0.94 0.3,1.87 0.54,2.79 0.44,1.83 0.8,3.64 1.32,5.37 0.52,1.73 0.92,3.45 1.46,5.1 0.54,1.65 1,3.27 1.55,4.83 a 274.52,274.52 0 0 0 11.74,28.76 c 3.09,6.56 4.88,10.07 4.63,10.22 -0.25,0.15 -2.53,-3.27 -6.14,-9.81 a 212.22,212.22 0 0 1 -13.21,-29 c -1.15,-3.19 -2.27,-6.57 -3.3,-10.15 -0.52,-1.79 -1,-3.65 -1.44,-5.52 -0.44,-1.87 -0.73,-3.87 -1.11,-5.87 a 131.29,131.29 0 0 1 -1.09,-25.76 189.56,189.56 0 0 1 3.59,-28.37 227.44,227.44 0 0 1 8.01,-29.8 z" />
    <g
       transform="translate(1231.8916,120.19089)"
       id="g639"
       style="opacity:0.25">
      <path
         inkscape:connector-curvature="0"
         id="path637"
         style="fill:#ffffff"
         d="m 915.07,657.63 2.85,-6.3 4,-9.2 4.75,-11.72 2.52,-6.71 c 0.86,-2.32 1.8,-4.7 2.62,-7.19 1.7,-5 3.56,-10.18 5.18,-15.68 0.82,-2.75 1.77,-5.52 2.53,-8.38 l 2.36,-8.69 c 0.85,-2.92 1.46,-5.92 2.17,-8.93 l 1,-4.53 c 0.36,-1.51 0.71,-3 1,-4.57 l 1.74,-9.24 0.43,-2.32 0.34,-2.33 0.69,-4.66 c 1,-6.19 1.55,-12.42 2.24,-18.53 0.44,-6.13 1,-12.15 1.12,-18 0.46,-11.7 0.34,-22.7 -0.22,-32.32 a 283.63,283.63 0 0 0 -4.08,-36.28 c -0.21,-1.15 -0.43,-2.28 -0.65,-3.34 a 1,1 0 0 1 0.77,-1 0.92,0.92 0 0 1 1.14,0.63 v 0 c 0.23,1 0.48,2.2 0.7,3.38 a 287,287 0 0 1 4.51,36.94 c 0.13,2.42 0.32,4.92 0.4,7.5 l 0.24,8 c 0,5.44 0.12,11.14 -0.13,17 -0.09,5.88 -0.58,11.93 -1,18.08 -0.64,6.13 -1.12,12.39 -2.08,18.62 l -0.64,4.68 -0.32,2.34 -0.42,2.33 -1.66,9.3 c -0.25,1.55 -0.6,3.08 -0.94,4.6 l -1,4.56 c -0.69,3 -1.28,6.05 -2.1,9 l -2.29,8.75 c -0.36,1.45 -0.79,2.86 -1.21,4.26 l -1.25,4.18 -1.23,4.1 -0.61,2 -0.66,2 -2.57,7.7 a 445.76,445.76 0 0 1 -16.62,41.7 c -11.91,26.19 -23.65,43.64 -24.6,43 -0.95,-0.64 9.51,-19.44 20.98,-44.73 z" />
    </g>
    <g
       transform="translate(1231.8916,120.19089)"
       id="g643"
       style="opacity:0.25">
      <path
         inkscape:connector-curvature="0"
         id="path641"
         style="fill:#ffffff"
         d="m 779.41,865.32 c 5,-3 16.85,-10 31.16,-20.3 l 5.49,-4 5.63,-4.28 2.9,-2.2 2.88,-2.32 5.87,-4.75 5.84,-5 c 2,-1.69 4,-3.39 5.82,-5.18 1.82,-1.79 3.73,-3.64 5.59,-5.48 1.86,-1.84 3.59,-3.81 5.27,-5.82 a 140,140 0 0 0 9.53,-12.29 147.13,147.13 0 0 0 8,-12.74 169.73,169.73 0 0 0 11.32,-24.49 158.72,158.72 0 0 0 7.92,-29.47 c 0.15,-1 0.3,-1.91 0.41,-2.81 a 1,1 0 0 1 1.07,-0.74 0.92,0.92 0 0 1 0.87,1 v 0 c -0.1,0.9 -0.23,1.88 -0.38,2.88 a 161.08,161.08 0 0 1 -7.79,30.28 171.81,171.81 0 0 1 -11.21,24.91 151.5,151.5 0 0 1 -8,13 143.71,143.71 0 0 1 -9.54,12.57 c -1.68,2.06 -3.51,4 -5.29,6 a 78.84,78.84 0 0 1 -5.63,5.64 c -1.95,1.79 -3.87,3.58 -5.82,5.3 l -5.81,5.12 -5.84,4.85 -2.86,2.37 -2.89,2.24 -5.62,4.39 c -1.85,1.4 -3.7,2.72 -5.48,4 -14.29,10.46 -26.22,17.71 -31.39,20.8 -20.72,12.39 -37.24,18.66 -37.67,17.61 -0.2,-0.47 3.73,-2.72 10.19,-6.37 6.46,-3.65 15.48,-8.77 25.46,-14.72 z" />
    </g>
    <path
       inkscape:connector-curvature="0"
       id="path649"
       style="fill:url(#linear-gradient-21)"
       d="m 1387.7516,280.96089 -1.92,-3.17 c -0.67,-1.32 -1.53,-2.79 -2.33,-4.54 a 76.5,76.5 0 0 1 -4.61,-13.42 117.38,117.38 0 0 1 -3,-19.64 q -0.21,-2.84 -0.31,-5.89 v -2.17 0 l -0.09,0.09 -0.09,0.1 -0.45,0.5 c -1.5,1.68 -3,3.43 -4.56,5.24 -4.08,4.77 -8.43,10.15 -12.83,16 -4.4,5.85 -8.84,12.16 -13,18.82 -2.14,3.3 -4.08,6.77 -6.06,10.21 l -2.78,5.28 c -0.48,0.87 -0.9,1.77 -1.31,2.67 l -1.25,2.7 a 150.27,150.27 0 0 0 -8,21.95 c -2,7.28 -3.66,14.35 -4.93,20.92 -1.27,6.57 -2.16,12.65 -2.85,18 -1.33,10.61 -1.78,18.1 -1.91,20.49 l -0.16,3.35 a 1,1 0 0 1 -1,0.83 0.93,0.93 0 0 1 -1,-0.85 v 0 c 0,-1.06 0.07,-2.21 0.12,-3.39 0.12,-2.63 0.5,-10.29 1.76,-21 0.64,-5.37 1.53,-11.49 2.71,-18.13 1.18,-6.64 2.79,-13.77 4.77,-21.13 a 149.36,149.36 0 0 1 7.78,-22.29 l 1.24,-2.75 0.62,-1.38 0.69,-1.35 2.76,-5.38 c 2,-3.5 3.9,-7 6,-10.38 4.15,-6.77 8.54,-13.19 12.93,-19.11 4.39,-5.92 8.7,-11.4 12.77,-16.27 1.54,-1.83 3.05,-3.6 4.55,-5.3 l 0.68,-0.77 1.06,-1.17 2.11,-2.32 2.07,-2.23 1,-1.11 0.25,-0.26 0.12,-0.12 v 1 c -0.06,2.15 -0.18,4.38 -0.16,6.33 v 4.27 q 0.1,2.94 0.33,5.7 a 113.79,113.79 0 0 0 3,18.89 72.43,72.43 0 0 0 4.42,12.74 c 0.34,0.85 0.79,1.57 1.15,2.28 l 1.05,2 1.9,3.13 c 3.67,5.91 7.49,11.2 11,15.9 3.51,4.7 6.66,8.8 9.31,12.2 5.3,6.8 8.45,10.86 8,11.24 -0.45,0.38 -4.4,-3.19 -10.36,-9.65 -3,-3.23 -6.43,-7.2 -10.1,-11.82 a 169.38,169.38 0 0 1 -11.09,-15.84 z" />
    <path
       inkscape:connector-curvature="0"
       id="path651"
       style="fill:url(#linear-gradient-22)"
       d="m 1436.9916,704.29089 c -0.35,-1.58 -0.67,-3.73 -1.13,-6.35 -0.25,-1.31 -0.43,-2.74 -0.61,-4.3 l -0.6,-5 a 142.7,142.7 0 0 1 0.09,-25.65 151.74,151.74 0 0 1 6.15,-31.3 99.91,99.91 0 0 1 6.59,-16 81.94,81.94 0 0 1 22.32,-26.87 l 3.43,-2.59 c 1.14,-0.85 2.35,-1.59 3.51,-2.38 l 1.75,-1.16 c 0.59,-0.37 1.2,-0.71 1.79,-1.07 l 3.56,-2.09 a 81.56,81.56 0 0 1 28.77,-8.82 122.24,122.24 0 0 1 22.47,-0.45 c 5.84,0.42 9.8,1.07 11.38,1.32 1.08,0.18 2.13,0.37 3.13,0.58 a 1,1 0 0 1 -0.39,1.92 c -0.94,-0.18 -2,-0.35 -3.06,-0.52 -1.69,-0.25 -5.7,-0.85 -11.5,-1.19 a 119.36,119.36 0 0 0 -22.12,0.74 78.89,78.89 0 0 0 -27.63,8.93 c -2.26,1.39 -4.63,2.69 -6.85,4.28 -1.11,0.78 -2.29,1.49 -3.37,2.35 l -3.27,2.52 a 78.82,78.82 0 0 0 -21.08,26 97.19,97.19 0 0 0 -6.17,15.5 148.72,148.72 0 0 0 -5.71,30.5 139.8,139.8 0 0 0 0.09,24.89 l 0.61,4.86 c 0.19,1.52 0.36,2.93 0.61,4.21 0.47,2.57 0.79,4.7 1.14,6.28 1.31,6.35 2.86,12.2 4.4,17.41 1.54,5.21 3.11,9.75 4.52,13.49 2.73,7.52 4.67,11.87 4.17,12.15 -0.5,0.28 -3.37,-3.86 -6.85,-11.32 a 132.29,132.29 0 0 1 -5.42,-13.49 c -0.86,-2.62 -1.78,-5.38 -2.53,-8.31 -0.75,-2.93 -1.49,-5.91 -2.19,-9.07 z" />
  </g>
</svg>
