<?xml version="1.0" encoding="UTF-8" standalone="no"?>
<!-- Created with Inkscape (http://www.inkscape.org/) -->

<svg
   xmlns:dc="http://purl.org/dc/elements/1.1/"
   xmlns:cc="http://creativecommons.org/ns#"
   xmlns:rdf="http://www.w3.org/1999/02/22-rdf-syntax-ns#"
   xmlns:svg="http://www.w3.org/2000/svg"
   xmlns="http://www.w3.org/2000/svg"
   xmlns:xlink="http://www.w3.org/1999/xlink"
   xmlns:sodipodi="http://sodipodi.sourceforge.net/DTD/sodipodi-0.dtd"
   xmlns:inkscape="http://www.inkscape.org/namespaces/inkscape"
   width="128"
   height="128"
   viewBox="0 0 33.866666 33.866668"
   version="1.1"
   id="svg8"
   inkscape:version="0.92.3 (2405546, 2018-03-11)"
   sodipodi:docname="flameshot.svg">
  <defs
     id="defs2">
    <linearGradient
       inkscape:collect="always"
       id="linearGradient933">
      <stop
         style="stop-color:#5754d2;stop-opacity:1"
         offset="0"
         id="stop929" />
      <stop
         style="stop-color:#9875c7;stop-opacity:1"
         offset="1"
         id="stop931" />
    </linearGradient>
    <linearGradient
       inkscape:collect="always"
       id="linearGradient925">
      <stop
         style="stop-color:#0aabd3;stop-opacity:1"
         offset="0"
         id="stop921" />
      <stop
         style="stop-color:#6fd4d1;stop-opacity:1"
         offset="1"
         id="stop923" />
    </linearGradient>
    <linearGradient
       inkscape:collect="always"
       id="linearGradient917">
      <stop
         style="stop-color:#ffc660;stop-opacity:1"
         offset="0"
         id="stop913" />
      <stop
         style="stop-color:#fd616c;stop-opacity:1"
         offset="1"
         id="stop915" />
    </linearGradient>
    <inkscape:path-effect
       effect="bspline"
       id="path-effect909"
       is_visible="true"
       weight="33.333333"
       steps="2"
       helper_size="0"
       apply_no_weight="true"
       apply_with_weight="true"
       only_selected="false" />
    <inkscape:path-effect
       effect="bspline"
       id="path-effect905"
       is_visible="true"
       weight="33.333333"
       steps="2"
       helper_size="0"
       apply_no_weight="true"
       apply_with_weight="true"
       only_selected="false" />
    <inkscape:path-effect
       effect="bspline"
       id="path-effect882"
       is_visible="true"
       weight="33.333333"
       steps="2"
       helper_size="0"
       apply_no_weight="true"
       apply_with_weight="true"
       only_selected="false" />
    <linearGradient
       inkscape:collect="always"
       xlink:href="#linearGradient917"
       id="linearGradient919"
       x1="-132.55664"
       y1="212.67558"
       x2="-76.411011"
       y2="137.84012"
       gradientUnits="userSpaceOnUse"
       gradientTransform="matrix(0.13242468,0,0,0.13242468,-229.92684,232.63671)" />
    <linearGradient
       inkscape:collect="always"
       xlink:href="#linearGradient925"
       id="linearGradient927"
       x1="-131.22754"
       y1="88.975357"
       x2="-130.16487"
       y2="212.95155"
       gradientUnits="userSpaceOnUse"
       gradientTransform="matrix(0.13242468,0,0,0.13242468,-229.92684,232.63671)" />
    <linearGradient
       inkscape:collect="always"
       xlink:href="#linearGradient933"
       id="linearGradient935"
       x1="-206.73035"
       y1="94.048111"
       x2="-157.65277"
       y2="218.02431"
       gradientUnits="userSpaceOnUse"
       gradientTransform="matrix(0.13242468,0,0,0.13242468,-229.92684,232.63671)" />
  </defs>
  <sodipodi:namedview
     id="base"
     pagecolor="#ffffff"
     bordercolor="#666666"
     borderopacity="1.0"
     inkscape:pageopacity="0.0"
     inkscape:pageshadow="2"
     inkscape:zoom="0.35"
     inkscape:cx="-533.93256"
     inkscape:cy="-82.004971"
     inkscape:document-units="mm"
     inkscape:current-layer="layer1"
     showgrid="false"
     inkscape:window-width="1529"
     inkscape:window-height="837"
     inkscape:window-x="71"
     inkscape:window-y="27"
     inkscape:window-maximized="1"
     units="px" />
  <metadata
     id="metadata5">
    <rdf:RDF>
      <cc:Work
         rdf:about="">
        <dc:format>image/svg+xml</dc:format>
        <dc:type
           rdf:resource="http://purl.org/dc/dcmitype/StillImage" />
        <dc:title></dc:title>
      </cc:Work>
    </rdf:RDF>
  </metadata>
  <g
     inkscape:label="Layer 1"
     inkscape:groupmode="layer"
     id="layer1"
     transform="translate(0,-263.13332)">
    <g
       id="g944"
       transform="matrix(0.98314361,0,0,0.98314361,261.88095,31.837223)">
      <circle
         style="opacity:0.25;fill:#000000;fill-opacity:1;stroke:none;stroke-width:0.2;stroke-linecap:round;stroke-miterlimit:4;stroke-dasharray:none;stroke-dashoffset:0;stroke-opacity:1"
         id="circle937"
         cx="-249.14734"
         cy="252.8"
         r="15.832603" />
      <circle
         r="15.832603"
         cy="252.27084"
         cx="-249.14734"
         id="path911"
         style="opacity:1;fill:#f9f9f9;fill-opacity:1;stroke:#666666;stroke-width:0.2;stroke-linecap:round;stroke-miterlimit:4;stroke-dasharray:none;stroke-dashoffset:0;stroke-opacity:1" />
      <path
         sodipodi:nodetypes="ccccccccccccccccccccccc"
         inkscape:original-d="m -248.90536,265.45443 c -0.11675,-0.38455 -0.23353,-0.76906 -0.35035,-1.15353 -0.30623,-0.5234 -0.61249,-1.04677 -0.91879,-1.57011 -0.37709,-0.30412 -0.75422,-0.60821 -1.13139,-0.91227 -1.08776,-0.83789 -2.17555,-1.67574 -3.26338,-2.51355 -0.6164,-0.58108 -1.23282,-1.16211 -1.84929,-1.74311 -0.37618,-0.72559 -0.7524,-1.45115 -1.12865,-2.17668 -0.10156,-0.81997 -0.20315,-1.63991 -0.30477,-2.45982 4e-5,-0.84944 4e-5,-1.6989 0,-2.5483 -0.0155,-0.77692 -0.0311,-1.55387 -0.0466,-2.33076 -0.19087,-1.05176 -0.38178,-2.10348 -0.57273,-3.15516 -0.0825,-0.41885 -0.16513,-0.83768 -0.24775,-1.25646 0.0148,-0.003 0.0325,-0.006 0.0487,-0.009 0.1339,0.0573 0.26843,0.11499 0.40259,0.17254 0.6751,0.25468 1.35034,0.50947 2.02545,0.76425 1.04306,0.4526 2.08615,0.90527 3.12917,1.35795 0.64432,0.50035 1.2886,1.00075 1.93285,1.50117 0.55157,0.42173 1.10312,0.8435 1.65462,1.2653 0.83473,2.87565 1.66941,5.75134 2.50406,8.62707 -0.23592,0.80221 -0.47187,1.60445 -0.70786,2.40673 -0.31262,1.14735 -0.62524,2.29461 -0.93791,3.44197 -0.084,0.52793 -0.16809,1.05586 -0.25218,1.58384 0.005,0.23591 0.01,0.47182 0.0143,0.70778 z"
         inkscape:path-effect="#path-effect909"
         inkscape:connector-curvature="0"
         id="path907"
         d="m -248.96376,265.26216 c -0.0584,-0.19227 -0.17517,-0.57678 -0.3867,-1.03071 -0.21152,-0.45393 -0.51778,-0.9773 -0.85947,-1.39102 -0.34169,-0.41372 -0.71882,-0.71781 -1.45129,-1.28879 -0.73246,-0.57097 -1.82025,-1.40882 -2.67237,-2.11826 -0.85212,-0.70945 -1.46854,-1.29048 -1.96486,-1.94378 -0.49633,-0.65331 -0.87255,-1.37887 -1.11145,-2.15163 -0.2389,-0.77276 -0.34049,-1.5927 -0.39129,-2.42737 -0.0508,-0.83468 -0.0508,-1.68414 -0.0586,-2.4973 -0.008,-0.81316 -0.0233,-1.59011 -0.12652,-2.50443 -0.10323,-0.91432 -0.29414,-1.96604 -0.43088,-2.7013 -0.13675,-0.73526 -0.21933,-1.1541 -0.2532,-1.36487 -0.0339,-0.21076 -0.0162,-0.21403 0.0588,-0.18684 0.075,0.0272 0.20958,0.0849 0.61421,0.24097 0.40463,0.15611 1.07988,0.4109 1.93896,0.76459 0.85908,0.35369 1.90217,0.80636 2.74584,1.28288 0.84366,0.47651 1.48794,0.9769 2.08585,1.43798 0.59791,0.46108 1.14946,0.88285 1.84256,2.53156 0.69311,1.64871 1.5278,4.5244 1.82717,6.36336 0.29938,1.83896 0.0634,2.6412 -0.21088,3.61602 -0.2743,0.97481 -0.58692,2.12207 -0.78527,2.95972 -0.19836,0.83764 -0.28241,1.36558 -0.32206,1.74753 -0.0397,0.38194 -0.0349,0.61786 -0.0325,0.73583 0.002,0.11798 0.002,0.11813 -0.0561,-0.0741 z"
         style="fill:url(#linearGradient935);fill-opacity:1;stroke:#353380;stroke-width:0.15000001;stroke-linecap:butt;stroke-linejoin:miter;stroke-miterlimit:4;stroke-dasharray:none;stroke-opacity:1" />
      <path
         sodipodi:nodetypes="ccccccccccccccccccccccccccccc"
         inkscape:original-d="m -248.94529,265.21233 c -0.0538,-0.29082 -0.10755,-0.58161 -0.16138,-0.87237 -0.075,-0.33786 -0.14804,-0.67784 -0.22211,-1.01671 -0.0774,-0.33368 -0.15488,-0.66738 -0.23237,-1.00102 -0.2359,-0.52499 -0.47187,-1.05003 -0.70786,-1.57499 -0.27884,-0.56892 -0.55774,-1.13782 -0.83666,-1.70668 -0.28777,-0.61943 -0.57558,-1.23469 -0.86342,-1.85198 -0.1397,-0.41505 -0.27943,-0.83008 -0.4192,-1.24507 -0.0584,-0.26281 -0.11676,-0.5256 -0.17519,-0.78834 -0.0187,-0.511 -0.0375,-1.02196 -0.0563,-1.53289 0.0423,-0.62779 0.0846,-1.25554 0.12684,-1.88326 0.19968,-0.48805 0.39933,-0.97607 0.59894,-1.46406 0.20023,-0.40877 0.40046,-0.81757 0.60064,-1.22631 0.24193,-0.39416 0.48388,-0.79254 0.72577,-1.18876 0.42753,-0.68195 0.85512,-1.36399 1.28262,-2.04594 0.3629,-0.50888 0.72581,-1.01778 1.08866,-1.52662 0.24611,-0.55892 0.50057,-1.1179 0.7508,-1.67679 0.0626,-0.13767 0.12517,-0.27533 0.1877,-0.41294 0.0212,0.0307 0.0424,0.0614 0.0636,0.0921 0.18107,0.14661 0.36202,0.29318 0.54297,0.43983 0.50694,0.55258 1.01146,1.10261 1.52072,1.65786 0.24938,0.53009 0.4964,1.05526 0.74454,1.58294 0.21515,0.46693 0.43025,0.93386 0.64533,1.40087 0.51072,2.40074 1.02134,4.80123 1.532,7.20205 -1.32853,1.47661 -2.65697,2.95312 -3.9855,4.42973 -0.52971,1.11784 -1.05943,2.23568 -1.5892,3.35357 -0.1835,0.30447 -0.36702,0.60895 -0.55059,0.91348 -0.16424,0.48928 -0.32848,0.97845 -0.49277,1.46774 -0.0395,0.15815 -0.079,0.31631 -0.11855,0.47452 z"
         inkscape:path-effect="#path-effect905"
         inkscape:connector-curvature="0"
         id="path903"
         d="m -248.97219,265.06692 c -0.0269,-0.14541 -0.0807,-0.43619 -0.14452,-0.75063 -0.0638,-0.31444 -0.13804,-0.65416 -0.21378,-0.99043 -0.0757,-0.33628 -0.15321,-0.66998 -0.30991,-1.09929 -0.15669,-0.42931 -0.39266,-0.95435 -0.65008,-1.50129 -0.25742,-0.54694 -0.53631,-1.11584 -0.82005,-1.7098 -0.28375,-0.59396 -0.57076,-1.20959 -0.78453,-1.72576 -0.21377,-0.51618 -0.3535,-0.93121 -0.45257,-1.27011 -0.0991,-0.33891 -0.15746,-0.60169 -0.19604,-0.98856 -0.0386,-0.38688 -0.0573,-0.89784 -0.0456,-1.4672 0.0118,-0.56936 0.054,-1.19711 0.17501,-1.755 0.12097,-0.55789 0.32062,-1.04591 0.52054,-1.49429 0.19993,-0.44838 0.40015,-0.85718 0.62075,-1.25891 0.22059,-0.40173 0.46347,-0.79955 0.79818,-1.33863 0.33471,-0.53908 0.76229,-1.22113 1.1575,-1.81654 0.3952,-0.59541 0.75811,-1.10432 1.06433,-1.63742 0.30621,-0.5331 0.55719,-1.09364 0.71361,-1.44192 0.15641,-0.34828 0.21898,-0.48594 0.26086,-0.53939 0.0419,-0.0534 0.0631,-0.0228 0.16419,0.0659 0.10112,0.0887 0.28206,0.23525 0.62601,0.58486 0.34394,0.34961 0.84847,0.89964 1.22778,1.4423 0.37932,0.54267 0.62633,1.06784 0.85798,1.56515 0.23165,0.4973 0.44674,0.96423 0.80965,2.3981 0.3629,1.43387 0.87353,3.83436 0.46461,5.77307 -0.40892,1.93871 -1.73736,3.41522 -2.66649,4.71244 -0.92912,1.29722 -1.45885,2.41506 -1.81548,3.12624 -0.35663,0.71118 -0.54015,1.01566 -0.71406,1.41257 -0.17392,0.3969 -0.33815,0.88607 -0.44004,1.2098 -0.10189,0.32372 -0.1414,0.48187 -0.16117,0.56098 -0.0198,0.0791 -0.0198,0.0792 -0.0467,-0.0663 z"
         style="fill:url(#linearGradient927);fill-opacity:1;stroke:#066780;stroke-width:0.15000001;stroke-linecap:butt;stroke-linejoin:miter;stroke-miterlimit:4;stroke-dasharray:none;stroke-opacity:1" />
      <path
         sodipodi:nodetypes="cccccccccccccccccccc"
         inkscape:original-d="m -248.98466,265.19712 c 0.0167,-0.80506 0.0334,-1.61008 0.05,-2.41507 -0.0542,-1.13458 -0.10841,-2.26912 -0.16267,-3.40363 0.22111,-0.89683 0.44217,-1.79362 0.66321,-2.69037 0.44227,-0.83595 0.88455,-1.67194 1.32678,-2.50785 0.55946,-0.53629 1.11889,-1.07255 1.67828,-1.60877 0.94969,-0.59577 1.89947,-1.1916 2.84915,-1.78735 1.37446,-0.30087 2.7489,-0.60171 4.12329,-0.90252 0.10916,-0.0295 0.21829,-0.059 0.32739,-0.0885 -0.10611,0.51591 -0.21823,1.03226 -0.32739,1.54844 -0.24448,0.75118 -0.48955,1.50413 -0.7344,2.25631 -0.38932,0.8406 -0.7786,1.6811 -1.16798,2.52176 -0.77647,0.96608 -1.55286,1.93206 -2.32939,2.8982 -0.80147,0.54107 -1.60292,1.08214 -2.40443,1.62327 -0.62141,0.46141 -1.24274,0.92277 -1.86421,1.38425 -0.3165,0.31722 -0.63299,0.63443 -0.94954,0.95169 -0.30085,0.62532 -0.60165,1.25052 -0.90252,1.87583 -0.0398,0.11943 -0.0796,0.23887 -0.11946,0.35836 -0.0187,-0.005 -0.0374,-0.009 -0.0562,-0.0141 z"
         inkscape:path-effect="#path-effect882"
         inkscape:connector-curvature="0"
         id="path880"
         d="m -248.97633,264.79459 c 0.008,-0.40253 0.025,-1.20755 0.006,-2.17734 -0.0188,-0.96978 -0.073,-2.10432 0.0104,-3.11999 0.0834,-1.01568 0.3045,-1.91246 0.63616,-2.77881 0.33166,-0.86635 0.77394,-1.70234 1.27479,-2.38844 0.50085,-0.6861 1.06028,-1.22236 1.81482,-1.78835 0.75454,-0.566 1.70432,-1.16182 2.86639,-1.61013 1.16207,-0.4483 2.53651,-0.74914 3.27829,-0.91431 0.74177,-0.16517 0.8509,-0.19467 0.85097,0.0482 8e-5,0.24291 -0.10922,0.75986 -0.28604,1.39353 -0.17682,0.63368 -0.42189,1.38663 -0.73897,2.18302 -0.31708,0.7964 -0.70637,1.63689 -1.28928,2.54027 -0.58292,0.90337 -1.35931,1.86935 -2.14831,2.62296 -0.78899,0.75361 -1.59044,1.29468 -2.3019,1.79595 -0.71146,0.50127 -1.33279,0.96263 -1.80178,1.35197 -0.46899,0.38935 -0.78548,0.70656 -1.09419,1.17785 -0.3087,0.47129 -0.6095,1.09648 -0.77984,1.46886 -0.17033,0.37237 -0.21014,0.4918 -0.23945,0.5492 -0.0293,0.0574 -0.0478,0.0527 -0.0573,0.0504 -0.009,-0.002 -0.009,-0.002 -0.001,-0.40485 z"
         style="fill:url(#linearGradient919);fill-opacity:1;stroke:#7f3136;stroke-width:0.15000001;stroke-linecap:butt;stroke-linejoin:miter;stroke-miterlimit:4;stroke-dasharray:none;stroke-opacity:1" />
    </g>
  </g>
</svg>
