<?xml version="1.0" encoding="UTF-8" standalone="no"?>
<!-- Created with Inkscape (http://www.inkscape.org/) -->

<svg
   xmlns:osb="http://www.openswatchbook.org/uri/2009/osb"
   xmlns:dc="http://purl.org/dc/elements/1.1/"
   xmlns:cc="http://creativecommons.org/ns#"
   xmlns:rdf="http://www.w3.org/1999/02/22-rdf-syntax-ns#"
   xmlns:svg="http://www.w3.org/2000/svg"
   xmlns="http://www.w3.org/2000/svg"
   xmlns:xlink="http://www.w3.org/1999/xlink"
   xmlns:sodipodi="http://sodipodi.sourceforge.net/DTD/sodipodi-0.dtd"
   xmlns:inkscape="http://www.inkscape.org/namespaces/inkscape"
   width="128"
   height="128"
   viewBox="0 0 33.866666 33.866668"
   version="1.1"
   id="svg8"
   inkscape:version="0.92.2 5c3e80d, 2017-08-06"
   sodipodi:docname="text-x-sql.svg">
  <defs
     id="defs2">
    <linearGradient
       osb:paint="solid"
       id="linearGradient6987">
      <stop
         id="stop6985"
         offset="0"
         style="stop-color:#77d2fb;stop-opacity:1;" />
    </linearGradient>
    <radialGradient
       gradientUnits="userSpaceOnUse"
       gradientTransform="matrix(0.51836295,0,0,0.20020546,-23.539746,272.84272)"
       r="22.627"
       cy="41.636"
       cx="23.335"
       id="radialGradient2490">
      <stop
         offset="0"
         id="stop23421" />
      <stop
         offset="1"
         style="stop-opacity:0"
         id="stop23423" />
    </radialGradient>
    <linearGradient
       xlink:href="#linearGradient3858"
       gradientUnits="userSpaceOnUse"
       gradientTransform="matrix(0.90225397,0,0,0.90615311,-96.397656,258.9359)"
       y2="27.546"
       y1="22.537"
       x2="89.018"
       x1="89.018"
       id="linearGradient2479" />
    <linearGradient
       xlink:href="#linearGradient2793"
       spreadMethod="reflect"
       gradientUnits="userSpaceOnUse"
       gradientTransform="matrix(0.41307894,0,0,0.39172093,-54.3842,284.7233)"
       y2="-7.6657"
       y1="-7.6657"
       x2="89.424"
       x1="103.95"
       id="linearGradient2477" />
    <linearGradient
       xlink:href="#linearGradient3858"
       gradientUnits="userSpaceOnUse"
       gradientTransform="matrix(0.90225397,0,0,0.90615311,-96.397656,253.49898)"
       y2="27.546"
       y1="22.537"
       x2="89.018"
       x1="89.018"
       id="linearGradient2473" />
    <linearGradient
       xlink:href="#linearGradient2793"
       spreadMethod="reflect"
       gradientUnits="userSpaceOnUse"
       gradientTransform="matrix(0.41307894,0,0,0.39172093,-54.3842,279.28638)"
       y2="-7.6657"
       y1="-7.6657"
       x2="89.424"
       x1="103.95"
       id="linearGradient2471" />
    <linearGradient
       id="linearGradient3858">
      <stop
         offset="0"
         style="stop-color:#a0a0a0"
         id="stop3860" />
      <stop
         offset="1"
         style="stop-color:#4a4a4a"
         id="stop3862" />
    </linearGradient>
    <linearGradient
       xlink:href="#linearGradient3858"
       gradientUnits="userSpaceOnUse"
       gradientTransform="matrix(0.90225397,0,0,0.90615311,-96.397656,248.06206)"
       y2="27.546"
       y1="22.537"
       x2="89.018"
       x1="89.018"
       id="linearGradient2466" />
    <linearGradient
       id="linearGradient2793">
      <stop
         offset="0"
         style="stop-color:#868688"
         id="stop2795" />
      <stop
         offset="1"
         style="stop-color:#d9d9da"
         id="stop2797" />
    </linearGradient>
    <linearGradient
       xlink:href="#linearGradient2793"
       spreadMethod="reflect"
       gradientUnits="userSpaceOnUse"
       gradientTransform="matrix(0.41307894,0,0,0.39172093,-54.3842,273.84946)"
       y2="-7.6657"
       y1="-7.6657"
       x2="89.424"
       x1="103.95"
       id="linearGradient2463" />
    <linearGradient
       gradientUnits="userSpaceOnUse"
       gradientTransform="matrix(0.41334961,0,0,0.39770154,-54.409463,270.24387)"
       y2="-2.3758"
       y1="-24.911"
       x2="109.96"
       x1="109.96"
       id="linearGradient2460">
      <stop
         offset="0"
         style="stop-color:#b3b3b3"
         id="stop2511" />
      <stop
         offset="1"
         style="stop-color:#dadada"
         id="stop2513" />
    </linearGradient>
    <linearGradient
       spreadMethod="reflect"
       gradientUnits="userSpaceOnUse"
       gradientTransform="matrix(0.41334961,0,0,0.39770154,-54.409463,270.24387)"
       y2="-24.582"
       y1="-2.3925"
       x2="102.31"
       x1="102.31"
       id="linearGradient2458">
      <stop
         offset="0"
         style="stop-color:#a5a6a8"
         id="stop3846" />
      <stop
         offset="1"
         style="stop-color:#e8e8e8"
         id="stop3848" />
    </linearGradient>
  </defs>
  <sodipodi:namedview
     id="base"
     pagecolor="#ffffff"
     bordercolor="#666666"
     borderopacity="1.0"
     inkscape:pageopacity="0.0"
     inkscape:pageshadow="2"
     inkscape:zoom="3.6203868"
     inkscape:cx="26.32331"
     inkscape:cy="36.393168"
     inkscape:document-units="mm"
     inkscape:current-layer="layer1"
     showgrid="false"
     units="px"
     inkscape:window-width="1600"
     inkscape:window-height="803"
     inkscape:window-x="0"
     inkscape:window-y="0"
     inkscape:window-maximized="1"
     showguides="false" />
  <metadata
     id="metadata5">
    <rdf:RDF>
      <cc:Work
         rdf:about="">
        <dc:format>image/svg+xml</dc:format>
        <dc:type
           rdf:resource="http://purl.org/dc/dcmitype/StillImage" />
        <dc:title />
      </cc:Work>
    </rdf:RDF>
  </metadata>
  <g
     inkscape:label="Layer 1"
     inkscape:groupmode="layer"
     id="layer1"
     transform="translate(0,-263.13332)">
    <g
       style="stroke-width:4.08449793"
       inkscape:transform-center-y="-9.4924686"
       inkscape:transform-center-x="5.4653607"
       inkscape:label="Capa 1"
       id="layer1-4-3"
       transform="matrix(0.53602412,0,0,0.5372689,-234.93365,-13.785303)">
      <g
         style="stroke-width:4.08449793"
         id="layer1-3-65-9"
         inkscape:label="Capa 1"
         transform="translate(0.41988239,0.03484499)" />
    </g>
    <g
       style="stroke-width:4.08449793"
       inkscape:transform-center-y="-9.4924686"
       inkscape:transform-center-x="5.4653607"
       inkscape:label="Capa 1"
       id="layer1-4"
       transform="matrix(0.53602412,0,0,0.5372689,-234.93365,-13.7603)">
      <g
         style="stroke-width:4.08449793"
         id="layer1-3-65"
         inkscape:label="Capa 1"
         transform="translate(0.41988239,0.03484499)" />
    </g>
    <g
       id="g876"
       transform="matrix(1.2673886,0,0,1.2673886,31.437491,-66.16293)">
      <path
         style="opacity:0.3;fill:url(#radialGradient2490);fill-rule:evenodd;stroke-width:0.26458335"
         d="m 0.28517321,281.17842 c 9.9253e-4,2.50217 -5.25066761,4.53078 -11.72930221,4.53078 -6.478635,0 -11.730204,-2.02861 -11.729301,-4.53078 -9.93e-4,-2.50215 5.250666,-4.53076 11.729301,-4.53076 6.4786346,0 11.73020495,2.02861 11.72930221,4.53076 z"
         id="path23417"
         inkscape:connector-curvature="0" />
      <path
         style="fill:url(#linearGradient2477);stroke:url(#linearGradient2479);stroke-width:0.26458335"
         d="m -1.0772308,279.42775 c 0,2.21699 -4.6454342,4.01624 -10.3696042,4.01624 -5.723899,0 -10.369605,-1.79925 -10.369605,-4.01624 0.103274,-4.95612 -1.267396,-3.93272 10.369605,-4.01627 11.90343668,-0.0862 10.2234389,-1.02095 10.3696042,4.01627 z"
         id="path4834"
         inkscape:connector-curvature="0" />
      <path
         style="fill:#868688;stroke:#d8d8d8;stroke-width:0.26458335"
         d="m -1.0682083,275.74151 c 0,2.25206 -4.6454342,4.07769 -10.3759207,4.07769 -5.730485,0 -10.375921,-1.82563 -10.375921,-4.07769 0,-2.25206 4.645436,-4.07769 10.375921,-4.07769 5.7304865,0 10.3759207,1.82563 10.3759207,4.07769 z"
         id="path4838"
         inkscape:connector-curvature="0" />
      <path
         style="fill:url(#linearGradient2471);stroke:url(#linearGradient2473);stroke-width:0.26458335"
         d="m -1.0772308,273.99082 c 0,2.21699 -4.6454342,4.01625 -10.3696042,4.01625 -5.723899,0 -10.369605,-1.79926 -10.369605,-4.01625 0.103274,-4.95612 -1.267396,-3.9327 10.369605,-4.01626 11.90343668,-0.0862 10.2234389,-1.02095 10.3696042,4.01626 z"
         id="path3866"
         inkscape:connector-curvature="0" />
      <path
         style="fill:#868688;stroke:#d8d8d8;stroke-width:0.26458335"
         d="m -1.0682083,270.30459 c 0,2.25206 -4.6454342,4.07768 -10.3759207,4.07768 -5.730485,0 -10.375921,-1.82562 -10.375921,-4.07768 0,-2.25206 4.645436,-4.07769 10.375921,-4.07769 5.7304865,0 10.3759207,1.82563 10.3759207,4.07769 z"
         id="path3868"
         inkscape:connector-curvature="0" />
      <path
         style="fill:url(#linearGradient2463);stroke:url(#linearGradient2466);stroke-width:0.26458335"
         d="m -1.0772308,268.5539 c 0,2.21699 -4.6454342,4.01625 -10.3696042,4.01625 -5.723899,0 -10.369605,-1.79926 -10.369605,-4.01625 0.103274,-4.95612 -1.267396,-3.9327 10.369605,-4.01625 11.90343668,-0.0862 10.2234389,-1.02097 10.3696042,4.01625 z"
         id="path3878"
         inkscape:connector-curvature="0" />
      <path
         style="fill:url(#linearGradient2458);stroke:url(#linearGradient2460);stroke-width:0.26458335"
         d="m -1.0682083,264.86767 c 0,2.25207 -4.6454342,4.0777 -10.3759207,4.0777 -5.730485,0 -10.375921,-1.82563 -10.375921,-4.0777 0,-2.25207 4.645436,-4.07769 10.375921,-4.07769 5.7304865,0 10.3759207,1.82562 10.3759207,4.07769 z"
         id="path3880"
         inkscape:connector-curvature="0" />
    </g>
  </g>
</svg>
