<?xml version="1.0" encoding="UTF-8" standalone="no"?>
<!-- Created with Inkscape (http://www.inkscape.org/) -->

<svg
   xmlns:osb="http://www.openswatchbook.org/uri/2009/osb"
   xmlns:dc="http://purl.org/dc/elements/1.1/"
   xmlns:cc="http://creativecommons.org/ns#"
   xmlns:rdf="http://www.w3.org/1999/02/22-rdf-syntax-ns#"
   xmlns:svg="http://www.w3.org/2000/svg"
   xmlns="http://www.w3.org/2000/svg"
   xmlns:xlink="http://www.w3.org/1999/xlink"
   xmlns:sodipodi="http://sodipodi.sourceforge.net/DTD/sodipodi-0.dtd"
   xmlns:inkscape="http://www.inkscape.org/namespaces/inkscape"
   width="128"
   height="128"
   viewBox="0 0 33.866666 33.866668"
   version="1.1"
   id="svg8"
   inkscape:version="0.92.2 5c3e80d, 2017-08-06"
   sodipodi:docname="preferences-system-windows 3.svg">
  <defs
     id="defs2">
    <linearGradient
       id="linearGradient1462"
       gradientUnits="userSpaceOnUse"
       x1="960"
       y1="1095.118164"
       x2="960"
       y2="255.118118"
       gradientTransform="matrix(0.02196247,0,0,0.02196247,-61.782225,259.84168)">
      <stop
         offset="0"
         style="stop-color:#475258;stop-opacity:1"
         id="stop1458" />
      <stop
         offset="1"
         style="stop-color:#626f75;stop-opacity:1"
         id="stop1460" />
    </linearGradient>
    <linearGradient
       id="linearGradient1456"
       gradientUnits="userSpaceOnUse"
       x1="305.954559"
       y1="-31.87709"
       x2="305.954559"
       y2="-135.329163"
       gradientTransform="matrix(0.10006384,0,0,0.28872228,-69.556331,304.51726)">
      <stop
         offset="0"
         style="stop-color:#475258;stop-opacity:1"
         id="stop1452" />
      <stop
         offset="1"
         style="stop-color:#636f76;stop-opacity:1"
         id="stop1454" />
    </linearGradient>
    <linearGradient
       inkscape:collect="always"
       id="linearGradient1448">
      <stop
         style="stop-color:#f9fbfb;stop-opacity:1"
         offset="0"
         id="stop1444" />
      <stop
         style="stop-color:#e3e8ec;stop-opacity:1"
         offset="1"
         id="stop1446" />
    </linearGradient>
    <linearGradient
       id="linearGradient6987"
       osb:paint="solid">
      <stop
         style="stop-color:#77d2fb;stop-opacity:1;"
         offset="0"
         id="stop6985" />
    </linearGradient>
    <linearGradient
       id="linearGradient6088"
       osb:paint="solid">
      <stop
         style="stop-color:#51b3e3;stop-opacity:1;"
         offset="0"
         id="stop6086" />
    </linearGradient>
    <linearGradient
       inkscape:collect="always"
       xlink:href="#linearGradient1456"
       id="linearGradient1394"
       gradientUnits="userSpaceOnUse"
       gradientTransform="matrix(0.085759,0,0,0.24744736,-7.7986504,300.55961)"
       x1="305.954559"
       y1="-31.87709"
       x2="305.954559"
       y2="-135.329163" />
    <linearGradient
       inkscape:collect="always"
       xlink:href="#linearGradient1462"
       id="linearGradient1396"
       gradientUnits="userSpaceOnUse"
       gradientTransform="matrix(0.01882278,0,0,0.01882278,-1.1359052,262.27073)"
       x1="960"
       y1="1095.118164"
       x2="960"
       y2="255.118118" />
    <linearGradient
       inkscape:collect="always"
       xlink:href="#linearGradient1448"
       id="linearGradient1450"
       x1="49.117046"
       y1="224.97096"
       x2="49.117046"
       y2="241.97989"
       gradientUnits="userSpaceOnUse"
       gradientTransform="matrix(0.85704283,0,0,0.85704283,-25.062536,84.308774)" />
  </defs>
  <sodipodi:namedview
     id="base"
     pagecolor="#ffffff"
     bordercolor="#666666"
     borderopacity="1.0"
     inkscape:pageopacity="0.0"
     inkscape:pageshadow="2"
     inkscape:zoom="0.98994949"
     inkscape:cx="66.704399"
     inkscape:cy="35.741519"
     inkscape:document-units="mm"
     inkscape:current-layer="layer1"
     showgrid="false"
     units="px"
     inkscape:window-width="1549"
     inkscape:window-height="856"
     inkscape:window-x="51"
     inkscape:window-y="0"
     inkscape:window-maximized="1" />
  <metadata
     id="metadata5">
    <rdf:RDF>
      <cc:Work
         rdf:about="">
        <dc:format>image/svg+xml</dc:format>
        <dc:type
           rdf:resource="http://purl.org/dc/dcmitype/StillImage" />
        <dc:title />
      </cc:Work>
    </rdf:RDF>
  </metadata>
  <g
     inkscape:label="Layer 1"
     inkscape:groupmode="layer"
     id="layer1"
     transform="translate(0,-263.13332)">
    <path
       inkscape:connector-curvature="0"
       style="opacity:0.25;fill:#000000;fill-opacity:1;fill-rule:nonzero;stroke:none;stroke-width:0.12855643;stroke-miterlimit:4;stroke-dasharray:none;stroke-opacity:1"
       d="M 2.6275413,267.52582 H 31.239111 c 0.831383,0 1.504941,0.67355 1.504941,1.50716 v 22.58738 c 0,0.83138 -0.673558,1.50493 -1.504941,1.50493 H 2.6275413 c -0.831383,0 -1.5049329,-0.67355 -1.5049329,-1.50493 v -22.58738 c 0,-0.83361 0.6735499,-1.50716 1.5049329,-1.50716 z m 0,0"
       id="path1709" />
    <path
       id="path1362"
       d="M 2.6275413,267.07229 H 31.239111 c 0.831383,0 1.504941,0.67356 1.504941,1.50717 v 22.58738 c 0,0.83138 -0.673558,1.50493 -1.504941,1.50493 H 2.6275413 c -0.831383,0 -1.5049329,-0.67355 -1.5049329,-1.50493 v -22.58738 c 0,-0.83361 0.6735499,-1.50717 1.5049329,-1.50717 z m 0,0"
       style="fill:url(#linearGradient1450);fill-opacity:1;fill-rule:nonzero;stroke:#333b40;stroke-width:0.12855643;stroke-miterlimit:4;stroke-dasharray:none;stroke-opacity:1"
       inkscape:connector-curvature="0" />
    <path
       id="path1366"
       d="m 2.6275413,267.07229 c -0.8336027,0 -1.5049329,0.67133 -1.5049329,1.50717 v 22.58738 c 0,0.8336 0.6713302,1.50493 1.5049329,1.50493 h 0.7535806 v -25.59948 z m 27.8579887,0 v 25.59948 h 0.753581 c 0.833611,0 1.504941,-0.67133 1.504941,-1.50493 v -22.58738 c 0,-0.83584 -0.67133,-1.50717 -1.504941,-1.50717 z m 0,0"
       style="fill:url(#linearGradient1394);fill-rule:nonzero;stroke:#333b40;stroke-width:0.12855643;stroke-miterlimit:4;stroke-dasharray:none;stroke-opacity:1"
       inkscape:connector-curvature="0" />
    <path
       inkscape:connector-curvature="0"
       style="opacity:0.25;fill:#000000;fill-rule:nonzero;stroke:none;stroke-width:0.56907481"
       d="m 2.6275413,267.52582 c -0.8336027,0 -1.5049329,0.58908 -1.5049329,1.3182 l 14.3046706,14.11795 c 0.564628,0.56463 1.035899,0.84695 1.507161,0.84695 0.469042,0 0.940305,-0.28232 1.504933,-0.84695 l 14.304679,-14.11795 c 0,-0.72912 -0.67133,-1.3182 -1.504941,-1.3182 z m 0,0"
       id="path1707" />
    <path
       id="path1372"
       d="m 2.6275413,267.07229 c -0.8336027,0 -1.5049329,0.58909 -1.5049329,1.31821 l 14.3046706,14.11795 c 0.564628,0.56463 1.035899,0.84695 1.507161,0.84695 0.469042,0 0.940305,-0.28232 1.504933,-0.84695 L 32.744052,268.3905 c 0,-0.72912 -0.67133,-1.31821 -1.504941,-1.31821 z m 0,0"
       style="fill:url(#linearGradient1396);fill-rule:nonzero;stroke:#333b40;stroke-width:0.12855643;stroke-miterlimit:4;stroke-dasharray:none;stroke-opacity:1"
       inkscape:connector-curvature="0" />
    <path
       id="path1374"
       d="m 3.0054458,267.07229 12.9242232,12.84864 c 0.377896,0.38681 0.691333,0.5802 1.004771,0.5802 0.313438,0 0.626876,-0.19339 1.002552,-0.5802 l 13.302119,-12.84864 z m 0,0"
       style="fill:#e3eaed;fill-opacity:1;fill-rule:nonzero;stroke:#333b40;stroke-width:0.12855643;stroke-miterlimit:4;stroke-dasharray:none;stroke-opacity:1"
       inkscape:connector-curvature="0" />
  </g>
</svg>
