<?xml version="1.0" encoding="UTF-8" standalone="no"?>
<!-- Created with Inkscape (http://www.inkscape.org/) -->

<svg
   xmlns:osb="http://www.openswatchbook.org/uri/2009/osb"
   xmlns:dc="http://purl.org/dc/elements/1.1/"
   xmlns:cc="http://creativecommons.org/ns#"
   xmlns:rdf="http://www.w3.org/1999/02/22-rdf-syntax-ns#"
   xmlns:svg="http://www.w3.org/2000/svg"
   xmlns="http://www.w3.org/2000/svg"
   xmlns:xlink="http://www.w3.org/1999/xlink"
   xmlns:sodipodi="http://sodipodi.sourceforge.net/DTD/sodipodi-0.dtd"
   xmlns:inkscape="http://www.inkscape.org/namespaces/inkscape"
   width="128"
   height="128"
   viewBox="0 0 33.866666 33.866668"
   version="1.1"
   id="svg8"
   inkscape:version="0.92.2 5c3e80d, 2017-08-06"
   sodipodi:docname="gnome-sound-recorder.svg">
  <defs
     id="defs2">
    <linearGradient
       inkscape:collect="always"
       id="linearGradient1506">
      <stop
         style="stop-color:#4d4d4d;stop-opacity:1"
         offset="0"
         id="stop1502" />
      <stop
         style="stop-color:#353534;stop-opacity:1"
         offset="1"
         id="stop1504" />
    </linearGradient>
    <linearGradient
       inkscape:collect="always"
       id="linearGradient1496">
      <stop
         style="stop-color:#d0e5ec;stop-opacity:1"
         offset="0"
         id="stop1492" />
      <stop
         style="stop-color:#777676;stop-opacity:1"
         offset="1"
         id="stop1494" />
    </linearGradient>
    <linearGradient
       osb:paint="solid"
       id="linearGradient6211">
      <stop
         id="stop6209"
         offset="0"
         style="stop-color:#666666;stop-opacity:1;" />
    </linearGradient>
    <linearGradient
       id="linearGradient927"
       inkscape:collect="always">
      <stop
         id="stop923"
         offset="0"
         style="stop-color:#4d4d4d;stop-opacity:1" />
      <stop
         id="stop925"
         offset="1"
         style="stop-color:#1a1a1a;stop-opacity:1" />
    </linearGradient>
    <linearGradient
       osb:paint="solid"
       id="linearGradient6987">
      <stop
         id="stop6985"
         offset="0"
         style="stop-color:#77d2fb;stop-opacity:1;" />
    </linearGradient>
    <linearGradient
       gradientTransform="matrix(4.2723857,0,0,1.0259627,-192.06233,-102.95275)"
       gradientUnits="userSpaceOnUse"
       y2="192.12115"
       x2="60.816216"
       y1="192.12115"
       x1="58.177284"
       id="linearGradient1096"
       xlink:href="#linearGradient927"
       inkscape:collect="always" />
    <linearGradient
       inkscape:collect="always"
       xlink:href="#linearGradient1496"
       id="linearGradient1498"
       x1="69.973152"
       y1="46.838661"
       x2="72.17337"
       y2="196.5096"
       gradientUnits="userSpaceOnUse"
       gradientTransform="matrix(0.20994704,0,0,0.21002038,-3.206745,253.89389)" />
    <linearGradient
       inkscape:collect="always"
       xlink:href="#linearGradient1506"
       id="linearGradient1508"
       x1="98.661377"
       y1="91.266396"
       x2="99.726761"
       y2="175.40871"
       gradientUnits="userSpaceOnUse" />
    <linearGradient
       inkscape:collect="always"
       xlink:href="#linearGradient1506"
       id="linearGradient1510"
       gradientUnits="userSpaceOnUse"
       x1="98.661377"
       y1="91.266396"
       x2="99.726761"
       y2="175.40871" />
    <linearGradient
       inkscape:collect="always"
       xlink:href="#linearGradient1506"
       id="linearGradient1512"
       gradientUnits="userSpaceOnUse"
       x1="98.661377"
       y1="91.266396"
       x2="99.726761"
       y2="175.40871" />
  </defs>
  <sodipodi:namedview
     id="base"
     pagecolor="#ffffff"
     bordercolor="#666666"
     borderopacity="1.0"
     inkscape:pageopacity="0.0"
     inkscape:pageshadow="2"
     inkscape:zoom="1.979899"
     inkscape:cx="-30.303852"
     inkscape:cy="104.09905"
     inkscape:document-units="mm"
     inkscape:current-layer="layer1"
     showgrid="false"
     inkscape:window-width="1600"
     inkscape:window-height="803"
     inkscape:window-x="0"
     inkscape:window-y="0"
     inkscape:window-maximized="1"
     units="px" />
  <metadata
     id="metadata5">
    <rdf:RDF>
      <cc:Work
         rdf:about="">
        <dc:format>image/svg+xml</dc:format>
        <dc:type
           rdf:resource="http://purl.org/dc/dcmitype/StillImage" />
        <dc:title />
      </cc:Work>
    </rdf:RDF>
  </metadata>
  <g
     inkscape:label="Layer 1"
     inkscape:groupmode="layer"
     id="layer1"
     transform="translate(0,-263.13332)">
    <circle
       r="0"
       cy="94.15641"
       cx="62.130737"
       id="path1084-3"
       style="opacity:1;fill:url(#linearGradient1096);fill-opacity:1;stroke:none;stroke-width:1.30081999;stroke-linecap:round;stroke-linejoin:round;stroke-miterlimit:4;stroke-dasharray:none;stroke-opacity:1" />
    <g
       id="g850"
       transform="matrix(0.95238073,0,0,0.95238073,0.80635251,13.336557)">
      <rect
         style="opacity:0.25;fill:#000000;fill-opacity:1;fill-rule:nonzero;stroke:none;stroke-width:0.30000001;stroke-miterlimit:4;stroke-dasharray:none;stroke-opacity:1"
         id="rect1500"
         width="32.670475"
         height="32.698158"
         x="0.59809631"
         y="264.03726"
         ry="1.3595622" />
      <rect
         ry="1.3595622"
         y="263.54791"
         x="0.59809631"
         height="32.698158"
         width="32.670475"
         id="rect1449"
         style="opacity:1;fill:url(#linearGradient1498);fill-opacity:1;fill-rule:nonzero;stroke:#415366;stroke-width:0.30000001;stroke-miterlimit:4;stroke-dasharray:none;stroke-opacity:1" />
      <g
         transform="matrix(0.20994704,0,0,0.21002038,-4.386306,254.056)"
         style="fill:url(#linearGradient1508);fill-opacity:1;stroke:#1a1a1a;stroke-width:0.4762274;stroke-miterlimit:4;stroke-dasharray:none;stroke-opacity:1"
         id="g1490">
        <path
           sodipodi:nodetypes="ccccccccccscccccccccccccccccscccccccccccccccccccccccccc"
           inkscape:connector-curvature="0"
           d="m 73.832655,105.99283 c -1.079925,0.0203 -2.145933,0.59385 -2.71059,1.7166 -0.303929,0.60428 -0.340483,1.44052 -0.441696,10.20227 -0.116255,10.05689 -0.01981,12.52978 0.610876,15.63389 1.233417,6.07046 4.441535,11.87631 8.883865,16.0781 2.08335,1.97051 3.073561,2.63629 6.477803,4.35704 3.532159,1.78545 6.152265,2.72036 9.210952,3.28658 1.139562,0.21093 2.193811,0.44707 2.342894,0.52465 0.228791,0.11932 0.265561,0.70641 0.235067,3.81036 -0.07045,7.16555 -0.252265,10.95363 -0.539138,11.2395 -0.220108,0.21938 -1.205391,0.26298 -5.948594,0.26298 -6.201863,0 -6.407715,0.027 -7.359379,1.0377 -1.317463,1.39703 -0.782884,3.99999 1.003393,4.88487 0.77222,0.38251 0.785761,0.38322 16.146682,0.33667 l 15.37385,-0.0466 0.68351,-0.51975 c 0.81931,-0.62281 1.35739,-1.71845 1.36251,-2.77579 0.005,-0.9793 -0.35804,-1.68107 -1.201,-2.3222 l -0.66366,-0.50488 -6.02979,-0.0899 c -4.87826,-0.0727 -6.05924,-0.13792 -6.18455,-0.34033 -0.17157,-0.27718 -0.37219,-5.51305 -0.4277,-11.16263 -0.0305,-3.10398 0.006,-3.69106 0.23506,-3.81035 0.14908,-0.0778 1.2029,-0.31335 2.34244,-0.52421 3.0587,-0.56626 5.67924,-1.50114 9.2114,-3.28659 3.36353,-1.7002 4.3657,-2.36905 6.3623,-4.246 4.51311,-4.24265 7.75797,-10.08001 8.99936,-16.18957 0.62912,-3.09614 0.72345,-5.54804 0.60501,-15.65685 -0.10915,-9.31546 -0.1234,-9.62033 -0.49222,-10.27555 -0.98641,-1.75243 -3.23199,-2.15454 -4.78053,-0.85602 -1.06201,0.89053 -1.07082,0.97764 -1.19287,12.48803 -0.0858,8.0979 -0.1733,10.87285 -0.38079,12.06496 -1.73082,9.94429 -9.28092,17.6321 -19.40949,19.7648 -2.14558,0.4518 -7.06988,0.4518 -9.215466,0 -10.13275,-2.13358 -17.678761,-9.81973 -19.411312,-19.77379 -0.208632,-1.1987 -0.300061,-4.02747 -0.397475,-12.28437 -0.123371,-10.45049 -0.136556,-10.74484 -0.507105,-11.40318 -0.620358,-1.10206 -1.713702,-1.63918 -2.7936,-1.62035 z m 44.992275,27.20656 c -0.004,8.8e-4 -0.009,0.007 -0.0125,0.0203 -0.0355,0.12507 -0.0261,0.27752 0,0.43879 0.0186,-0.0379 0.0384,-0.0713 0.0555,-0.11256 0.0372,-0.0892 -0.0102,-0.3531 -0.0429,-0.34665 z m 0.20484,0.55842 c -0.0529,0.0588 -0.10366,0.11695 -0.16197,0.17847 0.0122,0.0517 0.0214,0.10107 0.0339,0.15279 0.0443,-0.10952 0.0855,-0.22073 0.12812,-0.33126 z m -20.66689,9.74323 c 0.06686,0.0717 0.135138,0.14129 0.210237,0.20417 0.03911,0.0338 -0.03358,-0.10479 -0.07622,-0.13217 -0.04277,-0.027 -0.08789,-0.0504 -0.133984,-0.072 z"
           style="fill:url(#linearGradient1510);fill-opacity:1;stroke:#1a1a1a;stroke-width:0.4762274;stroke-miterlimit:4;stroke-dasharray:none;stroke-opacity:1"
           id="path4630" />
        <rect
           style="opacity:1;fill:url(#linearGradient1512);fill-opacity:1;fill-rule:evenodd;stroke:#1a1a1a;stroke-width:0.4762274;stroke-miterlimit:4;stroke-dasharray:none;stroke-dashoffset:0;stroke-opacity:1"
           id="rect993"
           width="36.933994"
           height="79.452133"
           x="83.093216"
           y="66.6959"
           ry="17.390907"
           rx="18.466997" />
      </g>
    </g>
  </g>
</svg>
