<?xml version="1.0" encoding="UTF-8" standalone="no"?>
<!-- Created with Inkscape (http://www.inkscape.org/) -->

<svg
   xmlns:osb="http://www.openswatchbook.org/uri/2009/osb"
   xmlns:dc="http://purl.org/dc/elements/1.1/"
   xmlns:cc="http://creativecommons.org/ns#"
   xmlns:rdf="http://www.w3.org/1999/02/22-rdf-syntax-ns#"
   xmlns:svg="http://www.w3.org/2000/svg"
   xmlns="http://www.w3.org/2000/svg"
   xmlns:xlink="http://www.w3.org/1999/xlink"
   xmlns:sodipodi="http://sodipodi.sourceforge.net/DTD/sodipodi-0.dtd"
   xmlns:inkscape="http://www.inkscape.org/namespaces/inkscape"
   width="128"
   height="128"
   viewBox="0 0 33.866665 33.866665"
   version="1.1"
   id="svg4942"
   inkscape:version="0.92.3 (2405546, 2018-03-11)"
   sodipodi:docname="gnome-settings.svg">
  <defs
     id="defs4936">
    <linearGradient
       inkscape:collect="always"
       id="linearGradient1168">
      <stop
         style="stop-color:#585e61;stop-opacity:1"
         offset="0"
         id="stop1164" />
      <stop
         style="stop-color:#494e51;stop-opacity:1"
         offset="1"
         id="stop1166" />
    </linearGradient>
    <linearGradient
       inkscape:collect="always"
       id="linearGradient1160">
      <stop
         style="stop-color:#414446;stop-opacity:1"
         offset="0"
         id="stop1156" />
      <stop
         style="stop-color:#4d5152;stop-opacity:1"
         offset="1"
         id="stop1158" />
    </linearGradient>
    <linearGradient
       inkscape:collect="always"
       id="linearGradient1152">
      <stop
         style="stop-color:#3a3c3d;stop-opacity:1"
         offset="0"
         id="stop1148" />
      <stop
         style="stop-color:#3f4142;stop-opacity:1"
         offset="1"
         id="stop1150" />
    </linearGradient>
    <linearGradient
       inkscape:collect="always"
       id="linearGradient1104">
      <stop
         id="stop1100"
         offset="0"
         style="stop-color:#cdd4d7;stop-opacity:1" />
      <stop
         id="stop1102"
         offset="1"
         style="stop-color:#878684;stop-opacity:1" />
    </linearGradient>
    <linearGradient
       inkscape:collect="always"
       id="linearGradient1098">
      <stop
         id="stop1094"
         offset="0"
         style="stop-color:#fefefe;stop-opacity:1" />
      <stop
         id="stop1096"
         offset="1"
         style="stop-color:#bfbfbf;stop-opacity:1" />
    </linearGradient>
    <linearGradient
       id="linearGradient6987"
       osb:paint="solid">
      <stop
         style="stop-color:#77d2fb;stop-opacity:1;"
         offset="0"
         id="stop6985" />
    </linearGradient>
    <linearGradient
       y2="393.44238"
       x2="-422.19818"
       y1="286.10971"
       x1="-425.94803"
       gradientTransform="matrix(0.20382951,0,0,0.20384123,103.74546,210.46572)"
       gradientUnits="userSpaceOnUse"
       id="linearGradient1048"
       xlink:href="#linearGradient1104"
       inkscape:collect="always" />
    <linearGradient
       inkscape:collect="always"
       xlink:href="#linearGradient1098"
       id="linearGradient1092"
       x1="11.560438"
       y1="289.35126"
       x2="11.53182"
       y2="297.72647"
       gradientUnits="userSpaceOnUse"
       gradientTransform="matrix(3.5934372,0,0,3.5936438,-24.419848,-775.52134)" />
    <linearGradient
       inkscape:collect="always"
       xlink:href="#linearGradient1152"
       id="linearGradient1154"
       x1="-86.511612"
       y1="16.59428"
       x2="-121.38387"
       y2="61.475628"
       gradientUnits="userSpaceOnUse"
       gradientTransform="matrix(0.24728851,0,0,0.24730273,35.602283,262.53577)" />
    <linearGradient
       inkscape:collect="always"
       xlink:href="#linearGradient1160"
       id="linearGradient1162"
       x1="-31.910156"
       y1="71.567963"
       x2="-61.761288"
       y2="114.31342"
       gradientUnits="userSpaceOnUse"
       gradientTransform="matrix(0.24728851,0,0,0.24730273,35.602283,262.53577)" />
    <linearGradient
       inkscape:collect="always"
       xlink:href="#linearGradient1168"
       id="linearGradient1170"
       x1="-19.978573"
       y1="304.72348"
       x2="-21.049126"
       y2="314.06503"
       gradientUnits="userSpaceOnUse"
       gradientTransform="matrix(0.93463376,0,0,0.9346875,35.602283,-9.1311455)" />
  </defs>
  <sodipodi:namedview
     id="base"
     pagecolor="#ffffff"
     bordercolor="#666666"
     borderopacity="1.0"
     inkscape:pageopacity="0.0"
     inkscape:pageshadow="2"
     inkscape:zoom="2.4516413"
     inkscape:cx="86.805959"
     inkscape:cy="24.840258"
     inkscape:document-units="mm"
     inkscape:current-layer="layer1"
     showgrid="false"
     units="px"
     width="128px"
     inkscape:window-width="1600"
     inkscape:window-height="806"
     inkscape:window-x="0"
     inkscape:window-y="30"
     inkscape:window-maximized="0"
     inkscape:measure-start="-293.521,100.415"
     inkscape:measure-end="-294.709,409.978"
     showguides="true" />
  <metadata
     id="metadata4939">
    <rdf:RDF>
      <cc:Work
         rdf:about="">
        <dc:format>image/svg+xml</dc:format>
        <dc:type
           rdf:resource="http://purl.org/dc/dcmitype/StillImage" />
        <dc:title />
      </cc:Work>
    </rdf:RDF>
  </metadata>
  <g
     inkscape:label="Layer 1"
     inkscape:groupmode="layer"
     id="layer1"
     transform="translate(0,-263.13332)">
    <g
       id="g4571"
       transform="matrix(0.99985057,0,0,0.99985057,0.00253124,0.04423027)">
      <ellipse
         ry="15.580073"
         rx="15.579177"
         style="opacity:0.25;fill:#000000;fill-opacity:1;fill-rule:nonzero;stroke:none;stroke-width:0.19047618;stroke-linecap:round;stroke-linejoin:round;stroke-miterlimit:4;stroke-dasharray:none;stroke-dashoffset:0;stroke-opacity:1"
         id="circle1146"
         cx="16.933332"
         cy="280.36157" />
      <ellipse
         ry="15.580073"
         rx="15.579177"
         cy="279.86697"
         cx="16.933332"
         id="circle1084"
         style="opacity:1;fill:url(#linearGradient1092);fill-opacity:1;fill-rule:nonzero;stroke:#666666;stroke-width:0.2;stroke-linecap:round;stroke-linejoin:round;stroke-miterlimit:4;stroke-dasharray:none;stroke-dashoffset:0;stroke-opacity:1" />
      <ellipse
         ry="14.003212"
         rx="14.002407"
         style="opacity:1;fill:#2d2f33;fill-opacity:1;fill-rule:nonzero;stroke:none;stroke-width:0.01092246;stroke-linecap:round;stroke-linejoin:round;stroke-miterlimit:4;stroke-dasharray:none;stroke-dashoffset:0;stroke-opacity:1"
         id="circle1042"
         cx="16.933332"
         cy="279.86697" />
      <path
         style="opacity:0.25;fill:#000000;fill-opacity:1;stroke-width:0.01117508"
         d="m 16.929634,275.69007 c -0.205141,0 -0.200158,-0.007 -0.268186,0.35665 -0.02514,0.13422 -0.05153,0.25 -0.0586,0.25708 -0.02472,0.0249 -0.324533,0.0629 -0.373089,0.0475 -0.03149,-0.0102 -0.09352,-0.10853 -0.173317,-0.27583 -0.14018,-0.29355 -0.143377,-0.29536 -0.385215,-0.21457 -0.119853,0.0401 -0.12521,0.0459 -0.132287,0.14186 -0.0041,0.0551 0.0031,0.18447 0.01548,0.2874 0.01259,0.10275 0.01411,0.20447 0.0031,0.22576 -0.02466,0.0477 -0.335453,0.17806 -0.379152,0.15888 -0.01767,-0.008 -0.10922,-0.10955 -0.20363,-0.22638 -0.15479,-0.19148 -0.178199,-0.21087 -0.237453,-0.19617 -0.09317,0.0228 -0.278539,0.13456 -0.295157,0.17807 -0.0077,0.0192 0.02668,0.14425 0.07646,0.27582 0.04977,0.13166 0.09055,0.26024 0.09055,0.28571 0,0.0521 -0.243207,0.24781 -0.3077,0.24781 -0.02241,0 -0.143528,-0.0675 -0.269129,-0.14986 -0.125601,-0.0824 -0.240801,-0.14987 -0.256007,-0.14987 -0.03754,0 -0.266779,0.22807 -0.266779,0.26542 0,0.0175 0.07298,0.13915 0.162173,0.27245 0.182951,0.27369 0.182908,0.25659 -3.03e-4,0.47364 -0.09578,0.11346 -0.08483,0.11413 -0.470101,-0.0274 l -0.19575,-0.0722 -0.06049,0.0751 c -0.03327,0.0413 -0.07956,0.12452 -0.102877,0.1853 l -0.04238,0.1104 0.135586,0.11466 c 0.07457,0.0631 0.178989,0.15428 0.232017,0.20276 l 0.09645,0.0883 -0.0668,0.16671 c -0.03672,0.0917 -0.07986,0.17719 -0.09587,0.18977 -0.0179,0.0136 -0.139074,0.0119 -0.3134,-0.004 -0.328637,-0.0305 -0.32304,-0.0334 -0.377427,0.19339 -0.04198,0.17503 -0.03547,0.18318 0.262963,0.32538 0.146845,0.0701 0.237644,0.1286 0.247539,0.15973 0.02044,0.0645 -0.02713,0.35785 -0.06145,0.37907 -0.01463,0.008 -0.14142,0.0365 -0.281777,0.0606 -0.140349,0.0245 -0.269248,0.0558 -0.286429,0.0695 -0.04215,0.0342 -0.04215,0.35416 0,0.38842 0.01725,0.0137 0.146065,0.0454 0.286429,0.0696 0.140348,0.0243 0.267128,0.0517 0.281777,0.0608 0.03433,0.0213 0.0819,0.31465 0.06145,0.37907 -0.0099,0.0311 -0.100698,0.09 -0.247539,0.15972 -0.29731,0.14187 -0.306283,0.15259 -0.264531,0.31873 0.05161,0.20553 0.06232,0.21727 0.195643,0.21637 0.06481,-4.1e-4 0.196538,-0.0102 0.292755,-0.0235 0.128901,-0.0175 0.18295,-0.0136 0.205418,0.007 0.0589,0.058 0.153396,0.32708 0.130092,0.3706 -0.01208,0.0228 -0.113116,0.1172 -0.224334,0.21001 -0.180393,0.15038 -0.200499,0.17573 -0.186229,0.23375 0.02276,0.0925 0.134753,0.27802 0.177923,0.29461 0.02002,0.008 0.144194,-0.0268 0.275816,-0.0764 0.131641,-0.0498 0.260125,-0.0905 0.285594,-0.0905 0.05193,0 0.247909,0.24322 0.247909,0.30771 0,0.0223 -0.0675,0.14358 -0.149977,0.2691 -0.08246,0.12554 -0.149959,0.24084 -0.149959,0.25603 0,0.0379 0.228257,0.26679 0.266098,0.26679 0.01684,0 0.131419,-0.0676 0.2547,-0.14988 0.123288,-0.0823 0.243882,-0.14986 0.267979,-0.14986 0.06409,0 0.310784,0.19851 0.310784,0.2501 0,0.0243 -0.04066,0.15157 -0.09044,0.28341 -0.04977,0.13166 -0.08427,0.2558 -0.07658,0.27584 0.01667,0.0432 0.202117,0.1553 0.295263,0.17806 0.05925,0.0136 0.08262,-0.004 0.2374,-0.19617 0.09444,-0.11686 0.184866,-0.21827 0.201031,-0.22539 0.04245,-0.0192 0.357844,0.11159 0.381243,0.15769 0.01089,0.0213 0.01072,0.11755 -4.03e-4,0.21377 -0.01106,0.0963 -0.02087,0.22331 -0.02152,0.28244 -0.0012,0.0999 0.0051,0.11023 0.08672,0.14425 0.0484,0.0192 0.137338,0.0434 0.197668,0.0519 l 0.109714,0.0136 0.125806,-0.26333 c 0.0809,-0.16943 0.143206,-0.26893 0.174722,-0.27893 0.04856,-0.0136 0.348414,0.0226 0.373141,0.0475 0.007,0.007 0.03344,0.12264 0.0586,0.25701 0.02514,0.13423 0.057,0.26947 0.07078,0.30047 0.02247,0.0504 0.0428,0.0563 0.197471,0.0563 0.111262,0 0.181993,-0.0102 0.199458,-0.0326 0.01496,-0.0175 0.04591,-0.14647 0.069,-0.28536 0.02308,-0.13915 0.04967,-0.2652 0.05912,-0.28048 0.02187,-0.0354 0.314401,-0.0834 0.380511,-0.0624 0.03121,0.0102 0.08362,0.0876 0.139463,0.20702 0.04919,0.10529 0.111569,0.22338 0.138598,0.26261 0.04426,0.0641 0.05906,0.0695 0.14802,0.0554 0.05438,-0.008 0.137117,-0.0318 0.183886,-0.0514 0.08015,-0.0334 0.08497,-0.0423 0.08422,-0.15548 -4.03e-4,-0.066 -0.01106,-0.19873 -0.02357,-0.2949 -0.01684,-0.1286 -0.01496,-0.18275 0.007,-0.20405 0.04628,-0.0454 0.341055,-0.15751 0.374708,-0.14255 0.01633,0.007 0.106499,0.10802 0.200031,0.22364 0.09354,0.11567 0.189233,0.21045 0.212535,0.21024 0.04989,-3.1e-4 0.293029,-0.13557 0.318939,-0.17763 0.0099,-0.0135 -0.02582,-0.15785 -0.07933,-0.3155 l -0.09738,-0.28655 0.136011,-0.12231 c 0.07478,-0.0674 0.148428,-0.12247 0.163652,-0.12247 0.01531,0 0.137764,0.0732 0.272315,0.16262 0.134566,0.0893 0.259691,0.16262 0.278014,0.16262 0.04305,0 0.262175,-0.21871 0.262175,-0.26165 0,-0.0176 -0.06749,-0.13558 -0.149959,-0.26116 -0.08246,-0.12571 -0.15001,-0.24669 -0.15001,-0.26909 0,-0.062 0.199945,-0.30777 0.250154,-0.30777 0.02423,0 0.151814,0.0407 0.28345,0.0905 0.13164,0.0498 0.256039,0.0842 0.2765,0.0762 0.04435,-0.0176 0.188934,-0.26172 0.189359,-0.32026 2.01e-4,-0.0226 -0.09537,-0.12164 -0.212212,-0.21991 -0.243629,-0.20512 -0.251078,-0.22889 -0.142237,-0.45131 0.05626,-0.115 0.07748,-0.13694 0.129717,-0.13371 0.03435,0.002 0.172107,0.0119 0.306081,0.022 l 0.243568,0.0192 0.03809,-0.0912 c 0.02087,-0.0502 0.04491,-0.14068 0.05321,-0.20126 l 0.01514,-0.11024 -0.263691,-0.12639 c -0.166646,-0.0798 -0.26935,-0.14391 -0.279007,-0.17448 -0.02066,-0.0647 0.02811,-0.35714 0.06297,-0.37871 0.01531,-0.008 0.141488,-0.0361 0.280469,-0.0592 0.138988,-0.023 0.267353,-0.0541 0.285279,-0.0691 0.04438,-0.0369 0.04438,-0.35496 0,-0.39179 -0.01788,-0.0136 -0.146302,-0.0461 -0.285279,-0.0691 -0.138987,-0.023 -0.265198,-0.0495 -0.280469,-0.0592 -0.03512,-0.0218 -0.08342,-0.31417 -0.06267,-0.37953 0.01004,-0.0315 0.109526,-0.0939 0.278903,-0.17484 l 0.263376,-0.12571 -0.01514,-0.10972 c -0.0083,-0.0602 -0.03159,-0.14935 -0.0518,-0.19767 -0.03492,-0.0836 -0.04283,-0.0879 -0.156746,-0.0871 -0.06598,4.1e-4 -0.198688,0.0102 -0.294893,0.0237 -0.205037,0.0267 -0.207037,0.0253 -0.295369,-0.18658 -0.04238,-0.10173 -0.05526,-0.1628 -0.04018,-0.19105 0.01208,-0.0228 0.112368,-0.1167 0.222611,-0.20874 0.110241,-0.0921 0.200181,-0.18573 0.200181,-0.20874 -3.04e-4,-0.059 -0.144804,-0.30366 -0.189361,-0.3208 -0.02044,-0.008 -0.144856,0.0264 -0.276498,0.0762 -0.131639,0.0498 -0.259207,0.0905 -0.28345,0.0905 -0.05022,0 -0.250153,-0.24596 -0.250153,-0.30777 0,-0.0223 0.06755,-0.14356 0.149994,-0.26913 0.08246,-0.12571 0.149959,-0.24307 0.149959,-0.26111 0,-0.0432 -0.219369,-0.26166 -0.262854,-0.26166 -0.01875,0 -0.12737,0.0629 -0.241636,0.13948 -0.306398,0.20575 -0.270748,0.20001 -0.443076,0.0705 -0.08746,-0.0658 -0.152035,-0.13354 -0.152035,-0.15939 0,-0.0249 0.04076,-0.15276 0.09055,-0.28437 0.04977,-0.13167 0.08406,-0.25611 0.0762,-0.27659 -0.01722,-0.0449 -0.261977,-0.1891 -0.321502,-0.18933 -0.02328,-8e-5 -0.118966,0.0946 -0.212511,0.21022 -0.09354,0.11568 -0.183246,0.21624 -0.199413,0.22339 -0.04246,0.0193 -0.357796,-0.1116 -0.381242,-0.15769 -0.01089,-0.0213 -0.01106,-0.10632 -4.02e-4,-0.1887 0.01072,-0.0825 0.02022,-0.20958 0.02149,-0.28247 0.0021,-0.12775 -7.96e-4,-0.13371 -0.08284,-0.1679 -0.04678,-0.0192 -0.129514,-0.0425 -0.183886,-0.0514 -0.08898,-0.0136 -0.103726,-0.008 -0.147986,0.0554 -0.02703,0.0392 -0.08942,0.15752 -0.138597,0.26254 -0.05584,0.11925 -0.108302,0.19725 -0.139498,0.20705 -0.06612,0.0213 -0.35858,-0.0268 -0.380461,-0.0624 -0.0094,-0.0136 -0.03608,-0.1417 -0.05916,-0.28056 -0.02309,-0.13915 -0.05416,-0.26737 -0.06904,-0.28529 -0.0174,-0.0212 -0.08816,-0.0324 -0.199394,-0.0324 z m -0.125601,1.39908 c 0.06889,3.1e-4 0.139533,0.004 0.211064,0.0102 0.07155,0.007 0.143972,0.0175 0.216547,0.0279 0.145145,0.0237 0.29082,0.0566 0.430582,0.0953 0.139754,0.0384 0.273654,0.0825 0.395304,0.12775 0.121654,0.0454 0.23105,0.0921 0.321867,0.13591 0.06028,0.0293 0.119715,0.0612 0.178135,0.0961 0.05841,0.0349 0.11582,0.072 0.172,0.11142 0.0562,0.0393 0.111177,0.0811 0.164843,0.12452 0.05369,0.0434 0.10604,0.0888 0.156849,0.13558 0.101634,0.0936 0.197197,0.19297 0.285433,0.29505 0.08825,0.10223 0.169147,0.20725 0.241372,0.31202 0.07223,0.10477 0.135825,0.20958 0.189424,0.31112 0.05361,0.10156 0.09725,0.2 0.129616,0.29228 0.01616,0.0463 0.02953,0.0907 0.03994,0.13354 0.01037,0.0429 0.0179,0.0836 0.02211,0.12214 0.0042,0.0384 0.0052,0.0747 0.0033,0.10835 -0.0021,0.0337 -0.0077,0.0645 -0.01667,0.0925 -0.01021,0.0318 -0.02325,0.0602 -0.03873,0.0864 -0.01548,0.026 -0.03336,0.0496 -0.05306,0.0705 -0.01959,0.0213 -0.04122,0.0396 -0.06398,0.056 -0.02278,0.0176 -0.0468,0.0308 -0.07149,0.0431 -0.04943,0.0249 -0.101651,0.0419 -0.152103,0.0529 -0.05043,0.0102 -0.0991,0.0176 -0.141471,0.0176 -0.21417,0.007 -0.401104,0.004 -0.66511,-0.002 -0.264004,-0.007 -0.60508,-0.51208 -1.127524,-0.51591 v -3e-5 c -0.0079,8.8e-4 -0.04124,0.002 -0.09136,-0.002 -0.02507,-0.002 -0.05427,-0.007 -0.08655,-0.0119 -0.0323,-0.007 -0.06759,-0.0176 -0.104849,-0.0309 -0.03725,-0.0119 -0.07642,-0.52611 -0.116382,-0.54873 -0.03998,-0.0224 -0.08076,-0.0502 -0.121195,-0.0842 -0.04045,-0.0336 -0.08055,-0.0735 -0.119223,-0.12043 -0.03868,-0.0469 -0.0759,-0.1007 -0.110531,-0.16296 -0.171789,-0.30791 -0.321356,0.42539 -0.463042,0.17341 -0.07083,-0.12622 -0.139685,-0.25096 -0.208401,-0.38099 -0.06871,-0.13014 -0.137286,-0.26515 -0.207442,-0.41126 -0.02242,-0.0466 -0.04377,-0.10121 -0.05593,-0.15938 -0.0062,-0.0292 -0.0099,-0.0592 -0.01021,-0.0896 -4.87e-4,-0.0305 0.0022,-0.0616 0.0097,-0.0924 0.0071,-0.0309 0.01875,-0.0621 0.03543,-0.0922 0.01684,-0.0305 0.03894,-0.0602 0.06744,-0.0894 0.02847,-0.029 0.06334,-0.057 0.105529,-0.0832 0.04218,-0.0264 0.09173,-0.0512 0.149636,-0.0741 0.03608,-0.0136 0.07387,-0.0264 0.113116,-0.0365 0.03926,-0.0102 0.07995,-0.0192 0.121893,-0.025 0.08389,-0.0119 0.172702,-0.0192 0.264583,-0.0175 z m -1.878355,0.96927 c 0.02626,4.1e-4 0.05171,0.004 0.0763,0.008 0.02459,0.004 0.04832,0.0119 0.07115,0.022 0.04566,0.0192 0.08764,0.044 0.125568,0.0735 0.03792,0.0294 0.07168,0.0629 0.10097,0.0968 0.02931,0.034 0.05411,0.0686 0.07391,0.10037 0.114443,0.184 0.205696,0.34964 0.333365,0.58433 0.127694,0.23471 -0.202809,0.53844 0.05722,0.99853 0.0048,0.007 0.02334,0.0347 0.04446,0.081 0.01071,0.0232 0.02177,0.0508 0.03203,0.0828 0.01021,0.032 0.0196,0.068 0.0267,0.10751 0.007,0.0394 0.01174,0.0827 0.01259,0.12929 8.85e-4,0.0464 -0.0021,0.0963 -0.01021,0.14867 -0.0083,0.0524 -0.02178,0.10767 -0.04209,0.16534 -0.02024,0.0575 -0.04739,0.11738 -0.08271,0.17913 -0.175074,0.30598 0.1774,0.56621 0.03468,0.81758 -0.07138,0.1257 -0.142849,0.24912 -0.218742,0.37497 -0.07588,0.12588 -0.156152,0.25411 -0.244979,0.38936 -0.02839,0.0433 -0.06389,0.0894 -0.107248,0.12945 -0.02168,0.0193 -0.04531,0.0384 -0.07101,0.0543 -0.0257,0.0136 -0.05348,0.029 -0.08342,0.0382 -0.02992,0.008 -0.062,0.0136 -0.09634,0.0136 -0.03433,4.5e-4 -0.07095,-0.004 -0.109867,-0.0136 -0.03894,-0.0102 -0.08024,-0.0268 -0.123934,-0.0506 -0.04369,-0.0237 -0.08985,-0.0544 -0.138512,-0.0937 -0.03033,-0.0245 -0.05971,-0.0516 -0.08818,-0.0807 -0.02848,-0.0293 -0.05605,-0.0606 -0.08267,-0.0944 -0.05326,-0.0672 -0.102876,-0.14203 -0.148905,-0.22277 -0.04605,-0.0807 -0.08852,-0.16705 -0.12749,-0.25702 -0.03895,-0.09 -0.07441,-0.18317 -0.106431,-0.27772 -0.03201,-0.0946 -0.06062,-0.1902 -0.08583,-0.28478 -0.02521,-0.0946 -0.04705,-0.18807 -0.06559,-0.27837 -0.01853,-0.0903 -0.03383,-0.177 -0.04584,-0.25839 -0.01208,-0.0813 -0.02087,-0.15684 -0.02645,-0.22487 -0.0056,-0.0675 -0.0083,-0.13591 -0.0083,-0.20449 8e-6,-0.0689 0.0029,-0.13778 0.0078,-0.20702 0.0051,-0.0693 0.01276,-0.13847 0.02273,-0.20745 0.0099,-0.0691 0.02199,-0.13761 0.03612,-0.20574 0.02822,-0.13643 0.06445,-0.27022 0.106789,-0.39915 0.04235,-0.12877 0.09073,-0.25279 0.14341,-0.36905 0.05269,-0.11635 0.109645,-0.22483 0.168943,-0.32307 0.05929,-0.0981 0.120957,-0.18615 0.1831,-0.26114 0.03108,-0.0374 0.06227,-0.0716 0.09335,-0.10239 0.03106,-0.0309 0.06205,-0.0577 0.09267,-0.081 0.03062,-0.0232 0.06089,-0.0425 0.09058,-0.0575 0.0297,-0.0136 0.05879,-0.026 0.08706,-0.0322 0.03201,-0.007 0.06307,-0.0102 0.0931,-0.0102 z m 2.00777,0.97865 c 0.191958,-1e-5 1.33673,1.63484 1.336736,1.82117 -1.1e-5,0.18632 -1.365427,0.45083 -1.557381,0.45083 -0.191954,0 -0.832843,-0.77991 -0.832854,-0.96623 6e-6,-0.18633 0.861542,-1.30578 1.053499,-1.30577 z m 1.72589,1.67327 c 0.142883,-4.3e-4 0.283959,2.1e-4 0.429276,0.004 0.145315,0.004 0.294867,0.008 0.454678,0.0193 0.05108,0.004 0.108234,0.0102 0.164128,0.0291 0.02793,0.008 0.05556,0.0213 0.08196,0.0352 0.0264,0.0136 0.05159,0.0323 0.07459,0.0539 0.023,0.0214 0.04385,0.0471 0.06163,0.0769 0.0179,0.0299 0.03246,0.0641 0.04317,0.10342 0.01071,0.0393 0.0174,0.084 0.01917,0.13422 0.0017,0.0502 -0.0013,0.10632 -0.01021,0.16874 -0.0056,0.039 -0.01395,0.0784 -0.02441,0.11806 -0.01072,0.0394 -0.02367,0.0796 -0.03883,0.11976 -0.03035,0.0805 -0.06927,0.1616 -0.114884,0.2427 -0.04562,0.0809 -0.09791,0.1616 -0.154893,0.24097 -0.05697,0.0793 -0.118644,0.15752 -0.183035,0.23293 -0.0644,0.0755 -0.131538,0.14867 -0.199457,0.21836 -0.0679,0.0695 -0.13664,0.13576 -0.204161,0.19746 -0.06753,0.0616 -0.133817,0.11856 -0.197008,0.16993 -0.06319,0.0514 -0.123271,0.0971 -0.178243,0.13609 -0.05472,0.039 -0.111551,0.0755 -0.170083,0.11023 -0.05853,0.0344 -0.118763,0.067 -0.180265,0.0968 -0.06153,0.0303 -0.124325,0.0583 -0.188062,0.0844 -0.06373,0.026 -0.128323,0.0498 -0.19345,0.0716 -0.130245,0.0435 -0.262517,0.0793 -0.393575,0.10666 -0.131062,0.0278 -0.260955,0.0473 -0.386418,0.0594 -0.125465,0.0119 -0.246503,0.0176 -0.35997,0.0136 -0.113473,-0.002 -0.21932,-0.0119 -0.314392,-0.0296 -0.04753,-0.008 -0.09238,-0.0192 -0.134123,-0.0305 -0.04174,-0.0119 -0.08039,-0.0253 -0.115515,-0.0408 -0.03514,-0.0136 -0.06676,-0.0322 -0.09449,-0.0507 -0.02773,-0.0191 -0.05161,-0.0384 -0.07113,-0.0602 -0.02211,-0.0245 -0.04025,-0.0502 -0.05499,-0.0769 -0.01479,-0.0267 -0.02602,-0.0539 -0.03433,-0.0815 -0.0083,-0.0278 -0.01378,-0.056 -0.01667,-0.0842 -0.0031,-0.0282 -0.0033,-0.0565 -0.0017,-0.0844 0.0033,-0.0558 0.01446,-0.1104 0.0297,-0.16042 0.01531,-0.05 0.03467,-0.0956 0.05431,-0.1337 0.09918,-0.19297 0.194492,-0.35618 0.330277,-0.58618 0.135773,-0.22997 0.312048,-0.032 0.573278,-0.49138 0.0033,-0.007 0.01767,-0.0379 0.04668,-0.0799 0.01446,-0.0213 0.03251,-0.0448 0.05445,-0.0695 0.02196,-0.0251 0.04783,-0.0514 0.07802,-0.0774 0.03021,-0.0262 0.06472,-0.0521 0.103845,-0.0761 0.03916,-0.0241 0.08296,-0.0466 0.131759,-0.0655 0.04882,-0.0192 0.102621,-0.0351 0.161832,-0.0461 0.0592,-0.0102 0.123764,-0.0176 0.19407,-0.0176 0.348546,0 0.641522,-0.50115 0.927284,-0.50115 z"
         id="path1174"
         inkscape:connector-curvature="0"
         sodipodi:nodetypes="ccccccccccccccsscsscccccccccccccccccccccccccccccccccsscsscssccccccccccccccccsccccccccccccccccccscsscssccccccccccccccccccccccccccccccccsscssccsccccccccccccccccccccccccccccccccccccccccccccccccccccccccccccccccccccccccccccccccccccccccccccccccscccccccccccccccccccccccccccccccccccccccccccccccccccccccccccccccccccscc" />
      <path
         sodipodi:nodetypes="ccccccccccccccsscsscccccccccccccccccccccccccccccccccsscsscssccccccccccccccccsccccccccccccccccccscsscssccccccccccccccccccccccccccccccccsscssccsccccccccccccccccccccccccccccccccccccccccccccccccccccccccccccccccccccccccccccccccccccccccccccccccscccccccccccccccccccccccccccccccccccccccccccccccccccccccccccccccccccscc"
         inkscape:connector-curvature="0"
         id="path1118"
         d="m 16.929634,275.19546 c -0.205141,0 -0.200158,-0.007 -0.268186,0.35665 -0.02514,0.13422 -0.05153,0.25 -0.0586,0.25708 -0.02472,0.0249 -0.324533,0.0629 -0.373089,0.0475 -0.03149,-0.0102 -0.09352,-0.10853 -0.173317,-0.27582 -0.14018,-0.29356 -0.143377,-0.29537 -0.385215,-0.21458 -0.119853,0.0401 -0.12521,0.0459 -0.132287,0.14187 -0.0041,0.0551 0.0031,0.18447 0.01548,0.28739 0.01259,0.10275 0.01411,0.20448 0.0031,0.22576 -0.02466,0.0477 -0.335453,0.17806 -0.379152,0.15889 -0.01767,-0.008 -0.10922,-0.10956 -0.20363,-0.22639 -0.15479,-0.19148 -0.178199,-0.21087 -0.237453,-0.19617 -0.09317,0.0228 -0.278539,0.13456 -0.295157,0.17807 -0.0077,0.0192 0.02668,0.14425 0.07646,0.27582 0.04977,0.13166 0.09055,0.26024 0.09055,0.28571 0,0.0521 -0.243207,0.24782 -0.3077,0.24782 -0.02241,0 -0.143528,-0.0675 -0.269129,-0.14987 -0.125601,-0.0824 -0.240801,-0.14987 -0.256007,-0.14987 -0.03754,0 -0.266779,0.22807 -0.266779,0.26542 0,0.0175 0.07298,0.13915 0.162173,0.27246 0.182951,0.27368 0.182908,0.25659 -3.03e-4,0.47363 -0.09578,0.11346 -0.08483,0.11413 -0.470101,-0.0274 l -0.19575,-0.0721 -0.06049,0.075 c -0.03327,0.0413 -0.07956,0.12452 -0.102877,0.1853 l -0.04238,0.1104 0.135586,0.11466 c 0.07457,0.0631 0.178989,0.15429 0.232017,0.20276 l 0.09645,0.0883 -0.0668,0.16671 c -0.03672,0.0917 -0.07986,0.1772 -0.09587,0.18977 -0.0179,0.0136 -0.139074,0.0119 -0.3134,-0.004 -0.328637,-0.0305 -0.32304,-0.0334 -0.377427,0.19339 -0.04198,0.17503 -0.03547,0.18318 0.262963,0.32538 0.146845,0.0701 0.237644,0.1286 0.247539,0.15973 0.02044,0.0645 -0.02713,0.35785 -0.06145,0.37907 -0.01463,0.008 -0.14142,0.0365 -0.281777,0.0606 -0.140349,0.0245 -0.269248,0.0558 -0.286429,0.0695 -0.04215,0.0342 -0.04215,0.35416 0,0.38843 0.01725,0.0136 0.146065,0.0454 0.286429,0.0695 0.140348,0.0243 0.267128,0.0517 0.281777,0.0608 0.03433,0.0213 0.0819,0.31465 0.06145,0.37907 -0.0099,0.0311 -0.100698,0.09 -0.247539,0.15973 -0.29731,0.14186 -0.306283,0.15258 -0.264531,0.31872 0.05161,0.20553 0.06232,0.21727 0.195643,0.21638 0.06481,-4.2e-4 0.196538,-0.0102 0.292755,-0.0235 0.128901,-0.0175 0.18295,-0.0136 0.205418,0.007 0.0589,0.058 0.153396,0.32708 0.130092,0.3706 -0.01208,0.0228 -0.113116,0.1172 -0.224334,0.21002 -0.180393,0.15037 -0.200499,0.17572 -0.186229,0.23374 0.02276,0.0925 0.134753,0.27803 0.177923,0.29462 0.02002,0.008 0.144194,-0.0268 0.275816,-0.0764 0.131641,-0.0498 0.260125,-0.0905 0.285594,-0.0905 0.05193,0 0.247909,0.24322 0.247909,0.30771 0,0.0223 -0.0675,0.14358 -0.149977,0.2691 -0.08246,0.12554 -0.149959,0.24084 -0.149959,0.25603 0,0.038 0.228257,0.26679 0.266098,0.26679 0.01684,0 0.131419,-0.0676 0.2547,-0.14988 0.123288,-0.0824 0.243882,-0.14986 0.267979,-0.14986 0.06409,0 0.310784,0.19851 0.310784,0.2501 0,0.0243 -0.04066,0.15157 -0.09044,0.28341 -0.04977,0.13166 -0.08427,0.2558 -0.07658,0.27584 0.01667,0.0432 0.202117,0.1553 0.295263,0.17806 0.05925,0.0137 0.08262,-0.004 0.2374,-0.19617 0.09444,-0.11686 0.184866,-0.21827 0.201031,-0.22539 0.04245,-0.0192 0.357844,0.11159 0.381243,0.15769 0.01089,0.0213 0.01072,0.11755 -4.03e-4,0.21378 -0.01106,0.0963 -0.02087,0.2233 -0.02152,0.28243 -0.0012,0.0999 0.0051,0.11023 0.08672,0.14425 0.0484,0.0192 0.137338,0.0434 0.197668,0.0519 l 0.109714,0.0136 0.125806,-0.26333 c 0.0809,-0.16943 0.143206,-0.26893 0.174722,-0.27893 0.04856,-0.0136 0.348414,0.0226 0.373141,0.0475 0.007,0.007 0.03344,0.12265 0.0586,0.25702 0.02514,0.13422 0.057,0.26946 0.07078,0.30046 0.02247,0.0504 0.0428,0.0563 0.197471,0.0563 0.111262,0 0.181993,-0.0102 0.199458,-0.0326 0.01496,-0.0175 0.04591,-0.14647 0.069,-0.28536 0.02308,-0.13915 0.04967,-0.2652 0.05912,-0.28047 0.02187,-0.0354 0.314401,-0.0834 0.380511,-0.0624 0.03121,0.0102 0.08362,0.0876 0.139463,0.20702 0.04919,0.1053 0.111569,0.22338 0.138598,0.26261 0.04426,0.0641 0.05906,0.0695 0.14802,0.0554 0.05438,-0.008 0.137117,-0.0318 0.183886,-0.0514 0.08015,-0.0334 0.08497,-0.0423 0.08422,-0.15548 -4.03e-4,-0.066 -0.01106,-0.19873 -0.02357,-0.2949 -0.01684,-0.1286 -0.01496,-0.18275 0.007,-0.20405 0.04628,-0.0454 0.341055,-0.15751 0.374708,-0.14255 0.01633,0.007 0.106499,0.10802 0.200031,0.22364 0.09354,0.11567 0.189233,0.21045 0.212535,0.21024 0.04989,-3e-4 0.293029,-0.13557 0.318939,-0.17762 0.0099,-0.0136 -0.02582,-0.15786 -0.07933,-0.31551 l -0.09738,-0.28654 0.136011,-0.12232 c 0.07478,-0.0674 0.148428,-0.12247 0.163652,-0.12247 0.01531,0 0.137764,0.0732 0.272315,0.16263 0.134566,0.0893 0.259691,0.16261 0.278014,0.16261 0.04305,0 0.262175,-0.2187 0.262175,-0.26165 0,-0.0176 -0.06749,-0.13558 -0.149959,-0.26116 -0.08246,-0.12571 -0.15001,-0.24669 -0.15001,-0.26909 0,-0.062 0.199945,-0.30777 0.250154,-0.30777 0.02423,0 0.151814,0.0407 0.28345,0.0905 0.13164,0.0498 0.256039,0.0842 0.2765,0.0762 0.04435,-0.0176 0.188934,-0.26171 0.189359,-0.32026 2.01e-4,-0.0226 -0.09537,-0.12163 -0.212212,-0.21991 -0.243629,-0.20511 -0.251078,-0.22889 -0.142237,-0.45131 0.05626,-0.115 0.07748,-0.13694 0.129717,-0.13371 0.03435,0.002 0.172107,0.0119 0.306081,0.022 l 0.243568,0.0192 0.03809,-0.0912 c 0.02087,-0.0502 0.04491,-0.14068 0.05321,-0.20126 l 0.01514,-0.11024 -0.263691,-0.12639 c -0.166646,-0.0798 -0.26935,-0.14391 -0.279007,-0.17448 -0.02066,-0.0647 0.02811,-0.35714 0.06297,-0.37871 0.01531,-0.008 0.141488,-0.0361 0.280469,-0.0592 0.138988,-0.023 0.267353,-0.0541 0.285279,-0.0691 0.04438,-0.0369 0.04438,-0.35496 0,-0.39179 -0.01788,-0.0136 -0.146302,-0.0461 -0.285279,-0.0691 -0.138987,-0.023 -0.265198,-0.0495 -0.280469,-0.0592 -0.03512,-0.0218 -0.08342,-0.31417 -0.06267,-0.37953 0.01004,-0.0315 0.109526,-0.0939 0.278903,-0.17484 l 0.263376,-0.1257 -0.01514,-0.10973 c -0.0083,-0.0602 -0.03159,-0.14935 -0.0518,-0.19766 -0.03492,-0.0836 -0.04283,-0.088 -0.156746,-0.0871 -0.06598,4.1e-4 -0.198688,0.0102 -0.294893,0.0236 -0.205037,0.0267 -0.207037,0.0253 -0.295369,-0.18658 -0.04238,-0.10172 -0.05526,-0.1628 -0.04018,-0.19105 0.01208,-0.0228 0.112368,-0.1167 0.222611,-0.20874 0.110241,-0.0921 0.200181,-0.18573 0.200181,-0.20874 -3.04e-4,-0.059 -0.144804,-0.30366 -0.189361,-0.32079 -0.02044,-0.008 -0.144856,0.0264 -0.276498,0.0762 -0.131639,0.0498 -0.259207,0.0905 -0.28345,0.0905 -0.05022,0 -0.250153,-0.24596 -0.250153,-0.30776 0,-0.0223 0.06755,-0.14357 0.149994,-0.26914 0.08246,-0.1257 0.149959,-0.24306 0.149959,-0.26111 0,-0.0432 -0.219369,-0.26166 -0.262854,-0.26166 -0.01875,0 -0.12737,0.0629 -0.241636,0.13948 -0.306398,0.20575 -0.270748,0.20001 -0.443076,0.0705 -0.08746,-0.0658 -0.152035,-0.13354 -0.152035,-0.15939 0,-0.0249 0.04076,-0.15276 0.09055,-0.28437 0.04977,-0.13167 0.08406,-0.25611 0.0762,-0.27659 -0.01722,-0.0449 -0.261977,-0.1891 -0.321502,-0.18933 -0.02328,-8e-5 -0.118966,0.0946 -0.212511,0.21023 -0.09354,0.11567 -0.183246,0.21624 -0.199413,0.22339 -0.04246,0.0192 -0.357796,-0.11161 -0.381242,-0.1577 -0.01089,-0.0213 -0.01106,-0.10632 -4.02e-4,-0.1887 0.01072,-0.0825 0.02022,-0.20958 0.02149,-0.28247 0.0021,-0.12775 -7.96e-4,-0.13371 -0.08284,-0.1679 -0.04678,-0.0192 -0.129514,-0.0425 -0.183886,-0.0514 -0.08898,-0.0136 -0.103726,-0.008 -0.147986,0.0554 -0.02703,0.0392 -0.08942,0.15752 -0.138597,0.26254 -0.05584,0.11925 -0.108302,0.19725 -0.139498,0.20705 -0.06612,0.0213 -0.35858,-0.0268 -0.380461,-0.0624 -0.0094,-0.0136 -0.03608,-0.1417 -0.05916,-0.28056 -0.02309,-0.13915 -0.05416,-0.26736 -0.06904,-0.28529 -0.0174,-0.0212 -0.08816,-0.0324 -0.199394,-0.0324 z m -0.125601,1.39908 c 0.06889,3.1e-4 0.139533,0.004 0.211064,0.0102 0.07155,0.007 0.143972,0.0175 0.216547,0.0279 0.145145,0.0236 0.29082,0.0566 0.430582,0.0953 0.139754,0.0384 0.273654,0.0825 0.395304,0.12775 0.121654,0.0454 0.23105,0.0921 0.321867,0.13591 0.06028,0.0293 0.119715,0.0612 0.178135,0.0961 0.05841,0.0349 0.11582,0.072 0.172,0.11142 0.0562,0.0393 0.111177,0.0811 0.164843,0.12452 0.05369,0.0434 0.10604,0.0888 0.156849,0.13558 0.101634,0.0936 0.197197,0.19297 0.285433,0.29505 0.08825,0.10224 0.169147,0.20725 0.241372,0.31202 0.07223,0.10478 0.135825,0.20958 0.189424,0.31113 0.05361,0.10155 0.09725,0.19999 0.129616,0.29227 0.01616,0.0463 0.02953,0.0907 0.03994,0.13354 0.01037,0.0429 0.0179,0.0836 0.02211,0.12214 0.0042,0.0384 0.0052,0.0747 0.0033,0.10836 -0.0021,0.0336 -0.0077,0.0645 -0.01667,0.0925 -0.01021,0.0318 -0.02325,0.0602 -0.03873,0.0864 -0.01548,0.026 -0.03336,0.0496 -0.05306,0.0705 -0.01959,0.0213 -0.04122,0.0396 -0.06398,0.056 -0.02278,0.0176 -0.0468,0.0308 -0.07149,0.0431 -0.04943,0.0249 -0.101651,0.0419 -0.152103,0.0529 -0.05043,0.0102 -0.0991,0.0176 -0.141471,0.0176 -0.21417,0.007 -0.401104,0.004 -0.66511,-0.002 -0.264004,-0.007 -0.60508,-0.51207 -1.127524,-0.51591 v -2e-5 c -0.0079,8.7e-4 -0.04124,0.002 -0.09136,-0.002 -0.02507,-0.002 -0.05427,-0.007 -0.08655,-0.0119 -0.0323,-0.007 -0.06759,-0.0176 -0.104849,-0.0309 -0.03725,-0.0119 -0.07642,-0.52611 -0.116382,-0.54873 -0.03998,-0.0224 -0.08076,-0.0502 -0.121195,-0.0842 -0.04045,-0.0336 -0.08055,-0.0735 -0.119223,-0.12043 -0.03868,-0.0469 -0.0759,-0.1007 -0.110531,-0.16296 -0.171789,-0.30791 -0.321356,0.42539 -0.463042,0.17341 -0.07083,-0.12622 -0.139685,-0.25096 -0.208401,-0.38099 -0.06871,-0.13013 -0.137286,-0.26515 -0.207442,-0.41126 -0.02242,-0.0466 -0.04377,-0.10121 -0.05593,-0.15938 -0.0062,-0.0292 -0.0099,-0.0592 -0.01021,-0.0896 -4.87e-4,-0.0305 0.0022,-0.0616 0.0097,-0.0924 0.0071,-0.0309 0.01875,-0.0621 0.03543,-0.0922 0.01684,-0.0305 0.03894,-0.0602 0.06744,-0.0893 0.02847,-0.029 0.06334,-0.057 0.105529,-0.0832 0.04218,-0.0264 0.09173,-0.0512 0.149636,-0.0741 0.03608,-0.0136 0.07387,-0.0264 0.113116,-0.0366 0.03926,-0.0102 0.07995,-0.0192 0.121893,-0.0249 0.08389,-0.0119 0.172702,-0.0192 0.264583,-0.0175 z m -1.878355,0.96927 c 0.02626,4.1e-4 0.05171,0.004 0.0763,0.008 0.02459,0.004 0.04832,0.0119 0.07115,0.022 0.04566,0.0192 0.08764,0.044 0.125568,0.0735 0.03792,0.0294 0.07168,0.0629 0.10097,0.0968 0.02931,0.034 0.05411,0.0686 0.07391,0.10037 0.114443,0.184 0.205696,0.34964 0.333365,0.58433 0.127694,0.23471 -0.202809,0.53844 0.05722,0.99854 0.0048,0.007 0.02334,0.0347 0.04446,0.0809 0.01071,0.0232 0.02177,0.0509 0.03203,0.0828 0.01021,0.032 0.0196,0.0681 0.0267,0.10751 0.007,0.0394 0.01174,0.0827 0.01259,0.12929 8.85e-4,0.0464 -0.0021,0.0963 -0.01021,0.14867 -0.0083,0.0524 -0.02178,0.10767 -0.04209,0.16534 -0.02024,0.0575 -0.04739,0.11738 -0.08271,0.17913 -0.175074,0.30598 0.1774,0.56621 0.03468,0.81758 -0.07138,0.1257 -0.142849,0.24912 -0.218742,0.37497 -0.07588,0.12588 -0.156152,0.25411 -0.244979,0.38936 -0.02839,0.0433 -0.06389,0.0894 -0.107248,0.12945 -0.02168,0.0193 -0.04531,0.0384 -0.07101,0.0543 -0.0257,0.0137 -0.05348,0.029 -0.08342,0.0382 -0.02992,0.008 -0.062,0.0136 -0.09634,0.0136 -0.03433,4.5e-4 -0.07095,-0.004 -0.109867,-0.0136 -0.03894,-0.0102 -0.08024,-0.0268 -0.123934,-0.0506 -0.04369,-0.0236 -0.08985,-0.0544 -0.138512,-0.0937 -0.03033,-0.0245 -0.05971,-0.0516 -0.08818,-0.0807 -0.02848,-0.0293 -0.05605,-0.0606 -0.08267,-0.0944 -0.05326,-0.0672 -0.102876,-0.14203 -0.148905,-0.22277 -0.04605,-0.0807 -0.08852,-0.16705 -0.12749,-0.25702 -0.03895,-0.09 -0.07441,-0.18317 -0.106431,-0.27771 -0.03201,-0.0946 -0.06062,-0.1902 -0.08583,-0.28478 -0.02521,-0.0946 -0.04705,-0.18808 -0.06559,-0.27837 -0.01853,-0.0903 -0.03383,-0.17701 -0.04584,-0.2584 -0.01208,-0.0813 -0.02087,-0.15684 -0.02645,-0.22487 -0.0056,-0.0675 -0.0083,-0.13591 -0.0083,-0.20449 8e-6,-0.0689 0.0029,-0.13778 0.0078,-0.20702 0.0051,-0.0693 0.01276,-0.13846 0.02273,-0.20744 0.0099,-0.0691 0.02199,-0.13762 0.03612,-0.20575 0.02822,-0.13642 0.06445,-0.27022 0.106789,-0.39915 0.04235,-0.12877 0.09073,-0.25279 0.14341,-0.36905 0.05269,-0.11635 0.109645,-0.22483 0.168943,-0.32306 0.05929,-0.0982 0.120957,-0.18616 0.1831,-0.26115 0.03108,-0.0374 0.06227,-0.0716 0.09335,-0.10239 0.03106,-0.0308 0.06205,-0.0577 0.09267,-0.0809 0.03062,-0.0232 0.06089,-0.0425 0.09058,-0.0575 0.0297,-0.0135 0.05879,-0.026 0.08706,-0.0321 0.03201,-0.007 0.06307,-0.0102 0.0931,-0.0102 z m 2.00777,0.97865 c 0.191958,-1e-5 1.33673,1.63484 1.336736,1.82117 -1.1e-5,0.18632 -1.365427,0.45083 -1.557381,0.45083 -0.191954,0 -0.832843,-0.77991 -0.832854,-0.96623 6e-6,-0.18632 0.861542,-1.30578 1.053499,-1.30577 z m 1.72589,1.67328 c 0.142883,-4.4e-4 0.283959,2e-4 0.429276,0.004 0.145315,0.004 0.294867,0.008 0.454678,0.0192 0.05108,0.004 0.108234,0.0102 0.164128,0.0291 0.02793,0.008 0.05556,0.0213 0.08196,0.0352 0.0264,0.0136 0.05159,0.0323 0.07459,0.0539 0.023,0.0214 0.04385,0.0471 0.06163,0.0769 0.0179,0.0299 0.03246,0.0641 0.04317,0.10343 0.01071,0.0392 0.0174,0.084 0.01917,0.13421 0.0017,0.0502 -0.0013,0.10632 -0.01021,0.16875 -0.0056,0.039 -0.01395,0.0784 -0.02441,0.11806 -0.01072,0.0394 -0.02367,0.0796 -0.03883,0.11975 -0.03035,0.0805 -0.06927,0.16161 -0.114884,0.2427 -0.04562,0.0809 -0.09791,0.1616 -0.154893,0.24097 -0.05697,0.0793 -0.118644,0.15752 -0.183035,0.23293 -0.0644,0.0755 -0.131538,0.14868 -0.199457,0.21837 -0.0679,0.0695 -0.13664,0.13575 -0.204161,0.19745 -0.06753,0.0616 -0.133817,0.11856 -0.197008,0.16993 -0.06319,0.0514 -0.123271,0.0971 -0.178243,0.13609 -0.05472,0.039 -0.111551,0.0755 -0.170083,0.11023 -0.05853,0.0344 -0.118763,0.067 -0.180265,0.0968 -0.06153,0.0303 -0.124325,0.0583 -0.188062,0.0844 -0.06373,0.026 -0.128323,0.0498 -0.19345,0.0716 -0.130245,0.0435 -0.262517,0.0793 -0.393575,0.10666 -0.131062,0.0278 -0.260955,0.0473 -0.386418,0.0594 -0.125465,0.0119 -0.246503,0.0176 -0.35997,0.0136 -0.113473,-0.002 -0.21932,-0.0119 -0.314392,-0.0296 -0.04753,-0.008 -0.09238,-0.0192 -0.134123,-0.0305 -0.04174,-0.0119 -0.08039,-0.0253 -0.115515,-0.0408 -0.03514,-0.0136 -0.06676,-0.0322 -0.09449,-0.0507 -0.02773,-0.0191 -0.05161,-0.0384 -0.07113,-0.0602 -0.02211,-0.0245 -0.04025,-0.0502 -0.05499,-0.0769 -0.01479,-0.0267 -0.02602,-0.0539 -0.03433,-0.0815 -0.0083,-0.0278 -0.01378,-0.056 -0.01667,-0.0842 -0.0031,-0.0282 -0.0033,-0.0565 -0.0017,-0.0844 0.0033,-0.0558 0.01446,-0.1104 0.0297,-0.16041 0.01531,-0.05 0.03467,-0.0956 0.05431,-0.13371 0.09918,-0.19297 0.194492,-0.35617 0.330277,-0.58618 0.135773,-0.22997 0.312048,-0.032 0.573278,-0.49138 0.0033,-0.007 0.01767,-0.0379 0.04668,-0.0799 0.01446,-0.0213 0.03251,-0.0448 0.05445,-0.0695 0.02196,-0.0251 0.04783,-0.0514 0.07802,-0.0774 0.03021,-0.0262 0.06472,-0.0521 0.103845,-0.0761 0.03916,-0.0241 0.08296,-0.0466 0.131759,-0.0655 0.04882,-0.0192 0.102621,-0.0351 0.161832,-0.0461 0.0592,-0.0102 0.123764,-0.0176 0.19407,-0.0176 0.348546,0 0.641522,-0.50115 0.927284,-0.50115 z"
         style="opacity:1;fill:url(#linearGradient1170);fill-opacity:1;stroke-width:0.01117508" />
      <path
         inkscape:connector-curvature="0"
         style="opacity:0.25;fill:#000000;fill-opacity:1;fill-rule:nonzero;stroke:none;stroke-width:0.01092246;stroke-linecap:round;stroke-linejoin:round;stroke-miterlimit:4;stroke-dasharray:none;stroke-dashoffset:0;stroke-opacity:1"
         d="m 14.208928,266.63945 a 14.002407,14.003212 0 0 0 -1.927111,0.53035 c 0.01429,0.0261 0.03124,0.0528 0.04492,0.0787 0.113265,0.21454 0.205469,0.42281 0.273852,0.61777 0.03413,0.0977 0.06205,0.19152 0.08404,0.28208 0.02192,0.0906 0.03795,0.17636 0.04685,0.25793 0.009,0.0812 0.01108,0.1578 0.0067,0.22895 -0.0043,0.0711 -0.01621,0.13632 -0.03525,0.19562 -0.02156,0.0672 -0.04892,0.12675 -0.08162,0.1821 -0.0327,0.055 -0.07044,0.1054 -0.112052,0.14925 -0.04139,0.045 -0.08716,0.0834 -0.135236,0.11785 -0.04811,0.037 -0.099,0.0654 -0.151175,0.0913 -0.104425,0.0524 -0.214604,0.0882 -0.321185,0.11157 -0.106546,0.0216 -0.209455,0.0372 -0.298968,0.0372 -0.452446,0.0144 -0.847276,0.007 -1.405004,-0.004 -0.4940402,-0.0127 -1.1606144,-0.0308 -2.0633136,-0.0406 a 14.002407,14.003212 0 0 0 -1.0620842,0.95347 0.7342606,0.7127058 0 0 1 -0.6288477,0.67525 14.002407,14.003212 0 0 0 -3.3475712,7.22877 c 0.1626786,0.0709 0.3135023,0.15001 0.3356737,0.1937 0.023001,0.045 0.022525,0.24832 -9.346e-4,0.45161 -0.023357,0.2034 -0.044021,0.47161 -0.045395,0.59652 -0.00252,0.21095 0.010636,0.2329 0.1830508,0.30478 0.102234,0.0406 0.2903309,0.0917 0.4177841,0.10965 l 0.2318322,0.0285 0.2656425,-0.55596 c 0.1709034,-0.35792 0.3024213,-0.56814 0.368999,-0.58927 0.1025929,-0.0288 0.7359952,0.0475 0.7882318,0.1 0.01473,0.0144 0.0705,0.25904 0.1236446,0.54291 0.053115,0.28354 0.1206201,0.56917 0.1497255,0.63468 0.04747,0.10638 0.090538,0.1193 0.4173,0.1193 0.2350473,0 0.3842662,-0.0217 0.4211646,-0.0691 0.031619,-0.037 0.097097,-0.30938 0.1458599,-0.6028 0.04876,-0.29397 0.1051155,-0.56038 0.1250933,-0.59266 0.046208,-0.0748 0.6640292,-0.17605 0.8036878,-0.13185 0.065938,0.0216 0.1766486,0.18532 0.2946227,0.4376 0.1039229,0.22245 0.2355885,0.47163 0.2926881,0.5545 0.0935,0.13549 0.125039,0.1472 0.3129752,0.11737 0.1148805,-0.0179 0.2895187,-0.0674 0.3883197,-0.10868 0.1693211,-0.0705 0.1793189,-0.0894 0.1777384,-0.32844 -8.524e-4,-0.13944 -0.0233,-0.4199 -0.049751,-0.62309 -0.035572,-0.27167 -0.031376,-0.38585 0.014973,-0.43085 0.097778,-0.0959 0.7205222,-0.33302 0.7916154,-0.3014 0.0345,0.0144 0.22502,0.22813 0.422611,0.47239 0.197603,0.24437 0.399467,0.44481 0.448693,0.44437 0.105396,-6.4e-4 0.61903,-0.28646 0.673765,-0.3753 0.02084,-0.0287 -0.05455,-0.33354 -0.167596,-0.66656 l -0.205752,-0.60522 0.287377,-0.25841 c 0.157968,-0.14231 0.313655,-0.25889 0.345817,-0.25889 0.03234,0 0.290988,0.15439 0.575235,0.34342 0.284278,0.18867 0.548602,0.3439 0.587311,0.3439 0.09095,0 0.553984,-0.4623 0.553984,-0.55304 0,-0.037 -0.142628,-0.28633 -0.316838,-0.55161 -0.17421,-0.26557 -0.316839,-0.52118 -0.316839,-0.5685 0,-0.13081 0.422316,-0.65013 0.528386,-0.65013 0.05117,0 0.320813,0.086 0.598902,0.19127 0.278096,0.10529 0.540703,0.17773 0.583929,0.16084 0.09368,-0.037 0.399014,-0.55301 0.399912,-0.6767 4.24e-4,-0.0478 -0.201384,-0.25658 -0.44821,-0.46418 -0.514681,-0.43332 -0.53035,-0.4836 -0.300417,-0.95346 0.118872,-0.24294 0.163499,-0.2894 0.273853,-0.28257 0.07255,0.004 0.36369,0.0251 0.646717,0.0464 l 0.514862,0.0406 0.08017,-0.19273 c 0.04409,-0.10601 0.095,-0.29704 0.112536,-0.42505 l 0.03188,-0.23281 -0.556883,-0.2671 c -0.352049,-0.16855 -0.569324,-0.30396 -0.589725,-0.36854 -0.04366,-0.13656 0.05964,-0.75479 0.133304,-0.80036 0.03234,-0.0179 0.298534,-0.0757 0.59214,-0.12462 0.293619,-0.0485 0.564899,-0.11473 0.602766,-0.14635 0.09375,-0.0779 0.09375,-0.74959 0,-0.8274 -0.03777,-0.0288 -0.309171,-0.0974 -0.602766,-0.14587 -0.29362,-0.0485 -0.559878,-0.10462 -0.59214,-0.1251 -0.0742,-0.046 -0.176177,-0.66373 -0.132337,-0.8018 0.0212,-0.0665 0.231425,-0.19852 0.589241,-0.3695 l 0.5564,-0.26518 -0.03236,-0.23184 c -0.01761,-0.12722 -0.06646,-0.31575 -0.109154,-0.41781 -0.07377,-0.17645 -0.09068,-0.18582 -0.331329,-0.18403 -0.139389,8.7e-4 -0.419813,0.0214 -0.623051,0.0497 -0.433152,0.0564 -0.437413,0.0535 -0.624016,-0.39414 -0.08955,-0.2149 -0.1164,-0.34363 -0.08452,-0.40332 0.0043,-0.008 0.03866,-0.0397 0.05265,-0.0555 z m -4.2237068,4.49154 4.842e-4,0.002 c 0.3018486,-9.3e-4 0.5995756,2e-4 0.9065626,0.007 0.306987,0.007 0.623048,0.0179 0.960658,0.0406 0.107911,0.007 0.228704,0.0215 0.346784,0.0613 0.059,0.0179 0.117621,0.045 0.173391,0.0744 0.05577,0.0288 0.10887,0.0684 0.157453,0.114 0.04858,0.0452 0.09237,0.0999 0.129924,0.16277 0.03781,0.0633 0.06865,0.13532 0.09129,0.21833 0.02264,0.083 0.03683,0.17751 0.04057,0.28353 0.0036,0.10601 -0.003,0.22457 -0.02173,0.35646 -0.01186,0.0822 -0.02911,0.16549 -0.0512,0.24923 -0.02264,0.0834 -0.05005,0.16828 -0.08211,0.2531 -0.06411,0.16997 -0.146566,0.34165 -0.242941,0.51296 -0.09638,0.17106 -0.206601,0.34142 -0.326982,0.5091 -0.120344,0.16746 -0.250842,0.33239 -0.386871,0.4917 -0.136048,0.15956 -0.27768,0.31405 -0.421163,0.46128 -0.143449,0.14698 -0.288665,0.28699 -0.431305,0.41733 -0.142661,0.13009 -0.282841,0.25034 -0.416335,0.35887 -0.133494,0.10853 -0.260595,0.20511 -0.376727,0.2874 -0.1156024,0.0823 -0.2352085,0.15998 -0.3588605,0.23329 -0.1236492,0.0726 -0.2511482,0.14143 -0.3810736,0.20432 -0.1299748,0.0639 -0.2628507,0.12324 -0.3974969,0.17823 -0.1346461,0.055 -0.2710204,0.10519 -0.4086069,0.15118 -0.2751478,0.092 -0.5543491,0.16771 -0.8312184,0.22557 -0.2768741,0.0586 -0.5511956,0.0996 -0.8162447,0.1251 -0.2650518,0.0251 -0.5209975,0.0372 -0.7607012,0.029 -0.2397167,-0.004 -0.4632605,-0.0254 -0.6641059,-0.0628 -0.1003993,-0.0179 -0.1953281,-0.0406 -0.2835118,-0.0642 -0.088183,-0.0251 -0.1697042,-0.0533 -0.2439076,-0.086 -0.074238,-0.0287 -0.1409007,-0.0681 -0.1994733,-0.10723 -0.058573,-0.0403 -0.1089549,-0.081 -0.1502078,-0.12703 -0.046713,-0.0518 -0.085248,-0.10635 -0.1163983,-0.16278 -0.031263,-0.0565 -0.05491,-0.11374 -0.072443,-0.17195 -0.017609,-0.0586 -0.029142,-0.11809 -0.035264,-0.17775 -0.00645,-0.0596 -0.00664,-0.11929 -0.00336,-0.17823 0.00682,-0.11786 0.030591,-0.23342 0.062789,-0.33907 0.032338,-0.10565 0.072967,-0.20207 0.1144674,-0.28257 0.2095355,-0.40766 0.4110631,-0.75255 0.6979153,-1.23844 0.286827,-0.48582 0.6589813,-1.11226 1.2108433,-2.08276 0.00682,-0.0144 0.037264,-0.0803 0.098529,-0.16905 0.030544,-0.045 0.069079,-0.0944 0.1154347,-0.14683 0.046395,-0.0532 0.1009134,-0.10829 0.1646965,-0.16327 0.063817,-0.0553 0.1366267,-0.11017 0.2192754,-0.16084 0.082724,-0.051 0.1751055,-0.0983 0.2782003,-0.13814 0.1031312,-0.0406 0.2168668,-0.0742 0.3419525,-0.0976 0.1250512,-0.0216 0.2615321,-0.0372 0.4100566,-0.0372 0.7363185,0 1.3553012,-0.014 1.9589877,-0.014 z"
         id="path1142" />
      <path
         id="circle1137"
         d="m 14.208929,266.14484 a 14.002407,14.003212 0 0 0 -1.927112,0.53035 c 0.01429,0.0261 0.03124,0.0528 0.04492,0.0787 0.113266,0.21454 0.205469,0.42282 0.273853,0.61778 0.03413,0.0977 0.06205,0.19152 0.08404,0.28208 0.02192,0.0906 0.03794,0.17636 0.04685,0.25793 0.009,0.0812 0.01108,0.1578 0.0068,0.22894 -0.0043,0.0711 -0.01621,0.13633 -0.03526,0.19562 -0.02156,0.0672 -0.04892,0.12676 -0.08163,0.1821 -0.0327,0.055 -0.07044,0.10541 -0.112053,0.14925 -0.04139,0.045 -0.08716,0.0834 -0.135236,0.11786 -0.04811,0.037 -0.099,0.0654 -0.151174,0.0913 -0.104425,0.0524 -0.214604,0.0882 -0.321185,0.11157 -0.106546,0.0216 -0.209456,0.0372 -0.298968,0.0372 -0.452446,0.0144 -0.847276,0.007 -1.405003,-0.004 -0.4940405,-0.0127 -1.1606141,-0.0308 -2.0633136,-0.0406 a 14.002407,14.003212 0 0 0 -1.0620843,0.95346 0.73426059,0.71270579 0 0 1 -0.6288473,0.67526 14.002407,14.003212 0 0 0 -3.3475718,7.22877 c 0.1626788,0.0709 0.3135025,0.15001 0.3356744,0.19369 0.022998,0.045 0.022528,0.24832 -9.892e-4,0.45162 -0.023369,0.20339 -0.044025,0.47161 -0.0454,0.59652 -0.00252,0.21095 0.010633,0.2329 0.1830503,0.30478 0.102234,0.0406 0.2903316,0.0916 0.4177841,0.10964 l 0.2318329,0.0285 0.2656423,-0.55595 c 0.1709036,-0.35792 0.3024215,-0.56814 0.368999,-0.58927 0.1025926,-0.0288 0.7359949,0.0475 0.7882321,0.1 0.014738,0.0144 0.0705,0.25904 0.1236443,0.54291 0.053115,0.28354 0.1206199,0.56916 0.1497257,0.63468 0.04747,0.10637 0.090537,0.1193 0.4172994,0.1193 0.2350477,0 0.3842666,-0.0217 0.4211645,-0.0691 0.031618,-0.037 0.097098,-0.30938 0.1458606,-0.6028 0.04876,-0.29397 0.105115,-0.56038 0.1250934,-0.59266 0.046208,-0.0748 0.664029,-0.17606 0.8036877,-0.13186 0.065939,0.0216 0.176648,0.18533 0.294622,0.43761 0.103923,0.22245 0.2355892,0.47163 0.2926882,0.5545 0.0935,0.13548 0.1250389,0.1472 0.3129757,0.11737 0.1148804,-0.018 0.289518,-0.0674 0.3883196,-0.10868 0.169321,-0.0705 0.1793188,-0.0894 0.1777387,-0.32845 -7.419e-4,-0.13943 -0.023295,-0.4199 -0.049747,-0.62308 -0.035572,-0.27168 -0.031376,-0.38585 0.014961,-0.43085 0.097778,-0.096 0.720522,-0.33302 0.7916153,-0.3014 0.0345,0.0144 0.22502,0.22812 0.422611,0.47239 0.197603,0.24436 0.399468,0.44481 0.448692,0.44437 0.105396,-6.4e-4 0.61903,-0.28646 0.673765,-0.3753 0.02084,-0.0287 -0.05454,-0.33354 -0.167596,-0.66656 l -0.205752,-0.60522 0.287377,-0.25841 c 0.157968,-0.1423 0.313655,-0.25889 0.345817,-0.25889 0.03234,0 0.290988,0.15439 0.575236,0.34342 0.284277,0.18867 0.548601,0.3439 0.58731,0.3439 0.09095,0 0.553984,-0.46231 0.553984,-0.55305 0,-0.037 -0.142628,-0.28631 -0.316838,-0.5516 -0.17421,-0.26557 -0.316839,-0.52118 -0.316839,-0.5685 0,-0.13081 0.422316,-0.65014 0.528386,-0.65014 0.05117,0 0.320813,0.086 0.598902,0.19127 0.278097,0.1053 0.540704,0.17774 0.583929,0.16085 0.09368,-0.037 0.399014,-0.55301 0.399912,-0.6767 4.21e-4,-0.0478 -0.201384,-0.25658 -0.44821,-0.46418 -0.51468,-0.43332 -0.53035,-0.4836 -0.300417,-0.95347 0.118871,-0.24293 0.163499,-0.28939 0.273853,-0.28256 0.07256,0.004 0.36369,0.0251 0.646717,0.0464 l 0.514862,0.0406 0.08018,-0.19272 c 0.04409,-0.10601 0.095,-0.29705 0.112536,-0.42505 l 0.03188,-0.23281 -0.556882,-0.26711 c -0.35205,-0.16854 -0.569325,-0.30396 -0.589725,-0.36854 -0.04366,-0.13656 0.05964,-0.75479 0.133303,-0.80035 0.03234,-0.0179 0.298535,-0.0757 0.592141,-0.12462 0.293618,-0.0485 0.564898,-0.11473 0.602765,-0.14635 0.09375,-0.078 0.09375,-0.7496 0,-0.8274 -0.03777,-0.0288 -0.309171,-0.0974 -0.602765,-0.14587 -0.29362,-0.0485 -0.559879,-0.10463 -0.592141,-0.1251 -0.0742,-0.046 -0.176177,-0.66373 -0.132338,-0.80181 0.0212,-0.0664 0.231427,-0.19852 0.589243,-0.3695 l 0.556399,-0.26518 -0.03236,-0.23184 c -0.01758,-0.12722 -0.06643,-0.31575 -0.109122,-0.41781 -0.07377,-0.17645 -0.09068,-0.18582 -0.331328,-0.18402 -0.139389,8.6e-4 -0.419813,0.0214 -0.623051,0.0498 -0.433152,0.0564 -0.437414,0.0536 -0.624017,-0.39414 -0.08955,-0.2149 -0.116399,-0.34363 -0.08452,-0.40332 0.0043,-0.008 0.03867,-0.0398 0.05265,-0.0556 z m -4.2237079,4.49154 4.946e-4,0.001 c 0.3018473,-9.4e-4 0.5995753,2e-4 0.9065623,0.007 0.306987,0.007 0.623048,0.0179 0.960658,0.0406 0.107911,0.007 0.228704,0.0215 0.346784,0.0613 0.059,0.0179 0.117621,0.0449 0.173391,0.0744 0.05577,0.0288 0.10887,0.0684 0.157454,0.11399 0.04858,0.0452 0.09237,0.0999 0.129923,0.16277 0.03781,0.0633 0.06865,0.13532 0.09128,0.21833 0.02264,0.083 0.03683,0.17751 0.04057,0.28353 0.0036,0.10601 -0.003,0.22457 -0.02173,0.35646 -0.01186,0.0822 -0.0291,0.1655 -0.0512,0.24923 -0.02264,0.0834 -0.05005,0.16829 -0.08211,0.2531 -0.06411,0.16998 -0.146566,0.34165 -0.242942,0.51296 -0.09638,0.17106 -0.2066,0.34142 -0.326981,0.5091 -0.120344,0.16746 -0.250842,0.3324 -0.386871,0.49171 -0.136048,0.15956 -0.277681,0.31404 -0.421164,0.46127 -0.143449,0.14698 -0.288665,0.28698 -0.431305,0.41733 -0.142661,0.13009 -0.282841,0.25035 -0.416335,0.35888 -0.133493,0.10852 -0.260595,0.2051 -0.376726,0.28739 -0.1156029,0.0823 -0.2352089,0.15999 -0.3588606,0.23329 -0.1236492,0.0726 -0.2511487,0.14143 -0.3810741,0.20432 -0.1299748,0.0639 -0.2628504,0.12324 -0.3974965,0.17823 -0.1346461,0.055 -0.2710208,0.10519 -0.4086071,0.15118 -0.2751481,0.092 -0.5543492,0.16771 -0.8312183,0.22557 -0.2768741,0.0586 -0.5511962,0.0996 -0.816245,0.1251 -0.2650512,0.0251 -0.5209973,0.0372 -0.7607015,0.029 -0.2397165,-0.004 -0.4632604,-0.0254 -0.6641057,-0.0628 -0.1003991,-0.0179 -0.1953282,-0.0406 -0.2835113,-0.0642 -0.088183,-0.0251 -0.1697042,-0.0533 -0.2439081,-0.086 -0.074238,-0.0287 -0.1409,-0.0681 -0.1994728,-0.10723 -0.058573,-0.0403 -0.1089553,-0.081 -0.150208,-0.12703 -0.046713,-0.0518 -0.085248,-0.10635 -0.1163987,-0.16277 -0.031265,-0.0565 -0.054905,-0.11374 -0.072448,-0.17196 -0.017607,-0.0586 -0.029145,-0.11808 -0.035258,-0.17775 -0.00645,-0.0596 -0.00665,-0.11929 -0.00339,-0.17823 0.00683,-0.11786 0.03059,-0.23342 0.062787,-0.33907 0.032338,-0.10565 0.072967,-0.20207 0.1144674,-0.28257 0.209535,-0.40766 0.4110628,-0.75254 0.697915,-1.23844 0.2868274,-0.48582 0.6589818,-1.11226 1.2108432,-2.08275 0.00683,-0.0144 0.037264,-0.0803 0.09853,-0.16906 0.030545,-0.045 0.069075,-0.0944 0.1154343,-0.14683 0.046394,-0.0532 0.1009135,-0.10828 0.1646966,-0.16326 0.063818,-0.0553 0.1366269,-0.11018 0.2192757,-0.16085 0.082725,-0.051 0.175105,-0.0983 0.2781996,-0.13814 0.1031316,-0.0406 0.216867,-0.0742 0.341953,-0.0976 0.1250513,-0.0216 0.2615323,-0.0372 0.4100563,-0.0372 0.7363188,0 1.3553017,-0.014 1.9589874,-0.014 z"
         style="opacity:1;fill:url(#linearGradient1154);fill-opacity:1;fill-rule:nonzero;stroke:none;stroke-width:0.01092247;stroke-linecap:round;stroke-linejoin:round;stroke-miterlimit:4;stroke-dasharray:none;stroke-dashoffset:0;stroke-opacity:1"
         inkscape:connector-curvature="0" />
      <path
         sodipodi:nodetypes="cccccccccccccccsscsscccccccccccccccccccccccccccccccccccccccccccccccccccccccccccccccccccccccccccccccccccccccccccccccccccccc"
         inkscape:connector-curvature="0"
         style="opacity:0.25;fill:#000000;fill-opacity:1;fill-rule:nonzero;stroke:none;stroke-width:0.01092246;stroke-linecap:round;stroke-linejoin:round;stroke-miterlimit:4;stroke-dasharray:none;stroke-dashoffset:0;stroke-opacity:1"
         d="m 27.711268,280.23192 v 0.003 c -0.433373,0 -0.422829,-0.0143 -0.566542,0.75351 -0.05311,0.28354 -0.108696,0.52796 -0.123644,0.5429 -0.05222,0.0524 -0.685654,0.13318 -0.788232,0.10047 -0.06652,-0.0216 -0.197528,-0.22957 -0.366103,-0.583 -0.296135,-0.62016 -0.302933,-0.62373 -0.81383,-0.45306 -0.253195,0.0848 -0.264218,0.0968 -0.279166,0.29946 -0.0086,0.11644 0.0061,0.3897 0.03236,0.60715 0.02659,0.21706 0.03013,0.43226 0.0067,0.47722 -0.05211,0.10062 -0.708957,0.37619 -0.801273,0.33569 -0.03734,-0.0179 -0.230409,-0.23137 -0.429856,-0.47818 -0.327002,-0.40451 -0.376645,-0.44548 -0.501822,-0.41442 -0.196812,0.0481 -0.588429,0.28385 -0.623534,0.37578 -0.01617,0.0407 0.05617,0.30507 0.161317,0.583 0.105143,0.27814 0.191262,0.54948 0.191262,0.60327 0,0.10997 -0.51337,0.5236 -0.649615,0.5236 -0.04736,0 -0.303619,-0.14245 -0.568957,-0.31638 -0.26534,-0.17393 -0.508336,-0.31685 -0.540461,-0.31685 -0.0793,0 -0.563644,0.48185 -0.563644,0.56077 0,0.037 0.154033,0.29416 0.342437,0.57576 0.386492,0.57818 0.386559,0.5418 -4.83e-4,1.00031 -0.202347,0.2397 -0.179108,0.24151 -0.993018,-0.0575 l -0.413918,-0.15264 -0.127509,0.15843 c -0.07028,0.0873 -0.168077,0.26332 -0.217343,0.39173 l -0.08984,0.23281 0.286893,0.24247 c 0.157536,0.13332 0.377722,0.32602 0.489747,0.42843 l 0.20382,0.18644 -0.141032,0.35212 c -0.07758,0.19369 -0.168557,0.37435 -0.202371,0.40091 -0.03781,0.0288 -0.293899,0.0254 -0.662173,-0.007 -0.694263,-0.0643 -0.682512,-0.0709 -0.797409,0.40814 -0.08869,0.36975 -0.07501,0.38741 0.555433,0.68781 0.310221,0.14806 0.502171,0.27138 0.523074,0.33715 0.04319,0.1362 -0.0574,0.75602 -0.129924,0.80083 -0.0309,0.018 -0.298524,0.077 -0.595037,0.128 -0.296495,0.0518 -0.568887,0.11773 -0.605181,0.14683 -0.08904,0.0723 -0.08904,0.74827 0,0.82064 0.03644,0.0288 0.308654,0.0958 0.605181,0.14684 0.296494,0.0514 0.564091,0.10957 0.595037,0.12897 0.07252,0.045 0.173117,0.66474 0.129924,0.80083 -0.02084,0.0658 -0.212863,0.18981 -0.523074,0.33714 -0.628082,0.29971 -0.647017,0.32234 -0.558813,0.67332 0.109025,0.43419 0.131792,0.45932 0.413435,0.45742 0.13691,-8.7e-4 0.414959,-0.0217 0.618222,-0.0497 0.27231,-0.037 0.386737,-0.0287 0.434204,0.0145 0.12444,0.12254 0.689689,-0.4942 0.640458,-0.40228 -0.01824,0.0344 0.901964,-0.33892 0.09672,0.41155 0.786257,-0.15052 -0.08092,0.0857 0.66814,-0.1967 -0.03403,-0.0709 -0.782605,-0.38981 0,0 -0.08228,-0.19011 0.625681,0.003 0.558016,-0.19704 -0.06763,-0.19981 -0.128348,-0.40154 -0.181603,-0.60135 -0.05326,-0.1998 -0.09896,-0.39756 -0.138133,-0.58831 -0.03913,-0.19083 -0.0717,-0.37386 -0.09708,-0.54581 -0.02551,-0.17177 -0.04425,-0.33109 -0.05603,-0.4748 -0.01186,-0.14266 -0.01738,-0.28744 -0.01738,-0.4323 1.8e-5,-0.14555 0.006,-0.29086 0.01642,-0.43712 0.01078,-0.14626 0.02725,-0.29237 0.0483,-0.4381 0.02084,-0.1459 0.04645,-0.29078 0.07631,-0.43471 0.05961,-0.28821 0.136114,-0.57097 0.225554,-0.84334 0.08947,-0.27203 0.191543,-0.53398 0.302832,-0.77958 0.111324,-0.24581 0.231656,-0.47497 0.356926,-0.6825 0.125268,-0.20735 0.255592,-0.39319 0.386871,-0.5516 0.06565,-0.0791 0.131406,-0.15134 0.197059,-0.21639 0.06561,-0.0651 0.130928,-0.12176 0.195609,-0.17099 0.06469,-0.0489 0.129039,-0.0901 0.191745,-0.12171 0.06274,-0.0287 0.123811,-0.0552 0.183534,-0.0681 0.06763,-0.0144 0.133634,-0.0212 0.197058,-0.0212 v 0.004 c 0.05548,8.7e-4 0.109357,0.007 0.161318,0.0183 0.05196,0.007 0.101983,0.0251 0.150208,0.0464 0.09645,0.0407 0.185025,0.0929 0.265159,0.15504 0.0801,0.0622 0.151601,0.13281 0.21348,0.20432 0.06191,0.0719 0.114177,0.14485 0.156004,0.21204 0.241767,0.38873 0.434483,0.7388 0.704193,1.23458 0.269759,0.49585 0.616608,1.13735 1.165926,2.10932 0.01007,0.0144 0.04907,0.0732 0.0937,0.17098 0.02264,0.0489 0.04642,0.10778 0.0681,0.17534 0.02156,0.0676 0.041,0.14365 0.05602,0.22702 0.01473,0.0834 0.02477,0.17443 0.02656,0.2729 0.0019,0.0981 0.336406,-1.1202 0.319171,-1.00951 -0.01144,0.072 -0.01013,-1.03847 -0.401755,0.50959 0.177848,-0.16706 0.273172,-0.62423 0.442048,-0.80036 0.01075,-0.34958 -0.639162,-0.62734 -0.2819,-0.67279 0.161757,-0.19982 0.381023,0.42815 0.531537,0.21974 -1.143433,-0.6632 0.77755,0.3254 0.696886,0.22749 -0.08172,-0.0992 -0.160119,-0.21238 -0.233282,-0.3439 -0.362915,-0.65046 -0.67921,-1.19107 -0.978528,-1.7234 -0.149631,-0.26664 -0.294836,-0.53049 -0.439999,-0.80518 -0.14514,-0.27492 -0.290343,-0.56029 -0.438551,-0.86894 -0.04736,-0.0985 -0.09216,-0.21376 -0.117849,-0.33666 -0.01294,-0.0615 -0.02101,-0.12501 -0.02173,-0.18934 -0.001,-0.0643 0.005,-0.1301 0.02077,-0.19514 0.0151,-0.0654 0.03961,-0.13105 0.07487,-0.19465 0.03557,-0.0643 0.08226,-0.12741 0.142481,-0.18886 0.06015,-0.0611 0.133538,-0.11999 0.222656,-0.17533 0.08912,-0.0557 0.194035,-0.10846 0.316355,-0.15698 0.07622,-0.0288 0.155694,-0.0557 0.238594,-0.0773 0.08294,-0.0216 0.169301,-0.0405 0.257915,-0.0526 0.177229,-0.0251 0.364711,-0.0408 0.558814,-0.0372 l -9.63e-4,-0.003 c 0.145535,6.4e-4 0.29468,0.007 0.445796,0.0218 0.151139,0.0144 0.30407,0.037 0.457387,0.0589 0.306628,0.0499 0.614689,0.11935 0.909944,0.20093 0.295237,0.0812 0.578091,0.17442 0.835082,0.27001 0.131466,0.0491 0.255291,0.099 0.371416,0.14828 0.154805,-0.58817 0.271128,-1.18579 0.348232,-1.78908 -0.095,-0.0485 -0.172878,-0.0946 -0.187881,-0.12414 -0.023,-0.045 -0.02347,-0.22444 -9.63e-4,-0.39848 0.02264,-0.17429 0.04274,-0.44302 0.0454,-0.59701 0.0043,-0.26988 -0.0015,-0.28229 -0.174841,-0.35452 -0.09882,-0.0406 -0.273938,-0.09 -0.388803,-0.10868 -0.187973,-0.0288 -0.21899,-0.0178 -0.312492,0.11737 -0.0571,0.0826 -0.188802,0.33263 -0.292689,0.55449 -0.117972,0.25192 -0.228718,0.41691 -0.294621,0.43762 -0.139677,0.045 -0.757461,-0.0567 -0.803687,-0.13186 -0.01977,-0.0288 -0.07633,-0.29931 -0.125094,-0.59266 -0.04876,-0.29396 -0.114418,-0.56492 -0.145861,-0.60281 -0.03676,-0.0449 -0.186181,-0.0686 -0.421163,-0.0686 z"
         id="path1144" />
      <path
         id="circle1128"
         d="m 27.711268,279.73732 v 0.003 c -0.433373,0 -0.422829,-0.0143 -0.566542,0.7535 -0.05311,0.28354 -0.108696,0.52796 -0.123644,0.5429 -0.05222,0.0524 -0.685654,0.13317 -0.788232,0.10047 -0.06652,-0.0216 -0.197528,-0.22956 -0.366103,-0.583 -0.296135,-0.62015 -0.302934,-0.62373 -0.81383,-0.45306 -0.253195,0.0848 -0.264218,0.0968 -0.279166,0.29946 -0.0086,0.11644 0.0061,0.38971 0.03236,0.60715 0.02659,0.21706 0.03014,0.43226 0.0068,0.47722 -0.05211,0.10062 -0.708957,0.37619 -0.801273,0.33569 -0.03734,-0.0179 -0.23041,-0.23137 -0.429857,-0.47818 -0.327002,-0.4045 -0.376644,-0.44548 -0.501822,-0.41442 -0.196812,0.0481 -0.588429,0.28385 -0.623534,0.37578 -0.01617,0.0407 0.05617,0.30507 0.161317,0.583 0.105144,0.27814 0.191263,0.54949 0.191263,0.60328 0,0.10997 -0.51337,0.52359 -0.649616,0.52359 -0.04736,0 -0.303619,-0.14245 -0.568956,-0.31638 -0.26534,-0.17393 -0.508336,-0.31685 -0.540461,-0.31685 -0.0793,0 -0.563644,0.48186 -0.563644,0.56077 0,0.037 0.154033,0.29415 0.342436,0.57576 0.386493,0.57817 0.38656,0.5418 -4.94e-4,1.00032 -0.202347,0.2397 -0.179108,0.2415 -0.993018,-0.0575 l -0.413919,-0.15264 -0.127508,0.15843 c -0.07028,0.0873 -0.168077,0.26332 -0.217343,0.39173 l -0.08984,0.23281 0.286893,0.24247 c 0.157536,0.13333 0.377722,0.32602 0.489747,0.42843 l 0.20382,0.18645 -0.141032,0.35211 c -0.07758,0.1937 -0.168557,0.37435 -0.202371,0.40091 -0.03781,0.0288 -0.293899,0.0254 -0.662173,-0.007 -0.694262,-0.0643 -0.682512,-0.0709 -0.797408,0.40815 -0.08869,0.36975 -0.07501,0.38741 0.555433,0.68781 0.310221,0.14805 0.50217,0.27138 0.523073,0.33714 0.04319,0.1362 -0.0574,0.75603 -0.129923,0.80084 -0.0309,0.018 -0.298526,0.077 -0.595038,0.12799 -0.296495,0.0518 -0.568887,0.11773 -0.605181,0.14684 -0.08904,0.0722 -0.08904,0.74827 0,0.82064 0.03644,0.0288 0.308653,0.0958 0.605181,0.14683 0.296494,0.0514 0.564091,0.10957 0.595038,0.12897 0.07252,0.045 0.173116,0.66474 0.129923,0.80084 -0.02084,0.0658 -0.212863,0.1898 -0.523073,0.33714 -0.628083,0.29971 -0.647018,0.32234 -0.558814,0.67332 0.109025,0.43419 0.131793,0.45931 0.413435,0.45741 0.13691,-9.9e-4 0.414958,-0.0217 0.618221,-0.0498 0.272311,-0.037 0.386738,-0.0287 0.434204,0.0145 0.124441,0.12253 0.324049,0.69103 0.274819,0.78296 -0.01825,0.0344 -0.144527,0.15283 -0.294138,0.28546 a 14.002407,14.003212 0 0 0 2.307221,-0.65062 c -0.03403,-0.0709 -0.06816,-0.14197 -0.09998,-0.21542 -0.08228,-0.19011 -0.156924,-0.38713 -0.224588,-0.58686 -0.06763,-0.19981 -0.128348,-0.40155 -0.181603,-0.60136 -0.05326,-0.19979 -0.09896,-0.39755 -0.138133,-0.58831 -0.03913,-0.19082 -0.07171,-0.37385 -0.09708,-0.5458 -0.02552,-0.17178 -0.04424,-0.33109 -0.05603,-0.4748 -0.01186,-0.14266 -0.01739,-0.28744 -0.01739,-0.4323 1.8e-5,-0.14555 0.006,-0.29086 0.01642,-0.43712 0.01078,-0.14626 0.02724,-0.29237 0.0483,-0.4381 0.02084,-0.1459 0.04645,-0.29079 0.07631,-0.43471 0.05961,-0.28821 0.136113,-0.57097 0.225554,-0.84334 0.08947,-0.27203 0.191543,-0.53399 0.302832,-0.77958 0.111324,-0.24581 0.231655,-0.47497 0.356926,-0.6825 0.125267,-0.20735 0.255592,-0.39319 0.386871,-0.5516 0.06565,-0.0791 0.131406,-0.15135 0.197058,-0.21639 0.06561,-0.0651 0.130928,-0.12176 0.195609,-0.17099 0.06469,-0.0489 0.12904,-0.0901 0.191746,-0.12172 0.06274,-0.0287 0.123811,-0.0551 0.183534,-0.0681 0.06763,-0.0144 0.133634,-0.0213 0.197058,-0.0213 v 0.004 c 0.05548,8.6e-4 0.109356,0.008 0.161317,0.0183 0.05196,0.007 0.101984,0.0252 0.150209,0.0464 0.09645,0.0407 0.185025,0.0929 0.265159,0.15505 0.0801,0.0622 0.151601,0.1328 0.213479,0.20431 0.06191,0.0719 0.114177,0.14485 0.156004,0.21205 0.241767,0.38872 0.434484,0.73879 0.704193,1.23458 0.26976,0.49585 0.616609,1.13735 1.165927,2.10932 0.01007,0.0144 0.04907,0.0732 0.0937,0.17098 0.02264,0.0489 0.04643,0.10778 0.0681,0.17534 0.02156,0.0676 0.04101,0.14364 0.05603,0.22701 0.01473,0.0834 0.02477,0.17444 0.02656,0.2729 0.0019,0.0981 -0.004,0.20376 -0.02125,0.31445 -0.01144,0.0719 -0.02962,0.14732 -0.0512,0.22412 a 14.002407,14.003212 0 0 0 0.520175,-0.5149 0.73426059,0.71270579 0 0 1 0.638507,-0.68539 14.002407,14.003212 0 0 0 0.468496,-0.61246 c -0.08433,-0.0705 -0.168074,-0.15374 -0.248738,-0.25165 -0.08172,-0.0992 -0.16012,-0.21238 -0.233282,-0.34391 -0.362915,-0.65045 -0.67921,-1.19107 -0.978528,-1.72339 -0.149631,-0.26665 -0.294836,-0.53049 -0.44,-0.80518 -0.145139,-0.27492 -0.290343,-0.56029 -0.438551,-0.86894 -0.04736,-0.0985 -0.09216,-0.21376 -0.117848,-0.33666 -0.01294,-0.0615 -0.02102,-0.12502 -0.02173,-0.18934 -0.001,-0.0643 0.005,-0.1301 0.02077,-0.19514 0.0151,-0.0654 0.03961,-0.13105 0.07486,-0.19466 0.03557,-0.0643 0.08226,-0.1274 0.142481,-0.18885 0.06015,-0.0611 0.133539,-0.11999 0.222656,-0.17534 0.08912,-0.0557 0.194035,-0.10846 0.316355,-0.15698 0.07622,-0.0288 0.155695,-0.0557 0.238595,-0.0773 0.08294,-0.0216 0.169301,-0.0405 0.257914,-0.0526 0.177229,-0.0251 0.364712,-0.0407 0.558814,-0.0372 l -9.64e-4,-0.002 c 0.145535,6.4e-4 0.29468,0.008 0.445795,0.0217 0.15114,0.0144 0.30407,0.0371 0.457388,0.0589 0.306628,0.0499 0.614689,0.11935 0.909944,0.20093 0.295237,0.0812 0.57809,0.17442 0.835082,0.27001 0.131466,0.0491 0.25529,0.099 0.371416,0.14828 a 14.002407,14.003212 0 0 0 0.348232,-1.78908 c -0.095,-0.0486 -0.172878,-0.0946 -0.187881,-0.12413 -0.023,-0.045 -0.02348,-0.22445 -9.65e-4,-0.39849 0.02264,-0.17429 0.04274,-0.44301 0.0454,-0.597 0.0043,-0.26988 -0.0015,-0.2823 -0.174841,-0.35453 -0.09882,-0.0406 -0.273939,-0.09 -0.388803,-0.10868 -0.187973,-0.0288 -0.21899,-0.0177 -0.312492,0.11737 -0.0571,0.0826 -0.188802,0.33263 -0.292689,0.5545 -0.117972,0.25192 -0.228718,0.41691 -0.294621,0.43761 -0.139677,0.045 -0.757461,-0.0567 -0.803688,-0.13186 -0.01977,-0.0288 -0.07633,-0.29931 -0.125093,-0.59266 -0.04876,-0.29396 -0.114418,-0.56492 -0.145861,-0.6028 -0.03676,-0.0449 -0.186181,-0.0686 -0.421164,-0.0686 z"
         style="opacity:1;fill:url(#linearGradient1162);fill-opacity:1;fill-rule:nonzero;stroke:none;stroke-width:0.01092247;stroke-linecap:round;stroke-linejoin:round;stroke-miterlimit:4;stroke-dasharray:none;stroke-dashoffset:0;stroke-opacity:1"
         inkscape:connector-curvature="0" />
      <path
         inkscape:connector-curvature="0"
         id="path1172"
         d="m 16.924681,269.28128 c -0.486507,0 -0.474691,-0.0162 -0.636024,0.84582 -0.05962,0.31831 -0.12219,0.59287 -0.138971,0.60965 -0.05862,0.0589 -0.769649,0.14927 -0.884804,0.11256 -0.07468,-0.0242 -0.22179,-0.25738 -0.411033,-0.65414 -0.332443,-0.6962 -0.340027,-0.70048 -0.913562,-0.50888 -0.284237,0.0952 -0.296945,0.10892 -0.313726,0.33645 -0.0097,0.1307 0.0072,0.43748 0.03671,0.68158 0.02985,0.24367 0.03348,0.48491 0.0072,0.53539 -0.05849,0.11295 -0.795547,0.42226 -0.899181,0.3768 -0.04192,-0.0202 -0.259024,-0.25981 -0.482924,-0.53688 -0.367094,-0.4541 -0.422611,-0.50009 -0.563135,-0.46524 -0.220943,0.054 -0.660573,0.31911 -0.699982,0.42231 -0.01815,0.0456 0.06328,0.34211 0.181328,0.65412 0.118035,0.31225 0.214731,0.6172 0.214731,0.67758 0,0.12345 -0.576782,0.58772 -0.729732,0.58772 -0.05316,0 -0.340385,-0.16017 -0.638254,-0.35541 -0.297872,-0.19527 -0.5710757,-0.35543 -0.6071395,-0.35543 -0.089024,0 -0.6326826,0.54088 -0.6326826,0.62947 0,0.0415 0.1730998,0.33 0.3846028,0.64613 0.4338785,0.64906 0.4337775,0.60852 -7.178e-4,1.12324 -0.2271553,0.2691 -0.2011762,0.2707 -1.114876,-0.065 l -0.4642336,-0.17105 -0.1434504,0.17792 c -0.078902,0.098 -0.1886698,0.2953 -0.2439768,0.43944 l -0.1005264,0.26183 0.3215514,0.27191 c 0.1768514,0.14967 0.4244836,0.3659 0.5502432,0.48088 l 0.2287283,0.20937 -0.1584158,0.39536 c -0.087098,0.21744 -0.189396,0.42024 -0.2273562,0.45006 -0.042442,0.0323 -0.329821,0.0282 -0.7432469,-0.008 -0.7793827,-0.0722 -0.7661109,-0.0792 -0.8950941,0.45865 -0.099561,0.41508 -0.084108,0.4344 0.6236335,0.77163 0.3482557,0.16621 0.5635916,0.30499 0.5870574,0.37881 0.04848,0.15291 -0.06434,0.84869 -0.1457496,0.89899 -0.034684,0.0201 -0.3353858,0.0864 -0.6682528,0.14363 -0.3328465,0.0581 -0.6385399,0.13232 -0.6792834,0.165 -0.09996,0.0811 -0.09996,0.83993 0,0.92117 0.040909,0.0323 0.3464005,0.10771 0.6792834,0.165 0.3328455,0.0578 0.6335125,0.12264 0.6682528,0.14443 0.081407,0.0505 0.1942384,0.74618 0.1457496,0.89895 -0.023394,0.0738 -0.2388129,0.21342 -0.5870574,0.37881 -0.7050887,0.33646 -0.7263675,0.36188 -0.6273487,0.7559 0.1223913,0.48742 0.1478058,0.51525 0.4639793,0.51312 0.1536959,-9.4e-4 0.466101,-0.0242 0.6942853,-0.0557 0.3056972,-0.0416 0.4338775,-0.0323 0.4871638,0.0162 0.1396978,0.13756 0.3637875,0.77571 0.3085217,0.87891 -0.028647,0.054 -0.2682633,0.27794 -0.5320226,0.49805 -0.4278145,0.35663 -0.4754968,0.41674 -0.4416555,0.55436 0.053975,0.21945 0.3195746,0.65934 0.4219581,0.69869 0.047479,0.0202 0.3419629,-0.0637 0.6541147,-0.18115 0.3121929,-0.1182 0.6169013,-0.21462 0.6773029,-0.21462 0.1231576,0 0.5879323,0.57681 0.5879323,0.72976 0,0.0529 -0.1600691,0.34049 -0.3556795,0.63817 -0.1955675,0.29773 -0.3556375,0.57117 -0.3556375,0.6072 0,0.0899 0.5413277,0.63269 0.6310684,0.63269 0.039937,0 0.3116677,-0.16016 0.6040372,-0.35542 0.292385,-0.19526 0.578382,-0.35541 0.635527,-0.35541 0.152002,0 0.737046,0.47079 0.737046,0.59315 0,0.0577 -0.09641,0.35945 -0.214488,0.6721 -0.118035,0.31225 -0.199845,0.60663 -0.181612,0.65416 0.03953,0.10241 0.479335,0.36832 0.700236,0.4223 0.140505,0.0323 0.195932,-0.008 0.563011,-0.46523 0.223969,-0.27714 0.43842,-0.51763 0.476756,-0.53454 0.100684,-0.0456 0.848651,0.26465 0.904143,0.37398 0.02582,0.0505 0.02541,0.27876 -9.35e-4,0.50699 -0.02622,0.22833 -0.04949,0.52957 -0.05103,0.66979 -0.0028,0.23682 0.01209,0.26143 0.205655,0.34212 0.114767,0.0455 0.325705,0.10282 0.468784,0.12303 l 0.260194,0.0323 0.298355,-0.6245 c 0.191857,-0.4018 0.339623,-0.63777 0.414366,-0.66149 0.115171,-0.0323 0.826286,0.0537 0.884928,0.11256 0.01653,0.0162 0.07931,0.29085 0.138972,0.60952 0.05963,0.3183 0.13518,0.63903 0.167855,0.71257 0.05329,0.11942 0.101492,0.13353 0.468317,0.13353 0.263865,0 0.431606,-0.0242 0.473027,-0.0775 0.0355,-0.0415 0.108879,-0.34734 0.163621,-0.67674 0.05474,-0.33001 0.117792,-0.62894 0.140221,-0.66517 0.05187,-0.0839 0.745623,-0.19767 0.902405,-0.14805 0.07402,0.0242 0.198312,0.20775 0.330748,0.49097 0.116664,0.24971 0.264591,0.52977 0.328691,0.6228 0.104965,0.1521 0.140062,0.165 0.351039,0.13152 0.128969,-0.0202 0.325183,-0.0754 0.436099,-0.12183 0.190082,-0.0791 0.201498,-0.10042 0.199723,-0.36874 -9.35e-4,-0.15653 -0.02622,-0.47128 -0.05591,-0.69938 -0.03994,-0.30498 -0.0355,-0.43339 0.01653,-0.4839 0.109765,-0.10771 0.808835,-0.37357 0.888645,-0.33807 0.03872,0.0162 0.252568,0.25617 0.474386,0.53038 0.221831,0.27433 0.448777,0.49908 0.504039,0.49859 0.118317,-7.2e-4 0.694938,-0.32152 0.756385,-0.42126 0.02339,-0.0322 -0.06124,-0.37438 -0.188147,-0.74822 l -0.230947,-0.67957 0.322559,-0.29007 c 0.177337,-0.15975 0.352008,-0.29046 0.388112,-0.29046 0.0363,0 0.326716,0.17347 0.645814,0.38568 0.31913,0.2118 0.615872,0.38567 0.659327,0.38567 0.1021,0 0.621765,-0.51868 0.621765,-0.62055 0,-0.0415 -0.160068,-0.32153 -0.355638,-0.61933 -0.195569,-0.29814 -0.35576,-0.58505 -0.35576,-0.63818 0,-0.14685 0.474183,-0.72989 0.593258,-0.72989 0.05744,0 0.360036,0.0964 0.67222,0.21464 0.312193,0.1182 0.607212,0.19969 0.655737,0.18073 0.105166,-0.0415 0.44807,-0.62066 0.449078,-0.75953 4.76e-4,-0.0537 -0.226187,-0.28845 -0.503276,-0.5215 -0.577783,-0.48645 -0.595447,-0.54285 -0.337323,-1.07033 0.133445,-0.27271 0.18375,-0.32476 0.307634,-0.31709 0.08145,0.004 0.408161,0.0282 0.725888,0.0521 l 0.577638,0.0455 0.09032,-0.21623 c 0.0495,-0.11902 0.106498,-0.33364 0.126184,-0.47734 l 0.0359,-0.26141 -0.62536,-0.29975 c -0.395212,-0.18919 -0.638781,-0.3413 -0.661683,-0.41379 -0.04901,-0.1533 0.06665,-0.84699 0.149339,-0.89814 0.0363,-0.0202 0.335549,-0.0855 0.665152,-0.1404 0.329619,-0.0545 0.634045,-0.12829 0.676556,-0.16378 0.105247,-0.0875 0.105247,-0.84179 0,-0.92913 -0.0424,-0.0323 -0.346965,-0.10932 -0.676556,-0.1638 -0.329619,-0.0545 -0.628934,-0.11739 -0.665152,-0.14038 -0.0833,-0.0516 -0.197828,-0.74508 -0.148613,-0.90008 0.0238,-0.0746 0.25975,-0.22269 0.661437,-0.41464 l 0.624614,-0.29814 -0.0359,-0.2602 c -0.01977,-0.14282 -0.07491,-0.35421 -0.122835,-0.46878 -0.08282,-0.19808 -0.101577,-0.20857 -0.371734,-0.20656 -0.15648,9.4e-4 -0.471201,0.0242 -0.699357,0.056 -0.486259,0.0634 -0.491003,0.0601 -0.700485,-0.44248 -0.100527,-0.24124 -0.131065,-0.38607 -0.09528,-0.45308 0.02865,-0.054 0.266486,-0.27675 0.527935,-0.49504 0.261443,-0.21825 0.474742,-0.44046 0.474742,-0.49505 -7.22e-4,-0.13997 -0.343415,-0.72014 -0.449082,-0.76077 -0.04848,-0.0201 -0.343537,0.0625 -0.655732,0.18074 -0.312192,0.1182 -0.614727,0.21461 -0.672221,0.21461 -0.119083,0 -0.593253,-0.5833 -0.593253,-0.72987 0,-0.0529 0.16019,-0.34049 0.35572,-0.63826 0.195567,-0.29813 0.355637,-0.57645 0.355637,-0.61925 0,-0.10252 -0.520249,-0.62055 -0.623375,-0.62055 -0.04446,0 -0.302067,0.14927 -0.573056,0.33081 -0.726642,0.48793 -0.642097,0.4743 -1.050782,0.16701 -0.20743,-0.15613 -0.360562,-0.31669 -0.360562,-0.378 0,-0.0589 0.09666,-0.36228 0.214732,-0.67441 0.118035,-0.31225 0.19936,-0.60736 0.180724,-0.65593 -0.04083,-0.1065 -0.621295,-0.44848 -0.762461,-0.44901 -0.05522,-2e-4 -0.282139,0.22431 -0.503985,0.49856 -0.22183,0.27433 -0.434581,0.51282 -0.472919,0.52977 -0.100694,0.0456 -0.848539,-0.26465 -0.904144,-0.37397 -0.02582,-0.0505 -0.02622,-0.25215 -9.34e-4,-0.44753 0.02541,-0.19566 0.04796,-0.49701 0.05095,-0.66988 0.0049,-0.30297 -0.0019,-0.31709 -0.196458,-0.39818 -0.110934,-0.0455 -0.307148,-0.10084 -0.436096,-0.12183 -0.211019,-0.0323 -0.245994,-0.0201 -0.35096,0.13152 -0.0641,0.0927 -0.212066,0.37357 -0.32869,0.62264 -0.132436,0.28281 -0.256845,0.46777 -0.330829,0.49101 -0.156802,0.0505 -0.850395,-0.0636 -0.902288,-0.14807 -0.02219,-0.0323 -0.08557,-0.33603 -0.140303,-0.66535 -0.05474,-0.33 -0.128443,-0.63407 -0.16374,-0.6766 -0.04126,-0.0504 -0.209082,-0.077 -0.472875,-0.077 z m -0.297873,3.31801 c 0.163379,7.2e-4 0.33091,0.008 0.500554,0.0242 0.169669,0.0162 0.341438,0.0416 0.513553,0.0661 0.344222,0.0561 0.689698,0.13434 1.021154,0.22592 0.331434,0.0912 0.648987,0.19566 0.937487,0.30297 0.288513,0.1077 0.547952,0.21825 0.763328,0.32234 0.142966,0.0693 0.283914,0.14523 0.422457,0.22792 0.138529,0.0827 0.274677,0.17065 0.407912,0.26425 0.133283,0.0932 0.263663,0.19244 0.390936,0.29531 0.127314,0.10282 0.25148,0.21058 0.371977,0.32153 0.241031,0.22188 0.467666,0.45764 0.676922,0.69974 0.209285,0.24245 0.401143,0.49149 0.572431,0.73996 0.171283,0.24851 0.322115,0.49706 0.44923,0.73786 0.127154,0.24084 0.230626,0.47431 0.307393,0.69317 0.03832,0.10972 0.07002,0.21501 0.09471,0.31668 0.0246,0.10167 0.04244,0.19809 0.05244,0.28966 0.01008,0.0912 0.01251,0.1771 0.0077,0.25698 -0.0049,0.0798 -0.01815,0.1529 -0.03954,0.21946 -0.02421,0.0754 -0.05514,0.14282 -0.09186,0.20494 -0.03671,0.0617 -0.07912,0.1178 -0.125821,0.16702 -0.04647,0.0505 -0.09775,0.094 -0.151719,0.13273 -0.05401,0.0416 -0.110977,0.073 -0.16955,0.1021 -0.117228,0.0589 -0.241072,0.0993 -0.36072,0.12546 -0.119609,0.0242 -0.235023,0.0416 -0.33551,0.0416 -0.507919,0.0162 -0.951244,0.008 -1.577351,-0.004 -0.626103,-0.0162 -1.434986,-0.0416 -2.673996,-0.0505 v -8e-5 c -0.01856,0.002 -0.09779,0.004 -0.216667,-0.004 -0.05946,-0.004 -0.128725,-0.0162 -0.20525,-0.0282 -0.0766,-0.0162 -0.160312,-0.0416 -0.248657,-0.0735 -0.08834,-0.0282 -0.181248,-0.0746 -0.276008,-0.12828 -0.0948,-0.0532 -0.191533,-0.11902 -0.287422,-0.19971 -0.09593,-0.0798 -0.19101,-0.17427 -0.282744,-0.28562 -0.09173,-0.11134 -0.179998,-0.23883 -0.26213,-0.38648 -0.407411,-0.7302 -0.762118,-1.33711 -1.098134,-1.93469 -0.167977,-0.29935 -0.331274,-0.59519 -0.494236,-0.90356 -0.162933,-0.30862 -0.325584,-0.62882 -0.491963,-0.97532 -0.05316,-0.11054 -0.1038,-0.24003 -0.132639,-0.378 -0.01452,-0.0691 -0.02339,-0.14039 -0.02421,-0.21261 -0.0011,-0.0722 0.0052,-0.14604 0.02299,-0.21906 0.01695,-0.0735 0.04445,-0.14726 0.08403,-0.21866 0.03994,-0.0722 0.09234,-0.14281 0.159947,-0.2118 0.06753,-0.0686 0.150228,-0.13515 0.250271,-0.19728 0.100043,-0.0625 0.217554,-0.12142 0.354872,-0.17588 0.08557,-0.0323 0.175197,-0.0625 0.268261,-0.0867 0.09311,-0.0242 0.189599,-0.0456 0.289078,-0.0593 0.198958,-0.0282 0.409573,-0.0455 0.627474,-0.0415 z m -4.454637,2.29866 c 0.06228,9.4e-4 0.122634,0.008 0.180966,0.0202 0.05832,0.008 0.114606,0.0282 0.168743,0.0521 0.108273,0.0456 0.207833,0.10451 0.29779,0.17429 0.08992,0.0698 0.169994,0.14926 0.239459,0.22954 0.0695,0.0807 0.128322,0.16259 0.175278,0.23802 0.271409,0.43639 0.48782,0.8292 0.790597,1.38577 0.302834,0.55665 0.691946,1.27696 1.308613,2.3681 0.0113,0.0162 0.05535,0.0822 0.105449,0.19203 0.02541,0.0549 0.05163,0.12063 0.07597,0.19647 0.02421,0.0759 0.04647,0.16137 0.06333,0.25497 0.01653,0.0936 0.02783,0.19606 0.02985,0.30659 0.0021,0.11014 -0.0049,0.22834 -0.02421,0.35259 -0.01977,0.12426 -0.05163,0.25537 -0.0998,0.39213 -0.048,0.13636 -0.112388,0.27837 -0.196134,0.42481 -0.4152,0.72564 -0.752206,1.3428 -1.090691,1.93894 -0.169267,0.29812 -0.338777,0.59081 -0.518762,0.88927 -0.179958,0.29853 -0.370322,0.60263 -0.580983,0.92339 -0.06733,0.10252 -0.151518,0.21221 -0.254343,0.30701 -0.05143,0.0455 -0.107467,0.0912 -0.168421,0.1287 -0.06095,0.0323 -0.126829,0.0686 -0.197828,0.0908 -0.07096,0.0201 -0.14704,0.0323 -0.228487,0.0323 -0.08141,9.4e-4 -0.168258,-0.008 -0.260556,-0.0323 -0.09234,-0.0242 -0.190284,-0.0637 -0.293918,-0.11981 -0.103632,-0.0561 -0.213077,-0.1291 -0.328489,-0.22229 -0.07193,-0.0581 -0.141594,-0.12224 -0.209123,-0.19122 -0.06753,-0.0693 -0.132921,-0.14362 -0.196053,-0.2239 -0.126305,-0.15936 -0.243978,-0.33686 -0.353137,-0.52834 -0.109202,-0.19121 -0.209927,-0.39615 -0.302351,-0.60952 -0.09237,-0.21341 -0.176446,-0.43441 -0.252408,-0.65863 -0.07592,-0.2243 -0.1437716,-0.45107 -0.2035555,-0.67538 -0.059788,-0.2243 -0.1115803,-0.44602 -0.155552,-0.66016 -0.043928,-0.21422 -0.080229,-0.41977 -0.1087157,-0.6128 -0.028646,-0.19283 -0.049507,-0.37196 -0.062733,-0.53329 -0.013319,-0.16015 -0.019768,-0.32233 -0.019768,-0.48495 1.96e-5,-0.16339 0.00682,-0.32677 0.018562,-0.49097 0.012094,-0.16419 0.030263,-0.32838 0.0539,-0.49197 0.023394,-0.1638 0.052153,-0.32638 0.085678,-0.48795 0.06692,-0.32354 0.1528491,-0.64084 0.2532559,-0.94659 0.1004423,-0.30539 0.2151743,-0.59953 0.3401073,-0.87524 0.124973,-0.27594 0.260028,-0.53321 0.400658,-0.76618 0.140625,-0.23277 0.286858,-0.44146 0.434233,-0.61929 0.0737,-0.0888 0.147685,-0.16985 0.221386,-0.24286 0.07366,-0.073 0.147161,-0.13677 0.219773,-0.19203 0.07262,-0.0549 0.144418,-0.10084 0.214811,-0.13637 0.07043,-0.0322 0.139416,-0.0617 0.206461,-0.0763 0.07592,-0.0162 0.149581,-0.0242 0.220781,-0.0242 z m 4.761554,4.6669 a 0.82428477,0.80008725 0 0 1 0.824313,0.80007 0.82428477,0.80008725 0 0 1 -0.824313,0.80004 0.82428477,0.80008725 0 0 1 -0.82431,-0.80004 0.82428477,0.80008725 0 0 1 0.82431,-0.80007 z m 4.093057,1.62234 c 0.338857,-9.4e-4 0.673429,4.7e-4 1.018055,0.008 0.344626,0.008 0.699296,0.0201 1.078299,0.0456 0.121141,0.008 0.256684,0.0242 0.389242,0.069 0.06624,0.0201 0.13175,0.0505 0.194358,0.0836 0.06261,0.0323 0.122352,0.0767 0.176892,0.12788 0.05454,0.0508 0.103999,0.11176 0.146153,0.18235 0.04244,0.071 0.07697,0.1521 0.102383,0.24528 0.02541,0.0932 0.04126,0.19929 0.04546,0.3183 0.004,0.11901 -0.0032,0.25214 -0.02421,0.4002 -0.01332,0.0924 -0.03309,0.18597 -0.05788,0.27997 -0.02541,0.0936 -0.05612,0.1888 -0.0921,0.28402 -0.07197,0.19081 -0.164264,0.38325 -0.272456,0.57556 -0.108193,0.19203 -0.232198,0.38325 -0.367338,0.5715 -0.135099,0.18799 -0.281372,0.37356 -0.434079,0.55241 -0.152728,0.17912 -0.31195,0.35258 -0.473025,0.51787 -0.161037,0.165 -0.324052,0.32192 -0.484182,0.46825 -0.16015,0.14604 -0.317356,0.28119 -0.467215,0.40302 -0.149863,0.12183 -0.292345,0.23036 -0.422716,0.32274 -0.129775,0.0924 -0.264551,0.17912 -0.403361,0.26142 -0.13881,0.0815 -0.281654,0.15895 -0.427512,0.22955 -0.14591,0.0718 -0.294846,0.13837 -0.446,0.2001 -0.151154,0.0617 -0.304326,0.1182 -0.458781,0.16984 -0.308883,0.10324 -0.622576,0.18799 -0.933389,0.25294 -0.31082,0.0658 -0.61887,0.11216 -0.916414,0.14081 -0.297548,0.0282 -0.584597,0.0416 -0.85369,0.0323 -0.269108,-0.004 -0.520133,-0.0282 -0.745602,-0.0702 -0.11271,-0.0201 -0.219087,-0.0456 -0.318082,-0.0722 -0.09899,-0.0282 -0.190648,-0.0601 -0.27395,-0.0968 -0.08334,-0.0322 -0.158335,-0.0763 -0.224088,-0.12022 -0.06575,-0.0452 -0.122392,-0.0912 -0.168704,-0.14281 -0.05244,-0.0581 -0.09545,-0.11901 -0.130419,-0.18235 -0.0351,-0.0634 -0.06171,-0.12789 -0.08141,-0.19324 -0.01977,-0.0658 -0.03267,-0.13272 -0.03953,-0.1997 -0.0072,-0.0669 -0.0077,-0.13393 -0.004,-0.2001 0.0077,-0.13231 0.03429,-0.26181 0.07043,-0.38043 0.0363,-0.1186 0.08222,-0.22671 0.128806,-0.31708 0.235224,-0.45764 0.461249,-0.8447 0.783271,-1.39017 0.321996,-0.54538 0.740044,-1.24884 1.359567,-2.33832 0.0077,-0.0162 0.04192,-0.0899 0.110695,-0.18962 0.03429,-0.0505 0.07709,-0.10608 0.129128,-0.165 0.05209,-0.0597 0.113436,-0.12182 0.185039,-0.18354 0.07164,-0.0622 0.153495,-0.12346 0.246276,-0.18033 0.09287,-0.0573 0.19674,-0.11055 0.312476,-0.15533 0.115775,-0.0455 0.243372,-0.0831 0.383796,-0.10933 0.140383,-0.0242 0.293514,-0.0416 0.460248,-0.0416 0.826598,0 1.521411,-0.0162 2.199113,-0.0162 z"
         style="opacity:0.25;fill:#000000;fill-opacity:1;stroke-width:0.01117508" />
      <path
         style="opacity:1;fill:url(#linearGradient1048);fill-opacity:1;stroke-width:0.01117508"
         d="m 16.924681,268.78667 c -0.486507,0 -0.474691,-0.0162 -0.636024,0.84582 -0.05962,0.31831 -0.12219,0.59288 -0.138971,0.60965 -0.05862,0.0589 -0.769649,0.14927 -0.884804,0.11256 -0.07468,-0.0242 -0.22179,-0.25738 -0.411033,-0.65414 -0.332443,-0.69619 -0.340027,-0.70048 -0.913562,-0.50888 -0.284237,0.0952 -0.296945,0.10893 -0.313726,0.33645 -0.0097,0.1307 0.0072,0.43748 0.03671,0.68158 0.02985,0.24367 0.03348,0.48492 0.0072,0.53539 -0.05849,0.11296 -0.795547,0.42226 -0.899181,0.3768 -0.04192,-0.0202 -0.259024,-0.25981 -0.482924,-0.53688 -0.367094,-0.45409 -0.422611,-0.50009 -0.563135,-0.46524 -0.220943,0.054 -0.660573,0.31912 -0.699982,0.42231 -0.01815,0.0456 0.06328,0.34211 0.181328,0.65412 0.118035,0.31225 0.214731,0.6172 0.214731,0.67758 0,0.12345 -0.576782,0.58772 -0.729732,0.58772 -0.05316,0 -0.340385,-0.16017 -0.638254,-0.35541 -0.297872,-0.19527 -0.5710757,-0.35543 -0.6071395,-0.35543 -0.089024,0 -0.6326826,0.54088 -0.6326826,0.62947 0,0.0415 0.1730998,0.33 0.3846028,0.64613 0.4338785,0.64907 0.4337775,0.60852 -7.178e-4,1.12324 -0.2271553,0.2691 -0.2011762,0.2707 -1.114876,-0.065 l -0.4642336,-0.17105 -0.1434504,0.17792 c -0.078902,0.098 -0.1886698,0.2953 -0.2439768,0.43944 l -0.1005264,0.26183 0.3215514,0.27191 c 0.1768514,0.14967 0.4244836,0.3659 0.5502432,0.48088 l 0.2287283,0.20937 -0.1584158,0.39536 c -0.087098,0.21745 -0.189396,0.42025 -0.2273562,0.45006 -0.042442,0.0323 -0.329821,0.0282 -0.7432469,-0.008 -0.7793827,-0.0722 -0.7661109,-0.0792 -0.8950941,0.45865 -0.099561,0.41509 -0.084108,0.43441 0.6236335,0.77163 0.3482557,0.16621 0.5635916,0.30499 0.5870574,0.37881 0.04848,0.15291 -0.06434,0.84869 -0.1457496,0.89899 -0.034684,0.0201 -0.3353858,0.0864 -0.6682528,0.14363 -0.3328465,0.0581 -0.6385399,0.13232 -0.6792834,0.165 -0.09996,0.0811 -0.09996,0.83993 0,0.92117 0.040909,0.0323 0.3464005,0.10771 0.6792834,0.165 0.3328455,0.0578 0.6335125,0.12264 0.6682528,0.14443 0.081407,0.0505 0.1942384,0.74618 0.1457496,0.89895 -0.023394,0.0738 -0.2388129,0.21342 -0.5870574,0.37881 -0.7050887,0.33646 -0.7263675,0.36189 -0.6273487,0.7559 0.1223913,0.48742 0.1478058,0.51525 0.4639793,0.51312 0.1536959,-9.4e-4 0.466101,-0.0242 0.6942853,-0.0557 0.3056972,-0.0416 0.4338775,-0.0323 0.4871638,0.0162 0.1396978,0.13756 0.3637875,0.77571 0.3085217,0.87891 -0.028647,0.054 -0.2682633,0.27794 -0.5320226,0.49805 -0.4278145,0.35663 -0.4754968,0.41674 -0.4416555,0.55436 0.053975,0.21945 0.3195746,0.65935 0.4219581,0.69869 0.047479,0.0202 0.3419629,-0.0637 0.6541147,-0.18115 0.3121929,-0.1182 0.6169013,-0.21462 0.6773029,-0.21462 0.1231576,0 0.5879323,0.57682 0.5879323,0.72976 0,0.0529 -0.1600691,0.3405 -0.3556795,0.63818 -0.1955675,0.29772 -0.3556375,0.57116 -0.3556375,0.60719 0,0.0899 0.5413277,0.6327 0.6310684,0.6327 0.039937,0 0.3116677,-0.16017 0.6040372,-0.35543 0.292385,-0.19525 0.578382,-0.35541 0.635527,-0.35541 0.152002,0 0.737046,0.47079 0.737046,0.59315 0,0.0577 -0.09641,0.35945 -0.214488,0.67211 -0.118035,0.31224 -0.199845,0.60663 -0.181612,0.65415 0.03953,0.10241 0.479335,0.36832 0.700236,0.42231 0.140505,0.0323 0.195932,-0.008 0.563011,-0.46524 0.223969,-0.27714 0.43842,-0.51763 0.476756,-0.53453 0.100684,-0.0456 0.848651,0.26464 0.904143,0.37397 0.02582,0.0505 0.02541,0.27877 -9.35e-4,0.50699 -0.02622,0.22833 -0.04949,0.52957 -0.05103,0.6698 -0.0028,0.23681 0.01209,0.26142 0.205655,0.34211 0.114767,0.0455 0.325705,0.10282 0.468784,0.12303 l 0.260194,0.0323 0.298355,-0.6245 c 0.191857,-0.4018 0.339623,-0.63776 0.414366,-0.66149 0.115171,-0.0323 0.826286,0.0537 0.884928,0.11256 0.01653,0.0162 0.07931,0.29085 0.138972,0.60953 0.05963,0.31829 0.13518,0.63902 0.167855,0.71256 0.05329,0.11942 0.101492,0.13353 0.468317,0.13353 0.263865,0 0.431606,-0.0242 0.473027,-0.0775 0.0355,-0.0415 0.108879,-0.34734 0.163621,-0.67673 0.05474,-0.33001 0.117792,-0.62895 0.140221,-0.66517 0.05187,-0.0839 0.745623,-0.19768 0.902405,-0.14806 0.07402,0.0242 0.198312,0.20775 0.330748,0.49097 0.116664,0.24971 0.264591,0.52978 0.328691,0.6228 0.104965,0.1521 0.140062,0.16501 0.351039,0.13152 0.128969,-0.0202 0.325183,-0.0754 0.436099,-0.12183 0.190082,-0.0791 0.201498,-0.10042 0.199723,-0.36874 -9.35e-4,-0.15653 -0.02622,-0.47127 -0.05591,-0.69938 -0.03994,-0.30498 -0.0355,-0.43339 0.01653,-0.4839 0.109765,-0.10771 0.808835,-0.37357 0.888645,-0.33807 0.03872,0.0162 0.252568,0.25617 0.474386,0.53038 0.221831,0.27433 0.448777,0.49909 0.504039,0.49859 0.118317,-7.2e-4 0.694938,-0.32152 0.756385,-0.42125 0.02339,-0.0323 -0.06124,-0.37438 -0.188147,-0.74823 l -0.230947,-0.67957 0.322559,-0.29007 c 0.177337,-0.15974 0.352008,-0.29046 0.388112,-0.29046 0.0363,0 0.326716,0.17347 0.645814,0.38568 0.31913,0.2118 0.615872,0.38567 0.659327,0.38567 0.1021,0 0.621765,-0.51868 0.621765,-0.62055 0,-0.0415 -0.160068,-0.32153 -0.355638,-0.61933 -0.195569,-0.29814 -0.35576,-0.58505 -0.35576,-0.63818 0,-0.14685 0.474183,-0.72989 0.593258,-0.72989 0.05744,0 0.360036,0.0964 0.67222,0.21464 0.312193,0.1182 0.607212,0.19969 0.655737,0.18073 0.105166,-0.0415 0.44807,-0.62066 0.449078,-0.75953 4.76e-4,-0.0537 -0.226187,-0.28844 -0.503276,-0.5215 -0.577783,-0.48645 -0.595447,-0.54285 -0.337323,-1.07033 0.133445,-0.27271 0.18375,-0.32476 0.307634,-0.31709 0.08145,0.004 0.408161,0.0282 0.725888,0.0521 l 0.577638,0.0455 0.09032,-0.21623 c 0.0495,-0.11901 0.106498,-0.33364 0.126184,-0.47734 l 0.0359,-0.26141 -0.62536,-0.29974 c -0.395212,-0.1892 -0.638781,-0.34131 -0.661683,-0.4138 -0.04901,-0.1533 0.06665,-0.84699 0.149339,-0.89814 0.0363,-0.0202 0.335549,-0.0855 0.665152,-0.1404 0.329619,-0.0545 0.634045,-0.12829 0.676556,-0.16378 0.105247,-0.0875 0.105247,-0.84178 0,-0.92913 -0.0424,-0.0323 -0.346965,-0.10932 -0.676556,-0.1638 -0.329619,-0.0545 -0.628934,-0.11739 -0.665152,-0.14038 -0.0833,-0.0516 -0.197828,-0.74508 -0.148613,-0.90008 0.0238,-0.0746 0.25975,-0.22269 0.661437,-0.41464 l 0.624614,-0.29814 -0.0359,-0.26019 c -0.01977,-0.14282 -0.07491,-0.35421 -0.122835,-0.46879 -0.08282,-0.19808 -0.101577,-0.20857 -0.371734,-0.20655 -0.15648,9.3e-4 -0.471201,0.0242 -0.699357,0.056 -0.486259,0.0634 -0.491003,0.0601 -0.700485,-0.44248 -0.100527,-0.24124 -0.131065,-0.38607 -0.09528,-0.45308 0.02865,-0.054 0.266486,-0.27675 0.527935,-0.49504 0.261443,-0.21825 0.474742,-0.44046 0.474742,-0.49504 -7.22e-4,-0.13998 -0.343415,-0.72015 -0.449082,-0.76077 -0.04848,-0.0201 -0.343537,0.0625 -0.655732,0.18073 -0.312192,0.1182 -0.614727,0.21461 -0.672221,0.21461 -0.119083,0 -0.593253,-0.5833 -0.593253,-0.72987 0,-0.0529 0.16019,-0.34049 0.35572,-0.63826 0.195567,-0.29813 0.355637,-0.57645 0.355637,-0.61925 0,-0.10252 -0.520249,-0.62055 -0.623375,-0.62055 -0.04446,0 -0.302067,0.14927 -0.573056,0.33081 -0.726642,0.48793 -0.642097,0.4743 -1.050782,0.16702 -0.20743,-0.15613 -0.360562,-0.31669 -0.360562,-0.37801 0,-0.0589 0.09666,-0.36228 0.214732,-0.6744 0.118035,-0.31226 0.19936,-0.60736 0.180724,-0.65594 -0.04083,-0.1065 -0.621295,-0.44848 -0.762461,-0.44901 -0.05522,-2e-4 -0.282139,0.22431 -0.503985,0.49856 -0.22183,0.27433 -0.434581,0.51282 -0.472919,0.52977 -0.100694,0.0456 -0.848539,-0.26465 -0.904144,-0.37397 -0.02582,-0.0505 -0.02622,-0.25215 -9.34e-4,-0.44753 0.02541,-0.19566 0.04796,-0.49701 0.05095,-0.66988 0.0049,-0.30297 -0.0019,-0.31709 -0.196458,-0.39818 -0.110934,-0.0455 -0.307148,-0.10084 -0.436096,-0.12183 -0.211019,-0.0323 -0.245994,-0.0201 -0.35096,0.13152 -0.0641,0.0927 -0.212066,0.37357 -0.32869,0.62264 -0.132436,0.28281 -0.256845,0.46777 -0.330829,0.49101 -0.156802,0.0505 -0.850395,-0.0636 -0.902288,-0.14806 -0.02219,-0.0323 -0.08557,-0.33604 -0.140303,-0.66536 -0.05474,-0.33 -0.128443,-0.63407 -0.16374,-0.67659 -0.04126,-0.0504 -0.209082,-0.077 -0.472875,-0.077 z m -0.297873,3.31801 c 0.163379,7.3e-4 0.33091,0.008 0.500554,0.0242 0.169669,0.0162 0.341438,0.0416 0.513553,0.0661 0.344222,0.0561 0.689698,0.13434 1.021154,0.22592 0.331434,0.0912 0.648987,0.19566 0.937487,0.30297 0.288513,0.1077 0.547952,0.21825 0.763328,0.32234 0.142966,0.0693 0.283914,0.14523 0.422457,0.22792 0.138529,0.0827 0.274677,0.17066 0.407912,0.26426 0.133283,0.0932 0.263663,0.19243 0.390936,0.2953 0.127314,0.10283 0.25148,0.21059 0.371977,0.32153 0.241031,0.22188 0.467666,0.45764 0.676922,0.69974 0.209285,0.24246 0.401143,0.49149 0.572431,0.73996 0.171283,0.24851 0.322115,0.49706 0.44923,0.73786 0.127154,0.24084 0.230626,0.47431 0.307393,0.69317 0.03832,0.10972 0.07002,0.21501 0.09471,0.31668 0.0246,0.10167 0.04244,0.19809 0.05244,0.28966 0.01008,0.0912 0.01251,0.1771 0.0077,0.25698 -0.0049,0.0798 -0.01815,0.1529 -0.03954,0.21947 -0.02421,0.0754 -0.05514,0.14281 -0.09186,0.20494 -0.03671,0.0617 -0.07912,0.11779 -0.125821,0.16702 -0.04647,0.0505 -0.09775,0.094 -0.151719,0.13272 -0.05401,0.0416 -0.110977,0.073 -0.16955,0.1021 -0.117228,0.0589 -0.241072,0.0993 -0.36072,0.12546 -0.119609,0.0242 -0.235023,0.0416 -0.33551,0.0416 -0.507919,0.0162 -0.951244,0.008 -1.577351,-0.004 -0.626103,-0.0162 -1.434986,-0.0416 -2.673996,-0.0505 v -8e-5 c -0.01856,0.002 -0.09779,0.004 -0.216667,-0.004 -0.05946,-0.004 -0.128725,-0.0162 -0.20525,-0.0282 -0.0766,-0.0162 -0.160312,-0.0416 -0.248657,-0.0735 -0.08834,-0.0282 -0.181248,-0.0746 -0.276008,-0.12828 -0.0948,-0.0532 -0.191533,-0.11901 -0.287422,-0.19971 -0.09593,-0.0798 -0.19101,-0.17427 -0.282744,-0.28562 -0.09173,-0.11134 -0.179998,-0.23883 -0.26213,-0.38648 -0.407411,-0.7302 -0.762118,-1.33711 -1.098134,-1.93469 -0.167977,-0.29935 -0.331274,-0.59518 -0.494236,-0.90356 -0.162933,-0.30862 -0.325584,-0.62882 -0.491963,-0.97531 -0.05316,-0.11055 -0.1038,-0.24004 -0.132639,-0.37801 -0.01452,-0.0691 -0.02339,-0.14039 -0.02421,-0.2126 -0.0011,-0.0722 0.0052,-0.14605 0.02299,-0.21907 0.01695,-0.0735 0.04445,-0.14726 0.08403,-0.21866 0.03994,-0.0722 0.09234,-0.14281 0.159947,-0.2118 0.06753,-0.0686 0.150228,-0.13515 0.250271,-0.19727 0.100043,-0.0625 0.217554,-0.12143 0.354872,-0.17589 0.08557,-0.0323 0.175197,-0.0625 0.268261,-0.0867 0.09311,-0.0242 0.189599,-0.0456 0.289078,-0.0593 0.198958,-0.0282 0.409573,-0.0455 0.627474,-0.0415 z m -4.454637,2.29866 c 0.06228,9.4e-4 0.122634,0.008 0.180966,0.0202 0.05832,0.008 0.114606,0.0282 0.168743,0.0521 0.108273,0.0456 0.207833,0.1045 0.29779,0.17428 0.08992,0.0698 0.169994,0.14926 0.239459,0.22954 0.0695,0.0807 0.128322,0.16259 0.175278,0.23803 0.271409,0.43638 0.48782,0.82919 0.790597,1.38576 0.302834,0.55665 0.691946,1.27696 1.308613,2.3681 0.0113,0.0162 0.05535,0.0822 0.105449,0.19203 0.02541,0.0549 0.05163,0.12063 0.07597,0.19647 0.02421,0.0759 0.04647,0.16137 0.06333,0.25497 0.01653,0.0936 0.02783,0.19606 0.02985,0.30659 0.0021,0.11014 -0.0049,0.22834 -0.02421,0.3526 -0.01977,0.12425 -0.05163,0.25536 -0.0998,0.39212 -0.048,0.13636 -0.112388,0.27837 -0.196134,0.42481 -0.4152,0.72565 -0.752206,1.3428 -1.090691,1.93894 -0.169267,0.29812 -0.338777,0.59081 -0.518762,0.88928 -0.179958,0.29853 -0.370322,0.60263 -0.580983,0.92338 -0.06733,0.10252 -0.151518,0.21221 -0.254343,0.30701 -0.05143,0.0455 -0.107467,0.0912 -0.168421,0.1287 -0.06095,0.0323 -0.126829,0.0686 -0.197828,0.0908 -0.07096,0.0201 -0.14704,0.0323 -0.228487,0.0323 -0.08141,9.3e-4 -0.168258,-0.008 -0.260556,-0.0323 -0.09234,-0.0242 -0.190284,-0.0638 -0.293918,-0.11982 -0.103632,-0.0561 -0.213077,-0.1291 -0.328489,-0.22229 -0.07193,-0.0581 -0.141594,-0.12224 -0.209123,-0.19122 -0.06753,-0.0693 -0.132921,-0.14362 -0.196053,-0.2239 -0.126305,-0.15936 -0.243978,-0.33685 -0.353137,-0.52833 -0.109202,-0.19122 -0.209927,-0.39616 -0.302351,-0.60953 -0.09237,-0.21341 -0.176446,-0.43441 -0.252408,-0.65863 -0.07592,-0.2243 -0.1437716,-0.45107 -0.2035555,-0.67538 -0.059788,-0.22429 -0.1115803,-0.44602 -0.155552,-0.66016 -0.043928,-0.21422 -0.080229,-0.41977 -0.1087157,-0.6128 -0.028646,-0.19283 -0.049507,-0.37196 -0.062733,-0.53329 -0.013319,-0.16015 -0.019768,-0.32233 -0.019768,-0.48495 1.96e-5,-0.16339 0.00682,-0.32677 0.018562,-0.49097 0.012094,-0.16419 0.030263,-0.32838 0.0539,-0.49197 0.023394,-0.1638 0.052153,-0.32638 0.085678,-0.48795 0.06692,-0.32354 0.1528491,-0.64084 0.2532559,-0.94659 0.1004423,-0.30539 0.2151743,-0.59953 0.3401073,-0.87523 0.124973,-0.27595 0.260028,-0.53322 0.400658,-0.76619 0.140625,-0.23277 0.286858,-0.44146 0.434233,-0.61929 0.0737,-0.0888 0.147685,-0.16984 0.221386,-0.24286 0.07366,-0.073 0.147161,-0.13677 0.219773,-0.19203 0.07262,-0.0549 0.144418,-0.10084 0.214811,-0.13637 0.07043,-0.0322 0.139416,-0.0617 0.206461,-0.0763 0.07592,-0.0162 0.149581,-0.0242 0.220781,-0.0242 z m 4.761554,4.6669 a 0.82428477,0.80008725 0 0 1 0.824313,0.80007 0.82428477,0.80008725 0 0 1 -0.824313,0.80004 0.82428477,0.80008725 0 0 1 -0.82431,-0.80004 0.82428477,0.80008725 0 0 1 0.82431,-0.80007 z m 4.093057,1.62234 c 0.338857,-9.4e-4 0.673429,4.7e-4 1.018055,0.008 0.344626,0.008 0.699296,0.0201 1.078299,0.0456 0.121141,0.008 0.256684,0.0242 0.389242,0.069 0.06624,0.0201 0.13175,0.0505 0.194358,0.0836 0.06261,0.0323 0.122352,0.0767 0.176892,0.12789 0.05454,0.0507 0.103999,0.11175 0.146153,0.18234 0.04244,0.071 0.07697,0.1521 0.102383,0.24529 0.02541,0.0932 0.04126,0.19928 0.04546,0.31829 0.004,0.11901 -0.0032,0.25214 -0.02421,0.4002 -0.01332,0.0923 -0.03309,0.18597 -0.05788,0.27998 -0.02541,0.0936 -0.05612,0.18879 -0.0921,0.28401 -0.07197,0.19082 -0.164264,0.38325 -0.272456,0.57556 -0.108193,0.19203 -0.232198,0.38325 -0.367338,0.5715 -0.135099,0.18799 -0.281372,0.37356 -0.434079,0.55241 -0.152728,0.17912 -0.31195,0.35258 -0.473025,0.51787 -0.161037,0.165 -0.324052,0.32193 -0.484182,0.46825 -0.16015,0.14605 -0.317356,0.28119 -0.467215,0.40302 -0.149863,0.12184 -0.292345,0.23036 -0.422716,0.32274 -0.129775,0.0924 -0.264551,0.17912 -0.403361,0.26142 -0.13881,0.0815 -0.281654,0.15895 -0.427512,0.22955 -0.14591,0.0718 -0.294846,0.13837 -0.446,0.2001 -0.151154,0.0617 -0.304326,0.1182 -0.458781,0.16984 -0.308883,0.10325 -0.622576,0.18799 -0.933389,0.25295 -0.31082,0.0658 -0.61887,0.11215 -0.916414,0.1408 -0.297548,0.0282 -0.584597,0.0416 -0.85369,0.0323 -0.269108,-0.004 -0.520133,-0.0282 -0.745602,-0.0702 -0.11271,-0.0201 -0.219087,-0.0456 -0.318082,-0.0722 -0.09899,-0.0282 -0.190648,-0.0601 -0.27395,-0.0968 -0.08334,-0.0322 -0.158335,-0.0763 -0.224088,-0.12022 -0.06575,-0.0452 -0.122392,-0.0912 -0.168704,-0.14281 -0.05244,-0.0581 -0.09545,-0.119 -0.130419,-0.18235 -0.0351,-0.0634 -0.06171,-0.12789 -0.08141,-0.19323 -0.01977,-0.0658 -0.03267,-0.13273 -0.03953,-0.19971 -0.0072,-0.0669 -0.0077,-0.13393 -0.004,-0.2001 0.0077,-0.13231 0.03429,-0.26181 0.07043,-0.38043 0.0363,-0.1186 0.08222,-0.22671 0.128806,-0.31708 0.235224,-0.45764 0.461249,-0.84469 0.783271,-1.39017 0.321996,-0.54538 0.740044,-1.24883 1.359567,-2.33832 0.0077,-0.0162 0.04192,-0.0899 0.110695,-0.18962 0.03429,-0.0505 0.07709,-0.10608 0.129128,-0.165 0.05209,-0.0597 0.113436,-0.12182 0.185039,-0.18354 0.07164,-0.0622 0.153495,-0.12345 0.246276,-0.18033 0.09287,-0.0573 0.19674,-0.11055 0.312476,-0.15533 0.115775,-0.0455 0.243372,-0.0831 0.383796,-0.10933 0.140383,-0.0242 0.293514,-0.0416 0.460248,-0.0416 0.826598,0 1.521411,-0.0162 2.199113,-0.0162 z"
         id="path1007"
         inkscape:connector-curvature="0" />
    </g>
  </g>
</svg>
