<?xml version="1.0" encoding="UTF-8" standalone="no"?>
<!-- Created with Inkscape (http://www.inkscape.org/) -->

<svg
   xmlns:dc="http://purl.org/dc/elements/1.1/"
   xmlns:cc="http://creativecommons.org/ns#"
   xmlns:rdf="http://www.w3.org/1999/02/22-rdf-syntax-ns#"
   xmlns:svg="http://www.w3.org/2000/svg"
   xmlns="http://www.w3.org/2000/svg"
   xmlns:sodipodi="http://sodipodi.sourceforge.net/DTD/sodipodi-0.dtd"
   xmlns:inkscape="http://www.inkscape.org/namespaces/inkscape"
   width="128"
   height="128"
   viewBox="0 0 33.866666 33.866668"
   version="1.1"
   id="svg8"
   inkscape:version="0.92.2 5c3e80d, 2017-08-06"
   sodipodi:docname="drawing.svg">
  <defs
     id="defs2" />
  <sodipodi:namedview
     id="base"
     pagecolor="#ffffff"
     bordercolor="#666666"
     borderopacity="1.0"
     inkscape:pageopacity="0.0"
     inkscape:pageshadow="2"
     inkscape:zoom="1.979899"
     inkscape:cx="44.017698"
     inkscape:cy="88.576327"
     inkscape:document-units="mm"
     inkscape:current-layer="layer1"
     showgrid="false"
     units="px"
     inkscape:window-width="1549"
     inkscape:window-height="856"
     inkscape:window-x="51"
     inkscape:window-y="0"
     inkscape:window-maximized="1" />
  <metadata
     id="metadata5">
    <rdf:RDF>
      <cc:Work
         rdf:about="">
        <dc:format>image/svg+xml</dc:format>
        <dc:type
           rdf:resource="http://purl.org/dc/dcmitype/StillImage" />
        <dc:title></dc:title>
      </cc:Work>
    </rdf:RDF>
  </metadata>
  <g
     inkscape:label="Layer 1"
     inkscape:groupmode="layer"
     id="layer1"
     transform="translate(0,-263.13332)">
    <g
       id="g2366"
       transform="matrix(0.9836063,0,0,0.9836063,0.57909995,4.5553653)">
      <rect
         style="opacity:0.25;fill:#000000;fill-opacity:1;stroke:#173e5d;stroke-width:0.14598484;stroke-miterlimit:4;stroke-dasharray:none;stroke-dashoffset:0;stroke-opacity:1"
         id="rect2351"
         width="31.604015"
         height="31.604015"
         x="0.82480061"
         y="264.5658" />
      <rect
         y="264.03662"
         x="0.82480061"
         height="31.604015"
         width="31.604015"
         id="rect815"
         style="opacity:1;fill:#2d333a;fill-opacity:1;stroke:#173e5d;stroke-width:0.14598484;stroke-miterlimit:4;stroke-dasharray:none;stroke-dashoffset:0;stroke-opacity:1" />
      <g
         transform="translate(-0.77543052,0.49136298)"
         id="g2349">
        <g
           transform="matrix(1.2197249,0,0,1.2197249,-0.6912368,-61.885908)"
           id="g2337"
           style="opacity:0.25;fill:#000000">
          <path
             style="fill:#000000;fill-opacity:1;stroke-width:0.35277778"
             inkscape:connector-curvature="0"
             d="m 6.4323064,271.12758 h 6.5341496 a 0.93274448,0.93274448 0 0 1 0.932745,0.93275 v 6.53485 a 0.93274448,0.93274448 0 0 1 -0.932745,0.93275 H 6.4323064 a 0.93274448,0.93274448 0 0 1 -0.933097,-0.93275 v -6.5345 a 0.93274448,0.93274448 0 0 1 0.932744,-0.9331 z m 0,0"
             id="path2329" />
          <path
             style="fill:#000000;fill-opacity:1;stroke-width:0.35277778"
             inkscape:connector-curvature="0"
             d="m 16.701315,280.46243 h 6.533445 a 0.93380281,0.93380281 0 0 1 0.934156,0.93275 v 6.53486 a 0.93380281,0.93380281 0 0 1 -0.934508,0.93274 h -6.533446 a 0.93309725,0.93309725 0 0 1 -0.934156,-0.93274 v -6.53486 a 0.93309725,0.93309725 0 0 1 0.934509,-0.93275 z m 0,0"
             id="path2331" />
          <path
             style="fill:#000000;fill-opacity:1;stroke-width:0.35277778"
             inkscape:connector-curvature="0"
             d="m 8.2992064,282.32969 h 2.8003496 a 0.93380281,0.93380281 0 0 1 0.934156,0.93274 v 2.80035 a 0.93486114,0.93486114 0 0 1 -0.934156,0.93416 H 8.2992064 a 0.93380281,0.93380281 0 0 1 -0.932744,-0.93416 v -2.8007 a 0.93274448,0.93274448 0 0 1 0.932744,-0.93275 z m 0,0"
             id="path2333" />
          <path
             style="fill:#000000;fill-opacity:1;stroke-width:0.35277778"
             inkscape:connector-curvature="0"
             d="m 18.567157,272.99483 h 2.801408 a 0.93274448,0.93274448 0 0 1 0.933098,0.93275 v 2.80035 a 0.93380281,0.93380281 0 0 1 -0.933098,0.93415 h -2.801408 a 0.93380281,0.93380281 0 0 1 -0.933098,-0.93415 v -2.80035 a 0.93274448,0.93274448 0 0 1 0.933098,-0.93275 z m 0,0"
             id="path2335" />
        </g>
        <g
           id="g2327"
           transform="matrix(1.2197249,0,0,1.2197249,-0.6912368,-62.453747)">
          <path
             id="path1564"
             d="m 6.4323064,271.12758 h 6.5341496 a 0.93274448,0.93274448 0 0 1 0.932745,0.93275 v 6.53485 a 0.93274448,0.93274448 0 0 1 -0.932745,0.93275 H 6.4323064 a 0.93274448,0.93274448 0 0 1 -0.933097,-0.93275 v -6.5345 a 0.93274448,0.93274448 0 0 1 0.932744,-0.9331 z m 0,0"
             inkscape:connector-curvature="0"
             style="fill:#00bdff;fill-opacity:1;stroke-width:0.35277778" />
          <path
             id="path1566"
             d="m 16.701315,280.46243 h 6.533445 a 0.93380281,0.93380281 0 0 1 0.934156,0.93275 v 6.53486 a 0.93380281,0.93380281 0 0 1 -0.934508,0.93274 h -6.533446 a 0.93309725,0.93309725 0 0 1 -0.934156,-0.93274 v -6.53486 a 0.93309725,0.93309725 0 0 1 0.934509,-0.93275 z m 0,0"
             inkscape:connector-curvature="0"
             style="fill:#00bdff;fill-opacity:1;stroke-width:0.35277778" />
          <path
             id="path1568"
             d="m 8.2992064,282.32969 h 2.8003496 a 0.93380281,0.93380281 0 0 1 0.934156,0.93274 v 2.80035 a 0.93486114,0.93486114 0 0 1 -0.934156,0.93416 H 8.2992064 a 0.93380281,0.93380281 0 0 1 -0.932744,-0.93416 v -2.8007 a 0.93274448,0.93274448 0 0 1 0.932744,-0.93275 z m 0,0"
             inkscape:connector-curvature="0"
             style="fill:#ffa90d;fill-opacity:1;stroke-width:0.35277778" />
          <path
             id="path1570"
             d="m 18.567157,272.99483 h 2.801408 a 0.93274448,0.93274448 0 0 1 0.933098,0.93275 v 2.80035 a 0.93380281,0.93380281 0 0 1 -0.933098,0.93415 h -2.801408 a 0.93380281,0.93380281 0 0 1 -0.933098,-0.93415 v -2.80035 a 0.93274448,0.93274448 0 0 1 0.933098,-0.93275 z m 0,0"
             inkscape:connector-curvature="0"
             style="fill:#ffa90d;fill-opacity:1;stroke-width:0.35277778" />
        </g>
      </g>
    </g>
  </g>
</svg>
