<?xml version="1.0" encoding="UTF-8" standalone="no"?>
<svg
   xmlns:dc="http://purl.org/dc/elements/1.1/"
   xmlns:cc="http://creativecommons.org/ns#"
   xmlns:rdf="http://www.w3.org/1999/02/22-rdf-syntax-ns#"
   xmlns:svg="http://www.w3.org/2000/svg"
   xmlns="http://www.w3.org/2000/svg"
   xmlns:sodipodi="http://sodipodi.sourceforge.net/DTD/sodipodi-0.dtd"
   xmlns:inkscape="http://www.inkscape.org/namespaces/inkscape"
   width="128"
   height="128"
   version="1.1"
   viewBox="0 0 96 96"
   id="svg38"
   sodipodi:docname="google-chrome-unstable.svg"
   inkscape:version="0.92.4 (5da689c313, 2019-01-14)">
  <metadata
     id="metadata44">
    <rdf:RDF>
      <cc:Work
         rdf:about="">
        <dc:format>image/svg+xml</dc:format>
        <dc:type
           rdf:resource="http://purl.org/dc/dcmitype/StillImage" />
        <dc:title />
      </cc:Work>
    </rdf:RDF>
  </metadata>
  <defs
     id="defs42" />
  <sodipodi:namedview
     pagecolor="#ffffff"
     bordercolor="#666666"
     borderopacity="1"
     objecttolerance="10"
     gridtolerance="10"
     guidetolerance="10"
     inkscape:pageopacity="0"
     inkscape:pageshadow="2"
     inkscape:window-width="1600"
     inkscape:window-height="838"
     id="namedview40"
     showgrid="false"
     units="px"
     inkscape:zoom="1.84375"
     inkscape:cx="97.107021"
     inkscape:cy="45.438274"
     inkscape:window-x="-8"
     inkscape:window-y="-8"
     inkscape:window-maximized="1"
     inkscape:current-layer="svg38" />
  <g
     id="g836"
     transform="translate(-3e-6)">
    <path
       style="opacity:0.25;fill:#000000;fill-opacity:1;stroke-width:0.26222393"
       d="m 48.00098,4.4990985 c -15.90859,0 -29.85474,8.3965865 -37.65386,20.9986965 -4.18123,6.75637 -6.59586,14.72157 -6.59586,23.251017 0,23.6898 18.61612,43.032207 42.0179,44.195532 4.8e-4,2.3e-5 9.7e-4,-2.2e-5 10e-4,0 0.73805,0.0358 1.48164,0.05566 2.22889,0.05566 24.43908,0 44.249716,-19.812117 44.249716,-44.251182 0,-7.405778 -1.822376,-14.383312 -5.037696,-20.516895 h 10e-4 C 79.81644,14.1251 65.03427,4.4991035 48.00098,4.4991035 Z m 0,23.4706825 c 1.14774,0 2.27254,0.09637 3.36969,0.275318 h 0.0176 v 0.0029 c 9.86402,1.618528 17.39176,10.178771 17.39176,20.500785 0,5.317609 -1.99963,10.166632 -5.28517,13.841949 l -0.003,0.0044 c -3.80516,4.254024 -9.33437,6.934153 -15.49092,6.934153 -9.49935,0 -17.50422,-6.376288 -19.98238,-15.08087 -0.51577,-1.811636 -0.79811,-3.722579 -0.79811,-5.699626 0,-11.476395 9.30409,-20.779031 20.78049,-20.779031 z"
       id="path1382"
       inkscape:connector-curvature="0" />
    <path
       inkscape:connector-curvature="0"
       style="fill:#8a2029;fill-opacity:1;stroke:#330c0f;stroke-width:0.5669291;stroke-miterlimit:4;stroke-dasharray:none;stroke-opacity:1"
       d="m 48.00026,3.0000196 c -15.90859,0 -29.85473,8.3965824 -37.65385,20.9986944 L 28.01789,52.94936 c -0.51577,-1.811638 -0.79812,-3.722578 -0.79812,-5.699625 0,-11.476397 9.30409,-20.779033 20.78049,-20.779033 1.14774,0 2.27254,0.09637 3.3697,0.275315 l 35.84232,-0.0132 C 79.81572,12.625994 65.03355,2.9999956 48.00026,2.9999956 Z M 10.34202,24.007501 c -10.73172,51.332385 -5.36535,25.666198 0,0 z"
       id="path1984" />
    <path
       inkscape:connector-curvature="0"
       style="fill:#d63241;fill-opacity:1;stroke:#8a2029;stroke-width:0.5669291;stroke-miterlimit:4;stroke-dasharray:none;stroke-opacity:1"
       d="m 10.34641,23.998714 c -4.18124,6.756369 -6.59587,14.721573 -6.59587,23.251021 0,23.690292 18.6169,43.032936 42.01936,44.195527 l 17.72567,-30.35358 c -3.80529,4.256706 -9.33652,6.938549 -15.49531,6.938549 -9.49935,0 -17.50422,-6.376289 -19.98237,-15.080871 z"
       id="path1979" />
    <path
       inkscape:connector-curvature="0"
       style="fill:#f09183;fill-opacity:1;stroke:#8a2029;stroke-width:0.5669291;stroke-miterlimit:4;stroke-dasharray:none;stroke-opacity:1"
       d="m 87.21228,26.732841 -35.82476,0.0132 10e-4,0.003 c 9.86402,1.618528 17.39177,10.178767 17.39177,20.500784 0,5.317607 -1.99964,10.166629 -5.28518,13.841947 L 45.7694,91.445356 c 0.73853,0.03584 1.48261,0.05563 2.23036,0.05563 24.43907,0 44.249706,-19.812111 44.249706,-44.251176 0,-7.405778 -1.822366,-14.383314 -5.037686,-20.516897 z"
       id="path1974" />
    <path
       inkscape:connector-curvature="0"
       style="opacity:0.25;fill:#000000;stroke-width:0.26222393"
       d="m 87.18446,26.732841 -35.79694,0.0132 10e-4,0.003 c 5.11487,0.839272 9.59868,3.548324 12.73337,7.398382 z"
       id="path1989" />
    <path
       inkscape:connector-curvature="0"
       style="opacity:0.25;fill:#000000;stroke-width:0.26222393"
       d="m 63.48532,61.101933 c -3.17373,3.545278 -7.54734,5.990083 -12.48149,6.7057 l -5.23393,23.637628 3.95108,-6.765738 z"
       id="path1994" />
    <path
       inkscape:connector-curvature="0"
       style="opacity:0.25;fill:#000000;stroke-width:0.26222393"
       d="M 10.38595,24.063156 28.01789,52.94936 c -0.51577,-1.811639 -0.79812,-3.722578 -0.79812,-5.699625 0,-2.63514 0.49502,-5.153446 1.38975,-7.473072 z"
       id="path1999" />
  </g>
</svg>
