<?xml version="1.0" encoding="UTF-8" standalone="no"?>
<svg
   xmlns:dc="http://purl.org/dc/elements/1.1/"
   xmlns:cc="http://creativecommons.org/ns#"
   xmlns:rdf="http://www.w3.org/1999/02/22-rdf-syntax-ns#"
   xmlns:svg="http://www.w3.org/2000/svg"
   xmlns="http://www.w3.org/2000/svg"
   xmlns:xlink="http://www.w3.org/1999/xlink"
   xmlns:sodipodi="http://sodipodi.sourceforge.net/DTD/sodipodi-0.dtd"
   xmlns:inkscape="http://www.inkscape.org/namespaces/inkscape"
   id="Flamingo"
   width="128"
   height="128"
   enable-background="new 0 0 1024 1024"
   version="1.1"
   viewBox="0 0 128 128"
   sodipodi:docname="gnome-maps.svg"
   style="image-rendering:optimizeSpeed"
   inkscape:version="0.92.3 (2405546, 2018-03-11)">
  <metadata
     id="metadata51">
    <rdf:RDF>
      <cc:Work
         rdf:about="">
        <dc:format>image/svg+xml</dc:format>
        <dc:type
           rdf:resource="http://purl.org/dc/dcmitype/StillImage" />
        <dc:title></dc:title>
      </cc:Work>
    </rdf:RDF>
  </metadata>
  <sodipodi:namedview
     pagecolor="#ffffff"
     bordercolor="#666666"
     borderopacity="1"
     objecttolerance="10"
     gridtolerance="10"
     guidetolerance="10"
     inkscape:pageopacity="0"
     inkscape:pageshadow="2"
     inkscape:window-width="1600"
     inkscape:window-height="837"
     id="namedview49"
     showgrid="false"
     inkscape:zoom="0.921875"
     inkscape:cx="110.33478"
     inkscape:cy="0.74619574"
     inkscape:window-x="0"
     inkscape:window-y="30"
     inkscape:window-maximized="1"
     inkscape:current-layer="Flamingo" />
  <defs
     id="defs28">
    <linearGradient
       inkscape:collect="always"
       id="linearGradient946">
      <stop
         style="stop-color:#fa5f31;stop-opacity:1"
         offset="0"
         id="stop942" />
      <stop
         style="stop-color:#df3822;stop-opacity:1"
         offset="1"
         id="stop944" />
    </linearGradient>
    <linearGradient
       id="c"
       x1="540"
       x2="532.83002"
       y1="4"
       y2="694.35999"
       gradientTransform="matrix(-0.0635474,0.1247188,-0.1247188,-0.0635474,276.05839,33.586394)"
       gradientUnits="userSpaceOnUse">
      <stop
         stop-color="#28b162"
         offset="0"
         id="stop10" />
      <stop
         stop-color="#35e981"
         offset="1"
         id="stop12" />
    </linearGradient>
    <linearGradient
       id="b"
       x1="32.213001"
       x2="31.938999"
       y1="62.062"
       y2="23.497999"
       gradientUnits="userSpaceOnUse"
       gradientTransform="matrix(-0.9998018,1.9622215,-1.9622215,-0.9998018,274.44246,34.111434)">
      <stop
         stop-color="#3a7af0"
         offset="0"
         id="stop15" />
      <stop
         stop-color="#43adf1"
         offset="1"
         id="stop17" />
    </linearGradient>
    <linearGradient
       id="a"
       x1="31.791"
       x2="32"
       y1="46.159"
       y2="2"
       gradientUnits="userSpaceOnUse"
       gradientTransform="matrix(-0.9998018,1.9622215,-1.9622215,-0.9998018,274.44246,34.111434)">
      <stop
         stop-color="#e1e7f2"
         offset="0"
         id="stop20" />
      <stop
         stop-color="#fff"
         offset="1"
         id="stop22" />
    </linearGradient>
    <linearGradient
       inkscape:collect="always"
       xlink:href="#linearGradient946"
       id="linearGradient948"
       x1="174.42096"
       y1="-607.17468"
       x2="248.86803"
       y2="-155.58746"
       gradientUnits="userSpaceOnUse" />
    <linearGradient
       inkscape:collect="always"
       xlink:href="#linearGradient946"
       id="linearGradient950"
       gradientUnits="userSpaceOnUse"
       x1="174.42096"
       y1="-607.17468"
       x2="248.86803"
       y2="-155.58746" />
  </defs>
  <g
     id="g980"
     transform="matrix(0.89204668,0,0,0.89204668,-96.263478,5.2072874)">
    <path
       style="opacity:0.25;fill:#000000;stroke-width:2.19366384"
       inkscape:connector-curvature="0"
       id="path972"
       d="m 167.46566,132.02594 c 1.25015,0.24425 2.53491,0.45115 3.8233,0.6206 2.68605,0.35533 5.39522,0.52608 8.16228,0.52211 1.1644,-0.004 2.36974,-0.0415 3.57524,-0.1106 5.5928,-0.3395 11.29146,-1.44168 17.04293,-3.31061 13.66795,-4.44099 24.53472,-12.18672 32.58773,-23.2436 1.35685,-1.86136 2.63314,-3.81123 3.8478,-5.90224 0.68501,-1.174824 1.36747,-2.421726 2.01874,-3.69991 0.59416,-1.166114 1.15079,-2.33563 1.67941,-3.527273 6.76003,-15.148047 7.52016,-30.776269 2.28751,-46.883252 Q 234.03372,20.463574 209.65135,8.0401378 C 193.39435,-0.2432185 176.58408,-1.5663092 159.2355,4.0705763 143.13578,9.3069346 130.93926,19.107532 122.65073,33.478496 l -0.0254,0.0499 c -0.59628,1.03151 -1.14221,2.025852 -1.64421,3.011082 l -0.53697,1.053865 c -0.53157,1.072332 -1.01778,2.120642 -1.46671,3.125001 -0.13927,0.321787 -0.26435,0.611534 -0.38553,0.895399 -1.10273,2.611473 -2.03038,5.233559 -2.76983,7.81016 -0.31192,1.089991 -0.59242,2.180168 -0.84471,3.245675 -2.60273,11.367231 -1.986,22.890388 1.83712,34.656731 2.97291,9.149692 7.42014,17.039651 13.35774,23.670391 4.29549,4.7965 9.36916,8.94473 15.25202,12.44493 0.62629,0.37411 1.28387,0.74844 1.95082,1.11968 0.74184,0.40941 1.50872,0.81587 2.28831,1.21309 l 0.37415,0.19064 c 5.08251,2.55824 10.22967,4.43465 15.50078,5.65157 0.61242,0.13922 1.2718,0.27885 1.92811,0.40903 z" />
    <path
       d="m 167.46566,130.02594 c 1.25015,0.24425 2.53491,0.45115 3.8233,0.6206 2.68605,0.35533 5.39522,0.52608 8.16228,0.52211 1.1644,-0.004 2.36974,-0.0415 3.57524,-0.1106 5.5928,-0.3395 11.29146,-1.44168 17.04293,-3.31061 13.66795,-4.44099 24.53472,-12.18672 32.58773,-23.2436 1.35685,-1.86136 2.63314,-3.81123 3.8478,-5.902243 0.68501,-1.174821 1.36747,-2.421723 2.01874,-3.699907 0.59416,-1.166114 1.15079,-2.33563 1.67941,-3.527273 6.76003,-15.148047 7.52016,-30.776269 2.28751,-46.883252 Q 234.03372,18.463574 209.65135,6.0401378 C 193.39435,-2.2432185 176.58408,-3.5663092 159.2355,2.0705763 143.13578,7.3069346 130.93926,17.107532 122.65073,31.478496 l -0.0254,0.0499 c -0.59628,1.03151 -1.14221,2.025852 -1.64421,3.011082 l -0.53697,1.053865 c -0.53157,1.072332 -1.01778,2.120642 -1.46671,3.125001 -0.13927,0.321787 -0.26435,0.611534 -0.38553,0.895399 -1.10273,2.611473 -2.03038,5.233559 -2.76983,7.81016 -0.31192,1.089991 -0.59242,2.180168 -0.84471,3.245675 -2.60273,11.367231 -1.986,22.890388 1.83712,34.656731 2.97291,9.149692 7.42014,17.039651 13.35774,23.670391 4.29549,4.7965 9.36916,8.94473 15.25202,12.44493 0.62629,0.37411 1.28387,0.74844 1.95082,1.11968 0.74184,0.40941 1.50872,0.81587 2.28831,1.21309 l 0.37415,0.19064 c 5.08251,2.55824 10.22967,4.43465 15.50078,5.65157 0.61242,0.13922 1.2718,0.27885 1.92811,0.40903 z"
       id="path32"
       inkscape:connector-curvature="0"
       style="fill:url(#b);stroke:none;stroke-width:2.19366384" />
    <path
       d="m 238.52436,94.902923 c 0.59416,-1.166113 1.15244,-2.335026 1.68108,-3.526669 6.76003,-15.148047 7.5186,-30.777068 2.28494,-46.882091 C 236.85243,27.14234 225.90618,14.325495 209.65113,6.0431371 204.65001,3.4949383 199.59688,1.6110843 194.49152,0.38023616 L 166.95705,129.91875 c 0.1727,0.0355 0.33575,0.0753 0.50895,0.10966 1.25016,0.24424 2.53319,0.45017 3.82137,0.61955 2.68606,0.35533 5.39492,0.52765 8.16197,0.52368 1.1644,-0.004 2.37134,-0.0442 3.57686,-0.1133 5.5928,-0.33948 11.29007,-1.43941 17.04173,-3.30824 13.66796,-4.44099 24.53513,-12.18948 32.58794,-23.24596 1.35686,-1.86137 2.63125,-3.80849 3.84591,-5.899504 0.68501,-1.174821 1.36967,-2.422827 2.02104,-3.701217 z"
       id="path34"
       inkscape:connector-curvature="0"
       style="fill:url(#c);stroke-width:2.19366384" />
    <path
       d="m 245.86527,67.525286 c 0.21341,-5.899348 -0.42688,-11.867122 -1.9185,-17.902623 L 184.48711,68.942274 198.80815,1.5930305 c -5.73284,-1.81064198 -11.53137,-2.7909119 -17.39638,-2.9213121 l -16.27033,76.5565156 -0.20151,0.954519 -10.57852,49.772167 c 3.67749,1.56116 7.39411,2.78941 11.17733,3.6628 0.61242,0.13923 1.27385,0.27881 1.93017,0.40901 1.25016,0.24425 2.53318,0.45017 3.82137,0.61954 0.0262,0.003 0.0528,0.003 0.0788,0.006 l 8.88728,-41.810131 65.60881,-21.317601 z"
       style="fill:url(#a);fill-rule:evenodd;stroke-width:2.20225263;paint-order:fill markers stroke"
       id="path36"
       inkscape:connector-curvature="0" />
    <g
       style="fill:url(#linearGradient948);fill-opacity:1;stroke-width:0.94984001"
       id="g46"
       transform="matrix(0.1392369,0,0,0.1392369,153.02176,112.63006)">
      <path
         style="fill:url(#linearGradient950);fill-opacity:1;stroke-width:0.94984001"
         inkscape:connector-curvature="0"
         id="path44"
         d="m 191.3,-645.02 c -117.17,0 -212.16,94.991 -212.16,212.16 0,8.9696 0.71956,17.711 1.8163,26.377 18.129,165.72 196.57,356.73 196.57,356.73 3.1795,3.558 6.2445,5.7528 9.1962,7.3413 l 0.15188,0.07594 5.942,1.8923 5.942,-1.8923 0.15188,-0.07594 c 2.9517,-1.5898 6.018,-3.8978 9.1962,-7.3413 0,0 175.87,-191.34 193.58,-357.1 1.0594,-8.5526 1.779,-17.22 1.779,-26.038 -0.0386,-117.13 -94.991,-212.12 -212.16,-212.12 z m 0,348.63 c -75.236,0 -136.47,-61.233 -136.47,-136.47 0,-75.237 61.233,-136.47 136.47,-136.47 75.237,0 136.43,61.233 136.43,136.47 0,75.237 -61.195,136.47 -136.43,136.47 z" />
    </g>
  </g>
</svg>
