<?xml version="1.0" encoding="UTF-8" standalone="no"?>
<svg
   xmlns:dc="http://purl.org/dc/elements/1.1/"
   xmlns:cc="http://creativecommons.org/ns#"
   xmlns:rdf="http://www.w3.org/1999/02/22-rdf-syntax-ns#"
   xmlns:svg="http://www.w3.org/2000/svg"
   xmlns="http://www.w3.org/2000/svg"
   xmlns:xlink="http://www.w3.org/1999/xlink"
   xmlns:sodipodi="http://sodipodi.sourceforge.net/DTD/sodipodi-0.dtd"
   xmlns:inkscape="http://www.inkscape.org/namespaces/inkscape"
   height="128"
   viewBox="0 0 95.999997 95.999997"
   width="128"
   version="1.1"
   id="svg81"
   sodipodi:docname="hitori.svg"
   inkscape:version="0.92.3 (2405546, 2018-03-11)">
  <metadata
     id="metadata87">
    <rdf:RDF>
      <cc:Work
         rdf:about="">
        <dc:format>image/svg+xml</dc:format>
        <dc:type
           rdf:resource="http://purl.org/dc/dcmitype/StillImage" />
        <dc:title></dc:title>
      </cc:Work>
    </rdf:RDF>
  </metadata>
  <defs
     id="defs85" />
  <sodipodi:namedview
     pagecolor="#ffffff"
     bordercolor="#666666"
     borderopacity="1"
     objecttolerance="10"
     gridtolerance="10"
     guidetolerance="10"
     inkscape:pageopacity="0"
     inkscape:pageshadow="2"
     inkscape:window-width="1600"
     inkscape:window-height="837"
     id="namedview83"
     showgrid="false"
     units="px"
     inkscape:zoom="0.69140625"
     inkscape:cx="203.4608"
     inkscape:cy="35.763146"
     inkscape:window-x="0"
     inkscape:window-y="30"
     inkscape:window-maximized="1"
     inkscape:current-layer="svg81" />
  <linearGradient
     id="a"
     gradientUnits="userSpaceOnUse"
     x1="31.752541"
     x2="31.752541"
     y1="54.939835"
     y2="57.585922">
    <stop
       offset="0"
       stop-opacity=".275"
       id="stop2" />
    <stop
       offset="1"
       stop-opacity="0"
       id="stop4" />
  </linearGradient>
  <linearGradient
     id="b">
    <stop
       offset="0"
       stop-opacity=".314"
       id="stop7" />
    <stop
       offset=".222"
       stop-opacity=".275"
       id="stop9" />
    <stop
       offset="1"
       stop-opacity="0"
       id="stop11" />
  </linearGradient>
  <radialGradient
     id="c"
     cx="450.909"
     cy="189.57899"
     gradientTransform="matrix(0,-0.15626,-0.28128,0,102.938,126.064)"
     gradientUnits="userSpaceOnUse"
     r="21.167"
     xlink:href="#b" />
  <radialGradient
     id="d"
     cx="450.909"
     cy="189.57899"
     gradientTransform="matrix(0,0.15626,0.28128,0,-39.432,-16.182)"
     gradientUnits="userSpaceOnUse"
     r="21.167"
     xlink:href="#b" />
  <radialGradient
     id="e"
     cx="450.909"
     cy="189.57899"
     gradientTransform="matrix(0,-0.15626,0.28128,0,-39.432,126.064)"
     gradientUnits="userSpaceOnUse"
     r="21.167"
     xlink:href="#b" />
  <radialGradient
     id="f"
     cx="450.909"
     cy="189.57899"
     gradientTransform="matrix(0,0.15626,-0.28128,0,102.938,-16.182)"
     gradientUnits="userSpaceOnUse"
     r="21.167"
     xlink:href="#b" />
  <linearGradient
     id="g">
    <stop
       offset="0"
       stop-color="#e0e0e0"
       id="stop18" />
    <stop
       offset="1"
       stop-color="#eee"
       id="stop20" />
  </linearGradient>
  <linearGradient
     id="h"
     gradientUnits="userSpaceOnUse"
     x1="127"
     x2="127"
     xlink:href="#g"
     y1="-31.083"
     y2="-158.08299"
     gradientTransform="matrix(0.23435468,0,0,0.23435468,95.236522,-177.14242)" />
  <linearGradient
     id="i"
     gradientUnits="userSpaceOnUse"
     x1="381"
     x2="381"
     xlink:href="#g"
     y1="-31.083"
     y2="-158.08299"
     gradientTransform="matrix(0.23435468,0,0,0.23435468,95.236522,-177.14242)" />
  <linearGradient
     id="j">
    <stop
       offset="0"
       stop-color="#ef5350"
       id="stop25" />
    <stop
       offset="1"
       stop-color="#e57373"
       id="stop27" />
  </linearGradient>
  <linearGradient
     id="k"
     gradientUnits="userSpaceOnUse"
     x1="127"
     x2="127"
     xlink:href="#j"
     y1="222.91701"
     y2="95.917"
     gradientTransform="matrix(0.12501,0,0,0.12501,88.975603,26.878)" />
  <linearGradient
     id="l"
     gradientUnits="userSpaceOnUse"
     x1="127"
     x2="127"
     xlink:href="#g"
     y1="95.917"
     y2="-31.083"
     gradientTransform="matrix(0.23435468,0,0,0.23435468,95.236522,-177.14242)" />
  <linearGradient
     id="m"
     gradientUnits="userSpaceOnUse"
     x1="381"
     x2="381"
     xlink:href="#g"
     y1="222.91701"
     y2="95.917"
     gradientTransform="matrix(0.23435468,0,0,0.23435468,95.236522,-177.14242)" />
  <linearGradient
     id="n"
     gradientUnits="userSpaceOnUse"
     x1="381"
     x2="381"
     y1="95.917"
     y2="-31.083"
     gradientTransform="matrix(0.12501,0,0,0.12501,88.975603,26.878)">
    <stop
       offset="0"
       stop-color="#81c784"
       id="stop33" />
    <stop
       offset="1"
       stop-color="#a5d6a7"
       id="stop35" />
  </linearGradient>
  <linearGradient
     id="o"
     gradientUnits="userSpaceOnUse"
     x1="254"
     x2="254"
     xlink:href="#g"
     y1="95.917"
     y2="-31.083"
     gradientTransform="matrix(0.23435468,0,0,0.23435468,95.236522,-177.14242)" />
  <linearGradient
     id="p"
     gradientUnits="userSpaceOnUse"
     x1="254"
     x2="254"
     xlink:href="#j"
     y1="222.91701"
     y2="95.917"
     gradientTransform="matrix(0.12501,0,0,0.12501,88.975603,26.878)" />
  <linearGradient
     id="q"
     gradientUnits="userSpaceOnUse"
     x1="254"
     x2="254"
     y1="-31.083"
     y2="-158.08299"
     gradientTransform="matrix(0.12501,0,0,0.12501,88.975603,26.878)">
    <stop
       offset="0"
       stop-color="#424242"
       id="stop40" />
    <stop
       offset="1"
       stop-color="#616161"
       id="stop42" />
  </linearGradient>
  <g
     id="g2297"
     transform="matrix(0.9882352,0,0,0.9882352,-104.9399,214.94667)">
    <path
       inkscape:connector-curvature="0"
       style="opacity:0.25;fill:#000000;fill-opacity:1;stroke:none;stroke-width:0.5669291;stroke-linecap:round;stroke-miterlimit:4;stroke-dasharray:none;stroke-opacity:1"
       id="path2279"
       d="m 115.08168,-158.12347 h 24.80246 c 2.73867,0 4.95756,2.21863 4.95756,4.95754 v 24.80222 c 0,2.73891 -2.21889,4.96504 -4.95756,4.96504 h -24.80246 c -2.74593,0 -4.9648,-2.22636 -4.9648,-4.96504 v -24.80222 c 0,-2.73891 2.21887,-4.95754 4.9648,-4.95754 z m 0,0" />
    <path
       inkscape:connector-curvature="0"
       style="opacity:0.25;fill:#000000;stroke:none;stroke-width:0.5669291;stroke-linecap:round;stroke-miterlimit:4;stroke-dasharray:none;stroke-opacity:1"
       id="path2281"
       d="m 169.64415,-158.12347 h 24.80292 c 2.73867,0 4.95754,2.21863 4.95754,4.95754 v 24.80222 c 0,2.73891 -2.21887,4.96504 -4.95754,4.96504 h -24.80292 c -2.73868,0 -4.95754,-2.22636 -4.95754,-4.96504 v -24.80222 c 0,-2.73891 2.21886,-4.95754 4.95754,-4.95754 z m 0,0" />
    <path
       inkscape:connector-curvature="0"
       style="opacity:0.25;fill:#000000;fill-opacity:1;stroke:none;stroke-width:0.5669291;stroke-linecap:round;stroke-miterlimit:4;stroke-dasharray:none;stroke-opacity:1"
       id="path2283"
       d="m 139.88414,-153.16593 h 29.76023 v 29.7675 h -29.76023 z m 0,0" />
    <path
       d="m 115.08168,-214.1864 h 24.80246 c 2.73867,0 4.95756,2.21887 4.95756,4.95754 v 24.80269 c 0,2.73867 -2.21889,4.95754 -4.95756,4.95754 h -24.80246 c -2.74593,0 -4.9648,-2.21887 -4.9648,-4.95754 v -24.80269 c 0,-2.73867 2.21887,-4.95754 4.9648,-4.95754 z m 0,0"
       id="path55"
       style="fill:url(#h);stroke:#000000;stroke-width:0.5669291;stroke-linecap:round;stroke-miterlimit:4;stroke-dasharray:none;stroke-opacity:1"
       inkscape:connector-curvature="0" />
    <path
       d="m 169.64415,-214.1864 h 24.80292 c 2.73867,0 4.95754,2.21887 4.95754,4.95754 v 24.80269 c 0,2.73867 -2.21887,4.95754 -4.95754,4.95754 h -24.80292 c -2.73868,0 -4.95754,-2.21887 -4.95754,-4.95754 v -24.80269 c 0,-2.73867 2.21886,-4.95754 4.95754,-4.95754 z m 0,0"
       id="path57"
       style="fill:url(#i);stroke:#000000;stroke-width:0.5669291;stroke-linecap:round;stroke-miterlimit:4;stroke-dasharray:none;stroke-opacity:1"
       inkscape:connector-curvature="0" />
    <path
       d="m 115.08168,-159.62347 h 24.80246 c 2.73867,0 4.95756,2.21863 4.95756,4.95754 v 24.80222 c 0,2.73891 -2.21889,4.96504 -4.95756,4.96504 h -24.80246 c -2.74593,0 -4.9648,-2.22636 -4.9648,-4.96504 v -24.80222 c 0,-2.73891 2.21887,-4.95754 4.9648,-4.95754 z m 0,0"
       id="path59"
       style="fill:#fe245f;fill-opacity:1;stroke:#000000;stroke-width:0.5669291;stroke-linecap:round;stroke-miterlimit:4;stroke-dasharray:none;stroke-opacity:1"
       inkscape:connector-curvature="0" />
    <path
       d="m 110.11664,-184.42617 h 29.76774 v 29.76024 h -29.76797 z m 0,0"
       id="path61"
       style="fill:url(#l);stroke:#000000;stroke-width:0.5669291;stroke-linecap:round;stroke-miterlimit:4;stroke-dasharray:none;stroke-opacity:1"
       inkscape:connector-curvature="0" />
    <path
       d="m 169.64415,-159.62347 h 24.80292 c 2.73867,0 4.95754,2.21863 4.95754,4.95754 v 24.80222 c 0,2.73891 -2.21887,4.96504 -4.95754,4.96504 h -24.80292 c -2.73868,0 -4.95754,-2.22636 -4.95754,-4.96504 v -24.80222 c 0,-2.73891 2.21886,-4.95754 4.95754,-4.95754 z m 0,0"
       id="path63"
       style="fill:url(#m);stroke:#000000;stroke-width:0.5669291;stroke-linecap:round;stroke-miterlimit:4;stroke-dasharray:none;stroke-opacity:1"
       inkscape:connector-curvature="0" />
    <path
       d="m 169.64415,-184.42617 h 29.76069 v 29.76024 h -29.76069 z m 0,0"
       id="path65"
       style="fill:#e17c1d;fill-opacity:1;stroke:#000000;stroke-width:0.5669291;stroke-linecap:round;stroke-miterlimit:4;stroke-dasharray:none;stroke-opacity:1"
       inkscape:connector-curvature="0" />
    <path
       d="m 139.88414,-184.42617 h 29.76023 v 29.76024 h -29.76023 z m 0,0"
       id="path67"
       style="fill:url(#o);stroke:#000000;stroke-width:0.5669291;stroke-linecap:round;stroke-miterlimit:4;stroke-dasharray:none;stroke-opacity:1"
       inkscape:connector-curvature="0" />
    <path
       d="m 139.88414,-154.66593 h 29.76023 v 29.7675 h -29.76023 z m 0,0"
       id="path69"
       style="fill:#fe245f;fill-opacity:1;stroke:#000000;stroke-width:0.5669291;stroke-linecap:round;stroke-miterlimit:4;stroke-dasharray:none;stroke-opacity:1"
       inkscape:connector-curvature="0" />
    <path
       d="m 139.88414,-214.1864 h 29.76023 v 29.76023 h -29.76023 z m 0,0"
       id="path71"
       style="fill:#197df4;fill-opacity:1;stroke:#000000;stroke-width:0.5669291;stroke-linecap:round;stroke-miterlimit:4;stroke-dasharray:none;stroke-opacity:1"
       inkscape:connector-curvature="0" />
  </g>
</svg>
