<?xml version="1.0" encoding="UTF-8" standalone="no"?>
<!-- Created with Inkscape (http://www.inkscape.org/) -->

<svg
   xmlns:dc="http://purl.org/dc/elements/1.1/"
   xmlns:cc="http://creativecommons.org/ns#"
   xmlns:rdf="http://www.w3.org/1999/02/22-rdf-syntax-ns#"
   xmlns:svg="http://www.w3.org/2000/svg"
   xmlns="http://www.w3.org/2000/svg"
   xmlns:sodipodi="http://sodipodi.sourceforge.net/DTD/sodipodi-0.dtd"
   xmlns:inkscape="http://www.inkscape.org/namespaces/inkscape"
   width="128"
   height="128"
   viewBox="0 0 33.866666 33.866668"
   version="1.1"
   id="svg8"
   inkscape:version="0.92.4 (5da689c313, 2019-01-14)"
   sodipodi:docname="home.svg">
  <defs
     id="defs2" />
  <sodipodi:namedview
     id="base"
     pagecolor="#ffffff"
     bordercolor="#666666"
     borderopacity="1.0"
     inkscape:pageopacity="0.0"
     inkscape:pageshadow="2"
     inkscape:zoom="1.4"
     inkscape:cx="25.168306"
     inkscape:cy="37.760568"
     inkscape:document-units="mm"
     inkscape:current-layer="layer1"
     showgrid="false"
     inkscape:window-width="1600"
     inkscape:window-height="838"
     inkscape:window-x="-8"
     inkscape:window-y="-8"
     inkscape:window-maximized="1"
     units="px" />
  <metadata
     id="metadata5">
    <rdf:RDF>
      <cc:Work
         rdf:about="">
        <dc:format>image/svg+xml</dc:format>
        <dc:type
           rdf:resource="http://purl.org/dc/dcmitype/StillImage" />
        <dc:title></dc:title>
      </cc:Work>
    </rdf:RDF>
  </metadata>
  <g
     inkscape:label="Layer 1"
     inkscape:groupmode="layer"
     id="layer1"
     transform="translate(0,-263.13332)">
    <g
       id="g965"
       transform="translate(2.3765104e-5,-0.26460473)">
      <path
         style="opacity:0.25;fill:#000000;fill-opacity:1;stroke:none;stroke-width:0.1;stroke-miterlimit:4;stroke-dasharray:none;stroke-opacity:1"
         d="m 16.957057,266.02131 c -0.156143,-0.002 -0.313376,0.0366 -0.464028,0.11645 -0.12259,0.0649 -1.765754,1.34061 -3.651551,2.8348 -3.3338466,2.64153 -4.4659054,3.53747 -5.3648017,4.24595 -3.3385392,2.63133 -6.108523,4.83437 -6.2363193,4.95993 -0.1262012,0.12399 -0.1638929,0.19565 -0.1780507,0.3388 -0.020701,0.20932 0.038283,0.34304 0.2062348,0.46783 0.1124435,0.0835 0.175874,0.0878 1.617558,0.10775 l 1.5006017,0.0207 0.021265,7.48655 c 0.012886,4.53528 0.026627,6.63573 0.050884,7.34057 v 0.33045 c 0,0.49825 0.6637226,0.89936 1.4881972,0.89936 h 21.972597 c 0.195809,0 0.382367,-0.0229 0.553306,-0.064 0.02313,-0.004 0.04222,-0.009 0.05662,-0.0137 0.0027,-9.1e-4 0.0052,-0.002 0.0078,-0.003 0.514316,-0.14132 0.870506,-0.45384 0.870506,-0.81869 v -0.35745 c 0.02407,-0.72466 0.03743,-2.78818 0.05046,-7.31357 l 0.02152,-7.48655 1.500602,-0.0207 c 1.441684,-0.0199 1.505114,-0.0242 1.617558,-0.10776 0.167331,-0.12431 0.226849,-0.25864 0.206404,-0.46571 -0.01234,-0.12503 -0.05366,-0.21703 -0.136365,-0.30336 -0.06528,-0.0681 -0.818671,-0.67698 -1.67418,-1.35302 -0.855509,-0.67604 -1.569154,-1.24877 -1.585914,-1.27276 -0.01676,-0.024 -0.03187,-1.19153 -0.0335,-2.59447 -0.0022,-1.86296 -0.01633,-2.58892 -0.05249,-2.69211 -0.02723,-0.0777 -0.102124,-0.18033 -0.166489,-0.22809 -0.112256,-0.0833 -0.1718,-0.0873 -1.459507,-0.0988 -1.471173,-0.0131 -1.559084,-0.002 -1.707258,0.22429 -0.06823,0.10404 -0.07717,0.23711 -0.08902,1.33074 -0.0089,0.82178 -0.02741,1.21513 -0.05721,1.21513 -0.05188,0 -0.07989,-0.0219 -4.740865,-3.71062 -1.984648,-1.57068 -3.688222,-2.89122 -3.785723,-2.93454 -0.116658,-0.0518 -0.23744,-0.0786 -0.358885,-0.0804 z"
         id="path957"
         inkscape:connector-curvature="0" />
      <path
         inkscape:connector-curvature="0"
         id="path865"
         d="m 16.957057,265.49214 c -0.156143,-0.002 -0.313376,0.0366 -0.464028,0.11645 -0.12259,0.0649 -1.765754,1.34061 -3.651551,2.8348 -3.3338466,2.64153 -4.4659054,3.53747 -5.3648017,4.24595 -3.3385392,2.63133 -6.108523,4.83437 -6.2363193,4.95993 -0.1262012,0.12399 -0.1638929,0.19565 -0.1780507,0.3388 -0.020701,0.20932 0.038283,0.34304 0.2062348,0.46783 0.1124435,0.0835 0.175874,0.0878 1.617558,0.10775 l 1.5006017,0.0207 0.021265,7.48655 c 0.012886,4.53528 0.026627,6.63573 0.050884,7.34057 v 0.33045 c 0,0.49825 0.6637226,0.89936 1.4881972,0.89936 h 21.972597 c 0.195809,0 0.382367,-0.0229 0.553306,-0.064 0.02313,-0.004 0.04222,-0.009 0.05662,-0.0137 0.0027,-9.1e-4 0.0052,-0.002 0.0078,-0.003 0.514316,-0.14132 0.870506,-0.45384 0.870506,-0.81869 v -0.35745 c 0.02407,-0.72466 0.03743,-2.78818 0.05046,-7.31357 l 0.02152,-7.48655 1.500602,-0.0207 c 1.441684,-0.0199 1.505114,-0.0242 1.617558,-0.10776 0.167331,-0.12431 0.226849,-0.25864 0.206404,-0.46571 -0.01234,-0.12503 -0.05366,-0.21703 -0.136365,-0.30336 -0.06528,-0.0681 -0.818671,-0.67698 -1.67418,-1.35302 -0.855509,-0.67604 -1.569154,-1.24877 -1.585914,-1.27276 -0.01676,-0.024 -0.03187,-1.19153 -0.0335,-2.59447 -0.0022,-1.86296 -0.01633,-2.58892 -0.05249,-2.69211 -0.02723,-0.0777 -0.102124,-0.18033 -0.166489,-0.22809 -0.112256,-0.0833 -0.1718,-0.0873 -1.459507,-0.0988 -1.471173,-0.0131 -1.559084,-0.002 -1.707258,0.22429 -0.06823,0.10404 -0.07717,0.23711 -0.08902,1.33074 -0.0089,0.82178 -0.02741,1.21513 -0.05721,1.21513 -0.05188,0 -0.07989,-0.0219 -4.740865,-3.71062 -1.984648,-1.57068 -3.688222,-2.89122 -3.785723,-2.93454 -0.116658,-0.0518 -0.23744,-0.0786 -0.358885,-0.0804 z"
         style="fill:#f88f1c;fill-opacity:1;stroke:none;stroke-width:0.1;stroke-miterlimit:4;stroke-dasharray:none;stroke-opacity:1" />
      <path
         style="fill:#feab1f;fill-opacity:1;stroke:none;stroke-width:0.1;stroke-miterlimit:4;stroke-dasharray:none;stroke-opacity:1"
         d="m 16.959596,268.63033 c -0.181061,-0.001 -0.368487,0.0418 -0.511436,0.12745 -0.187584,0.11239 -2.84495,2.19418 -7.0214755,5.5009 -0.7315321,0.57918 -1.6007529,1.26738 -1.9317105,1.52926 -0.39167,0.30991 -0.6363354,0.54556 -0.7007399,0.67503 -0.094801,0.19056 -0.098137,0.51878 -0.079547,7.84022 0.018098,7.12621 0.025809,7.6559 0.1137141,7.85735 0.051844,0.1188 0.1448067,0.26085 0.2065544,0.31565 0.2877225,0.25536 -0.063216,0.24654 9.8668464,0.24874 6.621841,0.001 9.404619,-0.0152 9.555924,-0.0572 0.27548,-0.0765 0.545472,-0.34857 0.61351,-0.61834 0.07626,-0.30236 0.12788,-15.1315 0.05361,-15.40049 -0.07905,-0.28631 -0.211893,-0.43209 -0.853564,-0.93706 -0.311867,-0.24543 -0.725002,-0.57158 -0.918063,-0.72469 -0.679391,-0.53885 -2.263465,-1.78953 -3.192232,-2.52039 -0.516448,-0.40641 -1.773505,-1.39719 -2.793514,-2.20176 -1.020012,-0.80458 -1.929516,-1.50161 -2.021032,-1.54893 -0.109067,-0.0564 -0.246016,-0.0845 -0.386848,-0.0857 z m -0.03064,3.80706 c 0.229541,0 0.542419,0.18462 1.188007,0.70095 0.341565,0.27319 1.420301,1.13195 2.397222,1.90831 3.112457,2.4735 3.455085,2.75681 3.56798,2.95063 0.109158,0.1874 0.109952,0.23543 0.09152,5.64329 -0.01455,4.27 -0.03358,5.48943 -0.08756,5.61625 -0.0839,0.19714 -0.273807,0.37807 -0.477923,0.45541 -0.104751,0.0397 -2.187039,0.057 -6.69627,0.0555 -5.318966,-10e-4 -6.57516,-0.0155 -6.709009,-0.0738 -0.2197072,-0.0957 -0.4456787,-0.37262 -0.4791375,-0.58713 -0.014909,-0.0957 -0.03621,-2.56057 -0.047241,-5.47761 -0.021387,-5.65221 -0.025691,-5.54648 0.2390726,-5.82831 0.06832,-0.0727 0.5138739,-0.44023 0.9901319,-0.81665 1.21525,-0.96049 4.211026,-3.34321 4.88915,-3.88868 0.591171,-0.47553 0.905726,-0.65811 1.134064,-0.65811 z"
         id="path909"
         inkscape:connector-curvature="0"
         sodipodi:nodetypes="cccccscsccccccccccscscccccccccccs" />
      <path
         sodipodi:nodetypes="cccccscsccccccccccscscccccccccccs"
         inkscape:connector-curvature="0"
         id="path890"
         d="m 16.953505,271.42476 c -0.139067,-10e-4 -0.283016,0.0321 -0.392806,0.0979 -0.144075,0.0863 -2.185055,1.68523 -5.392818,4.22495 -0.561851,0.44483 -1.2294521,0.9734 -1.4836424,1.17454 -0.3008219,0.23802 -0.4887364,0.41902 -0.5382011,0.51845 -0.072812,0.14637 -0.075375,0.39845 -0.061094,6.02165 0.013896,5.47326 0.019822,5.88009 0.087337,6.03481 0.039817,0.0912 0.1112173,0.20034 0.1586425,0.24243 0.220983,0.19613 -0.048554,0.18936 7.578194,0.19105 5.085877,10e-4 7.223177,-0.0117 7.339388,-0.044 0.211582,-0.0587 0.418948,-0.26771 0.471204,-0.47491 0.05857,-0.23223 0.09822,-11.62169 0.04118,-11.82828 -0.06071,-0.2199 -0.162743,-0.33187 -0.655578,-0.71971 -0.239526,-0.1885 -0.556834,-0.439 -0.705112,-0.5566 -0.521805,-0.41386 -1.738447,-1.37443 -2.451782,-1.93577 -0.396657,-0.31214 -1.362134,-1.0731 -2.145547,-1.69106 -0.783417,-0.61795 -1.481957,-1.1533 -1.552246,-1.18964 -0.08377,-0.0433 -0.188952,-0.0649 -0.297116,-0.0658 z m -0.02354,2.92399 c 0.176297,0 0.416602,0.1418 0.912443,0.53837 0.262339,0.20982 1.090857,0.86938 1.841176,1.46567 2.390512,1.89976 2.653667,2.11735 2.740374,2.26621 0.08384,0.14394 0.08445,0.18083 0.07029,4.33431 -0.01119,3.27955 -0.02579,4.21613 -0.06725,4.31354 -0.06443,0.15141 -0.210294,0.29037 -0.36707,0.34978 -0.08045,0.0305 -1.679744,0.0437 -5.143041,0.0426 -4.085212,-10e-4 -5.050028,-0.0119 -5.152829,-0.0567 -0.168744,-0.0735 -0.342302,-0.28619 -0.367999,-0.45095 -0.01146,-0.0735 -0.02781,-1.96663 -0.03628,-4.20705 -0.01643,-4.34116 -0.01973,-4.25995 0.18362,-4.4764 0.05247,-0.0559 0.394678,-0.33812 0.760466,-0.62723 0.933367,-0.7377 3.234262,-2.56774 3.755094,-2.98669 0.454046,-0.36523 0.695638,-0.50546 0.871013,-0.50546 z"
         style="fill:#ffbe40;fill-opacity:1;stroke:none;stroke-width:0.1;stroke-miterlimit:4;stroke-dasharray:none;stroke-opacity:1" />
      <path
         style="fill:#ffd25f;fill-opacity:1;stroke:none;stroke-width:0.1;stroke-miterlimit:4;stroke-dasharray:none;stroke-opacity:1"
         d="m 16.952273,273.49689 c -0.09928,-8.3e-4 -0.202037,0.0246 -0.280412,0.075 -0.102852,0.0661 -1.559845,1.29043 -3.84977,3.23517 -0.401087,0.34062 -0.877668,0.74536 -1.059127,0.89937 -0.214747,0.18227 -0.348894,0.32086 -0.384205,0.397 -0.05198,0.11208 -0.05381,0.30511 -0.04361,4.61096 0.0099,4.19104 0.01416,4.50257 0.06235,4.62104 0.02843,0.0699 0.07939,0.15341 0.113251,0.18564 0.157754,0.15018 -0.03466,0.145 5.409843,0.14629 3.630653,8.2e-4 5.156406,-0.009 5.239366,-0.0337 0.151042,-0.045 0.299074,-0.205 0.336378,-0.36365 0.04181,-0.17783 0.07012,-8.89908 0.0294,-9.05728 -0.04334,-0.16839 -0.116177,-0.25412 -0.467997,-0.5511 -0.170991,-0.14434 -0.397507,-0.33615 -0.503359,-0.4262 -0.3725,-0.31691 -1.241024,-1.05245 -1.750252,-1.48228 -0.283161,-0.23902 -0.972386,-0.82171 -1.531641,-1.2949 -0.559257,-0.47318 -1.057924,-0.88311 -1.108102,-0.91094 -0.0598,-0.0332 -0.134887,-0.0497 -0.212101,-0.0504 z m -0.01681,2.23899 c 0.125854,0 0.2974,0.10858 0.651367,0.41225 0.187274,0.16066 0.778729,0.66571 1.31436,1.12231 1.706513,1.4547 1.894371,1.62132 1.956269,1.73531 0.05985,0.11021 0.06028,0.13846 0.05018,3.31891 -0.008,2.51125 -0.01841,3.22842 -0.04801,3.30301 -0.046,0.11594 -0.150122,0.22234 -0.26204,0.26783 -0.05743,0.0233 -1.199119,0.0335 -3.671461,0.0326 -2.916309,-9.8e-4 -3.605062,-0.009 -3.678449,-0.0434 -0.120461,-0.0563 -0.244358,-0.21915 -0.262702,-0.34531 -0.0082,-0.0562 -0.01985,-1.50591 -0.0259,-3.22147 -0.01172,-3.32415 -0.01409,-3.26197 0.13108,-3.42772 0.03746,-0.0428 0.28175,-0.2589 0.542873,-0.48028 0.666303,-0.56488 2.308841,-1.9662 2.680648,-2.287 0.324131,-0.27966 0.496596,-0.38705 0.621789,-0.38705 z"
         id="path920"
         inkscape:connector-curvature="0"
         sodipodi:nodetypes="cccccscsccccccccccscscccccccccccs" />
      <path
         inkscape:connector-curvature="0"
         id="path922"
         d="m 16.935466,275.69241 c -0.125195,0 -0.297696,0.10867 -0.621825,0.39183 -0.371807,0.32481 -2.014327,1.74369 -2.68063,2.31564 -0.261123,0.22414 -0.505384,0.44298 -0.542842,0.48629 -0.145166,0.16782 -0.14286,0.10485 -0.131132,3.47054 0.006,1.737 0.01773,3.20472 0.0259,3.26168 0.01835,0.12774 0.142311,0.29265 0.262773,0.34964 0.07339,0.0347 0.762077,0.0429 3.678385,0.044 2.472343,8.2e-4 3.614035,-0.009 3.671466,-0.0331 0.111918,-0.0461 0.216099,-0.15378 0.262097,-0.27117 0.0296,-0.0755 0.03995,-0.80163 0.04793,-3.34427 0.01011,-3.22018 0.0097,-3.24884 -0.05013,-3.36043 -0.0619,-0.11541 -0.249762,-0.28407 -1.956275,-1.75694 -0.535631,-0.4623 -1.127092,-0.97366 -1.314366,-1.13633 -0.353967,-0.30746 -0.525508,-0.41739 -0.651362,-0.41739 z"
         style="opacity:1;fill:#fee77f;fill-opacity:1;stroke:none;stroke-width:0.1;stroke-linecap:butt;stroke-linejoin:bevel;stroke-miterlimit:4;stroke-dasharray:none;stroke-dashoffset:0;stroke-opacity:1" />
    </g>
  </g>
</svg>
