<?xml version="1.0" encoding="UTF-8" standalone="no"?>
<!-- Created with Inkscape (http://www.inkscape.org/) -->

<svg
   xmlns:dc="http://purl.org/dc/elements/1.1/"
   xmlns:cc="http://creativecommons.org/ns#"
   xmlns:rdf="http://www.w3.org/1999/02/22-rdf-syntax-ns#"
   xmlns:svg="http://www.w3.org/2000/svg"
   xmlns="http://www.w3.org/2000/svg"
   xmlns:xlink="http://www.w3.org/1999/xlink"
   xmlns:sodipodi="http://sodipodi.sourceforge.net/DTD/sodipodi-0.dtd"
   xmlns:inkscape="http://www.inkscape.org/namespaces/inkscape"
   width="128"
   height="128"
   viewBox="0 0 33.866666 33.866668"
   version="1.1"
   id="svg8"
   inkscape:version="0.92.3 (2405546, 2018-03-11)"
   sodipodi:docname="inkscape.svg">
  <defs
     id="defs2">
    <linearGradient
       id="linearGradient997"
       x1="64.902"
       x2="78.785"
       y1="53.311"
       y2="78.152"
       gradientTransform="matrix(1.218336,3.3624988e-8,-4.1001628e-8,1.2182905,-90.544692,186.53449)"
       gradientUnits="userSpaceOnUse">
      <stop
         offset="0"
         style="stop-color:#333333;stop-opacity:1"
         id="stop993" />
      <stop
         offset="1"
         style="stop-color:#4d4d4d;stop-opacity:1"
         id="stop995" />
    </linearGradient>
    <linearGradient
       inkscape:collect="always"
       id="linearGradient977">
      <stop
         style="stop-color:#f2f2f2;stop-opacity:1"
         offset="0"
         id="stop973" />
      <stop
         style="stop-color:#d9d9d9;stop-opacity:1"
         offset="1"
         id="stop975" />
    </linearGradient>
    <filter
       filterUnits="objectBoundingBox"
       y="0%"
       x="0%"
       height="100%"
       width="100%"
       id="alpha">
      <feColorMatrix
         id="feColorMatrix916"
         values="0 0 0 0 1 0 0 0 0 1 0 0 0 0 1 0 0 0 1 0"
         type="matrix"
         in="SourceGraphic" />
    </filter>
    <mask
       id="mask0">
      <g
         id="g921"
         filter="url(#alpha)">
        <rect
           id="rect919"
           style="fill:rgb(0%,0%,0%);fill-opacity:0.301961"
           y="0"
           x="0"
           height="384"
           width="384" />
      </g>
    </mask>
    <clipPath
       id="clip1">
      <rect
         id="rect924"
         y="0"
         x="0"
         height="384"
         width="384" />
    </clipPath>
    <g
       clip-path="url(#clip1)"
       id="surface5">
      <path
         id="path927"
         d="M 25.25 190.425781 C 24.171875 196.769531 25.53125 202.992188 31.101562 207.507812 C 47.382812 213.488281 65.265625 211.421875 82.046875 215.269531 C 88.511719 217.003906 101.90625 225.113281 105.445312 233.410156 C 110.789062 223.183594 90.492188 210.03125 82.046875 207.769531 C 65.265625 203.921875 47.382812 205.988281 31.101562 200.007812 C 27.773438 197.308594 25.953125 194 25.25 190.425781 Z M 358.753906 192.730469 C 357.78125 199.949219 353.867188 206.503906 346.277344 209.929688 C 327.300781 220.589844 304.21875 222.660156 284.097656 228.050781 C 270.695312 231.640625 265.851562 237.632812 267.925781 247.214844 C 269.414062 241.839844 274.605469 238.09375 284.097656 235.550781 C 304.21875 230.160156 327.300781 228.089844 346.277344 217.429688 C 356.449219 212.835938 360.027344 202.625 358.753906 192.730469 Z M 68.90625 259.785156 C 66.933594 262.84375 67.417969 266.6875 72.230469 271.683594 C 88.617188 277.925781 106 280.378906 123.730469 280.378906 C 135.980469 280.378906 146.011719 285.53125 148.800781 292.191406 C 152.863281 282.339844 140.328125 272.878906 123.730469 272.878906 C 106 272.878906 88.617188 270.425781 72.230469 264.183594 C 70.710938 262.605469 69.621094 261.144531 68.90625 259.785156 Z M 356.863281 261.488281 C 354.519531 264.878906 349.117188 267.699219 341.167969 267.699219 C 337.164062 267.445312 333.164062 266.847656 329.296875 265.742188 C 326.953125 265.0625 325.242188 264.277344 324.050781 263.429688 C 320.539062 266.820312 320.648438 270.730469 329.296875 273.242188 C 333.164062 274.347656 337.164062 274.945312 341.167969 275.199219 C 354.941406 275.199219 361.101562 266.742188 356.863281 261.488281 Z M 284.605469 287.296875 C 283.539062 290.105469 280.964844 292.519531 276.136719 294.195312 C 259.898438 302.472656 239.863281 301.722656 225.058594 312.910156 C 223.359375 315.625 223.546875 318.5625 224.464844 321.535156 C 224.628906 321.15625 224.824219 320.78125 225.058594 320.410156 C 239.863281 309.222656 259.898438 309.972656 276.136719 301.695312 C 284.917969 298.648438 286.238281 293.160156 284.605469 287.296875 Z M 98.246094 302.769531 C 98.210938 302.8125 98.183594 302.851562 98.148438 302.894531 C 90.164062 306.96875 78.082031 313.902344 69.839844 307.441406 C 68.433594 309.351562 68.011719 311.65625 69.121094 314.339844 C 77.367188 321.816406 89.929688 314.585938 98.148438 310.394531 C 101.144531 306.882812 100.644531 304.359375 98.246094 302.769531 Z M 133.433594 314.085938 C 129.4375 321.019531 137.898438 328.992188 147.628906 329.722656 C 165.710938 330.710938 169.496094 350.152344 183.304688 357.238281 C 195.867188 361.183594 209.800781 357.699219 221.167969 351.78125 C 230.539062 349.140625 230.84375 344.71875 228.992188 339.660156 C 227.835938 341.5 225.449219 343.074219 221.167969 344.28125 C 209.800781 350.199219 195.867188 353.683594 183.304688 349.738281 C 169.496094 342.652344 165.710938 323.210938 147.628906 322.222656 C 141.402344 321.757812 135.691406 318.316406 133.433594 314.085938 Z M 133.433594 314.085938"
         style="fill:rgb(0%,0%,0%)" />
    </g>
    <linearGradient
       inkscape:collect="always"
       xlink:href="#linearGradient977"
       id="linearGradient979"
       x1="5.9422121"
       y1="267.33301"
       x2="25.278622"
       y2="291.90146"
       gradientUnits="userSpaceOnUse"
       gradientTransform="matrix(0.94950654,0,0,0.94950654,0.85528359,14.189448)" />
    <linearGradient
       inkscape:collect="always"
       xlink:href="#linearGradient997"
       id="linearGradient991"
       x1="15.239247"
       y1="268.98669"
       x2="18.994362"
       y2="288.39716"
       gradientUnits="userSpaceOnUse"
       gradientTransform="matrix(0.94950654,0,0,0.94950654,0.85528359,14.189448)" />
  </defs>
  <sodipodi:namedview
     id="base"
     pagecolor="#ffffff"
     bordercolor="#666666"
     borderopacity="1.0"
     inkscape:pageopacity="0.0"
     inkscape:pageshadow="2"
     inkscape:zoom="1.6898438"
     inkscape:cx="7.7712149"
     inkscape:cy="38.578889"
     inkscape:document-units="mm"
     inkscape:current-layer="layer1"
     showgrid="false"
     inkscape:window-width="1600"
     inkscape:window-height="837"
     inkscape:window-x="0"
     inkscape:window-y="30"
     inkscape:window-maximized="1"
     units="px" />
  <metadata
     id="metadata5">
    <rdf:RDF>
      <cc:Work
         rdf:about="">
        <dc:format>image/svg+xml</dc:format>
        <dc:type
           rdf:resource="http://purl.org/dc/dcmitype/StillImage" />
        <dc:title />
      </cc:Work>
    </rdf:RDF>
  </metadata>
  <g
     inkscape:label="Layer 1"
     inkscape:groupmode="layer"
     id="layer1"
     transform="translate(0,-263.13332)">
    <g
       id="g845"
       transform="matrix(0.99983976,0,0,0.99983976,0.00272738,0.04742587)">
      <path
         style="opacity:0.25;fill:#000000;fill-opacity:1;stroke:none;stroke-width:0.25122359px;stroke-linecap:butt;stroke-linejoin:miter;stroke-opacity:1"
         d="M 3.7732827,293.40351 1.3832582,268.7539 c 0,0 0.2067286,-1.91799 1.8375931,-2.10175 1.6308635,-0.18375 23.1982167,-1.87007 23.1982167,-1.87007 0,0 1.586316,0.37702 1.999775,1.66335 0.41346,1.28632 4.019735,22.45309 4.019735,22.45309 0,0 0.528307,2.2051 -2.021353,2.68747 -2.149457,0.40665 -17.463713,3.09856 -22.3871957,4.05757 -0.9194944,0.17911 -1.5549927,0.34373 -2.2585622,0.28654 -1.2882115,-0.24964 -1.9713649,-1.50901 -1.9981844,-2.52659 z"
         id="path1885"
         inkscape:connector-curvature="0"
         sodipodi:nodetypes="ccscscsscc" />
      <path
         sodipodi:nodetypes="ccscscsscc"
         inkscape:connector-curvature="0"
         id="path1100"
         d="M 3.7732827,292.90891 1.3832582,268.2593 c 0,0 0.2067286,-1.91798 1.8375931,-2.10175 1.6308635,-0.18376 23.1982167,-1.87007 23.1982167,-1.87007 0,0 1.586316,0.37703 1.999775,1.66335 0.41346,1.28631 4.019735,22.45309 4.019735,22.45309 0,0 0.528307,2.2051 -2.021353,2.68747 -2.149457,0.40666 -17.463713,3.09856 -22.3871957,4.05757 -0.9194944,0.1791 -1.5549927,0.34374 -2.2585622,0.28655 -1.2882115,-0.24965 -1.9713649,-1.50903 -1.9981844,-2.5266 z"
         style="fill:url(#linearGradient979);fill-opacity:1;stroke:#666666;stroke-width:0.2;stroke-linecap:butt;stroke-linejoin:miter;stroke-miterlimit:4;stroke-dasharray:none;stroke-opacity:1" />
      <path
         id="path932"
         d="m 17.713856,290.15721 c -0.966083,-0.31697 -1.410486,-1.53607 -2.590333,-1.41476 -0.805606,0.0665 -1.600324,-0.63753 -0.743407,-1.26009 1.236741,-0.99879 0.10803,-1.91234 -1.308626,-1.68796 -1.147478,0.18174 -2.297055,0.20137 -3.4213456,-0.0349 -1.2183536,-0.92007 0.8585606,-1.49879 1.4960796,-1.91818 1.161401,-0.86432 -0.761113,-1.76121 -1.4390164,-1.83236 -1.1252385,-0.077 -2.2611444,0.23999 -3.3758881,0.0198 -0.9557655,-0.55283 -0.5072388,-1.95117 0.084798,-2.64137 2.3069709,-3.39568 4.6361755,-6.7835 7.1537475,-10.0273 0.667142,-1.01428 2.257626,-1.06048 3.103521,-0.2493 3.45217,2.51307 6.873247,5.07355 10.204403,7.74518 0.689615,0.69473 0.872155,1.9781 -0.05178,2.58484 -1.118606,0.88423 -2.59088,1.25472 -3.837544,1.80972 -1.157828,0.51553 -1.191484,1.16185 -0.355035,2.19475 0.385605,0.47653 1.7171,1.52534 0.517785,2.16662 -0.965848,0.70199 -2.269882,0.85878 -3.113401,1.73441 -0.330142,0.77826 1.353611,1.47798 0.07001,2.06965 -0.674851,0.49942 -1.540696,0.86765 -2.393967,0.74112 z m -4.179424,-13.45994 c 0.03884,-0.0328 -0.03091,0.20076 -0.02091,0.15099 z m -3.6482923,11.85441 c -0.5957455,-0.9723 2.4957813,-1.62778 1.8377423,-0.55275 -0.488829,0.35543 -1.22757,0.95201 -1.8377423,0.55275 z m 16.4131423,-5.32546 c -1.401216,-0.17706 0.276258,-1.37365 0.964428,-1.19843 1.183698,-0.10846 1.069487,1.00584 -0.17631,1.20315 -0.261669,0.0246 -0.526568,0.0272 -0.788118,-0.005 z m 0,0"
         style="fill:url(#linearGradient991);fill-opacity:1;stroke-width:0.33496478"
         inkscape:connector-curvature="0" />
      <path
         id="path936"
         d="m 15.028161,270.30499 c -0.656242,0.0755 -1.022438,0.68167 -1.389734,1.15828 -0.984973,1.35661 -1.943221,2.73802 -2.783312,4.18985 -0.372148,0.40016 0.221986,0.59183 0.511242,0.75122 0.518866,0.24971 1.044732,0.50764 1.609833,0.63214 0.386351,-0.16327 0.289613,-0.79204 0.378931,-1.15726 0.06915,-0.50891 0.07578,-1.02814 0.191692,-1.5297 0.308017,0.0554 0.603023,0.55532 0.897206,0.80797 0.227993,0.2437 0.650648,0.6908 0.83864,0.16176 0.351822,-0.50887 0.541635,-1.12784 0.986068,-1.57055 0.382182,-0.0326 0.766384,0.17994 1.140445,0.27279 0.744621,0.23882 1.470108,0.55478 2.237507,0.71331 0.339846,-0.0675 0.486926,-0.57846 0.3189,-0.83451 -1.378253,-1.15099 -2.756294,-2.30228 -4.134334,-3.45355 -0.246295,-0.12371 -0.528849,-0.18026 -0.803084,-0.14175 z m 0,0"
         style="fill:#ffffff;stroke-width:0.33496478"
         inkscape:connector-curvature="0" />
      <use
         transform="matrix(0.06470361,-0.01024804,0.01024804,0.06470361,2.1923872,268.92112)"
         id="use938"
         xlink:href="#surface5"
         mask="url(#mask0)"
         x="0"
         y="0"
         width="100%"
         height="100%"
         style="stroke-width:5.11317396" />
    </g>
  </g>
</svg>
