<?xml version="1.0" encoding="UTF-8" standalone="no"?>
<svg
   xmlns:osb="http://www.openswatchbook.org/uri/2009/osb"
   xmlns:dc="http://purl.org/dc/elements/1.1/"
   xmlns:cc="http://creativecommons.org/ns#"
   xmlns:rdf="http://www.w3.org/1999/02/22-rdf-syntax-ns#"
   xmlns:svg="http://www.w3.org/2000/svg"
   xmlns="http://www.w3.org/2000/svg"
   xmlns:xlink="http://www.w3.org/1999/xlink"
   xmlns:sodipodi="http://sodipodi.sourceforge.net/DTD/sodipodi-0.dtd"
   xmlns:inkscape="http://www.inkscape.org/namespaces/inkscape"
   width="128"
   height="128"
   viewBox="0 0 128 128"
   version="1.1"
   id="svg129"
   sodipodi:docname="intellij.svg"
   inkscape:version="0.92.3 (2405546, 2018-03-11)">
  <metadata
     id="metadata133">
    <rdf:RDF>
      <cc:Work
         rdf:about="">
        <dc:format>image/svg+xml</dc:format>
        <dc:type
           rdf:resource="http://purl.org/dc/dcmitype/StillImage" />
        <dc:title />
      </cc:Work>
    </rdf:RDF>
  </metadata>
  <sodipodi:namedview
     pagecolor="#ffffff"
     bordercolor="#666666"
     borderopacity="1"
     objecttolerance="10"
     gridtolerance="10"
     guidetolerance="10"
     inkscape:pageopacity="0"
     inkscape:pageshadow="2"
     inkscape:window-width="1600"
     inkscape:window-height="837"
     id="namedview131"
     showgrid="false"
     inkscape:zoom="3.6875"
     inkscape:cx="60.158364"
     inkscape:cy="62.87022"
     inkscape:window-x="0"
     inkscape:window-y="30"
     inkscape:window-maximized="1"
     inkscape:current-layer="svg129" />
  <defs
     id="defs70">
    <linearGradient
       id="linearGradient2280"
       gradientUnits="userSpaceOnUse"
       x1="21.496099"
       y1="10.8091"
       x2="37.108398"
       y2="24.6315">
      <stop
         offset="0"
         style="stop-color:#61b4f6;stop-opacity:1"
         id="stop2274" />
      <stop
         offset="0.6749"
         style="stop-color:#00CDD7"
         id="stop2276" />
      <stop
         offset="1"
         style="stop-color:#2387D7"
         id="stop2278" />
    </linearGradient>
    <linearGradient
       id="linearGradient2272"
       gradientUnits="userSpaceOnUse"
       x1="17.3381"
       y1="3.9782"
       x2="23.768999"
       y2="41.199799">
      <stop
         offset="0"
         style="stop-color:#f06091;stop-opacity:1"
         id="stop2268" />
      <stop
         offset="1"
         style="stop-color:#ffa82a;stop-opacity:1"
         id="stop2270" />
    </linearGradient>
    <linearGradient
       osb:paint="solid"
       id="linearGradient6987">
      <stop
         id="stop6985"
         offset="0"
         style="stop-color:#77d2fb;stop-opacity:1;" />
    </linearGradient>
    <linearGradient
       inkscape:collect="always"
       xlink:href="#linearGradient2272"
       id="linearGradient2259"
       gradientUnits="userSpaceOnUse"
       x1="17.3381"
       y1="3.9782"
       x2="23.768999"
       y2="41.199799" />
    <linearGradient
       inkscape:collect="always"
       xlink:href="#linearGradient2280"
       id="linearGradient2261"
       gradientUnits="userSpaceOnUse"
       x1="21.496099"
       y1="10.8091"
       x2="37.108398"
       y2="24.6315" />
  </defs>
  <g
     id="g842"
     transform="matrix(0.99839917,0,0,0.99839917,0.08461097,0.19850285)">
    <path
       style="opacity:0.25;fill:#000000;stroke:none;stroke-width:0.42648932;stroke-miterlimit:4;stroke-dasharray:none;stroke-opacity:1"
       d="M 76.97861,6.448241 74.05617,9.904007 71.0588,7.576662 53.15176,18.997492 36.31141,7.512737 5.02863,18.997492 18.61594,116.68511 81.71709,124 83.65435,107.83632 122.93526,84.545033 110.52706,58.080024 121.52693,48.17555 105.73567,7.576662 Z"
       id="path2239"
       inkscape:connector-curvature="0" />
    <polygon
       style="fill:url(#linearGradient2259);stroke:#333333;stroke-width:0.26661214;stroke-miterlimit:4;stroke-dasharray:none;stroke-opacity:1"
       points="19.986,7.022 14.046,2.971 3.013,7.022 7.805,41.477 30.061,44.057 34.245,9.159 26.302,2.994 "
       id="polygon2241"
       transform="matrix(2.8352253,0,0,2.8352253,-3.51325,-3.167759)" />
    <polygon
       style="fill:url(#linearGradient2261);stroke:#333333;stroke-width:0.26661214;stroke-miterlimit:4;stroke-dasharray:none;stroke-opacity:1"
       points="28.39,2.596 38.533,2.994 44.102,17.313 26.103,33.522 10.391,23.876 "
       id="polygon2243"
       transform="matrix(2.8352253,0,0,2.8352253,-3.51325,-3.167759)" />
    <polygon
       style="fill:#805ac3;fill-opacity:1;stroke:#333333;stroke-width:0.26661214;stroke-miterlimit:4;stroke-dasharray:none;stroke-opacity:1"
       points="24.81,41.875 11.286,30.937 36.25,12.333 44.599,30.141 "
       id="polygon2245"
       transform="matrix(2.8352253,0,0,2.8352253,-3.51325,-3.167759)" />
    <path
       style="opacity:0.25;fill:#000000;stroke-width:2.83522511"
       id="path2247"
       d="M 101.39009,106.82766 H 27.67423 c -1.56504,0 -2.83523,-1.27018 -2.83523,-2.83523 V 30.276562 c 0,-1.565047 1.27019,-2.835229 2.83523,-2.835229 h 73.71586 c 1.56504,0 2.83522,1.270182 2.83522,2.835229 v 73.715868 c 0,1.56505 -1.27018,2.83523 -2.83522,2.83523 z"
       inkscape:connector-curvature="0" />
    <path
       inkscape:connector-curvature="0"
       d="M 101.39009,104.57082 H 27.67423 c -1.56504,0 -2.83523,-1.27022 -2.83523,-2.83527 V 28.01972 c 0,-1.565047 1.27019,-2.835229 2.83523,-2.835229 h 73.71586 c 1.56504,0 2.83522,1.270182 2.83522,2.835229 v 73.71583 c 0,1.56505 -1.27018,2.83527 -2.83522,2.83527 z"
       id="path2249"
       style="stroke-width:2.83522511" />
    <rect
       x="36.179871"
       y="84.724312"
       style="fill:#ffffff;stroke-width:2.83522511"
       width="25.517029"
       height="5.6704502"
       id="rect2251" />
    <g
       transform="matrix(1.0531144,0,0,1.0531144,-601.95023,80.522558)"
       id="text2237"
       style="font-style:normal;font-weight:normal;font-size:41.48020172px;line-height:1.25;font-family:sans-serif;letter-spacing:0px;word-spacing:0px;fill:#ffffff;fill-opacity:1;stroke:none;stroke-width:1.03700495"
       aria-label="IJ">
      <path
         inkscape:connector-curvature="0"
         id="path2263"
         style="font-style:normal;font-variant:normal;font-weight:bold;font-stretch:normal;font-family:Helvetica;-inkscape-font-specification:'Helvetica Bold';fill:#ffffff;fill-opacity:1;stroke:none;stroke-width:1.03700495"
         d="m 611.93485,-10.233932 h -6.19772 v -29.854403 h 6.19772 z m -3.09886,-30.441769 z" />
      <path
         inkscape:connector-curvature="0"
         id="path2265"
         style="font-style:normal;font-variant:normal;font-weight:bold;font-stretch:normal;font-family:Helvetica;-inkscape-font-specification:'Helvetica Bold';fill:#ffffff;fill-opacity:1;stroke:none;stroke-width:1.03700495"
         d="m 621.37322,-21.55592 v 0.688636 q 0.081,3.463435 0.7494,4.881215 0.68863,1.397526 2.91657,1.397526 2.20769,0 2.91658,-1.539304 0.42533,-0.91143 0.42533,-3.078609 v -20.881879 h 6.23824 v 20.780609 q 0,3.807753 -1.31651,6.035694 -2.22794,3.7672446 -8.04084,3.7672446 -5.8129,0 -7.79779,-3.0381006 -1.9849,-3.058355 -1.9849,-8.324396 v -0.688636 z" />
    </g>
  </g>
</svg>
