<?xml version="1.0" encoding="UTF-8" standalone="no"?>
<!-- Created with Inkscape (http://www.inkscape.org/) -->

<svg
   xmlns:dc="http://purl.org/dc/elements/1.1/"
   xmlns:cc="http://creativecommons.org/ns#"
   xmlns:rdf="http://www.w3.org/1999/02/22-rdf-syntax-ns#"
   xmlns:svg="http://www.w3.org/2000/svg"
   xmlns="http://www.w3.org/2000/svg"
   xmlns:xlink="http://www.w3.org/1999/xlink"
   xmlns:sodipodi="http://sodipodi.sourceforge.net/DTD/sodipodi-0.dtd"
   xmlns:inkscape="http://www.inkscape.org/namespaces/inkscape"
   width="128"
   height="128"
   viewBox="0 0 33.866666 33.866668"
   version="1.1"
   id="svg8"
   inkscape:version="0.92.3 (2405546, 2018-03-11)"
   sodipodi:docname="java.svg">
  <defs
     id="defs2">
    <pattern
       inkscape:collect="always"
       xlink:href="#Strips1_1"
       id="pattern903"
       patternTransform="matrix(0.48688914,0,0,0.48688914,33.173426,255.31012)" />
    <pattern
       inkscape:isstock="true"
       inkscape:stockid="Stripes 1:1"
       id="Strips1_1"
       patternTransform="translate(0,0) scale(10,10)"
       height="1"
       width="2"
       patternUnits="userSpaceOnUse"
       inkscape:collect="always">
      <rect
         id="rect1755"
         height="2"
         width="1"
         y="-0.5"
         x="0"
         style="fill:black;stroke:none" />
    </pattern>
    <linearGradient
       id="linearGradient897"
       inkscape:collect="always">
      <stop
         id="stop893"
         offset="0"
         style="stop-color:#d9d9d9;stop-opacity:1" />
      <stop
         id="stop895"
         offset="1"
         style="stop-color:#969998;stop-opacity:1" />
    </linearGradient>
    <linearGradient
       inkscape:collect="always"
       id="linearGradient846">
      <stop
         style="stop-color:#d9d9d9;stop-opacity:1"
         offset="0"
         id="stop842" />
      <stop
         style="stop-color:#787a79;stop-opacity:1"
         offset="1"
         id="stop844" />
    </linearGradient>
    <linearGradient
       inkscape:collect="always"
       xlink:href="#linearGradient897"
       id="linearGradient848"
       x1="-133.26918"
       y1="126.92522"
       x2="-121.78141"
       y2="152.32561"
       gradientUnits="userSpaceOnUse"
       gradientTransform="matrix(0.18402109,0,0,0.18402109,33.173426,255.31012)" />
    <linearGradient
       inkscape:collect="always"
       xlink:href="#linearGradient846"
       id="linearGradient856"
       x1="-126.82896"
       y1="88.590752"
       x2="-75.684265"
       y2="105.44576"
       gradientUnits="userSpaceOnUse"
       gradientTransform="matrix(0.18402109,0,0,0.18402109,33.173426,255.31012)" />
  </defs>
  <sodipodi:namedview
     id="base"
     pagecolor="#ffffff"
     bordercolor="#666666"
     borderopacity="1.0"
     inkscape:pageopacity="0.0"
     inkscape:pageshadow="2"
     inkscape:zoom="4.7796"
     inkscape:cx="56.184523"
     inkscape:cy="59.827107"
     inkscape:document-units="mm"
     inkscape:current-layer="layer1"
     showgrid="false"
     inkscape:window-width="1600"
     inkscape:window-height="837"
     inkscape:window-x="0"
     inkscape:window-y="30"
     inkscape:window-maximized="1"
     showguides="false"
     units="px" />
  <metadata
     id="metadata5">
    <rdf:RDF>
      <cc:Work
         rdf:about="">
        <dc:format>image/svg+xml</dc:format>
        <dc:type
           rdf:resource="http://purl.org/dc/dcmitype/StillImage" />
        <dc:title />
      </cc:Work>
    </rdf:RDF>
  </metadata>
  <g
     inkscape:label="Layer 1"
     inkscape:groupmode="layer"
     id="layer1"
     transform="translate(0,-263.13332)">
    <g
       id="g953"
       transform="translate(0.0011768)">
      <path
         style="opacity:1;fill:#2b3b5e;fill-opacity:1;stroke:none;stroke-width:0.25198412px;stroke-linecap:butt;stroke-linejoin:miter;stroke-opacity:1"
         d="m 5.6677055,281.61464 c 0,0 -0.6516776,0.0984 -0.8852979,0.33199 -0.2336203,0.23362 -1.11892,0.33198 -1.2910607,0.47953 -0.1721407,0.14756 -0.6639739,0.39347 -1.0328478,0.5902 -0.3688739,0.19674 -1.51238475,0.14756 -1.3279459,0.49183 0.184437,0.34429 0.9515234,1.58659 1.5079682,1.81265 0.5564448,0.22606 0.7790514,0.56045 1.3815457,0.85554 0.6024943,0.29511 1.0943274,1.26647 1.8197791,1.56158 0.7254535,0.29509 0.4672406,0.29509 1.0205515,0.79922 0.5533128,0.50413 0.8730035,0.5902 1.0943275,0.8853 0.221324,0.29509 0.5264659,0.69769 0.9090218,0.88897 0.382556,0.19129 1.1302797,0.73033 1.530223,0.939 0.399944,0.20867 0.573834,0.39995 1.025946,0.69556 0.452109,0.29561 0.625999,0.64339 1.182444,1.0955 0.556445,0.45211 0.973779,0.59123 1.460667,0.99117 0.486891,0.39994 1.26939,1.07811 1.599779,1.32155 0.330389,0.24345 0.720608,0.84766 1.045443,0.46194 0.416915,-0.49505 0.691645,-0.4026 1.145558,-0.72277 0.452112,-0.33039 1.199835,-0.73033 1.617168,-1.28678 0.417333,-0.55645 2.316533,-1.81432 2.451787,-2.09712 0.135254,-0.2828 2.446866,-1.57386 2.643599,-1.84437 0.196733,-0.27051 0.676269,-0.76235 1.155806,-1.11892 0.479536,-0.35658 0.626116,-0.49534 0.991284,-0.7214 0.365167,-0.22605 0.626,-0.60861 1.01725,-0.83466 0.391251,-0.22606 1.58239,-1.20853 1.704112,-1.36503 0.121723,-0.1565 1.230268,-0.90291 1.574551,-1.198 0.344282,-0.29511 0.786932,-0.49184 0.983665,-0.76235 0.196732,-0.2705 0.08489,-0.3089 0.08489,-0.3089 0,0 -0.226055,-0.33909 -0.547749,-0.38256 -0.321695,-0.0434 -0.712945,-0.23475 -1.060723,-0.37386 -0.347778,-0.13911 -0.417333,-0.009 -0.773807,-0.18258 -0.356472,-0.1739 -1.025944,-0.66078 -1.617167,-0.80859 -0.591222,-0.1478 -0.982473,-0.38255 -1.01725,-0.43472 -0.03478,-0.0522 -2.863743,-1.34508 -3.011292,-1.46803 -0.14755,-0.12297 -0.442649,-0.13526 -0.553311,-0.20903 -0.110663,-0.0738 -1.303356,-0.76234 -1.573863,-0.81153 -0.270508,-0.0491 -0.565608,0.11066 -0.897595,-0.14755 -0.331986,-0.25821 -2.60671,-1.41402 -2.60671,-1.41402 z"
         id="path996"
         inkscape:connector-curvature="0"
         sodipodi:nodetypes="cscscssccccsccccsccccscssssccccscccsccc" />
      <path
         sodipodi:nodetypes="cscscssccccsccccsccccscssssccccscccsccc"
         inkscape:connector-curvature="0"
         id="path994"
         d="m 5.6677055,281.41989 c 0,0 -0.6516776,0.0984 -0.8852979,0.33198 -0.2336203,0.23362 -1.11892,0.33199 -1.2910607,0.47954 -0.1721407,0.14755 -0.6639739,0.39346 -1.0328478,0.59019 -0.3688739,0.19674 -1.51238475,0.14756 -1.3279459,0.49184 0.184437,0.34428 0.9515234,1.58659 1.5079682,1.81264 0.5564448,0.22606 0.7790514,0.56045 1.3815457,0.85555 0.6024943,0.2951 1.0943274,1.26647 1.8197791,1.56156 0.7254535,0.29511 0.4672406,0.29511 1.0205515,0.79923 0.5533128,0.50414 0.8730035,0.5902 1.0943275,0.88531 0.221324,0.29509 0.5264659,0.69769 0.9090218,0.88897 0.382556,0.19127 1.1302797,0.73033 1.530223,0.939 0.399944,0.20866 0.573834,0.39994 1.025946,0.69555 0.452109,0.29562 0.625999,0.64339 1.182444,1.0955 0.556445,0.45212 0.973779,0.59122 1.460667,0.99118 0.486891,0.39994 1.26939,1.0781 1.599779,1.32155 0.330389,0.24345 0.720608,0.84765 1.045443,0.46193 0.416915,-0.49506 0.691645,-0.40259 1.145558,-0.72277 0.452112,-0.33038 1.199835,-0.73033 1.617168,-1.28677 0.417333,-0.55645 2.316533,-1.81432 2.451787,-2.09712 0.135254,-0.28281 2.446866,-1.57387 2.643599,-1.84438 0.196733,-0.27051 0.676269,-0.76234 1.155806,-1.11892 0.479536,-0.35657 0.626116,-0.49533 0.991284,-0.72139 0.365167,-0.22606 0.626,-0.60862 1.01725,-0.83467 0.391251,-0.22605 1.58239,-1.20853 1.704112,-1.36503 0.121723,-0.1565 1.230268,-0.9029 1.574551,-1.198 0.344282,-0.2951 0.786932,-0.49183 0.983665,-0.76235 0.196732,-0.2705 0.08489,-0.3089 0.08489,-0.3089 0,0 -0.226055,-0.33908 -0.547749,-0.38255 -0.321695,-0.0434 -0.712945,-0.23476 -1.060723,-0.37387 -0.347778,-0.13911 -0.417333,-0.009 -0.773807,-0.18258 -0.356472,-0.17389 -1.025944,-0.66077 -1.617167,-0.80858 -0.591222,-0.14781 -0.982473,-0.38256 -1.01725,-0.43473 -0.03478,-0.0522 -2.863743,-1.34507 -3.011292,-1.46804 -0.14755,-0.12295 -0.442649,-0.13525 -0.553311,-0.20902 -0.110663,-0.0738 -1.303356,-0.76235 -1.573863,-0.81153 -0.270508,-0.0491 -0.565608,0.11067 -0.897595,-0.14755 -0.331986,-0.25821 -2.60671,-1.41401 -2.60671,-1.41401 z"
         style="opacity:1;fill:#55617a;fill-opacity:1;stroke:none;stroke-width:0.25198412px;stroke-linecap:butt;stroke-linejoin:miter;stroke-opacity:1" />
      <path
         style="opacity:1;fill:#667594;fill-opacity:1;stroke:none;stroke-width:0.25198412px;stroke-linecap:butt;stroke-linejoin:miter;stroke-opacity:1"
         d="m 5.6677055,281.12775 c 0,0 -0.6516776,0.0984 -0.8852979,0.33199 -0.2336203,0.23362 -1.11892,0.33199 -1.2910607,0.47953 -0.1721407,0.14755 -0.6639739,0.39347 -1.0328478,0.5902 -0.3688739,0.19673 -1.51238475,0.14755 -1.3279459,0.49184 0.184437,0.34427 0.9515234,1.58658 1.5079682,1.81264 0.5564448,0.22605 0.7790514,0.56044 1.3815457,0.85555 0.6024943,0.29509 1.0943274,1.26646 1.8197791,1.56156 0.7254535,0.2951 0.4672406,0.2951 1.0205515,0.79923 0.5533128,0.50412 0.8730035,0.5902 1.0943275,0.88529 0.221324,0.29511 0.5264659,0.69771 0.9090218,0.88898 0.382556,0.19128 1.1302797,0.73034 1.530223,0.939 0.399944,0.20867 0.573834,0.39995 1.025946,0.69556 0.452109,0.29561 0.625999,0.64339 1.182444,1.0955 0.556445,0.45211 0.973779,0.59122 1.460667,0.99116 0.486891,0.39995 1.26939,1.07812 1.599779,1.32157 0.330389,0.24343 0.720608,0.84764 1.045443,0.46193 0.416915,-0.49506 0.691645,-0.40259 1.145558,-0.72277 0.452112,-0.33039 1.199835,-0.73034 1.617168,-1.28678 0.417333,-0.55644 2.316533,-1.81432 2.451787,-2.09713 0.135254,-0.2828 2.446866,-1.57385 2.643599,-1.84437 0.196733,-0.2705 0.676269,-0.76233 1.155806,-1.11891 0.479536,-0.35658 0.626116,-0.49535 0.991284,-0.7214 0.365167,-0.22605 0.626,-0.60861 1.01725,-0.83467 0.391251,-0.22605 1.58239,-1.20852 1.704112,-1.36502 0.121723,-0.1565 1.230268,-0.90291 1.574551,-1.19801 0.344282,-0.29509 0.786932,-0.49183 0.983665,-0.76234 0.196732,-0.27051 0.08489,-0.30891 0.08489,-0.30891 0,0 -0.226055,-0.33908 -0.547749,-0.38255 -0.321695,-0.0435 -0.712945,-0.23475 -1.060723,-0.37386 -0.347778,-0.13911 -0.417333,-0.009 -0.773807,-0.18259 -0.356472,-0.17388 -1.025944,-0.66078 -1.617167,-0.80858 -0.591222,-0.14781 -0.982473,-0.38256 -1.01725,-0.43472 -0.03478,-0.0522 -2.863743,-1.34508 -3.011292,-1.46804 -0.14755,-0.12296 -0.442649,-0.13526 -0.553311,-0.20903 -0.110663,-0.0738 -1.303356,-0.76234 -1.573863,-0.81152 -0.270508,-0.0491 -0.565608,0.11067 -0.897595,-0.14755 -0.331986,-0.25821 -2.60671,-1.41402 -2.60671,-1.41402 z"
         id="path992"
         inkscape:connector-curvature="0"
         sodipodi:nodetypes="cscscssccccsccccsccccscssssccccscccsccc" />
      <rect
         transform="matrix(0.91593517,0.40132625,-0.42277528,0.90623455,0,0)"
         ry="0.70373666"
         y="229.20154"
         x="140.18311"
         height="3.4618599"
         width="1.6779001"
         id="rect887"
         style="opacity:1;fill:#f1473e;fill-opacity:1;stroke:none;stroke-width:0.81161636;stroke-miterlimit:4;stroke-dasharray:none;stroke-opacity:1" />
      <path
         sodipodi:nodetypes="assaaaaaaa"
         inkscape:connector-curvature="0"
         id="rect888"
         d="m 31.948025,264.45108 c -0.154854,0.026 -0.314844,0.11909 -0.397689,0.25248 -0.142744,0.22982 -0.261336,0.51414 -0.333881,0.77645 -0.06507,0.23528 0.0043,0.53597 0.17412,0.71132 0.127272,0.13142 0.35871,0.21526 0.528636,0.14749 0.154712,-0.0617 0.178723,-0.28152 0.256786,-0.42866 0.09688,-0.1826 0.197551,-0.36568 0.261798,-0.56215 0.05769,-0.17642 0.178665,-0.37426 0.108571,-0.54612 -0.07128,-0.17476 -0.294701,-0.24335 -0.467299,-0.31972 -0.04106,-0.0182 -0.08677,-0.0385 -0.131042,-0.031 z"
         style="opacity:1;fill:#ff4b42;fill-opacity:1;stroke:none;stroke-width:0.81150389;stroke-miterlimit:4;stroke-dasharray:none;stroke-opacity:1" />
      <path
         sodipodi:nodetypes="cscscssccccsccccsccccscssssccccscccsccc"
         inkscape:connector-curvature="0"
         id="path841"
         d="m 5.6677055,280.83561 c 0,0 -0.6516776,0.0984 -0.8852979,0.33199 -0.2336203,0.23362 -1.11892,0.33198 -1.2910607,0.47954 -0.1721407,0.14755 -0.6639739,0.39346 -1.0328478,0.5902 -0.3688739,0.19673 -1.51238475,0.14755 -1.3279459,0.49182 0.184437,0.34429 0.9515234,1.5866 1.5079682,1.81265 0.5564448,0.22606 0.7790514,0.56045 1.3815457,0.85555 0.6024943,0.2951 1.0943274,1.26646 1.8197791,1.56157 0.7254535,0.29509 0.4672406,0.29509 1.0205515,0.79923 0.5533128,0.50412 0.8730035,0.5902 1.0943275,0.88529 0.221324,0.2951 0.5264659,0.6977 0.9090218,0.88897 0.382556,0.19129 1.1302797,0.73034 1.530223,0.93901 0.399944,0.20867 0.573834,0.39994 1.025946,0.69555 0.452109,0.29561 0.625999,0.64339 1.182444,1.09551 0.556445,0.4521 0.973779,0.59122 1.460667,0.99116 0.486891,0.39994 1.26939,1.07811 1.599779,1.32156 0.330389,0.24344 0.720608,0.84765 1.045443,0.46194 0.416915,-0.49506 0.691645,-0.4026 1.145558,-0.72278 0.452112,-0.33039 1.199835,-0.73033 1.617168,-1.28678 0.417333,-0.55644 2.316533,-1.81431 2.451787,-2.09712 0.135254,-0.2828 2.446866,-1.57386 2.643599,-1.84437 0.196733,-0.27051 0.676269,-0.76234 1.155806,-1.11892 0.479536,-0.35658 0.626116,-0.49534 0.991284,-0.7214 0.365167,-0.22605 0.626,-0.60861 1.01725,-0.83466 0.391251,-0.22606 1.58239,-1.20853 1.704112,-1.36503 0.121723,-0.1565 1.230268,-0.90291 1.574551,-1.198 0.344282,-0.29511 0.786932,-0.49184 0.983665,-0.76234 0.196732,-0.27051 0.08489,-0.30891 0.08489,-0.30891 0,0 -0.226055,-0.33908 -0.547749,-0.38256 -0.321695,-0.0434 -0.712945,-0.23474 -1.060723,-0.37386 -0.347778,-0.13911 -0.417333,-0.009 -0.773807,-0.18258 -0.356472,-0.17389 -1.025944,-0.66078 -1.617167,-0.80859 -0.591222,-0.1478 -0.982473,-0.38255 -1.01725,-0.43471 -0.03478,-0.0522 -2.863743,-1.34509 -3.011292,-1.46804 -0.14755,-0.12296 -0.442649,-0.13526 -0.553311,-0.20903 -0.110663,-0.0738 -1.303356,-0.76234 -1.573863,-0.81152 -0.270508,-0.0491 -0.565608,0.11065 -0.897595,-0.14756 -0.331986,-0.25821 -2.60671,-1.41402 -2.60671,-1.41402 z"
         style="fill:#9bb1e0;fill-opacity:1;stroke:#6a7999;stroke-width:0.1;stroke-linecap:butt;stroke-linejoin:miter;stroke-miterlimit:4;stroke-dasharray:none;stroke-opacity:1" />
      <path
         inkscape:connector-curvature="0"
         id="path1002"
         d="m 29.872184,281.90805 -13.497575,9.16503 -13.402193,-9.10854 c -0.1708509,0.0922 -0.3531101,0.18707 -0.5138959,0.27282 -0.3688741,0.19674 -1.51244812,0.14756 -1.3280091,0.49184 0.1844365,0.34429 0.95158,1.58656 1.5080246,1.81262 0.5564452,0.22606 0.7790538,0.56048 1.381548,0.85557 0.6024941,0.29511 1.0942965,1.26647 1.8197481,1.56157 0.7254536,0.2951 0.4672543,0.29505 1.0205654,0.79918 0.553313,0.50413 0.8730356,0.59024 1.0943593,0.88534 0.2213242,0.29509 0.5264625,0.69768 0.9090181,0.88895 0.3825561,0.19128 1.1302382,0.73031 1.5301825,0.93897 0.399944,0.20867 0.573873,0.39993 1.025985,0.69554 0.452111,0.29561 0.625974,0.64348 1.182418,1.09559 0.556445,0.45211 0.973779,0.59114 1.460667,0.99108 0.486891,0.39995 1.269404,1.0782 1.599793,1.32164 0.330389,0.24345 0.720549,0.8476 1.045384,0.46189 0.416916,-0.49506 0.691703,-0.40256 1.145617,-0.72274 0.452111,-0.33038 1.199861,-0.73038 1.617195,-1.28683 0.417333,-0.55644 2.316499,-1.81434 2.451752,-2.09714 0.135254,-0.2828 2.446829,-1.57387 2.643561,-1.84438 0.196733,-0.2705 0.676255,-0.76231 1.155792,-1.11889 0.479537,-0.35658 0.626203,-0.49534 0.991371,-0.7214 0.365167,-0.22605 0.625986,-0.6086 1.017236,-0.83465 0.391251,-0.22605 1.58239,-1.2085 1.704112,-1.365 0.121722,-0.1565 1.230215,-0.90292 1.574497,-1.19801 0.344283,-0.29511 0.786936,-0.49188 0.983668,-0.76238 0.196734,-0.27051 0.08492,-0.30887 0.08492,-0.30887 0,0 -0.226055,-0.3391 -0.547749,-0.38257 -0.321696,-0.0434 -0.712919,-0.23472 -1.060697,-0.37382 -0.281417,-0.11257 -0.380793,-0.0488 -0.597295,-0.11241 z"
         style="opacity:0.03999999;fill:url(#pattern903);fill-opacity:1;stroke:none;stroke-width:0.25198412px;stroke-linecap:butt;stroke-linejoin:miter;stroke-opacity:1" />
      <path
         sodipodi:nodetypes="aaaaaaaaaaa"
         inkscape:connector-curvature="0"
         id="path901"
         d="m 5.6677055,280.83561 c -0.2748963,0.59834 0.4664069,1.28336 0.9467775,1.73372 1.1344035,1.0635 2.6989362,1.69437 4.229758,1.96732 1.959582,0.3494 4.066093,0.14732 5.951169,-0.49183 1.033632,-0.35046 1.893545,-1.09948 2.754262,-1.7706 0.283551,-0.22108 0.501217,-0.51946 0.786931,-0.73775 0.397711,-0.30385 1.269668,-0.28651 1.278764,-0.78692 0.01182,-0.65012 -1.058245,-0.75988 -1.623046,-1.08204 -0.426746,-0.24341 -0.846714,-0.54051 -1.327948,-0.63938 -1.848526,-0.37979 -3.784018,0.008 -5.65607,0.24591 -2.48162,0.31569 -6.2962152,-0.71161 -7.3405975,1.56157 z"
         style="opacity:0.25;fill:#000000;fill-opacity:1;stroke:none;stroke-width:0.25198412px;stroke-linecap:butt;stroke-linejoin:miter;stroke-opacity:1" />
      <path
         sodipodi:nodetypes="aaaaaaaaaaaaaaaaaaaaaaaccaaaaaaaaa"
         inkscape:connector-curvature="0"
         id="path839"
         d="m 17.688613,281.62917 c 0.04265,0.0855 0.186259,0.0957 0.278222,0.0695 0.155756,-0.0442 0.219128,-0.23904 0.339084,-0.34778 0.12374,-0.11217 0.246788,-0.22918 0.39125,-0.313 0.245319,-0.14233 0.523256,-0.21999 0.791194,-0.313 0.714618,-0.24804 1.491454,-0.32519 2.173613,-0.65208 0.507462,-0.24318 0.982945,-0.56903 1.391112,-0.95639 0.455778,-0.43255 0.86879,-0.93237 1.147667,-1.49545 0.279437,-0.56421 0.487675,-1.19327 0.494966,-1.82284 0.0071,-0.61593 -0.119047,-1.27003 -0.442799,-1.79404 -0.244202,-0.39526 -0.635986,-0.71593 -1.060723,-0.90423 -0.45416,-0.20135 -0.98318,-0.2349 -1.478057,-0.19128 -0.423665,0.0373 -0.858189,0.15456 -1.217222,0.38255 -0.166221,0.10556 -0.323039,0.25346 -0.399945,0.43473 -0.231316,0.5452 -0.06725,1.18259 -0.104333,1.77367 -0.02183,0.34786 -0.232379,0.73515 -0.06955,1.04333 0.05139,0.0973 0.174672,0.15967 0.284411,0.16746 0.07516,0.006 0.161551,-0.0275 0.209028,-0.0861 0.07092,-0.0874 0.06262,-0.21945 0.06148,-0.33198 -0.0019,-0.18398 -0.111349,-0.3566 -0.111501,-0.54059 -2.2e-4,-0.26032 0.04217,-0.53125 0.1565,-0.76512 0.139025,-0.28438 0.347441,-0.55618 0.617306,-0.72163 0.294836,-0.18077 0.662865,-0.23329 1.008556,-0.24345 0.294345,-0.009 0.593062,0.0549 0.869445,0.1565 0.474156,0.1411 0.638279,0.53102 0.681196,0.97078 0.03515,0.37633 -0.03644,0.76196 -0.141401,1.12506 -0.0886,0.30649 -0.239519,0.59455 -0.405762,0.86686 -0.214659,0.35161 -0.459761,0.69145 -0.756192,0.97751 -0.328614,0.31713 -0.70903,0.5858 -1.11277,0.79923 -0.327839,0.17331 -0.690318,0.27341 -1.045144,0.38117 -0.379518,0.11526 -0.782104,0.14989 -1.155806,0.2828 -0.171006,0.0609 -0.359538,0.10937 -0.491832,0.23362 -0.283495,0.26628 -0.395209,0.67094 -0.565607,1.02055 -0.125872,0.25827 -0.464556,0.53644 -0.336379,0.79357 z"
         style="fill:#333333;fill-opacity:1;stroke:none;stroke-width:0.25198412px;stroke-linecap:butt;stroke-linejoin:miter;stroke-opacity:1" />
      <path
         style="opacity:1;fill:#ad7712;fill-opacity:1;stroke:none;stroke-width:0.25198412px;stroke-linecap:butt;stroke-linejoin:miter;stroke-opacity:1"
         d="m 23.035699,282.73336 6.990001,-15.92726 1.748338,1.03177 -6.947282,15.74755 z"
         id="path851"
         inkscape:connector-curvature="0"
         sodipodi:nodetypes="ccccc" />
      <path
         sodipodi:nodetypes="ccccc"
         inkscape:connector-curvature="0"
         id="path849"
         d="m 23.281449,283.15952 7.236083,-16.20587 0.954342,0.50325 -7.176021,16.26823 z"
         style="opacity:1;fill:#f9f847;fill-opacity:1;stroke:none;stroke-width:0.25198412px;stroke-linecap:butt;stroke-linejoin:miter;stroke-opacity:1" />
      <path
         sodipodi:nodetypes="ccaaaaaassc"
         inkscape:connector-curvature="0"
         id="path837"
         d="m 4.0644125,272.52609 c -1.6030593,2.48328 -0.00924,6.78082 1.6345563,8.69445 0.7344153,0.84527 1.6371529,1.59739 2.6615173,2.04964 1.1897737,0.52529 2.5420689,0.72341 3.8419299,0.68041 1.187267,-0.0392 2.382555,-0.35264 3.46039,-0.85205 0.798458,-0.36998 1.551771,-0.89205 2.138835,-1.54761 0.822543,-0.91853 1.403425,-2.05857 1.825834,-3.21696 0.436213,-1.19622 0.867539,-2.49438 0.695556,-3.756 -0.109769,-0.80523 -0.327152,-1.79733 -1.069418,-2.191 -2.690276,-1.4268 -4.227435,0.56155 -7.495103,0.78009 -2.218375,0.14837 -6.2135539,-2.12711 -7.6940975,-0.64097 z"
         style="fill:url(#linearGradient848);fill-opacity:1;stroke:#666666;stroke-width:0.0952381;stroke-linecap:butt;stroke-linejoin:miter;stroke-miterlimit:4;stroke-dasharray:none;stroke-opacity:1" />
      <path
         inkscape:connector-curvature="0"
         id="ellipse857"
         d="m 11.781781,272.16913 a 7.7439927,3.4566887 0 0 0 -7.6464415,2.93788 8.3365567,3.3621047 0 0 0 0.3688754,0.29698 8.3365567,3.3621047 0 0 0 0.011031,0.008 8.3365567,3.3621047 0 0 0 0.4281202,0.27264 8.3365567,3.3621047 0 0 0 0.027483,0.0155 8.3365567,3.3621047 0 0 0 0.476999,0.24564 8.3365567,3.3621047 0 0 0 0.04983,0.023 8.3365567,3.3621047 0 0 0 0.5159881,0.21692 8.3365567,3.3621047 0 0 0 0.07541,0.0284 8.3365567,3.3621047 0 0 0 0.5447073,0.18743 8.3365567,3.3621047 0 0 0 0.1080284,0.0331 8.3365567,3.3621047 0 0 0 0.5589717,0.15633 8.3365567,3.3621047 0 0 0 0.14949,0.0369 8.3365567,3.3621047 0 0 0 0.5595422,0.12515 8.3365567,3.3621047 0 0 0 0.1948507,0.0379 8.3365567,3.3621047 0 0 0 0.5487016,0.0951 8.3365567,3.3621047 0 0 0 0.2445853,0.036 8.3365567,3.3621047 0 0 0 0.5270196,0.0672 8.3365567,3.3621047 0 0 0 0.296793,0.0306 8.3365567,3.3621047 0 0 0 0.495353,0.0418 8.3365567,3.3621047 0 0 0 0.349,0.0213 8.3365567,3.3621047 0 0 0 0.457695,0.0197 8.3365567,3.3621047 0 0 0 0.631053,0.0128 8.3365567,3.3621047 0 0 0 0.710175,-0.0144 8.3365567,3.3621047 0 0 0 0.412619,-0.0203 8.3365567,3.3621047 0 0 0 0.414712,-0.0253 8.3365567,3.3621047 0 0 0 0.397593,-0.0359 8.3365567,3.3621047 0 0 0 0.414522,-0.0428 8.3365567,3.3621047 0 0 0 0.378671,-0.0507 8.3365567,3.3621047 0 0 0 0.409671,-0.0603 8.3365567,3.3621047 0 0 0 0.355848,-0.0642 8.3365567,3.3621047 0 0 0 0.401873,-0.0784 8.3365567,3.3621047 0 0 0 0.331313,-0.0767 8.3365567,3.3621047 0 0 0 0.385042,-0.0953 8.3365567,3.3621047 0 0 0 0.308585,-0.089 8.3365567,3.3621047 0 0 0 0.361648,-0.11089 8.3365567,3.3621047 0 0 0 0.281768,-0.0998 8.3365567,3.3621047 0 0 0 0.336163,-0.12629 8.3365567,3.3621047 0 0 0 0.252193,-0.10917 8.3365567,3.3621047 0 0 0 0.306874,-0.14103 8.3365567,3.3621047 0 0 0 0.2191,-0.11621 8.3365567,3.3621047 0 0 0 0.274826,-0.155 8.3365567,3.3621047 0 0 0 0.187719,-0.12353 8.3365567,3.3621047 0 0 0 0.235361,-0.16547 8.3365567,3.3621047 0 0 0 0.289376,-0.24154 8.3365567,3.3621047 0 0 0 0.0016,-0.002 7.7439927,3.4566887 0 0 0 -7.640356,-2.9026 z"
         style="opacity:1;fill:#f1f1f1;fill-opacity:1;stroke:none;stroke-width:1.02573323;stroke-miterlimit:4;stroke-dasharray:none;stroke-opacity:1" />
      <ellipse
         style="opacity:1;fill:#333333;fill-opacity:1;stroke:none;stroke-width:0.0952381;stroke-miterlimit:4;stroke-dasharray:none;stroke-opacity:1"
         id="ellipse828"
         cx="11.75485"
         cy="273.75311"
         rx="8.3365564"
         ry="3.3621047" />
      <ellipse
         ry="2.9827883"
         rx="7.9922738"
         cy="273.61075"
         cx="11.827903"
         id="path826"
         style="opacity:1;fill:url(#linearGradient856);fill-opacity:1;stroke:none;stroke-width:0.94598001;stroke-miterlimit:4;stroke-dasharray:none;stroke-opacity:1" />
      <path
         sodipodi:nodetypes="ccccc"
         inkscape:connector-curvature="0"
         style="opacity:0.52600002;fill:#4e3001;fill-opacity:1;stroke:none;stroke-width:0.94598001;stroke-miterlimit:4;stroke-dasharray:none;stroke-opacity:1"
         d="m 11.78178,271.97437 c -3.4437794,0.003 -6.5739745,1.12039 -7.5298666,2.59719 1.1754991,1.15945 4.2543487,1.8267 7.5759886,1.82722 3.269886,-9.5e-4 6.285042,-0.62554 7.494871,-1.75929 -0.919801,-1.50198 -4.052658,-2.66395 -7.540993,-2.66512 z"
         id="path858" />
      <path
         sodipodi:nodetypes="ccccac"
         inkscape:connector-curvature="0"
         id="path845"
         d="m 22.31406,286.72412 0.721639,-3.99076 1.791057,0.85206 -2.356196,3.16478 c 0,0 -0.06858,0.0858 -0.111297,0.0734 -0.03502,-0.0101 -0.0452,-0.0995 -0.0452,-0.0995 z"
         style="opacity:1;fill:#bb9d55;fill-opacity:1;stroke:none;stroke-width:0.25198412px;stroke-linecap:butt;stroke-linejoin:miter;stroke-opacity:1" />
      <path
         inkscape:connector-curvature="0"
         id="path2869"
         d="m 24.43795,283.40048 -1.715238,2.79325 0.0929,0.0928 2.011175,-2.70119 z"
         style="opacity:1;fill:#a68c4c;fill-opacity:1;stroke:none;stroke-width:0.25198412px;stroke-linecap:butt;stroke-linejoin:miter;stroke-opacity:1" />
      <path
         inkscape:connector-curvature="0"
         id="path2860"
         d="m 23.035672,282.73338 -0.598436,3.30952 0.215866,-0.023 0.739082,-3.11685 z"
         style="opacity:1;fill:#ab8f4f;fill-opacity:1;stroke:none;stroke-width:0.25198412px;stroke-linecap:butt;stroke-linejoin:miter;stroke-opacity:1" />
      <path
         inkscape:connector-curvature="0"
         id="ellipse871"
         d="m 11.781781,272.16913 a 7.7439927,3.4566887 0 0 0 -7.4255345,2.49721 7.992274,2.9827883 0 0 0 7.4716555,1.92721 7.992274,2.9827883 0 0 0 7.418022,-1.87919 7.7439927,3.4566887 0 0 0 -7.464143,-2.54523 z"
         style="opacity:1;fill:#4e3001;fill-opacity:1;stroke:none;stroke-width:0.94598001;stroke-miterlimit:4;stroke-dasharray:none;stroke-opacity:1" />
      <path
         inkscape:connector-curvature="0"
         id="path905"
         d="m 12.032833,272.93417 a 10.312678,7.9427661 0 0 0 -7.0719691,2.19471 7.992274,2.9827882 0 0 0 6.8670381,1.46467 7.992274,2.9827882 0 0 0 7.08709,-1.6114 10.312678,7.9427661 0 0 0 -6.882159,-2.04798 z"
         style="opacity:1;fill:#331f02;fill-opacity:1;stroke:none;stroke-width:0.94598001;stroke-miterlimit:4;stroke-dasharray:none;stroke-opacity:1" />
      <path
         inkscape:connector-curvature="0"
         id="path876"
         d="m 22.510554,285.6377 -0.196468,1.08637 c 0,0 0.01015,0.0895 0.04517,0.0996 0.04271,0.0123 0.111262,-0.0734 0.111262,-0.0734 l 0.600814,-0.80698 -0.06171,-0.0191 c -0.226612,-0.0697 -0.404576,-0.20414 -0.499062,-0.28652 z"
         style="opacity:1;fill:#000000;stroke:none;stroke-width:0.25198412px;stroke-linecap:butt;stroke-linejoin:miter;stroke-opacity:1" />
      <path
         inkscape:connector-curvature="0"
         id="path898"
         d="m 11.770274,274.13409 a 8.1600083,3.4566886 0 0 0 -6.3086374,1.27532 7.992274,2.9827882 0 0 0 6.3662654,1.18414 7.992274,2.9827882 0 0 0 6.311396,-1.15865 8.1600083,3.4566886 0 0 0 -6.369024,-1.30081 z"
         style="opacity:1;fill:#221202;fill-opacity:1;stroke:none;stroke-width:0.94598001;stroke-miterlimit:4;stroke-dasharray:none;stroke-opacity:1" />
      <g
         id="text912"
         style="font-style:normal;font-weight:normal;font-size:14.35334587px;line-height:1.25;font-family:sans-serif;letter-spacing:0px;word-spacing:0px;fill:#2b3b5e;fill-opacity:1;stroke:none;stroke-width:1.36932194"
         transform="matrix(0.15585417,-0.07628432,0.06688732,0.18453986,33.173426,255.31012)"
         aria-label="main () {     public sta  ">
        <path
           inkscape:connector-curvature="0"
           id="path938"
           style="font-style:normal;font-variant:normal;font-weight:normal;font-stretch:normal;font-family:'Nanum Pen Script';-inkscape-font-specification:'Nanum Pen Script';fill:#2b3b5e;fill-opacity:1;stroke-width:1.36932194"
           d="m -184.50461,98.202552 q 0.0144,0.229653 0.0431,0.574134 0.0431,0.330126 0.0861,0.703313 0.0431,0.358834 0.0861,0.717671 0.0574,0.35883 0.10047,0.66025 0.15789,-0.31577 0.38754,-0.77508 0.22966,-0.459307 0.47366,-0.875554 0.25836,-0.4306 0.51672,-0.717667 0.27272,-0.301421 0.48802,-0.301421 0.22965,0 0.41624,0.229654 0.20095,0.2153 0.34448,0.531074 0.14354,0.315773 0.24401,0.674607 0.11483,0.358834 0.18659,0.631547 0.0574,-0.18659 0.14354,-0.416247 0.10047,-0.244007 0.20094,-0.488014 0.11483,-0.25836 0.24401,-0.502367 0.14353,-0.244007 0.30142,-0.4306 0.1866,-0.200947 0.4019,-0.287067 0.2153,-0.100473 0.31577,-0.100473 0.12918,0 0.30142,0.08612 0.18659,0.07177 0.37319,0.200946 0.18659,0.129181 0.34448,0.315774 0.17224,0.17224 0.27271,0.358834 0.20095,0.38754 0.31577,0.846847 0.12918,0.459307 0.1866,0.875557 0.0574,0.41624 0.0718,0.74637 0.0287,0.31577 0.0431,0.44495 0,0.1866 -0.0431,0.28707 -0.0431,0.0861 -0.15788,0.14354 -0.15789,0.0718 -0.27272,0.0574 -0.11482,-0.0287 -0.18659,-0.10047 -0.0718,-0.0718 -0.11483,-0.15789 -0.0431,-0.10047 -0.0574,-0.17224 -0.0431,-0.33013 -0.10047,-0.67461 -0.0431,-0.34448 -0.10048,-0.66025 -0.0574,-0.33013 -0.14353,-0.60284 -0.0718,-0.28707 -0.15789,-0.50237 -0.0287,-0.05741 -0.10047,-0.143534 -0.0574,-0.100473 -0.14353,-0.186593 -0.0718,-0.08612 -0.14354,-0.143534 -0.0718,-0.05741 -0.10047,-0.07177 -0.14353,0 -0.30142,0.272714 -0.15789,0.25836 -0.30142,0.631547 -0.14353,0.37319 -0.27271,0.78944 -0.11483,0.40189 -0.17225,0.68896 0,0.37318 -0.14353,0.55978 -0.14353,0.17224 -0.30142,0.17224 -0.15789,0 -0.34448,-0.11483 -0.17224,-0.12918 -0.22965,-0.28707 -0.0861,-0.22965 -0.1866,-0.51672 -0.10047,-0.28706 -0.2153,-0.58848 -0.10047,-0.30142 -0.2153,-0.588493 -0.10047,-0.287067 -0.20094,-0.516721 -0.20095,0.272714 -0.4019,0.602844 -0.18659,0.33013 -0.37318,0.67461 -0.17224,0.34448 -0.34448,0.68896 -0.15789,0.33012 -0.30142,0.58849 -0.10048,0.15788 -0.2153,0.28706 -0.11483,0.11483 -0.27272,0.11483 -0.11483,0 -0.24401,-0.10047 -0.12918,-0.11483 -0.244,-0.27272 -0.11483,-0.15789 -0.2153,-0.35883 -0.0861,-0.20095 -0.12918,-0.4019 -0.11483,-0.61719 -0.20095,-1.349213 -0.0718,-0.746374 -0.14353,-1.449688 -0.0144,-0.244007 0.0574,-0.444954 0.0861,-0.2153 0.31577,-0.287067 0.24401,-0.04306 0.37319,0.07177 0.12918,0.114827 0.15789,0.358834 z" />
        <path
           inkscape:connector-curvature="0"
           id="path940"
           style="font-style:normal;font-variant:normal;font-weight:normal;font-stretch:normal;font-family:'Nanum Pen Script';-inkscape-font-specification:'Nanum Pen Script';fill:#2b3b5e;fill-opacity:1;stroke-width:1.36932194"
           d="m -172.8627,97.527944 q 0.0574,0.401894 0.0861,0.861201 0.0431,0.444954 0.0574,0.904261 0.0287,0.459307 0.0287,0.889904 0,0.4306 -0.0144,0.77508 0.45931,0.31578 0.54543,0.55978 0.10047,0.24401 0.0287,0.4306 -0.0861,0.25837 -0.31578,0.27272 -0.2153,0 -0.50236,-0.15789 -0.20095,0.14354 -0.45931,0.31578 -0.25836,0.15788 -0.54543,0.31577 -0.28706,0.14353 -0.57413,0.25836 -0.28707,0.11483 -0.53108,0.15789 -0.4593,0.0718 -0.83249,-0.17224 -0.35883,-0.24401 -0.48801,-0.73202 -0.0861,-0.33013 -0.0431,-0.67461 0.0431,-0.35884 0.2153,-0.67461 0.17224,-0.33013 0.4593,-0.58849 0.30142,-0.25836 0.70332,-0.40189 0.10047,-0.04306 0.27271,-0.07177 0.1866,-0.02871 0.37319,-0.01435 0.20095,0 0.40189,0.07177 0.20095,0.07177 0.37319,0.244 0,-0.244 -0.0143,-0.531066 0,-0.301421 -0.0144,-0.602841 -0.0144,-0.30142 -0.0431,-0.55978 -0.0144,-0.272714 -0.0431,-0.459308 -0.0287,-0.2153 -0.17224,-0.25836 -0.12918,-0.05741 -0.33012,0.01435 -0.34448,0.114826 -0.80379,0.444953 -0.45931,0.330127 -0.87556,0.703314 -0.12918,0.12918 -0.30142,0.114827 -0.15788,-0.01435 -0.27271,-0.12918 -0.11483,-0.114827 -0.12918,-0.25836 -0.0144,-0.157887 0.11483,-0.330127 0.244,-0.25836 0.54542,-0.531074 0.30142,-0.272714 0.63155,-0.488014 0.33013,-0.229653 0.67461,-0.373187 0.34448,-0.143533 0.68896,-0.157887 0.50237,-0.01435 0.77508,0.229654 0.27271,0.229653 0.33013,0.60284 z m -1.66499,3.085966 q -0.18659,0.0431 -0.4019,0.1866 -0.20094,0.12918 -0.37318,0.33012 -0.15789,0.1866 -0.24401,0.4306 -0.0718,0.22966 0,0.45931 0.0287,0.0861 0.11483,0.12918 0.10047,0.0431 0.2153,0.0144 0.34448,-0.0718 0.77508,-0.27272 0.44495,-0.2153 0.70331,-0.45931 0,-0.0861 -0.0861,-0.2153 -0.0861,-0.14353 -0.20094,-0.27271 -0.11483,-0.14353 -0.25836,-0.24401 -0.12918,-0.10047 -0.24401,-0.0861 z" />
        <path
           inkscape:connector-curvature="0"
           id="path942"
           style="font-style:normal;font-variant:normal;font-weight:normal;font-stretch:normal;font-family:'Nanum Pen Script';-inkscape-font-specification:'Nanum Pen Script';fill:#2b3b5e;fill-opacity:1;stroke-width:1.36932194"
           d="m -168.88144,96.982517 q -0.0287,0.143534 -0.20095,0.157887 -0.17224,0.01435 -0.28707,0.01435 -0.35883,0.01435 -0.74637,0.07177 -0.37319,0.05741 -0.78944,0.17224 -0.17224,0.05741 -0.37318,-0.04306 -0.20095,-0.100473 -0.24401,-0.401893 0,-0.114827 0.0861,-0.186594 0.0861,-0.07177 0.20095,-0.12918 0.18659,-0.08612 0.44495,-0.143533 0.25836,-0.07177 0.51672,-0.100474 0.27272,-0.02871 0.51672,-0.01435 0.24401,0 0.4019,0.04306 0.22965,0.07177 0.35883,0.2153 0.14353,0.143533 0.11483,0.34448 z m -0.33013,4.779663 q 0.10047,0.22966 0.10047,0.50237 0.0144,0.25836 -0.14353,0.35883 -0.20095,0.12918 -0.4306,-0.0143 -0.22965,-0.14353 -0.34448,-0.38754 -0.15789,-0.30142 -0.24401,-0.73202 -0.0861,-0.44496 -0.12918,-0.87556 -0.0431,-0.4306 -0.0574,-0.803784 0,-0.373187 0,-0.55978 0.0143,-0.200947 0.11482,-0.373187 0.10048,-0.17224 0.25836,-0.200947 0.25837,0.01435 0.41625,0.244007 0.15789,0.2153 0.14354,0.545427 0,0.25836 0.0144,0.574134 0.0144,0.31577 0.0574,0.63155 0.0431,0.31577 0.10048,0.61719 0.0574,0.28707 0.14353,0.47366 z" />
        <path
           inkscape:connector-curvature="0"
           id="path944"
           style="font-style:normal;font-variant:normal;font-weight:normal;font-stretch:normal;font-family:'Nanum Pen Script';-inkscape-font-specification:'Nanum Pen Script';fill:#2b3b5e;fill-opacity:1;stroke-width:1.36932194"
           d="m -166.89799,98.102078 q 0.0431,0.2153 0.0861,0.488014 0.0574,0.25836 0.11483,0.545427 0.0574,0.272714 0.10047,0.559781 0.0431,0.287067 0.0718,0.54543 0.17224,-0.37319 0.37318,-0.789437 0.20095,-0.416247 0.4306,-0.760728 0.24401,-0.358833 0.50237,-0.588487 0.27271,-0.229653 0.58849,-0.229653 0.47366,0 0.78943,0.34448 0.33013,0.34448 0.54543,0.861201 0.22965,0.502367 0.35883,1.062144 0.12918,0.55978 0.2153,0.99038 0.0861,0.38754 -0.34448,0.57414 -0.20094,0.10047 -0.30142,0.0287 -0.10047,-0.0718 -0.11482,-0.14353 -0.0718,-0.17224 -0.1866,-0.60284 -0.10047,-0.4306 -0.244,-0.87555 -0.12919,-0.444957 -0.30143,-0.775084 -0.17224,-0.330127 -0.38754,-0.30142 -0.25836,0.01435 -0.4593,0.38754 -0.17224,0.30142 -0.35884,0.674604 -0.17224,0.35884 -0.34448,0.74638 -0.17224,0.37318 -0.34448,0.76072 -0.15788,0.37319 -0.30142,0.68897 -0.10047,0.10047 -0.25836,0.14353 -0.14353,0.0287 -0.30142,-0.0287 -0.14353,-0.0431 -0.22965,-0.14353 -0.0861,-0.10047 -0.0861,-0.20095 -0.12918,-1.11956 -0.27271,-2.03817 -0.12918,-0.918618 -0.34449,-1.880292 -0.10047,-0.330127 -0.0431,-0.51672 0.0718,-0.200947 0.43061,-0.157887 0.50236,0.08612 0.61719,0.631547 z" />
        <path
           inkscape:connector-curvature="0"
           id="path946"
           style="font-style:normal;font-variant:normal;font-weight:normal;font-stretch:normal;font-family:'Nanum Pen Script';-inkscape-font-specification:'Nanum Pen Script';fill:#2b3b5e;fill-opacity:1;stroke-width:1.36932194"
           d="m -154.4662,95.819896 q -0.63155,0.660254 -1.06215,1.636282 -0.4306,0.976027 -0.55978,2.023821 -0.11482,0.947321 0.0718,1.865931 0.18659,0.90427 0.78943,1.60758 0.15789,0.20095 0.30142,0.35883 0.15789,0.14354 0.24401,0.28707 0.10047,0.14353 0.11483,0.30142 0.0143,0.14353 -0.0861,0.31577 -0.0574,0.10048 -0.15789,0.12918 -0.0861,0.0144 -0.18659,0 -0.10048,-0.0144 -0.20095,-0.0574 -0.0861,-0.0431 -0.12918,-0.0718 -0.45931,-0.31577 -0.81814,-0.78943 -0.34448,-0.48801 -0.57414,-1.0765 -0.22965,-0.58849 -0.34448,-1.23439 -0.10047,-0.66025 -0.0574,-1.33486 0.0431,-0.688961 0.20095,-1.349215 0.15788,-0.674607 0.41624,-1.263094 0.25837,-0.588487 0.60285,-1.062148 0.35883,-0.488014 0.77508,-0.789434 0.0861,-0.07177 0.27271,-0.05741 0.18659,0.01435 0.30142,0.100473 0.12918,0.100474 0.14353,0.25836 0.0144,0.143534 -0.0574,0.200947 z" />
        <path
           inkscape:connector-curvature="0"
           id="path948"
           style="font-style:normal;font-variant:normal;font-weight:normal;font-stretch:normal;font-family:'Nanum Pen Script';-inkscape-font-specification:'Nanum Pen Script';fill:#2b3b5e;fill-opacity:1;stroke-width:1.36932194"
           d="m -150.53989,97.642771 q 0.0861,0.918614 -0.0287,1.851582 -0.10048,0.918617 -0.28707,1.751107 -0.18659,0.81814 -0.41625,1.49275 -0.22965,0.66025 -0.37319,1.06215 -0.0287,0.0718 -0.10047,0.22965 -0.0718,0.15789 -0.18659,0.31577 -0.10048,0.14354 -0.24401,0.24401 -0.14353,0.0861 -0.31577,0.0287 -0.14354,-0.0431 -0.20095,-0.15789 -0.0431,-0.11483 -0.0431,-0.24401 0,-0.12918 0.0287,-0.25836 0.0431,-0.14353 0.0861,-0.244 0.37318,-0.99038 0.63154,-1.93771 0.25836,-0.94732 0.45931,-2.066877 0.20095,-1.148268 0.0431,-1.937702 -0.11483,-0.60284 -0.4306,-0.918614 -0.31577,-0.330127 -0.84685,-0.574134 -0.2153,-0.100473 -0.35883,-0.315773 -0.12918,-0.229654 -0.0287,-0.459307 0.11483,-0.17224 0.28707,-0.200947 0.17224,-0.04306 0.35883,0 0.1866,0.02871 0.35884,0.114827 0.17224,0.08612 0.28706,0.143533 0.22966,0.143534 0.44496,0.330127 0.2153,0.186594 0.40189,0.444954 0.1866,0.25836 0.30142,0.588487 0.12918,0.315774 0.17224,0.717667 z" />
        <path
           inkscape:connector-curvature="0"
           id="path950"
           style="font-style:normal;font-variant:normal;font-weight:normal;font-stretch:normal;font-family:'Nanum Pen Script';-inkscape-font-specification:'Nanum Pen Script';fill:#2b3b5e;fill-opacity:1;stroke-width:1.36932194"
           d="m -141.77582,95.647656 q 0.12918,0.12918 0.0287,0.330127 -0.0431,0.08612 -0.15789,0.143534 -0.11483,0.05741 -0.22965,0.02871 -0.20095,-0.02871 -0.51673,-0.08612 -0.30142,-0.05741 -0.54542,-0.08612 -0.53108,-0.07177 -0.54543,0.459307 -0.0144,0.25836 0,0.617194 0.0144,0.358834 0.0431,0.760727 0.0431,0.387541 0.0861,0.775081 0.0574,0.373187 0.11483,0.645901 0.10047,-0.01435 0.22965,0 0.12918,0 0.25836,0.05741 0.12918,0.04306 0.2153,0.157887 0.10047,0.114827 0.12918,0.30142 0.0431,0.315776 0.0431,0.875556 0,0.55978 -0.0287,1.19132 -0.0144,0.6172 -0.0574,1.23439 -0.0287,0.60284 -0.0718,1.00474 0.25836,-0.0574 0.51672,-0.11483 0.27272,-0.0574 0.50237,-0.10047 0.24401,-0.0431 0.4306,-0.0718 0.20095,-0.0287 0.30142,-0.0287 0.14354,0 0.17224,0.22966 0.0144,0.11482 -0.0143,0.2153 -0.0144,0.0861 -0.0718,0.12918 -0.12918,0.0718 -0.4306,0.17224 -0.30142,0.10047 -0.6459,0.18659 -0.33013,0.10047 -0.63155,0.17224 -0.30142,0.0718 -0.41624,0.0718 -0.15789,0 -0.27272,-0.0718 -0.11482,-0.0718 -0.18659,-0.17224 -0.0718,-0.10047 -0.10047,-0.20095 -0.0287,-0.11482 -0.0287,-0.20094 0,-0.31578 0.0144,-0.84685 0.0287,-0.53107 0.0431,-1.11956 0.0287,-0.58849 0.0431,-1.14827 0.0287,-0.57413 0.0287,-0.97603 -0.0861,0.15789 -0.22965,0.30142 -0.14354,0.12918 -0.31578,0.1866 -0.17224,0.0574 -0.40189,0 -0.22965,-0.0574 -0.34448,-0.27272 -0.0861,-0.15788 -0.0574,-0.28706 0.0287,-0.129182 0.12918,-0.229656 0.10047,-0.100473 0.25836,-0.17224 0.15788,-0.08612 0.31577,-0.17224 -0.15789,-0.488014 -0.30142,-1.047794 -0.14353,-0.559781 -0.18659,-1.119561 -0.0431,-0.559781 0.0574,-1.076501 0.10047,-0.516721 0.4306,-0.918614 0.17224,-0.215301 0.48801,-0.244007 0.33013,-0.04306 0.67461,0.02871 0.35883,0.05741 0.68896,0.200947 0.34448,0.143534 0.54543,0.287067 z" />
        <path
           inkscape:connector-curvature="0"
           id="path952"
           style="font-style:normal;font-variant:normal;font-weight:normal;font-stretch:normal;font-family:'Nanum Pen Script';-inkscape-font-specification:'Nanum Pen Script';fill:#2b3b5e;fill-opacity:1;stroke-width:1.36932194"
           d="m -166.89036,122.92238 q -0.0144,0.15788 -0.14354,0.28706 -0.12918,0.14354 -0.28706,0.12918 -0.24401,-0.0144 -0.37319,-0.18659 -0.12918,-0.17224 -0.12918,-0.28707 0,-0.54542 -0.0287,-1.13391 -0.0287,-0.60284 -0.0718,-1.23439 -0.18659,0.0287 -0.34448,-0.0287 -0.14353,-0.0718 -0.20094,-0.2153 -0.10048,-0.24401 0.0287,-0.43061 0.12918,-0.18659 0.41625,-0.35883 -0.0718,-0.53107 -0.14353,-1.04779 -0.0574,-0.51672 -0.12918,-1.00474 -0.0144,-0.0861 0.0144,-0.15788 0.0287,-0.0718 0.0718,-0.12918 0.0431,-0.0718 0.15788,-0.12918 0.1866,-0.0718 0.41625,0.11482 0.24401,0.1866 0.33013,0.47366 0.0431,0.27272 0.0861,0.63155 0.0574,0.34448 0.10047,0.76073 0.30142,-0.1866 0.55978,-0.4019 0.27272,-0.2153 0.45931,-0.4593 0.20095,-0.24401 0.30142,-0.50237 0.10047,-0.27271 0.0574,-0.55978 -0.0287,-0.24401 -0.2153,-0.4306 -0.18659,-0.20095 -0.58848,-0.2153 -0.35884,-0.0144 -0.71767,0.0574 -0.34448,0.0718 -0.68896,0.1866 -0.33013,0.11482 -0.66026,0.27271 -0.31577,0.15789 -0.61719,0.31577 -0.20095,0.11483 -0.40189,0.10048 -0.1866,-0.0287 -0.24401,-0.14354 -0.12918,-0.28706 0.0143,-0.51672 0.15789,-0.22965 0.47366,-0.4306 0.27272,-0.15789 0.6459,-0.31577 0.38754,-0.17224 0.80379,-0.28707 0.4306,-0.12918 0.8612,-0.17224 0.44496,-0.0574 0.84685,0.0144 0.40189,0.0574 0.71767,0.27272 0.33012,0.20094 0.53107,0.60284 0.24401,0.66025 0.12918,1.22003 -0.10047,0.54543 -0.4306,1.00474 -0.31577,0.44495 -0.78943,0.81814 -0.45931,0.35883 -0.93297,0.6459 0.0718,0.77508 0.10047,1.53581 0.0287,0.76072 0.0144,1.33486 z" />
        <path
           inkscape:connector-curvature="0"
           id="path954"
           style="font-style:normal;font-variant:normal;font-weight:normal;font-stretch:normal;font-family:'Nanum Pen Script';-inkscape-font-specification:'Nanum Pen Script';fill:#2b3b5e;fill-opacity:1;stroke-width:1.36932194"
           d="m -162.60141,117.10927 q -0.0861,0.38754 -0.17224,0.8612 -0.0861,0.45931 -0.12918,0.88991 -0.0287,0.4306 0,0.77508 0.0431,0.34448 0.1866,0.48801 0.244,0.0431 0.55978,-0.20094 0.31577,-0.25836 0.61719,-0.6459 0.30142,-0.38754 0.54543,-0.8325 0.24401,-0.4593 0.34448,-0.80378 0.0574,-0.17224 0.10047,-0.35884 0.0431,-0.18659 0.0431,-0.38754 0,-0.11482 0.14354,-0.2153 0.15788,-0.11482 0.25836,-0.12918 0.0718,-0.0144 0.15788,0.0287 0.10048,0.0431 0.17224,0.12918 0.0861,0.0718 0.14354,0.18659 0.0718,0.10048 0.0718,0.2153 0.0287,0.4306 0.0861,0.94732 0.0574,0.51672 0.12918,1.03344 0.0861,0.51672 0.17224,1.00474 0.0861,0.48801 0.17224,0.87555 0.0431,0.15789 -0.0861,0.35884 -0.12918,0.20094 -0.28706,0.244 -0.12918,0.0287 -0.27272,-0.0287 -0.12918,-0.0574 -0.20094,-0.22966 -0.0718,-0.20094 -0.14354,-0.48801 -0.0574,-0.30142 -0.11482,-0.6172 -0.0431,-0.33012 -0.0861,-0.61719 -0.0431,-0.30142 -0.0574,-0.50237 -0.2153,0.38754 -0.51672,0.78944 -0.28706,0.38754 -0.63154,0.71767 -0.33013,0.31577 -0.70332,0.50236 -0.35883,0.17224 -0.74637,0.12918 -0.57414,-0.0718 -0.87556,-1.0765 -0.11482,-0.40189 -0.11482,-0.88991 0.0144,-0.48801 0.0718,-0.96167 0.0718,-0.48801 0.15789,-0.91861 0.10047,-0.4306 0.17224,-0.70332 0.0287,-0.11482 0.11483,-0.20094 0.0861,-0.10048 0.20094,-0.0718 0.2153,0.0431 0.38754,0.25836 0.1866,0.2153 0.12918,0.44495 z" />
        <path
           inkscape:connector-curvature="0"
           id="path956"
           style="font-style:normal;font-variant:normal;font-weight:normal;font-stretch:normal;font-family:'Nanum Pen Script';-inkscape-font-specification:'Nanum Pen Script';fill:#2b3b5e;fill-opacity:1;stroke-width:1.36932194"
           d="m -157.08748,114.06636 q 0.0144,0.22966 0.0144,0.55978 0.0144,0.33013 0.0287,0.71767 0.0144,0.38754 0.0431,0.78943 0.0287,0.38755 0.0861,0.74638 0.2153,-0.35883 0.48802,-0.54543 0.28706,-0.18659 0.57413,-0.22965 0.44495,-0.0574 0.77508,0.10047 0.33013,0.15789 0.54543,0.44496 0.2153,0.27271 0.31577,0.61719 0.10047,0.33013 0.10047,0.6459 0,0.67461 -0.35883,1.24874 -0.34448,0.57413 -0.81814,1.01909 -0.45931,0.44495 -0.91861,0.74637 -0.44496,0.30142 -0.64591,0.4306 -0.28706,0.11483 -0.55978,0.0574 -0.27271,-0.0574 -0.35883,-0.17224 -0.0718,-0.17224 -0.0431,-0.28707 0.0287,-0.12918 0.11483,-0.22965 0.0861,-0.10048 0.20094,-0.17224 0.12918,-0.0861 0.2153,-0.15789 -0.34448,-1.57887 -0.53107,-3.18644 -0.18659,-1.62193 -0.15789,-3.28692 0,-0.28707 0.11483,-0.33013 0.12918,-0.0431 0.2153,-0.0431 0.20095,0.0287 0.35883,0.15789 0.15789,0.12918 0.20095,0.35883 z m 2.09559,3.80364 q 0,-0.48801 -0.24401,-0.67461 -0.244,-0.20094 -0.50236,-0.17224 -0.2153,0.0287 -0.38754,0.15789 -0.17224,0.12918 -0.30142,0.31577 -0.12918,0.1866 -0.20095,0.41625 -0.0574,0.22965 -0.0431,0.44495 0.0287,0.35884 0.0718,0.77508 0.0574,0.41625 0.12918,0.74638 0.22965,-0.15789 0.48801,-0.35884 0.25836,-0.2153 0.47366,-0.47366 0.22965,-0.25836 0.37319,-0.54542 0.14353,-0.30142 0.14353,-0.63155 z" />
        <path
           inkscape:connector-curvature="0"
           id="path958"
           style="font-style:normal;font-variant:normal;font-weight:normal;font-stretch:normal;font-family:'Nanum Pen Script';-inkscape-font-specification:'Nanum Pen Script';fill:#2b3b5e;fill-opacity:1;stroke-width:1.36932194"
           d="m -151.89314,114.6405 q 0.0718,1.56451 0.24401,3.24385 0.17224,1.66499 0.37319,3.18645 0.0431,0.63154 -0.34448,0.6459 -0.0861,0 -0.17224,-0.0574 -0.0861,-0.0718 -0.15789,-0.17224 -0.0718,-0.10047 -0.14353,-0.2153 -0.0574,-0.11482 -0.0718,-0.20094 -0.11483,-0.73202 -0.2153,-1.55017 -0.10047,-0.81814 -0.18659,-1.63628 -0.0718,-0.83249 -0.12918,-1.62193 -0.0574,-0.78943 -0.0718,-1.44968 0.0287,-0.34448 0.10047,-0.57414 0.0718,-0.244 0.30142,-0.22965 0.24401,0.0144 0.34448,0.20095 0.11483,0.17224 0.12918,0.4306 z" />
        <path
           inkscape:connector-curvature="0"
           id="path960"
           style="font-style:normal;font-variant:normal;font-weight:normal;font-stretch:normal;font-family:'Nanum Pen Script';-inkscape-font-specification:'Nanum Pen Script';fill:#2b3b5e;fill-opacity:1;stroke-width:1.36932194"
           d="m -147.68783,115.5017 q -0.0287,0.14353 -0.20095,0.15788 -0.17224,0.0144 -0.28706,0.0144 -0.35884,0.0143 -0.74638,0.0718 -0.37318,0.0574 -0.78943,0.17224 -0.17224,0.0574 -0.37319,-0.0431 -0.20095,-0.10047 -0.24401,-0.40189 0,-0.11483 0.0861,-0.18659 0.0861,-0.0718 0.20095,-0.12918 0.18659,-0.0861 0.44495,-0.14354 0.25837,-0.0718 0.51673,-0.10047 0.27271,-0.0287 0.51672,-0.0144 0.244,0 0.40189,0.0431 0.22965,0.0718 0.35883,0.2153 0.14354,0.14353 0.11483,0.34448 z m -0.33013,4.77966 q 0.10048,0.22966 0.10048,0.50237 0.0144,0.25836 -0.14354,0.35883 -0.20094,0.12918 -0.4306,-0.0144 -0.22965,-0.14353 -0.34448,-0.38754 -0.15788,-0.30142 -0.244,-0.73202 -0.0861,-0.44496 -0.12918,-0.87556 -0.0431,-0.4306 -0.0574,-0.80378 0,-0.37319 0,-0.55978 0.0144,-0.20095 0.11483,-0.37319 0.10047,-0.17224 0.25836,-0.20095 0.25836,0.0144 0.41625,0.24401 0.15788,0.2153 0.14353,0.54543 0,0.25836 0.0144,0.57413 0.0144,0.31577 0.0574,0.63155 0.0431,0.31577 0.10047,0.61719 0.0574,0.28707 0.14353,0.47366 z" />
        <path
           inkscape:connector-curvature="0"
           id="path962"
           style="font-style:normal;font-variant:normal;font-weight:normal;font-stretch:normal;font-family:'Nanum Pen Script';-inkscape-font-specification:'Nanum Pen Script';fill:#2b3b5e;fill-opacity:1;stroke-width:1.36932194"
           d="m -143.32172,117.66905 q -0.10048,0.0574 -0.24401,0.0431 -0.14353,-0.0287 -0.24401,-0.18659 -0.22965,-0.30142 -0.55978,-0.30142 -0.30142,0 -0.54542,0.14353 -0.22966,0.12918 -0.41625,0.35884 -0.17224,0.2153 -0.28707,0.48801 -0.11482,0.27271 -0.15788,0.54543 -0.0718,0.50236 0.17224,0.84684 0.244,0.34448 0.76072,0.34448 0.41625,0.0144 0.93297,-0.15788 0.53107,-0.1866 0.99038,-0.47366 0.20095,-0.0861 0.37319,-0.10048 0.17224,-0.0144 0.28707,0.17224 0.14353,0.22966 -0.0718,0.47366 -0.2153,0.22966 -0.57414,0.41625 -0.35883,0.20095 -0.76072,0.35884 -0.38754,0.14353 -0.78944,0.2153 -0.40189,0.0574 -0.80378,0 -0.38754,-0.0574 -0.73202,-0.27272 -0.54543,-0.37319 -0.66026,-1.06215 -0.11483,-0.68896 0.10047,-1.42098 0.0861,-0.27271 0.24401,-0.54542 0.15789,-0.28707 0.37319,-0.51672 0.22965,-0.22966 0.50237,-0.38754 0.27271,-0.17224 0.60284,-0.22966 0.53107,-0.0861 1.01908,0.11483 0.48802,0.18659 0.6459,0.70331 0.0287,0.11483 0,0.24401 -0.0287,0.11483 -0.15788,0.18659 z" />
        <path
           inkscape:connector-curvature="0"
           id="path964"
           style="font-style:normal;font-variant:normal;font-weight:normal;font-stretch:normal;font-family:'Nanum Pen Script';-inkscape-font-specification:'Nanum Pen Script';fill:#2b3b5e;fill-opacity:1;stroke-width:1.36932194"
           d="m -134.7438,117.06621 q -0.0287,-0.15788 -0.0574,-0.30142 -0.0287,-0.14353 -0.14353,-0.18659 -0.24401,-0.0718 -0.51672,-0.0143 -0.27271,0.0574 -0.50237,0.18659 -0.22965,0.11483 -0.38754,0.27271 -0.15788,0.14354 -0.17224,0.25836 -0.0431,0.2153 0.11483,0.41625 0.15789,0.20095 0.45931,0.40189 0.50236,0.30142 1.04779,0.6172 0.54543,0.31577 0.91862,0.6459 0.37318,0.33012 0.50236,0.73202 0.14354,0.38754 -0.0574,0.88991 -0.15789,0.38754 -0.58849,0.63154 -0.4306,0.24401 -0.94732,0.38754 -0.51672,0.12918 -1.03344,0.1866 -0.51672,0.0431 -0.87555,0.0431 -0.0861,0 -0.2153,-0.0574 -0.11483,-0.0718 -0.22966,-0.15788 -0.10047,-0.0861 -0.18659,-0.17224 -0.0718,-0.10048 -0.0718,-0.17224 0,-0.25836 0.22966,-0.35884 0.22965,-0.10047 0.47366,-0.10047 0.34448,0 0.73202,-0.0287 0.40189,-0.0431 0.76072,-0.11482 0.35884,-0.0861 0.6459,-0.2153 0.28707,-0.12918 0.4019,-0.33013 0.10047,-0.17224 -0.12918,-0.4019 -0.2153,-0.244 -0.58849,-0.50236 -0.35883,-0.25836 -0.78943,-0.50237 -0.41625,-0.24401 -0.71767,-0.44495 -0.30142,-0.20095 -0.51672,-0.47366 -0.2153,-0.28707 -0.27271,-0.70332 -0.0144,-0.37318 0.15788,-0.71766 0.17224,-0.34448 0.44496,-0.60285 0.28706,-0.27271 0.6459,-0.4306 0.35883,-0.15788 0.71766,-0.15788 0.6172,0.0287 1.01909,0.34448 0.4019,0.30142 0.47366,0.90426 0,0.20095 -0.0718,0.33013 -0.0574,0.12918 -0.21531,0.15788 -0.20094,0.0287 -0.33012,-0.0431 -0.11483,-0.0861 -0.12918,-0.2153 z" />
        <path
           inkscape:connector-curvature="0"
           id="path966"
           style="font-style:normal;font-variant:normal;font-weight:normal;font-stretch:normal;font-family:'Nanum Pen Script';-inkscape-font-specification:'Nanum Pen Script';fill:#2b3b5e;fill-opacity:1;stroke-width:1.36932194"
           d="m -129.29177,117.51117 q 0.27271,-0.0144 0.54542,0.12918 0.27272,0.14353 0.27272,0.44495 -0.0287,0.24401 -0.27272,0.31577 -0.22965,0.0574 -0.37318,0.0574 -0.28707,0 -0.6172,0.0144 -0.33012,0.0143 -0.6746,0.0431 -0.0287,0.47366 -0.0574,0.88991 -0.0144,0.41624 -0.0287,0.74637 -0.0144,0.31578 -0.0144,0.51672 0,0.20095 0.0144,0.2153 0.31577,-0.0574 0.6746,-0.18659 0.37319,-0.14353 0.73202,-0.30142 0.37319,-0.17224 0.71767,-0.34448 0.35883,-0.1866 0.67461,-0.34448 0.14353,-0.0718 0.25836,-0.0431 0.12918,0.0287 0.15789,0.12918 0.0287,0.15788 -0.0431,0.38754 -0.0718,0.22965 -0.25836,0.41625 -0.21531,0.17224 -0.57414,0.40189 -0.34448,0.2153 -0.74637,0.41625 -0.4019,0.20094 -0.81814,0.35883 -0.4019,0.14353 -0.71767,0.17224 -0.47366,0.0431 -0.71767,-0.25836 -0.244,-0.30142 -0.27271,-0.76073 -0.0287,-0.4593 -0.0144,-1.06215 0.0287,-0.60284 0.0574,-1.27744 -0.27272,0.0287 -0.53108,0.0574 -0.244,0.0144 -0.47366,0.0431 -0.18659,0 -0.41624,-0.0861 -0.2153,-0.0861 -0.2153,-0.33013 0,-0.0861 0.0718,-0.22965 0.0718,-0.14353 0.31578,-0.2153 0.58848,-0.10047 1.30615,-0.17224 0.0431,-0.67461 0.10048,-1.30616 0.0574,-0.63154 0.10047,-1.14826 0.0143,-0.17224 0.10047,-0.30142 0.0861,-0.12918 0.1866,-0.12918 0.244,-0.0144 0.4593,0.12918 0.22966,0.12918 0.22966,0.30142 -0.0574,0.48801 -0.11483,1.1052 -0.0431,0.6172 -0.0861,1.2631 0.28707,-0.0287 0.54543,-0.0287 0.27271,-0.0143 0.51672,-0.0287 z" />
        <path
           inkscape:connector-curvature="0"
           id="path968"
           style="font-style:normal;font-variant:normal;font-weight:normal;font-stretch:normal;font-family:'Nanum Pen Script';-inkscape-font-specification:'Nanum Pen Script';fill:#2b3b5e;fill-opacity:1;stroke-width:1.36932194"
           d="m -123.10257,116.04712 q 0.0574,0.4019 0.0861,0.86121 0.0431,0.44495 0.0574,0.90426 0.0287,0.4593 0.0287,0.8899 0,0.4306 -0.0144,0.77508 0.45931,0.31578 0.54543,0.55978 0.10047,0.24401 0.0287,0.43061 -0.0861,0.25836 -0.31577,0.27271 -0.2153,0 -0.50237,-0.15789 -0.20095,0.14354 -0.45931,0.31578 -0.25836,0.15788 -0.54542,0.31577 -0.28707,0.14353 -0.57414,0.25836 -0.28706,0.11483 -0.53107,0.15789 -0.45931,0.0718 -0.83249,-0.17224 -0.35884,-0.24401 -0.48802,-0.73202 -0.0861,-0.33013 -0.0431,-0.67461 0.0431,-0.35884 0.2153,-0.67461 0.17224,-0.33013 0.45931,-0.58849 0.30142,-0.25836 0.70331,-0.40189 0.10048,-0.0431 0.27272,-0.0718 0.18659,-0.0287 0.37318,-0.0143 0.20095,0 0.4019,0.0718 0.20094,0.0718 0.37318,0.244 0,-0.244 -0.0144,-0.53107 0,-0.30142 -0.0143,-0.60284 -0.0144,-0.30142 -0.0431,-0.55978 -0.0144,-0.27271 -0.0431,-0.45931 -0.0287,-0.2153 -0.17224,-0.25836 -0.12918,-0.0574 -0.33013,0.0143 -0.34448,0.11483 -0.80379,0.44496 -0.4593,0.33013 -0.87555,0.70331 -0.12918,0.12918 -0.30142,0.11483 -0.15789,-0.0144 -0.27272,-0.12918 -0.11482,-0.11483 -0.12918,-0.25836 -0.0143,-0.15789 0.11483,-0.33013 0.24401,-0.25836 0.54543,-0.53107 0.30142,-0.27272 0.63155,-0.48802 0.33012,-0.22965 0.6746,-0.37318 0.34448,-0.14354 0.68896,-0.15789 0.50237,-0.0143 0.77508,0.22965 0.27272,0.22966 0.33013,0.60284 z m -1.66499,3.08597 q -0.18659,0.0431 -0.40189,0.1866 -0.20095,0.12918 -0.37319,0.33012 -0.15788,0.1866 -0.244,0.4306 -0.0718,0.22966 0,0.45931 0.0287,0.0861 0.11482,0.12918 0.10048,0.0431 0.2153,0.0144 0.34448,-0.0718 0.77508,-0.27272 0.44496,-0.2153 0.70332,-0.45931 0,-0.0861 -0.0861,-0.2153 -0.0861,-0.14353 -0.20095,-0.27271 -0.11483,-0.14353 -0.25836,-0.24401 -0.12918,-0.10047 -0.24401,-0.0861 z" />
      </g>
      <path
         inkscape:connector-curvature="0"
         id="path987"
         d="m 28.323363,281.10725 -3.653569,2.98401 -1.853603,2.29332 -0.30906,0.38228 v 10e-5 c -2.6e-5,5e-5 -0.0014,0.004 -0.0033,0.0101 l -9.7e-5,10e-5 c -0.0028,0.01 -0.0063,0.0233 -0.0066,0.0363 -1.47e-4,0.009 0.0011,0.0168 0.0051,0.0226 0.002,0.003 0.0047,0.006 0.0082,0.007 0.0043,0.002 0.0094,0.003 0.01532,0.003 0.04089,2.8e-4 0.113258,-0.0379 0.113258,-0.0379 l 0.849393,-0.47595 h 9.7e-5 l 2.481899,-1.39077 3.780333,-3.07768 c -0.0177,-0.008 -0.03577,-0.0158 -0.05506,-0.0252 -0.30794,-0.15022 -0.849454,-0.53362 -1.372324,-0.73062 z"
         style="opacity:0.25;fill:#000000;fill-opacity:1;stroke:none;stroke-width:0.25198412px;stroke-linecap:butt;stroke-linejoin:miter;stroke-opacity:1" />
      <path
         sodipodi:nodetypes="cccccccccsccccccccccccccccsscssscsccccccc"
         inkscape:connector-curvature="0"
         id="path2846"
         d="m 30.7444,265.23191 c -0.0041,-1e-4 -0.0078,2.5e-4 -0.01112,9.5e-4 -0.05306,0.0145 -0.11117,0.0695 -0.146257,0.12249 -0.03706,0.056 -0.04021,0.12802 -0.05868,0.19256 -0.01954,0.0683 -0.01501,0.14729 -0.05506,0.20598 -0.04874,0.0714 -0.165772,0.0788 -0.208925,0.15367 -0.05504,0.0956 0.0098,0.22859 -0.03594,0.32894 -0.03586,0.0787 -0.141622,0.11109 -0.176118,0.19038 -0.0318,0.0731 0.02348,0.20163 -0.01778,0.23849 -0.04126,0.0369 -0.03208,0.0287 -0.121912,0.23261 -0.08983,0.20396 -0.105303,0.32498 -0.05468,0.35395 4.94e-4,2.9e-4 0.0012,3.9e-4 0.0017,6.6e-4 1.4e-5,1.5e-4 9.8e-5,0.002 9.8e-5,0.002 0,0 0.11062,0.0492 0.202838,0.0738 0.01874,0.005 0.03317,0.0107 0.04631,0.0166 0.0085,0.008 0.01708,0.0137 0.02558,0.0226 0.111098,0.1151 0.258197,0.13208 0.318475,0.14416 0.02958,0.006 0.05063,1.1e-4 0.0931,0.009 0.04018,0.017 0.08917,0.0363 0.158714,0.0609 0.02313,0.0115 0.04837,0.0248 0.07722,0.0407 0.09795,0.0543 0.156712,0.0818 0.205217,0.10375 0.01149,0.0122 0.0208,0.0231 0.03452,0.0334 0.04677,0.0351 0.149669,0.12485 0.297079,0.13893 0.03022,0.0101 0.05637,0.0177 0.09405,0.0424 0.07979,0.0524 0.190286,0.10204 0.190286,0.10204 0,0 0.06066,0.0299 0.0686,0.0231 0.05507,0.0109 0.07838,-0.11625 0.167613,-0.31255 0.09222,-0.20289 0.09224,-0.19059 0.09224,-0.24593 0,-0.0553 0.132634,-0.0997 0.165942,-0.17212 0.03612,-0.0786 -0.01014,-0.17912 0.02463,-0.25828 0.04435,-0.10097 0.186708,-0.1412 0.221287,-0.24591 0.0271,-0.0821 -0.04529,-0.17426 -0.02453,-0.25819 0.01707,-0.069 0.07887,-0.11821 0.116777,-0.17831 0.03582,-0.0568 0.08747,-0.10719 0.10451,-0.17211 0.01613,-0.0615 0.01841,-0.14139 -0.0062,-0.19057 -0.02144,-0.0429 -0.167809,-0.0753 -0.226898,-0.0914 -0.120291,-0.0706 -0.380859,-0.22111 -0.463686,-0.23973 -0.03188,-0.008 -0.09675,-0.0287 -0.169175,-0.0539 -0.09821,-0.053 -0.192212,-0.10556 -0.228419,-0.13142 -0.08079,-0.0577 -0.459061,-0.17687 -0.5371,-0.20188 -0.0541,-0.0358 -0.124872,-0.0802 -0.164325,-0.0812 z"
         style="fill:#535667;fill-opacity:1;stroke:none;stroke-width:0.25198412px;stroke-linecap:butt;stroke-linejoin:miter;stroke-opacity:1" />
      <path
         inkscape:connector-curvature="0"
         id="path2853"
         d="m 31.270375,265.43703 -0.98462,2.03067 c 0.06882,0.028 0.132475,0.0372 0.167178,0.0442 0.02958,0.006 0.05063,10e-5 0.09309,0.009 0.04017,0.017 0.08917,0.0363 0.158714,0.0609 0.02313,0.0115 0.04837,0.0248 0.07722,0.0407 0.09795,0.0543 0.156713,0.0818 0.205217,0.10376 0.01149,0.0122 0.02081,0.023 0.03452,0.0333 0.04292,0.0322 0.133552,0.10976 0.261989,0.13332 l 0.91691,-2.01383 c -0.128767,-0.0736 -0.29412,-0.16393 -0.357178,-0.17812 -0.03188,-0.008 -0.09675,-0.0287 -0.169175,-0.0539 -0.09821,-0.053 -0.192212,-0.10557 -0.22842,-0.13142 -0.0287,-0.0205 -0.09846,-0.049 -0.17545,-0.078 z"
         style="fill:#686c81;fill-opacity:1;stroke:none;stroke-width:0.25198412px;stroke-linecap:butt;stroke-linejoin:miter;stroke-opacity:1" />
    </g>
  </g>
</svg>
