<?xml version="1.0" encoding="UTF-8" standalone="no"?>
<svg
   xmlns:dc="http://purl.org/dc/elements/1.1/"
   xmlns:cc="http://creativecommons.org/ns#"
   xmlns:rdf="http://www.w3.org/1999/02/22-rdf-syntax-ns#"
   xmlns:svg="http://www.w3.org/2000/svg"
   xmlns="http://www.w3.org/2000/svg"
   xmlns:xlink="http://www.w3.org/1999/xlink"
   xmlns:sodipodi="http://sodipodi.sourceforge.net/DTD/sodipodi-0.dtd"
   xmlns:inkscape="http://www.inkscape.org/namespaces/inkscape"
   height="128"
   viewBox="0 0 128 128"
   width="128"
   version="1.1"
   id="svg41"
   sodipodi:docname="jgray.svg"
   inkscape:version="0.92.3 (2405546, 2018-03-11)">
  <metadata
     id="metadata47">
    <rdf:RDF>
      <cc:Work
         rdf:about="">
        <dc:format>image/svg+xml</dc:format>
        <dc:type
           rdf:resource="http://purl.org/dc/dcmitype/StillImage" />
        <dc:title></dc:title>
      </cc:Work>
    </rdf:RDF>
  </metadata>
  <defs
     id="defs45">
    <linearGradient
       id="linearGradient923"
       inkscape:collect="always">
      <stop
         id="stop919"
         offset="0"
         style="stop-color:#c4d9e7;stop-opacity:1" />
      <stop
         id="stop921"
         offset="1"
         style="stop-color:#777474;stop-opacity:1" />
    </linearGradient>
    <linearGradient
       gradientTransform="matrix(2.339111,0,0,2.339111,73.35832,193.17314)"
       gradientUnits="userSpaceOnUse"
       y2="-35.766552"
       x2="49.128231"
       y1="-78.885201"
       x1="47.909615"
       id="linearGradient925"
       xlink:href="#linearGradient923"
       inkscape:collect="always" />
  </defs>
  <sodipodi:namedview
     pagecolor="#ffffff"
     bordercolor="#666666"
     borderopacity="1"
     objecttolerance="10"
     gridtolerance="10"
     guidetolerance="10"
     inkscape:pageopacity="0"
     inkscape:pageshadow="2"
     inkscape:window-width="1600"
     inkscape:window-height="837"
     id="namedview43"
     showgrid="false"
     inkscape:zoom="0.921875"
     inkscape:cx="253.24329"
     inkscape:cy="110.19608"
     inkscape:window-x="0"
     inkscape:window-y="30"
     inkscape:window-maximized="1"
     inkscape:current-layer="svg41" />
  <linearGradient
     id="a"
     gradientUnits="userSpaceOnUse"
     x1="27.122395"
     x2="27.122395"
     y1="56.067867"
     y2="58.713951"
     gradientTransform="translate(0,64)">
    <stop
       offset="0"
       stop-opacity=".27451"
       id="stop2" />
    <stop
       offset="1"
       stop-opacity="0"
       id="stop4" />
  </linearGradient>
  <linearGradient
     id="b">
    <stop
       offset="0"
       stop-opacity=".313726"
       id="stop7" />
    <stop
       offset=".222222"
       stop-opacity=".27451"
       id="stop9" />
    <stop
       offset="1"
       stop-opacity="0"
       id="stop11" />
  </linearGradient>
  <radialGradient
     id="c"
     cx="450.90894"
     cy="189.57936"
     gradientTransform="matrix(3.5e-7,-0.156265,-0.281277,-2e-7,86.400218,191.19067)"
     gradientUnits="userSpaceOnUse"
     r="21.166656"
     xlink:href="#b" />
  <radialGradient
     id="d"
     cx="450.90894"
     cy="189.57936"
     gradientTransform="matrix(-3.5e-7,0.156265,0.281277,2e-7,-22.894146,48.94504)"
     gradientUnits="userSpaceOnUse"
     r="21.166656"
     xlink:href="#b" />
  <radialGradient
     id="e"
     cx="450.90894"
     cy="189.57936"
     gradientTransform="matrix(-3.5e-7,-0.156265,0.281277,-2e-7,-22.894146,191.19067)"
     gradientUnits="userSpaceOnUse"
     r="21.166656"
     xlink:href="#b" />
  <radialGradient
     id="f"
     cx="450.90894"
     cy="189.57936"
     gradientTransform="matrix(3.5e-7,0.156265,-0.281277,2e-7,86.400214,48.945034)"
     gradientUnits="userSpaceOnUse"
     r="21.166656"
     xlink:href="#b" />
  <linearGradient
     id="g"
     gradientUnits="userSpaceOnUse"
     x1="31.753048"
     x2="31.75305"
     y1="64.006126"
     y2="0.50003397"
     gradientTransform="translate(0,64)">
    <stop
       offset="0"
       stop-color="#757575"
       id="stop18" />
    <stop
       offset="1"
       stop-color="#9e9e9e"
       id="stop20" />
  </linearGradient>
  <g
     id="g1018"
     transform="translate(-114.28763)">
    <path
       inkscape:connector-curvature="0"
       style="opacity:0.25;fill:#000000;fill-opacity:1;stroke-width:2.33911109"
       id="path927"
       d="M 165.70148,6.3317458 V 24.898442 c 1.87312,0.383765 12.02449,-0.09139 15.46006,-0.05481 4.65995,0.05481 3.10663,4.696493 3.10663,4.696493 0,0 0.3198,7.53815 0.3198,35.004429 0,45.987286 0.63047,44.799456 -13.77882,44.772046 -12.30775,-0.0274 -14.7565,-3.19801 -8.74426,-9.849847 9.1737,-12.801148 -2.02845,-24.02157 -14.9301,-25.05407 -12.38085,0 -24.76169,0 -24.50585,18.639788 -0.25584,30.874439 31.9709,30.664279 48.52742,30.947529 19.3068,-0.073 35.51611,-3.15231 44.05935,-21.73728 3.0244,-7.83054 3.34421,-71.39771 3.34421,-71.39771 -0.24671,0.219295 -0.24671,-5.966554 2.85079,-5.966554 h 12.3717 l 0.16444,-18.5666964 z m 0,0" />
    <path
       d="M 165.70148,4.3706084 V 22.937304 c 1.87312,0.383765 12.02449,-0.09139 15.46006,-0.05481 4.65995,0.05481 3.10663,4.696492 3.10663,4.696492 0,0 0.3198,7.538151 0.3198,35.004429 0,45.987285 0.63047,44.799455 -13.77882,44.772045 -12.30775,-0.0274 -14.7565,-3.198 -8.74426,-9.849845 9.1737,-12.801148 -2.02845,-24.02157 -14.9301,-25.05407 -12.38085,0 -24.76169,0 -24.50585,18.639787 -0.25584,30.874438 31.9709,30.664288 48.52742,30.947528 19.3068,-0.073 35.51611,-3.15231 44.05935,-21.73727 3.0244,-7.830548 3.34421,-71.397718 3.34421,-71.397718 -0.24671,0.219294 -0.24671,-5.966555 2.85079,-5.966555 h 12.3717 l 0.16444,-18.5666958 z m 0,0"
       id="path33-0"
       style="fill:url(#linearGradient925);fill-opacity:1;stroke:#322627;stroke-width:0.74121732;stroke-miterlimit:4;stroke-dasharray:none;stroke-opacity:1"
       inkscape:connector-curvature="0" />
  </g>
</svg>
