<?xml version="1.0" encoding="UTF-8" standalone="no"?>
<svg
   xmlns:osb="http://www.openswatchbook.org/uri/2009/osb"
   xmlns:dc="http://purl.org/dc/elements/1.1/"
   xmlns:cc="http://creativecommons.org/ns#"
   xmlns:rdf="http://www.w3.org/1999/02/22-rdf-syntax-ns#"
   xmlns:svg="http://www.w3.org/2000/svg"
   xmlns="http://www.w3.org/2000/svg"
   xmlns:xlink="http://www.w3.org/1999/xlink"
   xmlns:sodipodi="http://sodipodi.sourceforge.net/DTD/sodipodi-0.dtd"
   xmlns:inkscape="http://www.inkscape.org/namespaces/inkscape"
   height="128"
   viewBox="0 0 128 128"
   width="128"
   version="1.1"
   id="svg41"
   sodipodi:docname="jgreen.svg"
   inkscape:version="0.92.3 (2405546, 2018-03-11)">
  <metadata
     id="metadata47">
    <rdf:RDF>
      <cc:Work
         rdf:about="">
        <dc:format>image/svg+xml</dc:format>
        <dc:type
           rdf:resource="http://purl.org/dc/dcmitype/StillImage" />
        <dc:title></dc:title>
      </cc:Work>
    </rdf:RDF>
  </metadata>
  <defs
     id="defs45">
    <linearGradient
       osb:paint="solid"
       id="linearGradient6987">
      <stop
         id="stop6985"
         offset="0"
         style="stop-color:#77d2fb;stop-opacity:1;" />
    </linearGradient>
  </defs>
  <sodipodi:namedview
     pagecolor="#ffffff"
     bordercolor="#666666"
     borderopacity="1"
     objecttolerance="10"
     gridtolerance="10"
     guidetolerance="10"
     inkscape:pageopacity="0"
     inkscape:pageshadow="2"
     inkscape:window-width="1600"
     inkscape:window-height="837"
     id="namedview43"
     showgrid="false"
     inkscape:zoom="0.921875"
     inkscape:cx="84.473089"
     inkscape:cy="41.170367"
     inkscape:window-x="0"
     inkscape:window-y="30"
     inkscape:window-maximized="1"
     inkscape:current-layer="svg41" />
  <linearGradient
     id="a"
     gradientUnits="userSpaceOnUse"
     x1="27.122395"
     x2="27.122395"
     y1="56.067867"
     y2="58.713951">
    <stop
       offset="0"
       stop-opacity=".27451"
       id="stop2" />
    <stop
       offset="1"
       stop-opacity="0"
       id="stop4" />
  </linearGradient>
  <linearGradient
     id="b">
    <stop
       offset="0"
       stop-opacity=".313726"
       id="stop7" />
    <stop
       offset=".222222"
       stop-opacity=".27451"
       id="stop9" />
    <stop
       offset="1"
       stop-opacity="0"
       id="stop11" />
  </linearGradient>
  <radialGradient
     id="c"
     cx="450.90894"
     cy="189.57936"
     gradientTransform="matrix(3.5e-7,-0.156265,-0.281277,-2e-7,86.400218,127.19067)"
     gradientUnits="userSpaceOnUse"
     r="21.166656"
     xlink:href="#b" />
  <radialGradient
     id="d"
     cx="450.90894"
     cy="189.57936"
     gradientTransform="matrix(-3.5e-7,0.156265,0.281277,2e-7,-22.894146,-15.05496)"
     gradientUnits="userSpaceOnUse"
     r="21.166656"
     xlink:href="#b" />
  <radialGradient
     id="e"
     cx="450.90894"
     cy="189.57936"
     gradientTransform="matrix(-3.5e-7,-0.156265,0.281277,-2e-7,-22.894146,127.19067)"
     gradientUnits="userSpaceOnUse"
     r="21.166656"
     xlink:href="#b" />
  <radialGradient
     id="f"
     cx="450.90894"
     cy="189.57936"
     gradientTransform="matrix(3.5e-7,0.156265,-0.281277,2e-7,86.400214,-15.054966)"
     gradientUnits="userSpaceOnUse"
     r="21.166656"
     xlink:href="#b" />
  <linearGradient
     id="g"
     gradientUnits="userSpaceOnUse"
     x1="31.753048"
     x2="31.75305"
     y1="64.006126"
     y2="0.50003397">
    <stop
       offset="0"
       stop-color="#66bb6a"
       id="stop18" />
    <stop
       offset="1"
       stop-color="#81c784"
       id="stop20" />
  </linearGradient>
  <g
     id="g1074"
     transform="translate(237.01694,10.305084)">
    <path
       d="m -185.60309,-3.97334 v 18.56669 c 1.87311,0.38377 12.02448,-0.0914 15.46005,-0.0548 4.65995,0.0548 3.10663,4.69649 3.10663,4.69649 0,0 0.3198,7.53815 0.3198,35.00443 0,45.98729 0.63047,44.79946 -13.77882,44.77205 -12.30775,-0.0275 -14.7565,-3.19801 -8.74426,-9.84985 9.1737,-12.80115 -2.02844,-24.02157 -14.9301,-25.05407 -12.38085,0 -24.76168,0 -24.50584,18.63979 -0.25584,30.87444 31.97089,30.66428 48.52741,30.94753 19.3068,-0.0731 35.51611,-3.15231 44.05935,-21.73728 3.0244,-7.83054 3.34421,-71.39771 3.34421,-71.39771 -0.24671,0.21929 -0.24671,-5.96656 2.85079,-5.96656 h 12.3717 l 0.16444,-18.56669 z m 0,0"
       id="path927"
       style="opacity:0.25;fill:#000000;fill-opacity:1;stroke-width:2.33911109"
       inkscape:connector-curvature="0" />
    <path
       inkscape:connector-curvature="0"
       style="fill:#92df00;fill-opacity:1;stroke:#4b7300;stroke-width:0.74121732;stroke-miterlimit:4;stroke-dasharray:none;stroke-opacity:1"
       id="path33-0"
       d="m -185.60309,-5.93448 v 18.5667 c 1.87311,0.38376 12.02448,-0.0914 15.46005,-0.0548 4.65995,0.0548 3.10663,4.69649 3.10663,4.69649 0,0 0.3198,7.53815 0.3198,35.00443 0,45.98729 0.63047,44.79946 -13.77882,44.77205 -12.30775,-0.0275 -14.7565,-3.198 -8.74426,-9.84985 9.1737,-12.80115 -2.02844,-24.02157 -14.9301,-25.05407 -12.38085,0 -24.76168,0 -24.50584,18.63979 -0.25584,30.87444 31.97089,30.66429 48.52741,30.94753 19.3068,-0.073 35.51611,-3.15231 44.05935,-21.73727 3.0244,-7.83055 3.34421,-71.39772 3.34421,-71.39772 -0.24671,0.21929 -0.24671,-5.96655 2.85079,-5.96655 h 12.3717 l 0.16444,-18.5667 z m 0,0" />
  </g>
</svg>
