<?xml version="1.0" encoding="UTF-8" standalone="no"?>
<svg
   xmlns:dc="http://purl.org/dc/elements/1.1/"
   xmlns:cc="http://creativecommons.org/ns#"
   xmlns:rdf="http://www.w3.org/1999/02/22-rdf-syntax-ns#"
   xmlns:svg="http://www.w3.org/2000/svg"
   xmlns="http://www.w3.org/2000/svg"
   xmlns:xlink="http://www.w3.org/1999/xlink"
   xmlns:sodipodi="http://sodipodi.sourceforge.net/DTD/sodipodi-0.dtd"
   xmlns:inkscape="http://www.inkscape.org/namespaces/inkscape"
   height="128"
   viewBox="0 0 128 128"
   width="128"
   version="1.1"
   id="svg41"
   sodipodi:docname="jyellow.svg"
   inkscape:version="0.92.3 (2405546, 2018-03-11)">
  <metadata
     id="metadata47">
    <rdf:RDF>
      <cc:Work
         rdf:about="">
        <dc:format>image/svg+xml</dc:format>
        <dc:type
           rdf:resource="http://purl.org/dc/dcmitype/StillImage" />
        <dc:title></dc:title>
      </cc:Work>
    </rdf:RDF>
  </metadata>
  <defs
     id="defs45">
    <linearGradient
       inkscape:collect="always"
       id="linearGradient923">
      <stop
         style="stop-color:#ffa501;stop-opacity:1"
         offset="0"
         id="stop919" />
      <stop
         style="stop-color:#fa6e0f;stop-opacity:1"
         offset="1"
         id="stop921" />
    </linearGradient>
    <linearGradient
       inkscape:collect="always"
       xlink:href="#linearGradient923"
       id="linearGradient925"
       x1="47.909615"
       y1="-78.885201"
       x2="49.128231"
       y2="-35.766552"
       gradientUnits="userSpaceOnUse"
       gradientTransform="matrix(2.3854636,0,0,2.3854636,56.514062,261.25173)" />
  </defs>
  <sodipodi:namedview
     pagecolor="#ffffff"
     bordercolor="#666666"
     borderopacity="1"
     objecttolerance="10"
     gridtolerance="10"
     guidetolerance="10"
     inkscape:pageopacity="0"
     inkscape:pageshadow="2"
     inkscape:window-width="1600"
     inkscape:window-height="837"
     id="namedview43"
     showgrid="false"
     inkscape:zoom="0.921875"
     inkscape:cx="57.839681"
     inkscape:cy="-94.633815"
     inkscape:window-x="0"
     inkscape:window-y="30"
     inkscape:window-maximized="1"
     inkscape:current-layer="svg41" />
  <linearGradient
     id="a"
     gradientUnits="userSpaceOnUse"
     x1="27.122395"
     x2="27.122395"
     y1="56.067867"
     y2="58.713951">
    <stop
       offset="0"
       stop-opacity=".27451"
       id="stop2" />
    <stop
       offset="1"
       stop-opacity="0"
       id="stop4" />
  </linearGradient>
  <linearGradient
     id="b">
    <stop
       offset="0"
       stop-opacity=".313726"
       id="stop7" />
    <stop
       offset=".222222"
       stop-opacity=".27451"
       id="stop9" />
    <stop
       offset="1"
       stop-opacity="0"
       id="stop11" />
  </linearGradient>
  <radialGradient
     id="c"
     cx="450.90894"
     cy="189.57936"
     gradientTransform="matrix(3.5e-7,-0.156265,-0.281277,-2e-7,86.400218,127.19067)"
     gradientUnits="userSpaceOnUse"
     r="21.166656"
     xlink:href="#b" />
  <radialGradient
     id="d"
     cx="450.90894"
     cy="189.57936"
     gradientTransform="matrix(-3.5e-7,0.156265,0.281277,2e-7,-22.894146,-15.05496)"
     gradientUnits="userSpaceOnUse"
     r="21.166656"
     xlink:href="#b" />
  <radialGradient
     id="e"
     cx="450.90894"
     cy="189.57936"
     gradientTransform="matrix(-3.5e-7,-0.156265,0.281277,-2e-7,-22.894146,127.19067)"
     gradientUnits="userSpaceOnUse"
     r="21.166656"
     xlink:href="#b" />
  <radialGradient
     id="f"
     cx="450.90894"
     cy="189.57936"
     gradientTransform="matrix(3.5e-7,0.156265,-0.281277,2e-7,86.400214,-15.054966)"
     gradientUnits="userSpaceOnUse"
     r="21.166656"
     xlink:href="#b" />
  <linearGradient
     id="g"
     gradientUnits="userSpaceOnUse"
     x1="31.753048"
     x2="31.75305"
     y1="64.006126"
     y2="-4.79214"
     gradientTransform="translate(13.016949,-86.508475)">
    <stop
       offset="0"
       stop-color="#ffa726"
       id="stop18" />
    <stop
       offset="1"
       stop-color="#ffb74d"
       id="stop20" />
  </linearGradient>
  <g
     id="g931"
     transform="matrix(0.98056871,0,0,0.98056871,-96.345233,-63.002131)">
    <path
       d="m 150.68713,70.707821 v 18.93462 c 1.91023,0.39137 12.26277,-0.0932 15.76642,-0.0559 4.75229,0.0559 3.16819,4.78956 3.16819,4.78956 0,0 0.32614,7.687529 0.32614,35.698089 0,46.89859 0.64296,45.68722 -14.05187,45.65927 -12.55164,-0.028 -15.04892,-3.26138 -8.91754,-10.04504 9.35549,-13.05482 -2.06864,-24.49759 -15.22596,-25.55055 -12.62619,0 -25.25237,0 -24.99146,19.00916 -0.26091,31.48626 32.60444,31.27194 49.48905,31.5608 19.68939,-0.0745 36.21991,-3.21478 44.93245,-22.16803 3.08433,-7.98572 3.41048,-72.812559 3.41048,-72.812559 -0.2516,0.22364 -0.2516,-6.08479 2.90728,-6.08479 h 12.61686 l 0.1677,-18.93462 z m 0,0"
       id="path927"
       style="opacity:0.25;fill:#000000;fill-opacity:1;stroke-width:2.38546371"
       inkscape:connector-curvature="0" />
    <path
       inkscape:connector-curvature="0"
       style="fill:url(#linearGradient925);fill-opacity:1;stroke:#803808;stroke-width:0.75590551;stroke-miterlimit:4;stroke-dasharray:none;stroke-opacity:1"
       id="path33"
       d="m 150.68713,68.707821 v 18.93462 c 1.91023,0.39137 12.26277,-0.0932 15.76642,-0.0559 4.75229,0.0559 3.16819,4.78956 3.16819,4.78956 0,0 0.32614,7.687529 0.32614,35.698089 0,46.89859 0.64296,45.68722 -14.05187,45.65927 -12.55164,-0.028 -15.04892,-3.26138 -8.91754,-10.04504 9.35549,-13.05482 -2.06864,-24.49759 -15.22596,-25.55055 -12.62619,0 -25.25237,0 -24.99146,19.00916 -0.26091,31.48626 32.60444,31.27194 49.48905,31.5608 19.68939,-0.0745 36.21991,-3.21478 44.93245,-22.16803 3.08433,-7.98572 3.41048,-72.812559 3.41048,-72.812559 -0.2516,0.22364 -0.2516,-6.08479 2.90728,-6.08479 h 12.61686 l 0.1677,-18.93462 z m 0,0" />
  </g>
</svg>
