<?xml version="1.0" encoding="UTF-8" standalone="no"?>
<svg
   xmlns:dc="http://purl.org/dc/elements/1.1/"
   xmlns:cc="http://creativecommons.org/ns#"
   xmlns:rdf="http://www.w3.org/1999/02/22-rdf-syntax-ns#"
   xmlns:svg="http://www.w3.org/2000/svg"
   xmlns="http://www.w3.org/2000/svg"
   xmlns:xlink="http://www.w3.org/1999/xlink"
   xmlns:sodipodi="http://sodipodi.sourceforge.net/DTD/sodipodi-0.dtd"
   xmlns:inkscape="http://www.inkscape.org/namespaces/inkscape"
   height="128"
   viewBox="0 0 95.999997 95.999997"
   width="128"
   version="1.1"
   id="svg62"
   sodipodi:docname="keepassx.svg"
   inkscape:version="0.92.3 (2405546, 2018-03-11)">
  <metadata
     id="metadata68">
    <rdf:RDF>
      <cc:Work
         rdf:about="">
        <dc:format>image/svg+xml</dc:format>
        <dc:type
           rdf:resource="http://purl.org/dc/dcmitype/StillImage" />
        <dc:title></dc:title>
      </cc:Work>
    </rdf:RDF>
  </metadata>
  <defs
     id="defs66">
    <linearGradient
       inkscape:collect="always"
       id="linearGradient1092">
      <stop
         style="stop-color:#f3f5f7;stop-opacity:1"
         offset="0"
         id="stop1088" />
      <stop
         style="stop-color:#ffffff;stop-opacity:1"
         offset="1"
         id="stop1090" />
    </linearGradient>
    <linearGradient
       id="linearGradient1101"
       inkscape:collect="always">
      <stop
         id="stop1097"
         offset="0"
         style="stop-color:#86e215;stop-opacity:1" />
      <stop
         id="stop1099"
         offset="1"
         style="stop-color:#1a8516;stop-opacity:1" />
    </linearGradient>
    <linearGradient
       id="linearGradient1093"
       inkscape:collect="always">
      <stop
         id="stop1089"
         offset="0"
         style="stop-color:#e3e9f1;stop-opacity:1" />
      <stop
         id="stop1091"
         offset="1"
         style="stop-color:#a3b7ca;stop-opacity:1" />
    </linearGradient>
    <linearGradient
       inkscape:collect="always"
       id="linearGradient2059">
      <stop
         style="stop-color:#ffffff;stop-opacity:1"
         offset="0"
         id="stop2055" />
      <stop
         style="stop-color:#f2f4f7;stop-opacity:1"
         offset="1"
         id="stop2057" />
    </linearGradient>
    <linearGradient
       gradientUnits="userSpaceOnUse"
       y2="293.03616"
       x2="18.566639"
       y1="266.01086"
       x1="16.43396"
       id="linearGradient1095"
       xlink:href="#linearGradient1093"
       inkscape:collect="always"
       gradientTransform="matrix(2.8346456,0,0,2.8346456,-216.01157,-986.00596)" />
    <linearGradient
       gradientUnits="userSpaceOnUse"
       y2="292.28021"
       x2="15.586106"
       y1="269.0347"
       x1="15.067764"
       id="linearGradient1103"
       xlink:href="#linearGradient1101"
       inkscape:collect="always"
       gradientTransform="matrix(2.8346456,0,0,2.8346456,-216.01157,-986.00596)" />
    <linearGradient
       inkscape:collect="always"
       xlink:href="#linearGradient1092"
       id="linearGradient1094"
       x1="-104.54099"
       y1="-188.74818"
       x2="-104.54099"
       y2="-212.33438"
       gradientUnits="userSpaceOnUse"
       gradientTransform="matrix(1.7129556,0,0,1.7129556,13.014836,151.81571)" />
  </defs>
  <sodipodi:namedview
     pagecolor="#ffffff"
     bordercolor="#666666"
     borderopacity="1"
     objecttolerance="10"
     gridtolerance="10"
     guidetolerance="10"
     inkscape:pageopacity="0"
     inkscape:pageshadow="2"
     inkscape:window-width="1529"
     inkscape:window-height="837"
     id="namedview64"
     showgrid="false"
     units="px"
     inkscape:zoom="2.765625"
     inkscape:cx="64.811794"
     inkscape:cy="88.647846"
     inkscape:window-x="71"
     inkscape:window-y="27"
     inkscape:window-maximized="1"
     inkscape:current-layer="svg62" />
  <linearGradient
     id="a"
     gradientUnits="userSpaceOnUse"
     x1="31.752541"
     x2="31.752541"
     y1="56.067837"
     y2="58.713921">
    <stop
       offset="0"
       stop-opacity=".275"
       id="stop2" />
    <stop
       offset="1"
       stop-opacity="0"
       id="stop4" />
  </linearGradient>
  <linearGradient
     id="b">
    <stop
       offset="0"
       stop-opacity=".314"
       id="stop7" />
    <stop
       offset=".222"
       stop-opacity=".275"
       id="stop9" />
    <stop
       offset="1"
       stop-opacity="0"
       id="stop11" />
  </linearGradient>
  <radialGradient
     id="c"
     cx="450.909"
     cy="189.57899"
     gradientTransform="matrix(0,-0.15626,-0.28128,0,106.246,127.19)"
     gradientUnits="userSpaceOnUse"
     r="21.167"
     xlink:href="#b" />
  <radialGradient
     id="d"
     cx="450.909"
     cy="189.57899"
     gradientTransform="matrix(0,0.15626,0.28128,0,-42.409,-15.055)"
     gradientUnits="userSpaceOnUse"
     r="21.167"
     xlink:href="#b" />
  <radialGradient
     id="e"
     cx="450.909"
     cy="189.57899"
     gradientTransform="matrix(0,-0.15626,0.28128,0,-42.409,127.19)"
     gradientUnits="userSpaceOnUse"
     r="21.167"
     xlink:href="#b" />
  <radialGradient
     id="f"
     cx="450.909"
     cy="189.57899"
     gradientTransform="matrix(0,0.15626,-0.28128,0,106.246,-15.055)"
     gradientUnits="userSpaceOnUse"
     r="21.167"
     xlink:href="#b" />
  <linearGradient
     id="g"
     gradientUnits="userSpaceOnUse"
     x1="31.752541"
     x2="31.752541"
     y1="56.067837"
     y2="5.7929382">
    <stop
       offset="0"
       stop-color="#7cb342"
       id="stop18" />
    <stop
       offset="1"
       stop-color="#8bc34a"
       id="stop20" />
  </linearGradient>
  <linearGradient
     id="h"
     gradientTransform="matrix(0.02339109,0.02339109,-0.02339109,0.02339109,-109.02069,-248.03524)"
     gradientUnits="userSpaceOnUse"
     x1="1352.427"
     x2="786.742"
     y1="1220.093"
     y2="654.40698"
     xlink:href="#linearGradient2059">
    <stop
       offset="0"
       stop-color="#bdbdbd"
       id="stop23" />
    <stop
       offset="1"
       stop-color="#e0e0e0"
       id="stop25" />
  </linearGradient>
  <flowRoot
     xml:space="preserve"
     id="flowRoot3363"
     style="font-style:normal;font-variant:normal;font-weight:normal;font-stretch:normal;font-size:1px;line-height:125%;font-family:Cantarell;-inkscape-font-specification:Cantarell;text-align:start;letter-spacing:0px;word-spacing:0px;text-anchor:start;fill:#000000;fill-opacity:1;stroke:none;stroke-width:0.49886623px;stroke-linecap:butt;stroke-linejoin:miter;stroke-opacity:1"
     transform="matrix(1.0738636,0,0,1.0738636,-215.78737,-1270.2506)"><flowRegion
       style="stroke-width:0.49886623px"
       id="flowRegion3365"><rect
         style="stroke-width:0.49886623px"
         id="rect3367"
         width="132.22643"
         height="99.984909"
         x="-101.43397"
         y="-49.992455" /></flowRegion><flowPara
       style="stroke-width:0.49886623px"
       id="flowPara3369" /></flowRoot>  <g
     style="font-style:normal;font-variant:normal;font-weight:bold;font-stretch:normal;font-size:5.81003714px;line-height:125%;font-family:Ubuntu;-inkscape-font-specification:'Sans Bold';text-align:start;letter-spacing:0px;word-spacing:0px;text-anchor:start;fill:#167efb;fill-opacity:1;stroke:none;stroke-width:0.49886623"
     id="text3384"
     transform="matrix(1.0738636,0,0,1.0738636,-215.78737,-1270.2506)" />
  <g
     id="g1101"
     transform="translate(216.01157,240.11624)">
    <rect
       ry="44.263927"
       rx="44.263927"
       y="-235.64409"
       x="-212.2755"
       height="88.527855"
       width="88.527855"
       id="rect1950"
       style="opacity:0.25;fill:#000000;fill-opacity:1;stroke:none;stroke-width:0.51020408" />
    <rect
       style="opacity:1;fill:#666666;fill-opacity:1;stroke:none;stroke-width:0.51020408"
       id="rect3036"
       width="88.527855"
       height="88.527855"
       x="-212.2755"
       y="-237.11626"
       rx="44.263927"
       ry="44.263927" />
    <rect
       style="opacity:1;fill:url(#linearGradient1095);fill-opacity:1;stroke:none;stroke-width:0.51020408"
       id="rect3346"
       width="87.473961"
       height="87.473961"
       x="-211.74855"
       y="-236.58926"
       rx="43.73698"
       ry="43.73698" />
    <rect
       ry="36.359661"
       rx="36.359661"
       y="-229.2119"
       x="-204.37123"
       height="72.719315"
       width="72.719315"
       id="rect3362"
       style="fill:url(#linearGradient1103);fill-opacity:1;stroke:#0f4d0c;stroke-width:0.51020408;stroke-opacity:1" />
    <path
       inkscape:connector-curvature="0"
       style="fill:url(#linearGradient1094);fill-opacity:1;stroke-width:1.71295536"
       id="path48"
       d="m -159.92357,-213.94636 a 13.561468,13.561468 0 0 0 -9.61654,3.99461 13.558041,13.558041 0 0 0 -3.98089,9.10607 l -9.77585,-9.77584 c -1.77291,-1.7729 -4.27554,-2.13434 -5.6065,-0.80166 -1.33268,1.33097 -0.97638,3.8336 0.80166,5.6065 l 13.62484,13.62999 -12.68785,12.68615 a 4.5273412,4.5273412 0 0 0 0,6.4116 4.5102117,4.5102117 0 0 0 5.50715,0.69545 l -1.49884,-1.49884 a 1.1271246,1.1271246 0 0 1 0,-1.60675 l 0.79653,-0.79652 a 1.1271246,1.1271246 0 0 1 1.60675,0 l 1.59818,1.5999 1.60676,-1.5999 -0.80509,-0.80167 a 1.1391154,1.1391154 0 0 1 0,-1.60675 l 0.80509,-0.79652 a 1.1185599,1.1185599 0 0 1 1.59819,0 l 0.80338,0.79652 1.60502,-1.59819 -1.60502,-1.60674 a 1.1305506,1.1305506 0 0 1 0,-1.59819 l 0.80337,-0.80509 a 1.1305506,1.1305506 0 0 1 1.59818,0 l 1.60676,1.60674 3.07132,-3.07131 12.01642,12.01124 c 1.7746,1.78146 4.27552,2.13433 5.60821,0.80336 1.33096,-1.33268 0.96953,-3.83529 -0.80338,-5.6082 l -8.16396,-8.16224 a 13.549478,13.549478 0 0 0 9.10094,-3.98776 13.570033,13.570033 0 0 0 0,-19.23135 13.549478,13.549478 0 0 0 -9.61483,-3.99461 z m 1.60503,5.20739 c 1.74039,0 3.47389,0.66119 4.80486,1.99216 a 6.7833034,6.7833034 0 0 1 0,9.61483 6.7833034,6.7833034 0 0 1 -9.61484,0 6.7833034,6.7833034 0 0 1 0,-9.61483 6.7781645,6.7781645 0 0 1 4.80998,-1.99389 z m 0,0" />
  </g>
</svg>
