<?xml version="1.0" encoding="UTF-8" standalone="no"?>
<svg
   xmlns:osb="http://www.openswatchbook.org/uri/2009/osb"
   xmlns:dc="http://purl.org/dc/elements/1.1/"
   xmlns:cc="http://creativecommons.org/ns#"
   xmlns:rdf="http://www.w3.org/1999/02/22-rdf-syntax-ns#"
   xmlns:svg="http://www.w3.org/2000/svg"
   xmlns="http://www.w3.org/2000/svg"
   xmlns:xlink="http://www.w3.org/1999/xlink"
   xmlns:sodipodi="http://sodipodi.sourceforge.net/DTD/sodipodi-0.dtd"
   xmlns:inkscape="http://www.inkscape.org/namespaces/inkscape"
   height="128"
   viewBox="0 0 128 128"
   width="128"
   version="1.1"
   id="svg73"
   sodipodi:docname="kid3.svg"
   inkscape:version="0.92.4 (5da689c313, 2019-01-14)">
  <metadata
     id="metadata79">
    <rdf:RDF>
      <cc:Work
         rdf:about="">
        <dc:format>image/svg+xml</dc:format>
        <dc:type
           rdf:resource="http://purl.org/dc/dcmitype/StillImage" />
        <dc:title />
      </cc:Work>
    </rdf:RDF>
  </metadata>
  <defs
     id="defs77">
    <linearGradient
       inkscape:collect="always"
       id="linearGradient858">
      <stop
         style="stop-color:#afa8fd;stop-opacity:1"
         offset="0"
         id="stop854" />
      <stop
         style="stop-color:#756ad9;stop-opacity:1"
         offset="1"
         id="stop856" />
    </linearGradient>
    <linearGradient
       id="linearGradient6987"
       osb:paint="solid">
      <stop
         style="stop-color:#77d2fb;stop-opacity:1;"
         offset="0"
         id="stop6985" />
    </linearGradient>
    <linearGradient
       inkscape:collect="always"
       xlink:href="#linearGradient858"
       id="linearGradient860"
       x1="46.702999"
       y1="13.161426"
       x2="96.483437"
       y2="113.50041"
       gradientUnits="userSpaceOnUse" />
  </defs>
  <sodipodi:namedview
     pagecolor="#ffffff"
     bordercolor="#666666"
     borderopacity="1"
     objecttolerance="10"
     gridtolerance="10"
     guidetolerance="10"
     inkscape:pageopacity="0"
     inkscape:pageshadow="2"
     inkscape:window-width="1600"
     inkscape:window-height="838"
     id="namedview75"
     showgrid="false"
     inkscape:zoom="0.65186406"
     inkscape:cx="-188.60034"
     inkscape:cy="-125.98826"
     inkscape:window-x="-8"
     inkscape:window-y="-8"
     inkscape:window-maximized="1"
     inkscape:current-layer="svg73" />
  <linearGradient
     id="a">
    <stop
       offset="0"
       stop-opacity=".313726"
       id="stop2" />
    <stop
       offset=".222222"
       stop-opacity=".27451"
       id="stop4" />
    <stop
       offset="1"
       stop-opacity="0"
       id="stop6" />
  </linearGradient>
  <radialGradient
     id="b"
     cx="450.90894"
     cy="189.57936"
     gradientTransform="matrix(3.5e-7,-0.156265,-0.281277,-2e-7,76.4774,191.19066)"
     gradientUnits="userSpaceOnUse"
     r="21.166656"
     xlink:href="#a" />
  <radialGradient
     id="c"
     cx="450.90894"
     cy="189.57936"
     gradientTransform="matrix(-3.5e-7,0.156265,0.281277,2e-7,-38.109141,48.945036)"
     gradientUnits="userSpaceOnUse"
     r="21.166656"
     xlink:href="#a" />
  <radialGradient
     id="d"
     cx="450.90894"
     cy="189.57936"
     gradientTransform="matrix(-3.5e-7,-0.156265,0.281277,-2e-7,-38.109141,191.19066)"
     gradientUnits="userSpaceOnUse"
     r="21.166656"
     xlink:href="#a" />
  <radialGradient
     id="e"
     cx="450.90894"
     cy="189.57936"
     gradientTransform="matrix(3.5e-7,0.156265,-0.281277,2e-7,76.477396,48.945035)"
     gradientUnits="userSpaceOnUse"
     r="21.166656"
     xlink:href="#a" />
  <linearGradient
     id="f"
     gradientTransform="matrix(0.0267201,0,0,0.125012,12.361869,90.877567)"
     gradientUnits="userSpaceOnUse"
     x1="255.32306"
     x2="255.32304"
     y1="233.5"
     y2="254.66666">
    <stop
       offset="0"
       stop-opacity=".27451"
       id="stop13" />
    <stop
       offset="1"
       stop-opacity="0"
       id="stop15" />
  </linearGradient>
  <linearGradient
     id="g"
     gradientUnits="userSpaceOnUse"
     x1="31.753056"
     x2="31.753056"
     y1="56.067898"
     y2="5.7922249"
     gradientTransform="translate(0,64)">
    <stop
       offset="0"
       stop-color="#42a5f5"
       id="stop18" />
    <stop
       offset="1"
       stop-color="#64b5f6"
       id="stop20" />
  </linearGradient>
  <linearGradient
     id="h"
     gradientTransform="matrix(0.19314337,0.19314337,-0.19314337,0.19314337,-231.93305,12.003748)"
     gradientUnits="userSpaceOnUse"
     x1="348.27948"
     x2="183.64143"
     y1="49.912701"
     y2="-114.72533">
    <stop
       offset="0"
       stop-color="#ff7043"
       id="stop23" />
    <stop
       offset="1"
       stop-color="#ff8a65"
       id="stop25" />
  </linearGradient>
  <linearGradient
     id="i"
     gradientUnits="userSpaceOnUse"
     x1="26.460875"
     x2="26.460875"
     y1="18.030363"
     y2="14.061231"
     gradientTransform="translate(0,64)">
    <stop
       offset="0"
       stop-color="#9e9e9e"
       id="stop28" />
    <stop
       offset="1"
       stop-color="#e0e0e0"
       id="stop30" />
  </linearGradient>
  <circle
     style="opacity:0.25;fill:#000000;fill-opacity:1;fill-rule:nonzero;stroke:none;stroke-width:0.71076;stroke-linecap:round;stroke-miterlimit:4;stroke-dasharray:0.17768999, 0.17768999;stroke-dashoffset:0;stroke-opacity:1"
     id="circle831-0"
     cx="64"
     cy="64.940269"
     r="59.059711" />
  <circle
     r="59.059711"
     cy="63.059731"
     cx="64"
     id="circle3590-0"
     style="opacity:1;fill:url(#linearGradient860);fill-opacity:1;fill-rule:nonzero;stroke:none;stroke-width:0.71076;stroke-linecap:round;stroke-miterlimit:4;stroke-dasharray:0.17768999, 0.17768998999999999;stroke-dashoffset:0;stroke-opacity:1" />
  <path
     sodipodi:nodetypes="ccscccssscccssccccccc"
     inkscape:connector-curvature="0"
     id="path906"
     d="m 40.53387,100.9652 c 0,0 5.75318,0.0858 9.67579,-3.69056 3.92263,-3.77639 2.83212,-7.93735 2.94934,-12.07574 0.18803,-6.6387 -0.39524,-32.09775 -0.39524,-32.09775 0,0 -0.0238,-2.51335 2.53501,-3.02359 3.04134,-0.61447 29.69145,-5.75818 29.69145,-5.75818 0,0 1.83055,-0.42917 1.83055,1.28738 0,1.71655 0.51579,23.66271 -0.17435,27.03553 -0.22956,1.1218 -1.65053,1.83148 -2.78941,2.05984 -3.56447,0.71471 -7.46739,0.63666 -11.33201,3.43306 -5.18836,4.36123 -3.10622,12.04516 2.27312,14.78086 6.57953,2.43443 15.05511,-0.98423 16.03244,-8.08634 0.43584,-2.14567 0.80399,-37.95054 0.2615,-56.645818 -0.0268,-0.912 -0.61018,-1.974047 -2.09206,-1.802381 -1.48188,0.171591 -37.83148,7.381115 -37.83148,7.381115 0,0 -2.17923,0.600794 -2.35357,2.574844 -0.17431,1.97401 -0.45673,43.28942 -0.45673,43.28942 0,0 0.19525,2.11306 -2.59419,2.62802 -2.78941,0.51496 -7.76166,0.61073 -11.332,3.51889 -6.74319,6.40078 -2.33927,15.38892 6.10184,15.1914 z"
     style="fill:#000000;fill-opacity:1;stroke:none;stroke-width:0.80848438px;stroke-linecap:butt;stroke-linejoin:miter;stroke-opacity:1;opacity:0.25" />
  <path
     style="fill:#fcfcff;fill-opacity:1;stroke:none;stroke-width:0.80848438px;stroke-linecap:butt;stroke-linejoin:miter;stroke-opacity:1"
     d="m 40.53387,98.9652 c 0,0 5.75318,0.0858 9.67579,-3.69056 3.92263,-3.77639 2.83212,-7.93735 2.94934,-12.07574 0.18803,-6.6387 -0.39524,-32.09775 -0.39524,-32.09775 0,0 -0.0238,-2.51335 2.53501,-3.02359 3.04134,-0.61447 29.69145,-5.75818 29.69145,-5.75818 0,0 1.83055,-0.42917 1.83055,1.28738 0,1.71655 0.51579,23.66271 -0.17435,27.03553 -0.22956,1.1218 -1.65053,1.83148 -2.78941,2.05984 -3.56447,0.71471 -7.46739,0.63666 -11.33201,3.43306 -5.18836,4.36123 -3.10622,12.04516 2.27312,14.78086 6.57953,2.43443 15.05511,-0.98423 16.03244,-8.08634 0.43584,-2.14567 0.80399,-37.95054 0.2615,-56.645818 -0.0268,-0.912 -0.61018,-1.974047 -2.09206,-1.802381 -1.48188,0.171591 -37.83148,7.381115 -37.83148,7.381115 0,0 -2.17923,0.600794 -2.35357,2.574844 -0.17431,1.97401 -0.45673,43.28942 -0.45673,43.28942 0,0 0.19525,2.11306 -2.59419,2.62802 -2.78941,0.51496 -7.76166,0.61073 -11.332,3.51889 -6.74319,6.40078 -2.33927,15.38892 6.10184,15.1914 z"
     id="path4534-9"
     inkscape:connector-curvature="0"
     sodipodi:nodetypes="ccscccssscccssccccccc" />
  <path
     inkscape:connector-curvature="0"
     id="path904"
     d="m 53.75726,33.283233 c -0.15259,0.0038 -0.30606,0.0155 -0.45918,0.03737 l -9.77617,1.400219 c -0.84577,0.116668 -1.62698,0.507101 -2.2278,1.107904 L 28.72285,48.40533 c -1.53991,1.53408 -1.53991,4.02407 0,5.55815 l 8.38262,8.38263 c 1.53408,1.53992 4.02408,1.53992 5.55816,0 L 55.24024,49.77618 c 0.6008,-0.60081 0.99122,-1.38201 1.10789,-2.22781 l 1.40022,-9.77616 c 0.16916,-1.18994 -0.21603,-2.391835 -1.03848,-3.260953 -0.0292,-0.02918 -0.0581,-0.05897 -0.0814,-0.08809 -0.76558,-0.755382 -1.80303,-1.166093 -2.87118,-1.139931 z m -1.99955,3.063397 c 0.75684,0 1.51395,0.28991 2.09432,0.8703 1.16077,1.16077 1.16077,3.02787 0,4.18864 -1.16075,1.16077 -3.02785,1.16077 -4.18864,0 -1.16076,-1.16077 -1.16076,-3.02787 0,-4.18864 0.5804,-0.58039 1.33749,-0.8703 2.09432,-0.8703 z"
     style="fill:#000000;fill-opacity:1;stroke-width:1.49325359;opacity:0.25" />
  <path
     style="fill:#342c80;fill-opacity:1;stroke-width:1.49325359"
     d="m 53.75726,31.283233 c -0.15259,0.0038 -0.30606,0.0155 -0.45918,0.03737 l -9.77617,1.400219 c -0.84577,0.116668 -1.62698,0.507101 -2.2278,1.107904 L 28.72285,46.40533 c -1.53991,1.53408 -1.53991,4.02407 0,5.55815 l 8.38262,8.38263 c 1.53408,1.53992 4.02408,1.53992 5.55816,0 L 55.24024,47.77618 c 0.6008,-0.60081 0.99122,-1.38201 1.10789,-2.22781 l 1.40022,-9.77616 c 0.16916,-1.18994 -0.21603,-2.391835 -1.03848,-3.260953 -0.0292,-0.02918 -0.0581,-0.05897 -0.0814,-0.08809 -0.76558,-0.755382 -1.80303,-1.166093 -2.87118,-1.139931 z m -1.99955,3.063397 c 0.75684,0 1.51395,0.28991 2.09432,0.8703 1.16077,1.16077 1.16077,3.02787 0,4.18864 -1.16075,1.16077 -3.02785,1.16077 -4.18864,0 -1.16076,-1.16077 -1.16076,-3.02787 0,-4.18864 0.5804,-0.58039 1.33749,-0.8703 2.09432,-0.8703 z"
     id="path2759"
     inkscape:connector-curvature="0" />
  <path
     sodipodi:nodetypes="sccccs"
     inkscape:connector-curvature="0"
     id="path842"
     d="m 51.75771,34.929922 c -0.75683,0 -1.5153,0.29071 -2.0957,0.8711 -1.16076,1.16077 -1.16076,3.02868 0,4.18945 1.16079,1.16077 3.0287,1.16077 4.18945,0 1.16077,-1.16077 1.16077,-3.02868 0,-4.18945 -0.58037,-0.58039 -1.33691,-0.8711 -2.09375,-0.8711 z"
     style="opacity:0.25;fill:#000000;fill-opacity:1;stroke-width:1.49325359" />
  <path
     style="fill:#fcfcff;fill-opacity:1;stroke-width:1.49325359"
     d="m 51.75771,34.34663 c -0.75683,0 -1.5153,0.29071 -2.0957,0.8711 -1.16076,1.16077 -1.16076,3.02868 0,4.18945 1.16079,1.16077 3.0287,1.16077 4.18945,0 1.16077,-1.16077 1.16077,-3.02868 0,-4.18945 -0.58037,-0.58039 -1.33691,-0.8711 -2.09375,-0.8711 z"
     id="path883"
     inkscape:connector-curvature="0"
     sodipodi:nodetypes="sccccs" />
  <path
     style="fill:#fcfcff;fill-opacity:1;stroke-width:0.0178226"
     d="m 43.273793,51.457792 c -0.074,0.02773 -0.198282,0.04468 -0.335209,0.04572 -0.06386,4.43e-4 -0.492693,0.02195 -0.952959,0.04771 -2.600773,0.145533 -4.774579,0.244249 -5.604372,0.254504 -0.386256,0.0048 -0.551107,-0.01262 -0.653733,-0.069 -0.15221,-0.08362 -0.243274,-0.285062 -0.221554,-0.490136 0.0052,-0.04911 0.27997,-1.605045 0.610602,-3.457628 0.330618,-1.852584 0.607175,-3.417929 0.614588,-3.478548 0.01701,-0.139283 0.05301,-0.254623 0.103789,-0.332568 0.05691,-0.08732 0.121083,-0.105396 0.215691,-0.06074 0.07227,0.03411 0.1102,0.0766 0.926112,1.037516 l 0.850776,1.001945 3.006832,-2.551596 3.006842,-2.551598 0.0769,-0.0083 c 0.08585,-0.0092 0.165502,0.02074 0.27049,0.101718 0.04711,0.03633 0.468046,0.525325 1.266458,1.471217 l 1.195892,1.416796 0.02225,0.09577 c 0.01627,0.07004 0.01344,0.117813 -0.01057,0.177804 l -0.03284,0.08204 -2.932765,2.488739 -2.932768,2.488736 0.812118,0.964613 c 0.80491,0.956055 0.812338,0.965399 0.836688,1.053134 0.03655,0.131606 -0.01064,0.223922 -0.139276,0.272116 z"
     id="path873"
     inkscape:connector-curvature="0" />
</svg>
