<?xml version="1.0" encoding="UTF-8" standalone="no"?>
<svg
   xmlns:dc="http://purl.org/dc/elements/1.1/"
   xmlns:cc="http://creativecommons.org/ns#"
   xmlns:rdf="http://www.w3.org/1999/02/22-rdf-syntax-ns#"
   xmlns:svg="http://www.w3.org/2000/svg"
   xmlns="http://www.w3.org/2000/svg"
   xmlns:xlink="http://www.w3.org/1999/xlink"
   xmlns:sodipodi="http://sodipodi.sourceforge.net/DTD/sodipodi-0.dtd"
   xmlns:inkscape="http://www.inkscape.org/namespaces/inkscape"
   height="128"
   viewBox="0 0 95.999997 95.999997"
   width="128"
   version="1.1"
   id="svg143"
   sodipodi:docname="kmahjongg.svg"
   inkscape:version="0.92.3 (2405546, 2018-03-11)">
  <metadata
     id="metadata149">
    <rdf:RDF>
      <cc:Work
         rdf:about="">
        <dc:format>image/svg+xml</dc:format>
        <dc:type
           rdf:resource="http://purl.org/dc/dcmitype/StillImage" />
        <dc:title></dc:title>
      </cc:Work>
    </rdf:RDF>
  </metadata>
  <defs
     id="defs147" />
  <sodipodi:namedview
     pagecolor="#ffffff"
     bordercolor="#666666"
     borderopacity="1"
     objecttolerance="10"
     gridtolerance="10"
     guidetolerance="10"
     inkscape:pageopacity="0"
     inkscape:pageshadow="2"
     inkscape:window-width="1533"
     inkscape:window-height="837"
     id="namedview145"
     showgrid="false"
     units="px"
     inkscape:zoom="0.9777961"
     inkscape:cx="-15.134518"
     inkscape:cy="-135.98639"
     inkscape:window-x="67"
     inkscape:window-y="27"
     inkscape:window-maximized="1"
     inkscape:current-layer="svg143" />
  <linearGradient
     id="a">
    <stop
       offset="0"
       stop-opacity=".275"
       id="stop2" />
    <stop
       offset="1"
       stop-opacity="0"
       id="stop4" />
  </linearGradient>
  <linearGradient
     id="b"
     gradientUnits="userSpaceOnUse"
     x1="18.852539"
     x2="18.852539"
     xlink:href="#a"
     y1="56.067837"
     y2="58.713921"
     gradientTransform="translate(-363.43304,22.791748)" />
  <linearGradient
     id="c">
    <stop
       offset="0"
       stop-opacity=".314"
       id="stop8" />
    <stop
       offset=".222"
       stop-opacity=".275"
       id="stop10" />
    <stop
       offset="1"
       stop-opacity="0"
       id="stop12" />
  </linearGradient>
  <radialGradient
     id="d"
     cx="450.909"
     cy="189.57899"
     gradientTransform="matrix(0,-0.15626,-0.28128,0,-286.95604,149.98175)"
     gradientUnits="userSpaceOnUse"
     r="21.167"
     xlink:href="#c" />
  <radialGradient
     id="e"
     cx="450.909"
     cy="189.57899"
     gradientTransform="matrix(0,0.15626,0.28128,0,-405.84204,7.7367479)"
     gradientUnits="userSpaceOnUse"
     r="21.167"
     xlink:href="#c" />
  <radialGradient
     id="f"
     cx="450.909"
     cy="189.57899"
     gradientTransform="matrix(0,-0.15626,0.28128,0,-405.84204,149.98175)"
     gradientUnits="userSpaceOnUse"
     r="21.167"
     xlink:href="#c" />
  <radialGradient
     id="g"
     cx="450.909"
     cy="189.57899"
     gradientTransform="matrix(0,0.15626,-0.28128,0,-286.95604,7.7367479)"
     gradientUnits="userSpaceOnUse"
     r="21.167"
     xlink:href="#c" />
  <linearGradient
     id="h">
    <stop
       offset="0"
       stop-color="#bcaaa4"
       id="stop19" />
    <stop
       offset="1"
       stop-color="#d7ccc8"
       id="stop21" />
  </linearGradient>
  <linearGradient
     id="i"
     gradientUnits="userSpaceOnUse"
     x1="19.657822"
     x2="43.847256"
     xlink:href="#h"
     y1="25.638275"
     y2="25.638275"
     gradientTransform="translate(-363.43304,22.791748)" />
  <linearGradient
     id="j">
    <stop
       offset="0"
       stop-color="#4caf50"
       id="stop25" />
    <stop
       offset="1"
       stop-color="#66bb6a"
       id="stop27" />
  </linearGradient>
  <linearGradient
     id="k"
     gradientUnits="userSpaceOnUse"
     x1="31.76725"
     x2="31.76725"
     xlink:href="#j"
     y1="22.66041"
     y2="27.952583"
     gradientTransform="translate(-363.43304,22.791748)" />
  <linearGradient
     id="l"
     gradientUnits="userSpaceOnUse"
     x1="17.199251"
     x2="17.199251"
     xlink:href="#h"
     y1="56.067837"
     y2="16.377159"
     gradientTransform="translate(-363.43304,22.791748)" />
  <linearGradient
     id="m"
     gradientUnits="userSpaceOnUse"
     x1="48.125542"
     x2="48.125542"
     xlink:href="#a"
     y1="56.067837"
     y2="58.713921"
     gradientTransform="translate(-363.43304,22.791748)" />
  <radialGradient
     id="n"
     cx="450.909"
     cy="189.57899"
     gradientTransform="matrix(0,-0.15626,-0.28128,0,-257.68304,149.98175)"
     gradientUnits="userSpaceOnUse"
     r="21.167"
     xlink:href="#c" />
  <radialGradient
     id="o"
     cx="450.909"
     cy="189.57899"
     gradientTransform="matrix(0,0.15626,0.28128,0,-376.57004,7.7367479)"
     gradientUnits="userSpaceOnUse"
     r="21.167"
     xlink:href="#c" />
  <radialGradient
     id="p"
     cx="450.909"
     cy="189.57899"
     gradientTransform="matrix(0,-0.15626,0.28128,0,-376.57004,149.98175)"
     gradientUnits="userSpaceOnUse"
     r="21.167"
     xlink:href="#c" />
  <radialGradient
     id="q"
     cx="450.909"
     cy="189.57899"
     gradientTransform="matrix(0,0.15626,-0.28128,0,-257.68304,7.7367479)"
     gradientUnits="userSpaceOnUse"
     r="21.167"
     xlink:href="#c" />
  <linearGradient
     id="r"
     gradientUnits="userSpaceOnUse"
     x1="47.628811"
     x2="47.628811"
     xlink:href="#h"
     y1="56.067837"
     y2="16.377159"
     gradientTransform="translate(-363.43304,22.791748)" />
  <linearGradient
     id="s"
     gradientUnits="userSpaceOnUse"
     x1="46.306252"
     x2="46.306252"
     xlink:href="#j"
     y1="24.314411"
     y2="29.606585"
     gradientTransform="translate(-363.43304,22.791748)" />
  <linearGradient
     id="t"
     gradientUnits="userSpaceOnUse"
     x1="46.306252"
     x2="46.306252"
     xlink:href="#j"
     y1="42.83741"
     y2="48.129585"
     gradientTransform="translate(-363.43304,22.791748)" />
  <linearGradient
     id="u"
     gradientUnits="userSpaceOnUse"
     x1="17.199251"
     x2="17.199251"
     xlink:href="#j"
     y1="33.576412"
     y2="38.868584"
     gradientTransform="translate(-363.43304,22.791748)" />
  <linearGradient
     id="v"
     gradientUnits="userSpaceOnUse"
     x1="37.05925"
     x2="37.05925"
     xlink:href="#j"
     y1="9.7614107"
     y2="15.053584"
     gradientTransform="translate(-363.43304,22.791748)" />
  <linearGradient
     id="w"
     gradientUnits="userSpaceOnUse"
     x1="26.47525"
     x2="26.47525"
     xlink:href="#j"
     y1="9.7614107"
     y2="15.053584"
     gradientTransform="translate(-363.43304,22.791748)" />
  <g
     id="g1296"
     transform="translate(-1.8696777e-7,-0.60915438)">
    <path
       style="opacity:0.25;fill:#000000;fill-opacity:1;stroke:none;stroke-width:0.56338018;stroke-miterlimit:4;stroke-dasharray:none"
       inkscape:connector-curvature="0"
       id="path1276"
       d="m 32.347496,7.0200553 h 31.30501 a 4.4682818,4.4682818 0 0 1 4.468282,4.4682817 V 69.62163 a 4.4733517,4.4733517 0 0 1 -4.468282,4.47504 h -31.30501 a 4.4784217,4.4784217 0 0 1 -4.47504,-4.47504 V 11.490028 a 4.4733517,4.4733517 0 0 1 4.47504,-4.4699727 z m 0,0" />
    <path
       style="opacity:0.25;fill:#000000;fill-opacity:1;stroke:none;stroke-width:0.56338018;stroke-miterlimit:4;stroke-dasharray:none"
       inkscape:connector-curvature="0"
       id="path1278"
       d="m 7.751663,24.903324 h 31.301632 a 4.4733517,4.4733517 0 0 1 4.468282,4.475041 v 58.13329 a 4.4682818,4.4682818 0 0 1 -4.468282,4.468283 H 7.751663 A 4.4682818,4.4682818 0 0 1 3.2816907,87.511655 v -58.13329 a 4.4733517,4.4733517 0 0 1 4.4682829,-4.475041 z m 0,0" />
    <path
       style="opacity:0.25;fill:#000000;fill-opacity:1;stroke:none;stroke-width:0.56338018;stroke-miterlimit:4;stroke-dasharray:none"
       inkscape:connector-curvature="0"
       id="path1280"
       d="m 56.945013,24.903324 h 31.298254 a 4.4784217,4.4784217 0 0 1 4.47504,4.475041 v 58.13329 a 4.4733517,4.4733517 0 0 1 -4.476729,4.468283 H 56.943323 a 4.4699718,4.4699718 0 0 1 -4.475044,-4.468283 v -58.13329 a 4.4750418,4.4750418 0 0 1 4.476734,-4.475041 z m 0,0" />
    <path
       d="m 32.347496,5.5200553 h 31.30501 a 4.4682818,4.4682818 0 0 1 4.468282,4.468282 V 68.12163 a 4.4733517,4.4733517 0 0 1 -4.468282,4.47504 h -31.30501 a 4.4784217,4.4784217 0 0 1 -4.47504,-4.47504 V 9.9900276 a 4.4733517,4.4733517 0 0 1 4.47504,-4.4699723 z m 0,0"
       id="path1056"
       inkscape:connector-curvature="0"
       style="fill:#f0e9c8;fill-opacity:1;stroke:#483737;stroke-width:0.56338018;stroke-miterlimit:4;stroke-dasharray:none" />
    <g
       style="font-style:normal;font-weight:normal;font-size:24.67745209px;line-height:125%;font-family:sans-serif;text-align:start;letter-spacing:0px;word-spacing:0px;text-anchor:start;fill:#0055d4;fill-opacity:1;stroke:none;stroke-width:1px;stroke-linecap:butt;stroke-linejoin:miter;stroke-opacity:1"
       id="g1208"
       inkscape:export-filename="/tmp/mahjongg.svg"
       inkscape:export-xdpi="90"
       inkscape:export-ydpi="90"
       transform="matrix(0.82942522,0,0,0.82942522,28.276411,4.6991167)">
      <path
         inkscape:connector-curvature="0"
         d="m 20.383551,32.919554 q -0.0964,0.0482 0.0964,0.240991 1.108558,0.409684 2.313511,1.349548 0.144595,0.289189 0.867567,0.385585 0.53018,-0.26509 0.433783,-1.30135 -0.144594,-2.723195 -0.289189,-5.518688 v -2.168917 q 0.0482,-0.843467 0.722973,-0.988062 0.674774,-0.168693 1.397746,-0.26509 0.53018,-0.0964 1.012161,-0.578377 1.132657,-1.156756 2.361709,-2.120719 1.470044,-0.819368 1.590539,-2.458105 -0.0482,-0.891666 -0.674774,-1.494143 -0.626576,-0.602477 -1.445944,-0.626576 -1.156756,0.0482 -2.217115,0.409684 -1.03626,0.337387 -2.168917,0.409684 l -0.289189,-0.192792 q 0.0964,-1.518242 0.409685,-2.09662 0.337387,-0.578377 1.759232,-0.554278 0.313288,0.0241 0.747071,-0.0723 0.457883,-0.120496 0.506081,-0.457883 -0.192793,-0.626576 -1.373647,-0.602477 -1.180855,0.0241 -1.132657,0.0241 -0.216891,-0.144594 -0.192792,-0.289189 -0.0241,-0.554278 0.0482,-0.77117 0.0964,-0.409684 0.144594,-0.915765 -0.192792,-1.542341 -1.686935,-1.349548 0.0964,0.120495 0.337387,0.578378 0.216892,0.289189 0.144594,0.722972 v 1.735133 q -0.168693,1.012162 -1.470043,1.277251 -1.277251,0.240991 -1.952025,0.457883 0.747071,0.626576 2.313511,0.674774 0.192793,-0.0964 0.626576,0.240991 v 1.590538 q -0.891666,0.578378 -1.952025,0.650676 -1.03626,0.0723 -2.048421,0.216891 v 0.240991 q 0.747071,0.433783 1.638737,0.433783 1.132656,0.0482 2.07252,-0.433783 0.216892,0.0241 0.289189,0.240991 0.481981,2.217114 -1.686935,2.313511 -0.0723,0.0964 0,0.192792 0.867566,-0.0241 1.132656,0.216892 0.289189,0.240991 0.26509,1.132657 -0.0723,1.27725 -0.939864,1.494142 -0.843467,0.192793 -1.903827,0.481982 -0.168693,0.120495 -0.0482,0.24099 0.747072,0.385586 1.927926,0.240991 0.240991,0 0.144595,0.481982 -2.337611,3.952248 -6.024769,6.048867 -0.337387,0.240991 0.289189,0.144595 1.976124,-0.602477 3.494366,-2.048422 1.518241,-1.470043 2.723195,-3.132879 0.120495,-0.192793 0.192793,-0.0964 0.674774,0.963963 0.433783,2.217115 v 1.590539 q 0,0.578378 -0.144594,1.325449 -0.120496,0.747072 -0.433784,0.819369 -0.795269,-0.0964 -1.204953,-0.192793 -0.771171,-0.0482 -1.156756,-0.0964 v 0 0 z m 3.422068,-12.170033 q 0.144595,-0.77117 0.144595,-1.54234 0.0964,-0.361486 0.626576,-0.433784 2.000223,-0.457882 4.000446,-0.915765 0.216892,-0.0482 0.602477,0.120496 0.409684,0.144594 0.26509,0.698873 -0.79527,2.289412 -2.072521,4.337833 -0.554278,0.626576 -1.156755,0.674774 -1.470044,-0.0241 -2.409908,0.53018 -0.192792,-0.0241 -0.24099,-0.289189 0.0964,-1.397746 0.313288,-1.759232 0.216891,-0.385585 1.56644,-0.650675 0.289188,-0.0964 0.385585,-0.433784 0.0241,-0.289188 -0.240991,-0.385585 -1.084458,0.144595 -1.638737,0.289189 -0.120495,-0.0482 -0.144595,-0.240991 z m -4.482427,2.940087 q -0.0241,-1.325449 -0.698873,-2.409907 -0.650675,-1.084458 -1.807431,-1.349548 0.361486,1.325449 0.77117,2.626799 0.433784,1.30135 1.349548,2.385808 h 0.192793 q 0.192793,-0.481981 0.192793,-1.253152 z m 6.024768,4.048645 q -0.674774,-0.0241 -0.24099,0.144594 1.614637,0.674774 3.759455,1.83153 2.144818,1.156756 4.000446,2.168917 0.53018,0.192792 0.481982,-0.771171 -0.0482,-0.77117 -1.012161,-1.373647 -0.963963,-0.602477 -2.33761,-1.012161 -1.373648,-0.433783 -2.674998,-0.674774 -1.277251,-0.240991 -1.976124,-0.313288 z"
         style="font-style:normal;font-variant:normal;font-weight:normal;font-stretch:normal;font-family:CloudXingCaoGBK;-inkscape-font-specification:CloudXingCaoGBK;fill:#0055d4;fill-opacity:1"
         id="path1206" />
    </g>
    <path
       d="m 7.751663,23.403324 h 31.301632 a 4.4733517,4.4733517 0 0 1 4.468282,4.475041 v 58.13329 a 4.4682818,4.4682818 0 0 1 -4.468282,4.468283 H 7.751663 A 4.4682818,4.4682818 0 0 1 3.2816907,86.011655 v -58.13329 a 4.4733517,4.4733517 0 0 1 4.4682829,-4.475041 z m 0,0"
       id="path1072"
       inkscape:connector-curvature="0"
       style="fill:#f0e9c8;fill-opacity:1;stroke:#483737;stroke-width:0.56338018;stroke-miterlimit:4;stroke-dasharray:none" />
    <path
       d="m 56.945013,23.403324 h 31.298254 a 4.4784217,4.4784217 0 0 1 4.47504,4.475041 v 58.13329 a 4.4733517,4.4733517 0 0 1 -4.476729,4.468283 H 56.943323 a 4.4699718,4.4699718 0 0 1 -4.475044,-4.468283 v -58.13329 a 4.4750418,4.4750418 0 0 1 4.476734,-4.475041 z m 0,0"
       id="path1084"
       inkscape:connector-curvature="0"
       style="fill:#f0e9c8;fill-opacity:1;stroke:#483737;stroke-width:0.56338018;stroke-miterlimit:4;stroke-dasharray:none" />
    <g
       style="font-style:normal;font-weight:normal;font-size:24.67745209px;line-height:125%;font-family:sans-serif;text-align:start;letter-spacing:0px;word-spacing:0px;text-anchor:start;fill:#0055d4;fill-opacity:1;stroke:none;stroke-width:1px;stroke-linecap:butt;stroke-linejoin:miter;stroke-opacity:1"
       id="g1192"
       inkscape:export-filename="/tmp/mahjongg.svg"
       inkscape:export-xdpi="90"
       inkscape:export-ydpi="90"
       transform="matrix(1.5837148,0,0,1.5837148,-15.736001,20.68141)">
      <path
         inkscape:connector-curvature="0"
         d="m 20.383551,32.919554 q -0.0964,0.0482 0.0964,0.240991 1.108558,0.409684 2.313511,1.349548 0.144595,0.289189 0.867567,0.385585 0.53018,-0.26509 0.433783,-1.30135 -0.144594,-2.723195 -0.289189,-5.518688 v -2.168917 q 0.0482,-0.843467 0.722973,-0.988062 0.674774,-0.168693 1.397746,-0.26509 0.53018,-0.0964 1.012161,-0.578377 1.132657,-1.156756 2.361709,-2.120719 1.470044,-0.819368 1.590539,-2.458105 -0.0482,-0.891666 -0.674774,-1.494143 -0.626576,-0.602477 -1.445944,-0.626576 -1.156756,0.0482 -2.217115,0.409684 -1.03626,0.337387 -2.168917,0.409684 l -0.289189,-0.192792 q 0.0964,-1.518242 0.409685,-2.09662 0.337387,-0.578377 1.759232,-0.554278 0.313288,0.0241 0.747071,-0.0723 0.457883,-0.120496 0.506081,-0.457883 -0.192793,-0.626576 -1.373647,-0.602477 -1.180855,0.0241 -1.132657,0.0241 -0.216891,-0.144594 -0.192792,-0.289189 -0.0241,-0.554278 0.0482,-0.77117 0.0964,-0.409684 0.144594,-0.915765 -0.192792,-1.542341 -1.686935,-1.349548 0.0964,0.120495 0.337387,0.578378 0.216892,0.289189 0.144594,0.722972 v 1.735133 q -0.168693,1.012162 -1.470043,1.277251 -1.277251,0.240991 -1.952025,0.457883 0.747071,0.626576 2.313511,0.674774 0.192793,-0.0964 0.626576,0.240991 v 1.590538 q -0.891666,0.578378 -1.952025,0.650676 -1.03626,0.0723 -2.048421,0.216891 v 0.240991 q 0.747071,0.433783 1.638737,0.433783 1.132656,0.0482 2.07252,-0.433783 0.216892,0.0241 0.289189,0.240991 0.481981,2.217114 -1.686935,2.313511 -0.0723,0.0964 0,0.192792 0.867566,-0.0241 1.132656,0.216892 0.289189,0.240991 0.26509,1.132657 -0.0723,1.27725 -0.939864,1.494142 -0.843467,0.192793 -1.903827,0.481982 -0.168693,0.120495 -0.0482,0.24099 0.747072,0.385586 1.927926,0.240991 0.240991,0 0.144595,0.481982 -2.337611,3.952248 -6.024769,6.048867 -0.337387,0.240991 0.289189,0.144595 1.976124,-0.602477 3.494366,-2.048422 1.518241,-1.470043 2.723195,-3.132879 0.120495,-0.192793 0.192793,-0.0964 0.674774,0.963963 0.433783,2.217115 v 1.590539 q 0,0.578378 -0.144594,1.325449 -0.120496,0.747072 -0.433784,0.819369 -0.795269,-0.0964 -1.204953,-0.192793 -0.771171,-0.0482 -1.156756,-0.0964 v 0 0 z m 3.422068,-12.170033 q 0.144595,-0.77117 0.144595,-1.54234 0.0964,-0.361486 0.626576,-0.433784 2.000223,-0.457882 4.000446,-0.915765 0.216892,-0.0482 0.602477,0.120496 0.409684,0.144594 0.26509,0.698873 -0.79527,2.289412 -2.072521,4.337833 -0.554278,0.626576 -1.156755,0.674774 -1.470044,-0.0241 -2.409908,0.53018 -0.192792,-0.0241 -0.24099,-0.289189 0.0964,-1.397746 0.313288,-1.759232 0.216891,-0.385585 1.56644,-0.650675 0.289188,-0.0964 0.385585,-0.433784 0.0241,-0.289188 -0.240991,-0.385585 -1.084458,0.144595 -1.638737,0.289189 -0.120495,-0.0482 -0.144595,-0.240991 z m -4.482427,2.940087 q -0.0241,-1.325449 -0.698873,-2.409907 -0.650675,-1.084458 -1.807431,-1.349548 0.361486,1.325449 0.77117,2.626799 0.433784,1.30135 1.349548,2.385808 h 0.192793 q 0.192793,-0.481981 0.192793,-1.253152 z m 6.024768,4.048645 q -0.674774,-0.0241 -0.24099,0.144594 1.614637,0.674774 3.759455,1.83153 2.144818,1.156756 4.000446,2.168917 0.53018,0.192792 0.481982,-0.771171 -0.0482,-0.77117 -1.012161,-1.373647 -0.963963,-0.602477 -2.33761,-1.012161 -1.373648,-0.433783 -2.674998,-0.674774 -1.277251,-0.240991 -1.976124,-0.313288 z"
         style="font-style:normal;font-variant:normal;font-weight:normal;font-stretch:normal;font-family:CloudXingCaoGBK;-inkscape-font-specification:CloudXingCaoGBK;fill:#0055d4;fill-opacity:1"
         id="path1190" />
    </g>
    <g
       transform="matrix(0.82942522,0,0,0.82942522,52.096084,23.373741)"
       inkscape:export-ydpi="90"
       inkscape:export-xdpi="90"
       inkscape:export-filename="/tmp/mahjongg.svg"
       id="g1196"
       style="font-style:normal;font-weight:normal;font-size:24.67745209px;line-height:125%;font-family:sans-serif;text-align:start;letter-spacing:0px;word-spacing:0px;text-anchor:start;fill:#0055d4;fill-opacity:1;stroke:none;stroke-width:1px;stroke-linecap:butt;stroke-linejoin:miter;stroke-opacity:1">
      <path
         id="path1194"
         style="font-style:normal;font-variant:normal;font-weight:normal;font-stretch:normal;font-family:CloudXingCaoGBK;-inkscape-font-specification:CloudXingCaoGBK;fill:#0055d4;fill-opacity:1"
         d="m 20.383551,32.919554 q -0.0964,0.0482 0.0964,0.240991 1.108558,0.409684 2.313511,1.349548 0.144595,0.289189 0.867567,0.385585 0.53018,-0.26509 0.433783,-1.30135 -0.144594,-2.723195 -0.289189,-5.518688 v -2.168917 q 0.0482,-0.843467 0.722973,-0.988062 0.674774,-0.168693 1.397746,-0.26509 0.53018,-0.0964 1.012161,-0.578377 1.132657,-1.156756 2.361709,-2.120719 1.470044,-0.819368 1.590539,-2.458105 -0.0482,-0.891666 -0.674774,-1.494143 -0.626576,-0.602477 -1.445944,-0.626576 -1.156756,0.0482 -2.217115,0.409684 -1.03626,0.337387 -2.168917,0.409684 l -0.289189,-0.192792 q 0.0964,-1.518242 0.409685,-2.09662 0.337387,-0.578377 1.759232,-0.554278 0.313288,0.0241 0.747071,-0.0723 0.457883,-0.120496 0.506081,-0.457883 -0.192793,-0.626576 -1.373647,-0.602477 -1.180855,0.0241 -1.132657,0.0241 -0.216891,-0.144594 -0.192792,-0.289189 -0.0241,-0.554278 0.0482,-0.77117 0.0964,-0.409684 0.144594,-0.915765 -0.192792,-1.542341 -1.686935,-1.349548 0.0964,0.120495 0.337387,0.578378 0.216892,0.289189 0.144594,0.722972 v 1.735133 q -0.168693,1.012162 -1.470043,1.277251 -1.277251,0.240991 -1.952025,0.457883 0.747071,0.626576 2.313511,0.674774 0.192793,-0.0964 0.626576,0.240991 v 1.590538 q -0.891666,0.578378 -1.952025,0.650676 -1.03626,0.0723 -2.048421,0.216891 v 0.240991 q 0.747071,0.433783 1.638737,0.433783 1.132656,0.0482 2.07252,-0.433783 0.216892,0.0241 0.289189,0.240991 0.481981,2.217114 -1.686935,2.313511 -0.0723,0.0964 0,0.192792 0.867566,-0.0241 1.132656,0.216892 0.289189,0.240991 0.26509,1.132657 -0.0723,1.27725 -0.939864,1.494142 -0.843467,0.192793 -1.903827,0.481982 -0.168693,0.120495 -0.0482,0.24099 0.747072,0.385586 1.927926,0.240991 0.240991,0 0.144595,0.481982 -2.337611,3.952248 -6.024769,6.048867 -0.337387,0.240991 0.289189,0.144595 1.976124,-0.602477 3.494366,-2.048422 1.518241,-1.470043 2.723195,-3.132879 0.120495,-0.192793 0.192793,-0.0964 0.674774,0.963963 0.433783,2.217115 v 1.590539 q 0,0.578378 -0.144594,1.325449 -0.120496,0.747072 -0.433784,0.819369 -0.795269,-0.0964 -1.204953,-0.192793 -0.771171,-0.0482 -1.156756,-0.0964 v 0 0 z m 3.422068,-12.170033 q 0.144595,-0.77117 0.144595,-1.54234 0.0964,-0.361486 0.626576,-0.433784 2.000223,-0.457882 4.000446,-0.915765 0.216892,-0.0482 0.602477,0.120496 0.409684,0.144594 0.26509,0.698873 -0.79527,2.289412 -2.072521,4.337833 -0.554278,0.626576 -1.156755,0.674774 -1.470044,-0.0241 -2.409908,0.53018 -0.192792,-0.0241 -0.24099,-0.289189 0.0964,-1.397746 0.313288,-1.759232 0.216891,-0.385585 1.56644,-0.650675 0.289188,-0.0964 0.385585,-0.433784 0.0241,-0.289188 -0.240991,-0.385585 -1.084458,0.144595 -1.638737,0.289189 -0.120495,-0.0482 -0.144595,-0.240991 z m -4.482427,2.940087 q -0.0241,-1.325449 -0.698873,-2.409907 -0.650675,-1.084458 -1.807431,-1.349548 0.361486,1.325449 0.77117,2.626799 0.433784,1.30135 1.349548,2.385808 h 0.192793 q 0.192793,-0.481981 0.192793,-1.253152 z m 6.024768,4.048645 q -0.674774,-0.0241 -0.24099,0.144594 1.614637,0.674774 3.759455,1.83153 2.144818,1.156756 4.000446,2.168917 0.53018,0.192792 0.481982,-0.771171 -0.0482,-0.77117 -1.012161,-1.373647 -0.963963,-0.602477 -2.33761,-1.012161 -1.373648,-0.433783 -2.674998,-0.674774 -1.277251,-0.240991 -1.976124,-0.313288 z"
         inkscape:connector-curvature="0" />
    </g>
    <g
       style="font-style:normal;font-weight:normal;font-size:24.67745209px;line-height:125%;font-family:sans-serif;text-align:start;letter-spacing:0px;word-spacing:0px;text-anchor:start;fill:#0055d4;fill-opacity:1;stroke:none;stroke-width:1px;stroke-linecap:butt;stroke-linejoin:miter;stroke-opacity:1"
       id="g1200"
       inkscape:export-filename="/tmp/mahjongg.svg"
       inkscape:export-xdpi="90"
       inkscape:export-ydpi="90"
       transform="matrix(0.82942522,0,0,0.82942522,52.096084,53.481811)">
      <path
         inkscape:connector-curvature="0"
         d="m 20.383551,32.919554 q -0.0964,0.0482 0.0964,0.240991 1.108558,0.409684 2.313511,1.349548 0.144595,0.289189 0.867567,0.385585 0.53018,-0.26509 0.433783,-1.30135 -0.144594,-2.723195 -0.289189,-5.518688 v -2.168917 q 0.0482,-0.843467 0.722973,-0.988062 0.674774,-0.168693 1.397746,-0.26509 0.53018,-0.0964 1.012161,-0.578377 1.132657,-1.156756 2.361709,-2.120719 1.470044,-0.819368 1.590539,-2.458105 -0.0482,-0.891666 -0.674774,-1.494143 -0.626576,-0.602477 -1.445944,-0.626576 -1.156756,0.0482 -2.217115,0.409684 -1.03626,0.337387 -2.168917,0.409684 l -0.289189,-0.192792 q 0.0964,-1.518242 0.409685,-2.09662 0.337387,-0.578377 1.759232,-0.554278 0.313288,0.0241 0.747071,-0.0723 0.457883,-0.120496 0.506081,-0.457883 -0.192793,-0.626576 -1.373647,-0.602477 -1.180855,0.0241 -1.132657,0.0241 -0.216891,-0.144594 -0.192792,-0.289189 -0.0241,-0.554278 0.0482,-0.77117 0.0964,-0.409684 0.144594,-0.915765 -0.192792,-1.542341 -1.686935,-1.349548 0.0964,0.120495 0.337387,0.578378 0.216892,0.289189 0.144594,0.722972 v 1.735133 q -0.168693,1.012162 -1.470043,1.277251 -1.277251,0.240991 -1.952025,0.457883 0.747071,0.626576 2.313511,0.674774 0.192793,-0.0964 0.626576,0.240991 v 1.590538 q -0.891666,0.578378 -1.952025,0.650676 -1.03626,0.0723 -2.048421,0.216891 v 0.240991 q 0.747071,0.433783 1.638737,0.433783 1.132656,0.0482 2.07252,-0.433783 0.216892,0.0241 0.289189,0.240991 0.481981,2.217114 -1.686935,2.313511 -0.0723,0.0964 0,0.192792 0.867566,-0.0241 1.132656,0.216892 0.289189,0.240991 0.26509,1.132657 -0.0723,1.27725 -0.939864,1.494142 -0.843467,0.192793 -1.903827,0.481982 -0.168693,0.120495 -0.0482,0.24099 0.747072,0.385586 1.927926,0.240991 0.240991,0 0.144595,0.481982 -2.337611,3.952248 -6.024769,6.048867 -0.337387,0.240991 0.289189,0.144595 1.976124,-0.602477 3.494366,-2.048422 1.518241,-1.470043 2.723195,-3.132879 0.120495,-0.192793 0.192793,-0.0964 0.674774,0.963963 0.433783,2.217115 v 1.590539 q 0,0.578378 -0.144594,1.325449 -0.120496,0.747072 -0.433784,0.819369 -0.795269,-0.0964 -1.204953,-0.192793 -0.771171,-0.0482 -1.156756,-0.0964 v 0 0 z m 3.422068,-12.170033 q 0.144595,-0.77117 0.144595,-1.54234 0.0964,-0.361486 0.626576,-0.433784 2.000223,-0.457882 4.000446,-0.915765 0.216892,-0.0482 0.602477,0.120496 0.409684,0.144594 0.26509,0.698873 -0.79527,2.289412 -2.072521,4.337833 -0.554278,0.626576 -1.156755,0.674774 -1.470044,-0.0241 -2.409908,0.53018 -0.192792,-0.0241 -0.24099,-0.289189 0.0964,-1.397746 0.313288,-1.759232 0.216891,-0.385585 1.56644,-0.650675 0.289188,-0.0964 0.385585,-0.433784 0.0241,-0.289188 -0.240991,-0.385585 -1.084458,0.144595 -1.638737,0.289189 -0.120495,-0.0482 -0.144595,-0.240991 z m -4.482427,2.940087 q -0.0241,-1.325449 -0.698873,-2.409907 -0.650675,-1.084458 -1.807431,-1.349548 0.361486,1.325449 0.77117,2.626799 0.433784,1.30135 1.349548,2.385808 h 0.192793 q 0.192793,-0.481981 0.192793,-1.253152 z m 6.024768,4.048645 q -0.674774,-0.0241 -0.24099,0.144594 1.614637,0.674774 3.759455,1.83153 2.144818,1.156756 4.000446,2.168917 0.53018,0.192792 0.481982,-0.771171 -0.0482,-0.77117 -1.012161,-1.373647 -0.963963,-0.602477 -2.33761,-1.012161 -1.373648,-0.433783 -2.674998,-0.674774 -1.277251,-0.240991 -1.976124,-0.313288 z"
         style="font-style:normal;font-variant:normal;font-weight:normal;font-stretch:normal;font-family:CloudXingCaoGBK;-inkscape-font-specification:CloudXingCaoGBK;fill:#0055d4;fill-opacity:1"
         id="path1198" />
    </g>
  </g>
</svg>
