<?xml version="1.0" encoding="UTF-8" standalone="no"?>
<!-- Created with Inkscape (http://www.inkscape.org/) -->

<svg
   xmlns:dc="http://purl.org/dc/elements/1.1/"
   xmlns:cc="http://creativecommons.org/ns#"
   xmlns:rdf="http://www.w3.org/1999/02/22-rdf-syntax-ns#"
   xmlns:svg="http://www.w3.org/2000/svg"
   xmlns="http://www.w3.org/2000/svg"
   xmlns:xlink="http://www.w3.org/1999/xlink"
   xmlns:sodipodi="http://sodipodi.sourceforge.net/DTD/sodipodi-0.dtd"
   xmlns:inkscape="http://www.inkscape.org/namespaces/inkscape"
   width="128"
   height="128"
   viewBox="0 0 33.866666 33.866668"
   version="1.1"
   id="svg8"
   inkscape:version="0.92.4 (5da689c313, 2019-01-14)"
   sodipodi:docname="system-software-update.svg">
  <defs
     id="defs2">
    <linearGradient
       inkscape:collect="always"
       id="linearGradient891">
      <stop
         style="stop-color:#fef6f5;stop-opacity:1"
         offset="0"
         id="stop887" />
      <stop
         style="stop-color:#fddbd4;stop-opacity:1"
         offset="1"
         id="stop889" />
    </linearGradient>
    <linearGradient
       inkscape:collect="always"
       id="linearGradient1032">
      <stop
         style="stop-color:#f8451b;stop-opacity:1"
         offset="0"
         id="stop1028" />
      <stop
         style="stop-color:#e3093c;stop-opacity:1"
         offset="1"
         id="stop1030" />
    </linearGradient>
    <linearGradient
       inkscape:collect="always"
       xlink:href="#linearGradient1032"
       id="linearGradient1034"
       x1="73.716393"
       y1="104.29868"
       x2="77.023636"
       y2="212.27557"
       gradientUnits="userSpaceOnUse"
       gradientTransform="matrix(0.19875607,0,0,0.19875607,1.0500216,251.89669)" />
    <linearGradient
       inkscape:collect="always"
       xlink:href="#linearGradient891"
       id="linearGradient893"
       x1="16.916077"
       y1="268.66797"
       x2="16.916077"
       y2="290.14755"
       gradientUnits="userSpaceOnUse" />
  </defs>
  <sodipodi:namedview
     id="base"
     pagecolor="#ffffff"
     bordercolor="#666666"
     borderopacity="1.0"
     inkscape:pageopacity="0.0"
     inkscape:pageshadow="2"
     inkscape:zoom="1.6898438"
     inkscape:cx="44.439077"
     inkscape:cy="113.7245"
     inkscape:document-units="mm"
     inkscape:current-layer="layer1"
     showgrid="false"
     inkscape:window-width="1600"
     inkscape:window-height="837"
     inkscape:window-x="0"
     inkscape:window-y="27"
     inkscape:window-maximized="1"
     units="px" />
  <metadata
     id="metadata5">
    <rdf:RDF>
      <cc:Work
         rdf:about="">
        <dc:format>image/svg+xml</dc:format>
        <dc:type
           rdf:resource="http://purl.org/dc/dcmitype/StillImage" />
        <dc:title />
      </cc:Work>
    </rdf:RDF>
  </metadata>
  <g
     inkscape:label="Layer 1"
     inkscape:groupmode="layer"
     id="layer1"
     transform="translate(0,-263.13332)">
    <circle
       r="15.564582"
       cy="280.37708"
       cx="16.933332"
       id="circle1040"
       style="opacity:0.25;fill:#000000;fill-opacity:1;fill-rule:nonzero;stroke:none;stroke-width:0.18990648;stroke-miterlimit:4;stroke-dasharray:none;stroke-opacity:1" />
    <circle
       style="opacity:1;fill:url(#linearGradient1034);fill-opacity:1;fill-rule:nonzero;stroke:#800522;stroke-width:0.19;stroke-miterlimit:4;stroke-dasharray:none;stroke-opacity:1"
       id="path1026"
       cx="16.933332"
       cy="279.8512"
       r="15.564582" />
    <path
       inkscape:connector-curvature="0"
       d="m 16.916076,269.19715 c -1.076709,0.004 -2.163246,0.16243 -3.229306,0.48398 -2.884769,0.8701 -5.3421267,2.93357 -6.7151822,5.63857 -0.7568189,1.49098 -1.1477125,3.03357 -1.1970872,4.72405 l -0.021261,0.72749 H 7.5463538 9.339568 v -0.32426 c 9.97e-4,-2.90099 1.623257,-5.55015 4.185022,-6.83432 1.112316,-0.55759 2.177955,-0.80966 3.422608,-0.80966 1.832244,0 3.517801,0.6175 4.921869,1.80307 0.552527,0.46655 0.63641,0.27099 -0.682303,1.59201 l -1.13546,1.13741 h 3.545342 3.545242 l 0.01407,-3.49707 c 0.0077,-1.92339 0.0069,-3.51821 -0.0014,-3.54401 -0.0091,-0.0278 -0.466019,0.40291 -1.124878,1.06058 -0.610188,0.60909 -1.121298,1.10742 -1.13587,1.10742 -0.01459,0 -0.203362,-0.15952 -0.41947,-0.35445 -2.118849,-1.9113 -4.806505,-2.91942 -7.558148,-2.91081 z m 10.611694,0.68847 c -0.0025,-8.4e-4 0.01687,0.0471 0.0228,0.065 0.01564,0.0208 0.03189,0.0412 0.04797,0.0617 -0.01767,-0.0333 -0.03967,-0.0732 -0.0683,-0.12314 -0.0014,-0.002 -0.0021,-0.004 -0.0025,-0.004 z m 0.09306,0.2161 a 14.600957,14.972806 0 0 1 0.04971,0.0566 c -0.0043,-0.009 -0.0084,-0.0161 -0.01376,-0.0282 -0.01202,-0.01 -0.02392,-0.019 -0.03595,-0.0284 z m 0.135061,0.15387 a 14.600957,14.972806 0 0 1 0.190834,0.21753 c -0.01117,-0.0207 -0.0221,-0.0415 -0.03153,-0.0637 -0.0238,-0.0234 -0.04734,-0.0459 -0.05659,-0.0549 -0.04476,-0.0434 -0.07768,-0.0749 -0.102714,-0.099 z m 0.205422,0.20141 c 0.0027,0.005 0.0068,0.0134 0.009,0.0172 9.49e-4,-0.002 0.0044,-0.003 0.0031,-0.005 -0.0022,-0.003 -0.009,-0.01 -0.01222,-0.0126 z m -3.406379,9.61242 v 0.28954 c -5.96e-4,1.12476 -0.290967,2.36849 -0.788199,3.37474 -1.691257,3.4227 -5.603524,5.06406 -9.220895,3.86858 -0.78173,-0.25834 -1.750797,-0.78698 -2.36644,-1.29085 -0.300012,-0.24555 -0.595927,-0.53283 -0.595927,-0.57847 0,-0.02 0.496953,-0.53324 1.104338,-1.14038 0.607387,-0.60716 1.104339,-1.11586 1.104339,-1.13043 0,-0.0146 -1.58552,-0.0265 -3.523366,-0.0265 H 6.7454193 v 3.54893 3.54894 l 1.1143036,-1.11235 c 0.612908,-0.6118 1.1273614,-1.11234 1.1431639,-1.11234 0.015803,0 0.1493276,0.11284 0.2967253,0.25082 1.7813769,1.66744 4.0938449,2.7141 6.5609159,2.96944 0.426911,0.0442 1.681935,0.0465 2.108535,0.004 v -1.1e-4 c 3.07125,-0.30674 5.743102,-1.73986 7.677062,-4.11806 1.544256,-1.89896 2.443233,-4.35466 2.462474,-6.72658 l 0.0048,-0.60065 -1.779147,-0.01 z M 6.2086582,290.34249 c 0.022655,0.0252 0.046845,0.0522 0.069022,0.0771 7.354e-4,6e-4 0.00141,9.5e-4 0.00216,0.002 0.019868,0.0223 -0.00657,-0.008 -0.064298,-0.0726 -0.00278,-0.003 -0.00447,-0.005 -0.00687,-0.007 z m 0.1146251,0.14133 c 0.0051,0.0127 0.00868,0.021 0.018899,0.0476 0.00686,0.0178 -0.00584,-0.02 -0.018899,-0.0476 z m 0.103324,0.11616 c 0.00358,0.007 0.00981,0.0171 0.012841,0.0227 0.00415,9.5e-4 0.00826,0.003 0.012427,0.004 a 14.600957,14.972806 0 0 1 -0.021161,-0.026 c -0.00179,-2e-4 -0.00226,-2e-4 -0.0041,-5.9e-4 z"
       style="opacity:0.25;fill:#000000;fill-opacity:1;stroke-width:0.94953233"
       id="path895" />
    <path
       id="path894"
       style="opacity:1;fill:url(#linearGradient893);stroke-width:0.94953233;fill-opacity:1"
       d="m 16.916076,268.66798 c -1.076709,0.004 -2.163246,0.16243 -3.229306,0.48398 -2.884769,0.8701 -5.3421267,2.93357 -6.7151822,5.63857 -0.7568189,1.49098 -1.1477125,3.03357 -1.1970872,4.72405 l -0.021261,0.72749 H 7.5463538 9.339568 v -0.32426 c 9.97e-4,-2.90099 1.623257,-5.55015 4.185022,-6.83432 1.112316,-0.55759 2.177955,-0.80966 3.422608,-0.80966 1.832244,0 3.517801,0.6175 4.921869,1.80307 0.552527,0.46655 0.63641,0.27099 -0.682303,1.59201 l -1.13546,1.13741 h 3.545342 3.545242 l 0.01407,-3.49707 c 0.0077,-1.92339 0.0069,-3.51821 -0.0014,-3.54401 -0.0091,-0.0278 -0.466019,0.40291 -1.124878,1.06058 -0.610188,0.60909 -1.121298,1.10742 -1.13587,1.10742 -0.01459,0 -0.203362,-0.15952 -0.41947,-0.35445 -2.118849,-1.9113 -4.806505,-2.91942 -7.558148,-2.91081 z m 10.611694,0.68847 c -0.0025,-8.4e-4 0.01687,0.0471 0.0228,0.065 0.01564,0.0208 0.03189,0.0412 0.04797,0.0617 -0.01767,-0.0333 -0.03967,-0.0732 -0.0683,-0.12314 -0.0014,-0.002 -0.0021,-0.004 -0.0025,-0.004 z m 0.09306,0.2161 a 14.600957,14.972806 0 0 1 0.04971,0.0566 c -0.0043,-0.009 -0.0084,-0.0161 -0.01376,-0.0282 -0.01202,-0.01 -0.02392,-0.019 -0.03595,-0.0284 z m 0.135061,0.15387 a 14.600957,14.972806 0 0 1 0.190834,0.21753 c -0.01117,-0.0207 -0.0221,-0.0415 -0.03153,-0.0637 -0.0238,-0.0234 -0.04734,-0.0459 -0.05659,-0.0549 -0.04476,-0.0434 -0.07768,-0.0749 -0.102714,-0.099 z m 0.205422,0.20141 c 0.0027,0.005 0.0068,0.0134 0.009,0.0172 9.49e-4,-0.002 0.0044,-0.003 0.0031,-0.005 -0.0022,-0.003 -0.009,-0.01 -0.01222,-0.0126 z m -3.406379,9.61242 v 0.28954 c -5.96e-4,1.12476 -0.290967,2.36849 -0.788199,3.37474 -1.691257,3.4227 -5.603524,5.06406 -9.220895,3.86858 -0.78173,-0.25834 -1.750797,-0.78698 -2.36644,-1.29085 -0.300012,-0.24555 -0.595927,-0.53283 -0.595927,-0.57847 0,-0.02 0.496953,-0.53324 1.104338,-1.14038 0.607387,-0.60716 1.104339,-1.11586 1.104339,-1.13043 0,-0.0146 -1.58552,-0.0265 -3.523366,-0.0265 H 6.7454193 v 3.54893 3.54894 L 7.8597229,288.892 c 0.612908,-0.6118 1.1273614,-1.11234 1.1431639,-1.11234 0.015803,0 0.1493276,0.11284 0.2967253,0.25082 1.7813769,1.66744 4.0938449,2.7141 6.5609159,2.96944 0.426911,0.0442 1.681935,0.0465 2.108535,0.004 v -1.1e-4 c 3.07125,-0.30674 5.743102,-1.73986 7.677062,-4.11806 1.544256,-1.89896 2.443233,-4.35466 2.462474,-6.72658 l 0.0048,-0.60065 -1.779147,-0.01 z M 6.2086582,289.81332 c 0.022655,0.0252 0.046845,0.0522 0.069022,0.0771 7.354e-4,6e-4 0.00141,9.5e-4 0.00216,0.002 0.019868,0.0223 -0.00657,-0.008 -0.064298,-0.0726 -0.00278,-0.003 -0.00447,-0.005 -0.00687,-0.007 z m 0.1146251,0.14133 c 0.0051,0.0127 0.00868,0.021 0.018899,0.0476 0.00686,0.0178 -0.00584,-0.02 -0.018899,-0.0476 z m 0.103324,0.11616 c 0.00358,0.007 0.00981,0.0171 0.012841,0.0227 0.00415,9.5e-4 0.00826,0.003 0.012427,0.004 a 14.600957,14.972806 0 0 1 -0.021161,-0.026 c -0.00179,-2e-4 -0.00226,-2e-4 -0.0041,-5.9e-4 z"
       inkscape:connector-curvature="0" />
    <circle
       r="15.564582"
       cy="279.8512"
       cx="16.933332"
       id="circle1038"
       style="opacity:1;fill:none;fill-opacity:1;fill-rule:nonzero;stroke:none;stroke-width:0.18990648;stroke-miterlimit:4;stroke-dasharray:none;stroke-opacity:1" />
  </g>
</svg>
