<?xml version="1.0" encoding="UTF-8" standalone="no"?>
<!-- Created with Inkscape (http://www.inkscape.org/) -->

<svg
   xmlns:dc="http://purl.org/dc/elements/1.1/"
   xmlns:cc="http://creativecommons.org/ns#"
   xmlns:rdf="http://www.w3.org/1999/02/22-rdf-syntax-ns#"
   xmlns:svg="http://www.w3.org/2000/svg"
   xmlns="http://www.w3.org/2000/svg"
   xmlns:xlink="http://www.w3.org/1999/xlink"
   xmlns:sodipodi="http://sodipodi.sourceforge.net/DTD/sodipodi-0.dtd"
   xmlns:inkscape="http://www.inkscape.org/namespaces/inkscape"
   width="128"
   height="128"
   viewBox="0 0 33.866666 33.866668"
   version="1.1"
   id="svg8"
   inkscape:version="0.92.4 (5da689c313, 2019-01-14)"
   sodipodi:docname="livepatch.svg">
  <defs
     id="defs2">
    <linearGradient
       inkscape:collect="always"
       id="linearGradient891">
      <stop
         style="stop-color:#d0f0c6;stop-opacity:1"
         offset="0"
         id="stop887" />
      <stop
         style="stop-color:#f6fcf4;stop-opacity:1"
         offset="1"
         id="stop889" />
    </linearGradient>
    <linearGradient
       inkscape:collect="always"
       id="linearGradient1032">
      <stop
         style="stop-color:#7cd522;stop-opacity:1"
         offset="0"
         id="stop1028" />
      <stop
         style="stop-color:#50b421;stop-opacity:1"
         offset="1"
         id="stop1030" />
    </linearGradient>
    <linearGradient
       inkscape:collect="always"
       xlink:href="#linearGradient1032"
       id="linearGradient1034"
       x1="73.716393"
       y1="104.29868"
       x2="77.023636"
       y2="212.27557"
       gradientUnits="userSpaceOnUse"
       gradientTransform="matrix(0.19875607,0,0,0.19875607,1.0500216,251.89669)" />
    <linearGradient
       inkscape:collect="always"
       xlink:href="#linearGradient891"
       id="linearGradient893"
       x1="24.269621"
       y1="277.96326"
       x2="8.0234003"
       y2="284.1824"
       gradientUnits="userSpaceOnUse"
       gradientTransform="rotate(105,16.933328,279.85121)" />
  </defs>
  <sodipodi:namedview
     id="base"
     pagecolor="#ffffff"
     bordercolor="#666666"
     borderopacity="1.0"
     inkscape:pageopacity="0.0"
     inkscape:pageshadow="2"
     inkscape:zoom="1.1949"
     inkscape:cx="69.421064"
     inkscape:cy="-74.54682"
     inkscape:document-units="mm"
     inkscape:current-layer="layer1"
     showgrid="false"
     inkscape:window-width="1600"
     inkscape:window-height="837"
     inkscape:window-x="0"
     inkscape:window-y="27"
     inkscape:window-maximized="1"
     units="px" />
  <metadata
     id="metadata5">
    <rdf:RDF>
      <cc:Work
         rdf:about="">
        <dc:format>image/svg+xml</dc:format>
        <dc:type
           rdf:resource="http://purl.org/dc/dcmitype/StillImage" />
        <dc:title />
      </cc:Work>
    </rdf:RDF>
  </metadata>
  <g
     inkscape:label="Layer 1"
     inkscape:groupmode="layer"
     id="layer1"
     transform="translate(0,-263.13332)">
    <circle
       r="15.564582"
       cy="280.37708"
       cx="16.933332"
       id="circle1040"
       style="opacity:0.25;fill:#000000;fill-opacity:1;fill-rule:nonzero;stroke:none;stroke-width:0.18990648;stroke-miterlimit:4;stroke-dasharray:none;stroke-opacity:1" />
    <circle
       style="opacity:1;fill:url(#linearGradient1034);fill-opacity:1;fill-rule:nonzero;stroke:#2d6613;stroke-width:0.19;stroke-miterlimit:4;stroke-dasharray:none;stroke-opacity:1"
       id="path1026"
       cx="16.933332"
       cy="279.8512"
       r="15.564582" />
    <path
       inkscape:connector-curvature="0"
       d="m 27.739964,283.25815 c 0.274809,-1.04106 0.402995,-2.13158 0.368318,-3.24454 -0.09382,-3.01167 -1.450966,-5.91936 -3.708424,-7.94573 -1.244297,-1.11693 -2.633154,-1.89375 -4.253252,-2.37898 l -0.697189,-0.20886 -0.464091,1.73201 -0.464119,1.73212 0.313211,0.0839 c 2.801882,0.75179 4.940902,3.00443 5.518283,5.81127 0.250701,1.21873 0.218374,2.3133 -0.103765,3.51554 -0.474219,1.76981 -1.506933,3.23811 -3.015506,4.28749 -0.593658,0.41295 -0.426471,0.54459 -1.361171,-1.07109 l -0.804775,-1.39116 -0.917601,3.42454 -0.917576,3.42444 3.374261,0.91873 c 1.855781,0.50553 3.396518,0.91734 3.423509,0.91629 0.02918,-0.001 -0.268566,-0.55442 -0.733301,-1.36105 -0.430407,-0.74704 -0.779472,-1.36972 -0.775701,-1.38379 0.0038,-0.0141 0.206718,-0.15514 0.45094,-0.31344 2.394572,-1.55197 4.063957,-3.88712 4.767819,-6.54724 z m -3.411519,10.07192 c 0.0013,-0.002 -0.04987,0.004 -0.06869,0.005 -0.02413,0.01 -0.04805,0.0202 -0.07202,0.0304 0.03675,-0.008 0.08098,-0.0194 0.136622,-0.0341 0.0022,-4.5e-4 0.0044,-9e-4 0.0044,-9e-4 z m -0.232832,0.034 a 14.972806,14.600957 15 0 1 -0.06753,0.0334 c 0.0097,-0.002 0.01762,-0.004 0.03081,-0.006 0.01276,-0.009 0.02454,-0.0182 0.03675,-0.0274 z m -0.183583,0.0906 a 14.972806,14.600957 15 0 1 -0.259511,0.12803 c 0.02289,-0.005 0.04581,-0.0106 0.06968,-0.0139 0.02876,-0.0169 0.05658,-0.0338 0.06768,-0.0405 0.05352,-0.032 0.09246,-0.0557 0.122213,-0.0736 z m -0.247714,0.14629 c -0.0056,0.002 -0.01476,0.003 -0.01894,0.004 0.0017,10e-4 0.0019,0.005 0.0041,0.004 0.0034,-0.001 0.01199,-0.006 0.01533,-0.009 z m -8.403251,-5.77818 -0.279675,-0.0749 c -1.086279,-0.29169 -2.212477,-0.89406 -3.055747,-1.63479 -2.868344,-2.51949 -3.4412063,-6.72327 -1.350217,-9.90797 0.451864,-0.68822 1.213305,-1.48745 1.859345,-1.9517 0.314832,-0.22624 0.668913,-0.43772 0.712997,-0.42591 0.01932,0.005 0.386448,0.61804 0.815699,1.36186 0.429267,0.74384 0.792014,1.35552 0.806087,1.35929 0.0141,0.004 0.43596,-1.52464 0.93751,-3.39644 l 0.911925,-3.40336 -3.428003,-0.91853 -3.4280129,-0.91853 0.7860459,1.36423 c 0.43232,0.75037 0.782653,1.37685 0.778563,1.39211 -0.0041,0.0153 -0.147644,0.11504 -0.31907,0.22169 -2.0716783,1.28912 -3.6811855,3.2519 -4.5663497,5.56882 -0.1531864,0.40092 -0.4802311,1.61258 -0.5495914,2.03564 l 1.062e-4,3e-5 c -0.4986099,3.04599 0.1941495,5.99773 1.9907686,8.48132 1.4345735,1.98311 3.5739243,3.48704 5.8600433,4.11953 l 0.578889,0.16029 0.470138,-1.71594 z m -5.174647,-20.38005 c -0.03019,0.0153 -0.06253,0.0317 -0.092332,0.0467 -7.711e-4,5.6e-4 -0.00118,7.2e-4 -0.00245,10e-4 -0.026691,0.0134 0.00954,-0.005 0.086768,-0.0433 0.0037,-0.002 0.0059,-0.003 0.0086,-0.005 z m -0.1661805,0.0741 c -0.013561,0.002 -0.022614,0.003 -0.05087,0.006 -0.019005,0.002 0.020871,-6.2e-4 0.05087,-0.006 z m -0.1389457,0.0697 c -0.0078,0.002 -0.019106,0.005 -0.025239,0.006 -0.00195,0.004 -0.00497,0.007 -0.00707,0.0109 a 14.972806,14.600957 15 0 1 0.030601,-0.0138 c 7.108e-4,-0.002 7.108e-4,-0.002 0.00161,-0.004 z"
       style="opacity:0.25;fill:#000000;fill-opacity:1;stroke-width:0.94953233"
       id="path2010" />
    <path
       id="path894"
       style="opacity:1;fill:url(#linearGradient893);fill-opacity:1;stroke-width:0.94953233"
       d="m 27.739964,282.72898 c 0.274809,-1.04106 0.402995,-2.13158 0.368318,-3.24454 -0.09382,-3.01167 -1.450966,-5.91936 -3.708424,-7.94573 -1.244297,-1.11693 -2.633154,-1.89375 -4.253252,-2.37898 l -0.697189,-0.20886 -0.464091,1.73201 -0.464119,1.73212 0.313211,0.0839 c 2.801882,0.75179 4.940902,3.00443 5.518283,5.81127 0.250701,1.21873 0.218374,2.3133 -0.103765,3.51554 -0.474219,1.76981 -1.506933,3.23811 -3.015506,4.28749 -0.593658,0.41295 -0.426471,0.54459 -1.361171,-1.07109 l -0.804775,-1.39116 -0.917601,3.42454 -0.917576,3.42444 3.374261,0.91873 c 1.855781,0.50553 3.396518,0.91734 3.423509,0.91629 0.02918,-0.001 -0.268566,-0.55442 -0.733301,-1.36105 -0.430407,-0.74704 -0.779472,-1.36972 -0.775701,-1.38379 0.0038,-0.0141 0.206718,-0.15514 0.45094,-0.31344 2.394572,-1.55197 4.063957,-3.88712 4.767819,-6.54724 z m -3.411519,10.07192 c 0.0013,-0.002 -0.04987,0.004 -0.06869,0.005 -0.02413,0.01 -0.04805,0.0202 -0.07202,0.0304 0.03675,-0.008 0.08098,-0.0194 0.136622,-0.0341 0.0022,-4.5e-4 0.0044,-9e-4 0.0044,-9e-4 z m -0.232832,0.034 a 14.972806,14.600957 15 0 1 -0.06753,0.0334 c 0.0097,-0.002 0.01762,-0.004 0.03081,-0.006 0.01276,-0.009 0.02454,-0.0182 0.03675,-0.0274 z m -0.183583,0.0906 a 14.972806,14.600957 15 0 1 -0.259511,0.12803 c 0.02289,-0.005 0.04581,-0.0106 0.06968,-0.0139 0.02876,-0.0169 0.05658,-0.0338 0.06768,-0.0405 0.05352,-0.032 0.09246,-0.0557 0.122213,-0.0736 z m -0.247714,0.14629 c -0.0056,0.002 -0.01476,0.003 -0.01894,0.004 0.0017,0.001 0.0019,0.005 0.0041,0.004 0.0034,-0.001 0.01199,-0.006 0.01533,-0.009 z m -8.403251,-5.77818 -0.279675,-0.0749 c -1.086279,-0.29169 -2.212477,-0.89406 -3.055747,-1.63479 -2.868344,-2.51949 -3.4412063,-6.72327 -1.350217,-9.90797 0.451864,-0.68822 1.213305,-1.48745 1.859345,-1.9517 0.314832,-0.22624 0.668913,-0.43772 0.712997,-0.42591 0.01932,0.005 0.386448,0.61804 0.815699,1.36186 0.429267,0.74384 0.792014,1.35552 0.806087,1.35929 0.0141,0.004 0.43596,-1.52464 0.93751,-3.39644 l 0.911925,-3.40336 -3.428003,-0.91853 -3.4280129,-0.91853 0.7860459,1.36423 c 0.43232,0.75037 0.782653,1.37685 0.778563,1.39211 -0.0041,0.0153 -0.147644,0.11504 -0.31907,0.22169 -2.0716783,1.28912 -3.6811855,3.2519 -4.5663497,5.56882 -0.1531864,0.40092 -0.4802311,1.61258 -0.5495914,2.03564 l 1.062e-4,3e-5 c -0.4986099,3.04599 0.1941495,5.99773 1.9907686,8.48132 1.4345735,1.98311 3.5739243,3.48704 5.8600433,4.11953 l 0.578889,0.16029 0.470138,-1.71594 z m -5.174647,-20.38005 c -0.03019,0.0153 -0.06253,0.0317 -0.092332,0.0467 -7.711e-4,5.6e-4 -0.00118,7.2e-4 -0.00245,0.001 -0.026691,0.0134 0.00954,-0.005 0.086768,-0.0433 0.0037,-0.002 0.0059,-0.003 0.0086,-0.005 z m -0.1661805,0.0741 c -0.013561,0.002 -0.022614,0.003 -0.05087,0.006 -0.019005,0.002 0.020871,-6.2e-4 0.05087,-0.006 z m -0.1389457,0.0697 c -0.0078,0.002 -0.019106,0.005 -0.025239,0.006 -0.00195,0.004 -0.00497,0.007 -0.00707,0.0109 a 14.972806,14.600957 15 0 1 0.030601,-0.0138 c 7.108e-4,-0.002 7.108e-4,-0.002 0.00161,-0.004 z"
       inkscape:connector-curvature="0" />
    <circle
       r="15.564582"
       cy="279.8512"
       cx="16.933332"
       id="circle1038"
       style="opacity:1;fill:none;fill-opacity:1;fill-rule:nonzero;stroke:none;stroke-width:0.18990648;stroke-miterlimit:4;stroke-dasharray:none;stroke-opacity:1" />
  </g>
</svg>
