<?xml version="1.0" encoding="UTF-8" standalone="no"?>
<!-- Created with Inkscape (http://www.inkscape.org/) -->

<svg
   xmlns:osb="http://www.openswatchbook.org/uri/2009/osb"
   xmlns:dc="http://purl.org/dc/elements/1.1/"
   xmlns:cc="http://creativecommons.org/ns#"
   xmlns:rdf="http://www.w3.org/1999/02/22-rdf-syntax-ns#"
   xmlns:svg="http://www.w3.org/2000/svg"
   xmlns="http://www.w3.org/2000/svg"
   xmlns:sodipodi="http://sodipodi.sourceforge.net/DTD/sodipodi-0.dtd"
   xmlns:inkscape="http://www.inkscape.org/namespaces/inkscape"
   width="128"
   height="128"
   viewBox="0 0 33.866666 33.866668"
   version="1.1"
   id="svg8"
   inkscape:version="0.92.2 5c3e80d, 2017-08-06"
   sodipodi:docname="mplayer.svg">
  <defs
     id="defs2">
    <linearGradient
       osb:paint="solid"
       id="linearGradient6987">
      <stop
         id="stop6985"
         offset="0"
         style="stop-color:#77d2fb;stop-opacity:1;" />
    </linearGradient>
  </defs>
  <sodipodi:namedview
     id="base"
     pagecolor="#ffffff"
     bordercolor="#666666"
     borderopacity="1.0"
     inkscape:pageopacity="0.0"
     inkscape:pageshadow="2"
     inkscape:zoom="4.7796"
     inkscape:cx="45.183676"
     inkscape:cy="52.535429"
     inkscape:document-units="mm"
     inkscape:current-layer="layer1"
     showgrid="false"
     units="px"
     inkscape:window-width="1600"
     inkscape:window-height="803"
     inkscape:window-x="0"
     inkscape:window-y="0"
     inkscape:window-maximized="1" />
  <metadata
     id="metadata5">
    <rdf:RDF>
      <cc:Work
         rdf:about="">
        <dc:format>image/svg+xml</dc:format>
        <dc:type
           rdf:resource="http://purl.org/dc/dcmitype/StillImage" />
        <dc:title />
      </cc:Work>
    </rdf:RDF>
  </metadata>
  <g
     inkscape:label="Layer 1"
     inkscape:groupmode="layer"
     id="layer1"
     transform="translate(0,-263.13332)">
    <path
       style="opacity:0.25;fill:#1a1a1a;fill-opacity:1;stroke-width:0.04266973;image-rendering:optimizeSpeed"
       d="m 24.889586,264.97203 c -0.09992,0.008 -0.200992,0.0249 -0.303398,0.0527 l -17.2902209,4.63201 -4.7082095,1.2607 c -0.4074964,0.10881 -0.7190671,0.34785 -0.9302825,0.71693 -0.2154819,0.36911 -0.2667959,0.75761 -0.1558543,1.1651 l 4.5953006,17.14754 1.2994854,4.85089 c 0.1088056,0.40965 0.3478955,0.72102 0.7148554,0.93652 0.3690932,0.21121 0.7596853,0.25981 1.1671816,0.15102 l 17.5603692,-4.70338 4.440138,-1.18935 c 0.407497,-0.10881 0.71901,-0.34784 0.932362,-0.71693 0.211216,-0.36911 0.264663,-0.75895 0.155853,-1.16857 l -4.589758,-17.12119 -1.307798,-4.87931 c -0.108806,-0.40749 -0.347204,-0.71694 -0.714163,-0.93029 -0.277353,-0.15893 -0.566108,-0.227 -0.865861,-0.20434 z"
       id="path1113"
       inkscape:connector-curvature="0" />
    <path
       d="m 25.755168,264.46688 q -0.554706,-0.31789 -1.16915,-0.15148 l -17.2897752,4.63181 20.4814702,1.32915 -1.307827,-4.87929 c -0.108806,-0.40749 -0.347759,-0.71685 -0.714718,-0.93019 z M 7.3965165,294.08821 c 0.1088056,0.40963 0.3477577,0.72111 0.7147176,0.93659 0.3690932,0.21122 0.7595206,0.26029 1.167017,0.15149 L 26.838979,290.47301 6.0972225,289.23773 Z"
       id="path1077"
       inkscape:connector-curvature="0"
       style="fill:#2d68be;fill-opacity:1;stroke:#142f57;stroke-width:0.13404359;stroke-miterlimit:4;stroke-dasharray:none;stroke-opacity:1;image-rendering:optimizeSpeed" />
    <path
       d="m 31.278765,289.2836 c 0.407495,-0.1088 0.718984,-0.34776 0.932333,-0.71686 0.211215,-0.36909 0.264553,-0.75952 0.155744,-1.16915 l -4.589129,-17.12123 -20.4814702,-1.32915 -4.7086057,1.26087 c -0.4074963,0.10881 -0.7189841,0.34776 -0.9301995,0.71686 -0.2154819,0.3691 -0.2666861,0.7574 -0.1557445,1.16489 l 4.5955294,17.1479 20.7417565,1.23528 z"
       id="path1079"
       inkscape:connector-curvature="0"
       style="fill:#1c9bf5;fill-opacity:1;stroke:#142f57;stroke-width:0.13404359;stroke-miterlimit:4;stroke-dasharray:none;stroke-opacity:1;image-rendering:optimizeSpeed" />
    <g
       style="opacity:0.25;fill:#000000;image-rendering:optimizeSpeed"
       id="g1107"
       transform="matrix(0.04266973,0,0,0.04266973,-4.9158349,258.60506)">
      <g
         id="g1105"
         style="fill:#000000">
        <path
           style="fill:#000000;fill-opacity:1"
           inkscape:connector-curvature="0"
           id="path1103"
           d="m 764.05,290.05 q 0,-12.4 -8.8,-21.2 c -5.85,-5.85 -12.95,-8.8 -21.2,-8.8 h -444 c -8.25,0 -15.35,2.95 -21.2,8.8 -5.85,5.85 -8.8,12.95 -8.8,21.2 v 444 c 0,8.25 2.95,15.35 8.8,21.2 5.85,5.85 12.95,8.8 21.2,8.8 h 444 c 8.25,0 15.35,-2.95 21.2,-8.8 5.85,-5.85 8.8,-12.95 8.8,-21.2 z" />
      </g>
    </g>
    <g
       transform="matrix(0.04266973,0,0,0.04266973,-4.9158349,257.89575)"
       id="g1087"
       style="stroke:#1b3f73;stroke-width:3.14142084;stroke-miterlimit:4;stroke-dasharray:none;stroke-opacity:1;image-rendering:optimizeSpeed">
      <g
         id="g1085"
         style="stroke:#1b3f73;stroke-width:3.14142084;stroke-miterlimit:4;stroke-dasharray:none;stroke-opacity:1">
        <path
           d="m 764.05,290.05 q 0,-12.4 -8.8,-21.2 c -5.85,-5.85 -12.95,-8.8 -21.2,-8.8 h -444 c -8.25,0 -15.35,2.95 -21.2,8.8 -5.85,5.85 -8.8,12.95 -8.8,21.2 v 444 c 0,8.25 2.95,15.35 8.8,21.2 5.85,5.85 12.95,8.8 21.2,8.8 h 444 c 8.25,0 15.35,-2.95 21.2,-8.8 5.85,-5.85 8.8,-12.95 8.8,-21.2 z"
           id="path1083"
           inkscape:connector-curvature="0"
           style="fill:#ffffff;fill-opacity:1;stroke:#1b3f73;stroke-width:3.14142084;stroke-miterlimit:4;stroke-dasharray:none;stroke-opacity:1" />
      </g>
    </g>
    <g
       style="fill:#000000;fill-opacity:1;stroke:none;stroke-width:3.14142084;stroke-miterlimit:4;stroke-dasharray:none;stroke-opacity:1;image-rendering:optimizeSpeed;opacity:0.25"
       id="g885"
       transform="matrix(0.04266973,0,0,0.04266973,-4.9158349,258.42492)">
      <g
         style="fill:#000000;fill-opacity:1;stroke:none;stroke-width:3.14142084;stroke-miterlimit:4;stroke-dasharray:none;stroke-opacity:1"
         id="g883">
        <path
           style="fill:#000000;fill-opacity:1;stroke:none;stroke-width:3.14142084;stroke-miterlimit:4;stroke-dasharray:none;stroke-opacity:1"
           inkscape:connector-curvature="0"
           id="path881"
           d="m 455.9,395.95 q -7.55,-5.25 -16.6,-4.1 c -6.05,0.75 -11.05,3.4 -15.1,7.95 -4.05,4.55 -6.1,9.9 -6.1,16 v 192.5 c 0,6.1 2.05,11.45 6.1,16 4.05,4.55 9.05,7.2 15.1,7.95 6.05,0.75 11.55,-0.65 16.6,-4.1 L 595.55,531.9 c 4.45,-3.05 7.5,-7.15 9.2,-12.2 1.7,-5.1 1.7,-10.2 0,-15.25 -1.7,-5.05 -4.75,-9.15 -9.15,-12.25 z" />
      </g>
    </g>
    <g
       transform="matrix(0.04266973,0,0,0.04266973,-4.9158349,257.89575)"
       id="g1093"
       style="fill:#3d78c6;fill-opacity:1;stroke:#1b3f73;stroke-width:3.14142084;stroke-miterlimit:4;stroke-dasharray:none;stroke-opacity:1;image-rendering:optimizeSpeed">
      <g
         id="g1091"
         style="fill:#3d78c6;fill-opacity:1;stroke:#1b3f73;stroke-width:3.14142084;stroke-miterlimit:4;stroke-dasharray:none;stroke-opacity:1">
        <path
           d="m 455.9,395.95 q -7.55,-5.25 -16.6,-4.1 c -6.05,0.75 -11.05,3.4 -15.1,7.95 -4.05,4.55 -6.1,9.9 -6.1,16 v 192.5 c 0,6.1 2.05,11.45 6.1,16 4.05,4.55 9.05,7.2 15.1,7.95 6.05,0.75 11.55,-0.65 16.6,-4.1 L 595.55,531.9 c 4.45,-3.05 7.5,-7.15 9.2,-12.2 1.7,-5.1 1.7,-10.2 0,-15.25 -1.7,-5.05 -4.75,-9.15 -9.15,-12.25 z"
           id="path1089"
           inkscape:connector-curvature="0"
           style="fill:#3d78c6;fill-opacity:1;stroke:#1b3f73;stroke-width:3.14142084;stroke-miterlimit:4;stroke-dasharray:none;stroke-opacity:1" />
      </g>
    </g>
  </g>
</svg>
