<?xml version="1.0" encoding="UTF-8" standalone="no"?>
<svg
   xmlns:dc="http://purl.org/dc/elements/1.1/"
   xmlns:cc="http://creativecommons.org/ns#"
   xmlns:rdf="http://www.w3.org/1999/02/22-rdf-syntax-ns#"
   xmlns:svg="http://www.w3.org/2000/svg"
   xmlns="http://www.w3.org/2000/svg"
   xmlns:sodipodi="http://sodipodi.sourceforge.net/DTD/sodipodi-0.dtd"
   xmlns:inkscape="http://www.inkscape.org/namespaces/inkscape"
   viewBox="0 0 128 128"
   version="1.1"
   id="svg25"
   sodipodi:docname="ms-word.svg"
   width="128"
   height="128"
   inkscape:version="0.92.4 (5da689c313, 2019-01-14)">
  <metadata
     id="metadata31">
    <rdf:RDF>
      <cc:Work
         rdf:about="">
        <dc:format>image/svg+xml</dc:format>
        <dc:type
           rdf:resource="http://purl.org/dc/dcmitype/StillImage" />
        <dc:title>OfficeCore10_32x_24x_20x_16x_01-22-2019</dc:title>
      </cc:Work>
    </rdf:RDF>
  </metadata>
  <defs
     id="defs29" />
  <sodipodi:namedview
     pagecolor="#ffffff"
     bordercolor="#666666"
     borderopacity="1"
     objecttolerance="10"
     gridtolerance="10"
     guidetolerance="10"
     inkscape:pageopacity="0"
     inkscape:pageshadow="2"
     inkscape:window-width="1600"
     inkscape:window-height="838"
     id="namedview27"
     showgrid="false"
     inkscape:zoom="2.6074563"
     inkscape:cx="52.52435"
     inkscape:cy="39.785795"
     inkscape:window-x="-8"
     inkscape:window-y="-8"
     inkscape:window-maximized="1"
     inkscape:current-layer="svg25" />
  <title
     id="title2">OfficeCore10_32x_24x_20x_16x_01-22-2019</title>
  <g
     id="g859"
     transform="matrix(1.0031496,0,0,1.0031496,-0.20157039,-0.29606357)">
    <path
       style="opacity:0.25;fill:#000000;stroke-width:3.73822594"
       inkscape:connector-curvature="0"
       id="path4732"
       d="M 123.81161,91.258632 H 34.094187 v 21.183258 a 4.9843263,4.9843263 0 0 0 4.984331,4.98433 h 79.748922 a 4.9843263,4.9843263 0 0 0 4.98417,-4.98433 z" />
    <path
       d="M 118.82725,10.762165 H 39.078249 a 4.9842516,4.9842516 0 0 0 -4.984062,4.984214 V 36.929747 L 78.952899,50.013539 123.81161,36.929747 V 15.746379 a 4.9842889,4.9842889 0 0 0 -4.98436,-4.984214 z"
       id="path4"
       inkscape:connector-curvature="0"
       style="fill:#41a5ee;stroke:#0c2c66;stroke-width:0.75590551;stroke-miterlimit:4;stroke-dasharray:none;stroke-opacity:1" />
    <polygon
       transform="matrix(3.7382261,0,0,3.7382261,4.1883784,3.2857129)"
       points="8,16 20,19.5 32,16 32,9 8,9 "
       id="polygon6"
       style="fill:#2b7cd3;stroke:#0c2c66;stroke-width:0.20220968;stroke-miterlimit:4;stroke-dasharray:none;stroke-opacity:1" />
    <polygon
       transform="matrix(3.7382261,0,0,3.7382261,4.1883784,3.2857129)"
       points="8,23 20,26.5 32,23 32,16 8,16 "
       id="polygon8"
       style="fill:#185abd;stroke:#0c2c66;stroke-width:0.20220968;stroke-miterlimit:4;stroke-dasharray:none;stroke-opacity:1" />
    <path
       d="M 123.81161,89.264911 H 34.094187 v 21.183259 a 4.9843263,4.9843263 0 0 0 4.984331,4.98433 h 79.748922 a 4.9843263,4.9843263 0 0 0 4.98417,-4.98433 z"
       id="path10"
       inkscape:connector-curvature="0"
       style="fill:#103f91;stroke:#0c2c66;stroke-width:0.75590551;stroke-miterlimit:4;stroke-dasharray:none;stroke-opacity:1" />
    <path
       style="opacity:0.25;fill:#000000;stroke-width:3.73822594"
       inkscape:connector-curvature="0"
       d="M 9.1725203,35.185242 H 59.015674 a 4.9842889,4.9842889 0 0 1 4.984321,4.984288 v 49.843001 a 4.9843263,4.9843263 0 0 1 -4.984361,4.984327 H 9.1725502 A 4.9843263,4.9843263 0 0 1 4.1883784,90.012531 V 40.16953 a 4.9842889,4.9842889 0 0 1 4.9841419,-4.984288 z"
       data-name="Back Plate"
       id="path4730" />
    <path
       id="Back_Plate"
       data-name="Back Plate"
       d="M 9.1725203,33.191521 H 59.015674 a 4.9842889,4.9842889 0 0 1 4.984321,4.984289 v 49.843001 a 4.9843263,4.9843263 0 0 1 -4.984361,4.984326 H 9.1725502 A 4.9843263,4.9843263 0 0 1 4.1883784,88.018811 V 38.17581 a 4.9842889,4.9842889 0 0 1 4.9841419,-4.984289 z"
       inkscape:connector-curvature="0"
       style="fill:#185abd;stroke:#0c2c66;stroke-width:0.75590551;stroke-miterlimit:4;stroke-dasharray:none;stroke-opacity:1" />
    <path
       id="Letter"
       d="M 48.86018,81.788459 H 42.131373 L 34.281098,55.9947 26.057001,81.788459 h -6.728807 l -7.476452,-37.38226 h 6.728807 l 5.233516,26.167582 7.850275,-25.419936 h 5.607339 l 7.476452,25.419936 5.233517,-26.167582 h 6.354984 z"
       inkscape:connector-curvature="0"
       style="fill:#ffffff;stroke-width:3.73822594" />
  </g>
</svg>
