<?xml version="1.0" encoding="UTF-8" standalone="no"?>
<svg
   xmlns:osb="http://www.openswatchbook.org/uri/2009/osb"
   xmlns:dc="http://purl.org/dc/elements/1.1/"
   xmlns:cc="http://creativecommons.org/ns#"
   xmlns:rdf="http://www.w3.org/1999/02/22-rdf-syntax-ns#"
   xmlns:svg="http://www.w3.org/2000/svg"
   xmlns="http://www.w3.org/2000/svg"
   xmlns:xlink="http://www.w3.org/1999/xlink"
   xmlns:sodipodi="http://sodipodi.sourceforge.net/DTD/sodipodi-0.dtd"
   xmlns:inkscape="http://www.inkscape.org/namespaces/inkscape"
   width="128"
   height="128"
   viewBox="0 0 128 128"
   version="1.1"
   id="svg340"
   sodipodi:docname="network-server.svg"
   inkscape:version="0.92.4 (5da689c313, 2019-01-14)">
  <metadata
     id="metadata344">
    <rdf:RDF>
      <cc:Work
         rdf:about="">
        <dc:format>image/svg+xml</dc:format>
        <dc:type
           rdf:resource="http://purl.org/dc/dcmitype/StillImage" />
        <dc:title />
      </cc:Work>
    </rdf:RDF>
  </metadata>
  <sodipodi:namedview
     pagecolor="#ffffff"
     bordercolor="#666666"
     borderopacity="1"
     objecttolerance="10"
     gridtolerance="10"
     guidetolerance="10"
     inkscape:pageopacity="0"
     inkscape:pageshadow="2"
     inkscape:window-width="1600"
     inkscape:window-height="838"
     id="namedview342"
     showgrid="false"
     inkscape:zoom="0.92187498"
     inkscape:cx="338.50708"
     inkscape:cy="67.662907"
     inkscape:window-x="-8"
     inkscape:window-y="-8"
     inkscape:window-maximized="1"
     inkscape:current-layer="svg340" />
  <defs
     id="defs205">
    <linearGradient
       id="linearGradient2245"
       inkscape:collect="always">
      <stop
         id="stop2241"
         offset="0"
         style="stop-color:#686ad3;stop-opacity:1" />
      <stop
         id="stop2243"
         offset="1"
         style="stop-color:#5253ad;stop-opacity:1" />
    </linearGradient>
    <linearGradient
       id="linearGradient5420"
       inkscape:collect="always">
      <stop
         id="stop5416"
         offset="0"
         style="stop-color:#d5e3e8;stop-opacity:1" />
      <stop
         id="stop5418"
         offset="1"
         style="stop-color:#a0a0a1;stop-opacity:1" />
    </linearGradient>
    <linearGradient
       id="linearGradient5408"
       inkscape:collect="always">
      <stop
         id="stop5404"
         offset="0"
         style="stop-color:#dfe5e8;stop-opacity:1" />
      <stop
         id="stop5406"
         offset="1"
         style="stop-color:#c3cacc;stop-opacity:1" />
    </linearGradient>
    <linearGradient
       osb:paint="solid"
       id="linearGradient6987">
      <stop
         id="stop6985"
         offset="0"
         style="stop-color:#77d2fb;stop-opacity:1;" />
    </linearGradient>
    <radialGradient
       gradientUnits="userSpaceOnUse"
       gradientTransform="matrix(0.64456521,0,0,0.16069497,-265.06463,45.453755)"
       r="74.884071"
       fy="372.05499"
       fx="502.62054"
       cy="372.05499"
       cx="502.62054"
       id="radialGradient5414"
       xlink:href="#linearGradient5408"
       inkscape:collect="always" />
    <linearGradient
       gradientTransform="matrix(0.68391814,0,0,0.68405107,-284.84423,-142.19011)"
       gradientUnits="userSpaceOnUse"
       y2="349.10312"
       x2="504.37988"
       y1="216.14406"
       x1="496.5524"
       id="linearGradient5422"
       xlink:href="#linearGradient5420"
       inkscape:collect="always" />
    <linearGradient
       y2="324.15189"
       x2="502.79834"
       y1="216.4304"
       x1="501.82697"
       gradientTransform="matrix(0.67184429,0,0,0.67197487,-279.60277,-139.57978)"
       gradientUnits="userSpaceOnUse"
       id="linearGradient5448"
       xlink:href="#linearGradient2245"
       inkscape:collect="always" />
    <linearGradient
       osb:paint="solid"
       id="linearGradient6088">
      <stop
         id="stop6086"
         offset="0"
         style="stop-color:#51b3e3;stop-opacity:1;" />
    </linearGradient>
    <linearGradient
       inkscape:collect="always"
       id="linearGradient6756">
      <stop
         style="stop-color:#51b2e3;stop-opacity:1"
         offset="0"
         id="stop6752" />
      <stop
         style="stop-color:#5bbeea;stop-opacity:1"
         offset="1"
         id="stop6754" />
    </linearGradient>
    <linearGradient
       gradientTransform="matrix(0.94730288,0,-0.039432,0.94448218,207.66192,-368.13106)"
       gradientUnits="userSpaceOnUse"
       y2="265.51105"
       x2="65.002815"
       y1="207.37984"
       x1="65.336906"
       id="linearGradient6750"
       xlink:href="#linearGradient6756"
       inkscape:collect="always" />
  </defs>
  <g
     transform="matrix(0.21471198,0,0,0.19952819,-259.50782,-55.13739)"
     id="g1485" />
  <g
     transform="matrix(0.21471198,0,0,0.19952819,-259.50782,-55.13739)"
     id="g1487" />
  <g
     transform="matrix(0.21471198,0,0,0.19952819,-259.50782,-55.13739)"
     id="g1489" />
  <g
     transform="matrix(0.21471198,0,0,0.19952819,-259.50782,-55.13739)"
     id="g1491" />
  <g
     transform="matrix(0.21471198,0,0,0.19952819,-259.50782,-55.13739)"
     id="g1493" />
  <g
     transform="matrix(0.21471198,0,0,0.19952819,-259.50782,-55.13739)"
     id="g1495" />
  <g
     transform="matrix(0.21471198,0,0,0.19952819,-259.50782,-55.13739)"
     id="g1497" />
  <g
     transform="matrix(0.21471198,0,0,0.19952819,-259.50782,-55.13739)"
     id="g1499" />
  <g
     transform="matrix(0.21471198,0,0,0.19952819,-259.50782,-55.13739)"
     id="g1501" />
  <g
     transform="matrix(0.21471198,0,0,0.19952819,-259.50782,-55.13739)"
     id="g1503" />
  <g
     transform="matrix(0.21471198,0,0,0.19952819,-259.50782,-55.13739)"
     id="g1505" />
  <g
     transform="matrix(0.21471198,0,0,0.19952819,-259.50782,-55.13739)"
     id="g1507" />
  <g
     transform="matrix(0.21471198,0,0,0.19952819,-259.50782,-55.13739)"
     id="g1509" />
  <g
     transform="matrix(0.21471198,0,0,0.19952819,-259.50782,-55.13739)"
     id="g1511" />
  <g
     transform="matrix(0.21471198,0,0,0.19952819,-259.50782,-55.13739)"
     id="g1513" />
  <g
     style="stroke-width:4.08449793"
     inkscape:transform-center-y="-9.4924686"
     inkscape:transform-center-x="5.4653607"
     inkscape:label="Capa 1"
     id="layer1-4-3"
     transform="matrix(2.1523677,0,0,2.1573659,-1145.4737,-1153.9306)">
    <g
       style="stroke-width:4.08449793"
       id="layer1-3-65-9"
       inkscape:label="Capa 1"
       transform="translate(0.41988239,0.03484499)" />
  </g>
  <g
     style="stroke-width:4.08449793"
     inkscape:transform-center-y="-9.4924686"
     inkscape:transform-center-x="5.4653607"
     inkscape:label="Capa 1"
     id="layer1-4"
     transform="matrix(2.1523677,0,0,2.1573659,-1145.4737,-1153.8302)">
    <g
       style="stroke-width:4.08449793"
       id="layer1-3-65"
       inkscape:label="Capa 1"
       transform="translate(0.41988239,0.03484499)" />
  </g>
  <circle
     style="fill:url(#c);stroke-width:1.06241596"
     cx="-328.66809"
     cy="33.28907"
     r="0"
     id="circle1645" />
  <circle
     style="fill:url(#b);stroke-width:1.06241596"
     cx="-399.10471"
     cy="33.378891"
     r="0"
     id="circle1647" />
  <g
     style="stroke-width:4.08449793"
     inkscape:transform-center-y="-9.4924686"
     inkscape:transform-center-x="5.4653607"
     inkscape:label="Capa 1"
     id="layer1-4-3-3"
     transform="matrix(2.1523677,0,0,2.1573659,-950.32652,-1153.9306)">
    <g
       style="stroke-width:4.08449793"
       id="layer1-3-65-9-90"
       inkscape:label="Capa 1"
       transform="translate(0.41988239,0.03484499)" />
  </g>
  <g
     style="stroke-width:4.08449793"
     inkscape:transform-center-y="-9.4924686"
     inkscape:transform-center-x="5.4653607"
     inkscape:label="Capa 1"
     id="layer1-4-5"
     transform="matrix(2.1523677,0,0,2.1573659,-950.32652,-1153.8302)">
    <g
       style="stroke-width:4.08449793"
       id="layer1-3-65-22"
       inkscape:label="Capa 1"
       transform="translate(0.41988239,0.03484499)" />
  </g>
  <g
     style="stroke-width:4.08449793"
     inkscape:transform-center-y="-9.4924686"
     inkscape:transform-center-x="5.4653607"
     inkscape:label="Capa 1"
     id="layer1-4-3-2"
     transform="matrix(2.052953,0,0,2.0577205,-1088.4028,-1076.0273)">
    <g
       style="stroke-width:4.08449793"
       id="layer1-3-65-9-9"
       inkscape:label="Capa 1"
       transform="translate(0.41988239,0.03484499)" />
  </g>
  <g
     style="stroke-width:4.08449793"
     inkscape:transform-center-y="-9.4924686"
     inkscape:transform-center-x="5.4653607"
     inkscape:label="Capa 1"
     id="layer1-4-1"
     transform="matrix(2.052953,0,0,2.0577205,-1088.4028,-1075.9315)">
    <g
       style="stroke-width:4.08449793"
       id="layer1-3-65-2"
       inkscape:label="Capa 1"
       transform="translate(0.41988239,0.03484499)" />
  </g>
  <g
     style="stroke-width:4.08449793"
     inkscape:transform-center-y="-9.4924686"
     inkscape:transform-center-x="5.4653607"
     inkscape:label="Capa 1"
     id="layer1-4-3-90"
     transform="matrix(2.1523677,0,0,2.1573659,-961.45412,-1153.9306)">
    <g
       style="stroke-width:4.08449793"
       id="layer1-3-65-9-5"
       inkscape:label="Capa 1"
       transform="translate(0.41988239,0.03484499)" />
  </g>
  <g
     style="stroke-width:4.08449793"
     inkscape:transform-center-y="-9.4924686"
     inkscape:transform-center-x="5.4653607"
     inkscape:label="Capa 1"
     id="layer1-4-22"
     transform="matrix(2.1523677,0,0,2.1573659,-961.45412,-1153.8302)">
    <g
       style="stroke-width:4.08449793"
       id="layer1-3-65-7"
       inkscape:label="Capa 1"
       transform="translate(0.41988239,0.03484499)" />
  </g>
  <circle
     style="fill:url(#c);stroke-width:1.06241596"
     cx="-144.64845"
     cy="33.28907"
     r="0"
     id="circle1645-3" />
  <circle
     style="fill:url(#b);stroke-width:1.06241596"
     cx="-215.08508"
     cy="33.378891"
     r="0"
     id="circle1647-7" />
  <g
     style="stroke-width:4.08449793"
     inkscape:transform-center-y="-9.4924686"
     inkscape:transform-center-x="5.4653607"
     inkscape:label="Capa 1"
     id="layer1-4-3-3-9"
     transform="matrix(2.1523677,0,0,2.1573659,-766.30688,-1153.9306)">
    <g
       style="stroke-width:4.08449793"
       id="layer1-3-65-9-90-0"
       inkscape:label="Capa 1"
       transform="translate(0.41988239,0.03484499)" />
  </g>
  <g
     style="stroke-width:4.08449793"
     inkscape:transform-center-y="-9.4924686"
     inkscape:transform-center-x="5.4653607"
     inkscape:label="Capa 1"
     id="layer1-4-5-2"
     transform="matrix(2.1523677,0,0,2.1573659,-766.30688,-1153.8302)">
    <g
       style="stroke-width:4.08449793"
       id="layer1-3-65-22-3"
       inkscape:label="Capa 1"
       transform="translate(0.41988239,0.03484499)" />
  </g>
  <g
     style="stroke-width:4.08449793"
     inkscape:transform-center-y="-9.4924686"
     inkscape:transform-center-x="5.4653607"
     inkscape:label="Capa 1"
     id="layer1-4-3-2-9"
     transform="matrix(2.052953,0,0,2.0577205,-904.38313,-1076.0273)">
    <g
       style="stroke-width:4.08449793"
       id="layer1-3-65-9-9-9"
       inkscape:label="Capa 1"
       transform="translate(0.41988239,0.03484499)" />
  </g>
  <g
     style="stroke-width:4.08449793"
     inkscape:transform-center-y="-9.4924686"
     inkscape:transform-center-x="5.4653607"
     inkscape:label="Capa 1"
     id="layer1-4-1-7"
     transform="matrix(2.052953,0,0,2.0577205,-904.38313,-1075.9315)">
    <g
       style="stroke-width:4.08449793"
       id="layer1-3-65-2-0"
       inkscape:label="Capa 1"
       transform="translate(0.41988239,0.03484499)" />
  </g>
  <g
     style="stroke-width:4.08449793"
     inkscape:transform-center-y="-9.4924686"
     inkscape:transform-center-x="5.4653607"
     inkscape:label="Capa 1"
     id="layer1-4-3-9"
     transform="matrix(2.1523677,0,0,2.1573659,-781.47947,-1163.7897)">
    <g
       style="stroke-width:4.08449793"
       id="layer1-3-65-9-0"
       inkscape:label="Capa 1"
       transform="translate(0.41988239,0.03484499)" />
  </g>
  <g
     style="stroke-width:4.08449793"
     inkscape:transform-center-y="-9.4924686"
     inkscape:transform-center-x="5.4653607"
     inkscape:label="Capa 1"
     id="layer1-4-52"
     transform="matrix(2.1523677,0,0,2.1573659,-781.47947,-1163.6893)">
    <g
       style="stroke-width:4.08449793"
       id="layer1-3-65-27"
       inkscape:label="Capa 1"
       transform="translate(0.41988239,0.03484499)" />
  </g>
  <g
     style="stroke-width:4.08449793"
     inkscape:transform-center-y="-9.4924686"
     inkscape:transform-center-x="5.4653607"
     inkscape:label="Capa 1"
     id="layer1-4-3-2-2"
     transform="matrix(2.052953,0,0,2.0577205,-919.55572,-1085.8865)">
    <g
       style="stroke-width:4.08449793"
       id="layer1-3-65-9-9-3"
       inkscape:label="Capa 1"
       transform="translate(0.41988239,0.03484499)" />
  </g>
  <g
     style="stroke-width:4.08449793"
     inkscape:transform-center-y="-9.4924686"
     inkscape:transform-center-x="5.4653607"
     inkscape:label="Capa 1"
     id="layer1-4-1-9"
     transform="matrix(2.052953,0,0,2.0577205,-919.55572,-1085.7907)">
    <g
       style="stroke-width:4.08449793"
       id="layer1-3-65-2-9"
       inkscape:label="Capa 1"
       transform="translate(0.41988239,0.03484499)" />
  </g>
  <g
     style="stroke-width:4.08449793"
     inkscape:transform-center-y="-9.4924686"
     inkscape:transform-center-x="5.4653607"
     inkscape:label="Capa 1"
     id="layer1-4-3-39"
     transform="matrix(2.0525056,0,0,2.057272,-1064.8653,-1099.1717)">
    <g
       style="stroke-width:4.08449793"
       id="layer1-3-65-9-05"
       inkscape:label="Capa 1"
       transform="translate(0.41988239,0.03484499)" />
  </g>
  <g
     style="stroke-width:4.08449793"
     inkscape:transform-center-y="-9.4924686"
     inkscape:transform-center-x="5.4653607"
     inkscape:label="Capa 1"
     id="layer1-4-2"
     transform="matrix(2.0525056,0,0,2.057272,-1064.8653,-1099.076)">
    <g
       style="stroke-width:4.08449793"
       id="layer1-3-65-273"
       inkscape:label="Capa 1"
       transform="translate(0.41988239,0.03484499)" />
  </g>
  <g
     transform="matrix(1.062416,0,0,1.062416,195.78378,-317.57175)"
     style="opacity:1"
     id="g1068" />
  <g
     style="stroke-width:4.08449793"
     inkscape:transform-center-y="-9.4924686"
     inkscape:transform-center-x="5.4653607"
     inkscape:label="Capa 1"
     id="layer1-4-9-22"
     transform="matrix(2.049874,0,0,2.0546342,-1450.396,-1164.4422)">
    <g
       style="stroke-width:4.08449793"
       id="layer1-3-65-0-7"
       inkscape:label="Capa 1"
       transform="translate(0.41988239,0.03484499)" />
  </g>
  <g
     style="stroke-width:4.08449793"
     inkscape:transform-center-y="-9.4924686"
     inkscape:transform-center-x="5.4653607"
     inkscape:label="Capa 1"
     id="layer1-4-3-1"
     transform="matrix(2.049874,0,0,2.0546342,-1450.396,-1164.3467)">
    <g
       style="stroke-width:4.08449793"
       id="layer1-3-65-7-4"
       inkscape:label="Capa 1"
       transform="translate(0.41988239,0.03484499)" />
  </g>
  <g
     style="stroke-width:4.08449793"
     inkscape:transform-center-y="-9.4924686"
     inkscape:transform-center-x="5.4653607"
     inkscape:label="Capa 1"
     id="layer1-4-9-2"
     transform="matrix(2.049874,0,0,2.0546342,-1575.6546,-1331.1708)">
    <g
       style="stroke-width:4.08449793"
       id="layer1-3-65-0-2"
       inkscape:label="Capa 1"
       transform="translate(0.41988239,0.03484499)" />
  </g>
  <g
     style="stroke-width:4.08449793"
     inkscape:transform-center-y="-9.4924686"
     inkscape:transform-center-x="5.4653607"
     inkscape:label="Capa 1"
     id="layer1-4-7"
     transform="matrix(2.049874,0,0,2.0546342,-1575.6546,-1331.0752)">
    <g
       style="stroke-width:4.08449793"
       id="layer1-3-65-3"
       inkscape:label="Capa 1"
       transform="translate(0.41988239,0.03484499)" />
  </g>
  <g
     style="stroke-width:4.08449793"
     inkscape:transform-center-y="-9.4924686"
     inkscape:transform-center-x="5.4653607"
     inkscape:label="Capa 1"
     id="layer1-4-9"
     transform="matrix(2.049874,0,0,2.0546342,-1450.396,-1164.4423)">
    <g
       style="stroke-width:4.08449793"
       id="layer1-3-65-0"
       inkscape:label="Capa 1"
       transform="translate(0.41988239,0.03484499)" />
  </g>
  <g
     style="stroke-width:4.08449793"
     inkscape:transform-center-y="-9.4924686"
     inkscape:transform-center-x="5.4653607"
     inkscape:label="Capa 1"
     id="layer1-4-32"
     transform="matrix(2.049874,0,0,2.0546342,-1450.396,-1164.3467)">
    <g
       style="stroke-width:4.08449793"
       id="layer1-3-65-76"
       inkscape:label="Capa 1"
       transform="translate(0.41988239,0.03484499)" />
  </g>
  <g
     id="g2254"
     transform="matrix(1.062416,0,0,1.062416,1.4160154,-0.24969984)">
    <path
       inkscape:connector-curvature="0"
       id="path869"
       d="m 20.42965,5.8444187 c -1.03149,-0.0019 -1.9231,0.169701 -2.648,0.529663 -1.17938,0.437367 -1.67915,1.257298 -2.01932,2.592643 L 7.6255897,95.209195 c -0.0399,0.423421 -0.0143,0.834671 0.0684,1.226948 0.002,0.01134 0.007,0.02268 0.009,0.03402 -0.0143,0.80039 0.0228,1.66148 0.0811,2.531339 0.07,3.765768 0.27041,8.137098 0.60525,12.057068 0.18348,3.25773 2.1824803,5.89157 4.8943003,5.89157 h 0.29001 6.89019 76.59562 0.29001 6.8902 0.29004 c 2.71181,0 4.71261,-2.63384 4.89609,-5.89157 0.33483,-3.91997 0.53523,-8.2913 0.60526,-12.057068 0.058,-0.867856 0.0952,-1.727093 0.081,-2.525972 0.003,-0.01134 0.006,-0.02646 0.009,-0.0378 0.0827,-0.392315 0.10843,-0.803528 0.0684,-1.226986 L 102.05091,8.9667987 c -0.3402,-1.335344 -0.83996,-2.155275 -2.01933,-2.592642 -0.72491,-0.360189 -1.61653,-0.531515 -2.648,-0.529701 l -38.47704,0.06312 z"
       style="opacity:0.25;fill:#000000;fill-opacity:1;stroke:none;stroke-width:0.73227584;stroke-miterlimit:4;stroke-dasharray:none;stroke-opacity:1" />
    <path
       inkscape:connector-curvature="0"
       id="rect5373"
       d="m 9.3375197,91.035765 c -1.78962,0.310299 -1.7481,3.215433 -1.5541,6.118035 0.07,3.76577 0.27063,8.1357 0.60547,12.05571 0.18348,3.25773 2.1831603,5.89323 4.8949803,5.89323 h 0.29022 6.89049 76.59473 0.29023 6.89052 0.29023 c 2.71181,0 4.71151,-2.6355 4.89499,-5.89323 0.33483,-3.92001 0.53543,-8.28994 0.60546,-12.05571 0.194,-2.902602 0.23554,-5.807925 -1.55409,-6.118035 H 101.29626 62.49733 55.31688 16.51794 Z"
       style="opacity:1;fill:url(#radialGradient5414);fill-opacity:1;stroke:#808080;stroke-width:0.73162615;stroke-miterlimit:4;stroke-dasharray:none;stroke-opacity:1" />
    <path
       style="opacity:1;fill:#f3fdff;fill-opacity:1;stroke:none;stroke-width:3.37765121;stroke-miterlimit:4;stroke-dasharray:none;stroke-opacity:1"
       d="m 20.43048,5.0859437 c -1.03149,-0.0017 -1.92366,0.169323 -2.64856,0.529209 -1.17938,0.437367 -1.67894,1.257222 -2.01912,2.592567 L 7.6248497,94.450115 c -0.0399,0.423458 -0.0139,0.834368 0.0689,1.226645 0.0332,0.156851 0.0752,0.310678 0.1258,0.461254 0.0253,0.07521 0.0529,0.149669 0.0823,0.22337 0.0885,0.220347 0.19547,0.432643 0.31877,0.635263 0.20554,0.33789 0.45648,0.648832 0.74395,0.926816 0.0575,0.05518 0.11639,0.109984 0.17674,0.16252 0.30167,0.264944 0.63802,0.494664 0.9994803,0.683981 0.0723,0.03817 0.14525,0.07408 0.21948,0.10885 0.66805,0.310677 1.41187,0.485027 2.17745,0.485027 h 92.73858 c 1.78609,0 3.45386,-0.94904 4.31709,-2.367421 0.12332,-0.202204 0.23029,-0.414803 0.31876,-0.635187 0.0291,-0.0737 0.057,-0.14778 0.0823,-0.22337 0.0507,-0.150425 0.0927,-0.304252 0.12582,-0.461292 0.0827,-0.392239 0.10889,-0.803149 0.0689,-1.226607 L 102.05121,8.2075307 c -0.34019,-1.335383 -0.83973,-2.1552 -2.01911,-2.592567 -0.7249,-0.360189 -1.61743,-0.531023 -2.6489,-0.529171 l -38.47628,0.0635 z"
       id="path5490"
       inkscape:connector-curvature="0" />
    <path
       inkscape:connector-curvature="0"
       id="rect5346"
       d="m 20.43048,4.0000477 c -1.03149,-0.0018 -1.92366,0.169322 -2.64856,0.529171 -1.17938,0.437329 -1.67894,1.257185 -2.01912,2.592529 L 7.6248497,93.364181 c -0.0399,0.42342 -0.0139,0.834368 0.0689,1.226646 0.0332,0.157228 0.0752,0.311055 0.1258,0.461291 0.0253,0.07521 0.0529,0.149669 0.0823,0.22337 0.0885,0.220346 0.19547,0.432643 0.31877,0.635263 0.20554,0.33789 0.45648,0.648832 0.74395,0.926816 0.0575,0.05518 0.11639,0.109984 0.17674,0.162519 0.30167,0.264945 0.63802,0.494703 0.9994803,0.684019 0.0723,0.0378 0.14525,0.07408 0.21948,0.108851 0.66805,0.310677 1.41187,0.485064 2.17745,0.485064 h 92.73858 c 1.78609,0 3.45386,-0.949001 4.31709,-2.367382 0.12332,-0.202583 0.23029,-0.414879 0.31876,-0.635263 0.0291,-0.0737 0.057,-0.14778 0.0823,-0.222992 0.0507,-0.150804 0.0927,-0.30463 0.12582,-0.461292 0.0827,-0.392277 0.10889,-0.803225 0.0689,-1.226683 L 102.05121,7.1219747 c -0.34019,-1.335345 -0.83973,-2.155162 -2.01911,-2.592491 -0.7249,-0.360189 -1.61743,-0.530986 -2.6489,-0.52921 l -38.47628,0.06312 z"
       style="opacity:1;fill:url(#linearGradient5422);fill-opacity:1;stroke:#808080;stroke-width:0.73227584;stroke-miterlimit:4;stroke-dasharray:none;stroke-opacity:1" />
    <path
       inkscape:connector-curvature="0"
       id="path5365"
       d="m 22.94506,5.6738107 c -1.98338,0.01512 -4.31225,0.303119 -4.81301,2.38458 L 12.07262,74.242304 c -0.0365,0.324661 -0.0128,0.6401 0.0628,0.941064 0.0303,0.120189 0.0686,0.238488 0.11492,0.354142 0.0232,0.05783 0.0484,0.11452 0.0753,0.171212 0.0808,0.169323 0.17831,0.331843 0.29094,0.487219 0.0482,0.0669 0.0995,0.131906 0.15311,0.19578 0.0161,0.02268 0.0339,0.03779 0.0507,0.05631 0.0382,0.04346 0.0764,0.08693 0.11699,0.12926 0.0218,0.02268 0.0449,0.04422 0.0674,0.06652 0.0388,0.03855 0.0773,0.07635 0.11806,0.113764 0.0214,0.02268 0.0436,0.0378 0.0653,0.05632 0.0358,0.03024 0.0708,0.06274 0.10796,0.09298 0.009,0.0076 0.0196,0.01512 0.0292,0.02268 0.0125,0.01134 0.0257,0.02268 0.0386,0.03401 0.0311,0.02646 0.0618,0.04876 0.0938,0.07219 0.0164,0.01134 0.0339,0.02646 0.0503,0.03402 0.0336,0.02646 0.0676,0.04724 0.10207,0.07068 0.0384,0.02646 0.0772,0.05178 0.11666,0.07635 0.0366,0.02646 0.0739,0.04573 0.11146,0.06765 0.0396,0.02646 0.0796,0.04687 0.12013,0.06879 0.0386,0.02268 0.0776,0.04233 0.11703,0.06274 0.041,0.02268 0.0824,0.04195 0.12427,0.06236 0.0401,0.02268 0.08,0.03893 0.12081,0.05707 0.0168,0.0076 0.0332,0.0189 0.05,0.02646 0.0466,0.02268 0.0939,0.03931 0.14132,0.05896 0.009,0.0034 0.0189,0.0076 0.0285,0.01134 0.0103,0.0034 0.0203,0.01134 0.0307,0.01512 0.0762,0.03024 0.15357,0.05783 0.23191,0.08428 0,0 3.3e-4,0 3.3e-4,0 0.085,0.03024 0.17173,0.0548 0.25899,0.07975 0.0282,0.0076 0.0569,0.01512 0.0854,0.02268 0.0614,0.0189 0.12306,0.03024 0.1854,0.04649 0.0318,0.0076 0.0635,0.01512 0.0955,0.02268 0.0599,0.01512 0.1202,0.02646 0.18087,0.03402 0.0311,0.0076 0.0619,0.01134 0.0931,0.01512 0.0654,0.01134 0.13115,0.0189 0.19718,0.03024 0.0285,0.0034 0.057,0.0076 0.0858,0.01134 0.0712,0.0076 0.14272,0.01512 0.2146,0.0189 0.0235,0.0018 0.0469,0.0034 0.0704,0.0034 0.096,0.0076 0.19233,0.0076 0.28922,0.0076 h 84.69514 c 0.0969,0 0.19321,-0.0034 0.28921,-0.0076 0.0238,-0.0018 0.047,-0.0034 0.0705,-0.0034 0.0718,-0.0034 0.14339,-0.01134 0.21452,-0.0189 0.0287,-0.0027 0.0572,-0.0076 0.0857,-0.01134 0.0661,-0.0076 0.13187,-0.0189 0.19722,-0.03024 0.031,-0.0034 0.0621,-0.01134 0.093,-0.01512 0.0607,-0.01134 0.12091,-0.02268 0.18093,-0.03402 0.0317,-0.0076 0.0638,-0.01512 0.0955,-0.02268 0.0636,-0.01512 0.1268,-0.03402 0.18958,-0.04762 0.0265,-0.0076 0.0533,-0.01512 0.0796,-0.02268 0.088,-0.02646 0.17503,-0.05178 0.26075,-0.0805 0,0 3.3e-4,0 3.3e-4,0 0.0784,-0.03024 0.15568,-0.0548 0.23192,-0.08428 0.01,-0.0034 0.0185,-0.0076 0.0283,-0.01134 0.0132,-0.0076 0.0261,-0.01134 0.0396,-0.0189 0.0443,-0.0189 0.089,-0.0378 0.13259,-0.0548 0.0166,-0.0076 0.0325,-0.0189 0.0497,-0.02646 0.0415,-0.0189 0.0822,-0.03893 0.12291,-0.05821 0.0403,-0.02268 0.0805,-0.03931 0.12011,-0.06009 0.0404,-0.02268 0.0803,-0.04233 0.11978,-0.06463 0.0415,-0.02646 0.0824,-0.04611 0.12287,-0.0703 0.0359,-0.02268 0.0716,-0.04309 0.10692,-0.06576 0.04,-0.02646 0.0792,-0.05102 0.11804,-0.0771 0.0348,-0.02646 0.0685,-0.04687 0.10208,-0.07068 0.0163,-0.01134 0.0344,-0.02646 0.0504,-0.03402 0.0317,-0.02646 0.0627,-0.048 0.0938,-0.07219 0.0128,-0.01134 0.0257,-0.02268 0.0386,-0.03024 0.01,-0.0076 0.0193,-0.01512 0.0287,-0.02268 0.037,-0.03024 0.0722,-0.06161 0.10798,-0.09298 0.0219,-0.0189 0.0441,-0.0378 0.0653,-0.05632 0.0407,-0.03779 0.0793,-0.07521 0.11807,-0.113386 0.0223,-0.02268 0.0456,-0.04384 0.0673,-0.06652 0.0516,-0.05405 0.10121,-0.108851 0.14895,-0.16441 0.004,-0.0076 0.0106,-0.01134 0.0159,-0.0189 2.7e-4,-3.4e-4 4.2e-4,-6.8e-4 6.7e-4,-0.0018 0.0545,-0.06501 0.10658,-0.131527 0.15557,-0.198803 0.11263,-0.155338 0.21044,-0.317858 0.29128,-0.487219 0.0268,-0.05631 0.0518,-0.113008 0.075,-0.171212 0.0463,-0.115654 0.0847,-0.233575 0.11497,-0.353764 0.0567,-0.225638 0.0843,-0.459515 0.0791,-0.699364 -0.002,-0.08013 -0.008,-0.16063 -0.0159,-0.241512 L 99.68238,8.0565137 c -0.5723,-2.37891 -3.53217,-2.414778 -5.63549,-2.378683 l -35.13933,0.04838 -35.13929,-0.04838 c -0.26293,-0.0034 -0.53915,-0.0076 -0.8225,-0.0076 z"
       style="opacity:1;fill:url(#linearGradient5448);fill-opacity:1;stroke:#4e6166;stroke-width:0.73162615;stroke-miterlimit:4;stroke-dasharray:none;stroke-opacity:1" />
    <ellipse
       ry="2.039511"
       rx="2.4770339"
       cy="107.33286"
       cx="21.635822"
       id="path5424"
       style="opacity:1;fill:#00ff00;fill-opacity:1;stroke:#a3a4a5;stroke-width:0.92565751;stroke-linecap:round;stroke-miterlimit:4;stroke-dasharray:none;stroke-opacity:1" />
    <path
       id="path6669"
       style="fill:#ffffff;fill-opacity:1;stroke:none;stroke-width:0.24276504;stroke-miterlimit:4;stroke-dasharray:none;stroke-opacity:1"
       d="m 87.192583,42.653625 c -0.03032,-0.359247 -0.06983,-0.72926 -0.119611,-1.112831 C 86.806906,39.435212 86.525726,38.325681 85.814393,36.564933 83.918507,31.871158 80.323864,27.8619 75.421278,24.893449 66.169222,19.291479 53.432512,18.828973 43.73714,23.737255 c -6.972043,3.52959 -11.888978,9.591165 -12.951136,16.199438 -0.556342,3.462802 -0.189091,6.963115 1.101128,10.257637 3.008678,7.681372 10.945403,13.843673 20.660193,15.82886 2.58022,0.527232 3.855278,0.644602 6.996752,0.642694 2.322114,-0.0025 3.349009,-0.05723 4.725077,-0.256502 10.961164,-1.586192 19.441461,-8.120369 22.138481,-16.762639 0.769661,-2.466249 1.000856,-4.45899 0.784101,-6.993099 0,0 6.42e-4,-1.9e-5 6.42e-4,-1.9e-5 m -3.45986,-6.28562 c 0.02922,0.216455 -4.04e-4,0.4583 -0.06012,0.911086 -0.565823,4.30134 -4.065514,7.829722 -9.295294,9.276365 0,0 -0.791866,0.219165 -0.791866,0.219165 0,0 0.07494,1.766612 0.07494,1.766612 0.04059,0.978621 0.02505,2.185628 -0.03905,2.679061 -0.84571,6.52936 -6.290463,11.773817 -14.105149,13.38264 -2.025001,0.416875 -2.540492,0.412809 -5.556438,-0.04137 -1.822619,-0.273646 -1.733643,-0.420395 0.248143,-0.412951 3.247356,0.01218 5.888783,-0.497158 8.623809,-1.659422 4.861957,-2.066196 8.0925,-5.716226 9.090923,-10.182531 0.250342,-1.11975 0.288623,-4.140986 0.06333,-4.745296 -0.133463,-0.357776 -0.184865,-0.389154 -0.604798,-0.368303 -0.252309,0.0119 -1.212988,0.05209 -2.13484,0.08793 0,0 -1.676408,0.06456 -1.676408,0.06456 0,0 0.08104,2.145045 0.08104,2.145045 0.07614,2.015369 0.05712,2.249744 -0.249964,3.311671 -1.308381,4.505397 -5.361358,7.820363 -10.862561,8.803768 -2.485368,0.444303 -5.512259,0.296333 -8.09502,-0.394946 -4.480492,-1.199417 -8.20401,-4.025009 -10.051208,-7.5862 -1.06435,-2.051859 -1.36613,-3.379694 -1.270662,-5.552012 0.108308,-2.400246 0.724962,-4.077344 2.204236,-6.003521 1.806037,-2.351666 5.105878,-4.341721 8.149074,-4.931734 0.818568,-0.158633 0.981902,-0.225099 0.963153,-0.392628 -0.03449,-0.303591 -1.105471,-2.864389 -1.244488,-2.975984 -0.07464,-0.06005 -0.645167,0.06807 -1.493871,0.335828 -3.274026,1.03328 -5.926598,2.640323 -7.945153,4.826413 -3.026701,3.277899 -4.140137,7.430252 -3.117537,11.878475 0.127457,0.55331 0.200589,1.031951 0.162428,1.062327 -0.162314,0.130177 -0.652266,-0.84733 -1.146366,-2.284531 -0.509755,-1.482754 -0.524779,-1.57844 -0.444946,-2.84724 0.144965,-2.25765 0.581457,-3.811399 1.630679,-5.797709 1.321809,-2.502501 3.474782,-4.647284 6.317492,-6.313785 1.134041,-0.664823 3.65262,-1.692515 4.765894,-1.94571 0.429414,-0.09766 0.855333,-0.208996 0.946734,-0.247946 0.119753,-0.05075 0.187589,-0.51517 0.243779,-1.661743 0.06307,-1.288151 0.142511,-1.763305 0.430396,-2.586079 0.399142,-1.140387 1.214086,-2.52154 2.029667,-3.444566 0.671535,-0.759964 2.495723,-2.181909 3.323381,-2.592117 0.585617,-0.290237 2.093532,-0.582407 2.479708,-0.480691 0.09421,0.02518 -0.340173,0.311987 -0.984514,0.651058 -1.960052,1.031001 -3.625913,2.579765 -4.532738,4.223926 -0.801429,1.453132 -1.109613,2.646053 -1.130521,4.39673 0,0 -0.01317,1.09554 -0.01317,1.09554 0,0 1.067593,-0.06185 1.067593,-0.06185 0.586802,-0.03403 1.563819,-0.0632 2.171488,-0.06501 0,0 1.104727,-0.0033 1.104727,-0.0033 0,0 0.0033,-1.650186 0.0033,-1.650186 0.0021,-1.355942 0.04962,-1.769619 0.276768,-2.417079 0.987728,-2.817488 3.891406,-5.010578 7.576859,-5.756853 1.436916,-0.290963 2.194547,-0.325841 3.124383,-0.144361 1.338901,0.261166 2.274272,0.486516 2.276543,0.548018 0.0012,0.03173 -0.747532,0.05883 -1.663532,0.0598 -2.00439,0.002 -3.126932,0.19748 -4.794197,0.833347 -2.3365,0.891103 -3.808507,2.221127 -4.732129,4.290811 -0.390853,0.875953 -0.462414,3.780229 -0.100264,4.245458 0.05133,0.06602 0.548022,0.196812 1.103332,0.291238 0.55552,0.0942 1.390605,0.266941 1.855846,0.383592 0.465468,0.116636 0.876302,0.188398 0.912994,0.158754 0.03738,-0.02955 -0.09239,-0.392795 -0.286442,-0.806864 -0.850039,-1.81295 -0.687945,-3.798168 0.418809,-5.306826 0.86909,-1.18465 2.79828,-2.212336 4.765253,-2.543719 1.129676,-0.190241 3.223609,-0.136933 4.352384,0.110886 3.805716,0.835942 6.897971,3.080457 7.944072,5.79588 0.348374,0.904123 0.48423,2.28543 0.296751,3.042263 -0.672082,2.713837 -3.567853,4.525066 -7.251123,4.50629 -0.636291,-0.0033 -1.086196,0.03841 -1.083735,0.09997 0.0025,0.0582 0.404608,0.519428 0.895125,1.026254 0.491751,0.508251 1.032497,1.11253 1.200849,1.342157 0.25859,0.352324 0.374668,0.418757 0.737423,0.420543 0.642405,0.0033 2.453203,-0.487935 3.618775,-0.980796 1.20169,-0.508169 2.890852,-1.863751 3.532776,-2.831412 1.306316,-1.969225 1.374594,-4.361042 0.219152,-6.882157 -0.08457,-0.184307 -0.43623,-0.717994 -0.780857,-1.184971 -0.343897,-0.465872 -0.548435,-0.823064 -0.455229,-0.794916 0.198354,0.0598 1.443586,1.140495 1.921719,1.66799 0.689764,0.760952 1.36947,2.948122 1.314603,4.247867 -0.06787,1.613792 -0.558231,3.06806 -1.427163,4.220747 -1.371074,1.818704 -3.481068,3.043434 -6.449756,3.732928 -0.621814,0.144283 -0.777279,0.224984 -0.749962,0.386488 0.021,0.112401 0.30474,0.76097 0.63572,1.443817 0.332584,0.685209 0.609422,1.331925 0.614766,1.434721 0.0051,0.102841 0.09492,0.277828 0.198746,0.389122 0.182187,0.195065 0.22237,0.193715 1.09924,-0.04252 1.424876,-0.384156 3.277905,-1.229161 4.440368,-2.023032 2.749068,-1.877379 4.521801,-5.046772 4.312598,-7.64948 -0.03025,-0.376256 0.002,-0.683527 0.07106,-0.683168 0.0695,4.49e-4 0.274655,0.325776 0.457066,0.723865 0.159795,0.348649 0.242082,0.539359 0.269394,0.755434 0,0 0.002,6.42e-4 0.002,6.42e-4 m -8.608933,-5.180994 c -0.121622,-1.313799 -0.880474,-2.688702 -2.323243,-3.880956 -1.836523,-1.517677 -4.166408,-2.338486 -6.670188,-2.355738 -1.0054,-0.0081 -1.907875,0.15449 -2.933765,0.523937 -1.518072,0.546701 -2.577438,1.4801 -3.068246,2.709943 -0.180931,0.453141 -0.217376,0.805734 -0.169482,1.641549 0.05484,0.917149 0.12131,1.187037 0.486115,1.891702 1.045628,2.019705 3.542297,3.712548 6.372602,4.306542 1.083048,0.227432 3.101213,0.242321 3.987301,0.0298 2.881563,-0.691664 4.392644,-2.550423 4.33461,-4.603882 -0.0025,-0.08719 -0.0075,-0.174947 -0.01581,-0.26295 0,0 8.3e-5,7.6e-5 8.3e-5,7.6e-5 m -2.267702,-0.427287 c 0.05088,0.942984 0.0237,1.068402 -0.295902,1.569672 -0.69331,1.076457 -1.961363,1.681839 -3.651958,1.739745 -1.189412,0.04066 -1.904276,-0.09559 -3.109085,-0.591606 -1.128395,-0.464554 -2.125918,-1.253036 -2.730512,-2.155984 -0.421449,-0.629489 -0.488652,-0.825183 -0.543427,-1.583386 -0.07379,-1.018867 0.07342,-1.413081 0.810447,-2.182789 2.04703,-2.137671 7.117649,-1.304177 8.995697,1.487366 0.438496,0.651797 0.4734,0.764844 0.52474,1.716982 0,0 0,0 0,0 M 71.43765,30.347859 c -0.09532,-1.036731 -1.028669,-2.094637 -2.561471,-2.656201 -0.844364,-0.309326 -2.306567,-0.341289 -3.076619,-0.06691 -0.662,0.23582 -1.390475,0.928082 -1.527503,1.453215 -0.232101,0.889028 0.251834,1.9431 1.222118,2.653008 0.912938,0.66786 1.6096,0.919879 2.720778,0.983624 1.224787,0.07021 1.908109,-0.129894 2.569899,-0.752358 0.44156,-0.415303 0.652182,-0.904665 0.660744,-1.407063 5.27e-4,-0.06883 -0.0033,-0.138109 -0.0074,-0.20727 0,0 -5.4e-4,-5.1e-5 -5.4e-4,-5.1e-5 m 0.0064,15.110782 c -0.01799,-0.37377 -0.73508,-1.942993 -1.28214,-2.808167 0,0 -0.412989,-0.653684 -0.412989,-0.653684 0,0 -1.590137,-0.07916 -1.590137,-0.07916 -1.525694,-0.0764 -3.043651,-0.288547 -3.83428,-0.535813 -0.205056,-0.06403 -0.428111,-0.116793 -0.496178,-0.117133 -0.205487,-6.41e-4 -0.14219,0.103875 0.360232,0.593456 0.726954,0.708307 1.792848,2.157268 2.241883,3.049554 0.220619,0.438362 0.465194,0.834401 0.542841,0.879459 0.169177,0.09815 3.76194,0.128123 4.187378,0.0354 0.215272,-0.04715 0.294156,-0.147547 0.283788,-0.362947 0,0 -3.98e-4,-6.43e-4 -3.98e-4,-6.43e-4 m -2.412959,-15.43199 c 0.03114,0.198141 -0.06736,0.385332 -0.289139,0.55507 -0.413189,0.315898 -1.272859,0.237027 -1.712994,-0.157566 -0.632374,-0.56667 -0.234458,-1.372333 0.672311,-1.367324 0.307646,0.002 0.541064,0.09573 0.870025,0.349163 0.276974,0.213473 0.430963,0.422528 0.45988,0.620611 0,0 -8.3e-5,4.6e-5 -8.3e-5,4.6e-5 m -0.601002,10.366009 c -0.01105,-0.269099 -1.30046,-1.535611 -2.587177,-2.543359 -2.035753,-1.594267 -4.225808,-2.733254 -6.861562,-3.573211 -1.24357,-0.396309 -2.960915,-0.785654 -3.072211,-0.696701 -0.1275,0.101836 -0.07614,0.224318 0.350076,0.831858 2.080633,2.967331 5.944156,5.213967 10.196448,5.902645 1.560279,0.252667 1.982248,0.269709 1.974464,0.07886 0,0 -3.8e-5,-9e-5 -3.8e-5,-9e-5 m -2.547337,9.082712 c -0.04621,-1.037276 -0.198025,-1.949474 -0.439616,-2.209566 -0.09402,-0.101057 -0.609459,-0.248095 -1.202796,-0.343794 -0.570901,-0.09177 -1.472597,-0.275931 -2.003593,-0.408602 -0.530703,-0.132556 -0.985782,-0.223249 -1.011758,-0.201367 -0.02704,0.0219 0.155714,0.488617 0.404384,1.038953 0.438591,0.969839 0.455795,1.064953 0.489413,2.751327 0.03129,1.698445 0.0181,1.796442 -0.375892,2.717852 -0.925197,2.151392 -2.346446,3.538641 -4.663307,4.53676 -1.617747,0.696932 -3.119962,0.956852 -5.074126,0.877108 -1.973514,-0.08051 -2.860553,-0.282452 -4.668139,-1.061742 -4.48643,-1.934096 -6.92351,-6.415265 -5.609916,-10.15439 1.160299,-3.302763 4.660547,-5.63983 8.603058,-5.783708 0.692472,-0.02428 1.338677,-0.0659 1.436011,-0.09082 0.120191,-0.03058 -0.03389,-0.263581 -0.471756,-0.722458 -0.355923,-0.371387 -0.891119,-0.974348 -1.189786,-1.340012 -0.298138,-0.364905 -0.590296,-0.687792 -0.649896,-0.718083 -0.142742,-0.07277 -1.883039,0.273696 -2.76571,0.550433 -4.004235,1.255868 -6.785823,3.825819 -7.817208,7.27097 -1.385649,4.628617 1.22983,9.879879 6.364952,12.538057 8.355283,4.325092 18.426683,1.170248 20.42017,-6.27725 0.202538,-0.756077 0.2694,-1.926615 0.225276,-2.969536 0,0 2.35e-4,-1.35e-4 2.35e-4,-1.35e-4 M 64.536249,45.331041 C 64.475019,44.958132 63.686987,43.8265 62.822973,42.907686 60.31163,40.237156 56.670504,38.597002 52.570504,38.27104 c -0.406549,-0.03243 -0.775608,-0.03122 -0.820654,0.0079 -0.118789,0.09522 0.252927,0.5367 1.275985,1.515185 1.770351,1.693157 4.148881,3.207532 6.722061,4.273931 1.64387,0.681259 4.584156,1.529366 4.767962,1.37462 0.02293,-0.01857 0.02954,-0.05698 0.02017,-0.110503 0,0 2.15e-4,-0.0013 2.15e-4,-0.0013 m -4.308834,4.930834 c -0.0047,-0.706477 -0.101042,-1.409132 -0.288469,-1.909804 -1.2785,-3.418534 -5.075263,-5.661508 -9.2215,-5.484678 -2.251446,0.09596 -4.111355,0.772597 -5.551357,2.023635 -1.028136,0.893218 -1.879081,2.268949 -2.08585,3.378794 -0.161722,0.869619 -0.124086,1.891074 0.102204,2.699577 0.73434,2.6263 2.990257,4.702099 6.172,5.651982 1.136414,0.339212 3.536075,0.439877 4.757653,0.199361 2.788306,-0.549103 5.035338,-2.332653 5.849047,-4.622503 0.182653,-0.514278 0.27055,-1.227266 0.266189,-1.936313 0,0 8.2e-5,-5.1e-5 8.2e-5,-5.1e-5 m -2.840457,0.113973 c -0.01504,1.156945 -0.532888,2.291745 -1.566336,3.16277 -1.182102,0.996315 -2.964825,1.550852 -4.501369,1.397295 -2.385693,-0.238365 -4.304098,-1.384847 -5.314909,-3.166683 -0.390073,-0.687605 -0.43393,-0.874532 -0.445048,-1.903875 -0.01625,-1.508743 0.311477,-2.294957 1.336279,-3.21501 2.297256,-2.062791 6.102084,-2.030566 8.653217,0.0728 1.235915,1.019033 1.855416,2.349751 1.838165,3.652605 0,0 1e-6,1.04e-4 1e-6,1.04e-4 M 56.474004,37.317571 c -0.03154,-0.101963 -0.289875,-0.435393 -0.631034,-0.804931 -0.389231,-0.421474 -1.066998,-1.335554 -1.505277,-2.029834 0,0 -0.792428,-1.255926 -0.792428,-1.255926 0,0 -1.545473,0.0093 -1.545473,0.0093 -0.850158,0.0045 -1.852517,0.03854 -2.227414,0.07349 -0.541087,0.05022 -0.682223,0.102289 -0.683848,0.251698 -0.0025,0.256855 0.586595,1.690363 1.018099,2.475107 0,0 0.354327,0.644351 0.354327,0.644351 0,0 1.685635,0.06842 1.685635,0.06842 1.662388,0.0674 3.216902,0.279516 3.896675,0.532461 0.191432,0.07107 0.384707,0.09988 0.429118,0.0641 0.0081,-0.0058 0.0079,-0.0151 0.0017,-0.02993 0,0 -1.38e-4,0.002 -1.38e-4,0.002 M 55.33306,50.23637 c -0.0248,-0.868063 -0.454175,-1.735524 -1.239436,-2.3898 -1.222191,-1.018288 -3.086265,-1.337282 -4.570051,-0.783342 -1.205055,0.449961 -1.866544,1.040488 -2.179942,1.949821 -0.369215,1.071344 0.01651,2.328921 0.998493,3.238088 1.928147,1.784809 5.36105,1.526143 6.585852,-0.493106 0.288451,-0.475932 0.420177,-0.998924 0.405084,-1.521661 0,0 0,0 0,0 m -2.769403,-0.04445 c 0,0 0,0 0,0 0.01147,0.274398 -0.11716,0.552207 -0.391807,0.780369 -0.554321,0.460676 -1.311774,0.457824 -1.89882,-0.0058 -0.58318,-0.46117 -0.587432,-1.132583 -0.01599,-1.606059 0.473855,-0.390387 0.973612,-0.420653 1.604564,-0.09681 0.445664,0.228683 0.685503,0.575849 0.698763,0.928191 0,0 0.0033,8.9e-5 0.0033,8.9e-5"
       inkscape:connector-curvature="0" />
  </g>
</svg>
