<?xml version="1.0" encoding="UTF-8" standalone="no"?>
<!-- Created with Inkscape (http://www.inkscape.org/) -->

<svg
   xmlns:osb="http://www.openswatchbook.org/uri/2009/osb"
   xmlns:dc="http://purl.org/dc/elements/1.1/"
   xmlns:cc="http://creativecommons.org/ns#"
   xmlns:rdf="http://www.w3.org/1999/02/22-rdf-syntax-ns#"
   xmlns:svg="http://www.w3.org/2000/svg"
   xmlns="http://www.w3.org/2000/svg"
   xmlns:xlink="http://www.w3.org/1999/xlink"
   xmlns:sodipodi="http://sodipodi.sourceforge.net/DTD/sodipodi-0.dtd"
   xmlns:inkscape="http://www.inkscape.org/namespaces/inkscape"
   width="128"
   height="128"
   viewBox="0 0 33.866666 33.866668"
   version="1.1"
   id="svg8"
   inkscape:version="0.92.2 5c3e80d, 2017-08-06"
   sodipodi:docname="office-address-book.svg">
  <defs
     id="defs2">
    <linearGradient
       inkscape:collect="always"
       id="linearGradient1190">
      <stop
         style="stop-color:#c3c5c5;stop-opacity:1"
         offset="0"
         id="stop1186" />
      <stop
         style="stop-color:#bbbdbd;stop-opacity:1"
         offset="1"
         id="stop1188" />
    </linearGradient>
    <linearGradient
       osb:paint="solid"
       id="linearGradient6987">
      <stop
         id="stop6985"
         offset="0"
         style="stop-color:#77d2fb;stop-opacity:1;" />
    </linearGradient>
    <linearGradient
       inkscape:collect="always"
       xlink:href="#linearGradient1190"
       id="linearGradient1192"
       x1="-81.019897"
       y1="39.119457"
       x2="-206.40062"
       y2="185.33449"
       gradientUnits="userSpaceOnUse"
       gradientTransform="matrix(0.1900447,0,0,0.19004472,-1.308452,257.9928)" />
  </defs>
  <sodipodi:namedview
     id="base"
     pagecolor="#ffffff"
     bordercolor="#666666"
     borderopacity="1.0"
     inkscape:pageopacity="0.0"
     inkscape:pageshadow="2"
     inkscape:zoom="0.70710678"
     inkscape:cx="67.498553"
     inkscape:cy="96.340356"
     inkscape:document-units="mm"
     inkscape:current-layer="layer1"
     showgrid="false"
     inkscape:window-width="1600"
     inkscape:window-height="803"
     inkscape:window-x="0"
     inkscape:window-y="0"
     inkscape:window-maximized="1"
     showguides="false"
     units="px" />
  <metadata
     id="metadata5">
    <rdf:RDF>
      <cc:Work
         rdf:about="">
        <dc:format>image/svg+xml</dc:format>
        <dc:type
           rdf:resource="http://purl.org/dc/dcmitype/StillImage" />
        <dc:title />
      </cc:Work>
    </rdf:RDF>
  </metadata>
  <g
     inkscape:label="Layer 1"
     inkscape:groupmode="layer"
     id="layer1"
     transform="translate(0,-263.13332)">
    <rect
       transform="matrix(0.98834857,-0.15220743,0.15921516,0.98724391,0,0)"
       ry="1.4618132"
       y="265.42725"
       x="-40.613857"
       height="28.284389"
       width="23.908003"
       id="rect1282"
       style="opacity:0.25;fill:#000000;fill-opacity:1;stroke:none;stroke-width:0.18990988;stroke-linecap:round;stroke-miterlimit:4;stroke-dasharray:0.04747747, 0.04747747;stroke-dashoffset:0;stroke-opacity:1" />
    <path
       style="opacity:0.25;fill:#000000;fill-opacity:1;stroke:none;stroke-width:3.79814935;stroke-linecap:round;stroke-miterlimit:4;stroke-dasharray:0.94953734, 0.94953734;stroke-dashoffset:0;stroke-opacity:1"
       d="m 27.221917,265.99351 c -0.05776,-0.002 -0.116744,0.002 -0.176088,0.0116 l -7.439567,1.24016 c -0.474792,0.0792 -0.793328,0.52509 -0.714178,0.99986 l 0.664376,3.98501 c 0.07917,0.47477 0.525088,0.79331 0.999859,0.71417 l 7.439577,-1.24018 c 0.474781,-0.0792 0.793319,-0.52508 0.714168,-0.99986 l -0.664376,-3.98509 c -0.06926,-0.41544 -0.41927,-0.71123 -0.823771,-0.72566 z m 0.92483,6.02597 c -0.05776,-0.002 -0.116641,0.002 -0.175985,0.0115 l -7.439586,1.24016 c -0.474772,0.0792 -0.793309,0.52508 -0.714167,0.99986 l 0.664283,3.98511 c 0.07917,0.47478 0.525077,0.79331 0.999859,0.71416 l 7.43967,-1.24017 c 0.474781,-0.0792 0.793224,-0.52507 0.714074,-0.99986 l -0.664283,-3.9851 c -0.06926,-0.41543 -0.419363,-0.71122 -0.823865,-0.72565 z m 0.975203,5.96301 c -0.05777,-0.002 -0.116633,0.002 -0.175986,0.0116 l -7.439671,1.24017 c -0.474781,0.0792 -0.793215,0.52509 -0.714073,0.99987 l 0.664283,3.985 c 0.07917,0.47477 0.525077,0.79332 0.999859,0.71417 l 7.439577,-1.24018 c 0.474771,-0.0792 0.793308,-0.52507 0.714167,-0.99986 l -0.664282,-3.9851 c -0.06926,-0.41543 -0.419364,-0.71122 -0.823874,-0.72565 z m 0.958909,5.94799 c -0.05776,-0.002 -0.116641,0.002 -0.175985,0.0115 l -7.439576,1.24018 c -0.474782,0.0792 -0.793319,0.52507 -0.714168,0.99985 l 0.664282,3.9851 c 0.07917,0.47478 0.525078,0.79332 0.99985,0.71417 l 7.439577,-1.24017 c 0.474781,-0.0792 0.793318,-0.52508 0.714167,-0.99986 l -0.664273,-3.9851 c -0.06926,-0.41542 -0.419372,-0.71122 -0.823874,-0.72565 z"
       id="rect1273"
       inkscape:connector-curvature="0" />
    <g
       style="stroke:#373737;stroke-width:0.49963894;stroke-miterlimit:4;stroke-dasharray:none;stroke-opacity:1"
       id="g1310"
       transform="matrix(0.19004471,0,0,0.19004471,82.724549,238.70996)">
      <rect
         style="opacity:1;fill:#d79702;fill-opacity:1;stroke:#373737;stroke-width:0.49963894;stroke-linecap:round;stroke-miterlimit:4;stroke-dasharray:none;stroke-dashoffset:0;stroke-opacity:1"
         id="rect1235"
         width="48.830143"
         height="30.401909"
         x="-357.36993"
         y="188.02348"
         ry="4.5717154"
         transform="rotate(-9.4641019)" />
      <rect
         transform="rotate(-9.4641019)"
         ry="4.5717154"
         y="156.32208"
         x="-357.20071"
         height="30.401909"
         width="48.830143"
         id="rect1233"
         style="opacity:1;fill:#48c163;fill-opacity:1;stroke:#373737;stroke-width:0.49963894;stroke-linecap:round;stroke-miterlimit:4;stroke-dasharray:none;stroke-dashoffset:0;stroke-opacity:1" />
      <rect
         style="opacity:1;fill:#5cc0e0;fill-opacity:1;stroke:#373737;stroke-width:0.49963894;stroke-linecap:round;stroke-miterlimit:4;stroke-dasharray:none;stroke-dashoffset:0;stroke-opacity:1"
         id="rect1231"
         width="48.830143"
         height="30.401909"
         x="-357.10281"
         y="124.52827"
         ry="4.5717154"
         transform="rotate(-9.4641019)" />
      <rect
         transform="rotate(-9.4641019)"
         ry="4.5717154"
         y="92.451721"
         x="-356.68954"
         height="30.401909"
         width="48.830143"
         id="rect1229"
         style="opacity:1;fill:#c7c9c7;fill-opacity:1;stroke:#373737;stroke-width:0.49963894;stroke-linecap:round;stroke-miterlimit:4;stroke-dasharray:none;stroke-dashoffset:0;stroke-opacity:1" />
    </g>
    <rect
       style="opacity:1;fill:url(#linearGradient1192);fill-opacity:1;stroke:#373737;stroke-width:0.18990988;stroke-linecap:round;stroke-miterlimit:4;stroke-dasharray:0.04747747, 0.04747747000000000;stroke-dashoffset:0;stroke-opacity:1"
       id="rect999"
       width="23.908003"
       height="28.284389"
       x="-40.533791"
       y="264.93024"
       ry="1.4618132"
       transform="matrix(0.98834857,-0.15220743,0.15921516,0.98724391,0,0)" />
    <path
       style="opacity:1;fill:#373737;fill-opacity:1;stroke:none;stroke-width:0.18990748;stroke-linecap:round;stroke-miterlimit:4;stroke-dasharray:0.04747687, 0.04747687000000000;stroke-dashoffset:0;stroke-opacity:1"
       d="m 5.9460613,267.13105 -2.3818523,0.36682 c -0.8004127,0.12326 -1.3410252,0.86609 -1.2120832,1.66561 l 4.0378345,25.03723 c 0.1289326,0.79951 0.8770861,1.34399 1.6774895,1.22073 l 2.4438222,-0.37633 z"
       id="rect1003"
       inkscape:connector-curvature="0" />
    <path
       id="path878"
       d="m 18.564415,287.43471 c -1.189168,0.0367 -2.384428,-0.20585 -3.45797,-0.70205 -1.667161,-0.77032 -2.995375,-2.07015 -3.77787,-3.69717 -0.182317,-0.37909 -0.397985,-0.96127 -0.504025,-1.36058 -0.09784,-0.36847 -0.240287,-1.28583 -0.258779,-1.66661 -0.150095,-3.09045 1.597596,-6.02111 4.392588,-7.36584 0.378979,-0.18232 0.961003,-0.39799 1.360208,-0.50402 0.36836,-0.0979 1.285486,-0.24027 1.666171,-0.25872 1.803402,-0.0876 3.575828,0.46436 5.041294,1.56957 1.008065,0.76029 1.783891,1.70362 2.323049,2.82469 0.334897,0.69634 0.534718,1.35486 0.664252,2.1891 0.09736,0.627 0.119335,0.97571 0.09672,1.53479 -0.115038,2.84393 -1.818738,5.43169 -4.390755,6.66912 -0.378979,0.18234 -0.961001,0.39802 -1.360209,0.50405 -0.386428,0.10272 -1.399594,0.2515 -1.794677,0.26365 z m -4.100655,-1.99028 c 0.165602,-0.15528 0.701346,-0.51991 1.233384,-0.83943 0.98143,-0.5894 1.308958,-0.84336 1.490545,-1.1557 0.160858,-0.27669 0.162097,-0.2958 0.06235,-0.96294 l -0.09061,-0.60633 -0.188025,-0.18142 c -0.297826,-0.28739 -0.54203,-0.66216 -0.688871,-1.0572 -0.05644,-0.15181 -0.07394,-0.1713 -0.187374,-0.20862 -0.272799,-0.0897 -0.478592,-0.41626 -0.549282,-0.87151 -0.04367,-0.28129 -0.0426,-0.29455 0.03453,-0.45059 0.07893,-0.15954 0.07907,-0.16203 0.0181,-0.32018 -0.442115,-1.14604 -0.578575,-2.03868 -0.419964,-2.74703 0.21833,-0.97498 1.007274,-1.58821 2.305931,-1.79235 0.665991,-0.10537 1.05574,-0.0463 1.382976,0.20691 0.108666,0.0841 0.170194,0.10812 0.277809,0.10853 0.07601,4.5e-4 0.243179,0.0323 0.371462,0.0712 0.462866,0.14029 0.828238,0.52272 1.019842,1.06745 0.205985,0.58562 0.266393,1.48101 0.157925,2.3406 -0.01502,0.11933 -0.0095,0.13241 0.10831,0.25451 0.120465,0.12483 0.125539,0.13737 0.16919,0.4185 0.07058,0.45453 -0.02643,0.82882 -0.258217,0.99636 -0.100414,0.0725 -0.106608,0.0888 -0.120885,0.31792 -0.02735,0.43802 -0.189689,0.98549 -0.367183,1.23802 l -0.08899,0.12661 0.107483,0.60754 c 0.10634,0.60104 0.108668,0.6091 0.217842,0.75197 0.237639,0.31098 0.622595,0.49774 1.431007,0.69421 1.056998,0.2569 1.460311,0.36855 1.731724,0.47943 0.186578,0.0763 0.297982,0.10535 0.334251,0.0874 0.07255,-0.0361 0.469411,-0.64473 0.682939,-1.04737 0.544638,-1.02698 0.826687,-2.19168 0.825676,-3.40949 -4.1e-4,-0.49234 -0.159105,-1.5127 -0.307804,-1.97902 -0.238476,-0.74791 -0.567221,-1.4151 -0.99709,-2.02361 -1.363975,-1.93081 -3.512573,-3.03234 -5.917873,-3.03394 -0.491338,-2.9e-4 -1.510471,0.15795 -1.978583,0.30723 -0.747695,0.23847 -1.414693,0.56726 -2.023023,0.99718 -1.930228,1.36415 -3.031313,3.51319 -3.032711,5.91909 -2.78e-4,0.49148 0.158007,1.51088 0.307302,1.9791 0.468293,1.46864 1.304373,2.66593 2.519946,3.60862 0.140638,0.10906 0.275927,0.19507 0.300643,0.19113 0.0247,-0.004 0.08111,-0.0412 0.125333,-0.0826 z"
       style="opacity:0.5;fill:#494848;fill-opacity:1;stroke:none;stroke-width:0.25162739;stroke-miterlimit:4;stroke-dasharray:none;stroke-opacity:0"
       inkscape:connector-curvature="0" />
  </g>
</svg>
