<?xml version="1.0" encoding="UTF-8" standalone="no"?>
<!-- Created with Inkscape (http://www.inkscape.org/) -->

<svg
   xmlns:dc="http://purl.org/dc/elements/1.1/"
   xmlns:cc="http://creativecommons.org/ns#"
   xmlns:rdf="http://www.w3.org/1999/02/22-rdf-syntax-ns#"
   xmlns:svg="http://www.w3.org/2000/svg"
   xmlns="http://www.w3.org/2000/svg"
   xmlns:xlink="http://www.w3.org/1999/xlink"
   xmlns:sodipodi="http://sodipodi.sourceforge.net/DTD/sodipodi-0.dtd"
   xmlns:inkscape="http://www.inkscape.org/namespaces/inkscape"
   version="1.1"
   id="svg2"
   width="128"
   height="128"
   viewBox="0 0 128 128"
   sodipodi:docname="plasmagik.svg"
   inkscape:version="0.92.3 (2405546, 2018-03-11)">
  <metadata
     id="metadata8">
    <rdf:RDF>
      <cc:Work
         rdf:about="">
        <dc:format>image/svg+xml</dc:format>
        <dc:type
           rdf:resource="http://purl.org/dc/dcmitype/StillImage" />
        <dc:title />
      </cc:Work>
    </rdf:RDF>
  </metadata>
  <defs
     id="defs6">
    <linearGradient
       inkscape:collect="always"
       id="linearGradient1075">
      <stop
         style="stop-color:#68ff7a;stop-opacity:1"
         offset="0"
         id="stop1071" />
      <stop
         id="stop1109"
         offset="0.69490701"
         style="stop-color:#0fe1ff;stop-opacity:0.53612167" />
      <stop
         style="stop-color:#0ffff0;stop-opacity:0;"
         offset="1"
         id="stop1073" />
    </linearGradient>
    <linearGradient
       inkscape:collect="always"
       id="linearGradient1001">
      <stop
         style="stop-color:#7507eb;stop-opacity:1;"
         offset="0"
         id="stop997" />
      <stop
         style="stop-color:#7507eb;stop-opacity:0;"
         offset="1"
         id="stop999" />
    </linearGradient>
    <linearGradient
       inkscape:collect="always"
       id="linearGradient880">
      <stop
         style="stop-color:#eaebf2;stop-opacity:1"
         offset="0"
         id="stop876" />
      <stop
         id="stop884"
         offset="0.22201402"
         style="stop-color:#f5f5f8;stop-opacity:1" />
      <stop
         style="stop-color:#cbcdd5;stop-opacity:1;"
         offset="0.75727856"
         id="stop886" />
      <stop
         id="stop888"
         offset="0.89709383"
         style="stop-color:#e2e3e7;stop-opacity:1" />
      <stop
         style="stop-color:#b9bbc5;stop-opacity:1"
         offset="1"
         id="stop878" />
    </linearGradient>
    <linearGradient
       inkscape:collect="always"
       id="linearGradient851">
      <stop
         style="stop-color:#0d0f13;stop-opacity:1"
         offset="0"
         id="stop847" />
      <stop
         id="stop863"
         offset="0.11931818"
         style="stop-color:#2c2f33;stop-opacity:1;" />
      <stop
         id="stop855"
         offset="0.23863636"
         style="stop-color:#4f5458;stop-opacity:1" />
      <stop
         style="stop-color:#131924;stop-opacity:1"
         offset="0.41254544"
         id="stop861" />
      <stop
         style="stop-color:#0d1013;stop-opacity:1"
         offset="0.77603638"
         id="stop857" />
      <stop
         id="stop859"
         offset="0.91041452"
         style="stop-color:#868686;stop-opacity:0.92015207" />
      <stop
         style="stop-color:#2c2e33;stop-opacity:1"
         offset="1"
         id="stop849" />
    </linearGradient>
    <linearGradient
       id="linearGradient839"
       inkscape:collect="always">
      <stop
         id="stop835"
         offset="0"
         style="stop-color:#448eff;stop-opacity:1;" />
      <stop
         id="stop837"
         offset="1"
         style="stop-color:#5eacff;stop-opacity:1" />
    </linearGradient>
    <linearGradient
       inkscape:collect="always"
       xlink:href="#linearGradient839"
       id="linearGradient825"
       x1="102.27081"
       y1="146.5052"
       x2="89.998306"
       y2="253.88956"
       gradientUnits="userSpaceOnUse"
       gradientTransform="matrix(0.68087079,0,0,0.68087079,5.3926687,-65.97085)" />
    <linearGradient
       inkscape:collect="always"
       xlink:href="#linearGradient851"
       id="linearGradient853"
       x1="-42.953743"
       y1="110.32689"
       x2="-30.425568"
       y2="110.32689"
       gradientUnits="userSpaceOnUse"
       gradientTransform="matrix(0.68087079,0,0,0.68087079,129.07275,-41.023163)" />
    <linearGradient
       inkscape:collect="always"
       xlink:href="#linearGradient880"
       id="linearGradient882"
       x1="165.05263"
       y1="35.245499"
       x2="176.52324"
       y2="39.464172"
       gradientUnits="userSpaceOnUse"
       gradientTransform="matrix(0.68083937,0.00654104,-0.00654104,0.68083937,-15.821739,2.6994932)" />
    <linearGradient
       inkscape:collect="always"
       xlink:href="#linearGradient839"
       id="linearGradient982"
       gradientUnits="userSpaceOnUse"
       gradientTransform="matrix(0.66537785,-0.14442075,0.14442075,0.66537785,-27.564926,-49.212073)"
       x1="102.27081"
       y1="146.5052"
       x2="89.998306"
       y2="253.88956" />
    <linearGradient
       inkscape:collect="always"
       xlink:href="#linearGradient1001"
       id="linearGradient1056"
       gradientUnits="userSpaceOnUse"
       x1="227.34183"
       y1="208.51694"
       x2="33.519783"
       y2="237.77237" />
    <linearGradient
       inkscape:collect="always"
       xlink:href="#linearGradient1075"
       id="linearGradient1107"
       gradientUnits="userSpaceOnUse"
       x1="-94.010727"
       y1="98.717949"
       x2="-200.41173"
       y2="138.09221"
       gradientTransform="matrix(0.68087079,0,0,0.68087079,172.16421,-66.319016)" />
    <linearGradient
       inkscape:collect="always"
       xlink:href="#linearGradient1001"
       id="linearGradient1285"
       gradientUnits="userSpaceOnUse"
       x1="227.34183"
       y1="208.51694"
       x2="33.519783"
       y2="237.77237"
       gradientTransform="translate(-240.33642,-80.282591)" />
  </defs>
  <sodipodi:namedview
     pagecolor="#ffffff"
     bordercolor="#666666"
     borderopacity="1"
     objecttolerance="10"
     gridtolerance="10"
     guidetolerance="10"
     inkscape:pageopacity="0"
     inkscape:pageshadow="2"
     inkscape:window-width="1600"
     inkscape:window-height="837"
     id="namedview4"
     showgrid="false"
     inkscape:zoom="2.3604608"
     inkscape:cx="66.594931"
     inkscape:cy="65.564801"
     inkscape:window-x="0"
     inkscape:window-y="30"
     inkscape:window-maximized="1"
     inkscape:current-layer="svg2" />
  <g
     id="g1062"
     transform="matrix(0.99810748,0,0,0.99810748,0.00757028,0.12112202)">
    <path
       style="opacity:0.25;fill:#000000;fill-opacity:1;stroke:none;stroke-width:0.68087077px;stroke-linecap:butt;stroke-linejoin:miter;stroke-opacity:1"
       d="m 26.108551,29.422444 -12.359896,75.552036 107.757395,9.57457 0.52224,-77.641038 z"
       id="path989"
       inkscape:connector-curvature="0"
       sodipodi:nodetypes="ccccc" />
    <path
       sodipodi:nodetypes="ccccc"
       inkscape:connector-curvature="0"
       id="path984"
       d="M 12.490202,39.661924 16.437032,116.11649 123.77333,102.61658 107.81511,26.631446 Z"
       style="opacity:0.25;fill:#000000;fill-opacity:1;stroke:none;stroke-width:0.68087077px;stroke-linecap:butt;stroke-linejoin:miter;stroke-opacity:1" />
    <g
       id="g1068"
       style="opacity:1"
       transform="matrix(0.99811104,0,0,0.99811104,-239.87488,-122.59612)" />
    <path
       style="fill:url(#linearGradient982);fill-opacity:1;stroke:#335e8c;stroke-width:0.75590551;stroke-linecap:butt;stroke-linejoin:miter;stroke-miterlimit:4;stroke-dasharray:none;stroke-opacity:1"
       d="M 12.490202,37.665702 16.437032,114.12027 123.77333,100.62035 107.81511,24.635224 Z"
       id="path974"
       inkscape:connector-curvature="0"
       sodipodi:nodetypes="ccccc" />
    <path
       style="color:#000000;font-style:normal;font-variant:normal;font-weight:normal;font-stretch:normal;font-size:medium;line-height:normal;font-family:sans-serif;font-variant-ligatures:normal;font-variant-position:normal;font-variant-caps:normal;font-variant-numeric:normal;font-variant-alternates:normal;font-feature-settings:normal;text-indent:0;text-align:start;text-decoration:none;text-decoration-line:none;text-decoration-style:solid;text-decoration-color:#000000;letter-spacing:normal;word-spacing:normal;text-transform:none;writing-mode:lr-tb;direction:ltr;text-orientation:mixed;dominant-baseline:auto;baseline-shift:baseline;text-anchor:start;white-space:normal;shape-padding:0;clip-rule:nonzero;display:inline;overflow:visible;visibility:visible;opacity:1;isolation:auto;mix-blend-mode:normal;color-interpolation:sRGB;color-interpolation-filters:linearRGB;solid-color:#000000;solid-opacity:1;vector-effect:none;fill:#ffffff;fill-opacity:1;fill-rule:nonzero;stroke:none;stroke-width:0.68087077px;stroke-linecap:butt;stroke-linejoin:miter;stroke-miterlimit:4;stroke-dasharray:none;stroke-dashoffset:0;stroke-opacity:1;color-rendering:auto;image-rendering:auto;shape-rendering:auto;text-rendering:auto;enable-background:accumulate"
       d="m 16.614012,39.546233 0.0525,1.201069 c -0.39929,0.05277 -1.00487,0.135725 -1.393715,0.186838 0.24482,0.04474 0.729933,0.0512 1.403192,0.02615 l 2.819908,64.3262 -0.608275,0.17557 0.612537,-0.0745 0.210424,4.80009 -1.435425,0.57148 c 0,0 1.411234,-0.17409 1.452529,-0.1792 l 0.04256,0.96101 0.680823,-0.0295 c -0.0209,-0.2324 -0.04406,-0.67573 -0.06639,-1.01434 1.971482,-0.24406 23.942181,-2.96298 48.060232,-5.95043 12.588354,-1.5593 25.223328,-3.12492 34.802398,-4.31249 8.63974,-1.071105 13.44675,-1.667765 14.85675,-1.844819 0.14165,0.748951 0.39781,1.471866 1.07759,1.967859 l -0.41641,-2.050135 c 0.0633,-0.0082 0.9311,-0.115612 0.95402,-0.118622 l -0.0879,-0.674906 c -0.0207,0.0027 -0.93578,0.116572 -1.00166,0.124878 l -0.92645,-4.563039 1.63498,-0.410681 -1.67667,0.206072 -11.88574,-58.515581 c -0.10805,-1.640653 -0.2946,-3.125257 -0.77532,-4.52508 0.46003,-0.06067 1.15247,-0.154994 1.59881,-0.213665 -0.26699,-0.06052 -0.88767,-0.06127 -1.68891,-0.03214 -0.23999,-0.645519 -0.53956,-1.274957 -0.93733,-1.892174 l 0.38487,1.923631 C 93.133058,30.182524 43.907305,37.146512 17.01297,40.700623 16.881719,39.971376 16.748935,39.540344 16.614068,39.546166 Z m 0.441592,1.388772 c 10.33839,-0.491534 60.021654,-7.414506 87.360236,-11.026839 l 12.59226,63.043352 -95.451396,11.742022 -1.436957,0.41395 C 19.440041,88.774635 18.344922,48.833794 17.055604,40.935005 Z m 5.155492,2.367346 c -0.0034,-0.01614 0.03173,0.236161 0.06393,0.557654 0.0074,0.07383 0.01947,0.205297 0.02771,0.290644 l -1.013693,0.138373 0.09217,0.675363 0.984825,-0.133478 c 0.01001,0.110048 0.01668,0.176263 0.02731,0.294817 0.06393,0.713069 0.142499,1.646059 0.21839,2.542187 l -2.039202,0.303805 0.09996,0.673668 1.997055,-0.297385 c 0.01226,0.145693 0.02315,0.261611 0.03533,0.407378 0.133832,1.598515 0.180689,2.184738 0.260059,3.16046 l -1.001847,0.161639 0.109361,0.672993 0.94799,-0.152672 c 0.02288,0.282154 0.106414,1.292783 0.106414,1.292783 l 0.678065,-0.05468 c 0,0 -0.08536,-1.042318 -0.109906,-1.346462 l 20.892125,-3.36709 -0.05379,-0.335336 0.333845,-0.06686 -0.252004,-1.26119 c 0.528261,0.08237 0.885656,0.284297 1.168497,0.556054 0.506595,0.486713 0.811053,1.310254 1.20141,2.21859 0.39035,0.908343 0.899431,1.91019 1.958042,2.551052 0.713219,0.431768 1.647367,0.672646 2.884277,0.668077 0.04848,0.322727 0.08637,0.586966 0.13516,0.910971 0.347469,2.307383 0.540142,3.558163 0.691138,4.54471 l -0.227642,0.03581 0.106481,0.67225 0.223469,-0.03622 c 0.01682,0.109539 0.128916,0.851089 0.128916,0.851089 l 0.672836,-0.103812 c 0,0 -0.112595,-0.743457 -0.129488,-0.853697 l 21.018849,-3.353766 -0.05406,-0.336635 0.33748,-0.05012 -1.628684,-10.983228 -0.33618,0.04983 -0.05637,-0.334763 -20.984942,3.497463 c -0.01035,-0.08834 -0.03574,-0.275651 -0.03663,-0.29415 l -0.679965,0.0333 c 0.0034,0.06659 0.02982,0.253672 0.04419,0.372791 l -0.831376,0.13823 0.111669,0.671128 0.806389,-0.1342 c 0.05058,0.36793 0.106726,0.773232 0.180609,1.283483 0.09844,0.680156 0.233504,1.575678 0.356687,2.401948 -1.006933,-0.01423 -1.702973,-0.221201 -2.204019,-0.524522 -0.781048,-0.472824 -1.177737,-1.217486 -1.54813,-2.07938 -0.370401,-0.861894 -0.681178,-1.832291 -1.431981,-2.553646 -0.493918,-0.474547 -1.175714,-0.78051 -2.081823,-0.851783 l -0.96235,-4.828756 -0.334138,0.06557 -0.04589,-0.337038 -20.089461,2.732933 c -0.0075,-0.07766 -0.01838,-0.198405 -0.02519,-0.26669 -0.03262,-0.325748 -0.04678,-0.497498 -0.07634,-0.633883 z m 0.830234,1.436413 19.801077,-2.694832 0.871998,4.37482 c -0.284951,0.01355 -0.582444,0.0403 -0.905878,0.09593 a 0.51070415,0.51070415 0 0 0 -0.05099,0.0097 0.51070415,0.51070415 0 0 0 0.223284,0.996618 c 0.353346,-0.06081 0.658872,-0.08998 0.933733,-0.09925 l 0.216456,1.0852 -20.492822,3.300834 c -0.07934,-0.979174 -0.122591,-1.536017 -0.254251,-3.108652 -0.01348,-0.161374 -0.02587,-0.290119 -0.03943,-0.451383 L 39.098733,45.904669 38.998773,45.231 23.286692,47.567661 c -0.07484,-0.88087 -0.152412,-1.800454 -0.215407,-2.503371 -0.01171,-0.130551 -0.01892,-0.205297 -0.02982,-0.325559 z m 28.769657,3.89885 20.668357,-3.445083 1.528446,10.308274 -20.682206,3.29976 c -0.151173,-0.987958 -0.343022,-2.235313 -0.690015,-4.539516 -0.04473,-0.297023 -0.07958,-0.538364 -0.123993,-0.834469 0.415501,-0.02941 0.853968,-0.07758 1.334439,-0.159003 a 0.51070415,0.51070415 0 0 0 0.190589,-0.06861 1.0476931,1.1136307 77.75386 0 0 -0.0527,0.591132 1.0476931,1.1136307 77.75386 0 0 1.310737,0.785078 1.0476931,1.1136307 77.75386 0 0 0.865468,-1.260149 l -5.79e-4,-0.0027 a 1.0476931,1.1136307 77.75386 0 0 -1.313338,-0.784527 1.0476931,1.1136307 77.75386 0 0 -0.568255,0.30977 0.51070415,0.51070415 0 0 0 -0.601528,-0.577052 c -0.485114,0.08223 -0.917175,0.129345 -1.314946,0.154775 -0.127608,-0.855949 -0.266567,-1.778107 -0.368133,-2.479745 -0.07485,-0.517223 -0.131918,-0.929743 -0.182412,-1.29806 z m -8.120841,7.725616 0.117273,1.110807 -21.409553,3.578739 0.05664,0.336064 -0.336921,0.0527 2.039099,13.049644 -1.067367,0.14186 0.09056,0.674348 1.081658,-0.144964 0.120916,0.776628 0.672538,-0.105147 -0.11886,-0.760736 22.359327,-2.983386 -0.08958,-0.675921 -1.231334,0.163838 -1.423667,-13.537024 0.689327,-0.11562 -0.111949,-0.672427 -0.648761,0.108135 -0.112146,-1.068368 z m 37.6796,-7.764705 -0.664223,0.149745 0.265805,1.180629 -1.601558,0.270047 0.112936,0.670856 1.638216,-0.276652 3.551531,15.785874 c -1.115041,0.531093 -1.886816,1.197154 -2.407205,1.949953 -0.795244,1.150379 -1.008451,2.435869 -1.203364,3.615539 -0.194913,1.17967 -0.376842,2.251476 -0.958319,3.0956 -0.581484,0.844116 -1.572137,1.541988 -3.61729,1.92956 a 0.51070415,0.51070415 0 1 0 0.190331,1.002412 c 2.213313,-0.419436 3.519632,-1.265528 4.268461,-2.352579 0.748829,-1.087058 0.930519,-2.334509 1.124506,-3.508609 0.194,-1.174107 0.395538,-2.277539 1.034576,-3.201965 0.387068,-0.559914 0.944027,-1.075081 1.797212,-1.512745 l 2.552211,11.344799 c -0.07947,0.01164 -0.968715,0.14497 -0.968715,0.14497 l 0.09996,0.673674 c 0,0 0.931282,-0.138734 1.018944,-0.151772 l 0.235132,1.045762 0.664224,-0.149743 -0.224694,-0.997673 c 1.310873,-0.194675 4.657939,-0.69058 9.45594,-1.411487 2.828697,-0.425019 5.697937,-0.858666 7.944127,-1.204466 1.61951,-0.249302 2.30995,-0.366792 3.04116,-0.489976 l 0.32087,1.534724 0.66653,-0.139102 -0.3141,-1.503533 c 0.0798,-0.0145 0.45694,-0.07062 0.50366,-0.08075 l -0.14443,-0.665381 c -0.0322,0.007 -0.42795,0.06693 -0.49844,0.07962 l -6.04243,-28.917073 -0.33327,0.06955 -0.0566,-0.336071 -21.178009,3.573387 z M 22.841691,61.66814 43.878496,58.152614 45.300249,71.668287 24.830999,74.400642 Z M 55.43947,55.549399 a 1.0476931,1.1136307 77.75386 0 0 -0.862582,1.260891 1.0476931,1.1136307 77.75386 0 0 1.310745,0.785085 1.0476931,1.1136307 77.75386 0 0 0.865468,-1.260163 l -5.78e-4,-0.0027 a 1.0476931,1.1136307 77.75386 0 0 -1.313067,-0.783219 z m 26.353581,-5.069607 20.818549,-3.511693 5.96886,28.565634 c -0.71056,0.118968 -1.39068,0.23503 -3.00579,0.483663 -2.24465,0.345549 -5.11326,0.778944 -7.941528,1.203889 -4.822581,0.724603 -8.222713,1.228986 -9.504595,1.419337 L 85.533856,67.106377 c 0.397595,-0.159038 0.852029,-0.30298 1.363629,-0.43206 a 1.0476931,1.1136307 77.75386 0 0 1.16085,0.439319 1.0476931,1.1136307 77.75386 0 0 0.865469,-1.260149 l -5.79e-4,-0.0027 a 1.0476931,1.1136307 77.75386 0 0 -1.313059,-0.783219 1.0476931,1.1136307 77.75386 0 0 -0.766314,0.575928 0.51082655,0.51082655 0 0 0 -0.103063,0.01423 c -0.527226,0.129135 -0.998946,0.2812 -1.432218,0.448306 z m 4.246209,5.607427 a 1.0476931,1.1136307 77.75386 0 0 -0.862575,1.260891 1.0476931,1.1136307 77.75386 0 0 1.310738,0.785079 1.0476931,1.1136307 77.75386 0 0 0.864448,-1.258571 l -6.82e-4,-0.0041 A 1.0476931,1.1136307 77.75386 0 0 86.039424,56.087035 Z M 53.773215,73.232553 c -0.002,-0.008 0.01607,0.09015 0.03357,0.217252 0.01757,0.127085 0.04058,0.30072 0.06814,0.514549 0.01158,0.08979 0.03193,0.254386 0.04493,0.357661 -0.194662,0.03248 -0.491623,0.08079 -0.655522,0.108286 -0.627028,0.105092 -0.983198,0.164423 -1.108294,0.191576 l 0.144419,0.665374 c 0.02526,-0.0055 0.450927,-0.08122 1.076832,-0.186068 0.156538,-0.02621 0.441598,-0.07383 0.626373,-0.104671 0.0292,0.23644 0.04978,0.399903 0.08325,0.671843 0.07011,0.570155 0.164566,1.365875 0.247081,2.047433 l -0.456517,0.05965 0.08796,0.674907 0.451328,-0.05856 c 0.04235,0.351146 0.07979,0.657123 0.12334,1.019673 -2.713671,1.001458 -3.528824,2.737345 -4.396417,4.226954 -0.677956,1.163997 -1.414291,2.234844 -3.312504,3.039128 l -0.735783,-5.552896 0.627341,-0.09394 -0.101225,-0.673395 -0.615637,0.09148 -0.124892,-0.93905 -0.674628,0.0893 0.126139,0.951027 -20.734858,3.094823 -0.05325,-0.866143 -0.679297,0.04262 0.05658,0.925303 -1.456614,0.216817 0.09996,0.673674 1.398577,-0.208306 0.19114,3.125068 -1.492509,0.270864 0.121066,0.670446 1.41267,-0.256252 0.600889,9.827839 -1.119617,0.120548 0.07209,0.676989 1.089168,-0.11666 0.112903,1.849314 0.679577,-0.0414 -0.114476,-1.881625 21.9042,-2.359333 0.153808,1.160026 0.674627,-0.08929 -0.151725,-1.144148 1.007921,-0.108538 -0.07368,-0.678018 -1.023797,0.110628 -1.041038,-7.855765 c 2.310827,-0.939867 3.318679,-2.283422 4.060209,-3.55659 0.879052,-1.509278 1.391904,-2.820942 3.638716,-3.69915 0.0076,0.06047 0.01301,0.107918 0.02022,0.168427 0.300652,2.510439 0.444738,3.734113 0.592078,4.978534 l -1.060258,0.162061 0.10382,0.67283 1.036577,-0.158316 c 0.02961,0.250043 0.167454,1.404731 0.167454,1.404731 l 0.676881,-0.07891 c 0,0 -0.139627,-1.171425 -0.170218,-1.429979 l 23.889598,-3.657079 -0.102552,-0.673109 -23.867224,3.653586 c -0.14811,-1.250657 -0.290378,-2.456139 -0.589586,-4.954574 -0.01349,-0.112405 -0.02451,-0.200495 -0.03799,-0.312915 0.08055,-0.02485 0.14361,-0.054 0.227997,-0.07805 a 0.51070415,0.51070415 0 0 0 -0.244956,-0.990557 0.51070415,0.51070415 0 0 0 -0.03479,0.0089 c -0.02573,0.0077 -0.04848,0.01539 -0.07394,0.02302 -0.03793,-0.315338 -0.07043,-0.583499 -0.107393,-0.889782 l 19.329594,-2.528536 -0.08929,-0.674614 -19.32152,2.528135 c -0.08235,-0.67953 -0.177319,-1.473037 -0.247259,-2.041946 -0.03479,-0.282846 -0.05624,-0.455202 -0.08659,-0.699704 0.408625,-0.06781 0.715956,-0.119723 1.2057,-0.200454 2.034761,-0.335383 4.691758,-0.769507 7.329935,-1.200416 5.276339,-0.861839 10.477478,-1.70806 10.477478,-1.70806 l -0.109072,-0.671656 c 0,0 -5.201084,0.844872 -10.477758,1.706759 -2.638347,0.430944 -5.295568,0.866517 -7.330963,1.202003 -0.479251,0.07901 -0.778643,0.129638 -1.180711,0.196425 -0.01205,-0.09529 -0.03016,-0.24892 -0.04092,-0.332681 -0.02765,-0.215046 -0.05147,-0.390179 -0.06955,-0.521057 -0.01812,-0.13087 -0.02717,-0.200292 -0.04194,-0.268487 z m -29.133691,11.094422 20.782199,-3.102374 0.754833,5.697084 c -0.611408,0.210669 -1.29891,0.40456 -2.144477,0.564802 a 0.51082655,0.51082655 0 1 0 0.19061,1.003713 c 0.787733,-0.149308 1.477653,-0.332149 2.09013,-0.539399 l 1.017929,7.686609 -21.856007,2.355683 -0.603244,-9.876316 18.999039,-3.443362 -0.120787,-0.669152 -18.92078,3.427742 z m 32.800351,-5.342146 a 1.0476931,1.1136307 77.75386 0 0 -0.862581,1.260891 1.0476931,1.1136307 77.75386 0 0 1.310744,0.785078 1.0476931,1.1136307 77.75386 0 0 0.865468,-1.260156 l -5.78e-4,-0.0027 a 1.0476931,1.1136307 77.75386 0 0 -1.313067,-0.78322 z M 20.127244,105.31135 114.7161,93.827287 l 2.34857,-0.590042 0.53434,2.675005 c 0.24864,0.477897 0.31275,1.132228 0.39832,1.803682 -1.38737,0.173949 -6.20546,0.772897 -14.83409,1.842634 -9.579019,1.187564 -22.214054,2.753184 -34.802395,4.312474 -25.110501,3.1104 -47.893187,6.05128 -48.01321,6.06678 -0.06699,-1.14151 -0.141635,-2.74628 -0.220364,-4.62648 z"
       id="path976"
       inkscape:connector-curvature="0" />
    <path
       id="path986"
       d="m 69.068133,29.932439 -45.901591,6.274122 -8.169122,50.010756 0.937525,18.153453 45.684837,4.06661 61.005758,-7.67177 0.0359,-5.436328 -13.0682,-62.229193 z"
       style="fill:#1a1a1a;fill-opacity:0.32699621;stroke:none;stroke-width:0.69842637px;stroke-linecap:butt;stroke-linejoin:miter;stroke-opacity:1"
       inkscape:connector-curvature="0" />
    <path
       sodipodi:nodetypes="ccccc"
       inkscape:connector-curvature="0"
       id="path817"
       d="m 26.108551,27.426222 -12.359896,75.552038 107.757395,9.57457 0.52224,-77.64104 z"
       style="fill:url(#linearGradient825);fill-opacity:1;stroke:#335e8c;stroke-width:0.75590551;stroke-linecap:butt;stroke-linejoin:miter;stroke-miterlimit:4;stroke-dasharray:none;stroke-opacity:1" />
    <path
       inkscape:connector-curvature="0"
       id="path841"
       d="m 29.739641,30.138668 -0.203464,1.184879 c -0.401394,-0.03316 -1.010794,-0.08051 -1.401634,-0.113038 0.229767,0.09562 0.702461,0.204867 1.365725,0.323148 l -10.888609,63.460616 -0.631671,0.04256 0.614384,0.05719 -0.812524,4.735511 -1.523979,0.253996 c 0,0 1.416048,0.12922 1.457485,0.13298 l -0.162238,0.94816 0.671563,0.11571 c 0.02887,-0.23156 0.100279,-0.6697 0.150269,-1.00535 1.978386,0.17968 24.025867,2.18286 48.228794,4.37911 12.632659,1.14633 25.312216,2.29636 34.925218,3.16765 8.67034,0.78585 13.49452,1.22239 14.90999,1.34843 -0.0205,0.76196 0.0765,1.52277 0.63567,2.15167 l 0.0279,-2.09182 c 0.0636,0.005 0.93444,0.0845 0.95748,0.0864 l 0.0572,-0.67821 c -0.0208,-0.002 -0.93922,-0.0845 -1.00535,-0.0904 l 0.0625,-4.65572 1.68489,-0.0545 -1.68223,-0.15426 0.79656,-59.705195 c 0.24242,-1.626239 0.375,-3.116631 0.20214,-4.586569 0.46244,0.03827 1.15913,0.09299 1.60776,0.130325 -0.24809,-0.115762 -0.85448,-0.248143 -1.64367,-0.389636 -0.0976,-0.681734 -0.25685,-1.360393 -0.51464,-2.047936 l -0.0319,1.961493 C 106.50361,37.218676 56.920826,33.58284 29.884591,31.351469 c 0.02642,-0.740495 -0.01192,-1.189882 -0.14495,-1.212801 z m 0.136971,1.45084 c 10.207404,1.712547 60.228591,5.485511 87.711308,7.754213 l -1.06652,64.279789 -95.77005,-8.771532 -1.492067,0.09974 C 22.059439,78.846333 29.461165,39.582046 29.876612,31.589508 Z m 4.536036,3.407017 c 0,-0.01648 -0.01906,0.237522 -0.05583,0.558524 -0.0085,0.07372 -0.02451,0.204752 -0.03458,0.289902 l -1.019978,-0.07979 -0.05318,0.679543 0.990721,0.07846 c -0.01354,0.109669 -0.02111,0.175781 -0.03588,0.293892 -0.0888,0.7104 -0.209893,1.638829 -0.32581,2.53066 l -2.057238,-0.135643 -0.04521,0.679543 2.01469,0.132981 c -0.01892,0.144971 -0.03289,0.260563 -0.05188,0.405602 -0.208279,1.590527 -0.286831,2.173346 -0.41623,3.143703 l -1.013334,-0.05454 -0.03588,0.68087 0.958803,0.05188 c -0.03752,0.28058 -0.170218,1.28594 -0.170218,1.28594 l 0.674226,0.09043 c 0,0 0.137664,-1.036708 0.178197,-1.339137 l 21.130927,1.140996 0.01858,-0.339107 0.340436,0.0055 0.02124,-1.285941 c 0.498765,0.192551 0.805198,0.465682 1.023962,0.791247 0.391828,0.583098 0.514677,1.452475 0.703483,2.42294 0.188798,0.970473 0.47379,2.05751 1.372376,2.908333 0.60541,0.573225 1.467209,1.006763 2.676939,1.264663 -0.02111,0.32566 -0.0401,0.591928 -0.06114,0.91891 -0.149859,2.328585 -0.226873,3.59177 -0.288574,4.587898 l -0.230059,-0.01328 -0.03854,0.679536 0.226071,0.01199 c -0.0068,0.110608 -0.05454,0.859068 -0.05454,0.859068 l 0.679543,0.04126 c 0,0 0.04766,-0.750421 0.05454,-0.86173 l 21.251944,1.180888 0.01859,-0.340434 0.340435,0.02261 0.738051,-11.078775 -0.339101,-0.02261 0.01593,-0.339101 -21.24931,-1.033276 c 0.0087,-0.08852 0.02356,-0.276958 0.02662,-0.295218 l -0.671556,-0.111711 c -0.01096,0.06578 -0.02464,0.25423 -0.03588,0.373683 l -0.841781,-0.04126 -0.03323,0.679543 0.816507,0.03989 c -0.0286,0.370293 -0.05971,0.778276 -0.09575,1.292593 -0.04807,0.685556 -0.106025,1.58935 -0.16091,2.422947 -0.980992,-0.22752 -1.617306,-0.577386 -2.042612,-0.980087 -0.662978,-0.627735 -0.89269,-1.439592 -1.071841,-2.360435 -0.179151,-0.920851 -0.277026,-1.93509 -0.857734,-2.799285 -0.382023,-0.568514 -0.983409,-1.012128 -1.853779,-1.273978 l 0.08378,-4.923009 -0.340436,-0.0068 0.02662,-0.339108 -20.212023,-1.590466 c 0.0092,-0.07748 0.0241,-0.197794 0.03193,-0.265969 0.03724,-0.325252 0.05985,-0.496089 0.05985,-0.635654 z m 0.506663,1.579831 19.922116,1.566534 -0.0758,4.460235 c -0.281342,-0.04718 -0.577731,-0.08418 -0.905612,-0.0984 a 0.51070415,0.51070415 0 0 0 -0.05188,-0.0014 0.51070415,0.51070415 0 0 0 0.0068,1.021306 c 0.358207,0.01552 0.662971,0.05181 0.933543,0.101062 l -0.01866,1.106415 -20.72666,-1.121041 c 0.130156,-0.973726 0.206005,-1.52707 0.410912,-3.091847 0.02104,-0.160564 0.03622,-0.289009 0.05719,-0.449478 l 15.892742,1.051892 0.04521,-0.679543 -15.850196,-1.049229 c 0.113706,-0.876697 0.232953,-1.791814 0.320493,-2.492096 0.01627,-0.130053 0.02505,-0.204636 0.0399,-0.324476 z m 27.288022,9.912519 20.928803,1.017316 -0.692841,10.397911 -20.911509,-1.162266 c 0.06182,-0.997544 0.138918,-2.257209 0.288567,-4.582581 0.01926,-0.29976 0.03642,-0.542994 0.05583,-0.84178 0.412288,0.05937 0.850994,0.105316 1.337802,0.127662 a 0.51070415,0.51070415 0 0 0 0.200802,-0.02662 1.1136307,1.0476931 0 0 0 -0.176862,0.566505 1.1136307,1.0476931 0 0 0 1.114388,1.045239 1.1136307,1.0476931 0 0 0 1.113067,-1.047901 v -0.0027 a 1.1136307,1.0476931 0 0 0 -1.11705,-1.045246 1.1136307,1.0476931 0 0 0 -0.621029,0.182189 0.51070415,0.51070415 0 0 0 -0.465444,-0.691514 c -0.491514,-0.02254 -0.923737,-0.06814 -1.317852,-0.127663 0.05685,-0.863542 0.116653,-1.794189 0.166227,-2.501403 0.03656,-0.521336 0.06829,-0.936573 0.09708,-1.307218 z m -9.574746,5.8273 -0.121011,1.110405 -21.681479,-1.043917 -0.01593,0.340434 -0.340435,-0.01995 -0.775287,13.18522 -1.073168,-0.08777 -0.05454,0.678215 1.0878,0.08776 -0.04657,0.784602 0.679536,0.0399 0.04521,-0.768636 22.48336,1.827178 0.05584,-0.679543 -1.238068,-0.101067 1.480091,-13.530973 0.698164,0.03323 0.03323,-0.680872 -0.65693,-0.03193 0.11702,-1.06785 z m 38.4692,0.404267 -0.680872,0.0055 0.0093,1.210139 -1.622393,-0.0758 -0.03193,0.679543 1.659622,0.07713 0.122345,16.179996 c -1.202322,0.282492 -2.09781,0.769696 -2.766037,1.394981 -1.021156,0.955528 -1.502178,2.166538 -1.942878,3.278025 -0.440701,1.111481 -0.845832,2.120313 -1.593129,2.82189 -0.747297,0.701569 -1.863441,1.173433 -3.944264,1.118384 a 0.51070415,0.51070415 0 1 0 -0.02662,1.019972 c 2.251918,0.05958 3.707975,-0.490173 4.670344,-1.393654 0.96237,-0.903488 1.404521,-2.084016 1.843138,-3.190254 0.438624,-1.106238 0.869628,-2.141816 1.690207,-2.90966 0.497023,-0.465069 1.150584,-0.850374 2.077187,-1.097108 l 0.08777,11.627999 c -0.08014,-0.0055 -0.977424,-0.0638 -0.977424,-0.0638 l -0.0452,0.679543 c 0,0 0.93952,0.06196 1.027952,0.06781 l 0.008,1.07184 0.680871,-0.0055 -0.008,-1.022634 c 1.322341,0.0878 4.698431,0.313139 9.540174,0.626347 2.85449,0.184658 5.75043,0.369474 8.01885,0.50799 1.63553,0.09988 2.33519,0.131517 3.07589,0.166235 l -0.012,1.567861 0.68087,0.0055 0.012,-1.535949 c 0.0811,0.0027 0.46152,0.02792 0.50932,0.02792 v -0.68087 c -0.033,0 -0.43241,-0.0254 -0.504,-0.02792 l 0.22873,-29.54075 -0.34044,-0.0027 0.016,-0.340434 -21.454078,-1.00003 z m -59.968492,0.357723 21.303807,1.026623 -1.477435,13.509703 -20.583044,-1.671593 z m 33.153886,0.934863 a 1.1136307,1.0476931 0 0 0 -1.110404,1.049235 1.1136307,1.0476931 0 0 0 1.114395,1.045246 1.1136307,1.0476931 0 0 0 1.113066,-1.047908 v -0.0027 A 1.1136307,1.0476931 0 0 0 64.287181,54.01296 Z m 26.829237,0.635661 21.089702,0.98407 -0.22606,29.181699 c -0.71964,-0.03445 -1.40889,-0.0653 -3.03999,-0.1649 -2.26687,-0.138435 -5.16213,-0.323366 -8.01619,-0.507997 -4.866532,-0.314815 -8.296283,-0.543117 -9.589372,-0.629003 l -0.0891,-11.82215 c 0.422283,-0.07109 0.896905,-0.11536 1.424246,-0.132987 a 1.1136307,1.0476931 0 0 0 1.041249,0.675552 1.1136307,1.0476931 0 0 0 1.113067,-1.047901 v -0.0027 a 1.1136307,1.0476931 0 0 0 -1.117051,-1.043912 1.1136307,1.0476931 0 0 0 -0.871037,0.400278 0.51082655,0.51082655 0 0 0 -0.103731,-0.008 c -0.54262,0.01436 -1.035863,0.06291 -1.494722,0.134316 z m 2.960188,6.380502 a 1.1136307,1.0476931 0 0 0 -1.110398,1.049235 1.1136307,1.0476931 0 0 0 1.114388,1.045239 1.1136307,1.0476931 0 0 0 1.111739,-1.046573 v -0.0041 a 1.1136307,1.0476931 0 0 0 -1.115729,-1.043911 z m -35.168569,9.911191 c 0,-0.0083 -0.0034,0.0915 -0.01328,0.219423 -0.0098,0.127916 -0.0241,0.302491 -0.04255,0.517299 -0.0078,0.0902 -0.02274,0.255374 -0.03193,0.359057 -0.197126,-0.0096 -0.497574,-0.02533 -0.663577,-0.03323 -0.635049,-0.0303 -0.995705,-0.04787 -1.123709,-0.04787 v 0.680872 c 0.02587,0 0.457893,0.01627 1.09179,0.04657 0.158547,0.0076 0.447217,0.02152 0.634326,0.03057 -0.02159,0.237263 -0.03615,0.401366 -0.06114,0.674219 -0.05243,0.572047 -0.128896,1.3697 -0.19283,2.053254 l -0.458784,-0.03854 -0.05719,0.678208 0.453473,0.03854 c -0.03309,0.35214 -0.06141,0.65909 -0.09575,1.022635 -2.864349,0.403068 -4.029148,1.926551 -5.192968,3.198233 -0.909425,0.99371 -1.856142,1.884004 -3.88176,2.267354 l 0.458792,-5.582609 0.632992,0.04126 0.04392,-0.679543 -0.621028,-0.04119 0.07713,-0.944177 -0.678216,-0.05583 -0.07846,0.956146 -20.919489,-1.373711 0.131654,-0.857734 -0.672892,-0.102403 -0.14096,0.916255 -1.469463,-0.09708 -0.0452,0.679543 1.410942,0.09309 -0.476079,3.094502 -1.516,-0.05188 -0.02389,0.680871 1.434881,0.04923 -1.497385,9.731666 -1.119712,-0.119683 -0.07314,0.67688 1.089128,0.117021 -0.281927,1.831176 0.67289,0.103723 0.287245,-1.863087 21.906222,2.340493 -0.09575,1.166257 0.678216,0.05583 0.09441,-1.150297 1.008008,0.107721 0.07182,-0.678215 -1.023969,-0.109049 0.648952,-7.897829 c 2.45759,-0.428319 3.727489,-1.527523 4.7222,-2.614431 1.179187,-1.288481 1.958587,-2.461519 4.340552,-2.843167 -0.0055,0.06067 -0.01021,0.108218 -0.01593,0.16889 -0.238686,2.51709 -0.357438,3.743482 -0.477407,4.990838 l -1.070506,-0.06652 -0.04126,0.679543 1.046574,0.06516 c -0.0241,0.250629 -0.134315,1.408287 -0.134315,1.408287 l 0.678214,0.06645 c 0,0 0.112024,-1.174386 0.136971,-1.433546 L 82.4926,85.559222 82.53515,84.879679 58.436049,83.387612 c 0.120535,-1.25362 0.237202,-2.461845 0.47475,-4.966898 0.01069,-0.112698 0.01859,-0.20113 0.02928,-0.31384 0.08399,-0.0072 0.151801,-0.02234 0.239367,-0.02792 a 0.51070415,0.51070415 0 0 0 -0.02927,-1.019979 0.51070415,0.51070415 0 0 0 -0.03588,0.0014 c -0.02676,0.002 -0.05065,0.0048 -0.07713,0.0068 0.02982,-0.316209 0.05495,-0.58516 0.08378,-0.892315 l 19.426095,1.629038 0.05583,-0.678208 -19.418115,-1.627711 c 0.06366,-0.681537 0.139171,-1.477128 0.191496,-2.047929 0.02601,-0.283787 0.0416,-0.45677 0.0638,-0.702148 0.413704,0.02043 0.72506,0.03486 1.22078,0.05985 2.059601,0.103847 4.748223,0.24318 7.417768,0.381662 5.339089,0.276951 10.60137,0.553208 10.60137,0.553208 l 0.03588,-0.679544 c 0,0 -5.261946,-0.277563 -10.601369,-0.554534 -2.669715,-0.13849 -5.358862,-0.276454 -7.419102,-0.380335 -0.485107,-0.02444 -0.788428,-0.03847 -1.195513,-0.05849 0.0085,-0.09568 0.02336,-0.249648 0.03057,-0.33379 0.01859,-0.21602 0.03248,-0.392216 0.04255,-0.52395 0.01008,-0.131735 0.01593,-0.201504 0.01593,-0.271287 z m -30.824029,4.662371 20.967362,1.376367 -0.47076,5.727559 c -0.642185,0.07619 -1.355165,0.119841 -2.215487,0.09708 a 0.51082655,0.51082655 0 1 0 -0.02662,1.021306 c 0.80148,0.02117 1.514481,-0.01117 2.156978,-0.08378 l -0.635654,7.727619 -21.85835,-2.333843 1.505365,-9.779536 19.297104,0.66491 0.02389,-0.679543 -19.217313,-0.663583 z m 33.187127,1.736752 a 1.1136307,1.0476931 0 0 0 -1.110405,1.049235 1.1136307,1.0476931 0 0 0 1.114395,1.045239 1.1136307,1.0476931 0 0 0 1.113067,-1.047901 v -0.0027 a 1.1136307,1.0476931 0 0 0 -1.117057,-1.04394 z m -42.047761,17.813016 94.872426,8.840679 2.42029,-0.0785 -0.0452,2.72748 c 0.14161,0.51975 0.0655,1.1728 0.007,1.84712 -1.3927,-0.12428 -6.2282,-0.56094 -14.88739,-1.34578 -9.612949,-0.87128 -22.292567,-2.02132 -34.925211,-3.16765 -25.198871,-2.28662 -48.086943,-4.245125 -48.207518,-4.255441 0.176625,-1.129748 0.444105,-2.713828 0.76598,-4.567948 z"
       style="color:#000000;font-style:normal;font-variant:normal;font-weight:normal;font-stretch:normal;font-size:medium;line-height:normal;font-family:sans-serif;font-variant-ligatures:normal;font-variant-position:normal;font-variant-caps:normal;font-variant-numeric:normal;font-variant-alternates:normal;font-feature-settings:normal;text-indent:0;text-align:start;text-decoration:none;text-decoration-line:none;text-decoration-style:solid;text-decoration-color:#000000;letter-spacing:normal;word-spacing:normal;text-transform:none;writing-mode:lr-tb;direction:ltr;text-orientation:mixed;dominant-baseline:auto;baseline-shift:baseline;text-anchor:start;white-space:normal;shape-padding:0;clip-rule:nonzero;display:inline;overflow:visible;visibility:visible;opacity:1;isolation:auto;mix-blend-mode:normal;color-interpolation:sRGB;color-interpolation-filters:linearRGB;solid-color:#000000;solid-opacity:1;vector-effect:none;fill:#ffffff;fill-opacity:1;fill-rule:nonzero;stroke:none;stroke-width:0.68087077px;stroke-linecap:butt;stroke-linejoin:miter;stroke-miterlimit:4;stroke-dasharray:none;stroke-dashoffset:0;stroke-opacity:1;color-rendering:auto;image-rendering:auto;shape-rendering:auto;text-rendering:auto;enable-background:accumulate" />
    <g
       transform="matrix(0.68087079,0,0,0.68087079,8.5261586,-120.98109)"
       style="opacity:1"
       id="g1054">
      <path
         style="fill:url(#linearGradient1056);fill-opacity:1;stroke:none;stroke-width:1px;stroke-linecap:butt;stroke-linejoin:miter;stroke-opacity:1"
         d="M 32.726661,264.75582 C 65.900325,254.5384 85.471101,240.21512 140.62237,236.63135 171.09229,225.89291 155.25268,190.09813 131.418,192.14354 72.367723,188.46368 38.964954,203.43655 -6.647603,209.52958 Z"
         id="path995"
         inkscape:connector-curvature="0"
         sodipodi:nodetypes="ccccc" />
    </g>
    <path
       id="path1058"
       d="M 87.136476,9.4584436 C 60.731518,9.2530794 41.920331,14.570857 21.461703,18.690098 l 1.704839,17.516463 80.806858,-8.514874 c 3.84644,-2.319067 7.46241,-4.765503 10.42185,-7.57735 C 111.77367,14.018977 105.47096,9.203403 98.005142,9.8440957 94.235868,9.609202 90.62003,9.4855354 87.136476,9.4584436 Z"
       style="opacity:0.731;fill:url(#linearGradient1107);fill-opacity:1;stroke:none;stroke-width:0.68087077px;stroke-linecap:butt;stroke-linejoin:miter;stroke-opacity:1"
       inkscape:connector-curvature="0" />
    <g
       transform="matrix(0.68087079,0,0,0.68087079,172.16421,-66.319016)"
       id="g1155">
      <path
         d="m -84.610175,136.13559 a 12.293786,8.1355934 0 0 1 -12.283862,8.13559 12.293786,8.1355934 0 0 1 -12.303693,-8.12246 12.293786,8.1355934 0 0 1 12.263997,-8.1487 12.293786,8.1355934 0 0 1 12.323494,8.1093"
         sodipodi:open="true"
         sodipodi:end="6.2799564"
         sodipodi:start="0"
         sodipodi:ry="8.1355934"
         sodipodi:rx="12.293786"
         sodipodi:cy="136.13559"
         sodipodi:cx="-96.903961"
         sodipodi:type="arc"
         id="path1113"
         style="opacity:0.731;fill:#ffc40f;fill-opacity:0;stroke:none;stroke-width:1.5;stroke-linecap:round;stroke-linejoin:round;stroke-miterlimit:4;stroke-dasharray:none;stroke-dashoffset:0;stroke-opacity:0.59315592;paint-order:fill markers stroke" />
      <path
         style="opacity:0.731;fill:#ffc40f;fill-opacity:0.0988593;stroke:none;stroke-width:1.5;stroke-linecap:round;stroke-linejoin:round;stroke-miterlimit:4;stroke-dasharray:none;stroke-dashoffset:0;stroke-opacity:0.59315592;paint-order:fill markers stroke"
         id="path1115"
         sodipodi:type="arc"
         sodipodi:cx="-97.850136"
         sodipodi:cy="136.226"
         sodipodi:rx="12.432352"
         sodipodi:ry="7.6836162"
         sodipodi:start="0"
         sodipodi:end="6.2799564"
         sodipodi:open="true"
         d="m -85.417784,136.226 a 12.432352,7.6836162 0 0 1 -12.422316,7.68361 12.432352,7.6836162 0 0 1 -12.44237,-7.67121 12.432352,7.6836162 0 0 1 12.402227,-7.696 12.432352,7.6836162 0 0 1 12.462394,7.65879" />
      <path
         d="m -84.87541,133.87572 a 12.432352,7.6836162 0 0 1 -12.422316,7.68361 12.432352,7.6836162 0 0 1 -12.442374,-7.67121 12.432352,7.6836162 0 0 1 12.402231,-7.696 12.432352,7.6836162 0 0 1 12.462394,7.65879"
         sodipodi:open="true"
         sodipodi:end="6.2799564"
         sodipodi:start="0"
         sodipodi:ry="7.6836162"
         sodipodi:rx="12.432352"
         sodipodi:cy="133.87572"
         sodipodi:cx="-97.307762"
         sodipodi:type="arc"
         id="path1117"
         style="opacity:0.731;fill:#ffc40f;fill-opacity:0.0988593;stroke:none;stroke-width:1.5;stroke-linecap:round;stroke-linejoin:round;stroke-miterlimit:4;stroke-dasharray:none;stroke-dashoffset:0;stroke-opacity:0.59315592;paint-order:fill markers stroke" />
      <path
         style="opacity:0.731;fill:#ffc40f;fill-opacity:0.0988593;stroke:none;stroke-width:1.5;stroke-linecap:round;stroke-linejoin:round;stroke-miterlimit:4;stroke-dasharray:none;stroke-dashoffset:0;stroke-opacity:0.59315592;paint-order:fill markers stroke"
         id="path1119"
         sodipodi:type="arc"
         sodipodi:cx="-96.223015"
         sodipodi:cy="138.03391"
         sodipodi:rx="12.432352"
         sodipodi:ry="7.6836162"
         sodipodi:start="0"
         sodipodi:end="6.2799564"
         sodipodi:open="true"
         d="m -83.790663,138.03391 a 12.432352,7.6836162 0 0 1 -12.422316,7.68361 12.432352,7.6836162 0 0 1 -12.442371,-7.67121 12.432352,7.6836162 0 0 1 12.402228,-7.696 12.432352,7.6836162 0 0 1 12.462394,7.65879" />
      <path
         d="m -88.310438,133.51413 a 12.432352,7.6836162 0 0 1 -12.422312,7.68361 12.432352,7.6836162 0 0 1 -12.44238,-7.67121 12.432352,7.6836162 0 0 1 12.40223,-7.69599 12.432352,7.6836162 0 0 1 12.462397,7.65878"
         sodipodi:open="true"
         sodipodi:end="6.2799564"
         sodipodi:start="0"
         sodipodi:ry="7.6836162"
         sodipodi:rx="12.432352"
         sodipodi:cy="133.51413"
         sodipodi:cx="-100.74279"
         sodipodi:type="arc"
         id="path1121"
         style="opacity:0.731;fill:#ffc40f;fill-opacity:0.0988593;stroke:none;stroke-width:1.5;stroke-linecap:round;stroke-linejoin:round;stroke-miterlimit:4;stroke-dasharray:none;stroke-dashoffset:0;stroke-opacity:0.59315592;paint-order:fill markers stroke" />
      <path
         style="opacity:0.731;fill:#ffc40f;fill-opacity:0.0988593;stroke:none;stroke-width:1.5;stroke-linecap:round;stroke-linejoin:round;stroke-miterlimit:4;stroke-dasharray:none;stroke-dashoffset:0;stroke-opacity:0.59315592;paint-order:fill markers stroke"
         id="path1123"
         sodipodi:type="arc"
         sodipodi:cx="-103.63544"
         sodipodi:cy="137.85312"
         sodipodi:rx="12.432352"
         sodipodi:ry="7.6836162"
         sodipodi:start="0"
         sodipodi:end="6.2799564"
         sodipodi:open="true"
         d="m -91.203085,137.85312 a 12.432352,7.6836162 0 0 1 -12.422315,7.68361 12.432352,7.6836162 0 0 1 -12.44237,-7.67121 12.432352,7.6836162 0 0 1 12.40223,-7.69599 12.432352,7.6836162 0 0 1 12.46239,7.65878" />
      <path
         d="m -89.03359,142.19211 a 12.432352,7.6836162 0 0 1 -12.42232,7.68361 12.432352,7.6836162 0 0 1 -12.44237,-7.67121 12.432352,7.6836162 0 0 1 12.40223,-7.696 12.432352,7.6836162 0 0 1 12.462395,7.65879"
         sodipodi:open="true"
         sodipodi:end="6.2799564"
         sodipodi:start="0"
         sodipodi:ry="7.6836162"
         sodipodi:rx="12.432352"
         sodipodi:cy="142.19211"
         sodipodi:cx="-101.46594"
         sodipodi:type="arc"
         id="path1125"
         style="opacity:0.731;fill:#ffc40f;fill-opacity:0.0988593;stroke:none;stroke-width:1.5;stroke-linecap:round;stroke-linejoin:round;stroke-miterlimit:4;stroke-dasharray:none;stroke-dashoffset:0;stroke-opacity:0.59315592;paint-order:fill markers stroke" />
      <path
         style="opacity:0.731;fill:#ffc40f;fill-opacity:0.0988593;stroke:none;stroke-width:1.5;stroke-linecap:round;stroke-linejoin:round;stroke-miterlimit:4;stroke-dasharray:none;stroke-dashoffset:0;stroke-opacity:0.59315592;paint-order:fill markers stroke"
         id="path1127"
         sodipodi:type="arc"
         sodipodi:cx="-100.74279"
         sodipodi:cy="133.51413"
         sodipodi:rx="12.432352"
         sodipodi:ry="7.6836162"
         sodipodi:start="0"
         sodipodi:end="6.2799564"
         sodipodi:open="true"
         d="m -88.310438,133.51413 a 12.432352,7.6836162 0 0 1 -12.422312,7.68361 12.432352,7.6836162 0 0 1 -12.44238,-7.67121 12.432352,7.6836162 0 0 1 12.40223,-7.69599 12.432352,7.6836162 0 0 1 12.462397,7.65878" />
      <path
         d="m -85.23699,141.83052 a 12.432352,7.6836162 0 0 1 -12.422316,7.68361 12.432352,7.6836162 0 0 1 -12.442374,-7.6712 12.432352,7.6836162 0 0 1 12.402231,-7.696 12.432352,7.6836162 0 0 1 12.462394,7.65878"
         sodipodi:open="true"
         sodipodi:end="6.2799564"
         sodipodi:start="0"
         sodipodi:ry="7.6836162"
         sodipodi:rx="12.432352"
         sodipodi:cy="141.83052"
         sodipodi:cx="-97.669342"
         sodipodi:type="arc"
         id="path1129"
         style="opacity:0.731;fill:#ffc40f;fill-opacity:0.0988593;stroke:none;stroke-width:1.5;stroke-linecap:round;stroke-linejoin:round;stroke-miterlimit:4;stroke-dasharray:none;stroke-dashoffset:0;stroke-opacity:0.59315592;paint-order:fill markers stroke" />
      <path
         style="opacity:0.731;fill:#ff720f;fill-opacity:0.0988593;stroke:none;stroke-width:1.5;stroke-linecap:round;stroke-linejoin:round;stroke-miterlimit:4;stroke-dasharray:none;stroke-dashoffset:0;stroke-opacity:0.59315592;paint-order:fill markers stroke"
         id="path1131"
         sodipodi:type="arc"
         sodipodi:cx="-97.669342"
         sodipodi:cy="141.83052"
         sodipodi:rx="12.432352"
         sodipodi:ry="7.6836162"
         sodipodi:start="0"
         sodipodi:end="6.2799564"
         sodipodi:open="true"
         d="m -85.23699,141.83052 a 12.432352,7.6836162 0 0 1 -12.422316,7.68361 12.432352,7.6836162 0 0 1 -12.442374,-7.6712 12.432352,7.6836162 0 0 1 12.402231,-7.696 12.432352,7.6836162 0 0 1 12.462394,7.65878" />
      <path
         d="m -89.03359,142.19211 a 12.432352,7.6836162 0 0 1 -12.42232,7.68361 12.432352,7.6836162 0 0 1 -12.44237,-7.67121 12.432352,7.6836162 0 0 1 12.40223,-7.696 12.432352,7.6836162 0 0 1 12.462395,7.65879"
         sodipodi:open="true"
         sodipodi:end="6.2799564"
         sodipodi:start="0"
         sodipodi:ry="7.6836162"
         sodipodi:rx="12.432352"
         sodipodi:cy="142.19211"
         sodipodi:cx="-101.46594"
         sodipodi:type="arc"
         id="path1133"
         style="opacity:0.731;fill:#ff720f;fill-opacity:0.0988593;stroke:none;stroke-width:1.5;stroke-linecap:round;stroke-linejoin:round;stroke-miterlimit:4;stroke-dasharray:none;stroke-dashoffset:0;stroke-opacity:0.59315592;paint-order:fill markers stroke" />
      <path
         style="opacity:0.731;fill:#ff720f;fill-opacity:0.0988593;stroke:none;stroke-width:1.5;stroke-linecap:round;stroke-linejoin:round;stroke-miterlimit:4;stroke-dasharray:none;stroke-dashoffset:0;stroke-opacity:0.59315592;paint-order:fill markers stroke"
         id="path1135"
         sodipodi:type="arc"
         sodipodi:cx="-101.46594"
         sodipodi:cy="144.72318"
         sodipodi:rx="12.432352"
         sodipodi:ry="7.6836162"
         sodipodi:start="0"
         sodipodi:end="6.2799564"
         sodipodi:open="true"
         d="m -89.03359,144.72318 a 12.432352,7.6836162 0 0 1 -12.42232,7.68361 12.432352,7.6836162 0 0 1 -12.44237,-7.67121 12.432352,7.6836162 0 0 1 12.40223,-7.696 12.432352,7.6836162 0 0 1 12.462395,7.65879" />
      <path
         d="m -89.847151,147.07346 a 12.432352,7.6836162 0 0 1 -12.422319,7.68361 12.432352,7.6836162 0 0 1 -12.44237,-7.67121 12.432352,7.6836162 0 0 1 12.40223,-7.696 12.432352,7.6836162 0 0 1 12.462394,7.65879"
         sodipodi:open="true"
         sodipodi:end="6.2799564"
         sodipodi:start="0"
         sodipodi:ry="7.6836162"
         sodipodi:rx="12.432352"
         sodipodi:cy="147.07346"
         sodipodi:cx="-102.2795"
         sodipodi:type="arc"
         id="path1137"
         style="opacity:0.731;fill:#ff720f;fill-opacity:0.0988593;stroke:none;stroke-width:1.5;stroke-linecap:round;stroke-linejoin:round;stroke-miterlimit:4;stroke-dasharray:none;stroke-dashoffset:0;stroke-opacity:0.59315592;paint-order:fill markers stroke" />
      <path
         style="opacity:0.731;fill:#ff720f;fill-opacity:0.0988593;stroke:none;stroke-width:1.5;stroke-linecap:round;stroke-linejoin:round;stroke-miterlimit:4;stroke-dasharray:none;stroke-dashoffset:0;stroke-opacity:0.59315592;paint-order:fill markers stroke"
         id="path1139"
         sodipodi:type="arc"
         sodipodi:cx="-97.488541"
         sodipodi:cy="132.06781"
         sodipodi:rx="12.432352"
         sodipodi:ry="7.6836162"
         sodipodi:start="0"
         sodipodi:end="6.2799564"
         sodipodi:open="true"
         d="m -85.056189,132.06781 a 12.432352,7.6836162 0 0 1 -12.422316,7.68361 12.432352,7.6836162 0 0 1 -12.442375,-7.67121 12.432352,7.6836162 0 0 1 12.402232,-7.69599 12.432352,7.6836162 0 0 1 12.462395,7.65878" />
    </g>
    <rect
       transform="rotate(20.202235)"
       ry="2.0160694"
       rx="4.1445012"
       y="-19.174219"
       x="99.826797"
       height="106.5388"
       width="8.7813835"
       id="rect845"
       style="opacity:1;fill:url(#linearGradient853);fill-opacity:1;stroke:none;stroke-width:0.13617416;stroke-linecap:round;stroke-linejoin:round;stroke-miterlimit:4;stroke-dasharray:none;stroke-dashoffset:0;stroke-opacity:0.59315592;paint-order:fill markers stroke" />
    <path
       sodipodi:nodetypes="sssccss"
       inkscape:connector-curvature="0"
       id="rect865"
       d="m 104.25519,17.753519 0.46043,0.174467 c 2.14708,0.813573 3.54888,2.306334 3.16123,3.353806 L 99.356112,44.305608 C 97.052876,42.771871 94.815481,41.16277 91.144477,41.194062 l 8.520744,-23.023815 c 0.387659,-1.047473 2.442879,-1.2303 4.589969,-0.416728 z"
       style="opacity:1;fill:url(#linearGradient882);fill-opacity:1;stroke:none;stroke-width:0.13617416;stroke-linecap:round;stroke-linejoin:round;stroke-miterlimit:4;stroke-dasharray:none;stroke-dashoffset:0;stroke-opacity:0.59315592;paint-order:fill markers stroke" />
    <g
       id="g1169"
       transform="matrix(0.45549486,0,0,0.45549486,25.563882,-6.9055157)">
      <path
         inkscape:transform-center-y="-1.0084766"
         inkscape:transform-center-x="1.0084766"
         d="M 62.456849,71.279954 C 62.849809,70.886994 50.324,63.599289 50.87973,63.599289 c 0.55573,0 -11.970079,7.287705 -11.577119,7.680665 0.392961,0.39296 7.680665,-12.132849 7.680665,-11.577119 0,0.55573 -7.287704,-11.970079 -7.680665,-11.577119 -0.39296,0.392961 12.132849,7.680665 11.577119,7.680665 -0.55573,0 11.970079,-7.287705 11.577119,-7.680665 -0.39296,-0.39296 -7.680664,12.132849 -7.680664,11.577119 0,-0.55573 7.287704,11.970079 7.680664,11.577119 z"
         inkscape:randomized="0"
         inkscape:rounded="-0.04"
         inkscape:flatsided="false"
         sodipodi:arg2="1.5707963"
         sodipodi:arg1="0.78539816"
         sodipodi:r2="3.8964543"
         sodipodi:r1="16.372519"
         sodipodi:cy="59.702835"
         sodipodi:cx="50.87973"
         sodipodi:sides="4"
         id="path1165"
         style="opacity:0.731;fill:#ffffff;fill-opacity:1;stroke:none;stroke-width:1.5;stroke-linecap:round;stroke-linejoin:round;stroke-miterlimit:4;stroke-dasharray:none;stroke-dashoffset:0;stroke-opacity:0.59315592;paint-order:fill markers stroke"
         sodipodi:type="star" />
      <path
         sodipodi:type="star"
         style="opacity:0.731;fill:#ffffff;fill-opacity:1;stroke:none;stroke-width:1.5;stroke-linecap:round;stroke-linejoin:round;stroke-miterlimit:4;stroke-dasharray:none;stroke-dashoffset:0;stroke-opacity:0.59315592;paint-order:fill markers stroke"
         id="path1167"
         sodipodi:sides="4"
         sodipodi:cx="50.87973"
         sodipodi:cy="59.702835"
         sodipodi:r1="7.2382998"
         sodipodi:r2="3.8964543"
         sodipodi:arg1="-0.024668013"
         sodipodi:arg2="0.76073013"
         inkscape:flatsided="false"
         inkscape:rounded="-0.04"
         inkscape:randomized="0"
         d="m 58.115828,59.524299 c -0.0052,-0.210419 -4.558885,3.017408 -4.413768,2.864948 0.145117,-0.152459 -2.854212,4.554877 -2.643793,4.549686 0.210418,-0.0052 -3.017408,-4.558885 -2.864949,-4.413768 0.152459,0.145117 -4.554877,-2.854212 -4.549685,-2.643794 0.0052,0.210419 4.558885,-3.017408 4.413767,-2.864948 -0.145117,0.152459 2.854212,-4.554877 2.643794,-4.549686 -0.210419,0.0052 3.017408,4.558886 2.864949,4.413768 -0.15246,-0.145117 4.554877,2.854212 4.549685,2.643794 z"
         inkscape:transform-center-x="1.0084766"
         inkscape:transform-center-y="-1.0084766" />
    </g>
    <g
       transform="matrix(0.45549486,0,0,0.45549486,42.275855,8.4137904)"
       id="g1175">
      <path
         sodipodi:type="star"
         style="opacity:0.731;fill:#ffffff;fill-opacity:1;stroke:none;stroke-width:1.5;stroke-linecap:round;stroke-linejoin:round;stroke-miterlimit:4;stroke-dasharray:none;stroke-dashoffset:0;stroke-opacity:0.59315592;paint-order:fill markers stroke"
         id="path1171"
         sodipodi:sides="4"
         sodipodi:cx="50.87973"
         sodipodi:cy="59.702835"
         sodipodi:r1="16.372519"
         sodipodi:r2="3.8964543"
         sodipodi:arg1="0.78539816"
         sodipodi:arg2="1.5707963"
         inkscape:flatsided="false"
         inkscape:rounded="-0.04"
         inkscape:randomized="0"
         d="M 62.456849,71.279954 C 62.849809,70.886994 50.324,63.599289 50.87973,63.599289 c 0.55573,0 -11.970079,7.287705 -11.577119,7.680665 0.392961,0.39296 7.680665,-12.132849 7.680665,-11.577119 0,0.55573 -7.287704,-11.970079 -7.680665,-11.577119 -0.39296,0.392961 12.132849,7.680665 11.577119,7.680665 -0.55573,0 11.970079,-7.287705 11.577119,-7.680665 -0.39296,-0.39296 -7.680664,12.132849 -7.680664,11.577119 0,-0.55573 7.287704,11.970079 7.680664,11.577119 z"
         inkscape:transform-center-x="1.0084766"
         inkscape:transform-center-y="-1.0084766" />
      <path
         inkscape:transform-center-y="-1.0084766"
         inkscape:transform-center-x="1.0084766"
         d="m 58.115828,59.524299 c -0.0052,-0.210419 -4.558885,3.017408 -4.413768,2.864948 0.145117,-0.152459 -2.854212,4.554877 -2.643793,4.549686 0.210418,-0.0052 -3.017408,-4.558885 -2.864949,-4.413768 0.152459,0.145117 -4.554877,-2.854212 -4.549685,-2.643794 0.0052,0.210419 4.558885,-3.017408 4.413767,-2.864948 -0.145117,0.152459 2.854212,-4.554877 2.643794,-4.549686 -0.210419,0.0052 3.017408,4.558886 2.864949,4.413768 -0.15246,-0.145117 4.554877,2.854212 4.549685,2.643794 z"
         inkscape:randomized="0"
         inkscape:rounded="-0.04"
         inkscape:flatsided="false"
         sodipodi:arg2="0.76073013"
         sodipodi:arg1="-0.024668013"
         sodipodi:r2="3.8964543"
         sodipodi:r1="7.2382998"
         sodipodi:cy="59.702835"
         sodipodi:cx="50.87973"
         sodipodi:sides="4"
         id="path1173"
         style="opacity:0.731;fill:#ffffff;fill-opacity:1;stroke:none;stroke-width:1.5;stroke-linecap:round;stroke-linejoin:round;stroke-miterlimit:4;stroke-dasharray:none;stroke-dashoffset:0;stroke-opacity:0.59315592;paint-order:fill markers stroke"
         sodipodi:type="star" />
    </g>
    <g
       id="g1181"
       transform="matrix(0.35031943,0,0,0.36534449,51.282896,-2.2196158)">
      <path
         inkscape:transform-center-y="-1.0084766"
         inkscape:transform-center-x="1.0084766"
         d="M 62.456849,71.279954 C 62.849809,70.886994 50.324,63.599289 50.87973,63.599289 c 0.55573,0 -11.970079,7.287705 -11.577119,7.680665 0.392961,0.39296 7.680665,-12.132849 7.680665,-11.577119 0,0.55573 -7.287704,-11.970079 -7.680665,-11.577119 -0.39296,0.392961 12.132849,7.680665 11.577119,7.680665 -0.55573,0 11.970079,-7.287705 11.577119,-7.680665 -0.39296,-0.39296 -7.680664,12.132849 -7.680664,11.577119 0,-0.55573 7.287704,11.970079 7.680664,11.577119 z"
         inkscape:randomized="0"
         inkscape:rounded="-0.04"
         inkscape:flatsided="false"
         sodipodi:arg2="1.5707963"
         sodipodi:arg1="0.78539816"
         sodipodi:r2="3.8964543"
         sodipodi:r1="16.372519"
         sodipodi:cy="59.702835"
         sodipodi:cx="50.87973"
         sodipodi:sides="4"
         id="path1177"
         style="opacity:0.731;fill:#ffffff;fill-opacity:1;stroke:none;stroke-width:1.5;stroke-linecap:round;stroke-linejoin:round;stroke-miterlimit:4;stroke-dasharray:none;stroke-dashoffset:0;stroke-opacity:0.59315592;paint-order:fill markers stroke"
         sodipodi:type="star" />
      <path
         sodipodi:type="star"
         style="opacity:0.731;fill:#ffffff;fill-opacity:1;stroke:none;stroke-width:1.5;stroke-linecap:round;stroke-linejoin:round;stroke-miterlimit:4;stroke-dasharray:none;stroke-dashoffset:0;stroke-opacity:0.59315592;paint-order:fill markers stroke"
         id="path1179"
         sodipodi:sides="4"
         sodipodi:cx="50.87973"
         sodipodi:cy="59.702835"
         sodipodi:r1="7.2382998"
         sodipodi:r2="3.8964543"
         sodipodi:arg1="-0.024668013"
         sodipodi:arg2="0.76073013"
         inkscape:flatsided="false"
         inkscape:rounded="-0.04"
         inkscape:randomized="0"
         d="m 58.115828,59.524299 c -0.0052,-0.210419 -4.558885,3.017408 -4.413768,2.864948 0.145117,-0.152459 -2.854212,4.554877 -2.643793,4.549686 0.210418,-0.0052 -3.017408,-4.558885 -2.864949,-4.413768 0.152459,0.145117 -4.554877,-2.854212 -4.549685,-2.643794 0.0052,0.210419 4.558885,-3.017408 4.413767,-2.864948 -0.145117,0.152459 2.854212,-4.554877 2.643794,-4.549686 -0.210419,0.0052 3.017408,4.558886 2.864949,4.413768 -0.15246,-0.145117 4.554877,2.854212 4.549685,2.643794 z"
         inkscape:transform-center-x="1.0084766"
         inkscape:transform-center-y="-1.0084766" />
    </g>
    <g
       transform="matrix(0.35031943,0,0,0.36534449,65.557707,11.010693)"
       id="g1187">
      <path
         sodipodi:type="star"
         style="opacity:0.731;fill:#ffffff;fill-opacity:1;stroke:none;stroke-width:1.5;stroke-linecap:round;stroke-linejoin:round;stroke-miterlimit:4;stroke-dasharray:none;stroke-dashoffset:0;stroke-opacity:0.59315592;paint-order:fill markers stroke"
         id="path1183"
         sodipodi:sides="4"
         sodipodi:cx="50.87973"
         sodipodi:cy="59.702835"
         sodipodi:r1="16.372519"
         sodipodi:r2="3.8964543"
         sodipodi:arg1="0.78539816"
         sodipodi:arg2="1.5707963"
         inkscape:flatsided="false"
         inkscape:rounded="-0.04"
         inkscape:randomized="0"
         d="M 62.456849,71.279954 C 62.849809,70.886994 50.324,63.599289 50.87973,63.599289 c 0.55573,0 -11.970079,7.287705 -11.577119,7.680665 0.392961,0.39296 7.680665,-12.132849 7.680665,-11.577119 0,0.55573 -7.287704,-11.970079 -7.680665,-11.577119 -0.39296,0.392961 12.132849,7.680665 11.577119,7.680665 -0.55573,0 11.970079,-7.287705 11.577119,-7.680665 -0.39296,-0.39296 -7.680664,12.132849 -7.680664,11.577119 0,-0.55573 7.287704,11.970079 7.680664,11.577119 z"
         inkscape:transform-center-x="1.0084766"
         inkscape:transform-center-y="-1.0084766" />
      <path
         inkscape:transform-center-y="-1.0084766"
         inkscape:transform-center-x="1.0084766"
         d="m 58.115828,59.524299 c -0.0052,-0.210419 -4.558885,3.017408 -4.413768,2.864948 0.145117,-0.152459 -2.854212,4.554877 -2.643793,4.549686 0.210418,-0.0052 -3.017408,-4.558885 -2.864949,-4.413768 0.152459,0.145117 -4.554877,-2.854212 -4.549685,-2.643794 0.0052,0.210419 4.558885,-3.017408 4.413767,-2.864948 -0.145117,0.152459 2.854212,-4.554877 2.643794,-4.549686 -0.210419,0.0052 3.017408,4.558886 2.864949,4.413768 -0.15246,-0.145117 4.554877,2.854212 4.549685,2.643794 z"
         inkscape:randomized="0"
         inkscape:rounded="-0.04"
         inkscape:flatsided="false"
         sodipodi:arg2="0.76073013"
         sodipodi:arg1="-0.024668013"
         sodipodi:r2="3.8964543"
         sodipodi:r1="7.2382998"
         sodipodi:cy="59.702835"
         sodipodi:cx="50.87973"
         sodipodi:sides="4"
         id="path1185"
         style="opacity:0.731;fill:#ffffff;fill-opacity:1;stroke:none;stroke-width:1.5;stroke-linecap:round;stroke-linejoin:round;stroke-miterlimit:4;stroke-dasharray:none;stroke-dashoffset:0;stroke-opacity:0.59315592;paint-order:fill markers stroke"
         sodipodi:type="star" />
    </g>
    <g
       transform="matrix(0.23769624,0,0,0.23769624,78.313175,6.0361352)"
       id="g1216">
      <path
         sodipodi:type="star"
         style="opacity:0.731;fill:#ffffff;fill-opacity:1;stroke:none;stroke-width:1.5;stroke-linecap:round;stroke-linejoin:round;stroke-miterlimit:4;stroke-dasharray:none;stroke-dashoffset:0;stroke-opacity:0.59315592;paint-order:fill markers stroke"
         id="path1212"
         sodipodi:sides="4"
         sodipodi:cx="50.87973"
         sodipodi:cy="59.702835"
         sodipodi:r1="16.372519"
         sodipodi:r2="3.8964543"
         sodipodi:arg1="0.78539816"
         sodipodi:arg2="1.5707963"
         inkscape:flatsided="false"
         inkscape:rounded="-0.04"
         inkscape:randomized="0"
         d="M 62.456849,71.279954 C 62.849809,70.886994 50.324,63.599289 50.87973,63.599289 c 0.55573,0 -11.970079,7.287705 -11.577119,7.680665 0.392961,0.39296 7.680665,-12.132849 7.680665,-11.577119 0,0.55573 -7.287704,-11.970079 -7.680665,-11.577119 -0.39296,0.392961 12.132849,7.680665 11.577119,7.680665 -0.55573,0 11.970079,-7.287705 11.577119,-7.680665 -0.39296,-0.39296 -7.680664,12.132849 -7.680664,11.577119 0,-0.55573 7.287704,11.970079 7.680664,11.577119 z"
         inkscape:transform-center-x="1.0084766"
         inkscape:transform-center-y="-1.0084766" />
      <path
         inkscape:transform-center-y="-1.0084766"
         inkscape:transform-center-x="1.0084766"
         d="m 58.115828,59.524299 c -0.0052,-0.210419 -4.558885,3.017408 -4.413768,2.864948 0.145117,-0.152459 -2.854212,4.554877 -2.643793,4.549686 0.210418,-0.0052 -3.017408,-4.558885 -2.864949,-4.413768 0.152459,0.145117 -4.554877,-2.854212 -4.549685,-2.643794 0.0052,0.210419 4.558885,-3.017408 4.413767,-2.864948 -0.145117,0.152459 2.854212,-4.554877 2.643794,-4.549686 -0.210419,0.0052 3.017408,4.558886 2.864949,4.413768 -0.15246,-0.145117 4.554877,2.854212 4.549685,2.643794 z"
         inkscape:randomized="0"
         inkscape:rounded="-0.04"
         inkscape:flatsided="false"
         sodipodi:arg2="0.76073013"
         sodipodi:arg1="-0.024668013"
         sodipodi:r2="3.8964543"
         sodipodi:r1="7.2382998"
         sodipodi:cy="59.702835"
         sodipodi:cx="50.87973"
         sodipodi:sides="4"
         id="path1214"
         style="opacity:0.731;fill:#ffffff;fill-opacity:1;stroke:none;stroke-width:1.5;stroke-linecap:round;stroke-linejoin:round;stroke-miterlimit:4;stroke-dasharray:none;stroke-dashoffset:0;stroke-opacity:0.59315592;paint-order:fill markers stroke"
         sodipodi:type="star" />
    </g>
    <g
       id="g1222"
       transform="matrix(0.23769624,0,0,0.23769624,91.1865,15.681582)">
      <path
         inkscape:transform-center-y="-1.0084766"
         inkscape:transform-center-x="1.0084766"
         d="M 62.456849,71.279954 C 62.849809,70.886994 50.324,63.599289 50.87973,63.599289 c 0.55573,0 -11.970079,7.287705 -11.577119,7.680665 0.392961,0.39296 7.680665,-12.132849 7.680665,-11.577119 0,0.55573 -7.287704,-11.970079 -7.680665,-11.577119 -0.39296,0.392961 12.132849,7.680665 11.577119,7.680665 -0.55573,0 11.970079,-7.287705 11.577119,-7.680665 -0.39296,-0.39296 -7.680664,12.132849 -7.680664,11.577119 0,-0.55573 7.287704,11.970079 7.680664,11.577119 z"
         inkscape:randomized="0"
         inkscape:rounded="-0.04"
         inkscape:flatsided="false"
         sodipodi:arg2="1.5707963"
         sodipodi:arg1="0.78539816"
         sodipodi:r2="3.8964543"
         sodipodi:r1="16.372519"
         sodipodi:cy="59.702835"
         sodipodi:cx="50.87973"
         sodipodi:sides="4"
         id="path1218"
         style="opacity:0.731;fill:#ffffff;fill-opacity:1;stroke:none;stroke-width:1.5;stroke-linecap:round;stroke-linejoin:round;stroke-miterlimit:4;stroke-dasharray:none;stroke-dashoffset:0;stroke-opacity:0.59315592;paint-order:fill markers stroke"
         sodipodi:type="star" />
      <path
         sodipodi:type="star"
         style="opacity:0.731;fill:#ffffff;fill-opacity:1;stroke:none;stroke-width:1.5;stroke-linecap:round;stroke-linejoin:round;stroke-miterlimit:4;stroke-dasharray:none;stroke-dashoffset:0;stroke-opacity:0.59315592;paint-order:fill markers stroke"
         id="path1220"
         sodipodi:sides="4"
         sodipodi:cx="50.87973"
         sodipodi:cy="59.702835"
         sodipodi:r1="7.2382998"
         sodipodi:r2="3.8964543"
         sodipodi:arg1="-0.024668013"
         sodipodi:arg2="0.76073013"
         inkscape:flatsided="false"
         inkscape:rounded="-0.04"
         inkscape:randomized="0"
         d="m 58.115828,59.524299 c -0.0052,-0.210419 -4.558885,3.017408 -4.413768,2.864948 0.145117,-0.152459 -2.854212,4.554877 -2.643793,4.549686 0.210418,-0.0052 -3.017408,-4.558885 -2.864949,-4.413768 0.152459,0.145117 -4.554877,-2.854212 -4.549685,-2.643794 0.0052,0.210419 4.558885,-3.017408 4.413767,-2.864948 -0.145117,0.152459 2.854212,-4.554877 2.643794,-4.549686 -0.210419,0.0052 3.017408,4.558886 2.864949,4.413768 -0.15246,-0.145117 4.554877,2.854212 4.549685,2.643794 z"
         inkscape:transform-center-x="1.0084766"
         inkscape:transform-center-y="-1.0084766" />
    </g>
    <g
       transform="matrix(0.15270166,0,0,0.15270166,98.073904,11.422048)"
       id="g1228">
      <path
         sodipodi:type="star"
         style="opacity:0.731;fill:#ffffff;fill-opacity:1;stroke:none;stroke-width:1.5;stroke-linecap:round;stroke-linejoin:round;stroke-miterlimit:4;stroke-dasharray:none;stroke-dashoffset:0;stroke-opacity:0.59315592;paint-order:fill markers stroke"
         id="path1224"
         sodipodi:sides="4"
         sodipodi:cx="50.87973"
         sodipodi:cy="59.702835"
         sodipodi:r1="16.372519"
         sodipodi:r2="3.8964543"
         sodipodi:arg1="0.78539816"
         sodipodi:arg2="1.5707963"
         inkscape:flatsided="false"
         inkscape:rounded="-0.04"
         inkscape:randomized="0"
         d="M 62.456849,71.279954 C 62.849809,70.886994 50.324,63.599289 50.87973,63.599289 c 0.55573,0 -11.970079,7.287705 -11.577119,7.680665 0.392961,0.39296 7.680665,-12.132849 7.680665,-11.577119 0,0.55573 -7.287704,-11.970079 -7.680665,-11.577119 -0.39296,0.392961 12.132849,7.680665 11.577119,7.680665 -0.55573,0 11.970079,-7.287705 11.577119,-7.680665 -0.39296,-0.39296 -7.680664,12.132849 -7.680664,11.577119 0,-0.55573 7.287704,11.970079 7.680664,11.577119 z"
         inkscape:transform-center-x="1.0084766"
         inkscape:transform-center-y="-1.0084766" />
      <path
         inkscape:transform-center-y="-1.0084766"
         inkscape:transform-center-x="1.0084766"
         d="m 58.115828,59.524299 c -0.0052,-0.210419 -4.558885,3.017408 -4.413768,2.864948 0.145117,-0.152459 -2.854212,4.554877 -2.643793,4.549686 0.210418,-0.0052 -3.017408,-4.558885 -2.864949,-4.413768 0.152459,0.145117 -4.554877,-2.854212 -4.549685,-2.643794 0.0052,0.210419 4.558885,-3.017408 4.413767,-2.864948 -0.145117,0.152459 2.854212,-4.554877 2.643794,-4.549686 -0.210419,0.0052 3.017408,4.558886 2.864949,4.413768 -0.15246,-0.145117 4.554877,2.854212 4.549685,2.643794 z"
         inkscape:randomized="0"
         inkscape:rounded="-0.04"
         inkscape:flatsided="false"
         sodipodi:arg2="0.76073013"
         sodipodi:arg1="-0.024668013"
         sodipodi:r2="3.8964543"
         sodipodi:r1="7.2382998"
         sodipodi:cy="59.702835"
         sodipodi:cx="50.87973"
         sodipodi:sides="4"
         id="path1226"
         style="opacity:0.731;fill:#ffffff;fill-opacity:1;stroke:none;stroke-width:1.5;stroke-linecap:round;stroke-linejoin:round;stroke-miterlimit:4;stroke-dasharray:none;stroke-dashoffset:0;stroke-opacity:0.59315592;paint-order:fill markers stroke"
         sodipodi:type="star" />
    </g>
    <g
       id="g1234"
       transform="matrix(0.15270166,0,0,0.15270166,100.52938,16.639683)">
      <path
         inkscape:transform-center-y="-1.0084766"
         inkscape:transform-center-x="1.0084766"
         d="M 62.456849,71.279954 C 62.849809,70.886994 50.324,63.599289 50.87973,63.599289 c 0.55573,0 -11.970079,7.287705 -11.577119,7.680665 0.392961,0.39296 7.680665,-12.132849 7.680665,-11.577119 0,0.55573 -7.287704,-11.970079 -7.680665,-11.577119 -0.39296,0.392961 12.132849,7.680665 11.577119,7.680665 -0.55573,0 11.970079,-7.287705 11.577119,-7.680665 -0.39296,-0.39296 -7.680664,12.132849 -7.680664,11.577119 0,-0.55573 7.287704,11.970079 7.680664,11.577119 z"
         inkscape:randomized="0"
         inkscape:rounded="-0.04"
         inkscape:flatsided="false"
         sodipodi:arg2="1.5707963"
         sodipodi:arg1="0.78539816"
         sodipodi:r2="3.8964543"
         sodipodi:r1="16.372519"
         sodipodi:cy="59.702835"
         sodipodi:cx="50.87973"
         sodipodi:sides="4"
         id="path1230"
         style="opacity:0.731;fill:#ffffff;fill-opacity:1;stroke:none;stroke-width:1.5;stroke-linecap:round;stroke-linejoin:round;stroke-miterlimit:4;stroke-dasharray:none;stroke-dashoffset:0;stroke-opacity:0.59315592;paint-order:fill markers stroke"
         sodipodi:type="star" />
      <path
         sodipodi:type="star"
         style="opacity:0.731;fill:#ffffff;fill-opacity:1;stroke:none;stroke-width:1.5;stroke-linecap:round;stroke-linejoin:round;stroke-miterlimit:4;stroke-dasharray:none;stroke-dashoffset:0;stroke-opacity:0.59315592;paint-order:fill markers stroke"
         id="path1232"
         sodipodi:sides="4"
         sodipodi:cx="50.87973"
         sodipodi:cy="59.702835"
         sodipodi:r1="7.2382998"
         sodipodi:r2="3.8964543"
         sodipodi:arg1="-0.024668013"
         sodipodi:arg2="0.76073013"
         inkscape:flatsided="false"
         inkscape:rounded="-0.04"
         inkscape:randomized="0"
         d="m 58.115828,59.524299 c -0.0052,-0.210419 -4.558885,3.017408 -4.413768,2.864948 0.145117,-0.152459 -2.854212,4.554877 -2.643793,4.549686 0.210418,-0.0052 -3.017408,-4.558885 -2.864949,-4.413768 0.152459,0.145117 -4.554877,-2.854212 -4.549685,-2.643794 0.0052,0.210419 4.558885,-3.017408 4.413767,-2.864948 -0.145117,0.152459 2.854212,-4.554877 2.643794,-4.549686 -0.210419,0.0052 3.017408,4.558886 2.864949,4.413768 -0.15246,-0.145117 4.554877,2.854212 4.549685,2.643794 z"
         inkscape:transform-center-x="1.0084766"
         inkscape:transform-center-y="-1.0084766" />
    </g>
    <g
       transform="matrix(0.15270166,0,0,0.15270166,106.25943,11.578804)"
       id="g1240">
      <path
         sodipodi:type="star"
         style="opacity:0.731;fill:#ffffff;fill-opacity:1;stroke:none;stroke-width:1.5;stroke-linecap:round;stroke-linejoin:round;stroke-miterlimit:4;stroke-dasharray:none;stroke-dashoffset:0;stroke-opacity:0.59315592;paint-order:fill markers stroke"
         id="path1236"
         sodipodi:sides="4"
         sodipodi:cx="50.87973"
         sodipodi:cy="59.702835"
         sodipodi:r1="16.372519"
         sodipodi:r2="3.8964543"
         sodipodi:arg1="0.78539816"
         sodipodi:arg2="1.5707963"
         inkscape:flatsided="false"
         inkscape:rounded="-0.04"
         inkscape:randomized="0"
         d="M 62.456849,71.279954 C 62.849809,70.886994 50.324,63.599289 50.87973,63.599289 c 0.55573,0 -11.970079,7.287705 -11.577119,7.680665 0.392961,0.39296 7.680665,-12.132849 7.680665,-11.577119 0,0.55573 -7.287704,-11.970079 -7.680665,-11.577119 -0.39296,0.392961 12.132849,7.680665 11.577119,7.680665 -0.55573,0 11.970079,-7.287705 11.577119,-7.680665 -0.39296,-0.39296 -7.680664,12.132849 -7.680664,11.577119 0,-0.55573 7.287704,11.970079 7.680664,11.577119 z"
         inkscape:transform-center-x="1.0084766"
         inkscape:transform-center-y="-1.0084766" />
      <path
         inkscape:transform-center-y="-1.0084766"
         inkscape:transform-center-x="1.0084766"
         d="m 58.115828,59.524299 c -0.0052,-0.210419 -4.558885,3.017408 -4.413768,2.864948 0.145117,-0.152459 -2.854212,4.554877 -2.643793,4.549686 0.210418,-0.0052 -3.017408,-4.558885 -2.864949,-4.413768 0.152459,0.145117 -4.554877,-2.854212 -4.549685,-2.643794 0.0052,0.210419 4.558885,-3.017408 4.413767,-2.864948 -0.145117,0.152459 2.854212,-4.554877 2.643794,-4.549686 -0.210419,0.0052 3.017408,4.558886 2.864949,4.413768 -0.15246,-0.145117 4.554877,2.854212 4.549685,2.643794 z"
         inkscape:randomized="0"
         inkscape:rounded="-0.04"
         inkscape:flatsided="false"
         sodipodi:arg2="0.76073013"
         sodipodi:arg1="-0.024668013"
         sodipodi:r2="3.8964543"
         sodipodi:r1="7.2382998"
         sodipodi:cy="59.702835"
         sodipodi:cx="50.87973"
         sodipodi:sides="4"
         id="path1238"
         style="opacity:0.731;fill:#ffffff;fill-opacity:1;stroke:none;stroke-width:1.5;stroke-linecap:round;stroke-linejoin:round;stroke-miterlimit:4;stroke-dasharray:none;stroke-dashoffset:0;stroke-opacity:0.59315592;paint-order:fill markers stroke"
         sodipodi:type="star" />
    </g>
    <g
       id="g1246"
       transform="matrix(0.11020436,0,0,0.11020436,96.358348,16.393276)">
      <path
         inkscape:transform-center-y="-1.0084766"
         inkscape:transform-center-x="1.0084766"
         d="M 62.456849,71.279954 C 62.849809,70.886994 50.324,63.599289 50.87973,63.599289 c 0.55573,0 -11.970079,7.287705 -11.577119,7.680665 0.392961,0.39296 7.680665,-12.132849 7.680665,-11.577119 0,0.55573 -7.287704,-11.970079 -7.680665,-11.577119 -0.39296,0.392961 12.132849,7.680665 11.577119,7.680665 -0.55573,0 11.970079,-7.287705 11.577119,-7.680665 -0.39296,-0.39296 -7.680664,12.132849 -7.680664,11.577119 0,-0.55573 7.287704,11.970079 7.680664,11.577119 z"
         inkscape:randomized="0"
         inkscape:rounded="-0.04"
         inkscape:flatsided="false"
         sodipodi:arg2="1.5707963"
         sodipodi:arg1="0.78539816"
         sodipodi:r2="3.8964543"
         sodipodi:r1="16.372519"
         sodipodi:cy="59.702835"
         sodipodi:cx="50.87973"
         sodipodi:sides="4"
         id="path1242"
         style="opacity:0.731;fill:#ffffff;fill-opacity:1;stroke:none;stroke-width:1.5;stroke-linecap:round;stroke-linejoin:round;stroke-miterlimit:4;stroke-dasharray:none;stroke-dashoffset:0;stroke-opacity:0.59315592;paint-order:fill markers stroke"
         sodipodi:type="star" />
      <path
         sodipodi:type="star"
         style="opacity:0.731;fill:#ffffff;fill-opacity:1;stroke:none;stroke-width:1.5;stroke-linecap:round;stroke-linejoin:round;stroke-miterlimit:4;stroke-dasharray:none;stroke-dashoffset:0;stroke-opacity:0.59315592;paint-order:fill markers stroke"
         id="path1244"
         sodipodi:sides="4"
         sodipodi:cx="50.87973"
         sodipodi:cy="59.702835"
         sodipodi:r1="7.2382998"
         sodipodi:r2="3.8964543"
         sodipodi:arg1="-0.024668013"
         sodipodi:arg2="0.76073013"
         inkscape:flatsided="false"
         inkscape:rounded="-0.04"
         inkscape:randomized="0"
         d="m 58.115828,59.524299 c -0.0052,-0.210419 -4.558885,3.017408 -4.413768,2.864948 0.145117,-0.152459 -2.854212,4.554877 -2.643793,4.549686 0.210418,-0.0052 -3.017408,-4.558885 -2.864949,-4.413768 0.152459,0.145117 -4.554877,-2.854212 -4.549685,-2.643794 0.0052,0.210419 4.558885,-3.017408 4.413767,-2.864948 -0.145117,0.152459 2.854212,-4.554877 2.643794,-4.549686 -0.210419,0.0052 3.017408,4.558886 2.864949,4.413768 -0.15246,-0.145117 4.554877,2.854212 4.549685,2.643794 z"
         inkscape:transform-center-x="1.0084766"
         inkscape:transform-center-y="-1.0084766" />
    </g>
    <g
       transform="matrix(0.11020436,0,0,0.11020436,93.404063,10.669346)"
       id="g1252">
      <path
         sodipodi:type="star"
         style="opacity:0.731;fill:#ffffff;fill-opacity:1;stroke:none;stroke-width:1.5;stroke-linecap:round;stroke-linejoin:round;stroke-miterlimit:4;stroke-dasharray:none;stroke-dashoffset:0;stroke-opacity:0.59315592;paint-order:fill markers stroke"
         id="path1248"
         sodipodi:sides="4"
         sodipodi:cx="50.87973"
         sodipodi:cy="59.702835"
         sodipodi:r1="16.372519"
         sodipodi:r2="3.8964543"
         sodipodi:arg1="0.78539816"
         sodipodi:arg2="1.5707963"
         inkscape:flatsided="false"
         inkscape:rounded="-0.04"
         inkscape:randomized="0"
         d="M 62.456849,71.279954 C 62.849809,70.886994 50.324,63.599289 50.87973,63.599289 c 0.55573,0 -11.970079,7.287705 -11.577119,7.680665 0.392961,0.39296 7.680665,-12.132849 7.680665,-11.577119 0,0.55573 -7.287704,-11.970079 -7.680665,-11.577119 -0.39296,0.392961 12.132849,7.680665 11.577119,7.680665 -0.55573,0 11.970079,-7.287705 11.577119,-7.680665 -0.39296,-0.39296 -7.680664,12.132849 -7.680664,11.577119 0,-0.55573 7.287704,11.970079 7.680664,11.577119 z"
         inkscape:transform-center-x="1.0084766"
         inkscape:transform-center-y="-1.0084766" />
      <path
         inkscape:transform-center-y="-1.0084766"
         inkscape:transform-center-x="1.0084766"
         d="m 58.115828,59.524299 c -0.0052,-0.210419 -4.558885,3.017408 -4.413768,2.864948 0.145117,-0.152459 -2.854212,4.554877 -2.643793,4.549686 0.210418,-0.0052 -3.017408,-4.558885 -2.864949,-4.413768 0.152459,0.145117 -4.554877,-2.854212 -4.549685,-2.643794 0.0052,0.210419 4.558885,-3.017408 4.413767,-2.864948 -0.145117,0.152459 2.854212,-4.554877 2.643794,-4.549686 -0.210419,0.0052 3.017408,4.558886 2.864949,4.413768 -0.15246,-0.145117 4.554877,2.854212 4.549685,2.643794 z"
         inkscape:randomized="0"
         inkscape:rounded="-0.04"
         inkscape:flatsided="false"
         sodipodi:arg2="0.76073013"
         sodipodi:arg1="-0.024668013"
         sodipodi:r2="3.8964543"
         sodipodi:r1="7.2382998"
         sodipodi:cy="59.702835"
         sodipodi:cx="50.87973"
         sodipodi:sides="4"
         id="path1250"
         style="opacity:0.731;fill:#ffffff;fill-opacity:1;stroke:none;stroke-width:1.5;stroke-linecap:round;stroke-linejoin:round;stroke-miterlimit:4;stroke-dasharray:none;stroke-dashoffset:0;stroke-opacity:0.59315592;paint-order:fill markers stroke"
         sodipodi:type="star" />
    </g>
    <g
       id="g1258"
       transform="matrix(0.11020436,0,0,0.11020436,103.62097,10.361605)">
      <path
         inkscape:transform-center-y="-1.0084766"
         inkscape:transform-center-x="1.0084766"
         d="M 62.456849,71.279954 C 62.849809,70.886994 50.324,63.599289 50.87973,63.599289 c 0.55573,0 -11.970079,7.287705 -11.577119,7.680665 0.392961,0.39296 7.680665,-12.132849 7.680665,-11.577119 0,0.55573 -7.287704,-11.970079 -7.680665,-11.577119 -0.39296,0.392961 12.132849,7.680665 11.577119,7.680665 -0.55573,0 11.970079,-7.287705 11.577119,-7.680665 -0.39296,-0.39296 -7.680664,12.132849 -7.680664,11.577119 0,-0.55573 7.287704,11.970079 7.680664,11.577119 z"
         inkscape:randomized="0"
         inkscape:rounded="-0.04"
         inkscape:flatsided="false"
         sodipodi:arg2="1.5707963"
         sodipodi:arg1="0.78539816"
         sodipodi:r2="3.8964543"
         sodipodi:r1="16.372519"
         sodipodi:cy="59.702835"
         sodipodi:cx="50.87973"
         sodipodi:sides="4"
         id="path1254"
         style="opacity:0.731;fill:#ffffff;fill-opacity:1;stroke:none;stroke-width:1.5;stroke-linecap:round;stroke-linejoin:round;stroke-miterlimit:4;stroke-dasharray:none;stroke-dashoffset:0;stroke-opacity:0.59315592;paint-order:fill markers stroke"
         sodipodi:type="star" />
      <path
         sodipodi:type="star"
         style="opacity:0.731;fill:#ffffff;fill-opacity:1;stroke:none;stroke-width:1.5;stroke-linecap:round;stroke-linejoin:round;stroke-miterlimit:4;stroke-dasharray:none;stroke-dashoffset:0;stroke-opacity:0.59315592;paint-order:fill markers stroke"
         id="path1256"
         sodipodi:sides="4"
         sodipodi:cx="50.87973"
         sodipodi:cy="59.702835"
         sodipodi:r1="7.2382998"
         sodipodi:r2="3.8964543"
         sodipodi:arg1="-0.024668013"
         sodipodi:arg2="0.76073013"
         inkscape:flatsided="false"
         inkscape:rounded="-0.04"
         inkscape:randomized="0"
         d="m 58.115828,59.524299 c -0.0052,-0.210419 -4.558885,3.017408 -4.413768,2.864948 0.145117,-0.152459 -2.854212,4.554877 -2.643793,4.549686 0.210418,-0.0052 -3.017408,-4.558885 -2.864949,-4.413768 0.152459,0.145117 -4.554877,-2.854212 -4.549685,-2.643794 0.0052,0.210419 4.558885,-3.017408 4.413767,-2.864948 -0.145117,0.152459 2.854212,-4.554877 2.643794,-4.549686 -0.210419,0.0052 3.017408,4.558886 2.864949,4.413768 -0.15246,-0.145117 4.554877,2.854212 4.549685,2.643794 z"
         inkscape:transform-center-x="1.0084766"
         inkscape:transform-center-y="-1.0084766" />
    </g>
    <g
       id="g1264"
       transform="matrix(0.23769624,0,0,0.23769624,82.621507,16.745422)">
      <path
         inkscape:transform-center-y="-1.0084766"
         inkscape:transform-center-x="1.0084766"
         d="M 62.456849,71.279954 C 62.849809,70.886994 50.324,63.599289 50.87973,63.599289 c 0.55573,0 -11.970079,7.287705 -11.577119,7.680665 0.392961,0.39296 7.680665,-12.132849 7.680665,-11.577119 0,0.55573 -7.287704,-11.970079 -7.680665,-11.577119 -0.39296,0.392961 12.132849,7.680665 11.577119,7.680665 -0.55573,0 11.970079,-7.287705 11.577119,-7.680665 -0.39296,-0.39296 -7.680664,12.132849 -7.680664,11.577119 0,-0.55573 7.287704,11.970079 7.680664,11.577119 z"
         inkscape:randomized="0"
         inkscape:rounded="-0.04"
         inkscape:flatsided="false"
         sodipodi:arg2="1.5707963"
         sodipodi:arg1="0.78539816"
         sodipodi:r2="3.8964543"
         sodipodi:r1="16.372519"
         sodipodi:cy="59.702835"
         sodipodi:cx="50.87973"
         sodipodi:sides="4"
         id="path1260"
         style="opacity:0.731;fill:#ffffff;fill-opacity:1;stroke:none;stroke-width:1.5;stroke-linecap:round;stroke-linejoin:round;stroke-miterlimit:4;stroke-dasharray:none;stroke-dashoffset:0;stroke-opacity:0.59315592;paint-order:fill markers stroke"
         sodipodi:type="star" />
      <path
         sodipodi:type="star"
         style="opacity:0.731;fill:#ffffff;fill-opacity:1;stroke:none;stroke-width:1.5;stroke-linecap:round;stroke-linejoin:round;stroke-miterlimit:4;stroke-dasharray:none;stroke-dashoffset:0;stroke-opacity:0.59315592;paint-order:fill markers stroke"
         id="path1262"
         sodipodi:sides="4"
         sodipodi:cx="50.87973"
         sodipodi:cy="59.702835"
         sodipodi:r1="7.2382998"
         sodipodi:r2="3.8964543"
         sodipodi:arg1="-0.024668013"
         sodipodi:arg2="0.76073013"
         inkscape:flatsided="false"
         inkscape:rounded="-0.04"
         inkscape:randomized="0"
         d="m 58.115828,59.524299 c -0.0052,-0.210419 -4.558885,3.017408 -4.413768,2.864948 0.145117,-0.152459 -2.854212,4.554877 -2.643793,4.549686 0.210418,-0.0052 -3.017408,-4.558885 -2.864949,-4.413768 0.152459,0.145117 -4.554877,-2.854212 -4.549685,-2.643794 0.0052,0.210419 4.558885,-3.017408 4.413767,-2.864948 -0.145117,0.152459 2.854212,-4.554877 2.643794,-4.549686 -0.210419,0.0052 3.017408,4.558886 2.864949,4.413768 -0.15246,-0.145117 4.554877,2.854212 4.549685,2.643794 z"
         inkscape:transform-center-x="1.0084766"
         inkscape:transform-center-y="-1.0084766" />
    </g>
    <g
       transform="matrix(0.68087079,0,0,0.68087079,172.16421,-66.319016)"
       id="g1275">
      <path
         style="opacity:0.731;fill:#ffffff;fill-opacity:0.20532322;stroke:none;stroke-width:1.5;stroke-linecap:round;stroke-linejoin:round;stroke-miterlimit:4;stroke-dasharray:none;stroke-dashoffset:0;stroke-opacity:0.59315592;paint-order:fill markers stroke"
         id="path1266"
         sodipodi:type="arc"
         sodipodi:cx="-33.833755"
         sodipodi:cy="166.38802"
         sodipodi:rx="11.299436"
         sodipodi:ry="13.378531"
         sodipodi:start="0"
         sodipodi:end="6.2799564"
         sodipodi:open="true"
         d="m -22.53432,166.38802 a 11.299436,13.378531 0 0 1 -11.290314,13.37852 11.299436,13.378531 0 0 1 -11.308542,-13.35693 11.299436,13.378531 0 0 1 11.272057,-13.40009 11.299436,13.378531 0 0 1 11.32674,13.3353"
         transform="rotate(26.065334)" />
      <path
         transform="rotate(26.065334)"
         d="m -21.502124,166.21248 a 12.281339,14.541103 0 0 1 -12.271425,14.5411 12.281339,14.541103 0 0 1 -12.291236,-14.51763 12.281339,14.541103 0 0 1 12.251581,-14.56453 12.281339,14.541103 0 0 1 12.311016,14.49411"
         sodipodi:open="true"
         sodipodi:end="6.2799564"
         sodipodi:start="0"
         sodipodi:ry="14.541103"
         sodipodi:rx="12.281339"
         sodipodi:cy="166.21248"
         sodipodi:cx="-33.783463"
         sodipodi:type="arc"
         id="path1268"
         style="opacity:0.731;fill:#ffffff;fill-opacity:0.20532322;stroke:none;stroke-width:1.63034749;stroke-linecap:round;stroke-linejoin:round;stroke-miterlimit:4;stroke-dasharray:none;stroke-dashoffset:0;stroke-opacity:0.59315592;paint-order:fill markers stroke" />
      <path
         style="opacity:0.731;fill:#ffffff;fill-opacity:0.20532322;stroke:none;stroke-width:1.76805389;stroke-linecap:round;stroke-linejoin:round;stroke-miterlimit:4;stroke-dasharray:none;stroke-dashoffset:0;stroke-opacity:0.59315592;paint-order:fill markers stroke"
         id="path1270"
         sodipodi:type="arc"
         sodipodi:cx="-33.823887"
         sodipodi:cy="166.35358"
         sodipodi:rx="13.318675"
         sodipodi:ry="15.76931"
         sodipodi:start="0"
         sodipodi:end="6.2799564"
         sodipodi:open="true"
         d="m -20.505212,166.35358 a 13.318675,15.76931 0 0 1 -13.307924,15.7693 13.318675,15.76931 0 0 1 -13.329409,-15.74384 13.318675,15.76931 0 0 1 13.286405,-15.79473 13.318675,15.76931 0 0 1 13.350859,15.71835"
         transform="rotate(26.065334)" />
    </g>
    <g
       id="g1279"
       style="opacity:0.081"
       transform="matrix(0.68087079,0,0,0.68087079,8.5261586,-120.98109)">
      <path
         id="path1277"
         transform="translate(240.33642,80.282591)"
         d="m -103.10742,122.74023 c -1.70426,-0.0778 -3.0172,0.38809 -3.37305,1.34961 l -12.51367,33.81446 c 0.60194,-0.005 1.17405,0.0247 1.72656,0.0762 3.9465,-0.48373 8.07965,-0.91236 12.46485,-1.26367 l 10.382808,-28.05664 c 0.56934,-1.53843 -1.489138,-3.73088 -4.642578,-4.92578 l -0.675781,-0.25586 c -1.182539,-0.44809 -2.346589,-0.69158 -3.369139,-0.73829 z"
         style="fill:url(#linearGradient1285);fill-opacity:1;stroke:none;stroke-width:1px;stroke-linecap:butt;stroke-linejoin:miter;stroke-opacity:1"
         inkscape:connector-curvature="0" />
    </g>
  </g>
</svg>
