<?xml version="1.0" encoding="UTF-8" standalone="no"?>
<svg
   xmlns:dc="http://purl.org/dc/elements/1.1/"
   xmlns:cc="http://creativecommons.org/ns#"
   xmlns:rdf="http://www.w3.org/1999/02/22-rdf-syntax-ns#"
   xmlns:svg="http://www.w3.org/2000/svg"
   xmlns="http://www.w3.org/2000/svg"
   xmlns:xlink="http://www.w3.org/1999/xlink"
   xmlns:sodipodi="http://sodipodi.sourceforge.net/DTD/sodipodi-0.dtd"
   xmlns:inkscape="http://www.inkscape.org/namespaces/inkscape"
   height="128"
   viewBox="0 0 128 128"
   width="128"
   version="1.1"
   id="svg54"
   sodipodi:docname="pocket-casts-linux.svg"
   inkscape:version="0.92.4 (5da689c313, 2019-01-14)">
  <metadata
     id="metadata60">
    <rdf:RDF>
      <cc:Work
         rdf:about="">
        <dc:format>image/svg+xml</dc:format>
        <dc:type
           rdf:resource="http://purl.org/dc/dcmitype/StillImage" />
        <dc:title></dc:title>
      </cc:Work>
    </rdf:RDF>
  </metadata>
  <defs
     id="defs58" />
  <sodipodi:namedview
     pagecolor="#ffffff"
     bordercolor="#666666"
     borderopacity="1"
     objecttolerance="10"
     gridtolerance="10"
     guidetolerance="10"
     inkscape:pageopacity="0"
     inkscape:pageshadow="2"
     inkscape:window-width="1600"
     inkscape:window-height="838"
     id="namedview56"
     showgrid="false"
     inkscape:zoom="0.65186406"
     inkscape:cx="-206.66224"
     inkscape:cy="162.7021"
     inkscape:window-x="-8"
     inkscape:window-y="-8"
     inkscape:window-maximized="1"
     inkscape:current-layer="svg54" />
  <linearGradient
     id="a">
    <stop
       offset="0"
       stop-opacity=".313726"
       id="stop2" />
    <stop
       offset=".222222"
       stop-opacity=".27451"
       id="stop4" />
    <stop
       offset="1"
       stop-opacity="0"
       id="stop6" />
  </linearGradient>
  <radialGradient
     id="b"
     cx="450.90894"
     cy="189.57936"
     gradientTransform="matrix(3.5e-7,-0.156265,-0.281277,-2e-7,-142.00454,84.885575)"
     gradientUnits="userSpaceOnUse"
     r="21.166656"
     xlink:href="#a" />
  <radialGradient
     id="c"
     cx="450.90894"
     cy="189.57936"
     gradientTransform="matrix(-3.5e-7,0.156265,0.281277,2e-7,-256.59108,-57.360049)"
     gradientUnits="userSpaceOnUse"
     r="21.166656"
     xlink:href="#a" />
  <radialGradient
     id="d"
     cx="450.90894"
     cy="189.57936"
     gradientTransform="matrix(-3.5e-7,-0.156265,0.281277,-2e-7,-256.59108,84.885575)"
     gradientUnits="userSpaceOnUse"
     r="21.166656"
     xlink:href="#a" />
  <radialGradient
     id="e"
     cx="450.90894"
     cy="189.57936"
     gradientTransform="matrix(3.5e-7,0.156265,-0.281277,2e-7,-142.00455,-57.36005)"
     gradientUnits="userSpaceOnUse"
     r="21.166656"
     xlink:href="#a" />
  <linearGradient
     id="f"
     gradientTransform="matrix(0.0267201,0,0,0.125012,-206.12008,-15.427518)"
     gradientUnits="userSpaceOnUse"
     x1="255.32306"
     x2="255.32304"
     y1="233.5"
     y2="254.66666">
    <stop
       offset="0"
       stop-opacity=".27451"
       id="stop13" />
    <stop
       offset="1"
       stop-opacity="0"
       id="stop15" />
  </linearGradient>
  <linearGradient
     id="g"
     gradientUnits="userSpaceOnUse"
     x1="254"
     x2="254"
     y1="-168.66667"
     y2="233.5"
     gradientTransform="matrix(0.29837359,0,0,0.29837359,-157.58917,-112.15154)">
    <stop
       offset="0"
       stop-color="#ef5350"
       id="stop18"
       style="stop-color:#f83f4e;stop-opacity:1" />
    <stop
       offset="1"
       stop-color="#f44336"
       id="stop20"
       style="stop-color:#d71727;stop-opacity:1" />
  </linearGradient>
  <linearGradient
     id="h"
     gradientUnits="userSpaceOnUse"
     x1="31.753056"
     x2="31.753056"
     y1="56.067898"
     y2="5.7922244"
     gradientTransform="matrix(2.0787614,0,0,2.0787614,-140.36585,-79.847027)">
    <stop
       offset="0"
       stop-color="#e0e0e0"
       id="stop23" />
    <stop
       offset="1"
       stop-color="#eee"
       id="stop25" />
  </linearGradient>
  <g
     id="g971"
     transform="matrix(0.9836818,0,0,0.9836818,144.46993,163.82412)">
    <path
       d="m -81.800199,-160.47543 c 33.134956,0 59.995357,26.86038 59.995357,59.99534 0,33.134958 -26.860401,59.995328 -59.995357,59.995328 -33.134931,0 -60.004641,-26.86037 -60.004641,-59.995328 0,-33.13496 26.86971,-59.99534 60.004641,-59.99534 z m 0,0"
       id="path963"
       inkscape:connector-curvature="0"
       style="opacity:0.25;fill:#000000;stroke:none;stroke-width:0.75590551;stroke-linecap:round;stroke-miterlimit:4;stroke-dasharray:none;stroke-opacity:1" />
    <path
       style="fill:url(#g);stroke:#8f0912;stroke-width:0.75590551;stroke-linecap:round;stroke-miterlimit:4;stroke-dasharray:none;stroke-opacity:1"
       inkscape:connector-curvature="0"
       id="path38"
       d="m -81.800199,-162.47543 c 33.134956,0 59.995357,26.86038 59.995357,59.99534 0,33.134958 -26.860401,59.995328 -59.995357,59.995328 -33.134931,0 -60.004641,-26.86037 -60.004641,-59.995328 0,-33.13496 26.86971,-59.99534 60.004641,-59.99534 z m 0,0" />
    <path
       d="m -81.800224,-147.84236 c -26.245046,0 -47.371596,21.11723 -47.371596,47.36227 0,26.245028 21.12655,47.371568 47.371596,47.371568 v -12.63304 c -19.243246,0 -34.738546,-15.49527 -34.738546,-34.738528 0,-19.24325 15.4953,-34.73855 34.738546,-34.73855 19.243253,0 34.729217,15.4953 34.729217,34.73855 h 12.633045 c 0,-26.24504 -21.126544,-47.36227 -47.362262,-47.36227 z m 0,18.94491 c -15.747028,0 -28.426686,12.67033 -28.426686,28.41736 0,15.747005 12.679658,28.417358 28.426686,28.417358 v -9.47245 c -10.498018,0 -18.944906,-8.446898 -18.944906,-18.944908 0,-10.49802 8.446888,-18.94491 18.944906,-18.94491 10.498021,0 18.944908,8.44689 18.944908,18.94491 h 9.472452 c 0,-15.74703 -12.670353,-28.41736 -28.41736,-28.41736 z m 0,0"
       id="path965"
       inkscape:connector-curvature="0"
       style="opacity:0.25;fill:#000000;stroke-width:2.38675952" />
    <path
       style="fill:#ffffff;stroke-width:2.38675952"
       inkscape:connector-curvature="0"
       id="path46"
       d="m -81.800224,-149.84236 c -26.245046,0 -47.371596,21.11723 -47.371596,47.36227 0,26.245028 21.12655,47.371568 47.371596,47.371568 v -12.63304 c -19.243246,0 -34.738546,-15.49527 -34.738546,-34.738528 0,-19.24325 15.4953,-34.73855 34.738546,-34.73855 19.243253,0 34.729217,15.4953 34.729217,34.73855 h 12.633045 c 0,-26.24504 -21.126544,-47.36227 -47.362262,-47.36227 z m 0,18.94491 c -15.747028,0 -28.426686,12.67033 -28.426686,28.41736 0,15.747005 12.679658,28.417358 28.426686,28.417358 v -9.47245 c -10.498018,0 -18.944906,-8.446898 -18.944906,-18.944908 0,-10.49802 8.446888,-18.94491 18.944906,-18.94491 10.498021,0 18.944908,8.44689 18.944908,18.94491 h 9.472452 c 0,-15.74703 -12.670353,-28.41736 -28.41736,-28.41736 z m 0,0" />
  </g>
</svg>
