<?xml version="1.0" encoding="UTF-8" standalone="no"?>
<!-- Created with Inkscape (http://www.inkscape.org/) -->

<svg
   xmlns:osb="http://www.openswatchbook.org/uri/2009/osb"
   xmlns:dc="http://purl.org/dc/elements/1.1/"
   xmlns:cc="http://creativecommons.org/ns#"
   xmlns:rdf="http://www.w3.org/1999/02/22-rdf-syntax-ns#"
   xmlns:svg="http://www.w3.org/2000/svg"
   xmlns="http://www.w3.org/2000/svg"
   xmlns:xlink="http://www.w3.org/1999/xlink"
   xmlns:sodipodi="http://sodipodi.sourceforge.net/DTD/sodipodi-0.dtd"
   xmlns:inkscape="http://www.inkscape.org/namespaces/inkscape"
   width="128"
   height="128"
   viewBox="0 0 33.866666 33.866668"
   version="1.1"
   id="svg8"
   inkscape:version="0.92.3 (2405546, 2018-03-11)"
   sodipodi:docname="preferences-system-network.svg">
  <defs
     id="defs2">
    <linearGradient
       gradientUnits="userSpaceOnUse"
       gradientTransform="matrix(0.0679149,0,0,0.0679149,39.036613,301.10397)"
       y2="209.87"
       y1="-9.0071"
       x2="97.425"
       x1="97.425"
       id="b">
      <stop
         id="stop1012"
         offset="0"
         stop-color="#f22c42" />
      <stop
         id="stop1014"
         offset="1"
         stop-color="#f76363" />
    </linearGradient>
    <linearGradient
       osb:paint="solid"
       id="linearGradient6987">
      <stop
         id="stop6985"
         offset="0"
         style="stop-color:#77d2fb;stop-opacity:1;" />
    </linearGradient>
    <linearGradient
       inkscape:collect="always"
       id="linearGradient1130">
      <stop
         style="stop-color:#f2f2f2;stop-opacity:1"
         offset="0"
         id="stop1126" />
      <stop
         style="stop-color:#e5e5e5;stop-opacity:1"
         offset="1"
         id="stop1128" />
    </linearGradient>
    <linearGradient
       id="linearGradient1120"
       inkscape:collect="always">
      <stop
         id="stop1116"
         offset="0"
         style="stop-color:#f6f6f6;stop-opacity:1" />
      <stop
         id="stop1118"
         offset="1"
         style="stop-color:#e8e8e7;stop-opacity:1" />
    </linearGradient>
    <linearGradient
       gradientUnits="userSpaceOnUse"
       y2="264.35333"
       x2="71.535133"
       y1="195.32411"
       x1="71.940437"
       id="linearGradient1122"
       xlink:href="#linearGradient1120"
       inkscape:collect="always" />
    <linearGradient
       y2="264.73471"
       x2="55.517303"
       y1="195.32411"
       x1="74.991455"
       gradientUnits="userSpaceOnUse"
       id="linearGradient1124"
       xlink:href="#linearGradient1130"
       inkscape:collect="always" />
    <linearGradient
       inkscape:collect="always"
       xlink:href="#b"
       id="linearGradient31933"
       gradientUnits="userSpaceOnUse"
       gradientTransform="matrix(0.0832829,0,0,0.0832829,17.898968,280.07648)"
       x1="97.425"
       y1="-9.0071"
       x2="97.425"
       y2="209.87" />
  </defs>
  <sodipodi:namedview
     id="base"
     pagecolor="#ffffff"
     bordercolor="#666666"
     borderopacity="1.0"
     inkscape:pageopacity="0.0"
     inkscape:pageshadow="2"
     inkscape:zoom="1.979899"
     inkscape:cx="102.80731"
     inkscape:cy="-15.779619"
     inkscape:document-units="mm"
     inkscape:current-layer="layer1"
     showgrid="false"
     inkscape:window-width="1600"
     inkscape:window-height="837"
     inkscape:window-x="0"
     inkscape:window-y="30"
     inkscape:window-maximized="1"
     showguides="false"
     units="px" />
  <metadata
     id="metadata5">
    <rdf:RDF>
      <cc:Work
         rdf:about="">
        <dc:format>image/svg+xml</dc:format>
        <dc:type
           rdf:resource="http://purl.org/dc/dcmitype/StillImage" />
        <dc:title></dc:title>
      </cc:Work>
    </rdf:RDF>
  </metadata>
  <g
     inkscape:label="Layer 1"
     inkscape:groupmode="layer"
     id="layer1"
     transform="translate(0,-263.13332)">
    <g
       id="g32844"
       transform="matrix(0.94642481,0,0,0.94642481,0.05670131,14.379718)">
      <circle
         style="opacity:0.25;fill:#000000;fill-opacity:1;stroke:none;stroke-width:0.2;stroke-miterlimit:4;stroke-dasharray:none;stroke-dashoffset:0;stroke-opacity:1"
         id="circle31916"
         cx="16.933332"
         cy="280.59583"
         r="15.875" />
      <circle
         r="15.875"
         cy="280.06665"
         cx="16.933332"
         id="path920"
         style="opacity:1;fill:#2f2f2f;fill-opacity:1;stroke:none;stroke-width:0.2;stroke-miterlimit:4;stroke-dasharray:none;stroke-dashoffset:0;stroke-opacity:1" />
      <circle
         style="color:#000000;opacity:0.25;fill:#000000;stroke:none;stroke-width:0.2;stroke-miterlimit:4;stroke-dasharray:none;stroke-opacity:1"
         cx="26.227346"
         cy="288.93393"
         r="8.328289"
         id="circle31941" />
      <path
         id="circle922"
         transform="matrix(0.26458333,0,0,0.26458333,0,263.13332)"
         d="m 72.263672,4.6425781 c 0.260485,0.2211024 0.526095,0.444801 0.804687,0.671875 1.172625,0.9558047 2.527082,1.9841348 4.0625,3.5800781 1.535418,1.5959058 3.253851,3.7600058 4.701172,5.8281248 1.447321,2.06812 2.623307,4.040082 3.603516,5.964844 0.980209,1.924762 1.763292,3.802615 2.363281,5.240234 0.183394,0.439415 0.323593,0.761971 0.476563,1.121094 A 10.863332,10.863332 0 0 0 85.498047,28.5625 C 84.413384,27.407584 83.656214,26.703725 82.667969,25.925781 81.331301,24.873561 79.565128,23.67591 77.851562,22.689453 76.138,21.702996 74.47663,20.928806 72.671875,20.400391 c -1.804758,-0.528454 -3.752115,-0.80958 -5.394531,-0.958985 -1.026512,-0.09335 -1.934859,-0.135582 -2.832032,-0.125 -0.538302,0.0076 -1.07222,0.03006 -1.626953,0.07617 -1.479295,0.118677 -3.103134,0.373953 -4.527343,0.699219 -1.42421,0.325039 -2.649121,0.719951 -3.644532,1.009765 -0.510597,0.1487 -0.980836,0.276855 -1.613281,0.484376 a 7.6370984,7.6370984 0 0 0 -5.849609,-2.738282 7.6370984,7.6370984 0 0 0 -2.796875,0.53125 C 43.807349,18.381497 43.411816,17.696429 42.992188,17.048826 42.367364,16.084517 41.397859,14.714995 40.171875,13.32617 39.185539,12.20879 38.04054,11.084376 37.285156,10.302732 a 60,60 0 0 0 -1.93164,1.044922 c 0.593076,0.677859 1.342337,1.39401 2.017578,2.09961 0.792877,0.82851 1.481393,1.641768 2.197265,2.55664 0.715869,0.91491 1.458373,1.93165 2.087891,2.980469 0.270849,0.451266 0.533989,0.939365 0.830078,1.482422 A 7.6370984,7.6370984 0 0 0 40.660156,22.53125 C 38.809848,21.705646 37.454791,21.060552 35.939453,20.576172 34.099536,19.988077 31.805849,19.55179 29.755859,19.287109 27.71008,19.02292 25.907848,18.929514 24.564453,18.878906 a 60,60 0 0 0 -1.466797,1.289063 c 1.487269,0.04082 3.048194,0.104676 4.5625,0.24414 2.054269,0.188977 4.018882,0.516756 5.976563,1.029297 1.957678,0.512542 3.906417,1.210585 5.267578,1.744141 0.440777,0.172778 0.803464,0.331919 1.181641,0.494141 a 7.6370984,7.6370984 0 0 0 -0.539063,2.804687 7.6370984,7.6370984 0 0 0 0.06641,0.927734 c -1.912818,1.010251 -3.364065,1.926097 -4.783203,2.94336 -1.835623,1.315842 -3.640751,2.808396 -5.458984,4.765625 -1.818233,1.957266 -3.646252,4.376264 -5.058594,6.732422 -1.41234,2.356119 -2.403461,4.641615 -3.167969,6.746093 -0.764507,2.104479 -1.303487,4.028218 -1.710937,5.716797 -0.407448,1.68858 -0.684311,3.142721 -0.869141,4.5625 -0.18483,1.41978 -0.276454,2.80714 -0.289062,3.916016 -0.0066,0.577106 0.0072,1.080077 0.02734,1.578125 A 6.1039217,6.1039217 0 0 0 16.90625,65.078125 C 15.898411,63.844088 14.70743,62.249833 13.615234,60.744141 12.438985,59.12261 11.397426,57.645132 10.423828,56.087891 9.4502275,54.53065 8.5462798,52.893525 7.6640625,51.238281 7.129872,50.236064 6.6035761,49.229759 6.1328125,48.408203 a 60,60 0 0 0 -0.4980469,1.955078 c 0.4571996,0.712479 0.8129361,1.466542 1.4316406,2.648438 0.6553293,1.251855 1.6063535,2.982944 2.7460938,4.746093 1.139738,1.76315 2.467492,3.557157 3.488281,4.886719 1.020789,1.329525 1.735995,2.196472 2.160157,2.794922 0.159186,0.224596 0.264232,0.39013 0.378906,0.560547 a 6.1039217,6.1039217 0 0 0 -1.144532,1.789062 C 13.578505,67.703051 12.736054,67.480261 11.800781,67.201172 10.632992,66.852699 9.2969917,66.424181 7.7050781,65.757812 6.4651841,65.23877 5.0823536,64.582177 4.0039062,64.087891 a 60,60 0 0 0 0.087891,2.5 c 0.6810814,0.30274 1.4690227,0.645537 2.4785156,1.033203 1.8085096,0.694526 4.2887852,1.516869 6.0351562,2.035156 0.615511,0.182671 1.130838,0.31413 1.625,0.419922 a 6.1039217,6.1039217 0 0 0 -0.002,0.04492 6.1039217,6.1039217 0 0 0 6.103515,6.105468 6.1039217,6.1039217 0 0 0 0.05469,-0.002 c 0.002,0.0057 0.0039,0.0119 0.0059,0.01758 0.323448,0.919899 0.549708,1.851368 1.066406,3.023437 0.516699,1.172069 1.322439,2.583643 2.09961,3.646484 0.743188,1.016367 1.463734,1.727978 2.246094,2.742188 a 4.3899852,4.3899852 0 0 0 -0.310547,1.607422 4.3899852,4.3899852 0 0 0 2.21289,3.80664 c -0.177582,1.080315 -0.674297,2.152034 -1.298828,3.195313 -0.862402,1.440642 -1.953534,2.817808 -3.230469,3.96875 -1.276934,1.150942 -2.733227,2.070266 -3.955078,2.820306 -0.586477,0.36019 -1.11277,0.67693 -1.601562,0.95118 a 60,60 0 0 0 1.408203,1.60351 c 0.509075,-0.27137 1.019855,-0.56359 1.517578,-0.87109 1.319176,-0.81506 2.546439,-1.73993 3.693359,-2.773437 1.146919,-1.033512 2.213448,-2.175331 3.095704,-3.322266 0.882255,-1.146973 1.578963,-2.297681 2.011718,-3.230469 0.319417,-0.688491 0.492824,-1.257381 0.576172,-1.761718 a 4.3899852,4.3899852 0 0 0 4.351563,-4.386719 4.3899852,4.3899852 0 0 0 -4.390625,-4.390625 4.3899852,4.3899852 0 0 0 -2.939454,1.136718 c -0.522813,-0.823265 -1.015727,-1.522635 -1.509765,-2.251953 -0.645207,-0.952516 -1.315291,-2.051874 -1.820313,-3.035156 -0.505018,-0.98332 -0.844989,-1.849956 -1.109375,-2.886719 -7.49e-4,-0.0029 -0.0012,-0.0068 -0.002,-0.0098 a 6.1039217,6.1039217 0 0 0 3.931641,-5.703125 6.1039217,6.1039217 0 0 0 -1.113281,-3.501953 c 0.205518,-0.233769 0.414755,-0.464756 0.630859,-0.695313 0.988525,-1.054639 2.197566,-2.029029 3.751953,-3.146484 1.554386,-1.117493 3.452623,-2.377152 5.519531,-3.292969 2.066907,-0.91578 4.301291,-1.486406 6.242188,-1.763672 1.940897,-0.277417 3.587082,-0.261137 4.738281,-0.185547 0.241275,0.01584 0.451844,0.03723 0.658203,0.0625 a 6.1752117,6.1752117 0 0 0 2.150391,4.47461 c -0.05225,0.109935 -0.11102,0.215552 -0.16211,0.326172 -0.683157,1.479155 -1.253583,3.023496 -1.705078,4.734374 -0.451498,1.710879 -0.784338,3.588887 -0.986328,5.65625 -0.201978,2.067326 -0.273199,4.324432 -0.148437,6.451172 0.124724,2.126741 0.444747,4.122723 0.914062,6.142578 0.469312,2.019818 1.09173,4.075207 1.927735,6.101563 0.836005,2.026318 1.896725,4.054631 2.910156,5.820313 1.013431,1.765681 1.987722,3.286965 2.742187,4.439455 0.408641,0.62423 0.747654,1.12922 1.056641,1.57422 a 6.1039217,6.1039217 0 0 0 -0.96875,3.28906 6.1039217,6.1039217 0 0 0 4.724609,5.93946 c -0.209512,3.21702 0.263774,6.07789 0.78125,8.11132 0.324737,1.27609 0.666943,2.22918 1.019532,3.19727 a 60,60 0 0 0 2.816406,0.14062 c -0.247257,-0.4518 -0.500156,-0.85935 -0.738281,-1.42382 -0.320844,-0.76052 -0.617606,-1.80829 -0.902344,-2.79297 -0.28475,-0.98468 -0.558582,-1.91093 -0.701172,-2.84375 -0.142602,-0.93287 -0.153887,-1.87193 -0.183594,-2.65625 -0.01876,-0.49281 -0.03659,-0.95211 0.01172,-1.61914 a 6.1039217,6.1039217 0 0 0 4.144531,-2.38282 c 0.554576,0.27087 1.122237,0.51191 1.929688,0.79883 1.582567,0.56236 4.099447,1.31895 6.660156,1.84571 2.560706,0.52671 5.16454,0.82185 7.572266,0.96093 2.407729,0.13909 4.617321,0.12164 6.726562,-0.0137 2.109237,-0.13455 4.116425,-0.38449 5.921875,-0.6582 1.750617,-0.26533 3.32258,-0.5541 4.927735,-0.78711 a 60,60 0 0 0 2.701172,-2.04688 c -0.17133,0.0227 -0.34303,0.045 -0.51758,0.0703 -2.142318,0.31067 -4.494275,0.76588 -6.749999,1.15234 -2.255728,0.38646 -4.415691,0.70541 -6.759765,0.83984 -2.344078,0.13455 -4.871701,0.0843 -7.460938,-0.13867 -2.589229,-0.22299 -5.240017,-0.61823 -7.582031,-1.11523 -2.342015,-0.49705 -4.375336,-1.0971 -5.445313,-1.47071 -0.559478,-0.19545 -0.874323,-0.3481 -1.236328,-0.59179 a 6.1039217,6.1039217 0 0 0 0.546875,-2.51563 6.1039217,6.1039217 0 0 0 -2.853515,-5.16015 c 0.110708,-0.26658 0.225663,-0.52949 0.355468,-0.79688 0.594153,-1.223927 1.426163,-2.554219 2.388672,-3.861331 0.962506,-1.307074 2.055063,-2.589112 3.445313,-3.919921 1.39025,-1.33081 3.077825,-2.708948 5.085937,-3.84961 2.008109,-1.140661 4.337222,-2.043609 6.369141,-2.634765 2.031919,-0.591118 3.742803,-0.866147 5.275391,-1.09375 0.166394,-0.0247 0.256996,-0.03709 0.417968,-0.06055 a 6.1039217,6.1039217 0 0 0 5.976563,4.896484 6.1039217,6.1039217 0 0 0 3.96875,-1.474609 c 1.157739,0.682276 2.101221,1.240372 3.148441,1.751953 1.48941,0.727559 3.47055,1.521827 5.27734,2.070312 1.80679,0.548485 3.43744,0.851786 5.00781,1.033203 1.57037,0.181418 3.0794,0.240696 4.54688,0.347657 0.25704,0.0189 0.48635,0.03781 0.73828,0.05859 a 60,60 0 0 0 1.26953,-2.314453 c -0.26767,-2.26e-4 -0.51762,-0.002 -0.78516,-0.002 -1.69303,0 -3.30779,-0.001 -4.65625,-0.06055 -1.34845,-0.05934 -2.43139,-0.177764 -3.73242,-0.46875 -1.30102,-0.291023 -2.82177,-0.753561 -4.11523,-1.261718 -1.29346,-0.50812 -2.35911,-1.061909 -3.23242,-1.53125 -0.873313,-0.469342 -1.553994,-0.855065 -2.066411,-1.119141 -0.0326,-0.01681 -0.07379,-0.03665 -0.105468,-0.05273 a 6.1039217,6.1039217 0 0 0 0.841797,-3.080078 6.1039217,6.1039217 0 0 0 -1.664063,-4.181641 c 0.873861,-1.138041 1.379287,-2.200984 1.857422,-3.306641 0.530523,-1.226834 1.053683,-2.510628 1.552733,-4.007812 0.49905,-1.497185 0.97297,-3.208063 1.37695,-5.263672 0.40399,-2.05561 0.73781,-4.456273 0.77344,-6.642578 0.0355,-2.186306 -0.22631,-4.158274 -0.52929,-6 -0.30301,-1.841764 -0.64769,-3.551533 -1.12891,-5.060547 -0.48123,-1.508977 -1.09549,-2.812289 -1.88672,-4.228516 -0.05045,-0.0903 -0.112273,-0.18241 -0.164062,-0.273437 a 10.863332,10.863332 0 0 0 3.328122,-7.822266 10.863332,10.863332 0 0 0 -0.51172,-3.259766 c 0.82483,-0.393885 1.60199,-0.75614 2.48633,-1.21875 1.0923,-0.571351 2.36955,-1.309001 3.41992,-1.998046 1.05037,-0.689046 1.87318,-1.328786 2.78907,-1.958985 0.31748,-0.218456 0.64692,-0.433052 0.97851,-0.634765 a 60,60 0 0 0 -1.23828,-1.681641 c -1.08943,0.698759 -2.04334,1.39588 -3.25195,2.199219 -1.403,0.932523 -3.15111,2.007324 -5.0918,2.822265 -0.32992,0.138542 -0.66527,0.261283 -1,0.386719 a 10.863332,10.863332 0 0 0 -7.814452,-5.382812 c 0.05289,-0.619953 0.07615,-1.332159 0.08594,-2.232422 0.01663,-1.543257 0.0077,-3.591031 -0.09961,-5.337891 -0.107528,-1.74686 -0.313954,-3.190499 -0.513672,-4.791015 -0.118148,-0.94681 -0.231383,-1.942517 -0.265625,-2.748047 a 60,60 0 0 0 -2.785157,-1.357422 c 0.184857,0.768264 0.379755,1.762274 0.558594,2.832031 0.231043,1.38206 0.434114,2.878068 0.59375,4.310547 0.159647,1.432479 0.276512,2.803017 0.34375,4.164062 0.0672,1.361084 0.08478,2.712304 0.101563,3.808594 0.0087,0.570379 0.01388,0.81788 0.02148,1.226563 A 10.863332,10.863332 0 0 0 89.375,26.710938 C 89.129805,25.96 88.826246,25.11257 88.335938,23.957031 87.617585,22.264105 86.56659,20.021701 85.617188,18.236328 84.667785,16.450955 83.820639,15.1236 82.980469,13.917969 82.140295,12.712337 81.308543,11.627872 80.417969,10.556641 79.527395,9.4854469 78.578165,8.4267501 77.744141,7.5527344 76.942125,6.712243 76.237033,6.0361741 75.205078,5.0878906 A 60,60 0 0 0 72.263672,4.6425781 Z M 63.953125,21.291016 c 0.637254,0.0023 1.293298,0.03398 1.96875,0.101562 2.701807,0.270236 5.705205,1.11408 7.996094,2.00586 2.290889,0.891817 3.869766,1.832599 5.43164,2.839843 1.367349,0.881798 2.746096,1.877177 4.5,3.851563 A 10.863332,10.863332 0 0 0 81.15625,37.236328 10.863332,10.863332 0 0 0 92.019531,48.099609 10.863332,10.863332 0 0 0 96.902344,46.9375 c 1.102208,1.972098 1.771132,4.462367 2.24414,6.662109 0.49307,2.293078 0.778306,4.265695 0.707032,6.832032 -0.07128,2.566374 -0.494071,5.686257 -1.019532,8.046875 -0.52546,2.360617 -1.151813,3.902254 -1.777343,5.365234 -0.625531,1.463017 -1.275758,2.909843 -1.962891,4.052734 -0.05467,0.09093 -0.11432,0.170101 -0.169922,0.257813 a 6.1039217,6.1039217 0 0 0 -1.662109,-0.234375 6.1039217,6.1039217 0 0 0 -1.001953,0.08398 C 91.017372,75.637132 89.92511,73.143614 88.792969,70.759762 87.599919,68.247623 86.357763,65.860369 84.988281,63.33984 83.618796,60.819311 82.122251,58.165303 80.378906,55.417965 78.635558,52.67063 76.644289,49.830485 74.623047,47.115234 72.601805,44.399946 70.551,41.810481 68.703125,39.792969 66.855254,37.775495 65.21162,36.330484 63.730469,35.009766 62.249321,33.689048 60.931869,32.491788 59.486328,31.3125 58.040784,30.133174 56.466559,28.972251 55.230469,28.294922 55.03424,28.187391 54.850609,28.105319 54.664062,28.017578 a 7.6370984,7.6370984 0 0 0 0.15625,-1.533203 7.6370984,7.6370984 0 0 0 -0.632812,-3.021484 c 1.771248,-0.788258 3.091368,-1.227983 4.570312,-1.566407 1.545982,-0.353763 3.28355,-0.612473 5.195313,-0.605468 z m -10.017578,8.75 c 0.200546,0.117542 0.393373,0.227333 0.613281,0.367187 1.428272,0.908296 3.394079,2.370953 5.628906,4.294922 2.234824,1.923969 4.738924,4.308547 7.208985,6.996094 2.470065,2.687584 4.906953,5.678019 7.208984,8.849609 2.302027,3.171591 4.469679,6.523473 6.185547,9.378906 1.715868,2.855396 2.97974,5.214336 4.146484,7.457032 1.166744,2.242696 2.23635,4.369847 3.091797,6.175781 0.855451,1.805972 1.496827,3.291491 1.876953,4.271484 0.134763,0.347446 0.217037,0.624889 0.306641,0.917969 a 6.1039217,6.1039217 0 0 0 -2.337891,2.431641 C 85.761836,80.126827 83.812441,79.253931 81.882812,78.298828 79.582108,77.160094 77.250384,75.862271 74.923828,74.515625 72.597276,73.168979 70.220656,71.74309 67.945312,70.251953 65.669973,68.760816 63.494344,67.203819 61.771484,65.873047 60.048621,64.542313 58.777281,63.43825 57.927734,62.671875 57.645684,62.417439 57.41564,62.18806 57.173828,61.955078 a 6.1752117,6.1752117 0 0 0 2.033203,-4.570312 6.1752117,6.1752117 0 0 0 -4.193359,-5.841797 c 0.13884,-1.766821 0.04869,-3.60196 -0.06641,-5.083985 -0.148536,-1.913121 -0.326711,-3.232077 -0.570313,-4.675781 -0.24359,-1.443666 -0.55339,-3.011963 -0.914062,-4.572265 -0.295516,-1.278402 -0.663049,-2.59903 -1.628907,-4.673829 a 7.6370984,7.6370984 0 0 0 2.101563,-2.496093 z m -13.189453,0.548828 a 7.6370984,7.6370984 0 0 0 6.4375,3.53125 7.6370984,7.6370984 0 0 0 2.804687,-0.535156 c 0.423379,0.92008 0.735428,1.716323 0.996094,2.482421 0.487124,1.431648 0.831951,2.798141 1.123047,4.5625 0.291099,1.764397 0.527583,3.928176 0.658203,5.66211 0.13062,1.733896 0.154707,3.041282 0.125,4.1875 -0.0067,0.255389 -0.03312,0.492208 -0.04687,0.736328 a 6.1752117,6.1752117 0 0 0 -5.277344,3.300781 c -1.01352,-0.272359 -2.083011,-0.404479 -3.166015,-0.419922 -2.151394,-0.03024 -4.346697,0.35988 -6.220703,0.828125 -2.998412,0.748989 -5.17158,1.697845 -7.052735,2.763672 -1.881155,1.065865 -3.470463,2.249045 -4.912109,3.398438 -1.441647,1.149392 -2.737281,2.267346 -3.482422,3.30664 -0.02257,0.03148 -0.03699,0.06047 -0.05859,0.0918 a 6.1039217,6.1039217 0 0 0 -1.199219,-0.357422 c 0.04768,-1.691131 0.191458,-3.423402 0.447266,-5.169922 0.344598,-2.352718 0.890556,-4.728852 1.603516,-6.974609 0.712959,-2.245795 1.592843,-4.362135 2.65039,-6.429687 1.057546,-2.067515 2.292521,-4.08647 3.884766,-6.035157 1.592245,-1.948686 3.539733,-3.824684 5.205078,-5.222656 1.554642,-1.30504 2.912792,-2.216525 5.480469,-3.707031 z m 14.777344,32.4375 c 0.297032,0.233457 0.607474,0.461977 0.884765,0.707031 0.967574,0.85508 1.835041,1.829608 3.462891,3.142578 1.62785,1.31297 4.016814,2.964574 6.023437,4.335938 2.006623,1.371326 3.630388,2.463194 5.841797,3.802734 2.211409,1.33954 5.009652,2.927001 7.572266,4.246094 2.497074,1.285393 4.785917,2.325865 7.576172,3.738281 -1.998895,0.498982 -4.222533,0.824902 -6.267578,1.431641 -2.162465,0.641574 -4.116586,1.604631 -5.94336,2.638671 -1.826774,1.034041 -3.527485,2.139822 -5.089844,3.488282 -1.562354,1.348497 -2.98778,2.939722 -4.169922,4.496094 -1.182145,1.556371 -2.120387,3.078166 -2.75,4.230468 -0.257735,0.471701 -0.460142,0.894844 -0.65625,1.365234 a 6.1039217,6.1039217 0 0 0 -1.310546,-0.14648 6.1039217,6.1039217 0 0 0 -3.617188,1.19531 c -0.221249,-0.27533 -0.434016,-0.56244 -0.683594,-0.92383 -0.742613,-1.075313 -1.88259,-2.773838 -2.75,-4.164062 -0.867405,-1.390223 -1.46846,-2.481686 -2.095703,-3.855469 -0.627243,-1.373745 -1.291948,-3.047625 -1.791015,-4.550781 -0.499064,-1.503156 -0.830978,-2.834495 -1.144532,-4.9375 -0.313549,-2.102967 -0.607366,-4.977656 -0.613281,-7.294922 -0.006,-2.317266 0.275017,-4.074667 0.580078,-5.716797 0.305046,-1.642129 0.633438,-3.166732 1.001953,-4.361328 0.368504,-1.194595 0.776014,-2.056633 1.09961,-2.61914 0.03404,-0.05917 0.06141,-0.09511 0.09375,-0.148438 a 6.1752117,6.1752117 0 0 0 2.253906,0.433594 6.1752117,6.1752117 0 0 0 2.492188,-0.533203 z"
         style="opacity:1;fill:#cccccc;fill-opacity:1;stroke:none;stroke-width:0.17607255;stroke-miterlimit:4;stroke-dasharray:none;stroke-dashoffset:0;stroke-opacity:1"
         inkscape:connector-curvature="0" />
      <circle
         id="circle31931"
         r="8.328289"
         cy="288.40475"
         cx="26.227346"
         style="color:#000000;fill:url(#linearGradient31933);stroke:#99393a;stroke-width:0.1;stroke-miterlimit:4;stroke-dasharray:none;stroke-opacity:1" />
      <g
         transform="translate(0.0465476,-0.18719419)"
         id="g31939">
        <g
           transform="matrix(0.13079299,0,0,0.13079972,17.321754,258.77645)"
           id="g835"
           style="font-style:normal;font-weight:normal;font-size:23.77790642px;line-height:1.25;font-family:sans-serif;letter-spacing:0px;word-spacing:0px;opacity:0.25;fill:#000000;fill-opacity:1;stroke:none;stroke-width:0.62795144"
           aria-label="@">
          <path
             inkscape:connector-curvature="0"
             id="path833"
             style="font-style:normal;font-variant:normal;font-weight:normal;font-stretch:normal;font-size:114.13394928px;font-family:'American Typewriter';-inkscape-font-specification:'American Typewriter';fill:#000000;fill-opacity:1;stroke-width:0.62795144"
             d="m 73.554163,244.27526 q 0,-0.91307 0.114134,-1.59787 -4.33709,6.7339 -13.353672,6.7339 -5.47843,0 -8.902449,-3.65229 -3.309884,-3.76642 -3.309884,-9.70138 0,-10.38619 7.532841,-18.26143 7.53284,-7.98938 17.462494,-7.98938 2.282679,0 5.021894,0.6848 l 2.282679,0.57067 q 0.456535,0.22827 1.141339,0.22827 0.57067,0 1.940277,-0.57067 1.826143,-0.79894 2.625081,-0.79894 1.712009,0 1.712009,1.48375 0,0.3424 -0.228268,1.25547 l -0.570669,2.16854 -6.505635,24.31054 q -0.342402,1.3696 -0.342402,2.16854 0,2.05441 2.168545,2.05441 4.222956,0 7.875242,-5.47843 5.136028,-7.64697 5.136028,-17.69076 0,-9.47312 -6.277367,-15.75049 -6.163234,-6.27736 -15.636351,-6.27736 -13.353672,0 -23.283326,10.72859 -9.81552,10.61446 -9.81552,24.99533 0,11.18513 7.190439,18.71797 7.190439,7.41871 18.033164,7.41871 6.391501,0 10.500324,-1.48374 4.222956,-1.59788 10.500323,-6.16324 2.282679,-1.71201 3.76642,-1.71201 2.168545,0 2.168545,2.05441 0,2.16855 -2.967482,4.45123 -11.299261,8.90245 -24.881201,8.90245 -13.810208,0 -23.055058,-9.13072 -9.130716,-9.24485 -9.130716,-23.05506 0,-16.66355 12.326466,-28.99002 12.440601,-12.4406 29.332425,-12.4406 12.783003,0 20.772379,7.53284 8.103509,7.53284 8.103509,19.63104 0,13.58194 -9.929652,23.73986 -6.049099,6.16323 -12.668868,6.16323 -2.967483,0 -4.90776,-1.48374 -1.940277,-1.48374 -1.940277,-3.76642 z m 2.396813,-15.52221 3.081616,-11.4134 q -3.424018,-1.71201 -6.619769,-1.71201 -6.619769,0 -11.641663,5.82083 -4.90776,5.82083 -4.90776,13.58194 0,7.87525 6.848037,7.87525 9.473118,0 13.239539,-14.15261 z" />
        </g>
        <g
           aria-label="@"
           style="font-style:normal;font-weight:normal;font-size:23.77790642px;line-height:1.25;font-family:sans-serif;letter-spacing:0px;word-spacing:0px;fill:url(#linearGradient1122);fill-opacity:1;stroke:#99393a;stroke-width:0.44601908;stroke-miterlimit:4;stroke-dasharray:none;stroke-opacity:1"
           id="text931"
           transform="matrix(0.13079299,0,0,0.13079972,17.321754,258.46059)">
          <path
             d="m 73.554163,244.27526 q 0,-0.91307 0.114134,-1.59787 -4.33709,6.7339 -13.353672,6.7339 -5.47843,0 -8.902449,-3.65229 -3.309884,-3.76642 -3.309884,-9.70138 0,-10.38619 7.532841,-18.26143 7.53284,-7.98938 17.462494,-7.98938 2.282679,0 5.021894,0.6848 l 2.282679,0.57067 q 0.456535,0.22827 1.141339,0.22827 0.57067,0 1.940277,-0.57067 1.826143,-0.79894 2.625081,-0.79894 1.712009,0 1.712009,1.48375 0,0.3424 -0.228268,1.25547 l -0.570669,2.16854 -6.505635,24.31054 q -0.342402,1.3696 -0.342402,2.16854 0,2.05441 2.168545,2.05441 4.222956,0 7.875242,-5.47843 5.136028,-7.64697 5.136028,-17.69076 0,-9.47312 -6.277367,-15.75049 -6.163234,-6.27736 -15.636351,-6.27736 -13.353672,0 -23.283326,10.72859 -9.81552,10.61446 -9.81552,24.99533 0,11.18513 7.190439,18.71797 7.190439,7.41871 18.033164,7.41871 6.391501,0 10.500324,-1.48374 4.222956,-1.59788 10.500323,-6.16324 2.282679,-1.71201 3.76642,-1.71201 2.168545,0 2.168545,2.05441 0,2.16855 -2.967482,4.45123 -11.299261,8.90245 -24.881201,8.90245 -13.810208,0 -23.055058,-9.13072 -9.130716,-9.24485 -9.130716,-23.05506 0,-16.66355 12.326466,-28.99002 12.440601,-12.4406 29.332425,-12.4406 12.783003,0 20.772379,7.53284 8.103509,7.53284 8.103509,19.63104 0,13.58194 -9.929652,23.73986 -6.049099,6.16323 -12.668868,6.16323 -2.967483,0 -4.90776,-1.48374 -1.940277,-1.48374 -1.940277,-3.76642 z m 2.396813,-15.52221 3.081616,-11.4134 q -3.424018,-1.71201 -6.619769,-1.71201 -6.619769,0 -11.641663,5.82083 -4.90776,5.82083 -4.90776,13.58194 0,7.87525 6.848037,7.87525 9.473118,0 13.239539,-14.15261 z"
             style="font-style:normal;font-variant:normal;font-weight:normal;font-stretch:normal;font-size:114.13394928px;font-family:'American Typewriter';-inkscape-font-specification:'American Typewriter';fill:url(#linearGradient1124);fill-opacity:1;stroke:#99393a;stroke-width:0.44601908;stroke-miterlimit:4;stroke-dasharray:none;stroke-opacity:1"
             id="path933"
             inkscape:connector-curvature="0" />
        </g>
      </g>
    </g>
  </g>
</svg>
