<?xml version="1.0" encoding="UTF-8" standalone="no"?>
<!-- Created with Inkscape (http://www.inkscape.org/) -->

<svg
   xmlns:osb="http://www.openswatchbook.org/uri/2009/osb"
   xmlns:dc="http://purl.org/dc/elements/1.1/"
   xmlns:cc="http://creativecommons.org/ns#"
   xmlns:rdf="http://www.w3.org/1999/02/22-rdf-syntax-ns#"
   xmlns:svg="http://www.w3.org/2000/svg"
   xmlns="http://www.w3.org/2000/svg"
   xmlns:xlink="http://www.w3.org/1999/xlink"
   xmlns:sodipodi="http://sodipodi.sourceforge.net/DTD/sodipodi-0.dtd"
   xmlns:inkscape="http://www.inkscape.org/namespaces/inkscape"
   width="128"
   height="128"
   viewBox="0 0 33.866665 33.866665"
   version="1.1"
   id="svg4942"
   inkscape:version="0.92.4 (5da689c313, 2019-01-14)"
   sodipodi:docname="preferences-system-network-server-share-windows.svg">
  <defs
     id="defs4936">
    <linearGradient
       id="linearGradient891"
       inkscape:collect="always">
      <stop
         id="stop887"
         offset="0"
         style="stop-color:#6e8fbc;stop-opacity:1" />
      <stop
         id="stop889"
         offset="1"
         style="stop-color:#375579;stop-opacity:1" />
    </linearGradient>
    <linearGradient
       inkscape:collect="always"
       id="linearGradient5420">
      <stop
         style="stop-color:#d5e3e8;stop-opacity:1"
         offset="0"
         id="stop5416" />
      <stop
         style="stop-color:#a0a0a1;stop-opacity:1"
         offset="1"
         id="stop5418" />
    </linearGradient>
    <linearGradient
       inkscape:collect="always"
       id="linearGradient5408">
      <stop
         style="stop-color:#dfe5e8;stop-opacity:1"
         offset="0"
         id="stop5404" />
      <stop
         style="stop-color:#c3cacc;stop-opacity:1"
         offset="1"
         id="stop5406" />
    </linearGradient>
    <linearGradient
       id="linearGradient6987"
       osb:paint="solid">
      <stop
         style="stop-color:#77d2fb;stop-opacity:1;"
         offset="0"
         id="stop6985" />
    </linearGradient>
    <radialGradient
       inkscape:collect="always"
       xlink:href="#linearGradient5408"
       id="radialGradient5414"
       cx="502.62054"
       cy="372.05499"
       fx="502.62054"
       fy="372.05499"
       r="74.884071"
       gradientTransform="matrix(0.17054121,0,0,0.04251721,-70.396264,275.15962)"
       gradientUnits="userSpaceOnUse" />
    <linearGradient
       inkscape:collect="always"
       xlink:href="#linearGradient5420"
       id="linearGradient5422"
       x1="496.5524"
       y1="216.14406"
       x2="504.37988"
       y2="349.10312"
       gradientUnits="userSpaceOnUse"
       gradientTransform="matrix(0.18095334,0,0,0.18098851,-75.629617,225.51218)" />
    <linearGradient
       inkscape:collect="always"
       xlink:href="#linearGradient891"
       id="linearGradient5448"
       gradientUnits="userSpaceOnUse"
       gradientTransform="matrix(0.1777588,0,0,0.17779335,-74.242812,226.20283)"
       x1="501.82697"
       y1="216.4304"
       x2="502.79834"
       y2="324.15189" />
    <linearGradient
       id="linearGradient980"
       inkscape:collect="always">
      <stop
         id="stop976"
         offset="0"
         style="stop-color:#1f2429;stop-opacity:1" />
      <stop
         id="stop978"
         offset="1"
         style="stop-color:#2e3438;stop-opacity:1" />
    </linearGradient>
    <linearGradient
       inkscape:collect="always"
       xlink:href="#linearGradient980"
       id="linearGradient1731"
       gradientUnits="userSpaceOnUse"
       gradientTransform="matrix(0.94660172,0,0,0.94660172,17.29945,14.61713)"
       x1="-13.785129"
       y1="295.29562"
       x2="-13.410793"
       y2="280.87619" />
  </defs>
  <sodipodi:namedview
     id="base"
     pagecolor="#ffffff"
     bordercolor="#666666"
     borderopacity="1.0"
     inkscape:pageopacity="0.0"
     inkscape:pageshadow="2"
     inkscape:zoom="1.1806302"
     inkscape:cx="-45.455482"
     inkscape:cy="107.40823"
     inkscape:document-units="mm"
     inkscape:current-layer="layer1"
     showgrid="false"
     units="px"
     width="128px"
     inkscape:window-width="1600"
     inkscape:window-height="838"
     inkscape:window-x="-8"
     inkscape:window-y="-8"
     inkscape:window-maximized="1" />
  <metadata
     id="metadata4939">
    <rdf:RDF>
      <cc:Work
         rdf:about="">
        <dc:format>image/svg+xml</dc:format>
        <dc:type
           rdf:resource="http://purl.org/dc/dcmitype/StillImage" />
        <dc:title />
      </cc:Work>
    </rdf:RDF>
  </metadata>
  <g
     inkscape:label="Layer 1"
     inkscape:groupmode="layer"
     id="layer1"
     transform="translate(0,-263.13332)">
    <g
       transform="matrix(0.05347172,0,0,0.04969036,-0.62733422,245.64652)"
       id="g1485" />
    <g
       transform="matrix(0.05347172,0,0,0.04969036,-0.62733422,245.64652)"
       id="g1487" />
    <g
       transform="matrix(0.05347172,0,0,0.04969036,-0.62733422,245.64652)"
       id="g1489" />
    <g
       transform="matrix(0.05347172,0,0,0.04969036,-0.62733422,245.64652)"
       id="g1491" />
    <g
       transform="matrix(0.05347172,0,0,0.04969036,-0.62733422,245.64652)"
       id="g1493" />
    <g
       transform="matrix(0.05347172,0,0,0.04969036,-0.62733422,245.64652)"
       id="g1495" />
    <g
       transform="matrix(0.05347172,0,0,0.04969036,-0.62733422,245.64652)"
       id="g1497" />
    <g
       transform="matrix(0.05347172,0,0,0.04969036,-0.62733422,245.64652)"
       id="g1499" />
    <g
       transform="matrix(0.05347172,0,0,0.04969036,-0.62733422,245.64652)"
       id="g1501" />
    <g
       transform="matrix(0.05347172,0,0,0.04969036,-0.62733422,245.64652)"
       id="g1503" />
    <g
       transform="matrix(0.05347172,0,0,0.04969036,-0.62733422,245.64652)"
       id="g1505" />
    <g
       transform="matrix(0.05347172,0,0,0.04969036,-0.62733422,245.64652)"
       id="g1507" />
    <g
       transform="matrix(0.05347172,0,0,0.04969036,-0.62733422,245.64652)"
       id="g1509" />
    <g
       transform="matrix(0.05347172,0,0,0.04969036,-0.62733422,245.64652)"
       id="g1511" />
    <g
       transform="matrix(0.05347172,0,0,0.04969036,-0.62733422,245.64652)"
       id="g1513" />
    <g
       id="g894"
       transform="translate(0.26458341,-1.4836093e-6)">
      <path
         inkscape:connector-curvature="0"
         id="path869"
         d="m 5.140765,264.67965 c -0.2729159,-4.9e-4 -0.5088209,0.0449 -0.700617,0.14014 -0.3120455,0.11572 -0.444275,0.33266 -0.5342794,0.68597 l -2.1528463,22.81832 c -0.010566,0.11203 -0.00378,0.22084 0.018111,0.32463 5.845e-4,0.003 0.00179,0.006 0.00236,0.009 -0.00378,0.21177 0.00604,0.4396 0.021444,0.66975 0.018527,0.99636 0.071548,2.15294 0.1601403,3.1901 0.048545,0.86194 0.5774478,1.55881 1.2949493,1.55881 h 0.076732 1.8230314 20.2659237 0.07673 1.823033 0.07674 c 0.717499,0 1.246878,-0.69687 1.295425,-1.55881 0.08859,-1.03716 0.141613,-2.19374 0.16014,-3.1901 0.01534,-0.22962 0.02519,-0.45696 0.02144,-0.66833 7.06e-4,-0.003 0.0016,-0.007 0.0025,-0.01 0.02189,-0.1038 0.02869,-0.2126 0.01811,-0.32464 l -2.153324,-22.81871 c -0.09001,-0.35331 -0.222239,-0.57025 -0.534282,-0.68597 -0.191799,-0.0953 -0.427705,-0.14063 -0.700615,-0.14015 l -10.180385,0.0167 z"
         style="opacity:0.25;fill:#000000;fill-opacity:1;stroke:none;stroke-width:0.19374798;stroke-miterlimit:4;stroke-dasharray:none;stroke-opacity:1" />
      <path
         inkscape:connector-curvature="0"
         id="rect5373"
         d="m 2.2059724,287.21986 c -0.4735041,0.0821 -0.4625184,0.85075 -0.4111886,1.61873 0.018527,0.99636 0.071604,2.15257 0.160196,3.18974 0.048545,0.86194 0.5776281,1.55925 1.2951296,1.55925 h 0.076788 1.8231098 20.2656888 0.07679 1.823115 0.07679 c 0.7175,0 1.246588,-0.69731 1.295133,-1.55925 0.08859,-1.03717 0.141665,-2.19338 0.160195,-3.18974 0.05133,-0.76798 0.06232,-1.53668 -0.411186,-1.61873 H 26.536722 16.27117 14.371344 4.1057912 Z"
         style="opacity:1;fill:url(#radialGradient5414);fill-opacity:1;stroke:#808080;stroke-width:0.19357608;stroke-miterlimit:4;stroke-dasharray:none;stroke-opacity:1" />
      <path
         style="opacity:1;fill:#f3fdff;fill-opacity:1;stroke:none;stroke-width:0.8936702;stroke-miterlimit:4;stroke-dasharray:none;stroke-opacity:1"
         d="m 5.140985,264.47897 c -0.2729158,-4.6e-4 -0.5089691,0.0448 -0.7007652,0.14002 -0.3120446,0.11572 -0.4442203,0.33264 -0.5342256,0.68595 l -2.1531664,22.8183 c -0.010566,0.11204 -0.00368,0.22076 0.018234,0.32455 0.00878,0.0415 0.019886,0.0822 0.033286,0.12204 0.0067,0.0199 0.013985,0.0396 0.021784,0.0591 0.023409,0.0583 0.051718,0.11447 0.084343,0.16808 0.054381,0.0894 0.1207754,0.17167 0.1968375,0.24522 0.015222,0.0146 0.030793,0.0291 0.04676,0.043 0.079819,0.0701 0.1688115,0.13088 0.2644456,0.18097 0.019122,0.0101 0.038432,0.0196 0.058073,0.0288 0.1767529,0.0822 0.3735565,0.12833 0.5761154,0.12833 H 27.58979 c 0.472568,0 0.913832,-0.2511 1.142229,-0.62638 0.03263,-0.0535 0.06093,-0.10975 0.08434,-0.16806 0.0077,-0.0195 0.01508,-0.0391 0.02178,-0.0591 0.01341,-0.0398 0.02453,-0.0805 0.03329,-0.12205 0.02189,-0.10378 0.02881,-0.2125 0.01824,-0.32454 l -2.153168,-22.81831 c -0.09001,-0.35332 -0.222179,-0.57023 -0.534223,-0.68595 -0.191798,-0.0953 -0.427946,-0.1405 -0.700856,-0.14001 l -10.180181,0.0168 z"
         id="path5490"
         inkscape:connector-curvature="0" />
      <path
         inkscape:connector-curvature="0"
         id="rect5346"
         d="m 5.140985,264.19166 c -0.2729158,-4.8e-4 -0.5089691,0.0448 -0.7007652,0.14001 -0.3120446,0.11571 -0.4442203,0.33263 -0.5342256,0.68594 l -2.1531664,22.81831 c -0.010566,0.11203 -0.00368,0.22076 0.018234,0.32455 0.00878,0.0416 0.019886,0.0823 0.033286,0.12205 0.0067,0.0199 0.013985,0.0396 0.021784,0.0591 0.023409,0.0583 0.051718,0.11447 0.084343,0.16808 0.054381,0.0894 0.1207754,0.17167 0.1968375,0.24522 0.015222,0.0146 0.030793,0.0291 0.04676,0.043 0.079819,0.0701 0.1688115,0.13089 0.2644456,0.18098 0.019122,0.01 0.038432,0.0196 0.058073,0.0288 0.1767529,0.0822 0.3735565,0.12834 0.5761154,0.12834 H 27.58979 c 0.472568,0 0.913832,-0.25109 1.142229,-0.62637 0.03263,-0.0536 0.06093,-0.10977 0.08434,-0.16808 0.0077,-0.0195 0.01508,-0.0391 0.02178,-0.059 0.01341,-0.0399 0.02453,-0.0806 0.03329,-0.12205 0.02189,-0.10379 0.02881,-0.21252 0.01824,-0.32456 l -2.153168,-22.81831 c -0.09001,-0.35331 -0.222179,-0.57022 -0.534223,-0.68593 -0.191798,-0.0953 -0.427946,-0.14049 -0.700856,-0.14002 l -10.180181,0.0167 z"
         style="opacity:1;fill:url(#linearGradient5422);fill-opacity:1;stroke:#808080;stroke-width:0.19374798;stroke-miterlimit:4;stroke-dasharray:none;stroke-opacity:1" />
      <path
         inkscape:connector-curvature="0"
         id="path5365"
         d="m 5.8062984,264.63451 c -0.5247687,0.004 -1.1409487,0.0802 -1.2734407,0.63092 l -1.6032234,17.51116 c -0.00965,0.0859 -0.0034,0.16936 0.016629,0.24899 0.00803,0.0318 0.018158,0.0631 0.030406,0.0937 0.00614,0.0153 0.012795,0.0303 0.019934,0.0453 0.021378,0.0448 0.047176,0.0878 0.076977,0.12891 0.012757,0.0177 0.026336,0.0349 0.040509,0.0518 0.00425,0.006 0.00897,0.01 0.013428,0.0149 0.010094,0.0115 0.020217,0.023 0.030953,0.0342 0.00576,0.006 0.011888,0.0117 0.017828,0.0176 0.010255,0.0102 0.020462,0.0202 0.031237,0.0301 0.00567,0.006 0.01153,0.01 0.01728,0.0149 0.00948,0.008 0.018734,0.0166 0.028564,0.0246 0.00246,0.002 0.00519,0.004 0.00774,0.006 0.00331,0.003 0.0068,0.006 0.010208,0.009 0.00822,0.007 0.016345,0.0129 0.024806,0.0191 0.00434,0.003 0.00897,0.007 0.013314,0.009 0.00888,0.007 0.017875,0.0125 0.027006,0.0187 0.01017,0.007 0.020425,0.0137 0.030868,0.0202 0.00969,0.007 0.019546,0.0121 0.02949,0.0179 0.010472,0.007 0.021057,0.0124 0.031784,0.0182 0.010208,0.006 0.020519,0.0112 0.030963,0.0166 0.01084,0.006 0.021813,0.0111 0.03288,0.0165 0.010604,0.006 0.02118,0.0103 0.031964,0.0151 0.00444,0.002 0.00878,0.005 0.013229,0.007 0.012323,0.006 0.024853,0.0104 0.037393,0.0156 0.00246,8.9e-4 0.005,0.002 0.00755,0.003 0.00274,9e-4 0.00538,0.003 0.00812,0.004 0.02017,0.008 0.040632,0.0153 0.061359,0.0223 0,0 8.78e-5,0 8.78e-5,0 0.022502,0.008 0.045438,0.0145 0.068526,0.0211 0.00746,0.002 0.015052,0.004 0.022597,0.006 0.016251,0.005 0.032559,0.008 0.049055,0.0123 0.0084,0.002 0.016808,0.004 0.025259,0.006 0.015854,0.004 0.031803,0.007 0.047856,0.009 0.00822,0.002 0.016374,0.003 0.024617,0.004 0.017299,0.003 0.034702,0.005 0.052171,0.008 0.00755,9.1e-4 0.015089,0.002 0.022691,0.003 0.018829,0.002 0.037761,0.004 0.056779,0.005 0.00623,4.7e-4 0.012417,8.9e-4 0.01864,8.9e-4 0.02541,0.002 0.050887,0.002 0.076524,0.002 H 26.525778 c 0.02564,0 0.05112,-8.9e-4 0.07652,-0.002 0.0063,-4.8e-4 0.01243,-8.9e-4 0.01865,-8.9e-4 0.019,-9e-4 0.03794,-0.003 0.05676,-0.005 0.0076,-7.1e-4 0.01513,-0.002 0.02268,-0.003 0.01749,-0.002 0.03489,-0.005 0.05218,-0.008 0.0082,-9.1e-4 0.01643,-0.003 0.02462,-0.004 0.01605,-0.003 0.03199,-0.006 0.04787,-0.009 0.0084,-0.002 0.01688,-0.004 0.02526,-0.006 0.01684,-0.004 0.03355,-0.009 0.05016,-0.0126 0.007,-0.002 0.01409,-0.004 0.02105,-0.006 0.02328,-0.007 0.04631,-0.0137 0.06899,-0.0213 0,0 8.9e-5,0 8.9e-5,0 0.02073,-0.008 0.04119,-0.0145 0.06136,-0.0223 0.0026,-9e-4 0.0049,-0.002 0.0075,-0.003 0.0035,-0.002 0.0069,-0.003 0.01048,-0.005 0.01173,-0.005 0.02354,-0.01 0.03508,-0.0145 0.0044,-0.002 0.0086,-0.005 0.01314,-0.007 0.01097,-0.005 0.02176,-0.0103 0.03252,-0.0154 0.01066,-0.006 0.0213,-0.0104 0.03178,-0.0159 0.01069,-0.006 0.02124,-0.0112 0.03169,-0.0171 0.01097,-0.007 0.0218,-0.0122 0.03251,-0.0186 0.0095,-0.006 0.01895,-0.0114 0.02829,-0.0174 0.01057,-0.007 0.02095,-0.0135 0.03123,-0.0204 0.0092,-0.007 0.01812,-0.0124 0.02701,-0.0187 0.0043,-0.003 0.0091,-0.007 0.01332,-0.009 0.0084,-0.007 0.01659,-0.0127 0.02481,-0.0191 0.0034,-0.003 0.0068,-0.006 0.01022,-0.008 0.0026,-0.002 0.0051,-0.004 0.0076,-0.006 0.0098,-0.008 0.0191,-0.0163 0.02857,-0.0246 0.0058,-0.005 0.01166,-0.01 0.01727,-0.0149 0.01077,-0.01 0.02097,-0.0199 0.03124,-0.03 0.0059,-0.006 0.01207,-0.0116 0.01781,-0.0176 0.01365,-0.0143 0.02678,-0.0288 0.03941,-0.0435 0.0011,-0.002 0.0028,-0.003 0.0042,-0.005 7.1e-5,-9e-5 1.11e-4,-1.8e-4 1.77e-4,-4.8e-4 0.01441,-0.0172 0.0282,-0.0348 0.04116,-0.0526 0.0298,-0.0411 0.05568,-0.0841 0.07707,-0.12891 0.0071,-0.0149 0.0137,-0.0299 0.01984,-0.0453 0.01226,-0.0306 0.02242,-0.0618 0.03042,-0.0936 0.01499,-0.0597 0.0223,-0.12158 0.02094,-0.18504 -4.74e-4,-0.0212 -0.002,-0.0425 -0.0042,-0.0639 l -1.603312,-17.51153 c -0.151422,-0.62942 -0.934553,-0.63891 -1.491058,-0.62936 l -9.297279,0.0128 -9.297272,-0.0128 c -0.069565,-9e-4 -0.1426486,-0.002 -0.2176192,-0.002 z"
         style="opacity:1;fill:url(#linearGradient5448);fill-opacity:1;stroke:#4e6166;stroke-width:0.19357608;stroke-miterlimit:4;stroke-dasharray:none;stroke-opacity:1" />
      <ellipse
         ry="0.53962058"
         rx="0.65538186"
         cy="291.5318"
         cx="5.4598989"
         id="path5424"
         style="opacity:1;fill:#00ff00;fill-opacity:1;stroke:#a3a4a5;stroke-width:0.24491355;stroke-linecap:round;stroke-miterlimit:4;stroke-dasharray:none;stroke-opacity:1" />
      <g
         style="fill:#ffffff;fill-opacity:1;stroke-width:1.05025458"
         transform="matrix(0.26314761,0,0,0.26319876,-6.4228442,247.20875)"
         id="g1005">
        <path
           inkscape:connector-curvature="0"
           style="opacity:1;fill:#ffffff;fill-opacity:1;stroke:none;stroke-width:7.10931396;stroke-linecap:round;stroke-linejoin:round;stroke-miterlimit:4;stroke-dasharray:none;stroke-opacity:1"
           d="m 312.4082,-274.64648 c -5.86459,2.4e-4 -9.24974,0.0258 -11.35351,0.14453 -2.10378,0.11868 -2.92644,0.33042 -3.66797,0.70312 -0.34532,0.17354 -0.76283,0.52408 -1.35156,1.19141 -0.58874,0.66733 -1.34884,1.64999 -2.38086,3.08984 -2.06405,2.87971 -5.21552,7.58434 -10.25196,15.22656 -6.76342,10.26274 -12.50487,18.65821 -12.75976,18.65821 -0.25499,0 -5.15013,-8.06874 -10.87696,-17.93164 -5.72683,-9.86287 -11.05984,-18.58697 -11.85351,-19.38672 l -1.44336,-1.45508 h -14.49609 c -6.95302,0 -10.59084,0.01 -12.6543,0.14063 -1.03173,0.0654 -1.67051,0.16132 -2.13281,0.30078 -0.46231,0.13945 -0.74798,0.32332 -1.07617,0.56445 -0.7526,0.55306 -9.18601,11.62985 -18.74219,24.61328 -4.655,6.32449 -8.15701,11.08332 -10.76367,14.71484 -2.60667,3.63153 -4.31773,6.13543 -5.39649,7.94922 -1.07876,1.81379 -1.52442,2.9373 -1.5957,3.8086 -0.0713,0.87129 0.2307,1.49088 0.64648,2.29492 0.26698,0.51626 0.65583,0.97707 1.12891,1.36719 0.47308,0.39011 1.03101,0.70948 1.63281,0.94336 0.6018,0.23387 1.2492,0.38214 1.90235,0.42968 0.65314,0.0476 1.31234,-0.007 1.93945,-0.17578 1.02244,-0.2753 2.32344,-0.8788 2.89062,-1.3418 0.56718,-0.46302 5.22123,-6.60662 10.34375,-13.65234 5.12256,-7.0458 9.56719,-12.89083 9.87696,-12.99023 0.19264,-0.0617 0.31652,0.0391 0.37304,0.3125 0.0565,0.27345 0.0458,0.71899 -0.0293,1.34961 -0.42862,3.6 -8.47255,91.09249 -8.75586,95.23632 -0.10125,1.48145 -0.125,2.6496 -0.0684,3.58204 0.0566,0.93243 0.19396,1.62909 0.41797,2.16992 0.33506,0.8089 0.88204,1.48889 1.5625,2.01953 0.68045,0.53064 1.49392,0.91255 2.36523,1.12695 0.87131,0.21441 1.79939,0.26091 2.70703,0.1211 0.90764,-0.13981 1.79455,-0.46605 2.58399,-0.99805 l 0.002,0.002 c 0.83779,-0.56459 1.45627,-0.92885 1.95703,-1.68554 0.50076,-0.7567 0.88331,-1.90578 1.25195,-4.04102 0.73729,-4.27048 1.41525,-12.48536 2.85352,-29.38867 1.44703,-17.00565 2.63331,-31.08327 2.63476,-31.28321 0.002,-0.19993 3.05715,-0.36328 6.78907,-0.36328 h 6.78515 l -0.006,2.06055 c -0.002,1.13291 -0.87303,14.60031 -1.93554,29.92773 -1.06251,15.3275 -1.9341,28.82013 -1.93555,29.98438 -9.6e-4,0.90714 0.0657,1.50492 0.33399,2.07617 0.26828,0.57125 0.73855,1.11555 1.54492,1.92188 0.82673,0.82673 1.36727,1.29884 1.95117,1.5625 0.5839,0.26366 1.21115,0.32031 2.21484,0.32031 1.37238,0 2.57333,-0.27587 3.60157,-0.82813 1.02823,-0.55226 1.88415,-1.38129 2.56835,-2.48632 0.23407,-0.378 0.4255,-0.87325 0.62696,-2.13282 0.20146,-1.25957 0.41236,-3.28341 0.68359,-6.7207 0.54246,-6.87457 1.32791,-19.40137 2.76367,-42.76367 1.69003,-27.49924 3.07756,-50.39277 3.08399,-50.875 0.005,-0.48223 0.20884,-0.75596 0.44922,-0.60742 0.24042,0.14865 3.65159,5.8855 7.58203,12.75 3.93038,6.86449 7.70348,13.0869 8.38476,13.82422 0.52977,0.57331 1.13412,1.02341 1.79297,1.35156 0.65885,0.32815 1.37292,0.53444 2.1211,0.61328 0.74817,0.0788 1.53038,0.032 2.32812,-0.14258 0.79774,-0.1746 1.61043,-0.47798 2.41797,-0.91016 0.5319,-0.28471 4.74295,-6.36019 9.35742,-13.50195 4.61448,-7.1418 8.68176,-13.305 9.03711,-13.69531 0.10461,-0.11491 0.19522,-0.19638 0.27344,-0.14258 0.0782,0.0538 0.14384,0.24308 0.19531,0.67188 0.10295,0.85758 0.15258,2.67226 0.14649,6.26757 -0.0122,7.19063 -0.24609,21.5054 -0.71094,49.54883 -0.34578,20.86122 -0.51695,32.01109 -0.50586,38.14844 0.006,3.06867 0.0563,4.88527 0.1543,6.03516 0.098,1.14988 0.24293,1.63317 0.43554,2.03906 0.4312,0.90869 1.07448,1.66374 1.8457,2.24414 0.77123,0.5804 1.67018,0.98613 2.60938,1.19922 0.9392,0.21308 1.92036,0.23427 2.85547,0.041 0.93511,-0.19325 1.82502,-0.59966 2.58398,-1.23828 0.71496,-0.60158 1.25222,-1.06352 1.65625,-1.75586 0.40404,-0.69233 0.67418,-1.61535 0.85547,-3.14062 0.36259,-3.05055 0.36842,-8.51033 0.36914,-19.34571 4.9e-4,-10.87101 0.14318,-24.83557 0.31836,-31.0332 l 0.32031,-11.26758 h 6.62891 6.63086 l 0.32031,13.89258 c 0.17613,7.64043 0.31836,21.60498 0.31836,31.0332 0,9.40704 0.0157,14.21709 0.38281,16.97266 0.18355,1.37778 0.45517,2.24212 0.85743,2.91016 0.40226,0.66803 0.93502,1.14067 1.64062,1.73437 0.75661,0.63665 1.64565,1.0411 2.58008,1.23438 0.93443,0.19327 1.91449,0.17404 2.85352,-0.0371 0.93902,-0.21115 1.83701,-0.61479 2.60742,-1.19141 0.7704,-0.57661 1.41323,-1.32539 1.84179,-2.22851 0.18906,-0.39847 0.33003,-0.8942 0.42579,-2.07227 0.0958,-1.17807 0.14642,-3.03946 0.15039,-6.16992 0.008,-6.26093 -0.16735,-17.59778 -0.51758,-38.70508 -0.41287,-24.88214 -0.6845,-47.74433 -0.60547,-50.80469 l 0.14258,-5.56445 8.9082,13.70117 c 3.32662,5.11686 5.6508,8.59358 7.2832,10.86328 1.6324,2.26971 2.57418,3.3319 3.13868,3.625 1.06032,0.55055 2.40202,0.8056 3.67968,0.77149 0.63883,-0.0171 1.26069,-0.10592 1.82422,-0.26563 0.56354,-0.15971 1.06889,-0.39138 1.4707,-0.6914 0.37842,-0.28252 1.51634,-1.94244 3.1211,-4.50977 1.60476,-2.56733 3.67574,-6.04213 5.91601,-9.94922 2.99637,-5.22584 4.94796,-8.54414 6.18555,-10.4668 0.6188,-0.96132 1.05885,-1.57353 1.36133,-1.90039 0.30248,-0.32685 0.4687,-0.36952 0.53711,-0.18945 0.19426,0.51114 1.69128,23.28653 3.32617,50.60938 1.62699,27.19132 2.37073,40.18028 3.11914,46.64648 0.37421,3.2331 0.75027,4.83636 1.23828,5.76758 0.24401,0.46561 0.51594,0.76361 0.83008,1.01367 0.31414,0.25006 0.66997,0.4521 1.08203,0.72656 0.85187,0.56739 1.80121,0.90105 2.76563,1.02539 0.96441,0.12434 1.94365,0.0388 2.85351,-0.23047 0.90987,-0.26926 1.75124,-0.72251 2.43946,-1.33593 0.68821,-0.61342 1.22396,-1.3868 1.52343,-2.29493 0.22957,-0.69617 0.27016,-2.57421 0.0371,-7.39648 -0.23305,-4.82227 -0.74102,-12.58895 -1.60742,-25.05859 -1.17468,-16.90621 -2.1376,-30.90812 -2.14062,-31.11524 -0.003,-0.20901 3.10003,-0.31626 6.89453,-0.24219 l 6.89843,0.13477 2.57227,30.77539 c 0.96106,11.49645 1.65522,19.30792 2.18359,24.41992 0.52838,5.112 0.89226,7.52425 1.19141,8.22071 0.28949,0.67398 0.66274,1.26832 1.09961,1.78125 0.43687,0.51293 0.93702,0.94449 1.47851,1.29492 0.5415,0.35043 1.12516,0.62016 1.72852,0.80664 0.60336,0.18648 1.22519,0.28946 1.84766,0.31055 0.62246,0.0211 1.24493,-0.0398 1.84375,-0.18555 0.59881,-0.14577 1.17462,-0.37539 1.70703,-0.68945 0.53241,-0.31407 1.02207,-0.71346 1.44531,-1.19727 0.42324,-0.48381 0.77946,-1.05202 1.05078,-1.70703 0.23401,-0.56498 0.16928,-3.16135 -0.43164,-10.75195 -0.60092,-7.59061 -1.73709,-20.17683 -3.64258,-40.72266 -2.55522,-27.55215 -4.58252,-50.42621 -4.5039,-50.83398 0.0786,-0.40778 4.42622,5.13909 9.66015,12.32617 5.23401,7.18707 10.0504,13.56184 10.70313,14.16797 0.5335,0.49541 1.10946,0.87934 1.70898,1.16015 0.59953,0.28082 1.2229,0.45925 1.8457,0.54492 0.62281,0.0857 1.24629,0.0783 1.84961,-0.0117 0.60333,-0.09 1.18547,-0.26354 1.72657,-0.50977 0.5411,-0.24623 1.04044,-0.56426 1.47656,-0.94727 0.43612,-0.383 0.80926,-0.82976 1.09766,-1.33007 0.28839,-0.50032 0.49193,-1.05417 0.58984,-1.65235 0.0979,-0.59818 0.0904,-1.24138 -0.0449,-1.91797 -0.1519,-0.75964 -8.09551,-12.04682 -17.65235,-25.08203 -6.57664,-8.97025 -11.03312,-14.95996 -14.01953,-18.8125 -2.98641,-3.85253 -4.50353,-5.56636 -5.20117,-5.98047 -0.45323,-0.269 -0.80797,-0.47209 -1.30078,-0.62304 -0.49281,-0.15096 -1.12297,-0.25085 -2.12305,-0.3125 -2.00016,-0.12331 -5.48291,-0.0966 -12.31836,-0.0352 -6.54336,0.0588 -10.03647,0.10382 -12.04882,0.25 -1.00618,0.0731 -1.64211,0.17293 -2.10352,0.31055 -0.46142,0.13761 -0.74799,0.31432 -1.05664,0.54492 -0.38597,0.28838 -1.75504,2.32508 -3.77149,5.57422 -2.01644,3.24914 -4.68164,7.71105 -7.66015,12.84375 -5.5654,9.59059 -10.49779,17.95068 -10.96094,18.57812 l -0.8418,1.13867 -12.35937,-18.78125 c -4.97424,-7.55924 -8.14583,-12.29682 -10.24414,-15.23632 -2.09831,-2.93951 -3.12304,-4.08016 -3.80274,-4.44141 -0.76298,-0.4056 -1.50705,-0.63088 -3.5664,-0.75391 -2.05935,-0.12302 -5.43388,-0.14291 -11.45899,-0.14257 z"
           id="path999"
           transform="matrix(0.26458333,0,0,0.26458333,0,161.53332)" />
        <path
           inkscape:connector-curvature="0"
           style="opacity:1;fill:#ffffff;fill-opacity:1;stroke:none;stroke-width:7.10931396;stroke-linecap:round;stroke-linejoin:round;stroke-miterlimit:4;stroke-dasharray:none;stroke-opacity:1"
           d="m 390.22266,-306.30664 c -1.03785,0.002 -2.05996,0.0924 -3.05078,0.26367 -0.99083,0.17129 -1.95121,0.42348 -2.8711,0.75195 -0.91989,0.32848 -1.79799,0.73324 -2.62305,1.20704 -0.82505,0.4738 -1.59642,1.01579 -2.30273,1.62304 -0.70631,0.60725 -1.34844,1.27898 -1.91211,2.00782 -0.56367,0.72883 -1.05014,1.51497 -1.44727,2.35351 -0.39712,0.83854 -0.70348,1.72964 -0.91015,2.66602 -0.20667,0.93638 -0.31238,1.91905 -0.30469,2.9414 0.0124,1.65137 0.37436,3.2921 1.02734,4.85547 0.65299,1.56337 1.59587,3.04831 2.76758,4.38477 1.17172,1.33645 2.57202,2.52547 4.14063,3.49609 1.5686,0.97062 3.30673,1.72359 5.15039,2.18945 1.39769,0.35318 3.58756,0.41364 5.75195,0.2461 2.1644,-0.16755 4.30269,-0.56308 5.59961,-1.125 1.24475,-0.53938 3.17036,-1.79869 4.27734,-2.79883 0.91936,-0.83058 1.6852,-1.74081 2.30274,-2.70703 0.61753,-0.96622 1.08646,-1.98849 1.41211,-3.04297 0.32565,-1.05448 0.50707,-2.14097 0.55078,-3.23633 0.0437,-1.09536 -0.051,-2.2002 -0.2793,-3.28906 -0.2283,-1.08886 -0.5897,-2.16228 -1.08007,-3.19727 -0.49038,-1.03499 -1.10906,-2.0311 -1.85157,-2.96484 -0.74251,-0.93374 -1.60904,-1.80474 -2.59375,-2.58984 -0.98471,-0.78511 -2.08771,-1.48513 -3.30468,-2.07422 -1.39533,-0.67542 -2.81669,-1.16609 -4.23438,-1.48828 -1.41769,-0.32219 -2.83105,-0.47455 -4.21484,-0.47266 z"
           id="path997"
           transform="matrix(0.26458333,0,0,0.26458333,0,161.53332)" />
        <path
           inkscape:connector-curvature="0"
           style="opacity:1;fill:#ffffff;fill-opacity:1;stroke:none;stroke-width:7.10931396;stroke-linecap:round;stroke-linejoin:round;stroke-miterlimit:4;stroke-dasharray:none;stroke-opacity:1"
           d="m 312.64648,-306.31836 c -1.04383,-0.0147 -2.09523,0.0598 -3.13867,0.22852 -1.04344,0.16874 -2.07821,0.43095 -3.09179,0.79296 -1.01359,0.36202 -2.00473,0.82353 -2.95899,1.38868 -0.95425,0.56514 -1.87282,1.23555 -2.73828,2.01367 -1.09066,0.98059 -1.98714,2.04019 -2.69922,3.15234 -0.71208,1.11216 -1.24016,2.27674 -1.58984,3.46289 -0.34969,1.18616 -0.52192,2.39507 -0.52539,3.59766 -0.003,1.20259 0.16173,2.39908 0.48828,3.56055 0.32655,1.16146 0.81469,2.28684 1.45508,3.34961 0.64039,1.06277 1.43304,2.06223 2.37109,2.96875 0.93805,0.90651 2.02267,1.71941 3.24219,2.41211 1.21952,0.69269 2.57378,1.26423 4.05859,1.68554 0.78071,0.22152 1.73671,0.36329 2.77539,0.43164 1.03869,0.0684 2.16022,0.0632 3.27539,-0.01 1.11517,-0.073 2.22422,-0.21356 3.23438,-0.41602 1.01016,-0.20246 1.92283,-0.46505 2.64648,-0.78516 1.8621,-0.82369 3.43741,-1.84416 4.76172,-3.09374 0.66215,-0.6248 1.26172,-1.30708 1.80273,-2.05079 0.54102,-0.7437 1.02243,-1.54901 1.45118,-2.41992 0.70153,-1.42497 1.08197,-2.28452 1.25976,-3.16992 0.1778,-0.8854 0.15415,-1.79755 0.0449,-3.32422 -0.0746,-1.04307 -0.25778,-2.03815 -0.5371,-2.98242 -0.27933,-0.94427 -0.65483,-1.83689 -1.11329,-2.67383 -0.45846,-0.83694 -1.00125,-1.61875 -1.61328,-2.33984 -0.61202,-0.7211 -1.29317,-1.38179 -2.0332,-1.97852 -1.48006,-1.19345 -3.19063,-2.13055 -5.0293,-2.77539 -1.83867,-0.64484 -3.80606,-0.99733 -5.79883,-1.02539 z"
           id="path995"
           transform="matrix(0.26458333,0,0,0.26458333,0,161.53332)" />
        <path
           inkscape:connector-curvature="0"
           style="opacity:1;fill:#ffffff;fill-opacity:1;stroke:none;stroke-width:7.10931396;stroke-linecap:round;stroke-linejoin:round;stroke-miterlimit:4;stroke-dasharray:none;stroke-opacity:1"
           d="m 234.15234,-306.36914 c -0.81842,0.0144 -1.64657,0.087 -2.48046,0.22266 -1.20031,0.19535 -2.35733,0.49452 -3.45899,0.88281 -1.10166,0.38828 -2.14796,0.8652 -3.12891,1.41992 -0.98094,0.55472 -1.89622,1.18619 -2.73437,1.88086 -0.83815,0.69467 -1.60016,1.4536 -2.27344,2.26172 -0.67328,0.80811 -1.25781,1.66547 -1.74414,2.56055 -0.48633,0.89507 -0.87308,1.82766 -1.15039,2.7832 -0.27731,0.95553 -0.44598,1.93432 -0.49219,2.92383 -0.0462,0.9895 0.0294,1.98935 0.23633,2.98632 0.22387,1.07835 0.56975,2.09676 1.02149,3.04688 0.45173,0.95012 1.00907,1.83196 1.6582,2.63867 0.64912,0.80672 1.38904,1.53741 2.20508,2.18555 0.81603,0.64813 1.70769,1.21312 2.66015,1.6875 0.95246,0.47437 1.96699,0.85909 3.02539,1.14453 1.05841,0.28544 2.16106,0.47141 3.29493,0.55273 1.13386,0.0813 2.29771,0.0579 3.47656,-0.0801 1.17885,-0.13798 2.37306,-0.38928 3.5664,-0.76172 1.86359,-0.58163 3.58126,-1.44499 5.09961,-2.51563 1.51836,-1.07064 2.83815,-2.34884 3.90235,-3.76367 1.06419,-1.41483 1.8739,-2.96591 2.375,-4.58008 0.25055,-0.80708 0.42432,-1.62922 0.51367,-2.45898 0.0893,-0.82977 0.0933,-1.66762 0.008,-2.50196 -0.0936,-0.91355 -0.28226,-1.79524 -0.55859,-2.64062 -0.27633,-0.84538 -0.63928,-1.65453 -1.07813,-2.41797 -0.43885,-0.76344 -0.95403,-1.48267 -1.53515,-2.15039 -0.58113,-0.66772 -1.22848,-1.28356 -1.93164,-1.8418 -1.40634,-1.11648 -3.0375,-1.99977 -4.81055,-2.5957 -0.88653,-0.29797 -1.80801,-0.5247 -2.75586,-0.67188 -0.94785,-0.14717 -1.92123,-0.21465 -2.91016,-0.19726 z"
           id="path993"
           transform="matrix(0.26458333,0,0,0.26458333,0,161.53332)" />
      </g>
      <g
         id="g1721"
         transform="matrix(1.0071336,0,0,1.0071336,18.125017,-1.9246458)">
        <circle
           style="opacity:0.25;fill:#000000;fill-opacity:1;stroke:none;stroke-width:0.26023942;stroke-miterlimit:4;stroke-dasharray:none;stroke-dashoffset:0;stroke-opacity:0.99507392"
           id="circle1715"
           cx="5.0741482"
           cy="287.46149"
           r="8.2950039" />
        <circle
           r="8.2950039"
           cy="286.96057"
           cx="5.0741482"
           id="circle1717"
           style="opacity:1;fill:url(#linearGradient1731);fill-opacity:1;stroke:none;stroke-width:0.26023942;stroke-miterlimit:4;stroke-dasharray:none;stroke-dashoffset:0;stroke-opacity:0.99507392" />
        <path
           id="path1719"
           d="m 0.69025747,283.80834 3.58311503,-0.48798 0.0016,3.45621 -3.58140703,0.0204 z m 3.58140903,3.36645 0.0028,3.45923 -3.58140903,-0.4924 -1.71e-4,-2.99003 z m 0.434356,-3.91827 4.750915,-0.69338 v 4.16947 l -4.750915,0.0377 z m 4.752016,3.9508 -0.0012,4.1507 -4.750911,-0.67054 -0.0067,-3.48792 z"
           inkscape:connector-curvature="0"
           style="fill:#ffffff;fill-opacity:1;stroke-width:0.10040396" />
      </g>
    </g>
  </g>
</svg>
