<?xml version="1.0" encoding="UTF-8" standalone="no"?>
<!-- Created with Inkscape (http://www.inkscape.org/) -->

<svg
   xmlns:osb="http://www.openswatchbook.org/uri/2009/osb"
   xmlns:dc="http://purl.org/dc/elements/1.1/"
   xmlns:cc="http://creativecommons.org/ns#"
   xmlns:rdf="http://www.w3.org/1999/02/22-rdf-syntax-ns#"
   xmlns:svg="http://www.w3.org/2000/svg"
   xmlns="http://www.w3.org/2000/svg"
   xmlns:xlink="http://www.w3.org/1999/xlink"
   xmlns:sodipodi="http://sodipodi.sourceforge.net/DTD/sodipodi-0.dtd"
   xmlns:inkscape="http://www.inkscape.org/namespaces/inkscape"
   width="128"
   height="128"
   viewBox="0 0 33.866666 33.866668"
   version="1.1"
   id="svg1038"
   inkscape:version="0.92.4 (5da689c313, 2019-01-14)"
   sodipodi:docname="preferences-desktop-wallpaper.svg">
  <defs
     id="defs1032">
    <linearGradient
       inkscape:collect="always"
       id="linearGradient1014">
      <stop
         style="stop-color:#7666ce;stop-opacity:1"
         offset="0"
         id="stop1000" />
      <stop
         id="stop1002"
         offset="0.17321716"
         style="stop-color:#8491d8;stop-opacity:1" />
      <stop
         style="stop-color:#8b74da;stop-opacity:1"
         offset="0.31329748"
         id="stop1004" />
      <stop
         id="stop1006"
         offset="0.5"
         style="stop-color:#c199ee;stop-opacity:1" />
      <stop
         style="stop-color:#e5b3fb;stop-opacity:1"
         offset="0.68477499"
         id="stop1008" />
      <stop
         style="stop-color:#8478d7;stop-opacity:1"
         offset="0.86264777"
         id="stop1010" />
      <stop
         style="stop-color:#6d2f93;stop-opacity:0.99215686"
         offset="1"
         id="stop1012" />
    </linearGradient>
    <linearGradient
       osb:paint="solid"
       id="linearGradient6987">
      <stop
         id="stop6985"
         offset="0"
         style="stop-color:#77d2fb;stop-opacity:1;" />
    </linearGradient>
    <linearGradient
       inkscape:collect="always"
       xlink:href="#linearGradient1014"
       id="linearGradient998"
       x1="4.7414303"
       y1="295.51337"
       x2="32.669273"
       y2="272.36636"
       gradientUnits="userSpaceOnUse"
       gradientTransform="matrix(0.99985039,0,0,0.99985039,-0.04507841,0.04428259)" />
  </defs>
  <sodipodi:namedview
     id="base"
     pagecolor="#ffffff"
     bordercolor="#666666"
     borderopacity="1.0"
     inkscape:pageopacity="0.0"
     inkscape:pageshadow="2"
     inkscape:zoom="1.707"
     inkscape:cx="41.648346"
     inkscape:cy="120.08339"
     inkscape:document-units="mm"
     inkscape:current-layer="layer1"
     showgrid="false"
     inkscape:window-width="1600"
     inkscape:window-height="838"
     inkscape:window-x="-8"
     inkscape:window-y="-8"
     inkscape:window-maximized="1"
     units="px" />
  <metadata
     id="metadata1035">
    <rdf:RDF>
      <cc:Work
         rdf:about="">
        <dc:format>image/svg+xml</dc:format>
        <dc:type
           rdf:resource="http://purl.org/dc/dcmitype/StillImage" />
        <dc:title />
      </cc:Work>
    </rdf:RDF>
  </metadata>
  <g
     inkscape:label="Layer 1"
     inkscape:groupmode="layer"
     id="layer1"
     transform="translate(0,-263.13332)">
    <g
       style="stroke-width:4.08449793"
       inkscape:transform-center-y="-9.4924686"
       inkscape:transform-center-x="5.4653607"
       inkscape:label="Capa 1"
       id="layer1-4-9"
       transform="matrix(0.51049882,0,0,0.51168433,-222.93983,0.2078319)">
      <g
         style="stroke-width:4.08449793"
         id="layer1-3-65-0"
         inkscape:label="Capa 1"
         transform="translate(0.41988239,0.03484499)" />
    </g>
    <g
       style="stroke-width:4.08449793"
       inkscape:transform-center-y="-9.4924686"
       inkscape:transform-center-x="5.4653607"
       inkscape:label="Capa 1"
       id="layer1-4"
       transform="matrix(0.51049882,0,0,0.51168433,-222.93983,0.23164141)">
      <g
         style="stroke-width:4.08449793"
         id="layer1-3-65"
         inkscape:label="Capa 1"
         transform="translate(0.41988239,0.03484499)" />
    </g>
    <rect
       ry="1.429306"
       y="272.3699"
       x="4.6956425"
       height="23.571756"
       width="27.923666"
       id="rect1411"
       style="opacity:0.25;fill:#000000;fill-opacity:1;stroke:none;stroke-width:0.04761189;stroke-linecap:round;stroke-linejoin:round;stroke-miterlimit:4;stroke-dasharray:none;stroke-opacity:1" />
    <rect
       style="opacity:1;fill:url(#linearGradient998);fill-opacity:1;stroke:#652880;stroke-width:0.19997008;stroke-linecap:round;stroke-linejoin:round;stroke-miterlimit:4;stroke-dasharray:none;stroke-opacity:1"
       id="rect1367"
       width="27.923666"
       height="23.571756"
       x="4.6956425"
       y="271.94168"
       ry="1.429306" />
    <rect
       style="opacity:0.25;fill:#000000;fill-opacity:1;stroke:#528bba;stroke-width:0.04761189;stroke-linecap:round;stroke-linejoin:round;stroke-miterlimit:4;stroke-dasharray:none;stroke-opacity:1"
       id="rect1433"
       width="27.923666"
       height="23.571756"
       x="1.2473575"
       y="264.72131"
       ry="1.429306" />
    <rect
       ry="1.429306"
       y="264.29163"
       x="1.2473575"
       height="23.571756"
       width="27.923666"
       id="rect849"
       style="opacity:1;fill:#4ab5ff;fill-opacity:1;stroke:#4778a1;stroke-width:0.19997008;stroke-linecap:round;stroke-linejoin:round;stroke-miterlimit:4;stroke-dasharray:none;stroke-opacity:1" />
    <path
       id="path1365"
       d="m 2.7690816,264.72 c -0.7863281,0 -1.4194124,0.63753 -1.4194124,1.42936 v 3.59762 H 29.079014 v -3.59762 c 0,-0.79183 -0.633091,-1.42936 -1.419408,-1.42936 z"
       style="opacity:0.25;fill:#000000;fill-opacity:1;stroke:none;stroke-width:0.23545805;stroke-linecap:round;stroke-linejoin:round;stroke-miterlimit:4;stroke-dasharray:none;stroke-opacity:1"
       inkscape:connector-curvature="0" />
    <path
       inkscape:connector-curvature="0"
       style="opacity:1;fill:#d4efff;fill-opacity:1;stroke:none;stroke-width:0.23317245;stroke-linecap:round;stroke-linejoin:round;stroke-miterlimit:4;stroke-dasharray:none;stroke-opacity:1"
       d="m 2.7623166,264.38936 c -0.7863663,0 -1.4194964,0.62516 -1.4194964,1.40163 v 3.52787 H 29.074171 v -3.52787 c 0,-0.77647 -0.633136,-1.40163 -1.419511,-1.40163 z"
       id="rect1356" />
    <path
       inkscape:connector-curvature="0"
       id="path855"
       d="m 25.744797,265.23088 a 1.1226651,1.1226612 0 0 0 -1.12259,1.12268 1.1226651,1.1226612 0 0 0 1.12259,1.12268 1.1226651,1.1226612 0 0 0 0.613082,-0.18321 l 0.804985,0.77893 c 0.07433,0.0719 0.17674,0.0895 0.229566,0.0395 l 0.07727,-0.0734 c 0.05281,-0.0502 0.0355,-0.14822 -0.03878,-0.22025 l -0.800639,-0.77456 a 1.1226651,1.1226612 0 0 0 0.237224,-0.68953 1.1226651,1.1226612 0 0 0 -1.122702,-1.12271 z m -0.01366,0.37386 a 0.76230338,0.76230074 0 0 1 0.07613,0.004 0.76230338,0.76230074 0 0 1 0.07533,0.0112 0.76230338,0.76230074 0 0 1 0.07387,0.0187 0.76230338,0.76230074 0 0 1 0.07158,0.0262 0.76230338,0.76230074 0 0 1 0.06859,0.0329 0.76230338,0.76230074 0 0 1 0.06498,0.0399 0.76230338,0.76230074 0 0 1 0.06063,0.0462 0.76230338,0.76230074 0 0 1 0.05575,0.052 0.76230338,0.76230074 0 0 1 0.05029,0.0573 0.76230338,0.76230074 0 0 1 0.04439,0.0621 0.76230338,0.76230074 0 0 1 0.03782,0.0659 0.76230338,0.76230074 0 0 1 0.03112,0.0696 0.76230338,0.76230074 0 0 1 0.02399,0.0724 0.76230338,0.76230074 0 0 1 0.01684,0.0743 0.76230338,0.76230074 0 0 1 0.009,0.0756 0.76230338,0.76230074 0 0 1 0.0018,0.0539 0.76230338,0.76230074 0 0 1 -0.0039,0.076 0.76230338,0.76230074 0 0 1 -0.01142,0.0754 0.76230338,0.76230074 0 0 1 -0.0189,0.0739 0.76230338,0.76230074 0 0 1 -0.02616,0.0717 0.76230338,0.76230074 0 0 1 -0.03311,0.0685 0.76230338,0.76230074 0 0 1 -0.03982,0.0649 0.76230338,0.76230074 0 0 1 -0.04609,0.0608 0.76230338,0.76230074 0 0 1 -0.05193,0.0556 0.76230338,0.76230074 0 0 1 -0.05721,0.0505 0.76230338,0.76230074 0 0 1 -0.06198,0.0444 0.76230338,0.76230074 0 0 1 -0.0661,0.038 0.76230338,0.76230074 0 0 1 -0.06962,0.0309 0.76230338,0.76230074 0 0 1 -0.07231,0.0241 0.76230338,0.76230074 0 0 1 -0.07428,0.0169 0.76230338,0.76230074 0 0 1 -0.07562,0.009 0.76230338,0.76230074 0 0 1 -0.05401,0.002 0.76230338,0.76230074 0 0 1 -0.07604,-0.004 0.76230338,0.76230074 0 0 1 -0.07531,-0.0112 0.76230338,0.76230074 0 0 1 -0.07387,-0.0189 0.76230338,0.76230074 0 0 1 -0.07158,-0.0262 0.76230338,0.76230074 0 0 1 -0.06859,-0.0331 0.76230338,0.76230074 0 0 1 -0.06498,-0.0399 0.76230338,0.76230074 0 0 1 -0.06064,-0.046 0.76230338,0.76230074 0 0 1 -0.05577,-0.052 0.76230338,0.76230074 0 0 1 -0.05029,-0.0573 0.76230338,0.76230074 0 0 1 -0.04441,-0.0621 0.76230338,0.76230074 0 0 1 -0.03782,-0.0661 0.76230338,0.76230074 0 0 1 -0.03112,-0.0696 0.76230338,0.76230074 0 0 1 -0.02394,-0.0724 0.76230338,0.76230074 0 0 1 -0.01684,-0.0745 0.76230338,0.76230074 0 0 1 -0.0092,-0.0758 0.76230338,0.76230074 0 0 1 -0.0018,-0.0539 0.76230338,0.76230074 0 0 1 0.0039,-0.076 0.76230338,0.76230074 0 0 1 0.01142,-0.0754 0.76230338,0.76230074 0 0 1 0.01884,-0.0739 0.76230338,0.76230074 0 0 1 0.0262,-0.0717 0.76230338,0.76230074 0 0 1 0.03307,-0.0685 0.76230338,0.76230074 0 0 1 0.03977,-0.0649 0.76230338,0.76230074 0 0 1 0.04609,-0.0606 0.76230338,0.76230074 0 0 1 0.05193,-0.0558 0.76230338,0.76230074 0 0 1 0.05721,-0.0503 0.76230338,0.76230074 0 0 1 0.06198,-0.0444 0.76230338,0.76230074 0 0 1 0.0661,-0.0378 0.76230338,0.76230074 0 0 1 0.06951,-0.0311 0.76230338,0.76230074 0 0 1 0.07233,-0.024 0.76230338,0.76230074 0 0 1 0.07439,-0.0168 0.76230338,0.76230074 0 0 1 0.07562,-0.009 0.76230338,0.76230074 0 0 1 0.05392,-0.002 z"
       style="opacity:1;fill:#436489;fill-opacity:1;stroke:none;stroke-width:0.03969263" />
    <g
       style="fill:#436489;fill-opacity:1"
       transform="matrix(2.8599015,0,0,2.8599015,-41.217673,-555.62392)"
       id="g923">
      <ellipse
         style="opacity:1;fill:#436489;fill-opacity:1;stroke:none;stroke-width:0.06298318;stroke-linecap:round;stroke-linejoin:round;stroke-miterlimit:4;stroke-dasharray:none;stroke-dashoffset:0;stroke-opacity:1"
         id="ellipse915"
         cx="15.689569"
         cy="287.66992"
         rx="0.4290438"
         ry="0.39448151" />
      <g
         style="fill:#436489;fill-opacity:1"
         id="g921"
         transform="translate(-0.00540611)">
        <ellipse
           transform="matrix(0.62539853,0.7803055,-0.7781905,0.6280283,0,0)"
           ry="0.050316583"
           rx="0.087078884"
           cy="167.45068"
           cx="233.25362"
           id="ellipse917"
           style="opacity:1;fill:#436489;fill-opacity:1;stroke:none;stroke-width:0.00304384;stroke-linecap:round;stroke-linejoin:round;stroke-miterlimit:4;stroke-dasharray:none;stroke-dashoffset:0;stroke-opacity:1" />
        <ellipse
           style="opacity:1;fill:#436489;fill-opacity:1;stroke:none;stroke-width:0.09166089;stroke-linecap:round;stroke-linejoin:round;stroke-miterlimit:4;stroke-dasharray:none;stroke-dashoffset:0;stroke-opacity:1"
           id="ellipse919"
           cx="-185.76843"
           cy="199.87959"
           rx="0.15848064"
           ry="0.075508773"
           transform="matrix(0.65013983,-0.75981458,0.68315788,0.73027071,0,0)" />
      </g>
    </g>
    <g
       style="stroke-width:4.08449793"
       inkscape:transform-center-y="-9.4924686"
       inkscape:transform-center-x="5.4653607"
       inkscape:label="Capa 1"
       id="layer1-4-9-8"
       transform="matrix(0.51049882,0,0,0.51168433,-343.0601,-6.5877825)">
      <g
         style="stroke-width:4.08449793"
         id="layer1-3-65-0-6"
         inkscape:label="Capa 1"
         transform="translate(0.41988239,0.03484499)" />
    </g>
    <g
       style="stroke-width:4.08449793"
       inkscape:transform-center-y="-9.4924686"
       inkscape:transform-center-x="5.4653607"
       inkscape:label="Capa 1"
       id="layer1-4-5"
       transform="matrix(0.51049882,0,0,0.51168433,-343.0601,-6.563973)">
      <g
         style="stroke-width:4.08449793"
         id="layer1-3-65-7"
         inkscape:label="Capa 1"
         transform="translate(0.41988239,0.03484499)" />
    </g>
  </g>
</svg>
