<?xml version="1.0" encoding="UTF-8" standalone="no"?>
<svg
   xmlns:osb="http://www.openswatchbook.org/uri/2009/osb"
   xmlns:dc="http://purl.org/dc/elements/1.1/"
   xmlns:cc="http://creativecommons.org/ns#"
   xmlns:rdf="http://www.w3.org/1999/02/22-rdf-syntax-ns#"
   xmlns:svg="http://www.w3.org/2000/svg"
   xmlns="http://www.w3.org/2000/svg"
   xmlns:xlink="http://www.w3.org/1999/xlink"
   xmlns:sodipodi="http://sodipodi.sourceforge.net/DTD/sodipodi-0.dtd"
   xmlns:inkscape="http://www.inkscape.org/namespaces/inkscape"
   width="128"
   height="128"
   viewBox="0 0 128 128"
   version="1.1"
   id="svg340"
   sodipodi:docname="preferences-system-network-server-iscsi.svg"
   inkscape:version="0.92.4 (5da689c313, 2019-01-14)">
  <metadata
     id="metadata344">
    <rdf:RDF>
      <cc:Work
         rdf:about="">
        <dc:format>image/svg+xml</dc:format>
        <dc:type
           rdf:resource="http://purl.org/dc/dcmitype/StillImage" />
        <dc:title></dc:title>
      </cc:Work>
    </rdf:RDF>
  </metadata>
  <sodipodi:namedview
     pagecolor="#ffffff"
     bordercolor="#666666"
     borderopacity="1"
     objecttolerance="10"
     gridtolerance="10"
     guidetolerance="10"
     inkscape:pageopacity="0"
     inkscape:pageshadow="2"
     inkscape:window-width="1600"
     inkscape:window-height="838"
     id="namedview342"
     showgrid="false"
     inkscape:zoom="1.3037281"
     inkscape:cx="-100.43008"
     inkscape:cy="46.562909"
     inkscape:window-x="-8"
     inkscape:window-y="-8"
     inkscape:window-maximized="1"
     inkscape:current-layer="svg340" />
  <defs
     id="defs205">
    <linearGradient
       inkscape:collect="always"
       id="linearGradient891">
      <stop
         style="stop-color:#6e8fbc;stop-opacity:1"
         offset="0"
         id="stop887" />
      <stop
         style="stop-color:#375579;stop-opacity:1"
         offset="1"
         id="stop889" />
    </linearGradient>
    <linearGradient
       id="linearGradient5420"
       inkscape:collect="always">
      <stop
         id="stop5416"
         offset="0"
         style="stop-color:#d5e3e8;stop-opacity:1" />
      <stop
         id="stop5418"
         offset="1"
         style="stop-color:#a0a0a1;stop-opacity:1" />
    </linearGradient>
    <linearGradient
       id="linearGradient5408"
       inkscape:collect="always">
      <stop
         id="stop5404"
         offset="0"
         style="stop-color:#dfe5e8;stop-opacity:1" />
      <stop
         id="stop5406"
         offset="1"
         style="stop-color:#c3cacc;stop-opacity:1" />
    </linearGradient>
    <linearGradient
       osb:paint="solid"
       id="linearGradient6987">
      <stop
         id="stop6985"
         offset="0"
         style="stop-color:#77d2fb;stop-opacity:1;" />
    </linearGradient>
    <radialGradient
       gradientUnits="userSpaceOnUse"
       gradientTransform="matrix(0.64456521,0,0,0.16069497,-506.50868,2.5181782)"
       r="74.884071"
       fy="372.05499"
       fx="502.62054"
       cy="372.05499"
       cx="502.62054"
       id="radialGradient5414"
       xlink:href="#linearGradient5408"
       inkscape:collect="always" />
    <linearGradient
       gradientTransform="matrix(0.68391814,0,0,0.68405107,-526.28828,-185.12569)"
       gradientUnits="userSpaceOnUse"
       y2="349.10312"
       x2="504.37988"
       y1="216.14406"
       x1="496.5524"
       id="linearGradient5422"
       xlink:href="#linearGradient5420"
       inkscape:collect="always" />
    <linearGradient
       y2="324.15189"
       x2="502.79834"
       y1="216.4304"
       x1="501.82697"
       gradientTransform="matrix(0.67184429,0,0,0.67197487,-521.04682,-182.51536)"
       gradientUnits="userSpaceOnUse"
       id="linearGradient5448"
       xlink:href="#linearGradient891"
       inkscape:collect="always" />
    <linearGradient
       inkscape:collect="always"
       id="linearGradient980">
      <stop
         style="stop-color:#1f2429;stop-opacity:1"
         offset="0"
         id="stop976" />
      <stop
         style="stop-color:#2e3438;stop-opacity:1"
         offset="1"
         id="stop978" />
    </linearGradient>
    <linearGradient
       y2="280.87619"
       x2="-13.410793"
       y1="295.29562"
       x1="-13.785129"
       gradientTransform="matrix(3.6032292,0,0,3.6032292,-106.08989,-989.08955)"
       gradientUnits="userSpaceOnUse"
       id="linearGradient1731"
       xlink:href="#linearGradient980"
       inkscape:collect="always" />
  </defs>
  <g
     transform="matrix(0.20209784,0,0,0.18780609,-243.81509,-45.0274)"
     id="g1485" />
  <g
     transform="matrix(0.20209784,0,0,0.18780609,-243.81509,-45.0274)"
     id="g1487" />
  <g
     transform="matrix(0.20209784,0,0,0.18780609,-243.81509,-45.0274)"
     id="g1489" />
  <g
     transform="matrix(0.20209784,0,0,0.18780609,-243.81509,-45.0274)"
     id="g1491" />
  <g
     transform="matrix(0.20209784,0,0,0.18780609,-243.81509,-45.0274)"
     id="g1493" />
  <g
     transform="matrix(0.20209784,0,0,0.18780609,-243.81509,-45.0274)"
     id="g1495" />
  <g
     transform="matrix(0.20209784,0,0,0.18780609,-243.81509,-45.0274)"
     id="g1497" />
  <g
     transform="matrix(0.20209784,0,0,0.18780609,-243.81509,-45.0274)"
     id="g1499" />
  <g
     transform="matrix(0.20209784,0,0,0.18780609,-243.81509,-45.0274)"
     id="g1501" />
  <g
     transform="matrix(0.20209784,0,0,0.18780609,-243.81509,-45.0274)"
     id="g1503" />
  <g
     transform="matrix(0.20209784,0,0,0.18780609,-243.81509,-45.0274)"
     id="g1505" />
  <g
     transform="matrix(0.20209784,0,0,0.18780609,-243.81509,-45.0274)"
     id="g1507" />
  <g
     transform="matrix(0.20209784,0,0,0.18780609,-243.81509,-45.0274)"
     id="g1509" />
  <g
     transform="matrix(0.20209784,0,0,0.18780609,-243.81509,-45.0274)"
     id="g1511" />
  <g
     transform="matrix(0.20209784,0,0,0.18780609,-243.81509,-45.0274)"
     id="g1513" />
  <g
     id="g1438"
     transform="translate(241.44405,42.935578)">
    <path
       inkscape:connector-curvature="0"
       id="path869"
       d="m -221.0144,-37.091158 c -1.03149,-0.0019 -1.9231,0.169701 -2.648,0.529663 -1.17938,0.437367 -1.67915,1.257298 -2.01932,2.592643 l -8.13674,86.24247 c -0.0399,0.423421 -0.0143,0.834671 0.0684,1.226948 0.002,0.01134 0.007,0.02268 0.009,0.03402 -0.0143,0.80039 0.0228,1.66148 0.0811,2.531339 0.07,3.76577 0.27041,8.137096 0.60525,12.057071 0.18348,3.257726 2.18248,5.891565 4.8943,5.891565 h 0.29001 6.89019 76.59562 0.29001 6.8902 0.29004 c 2.71181,0 4.71261,-2.633839 4.89609,-5.891565 0.33483,-3.919975 0.53523,-8.291301 0.60526,-12.057071 0.058,-0.867856 0.0952,-1.727093 0.081,-2.525972 0.003,-0.01134 0.006,-0.02646 0.009,-0.0378 0.0827,-0.392315 0.10843,-0.803528 0.0684,-1.226986 l -8.13855,-86.243945 c -0.3402,-1.335344 -0.83996,-2.155275 -2.01933,-2.592642 -0.72491,-0.360189 -1.61653,-0.531515 -2.648,-0.529701 l -38.47704,0.06312 z"
       style="opacity:0.25;fill:#000000;fill-opacity:1;stroke:none;stroke-width:0.73227584;stroke-miterlimit:4;stroke-dasharray:none;stroke-opacity:1" />
    <path
       inkscape:connector-curvature="0"
       id="rect5373"
       d="m -232.10653,48.100188 c -1.78962,0.310299 -1.7481,3.215433 -1.5541,6.118035 0.07,3.76577 0.27063,8.135698 0.60547,12.05571 0.18348,3.257726 2.18316,5.893229 4.89498,5.893229 h 0.29022 6.89049 76.59473 0.29023 6.89052 0.29023 c 2.71181,0 4.71151,-2.635503 4.89499,-5.893229 0.33483,-3.920012 0.53543,-8.28994 0.60546,-12.05571 0.194,-2.902602 0.23554,-5.807925 -1.55409,-6.118035 h -7.18039 -38.79893 -7.18045 -38.79894 z"
       style="opacity:1;fill:url(#radialGradient5414);fill-opacity:1;stroke:#808080;stroke-width:0.73162615;stroke-miterlimit:4;stroke-dasharray:none;stroke-opacity:1" />
    <path
       style="opacity:1;fill:#f3fdff;fill-opacity:1;stroke:none;stroke-width:3.37765121;stroke-miterlimit:4;stroke-dasharray:none;stroke-opacity:1"
       d="m -221.01357,-37.849633 c -1.03149,-0.0017 -1.92366,0.169323 -2.64856,0.529209 -1.17938,0.437367 -1.67894,1.257222 -2.01912,2.592567 l -8.13795,86.242395 c -0.0399,0.423458 -0.0139,0.834368 0.0689,1.226645 0.0332,0.156851 0.0752,0.310678 0.1258,0.461254 0.0253,0.07521 0.0529,0.149669 0.0823,0.22337 0.0885,0.220347 0.19547,0.432643 0.31877,0.635263 0.20554,0.33789 0.45648,0.648832 0.74395,0.926816 0.0575,0.05518 0.11639,0.109984 0.17674,0.16252 0.30167,0.264944 0.63802,0.494664 0.99948,0.683981 0.0723,0.03817 0.14525,0.07408 0.21948,0.10885 0.66805,0.310677 1.41187,0.485027 2.17745,0.485027 h 92.73858 c 1.78609,0 3.45386,-0.94904 4.31709,-2.367421 0.12332,-0.202204 0.23029,-0.414803 0.31876,-0.635187 0.0291,-0.0737 0.057,-0.14778 0.0823,-0.22337 0.0507,-0.150425 0.0927,-0.304252 0.12582,-0.461292 0.0827,-0.392239 0.10889,-0.803149 0.0689,-1.226607 l -8.13796,-86.242433 c -0.34019,-1.335383 -0.83973,-2.1552 -2.01911,-2.592567 -0.7249,-0.360189 -1.61743,-0.531023 -2.6489,-0.529171 l -38.47628,0.0635 z"
       id="path5490"
       inkscape:connector-curvature="0" />
    <path
       inkscape:connector-curvature="0"
       id="rect5346"
       d="m -221.01357,-38.935529 c -1.03149,-0.0018 -1.92366,0.169322 -2.64856,0.529171 -1.17938,0.437329 -1.67894,1.257185 -2.01912,2.592529 l -8.13795,86.242433 c -0.0399,0.42342 -0.0139,0.834368 0.0689,1.226646 0.0332,0.157228 0.0752,0.311055 0.1258,0.461291 0.0253,0.07521 0.0529,0.149669 0.0823,0.22337 0.0885,0.220346 0.19547,0.432643 0.31877,0.635263 0.20554,0.33789 0.45648,0.648832 0.74395,0.926816 0.0575,0.05518 0.11639,0.109984 0.17674,0.162519 0.30167,0.264945 0.63802,0.494703 0.99948,0.684019 0.0723,0.0378 0.14525,0.07408 0.21948,0.108851 0.66805,0.310677 1.41187,0.485064 2.17745,0.485064 h 92.73858 c 1.78609,0 3.45386,-0.949001 4.31709,-2.367382 0.12332,-0.202583 0.23029,-0.414879 0.31876,-0.635263 0.0291,-0.0737 0.057,-0.14778 0.0823,-0.222992 0.0507,-0.150804 0.0927,-0.30463 0.12582,-0.461292 0.0827,-0.392277 0.10889,-0.803225 0.0689,-1.226683 l -8.13796,-86.242433 c -0.34019,-1.335345 -0.83973,-2.155162 -2.01911,-2.592491 -0.7249,-0.360189 -1.61743,-0.530986 -2.6489,-0.52921 l -38.47628,0.06312 z"
       style="opacity:1;fill:url(#linearGradient5422);fill-opacity:1;stroke:#808080;stroke-width:0.73227584;stroke-miterlimit:4;stroke-dasharray:none;stroke-opacity:1" />
    <path
       inkscape:connector-curvature="0"
       id="path5365"
       d="m -218.49899,-37.261766 c -1.98338,0.01512 -4.31225,0.303119 -4.81301,2.38458 l -6.05943,66.183913 c -0.0365,0.324661 -0.0128,0.6401 0.0628,0.941064 0.0303,0.120189 0.0686,0.238488 0.11492,0.354142 0.0232,0.05783 0.0484,0.11452 0.0753,0.171212 0.0808,0.169323 0.17831,0.331843 0.29094,0.487219 0.0482,0.0669 0.0995,0.131906 0.15311,0.19578 0.0161,0.02268 0.0339,0.03779 0.0507,0.05631 0.0382,0.04346 0.0764,0.08693 0.11699,0.12926 0.0218,0.02268 0.0449,0.04422 0.0674,0.06652 0.0388,0.03855 0.0773,0.07635 0.11806,0.113764 0.0214,0.02268 0.0436,0.0378 0.0653,0.05632 0.0358,0.03024 0.0708,0.06274 0.10796,0.09298 0.009,0.0076 0.0196,0.01512 0.0292,0.02268 0.0125,0.01134 0.0257,0.02268 0.0386,0.03401 0.0311,0.02646 0.0618,0.04876 0.0938,0.07219 0.0164,0.01134 0.0339,0.02646 0.0503,0.03402 0.0336,0.02646 0.0676,0.04724 0.10207,0.07068 0.0384,0.02646 0.0772,0.05178 0.11666,0.07635 0.0366,0.02646 0.0739,0.04573 0.11146,0.06765 0.0396,0.02646 0.0796,0.04687 0.12013,0.06879 0.0386,0.02268 0.0776,0.04233 0.11703,0.06274 0.041,0.02268 0.0824,0.04195 0.12427,0.06236 0.0401,0.02268 0.08,0.03893 0.12081,0.05707 0.0168,0.0076 0.0332,0.0189 0.05,0.02646 0.0466,0.02268 0.0939,0.03931 0.14132,0.05896 0.009,0.0034 0.0189,0.0076 0.0285,0.01134 0.0103,0.0034 0.0203,0.01134 0.0307,0.01512 0.0762,0.03024 0.15357,0.05783 0.23191,0.08428 0,0 3.3e-4,0 3.3e-4,0 0.085,0.03024 0.17173,0.0548 0.25899,0.07975 0.0282,0.0076 0.0569,0.01512 0.0854,0.02268 0.0614,0.0189 0.12306,0.03024 0.1854,0.04649 0.0318,0.0076 0.0635,0.01512 0.0955,0.02268 0.0599,0.01512 0.1202,0.02646 0.18087,0.03402 0.0311,0.0076 0.0619,0.01134 0.0931,0.01512 0.0654,0.01134 0.13115,0.0189 0.19718,0.03024 0.0285,0.0034 0.057,0.0076 0.0858,0.01134 0.0712,0.0076 0.14272,0.01512 0.2146,0.0189 0.0235,0.0018 0.0469,0.0034 0.0704,0.0034 0.096,0.0076 0.19233,0.0076 0.28922,0.0076 h 84.69514 c 0.0969,0 0.19321,-0.0034 0.28921,-0.0076 0.0238,-0.0018 0.047,-0.0034 0.0705,-0.0034 0.0718,-0.0034 0.14339,-0.01134 0.21452,-0.0189 0.0287,-0.0027 0.0572,-0.0076 0.0857,-0.01134 0.0661,-0.0076 0.13187,-0.0189 0.19722,-0.03024 0.031,-0.0034 0.0621,-0.01134 0.093,-0.01512 0.0607,-0.01134 0.12091,-0.02268 0.18093,-0.03402 0.0317,-0.0076 0.0638,-0.01512 0.0955,-0.02268 0.0636,-0.01512 0.1268,-0.03402 0.18958,-0.04762 0.0265,-0.0076 0.0533,-0.01512 0.0796,-0.02268 0.088,-0.02646 0.17503,-0.05178 0.26075,-0.0805 0,0 3.3e-4,0 3.3e-4,0 0.0784,-0.03024 0.15568,-0.0548 0.23192,-0.08428 0.01,-0.0034 0.0185,-0.0076 0.0283,-0.01134 0.0132,-0.0076 0.0261,-0.01134 0.0396,-0.0189 0.0443,-0.0189 0.089,-0.0378 0.13259,-0.0548 0.0166,-0.0076 0.0325,-0.0189 0.0497,-0.02646 0.0415,-0.0189 0.0822,-0.03893 0.12291,-0.05821 0.0403,-0.02268 0.0805,-0.03931 0.12011,-0.06009 0.0404,-0.02268 0.0803,-0.04233 0.11978,-0.06463 0.0415,-0.02646 0.0824,-0.04611 0.12287,-0.0703 0.0359,-0.02268 0.0716,-0.04309 0.10692,-0.06576 0.04,-0.02646 0.0792,-0.05102 0.11804,-0.0771 0.0348,-0.02646 0.0685,-0.04687 0.10208,-0.07068 0.0163,-0.01134 0.0344,-0.02646 0.0504,-0.03402 0.0317,-0.02646 0.0627,-0.048 0.0938,-0.07219 0.0128,-0.01134 0.0257,-0.02268 0.0386,-0.03024 0.01,-0.0076 0.0193,-0.01512 0.0287,-0.02268 0.037,-0.03024 0.0722,-0.06161 0.10798,-0.09298 0.0219,-0.0189 0.0441,-0.0378 0.0653,-0.05632 0.0407,-0.03779 0.0793,-0.07521 0.11807,-0.113386 0.0223,-0.02268 0.0456,-0.04384 0.0673,-0.06652 0.0516,-0.05405 0.10121,-0.108851 0.14895,-0.16441 0.004,-0.0076 0.0106,-0.01134 0.0159,-0.0189 2.7e-4,-3.4e-4 4.2e-4,-6.8e-4 6.7e-4,-0.0018 0.0545,-0.06501 0.10658,-0.131527 0.15557,-0.198803 0.11263,-0.155338 0.21044,-0.317858 0.29128,-0.487219 0.0268,-0.05631 0.0518,-0.113008 0.075,-0.171212 0.0463,-0.115654 0.0847,-0.233575 0.11497,-0.353764 0.0567,-0.225638 0.0843,-0.459515 0.0791,-0.699364 -0.002,-0.08013 -0.008,-0.16063 -0.0159,-0.241512 l -6.05976,-66.185311 c -0.5723,-2.37891 -3.53217,-2.414778 -5.63549,-2.378683 l -35.13933,0.04838 -35.13929,-0.04838 c -0.26293,-0.0034 -0.53915,-0.0076 -0.8225,-0.0076 z"
       style="opacity:1;fill:url(#linearGradient5448);fill-opacity:1;stroke:#4e6166;stroke-width:0.73162615;stroke-miterlimit:4;stroke-dasharray:none;stroke-opacity:1" />
    <ellipse
       ry="2.039511"
       rx="2.4770339"
       cy="64.397285"
       cx="-219.80823"
       id="path5424"
       style="opacity:1;fill:#00ff00;fill-opacity:1;stroke:#a3a4a5;stroke-width:0.92565751;stroke-linecap:round;stroke-miterlimit:4;stroke-dasharray:none;stroke-opacity:1" />
    <g
       style="fill:#ffffff;fill-opacity:1;stroke-width:1.05025458"
       transform="matrix(0.99457365,0,0,0.99476698,-264.71938,-103.12291)"
       id="g1005">
      <path
         inkscape:connector-curvature="0"
         style="opacity:1;fill:#ffffff;fill-opacity:1;stroke:none;stroke-width:7.10931396;stroke-linecap:round;stroke-linejoin:round;stroke-miterlimit:4;stroke-dasharray:none;stroke-opacity:1"
         d="m 312.4082,-274.64648 c -5.86459,2.4e-4 -9.24974,0.0258 -11.35351,0.14453 -2.10378,0.11868 -2.92644,0.33042 -3.66797,0.70312 -0.34532,0.17354 -0.76283,0.52408 -1.35156,1.19141 -0.58874,0.66733 -1.34884,1.64999 -2.38086,3.08984 -2.06405,2.87971 -5.21552,7.58434 -10.25196,15.22656 -6.76342,10.26274 -12.50487,18.65821 -12.75976,18.65821 -0.25499,0 -5.15013,-8.06874 -10.87696,-17.93164 -5.72683,-9.86287 -11.05984,-18.58697 -11.85351,-19.38672 l -1.44336,-1.45508 h -14.49609 c -6.95302,0 -10.59084,0.01 -12.6543,0.14063 -1.03173,0.0654 -1.67051,0.16132 -2.13281,0.30078 -0.46231,0.13945 -0.74798,0.32332 -1.07617,0.56445 -0.7526,0.55306 -9.18601,11.62985 -18.74219,24.61328 -4.655,6.32449 -8.15701,11.08332 -10.76367,14.71484 -2.60667,3.63153 -4.31773,6.13543 -5.39649,7.94922 -1.07876,1.81379 -1.52442,2.9373 -1.5957,3.8086 -0.0713,0.87129 0.2307,1.49088 0.64648,2.29492 0.26698,0.51626 0.65583,0.97707 1.12891,1.36719 0.47308,0.39011 1.03101,0.70948 1.63281,0.94336 0.6018,0.23387 1.2492,0.38214 1.90235,0.42968 0.65314,0.0476 1.31234,-0.007 1.93945,-0.17578 1.02244,-0.2753 2.32344,-0.8788 2.89062,-1.3418 0.56718,-0.46302 5.22123,-6.60662 10.34375,-13.65234 5.12256,-7.0458 9.56719,-12.89083 9.87696,-12.99023 0.19264,-0.0617 0.31652,0.0391 0.37304,0.3125 0.0565,0.27345 0.0458,0.71899 -0.0293,1.34961 -0.42862,3.6 -8.47255,91.09249 -8.75586,95.23632 -0.10125,1.48145 -0.125,2.6496 -0.0684,3.58204 0.0566,0.93243 0.19396,1.62909 0.41797,2.16992 0.33506,0.8089 0.88204,1.48889 1.5625,2.01953 0.68045,0.53064 1.49392,0.91255 2.36523,1.12695 0.87131,0.21441 1.79939,0.26091 2.70703,0.1211 0.90764,-0.13981 1.79455,-0.46605 2.58399,-0.99805 l 0.002,0.002 c 0.83779,-0.56459 1.45627,-0.92885 1.95703,-1.68554 0.50076,-0.7567 0.88331,-1.90578 1.25195,-4.04102 0.73729,-4.27048 1.41525,-12.48536 2.85352,-29.38867 1.44703,-17.00565 2.63331,-31.08327 2.63476,-31.28321 0.002,-0.19993 3.05715,-0.36328 6.78907,-0.36328 h 6.78515 l -0.006,2.06055 c -0.002,1.13291 -0.87303,14.60031 -1.93554,29.92773 -1.06251,15.3275 -1.9341,28.82013 -1.93555,29.98438 -9.6e-4,0.90714 0.0657,1.50492 0.33399,2.07617 0.26828,0.57125 0.73855,1.11555 1.54492,1.92188 0.82673,0.82673 1.36727,1.29884 1.95117,1.5625 0.5839,0.26366 1.21115,0.32031 2.21484,0.32031 1.37238,0 2.57333,-0.27587 3.60157,-0.82813 1.02823,-0.55226 1.88415,-1.38129 2.56835,-2.48632 0.23407,-0.378 0.4255,-0.87325 0.62696,-2.13282 0.20146,-1.25957 0.41236,-3.28341 0.68359,-6.7207 0.54246,-6.87457 1.32791,-19.40137 2.76367,-42.76367 1.69003,-27.49924 3.07756,-50.39277 3.08399,-50.875 0.005,-0.48223 0.20884,-0.75596 0.44922,-0.60742 0.24042,0.14865 3.65159,5.8855 7.58203,12.75 3.93038,6.86449 7.70348,13.0869 8.38476,13.82422 0.52977,0.57331 1.13412,1.02341 1.79297,1.35156 0.65885,0.32815 1.37292,0.53444 2.1211,0.61328 0.74817,0.0788 1.53038,0.032 2.32812,-0.14258 0.79774,-0.1746 1.61043,-0.47798 2.41797,-0.91016 0.5319,-0.28471 4.74295,-6.36019 9.35742,-13.50195 4.61448,-7.1418 8.68176,-13.305 9.03711,-13.69531 0.10461,-0.11491 0.19522,-0.19638 0.27344,-0.14258 0.0782,0.0538 0.14384,0.24308 0.19531,0.67188 0.10295,0.85758 0.15258,2.67226 0.14649,6.26757 -0.0122,7.19063 -0.24609,21.5054 -0.71094,49.54883 -0.34578,20.86122 -0.51695,32.01109 -0.50586,38.14844 0.006,3.06867 0.0563,4.88527 0.1543,6.03516 0.098,1.14988 0.24293,1.63317 0.43554,2.03906 0.4312,0.90869 1.07448,1.66374 1.8457,2.24414 0.77123,0.5804 1.67018,0.98613 2.60938,1.19922 0.9392,0.21308 1.92036,0.23427 2.85547,0.041 0.93511,-0.19325 1.82502,-0.59966 2.58398,-1.23828 0.71496,-0.60158 1.25222,-1.06352 1.65625,-1.75586 0.40404,-0.69233 0.67418,-1.61535 0.85547,-3.14062 0.36259,-3.05055 0.36842,-8.51033 0.36914,-19.34571 4.9e-4,-10.87101 0.14318,-24.83557 0.31836,-31.0332 l 0.32031,-11.26758 h 6.62891 6.63086 l 0.32031,13.89258 c 0.17613,7.64043 0.31836,21.60498 0.31836,31.0332 0,9.40704 0.0157,14.21709 0.38281,16.97266 0.18355,1.37778 0.45517,2.24212 0.85743,2.91016 0.40226,0.66803 0.93502,1.14067 1.64062,1.73437 0.75661,0.63665 1.64565,1.0411 2.58008,1.23438 0.93443,0.19327 1.91449,0.17404 2.85352,-0.0371 0.93902,-0.21115 1.83701,-0.61479 2.60742,-1.19141 0.7704,-0.57661 1.41323,-1.32539 1.84179,-2.22851 0.18906,-0.39847 0.33003,-0.8942 0.42579,-2.07227 0.0958,-1.17807 0.14642,-3.03946 0.15039,-6.16992 0.008,-6.26093 -0.16735,-17.59778 -0.51758,-38.70508 -0.41287,-24.88214 -0.6845,-47.74433 -0.60547,-50.80469 l 0.14258,-5.56445 8.9082,13.70117 c 3.32662,5.11686 5.6508,8.59358 7.2832,10.86328 1.6324,2.26971 2.57418,3.3319 3.13868,3.625 1.06032,0.55055 2.40202,0.8056 3.67968,0.77149 0.63883,-0.0171 1.26069,-0.10592 1.82422,-0.26563 0.56354,-0.15971 1.06889,-0.39138 1.4707,-0.6914 0.37842,-0.28252 1.51634,-1.94244 3.1211,-4.50977 1.60476,-2.56733 3.67574,-6.04213 5.91601,-9.94922 2.99637,-5.22584 4.94796,-8.54414 6.18555,-10.4668 0.6188,-0.96132 1.05885,-1.57353 1.36133,-1.90039 0.30248,-0.32685 0.4687,-0.36952 0.53711,-0.18945 0.19426,0.51114 1.69128,23.28653 3.32617,50.60938 1.62699,27.19132 2.37073,40.18028 3.11914,46.64648 0.37421,3.2331 0.75027,4.83636 1.23828,5.76758 0.24401,0.46561 0.51594,0.76361 0.83008,1.01367 0.31414,0.25006 0.66997,0.4521 1.08203,0.72656 0.85187,0.56739 1.80121,0.90105 2.76563,1.02539 0.96441,0.12434 1.94365,0.0388 2.85351,-0.23047 0.90987,-0.26926 1.75124,-0.72251 2.43946,-1.33593 0.68821,-0.61342 1.22396,-1.3868 1.52343,-2.29493 0.22957,-0.69617 0.27016,-2.57421 0.0371,-7.39648 -0.23305,-4.82227 -0.74102,-12.58895 -1.60742,-25.05859 -1.17468,-16.90621 -2.1376,-30.90812 -2.14062,-31.11524 -0.003,-0.20901 3.10003,-0.31626 6.89453,-0.24219 l 6.89843,0.13477 2.57227,30.77539 c 0.96106,11.49645 1.65522,19.30792 2.18359,24.41992 0.52838,5.112 0.89226,7.52425 1.19141,8.22071 0.28949,0.67398 0.66274,1.26832 1.09961,1.78125 0.43687,0.51293 0.93702,0.94449 1.47851,1.29492 0.5415,0.35043 1.12516,0.62016 1.72852,0.80664 0.60336,0.18648 1.22519,0.28946 1.84766,0.31055 0.62246,0.0211 1.24493,-0.0398 1.84375,-0.18555 0.59881,-0.14577 1.17462,-0.37539 1.70703,-0.68945 0.53241,-0.31407 1.02207,-0.71346 1.44531,-1.19727 0.42324,-0.48381 0.77946,-1.05202 1.05078,-1.70703 0.23401,-0.56498 0.16928,-3.16135 -0.43164,-10.75195 -0.60092,-7.59061 -1.73709,-20.17683 -3.64258,-40.72266 -2.55522,-27.55215 -4.58252,-50.42621 -4.5039,-50.83398 0.0786,-0.40778 4.42622,5.13909 9.66015,12.32617 5.23401,7.18707 10.0504,13.56184 10.70313,14.16797 0.5335,0.49541 1.10946,0.87934 1.70898,1.16015 0.59953,0.28082 1.2229,0.45925 1.8457,0.54492 0.62281,0.0857 1.24629,0.0783 1.84961,-0.0117 0.60333,-0.09 1.18547,-0.26354 1.72657,-0.50977 0.5411,-0.24623 1.04044,-0.56426 1.47656,-0.94727 0.43612,-0.383 0.80926,-0.82976 1.09766,-1.33007 0.28839,-0.50032 0.49193,-1.05417 0.58984,-1.65235 0.0979,-0.59818 0.0904,-1.24138 -0.0449,-1.91797 -0.1519,-0.75964 -8.09551,-12.04682 -17.65235,-25.08203 -6.57664,-8.97025 -11.03312,-14.95996 -14.01953,-18.8125 -2.98641,-3.85253 -4.50353,-5.56636 -5.20117,-5.98047 -0.45323,-0.269 -0.80797,-0.47209 -1.30078,-0.62304 -0.49281,-0.15096 -1.12297,-0.25085 -2.12305,-0.3125 -2.00016,-0.12331 -5.48291,-0.0966 -12.31836,-0.0352 -6.54336,0.0588 -10.03647,0.10382 -12.04882,0.25 -1.00618,0.0731 -1.64211,0.17293 -2.10352,0.31055 -0.46142,0.13761 -0.74799,0.31432 -1.05664,0.54492 -0.38597,0.28838 -1.75504,2.32508 -3.77149,5.57422 -2.01644,3.24914 -4.68164,7.71105 -7.66015,12.84375 -5.5654,9.59059 -10.49779,17.95068 -10.96094,18.57812 l -0.8418,1.13867 -12.35937,-18.78125 c -4.97424,-7.55924 -8.14583,-12.29682 -10.24414,-15.23632 -2.09831,-2.93951 -3.12304,-4.08016 -3.80274,-4.44141 -0.76298,-0.4056 -1.50705,-0.63088 -3.5664,-0.75391 -2.05935,-0.12302 -5.43388,-0.14291 -11.45899,-0.14257 z"
         id="path999"
         transform="matrix(0.26458333,0,0,0.26458333,0,161.53332)" />
      <path
         inkscape:connector-curvature="0"
         style="opacity:1;fill:#ffffff;fill-opacity:1;stroke:none;stroke-width:7.10931396;stroke-linecap:round;stroke-linejoin:round;stroke-miterlimit:4;stroke-dasharray:none;stroke-opacity:1"
         d="m 390.22266,-306.30664 c -1.03785,0.002 -2.05996,0.0924 -3.05078,0.26367 -0.99083,0.17129 -1.95121,0.42348 -2.8711,0.75195 -0.91989,0.32848 -1.79799,0.73324 -2.62305,1.20704 -0.82505,0.4738 -1.59642,1.01579 -2.30273,1.62304 -0.70631,0.60725 -1.34844,1.27898 -1.91211,2.00782 -0.56367,0.72883 -1.05014,1.51497 -1.44727,2.35351 -0.39712,0.83854 -0.70348,1.72964 -0.91015,2.66602 -0.20667,0.93638 -0.31238,1.91905 -0.30469,2.9414 0.0124,1.65137 0.37436,3.2921 1.02734,4.85547 0.65299,1.56337 1.59587,3.04831 2.76758,4.38477 1.17172,1.33645 2.57202,2.52547 4.14063,3.49609 1.5686,0.97062 3.30673,1.72359 5.15039,2.18945 1.39769,0.35318 3.58756,0.41364 5.75195,0.2461 2.1644,-0.16755 4.30269,-0.56308 5.59961,-1.125 1.24475,-0.53938 3.17036,-1.79869 4.27734,-2.79883 0.91936,-0.83058 1.6852,-1.74081 2.30274,-2.70703 0.61753,-0.96622 1.08646,-1.98849 1.41211,-3.04297 0.32565,-1.05448 0.50707,-2.14097 0.55078,-3.23633 0.0437,-1.09536 -0.051,-2.2002 -0.2793,-3.28906 -0.2283,-1.08886 -0.5897,-2.16228 -1.08007,-3.19727 -0.49038,-1.03499 -1.10906,-2.0311 -1.85157,-2.96484 -0.74251,-0.93374 -1.60904,-1.80474 -2.59375,-2.58984 -0.98471,-0.78511 -2.08771,-1.48513 -3.30468,-2.07422 -1.39533,-0.67542 -2.81669,-1.16609 -4.23438,-1.48828 -1.41769,-0.32219 -2.83105,-0.47455 -4.21484,-0.47266 z"
         id="path997"
         transform="matrix(0.26458333,0,0,0.26458333,0,161.53332)" />
      <path
         inkscape:connector-curvature="0"
         style="opacity:1;fill:#ffffff;fill-opacity:1;stroke:none;stroke-width:7.10931396;stroke-linecap:round;stroke-linejoin:round;stroke-miterlimit:4;stroke-dasharray:none;stroke-opacity:1"
         d="m 312.64648,-306.31836 c -1.04383,-0.0147 -2.09523,0.0598 -3.13867,0.22852 -1.04344,0.16874 -2.07821,0.43095 -3.09179,0.79296 -1.01359,0.36202 -2.00473,0.82353 -2.95899,1.38868 -0.95425,0.56514 -1.87282,1.23555 -2.73828,2.01367 -1.09066,0.98059 -1.98714,2.04019 -2.69922,3.15234 -0.71208,1.11216 -1.24016,2.27674 -1.58984,3.46289 -0.34969,1.18616 -0.52192,2.39507 -0.52539,3.59766 -0.003,1.20259 0.16173,2.39908 0.48828,3.56055 0.32655,1.16146 0.81469,2.28684 1.45508,3.34961 0.64039,1.06277 1.43304,2.06223 2.37109,2.96875 0.93805,0.90651 2.02267,1.71941 3.24219,2.41211 1.21952,0.69269 2.57378,1.26423 4.05859,1.68554 0.78071,0.22152 1.73671,0.36329 2.77539,0.43164 1.03869,0.0684 2.16022,0.0632 3.27539,-0.01 1.11517,-0.073 2.22422,-0.21356 3.23438,-0.41602 1.01016,-0.20246 1.92283,-0.46505 2.64648,-0.78516 1.8621,-0.82369 3.43741,-1.84416 4.76172,-3.09374 0.66215,-0.6248 1.26172,-1.30708 1.80273,-2.05079 0.54102,-0.7437 1.02243,-1.54901 1.45118,-2.41992 0.70153,-1.42497 1.08197,-2.28452 1.25976,-3.16992 0.1778,-0.8854 0.15415,-1.79755 0.0449,-3.32422 -0.0746,-1.04307 -0.25778,-2.03815 -0.5371,-2.98242 -0.27933,-0.94427 -0.65483,-1.83689 -1.11329,-2.67383 -0.45846,-0.83694 -1.00125,-1.61875 -1.61328,-2.33984 -0.61202,-0.7211 -1.29317,-1.38179 -2.0332,-1.97852 -1.48006,-1.19345 -3.19063,-2.13055 -5.0293,-2.77539 -1.83867,-0.64484 -3.80606,-0.99733 -5.79883,-1.02539 z"
         id="path995"
         transform="matrix(0.26458333,0,0,0.26458333,0,161.53332)" />
      <path
         inkscape:connector-curvature="0"
         style="opacity:1;fill:#ffffff;fill-opacity:1;stroke:none;stroke-width:7.10931396;stroke-linecap:round;stroke-linejoin:round;stroke-miterlimit:4;stroke-dasharray:none;stroke-opacity:1"
         d="m 234.15234,-306.36914 c -0.81842,0.0144 -1.64657,0.087 -2.48046,0.22266 -1.20031,0.19535 -2.35733,0.49452 -3.45899,0.88281 -1.10166,0.38828 -2.14796,0.8652 -3.12891,1.41992 -0.98094,0.55472 -1.89622,1.18619 -2.73437,1.88086 -0.83815,0.69467 -1.60016,1.4536 -2.27344,2.26172 -0.67328,0.80811 -1.25781,1.66547 -1.74414,2.56055 -0.48633,0.89507 -0.87308,1.82766 -1.15039,2.7832 -0.27731,0.95553 -0.44598,1.93432 -0.49219,2.92383 -0.0462,0.9895 0.0294,1.98935 0.23633,2.98632 0.22387,1.07835 0.56975,2.09676 1.02149,3.04688 0.45173,0.95012 1.00907,1.83196 1.6582,2.63867 0.64912,0.80672 1.38904,1.53741 2.20508,2.18555 0.81603,0.64813 1.70769,1.21312 2.66015,1.6875 0.95246,0.47437 1.96699,0.85909 3.02539,1.14453 1.05841,0.28544 2.16106,0.47141 3.29493,0.55273 1.13386,0.0813 2.29771,0.0579 3.47656,-0.0801 1.17885,-0.13798 2.37306,-0.38928 3.5664,-0.76172 1.86359,-0.58163 3.58126,-1.44499 5.09961,-2.51563 1.51836,-1.07064 2.83815,-2.34884 3.90235,-3.76367 1.06419,-1.41483 1.8739,-2.96591 2.375,-4.58008 0.25055,-0.80708 0.42432,-1.62922 0.51367,-2.45898 0.0893,-0.82977 0.0933,-1.66762 0.008,-2.50196 -0.0936,-0.91355 -0.28226,-1.79524 -0.55859,-2.64062 -0.27633,-0.84538 -0.63928,-1.65453 -1.07813,-2.41797 -0.43885,-0.76344 -0.95403,-1.48267 -1.53515,-2.15039 -0.58113,-0.66772 -1.22848,-1.28356 -1.93164,-1.8418 -1.40634,-1.11648 -3.0375,-1.99977 -4.81055,-2.5957 -0.88653,-0.29797 -1.80801,-0.5247 -2.75586,-0.67188 -0.94785,-0.14717 -1.92123,-0.21465 -2.91016,-0.19726 z"
         id="path993"
         transform="matrix(0.26458333,0,0,0.26458333,0,161.53332)" />
    </g>
    <circle
       r="31.574842"
       cy="49.489544"
       cx="-152.62537"
       id="circle1715"
       style="opacity:0.25;fill:#000000;fill-opacity:1;stroke:none;stroke-width:0.99059856;stroke-miterlimit:4;stroke-dasharray:none;stroke-dashoffset:0;stroke-opacity:0.99507392" />
    <circle
       style="opacity:1;fill:url(#linearGradient1731);fill-opacity:1;stroke:none;stroke-width:0.99059856;stroke-miterlimit:4;stroke-dasharray:none;stroke-dashoffset:0;stroke-opacity:0.99507392"
       id="circle1717"
       cx="-152.62537"
       cy="47.582817"
       r="31.574842" />
    <path
       style="fill:#ffffff;fill-rule:nonzero;stroke:none;stroke-width:1.73948503"
       d="m -161.8358,31.475594 c -1.27065,0 -2.29666,1.026025 -2.29666,2.296665 v 27.621118 c 0,1.270638 1.02601,2.296663 2.29666,2.296663 h 18.41408 c 1.27743,0 2.30344,-1.026025 2.30344,-2.296663 V 33.772259 c 0,-1.27064 -1.02601,-2.296665 -2.30344,-2.296665 z m 9.20704,4.600122 c 3.82551,0 6.90358,3.078074 6.90358,6.903581 0,3.825509 -3.07807,6.903581 -6.90358,6.903581 -3.82551,0 -6.90358,-3.078072 -6.90358,-6.903581 0,-3.825507 3.07807,-6.903581 6.90358,-6.903581 z m 0,0"
       id="path331"
       inkscape:connector-curvature="0" />
  </g>
</svg>
