<?xml version="1.0" encoding="UTF-8" standalone="no"?>
<svg
   xmlns:osb="http://www.openswatchbook.org/uri/2009/osb"
   xmlns:dc="http://purl.org/dc/elements/1.1/"
   xmlns:cc="http://creativecommons.org/ns#"
   xmlns:rdf="http://www.w3.org/1999/02/22-rdf-syntax-ns#"
   xmlns:svg="http://www.w3.org/2000/svg"
   xmlns="http://www.w3.org/2000/svg"
   xmlns:xlink="http://www.w3.org/1999/xlink"
   xmlns:sodipodi="http://sodipodi.sourceforge.net/DTD/sodipodi-0.dtd"
   xmlns:inkscape="http://www.inkscape.org/namespaces/inkscape"
   width="128"
   height="128"
   viewBox="0 0 128 128"
   version="1.1"
   id="svg340"
   sodipodi:docname="network-server - Copy.svg"
   inkscape:version="0.92.4 (5da689c313, 2019-01-14)">
  <metadata
     id="metadata344">
    <rdf:RDF>
      <cc:Work
         rdf:about="">
        <dc:format>image/svg+xml</dc:format>
        <dc:type
           rdf:resource="http://purl.org/dc/dcmitype/StillImage" />
        <dc:title />
      </cc:Work>
    </rdf:RDF>
  </metadata>
  <sodipodi:namedview
     pagecolor="#ffffff"
     bordercolor="#666666"
     borderopacity="1"
     objecttolerance="10"
     gridtolerance="10"
     guidetolerance="10"
     inkscape:pageopacity="0"
     inkscape:pageshadow="2"
     inkscape:window-width="1600"
     inkscape:window-height="838"
     id="namedview342"
     showgrid="false"
     inkscape:zoom="0.92187498"
     inkscape:cx="79.971395"
     inkscape:cy="-100.03637"
     inkscape:window-x="-8"
     inkscape:window-y="-8"
     inkscape:window-maximized="1"
     inkscape:current-layer="svg340" />
  <defs
     id="defs205">
    <linearGradient
       inkscape:collect="always"
       id="linearGradient1473">
      <stop
         style="stop-color:#5fbeca;stop-opacity:1"
         offset="0"
         id="stop1469" />
      <stop
         style="stop-color:#1d7680;stop-opacity:1"
         offset="1"
         id="stop1471" />
    </linearGradient>
    <linearGradient
       id="linearGradient5420"
       inkscape:collect="always">
      <stop
         id="stop5416"
         offset="0"
         style="stop-color:#d5e3e8;stop-opacity:1" />
      <stop
         id="stop5418"
         offset="1"
         style="stop-color:#a0a0a1;stop-opacity:1" />
    </linearGradient>
    <linearGradient
       id="linearGradient5408"
       inkscape:collect="always">
      <stop
         id="stop5404"
         offset="0"
         style="stop-color:#dfe5e8;stop-opacity:1" />
      <stop
         id="stop5406"
         offset="1"
         style="stop-color:#c3cacc;stop-opacity:1" />
    </linearGradient>
    <linearGradient
       osb:paint="solid"
       id="linearGradient6987">
      <stop
         id="stop6985"
         offset="0"
         style="stop-color:#77d2fb;stop-opacity:1;" />
    </linearGradient>
    <radialGradient
       gradientUnits="userSpaceOnUse"
       gradientTransform="matrix(0.68479639,0,0,0.17072491,-280.19289,48.041097)"
       r="74.884071"
       fy="372.05499"
       fx="502.62054"
       cy="372.05499"
       cx="502.62054"
       id="radialGradient5414"
       xlink:href="#linearGradient5408"
       inkscape:collect="always" />
    <linearGradient
       gradientTransform="matrix(0.72660557,0,0,0.7267468,-301.20705,-151.31475)"
       gradientUnits="userSpaceOnUse"
       y2="349.10312"
       x2="504.37988"
       y1="216.14406"
       x1="496.5524"
       id="linearGradient5422"
       xlink:href="#linearGradient5420"
       inkscape:collect="always" />
    <linearGradient
       y2="324.15189"
       x2="502.79834"
       y1="216.4304"
       x1="501.82697"
       gradientTransform="matrix(0.71377812,0,0,0.71391685,-295.63844,-148.54149)"
       gradientUnits="userSpaceOnUse"
       id="linearGradient5448"
       xlink:href="#linearGradient1473"
       inkscape:collect="always" />
    <linearGradient
       osb:paint="solid"
       id="linearGradient6088">
      <stop
         id="stop6086"
         offset="0"
         style="stop-color:#51b3e3;stop-opacity:1;" />
    </linearGradient>
  </defs>
  <g
     transform="matrix(0.21471198,0,0,0.19952819,-259.50782,-55.13739)"
     id="g1485" />
  <g
     transform="matrix(0.21471198,0,0,0.19952819,-259.50782,-55.13739)"
     id="g1487" />
  <g
     transform="matrix(0.21471198,0,0,0.19952819,-259.50782,-55.13739)"
     id="g1489" />
  <g
     transform="matrix(0.21471198,0,0,0.19952819,-259.50782,-55.13739)"
     id="g1491" />
  <g
     transform="matrix(0.21471198,0,0,0.19952819,-259.50782,-55.13739)"
     id="g1493" />
  <g
     transform="matrix(0.21471198,0,0,0.19952819,-259.50782,-55.13739)"
     id="g1495" />
  <g
     transform="matrix(0.21471198,0,0,0.19952819,-259.50782,-55.13739)"
     id="g1497" />
  <g
     transform="matrix(0.21471198,0,0,0.19952819,-259.50782,-55.13739)"
     id="g1499" />
  <g
     transform="matrix(0.21471198,0,0,0.19952819,-259.50782,-55.13739)"
     id="g1501" />
  <g
     transform="matrix(0.21471198,0,0,0.19952819,-259.50782,-55.13739)"
     id="g1503" />
  <g
     transform="matrix(0.21471198,0,0,0.19952819,-259.50782,-55.13739)"
     id="g1505" />
  <g
     transform="matrix(0.21471198,0,0,0.19952819,-259.50782,-55.13739)"
     id="g1507" />
  <g
     transform="matrix(0.21471198,0,0,0.19952819,-259.50782,-55.13739)"
     id="g1509" />
  <g
     transform="matrix(0.21471198,0,0,0.19952819,-259.50782,-55.13739)"
     id="g1511" />
  <g
     transform="matrix(0.21471198,0,0,0.19952819,-259.50782,-55.13739)"
     id="g1513" />
  <g
     style="stroke-width:4.08449793"
     inkscape:transform-center-y="-9.4924686"
     inkscape:transform-center-x="5.4653607"
     inkscape:label="Capa 1"
     id="layer1-4-3"
     transform="matrix(2.1523677,0,0,2.1573659,-1145.4737,-1153.9306)">
    <g
       style="stroke-width:4.08449793"
       id="layer1-3-65-9"
       inkscape:label="Capa 1"
       transform="translate(0.41988239,0.03484499)" />
  </g>
  <g
     style="stroke-width:4.08449793"
     inkscape:transform-center-y="-9.4924686"
     inkscape:transform-center-x="5.4653607"
     inkscape:label="Capa 1"
     id="layer1-4"
     transform="matrix(2.1523677,0,0,2.1573659,-1145.4737,-1153.8302)">
    <g
       style="stroke-width:4.08449793"
       id="layer1-3-65"
       inkscape:label="Capa 1"
       transform="translate(0.41988239,0.03484499)" />
  </g>
  <circle
     style="fill:url(#c);stroke-width:1.06241596"
     cx="-328.66809"
     cy="33.28907"
     r="0"
     id="circle1645" />
  <circle
     style="fill:url(#b);stroke-width:1.06241596"
     cx="-399.10471"
     cy="33.378891"
     r="0"
     id="circle1647" />
  <g
     style="stroke-width:4.08449793"
     inkscape:transform-center-y="-9.4924686"
     inkscape:transform-center-x="5.4653607"
     inkscape:label="Capa 1"
     id="layer1-4-3-3"
     transform="matrix(2.1523677,0,0,2.1573659,-950.32652,-1153.9306)">
    <g
       style="stroke-width:4.08449793"
       id="layer1-3-65-9-90"
       inkscape:label="Capa 1"
       transform="translate(0.41988239,0.03484499)" />
  </g>
  <g
     style="stroke-width:4.08449793"
     inkscape:transform-center-y="-9.4924686"
     inkscape:transform-center-x="5.4653607"
     inkscape:label="Capa 1"
     id="layer1-4-5"
     transform="matrix(2.1523677,0,0,2.1573659,-950.32652,-1153.8302)">
    <g
       style="stroke-width:4.08449793"
       id="layer1-3-65-22"
       inkscape:label="Capa 1"
       transform="translate(0.41988239,0.03484499)" />
  </g>
  <g
     style="stroke-width:4.08449793"
     inkscape:transform-center-y="-9.4924686"
     inkscape:transform-center-x="5.4653607"
     inkscape:label="Capa 1"
     id="layer1-4-3-2"
     transform="matrix(2.052953,0,0,2.0577205,-1088.4028,-1076.0273)">
    <g
       style="stroke-width:4.08449793"
       id="layer1-3-65-9-9"
       inkscape:label="Capa 1"
       transform="translate(0.41988239,0.03484499)" />
  </g>
  <g
     style="stroke-width:4.08449793"
     inkscape:transform-center-y="-9.4924686"
     inkscape:transform-center-x="5.4653607"
     inkscape:label="Capa 1"
     id="layer1-4-1"
     transform="matrix(2.052953,0,0,2.0577205,-1088.4028,-1075.9315)">
    <g
       style="stroke-width:4.08449793"
       id="layer1-3-65-2"
       inkscape:label="Capa 1"
       transform="translate(0.41988239,0.03484499)" />
  </g>
  <g
     style="stroke-width:4.08449793"
     inkscape:transform-center-y="-9.4924686"
     inkscape:transform-center-x="5.4653607"
     inkscape:label="Capa 1"
     id="layer1-4-3-90"
     transform="matrix(2.1523677,0,0,2.1573659,-961.45412,-1153.9306)">
    <g
       style="stroke-width:4.08449793"
       id="layer1-3-65-9-5"
       inkscape:label="Capa 1"
       transform="translate(0.41988239,0.03484499)" />
  </g>
  <g
     style="stroke-width:4.08449793"
     inkscape:transform-center-y="-9.4924686"
     inkscape:transform-center-x="5.4653607"
     inkscape:label="Capa 1"
     id="layer1-4-22"
     transform="matrix(2.1523677,0,0,2.1573659,-961.45412,-1153.8302)">
    <g
       style="stroke-width:4.08449793"
       id="layer1-3-65-7"
       inkscape:label="Capa 1"
       transform="translate(0.41988239,0.03484499)" />
  </g>
  <circle
     style="fill:url(#c);stroke-width:1.06241596"
     cx="-144.64845"
     cy="33.28907"
     r="0"
     id="circle1645-3" />
  <circle
     style="fill:url(#b);stroke-width:1.06241596"
     cx="-215.08508"
     cy="33.378891"
     r="0"
     id="circle1647-7" />
  <g
     style="stroke-width:4.08449793"
     inkscape:transform-center-y="-9.4924686"
     inkscape:transform-center-x="5.4653607"
     inkscape:label="Capa 1"
     id="layer1-4-3-3-9"
     transform="matrix(2.1523677,0,0,2.1573659,-766.30688,-1153.9306)">
    <g
       style="stroke-width:4.08449793"
       id="layer1-3-65-9-90-0"
       inkscape:label="Capa 1"
       transform="translate(0.41988239,0.03484499)" />
  </g>
  <g
     style="stroke-width:4.08449793"
     inkscape:transform-center-y="-9.4924686"
     inkscape:transform-center-x="5.4653607"
     inkscape:label="Capa 1"
     id="layer1-4-5-2"
     transform="matrix(2.1523677,0,0,2.1573659,-766.30688,-1153.8302)">
    <g
       style="stroke-width:4.08449793"
       id="layer1-3-65-22-3"
       inkscape:label="Capa 1"
       transform="translate(0.41988239,0.03484499)" />
  </g>
  <g
     style="stroke-width:4.08449793"
     inkscape:transform-center-y="-9.4924686"
     inkscape:transform-center-x="5.4653607"
     inkscape:label="Capa 1"
     id="layer1-4-3-2-9"
     transform="matrix(2.052953,0,0,2.0577205,-904.38313,-1076.0273)">
    <g
       style="stroke-width:4.08449793"
       id="layer1-3-65-9-9-9"
       inkscape:label="Capa 1"
       transform="translate(0.41988239,0.03484499)" />
  </g>
  <g
     style="stroke-width:4.08449793"
     inkscape:transform-center-y="-9.4924686"
     inkscape:transform-center-x="5.4653607"
     inkscape:label="Capa 1"
     id="layer1-4-1-7"
     transform="matrix(2.052953,0,0,2.0577205,-904.38313,-1075.9315)">
    <g
       style="stroke-width:4.08449793"
       id="layer1-3-65-2-0"
       inkscape:label="Capa 1"
       transform="translate(0.41988239,0.03484499)" />
  </g>
  <g
     style="stroke-width:4.08449793"
     inkscape:transform-center-y="-9.4924686"
     inkscape:transform-center-x="5.4653607"
     inkscape:label="Capa 1"
     id="layer1-4-3-9"
     transform="matrix(2.1523677,0,0,2.1573659,-781.47947,-1163.7897)">
    <g
       style="stroke-width:4.08449793"
       id="layer1-3-65-9-0"
       inkscape:label="Capa 1"
       transform="translate(0.41988239,0.03484499)" />
  </g>
  <g
     style="stroke-width:4.08449793"
     inkscape:transform-center-y="-9.4924686"
     inkscape:transform-center-x="5.4653607"
     inkscape:label="Capa 1"
     id="layer1-4-52"
     transform="matrix(2.1523677,0,0,2.1573659,-781.47947,-1163.6893)">
    <g
       style="stroke-width:4.08449793"
       id="layer1-3-65-27"
       inkscape:label="Capa 1"
       transform="translate(0.41988239,0.03484499)" />
  </g>
  <g
     style="stroke-width:4.08449793"
     inkscape:transform-center-y="-9.4924686"
     inkscape:transform-center-x="5.4653607"
     inkscape:label="Capa 1"
     id="layer1-4-3-2-2"
     transform="matrix(2.052953,0,0,2.0577205,-919.55572,-1085.8865)">
    <g
       style="stroke-width:4.08449793"
       id="layer1-3-65-9-9-3"
       inkscape:label="Capa 1"
       transform="translate(0.41988239,0.03484499)" />
  </g>
  <g
     style="stroke-width:4.08449793"
     inkscape:transform-center-y="-9.4924686"
     inkscape:transform-center-x="5.4653607"
     inkscape:label="Capa 1"
     id="layer1-4-1-9"
     transform="matrix(2.052953,0,0,2.0577205,-919.55572,-1085.7907)">
    <g
       style="stroke-width:4.08449793"
       id="layer1-3-65-2-9"
       inkscape:label="Capa 1"
       transform="translate(0.41988239,0.03484499)" />
  </g>
  <g
     style="stroke-width:4.08449793"
     inkscape:transform-center-y="-9.4924686"
     inkscape:transform-center-x="5.4653607"
     inkscape:label="Capa 1"
     id="layer1-4-3-39"
     transform="matrix(2.0525056,0,0,2.057272,-1064.8653,-1099.1717)">
    <g
       style="stroke-width:4.08449793"
       id="layer1-3-65-9-05"
       inkscape:label="Capa 1"
       transform="translate(0.41988239,0.03484499)" />
  </g>
  <g
     style="stroke-width:4.08449793"
     inkscape:transform-center-y="-9.4924686"
     inkscape:transform-center-x="5.4653607"
     inkscape:label="Capa 1"
     id="layer1-4-2"
     transform="matrix(2.0525056,0,0,2.057272,-1064.8653,-1099.076)">
    <g
       style="stroke-width:4.08449793"
       id="layer1-3-65-273"
       inkscape:label="Capa 1"
       transform="translate(0.41988239,0.03484499)" />
  </g>
  <g
     transform="matrix(1.062416,0,0,1.062416,195.78378,-317.57175)"
     style="opacity:1"
     id="g1068" />
  <g
     style="stroke-width:4.08449793"
     inkscape:transform-center-y="-9.4924686"
     inkscape:transform-center-x="5.4653607"
     inkscape:label="Capa 1"
     id="layer1-4-9-22"
     transform="matrix(2.049874,0,0,2.0546342,-1450.396,-1164.4422)">
    <g
       style="stroke-width:4.08449793"
       id="layer1-3-65-0-7"
       inkscape:label="Capa 1"
       transform="translate(0.41988239,0.03484499)" />
  </g>
  <g
     style="stroke-width:4.08449793"
     inkscape:transform-center-y="-9.4924686"
     inkscape:transform-center-x="5.4653607"
     inkscape:label="Capa 1"
     id="layer1-4-3-1"
     transform="matrix(2.049874,0,0,2.0546342,-1450.396,-1164.3467)">
    <g
       style="stroke-width:4.08449793"
       id="layer1-3-65-7-4"
       inkscape:label="Capa 1"
       transform="translate(0.41988239,0.03484499)" />
  </g>
  <g
     style="stroke-width:4.08449793"
     inkscape:transform-center-y="-9.4924686"
     inkscape:transform-center-x="5.4653607"
     inkscape:label="Capa 1"
     id="layer1-4-9-2"
     transform="matrix(2.049874,0,0,2.0546342,-1575.6546,-1331.1708)">
    <g
       style="stroke-width:4.08449793"
       id="layer1-3-65-0-2"
       inkscape:label="Capa 1"
       transform="translate(0.41988239,0.03484499)" />
  </g>
  <g
     style="stroke-width:4.08449793"
     inkscape:transform-center-y="-9.4924686"
     inkscape:transform-center-x="5.4653607"
     inkscape:label="Capa 1"
     id="layer1-4-7"
     transform="matrix(2.049874,0,0,2.0546342,-1575.6546,-1331.0752)">
    <g
       style="stroke-width:4.08449793"
       id="layer1-3-65-3"
       inkscape:label="Capa 1"
       transform="translate(0.41988239,0.03484499)" />
  </g>
  <g
     style="stroke-width:4.08449793"
     inkscape:transform-center-y="-9.4924686"
     inkscape:transform-center-x="5.4653607"
     inkscape:label="Capa 1"
     id="layer1-4-9"
     transform="matrix(2.049874,0,0,2.0546342,-1450.396,-1164.4423)">
    <g
       style="stroke-width:4.08449793"
       id="layer1-3-65-0"
       inkscape:label="Capa 1"
       transform="translate(0.41988239,0.03484499)" />
  </g>
  <g
     style="stroke-width:4.08449793"
     inkscape:transform-center-y="-9.4924686"
     inkscape:transform-center-x="5.4653607"
     inkscape:label="Capa 1"
     id="layer1-4-32"
     transform="matrix(2.049874,0,0,2.0546342,-1450.396,-1164.3467)">
    <g
       style="stroke-width:4.08449793"
       id="layer1-3-65-76"
       inkscape:label="Capa 1"
       transform="translate(0.41988239,0.03484499)" />
  </g>
  <g
     id="g1717"
     transform="translate(-2.4864012e-4,2.0063282e-5)">
    <path
       inkscape:connector-curvature="0"
       id="path869"
       d="M 23.120802,5.9595041 C 22.024931,5.9574855 21.07767,6.1397972 20.307525,6.5222265 19.054533,6.9868922 18.523569,7.8580001 18.162167,9.2766919 L 9.5175639,100.90207 c -0.04239,0.44985 -0.015193,0.88677 0.072669,1.30353 0.00212,0.0121 0.00744,0.0241 0.00956,0.0361 -0.015192,0.85035 0.024223,1.76519 0.086162,2.68934 0.074369,4.00081 0.287288,8.64498 0.6430271,12.80962 0.194932,3.46107 2.318702,6.2593 5.199783,6.2593 h 0.308111 7.320248 81.376416 0.30811 7.32026 0.30814 c 2.88107,0 5.00675,-2.79823 5.20169,-6.2593 0.35572,-4.16464 0.56863,-8.80881 0.64303,-12.80962 0.0616,-0.92202 0.10115,-1.83489 0.0861,-2.68363 0.003,-0.0121 0.006,-0.0281 0.01,-0.0402 0.0879,-0.4168 0.1152,-0.85368 0.0727,-1.30357 L 109.83653,9.2767706 c -0.36143,-1.4186909 -0.89238,-2.2897987 -2.14536,-2.7544644 -0.77016,-0.3826705 -1.71743,-0.56469 -2.81328,-0.5627628 l -40.878624,0.06706 z"
       style="opacity:0.25;fill:#000000;fill-opacity:1;stroke:none;stroke-width:0.77798158;stroke-miterlimit:4;stroke-dasharray:none;stroke-opacity:1" />
    <path
       inkscape:connector-curvature="0"
       id="rect5373"
       d="m 11.336346,96.468153 c -1.9013212,0.329667 -1.8572097,3.416128 -1.651101,6.499897 0.074369,4.00082 0.2875217,8.6435 0.643261,12.80818 0.194932,3.46107 2.319424,6.26106 5.200505,6.26106 h 0.308335 7.320567 81.375467 0.30834 7.3206 0.30835 c 2.88107,0 5.00558,-2.79999 5.20051,-6.26106 0.35573,-4.16468 0.56885,-8.80736 0.64325,-12.80818 0.20611,-3.083769 0.25025,-6.170431 -1.65109,-6.499897 H 109.03478 67.814179 60.185554 18.964939 Z"
       style="opacity:1;fill:url(#radialGradient5414);fill-opacity:1;stroke:#808080;stroke-width:0.77729136;stroke-miterlimit:4;stroke-dasharray:none;stroke-opacity:1" />
    <path
       style="opacity:1;fill:#f3fdff;fill-opacity:1;stroke:none;stroke-width:3.5884707;stroke-miterlimit:4;stroke-dasharray:none;stroke-opacity:1"
       d="M 23.121684,5.1536881 C 22.025813,5.151882 21.077957,5.3335796 20.307812,5.7159282 19.05482,6.1805939 18.524079,7.051621 18.162666,8.4703129 L 9.5167777,100.09561 c -0.04239,0.44989 -0.014768,0.88645 0.0732,1.30321 0.035272,0.16664 0.079894,0.33007 0.1336519,0.49004 0.026879,0.0799 0.056202,0.15902 0.087437,0.23732 0.094024,0.2341 0.2076704,0.45964 0.3386664,0.67491 0.218369,0.35898 0.484972,0.68933 0.790385,0.98466 0.06109,0.0586 0.123654,0.11685 0.187771,0.17267 0.320499,0.28148 0.677843,0.52554 1.061864,0.72667 0.07681,0.0405 0.154316,0.0787 0.233179,0.11564 0.709747,0.33007 1.499993,0.5153 2.313358,0.5153 h 98.52695 c 1.89757,0 3.66944,-1.00827 4.58655,-2.51518 0.13101,-0.21483 0.24466,-0.44069 0.33865,-0.67483 0.0309,-0.0783 0.0606,-0.15701 0.0874,-0.23732 0.0539,-0.15981 0.0985,-0.32324 0.13367,-0.49008 0.0879,-0.41672 0.11569,-0.85328 0.0732,-1.30317 l -8.6459,-91.6253379 c -0.36142,-1.4187323 -0.89214,-2.289719 -2.14513,-2.7543847 -0.77015,-0.3826705 -1.71838,-0.5641673 -2.81423,-0.5621997 l -40.87782,0.067463 z"
       id="path5490"
       inkscape:connector-curvature="0" />
    <path
       inkscape:connector-curvature="0"
       id="rect5346"
       d="M 23.121684,4.0000148 C 22.025813,3.9981025 21.077957,4.1799052 20.307812,4.5622146 19.05482,5.0268399 18.524079,5.897868 18.162666,7.3165589 L 9.5167777,98.9419 c -0.04239,0.449848 -0.014768,0.886446 0.0732,1.30321 0.035272,0.16704 0.079894,0.33047 0.1336519,0.49008 0.026879,0.0799 0.056202,0.15901 0.087437,0.23731 0.094024,0.2341 0.2076704,0.45965 0.3386664,0.67492 0.218369,0.35898 0.484972,0.68933 0.790385,0.98466 0.06109,0.0586 0.123654,0.11685 0.187771,0.17266 0.320499,0.28149 0.677843,0.52558 1.061864,0.72672 0.07681,0.0402 0.154316,0.0787 0.233179,0.11564 0.709747,0.33007 1.499993,0.51534 2.313358,0.51534 h 98.52695 c 1.89757,0 3.66944,-1.00823 4.58655,-2.51514 0.13101,-0.21523 0.24466,-0.44078 0.33865,-0.67492 0.0309,-0.0783 0.0606,-0.157 0.0874,-0.23691 0.0539,-0.16021 0.0985,-0.32364 0.13367,-0.49008 0.0879,-0.416763 0.11569,-0.85336 0.0732,-1.303249 L 109.83685,7.3168 c -0.36142,-1.4186919 -0.89214,-2.2896786 -2.14513,-2.7543039 -0.77015,-0.3826705 -1.71838,-0.564128 -2.81423,-0.5622412 l -40.87782,0.06706 z"
       style="opacity:1;fill:url(#linearGradient5422);fill-opacity:1;stroke:#808080;stroke-width:0.77798158;stroke-miterlimit:4;stroke-dasharray:none;stroke-opacity:1" />
    <path
       inkscape:connector-curvature="0"
       id="path5365"
       d="m 25.793214,5.7782474 c -2.107174,0.016064 -4.581403,0.3220385 -5.113419,2.533416 L 14.24216,78.626512 c -0.03878,0.344925 -0.0136,0.680052 0.06672,0.999801 0.03219,0.127691 0.07288,0.253374 0.122093,0.376246 0.02465,0.06144 0.05142,0.121668 0.08,0.181899 0.08584,0.179891 0.189439,0.352555 0.309099,0.517629 0.05121,0.07108 0.10571,0.140139 0.162666,0.208 0.01711,0.0241 0.03602,0.04015 0.05387,0.05982 0.04058,0.04617 0.08117,0.09236 0.124292,0.137328 0.02316,0.0241 0.0477,0.04698 0.07161,0.07067 0.04122,0.04096 0.08212,0.08112 0.125429,0.120865 0.02273,0.0241 0.04632,0.04016 0.06937,0.05983 0.03804,0.03213 0.07522,0.06666 0.114699,0.09878 0.0096,0.0081 0.02082,0.01606 0.03102,0.02409 0.01328,0.01205 0.0273,0.0241 0.04101,0.03613 0.03304,0.02811 0.06566,0.0518 0.09965,0.0767 0.01742,0.01205 0.03602,0.02811 0.05344,0.03614 0.0357,0.02811 0.07182,0.05019 0.108441,0.07509 0.0408,0.02811 0.08202,0.05501 0.123941,0.08111 0.03888,0.02811 0.07851,0.04859 0.118417,0.07187 0.04207,0.02811 0.08457,0.0498 0.127628,0.07308 0.04101,0.0241 0.08244,0.04497 0.124334,0.06666 0.04356,0.0241 0.08754,0.04457 0.132027,0.06625 0.0426,0.0241 0.08499,0.04136 0.12835,0.06063 0.01785,0.0081 0.03527,0.02008 0.05312,0.02811 0.04951,0.0241 0.09976,0.04176 0.150141,0.06264 0.0096,0.0036 0.02008,0.0081 0.03028,0.01205 0.01094,0.0036 0.02157,0.01205 0.03262,0.01606 0.08096,0.03213 0.163155,0.06144 0.246385,0.08954 0,0 3.5e-4,0 3.5e-4,0 0.09031,0.03213 0.182449,0.05822 0.275155,0.08473 0.02996,0.0081 0.06045,0.01606 0.09073,0.0241 0.06523,0.02008 0.130741,0.03213 0.196972,0.04939 0.03378,0.0081 0.06746,0.01606 0.10146,0.0241 0.06364,0.01606 0.127703,0.02811 0.19216,0.03614 0.03304,0.0081 0.06576,0.01205 0.09891,0.01606 0.06948,0.01205 0.139335,0.02008 0.209487,0.03213 0.03028,0.0036 0.06056,0.0081 0.09116,0.01205 0.07564,0.0081 0.151628,0.01606 0.227994,0.02008 0.02497,0.0019 0.04983,0.0036 0.0748,0.0036 0.101991,0.0081 0.204334,0.0081 0.307272,0.0081 h 89.981468 c 0.10295,0 0.20527,-0.0036 0.30727,-0.0081 0.0253,-0.0019 0.0499,-0.0036 0.0749,-0.0036 0.0763,-0.0036 0.15234,-0.01205 0.22791,-0.02008 0.0305,-0.0029 0.0608,-0.0081 0.091,-0.01205 0.0702,-0.0081 0.14011,-0.02008 0.20953,-0.03213 0.0329,-0.0036 0.066,-0.01205 0.0988,-0.01606 0.0645,-0.01205 0.12846,-0.0241 0.19222,-0.03614 0.0337,-0.0081 0.0678,-0.01606 0.10146,-0.0241 0.0676,-0.01606 0.13472,-0.03614 0.20142,-0.05059 0.0282,-0.0081 0.0566,-0.01606 0.0846,-0.0241 0.0935,-0.02811 0.18596,-0.05501 0.27703,-0.08552 0,0 3.5e-4,0 3.5e-4,0 0.0833,-0.03213 0.1654,-0.05822 0.24639,-0.08954 0.0106,-0.0036 0.0197,-0.0081 0.0301,-0.01205 0.014,-0.0081 0.0277,-0.01205 0.0421,-0.02008 0.0471,-0.02008 0.0946,-0.04016 0.14087,-0.05822 0.0176,-0.0081 0.0345,-0.02008 0.0528,-0.02811 0.0441,-0.02008 0.0873,-0.04136 0.13058,-0.06184 0.0428,-0.0241 0.0855,-0.04176 0.12761,-0.06384 0.0429,-0.0241 0.0853,-0.04497 0.12726,-0.06866 0.0441,-0.02811 0.0875,-0.04899 0.13053,-0.07469 0.0381,-0.0241 0.0761,-0.04578 0.1136,-0.06986 0.0425,-0.02811 0.0841,-0.0542 0.12541,-0.08191 0.037,-0.02811 0.0728,-0.0498 0.10845,-0.07509 0.0173,-0.01205 0.0365,-0.02811 0.0535,-0.03614 0.0337,-0.02811 0.0666,-0.051 0.0997,-0.0767 0.0136,-0.01205 0.0273,-0.0241 0.041,-0.03213 0.0106,-0.0081 0.0205,-0.01606 0.0305,-0.0241 0.0393,-0.03213 0.0767,-0.06546 0.11472,-0.09878 0.0233,-0.02008 0.0468,-0.04016 0.0694,-0.05983 0.0432,-0.04015 0.0842,-0.0799 0.12544,-0.120463 0.0237,-0.0241 0.0485,-0.04658 0.0715,-0.07067 0.0548,-0.05742 0.10753,-0.115645 0.15825,-0.174672 0.004,-0.0081 0.0113,-0.01205 0.0169,-0.02008 2.9e-4,-3.62e-4 4.5e-4,-7.23e-4 7.1e-4,-0.0019 0.0579,-0.06907 0.11324,-0.139736 0.16528,-0.211211 0.11966,-0.165034 0.22358,-0.337698 0.30946,-0.517629 0.0285,-0.05982 0.055,-0.120062 0.0797,-0.181899 0.0492,-0.122873 0.09,-0.248154 0.12214,-0.375844 0.0602,-0.239722 0.0896,-0.488196 0.084,-0.743016 -0.002,-0.08513 -0.008,-0.170656 -0.0169,-0.256586 L 107.32017,8.3096692 c -0.60802,-2.527392 -3.75263,-2.5654988 -5.98723,-2.5271509 l -37.33259,0.0514 -37.332544,-0.0514 c -0.279341,-0.00361 -0.572802,-0.00807 -0.873837,-0.00807 z"
       style="opacity:1;fill:url(#linearGradient5448);fill-opacity:1;stroke:#4e6166;stroke-width:0.77729136;stroke-miterlimit:4;stroke-dasharray:none;stroke-opacity:1" />
    <ellipse
       ry="2.1668091"
       rx="2.6316404"
       cy="113.78245"
       cx="24.40226"
       id="path5424"
       style="opacity:1;fill:#00ff00;fill-opacity:1;stroke:#a3a4a5;stroke-width:0.98343337;stroke-linecap:round;stroke-miterlimit:4;stroke-dasharray:none;stroke-opacity:1" />
    <g
       transform="translate(2.250353,-0.82099955)"
       id="g1706">
      <path
         id="path920"
         d="m 62.734355,69.472118 c -8.677328,0.04313 -17.01228,-2.866824 -23.00286,-8.018376 -5.88612,-5.061725 -8.871957,-11.743747 -8.394126,-18.45222 0.461065,-6.473089 4.11141,-12.398467 10.009776,-16.542347 5.713093,-4.01372 13.15234,-6.083679 20.754934,-5.854069 7.520296,0.227126 14.780595,2.692312 20.313403,6.905664 5.619435,4.279317 9.132516,10.113566 9.71248,16.32832 0.600133,6.430902 -1.980473,12.798252 -7.328746,17.650268 -5.533047,5.019639 -13.494624,7.940169 -22.064861,7.98276 0,0 0,0 0,0"
         style="opacity:1;fill:none;fill-opacity:1;stroke:#ffffff;stroke-width:1.13385832;stroke-miterlimit:4;stroke-dasharray:none;stroke-dashoffset:0;stroke-opacity:1"
         inkscape:connector-curvature="0" />
      <path
         id="circle922"
         d="m 91.892729,47.268079 c -0.09836,0.103908 -0.197724,0.209944 -0.298406,0.321287 -0.424651,0.469603 -0.879747,1.0143 -1.609295,1.632125 -0.73284,0.620604 -1.744063,1.316862 -2.721809,1.905135 -0.982351,0.59103 -1.929534,1.072198 -2.862708,1.473718 -0.936514,0.40296 -1.85821,0.724765 -2.56575,0.972013 -0.2166,0.07569 -0.375551,0.133629 -0.552709,0.196867 -0.210775,-0.419656 -0.491988,-0.814274 -0.834635,-1.171545 0.553418,-0.449253 0.887289,-0.762407 1.251432,-1.170674 0.490959,-0.55043 1.040805,-1.275468 1.484475,-1.976477 0.441712,-0.697871 0.777894,-1.372482 0.987169,-2.103837 0.208397,-0.728224 0.290173,-1.512219 0.315826,-2.171302 0.01602,-0.410707 0.0104,-0.773616 -0.02084,-1.131702 -0.01974,-0.214531 -0.0466,-0.427176 -0.08421,-0.647995 -0.100347,-0.587594 -0.270992,-1.231421 -0.469606,-1.795112 -0.197875,-0.562102 -0.423549,-1.045182 -0.591489,-1.436672 -0.08597,-0.200524 -0.160892,-0.384956 -0.278622,-0.63303 0.797934,-0.548813 1.221149,-1.369118 1.158821,-2.238987 -0.02701,-0.367425 -0.139965,-0.732465 -0.33283,-1.076237 0.461289,-0.211896 0.77768,-0.356289 1.075064,-0.510014 0.44209,-0.228511 1.065998,-0.583397 1.689425,-1.033977 0.49997,-0.361346 0.996875,-0.78126 1.342661,-1.057159 -0.179499,-0.247214 -0.36421,-0.491947 -0.554032,-0.734089 -0.301757,0.214942 -0.617374,0.488437 -0.930891,0.734788 -0.36887,0.289868 -0.734406,0.541183 -1.148194,0.802341 -0.414695,0.261712 -0.878086,0.533098 -1.360974,0.761888 -0.208074,0.09858 -0.434166,0.193969 -0.685838,0.30146 -0.293066,-0.282665 -0.644023,-0.524447 -1.035847,-0.713718 0.346105,-0.692413 0.617847,-1.197128 0.808067,-1.762017 0.230029,-0.683229 0.375066,-1.534097 0.444979,-2.292292 0.06938,-0.753288 0.06489,-1.415738 0.05271,-1.908112 -0.211091,-0.186533 -0.425618,-0.370497 -0.643496,-0.551834 0.01973,0.543929 0.03058,1.11637 0.0047,1.67264 -0.03517,0.757512 -0.13865,1.483497 -0.330339,2.208087 -0.192568,0.727816 -0.474634,1.453633 -0.694394,1.962118 -0.07138,0.165012 -0.138128,0.300758 -0.206155,0.442454 -0.435938,-0.143089 -0.895805,-0.221752 -1.355752,-0.231881 -0.148573,-0.0018 -0.296495,0.0037 -0.442958,0.01599 -0.52821,-0.733983 -0.999253,-1.290779 -1.516926,-1.835226 -0.667874,-0.702402 -1.417466,-1.393305 -2.386825,-2.092374 -0.967015,-0.697364 -2.151809,-1.402011 -3.297628,-1.951148 -1.144319,-0.548413 -2.247822,-0.940487 -3.26164,-1.246956 -1.013693,-0.306432 -1.938561,-0.527894 -2.74991,-0.698268 -0.811606,-0.170421 -1.510157,-0.290107 -2.191868,-0.37569 -0.682141,-0.08564 -1.34856,-0.13675 -1.88129,-0.155409 -0.277399,-0.0097 -0.51917,-0.01095 -0.758615,-0.01 -0.08592,-0.183281 -0.201858,-0.358237 -0.34494,-0.520606 0.588127,-0.352376 1.345991,-0.765671 2.059466,-1.142809 0.76573,-0.404776 1.461303,-0.761444 2.193107,-1.091449 0.729562,-0.328994 1.495306,-0.630938 2.267543,-0.923963 0.466494,-0.177015 0.934144,-0.350847 1.314852,-0.507163 -0.307043,-0.072 -0.615367,-0.14016 -0.924846,-0.204453 -0.330262,0.152868 -0.681623,0.269191 -1.232652,0.473645 -0.584885,0.217015 -1.395404,0.533972 -2.22228,0.919366 -0.829821,0.386767 -1.676209,0.84254 -2.305483,1.194834 -0.631144,0.353364 -1.04352,0.602427 -1.328971,0.74929 -0.107138,0.05516 -0.186335,0.09135 -0.267747,0.131013 -0.253796,-0.183167 -0.545866,-0.332357 -0.86304,-0.440881 0.03818,-0.405456 0.142743,-0.708562 0.273782,-1.043969 0.16324,-0.417779 0.363562,-0.893981 0.67572,-1.457337 0.242359,-0.437327 0.548681,-0.922468 0.77846,-1.299967 -0.395254,-0.0076 -0.790518,-0.0091 -1.185555,-0.0043 -0.141652,0.238659 -0.302286,0.515329 -0.483994,0.87128 -0.326583,0.63977 -0.714387,1.523344 -0.959635,2.149314 -0.08659,0.221219 -0.149076,0.406948 -0.199084,0.585531 -0.0072,-3.67e-4 -0.01437,-0.0011 -0.02157,-0.0015 -0.779107,-0.0215 -1.527243,0.192623 -2.080478,0.596297 -0.554998,0.40496 -0.869027,0.967926 -0.871614,1.565597 2.76e-4,0.0068 7.35e-4,0.01349 0.0011,0.02025 -0.0022,7.35e-4 -0.0058,0.0015 -0.0078,0.0022 -0.44797,0.108157 -0.901931,0.180304 -1.474589,0.357252 -0.57376,0.177287 -1.267044,0.459544 -1.791124,0.736159 -0.502351,0.265142 -0.855932,0.52609 -1.359537,0.807126 -0.250441,-0.08243 -0.518137,-0.128502 -0.789225,-0.135801 -0.775571,-0.01823 -1.499568,0.281581 -1.898027,0.787192 -0.533212,-0.07977 -1.059019,-0.279846 -1.569169,-0.527681 -0.703953,-0.341978 -1.373007,-0.768809 -1.926704,-1.261873 -0.552665,-0.492131 -0.987214,-1.047236 -1.34046,-1.511664 -0.1694,-0.222579 -0.31806,-0.422049 -0.446188,-0.606888 -0.274895,0.163449 -0.546248,0.330802 -0.813925,0.501984 0.126385,0.19295 0.26301,0.386962 0.407606,0.576476 0.383856,0.50305 0.824366,0.974134 1.320797,1.417282 0.497284,0.443909 1.05025,0.85956 1.608832,1.206253 0.559225,0.347072 1.122937,0.624276 1.581591,0.799082 0.338601,0.129053 0.619351,0.201381 0.868906,0.238812 -0.01297,0.915783 0.943493,1.678888 2.141834,1.70597 0.578718,0.01283 1.136198,-0.151494 1.549371,-0.456246 0.412211,-0.30404 0.646661,-0.722701 0.652497,-1.163552 0.0045,-0.41045 -0.189569,-0.809857 -0.544355,-1.121394 0.40779,-0.186625 0.753884,-0.363199 1.114161,-0.53957 0.469691,-0.229922 1.010356,-0.466872 1.492652,-0.643232 0.481477,-0.176052 0.904916,-0.291882 1.410575,-0.377392 0.0015,-2.39e-4 0.0042,-2.87e-4 0.0042,-7.35e-4 0.436687,0.892081 1.54348,1.503611 2.778256,1.533652 0.610556,0.01382 1.204309,-0.116955 1.700072,-0.37404 0.114088,0.07935 0.227019,0.160083 0.339718,0.243391 0.515968,0.381377 0.99471,0.844893 1.545729,1.440546 0.552411,0.597138 1.177723,1.327255 1.638431,2.12 0.462432,0.795719 0.758945,1.655025 0.910421,2.402356 0.152211,0.750283 0.157815,1.386598 0.130189,1.832326 -0.0059,0.09357 -0.014,0.175203 -0.02528,0.255179 -0.852022,0.0072 -1.649167,0.296233 -2.198535,0.798254 -0.05479,-0.02143 -0.107638,-0.04535 -0.162821,-0.06632 -0.73764,-0.280367 -1.50689,-0.517195 -2.358394,-0.709116 -0.851728,-0.191973 -1.786655,-0.33927 -2.816529,-0.437379 -1.030911,-0.09822 -2.158024,-0.147253 -3.222188,-0.118539 -1.066053,0.02874 -2.069429,0.135294 -3.087948,0.300427 -1.021025,0.165545 -2.063891,0.391472 -3.097169,0.702645 -1.036663,0.312195 -2.080507,0.714622 -2.993614,1.102037 -0.916312,0.388774 -1.709939,0.765321 -2.31313,1.057971 -0.327337,0.158811 -0.592625,0.290835 -0.826807,0.411413 -0.494325,-0.261775 -1.076072,-0.406492 -1.677017,-0.417157 -1.464082,-0.02275 -2.779212,0.746497 -3.173514,1.862804 -1.671239,-0.110553 -3.177262,0.05996 -4.255535,0.255505 -0.678128,0.12299 -1.188194,0.255818 -1.707216,0.392983 -0.06368,0.384562 -0.115911,0.770723 -0.156632,1.158163 0.245549,-0.09879 0.467746,-0.200127 0.771948,-0.294146 0.409436,-0.126532 0.96865,-0.240885 1.493611,-0.350589 0.524237,-0.109564 1.016887,-0.214949 1.509036,-0.266376 0.491664,-0.05138 0.982932,-0.04891 1.393459,-0.05516 0.257825,-0.0039 0.498019,-0.0079 0.845014,0.01694 0.06607,0.676658 0.482554,1.29796 1.153952,1.7193 -0.15364,0.227004 -0.292275,0.45994 -0.460377,0.792231 -0.33045,0.653221 -0.785976,1.698277 -1.123713,2.769604 -0.339785,1.077946 -0.559317,2.182078 -0.691965,3.209692 -0.133346,1.03337 -0.178613,1.987345 -0.158801,2.902893 0.02032,0.919891 0.105742,1.799668 0.209331,2.594486 0.100747,0.773682 0.219183,1.471039 0.306763,2.185488 0.335638,0.411167 0.686367,0.814664 1.051764,1.20994 -0.009,-0.07678 -0.01665,-0.15371 -0.02632,-0.231878 -0.11927,-0.95697 -0.311518,-2.002622 -0.46783,-3.000376 -0.155611,-0.992877 -0.276237,-1.938899 -0.292702,-2.959787 -0.01646,-1.015524 0.07041,-2.103771 0.250154,-3.211232 0.178683,-1.10078 0.449095,-2.219965 0.764594,-3.202092 0.313716,-0.976607 0.67314,-1.818948 0.891872,-2.260134 0.114106,-0.230231 0.200789,-0.359355 0.335793,-0.507233 0.406021,0.153652 0.850842,0.236454 1.304498,0.242856 1.094425,0.01319 2.128339,-0.417544 2.737543,-1.138054 0.136646,0.04724 0.271135,0.09622 0.407826,0.151292 0.625808,0.252209 1.303638,0.602938 1.9683,1.007504 0.665401,0.405045 1.317023,0.864103 1.991571,1.447374 0.67596,0.584507 1.375051,1.294333 1.949509,2.138825 0.576557,0.847575 1.028493,1.832528 1.321558,2.694609 0.294264,0.865646 0.425993,1.596454 0.534528,2.253306 0.01139,0.07145 0.01709,0.110347 0.02892,0.17951 -1.504641,0.236784 -2.61162,1.308629 -2.642977,2.569665 -0.01375,0.635823 0.250863,1.253457 0.746717,1.740395 -0.375709,0.508368 -0.683875,0.923842 -0.969021,1.386421 -0.406863,0.660138 -0.857039,1.54247 -1.174551,2.35125 -0.318968,0.812506 -0.50398,1.549033 -0.622633,2.261104 -0.119031,0.714784 -0.171175,1.40411 -0.248971,2.076894 -0.01433,0.118098 -0.02613,0.223491 -0.04191,0.339373 0.411725,0.201502 0.829096,0.395334 1.251774,0.581331 0.0033,-0.12335 0.0072,-0.238449 0.0104,-0.361582 0.01988,-0.777408 0.03929,-1.516011 0.08747,-2.130706 0.04792,-0.612728 0.124529,-1.103403 0.296987,-1.691188 0.17195,-0.585874 0.438121,-1.268217 0.725541,-1.846402 0.286402,-0.576245 0.594191,-1.049368 0.854043,-1.436066 0.259258,-0.385779 0.471543,-0.685798 0.617051,-0.911335 0.0088,-0.01437 0.01985,-0.03245 0.02903,-0.04642 0.494083,0.243539 1.059321,0.373397 1.637127,0.376139 0.828645,0.0018 1.627568,-0.257935 2.232913,-0.724593 0.600552,0.385584 1.16293,0.609453 1.748197,0.821463 0.649598,0.235299 1.329589,0.467507 2.12272,0.689407 0.793153,0.221896 1.699292,0.432946 2.787154,0.613437 1.087174,0.180381 2.355108,0.329998 3.506627,0.347723 1.149678,0.01768 2.182173,-0.09582 3.143862,-0.227262 0.959727,-0.1312 1.848034,-0.280511 2.628027,-0.489499 0.778232,-0.208526 1.445882,-0.474869 2.167538,-0.817402 0.04593,-0.02179 0.09268,-0.04855 0.138973,-0.07094 1.0972,0.928815 2.582715,1.456713 4.109414,1.459892 0.571346,-3.68e-4 1.134768,-0.07474 1.670512,-0.21997 0.222105,0.360086 0.427242,0.699881 0.686978,1.087178 0.321401,0.479253 0.734016,1.040922 1.116693,1.503817 0.383394,0.463755 0.736012,0.827623 1.086638,1.233274 0.121674,0.14077 0.241741,0.286924 0.355256,0.434136 0.28326,-0.179285 0.562213,-0.362695 0.836734,-0.550132 -0.391376,-0.481778 -0.777508,-0.902857 -1.224563,-1.435353 -0.517751,-0.616719 -1.116212,-1.382952 -1.583845,-2.230376 -0.07933,-0.143758 -0.150546,-0.289747 -0.22313,-0.435383 1.44461,-0.707948 2.381889,-1.945624 2.54865,-3.352638 0.315925,0.024 0.677716,0.03565 1.134209,0.04197 0.781859,0.0108 1.817052,0.01176 2.695793,-0.02955 0.877388,-0.04147 1.597607,-0.125547 2.395792,-0.206261 0.471568,-0.0477 0.967386,-0.09314 1.370151,-0.105599 0.206402,-0.386066 0.40001,-0.776398 0.58067,-1.170586 -0.377216,0.07547 -0.867333,0.154574 -1.396524,0.226806 -0.684597,0.09343 -1.428345,0.174898 -2.142713,0.238309 -0.715354,0.06351 -1.401817,0.109171 -2.085832,0.133909 -0.684839,0.02477 -1.366851,0.02852 -1.920655,0.03267 -0.288329,0.0022 -0.413439,0.0037 -0.620105,0.0058 -0.03366,-0.331085 -0.1097,-0.659738 -0.226673,-0.980304 0.3726,-0.101137 0.791878,-0.226446 1.360544,-0.429194 0.831155,-0.296337 1.925496,-0.729202 2.790208,-1.119626 0.861806,-0.389098 1.496026,-0.736199 2.068206,-1.07992 0.570622,-0.34279 1.079986,-0.681685 1.579431,-1.043965 0.498081,-0.361284 0.986551,-0.745674 1.386957,-1.082779 0.38414,-0.323393 0.690271,-0.607384 1.117039,-1.022204 0.04834,-0.395247 0.08458,-0.791412 0.108723,-1.188132 0,0 2.9e-4,8e-6 2.9e-4,8e-6 M 83.485374,43.8342 c 0.01672,0.254109 0.02043,0.515902 0.0053,0.785579 -0.05733,1.08283 -0.389737,2.291186 -0.76789,3.217365 -0.38031,0.931417 -0.80616,1.574862 -1.267416,2.213658 -0.405389,0.561419 -0.86895,1.12916 -1.817515,1.851709 -1.036343,-0.730407 -2.335832,-1.139218 -3.661256,-1.151952 -3.033438,-0.02606 -5.432656,1.995099 -5.345628,4.545208 0.02528,0.727118 0.255421,1.447628 0.672821,2.103149 -1.00463,0.473767 -2.28826,0.76007 -3.42713,0.96241 -1.190523,0.211513 -2.218649,0.333202 -3.562879,0.298259 -1.346645,-0.03506 -2.988388,-0.224932 -4.232676,-0.458835 -1.245033,-0.234038 -2.05865,-0.510845 -2.830539,-0.787067 -0.771668,-0.276137 -1.534486,-0.562918 -2.136358,-0.864977 -0.04791,-0.02403 -0.08952,-0.0502 -0.135757,-0.07461 0.08307,-0.234932 0.126301,-0.477868 0.128554,-0.721925 7.35e-4,-0.145596 -0.01301,-0.290894 -0.04126,-0.434427 1.246816,-0.530103 2.554214,-0.992866 3.798678,-1.471068 1.30562,-0.501683 2.540374,-1.022422 3.837606,-1.594216 1.290845,-0.568971 2.642724,-1.187969 4.032662,-1.906469 1.381732,-0.714277 2.79915,-1.526511 4.143961,-2.34649 1.3362,-0.814734 2.600385,-1.637027 3.575191,-2.375421 0.969462,-0.73435 1.654139,-1.386469 2.277624,-1.971431 0.620884,-0.582533 1.182064,-1.098501 1.729466,-1.66343 0.545285,-0.562691 1.076384,-1.173915 1.377674,-1.653904 0.0477,-0.07606 0.0834,-0.147348 0.121755,-0.219701 0.248206,0.0446 0.499603,0.06918 0.750305,0.07338 0.505762,0.0071 1.000058,-0.06899 1.452346,-0.223318 0.429657,0.699168 0.678896,1.220612 0.883746,1.805207 0.214814,0.612923 0.389127,1.303083 0.438875,2.063325 0,0 -2.03e-4,-7e-6 -2.03e-4,-7e-6 m -4.528313,-4.019938 c -0.05266,0.07752 -0.101839,0.152111 -0.16503,0.237122 -0.41156,0.553263 -1.084734,1.316512 -1.982916,2.187204 -0.903769,0.876109 -2.036659,1.862756 -3.329374,2.840804 -1.302212,0.985243 -2.766955,1.962464 -4.336117,2.890533 -1.580827,0.934963 -3.266716,1.819988 -4.713642,2.524239 -1.455492,0.708433 -2.665197,1.231928 -3.820549,1.717076 -1.160321,0.487225 -2.265518,0.935482 -3.207274,1.294928 -0.944871,0.360627 -1.724268,0.631369 -2.239424,0.791849 -0.182829,0.05696 -0.32884,0.09155 -0.483135,0.129259 -0.298541,-0.429002 -0.7379,-0.779988 -1.267978,-1.013266 0.562342,-0.896422 1.026112,-1.723214 1.530286,-2.537132 0.597778,-0.9651 1.274255,-1.936598 1.971718,-2.89971 0.693204,-0.957187 1.4226,-1.928619 2.180821,-2.852127 0.75363,-0.917888 1.536302,-1.789422 2.202166,-2.475242 0.662688,-0.682578 1.210979,-1.183284 1.590614,-1.516651 0.125815,-0.110501 0.239338,-0.200392 0.354499,-0.294877 0.593217,0.524108 1.429484,0.831588 2.300877,0.845818 1.320552,0.01874 2.472541,-0.634507 2.865119,-1.619637 0.876753,0.06905 1.783351,0.04819 2.513891,0.01474 0.941626,-0.04313 1.588684,-0.102633 2.295122,-0.186776 0.705346,-0.08401 1.469502,-0.19284 2.227407,-0.321471 0.619931,-0.105216 1.25804,-0.23807 2.25002,-0.597785 0.345841,0.345775 0.776736,0.632799 1.26298,0.841111 0,0 -8.1e-5,-2.2e-5 -8.1e-5,-2.2e-5 m -0.560717,-5.093011 c -1.029258,0.513131 -1.622717,1.429994 -1.569927,2.434176 0.01985,0.371129 0.12765,0.741223 0.317928,1.090746 -0.439282,0.156621 -0.821095,0.271206 -1.189649,0.366168 -0.689859,0.17775 -1.351827,0.300831 -2.210868,0.399778 -0.860681,0.09912 -1.920237,0.173714 -2.771704,0.210492 -0.852753,0.03683 -1.497547,0.03539 -2.063998,0.01419 -0.126356,-0.0046 -0.24363,-0.01713 -0.364448,-0.02455 -0.05982,-0.873206 -0.704196,-1.671475 -1.686029,-2.092293 0.124004,-0.391365 0.17822,-0.804778 0.174916,-1.223534 -0.0059,-0.828975 -0.219323,-1.67518 -0.466081,-2.395984 -0.392777,-1.147825 -0.873276,-1.979987 -1.406315,-2.700427 -0.531367,-0.718113 -1.115822,-1.326292 -1.681567,-1.877534 -0.564492,-0.550015 -1.111794,-1.044311 -1.617608,-1.332974 -0.01555,-0.0087 -0.02933,-0.01441 -0.04466,-0.02282 0.07555,-0.141061 0.131582,-0.288178 0.167239,-0.439029 0.815884,0.0384 1.651294,0.112718 2.493599,0.228482 1.133783,0.155823 2.279694,0.386106 3.36427,0.676393 1.08455,0.290265 2.10918,0.64077 3.113299,1.056689 1.004887,0.416242 1.990179,0.898255 2.949071,1.513292 0.960815,0.616245 1.895491,1.366241 2.597923,2.007076 0.657337,0.599704 1.123121,1.122456 1.89458,2.11168 0,0 2.6e-5,-1.1e-5 2.6e-5,-1.1e-5 m -15.700623,5.452417 c -0.115209,0.116051 -0.227806,0.23757 -0.349016,0.34587 -0.423729,0.378565 -0.909032,0.717235 -1.563282,1.359016 -0.657209,0.644672 -1.4875,1.59796 -2.18096,2.403554 -0.697232,0.809963 -1.255067,1.468719 -1.943045,2.371415 -0.692038,0.908032 -1.517974,2.065273 -2.20978,3.133281 -0.678617,1.047611 -1.23252,2.014479 -1.987882,3.200427 -0.249926,-0.856385 -0.406871,-1.803932 -0.710796,-2.672801 -0.320005,-0.914849 -0.807406,-1.740123 -1.330915,-2.50962 -0.521794,-0.766953 -1.080185,-1.479557 -1.764005,-2.13441 -0.682123,-0.653229 -1.489731,-1.250209 -2.280734,-1.746026 -0.789809,-0.495086 -1.564053,-0.889564 -2.151029,-1.155025 -0.240188,-0.108623 -0.456041,-0.194299 -0.69642,-0.277744 0.05638,-0.174662 0.0886,-0.353217 0.09614,-0.532543 0.01889,-0.52878 -0.177389,-1.045241 -0.55964,-1.474486 0.14521,-0.08702 0.296432,-0.17048 0.486229,-0.268092 0.563852,-0.289982 1.451251,-0.733373 2.174278,-1.068806 0.720907,-0.334452 1.284498,-0.564525 1.990796,-0.802047 0.704615,-0.236957 1.560007,-0.485509 2.32542,-0.66948 0.763767,-0.183568 1.438095,-0.302423 2.499837,-0.406824 1.059386,-0.10418 2.503419,-0.193299 3.664251,-0.174427 1.158892,0.01867 2.036692,0.14492 2.856453,0.279332 0.819361,0.134345 1.579824,0.276714 2.175925,0.431839 0.59604,0.155122 1.02685,0.322618 1.308339,0.454597 0.02955,0.01385 0.04761,0.02495 0.0744,0.03813 -0.137569,0.279688 -0.206842,0.579512 -0.204038,0.88396 0.0057,0.339391 0.100857,0.676933 0.279566,0.990921 0,0 -9.5e-5,-7e-6 -9.5e-5,-7e-6"
         style="opacity:1;fill:#ffffff;fill-opacity:1;stroke:none;stroke-width:0.06093347;stroke-miterlimit:4;stroke-dasharray:none;stroke-dashoffset:0;stroke-opacity:1"
         inkscape:connector-curvature="0" />
    </g>
  </g>
</svg>
