<?xml version="1.0" encoding="UTF-8" standalone="no"?>
<!-- Created with Inkscape (http://www.inkscape.org/) -->

<svg
   xmlns:osb="http://www.openswatchbook.org/uri/2009/osb"
   xmlns:dc="http://purl.org/dc/elements/1.1/"
   xmlns:cc="http://creativecommons.org/ns#"
   xmlns:rdf="http://www.w3.org/1999/02/22-rdf-syntax-ns#"
   xmlns:svg="http://www.w3.org/2000/svg"
   xmlns="http://www.w3.org/2000/svg"
   xmlns:xlink="http://www.w3.org/1999/xlink"
   xmlns:sodipodi="http://sodipodi.sourceforge.net/DTD/sodipodi-0.dtd"
   xmlns:inkscape="http://www.inkscape.org/namespaces/inkscape"
   width="128"
   height="128"
   viewBox="0 0 33.866666 33.866668"
   version="1.1"
   id="svg8"
   inkscape:version="0.92.3 (2405546, 2018-03-11)"
   sodipodi:docname="preferences-system-network-server-nis.svg">
  <defs
     id="defs2">
    <linearGradient
       inkscape:collect="always"
       id="linearGradient2564">
      <stop
         style="stop-color:#433d29;stop-opacity:1"
         offset="0"
         id="stop2560" />
      <stop
         style="stop-color:#383329;stop-opacity:1"
         offset="1"
         id="stop2562" />
    </linearGradient>
    <linearGradient
       id="linearGradient2536"
       inkscape:collect="always">
      <stop
         id="stop2532"
         offset="0"
         style="stop-color:#ffcd2d;stop-opacity:1" />
      <stop
         id="stop2534"
         offset="1"
         style="stop-color:#f3a902;stop-opacity:1" />
    </linearGradient>
    <linearGradient
       osb:paint="solid"
       id="linearGradient6987">
      <stop
         id="stop6985"
         offset="0"
         style="stop-color:#77d2fb;stop-opacity:1;" />
    </linearGradient>
    <linearGradient
       id="linearGradient6088"
       osb:paint="solid">
      <stop
         style="stop-color:#51b3e3;stop-opacity:1;"
         offset="0"
         id="stop6086" />
    </linearGradient>
    <linearGradient
       inkscape:collect="always"
       xlink:href="#linearGradient2536"
       id="linearGradient1001"
       x1="23.226124"
       y1="281.47842"
       x2="25.925632"
       y2="293.77277"
       gradientUnits="userSpaceOnUse"
       gradientTransform="matrix(0.99834358,0,0,0.99834358,0.00175389,0.46391094)" />
    <linearGradient
       inkscape:collect="always"
       xlink:href="#linearGradient2564"
       id="linearGradient2566"
       x1="26.435877"
       y1="292.41589"
       x2="26.435877"
       y2="283.11758"
       gradientUnits="userSpaceOnUse"
       gradientTransform="matrix(0.8621346,0,0,0.8621346,2.0482082,39.651091)" />
  </defs>
  <sodipodi:namedview
     id="base"
     pagecolor="#ffffff"
     bordercolor="#666666"
     borderopacity="1.0"
     inkscape:pageopacity="0.0"
     inkscape:pageshadow="2"
     inkscape:zoom="0.7"
     inkscape:cx="184.87492"
     inkscape:cy="121.08848"
     inkscape:document-units="mm"
     inkscape:current-layer="layer1"
     showgrid="false"
     inkscape:window-width="1529"
     inkscape:window-height="837"
     inkscape:window-x="71"
     inkscape:window-y="27"
     inkscape:window-maximized="1"
     showguides="false"
     units="px" />
  <metadata
     id="metadata5">
    <rdf:RDF>
      <cc:Work
         rdf:about="">
        <dc:format>image/svg+xml</dc:format>
        <dc:type
           rdf:resource="http://purl.org/dc/dcmitype/StillImage" />
        <dc:title></dc:title>
      </cc:Work>
    </rdf:RDF>
  </metadata>
  <g
     inkscape:label="Layer 1"
     inkscape:groupmode="layer"
     id="layer1"
     transform="translate(0,-263.13332)">
    <circle
       r="14.999607"
       cy="279.94278"
       cx="16.057941"
       id="circle31916"
       style="opacity:0.25;fill:#000000;fill-opacity:1;stroke:none;stroke-width:0.18897143;stroke-miterlimit:4;stroke-dasharray:none;stroke-dashoffset:0;stroke-opacity:1" />
    <circle
       style="opacity:1;fill:#2f2f2f;fill-opacity:1;stroke:none;stroke-width:0.18897143;stroke-miterlimit:4;stroke-dasharray:none;stroke-dashoffset:0;stroke-opacity:1"
       id="path920"
       cx="16.057941"
       cy="279.44278"
       r="14.999607" />
    <circle
       id="circle31941"
       r="7.8690429"
       cy="287.82111"
       cx="24.839457"
       style="color:#000000;opacity:0.25;fill:#000000;stroke:none;stroke-width:0.18897143;stroke-miterlimit:4;stroke-dasharray:none;stroke-opacity:1" />
    <path
       inkscape:connector-curvature="0"
       style="opacity:1;fill:#cccccc;fill-opacity:1;stroke:none;stroke-width:0.04401699;stroke-miterlimit:4;stroke-dasharray:none;stroke-dashoffset:0;stroke-opacity:1"
       d="m 18.123806,264.60382 c 0.06512,0.0553 0.13152,0.11119 0.201167,0.16796 0.293148,0.23894 0.631753,0.49603 1.015598,0.89499 0.383844,0.39897 0.813441,0.93999 1.175262,1.457 0.36182,0.51702 0.655809,1.00999 0.900855,1.49117 0.245046,0.48118 0.440812,0.95064 0.590805,1.31003 0.04584,0.10985 0.08089,0.19048 0.119138,0.28026 a 2.7157618,2.7157618 0 0 0 -0.694318,0.37842 c -0.271159,-0.28873 -0.460446,-0.46469 -0.707501,-0.65917 -0.334159,-0.26305 -0.77569,-0.56246 -1.20407,-0.80906 -0.42838,-0.24661 -0.843712,-0.44015 -1.294888,-0.57225 -0.451177,-0.13211 -0.938005,-0.20239 -1.348597,-0.23974 -0.256622,-0.0234 -0.483703,-0.0339 -0.70799,-0.0312 -0.134571,0.002 -0.268048,0.008 -0.406728,0.0191 -0.369813,0.0297 -0.775763,0.0935 -1.131806,0.1748 -0.356042,0.0813 -0.662262,0.17998 -0.911108,0.25243 -0.127647,0.0371 -0.245204,0.0692 -0.40331,0.1211 a 1.9092246,1.9092246 0 0 0 -1.462364,-0.68455 1.9092246,1.9092246 0 0 0 -0.699201,0.13281 c -0.144838,-0.24935 -0.243719,-0.42062 -0.348623,-0.58251 -0.156202,-0.24107 -0.398572,-0.58344 -0.705061,-0.93064 -0.2465767,-0.27934 -0.5328189,-0.56043 -0.72166,-0.75584 a 14.999607,14.999607 0 0 0 -0.4828973,0.26123 c 0.1482651,0.16946 0.3355754,0.34849 0.5043812,0.52489 0.1982141,0.20711 0.3703386,0.41043 0.549302,0.63914 0.1789631,0.22872 0.3645841,0.48289 0.5219591,0.74509 0.06771,0.11281 0.133493,0.23484 0.207514,0.37059 a 1.9092246,1.9092246 0 0 0 -0.456531,0.51611 c -0.4625649,-0.2064 -0.8013204,-0.36766 -1.1801449,-0.48876 -0.4599672,-0.14702 -1.0333739,-0.25609 -1.545858,-0.32226 -0.5114314,-0.066 -0.9619775,-0.0894 -1.2978175,-0.10205 A 14.999607,14.999607 0 0 0 5.832624,268.4851 c 0.3718075,0.0102 0.7620285,0.0262 1.1405951,0.061 0.5135538,0.0472 1.0046941,0.12918 1.4941016,0.25731 0.4894067,0.12814 0.9765786,0.30264 1.31686,0.43603 0.1101913,0.0432 0.2008607,0.083 0.2954023,0.12353 a 1.9092246,1.9092246 0 0 0 -0.134762,0.70116 1.9092246,1.9092246 0 0 0 0.016602,0.23192 c -0.478192,0.25255 -0.8409942,0.48152 -1.1957694,0.73582 -0.4588937,0.32896 -0.9101639,0.70208 -1.3647102,1.19138 -0.4545463,0.4893 -0.9115391,1.09403 -1.2646154,1.68305 -0.3530758,0.58903 -0.6008495,1.16038 -0.7919715,1.68649 -0.1911218,0.5261 -0.3258632,1.00703 -0.427723,1.42916 -0.1018593,0.42213 -0.1710733,0.78566 -0.2172796,1.14059 -0.046206,0.35494 -0.069111,0.70177 -0.072263,0.97899 -0.00165,0.14427 0.0018,0.27001 0.00684,0.39451 a 1.5259404,1.5259404 0 0 0 -0.3491121,0.17627 C 4.0328599,279.40381 3.7351224,279.00525 3.4620806,278.62884 3.168026,278.22347 2.9076431,277.85411 2.66425,277.46481 2.4208563,277.07551 2.1948752,276.66623 1.9743267,276.25244 1.8407825,276.00189 1.709212,275.75032 1.5915242,275.54494 a 14.999607,14.999607 0 0 0 -0.1245084,0.48875 c 0.1142968,0.17812 0.2032287,0.36663 0.3579008,0.6621 0.1638279,0.31296 0.4015778,0.74571 0.6865054,1.18649 0.284927,0.44078 0.6168569,0.88926 0.8720474,1.22165 0.2551906,0.33237 0.4339874,0.5491 0.5400251,0.69871 0.039795,0.0561 0.066056,0.0975 0.094724,0.14013 a 1.5259404,1.5259404 0 0 0 -0.2861255,0.44726 c -0.2791944,-0.0215 -0.4898017,-0.0772 -0.7236138,-0.14697 -0.2919396,-0.0872 -0.6259309,-0.19425 -1.0238989,-0.36083 -0.3099654,-0.12977 -0.6556639,-0.2939 -0.9252687,-0.41747 a 14.999607,14.999607 0 0 0 0.021973,0.62498 c 0.1702659,0.0757 0.367246,0.16138 0.6196126,0.2583 0.4521156,0.17362 1.0721682,0.3792 1.5087496,0.50877 0.1538737,0.0456 0.282702,0.0786 0.4062393,0.10498 a 1.5259404,1.5259404 0 0 0 -5e-4,0.0112 1.5259404,1.5259404 0 0 0 1.5258387,1.52633 1.5259404,1.5259404 0 0 0 0.013672,-5e-4 c 4.999e-4,10e-4 9.749e-4,0.003 0.00148,0.004 0.08086,0.22997 0.1374234,0.46283 0.2665945,0.75584 0.1291714,0.29301 0.3306011,0.6459 0.5248887,0.91159 0.1857921,0.25409 0.365924,0.43199 0.5615089,0.68554 a 1.0974675,1.0974675 0 0 0 -0.077635,0.40184 1.0974675,1.0974675 0 0 0 0.553208,0.95163 c -0.044394,0.27007 -0.1685698,0.538 -0.3246985,0.79882 -0.2155949,0.36015 -0.4883707,0.70443 -0.807596,0.99215 -0.3192252,0.28773 -0.6832889,0.51756 -0.9887436,0.70506 -0.1466155,0.09 -0.2781853,0.16923 -0.40038,0.2378 a 14.999607,14.999607 0 0 0 0.3520415,0.40086 c 0.1272654,-0.0679 0.2549571,-0.1409 0.3793845,-0.21777 0.3297853,-0.20376 0.6365931,-0.43497 0.9233156,-0.69334 0.2867223,-0.25837 0.5533475,-0.54382 0.7739057,-0.83054 0.220558,-0.28674 0.3947304,-0.57441 0.5029163,-0.8076 0.079852,-0.17211 0.1232028,-0.31434 0.1440392,-0.44042 A 1.0974675,1.0974675 0 0 0 8.6269889,285.25763 1.0974675,1.0974675 0 0 0 7.5293614,284.16 1.0974675,1.0974675 0 0 0 6.7945172,284.44418 c -0.1306999,-0.20582 -0.2539251,-0.38065 -0.3774314,-0.56298 -0.1612975,-0.23812 -0.3288142,-0.51295 -0.4550663,-0.75877 -0.1262512,-0.24582 -0.2112417,-0.46247 -0.2773365,-0.72166 -1.872e-4,-7.2e-4 -3e-4,-0.002 -5e-4,-0.002 a 1.5259404,1.5259404 0 0 0 0.9828845,-1.42574 1.5259404,1.5259404 0 0 0 -0.278313,-0.87547 c 0.051378,-0.0584 0.1036861,-0.11619 0.1577106,-0.17382 0.2471248,-0.26365 0.5493771,-0.50725 0.9379637,-0.7866 0.3885863,-0.27937 0.8631332,-0.59428 1.3798466,-0.82322 0.5167133,-0.22894 1.0752946,-0.37159 1.5605056,-0.44091 0.485211,-0.0694 0.896747,-0.0653 1.184539,-0.0464 0.06032,0.004 0.112959,0.009 0.164547,0.0156 a 1.5437624,1.5437624 0 0 0 0.537583,1.11863 c -0.01306,0.0274 -0.02775,0.0539 -0.04052,0.0816 -0.170784,0.36978 -0.313388,0.75586 -0.426258,1.18357 -0.112872,0.42771 -0.19608,0.89719 -0.246576,1.41402 -0.0505,0.51682 -0.0683,1.08108 -0.03711,1.61276 0.03118,0.53166 0.111184,1.03065 0.228509,1.5356 0.117325,0.50494 0.272925,1.01877 0.481921,1.52535 0.208997,0.50657 0.47417,1.01363 0.72752,1.45503 0.253351,0.44141 0.496918,0.82173 0.685529,1.10984 0.102157,0.15605 0.186909,0.2823 0.264154,0.39355 a 1.5259404,1.5259404 0 0 0 -0.242181,0.82225 1.5259404,1.5259404 0 0 0 1.181121,1.48481 c -0.05237,0.80424 0.06594,1.51944 0.195307,2.02779 0.08119,0.31901 0.166731,0.55727 0.254876,0.79929 a 14.999607,14.999607 0 0 0 0.704084,0.0351 c -0.06182,-0.11294 -0.125036,-0.21483 -0.184566,-0.35594 -0.08021,-0.19013 -0.154398,-0.45207 -0.22558,-0.69823 -0.07118,-0.24616 -0.139642,-0.47772 -0.175289,-0.71092 -0.03565,-0.2332 -0.03847,-0.46796 -0.04589,-0.66404 -0.0047,-0.1232 -0.0092,-0.23802 0.0029,-0.40478 a 1.5259404,1.5259404 0 0 0 1.036105,-0.59569 c 0.138641,0.0677 0.280553,0.12798 0.48241,0.19971 0.395632,0.14059 1.024835,0.32972 1.664995,0.46142 0.64016,0.13167 1.291101,0.20546 1.893018,0.24022 0.601916,0.0347 1.154299,0.0304 1.681596,-0.003 0.527296,-0.0336 1.029079,-0.0961 1.48043,-0.16454 0.437642,-0.0663 0.830623,-0.13852 1.231901,-0.19678 a 14.999607,14.999607 0 0 0 0.675276,-0.5117 c -0.04283,0.006 -0.08576,0.0113 -0.129392,0.0176 -0.535566,0.0777 -1.123539,0.19147 -1.687456,0.28808 -0.563917,0.0966 -1.103893,0.17635 -1.689897,0.20996 -0.586004,0.0336 -1.217893,0.0211 -1.865185,-0.0346 -0.64729,-0.0557 -1.30997,-0.15455 -1.895458,-0.2788 -0.585489,-0.12426 -1.093805,-0.27427 -1.361293,-0.36766 -0.139866,-0.0488 -0.218575,-0.0871 -0.309074,-0.14795 a 1.5259404,1.5259404 0 0 0 0.136715,-0.6289 1.5259404,1.5259404 0 0 0 -0.71336,-1.28999 c 0.02767,-0.0667 0.05642,-0.13238 0.08886,-0.19922 0.148534,-0.30598 0.356532,-0.63853 0.597153,-0.96531 0.240619,-0.32676 0.513751,-0.64726 0.861305,-0.97996 0.347553,-0.33268 0.769436,-0.67721 1.271451,-0.96237 0.502014,-0.28516 1.084277,-0.51089 1.592243,-0.65868 0.507966,-0.14777 0.935677,-0.21653 1.318814,-0.27342 0.0416,-0.006 0.06424,-0.009 0.104489,-0.0152 a 1.5259404,1.5259404 0 0 0 1.494102,1.22409 1.5259404,1.5259404 0 0 0 0.992161,-0.36865 c 0.289427,0.17057 0.525291,0.31009 0.78709,0.43799 0.372342,0.18187 0.867614,0.38043 1.3193,0.51756 0.451685,0.13711 0.859338,0.21293 1.25192,0.25829 0.392582,0.0453 0.769829,0.0602 1.13669,0.087 0.06426,0.005 0.121584,0.009 0.184565,0.0147 a 14.999607,14.999607 0 0 0 0.317374,-0.5786 c -0.06692,-6e-5 -0.129401,-5e-4 -0.196284,-5e-4 -0.423247,0 -0.826926,-2.5e-4 -1.164032,-0.0152 -0.337104,-0.0149 -0.607832,-0.0444 -0.933081,-0.11719 -0.325246,-0.0728 -0.705424,-0.18839 -1.02878,-0.31543 -0.323358,-0.12702 -0.589763,-0.26547 -0.808084,-0.38279 -0.218323,-0.11734 -0.388489,-0.21377 -0.516589,-0.27979 -0.0082,-0.004 -0.01845,-0.009 -0.02637,-0.0132 a 1.5259404,1.5259404 0 0 0 0.210442,-0.77 1.5259404,1.5259404 0 0 0 -0.416004,-1.04537 c 0.218459,-0.28451 0.344813,-0.55024 0.464343,-0.82664 0.132627,-0.3067 0.263414,-0.62765 0.388173,-1.00193 0.124759,-0.37429 0.243237,-0.802 0.344229,-1.31589 0.100994,-0.51388 0.184448,-1.11404 0.193355,-1.6606 0.0089,-0.54655 -0.05658,-1.03954 -0.132319,-1.49995 -0.07576,-0.46044 -0.161919,-0.88787 -0.28222,-1.26511 -0.120304,-0.37724 -0.273866,-0.70306 -0.471668,-1.0571 -0.01261,-0.0226 -0.02806,-0.0456 -0.04101,-0.0684 a 2.7157618,2.7157618 0 0 0 0.832008,-1.95551 2.7157618,2.7157618 0 0 0 -0.127927,-0.81493 c 0.206202,-0.0984 0.400488,-0.18903 0.621567,-0.30467 0.273068,-0.14284 0.592372,-0.32725 0.854958,-0.49951 0.262585,-0.17225 0.468283,-0.33218 0.697249,-0.48972 0.07937,-0.0546 0.161725,-0.10826 0.244621,-0.15869 a 14.999607,14.999607 0 0 0 -0.309562,-0.4204 c -0.272351,0.17468 -0.510822,0.34896 -0.812967,0.54979 -0.35074,0.23312 -0.787757,0.50181 -1.272916,0.70555 -0.08248,0.0346 -0.166313,0.0653 -0.249994,0.0966 a 2.7157618,2.7157618 0 0 0 -1.953562,-1.34567 c 0.01322,-0.15498 0.01904,-0.33304 0.02148,-0.5581 0.0042,-0.3858 0.0019,-0.89773 -0.0249,-1.33443 -0.02689,-0.43671 -0.07849,-0.79761 -0.128414,-1.19772 -0.02954,-0.2367 -0.05784,-0.48562 -0.0664,-0.687 a 14.999607,14.999607 0 0 0 -0.69627,-0.33934 c 0.04621,0.19206 0.09493,0.44055 0.139644,0.70798 0.05775,0.34551 0.108526,0.7195 0.148434,1.07762 0.03991,0.3581 0.06912,0.70072 0.08594,1.04098 0.0168,0.34026 0.0212,0.67805 0.02539,0.95212 0.0022,0.14259 0.0035,0.20447 0.0054,0.30664 a 2.7157618,2.7157618 0 0 0 -0.578585,0.0816 c -0.0613,-0.18772 -0.137185,-0.39958 -0.259759,-0.68845 -0.179583,-0.42322 -0.442325,-0.98381 -0.679669,-1.43014 -0.237346,-0.44634 -0.449126,-0.77817 -0.659163,-1.07957 -0.210038,-0.3014 -0.41797,-0.57251 -0.640608,-0.84031 -0.222638,-0.26779 -0.459939,-0.53245 -0.66844,-0.75095 -0.200498,-0.21012 -0.376767,-0.37913 -0.634749,-0.6162 a 14.999607,14.999607 0 0 0 -0.735332,-0.11132 z m -2.077583,4.162 c 0.15931,5.7e-4 0.323317,0.008 0.492175,0.0254 0.675434,0.0676 1.426264,0.27851 1.998971,0.50145 0.572708,0.22295 0.967416,0.45814 1.357874,0.70994 0.341829,0.22045 0.686506,0.46928 1.124971,0.96286 a 2.7157618,2.7157618 0 0 0 -0.673322,1.78658 2.7157618,2.7157618 0 0 0 2.715749,2.71575 2.7157618,2.7157618 0 0 0 1.220672,-0.29051 c 0.275545,0.49301 0.442771,1.11555 0.56102,1.66547 0.123264,0.57326 0.194571,1.0664 0.176754,1.70797 -0.01782,0.64157 -0.123515,1.42153 -0.254878,2.01166 -0.131361,0.59014 -0.287945,0.97554 -0.444323,1.34128 -0.156379,0.36574 -0.318931,0.72744 -0.49071,1.01315 -0.01367,0.0228 -0.02858,0.0425 -0.04248,0.0645 a 1.5259404,1.5259404 0 0 0 -0.415516,-0.0586 1.5259404,1.5259404 0 0 0 -0.250482,0.021 c -0.31059,-0.59168 -0.583648,-1.21504 -0.866676,-1.81099 -0.298255,-0.62801 -0.608786,-1.22481 -0.951148,-1.85493 -0.342362,-0.63011 -0.716488,-1.2936 -1.152313,-1.98042 -0.435826,-0.68681 -0.93363,-1.39683 -1.438927,-2.07563 -0.505297,-0.6788 -1.017985,-1.32615 -1.479942,-1.83051 -0.461955,-0.50436 -0.872853,-0.86561 -1.243131,-1.19578 -0.370277,-0.33017 -0.699631,-0.62947 -1.061008,-0.92428 -0.361376,-0.29483 -0.754922,-0.58505 -1.063937,-0.75438 -0.04906,-0.0269 -0.09496,-0.0474 -0.141598,-0.0694 a 1.9092246,1.9092246 0 0 0 0.03907,-0.38328 1.9092246,1.9092246 0 0 0 -0.1582,-0.75536 c 0.4428,-0.19706 0.772822,-0.30699 1.142548,-0.39159 0.386486,-0.0885 0.820866,-0.15311 1.298794,-0.15136 z m -2.504328,2.18744 c 0.05014,0.0294 0.09834,0.0568 0.153316,0.0917 0.357059,0.22707 0.848497,0.59273 1.407189,1.07371 0.558691,0.48098 1.184701,1.0771 1.802199,1.74898 0.617501,0.67187 1.226707,1.41946 1.802199,2.21234 0.575492,0.79288 1.117391,1.63082 1.546346,2.34467 0.428957,0.71382 0.744916,1.30354 1.036595,1.8642 0.291678,0.56066 0.559072,1.09244 0.772928,1.54391 0.213857,0.45148 0.374197,0.82285 0.469227,1.06784 0.03369,0.0869 0.05426,0.15622 0.07666,0.22949 a 1.5259404,1.5259404 0 0 0 -0.584457,0.60789 c -0.525835,-0.26369 -1.013172,-0.48191 -1.495566,-0.72068 -0.575161,-0.28468 -1.158077,-0.60912 -1.739701,-0.94577 -0.581622,-0.33667 -1.175762,-0.69312 -1.744582,-1.0659 -0.568821,-0.37278 -1.112713,-0.76201 -1.543418,-1.0947 -0.430704,-0.33267 -0.748531,-0.60868 -0.960911,-0.80027 -0.07051,-0.0636 -0.128021,-0.12095 -0.188473,-0.17919 a 1.5437624,1.5437624 0 0 0 0.508288,-1.14255 1.5437624,1.5437624 0 0 0 -1.048312,-1.46041 c 0.03471,-0.44169 0.01217,-0.90047 -0.0166,-1.27097 -0.03714,-0.47826 -0.08168,-0.808 -0.142575,-1.16891 -0.0609,-0.36091 -0.138344,-0.75297 -0.228509,-1.14303 -0.07388,-0.3196 -0.165758,-0.64974 -0.407217,-1.16843 a 1.9092246,1.9092246 0 0 0 0.525378,-0.62401 z m -3.297277,0.13721 a 1.9092246,1.9092246 0 0 0 1.609333,0.88278 1.9092246,1.9092246 0 0 0 0.701153,-0.13378 c 0.105842,0.23001 0.183852,0.42907 0.249017,0.62058 0.121778,0.35791 0.207983,0.69952 0.280755,1.1406 0.07277,0.44109 0.131892,0.98202 0.164546,1.41549 0.03266,0.43346 0.03868,0.7603 0.03125,1.04685 -0.0017,0.0639 -0.0083,0.12305 -0.01172,0.18408 a 1.5437624,1.5437624 0 0 0 -1.319301,0.82517 c -0.253373,-0.0681 -0.520739,-0.10111 -0.791482,-0.10497 -0.537835,-0.008 -1.086647,0.0899 -1.5551355,0.20702 -0.7495835,0.18724 -1.2928612,0.42445 -1.7631376,0.6909 -0.4702764,0.26646 -0.867593,0.56224 -1.2279952,0.84959 -0.3604022,0.28734 -0.6843022,0.56682 -0.8705826,0.82663 -0.00564,0.008 -0.00924,0.0151 -0.014647,0.023 a 1.5259404,1.5259404 0 0 0 -0.2997969,-0.0894 c 0.01192,-0.42277 0.047864,-0.85583 0.1118136,-1.29244 0.086147,-0.58817 0.2226331,-1.18219 0.4008685,-1.74361 0.1782351,-0.56144 0.3982003,-1.09051 0.6625801,-1.60738 0.2643796,-0.51686 0.5731153,-1.0216 0.971166,-1.50875 0.3980509,-0.48716 0.8849101,-0.95615 1.3012355,-1.30563 0.3886503,-0.32625 0.7281789,-0.55412 1.3700801,-0.92673 z m 3.694239,8.10916 c 0.07426,0.0584 0.151865,0.11549 0.221186,0.17675 0.241887,0.21376 0.458748,0.45739 0.8657,0.78562 0.406951,0.32824 1.004176,0.74113 1.505819,1.08396 0.501643,0.34283 0.907573,0.61578 1.460411,0.95066 0.552838,0.33487 1.25238,0.73173 1.893017,1.0615 0.624253,0.32133 1.196448,0.58144 1.893994,0.93454 -0.499711,0.12474 -1.055606,0.20623 -1.566854,0.3579 -0.540602,0.16039 -1.029119,0.40115 -1.485801,0.65965 -0.456682,0.25851 -0.881848,0.53494 -1.272427,0.87205 -0.390579,0.33711 -0.746926,0.73491 -1.042454,1.124 -0.295528,0.38907 -0.530083,0.76951 -0.687482,1.05758 -0.06443,0.11793 -0.115032,0.22371 -0.164058,0.34131 a 1.5259404,1.5259404 0 0 0 -0.327628,-0.0366 1.5259404,1.5259404 0 0 0 -0.904273,0.29881 c -0.05531,-0.0688 -0.108502,-0.14061 -0.170894,-0.23095 -0.185648,-0.26882 -0.470635,-0.69344 -0.687483,-1.04099 -0.216845,-0.34754 -0.367104,-0.6204 -0.523911,-0.96384 -0.156807,-0.34343 -0.322978,-0.76189 -0.447742,-1.13766 -0.124762,-0.37579 -0.207739,-0.70861 -0.286126,-1.23434 -0.07839,-0.52573 -0.151837,-1.24439 -0.153316,-1.82369 -0.0015,-0.5793 0.06876,-1.01864 0.145016,-1.42916 0.07626,-0.41053 0.158355,-0.79166 0.250481,-1.09031 0.09213,-0.29863 0.193999,-0.51413 0.274895,-0.65476 0.0085,-0.0148 0.01535,-0.0238 0.02344,-0.0371 a 1.5437624,1.5437624 0 0 0 0.563463,0.10839 1.5437624,1.5437624 0 0 0 0.62303,-0.13329 z"
       id="circle922" />
    <circle
       style="color:#000000;fill:url(#linearGradient1001);fill-opacity:1;stroke:#191918;stroke-width:0.19966872;stroke-miterlimit:4;stroke-dasharray:none;stroke-opacity:1"
       cx="24.839457"
       cy="287.32111"
       r="7.8690429"
       id="circle31931" />
    <path
       style="opacity:1;isolation:isolate;fill:url(#linearGradient2566);fill-opacity:1;stroke:none;stroke-width:0.06265233;stroke-miterlimit:4;stroke-dasharray:none;stroke-opacity:1"
       inkscape:connector-curvature="0"
       d="m 21.035944,284.27144 3.803548,-1.38218 3.803477,1.38151 c 0,5.23764 -0.27429,5.46764 -3.803477,7.48219 -3.260216,-1.86096 -3.803548,-2.24388 -3.803548,-7.48152 z"
       id="path2276-1" />
  </g>
</svg>
