<?xml version="1.0" encoding="UTF-8" standalone="no"?>
<!-- Created with Inkscape (http://www.inkscape.org/) -->

<svg
   xmlns:dc="http://purl.org/dc/elements/1.1/"
   xmlns:cc="http://creativecommons.org/ns#"
   xmlns:rdf="http://www.w3.org/1999/02/22-rdf-syntax-ns#"
   xmlns:svg="http://www.w3.org/2000/svg"
   xmlns="http://www.w3.org/2000/svg"
   xmlns:xlink="http://www.w3.org/1999/xlink"
   xmlns:sodipodi="http://sodipodi.sourceforge.net/DTD/sodipodi-0.dtd"
   xmlns:inkscape="http://www.inkscape.org/namespaces/inkscape"
   width="128"
   height="128"
   viewBox="0 0 33.866666 33.866668"
   version="1.1"
   id="svg8"
   inkscape:version="0.92.2 5c3e80d, 2017-08-06"
   sodipodi:docname="psoi.svg">
  <defs
     id="defs2">
    <linearGradient
       inkscape:collect="always"
       id="linearGradient1396">
      <stop
         style="stop-color:#ddfaf7;stop-opacity:1"
         offset="0"
         id="stop1392" />
      <stop
         style="stop-color:#feffff;stop-opacity:1"
         offset="1"
         id="stop1394" />
    </linearGradient>
    <linearGradient
       inkscape:collect="always"
       id="linearGradient1342">
      <stop
         style="stop-color:#009a8b;stop-opacity:1"
         offset="0"
         id="stop1338" />
      <stop
         style="stop-color:#00bda4;stop-opacity:1"
         offset="1"
         id="stop1340" />
    </linearGradient>
    <linearGradient
       inkscape:collect="always"
       xlink:href="#linearGradient1342"
       id="linearGradient1344"
       x1="-65.901703"
       y1="281.54401"
       x2="-12.232271"
       y2="208.31216"
       gradientUnits="userSpaceOnUse"
       gradientTransform="matrix(0.38719511,0,0,0.38719511,-49.884363,172.4338)" />
    <linearGradient
       inkscape:collect="always"
       xlink:href="#linearGradient1396"
       id="linearGradient1398"
       x1="-36.412598"
       y1="259.00775"
       x2="-29.359425"
       y2="221.05547"
       gradientUnits="userSpaceOnUse"
       gradientTransform="matrix(0.40241869,0,0,0.40241869,-49.551758,168.80876)" />
  </defs>
  <sodipodi:namedview
     id="base"
     pagecolor="#ffffff"
     bordercolor="#666666"
     borderopacity="1.0"
     inkscape:pageopacity="0.0"
     inkscape:pageshadow="2"
     inkscape:zoom="3.959798"
     inkscape:cx="52.094551"
     inkscape:cy="93.496633"
     inkscape:document-units="mm"
     inkscape:current-layer="layer1"
     showgrid="false"
     units="px"
     inkscape:window-width="1600"
     inkscape:window-height="803"
     inkscape:window-x="0"
     inkscape:window-y="0"
     inkscape:window-maximized="1" />
  <metadata
     id="metadata5">
    <rdf:RDF>
      <cc:Work
         rdf:about="">
        <dc:format>image/svg+xml</dc:format>
        <dc:type
           rdf:resource="http://purl.org/dc/dcmitype/StillImage" />
        <dc:title></dc:title>
      </cc:Work>
    </rdf:RDF>
  </metadata>
  <g
     inkscape:label="Layer 1"
     inkscape:groupmode="layer"
     id="layer1"
     transform="translate(0,-263.13332)">
    <g
       id="g1408"
       transform="matrix(0.98360678,0,0,0.98360678,81.387453,18.649458)">
      <rect
         style="opacity:0.25;fill:#000000;fill-opacity:1;stroke:#303030;stroke-width:0.03804958;stroke-miterlimit:4;stroke-dasharray:none;stroke-dashoffset:0;stroke-opacity:1"
         id="rect1402"
         width="31.71195"
         height="31.71195"
         x="-81.384315"
         y="250.18269"
         ry="3.0528209" />
      <rect
         ry="3.0528209"
         y="249.65353"
         x="-81.384315"
         height="31.71195"
         width="31.71195"
         id="rect1113"
         style="opacity:1;fill:url(#linearGradient1344);fill-opacity:1;stroke:#303030;stroke-width:0.03804958;stroke-miterlimit:4;stroke-dasharray:none;stroke-dashoffset:0;stroke-opacity:1" />
      <path
         id="path1400"
         d="m -64.589211,256.465 a 1.0051581,1.0051581 0 0 0 -1.007447,1.00706 v 10.8583 a 5.0284568,5.0284568 0 0 1 -3.527769,-4.81021 c 0,-2.26894 -1.773401,-4.39771 -3.830952,-4.41447 a 2.2624629,2.2624629 0 0 0 -0.200722,0.004 c -1.638194,0.0983 -2.016027,2.39387 0,2.45672 0.882128,0.0625 1.511353,1.01011 1.511353,1.95317 a 7.5403997,7.5403997 0 0 0 6.048468,7.40824 v 3.67784 a 1.0051581,1.0051581 0 0 0 1.007069,1.00706 h 1.007057 a 1.005539,1.005539 0 0 0 1.008969,-1.00706 v -3.67784 a 7.5407807,7.5407807 0 0 0 6.046568,-7.40824 h -2.519177 c 0,2.26476 -1.478607,4.17071 -3.527391,4.8106 v -10.85868 a 1.005539,1.005539 0 0 0 -1.008969,-1.00744 z m 0,0"
         inkscape:connector-curvature="0"
         style="opacity:0.25;fill:#000000;fill-opacity:1;stroke-width:0.38088599" />
      <path
         style="fill:url(#linearGradient1398);fill-opacity:1;stroke-width:0.38088599"
         inkscape:connector-curvature="0"
         d="m -64.589211,255.93583 a 1.0051581,1.0051581 0 0 0 -1.007447,1.00706 v 10.8583 a 5.0284568,5.0284568 0 0 1 -3.527769,-4.81021 c 0,-2.26894 -1.773401,-4.39771 -3.830952,-4.41447 a 2.2624629,2.2624629 0 0 0 -0.200722,0.004 c -1.638194,0.0983 -2.016027,2.39387 0,2.45672 0.882128,0.0625 1.511353,1.01011 1.511353,1.95317 a 7.5403997,7.5403997 0 0 0 6.048468,7.40824 v 3.67784 a 1.0051581,1.0051581 0 0 0 1.007069,1.00706 h 1.007057 a 1.005539,1.005539 0 0 0 1.008969,-1.00706 v -3.67784 a 7.5407807,7.5407807 0 0 0 6.046568,-7.40824 h -2.519177 c 0,2.26476 -1.478607,4.17071 -3.527391,4.8106 v -10.85868 a 1.005539,1.005539 0 0 0 -1.008969,-1.00744 z m 0,0"
         id="path1356" />
    </g>
  </g>
</svg>
