<?xml version="1.0" encoding="UTF-8" standalone="no"?>
<svg
   xmlns:osb="http://www.openswatchbook.org/uri/2009/osb"
   xmlns:dc="http://purl.org/dc/elements/1.1/"
   xmlns:cc="http://creativecommons.org/ns#"
   xmlns:rdf="http://www.w3.org/1999/02/22-rdf-syntax-ns#"
   xmlns:svg="http://www.w3.org/2000/svg"
   xmlns="http://www.w3.org/2000/svg"
   xmlns:xlink="http://www.w3.org/1999/xlink"
   xmlns:sodipodi="http://sodipodi.sourceforge.net/DTD/sodipodi-0.dtd"
   xmlns:inkscape="http://www.inkscape.org/namespaces/inkscape"
   height="128"
   viewBox="0 0 95.999997 95.999997"
   width="128"
   version="1.1"
   id="svg56"
   sodipodi:docname="qelectrotech.svg"
   inkscape:version="0.92.3 (2405546, 2018-03-11)">
  <metadata
     id="metadata62">
    <rdf:RDF>
      <cc:Work
         rdf:about="">
        <dc:format>image/svg+xml</dc:format>
        <dc:type
           rdf:resource="http://purl.org/dc/dcmitype/StillImage" />
        <dc:title></dc:title>
      </cc:Work>
    </rdf:RDF>
  </metadata>
  <defs
     id="defs60">
    <linearGradient
       inkscape:collect="always"
       id="linearGradient939">
      <stop
         style="stop-color:#d4e8ee;stop-opacity:1"
         offset="0"
         id="stop935" />
      <stop
         style="stop-color:#757574;stop-opacity:1"
         offset="1"
         id="stop937" />
    </linearGradient>
    <linearGradient
       id="linearGradient6987"
       osb:paint="solid">
      <stop
         style="stop-color:#77d2fb;stop-opacity:1;"
         offset="0"
         id="stop6985" />
    </linearGradient>
    <linearGradient
       inkscape:collect="always"
       xlink:href="#linearGradient939"
       id="linearGradient1025"
       gradientUnits="userSpaceOnUse"
       x1="-218.42142"
       y1="84.454018"
       x2="-219.88927"
       y2="220.38788"
       gradientTransform="matrix(0.57594834,0,0,0.57594834,282.92606,-39.088462)" />
  </defs>
  <sodipodi:namedview
     pagecolor="#ffffff"
     bordercolor="#666666"
     borderopacity="1"
     objecttolerance="10"
     gridtolerance="10"
     guidetolerance="10"
     inkscape:pageopacity="0"
     inkscape:pageshadow="2"
     inkscape:window-width="1529"
     inkscape:window-height="837"
     id="namedview58"
     showgrid="false"
     units="px"
     inkscape:zoom="0.69140625"
     inkscape:cx="291.28385"
     inkscape:cy="88.02087"
     inkscape:window-x="71"
     inkscape:window-y="27"
     inkscape:window-maximized="1"
     inkscape:current-layer="svg56" />
  <linearGradient
     id="a"
     gradientUnits="userSpaceOnUse"
     x1="31.75304"
     x2="31.75304"
     y1="56.067871"
     y2="58.713959"
     gradientTransform="translate(0,31.999991)">
    <stop
       offset="0"
       stop-opacity=".27451"
       id="stop2" />
    <stop
       offset="1"
       stop-opacity="0"
       id="stop4" />
  </linearGradient>
  <linearGradient
     id="b">
    <stop
       offset="0"
       stop-opacity=".313726"
       id="stop7" />
    <stop
       offset=".222222"
       stop-opacity=".27451"
       id="stop9" />
    <stop
       offset="1"
       stop-opacity="0"
       id="stop11" />
  </linearGradient>
  <radialGradient
     id="c"
     cx="450.90894"
     cy="189.57936"
     gradientTransform="matrix(3.5e-7,-0.156265,-0.281277,-2e-7,106.24586,159.19065)"
     gradientUnits="userSpaceOnUse"
     r="21.166656"
     xlink:href="#b" />
  <radialGradient
     id="d"
     cx="450.90894"
     cy="189.57936"
     gradientTransform="matrix(-3.5e-7,0.156265,0.281277,2e-7,-42.409041,16.945033)"
     gradientUnits="userSpaceOnUse"
     r="21.166656"
     xlink:href="#b" />
  <radialGradient
     id="e"
     cx="450.90894"
     cy="189.57936"
     gradientTransform="matrix(-3.5e-7,-0.156265,0.281277,-2e-7,-42.409041,159.19065)"
     gradientUnits="userSpaceOnUse"
     r="21.166656"
     xlink:href="#b" />
  <radialGradient
     id="f"
     cx="450.90894"
     cy="189.57936"
     gradientTransform="matrix(3.5e-7,0.156265,-0.281277,2e-7,106.24586,16.945032)"
     gradientUnits="userSpaceOnUse"
     r="21.166656"
     xlink:href="#b" />
  <linearGradient
     id="g"
     gradientUnits="userSpaceOnUse"
     x1="31.753048"
     x2="31.753048"
     y1="56.067867"
     y2="5.7922101"
     gradientTransform="translate(0,31.999991)">
    <stop
       offset="0"
       stop-color="#a1887f"
       id="stop18" />
    <stop
       offset="1"
       stop-color="#bcaaa4"
       id="stop20" />
  </linearGradient>
  <linearGradient
     id="h"
     gradientTransform="matrix(0.113106,0,0,0.111853,3.024099,59.304133)"
     gradientUnits="userSpaceOnUse"
     x1="254"
     x2="254"
     y1="233.5"
     y2="-168.66666">
    <stop
       offset="0"
       stop-color="#5c6bc0"
       id="stop23" />
    <stop
       offset="1"
       stop-color="#7986cb"
       id="stop25" />
  </linearGradient>
  <g
     id="g6117"
     transform="translate(-112.39525,-1.1292305)">
    <rect
       style="opacity:0.25;fill:#000000;fill-opacity:1;fill-rule:nonzero;stroke:none;stroke-width:0.26996624;stroke-linecap:round;stroke-linejoin:round;stroke-miterlimit:4;stroke-dasharray:none;stroke-dashoffset:0;stroke-opacity:1"
       id="rect852"
       width="89.999992"
       height="78.785789"
       x="115.39525"
       y="10.556087"
       ry="4.1642189" />
    <rect
       ry="4.1642189"
       y="9.0515652"
       x="115.39525"
       height="78.785789"
       width="89.999992"
       id="rect1015"
       style="opacity:1;fill:url(#linearGradient1025);fill-opacity:1;fill-rule:nonzero;stroke:#666666;stroke-width:0.26996624;stroke-linecap:round;stroke-linejoin:round;stroke-miterlimit:4;stroke-dasharray:none;stroke-dashoffset:0;stroke-opacity:1" />
    <rect
       style="opacity:1;fill:#213c6a;fill-opacity:1;fill-rule:nonzero;stroke:none;stroke-width:0.22948603;stroke-linecap:round;stroke-linejoin:round;stroke-miterlimit:4;stroke-dasharray:none;stroke-dashoffset:0;stroke-opacity:1"
       id="rect1017"
       width="87.696312"
       height="76.769157"
       x="116.54708"
       y="10.059874"
       ry="3.2338622" />
    <rect
       style="opacity:1;fill:#5d86d8;fill-opacity:1;fill-rule:nonzero;stroke:none;stroke-width:0.33265308;stroke-linecap:round;stroke-linejoin:round;stroke-miterlimit:4;stroke-dasharray:none;stroke-dashoffset:0;stroke-opacity:1"
       id="rect1019"
       width="76.767319"
       height="65.818329"
       x="122.01157"
       y="15.535329" />
    <path
       style="opacity:0.25;fill:#000000;fill-opacity:1;stroke-width:1.70240045"
       inkscape:connector-curvature="0"
       id="path6109"
       d="m 151.38447,34.177332 c -8.16621,0 -14.83614,6.144601 -15.67405,14.078053 h -4.59515 v 3.378201 h 4.59515 c 0.83791,7.933458 7.50784,14.078068 15.67405,14.078068 8.1662,0 14.83615,-6.14461 15.67406,-14.078068 h 13.6059 v 6.191152 c 0,0.625106 0.5054,1.130514 1.12384,1.130514 h 1.13052 c 0.62508,0 1.12384,-0.505408 1.12384,-1.130514 V 41.498983 c 0,-0.625099 -0.49876,-1.130499 -1.12384,-1.130499 h -1.13052 c -0.61844,0 -1.12384,0.5054 -1.12384,1.130499 v 6.756402 h -13.6059 c -0.83791,-7.933452 -7.50786,-14.078053 -15.67406,-14.078053 z m 0,3.378201 c 2.81961,0 5.41311,0.931 7.48791,2.50705 l -7.48791,7.494552 -7.4879,-7.494552 c 2.0748,-1.57605 4.6683,-2.50705 7.4879,-2.50705 z m -9.8819,4.894401 7.49456,7.494552 -7.49456,7.487901 c -1.57605,-2.0748 -2.50704,-4.6683 -2.50704,-7.487901 0,-2.8196 0.93099,-5.413102 2.50704,-7.494552 z m 19.76381,0 c 1.56939,2.08145 2.50704,4.674952 2.50704,7.494552 0,2.819601 -0.93765,5.413101 -2.50704,7.487901 l -7.49456,-7.487901 z m 26.15446,0.738151 c -0.62511,0 -1.12386,0.49875 -1.12386,1.123849 v 11.265102 c 0,0.618452 0.49875,1.123852 1.12386,1.123852 h 1.13049 c 0.61845,0 1.12386,-0.5054 1.12386,-1.123852 V 44.311934 c 0,-0.625099 -0.50541,-1.123849 -1.12386,-1.123849 z m -36.03637,9.143751 7.48791,7.487912 c -2.0748,1.576049 -4.6683,2.513697 -7.48791,2.513697 -2.8196,0 -5.4131,-0.937648 -7.4879,-2.513697 z m 0,0" />
    <path
       d="m 151.38447,32.677332 c -8.16621,0 -14.83614,6.144601 -15.67405,14.078053 h -4.59515 v 3.378201 h 4.59515 c 0.83791,7.933458 7.50784,14.078068 15.67405,14.078068 8.1662,0 14.83615,-6.14461 15.67406,-14.078068 h 13.6059 v 6.191152 c 0,0.625106 0.5054,1.130514 1.12384,1.130514 h 1.13052 c 0.62508,0 1.12384,-0.505408 1.12384,-1.130514 V 39.998983 c 0,-0.625099 -0.49876,-1.130499 -1.12384,-1.130499 h -1.13052 c -0.61844,0 -1.12384,0.5054 -1.12384,1.130499 v 6.756402 h -13.6059 c -0.83791,-7.933452 -7.50786,-14.078053 -15.67406,-14.078053 z m 0,3.378201 c 2.81961,0 5.41311,0.931 7.48791,2.50705 l -7.48791,7.494552 -7.4879,-7.494552 c 2.0748,-1.57605 4.6683,-2.50705 7.4879,-2.50705 z m -9.8819,4.894401 7.49456,7.494552 -7.49456,7.487901 c -1.57605,-2.0748 -2.50704,-4.6683 -2.50704,-7.487901 0,-2.8196 0.93099,-5.413102 2.50704,-7.494552 z m 19.76381,0 c 1.56939,2.08145 2.50704,4.674952 2.50704,7.494552 0,2.819601 -0.93765,5.413101 -2.50704,7.487901 l -7.49456,-7.487901 z m 26.15446,0.738151 c -0.62511,0 -1.12386,0.49875 -1.12386,1.123849 v 11.265102 c 0,0.618452 0.49875,1.123852 1.12386,1.123852 h 1.13049 c 0.61845,0 1.12386,-0.5054 1.12386,-1.123852 V 42.811934 c 0,-0.625099 -0.50541,-1.123849 -1.12386,-1.123849 z m -36.03637,9.143751 7.48791,7.487912 c -2.0748,1.576049 -4.6683,2.513697 -7.48791,2.513697 -2.8196,0 -5.4131,-0.937648 -7.4879,-2.513697 z m 0,0"
       id="path6107"
       inkscape:connector-curvature="0"
       style="fill:#e9f0ff;fill-opacity:1;stroke-width:1.70240045" />
  </g>
</svg>
