<?xml version="1.0" encoding="UTF-8" standalone="no"?>
<!-- Created with Inkscape (http://www.inkscape.org/) -->

<svg
   xmlns:osb="http://www.openswatchbook.org/uri/2009/osb"
   xmlns:dc="http://purl.org/dc/elements/1.1/"
   xmlns:cc="http://creativecommons.org/ns#"
   xmlns:rdf="http://www.w3.org/1999/02/22-rdf-syntax-ns#"
   xmlns:svg="http://www.w3.org/2000/svg"
   xmlns="http://www.w3.org/2000/svg"
   xmlns:xlink="http://www.w3.org/1999/xlink"
   xmlns:sodipodi="http://sodipodi.sourceforge.net/DTD/sodipodi-0.dtd"
   xmlns:inkscape="http://www.inkscape.org/namespaces/inkscape"
   width="128"
   height="128"
   viewBox="0 0 33.866666 33.866668"
   version="1.1"
   id="svg8"
   inkscape:version="0.92.2 5c3e80d, 2017-08-06"
   sodipodi:docname="atom dymm 2.svg"
   enable-background="new">
  <defs
     id="defs2">
    <linearGradient
       inkscape:collect="always"
       id="linearGradient912">
      <stop
         style="stop-color:#0dbec0;stop-opacity:1"
         offset="0"
         id="stop908" />
      <stop
         style="stop-color:#3fdd91;stop-opacity:1"
         offset="1"
         id="stop910" />
    </linearGradient>
    <linearGradient
       osb:paint="solid"
       id="linearGradient6987">
      <stop
         id="stop6985"
         offset="0"
         style="stop-color:#77d2fb;stop-opacity:1;" />
    </linearGradient>
    <linearGradient
       inkscape:collect="always"
       xlink:href="#linearGradient912"
       id="linearGradient1747"
       gradientUnits="userSpaceOnUse"
       gradientTransform="matrix(0.26504385,0,0,0.26504385,80.29686,254.95824)"
       x1="-246.2551"
       y1="148.67415"
       x2="-245.41519"
       y2="61.378811" />
  </defs>
  <sodipodi:namedview
     id="base"
     pagecolor="#ffffff"
     bordercolor="#666666"
     borderopacity="1.0"
     inkscape:pageopacity="0.0"
     inkscape:pageshadow="2"
     inkscape:zoom="0.42246095"
     inkscape:cx="-60.789884"
     inkscape:cy="-183.15755"
     inkscape:document-units="mm"
     inkscape:current-layer="layer1"
     showgrid="false"
     units="px"
     inkscape:window-width="1600"
     inkscape:window-height="803"
     inkscape:window-x="0"
     inkscape:window-y="0"
     inkscape:window-maximized="1" />
  <metadata
     id="metadata5">
    <rdf:RDF>
      <cc:Work
         rdf:about="">
        <dc:format>image/svg+xml</dc:format>
        <dc:type
           rdf:resource="http://purl.org/dc/dcmitype/StillImage" />
        <dc:title />
      </cc:Work>
    </rdf:RDF>
  </metadata>
  <g
     inkscape:label="Layer 1"
     inkscape:groupmode="layer"
     id="layer1"
     transform="translate(0,-263.13332)">
    <circle
       r="15.536033"
       cy="280.40561"
       cx="16.933332"
       id="circle916"
       style="opacity:0.25;fill:#000000;fill-opacity:1;stroke:none;stroke-width:0.21549952;stroke-miterlimit:4;stroke-dasharray:none;stroke-opacity:1" />
    <circle
       style="opacity:1;fill:url(#linearGradient1747);fill-opacity:1;stroke:#097e80;stroke-width:0.21549952;stroke-miterlimit:4;stroke-dasharray:none;stroke-opacity:1"
       id="path4855"
       cx="16.933332"
       cy="279.83545"
       r="15.536033" />
    <path
       inkscape:connector-curvature="0"
       d=""
       cx="621.95471"
       cy="755.98816"
       rx="110.06896"
       ry="34.918427"
       style="opacity:0.10100002;fill:#1b1b1b;fill-opacity:1;stroke:none;stroke-width:0.78553885;stroke-linecap:round;stroke-linejoin:round;stroke-miterlimit:4;stroke-dasharray:none;stroke-dashoffset:0;stroke-opacity:1;paint-order:normal"
       id="path1456" />
    <path
       inkscape:connector-curvature="0"
       d=""
       id="path1470"
       style="opacity:0.10100002;fill:#1b1b1b;fill-opacity:1;stroke:none;stroke-width:0.78553885;stroke-linecap:round;stroke-linejoin:round;stroke-miterlimit:4;stroke-dasharray:none;stroke-dashoffset:0;stroke-opacity:1;paint-order:normal"
       ry="34.918427"
       rx="110.06896"
       cy="755.98816"
       cx="621.95471" />
    <path
       id="path2417"
       d="m 14.250044,272.64745 c -0.167823,-0.0125 -0.340054,-0.0159 -0.518069,-0.0107 -1.477794,0.0424 -2.566527,0.63494 -3.259869,1.77506 -0.6935835,1.13385 -1.0085035,2.75234 -0.9481515,4.85822 0.06162,2.15009 0.4702015,3.78037 1.2278935,4.88524 0.529992,0.77279 1.223368,1.26353 2.079463,1.47518 0,0 0.172009,-0.0149 0.191329,0.16899 0.360425,2.36801 1.844927,2.33076 3.537676,2.28224 0,0 0.219523,-0.006 0.21326,-0.22466 l -0.03774,-1.31072 c -0.0063,-0.21848 -0.224741,-0.21216 -0.224741,-0.21216 -0.845746,0.0242 -1.064244,0.086 -1.31503,-0.75513 0.284425,-0.0791 0.548129,-0.18366 0.791489,-0.3168 0.5492,-0.30688 0.997339,-0.74233 1.344198,-1.30927 0.3466,-0.57322 0.595796,-1.27225 0.746911,-2.09934 0.157795,-0.82731 0.222614,-1.77213 0.192146,-2.83458 -0.06108,-2.13118 -0.475514,-3.73667 -1.245977,-4.81585 -0.674315,-0.94979 -1.599999,-1.46836 -2.774805,-1.55569 z m -0.282057,1.06874 c 0.207851,0.0353 0.381116,0.1351 0.534322,0.29998 0.12033,0.12492 0.228253,0.28996 0.329085,0.48878 0.05798,0.14693 0.11588,0.30299 0.164075,0.48059 0.130043,0.47935 0.228777,1.06254 0.295981,1.75481 0.06707,0.6911 0.111458,1.47983 0.136713,2.36077 0.02542,0.88729 0.02695,1.68455 -5.9e-5,2.39096 -0.02725,0.70122 -0.09282,1.29848 -0.194851,1.79675 -0.03839,0.18502 -0.08497,0.35357 -0.135976,0.50934 -0.0086,0.0202 -0.01649,0.0427 -0.02531,0.0623 -0.08182,0.18139 -0.172399,0.33473 -0.273747,0.45888 -0.191661,0.24357 -0.427143,0.36044 -0.73554,0.36928 -0.308407,0.009 -0.549005,-0.0953 -0.754283,-0.32747 -0.201026,-0.23602 -0.370663,-0.58322 -0.501848,-1.05056 -0.131814,-0.4751 -0.228875,-1.05839 -0.296441,-1.74822 -0.06789,-0.69746 -0.118174,-1.49112 -0.143487,-2.37449 -0.02515,-0.87703 -0.02036,-1.65663 0.0078,-2.34406 0.02812,-0.68611 0.09273,-1.26479 0.197076,-1.73367 0.104294,-0.46746 0.255883,-0.81838 0.442061,-1.05206 0.191338,-0.23117 0.424847,-0.34721 0.734619,-0.3561 0.07745,-0.002 0.150495,0.002 0.219786,0.0142 z m 8.27016,0.68052 -1.692307,0.0487 c -0.580792,2.64073 -0.144225,2.59181 -1.456132,2.62941 l 0.0485,1.5521 0.892635,-0.026 c 0,0 0.09507,3.47417 0.126377,4.56667 0,0 -0.19878,1.31722 0.913279,1.94137 1.14431,0.64224 3.236539,-0.0611 3.279489,-0.0936 l -0.04345,-1.52967 c 0,0 -0.529693,0.18676 -0.881186,0.16263 -0.275597,0.008 -0.501284,-0.0883 -0.676313,-0.29002 -0.175042,-0.20169 -0.267935,-0.5068 -0.279587,-0.91363 l -0.108091,-3.9108 1.805122,-0.0518 -0.04748,-1.55094 -1.806222,0.0518 z"
       style="fill:#000000;fill-opacity:1;stroke-width:0.09699563;enable-background:new;opacity:0.25"
       inkscape:connector-curvature="0" />
    <path
       inkscape:connector-curvature="0"
       style="fill:#eef3ff;fill-opacity:1;stroke-width:0.09699563;enable-background:new"
       d="m 14.250044,272.11828 c -0.167823,-0.0125 -0.340054,-0.0159 -0.518069,-0.0107 -1.477794,0.0424 -2.566527,0.63494 -3.259869,1.77506 -0.6935835,1.13385 -1.0085035,2.75234 -0.9481515,4.85822 0.06162,2.15009 0.4702015,3.78037 1.2278935,4.88524 0.529992,0.77279 1.223368,1.26353 2.079463,1.47518 0,0 0.172009,-0.0149 0.191329,0.16899 0.360425,2.36801 1.844927,2.33076 3.537676,2.28224 0,0 0.219523,-0.006 0.21326,-0.22466 l -0.03774,-1.31072 c -0.0063,-0.21848 -0.224741,-0.21216 -0.224741,-0.21216 -0.845746,0.0242 -1.064244,0.086 -1.31503,-0.75513 0.284425,-0.0791 0.548129,-0.18366 0.791489,-0.3168 0.5492,-0.30688 0.997339,-0.74233 1.344198,-1.30927 0.3466,-0.57322 0.595796,-1.27225 0.746911,-2.09934 0.157795,-0.82731 0.222614,-1.77213 0.192146,-2.83458 -0.06108,-2.13118 -0.475514,-3.73667 -1.245977,-4.81585 -0.674315,-0.94979 -1.599999,-1.46836 -2.774805,-1.55569 z m -0.282057,1.06874 c 0.207851,0.0353 0.381116,0.1351 0.534322,0.29998 0.12033,0.12492 0.228253,0.28996 0.329085,0.48878 0.05798,0.14693 0.11588,0.30299 0.164075,0.48059 0.130043,0.47935 0.228777,1.06254 0.295981,1.75481 0.06707,0.6911 0.111458,1.47983 0.136713,2.36077 0.02542,0.88729 0.02695,1.68455 -5.9e-5,2.39096 -0.02725,0.70122 -0.09282,1.29848 -0.194851,1.79675 -0.03839,0.18502 -0.08497,0.35357 -0.135976,0.50934 -0.0086,0.0202 -0.01649,0.0427 -0.02531,0.0623 -0.08182,0.18139 -0.172399,0.33473 -0.273747,0.45888 -0.191661,0.24357 -0.427143,0.36044 -0.73554,0.36928 -0.308407,0.009 -0.549005,-0.0953 -0.754283,-0.32747 -0.201026,-0.23602 -0.370663,-0.58322 -0.501848,-1.05056 -0.131814,-0.4751 -0.228875,-1.05839 -0.296441,-1.74822 -0.06789,-0.69746 -0.118174,-1.49112 -0.143487,-2.37449 -0.02515,-0.87703 -0.02036,-1.65663 0.0078,-2.34406 0.02812,-0.68611 0.09273,-1.26479 0.197076,-1.73367 0.104294,-0.46746 0.255883,-0.81838 0.442061,-1.05206 0.191338,-0.23117 0.424847,-0.34721 0.734619,-0.3561 0.07745,-0.002 0.150495,0.002 0.219786,0.0142 z m 8.27016,0.68052 -1.692307,0.0487 c -0.580792,2.64073 -0.144225,2.59181 -1.456132,2.62941 l 0.0485,1.5521 0.892635,-0.026 c 0,0 0.09507,3.47417 0.126377,4.56667 0,0 -0.19878,1.31722 0.913279,1.94137 1.14431,0.64224 3.236539,-0.0611 3.279489,-0.0936 l -0.04345,-1.52967 c 0,0 -0.529693,0.18676 -0.881186,0.16263 -0.275597,0.008 -0.501284,-0.0883 -0.676313,-0.29002 -0.175042,-0.20169 -0.267935,-0.5068 -0.279587,-0.91363 l -0.108091,-3.9108 1.805122,-0.0518 -0.04748,-1.55094 -1.806222,0.0518 z"
       id="path849-2" />
  </g>
</svg>
