<?xml version="1.0" encoding="UTF-8" standalone="no"?>
<!-- Created with Inkscape (http://www.inkscape.org/) -->

<svg
   xmlns:osb="http://www.openswatchbook.org/uri/2009/osb"
   xmlns:dc="http://purl.org/dc/elements/1.1/"
   xmlns:cc="http://creativecommons.org/ns#"
   xmlns:rdf="http://www.w3.org/1999/02/22-rdf-syntax-ns#"
   xmlns:svg="http://www.w3.org/2000/svg"
   xmlns="http://www.w3.org/2000/svg"
   xmlns:xlink="http://www.w3.org/1999/xlink"
   xmlns:sodipodi="http://sodipodi.sourceforge.net/DTD/sodipodi-0.dtd"
   xmlns:inkscape="http://www.inkscape.org/namespaces/inkscape"
   width="128"
   height="128"
   viewBox="0 0 33.866666 33.866668"
   version="1.1"
   id="svg8"
   inkscape:version="0.92.2 5c3e80d, 2017-08-06"
   sodipodi:docname="hexchat.svg">
  <defs
     id="defs2">
    <linearGradient
       inkscape:collect="always"
       id="linearGradient1583">
      <stop
         style="stop-color:#15191f;stop-opacity:1"
         offset="0"
         id="stop1579" />
      <stop
         style="stop-color:#383a40;stop-opacity:1"
         offset="1"
         id="stop1581" />
    </linearGradient>
    <linearGradient
       osb:paint="solid"
       id="linearGradient6987">
      <stop
         id="stop6985"
         offset="0"
         style="stop-color:#77d2fb;stop-opacity:1;" />
    </linearGradient>
    <linearGradient
       inkscape:collect="always"
       xlink:href="#linearGradient1583"
       id="linearGradient1585"
       x1="-144.64844"
       y1="183.3125"
       x2="-88.827011"
       y2="54.29855"
       gradientUnits="userSpaceOnUse"
       gradientTransform="matrix(0.18064086,0,0,0.18064086,37.703378,256.92788)" />
  </defs>
  <sodipodi:namedview
     id="base"
     pagecolor="#ffffff"
     bordercolor="#666666"
     borderopacity="1.0"
     inkscape:pageopacity="0.0"
     inkscape:pageshadow="2"
     inkscape:zoom="2.8"
     inkscape:cx="61.660155"
     inkscape:cy="35.824541"
     inkscape:document-units="mm"
     inkscape:current-layer="layer1"
     showgrid="false"
     inkscape:window-width="1600"
     inkscape:window-height="803"
     inkscape:window-x="0"
     inkscape:window-y="0"
     inkscape:window-maximized="1"
     units="px" />
  <metadata
     id="metadata5">
    <rdf:RDF>
      <cc:Work
         rdf:about="">
        <dc:format>image/svg+xml</dc:format>
        <dc:type
           rdf:resource="http://purl.org/dc/dcmitype/StillImage" />
        <dc:title />
      </cc:Work>
    </rdf:RDF>
  </metadata>
  <g
     inkscape:label="Layer 1"
     inkscape:groupmode="layer"
     id="layer1"
     transform="translate(0,-263.13332)">
    <path
       inkscape:connector-curvature="0"
       style="opacity:0.25;fill:#000000;fill-opacity:1;stroke:none;stroke-width:0.04655509;stroke-miterlimit:4;stroke-dasharray:none;stroke-dashoffset:0;stroke-opacity:1"
       d="m 24.750331,280.65802 a 8.0581111,6.7976337 0 0 1 8.058003,6.79754 8.0581111,6.7976337 0 0 1 -3.432933,5.5622 l 0.739915,2.41789 c -0.935283,-0.51316 -1.87341,-1.02628 -2.810643,-1.5393 a 8.0581111,6.7976337 0 0 1 -2.554342,0.35695 8.0581111,6.7976337 0 0 1 -8.058187,-6.79774 8.0581111,6.7976337 0 0 1 8.058187,-6.79754 z"
       id="path1621" />
    <path
       id="path1619"
       d="m 16.454438,265.27682 a 15.396312,12.987969 0 0 0 -15.396105,12.9878 15.396312,12.987969 0 0 0 6.559169,10.62747 l -1.413726,4.61975 c 1.787008,-0.98047 3.579449,-1.96087 5.370183,-2.94106 a 15.396312,12.987969 0 0 0 4.880479,0.68199 15.396312,12.987969 0 0 0 15.396458,-12.98815 15.396312,12.987969 0 0 0 -15.396458,-12.9878 z"
       style="opacity:0.25;fill:#000000;fill-opacity:1;stroke:none;stroke-width:0.08895096;stroke-miterlimit:4;stroke-dasharray:none;stroke-dashoffset:0;stroke-opacity:1"
       inkscape:connector-curvature="0" />
    <path
       inkscape:connector-curvature="0"
       style="opacity:1;fill:url(#linearGradient1585);fill-opacity:1;stroke:none;stroke-width:0.2;stroke-miterlimit:4;stroke-dasharray:none;stroke-dashoffset:0;stroke-opacity:1"
       d="m 16.454438,264.74765 a 15.396312,12.987969 0 0 0 -15.396105,12.9878 15.396312,12.987969 0 0 0 6.559169,10.62747 l -1.413726,4.61975 c 1.787008,-0.98047 3.579449,-1.96087 5.370183,-2.94106 a 15.396312,12.987969 0 0 0 4.880479,0.68199 15.396312,12.987969 0 0 0 15.396458,-12.98815 15.396312,12.987969 0 0 0 -15.396458,-12.9878 z"
       id="path1566" />
    <path
       style="fill:#ffffff;fill-opacity:1;stroke-width:0.67963386"
       d="m 16.569167,268.65542 c -0.239142,-0.004 -0.439947,0.0329 -0.702481,0.12495 -0.12691,0.0445 -0.350098,0.12074 -0.496038,0.16954 -0.497677,0.16627 -0.720214,0.29401 -1.045275,0.60034 -0.156559,0.14754 -0.219063,0.18967 -0.362192,0.24396 -0.223916,0.0849 -0.37539,0.23152 -0.493873,0.47786 -0.190668,0.39641 -0.258541,0.70634 -0.237405,1.08428 0.0409,0.73156 0.114441,1.45996 0.178593,1.76944 0.0596,0.28754 0.06139,0.27678 -0.04313,0.26276 -0.07772,-0.0102 -0.09549,-0.003 -0.150001,0.0617 -0.05557,0.066 -0.06179,0.0918 -0.06179,0.25478 0,0.22989 0.04056,0.4193 0.17055,0.79576 0.05887,0.17048 0.114722,0.38465 0.129384,0.49611 0.03971,0.30187 0.106319,0.4101 0.345968,0.56201 0.09898,0.0628 0.134219,0.17767 0.220168,0.71858 0.123495,0.77718 0.191735,0.97021 0.451287,1.27592 l 0.142971,0.16845 -0.01481,0.21226 c -0.02199,0.31476 -0.196891,1.32802 -0.245652,1.42307 -0.123572,0.24089 -0.386092,0.34381 -1.240227,0.48603 -0.983697,0.16382 -1.255101,0.2495 -2.174709,0.68661 -0.596114,0.28335 -0.838353,0.43572 -1.0903626,0.68599 -0.455679,0.45251 -0.710788,0.95754 -0.8224701,1.62811 -0.056172,0.33728 -0.09454,0.7272 -0.094566,0.96131 v 0.16731 h 8.5509937 2.755041 0.100999 3.635983 v -0.16731 c -2.7e-5,-0.23411 -0.03841,-0.62403 -0.09457,-0.96131 -0.111678,-0.67057 -0.366789,-1.1756 -0.82247,-1.62811 -0.252007,-0.25027 -0.494247,-0.40264 -1.090362,-0.68599 -0.919609,-0.43711 -1.19101,-0.52279 -2.174708,-0.68661 -0.383523,-0.0638 -0.647073,-0.11984 -0.833015,-0.18392 -0.232759,-0.10398 -0.3634,-0.23458 -0.42979,-0.41201 -0.01074,-0.0289 -0.02218,-0.0675 -0.03387,-0.1137 -0.01936,-0.0935 -0.0408,-0.20539 -0.06246,-0.32751 -0.0014,7.2e-4 -0.0027,0.003 -0.0041,0.003 -0.05758,-0.33024 -0.106805,-0.74172 -0.106805,-0.96038 0,-0.13664 0.0041,-0.14684 0.0937,-0.23409 0.183945,-0.17909 0.325969,-0.44755 0.391597,-0.74039 0.01266,-0.0565 0.04386,-0.24518 0.06929,-0.41905 0.04815,-0.32908 0.142952,-0.75901 0.184476,-0.8366 0.01322,-0.0247 0.07543,-0.071 0.13824,-0.1027 0.133868,-0.0679 0.243681,-0.23451 0.265864,-0.4035 0.02764,-0.2105 0.06318,-0.36239 0.129585,-0.55384 0.110195,-0.31766 0.157579,-0.54777 0.157709,-0.76676 2.62e-4,-0.32411 -0.09366,-0.47751 -0.254982,-0.4166 -0.03737,0.0141 -0.06794,0.017 -0.06794,0.006 0,-0.0102 0.02587,-0.12649 0.05746,-0.25755 0.207604,-0.86175 0.263585,-1.69328 0.160479,-2.38359 -0.04412,-0.29538 -0.09143,-0.43348 -0.218275,-0.63711 -0.0507,-0.0813 -0.129263,-0.21936 -0.17454,-0.30656 -0.163104,-0.31413 -0.395764,-0.47833 -0.916837,-0.64719 -0.172483,-0.0559 -0.458318,-0.15955 -0.635155,-0.2303 -0.395265,-0.15814 -0.727336,-0.24185 -1.030402,-0.25978 -0.03603,-0.003 -0.07096,-0.004 -0.105117,-0.004 z"
       id="path880"
       inkscape:connector-curvature="0" />
    <path
       id="path1571"
       d="m 24.750331,280.12885 a 8.0581111,6.7976337 0 0 1 8.058003,6.79754 8.0581111,6.7976337 0 0 1 -3.432933,5.5622 l 0.739915,2.41789 c -0.935283,-0.51316 -1.87341,-1.02628 -2.810643,-1.5393 a 8.0581111,6.7976337 0 0 1 -2.554342,0.35695 8.0581111,6.7976337 0 0 1 -8.058187,-6.79774 8.0581111,6.7976337 0 0 1 8.058187,-6.79754 z"
       style="opacity:1;fill:#2a7fff;fill-opacity:1;stroke:none;stroke-width:0.1;stroke-miterlimit:4;stroke-dasharray:none;stroke-dashoffset:0;stroke-opacity:1"
       inkscape:connector-curvature="0" />
    <circle
       style="opacity:1;fill:#ffffff;fill-opacity:1;stroke:none;stroke-width:0.08107504;stroke-miterlimit:4;stroke-dasharray:none;stroke-dashoffset:0;stroke-opacity:1"
       id="path1573"
       cx="24.748039"
       cy="287.31586"
       r="1.1491661" />
    <circle
       r="1.1491661"
       cy="287.31586"
       cx="20.594913"
       id="circle1575"
       style="opacity:1;fill:#ffffff;fill-opacity:1;stroke:none;stroke-width:0.08107504;stroke-miterlimit:4;stroke-dasharray:none;stroke-dashoffset:0;stroke-opacity:1" />
    <circle
       r="1.1491661"
       cy="287.31586"
       cx="28.871237"
       id="circle1577"
       style="opacity:1;fill:#ffffff;fill-opacity:1;stroke:none;stroke-width:0.08107504;stroke-miterlimit:4;stroke-dasharray:none;stroke-dashoffset:0;stroke-opacity:1" />
  </g>
</svg>
