<?xml version="1.0" encoding="UTF-8" standalone="no"?>
<!-- Created with Inkscape (http://www.inkscape.org/) -->

<svg
   xmlns:dc="http://purl.org/dc/elements/1.1/"
   xmlns:cc="http://creativecommons.org/ns#"
   xmlns:rdf="http://www.w3.org/1999/02/22-rdf-syntax-ns#"
   xmlns:svg="http://www.w3.org/2000/svg"
   xmlns="http://www.w3.org/2000/svg"
   xmlns:xlink="http://www.w3.org/1999/xlink"
   xmlns:sodipodi="http://sodipodi.sourceforge.net/DTD/sodipodi-0.dtd"
   xmlns:inkscape="http://www.inkscape.org/namespaces/inkscape"
   width="128"
   height="128"
   viewBox="0 0 33.866666 33.866668"
   version="1.1"
   id="svg8"
   inkscape:version="0.92.2 5c3e80d, 2017-08-06"
   sodipodi:docname="preferences-system-power copy.svg">
  <defs
     id="defs2">
    <linearGradient
       inkscape:collect="always"
       id="linearGradient1010">
      <stop
         style="stop-color:#bed7e5;stop-opacity:1"
         offset="0"
         id="stop1006" />
      <stop
         style="stop-color:#90a3bd;stop-opacity:1"
         offset="1"
         id="stop1008" />
    </linearGradient>
    <inkscape:path-effect
       effect="skeletal"
       id="path-effect984"
       is_visible="true"
       pattern="m -100.11494,19.454976 c 0,-2.76 2.240005,-5 5.000005,-5 2.76,0 5,2.24 5,5 0,2.76 -2.24,5 -5,5 -2.76,0 -5.000005,-2.24 -5.000005,-5 z"
       copytype="single_stretched"
       prop_scale="0.042650181"
       scale_y_rel="false"
       spacing="0"
       normal_offset="0"
       tang_offset="0"
       prop_units="false"
       vertical_pattern="false"
       fuse_tolerance="0" />
    <inkscape:path-effect
       fuse_tolerance="0"
       vertical_pattern="false"
       prop_units="false"
       tang_offset="0"
       normal_offset="0"
       spacing="0"
       scale_y_rel="false"
       prop_scale="0.053090371"
       copytype="single_stretched"
       pattern="m -99.898156,14.811975 c 0,-2.76 2.24,-4.9999995 5,-4.9999995 2.76,0 5,2.2399995 5,4.9999995 0,2.76 -2.24,5 -5,5 -2.76,0 -5,-2.24 -5,-5 z"
       is_visible="true"
       id="path-effect980"
       effect="skeletal" />
    <inkscape:path-effect
       effect="skeletal"
       id="path-effect972"
       is_visible="true"
       pattern="m -99.736845,10.354543 c 0,-2.7600002 2.24,-5 5,-5 2.76,0 5,2.2399998 5,5 0,2.76 -2.24,5 -5,5 -2.76,0 -5,-2.24 -5,-5 z"
       copytype="single_stretched"
       prop_scale="0.046316112"
       scale_y_rel="false"
       spacing="0"
       normal_offset="0"
       tang_offset="0"
       prop_units="false"
       vertical_pattern="false"
       fuse_tolerance="0" />
    <linearGradient
       inkscape:collect="always"
       id="linearGradient926">
      <stop
         style="stop-color:#ecedf1;stop-opacity:1"
         offset="0"
         id="stop922" />
      <stop
         style="stop-color:#c5c4c8;stop-opacity:1"
         offset="1"
         id="stop924" />
    </linearGradient>
    <linearGradient
       inkscape:collect="always"
       id="linearGradient918">
      <stop
         style="stop-color:#ffffff;stop-opacity:1"
         offset="0"
         id="stop914" />
      <stop
         style="stop-color:#eb2a21;stop-opacity:1"
         offset="1"
         id="stop916" />
    </linearGradient>
    <radialGradient
       inkscape:collect="always"
       xlink:href="#linearGradient1010"
       id="radialGradient1014"
       cx="-140.48355"
       cy="230.09775"
       fx="-140.48355"
       fy="230.09775"
       r="3.7088108"
       gradientTransform="matrix(0.95234857,0,0,0.59523355,150.67894,155.81862)"
       gradientUnits="userSpaceOnUse" />
    <linearGradient
       inkscape:collect="always"
       xlink:href="#linearGradient926"
       id="linearGradient1030"
       gradientUnits="userSpaceOnUse"
       gradientTransform="matrix(0.04780428,0,0,0.04780545,35.883806,253.07654)"
       x1="-446.83182"
       y1="746.12903"
       x2="-301.85349"
       y2="546.11877" />
    <radialGradient
       inkscape:collect="always"
       xlink:href="#linearGradient918"
       id="radialGradient1056"
       gradientUnits="userSpaceOnUse"
       gradientTransform="matrix(0.18280852,0,0,0.17813724,36.110571,252.4808)"
       cx="-104.90329"
       cy="112.45598"
       fx="-104.90329"
       fy="112.45598"
       r="44.500374" />
  </defs>
  <sodipodi:namedview
     id="base"
     pagecolor="#ffffff"
     bordercolor="#666666"
     borderopacity="1.0"
     inkscape:pageopacity="0.0"
     inkscape:pageshadow="2"
     inkscape:zoom="0.85349998"
     inkscape:cx="-241.51543"
     inkscape:cy="166.92357"
     inkscape:document-units="mm"
     inkscape:current-layer="layer1"
     showgrid="false"
     inkscape:window-width="1600"
     inkscape:window-height="811"
     inkscape:window-x="0"
     inkscape:window-y="0"
     inkscape:window-maximized="1"
     units="px" />
  <metadata
     id="metadata5">
    <rdf:RDF>
      <cc:Work
         rdf:about="">
        <dc:format>image/svg+xml</dc:format>
        <dc:type
           rdf:resource="http://purl.org/dc/dcmitype/StillImage" />
        <dc:title />
      </cc:Work>
    </rdf:RDF>
  </metadata>
  <g
     inkscape:label="Layer 1"
     inkscape:groupmode="layer"
     id="layer1"
     transform="translate(0,-263.13332)">
    <g
       id="g1927"
       transform="matrix(0.99551032,0,0,0.99551032,0.07604006,1.328683)">
      <path
         id="circle1047"
         d="m 16.933561,264.19175 a 8.5387839,8.5389933 0 0 0 -8.5391161,8.53933 8.5387839,8.5389933 0 0 0 1.0832002,4.14195 c 0.054175,0.035 0.1126758,0.0752 0.1678182,0.093 0.4057007,0.13104 0.8392767,0.15206 1.2623397,0.20472 0.0029,2.6e-4 0.006,7.6e-4 0.0089,9.6e-4 0.586048,0.0597 1.282073,0.11576 1.984802,0.1629 1.324003,0.0693 2.650166,0.12382 3.975996,0.13238 1.325832,-0.008 2.651994,-0.063 3.975997,-0.13238 0.702548,-0.0471 1.39884,-0.10319 1.984799,-0.1629 0.0038,-2.4e-4 0.007,-5.1e-4 0.0098,-9.6e-4 0.423069,-0.0527 0.856646,-0.0736 1.262337,-0.20472 0.108273,-0.035 0.229511,-0.15829 0.305127,-0.15258 0.005,2.5e-4 0.0098,0.003 0.01477,0.004 a 8.5387839,8.5389933 0 0 0 1.041861,-4.08634 8.5387839,8.5389933 0 0 0 -8.538625,-8.53933 z"
         style="opacity:1;fill:#e5222c;fill-opacity:1;fill-rule:nonzero;stroke:#b91230;stroke-width:0.28657305;stroke-miterlimit:4;stroke-dasharray:none;stroke-opacity:1"
         inkscape:connector-curvature="0" />
      <path
         inkscape:connector-curvature="0"
         id="circle1052"
         d="m 16.933557,264.58605 a 8.1350474,7.9271734 0 0 0 -8.1353468,7.92748 8.1350474,7.9271734 0 0 0 1.2354268,4.19039 c 0.297707,0.0553 0.603496,0.0775 0.904424,0.11402 0.0029,2.5e-4 0.0057,7.4e-4 0.0086,9.5e-4 0.583104,0.0579 1.275633,0.11223 1.974832,0.15794 1.317354,0.0671 2.636859,0.12005 3.956032,0.12835 1.319173,-0.008 2.638678,-0.0611 3.956032,-0.12835 0.699019,-0.0457 1.391812,-0.10005 1.974832,-0.15794 0.0038,-2.4e-4 0.0067,-4.9e-4 0.0098,-9.5e-4 0.341874,-0.0416 0.689631,-0.0657 1.024879,-0.14027 a 8.1350474,7.9271734 0 0 0 1.225155,-4.16414 8.1350474,7.9271734 0 0 0 -8.134864,-7.92748 z"
         style="opacity:1;fill:url(#radialGradient1056);fill-opacity:1;fill-rule:nonzero;stroke:none;stroke-width:0.19008929;stroke-miterlimit:4;stroke-dasharray:none;stroke-opacity:0.66666667" />
      <path
         sodipodi:nodetypes="aaaaaaaaaaa"
         inkscape:connector-curvature="0"
         id="path910"
         d="m 15.118517,294.45714 c -0.113025,0.10025 -0.086,0.29938 -0.06343,0.44877 0.02114,0.14035 0.09652,0.27147 0.181309,0.38531 0.104196,0.13988 0.235258,0.26824 0.389834,0.34904 0.382606,0.2 0.828667,0.2848 1.260148,0.29918 0.373635,0.0125 0.768488,-0.0251 1.106029,-0.18586 0.152728,-0.0728 0.256991,-0.22015 0.380767,-0.33544 0.100073,-0.0932 0.244421,-0.15976 0.292372,-0.28784 0.06562,-0.17529 0.08647,-0.4247 -0.04304,-0.55983 -0.307456,-0.32083 -0.879779,-0.13677 -1.323612,-0.15866 -0.726052,-0.0358 -1.636478,-0.43703 -2.180326,0.0453 z"
         style="opacity:1;fill:#748498;fill-opacity:1;stroke:none;stroke-width:0.09552435;stroke-linecap:butt;stroke-linejoin:miter;stroke-miterlimit:4;stroke-dasharray:none;stroke-opacity:1" />
      <path
         style="opacity:0.003;fill:#000000;fill-opacity:1;stroke:none;stroke-width:0.09552435;stroke-linecap:butt;stroke-linejoin:miter;stroke-miterlimit:4;stroke-dasharray:none;stroke-opacity:1"
         d="m 20.253999,290.7556 c 0.109006,0.0589 0.152376,0.21751 0.147433,0.34136 -0.0057,0.14018 -0.198593,0.23155 -0.197117,0.37182 9.52e-4,0.11748 0.126938,0.19919 0.171575,0.30786 0.127348,0.31009 -0.04105,0.52897 -0.137919,0.63611 -0.121958,0.1348 0.105682,0.21908 0.135719,0.33614 0.04771,0.18585 0.02058,0.4373 -0.07056,0.62672 -0.06676,0.13862 -0.245592,0.19542 -0.326342,0.32638 -0.09295,0.1507 -0.05942,0.36361 -0.166984,0.50422 -0.206593,0.26996 -0.534087,0.43866 -0.850685,0.56246 -0.62056,0.24264 -1.306689,0.32208 -1.97301,0.32099 -0.755184,-9.5e-4 -1.521471,-0.12364 -2.234933,-0.37118 -0.176498,-0.0612 -0.33896,-0.16171 -0.490955,-0.27035 -0.103368,-0.0739 -0.186222,-0.17299 -0.282057,-0.25643 -0.176232,-0.1534 -0.440061,-0.23682 -0.538486,-0.44874 -0.06981,-0.1502 -0.06895,-0.34776 0.0029,-0.49682 0.06124,-0.12655 0.236621,-0.15177 0.221155,-0.26605 -0.01819,-0.13456 -0.222754,-0.21389 -0.262829,-0.35579 -0.07085,-0.25082 0.0979,-0.51907 0.23642,-0.61803 0.114435,-0.0817 -0.20965,-0.26887 -0.25261,-0.39492 -0.09171,-0.26897 0.06552,-0.45095 0.228392,-0.55294 0.340855,-0.21349 0.788745,0.029 1.183312,0.0325 1.242025,0.0111 2.489049,0.0759 3.726054,-0.0363 0.583237,-0.0528 1.216197,-0.57778 1.731255,-0.29906 z"
         id="path934"
         inkscape:connector-curvature="0"
         sodipodi:nodetypes="caasssaaaaaaaaassssssaaac" />
      <path
         sodipodi:nodetypes="caasssaaaaaaaaassssssaaac"
         inkscape:connector-curvature="0"
         id="path908"
         d="m 20.253999,290.65406 c 0.109006,0.0589 0.152376,0.21751 0.147433,0.34136 -0.0057,0.14017 -0.198593,0.23155 -0.197117,0.37182 9.52e-4,0.11748 0.126938,0.19919 0.171575,0.30786 0.127348,0.31009 -0.04105,0.52897 -0.137919,0.63611 -0.121958,0.1348 0.105682,0.2191 0.135719,0.33613 0.04771,0.18586 0.02058,0.43732 -0.07056,0.62673 -0.06676,0.13861 -0.245592,0.19542 -0.326342,0.32639 -0.09295,0.15069 -0.05942,0.36361 -0.166984,0.50421 -0.206593,0.26995 -0.534087,0.43866 -0.850685,0.56246 -0.62056,0.24264 -1.306689,0.32208 -1.97301,0.32099 -0.755184,-9.6e-4 -1.521471,-0.12364 -2.234933,-0.37118 -0.176498,-0.0612 -0.33896,-0.1617 -0.490955,-0.27035 -0.103368,-0.0739 -0.186222,-0.17299 -0.282057,-0.25643 -0.176232,-0.1534 -0.440061,-0.23682 -0.538486,-0.44873 -0.06981,-0.15022 -0.06895,-0.34776 0.0029,-0.49684 0.06124,-0.12654 0.236621,-0.15175 0.221155,-0.26603 -0.01819,-0.13458 -0.222754,-0.2139 -0.262829,-0.3558 -0.07085,-0.25082 0.0979,-0.51907 0.23642,-0.61803 0.114435,-0.0817 -0.20965,-0.26888 -0.25261,-0.39492 -0.09171,-0.26896 0.06552,-0.45095 0.228392,-0.55293 0.340855,-0.2135 0.788745,0.029 1.183312,0.0325 1.242025,0.0111 2.489049,0.0759 3.726054,-0.0363 0.583237,-0.0528 1.216197,-0.57778 1.731255,-0.29906 z"
         style="opacity:1;fill:url(#radialGradient1014);fill-opacity:1;stroke:#768499;stroke-width:0.1910487;stroke-linecap:butt;stroke-linejoin:miter;stroke-miterlimit:4;stroke-dasharray:none;stroke-opacity:1" />
      <path
         sodipodi:nodetypes="sasaaas"
         inkscape:connector-curvature="0"
         id="path912"
         d="m 13.832227,291.45007 c 0.532344,0.26114 1.943638,0.32021 2.921634,0.28694 1.057212,-0.036 2.113509,-0.35472 3.129884,-0.52413 0.230354,-0.0384 0.516602,-0.37611 0.397444,-0.57696 -0.887856,-1.49659 -3.452778,0.5753 -5.1925,0.53849 -0.323884,-0.007 -0.663787,-0.26857 -0.961577,-0.14103 -0.156413,0.067 -0.447652,0.34176 -0.294885,0.41669 z"
         style="opacity:0.25;fill:#000000;fill-opacity:1;stroke:none;stroke-width:0.25274149px;stroke-linecap:butt;stroke-linejoin:miter;stroke-opacity:1" />
      <path
         id="path884"
         d="m 9.3402085,276.81338 c -0.1232434,0.009 -0.2445631,0.2143 -0.1720322,0.61321 0.041808,0.22977 0.7595741,1.55801 1.3523067,2.94771 0.436271,1.02288 0.765783,2.09083 0.986613,2.71856 0.526831,1.49763 1.154019,4.46204 1.190284,5.02415 0.02114,0.32757 0.09447,0.87421 0.151509,1.38664 0.04086,0.36687 0.03314,0.75164 0.217555,1.00519 0.232126,0.31908 0.657005,0.46601 1.037784,0.56947 0.814647,0.22134 1.964961,0.33107 2.773724,0.32771 0.808763,0.004 1.959057,-0.10636 2.773725,-0.32771 0.380777,-0.10346 0.805658,-0.25039 1.037784,-0.56947 0.184451,-0.25355 0.176689,-0.63832 0.217554,-1.00519 0.05705,-0.51243 0.130376,-1.05907 0.151509,-1.38664 0.03628,-0.56211 0.663454,-3.52652 1.190283,-5.02415 0.220831,-0.62773 0.550344,-1.69568 0.986624,-2.71856 0.592733,-1.3897 1.310527,-2.71794 1.352307,-2.94771 0.07257,-0.39891 -0.04876,-0.60448 -0.172042,-0.61321 -0.07562,-0.006 -0.196936,0.11783 -0.305209,0.1528 -0.405691,0.13107 -0.839495,0.15198 -1.262566,0.20467 -0.0029,4e-4 -0.0057,7.1e-4 -0.0096,9.5e-4 -0.585961,0.0597 -1.282195,0.11569 -1.984742,0.16282 -1.324002,0.0694 -2.650176,0.12446 -3.976008,0.13258 -1.325831,-0.009 -2.652005,-0.0633 -3.976007,-0.13258 -0.702728,-0.0472 -1.399085,-0.1032 -1.985132,-0.16293 -0.0029,-3.5e-4 -0.0057,-6.1e-4 -0.0086,-9.4e-4 -0.423062,-0.0526 -0.856771,-0.0736 -1.2624716,-0.20467 -0.108263,-0.035 -0.2296589,-0.15815 -0.305304,-0.1528 z"
         style="opacity:1;fill:#d7e3f3;fill-opacity:1;stroke:#768499;stroke-width:0.1910487;stroke-linecap:butt;stroke-linejoin:miter;stroke-miterlimit:4;stroke-dasharray:none;stroke-opacity:1"
         inkscape:connector-curvature="0" />
      <path
         sodipodi:nodetypes="cc"
         inkscape:original-d="m 13.778947,292.0584 c 0.962577,-0.20109 3.831527,0.67515 6.375517,-0.55716"
         inkscape:path-effect="#path-effect972"
         inkscape:connector-curvature="0"
         id="path970"
         d="m 13.778947,292.0584 c -0.01106,-0.053 0.254591,-0.17574 0.738049,-0.20826 0.478291,-0.0322 1.157046,0.0725 1.864512,0.0894 0,0 1e-6,0 1e-6,0 0.20288,0.004 0.413229,0.004 0.628058,-6e-5 1.75726,-0.034 3.089176,-0.55334 3.144904,-0.43829 0.07666,0.15825 -1.253125,0.86873 -3.136143,0.90325 -0.224189,0.004 -0.442537,-3.1e-4 -0.652485,-0.011 0,0 -1e-6,0 -1e-6,0 -0.774111,-0.0341 -1.407469,-0.19948 -1.854477,-0.24938 -0.442113,-0.0493 -0.720724,-0.0297 -0.732418,-0.0857 z"
         style="fill:#92a6bf;fill-opacity:1;stroke:none;stroke-width:0.25274146px;stroke-linecap:butt;stroke-linejoin:miter;stroke-opacity:1" />
      <path
         style="fill:#92a6bf;fill-opacity:1;stroke:none;stroke-width:0.25274146px;stroke-linecap:butt;stroke-linejoin:miter;stroke-opacity:1"
         d="m 13.852764,292.89156 c -0.0055,-0.0701 0.335337,-0.17001 0.911142,-0.17455 0.571128,-0.005 1.355537,0.12209 2.184985,0.15491 0.06337,0.002 0.127409,0.003 0.191971,0.004 1.754101,0.0145 2.93532,-0.85126 3.037055,-0.74581 0.04353,0.0451 -0.155131,0.38453 -0.692953,0.71264 -0.554287,0.33816 -1.357314,0.58568 -2.351531,0.56666 -0.07007,-0.001 -0.13942,-0.004 -0.20793,-0.008 -0.715535,-0.0347 -1.831864,-0.26212 -2.189469,-0.32165 -0.53527,-0.0891 -0.877815,-0.11805 -0.88327,-0.18814 z"
         id="path978"
         inkscape:connector-curvature="0"
         inkscape:path-effect="#path-effect980"
         inkscape:original-d="m 13.852764,292.89156 c 1.655277,-0.12881 4.461496,1.03622 6.325147,-0.76165"
         sodipodi:nodetypes="cc" />
      <path
         sodipodi:nodetypes="cc"
         inkscape:original-d="m 13.913733,293.90429 c 1.539891,-0.26985 4.358928,0.91443 6.222579,-0.88346"
         inkscape:path-effect="#path-effect984"
         inkscape:connector-curvature="0"
         id="path982"
         d="m 13.913733,293.90429 c -0.0095,-0.054 0.310406,-0.17554 0.866518,-0.19951 0.551433,-0.0238 1.320772,0.0937 2.130432,0.11826 0,0 1e-6,0 1e-6,0 0.07833,0.002 0.157704,0.002 0.237877,0.002 1.744212,-0.0113 2.906029,-0.88875 2.987757,-0.80404 0.0339,0.0351 -0.169811,0.359 -0.695216,0.67252 -0.544116,0.32469 -1.319725,0.5623 -2.291573,0.56062 -0.08545,-1.4e-4 -0.169852,-0.002 -0.252988,-0.006 0,0 0,0 0,0 -0.865831,-0.0312 -1.600648,-0.20066 -2.124267,-0.25407 -0.519033,-0.053 -0.848732,-0.0338 -0.858541,-0.0897 z"
         style="fill:#92a6bf;fill-opacity:1;stroke:none;stroke-width:0.25274146px;stroke-linecap:butt;stroke-linejoin:miter;stroke-opacity:1" />
      <path
         inkscape:connector-curvature="0"
         style="opacity:1;fill:url(#linearGradient1030);fill-opacity:1;stroke:none;stroke-width:0.09422451;stroke-linecap:butt;stroke-linejoin:miter;stroke-miterlimit:4;stroke-dasharray:none;stroke-opacity:1"
         d="m 9.7803278,277.23939 c -0.1160428,0.008 -0.230282,0.20178 -0.161979,0.57741 0.039361,0.21636 0.7152232,1.46704 1.2733422,2.77559 0.410795,0.96316 0.721067,1.96874 0.929,2.55984 0.496074,1.41017 1.08664,4.2015 1.120787,4.73079 0.01992,0.30844 0.08905,0.82317 0.142655,1.30567 0.03852,0.34546 0.03119,0.70776 0.204863,0.94651 0.218567,0.30044 0.618644,0.4388 0.97719,0.53621 0.767077,0.20843 1.850241,0.31176 2.611775,0.30858 0.761545,0.003 1.84468,-0.10011 2.611768,-0.30858 0.358536,-0.0974 0.758622,-0.23577 0.97719,-0.53621 0.173693,-0.23875 0.166375,-0.60105 0.204861,-0.94651 0.05373,-0.4825 0.122751,-0.99723 0.142657,-1.30567 0.0342,-0.52929 0.624712,-3.32062 1.120785,-4.73079 0.207945,-0.5911 0.518206,-1.59668 0.929019,-2.55984 0.55813,-1.30855 1.234002,-2.55923 1.273352,-2.77559 0.06829,-0.37563 -0.04594,-0.56919 -0.161997,-0.57741 -0.07111,-0.006 -0.185436,0.11095 -0.287397,0.14389 -0.382002,0.1234 -0.790487,0.1431 -1.188845,0.19269 -0.0019,4e-4 -0.0056,6.8e-4 -0.0085,9.1e-4 -0.551741,0.0562 -1.207331,0.10893 -1.868859,0.15331 -1.246692,0.0653 -2.495433,0.11717 -3.743853,0.12484 -1.248431,-0.008 -2.49716,-0.0596 -3.743854,-0.12484 -0.661706,-0.0444 -1.317399,-0.0972 -1.869234,-0.15341 -0.0019,-3.3e-4 -0.0056,-5.9e-4 -0.0075,-9e-4 -0.398359,-0.0497 -0.806729,-0.0694 -1.188752,-0.19271 -0.1019514,-0.033 -0.2162469,-0.14892 -0.2874808,-0.14388 z"
         id="path1028" />
    </g>
  </g>
</svg>
