<?xml version="1.0" encoding="UTF-8" standalone="no"?>
<svg
   xmlns:dc="http://purl.org/dc/elements/1.1/"
   xmlns:cc="http://creativecommons.org/ns#"
   xmlns:rdf="http://www.w3.org/1999/02/22-rdf-syntax-ns#"
   xmlns:svg="http://www.w3.org/2000/svg"
   xmlns="http://www.w3.org/2000/svg"
   xmlns:xlink="http://www.w3.org/1999/xlink"
   xmlns:sodipodi="http://sodipodi.sourceforge.net/DTD/sodipodi-0.dtd"
   xmlns:inkscape="http://www.inkscape.org/namespaces/inkscape"
   viewBox="26.6 26.6 22.87616 22.880192"
   width="128"
   height="128"
   version="1.1"
   id="svg15"
   sodipodi:docname="sublime-text.svg"
   inkscape:version="0.92.4 (5da689c313, 2019-01-14)">
  <metadata
     id="metadata21">
    <rdf:RDF>
      <cc:Work
         rdf:about="">
        <dc:format>image/svg+xml</dc:format>
        <dc:type
           rdf:resource="http://purl.org/dc/dcmitype/StillImage" />
        <dc:title></dc:title>
      </cc:Work>
    </rdf:RDF>
  </metadata>
  <defs
     id="defs19">
    <linearGradient
       inkscape:collect="always"
       id="linearGradient885">
      <stop
         style="stop-color:#fdaf30;stop-opacity:1"
         offset="0"
         id="stop881" />
      <stop
         style="stop-color:#fd9e2a;stop-opacity:1"
         offset="1"
         id="stop883" />
    </linearGradient>
    <linearGradient
       inkscape:collect="always"
       id="linearGradient877">
      <stop
         style="stop-color:#f07018;stop-opacity:1"
         offset="0"
         id="stop873" />
      <stop
         style="stop-color:#fda22b;stop-opacity:1"
         offset="1"
         id="stop875" />
    </linearGradient>
    <linearGradient
       inkscape:collect="always"
       id="linearGradient850">
      <stop
         style="stop-color:#3c3c3c;stop-opacity:1"
         offset="0"
         id="stop846" />
      <stop
         style="stop-color:#272727;stop-opacity:1"
         offset="1"
         id="stop848" />
    </linearGradient>
    <linearGradient
       inkscape:collect="always"
       xlink:href="#linearGradient850"
       id="linearGradient852"
       x1="38.884808"
       y1="22.515736"
       x2="46.37709"
       y2="42.035202"
       gradientUnits="userSpaceOnUse"
       gradientTransform="matrix(0.84109459,0,0,0.84109459,-5.6306931,16.02725)" />
    <linearGradient
       inkscape:collect="always"
       xlink:href="#linearGradient877"
       id="linearGradient879"
       x1="41.709438"
       y1="28.713488"
       x2="50.10562"
       y2="27.960633"
       gradientUnits="userSpaceOnUse"
       gradientTransform="matrix(0.83073932,-0.13157618,0.13157618,0.83073932,-3.0541558,16.710762)" />
    <radialGradient
       inkscape:collect="always"
       xlink:href="#linearGradient885"
       id="radialGradient889"
       cx="44.289612"
       cy="32.612347"
       fx="44.289612"
       fy="32.612347"
       r="5.8288293"
       gradientTransform="matrix(0.56538016,0.04488538,-0.04552567,0.57344542,14.474205,17.286306)"
       gradientUnits="userSpaceOnUse" />
  </defs>
  <sodipodi:namedview
     pagecolor="#ffffff"
     bordercolor="#666666"
     borderopacity="1"
     objecttolerance="10"
     gridtolerance="10"
     guidetolerance="10"
     inkscape:pageopacity="0"
     inkscape:pageshadow="2"
     inkscape:window-width="1600"
     inkscape:window-height="838"
     id="namedview17"
     showgrid="false"
     inkscape:zoom="2.1368829"
     inkscape:cx="46.585282"
     inkscape:cy="51.278901"
     inkscape:window-x="-8"
     inkscape:window-y="-8"
     inkscape:window-maximized="1"
     inkscape:current-layer="svg15" />
  <linearGradient
     id="a"
     gradientUnits="userSpaceOnUse"
     x1="136.17799"
     x2="310.5845"
     y1="369.638"
     y2="304.24731"
     gradientTransform="matrix(0.03804921,-0.0060264,0.0060264,0.03804921,27.025339,30.024699)">
    <stop
       offset="0.32366669"
       stop-color="#f89822"
       id="stop2" />
    <stop
       offset="1"
       stop-color="#c27818"
       id="stop4"
       style="stop-color:#f1771a;stop-opacity:1" />
  </linearGradient>
  <g
     id="g925"
     transform="matrix(0.98761873,0,0,0.98761873,0.47095996,0.29444865)">
    <rect
       style="opacity:0.25;fill:#000000;fill-opacity:1;stroke:none;stroke-width:0.11793315;stroke-linecap:round;stroke-linejoin:miter;stroke-miterlimit:4;stroke-dasharray:none;stroke-dashoffset:0;stroke-opacity:1"
       id="rect909"
       width="19.236893"
       height="19.130318"
       x="21.944614"
       y="34.310165"
       ry="1.8854488"
       transform="rotate(-8.9999998)" />
    <rect
       transform="rotate(-8.9999998)"
       ry="1.8854488"
       y="33.957066"
       x="22.00054"
       height="19.130318"
       width="19.236893"
       id="rect844"
       style="opacity:1;fill:url(#linearGradient852);fill-opacity:1;stroke:none;stroke-width:0.11793315;stroke-linecap:round;stroke-linejoin:miter;stroke-miterlimit:4;stroke-dasharray:none;stroke-dashoffset:0;stroke-opacity:1" />
    <path
       d="m 32.92978,35.746128 8.448745,-4.232226 c 0,0 0.579187,-0.431064 0.524015,0.205633 l 0.453717,2.716903 c 0,0 0.173626,0.382038 -0.358621,0.567748 l -3.43569,1.70257 z"
       id="path913"
       inkscape:connector-curvature="0"
       style="opacity:0.25;fill:#000000;fill-opacity:1;stroke:none;stroke-width:0.05682403;stroke-miterlimit:4;stroke-dasharray:none;stroke-opacity:1" />
    <path
       style="fill:url(#linearGradient879);fill-opacity:1;stroke:none;stroke-width:0.05682403;stroke-miterlimit:4;stroke-dasharray:none;stroke-opacity:1"
       inkscape:connector-curvature="0"
       id="path9"
       d="m 32.92978,35.388625 8.448745,-4.232226 c 0,0 0.579187,-0.431064 0.524015,0.205633 l 0.453717,2.716903 c 0,0 0.173626,0.382038 -0.358621,0.567748 l -3.43569,1.70257 z" />
    <path
       d="m 37.592009,40.039181 -3.570256,1.739483 c 0,0 -0.450375,0.08693 -0.262718,0.926995 0.187655,0.840059 0.401235,2.557498 0.401235,2.557498 0,0 0.08807,0.309782 0.492903,0.05844 l 8.446334,-4.247443 c 0,0 0.303153,-0.129928 0.02294,-0.175249 -0.279602,-0.04152 -5.530379,-0.859737 -5.530379,-0.859737 z"
       id="path915"
       inkscape:connector-curvature="0"
       style="opacity:0.25;fill:#000000;stroke:none;stroke-width:0.05682403;stroke-miterlimit:4;stroke-dasharray:none;stroke-opacity:1" />
    <path
       style="fill:url(#a);stroke:none;stroke-width:0.05682403;stroke-miterlimit:4;stroke-dasharray:none;stroke-opacity:1"
       inkscape:connector-curvature="0"
       id="path13"
       d="m 37.592009,39.681678 -3.570256,1.739483 c 0,0 -0.450375,0.08693 -0.262718,0.926995 0.187655,0.840059 0.401235,2.557498 0.401235,2.557498 0,0 0.08807,0.309782 0.492903,0.05844 l 8.446334,-4.247443 c 0,0 0.303153,-0.129928 0.02294,-0.175249 -0.279602,-0.04152 -5.530379,-0.859737 -5.530379,-0.859737 z" />
    <path
       d="m 32.92978,35.746128 c 0,0 -0.336794,0.139151 -0.139448,0.720251 l 0.396203,2.624603 c 0,0 0.02199,0.335849 0.670894,0.369584 l 9.265573,1.442154 c 0,0 0.315464,0.07094 0.223368,-0.2889 l -0.45909,-2.922772 c 0,0 0.0361,-0.313845 -0.543146,-0.424924 l -3.782243,-0.559359 z"
       id="path911"
       inkscape:connector-curvature="0"
       style="opacity:0.25;fill:#000000;fill-opacity:1;stroke:none;stroke-width:0.05682403;stroke-miterlimit:4;stroke-dasharray:none;stroke-opacity:1" />
    <path
       style="fill:url(#radialGradient889);fill-opacity:1;stroke:none;stroke-width:0.05682403;stroke-miterlimit:4;stroke-dasharray:none;stroke-opacity:1"
       inkscape:connector-curvature="0"
       id="path11"
       d="m 32.92978,35.388625 c 0,0 -0.336794,0.139151 -0.139448,0.720251 l 0.396203,2.624603 c 0,0 0.02199,0.335849 0.670894,0.369584 l 9.265573,1.442154 c 0,0 0.315464,0.07094 0.223368,-0.2889 l -0.45909,-2.922772 c 0,0 0.0361,-0.313845 -0.543146,-0.424924 l -3.782243,-0.559359 z" />
  </g>
</svg>
