<?xml version="1.0" encoding="UTF-8" standalone="no"?>
<!-- Created with Inkscape (http://www.inkscape.org/) -->

<svg
   xmlns:osb="http://www.openswatchbook.org/uri/2009/osb"
   xmlns:dc="http://purl.org/dc/elements/1.1/"
   xmlns:cc="http://creativecommons.org/ns#"
   xmlns:rdf="http://www.w3.org/1999/02/22-rdf-syntax-ns#"
   xmlns:svg="http://www.w3.org/2000/svg"
   xmlns="http://www.w3.org/2000/svg"
   xmlns:xlink="http://www.w3.org/1999/xlink"
   xmlns:sodipodi="http://sodipodi.sourceforge.net/DTD/sodipodi-0.dtd"
   xmlns:inkscape="http://www.inkscape.org/namespaces/inkscape"
   width="128"
   height="128"
   viewBox="0 0 33.866666 33.866668"
   version="1.1"
   id="svg8"
   inkscape:version="0.92.3 (2405546, 2018-03-11)"
   sodipodi:docname="system-software-install.svg">
  <defs
     id="defs2">
    <linearGradient
       id="linearGradient4861"
       inkscape:collect="always">
      <stop
         id="stop4857"
         offset="0"
         style="stop-color:#0091ea;stop-opacity:1" />
      <stop
         id="stop4859"
         offset="1"
         style="stop-color:#22a7ef;stop-opacity:1" />
    </linearGradient>
    <linearGradient
       osb:paint="solid"
       id="linearGradient6987">
      <stop
         id="stop6985"
         offset="0"
         style="stop-color:#77d2fb;stop-opacity:1;" />
    </linearGradient>
    <linearGradient
       gradientTransform="matrix(0.26551263,0,0,0.26551263,80.40893,254.884)"
       gradientUnits="userSpaceOnUse"
       y2="58.876926"
       x2="-212.47374"
       y1="148.67415"
       x1="-246.2551"
       id="linearGradient4863"
       xlink:href="#linearGradient4861"
       inkscape:collect="always" />
  </defs>
  <sodipodi:namedview
     id="base"
     pagecolor="#ffffff"
     bordercolor="#666666"
     borderopacity="1.0"
     inkscape:pageopacity="0.0"
     inkscape:pageshadow="2"
     inkscape:zoom="1.6898438"
     inkscape:cx="51.094864"
     inkscape:cy="20.715104"
     inkscape:document-units="mm"
     inkscape:current-layer="layer1"
     showgrid="false"
     units="px"
     inkscape:window-width="1600"
     inkscape:window-height="837"
     inkscape:window-x="0"
     inkscape:window-y="30"
     inkscape:window-maximized="1" />
  <metadata
     id="metadata5">
    <rdf:RDF>
      <cc:Work
         rdf:about="">
        <dc:format>image/svg+xml</dc:format>
        <dc:type
           rdf:resource="http://purl.org/dc/dcmitype/StillImage" />
        <dc:title />
      </cc:Work>
    </rdf:RDF>
  </metadata>
  <g
     inkscape:label="Layer 1"
     inkscape:groupmode="layer"
     id="layer1"
     transform="translate(0,-263.13332)">
    <g
       id="g842"
       transform="matrix(0.99843088,0,0,0.99843088,0.02657132,0.46436705)">
      <circle
         style="opacity:0.25;fill:#000000;fill-opacity:1;stroke:none;stroke-width:0.2165219;stroke-miterlimit:4;stroke-dasharray:none;stroke-opacity:1"
         id="circle2765"
         cx="16.933332"
         cy="280.37814"
         r="15.563511" />
      <circle
         r="15.563511"
         cy="279.80527"
         cx="16.933332"
         id="path4855-0"
         style="opacity:1;fill:url(#linearGradient4863);fill-opacity:1;stroke:#013f66;stroke-width:0.2;stroke-miterlimit:4;stroke-dasharray:none;stroke-opacity:1" />
      <g
         id="g830"
         transform="matrix(0.2466547,0,0,0.2466547,44.058552,226.31985)"
         style="opacity:0.25;fill:#000000;fill-opacity:1;stroke-width:3.91739345">
        <path
           sodipodi:nodetypes="ssscccsccccsssc"
           inkscape:connector-curvature="0"
           id="path824"
           d="m -146.34412,228.20957 c -3.041,0 -5.48907,2.44807 -5.48907,5.48907 0,3.041 2.44807,5.48907 5.48907,5.48907 h 47.553169 c 0.0337,-0.1643 0.0715,-0.33423 0.11317,-0.50953 2.43521,-5.95311 -2.656859,-9.82089 -6.094199,-10.46861 z m 52.735279,0 5.76502,7.35821 0.51005,2.75332 c 0,0 -0.4347,0.35593 -1.10846,0.86661 h 14.84147 c 3.041,0 5.48907,-2.44807 5.48907,-5.48907 0,-3.041 -2.44807,-5.48907 -5.48907,-5.48907 z"
           style="opacity:1;fill:#000000;fill-opacity:1;stroke:none;stroke-width:0.80737346;stroke-miterlimit:4;stroke-dasharray:none;stroke-opacity:1" />
        <path
           sodipodi:nodetypes="sscccccscscscc"
           inkscape:connector-curvature="0"
           id="path826"
           transform="matrix(0.26458333,0,0,0.26458333,0,161.53332)"
           d="m -440.11328,77.021484 c -3.34321,0.07451 -6.72087,0.961026 -9.83984,2.742188 -9.98071,5.699718 -13.42629,18.323981 -7.72657,28.304688 l 34.53516,60.47461 18.16211,-35.08985 c 0,0 4.54796,0.52697 10.42187,1.47266 l -27.08789,-47.433592 c -3.91855,-6.861736 -11.10979,-10.634632 -18.46484,-10.470704 z m 56.07422,76.328126 c -22.36031,13.20495 -18.07826,52.01421 -14.78711,57.77734 l 77.48828,135.68946 c 5.69972,9.9807 18.32398,13.42628 28.30469,7.72656 9.9807,-5.69972 13.42628,-18.32398 7.72656,-28.30469 z"
           style="opacity:1;fill:#000000;fill-opacity:1;stroke:none;stroke-width:3.05149031;stroke-miterlimit:4;stroke-dasharray:none;stroke-opacity:1" />
        <path
           inkscape:connector-curvature="0"
           id="path828"
           d="m -102.88804,181.99934 c -1.9458,-0.0527 -3.85295,0.93609 -4.89841,2.74661 l -28.38225,49.15152 11.20759,2.54558 26.681569,-46.207 c 1.52067,-2.63348 0.62482,-5.97809 -2.008659,-7.49877 -0.82297,-0.47521 -1.71539,-0.71399 -2.59984,-0.73794 z m -34.89245,59.28579 c -1.27225,0.009 -2.28571,0.17101 -2.81223,0.2744 l -3.56981,6.18154 c -1.52067,2.63348 -0.62481,5.97809 2.00867,7.49876 2.63348,1.52068 5.97809,0.62482 7.49876,-2.00866 l 5.07876,-8.79481 c -0.0113,-0.0401 -0.0242,-0.0713 -0.0351,-0.11369 -2.4701,-2.52329 -5.76172,-3.05519 -8.16901,-3.03754 z"
           style="opacity:1;fill:#000000;fill-opacity:1;stroke:none;stroke-width:0.80737346;stroke-miterlimit:4;stroke-dasharray:none;stroke-opacity:1" />
      </g>
      <g
         style="opacity:1;fill:#ffffff;fill-opacity:1;stroke-width:3.91739345"
         transform="matrix(0.2466547,0,0,0.2466547,44.058552,225.79068)"
         id="g4853">
        <path
           style="opacity:1;fill:#ffffff;fill-opacity:1;stroke:none;stroke-width:0.80737346;stroke-miterlimit:4;stroke-dasharray:none;stroke-opacity:1"
           d="m -146.34412,228.20957 c -3.041,0 -5.48907,2.44807 -5.48907,5.48907 0,3.041 2.44807,5.48907 5.48907,5.48907 h 47.553169 c 0.0337,-0.1643 0.0715,-0.33423 0.11317,-0.50953 2.43521,-5.95311 -2.656859,-9.82089 -6.094199,-10.46861 z m 52.735279,0 5.76502,7.35821 0.51005,2.75332 c 0,0 -0.4347,0.35593 -1.10846,0.86661 h 14.84147 c 3.041,0 5.48907,-2.44807 5.48907,-5.48907 0,-3.041 -2.44807,-5.48907 -5.48907,-5.48907 z"
           id="rect4832"
           inkscape:connector-curvature="0"
           sodipodi:nodetypes="ssscccsccccsssc" />
        <path
           style="opacity:1;fill:#ffffff;fill-opacity:1;stroke:none;stroke-width:3.05149031;stroke-miterlimit:4;stroke-dasharray:none;stroke-opacity:1"
           d="m -440.11328,77.021484 c -3.34321,0.07451 -6.72087,0.961026 -9.83984,2.742188 -9.98071,5.699718 -13.42629,18.323981 -7.72657,28.304688 l 34.53516,60.47461 18.16211,-35.08985 c 0,0 4.54796,0.52697 10.42187,1.47266 l -27.08789,-47.433592 c -3.91855,-6.861736 -11.10979,-10.634632 -18.46484,-10.470704 z m 56.07422,76.328126 c -22.36031,13.20495 -18.07826,52.01421 -14.78711,57.77734 l 77.48828,135.68946 c 5.69972,9.9807 18.32398,13.42628 28.30469,7.72656 9.9807,-5.69972 13.42628,-18.32398 7.72656,-28.30469 z"
           transform="matrix(0.26458333,0,0,0.26458333,0,161.53332)"
           id="rect4834"
           inkscape:connector-curvature="0"
           sodipodi:nodetypes="sscccccscscscc" />
        <path
           style="opacity:1;fill:#ffffff;fill-opacity:1;stroke:none;stroke-width:0.80737346;stroke-miterlimit:4;stroke-dasharray:none;stroke-opacity:1"
           d="m -102.88804,181.99934 c -1.9458,-0.0527 -3.85295,0.93609 -4.89841,2.74661 l -28.38225,49.15152 11.20759,2.54558 26.681569,-46.207 c 1.52067,-2.63348 0.62482,-5.97809 -2.008659,-7.49877 -0.82297,-0.47521 -1.71539,-0.71399 -2.59984,-0.73794 z m -34.89245,59.28579 c -1.27225,0.009 -2.28571,0.17101 -2.81223,0.2744 l -3.56981,6.18154 c -1.52067,2.63348 -0.62481,5.97809 2.00867,7.49876 2.63348,1.52068 5.97809,0.62482 7.49876,-2.00866 l 5.07876,-8.79481 c -0.0113,-0.0401 -0.0242,-0.0713 -0.0351,-0.11369 -2.4701,-2.52329 -5.76172,-3.05519 -8.16901,-3.03754 z"
           id="rect4836"
           inkscape:connector-curvature="0" />
      </g>
    </g>
  </g>
</svg>
