<?xml version="1.0" encoding="UTF-8" standalone="no"?>
<!-- Created with Inkscape (http://www.inkscape.org/) -->

<svg
   xmlns:osb="http://www.openswatchbook.org/uri/2009/osb"
   xmlns:dc="http://purl.org/dc/elements/1.1/"
   xmlns:cc="http://creativecommons.org/ns#"
   xmlns:rdf="http://www.w3.org/1999/02/22-rdf-syntax-ns#"
   xmlns:svg="http://www.w3.org/2000/svg"
   xmlns="http://www.w3.org/2000/svg"
   xmlns:sodipodi="http://sodipodi.sourceforge.net/DTD/sodipodi-0.dtd"
   xmlns:inkscape="http://www.inkscape.org/namespaces/inkscape"
   width="128"
   height="128"
   viewBox="0 0 33.866666 33.866668"
   version="1.1"
   id="svg8"
   inkscape:version="0.92.3 (2405546, 2018-03-11)"
   sodipodi:docname="system-lock.svg">
  <defs
     id="defs2">
    <linearGradient
       osb:paint="solid"
       id="linearGradient6987">
      <stop
         id="stop6985"
         offset="0"
         style="stop-color:#77d2fb;stop-opacity:1;" />
    </linearGradient>
  </defs>
  <sodipodi:namedview
     id="base"
     pagecolor="#ffffff"
     bordercolor="#666666"
     borderopacity="1.0"
     inkscape:pageopacity="0.0"
     inkscape:pageshadow="2"
     inkscape:zoom="1.5992767"
     inkscape:cx="-59.242051"
     inkscape:cy="39.652338"
     inkscape:document-units="mm"
     inkscape:current-layer="layer1"
     showgrid="false"
     inkscape:window-width="1600"
     inkscape:window-height="837"
     inkscape:window-x="0"
     inkscape:window-y="27"
     inkscape:window-maximized="1"
     units="px" />
  <metadata
     id="metadata5">
    <rdf:RDF>
      <cc:Work
         rdf:about="">
        <dc:format>image/svg+xml</dc:format>
        <dc:type
           rdf:resource="http://purl.org/dc/dcmitype/StillImage" />
        <dc:title></dc:title>
      </cc:Work>
    </rdf:RDF>
  </metadata>
  <g
     inkscape:label="Layer 1"
     inkscape:groupmode="layer"
     id="layer1"
     transform="translate(0,-263.13332)">
    <circle
       style="opacity:0.25;fill:#000000;fill-opacity:1;stroke:none;stroke-width:0.19047622;stroke-linecap:round;stroke-miterlimit:4;stroke-dasharray:0.04761905, 0.04761905;stroke-dashoffset:0;stroke-opacity:1"
       id="circle1067"
       cx="16.933332"
       cy="280.3147"
       r="15.62695" />
    <circle
       r="15.62695"
       cy="279.8186"
       cx="16.933332"
       id="circle1042"
       style="opacity:1;fill:#34495e;fill-opacity:1;stroke:none;stroke-width:0.2;stroke-linecap:round;stroke-miterlimit:4;stroke-dasharray:0.05, 0.05000000000000000;stroke-dashoffset:0;stroke-opacity:1" />
    <path
       inkscape:connector-curvature="0"
       id="path1048"
       d="m 16.671367,269.60229 c -3.394057,0 -6.126449,2.73239 -6.126449,6.12645 v 2.74987 h -0.04897 c -0.9740086,0 -1.7581582,0.78414 -1.7581582,1.75816 v 9.04807 c 0,0.974 0.7841496,1.75803 1.7581582,1.75803 h 12.87477 c 0.97401,0 1.758162,-0.78403 1.758162,-1.75803 v -9.04807 c 0,-0.97402 -0.784152,-1.75816 -1.758162,-1.75816 h -0.04911 v -2.74987 c 0,-3.39406 -2.732394,-6.12645 -6.12645,-6.12645 z m 0.261968,2.3523 c 2.071855,0 3.739794,1.66794 3.739794,3.73979 v 2.78423 H 13.1934 v -2.78423 c 0,-2.07185 1.668072,-3.73979 3.739935,-3.73979 z"
       style="opacity:0.25;fill:#000000;fill-opacity:1;fill-rule:nonzero;stroke:none;stroke-width:0.02684885;stroke-linecap:round;stroke-linejoin:round;stroke-miterlimit:4;stroke-dasharray:none;stroke-dashoffset:0;stroke-opacity:1" />
    <path
       style="opacity:1;fill:#ffffff;fill-opacity:1;fill-rule:nonzero;stroke:#666666;stroke-width:0.1;stroke-linecap:round;stroke-linejoin:round;stroke-miterlimit:4;stroke-dasharray:none;stroke-dashoffset:0;stroke-opacity:1"
       d="m 16.671367,269.09831 c -3.394057,0 -6.126449,2.73239 -6.126449,6.12646 v 2.74987 h -0.04897 c -0.9740086,0 -1.7581582,0.78414 -1.7581582,1.75816 v 9.04807 c 0,0.974 0.7841496,1.75803 1.7581582,1.75803 h 12.87477 c 0.97401,0 1.758162,-0.78403 1.758162,-1.75803 v -9.04807 c 0,-0.97402 -0.784152,-1.75816 -1.758162,-1.75816 h -0.04911 v -2.74987 c 0,-3.39407 -2.732394,-6.12646 -6.12645,-6.12646 z m 0.261968,2.35231 c 2.071855,0 3.739794,1.66794 3.739794,3.73979 v 2.78423 H 13.1934 v -2.78423 c 0,-2.07185 1.668072,-3.73979 3.739935,-3.73979 z"
       id="rect1046"
       inkscape:connector-curvature="0" />
  </g>
</svg>
