<?xml version="1.0" encoding="UTF-8" standalone="no"?>
<!-- Created with Inkscape (http://www.inkscape.org/) -->

<svg
   xmlns:dc="http://purl.org/dc/elements/1.1/"
   xmlns:cc="http://creativecommons.org/ns#"
   xmlns:rdf="http://www.w3.org/1999/02/22-rdf-syntax-ns#"
   xmlns:svg="http://www.w3.org/2000/svg"
   xmlns="http://www.w3.org/2000/svg"
   xmlns:xlink="http://www.w3.org/1999/xlink"
   xmlns:sodipodi="http://sodipodi.sourceforge.net/DTD/sodipodi-0.dtd"
   xmlns:inkscape="http://www.inkscape.org/namespaces/inkscape"
   width="128"
   height="128"
   viewBox="0 0 33.866666 33.866668"
   version="1.1"
   id="svg8"
   inkscape:version="0.92.3 (2405546, 2018-03-11)"
   sodipodi:docname="mailspring.svg">
  <defs
     id="defs2">
    <linearGradient
       inkscape:collect="always"
       id="linearGradient1054">
      <stop
         style="stop-color:#ffe595;stop-opacity:1"
         offset="0"
         id="stop1050" />
      <stop
         style="stop-color:#fffdf7;stop-opacity:1"
         offset="1"
         id="stop1052" />
    </linearGradient>
    <linearGradient
       inkscape:collect="always"
       id="linearGradient1046">
      <stop
         style="stop-color:#ff7f11;stop-opacity:1"
         offset="0"
         id="stop1042" />
      <stop
         style="stop-color:#ffbb26;stop-opacity:1"
         offset="1"
         id="stop1044" />
    </linearGradient>
    <linearGradient
       inkscape:collect="always"
       id="linearGradient1029">
      <stop
         style="stop-color:#313eb8;stop-opacity:1"
         offset="0"
         id="stop1025" />
      <stop
         style="stop-color:#27319b;stop-opacity:1"
         offset="1"
         id="stop1027" />
    </linearGradient>
    <linearGradient
       inkscape:collect="always"
       id="linearGradient1021">
      <stop
         style="stop-color:#4466e8;stop-opacity:1"
         offset="0"
         id="stop1017" />
      <stop
         style="stop-color:#4866f0;stop-opacity:1"
         offset="1"
         id="stop1019" />
    </linearGradient>
    <linearGradient
       inkscape:collect="always"
       id="linearGradient1013">
      <stop
         style="stop-color:#4855b3;stop-opacity:1"
         offset="0"
         id="stop1009" />
      <stop
         style="stop-color:#27329b;stop-opacity:1"
         offset="1"
         id="stop1011" />
    </linearGradient>
    <linearGradient
       inkscape:collect="always"
       xlink:href="#linearGradient1013"
       id="linearGradient1015"
       x1="15.126504"
       y1="269.64673"
       x2="16.911655"
       y2="284.28033"
       gradientUnits="userSpaceOnUse" />
    <linearGradient
       inkscape:collect="always"
       xlink:href="#linearGradient1021"
       id="linearGradient1023"
       x1="14.515391"
       y1="291.43961"
       x2="14.515391"
       y2="269.62903"
       gradientUnits="userSpaceOnUse" />
    <linearGradient
       inkscape:collect="always"
       xlink:href="#linearGradient1029"
       id="linearGradient1031"
       x1="17.656981"
       y1="290.55215"
       x2="17.981153"
       y2="280.03436"
       gradientUnits="userSpaceOnUse" />
    <linearGradient
       inkscape:collect="always"
       xlink:href="#linearGradient1046"
       id="linearGradient1048"
       x1="-9.979887"
       y1="286.57037"
       x2="-9.979887"
       y2="272.0874"
       gradientUnits="userSpaceOnUse" />
    <linearGradient
       inkscape:collect="always"
       xlink:href="#linearGradient1054"
       id="linearGradient1056"
       x1="-36.124863"
       y1="281.6926"
       x2="-36.124863"
       y2="273.7074"
       gradientUnits="userSpaceOnUse" />
    <linearGradient
       inkscape:collect="always"
       xlink:href="#linearGradient1054"
       id="linearGradient1058"
       gradientUnits="userSpaceOnUse"
       x1="-36.124863"
       y1="281.6926"
       x2="-36.124863"
       y2="273.7074" />
  </defs>
  <sodipodi:namedview
     id="base"
     pagecolor="#ffffff"
     bordercolor="#666666"
     borderopacity="1.0"
     inkscape:pageopacity="0.0"
     inkscape:pageshadow="2"
     inkscape:zoom="0.84492189"
     inkscape:cx="-104.42859"
     inkscape:cy="93.059027"
     inkscape:document-units="mm"
     inkscape:current-layer="layer1"
     showgrid="false"
     inkscape:window-width="1529"
     inkscape:window-height="837"
     inkscape:window-x="71"
     inkscape:window-y="27"
     inkscape:window-maximized="1"
     units="px" />
  <metadata
     id="metadata5">
    <rdf:RDF>
      <cc:Work
         rdf:about="">
        <dc:format>image/svg+xml</dc:format>
        <dc:type
           rdf:resource="http://purl.org/dc/dcmitype/StillImage" />
        <dc:title></dc:title>
      </cc:Work>
    </rdf:RDF>
  </metadata>
  <g
     inkscape:label="Layer 1"
     inkscape:groupmode="layer"
     id="layer1"
     transform="translate(0,-263.13332)">
    <rect
       ry="1.4044232"
       y="269.22748"
       x="1.0583333"
       height="22.182304"
       width="31.75"
       id="rect930"
       style="opacity:0.25;fill:#000000;fill-opacity:1;fill-rule:nonzero;stroke:none;stroke-width:0.19032511;stroke-miterlimit:4;stroke-dasharray:none;stroke-opacity:1" />
    <rect
       style="opacity:1;fill:url(#linearGradient1023);fill-opacity:1;fill-rule:nonzero;stroke:#2c4c80;stroke-width:0.1;stroke-miterlimit:4;stroke-dasharray:none;stroke-opacity:1"
       id="rect880"
       width="31.75"
       height="22.182304"
       x="1.0583333"
       y="268.72351"
       ry="1.4044232" />
    <path
       style="opacity:1;fill:url(#linearGradient1031);fill-opacity:1;fill-rule:nonzero;stroke:#2c4c80;stroke-width:0.1;stroke-miterlimit:4;stroke-dasharray:none;stroke-opacity:1"
       d="M 16.933285,274.94257 1.9107146,290.79371 c 0.1693428,0.0721 0.3558476,0.11219 0.5521047,0.11219 H 31.403894 c 0.196257,0 0.382771,-0.0401 0.552105,-0.11219 z"
       id="rect913"
       inkscape:connector-curvature="0" />
    <path
       id="path918"
       d="m 2.4613526,268.72354 c -0.6287047,0 -1.158019,0.47093 -1.3381999,1.12412 l 15.7885033,16.78117 15.815343,-16.8239 c -0.191258,-0.63058 -0.709867,-1.08139 -1.324572,-1.08139 z"
       style="opacity:0.25;fill:#000000;fill-opacity:1;fill-rule:nonzero;stroke:none;stroke-width:0.1903251;stroke-miterlimit:4;stroke-dasharray:none;stroke-opacity:1"
       inkscape:connector-curvature="0" />
    <path
       style="opacity:1;fill:url(#linearGradient1015);fill-opacity:1;fill-rule:nonzero;stroke:#2c4c80;stroke-width:0.1;stroke-miterlimit:4;stroke-dasharray:none;stroke-opacity:1"
       d="m 2.4613526,268.72354 c -0.6287047,0 -1.158019,0.40916 -1.3381999,0.97668 l 15.7885033,14.58011 15.815343,-14.61724 c -0.191258,-0.54787 -0.709867,-0.93955 -1.324572,-0.93955 z"
       id="rect884"
       inkscape:connector-curvature="0" />
    <g
       id="g1072"
       transform="matrix(0.81734702,0,0,0.81734702,24.845718,51.664865)">
      <circle
         style="opacity:0.25;fill:#000000;fill-opacity:1;stroke:none;stroke-width:0.11338583;stroke-linecap:round;stroke-miterlimit:4;stroke-dasharray:none;stroke-dashoffset:0;stroke-opacity:1"
         id="circle1064"
         cx="-9.6805696"
         cy="279.42749"
         r="7.9713778" />
      <circle
         r="7.9713778"
         cy="278.89832"
         cx="-9.6805696"
         id="path1033"
         style="opacity:1;fill:url(#linearGradient1048);fill-opacity:1;stroke:#8a470a;stroke-width:0.11338583;stroke-linecap:round;stroke-miterlimit:4;stroke-dasharray:none;stroke-dashoffset:0;stroke-opacity:1" />
      <g
         aria-label="@"
         style="font-style:normal;font-weight:normal;font-size:10.58333302px;line-height:1.25;font-family:sans-serif;letter-spacing:0px;word-spacing:0px;opacity:0.25;fill:#000000;fill-opacity:1;stroke:none;stroke-width:0.26458332"
         id="g1062"
         transform="translate(25.584477,2.1972021)">
        <path
           d="m -33.440867,275.10126 h 0.878499 l -0.950846,2.96106 q -0.129191,0.37207 -0.129191,0.53226 0,0.28422 0.310058,0.42375 0.103353,0.0413 0.222209,0.0413 0.676961,0 1.235067,-0.76481 0.542602,-0.74931 0.542602,-1.66915 0,-1.27124 -1.028361,-2.21175 -1.049031,-0.97668 -2.537313,-1.0387 -0.07751,0 -0.160197,0 -1.55546,0 -2.754353,1.08004 l -0.356568,0.36174 q -1.049031,1.19372 -1.049031,2.69751 0,1.49345 1.111043,2.51664 1.142049,1.05937 2.857707,1.05937 0.837158,0 2.041219,-0.34107 l 0.299723,0.70797 q -1.188558,0.44442 -2.392619,0.44442 -1.90686,0 -3.291788,-1.13172 -1.291911,-1.0542 -1.493449,-2.60966 -0.03101,-0.24288 -0.03101,-0.48576 0,-1.63297 1.00769,-3.00756 0.294556,-0.41342 0.666626,-0.73898 1.142049,-1.03869 2.738851,-1.30224 0.392741,-0.0672 0.785482,-0.0672 1.756998,0 3.054077,1.0697 1.229899,0.99735 1.421102,2.42362 0.03101,0.22221 0.03101,0.44442 0,1.28158 -0.909506,2.36161 -0.806152,0.94052 -1.968872,0.94052 -1.018025,0 -1.162719,-0.81132 -0.697632,0.75964 -1.503784,0.75964 -0.868165,0 -1.364258,-0.72864 -0.361735,-0.52193 -0.361735,-1.20923 0,-1.15238 0.837158,-2.04122 0.816488,-0.8785 1.881022,-0.88883 0.888835,0 1.291911,0.91984 z m -1.586467,0.45475 q -0.697632,0 -1.224731,0.74931 -0.480591,0.66662 -0.480591,1.51412 0,0.71313 0.501261,1.0697 0.253215,0.18087 0.547771,0.18087 0.614949,0 1.080037,-0.6873 0.3514,-0.50643 0.516764,-1.40043 0.04651,-0.23254 0.05684,-0.40824 0.03101,-0.57361 -0.434082,-0.86817 -0.258382,-0.14986 -0.563273,-0.14986 z"
           style="font-style:normal;font-variant:normal;font-weight:normal;font-stretch:normal;font-family:'Khmer OS';-inkscape-font-specification:'Khmer OS';fill:#000000;fill-opacity:1;stroke-width:0.26458332"
           id="path1060"
           inkscape:connector-curvature="0" />
      </g>
      <g
         transform="translate(25.584477,1.6680354)"
         id="text1037"
         style="font-style:normal;font-weight:normal;font-size:10.58333302px;line-height:1.25;font-family:sans-serif;letter-spacing:0px;word-spacing:0px;fill:url(#linearGradient1056);fill-opacity:1;stroke:none;stroke-width:0.26458332"
         aria-label="@">
        <path
           inkscape:connector-curvature="0"
           id="path1039"
           style="font-style:normal;font-variant:normal;font-weight:normal;font-stretch:normal;font-family:'Khmer OS';-inkscape-font-specification:'Khmer OS';fill:url(#linearGradient1058);fill-opacity:1;stroke-width:0.26458332"
           d="m -33.440867,275.10126 h 0.878499 l -0.950846,2.96106 q -0.129191,0.37207 -0.129191,0.53226 0,0.28422 0.310058,0.42375 0.103353,0.0413 0.222209,0.0413 0.676961,0 1.235067,-0.76481 0.542602,-0.74931 0.542602,-1.66915 0,-1.27124 -1.028361,-2.21175 -1.049031,-0.97668 -2.537313,-1.0387 -0.07751,0 -0.160197,0 -1.55546,0 -2.754353,1.08004 l -0.356568,0.36174 q -1.049031,1.19372 -1.049031,2.69751 0,1.49345 1.111043,2.51664 1.142049,1.05937 2.857707,1.05937 0.837158,0 2.041219,-0.34107 l 0.299723,0.70797 q -1.188558,0.44442 -2.392619,0.44442 -1.90686,0 -3.291788,-1.13172 -1.291911,-1.0542 -1.493449,-2.60966 -0.03101,-0.24288 -0.03101,-0.48576 0,-1.63297 1.00769,-3.00756 0.294556,-0.41342 0.666626,-0.73898 1.142049,-1.03869 2.738851,-1.30224 0.392741,-0.0672 0.785482,-0.0672 1.756998,0 3.054077,1.0697 1.229899,0.99735 1.421102,2.42362 0.03101,0.22221 0.03101,0.44442 0,1.28158 -0.909506,2.36161 -0.806152,0.94052 -1.968872,0.94052 -1.018025,0 -1.162719,-0.81132 -0.697632,0.75964 -1.503784,0.75964 -0.868165,0 -1.364258,-0.72864 -0.361735,-0.52193 -0.361735,-1.20923 0,-1.15238 0.837158,-2.04122 0.816488,-0.8785 1.881022,-0.88883 0.888835,0 1.291911,0.91984 z m -1.586467,0.45475 q -0.697632,0 -1.224731,0.74931 -0.480591,0.66662 -0.480591,1.51412 0,0.71313 0.501261,1.0697 0.253215,0.18087 0.547771,0.18087 0.614949,0 1.080037,-0.6873 0.3514,-0.50643 0.516764,-1.40043 0.04651,-0.23254 0.05684,-0.40824 0.03101,-0.57361 -0.434082,-0.86817 -0.258382,-0.14986 -0.563273,-0.14986 z" />
      </g>
    </g>
  </g>
</svg>
