<?xml version="1.0" encoding="UTF-8" standalone="no"?>
<!-- Created with Inkscape (http://www.inkscape.org/) -->

<svg
   xmlns:dc="http://purl.org/dc/elements/1.1/"
   xmlns:cc="http://creativecommons.org/ns#"
   xmlns:rdf="http://www.w3.org/1999/02/22-rdf-syntax-ns#"
   xmlns:svg="http://www.w3.org/2000/svg"
   xmlns="http://www.w3.org/2000/svg"
   xmlns:xlink="http://www.w3.org/1999/xlink"
   xmlns:sodipodi="http://sodipodi.sourceforge.net/DTD/sodipodi-0.dtd"
   xmlns:inkscape="http://www.inkscape.org/namespaces/inkscape"
   width="128"
   height="128"
   viewBox="0 0 33.866666 33.866668"
   version="1.1"
   id="svg8"
   inkscape:version="0.92.3 (2405546, 2018-03-11)"
   sodipodi:docname="touch.svg">
  <defs
     id="defs2">
    <linearGradient
       inkscape:collect="always"
       id="linearGradient1411">
      <stop
         style="stop-color:#0d0e0e;stop-opacity:1"
         offset="0"
         id="stop1407" />
      <stop
         style="stop-color:#353738;stop-opacity:1"
         offset="1"
         id="stop1409" />
    </linearGradient>
    <linearGradient
       inkscape:collect="always"
       id="linearGradient1380">
      <stop
         style="stop-color:#f9b729;stop-opacity:1"
         offset="0"
         id="stop1376" />
      <stop
         style="stop-color:#ffe967;stop-opacity:1"
         offset="1"
         id="stop1378" />
    </linearGradient>
    <linearGradient
       inkscape:collect="always"
       xlink:href="#linearGradient1380"
       id="linearGradient1382"
       x1="-15.874995"
       y1="346.1369"
       x2="-15.874995"
       y2="313.72092"
       gradientUnits="userSpaceOnUse"
       gradientTransform="matrix(0.71436619,0,0,0.71436619,28.611411,45.395632)" />
    <linearGradient
       inkscape:collect="always"
       xlink:href="#linearGradient1411"
       id="linearGradient1413"
       x1="-14.530916"
       y1="343.39334"
       x2="-14.530916"
       y2="334.52188"
       gradientUnits="userSpaceOnUse"
       gradientTransform="matrix(0.95912012,0,0,0.95912012,34.038623,-34.002641)" />
  </defs>
  <sodipodi:namedview
     id="base"
     pagecolor="#ffffff"
     bordercolor="#666666"
     borderopacity="1.0"
     inkscape:pageopacity="0.0"
     inkscape:pageshadow="2"
     inkscape:zoom="1.979899"
     inkscape:cx="-47.871564"
     inkscape:cy="69.562908"
     inkscape:document-units="mm"
     inkscape:current-layer="layer1"
     showgrid="false"
     units="px"
     inkscape:window-width="1600"
     inkscape:window-height="837"
     inkscape:window-x="0"
     inkscape:window-y="30"
     inkscape:window-maximized="1" />
  <metadata
     id="metadata5">
    <rdf:RDF>
      <cc:Work
         rdf:about="">
        <dc:format>image/svg+xml</dc:format>
        <dc:type
           rdf:resource="http://purl.org/dc/dcmitype/StillImage" />
        <dc:title />
      </cc:Work>
    </rdf:RDF>
  </metadata>
  <g
     inkscape:label="Layer 1"
     inkscape:groupmode="layer"
     id="layer1"
     transform="translate(0,-263.13332)">
    <g
       id="g854"
       transform="matrix(0.99853999,0,0,0.99853999,0.02472372,0.43208112)">
      <path
         id="path1435"
         d="m 16.996888,278.11938 a 1.6178135,1.6178135 0 0 0 -1.6221,1.61903 v 8.10132 c 0,0.12428 0.01475,0.24616 0.04103,0.36373 -0.01232,0.0673 -0.02144,0.13591 -0.02878,0.20575 l -0.31107,-0.31108 a 1.6141395,1.6141395 0 0 0 -2.291393,0 1.6141395,1.6141395 0 0 0 0,2.29141 l 2.863322,2.86332 c 0.07348,0.0765 0.155543,0.14076 0.238815,0.1984 0.889737,1.47329 2.846788,2.49039 5.125934,2.49039 h 0.06981 c 3.12112,0 5.635404,-1.90929 5.635404,-4.27967 v -0.35148 c 0,-0.0429 0,-0.0838 -0.0024,-0.12428 0.0024,-0.0361 0.0024,-0.0692 0.0024,-0.10536 v -2.43039 a 2.4248832,2.4248832 0 0 0 -2.026245,-2.39671 v -0.033 a 1.6165889,1.6165889 0 0 0 -1.61904,-1.6221 1.6165889,1.6165889 0 0 0 -1.234486,0.56948 1.6141395,1.6141395 0 0 0 -1.600055,-1.37778 1.6165889,1.6165889 0 0 0 -1.622101,1.61905 v -5.67093 a 1.6159765,1.6159765 0 0 0 -1.619037,-1.61966 z m 0,0"
         inkscape:connector-curvature="0"
         style="opacity:0.25;fill:#000000;fill-opacity:1;stroke-width:0.61234426" />
      <circle
         style="opacity:0.25;fill:#000000;fill-opacity:1;stroke:none;stroke-width:0.10277131;stroke-miterlimit:4;stroke-dasharray:none;stroke-dashoffset:0;stroke-opacity:1"
         id="circle1433"
         cx="16.933332"
         cy="278.86646"
         r="14.243207" />
      <circle
         r="14.243207"
         cy="278.48843"
         cx="16.933332"
         id="path1366"
         style="opacity:1;fill:url(#linearGradient1382);fill-opacity:1;stroke:#665018;stroke-width:0.2;stroke-miterlimit:4;stroke-dasharray:none;stroke-dashoffset:0;stroke-opacity:1" />
      <g
         style="opacity:0.25;stroke:#000000"
         id="g1431"
         transform="matrix(0.71436619,0,0,0.71436619,29.072746,45.773651)">
        <path
           style="fill:none;stroke:#000000;stroke-width:2.28243876;stroke-linecap:round;stroke-linejoin:round;stroke-opacity:1"
           inkscape:connector-curvature="0"
           d="m -16.991547,324.25902 a 3.4030259,3.4030259 0 1 1 -8.58e-4,6.80434 3.4030259,3.4030259 0 0 1 0,-6.80434 z m 0,0"
           id="path1427" />
        <path
           style="fill:none;stroke:#000000;stroke-width:2.26454353;stroke-linecap:round;stroke-linejoin:round;stroke-opacity:1"
           inkscape:connector-curvature="0"
           d="m -16.991547,318.58961 c 5.009389,0 9.0707343,4.06222 9.0707343,9.07074 0,5.01281 -4.0613453,9.07416 -9.0707343,9.07416 -5.012822,0 -9.074167,-4.06135 -9.074167,-9.07416 0,-5.00852 4.061345,-9.07074 9.074167,-9.07074 z m 0,0"
           id="path1429" />
      </g>
      <g
         transform="matrix(0.71436619,0,0,0.71436619,29.072746,45.395632)"
         id="g1425">
        <path
           id="path1399"
           d="m -16.991547,324.25902 a 3.4030259,3.4030259 0 1 1 -8.58e-4,6.80434 3.4030259,3.4030259 0 0 1 0,-6.80434 z m 0,0"
           inkscape:connector-curvature="0"
           style="fill:none;stroke:#ffffff;stroke-width:2.28243876;stroke-linecap:round;stroke-linejoin:round;stroke-opacity:1" />
        <path
           id="path1401"
           d="m -16.991547,318.58961 c 5.009389,0 9.0707343,4.06222 9.0707343,9.07074 0,5.01281 -4.0613453,9.07416 -9.0707343,9.07416 -5.012822,0 -9.074167,-4.06135 -9.074167,-9.07416 0,-5.00852 4.061345,-9.07074 9.074167,-9.07074 z m 0,0"
           inkscape:connector-curvature="0"
           style="fill:none;stroke:#ffffff;stroke-width:2.26454353;stroke-linecap:round;stroke-linejoin:round;stroke-opacity:1" />
      </g>
      <path
         style="fill:url(#linearGradient1413);fill-opacity:1;stroke-width:0.61234426"
         inkscape:connector-curvature="0"
         d="m 16.996888,277.74136 a 1.6178135,1.6178135 0 0 0 -1.6221,1.61903 v 8.10132 c 0,0.12427 0.01475,0.24616 0.04103,0.36373 -0.01232,0.0673 -0.02144,0.13591 -0.02878,0.20574 l -0.31107,-0.31107 a 1.6141395,1.6141395 0 0 0 -2.291393,0 1.6141395,1.6141395 0 0 0 0,2.2914 l 2.863322,2.86333 c 0.07348,0.0765 0.155543,0.14076 0.238815,0.1984 0.889737,1.47329 2.846788,2.49039 5.125934,2.49039 h 0.06981 c 3.12112,0 5.635404,-1.90929 5.635404,-4.27967 v -0.35148 c 0,-0.0429 0,-0.0838 -0.0024,-0.12428 0.0024,-0.0361 0.0024,-0.0692 0.0024,-0.10536 v -2.43039 a 2.4248832,2.4248832 0 0 0 -2.026245,-2.39671 v -0.033 a 1.6165889,1.6165889 0 0 0 -1.61904,-1.6221 1.6165889,1.6165889 0 0 0 -1.234486,0.56948 1.6141395,1.6141395 0 0 0 -1.600055,-1.37778 1.6165889,1.6165889 0 0 0 -1.622101,1.61905 v -5.67093 a 1.6159765,1.6159765 0 0 0 -1.619037,-1.61966 z m 0,0"
         id="path1403" />
    </g>
  </g>
</svg>
