<?xml version="1.0" encoding="UTF-8" standalone="no"?>
<!-- Generator: Adobe Illustrator 22.1.0, SVG Export Plug-In . SVG Version: 6.00 Build 0)  -->

<!-- Artist: @KevDoy for Trenta.io -->

<!-- Vector Conversion by @Genghis-Khanr -->

<svg
   xmlns:dc="http://purl.org/dc/elements/1.1/"
   xmlns:cc="http://creativecommons.org/ns#"
   xmlns:rdf="http://www.w3.org/1999/02/22-rdf-syntax-ns#"
   xmlns:svg="http://www.w3.org/2000/svg"
   xmlns="http://www.w3.org/2000/svg"
   xmlns:sodipodi="http://sodipodi.sourceforge.net/DTD/sodipodi-0.dtd"
   xmlns:inkscape="http://www.inkscape.org/namespaces/inkscape"
   version="1.1"
   id="transmission"
   x="0px"
   y="0px"
   viewBox="0 0 128 128"
   xml:space="preserve"
   sodipodi:docname="transmission.svg"
   width="128"
   height="128"
   inkscape:version="0.92.2 5c3e80d, 2017-08-06"><metadata
     id="metadata277"><rdf:RDF><cc:Work
         rdf:about=""><dc:format>image/svg+xml</dc:format><dc:type
           rdf:resource="http://purl.org/dc/dcmitype/StillImage" /><dc:title></dc:title></cc:Work></rdf:RDF></metadata><defs
     id="defs275" /><sodipodi:namedview
     pagecolor="#ffffff"
     bordercolor="#666666"
     borderopacity="1"
     objecttolerance="10"
     gridtolerance="10"
     guidetolerance="10"
     inkscape:pageopacity="0"
     inkscape:pageshadow="2"
     inkscape:window-width="1600"
     inkscape:window-height="811"
     id="namedview273"
     showgrid="false"
     inkscape:zoom="3.1472812"
     inkscape:cx="79.608532"
     inkscape:cy="53.636748"
     inkscape:window-x="0"
     inkscape:window-y="0"
     inkscape:window-maximized="1"
     inkscape:current-layer="transmission" /><style
     type="text/css"
     id="style2">
	.st0{fill:url(#SVGID_1_);}
	.st1{fill:#CDCDCD;}
	.st2{fill:#1E1E1E;}
	.st3{fill:url(#SVGID_2_);}
	.st4{fill:#767676;}
	.st5{fill:#4F4F4F;}
	.st6{fill:url(#SVGID_3_);}
	.st7{fill:url(#SVGID_4_);}
	.st8{fill:url(#SVGID_5_);}
	.st9{fill:url(#SVGID_6_);}
	.st10{fill:url(#SVGID_7_);}
	.st11{opacity:0.5;}
	.st12{fill:url(#SVGID_8_);}
	.st13{fill:#FFFFFF;}
	.st14{fill:url(#SVGID_9_);}
	.st15{fill:url(#SVGID_10_);}
	.st16{fill:url(#SVGID_11_);}
	.st17{fill:url(#SVGID_12_);}
	.st18{fill:url(#SVGID_13_);}
	.st19{fill:#4E4E4E;}
	.st20{fill:url(#SVGID_14_);}
</style><linearGradient
     id="SVGID_2_"
     gradientUnits="userSpaceOnUse"
     x1="331.9451"
     y1="668.69598"
     x2="704.63232"
     y2="464.67581"
     gradientTransform="matrix(0.14063838,0,0,0.14063838,-7.4762709,-4.8126518)"><stop
       offset="0"
       style="stop-color:#C8C6C8"
       id="stop27" /><stop
       offset="0.1821"
       style="stop-color:#DFDEDF"
       id="stop29" /><stop
       offset="0.4139"
       style="stop-color:#F6F6F6"
       id="stop31" /><stop
       offset="0.5563"
       style="stop-color:#FFFFFF"
       id="stop33" /><stop
       offset="0.5584"
       style="stop-color:#FFFFFF"
       id="stop35" /><stop
       offset="0.8498"
       style="stop-color:#D7D6D7"
       id="stop37" /><stop
       offset="1"
       style="stop-color:#C8C6C8"
       id="stop39" /></linearGradient><g
     id="g1086"
     transform="matrix(0.96704838,0,0,0.96704838,2.0932469,0.31701597)"><g
       transform="matrix(0.14063838,0,0,0.14063838,-7.4762709,-4.8126528)"
       id="g21"><linearGradient
         y2="428.5831"
         x2="770.24329"
         y1="709.23438"
         x1="261.27731"
         gradientUnits="userSpaceOnUse"
         id="SVGID_1_"><stop
           id="stop4"
           style="stop-color:#707070"
           offset="0" /><stop
           id="stop6"
           style="stop-color:#8D8D8D"
           offset="0.1292" /><stop
           id="stop8"
           style="stop-color:#D8D8D8"
           offset="0.4081" /><stop
           id="stop10"
           style="stop-color:#FFFFFF"
           offset="0.5473" /><stop
           id="stop12"
           style="stop-color:#C3C3C3"
           offset="0.7223" /><stop
           id="stop14"
           style="stop-color:#878787"
           offset="0.9101" /><stop
           id="stop16"
           style="stop-color:#707070"
           offset="1" /></linearGradient><path
         style="fill:url(#SVGID_1_)"
         inkscape:connector-curvature="0"
         id="path19"
         d="M 864.8,709 464.6,931.8 c -92.2,41.3 -116.7,-36.1 -132,-71 L 172.5,494.1 c -15.3,-34.9 0.8,-72.1 36.7,-90.8 L 566.3,246.1 c 44.4,-19.5 78.4,-4.7 110.1,45.3 l 206.3,315.4 c 21.8,29.7 19.6,80.7 -17.9,102.2 z"
         class="st0" /></g><path
       style="fill:#cdcdcd;stroke-width:0.14063838"
       inkscape:connector-curvature="0"
       id="path23"
       d="m 28.034918,63.650108 c -0.689123,-1.490766 -2.10957,-3.501895 -1.476698,-4.866089 0.506298,-1.11104 1.490765,-1.800169 2.686192,-2.348659 L 73.039208,36.084983 c 2.658064,-1.223549 6.075575,0.09845 7.650725,2.728386 l 26.665037,41.699277 c 0.74538,1.33607 0.70319,2.95341 0.3516,4.40199 -0.39379,1.57515 -2.01113,3.305 -3.24875,3.92381 2.3346,-1.1673 3.69879,-5.14737 2.15177,-7.88982 L 80.239892,39.629072 c -1.561089,-2.601811 -4.93641,-3.923807 -7.566346,-2.714318 L 29.441305,57.011977 c -2.629936,1.209488 -2.629936,3.966003 -1.406387,6.638131"
       class="st1" /><path
       style="fill:#1e1e1e;stroke-width:0.14063838"
       inkscape:connector-curvature="0"
       id="path25"
       d="M 104.61252,88.824376 60.044218,112.62039 c -0.928211,0.49223 -1.912684,0.90008 -2.92528,1.15323 -4.092579,1.0126 -7.692921,-0.22502 -9.183686,-3.6566 L 26.895754,64.015769 c -1.223555,-2.658067 -0.08438,-5.794304 2.545551,-7.003792 L 72.673546,36.928815 c 2.629936,-1.209488 6.005257,0.112513 7.566346,2.714321 l 26.397818,41.30549 c 1.53296,2.72839 0.30941,6.70845 -2.02519,7.87575 z"
       class="st2" /><path
       style="fill:url(#SVGID_2_);stroke-width:0.14063838"
       inkscape:connector-curvature="0"
       id="path42"
       d="M 103.62805,89.386936 59.875448,112.69071 c -0.914144,0.49223 -1.870489,0.87196 -2.883085,1.12511 -4.008194,1.01259 -7.538218,-0.18284 -8.972732,-3.51597 L 27.627072,65.619046 c -1.181365,-2.573683 -0.05623,-5.639598 2.517423,-6.820963 L 73.475188,38.672729 c 2.573679,-1.18136 4.823891,0.253151 6.342791,2.784643 l 25.821201,40.264764 c 1.49077,2.64401 0.28128,6.51156 -2.01113,7.6648 z"
       class="st3" /><path
       style="fill:#767676;stroke-width:0.14063838"
       inkscape:connector-curvature="0"
       id="path44"
       d="M 48.033698,110.29985 28.752176,66.280044 c -1.167299,-2.545552 -0.02809,-5.569277 2.559617,-6.750642 L 73.461121,40.318201 c 2.573679,-1.181361 4.80983,0.22502 6.314663,2.700258 L 105.65325,81.694016 79.817979,41.443309 c -1.5189,-2.517429 -3.755045,-3.966001 -6.342791,-2.784641 L 30.144495,58.798083 c -2.573679,1.181365 -3.712856,4.24728 -2.517423,6.820963 l 20.406626,44.680804"
       class="st4" /><path
       style="fill:#b2b2b2;fill-opacity:1;stroke-width:0.14063838"
       inkscape:connector-curvature="0"
       id="path46"
       d="m 117.55126,91.355866 c -0.73132,1.42045 -1.85643,2.65807 -3.38939,3.54409 L 57.864323,126.23418 c -12.966859,5.80837 -16.412498,-5.07704 -18.56427,-9.98532 L 16.783851,64.676767 C 16.066594,63.0313 15.841573,61.343638 16.052532,59.740362 L 41.59246,119.41322 c 0,0 4.584816,11.92614 17.50948,4.71138 12.924666,-7.21474 58.44932,-32.768734 58.44932,-32.768734 z"
       class="st1" /><path
       style="fill:#4f4f4f;stroke-width:0.14063838"
       inkscape:connector-curvature="0"
       id="path48"
       d="m 19.301279,53.735102 c 0.759447,-0.689129 1.645468,-1.307937 2.643997,-1.8283 L 72.167248,29.798448 c 6.244345,-2.742443 11.026047,-0.661 15.484282,6.37092 l 29.01371,44.357348 c 0.84383,1.15323 1.4345,2.53149 1.74391,3.99413 L 85.134107,33.975412 c 0,0 -4.992661,-6.792838 -11.504222,-4.050383 -6.525625,2.742443 -54.328606,23.810073 -54.328606,23.810073 z"
       class="st5" /><path
       style="fill:#4f4f4f;stroke-width:0.14063838"
       inkscape:connector-curvature="0"
       id="path50"
       d="m 29.497561,57.011977 c -2.629941,1.209488 -4.697323,4.570748 -3.473773,7.228811 l 21.559868,47.184172 c 1.476705,3.44564 5.091108,4.68326 9.183687,3.6566 1.026657,-0.25315 1.997063,-0.64694 2.92528,-1.15324 L 104.62658,89.386936 c 2.33461,-1.1673 3.53003,-5.70992 1.98301,-8.45237 h 0.0141 c 1.54702,2.74245 0.32347,6.72251 -2.01113,7.88981 L 60.044236,112.62039 c -0.928211,0.49223 -1.912684,0.90008 -2.92528,1.15323 -4.092579,1.0126 -7.692921,-0.22502 -9.183686,-3.6566 L 26.895772,64.015769 c -1.223555,-2.658067 -0.08439,-5.794304 2.545551,-7.003792"
       class="st5" /><g
       transform="matrix(0.14063838,0,0,0.14063838,-7.4762709,-4.8126528)"
       id="g137"><linearGradient
         y2="695.30017"
         x2="543.50531"
         y1="492.8522"
         x1="559.07819"
         gradientUnits="userSpaceOnUse"
         id="SVGID_3_"><stop
           id="stop52"
           style="stop-color:#949494"
           offset="0.5259" /><stop
           id="stop54"
           style="stop-color:#8E8E8E"
           offset="0.6204" /><stop
           id="stop56"
           style="stop-color:#7E7E7E"
           offset="0.7419" /><stop
           id="stop58"
           style="stop-color:#646464"
           offset="0.8777" /><stop
           id="stop60"
           style="stop-color:#464646"
           offset="1" /></linearGradient><polygon
         style="fill:url(#SVGID_3_)"
         id="polygon63"
         points="504.4,645.5 505.1,655.7 470.7,672.5 620.7,715 657.4,584.3 615.1,602 549,501.9 549,499 449.8,544.8 "
         class="st6" /><linearGradient
         y2="587.625"
         x2="615.33331"
         y1="587.625"
         x1="660.5"
         gradientUnits="userSpaceOnUse"
         id="SVGID_4_"><stop
           id="stop65"
           style="stop-color:#343636"
           offset="0" /><stop
           id="stop67"
           style="stop-color:#373939"
           offset="0.2598" /><stop
           id="stop69"
           style="stop-color:#404242"
           offset="0.439" /><stop
           id="stop71"
           style="stop-color:#4F5151"
           offset="0.5942" /><stop
           id="stop73"
           style="stop-color:#656666"
           offset="0.7355" /><stop
           id="stop75"
           style="stop-color:#818282"
           offset="0.8674" /><stop
           id="stop77"
           style="stop-color:#A3A3A3"
           offset="0.9908" /><stop
           id="stop79"
           style="stop-color:#A6A6A6"
           offset="1" /></linearGradient><polygon
         style="fill:url(#SVGID_4_)"
         id="polygon82"
         points="615.3,602 615.8,591.3 660.5,573.3 657.4,584.3 "
         class="st7" /><linearGradient
         y2="548.91632"
         x2="615.75"
         y1="548.91632"
         x1="549"
         gradientUnits="userSpaceOnUse"
         id="SVGID_5_"><stop
           id="stop84"
           style="stop-color:#343636"
           offset="0" /><stop
           id="stop86"
           style="stop-color:#373939"
           offset="0.2598" /><stop
           id="stop88"
           style="stop-color:#404242"
           offset="0.439" /><stop
           id="stop90"
           style="stop-color:#4F5151"
           offset="0.5942" /><stop
           id="stop92"
           style="stop-color:#656666"
           offset="0.7355" /><stop
           id="stop94"
           style="stop-color:#818282"
           offset="0.8674" /><stop
           id="stop96"
           style="stop-color:#A3A3A3"
           offset="0.9908" /><stop
           id="stop98"
           style="stop-color:#A6A6A6"
           offset="1" /></linearGradient><polygon
         style="fill:url(#SVGID_5_)"
         id="polygon101"
         points="549,501.9 549,499.1 556.4,495.8 615.8,591.3 615.3,602 "
         class="st8" /><linearGradient
         y2="658.98932"
         x2="505.16669"
         y1="658.98932"
         x1="458.5"
         gradientUnits="userSpaceOnUse"
         id="SVGID_6_"><stop
           id="stop103"
           style="stop-color:#343636"
           offset="0" /><stop
           id="stop105"
           style="stop-color:#373939"
           offset="0.2598" /><stop
           id="stop107"
           style="stop-color:#404242"
           offset="0.439" /><stop
           id="stop109"
           style="stop-color:#4F5151"
           offset="0.5942" /><stop
           id="stop111"
           style="stop-color:#656666"
           offset="0.7355" /><stop
           id="stop113"
           style="stop-color:#818282"
           offset="0.8674" /><stop
           id="stop115"
           style="stop-color:#A3A3A3"
           offset="0.9908" /><stop
           id="stop117"
           style="stop-color:#A6A6A6"
           offset="1" /></linearGradient><polygon
         style="fill:url(#SVGID_6_)"
         id="polygon120"
         points="505.2,655.7 504.5,645.5 458.5,669 470.8,672.5 "
         class="st9" /><polygon
         id="polygon122"
         points="430.3,509.2 378.5,532.7 421,426.3 571.3,452 539.2,470 450,544.8 " /><linearGradient
         y2="627.63898"
         x2="554.80042"
         y1="627.63898"
         x1="657.38159"
         gradientUnits="userSpaceOnUse"
         id="SVGID_7_"><stop
           id="stop124"
           style="stop-color:#000000"
           offset="0" /><stop
           id="stop126"
           style="stop-color:#282828;stop-opacity:0.9265"
           offset="0.294" /><stop
           id="stop128"
           style="stop-color:#484848;stop-opacity:0.853"
           offset="0.5879" /><stop
           id="stop130"
           style="stop-color:#5C5C5C;stop-opacity:0.7917"
           offset="0.8333" /><stop
           id="stop132"
           style="stop-color:#636363;stop-opacity:0.75"
           offset="1" /></linearGradient><path
         style="fill:url(#SVGID_7_)"
         inkscape:connector-curvature="0"
         id="path135"
         d="m 554.8,550.3 c 0,0 41.9,84.8 18.6,151.2 l 47.3,13.4 36.7,-130.7 -42,17.7 -40.6,-61.7 z"
         class="st10" /></g><polygon
       transform="matrix(0.14063838,0,0,0.14063838,-7.4762709,-4.8126528)"
       style="opacity:0.5"
       id="polygon139"
       points="385.8,325.5 417.8,434.3 403.7,469.7 355,411.5 355,396 353.2,392.7 325.6,352 "
       class="st11" /><g
       transform="matrix(0.14063838,0,0,0.14063838,-7.4762709,-4.8126528)"
       id="g233"><linearGradient
         y2="213.6738"
         x2="606.0459"
         y1="61.673801"
         x1="528.0459"
         gradientUnits="userSpaceOnUse"
         id="SVGID_8_"><stop
           id="stop141"
           style="stop-color:#BC1E1B"
           offset="0" /><stop
           id="stop143"
           style="stop-color:#A61B19"
           offset="0.5531" /><stop
           id="stop145"
           style="stop-color:#991917"
           offset="0.6315" /><stop
           id="stop147"
           style="stop-color:#761311"
           offset="0.871" /><stop
           id="stop149"
           style="stop-color:#69110F"
           offset="1" /></linearGradient><path
         style="fill:url(#SVGID_8_)"
         inkscape:connector-curvature="0"
         id="path152"
         d="m 517.7,252 c 132.7,-63.7 141.6,-93.7 141.6,-93.7 8,-86 -39,-97 -39,-97 -127.7,4.3 -165.1,27.6 -165.1,27.6 0,0 44.2,61.8 62.5,163.1 z"
         class="st12" /><path
         style="fill:#ffffff"
         inkscape:connector-curvature="0"
         id="path154"
         d="m 474.8,590.7 -24.8,-45.9 -4.7,-8.6 c 0,0 -29.6,-128.3 -71,-225.5 0,0 -58.6,-134.1 -52.3,-180.8 0.9,-4.8 5,-6.7 13.7,-10 8.8,-3.3 106.9,-35.3 110.9,-34.8 4,0.5 11.1,3.8 18,13.9 6.9,10.1 39.4,49 52.4,147.8 13,98.8 27.5,214.1 57.8,293.5 z"
         class="st13" /><linearGradient
         y2="591.70782"
         x2="480.0936"
         y1="119.7077"
         x1="331.0936"
         gradientUnits="userSpaceOnUse"
         id="SVGID_9_"><stop
           id="stop156"
           style="stop-color:#AEAEAE"
           offset="0.5341" /><stop
           id="stop158"
           style="stop-color:#A5A5A5"
           offset="0.595" /><stop
           id="stop160"
           style="stop-color:#8E8E8E"
           offset="0.6924" /><stop
           id="stop162"
           style="stop-color:#686868"
           offset="0.8142" /><stop
           id="stop164"
           style="stop-color:#343434"
           offset="0.9543" /><stop
           id="stop166"
           style="stop-color:#212121"
           offset="1" /></linearGradient><path
         style="fill:url(#SVGID_9_)"
         inkscape:connector-curvature="0"
         id="path169"
         d="m 474.8,590.7 -24.8,-45.9 -4.7,-8.6 c 0,0 -29.6,-128.3 -71,-225.5 0,0 -58.6,-134.1 -52.3,-180.8 0.4,-2.3 1.6,-4 3.7,-5.4 0,0 34.5,12.4 65.5,112.4 31,100 80.5,321 83.6,353.8 z"
         class="st14" /><linearGradient
         y2="420.04791"
         x2="430.7229"
         y1="134.0479"
         x1="330.7229"
         gradientUnits="userSpaceOnUse"
         id="SVGID_10_"><stop
           id="stop171"
           style="stop-color:#343636"
           offset="0.5341" /><stop
           id="stop173"
           style="stop-color:#424343"
           offset="0.658" /><stop
           id="stop175"
           style="stop-color:#4D4D4D"
           offset="0.8144" /><stop
           id="stop177"
           style="stop-color:#505050"
           offset="1" /></linearGradient><path
         style="fill:url(#SVGID_10_)"
         inkscape:connector-curvature="0"
         id="path180"
         d="m 411.2,412.8 c -10.5,-33.5 -23.1,-69.5 -36.9,-102.1 0,0 -53.6,-122.8 -52.7,-174.2 0,0 51.5,20.2 73.8,132.5 0,0 17.4,70.8 17.9,113 0,17.5 -2.1,30.8 -2.1,30.8 z"
         class="st15" /><linearGradient
         y2="232.66341"
         x2="442.43341"
         y1="97.163399"
         x1="398.93341"
         gradientUnits="userSpaceOnUse"
         id="SVGID_11_"><stop
           id="stop182"
           style="stop-color:#6A6A6A"
           offset="0" /><stop
           id="stop184"
           style="stop-color:#8E8E8E"
           offset="0.1257" /><stop
           id="stop186"
           style="stop-color:#DDDDDD"
           offset="0.4224" /><stop
           id="stop188"
           style="stop-color:#FDFDFD"
           offset="0.5586" /><stop
           id="stop190"
           style="stop-color:#FEFEFE"
           offset="1" /></linearGradient><path
         style="fill:url(#SVGID_11_)"
         inkscape:connector-curvature="0"
         id="path193"
         d="M 509.5,204.2 C 494.3,136.4 470.4,107.5 464.6,99 c -6.9,-10.1 -14,-13.4 -18,-13.9 -4,-0.5 -102.1,31.5 -110.9,34.9 -2.6,1 -4.7,1.8 -6.5,2.7 0,0 32.5,9.4 69.3,126.4 z"
         class="st16" /><linearGradient
         y2="549.83893"
         x2="573.40057"
         y1="242.9539"
         x1="409.84439"
         gradientUnits="userSpaceOnUse"
         id="SVGID_12_"><stop
           id="stop195"
           style="stop-color:#949494"
           offset="0" /><stop
           id="stop197"
           style="stop-color:#7C7C7C"
           offset="5.532010e-02" /><stop
           id="stop199"
           style="stop-color:#646464"
           offset="0.1269" /><stop
           id="stop201"
           style="stop-color:#525252"
           offset="0.2027" /><stop
           id="stop203"
           style="stop-color:#484848"
           offset="0.2846" /><stop
           id="stop205"
           style="stop-color:#454545"
           offset="0.3838" /><stop
           id="stop207"
           style="stop-color:#6A6A6A"
           offset="0.5019" /><stop
           id="stop209"
           style="stop-color:#ADADAD"
           offset="0.6903" /><stop
           id="stop211"
           style="stop-color:#A4A4A4"
           offset="0.7655" /><stop
           id="stop213"
           style="stop-color:#8C8C8C"
           offset="0.8873" /><stop
           id="stop215"
           style="stop-color:#707070"
           offset="1" /></linearGradient><path
         style="fill:url(#SVGID_12_)"
         inkscape:connector-curvature="0"
         id="path218"
         d="m 474.8,590.7 99.9,-50.4 C 544.5,460.9 530,345.5 517,246.8 514.9,231.1 512.4,217 509.5,204.2 l -111,44.8 c 0,0 55.7,168.4 76.3,341.7 z"
         class="st17" /><linearGradient
         y2="343.39661"
         x2="313.54449"
         y1="170.39661"
         x1="237.54449"
         gradientUnits="userSpaceOnUse"
         id="SVGID_13_"><stop
           id="stop220"
           style="stop-color:#BC1E1B"
           offset="0" /><stop
           id="stop222"
           style="stop-color:#A61B19"
           offset="0.5531" /><stop
           id="stop224"
           style="stop-color:#991917"
           offset="0.6315" /><stop
           id="stop226"
           style="stop-color:#761311"
           offset="0.871" /><stop
           id="stop228"
           style="stop-color:#69110F"
           offset="1" /></linearGradient><path
         style="fill:url(#SVGID_13_)"
         inkscape:connector-curvature="0"
         id="path231"
         d="m 393.7,301.7 c 0,0 -62.3,38.3 -183,50.3 0,0 -42.4,-63.1 -51.4,-103.8 0,0 73.1,-72.4 165,-107.3 0,0.1 49.7,31.1 69.4,160.8 z"
         class="st18" /></g><g
       transform="matrix(0.14063838,0,0,0.14063838,-7.4762709,-4.8126528)"
       id="g270"><path
         style="fill:#4e4e4e"
         inkscape:connector-curvature="0"
         id="path235"
         d="m 120.2,293.5 c 3.7,16.7 26.5,56.1 30.5,57.8 4,1.7 52,-11.8 52,-11.8 -11.9,-19.1 -33.8,-56.4 -41.9,-85.3 -0.1,0 -43.6,30 -40.6,39.3 z"
         class="st19" /><linearGradient
         y2="347.10989"
         x2="179.89"
         y1="273.2998"
         x1="137.2758"
         gradientUnits="userSpaceOnUse"
         id="SVGID_14_"><stop
           id="stop237"
           style="stop-color:#A3A3A3"
           offset="7.356948e-02" /><stop
           id="stop239"
           style="stop-color:#ACACAC"
           offset="9.450606e-02" /><stop
           id="stop241"
           style="stop-color:#CACACA"
           offset="0.1731" /><stop
           id="stop243"
           style="stop-color:#E1E1E1"
           offset="0.2565" /><stop
           id="stop245"
           style="stop-color:#F1F1F1"
           offset="0.3459" /><stop
           id="stop247"
           style="stop-color:#FBFBFB"
           offset="0.4453" /><stop
           id="stop249"
           style="stop-color:#FEFEFE"
           offset="0.5749" /><stop
           id="stop251"
           style="stop-color:#E3E3E3"
           offset="0.5995" /><stop
           id="stop253"
           style="stop-color:#BBBBBB"
           offset="0.6414" /><stop
           id="stop255"
           style="stop-color:#999999"
           offset="0.6862" /><stop
           id="stop257"
           style="stop-color:#7D7D7D"
           offset="0.7334" /><stop
           id="stop259"
           style="stop-color:#676767"
           offset="0.7842" /><stop
           id="stop261"
           style="stop-color:#585858"
           offset="0.84" /><stop
           id="stop263"
           style="stop-color:#4F4F4F"
           offset="0.9049" /><stop
           id="stop265"
           style="stop-color:#4C4C4C"
           offset="1" /></linearGradient><path
         style="fill:url(#SVGID_14_)"
         inkscape:connector-curvature="0"
         id="path268"
         d="m 124.5,293.5 c 3.5,16.7 24.1,52.2 27.9,53.9 3.1,1.4 31.9,-6 42.4,-8.9 1.6,-0.5 2.2,-2.4 1.2,-3.7 -14.4,-17.7 -29.1,-44.9 -35.2,-71.8 -0.3,-1.5 -2,-2.1 -3.3,-1.3 -8.6,5.6 -35.4,24 -33,31.8 z"
         class="st20" /></g></g></svg>