<?xml version="1.0" encoding="UTF-8" standalone="no"?>
<!-- Created with Inkscape (http://www.inkscape.org/) -->

<svg
   xmlns:osb="http://www.openswatchbook.org/uri/2009/osb"
   xmlns:dc="http://purl.org/dc/elements/1.1/"
   xmlns:cc="http://creativecommons.org/ns#"
   xmlns:rdf="http://www.w3.org/1999/02/22-rdf-syntax-ns#"
   xmlns:svg="http://www.w3.org/2000/svg"
   xmlns="http://www.w3.org/2000/svg"
   xmlns:xlink="http://www.w3.org/1999/xlink"
   xmlns:sodipodi="http://sodipodi.sourceforge.net/DTD/sodipodi-0.dtd"
   xmlns:inkscape="http://www.inkscape.org/namespaces/inkscape"
   width="128"
   height="128"
   viewBox="0 0 33.866666 33.866668"
   version="1.1"
   id="svg880"
   inkscape:version="0.92.3 (2405546, 2018-03-11)"
   sodipodi:docname="utilities-x-terminal.svg">
  <defs
     id="defs874">
    <linearGradient
       inkscape:collect="always"
       id="linearGradient1066">
      <stop
         style="stop-color:#f7f7f7;stop-opacity:1"
         offset="0"
         id="stop1062" />
      <stop
         style="stop-color:#dedede;stop-opacity:1"
         offset="1"
         id="stop1064" />
    </linearGradient>
    <linearGradient
       inkscape:collect="always"
       id="linearGradient1058">
      <stop
         style="stop-color:#ffffff;stop-opacity:1"
         offset="0"
         id="stop1054" />
      <stop
         style="stop-color:#e5e5e5;stop-opacity:1"
         offset="1"
         id="stop1056" />
    </linearGradient>
    <linearGradient
       osb:paint="solid"
       id="linearGradient6987">
      <stop
         id="stop6985"
         offset="0"
         style="stop-color:#77d2fb;stop-opacity:1;" />
    </linearGradient>
    <linearGradient
       inkscape:collect="always"
       xlink:href="#linearGradient1058"
       id="linearGradient1060"
       x1="-177.66243"
       y1="33.480556"
       x2="-123.96178"
       y2="106.82703"
       gradientUnits="userSpaceOnUse"
       gradientTransform="matrix(0.26311022,0,0,0.26311423,54.285221,262.87702)" />
    <linearGradient
       inkscape:collect="always"
       xlink:href="#linearGradient1066"
       id="linearGradient1068"
       x1="-143.14983"
       y1="9.0078115"
       x2="-143.14983"
       y2="22.222097"
       gradientUnits="userSpaceOnUse"
       gradientTransform="matrix(0.26311022,0,0,0.26311423,54.285221,262.87702)" />
  </defs>
  <sodipodi:namedview
     id="base"
     pagecolor="#ffffff"
     bordercolor="#666666"
     borderopacity="1.0"
     inkscape:pageopacity="0.0"
     inkscape:pageshadow="2"
     inkscape:zoom="2.3898"
     inkscape:cx="93.967464"
     inkscape:cy="82.910887"
     inkscape:document-units="mm"
     inkscape:current-layer="g830"
     showgrid="false"
     inkscape:window-width="1600"
     inkscape:window-height="837"
     inkscape:window-x="0"
     inkscape:window-y="30"
     inkscape:window-maximized="1"
     units="px" />
  <metadata
     id="metadata877">
    <rdf:RDF>
      <cc:Work
         rdf:about="">
        <dc:format>image/svg+xml</dc:format>
        <dc:type
           rdf:resource="http://purl.org/dc/dcmitype/StillImage" />
        <dc:title />
      </cc:Work>
    </rdf:RDF>
  </metadata>
  <g
     inkscape:label="Layer 1"
     inkscape:groupmode="layer"
     id="layer1"
     transform="translate(0,-263.13332)">
    <g
       id="g830"
       transform="matrix(0.95238097,0,0,0.95238097,0.80634898,13.336501)">
      <g
         id="g831">
        <path
           id="path1074"
           d="m 2.5239364,265.42029 c -1.1963458,0 -2.15935317,0.96301 -2.15935317,2.15938 v 27.75958 H 33.502083 v -27.75958 c 0,-1.19637 -0.963005,-2.15938 -2.159354,-2.15938 z"
           style="opacity:0.25;fill:#000000;fill-opacity:1;fill-rule:nonzero;stroke:none;stroke-width:0.2;stroke-miterlimit:4;stroke-dasharray:none;stroke-opacity:1"
           inkscape:connector-curvature="0" />
        <path
           inkscape:connector-curvature="0"
           style="opacity:1;fill:url(#linearGradient1060);fill-opacity:1;fill-rule:nonzero;stroke:#666666;stroke-width:0.2;stroke-miterlimit:4;stroke-dasharray:none;stroke-opacity:1"
           d="m 2.523937,264.89406 c -1.1963464,0 -2.15935349,0.96302 -2.15935349,2.15938 v 27.75958 H 33.502083 v -27.75958 c 0,-1.19636 -0.963005,-2.15938 -2.159354,-2.15938 z"
           id="rect1042" />
        <path
           inkscape:connector-curvature="0"
           id="path1014"
           d="m 7.2257369,291.46186 c 0.013534,-0.0322 1.6564269,-2.21825 3.6508491,-4.85792 1.994422,-2.63969 3.6648,-4.87151 3.71195,-4.95961 0.07794,-0.14563 -0.255302,-0.62858 -3.67035,-5.31911 -2.0658432,-2.8374 -3.7340452,-5.18437 -3.707118,-5.21547 0.026929,-0.0311 1.0266261,-0.0477 2.2215549,-0.0369 l 2.1725961,0.0196 3.049016,4.21118 c 1.676959,2.31616 3.040456,4.23757 3.029994,4.2698 -0.01046,0.0322 -2.043319,2.73349 -4.517462,6.00279 l -4.4984419,5.94417 H 7.9347174 c -0.4034839,0 -0.7225257,-0.0264 -0.7089805,-0.0586 z m 14.4438711,-0.47713 c -1.807967,-2.45409 -5.664547,-7.82141 -5.664547,-7.88354 0,-0.0755 8.75373,-11.70172 8.983503,-11.9315 0.08585,-0.0859 0.276883,-0.11421 0.769482,-0.11421 0.360403,0 0.67187,0.0269 0.692151,0.0597 0.02028,0.0328 -1.64318,2.27976 -3.696577,4.99322 -2.373442,3.13637 -3.721706,4.97836 -3.701205,5.05655 0.01773,0.0677 1.589292,2.26738 3.492345,4.8883 1.903053,2.6209 3.573706,4.9232 3.71256,5.11622 l 0.252463,0.35093 H 24.287002 22.06422 Z"
           style="opacity:1;fill:#303030;fill-opacity:1;stroke-width:1" />
        <path
           inkscape:connector-curvature="0"
           style="opacity:1;fill:url(#linearGradient1068);fill-opacity:1;fill-rule:nonzero;stroke:#666666;stroke-width:0.2;stroke-miterlimit:4;stroke-dasharray:none;stroke-opacity:1"
           d="m 2.523937,264.89406 c -1.1963464,0 -2.15935349,0.96302 -2.15935349,2.15938 v 1.17785 H 33.502083 v -1.17785 c 0,-1.19636 -0.963005,-2.15938 -2.159354,-2.15938 z"
           id="path1049" />
      </g>
    </g>
  </g>
</svg>
