<?xml version="1.0" encoding="UTF-8" standalone="no"?>
<svg
   xmlns:dc="http://purl.org/dc/elements/1.1/"
   xmlns:cc="http://creativecommons.org/ns#"
   xmlns:rdf="http://www.w3.org/1999/02/22-rdf-syntax-ns#"
   xmlns:svg="http://www.w3.org/2000/svg"
   xmlns="http://www.w3.org/2000/svg"
   xmlns:xlink="http://www.w3.org/1999/xlink"
   xmlns:sodipodi="http://sodipodi.sourceforge.net/DTD/sodipodi-0.dtd"
   xmlns:inkscape="http://www.inkscape.org/namespaces/inkscape"
   viewBox="0 0 128 128"
   version="1.1"
   id="svg657"
   sodipodi:docname="firefox-developer-icon-old.svg"
   width="128"
   height="128"
   inkscape:version="0.92.3 (2405546, 2018-03-11)">
  <metadata
     id="metadata661">
    <rdf:RDF>
      <cc:Work
         rdf:about="">
        <dc:format>image/svg+xml</dc:format>
        <dc:type
           rdf:resource="http://purl.org/dc/dcmitype/StillImage" />
        <dc:title>firefox-logo-developer-edition</dc:title>
      </cc:Work>
    </rdf:RDF>
  </metadata>
  <sodipodi:namedview
     pagecolor="#ffffff"
     bordercolor="#666666"
     borderopacity="1"
     objecttolerance="10"
     gridtolerance="10"
     guidetolerance="10"
     inkscape:pageopacity="0"
     inkscape:pageshadow="2"
     inkscape:window-width="1529"
     inkscape:window-height="837"
     id="namedview659"
     showgrid="false"
     inkscape:zoom="1.3537536"
     inkscape:cx="96.830768"
     inkscape:cy="102.19369"
     inkscape:window-x="71"
     inkscape:window-y="27"
     inkscape:window-maximized="1"
     inkscape:current-layer="svg657" />
  <defs
     id="defs203">
    <linearGradient
       inkscape:collect="always"
       id="linearGradient2655">
      <stop
         style="stop-color:#d5f6ff;stop-opacity:1"
         offset="0"
         id="stop2651" />
      <stop
         style="stop-color:#d7eef4;stop-opacity:1"
         offset="1"
         id="stop2653" />
    </linearGradient>
    <linearGradient
       id="linear-gradient"
       x1="-14371.64"
       y1="9293.5303"
       x2="-14108.4"
       y2="9293.5303"
       gradientTransform="matrix(0.07823791,0.00308834,0.00514723,-0.11529797,1170.7068,1164.1481)"
       gradientUnits="userSpaceOnUse">
      <stop
         offset="0"
         stop-color="#0083ff"
         id="stop2" />
      <stop
         offset="0.18"
         stop-color="#0096f6"
         id="stop4" />
      <stop
         offset="0.51"
         stop-color="#00b3e6"
         id="stop6" />
      <stop
         offset="0.79"
         stop-color="#00c6dd"
         id="stop8" />
      <stop
         offset="1"
         stop-color="#00ccda"
         id="stop10" />
    </linearGradient>
    <linearGradient
       id="linear-gradient-2"
       x1="-541.29999"
       y1="256.54001"
       x2="-732.72998"
       y2="882.77002"
       gradientTransform="matrix(0.10294462,0,0,-0.10294462,126.82567,114.03271)"
       gradientUnits="userSpaceOnUse">
      <stop
         offset="0"
         stop-color="#000f40"
         stop-opacity="0.6"
         id="stop13" />
      <stop
         offset="0.61"
         stop-color="#000f40"
         stop-opacity="0.18"
         id="stop15" />
      <stop
         offset="1"
         stop-color="#000f40"
         stop-opacity="0"
         id="stop17" />
    </linearGradient>
    <linearGradient
       id="linear-gradient-3"
       x1="540.64001"
       y1="256.54001"
       x2="349.20001"
       y2="882.77002"
       gradientTransform="matrix(0.10294462,0,0,-0.10294462,15.445768,114.03271)"
       gradientUnits="userSpaceOnUse">
      <stop
         offset="0"
         stop-color="#000f43"
         stop-opacity="0.4"
         id="stop20" />
      <stop
         offset="0.48"
         stop-color="#001962"
         stop-opacity="0.17"
         id="stop22" />
      <stop
         offset="1"
         stop-color="#002079"
         stop-opacity="0"
         id="stop24" />
    </linearGradient>
    <linearGradient
       id="linear-gradient-4"
       x1="-8570.46"
       y1="7439.0801"
       x2="-8685.71"
       y2="7447.98"
       gradientTransform="matrix(0.12559244,0.01235335,0.01235335,-0.12559244,1093.4582,1134.6267)"
       gradientUnits="userSpaceOnUse">
      <stop
         offset="0"
         stop-color="#002275"
         id="stop27" />
      <stop
         offset="1"
         stop-color="#005fe7"
         id="stop29" />
    </linearGradient>
    <linearGradient
       id="linear-gradient-5"
       x1="-8653.3203"
       y1="7586.8599"
       x2="-8545.3701"
       y2="7698.98"
       gradientTransform="matrix(0.12559244,0.01235335,0.01235335,-0.12559244,1093.5089,1134.6267)"
       gradientUnits="userSpaceOnUse">
      <stop
         offset="0.05"
         stop-color="#005fe7"
         id="stop32" />
      <stop
         offset="0.19"
         stop-color="#005ce1"
         id="stop34" />
      <stop
         offset="0.38"
         stop-color="#0052cf"
         id="stop36" />
      <stop
         offset="0.6"
         stop-color="#0043b2"
         id="stop38" />
      <stop
         offset="0.84"
         stop-color="#002d8a"
         id="stop40" />
      <stop
         offset="0.95"
         stop-color="#002275"
         id="stop42" />
    </linearGradient>
    <linearGradient
       id="linear-gradient-6"
       x1="-8856.7803"
       y1="7335.52"
       x2="-8625.9004"
       y2="7334.98"
       gradientTransform="matrix(0.12559244,0.01235335,0.01235335,-0.12559244,1093.4277,1134.6267)"
       gradientUnits="userSpaceOnUse">
      <stop
         offset="0"
         stop-color="#002079"
         id="stop45" />
      <stop
         offset="0.99"
         stop-color="#000f40"
         id="stop47" />
    </linearGradient>
    <radialGradient
       id="radial-gradient"
       cx="584.09998"
       cy="600.57001"
       fx="717.51404"
       fy="478.32767"
       r="751.57001"
       gradientTransform="matrix(0.10294462,0,0,-0.10294462,14.820843,114.03271)"
       gradientUnits="userSpaceOnUse">
      <stop
         offset="0.16"
         stop-color="#58c1ff"
         id="stop50" />
      <stop
         offset="0.24"
         stop-color="#4cb8ff"
         id="stop52" />
      <stop
         offset="0.39"
         stop-color="#2ea0ff"
         id="stop54" />
      <stop
         offset="0.54"
         stop-color="#0a84ff"
         id="stop56" />
      <stop
         offset="0.76"
         stop-color="#0060df"
         id="stop58" />
      <stop
         offset="0.8"
         stop-color="#0067de"
         id="stop60" />
      <stop
         offset="0.85"
         stop-color="#007bdd"
         id="stop62" />
      <stop
         offset="0.91"
         stop-color="#009cda"
         id="stop64" />
      <stop
         offset="0.98"
         stop-color="#00c8d7"
         id="stop66" />
    </radialGradient>
    <linearGradient
       id="linear-gradient-7"
       x1="-7658.5801"
       y1="9078.0898"
       x2="-7729.6099"
       y2="8279.7002"
       gradientTransform="matrix(0.12662188,0,0,-0.12559244,1065.0526,1150.0952)"
       gradientUnits="userSpaceOnUse">
      <stop
         offset="0"
         stop-color="#00feff"
         id="stop69" />
      <stop
         offset="0.3"
         stop-color="#04c9ff"
         id="stop71" />
      <stop
         offset="0.61"
         stop-color="#0897ff"
         id="stop73" />
      <stop
         offset="0.77"
         stop-color="#0a84ff"
         id="stop75" />
      <stop
         offset="0.79"
         stop-color="#0a84ff"
         stop-opacity="0.93"
         id="stop77" />
      <stop
         offset="0.84"
         stop-color="#0a84ff"
         stop-opacity="0.76"
         id="stop79" />
      <stop
         offset="0.9"
         stop-color="#0a84ff"
         stop-opacity="0.49"
         id="stop81" />
      <stop
         offset="0.98"
         stop-color="#0a84ff"
         stop-opacity="0.11"
         id="stop83" />
      <stop
         offset="1"
         stop-color="#0a84ff"
         stop-opacity="0"
         id="stop85" />
    </linearGradient>
    <linearGradient
       id="linear-gradient-8"
       x1="-9129.9902"
       y1="7770.7402"
       x2="-8993.5195"
       y2="7770.7402"
       gradientTransform="matrix(0.12559244,0.01235335,0.01235335,-0.12559244,1095.1415,1134.6267)"
       gradientUnits="userSpaceOnUse">
      <stop
         offset="0"
         stop-color="#003eaa"
         id="stop88" />
      <stop
         offset="0.3"
         stop-color="#0054c5"
         stop-opacity="0.68"
         id="stop90" />
      <stop
         offset="0.78"
         stop-color="#0076ef"
         stop-opacity="0.19"
         id="stop92" />
      <stop
         offset="1"
         stop-color="#0083ff"
         stop-opacity="0"
         id="stop94" />
    </linearGradient>
    <linearGradient
       id="linear-gradient-9"
       x1="553.41998"
       y1="650.09003"
       x2="358.39999"
       y2="653.09003"
       gradientTransform="matrix(0.10294462,0,0,-0.10294462,14.820843,114.03271)"
       gradientUnits="userSpaceOnUse">
      <stop
         offset="0"
         stop-color="#00feff"
         stop-opacity="0.25"
         id="stop97" />
      <stop
         offset="0.54"
         stop-color="#2ddfff"
         stop-opacity="0.12"
         id="stop99" />
      <stop
         offset="1"
         stop-color="#58c1ff"
         stop-opacity="0"
         id="stop101" />
    </linearGradient>
    <linearGradient
       id="linear-gradient-10"
       x1="208.63"
       y1="2142.48"
       x2="90.809998"
       y2="2394.3201"
       gradientTransform="matrix(0.10191517,0.01029446,0.01029446,-0.10191517,-11.491807,261.29293)"
       gradientUnits="userSpaceOnUse">
      <stop
         offset="0.19"
         stop-color="#002275"
         stop-opacity="0.7"
         id="stop104" />
      <stop
         offset="0.63"
         stop-color="#009dc2"
         stop-opacity="0.36"
         id="stop106" />
      <stop
         offset="0.94"
         stop-color="#00feff"
         stop-opacity="0.1"
         id="stop108" />
    </linearGradient>
    <linearGradient
       id="linear-gradient-11"
       x1="-43.75"
       y1="388.32001"
       x2="50.360001"
       y2="281.42999"
       gradientTransform="matrix(0.10191517,0.01029446,0.01029446,-0.10191517,38.458008,100.65608)"
       gradientUnits="userSpaceOnUse">
      <stop
         offset="0"
         stop-color="#002275"
         stop-opacity="0.8"
         id="stop111" />
      <stop
         offset="0.07"
         stop-color="#002479"
         stop-opacity="0.74"
         id="stop113" />
      <stop
         offset="0.95"
         stop-color="#003eaa"
         stop-opacity="0"
         id="stop115" />
    </linearGradient>
    <linearGradient
       id="linear-gradient-12"
       x1="136.86"
       y1="206.19"
       x2="136.89999"
       y2="259.62"
       gradientTransform="matrix(0.10191517,0.01029446,0.01029446,-0.10191517,39.395401,100.65608)"
       gradientUnits="userSpaceOnUse">
      <stop
         offset="0"
         stop-color="#002275"
         stop-opacity="0.6"
         id="stop118" />
      <stop
         offset="0.24"
         stop-color="#002275"
         stop-opacity="0.34"
         id="stop120" />
      <stop
         offset="0.49"
         stop-color="#002275"
         stop-opacity="0.15"
         id="stop122" />
      <stop
         offset="0.72"
         stop-color="#002275"
         stop-opacity="0.04"
         id="stop124" />
      <stop
         offset="0.93"
         stop-color="#002275"
         stop-opacity="0"
         id="stop126" />
    </linearGradient>
    <linearGradient
       id="linear-gradient-13"
       x1="569.33002"
       y1="1064.11"
       x2="877.67999"
       y2="374.60001"
       gradientTransform="matrix(0.10294462,0,0,-0.10294462,14.820843,114.03271)"
       gradientUnits="userSpaceOnUse">
      <stop
         offset="0"
         stop-color="#00feff"
         id="stop129" />
      <stop
         offset="0.28"
         stop-color="#03dfff"
         id="stop131" />
      <stop
         offset="0.9"
         stop-color="#0992ff"
         id="stop133" />
      <stop
         offset="1"
         stop-color="#0a84ff"
         id="stop135" />
    </linearGradient>
    <linearGradient
       id="linear-gradient-14"
       x1="680.88"
       y1="556.53998"
       x2="536.09998"
       y2="167.78999"
       gradientTransform="matrix(0.10294462,0,0,-0.10294462,14.820843,114.03271)"
       gradientUnits="userSpaceOnUse">
      <stop
         offset="0"
         stop-color="#0060df"
         id="stop138" />
      <stop
         offset="0.09"
         stop-color="#0067e5"
         stop-opacity="0.81"
         id="stop140" />
      <stop
         offset="0.21"
         stop-color="#006eec"
         stop-opacity="0.59"
         id="stop142" />
      <stop
         offset="0.33"
         stop-color="#0075f2"
         stop-opacity="0.41"
         id="stop144" />
      <stop
         offset="0.46"
         stop-color="#007af7"
         stop-opacity="0.26"
         id="stop146" />
      <stop
         offset="0.58"
         stop-color="#007efa"
         stop-opacity="0.15"
         id="stop148" />
      <stop
         offset="0.71"
         stop-color="#0081fd"
         stop-opacity="0.06"
         id="stop150" />
      <stop
         offset="0.85"
         stop-color="#0082fe"
         stop-opacity="0.02"
         id="stop152" />
      <stop
         offset="1"
         stop-color="#0083ff"
         stop-opacity="0"
         id="stop154" />
    </linearGradient>
    <linearGradient
       id="linear-gradient-15"
       x1="640"
       y1="1020.28"
       x2="747.98999"
       y2="109.82"
       gradientTransform="matrix(0.10294462,0,0,-0.10294462,14.820843,114.03271)"
       gradientUnits="userSpaceOnUse">
      <stop
         offset="0"
         stop-color="#75feff"
         id="stop157" />
      <stop
         offset="0.28"
         stop-color="#5adfff"
         id="stop159" />
      <stop
         offset="0.9"
         stop-color="#1692ff"
         id="stop161" />
      <stop
         offset="1"
         stop-color="#0a84ff"
         id="stop163" />
    </linearGradient>
    <linearGradient
       id="linear-gradient-16"
       x1="735.59003"
       y1="578.40997"
       x2="653.09998"
       y2="230.42999"
       gradientTransform="matrix(1,0,0,-1,0,986.01)"
       gradientUnits="userSpaceOnUse">
      <stop
         offset="0"
         stop-color="#9ee7ff"
         id="stop166" />
      <stop
         offset="0.14"
         stop-color="#8cdbff"
         stop-opacity="0.88"
         id="stop168" />
      <stop
         offset="0.46"
         stop-color="#5ebdff"
         stop-opacity="0.57"
         id="stop170" />
      <stop
         offset="0.92"
         stop-color="#168cff"
         stop-opacity="0.08"
         id="stop172" />
      <stop
         offset="1"
         stop-color="#0a84ff"
         stop-opacity="0"
         id="stop174" />
    </linearGradient>
    <linearGradient
       id="linear-gradient-17"
       x1="649"
       y1="1002.59"
       x2="724.57001"
       y2="429.48001"
       gradientTransform="matrix(0.10294462,0,0,-0.10294462,14.820843,114.03271)"
       gradientUnits="userSpaceOnUse">
      <stop
         offset="0"
         stop-color="#00feff"
         id="stop177" />
      <stop
         offset="0.14"
         stop-color="#0bf7ff"
         stop-opacity="0.88"
         id="stop179" />
      <stop
         offset="0.46"
         stop-color="#26e4ff"
         stop-opacity="0.57"
         id="stop181" />
      <stop
         offset="0.92"
         stop-color="#51c6ff"
         stop-opacity="0.08"
         id="stop183" />
      <stop
         offset="1"
         stop-color="#58c1ff"
         stop-opacity="0"
         id="stop185" />
    </linearGradient>
    <linearGradient
       id="linear-gradient-18"
       x1="662.79999"
       y1="968.07001"
       x2="1060.9399"
       y2="345.60001"
       gradientTransform="matrix(1,0,0,-1,0,986.01)"
       gradientUnits="userSpaceOnUse">
      <stop
         offset="0"
         stop-color="#00feff"
         id="stop188" />
      <stop
         offset="0.14"
         stop-color="#01efff"
         stop-opacity="0.88"
         id="stop190" />
      <stop
         offset="0.46"
         stop-color="#04caff"
         stop-opacity="0.57"
         id="stop192" />
      <stop
         offset="0.92"
         stop-color="#098eff"
         stop-opacity="0.08"
         id="stop194" />
      <stop
         offset="1"
         stop-color="#0a84ff"
         stop-opacity="0"
         id="stop196" />
    </linearGradient>
    <linearGradient
       id="linear-gradient-19"
       x1="754.44"
       y1="521.58002"
       x2="313.85999"
       y2="178"
       xlink:href="#linear-gradient-16"
       gradientTransform="matrix(0.10294462,0,0,0.10294462,14.820843,12.528281)" />
    <linearGradient
       id="linear-gradient-20"
       x1="358.66"
       y1="754.08002"
       x2="43.380001"
       y2="513.58002"
       xlink:href="#linear-gradient-18"
       gradientTransform="matrix(0.10294462,0,0,0.10294462,14.606584,12.528281)" />
    <linearGradient
       id="linear-gradient-21"
       x1="145.64999"
       y1="859.21002"
       x2="130.45"
       y2="726.90997"
       xlink:href="#linear-gradient-18"
       gradientTransform="matrix(0.10294462,0,0,0.10294462,14.820843,12.528281)" />
    <linearGradient
       id="linear-gradient-22"
       x1="292.53"
       y1="562.84003"
       x2="195.52"
       y2="368.82001"
       xlink:href="#linear-gradient-18"
       gradientTransform="matrix(0.10294462,0,0,0.10294462,14.820843,12.528281)" />
    <linearGradient
       inkscape:collect="always"
       xlink:href="#linear-gradient-16"
       id="linearGradient1468"
       gradientUnits="userSpaceOnUse"
       gradientTransform="matrix(0.10294462,0,0,-0.10294462,14.820843,114.03271)"
       x1="735.59003"
       y1="578.40997"
       x2="653.09998"
       y2="230.42999" />
    <linearGradient
       inkscape:collect="always"
       xlink:href="#linear-gradient-18"
       id="linearGradient1470"
       gradientUnits="userSpaceOnUse"
       gradientTransform="matrix(0.10294462,0,0,-0.10294462,14.717054,114.03271)"
       x1="662.79999"
       y1="968.07001"
       x2="1060.9399"
       y2="345.60001" />
    <radialGradient
       inkscape:collect="always"
       xlink:href="#linearGradient2655"
       id="radialGradient2657"
       cx="59.810688"
       cy="15.185588"
       fx="59.810688"
       fy="15.185588"
       r="59.191742"
       gradientUnits="userSpaceOnUse"
       gradientTransform="matrix(2.7118458e-8,1.773755,-0.95585109,1.4613748e-8,77.992822,-100.35411)" />
  </defs>
  <title
     id="title205">firefox-logo-developer-edition</title>
  <circle
     style="opacity:0.25;fill:#000000;fill-rule:evenodd;stroke:none;stroke-width:0.75332719;stroke-miterlimit:4;stroke-dasharray:none;stroke-opacity:1"
     id="circle3200"
     cx="63.999996"
     cy="65.184921"
     r="58.815079" />
  <circle
     r="58.815079"
     cy="63.191742"
     cx="63.999996"
     id="circle2150"
     style="fill:url(#radialGradient2657);fill-rule:evenodd;stroke:#192968;stroke-width:0.75332719;stroke-miterlimit:4;stroke-dasharray:none;stroke-opacity:1;fill-opacity:1" />
  <path
     d="m 94.117025,21.980656 c -2.465524,2.870096 -3.613357,9.330901 -1.113861,15.880237 2.499495,6.549337 6.331094,5.126642 8.719406,11.80466 3.15217,8.812059 1.68521,20.649661 1.68521,20.649661 0,0 3.79042,10.973897 6.43095,-0.683552 C 115.68495,47.735341 94.117025,27.372895 94.117025,21.980656 Z"
     style="fill:url(#linear-gradient);stroke-width:0.10294462"
     id="path595"
     inkscape:connector-curvature="0" />
  <path
     d="m 98.899883,95.284432 a 25.277022,25.277022 0 0 1 -3.100692,1.871533 72.316537,72.316537 0 0 0 3.942779,-6.485511 c 0.97386,-1.07783 1.86844,-2.125807 2.58906,-3.258197 0.35413,-0.556931 0.75252,-1.243571 1.17562,-2.040363 2.56538,-4.622213 5.3943,-12.102169 5.4746,-19.785956 v -0.585755 a 26.515446,26.515446 0 0 0 -0.5837,-5.735044 c 0.0206,0.14721 0.0391,0.294421 0.0577,0.441632 -0.0226,-0.113239 -0.0422,-0.227508 -0.0659,-0.340747 0.0381,0.20589 0.0679,0.411779 0.10294,0.617668 0.52399,4.449267 0.15133,8.788382 -1.71711,11.987901 -0.0299,0.04632 -0.0597,0.09059 -0.0896,0.135887 0.96871,-4.862074 1.29299,-10.231666 0.21516,-15.606404 0,0 -0.43134,-2.612735 -3.64218,-10.545647 -1.85403,-4.565594 -5.129732,-8.308661 -8.030712,-11.036693 -2.541702,-3.144958 -4.849721,-5.250176 -6.122116,-6.594632 -2.65803,-2.799065 -3.771891,-4.897076 -4.229995,-6.266239 -0.396336,-0.198683 -5.470477,-5.127672 -5.87299,-5.315031 -2.214339,3.433203 -9.178542,14.172386 -5.867843,24.207427 1.500932,4.547064 5.298559,9.265016 9.272221,11.914811 0.173977,0.199712 2.367727,2.573615 3.406438,7.943206 1.075771,5.543568 0.514723,9.868272 -1.702704,16.26525 -2.60244,5.611512 -9.266045,11.158168 -15.514784,11.725393 -13.348829,1.212687 -18.236639,-6.702725 -18.236639,-6.702725 4.770454,1.906535 10.044306,1.508139 13.251031,-0.469427 3.232461,-2.000214 5.18738,-3.482616 6.774786,-2.897891 1.564758,0.581637 2.810388,-1.107684 1.692409,-2.858772 A 8.0832116,8.0832116 0 0 0 63.903859,72.31131 c -3.235549,0.526047 -6.200354,3.088339 -10.439613,0.606344 a 8.4548416,8.4548416 0 0 1 -0.795762,-0.5209 c -0.27898,-0.184271 0.909001,0.28001 0.63105,0.07103 -0.823557,-0.447809 -2.28537,-1.424753 -2.664207,-1.772706 -0.0628,-0.05765 0.640316,0.224419 0.57752,0.16677 -3.964398,-3.264374 -3.469234,-5.469448 -3.344671,-6.853023 0.102945,-1.106655 0.823557,-2.524202 2.033156,-3.099663 0.585755,0.320158 0.951209,0.564137 0.951209,0.564137 0,0 -0.250156,-0.514723 -0.385013,-0.78032 0.04735,-0.02059 0.09265,-0.01544 0.140004,-0.035 0.479722,0.231626 1.54417,0.833852 2.1011,1.201364 0.727819,0.514723 0.960473,0.971797 0.960473,0.971797 0,0 0.191477,-0.102944 0.04941,-0.552812 -0.05147,-0.183242 -0.272803,-0.766938 -0.993416,-1.355781 h 0.0453 a 8.4013104,8.4013104 0 0 1 1.221952,0.848264 c 0.20589,-0.739143 0.569284,-1.511227 0.488987,-2.891715 -0.04941,-0.970767 -0.02676,-1.221952 -0.197653,-1.596671 -0.153388,-0.322216 0.08544,-0.447809 0.35207,-0.113239 a 3.3611418,3.3611418 0 0 0 -0.227507,-0.76179 v -0.02471 c 0.332511,-1.157097 7.02597,-4.165139 7.514957,-4.51721 a 6.9178785,6.9178785 0 0 0 1.969331,-2.141248 c 0.372659,-0.592961 0.652668,-1.425783 0.720612,-2.687884 0.03706,-0.91003 -0.387072,-1.516374 -7.155681,-2.225662 C 55.604464,44.62847 54.520457,43.287101 53.90279,42.049707 53.79058,41.78308 53.675282,41.54116 53.559984,41.30027 a 5.8997562,5.8997562 0 0 1 -0.263538,-0.86782 c 1.106655,-3.177901 2.965834,-5.867843 5.700043,-7.895852 0.14927,-0.135887 -0.595019,0.035 -0.446779,-0.102945 0.173976,-0.158535 1.308426,-0.617668 1.522551,-0.720612 0.261479,-0.123534 -1.120038,-0.710318 -2.339931,-0.567225 -1.242542,0.140004 -1.50608,0.288245 -2.169044,0.569283 0.274863,-0.273832 1.149892,-0.633109 0.945032,-0.63105 -1.33828,0.205889 -3.003924,0.98415 -4.426619,1.865356 a 1.0973896,1.0973896 0 0 1 0.08544,-0.447809 c -0.662963,0.281039 -2.291547,1.419607 -2.766122,2.382139 a 4.5491228,4.5491228 0 0 0 0.02779,-0.555901 8.7060265,8.7060265 0 0 0 -1.357839,1.422695 l -0.02471,0.02265 c -3.846011,-1.544169 -7.2298,-1.647114 -10.09372,-0.955326 -0.626933,-0.628991 -0.932678,-0.168829 -2.358461,-3.301434 -0.09677,-0.188388 0.07412,0.18633 0,0 -0.234714,-0.607373 0.143093,0.810174 0,0 -2.396551,1.891093 -5.550774,4.0344 -7.065089,5.547686 -0.01853,0.06074 1.766529,-0.504429 0,0 -0.617668,0.177065 -0.57649,0.543547 -0.67017,3.860423 -0.02265,0.251185 0,0.533253 -0.02265,0.759731 -1.209599,1.54417 -2.033156,2.84539 -2.345078,3.521736 -1.563729,2.69509 -3.287022,6.897289 -4.956783,13.542365 a 34.404092,34.404092 0 0 1 2.652882,-5.184291 c -1.388723,3.527912 -2.73112,9.067362 -2.999806,17.60353 a 49.627542,49.627542 0 0 1 1.289896,-5.215175 48.692805,48.692805 0 0 0 3.576296,20.695987 c 0.960474,2.349196 2.548909,5.915197 5.250176,9.820916 8.496019,8.939713 20.480832,14.504893 33.750394,14.504893 13.857375,-0.003 26.298232,-6.06447 34.845724,-15.689785 z"
     style="fill:url(#linear-gradient-2);stroke-width:0.10294462"
     id="path597"
     inkscape:connector-curvature="0" />
  <path
     d="m 98.899883,95.284432 a 25.277022,25.277022 0 0 1 -3.100692,1.871533 72.316537,72.316537 0 0 0 3.942779,-6.485511 c 0.97386,-1.07783 1.86844,-2.125807 2.58906,-3.258197 0.35413,-0.556931 0.75252,-1.243571 1.17562,-2.040363 2.56538,-4.622213 5.3943,-12.102169 5.4746,-19.785956 v -0.585755 a 26.515446,26.515446 0 0 0 -0.5837,-5.735044 c 0.0206,0.14721 0.0391,0.294421 0.0577,0.441632 -0.0226,-0.113239 -0.0422,-0.227508 -0.0659,-0.340747 0.0381,0.20589 0.0679,0.411779 0.10294,0.617668 0.52399,4.449267 0.15133,8.788382 -1.71711,11.987901 -0.0299,0.04632 -0.0597,0.09059 -0.0896,0.135887 0.96871,-4.862074 1.29299,-10.231666 0.21516,-15.606404 0,0 -0.43134,-2.612735 -3.64218,-10.545647 -1.85403,-4.565594 -5.129732,-8.308661 -8.030712,-11.036693 -2.541702,-3.144958 -4.849721,-5.250176 -6.122116,-6.594632 -2.65803,-2.799065 -3.771891,-4.897076 -4.229995,-6.266239 -0.396336,-0.198683 -5.470477,-5.127672 -5.87299,-5.315031 -2.214339,3.433203 -9.178542,14.172386 -5.867843,24.207427 1.500932,4.547064 5.298559,9.265016 9.272221,11.914811 0.173977,0.199712 2.367727,2.573615 3.406438,7.943206 1.075771,5.543568 0.514723,9.868272 -1.702704,16.26525 -2.60244,5.611512 -9.266045,11.158168 -15.514784,11.725393 -13.348829,1.212687 -18.236639,-6.702725 -18.236639,-6.702725 4.770454,1.906535 10.044306,1.508139 13.251031,-0.469427 3.232461,-2.000214 5.18738,-3.482616 6.774786,-2.897891 1.564758,0.581637 2.810388,-1.107684 1.692409,-2.858772 A 8.0832116,8.0832116 0 0 0 63.903859,72.31131 c -3.235549,0.526047 -6.200354,3.088339 -10.439613,0.606344 a 8.4548416,8.4548416 0 0 1 -0.795762,-0.5209 c -0.27898,-0.184271 0.909001,0.28001 0.63105,0.07103 -0.823557,-0.447809 -2.28537,-1.424753 -2.664207,-1.772706 -0.0628,-0.05765 0.640316,0.224419 0.57752,0.16677 -3.964398,-3.264374 -3.469234,-5.469448 -3.344671,-6.853023 0.102945,-1.106655 0.823557,-2.524202 2.033156,-3.099663 0.585755,0.320158 0.951209,0.564137 0.951209,0.564137 0,0 -0.250156,-0.514723 -0.385013,-0.78032 0.04735,-0.02059 0.09265,-0.01544 0.140004,-0.035 0.479722,0.231626 1.54417,0.833852 2.1011,1.201364 0.727819,0.514723 0.960473,0.971797 0.960473,0.971797 0,0 0.191477,-0.102944 0.04941,-0.552812 -0.05147,-0.183242 -0.272803,-0.766938 -0.993416,-1.355781 h 0.0453 a 8.4013104,8.4013104 0 0 1 1.221952,0.848264 c 0.20589,-0.739143 0.569284,-1.511227 0.488987,-2.891715 -0.04941,-0.970767 -0.02676,-1.221952 -0.197653,-1.596671 -0.153388,-0.322216 0.08544,-0.447809 0.35207,-0.113239 a 3.3611418,3.3611418 0 0 0 -0.227507,-0.76179 v -0.02471 c 0.332511,-1.157097 7.02597,-4.165139 7.514957,-4.51721 a 6.9178785,6.9178785 0 0 0 1.969331,-2.141248 c 0.372659,-0.592961 0.652668,-1.425783 0.720612,-2.687884 0.03706,-0.91003 -0.387072,-1.516374 -7.155681,-2.225662 C 55.604464,44.62847 54.520457,43.287101 53.90279,42.049707 53.79058,41.78308 53.675282,41.54116 53.559984,41.30027 a 5.8997562,5.8997562 0 0 1 -0.263538,-0.86782 c 1.106655,-3.177901 2.965834,-5.867843 5.700043,-7.895852 0.14927,-0.135887 -0.595019,0.035 -0.446779,-0.102945 0.173976,-0.158535 1.308426,-0.617668 1.522551,-0.720612 0.261479,-0.123534 -1.120038,-0.710318 -2.339931,-0.567225 -1.242542,0.140004 -1.50608,0.288245 -2.169044,0.569283 0.274863,-0.273832 1.149892,-0.633109 0.945032,-0.63105 -1.33828,0.205889 -3.003924,0.98415 -4.426619,1.865356 a 1.0973896,1.0973896 0 0 1 0.08544,-0.447809 c -0.662963,0.281039 -2.291547,1.419607 -2.766122,2.382139 a 4.5491228,4.5491228 0 0 0 0.02779,-0.555901 8.7060265,8.7060265 0 0 0 -1.357839,1.422695 l -0.02471,0.02265 c -3.846011,-1.544169 -7.2298,-1.647114 -10.09372,-0.955326 -0.626933,-0.628991 -0.932678,-0.168829 -2.358461,-3.301434 -0.09677,-0.188388 0.07412,0.18633 0,0 -0.234714,-0.607373 0.143093,0.810174 0,0 -2.396551,1.891093 -5.550774,4.0344 -7.065089,5.547686 -0.01853,0.06074 1.766529,-0.504429 0,0 -0.617668,0.177065 -0.57649,0.543547 -0.67017,3.860423 -0.02265,0.251185 0,0.533253 -0.02265,0.759731 -1.209599,1.54417 -2.033156,2.84539 -2.345078,3.521736 -1.563729,2.69509 -3.287022,6.897289 -4.956783,13.542365 a 34.404092,34.404092 0 0 1 2.652882,-5.184291 c -1.388723,3.527912 -2.73112,9.067362 -2.999806,17.60353 a 49.627542,49.627542 0 0 1 1.289896,-5.215175 48.692805,48.692805 0 0 0 3.576296,20.695987 c 0.960474,2.349196 2.548909,5.915197 5.250176,9.820916 8.496019,8.939713 20.480832,14.504893 33.750394,14.504893 13.857375,-0.003 26.298232,-6.06447 34.845724,-15.689785 z"
     style="fill:url(#linear-gradient-3);stroke-width:0.10294462"
     id="path599"
     inkscape:connector-curvature="0" />
  <path
     d="M 88.005233,101.78127 C 104.77491,99.839731 112.19722,82.561506 102.66249,82.221789 94.05323,81.943838 80.068203,102.69439 88.005233,101.78127 Z"
     style="fill:url(#linear-gradient-4);stroke-width:0.10294462"
     id="path601"
     inkscape:connector-curvature="0" />
  <path
     d="m 103.92076,78.68873 c 11.53494,-6.713019 8.52278,-21.214828 8.52278,-21.214828 0,0 -4.45235,5.171938 -7.47583,13.415743 -2.98334,8.163508 -7.982329,11.854073 -1.04695,7.799085 z"
     style="fill:url(#linear-gradient-5);stroke-width:0.10294462"
     id="path603"
     inkscape:connector-curvature="0" />
  <path
     d="m 67.217945,110.35861 c 16.083038,5.13179 29.908501,-7.5376 21.385716,-11.768627 -7.742465,-3.816157 -29.019059,9.342227 -21.385716,11.768627 z"
     style="fill:url(#linear-gradient-6);stroke-width:0.10294462"
     id="path605"
     inkscape:connector-curvature="0" />
  <path
     d="m 80.559218,14.760121 0.05456,-0.05868 a 0.18530032,0.18530032 0 0 0 -0.05456,0.05868 z m 24.528612,70.085726 c 0.39119,-0.551783 0.92033,-2.319342 1.3877,-3.109957 2.83921,-4.583094 2.8598,-8.235569 2.8598,-8.322043 1.71506,-8.567051 1.55961,-12.065109 0.50443,-18.530031 -0.8493,-5.208998 -4.56251,-12.671454 -7.77953,-16.26525 -3.314815,-3.706007 -0.979,-2.496407 -4.188815,-5.200763 -2.813477,-3.118192 -5.54048,-6.206531 -7.02597,-7.449072 C 80.11038,16.99093 80.352299,15.085426 80.559218,14.760121 c -0.035,0.03809 -0.08647,0.09471 -0.151329,0.168829 -0.126621,-0.506488 -0.217213,-0.932679 -0.217213,-0.932679 0,0 -5.867843,5.867844 -7.103178,15.647583 -0.806057,6.382566 1.583288,13.041024 5.044286,17.294696 a 39.239401,39.239401 0 0 0 6.073733,5.970788 v 0 c 2.614793,3.75542 4.053959,8.388957 4.053959,13.373535 0,12.481006 -10.123574,22.599433 -22.611786,22.599433 a 22.662229,22.662229 0 0 1 -5.057669,-0.568254 c -5.89255,-1.123126 -9.29487,-4.095137 -10.991397,-6.112852 -0.972827,-1.156068 -1.385635,-1.999185 -1.385635,-1.999185 5.279,1.891093 11.118019,1.495786 14.66652,-0.465309 3.577326,-1.982714 5.741222,-3.453792 7.498486,-2.874214 1.731529,0.577519 3.109957,-1.098419 1.873592,-2.835095 -1.211658,-1.734617 -4.364852,-4.220729 -9.046773,-3.529971 -3.581443,0.521929 -6.862288,3.063632 -11.554504,0.601197 A 9.5316424,9.5316424 0 0 1 50.770133,70.5839 c -0.308833,-0.182212 1.005769,0.276921 0.698994,0.07 -0.913118,-0.444721 -2.529349,-1.41343 -2.948334,-1.757265 -0.07,-0.05765 0.708259,0.222361 0.638257,0.164712 -4.3875,-3.237609 -3.839834,-5.424152 -3.706006,-6.794345 0.110151,-1.09739 0.906942,-2.503613 2.250369,-3.073927 0.648551,0.31707 1.053124,0.55899 1.053124,0.55899 0,0 -0.276921,-0.506488 -0.426191,-0.773114 0.0525,-0.01956 0.102945,-0.01544 0.154417,-0.035 0.531194,0.229567 1.706822,0.823557 2.325519,1.19107 0.806056,0.509576 1.062388,0.963561 1.062388,0.963561 0,0 0.212066,-0.102944 0.05559,-0.548695 -0.05765,-0.182211 -0.301627,-0.76076 -1.099448,-1.345486 h 0.04941 a 9.4348744,9.4348744 0 0 1 1.351663,0.841058 c 0.225449,-0.732966 0.630021,-1.498874 0.540459,-2.868037 -0.05456,-0.962532 -0.02882,-1.212688 -0.218242,-1.584318 -0.169859,-0.319128 0.09471,-0.443691 0.38913,-0.11221 a 3.0749558,3.0749558 0 0 0 -0.251184,-0.755613 v -0.02471 c 0.367512,-1.146803 7.775407,-4.130138 8.314837,-4.47912 a 7.2184768,7.2184768 0 0 0 2.179337,-2.123748 c 0.411779,-0.588843 0.720612,-1.413429 0.797821,-2.665236 0.02574,-0.564136 -0.14824,-1.010916 -2.110365,-1.441225 -1.177686,-0.256332 -2.999806,-0.505458 -5.809165,-0.768996 -2.048598,-0.181182 -3.250991,-1.511227 -3.933514,-2.738327 -0.124563,-0.264568 -0.252214,-0.504428 -0.378836,-0.74326 a 5.4982722,5.4982722 0 0 1 -0.291333,-0.858558 16.313634,16.313634 0 0 1 6.308446,-7.829968 c 0.164712,-0.134857 -0.658845,0.03397 -0.494134,-0.102945 0.192506,-0.156475 1.447401,-0.610461 1.685203,-0.712376 0.289275,-0.122504 -1.235335,-0.704142 -2.590086,-0.563107 -1.37534,0.138975 -1.666674,0.286186 -2.400669,0.565166 0.308834,-0.271774 1.273425,-0.627963 1.045918,-0.625904 -1.482403,0.20589 -3.325112,0.975915 -4.900164,1.853003 a 1.00371,1.00371 0 0 1 0.09471,-0.443691 c -0.733995,0.27898 -2.536556,1.407253 -3.060544,2.367726 a 4.0961664,4.0961664 0 0 0 0.02985,-0.550753 9.1620712,9.1620712 0 0 0 -1.502991,1.410341 l -0.02779,0.02265 c -4.251613,-1.539022 -7.997768,-1.637849 -11.163315,-0.947091 -0.693847,-0.623844 -1.808737,-1.567846 -3.385848,-4.673685 -0.102945,-0.18736 -0.164712,0.386042 -0.247068,0.205889 -0.617667,-1.421665 -0.983121,-3.751302 -0.926501,-5.35312 0,0 -1.268278,0.577519 -2.317284,2.99157 -0.194565,0.433397 -0.320157,0.673258 -0.44472,0.913119 -0.05765,0.07 0.130739,-0.792674 0.102944,-0.745319 -0.182212,0.308834 -0.654727,0.740172 -0.861646,1.299161 -0.142064,0.411779 -0.341776,0.645463 -0.469428,1.162245 l -0.02985,0.04735 c -0.01029,-0.152358 0.03809,-0.625903 0,-0.529135 a 24.397875,24.397875 0 0 0 -1.267248,3.071867 c -0.565166,1.853004 -1.222982,4.386471 -1.326956,7.676581 -0.02471,0.249126 0,0.529135 -0.02574,0.753554 -1.33931,1.516375 -2.251399,2.8073 -2.595234,3.478499 -1.731529,2.670384 -3.638063,6.838611 -5.485919,13.430155 a 32.921689,32.921689 0 0 1 2.93804,-5.147231 c -1.536964,3.499088 -3.022454,8.993242 -3.319964,17.452202 a 45.036212,45.036212 0 0 1 1.427842,-5.171938 c -0.265598,5.641365 0.392219,12.635423 3.95822,20.526128 2.117571,4.641773 6.991999,14.067382 18.902691,21.422776 v 0 c 0,0 4.051901,3.01628 11.015075,5.27694 0.514723,0.18633 1.035623,0.3706 1.567846,0.54869 q -0.250155,-0.10294 -0.484869,-0.20589 a 49.868433,49.868433 0 0 0 14.288713,2.10007 c 18.033839,0.0154 23.352987,-7.22671 23.352987,-7.22671 l -0.0525,0.0391 q 0.381924,-0.35825 0.735024,-0.74739 c -2.84436,2.68892 -9.341195,2.86598 -11.76554,2.67656 4.140432,-1.21577 6.865376,-2.24522 12.164965,-4.27426 q 0.926502,-0.34589 1.902417,-0.7865 l 0.205889,-0.0968 c 0.128681,-0.0597 0.256332,-0.11633 0.386042,-0.17913 a 35.91326,35.91326 0 0 0 7.232889,-4.529557 c 5.322237,-4.251613 6.485507,-8.396164 7.085677,-11.128314 -0.0844,0.26148 -0.34692,0.871941 -0.53222,1.268278 -1.37019,2.931863 -4.41015,4.735452 -7.711584,6.279622 A 70.976198,70.976198 0 0 0 102.86938,88.7073 c 1.07783,-1.065477 1.41034,-2.737297 2.21845,-3.861453 z"
     style="fill:url(#radial-gradient);stroke-width:0.10294462"
     id="path607"
     inkscape:connector-curvature="0" />
  <path
     d="m 98.609528,95.011628 c 2.170072,-2.392432 4.117782,-5.1287 5.595042,-8.235569 3.79865,-7.986444 9.67679,-21.2663 5.04428,-35.136028 C 105.59432,40.681576 100.57371,34.687111 94.202469,28.83265 83.851387,19.322626 80.960702,15.079249 80.960702,12.555047 c 0,0 -11.950841,13.322063 -6.767579,27.216498 5.183261,13.894436 15.797881,13.382801 22.820763,27.88461 8.263364,17.062041 -6.686253,35.681635 -19.044755,40.893725 0.756643,-0.1678 27.486209,-6.2158 28.887289,-21.503077 -0.036,0.281039 -0.63826,4.508975 -8.246892,7.964825 z"
     style="fill:url(#linear-gradient-7);stroke-width:0.10294462"
     id="path609"
     inkscape:connector-curvature="0" />
  <path
     d="m 65.649955,45.43247 c 0.04015,-0.902824 -0.42825,-1.509168 -7.893794,-2.209191 -3.071867,-0.284128 -4.247495,-3.122311 -4.606772,-4.317498 -1.092242,2.837154 -1.544169,5.815342 -1.30122,9.417374 0.165741,2.359491 1.750059,4.891928 2.508761,6.382566 0,0 0.168829,-0.219272 0.246037,-0.299568 1.426813,-1.485491 7.405836,-3.749243 7.966885,-4.070431 0.619726,-0.395307 2.976129,-2.117571 3.080103,-4.903252 z"
     style="fill:url(#linear-gradient-8);stroke-width:0.10294462"
     id="path611"
     inkscape:connector-curvature="0" />
  <path
     d="m 63.986164,45.43247 c 0.04015,-0.902824 -0.42825,-1.509168 -7.893794,-2.209191 -3.071867,-0.284128 -4.247495,-3.122311 -4.606771,-4.317498 -1.092243,2.837154 -1.54417,5.815342 -1.30122,9.417374 0.16574,2.359491 1.750058,4.891928 2.50876,6.382566 0,0 0.168829,-0.219272 0.246038,-0.299568 1.426812,-1.485491 7.405835,-3.749243 7.966884,-4.070431 0.619726,-0.395307 2.976129,-2.117571 3.080103,-4.903252 z"
     style="fill:url(#linear-gradient-9);stroke-width:0.10294462"
     id="path613"
     inkscape:connector-curvature="0" />
  <path
     d="m 31.118005,28.662791 c -0.102944,-0.187359 -0.164711,0.386043 -0.247067,0.20589 -0.617667,-1.421666 -0.986209,-3.726596 -0.897677,-5.353121 0,0 -1.268277,0.57752 -2.317283,2.991571 -0.194565,0.433397 -0.320158,0.673258 -0.444721,0.912089 -0.05765,0.07 0.13074,-0.792673 0.102945,-0.745319 -0.182212,0.308834 -0.654728,0.740172 -0.859588,1.274455 -0.169858,0.436485 -0.344864,0.671199 -0.474575,1.211658 -0.04015,0.147211 0.04015,-0.65061 0,-0.553842 -2.437728,4.710746 -2.904067,11.843778 -2.646706,11.542151 5.196645,-5.548715 11.149932,-6.864348 11.149932,-6.864348 -0.633109,-0.466339 -2.010508,-1.814913 -3.366289,-4.621184 z"
     style="fill:url(#linear-gradient-10);stroke-width:0.10294462"
     id="path615"
     inkscape:connector-curvature="0" />
  <path
     d="M 51.459914,86.685468 C 44.282615,83.620806 36.121165,79.299191 36.429999,69.479304 36.850013,56.547401 48.490991,59.103516 48.490991,59.103516 c -0.439574,0.102944 -1.614172,0.942972 -2.030068,1.834473 -0.439573,1.11489 -1.242541,3.631886 1.18901,6.269327 3.818216,4.137344 -7.84438,9.816799 10.156517,20.544658 0.453985,0.247067 -4.22073,-0.147211 -6.345507,-1.066506 z"
     style="fill:url(#linear-gradient-11);stroke-width:0.10294462"
     id="path617"
     inkscape:connector-curvature="0" />
  <path
     d="m 49.847369,80.241134 c 5.089582,1.771677 11.015074,1.460785 14.568722,-0.50031 2.376992,-1.322839 5.425182,-3.441439 7.300833,-2.91848 -1.624466,-0.642375 -2.854655,-0.941944 -4.333969,-1.015034 -0.252214,0 -0.553842,-0.0051 -0.823557,-0.03294 a 14.227976,14.227976 0 0 0 -1.622407,0.08853 c -0.916207,0.08441 -1.93227,0.661934 -2.855684,0.569283 -0.04941,0 0.895619,-0.388101 0.823557,-0.37163 -0.488987,0.102945 -1.02121,0.124563 -1.582259,0.193536 -0.357217,0.04015 -0.663992,0.08442 -1.018122,0.102945 -10.603296,0.898706 -19.559478,-5.745339 -19.559478,-5.745339 -0.762819,2.573615 3.414673,7.648785 9.112658,9.632528 z"
     style="fill:url(#linear-gradient-12);stroke-width:0.10294462"
     id="path619"
     inkscape:connector-curvature="0" />
  <path
     d="M 98.590998,95.079572 C 109.31371,84.551426 114.73889,71.75438 112.44528,57.401841 c 0,0 0.91621,7.36054 -2.55817,14.88888 1.66873,-7.349216 1.8633,-16.482463 -2.57361,-25.942044 -5.91623,-12.625128 -15.649646,-19.267115 -19.365947,-22.038384 -5.630041,-4.199111 -7.962766,-8.474401 -8.007032,-9.357666 -1.682115,3.446586 -6.770668,15.256393 -0.546636,25.427321 5.830783,9.528554 15.015502,12.353354 21.446455,21.103647 11.84686,16.09745 -2.249342,33.595977 -2.249342,33.595977 z"
     style="fill:url(#linear-gradient-13);stroke-width:0.10294462"
     id="path621"
     inkscape:connector-curvature="0" />
  <path
     d="m 97.054035,67.687038 c -3.747185,-7.741435 -8.424988,-11.118019 -12.848518,-14.7777 0.514723,0.720612 0.641345,0.974885 0.926501,1.441224 3.894395,4.150728 9.636646,14.274301 5.467389,26.982815 -7.847469,23.921243 -39.233224,12.656011 -42.527452,9.492523 1.331074,13.84502 24.500819,20.46951 39.592501,11.49171 8.585581,-8.12748 15.531254,-21.948824 9.389579,-34.630572 z"
     style="fill:url(#linear-gradient-14);stroke-width:0.10294462"
     id="path623"
     inkscape:connector-curvature="0" />
  <path
     d="m 98.630117,83.214175 0.09677,-0.499281 c 0.03294,-0.180153 0.07721,-0.370601 0.102944,-0.57752 0.0628,-0.411778 0.142064,-0.871941 0.192507,-1.382546 a 24.490525,24.490525 0 0 0 0.152358,-3.603062 22.986504,22.986504 0 0 0 -0.598109,-4.503827 23.888299,23.888299 0 0 0 -1.793295,-5.01855 34.647041,34.647041 0 0 0 -3.046131,-5.127672 C 93.14008,61.653454 92.469911,60.836074 91.771946,60.02487 91.073982,59.213666 90.307044,58.441582 89.5154,57.678762 88.723756,56.915942 87.885787,56.1768 87.030317,55.456188 86.174847,54.735575 85.2957,54.014963 84.419641,53.294351 83.543583,52.573738 82.669583,51.838714 81.815142,51.069717 80.960702,50.300721 80.144351,49.496724 79.372267,48.649489 a 25.09481,25.09481 0 0 1 -2.136101,-2.67656 l -0.236773,-0.35207 C 76.918067,45.504531 76.83777,45.387174 76.764679,45.2657 l -0.449868,-0.720613 c -0.14824,-0.24089 -0.280009,-0.491045 -0.420014,-0.735024 l -0.205889,-0.367512 c -0.06794,-0.123534 -0.127651,-0.250156 -0.191477,-0.374719 l -0.377807,-0.750466 c -0.117357,-0.253244 -0.228537,-0.508547 -0.343835,-0.76179 -0.237802,-0.50237 -0.424132,-1.02327 -0.63105,-1.531816 l -0.07618,-0.191477 -0.06589,-0.195595 -0.130739,-0.39016 C 73.786492,38.987107 73.6959,38.731805 73.615603,38.470325 L 73.409714,37.684858 73.30677,37.293668 C 73.26971,37.163958 73.25221,37.03116 73.22441,36.90042 a 21.853084,21.853084 0 0 1 -0.39119,-6.159177 26.923106,26.923106 0 0 1 1.049006,-5.503419 31.990041,31.990041 0 0 1 1.750059,-4.53574 38.462169,38.462169 0 0 1 1.870503,-3.480558 37.75288,37.75288 0 0 1 2.541703,-3.706006 c 0.263538,-0.336629 0.526047,-0.661934 0.788556,-0.962532 a 0.10294462,0.10294462 0 0 1 0.134857,0 0.10294462,0.10294462 0 0 1 0.0175,0.132798 c -0.249126,0.289275 -0.514723,0.617668 -0.777232,0.957385 a 38.707177,38.707177 0 0 0 -4.426619,7.284362 31.834594,31.834594 0 0 0 -1.702704,4.523386 26.421766,26.421766 0 0 0 -0.994445,5.456065 21.942646,21.942646 0 0 0 0.439574,6.06035 c 0.01338,0.06486 0.02471,0.12971 0.03912,0.193536 l 0.05044,0.191477 0.102944,0.383983 c 0.07,0.255303 0.131769,0.514723 0.205889,0.770026 l 0.256333,0.76179 0.12868,0.382954 c 0.04221,0.127652 0.102945,0.252215 0.146182,0.377807 l 0.302657,0.756643 0.07618,0.189418 0.08441,0.18633 0.16883,0.373689 0.168829,0.374718 c 0.05662,0.124563 0.11118,0.251185 0.175006,0.37266 l 0.373689,0.737083 a 25.515854,25.515854 0 0 0 3.851158,5.470477 c 0.764878,0.829734 1.577111,1.61829 2.419198,2.374933 0.842087,0.756643 1.715058,1.478284 2.586999,2.195808 0.871941,0.717524 1.750058,1.422695 2.606558,2.145366 0.856499,0.722672 1.692409,1.457696 2.494348,2.214339 0.801938,0.756643 1.559611,1.544169 2.274046,2.351255 a 29.562607,29.562607 0 0 1 1.986831,2.487142 35.128822,35.128822 0 0 1 3.088339,5.152378 l 0.08133,0.159565 0.07412,0.162652 0.148241,0.323246 c 0.09677,0.215154 0.198683,0.42722 0.289274,0.641345 l 0.258391,0.643404 0.120445,0.321187 c 0.04015,0.102945 0.07515,0.214125 0.113239,0.321187 l 0.221331,0.635169 c 0.03809,0.102944 0.07,0.205889 0.102945,0.31604 l 0.09368,0.31604 c 0.06074,0.205889 0.126621,0.411778 0.182212,0.623844 l 0.152358,0.617668 a 23.401371,23.401371 0 0 1 0.628991,4.582065 24.896127,24.896127 0 0 1 -0.135887,3.685417 c -0.109121,1.046947 -0.276921,1.898299 -0.403543,2.538615 a 29.063325,29.063325 0 0 1 -1.017092,3.626739 30.70941,30.70941 0 0 1 -1.311515,3.182018 c -0.472516,0.979003 -0.94812,1.886975 -1.441225,2.703326 l -0.178094,0.308833 -0.178094,0.294422 -0.355159,0.570313 c -0.24089,0.365454 -0.470457,0.720613 -0.696935,1.044888 -0.455015,0.654728 -0.882235,1.235336 -1.266219,1.722264 l -0.542518,0.678405 -0.470457,0.552812 -0.205889,0.232655 -0.181183,0.198683 q -0.168829,0.1853 -0.287215,0.308834 c -0.156476,0.163682 -0.243979,0.243979 -0.254273,0.234714 -0.01029,-0.0093 0.05868,-0.110151 0.199712,-0.296481 0.141034,-0.186329 0.359277,-0.451927 0.625903,-0.807086 0.544578,-0.70517 1.316662,-1.734616 2.198898,-3.072896 0.214124,-0.337659 0.442661,-0.689729 0.670169,-1.064448 0.227508,-0.374718 0.463251,-0.764878 0.689729,-1.179745 q 0.702082,-1.235336 1.377399,-2.694061 C 96.52284,89.5988 96.640197,89.354822 96.74623,89.101578 l 0.321187,-0.767967 c 0.20589,-0.522959 0.411779,-1.057241 0.597079,-1.613142 a 30.09483,30.09483 0 0 0 0.965621,-3.506294 z"
     style="fill:url(#linear-gradient-15);stroke-width:0.10294462"
     id="path625"
     inkscape:connector-curvature="0" />
  <path
     d="m 90.933977,79.442284 c 0.05353,-0.212066 0.135887,-0.494134 0.205889,-0.846205 0.07,-0.35207 0.179124,-0.762819 0.256332,-1.235335 0.04118,-0.235743 0.08956,-0.484869 0.132799,-0.747378 l 0.114268,-0.823557 0.02985,-0.217213 0.02265,-0.22236 0.0453,-0.458104 c 0.01441,-0.155446 0.03294,-0.308834 0.04427,-0.472516 l 0.02882,-0.488987 a 26.985903,26.985903 0 0 0 -0.09574,-4.316468 l -0.02779,-0.287215 -0.03809,-0.287216 -0.07721,-0.577519 c -0.02368,-0.193536 -0.0628,-0.385013 -0.09471,-0.579578 -0.03191,-0.194566 -0.0628,-0.388101 -0.102945,-0.581637 l -0.120445,-0.580608 c -0.02059,-0.09677 -0.03912,-0.194565 -0.06177,-0.290304 l -0.07,-0.289274 -0.141034,-0.57752 -0.159564,-0.572372 a 28.058586,28.058586 0 0 0 -1.633732,-4.331909 27.508861,27.508861 0 0 0 -2.023891,-3.541295 c -0.336629,-0.506488 -0.678405,-0.957385 -0.989298,-1.365046 -0.310892,-0.40766 -0.617667,-0.755613 -0.879147,-1.050035 l -0.191477,-0.212066 -0.04632,-0.05147 a 0.15441693,0.15441693 0 0 1 -0.03088,-0.04118 l -0.01853,-0.02985 -0.06588,-0.11118 -0.225448,-0.389131 c -0.135887,-0.224419 -0.240891,-0.381924 -0.300599,-0.472516 -0.08235,-0.122504 -0.164711,-0.241919 -0.242949,-0.355159 a 0.10294462,0.10294462 0 0 1 0.03088,-0.130739 0.09676794,0.09676794 0 0 1 0.133828,0.01441 c 0.07927,0.110151 0.163682,0.230596 0.250156,0.356188 0.06691,0.102945 0.180153,0.266627 0.323246,0.499282 l 0.237802,0.393248 0.06588,0.102945 a 0.02470671,0.02470671 0 0 0 0.0093,0.01132 l 0.02265,0.02471 0.04735,0.05147 0.197654,0.216184 a 22.943267,22.943267 0 0 1 1.909622,2.436699 27.762105,27.762105 0 0 1 2.058893,3.554677 28.206826,28.206826 0 0 1 1.67182,4.356617 l 0.164712,0.57546 0.146181,0.580608 0.07309,0.290304 0.06382,0.292362 0.125593,0.583696 c 0.04015,0.194566 0.07103,0.39016 0.102944,0.584726 0.03191,0.194565 0.07412,0.388101 0.102945,0.582666 l 0.08236,0.581637 0.04015,0.289275 0.02985,0.289274 a 27.2515,27.2515 0 0 1 0.12971,4.356617 26.559712,26.559712 0 0 1 -0.398395,3.483645 c -0.07824,0.480752 -0.181183,0.89253 -0.254274,1.255925 -0.07309,0.363394 -0.155446,0.651639 -0.212065,0.871941 l -0.170889,0.648551 -0.191476,0.617668 -0.185301,0.588843 c -0.06485,0.190447 -0.130739,0.374718 -0.195595,0.553842 -0.261479,0.714436 -0.529135,1.33828 -0.771055,1.836532 -0.484869,1.007828 -0.856499,1.558581 -0.902824,1.532845 -0.04632,-0.02574 0.239861,-0.644433 0.653698,-1.682115 0.205889,-0.514723 0.440603,-1.143715 0.676346,-1.853003 0.05868,-0.177065 0.118387,-0.359277 0.176036,-0.546636 l 0.170888,-0.57649 0.179123,-0.599137 z"
     style="fill:url(#linearGradient1468);stroke-width:0.10294462"
     id="path627"
     inkscape:connector-curvature="0" />
  <path
     d="m 88.620811,50.482933 c -0.24192,-0.194565 -0.570313,-0.449868 -0.962532,-0.776202 l -0.641345,-0.530165 c -0.230596,-0.191477 -0.471486,-0.403543 -0.729877,-0.624874 a 41.61948,41.61948 0 0 1 -3.541295,-3.421879 30.136008,30.136008 0 0 1 -3.660711,-4.941342 c -0.134857,-0.237802 -0.273833,-0.475604 -0.411778,-0.720612 l -0.37266,-0.74326 -0.09368,-0.18633 c -0.02985,-0.0628 -0.05662,-0.127651 -0.08442,-0.191477 l -0.1678,-0.385013 -0.1678,-0.386042 c -0.0525,-0.129711 -0.102944,-0.262509 -0.149269,-0.394278 l -0.14824,-0.395308 c -0.05044,-0.131769 -0.102945,-0.263538 -0.140005,-0.399425 l -0.247067,-0.79885 -0.216184,-0.823557 c -0.03809,-0.135887 -0.06794,-0.273833 -0.09677,-0.411778 l -0.0875,-0.411779 a 23.011211,23.011211 0 0 1 -0.422073,-3.326141 25.709389,25.709389 0 0 1 0.04324,-3.235549 28.800816,28.800816 0 0 1 0.378836,-3.01216 c 0.173977,-0.954296 0.381925,-1.853003 0.603256,-2.687884 a 37.236099,37.236099 0 0 1 1.367104,-4.10646 c 0.418985,-1.046947 0.747378,-1.750059 0.876059,-2.02698 0.08853,-0.190448 0.177065,-0.375748 0.263538,-0.550754 a 0.10294462,0.10294462 0 0 1 0.128681,-0.03603 0.10294462,0.10294462 0 0 1 0.0525,0.123533 c -0.08133,0.169859 -0.169859,0.357218 -0.258391,0.549724 -0.138976,0.293393 -0.470457,1.014005 -0.882236,2.068158 a 37.413163,37.413163 0 0 0 -1.33828,4.10852 30.677497,30.677497 0 0 0 -0.926501,5.646512 25.788657,25.788657 0 0 0 -0.01853,3.191283 22.881501,22.881501 0 0 0 0.439573,3.261286 l 0.08853,0.405602 0.04427,0.205889 0.05353,0.200742 0.217213,0.801938 0.255303,0.789586 c 0.03912,0.132798 0.09059,0.26045 0.140004,0.39016 l 0.147211,0.386042 c 0.05044,0.128681 0.09574,0.258391 0.14927,0.385013 l 0.16677,0.376777 0.165741,0.375748 c 0.0278,0.06177 0.05353,0.125593 0.08442,0.18633 l 0.09265,0.182212 0.368542,0.720612 0.402513,0.698994 a 29.885853,29.885853 0 0 0 3.62468,4.838397 41.383737,41.383737 0 0 0 3.517618,3.373496 c 0.258391,0.219272 0.499281,0.430308 0.729877,0.617667 l 0.644433,0.528106 c 0.393249,0.326335 0.727819,0.584726 0.974886,0.784438 l 2.759945,2.183456 c 0.831793,0.662963 1.559611,1.261071 2.152572,1.770647 l 0.789585,0.691788 c 0.226479,0.205889 0.411779,0.389131 0.571343,0.537371 0.308834,0.29751 0.46428,0.469427 0.44575,0.490016 -0.01853,0.02059 -0.216183,-0.117357 -0.563107,-0.383983 L 93.573477,54.306296 91.364285,52.60771 c -0.843116,-0.642374 -1.772706,-1.350633 -2.743474,-2.124777 z"
     style="fill:url(#linear-gradient-17);stroke-width:0.10294462"
     id="path629"
     inkscape:connector-curvature="0" />
  <path
     d="m 110.01598,53.883194 c -0.0515,-0.192507 -0.10295,-0.418985 -0.1781,-0.673258 -0.0751,-0.254273 -0.15338,-0.540459 -0.24912,-0.852381 l -0.15545,-0.486928 c -0.0535,-0.169859 -0.11015,-0.345894 -0.17603,-0.525018 l -0.41178,-1.157098 -0.22339,-0.632079 -0.25736,-0.658846 -0.26972,-0.690758 c -0.0947,-0.234714 -0.18015,-0.477663 -0.28824,-0.720613 l -0.64547,-1.500932 c -0.23574,-0.514723 -0.49001,-1.039741 -0.74635,-1.583289 l -0.0968,-0.205889 -0.10295,-0.205889 -0.21206,-0.411779 -0.43134,-0.829733 c -0.071,-0.141034 -0.14927,-0.27898 -0.22854,-0.416926 L 105.10243,41.92 l -0.48178,-0.848264 -0.52296,-0.845175 -0.26457,-0.427221 c -0.0443,-0.07103 -0.0875,-0.144122 -0.13382,-0.214124 l -0.14207,-0.20589 c -0.38089,-0.561048 -0.75252,-1.140626 -1.16945,-1.695497 -0.20589,-0.28001 -0.41178,-0.565166 -0.61767,-0.845176 l -0.64855,-0.838998 c -0.10912,-0.138976 -0.21618,-0.28001 -0.32839,-0.416926 L 100.45139,35.17095 99.762693,34.347393 99.04208,33.545455 C 98.921635,33.412656 98.805308,33.27574 98.681774,33.14603 L 98.312203,32.75484 C 98.065136,32.49439 97.821157,32.230852 97.571002,31.97349 L 96.8123,31.209641 C 96.562145,30.953309 96.302724,30.706242 96.045363,30.458146 95.788001,30.210049 95.530639,29.960923 95.273278,29.717974 L 93.719844,28.276749 C 92.690397,27.329659 91.684628,26.390804 90.722096,25.46739 88.797032,23.621593 87.037708,21.844769 85.574865,20.217215 84.112022,18.58966 82.943601,17.109317 82.192105,15.893541 A 10.730947,10.730947 0 0 1 81.368548,14.320547 5.6557774,5.6557774 0 0 1 81.059714,13.373456 3.7430664,3.7430664 0 0 1 80.95677,12.62402 0.10294462,0.10294462 0 0 0 80.853825,12.53755 0.0936796,0.0936796 0 0 0 80.75088,12.62505 v 0.0062 a 3.8408638,3.8408638 0 0 0 0.102945,0.789585 5.9069623,5.9069623 0 0 0 0.331482,1.02327 11.025369,11.025369 0 0 0 0.857528,1.629613 23.730794,23.730794 0 0 0 1.441225,2.040362 c 0.573402,0.733995 1.235335,1.515345 1.968301,2.334784 1.465932,1.637849 3.219078,3.42085 5.132819,5.269735 0.956355,0.926502 1.955948,1.865357 2.977158,2.813477 l 1.536964,1.441224 0.76076,0.738113 c 0.254273,0.246038 0.508547,0.493105 0.755614,0.748408 l 0.747378,0.759731 0.729877,0.777232 0.364424,0.389131 c 0.119416,0.130739 0.235743,0.265597 0.35413,0.397366 l 0.703111,0.795762 0.676344,0.812233 0.33663,0.404572 c 0.11015,0.136917 0.21516,0.275892 0.32325,0.411779 l 0.63928,0.823557 c 0.20589,0.27795 0.40561,0.560018 0.60738,0.837969 0.41178,0.549724 0.77414,1.124155 1.14886,1.679027 0.19045,0.274862 0.35619,0.564136 0.53016,0.844145 l 0.51473,0.83694 0.47354,0.840028 c 0.15339,0.27898 0.31604,0.548695 0.45811,0.823557 l 0.4231,0.823557 0.20589,0.403543 c 0.07,0.133828 0.13794,0.266627 0.19868,0.401484 a 56.125407,56.125407 0 0 1 2.39655,5.751516 l 0.41384,1.168422 0.0927,0.265597 0.0813,0.257361 0.15442,0.485899 c 0.0957,0.308834 0.17295,0.597079 0.2481,0.852381 0.0751,0.255303 0.12662,0.48384 0.17912,0.679435 l 0.0751,0.291333 0.0669,0.291333 0.13279,0.574431 c 0.0752,0.381925 0.16163,0.753555 0.22236,1.122097 l 0.10295,0.544577 0.0824,0.534282 c 0.0587,0.351041 0.0957,0.695906 0.14207,1.029446 0.16471,1.338281 0.23059,2.533468 0.26148,3.524824 0.0535,1.985802 -0.0206,3.165547 0.0463,3.170695 v 0 c 0.0257,0 0.0731,-0.301628 0.12971,-0.858559 0.0566,-0.55693 0.10295,-1.368134 0.11221,-2.380079 a 31.654441,31.654441 0 0 0 -0.97488,-7.943207 z"
     style="fill:url(#linearGradient1470);stroke-width:0.10294462"
     id="path631"
     inkscape:connector-curvature="0" />
  <path
     d="m 74.249742,86.957241 c 0.146182,-0.05353 0.308834,-0.134857 0.499282,-0.218242 l 0.63208,-0.286186 0.74223,-0.378836 0.20589,-0.102945 0.205889,-0.117357 0.431338,-0.247067 c 0.299569,-0.162652 0.599138,-0.364424 0.919295,-0.566195 0.320158,-0.201772 0.640316,-0.436486 0.979004,-0.672229 0.170888,-0.116327 0.335599,-0.247067 0.504428,-0.379865 l 0.514723,-0.402514 0.514723,-0.440603 c 0.172947,-0.14927 0.352071,-0.298539 0.514724,-0.46428 l 0.514723,-0.492075 c 0.173976,-0.1678 0.338687,-0.348983 0.514723,-0.526047 l 0.258391,-0.269715 c 0.08647,-0.09059 0.165741,-0.188389 0.250155,-0.282069 l 0.50237,-0.577519 a 24.937305,24.937305 0 0 0 1.853003,-2.590087 24.643913,24.643913 0 0 0 1.525639,-2.953481 24.185809,24.185809 0 0 0 1.080919,-3.201577 23.897564,23.897564 0 0 0 0.584725,-3.300405 c 0.04221,-0.550754 0.09677,-1.095331 0.102945,-1.636819 0.02368,-0.54046 0.01132,-1.075772 0,-1.602848 A 24.363903,24.363903 0 0 0 87.799313,62.216561 C 87.728281,61.73478 87.626366,61.2705 87.533716,60.817544 L 87.374152,60.15458 c -0.04941,-0.218242 -0.117357,-0.428249 -0.173976,-0.637227 l -0.0875,-0.308834 c -0.02985,-0.102945 -0.06383,-0.205889 -0.09574,-0.301628 L 86.828545,58.323195 86.622656,57.770383 86.519712,57.503756 86.416767,57.247424 86.210878,56.75329 c -0.06897,-0.158535 -0.141034,-0.308834 -0.20589,-0.459133 -0.06485,-0.150299 -0.130739,-0.293392 -0.198683,-0.429279 L 85.607622,55.4706 a 21.736757,21.736757 0 0 0 -1.104596,-1.925064 l -0.338687,-0.514724 a 0.10294462,0.10294462 0 0 1 0.01544,-0.114268 l 0.04427,-0.01647 h -0.05044 l 0.04632,-0.01647 a 0.0957385,0.0957385 0 0 1 0.109121,0.02882 l 0.345894,0.514723 a 21.87985,21.87985 0 0 1 1.15298,1.990949 22.512959,22.512959 0 0 1 1.61726,4.101314 c 0.127651,0.418984 0.228537,0.860617 0.340746,1.312544 l 0.144123,0.693846 c 0.02574,0.117357 0.04735,0.235744 0.06691,0.355159 l 0.06074,0.361336 a 25.550855,25.550855 0 0 1 0.313981,3.053337 l 0.01853,0.801939 v 0.405602 l -0.0093,0.411778 c 0,0.545607 -0.05662,1.096361 -0.09368,1.647114 a 22.627227,22.627227 0 0 1 -5.044287,12.187614 l -0.505458,0.587814 c -0.08441,0.09574 -0.164711,0.194565 -0.251185,0.287215 l -0.26045,0.273833 c -0.173976,0.180153 -0.340746,0.363394 -0.514723,0.536341 l -0.514723,0.507517 c -0.0875,0.08133 -0.169858,0.166771 -0.258391,0.243979 l -0.264567,0.230596 -0.514723,0.449868 -0.52193,0.411778 c -0.171917,0.133828 -0.336629,0.270745 -0.514723,0.389131 L 78.619741,85.026 c -0.08236,0.05765 -0.162652,0.117357 -0.243978,0.172947 l -0.243979,0.161623 c -0.326335,0.20589 -0.628992,0.411779 -0.934737,0.582667 l -0.439574,0.253244 -0.205889,0.120445 c -0.06897,0.03809 -0.140005,0.07309 -0.205889,0.108092 l -0.760761,0.39016 c -0.236773,0.112209 -0.456045,0.205889 -0.65061,0.29751 -0.194565,0.09162 -0.365453,0.171917 -0.514723,0.227507 a 21.148943,21.148943 0 0 1 -3.424968,1.094302 c -0.265597,0.05765 -0.521929,0.116327 -0.772084,0.167799 l -0.738113,0.120446 -0.344865,0.05559 -0.33354,0.03706 -0.623845,0.06588 c -0.197653,0.02471 -0.387071,0.02985 -0.565166,0.03912 l -0.50134,0.02265 c -0.308834,0.01853 -0.578549,0 -0.795762,0 -0.434426,-0.01338 -0.66914,-0.035 -0.66914,-0.06383 0,-0.02882 0.24295,-0.05868 0.683552,-0.09471 0.220302,-0.01853 0.490017,-0.03088 0.802969,-0.07206 l 0.50134,-0.05456 0.273833,-0.02882 c 0.09368,-0.01029 0.189418,-0.02779 0.288244,-0.04221 0.392219,-0.06383 0.823557,-0.110151 1.285779,-0.205889 l 0.714435,-0.140005 0.752526,-0.183242 a 23.81212,23.81212 0 0 0 3.296286,-1.100478 z"
     style="fill:url(#linear-gradient-19);stroke-width:0.10294462"
     id="path633"
     inkscape:connector-curvature="0" />
  <path
     d="m 50.836914,39.602716 c 0.102944,-0.282068 0.224419,-0.617668 0.3706,-0.997533 0.146182,-0.379866 0.330452,-0.809145 0.563107,-1.272396 a 16.700706,16.700706 0 0 1 1.966243,-3.160399 15.702143,15.702143 0 0 1 3.591737,-3.342612 c 0.189418,-0.128681 0.388102,-0.250156 0.590902,-0.370601 l 0.153388,-0.08853 0.05559,-0.03191 0.01956,-0.0103 0.03294,-0.0175 h 0.0093 c 0.01235,0 0,0 -0.0062,-0.0072 h -0.01029 l -0.04324,-0.0093 q -0.351041,-0.07412 -0.713406,-0.126622 a 12.983375,12.983375 0 0 0 -3.057456,-0.0803 11.616271,11.616271 0 0 0 -2.722885,0.589873 10.500351,10.500351 0 0 0 -1.4124,0.617667 c -0.469427,0.249126 -0.953267,0.5209 -1.441225,0.79988 -0.487957,0.27898 -0.981062,0.575461 -1.470049,0.893559 -0.123533,0.07824 -0.245008,0.159565 -0.366483,0.24192 -0.121474,0.08236 -0.242949,0.165741 -0.362365,0.252215 a 7.8948229,7.8948229 0 0 0 -0.692817,0.547665 c -0.05147,0.04941 -0.102945,0.102945 -0.152358,0.150299 l -0.03603,0.03809 -0.04015,0.04838 c -0.0093,0.01544 -0.02574,0.02265 -0.03088,0.04324 h -0.0175 -0.0093 l -0.01956,0.01029 -0.07103,0.03809 a 0.30883386,0.30883386 0 0 1 -0.06589,0.02677 c -0.02779,0.0072 -0.05765,0.03397 -0.08853,0.01235 l -0.155447,-0.05765 -0.215154,-0.07618 C 44.701414,34.161064 44.408022,34.070472 44.112571,33.978852 Q 43.225188,33.70296 42.298687,33.491924 l -0.08133,-0.01853 -0.0875,-0.02059 a 19.605803,19.605803 0 0 0 -3.045102,-0.42825 13.58869,13.58869 0 0 0 -3.110987,0.229567 c -0.514723,0.08956 -1.029446,0.205889 -1.544169,0.331481 -0.514723,0.125593 -1.020181,0.275892 -1.52358,0.435456 a 24.699503,24.699503 0 0 0 -2.942158,1.155039 21.574104,21.574104 0 0 0 -5.165761,3.355994 18.240757,18.240757 0 0 0 -2.047568,2.125807 c -0.157505,0.182212 -0.29751,0.377806 -0.442662,0.567224 -0.145152,0.189419 -0.27898,0.386043 -0.411778,0.579579 l -0.403543,0.577519 c -0.131769,0.192506 -0.267656,0.379866 -0.386043,0.577519 l -0.720612,1.151951 -0.652669,1.141655 c -0.110151,0.185301 -0.205889,0.374719 -0.308834,0.562078 l -0.288245,0.558989 c -0.09471,0.184271 -0.193536,0.363395 -0.282068,0.545607 l -0.261478,0.54149 c -0.3531,0.709288 -0.65061,1.403135 -0.940914,2.058892 -0.272803,0.657816 -0.533253,1.275484 -0.750466,1.85815 -0.217214,0.582667 -0.411779,1.122097 -0.592961,1.612113 -0.181183,0.490016 -0.320158,0.935767 -0.439574,1.329015 l -0.170888,0.544577 -0.135887,0.459133 c -0.08338,0.275892 -0.142063,0.493105 -0.184271,0.643404 -0.102944,0.352071 -0.189418,0.700023 -0.269715,1.029446 a 0.10294462,0.10294462 0 0 1 -0.118386,0.0628 0.09470905,0.09470905 0 0 1 -0.07412,-0.112209 v 0 c 0.07824,-0.324276 0.16677,-0.677376 0.267656,-1.037682 0.04427,-0.164711 0.102944,-0.395307 0.193536,-0.683552 l 0.140004,-0.476634 0.173977,-0.560019 c 0.06074,-0.205889 0.13074,-0.411778 0.205889,-0.640315 0.07515,-0.228537 0.152358,-0.46531 0.239861,-0.715465 0.178094,-0.498252 0.367512,-1.047976 0.597079,-1.633731 0.229566,-0.585755 0.477663,-1.214747 0.755613,-1.87771 l 0.447809,-1.012975 c 0.07515,-0.173977 0.156476,-0.347953 0.24192,-0.522959 l 0.255303,-0.532224 0.256332,-0.547665 0.285157,-0.547665 0.290304,-0.55899 c 0.04941,-0.09368 0.09677,-0.189418 0.149269,-0.283097 l 0.159564,-0.281039 c 0.215155,-0.375748 0.427221,-0.76179 0.655758,-1.146803 l 0.720612,-1.159157 c 0.05971,-0.102944 0.125592,-0.194565 0.191477,-0.290304 l 0.197654,-0.289274 0.400454,-0.583696 0.205889,-0.294421 0.217214,-0.288245 0.219272,-0.289275 c 0.07412,-0.09574 0.153387,-0.188388 0.230596,-0.283098 a 18.632976,18.632976 0 0 1 2.072275,-2.146395 21.06144,21.06144 0 0 1 2.451111,-1.853003 23.746235,23.746235 0 0 1 2.753769,-1.52358 24.706709,24.706709 0 0 1 6.055202,-1.948742 c 0.523988,-0.09265 1.050035,-0.16677 1.579171,-0.211037 0.131769,-0.01132 0.264567,-0.02162 0.397366,-0.02779 0.132799,-0.0062 0.265597,-0.01235 0.398396,-0.01441 0.265597,0 0.529135,0.0082 0.792673,0.01338 a 20.02067,20.02067 0 0 1 3.088339,0.424132 l 0.08853,0.02059 0.08338,0.01853 q 0.933708,0.205889 1.835503,0.480751 c 0.299569,0.09162 0.596049,0.1853 0.889441,0.286186 l 0.219272,0.07721 0.06383,0.02265 c 0.01132,0 0.01338,0.0062 0.01853,0 l 0.01029,-0.01441 0.02882,-0.035 0.04221,-0.0453 c 0.05559,-0.0628 0.114269,-0.114268 0.171918,-0.170888 a 8.084241,8.084241 0 0 1 0.720612,-0.574431 c 0.122504,-0.08853 0.245008,-0.176035 0.369571,-0.258391 0.124563,-0.08235 0.247068,-0.167799 0.371631,-0.247067 0.495163,-0.324275 0.992386,-0.617667 1.481373,-0.906942 0.488987,-0.289274 0.970767,-0.554871 1.450489,-0.812233 a 10.790655,10.790655 0 0 1 1.460784,-0.643404 11.987901,11.987901 0 0 1 2.816565,-0.617667 13.366329,13.366329 0 0 1 3.128487,0.07206 q 0.37266,0.0525 0.733995,0.126622 c 0.03603,0.0072 0.182212,0.03809 0.287216,0.06382 0.105003,0.02574 0.22339,0.05456 0.322217,0.08544 l 0.301627,0.08956 0.14927,0.0453 0.03088,0.01029 h 0.01647 -0.01029 l -0.0875,0.03912 -0.346923,0.157506 -0.08647,0.03912 c -0.02882,0.01338 -0.05868,0.02677 -0.07927,0.03809 l -0.136916,0.07206 -0.136917,0.07103 -0.06794,0.03603 -0.03294,0.0175 -0.01853,0.01029 -0.147211,0.08544 c -0.102945,0.05559 -0.193536,0.116327 -0.289275,0.175006 -0.09574,0.05868 -0.189418,0.119415 -0.281038,0.181182 a 15.295512,15.295512 0 0 0 -3.491882,3.244815 16.407314,16.407314 0 0 0 -1.926094,3.088338 c -0.228537,0.457074 -0.397366,0.885324 -0.55693,1.260042 -0.159564,0.374719 -0.269715,0.714436 -0.370601,0.998563 a 23.899623,23.899623 0 0 0 -0.831792,3.088339 20.460243,20.460243 0 0 0 -0.376778,2.905097 13.129557,13.129557 0 0 0 0.09471,2.58288 l 0.04838,0.293393 c 0.01544,0.09677 0.03088,0.192506 0.05559,0.287215 0.0453,0.188389 0.08236,0.374718 0.135887,0.552813 0.05353,0.178094 0.09471,0.355159 0.150299,0.525017 0.05559,0.169859 0.102945,0.336629 0.159565,0.497223 a 28.260357,28.260357 0 0 0 1.208569,2.960687 c 0.318099,0.675317 0.50237,1.036652 0.476634,1.052094 -0.02574,0.01544 -0.26045,-0.336629 -0.63208,-1.009887 a 21.846907,21.846907 0 0 1 -1.359898,-2.985394 c -0.118387,-0.328393 -0.233685,-0.676346 -0.339718,-1.044888 -0.05353,-0.18427 -0.102944,-0.375747 -0.14824,-0.568254 -0.04529,-0.192506 -0.07515,-0.398396 -0.114268,-0.604285 a 13.515599,13.515599 0 0 1 -0.11221,-2.651853 19.514182,19.514182 0 0 1 0.369571,-2.920539 23.413724,23.413724 0 0 1 0.824587,-3.06775 z"
     style="fill:url(#linear-gradient-20);stroke-width:0.10294462"
     id="path635"
     inkscape:connector-curvature="0" />
  <g
     style="opacity:0.25"
     id="g639"
     transform="matrix(0.10294462,0,0,0.10294462,14.820843,12.528281)">
    <path
       d="m 915.07,657.63 2.85,-6.3 4,-9.2 4.75,-11.72 2.52,-6.71 c 0.86,-2.32 1.8,-4.7 2.62,-7.19 1.7,-5 3.56,-10.18 5.18,-15.68 0.82,-2.75 1.77,-5.52 2.53,-8.38 l 2.36,-8.69 c 0.85,-2.92 1.46,-5.92 2.17,-8.93 l 1,-4.53 c 0.36,-1.51 0.71,-3 1,-4.57 l 1.74,-9.24 0.43,-2.32 0.34,-2.33 0.69,-4.66 c 1,-6.19 1.55,-12.42 2.24,-18.53 0.44,-6.13 1,-12.15 1.12,-18 0.46,-11.7 0.34,-22.7 -0.22,-32.32 a 283.63,283.63 0 0 0 -4.08,-36.28 c -0.21,-1.15 -0.43,-2.28 -0.65,-3.34 a 1,1 0 0 1 0.77,-1 0.92,0.92 0 0 1 1.14,0.63 v 0 c 0.23,1 0.48,2.2 0.7,3.38 a 287,287 0 0 1 4.51,36.94 c 0.13,2.42 0.32,4.92 0.4,7.5 l 0.24,8 c 0,5.44 0.12,11.14 -0.13,17 -0.09,5.88 -0.58,11.93 -1,18.08 -0.64,6.13 -1.12,12.39 -2.08,18.62 l -0.64,4.68 -0.32,2.34 -0.42,2.33 -1.66,9.3 c -0.25,1.55 -0.6,3.08 -0.94,4.6 l -1,4.56 c -0.69,3 -1.28,6.05 -2.1,9 l -2.29,8.75 c -0.36,1.45 -0.79,2.86 -1.21,4.26 l -1.25,4.18 -1.23,4.1 -0.61,2 -0.66,2 -2.57,7.7 a 445.76,445.76 0 0 1 -16.62,41.7 c -11.91,26.19 -23.65,43.64 -24.6,43 -0.95,-0.64 9.51,-19.44 20.98,-44.73 z"
       style="fill:#ffffff"
       id="path637"
       inkscape:connector-curvature="0" />
  </g>
  <g
     style="opacity:0.25"
     id="g643"
     transform="matrix(0.10294462,0,0,0.10294462,14.820843,12.528281)">
    <path
       d="m 779.41,865.32 c 5,-3 16.85,-10 31.16,-20.3 l 5.49,-4 5.63,-4.28 2.9,-2.2 2.88,-2.32 5.87,-4.75 5.84,-5 c 2,-1.69 4,-3.39 5.82,-5.18 1.82,-1.79 3.73,-3.64 5.59,-5.48 1.86,-1.84 3.59,-3.81 5.27,-5.82 a 140,140 0 0 0 9.53,-12.29 147.13,147.13 0 0 0 8,-12.74 169.73,169.73 0 0 0 11.32,-24.49 158.72,158.72 0 0 0 7.92,-29.47 c 0.15,-1 0.3,-1.91 0.41,-2.81 a 1,1 0 0 1 1.07,-0.74 0.92,0.92 0 0 1 0.87,1 v 0 c -0.1,0.9 -0.23,1.88 -0.38,2.88 a 161.08,161.08 0 0 1 -7.79,30.28 171.81,171.81 0 0 1 -11.21,24.91 151.5,151.5 0 0 1 -8,13 143.71,143.71 0 0 1 -9.54,12.57 c -1.68,2.06 -3.51,4 -5.29,6 a 78.84,78.84 0 0 1 -5.63,5.64 c -1.95,1.79 -3.87,3.58 -5.82,5.3 l -5.81,5.12 -5.84,4.85 -2.86,2.37 -2.89,2.24 -5.62,4.39 c -1.85,1.4 -3.7,2.72 -5.48,4 -14.29,10.46 -26.22,17.71 -31.39,20.8 -20.72,12.39 -37.24,18.66 -37.67,17.61 -0.2,-0.47 3.73,-2.72 10.19,-6.37 6.46,-3.65 15.48,-8.77 25.46,-14.72 z"
       style="fill:#ffffff"
       id="path641"
       inkscape:connector-curvature="0" />
  </g>
  <path
     d="m 30.865791,29.078688 -0.197654,-0.326335 c -0.06897,-0.135887 -0.157505,-0.287215 -0.239861,-0.467368 a 7.8752634,7.8752634 0 0 1 -0.474574,-1.381517 12.083639,12.083639 0 0 1 -0.308834,-2.021832 q -0.02162,-0.292363 -0.03191,-0.606344 v -0.22339 0 l -0.0093,0.0093 -0.0093,0.01029 -0.04632,0.05147 c -0.154417,0.172947 -0.308834,0.3531 -0.469427,0.53943 -0.420015,0.491045 -0.867824,1.044887 -1.32078,1.647113 -0.452956,0.602226 -0.91003,1.251807 -1.33828,1.937418 -0.220302,0.339717 -0.420014,0.696935 -0.623844,1.051065 l -0.286186,0.543547 c -0.04941,0.08956 -0.09265,0.182212 -0.134858,0.274862 l -0.128681,0.277951 a 15.469488,15.469488 0 0 0 -0.823557,2.259634 c -0.205889,0.749437 -0.376777,1.477256 -0.507517,2.153602 -0.130739,0.676346 -0.22236,1.302249 -0.293392,1.853003 -0.136916,1.092242 -0.183241,1.863298 -0.196624,2.109335 l -0.01647,0.344865 a 0.10294462,0.10294462 0 0 1 -0.102945,0.08544 0.0957385,0.0957385 0 0 1 -0.102944,-0.0875 v 0 c 0,-0.109121 0.0072,-0.227508 0.01235,-0.348982 0.01235,-0.270745 0.05147,-1.059301 0.181182,-2.161837 0.06589,-0.552813 0.157506,-1.182834 0.27898,-1.866386 0.121475,-0.683553 0.287216,-1.417548 0.491046,-2.17522 A 15.375808,15.375808 0 0 1 24.967,30.265666 l 0.127652,-0.283098 0.06383,-0.142063 0.07103,-0.138975 0.284127,-0.553842 c 0.20589,-0.360307 0.401484,-0.720613 0.617668,-1.068566 0.42722,-0.696935 0.879147,-1.357839 1.331074,-1.967271 0.451927,-0.609432 0.895618,-1.173569 1.314603,-1.674909 0.158534,-0.188389 0.313981,-0.370601 0.468398,-0.545607 l 0.07,-0.07927 0.109121,-0.120445 0.217214,-0.238832 0.213095,-0.229566 0.102945,-0.114269 0.02574,-0.02677 0.01235,-0.01235 v 0.102945 c -0.0062,0.221331 -0.01853,0.450897 -0.01647,0.651639 v 0.439574 q 0.01029,0.302657 0.03397,0.586784 a 11.714068,11.714068 0 0 0 0.308834,1.944624 7.4562788,7.4562788 0 0 0 0.455015,1.311515 c 0.035,0.0875 0.08133,0.161623 0.118386,0.234713 l 0.108092,0.205889 0.195595,0.322217 c 0.377806,0.608403 0.771055,1.15298 1.132391,1.63682 0.361335,0.483839 0.685611,0.905912 0.958414,1.255924 0.545606,0.700023 0.869882,1.117979 0.823557,1.157097 -0.04633,0.03912 -0.452956,-0.328393 -1.066506,-0.993415 -0.308834,-0.332511 -0.661934,-0.741201 -1.039741,-1.216806 a 17.43676,17.43676 0 0 1 -1.141656,-1.630642 z"
     style="fill:url(#linear-gradient-21);stroke-width:0.10294462"
     id="path649"
     inkscape:connector-curvature="0" />
  <path
     d="m 35.934784,72.658234 c -0.03603,-0.162653 -0.06897,-0.383984 -0.116327,-0.653699 -0.02574,-0.134857 -0.04427,-0.282068 -0.0628,-0.442662 l -0.06177,-0.514723 a 14.690197,14.690197 0 0 1 0.0093,-2.640529 15.620817,15.620817 0 0 1 0.633109,-3.222167 10.285197,10.285197 0 0 1 0.678405,-1.647114 8.4352822,8.4352822 0 0 1 2.297724,-2.766122 l 0.3531,-0.266626 c 0.117357,-0.0875 0.24192,-0.163682 0.361336,-0.245008 l 0.180153,-0.119416 c 0.06074,-0.03809 0.123533,-0.07309 0.184271,-0.110151 l 0.366483,-0.215154 a 8.3961632,8.3961632 0 0 1 2.961716,-0.907972 12.58395,12.58395 0 0 1 2.313166,-0.04633 c 0.601197,0.04324 1.008857,0.110151 1.17151,0.135887 0.11118,0.01853 0.219272,0.03809 0.322216,0.05971 a 0.10294462,0.10294462 0 0 1 -0.04015,0.197654 c -0.09677,-0.01853 -0.205889,-0.03603 -0.315011,-0.05353 -0.173976,-0.02574 -0.586784,-0.0875 -1.183863,-0.122505 a 12.28747,12.28747 0 0 0 -2.277135,0.07618 8.1213011,8.1213011 0 0 0 -2.844359,0.919296 c -0.232655,0.143093 -0.476634,0.276921 -0.705171,0.440603 -0.114269,0.0803 -0.235743,0.153387 -0.346924,0.24192 l -0.336628,0.25942 a 8.1140949,8.1140949 0 0 0 -2.170073,2.67656 10.005188,10.005188 0 0 0 -0.635168,1.595642 15.309924,15.309924 0 0 0 -0.587814,3.139811 14.391658,14.391658 0 0 0 0.0093,2.562291 l 0.0628,0.500311 c 0.01956,0.156476 0.03706,0.301628 0.0628,0.433397 0.04838,0.264568 0.08133,0.48384 0.117357,0.646492 0.134858,0.653699 0.294422,1.255925 0.452957,1.792266 0.158534,0.536342 0.320157,1.00371 0.465309,1.388723 0.281039,0.774144 0.480752,1.221953 0.429279,1.250777 -0.05147,0.02882 -0.346923,-0.397366 -0.70517,-1.165333 a 13.618544,13.618544 0 0 1 -0.55796,-1.388723 c -0.08853,-0.269715 -0.183242,-0.553842 -0.26045,-0.85547 -0.07721,-0.301627 -0.153388,-0.608402 -0.225449,-0.933707 z"
     style="fill:url(#linear-gradient-22);stroke-width:0.10294462"
     id="path651"
     inkscape:connector-curvature="0" />
</svg>
