<?xml version="1.0" encoding="UTF-8" standalone="no"?>
<!-- Created with Inkscape (http://www.inkscape.org/) -->

<svg
   xmlns:dc="http://purl.org/dc/elements/1.1/"
   xmlns:cc="http://creativecommons.org/ns#"
   xmlns:rdf="http://www.w3.org/1999/02/22-rdf-syntax-ns#"
   xmlns:svg="http://www.w3.org/2000/svg"
   xmlns="http://www.w3.org/2000/svg"
   xmlns:xlink="http://www.w3.org/1999/xlink"
   xmlns:sodipodi="http://sodipodi.sourceforge.net/DTD/sodipodi-0.dtd"
   xmlns:inkscape="http://www.inkscape.org/namespaces/inkscape"
   version="1.1"
   id="svg2"
   width="128"
   height="128"
   viewBox="0 0 128 128"
   sodipodi:docname="ms-outlook.svg"
   inkscape:version="0.92.3 (2405546, 2018-03-11)">
  <metadata
     id="metadata8">
    <rdf:RDF>
      <cc:Work
         rdf:about="">
        <dc:format>image/svg+xml</dc:format>
        <dc:type
           rdf:resource="http://purl.org/dc/dcmitype/StillImage" />
        <dc:title />
      </cc:Work>
    </rdf:RDF>
  </metadata>
  <defs
     id="defs6">
    <linearGradient
       inkscape:collect="always"
       id="linearGradient893">
      <stop
         style="stop-color:#0e88c8;stop-opacity:1"
         offset="0"
         id="stop889" />
      <stop
         style="stop-color:#1fa4f1;stop-opacity:1"
         offset="1"
         id="stop891" />
    </linearGradient>
    <linearGradient
       inkscape:collect="always"
       id="linearGradient833">
      <stop
         style="stop-color:#37ccfe;stop-opacity:1"
         offset="0"
         id="stop829" />
      <stop
         id="stop837"
         offset="0.22539063"
         style="stop-color:#30c9fd;stop-opacity:1" />
      <stop
         style="stop-color:#21a5ff;stop-opacity:1"
         offset="0.22539063"
         id="stop839" />
      <stop
         id="stop841"
         offset="0.46110788"
         style="stop-color:#1aa7f4;stop-opacity:1" />
      <stop
         style="stop-color:#1150b3;stop-opacity:1"
         offset="0.46110788"
         id="stop843" />
      <stop
         id="stop845"
         offset="0.75361681"
         style="stop-color:#3366b7;stop-opacity:1" />
      <stop
         style="stop-color:#005fb6;stop-opacity:1"
         offset="0.75361681"
         id="stop847" />
      <stop
         style="stop-color:#27468e;stop-opacity:1"
         offset="1"
         id="stop831" />
    </linearGradient>
    <linearGradient
       inkscape:collect="always"
       id="linearGradient825">
      <stop
         style="stop-color:#004095;stop-opacity:1"
         offset="0"
         id="stop821" />
      <stop
         style="stop-color:#0766d3;stop-opacity:1"
         offset="1"
         id="stop823" />
    </linearGradient>
    <linearGradient
       inkscape:collect="always"
       xlink:href="#linearGradient825"
       id="linearGradient827"
       x1="-302.76492"
       y1="200.37862"
       x2="-79.193878"
       y2="476.12396"
       gradientUnits="userSpaceOnUse"
       gradientTransform="matrix(0.19411184,0,0,0.19411184,-131.94554,8.3261814)" />
    <linearGradient
       inkscape:collect="always"
       xlink:href="#linearGradient833"
       id="linearGradient835"
       x1="758.25604"
       y1="166.20975"
       x2="766.34314"
       y2="738.85797"
       gradientUnits="userSpaceOnUse"
       gradientTransform="matrix(0.19411184,0,0,0.19411184,-314.15519,-40.869226)" />
    <linearGradient
       inkscape:collect="always"
       xlink:href="#linearGradient893"
       id="linearGradient895"
       x1="13.481122"
       y1="102.41838"
       x2="89.939796"
       y2="124.94067"
       gradientUnits="userSpaceOnUse"
       gradientTransform="matrix(0.98780312,-0.15405544,0.15570802,0.97731923,-217.27297,8.5801237)" />
  </defs>
  <sodipodi:namedview
     pagecolor="#ffffff"
     bordercolor="#666666"
     borderopacity="1"
     objecttolerance="10"
     gridtolerance="10"
     guidetolerance="10"
     inkscape:pageopacity="0"
     inkscape:pageshadow="2"
     inkscape:window-width="1600"
     inkscape:window-height="837"
     id="namedview4"
     showgrid="false"
     inkscape:zoom="1.4451867"
     inkscape:cx="-68.765388"
     inkscape:cy="-19.012708"
     inkscape:window-x="0"
     inkscape:window-y="30"
     inkscape:window-maximized="1"
     inkscape:current-layer="svg2" />
  <g
     id="g1211"
     transform="matrix(0.94003587,0,0,0.94003587,207.15607,-3.6333768)">
    <rect
       style="opacity:0.25;fill:#000000;fill-opacity:1;stroke:none;stroke-width:0.75590551;stroke-linecap:round;stroke-linejoin:round;stroke-miterlimit:4;stroke-dasharray:none;stroke-dashoffset:0;stroke-opacity:1;paint-order:fill markers stroke"
       id="rect1179"
       width="91.779961"
       height="115.00123"
       x="-202.63838"
       y="-8.1694355"
       rx="9.1176825"
       ry="9.1176825"
       transform="rotate(-8.9578614)" />
    <rect
       transform="rotate(-8.9578614)"
       ry="9.1176825"
       rx="9.1176825"
       y="-10.145041"
       x="-202.32697"
       height="115.00123"
       width="91.779961"
       id="rect817"
       style="opacity:1;fill:url(#linearGradient835);fill-opacity:1;stroke:#034eac;stroke-width:0.75590551;stroke-linecap:round;stroke-linejoin:round;stroke-miterlimit:4;stroke-dasharray:none;stroke-dashoffset:0;stroke-opacity:1;paint-order:fill markers stroke" />
    <path
       style="opacity:1;fill:#1f85ca;fill-opacity:1;stroke:none;stroke-width:0.1544632;stroke-linecap:round;stroke-linejoin:round;stroke-miterlimit:4;stroke-dasharray:none;stroke-dashoffset:0;stroke-opacity:1;paint-order:fill markers stroke"
       d="m -181.35475,131.66391 c 1.88576,1.35508 4.29626,1.99535 6.79069,1.60406 l 72.63729,-11.39436 c 4.988872,-0.78259 8.36841,-4.98876 7.57742,-9.92471 l -7.57644,-47.278859 z"
       id="path897"
       inkscape:connector-curvature="0"
       sodipodi:nodetypes="cssscc" />
    <path
       sodipodi:nodetypes="cssscc"
       inkscape:connector-curvature="0"
       id="rect886"
       d="m -95.918775,118.36406 c -1.37131,1.86453 -3.464632,3.20925 -5.959425,3.59833 l -72.64758,11.32995 c -4.98959,0.77816 -9.63966,-2.56963 -10.42617,-7.50626 l -7.53361,-47.285566 z"
       style="opacity:1;fill:url(#linearGradient895);fill-opacity:1;stroke:none;stroke-width:0.1544632;stroke-linecap:round;stroke-linejoin:round;stroke-miterlimit:4;stroke-dasharray:none;stroke-dashoffset:0;stroke-opacity:1;paint-order:fill markers stroke" />
    <rect
       style="opacity:0.25;fill:#000000;fill-opacity:1;stroke:none;stroke-width:0.15528947;stroke-linecap:round;stroke-linejoin:round;stroke-miterlimit:4;stroke-dasharray:none;stroke-dashoffset:0;stroke-opacity:1;paint-order:fill markers stroke"
       id="rect1177"
       width="68.382599"
       height="66.673035"
       x="-210.77548"
       y="41.005051"
       rx="4.7487969"
       ry="4.7487969" />
    <rect
       ry="4.7487969"
       rx="4.7487969"
       y="39.005051"
       x="-210.77548"
       height="66.673035"
       width="68.382599"
       id="rect819"
       style="opacity:1;fill:url(#linearGradient827);fill-opacity:1;stroke:none;stroke-width:0.15528947;stroke-linecap:round;stroke-linejoin:round;stroke-miterlimit:4;stroke-dasharray:none;stroke-dashoffset:0;stroke-opacity:1;paint-order:fill markers stroke" />
    <path
       style="font-style:normal;font-variant:normal;font-weight:normal;font-stretch:normal;font-size:40px;line-height:1.25;font-family:Cantarell;-inkscape-font-specification:Cantarell;letter-spacing:0px;word-spacing:0px;opacity:0.25;fill:#000000;fill-opacity:1;stroke:none;stroke-width:1.69632196;stroke-miterlimit:4;stroke-dasharray:none;stroke-opacity:1"
       d="m -176.21311,56.462266 c -5.02064,0 -9.29479,1.822207 -12.27514,5.035956 -2.98035,3.213749 -4.65164,7.783862 -4.65164,13.182941 0,5.222014 1.54646,9.615289 4.36671,12.705849 2.82024,3.090559 6.90026,4.833854 11.74835,4.833854 5.02263,0 9.31187,-1.84274 12.30828,-5.072399 2.9964,-3.229661 4.68807,-7.81516 4.68807,-13.216073 0,-5.223913 -1.56802,-9.606618 -4.40646,-12.679342 -2.83844,-3.072727 -6.93214,-4.790786 -11.77817,-4.790786 z m -0.74546,6.444036 c 2.92412,0 5.32033,1.167312 7.04372,3.210421 1.72338,2.04311 2.75983,4.997023 2.75983,8.56444 0,3.441505 -0.93987,6.222114 -2.5246,8.123792 -1.58473,1.901674 -3.80266,2.968562 -6.59975,2.968562 -2.92716,0 -5.30522,-1.151498 -7.01058,-3.183915 -1.70537,-2.032418 -2.72671,-4.98226 -2.72671,-8.587631 0,-3.47952 0.92813,-6.262819 2.49479,-8.153611 1.56665,-1.890792 3.76304,-2.942058 6.5633,-2.942058 z"
       id="path1175"
       inkscape:connector-curvature="0" />
    <path
       inkscape:connector-curvature="0"
       id="text922"
       d="m -176.21311,54.462266 c -5.02064,0 -9.29479,1.822207 -12.27514,5.035956 -2.98035,3.213749 -4.65164,7.783862 -4.65164,13.182941 0,5.222014 1.54646,9.615289 4.36671,12.705849 2.82024,3.090559 6.90026,4.833854 11.74835,4.833854 5.02263,0 9.31187,-1.84274 12.30828,-5.072399 2.9964,-3.229661 4.68807,-7.81516 4.68807,-13.216073 0,-5.223913 -1.56802,-9.606618 -4.40646,-12.679342 -2.83844,-3.072727 -6.93214,-4.790786 -11.77817,-4.790786 z m -0.74546,6.444036 c 2.92412,0 5.32033,1.167312 7.04372,3.210421 1.72338,2.04311 2.75983,4.997023 2.75983,8.56444 0,3.441505 -0.93987,6.222114 -2.5246,8.123792 -1.58473,1.901674 -3.80266,2.968562 -6.59975,2.968562 -2.92716,0 -5.30522,-1.151498 -7.01058,-3.183915 -1.70537,-2.032418 -2.72671,-4.98226 -2.72671,-8.587631 0,-3.47952 0.92813,-6.262819 2.49479,-8.153611 1.56665,-1.890792 3.76304,-2.942058 6.5633,-2.942058 z"
       style="font-style:normal;font-variant:normal;font-weight:normal;font-stretch:normal;font-size:40px;line-height:1.25;font-family:Cantarell;-inkscape-font-specification:Cantarell;letter-spacing:0px;word-spacing:0px;fill:#ffffff;fill-opacity:1;stroke:none;stroke-width:1.69632196;stroke-miterlimit:4;stroke-dasharray:none;stroke-opacity:1" />
  </g>
</svg>
