<?xml version="1.0" encoding="UTF-8" standalone="no"?>
<!-- Created with Inkscape (http://www.inkscape.org/) -->

<svg
   xmlns:osb="http://www.openswatchbook.org/uri/2009/osb"
   xmlns:dc="http://purl.org/dc/elements/1.1/"
   xmlns:cc="http://creativecommons.org/ns#"
   xmlns:rdf="http://www.w3.org/1999/02/22-rdf-syntax-ns#"
   xmlns:svg="http://www.w3.org/2000/svg"
   xmlns="http://www.w3.org/2000/svg"
   xmlns:xlink="http://www.w3.org/1999/xlink"
   xmlns:sodipodi="http://sodipodi.sourceforge.net/DTD/sodipodi-0.dtd"
   xmlns:inkscape="http://www.inkscape.org/namespaces/inkscape"
   width="128"
   height="128"
   viewBox="0 0 33.866666 33.866668"
   version="1.1"
   id="svg8"
   inkscape:version="0.92.3 (2405546, 2018-03-11)"
   sodipodi:docname="xonotic.svg">
  <defs
     id="defs2">
    <linearGradient
       osb:paint="solid"
       id="linearGradient6987">
      <stop
         id="stop6985"
         offset="0"
         style="stop-color:#77d2fb;stop-opacity:1;" />
    </linearGradient>
    <linearGradient
       y2="71.020111"
       x2="84.091423"
       y1="117.04197"
       x1="122.34071"
       gradientUnits="userSpaceOnUse"
       id="linearGradient948"
       xlink:href="#linearGradient944"
       inkscape:collect="always"
       gradientTransform="matrix(0.26458333,0,0,0.26458333,-57.71897,262.24419)" />
    <linearGradient
       id="linearGradient944"
       inkscape:collect="always">
      <stop
         id="stop940"
         offset="0"
         style="stop-color:#d5dada;stop-opacity:1" />
      <stop
         id="stop942"
         offset="1"
         style="stop-color:#f1f1f1;stop-opacity:1" />
    </linearGradient>
    <linearGradient
       x1="45.447727"
       y1="92.539597"
       x2="45.447727"
       y2="7.0165396"
       id="ButtonShadow"
       gradientUnits="userSpaceOnUse"
       gradientTransform="matrix(1.0058652,0,0,0.994169,2548.5715,-34.051766)">
      <stop
         id="stop3750"
         style="stop-color:#000000;stop-opacity:1"
         offset="0" />
      <stop
         id="stop3752"
         style="stop-color:#000000;stop-opacity:0.58823532"
         offset="1" />
    </linearGradient>
    <linearGradient
       id="linearGradient3737">
      <stop
         id="stop3739"
         style="stop-color:#ffffff;stop-opacity:1"
         offset="0" />
      <stop
         id="stop3741"
         style="stop-color:#ffffff;stop-opacity:0"
         offset="1" />
    </linearGradient>
    <filter
       style="color-interpolation-filters:sRGB"
       id="filter3174">
      <feGaussianBlur
         id="feGaussianBlur3176"
         stdDeviation="1.71" />
    </filter>
    <filter
       style="color-interpolation-filters:sRGB"
       x="-0.192"
       y="-0.192"
       width="1.3839999"
       height="1.3839999"
       id="filter3794">
      <feGaussianBlur
         id="feGaussianBlur3796"
         stdDeviation="5.28" />
    </filter>
    <linearGradient
       gradientTransform="translate(2548.5715,-34.051766)"
       x1="48"
       y1="20.220806"
       x2="48"
       y2="138.66119"
       id="linearGradient3613"
       xlink:href="#linearGradient3737"
       gradientUnits="userSpaceOnUse" />
    <clipPath
       id="clipPath3613">
      <rect
         width="84"
         height="84"
         rx="6"
         ry="6"
         x="6"
         y="6"
         id="rect3615"
         style="fill:#ffffff;fill-opacity:1;fill-rule:nonzero;stroke:none" />
    </clipPath>
    <linearGradient
       y2="71.020111"
       x2="84.091423"
       y1="117.04197"
       x1="122.34071"
       gradientUnits="userSpaceOnUse"
       id="linearGradient948-2"
       xlink:href="#linearGradient944"
       inkscape:collect="always"
       gradientTransform="matrix(0.26458333,0,0,0.26458333,-85.492075,256.99651)" />
  </defs>
  <sodipodi:namedview
     id="base"
     pagecolor="#ffffff"
     bordercolor="#666666"
     borderopacity="1.0"
     inkscape:pageopacity="0.0"
     inkscape:pageshadow="2"
     inkscape:zoom="1.0341797"
     inkscape:cx="-71.894658"
     inkscape:cy="4.6522072"
     inkscape:document-units="mm"
     inkscape:current-layer="layer1"
     showgrid="false"
     units="px"
     inkscape:window-width="1600"
     inkscape:window-height="837"
     inkscape:window-x="0"
     inkscape:window-y="27"
     inkscape:window-maximized="1" />
  <metadata
     id="metadata5">
    <rdf:RDF>
      <cc:Work
         rdf:about="">
        <dc:format>image/svg+xml</dc:format>
        <dc:type
           rdf:resource="http://purl.org/dc/dcmitype/StillImage" />
        <dc:title></dc:title>
      </cc:Work>
    </rdf:RDF>
  </metadata>
  <g
     inkscape:label="Layer 1"
     inkscape:groupmode="layer"
     id="layer1"
     transform="translate(0,-263.13332)">
    <path
       inkscape:connector-curvature="0"
       d=""
       style="opacity:1;fill:url(#linearGradient948);fill-opacity:1;stroke:none;stroke-width:0.57240593;stroke-linecap:round;stroke-linejoin:round;stroke-miterlimit:4;stroke-dasharray:none;stroke-dashoffset:0;stroke-opacity:0.03831416;paint-order:fill markers stroke"
       id="path864"
       r="28.431282"
       cy="97.610519"
       cx="103.31834" />
    <g
       id="layer2"
       style="display:none"
       transform="matrix(0.26458333,0,0,0.26458333,-440.37336,228.6677)">
      <rect
         width="86"
         height="85"
         rx="6"
         ry="6"
         x="5"
         y="7"
         id="rect3745"
         style="opacity:0.9;fill:url(#ButtonShadow);fill-opacity:1;fill-rule:nonzero;stroke:none;filter:url(#filter3174)" />
    </g>
    <g
       id="layer5"
       style="display:none"
       transform="matrix(0.26458333,0,0,0.26458333,-440.37336,228.6677)">
      <rect
         width="66"
         height="66"
         rx="12"
         ry="12"
         x="15"
         y="15"
         clip-path="url(#clipPath3613)"
         id="rect3171"
         style="opacity:0.1;fill:url(#linearGradient3613);fill-opacity:1;fill-rule:nonzero;stroke:#ffffff;stroke-width:0.5;stroke-linecap:round;stroke-linejoin:miter;stroke-miterlimit:4;stroke-dasharray:none;stroke-dashoffset:0;stroke-opacity:1;filter:url(#filter3794)" />
    </g>
    <path
       inkscape:connector-curvature="0"
       d=""
       style="opacity:1;fill:url(#linearGradient948-2);fill-opacity:1;stroke:none;stroke-width:0.57240593;stroke-linecap:round;stroke-linejoin:round;stroke-miterlimit:4;stroke-dasharray:none;stroke-dashoffset:0;stroke-opacity:0.03831416;paint-order:fill markers stroke"
       id="path864-5"
       r="28.431282"
       cy="97.610519"
       cx="103.31834" />
    <circle
       r="15.61475"
       cy="280.3269"
       cx="16.933332"
       id="circle1596"
       style="opacity:0.25;fill:#000000;fill-opacity:1;stroke:none;stroke-width:0.08905025;stroke-miterlimit:4;stroke-dasharray:none;stroke-dashoffset:0;stroke-opacity:1" />
    <circle
       style="opacity:1;fill:#22313f;fill-opacity:1;stroke:none;stroke-width:0.08905025;stroke-miterlimit:4;stroke-dasharray:none;stroke-dashoffset:0;stroke-opacity:1"
       id="path1531"
       cx="16.933332"
       cy="279.8064"
       r="15.61475" />
    <g
       transform="matrix(0.65760816,0,0,0.65760816,57.274406,64.047764)"
       id="g1594"
       style="opacity:0.25;fill:#000000">
      <path
         id="path1590"
         d="m -53.706632,318.60319 c -0.715698,0.0373 -1.509713,0.20267 -2.401358,0.46408 l -0.772054,-0.47228 -14.758988,8.8556 c 2.250811,-0.86333 4.132527,-1.27159 5.28664,-1.36631 l -3.810794,4.31853 2.960687,-1.62348 c -1.213114,3.37979 -2.640541,6.5487 -5.912643,7.99359 -0.01826,0.0423 -0.01905,0.0918 -0.0344,0.13547 2.491317,2.79003 5.866871,4.76567 9.708621,5.30119 l 2.104495,2.90856 0.0807,-0.023 2.079361,-2.88554 c 4.050771,-0.56436 7.592748,-2.71992 10.115285,-5.75363 -0.12991,-0.0265 -0.262731,-0.0516 -0.439737,-0.0474 -4.661165,0.0399 -8.405548,-0.71729 -8.855604,-5.80761 -0.120915,-0.64505 -0.224367,-4.79239 6.64157,-6.84106 -0.69215,-0.44556 -2.996141,-0.47678 -4.635764,-0.48101 -0.07091,-0.60669 0.07673,-2.91492 5.373687,-3.20887 -0.830791,-0.79984 -1.536435,-1.52903 -2.730235,-1.46685 z m -4.424892,1.79308 c 0.339196,0.13705 0.383117,0.34449 0.443971,0.5678 -0.591873,0.11403 -1.425839,0.38126 -1.657614,0.0778 -0.106098,-0.10451 0.618331,-0.49027 1.219464,-0.63711 z"
         inkscape:connector-curvature="0"
         style="isolation:isolate;fill:#000000;fill-opacity:1;stroke-width:0.26458332" />
      <path
         id="path1592"
         d="m -69.414944,311.1856 c -6.560873,2.9464 -11.1125,9.37074 -11.1125,16.83596 0,10.25631 8.588375,18.57243 19.183879,18.57243 10.592858,0 19.180704,-8.31744 19.180704,-18.57243 0,-7.37341 -4.441561,-13.73505 -10.870406,-16.71955 l -0.20029,0.19288 c 5.075767,2.75855 8.119798,8.00682 8.119798,14.04462 0,8.10815 -6.051286,15.50643 -14.10044,16.628 l -2.129102,2.95116 -2.132277,-2.95116 c -8.048625,-1.12157 -14.100439,-8.51985 -14.100439,-16.628 0,-6.10077 3.119173,-11.39243 8.279871,-14.12558 -0.0344,-0.0733 -0.0844,-0.15505 -0.120121,-0.23283"
         inkscape:connector-curvature="0"
         style="isolation:isolate;fill:#000000;fill-opacity:1;stroke-width:0.26458332" />
    </g>
    <path
       id="path1485"
       d="m 21.956487,273.04333 c -0.470649,0.0245 -0.9928,0.13328 -1.579153,0.30518 l -0.507709,-0.31057 -9.705631,5.82351 c 1.480152,-0.56773 2.717583,-0.83621 3.476538,-0.89849 l -2.50601,2.8399 1.946972,-1.06762 c -0.797753,2.22258 -1.736441,4.30648 -3.888202,5.25665 -0.012008,0.0278 -0.012527,0.0604 -0.022622,0.0891 1.638311,1.83474 3.858103,3.13394 6.384469,3.4861 l 1.383933,1.9127 0.05307,-0.0151 1.367404,-1.89755 c 2.663821,-0.37113 4.993054,-1.78864 6.651894,-3.78364 -0.08543,-0.0174 -0.172774,-0.0339 -0.289174,-0.0312 -3.06522,0.0262 -5.527557,-0.47169 -5.823518,-3.81913 -0.07951,-0.42419 -0.147545,-3.15151 4.367551,-4.49874 -0.455163,-0.293 -1.970287,-0.31353 -3.048516,-0.31631 -0.04663,-0.39897 0.05046,-1.91688 3.53378,-2.11018 -0.546335,-0.52598 -1.010372,-1.0055 -1.795425,-0.96461 z m -2.909846,1.17914 c 0.223059,0.0901 0.251941,0.22654 0.291959,0.37339 -0.38922,0.075 -0.937643,0.25072 -1.09006,0.0512 -0.06977,-0.0687 0.406619,-0.32241 0.801929,-0.41897 z"
       inkscape:connector-curvature="0"
       style="isolation:isolate;fill:#f1c40d;fill-opacity:1;stroke-width:0.17399216" />
    <path
       id="path1492"
       d="m 11.626572,268.16546 c -4.3144832,1.93758 -7.3076703,6.16228 -7.3076703,11.07147 0,6.74463 5.6477855,12.21338 12.6154753,12.21338 6.96595,0 12.613388,-5.46962 12.613388,-12.21338 0,-4.84882 -2.920807,-9.03228 -7.148468,-10.99492 l -0.131712,0.12684 c 3.337865,1.81405 5.339645,5.26535 5.339645,9.23586 0,5.33199 -3.979375,10.19716 -9.272564,10.93471 l -1.400115,1.94071 -1.402203,-1.94071 c -5.292842,-0.73755 -9.2725638,-5.60272 -9.2725638,-10.93471 0,-4.01192 2.0511936,-7.49175 5.4449108,-9.2891 -0.02262,-0.0482 -0.0555,-0.10196 -0.07899,-0.15311"
       inkscape:connector-curvature="0"
       style="isolation:isolate;fill:#19b5fe;fill-opacity:1;stroke-width:0.17399216" />
  </g>
</svg>
