<?xml version="1.0" encoding="UTF-8" standalone="no"?>
<!-- Created with Inkscape (http://www.inkscape.org/) -->

<svg
   xmlns:osb="http://www.openswatchbook.org/uri/2009/osb"
   xmlns:dc="http://purl.org/dc/elements/1.1/"
   xmlns:cc="http://creativecommons.org/ns#"
   xmlns:rdf="http://www.w3.org/1999/02/22-rdf-syntax-ns#"
   xmlns:svg="http://www.w3.org/2000/svg"
   xmlns="http://www.w3.org/2000/svg"
   xmlns:xlink="http://www.w3.org/1999/xlink"
   xmlns:sodipodi="http://sodipodi.sourceforge.net/DTD/sodipodi-0.dtd"
   xmlns:inkscape="http://www.inkscape.org/namespaces/inkscape"
   width="128"
   height="128"
   viewBox="0 0 33.866666 33.866668"
   version="1.1"
   id="svg880"
   inkscape:version="0.92.2 5c3e80d, 2017-08-06"
   sodipodi:docname="yakuake 2.svg">
  <defs
     id="defs874">
    <linearGradient
       inkscape:collect="always"
       id="linearGradient3950">
      <stop
         style="stop-color:#0dbec0;stop-opacity:1"
         offset="0"
         id="stop3946" />
      <stop
         style="stop-color:#3edc92;stop-opacity:1"
         offset="1"
         id="stop3948" />
    </linearGradient>
    <linearGradient
       inkscape:collect="always"
       id="linearGradient3942">
      <stop
         style="stop-color:#48515d;stop-opacity:1"
         offset="0"
         id="stop3938" />
      <stop
         style="stop-color:#2f3943;stop-opacity:1"
         offset="1"
         id="stop3940" />
    </linearGradient>
    <linearGradient
       osb:paint="solid"
       id="linearGradient6987">
      <stop
         id="stop6985"
         offset="0"
         style="stop-color:#77d2fb;stop-opacity:1;" />
    </linearGradient>
    <linearGradient
       inkscape:collect="always"
       xlink:href="#linearGradient3942"
       id="linearGradient3944"
       x1="-435.27197"
       y1="364.95255"
       x2="-424.62506"
       y2="425.07645"
       gradientUnits="userSpaceOnUse"
       gradientTransform="matrix(0.36471449,0,0,0.36471449,-302.38375,280.58854)" />
    <linearGradient
       inkscape:collect="always"
       xlink:href="#linearGradient3950"
       id="linearGradient3952"
       x1="-431.5672"
       y1="423.31711"
       x2="-430.68707"
       y2="411.40454"
       gradientUnits="userSpaceOnUse"
       gradientTransform="matrix(0.36471449,0,0,0.36471449,-302.38375,280.58854)" />
  </defs>
  <sodipodi:namedview
     id="base"
     pagecolor="#ffffff"
     bordercolor="#666666"
     borderopacity="1.0"
     inkscape:pageopacity="0.0"
     inkscape:pageshadow="2"
     inkscape:zoom="1.6898438"
     inkscape:cx="25.98312"
     inkscape:cy="46.599151"
     inkscape:document-units="mm"
     inkscape:current-layer="layer1"
     showgrid="false"
     inkscape:window-width="1600"
     inkscape:window-height="803"
     inkscape:window-x="0"
     inkscape:window-y="0"
     inkscape:window-maximized="1"
     units="px" />
  <metadata
     id="metadata877">
    <rdf:RDF>
      <cc:Work
         rdf:about="">
        <dc:format>image/svg+xml</dc:format>
        <dc:type
           rdf:resource="http://purl.org/dc/dcmitype/StillImage" />
        <dc:title />
      </cc:Work>
    </rdf:RDF>
  </metadata>
  <g
     inkscape:label="Layer 1"
     inkscape:groupmode="layer"
     id="layer1"
     transform="translate(0,-263.13332)">
    <g
       id="g4000"
       transform="translate(477.0392,-145.99606)">
      <circle
         style="opacity:0.25;fill:#000000;fill-opacity:1;stroke:none;stroke-width:0.04446957;stroke-miterlimit:4;stroke-dasharray:none;stroke-dashoffset:0;stroke-opacity:1"
         id="circle3976"
         cx="-460.10587"
         cy="426.3273"
         r="15.875" />
      <circle
         r="15.875"
         cy="425.79813"
         cx="-460.10587"
         id="path3936"
         style="opacity:1;fill:url(#linearGradient3944);fill-opacity:1;stroke:none;stroke-width:0.04446957;stroke-miterlimit:4;stroke-dasharray:none;stroke-dashoffset:0;stroke-opacity:1" />
      <path
         style="opacity:0.25;fill:#000000;fill-opacity:1;stroke-width:0.43505603"
         inkscape:connector-curvature="0"
         d="m -462.17509,414.75431 a 1.1481129,1.1481129 0 0 0 -1.15029,1.15029 1.1494181,1.1494181 0 0 0 1.15072,1.15246 v 7.4486 c -2.4746,2.51897 -6.15691,6.52235 -6.90652,8.77421 -1.15246,3.45347 9.20927,3.34601 9.20927,3.34601 0,0 10.35956,0.10703 9.20927,-3.34601 -0.7496,-2.25186 -4.43236,-6.25567 -6.90651,-8.77421 v -7.4486 a 1.1494181,1.1494181 0 0 0 1.15028,-1.15246 1.1481129,1.1481129 0 0 0 -1.15028,-1.15029 z m 0,0"
         id="path3974" />
      <path
         id="path2878"
         d="m -462.17509,414.22514 a 1.1481129,1.1481129 0 0 0 -1.15029,1.15029 1.1494181,1.1494181 0 0 0 1.15072,1.15246 v 7.4486 c -2.4746,2.51897 -6.15691,6.52235 -6.90652,8.77421 -1.15246,3.45347 9.20927,3.34601 9.20927,3.34601 0,0 10.35956,0.10703 9.20927,-3.34601 -0.7496,-2.25186 -4.43236,-6.25567 -6.90651,-8.77421 v -7.4486 a 1.1494181,1.1494181 0 0 0 1.15028,-1.15246 1.1481129,1.1481129 0 0 0 -1.15028,-1.15029 z m 0,0"
         inkscape:connector-curvature="0"
         style="fill:#ececec;fill-opacity:1;stroke-width:0.43505603" />
      <path
         id="path2890"
         d="m -466.4836,428.74795 c -1.22192,1.50021 -2.22489,2.94955 -2.5775,4.00739 -1.1516,3.45428 9.20926,3.34905 9.20926,3.34905 0,0 10.36037,0.10523 9.20927,-3.34905 -0.35311,-1.05734 -1.35658,-2.50718 -2.5775,-4.00739 -3.02237,1.40096 -11.66208,-1.35758 -13.26353,0 z m 0,0"
         inkscape:connector-curvature="0"
         style="fill:url(#linearGradient3952);fill-opacity:1;stroke-width:0.4987416" />
      <path
         style="opacity:0.25;fill:#000000;fill-opacity:1;stroke-width:0.43505603"
         d="m -462.2045,414.43621 a 1.1481128,1.1481128 0 0 0 -1.15024,1.15043 1.1494181,1.1494181 0 0 0 0.90466,1.12461 h 5.09985 a 1.1494181,1.1494181 0 0 0 0.90203,-1.12461 1.1481128,1.1481128 0 0 0 -1.15024,-1.15043 z"
         id="path3972"
         inkscape:connector-curvature="0" />
      <path
         inkscape:connector-curvature="0"
         id="path3819"
         d="m -462.17514,414.22508 a 1.1481128,1.1481128 0 0 0 -1.15024,1.15043 1.1494181,1.1494181 0 0 0 0.90466,1.12461 h 5.09985 a 1.1494181,1.1494181 0 0 0 0.90203,-1.12461 1.1481128,1.1481128 0 0 0 -1.15024,-1.15043 z"
         style="fill:#e4e4e4;fill-opacity:1;stroke-width:0.43505603" />
      <circle
         r="1.3839198"
         cy="430.90808"
         cx="-460.23639"
         id="path3978"
         style="opacity:0.5;fill:#ffffff;fill-opacity:1;stroke:none;stroke-width:0.2;stroke-miterlimit:4;stroke-dasharray:none;stroke-dashoffset:0;stroke-opacity:1" />
      <circle
         r="0.94106549"
         cy="433.39911"
         cx="-457.19177"
         id="path3980"
         style="opacity:0.5;fill:#ffffff;fill-opacity:1;stroke:none;stroke-width:0.15454546;stroke-miterlimit:4;stroke-dasharray:none;stroke-dashoffset:0;stroke-opacity:1" />
      <circle
         r="0.88570869"
         cy="433.50983"
         cx="-464.60956"
         id="path3982"
         style="opacity:0.5;fill:#ffffff;fill-opacity:1;stroke:none;stroke-width:0.2;stroke-miterlimit:4;stroke-dasharray:none;stroke-dashoffset:0;stroke-opacity:1" />
      <circle
         r="0.55356795"
         cy="430.90808"
         cx="-454.70071"
         id="path3984"
         style="opacity:0.5;fill:#ffffff;fill-opacity:1;stroke:none;stroke-width:0.2;stroke-miterlimit:4;stroke-dasharray:none;stroke-dashoffset:0;stroke-opacity:1" />
      <circle
         style="opacity:0.5;fill:#ffffff;fill-opacity:1;stroke:none;stroke-width:0.108;stroke-miterlimit:4;stroke-dasharray:none;stroke-dashoffset:0;stroke-opacity:1"
         id="circle3986"
         cx="-464.85867"
         cy="429.49649"
         r="0.74731672" />
    </g>
  </g>
</svg>
