<?xml version="1.0" encoding="UTF-8" standalone="no"?>
<!-- Created with Inkscape (http://www.inkscape.org/) -->

<svg
   xmlns:osb="http://www.openswatchbook.org/uri/2009/osb"
   xmlns:dc="http://purl.org/dc/elements/1.1/"
   xmlns:cc="http://creativecommons.org/ns#"
   xmlns:rdf="http://www.w3.org/1999/02/22-rdf-syntax-ns#"
   xmlns:svg="http://www.w3.org/2000/svg"
   xmlns="http://www.w3.org/2000/svg"
   xmlns:xlink="http://www.w3.org/1999/xlink"
   xmlns:sodipodi="http://sodipodi.sourceforge.net/DTD/sodipodi-0.dtd"
   xmlns:inkscape="http://www.inkscape.org/namespaces/inkscape"
   width="128"
   height="128"
   viewBox="0 0 33.866665 33.866665"
   version="1.1"
   id="svg4942"
   inkscape:version="0.92.2 5c3e80d, 2017-08-06"
   sodipodi:docname="audio-headset.svg"
   inkscape:export-filename="/Users/balasakthi/Desktop/d.png"
   inkscape:export-xdpi="96"
   inkscape:export-ydpi="96"
   style="enable-background:new">
  <defs
     id="defs4936">
    <linearGradient
       id="linearGradient6211"
       osb:paint="solid">
      <stop
         style="stop-color:#666666;stop-opacity:1;"
         offset="0"
         id="stop6209" />
    </linearGradient>
    <linearGradient
       id="linearGradient6987"
       osb:paint="solid">
      <stop
         style="stop-color:#77d2fb;stop-opacity:1;"
         offset="0"
         id="stop6985" />
    </linearGradient>
    <linearGradient
       inkscape:collect="always"
       xlink:href="#linearGradient1045"
       id="linearGradient1047"
       x1="-88.973709"
       y1="157.31764"
       x2="-43.755177"
       y2="257.71985"
       gradientUnits="userSpaceOnUse"
       gradientTransform="matrix(1.137612,0,0,1.137612,160.55359,-13.402822)" />
    <linearGradient
       inkscape:collect="always"
       id="linearGradient1045">
      <stop
         style="stop-color:#4d4d4d;stop-opacity:1"
         offset="0"
         id="stop1041" />
      <stop
         style="stop-color:#333333;stop-opacity:1"
         offset="1"
         id="stop1043" />
    </linearGradient>
  </defs>
  <sodipodi:namedview
     id="base"
     pagecolor="#ffffff"
     bordercolor="#666666"
     borderopacity="1.0"
     inkscape:pageopacity="0.0"
     inkscape:pageshadow="2"
     inkscape:zoom="1.5429321"
     inkscape:cx="148.30669"
     inkscape:cy="184.21355"
     inkscape:document-units="mm"
     inkscape:current-layer="layer1"
     showgrid="false"
     units="px"
     width="128px"
     inkscape:window-width="1600"
     inkscape:window-height="811"
     inkscape:window-x="0"
     inkscape:window-y="0"
     inkscape:window-maximized="1"
     inkscape:measure-start="-293.521,100.415"
     inkscape:measure-end="-294.709,409.978" />
  <metadata
     id="metadata4939">
    <rdf:RDF>
      <cc:Work
         rdf:about="">
        <dc:format>image/svg+xml</dc:format>
        <dc:type
           rdf:resource="http://purl.org/dc/dcmitype/StillImage" />
        <dc:title></dc:title>
      </cc:Work>
    </rdf:RDF>
  </metadata>
  <g
     inkscape:label="Layer 1"
     inkscape:groupmode="layer"
     id="layer1"
     transform="translate(0,-263.13332)">
    <g
       id="g898"
       transform="matrix(0.24236666,0,0,0.24373634,0.51543043,224.47055)"
       style="stroke-width:4.11437082">
      <g
         style="stroke:none;stroke-width:4.11437082"
         transform="translate(101.83552,-28.102815)"
         id="g881">
        <path
           inkscape:connector-curvature="0"
           stroke-miterlimit="2"
           style="fill:#cccccc;fill-rule:evenodd;stroke:none;stroke-width:0;stroke-linecap:square;stroke-miterlimit:2"
           d="m -84.549443,294.54491 2.185687,-1.1998 c 9.260422,15.56157 19.016539,27.90762 36.942149,22.31543 l 0.471582,2.16648 c -20.895454,5.66345 -30.808587,-7.77423 -39.599418,-23.28211 z"
           id="path2-7" />
        <rect
           stroke-miterlimit="2.013"
           style="fill-rule:evenodd;stroke:none;stroke-width:0;stroke-linecap:square;stroke-miterlimit:2.01260185"
           width="14.79676"
           height="6.3730674"
           x="-140.17874"
           y="295.57263"
           transform="matrix(0.97293877,-0.23106308,0.30484164,0.95240305,0,0)"
           id="rect20" />
      </g>
      <path
         inkscape:connector-curvature="0"
         style="fill:url(#linearGradient1047);fill-opacity:1;stroke-width:1.23839748"
         d="m 67.670632,162.9646 c -6.524881,-0.0206 -13.023761,1.0482 -19.55888,3.20521 -19.614845,6.47414 -33.97855,22.28944 -39.3768266,43.35925 -1.9956331,7.78968 -2.0427075,8.52315 -2.0062015,31.10366 0.030602,18.92753 0.075879,20.55467 0.6337523,23.29721 1.9849054,9.75725 8.3773638,17.41038 17.4563268,21.18185 0.98317,0.40841 1.994143,0.81655 3.03822,1.13049 0.397345,0.11949 0.860865,0.19083 1.2611,0.35327 0.877031,0.35594 1.630778,0.85297 1.995497,1.16904 2.614391,2.26566 7.043149,-1.76569 7.935947,-4.25556 0.0273,-0.0762 0.0554,-0.98868 0.08134,-2.03618 -0.274688,-1.51451 -0.436183,-3.07365 -0.428208,-4.66972 l 0.197044,-39.40922 c 0.01024,-1.88632 0.208195,-3.72258 0.588806,-5.49189 l -0.599511,-0.56311 c -1.242249,-1.16689 -0.0057,-3.65819 -2.660374,-3.6705 -2.195193,-0.0102 -2.728482,0.105 -4.438484,0.95278 -1.068752,0.52982 -2.936165,1.24901 -4.14944,1.5994 -3.311929,0.95647 -7.269238,3.07786 -10.255833,5.49617 -1.4681,1.18876 -2.744967,2.16037 -2.836943,2.16037 -0.09181,0 -0.130803,-3.19961 -0.08566,-7.11271 l 0.08134,-7.11484 0.918542,-0.10068 c 0.504986,-0.0551 0.902172,-0.26356 1.012725,-0.37683 0.110576,-0.11331 0.532778,-1.71933 0.807193,-3.65484 3.666455,-25.85944 18.872266,-42.04175 43.016693,-45.78083 4.539067,-0.70296 13.000389,-0.70291 16.985282,0 15.243887,2.68887 28.629491,12.88119 35.807621,27.26679 3.1078,6.22832 4.63563,11.50587 5.4448,18.8202 0.26902,2.43173 0.47,3.06582 0.77293,3.33369 0.1191,0.10535 0.19718,0.23026 0.40252,0.25692 1.42581,0.18516 1.49141,0.67678 1.48593,7.40819 -0.002,3.46016 -0.12976,6.48493 -0.28049,6.72302 -0.21607,0.3413 -0.6632,0.0807 -2.1154,-1.23326 -2.69608,-2.43952 -6.56484,-4.62676 -10.21943,-5.77667 -1.72789,-0.54368 -3.87041,-1.33526 -4.75965,-1.75997 -3.13782,-1.49868 -5.61281,-2.20828 -7.525122,-0.42214 l -0.94637,0.88428 0.0022,0.14345 c 0.322253,1.63471 0.494592,3.32525 0.494592,5.05726 v 45.71473 c 0,1.44355 -0.12335,2.85732 -0.348999,4.23508 0.05294,1.49995 0.141271,2.28613 0.28262,2.56074 0.216596,0.42076 1.06071,1.09483 1.8756,1.49876 1.202224,0.59594 -0.41258,0.93045 1.613577,0.92716 2.711162,-0.005 3.587272,-0.6073 5.008002,-1.75354 0.21982,-0.20547 1.48082,-0.71214 2.2353,-1.05129 0.68994,-0.31014 1.54722,-0.4482 2.37234,-0.72796 4.57477,-1.55119 7.60348,-3.46831 11.24501,-7.12127 3.61553,-3.62687 5.55575,-6.67331 7.1641,-11.24716 2.37199,-8.14417 1.13479,-17.16748 1.18619,-25.61817 0.0971,-24.6572 0.0722,-25.14749 -1.7557,-32.63239 -2.72963,-11.17689 -8.18632,-20.82619 -16.27658,-28.78698 -6.56801,-6.46295 -14.42407,-11.2797 -23.0659,-14.14191 -6.638299,-2.19864 -13.188163,-3.30879 -19.713033,-3.32939 z"
         id="path4" />
      <path
         inkscape:connector-curvature="0"
         style="opacity:0.3;fill-opacity:0.99607843;stroke:#000000;stroke-width:9.12099457;stroke-opacity:0.99607843"
         d="m 98.441227,227.23044 c -2.518831,0.0626 -5.035616,0.82277 -5.732394,2.124 -0.266201,0.49676 -0.263549,5.32332 0.01001,19.22359 0.200877,10.20799 0.391153,23.02761 0.422682,28.48852 l 0.05761,9.92925 0.816561,0.60963 c 0.524883,0.39158 1.290285,0.72938 1.868864,0.87594 l 0.08641,0.0165 c 0.144455,0.0366 0.258754,0.0516 0.496166,0.0788 0.71351,0.0817 1.766306,0.1167 2.677192,0.0787 2.665522,-0.11092 4.452712,-0.87864 4.816482,-2.06169 0.007,-0.0226 0.0139,-0.0454 0.0194,-0.0683 9e-4,-0.002 0.001,-0.005 0.002,-0.009 0.004,-0.0197 0.008,-0.0519 0.0112,-0.0958 0.11523,-1.35275 0.22201,-14.06841 0.24161,-29.05231 l 0.037,-28.31041 -0.8054,-0.63314 c -1.1061,-0.86959 -3.06667,-1.24269 -5.025758,-1.19398 z m -61.393197,0.35743 c -2.875576,-0.0366 -5.993293,0.71652 -6.324384,1.86239 -0.304243,1.05316 -0.341374,21.60098 -0.06996,38.89572 0.318873,20.31875 0.159982,19.02041 2.402659,19.64686 0.51948,0.14511 2.094378,0.27584 3.499625,0.29042 2.790107,0.0289 5.008689,-0.58323 5.553094,-1.53142 0.187683,-0.32686 0.320897,-4.56477 0.324515,-10.20732 0.0023,-5.30678 0.154897,-17.88284 0.339202,-27.94651 0.378563,-20.66829 0.529069,-19.29246 -2.238059,-20.43344 -0.922262,-0.38027 -2.179619,-0.56006 -3.486689,-0.5767 z"
         id="path6" />
      <path
         inkscape:connector-curvature="0"
         style="fill:#eb2233;fill-opacity:1;stroke:#eb2233;stroke-width:9.12155914;stroke-miterlimit:4;stroke-dasharray:none;stroke-opacity:1"
         d="m 120.74059,223.8519 -0.0911,6.15155 -0.0976,6.07865 1.63783,1.6825 c 1.84984,1.89992 3.85395,4.59042 4.69008,6.5084 0.30958,0.71013 0.38848,1.18236 0.72074,1.33389 0.003,0.001 0.007,0.002 0.009,0.002 6.1e-4,0 9.1e-4,-1.1e-4 0.001,-6e-4 0.0799,-0.20021 0.10534,-4.92852 0.0564,-10.87808 h 6e-4 l -0.0894,-10.87867 h -3.4185 -3.4191 z m -112.8647892,0.12933 -0.058814,3.59311 -0.027075,7.2938 c -0.047097,5.98769 0.027758,10.81516 0.055857,10.8863 0.2510254,0.63547 0.3936365,-0.6015 0.7019293,-1.33683 0.8046785,-1.91941 2.6967549,-4.64958 4.5137149,-6.51309 l 1.570815,-1.61137 -0.08817,-6.15567 -0.0876,-6.15625 H 11.166117 7.8757667 Z m 89.3614592,3.2492 c -2.518831,0.0627 -5.035615,0.82278 -5.732394,2.124 -0.266201,0.49677 -0.263549,5.32333 0.01001,19.22359 0.200878,10.208 0.391153,23.02762 0.422682,28.48853 l 0.05761,9.92925 0.816561,0.60963 c 0.524884,0.39158 1.290285,0.72938 1.868863,0.87594 l 0.08641,0.0165 c 0.144455,0.0366 0.258755,0.0516 0.496166,0.0788 0.713511,0.0817 1.766307,0.1167 2.677193,0.0787 2.665519,-0.11092 4.452719,-0.87864 4.816479,-2.06169 0.007,-0.0226 0.0139,-0.0454 0.0194,-0.0683 9e-4,-0.002 0.001,-0.005 0.002,-0.009 0.004,-0.0197 0.008,-0.0519 0.0112,-0.0958 0.11523,-1.35275 0.22211,-14.06841 0.24162,-29.05231 l 0.037,-28.31041 -0.80539,-0.63314 c -1.10611,-0.86959 -3.066677,-1.24269 -5.025766,-1.19398 z m -58.98525,0.35744 c -2.875576,-0.0366 -5.993293,0.71651 -6.324395,1.86239 -0.304231,1.05315 -0.341374,21.60098 -0.06996,38.89572 0.318873,20.31875 0.159982,19.02041 2.402659,19.64686 0.519479,0.14511 2.094378,0.27584 3.499625,0.29042 2.790107,0.0289 5.008689,-0.58323 5.553093,-1.53142 0.187684,-0.32686 0.320898,-4.56477 0.324504,-10.20732 0.0023,-5.30678 0.154909,-17.88284 0.339213,-27.94652 0.378564,-20.66829 0.52907,-19.29245 -2.238058,-20.43343 -0.922262,-0.38027 -2.179619,-0.56006 -3.48669,-0.5767 z"
         id="path8" />
      <path
         inkscape:connector-curvature="0"
         style="opacity:0.3;stroke-width:1.23839748"
         d="m 69.05501,172.80416 c -3.180889,0 -6.43105,0.17586 -8.700584,0.52733 -24.14443,3.73909 -39.350298,19.92151 -43.016742,45.78094 -0.274426,1.93551 -0.696616,3.54156 -0.807158,3.65484 -0.110576,0.11331 -0.507341,0.3218 -1.012327,0.37682 l -0.134625,0.0147 H 6.9222545 c -0.021842,0.57535 -0.043571,1.15102 -0.059383,1.80596 h 8.5206915 l 0.134625,-0.0147 c 0.504986,-0.0551 0.901773,-0.26355 1.012327,-0.37682 0.110575,-0.11331 0.532732,-1.71933 0.807158,-3.65484 3.666444,-25.85943 18.872312,-42.04185 43.016742,-45.78094 4.539067,-0.70294 13.000645,-0.7029 16.985539,0 15.243886,2.68888 28.629466,12.88131 35.807606,27.26693 3.1078,6.22831 4.63574,11.50538 5.44492,18.81971 0.26901,2.43172 0.47013,3.06599 0.77305,3.33385 0.11911,0.10534 0.19676,0.23023 0.40211,0.25691 0.23864,0.0309 0.43645,0.0739 0.60493,0.1499 h 8.14856 c -0.011,-0.65915 -0.0276,-1.22667 -0.0435,-1.80596 h -8.10506 c -0.16848,-0.076 -0.36629,-0.11891 -0.60493,-0.1499 -0.20535,-0.0266 -0.283,-0.15155 -0.40211,-0.25691 -0.30292,-0.26786 -0.50404,-0.90212 -0.77305,-3.33385 -0.80918,-7.31433 -2.33712,-12.5914 -5.44492,-18.81971 -7.17814,-14.38561 -20.56372,-24.57805 -35.807606,-27.26693 -1.992449,-0.35144 -5.104064,-0.52732 -8.284955,-0.52733 z"
         id="path10" />
    </g>
  </g>
</svg>
