<?xml version="1.0" encoding="UTF-8" standalone="no"?>
<!-- Created with Inkscape (http://www.inkscape.org/) -->

<svg
   xmlns:osb="http://www.openswatchbook.org/uri/2009/osb"
   xmlns:dc="http://purl.org/dc/elements/1.1/"
   xmlns:cc="http://creativecommons.org/ns#"
   xmlns:rdf="http://www.w3.org/1999/02/22-rdf-syntax-ns#"
   xmlns:svg="http://www.w3.org/2000/svg"
   xmlns="http://www.w3.org/2000/svg"
   xmlns:xlink="http://www.w3.org/1999/xlink"
   xmlns:sodipodi="http://sodipodi.sourceforge.net/DTD/sodipodi-0.dtd"
   xmlns:inkscape="http://www.inkscape.org/namespaces/inkscape"
   width="512"
   height="512"
   viewBox="0 0 135.46666 135.46666"
   version="1.1"
   id="svg4942"
   inkscape:version="0.92.1 r15371"
   sodipodi:docname="audio-speaker.svg"
   enable-background="new"
   inkscape:export-filename="/Users/balasakthi/Desktop/d.png"
   inkscape:export-xdpi="96"
   inkscape:export-ydpi="96">
  <defs
     id="defs4936">
    <linearGradient
       inkscape:collect="always"
       id="linearGradient4719">
      <stop
         style="stop-color:#909299;stop-opacity:1"
         offset="0"
         id="stop4715" />
      <stop
         style="stop-color:#b5b7bf;stop-opacity:1"
         offset="1"
         id="stop4717" />
    </linearGradient>
    <linearGradient
       inkscape:collect="always"
       id="linearGradient4711">
      <stop
         style="stop-color:#9c9da5;stop-opacity:1"
         offset="0"
         id="stop4706" />
      <stop
         style="stop-color:#84848c;stop-opacity:1"
         offset="1"
         id="stop4709" />
    </linearGradient>
    <linearGradient
       inkscape:collect="always"
       id="linearGradient4702">
      <stop
         style="stop-color:#ffffff;stop-opacity:1"
         offset="0"
         id="stop4698" />
      <stop
         style="stop-color:#e5e5e5;stop-opacity:1"
         offset="1"
         id="stop4700" />
    </linearGradient>
    <linearGradient
       id="linearGradient4682"
       inkscape:collect="always">
      <stop
         id="stop4678"
         offset="0"
         style="stop-color:#919699;stop-opacity:1" />
      <stop
         id="stop4680"
         offset="1"
         style="stop-color:#3d4043;stop-opacity:1" />
    </linearGradient>
    <linearGradient
       inkscape:collect="always"
       id="linearGradient4664">
      <stop
         style="stop-color:#36383b;stop-opacity:1"
         offset="0"
         id="stop4660" />
      <stop
         style="stop-color:#17181a;stop-opacity:1"
         offset="1"
         id="stop4662" />
    </linearGradient>
    <inkscape:path-effect
       effect="skeletal"
       id="path-effect4585"
       is_visible="true"
       pattern="M 0,5 C 0,2.24 2.24,0 5,0 7.76,0 10,2.24 10,5 10,7.76 7.76,10 5,10 2.24,10 0,7.76 0,5 Z"
       copytype="single_stretched"
       prop_scale="0.26458332"
       scale_y_rel="false"
       spacing="0"
       normal_offset="0"
       tang_offset="0"
       prop_units="false"
       vertical_pattern="false"
       fuse_tolerance="0" />
    <pattern
       inkscape:collect="always"
       xlink:href="#Packedcircles"
       id="pattern3059"
       patternTransform="matrix(37.795276,0,0,37.795276,23.752083,-526.08906)" />
    <pattern
       inkscape:isstock="true"
       inkscape:stockid="Packed circles"
       id="Packedcircles"
       patternTransform="translate(0,0) scale(10,10)"
       height="1.73205080756"
       width="1"
       patternUnits="userSpaceOnUse"
       inkscape:collect="always">
      <circle
         id="circle2006"
         r="0.5"
         cy="0.5"
         cx="0"
         style="fill:black;stroke:none" />
      <circle
         id="circle2008"
         r="0.5"
         cy="0.5"
         cx="1"
         style="fill:black;stroke:none" />
      <circle
         id="circle2010"
         r="0.5"
         cy="1.36602540378"
         cx="0.5"
         style="fill:black;stroke:none" />
      <circle
         id="circle2012"
         r="0.5"
         cy="-0.366025403784"
         cx="0.5"
         style="fill:black;stroke:none" />
    </pattern>
    <inkscape:path-effect
       effect="skeletal"
       id="path-effect6704"
       is_visible="true"
       pattern="M 0,5 C 0,2.24 2.24,0 5,0 7.76,0 10,2.24 10,5 10,7.76 7.76,10 5,10 2.24,10 0,7.76 0,5 Z"
       copytype="single_stretched"
       prop_scale="0.26458332"
       scale_y_rel="false"
       spacing="0"
       normal_offset="0"
       tang_offset="0"
       prop_units="false"
       vertical_pattern="false"
       fuse_tolerance="0" />
    <inkscape:path-effect
       effect="skeletal"
       id="path-effect6684"
       is_visible="true"
       pattern="m 34.999272,-20.307449 c 0,-2.76 2.24,-5 5,-5 2.76,0 5,2.24 5,5 0,2.76 -2.24,5 -5,5 -2.76,0 -5,-2.24 -5,-5 z"
       copytype="single_stretched"
       prop_scale="0.26458332"
       scale_y_rel="false"
       spacing="0"
       normal_offset="0"
       tang_offset="0"
       prop_units="false"
       vertical_pattern="false"
       fuse_tolerance="0" />
    <linearGradient
       id="linearGradient6211"
       osb:paint="solid">
      <stop
         style="stop-color:#666666;stop-opacity:1;"
         offset="0"
         id="stop6209" />
    </linearGradient>
    <linearGradient
       inkscape:collect="always"
       id="linearGradient4712">
      <stop
         style="stop-color:#d9d9d9;stop-opacity:1"
         offset="0"
         id="stop4708" />
      <stop
         style="stop-color:#9e9e9e;stop-opacity:1"
         offset="1"
         id="stop4710" />
    </linearGradient>
    <linearGradient
       inkscape:collect="always"
       id="linearGradient927">
      <stop
         style="stop-color:#4d4d4d;stop-opacity:1"
         offset="0"
         id="stop923" />
      <stop
         style="stop-color:#1a1a1a;stop-opacity:1"
         offset="1"
         id="stop925" />
    </linearGradient>
    <inkscape:path-effect
       effect="skeletal"
       id="path-effect4536"
       is_visible="true"
       pattern="m -151.34894,32.250175 c 0,-2.76 2.24,-5 5,-5 2.76,0 5,2.24 5,5 0,2.76 -2.24,5 -5,5 -2.76,0 -5,-2.24 -5,-5 z"
       copytype="single_stretched"
       prop_scale="0.26458332"
       scale_y_rel="false"
       spacing="0"
       normal_offset="0"
       tang_offset="0"
       prop_units="false"
       vertical_pattern="false"
       fuse_tolerance="0" />
    <inkscape:path-effect
       effect="spiro"
       id="path-effect4534"
       is_visible="true" />
    <inkscape:path-effect
       effect="skeletal"
       id="path-effect4530"
       is_visible="true"
       pattern="m -140.30158,26.358245 c 0,-2.76 2.24,-5 5,-5 2.76,0 5,2.24 5,5 0,2.76 -2.24,5 -5,5 -2.76,0 -5,-2.24 -5,-5 z"
       copytype="single_stretched"
       prop_scale="0.26458332"
       scale_y_rel="false"
       spacing="0"
       normal_offset="0"
       tang_offset="0"
       prop_units="false"
       vertical_pattern="false"
       fuse_tolerance="0" />
    <inkscape:path-effect
       effect="spiro"
       id="path-effect4528"
       is_visible="true" />
    <linearGradient
       id="linearGradient6987"
       osb:paint="solid">
      <stop
         style="stop-color:#77d2fb;stop-opacity:1;"
         offset="0"
         id="stop6985" />
    </linearGradient>
    <linearGradient
       inkscape:collect="always"
       xlink:href="#linearGradient927"
       id="linearGradient929"
       x1="-23.584837"
       y1="124.83982"
       x2="55.269161"
       y2="226.61882"
       gradientUnits="userSpaceOnUse"
       gradientTransform="translate(20.872486,-5.0645257)" />
    <linearGradient
       inkscape:collect="always"
       xlink:href="#linearGradient4712"
       id="linearGradient6655"
       x1="41.329525"
       y1="193.12444"
       x2="40.415813"
       y2="229.42439"
       gradientUnits="userSpaceOnUse"
       gradientTransform="translate(44.942408,17.793215)" />
    <pattern
       patternUnits="userSpaceOnUse"
       width="92.29597"
       height="218.68324"
       patternTransform="matrix(0.26458333,0,0,0.26458333,-6.2844052,139.1944)"
       id="pattern3056">
      <rect
         rx="46.147984"
         ry="41.019329"
         y="0"
         x="0"
         height="218.68324"
         width="92.295967"
         id="rect3029"
         style="opacity:1;fill:url(#pattern3059);fill-opacity:1;fill-rule:evenodd;stroke:none;stroke-width:4.11493444;stroke-miterlimit:4;stroke-dasharray:none;stroke-dashoffset:0;stroke-opacity:1" />
    </pattern>
    <pattern
       patternUnits="userSpaceOnUse"
       width="5.6692913"
       height="5.6692913"
       patternTransform="matrix(0.26458333,0,0,0.26458333,-24.205982,181.55742)"
       id="pattern3285">
      <circle
         r="2.8346457"
         cy="2.8346457"
         cx="2.8346457"
         id="path3283"
         style="opacity:1;fill:#333333;fill-opacity:1;fill-rule:nonzero;stroke:none;stroke-width:1.52925587;stroke-linecap:round;stroke-linejoin:round;stroke-miterlimit:4;stroke-dasharray:none;stroke-opacity:1" />
    </pattern>
    <filter
       style="color-interpolation-filters:sRGB;"
       inkscape:label="Dots Transparency"
       id="filter12555"
       inkscape:menu="Overlays"
       inkscape:menu-tooltip="Gives a pointillist HSL sensitive transparency">
      <feBlend
         in2="BackgroundImage"
         mode="multiply"
         result="fbSourceGraphic"
         id="feBlend12553" />
      <feColorMatrix
         result="fbSourceGraphicAlpha"
         in="fbSourceGraphic"
         values="0 0 0 -1 0 0 0 0 -1 0 0 0 0 -1 0 0 0 0 1 0"
         id="feColorMatrix12891" />
      <feTurbulence
         id="feTurbulence12893"
         result="result1"
         numOctaves="3"
         baseFrequency="1"
         type="fractalNoise"
         seed="50"
         in="fbSourceGraphic" />
      <feColorMatrix
         id="feColorMatrix12895"
         result="result0"
         in="fbSourceGraphic"
         type="luminanceToAlpha" />
      <feColorMatrix
         id="feColorMatrix12897"
         values="1 0 0 0 0 0 1 0 0 0 0 0 1 0 0 0 0 0 0.7 0 "
         result="result2" />
      <feComposite
         in2="result2"
         id="feComposite12899"
         in="result1"
         operator="over"
         result="result3" />
      <feColorMatrix
         id="feColorMatrix12901"
         values="1 0 0 0 0 0 1 0 0 0 0 0 1 0 0 0 0 0 5 -3.2 "
         result="result91" />
      <feComposite
         in2="result91"
         id="feComposite12903"
         operator="out"
         in="fbSourceGraphic"
         result="result4" />
    </filter>
    <radialGradient
       inkscape:collect="always"
       xlink:href="#linearGradient4664"
       id="radialGradient4672"
       gradientUnits="userSpaceOnUse"
       gradientTransform="matrix(1.3583941,0.29426904,-0.30708204,1.417541,-25.249205,-94.100578)"
       cx="399.85486"
       cy="191.9543"
       fx="399.85486"
       fy="191.9543"
       r="49.761505" />
    <radialGradient
       inkscape:collect="always"
       xlink:href="#linearGradient4682"
       id="radialGradient4684"
       cx="451.88742"
       cy="300.02271"
       fx="451.88742"
       fy="300.02271"
       r="20.151112"
       gradientTransform="matrix(1.7036301,0.27126847,-0.3030282,1.9030889,-226.66066,-394.18892)"
       gradientUnits="userSpaceOnUse" />
    <linearGradient
       inkscape:collect="always"
       xlink:href="#linearGradient4702"
       id="linearGradient4704"
       x1="422.65533"
       y1="-296.75677"
       x2="567.4826"
       y2="-251.70093"
       gradientUnits="userSpaceOnUse" />
    <radialGradient
       inkscape:collect="always"
       xlink:href="#linearGradient4719"
       id="radialGradient4723"
       cx="403.36057"
       cy="327.9978"
       fx="403.36057"
       fy="327.9978"
       r="33.476711"
       gradientTransform="matrix(0.89507291,0.19236633,-0.2574946,1.1981122,126.78111,-139.6651)"
       gradientUnits="userSpaceOnUse" />
    <radialGradient
       inkscape:collect="always"
       xlink:href="#linearGradient4711"
       id="radialGradient4725"
       cx="426.87335"
       cy="312.57993"
       fx="426.87335"
       fy="312.57993"
       r="50.458309"
       gradientTransform="matrix(0.80960715,0.12661339,-0.22118771,1.4143462,150.41247,-175.79907)"
       gradientUnits="userSpaceOnUse" />
    <filter
       inkscape:collect="always"
       style="color-interpolation-filters:sRGB"
       id="filter4755"
       x="-0.024930523"
       width="1.049861"
       y="-0.02313644"
       height="1.0462729">
      <feGaussianBlur
         inkscape:collect="always"
         stdDeviation="1.5749988"
         id="feGaussianBlur4757" />
    </filter>
  </defs>
  <sodipodi:namedview
     id="base"
     pagecolor="#ffffff"
     bordercolor="#666666"
     borderopacity="1.0"
     inkscape:pageopacity="0.0"
     inkscape:pageshadow="2"
     inkscape:zoom="0.90388528"
     inkscape:cx="208.25957"
     inkscape:cy="178.36"
     inkscape:document-units="mm"
     inkscape:current-layer="layer1"
     showgrid="false"
     units="px"
     width="128px"
     inkscape:window-width="1600"
     inkscape:window-height="837"
     inkscape:window-x="-8"
     inkscape:window-y="-8"
     inkscape:window-maximized="1"
     inkscape:measure-start="-293.521,100.415"
     inkscape:measure-end="-294.709,409.978" />
  <metadata
     id="metadata4939">
    <rdf:RDF>
      <cc:Work
         rdf:about="">
        <dc:format>image/svg+xml</dc:format>
        <dc:type
           rdf:resource="http://purl.org/dc/dcmitype/StillImage" />
        <dc:title />
      </cc:Work>
    </rdf:RDF>
  </metadata>
  <g
     inkscape:label="Layer 1"
     inkscape:groupmode="layer"
     id="layer1"
     transform="translate(0,-161.53332)">
    <g
       id="g4785"
       transform="matrix(0.78526846,0,0,0.78526846,-299.26627,3.7012256)">
      <g
         transform="translate(0,2.1166667)"
         style="fill:#808080;filter:url(#filter4755)"
         id="g4749">
        <path
           sodipodi:nodetypes="ccsccc"
           inkscape:connector-curvature="0"
           id="path4737"
           d="m 418.24969,274.07456 -16.68492,11.26964 c 0,0 -19.61886,13.67184 -3.95169,44.49311 17.22651,33.88888 41.85865,25.32009 41.85865,25.32009 l 19.02666,-9.80604 z"
           style="fill:#808080;fill-opacity:1;stroke:none;stroke-width:0.26458332px;stroke-linecap:butt;stroke-linejoin:miter;stroke-opacity:1" />
        <path
           sodipodi:nodetypes="csccc"
           inkscape:connector-curvature="0"
           id="path4739"
           d="m 418.77886,273.54539 c 0,0 -3.5858,1.09769 -5.92754,4.90302 -2.34174,3.80533 -7.67128,14.06821 -1.08514,34.26574 6.30984,17.42357 27.42363,42.67265 47.40774,34.44977 2.04902,-1.90266 -40.39506,-73.61853 -40.39506,-73.61853 z"
           style="fill:#808080;fill-opacity:1;stroke:none;stroke-width:0.26458332px;stroke-linecap:butt;stroke-linejoin:miter;stroke-opacity:1" />
        <path
           sodipodi:nodetypes="csscc"
           inkscape:connector-curvature="0"
           id="path4741"
           d="m 424.93516,222.3626 c -0.24823,-0.49647 -9.37606,18.15039 -10.39148,52.32331 -0.79848,26.8721 4.1971,54.31889 42.00501,72.95991 36.85256,18.16999 58.83629,19.17302 58.83629,19.17302 z"
           style="fill:#808080;fill-opacity:1;stroke:none;stroke-width:0.5;stroke-linecap:butt;stroke-linejoin:miter;stroke-miterlimit:4;stroke-dasharray:none;stroke-opacity:1" />
        <ellipse
           style="opacity:1;fill:#808080;fill-opacity:1;fill-rule:evenodd;stroke:#808080;stroke-width:0.32356641;stroke-miterlimit:4;stroke-dasharray:none;stroke-dashoffset:0;stroke-opacity:1"
           id="ellipse4743"
           cx="491.42758"
           cy="-269.24191"
           rx="91.072411"
           ry="45.536205"
           transform="rotate(59.304041)" />
        <path
           style="opacity:1;fill:#808080;fill-opacity:1;fill-rule:evenodd;stroke:#333333;stroke-width:0.35091901;stroke-miterlimit:4;stroke-dasharray:none;stroke-dashoffset:0;stroke-opacity:1"
           d="m 467.72476,326.73372 a 30.817441,17.836703 59.347936 0 0 0.416,-0.0139 30.817441,17.836703 59.347936 0 0 1.82366,-0.3452 30.817441,17.836703 59.347936 0 0 1.21285,-0.41135 30.817441,17.836703 59.347936 0 0 1.58956,-0.81286 30.817441,17.836703 59.347936 0 0 1.43039,-1.07642 30.817441,17.836703 59.347936 0 0 1.25677,-1.32912 30.817441,17.836703 59.347936 0 0 1.07128,-1.5689 30.817441,17.836703 59.347936 0 0 0.87436,-1.79266 30.817441,17.836703 59.347936 0 0 0.66921,-1.99884 30.817441,17.836703 59.347936 0 0 0.45681,-2.18436 30.817441,17.836703 59.347936 0 0 0.24029,-2.34921 30.817441,17.836703 59.347936 0 0 0.0212,-2.48925 30.817441,17.836703 59.347936 0 0 -0.19791,-2.60553 30.817441,17.836703 59.347936 0 0 -0.4155,-2.69544 30.817441,17.836703 59.347936 0 0 -0.62839,-2.75798 30.817441,17.836703 59.347936 0 0 -0.83561,-2.79362 30.817441,17.836703 59.347936 0 0 -1.03351,-2.80087 30.817441,17.836703 59.347936 0 0 -1.22217,-2.78019 30.817441,17.836703 59.347936 0 0 -0.97202,-1.94045 30.817441,17.836703 59.347936 0 0 -1.51411,-2.68149 30.817441,17.836703 59.347936 0 0 -1.66555,-2.5864 30.817441,17.836703 59.347936 0 0 -1.79936,-2.466 30.817441,17.836703 59.347936 0 0 -1.91616,-2.32131 30.817441,17.836703 59.347936 0 0 -2.01383,-2.15284 30.817441,17.836703 59.347936 0 0 -2.09083,-1.9637 30.817441,17.836703 59.347936 0 0 -2.14716,-1.7539 30.817441,17.836703 59.347936 0 0 -2.18178,-1.52652 30.817441,17.836703 59.347936 0 0 -2.19521,-1.2852 30.817441,17.836703 59.347936 0 0 -2.18643,-1.02991 30.817441,17.836703 59.347936 0 0 -2.15543,-0.76481 30.817441,17.836703 59.347936 0 0 -2.10323,-0.49144 30.817441,17.836703 59.347936 0 0 -2.03036,-0.21446 30.817441,17.836703 59.347936 0 0 -1.93632,0.0661 30.817441,17.836703 59.347936 0 0 -1.82366,0.3452 30.817441,17.836703 59.347936 0 0 -1.21336,0.41186 30.817441,17.836703 59.347936 0 0 -1.58904,0.81235 30.817441,17.836703 59.347936 0 0 -1.43041,1.07642 30.817441,17.836703 59.347936 0 0 -0.98702,1.04387 78.679359,35.817235 60.433513 0 0 11.66181,26.43042 78.679359,35.817235 60.433513 0 0 17.56017,25.79791 z"
           id="path4745"
           inkscape:connector-curvature="0" />
        <path
           style="opacity:1;fill:#808080;fill-opacity:1;fill-rule:evenodd;stroke:none;stroke-width:0.35091901;stroke-miterlimit:4;stroke-dasharray:none;stroke-dashoffset:0;stroke-opacity:1"
           d="m 451.52058,214.48476 a 78.679359,35.817235 60.433513 0 0 -7.14633,1.78076 78.679359,35.817235 60.433513 0 0 -5.87147,58.23987 30.817441,17.836703 59.347936 0 1 0.98702,-1.04387 30.817441,17.836703 59.347936 0 1 1.43041,-1.07642 30.817441,17.836703 59.347936 0 1 1.58904,-0.81235 30.817441,17.836703 59.347936 0 1 1.21336,-0.41186 30.817441,17.836703 59.347936 0 1 1.82366,-0.3452 30.817441,17.836703 59.347936 0 1 1.93632,-0.0661 30.817441,17.836703 59.347936 0 1 2.03036,0.21446 30.817441,17.836703 59.347936 0 1 2.10323,0.49144 30.817441,17.836703 59.347936 0 1 2.15543,0.76481 30.817441,17.836703 59.347936 0 1 2.18643,1.02991 30.817441,17.836703 59.347936 0 1 2.19521,1.2852 30.817441,17.836703 59.347936 0 1 2.18178,1.52652 30.817441,17.836703 59.347936 0 1 2.14716,1.7539 30.817441,17.836703 59.347936 0 1 2.09083,1.9637 30.817441,17.836703 59.347936 0 1 2.01383,2.15284 30.817441,17.836703 59.347936 0 1 1.91616,2.32131 30.817441,17.836703 59.347936 0 1 1.79936,2.466 30.817441,17.836703 59.347936 0 1 1.66555,2.5864 30.817441,17.836703 59.347936 0 1 1.51411,2.68149 30.817441,17.836703 59.347936 0 1 0.97202,1.94045 30.817441,17.836703 59.347936 0 1 1.22217,2.78019 30.817441,17.836703 59.347936 0 1 1.03351,2.80087 30.817441,17.836703 59.347936 0 1 0.83561,2.79362 30.817441,17.836703 59.347936 0 1 0.62839,2.75798 30.817441,17.836703 59.347936 0 1 0.4155,2.69544 30.817441,17.836703 59.347936 0 1 0.19791,2.60553 30.817441,17.836703 59.347936 0 1 -0.0212,2.48925 30.817441,17.836703 59.347936 0 1 -0.24029,2.34921 30.817441,17.836703 59.347936 0 1 -0.45681,2.18436 30.817441,17.836703 59.347936 0 1 -0.66921,1.99884 30.817441,17.836703 59.347936 0 1 -0.87436,1.79266 30.817441,17.836703 59.347936 0 1 -1.07128,1.5689 30.817441,17.836703 59.347936 0 1 -1.25677,1.32912 30.817441,17.836703 59.347936 0 1 -1.43039,1.07642 30.817441,17.836703 59.347936 0 1 -1.58956,0.81286 30.817441,17.836703 59.347936 0 1 -1.21285,0.41135 30.817441,17.836703 59.347936 0 1 -1.82366,0.3452 30.817441,17.836703 59.347936 0 1 -0.416,0.0139 78.679359,35.817235 60.433513 0 0 52.5632,27.31513 78.679359,35.817235 60.433513 0 0 -5.63222,-84.55039 l -0.17155,-0.3111 a 78.679359,35.817235 60.433513 0 0 -62.96361,-54.7026 z"
           id="path4747"
           inkscape:connector-curvature="0" />
      </g>
      <path
         sodipodi:nodetypes="ccsccc"
         inkscape:connector-curvature="0"
         id="path4639"
         d="m 418.24969,274.07456 -16.68492,11.26964 c 0,0 -19.61886,13.67184 -3.95169,44.49311 17.22651,33.88888 41.85865,25.32009 41.85865,25.32009 l 19.02666,-9.80604 z"
         style="fill:url(#radialGradient4723);fill-opacity:1;stroke:none;stroke-width:0.26458332px;stroke-linecap:butt;stroke-linejoin:miter;stroke-opacity:1" />
      <path
         sodipodi:nodetypes="csccc"
         inkscape:connector-curvature="0"
         id="path4619"
         d="m 418.77886,273.54539 c 0,0 -3.5858,1.09769 -5.92754,4.90302 -2.34174,3.80533 -7.67128,14.06821 -1.08514,34.26574 6.30984,17.42357 27.42363,42.67265 47.40774,34.44977 2.04902,-1.90266 -40.39506,-73.61853 -40.39506,-73.61853 z"
         style="fill:#1f1f1f;fill-opacity:1;stroke:none;stroke-width:0.26458332px;stroke-linecap:butt;stroke-linejoin:miter;stroke-opacity:1" />
      <path
         sodipodi:nodetypes="csscc"
         inkscape:connector-curvature="0"
         id="path4593"
         d="m 424.93516,222.3626 c -0.24823,-0.49647 -9.37606,18.15039 -10.39148,52.32331 -0.79848,26.8721 4.1971,54.31889 42.00501,72.95991 36.85256,18.16999 58.83629,19.17302 58.83629,19.17302 z"
         style="fill:url(#radialGradient4725);fill-opacity:1;stroke:none;stroke-width:0.5;stroke-linecap:butt;stroke-linejoin:miter;stroke-miterlimit:4;stroke-dasharray:none;stroke-opacity:1" />
      <ellipse
         transform="rotate(59.304041)"
         ry="45.536205"
         rx="91.072411"
         cy="-267.06644"
         cx="491.98221"
         id="ellipse4769"
         style="opacity:1;fill:#4d4d4d;fill-opacity:1;fill-rule:evenodd;stroke:none;stroke-width:0.32356641;stroke-miterlimit:4;stroke-dasharray:none;stroke-dashoffset:0;stroke-opacity:1" />
      <ellipse
         style="opacity:1;fill:url(#linearGradient4704);fill-opacity:1;fill-rule:evenodd;stroke:none;stroke-width:0.32356641;stroke-miterlimit:4;stroke-dasharray:none;stroke-dashoffset:0;stroke-opacity:1"
         id="ellipse4609"
         cx="491.42758"
         cy="-269.24191"
         rx="91.072411"
         ry="45.536205"
         transform="rotate(59.304041)" />
      <path
         style="opacity:1;fill:url(#radialGradient4684);fill-opacity:1;fill-rule:evenodd;stroke:#333333;stroke-width:0.35091901;stroke-miterlimit:4;stroke-dasharray:none;stroke-dashoffset:0;stroke-opacity:1"
         d="m 467.72476,326.73372 a 30.817441,17.836703 59.347936 0 0 0.416,-0.0139 30.817441,17.836703 59.347936 0 0 1.82366,-0.3452 30.817441,17.836703 59.347936 0 0 1.21285,-0.41135 30.817441,17.836703 59.347936 0 0 1.58956,-0.81286 30.817441,17.836703 59.347936 0 0 1.43039,-1.07642 30.817441,17.836703 59.347936 0 0 1.25677,-1.32912 30.817441,17.836703 59.347936 0 0 1.07128,-1.5689 30.817441,17.836703 59.347936 0 0 0.87436,-1.79266 30.817441,17.836703 59.347936 0 0 0.66921,-1.99884 30.817441,17.836703 59.347936 0 0 0.45681,-2.18436 30.817441,17.836703 59.347936 0 0 0.24029,-2.34921 30.817441,17.836703 59.347936 0 0 0.0212,-2.48925 30.817441,17.836703 59.347936 0 0 -0.19791,-2.60553 30.817441,17.836703 59.347936 0 0 -0.4155,-2.69544 30.817441,17.836703 59.347936 0 0 -0.62839,-2.75798 30.817441,17.836703 59.347936 0 0 -0.83561,-2.79362 30.817441,17.836703 59.347936 0 0 -1.03351,-2.80087 30.817441,17.836703 59.347936 0 0 -1.22217,-2.78019 30.817441,17.836703 59.347936 0 0 -0.97202,-1.94045 30.817441,17.836703 59.347936 0 0 -1.51411,-2.68149 30.817441,17.836703 59.347936 0 0 -1.66555,-2.5864 30.817441,17.836703 59.347936 0 0 -1.79936,-2.466 30.817441,17.836703 59.347936 0 0 -1.91616,-2.32131 30.817441,17.836703 59.347936 0 0 -2.01383,-2.15284 30.817441,17.836703 59.347936 0 0 -2.09083,-1.9637 30.817441,17.836703 59.347936 0 0 -2.14716,-1.7539 30.817441,17.836703 59.347936 0 0 -2.18178,-1.52652 30.817441,17.836703 59.347936 0 0 -2.19521,-1.2852 30.817441,17.836703 59.347936 0 0 -2.18643,-1.02991 30.817441,17.836703 59.347936 0 0 -2.15543,-0.76481 30.817441,17.836703 59.347936 0 0 -2.10323,-0.49144 30.817441,17.836703 59.347936 0 0 -2.03036,-0.21446 30.817441,17.836703 59.347936 0 0 -1.93632,0.0661 30.817441,17.836703 59.347936 0 0 -1.82366,0.3452 30.817441,17.836703 59.347936 0 0 -1.21336,0.41186 30.817441,17.836703 59.347936 0 0 -1.58904,0.81235 30.817441,17.836703 59.347936 0 0 -1.43041,1.07642 30.817441,17.836703 59.347936 0 0 -0.98702,1.04387 78.679359,35.817235 60.433513 0 0 11.66181,26.43042 78.679359,35.817235 60.433513 0 0 17.56017,25.79791 z"
         id="path4611"
         inkscape:connector-curvature="0" />
      <path
         style="opacity:1;fill:url(#radialGradient4672);fill-opacity:1;fill-rule:evenodd;stroke:none;stroke-width:0.35091901;stroke-miterlimit:4;stroke-dasharray:none;stroke-dashoffset:0;stroke-opacity:1"
         d="m 451.52058,214.48476 a 78.679359,35.817235 60.433513 0 0 -7.14633,1.78076 78.679359,35.817235 60.433513 0 0 -5.87147,58.23987 30.817441,17.836703 59.347936 0 1 0.98702,-1.04387 30.817441,17.836703 59.347936 0 1 1.43041,-1.07642 30.817441,17.836703 59.347936 0 1 1.58904,-0.81235 30.817441,17.836703 59.347936 0 1 1.21336,-0.41186 30.817441,17.836703 59.347936 0 1 1.82366,-0.3452 30.817441,17.836703 59.347936 0 1 1.93632,-0.0661 30.817441,17.836703 59.347936 0 1 2.03036,0.21446 30.817441,17.836703 59.347936 0 1 2.10323,0.49144 30.817441,17.836703 59.347936 0 1 2.15543,0.76481 30.817441,17.836703 59.347936 0 1 2.18643,1.02991 30.817441,17.836703 59.347936 0 1 2.19521,1.2852 30.817441,17.836703 59.347936 0 1 2.18178,1.52652 30.817441,17.836703 59.347936 0 1 2.14716,1.7539 30.817441,17.836703 59.347936 0 1 2.09083,1.9637 30.817441,17.836703 59.347936 0 1 2.01383,2.15284 30.817441,17.836703 59.347936 0 1 1.91616,2.32131 30.817441,17.836703 59.347936 0 1 1.79936,2.466 30.817441,17.836703 59.347936 0 1 1.66555,2.5864 30.817441,17.836703 59.347936 0 1 1.51411,2.68149 30.817441,17.836703 59.347936 0 1 0.97202,1.94045 30.817441,17.836703 59.347936 0 1 1.22217,2.78019 30.817441,17.836703 59.347936 0 1 1.03351,2.80087 30.817441,17.836703 59.347936 0 1 0.83561,2.79362 30.817441,17.836703 59.347936 0 1 0.62839,2.75798 30.817441,17.836703 59.347936 0 1 0.4155,2.69544 30.817441,17.836703 59.347936 0 1 0.19791,2.60553 30.817441,17.836703 59.347936 0 1 -0.0212,2.48925 30.817441,17.836703 59.347936 0 1 -0.24029,2.34921 30.817441,17.836703 59.347936 0 1 -0.45681,2.18436 30.817441,17.836703 59.347936 0 1 -0.66921,1.99884 30.817441,17.836703 59.347936 0 1 -0.87436,1.79266 30.817441,17.836703 59.347936 0 1 -1.07128,1.5689 30.817441,17.836703 59.347936 0 1 -1.25677,1.32912 30.817441,17.836703 59.347936 0 1 -1.43039,1.07642 30.817441,17.836703 59.347936 0 1 -1.58956,0.81286 30.817441,17.836703 59.347936 0 1 -1.21285,0.41135 30.817441,17.836703 59.347936 0 1 -1.82366,0.3452 30.817441,17.836703 59.347936 0 1 -0.416,0.0139 78.679359,35.817235 60.433513 0 0 52.5632,27.31513 78.679359,35.817235 60.433513 0 0 -5.63222,-84.55039 l -0.17155,-0.3111 a 78.679359,35.817235 60.433513 0 0 -62.96361,-54.7026 z"
         id="path4613"
         inkscape:connector-curvature="0" />
    </g>
  </g>
</svg>
