<?xml version="1.0" encoding="UTF-8" standalone="no"?>
<!-- Created with Inkscape (http://www.inkscape.org/) -->

<svg
   xmlns:osb="http://www.openswatchbook.org/uri/2009/osb"
   xmlns:dc="http://purl.org/dc/elements/1.1/"
   xmlns:cc="http://creativecommons.org/ns#"
   xmlns:rdf="http://www.w3.org/1999/02/22-rdf-syntax-ns#"
   xmlns:svg="http://www.w3.org/2000/svg"
   xmlns="http://www.w3.org/2000/svg"
   xmlns:xlink="http://www.w3.org/1999/xlink"
   xmlns:sodipodi="http://sodipodi.sourceforge.net/DTD/sodipodi-0.dtd"
   xmlns:inkscape="http://www.inkscape.org/namespaces/inkscape"
   width="512"
   height="512"
   viewBox="0 0 135.46666 135.46666"
   version="1.1"
   id="svg4942"
   inkscape:version="0.92.2 5c3e80d, 2017-08-06"
   sodipodi:docname="input-mouse.svg">
  <defs
     id="defs4936">
    <linearGradient
       id="linearGradient1205"
       inkscape:collect="always">
      <stop
         id="stop1201"
         offset="0"
         style="stop-color:#eff0f2;stop-opacity:1" />
      <stop
         id="stop1203"
         offset="1"
         style="stop-color:#c7c9cc;stop-opacity:1" />
    </linearGradient>
    <linearGradient
       inkscape:collect="always"
       id="linearGradient927">
      <stop
         style="stop-color:#4d4d4d;stop-opacity:1"
         offset="0"
         id="stop923" />
      <stop
         style="stop-color:#1a1a1a;stop-opacity:1"
         offset="1"
         id="stop925" />
    </linearGradient>
    <inkscape:path-effect
       effect="skeletal"
       id="path-effect4536"
       is_visible="true"
       pattern="m -151.34894,32.250175 c 0,-2.76 2.24,-5 5,-5 2.76,0 5,2.24 5,5 0,2.76 -2.24,5 -5,5 -2.76,0 -5,-2.24 -5,-5 z"
       copytype="single_stretched"
       prop_scale="0.26458332"
       scale_y_rel="false"
       spacing="0"
       normal_offset="0"
       tang_offset="0"
       prop_units="false"
       vertical_pattern="false"
       fuse_tolerance="0" />
    <inkscape:path-effect
       effect="spiro"
       id="path-effect4534"
       is_visible="true" />
    <inkscape:path-effect
       effect="skeletal"
       id="path-effect4530"
       is_visible="true"
       pattern="m -140.30158,26.358245 c 0,-2.76 2.24,-5 5,-5 2.76,0 5,2.24 5,5 0,2.76 -2.24,5 -5,5 -2.76,0 -5,-2.24 -5,-5 z"
       copytype="single_stretched"
       prop_scale="0.26458332"
       scale_y_rel="false"
       spacing="0"
       normal_offset="0"
       tang_offset="0"
       prop_units="false"
       vertical_pattern="false"
       fuse_tolerance="0" />
    <inkscape:path-effect
       effect="spiro"
       id="path-effect4528"
       is_visible="true" />
    <linearGradient
       id="linearGradient6987"
       osb:paint="solid">
      <stop
         style="stop-color:#77d2fb;stop-opacity:1;"
         offset="0"
         id="stop6985" />
    </linearGradient>
    <linearGradient
       inkscape:collect="always"
       xlink:href="#linearGradient927"
       id="linearGradient929"
       x1="-23.584837"
       y1="124.83982"
       x2="55.269161"
       y2="226.61882"
       gradientUnits="userSpaceOnUse"
       gradientTransform="translate(20.872486,-5.0645257)" />
    <radialGradient
       cx="23.334524"
       cy="41.63604"
       r="22.627417"
       fx="23.334524"
       fy="41.63604"
       id="radialGradient4248"
       xlink:href="#linearGradient23419-5"
       gradientUnits="userSpaceOnUse"
       gradientTransform="matrix(1.5835854,0,0,0.45824687,-175.77305,231.81028)" />
    <linearGradient
       id="linearGradient23419-5">
      <stop
         id="stop23421-7"
         style="stop-color:#000000;stop-opacity:1"
         offset="0" />
      <stop
         id="stop23423-0"
         style="stop-color:#000000;stop-opacity:0"
         offset="1" />
    </linearGradient>
    <linearGradient
       x1="18.601307"
       y1="0.85446119"
       x2="18.601307"
       y2="49.956139"
       id="linearGradient4146"
       xlink:href="#linearGradient3600-8"
       gradientUnits="userSpaceOnUse"
       gradientTransform="matrix(3.8925459,0,0,3.3619892,-182.28643,119.97691)" />
    <linearGradient
       id="linearGradient3600-8">
      <stop
         id="stop3602-2"
         style="stop-color:#f4f4f4;stop-opacity:1"
         offset="0" />
      <stop
         id="stop3604-5"
         style="stop-color:#dbdbdb;stop-opacity:1"
         offset="1" />
    </linearGradient>
    <linearGradient
       x1="-74.784531"
       y1="54.702854"
       x2="-74.784531"
       y2="2.103905"
       id="linearGradient4148"
       xlink:href="#linearGradient3104-5"
       gradientUnits="userSpaceOnUse"
       gradientTransform="matrix(3.1432184,0,0,3.1463208,48.970648,116.23004)" />
    <linearGradient
       id="linearGradient3104-5">
      <stop
         id="stop3106-2"
         style="stop-color:#aaaaaa;stop-opacity:1"
         offset="0" />
      <stop
         id="stop3108-2"
         style="stop-color:#c8c8c8;stop-opacity:1"
         offset="1" />
    </linearGradient>
    <linearGradient
       x1="14"
       y1="2"
       x2="32"
       y2="40"
       id="linearGradient2877"
       xlink:href="#linearGradient3208"
       gradientUnits="userSpaceOnUse"
       gradientTransform="matrix(6.2270244,0,0,2.9470624,-275.67275,124.26873)" />
    <linearGradient
       id="linearGradient3208">
      <stop
         id="stop3210"
         style="stop-color:#ffffff;stop-opacity:1"
         offset="0" />
      <stop
         id="stop3212"
         style="stop-color:#ffffff;stop-opacity:0"
         offset="1" />
    </linearGradient>
    <linearGradient
       x1="-64.288307"
       y1="2.9296203"
       x2="-64.288307"
       y2="53.716824"
       id="linearGradient4208"
       xlink:href="#linearGradient3208"
       gradientUnits="userSpaceOnUse"
       gradientTransform="matrix(2.1062592,0,0,2.1100218,-0.7281373,143.01608)" />
    <linearGradient
       inkscape:collect="always"
       xlink:href="#linearGradient1205"
       id="linearGradient1142"
       x1="-160.90987"
       y1="127.4615"
       x2="-156.93941"
       y2="285.87964"
       gradientUnits="userSpaceOnUse"
       gradientTransform="matrix(0.77987107,0,0,0.77987107,190.12583,67.061213)" />
    <filter
       inkscape:collect="always"
       style="color-interpolation-filters:sRGB"
       id="filter1178"
       x="-0.033442599"
       width="1.0668852"
       y="-0.018715604"
       height="1.0374312">
      <feGaussianBlur
         inkscape:collect="always"
         stdDeviation="1.2560575"
         id="feGaussianBlur1180" />
    </filter>
  </defs>
  <sodipodi:namedview
     id="base"
     pagecolor="#ffffff"
     bordercolor="#666666"
     borderopacity="1.0"
     inkscape:pageopacity="0.0"
     inkscape:pageshadow="2"
     inkscape:zoom="0.79743058"
     inkscape:cx="-202.83871"
     inkscape:cy="258.05848"
     inkscape:document-units="mm"
     inkscape:current-layer="layer1"
     showgrid="false"
     units="px"
     width="128px"
     inkscape:window-width="1600"
     inkscape:window-height="806"
     inkscape:window-x="0"
     inkscape:window-y="0"
     inkscape:window-maximized="1"
     inkscape:measure-start="-1358.47,-26.6019"
     inkscape:measure-end="-1363.38,56.2869"
     showguides="false" />
  <metadata
     id="metadata4939">
    <rdf:RDF>
      <cc:Work
         rdf:about="">
        <dc:format>image/svg+xml</dc:format>
        <dc:type
           rdf:resource="http://purl.org/dc/dcmitype/StillImage" />
        <dc:title />
      </cc:Work>
    </rdf:RDF>
  </metadata>
  <g
     inkscape:label="Layer 1"
     inkscape:groupmode="layer"
     id="layer1"
     transform="translate(0,-161.53332)">
    <g
       id="g855">
      <path
         transform="matrix(0.77987107,0,0,0.77987107,190.12583,67.061213)"
         style="color:#000000;display:inline;overflow:visible;visibility:visible;fill:#808080;fill-opacity:1;fill-rule:nonzero;stroke:none;stroke-width:0.74466276;stroke-linecap:butt;stroke-linejoin:round;stroke-miterlimit:4;stroke-dasharray:none;stroke-dashoffset:0;stroke-opacity:1;marker:none;filter:url(#filter1178);enable-background:accumulate"
         id="path1160"
         inkscape:connector-curvature="0"
         d="m -160.90986,127.4615 c -10.24397,0.11379 -21.25765,1.0474 -28.76278,8.08323 -11.49512,10.77631 -10.04364,18.23034 -11.17269,32.97955 -2.30484,30.10843 -1.41258,71.37187 4.70914,101.01718 1.79566,8.69577 9.99766,14.81492 18.69812,16.48978 6.67763,1.28546 13.58358,2.25919 20.49866,2.49425 6.91511,-0.23506 13.82105,-1.20879 20.49868,-2.49425 8.70046,-1.67486 16.90244,-7.79401 18.69812,-16.48978 6.12173,-29.64531 7.01398,-70.90875 4.70915,-101.01718 -1.12906,-14.74921 0.32242,-22.20324 -11.1727,-32.97955 -7.50513,-7.03583 -18.51881,-7.96946 -28.76278,-8.08323 -1.33887,-0.0149 -2.66716,-0.001 -3.97047,0 -1.3033,-0.001 -2.63157,-0.0149 -3.97045,0 z" />
      <path
         d="m 64.636885,164.40133 c -7.988976,0.0887 -16.578226,0.81683 -22.43126,6.30387 -8.964711,8.40414 -7.832744,14.21732 -8.713257,25.7198 -1.797478,23.4807 -1.101631,55.66086 3.672522,78.78038 1.400383,6.78158 7.796885,11.55373 14.582122,12.8599 5.207691,1.00249 10.593442,1.76188 15.986312,1.94519 5.392895,-0.18331 10.778637,-0.9427 15.986328,-1.94519 6.785237,-1.30617 13.181724,-6.07832 14.582123,-12.8599 4.774155,-23.11952 5.469995,-55.29968 3.672525,-78.78038 -0.88052,-11.50248 0.25145,-17.31566 -8.713261,-25.7198 -5.853034,-5.48704 -14.442284,-6.21515 -22.43126,-6.30387 -1.044146,-0.0116 -2.080041,-7.8e-4 -3.096455,0 -1.016406,-7.8e-4 -2.052285,-0.0116 -3.096439,0 z"
         inkscape:connector-curvature="0"
         id="path4487"
         style="color:#000000;display:inline;overflow:visible;visibility:visible;fill:url(#linearGradient1142);fill-opacity:1;fill-rule:nonzero;stroke:#808080;stroke-width:0.30000001;stroke-linecap:butt;stroke-linejoin:round;stroke-miterlimit:4;stroke-dasharray:none;stroke-dashoffset:0;stroke-opacity:1;marker:none;enable-background:accumulate" />
      <path
         style="fill:#999999;stroke-width:0.03204003"
         d="m 65.104129,269.23235 c -0.07042,-0.0151 -0.106499,-0.028 -0.08004,-0.0324 0.02659,-0.002 -0.0084,-0.0222 -0.07721,-0.0369 -0.266724,-0.0623 -0.673684,-0.3126 -1.008935,-0.61991 -0.328162,-0.30068 -0.993555,-1.16695 -1.365733,-1.77786 -0.639705,-1.05005 -1.133122,-2.38196 -1.3418,-3.62198 -0.139854,-0.83086 -0.148448,-1.82982 -0.02191,-2.54493 0.383229,-2.16457 1.997585,-3.67757 3.927618,-3.681 0.396338,-6.7e-4 0.680632,0.0569 1.234122,0.25135 1.2612,0.44247 1.259804,0.44203 1.473263,0.44156 0.165644,-4.5e-4 0.296826,-0.0315 0.640788,-0.15249 1.567869,-0.55152 1.678844,-0.57899 2.322917,-0.57542 0.871607,0.002 1.70511,0.26919 2.341672,0.74275 0.24431,0.18184 0.568378,0.50185 0.711468,0.70285 l 0.06863,0.0962 -0.279319,0.20871 c -1.058573,0.79057 -1.545572,1.8738 -1.445647,3.2155 0.03283,0.44017 0.107506,0.76504 0.2644,1.14997 0.287975,0.70637 0.976921,1.45692 1.662732,1.81137 0.118798,0.0617 0.216227,0.12891 0.216289,0.1493 4.53e-4,0.10379 -0.266786,0.7585 -0.500841,1.22794 -0.360721,0.72344 -0.84141,1.44334 -1.387211,2.07745 -0.393133,0.45682 -0.904814,0.79105 -1.349918,0.88185 -0.113065,0.0222 -0.18419,0.0502 -0.157892,0.0605 0.02628,0.0101 -0.06028,0.0189 -0.19248,0.0222 -0.140869,7.8e-4 -0.222763,-0.0101 -0.19794,-0.0247 0.02714,-0.0189 -0.02223,-0.0342 -0.13767,-0.0485 -0.196138,-0.0222 -0.550574,-0.1338 -1.074319,-0.33501 -0.522576,-0.20114 -0.923719,-0.27229 -1.409758,-0.2507 -0.428016,0.0189 -0.697688,0.0762 -1.153421,0.24486 -0.571739,0.21142 -0.899223,0.32039 -1.02348,0.34025 -0.07097,0.0152 -0.120989,0.0332 -0.111381,0.0489 0.01014,0.0168 -0.01731,0.028 -0.06013,0.028 -0.04266,0 -0.140696,0.007 -0.218192,0.0152 -0.07736,0.007 -0.198314,0.002 -0.268783,-0.0152 z m 2.696693,-12.64669 c -0.04063,-0.0402 -0.02137,-0.62274 0.02847,-0.86399 0.181125,-0.87693 0.801559,-1.75086 1.597269,-2.24979 0.335758,-0.21058 0.783427,-0.4066 1.098105,-0.48086 0.130091,-0.0306 0.226451,-0.0657 0.214122,-0.0784 -0.01178,-0.0151 0.02223,-0.0222 0.07635,-0.0222 0.05443,0 0.118463,-0.008 0.142561,-0.0168 0.09672,-0.0372 7.79e-4,0.88164 -0.137164,1.31439 -0.331009,1.03727 -1.191901,1.97921 -2.078653,2.27434 -0.321439,0.10717 -0.883906,0.18079 -0.941265,0.12317 z"
         id="path1568"
         inkscape:connector-curvature="0" />
    </g>
  </g>
</svg>
