<?xml version="1.0" encoding="UTF-8" standalone="no"?>
<!-- Created with Inkscape (http://www.inkscape.org/) -->

<svg
   xmlns:osb="http://www.openswatchbook.org/uri/2009/osb"
   xmlns:dc="http://purl.org/dc/elements/1.1/"
   xmlns:cc="http://creativecommons.org/ns#"
   xmlns:rdf="http://www.w3.org/1999/02/22-rdf-syntax-ns#"
   xmlns:svg="http://www.w3.org/2000/svg"
   xmlns="http://www.w3.org/2000/svg"
   xmlns:xlink="http://www.w3.org/1999/xlink"
   xmlns:sodipodi="http://sodipodi.sourceforge.net/DTD/sodipodi-0.dtd"
   xmlns:inkscape="http://www.inkscape.org/namespaces/inkscape"
   sodipodi:docname="computer-laptop.svg"
   inkscape:version="0.92.2 5c3e80d, 2017-08-06"
   id="svg4942"
   version="1.1"
   viewBox="0 0 33.866665 33.866665"
   height="128"
   width="128">
  <defs
     id="defs4936">
    <linearGradient
       inkscape:collect="always"
       id="linearGradient886">
      <stop
         style="stop-color:#d8d9d9;stop-opacity:1"
         offset="0"
         id="stop882" />
      <stop
         style="stop-color:#bebfbf;stop-opacity:1"
         offset="1"
         id="stop884" />
    </linearGradient>
    <linearGradient
       inkscape:collect="always"
       id="linearGradient5537">
      <stop
         style="stop-color:#83d0fd;stop-opacity:1"
         offset="0"
         id="stop5533" />
      <stop
         style="stop-color:#182f73;stop-opacity:1"
         offset="1"
         id="stop5535" />
    </linearGradient>
    <linearGradient
       id="linearGradient6987"
       osb:paint="solid">
      <stop
         style="stop-color:#77d2fb;stop-opacity:1;"
         offset="0"
         id="stop6985" />
    </linearGradient>
    <radialGradient
       inkscape:collect="always"
       xlink:href="#linearGradient886"
       id="radialGradient1204"
       gradientUnits="userSpaceOnUse"
       gradientTransform="matrix(0.16674114,0,0,0.00634279,6.809378,287.49996)"
       cx="60.716599"
       cy="267.65411"
       fx="60.716599"
       fy="267.65411"
       r="99.667969" />
    <clipPath
       clipPathUnits="userSpaceOnUse"
       id="clipPath1005">
      <rect
         ry="0"
         y="217.85944"
         x="40.210377"
         height="18.676561"
         width="30.231226"
         id="rect1007"
         style="fill:url(#linearGradient1009);fill-opacity:1;stroke:none;stroke-width:0.24769537" />
    </clipPath>
    <linearGradient
       inkscape:collect="always"
       xlink:href="#linearGradient5537"
       id="linearGradient1009"
       gradientUnits="userSpaceOnUse"
       gradientTransform="matrix(0.33337648,0,0,0.33337694,32.745296,150.76553)"
       x1="113.0743"
       y1="201.25548"
       x2="12.000545"
       y2="276.12753" />
  </defs>
  <sodipodi:namedview
     inkscape:window-maximized="1"
     inkscape:window-y="0"
     inkscape:window-x="0"
     inkscape:window-height="811"
     inkscape:window-width="1600"
     width="128px"
     units="px"
     showgrid="false"
     inkscape:current-layer="layer1"
     inkscape:document-units="mm"
     inkscape:cy="159.94731"
     inkscape:cx="275.24192"
     inkscape:zoom="0.80092048"
     inkscape:pageshadow="2"
     inkscape:pageopacity="0.0"
     borderopacity="1.0"
     bordercolor="#666666"
     pagecolor="#ffffff"
     id="base" />
  <metadata
     id="metadata4939">
    <rdf:RDF>
      <cc:Work
         rdf:about="">
        <dc:format>image/svg+xml</dc:format>
        <dc:type
           rdf:resource="http://purl.org/dc/dcmitype/StillImage" />
        <dc:title />
      </cc:Work>
    </rdf:RDF>
  </metadata>
  <g
     inkscape:label="Layer 1"
     inkscape:groupmode="layer"
     id="layer1"
     transform="translate(0,-263.13332)">
    <g
       id="g1041"
       transform="matrix(0.95238096,0,0,0.95238096,0.80634922,13.335313)"
       style="stroke-width:1.04999995">
      <path
         id="rect897"
         d="m 4.8559245,270.2535 c -0.6791124,0 -1.2258501,0.54673 -1.2258501,1.22584 v 16.44345 H 30.407326 v -16.44344 c 0,-0.67912 -0.546738,-1.22585 -1.225851,-1.22585 z"
         style="fill:#000000;fill-opacity:1;stroke:none;stroke-width:0.34171224"
         inkscape:connector-curvature="0" />
      <ellipse
         ry="0.21356052"
         rx="0.21356024"
         cy="270.84451"
         cx="17.078239"
         id="path995"
         style="opacity:1;fill:#9a9a9a;fill-opacity:1;stroke:none;stroke-width:0.64113981;stroke-linecap:round;stroke-linejoin:round;stroke-miterlimit:4;stroke-dasharray:none;stroke-opacity:1" />
      <g
         transform="matrix(0.25286918,0,0,0.25286953,-0.19433855,222.54369)"
         id="text1012"
         style="font-style:normal;font-weight:normal;font-size:2.4394331px;line-height:1.25;font-family:sans-serif;letter-spacing:0px;word-spacing:0px;fill:#000000;fill-opacity:1;stroke:none;stroke-width:0.25323397"
         aria-label="MacBook Pro">
        <path
           id="path893"
           style="fill:#ffffff;stroke-width:0.25323397"
           d="m 60.65813,254.60253 h 0.35853 l 0.45382,1.21019 0.456202,-1.21019 h 0.35853 v 1.77836 H 62.05056 v -1.56157 l -0.458585,1.21972 h -0.241799 l -0.458585,-1.21972 v 1.56157 H 60.65813 Z"
           inkscape:connector-curvature="0" />
        <path
           id="path895"
           style="fill:#ffffff;stroke-width:0.25323397"
           d="m 63.360802,255.71028 q -0.265622,0 -0.368059,0.0607 -0.102437,0.0608 -0.102437,0.20726 0,0.11673 0.07623,0.18581 0.07742,0.0679 0.209639,0.0679 0.182243,0 0.291827,-0.12864 0.110775,-0.12984 0.110775,-0.34424 v -0.0488 z m 0.437145,-0.0905 v 0.76113 h -0.219168 v -0.20249 q -0.07504,0.12149 -0.187007,0.17986 -0.111967,0.0572 -0.27396,0.0572 -0.204874,0 -0.32637,-0.11435 -0.120304,-0.11554 -0.120304,-0.3085 0,-0.22512 0.150083,-0.33947 0.151273,-0.11435 0.450247,-0.11435 h 0.307311 v -0.0214 q 0,-0.15127 -0.100055,-0.23346 -0.09886,-0.0834 -0.278724,-0.0834 -0.114349,0 -0.222741,0.0274 -0.108393,0.0274 -0.208448,0.0822 v -0.20249 q 0.120304,-0.0465 0.233461,-0.0691 0.113158,-0.0238 0.220359,-0.0238 0.289445,0 0.43238,0.15009 0.142936,0.15008 0.142936,0.45501 z"
           inkscape:connector-curvature="0" />
        <path
           id="path897"
           style="fill:#ffffff;stroke-width:0.25323397"
           d="m 65.210626,255.09804 v 0.20488 q -0.09291,-0.0512 -0.187007,-0.0762 -0.09291,-0.0262 -0.188198,-0.0262 -0.213213,0 -0.331134,0.13579 -0.117922,0.1346 -0.117922,0.37878 0,0.24418 0.117922,0.37997 0.117921,0.1346 0.331134,0.1346 0.09529,0 0.188198,-0.025 0.0941,-0.0262 0.187007,-0.0774 v 0.20249 q -0.09172,0.0429 -0.19058,0.0643 -0.09767,0.0214 -0.208448,0.0214 -0.301356,0 -0.478834,-0.18939 -0.177478,-0.18939 -0.177478,-0.51099 0,-0.32637 0.178669,-0.51338 0.179861,-0.18701 0.491937,-0.18701 0.101246,0 0.197727,0.0214 0.09648,0.0203 0.187007,0.0619 z"
           inkscape:connector-curvature="0" />
        <path
           id="path899"
           style="fill:#ffffff;stroke-width:0.25323397"
           d="m 65.844307,255.53161 v 0.65155 h 0.385926 q 0.194154,0 0.287062,-0.0798 0.0941,-0.081 0.0941,-0.24657 0,-0.16676 -0.0941,-0.24537 -0.09291,-0.0798 -0.287062,-0.0798 z m 0,-0.73135 v 0.53601 h 0.356148 q 0.176287,0 0.262048,-0.0655 0.08695,-0.0667 0.08695,-0.20249 0,-0.1346 -0.08695,-0.20131 -0.08576,-0.0667 -0.262048,-0.0667 z m -0.240608,-0.19773 h 0.614622 q 0.275151,0 0.424043,0.11435 0.148891,0.11435 0.148891,0.32518 0,0.16319 -0.07623,0.25967 -0.07623,0.0965 -0.223932,0.1203 0.177478,0.0381 0.275151,0.15961 0.09886,0.12031 0.09886,0.30136 0,0.23822 -0.161994,0.36806 -0.161993,0.12983 -0.460967,0.12983 h -0.638445 z"
           inkscape:connector-curvature="0" />
        <path
           id="path901"
           style="fill:#ffffff;stroke-width:0.25323397"
           d="m 67.783466,255.20048 q -0.176287,0 -0.278724,0.13817 -0.102437,0.13698 -0.102437,0.3764 0,0.23942 0.101246,0.37759 0.102437,0.13698 0.279915,0.13698 0.175096,0 0.277533,-0.13817 0.102437,-0.13818 0.102437,-0.3764 0,-0.23704 -0.102437,-0.37521 -0.102437,-0.13936 -0.277533,-0.13936 z m 0,-0.18582 q 0.285871,0 0.449056,0.18582 0.163184,0.18582 0.163184,0.51457 0,0.32756 -0.163184,0.51457 -0.163185,0.18581 -0.449056,0.18581 -0.287062,0 -0.450247,-0.18581 -0.161994,-0.18701 -0.161994,-0.51457 0,-0.32875 0.161994,-0.51457 0.163185,-0.18582 0.450247,-0.18582 z"
           inkscape:connector-curvature="0" />
        <path
           id="path903"
           style="fill:#ffffff;stroke-width:0.25323397"
           d="m 69.27476,255.20048 q -0.176287,0 -0.278724,0.13817 -0.102438,0.13698 -0.102438,0.3764 0,0.23942 0.101246,0.37759 0.102438,0.13698 0.279916,0.13698 0.175096,0 0.277533,-0.13817 0.102437,-0.13818 0.102437,-0.3764 0,-0.23704 -0.102437,-0.37521 -0.102437,-0.13936 -0.277533,-0.13936 z m 0,-0.18582 q 0.285871,0 0.449056,0.18582 0.163184,0.18582 0.163184,0.51457 0,0.32756 -0.163184,0.51457 -0.163185,0.18581 -0.449056,0.18581 -0.287062,0 -0.450247,-0.18581 -0.161994,-0.18701 -0.161994,-0.51457 0,-0.32875 0.161994,-0.51457 0.163185,-0.18582 0.450247,-0.18582 z"
           inkscape:connector-curvature="0" />
        <path
           id="path905"
           style="fill:#ffffff;stroke-width:0.25323397"
           d="m 70.240766,254.52749 h 0.220359 v 1.09465 l 0.65393,-0.57532 h 0.279915 l -0.707531,0.62416 0.737309,0.70991 h -0.285871 l -0.677752,-0.65155 v 0.65155 h -0.220359 z"
           inkscape:connector-curvature="0" />
        <path
           id="path907"
           style="fill:#ffffff;stroke-width:0.25323397"
           d="m 72.690919,254.80026 v 0.66822 h 0.302547 q 0.167949,0 0.259666,-0.087 0.09172,-0.087 0.09172,-0.24775 0,-0.15961 -0.09172,-0.24657 -0.09172,-0.087 -0.259666,-0.087 z m -0.240608,-0.19773 h 0.543155 q 0.298973,0 0.451438,0.13579 0.153655,0.1346 0.153655,0.39546 0,0.26324 -0.153655,0.39783 -0.152465,0.1346 -0.451438,0.1346 h -0.302547 v 0.71468 h -0.240608 z"
           inkscape:connector-curvature="0" />
        <path
           id="path909"
           style="fill:#ffffff;stroke-width:0.25323397"
           d="m 74.645563,255.2517 q -0.03692,-0.0214 -0.081,-0.031 -0.04288,-0.0107 -0.09529,-0.0107 -0.185816,0 -0.285871,0.12149 -0.09886,0.12031 -0.09886,0.34662 v 0.70277 h -0.220359 v -1.33407 h 0.220359 v 0.20726 q 0.06909,-0.12149 0.17986,-0.17986 0.110775,-0.0596 0.269195,-0.0596 0.02263,0 0.05003,0.004 0.0274,0.002 0.06075,0.008 z"
           inkscape:connector-curvature="0" />
        <path
           id="path911"
           style="fill:#ffffff;stroke-width:0.25323397"
           d="m 75.342373,255.20048 q -0.176287,0 -0.278724,0.13817 -0.102437,0.13698 -0.102437,0.3764 0,0.23942 0.101246,0.37759 0.102437,0.13698 0.279915,0.13698 0.175096,0 0.277534,-0.13817 0.102437,-0.13818 0.102437,-0.3764 0,-0.23704 -0.102437,-0.37521 -0.102438,-0.13936 -0.277534,-0.13936 z m 0,-0.18582 q 0.285872,0 0.449056,0.18582 0.163185,0.18582 0.163185,0.51457 0,0.32756 -0.163185,0.51457 -0.163184,0.18581 -0.449056,0.18581 -0.287062,0 -0.450246,-0.18581 -0.161994,-0.18701 -0.161994,-0.51457 0,-0.32875 0.161994,-0.51457 0.163184,-0.18582 0.450246,-0.18582 z"
           inkscape:connector-curvature="0" />
      </g>
      <path
         sodipodi:nodetypes="ccccc"
         inkscape:connector-curvature="0"
         id="path1175"
         d="M 3.5798508,287.84129 0.31458337,288.5643 H 33.552083 l -3.167796,-0.7231 z"
         style="fill:#999999;stroke:#4d4d4d;stroke-width:0.105;stroke-linecap:butt;stroke-linejoin:miter;stroke-miterlimit:4;stroke-dasharray:none;stroke-opacity:1" />
      <path
         inkscape:connector-curvature="0"
         id="path1202"
         d="m 0.31458337,288.56546 v 0.63218 a 1.1870538,0.6321715 0 0 0 1.18705443,0.63217 H 32.365027 a 1.1870538,0.6321715 0 0 0 1.187056,-0.63217 v -0.63218 H 32.365027 1.5016378 Z"
         style="opacity:1;fill:url(#radialGradient1204);fill-opacity:1;stroke:#4d4d4d;stroke-width:0.105;stroke-miterlimit:4;stroke-dasharray:none;stroke-opacity:1" />
      <g
         id="g1214"
         transform="matrix(0.19501117,0,0,0.20806882,-2.2269529,233.3132)"
         style="fill:#333333;stroke-width:4.15234184">
        <rect
           ry="1.0208662"
           rx="1.0208662"
           y="267.92075"
           x="167.22757"
           height="0.97225344"
           width="7.8664141"
           id="rect1210"
           style="opacity:1;fill:#333333;fill-opacity:1;stroke:none;stroke-width:2.07617092;stroke-linecap:round;stroke-linejoin:round;stroke-miterlimit:4;stroke-dasharray:none;stroke-opacity:1" />
        <rect
           style="opacity:1;fill:#333333;fill-opacity:1;stroke:none;stroke-width:2.07617092;stroke-linecap:round;stroke-linejoin:round;stroke-miterlimit:4;stroke-dasharray:none;stroke-opacity:1"
           id="rect1212"
           width="7.8664141"
           height="0.97225344"
           x="167.22757"
           y="267.92075"
           rx="1.0208662"
           ry="1.0208662" />
      </g>
      <path
         inkscape:connector-curvature="0"
         id="path1216"
         d="m 13.885203,288.50321 v 0.22774 c 0,0.14615 0.104565,0.26374 0.234408,0.26374 h 5.627445 c 0.129843,0 0.234409,-0.11759 0.234409,-0.26374 v -0.22774 z"
         style="opacity:1;fill:#333333;fill-opacity:1;stroke:none;stroke-width:5.51418161;stroke-miterlimit:4;stroke-dasharray:none;stroke-opacity:0.55026455" />
      <path
         inkscape:connector-curvature="0"
         id="path1248"
         d="M 6.7437415,287.89762 H 27.226027 l 0.824789,0.44675 H 5.8158507 Z"
         style="fill:#333333;stroke:none;stroke-width:0.27781248px;stroke-linecap:butt;stroke-linejoin:miter;stroke-opacity:1" />
      <g
         clip-path="url(#clipPath1005)"
         transform="matrix(0.80321525,0,0,0.80321525,-27.41998,96.599474)"
         id="g1110"
         style="stroke-width:1.30724609">
        <rect
           style="opacity:1;fill:#346fb1;fill-opacity:1;fill-rule:nonzero;stroke:none;stroke-width:0.26144922;stroke-linecap:round;stroke-linejoin:round;stroke-miterlimit:4;stroke-dasharray:none;stroke-dashoffset:0;stroke-opacity:1;paint-order:markers fill stroke"
           id="rect844"
           width="30.230892"
           height="23.260651"
           x="40.210491"
           y="215.57051"
           ry="0"
           rx="0" />
        <path
           inkscape:connector-curvature="0"
           style="opacity:0.21000001;fill:#aaeeff;fill-opacity:1;fill-rule:nonzero;stroke:none;stroke-width:1.30724561;stroke-linecap:round;stroke-linejoin:round;stroke-miterlimit:4;stroke-dasharray:none;stroke-dashoffset:0;stroke-opacity:1;paint-order:markers fill stroke"
           d="m 55.019504,215.58329 c -0.821927,0.61113 -1.608335,1.26049 -2.34112,1.94794 -4.023539,3.77454 -6.437164,8.67433 -8.197869,13.27485 -1.112335,2.9064 -1.957167,5.6771 -2.219096,8.02532 h 11.663298 c 0.267614,-0.33876 0.566718,-0.6661 0.919129,-0.98695 1.305756,-1.1888 3.3298,-2.29883 5.857236,-3.3809 2.527454,-1.08205 5.557678,-2.13585 8.021223,-3.27562 0.601915,-0.27847 1.169177,-0.56259 1.703441,-0.87042 v -13.5539 c -0.08767,-0.61749 -0.578774,-1.10123 -1.202051,-1.18032 z"
           id="rect939" />
        <path
           style="opacity:0.21000001;fill:#aaeeff;fill-opacity:1;fill-rule:nonzero;stroke:none;stroke-width:1.30724561;stroke-linecap:round;stroke-linejoin:round;stroke-miterlimit:4;stroke-dasharray:none;stroke-dashoffset:0;stroke-opacity:1;paint-order:markers fill stroke"
           d="m 40.971119,215.72663 c 0.01648,0.0332 3.288636,6.64171 3.460395,8.6902 0.220632,2.63142 0.120203,4.0627 -0.313935,6.17925 -0.434145,2.11656 -1.38387,5.08486 -1.721532,6.43917 -0.337673,1.35428 -0.07627,0.89914 0.438265,-0.19614 0.514554,-1.0953 1.711755,-3.0858 2.724304,-4.52776 1.119019,-1.5936 2.81215,-2.79562 3.686731,-4.53402 0.694988,-1.38141 0.869927,-2.36158 1.143242,-4.49269 0.273306,-2.13109 0.273306,-5.12111 -0.474296,-6.81568 -0.155744,-0.35305 -0.344452,-0.64909 -0.560314,-0.89842 0,0 -6.988383,0.0249 -7.016472,0 0,0 -0.632411,-0.0257 -0.94247,0.0252 -0.145965,0.0241 -0.423918,0.13085 -0.423918,0.13085 z"
           id="rect901"
           inkscape:connector-curvature="0"
           sodipodi:nodetypes="cssssaassccacc" />
        <path
           inkscape:connector-curvature="0"
           style="opacity:0.21000001;fill:#aaeeff;fill-opacity:1;fill-rule:nonzero;stroke:none;stroke-width:1.30724561;stroke-linecap:round;stroke-linejoin:round;stroke-miterlimit:4;stroke-dasharray:none;stroke-dashoffset:0;stroke-opacity:1;paint-order:markers fill stroke"
           d="m 40.971119,215.72663 c 0.487693,0.90079 1.128074,2.05909 1.710925,3.33559 0.873726,1.91357 1.364522,3.71916 1.617415,5.40643 0.252892,1.68726 0.267765,3.25606 0.05209,4.78054 -0.215683,1.52448 -0.661873,3.00445 -1.033773,4.29953 -0.371903,1.29507 -0.669337,2.40492 -0.832974,3.24858 -0.163647,0.84366 -0.193382,1.42082 -0.126436,1.9019 0.0067,0.0452 0.01485,0.0886 0.0237,0.132 H 53.34159 c 0.09493,-0.83438 -0.323676,-2.16256 -0.674678,-3.35116 -0.423936,-1.43561 -0.751316,-2.67883 -1.130626,-3.95901 -0.379318,-1.2802 -0.810701,-2.59753 -1.368512,-3.9443 -0.55781,-1.3468 -1.241961,-2.72337 -1.963409,-4.02577 -0.721437,-1.3024 -1.480255,-2.53072 -2.253766,-3.54454 -0.773502,-1.01379 -1.561762,-1.81307 -2.216273,-2.45689 -0.654519,-0.64382 -1.175252,-1.13224 -1.892796,-1.84697 -0.04285,-0.0427 -0.08864,-0.088 -0.132683,-0.13202 0,0 -0.28299,0.0125 -0.420375,0.0434 -0.109541,0.0247 -0.317353,0.11278 -0.317353,0.11278 z"
           id="rect853"
           sodipodi:nodetypes="ccsscccccccscccccac" />
        <path
           inkscape:connector-curvature="0"
           style="opacity:0.21000001;fill:#aaeeff;fill-opacity:1;fill-rule:nonzero;stroke:none;stroke-width:1.30724561;stroke-linecap:round;stroke-linejoin:round;stroke-miterlimit:4;stroke-dasharray:none;stroke-dashoffset:0;stroke-opacity:1;paint-order:markers fill stroke"
           d="m 67.015456,215.57054 c -0.565579,0.43794 -1.350144,1.0784 -2.120247,1.72946 -1.423861,1.20376 -2.76994,2.41755 -3.884941,3.48506 -1.115001,1.0675 -1.998542,1.98825 -2.803255,2.95636 -0.804723,0.96811 -1.530483,1.98313 -2.164619,2.83845 -0.634135,0.85531 -1.185517,1.56221 -1.906126,2.71615 -0.7206,1.15396 -1.614568,2.7602 -2.521638,4.70947 -0.813805,1.74887 -1.635839,3.77002 -1.85509,4.82571 h 1.34227 c 0.513934,-0.5892 0.905908,-1.30724 1.455577,-2.23472 0.597,-1.00735 1.388887,-2.2708 1.991306,-3.42889 0.602428,-1.15808 1.019023,-2.21649 1.729284,-3.51883 0.710259,-1.30234 1.714524,-2.84918 3.186726,-4.82406 1.472211,-1.97489 3.412702,-4.37827 5.133472,-6.30215 1.149145,-1.28478 2.188945,-2.34481 2.760551,-2.95201 z"
           id="rect861" />
        <path
           inkscape:connector-curvature="0"
           style="opacity:0.21000001;fill:#aaeeff;fill-opacity:1;fill-rule:nonzero;stroke:none;stroke-width:1.30724561;stroke-linecap:round;stroke-linejoin:round;stroke-miterlimit:4;stroke-dasharray:none;stroke-dashoffset:0;stroke-opacity:1;paint-order:markers fill stroke"
           d="m 70.441316,216.75495 c -0.407693,0.12792 -0.826918,0.28479 -1.233954,0.44807 -1.582946,0.63496 -3.085597,1.38982 -4.305278,2.07058 -1.219691,0.68077 -2.157029,1.28769 -3.361914,2.22748 -1.204875,0.9398 -2.684988,2.21915 -3.960552,3.58497 -1.275553,1.36578 -2.361504,2.83103 -3.328368,4.34801 -0.966866,1.51698 -1.814977,3.08601 -2.454567,4.35133 -0.639592,1.26534 -1.071031,2.22765 -1.420587,3.12299 -0.298109,0.76359 -0.535005,1.47637 -0.612596,1.92282 h 3.712886 c 0.424747,-0.28193 0.842,-0.68025 1.459119,-1.20512 0.922305,-0.78444 2.290617,-1.8498 3.391488,-2.7601 1.100861,-0.9103 1.933825,-1.6652 3.309831,-2.82705 1.376005,-1.16185 3.287569,-2.72451 5.154923,-4.34056 1.303442,-1.12803 2.577425,-2.27651 3.649569,-3.56153 z"
           id="rect868" />
        <path
           inkscape:connector-curvature="0"
           style="opacity:0.21000001;fill:#aaeeff;fill-opacity:1;fill-rule:nonzero;stroke:none;stroke-width:1.30724561;stroke-linecap:round;stroke-linejoin:round;stroke-miterlimit:4;stroke-dasharray:none;stroke-dashoffset:0;stroke-opacity:1;paint-order:markers fill stroke"
           d="m 70.174313,233.47808 c -0.427831,0.006 -0.918625,0.11905 -1.478578,0.27954 -0.63995,0.18344 -1.398862,0.43517 -2.239271,0.82735 -0.840409,0.39218 -1.76281,0.92488 -2.62552,1.55386 -0.86273,0.62896 -1.666201,1.35453 -2.2314,2.01307 -0.204132,0.23782 -0.376418,0.46668 -0.49499,0.6795 H 69.0441 c 0.774138,0 1.397391,-0.62011 1.397391,-1.39034 v -3.94976 c -0.02914,-0.002 -0.05787,-0.008 -0.08759,-0.01 -0.05855,-0.004 -0.118474,-0.005 -0.179593,-0.004 z"
           id="rect949" />
      </g>
    </g>
  </g>
</svg>
