<?xml version="1.0" encoding="UTF-8" standalone="no"?>
<!-- Created with Inkscape (http://www.inkscape.org/) -->

<svg
   xmlns:osb="http://www.openswatchbook.org/uri/2009/osb"
   xmlns:dc="http://purl.org/dc/elements/1.1/"
   xmlns:cc="http://creativecommons.org/ns#"
   xmlns:rdf="http://www.w3.org/1999/02/22-rdf-syntax-ns#"
   xmlns:svg="http://www.w3.org/2000/svg"
   xmlns="http://www.w3.org/2000/svg"
   xmlns:xlink="http://www.w3.org/1999/xlink"
   xmlns:sodipodi="http://sodipodi.sourceforge.net/DTD/sodipodi-0.dtd"
   xmlns:inkscape="http://www.inkscape.org/namespaces/inkscape"
   sodipodi:docname="computer-laptop.svg"
   inkscape:version="0.92.2 5c3e80d, 2017-08-06"
   id="svg4942"
   version="1.1"
   viewBox="0 0 33.866665 33.866665"
   height="128"
   width="128">
  <defs
     id="defs4936">
    <linearGradient
       inkscape:collect="always"
       id="linearGradient886">
      <stop
         style="stop-color:#d8d9d9;stop-opacity:1"
         offset="0"
         id="stop882" />
      <stop
         style="stop-color:#bebfbf;stop-opacity:1"
         offset="1"
         id="stop884" />
    </linearGradient>
    <linearGradient
       inkscape:collect="always"
       id="linearGradient5537">
      <stop
         style="stop-color:#83d0fd;stop-opacity:1"
         offset="0"
         id="stop5533" />
      <stop
         style="stop-color:#182f73;stop-opacity:1"
         offset="1"
         id="stop5535" />
    </linearGradient>
    <linearGradient
       id="linearGradient6987"
       osb:paint="solid">
      <stop
         style="stop-color:#77d2fb;stop-opacity:1;"
         offset="0"
         id="stop6985" />
    </linearGradient>
    <linearGradient
       inkscape:collect="always"
       xlink:href="#linearGradient5537"
       id="linearGradient5539"
       x1="113.0743"
       y1="201.25548"
       x2="12.000545"
       y2="276.12753"
       gradientUnits="userSpaceOnUse"
       gradientTransform="matrix(0.2685787,0,0,0.2685787,0.57523333,193.74017)" />
    <radialGradient
       inkscape:collect="always"
       xlink:href="#linearGradient886"
       id="radialGradient1204"
       gradientUnits="userSpaceOnUse"
       gradientTransform="matrix(0.16724281,0,0,0.00636186,8.5269251,263.75342)"
       cx="60.716599"
       cy="267.65411"
       fx="60.716599"
       fy="267.65411"
       r="99.667969" />
  </defs>
  <sodipodi:namedview
     inkscape:window-maximized="1"
     inkscape:window-y="0"
     inkscape:window-x="0"
     inkscape:window-height="814"
     inkscape:window-width="1600"
     width="128px"
     units="px"
     showgrid="false"
     inkscape:current-layer="layer1"
     inkscape:document-units="mm"
     inkscape:cy="58.569231"
     inkscape:cx="82.995997"
     inkscape:zoom="3.7535817"
     inkscape:pageshadow="2"
     inkscape:pageopacity="0.0"
     borderopacity="1.0"
     bordercolor="#666666"
     pagecolor="#ffffff"
     id="base" />
  <metadata
     id="metadata4939">
    <rdf:RDF>
      <cc:Work
         rdf:about="">
        <dc:format>image/svg+xml</dc:format>
        <dc:type
           rdf:resource="http://purl.org/dc/dcmitype/StillImage" />
        <dc:title></dc:title>
      </cc:Work>
    </rdf:RDF>
  </metadata>
  <g
     inkscape:label="Layer 1"
     inkscape:groupmode="layer"
     id="layer1"
     transform="translate(0,-263.13332)">
    <g
       id="g977"
       transform="matrix(0.99700037,0,0,0.99700173,-1.6919695,24.537348)"
       style="stroke-width:1.00300801">
      <path
         id="rect897"
         d="m 6.5675944,246.45509 c -0.6811557,0 -1.2295383,0.54838 -1.2295383,1.22953 v 16.4929 H 32.195871 v -16.49289 c 0,-0.68116 -0.548383,-1.22954 -1.229539,-1.22954 z"
         style="fill:#000000;fill-opacity:1;stroke:none;stroke-width:0.32641914"
         inkscape:connector-curvature="0" />
      <rect
         style="fill:url(#linearGradient5539);fill-opacity:1;stroke:none;stroke-width:0.24844043"
         id="rect899"
         width="24.35524"
         height="15.046412"
         x="6.589344"
         y="247.79309"
         ry="0" />
      <circle
         r="0.21420276"
         cy="247.04788"
         cx="18.826681"
         id="path995"
         style="opacity:1;fill:#9a9a9a;fill-opacity:1;stroke:none;stroke-width:0.61244607;stroke-linecap:round;stroke-linejoin:round;stroke-miterlimit:4;stroke-dasharray:none;stroke-opacity:1" />
      <g
         transform="matrix(0.25362998,0,0,0.25362998,1.5021368,198.6018)"
         id="text1012"
         style="font-style:normal;font-weight:normal;font-size:2.4394331px;line-height:1.25;font-family:sans-serif;letter-spacing:0px;word-spacing:0px;fill:#000000;fill-opacity:1;stroke:none;stroke-width:0.2411752"
         aria-label="MacBook Pro">
        <path
           id="path893"
           style="fill:#ffffff;stroke-width:0.2411752"
           d="m 60.65813,254.60253 h 0.35853 l 0.45382,1.21019 0.456202,-1.21019 h 0.35853 v 1.77836 H 62.05056 v -1.56157 l -0.458585,1.21972 h -0.241799 l -0.458585,-1.21972 v 1.56157 H 60.65813 Z"
           inkscape:connector-curvature="0" />
        <path
           id="path895"
           style="fill:#ffffff;stroke-width:0.2411752"
           d="m 63.360802,255.71028 q -0.265622,0 -0.368059,0.0607 -0.102437,0.0608 -0.102437,0.20726 0,0.11673 0.07623,0.18581 0.07742,0.0679 0.209639,0.0679 0.182243,0 0.291827,-0.12864 0.110775,-0.12984 0.110775,-0.34424 v -0.0488 z m 0.437145,-0.0905 v 0.76113 h -0.219168 v -0.20249 q -0.07504,0.12149 -0.187007,0.17986 -0.111967,0.0572 -0.27396,0.0572 -0.204874,0 -0.32637,-0.11435 -0.120304,-0.11554 -0.120304,-0.3085 0,-0.22512 0.150083,-0.33947 0.151273,-0.11435 0.450247,-0.11435 h 0.307311 v -0.0214 q 0,-0.15127 -0.100055,-0.23346 -0.09886,-0.0834 -0.278724,-0.0834 -0.114349,0 -0.222741,0.0274 -0.108393,0.0274 -0.208448,0.0822 v -0.20249 q 0.120304,-0.0465 0.233461,-0.0691 0.113158,-0.0238 0.220359,-0.0238 0.289445,0 0.43238,0.15009 0.142936,0.15008 0.142936,0.45501 z"
           inkscape:connector-curvature="0" />
        <path
           id="path897"
           style="fill:#ffffff;stroke-width:0.2411752"
           d="m 65.210626,255.09804 v 0.20488 q -0.09291,-0.0512 -0.187007,-0.0762 -0.09291,-0.0262 -0.188198,-0.0262 -0.213213,0 -0.331134,0.13579 -0.117922,0.1346 -0.117922,0.37878 0,0.24418 0.117922,0.37997 0.117921,0.1346 0.331134,0.1346 0.09529,0 0.188198,-0.025 0.0941,-0.0262 0.187007,-0.0774 v 0.20249 q -0.09172,0.0429 -0.19058,0.0643 -0.09767,0.0214 -0.208448,0.0214 -0.301356,0 -0.478834,-0.18939 -0.177478,-0.18939 -0.177478,-0.51099 0,-0.32637 0.178669,-0.51338 0.179861,-0.18701 0.491937,-0.18701 0.101246,0 0.197727,0.0214 0.09648,0.0203 0.187007,0.0619 z"
           inkscape:connector-curvature="0" />
        <path
           id="path899"
           style="fill:#ffffff;stroke-width:0.2411752"
           d="m 65.844307,255.53161 v 0.65155 h 0.385926 q 0.194154,0 0.287062,-0.0798 0.0941,-0.081 0.0941,-0.24657 0,-0.16676 -0.0941,-0.24537 -0.09291,-0.0798 -0.287062,-0.0798 z m 0,-0.73135 v 0.53601 h 0.356148 q 0.176287,0 0.262048,-0.0655 0.08695,-0.0667 0.08695,-0.20249 0,-0.1346 -0.08695,-0.20131 -0.08576,-0.0667 -0.262048,-0.0667 z m -0.240608,-0.19773 h 0.614622 q 0.275151,0 0.424043,0.11435 0.148891,0.11435 0.148891,0.32518 0,0.16319 -0.07623,0.25967 -0.07623,0.0965 -0.223932,0.1203 0.177478,0.0381 0.275151,0.15961 0.09886,0.12031 0.09886,0.30136 0,0.23822 -0.161994,0.36806 -0.161993,0.12983 -0.460967,0.12983 h -0.638445 z"
           inkscape:connector-curvature="0" />
        <path
           id="path901"
           style="fill:#ffffff;stroke-width:0.2411752"
           d="m 67.783466,255.20048 q -0.176287,0 -0.278724,0.13817 -0.102437,0.13698 -0.102437,0.3764 0,0.23942 0.101246,0.37759 0.102437,0.13698 0.279915,0.13698 0.175096,0 0.277533,-0.13817 0.102437,-0.13818 0.102437,-0.3764 0,-0.23704 -0.102437,-0.37521 -0.102437,-0.13936 -0.277533,-0.13936 z m 0,-0.18582 q 0.285871,0 0.449056,0.18582 0.163184,0.18582 0.163184,0.51457 0,0.32756 -0.163184,0.51457 -0.163185,0.18581 -0.449056,0.18581 -0.287062,0 -0.450247,-0.18581 -0.161994,-0.18701 -0.161994,-0.51457 0,-0.32875 0.161994,-0.51457 0.163185,-0.18582 0.450247,-0.18582 z"
           inkscape:connector-curvature="0" />
        <path
           id="path903"
           style="fill:#ffffff;stroke-width:0.2411752"
           d="m 69.27476,255.20048 q -0.176287,0 -0.278724,0.13817 -0.102438,0.13698 -0.102438,0.3764 0,0.23942 0.101246,0.37759 0.102438,0.13698 0.279916,0.13698 0.175096,0 0.277533,-0.13817 0.102437,-0.13818 0.102437,-0.3764 0,-0.23704 -0.102437,-0.37521 -0.102437,-0.13936 -0.277533,-0.13936 z m 0,-0.18582 q 0.285871,0 0.449056,0.18582 0.163184,0.18582 0.163184,0.51457 0,0.32756 -0.163184,0.51457 -0.163185,0.18581 -0.449056,0.18581 -0.287062,0 -0.450247,-0.18581 -0.161994,-0.18701 -0.161994,-0.51457 0,-0.32875 0.161994,-0.51457 0.163185,-0.18582 0.450247,-0.18582 z"
           inkscape:connector-curvature="0" />
        <path
           id="path905"
           style="fill:#ffffff;stroke-width:0.2411752"
           d="m 70.240766,254.52749 h 0.220359 v 1.09465 l 0.65393,-0.57532 h 0.279915 l -0.707531,0.62416 0.737309,0.70991 h -0.285871 l -0.677752,-0.65155 v 0.65155 h -0.220359 z"
           inkscape:connector-curvature="0" />
        <path
           id="path907"
           style="fill:#ffffff;stroke-width:0.2411752"
           d="m 72.690919,254.80026 v 0.66822 h 0.302547 q 0.167949,0 0.259666,-0.087 0.09172,-0.087 0.09172,-0.24775 0,-0.15961 -0.09172,-0.24657 -0.09172,-0.087 -0.259666,-0.087 z m -0.240608,-0.19773 h 0.543155 q 0.298973,0 0.451438,0.13579 0.153655,0.1346 0.153655,0.39546 0,0.26324 -0.153655,0.39783 -0.152465,0.1346 -0.451438,0.1346 h -0.302547 v 0.71468 h -0.240608 z"
           inkscape:connector-curvature="0" />
        <path
           id="path909"
           style="fill:#ffffff;stroke-width:0.2411752"
           d="m 74.645563,255.2517 q -0.03692,-0.0214 -0.081,-0.031 -0.04288,-0.0107 -0.09529,-0.0107 -0.185816,0 -0.285871,0.12149 -0.09886,0.12031 -0.09886,0.34662 v 0.70277 h -0.220359 v -1.33407 h 0.220359 v 0.20726 q 0.06909,-0.12149 0.17986,-0.17986 0.110775,-0.0596 0.269195,-0.0596 0.02263,0 0.05003,0.004 0.0274,0.002 0.06075,0.008 z"
           inkscape:connector-curvature="0" />
        <path
           id="path911"
           style="fill:#ffffff;stroke-width:0.2411752"
           d="m 75.342373,255.20048 q -0.176287,0 -0.278724,0.13817 -0.102437,0.13698 -0.102437,0.3764 0,0.23942 0.101246,0.37759 0.102437,0.13698 0.279915,0.13698 0.175096,0 0.277534,-0.13817 0.102437,-0.13818 0.102437,-0.3764 0,-0.23704 -0.102437,-0.37521 -0.102438,-0.13936 -0.277534,-0.13936 z m 0,-0.18582 q 0.285872,0 0.449056,0.18582 0.163185,0.18582 0.163185,0.51457 0,0.32756 -0.163185,0.51457 -0.163184,0.18581 -0.449056,0.18581 -0.287062,0 -0.450246,-0.18581 -0.161994,-0.18701 -0.161994,-0.51457 0,-0.32875 0.161994,-0.51457 0.163184,-0.18582 0.450246,-0.18582 z"
           inkscape:connector-curvature="0" />
      </g>
      <path
         sodipodi:nodetypes="ccccc"
         inkscape:connector-curvature="0"
         id="path1175"
         d="m 5.2876814,264.09577 -3.2750915,0.72519 H 35.35009 l -3.177327,-0.72528 z"
         style="fill:#999999;stroke:#4d4d4d;stroke-width:0.1003008;stroke-linecap:butt;stroke-linejoin:miter;stroke-miterlimit:4;stroke-dasharray:none;stroke-opacity:1" />
      <path
         inkscape:connector-curvature="0"
         id="path1202"
         d="m 2.0125899,264.82212 v 0.63408 a 1.1906252,0.63407262 0 0 0 1.1906259,0.63407 H 34.159462 a 1.1906252,0.63407262 0 0 0 1.190628,-0.63407 v -0.63408 H 34.159462 3.2032158 Z"
         style="opacity:1;fill:url(#radialGradient1204);fill-opacity:1;stroke:#4d4d4d;stroke-width:0.1003008;stroke-miterlimit:4;stroke-dasharray:none;stroke-opacity:1" />
      <g
         id="g1214"
         transform="matrix(0.19559789,0,0,0.20869454,-0.536593,209.4037)"
         style="fill:#333333;stroke-width:3.9546113">
        <rect
           ry="0.97225344"
           rx="0"
           y="267.92075"
           x="167.22757"
           height="0.97225344"
           width="7.8664141"
           id="rect1210"
           style="opacity:1;fill:#333333;fill-opacity:1;stroke:none;stroke-width:1.97730565;stroke-linecap:round;stroke-linejoin:round;stroke-miterlimit:4;stroke-dasharray:none;stroke-opacity:1" />
        <rect
           style="opacity:1;fill:#333333;fill-opacity:1;stroke:none;stroke-width:1.97730565;stroke-linecap:round;stroke-linejoin:round;stroke-miterlimit:4;stroke-dasharray:none;stroke-opacity:1"
           id="rect1212"
           width="7.8664141"
           height="0.97225344"
           x="167.22757"
           y="267.92075"
           rx="0"
           ry="0.97225344" />
      </g>
      <path
         inkscape:connector-curvature="0"
         id="path1216"
         d="m 15.624039,264.75968 v 0.22843 c 0,0.14659 0.104879,0.26453 0.235113,0.26453 h 5.644376 c 0.130234,0 0.235114,-0.11794 0.235114,-0.26453 v -0.22843 z"
         style="opacity:1;fill:#333333;fill-opacity:1;stroke:none;stroke-width:5.26739836;stroke-miterlimit:4;stroke-dasharray:none;stroke-opacity:0.55026455" />
      <path
         inkscape:connector-curvature="0"
         id="path1248"
         d="M 8.4610911,264.15227 H 29.005001 l 0.82727,0.4481 H 7.5304086 Z"
         style="fill:#333333;stroke:none;stroke-width:0.26537919px;stroke-linecap:butt;stroke-linejoin:miter;stroke-opacity:1" />
    </g>
  </g>
</svg>
