<?xml version="1.0" encoding="UTF-8" standalone="no"?>
<!-- Created with Inkscape (http://www.inkscape.org/) -->

<svg
   xmlns:osb="http://www.openswatchbook.org/uri/2009/osb"
   xmlns:dc="http://purl.org/dc/elements/1.1/"
   xmlns:cc="http://creativecommons.org/ns#"
   xmlns:rdf="http://www.w3.org/1999/02/22-rdf-syntax-ns#"
   xmlns:svg="http://www.w3.org/2000/svg"
   xmlns="http://www.w3.org/2000/svg"
   xmlns:xlink="http://www.w3.org/1999/xlink"
   xmlns:sodipodi="http://sodipodi.sourceforge.net/DTD/sodipodi-0.dtd"
   xmlns:inkscape="http://www.inkscape.org/namespaces/inkscape"
   width="128"
   height="128"
   viewBox="0 0 33.866665 33.866665"
   version="1.1"
   id="svg4942"
   inkscape:version="0.92.2 5c3e80d, 2017-08-06"
   sodipodi:docname="computer.svg">
  <defs
     id="defs4936">
    <linearGradient
       inkscape:collect="always"
       id="linearGradient5537">
      <stop
         style="stop-color:#83d0fd;stop-opacity:1"
         offset="0"
         id="stop5533" />
      <stop
         style="stop-color:#182f73;stop-opacity:1"
         offset="1"
         id="stop5535" />
    </linearGradient>
    <linearGradient
       id="linearGradient6987"
       osb:paint="solid">
      <stop
         style="stop-color:#77d2fb;stop-opacity:1;"
         offset="0"
         id="stop6985" />
    </linearGradient>
    <clipPath
       clipPathUnits="userSpaceOnUse"
       id="clipPath973">
      <rect
         ry="0"
         y="217.8595"
         x="40.210464"
         height="18.676432"
         width="30.23106"
         id="rect975"
         style="fill:url(#linearGradient977);fill-opacity:1;stroke:none;stroke-width:0.07749438" />
    </clipPath>
    <linearGradient
       inkscape:collect="always"
       xlink:href="#linearGradient5537"
       id="linearGradient977"
       gradientUnits="userSpaceOnUse"
       gradientTransform="matrix(0.33337462,0,0,0.33337462,32.74542,150.76607)"
       x1="113.0743"
       y1="201.25548"
       x2="13.204281"
       y2="289.76987" />
  </defs>
  <sodipodi:namedview
     id="base"
     pagecolor="#ffffff"
     bordercolor="#666666"
     borderopacity="1.0"
     inkscape:pageopacity="0.0"
     inkscape:pageshadow="2"
     inkscape:zoom="1.2449295"
     inkscape:cx="114.22085"
     inkscape:cy="38.610486"
     inkscape:document-units="mm"
     inkscape:current-layer="layer1"
     showgrid="false"
     units="px"
     width="128px"
     inkscape:window-width="1600"
     inkscape:window-height="811"
     inkscape:window-x="0"
     inkscape:window-y="0"
     inkscape:window-maximized="1" />
  <metadata
     id="metadata4939">
    <rdf:RDF>
      <cc:Work
         rdf:about="">
        <dc:format>image/svg+xml</dc:format>
        <dc:type
           rdf:resource="http://purl.org/dc/dcmitype/StillImage" />
        <dc:title />
      </cc:Work>
    </rdf:RDF>
  </metadata>
  <g
     inkscape:label="Layer 1"
     inkscape:groupmode="layer"
     id="layer1"
     transform="translate(0,-263.13332)">
    <g
       id="g993"
       transform="matrix(0.95230669,0,0,0.95230669,0.80760671,13.359687)"
       style="stroke-width:1.05008185">
      <path
         inkscape:connector-curvature="0"
         id="path834"
         d="m 1.7559647,265.06954 c -0.76877192,0 -1.38751229,0.61874 -1.38751229,1.38752 v 23.80836 c 0,0.76877 0.61874037,1.38751 1.38751229,1.38751 H 32.1107 c 0.768773,0 1.387512,-0.61874 1.387512,-1.38751 v -23.80836 c 0,-0.76878 -0.618739,-1.38752 -1.387512,-1.38752 z m 11.3636473,26.58443 -0.562757,2.84272 h -1.62109 c -0.265149,0 -0.478523,0.21337 -0.478523,0.47852 v 0.23926 c 0,0.26515 0.213374,0.47853 0.478523,0.47853 h 11.995134 c 0.265149,0 0.478523,-0.21338 0.478523,-0.47853 v -0.23926 c 0,-0.26515 -0.213374,-0.47852 -0.478523,-0.47852 h -1.620573 l -0.503329,-2.84221 z"
         style="opacity:0.25;fill:#000000;stroke:none;stroke-width:0.21773836;stroke-linecap:butt;stroke-linejoin:miter;stroke-miterlimit:4;stroke-dasharray:none;stroke-opacity:1" />
      <path
         sodipodi:nodetypes="ccccc"
         inkscape:connector-curvature="0"
         id="path5782"
         d="m 13.119443,291.12502 7.687605,1.1e-4 0.50852,2.87143 -8.76447,9e-5 z"
         style="fill:#b3b3b3;stroke:#808080;stroke-width:0.21001638;stroke-linecap:butt;stroke-linejoin:miter;stroke-miterlimit:4;stroke-dasharray:none;stroke-opacity:1" />
      <rect
         ry="0.50257885"
         y="293.96741"
         x="10.457197"
         height="1.1965146"
         width="12.95227"
         id="rect5784"
         style="fill:#e6e6e6;fill-opacity:1;stroke:#808080;stroke-width:0.21001638;stroke-miterlimit:4;stroke-dasharray:none;stroke-opacity:1"
         rx="0.50257885" />
      <rect
         style="fill:#cccccc;fill-opacity:1;stroke:#808080;stroke-width:0.21001638;stroke-miterlimit:4;stroke-dasharray:none;stroke-opacity:1"
         id="rect901"
         width="33.130146"
         height="26.583473"
         x="0.36826032"
         y="264.54031"
         ry="1.4571722"
         rx="1.4571722" />
      <rect
         rx="1.180418"
         ry="1.180418"
         y="264.54031"
         x="0.36834708"
         height="21.534594"
         width="33.130146"
         id="rect897"
         style="fill:#000000;fill-opacity:1;stroke:none;stroke-width:0.09204685" />
      <g
         clip-path="url(#clipPath973)"
         transform="matrix(0.99378122,0,0,0.99378122,-38.048511,49.52279)"
         id="g1110"
         style="stroke-width:1.05665302">
        <rect
           style="opacity:1;fill:#346fb1;fill-opacity:1;fill-rule:nonzero;stroke:none;stroke-width:0.21133059;stroke-linecap:round;stroke-linejoin:round;stroke-miterlimit:4;stroke-dasharray:none;stroke-dashoffset:0;stroke-opacity:1;paint-order:markers fill stroke"
           id="rect844"
           width="30.230892"
           height="23.260651"
           x="40.210491"
           y="215.57051"
           ry="0"
           rx="0" />
        <path
           inkscape:connector-curvature="0"
           style="opacity:0.21000001;fill:#aaeeff;fill-opacity:1;fill-rule:nonzero;stroke:none;stroke-width:1.05665267;stroke-linecap:round;stroke-linejoin:round;stroke-miterlimit:4;stroke-dasharray:none;stroke-dashoffset:0;stroke-opacity:1;paint-order:markers fill stroke"
           d="m 55.019504,215.58329 c -0.821927,0.61113 -1.608335,1.26049 -2.34112,1.94794 -4.023539,3.77454 -6.437164,8.67433 -8.197869,13.27485 -1.112335,2.9064 -1.957167,5.6771 -2.219096,8.02532 h 11.663298 c 0.267614,-0.33876 0.566718,-0.6661 0.919129,-0.98695 1.305756,-1.1888 3.3298,-2.29883 5.857236,-3.3809 2.527454,-1.08205 5.557678,-2.13585 8.021223,-3.27562 0.601915,-0.27847 1.169177,-0.56259 1.703441,-0.87042 v -13.5539 c -0.08767,-0.61749 -0.578774,-1.10123 -1.202051,-1.18032 z"
           id="rect939" />
        <path
           style="opacity:0.21000001;fill:#aaeeff;fill-opacity:1;fill-rule:nonzero;stroke:none;stroke-width:1.05665267;stroke-linecap:round;stroke-linejoin:round;stroke-miterlimit:4;stroke-dasharray:none;stroke-dashoffset:0;stroke-opacity:1;paint-order:markers fill stroke"
           d="m 40.971119,215.72663 c 0.01648,0.0332 3.288636,6.64171 3.460395,8.6902 0.220632,2.63142 0.120203,4.0627 -0.313935,6.17925 -0.434145,2.11656 -1.38387,5.08486 -1.721532,6.43917 -0.337673,1.35428 -0.07627,0.89914 0.438265,-0.19614 0.514554,-1.0953 1.711755,-3.0858 2.724304,-4.52776 1.119019,-1.5936 2.81215,-2.79562 3.686731,-4.53402 0.694988,-1.38141 0.869927,-2.36158 1.143242,-4.49269 0.273306,-2.13109 0.273306,-5.12111 -0.474296,-6.81568 -0.155744,-0.35305 -0.344452,-0.64909 -0.560314,-0.89842 0,0 -6.988383,0.0249 -7.016472,0 0,0 -0.632411,-0.0257 -0.94247,0.0252 -0.145965,0.0241 -0.423918,0.13085 -0.423918,0.13085 z"
           id="rect901-2"
           inkscape:connector-curvature="0"
           sodipodi:nodetypes="cssssaassccacc" />
        <path
           inkscape:connector-curvature="0"
           style="opacity:0.21000001;fill:#aaeeff;fill-opacity:1;fill-rule:nonzero;stroke:none;stroke-width:1.05665267;stroke-linecap:round;stroke-linejoin:round;stroke-miterlimit:4;stroke-dasharray:none;stroke-dashoffset:0;stroke-opacity:1;paint-order:markers fill stroke"
           d="m 40.971119,215.72663 c 0.487693,0.90079 1.128074,2.05909 1.710925,3.33559 0.873726,1.91357 1.364522,3.71916 1.617415,5.40643 0.252892,1.68726 0.267765,3.25606 0.05209,4.78054 -0.215683,1.52448 -0.661873,3.00445 -1.033773,4.29953 -0.371903,1.29507 -0.669337,2.40492 -0.832974,3.24858 -0.163647,0.84366 -0.193382,1.42082 -0.126436,1.9019 0.0067,0.0452 0.01485,0.0886 0.0237,0.132 H 53.34159 c 0.09493,-0.83438 -0.323676,-2.16256 -0.674678,-3.35116 -0.423936,-1.43561 -0.751316,-2.67883 -1.130626,-3.95901 -0.379318,-1.2802 -0.810701,-2.59753 -1.368512,-3.9443 -0.55781,-1.3468 -1.241961,-2.72337 -1.963409,-4.02577 -0.721437,-1.3024 -1.480255,-2.53072 -2.253766,-3.54454 -0.773502,-1.01379 -1.561762,-1.81307 -2.216273,-2.45689 -0.654519,-0.64382 -1.175252,-1.13224 -1.892796,-1.84697 -0.04285,-0.0427 -0.08864,-0.088 -0.132683,-0.13202 0,0 -0.28299,0.0125 -0.420375,0.0434 -0.109541,0.0247 -0.317353,0.11278 -0.317353,0.11278 z"
           id="rect853"
           sodipodi:nodetypes="ccsscccccccscccccac" />
        <path
           inkscape:connector-curvature="0"
           style="opacity:0.21000001;fill:#aaeeff;fill-opacity:1;fill-rule:nonzero;stroke:none;stroke-width:1.05665267;stroke-linecap:round;stroke-linejoin:round;stroke-miterlimit:4;stroke-dasharray:none;stroke-dashoffset:0;stroke-opacity:1;paint-order:markers fill stroke"
           d="m 67.015456,215.57054 c -0.565579,0.43794 -1.350144,1.0784 -2.120247,1.72946 -1.423861,1.20376 -2.76994,2.41755 -3.884941,3.48506 -1.115001,1.0675 -1.998542,1.98825 -2.803255,2.95636 -0.804723,0.96811 -1.530483,1.98313 -2.164619,2.83845 -0.634135,0.85531 -1.185517,1.56221 -1.906126,2.71615 -0.7206,1.15396 -1.614568,2.7602 -2.521638,4.70947 -0.813805,1.74887 -1.635839,3.77002 -1.85509,4.82571 h 1.34227 c 0.513934,-0.5892 0.905908,-1.30724 1.455577,-2.23472 0.597,-1.00735 1.388887,-2.2708 1.991306,-3.42889 0.602428,-1.15808 1.019023,-2.21649 1.729284,-3.51883 0.710259,-1.30234 1.714524,-2.84918 3.186726,-4.82406 1.472211,-1.97489 3.412702,-4.37827 5.133472,-6.30215 1.149145,-1.28478 2.188945,-2.34481 2.760551,-2.95201 z"
           id="rect861" />
        <path
           inkscape:connector-curvature="0"
           style="opacity:0.21000001;fill:#aaeeff;fill-opacity:1;fill-rule:nonzero;stroke:none;stroke-width:1.05665267;stroke-linecap:round;stroke-linejoin:round;stroke-miterlimit:4;stroke-dasharray:none;stroke-dashoffset:0;stroke-opacity:1;paint-order:markers fill stroke"
           d="m 70.441316,216.75495 c -0.407693,0.12792 -0.826918,0.28479 -1.233954,0.44807 -1.582946,0.63496 -3.085597,1.38982 -4.305278,2.07058 -1.219691,0.68077 -2.157029,1.28769 -3.361914,2.22748 -1.204875,0.9398 -2.684988,2.21915 -3.960552,3.58497 -1.275553,1.36578 -2.361504,2.83103 -3.328368,4.34801 -0.966866,1.51698 -1.814977,3.08601 -2.454567,4.35133 -0.639592,1.26534 -1.071031,2.22765 -1.420587,3.12299 -0.298109,0.76359 -0.535005,1.47637 -0.612596,1.92282 h 3.712886 c 0.424747,-0.28193 0.842,-0.68025 1.459119,-1.20512 0.922305,-0.78444 2.290617,-1.8498 3.391488,-2.7601 1.100861,-0.9103 1.933825,-1.6652 3.309831,-2.82705 1.376005,-1.16185 3.287569,-2.72451 5.154923,-4.34056 1.303442,-1.12803 2.577425,-2.27651 3.649569,-3.56153 z"
           id="rect868" />
        <path
           inkscape:connector-curvature="0"
           style="opacity:0.21000001;fill:#aaeeff;fill-opacity:1;fill-rule:nonzero;stroke:none;stroke-width:1.05665267;stroke-linecap:round;stroke-linejoin:round;stroke-miterlimit:4;stroke-dasharray:none;stroke-dashoffset:0;stroke-opacity:1;paint-order:markers fill stroke"
           d="m 70.174313,233.47808 c -0.427831,0.006 -0.918625,0.11905 -1.478578,0.27954 -0.63995,0.18344 -1.398862,0.43517 -2.239271,0.82735 -0.840409,0.39218 -1.76281,0.92488 -2.62552,1.55386 -0.86273,0.62896 -1.666201,1.35453 -2.2314,2.01307 -0.204132,0.23782 -0.376418,0.46668 -0.49499,0.6795 H 69.0441 c 0.774138,0 1.397391,-0.62011 1.397391,-1.39034 v -3.94976 c -0.02914,-0.002 -0.05787,-0.008 -0.08759,-0.01 -0.05855,-0.004 -0.118474,-0.005 -0.179593,-0.004 z"
           id="rect949" />
      </g>
      <path
         style="fill:#000000;stroke-width:0.00530857"
         d="m 16.518478,289.65411 c -0.01111,-0.002 -0.0168,-0.004 -0.01263,-0.005 0.0041,-2.7e-4 -0.0015,-0.003 -0.01218,-0.006 -0.04208,-0.009 -0.106296,-0.0494 -0.159191,-0.0978 -0.05178,-0.0475 -0.156768,-0.18412 -0.21549,-0.28052 -0.100939,-0.16567 -0.178787,-0.37583 -0.211714,-0.57148 -0.02206,-0.13109 -0.02342,-0.28871 -0.0034,-0.40155 0.06046,-0.34154 0.315186,-0.58025 0.619711,-0.5808 0.06254,-1.1e-4 0.107395,0.009 0.194724,0.0397 0.198999,0.0698 0.198778,0.0698 0.232457,0.0697 0.02614,-7e-5 0.04683,-0.005 0.101106,-0.0241 0.247381,-0.087 0.264892,-0.0913 0.366516,-0.0908 0.137524,2.6e-4 0.269037,0.0425 0.369476,0.1172 0.03855,0.0287 0.08968,0.0792 0.112259,0.11089 l 0.01082,0.0151 -0.04407,0.033 c -0.167024,0.12473 -0.243863,0.29565 -0.228098,0.50734 0.0052,0.0695 0.01697,0.12071 0.04172,0.18145 0.04543,0.11146 0.15414,0.22988 0.262351,0.2858 0.01874,0.009 0.03412,0.0203 0.03413,0.0235 5.6e-5,0.0164 -0.04209,0.11967 -0.07902,0.19374 -0.05692,0.11414 -0.132761,0.22773 -0.21888,0.32778 -0.06203,0.0721 -0.142763,0.12482 -0.212996,0.13915 -0.01784,0.003 -0.02906,0.008 -0.02491,0.009 0.0041,0.002 -0.0095,0.003 -0.03037,0.003 -0.02224,1.3e-4 -0.03515,-0.002 -0.03123,-0.004 0.0043,-0.003 -0.0035,-0.005 -0.02171,-0.007 -0.03095,-0.003 -0.08687,-0.0211 -0.169509,-0.0529 -0.08245,-0.0317 -0.145749,-0.0429 -0.222434,-0.0396 -0.06754,0.003 -0.110086,0.012 -0.181995,0.0387 -0.09021,0.0334 -0.14188,0.0506 -0.161486,0.0537 -0.01119,0.002 -0.01911,0.005 -0.01758,0.007 0.0015,0.003 -0.0028,0.004 -0.0094,0.004 -0.0067,0 -0.02221,10e-4 -0.03443,0.002 -0.01221,10e-4 -0.03129,2.2e-4 -0.04241,-0.002 z m 0.425494,-1.99543 c -0.0064,-0.006 -0.0034,-0.0983 0.0045,-0.13632 0.02857,-0.13837 0.126471,-0.27626 0.25202,-0.35498 0.05298,-0.0333 0.123613,-0.0642 0.173263,-0.0759 0.02052,-0.005 0.03573,-0.0104 0.03379,-0.0123 -0.0019,-0.002 0.0035,-0.003 0.01205,-0.003 0.0086,0 0.0187,-0.001 0.02249,-0.003 0.01526,-0.006 1.28e-4,0.13912 -0.02165,0.2074 -0.05222,0.16366 -0.188061,0.31228 -0.327976,0.35884 -0.05072,0.0169 -0.139465,0.0285 -0.148514,0.0194 z"
         id="path1568"
         inkscape:connector-curvature="0" />
    </g>
  </g>
</svg>
