<?xml version="1.0" encoding="UTF-8" standalone="no"?>
<!-- Created with Inkscape (http://www.inkscape.org/) -->

<svg
   xmlns:osb="http://www.openswatchbook.org/uri/2009/osb"
   xmlns:dc="http://purl.org/dc/elements/1.1/"
   xmlns:cc="http://creativecommons.org/ns#"
   xmlns:rdf="http://www.w3.org/1999/02/22-rdf-syntax-ns#"
   xmlns:svg="http://www.w3.org/2000/svg"
   xmlns="http://www.w3.org/2000/svg"
   xmlns:xlink="http://www.w3.org/1999/xlink"
   xmlns:sodipodi="http://sodipodi.sourceforge.net/DTD/sodipodi-0.dtd"
   xmlns:inkscape="http://www.inkscape.org/namespaces/inkscape"
   width="512"
   height="512"
   viewBox="0 0 135.46666 135.46666"
   version="1.1"
   id="svg4942"
   inkscape:version="0.92.2 5c3e80d, 2017-08-06"
   sodipodi:docname="input-mouse2.svg">
  <defs
     id="defs4936">
    <linearGradient
       inkscape:collect="always"
       id="linearGradient920">
      <stop
         style="stop-color:#cccccc;stop-opacity:1"
         offset="0"
         id="stop916" />
      <stop
         style="stop-color:#b2b2b2;stop-opacity:1"
         offset="1"
         id="stop918" />
    </linearGradient>
    <linearGradient
       id="linearGradient1205"
       inkscape:collect="always">
      <stop
         id="stop1201"
         offset="0"
         style="stop-color:#fcfdff;stop-opacity:1" />
      <stop
         id="stop1203"
         offset="1"
         style="stop-color:#e0e2e5;stop-opacity:1" />
    </linearGradient>
    <linearGradient
       inkscape:collect="always"
       id="linearGradient927">
      <stop
         style="stop-color:#4d4d4d;stop-opacity:1"
         offset="0"
         id="stop923" />
      <stop
         style="stop-color:#1a1a1a;stop-opacity:1"
         offset="1"
         id="stop925" />
    </linearGradient>
    <inkscape:path-effect
       effect="skeletal"
       id="path-effect4536"
       is_visible="true"
       pattern="m -151.34894,32.250175 c 0,-2.76 2.24,-5 5,-5 2.76,0 5,2.24 5,5 0,2.76 -2.24,5 -5,5 -2.76,0 -5,-2.24 -5,-5 z"
       copytype="single_stretched"
       prop_scale="0.26458332"
       scale_y_rel="false"
       spacing="0"
       normal_offset="0"
       tang_offset="0"
       prop_units="false"
       vertical_pattern="false"
       fuse_tolerance="0" />
    <inkscape:path-effect
       effect="spiro"
       id="path-effect4534"
       is_visible="true" />
    <inkscape:path-effect
       effect="skeletal"
       id="path-effect4530"
       is_visible="true"
       pattern="m -140.30158,26.358245 c 0,-2.76 2.24,-5 5,-5 2.76,0 5,2.24 5,5 0,2.76 -2.24,5 -5,5 -2.76,0 -5,-2.24 -5,-5 z"
       copytype="single_stretched"
       prop_scale="0.26458332"
       scale_y_rel="false"
       spacing="0"
       normal_offset="0"
       tang_offset="0"
       prop_units="false"
       vertical_pattern="false"
       fuse_tolerance="0" />
    <inkscape:path-effect
       effect="spiro"
       id="path-effect4528"
       is_visible="true" />
    <linearGradient
       id="linearGradient6987"
       osb:paint="solid">
      <stop
         style="stop-color:#77d2fb;stop-opacity:1;"
         offset="0"
         id="stop6985" />
    </linearGradient>
    <linearGradient
       inkscape:collect="always"
       xlink:href="#linearGradient927"
       id="linearGradient929"
       x1="-23.584837"
       y1="124.83982"
       x2="55.269161"
       y2="226.61882"
       gradientUnits="userSpaceOnUse"
       gradientTransform="translate(20.872486,-5.0645257)" />
    <radialGradient
       cx="23.334524"
       cy="41.63604"
       r="22.627417"
       fx="23.334524"
       fy="41.63604"
       id="radialGradient4248"
       xlink:href="#linearGradient23419-5"
       gradientUnits="userSpaceOnUse"
       gradientTransform="matrix(1.5835854,0,0,0.45824687,-175.77305,231.81028)" />
    <linearGradient
       id="linearGradient23419-5">
      <stop
         id="stop23421-7"
         style="stop-color:#000000;stop-opacity:1"
         offset="0" />
      <stop
         id="stop23423-0"
         style="stop-color:#000000;stop-opacity:0"
         offset="1" />
    </linearGradient>
    <linearGradient
       x1="18.601307"
       y1="0.85446119"
       x2="18.601307"
       y2="49.956139"
       id="linearGradient4146"
       xlink:href="#linearGradient3600-8"
       gradientUnits="userSpaceOnUse"
       gradientTransform="matrix(3.8925459,0,0,3.3619892,-182.28643,119.97691)" />
    <linearGradient
       id="linearGradient3600-8">
      <stop
         id="stop3602-2"
         style="stop-color:#f4f4f4;stop-opacity:1"
         offset="0" />
      <stop
         id="stop3604-5"
         style="stop-color:#dbdbdb;stop-opacity:1"
         offset="1" />
    </linearGradient>
    <linearGradient
       x1="-74.784531"
       y1="54.702854"
       x2="-74.784531"
       y2="2.103905"
       id="linearGradient4148"
       xlink:href="#linearGradient3104-5"
       gradientUnits="userSpaceOnUse"
       gradientTransform="matrix(3.1432184,0,0,3.1463208,48.970648,116.23004)" />
    <linearGradient
       id="linearGradient3104-5">
      <stop
         id="stop3106-2"
         style="stop-color:#aaaaaa;stop-opacity:1"
         offset="0" />
      <stop
         id="stop3108-2"
         style="stop-color:#c8c8c8;stop-opacity:1"
         offset="1" />
    </linearGradient>
    <linearGradient
       x1="14"
       y1="2"
       x2="32"
       y2="40"
       id="linearGradient2877"
       xlink:href="#linearGradient3208"
       gradientUnits="userSpaceOnUse"
       gradientTransform="matrix(6.2270244,0,0,2.9470624,-275.67275,124.26873)" />
    <linearGradient
       id="linearGradient3208">
      <stop
         id="stop3210"
         style="stop-color:#ffffff;stop-opacity:1"
         offset="0" />
      <stop
         id="stop3212"
         style="stop-color:#ffffff;stop-opacity:0"
         offset="1" />
    </linearGradient>
    <linearGradient
       x1="-64.288307"
       y1="2.9296203"
       x2="-64.288307"
       y2="53.716824"
       id="linearGradient4208"
       xlink:href="#linearGradient3208"
       gradientUnits="userSpaceOnUse"
       gradientTransform="matrix(2.1062592,0,0,2.1100218,-0.7281373,143.01608)" />
    <linearGradient
       inkscape:collect="always"
       xlink:href="#linearGradient1205"
       id="linearGradient1142"
       x1="-160.90987"
       y1="127.4615"
       x2="-156.93941"
       y2="285.87964"
       gradientUnits="userSpaceOnUse"
       gradientTransform="matrix(0.39136729,0.3516371,-0.3516371,0.39136729,216.1031,222.37036)" />
    <linearGradient
       inkscape:collect="always"
       xlink:href="#linearGradient920"
       id="linearGradient922"
       x1="-64.607101"
       y1="136.38898"
       x2="-64.453239"
       y2="207.24252"
       gradientUnits="userSpaceOnUse"
       gradientTransform="matrix(1.2657276,0,0,1.2657276,133.37663,-2.0677271)" />
    <filter
       inkscape:collect="always"
       style="color-interpolation-filters:sRGB"
       id="filter930"
       x="-0.024"
       width="1.048"
       y="-0.024"
       height="1.048">
      <feGaussianBlur
         inkscape:collect="always"
         stdDeviation="0.73"
         id="feGaussianBlur932" />
    </filter>
    <filter
       inkscape:collect="always"
       style="color-interpolation-filters:sRGB"
       id="filter969"
       x="-0.024463316"
       width="1.0489266"
       y="-0.023553908"
       height="1.0471078">
      <feGaussianBlur
         inkscape:collect="always"
         stdDeviation="1.4852652"
         id="feGaussianBlur971" />
    </filter>
  </defs>
  <sodipodi:namedview
     id="base"
     pagecolor="#ffffff"
     bordercolor="#666666"
     borderopacity="1.0"
     inkscape:pageopacity="0.0"
     inkscape:pageshadow="2"
     inkscape:zoom="0.88970862"
     inkscape:cx="110.91259"
     inkscape:cy="232.46348"
     inkscape:document-units="mm"
     inkscape:current-layer="layer1"
     showgrid="false"
     units="px"
     width="128px"
     inkscape:window-width="1600"
     inkscape:window-height="806"
     inkscape:window-x="0"
     inkscape:window-y="0"
     inkscape:window-maximized="1"
     inkscape:measure-start="-1358.47,-26.6019"
     inkscape:measure-end="-1363.38,56.2869"
     showguides="false" />
  <metadata
     id="metadata4939">
    <rdf:RDF>
      <cc:Work
         rdf:about="">
        <dc:format>image/svg+xml</dc:format>
        <dc:type
           rdf:resource="http://purl.org/dc/dcmitype/StillImage" />
        <dc:title />
      </cc:Work>
    </rdf:RDF>
  </metadata>
  <g
     inkscape:label="Layer 1"
     inkscape:groupmode="layer"
     id="layer1"
     transform="translate(0,-161.53332)">
    <g
       id="g990"
       transform="matrix(1.0245901,0,0,1.0245901,-1.9702654,-7.5622735)">
      <rect
         transform="matrix(1.2657276,0,0,1.2657276,176.11113,40.852887)"
         style="opacity:1;fill:#808080;fill-opacity:1;fill-rule:nonzero;stroke:none;stroke-width:1;stroke-linecap:round;stroke-linejoin:round;stroke-miterlimit:4;stroke-dasharray:none;stroke-opacity:1;filter:url(#filter930)"
         id="rect924"
         width="73"
         height="73"
         x="-131.83157"
         y="102.99342"
         ry="8.5501881" />
      <rect
         ry="10.822209"
         y="169.20515"
         x="9.2482691"
         height="92.398117"
         width="92.398117"
         id="rect914"
         style="opacity:1;fill:url(#linearGradient922);fill-opacity:1;fill-rule:nonzero;stroke:#808080;stroke-width:1.26572764;stroke-linecap:round;stroke-linejoin:round;stroke-miterlimit:4;stroke-dasharray:none;stroke-opacity:1" />
      <path
         transform="matrix(0.39136729,0.3516371,-0.3516371,0.39136729,215.43332,223.04015)"
         style="color:#000000;display:inline;overflow:visible;visibility:visible;fill:#808080;fill-opacity:1;fill-rule:nonzero;stroke:none;stroke-width:0.74466276;stroke-linecap:butt;stroke-linejoin:round;stroke-miterlimit:4;stroke-dasharray:none;stroke-dashoffset:0;stroke-opacity:1;marker:none;filter:url(#filter969);enable-background:accumulate"
         id="path1160"
         inkscape:connector-curvature="0"
         d="m -160.90986,127.4615 c -10.24397,0.11379 -21.25765,1.0474 -28.76278,8.08323 -11.49512,10.77631 -10.04364,18.23034 -11.17269,32.97955 -2.30484,30.10843 -1.41258,71.37187 4.70914,101.01718 1.79566,8.69577 9.99766,14.81492 18.69812,16.48978 6.67763,1.28546 13.58358,2.25919 20.49866,2.49425 6.91511,-0.23506 13.82105,-1.20879 20.49868,-2.49425 8.70046,-1.67486 16.90244,-7.79401 18.69812,-16.48978 6.12173,-29.64531 7.01398,-70.90875 4.70915,-101.01718 -1.12906,-14.74921 0.32242,-22.20324 -11.1727,-32.97955 -7.50513,-7.03583 -18.51881,-7.96946 -28.76278,-8.08323 -1.33887,-0.0149 -2.66716,-0.001 -3.97047,0 -1.3033,-0.001 -2.63157,-0.0149 -3.97045,0 z" />
      <path
         d="m 109.23843,214.63725 c -4.04915,-3.55765 -8.68785,-7.06507 -14.099174,-6.95055 -8.288168,0.17539 -10.341219,3.60304 -15.96946,8.97838 -11.489283,10.97299 -25.649837,27.4359 -33.678387,41.19073 -2.354988,4.03466 -1.296726,9.31363 1.519417,13.02851 2.161394,2.85119 4.521751,5.66067 7.145433,8.18426 2.789001,2.33962 5.834162,4.38691 8.899583,6.23192 3.994016,2.40392 9.355723,2.89322 13.116249,0.12139 12.820234,-9.44958 27.679189,-25.28499 37.364399,-37.87891 4.74449,-6.16938 7.93366,-8.57624 7.2242,-16.83585 -0.4632,-5.39268 -4.44529,-9.63088 -8.41445,-13.27757 -0.51876,-0.47662 -1.04348,-0.93826 -1.55391,-1.39616 -0.50972,-0.45869 -1.02468,-0.93119 -1.5539,-1.39616 z"
         inkscape:connector-curvature="0"
         id="path4487"
         style="color:#000000;display:inline;overflow:visible;visibility:visible;fill:url(#linearGradient1142);fill-opacity:1;fill-rule:nonzero;stroke:#808080;stroke-width:0.2023927;stroke-linecap:butt;stroke-linejoin:round;stroke-miterlimit:4;stroke-dasharray:none;stroke-dashoffset:0;stroke-opacity:1;marker:none;enable-background:accumulate" />
      <path
         style="fill:#999999;stroke-width:0.02161556"
         d="m 62.205509,267.4559 c -0.02853,-0.0394 -0.04082,-0.062 -0.02555,-0.0524 0.01425,0.0114 0.0058,-0.0149 -0.02211,-0.0533 -0.105764,-0.15152 -0.19713,-0.46063 -0.226808,-0.76601 -0.02911,-0.29886 0.02757,-1.0336 0.116244,-1.508 0.152432,-0.81538 0.505364,-1.70626 0.959756,-2.42264 0.304444,-0.48001 0.750554,-0.9852 1.136492,-1.28702 1.168303,-0.91346 2.660644,-0.94484 3.630751,-0.0763 0.199198,0.17837 0.315909,0.33544 0.505995,0.68258 0.433409,0.79072 0.432906,0.78987 0.54024,0.88589 0.08332,0.0744 0.163161,0.11796 0.390328,0.21238 1.035488,0.43017 1.103565,0.46643 1.425174,0.75863 0.436502,0.394 0.73431,0.90391 0.840235,1.42858 0.04062,0.20141 0.05896,0.50812 0.04014,0.6735 l -0.009,0.0792 -0.234278,-0.0213 c -0.887691,-0.0806 -1.620503,0.24345 -2.175318,0.96183 -0.181994,0.23569 -0.291,0.4324 -0.385826,0.6963 -0.17398,0.48433 -0.166659,1.17162 0.01768,1.65873 0.0318,0.0846 0.05039,0.16219 0.04122,0.17245 -0.04657,0.0523 -0.475884,0.26035 -0.805008,0.39039 -0.507215,0.2004 -1.073039,0.34494 -1.632857,0.41706 -0.403263,0.052 -0.810745,-0.0114 -1.075055,-0.16612 -0.06676,-0.0399 -0.115068,-0.0578 -0.106511,-0.0409 0.0086,0.017 -0.03877,-0.0177 -0.1066,-0.0757 -0.07105,-0.0632 -0.107232,-0.10556 -0.0882,-0.10164 0.02214,0.003 0.0043,-0.0272 -0.04722,-0.0865 -0.08842,-0.0996 -0.215969,-0.31539 -0.388079,-0.65252 -0.171555,-0.33657 -0.340782,-0.55315 -0.594428,-0.76146 -0.223316,-0.18351 -0.384483,-0.27635 -0.689233,-0.39719 -0.382248,-0.15169 -0.595724,-0.24467 -0.667036,-0.29073 -0.04246,-0.0243 -0.07569,-0.0378 -0.07794,-0.0257 -0.0025,0.013 -0.02131,0.006 -0.04279,-0.013 -0.0214,-0.0192 -0.07377,-0.0599 -0.116346,-0.0908 -0.04197,-0.0314 -0.100422,-0.0885 -0.128031,-0.12882 z m 7.05558,-5.13066 c -0.0023,-0.0385 0.270064,-0.32215 0.403854,-0.42074 0.486295,-0.35841 1.191697,-0.51724 1.815977,-0.40883 0.263443,0.0457 0.576484,0.1492 0.767884,0.25381 0.07908,0.0433 0.143265,0.0691 0.142804,0.0572 8.96e-4,-0.0129 0.02116,-10e-4 0.04833,0.0233 0.02731,0.0246 0.06306,0.0494 0.07912,0.0558 0.06531,0.0249 -0.397132,0.44279 -0.66148,0.59775 -0.633808,0.37129 -1.490548,0.45583 -2.068623,0.2041 -0.209631,-0.0911 -0.525092,-0.30781 -0.527897,-0.3626 z"
         id="path1568"
         inkscape:connector-curvature="0" />
    </g>
  </g>
</svg>
