<?xml version="1.0" encoding="UTF-8" standalone="no"?>
<!-- Created with Inkscape (http://www.inkscape.org/) -->

<svg
   xmlns:osb="http://www.openswatchbook.org/uri/2009/osb"
   xmlns:dc="http://purl.org/dc/elements/1.1/"
   xmlns:cc="http://creativecommons.org/ns#"
   xmlns:rdf="http://www.w3.org/1999/02/22-rdf-syntax-ns#"
   xmlns:svg="http://www.w3.org/2000/svg"
   xmlns="http://www.w3.org/2000/svg"
   xmlns:xlink="http://www.w3.org/1999/xlink"
   xmlns:sodipodi="http://sodipodi.sourceforge.net/DTD/sodipodi-0.dtd"
   xmlns:inkscape="http://www.inkscape.org/namespaces/inkscape"
   width="512"
   height="512"
   viewBox="0 0 135.46666 135.46666"
   version="1.1"
   id="svg4942"
   inkscape:version="0.92.1 r15371"
   sodipodi:docname="audio-input-microphone.svg"
   enable-background="new"
   inkscape:export-filename="/Users/balasakthi/Desktop/d.png"
   inkscape:export-xdpi="96"
   inkscape:export-ydpi="96">
  <defs
     id="defs4936">
    <pattern
       inkscape:collect="always"
       xlink:href="#Packedcircles"
       id="pattern3059"
       patternTransform="matrix(37.795276,0,0,37.795276,23.752083,-526.08906)" />
    <pattern
       inkscape:isstock="true"
       inkscape:stockid="Packed circles"
       id="Packedcircles"
       patternTransform="translate(0,0) scale(10,10)"
       height="1.73205080756"
       width="1"
       patternUnits="userSpaceOnUse"
       inkscape:collect="always">
      <circle
         id="circle2006"
         r="0.5"
         cy="0.5"
         cx="0"
         style="fill:black;stroke:none" />
      <circle
         id="circle2008"
         r="0.5"
         cy="0.5"
         cx="1"
         style="fill:black;stroke:none" />
      <circle
         id="circle2010"
         r="0.5"
         cy="1.36602540378"
         cx="0.5"
         style="fill:black;stroke:none" />
      <circle
         id="circle2012"
         r="0.5"
         cy="-0.366025403784"
         cx="0.5"
         style="fill:black;stroke:none" />
    </pattern>
    <inkscape:path-effect
       effect="skeletal"
       id="path-effect6704"
       is_visible="true"
       pattern="M 0,5 C 0,2.24 2.24,0 5,0 7.76,0 10,2.24 10,5 10,7.76 7.76,10 5,10 2.24,10 0,7.76 0,5 Z"
       copytype="single_stretched"
       prop_scale="0.26458332"
       scale_y_rel="false"
       spacing="0"
       normal_offset="0"
       tang_offset="0"
       prop_units="false"
       vertical_pattern="false"
       fuse_tolerance="0" />
    <inkscape:path-effect
       effect="skeletal"
       id="path-effect6684"
       is_visible="true"
       pattern="m 34.999272,-20.307449 c 0,-2.76 2.24,-5 5,-5 2.76,0 5,2.24 5,5 0,2.76 -2.24,5 -5,5 -2.76,0 -5,-2.24 -5,-5 z"
       copytype="single_stretched"
       prop_scale="0.26458332"
       scale_y_rel="false"
       spacing="0"
       normal_offset="0"
       tang_offset="0"
       prop_units="false"
       vertical_pattern="false"
       fuse_tolerance="0" />
    <linearGradient
       id="linearGradient6211"
       osb:paint="solid">
      <stop
         style="stop-color:#666666;stop-opacity:1;"
         offset="0"
         id="stop6209" />
    </linearGradient>
    <linearGradient
       inkscape:collect="always"
       id="linearGradient4722">
      <stop
         style="stop-color:#b5b5d9;stop-opacity:1"
         offset="0"
         id="stop4718" />
      <stop
         style="stop-color:#717195;stop-opacity:1"
         offset="1"
         id="stop4720" />
    </linearGradient>
    <linearGradient
       inkscape:collect="always"
       id="linearGradient4712">
      <stop
         style="stop-color:#d9d9d9;stop-opacity:1"
         offset="0"
         id="stop4708" />
      <stop
         style="stop-color:#9e9e9e;stop-opacity:1"
         offset="1"
         id="stop4710" />
    </linearGradient>
    <linearGradient
       inkscape:collect="always"
       id="linearGradient927">
      <stop
         style="stop-color:#4d4d4d;stop-opacity:1"
         offset="0"
         id="stop923" />
      <stop
         style="stop-color:#1a1a1a;stop-opacity:1"
         offset="1"
         id="stop925" />
    </linearGradient>
    <inkscape:path-effect
       effect="skeletal"
       id="path-effect4536"
       is_visible="true"
       pattern="m -151.34894,32.250175 c 0,-2.76 2.24,-5 5,-5 2.76,0 5,2.24 5,5 0,2.76 -2.24,5 -5,5 -2.76,0 -5,-2.24 -5,-5 z"
       copytype="single_stretched"
       prop_scale="0.26458332"
       scale_y_rel="false"
       spacing="0"
       normal_offset="0"
       tang_offset="0"
       prop_units="false"
       vertical_pattern="false"
       fuse_tolerance="0" />
    <inkscape:path-effect
       effect="spiro"
       id="path-effect4534"
       is_visible="true" />
    <inkscape:path-effect
       effect="skeletal"
       id="path-effect4530"
       is_visible="true"
       pattern="m -140.30158,26.358245 c 0,-2.76 2.24,-5 5,-5 2.76,0 5,2.24 5,5 0,2.76 -2.24,5 -5,5 -2.76,0 -5,-2.24 -5,-5 z"
       copytype="single_stretched"
       prop_scale="0.26458332"
       scale_y_rel="false"
       spacing="0"
       normal_offset="0"
       tang_offset="0"
       prop_units="false"
       vertical_pattern="false"
       fuse_tolerance="0" />
    <inkscape:path-effect
       effect="spiro"
       id="path-effect4528"
       is_visible="true" />
    <linearGradient
       id="linearGradient6987"
       osb:paint="solid">
      <stop
         style="stop-color:#77d2fb;stop-opacity:1;"
         offset="0"
         id="stop6985" />
    </linearGradient>
    <linearGradient
       inkscape:collect="always"
       xlink:href="#linearGradient927"
       id="linearGradient929"
       x1="-23.584837"
       y1="124.83982"
       x2="55.269161"
       y2="226.61882"
       gradientUnits="userSpaceOnUse"
       gradientTransform="translate(20.872486,-5.0645257)" />
    <linearGradient
       inkscape:collect="always"
       xlink:href="#linearGradient4712"
       id="linearGradient6655"
       x1="41.329525"
       y1="193.12444"
       x2="40.415813"
       y2="229.42439"
       gradientUnits="userSpaceOnUse"
       gradientTransform="translate(44.942408,17.793215)" />
    <radialGradient
       inkscape:collect="always"
       xlink:href="#linearGradient4722"
       id="radialGradient995"
       gradientUnits="userSpaceOnUse"
       gradientTransform="matrix(1.732366,6.7237746e-8,-1.2777002e-7,3.1993016,-9.048966,-430.24476)"
       cx="45.080494"
       cy="197.81818"
       fx="45.080494"
       fy="197.81818"
       r="12.209988" />
    <linearGradient
       inkscape:collect="always"
       xlink:href="#linearGradient927"
       id="linearGradient1000"
       gradientUnits="userSpaceOnUse"
       gradientTransform="matrix(1.7323525,0,0,1.5684373,-8.705908,-100.98935)"
       x1="31.906157"
       y1="198.38533"
       x2="56.32613"
       y2="198.38533" />
    <linearGradient
       inkscape:collect="always"
       xlink:href="#linearGradient927"
       id="linearGradient1096"
       x1="58.177284"
       y1="192.12115"
       x2="60.816216"
       y2="192.12115"
       gradientUnits="userSpaceOnUse"
       gradientTransform="matrix(4.8936064,0,0,1.1792323,-268.56869,-32.604489)" />
    <pattern
       patternUnits="userSpaceOnUse"
       width="92.29597"
       height="218.68324"
       patternTransform="matrix(0.26458333,0,0,0.26458333,-6.2844052,139.1944)"
       id="pattern3056">
      <rect
         rx="46.147984"
         ry="41.019329"
         y="0"
         x="0"
         height="218.68324"
         width="92.295967"
         id="rect3029"
         style="opacity:1;fill:url(#pattern3059);fill-opacity:1;fill-rule:evenodd;stroke:none;stroke-width:4.11493444;stroke-miterlimit:4;stroke-dasharray:none;stroke-dashoffset:0;stroke-opacity:1" />
    </pattern>
    <pattern
       patternUnits="userSpaceOnUse"
       width="5.6692913"
       height="5.6692913"
       patternTransform="matrix(0.26458333,0,0,0.26458333,-24.205982,181.55742)"
       id="pattern3285">
      <circle
         r="2.8346457"
         cy="2.8346457"
         cx="2.8346457"
         id="path3283"
         style="opacity:1;fill:#333333;fill-opacity:1;fill-rule:nonzero;stroke:none;stroke-width:1.52925587;stroke-linecap:round;stroke-linejoin:round;stroke-miterlimit:4;stroke-dasharray:none;stroke-opacity:1" />
    </pattern>
    <filter
       style="color-interpolation-filters:sRGB;"
       inkscape:label="Dots Transparency"
       id="filter12555"
       inkscape:menu="Overlays"
       inkscape:menu-tooltip="Gives a pointillist HSL sensitive transparency">
      <feBlend
         in2="BackgroundImage"
         mode="multiply"
         result="fbSourceGraphic"
         id="feBlend12553" />
      <feColorMatrix
         result="fbSourceGraphicAlpha"
         in="fbSourceGraphic"
         values="0 0 0 -1 0 0 0 0 -1 0 0 0 0 -1 0 0 0 0 1 0"
         id="feColorMatrix12891" />
      <feTurbulence
         id="feTurbulence12893"
         result="result1"
         numOctaves="3"
         baseFrequency="1"
         type="fractalNoise"
         seed="50"
         in="fbSourceGraphic" />
      <feColorMatrix
         id="feColorMatrix12895"
         result="result0"
         in="fbSourceGraphic"
         type="luminanceToAlpha" />
      <feColorMatrix
         id="feColorMatrix12897"
         values="1 0 0 0 0 0 1 0 0 0 0 0 1 0 0 0 0 0 0.7 0 "
         result="result2" />
      <feComposite
         in2="result2"
         id="feComposite12899"
         in="result1"
         operator="over"
         result="result3" />
      <feColorMatrix
         id="feColorMatrix12901"
         values="1 0 0 0 0 0 1 0 0 0 0 0 1 0 0 0 0 0 5 -3.2 "
         result="result91" />
      <feComposite
         in2="result91"
         id="feComposite12903"
         operator="out"
         in="fbSourceGraphic"
         result="result4" />
    </filter>
    <radialGradient
       inkscape:collect="always"
       xlink:href="#linearGradient4712"
       id="radialGradient4699"
       gradientUnits="userSpaceOnUse"
       gradientTransform="matrix(1.732366,6.7237744e-8,-1.2777002e-7,3.1993017,-9.048769,-430.24453)"
       cx="44.750381"
       cy="202.28694"
       fx="44.750381"
       fy="202.28694"
       r="12.209988" />
    <filter
       inkscape:collect="always"
       style="color-interpolation-filters:sRGB"
       id="filter4750"
       x="-0.033950528"
       width="1.0679011"
       y="-0.018560207"
       height="1.0371204">
      <feGaussianBlur
         inkscape:collect="always"
         stdDeviation="1.0016622"
         id="feGaussianBlur4752" />
    </filter>
    <radialGradient
       inkscape:collect="always"
       xlink:href="#linearGradient4712"
       id="radialGradient4783"
       cx="64.085434"
       cy="250.51729"
       fx="64.085434"
       fy="250.51729"
       r="35.404301"
       gradientTransform="matrix(1,0,0,1.1913346,0,-47.782661)"
       gradientUnits="userSpaceOnUse" />
  </defs>
  <sodipodi:namedview
     id="base"
     pagecolor="#ffffff"
     bordercolor="#666666"
     borderopacity="1.0"
     inkscape:pageopacity="0.0"
     inkscape:pageshadow="2"
     inkscape:zoom="0.65429745"
     inkscape:cx="226.61966"
     inkscape:cy="295.43934"
     inkscape:document-units="mm"
     inkscape:current-layer="layer1"
     showgrid="false"
     units="px"
     width="128px"
     inkscape:window-width="1600"
     inkscape:window-height="837"
     inkscape:window-x="-8"
     inkscape:window-y="-8"
     inkscape:window-maximized="1"
     inkscape:measure-start="-293.521,100.415"
     inkscape:measure-end="-294.709,409.978" />
  <metadata
     id="metadata4939">
    <rdf:RDF>
      <cc:Work
         rdf:about="">
        <dc:format>image/svg+xml</dc:format>
        <dc:type
           rdf:resource="http://purl.org/dc/dcmitype/StillImage" />
        <dc:title />
      </cc:Work>
    </rdf:RDF>
  </metadata>
  <g
     inkscape:label="Layer 1"
     inkscape:groupmode="layer"
     id="layer1"
     transform="translate(0,-161.53332)">
    <g
       id="g4798">
      <g
         transform="translate(-18.90236,-6.8204124)"
         style="fill:#808080;filter:url(#filter4750)"
         id="g4744">
        <circle
           r="0"
           cy="202.88805"
           cx="41.487354"
           id="circle4734"
           style="opacity:1;fill:#808080;fill-opacity:1;stroke:none;stroke-width:1.30081987;stroke-linecap:round;stroke-linejoin:round;stroke-miterlimit:4;stroke-dasharray:none;stroke-opacity:1" />
        <path
           inkscape:connector-curvature="0"
           d="m 54.890774,216.49277 c -1.23695,0.0216 -2.45796,0.68255 -3.10472,1.97301 -0.34812,0.69457 -0.38999,1.65573 -0.50592,11.72642 -0.13316,11.5593 -0.0227,14.40161 0.6997,17.96944 1.41276,6.97735 5.08735,13.65052 10.17561,18.48001 2.38628,2.26492 3.52047,3.03013 7.4197,5.00796 4.04575,2.05216 7.04683,3.12675 10.55026,3.77755 1.30526,0.24247 2.5128,0.51389 2.68356,0.60306 0.26206,0.13711 0.30419,0.81192 0.26923,4.37958 -0.0807,8.23602 -0.28894,12.58999 -0.61753,12.91859 -0.25213,0.25208 -1.38066,0.30231 -6.81354,0.30231 -7.10364,0 -7.33942,0.0328 -8.42946,1.19269 -1.50903,1.60576 -0.89672,4.59756 1.14929,5.61465 0.8845,0.43964 0.90001,0.44045 18.49447,0.38705 l 17.609266,-0.0537 0.78289,-0.59738 c 0.93844,-0.71586 1.55476,-1.9752 1.56063,-3.1905 0.006,-1.12558 -0.41011,-1.93218 -1.37563,-2.66909 l -0.76016,-0.58033 -6.906546,-0.10335 c -5.58758,-0.0837 -6.94028,-0.1586 -7.08381,-0.39119 -0.19653,-0.31846 -0.42631,-6.33663 -0.48989,-12.83023 -0.035,-3.56767 0.007,-4.24248 0.26924,-4.37957 0.17075,-0.0892 1.3778,-0.36009 2.68304,-0.60255 3.50344,-0.65082 6.50502,-1.72538 10.550766,-3.77755 3.8526,-1.95419 5.00049,-2.72296 7.28741,-4.88032 5.16933,-4.87647 8.88601,-11.58585 10.3079,-18.60816 0.7206,-3.55866 0.82864,-6.37684 0.69298,-17.99581 -0.12503,-10.70712 -0.14134,-11.05755 -0.56379,-11.81064 -1.12984,-2.01421 -3.70194,-2.47641 -5.47564,-0.98392 -1.21643,1.02357 -1.22652,1.12371 -1.36632,14.35364 -0.0983,9.30767 -0.19849,12.49715 -0.43615,13.86737 -1.98249,11.42989 -10.63041,20.26616 -22.231706,22.71748 -2.45756,0.5193 -8.09787,0.5193 -10.55543,0 -11.60609,-2.45233 -20.24932,-11.28673 -22.23379,-22.72781 -0.23897,-1.37779 -0.34369,-4.62914 -0.45527,-14.11956 -0.14131,-12.01169 -0.15641,-12.35001 -0.58084,-13.10669 -0.71056,-1.26671 -1.96288,-1.88406 -3.1998,-1.86242 z m 10.42882,4.99298 v 0.40411 c 0.0323,-0.0204 0.0669,-0.0326 0.10232,-0.0372 -0.0254,-0.0929 -0.0809,-0.28758 -0.10232,-0.3669 z m 41.105496,26.27798 c -0.005,10e-4 -0.0102,0.008 -0.0145,0.0233 -0.0406,0.14393 -0.0298,0.31882 0,0.50436 0.0212,-0.0434 0.044,-0.082 0.0636,-0.12919 0.0426,-0.10249 -0.0118,-0.40586 -0.0491,-0.39842 z m 0.23461,0.64183 c -0.0606,0.0677 -0.11873,0.13453 -0.18552,0.20515 0.0138,0.0595 0.0246,0.11628 0.0388,0.1757 0.0508,-0.12576 0.098,-0.25376 0.14676,-0.38085 z m -23.671936,11.19879 c 0.0766,0.0823 0.15478,0.16256 0.24081,0.23462 0.0448,0.0375 -0.0383,-0.12031 -0.0873,-0.15193 -0.049,-0.0316 -0.10068,-0.058 -0.15348,-0.0827 z"
           style="fill:#808080;fill-opacity:1;stroke-width:0.20697737"
           id="path4736" />
        <rect
           style="opacity:1;fill:#808080;fill-opacity:1;fill-rule:evenodd;stroke:none;stroke-width:1.8002919;stroke-miterlimit:4;stroke-dasharray:none;stroke-dashoffset:0;stroke-opacity:1"
           id="rect4738"
           width="42.304337"
           height="91.321564"
           x="65.497849"
           y="171.32515"
           ry="19.988951"
           rx="21.152168" />
        <rect
           style="opacity:1;fill:#808080;fill-opacity:1;fill-rule:evenodd;stroke:none;stroke-width:1.66108763;stroke-miterlimit:4;stroke-dasharray:none;stroke-dashoffset:0;stroke-opacity:1"
           id="rect4740"
           width="42.304001"
           height="10.869259"
           x="65.46917"
           y="213.66794"
           ry="0" />
        <path
           inkscape:connector-curvature="0"
           id="path4742"
           d="m 65.497817,224.36637 v 18.29139 c 0,11.07388 9.433896,19.98896 21.152197,19.98896 11.7183,0 21.152196,-8.91508 21.152196,-19.98896 v -18.29139 z"
           style="opacity:1;fill:#808080;fill-opacity:1;fill-rule:evenodd;stroke:none;stroke-width:1.80029178;stroke-miterlimit:4;stroke-dasharray:none;stroke-dashoffset:0;stroke-opacity:1" />
      </g>
      <circle
         r="0"
         cy="193.95097"
         cx="22.584993"
         id="path1084"
         style="opacity:1;fill:url(#linearGradient1096);fill-opacity:1;stroke:none;stroke-width:1.30081987;stroke-linecap:round;stroke-linejoin:round;stroke-miterlimit:4;stroke-dasharray:none;stroke-opacity:1" />
      <path
         inkscape:connector-curvature="0"
         d="m 35.988414,207.55569 c -1.23695,0.0216 -2.45796,0.68255 -3.10472,1.97301 -0.34812,0.69457 -0.38999,1.65573 -0.50592,11.72642 -0.13316,11.5593 -0.0227,14.40161 0.6997,17.96944 1.41276,6.97735 5.08735,13.65052 10.17561,18.48001 2.38628,2.26492 3.52047,3.03013 7.4197,5.00796 4.04575,2.05216 7.04683,3.12675 10.55026,3.77755 1.30526,0.24247 2.5128,0.51389 2.68356,0.60306 0.26206,0.13711 0.30419,0.81192 0.26923,4.37958 -0.0807,8.23602 -0.28894,12.58999 -0.61753,12.91859 -0.25213,0.25208 -1.38066,0.30231 -6.81354,0.30231 -7.10364,0 -7.33942,0.0328 -8.42946,1.19269 -1.50903,1.60576 -0.89672,4.59756 1.14929,5.61465 0.8845,0.43964 0.90001,0.44045 18.49447,0.38705 l 17.609266,-0.0537 0.78289,-0.59738 c 0.93844,-0.71586 1.55476,-1.9752 1.56063,-3.1905 0.006,-1.12558 -0.41011,-1.93218 -1.37563,-2.66909 l -0.76016,-0.58033 -6.906546,-0.10335 c -5.58758,-0.0837 -6.94028,-0.1586 -7.08381,-0.39119 -0.19653,-0.31846 -0.42631,-6.33663 -0.48989,-12.83023 -0.035,-3.56767 0.007,-4.24248 0.26924,-4.37957 0.17075,-0.0892 1.3778,-0.36009 2.68304,-0.60255 3.50344,-0.65082 6.50502,-1.72538 10.550766,-3.77755 3.8526,-1.95419 5.00049,-2.72296 7.28741,-4.88032 5.16933,-4.87647 8.88601,-11.58585 10.3079,-18.60816 0.7206,-3.55866 0.82864,-6.37684 0.69298,-17.99581 -0.12503,-10.70712 -0.14134,-11.05755 -0.56379,-11.81064 -1.12984,-2.01421 -3.70194,-2.47641 -5.47564,-0.98392 -1.21643,1.02357 -1.22652,1.12371 -1.36632,14.35364 -0.0983,9.30767 -0.19849,12.49715 -0.43615,13.86737 -1.98249,11.42989 -10.63041,20.26616 -22.231706,22.71748 -2.45756,0.5193 -8.09787,0.5193 -10.55543,0 -11.60609,-2.45233 -20.24932,-11.28673 -22.23379,-22.72781 -0.23897,-1.37779 -0.34369,-4.62914 -0.45527,-14.11956 -0.14131,-12.01169 -0.15641,-12.35001 -0.58084,-13.10669 -0.71056,-1.26671 -1.96288,-1.88406 -3.1998,-1.86242 z m 10.42882,4.99298 v 0.40411 c 0.0323,-0.0204 0.0669,-0.0326 0.10232,-0.0372 -0.0254,-0.0929 -0.0809,-0.28758 -0.10232,-0.3669 z m 41.105496,26.27798 c -0.005,0.001 -0.0102,0.008 -0.0145,0.0233 -0.0406,0.14393 -0.0298,0.31882 0,0.50436 0.0212,-0.0434 0.044,-0.082 0.0636,-0.12919 0.0426,-0.10249 -0.0118,-0.40586 -0.0491,-0.39842 z m 0.23461,0.64183 c -0.0606,0.0677 -0.11873,0.13453 -0.18552,0.20515 0.0138,0.0595 0.0246,0.11628 0.0388,0.1757 0.0508,-0.12576 0.098,-0.25376 0.14676,-0.38085 z m -23.671936,11.19879 c 0.0766,0.0823 0.15478,0.16256 0.24081,0.23462 0.0448,0.0375 -0.0383,-0.12031 -0.0873,-0.15193 -0.049,-0.0316 -0.10068,-0.058 -0.15348,-0.0827 z"
         style="fill:url(#radialGradient4783);fill-opacity:1;stroke-width:0.20697737"
         id="path4630" />
      <rect
         style="opacity:1;fill:url(#radialGradient995);fill-opacity:1;fill-rule:evenodd;stroke:none;stroke-width:1.8002919;stroke-miterlimit:4;stroke-dasharray:none;stroke-dashoffset:0;stroke-opacity:1"
         id="rect993"
         width="42.304337"
         height="91.321564"
         x="46.59549"
         y="162.38808"
         ry="19.988951"
         rx="21.152168" />
      <rect
         style="opacity:1;fill:url(#linearGradient1000);fill-opacity:1;fill-rule:evenodd;stroke:none;stroke-width:1.66108763;stroke-miterlimit:4;stroke-dasharray:none;stroke-dashoffset:0;stroke-opacity:1"
         id="rect998"
         width="42.304001"
         height="10.869259"
         x="46.566811"
         y="204.73087"
         ry="0" />
      <path
         inkscape:connector-curvature="0"
         id="rect4695"
         d="m 46.595457,215.42929 v 18.29139 c 0,11.07388 9.433896,19.98896 21.152197,19.98896 11.7183,0 21.152196,-8.91508 21.152196,-19.98896 v -18.29139 z"
         style="opacity:1;fill:url(#radialGradient4699);fill-opacity:1;fill-rule:evenodd;stroke:none;stroke-width:1.80029178;stroke-miterlimit:4;stroke-dasharray:none;stroke-dashoffset:0;stroke-opacity:1" />
    </g>
  </g>
</svg>
