<?xml version="1.0" encoding="UTF-8" standalone="no"?>
<!-- Created with Inkscape (http://www.inkscape.org/) -->

<svg
   xmlns:osb="http://www.openswatchbook.org/uri/2009/osb"
   xmlns:dc="http://purl.org/dc/elements/1.1/"
   xmlns:cc="http://creativecommons.org/ns#"
   xmlns:rdf="http://www.w3.org/1999/02/22-rdf-syntax-ns#"
   xmlns:svg="http://www.w3.org/2000/svg"
   xmlns="http://www.w3.org/2000/svg"
   xmlns:xlink="http://www.w3.org/1999/xlink"
   xmlns:sodipodi="http://sodipodi.sourceforge.net/DTD/sodipodi-0.dtd"
   xmlns:inkscape="http://www.inkscape.org/namespaces/inkscape"
   width="512"
   height="512"
   viewBox="0 0 135.46666 135.46666"
   version="1.1"
   id="svg4942"
   inkscape:version="0.92.2 5c3e80d, 2017-08-06"
   sodipodi:docname="network-modem.svg">
  <defs
     id="defs4936">
    <linearGradient
       id="linearGradient1203"
       inkscape:collect="always">
      <stop
         id="stop1199"
         offset="0"
         style="stop-color:#626466;stop-opacity:1" />
      <stop
         id="stop1201"
         offset="1"
         style="stop-color:#929799;stop-opacity:1" />
    </linearGradient>
    <linearGradient
       id="linearGradient1102"
       inkscape:collect="always">
      <stop
         id="stop1098"
         offset="0"
         style="stop-color:#5cc3f5;stop-opacity:1" />
      <stop
         id="stop1100"
         offset="1"
         style="stop-color:#2058c1;stop-opacity:1" />
    </linearGradient>
    <linearGradient
       inkscape:collect="always"
       id="linearGradient1062">
      <stop
         style="stop-color:#1a1a1a;stop-opacity:1"
         offset="0"
         id="stop1058" />
      <stop
         style="stop-color:#4d4d4d;stop-opacity:1"
         offset="1"
         id="stop1060" />
    </linearGradient>
    <linearGradient
       inkscape:collect="always"
       id="linearGradient5420">
      <stop
         style="stop-color:#d5e3e8;stop-opacity:1"
         offset="0"
         id="stop5416" />
      <stop
         style="stop-color:#a0a0a1;stop-opacity:1"
         offset="1"
         id="stop5418" />
    </linearGradient>
    <linearGradient
       inkscape:collect="always"
       id="linearGradient5408">
      <stop
         style="stop-color:#dfe5e8;stop-opacity:1"
         offset="0"
         id="stop5404" />
      <stop
         style="stop-color:#c3cacc;stop-opacity:1"
         offset="1"
         id="stop5406" />
    </linearGradient>
    <linearGradient
       inkscape:collect="always"
       id="linearGradient5400">
      <stop
         style="stop-color:#ffc220;stop-opacity:1"
         offset="0"
         id="stop5396" />
      <stop
         style="stop-color:#ec9c01;stop-opacity:1"
         offset="1"
         id="stop5398" />
    </linearGradient>
    <linearGradient
       id="linearGradient6987"
       osb:paint="solid">
      <stop
         style="stop-color:#77d2fb;stop-opacity:1;"
         offset="0"
         id="stop6985" />
    </linearGradient>
    <linearGradient
       inkscape:collect="always"
       xlink:href="#linearGradient5400"
       id="linearGradient5402"
       x1="501.82697"
       y1="216.4304"
       x2="502.79834"
       y2="324.15189"
       gradientUnits="userSpaceOnUse"
       gradientTransform="matrix(0.98234604,0,0,0.98234604,53.779984,3.8160362)" />
    <radialGradient
       inkscape:collect="always"
       xlink:href="#linearGradient5408"
       id="radialGradient885"
       gradientUnits="userSpaceOnUse"
       gradientTransform="matrix(0.77936341,1.6769433e-8,0,0.15640715,-323.99073,220.93453)"
       cx="502.62054"
       cy="372.05499"
       fx="502.62054"
       fy="372.05499"
       r="74.884071" />
    <linearGradient
       inkscape:collect="always"
       xlink:href="#linearGradient5420"
       id="linearGradient887"
       gradientUnits="userSpaceOnUse"
       gradientTransform="matrix(0.82694623,0,0,0.3984321,-347.90684,133.99226)"
       x1="496.5524"
       y1="216.14406"
       x2="504.37988"
       y2="349.10312" />
    <linearGradient
       inkscape:collect="always"
       xlink:href="#linearGradient1062"
       id="linearGradient1064"
       x1="-131.74892"
       y1="253.7364"
       x2="-131.53128"
       y2="261.35349"
       gradientUnits="userSpaceOnUse"
       gradientTransform="matrix(1.0854915,0,0,1.0854915,206.02096,2.3791409)" />
    <linearGradient
       inkscape:collect="always"
       xlink:href="#linearGradient1062"
       id="linearGradient1072"
       x1="-129.64821"
       y1="210.32336"
       x2="-129.71196"
       y2="212.58661"
       gradientUnits="userSpaceOnUse"
       gradientTransform="matrix(1.0854915,0,0,0.66129233,206.99067,83.458485)" />
    <linearGradient
       inkscape:collect="always"
       xlink:href="#linearGradient1102"
       id="linearGradient1096"
       x1="-134.18683"
       y1="203.67957"
       x2="-134.40288"
       y2="243.6904"
       gradientUnits="userSpaceOnUse"
       gradientTransform="matrix(1.0854915,0,0,1.0854915,206.02096,2.3791463)" />
    <linearGradient
       inkscape:collect="always"
       xlink:href="#linearGradient1203"
       id="linearGradient1197"
       x1="-162.3624"
       y1="150.0808"
       x2="-159.34781"
       y2="200.60846"
       gradientUnits="userSpaceOnUse"
       gradientTransform="matrix(1.0854915,0,0,1.0854915,206.02096,2.3791409)" />
    <linearGradient
       inkscape:collect="always"
       xlink:href="#linearGradient1203"
       id="linearGradient1207"
       gradientUnits="userSpaceOnUse"
       x1="-162.3624"
       y1="150.0808"
       x2="-159.34781"
       y2="200.60846"
       gradientTransform="matrix(1.0854915,0,0,1.0854915,281.5248,2.3791409)" />
    <filter
       inkscape:collect="always"
       style="color-interpolation-filters:sRGB"
       id="filter1262"
       x="-0.023947168"
       width="1.0478943"
       y="-0.024053065"
       height="1.0481061">
      <feGaussianBlur
         inkscape:collect="always"
         stdDeviation="1.1403609"
         id="feGaussianBlur1264" />
    </filter>
  </defs>
  <sodipodi:namedview
     id="base"
     pagecolor="#ffffff"
     bordercolor="#666666"
     borderopacity="1.0"
     inkscape:pageopacity="0.0"
     inkscape:pageshadow="2"
     inkscape:zoom="0.69177731"
     inkscape:cx="-149.24632"
     inkscape:cy="171.95326"
     inkscape:document-units="mm"
     inkscape:current-layer="layer1"
     showgrid="false"
     units="px"
     width="128px"
     inkscape:window-width="1600"
     inkscape:window-height="805"
     inkscape:window-x="13"
     inkscape:window-y="0"
     inkscape:window-maximized="0" />
  <metadata
     id="metadata4939">
    <rdf:RDF>
      <cc:Work
         rdf:about="">
        <dc:format>image/svg+xml</dc:format>
        <dc:type
           rdf:resource="http://purl.org/dc/dcmitype/StillImage" />
        <dc:title />
      </cc:Work>
    </rdf:RDF>
  </metadata>
  <g
     inkscape:label="Layer 1"
     inkscape:groupmode="layer"
     id="layer1"
     transform="translate(0,-161.53332)">
    <g
       id="g954">
      <g
         style="fill:#808080;filter:url(#filter1262)"
         id="g1256"
         transform="matrix(1.0854915,0,0,1.0854915,206.02096,4.676766)">
        <path
           style="opacity:1;fill:#808080;fill-opacity:1;stroke:none;stroke-width:3.03923535;stroke-miterlimit:4;stroke-dasharray:none;stroke-opacity:1"
           d="m -182.61193,242.21391 c -1.99347,0.27804 -1.94722,2.88318 -1.73112,5.48578 0.078,3.37664 0.30147,7.29494 0.67443,10.80988 0.20438,2.92106 2.43183,5.28425 5.45253,5.28425 h 0.3233 7.67534 85.31896 0.3233 7.67535 0.3233 c 3.02069,0 5.24816,-2.36319 5.45254,-5.28425 0.37296,-3.51494 0.59641,-7.43324 0.67442,-10.80988 0.21611,-2.6026 0.26236,-5.20774 -1.7311,-5.48578 h -7.99829 -43.2182 -7.99829 -43.2182 z"
           id="path1226"
           inkscape:connector-curvature="0" />
        <path
           inkscape:connector-curvature="0"
           id="path1228"
           d="m -170.25547,199.69108 c -1.14898,-9.9e-4 -2.14277,0.0929 -2.95024,0.29074 -1.31371,0.2403 -1.87017,0.69072 -2.24909,1.42437 l -9.06488,47.3828 c -0.0445,0.23265 -0.0154,0.45841 0.0768,0.67392 0.0369,0.0862 0.0837,0.17078 0.14014,0.25345 0.0282,0.0413 0.0589,0.0822 0.0917,0.12255 0.0985,0.12108 0.21774,0.23768 0.3551,0.349 0.22893,0.18554 0.50847,0.35648 0.82869,0.50923 0.0641,0.0305 0.12964,0.0603 0.19684,0.0893 0.33606,0.14537 0.7107,0.27178 1.11332,0.3758 0.0805,0.0208 0.1618,0.0408 0.24449,0.0598 0.74413,0.17083 1.57268,0.26646 2.42546,0.26646 h 103.30163 c 1.98952,0 3.84725,-0.52138 4.8088,-1.30065 0.13736,-0.11132 0.25655,-0.22792 0.35509,-0.349 0.0328,-0.0403 0.0635,-0.0812 0.0917,-0.12255 0.0564,-0.0827 0.10331,-0.16725 0.14015,-0.25345 0.0922,-0.21551 0.12132,-0.44127 0.0768,-0.67392 l -9.06488,-47.3828 c -0.37892,-0.73365 -0.93538,-1.18407 -2.24909,-1.42437 -0.80747,-0.19784 -1.80166,-0.29174 -2.95062,-0.29074 l -42.85877,0.0348 z"
           style="opacity:1;fill:#808080;fill-opacity:1;stroke:none;stroke-width:2.51590037;stroke-miterlimit:4;stroke-dasharray:none;stroke-opacity:1" />
        <path
           style="fill:#808080;fill-opacity:1;stroke:none;stroke-width:0.18828826px;stroke-linecap:butt;stroke-linejoin:miter;stroke-opacity:1"
           d="m -93.103972,150.01154 c -0.75332,0.0792 -1.34317,1.96612 -1.39307,3.1533 -0.71262,16.95571 -1.32265,47.44362 -1.32265,47.44362 h 1.17977 3.66965 1.17975 c 0,0 -0.61004,-30.48791 -1.32264,-47.44362 -0.0564,-1.34017 -0.80109,-3.56772 -1.69194,-3.08405 -0.10165,-0.0552 -0.20184,-0.0794 -0.29887,-0.0692 z"
           id="path1230"
           inkscape:connector-curvature="0" />
        <path
           inkscape:connector-curvature="0"
           id="path1232"
           d="m -162.66126,150.01154 c -0.75332,0.0792 -1.34317,1.96612 -1.39307,3.1533 -0.71262,16.95571 -1.32265,47.44362 -1.32265,47.44362 h 1.17977 3.66965 1.17975 c 0,0 -0.61004,-30.48791 -1.32264,-47.44362 -0.0564,-1.34017 -0.80109,-3.56772 -1.69194,-3.08405 -0.10165,-0.0552 -0.20184,-0.0794 -0.29887,-0.0692 z"
           style="fill:#808080;fill-opacity:1;stroke:none;stroke-width:0.18828826px;stroke-linecap:butt;stroke-linejoin:miter;stroke-opacity:1" />
        <path
           style="opacity:1;fill:#808080;fill-opacity:1;stroke:none;stroke-width:2.48635578;stroke-miterlimit:4;stroke-dasharray:none;stroke-opacity:1"
           d="m -170.25547,199.69108 c -1.14898,-9.7e-4 -2.14277,0.0907 -2.95024,0.28395 -1.31371,0.23468 -1.87017,0.67459 -2.24909,1.39111 l -9.06488,46.27649 c -0.0445,0.22721 -0.0154,0.4477 0.0768,0.65818 0.0369,0.0842 0.0837,0.1668 0.14014,0.24753 0.0282,0.0404 0.0589,0.0803 0.0917,0.11969 0.0985,0.11826 0.21774,0.23213 0.3551,0.34085 0.22893,0.18121 0.50847,0.34817 0.82869,0.49734 0.0641,0.0298 0.12964,0.0589 0.19684,0.0873 0.33606,0.14198 0.7107,0.26543 1.11332,0.36703 0.0805,0.0203 0.1618,0.0399 0.24449,0.0584 0.74413,0.16685 1.57268,0.26024 2.42546,0.26024 h 103.30163 c 1.98952,0 3.84725,-0.5092 4.8088,-1.27029 0.13736,-0.10872 0.25655,-0.22259 0.35509,-0.34085 0.0328,-0.0394 0.0635,-0.0793 0.0917,-0.11969 0.0564,-0.0807 0.10331,-0.16334 0.14015,-0.24753 0.0922,-0.21048 0.12132,-0.43097 0.0768,-0.65818 l -9.06488,-46.27649 c -0.37892,-0.71652 -0.93538,-1.15643 -2.24909,-1.39111 -0.80747,-0.19322 -1.80166,-0.28493 -2.95062,-0.28395 l -42.85877,0.034 z"
           id="path1234"
           inkscape:connector-curvature="0" />
        <rect
           ry="2.536891"
           y="253.30115"
           x="-168.96368"
           height="8.269948"
           width="83.134743"
           id="rect1236"
           style="opacity:1;fill:#808080;fill-opacity:1;fill-rule:nonzero;stroke:none;stroke-width:1;stroke-linecap:round;stroke-linejoin:round;stroke-miterlimit:4;stroke-dasharray:none;stroke-opacity:1" />
        <circle
           r="2.5"
           style="opacity:1;fill:#808080;fill-opacity:1;stroke:none;stroke-width:0.98031777;stroke-linecap:round;stroke-miterlimit:4;stroke-dasharray:none;stroke-opacity:1"
           id="circle1238"
           cx="-162.36832"
           cy="257.43613" />
        <circle
           cy="257.43613"
           cx="-155.40414"
           id="circle1240"
           style="opacity:1;fill:#808080;fill-opacity:1;stroke:none;stroke-width:0.98031777;stroke-linecap:round;stroke-miterlimit:4;stroke-dasharray:none;stroke-opacity:1"
           r="2.5" />
        <circle
           r="2.5"
           style="opacity:1;fill:#808080;fill-opacity:1;stroke:none;stroke-width:0.98031777;stroke-linecap:round;stroke-miterlimit:4;stroke-dasharray:none;stroke-opacity:1"
           id="circle1242"
           cx="-148.4549"
           cy="257.43613" />
        <circle
           r="2.5"
           style="opacity:1;fill:#808080;fill-opacity:1;stroke:none;stroke-width:0.98031777;stroke-linecap:round;stroke-miterlimit:4;stroke-dasharray:none;stroke-opacity:1"
           id="circle1244"
           cx="-99.581985"
           cy="257.43613" />
        <circle
           cy="257.43613"
           cx="-92.632751"
           id="circle1246"
           style="opacity:1;fill:#808080;fill-opacity:1;stroke:none;stroke-width:0.98031777;stroke-linecap:round;stroke-miterlimit:4;stroke-dasharray:none;stroke-opacity:1"
           r="2.5" />
        <path
           id="path1248"
           transform="matrix(0.26458333,0,0,0.26458333,0,161.53332)"
           d="m -625.04688,145.68555 c -3.8042,-0.003 -7.09604,0.30621 -9.76953,0.96093 -4.34967,0.79537 -6.19066,2.28639 -7.44531,4.71485 l -30.01367,156.8457 c -0.1474,0.77012 -0.0515,1.51708 0.25391,2.23047 0.12207,0.28535 0.2779,0.56621 0.46484,0.83984 0.0933,0.13682 0.19388,0.27077 0.30273,0.4043 0.3258,0.4009 0.72103,0.78778 1.17579,1.15625 0.75802,0.61417 1.6839,1.17996 2.74414,1.68555 0.21241,0.10091 0.42973,0.19892 0.65234,0.29492 1.11269,0.48125 2.35254,0.89975 3.68555,1.24414 0.26607,0.0688 0.5348,0.13648 0.80859,0.19922 2.46376,0.56545 5.20772,0.88086 8.03125,0.88086 h 77.45313 a 97.882193,66.253679 0 0 1 93.56054,-46.80469 97.882193,66.253679 0 0 1 93.4668,46.80469 h 77.54687 c 6.58721,0 12.73826,-1.72516 15.92188,-4.30469 0.45498,-0.36888 0.84953,-0.75348 1.17578,-1.1543 0.10866,-0.13341 0.2093,-0.26935 0.30273,-0.40625 0.18683,-0.27363 0.34301,-0.55452 0.46485,-0.83984 0.30516,-0.71339 0.4014,-1.46039 0.2539,-2.23047 l -30.01367,-156.84375 c -1.25457,-2.42853 -3.09765,-3.91944 -7.44726,-4.71484 -2.67353,-0.65488 -5.96535,-0.96622 -9.76953,-0.96289 l -141.90235,0.11523 z"
           style="opacity:1;fill:#808080;fill-opacity:1;stroke:none;stroke-width:8.32903576;stroke-miterlimit:4;stroke-dasharray:none;stroke-opacity:1"
           inkscape:connector-curvature="0" />
        <rect
           ry="0.75"
           y="202.54352"
           x="-161.07132"
           height="1.5"
           width="66.47953"
           id="rect1250"
           style="opacity:0.8;fill:#808080;fill-opacity:1;fill-rule:nonzero;stroke:none;stroke-width:0.78051907;stroke-linecap:round;stroke-linejoin:round;stroke-miterlimit:4;stroke-dasharray:none;stroke-opacity:1" />
        <text
           transform="scale(1.1708576,0.85407483)"
           id="text1254"
           y="286.09293"
           x="-116.20323"
           style="font-style:normal;font-weight:normal;font-size:9.96419048px;line-height:1.25;font-family:sans-serif;letter-spacing:0px;word-spacing:0px;fill:#808080;fill-opacity:1;stroke:none;stroke-width:0.24910475"
           xml:space="preserve"><tspan
             style="font-size:3.98567605px;fill:#808080;stroke-width:0.24910475"
             y="286.09293"
             x="-116.20323"
             id="tspan1252"
             sodipodi:role="line">Modem</tspan></text>
      </g>
      <path
         style="opacity:1;fill:url(#radialGradient885);fill-opacity:1;stroke:none;stroke-width:3.29906416;stroke-miterlimit:4;stroke-dasharray:none;stroke-opacity:1"
         d="m 7.7972573,265.30028 c -2.1638948,0.30181 -2.1136908,3.12967 -1.8791161,5.95477 0.084668,3.66532 0.3272431,7.9186 0.732088,11.73403 0.2218528,3.17079 2.6397308,5.73601 5.9186748,5.73601 h 0.35094 8.331516 92.61301 0.35094 8.33152 0.35094 c 3.27894,0 5.69683,-2.56522 5.91869,-5.73601 0.40484,-3.81543 0.6474,-8.06871 0.73207,-11.73403 0.23459,-2.8251 0.28479,-5.65296 -1.87909,-5.95477 H 118.98736 72.074376 63.3923 16.479311 Z"
         id="path859"
         inkscape:connector-curvature="0" />
      <path
         inkscape:connector-curvature="0"
         id="path861"
         d="m 21.21009,219.14211 c -1.247208,-0.001 -2.325959,0.10085 -3.202461,0.3156 -1.426021,0.26084 -2.030054,0.74977 -2.441368,1.54614 l -9.8398501,51.43363 c -0.048304,0.25254 -0.016717,0.4976 0.083366,0.73153 0.040055,0.0936 0.090856,0.18538 0.1521208,0.27512 0.030611,0.0448 0.063935,0.0892 0.09954,0.13303 0.106921,0.13143 0.236355,0.258 0.3854581,0.37883 0.2485015,0.2014 0.5519398,0.38696 0.8995359,0.55277 0.06958,0.0331 0.1407231,0.0654 0.2136682,0.0969 0.3647902,0.1578 0.7714588,0.29502 1.2084994,0.40793 0.087382,0.0226 0.1756325,0.0443 0.2653918,0.0649 0.8077468,0.18544 1.7071309,0.28924 2.6328169,0.28924 H 123.79985 c 2.1596,0 4.17615,-0.56595 5.21991,-1.41184 0.1491,-0.12084 0.27848,-0.24741 0.38545,-0.37884 0.0356,-0.0437 0.0689,-0.0881 0.0995,-0.13303 0.0612,-0.0898 0.11214,-0.18154 0.15213,-0.27511 0.10008,-0.23394 0.13169,-0.479 0.0834,-0.73154 l -9.83985,-51.43362 c -0.41131,-0.79638 -1.01534,-1.2853 -2.44136,-1.54615 -0.87651,-0.21475 -1.95569,-0.31668 -3.20288,-0.31559 l -46.522828,0.0378 z"
         style="opacity:1;fill:#f3fdff;fill-opacity:1;stroke:none;stroke-width:2.7309885;stroke-miterlimit:4;stroke-dasharray:none;stroke-opacity:1" />
      <path
         style="fill:url(#linearGradient1207);fill-opacity:1;stroke:none;stroke-width:0.2043853px;stroke-linecap:butt;stroke-linejoin:miter;stroke-opacity:1"
         d="m 104.95739,165.21539 c -0.81773,0.086 -1.458,2.13421 -1.51217,3.42289 -0.77354,18.40527 -1.43573,51.49964 -1.43573,51.49964 h 1.28064 3.98337 1.28061 c 0,0 -0.66219,-33.09437 -1.43572,-51.49964 -0.0612,-1.45475 -0.86957,-3.87273 -1.83658,-3.34772 -0.11034,-0.0599 -0.2191,-0.0862 -0.32442,-0.0751 z"
         id="path1205"
         inkscape:connector-curvature="0" />
      <path
         inkscape:connector-curvature="0"
         id="path1185"
         d="m 29.45354,165.21539 c -0.817722,0.086 -1.458,2.13421 -1.512166,3.42289 -0.773543,18.40527 -1.435725,51.49964 -1.435725,51.49964 h 1.28063 3.983374 1.280609 c 0,0 -0.662193,-33.09437 -1.435715,-51.49964 -0.06122,-1.45475 -0.869576,-3.87273 -1.836586,-3.34772 -0.11034,-0.0599 -0.219096,-0.0862 -0.324421,-0.0751 z"
         style="fill:url(#linearGradient1197);fill-opacity:1;stroke:none;stroke-width:0.2043853px;stroke-linecap:butt;stroke-linejoin:miter;stroke-opacity:1" />
      <path
         style="opacity:1;fill:url(#linearGradient887);fill-opacity:1;stroke:none;stroke-width:2.6989181;stroke-miterlimit:4;stroke-dasharray:none;stroke-opacity:1"
         d="m 21.21009,219.14211 c -1.247208,-0.001 -2.325959,0.0985 -3.202461,0.30823 -1.426021,0.25474 -2.030054,0.73226 -2.441368,1.51004 l -9.8398501,50.23273 c -0.048304,0.24664 -0.016717,0.48598 0.083366,0.71445 0.040055,0.0914 0.090856,0.18106 0.1521208,0.26869 0.030611,0.0439 0.063935,0.0872 0.09954,0.12993 0.106921,0.12837 0.236355,0.25197 0.3854581,0.36999 0.2485015,0.1967 0.5519398,0.37793 0.8995359,0.53985 0.06958,0.0324 0.1407231,0.0639 0.2136682,0.0948 0.3647902,0.15412 0.7714588,0.28812 1.2084994,0.39841 0.087382,0.022 0.1756325,0.0433 0.2653918,0.0634 0.8077468,0.18111 1.7071309,0.28249 2.6328169,0.28249 H 123.79985 c 2.1596,0 4.17615,-0.55274 5.21991,-1.37889 0.1491,-0.11802 0.27848,-0.24162 0.38545,-0.36999 0.0356,-0.0428 0.0689,-0.0861 0.0995,-0.12992 0.0612,-0.0876 0.11214,-0.17731 0.15213,-0.2687 0.10008,-0.22847 0.13169,-0.46781 0.0834,-0.71445 l -9.83985,-50.23273 c -0.41131,-0.77778 -1.01534,-1.2553 -2.44136,-1.51004 -0.87651,-0.20974 -1.95569,-0.30929 -3.20288,-0.30823 l -46.522828,0.0369 z"
         id="path863"
         inkscape:connector-curvature="0" />
      <rect
         ry="2.7537737"
         y="277.33539"
         x="22.612312"
         height="8.9769583"
         width="90.242058"
         id="rect1034"
         style="opacity:1;fill:url(#linearGradient1064);fill-opacity:1;fill-rule:nonzero;stroke:none;stroke-width:1.08549154;stroke-linecap:round;stroke-linejoin:round;stroke-miterlimit:4;stroke-dasharray:none;stroke-opacity:1" />
      <circle
         r="2.7137287"
         style="opacity:1;fill:#00ff00;fill-opacity:1;stroke:none;stroke-width:1.06412661;stroke-linecap:round;stroke-miterlimit:4;stroke-dasharray:none;stroke-opacity:1"
         id="ellipse867"
         cx="29.771528"
         cy="281.82385" />
      <circle
         cy="281.82385"
         cx="37.331078"
         id="circle1036"
         style="opacity:1;fill:#00ff00;fill-opacity:1;stroke:none;stroke-width:1.06412661;stroke-linecap:round;stroke-miterlimit:4;stroke-dasharray:none;stroke-opacity:1"
         r="2.7137287" />
      <circle
         r="2.7137287"
         style="opacity:1;fill:#00ff00;fill-opacity:1;stroke:none;stroke-width:1.06412661;stroke-linecap:round;stroke-miterlimit:4;stroke-dasharray:none;stroke-opacity:1"
         id="circle1038"
         cx="44.874428"
         cy="281.82385" />
      <circle
         r="2.7137287"
         style="opacity:1;fill:#00ff00;fill-opacity:1;stroke:none;stroke-width:1.06412661;stroke-linecap:round;stroke-miterlimit:4;stroke-dasharray:none;stroke-opacity:1"
         id="circle1040"
         cx="97.925552"
         cy="281.82385" />
      <circle
         cy="281.82385"
         cx="105.46888"
         id="circle1042"
         style="opacity:1;fill:#00ff00;fill-opacity:1;stroke:none;stroke-width:1.06412661;stroke-linecap:round;stroke-miterlimit:4;stroke-dasharray:none;stroke-opacity:1"
         r="2.7137287" />
      <path
         id="path1086"
         d="m 26.505644,219.56351 c -1.092578,-8.7e-4 -2.038004,0.0879 -2.805839,0.27598 -1.249237,0.22844 -1.777975,0.65665 -2.138315,1.35412 l -8.620014,45.04655 c -0.04233,0.22118 -0.01479,0.43571 0.07292,0.6406 0.03506,0.082 0.07982,0.16262 0.133503,0.24121 0.0268,0.0393 0.05569,0.0777 0.08695,0.11611 0.09357,0.11514 0.207083,0.22625 0.337691,0.33207 0.217705,0.1764 0.483621,0.3389 0.788124,0.4841 0.061,0.029 0.123421,0.0571 0.187355,0.0847 0.319568,0.13822 0.675657,0.25841 1.058501,0.35732 0.07642,0.0198 0.153596,0.0392 0.232229,0.0572 0.707599,0.1624 1.495673,0.25298 2.306599,0.25298 h 22.244768 a 28.112056,19.028252 0 0 1 26.870863,-13.44244 28.112056,19.028252 0 0 1 26.843942,13.44244 h 22.271689 c 1.89187,0 3.65846,-0.49547 4.57281,-1.23632 0.13067,-0.10594 0.24399,-0.2164 0.33769,-0.33152 0.0313,-0.0383 0.0601,-0.0774 0.087,-0.11667 0.0536,-0.0786 0.0984,-0.15926 0.1335,-0.2412 0.0876,-0.20489 0.11528,-0.41944 0.073,-0.64061 l -8.62002,-45.04598 c -0.36032,-0.69749 -0.88966,-1.12568 -2.13888,-1.35412 -0.76784,-0.18809 -1.71326,-0.2775 -2.80584,-0.27654 l -40.754769,0.0331 z"
         style="opacity:1;fill:url(#linearGradient1096);fill-opacity:1;stroke:none;stroke-width:2.39212346;stroke-miterlimit:4;stroke-dasharray:none;stroke-opacity:1"
         inkscape:connector-curvature="0" />
      <rect
         ry="0.81411862"
         y="222.2384"
         x="31.179407"
         height="1.6282372"
         width="72.162964"
         id="rect904"
         style="opacity:0.8;fill:url(#linearGradient1072);fill-opacity:1;fill-rule:nonzero;stroke:none;stroke-width:0.84724683;stroke-linecap:round;stroke-linejoin:round;stroke-miterlimit:4;stroke-dasharray:none;stroke-opacity:1" />
      <g
         id="text1114"
         style="font-style:normal;font-weight:normal;font-size:10.81604385px;line-height:1.25;font-family:sans-serif;letter-spacing:0px;word-spacing:0px;fill:#000000;fill-opacity:1;stroke:none;stroke-width:0.27040109"
         transform="scale(1.1708576,0.85407482)"
         aria-label="Modem">
        <path
           id="path908"
           style="font-size:4.32641745px;stroke-width:0.27040109"
           d="m 50.244309,310.18312 h 0.635865 l 0.804866,2.14631 0.80909,-2.14631 h 0.635865 v 3.15398 h -0.416164 v -2.7695 l -0.813316,2.16321 H 51.471676 L 50.65836,310.5676 v 2.7695 h -0.414051 z" />
        <path
           id="path910"
           style="font-size:4.32641745px;stroke-width:0.27040109"
           d="m 54.879152,311.2436 q -0.312651,0 -0.494327,0.24505 -0.181675,0.24294 -0.181675,0.66755 0,0.42462 0.179563,0.66967 0.181676,0.24294 0.496439,0.24294 0.310539,0 0.492215,-0.24505 0.181676,-0.24505 0.181676,-0.66756 0,-0.42038 -0.181676,-0.66544 -0.181676,-0.24716 -0.492215,-0.24716 z m 0,-0.32955 q 0.507002,0 0.796416,0.32955 0.289414,0.32955 0.289414,0.9126 0,0.58094 -0.289414,0.91261 -0.289414,0.32955 -0.796416,0.32955 -0.509114,0 -0.798528,-0.32955 -0.287301,-0.33167 -0.287301,-0.91261 0,-0.58305 0.287301,-0.9126 0.289414,-0.32955 0.798528,-0.32955 z" />
        <path
           id="path912"
           style="font-size:4.32641745px;stroke-width:0.27040109"
           d="m 58.164103,311.33021 v -1.28018 h 0.388702 v 3.28707 h -0.388702 v -0.3549 q -0.122525,0.21125 -0.310538,0.31476 -0.185901,0.1014 -0.447852,0.1014 -0.428839,0 -0.69924,-0.34223 -0.268289,-0.34222 -0.268289,-0.89993 0,-0.5577 0.268289,-0.89992 0.270401,-0.34223 0.69924,-0.34223 0.261951,0 0.447852,0.10351 0.188013,0.1014 0.310538,0.31265 z m -1.324542,0.82599 q 0,0.42884 0.175338,0.6739 0.177451,0.24293 0.485877,0.24293 0.308426,0 0.485877,-0.24293 0.17745,-0.24506 0.17745,-0.6739 0,-0.42883 -0.17745,-0.67177 -0.177451,-0.24505 -0.485877,-0.24505 -0.308426,0 -0.485877,0.24505 -0.175338,0.24294 -0.175338,0.67177 z" />
        <path
           id="path914"
           style="font-size:4.32641745px;stroke-width:0.27040109"
           d="m 61.377228,312.05692 v 0.19012 h -1.787182 q 0.02535,0.40138 0.240826,0.61263 0.217589,0.20914 0.604178,0.20914 0.223926,0 0.433064,-0.0549 0.211251,-0.0549 0.418277,-0.16477 v 0.36757 q -0.209139,0.0887 -0.42884,0.1352 -0.219701,0.0465 -0.445739,0.0465 -0.566152,0 -0.897816,-0.32955 -0.329551,-0.32955 -0.329551,-0.89148 0,-0.58094 0.312651,-0.92105 0.314764,-0.34223 0.847116,-0.34223 0.477427,0 0.754165,0.30843 0.278851,0.30631 0.278851,0.83444 z m -0.388701,-0.11408 q -0.0042,-0.31899 -0.179563,-0.50911 -0.173226,-0.19013 -0.460527,-0.19013 -0.325326,0 -0.52179,0.18379 -0.194351,0.18379 -0.223926,0.51756 z" />
        <path
           id="path916"
           style="font-size:4.32641745px;stroke-width:0.27040109"
           d="m 63.857314,311.42528 q 0.145763,-0.26195 0.348564,-0.38659 0.202801,-0.12464 0.477427,-0.12464 0.369689,0 0.570377,0.25984 0.200688,0.25772 0.200688,0.73515 v 1.42806 h -0.390814 v -1.41538 q 0,-0.34012 -0.120413,-0.50489 -0.120413,-0.16478 -0.367576,-0.16478 -0.302089,0 -0.477427,0.20069 -0.175338,0.20069 -0.175338,0.54714 v 1.33722 h -0.390814 v -1.41538 q 0,-0.34223 -0.120413,-0.50489 -0.120413,-0.16478 -0.371802,-0.16478 -0.297863,0 -0.473202,0.2028 -0.175338,0.20069 -0.175338,0.54503 v 1.33722 h -0.390814 v -2.36601 h 0.390814 v 0.36757 q 0.133088,-0.21758 0.318989,-0.3211 0.185901,-0.10351 0.441514,-0.10351 0.257726,0 0.437289,0.13098 0.181676,0.13097 0.268289,0.38025 z" />
      </g>
    </g>
  </g>
</svg>
