<?xml version="1.0" encoding="UTF-8" standalone="no"?>
<!-- Created with Inkscape (http://www.inkscape.org/) -->

<svg
   xmlns:osb="http://www.openswatchbook.org/uri/2009/osb"
   xmlns:dc="http://purl.org/dc/elements/1.1/"
   xmlns:cc="http://creativecommons.org/ns#"
   xmlns:rdf="http://www.w3.org/1999/02/22-rdf-syntax-ns#"
   xmlns:svg="http://www.w3.org/2000/svg"
   xmlns="http://www.w3.org/2000/svg"
   xmlns:xlink="http://www.w3.org/1999/xlink"
   xmlns:sodipodi="http://sodipodi.sourceforge.net/DTD/sodipodi-0.dtd"
   xmlns:inkscape="http://www.inkscape.org/namespaces/inkscape"
   width="128"
   height="128"
   viewBox="0 0 33.866665 33.866665"
   version="1.1"
   id="svg4942"
   inkscape:version="0.92.2 5c3e80d, 2017-08-06"
   sodipodi:docname="network-server.svg">
  <defs
     id="defs4936">
    <linearGradient
       id="linearGradient891"
       inkscape:collect="always">
      <stop
         id="stop887"
         offset="0"
         style="stop-color:#6e8fbc;stop-opacity:1" />
      <stop
         id="stop889"
         offset="1"
         style="stop-color:#375579;stop-opacity:1" />
    </linearGradient>
    <linearGradient
       inkscape:collect="always"
       id="linearGradient5420">
      <stop
         style="stop-color:#d5e3e8;stop-opacity:1"
         offset="0"
         id="stop5416" />
      <stop
         style="stop-color:#a0a0a1;stop-opacity:1"
         offset="1"
         id="stop5418" />
    </linearGradient>
    <linearGradient
       inkscape:collect="always"
       id="linearGradient5408">
      <stop
         style="stop-color:#dfe5e8;stop-opacity:1"
         offset="0"
         id="stop5404" />
      <stop
         style="stop-color:#c3cacc;stop-opacity:1"
         offset="1"
         id="stop5406" />
    </linearGradient>
    <linearGradient
       id="linearGradient6987"
       osb:paint="solid">
      <stop
         style="stop-color:#77d2fb;stop-opacity:1;"
         offset="0"
         id="stop6985" />
    </linearGradient>
    <radialGradient
       inkscape:collect="always"
       xlink:href="#linearGradient5408"
       id="radialGradient5414"
       cx="502.62054"
       cy="372.05499"
       fx="502.62054"
       fy="372.05499"
       r="74.884071"
       gradientTransform="matrix(0.18970043,0,0,0.04728455,-78.414002,275.69833)"
       gradientUnits="userSpaceOnUse" />
    <linearGradient
       inkscape:collect="always"
       xlink:href="#linearGradient5420"
       id="linearGradient5422"
       x1="496.5524"
       y1="216.14406"
       x2="504.37988"
       y2="349.10312"
       gradientUnits="userSpaceOnUse"
       gradientTransform="matrix(0.20128229,0,0,0.20128229,-84.235288,220.48405)" />
    <linearGradient
       inkscape:collect="always"
       xlink:href="#linearGradient891"
       id="linearGradient5448"
       gradientUnits="userSpaceOnUse"
       gradientTransform="matrix(0.19772886,0,0,0.19772886,-82.692684,221.25215)"
       x1="501.82697"
       y1="216.4304"
       x2="502.79834"
       y2="324.15189" />
  </defs>
  <sodipodi:namedview
     id="base"
     pagecolor="#ffffff"
     bordercolor="#666666"
     borderopacity="1.0"
     inkscape:pageopacity="0.0"
     inkscape:pageshadow="2"
     inkscape:zoom="3.3393265"
     inkscape:cx="-6.048165"
     inkscape:cy="53.14644"
     inkscape:document-units="mm"
     inkscape:current-layer="layer1"
     showgrid="false"
     units="px"
     width="128px"
     inkscape:window-width="1600"
     inkscape:window-height="811"
     inkscape:window-x="0"
     inkscape:window-y="0"
     inkscape:window-maximized="1" />
  <metadata
     id="metadata4939">
    <rdf:RDF>
      <cc:Work
         rdf:about="">
        <dc:format>image/svg+xml</dc:format>
        <dc:type
           rdf:resource="http://purl.org/dc/dcmitype/StillImage" />
        <dc:title />
      </cc:Work>
    </rdf:RDF>
  </metadata>
  <g
     inkscape:label="Layer 1"
     inkscape:groupmode="layer"
     id="layer1"
     transform="translate(0,-263.13332)">
    <g
       id="g860"
       transform="matrix(0.95205763,0,0,0.95224268,0.81182808,13.377774)"
       style="stroke-width:1.05025458">
      <path
         inkscape:connector-curvature="0"
         id="path869"
         d="m 5.6091287,264.04326 c -0.3035761,-5.4e-4 -0.5659834,0.05 -0.7793265,0.15586 -0.3471014,0.12869 -0.4941861,0.36997 -0.5943026,0.76289 l -2.3947041,25.37687 c -0.011755,0.1246 -0.00421,0.24561 0.020146,0.36103 6.506e-4,0.003 0.00198,0.006 0.00265,0.009 -0.00425,0.23552 0.00675,0.4889 0.023858,0.74486 0.020606,1.10808 0.07959,2.39433 0.1781316,3.54779 0.054,0.95859 0.6423196,1.7336 1.4404283,1.7336 h 0.085356 2.0278377 22.5426709 0.08535 2.027838 0.08536 c 0.798106,0 1.386957,-0.77501 1.440957,-1.7336 0.09854,-1.15346 0.157522,-2.43971 0.178132,-3.54779 0.01707,-0.25537 0.02802,-0.5082 0.02385,-0.74327 7.86e-4,-0.003 0.0018,-0.007 0.0027,-0.0106 0.02435,-0.11543 0.03191,-0.23643 0.02015,-0.36103 L 29.630976,264.962 c -0.100118,-0.39293 -0.247205,-0.6342 -0.594304,-0.76289 -0.213346,-0.10596 -0.475756,-0.1564 -0.779325,-0.15587 l -11.324086,0.0186 z"
         style="opacity:0.25;fill:#000000;fill-opacity:1;stroke:none;stroke-width:0.21549338;stroke-miterlimit:4;stroke-dasharray:none;stroke-opacity:1" />
      <path
         inkscape:connector-curvature="0"
         id="rect5373"
         d="m 2.3446316,289.11086 c -0.5266996,0.0912 -0.5144796,0.94614 -0.4573839,1.80023 0.020606,1.10808 0.079652,2.39393 0.1781931,3.54739 0.054,0.95859 0.6425214,1.73409 1.4406294,1.73409 h 0.085417 2.0279249 22.5424079 0.08542 2.02793 0.08542 c 0.798107,0 1.386634,-0.7755 1.440633,-1.73409 0.09854,-1.15346 0.15758,-2.43931 0.178192,-3.54739 0.0571,-0.85409 0.06932,-1.70899 -0.45738,-1.80023 H 29.408785 17.989963 15.876705 4.457882 Z"
         style="opacity:1;fill:url(#radialGradient5414);fill-opacity:1;stroke:#808080;stroke-width:0.21530218;stroke-miterlimit:4;stroke-dasharray:none;stroke-opacity:1" />
      <path
         style="opacity:1;fill:#f3fdff;fill-opacity:1;stroke:none;stroke-width:0.99397177;stroke-miterlimit:4;stroke-dasharray:none;stroke-opacity:1"
         d="m 5.6093739,263.82009 c -0.3035761,-5.2e-4 -0.5661485,0.0498 -0.7794917,0.15571 -0.3471013,0.1287 -0.4941255,0.36994 -0.5942421,0.76286 l -2.3950618,25.37687 c -0.011755,0.1246 -0.00406,0.24551 0.020286,0.36093 0.00975,0.0462 0.022123,0.0915 0.037028,0.13574 0.00745,0.0222 0.01556,0.044 0.024236,0.0657 0.026039,0.0648 0.057529,0.1273 0.093822,0.18692 0.060488,0.0994 0.1343438,0.19093 0.2189508,0.27273 0.016929,0.0163 0.034254,0.0323 0.05201,0.0478 0.088789,0.0779 0.1877763,0.14556 0.2941539,0.20126 0.021272,0.0112 0.042749,0.0219 0.064595,0.032 0.1966106,0.0915 0.4155233,0.14272 0.6408386,0.14272 H 30.580167 c 0.525658,0 1.016495,-0.27925 1.270551,-0.69661 0.0363,-0.0596 0.06778,-0.12206 0.09382,-0.18691 0.0086,-0.0216 0.01677,-0.0435 0.02423,-0.0657 0.01491,-0.0442 0.02729,-0.0896 0.03702,-0.13573 0.02435,-0.11542 0.03205,-0.23633 0.02029,-0.36093 l -2.395063,-25.37687 c -0.100118,-0.39293 -0.247139,-0.63416 -0.594239,-0.76286 -0.213345,-0.10596 -0.476023,-0.15625 -0.779593,-0.15571 l -11.323859,0.0187 z"
         id="path5490"
         inkscape:connector-curvature="0" />
      <path
         inkscape:connector-curvature="0"
         id="rect5346"
         d="m 5.6093739,263.50056 c -0.3035761,-5.3e-4 -0.5661485,0.0498 -0.7794917,0.15571 -0.3471013,0.12869 -0.4941255,0.36993 -0.5942421,0.76285 l -2.3950618,25.37687 c -0.011755,0.1246 -0.00406,0.24551 0.020286,0.36094 0.00975,0.0462 0.022123,0.0915 0.037028,0.13574 0.00745,0.0222 0.01556,0.044 0.024236,0.0657 0.026039,0.0648 0.057529,0.1273 0.093822,0.18693 0.060488,0.0994 0.1343438,0.19092 0.2189508,0.27272 0.016929,0.0163 0.034254,0.0323 0.05201,0.0478 0.088789,0.0779 0.1877763,0.14556 0.2941539,0.20127 0.021272,0.0111 0.042749,0.0219 0.064595,0.032 0.1966106,0.0915 0.4155233,0.14272 0.6408386,0.14272 H 30.580167 c 0.525658,0 1.016495,-0.27924 1.270551,-0.6966 0.0363,-0.0596 0.06778,-0.12207 0.09382,-0.18692 0.0086,-0.0216 0.01677,-0.0435 0.02423,-0.0656 0.01491,-0.0443 0.02729,-0.0896 0.03702,-0.13574 0.02435,-0.11543 0.03205,-0.23634 0.02029,-0.36094 l -2.395063,-25.37687 c -0.100118,-0.39293 -0.247139,-0.63416 -0.594239,-0.76285 -0.213345,-0.10595 -0.476023,-0.15624 -0.779593,-0.15571 l -11.323859,0.0186 z"
         style="opacity:1;fill:url(#linearGradient5422);fill-opacity:1;stroke:#808080;stroke-width:0.21549338;stroke-miterlimit:4;stroke-dasharray:none;stroke-opacity:1" />
      <path
         inkscape:connector-curvature="0"
         id="path5365"
         d="m 6.3494306,263.99307 c -0.5837224,0.004 -1.2691268,0.0892 -1.4165039,0.70166 l -1.7833351,19.47464 c -0.01073,0.0956 -0.00377,0.18835 0.018497,0.27691 0.00889,0.0354 0.020202,0.0702 0.033821,0.10412 0.00678,0.017 0.01423,0.0337 0.02217,0.0504 0.023782,0.0498 0.052476,0.0977 0.085623,0.14336 0.014192,0.0196 0.029293,0.0389 0.045061,0.0577 0.00477,0.006 0.010023,0.0111 0.014936,0.0166 0.011232,0.0128 0.02249,0.0256 0.034434,0.038 0.00638,0.006 0.013226,0.013 0.019827,0.0195 0.011408,0.0113 0.022765,0.0225 0.034748,0.0335 0.00626,0.006 0.012824,0.0111 0.019226,0.0166 0.010546,0.009 0.020836,0.0185 0.031772,0.0274 0.00277,0.002 0.00575,0.004 0.00862,0.006 0.00369,0.003 0.00759,0.006 0.011357,0.009 0.00913,0.007 0.018179,0.0144 0.027587,0.0212 0.00482,0.003 0.00995,0.007 0.014814,0.0103 0.00985,0.007 0.019882,0.0139 0.030039,0.0208 0.011316,0.007 0.022714,0.0152 0.034337,0.0225 0.010782,0.007 0.021739,0.0134 0.032798,0.02 0.011654,0.007 0.023422,0.0138 0.035353,0.0203 0.011357,0.006 0.022826,0.0125 0.03444,0.0185 0.012055,0.006 0.024263,0.0123 0.036574,0.0184 0.011798,0.006 0.023555,0.0114 0.035558,0.0168 0.00492,0.002 0.00975,0.005 0.014711,0.007 0.013706,0.006 0.027648,0.0116 0.04159,0.0173 0.00277,10e-4 0.00554,0.002 0.00841,0.003 0.00308,0.001 0.00595,0.003 0.00903,0.004 0.022437,0.009 0.045202,0.017 0.068254,0.0248 0,0 9.74e-5,0 9.74e-5,0 0.025032,0.008 0.050547,0.0162 0.076225,0.0235 0.00831,0.002 0.016743,0.004 0.025135,0.006 0.018077,0.005 0.036215,0.009 0.054568,0.0136 0.00934,0.002 0.018702,0.004 0.0281,0.006 0.017635,0.004 0.035373,0.007 0.053235,0.0103 0.00913,0.002 0.01821,0.003 0.027381,0.004 0.019246,0.003 0.038605,0.005 0.058036,0.008 0.00841,10e-4 0.016784,0.002 0.025237,0.003 0.020949,0.002 0.042001,0.004 0.063155,0.005 0.00698,5.2e-4 0.013809,10e-4 0.020734,10e-4 0.028264,0.002 0.056599,0.002 0.08512,0.002 h 24.926413 c 0.02852,0 0.05687,-10e-4 0.08512,-0.002 0.007,-5.4e-4 0.01382,-10e-4 0.02074,-10e-4 0.02113,-0.001 0.0422,-0.003 0.06314,-0.005 0.0084,-7.9e-4 0.01683,-0.002 0.02523,-0.003 0.01945,-0.002 0.03881,-0.005 0.05804,-0.008 0.0091,-10e-4 0.01828,-0.003 0.02738,-0.004 0.01786,-0.003 0.03559,-0.006 0.05324,-0.0103 0.0094,-0.002 0.01878,-0.004 0.0281,-0.006 0.01873,-0.004 0.03732,-0.009 0.05579,-0.014 0.0078,-0.002 0.01567,-0.004 0.02341,-0.006 0.02589,-0.007 0.05151,-0.0152 0.07674,-0.0237 0,0 10e-5,0 10e-5,0 0.02306,-0.008 0.04582,-0.0161 0.06825,-0.0248 0.0029,-10e-4 0.0055,-0.002 0.0083,-0.003 0.0039,-0.002 0.0077,-0.003 0.01166,-0.005 0.01305,-0.005 0.02618,-0.0106 0.03902,-0.0162 0.0049,-0.002 0.0096,-0.005 0.01461,-0.007 0.01221,-0.005 0.0242,-0.0114 0.03617,-0.0171 0.01186,-0.006 0.0237,-0.0116 0.03535,-0.0176 0.01189,-0.006 0.02362,-0.0125 0.03525,-0.019 0.01221,-0.007 0.02425,-0.0136 0.03616,-0.0207 0.0106,-0.006 0.02108,-0.0127 0.03147,-0.0193 0.01176,-0.007 0.02331,-0.015 0.03474,-0.0227 0.01016,-0.007 0.02016,-0.0137 0.03004,-0.0208 0.0048,-0.003 0.01005,-0.007 0.01482,-0.0103 0.0094,-0.007 0.01845,-0.0142 0.02759,-0.0212 0.0038,-0.003 0.0076,-0.006 0.01136,-0.009 0.0029,-0.002 0.0057,-0.004 0.0085,-0.006 0.01094,-0.009 0.02125,-0.0182 0.03177,-0.0274 0.0064,-0.005 0.01297,-0.011 0.01921,-0.0166 0.01197,-0.0109 0.02333,-0.0222 0.03474,-0.0334 0.0066,-0.006 0.01342,-0.0129 0.01981,-0.0195 0.01519,-0.0158 0.02979,-0.032 0.04384,-0.0484 0.0013,-0.002 0.0032,-0.003 0.0046,-0.005 7.9e-5,-10e-5 1.24e-4,-2e-4 1.98e-4,-5.3e-4 0.01603,-0.0191 0.03136,-0.0386 0.04578,-0.0585 0.03315,-0.0457 0.06194,-0.0936 0.08573,-0.14336 0.0079,-0.0166 0.01524,-0.0333 0.02207,-0.0504 0.01363,-0.034 0.02494,-0.0687 0.03383,-0.10412 0.01667,-0.0664 0.02481,-0.13521 0.0233,-0.20579 -5.28e-4,-0.0235 -0.0022,-0.0472 -0.0047,-0.0711 L 28.93368,264.69391 c -0.168434,-0.69999 -1.039544,-0.71055 -1.65857,-0.69993 l -10.341767,0.0142 -10.3417622,-0.0142 c -0.077384,-0.001 -0.1586744,-0.002 -0.2420666,-0.002 z"
         style="opacity:1;fill:url(#linearGradient5448);fill-opacity:1;stroke:#4e6166;stroke-width:0.21530218;stroke-miterlimit:4;stroke-dasharray:none;stroke-opacity:1" />
      <ellipse
         ry="0.60012686"
         rx="0.72900981"
         cy="293.90628"
         cx="26.913696"
         id="path5424"
         style="opacity:1;fill:#00ff00;fill-opacity:1;stroke:#a3a4a5;stroke-width:0.27240154;stroke-linecap:round;stroke-miterlimit:4;stroke-dasharray:none;stroke-opacity:1" />
      <g
         style="fill:#ffffff;fill-opacity:1;stroke-width:1.05025458"
         transform="matrix(0.29271056,0,0,0.29271056,-7.2535778,244.6134)"
         id="g1005">
        <path
           inkscape:connector-curvature="0"
           style="opacity:1;fill:#ffffff;fill-opacity:1;stroke:none;stroke-width:7.10931396;stroke-linecap:round;stroke-linejoin:round;stroke-miterlimit:4;stroke-dasharray:none;stroke-opacity:1"
           d="m 312.4082,-274.64648 c -5.86459,2.4e-4 -9.24974,0.0258 -11.35351,0.14453 -2.10378,0.11868 -2.92644,0.33042 -3.66797,0.70312 -0.34532,0.17354 -0.76283,0.52408 -1.35156,1.19141 -0.58874,0.66733 -1.34884,1.64999 -2.38086,3.08984 -2.06405,2.87971 -5.21552,7.58434 -10.25196,15.22656 -6.76342,10.26274 -12.50487,18.65821 -12.75976,18.65821 -0.25499,0 -5.15013,-8.06874 -10.87696,-17.93164 -5.72683,-9.86287 -11.05984,-18.58697 -11.85351,-19.38672 l -1.44336,-1.45508 h -14.49609 c -6.95302,0 -10.59084,0.01 -12.6543,0.14063 -1.03173,0.0654 -1.67051,0.16132 -2.13281,0.30078 -0.46231,0.13945 -0.74798,0.32332 -1.07617,0.56445 -0.7526,0.55306 -9.18601,11.62985 -18.74219,24.61328 -4.655,6.32449 -8.15701,11.08332 -10.76367,14.71484 -2.60667,3.63153 -4.31773,6.13543 -5.39649,7.94922 -1.07876,1.81379 -1.52442,2.9373 -1.5957,3.8086 -0.0713,0.87129 0.2307,1.49088 0.64648,2.29492 0.26698,0.51626 0.65583,0.97707 1.12891,1.36719 0.47308,0.39011 1.03101,0.70948 1.63281,0.94336 0.6018,0.23387 1.2492,0.38214 1.90235,0.42968 0.65314,0.0476 1.31234,-0.007 1.93945,-0.17578 1.02244,-0.2753 2.32344,-0.8788 2.89062,-1.3418 0.56718,-0.46302 5.22123,-6.60662 10.34375,-13.65234 5.12256,-7.0458 9.56719,-12.89083 9.87696,-12.99023 0.19264,-0.0617 0.31652,0.0391 0.37304,0.3125 0.0565,0.27345 0.0458,0.71899 -0.0293,1.34961 -0.42862,3.6 -8.47255,91.09249 -8.75586,95.23632 -0.10125,1.48145 -0.125,2.6496 -0.0684,3.58204 0.0566,0.93243 0.19396,1.62909 0.41797,2.16992 0.33506,0.8089 0.88204,1.48889 1.5625,2.01953 0.68045,0.53064 1.49392,0.91255 2.36523,1.12695 0.87131,0.21441 1.79939,0.26091 2.70703,0.1211 0.90764,-0.13981 1.79455,-0.46605 2.58399,-0.99805 l 0.002,0.002 c 0.83779,-0.56459 1.45627,-0.92885 1.95703,-1.68554 0.50076,-0.7567 0.88331,-1.90578 1.25195,-4.04102 0.73729,-4.27048 1.41525,-12.48536 2.85352,-29.38867 1.44703,-17.00565 2.63331,-31.08327 2.63476,-31.28321 0.002,-0.19993 3.05715,-0.36328 6.78907,-0.36328 h 6.78515 l -0.006,2.06055 c -0.002,1.13291 -0.87303,14.60031 -1.93554,29.92773 -1.06251,15.3275 -1.9341,28.82013 -1.93555,29.98438 -9.6e-4,0.90714 0.0657,1.50492 0.33399,2.07617 0.26828,0.57125 0.73855,1.11555 1.54492,1.92188 0.82673,0.82673 1.36727,1.29884 1.95117,1.5625 0.5839,0.26366 1.21115,0.32031 2.21484,0.32031 1.37238,0 2.57333,-0.27587 3.60157,-0.82813 1.02823,-0.55226 1.88415,-1.38129 2.56835,-2.48632 0.23407,-0.378 0.4255,-0.87325 0.62696,-2.13282 0.20146,-1.25957 0.41236,-3.28341 0.68359,-6.7207 0.54246,-6.87457 1.32791,-19.40137 2.76367,-42.76367 1.69003,-27.49924 3.07756,-50.39277 3.08399,-50.875 0.005,-0.48223 0.20884,-0.75596 0.44922,-0.60742 0.24042,0.14865 3.65159,5.8855 7.58203,12.75 3.93038,6.86449 7.70348,13.0869 8.38476,13.82422 0.52977,0.57331 1.13412,1.02341 1.79297,1.35156 0.65885,0.32815 1.37292,0.53444 2.1211,0.61328 0.74817,0.0788 1.53038,0.032 2.32812,-0.14258 0.79774,-0.1746 1.61043,-0.47798 2.41797,-0.91016 0.5319,-0.28471 4.74295,-6.36019 9.35742,-13.50195 4.61448,-7.1418 8.68176,-13.305 9.03711,-13.69531 0.10461,-0.11491 0.19522,-0.19638 0.27344,-0.14258 0.0782,0.0538 0.14384,0.24308 0.19531,0.67188 0.10295,0.85758 0.15258,2.67226 0.14649,6.26757 -0.0122,7.19063 -0.24609,21.5054 -0.71094,49.54883 -0.34578,20.86122 -0.51695,32.01109 -0.50586,38.14844 0.006,3.06867 0.0563,4.88527 0.1543,6.03516 0.098,1.14988 0.24293,1.63317 0.43554,2.03906 0.4312,0.90869 1.07448,1.66374 1.8457,2.24414 0.77123,0.5804 1.67018,0.98613 2.60938,1.19922 0.9392,0.21308 1.92036,0.23427 2.85547,0.041 0.93511,-0.19325 1.82502,-0.59966 2.58398,-1.23828 0.71496,-0.60158 1.25222,-1.06352 1.65625,-1.75586 0.40404,-0.69233 0.67418,-1.61535 0.85547,-3.14062 0.36259,-3.05055 0.36842,-8.51033 0.36914,-19.34571 4.9e-4,-10.87101 0.14318,-24.83557 0.31836,-31.0332 l 0.32031,-11.26758 h 6.62891 6.63086 l 0.32031,13.89258 c 0.17613,7.64043 0.31836,21.60498 0.31836,31.0332 0,9.40704 0.0157,14.21709 0.38281,16.97266 0.18355,1.37778 0.45517,2.24212 0.85743,2.91016 0.40226,0.66803 0.93502,1.14067 1.64062,1.73437 0.75661,0.63665 1.64565,1.0411 2.58008,1.23438 0.93443,0.19327 1.91449,0.17404 2.85352,-0.0371 0.93902,-0.21115 1.83701,-0.61479 2.60742,-1.19141 0.7704,-0.57661 1.41323,-1.32539 1.84179,-2.22851 0.18906,-0.39847 0.33003,-0.8942 0.42579,-2.07227 0.0958,-1.17807 0.14642,-3.03946 0.15039,-6.16992 0.008,-6.26093 -0.16735,-17.59778 -0.51758,-38.70508 -0.41287,-24.88214 -0.6845,-47.74433 -0.60547,-50.80469 l 0.14258,-5.56445 8.9082,13.70117 c 3.32662,5.11686 5.6508,8.59358 7.2832,10.86328 1.6324,2.26971 2.57418,3.3319 3.13868,3.625 1.06032,0.55055 2.40202,0.8056 3.67968,0.77149 0.63883,-0.0171 1.26069,-0.10592 1.82422,-0.26563 0.56354,-0.15971 1.06889,-0.39138 1.4707,-0.6914 0.37842,-0.28252 1.51634,-1.94244 3.1211,-4.50977 1.60476,-2.56733 3.67574,-6.04213 5.91601,-9.94922 2.99637,-5.22584 4.94796,-8.54414 6.18555,-10.4668 0.6188,-0.96132 1.05885,-1.57353 1.36133,-1.90039 0.30248,-0.32685 0.4687,-0.36952 0.53711,-0.18945 0.19426,0.51114 1.69128,23.28653 3.32617,50.60938 1.62699,27.19132 2.37073,40.18028 3.11914,46.64648 0.37421,3.2331 0.75027,4.83636 1.23828,5.76758 0.24401,0.46561 0.51594,0.76361 0.83008,1.01367 0.31414,0.25006 0.66997,0.4521 1.08203,0.72656 0.85187,0.56739 1.80121,0.90105 2.76563,1.02539 0.96441,0.12434 1.94365,0.0388 2.85351,-0.23047 0.90987,-0.26926 1.75124,-0.72251 2.43946,-1.33593 0.68821,-0.61342 1.22396,-1.3868 1.52343,-2.29493 0.22957,-0.69617 0.27016,-2.57421 0.0371,-7.39648 -0.23305,-4.82227 -0.74102,-12.58895 -1.60742,-25.05859 -1.17468,-16.90621 -2.1376,-30.90812 -2.14062,-31.11524 -0.003,-0.20901 3.10003,-0.31626 6.89453,-0.24219 l 6.89843,0.13477 2.57227,30.77539 c 0.96106,11.49645 1.65522,19.30792 2.18359,24.41992 0.52838,5.112 0.89226,7.52425 1.19141,8.22071 0.28949,0.67398 0.66274,1.26832 1.09961,1.78125 0.43687,0.51293 0.93702,0.94449 1.47851,1.29492 0.5415,0.35043 1.12516,0.62016 1.72852,0.80664 0.60336,0.18648 1.22519,0.28946 1.84766,0.31055 0.62246,0.0211 1.24493,-0.0398 1.84375,-0.18555 0.59881,-0.14577 1.17462,-0.37539 1.70703,-0.68945 0.53241,-0.31407 1.02207,-0.71346 1.44531,-1.19727 0.42324,-0.48381 0.77946,-1.05202 1.05078,-1.70703 0.23401,-0.56498 0.16928,-3.16135 -0.43164,-10.75195 -0.60092,-7.59061 -1.73709,-20.17683 -3.64258,-40.72266 -2.55522,-27.55215 -4.58252,-50.42621 -4.5039,-50.83398 0.0786,-0.40778 4.42622,5.13909 9.66015,12.32617 5.23401,7.18707 10.0504,13.56184 10.70313,14.16797 0.5335,0.49541 1.10946,0.87934 1.70898,1.16015 0.59953,0.28082 1.2229,0.45925 1.8457,0.54492 0.62281,0.0857 1.24629,0.0783 1.84961,-0.0117 0.60333,-0.09 1.18547,-0.26354 1.72657,-0.50977 0.5411,-0.24623 1.04044,-0.56426 1.47656,-0.94727 0.43612,-0.383 0.80926,-0.82976 1.09766,-1.33007 0.28839,-0.50032 0.49193,-1.05417 0.58984,-1.65235 0.0979,-0.59818 0.0904,-1.24138 -0.0449,-1.91797 -0.1519,-0.75964 -8.09551,-12.04682 -17.65235,-25.08203 -6.57664,-8.97025 -11.03312,-14.95996 -14.01953,-18.8125 -2.98641,-3.85253 -4.50353,-5.56636 -5.20117,-5.98047 -0.45323,-0.269 -0.80797,-0.47209 -1.30078,-0.62304 -0.49281,-0.15096 -1.12297,-0.25085 -2.12305,-0.3125 -2.00016,-0.12331 -5.48291,-0.0966 -12.31836,-0.0352 -6.54336,0.0588 -10.03647,0.10382 -12.04882,0.25 -1.00618,0.0731 -1.64211,0.17293 -2.10352,0.31055 -0.46142,0.13761 -0.74799,0.31432 -1.05664,0.54492 -0.38597,0.28838 -1.75504,2.32508 -3.77149,5.57422 -2.01644,3.24914 -4.68164,7.71105 -7.66015,12.84375 -5.5654,9.59059 -10.49779,17.95068 -10.96094,18.57812 l -0.8418,1.13867 -12.35937,-18.78125 c -4.97424,-7.55924 -8.14583,-12.29682 -10.24414,-15.23632 -2.09831,-2.93951 -3.12304,-4.08016 -3.80274,-4.44141 -0.76298,-0.4056 -1.50705,-0.63088 -3.5664,-0.75391 -2.05935,-0.12302 -5.43388,-0.14291 -11.45899,-0.14257 z"
           id="path999"
           transform="matrix(0.26458333,0,0,0.26458333,0,161.53332)" />
        <path
           inkscape:connector-curvature="0"
           style="opacity:1;fill:#ffffff;fill-opacity:1;stroke:none;stroke-width:7.10931396;stroke-linecap:round;stroke-linejoin:round;stroke-miterlimit:4;stroke-dasharray:none;stroke-opacity:1"
           d="m 390.22266,-306.30664 c -1.03785,0.002 -2.05996,0.0924 -3.05078,0.26367 -0.99083,0.17129 -1.95121,0.42348 -2.8711,0.75195 -0.91989,0.32848 -1.79799,0.73324 -2.62305,1.20704 -0.82505,0.4738 -1.59642,1.01579 -2.30273,1.62304 -0.70631,0.60725 -1.34844,1.27898 -1.91211,2.00782 -0.56367,0.72883 -1.05014,1.51497 -1.44727,2.35351 -0.39712,0.83854 -0.70348,1.72964 -0.91015,2.66602 -0.20667,0.93638 -0.31238,1.91905 -0.30469,2.9414 0.0124,1.65137 0.37436,3.2921 1.02734,4.85547 0.65299,1.56337 1.59587,3.04831 2.76758,4.38477 1.17172,1.33645 2.57202,2.52547 4.14063,3.49609 1.5686,0.97062 3.30673,1.72359 5.15039,2.18945 1.39769,0.35318 3.58756,0.41364 5.75195,0.2461 2.1644,-0.16755 4.30269,-0.56308 5.59961,-1.125 1.24475,-0.53938 3.17036,-1.79869 4.27734,-2.79883 0.91936,-0.83058 1.6852,-1.74081 2.30274,-2.70703 0.61753,-0.96622 1.08646,-1.98849 1.41211,-3.04297 0.32565,-1.05448 0.50707,-2.14097 0.55078,-3.23633 0.0437,-1.09536 -0.051,-2.2002 -0.2793,-3.28906 -0.2283,-1.08886 -0.5897,-2.16228 -1.08007,-3.19727 -0.49038,-1.03499 -1.10906,-2.0311 -1.85157,-2.96484 -0.74251,-0.93374 -1.60904,-1.80474 -2.59375,-2.58984 -0.98471,-0.78511 -2.08771,-1.48513 -3.30468,-2.07422 -1.39533,-0.67542 -2.81669,-1.16609 -4.23438,-1.48828 -1.41769,-0.32219 -2.83105,-0.47455 -4.21484,-0.47266 z"
           id="path997"
           transform="matrix(0.26458333,0,0,0.26458333,0,161.53332)" />
        <path
           inkscape:connector-curvature="0"
           style="opacity:1;fill:#ffffff;fill-opacity:1;stroke:none;stroke-width:7.10931396;stroke-linecap:round;stroke-linejoin:round;stroke-miterlimit:4;stroke-dasharray:none;stroke-opacity:1"
           d="m 312.64648,-306.31836 c -1.04383,-0.0147 -2.09523,0.0598 -3.13867,0.22852 -1.04344,0.16874 -2.07821,0.43095 -3.09179,0.79296 -1.01359,0.36202 -2.00473,0.82353 -2.95899,1.38868 -0.95425,0.56514 -1.87282,1.23555 -2.73828,2.01367 -1.09066,0.98059 -1.98714,2.04019 -2.69922,3.15234 -0.71208,1.11216 -1.24016,2.27674 -1.58984,3.46289 -0.34969,1.18616 -0.52192,2.39507 -0.52539,3.59766 -0.003,1.20259 0.16173,2.39908 0.48828,3.56055 0.32655,1.16146 0.81469,2.28684 1.45508,3.34961 0.64039,1.06277 1.43304,2.06223 2.37109,2.96875 0.93805,0.90651 2.02267,1.71941 3.24219,2.41211 1.21952,0.69269 2.57378,1.26423 4.05859,1.68554 0.78071,0.22152 1.73671,0.36329 2.77539,0.43164 1.03869,0.0684 2.16022,0.0632 3.27539,-0.01 1.11517,-0.073 2.22422,-0.21356 3.23438,-0.41602 1.01016,-0.20246 1.92283,-0.46505 2.64648,-0.78516 1.8621,-0.82369 3.43741,-1.84416 4.76172,-3.09374 0.66215,-0.6248 1.26172,-1.30708 1.80273,-2.05079 0.54102,-0.7437 1.02243,-1.54901 1.45118,-2.41992 0.70153,-1.42497 1.08197,-2.28452 1.25976,-3.16992 0.1778,-0.8854 0.15415,-1.79755 0.0449,-3.32422 -0.0746,-1.04307 -0.25778,-2.03815 -0.5371,-2.98242 -0.27933,-0.94427 -0.65483,-1.83689 -1.11329,-2.67383 -0.45846,-0.83694 -1.00125,-1.61875 -1.61328,-2.33984 -0.61202,-0.7211 -1.29317,-1.38179 -2.0332,-1.97852 -1.48006,-1.19345 -3.19063,-2.13055 -5.0293,-2.77539 -1.83867,-0.64484 -3.80606,-0.99733 -5.79883,-1.02539 z"
           id="path995"
           transform="matrix(0.26458333,0,0,0.26458333,0,161.53332)" />
        <path
           inkscape:connector-curvature="0"
           style="opacity:1;fill:#ffffff;fill-opacity:1;stroke:none;stroke-width:7.10931396;stroke-linecap:round;stroke-linejoin:round;stroke-miterlimit:4;stroke-dasharray:none;stroke-opacity:1"
           d="m 234.15234,-306.36914 c -0.81842,0.0144 -1.64657,0.087 -2.48046,0.22266 -1.20031,0.19535 -2.35733,0.49452 -3.45899,0.88281 -1.10166,0.38828 -2.14796,0.8652 -3.12891,1.41992 -0.98094,0.55472 -1.89622,1.18619 -2.73437,1.88086 -0.83815,0.69467 -1.60016,1.4536 -2.27344,2.26172 -0.67328,0.80811 -1.25781,1.66547 -1.74414,2.56055 -0.48633,0.89507 -0.87308,1.82766 -1.15039,2.7832 -0.27731,0.95553 -0.44598,1.93432 -0.49219,2.92383 -0.0462,0.9895 0.0294,1.98935 0.23633,2.98632 0.22387,1.07835 0.56975,2.09676 1.02149,3.04688 0.45173,0.95012 1.00907,1.83196 1.6582,2.63867 0.64912,0.80672 1.38904,1.53741 2.20508,2.18555 0.81603,0.64813 1.70769,1.21312 2.66015,1.6875 0.95246,0.47437 1.96699,0.85909 3.02539,1.14453 1.05841,0.28544 2.16106,0.47141 3.29493,0.55273 1.13386,0.0813 2.29771,0.0579 3.47656,-0.0801 1.17885,-0.13798 2.37306,-0.38928 3.5664,-0.76172 1.86359,-0.58163 3.58126,-1.44499 5.09961,-2.51563 1.51836,-1.07064 2.83815,-2.34884 3.90235,-3.76367 1.06419,-1.41483 1.8739,-2.96591 2.375,-4.58008 0.25055,-0.80708 0.42432,-1.62922 0.51367,-2.45898 0.0893,-0.82977 0.0933,-1.66762 0.008,-2.50196 -0.0936,-0.91355 -0.28226,-1.79524 -0.55859,-2.64062 -0.27633,-0.84538 -0.63928,-1.65453 -1.07813,-2.41797 -0.43885,-0.76344 -0.95403,-1.48267 -1.53515,-2.15039 -0.58113,-0.66772 -1.22848,-1.28356 -1.93164,-1.8418 -1.40634,-1.11648 -3.0375,-1.99977 -4.81055,-2.5957 -0.88653,-0.29797 -1.80801,-0.5247 -2.75586,-0.67188 -0.94785,-0.14717 -1.92123,-0.21465 -2.91016,-0.19726 z"
           id="path993"
           transform="matrix(0.26458333,0,0,0.26458333,0,161.53332)" />
      </g>
    </g>
  </g>
</svg>
