<?xml version="1.0" encoding="UTF-8" standalone="no"?>
<!-- Created with Inkscape (http://www.inkscape.org/) -->

<svg
   xmlns:osb="http://www.openswatchbook.org/uri/2009/osb"
   xmlns:dc="http://purl.org/dc/elements/1.1/"
   xmlns:cc="http://creativecommons.org/ns#"
   xmlns:rdf="http://www.w3.org/1999/02/22-rdf-syntax-ns#"
   xmlns:svg="http://www.w3.org/2000/svg"
   xmlns="http://www.w3.org/2000/svg"
   xmlns:xlink="http://www.w3.org/1999/xlink"
   xmlns:sodipodi="http://sodipodi.sourceforge.net/DTD/sodipodi-0.dtd"
   xmlns:inkscape="http://www.inkscape.org/namespaces/inkscape"
   width="128"
   height="128"
   viewBox="0 0 33.866666 33.866668"
   version="1.1"
   id="svg8"
   inkscape:version="0.92.2 5c3e80d, 2017-08-06"
   sodipodi:docname="pdd.svg">
  <defs
     id="defs2">
    <linearGradient
       inkscape:collect="always"
       id="linearGradient8239">
      <stop
         style="stop-color:#ed0c0c;stop-opacity:1"
         offset="0"
         id="stop8235" />
      <stop
         style="stop-color:#800404;stop-opacity:1"
         offset="1"
         id="stop8237" />
    </linearGradient>
    <linearGradient
       id="linearGradient6987"
       osb:paint="solid">
      <stop
         style="stop-color:#77d2fb;stop-opacity:1;"
         offset="0"
         id="stop6985" />
    </linearGradient>
    <linearGradient
       id="h"
       osb:paint="solid">
      <stop
         offset="0"
         stop-opacity=".196"
         id="stop1059" />
    </linearGradient>
    <linearGradient
       id="g"
       osb:paint="solid">
      <stop
         offset="0"
         stop-color="#fff"
         stop-opacity=".162"
         id="stop1062" />
    </linearGradient>
    <linearGradient
       id="f"
       osb:paint="solid">
      <stop
         offset="0"
         stop-opacity=".078"
         id="stop1065" />
    </linearGradient>
    <linearGradient
       id="e"
       osb:paint="solid">
      <stop
         offset="0"
         stop-opacity=".157"
         id="stop1068" />
    </linearGradient>
    <linearGradient
       inkscape:collect="always"
       xlink:href="#linearGradient8239"
       id="linearGradient8241"
       x1="232.80156"
       y1="79.381378"
       x2="238.09415"
       y2="235.86351"
       gradientUnits="userSpaceOnUse"
       gradientTransform="matrix(0.20188939,0,0,0.20188939,105.55802,193.20351)" />
  </defs>
  <sodipodi:namedview
     id="base"
     pagecolor="#ffffff"
     bordercolor="#666666"
     borderopacity="1.0"
     inkscape:pageopacity="0.0"
     inkscape:pageshadow="2"
     inkscape:zoom="2.8"
     inkscape:cx="91.313819"
     inkscape:cy="64.620205"
     inkscape:document-units="mm"
     inkscape:current-layer="layer1"
     showgrid="false"
     units="px"
     inkscape:window-width="1600"
     inkscape:window-height="792"
     inkscape:window-x="0"
     inkscape:window-y="0"
     inkscape:window-maximized="1" />
  <metadata
     id="metadata5">
    <rdf:RDF>
      <cc:Work
         rdf:about="">
        <dc:format>image/svg+xml</dc:format>
        <dc:type
           rdf:resource="http://purl.org/dc/dcmitype/StillImage" />
        <dc:title></dc:title>
      </cc:Work>
    </rdf:RDF>
  </metadata>
  <g
     inkscape:label="Layer 1"
     inkscape:groupmode="layer"
     id="layer1"
     transform="translate(0,-263.13332)">
    <g
       style="stroke-width:0.85015798"
       inkscape:transform-center-y="-9.4924686"
       inkscape:transform-center-x="5.4653607"
       inkscape:label="Capa 1"
       id="layer1-4-9"
       transform="matrix(2.5774362,0,0,2.5790881,-647.55154,-1255.2429)">
      <g
         style="stroke-width:0.85015798"
         id="layer1-3-65-0"
         inkscape:label="Capa 1"
         transform="translate(0.41988239,0.03484499)" />
    </g>
    <g
       style="stroke-width:0.85015798"
       inkscape:transform-center-y="-9.4924686"
       inkscape:transform-center-x="5.4653607"
       inkscape:label="Capa 1"
       id="layer1-4"
       transform="matrix(2.5774362,0,0,2.5790881,-647.55154,-1255.1229)">
      <g
         style="stroke-width:0.85015798"
         id="layer1-3-65"
         inkscape:label="Capa 1"
         transform="translate(0.41988239,0.03484499)" />
    </g>
    <g
       style="stroke-width:0.85015798"
       inkscape:transform-center-y="-9.4924686"
       inkscape:transform-center-x="5.4653607"
       inkscape:label="Capa 1"
       id="layer1-4-5"
       transform="matrix(2.5774362,0,0,2.5790881,-826.57263,-1255.2429)">
      <g
         style="stroke-width:0.85015798"
         id="layer1-3-65-2"
         inkscape:label="Capa 1"
         transform="translate(0.41988239,0.03484499)" />
    </g>
    <g
       id="g8256"
       transform="matrix(0.98437516,0,0,0.98437516,-130.08633,57.920809)"
       style="stroke-width:1.01587284">
      <rect
         style="opacity:0.25;fill:#000000;fill-opacity:1;fill-rule:nonzero;stroke:none;stroke-width:0.10158729;stroke-miterlimit:4;stroke-dasharray:none;stroke-opacity:1"
         id="rect8251"
         width="34.186794"
         height="33.337502"
         x="132.25989"
         y="209.26776"
         ry="0" />
      <rect
         ry="0"
         y="208.7386"
         x="132.25989"
         height="33.337502"
         width="34.186794"
         id="rect8233"
         style="opacity:1;fill:url(#linearGradient8241);fill-opacity:1;fill-rule:nonzero;stroke:none;stroke-width:0.10158729;stroke-miterlimit:4;stroke-dasharray:none;stroke-opacity:1" />
      <path
         id="path1123"
         d="m 161.82847,228.32937 c -0.51538,-0.50678 -1.65887,-0.77563 -3.39817,-0.79839 -1.17747,-0.0134 -2.59413,0.0902 -4.08522,0.29891 -0.66724,-0.38436 -1.35514,-0.80312 -1.89548,-1.30692 -1.45236,-1.35414 -2.66511,-3.23399 -3.42054,-5.30067 0.0491,-0.19324 0.0912,-0.36291 0.1299,-0.53598 0,0 0.81825,-4.63968 0.60186,-6.20816 a 1.8176094,1.8145604 0 0 0 -0.10626,-0.44495 l -0.071,-0.1821 c -0.22241,-0.51279 -0.65907,-1.05565 -1.34309,-1.02603 l -0.40095,-0.0134 h -0.0113 c -0.76317,0 -1.38482,0.38955 -1.54787,0.9715 -0.49602,1.82617 0.0154,4.55807 0.94344,8.0966 l -0.23747,0.57635 c -0.66424,1.61657 -1.49711,3.24473 -2.23104,4.68136 l -0.0955,0.18639 c -0.77307,1.50964 -1.47387,2.79119 -2.10971,3.87694 l -0.65606,0.34615 c -0.0478,0.0253 -1.17231,0.6193 -1.43645,0.77865 -2.23749,1.33397 -3.7204,2.84789 -3.96648,4.05001 -0.0783,0.3831 -0.0202,0.874 0.37815,1.1012 l 0.63455,0.31869 c 0.27533,0.13749 0.56572,0.20742 0.86299,0.20742 1.5939,0 3.44464,-1.98206 5.99359,-6.42333 2.94302,-0.95646 6.29387,-1.75142 9.23044,-2.19035 2.23835,1.25838 4.99036,2.13195 6.72838,2.13195 0.30803,0 0.5739,-0.0292 0.79029,-0.0859 0.33298,-0.0887 0.6139,-0.27831 0.78512,-0.53556 0.33685,-0.5068 0.40525,-1.20385 0.31405,-1.91808 -0.0275,-0.21217 -0.19703,-0.47413 -0.3803,-0.6528 z m -23.80703,8.46682 c 0.29082,-0.79327 1.44119,-2.36216 3.14221,-3.75367 0.10711,-0.0863 0.3704,-0.33285 0.61175,-0.56178 -1.77889,2.83245 -2.97013,3.96155 -3.75396,4.31545 z m 10.07536,-23.16367 c 0.51281,0 0.80449,1.2893 0.82858,2.49829 0.0241,1.20858 -0.25899,2.05721 -0.61046,2.68426 -0.29082,-0.92897 -0.43149,-2.39391 -0.43149,-3.35166 0,0 -0.0215,-1.83089 0.21381,-1.83089 z m -3.00539,16.50713 c 0.35706,-0.63778 0.72833,-1.31078 1.10777,-2.02413 0.92494,-1.7463 1.50915,-3.11249 1.94452,-4.23556 0.86471,1.57148 1.94279,2.90759 3.20932,3.97827 0.15832,0.13305 0.32566,0.26758 0.50161,0.40158 -2.57649,0.50849 -4.80279,1.12739 -6.7628,1.87984 z m 16.2419,-0.14519 c -0.15702,0.098 -0.60659,0.15454 -0.89526,0.15454 -0.93354,0 -2.08778,-0.42562 -3.70577,-1.11836 a 23.276585,23.237537 0 0 1 1.70318,-0.0692 c 0.93569,0 1.21317,-0.004 2.12821,0.22888 0.91504,0.23278 0.92666,0.70607 0.77006,0.804 z"
         inkscape:connector-curvature="0"
         style="fill:#ffffff;fill-opacity:1;stroke:none;stroke-width:0.268783" />
    </g>
  </g>
</svg>
