<?xml version="1.0" encoding="UTF-8" standalone="no"?>
<!-- Created with Inkscape (http://www.inkscape.org/) -->

<svg
   xmlns:dc="http://purl.org/dc/elements/1.1/"
   xmlns:cc="http://creativecommons.org/ns#"
   xmlns:rdf="http://www.w3.org/1999/02/22-rdf-syntax-ns#"
   xmlns:svg="http://www.w3.org/2000/svg"
   xmlns="http://www.w3.org/2000/svg"
   xmlns:xlink="http://www.w3.org/1999/xlink"
   xmlns:sodipodi="http://sodipodi.sourceforge.net/DTD/sodipodi-0.dtd"
   xmlns:inkscape="http://www.inkscape.org/namespaces/inkscape"
   width="128"
   height="128"
   viewBox="0 0 33.866666 33.866668"
   version="1.1"
   id="svg8"
   inkscape:version="0.92.2 5c3e80d, 2017-08-06"
   sodipodi:docname="d.svg">
  <defs
     id="defs2">
    <linearGradient
       inkscape:collect="always"
       id="linearGradient1391">
      <stop
         style="stop-color:#c50c19;stop-opacity:1"
         offset="0"
         id="stop1387" />
      <stop
         style="stop-color:#fd1b2c;stop-opacity:1"
         offset="1"
         id="stop1389" />
    </linearGradient>
    <linearGradient
       inkscape:collect="always"
       xlink:href="#linearGradient1391"
       id="linearGradient1393"
       x1="-43.061749"
       y1="294.56689"
       x2="-43.540936"
       y2="269.17627"
       gradientUnits="userSpaceOnUse"
       gradientTransform="matrix(1.0135387,0,0,1.0135387,145.04966,-62.803938)" />
  </defs>
  <sodipodi:namedview
     id="base"
     pagecolor="#ffffff"
     bordercolor="#666666"
     borderopacity="1.0"
     inkscape:pageopacity="0.0"
     inkscape:pageshadow="2"
     inkscape:zoom="1.4"
     inkscape:cx="-12.970601"
     inkscape:cy="76.686143"
     inkscape:document-units="mm"
     inkscape:current-layer="layer1"
     showgrid="false"
     units="px"
     inkscape:window-width="1600"
     inkscape:window-height="803"
     inkscape:window-x="0"
     inkscape:window-y="0"
     inkscape:window-maximized="1" />
  <metadata
     id="metadata5">
    <rdf:RDF>
      <cc:Work
         rdf:about="">
        <dc:format>image/svg+xml</dc:format>
        <dc:type
           rdf:resource="http://purl.org/dc/dcmitype/StillImage" />
        <dc:title></dc:title>
      </cc:Work>
    </rdf:RDF>
  </metadata>
  <g
     inkscape:label="Layer 1"
     inkscape:groupmode="layer"
     id="layer1"
     transform="translate(0,-263.13332)">
    <g
       id="g1416"
       transform="translate(-89.781953,57.321001)">
      <rect
         style="opacity:0.25;fill:#000000;fill-opacity:1;stroke:none;stroke-width:0.20918804;stroke-miterlimit:4;stroke-dasharray:none;stroke-dashoffset:0;stroke-opacity:1"
         id="rect1410"
         width="31.75"
         height="27.957567"
         x="90.840286"
         y="209.03503"
         ry="2.8578391" />
      <rect
         ry="2.8578391"
         y="208.4987"
         x="90.840286"
         height="27.957567"
         width="31.75"
         id="rect1320"
         style="opacity:1;fill:url(#linearGradient1393);fill-opacity:1;stroke:none;stroke-width:0.20918804;stroke-miterlimit:4;stroke-dasharray:none;stroke-dashoffset:0;stroke-opacity:1" />
      <path
         style="opacity:0.25;isolation:isolate;fill:#000000;stroke-width:0.13114458"
         inkscape:connector-curvature="0"
         d="m 94.388861,216.95467 v 1.35511 c 0,0.7453 0.613892,1.35513 1.355117,1.35513 6.736502,0 12.196442,5.45994 12.196442,12.19644 0,0.74542 0.61389,1.35525 1.35525,1.35525 h 1.35513 v -1.35525 c 0,-8.2326 -6.67422,-14.90668 -14.906822,-14.90668 z m 0,5.4206 v 1.35513 c 0,0.74541 0.613892,1.35524 1.355117,1.35524 3.741689,0 6.775842,3.03416 6.775842,6.77571 0,0.74542 0.61389,1.35525 1.35513,1.35525 h 1.35524 v -1.35525 c 0,-5.23896 -4.24711,-9.48608 -9.486212,-9.48608 z m 2.710368,5.4206 c -1.497541,0 -2.710368,1.21295 -2.710368,2.71037 0,1.49741 1.212827,2.71036 2.710368,2.71036 1.497409,0 2.710235,-1.21295 2.710235,-2.71036 0,-1.49742 -1.212826,-2.71037 -2.710235,-2.71037 z"
         id="path1408" />
      <path
         id="path1110"
         d="m 94.388861,216.41833 v 1.35511 c 0,0.74531 0.613892,1.35513 1.355117,1.35513 6.736502,0 12.196442,5.45995 12.196442,12.19644 0,0.74543 0.61389,1.35526 1.35525,1.35526 h 1.35513 v -1.35526 c 0,-8.2326 -6.67422,-14.90668 -14.906822,-14.90668 z m 0,5.42061 v 1.35512 c 0,0.74542 0.613892,1.35524 1.355117,1.35524 3.741689,0 6.775842,3.03416 6.775842,6.77571 0,0.74543 0.61389,1.35526 1.35513,1.35526 h 1.35524 v -1.35526 c 0,-5.23896 -4.24711,-9.48607 -9.486212,-9.48607 z m 2.710368,5.4206 c -1.497541,0 -2.710368,1.21295 -2.710368,2.71036 0,1.49741 1.212827,2.71037 2.710368,2.71037 1.497409,0 2.710235,-1.21296 2.710235,-2.71037 0,-1.49741 -1.212826,-2.71036 -2.710235,-2.71036 z"
         inkscape:connector-curvature="0"
         style="isolation:isolate;fill:#ffffff;stroke-width:0.13114458" />
    </g>
  </g>
</svg>
