<?xml version="1.0" encoding="UTF-8" standalone="no"?>
<!-- Created with Inkscape (http://www.inkscape.org/) -->

<svg
   xmlns:dc="http://purl.org/dc/elements/1.1/"
   xmlns:cc="http://creativecommons.org/ns#"
   xmlns:rdf="http://www.w3.org/1999/02/22-rdf-syntax-ns#"
   xmlns:svg="http://www.w3.org/2000/svg"
   xmlns="http://www.w3.org/2000/svg"
   xmlns:xlink="http://www.w3.org/1999/xlink"
   xmlns:sodipodi="http://sodipodi.sourceforge.net/DTD/sodipodi-0.dtd"
   xmlns:inkscape="http://www.inkscape.org/namespaces/inkscape"
   width="128"
   height="128"
   viewBox="0 0 33.866666 33.866668"
   version="1.1"
   id="svg8"
   sodipodi:docname="am.svg"
   inkscape:version="0.92.2 5c3e80d, 2017-08-06">
  <defs
     id="defs2">
    <linearGradient
       inkscape:collect="always"
       id="linearGradient1386">
      <stop
         style="stop-color:#9ec9de;stop-opacity:1"
         offset="0"
         id="stop1382" />
      <stop
         style="stop-color:#20436a;stop-opacity:0;"
         offset="1"
         id="stop1384" />
    </linearGradient>
    <linearGradient
       gradientTransform="matrix(-0.12752917,0,0,-0.12752917,-152.75381,82.084674)"
       y2="-361.34311"
       x2="41.59"
       y1="-413.3049"
       x1="26.415899"
       gradientUnits="userSpaceOnUse"
       id="path116_2_">
      <stop
         id="stop1056"
         style="stop-color:#FFFFFF"
         offset="0" />
      <stop
         id="stop1058"
         style="stop-color:#ECF1FA"
         offset="1" />
    </linearGradient>
    <linearGradient
       gradientTransform="matrix(0.12752917,0,0,-0.12752917,-247.77869,82.084674)"
       y2="-336.3042"
       x2="645.42572"
       y1="-358.72449"
       x1="628.16211"
       gradientUnits="userSpaceOnUse"
       id="polygon123_2_">
      <stop
         id="stop1062"
         style="stop-color:#FFFFFF"
         offset="0" />
      <stop
         id="stop1064"
         style="stop-color:#ECF1FA"
         offset="1" />
    </linearGradient>
    <linearGradient
       gradientTransform="matrix(0.12752917,0,0,-0.12752917,-247.77869,82.084674)"
       y2="-337.96829"
       x2="660.53021"
       y1="-373.63181"
       x1="633.06927"
       gradientUnits="userSpaceOnUse"
       id="polygon130_2_">
      <stop
         id="stop1068"
         style="stop-color:#FFFFFF"
         offset="0" />
      <stop
         id="stop1070"
         style="stop-color:#ECF1FA"
         offset="1" />
    </linearGradient>
    <linearGradient
       gradientTransform="matrix(0.12752917,0,0,-0.12752917,-247.77869,82.084674)"
       y2="-352.07581"
       x2="662.61627"
       y1="-379.7341"
       x1="641.3194"
       gradientUnits="userSpaceOnUse"
       id="polygon137_2_">
      <stop
         id="stop1074"
         style="stop-color:#FFFFFF"
         offset="0" />
      <stop
         id="stop1076"
         style="stop-color:#ECF1FA"
         offset="1" />
    </linearGradient>
    <linearGradient
       gradientTransform="matrix(0.12752917,0,0,-0.12752917,-247.77869,82.084674)"
       y2="-356.12051"
       x2="674.09491"
       y1="-382.54419"
       x1="657.8136"
       gradientUnits="userSpaceOnUse"
       id="polygon144_2_">
      <stop
         id="stop1080"
         style="stop-color:#FFFFFF"
         offset="0" />
      <stop
         id="stop1082"
         style="stop-color:#ECF1FA"
         offset="1" />
    </linearGradient>
    <linearGradient
       gradientTransform="matrix(0.12752917,0,0,-0.12752917,-247.77869,82.084674)"
       y2="-375.06009"
       x2="685.18188"
       y1="-405.7771"
       x1="661.52972"
       gradientUnits="userSpaceOnUse"
       id="polygon151_2_">
      <stop
         id="stop1086"
         style="stop-color:#FFFFFF"
         offset="0" />
      <stop
         id="stop1088"
         style="stop-color:#ECF1FA"
         offset="1" />
    </linearGradient>
    <linearGradient
       gradientTransform="matrix(0.11324167,0,0,-0.11324167,-244.50133,86.236969)"
       y2="-348.34299"
       x2="720.02551"
       y1="-48.325001"
       x1="1066.3485"
       gradientUnits="userSpaceOnUse"
       id="path2270_2_">
      <stop
         id="stop1092"
         style="stop-color:#F8F8F8"
         offset="0" />
      <stop
         id="stop1094"
         style="stop-color:#F8F8F8;stop-opacity:0"
         offset="1" />
    </linearGradient>
    <linearGradient
       gradientTransform="matrix(0.11324167,0,0,-0.11324167,-244.50133,86.236969)"
       y2="-301.80499"
       x2="727.44171"
       y1="-69.990997"
       x1="727.56702"
       gradientUnits="userSpaceOnUse"
       id="path2476_2_">
      <stop
         id="stop1098"
         style="stop-color:#F8F8F8"
         offset="0" />
      <stop
         id="stop1100"
         style="stop-color:#F8F8F8;stop-opacity:0"
         offset="1" />
    </linearGradient>
    <linearGradient
       gradientTransform="matrix(0.11324167,0,0,-0.11324167,-244.50133,86.236969)"
       y2="-339.42361"
       x2="656.9892"
       y1="-247.1606"
       x1="692.35327"
       gradientUnits="userSpaceOnUse"
       id="path5482_2_">
      <stop
         id="stop1104"
         style="stop-color:#F8F8F8"
         offset="0" />
      <stop
         id="stop1106"
         style="stop-color:#F8F8F8;stop-opacity:0"
         offset="1" />
    </linearGradient>
    <linearGradient
       gradientTransform="matrix(0.11324167,0,0,-0.11324167,-244.50133,86.236969)"
       y2="-311.7291"
       x2="671.17261"
       y1="-391.92761"
       x1="681.78418"
       gradientUnits="userSpaceOnUse"
       id="path6524_2_">
      <stop
         id="stop1110"
         style="stop-color:#F8F8F8"
         offset="0" />
      <stop
         id="stop1112"
         style="stop-color:#F8F8F8;stop-opacity:0"
         offset="1" />
    </linearGradient>
    <radialGradient
       inkscape:collect="always"
       xlink:href="#linearGradient1386"
       id="radialGradient1388"
       cx="-317.89792"
       cy="564.30432"
       fx="-317.89792"
       fy="564.30432"
       r="42.108395"
       gradientTransform="matrix(0.17326744,0.04102591,-0.06968897,0.29432206,-69.236015,-19.003281)"
       gradientUnits="userSpaceOnUse" />
  </defs>
  <sodipodi:namedview
     id="base"
     pagecolor="#ffffff"
     bordercolor="#666666"
     borderopacity="1.0"
     inkscape:pageopacity="0.0"
     inkscape:pageshadow="2"
     inkscape:zoom="2.3897999"
     inkscape:cx="29.734806"
     inkscape:cy="57.471492"
     inkscape:document-units="mm"
     inkscape:current-layer="layer1"
     showgrid="false"
     inkscape:window-width="1600"
     inkscape:window-height="811"
     inkscape:window-x="0"
     inkscape:window-y="0"
     inkscape:window-maximized="1"
     units="px" />
  <metadata
     id="metadata5">
    <rdf:RDF>
      <cc:Work
         rdf:about="">
        <dc:format>image/svg+xml</dc:format>
        <dc:type
           rdf:resource="http://purl.org/dc/dcmitype/StillImage" />
        <dc:title></dc:title>
      </cc:Work>
    </rdf:RDF>
  </metadata>
  <g
     inkscape:label="Layer 1"
     inkscape:groupmode="layer"
     id="layer1"
     transform="translate(0,-263.13332)">
    <g
       id="g1504"
       transform="matrix(0.98360631,0,0,0.98360631,173.91886,161.43458)">
      <circle
         style="opacity:0.25;fill:#000000;fill-opacity:1;stroke-width:0.75595242"
         cx="-159.60199"
         cy="120.87389"
         r="15.875"
         id="circle1483" />
      <circle
         id="circle1050"
         r="15.875"
         cy="120.34472"
         cx="-159.60199"
         style="fill:#2e6196;fill-opacity:1;stroke-width:0.75595242" />
      <circle
         id="circle1052"
         r="14.458856"
         cy="120.34472"
         cx="-159.60199"
         style="fill:#d9d9d9;fill-opacity:1;stroke-width:0.82622033" />
      <path
         id="circle1431"
         d="m -159.60202,105.88578 a 14.458856,14.458856 0 0 0 -14.45891,14.45891 14.458856,14.458856 0 0 0 5.02711,10.94971 14.458856,14.458856 0 0 1 -3.62169,-9.54428 14.458856,14.458856 0 0 1 14.45891,-14.45891 14.458856,14.458856 0 0 1 9.43181,3.5092 14.458856,14.458856 0 0 0 -10.83723,-4.91463 z"
         style="opacity:0.2;fill:#000000;fill-opacity:1;stroke-width:0.82622033"
         inkscape:connector-curvature="0" />
      <path
         id="circle1411"
         d="m -152.43605,111.55067 c -0.56999,0 -1.67659,1.31366 -2.09161,1.5208 -0.41502,0.20712 -3.69898,2.55816 -4.01044,2.97318 -0.31145,0.41502 -0.72574,0.58743 -1.17553,0.55341 -0.44903,-0.0348 -1.87015,-0.0491 -2.35396,0.22757 -0.48381,0.27668 -2.69338,2.53765 -3.24598,2.81433 -0.55336,0.27667 -1.27459,0.41804 -1.62082,0.45281 -0.34547,0.0348 -1.49083,1.31021 -1.80229,1.55211 -0.31145,0.24191 -2.76976,1.30538 -3.11523,1.51327 -0.34547,0.20713 2.52193,3.11236 2.93695,3.18191 0.41501,0.36664 -0.0984,1.71445 -2.138,1.71445 -0.0578,0 0.55888,1.62175 2.18409,3.38542 a 14.458856,14.458856 0 0 0 9.26685,3.36368 14.458856,14.458856 0 0 0 3.60284,-0.46761 l 0.12727,-1.90288 c 0.0348,-0.55336 0.0635,-1.28074 0.13306,-1.90289 0.0696,-0.62215 0.31149,-5.84276 1.21032,-7.2254 0.89883,-1.38263 3.46761,-3.04271 4.36643,-3.21582 0.89883,-0.17312 0.72562,-0.5187 0.72562,-0.8294 0,-0.31145 -0.13815,-1.00239 -0.38006,-1.10596 -0.2419,-0.10357 -1.18616,0.51941 -1.49761,0.5882 -0.31145,0.0688 -1.7978,0.17316 -2.00493,-0.17306 -0.20713,-0.34548 1.67675,-3.87198 1.91941,-4.287 0.24191,-0.41502 0.34554,-0.96822 -0.10349,-1.55559 -0.44904,-0.58738 -0.76053,-1.17553 -0.93289,-1.17553 z"
         style="opacity:0.2;fill:#000000;fill-opacity:1;stroke-width:0.82622033"
         inkscape:connector-curvature="0" />
      <path
         sodipodi:nodetypes="scscccccccscccssssccccss"
         style="fill:#20436a;fill-opacity:1;stroke-width:0.75595242"
         inkscape:connector-curvature="0"
         id="path58_26_"
         d="m -153.62346,110.65998 c -0.56999,0 -1.6767,1.31384 -2.09172,1.52098 -0.41502,0.20712 -3.69887,2.55814 -4.01033,2.97316 -0.31145,0.41501 -0.72571,0.58737 -1.1755,0.55335 -0.44904,-0.0348 -1.87023,-0.0491 -2.35404,0.22754 -0.48381,0.27668 -2.69346,2.53774 -3.24606,2.81442 -0.55335,0.27667 -1.27453,0.41804 -1.62076,0.45281 -0.34547,0.0348 -1.49074,1.31007 -1.80219,1.55197 -0.31145,0.24191 -2.76981,1.30553 -3.11528,1.51342 -0.34547,0.20713 2.52186,3.11225 2.93688,3.1818 0.41501,0.36664 -0.2465,1.74744 -2.28606,1.74744 -0.0877,0 1.52481,3.70222 5.71354,6.00032 3.62102,1.98664 7.99528,1.89487 9.42252,1.41334 l 0.1932,-3.06812 c 0.0348,-0.55336 0.0635,-1.28059 0.13305,-1.90273 0.0695,-0.62215 0.31145,-5.84276 1.21028,-7.2254 0.89882,-1.38264 3.46755,-3.0427 4.36638,-3.21582 0.89882,-0.17311 0.72571,-0.51858 0.72571,-0.82928 0,-0.31145 -0.13834,-1.00239 -0.38024,-1.10596 -0.24191,-0.10356 -1.18609,0.51934 -1.49754,0.58814 -0.31146,0.0688 -1.79766,0.17311 -2.00479,-0.17312 -0.20713,-0.34547 1.6767,-3.87199 1.91936,-4.28701 0.24191,-0.41501 0.34547,-0.96837 -0.10356,-1.55574 -0.44904,-0.58738 -0.76049,-1.17551 -0.93285,-1.17551 z" />
      <path
         sodipodi:nodetypes="cccccccc"
         inkscape:connector-curvature="0"
         id="path1377"
         d="m -162.47171,124.16264 c -3.53006,0.002 -6.47771,3.10932 -6.80041,7.16945 0.71499,0.65721 1.57439,1.30405 2.59719,1.86519 3.62101,1.98665 7.99523,1.89479 9.42247,1.41325 l 0.19313,-3.06798 c 0.0348,-0.55335 0.0635,-1.28073 0.13306,-1.90288 0.0238,-0.2126 0.0709,-0.97941 0.15423,-1.92927 -1.26329,-2.21334 -3.40442,-3.54609 -5.69967,-3.54776 z"
         style="fill:url(#radialGradient1388);fill-opacity:1;stroke-width:0.75595242" />
      <path
         style="fill:#ffffff;stroke-width:0.75595242"
         inkscape:connector-curvature="0"
         id="path60_13_"
         d="m -160.52001,117.17629 c 0,0 -1.36979,-0.21091 -2.15976,0.57981 -0.78997,0.78997 -1.47562,2.52866 -1.4227,3.05556 0.0529,0.5269 1.63286,-1.79085 2.31775,-1.94884 0.68565,-0.15875 1.42346,-1.31763 1.26471,-1.68653 z" />
      <path
         style="opacity:0.18000004;fill:url(#path116_2_);stroke-width:0.75595242"
         inkscape:connector-curvature="0"
         id="path116_13_"
         enable-background="new    "
         d="m -157.06153,124.44855 c 0,0 -1.2254,4.1721 -1.25639,4.23636 -0.17538,0.36437 -0.49817,1.41892 -0.38705,1.7591 0.13078,0.40141 0.62215,0.98501 0.8512,1.2768 0.22906,0.2918 0.32733,0.4377 0.26156,0.54731 -0.0658,0.10961 -0.91621,0.10961 -0.91621,0.10961 0,0 -0.65466,-0.985 -0.78544,-1.34937 -0.13078,-0.36437 -0.19654,-1.13091 -0.065,-1.38566 0.13003,-0.25627 2.29734,-5.19415 2.29734,-5.19415 z" />
      <path
         style="opacity:0.18000004;fill:url(#polygon123_2_);stroke-width:0.75595242"
         inkscape:connector-curvature="0"
         id="polygon123_13_"
         enable-background="new    "
         d="m -165.6998,125.22567 -2.23913,1.93826 2.80685,-1.67065 z" />
      <path
         style="opacity:0.18000004;fill:url(#polygon130_2_);stroke-width:0.75595242"
         inkscape:connector-curvature="0"
         id="polygon130_13_"
         enable-background="new    "
         d="m -163.49393,124.55741 -3.80924,4.94544 4.37772,-4.61131 z" />
      <path
         style="opacity:0.18000004;fill:url(#polygon137_2_);stroke-width:0.75595242"
         inkscape:connector-curvature="0"
         id="polygon137_13_"
         enable-background="new    "
         d="m -163.19306,126.26132 -2.90739,4.61131 3.57565,-4.31119 z" />
      <path
         style="opacity:0.18000004;fill:url(#polygon144_2_);stroke-width:0.75595242"
         inkscape:connector-curvature="0"
         id="polygon144_13_"
         enable-background="new    "
         d="m -161.48914,126.061 -2.43946,5.71424 3.24152,-5.54718 z" />
      <path
         style="opacity:0.18000004;fill:url(#polygon151_2_);stroke-width:0.75595242"
         inkscape:connector-curvature="0"
         id="polygon151_13_"
         enable-background="new    "
         d="m -160.52001,127.56459 -0.20033,5.21305 0.86859,-5.14653 z" />
      <path
         style="opacity:0.57999998;fill:url(#path2270_2_);stroke-width:0.75595242"
         inkscape:connector-curvature="0"
         id="path2270_13_"
         enable-background="new    "
         d="m -160.36655,129.68805 c -2.3805,-1.05908 -4.5274,-2.51203 -6.38175,-4.32026 -0.20789,-0.20259 -0.25476,-0.25703 -0.25476,-0.29634 0,-0.0416 0.0597,-0.10053 0.4188,-0.41577 0.73176,-0.64256 0.89202,-0.81341 1.01675,-1.08328 0.127,-0.27517 0.39008,-0.60022 0.90337,-1.11503 1.13241,-1.1362 3.18861,-2.83482 4.15774,-3.43505 0.16857,-0.10432 0.26533,-0.17991 0.39838,-0.31069 0.42334,-0.41426 1.07799,-1.25262 2.44324,-3.12435 1.45294,-1.9927 1.94204,-2.63676 2.42585,-3.1939 0.29256,-0.3364 0.50725,-0.53673 0.5904,-0.54958 0.0355,-0.005 0.0945,-0.0151 0.13078,-0.0212 0.0363,-0.006 0.0832,-0.003 0.10357,0.006 0.0204,0.009 0.0506,0.0219 0.0665,0.0272 0.031,0.01 0.62064,0.67733 0.8376,0.94796 0.26004,0.32431 0.28348,0.41502 0.15345,0.59191 -0.0484,0.0658 -0.0953,0.16102 -0.13153,0.2661 -0.062,0.18143 -0.38025,0.8255 -0.87086,1.76061 -0.38554,0.73479 -0.90714,1.77422 -1.07043,2.13179 -0.34396,0.75444 -0.51253,1.27453 -0.46793,1.44916 0.0144,0.0575 0.1013,0.0983 0.33488,0.15799 0.54656,0.1391 1.05153,0.11868 1.52249,-0.0635 0.0711,-0.0272 0.23813,-0.11264 0.37117,-0.18974 0.40595,-0.23435 0.71136,-0.36513 1.09311,-0.46794 0.18219,-0.0491 0.22603,-0.0544 0.46869,-0.0559 0.25476,-0.002 0.27215,5.6e-4 0.35379,0.0424 0.0741,0.0378 0.0877,0.0537 0.10054,0.11187 0.028,0.13229 0.0333,0.21772 0.0136,0.23737 -0.0106,0.0106 -0.0189,0.0363 -0.0189,0.0575 0,0.0862 -0.20789,0.15648 -0.78695,0.26458 -0.60778,0.11339 -0.63651,0.12549 -1.05984,0.44147 -0.94645,0.70758 -2.41905,1.98967 -2.94141,2.56041 -0.23662,0.2593 -0.60023,0.76049 -1.09009,1.5036 -1.09839,1.66838 -1.85964,3.10923 -2.06299,3.906 -0.0401,0.158 -0.15421,0.87312 -0.25702,1.61774 -0.0952,0.68716 -0.0998,0.70833 -0.14515,0.70606 -0.0204,0.002 -0.18445,-0.0643 -0.36512,-0.14514 z" />
      <path
         style="fill:url(#path2476_2_);stroke-width:0.75595242"
         inkscape:connector-curvature="0"
         id="path2476_13_"
         d="m -166.80424,120.40042 c -0.0106,-0.0378 -0.008,-0.37041 0.003,-0.52614 0.008,-0.11113 0.0159,-0.14817 0.0453,-0.23585 0.0915,-0.27064 0.22603,-0.42107 0.42031,-0.47172 0.0726,-0.0189 0.11188,-0.0378 0.2162,-0.10583 0.21545,-0.13985 0.48986,-0.37118 0.92907,-0.78393 0.11944,-0.11187 0.60249,-0.58737 1.07496,-1.05681 0.47247,-0.46945 0.87918,-0.86859 0.90488,-0.88749 0.0257,-0.0189 0.0643,-0.0385 0.0847,-0.0439 0.15119,-0.0401 0.51783,-0.0597 1.4469,-0.0771 0.87312,-0.0159 1.24505,-0.0333 1.3592,-0.0612 0.11868,-0.0295 0.39007,-0.18974 0.93587,-0.55412 0.39536,-0.26306 1.23598,-0.8444 1.72281,-1.19138 0.13078,-0.093 0.1837,-0.12548 0.20487,-0.12548 0.0151,0 0.0302,-0.004 0.034,-0.009 0.003,-0.005 0.0121,-0.009 0.0204,-0.009 0.0121,0 0.0136,0.01 0.009,0.0544 -0.0106,0.11415 -0.0174,0.13758 -0.0537,0.18596 -0.0983,0.13078 -0.35605,0.34169 -0.65995,0.53975 -0.0779,0.0507 -0.22981,0.16026 -0.33715,0.24342 -1.08177,0.83835 -1.81731,1.33501 -2.13481,1.4416 -0.0627,0.0212 -0.0877,0.0242 -0.20108,0.0242 -0.21847,0 -0.47021,0.0476 -0.89883,0.16933 -0.63198,0.17992 -1.2133,0.41653 -1.51871,0.61686 -0.26534,0.17462 -0.47852,0.50875 -0.69245,1.08781 -0.0839,0.22754 -0.1837,0.56394 -0.30314,1.02659 -0.0295,0.11566 -0.0574,0.21469 -0.0605,0.21998 -0.004,0.006 -0.56999,0.13078 -1.25942,0.27819 -0.68867,0.14741 -1.26017,0.27063 -1.26925,0.2729 -0.0106,0.004 -0.0174,-0.002 -0.0227,-0.0219 z" />
      <path
         style="opacity:0.7;fill:url(#path5482_2_);stroke-width:0.75595242"
         inkscape:connector-curvature="0"
         id="path5482_13_"
         enable-background="new    "
         d="m -170.04879,124.59747 c -0.0129,-0.003 -0.0386,-0.005 -0.0575,-0.005 -0.0809,-5.6e-4 -0.3107,-0.11717 -0.55865,-0.28197 -0.26837,-0.17916 -0.48381,-0.35 -0.72874,-0.5783 -0.0491,-0.0461 -0.13532,-0.12473 -0.1905,-0.17538 -0.14892,-0.13608 -0.37949,-0.3674 -0.44752,-0.4498 -0.12398,-0.14967 -0.18975,-0.26004 -0.19882,-0.33186 -0.0136,-0.10886 -0.0136,-0.1338 0.005,-0.22754 0.004,-0.0211 0.0567,-0.0665 0.12776,-0.11112 0.13305,-0.0832 0.41653,-0.27517 1.4159,-0.96006 1.52022,-1.04246 2.16051,-1.4658 2.49767,-1.65327 0.0854,-0.0476 0.10885,-0.0529 0.2351,-0.0529 0.12095,0 0.223,0.0106 0.29557,0.0318 0.14439,0.0416 0.36815,0.12927 0.56546,0.22149 0.0983,0.0461 0.10583,0.0507 0.10583,0.065 0,0.0144 -0.003,0.0166 -0.034,0.0257 -0.0711,0.0196 -0.26005,0.0824 -0.41502,0.13682 -0.94191,0.33111 -1.88459,0.7877 -2.72747,1.32065 -0.19957,0.12625 -0.22301,0.14363 -0.29785,0.21771 -0.21166,0.21168 -0.40292,0.54278 -0.45584,0.79149 -0.008,0.0348 -0.0106,0.0756 -0.0106,0.13078 0,0.0877 0.0106,0.1338 0.0431,0.18974 0.13078,0.22225 0.79223,0.43241 1.64873,0.52312 0.25022,0.0265 0.36512,0.0325 0.61837,0.0325 h 0.24719 l 0.0658,-0.0227 c 0.17463,-0.0605 0.41426,-0.1973 0.9336,-0.5337 0.45055,-0.2918 0.58889,-0.37646 0.74991,-0.45811 0.15043,-0.0763 0.22603,-0.099 0.29028,-0.0869 0.0249,0.004 0.0295,0.0181 0.0295,0.09 7.3e-4,0.10281 -0.0106,0.14212 -0.0635,0.21998 -0.15119,0.22452 -0.52236,0.52917 -1.04548,0.85801 -0.43921,0.27592 -0.93965,0.53219 -1.20574,0.61686 -0.025,0.008 -0.093,0.0257 -0.15044,0.0385 -0.30691,0.0703 -0.61383,0.17991 -1.01978,0.36361 -0.0575,0.0257 -0.1081,0.0453 -0.12775,0.0476 -0.0575,0.0106 -0.11491,0.0128 -0.1391,0.008 z" />
      <path
         style="fill:url(#path6524_2_);stroke-width:0.75595242"
         inkscape:connector-curvature="0"
         id="path6524_13_"
         d="m -168.99197,122.86936 c -0.006,-5.6e-4 -0.0809,-0.003 -0.16631,-0.004 -0.15421,-0.003 -0.25098,-0.01 -0.38931,-0.0265 -0.31977,-0.0393 -0.53295,-0.10205 -0.60779,-0.17992 -0.0159,-0.0166 -0.0212,-0.0363 -0.0212,-0.0779 0,-0.0544 0.005,-0.0756 0.0287,-0.12096 0.0983,-0.19352 0.38176,-0.49968 0.71589,-0.77258 0.0733,-0.0597 0.19503,-0.15118 0.25778,-0.19352 l 0.0453,-0.0302 1.03263,-0.12473 1.03264,-0.12473 0.068,0.004 c 0.0635,0.004 0.11793,0.008 0.25627,0.0189 0.0635,0.005 0.0688,0.008 0.0627,0.0294 -0.002,0.008 -0.004,0.0196 -0.004,0.028 0,0.0204 -0.0325,0.0968 -0.0779,0.18219 -0.24417,0.45962 -0.73705,1.03868 -1.06514,1.2511 -0.0937,0.0605 -0.16026,0.09 -0.24492,0.10659 -0.0862,0.0174 -0.19655,0.0287 -0.31977,0.0317 -0.1202,0.003 -0.58511,0.006 -0.60401,0.004 z" />
      <path
         style="fill:#0550be;stroke-width:0.75595242"
         inkscape:connector-curvature="0"
         id="path58_25_"
         d="M -166.28415,131.99901" />
    </g>
  </g>
</svg>
