<?xml version="1.0" encoding="UTF-8" standalone="no"?>
<!-- Created with Inkscape (http://www.inkscape.org/) -->

<svg
   xmlns:dc="http://purl.org/dc/elements/1.1/"
   xmlns:cc="http://creativecommons.org/ns#"
   xmlns:rdf="http://www.w3.org/1999/02/22-rdf-syntax-ns#"
   xmlns:svg="http://www.w3.org/2000/svg"
   xmlns="http://www.w3.org/2000/svg"
   xmlns:xlink="http://www.w3.org/1999/xlink"
   xmlns:sodipodi="http://sodipodi.sourceforge.net/DTD/sodipodi-0.dtd"
   xmlns:inkscape="http://www.inkscape.org/namespaces/inkscape"
   width="128"
   height="128"
   viewBox="0 0 33.866666 33.866668"
   version="1.1"
   id="svg8"
   inkscape:version="0.92.2 5c3e80d, 2017-08-06"
   sodipodi:docname="androi.svg">
  <defs
     id="defs2">
    <path
       d="m 436,163.6 v 0 l -16.4,-28.3 c 23.9,-20.2 39.1,-50.3 39.1,-84 0,-60.7 -49.3,-110 -110,-110 -60.7,0 -110,49.3 -110,110 0,33.7 15.2,63.9 39.1,84.1 l -16.4,28.3 c -0.5,0.9 -0.8,1.8 -0.9,2.8 l -1.4,18.5 c -0.1,0.7 0.3,1.3 0.9,1.7 v 0 0 c 0.6,0.4 1.3,0.3 1.9,-0.1 l 15.4,-10.4 c 0.8,-0.6 1.5,-1.3 2,-2.1 v 0 l 15.5,-26.8 c 15.9,9 34.3,14.1 53.9,14.1 19.6,0 38,-5.2 54,-14.2 l 15.5,26.8 c 0.5,0.9 1.2,1.6 2,2.1 l 15.4,10.5 c 0.6,0.4 1.3,0.4 1.9,0.1 v 0 0 c 0.6,-0.4 0.9,-1 0.9,-1.7 L 437,166.5 c -0.2,-1 -0.4,-2 -1,-2.9 z"
       id="SVGID_7_"
       inkscape:connector-curvature="0" />
    <clipPath
       id="SVGID_8_">
      <use
         id="use952"
         xlink:href="#SVGID_7_"
         overflow="visible"
         y="0"
         x="0"
         height="100%"
         width="100%"
         style="overflow:visible" />
    </clipPath>
    <path
       d="m 436,163.6 v 0 l -16.4,-28.3 c 23.9,-20.2 39.1,-50.3 39.1,-84 0,-60.7 -49.3,-110 -110,-110 -60.7,0 -110,49.3 -110,110 0,33.7 15.2,63.9 39.1,84.1 l -16.4,28.3 c -0.5,0.9 -0.8,1.8 -0.9,2.8 l -1.4,18.5 c -0.1,0.7 0.3,1.3 0.9,1.7 v 0 0 c 0.6,0.4 1.3,0.3 1.9,-0.1 l 15.4,-10.4 c 0.8,-0.6 1.5,-1.3 2,-2.1 v 0 l 15.5,-26.8 c 15.9,9 34.3,14.1 53.9,14.1 19.6,0 38,-5.2 54,-14.2 l 15.5,26.8 c 0.5,0.9 1.2,1.6 2,2.1 l 15.4,10.5 c 0.6,0.4 1.3,0.4 1.9,0.1 v 0 0 c 0.6,-0.4 0.9,-1 0.9,-1.7 L 437,166.5 c -0.2,-1 -0.4,-2 -1,-2.9 z"
       id="SVGID_5_"
       inkscape:connector-curvature="0" />
    <clipPath
       id="SVGID_6_">
      <use
         id="use956"
         xlink:href="#SVGID_5_"
         overflow="visible"
         y="0"
         x="0"
         height="100%"
         width="100%"
         style="overflow:visible" />
    </clipPath>
    <linearGradient
       gradientUnits="userSpaceOnUse"
       gradientTransform="matrix(0.12405575,0,0,-0.12405575,-184.49495,136.92219)"
       y2="-603.15698"
       y1="5.6079998"
       x2="-114.893"
       x1="31.683001"
       id="SVGID_13_">
      <stop
         id="stop959"
         offset=".33"
         style="stop-color:#263238;stop-opacity:0.16" />
      <stop
         id="stop961"
         offset="1"
         style="stop-color:#263238;stop-opacity:0" />
    </linearGradient>
  </defs>
  <sodipodi:namedview
     id="base"
     pagecolor="#ffffff"
     bordercolor="#666666"
     borderopacity="1.0"
     inkscape:pageopacity="0.0"
     inkscape:pageshadow="2"
     inkscape:zoom="2.8"
     inkscape:cx="19.357166"
     inkscape:cy="73.302956"
     inkscape:document-units="mm"
     inkscape:current-layer="layer1"
     showgrid="false"
     units="px"
     inkscape:window-width="1600"
     inkscape:window-height="792"
     inkscape:window-x="0"
     inkscape:window-y="0"
     inkscape:window-maximized="1" />
  <metadata
     id="metadata5">
    <rdf:RDF>
      <cc:Work
         rdf:about="">
        <dc:format>image/svg+xml</dc:format>
        <dc:type
           rdf:resource="http://purl.org/dc/dcmitype/StillImage" />
        <dc:title></dc:title>
      </cc:Work>
    </rdf:RDF>
  </metadata>
  <g
     inkscape:label="Layer 1"
     inkscape:groupmode="layer"
     id="layer1"
     transform="translate(0,-263.13332)">
    <g
       id="g1064"
       transform="matrix(0.27731476,0,0,0.27731476,59.3312,237.85488)"
       style="stroke-width:3.60601068">
      <circle
         id="circle966"
         r="53.304279"
         cy="145.41289"
         cx="-153.23668"
         style="fill:#90c652;fill-opacity:1;stroke-width:0.9540903" />
      <path
         id="path968"
         d="M -153.23654,92.108426 A 53.30427,53.30427 0 0 0 -206.5408,145.41269 H -99.932277 A 53.30427,53.30427 0 0 0 -153.23654,92.108426 Z"
         style="opacity:0.2;fill:#000201;stroke-width:0.9540903"
         inkscape:connector-curvature="0" />
      <path
         id="path970"
         transform="matrix(0.48478214,0,0,0.48478214,-321.93069,120.67346)"
         clip-path="url(#SVGID_6_)"
         d="m 348.7,-57.5 c 60.5,0 109.7,48.9 110,109.4 0,-0.2 0,-0.4 0,-0.6 0,-60.7 -49.3,-110 -110,-110 -60.7,-0.1 -110,49.2 -110,110 0,0.2 0,0.4 0,0.6 0.4,-60.4 49.5,-109.4 110,-109.4 z"
         style="opacity:0.2;fill:#ffffff;stroke-width:3.60601068"
         inkscape:connector-curvature="0" />
      <path
         id="path972"
         transform="matrix(0.48478214,0,0,0.48478214,-321.93069,120.67346)"
         clip-path="url(#SVGID_8_)"
         d="m 348.7,160 c -60.5,0 -109.7,-48.9 -110,-109.4 0,0.2 0,0.4 0,0.6 0,60.7 49.3,110 110,110 60.7,0 110,-49.3 110,-110 0,-0.2 0,-0.4 0,-0.6 -0.3,60.5 -49.4,109.4 -110,109.4 z"
         style="opacity:0.5;fill:#263238;stroke-width:3.60601068"
         inkscape:connector-curvature="0" />
      <path
         id="path974"
         d="m -159.04351,115.77754 v 0.0483 9.93803 h -3.15108 c -3.05413,0 -5.575,2.52087 -5.575,5.575 v 12.65263 h 0.0483 c -0.0485,0.4363 0.24201,0.96994 0.82375,1.60016 0.0485,0.0485 0.0483,0.0481 0.0483,0.0966 l 1.93913,1.93913 -22.34827,38.73429 c 2.56935,2.18152 5.33261,4.0716 8.2413,5.71986 7.75651,4.36304 16.62803,6.88447 26.17823,6.88447 0.59386,0 1.18521,-0.01 1.77439,-0.0293 8.83757,-0.29292 17.13212,-2.76477 24.40385,-6.85512 0.36359,-0.20603 0.72519,-0.41661 1.08413,-0.63154 2.51264,-1.50453 4.90899,-3.22191 7.15717,-5.08832 0.49084,-0.41509 0.97451,-0.83873 1.44961,-1.27066 7.12651,-6.47887 12.45758,-14.82751 15.27537,-24.32621 0.19391,-0.63022 0.33916,-1.25987 0.53307,-1.84161 l -13.28226,-13.28322 v -0.0975 h -2.47315 l -29.76486,-29.76489 h -6.20559 z"
         style="fill:url(#SVGID_13_);stroke-width:0.9540903"
         inkscape:connector-curvature="0" />
      <path
         id="path976"
         d="m -150.07542,156.78973 c -0.77565,0.77565 -1.79369,1.16347 -2.76326,1.16347 l -0.0485,-0.0485 v 0.0485 c -1.01805,0 -2.03609,-0.38782 -2.76326,-1.16347 l -1.89065,-1.89066 -9.01695,15.60999 c 4.07217,2.27848 8.77456,3.53891 13.71933,3.53891 4.94478,0 9.69565,-1.30891 13.76782,-3.53891 l -9.01695,-15.65846 z"
         style="fill:none;stroke-width:0.9540903"
         inkscape:connector-curvature="0" />
      <path
         id="path978"
         d="m -158.07433,116.69821 v 0.0483 9.93803 h -3.15108 c -3.05413,0 -5.575,2.52087 -5.575,5.575 v 12.65262 h 0.0483 c -0.0485,0.48478 0.24277,1.01823 0.87298,1.64845 l 11.19828,11.19828 c 0.77565,0.77565 1.79332,1.16367 2.76288,1.16367 v -0.0483 l 0.0492,0.0483 c 1.01804,0 2.0357,-0.38802 2.76288,-1.16367 l 11.19828,-11.19828 c 0.63022,-0.63022 0.87299,-1.21215 0.87299,-1.64845 h 0.0483 v -12.60433 c -0.0485,-3.10261 -2.52068,-5.62329 -5.62328,-5.62329 h -3.1028 v -9.93803 -0.0483 h -6.20559 z m 6.15636,14.78585 0.0492,0.0966 c 4.07217,0.0485 7.4166,3.34518 7.4166,7.46583 0,4.12065 -3.34443,7.41736 -7.4166,7.46584 h -0.0492 c -4.07217,0 -7.4166,-3.34519 -7.4166,-7.46584 0,-4.12065 3.34443,-7.46583 7.4166,-7.46583 z m 28.55385,15.02825 c 0,7.06205 -2.606,13.54477 -6.90341,18.58173 l -9.57918,-16.54603 -7.32002,7.32002 9.01676,15.65884 c -4.07217,2.27848 -8.77475,3.53929 -13.768,3.53929 -4.99326,0 -9.69508,-1.30929 -13.71877,-3.53929 l 9.01676,-15.65884 -7.32002,-7.32002 -30.29888,52.454 c -0.24239,0.4363 -0.38802,0.87204 -0.4365,1.35682 l -0.67888,9.01676 c -0.0485,0.33934 0.14562,0.63078 0.43649,0.8247 0.29087,0.19391 0.63041,0.14562 0.92128,-0.0483 l 7.46583,-5.04192 c 0.38783,-0.29087 0.72718,-0.63003 0.96957,-1.01785 l 14.97901,-25.93585 c 5.52651,3.10261 11.92639,4.89611 18.71334,4.89611 6.78076,0 13.17419,-1.7902 18.69725,-4.88759 l 14.94588,25.8298 c 0.24239,0.43631 0.58174,0.77547 0.96956,1.01786 l 7.46583,5.09021 c 0.29087,0.19391 0.63041,0.19467 0.92128,0.0492 0.29087,-0.19391 0.43649,-0.48535 0.43649,-0.82469 l -0.72717,-8.96847 c -0.0485,-0.48479 -0.1941,-0.92052 -0.43649,-1.35683 l -15.49504,-26.87511 c 7.16419,-6.97971 11.66507,-16.76482 11.66507,-27.5663 z"
         style="opacity:0.3;fill:#030303;stroke-width:0.9540903"
         inkscape:connector-curvature="0" />
      <path
         id="path980"
         d="m -110.12937,201.38968 c -0.0485,-0.48478 -0.19391,-0.92108 -0.4363,-1.35739 v 0 l -15.51303,-26.90541 -5.13869,-8.96847 -9.59869,-16.57954 -7.32021,7.3202 9.01695,15.65847 4.94478,8.58064 14.97976,25.88737 c 0.2424,0.4363 0.58174,0.77565 0.96957,1.01804 l 7.46565,5.09022 c 0.29086,0.19391 0.63021,0.19391 0.92108,0.0485 v 0 0 c 0.29087,-0.19391 0.4363,-0.48478 0.4363,-0.82413 z"
         style="fill:#eeeeee;stroke-width:0.9540903"
         inkscape:connector-curvature="0" />
      <path
         id="path982"
         d="m -123.36392,146.51234 c 0,7.07783 -2.61782,13.5739 -6.93239,18.61564 -2.23,2.56934 -4.84782,4.75086 -7.85347,6.39912 -4.07217,2.27848 -8.77455,3.53891 -13.76781,3.53891 -4.99325,0 -9.69564,-1.30891 -13.71933,-3.53891 l 9.01694,-15.65846 -7.32021,-7.32021 -30.29888,52.45343 c -0.24239,0.4363 -0.38783,0.87261 -0.43631,1.35739 l -0.67869,9.01695 c -0.0485,0.33934 0.14543,0.63021 0.4363,0.82413 v 0 0 c 0.29087,0.19391 0.63022,0.14543 0.92109,-0.0485 l 7.46564,-5.04174 c 0.38783,-0.29087 0.72718,-0.63021 0.96957,-1.01804 v 0 l 14.97977,-25.93584 c 5.52651,3.1026 11.92564,4.8963 18.71259,4.8963 6.78695,0 13.18607,-1.7937 18.71259,-4.8963 2.95717,-1.64826 5.67195,-3.68435 8.04738,-6.0113 7.17478,-6.98086 11.68325,-16.77346 11.68325,-27.58411 z"
         style="opacity:0.1;fill:#080808;stroke-width:0.9540903"
         inkscape:connector-curvature="0" />
      <path
         id="path984"
         d="m -152.88715,145.54278 v 0 h 0.0485 c 4.07217,-0.0485 7.41717,-3.345 7.41717,-7.46564 0,-4.12065 -3.345,-7.41717 -7.41717,-7.46565 l -0.0485,-0.097 v 0.097 c -4.07217,0 -7.41717,3.345 -7.41717,7.46565 0,4.12064 3.29652,7.46564 7.41717,7.46564 z"
         style="fill:none;stroke-width:0.9540903"
         inkscape:connector-curvature="0" />
      <rect
         id="rect986"
         y="92.216553"
         x="-212.41841"
         height="119.0625"
         width="119.0625"
         style="fill:none;stroke-width:0.9540903" />
      <path
         id="path988"
         d="m -124.33349,145.54278 c 0,7.07782 -2.61782,13.5739 -6.93238,18.61563 -2.23,2.56935 -4.84782,4.75087 -7.85347,6.39913 -4.07217,2.27847 -8.77456,3.53891 -13.76781,3.53891 -4.99326,0 -9.69565,-1.30891 -13.71934,-3.53891 l 9.01695,-15.65847 -7.32021,-7.3202 -30.29889,52.45342 c -0.24239,0.43631 -0.38782,0.87261 -0.4363,1.35739 l -0.6787,9.01695 c -0.0485,0.33935 0.14544,0.63022 0.43631,0.82413 v 0 0 c 0.29087,0.19391 0.63022,0.14544 0.92109,-0.0485 l 7.46564,-5.04173 c 0.38783,-0.29087 0.72717,-0.63022 0.96956,-1.01804 v 0 l 14.97977,-25.93585 c 5.52652,3.10261 11.92564,4.8963 18.71259,4.8963 6.78695,0 13.18608,-1.79369 18.7126,-4.8963 2.95717,-1.64826 5.67195,-3.68434 8.04738,-6.0113 7.17477,-6.98086 11.68325,-16.77346 11.68325,-27.5841 z"
         style="fill:#f1f1f1;fill-opacity:1;stroke-width:0.9540903"
         inkscape:connector-curvature="0" />
      <path
         id="path990"
         d="m -124.3333,145.5424 c 0,7.07782 -2.6182,13.57409 -6.93276,18.61583 -2.23,2.56934 -4.84744,4.75143 -7.85309,6.39969 -3.93549,2.202 -8.46072,3.44925 -13.26713,3.53076 0.15625,0.002 0.31186,0.008 0.46869,0.008 4.99326,0 9.69583,-1.25987 13.768,-3.53835 3.00565,-1.64825 5.6231,-3.83034 7.8531,-6.39969 4.31359,-5.0406 6.93158,-11.53511 6.93276,-18.61109 z m -40.57683,2.03665 -30.29888,52.45305 c -0.24239,0.43631 -0.38707,0.87299 -0.43555,1.35777 l -0.67888,9.01676 c -0.0485,0.33935 0.14562,0.62984 0.43649,0.82375 0.28905,0.1927 0.625,0.14544 0.91465,-0.0454 -0.25745,-0.19279 -0.42669,-0.46258 -0.38158,-0.77833 l 0.67888,-9.01676 c 0.0485,-0.48478 0.19316,-0.92146 0.43555,-1.35777 l 29.94382,-51.83855 z m -5.67157,31.60742 -0.23103,0.39957 c 5.35541,2.85444 11.48632,4.49654 17.97387,4.49654 0.16219,0 0.32303,-0.006 0.48478,-0.008 -6.6064,-0.0834 -12.83318,-1.86009 -18.22762,-4.88855 z"
         style="opacity:0.1;fill:#1c1c1c;stroke-width:0.9540903"
         inkscape:connector-curvature="0" />
      <path
         id="path992"
         d="m -143.57934,127.65432 h -3.1026 v -9.93803 -0.0485 h -6.20521 -6.15674 v 0.0485 9.93803 h -3.15108 c -3.05413,0 -5.575,2.52087 -5.575,5.57499 v 12.65282 h 0.0485 c -0.0485,0.48478 0.24239,1.01804 0.87261,1.64826 l 11.19847,11.19846 c 0.77565,0.77566 1.79369,1.16348 2.76326,1.16348 v -0.0485 l 0.0485,0.0485 c 1.01805,0 2.03609,-0.38782 2.76326,-1.16348 l 11.19847,-11.19846 c 0.63022,-0.63022 0.87261,-1.21196 0.87261,-1.64826 h 0.0485 v -12.60434 c -0.0485,-3.1026 -2.52087,-5.62347 -5.62348,-5.62347 z m -9.25934,19.82759 h -0.0485 v 0 c -4.07217,0 -7.41717,-3.345 -7.41717,-7.46564 0,-4.12065 3.345,-7.46565 7.41717,-7.46565 v -0.097 l 0.0485,0.097 c 4.07217,0.0485 7.41717,3.345 7.41717,7.46565 0,4.12064 -3.345,7.41716 -7.41717,7.46564 z"
         style="opacity:0.5;stroke-width:0.9540903"
         inkscape:connector-curvature="0" />
      <path
         id="path994"
         d="m -143.57934,125.71519 h -3.1026 v -9.93803 -0.0485 h -6.20521 -6.15674 v 0.0485 9.93803 h -3.15108 c -3.05413,0 -5.575,2.52087 -5.575,5.575 V 143.943 h 0.0485 c -0.0485,0.48478 0.24239,1.01804 0.87261,1.64826 l 11.19847,11.19847 c 0.77565,0.77565 1.79369,1.16347 2.76326,1.16347 v -0.0485 l 0.0485,0.0485 c 1.01805,0 2.03609,-0.38782 2.76326,-1.16347 l 11.19847,-11.19847 c 0.63022,-0.63022 0.87261,-1.21196 0.87261,-1.64826 h 0.0485 v -12.60434 c -0.0485,-3.1026 -2.52087,-5.62347 -5.62348,-5.62347 z m -9.25934,19.82759 h -0.0485 v 0 c -4.07217,0 -7.41717,-3.345 -7.41717,-7.46564 0,-4.12065 3.345,-7.46565 7.41717,-7.46565 v -0.097 l 0.0485,0.097 c 4.07217,0.0485 7.41717,3.345 7.41717,7.46565 0,4.12064 -3.345,7.41716 -7.41717,7.46564 z"
         style="fill:#6a6a6a;fill-opacity:1;stroke-width:0.9540903"
         inkscape:connector-curvature="0" />
      <path
         id="path996"
         d="m -159.04351,115.7283 v 0.0492 0.92033 h 6.15636 6.20559 v -0.92033 -0.0492 h -6.20559 z m -3.15108,9.98727 c -3.05413,0 -5.575,2.52087 -5.575,5.57499 v 0.96957 c 0,-3.05413 2.52087,-5.575 5.575,-5.575 h 3.15108 v -0.96956 z m 15.51303,0 v 0.96956 h 3.10184 c 3.10261,0 5.57576,2.52068 5.62423,5.62329 v -0.96957 c -0.0485,-3.1026 -2.52162,-5.62328 -5.62423,-5.62328 z m -13.59852,12.84672 c -0.0104,0.161 -0.0246,0.32119 -0.0246,0.48479 0,4.12064 3.34538,7.46489 7.41755,7.46489 h 0.0483 c 4.07217,-0.0485 7.41755,-3.34425 7.41755,-7.46489 0,-0.1636 -0.0143,-0.32393 -0.0246,-0.48479 -0.25139,3.89026 -3.48263,6.93356 -7.39292,6.98011 h -0.0482 c -3.9103,0 -7.14154,-3.08637 -7.39293,-6.98011 z"
         style="opacity:0.3;fill:#cbcbf5;stroke-width:0.9540903"
         inkscape:connector-curvature="0" />
    </g>
  </g>
</svg>
