<?xml version="1.0" encoding="UTF-8" standalone="no"?>
<!-- Created with Inkscape (http://www.inkscape.org/) -->

<svg
   xmlns:dc="http://purl.org/dc/elements/1.1/"
   xmlns:cc="http://creativecommons.org/ns#"
   xmlns:rdf="http://www.w3.org/1999/02/22-rdf-syntax-ns#"
   xmlns:svg="http://www.w3.org/2000/svg"
   xmlns="http://www.w3.org/2000/svg"
   xmlns:sodipodi="http://sodipodi.sourceforge.net/DTD/sodipodi-0.dtd"
   xmlns:inkscape="http://www.inkscape.org/namespaces/inkscape"
   width="128"
   height="128"
   viewBox="0 0 33.866666 33.866668"
   version="1.1"
   id="svg8"
   inkscape:version="0.92.2 5c3e80d, 2017-08-06"
   sodipodi:docname="a.svg">
  <defs
     id="defs2" />
  <sodipodi:namedview
     id="base"
     pagecolor="#ffffff"
     bordercolor="#666666"
     borderopacity="1.0"
     inkscape:pageopacity="0.0"
     inkscape:pageshadow="2"
     inkscape:zoom="1.979899"
     inkscape:cx="36.57755"
     inkscape:cy="74.52267"
     inkscape:document-units="mm"
     inkscape:current-layer="layer1"
     showgrid="false"
     units="px"
     inkscape:window-width="1600"
     inkscape:window-height="803"
     inkscape:window-x="0"
     inkscape:window-y="0"
     inkscape:window-maximized="1" />
  <metadata
     id="metadata5">
    <rdf:RDF>
      <cc:Work
         rdf:about="">
        <dc:format>image/svg+xml</dc:format>
        <dc:type
           rdf:resource="http://purl.org/dc/dcmitype/StillImage" />
        <dc:title></dc:title>
      </cc:Work>
    </rdf:RDF>
  </metadata>
  <g
     inkscape:label="Layer 1"
     inkscape:groupmode="layer"
     id="layer1"
     transform="translate(0,-263.13332)">
    <g
       id="g1089"
       transform="matrix(0.99851439,0,0,0.99851439,0.02515722,0.43966247)">
      <circle
         id="circle1030"
         r="14.15008"
         cy="281.79156"
         cx="16.933332"
         style="opacity:0.25;fill:#000000;fill-opacity:1;stroke:none;stroke-width:0.106985;stroke-miterlimit:4;stroke-dasharray:none;stroke-opacity:1" />
      <circle
         style="fill:#b4a4c5;fill-opacity:1;stroke:#72697b;stroke-width:0.106985;stroke-miterlimit:4;stroke-dasharray:none;stroke-opacity:1"
         cx="16.933332"
         cy="281.22543"
         r="14.15008"
         id="circle1028" />
      <circle
         id="circle927"
         r="12.785304"
         cy="281.22543"
         cx="16.933332"
         style="fill:#f7efff;stroke:#72697b;stroke-width:0.106985;stroke-miterlimit:4;stroke-dasharray:none;stroke-opacity:1" />
      <g
         transform="matrix(1.06985,0,0,1.06985,-2.0481263,-19.94517)"
         id="g1026">
        <path
           id="path929"
           d="m 28.699878,285.8977 c -0.04621,-0.77033 -0.386115,-0.90389 -0.386115,-0.90389 -0.719692,-0.37219 -1.429889,-1.4128 -1.429889,-1.4128 -0.17027,-0.74184 -1.077956,-2.07868 -1.077956,-2.07868 -1.471032,-1.66346 -1.879301,-4.36753 -1.879301,-4.36753 -0.09811,-0.28674 0.161409,-0.78552 0.161409,-0.78552 0.386114,-0.65766 -0.101909,-1.08302 -0.101909,-1.08302 -0.12343,0.0285 -0.24686,-0.15508 -0.24686,-0.15508 -0.117101,-0.29876 -0.575374,-0.45384 -0.575374,-0.45384 -2.543292,-1.85841 -2.519872,-3.56491 -2.519872,-3.56491 0.727921,-0.44308 0.996302,-1.87677 0.996302,-1.87677 0.32345,-1.00137 -0.374088,-3.26488 -0.374088,-3.26488 -0.402571,-0.8349 -0.624113,0.0456 -0.624113,0.0456 -0.258253,0.43359 -0.650064,1.77549 -0.650064,1.77549 -0.496252,0.60196 -0.995036,1.69194 -0.995036,1.69194 -0.125329,0.51651 -0.585502,0.63868 -0.585502,0.63868 -0.852616,-0.2437 -2.219208,0.39497 -2.219208,0.39497 0.595629,-0.95009 -0.08165,-1.91728 -0.08165,-1.91728 -0.431055,-0.38928 -0.506379,-1.42925 -0.506379,-1.42925 0.107605,-0.59373 -0.262052,-0.3627 -0.262052,-0.3627 -1.350767,1.20392 -1.063397,3.42566 -1.063397,3.42566 0.106973,0.50575 -0.05254,1.28684 -0.05254,1.28684 -2.43442,2.15211 -7.5254334,14.58943 -7.5254334,14.58943 0,0 2.5274671,6.96778 10.6871414,7.31528 -0.477896,-3.2307 -0.02659,-8.2926 -0.02659,-8.2926 0.421561,0.27725 1.169104,0.20382 1.169104,0.20382 0.51081,0.0291 1.015291,0.38548 1.015291,0.38548 1.407102,0.60449 3.313621,2.25023 3.313621,2.25023 0.355099,0.13039 1.197588,1.67738 1.197588,1.67738 0.547523,1.11087 1.330512,1.19189 1.330512,1.19189 0.815904,0.15445 1.343805,-0.45448 1.343805,-0.45448 0.358897,-0.0658 0.74058,-0.31648 0.74058,-0.31648 1.167838,-0.51145 1.252657,-1.70207 1.252657,-1.70207 0.44055,-0.49119 0.07216,-1.52927 0.07216,-1.52927 0.213312,-0.27724 -0.09685,-0.92161 -0.09685,-0.92161 z"
           inkscape:connector-curvature="0"
           style="fill:#b4a4c5;stroke:#72697b;stroke-width:0.1;stroke-miterlimit:4;stroke-dasharray:none;stroke-opacity:1" />
        <path
           id="path931"
           d="m 26.374329,287.79156 c -0.07406,0.62411 -0.782989,0.17913 -0.782989,0.17913 -0.479795,-0.38864 -0.255089,-1.11277 -0.255089,-1.11277 0.162675,-0.70956 0.558284,-0.49688 0.558284,-0.49688 0,0 -0.10634,0.19812 -0.162675,0.44941 -0.05633,0.25129 0.496252,0.34497 0.496252,0.34497 0.268381,0.22407 0.219642,0.012 0.146217,0.63614 z"
           inkscape:connector-curvature="0"
           style="fill:#72697b;stroke-width:0.63297451" />
        <path
           id="path933"
           d="m 16.646778,277.61523 c 0,0 0.444981,-0.99124 1.565978,-0.3589 0,0 -0.967818,-0.34244 -1.565978,0.3589 z"
           inkscape:connector-curvature="0"
           style="fill:#72697b;stroke-width:0.63297451" />
        <path
           id="path935"
           d="m 16.858824,277.7836 c 0,0 0.882366,-1.06973 2.031215,0.25003 -6.33e-4,0 -1.479261,1.11973 -2.031215,-0.25003 z"
           inkscape:connector-curvature="0"
           style="fill:#72697b;stroke-width:0.63297451" />
        <path
           id="path937"
           d="m 15.297276,272.00644 c 0,0 0.02215,-0.49119 0.424093,-1.30772 0,0 0.372822,-0.51018 -0.0652,-1.55459 0,0 -0.439918,-0.62348 -0.420296,-1.04884 0,0 -0.09241,-0.77223 -0.465236,0.74755 0,0 -0.327881,1.1634 -0.01582,2.49961 -6.33e-4,0 0.139254,0.58234 0.542459,0.66399 z"
           inkscape:connector-curvature="0"
           style="fill:#72697b;stroke-width:0.63297451" />
        <path
           id="path939"
           d="m 20.284482,271.17155 -0.224073,-0.11457 c 0,0 0.155079,-0.32725 -0.108239,-0.45068 0,0 0.191792,-0.95262 0.007,-1.52546 0,0 -0.05697,-1.01466 0.348769,-1.50459 0,0 0.331679,-0.60322 0.380418,-0.90452 0,0 0.771596,1.002 -0.403838,4.49982 z"
           inkscape:connector-curvature="0"
           style="fill:#72697b;stroke-width:0.63297451" />
        <path
           id="path941"
           d="m 23.194899,288.07703 c 0,0 0.783622,0.2975 1.170369,1.0001 0,0 0.88933,1.44825 2.365426,1.28937 L 26.368,290.65007 c 0,0 -1.093147,0.11837 -1.997035,-1.12986 6.33e-4,0 -0.354466,-0.91718 -1.176066,-1.44318 z"
           inkscape:connector-curvature="0"
           style="fill:#72697b;stroke-width:0.63297451" />
        <path
           id="path943"
           d="m 14.940278,280.88518 c 0,0 0.0652,3.56048 2.421128,4.22763 l -0.07975,0.74944 c 0,0 -2.569243,-0.84122 -2.341373,-4.97707 z"
           inkscape:connector-curvature="0"
           style="fill:#72697b;stroke-width:0.63297451" />
      </g>
    </g>
  </g>
</svg>
