<?xml version="1.0" encoding="UTF-8" standalone="no"?>
<!-- Created with Inkscape (http://www.inkscape.org/) -->

<svg
   xmlns:osb="http://www.openswatchbook.org/uri/2009/osb"
   xmlns:dc="http://purl.org/dc/elements/1.1/"
   xmlns:cc="http://creativecommons.org/ns#"
   xmlns:rdf="http://www.w3.org/1999/02/22-rdf-syntax-ns#"
   xmlns:svg="http://www.w3.org/2000/svg"
   xmlns="http://www.w3.org/2000/svg"
   xmlns:sodipodi="http://sodipodi.sourceforge.net/DTD/sodipodi-0.dtd"
   xmlns:inkscape="http://www.inkscape.org/namespaces/inkscape"
   sodipodi:docname="rpmdrake 2.svg"
   inkscape:version="0.92.2 5c3e80d, 2017-08-06"
   id="svg1345"
   version="1.1"
   viewBox="0 0 33.866666 33.866668"
   height="128"
   width="128">
  <sodipodi:namedview
     units="px"
     inkscape:window-maximized="1"
     inkscape:window-y="0"
     inkscape:window-x="0"
     inkscape:window-height="803"
     inkscape:window-width="1600"
     showgrid="false"
     inkscape:current-layer="layer1"
     inkscape:document-units="mm"
     inkscape:cy="82.451587"
     inkscape:cx="-17.518288"
     inkscape:zoom="1"
     inkscape:pageshadow="2"
     inkscape:pageopacity="0.0"
     borderopacity="1.0"
     bordercolor="#666666"
     pagecolor="#ffffff"
     id="base" />
  <defs
     id="defs1339">
    <linearGradient
       id="linearGradient6987"
       osb:paint="solid">
      <stop
         style="stop-color:#77d2fb;stop-opacity:1;"
         offset="0"
         id="stop6985" />
    </linearGradient>
  </defs>
  <metadata
     id="metadata1342">
    <rdf:RDF>
      <cc:Work
         rdf:about="">
        <dc:format>image/svg+xml</dc:format>
        <dc:type
           rdf:resource="http://purl.org/dc/dcmitype/StillImage" />
        <dc:title />
      </cc:Work>
    </rdf:RDF>
  </metadata>
  <g
     inkscape:label="Layer 1"
     inkscape:groupmode="layer"
     id="layer1"
     transform="translate(0,-263.13332)">
    <path
       sodipodi:nodetypes="ccccc"
       inkscape:connector-curvature="0"
       id="path7010"
       d="m 13.435,279.52091 19.37333,-6.84063 -0.54862,15.68399 -18.8247,7.39595 z"
       style="opacity:0.25;fill:#000000;fill-opacity:1;fill-rule:nonzero;stroke:none;stroke-width:0.2;stroke-linecap:round;stroke-linejoin:round;stroke-miterlimit:4;stroke-dasharray:none;stroke-opacity:1" />
    <path
       sodipodi:nodetypes="ccccc"
       inkscape:connector-curvature="0"
       id="path7012"
       d="m 1.05833,270.29587 12.37667,9.22504 10e-6,16.23931 -11.7456,-9.35279 z"
       style="opacity:0.25;fill:#000000;fill-opacity:1;fill-rule:nonzero;stroke:none;stroke-width:0.2;stroke-linecap:round;stroke-linejoin:round;stroke-miterlimit:4;stroke-dasharray:none;stroke-opacity:1" />
    <path
       style="opacity:1;fill:#dab489;fill-opacity:1;fill-rule:nonzero;stroke:#806953;stroke-width:0.2;stroke-linecap:round;stroke-linejoin:round;stroke-miterlimit:4;stroke-dasharray:none;stroke-opacity:1"
       d="m 1.05834,269.76671 18.07577,-5.39362 13.67422,7.77803 -19.37333,6.84063 z"
       id="rect1234-2"
       inkscape:connector-curvature="0"
       sodipodi:nodetypes="ccccc" />
    <path
       style="opacity:1;fill:#a67c52;fill-opacity:1;fill-rule:nonzero;stroke:#806953;stroke-width:0.2;stroke-linecap:round;stroke-linejoin:round;stroke-miterlimit:4;stroke-dasharray:none;stroke-opacity:1"
       d="m 13.435,278.99175 19.37333,-6.84063 -0.54862,15.68398 -18.8247,7.39596 z"
       id="rect1237-9"
       inkscape:connector-curvature="0"
       sodipodi:nodetypes="ccccc" />
    <path
       style="opacity:1;fill:#c69c6d;fill-opacity:1;fill-rule:nonzero;stroke:#806953;stroke-width:0.2;stroke-linecap:round;stroke-linejoin:round;stroke-miterlimit:4;stroke-dasharray:none;stroke-opacity:1"
       d="m 1.05833,269.76671 12.37667,9.22504 10e-6,16.23931 -11.7456,-9.3528 z"
       id="rect1240-7"
       inkscape:connector-curvature="0"
       sodipodi:nodetypes="ccccc" />
    <path
       style="opacity:1;fill:#f2cda4;fill-opacity:1;fill-rule:nonzero;stroke:#806030;stroke-width:0.1;stroke-linecap:round;stroke-linejoin:round;stroke-miterlimit:4;stroke-dasharray:none;stroke-opacity:1"
       d="m 23.75444,267.00126 c -0.9093,0.40961 -16.04601,5.79134 -17.64035,6.5117 l -5.4e-4,0.0213 2.21296,1.64973 c 4.69401,-1.96789 12.45781,-4.28393 18.20774,-6.60151 z"
       id="path6967"
       inkscape:connector-curvature="0"
       sodipodi:nodetypes="cccccc" />
    <path
       style="fill:none;stroke:#806030;stroke-width:0.1;stroke-linecap:butt;stroke-linejoin:miter;stroke-opacity:1;stroke-miterlimit:4;stroke-dasharray:none"
       d="m 7.29308,274.44005 17.81431,-6.65513"
       id="path6990"
       inkscape:connector-curvature="0" />
    <path
       style="opacity:1;fill:#f2cda4;fill-opacity:1;fill-rule:nonzero;stroke:#806030;stroke-width:0.1;stroke-linecap:round;stroke-linejoin:round;stroke-miterlimit:4;stroke-dasharray:none;stroke-opacity:1"
       d="m 6.11357,273.53425 -0.14899,4.48925 2.12627,1.52825 0.22841,-4.36466 c 0.002,-0.001 0.005,-0.002 0.007,-0.003 z"
       id="path6974"
       inkscape:connector-curvature="0" />
    <g
       transform="matrix(0.05012282,0,0,0.04657828,-79.003055,251.53095)"
       id="g1178" />
    <g
       transform="matrix(0.05012282,0,0,0.04657828,-79.003055,251.53095)"
       id="g1180" />
    <g
       transform="matrix(0.05012282,0,0,0.04657828,-79.003055,251.53095)"
       id="g1182" />
    <g
       transform="matrix(0.05012282,0,0,0.04657828,-79.003055,251.53095)"
       id="g1184" />
    <g
       transform="matrix(0.05012282,0,0,0.04657828,-79.003055,251.53095)"
       id="g1186" />
    <g
       transform="matrix(0.05012282,0,0,0.04657828,-79.003055,251.53095)"
       id="g1188" />
    <g
       transform="matrix(0.05012282,0,0,0.04657828,-79.003055,251.53095)"
       id="g1190" />
    <g
       transform="matrix(0.05012282,0,0,0.04657828,-79.003055,251.53095)"
       id="g1192" />
    <g
       transform="matrix(0.05012282,0,0,0.04657828,-79.003055,251.53095)"
       id="g1194" />
    <g
       transform="matrix(0.05012282,0,0,0.04657828,-79.003055,251.53095)"
       id="g1196" />
    <g
       transform="matrix(0.05012282,0,0,0.04657828,-79.003055,251.53095)"
       id="g1198" />
    <g
       transform="matrix(0.05012282,0,0,0.04657828,-79.003055,251.53095)"
       id="g1200" />
    <g
       transform="matrix(0.05012282,0,0,0.04657828,-79.003055,251.53095)"
       id="g1202" />
    <g
       transform="matrix(0.05012282,0,0,0.04657828,-79.003055,251.53095)"
       id="g1204" />
    <g
       transform="matrix(0.05012282,0,0,0.04657828,-79.003055,251.53095)"
       id="g1206" />
    <path
       style="opacity:1;fill:#805f3f;fill-opacity:1;stroke:none;stroke-width:0.0639717;stroke-miterlimit:4;stroke-dasharray:none;stroke-dashoffset:0;stroke-opacity:1"
       d="m 25.693184,274.74074 -0.14572,6.18954 3.344054,-2.67551 0.48224,-0.1543 -5.742648,6.92291 -5.836944,-2.59763 0.482034,-0.22531 3.524578,0.15717 0.07728,-6.2579"
       id="path3186"
       inkscape:connector-curvature="0"
       sodipodi:nodetypes="ccccccccc" />
  </g>
</svg>
