<?xml version="1.0" encoding="UTF-8" standalone="no"?>
<!-- Created with Inkscape (http://www.inkscape.org/) -->

<svg
   xmlns:osb="http://www.openswatchbook.org/uri/2009/osb"
   xmlns:dc="http://purl.org/dc/elements/1.1/"
   xmlns:cc="http://creativecommons.org/ns#"
   xmlns:rdf="http://www.w3.org/1999/02/22-rdf-syntax-ns#"
   xmlns:svg="http://www.w3.org/2000/svg"
   xmlns="http://www.w3.org/2000/svg"
   xmlns:xlink="http://www.w3.org/1999/xlink"
   xmlns:sodipodi="http://sodipodi.sourceforge.net/DTD/sodipodi-0.dtd"
   xmlns:inkscape="http://www.inkscape.org/namespaces/inkscape"
   width="128"
   height="128"
   viewBox="0 0 33.866665 33.866665"
   version="1.1"
   id="svg4942"
   inkscape:version="0.92.2 5c3e80d, 2017-08-06"
   sodipodi:docname="applications-development.svg">
  <defs
     id="defs4936">
    <linearGradient
       id="linearGradient1316"
       inkscape:collect="always">
      <stop
         id="stop1312"
         offset="0"
         style="stop-color:#0b77e7;stop-opacity:1" />
      <stop
         id="stop1314"
         offset="1"
         style="stop-color:#57c6fa;stop-opacity:1" />
    </linearGradient>
    <linearGradient
       id="linearGradient6987"
       osb:paint="solid">
      <stop
         style="stop-color:#77d2fb;stop-opacity:1;"
         offset="0"
         id="stop6985" />
    </linearGradient>
    <linearGradient
       inkscape:collect="always"
       xlink:href="#linearGradient1316"
       id="linearGradient1014"
       gradientUnits="userSpaceOnUse"
       gradientTransform="matrix(0.18353852,0,0,0.18353927,66.597104,182.62977)"
       x1="-285.80493"
       y1="576.80786"
       x2="-299.31662"
       y2="484.03067" />
    <linearGradient
       y2="947.00079"
       y1="947.00079"
       x2="387.12045"
       x1="372.06885"
       gradientUnits="userSpaceOnUse"
       id="i">
      <stop
         id="stop16"
         stop-color="#828398"
         offset="0" />
      <stop
         id="stop18"
         stop-color="#4f4e50"
         offset=".05013223" />
      <stop
         id="stop20"
         stop-color="#e8e5eb"
         offset=".14024317" />
      <stop
         id="stop22"
         stop-opacity=".941176"
         stop-color="#e9d3d9"
         offset=".23170672" />
      <stop
         id="stop24"
         stop-color="#c4c2c7"
         offset=".76219523" />
      <stop
         id="stop26"
         stop-color="#f4f1fa"
         offset=".86999255" />
      <stop
         id="stop28"
         stop-color="#b8b8bf"
         offset=".93410021" />
      <stop
         id="stop30"
         stop-color="#c1bfcc"
         offset="1" />
    </linearGradient>
    <linearGradient
       y2="1018.5878"
       y1="1018.9549"
       x2="394.8298"
       x1="368.21414"
       gradientUnits="userSpaceOnUse"
       id="j">
      <stop
         id="stop33"
         stop-color="#130804"
         offset="0" />
      <stop
         id="stop35"
         stop-color="#0f0704"
         offset=".16970721" />
      <stop
         id="stop37"
         stop-color="#323033"
         offset=".23766069" />
      <stop
         id="stop39"
         stop-color="#323033"
         offset=".71842611" />
      <stop
         id="stop41"
         stop-color="#141215"
         offset=".84821641" />
      <stop
         id="stop43"
         stop-color="#00010e"
         offset="1" />
    </linearGradient>
    <linearGradient
       y2="917.9989"
       y1="904.78284"
       x2="372.25238"
       x1="367.84705"
       gradientUnits="userSpaceOnUse"
       id="k">
      <stop
         id="stop46"
         stop-color="#2d2d39"
         offset="0" />
      <stop
         id="stop48"
         stop-color="#acabb0"
         offset="1" />
    </linearGradient>
    <linearGradient
       y2="908.79163"
       y1="902.21301"
       x2="414.05841"
       x1="389.50668"
       gradientUnits="userSpaceOnUse"
       id="l">
      <stop
         id="stop51"
         stop-color="#59585d"
         offset="0" />
      <stop
         id="stop53"
         stop-color="#010103"
         offset=".19257796" />
      <stop
         id="stop55"
         stop-color="#5b5b5d"
         offset=".54332471" />
      <stop
         id="stop57"
         stop-color="#171719"
         offset="1" />
    </linearGradient>
    <linearGradient
       y2="883.11084"
       y1="903.40106"
       x2="-353.81839"
       x1="-353.81839"
       gradientUnits="userSpaceOnUse"
       id="m">
      <stop
         id="stop60"
         stop-color="#202024"
         offset="0" />
      <stop
         id="stop62"
         stop-color="#919095"
         offset=".3368493" />
      <stop
         id="stop64"
         stop-color="#4e4d51"
         offset=".53881687" />
      <stop
         id="stop66"
         stop-color="#cfcfd1"
         offset=".69465232" />
      <stop
         id="stop68"
         stop-color="#69696b"
         offset="1" />
    </linearGradient>
    <linearGradient
       y2="883.85742"
       y1="903.66016"
       x2="338.84512"
       x1="338.84512"
       gradientUnits="userSpaceOnUse"
       id="n">
      <stop
         id="stop71"
         stop-color="#181820"
         offset="0" />
      <stop
         id="stop73"
         stop-color="#86858a"
         offset=".03511503" />
      <stop
         id="stop75"
         stop-color="#7a797e"
         offset=".14091089" />
      <stop
         id="stop77"
         stop-color="#2f2e33"
         offset=".19626147" />
      <stop
         id="stop79"
         stop-color="#414045"
         offset=".33304867" />
      <stop
         id="stop81"
         stop-color="#545358"
         offset=".43142435" />
      <stop
         id="stop83"
         stop-color="#ebeaf0"
         offset=".56074804" />
      <stop
         id="stop85"
         stop-color="#abaaaf"
         offset=".69158942" />
      <stop
         id="stop87"
         stop-color="#d7d6dc"
         offset=".85981399" />
      <stop
         id="stop89"
         stop-color="#66656a"
         offset="1" />
    </linearGradient>
    <linearGradient
       y2="-50.845123"
       y1="-67.365196"
       x2="415.57172"
       x1="367.84705"
       gradientUnits="userSpaceOnUse"
       id="o">
      <stop
         id="stop92"
         stop-color="#c7c6cb"
         offset="0" />
      <stop
         id="stop94"
         stop-color="#fcfcfd"
         offset=".54332471" />
      <stop
         id="stop96"
         stop-color="#d8d8da"
         offset="1" />
    </linearGradient>
    <filter
       y="-0.136453"
       x="-0.019943001"
       width="1.039886"
       height="1.272905"
       id="p"
       style="color-interpolation-filters:sRGB">
      <feGaussianBlur
         id="feGaussianBlur99"
         stdDeviation=".19828681" />
    </filter>
  </defs>
  <sodipodi:namedview
     id="base"
     pagecolor="#ffffff"
     bordercolor="#666666"
     borderopacity="1.0"
     inkscape:pageopacity="0.0"
     inkscape:pageshadow="2"
     inkscape:zoom="4.8741495"
     inkscape:cx="88.242788"
     inkscape:cy="69.850571"
     inkscape:document-units="mm"
     inkscape:current-layer="layer1"
     showgrid="false"
     units="px"
     width="128px"
     inkscape:window-width="1600"
     inkscape:window-height="803"
     inkscape:window-x="0"
     inkscape:window-y="0"
     inkscape:window-maximized="1"
     inkscape:measure-start="-293.521,100.415"
     inkscape:measure-end="-294.709,409.978" />
  <metadata
     id="metadata4939">
    <rdf:RDF>
      <cc:Work
         rdf:about="">
        <dc:format>image/svg+xml</dc:format>
        <dc:type
           rdf:resource="http://purl.org/dc/dcmitype/StillImage" />
        <dc:title />
      </cc:Work>
    </rdf:RDF>
  </metadata>
  <g
     inkscape:label="Layer 1"
     inkscape:groupmode="layer"
     id="layer1"
     transform="translate(0,-263.13332)">
    <g
       transform="matrix(0.26458333,0,0,0.26458333,-9.8599493,209.18534)"
       style="opacity:1"
       id="g1068" />
    <g
       id="g3651"
       transform="matrix(0.98132372,0,0,0.98132372,0.84775556,4.7206195)">
      <path
         sodipodi:nodetypes="ccccc"
         inkscape:connector-curvature="0"
         id="path1030"
         d="m 0.31458403,273.30979 26.85159297,-4.27238 3.560544,21.71071 -27.1274768,4.29111 z"
         style="opacity:0.25;fill:#000000;fill-opacity:1;fill-rule:nonzero;stroke:none;stroke-width:0.30000001;stroke-linecap:round;stroke-linejoin:round;stroke-miterlimit:4;stroke-dasharray:none;stroke-dashoffset:0;stroke-opacity:1" />
      <path
         style="opacity:1;fill:url(#linearGradient1014);fill-opacity:1;fill-rule:nonzero;stroke:#074f99;stroke-width:0.2;stroke-linecap:round;stroke-linejoin:round;stroke-miterlimit:4;stroke-dasharray:none;stroke-dashoffset:0;stroke-opacity:1"
         d="m 0.31458403,272.7822 26.85159297,-4.27238 3.560544,21.71071 -27.1274768,4.29111 z"
         id="path998"
         inkscape:connector-curvature="0"
         sodipodi:nodetypes="ccccc" />
      <path
         sodipodi:nodetypes="ssccscsssssscssscsssscsssccsscssccccscscscsccccccscccsccsssscsscccsssssscsssscsssssscscs"
         style="fill:none;fill-opacity:1;stroke:#ffffff;stroke-width:0.2;stroke-linecap:round;stroke-linejoin:round;stroke-miterlimit:4;stroke-dasharray:none;stroke-opacity:1"
         d="m 8.608922,289.58785 c 0.5037026,-0.63238 1.029858,-1.28948 1.1692409,-1.46018 0.1393529,-0.1706 0.2519461,-0.32524 0.2501411,-0.3434 -0.003,-0.033 -1.9309112,-0.91387 -2.0126167,-0.91953 -0.024527,-7.4e-4 -0.051047,0.0477 -0.06012,0.11051 -0.020339,0.14047 -0.2266716,2.25052 -0.3375298,3.45161 -0.023629,0.25629 -0.01326,0.32528 0.047258,0.31529 0.014257,-0.002 0.4395945,-0.52194 0.9432771,-1.15435 z m 16.532693,-1.84365 c 0.246941,-0.46537 0.275825,-1.38886 0.0681,-2.17818 -0.236273,-0.89793 -0.588778,-1.48816 -1.149849,-1.92537 -0.416155,-0.32428 -0.728949,-0.35827 -1.039469,-0.11295 -0.484152,0.38249 -0.938053,0.77818 -0.999838,0.8716 -0.184329,0.27865 -0.103919,0.66948 0.232514,1.13015 0.340122,0.46588 0.666475,0.71005 1.352791,1.01212 0.708091,0.31167 1.020197,0.58782 1.249621,1.10557 0.07368,0.16609 0.131925,0.23103 0.199004,0.22143 0.01196,-10e-4 0.05185,-0.0577 0.08704,-0.12446 z m -14.458421,-1.46351 c 0.852868,-2.35522 1.953494,-5.28465 2.646839,-7.04481 0.151118,-0.38387 0.273263,-0.7081 0.271219,-0.72046 -0.007,-0.0401 -1.988101,-0.84838 -2.034143,-0.82992 -0.04656,0.0174 -1.207247,2.99153 -2.019895,5.17246 -0.257629,0.69134 -0.6470436,1.67921 -0.8654201,2.19523 -0.2183765,0.51604 -0.4300131,1.01632 -0.4703325,1.11174 -0.042373,0.10003 -0.059123,0.18315 -0.039581,0.19649 0.09362,0.0641 2.1006226,0.92601 2.1265356,0.91318 0.01585,-0.008 0.189732,-0.45553 0.384749,-0.99403 z m 11.624313,-2.7072 c 0.423323,-0.34288 0.793376,-0.65437 0.822389,-0.69222 0.05165,-0.0675 0.04806,-0.0747 -0.17372,-0.34394 -0.124597,-0.15133 -0.427491,-0.52133 -0.673295,-0.82223 -0.245745,-0.3009 -0.469585,-0.54776 -0.497362,-0.5486 -0.07368,-0.002 -1.669314,1.31985 -1.671019,1.38449 -7.38e-4,0.0537 1.19612,1.53551 1.317557,1.63016 0.03489,0.0271 0.07298,0.042 0.08455,0.0326 0.01067,-0.009 0.36749,-0.29742 0.790793,-0.64026 z m 3.233254,-2.3093 c 0.008,-0.0256 -0.0656,-0.52999 -0.168077,-1.12032 l -0.184687,-1.07361 -1.988769,0.31886 c -1.735147,0.2794 -1.986246,0.32576 -1.970064,0.36618 0.009,0.0257 0.370611,0.48638 0.800903,1.02434 l 0.782379,0.97807 0.132414,-0.0122 c 0.07288,-0.007 0.682716,-0.10794 1.355503,-0.22397 0.966966,-0.16707 1.226539,-0.22215 1.239959,-0.25869 z m -6.294573,0.99279 c 0.002,-0.0174 -0.327719,-0.45057 -0.734362,-0.96283 l -0.739417,-0.93146 -2.423059,0.40036 -2.423088,0.40036 -0.40099,1.13043 c -0.22052,0.62173 -0.391848,1.1409 -0.380671,1.15371 0.02981,0.0328 7.095167,-1.15283 7.101617,-1.19041 z m -10.4376933,1.54196 c 0.046361,-0.1231 0.2374295,-0.6302 0.4248785,-1.12708 0.1874491,-0.49686 0.3383375,-0.91838 0.3353165,-0.93669 -0.00399,-0.0213 -0.6745214,0.0801 -2.0379012,0.31115 l -2.0321884,0.34552 0.025922,0.23071 c 0.016052,0.12666 0.098306,0.60005 0.1859435,1.05169 l 0.1600112,0.82102 1.4270394,-0.23578 1.4270393,-0.23579 z m 11.9152323,-2.39663 c 0.754262,-0.59377 0.742637,-0.58362 0.732996,-0.64201 -0.009,-0.0569 -0.574281,-0.75764 -2.48266,-3.07972 -2.097663,-2.55246 -3.021697,-3.67773 -3.636258,-4.42821 -0.605777,-0.73975 -0.742269,-0.87371 -0.961204,-0.94337 -0.172454,-0.0547 -0.428687,-0.0253 -0.582347,0.0668 -0.146192,0.0879 -0.64499,0.50031 -0.772029,0.63855 -0.203731,0.22166 -0.232674,0.5983 -0.0662,0.86389 0.08963,0.14323 0.0341,0.0738 2.016824,2.48322 3.122645,3.79311 4.721032,5.70207 4.806795,5.74081 0.02094,0.009 0.105195,-0.0369 0.18701,-0.10175 0.08166,-0.0656 0.422376,-0.33474 0.757244,-0.59837 z m -6.798605,-3.83567 c 0.280222,-0.70945 0.318238,-0.83177 0.313383,-1.00857 -0.01007,-0.36724 -0.238945,-0.57661 -0.891921,-0.81657 -0.370242,-0.13607 -0.428707,-0.14784 -0.629058,-0.12618 -0.273601,0.0306 -0.398258,0.10867 -0.550213,0.34979 -0.113849,0.18052 -0.495806,1.23313 -0.480053,1.3226 0.006,0.0319 0.379713,0.20222 0.98896,0.45005 0.538947,0.21924 0.990157,0.39768 1.002689,0.39651 0.01196,-9.9e-4 0.123441,-0.25661 0.246213,-0.56765 z"
         id="path1000"
         inkscape:connector-curvature="0" />
      <path
         sodipodi:nodetypes="ccccc"
         inkscape:connector-curvature="0"
         id="path1002"
         d="m 1.7239862,273.59122 24.3628008,-3.87639 3.230532,19.69841 -24.6131116,3.89338 z"
         style="opacity:1;fill:none;fill-opacity:1;fill-rule:nonzero;stroke:#ffffff;stroke-width:0.2;stroke-linecap:round;stroke-linejoin:round;stroke-miterlimit:4;stroke-dasharray:none;stroke-dashoffset:0;stroke-opacity:1" />
      <g
         style="opacity:0.25;fill:#000000"
         transform="matrix(-0.17612096,-0.02709382,-0.03105285,0.17286208,118.57256,123.60211)"
         id="g3611">
        <path
           d="m 372.13767,921.50941 c -0.0918,-0.11473 -1.10134,-1.26195 -1.10134,-1.26195 l 1.23901,-2.34035 12.8234,-0.0115 1.68732,1.29794 0.0649,1.03835 -1.10324,1.62243 z"
           id="path3579"
           inkscape:connector-curvature="0"
           style="fill:#000000;fill-rule:evenodd" />
        <path
           d="m 371.94827,920.17293 0.88494,-1.39528 h 12.06135 l 1.15757,0.60674 1.84392,32.45214 -3.57388,-1.11318 -9.87845,0.1142 -2.49545,1.11255 z"
           id="path3581"
           style="fill:#000000"
           inkscape:connector-curvature="0" />
        <g
           id="g3595"
           style="fill:#000000;fill-rule:evenodd">
          <path
             d="m 367.75525,1044.4233 0.27534,-48.96361 2.66102,-41.02707 c 0.12062,-0.91085 0.32891,-1.99276 1.23304,-2.51476 l 2.40119,-1.08702 9.72005,-0.15891 c 2.35837,0 4.29906,1.04146 4.6348,2.29446 l 3.94646,31.47992 2.01912,22.02679 2.01912,36.5277 c 0,0 0.91778,3.4658 0.91778,6.608 0,3.1422 -2.9369,3.8547 -2.9369,3.8547 l -21.84321,0.7342 c -2.15679,-0.673 -5.69025,-1.4397 -5.69025,-3.3499 0,-1.9101 0.64244,-6.4245 0.64244,-6.4245 z"
             id="path3583"
             style="fill:#000000"
             inkscape:connector-curvature="0" />
          <path
             d="m 371.04042,920.25625 c 0,0 2.18217,-8.85033 -6.31934,-13.8474 l 0.97346,-9.34517 c 0,0 8.35548,6.76552 6.60326,20.84816 z"
             id="path3585"
             style="fill:#000000"
             inkscape:connector-curvature="0" />
          <path
             d="m 373.28899,917.91591 c 0.56284,-12.76748 -4.46653,-17.71271 -7.59445,-20.85223 0,0 8.35548,6.76552 6.60326,20.84816 z"
             id="path3587"
             inkscape:connector-curvature="0"
             style="fill:#000000" />
          <path
             d="m 386.75335,919.19201 c 0,0 -0.73423,-5.41492 0.0918,-9.2696 0.82601,-3.85469 3.94647,-5.59847 11.47228,-5.59847 7.52581,0 21.29254,8.81071 28.91013,17.98853 1.09673,1.40642 1.86897,1.15797 1.92735,-0.55067 0.0453,-0.22669 -11.12154,-13.31773 -21.29255,-17.62142 -10.24822,-4.33636 -1.74378,-3.02868 -1.74378,-3.02868 0,0 13.0325,5.23136 23.03633,16.97897 1.32201,1.77634 1.73546,0.66477 2.01912,-1.19312 0,0 -8.99427,-13.49139 -23.12811,-20.09942 -14.13384,-6.60803 -21.01721,2.66156 -22.57744,9.26959 -1.56023,6.60803 -0.55067,11.93117 -0.55067,11.93117 z"
             id="path3589"
             style="fill:#000000"
             inkscape:connector-curvature="0" />
          <path
             style="fill:#000000"
             d="m 430.81867,916.46788 -0.61653,2.51476 c 1.13029,-0.0162 1.69273,-1.76844 1.83334,-3.35842 z"
             id="path3591"
             inkscape:connector-curvature="0" />
          <path
             style="fill:#000000"
             d="m 428.99344,921.56229 -0.59219,1.67921 c 1.09784,0 1.40759,-1.20809 1.53319,-2.62833 z"
             id="path3593"
             inkscape:connector-curvature="0" />
        </g>
        <path
           d="m -365.57721,882.75811 c 8.61383,6.97502 13.52853,6.0975 22.53174,0.87189 v 20.24786 c -6.6771,-3.74026 -14.54092,-7.07073 -21.70573,2.56979 l -0.95666,-9.19482 z"
           transform="scale(-1,1)"
           id="path3597"
           style="fill:#000000"
           inkscape:connector-curvature="0" />
        <path
           d="m 332.53217,883.63 h 10.51331 v 20.24786 h -10.51331 z"
           id="path3599"
           style="fill:#000000"
           inkscape:connector-curvature="0" />
        <path
           d="m 365.57733,882.76177 c 22.86627,0 36.86892,2.30213 58.63722,22.82331 -22.53022,-19.79437 -35.19609,-19.86005 -58.63487,-19.66614 z"
           id="path3601"
           inkscape:connector-curvature="0"
           style="fill:#000000;fill-rule:evenodd" />
        <path
           d="m 373.9043,-70.466797 c -2.6335,-0.0219 -5.39437,-8.03e-4 -8.32422,0.02344 l -0.0566,12.789062 0.17187,-1.644531 c 0,0 0.12917,0.104469 0.35157,0.314453 0.003,0.0024 9e-4,0.0014 0.004,0.0039 0.22223,0.209985 0.53579,0.523071 0.9082,0.94336 0.006,0.0066 0.008,0.009 0.0137,0.01563 0.0478,0.05401 0.10279,0.124178 0.15234,0.18164 0.11446,0.132614 0.23077,0.270829 0.35352,0.421875 0.009,0.0095 0.0168,0.01977 0.0254,0.0293 2.93354,3.265464 6.24805,8.442989 5.78515,18.94336 l -0.90234,-0.0059 0.10937,0.435547 12.54493,-0.238281 0.004,-0.02734 -0.12695,-0.08203 c 0,0 -1.00945,-5.323611 0.55078,-11.931641 1.56023,-6.60803 8.44428,-15.877561 22.57813,-9.269531 12.77532,5.972882 21.27795,17.470435 22.80859,19.644531 l 1.16406,-0.80664 c -1.99064,-3.845652 -5.33735,-7.551362 -7.80469,-10.050782 -19.71394,-17.320073 -31.87606,-19.536184 -50.31054,-19.689453 z m 30.06445,15.03125 c -1.59081,-0.002 -2.51061,0.502666 3.89453,3.212891 9.76464,4.13174 20.33877,16.244669 21.13672,17.416015 l 0.92383,-0.93164 -2.14063,-4.064453 C 418.00016,-50.464658 406.11914,-55.25 406.11914,-55.25 c 0,0 -1.1959,-0.184356 -2.15039,-0.185547 z m -32.46484,5.794922 c 0.17309,0.588758 0.33077,1.203983 0.46679,1.847656 -0.13621,-0.643235 -0.29354,-1.259307 -0.46679,-1.847656 z m 0.46679,1.849609 c 0.11913,0.563956 0.21642,1.159335 0.30078,1.765625 -0.0847,-0.60728 -0.18123,-1.200841 -0.30078,-1.765625 z m 0.34571,2.044922 c 0.0769,0.60149 0.12521,1.232552 0.16211,1.875 -0.037,-0.642378 -0.0851,-1.273592 -0.16211,-1.875 z m 0.1875,2.189453 c 0.0338,0.739919 0.0407,1.505456 0.0137,2.298829 0.0271,-0.794329 0.0203,-1.558104 -0.0137,-2.298829 z m 0.0117,2.353516 c -0.0282,0.784148 -0.0899,1.595197 -0.18554,2.431641 0.0956,-0.836473 0.1574,-1.647487 0.18554,-2.431641 z m 59.51563,0.492187 c -3e-4,0.0033 -0.002,0.0065 -0.002,0.0098 l 0.006,-0.0039 z m -2.10156,4.988282 c -0.004,0.04525 -0.0131,0.08414 -0.0176,0.128906 l 0.0547,-0.06055 z"
           transform="translate(0,956.36218)"
           id="path3603"
           style="fill:#000000"
           inkscape:connector-curvature="0" />
        <path
           d="m -332.53217,883.63 c 1.46878,7.9751 1.65097,10.31862 0,20.24786 z"
           transform="scale(-1,1)"
           id="path3605"
           inkscape:connector-curvature="0"
           style="fill:#000000" />
        <rect
           height="3.487572"
           rx="1.743786"
           transform="matrix(1.0416015,0,0,1.1875727,-15.929152,-197.13614)"
           width="23.862333"
           x="370.9675"
           y="1049.2417"
           id="rect3607"
           style="fill:#000000;filter:url(#p)" />
        <rect
           height="3.487572"
           rx="1.743786"
           width="23.862333"
           x="370.9675"
           y="1049.2417"
           id="rect3609"
           style="fill:#000000" />
      </g>
      <g
         id="g438"
         transform="matrix(-0.17612096,-0.02709382,-0.03105285,0.17286208,118.57256,123.07294)">
        <path
           style="fill-rule:evenodd"
           inkscape:connector-curvature="0"
           id="path406"
           d="m 372.13767,921.50941 c -0.0918,-0.11473 -1.10134,-1.26195 -1.10134,-1.26195 l 1.23901,-2.34035 12.8234,-0.0115 1.68732,1.29794 0.0649,1.03835 -1.10324,1.62243 z" />
        <path
           inkscape:connector-curvature="0"
           style="fill:url(#i)"
           id="path408"
           d="m 371.94827,920.17293 0.88494,-1.39528 h 12.06135 l 1.15757,0.60674 1.84392,32.45214 -3.57388,-1.11318 -9.87845,0.1142 -2.49545,1.11255 z" />
        <g
           style="fill-rule:evenodd"
           id="g422">
          <path
             inkscape:connector-curvature="0"
             style="fill:url(#j)"
             id="path410"
             d="m 367.75525,1044.4233 0.27534,-48.96361 2.66102,-41.02707 c 0.12062,-0.91085 0.32891,-1.99276 1.23304,-2.51476 l 2.40119,-1.08702 9.72005,-0.15891 c 2.35837,0 4.29906,1.04146 4.6348,2.29446 l 3.94646,31.47992 2.01912,22.02679 2.01912,36.5277 c 0,0 0.91778,3.4658 0.91778,6.608 0,3.1422 -2.9369,3.8547 -2.9369,3.8547 l -21.84321,0.7342 c -2.15679,-0.673 -5.69025,-1.4397 -5.69025,-3.3499 0,-1.9101 0.64244,-6.4245 0.64244,-6.4245 z" />
          <path
             inkscape:connector-curvature="0"
             style="fill:url(#k)"
             id="path412"
             d="m 371.04042,920.25625 c 0,0 2.18217,-8.85033 -6.31934,-13.8474 l 0.97346,-9.34517 c 0,0 8.35548,6.76552 6.60326,20.84816 z" />
          <path
             style="fill:#5b5c60"
             inkscape:connector-curvature="0"
             id="path414"
             d="m 373.28899,917.91591 c 0.56284,-12.76748 -4.46653,-17.71271 -7.59445,-20.85223 0,0 8.35548,6.76552 6.60326,20.84816 z" />
          <path
             inkscape:connector-curvature="0"
             style="fill:url(#l)"
             id="path416"
             d="m 386.75335,919.19201 c 0,0 -0.73423,-5.41492 0.0918,-9.2696 0.82601,-3.85469 3.94647,-5.59847 11.47228,-5.59847 7.52581,0 21.29254,8.81071 28.91013,17.98853 1.09673,1.40642 1.86897,1.15797 1.92735,-0.55067 0.0453,-0.22669 -11.12154,-13.31773 -21.29255,-17.62142 -10.24822,-4.33636 -1.74378,-3.02868 -1.74378,-3.02868 0,0 13.0325,5.23136 23.03633,16.97897 1.32201,1.77634 1.73546,0.66477 2.01912,-1.19312 0,0 -8.99427,-13.49139 -23.12811,-20.09942 -14.13384,-6.60803 -21.01721,2.66156 -22.57744,9.26959 -1.56023,6.60803 -0.55067,11.93117 -0.55067,11.93117 z" />
          <path
             inkscape:connector-curvature="0"
             id="path418"
             d="m 430.81867,916.46788 -0.61653,2.51476 c 1.13029,-0.0162 1.69273,-1.76844 1.83334,-3.35842 z" />
          <path
             inkscape:connector-curvature="0"
             id="path420"
             d="m 428.99344,921.56229 -0.59219,1.67921 c 1.09784,0 1.40759,-1.20809 1.53319,-2.62833 z" />
        </g>
        <path
           inkscape:connector-curvature="0"
           style="fill:url(#m)"
           id="path424"
           transform="scale(-1,1)"
           d="m -365.57721,882.75811 c 8.61383,6.97502 13.52853,6.0975 22.53174,0.87189 v 20.24786 c -6.6771,-3.74026 -14.54092,-7.07073 -21.70573,2.56979 l -0.95666,-9.19482 z" />
        <path
           inkscape:connector-curvature="0"
           style="fill:url(#n)"
           id="path426"
           d="m 332.53217,883.63 h 10.51331 v 20.24786 h -10.51331 z" />
        <path
           style="fill:#3b3b3d;fill-rule:evenodd"
           inkscape:connector-curvature="0"
           id="path428"
           d="m 365.57733,882.76177 c 22.86627,0 36.86892,2.30213 58.63722,22.82331 -22.53022,-19.79437 -35.19609,-19.86005 -58.63487,-19.66614 z" />
        <path
           inkscape:connector-curvature="0"
           style="fill:url(#o)"
           id="path430"
           transform="translate(0,956.36218)"
           d="m 373.9043,-70.466797 c -2.6335,-0.0219 -5.39437,-8.03e-4 -8.32422,0.02344 l -0.0566,12.789062 0.17187,-1.644531 c 0,0 0.12917,0.104469 0.35157,0.314453 0.003,0.0024 9e-4,0.0014 0.004,0.0039 0.22223,0.209985 0.53579,0.523071 0.9082,0.94336 0.006,0.0066 0.008,0.009 0.0137,0.01563 0.0478,0.05401 0.10279,0.124178 0.15234,0.18164 0.11446,0.132614 0.23077,0.270829 0.35352,0.421875 0.009,0.0095 0.0168,0.01977 0.0254,0.0293 2.93354,3.265464 6.24805,8.442989 5.78515,18.94336 l -0.90234,-0.0059 0.10937,0.435547 12.54493,-0.238281 0.004,-0.02734 -0.12695,-0.08203 c 0,0 -1.00945,-5.323611 0.55078,-11.931641 1.56023,-6.60803 8.44428,-15.877561 22.57813,-9.269531 12.77532,5.972882 21.27795,17.470435 22.80859,19.644531 l 1.16406,-0.80664 c -1.99064,-3.845652 -5.33735,-7.551362 -7.80469,-10.050782 -19.71394,-17.320073 -31.87606,-19.536184 -50.31054,-19.689453 z m 30.06445,15.03125 c -1.59081,-0.002 -2.51061,0.502666 3.89453,3.212891 9.76464,4.13174 20.33877,16.244669 21.13672,17.416015 l 0.92383,-0.93164 -2.14063,-4.064453 C 418.00016,-50.464658 406.11914,-55.25 406.11914,-55.25 c 0,0 -1.1959,-0.184356 -2.15039,-0.185547 z m -32.46484,5.794922 c 0.17309,0.588758 0.33077,1.203983 0.46679,1.847656 -0.13621,-0.643235 -0.29354,-1.259307 -0.46679,-1.847656 z m 0.46679,1.849609 c 0.11913,0.563956 0.21642,1.159335 0.30078,1.765625 -0.0847,-0.60728 -0.18123,-1.200841 -0.30078,-1.765625 z m 0.34571,2.044922 c 0.0769,0.60149 0.12521,1.232552 0.16211,1.875 -0.037,-0.642378 -0.0851,-1.273592 -0.16211,-1.875 z m 0.1875,2.189453 c 0.0338,0.739919 0.0407,1.505456 0.0137,2.298829 0.0271,-0.794329 0.0203,-1.558104 -0.0137,-2.298829 z m 0.0117,2.353516 c -0.0282,0.784148 -0.0899,1.595197 -0.18554,2.431641 0.0956,-0.836473 0.1574,-1.647487 0.18554,-2.431641 z m 59.51563,0.492187 c -3e-4,0.0033 -0.002,0.0065 -0.002,0.0098 l 0.006,-0.0039 z m -2.10156,4.988282 c -0.004,0.04525 -0.0131,0.08414 -0.0176,0.128906 l 0.0547,-0.06055 z" />
        <path
           style="fill:#5b5a60"
           inkscape:connector-curvature="0"
           id="path432"
           transform="scale(-1,1)"
           d="m -332.53217,883.63 c 1.46878,7.9751 1.65097,10.31862 0,20.24786 z" />
        <rect
           style="fill:#323033;filter:url(#p)"
           id="rect434"
           y="1049.2417"
           x="370.9675"
           width="23.862333"
           transform="matrix(1.0416015,0,0,1.1875727,-15.929152,-197.13614)"
           rx="1.743786"
           height="3.487572" />
        <rect
           style="fill:#060509"
           id="rect436"
           y="1049.2417"
           x="370.9675"
           width="23.862333"
           rx="1.743786"
           height="3.487572" />
      </g>
    </g>
  </g>
</svg>
