<?xml version="1.0" encoding="UTF-8" standalone="no"?>
<!-- Created with Inkscape (http://www.inkscape.org/) -->

<svg
   xmlns:dc="http://purl.org/dc/elements/1.1/"
   xmlns:cc="http://creativecommons.org/ns#"
   xmlns:rdf="http://www.w3.org/1999/02/22-rdf-syntax-ns#"
   xmlns:svg="http://www.w3.org/2000/svg"
   xmlns="http://www.w3.org/2000/svg"
   xmlns:xlink="http://www.w3.org/1999/xlink"
   xmlns:sodipodi="http://sodipodi.sourceforge.net/DTD/sodipodi-0.dtd"
   xmlns:inkscape="http://www.inkscape.org/namespaces/inkscape"
   width="128"
   height="128"
   viewBox="0 0 33.866666 33.866668"
   version="1.1"
   id="svg8"
   inkscape:version="0.92.2 5c3e80d, 2017-08-06"
   sodipodi:docname="a.svg">
  <defs
     id="defs2">
    <linearGradient
       inkscape:collect="always"
       id="linearGradient1243">
      <stop
         style="stop-color:#fa5c89;stop-opacity:1"
         offset="0"
         id="stop1239" />
      <stop
         style="stop-color:#fb4f5e;stop-opacity:1"
         offset="1"
         id="stop1241" />
    </linearGradient>
    <linearGradient
       inkscape:collect="always"
       xlink:href="#linearGradient1243"
       id="linearGradient1245"
       x1="91.388763"
       y1="152.03802"
       x2="94.690483"
       y2="132.0136"
       gradientUnits="userSpaceOnUse" />
  </defs>
  <sodipodi:namedview
     id="base"
     pagecolor="#ffffff"
     bordercolor="#666666"
     borderopacity="1.0"
     inkscape:pageopacity="0.0"
     inkscape:pageshadow="2"
     inkscape:zoom="1.979899"
     inkscape:cx="86.385605"
     inkscape:cy="27.695605"
     inkscape:document-units="mm"
     inkscape:current-layer="layer1"
     showgrid="false"
     inkscape:window-width="1600"
     inkscape:window-height="803"
     inkscape:window-x="0"
     inkscape:window-y="0"
     inkscape:window-maximized="1"
     units="px" />
  <metadata
     id="metadata5">
    <rdf:RDF>
      <cc:Work
         rdf:about="">
        <dc:format>image/svg+xml</dc:format>
        <dc:type
           rdf:resource="http://purl.org/dc/dcmitype/StillImage" />
        <dc:title></dc:title>
      </cc:Work>
    </rdf:RDF>
  </metadata>
  <g
     inkscape:label="Layer 1"
     inkscape:groupmode="layer"
     id="layer1"
     transform="translate(0,-263.13332)">
    <g
       id="g1255"
       transform="matrix(1.020531,0,0,1.020531,-80.506465,136.26022)">
      <rect
         style="opacity:0.25;fill:#000000;fill-opacity:1;stroke:none;stroke-width:0.2;stroke-miterlimit:4;stroke-dasharray:none;stroke-dashoffset:0;stroke-opacity:1"
         id="rect1249"
         width="30.482088"
         height="30.482088"
         x="80.238464"
         y="125.98688"
         ry="6.6817384" />
      <rect
         ry="6.6817384"
         y="125.45771"
         x="80.238464"
         height="30.482088"
         width="30.482088"
         id="rect1191"
         style="opacity:1;fill:url(#linearGradient1245);fill-opacity:1;stroke:#993751;stroke-width:0.2;stroke-miterlimit:4;stroke-dasharray:none;stroke-dashoffset:0;stroke-opacity:1" />
      <path
         inkscape:connector-curvature="0"
         style="opacity:0.25;fill:#000000;fill-opacity:1;fill-rule:nonzero;stroke:none;stroke-width:0.59672534"
         d="m 94.690482,132.54277 c -0.43822,0 -0.790195,0.35197 -0.790195,0.79019 v 1.77619 c -0.580409,0.14918 -1.128184,0.37762 -1.631671,0.67365 l -1.254056,-1.25406 c -0.310017,-0.31001 -0.806511,-0.31001 -1.116528,0 l -1.116529,1.11653 c -0.310018,0.31002 -0.310018,0.80651 0,1.11653 l 1.254055,1.25406 c -0.296032,0.50348 -0.524466,1.05126 -0.673647,1.634 h -1.77619 c -0.438221,0 -0.790195,0.35197 -0.790195,0.78786 v 1.58039 c 0,0.43589 0.351974,0.78787 0.790195,0.78787 h 1.77619 c 0.149181,0.58274 0.377615,1.13051 0.673647,1.634 l -1.254055,1.25405 c -0.310018,0.31002 -0.310018,0.80652 0,1.11653 l 1.116529,1.11653 c 0.310017,0.31002 0.806511,0.31002 1.116528,0 l 1.254056,-1.25405 c 0.503487,0.29603 1.051262,0.52446 1.631671,0.67364 v 1.77619 c 0,0.43822 0.351975,0.7902 0.790195,0.7902 h 1.578059 c 0.43822,0 0.790195,-0.35198 0.790195,-0.7902 v -1.77619 c 0.580408,-0.14918 1.130515,-0.37761 1.634004,-0.67364 l 1.25405,1.25405 c 0.30769,0.31002 0.80651,0.31002 1.11653,0 l 1.11652,-1.11653 c 0.30769,-0.31001 0.30769,-0.80651 0,-1.11653 l -1.25638,-1.25405 c 0.29836,-0.50349 0.52679,-1.05126 0.67597,-1.634 h 1.77619 c 0.43589,0 0.78787,-0.35198 0.78787,-0.78787 v -1.58039 c 0,-0.43589 -0.35198,-0.78786 -0.78787,-0.78786 h -1.77619 c -0.14918,-0.58274 -0.37761,-1.13052 -0.67597,-1.634 l 1.25638,-1.25406 c 0.30769,-0.31002 0.30769,-0.80651 0,-1.11653 l -1.11652,-1.11653 c -0.31002,-0.31001 -0.80884,-0.31001 -1.11653,0 l -1.25405,1.25406 c -0.503489,-0.29603 -1.053596,-0.52447 -1.634004,-0.67365 v -1.77619 c 0,-0.43822 -0.351975,-0.79019 -0.790195,-0.79019 z m 0.790195,4.73884 c 2.186439,0 3.946313,1.75987 3.946313,3.94631 0,2.18644 -1.759874,3.94864 -3.946313,3.94864 -2.186439,0 -3.948644,-1.7622 -3.948644,-3.94864 0,-2.18644 1.762205,-3.94631 3.948644,-3.94631 z m 0,0"
         id="path1247" />
      <path
         id="path1068"
         d="m 94.690482,132.0136 c -0.43822,0 -0.790195,0.35197 -0.790195,0.79019 v 1.77619 c -0.580409,0.14918 -1.128184,0.37762 -1.631671,0.67365 l -1.254056,-1.25406 c -0.310017,-0.31001 -0.806511,-0.31001 -1.116528,0 l -1.116529,1.11653 c -0.310018,0.31002 -0.310018,0.80651 0,1.11653 l 1.254055,1.25406 c -0.296032,0.50348 -0.524466,1.05126 -0.673647,1.634 h -1.77619 c -0.438221,0 -0.790195,0.35197 -0.790195,0.78786 v 1.58039 c 0,0.43589 0.351974,0.78787 0.790195,0.78787 h 1.77619 c 0.149181,0.58274 0.377615,1.13051 0.673647,1.634 l -1.254055,1.25405 c -0.310018,0.31002 -0.310018,0.80652 0,1.11653 l 1.116529,1.11653 c 0.310017,0.31002 0.806511,0.31002 1.116528,0 l 1.254056,-1.25405 c 0.503487,0.29603 1.051262,0.52446 1.631671,0.67364 v 1.77619 c 0,0.43822 0.351975,0.7902 0.790195,0.7902 h 1.578059 c 0.43822,0 0.790195,-0.35198 0.790195,-0.7902 v -1.77619 c 0.580408,-0.14918 1.130515,-0.37761 1.634004,-0.67364 l 1.25405,1.25405 c 0.30769,0.31002 0.80651,0.31002 1.11653,0 l 1.11652,-1.11653 c 0.30769,-0.31001 0.30769,-0.80651 0,-1.11653 l -1.25638,-1.25405 c 0.29836,-0.50349 0.52679,-1.05126 0.67597,-1.634 h 1.77619 c 0.43589,0 0.78787,-0.35198 0.78787,-0.78787 v -1.58039 c 0,-0.43589 -0.35198,-0.78786 -0.78787,-0.78786 h -1.77619 c -0.14918,-0.58274 -0.37761,-1.13052 -0.67597,-1.634 l 1.25638,-1.25406 c 0.30769,-0.31002 0.30769,-0.80651 0,-1.11653 l -1.11652,-1.11653 c -0.31002,-0.31001 -0.80884,-0.31001 -1.11653,0 l -1.25405,1.25406 c -0.503489,-0.29603 -1.053596,-0.52447 -1.634004,-0.67365 v -1.77619 c 0,-0.43822 -0.351975,-0.79019 -0.790195,-0.79019 z m 0.790195,4.73884 c 2.186439,0 3.946313,1.75987 3.946313,3.94631 0,2.18644 -1.759874,3.94864 -3.946313,3.94864 -2.186439,0 -3.948644,-1.7622 -3.948644,-3.94864 0,-2.18644 1.762205,-3.94631 3.948644,-3.94631 z m 0,0"
         style="fill:#fffcfd;fill-opacity:1;fill-rule:nonzero;stroke:#993751;stroke-width:0.1;stroke-miterlimit:4;stroke-dasharray:none;stroke-opacity:1"
         inkscape:connector-curvature="0" />
    </g>
  </g>
</svg>
