<?xml version="1.0" encoding="UTF-8" standalone="no"?>
<!-- Generator: Adobe Illustrator 18.0.0, SVG Export Plug-In . SVG Version: 6.00 Build 0)  -->

<svg
   xmlns:dc="http://purl.org/dc/elements/1.1/"
   xmlns:cc="http://creativecommons.org/ns#"
   xmlns:rdf="http://www.w3.org/1999/02/22-rdf-syntax-ns#"
   xmlns:svg="http://www.w3.org/2000/svg"
   xmlns="http://www.w3.org/2000/svg"
   xmlns:xlink="http://www.w3.org/1999/xlink"
   xmlns:sodipodi="http://sodipodi.sourceforge.net/DTD/sodipodi-0.dtd"
   xmlns:inkscape="http://www.inkscape.org/namespaces/inkscape"
   version="1.1"
   id="图层_1"
   x="0px"
   y="0px"
   viewBox="0 0 128 128"
   enable-background="new 0 0 48 48"
   xml:space="preserve"
   sodipodi:docname="arduino.svg"
   width="128"
   height="128"
   inkscape:version="0.92.2 5c3e80d, 2017-08-06"><metadata
     id="metadata25"><rdf:RDF><cc:Work
         rdf:about=""><dc:format>image/svg+xml</dc:format><dc:type
           rdf:resource="http://purl.org/dc/dcmitype/StillImage" /><dc:title></dc:title></cc:Work></rdf:RDF></metadata><defs
     id="defs23"><linearGradient
       inkscape:collect="always"
       id="linearGradient920"><stop
         style="stop-color:#11bec8;stop-opacity:1"
         offset="0"
         id="stop916" /><stop
         style="stop-color:#40eabf;stop-opacity:1"
         offset="1"
         id="stop918" /></linearGradient><linearGradient
       inkscape:collect="always"
       xlink:href="#linearGradient920"
       id="linearGradient922"
       x1="-2.7597332"
       y1="95.108261"
       x2="-2.7597332"
       y2="62.030045"
       gradientUnits="userSpaceOnUse"
       gradientTransform="matrix(2.8571429,0,0,2.8571429,-80.467231,-111.17643)" /></defs><sodipodi:namedview
     pagecolor="#ffffff"
     bordercolor="#666666"
     borderopacity="1"
     objecttolerance="10"
     gridtolerance="10"
     guidetolerance="10"
     inkscape:pageopacity="0"
     inkscape:pageshadow="2"
     inkscape:window-width="1600"
     inkscape:window-height="803"
     id="namedview21"
     showgrid="false"
     inkscape:zoom="1.2291667"
     inkscape:cx="38.936914"
     inkscape:cy="-16.363407"
     inkscape:window-x="0"
     inkscape:window-y="0"
     inkscape:window-maximized="1"
     inkscape:current-layer="图层_1" /><g
     id="g952"
     transform="matrix(0.98056878,0,0,0.98056878,145.79323,-44.274115)"><circle
       style="opacity:0.25;fill:#000000;fill-opacity:1;stroke-width:2.85714293"
       id="circle940"
       r="60"
       cy="111.60868"
       cx="-83.414062" /><circle
       cx="-83.414062"
       cy="109.60868"
       r="60"
       id="circle4"
       style="fill:url(#linearGradient922);fill-opacity:1;stroke:#0b7980;stroke-width:0.75590551;stroke-miterlimit:4;stroke-dasharray:none;stroke-opacity:1" /><g
       style="opacity:0.25;fill:#000000"
       id="g938"
       transform="matrix(2.8571429,0,0,2.8571429,-151.96549,42.965831)"><rect
         style="fill:#000000"
         id="rect932"
         height="2"
         width="8"
         y="23"
         x="11" /><polygon
         style="fill:#000000"
         id="polygon934"
         points="34,25 37,25 37,23 34,23 34,20 32,20 32,23 29,23 29,25 32,25 32,28 34,28 " /><path
         style="fill:#000000"
         inkscape:connector-curvature="0"
         id="path936"
         d="m 32.485,16.011 c -3.806,0 -7.089,1.871 -8.62,4.563 -1.51,-2.688 -4.746,-4.555 -8.497,-4.555 -5.189,0 -9.41,3.564 -9.41,7.945 0,4.381 4.221,7.945 9.41,7.945 3.751,0 6.987,-1.868 8.497,-4.555 1.531,2.692 4.814,4.563 8.62,4.563 5.262,0 9.543,-3.567 9.543,-7.952 0,-4.387 -4.281,-7.954 -9.543,-7.954 z M 15.488,29.907 c -4.117,0 -7.466,-2.666 -7.466,-5.944 0,-3.278 3.349,-5.944 7.466,-5.944 4.117,0 7.466,2.667 7.466,5.944 0,3.277 -3.35,5.944 -7.466,5.944 z M 32.47,29.899 c -4.129,0 -7.488,-2.663 -7.488,-5.936 0,-3.273 3.359,-5.936 7.488,-5.936 4.129,0 7.488,2.663 7.488,5.936 0,3.273 -3.359,5.936 -7.488,5.936 z" /></g><g
       transform="matrix(2.8571429,0,0,2.8571429,-151.96549,40.965831)"
       id="g12"><rect
         x="11"
         y="23"
         width="8"
         height="2"
         id="rect6"
         style="fill:#ffffff" /><polygon
         points="34,28 34,25 37,25 37,23 34,23 34,20 32,20 32,23 29,23 29,25 32,25 32,28 "
         id="polygon8"
         style="fill:#ffffff" /><path
         d="m 32.485,16.011 c -3.806,0 -7.089,1.871 -8.62,4.563 -1.51,-2.688 -4.746,-4.555 -8.497,-4.555 -5.189,0 -9.41,3.564 -9.41,7.945 0,4.381 4.221,7.945 9.41,7.945 3.751,0 6.987,-1.868 8.497,-4.555 1.531,2.692 4.814,4.563 8.62,4.563 5.262,0 9.543,-3.567 9.543,-7.952 0,-4.387 -4.281,-7.954 -9.543,-7.954 z M 15.488,29.907 c -4.117,0 -7.466,-2.666 -7.466,-5.944 0,-3.278 3.349,-5.944 7.466,-5.944 4.117,0 7.466,2.667 7.466,5.944 0,3.277 -3.35,5.944 -7.466,5.944 z M 32.47,29.899 c -4.129,0 -7.488,-2.663 -7.488,-5.936 0,-3.273 3.359,-5.936 7.488,-5.936 4.129,0 7.488,2.663 7.488,5.936 0,3.273 -3.359,5.936 -7.488,5.936 z"
         id="path10"
         inkscape:connector-curvature="0"
         style="fill:#ffffff" /></g></g></svg>