<?xml version="1.0" encoding="UTF-8" standalone="no"?>
<!-- Created with Inkscape (http://www.inkscape.org/) -->

<svg
   xmlns:osb="http://www.openswatchbook.org/uri/2009/osb"
   xmlns:dc="http://purl.org/dc/elements/1.1/"
   xmlns:cc="http://creativecommons.org/ns#"
   xmlns:rdf="http://www.w3.org/1999/02/22-rdf-syntax-ns#"
   xmlns:svg="http://www.w3.org/2000/svg"
   xmlns="http://www.w3.org/2000/svg"
   xmlns:xlink="http://www.w3.org/1999/xlink"
   xmlns:sodipodi="http://sodipodi.sourceforge.net/DTD/sodipodi-0.dtd"
   xmlns:inkscape="http://www.inkscape.org/namespaces/inkscape"
   width="128"
   height="128"
   viewBox="0 0 33.866666 33.866668"
   version="1.1"
   id="svg8"
   inkscape:version="0.92.4 (5da689c313, 2019-01-14)"
   sodipodi:docname="audacious.svg">
  <defs
     id="defs2">
    <linearGradient
       id="linearGradient945"
       inkscape:collect="always">
      <stop
         id="stop941"
         offset="0"
         style="stop-color:#eaeded;stop-opacity:1" />
      <stop
         id="stop943"
         offset="1"
         style="stop-color:#959496;stop-opacity:0.8" />
    </linearGradient>
    <linearGradient
       inkscape:collect="always"
       id="linearGradient959">
      <stop
         style="stop-color:#fefefe;stop-opacity:1"
         offset="0"
         id="stop955" />
      <stop
         style="stop-color:#9c9b9b;stop-opacity:1"
         offset="1"
         id="stop957" />
    </linearGradient>
    <linearGradient
       inkscape:collect="always"
       id="linearGradient3580-7">
      <stop
         style="stop-color:#949696;stop-opacity:1"
         offset="0"
         id="stop3576" />
      <stop
         style="stop-color:#111110;stop-opacity:1"
         offset="1"
         id="stop3578" />
    </linearGradient>
    <linearGradient
       osb:paint="solid"
       id="linearGradient6987">
      <stop
         id="stop6985"
         offset="0"
         style="stop-color:#77d2fb;stop-opacity:1;" />
    </linearGradient>
    <linearGradient
       inkscape:collect="always"
       xlink:href="#linearGradient959"
       id="linearGradient961"
       x1="50.878483"
       y1="92.458191"
       x2="50.878483"
       y2="118.65263"
       gradientUnits="userSpaceOnUse"
       gradientTransform="matrix(1.0388143,0,0,1.0388143,-36.180023,170.49603)" />
    <linearGradient
       inkscape:collect="always"
       xlink:href="#linearGradient945"
       id="linearGradient939"
       x1="22.24581"
       y1="14.632287"
       x2="22.552898"
       y2="32.343563"
       gradientUnits="userSpaceOnUse" />
    <radialGradient
       inkscape:collect="always"
       xlink:href="#linearGradient3580-7"
       id="radialGradient952"
       cx="12.729714"
       cy="283.46442"
       fx="12.729714"
       fy="283.46442"
       r="14.179143"
       gradientUnits="userSpaceOnUse"
       gradientTransform="matrix(1.2518992,-0.01998287,0.01879229,1.1773112,-7.9510686,-50.518347)" />
    <linearGradient
       inkscape:collect="always"
       xlink:href="#linearGradient945"
       id="linearGradient958"
       gradientUnits="userSpaceOnUse"
       x1="22.24581"
       y1="14.632287"
       x2="22.552898"
       y2="32.343563" />
  </defs>
  <sodipodi:namedview
     id="base"
     pagecolor="#ffffff"
     bordercolor="#666666"
     borderopacity="1.0"
     inkscape:pageopacity="0.0"
     inkscape:pageshadow="2"
     inkscape:zoom="3.7297266"
     inkscape:cx="60.580218"
     inkscape:cy="57.101401"
     inkscape:document-units="mm"
     inkscape:current-layer="layer1"
     showgrid="false"
     inkscape:window-width="1600"
     inkscape:window-height="838"
     inkscape:window-x="-8"
     inkscape:window-y="-8"
     inkscape:window-maximized="1"
     units="px" />
  <metadata
     id="metadata5">
    <rdf:RDF>
      <cc:Work
         rdf:about="">
        <dc:format>image/svg+xml</dc:format>
        <dc:type
           rdf:resource="http://purl.org/dc/dcmitype/StillImage" />
        <dc:title />
      </cc:Work>
    </rdf:RDF>
  </metadata>
  <g
     inkscape:label="Layer 1"
     inkscape:groupmode="layer"
     id="layer1"
     transform="translate(0,-263.13332)">
    <g
       id="g839"
       transform="matrix(1.0031073,0,0,1.0031073,-0.05261605,-0.91958005)">
      <circle
         r="15.565616"
         cy="280.37604"
         cx="16.933332"
         id="circle1018"
         style="opacity:0.25;fill:#000000;fill-opacity:1;fill-rule:nonzero;stroke:none;stroke-width:0.19669224;stroke-linecap:round;stroke-miterlimit:4;stroke-dasharray:0.04917306, 0.04917306;stroke-dashoffset:0;stroke-opacity:1" />
      <circle
         style="opacity:1;fill:url(#linearGradient961);fill-opacity:1;fill-rule:nonzero;stroke:#808080;stroke-width:0.19669224;stroke-linecap:round;stroke-miterlimit:4;stroke-dasharray:0.04917306, 0.04917306;stroke-dashoffset:0;stroke-opacity:1"
         id="circle3590"
         cx="16.933332"
         cy="279.85562"
         r="15.565616" />
      <circle
         r="14.213568"
         cy="279.85562"
         cx="16.933331"
         id="circle960"
         style="opacity:1;fill:#e5e5e5;fill-opacity:1;stroke:none;stroke-width:0.93890375;stroke-linecap:round;stroke-miterlimit:4;stroke-dasharray:0.23472596, 0.23472596;stroke-dashoffset:0;stroke-opacity:1" />
      <circle
         style="opacity:1;fill:url(#radialGradient952);fill-opacity:1;stroke:none;stroke-width:0.89914161;stroke-linecap:round;stroke-miterlimit:4;stroke-dasharray:0.22478542, 0.22478542;stroke-dashoffset:0;stroke-opacity:1"
         id="circle2071"
         cx="16.933331"
         cy="279.85562"
         r="13.61163" />
      <g
         style="opacity:1;fill:url(#linearGradient939);fill-opacity:1;stroke:#4d4d4d;stroke-width:0.49537468;stroke-miterlimit:4;stroke-dasharray:none;stroke-opacity:1"
         transform="matrix(0.96893883,0,0,0.96893883,-6.5510507,256.16581)"
         id="g923">
        <path
           id="path921"
           d="m 16.083,31.646 c -1.027,-0.889 -1.49,-2.147 -1.49,-3.649 0,-2.513 1.957,-3.913 2.637,-4.43 0.679,-0.515 1.522,-0.995 2.531,-1.441 1.007,-0.445 2.271,-0.908 3.832,-1.055 1.594,-0.149 2.412,-0.594 2.688,-0.884 0.672,-0.703 0.391,-2.094 -0.281,-2.5 -0.429,-0.26 -1.344,-0.547 -2.797,-0.453 -0.844,0.095 -2.156,0.438 -3.141,1.119 -1.641,1.136 -3.607,2.22 -4.542,0.278 -0.38,-0.788 -0.009,-1.771 0.866,-2.483 1.817,-1.478 4.392,-2.266 6.08,-2.353 3.609,-0.186 5.706,0.382 7.166,1.277 1.966,1.205 2.187,2.893 2.328,4.486 0,0.422 -0.012,1.055 -0.035,1.898 -0.024,0.844 -0.012,2.039 0.035,3.586 0,1.313 0.048,2.284 0.07,2.918 0.063,1.804 1.875,1.429 1.969,2.991 0.029,0.483 -0.469,2.036 -2.391,2.036 -0.657,0.046 -1.336,-0.153 -2.039,-0.598 -0.703,-0.446 -1.055,-0.692 -1.055,-0.738 0,0 -3.265,1.243 -6.328,1.512 -2.623,0.233 -4.707,-0.309 -6.103,-1.517 z m 4.417,-4 c 0.046,0.235 0.211,0.469 0.492,0.703 0.281,0.235 0.679,0.352 1.195,0.352 0.515,0.047 1.071,-0.044 1.688,-0.211 1.75,-0.474 2.594,-1.146 2.848,-1.477 0.261,-0.341 0.45,-1.403 -0.105,-2.18 -0.348,-0.487 -1.617,-0.222 -2.32,-0.105 -0.703,0.118 -1.418,0.316 -2.145,0.598 -0.728,0.281 -1.22,0.633 -1.477,1.055 -0.259,0.421 -0.317,0.843 -0.176,1.265 z"
           inkscape:connector-curvature="0"
           style="fill:url(#linearGradient958);fill-opacity:1;stroke:#4d4d4d;stroke-width:0.49537468;stroke-miterlimit:4;stroke-dasharray:none;stroke-opacity:1" />
      </g>
    </g>
  </g>
</svg>
