<?xml version="1.0" encoding="UTF-8" standalone="no"?>
<!-- Created with Inkscape (http://www.inkscape.org/) -->

<svg
   xmlns:dc="http://purl.org/dc/elements/1.1/"
   xmlns:cc="http://creativecommons.org/ns#"
   xmlns:rdf="http://www.w3.org/1999/02/22-rdf-syntax-ns#"
   xmlns:svg="http://www.w3.org/2000/svg"
   xmlns="http://www.w3.org/2000/svg"
   xmlns:sodipodi="http://sodipodi.sourceforge.net/DTD/sodipodi-0.dtd"
   xmlns:inkscape="http://www.inkscape.org/namespaces/inkscape"
   width="128"
   height="128"
   viewBox="0 0 33.866666 33.866668"
   version="1.1"
   id="svg8"
   inkscape:version="0.92.2 5c3e80d, 2017-08-06"
   sodipodi:docname="aa.svg">
  <defs
     id="defs2">
    <linearGradient
       id="linearGradient-1"
       y2="246.60216"
       x2="23.764774"
       y1="223.15009"
       x1="23.764774"
       gradientTransform="matrix(0.56409354,0,0,0.12410059,-34.159661,207.76001)"
       gradientUnits="userSpaceOnUse">
      <stop
         id="stop1415"
         offset="0%"
         stop-color="#CCA46B" />
      <stop
         id="stop1417"
         offset="100%"
         stop-color="#D7B672" />
    </linearGradient>
    <filter
       id="filter-2"
       filterUnits="objectBoundingBox"
       height="1.1"
       width="1.091"
       y="-0.033"
       x="-0.045000002">
      <feOffset
         id="feOffset1420"
         result="shadowOffsetOuter1"
         in="SourceAlpha"
         dy="2"
         dx="0" />
      <feGaussianBlur
         id="feGaussianBlur1422"
         result="shadowBlurOuter1"
         in="shadowOffsetOuter1"
         stdDeviation="1" />
      <feColorMatrix
         id="feColorMatrix1424"
         result="shadowMatrixOuter1"
         in="shadowBlurOuter1"
         type="matrix"
         values="0 0 0 0 0   0 0 0 0 0   0 0 0 0 0  0 0 0 0.2 0" />
      <feMerge
         id="feMerge1430">
        <feMergeNode
           id="feMergeNode1426"
           in="shadowMatrixOuter1" />
        <feMergeNode
           id="feMergeNode1428"
           in="SourceGraphic" />
      </feMerge>
    </filter>
    <linearGradient
       id="linearGradient-3"
       y2="57.477795"
       x2="57.17979"
       y1="13.62561"
       x1="57.179787"
       gradientTransform="scale(1.0093976,0.99068991)"
       gradientUnits="userSpaceOnUse">
      <stop
         id="stop1433"
         offset="0%"
         stop-color="#3E2409" />
      <stop
         id="stop1435"
         offset="100%"
         stop-color="#765720" />
    </linearGradient>
    <linearGradient
       id="linearGradient-4"
       y2="71.84742"
       x2="51.164074"
       y1="2.0351746"
       x1="84.297546"
       gradientTransform="scale(1.0093976,0.99068991)"
       gradientUnits="userSpaceOnUse">
      <stop
         id="stop1438"
         offset="0%"
         stop-color="#351C03" />
      <stop
         id="stop1440"
         offset="100%"
         stop-color="#5B410F" />
    </linearGradient>
    <linearGradient
       id="linearGradient-5"
       y2="87.557014"
       x2="0.43078959"
       y1="5.9833822"
       x1="82.004425"
       gradientTransform="scale(0.9781717,1.0223154)"
       gradientUnits="userSpaceOnUse">
      <stop
         id="stop1443"
         offset="0%"
         stop-color="#241400" />
      <stop
         id="stop1445"
         offset="100%"
         stop-color="#53402E" />
    </linearGradient>
  </defs>
  <sodipodi:namedview
     id="base"
     pagecolor="#ffffff"
     bordercolor="#666666"
     borderopacity="1.0"
     inkscape:pageopacity="0.0"
     inkscape:pageshadow="2"
     inkscape:zoom="3.959798"
     inkscape:cx="40.131121"
     inkscape:cy="26.758755"
     inkscape:document-units="mm"
     inkscape:current-layer="layer1"
     showgrid="false"
     units="px"
     inkscape:window-width="1600"
     inkscape:window-height="803"
     inkscape:window-x="0"
     inkscape:window-y="0"
     inkscape:window-maximized="1" />
  <metadata
     id="metadata5">
    <rdf:RDF>
      <cc:Work
         rdf:about="">
        <dc:format>image/svg+xml</dc:format>
        <dc:type
           rdf:resource="http://purl.org/dc/dcmitype/StillImage" />
        <dc:title></dc:title>
      </cc:Work>
    </rdf:RDF>
  </metadata>
  <g
     inkscape:label="Layer 1"
     inkscape:groupmode="layer"
     id="layer1"
     transform="translate(0,-263.13332)">
    <g
       id="g1585"
       transform="matrix(1.0168152,0,0,1.0168152,36.780575,53.301015)">
      <path
         style="opacity:0.25;fill:#000000;fill-rule:evenodd;stroke:none;stroke-width:0.26458332"
         inkscape:connector-curvature="0"
         d="m -7.5249382,235.23257 v 2.68994 0 c 0,0.38966 -0.315889,0.70555 -0.7055565,0.70555 H -33.277717 v 0 c -0.389667,0 -0.705555,-0.31589 -0.705555,-0.70555 v -2.68994 2.42535 c 0,0.38967 0.315888,0.70556 0.705555,0.70556 v 0 h 25.0472223 c 0.3896675,0 0.7055565,-0.31589 0.7055565,-0.70556 v 0 z"
         id="path1570" />
      <path
         id="Rectangle-5"
         d="m -33.983272,232.54265 h 26.4583338 v 5.11528 0 c 0,0.38966 -0.315889,0.70555 -0.7055565,0.70555 H -33.277717 v 0 c -0.389667,0 -0.705555,-0.31589 -0.705555,-0.70555 z"
         inkscape:connector-curvature="0"
         style="fill:url(#linearGradient-1);fill-rule:evenodd;stroke:none;stroke-width:0.26458332" />
      <path
         id="path1452"
         d="m -33.277717,208.73015 h 25.0472223 v 0 c 0.3896675,0 0.7055565,0.31589 0.7055565,0.70555 v 22.3132 c 0,1.7433 -0.1729317,2.97803 -0.5187918,3.70417 -1.2156652,0.31427 -2.944968,0.49066 -5.187908,0.52916 h -19.957884 v 0 c -0.438376,0 -0.79375,-0.35537 -0.79375,-0.79375 v -25.75278 0 c 0,-0.38966 0.315888,-0.70555 0.705555,-0.70555 z"
         inkscape:connector-curvature="0"
         style="fill:#fbe9a9;fill-rule:evenodd;stroke:none;stroke-width:0.26458332" />
      <path
         id="Combined-Shape"
         d="m -7.5249382,234.96799 v 2.68994 0 c 0,0.38966 -0.315889,0.70555 -0.7055565,0.70555 H -33.277717 v 0 c -0.389667,0 -0.705555,-0.31589 -0.705555,-0.70555 v -2.68994 2.42535 c 0,0.38967 0.315888,0.70556 0.705555,0.70556 v 0 h 25.0472223 c 0.3896675,0 0.7055565,-0.31589 0.7055565,-0.70556 v 0 z"
         inkscape:connector-curvature="0"
         style="fill:#c69857;fill-rule:evenodd;stroke:none;stroke-width:0.26458332" />
      <path
         id="path1455"
         d="m -7.5249382,234.43883 v 2.68993 0 c 0,0.38967 -0.315889,0.70556 -0.7055565,0.70556 H -33.277717 v 0 c -0.389667,0 -0.705555,-0.31589 -0.705555,-0.70556 v -2.68993 2.42535 c 0,0.38966 0.315888,0.70555 0.705555,0.70555 v 0 h 25.0472223 c 0.3896675,0 0.7055565,-0.31589 0.7055565,-0.70555 v 0 z"
         inkscape:connector-curvature="0"
         style="fill:#c69857;fill-rule:evenodd;stroke:none;stroke-width:0.26458332" />
      <path
         id="path1457"
         d="m -7.5249382,233.90966 v 2.68993 0 c 0,0.38967 -0.315889,0.70556 -0.7055565,0.70556 H -33.277717 v 0 c -0.389667,0 -0.705555,-0.31589 -0.705555,-0.70556 v -2.68993 2.42535 c 0,0.38967 0.315888,0.70556 0.705555,0.70556 v 0 h 25.0472223 c 0.3896675,0 0.7055565,-0.31589 0.7055565,-0.70556 v 0 z"
         inkscape:connector-curvature="0"
         style="fill:#c69857;fill-rule:evenodd;stroke:none;stroke-width:0.26458332" />
      <path
         id="path1459"
         d="m -7.5249382,233.3805 v 2.68993 0 c 0,0.38966 -0.315889,0.70555 -0.7055565,0.70555 H -33.277717 v 0 c -0.389667,0 -0.705555,-0.31589 -0.705555,-0.70555 v -2.68993 2.42534 c 0,0.38967 0.315888,0.70556 0.705555,0.70556 v 0 h 25.0472223 c 0.3896675,0 0.7055565,-0.31589 0.7055565,-0.70556 v 0 z"
         inkscape:connector-curvature="0"
         style="fill:#c69857;fill-rule:evenodd;stroke:none;stroke-width:0.26458332" />
      <path
         id="path1461"
         d="m -7.5249382,220.72459 v 11.28889 c 0,1.74331 -0.1729317,2.97803 -0.5187918,3.70417 -1.2156652,0.31427 -2.944968,0.49066 -5.187908,0.52917 h -19.957884 v 0 c -0.438376,0 -0.79375,-0.35538 -0.79375,-0.79375 v -13.00869 12.7441 c 0,0.43838 0.355374,0.79375 0.79375,0.79375 v 0 h 19.957884 c 2.24294,-0.0385 3.9722428,-0.21489 5.187908,-0.52916 0.3458601,-0.72614 0.5187918,-1.96087 0.5187918,-3.70417 z"
         inkscape:connector-curvature="0"
         style="fill:#c69857;fill-rule:evenodd;stroke:none;stroke-width:0.26458332" />
      <g
         transform="matrix(0.26458333,0,0,0.26458333,-31.988925,210.91119)"
         id="Group"
         style="fill:#eccf87;fill-rule:evenodd;stroke:none;stroke-width:1">
        <path
           id="path1463"
           d="m 10.462312,63.756714 h 2 v -2 h -2 v 2 h 2 v -2 H 6.4623116 v 2 z m 17,5 h 5 v 2 h -5 -5 v -2 z m 53,14 h 2 v 2 h -2 z m -6,0 h 2 v 2 h -2 z m -6,0 h 6 v 2 h -6 z m -4,0 h 2 v 2 h -2 z m -6,0 h 2 v 2 h -2 z m -6,0 h 6 v 2 h -6 z m -4,0 h 2 v 2 h -2 z m -10,0 h 6 v 2 h -6 z m -6,0 h 2 v 2 h -2 z m -6,0 h 2 v 2 h -2 z m -4,0 h 2 v 2 h -2 z m -6,0 h 2 v 2 h -2 z m -6,0 h 6 v 2 h -6 z m -4.0000004,0 h 2 v 2 h -2 z m -6.00000004,0 H 2.4623116 v 2 H 0.46231156 Z m 80.00000044,-7 h 2 v 2 h -2 z m -6,0 h 6 v 2 h -6 z m -6,0 h 2 v 2 h -2 z m -4,0 h 2 v 2 h -2 z m -6,0 h 6 v 2 h -6 z m -6,0 h 2 v 2 h -2 z m -4,0 h 2 v 2 h -2 z m -10,0 h 6 v 2 h -6 z m -12,0 h 10 v 2 h -10 z m -4,0 h 2 v 2 h -2 z m -6,0 h 2 v 2 h -2 z m -6,0 h 6 v 2 h -6 z m -4.0000004,0 h 2 v 2 h -2 z m -6.00000004,0 H 2.4623116 v 2 H 0.46231156 Z m 80.00000044,-7 h 2 v 2 h -2 z m -6,0 h 2 v 2 h -2 z m -6,0 h 6 v 2 h -6 z m -4,0 h 2 v 2 h -2 z m -6,0 h 6 v 2 h -6 z m -6,0 h 2 v 2 h -2 z m -4,0 h 2 v 2 h -2 z m -6,0 h 6 v 2 h -6 z m -4,0 h 2 v 2 h -2 z m -6,0 h 2 v 2 h -2 z m -16,0 h 2 v 2 h -2 z m -6,0 h 2 v 2 h -2 z m -4.0000004,0 h 2 v 2 h -2 z m -6.00000004,0 H 6.4623116 v 2 H 0.46231156 Z m 80.00000044,-7 h 2 v 2 h -2 z m -12,0 h 10 v 2 h -10 z m -4,0 h 2 v 2 h -2 z m -6,0 h 2 v 2 h -2 z m -6,0 h 2 v 2 h -2 z m -4,0 h 2 v 2 h -2 z m -6,0 h 6 v 2 h -6 z m -4,0 h 2 v 2 h -2 z m -6,0 h 6 v 2 h -6 z m -6,0 h 2 v 2 h -2 z m -4,0 h 2 v 2 h -2 z m -6,0 h 2 v 2 h -2 z m -16.00000044,0 H 2.4623116 v 2 H 0.46231156 Z m 80.00000044,-8 h 2 v 2 h -2 z m -6,0 h 2 v 2 h -2 z m -6,0 h 2 v 2 h -2 z m -10,0 h 10 v 2 h -10 z m -6,0 h 6 v 2 h -6 z m -4,0 h 2 v 2 h -2 z m -6,0 h 2 v 2 h -2 z m -4,0 h 2 v 2 h -2 z m -6,0 h 2 v 2 h -2 z m -6,0 h 2 v 2 h -2 z m -4,0 h 2 v 2 h -2 z m -6,0 h 6 v 2 h -6 z m -6,0 h 2 v 2 h -2 z m -4.0000004,0 h 2 v 2 h -2 z m -6.00000004,0 H 6.4623116 v 2 H 0.46231156 Z m 80.00000044,-8 h 2 v 2 h -2 z m -6,0 h 2 v 2 h -2 z m -10,0 h 6 v 2 h -6 z m -6,0 h 2 v 2 h -2 z m -6,0 h 2 v 2 h -2 z m -4,0 h 2 v 2 h -2 z m -6,0 h 2 v 2 h -2 z m -4,0 h 2 v 2 h -2 z m -6,0 h 2 v 2 h -2 z m -6,0 h 2 v 2 h -2 z m -4,0 h 2 v 2 h -2 z m -6,0 h 2 v 2 h -2 z m -6,0 h 6 v 2 h -6 z m -4.0000004,0 h 2 v 2 h -2 z m -6.00000004,0 H 2.4623116 v 2 H 0.46231156 Z m 80.00000044,-8 h 2 v 2 h -2 z m -12,0 h 10 v 2 h -10 z m -4,0 h 2 v 2 h -2 z m -6,0 h 2 v 2 h -2 z m -6,0 h 2 v 2 h -2 z m -4,0 h 2 v 2 h -2 z m -6,0 h 2 v 2 h -2 z m -4,0 h 2 v 2 h -2 z m -6,0 h 2 v 2 h -2 z m -6,0 h 2 v 2 h -2 z m -4,0 h 2 v 2 h -2 z m -6,0 h 6 v 2 h -6 z m -10.0000004,0 h 6.0000004 v 2 H 6.4623116 Z m -6.00000004,0 H 2.4623116 v 2 H 0.46231156 Z m 80.00000044,-8 h 2 v 2 h -2 z m -6,0 h 6 v 2 h -6 z m -6,0 h 2 v 2 h -2 z m -4,0 h 2 v 2 h -2 z m -6,0 h 2 v 2 h -2 z m -6,0 h 2 v 2 h -2 z m -4,0 h 2 v 2 h -2 z m -6,0 h 2 v 2 h -2 z m -4,0 h 2 v 2 h -2 z m -6,0 h 2 v 2 h -2 z m -6,0 h 2 v 2 h -2 z m -4,0 h 2 v 2 h -2 z m -12,0 h 10 v 2 h -10 z m -4.0000004,0 h 2 v 2 h -2 z m -6.00000004,0 H 6.4623116 v 2 H 0.46231156 Z m 80.00000044,-7 h 2 v 2 h -2 z m -6,0 h 2 v 2 h -2 z m -6,0 h 2 v 2 h -2 z m -4,0 h 2 v 2 h -2 z m -6,0 h 2 v 2 h -2 z m -6,0 h 2 v 2 h -2 z m -4,0 h 2 v 2 h -2 z m -6,0 h 2 v 2 h -2 z m -4,0 h 2 v 2 h -2 z m -16,0 h 16 v 2 h -16 z m -6,0 h 2 v 2 h -2 z m -10.0000004,0 h 6.0000004 v 2 H 6.4623116 Z m -6.00000004,0 H 6.4623116 v 2 H 0.46231156 Z m 80.00000044,-7 h 2 v 2 h -2 z m -6,0 h 2 v 2 h -2 z m -6,0 h 2 v 2 h -2 z m -4,0 h 2 v 2 h -2 z m -6,0 h 2 v 2 h -2 z m -6,0 h 2 v 2 h -2 z m -10,0 h 6 v 2 h -6 z m -4,0 h 2 v 2 h -2 z m -6,0 h 2 v 2 h -2 z m -6,0 h 6 v 2 h -6 z m -10,0 h 2 v 2 h -2 z m -6,0 h 6 v 2 h -6 z m -4.0000004,0 h 2 v 2 h -2 z m -6.00000004,0 H 6.4623116 v 2 H 0.46231156 Z M 80.462312,8.7567141 h 2 v 1.9999999 h -2 z m -6,0 h 2 v 1.9999999 h -2 z m -6,0 h 2 v 1.9999999 h -2 z m -4,0 h 2 v 1.9999999 h -2 z m -6,0 h 2 v 1.9999999 h -2 z m -20,0 h 16 v 1.9999999 h -16 z m -6,0 h 6 v 1.9999999 h -6 z m -10,0 h 6 v 1.9999999 h -6 z m -6,0 h 2 v 1.9999999 h -2 z m -10.0000004,0 H 12.462312 V 10.756714 H 6.4623116 Z m -6.00000004,0 H 6.4623116 V 10.756714 H 0.46231156 Z M 80.462312,0.75671406 h 2 V 2.7567141 h -2 z m -6,0 h 2 V 2.7567141 h -2 z m -6,0 h 2 V 2.7567141 h -2 z m -4,0 h 2 V 2.7567141 h -2 z m -6,0 h 2 V 2.7567141 h -2 z m -6,0 h 2 V 2.7567141 h -2 z m -10,0 h 10 V 2.7567141 h -10 z m -4,0 h 2 V 2.7567141 h -2 z m -6,0 h 6 V 2.7567141 h -6 z m -10,0 h 6 V 2.7567141 h -6 z m -6,0 h 2 V 2.7567141 h -2 z m -10.0000004,0 H 12.462312 V 2.7567141 H 6.4623116 Z m -6.00000004,0 H 2.4623116 V 2.7567141 H 0.46231156 Z"
           inkscape:connector-curvature="0" />
      </g>
      <path
         transform="matrix(0.26458333,0,0,0.26458333,-29.195954,208.02459)"
         style="fill:url(#linearGradient-3);fill-rule:evenodd;stroke:none;stroke-width:1;filter:url(#filter-2)"
         inkscape:connector-curvature="0"
         d="m 15.38369,68.728855 c -0.0076,-5.234115 0.398828,-8.99159 1.219362,-11.272428 -0.01601,1.01938 0.404929,2.098792 1.26283,3.238236 1.286851,1.709166 1.078667,-12.993874 6.471429,-16.888761 0.05452,4.605724 0.681173,7.515342 1.879946,8.728852 C 28.015416,54.355018 22.75763,44.95899 28.950528,39.23916 35.143425,33.519329 60.677974,5.2599068 76.093874,2.2684275 91.509773,-0.72305193 87.970648,-0.42659375 86.445873,1.2621069 c -1.524775,1.6887006 1.632298,8.2347545 -2.185359,12.5640961 -3.817657,4.329342 -7.393386,4.329342 -7.393386,4.329342 2.098234,0.627611 3.147351,0.941416 3.147351,0.941416 -3.257734,9.462882 -10.329884,18.567131 -21.21645,27.312744 -5.368932,5.440719 -12.188669,7.48747 -20.45921,6.140251 4.5137,2.386869 7.791261,3.477196 9.832683,3.270981 -1.687967,3.373893 -3.890293,6.004204 -6.606978,7.890933 -6.182221,0.06159 -9.810187,-0.08556 -10.883897,-0.441471 4.213245,1.254441 7.191112,1.819875 8.933603,1.696302 2.613737,-0.18536 -9.070295,6.341983 -12.173607,6.209834 -2.068875,-0.0881 -6.087852,-0.903993 -12.056933,-2.44768 z"
         id="Path-3" />
      <path
         transform="matrix(0.26458333,0,0,0.26458333,-29.195954,208.02459)"
         style="fill:url(#linearGradient-4);fill-rule:nonzero;stroke:none;stroke-width:1;filter:url(#filter-2)"
         inkscape:connector-curvature="0"
         d="m 36.475847,64.708748 c 1.300918,0.228088 2.347046,0.314073 3.138383,0.257953 2.613737,-0.18536 -9.070295,6.341983 -12.173607,6.209834 -2.068875,-0.0881 -6.087852,-0.903993 -12.056933,-2.44768 -0.0076,-5.234115 0.398828,-8.99159 1.219362,-11.272428 -0.0131,0.834152 0.26638,1.708501 0.838452,2.623048 0.134288,0.213586 0.272484,0.413446 0.424378,0.615188 0.258551,0.343401 0.456751,0.02428 0.652152,-0.736602 0.784973,-3.131581 1.532747,-13.05624 5.819277,-16.152159 0.03808,3.216469 0.355187,5.605727 0.951328,7.167775 0.0995,0.477438 0.306008,1.452941 0.322439,1.596297 0.03304,-0.204926 0.09866,-0.370019 0.224875,-0.506856 0.119923,0.178493 0.247024,0.335705 0.381304,0.471636 0.504138,0.510335 0.453653,0.13903 0.256387,-0.785722 0.291196,-0.06849 0.350698,-0.02266 0.455026,0.08295 -0.252088,-0.25519 -0.478345,-0.631927 -0.675801,-1.128338 C 25.692342,47.905927 25.048733,42.842901 28.950528,39.23916 35.143425,33.519329 60.677974,5.2599068 76.093874,2.2684275 91.509773,-0.72305193 87.970648,-0.42659375 86.445873,1.2621069 c -1.524775,1.6887006 1.632298,8.2347545 -2.185359,12.5640961 -2.031399,2.30367 -3.994299,3.381543 -5.386433,3.885873 0,0 -1.089182,0.441426 -2.012479,0.43667 -0.0018,-0.0061 0.786456,0.242142 2.036252,0.614217 l 1.116625,0.333998 c -3.257734,9.462882 -10.329884,18.567131 -21.21645,27.312744 -4.724583,4.787754 -10.572632,6.947306 -17.544147,6.478654 -1.64921,-0.153364 -2.566926,-0.257507 -2.753147,-0.312432 -0.113451,-3.41e-4 0.382116,0.312432 2.497669,1.296761 3.16585,1.462095 5.556883,2.111511 7.173098,1.948249 -1.687967,3.373893 -3.890293,6.004204 -6.606978,7.890933 -1.273634,0.01269 -4.137234,0.01269 -8.5908,0 -0.0045,0.173659 1.162834,0.505952 3.502123,0.996878 z M 17.067,61.29615 c -0.0861,-0.11436 -0.168514,-0.228583 -0.247204,-0.342667 -0.268858,1.862008 -0.415174,4.198156 -0.434103,7.000377 5.488095,1.40112 9.207253,2.143089 11.097475,2.22358 1.14722,0.04885 4.41747,-1.246267 7.717187,-3.007928 0.84537,-0.451328 1.624727,-0.898217 2.271223,-1.299715 -1.802279,-0.22218 -6.950821,-1.624492 -8.819276,-2.967975 l 2.198915,-0.186957 c 0.41588,0 4.553676,0.05192 10.39108,0 2.083822,-1.502676 3.845056,-3.484279 5.284987,-5.95345 -2.175772,-0.301787 -5.042972,-1.416896 -8.655934,-3.327449 l -5.392935,-2.851812 6.021178,0.980811 C 46.45865,52.859445 52.95137,50.910839 58.171747,45.630108 68.541688,37.29952 75.382403,28.670548 78.716676,19.752547 78.306719,19.629923 77.669833,19.439421 76.580559,19.113605 l -6.546207,-1.95806 h 6.832776 c 0.05662,0 0.21074,-0.01238 0.449509,-0.05329 0.427135,-0.07317 0.913972,-0.207106 1.448438,-0.418051 1.567637,-0.618722 3.180352,-1.744582 4.745399,-3.519395 0.949743,-1.077038 1.463349,-2.375713 1.649824,-3.9606816 0.131058,-1.1139423 0.106256,-2.1311771 -0.03795,-3.9351177 -0.164238,-2.0545232 -0.205903,-3.0635689 0.03038,-3.7747208 -2.654956,0.5232347 -6.692527,1.3336003 -8.86836,1.7558241 -4.682389,0.908625 -10.723192,4.3476668 -17.848108,9.89523 -3.238997,2.52193 -6.646814,5.435743 -10.241423,8.721624 -5.651185,5.165826 -18.721685,18.250756 -18.565821,18.106798 -1.274069,1.176745 -2.074271,2.580614 -2.479994,4.193205 -0.478382,1.901383 -0.396825,3.878257 0.05506,6.192176 0.02416,0.123691 0.360886,1.694372 0.393978,1.983081 0.01982,0.172886 0.02381,0.320344 0.0013,0.474116 -0.05817,0.396528 -0.274637,0.762185 -0.762114,0.905499 -0.589066,0.173181 -0.865311,-0.01253 -1.331363,-0.484317 -1.187568,-1.202167 -1.850802,-3.520657 -2.080011,-7.012507 -0.938244,1.391496 -1.707084,3.371062 -2.337739,5.872824 -0.507937,2.014947 -1.493951,7.670008 -1.569863,7.982311 -0.137661,0.566332 -0.271063,0.942764 -0.478015,1.22772 -0.526233,0.724581 -1.452694,0.679622 -1.973216,-0.01173 z"
         id="path1469" />
      <path
         transform="matrix(0.26458333,0,0,0.26458333,-29.195954,208.02459)"
         style="fill:url(#linearGradient-5);fill-rule:evenodd;stroke:none;stroke-width:1;filter:url(#filter-2)"
         inkscape:connector-curvature="0"
         d="M 0.42138618,89.205347 C 13.443025,63.400222 40.040698,35.704074 80.214405,6.1169036 42.02762,37.712569 19.263174,60.751268 11.921065,75.233001 9.117303,80.763202 6.2063766,86.627033 5.0448579,87.525639 2.6630039,89.368353 1.1218467,89.928256 0.42138618,89.205347 Z"
         id="Path-2" />
    </g>
  </g>
</svg>
