<?xml version="1.0" encoding="UTF-8" standalone="no"?>
<!-- Created with Inkscape (http://www.inkscape.org/) -->

<svg
   xmlns:dc="http://purl.org/dc/elements/1.1/"
   xmlns:cc="http://creativecommons.org/ns#"
   xmlns:rdf="http://www.w3.org/1999/02/22-rdf-syntax-ns#"
   xmlns:svg="http://www.w3.org/2000/svg"
   xmlns="http://www.w3.org/2000/svg"
   xmlns:sodipodi="http://sodipodi.sourceforge.net/DTD/sodipodi-0.dtd"
   xmlns:inkscape="http://www.inkscape.org/namespaces/inkscape"
   width="128"
   height="128"
   viewBox="0 0 33.866666 33.866668"
   version="1.1"
   id="svg8"
   inkscape:version="0.92.2 5c3e80d, 2017-08-06"
   sodipodi:docname="bijiben.svg">
  <defs
     id="defs2" />
  <sodipodi:namedview
     id="base"
     pagecolor="#ffffff"
     bordercolor="#666666"
     borderopacity="1.0"
     inkscape:pageopacity="0.0"
     inkscape:pageshadow="2"
     inkscape:zoom="3.959798"
     inkscape:cx="-10.226793"
     inkscape:cy="55.54762"
     inkscape:document-units="mm"
     inkscape:current-layer="layer1"
     showgrid="false"
     inkscape:window-width="1600"
     inkscape:window-height="803"
     inkscape:window-x="0"
     inkscape:window-y="0"
     inkscape:window-maximized="1"
     showguides="true"
     units="px" />
  <metadata
     id="metadata5">
    <rdf:RDF>
      <cc:Work
         rdf:about="">
        <dc:format>image/svg+xml</dc:format>
        <dc:type
           rdf:resource="http://purl.org/dc/dcmitype/StillImage" />
        <dc:title />
      </cc:Work>
    </rdf:RDF>
  </metadata>
  <g
     inkscape:label="Layer 1"
     inkscape:groupmode="layer"
     id="layer1"
     transform="translate(0,-263.13332)">
    <g
       id="g1318"
       transform="matrix(0.94371797,0,0,0.94374861,247.89405,97.015213)"
       style="stroke-width:1.00916338">
      <path
         style="opacity:0.25;fill:#000000;fill-opacity:1;stroke:none;stroke-width:0.2670078px;stroke-linecap:butt;stroke-linejoin:miter;stroke-opacity:1"
         d="m -252.2811,197.829 c 0.51253,3.7001 0.84129,7.40021 0.78792,11.10032 6.23351,-0.41981 12.45405,-0.73632 18.7553,-1.69603 -0.34857,-3.84256 -1.0507,-7.68512 -0.8247,-11.52768 z"
         id="path1266"
         inkscape:connector-curvature="0"
         sodipodi:nodetypes="ccccc" />
      <path
         sodipodi:nodetypes="ccccc"
         inkscape:connector-curvature="0"
         id="path1124"
         d="m -252.2811,197.29983 c 0.51253,3.7001 0.84129,7.40021 0.78792,11.10032 6.23351,-0.41981 12.45405,-0.73632 18.7553,-1.69603 -0.34857,-3.84256 -1.0507,-7.68512 -0.8247,-11.52768 z"
         style="fill:#fef9a8;fill-opacity:1;stroke:#8c8556;stroke-width:0.2670078px;stroke-linecap:butt;stroke-linejoin:miter;stroke-opacity:1" />
      <path
         style="opacity:0.25;fill:#000000;fill-opacity:1;stroke:none;stroke-width:0.26742828;stroke-linecap:butt;stroke-linejoin:miter;stroke-miterlimit:4;stroke-dasharray:none;stroke-opacity:1"
         d="m -228.05209,184.89934 -0.63958,15.44063 c -6.16438,0.1749 -12.44057,-0.30873 -18.66086,-0.93693 l 2.12435,-15.96531 c 5.3962,0.91187 11.53332,1.04943 17.17609,1.46161 z"
         id="path1268"
         inkscape:connector-curvature="0"
         sodipodi:nodetypes="ccccc" />
      <path
         sodipodi:nodetypes="ccccc"
         inkscape:connector-curvature="0"
         id="path1103"
         d="m -228.05209,184.37017 -0.63958,15.44063 c -6.16438,0.1749 -12.44057,-0.30873 -18.66086,-0.93693 l 2.12435,-15.96531 c 5.3962,0.91187 11.53332,1.04943 17.17609,1.46161 z"
         style="fill:#fef9a8;fill-opacity:1;stroke:#8c8556;stroke-width:0.26742828;stroke-linecap:butt;stroke-linejoin:miter;stroke-miterlimit:4;stroke-dasharray:none;stroke-opacity:1" />
      <g
         id="text1132"
         style="font-style:normal;font-weight:normal;font-size:18.10793495px;line-height:1.25;font-family:sans-serif;letter-spacing:0px;word-spacing:0px;fill:#f23b15;fill-opacity:1;stroke:none;stroke-width:1.34384632"
         transform="matrix(0.19662347,0.03102171,-0.0311421,0.19586337,-209.35361,167.07339)"
         aria-label="EGGS">
        <path
           id="path1163"
           style="font-style:normal;font-variant:normal;font-weight:normal;font-stretch:normal;font-size:24.14391518px;font-family:'Nanum Brush Script';-inkscape-font-specification:'Nanum Brush Script';fill:#f23b15;fill-opacity:1;stroke-width:1.34384632"
           d="m -126.24923,141.64242 q 0.24144,0.0483 0.33801,0.0966 0.12072,0.0241 0.14486,0.14486 l -0.41044,0.57945 q -0.14487,0.12072 -0.3863,0.19315 -0.2173,0.0724 -0.41045,0.12072 -0.55531,0.0483 -1.23134,0.0724 -0.67603,0.0241 -1.40035,0.0724 -0.72432,0.0241 -1.47278,0.0483 -0.72431,0.0242 -1.3762,0.0483 0,1.01405 0,1.88323 0.0241,0.86918 0.0724,1.40035 0.6036,-0.0966 1.40035,-0.31388 0.79675,-0.21729 1.71422,-0.50702 0.91747,-0.28972 1.90737,-0.62774 0.9899,-0.33801 1.93151,-0.70017 0.33801,-0.12072 0.62774,-0.19315 0.31387,-0.0966 0.62774,-0.19316 0,0.0966 -0.0241,0.14487 -0.0241,0.0241 -0.0724,0.0724 -0.0724,0.19315 -0.2173,0.33801 -0.14486,0.12072 -0.28972,0.2173 -0.12072,0.0966 -0.2173,0.16901 -0.12072,0.0966 -0.2173,0.28972 -0.0724,0.19316 -0.33801,0.36216 -1.56935,0.96576 -3.16285,1.5935 -1.5935,0.62774 -3.38015,1.13476 -0.41045,0.12072 -0.65189,0.0483 -0.24144,-0.0966 -0.41044,-0.45873 -0.0483,-0.19315 -0.12072,-0.31387 -0.0724,-0.12072 -0.33802,-0.31387 -0.12072,-0.0966 -0.12072,-0.31387 0,-0.24144 -0.0241,-0.50703 -0.0483,-0.57945 -0.0724,-1.40034 0,-0.84504 0.0241,-1.78665 h -0.62774 q -0.2173,-0.0241 -0.31387,-0.0483 -0.0966,-0.0483 -0.28973,-0.24144 0,-0.16901 0.0724,-0.2173 0.0966,-0.0483 0.16901,-0.14486 0.0724,-0.0966 0.12072,-0.21729 0.0724,-0.12072 0.19315,-0.16901 0.12072,-0.0241 0.28973,-0.0483 0.19315,-0.0241 0.43459,-0.0724 0.0483,-0.89333 0.0724,-1.78665 0.0483,-0.89333 0.0966,-1.66593 h -0.33802 q -0.28973,0 -0.41045,-0.0483 -0.0966,-0.0724 -0.14486,-0.12072 -0.0483,-0.0724 -0.0724,-0.12072 -0.0241,-0.0724 -0.14486,-0.0966 -0.19316,-0.0242 -0.19316,-0.0724 0,-0.0483 -0.0966,-0.0966 -0.0966,-0.0724 0.0724,-0.16901 0.19315,-0.0966 0.3863,-0.3863 0.16901,-0.16901 0.19315,-0.26558 0.0483,-0.0966 0.31388,-0.2173 0.24143,-0.12072 0.91746,-0.14486 0.67603,-0.0241 1.52107,0.0241 0.84504,0.0241 1.71422,0.12072 0.89332,0.0724 1.52107,0.19315 0.3863,0.0966 0.70017,0.24144 0.31387,0.12072 0.6036,0.33802 0,0.0724 -0.12072,0.0966 -0.0966,0 -0.14487,0.0483 -0.0966,0.0724 -0.19315,0.12072 -0.0966,0.0241 -0.169,0.0724 -0.0966,0.0483 -0.19316,0.0724 -0.3863,0.12072 -0.82089,0.2173 -0.41045,0.0724 -0.94161,0.12072 -0.50702,0.0483 -1.2072,0.0724 -0.67603,0 -1.56935,0 -0.0241,0.70017 -0.0483,1.54521 0,0.84504 0,1.73836 1.15891,-0.12072 2.55926,-0.19315 1.42449,-0.0966 2.65583,-0.12072 0.26558,0 0.50702,0.12072 0.24144,0.12072 0.48288,0.12072 z"
           inkscape:connector-curvature="0" />
        <path
           id="path1165"
           style="font-style:normal;font-variant:normal;font-weight:normal;font-stretch:normal;font-size:24.14391518px;font-family:'Nanum Brush Script';-inkscape-font-specification:'Nanum Brush Script';fill:#f23b15;fill-opacity:1;stroke-width:1.34384632"
           d="m -114.92725,138.3347 q 0,0.12072 -0.0724,0.24144 -0.0724,0.0966 -0.12072,0.24144 -0.0966,0.26558 -0.14486,0.28973 -0.0242,0.0241 -0.16901,0.19315 -0.0724,0.0966 -0.0966,0.16901 -0.0242,0.0483 -0.0724,0.0966 -0.0966,0.0483 -0.26558,-0.0483 -0.24144,-0.2173 -0.57945,-0.45874 -0.33802,-0.24144 -0.72432,-0.41045 -0.3863,-0.19315 -0.82089,-0.26558 -0.41045,-0.0724 -0.84504,0.0724 -0.6036,0.19315 -1.40035,0.67603 -0.79675,0.48288 -1.35206,1.18305 -0.67603,0.86919 -0.72431,1.88323 -0.0483,0.9899 0.3863,1.83494 0.45873,0.84503 1.35206,1.44863 0.89332,0.57946 2.12466,0.62774 0.62774,-0.0966 1.08648,-0.41044 0.48288,-0.33802 0.82089,-0.79675 0.36216,-0.45874 0.6036,-0.96576 0.24144,-0.53116 0.3863,-0.9899 -1.23134,0.31387 -2.46268,0.53117 -1.23134,0.19315 -2.46268,-0.12072 -0.12072,-0.0724 -0.0724,-0.0483 0.0483,0 0.16901,-0.2173 0.0483,-0.0966 0.0724,-0.24143 0.0483,-0.16901 0.24144,-0.26559 0.86918,-0.14486 1.78665,-0.36216 0.91747,-0.24144 1.88322,-0.41044 0.96576,-0.16901 1.95566,-0.16901 0.9899,0 2.00395,0.31387 0.0966,0.0483 0.21729,0.0724 0.14487,0 0.26558,0.0483 0.12072,0.0483 0.2173,0.14486 0.0966,0.0724 0.0966,0.2173 0,0.0966 -0.2173,0.0966 -0.62774,0 -1.44863,0.0483 -0.79675,0.0241 -1.4245,0.19315 -0.0241,0.57946 -0.0483,1.27963 0,0.70017 0.0483,1.44864 0.0724,0.72431 0.24144,1.44863 0.19316,0.72432 0.57946,1.32792 0.0483,0.0483 0.0483,0.24144 0,0.19315 -0.0483,0.31387 -0.0483,0.0724 -0.0241,0.14486 0.0241,0.0483 -0.0241,0.0966 -0.0483,0.0966 -0.16901,0.0966 -0.12072,-0.0241 -0.19315,-0.0724 -0.62774,-0.62774 -0.91747,-1.54521 -0.26558,-0.91747 -0.31387,-1.73836 -1.54521,1.54521 -3.187,1.7625 -0.43459,0.0483 -0.70017,0.0242 -0.24144,-0.0483 -0.65188,-0.24144 -0.16901,-0.0724 -0.50703,-0.12072 -0.31387,-0.0483 -0.43459,-0.16901 -0.65188,-0.50702 -1.15891,-1.15891 -0.48287,-0.65188 -0.79674,-1.40034 -0.28973,-0.74847 -0.41045,-1.54522 -0.0966,-0.82089 0.0483,-1.66593 0.0241,-1.08647 0.53116,-1.90736 0.50703,-0.84504 1.25549,-1.40035 0.7726,-0.55531 1.64178,-0.82089 0.89333,-0.28973 1.66593,-0.26559 0.55531,0.0241 1.11062,0.14487 0.57946,0.0966 1.06234,0.36215 0.43459,0.24144 0.67603,0.38631 0.24143,0.12072 0.48287,0.53116 z"
           inkscape:connector-curvature="0" />
        <path
           id="path1167"
           style="font-style:normal;font-variant:normal;font-weight:normal;font-stretch:normal;font-size:24.14391518px;font-family:'Nanum Brush Script';-inkscape-font-specification:'Nanum Brush Script';fill:#f23b15;fill-opacity:1;stroke-width:1.34384632"
           d="m -102.14795,138.3347 q 0,0.12072 -0.0724,0.24144 -0.0724,0.0966 -0.12072,0.24144 -0.0966,0.26558 -0.14486,0.28973 -0.0241,0.0241 -0.16901,0.19315 -0.0724,0.0966 -0.0966,0.16901 -0.0241,0.0483 -0.0724,0.0966 -0.0966,0.0483 -0.26558,-0.0483 -0.24144,-0.2173 -0.57945,-0.45874 -0.33802,-0.24144 -0.72432,-0.41045 -0.3863,-0.19315 -0.8209,-0.26558 -0.41044,-0.0724 -0.84503,0.0724 -0.6036,0.19315 -1.40035,0.67603 -0.79675,0.48288 -1.35206,1.18305 -0.67603,0.86919 -0.72432,1.88323 -0.0483,0.9899 0.38631,1.83494 0.45873,0.84503 1.35206,1.44863 0.89332,0.57946 2.12466,0.62774 0.62774,-0.0966 1.08648,-0.41044 0.48288,-0.33802 0.82089,-0.79675 0.36216,-0.45874 0.6036,-0.96576 0.24144,-0.53116 0.3863,-0.9899 -1.23134,0.31387 -2.46268,0.53117 -1.23134,0.19315 -2.46268,-0.12072 -0.12072,-0.0724 -0.0724,-0.0483 0.0483,0 0.16901,-0.2173 0.0483,-0.0966 0.0724,-0.24143 0.0483,-0.16901 0.24144,-0.26559 0.86918,-0.14486 1.78665,-0.36216 0.91747,-0.24144 1.88322,-0.41044 0.96576,-0.16901 1.95566,-0.16901 0.9899,0 2.003945,0.31387 0.09658,0.0483 0.217296,0.0724 0.144863,0 0.265583,0.0483 0.120719,0.0483 0.217295,0.14486 0.09658,0.0724 0.09658,0.2173 0,0.0966 -0.217296,0.0966 -0.627741,0 -1.448643,0.0483 -0.79674,0.0241 -1.42449,0.19315 -0.0241,0.57946 -0.0483,1.27963 0,0.70017 0.0483,1.44864 0.0724,0.72431 0.24144,1.44863 0.19315,0.72432 0.57946,1.32792 0.0483,0.0483 0.0483,0.24144 0,0.19315 -0.0483,0.31387 -0.0483,0.0724 -0.0242,0.14486 0.0242,0.0483 -0.0241,0.0966 -0.0483,0.0966 -0.16901,0.0966 -0.12072,-0.0241 -0.19315,-0.0724 -0.62774,-0.62774 -0.91747,-1.54521 -0.26558,-0.91747 -0.31387,-1.73836 -1.54521,1.54521 -3.187,1.7625 -0.43459,0.0483 -0.70017,0.0242 -0.24144,-0.0483 -0.65189,-0.24144 -0.169,-0.0724 -0.50702,-0.12072 -0.31387,-0.0483 -0.43459,-0.16901 -0.65188,-0.50702 -1.15891,-1.15891 -0.48287,-0.65188 -0.79675,-1.40034 -0.28972,-0.74847 -0.41044,-1.54522 -0.0966,-0.82089 0.0483,-1.66593 0.0241,-1.08647 0.53116,-1.90736 0.50702,-0.84504 1.25549,-1.40035 0.7726,-0.55531 1.64178,-0.82089 0.89333,-0.28973 1.66593,-0.26559 0.55531,0.0241 1.11062,0.14487 0.57946,0.0966 1.06233,0.36215 0.43459,0.24144 0.67603,0.38631 0.24144,0.12072 0.48288,0.53116 z"
           inkscape:connector-curvature="0" />
        <path
           id="path1169"
           style="font-style:normal;font-variant:normal;font-weight:normal;font-stretch:normal;font-size:24.14391518px;font-family:'Nanum Brush Script';-inkscape-font-specification:'Nanum Brush Script';fill:#f23b15;fill-opacity:1;stroke-width:1.34384632"
           d="m -89.513514,138.04498 q -0.04829,0.0966 0,0.14486 0.04829,0.0483 0,0.0966 -0.07243,0.0483 -0.265584,0.0724 -0.169007,0 -0.289727,0.0241 -0.169007,0.0483 -0.338014,0.0483 -0.169008,-0.0241 -0.362159,-0.14486 -0.289727,-0.14487 -0.724318,-0.26559 -0.410446,-0.14486 -0.893324,-0.14486 -0.627742,0 -1.327916,0.14486 -0.700173,0.12072 -1.352059,0.36216 -0.627742,0.2173 -1.134764,0.55531 -0.482878,0.33802 -0.700174,0.74846 -0.144863,0.31387 -0.120719,0.67603 0.02414,0.33802 0.169007,0.65189 0.144864,0.31387 0.338015,0.57945 0.217295,0.24144 0.410447,0.33802 0.603598,0.31387 1.327915,0.41044 0.748461,0.0966 1.521067,0.12072 0.796749,0.0241 1.569354,0.0724 0.772605,0.0483 1.424491,0.24144 0.338015,0.12072 0.627742,0.19315 0.313871,0.0724 0.55531,0.2173 0.241439,0.12072 0.43459,0.36216 0.217296,0.21729 0.362159,0.65188 0.217295,0.91747 -0.09658,1.78665 -0.313871,0.89333 -1.038189,1.5935 -0.724317,0.67603 -1.641786,1.08648 -0.724317,0.31387 -1.496923,0.43459 -0.748461,0.0966 -1.472779,-0.0483 -0.700173,-0.14486 -1.303771,-0.55531 -0.579454,-0.41045 -0.941613,-1.13476 -0.217295,-0.45874 -0.217295,-1.11062 -0.02414,-0.0724 0,-0.14487 0.04829,-0.169 0.313871,-0.169 0.09658,-0.0483 0.241439,0.0724 0.169007,0.0966 0.241439,0.12072 0.193152,0.0241 0.362159,0.26558 0.193151,0.2173 0.362159,0.36216 0.603598,0.62774 1.352059,0.7726 0.772605,0.12072 1.472779,0 0.724317,-0.14486 1.327915,-0.43459 0.603598,-0.28972 0.893325,-0.53116 0.169007,-0.14487 0.362159,-0.33802 0.217295,-0.21729 0.410446,-0.45873 0.193152,-0.26558 0.313871,-0.55531 0.144864,-0.28973 0.144864,-0.6036 -0.07243,-0.28973 -0.386303,-0.43459 -0.313871,-0.16901 -0.796749,-0.26558 -0.845037,-0.14487 -1.66593,-0.14487 -0.820893,-0.0241 -1.617643,0 -0.796749,0.0242 -1.569354,0.0242 -0.772605,0 -1.496923,-0.16901 -0.217295,-0.0483 -0.43459,-0.14486 -0.193152,-0.12072 -0.386303,-0.24144 -0.193151,-0.12072 -0.289727,-0.31387 -0.09658,-0.19315 -0.217295,-0.41045 -0.12072,-0.21729 -0.241439,-0.43459 -0.09658,-0.24144 -0.144864,-0.50702 -0.120719,-0.77261 0,-1.5935 0.144864,-0.82089 0.627742,-1.52107 0.386303,-0.57945 1.038188,-0.9899 0.67603,-0.43459 1.496923,-0.65188 0.845037,-0.24144 1.78665,-0.2173 0.941612,0 1.931513,0.28973 0.12072,0.0483 0.289727,0.14486 0.169007,0.0724 0.289727,0.12072 0.338015,0.16901 0.603598,0.41045 0.265583,0.24144 0.362159,0.48288 z"
           inkscape:connector-curvature="0" />
      </g>
      <path
         style="opacity:0.25;fill:#000000;fill-opacity:1;stroke:none;stroke-width:0.2670078px;stroke-linecap:butt;stroke-linejoin:miter;stroke-opacity:1"
         d="m -261.38959,185.02594 17.04687,-5.33593 5.07907,14.54117 c -5.19696,2.22921 -11.4989,4.24283 -17.57678,5.8735 -1.24032,-5.08125 -2.98835,-10.06135 -4.54916,-15.07874 z"
         id="path1274"
         inkscape:connector-curvature="0"
         sodipodi:nodetypes="ccccc" />
      <path
         sodipodi:nodetypes="ccccc"
         inkscape:connector-curvature="0"
         id="path1101"
         d="m -261.38959,184.49677 17.04687,-5.33593 5.07907,14.54117 c -5.19696,2.22921 -11.4989,4.24283 -17.57678,5.8735 -1.24032,-5.08125 -2.98835,-10.06135 -4.54916,-15.07874 z"
         style="fill:#fef9a8;fill-opacity:1;stroke:#8c8556;stroke-width:0.2670078px;stroke-linecap:butt;stroke-linejoin:miter;stroke-opacity:1" />
      <g
         id="text1144"
         style="font-style:normal;font-weight:normal;font-size:19.88763046px;line-height:1.25;font-family:sans-serif;letter-spacing:0px;word-spacing:0px;fill:#8b8455;fill-opacity:1;stroke:none;stroke-width:1.34384632"
         transform="matrix(0.1900253,-0.05910869,0.05933808,0.1892907,-209.35361,167.07339)"
         aria-label="555-7361">
        <path
           id="path1179"
           style="font-style:normal;font-variant:normal;font-weight:normal;font-stretch:normal;font-size:26.5168438px;font-family:'Nanum Brush Script';-inkscape-font-specification:'Nanum Brush Script';fill:#8b8455;fill-opacity:1;stroke-width:1.34384632"
           d="m -267.23184,41.748747 q 0.84854,-0.159101 1.75011,-0.159101 0.92809,-0.02652 1.85618,0.05303 0.92809,0.07955 1.82966,0.238651 0.92809,0.159101 1.77663,0.318202 -0.13258,0.132584 -0.29169,0.185618 -0.1591,0.05303 -0.37123,0.106068 -0.29169,0.132584 -0.58337,0.106067 -0.26517,-0.05303 -0.47731,0.159101 -1.2728,0.185618 -2.59865,0.371236 -1.29932,0.159101 -2.91685,0.291685 0,0.238652 -0.053,0.609887 -0.0265,0.344719 -0.10607,0.768989 -0.053,0.397753 -0.13258,0.795505 -0.053,0.397753 -0.13259,0.662921 0.71596,-0.212134 1.85618,-0.397752 1.14023,-0.185618 2.33348,-0.132585 0.21214,0 0.37124,0.106068 0.18562,0.07955 0.34472,0.159101 0.21213,0.106067 0.3182,0.212135 0.13258,0.07955 0.23865,0.238651 0.29169,0.530337 0.39775,1.166741 0.13259,0.636405 0,1.352359 -0.1591,0.689438 -0.42427,1.405393 -0.23865,0.689438 -0.66292,1.352359 -0.42427,0.662921 -1.03415,1.246292 -0.60989,0.556854 -1.48495,0.954606 -0.34472,0.159101 -0.74247,0.318202 -0.39775,0.159101 -0.76899,0.212135 -0.1591,0.02652 -0.3182,0.02652 -0.1591,-0.02652 -0.37123,-0.132584 -0.13259,-0.05303 -0.26517,-0.238652 -0.053,-0.07955 -0.18562,-0.159101 -0.10607,-0.106067 -0.1591,-0.185618 -0.13259,-0.265168 0.10607,-0.291685 1.43191,-0.238652 2.62516,-1.060674 1.19326,-0.822022 1.93573,-1.935729 0.63641,-0.92809 0.84854,-1.962247 0.34472,-0.689438 0.0795,-1.060674 -0.26517,-0.397752 -0.98112,-0.662921 -0.18562,-0.07955 -0.71596,-0.07955 -0.50382,0 -1.16674,0.07955 -0.6364,0.07955 -1.32584,0.291686 -0.66292,0.185617 -1.16674,0.50382 -0.23865,0.159101 -0.29169,0.07955 -0.0265,-0.106067 -0.0795,-0.132584 -0.10606,-0.05303 -0.1591,-0.159101 -0.053,-0.106068 -0.0265,-0.556854 0.0265,-0.344719 0.053,-0.768988 0.053,-0.450787 0.10607,-0.901573 0.0795,-0.477303 0.1591,-0.901573 0.0796,-0.450786 0.1591,-0.795505 -0.50382,-0.05303 -0.74247,0.07955 -0.23865,0.106068 -0.29169,-0.02652 -0.0796,-0.212135 -0.10607,-0.450787 -0.0265,-0.265168 0.18562,-0.397752 0.13259,-0.132585 0.26517,-0.212135 0.1591,-0.106068 0.23865,-0.132584 0.26517,-0.185618 0.29169,-0.768989 0.053,-0.58337 0.13258,-1.08719 0.0265,-0.132585 0.0795,-0.238652 0.053,-0.106067 0.10607,-0.238652 0.053,-0.132584 0.0796,-0.238651 0.053,-0.132584 0.1591,-0.238652 z"
           inkscape:connector-curvature="0" />
        <path
           id="path1181"
           style="font-style:normal;font-variant:normal;font-weight:normal;font-stretch:normal;font-size:26.5168438px;font-family:'Nanum Brush Script';-inkscape-font-specification:'Nanum Brush Script';fill:#8b8455;fill-opacity:1;stroke-width:1.34384632"
           d="m -257.13265,41.748747 q 0.84854,-0.159101 1.75011,-0.159101 0.92809,-0.02652 1.85618,0.05303 0.92809,0.07955 1.82966,0.238651 0.92809,0.159101 1.77663,0.318202 -0.13259,0.132584 -0.29169,0.185618 -0.1591,0.05303 -0.37123,0.106068 -0.29169,0.132584 -0.58337,0.106067 -0.26517,-0.05303 -0.47731,0.159101 -1.2728,0.185618 -2.59865,0.371236 -1.29932,0.159101 -2.91685,0.291685 0,0.238652 -0.053,0.609887 -0.0265,0.344719 -0.10607,0.768989 -0.053,0.397753 -0.13259,0.795505 -0.053,0.397753 -0.13258,0.662921 0.71596,-0.212134 1.85618,-0.397752 1.14022,-0.185618 2.33348,-0.132585 0.21214,0 0.37124,0.106068 0.18562,0.07955 0.34472,0.159101 0.21213,0.106067 0.3182,0.212135 0.13258,0.07955 0.23865,0.238651 0.29169,0.530337 0.39775,1.166741 0.13259,0.636405 0,1.352359 -0.1591,0.689438 -0.42427,1.405393 -0.23865,0.689438 -0.66292,1.352359 -0.42427,0.662921 -1.03415,1.246292 -0.60989,0.556854 -1.48495,0.954606 -0.34472,0.159101 -0.74247,0.318202 -0.39775,0.159101 -0.76899,0.212135 -0.1591,0.02652 -0.3182,0.02652 -0.1591,-0.02652 -0.37124,-0.132584 -0.13258,-0.05303 -0.26516,-0.238652 -0.053,-0.07955 -0.18562,-0.159101 -0.10607,-0.106067 -0.1591,-0.185618 -0.13259,-0.265168 0.10606,-0.291685 1.43191,-0.238652 2.62517,-1.060674 1.19326,-0.822022 1.93573,-1.935729 0.63641,-0.92809 0.84854,-1.962247 0.34472,-0.689438 0.0795,-1.060674 -0.26517,-0.397752 -0.98112,-0.662921 -0.18562,-0.07955 -0.71596,-0.07955 -0.50382,0 -1.16674,0.07955 -0.6364,0.07955 -1.32584,0.291686 -0.66292,0.185617 -1.16674,0.50382 -0.23865,0.159101 -0.29169,0.07955 -0.0265,-0.106067 -0.0795,-0.132584 -0.10606,-0.05303 -0.1591,-0.159101 -0.053,-0.106068 -0.0265,-0.556854 0.0265,-0.344719 0.053,-0.768988 0.053,-0.450787 0.10607,-0.901573 0.0796,-0.477303 0.1591,-0.901573 0.0795,-0.450786 0.1591,-0.795505 -0.50382,-0.05303 -0.74247,0.07955 -0.23866,0.106068 -0.29169,-0.02652 -0.0795,-0.212135 -0.10607,-0.450787 -0.0265,-0.265168 0.18562,-0.397752 0.13259,-0.132585 0.26517,-0.212135 0.1591,-0.106068 0.23865,-0.132584 0.26517,-0.185618 0.29169,-0.768989 0.053,-0.58337 0.13258,-1.08719 0.0265,-0.132585 0.0795,-0.238652 0.053,-0.106067 0.10607,-0.238652 0.053,-0.132584 0.0795,-0.238651 0.053,-0.132584 0.1591,-0.238652 z"
           inkscape:connector-curvature="0" />
        <path
           id="path1183"
           style="font-style:normal;font-variant:normal;font-weight:normal;font-stretch:normal;font-size:26.5168438px;font-family:'Nanum Brush Script';-inkscape-font-specification:'Nanum Brush Script';fill:#8b8455;fill-opacity:1;stroke-width:1.34384632"
           d="m -247.03346,41.748747 q 0.84853,-0.159101 1.75011,-0.159101 0.92809,-0.02652 1.85618,0.05303 0.92809,0.07955 1.82966,0.238651 0.92809,0.159101 1.77663,0.318202 -0.13259,0.132584 -0.29169,0.185618 -0.1591,0.05303 -0.37123,0.106068 -0.29169,0.132584 -0.58337,0.106067 -0.26517,-0.05303 -0.47731,0.159101 -1.27281,0.185618 -2.59865,0.371236 -1.29932,0.159101 -2.91685,0.291685 0,0.238652 -0.053,0.609887 -0.0265,0.344719 -0.10607,0.768989 -0.053,0.397753 -0.13259,0.795505 -0.053,0.397753 -0.13258,0.662921 0.71595,-0.212134 1.85618,-0.397752 1.14022,-0.185618 2.33348,-0.132585 0.21214,0 0.37124,0.106068 0.18561,0.07955 0.34472,0.159101 0.21213,0.106067 0.3182,0.212135 0.13258,0.07955 0.23865,0.238651 0.29168,0.530337 0.39775,1.166741 0.13259,0.636405 0,1.352359 -0.1591,0.689438 -0.42427,1.405393 -0.23865,0.689438 -0.66292,1.352359 -0.42427,0.662921 -1.03416,1.246292 -0.60988,0.556854 -1.48494,0.954606 -0.34472,0.159101 -0.74247,0.318202 -0.39775,0.159101 -0.76899,0.212135 -0.1591,0.02652 -0.3182,0.02652 -0.1591,-0.02652 -0.37124,-0.132584 -0.13258,-0.05303 -0.26517,-0.238652 -0.053,-0.07955 -0.18561,-0.159101 -0.10607,-0.106067 -0.1591,-0.185618 -0.13259,-0.265168 0.10606,-0.291685 1.43191,-0.238652 2.62517,-1.060674 1.19326,-0.822022 1.93573,-1.935729 0.6364,-0.92809 0.84854,-1.962247 0.34472,-0.689438 0.0795,-1.060674 -0.26517,-0.397752 -0.98112,-0.662921 -0.18562,-0.07955 -0.71596,-0.07955 -0.50382,0 -1.16674,0.07955 -0.6364,0.07955 -1.32584,0.291686 -0.66292,0.185617 -1.16674,0.50382 -0.23865,0.159101 -0.29169,0.07955 -0.0265,-0.106067 -0.0795,-0.132584 -0.10607,-0.05303 -0.1591,-0.159101 -0.053,-0.106068 -0.0265,-0.556854 0.0265,-0.344719 0.053,-0.768988 0.053,-0.450787 0.10606,-0.901573 0.0796,-0.477303 0.15911,-0.901573 0.0796,-0.450786 0.1591,-0.795505 -0.50382,-0.05303 -0.74247,0.07955 -0.23866,0.106068 -0.29169,-0.02652 -0.0796,-0.212135 -0.10607,-0.450787 -0.0265,-0.265168 0.18562,-0.397752 0.13258,-0.132585 0.26517,-0.212135 0.1591,-0.106068 0.23865,-0.132584 0.26517,-0.185618 0.29169,-0.768989 0.053,-0.58337 0.13258,-1.08719 0.0265,-0.132585 0.0796,-0.238652 0.053,-0.106067 0.10607,-0.238652 0.053,-0.132584 0.0796,-0.238651 0.053,-0.132584 0.1591,-0.238652 z"
           inkscape:connector-curvature="0" />
        <path
           id="path1185"
           style="font-style:normal;font-variant:normal;font-weight:normal;font-stretch:normal;font-size:26.5168438px;font-family:'Nanum Brush Script';-inkscape-font-specification:'Nanum Brush Script';fill:#8b8455;fill-opacity:1;stroke-width:1.34384632"
           d="m -227.14956,45.195937 q 0.1591,0.02652 0.10607,0.212134 -0.0265,0.07955 -0.10607,0.159101 -0.053,0.106068 -0.10607,0.106068 -0.0265,-0.02652 -0.10607,0.02652 -0.13258,0.132584 -0.29168,0.318202 -0.1591,0.159101 -0.3182,0.265168 -0.21214,0.132584 -0.42427,0.291685 -0.18562,0.132585 -0.42427,0.185618 -1.11371,0.238652 -2.36,0.397753 -1.21978,0.159101 -2.36,0.291685 -1.14022,0.106068 -2.12135,0.159101 -0.9546,0.05303 -1.59101,0.05303 -0.10607,0 -0.18562,0 -0.0796,0 -0.18561,-0.07955 -0.0265,-0.02652 -0.13259,-0.185618 -0.10607,-0.159101 -0.21213,-0.344719 -0.10607,-0.185618 -0.1591,-0.371236 -0.0265,-0.185618 0.10606,-0.265169 0.0795,-0.05303 0.21214,-0.106067 0.13258,-0.05303 0.18562,-0.238652 1.98876,-0.291685 4.61393,-0.58337 2.65168,-0.291685 5.86022,-0.291685 z"
           inkscape:connector-curvature="0" />
        <path
           id="path1187"
           style="font-style:normal;font-variant:normal;font-weight:normal;font-stretch:normal;font-size:26.5168438px;font-family:'Nanum Brush Script';-inkscape-font-specification:'Nanum Brush Script';fill:#8b8455;fill-opacity:1;stroke-width:1.34384632"
           d="m -213.32641,44.983802 q -0.053,0.106067 -0.0795,0.159101 -0.0265,0.02652 -0.0796,0.132584 -0.053,0.132584 -0.18562,0.185618 -0.10607,0.05303 -0.18562,0.132584 -0.13258,0.132584 -0.23865,0.291686 -0.10607,0.159101 -0.26517,0.185617 -0.55685,0.106068 -1.56449,0.344719 -0.98113,0.212135 -2.06832,0.477304 -0.10607,0.875055 -0.23865,1.723594 -0.13258,0.848539 -0.29168,1.617528 -0.15911,0.742472 -0.34472,1.378876 -0.1591,0.609887 -0.31821,1.034157 -0.18561,0.450786 -0.34471,0.848539 -0.13259,0.397752 -0.26517,0.689438 -0.53034,1.166741 -0.74248,1.166741 0.053,-0.397753 0.0265,-0.636404 0,-0.238652 0,-0.689438 0,-0.212135 -0.0795,-0.609888 -0.053,-0.397752 -0.0265,-0.609887 0.0265,-0.42427 0.13259,-1.034157 0.10607,-0.609888 0.23865,-1.325842 0.1591,-0.742472 0.3182,-1.537977 0.18562,-0.822022 0.34472,-1.617528 -0.68944,0.185618 -1.19326,0.344719 -0.50382,0.132584 -0.68943,0.212135 -0.21214,0.106067 -0.50382,0.02652 -0.29169,-0.07955 -0.50382,-0.106068 -0.23866,-0.05303 -0.39776,0 -0.1591,0.02652 -0.37123,-0.07955 0.13258,-0.291685 0.45078,-0.50382 0.34472,-0.238652 0.74247,-0.450786 0.68944,-0.318203 1.37888,-0.583371 0.68944,-0.265168 1.40539,-0.477303 0.21214,-1.193258 0.26517,-2.121348 0.053,-0.928089 -0.18562,-1.272808 -0.84854,0 -1.61752,0.159101 -0.76899,0.132584 -1.53798,0.291685 -0.76899,0.159101 -1.53798,0.318202 -0.76899,0.132584 -1.61752,0.132584 0,-0.185617 0.1591,-0.318202 0.18561,-0.132584 0.34472,-0.344719 0.0796,-0.106067 0.1591,-0.238651 0.10606,-0.132584 0.23865,-0.185618 0.6364,-0.265169 1.27281,-0.530337 0.66292,-0.265168 1.32584,-0.477303 0.68944,-0.212135 1.35236,-0.344719 0.68944,-0.132584 1.35236,-0.106068 0.34472,0 0.58337,0.07955 0.21213,0.05303 0.34472,0.265168 0.1591,0.212135 0.26516,0.371236 0.13259,0.212135 0.21214,0.371236 0.0796,0.159101 0.053,0.477303 0.053,0.689438 0.0265,1.484943 0,0.795506 -0.053,1.617528 1.1137,-0.238652 2.28044,-0.318202 1.16675,-0.159101 2.25394,0 z"
           inkscape:connector-curvature="0" />
        <path
           id="path1189"
           style="font-style:normal;font-variant:normal;font-weight:normal;font-stretch:normal;font-size:26.5168438px;font-family:'Nanum Brush Script';-inkscape-font-specification:'Nanum Brush Script';fill:#8b8455;fill-opacity:1;stroke-width:1.34384632"
           d="m -206.62552,40.741107 q 0.1591,1.00764 -0.0796,1.829662 -0.21214,0.822022 -0.66292,1.537977 -0.45079,0.715955 -1.03416,1.378876 -0.55685,0.636404 -1.06067,1.299325 0.26516,-0.07955 0.66292,-0.212135 0.42427,-0.159101 0.87505,-0.291685 0.47731,-0.159101 0.98113,-0.265168 0.50382,-0.106068 0.9546,-0.132584 0.23865,-0.02652 0.47731,0.07955 0.26516,0.106067 0.4773,0.159101 0.21213,0.05303 0.34472,-0.02652 0.1591,-0.07955 0.3182,0.05303 0.21213,0.848539 0.0796,1.564494 -0.13258,0.822022 -0.82202,2.041797 -0.68944,1.193258 -1.96225,2.943369 -0.13258,0.344719 -0.18562,0.556854 -0.0265,0.185618 -0.13258,0.212135 -0.0796,0.05303 -0.13258,-0.106068 -0.34472,-0.848539 -0.18562,-1.59101 0.1591,-0.768989 0.50382,-1.458427 0.37123,-0.715954 0.76899,-1.378875 0.42427,-0.662922 0.58337,-1.352359 0.053,-0.106068 -0.0265,-0.159102 -0.0796,-0.05303 -0.21214,-0.05303 -0.10606,0 -0.26516,0.05303 -0.1591,0.02652 -0.26517,0.05303 -0.39775,0.07955 -0.92809,0.291685 -0.53034,0.212135 -1.08719,0.450787 -0.53034,0.212135 -1.03416,0.450786 -0.50382,0.212135 -0.84854,0.344719 -0.13258,-0.212135 -0.10607,-0.291685 0.053,-0.07955 0.13259,-0.318202 0.053,-0.238652 0.0265,-0.477303 0,-0.238652 0.10606,-0.477304 0.45079,-1.113707 1.21978,-2.227415 0.76899,-1.113707 1.61753,-2.227414 0,-0.344719 -0.21214,-0.742472 -0.21213,-0.42427 -0.55685,-0.42427 -0.76899,0 -1.8827,0.371236 -1.11371,0.344719 -2.17438,0.715955 -0.13258,0.02652 -0.053,-0.132584 0.10606,-0.185618 0.21213,-0.397753 0.0796,-0.159101 0.0796,-0.371236 0.0265,-0.212134 0.1591,-0.344719 0.26517,-0.291685 0.60989,-0.50382 0.37124,-0.238651 0.74247,-0.397752 0.37124,-0.185618 0.71596,-0.291686 0.34472,-0.106067 0.60988,-0.159101 0.47731,-0.106067 0.71596,0.05303 0.26517,0.132584 0.6364,0.132584 0.42427,0 0.82202,0.02652 0.42427,0 0.47731,0.212135 z"
           inkscape:connector-curvature="0" />
        <path
           id="path1191"
           style="font-style:normal;font-variant:normal;font-weight:normal;font-stretch:normal;font-size:26.5168438px;font-family:'Nanum Brush Script';-inkscape-font-specification:'Nanum Brush Script';fill:#8b8455;fill-opacity:1;stroke-width:1.34384632"
           d="m -196.67549,39.229647 q 0,0.05303 -0.1591,0.212134 -0.13258,0.159102 -0.21214,0.371236 -0.053,0.212135 -0.1591,0.450787 -0.0796,0.212134 -0.21213,0.291685 -0.4773,0.291685 -0.87506,0.768988 -0.37123,0.450787 -0.66292,1.00764 -0.26517,0.556854 -0.4773,1.166742 -0.18562,0.58337 -0.29169,1.113707 0.68944,0 1.5645,0.07955 0.87505,0.07955 1.59101,0.371235 0.23865,0.07955 0.45078,0.265169 0.23866,0.159101 0.37124,0.371236 0.23865,0.291685 0.21213,0.795505 -0.0265,0.50382 -0.0265,0.954606 0,0.609888 -0.10607,1.087191 -0.10607,0.477303 -0.45079,1.034157 -0.68943,1.140224 -1.67056,2.121347 -0.9546,0.954607 -2.14786,1.325843 -0.26517,0.07955 -0.39775,0 -0.10607,-0.07955 -0.37124,-0.212135 -0.1591,-0.07955 -0.34472,-0.106068 -0.1591,-0.05303 -0.23865,-0.185618 -0.10607,-0.212134 -0.26517,-0.344718 -0.13258,-0.159102 -0.18562,-0.371236 -0.21213,-0.715955 -0.29168,-1.458427 -0.053,-0.768988 -0.053,-1.458426 0.0265,-0.689438 0.10607,-1.219775 0.0795,-0.556854 0.1591,-0.795505 0,-0.822022 0.29169,-2.01528 0.3182,-1.219775 0.92809,-2.43955 0.60989,-1.219775 1.48494,-2.227415 0.90157,-1.00764 2.09483,-1.431909 0.1591,-0.02652 0.23865,0.05303 0.10607,0.07955 0.10607,0.42427 z m 0,8.06112 q -0.1591,-0.159101 -0.53034,-0.450786 -0.34472,-0.318202 -0.7955,-0.609887 -0.45079,-0.291686 -0.95461,-0.503821 -0.50382,-0.212134 -0.9546,-0.212134 -0.0796,0.450786 -0.18562,1.246291 -0.0796,0.795506 -0.1591,1.697078 -0.053,0.875056 -0.10607,1.697078 -0.0265,0.795506 0,1.246292 0.34472,-0.106067 0.98112,-0.50382 0.63641,-0.424269 1.27281,-0.92809 0.63641,-0.530336 1.08719,-1.034156 0.45079,-0.530337 0.42427,-0.822023 -0.0265,-0.132584 0,-0.397752 0.053,-0.291686 -0.0795,-0.42427 z"
           inkscape:connector-curvature="0" />
        <path
           id="path1193"
           style="font-style:normal;font-variant:normal;font-weight:normal;font-stretch:normal;font-size:26.5168438px;font-family:'Nanum Brush Script';-inkscape-font-specification:'Nanum Brush Script';fill:#8b8455;fill-opacity:1;stroke-width:1.34384632"
           d="m -190.46061,39.945602 q 0.47731,3.128987 0.60989,6.178424 0.13258,3.02292 0.29169,5.992807 0,0.212135 -0.053,0.318202 -0.0265,0.106067 -0.10607,0.238652 -0.0795,0.132584 -0.1591,0.159101 -0.0796,0.02652 -0.13258,0.238651 -0.053,0.132584 -0.13259,0.291685 -0.0795,0.159102 -0.18561,0.291686 -0.0795,0.132584 -0.18562,0.212135 -0.0795,0.07955 -0.10607,0.05303 -0.45078,-1.219775 -0.71595,-2.704718 -0.23865,-1.484943 -0.34472,-3.102471 -0.0795,-1.617527 -0.053,-3.261571 0.0265,-1.670562 0.10607,-3.261572 0.0265,-0.291685 0.23865,-0.397753 0.23865,-0.132584 0.26517,-0.424269 0.18562,-0.185618 0.26517,-0.318202 0.0796,-0.132585 0.26517,-0.185618 0.053,-0.05303 0.053,-0.132585 0.0265,-0.07955 0.0795,-0.185617 z"
           inkscape:connector-curvature="0" />
      </g>
      <g
         id="text1136"
         style="font-style:normal;font-weight:normal;font-size:18.10793495px;line-height:1.25;font-family:sans-serif;letter-spacing:0px;word-spacing:0px;fill:#3a4d75;fill-opacity:1;stroke:none;stroke-width:1.34384632"
         transform="matrix(0.19662347,-0.03102171,0.0311421,0.19586337,-209.35361,167.07339)"
         aria-label="MiLK">
        <path
           id="path1154"
           style="font-style:normal;font-variant:normal;font-weight:normal;font-stretch:normal;font-size:24.14391518px;font-family:'Nanum Brush Script';-inkscape-font-specification:'Nanum Brush Script';fill:#3a4d75;fill-opacity:1;stroke-width:1.34384632"
           d="m -203.57716,154.13905 q -0.14486,-0.14486 -0.19315,-0.28973 -0.0483,-0.169 -0.19315,-0.43459 -0.16901,-0.26558 -0.14487,-0.55531 0.0241,-0.31387 -0.0724,-0.70017 -0.0483,-0.2173 -0.19315,-0.45874 -0.14486,-0.24143 -0.14486,-0.43459 -0.0483,-1.54521 -0.0966,-2.9697 -0.0483,-1.44863 -0.16901,-3.18699 -0.36215,0.36215 -0.7726,0.84503 -0.3863,0.45874 -0.74846,0.96576 -0.36216,0.50702 -0.67603,1.01404 -0.31387,0.48288 -0.53117,0.91747 -0.14486,0.28973 -0.36216,0.48288 -0.19315,0.16901 -0.3863,0.31387 -0.12072,0.0966 -0.19315,0.19315 -0.0483,0.0966 -0.16901,0.0483 -0.7726,-0.24144 -1.3762,-0.89332 -0.6036,-0.65189 -1.15891,-1.32792 -0.55531,-0.67603 -1.13476,-1.20719 -0.57946,-0.55531 -1.27963,-0.6036 -0.0241,0.70017 -0.0241,1.54521 0.0241,0.84503 0.0483,1.73836 0.0241,0.89332 0.0483,1.78665 0.0241,0.86918 0.0724,1.61764 v 1.18305 q -0.26558,-0.31387 -0.36216,-0.57945 -0.0966,-0.28973 -0.24144,-0.65189 -0.0966,-0.19315 -0.26558,-0.45873 -0.16901,-0.28973 -0.21729,-0.50702 -0.24144,-0.89333 -0.33802,-1.95566 -0.0966,-1.08648 -0.0966,-2.12466 0,-1.06234 0.0483,-2.00395 0.0483,-0.94161 0.0966,-1.56935 0.0241,-0.12072 0.0724,-0.19316 0.0724,-0.0966 0.19315,-0.0966 0.0966,0 0.14487,-0.0483 0.0483,-0.0483 0.14486,-0.0724 0.16901,0 0.21729,0.19315 0.0724,0.19315 0.26559,0.53117 0.12072,0.26558 0.14486,0.33801 0.0241,0.0724 0.0724,0.28973 0.67603,0.0483 1.30377,0.43459 0.65189,0.3863 1.18306,0.94161 0.55531,0.55531 0.9899,1.15891 0.45873,0.6036 0.74846,1.03819 0.43459,-0.70018 0.94161,-1.3762 0.53117,-0.67603 1.08648,-1.27963 0.55531,-0.62774 1.08647,-1.13477 0.55531,-0.53116 0.9899,-0.94161 l 0.31387,-0.19315 q 0,-0.0966 0.24144,-0.26558 0.0483,-0.0483 -0.0483,-0.12072 -0.0724,-0.0724 -0.0242,-0.0966 0.0966,-0.0241 0.19315,0 0.0966,0 0.14487,0.0724 0.41044,0.62774 0.62774,1.27963 0.21729,0.62774 0.33801,1.30377 0.0966,1.56936 0.12072,3.06628 0.0483,1.49692 -0.0241,2.92141 -0.0483,0.65189 -0.0966,1.27963 -0.0483,0.62774 -0.14486,1.23134 z"
           inkscape:connector-curvature="0" />
        <path
           id="path1156"
           style="font-style:normal;font-variant:normal;font-weight:normal;font-stretch:normal;font-size:24.14391518px;font-family:'Nanum Brush Script';-inkscape-font-specification:'Nanum Brush Script';fill:#3a4d75;fill-opacity:1;stroke-width:1.34384632"
           d="m -198.40282,145.37481 q 0.19315,0.19315 0.14487,0.31387 -0.0242,0.12072 -0.14487,0.0966 -0.31387,0 -0.70017,0.0724 -0.36216,0.0483 -0.79675,0.0966 -0.41045,0.0241 -0.86918,0 -0.45873,-0.0241 -0.91747,-0.169 -0.19315,-0.19316 0,-0.33802 0.2173,-0.16901 0.33802,-0.48288 0.0724,-0.21729 0.19315,-0.28972 0.14486,-0.0966 0.28972,-0.12072 0.26559,0 0.65189,0.12072 0.41045,0.0966 0.67603,0.12072 0.41045,0.0483 0.67603,0.14486 0.26558,0.0724 0.45873,0.43459 z m -0.50702,3.28357 q 0.14486,0.55531 0.2173,1.01405 0.0966,0.45873 0.12072,0.89332 0.0483,0.41045 0.0483,0.84504 0.0241,0.43459 0.0241,0.94161 0,0.0966 -0.12072,0.2173 -0.0966,0.0966 -0.14487,0.21729 -0.0966,0.2173 -0.169,0.26558 -0.0483,0.0483 -0.19315,0.12072 -0.33802,0.14487 -0.6036,0.41045 -0.31387,-0.45873 -0.43459,-1.06233 -0.0966,-0.6036 -0.14487,-1.25549 -0.0241,-0.65188 -0.0724,-1.30377 -0.0241,-0.67603 -0.16901,-1.30377 -0.0724,-0.33801 0.0483,-0.45873 0.12072,-0.12072 0.26559,-0.16901 0.169,-0.0483 0.36215,0.0724 0.2173,0.12072 0.41045,0.24144 0.16901,0.0966 0.31387,0.12072 0.16901,0 0.24144,0.19315 z"
           inkscape:connector-curvature="0" />
        <path
           id="path1158"
           style="font-style:normal;font-variant:normal;font-weight:normal;font-stretch:normal;font-size:24.14391518px;font-family:'Nanum Brush Script';-inkscape-font-specification:'Nanum Brush Script';fill:#3a4d75;fill-opacity:1;stroke-width:1.34384632"
           d="m -194.34815,152.49726 q 1.18305,-0.14486 2.22124,-0.33801 1.06233,-0.19315 2.00395,-0.43459 0.94161,-0.24144 1.81079,-0.53117 0.89333,-0.31387 1.76251,-0.65188 0.36216,-0.16901 0.65188,-0.16901 0.19315,0 0.16901,0.16901 0.0483,0.12072 0.0966,0.14486 0.0483,0 0.0483,0.28973 0,0.26558 -0.14486,0.50702 -0.14486,0.24144 -0.26558,0.3863 -0.2173,0.24144 -0.77261,0.53117 -0.55531,0.26558 -1.32791,0.55531 -0.77261,0.28973 -1.64179,0.57945 -0.86918,0.28973 -1.71422,0.53117 -0.82089,0.24144 -1.52106,0.43459 -0.67603,0.16901 -1.06234,0.24144 -0.21729,0.0483 -0.41044,-0.12072 -0.19315,-0.19315 -0.31387,-0.24144 -0.33802,-0.16901 -0.38631,-0.43459 -0.0241,-0.26558 -0.19315,-0.65189 -0.19315,-0.36216 -0.26558,-0.74846 -0.0724,-0.41044 -0.0966,-0.79675 -0.0483,-0.9899 0,-1.9798 0.0483,-0.9899 0.0966,-2.02809 0.0483,-1.06233 0.0483,-2.17295 0,-1.13476 -0.12072,-2.41439 0.0483,-0.12072 0.169,-0.0241 0.14487,0.0966 0.28973,0.14487 0.12072,0.0483 0.2173,0.0966 0.0966,0.0242 0.169,0.14487 0.24144,0.43459 0.36216,1.52106 0.14487,1.06234 0.16901,2.39025 0.0483,1.32792 0.0241,2.70412 -0.0241,1.35206 -0.0724,2.3661 z"
           inkscape:connector-curvature="0" />
        <path
           id="path1160"
           style="font-style:normal;font-variant:normal;font-weight:normal;font-stretch:normal;font-size:24.14391518px;font-family:'Nanum Brush Script';-inkscape-font-specification:'Nanum Brush Script';fill:#3a4d75;fill-opacity:1;stroke-width:1.34384632"
           d="m -182.61421,145.44724 q 0,0.6036 0.16901,1.35206 0.19315,0.72432 0.19315,1.5935 0,1.23134 0.0483,2.46268 0.0483,1.23134 0.36216,2.46268 0.31387,0.31387 0.36216,0.62774 0.0483,0.28973 0.0483,0.6036 0,0.19315 -0.16901,0.60359 -0.14486,0.41045 -0.24144,0.62775 -0.91747,-1.37621 -1.35206,-3.01799 -0.41045,-1.66593 -0.50702,-3.38015 -0.0724,-1.73836 0.12072,-3.45258 0.19315,-1.73836 0.50702,-3.28357 0.14486,0.14486 0.19315,0.3863 0.0483,0.21729 0.0966,0.48288 0.0483,0.12072 0.0724,0.36216 0.0483,0.24144 0.0483,0.53116 0.0241,0.26559 0.0241,0.55531 0.0241,0.26559 0.0241,0.48288 z m 7.84678,-0.21729 q -0.0483,0.14486 -0.16901,0.26558 -0.0966,0.0966 -0.24144,0.16901 -0.14486,0.0483 -0.28973,0.0724 -0.12072,0.0241 -0.169,0.0241 -0.31388,0 -0.62775,0.26558 -0.28972,0.24144 -0.60359,0.55531 l -2.96971,3.4043 q 0.57946,0.26558 1.44864,0.60359 0.86918,0.33802 1.81079,0.79675 0.94162,0.45874 1.83494,1.03819 0.89333,0.57946 1.52107,1.30377 0.45873,0.31387 0.57945,0.48288 0.14486,0.16901 0.14486,0.28973 0,0.12072 -0.0241,0.21729 -0.0241,0.0966 0.12072,0.24144 0.0483,0.2173 -0.0483,0.33802 -0.0724,0.12072 -0.0483,0.19315 0.0241,0.0966 -0.0966,0.0483 -0.0966,-0.0483 -0.2173,-0.16901 -0.7726,-0.77261 -1.69007,-1.32792 -0.91747,-0.55531 -1.95566,-0.9899 -1.01404,-0.45873 -2.17295,-0.82089 -1.13476,-0.36216 -2.34196,-0.74846 -0.55531,-0.12072 -0.67603,-0.45873 -0.0966,-0.2173 -0.0241,-0.4346 0.0966,-0.24143 0.169,-0.41044 0.16901,-0.33802 0.2173,-0.67603 0.0483,-0.33802 0.26558,-0.70018 0.6036,-0.60359 1.23134,-1.3762 0.65189,-0.79675 1.32792,-1.44863 0.70017,-0.65189 1.47278,-1.03819 0.79675,-0.3863 1.71421,-0.24144 0.38631,0.0241 0.50703,0.21729 0.14486,0.19316 0,0.31388 z"
           inkscape:connector-curvature="0" />
      </g>
      <g
         id="text1140"
         style="font-style:normal;font-weight:normal;font-size:18.10793495px;line-height:1.25;font-family:sans-serif;letter-spacing:0px;word-spacing:0px;fill:#8b8455;fill-opacity:1;stroke:none;stroke-width:1.34384632"
         transform="matrix(0.19195098,-0.05257325,0.05277728,0.19120894,-209.35361,167.07339)"
         aria-label="Lou">
        <path
           id="path1172"
           style="font-style:normal;font-variant:normal;font-weight:normal;font-stretch:normal;font-size:24.14391518px;font-family:'Nanum Brush Script';-inkscape-font-specification:'Nanum Brush Script';fill:#8b8455;fill-opacity:1;stroke-width:1.34384632"
           d="m -243.99385,38.934947 q 1.18306,-0.144863 2.22124,-0.338015 1.06234,-0.193151 2.00395,-0.43459 0.94161,-0.241439 1.81079,-0.531166 0.89333,-0.313871 1.76251,-0.651886 0.36216,-0.169007 0.65188,-0.169007 0.19316,0 0.16901,0.169007 0.0483,0.12072 0.0966,0.144863 0.0483,0 0.0483,0.289727 0,0.265584 -0.14486,0.507023 -0.14486,0.241439 -0.26558,0.386302 -0.2173,0.241439 -0.77261,0.531166 -0.55531,0.265583 -1.32791,0.55531 -0.77261,0.289727 -1.64179,0.579454 -0.86918,0.289727 -1.71422,0.531167 -0.82089,0.241439 -1.52106,0.43459 -0.67603,0.169007 -1.06234,0.241439 -0.21729,0.04829 -0.41044,-0.120719 -0.19315,-0.193152 -0.31387,-0.24144 -0.33802,-0.169007 -0.38631,-0.43459 -0.0241,-0.265583 -0.19315,-0.651886 -0.19315,-0.362158 -0.26558,-0.748461 -0.0724,-0.410447 -0.0966,-0.796749 -0.0483,-0.989901 0,-1.979801 0.0483,-0.989901 0.0966,-2.028089 0.0483,-1.062332 0.0483,-2.172953 0,-1.134764 -0.12072,-2.414391 0.0483,-0.12072 0.16901,-0.02414 0.14486,0.09658 0.28972,0.144863 0.12072,0.04829 0.2173,0.09658 0.0966,0.02414 0.16901,0.144864 0.24143,0.43459 0.36215,1.521066 0.14487,1.062333 0.16901,2.390248 0.0483,1.327915 0.0241,2.704118 -0.0241,1.35206 -0.0724,2.366104 z"
           inkscape:connector-curvature="0" />
        <path
           id="path1174"
           style="font-style:normal;font-variant:normal;font-weight:normal;font-stretch:normal;font-size:24.14391518px;font-family:'Nanum Brush Script';-inkscape-font-specification:'Nanum Brush Script';fill:#8b8455;fill-opacity:1;stroke-width:1.34384632"
           d="m -230.73884,32.778249 -0.41044,0.410446 q 0.19315,-0.02414 0.57945,-0.09658 0.41045,-0.09658 0.79675,-0.09658 0.28973,0.04829 0.48288,0.193151 0.19315,0.144864 0.24144,0.55531 0.0966,0.579454 0.28972,1.183052 0.2173,0.579454 0.31388,1.158908 0.12071,0.579454 0,1.11062 -0.12072,0.507022 -0.65189,0.917469 -0.55531,0.845037 -1.23134,1.424491 -0.65189,0.55531 -1.3762,0.651886 -0.48288,0.07243 -1.06234,-0.12072 -0.57945,-0.217295 -0.84503,-0.724317 -0.0724,0.04829 -0.12072,0.02414 -0.0483,-0.04829 -0.0966,-0.09658 -0.0483,-0.04829 -0.0966,-0.02414 -0.0242,0.02414 -0.0483,-0.02414 -0.0241,-0.07243 -0.0241,-0.193151 v -0.04829 -0.04829 q 0.0241,-0.845037 0.14487,-1.690074 0.14486,-0.869181 0.41044,-1.66593 0.28973,-0.820893 0.72432,-1.521067 0.45874,-0.724317 1.15891,-1.279627 0.24144,-0.144864 0.53117,-0.09658 0.0483,0 0.12072,0 0.0724,0 0.169,0.09658 z m -0.82089,1.641786 q -0.14486,-0.02414 -0.16901,-0.09658 -0.0241,-0.07243 0,-0.169007 0.0483,-0.12072 0.0966,-0.265583 0.0724,-0.144864 0.0724,-0.289727 -0.50702,0.458734 -0.79675,1.11062 -0.26558,0.651886 -0.3863,1.352059 -0.12072,0.67603 -0.12072,1.327916 0.0241,0.651885 0.0724,1.134764 0.0483,0.410446 0.16901,0.676029 0.12072,0.241439 0.36216,0.289727 0.26558,0.07243 0.70017,-0.144863 0.62774,-0.313871 1.01404,-0.869181 0.38631,-0.55531 0.62775,-1.183052 0.0966,-0.338015 0.14486,-0.796749 0.0724,-0.482879 -0.0241,-0.893325 -0.12072,-0.55531 -0.62775,-0.796749 -0.48287,-0.265583 -1.13476,-0.386303 z"
           inkscape:connector-curvature="0" />
        <path
           id="path1176"
           style="font-style:normal;font-variant:normal;font-weight:normal;font-stretch:normal;font-size:24.14391518px;font-family:'Nanum Brush Script';-inkscape-font-specification:'Nanum Brush Script';fill:#8b8455;fill-opacity:1;stroke-width:1.34384632"
           d="m -220.66932,33.261127 q 0,1.690074 0.0241,3.138709 0.0483,1.448635 0.28973,2.848982 0.0241,0.144863 -0.0724,0.313871 -0.0966,0.169007 -0.19315,0.289727 -0.14486,0.169007 -0.26558,0.338015 -0.12072,0.144863 -0.24144,0.193151 -0.24144,0.12072 -0.28973,0.04829 -0.0483,-0.07243 -0.0724,-0.193151 -0.0966,-0.458735 -0.26558,-1.23134 -0.14487,-0.796749 -0.19315,-1.593499 -0.28973,0.482879 -0.65189,0.989901 -0.33801,0.482878 -0.74846,0.893325 -0.3863,0.410446 -0.79675,0.748461 -0.41045,0.313871 -0.79675,0.458735 -0.16901,0.07243 -0.24144,0.02414 -0.0483,-0.04829 -0.19315,-0.09657 -0.21729,-0.09658 -0.43459,-0.169008 -0.19315,-0.09658 -0.31387,-0.265583 -0.26558,-0.458734 -0.43459,-0.893325 -0.26558,-0.700173 -0.33802,-1.472778 -0.0483,-0.772606 0,-1.545211 0.0483,-0.772605 0.16901,-1.496923 0.12072,-0.724317 0.24144,-1.327915 0.0241,-0.12072 0.12072,-0.144863 0.0966,-0.04829 0.12072,-0.169008 0.0483,-0.193151 0.16901,-0.265583 0.14486,-0.07243 0.28972,-0.12072 0.19316,-0.04829 0.28973,-0.07243 0.12072,-0.04829 0.31387,-0.04829 -0.21729,0.700173 -0.33801,1.593498 -0.12072,0.893325 -0.12072,1.834938 0.0241,0.917469 0.16901,1.78665 0.169,0.869181 0.48287,1.521066 0.45874,-0.313871 0.89333,-0.772605 0.45873,-0.458734 0.84504,-0.941613 0.3863,-0.507022 0.67603,-0.965756 0.31387,-0.458735 0.45873,-0.772606 0.14486,-0.482878 0.16901,-1.086476 0.0483,-0.627742 0.0483,-1.11062 -0.0241,-0.217295 0.0241,-0.338015 0.0724,-0.120719 0.14486,-0.265583 0.0483,-0.07243 0.0483,-0.144863 0.0241,-0.07243 0.0966,-0.12072 0.0483,-0.04829 0.0966,-0.120719 0.0724,-0.09658 0.14486,-0.09658 0.14487,0 0.19316,0.144863 0.0483,0.144864 0.14486,0.217296 0.12072,0.120719 0.21729,0.193151 0.12072,0.04829 0.12072,0.265583 z"
           inkscape:connector-curvature="0" />
      </g>
      <g
         style="stroke:#8b8455;stroke-width:0.66178572;stroke-opacity:1"
         transform="matrix(1.5127672,0,0,1.5371495,76.364387,-99.88001)"
         id="g1284">
        <path
           style="fill:none;stroke:#8b8455;stroke-width:0.17537321;stroke-linecap:round;stroke-linejoin:miter;stroke-miterlimit:4;stroke-dasharray:none;stroke-opacity:1"
           d="m -219.62779,191.24922 c 2.53438,-1.17826 5.5916,-2.55231 8.79976,-2.75214"
           id="path1278"
           inkscape:connector-curvature="0"
           sodipodi:nodetypes="cc" />
        <path
           sodipodi:nodetypes="cc"
           inkscape:connector-curvature="0"
           id="path1280"
           d="m -220.00577,191.79269 c 2.58183,-1.02641 5.25976,-2.16844 8.36273,-2.70489"
           style="fill:none;stroke:#8b8455;stroke-width:0.17537321;stroke-linecap:round;stroke-linejoin:miter;stroke-miterlimit:4;stroke-dasharray:none;stroke-opacity:1" />
      </g>
    </g>
  </g>
</svg>
