<?xml version="1.0" encoding="UTF-8" standalone="no"?>
<!-- Created with Inkscape (http://www.inkscape.org/) -->

<svg
   xmlns:dc="http://purl.org/dc/elements/1.1/"
   xmlns:cc="http://creativecommons.org/ns#"
   xmlns:rdf="http://www.w3.org/1999/02/22-rdf-syntax-ns#"
   xmlns:svg="http://www.w3.org/2000/svg"
   xmlns="http://www.w3.org/2000/svg"
   xmlns:xlink="http://www.w3.org/1999/xlink"
   xmlns:sodipodi="http://sodipodi.sourceforge.net/DTD/sodipodi-0.dtd"
   xmlns:inkscape="http://www.inkscape.org/namespaces/inkscape"
   width="128"
   height="128"
   viewBox="0 0 33.866666 33.866668"
   version="1.1"
   id="svg853"
   inkscape:version="0.92.2 5c3e80d, 2017-08-06"
   sodipodi:docname="drawing.svg">
  <defs
     id="defs847">
    <linearGradient
       inkscape:collect="always"
       id="linearGradient1635">
      <stop
         style="stop-color:#010006;stop-opacity:0.98823529"
         offset="0"
         id="stop1631" />
      <stop
         style="stop-color:#1c008e;stop-opacity:0.84313726"
         offset="1"
         id="stop1633" />
    </linearGradient>
    <linearGradient
       inkscape:collect="always"
       xlink:href="#linearGradient1635"
       id="linearGradient1637"
       x1="6.918437"
       y1="290.15332"
       x2="22.526039"
       y2="268.24863"
       gradientUnits="userSpaceOnUse" />
  </defs>
  <sodipodi:namedview
     id="base"
     pagecolor="#ffffff"
     bordercolor="#666666"
     borderopacity="1.0"
     inkscape:pageopacity="0.0"
     inkscape:pageshadow="2"
     inkscape:zoom="2.8"
     inkscape:cx="37.639342"
     inkscape:cy="33.112494"
     inkscape:document-units="mm"
     inkscape:current-layer="layer1"
     showgrid="false"
     units="px"
     inkscape:window-width="1600"
     inkscape:window-height="814"
     inkscape:window-x="0"
     inkscape:window-y="0"
     inkscape:window-maximized="1" />
  <metadata
     id="metadata850">
    <rdf:RDF>
      <cc:Work
         rdf:about="">
        <dc:format>image/svg+xml</dc:format>
        <dc:type
           rdf:resource="http://purl.org/dc/dcmitype/StillImage" />
        <dc:title></dc:title>
      </cc:Work>
    </rdf:RDF>
  </metadata>
  <g
     inkscape:label="Layer 1"
     inkscape:groupmode="layer"
     id="layer1"
     transform="translate(0,-263.13332)">
    <g
       id="g1710"
       transform="matrix(0.81128347,0,0,0.81128347,8.7341953,55.710102)"
       style="stroke-width:1.23261476">
      <g
         transform="translate(0,0.52916663)"
         style="opacity:0.25;fill:#000000;stroke-width:1.5193392"
         id="g1680">
        <path
           id="path1654"
           d="m 7.4779968,274.1394 c -1.0230396,0.127 -2.0327154,0.36984 -3.0054287,0.71087 -1.008038,0.36895 -2.0141916,0.8552 -2.7589175,1.64818 -0.054968,0.0935 -0.3372452,0.30297 -0.2278796,0.354 1.0953166,-0.29617 2.6337923,-0.72437 3.6733018,-1.01901 0.2817097,-0.0798 0.4950829,-0.14097 0.7409667,-0.21068 0.4501617,-0.1224 0.8982886,-0.25226 1.3457785,-0.3841 l 0.318171,-0.0989 c 0.1001339,-0.11765 0.042743,-0.47023 0.057331,-0.67504 -0.030511,-0.10814 0.061624,-0.39237 -0.1433204,-0.32533 z"
           style="fill:#000000;fill-opacity:1;stroke-width:0.32612935"
           inkscape:connector-curvature="0" />
        <path
           id="path1656"
           d="m 11.548009,266.87177 c -0.239208,0.003 -0.495132,0.0244 -0.642342,0.0494 -0.9266435,0.1573 -1.665618,0.49838 -2.0505442,0.96351 -0.3014207,0.36423 -0.386368,0.81976 -0.2347008,1.25997 0.020033,0.0585 0.034466,0.11375 0.024707,0.12353 -0.00976,0.01 -0.9187158,0.10717 -2.0134886,0.22235 -0.8936627,0.094 -1.3834021,0.16133 -1.6429066,0.19764 -0.035105,0.005 -0.2068146,0.0218 -0.2223482,0.0247 -0.010317,0.002 -0.1472403,0.0113 -0.1482324,0.0124 -0.00235,0.002 0.011939,0.0394 0.012372,0.0494 8.071e-4,0.0144 -0.00264,0.0221 0,0.0247 0.00996,0.0816 0.048672,0.25714 0.1482309,0.60528 0.1761986,0.61587 0.2125256,0.74116 0.185291,0.74116 -0.00594,0 -0.097924,-0.0643 -0.1976429,-0.13587 -0.4120149,-0.29556 -0.7850221,-0.43833 -1.1858583,-0.45705 -0.4425699,-0.0207 -0.7226014,0.0997 -1.0376245,0.40764 -0.00675,0.007 -0.017875,0.006 -0.024707,0.0124 -0.1580278,0.15824 -0.2175778,0.23185 -0.32117,0.44469 -0.1509408,0.31013 -0.2264201,0.58554 -0.247055,0.95116 -0.024112,0.42708 0.06993,0.96742 0.2223497,1.32174 l 0.049406,0.12352 h 0.2099956 c 0.5466941,0 0.9766846,-0.69964 1.4329007,-0.91406 0.3179685,-0.0785 0.9025211,-0.0783 1.2970306,0 1.421596,0.28201 2.4871867,1.24702 2.4334798,2.21113 -0.014309,0.25709 -0.1055801,0.42565 -0.333522,0.65469 -0.1900071,0.19093 -0.438239,0.36019 -0.864689,0.59293 -0.1498636,0.0818 -0.3991859,0.22302 -0.5558701,0.30882 -0.156679,0.0858 -0.380202,0.22104 -0.4941077,0.29647 -0.225684,0.14945 -0.5064603,0.39761 -0.5064603,0.45704 0,0.0512 0.140066,0.0493 0.7411619,-0.0124 0.2578094,-0.0265 0.4695271,-0.0671 0.6917499,-0.0988 1.0778662,-0.15386 1.7971626,-0.36259 2.3593617,-0.7288 0.534362,-0.34809 0.9362006,-0.90076 1.0870372,-1.48233 0.024472,-0.0944 0.047021,-0.16058 0.061763,-0.16058 0.014742,0 0.1122223,0.0503 0.2099956,0.11117 0.634565,0.39491 1.156378,0.53719 1.593496,0.4447 0.390677,-0.0827 0.766697,-0.31789 1.457617,-0.9141 0.183215,-0.1581 0.342337,-0.29646 0.358228,-0.29646 0.01589,0 0.159845,0.31513 0.32117,0.69175 0.161325,0.37662 0.312493,0.70362 0.333522,0.72881 0.03703,0.0443 0.06724,0.0488 0.654692,-0.0494 0.333799,-0.0558 0.616547,-0.12318 0.629987,-0.13588 0.03431,-0.0324 -0.09336,-0.46477 -0.209995,-0.74116 -0.187935,-0.44537 -0.512188,-0.84739 -0.901746,-1.09939 -0.233483,-0.15104 -0.584289,-0.31545 -1.148799,-0.53116 -0.614583,-0.23485 -0.932235,-0.38582 -1.222916,-0.58058 -0.287963,-0.19294 -0.566544,-0.44866 -0.531165,-0.48176 0.01363,-0.0128 0.113351,-0.0487 0.222348,-0.0865 0.868166,-0.30126 1.462753,-0.87255 1.852902,-1.79114 0.160539,-0.37798 0.291037,-0.86109 0.50646,-1.81585 0.09774,-0.43317 0.224341,-0.92233 0.27176,-1.08703 0.04742,-0.16471 0.08134,-0.31471 0.07412,-0.33353 -8.07e-4,-0.002 -0.02902,0.0106 -0.03703,0.0124 -0.08631,0.0188 -0.580608,0.24703 -1.791139,0.85234 -0.996271,0.49817 -1.827387,0.90613 -1.840551,0.90174 -0.01316,-0.004 0.304711,-0.29292 0.704104,-0.64234 0.399396,-0.34941 0.759898,-0.66285 0.790571,-0.69175 0.01973,-0.0186 0.01636,-0.0373 0.02471,-0.0618 0.01248,-0.0366 0.02471,-0.0861 0.02471,-0.19764 0,-0.20591 -0.0074,-0.21919 -0.07412,-0.24706 -0.05404,-0.0226 -0.267252,-0.0276 -0.50646,-0.0247 z"
           style="fill:#000000;fill-opacity:0.96078431;stroke-width:0.32612935"
           inkscape:connector-curvature="0" />
        <path
           id="path1658"
           d="m 20.454391,258.99045 c -0.277389,0.0201 -0.523108,0.15765 -0.740966,0.41992 -0.246018,0.29618 -0.370065,0.69602 -0.333937,1.05054 0.05338,0.52386 0.208194,0.95596 0.839858,2.21144 0.347175,0.69003 0.460787,0.96623 0.580447,1.51919 0.168989,0.78093 0.236232,1.46531 0.235045,2.37196 -0.0013,0.83493 -0.05205,1.44282 -0.184883,2.23579 -0.116624,0.69623 -0.316341,1.53319 -0.358301,1.5192 -0.06403,-0.0213 -0.140209,-0.67078 -0.197782,-1.61809 -0.0678,-1.11538 -0.124737,-1.56258 -0.222147,-2.00218 -0.259166,-1.16961 -0.835933,-1.66376 -1.791505,-1.5192 -0.26811,0.0406 -0.700711,0.17191 -0.740967,0.22215 -0.01723,0.0215 0.07872,0.36207 0.345402,1.12506 0.209522,0.59948 0.38265,1.09986 0.382667,1.11074 5.1e-5,0.0377 -0.152154,0.0902 -0.184884,0.0631 -0.01685,-0.014 -0.168498,-0.22978 -0.333937,-0.47009 -0.349127,-0.50712 -0.526222,-0.75374 -0.76533,-1.03764 -0.643215,-0.76372 -1.339173,-1.12837 -2.062381,-1.08637 -0.263913,0.0153 -0.661662,0.10212 -0.729501,0.16052 -0.04705,0.0405 -0.036,0.10826 0.864223,3.38379 l 0.927282,3.34797 -0.210681,2.05091 c -0.1137,1.13082 -0.222661,2.08189 -0.233612,2.11254 -0.01949,0.0545 -0.0236,0.0616 -0.395565,0.0616 -0.209165,0 -0.633255,-0.0154 -0.938748,-0.0373 -0.675013,-0.0484 -1.517522,-0.0544 -1.804404,-0.0129 -0.29163,0.0422 -0.714676,0.14794 -1.110733,0.28377 -1.236936,0.42423 -2.3201847,1.17457 -3.224709,2.2487 -0.8337098,0.99003 -1.5405332,2.25083 -2.2357979,3.99004 -0.2086711,0.522 -0.6589898,1.77356 -0.7653315,2.11254 -0.263081,0.83864 -0.4091501,1.72892 -0.4328274,2.69299 -0.021067,0.85864 0.043969,1.56447 0.2221472,2.28453 0.2090225,0.84465 0.5208683,1.49917 0.9516469,2.05091 0.1031269,0.13209 0.214647,0.24937 0.3339365,0.3712 0.00411,0.005 0.00734,0.007 0.011469,0.0115 0.0036,0.004 0.00916,0.009 0.0129,0.0129 0.00235,0.002 -0.00235,0.009 0,0.0115 0.5545346,0.55599 1.1572448,0.88093 1.9262262,1.03764 0.549605,0.112 1.5077306,0.13138 1.5077306,0.0258 0,-0.0176 -0.1669155,-0.51428 -0.3711999,-1.09927 -0.204283,-0.58498 -0.3696949,-1.07296 -0.3697668,-1.0878 -1.461e-4,-0.026 0.1019338,-0.086 0.1476204,-0.086 0.012174,0 0.1409773,0.17851 0.2837738,0.39556 0.5748423,0.87379 1.0180279,1.37419 1.5206299,1.71698 0.298422,0.20354 0.689444,0.35934 1.000376,0.40703 0.192034,0.0294 0.650632,0.0268 0.839858,-0.0129 0.233603,-0.049 0.465757,-0.12593 0.494456,-0.16052 l -1.483367,-2.43358 c 0.97241,0.75696 2.248244,1.48952 3.150182,1.74278 1.129553,0.31717 2.194761,0.16224 3.002563,-0.44573 0.255624,-0.19239 0.519321,-0.45234 0.505921,-0.49302 -0.0062,-0.0187 -0.945165,-0.41772 -2.088178,-0.89002 -1.143009,-0.47229 -2.081409,-0.87252 -2.086746,-0.88859 -0.01534,-0.046 0.88582,0.006 1.864599,0.11036 0.313358,0.0334 0.823168,0.0897 1.136531,0.12326 1.007683,0.10786 1.234099,0.12362 1.927659,0.12325 0.736312,-4e-4 1.058671,-0.0298 1.618088,-0.14762 0.871407,-0.18356 1.804179,-0.623 2.568301,-1.19816 0.311102,-0.23417 0.463988,-0.37747 0.445727,-0.40703 -0.01,-0.0162 -1.235342,-0.0119 -3.607375,0 -2.441973,0.0123 -3.55312,0.004 -3.594475,-0.0129 -0.0068,-10e-4 -0.02045,0.002 -0.02436,0 -0.01574,-0.0255 0.244404,-0.73763 0.283774,-0.77823 0.01127,-0.0116 0.102768,0.0181 0.197782,0.0745 1.64488,0.9772 5.187034,0.72525 7.7565,-0.55608 0.737302,-0.36768 1.223695,-0.71456 1.705513,-1.19816 0.576338,-0.57848 0.916034,-1.2105 0.963113,-1.81587 0.01387,-0.17855 0.0074,-0.18488 -0.03726,-0.18488 -0.05485,0 -0.951519,0.24493 -1.431771,0.39413 -0.177116,0.055 -0.631789,0.20032 -1.013275,0.32103 -2.491787,0.78847 -3.526384,1.0009 -4.88006,1.02618 -0.773733,0.0145 -1.466924,-0.0322 -1.444669,-0.0989 0.02516,-0.0755 1.077796,-0.43702 1.791504,-0.61771 0.609278,-0.15425 0.929086,-0.21977 2.346156,-0.50593 2.094794,-0.42301 2.854798,-0.61999 3.780791,-0.98891 1.952942,-0.77804 3.059443,-2.04584 3.40816,-3.89114 0.09077,-0.48008 0.14569,-1.32142 0.08742,-1.32142 -0.01217,0 -1.014527,0.5652 -2.235798,1.24689 -1.221358,0.68169 -2.233913,1.23309 -2.248697,1.22396 -0.03381,-0.0209 -0.177159,-0.34168 -0.160519,-0.35831 0.0068,-0.007 0.163294,-0.0928 0.358301,-0.19778 0.936607,-0.50414 1.648036,-1.03454 2.420682,-1.8044 1.443958,-1.43877 2.288999,-3.09964 2.495208,-4.87863 0.05548,-0.47887 0.03759,-1.3527 -0.03726,-1.7915 -0.08866,-0.51974 -0.294266,-1.28765 -0.356868,-1.30852 -0.01417,-0.005 -0.88795,1.2538 -1.927659,2.79045 -2.189402,3.23587 -2.304558,3.40246 -2.321791,3.38523 -0.03935,-0.0393 0.482069,-0.96213 1.358678,-2.42068 0.379502,-0.63144 0.787339,-1.31483 0.901485,-1.5192 0.280847,-0.50281 0.675923,-1.33715 0.826959,-1.72988 0.530596,-1.37968 0.605404,-2.55101 0.235046,-3.669 -0.107551,-0.32465 -0.36574,-0.85338 -0.56755,-1.16089 -0.20009,-0.3049 -0.500568,-0.68973 -0.531718,-0.67934 -0.01408,0.005 -0.614505,1.42269 -1.334313,3.15018 l -1.308515,3.13728 -1.81587,3.10002 c -1.816034,3.10459 -1.895905,3.25503 -1.91476,3.23618 -0.01511,-0.0151 0.150733,-0.48009 0.321037,-0.90149 0.426016,-1.05413 0.863044,-1.8936 2.062381,-3.95277 0.765973,-1.31512 1.110579,-1.93034 1.420305,-2.54394 0.964865,-1.91148 1.4303,-3.45505 1.544994,-5.13947 0.0232,-0.34235 0.02325,-0.50512 0,-0.72807 -0.121232,-1.16297 -0.531756,-2.61209 -0.964547,-3.42249 -0.251448,-0.47084 -0.576544,-0.84623 -0.864221,-0.98748 -0.130187,-0.0639 -0.173163,-0.0745 -0.382666,-0.0745 -0.215948,0 -0.254762,0.009 -0.419929,0.086 -0.403083,0.18892 -0.519069,0.48595 -0.518819,1.24832 1.18e-4,0.40884 0.03146,0.72803 0.160518,1.64245 l 0.08599,0.64208 -0.01147,0.7295 c -0.01384,0.72302 -0.02429,0.95627 -0.09889,1.63098 -0.164091,1.48398 -0.567613,3.19011 -1.162328,5.00188 -0.224353,0.68349 -0.555072,1.63519 -0.591913,1.69262 -0.08607,0.13413 0.126501,-0.84674 0.556083,-2.607 0.704533,-2.88689 0.872312,-3.9169 0.901485,-5.37308 0.02014,-1.00772 -0.04784,-1.70345 -0.235046,-2.51957 -0.112217,-0.48918 -0.156264,-0.61741 -0.321043,-0.95166 -0.461942,-0.93705 -1.268821,-1.92874 -1.92766,-2.35905 -0.339616,-0.22181 -0.648461,-0.3168 -0.925849,-0.29667 z"
           style="fill:#000000;fill-opacity:1;stroke-width:0.32612935"
           inkscape:connector-curvature="0" />
        <path
           id="path1660"
           d="m -5.436931,274.71573 c -0.023012,-0.023 -0.4982771,0.038 -0.6917509,0.0865 -0.5496716,0.13764 -0.8801159,0.46629 -1.074683,1.06233 -0.034907,0.10696 -0.061764,0.20919 -0.061764,0.2347 0,0.058 0.01946,0.0597 0.2347017,0 0.4482141,-0.12421 0.8015016,-0.33376 1.0870359,-0.62999 0.2336133,-0.24236 0.5510828,-0.70889 0.5064595,-0.75351 z"
           style="fill:#000000;fill-opacity:0.48235294;stroke-width:0.32612935"
           inkscape:connector-curvature="0" />
        <path
           id="path1662"
           d="m -3.6952033,274.91337 c -0.2949187,0.0183 -0.6750165,0.10881 -0.9140966,0.22235 -0.6822451,0.324 -1.0831034,0.91202 -1.2723275,1.84055 -0.1107232,0.54334 -0.1293967,0.84111 -0.135879,2.28525 -0.0036,0.75337 -0.014903,1.37391 -0.024708,1.3835 -0.00976,0.01 -0.045349,-0.0141 -0.08647,-0.0618 -0.1540042,-0.17862 -0.3518999,-0.49708 -0.6299846,-1.04997 -0.1024341,-0.20366 -0.1851158,-0.33885 -0.2717586,-0.49411 -0.04667,-0.0836 -0.1115105,-0.23484 -0.1358807,-0.27176 -0.1508943,-0.22863 -0.4288917,-0.51607 -0.6176325,-0.64234 -0.1614104,-0.10798 -0.4048641,-0.19764 -0.5682235,-0.19764 -0.4718249,0 -0.8877489,0.43223 -1.0129213,1.04998 -0.1202971,0.59369 0.1137567,1.086 0.6052826,1.27232 0.08046,0.0305 0.2052205,0.0447 0.4446963,0.0494 0.1824683,0.004 0.3487005,0.0137 0.3582282,0.0247 0.00955,0.011 0.049077,0.11336 0.08647,0.22235 0.109359,0.31884 0.3746,0.84227 0.7782188,1.51938 0.4264738,0.71546 0.6987747,1.23641 0.8152773,1.55644 0.1249104,0.34313 0.7108953,2.60605 0.790571,3.05112 0.069336,0.38729 0.087395,0.74084 0.049406,0.92645 -0.016723,0.0817 -0.09324,0.31513 -0.1729384,0.50646 -0.2211154,0.53081 -0.2378429,0.72973 -0.086469,1.14879 0.301128,0.83367 0.8307438,1.40003 1.5934968,1.71703 0.1929606,0.0802 0.2253912,0.0849 0.2717587,-0.0247 0.1038689,-0.24543 0.2381878,-0.77919 0.2841114,-1.14881 0.07518,-0.6051 0.019959,-1.03558 -0.2964647,-2.43348 -0.1464016,-0.64675 -0.2614057,-1.4329 -0.2099956,-1.4329 0.011976,10e-6 0.1078863,0.0648 0.2099956,0.14823 0.1021158,0.0835 0.4400837,0.35397 0.7535137,0.59292 0.8180155,0.62365 0.9193,0.70812 1.8529007,1.63056 0.35280526,0.34859 0.60780422,0.58366 0.82763038,0.77822 0.43719119,0.38693 0.69857707,0.55399 1.06233266,0.6794 0.19598456,0.0676 0.27694005,0.0862 0.44469496,0.0865 0.4094575,3.9e-4 0.5960129,-0.17066 0.617634,-0.56822 0.015256,-0.28064 -0.0704,-0.60362 -0.296464,-1.06234 -0.2210516,-0.44853 -0.3982592,-0.68376 -0.74116042,-1.01292 -0.39904433,-0.38305 -0.7692925,-0.65408 -1.96407738,-1.42056 -1.0172082,-0.65256 -1.4706609,-0.98739 -1.8652533,-1.3835 -0.5200589,-0.52204 -0.7409249,-0.95515 -0.7658679,-1.51938 -0.020568,-0.46448 0.095028,-0.76078 0.3952858,-1.06233 0.3078532,-0.30917 0.6476014,-0.48123 1.6429074,-0.82763 1.05161415,-0.36599 1.44376157,-0.59594 1.6182013,-0.95115 0.0607065,-0.12364 0.0618145,-0.16327 0.0617632,-0.37059 -5.944e-5,-0.19922 8.659e-5,-0.2515 -0.0494061,-0.34587 -0.22911156,-0.4368 -0.9186519,-0.69991 -2.0381931,-0.76587 l -0.2841114,-0.0124 -0.9511553,0.95116 c -0.5226793,0.52202 -0.9556431,0.93431 -0.9635101,0.92645 -0.00791,-0.008 0.2197469,-1.22678 0.5064596,-2.71759 0.286709,-1.49081 0.5311663,-2.72943 0.5311663,-2.75465 0,-0.0425 -0.023085,-0.051 -0.2470537,-0.037 z"
           style="fill:#000000;fill-opacity:0.8745098;stroke-width:0.32612935"
           inkscape:connector-curvature="0" />
        <path
           id="path1664"
           d="m -1.6817154,276.6551 0.012372,0.0865 c 0.015534,0.16658 0.1027777,0.56103 0.1729376,0.75351 0.2214662,0.6076 0.60569165,0.97953 1.23526741,1.18586 0.14961998,0.049 0.21833657,0.0531 0.23470231,0.0247 0.02340059,-0.0405 -0.0376288,-0.61957 -0.08646993,-0.82763 -0.14474614,-0.61653 -0.51539349,-0.98851 -1.14880109,-1.1488 -0.123569,-0.0313 -0.2666699,-0.057 -0.3211693,-0.0618 l -0.098817,-0.0124 z"
           style="fill:#000000;fill-opacity:0.48235294;stroke-width:0.32612935"
           inkscape:connector-curvature="0" />
        <path
           id="path1666"
           d="m -10.279184,279.22446 c -0.02596,0.0102 -0.0329,0.0341 -0.04941,0.0741 -0.04467,0.1081 -0.111175,0.51989 -0.111175,0.6794 0,0.4195 0.19151,0.76662 0.5558723,1.01292 0.1410966,0.0954 0.1613744,0.0974 0.1605849,0.037 -0.00125,-0.10757 -0.1960428,-1.75621 -0.2099968,-1.77879 -0.00863,-0.014 -0.090034,-0.0247 -0.1852894,-0.0247 -0.08604,0 -0.134607,-0.0102 -0.160585,0 z"
           style="fill:#000000;fill-opacity:0.48235294;stroke-width:0.32612935"
           inkscape:connector-curvature="0" />
        <path
           id="path1668"
           d="m 2.938187,284.67199 c -0.042677,0 -0.2649367,0.22727 -0.3705799,0.38294 -0.2913231,0.42924 -0.5184607,1.06809 -0.6546927,1.8529 -0.048357,0.27851 -0.048621,0.40854 -0.049406,1.01292 -8.072e-4,0.76399 0.016085,0.93694 0.160585,1.37114 0.1592253,0.4785 0.4234333,0.7974 0.7411597,0.9141 0.050925,0.0187 0.141877,0.0364 0.2099955,0.0371 0.3988807,0.004 0.7681082,-0.43884 0.9388041,-1.11174 0.1451197,-0.57208 0.036726,-1.05343 -0.4941069,-2.17407 -0.3397284,-0.71723 -0.4285457,-1.00019 -0.4817543,-1.43291 -0.025734,-0.20931 -0.026637,-0.41691 0.012372,-0.72881 0.010911,-0.0874 0.00572,-0.12353 -0.012372,-0.12353 z"
           style="fill:#000000;fill-opacity:0.48235294;stroke-width:0.32612935"
           inkscape:connector-curvature="0" />
        <path
           id="path1670"
           d="m -7.0427793,289.37836 c -0.033234,0 -0.031341,0.0707 0.024707,0.34588 0.091442,0.44888 0.2538906,0.71906 0.55587,0.87704 0.1854798,0.097 0.3025122,0.12556 0.5805766,0.17294 0.1021775,0.0174 0.199363,0.0357 0.2099956,0.037 0.072572,0.01 0.014434,-0.28119 -0.1111737,-0.54351 -0.1161716,-0.24266 -0.3930891,-0.50813 -0.6793982,-0.65469 -0.2083479,-0.10665 -0.5312172,-0.23471 -0.5805763,-0.23471 z"
           style="fill:#000000;fill-opacity:0.48235294;stroke-width:0.32612935"
           inkscape:connector-curvature="0" />
        <path
           id="path1672"
           d="m 6.210527,271.05125 c 0,0 0.5499477,-0.38345 1.0470118,-0.36325 0.5793478,0.0236 0.961545,0.53419 0.961545,0.53419 -1.2820575,0.7906 -2.0085568,-0.17094 -2.0085568,-0.17094 z"
           style="fill:#000000;fill-opacity:0.99607843;stroke-width:0.32612935"
           inkscape:connector-curvature="0" />
        <path
           id="path1674"
           d="m 7.3947952,275.06527 c 0.00279,0.092 0.00132,0.17653 -0.00719,0.25654 0.00841,-0.0802 0.00995,-0.16456 0.00719,-0.25654 z"
           style="fill:#000000;stroke-width:0.32612935"
           inkscape:connector-curvature="0" />
        <path
           id="path1676"
           d="m 6.9806039,274.53499 c -0.462005,0.0667 -0.9209392,0.15469 -1.3744242,0.26657 0.4536061,-0.11055 0.9125138,-0.1999 1.3744242,-0.26657 z"
           style="fill:#000000;stroke-width:0.32612935"
           inkscape:connector-curvature="0" />
        <path
           id="path1678"
           d="m 1.485771,276.85245 c -0.041224,0.0701 -0.2106794,0.20468 -0.2465075,0.2895 0.036558,-0.0849 0.2054123,-0.2196 0.2465075,-0.2895 z"
           style="fill:#000000;stroke-width:0.32612935"
           inkscape:connector-curvature="0" />
      </g>
      <g
         id="g1652"
         style="stroke-width:1.23261476">
        <path
           inkscape:connector-curvature="0"
           style="fill:#e50001;fill-opacity:1;stroke-width:0.32612935"
           d="m 7.4779968,274.1394 c -1.0230396,0.127 -2.0327154,0.36984 -3.0054287,0.71087 -1.008038,0.36895 -2.0141916,0.8552 -2.7589175,1.64818 -0.054968,0.0935 -0.3372452,0.30297 -0.2278796,0.354 1.0953166,-0.29617 2.6337923,-0.72437 3.6733018,-1.01901 0.2817097,-0.0798 0.4950829,-0.14097 0.7409667,-0.21068 0.4501617,-0.1224 0.8982886,-0.25226 1.3457785,-0.3841 l 0.318171,-0.0989 c 0.1001339,-0.11765 0.042743,-0.47023 0.057331,-0.67504 -0.030511,-0.10814 0.061624,-0.39237 -0.1433204,-0.32533 z"
           id="path1563" />
        <path
           inkscape:connector-curvature="0"
           style="fill:#04001c;fill-opacity:0.96078431;stroke-width:0.32612935"
           d="m 11.548009,266.87177 c -0.239208,0.003 -0.495132,0.0244 -0.642342,0.0494 -0.9266435,0.1573 -1.665618,0.49838 -2.0505442,0.96351 -0.3014207,0.36423 -0.386368,0.81976 -0.2347008,1.25997 0.020033,0.0585 0.034466,0.11375 0.024707,0.12353 -0.00976,0.01 -0.9187158,0.10717 -2.0134886,0.22235 -0.8936627,0.094 -1.3834021,0.16133 -1.6429066,0.19764 -0.035105,0.005 -0.2068146,0.0218 -0.2223482,0.0247 -0.010317,0.002 -0.1472403,0.0113 -0.1482324,0.0124 -0.00235,0.002 0.011939,0.0394 0.012372,0.0494 8.071e-4,0.0144 -0.00264,0.0221 0,0.0247 0.00996,0.0816 0.048672,0.25714 0.1482309,0.60528 0.1761986,0.61587 0.2125256,0.74116 0.185291,0.74116 -0.00594,0 -0.097924,-0.0643 -0.1976429,-0.13587 -0.4120149,-0.29556 -0.7850221,-0.43833 -1.1858583,-0.45705 -0.4425699,-0.0207 -0.7226014,0.0997 -1.0376245,0.40764 -0.00675,0.007 -0.017875,0.006 -0.024707,0.0124 -0.1580278,0.15824 -0.2175778,0.23185 -0.32117,0.44469 -0.1509408,0.31013 -0.2264201,0.58554 -0.247055,0.95116 -0.024112,0.42708 0.06993,0.96742 0.2223497,1.32174 l 0.049406,0.12352 h 0.2099956 c 0.5466941,0 0.9766846,-0.69964 1.4329007,-0.91406 0.3179685,-0.0785 0.9025211,-0.0783 1.2970306,0 1.421596,0.28201 2.4871867,1.24702 2.4334798,2.21113 -0.014309,0.25709 -0.1055801,0.42565 -0.333522,0.65469 -0.1900071,0.19093 -0.438239,0.36019 -0.864689,0.59293 -0.1498636,0.0818 -0.3991859,0.22302 -0.5558701,0.30882 -0.156679,0.0858 -0.380202,0.22104 -0.4941077,0.29647 -0.225684,0.14945 -0.5064603,0.39761 -0.5064603,0.45704 0,0.0512 0.140066,0.0493 0.7411619,-0.0124 0.2578094,-0.0265 0.4695271,-0.0671 0.6917499,-0.0988 1.0778662,-0.15386 1.7971626,-0.36259 2.3593617,-0.7288 0.534362,-0.34809 0.9362006,-0.90076 1.0870372,-1.48233 0.024472,-0.0944 0.047021,-0.16058 0.061763,-0.16058 0.014742,0 0.1122223,0.0503 0.2099956,0.11117 0.634565,0.39491 1.156378,0.53719 1.593496,0.4447 0.390677,-0.0827 0.766697,-0.31789 1.457617,-0.9141 0.183215,-0.1581 0.342337,-0.29646 0.358228,-0.29646 0.01589,0 0.159845,0.31513 0.32117,0.69175 0.161325,0.37662 0.312493,0.70362 0.333522,0.72881 0.03703,0.0443 0.06724,0.0488 0.654692,-0.0494 0.333799,-0.0558 0.616547,-0.12318 0.629987,-0.13588 0.03431,-0.0324 -0.09336,-0.46477 -0.209995,-0.74116 -0.187935,-0.44537 -0.512188,-0.84739 -0.901746,-1.09939 -0.233483,-0.15104 -0.584289,-0.31545 -1.148799,-0.53116 -0.614583,-0.23485 -0.932235,-0.38582 -1.222916,-0.58058 -0.287963,-0.19294 -0.566544,-0.44866 -0.531165,-0.48176 0.01363,-0.0128 0.113351,-0.0487 0.222348,-0.0865 0.868166,-0.30126 1.462753,-0.87255 1.852902,-1.79114 0.160539,-0.37798 0.291037,-0.86109 0.50646,-1.81585 0.09774,-0.43317 0.224341,-0.92233 0.27176,-1.08703 0.04742,-0.16471 0.08134,-0.31471 0.07412,-0.33353 -8.07e-4,-0.002 -0.02902,0.0106 -0.03703,0.0124 -0.08631,0.0188 -0.580608,0.24703 -1.791139,0.85234 -0.996271,0.49817 -1.827387,0.90613 -1.840551,0.90174 -0.01316,-0.004 0.304711,-0.29292 0.704104,-0.64234 0.399396,-0.34941 0.759898,-0.66285 0.790571,-0.69175 0.01973,-0.0186 0.01636,-0.0373 0.02471,-0.0618 0.01248,-0.0366 0.02471,-0.0861 0.02471,-0.19764 0,-0.20591 -0.0074,-0.21919 -0.07412,-0.24706 -0.05404,-0.0226 -0.267252,-0.0276 -0.50646,-0.0247 z"
           id="path1559" />
        <path
           inkscape:connector-curvature="0"
           style="fill:url(#linearGradient1637);fill-opacity:1;stroke-width:0.32612935"
           d="m 20.454391,258.99045 c -0.277389,0.0201 -0.523108,0.15765 -0.740966,0.41992 -0.246018,0.29618 -0.370065,0.69602 -0.333937,1.05054 0.05338,0.52386 0.208194,0.95596 0.839858,2.21144 0.347175,0.69003 0.460787,0.96623 0.580447,1.51919 0.168989,0.78093 0.236232,1.46531 0.235045,2.37196 -0.0013,0.83493 -0.05205,1.44282 -0.184883,2.23579 -0.116624,0.69623 -0.316341,1.53319 -0.358301,1.5192 -0.06403,-0.0213 -0.140209,-0.67078 -0.197782,-1.61809 -0.0678,-1.11538 -0.124737,-1.56258 -0.222147,-2.00218 -0.259166,-1.16961 -0.835933,-1.66376 -1.791505,-1.5192 -0.26811,0.0406 -0.700711,0.17191 -0.740967,0.22215 -0.01723,0.0215 0.07872,0.36207 0.345402,1.12506 0.209522,0.59948 0.38265,1.09986 0.382667,1.11074 5.1e-5,0.0377 -0.152154,0.0902 -0.184884,0.0631 -0.01685,-0.014 -0.168498,-0.22978 -0.333937,-0.47009 -0.349127,-0.50712 -0.526222,-0.75374 -0.76533,-1.03764 -0.643215,-0.76372 -1.339173,-1.12837 -2.062381,-1.08637 -0.263913,0.0153 -0.661662,0.10212 -0.729501,0.16052 -0.04705,0.0405 -0.036,0.10826 0.864223,3.38379 l 0.927282,3.34797 -0.210681,2.05091 c -0.1137,1.13082 -0.222661,2.08189 -0.233612,2.11254 -0.01949,0.0545 -0.0236,0.0616 -0.395565,0.0616 -0.209165,0 -0.633255,-0.0154 -0.938748,-0.0373 -0.675013,-0.0484 -1.517522,-0.0544 -1.804404,-0.0129 -0.29163,0.0422 -0.714676,0.14794 -1.110733,0.28377 -1.236936,0.42423 -2.3201847,1.17457 -3.224709,2.2487 -0.8337098,0.99003 -1.5405332,2.25083 -2.2357979,3.99004 -0.2086711,0.522 -0.6589898,1.77356 -0.7653315,2.11254 -0.263081,0.83864 -0.4091501,1.72892 -0.4328274,2.69299 -0.021067,0.85864 0.043969,1.56447 0.2221472,2.28453 0.2090225,0.84465 0.5208683,1.49917 0.9516469,2.05091 0.1031269,0.13209 0.214647,0.24937 0.3339365,0.3712 0.00411,0.005 0.00734,0.007 0.011469,0.0115 0.0036,0.004 0.00916,0.009 0.0129,0.0129 0.00235,0.002 -0.00235,0.009 0,0.0115 0.5545346,0.55599 1.1572448,0.88093 1.9262262,1.03764 0.549605,0.112 1.5077306,0.13138 1.5077306,0.0258 0,-0.0176 -0.1669155,-0.51428 -0.3711999,-1.09927 -0.204283,-0.58498 -0.3696949,-1.07296 -0.3697668,-1.0878 -1.461e-4,-0.026 0.1019338,-0.086 0.1476204,-0.086 0.012174,0 0.1409773,0.17851 0.2837738,0.39556 0.5748423,0.87379 1.0180279,1.37419 1.5206299,1.71698 0.298422,0.20354 0.689444,0.35934 1.000376,0.40703 0.192034,0.0294 0.650632,0.0268 0.839858,-0.0129 0.233603,-0.049 0.465757,-0.12593 0.494456,-0.16052 l -1.483367,-2.43358 c 0.97241,0.75696 2.248244,1.48952 3.150182,1.74278 1.129553,0.31717 2.194761,0.16224 3.002563,-0.44573 0.255624,-0.19239 0.519321,-0.45234 0.505921,-0.49302 -0.0062,-0.0187 -0.945165,-0.41772 -2.088178,-0.89002 -1.143009,-0.47229 -2.081409,-0.87252 -2.086746,-0.88859 -0.01534,-0.046 0.88582,0.006 1.864599,0.11036 0.313358,0.0334 0.823168,0.0897 1.136531,0.12326 1.007683,0.10786 1.234099,0.12362 1.927659,0.12325 0.736312,-4e-4 1.058671,-0.0298 1.618088,-0.14762 0.871407,-0.18356 1.804179,-0.623 2.568301,-1.19816 0.311102,-0.23417 0.463988,-0.37747 0.445727,-0.40703 -0.01,-0.0162 -1.235342,-0.0119 -3.607375,0 -2.441973,0.0123 -3.55312,0.004 -3.594475,-0.0129 -0.0068,-10e-4 -0.02045,0.002 -0.02436,0 -0.01574,-0.0255 0.244404,-0.73763 0.283774,-0.77823 0.01127,-0.0116 0.102768,0.0181 0.197782,0.0745 1.64488,0.9772 5.187034,0.72525 7.7565,-0.55608 0.737302,-0.36768 1.223695,-0.71456 1.705513,-1.19816 0.576338,-0.57848 0.916034,-1.2105 0.963113,-1.81587 0.01387,-0.17855 0.0074,-0.18488 -0.03726,-0.18488 -0.05485,0 -0.951519,0.24493 -1.431771,0.39413 -0.177116,0.055 -0.631789,0.20032 -1.013275,0.32103 -2.491787,0.78847 -3.526384,1.0009 -4.88006,1.02618 -0.773733,0.0145 -1.466924,-0.0322 -1.444669,-0.0989 0.02516,-0.0755 1.077796,-0.43702 1.791504,-0.61771 0.609278,-0.15425 0.929086,-0.21977 2.346156,-0.50593 2.094794,-0.42301 2.854798,-0.61999 3.780791,-0.98891 1.952942,-0.77804 3.059443,-2.04584 3.40816,-3.89114 0.09077,-0.48008 0.14569,-1.32142 0.08742,-1.32142 -0.01217,0 -1.014527,0.5652 -2.235798,1.24689 -1.221358,0.68169 -2.233913,1.23309 -2.248697,1.22396 -0.03381,-0.0209 -0.177159,-0.34168 -0.160519,-0.35831 0.0068,-0.007 0.163294,-0.0928 0.358301,-0.19778 0.936607,-0.50414 1.648036,-1.03454 2.420682,-1.8044 1.443958,-1.43877 2.288999,-3.09964 2.495208,-4.87863 0.05548,-0.47887 0.03759,-1.3527 -0.03726,-1.7915 -0.08866,-0.51974 -0.294266,-1.28765 -0.356868,-1.30852 -0.01417,-0.005 -0.88795,1.2538 -1.927659,2.79045 -2.189402,3.23587 -2.304558,3.40246 -2.321791,3.38523 -0.03935,-0.0393 0.482069,-0.96213 1.358678,-2.42068 0.379502,-0.63144 0.787339,-1.31483 0.901485,-1.5192 0.280847,-0.50281 0.675923,-1.33715 0.826959,-1.72988 0.530596,-1.37968 0.605404,-2.55101 0.235046,-3.669 -0.107551,-0.32465 -0.36574,-0.85338 -0.56755,-1.16089 -0.20009,-0.3049 -0.500568,-0.68973 -0.531718,-0.67934 -0.01408,0.005 -0.614505,1.42269 -1.334313,3.15018 l -1.308515,3.13728 -1.81587,3.10002 c -1.816034,3.10459 -1.895905,3.25503 -1.91476,3.23618 -0.01511,-0.0151 0.150733,-0.48009 0.321037,-0.90149 0.426016,-1.05413 0.863044,-1.8936 2.062381,-3.95277 0.765973,-1.31512 1.110579,-1.93034 1.420305,-2.54394 0.964865,-1.91148 1.4303,-3.45505 1.544994,-5.13947 0.0232,-0.34235 0.02325,-0.50512 0,-0.72807 -0.121232,-1.16297 -0.531756,-2.61209 -0.964547,-3.42249 -0.251448,-0.47084 -0.576544,-0.84623 -0.864221,-0.98748 -0.130187,-0.0639 -0.173163,-0.0745 -0.382666,-0.0745 -0.215948,0 -0.254762,0.009 -0.419929,0.086 -0.403083,0.18892 -0.519069,0.48595 -0.518819,1.24832 1.18e-4,0.40884 0.03146,0.72803 0.160518,1.64245 l 0.08599,0.64208 -0.01147,0.7295 c -0.01384,0.72302 -0.02429,0.95627 -0.09889,1.63098 -0.164091,1.48398 -0.567613,3.19011 -1.162328,5.00188 -0.224353,0.68349 -0.555072,1.63519 -0.591913,1.69262 -0.08607,0.13413 0.126501,-0.84674 0.556083,-2.607 0.704533,-2.88689 0.872312,-3.9169 0.901485,-5.37308 0.02014,-1.00772 -0.04784,-1.70345 -0.235046,-2.51957 -0.112217,-0.48918 -0.156264,-0.61741 -0.321043,-0.95166 -0.461942,-0.93705 -1.268821,-1.92874 -1.92766,-2.35905 -0.339616,-0.22181 -0.648461,-0.3168 -0.925849,-0.29667 z"
           id="path1561" />
        <path
           inkscape:connector-curvature="0"
           style="fill:#000000;fill-opacity:0.48235294;stroke-width:0.32612935"
           d="m -5.436931,274.71573 c -0.023012,-0.023 -0.4982771,0.038 -0.6917509,0.0865 -0.5496716,0.13764 -0.8801159,0.46629 -1.074683,1.06233 -0.034907,0.10696 -0.061764,0.20919 -0.061764,0.2347 0,0.058 0.01946,0.0597 0.2347017,0 0.4482141,-0.12421 0.8015016,-0.33376 1.0870359,-0.62999 0.2336133,-0.24236 0.5510828,-0.70889 0.5064595,-0.75351 z"
           id="path1565" />
        <path
           inkscape:connector-curvature="0"
           style="fill:#270000;fill-opacity:0.8745098;stroke-width:0.32612935"
           d="m -3.6952033,274.91337 c -0.2949187,0.0183 -0.6750165,0.10881 -0.9140966,0.22235 -0.6822451,0.324 -1.0831034,0.91202 -1.2723275,1.84055 -0.1107232,0.54334 -0.1293967,0.84111 -0.135879,2.28525 -0.0036,0.75337 -0.014903,1.37391 -0.024708,1.3835 -0.00976,0.01 -0.045349,-0.0141 -0.08647,-0.0618 -0.1540042,-0.17862 -0.3518999,-0.49708 -0.6299846,-1.04997 -0.1024341,-0.20366 -0.1851158,-0.33885 -0.2717586,-0.49411 -0.04667,-0.0836 -0.1115105,-0.23484 -0.1358807,-0.27176 -0.1508943,-0.22863 -0.4288917,-0.51607 -0.6176325,-0.64234 -0.1614104,-0.10798 -0.4048641,-0.19764 -0.5682235,-0.19764 -0.4718249,0 -0.8877489,0.43223 -1.0129213,1.04998 -0.1202971,0.59369 0.1137567,1.086 0.6052826,1.27232 0.08046,0.0305 0.2052205,0.0447 0.4446963,0.0494 0.1824683,0.004 0.3487005,0.0137 0.3582282,0.0247 0.00955,0.011 0.049077,0.11336 0.08647,0.22235 0.109359,0.31884 0.3746,0.84227 0.7782188,1.51938 0.4264738,0.71546 0.6987747,1.23641 0.8152773,1.55644 0.1249104,0.34313 0.7108953,2.60605 0.790571,3.05112 0.069336,0.38729 0.087395,0.74084 0.049406,0.92645 -0.016723,0.0817 -0.09324,0.31513 -0.1729384,0.50646 -0.2211154,0.53081 -0.2378429,0.72973 -0.086469,1.14879 0.301128,0.83367 0.8307438,1.40003 1.5934968,1.71703 0.1929606,0.0802 0.2253912,0.0849 0.2717587,-0.0247 0.1038689,-0.24543 0.2381878,-0.77919 0.2841114,-1.14881 0.07518,-0.6051 0.019959,-1.03558 -0.2964647,-2.43348 -0.1464016,-0.64675 -0.2614057,-1.4329 -0.2099956,-1.4329 0.011976,10e-6 0.1078863,0.0648 0.2099956,0.14823 0.1021158,0.0835 0.4400837,0.35397 0.7535137,0.59292 0.8180155,0.62365 0.9193,0.70812 1.8529007,1.63056 0.35280526,0.34859 0.60780422,0.58366 0.82763038,0.77822 0.43719119,0.38693 0.69857707,0.55399 1.06233266,0.6794 0.19598456,0.0676 0.27694005,0.0862 0.44469496,0.0865 0.4094575,3.9e-4 0.5960129,-0.17066 0.617634,-0.56822 0.015256,-0.28064 -0.0704,-0.60362 -0.296464,-1.06234 -0.2210516,-0.44853 -0.3982592,-0.68376 -0.74116042,-1.01292 -0.39904433,-0.38305 -0.7692925,-0.65408 -1.96407738,-1.42056 -1.0172082,-0.65256 -1.4706609,-0.98739 -1.8652533,-1.3835 -0.5200589,-0.52204 -0.7409249,-0.95515 -0.7658679,-1.51938 -0.020568,-0.46448 0.095028,-0.76078 0.3952858,-1.06233 0.3078532,-0.30917 0.6476014,-0.48123 1.6429074,-0.82763 1.05161415,-0.36599 1.44376157,-0.59594 1.6182013,-0.95115 0.0607065,-0.12364 0.0618145,-0.16327 0.0617632,-0.37059 -5.944e-5,-0.19922 8.659e-5,-0.2515 -0.0494061,-0.34587 -0.22911156,-0.4368 -0.9186519,-0.69991 -2.0381931,-0.76587 l -0.2841114,-0.0124 -0.9511553,0.95116 c -0.5226793,0.52202 -0.9556431,0.93431 -0.9635101,0.92645 -0.00791,-0.008 0.2197469,-1.22678 0.5064596,-2.71759 0.286709,-1.49081 0.5311663,-2.72943 0.5311663,-2.75465 0,-0.0425 -0.023085,-0.051 -0.2470537,-0.037 z"
           id="path1567" />
        <path
           inkscape:connector-curvature="0"
           style="fill:#000000;fill-opacity:0.48235294;stroke-width:0.32612935"
           d="m -1.6817154,276.6551 0.012372,0.0865 c 0.015534,0.16658 0.1027777,0.56103 0.1729376,0.75351 0.2214662,0.6076 0.60569165,0.97953 1.23526741,1.18586 0.14961998,0.049 0.21833657,0.0531 0.23470231,0.0247 0.02340059,-0.0405 -0.0376288,-0.61957 -0.08646993,-0.82763 -0.14474614,-0.61653 -0.51539349,-0.98851 -1.14880109,-1.1488 -0.123569,-0.0313 -0.2666699,-0.057 -0.3211693,-0.0618 l -0.098817,-0.0124 z"
           id="path1569" />
        <path
           inkscape:connector-curvature="0"
           style="fill:#000000;fill-opacity:0.48235294;stroke-width:0.32612935"
           d="m -10.279184,279.22446 c -0.02596,0.0102 -0.0329,0.0341 -0.04941,0.0741 -0.04467,0.1081 -0.111175,0.51989 -0.111175,0.6794 0,0.4195 0.19151,0.76662 0.5558723,1.01292 0.1410966,0.0954 0.1613744,0.0974 0.1605849,0.037 -0.00125,-0.10757 -0.1960428,-1.75621 -0.2099968,-1.77879 -0.00863,-0.014 -0.090034,-0.0247 -0.1852894,-0.0247 -0.08604,0 -0.134607,-0.0102 -0.160585,0 z"
           id="path1571" />
        <path
           inkscape:connector-curvature="0"
           style="fill:#000000;fill-opacity:0.48235294;stroke-width:0.32612935"
           d="m 2.938187,284.67199 c -0.042677,0 -0.2649367,0.22727 -0.3705799,0.38294 -0.2913231,0.42924 -0.5184607,1.06809 -0.6546927,1.8529 -0.048357,0.27851 -0.048621,0.40854 -0.049406,1.01292 -8.072e-4,0.76399 0.016085,0.93694 0.160585,1.37114 0.1592253,0.4785 0.4234333,0.7974 0.7411597,0.9141 0.050925,0.0187 0.141877,0.0364 0.2099955,0.0371 0.3988807,0.004 0.7681082,-0.43884 0.9388041,-1.11174 0.1451197,-0.57208 0.036726,-1.05343 -0.4941069,-2.17407 -0.3397284,-0.71723 -0.4285457,-1.00019 -0.4817543,-1.43291 -0.025734,-0.20931 -0.026637,-0.41691 0.012372,-0.72881 0.010911,-0.0874 0.00572,-0.12353 -0.012372,-0.12353 z"
           id="path1573" />
        <path
           inkscape:connector-curvature="0"
           style="fill:#000000;fill-opacity:0.48235294;stroke-width:0.32612935"
           d="m -7.0427793,289.37836 c -0.033234,0 -0.031341,0.0707 0.024707,0.34588 0.091442,0.44888 0.2538906,0.71906 0.55587,0.87704 0.1854798,0.097 0.3025122,0.12556 0.5805766,0.17294 0.1021775,0.0174 0.199363,0.0357 0.2099956,0.037 0.072572,0.01 0.014434,-0.28119 -0.1111737,-0.54351 -0.1161716,-0.24266 -0.3930891,-0.50813 -0.6793982,-0.65469 -0.2083479,-0.10665 -0.5312172,-0.23471 -0.5805763,-0.23471 z"
           id="path1575" />
        <path
           inkscape:connector-curvature="0"
           style="fill:#e60001;fill-opacity:0.99607843;stroke-width:0.32612935"
           d="m 6.210527,271.05125 c 0,0 0.5499477,-0.38345 1.0470118,-0.36325 0.5793478,0.0236 0.961545,0.53419 0.961545,0.53419 -1.2820575,0.7906 -2.0085568,-0.17094 -2.0085568,-0.17094 z"
           id="path1577" />
        <path
           inkscape:connector-curvature="0"
           style="fill:#008000;stroke-width:0.32612935"
           d="m 7.3947952,275.06527 c 0.00279,0.092 0.00132,0.17653 -0.00719,0.25654 0.00841,-0.0802 0.00995,-0.16456 0.00719,-0.25654 z"
           id="path1581" />
        <path
           inkscape:connector-curvature="0"
           style="fill:#008000;stroke-width:0.32612935"
           d="m 6.9806039,274.53499 c -0.462005,0.0667 -0.9209392,0.15469 -1.3744242,0.26657 0.4536061,-0.11055 0.9125138,-0.1999 1.3744242,-0.26657 z"
           id="path1583" />
        <path
           inkscape:connector-curvature="0"
           style="fill:#008000;stroke-width:0.32612935"
           d="m 1.485771,276.85245 c -0.041224,0.0701 -0.2106794,0.20468 -0.2465075,0.2895 0.036558,-0.0849 0.2054123,-0.2196 0.2465075,-0.2895 z"
           id="path1587" />
      </g>
    </g>
  </g>
</svg>
