<?xml version="1.0" encoding="UTF-8" standalone="no"?>
<!-- Created with Inkscape (http://www.inkscape.org/) -->

<svg
   xmlns:dc="http://purl.org/dc/elements/1.1/"
   xmlns:cc="http://creativecommons.org/ns#"
   xmlns:rdf="http://www.w3.org/1999/02/22-rdf-syntax-ns#"
   xmlns:svg="http://www.w3.org/2000/svg"
   xmlns="http://www.w3.org/2000/svg"
   xmlns:xlink="http://www.w3.org/1999/xlink"
   xmlns:sodipodi="http://sodipodi.sourceforge.net/DTD/sodipodi-0.dtd"
   xmlns:inkscape="http://www.inkscape.org/namespaces/inkscape"
   width="128"
   height="128"
   viewBox="0 0 33.866666 33.866668"
   version="1.1"
   id="svg8"
   inkscape:version="0.92.2 5c3e80d, 2017-08-06"
   sodipodi:docname="caffeine.svg">
  <defs
     id="defs2">
    <linearGradient
       inkscape:collect="always"
       id="linearGradient822">
      <stop
         style="stop-color:#f9dec0;stop-opacity:1"
         offset="0"
         id="stop818" />
      <stop
         style="stop-color:#fcf4ea;stop-opacity:1"
         offset="1"
         id="stop820" />
    </linearGradient>
    <linearGradient
       inkscape:collect="always"
       xlink:href="#linearGradient822"
       id="linearGradient824"
       x1="12.93328"
       y1="30.147039"
       x2="23.251755"
       y2="18.041698"
       gradientUnits="userSpaceOnUse"
       gradientTransform="translate(4.9229157e-6,263.1333)" />
  </defs>
  <sodipodi:namedview
     id="base"
     pagecolor="#ffffff"
     bordercolor="#666666"
     borderopacity="1.0"
     inkscape:pageopacity="0.0"
     inkscape:pageshadow="2"
     inkscape:zoom="1.979899"
     inkscape:cx="19.767716"
     inkscape:cy="66.534695"
     inkscape:document-units="mm"
     inkscape:current-layer="layer1"
     showgrid="false"
     inkscape:window-width="1600"
     inkscape:window-height="803"
     inkscape:window-x="0"
     inkscape:window-y="0"
     inkscape:window-maximized="1"
     units="px" />
  <metadata
     id="metadata5">
    <rdf:RDF>
      <cc:Work
         rdf:about="">
        <dc:format>image/svg+xml</dc:format>
        <dc:type
           rdf:resource="http://purl.org/dc/dcmitype/StillImage" />
        <dc:title />
      </cc:Work>
    </rdf:RDF>
  </metadata>
  <g
     inkscape:label="Layer 1"
     inkscape:groupmode="layer"
     id="layer1"
     transform="translate(0,-263.13332)">
    <g
       id="g838"
       transform="matrix(0.94953296,0,0,0.94953296,0.85457606,14.181597)">
      <circle
         style="opacity:0.25;fill:#000000;fill-opacity:1;fill-rule:nonzero;stroke:none;stroke-width:0.37911922;stroke-linecap:round;stroke-linejoin:round;stroke-miterlimit:4;stroke-dasharray:none;stroke-opacity:1"
         id="circle895"
         cx="16.933332"
         cy="280.32712"
         r="16.408297" />
      <circle
         r="16.466408"
         cy="279.86469"
         cx="16.933332"
         id="path826"
         style="opacity:1;fill:#535458;fill-opacity:1;fill-rule:nonzero;stroke:#000000;stroke-width:0.20070831;stroke-linecap:round;stroke-linejoin:round;stroke-miterlimit:4;stroke-dasharray:none;stroke-opacity:1" />
      <path
         inkscape:connector-curvature="0"
         id="circle859"
         d="m 7.4970123,274.48039 c -0.69642,0.0214 -1.4459604,0.43891 -2.2400992,1.54477 -0.2959995,2.87972 0.2494204,6.76623 0.4634297,9.74637 0.1609619,2.24148 0.6986346,5.05458 1.6765753,7.37031 a 16.408295,16.408295 0 0 0 9.5363819,3.07253 16.408295,16.408295 0 0 0 9.620602,-3.14091 c 0.924228,-2.27522 1.436495,-4.98875 1.592728,-7.16445 0.214002,-2.98014 0.759429,-6.86629 0.46343,-9.74599 -1.924512,-2.67994 -3.586791,-1.31974 -4.865066,-0.0672 -0.984833,-1.36878 -3.475317,-0.68216 -5.154378,-0.62508 -0.707828,0.024 -1.346435,0.13157 -1.973444,0.28666 -0.427799,-0.0793 -0.868535,-0.13314 -1.340815,-0.14918 -1.612645,-0.0548 -3.973626,-0.68956 -5.030494,0.47287 -0.7771969,-0.76981 -1.7017833,-1.63274 -2.7488507,-1.60067 z"
         style="opacity:1;fill:url(#linearGradient824);fill-opacity:1;fill-rule:nonzero;stroke:#998876;stroke-width:0.1;stroke-linecap:round;stroke-linejoin:round;stroke-miterlimit:4;stroke-dasharray:none;stroke-opacity:1" />
      <ellipse
         style="opacity:1;fill:#f2ddc7;fill-opacity:1;fill-rule:nonzero;stroke:#998876;stroke-width:0.1;stroke-linecap:round;stroke-linejoin:round;stroke-miterlimit:4;stroke-dasharray:none;stroke-opacity:1"
         id="ellipse839"
         cx="16.933332"
         cy="276.08054"
         rx="11.722836"
         ry="3.4493961" />
      <path
         sodipodi:nodetypes="ccssccccccccccscccccccccccsscccc"
         style="fill:#5b5b5b;fill-opacity:1;stroke-width:1"
         d="m 12.995788,292.81343 c -0.302804,-0.13189 -0.605257,-0.50622 -0.664597,-0.82253 -0.153727,-0.81943 0.384049,-1.50209 1.183296,-1.50209 0.693519,0 1.214059,0.52054 1.214059,1.21405 0,0.8922 -0.903968,1.47156 -1.732758,1.11057 z m 3.686067,-0.17243 c -0.08739,-0.60285 -0.274,-1.24082 -0.493154,-1.68599 -0.287515,-0.58402 -0.956688,-1.3221 -1.555221,-1.71538 -0.464555,-0.30524 -1.350127,-0.61814 -1.983544,-0.70084 l -0.349501,-0.0456 v -0.85229 -0.85229 l 0.482492,0.045 c 2.292839,0.21411 4.283262,1.68428 5.168811,3.81777 0.244005,0.58787 0.455771,1.5023 0.455771,1.96811 v 0.29742 h -0.84283 -0.842823 z m 3.068947,-0.48029 c -0.183246,-1.63982 -0.883101,-3.15755 -2.004828,-4.34773 -1.313283,-1.39345 -2.960784,-2.19601 -4.901705,-2.38781 l -0.507049,-0.0501 -0.02083,-0.87575 -0.02083,-0.87573 0.651631,0.0463 c 3.778962,0.26824 7.072845,2.88013 8.212456,6.5121 0.237581,0.75716 0.411757,1.73143 0.411757,2.30317 v 0.43184 h -0.868053 -0.868052 z"
         id="path833"
         inkscape:connector-curvature="0" />
      <ellipse
         ry="2.5688314"
         rx="10.868423"
         cy="276.20142"
         cx="16.933332"
         id="path830"
         style="opacity:1;fill:#e8bf94;fill-opacity:1;fill-rule:nonzero;stroke:#998876;stroke-width:0.1;stroke-linecap:round;stroke-linejoin:round;stroke-miterlimit:4;stroke-dasharray:none;stroke-opacity:1" />
      <path
         id="ellipse834"
         d="m 16.933527,274.96198 a 10.868423,1.9040912 0 0 0 -10.7366863,1.62447 10.868423,2.5688313 0 0 0 10.7366863,2.18381 10.868423,2.5688313 0 0 0 10.736305,-2.19023 10.868423,1.9040912 0 0 0 -10.736305,-1.61805 z"
         style="opacity:1;fill:#f39f44;fill-opacity:1;fill-rule:nonzero;stroke:#bc7b35;stroke-width:0.1;stroke-linecap:round;stroke-linejoin:round;stroke-miterlimit:4;stroke-dasharray:none;stroke-opacity:1"
         inkscape:connector-curvature="0" />
    </g>
  </g>
</svg>
