<?xml version="1.0" encoding="UTF-8" standalone="no"?>
<!-- Created with Inkscape (http://www.inkscape.org/) -->

<svg
   xmlns:dc="http://purl.org/dc/elements/1.1/"
   xmlns:cc="http://creativecommons.org/ns#"
   xmlns:rdf="http://www.w3.org/1999/02/22-rdf-syntax-ns#"
   xmlns:svg="http://www.w3.org/2000/svg"
   xmlns="http://www.w3.org/2000/svg"
   xmlns:xlink="http://www.w3.org/1999/xlink"
   xmlns:sodipodi="http://sodipodi.sourceforge.net/DTD/sodipodi-0.dtd"
   xmlns:inkscape="http://www.inkscape.org/namespaces/inkscape"
   width="128"
   height="128"
   viewBox="0 0 33.866666 33.866668"
   version="1.1"
   id="svg8"
   inkscape:version="0.92.2 5c3e80d, 2017-08-06"
   sodipodi:docname="cup.svg">
  <defs
     id="defs2">
    <linearGradient
       inkscape:collect="always"
       id="linearGradient822">
      <stop
         style="stop-color:#f9dec0;stop-opacity:1"
         offset="0"
         id="stop818" />
      <stop
         style="stop-color:#fcf4ea;stop-opacity:1"
         offset="1"
         id="stop820" />
    </linearGradient>
    <linearGradient
       inkscape:collect="always"
       xlink:href="#linearGradient822"
       id="linearGradient824"
       x1="12.93328"
       y1="30.147039"
       x2="23.251755"
       y2="18.041698"
       gradientUnits="userSpaceOnUse"
       gradientTransform="matrix(1.0158733,0,0,1.0158733,-0.26878385,263.1291)" />
  </defs>
  <sodipodi:namedview
     id="base"
     pagecolor="#ffffff"
     bordercolor="#666666"
     borderopacity="1.0"
     inkscape:pageopacity="0.0"
     inkscape:pageshadow="2"
     inkscape:zoom="0.7"
     inkscape:cx="190.88656"
     inkscape:cy="170.51738"
     inkscape:document-units="mm"
     inkscape:current-layer="layer1"
     showgrid="false"
     inkscape:window-width="1600"
     inkscape:window-height="792"
     inkscape:window-x="0"
     inkscape:window-y="0"
     inkscape:window-maximized="1"
     units="px" />
  <metadata
     id="metadata5">
    <rdf:RDF>
      <cc:Work
         rdf:about="">
        <dc:format>image/svg+xml</dc:format>
        <dc:type
           rdf:resource="http://purl.org/dc/dcmitype/StillImage" />
        <dc:title></dc:title>
      </cc:Work>
    </rdf:RDF>
  </metadata>
  <g
     inkscape:label="Layer 1"
     inkscape:groupmode="layer"
     id="layer1"
     transform="translate(0,-263.13332)">
    <g
       id="g904"
       transform="matrix(0.98437472,0,0,0.98437472,0.26458895,4.1156696)"
       style="stroke-width:1.01587331">
      <circle
         style="opacity:0.25;fill:#000000;fill-opacity:1;fill-rule:nonzero;stroke:none;stroke-width:0.38513708;stroke-linecap:round;stroke-linejoin:round;stroke-miterlimit:4;stroke-dasharray:none;stroke-opacity:1"
         id="circle895"
         cx="16.933332"
         cy="280.59583"
         r="16.668751" />
      <circle
         r="16.668751"
         cy="280.06665"
         cx="16.933332"
         id="path826"
         style="opacity:1;fill:#535458;fill-opacity:1;fill-rule:nonzero;stroke:none;stroke-width:0.38513708;stroke-linecap:round;stroke-linejoin:round;stroke-miterlimit:4;stroke-dasharray:none;stroke-opacity:1" />
      <path
         inkscape:connector-curvature="0"
         id="circle859"
         d="m 7.3472258,274.6563 c -0.7074745,0.0217 -1.4689126,0.44588 -2.275657,1.56929 -0.300698,2.92543 0.2533796,6.87364 0.4707859,9.90108 0.1635169,2.27706 0.7097242,5.13481 1.7031881,7.4873 a 16.668749,16.668749 0 0 0 9.6877562,3.1213 16.668749,16.668749 0 0 0 9.773312,-3.19076 c 0.938899,-2.31134 1.459297,-5.06794 1.61801,-7.27818 0.217399,-3.02744 0.771484,-6.97528 0.470786,-9.90069 -1.95506,-2.72248 -3.643725,-1.34069 -4.94229,-0.0683 -1.000466,-1.3905 -3.530482,-0.69298 -5.236195,-0.635 -0.719064,0.0244 -1.367808,0.13366 -2.004769,0.29121 -0.43459,-0.0806 -0.882322,-0.13525 -1.362099,-0.15155 -1.638243,-0.0557 -4.0367,-0.7005 -5.110344,0.48038 -0.7895337,-0.78203 -1.7287964,-1.65866 -2.7924842,-1.62608 z"
         style="opacity:1;fill:url(#linearGradient824);fill-opacity:1;fill-rule:nonzero;stroke:none;stroke-width:0.38513702;stroke-linecap:round;stroke-linejoin:round;stroke-miterlimit:4;stroke-dasharray:none;stroke-opacity:1" />
      <ellipse
         style="opacity:1;fill:#f2ddc7;fill-opacity:1;fill-rule:nonzero;stroke:none;stroke-width:0.50680172;stroke-linecap:round;stroke-linejoin:round;stroke-miterlimit:4;stroke-dasharray:none;stroke-opacity:1"
         id="ellipse839"
         cx="16.933332"
         cy="276.28186"
         rx="11.908916"
         ry="3.5041494" />
      <path
         sodipodi:nodetypes="ccssccccccccccscccccccccccsscccc"
         style="fill:#5b5b5b;fill-opacity:1;stroke-width:1.01587331"
         d="m 12.933285,293.28035 c -0.30761,-0.13399 -0.614864,-0.51426 -0.675146,-0.83559 -0.156167,-0.83244 0.390145,-1.52593 1.202079,-1.52593 0.704527,0 1.23333,0.5288 1.23333,1.23332 0,0.90636 -0.918317,1.49492 -1.760263,1.1282 z m 3.744577,-0.17517 c -0.08878,-0.61242 -0.278349,-1.26052 -0.500982,-1.71275 -0.292078,-0.59329 -0.971873,-1.34309 -1.579907,-1.74261 -0.471929,-0.31009 -1.371558,-0.62795 -2.01503,-0.71196 l -0.355048,-0.0463 v -0.86582 -0.86582 l 0.49015,0.0457 c 2.329234,0.21751 4.351252,1.71101 5.250858,3.87837 0.247878,0.5972 0.463005,1.52615 0.463005,1.99935 v 0.30214 H 17.5747 16.718498 Z m 3.117662,-0.48791 c -0.186155,-1.66585 -0.897119,-3.20767 -2.036652,-4.41675 -1.334129,-1.41556 -3.007781,-2.23086 -4.979511,-2.42571 l -0.515097,-0.0509 -0.02116,-0.88965 -0.02116,-0.88964 0.661975,0.047 c 3.838946,0.2725 7.185114,2.92585 8.342815,6.61547 0.241352,0.76918 0.418293,1.75891 0.418293,2.33973 v 0.43869 h -0.881832 -0.881831 z"
         id="path833"
         inkscape:connector-curvature="0" />
      <ellipse
         ry="2.6096072"
         rx="11.040941"
         cy="276.40463"
         cx="16.933332"
         id="path830"
         style="opacity:1;fill:#e8bf94;fill-opacity:1;fill-rule:nonzero;stroke:none;stroke-width:0.42111555;stroke-linecap:round;stroke-linejoin:round;stroke-miterlimit:4;stroke-dasharray:none;stroke-opacity:1" />
      <path
         id="ellipse834"
         d="m 16.933529,275.14554 a 11.040941,1.9343154 0 0 0 -10.9071128,1.65025 11.040941,2.6096071 0 0 0 10.9071128,2.21848 11.040941,2.6096071 0 0 0 10.906726,-2.225 11.040941,1.9343154 0 0 0 -10.906726,-1.64373 z"
         style="opacity:1;fill:#f39f44;fill-opacity:1;fill-rule:nonzero;stroke:none;stroke-width:0.42111555;stroke-linecap:round;stroke-linejoin:round;stroke-miterlimit:4;stroke-dasharray:none;stroke-opacity:1"
         inkscape:connector-curvature="0" />
    </g>
  </g>
</svg>
