<?xml version="1.0" encoding="UTF-8" standalone="no"?>
<!-- Created with Inkscape (http://www.inkscape.org/) -->

<svg
   xmlns:osb="http://www.openswatchbook.org/uri/2009/osb"
   xmlns:dc="http://purl.org/dc/elements/1.1/"
   xmlns:cc="http://creativecommons.org/ns#"
   xmlns:rdf="http://www.w3.org/1999/02/22-rdf-syntax-ns#"
   xmlns:svg="http://www.w3.org/2000/svg"
   xmlns="http://www.w3.org/2000/svg"
   xmlns:xlink="http://www.w3.org/1999/xlink"
   xmlns:sodipodi="http://sodipodi.sourceforge.net/DTD/sodipodi-0.dtd"
   xmlns:inkscape="http://www.inkscape.org/namespaces/inkscape"
   width="128"
   height="128"
   viewBox="0 0 33.866666 33.866668"
   version="1.1"
   id="svg8"
   inkscape:version="0.92.2 5c3e80d, 2017-08-06"
   sodipodi:docname="calibre-viewer 2.svg">
  <defs
     id="defs2">
    <linearGradient
       inkscape:collect="always"
       id="linearGradient1510">
      <stop
         style="stop-color:#fafafb;stop-opacity:1"
         offset="0"
         id="stop1506" />
      <stop
         style="stop-color:#ebeef2;stop-opacity:1"
         offset="1"
         id="stop1508" />
    </linearGradient>
    <linearGradient
       osb:paint="solid"
       id="linearGradient6987">
      <stop
         id="stop6985"
         offset="0"
         style="stop-color:#77d2fb;stop-opacity:1;" />
    </linearGradient>
    <linearGradient
       inkscape:collect="always"
       xlink:href="#linearGradient1510"
       id="linearGradient1512"
       x1="-358.89478"
       y1="92.845787"
       x2="-360.71237"
       y2="137.85843"
       gradientUnits="userSpaceOnUse" />
    <linearGradient
       inkscape:collect="always"
       xlink:href="#linearGradient1510"
       id="linearGradient1514"
       gradientUnits="userSpaceOnUse"
       x1="-358.89478"
       y1="92.845787"
       x2="-360.71237"
       y2="137.85843" />
    <linearGradient
       inkscape:collect="always"
       xlink:href="#linearGradient1510"
       id="linearGradient1516"
       gradientUnits="userSpaceOnUse"
       x1="-358.89478"
       y1="92.845787"
       x2="-360.71237"
       y2="137.85843" />
    <linearGradient
       y2="71.020111"
       x2="84.091423"
       y1="117.04197"
       x1="122.34071"
       gradientUnits="userSpaceOnUse"
       id="linearGradient948"
       xlink:href="#linearGradient944"
       inkscape:collect="always"
       gradientTransform="matrix(0.26458333,0,0,0.26458333,-57.71897,262.24419)" />
    <linearGradient
       id="linearGradient944"
       inkscape:collect="always">
      <stop
         id="stop940"
         offset="0"
         style="stop-color:#d5dada;stop-opacity:1" />
      <stop
         id="stop942"
         offset="1"
         style="stop-color:#f1f1f1;stop-opacity:1" />
    </linearGradient>
    <linearGradient
       x1="45.447727"
       y1="92.539597"
       x2="45.447727"
       y2="7.0165396"
       id="ButtonShadow"
       gradientUnits="userSpaceOnUse"
       gradientTransform="matrix(1.0058652,0,0,0.994169,2548.5715,-34.051766)">
      <stop
         id="stop3750"
         style="stop-color:#000000;stop-opacity:1"
         offset="0" />
      <stop
         id="stop3752"
         style="stop-color:#000000;stop-opacity:0.58823532"
         offset="1" />
    </linearGradient>
    <linearGradient
       id="linearGradient3737">
      <stop
         id="stop3739"
         style="stop-color:#ffffff;stop-opacity:1"
         offset="0" />
      <stop
         id="stop3741"
         style="stop-color:#ffffff;stop-opacity:0"
         offset="1" />
    </linearGradient>
    <filter
       style="color-interpolation-filters:sRGB"
       id="filter3174">
      <feGaussianBlur
         id="feGaussianBlur3176"
         stdDeviation="1.71" />
    </filter>
    <filter
       style="color-interpolation-filters:sRGB"
       x="-0.192"
       y="-0.192"
       width="1.3839999"
       height="1.3839999"
       id="filter3794">
      <feGaussianBlur
         id="feGaussianBlur3796"
         stdDeviation="5.28" />
    </filter>
    <linearGradient
       gradientTransform="translate(2548.5715,-34.051766)"
       x1="48"
       y1="20.220806"
       x2="48"
       y2="138.66119"
       id="linearGradient3613"
       xlink:href="#linearGradient3737"
       gradientUnits="userSpaceOnUse" />
    <clipPath
       id="clipPath3613">
      <rect
         width="84"
         height="84"
         rx="6"
         ry="6"
         x="6"
         y="6"
         id="rect3615"
         style="fill:#ffffff;fill-opacity:1;fill-rule:nonzero;stroke:none" />
    </clipPath>
    <linearGradient
       y2="71.020111"
       x2="84.091423"
       y1="117.04197"
       x1="122.34071"
       gradientUnits="userSpaceOnUse"
       id="linearGradient948-2"
       xlink:href="#linearGradient944"
       inkscape:collect="always"
       gradientTransform="matrix(0.26458333,0,0,0.26458333,-85.492075,256.99651)" />
  </defs>
  <sodipodi:namedview
     id="base"
     pagecolor="#ffffff"
     bordercolor="#666666"
     borderopacity="1.0"
     inkscape:pageopacity="0.0"
     inkscape:pageshadow="2"
     inkscape:zoom="4.136719"
     inkscape:cx="50.229794"
     inkscape:cy="70.01861"
     inkscape:document-units="mm"
     inkscape:current-layer="layer1"
     showgrid="false"
     units="px"
     inkscape:window-width="1600"
     inkscape:window-height="803"
     inkscape:window-x="0"
     inkscape:window-y="0"
     inkscape:window-maximized="1" />
  <metadata
     id="metadata5">
    <rdf:RDF>
      <cc:Work
         rdf:about="">
        <dc:format>image/svg+xml</dc:format>
        <dc:type
           rdf:resource="http://purl.org/dc/dcmitype/StillImage" />
        <dc:title />
      </cc:Work>
    </rdf:RDF>
  </metadata>
  <g
     inkscape:label="Layer 1"
     inkscape:groupmode="layer"
     id="layer1"
     transform="translate(0,-263.13332)">
    <path
       inkscape:connector-curvature="0"
       d=""
       style="opacity:1;fill:url(#linearGradient948);fill-opacity:1;stroke:none;stroke-width:0.57240593;stroke-linecap:round;stroke-linejoin:round;stroke-miterlimit:4;stroke-dasharray:none;stroke-dashoffset:0;stroke-opacity:0.03831416;paint-order:fill markers stroke"
       id="path864"
       r="28.431282"
       cy="97.610519"
       cx="103.31834" />
    <g
       id="layer2"
       style="display:none"
       transform="matrix(0.26458333,0,0,0.26458333,-440.37336,228.6677)">
      <rect
         width="86"
         height="85"
         rx="6"
         ry="6"
         x="5"
         y="7"
         id="rect3745"
         style="opacity:0.9;fill:url(#ButtonShadow);fill-opacity:1;fill-rule:nonzero;stroke:none;filter:url(#filter3174)" />
    </g>
    <g
       id="layer5"
       style="display:none"
       transform="matrix(0.26458333,0,0,0.26458333,-440.37336,228.6677)">
      <rect
         width="66"
         height="66"
         rx="12"
         ry="12"
         x="15"
         y="15"
         clip-path="url(#clipPath3613)"
         id="rect3171"
         style="opacity:0.1;fill:url(#linearGradient3613);fill-opacity:1;fill-rule:nonzero;stroke:#ffffff;stroke-width:0.5;stroke-linecap:round;stroke-linejoin:miter;stroke-miterlimit:4;stroke-dasharray:none;stroke-dashoffset:0;stroke-opacity:1;filter:url(#filter3794)" />
    </g>
    <path
       inkscape:connector-curvature="0"
       d=""
       style="opacity:1;fill:url(#linearGradient948-2);fill-opacity:1;stroke:none;stroke-width:0.57240593;stroke-linecap:round;stroke-linejoin:round;stroke-miterlimit:4;stroke-dasharray:none;stroke-dashoffset:0;stroke-opacity:0.03831416;paint-order:fill markers stroke"
       id="path864-5"
       r="28.431282"
       cy="97.610519"
       cx="103.31834" />
    <g
       id="g1431"
       transform="rotate(-9,-359.70594,-74.003552)">
      <rect
         style="opacity:0.25;fill:#000000;fill-opacity:1;fill-rule:nonzero;stroke:none;stroke-width:0.19635165;stroke-linecap:round;stroke-linejoin:round;stroke-miterlimit:4;stroke-dasharray:none;stroke-dashoffset:0;stroke-opacity:1;paint-order:markers fill stroke"
         id="rect959"
         width="28.46172"
         height="23.07823"
         x="320.70111"
         y="31.600796"
         ry="2.0474997"
         transform="rotate(90)" />
      <rect
         transform="rotate(90)"
         ry="2.0474997"
         y="31.519543"
         x="320.18799"
         height="23.07823"
         width="28.46172"
         id="rect908"
         style="opacity:1;fill:#fd9809;fill-opacity:1;fill-rule:nonzero;stroke:#733506;stroke-width:0.19635165;stroke-linecap:round;stroke-linejoin:round;stroke-miterlimit:4;stroke-dasharray:none;stroke-dashoffset:0;stroke-opacity:1;paint-order:markers fill stroke" />
      <path
         inkscape:connector-curvature="0"
         id="rect918"
         d="m -50.295161,320.18801 -2.25513,10e-6 c -1.134309,0 -2.047446,0.91315 -2.047447,2.04746 l -4.2e-5,24.36672 c -3e-6,1.13432 0.913238,2.04747 2.047557,2.04747 l 2.377472,5e-5 z"
         style="opacity:1;fill:#fc7608;fill-opacity:1;fill-rule:nonzero;stroke:#733506;stroke-width:0.2;stroke-linecap:round;stroke-linejoin:round;stroke-miterlimit:4;stroke-dasharray:none;stroke-dashoffset:0;stroke-opacity:1;paint-order:markers fill stroke" />
      <g
         transform="translate(0,0.33277874)"
         id="g1419">
        <g
           transform="matrix(0.1848346,0,0,0.18504102,26.987466,312.55094)"
           style="opacity:0.25;fill:#000000;fill-opacity:1;stroke-width:3.85031128"
           id="g1375">
          <path
             style="fill:#000000;fill-opacity:1;stroke:none;stroke-width:1.01872814px;stroke-linecap:butt;stroke-linejoin:miter;stroke-opacity:1"
             d="m -364.869,150.97143 c 0.27579,-0.54462 1.32206,-3.81175 3.7529,-6.78769 2.87183,-3.51582 7.73076,-6.50228 14.24771,-6.76345 4.1342,-0.23655 8.17407,0.2837 12.23591,2.25756 5.20094,2.5274 7.92369,5.78194 8.05708,2.32691 0,-2.08998 0.0674,-31.34739 0.0674,-47.395235 0,-1.553199 -0.65853,-2.81113 -2.12946,-4.144545 -1.48322,-1.550628 -8.37828,-7.028225 -19.90004,-5.622963 -7.85143,0.957608 -13.83715,5.924652 -15.32035,9.902345 -1.05418,2.499858 -1.01115,5.932828 -1.01115,5.932828 z"
             id="path1371"
             inkscape:connector-curvature="0"
             sodipodi:nodetypes="cscscscsccc" />
          <path
             sodipodi:nodetypes="cscscscsccc"
             inkscape:connector-curvature="0"
             id="path1373"
             d="m -367.7684,150.97143 c -0.27579,-0.54462 -1.32206,-3.81175 -3.7529,-6.78769 -2.87183,-3.51582 -7.73076,-6.50228 -14.24771,-6.76345 -4.1342,-0.23655 -8.17407,0.2837 -12.23591,2.25756 -5.20094,2.5274 -7.92369,5.78194 -8.05708,2.32691 0,-2.08998 -0.0674,-31.34739 -0.0674,-47.395235 0,-1.553199 0.65853,-2.81113 2.12946,-4.144545 1.48322,-1.550628 8.37828,-7.028225 19.90004,-5.622963 7.85143,0.957608 13.83715,5.924652 15.32035,9.902345 1.05418,2.499858 1.01115,5.932828 1.01115,5.932828 z"
             style="fill:#000000;fill-opacity:1;stroke:none;stroke-width:1.01872814px;stroke-linecap:butt;stroke-linejoin:miter;stroke-opacity:1" />
        </g>
        <g
           id="g2231"
           style="fill:url(#linearGradient1512);fill-opacity:1;stroke-width:3.85031128"
           transform="matrix(0.1848346,0,0,0.18504102,27.070247,312.02829)">
          <path
             sodipodi:nodetypes="cscscscsccc"
             inkscape:connector-curvature="0"
             id="path2225"
             d="m -364.869,150.97143 c 0.27579,-0.54462 1.32206,-3.81175 3.7529,-6.78769 2.87183,-3.51582 7.73076,-6.50228 14.24771,-6.76345 4.1342,-0.23655 8.17407,0.2837 12.23591,2.25756 5.20094,2.5274 7.92369,5.78194 8.05708,2.32691 0,-2.08998 0.0674,-31.34739 0.0674,-47.395235 0,-1.553199 -0.65853,-2.81113 -2.12946,-4.144545 -1.48322,-1.550628 -8.37828,-7.028225 -19.90004,-5.622963 -7.85143,0.957608 -13.83715,5.924652 -15.32035,9.902345 -1.05418,2.499858 -1.01115,5.932828 -1.01115,5.932828 z"
             style="fill:url(#linearGradient1514);fill-opacity:1;stroke:none;stroke-width:1.01872814px;stroke-linecap:butt;stroke-linejoin:miter;stroke-opacity:1" />
          <path
             style="fill:url(#linearGradient1516);fill-opacity:1;stroke:none;stroke-width:1.01872814px;stroke-linecap:butt;stroke-linejoin:miter;stroke-opacity:1"
             d="m -367.7684,150.97143 c -0.27579,-0.54462 -1.32206,-3.81175 -3.7529,-6.78769 -2.87183,-3.51582 -7.73076,-6.50228 -14.24771,-6.76345 -4.1342,-0.23655 -8.17407,0.2837 -12.23591,2.25756 -5.20094,2.5274 -7.92369,5.78194 -8.05708,2.32691 0,-2.08998 -0.0674,-31.34739 -0.0674,-47.395235 0,-1.553199 0.65853,-2.81113 2.12946,-4.144545 1.48322,-1.550628 8.37828,-7.028225 19.90004,-5.622963 7.85143,0.957608 13.83715,5.924652 15.32035,9.902345 1.05418,2.499858 1.01115,5.932828 1.01115,5.932828 z"
             id="path2227"
             inkscape:connector-curvature="0"
             sodipodi:nodetypes="cscscscsccc" />
        </g>
      </g>
    </g>
    <path
       sodipodi:nodetypes="ccsscccsccccsccccccscssccscccscsccccccsc"
       style="fill:#000000;stroke-width:0.06827503;opacity:0.25"
       d="m 12.154737,292.24526 c 0.07955,-1.22368 0.0801,-1.2254 0.6627,-2.10716 0.294933,-0.44638 0.568463,-0.81159 0.607844,-0.81159 0.09255,0 1.500824,0.94391 1.500824,1.00595 0,0.0259 -0.248708,0.42251 -0.552686,0.8814 l -0.552686,0.83435 -0.818151,0.44844 c -0.449982,0.24664 -0.835069,0.44843 -0.855747,0.44843 -0.02068,0 -0.01712,-0.31492 0.0079,-0.69982 z m 2.199759,-2.78139 c -0.64731,-0.42482 -0.921921,-0.64213 -0.885647,-0.70086 0.02892,-0.0468 0.514568,-0.77754 1.079223,-1.62383 0.564656,-0.84629 1.191694,-1.79155 1.393419,-2.10058 0.201725,-0.30902 0.395986,-0.57991 0.431691,-0.60198 0.05462,-0.0338 0.52429,0.26256 1.636283,1.03235 0.10996,0.0761 0.185882,0.18306 0.17156,0.24166 -0.02185,0.0894 -2.705495,4.167 -2.841019,4.31673 -0.02601,0.0287 -0.469487,-0.22484 -0.98551,-0.56349 z m 3.183129,-4.78563 c -0.535105,-0.34085 -0.971257,-0.6557 -0.969226,-0.69966 0.002,-0.044 0.117245,-0.24025 0.256031,-0.43619 0.138786,-0.19594 2.399519,-3.57555 5.02385,-7.51025 6.38285,-9.56991 6.12633,-9.18677 6.23813,-9.3175 0.0905,-0.10584 0.17882,-0.0618 1.08179,0.53984 0.54078,0.36029 0.98324,0.6858 0.98324,0.72335 0,0.0376 -0.70132,1.11574 -1.55849,2.39599 -0.85717,1.28024 -3.08726,4.61664 -4.955748,7.41421 -4.234202,6.33959 -5.026446,7.51029 -5.082278,7.5101 -0.02441,-7e-5 -0.482193,-0.27904 -1.017299,-0.61989 z M 29.41712,266.89745 c -0.53491,-0.35713 -0.97256,-0.67404 -0.97256,-0.70425 0,-0.0302 0.14712,-0.268 0.32693,-0.52842 l 0.32694,-0.4735 0.30461,0.0226 c 0.62158,0.0461 1.19458,0.42377 1.54614,1.01908 l 0.17164,0.29064 -0.31885,0.51159 c -0.17537,0.28137 -0.33988,0.51158 -0.36558,0.51158 -0.0257,0 -0.48437,-0.29219 -1.01927,-0.64932 z"
       id="path1574"
       inkscape:connector-curvature="0" />
    <path
       inkscape:connector-curvature="0"
       id="path1550"
       d="m 12.154737,291.71609 c 0.07955,-1.22368 0.0801,-1.2254 0.6627,-2.10716 0.294933,-0.44638 0.568463,-0.81159 0.607844,-0.81159 0.09255,0 1.500824,0.94391 1.500824,1.00595 0,0.0259 -0.248708,0.42251 -0.552686,0.8814 l -0.552686,0.83435 -0.818151,0.44844 c -0.449982,0.24664 -0.835069,0.44843 -0.855747,0.44843 -0.02068,0 -0.01712,-0.31492 0.0079,-0.69982 z m 2.199759,-2.78139 c -0.64731,-0.42482 -0.921921,-0.64213 -0.885647,-0.70086 0.02892,-0.0468 0.514568,-0.77754 1.079223,-1.62383 0.564656,-0.84629 1.191694,-1.79155 1.393419,-2.10058 0.201725,-0.30902 0.395986,-0.57991 0.431691,-0.60198 0.05462,-0.0338 0.52429,0.26256 1.636283,1.03235 0.10996,0.0761 0.185882,0.18306 0.17156,0.24166 -0.02185,0.0894 -2.705495,4.167 -2.841019,4.31673 -0.02601,0.0287 -0.469487,-0.22484 -0.98551,-0.56349 z m 3.183129,-4.78563 c -0.535105,-0.34085 -0.971257,-0.6557 -0.969226,-0.69966 0.002,-0.044 0.117245,-0.24025 0.256031,-0.43619 0.138786,-0.19594 2.399519,-3.57555 5.02385,-7.51025 6.38285,-9.56991 6.12633,-9.18677 6.23813,-9.3175 0.0905,-0.10584 0.17882,-0.0618 1.08179,0.53984 0.54078,0.36029 0.98324,0.6858 0.98324,0.72335 0,0.0376 -0.70132,1.11574 -1.55849,2.39599 -0.85717,1.28024 -3.08726,4.61664 -4.955748,7.41421 -4.234202,6.33959 -5.026446,7.51029 -5.082278,7.5101 -0.02441,-7e-5 -0.482193,-0.27904 -1.017299,-0.61989 z M 29.41712,266.36828 c -0.53491,-0.35713 -0.97256,-0.67404 -0.97256,-0.70425 0,-0.0302 0.14712,-0.268 0.32693,-0.52842 l 0.32694,-0.4735 0.30461,0.0226 c 0.62158,0.0461 1.19458,0.42377 1.54614,1.01908 l 0.17164,0.29064 -0.31885,0.51159 c -0.17537,0.28137 -0.33988,0.51158 -0.36558,0.51158 -0.0257,0 -0.48437,-0.29219 -1.01927,-0.64932 z"
       style="fill:#3e3e3e;stroke-width:0.06827503"
       sodipodi:nodetypes="ccsscccsccccsccccccscssccscccscsccccccsc" />
  </g>
</svg>
