<?xml version="1.0" encoding="UTF-8" standalone="no"?>
<!-- Created with Inkscape (http://www.inkscape.org/) -->

<svg
   xmlns:dc="http://purl.org/dc/elements/1.1/"
   xmlns:cc="http://creativecommons.org/ns#"
   xmlns:rdf="http://www.w3.org/1999/02/22-rdf-syntax-ns#"
   xmlns:svg="http://www.w3.org/2000/svg"
   xmlns="http://www.w3.org/2000/svg"
   xmlns:xlink="http://www.w3.org/1999/xlink"
   xmlns:sodipodi="http://sodipodi.sourceforge.net/DTD/sodipodi-0.dtd"
   xmlns:inkscape="http://www.inkscape.org/namespaces/inkscape"
   width="128"
   height="128"
   viewBox="0 0 33.866666 33.866668"
   version="1.1"
   id="svg8"
   inkscape:version="0.92.2 5c3e80d, 2017-08-06"
   sodipodi:docname="a.svg">
  <defs
     id="defs2">
    <linearGradient
       inkscape:collect="always"
       id="linearGradient2945">
      <stop
         style="stop-color:#013e6e;stop-opacity:1"
         offset="0"
         id="stop2941" />
      <stop
         style="stop-color:#118dbd;stop-opacity:1"
         offset="1"
         id="stop2943" />
    </linearGradient>
    <linearGradient
       inkscape:collect="always"
       xlink:href="#linearGradient2945"
       id="linearGradient2947"
       x1="154.2915"
       y1="259.60315"
       x2="156.17564"
       y2="237.82069"
       gradientUnits="userSpaceOnUse"
       gradientTransform="matrix(0.88396882,0,0,0.88396882,-120.19062,61.485955)" />
  </defs>
  <sodipodi:namedview
     id="base"
     pagecolor="#ffffff"
     bordercolor="#666666"
     borderopacity="1.0"
     inkscape:pageopacity="0.0"
     inkscape:pageshadow="2"
     inkscape:zoom="2.8"
     inkscape:cx="7.9554384"
     inkscape:cy="66.547464"
     inkscape:document-units="mm"
     inkscape:current-layer="layer1"
     showgrid="false"
     units="px"
     inkscape:window-width="1600"
     inkscape:window-height="803"
     inkscape:window-x="0"
     inkscape:window-y="0"
     inkscape:window-maximized="1" />
  <metadata
     id="metadata5">
    <rdf:RDF>
      <cc:Work
         rdf:about="">
        <dc:format>image/svg+xml</dc:format>
        <dc:type
           rdf:resource="http://purl.org/dc/dcmitype/StillImage" />
        <dc:title></dc:title>
      </cc:Work>
    </rdf:RDF>
  </metadata>
  <g
     inkscape:label="Layer 1"
     inkscape:groupmode="layer"
     id="layer1"
     transform="translate(0,-263.13332)">
    <g
       id="g3002"
       transform="matrix(1.2135247,0,0,1.2135247,-7.2463676,-59.807396)">
      <circle
         style="opacity:0.25;fill:#000000;fill-opacity:1;stroke:none;stroke-width:0.12062223;stroke-miterlimit:4;stroke-dasharray:none;stroke-dashoffset:0;stroke-opacity:1"
         id="circle2949"
         cx="19.925182"
         cy="280.33069"
         r="12.822842" />
      <circle
         r="12.822842"
         cy="279.86292"
         cx="19.925182"
         id="path2546"
         style="opacity:1;fill:url(#linearGradient2947);fill-opacity:1;stroke:#003359;stroke-width:0.1;stroke-miterlimit:4;stroke-dasharray:none;stroke-dashoffset:0;stroke-opacity:1" />
      <path
         inkscape:connector-curvature="0"
         style="opacity:0.25;fill:#000000;fill-opacity:1;stroke:none;stroke-width:0.1;stroke-miterlimit:4;stroke-dasharray:none;stroke-dashoffset:0;stroke-opacity:1"
         d="m 24.314795,271.95294 a 4.798855,4.798855 0 0 0 -0.817005,0.0589 4.798855,4.798855 0 0 0 -4.034896,5.02243 l -2.87786,4.71909 a 3.51844,3.51844 0 0 0 -0.507463,0.0393 3.51844,3.51844 0 0 0 -1.591634,0.68471 l -6.4518023,-2.26085 a 3.51844,3.51844 0 0 0 -0.8061523,-1.51205 12.822841,12.822841 0 0 0 -0.1255736,1.68775 12.822841,12.822841 0 0 0 0.6268352,3.91088 l 5.520076,1.93476 a 3.51844,3.51844 0 0 0 3.928959,2.50528 3.51844,3.51844 0 0 0 2.952792,-3.79822 l 4.439005,-3.4091 a 4.798855,4.798855 0 0 0 0.428915,-0.0444 4.798855,4.798855 0 0 0 3.98942,-5.4901 4.798855,4.798855 0 0 0 -4.673616,-4.04833 z m 0.06873,1.65054 a 3.1510173,3.1510173 0 0 1 2.977596,2.65565 3.1510173,3.1510173 0 0 1 -2.619995,3.60495 3.1510173,3.1510173 0 0 1 -3.604948,-2.61948 3.1510173,3.1510173 0 0 1 2.618962,-3.60546 3.1510173,3.1510173 0 0 1 0.628385,-0.0357 z m -0.102319,0.77308 a 2.3755639,2.3755639 0 0 0 -0.404626,0.0289 2.3755639,2.3755639 0 0 0 -1.974557,2.71818 2.3755639,2.3755639 0 0 0 2.71818,1.97404 2.3755639,2.3755639 0 0 0 1.974555,-2.71766 2.3755639,2.3755639 0 0 0 -2.313552,-2.0035 z m -7.538558,8.215 a 2.6783654,2.6783654 0 0 1 2.530595,2.25775 2.6783654,2.6783654 0 0 1 -2.226221,3.06389 2.6783654,2.6783654 0 0 1 -2.7373,-1.30379 l 1.737361,0.60874 c 1.034729,0.3626 2.159723,-0.17811 2.522327,-1.21284 0.362604,-1.03472 -0.178633,-2.15973 -1.213363,-2.52233 l -1.848982,-0.64802 a 2.6783654,2.6783654 0 0 1 0.701766,-0.21291 2.6783654,2.6783654 0 0 1 0.533817,-0.0305 z"
         id="path2996" />
      <path
         transform="matrix(0.26458333,0,0,0.26458333,0,263.13332)"
         id="circle2980"
         d="m 91.898438,31.333984 a 18.137405,18.137405 0 0 0 -3.087891,0.222657 18.137405,18.137405 0 0 0 -15.25,18.982421 L 62.683594,68.375 A 13.298041,13.298041 0 0 0 60.765625,68.523438 13.298041,13.298041 0 0 0 54.75,71.111328 L 30.365234,62.566406 a 13.298041,13.298041 0 0 0 -3.046875,-5.714844 48.464283,48.464283 0 0 0 -0.474609,6.378907 48.464283,48.464283 0 0 0 2.369141,14.78125 l 20.863281,7.3125 A 13.298041,13.298041 0 0 0 64.925781,94.792969 13.298041,13.298041 0 0 0 76.085938,80.4375 L 92.863281,67.552734 a 18.137405,18.137405 0 0 0 1.621094,-0.167968 18.137405,18.137405 0 0 0 15.078125,-20.75 18.137405,18.137405 0 0 0 -17.664062,-15.300782 z m 0.259765,6.238282 a 11.909357,11.909357 0 0 1 11.253907,10.037109 11.909357,11.909357 0 0 1 -9.902344,13.625 11.909357,11.909357 0 0 1 -13.625,-9.900391 11.909357,11.909357 0 0 1 9.898437,-13.626953 11.909357,11.909357 0 0 1 2.375,-0.134765 z m -0.386719,2.921875 a 8.9785092,8.9785092 0 0 0 -1.529296,0.109375 8.9785092,8.9785092 0 0 0 -7.462891,10.273437 8.9785092,8.9785092 0 0 0 10.273437,7.460938 8.9785092,8.9785092 0 0 0 7.462886,-10.271485 8.9785092,8.9785092 0 0 0 -8.744136,-7.572265 z M 63.279297,71.542969 A 10.122956,10.122956 0 0 1 72.84375,80.076172 10.122956,10.122956 0 0 1 64.429688,91.65625 10.122956,10.122956 0 0 1 54.083984,86.728516 l 6.566407,2.300781 c 3.910786,1.370457 8.162731,-0.673194 9.533203,-4.583985 1.370472,-3.910752 -0.675147,-8.162746 -4.585938,-9.533203 l -6.988281,-2.449218 a 10.122956,10.122956 0 0 1 2.652344,-0.804688 10.122956,10.122956 0 0 1 2.017578,-0.115234 z"
         style="opacity:1;fill:#ffffff;fill-opacity:1;stroke:#053b5a;stroke-width:0.37795275;stroke-miterlimit:4;stroke-dasharray:none;stroke-dashoffset:0;stroke-opacity:1"
         inkscape:connector-curvature="0" />
    </g>
  </g>
</svg>
