<?xml version="1.0" encoding="UTF-8" standalone="no"?>
<svg
   xmlns:dc="http://purl.org/dc/elements/1.1/"
   xmlns:cc="http://creativecommons.org/ns#"
   xmlns:rdf="http://www.w3.org/1999/02/22-rdf-syntax-ns#"
   xmlns:svg="http://www.w3.org/2000/svg"
   xmlns="http://www.w3.org/2000/svg"
   xmlns:sodipodi="http://sodipodi.sourceforge.net/DTD/sodipodi-0.dtd"
   xmlns:inkscape="http://www.inkscape.org/namespaces/inkscape"
   width="128"
   height="128"
   version="1.1"
   viewBox="0 0 96 96"
   id="svg22"
   sodipodi:docname="chromium-browser.svg"
   inkscape:version="0.92.2 5c3e80d, 2017-08-06">
  <metadata
     id="metadata28">
    <rdf:RDF>
      <cc:Work
         rdf:about="">
        <dc:format>image/svg+xml</dc:format>
        <dc:type
           rdf:resource="http://purl.org/dc/dcmitype/StillImage" />
        <dc:title />
      </cc:Work>
    </rdf:RDF>
  </metadata>
  <defs
     id="defs26" />
  <sodipodi:namedview
     pagecolor="#ffffff"
     bordercolor="#666666"
     borderopacity="1"
     objecttolerance="10"
     gridtolerance="10"
     guidetolerance="10"
     inkscape:pageopacity="0"
     inkscape:pageshadow="2"
     inkscape:window-width="1600"
     inkscape:window-height="803"
     id="namedview24"
     showgrid="false"
     units="px"
     inkscape:zoom="2.6074563"
     inkscape:cx="84.165083"
     inkscape:cy="29.63706"
     inkscape:window-x="0"
     inkscape:window-y="0"
     inkscape:window-maximized="1"
     inkscape:current-layer="svg22" />
  <g
     id="g2018"
     transform="matrix(0.99972341,0,0,0.99972341,0.01327819,8.2976355e-4)">
    <path
       inkscape:connector-curvature="0"
       id="path2004"
       d="m 48,4.5 c -15.91291,0 -29.862833,8.398862 -37.664062,21.004394 -4.1823772,6.758198 -6.5976567,14.725564 -6.5976567,23.257325 0,23.69672 18.6219507,43.044611 42.0307617,44.207516 C 46.507771,93.0051 47.25205,93.0249 48,93.0249 c 24.445696,0 44.261723,-19.817486 44.261715,-44.263181 0,-7.407787 -1.822875,-14.387217 -5.039055,-20.522461 C 79.824083,14.128609 65.037908,4.5 48,4.5 Z m 0,23.47705 c 1.14805,0 2.273161,0.09637 3.370606,0.275391 h 0.01758 l 0.0015,0.0029 c 9.866692,1.618969 17.396485,10.181532 17.396485,20.506348 0,5.31905 -2.000174,10.169388 -5.286621,13.845702 -3.80636,4.257893 -9.339093,6.940461 -15.49955,6.940461 -9.501925,0 -17.508967,-6.378018 -19.987793,-15.084961 -0.515904,-1.81213 -0.79834,-3.723589 -0.79834,-5.701172 C 27.213867,37.28221 36.520491,27.97705 48,27.97705 Z"
       style="opacity:0.25;fill:#000000;stroke-width:0.26229507" />
    <path
       transform="scale(0.75)"
       id="path1984"
       d="M 64,4 C 42.782787,4 24.182889,15.198483 13.78125,32.005859 l 23.568359,38.611329 c -0.687872,-2.416172 -1.064453,-4.964785 -1.064453,-7.601563 0,-15.306012 12.408832,-27.712891 27.714844,-27.712891 1.530733,0 3.030881,0.128489 4.494141,0.367188 l 47.802739,-0.01758 C 106.43212,16.838145 86.717211,4 64,4 Z M 13.775391,32.017578 c -14.31284097,68.461742 -7.1557377,34.230875 0,0 z"
       style="fill:#2861bf;stroke-width:0.34972677"
       inkscape:connector-curvature="0" />
    <path
       transform="scale(0.75)"
       id="path1979"
       d="m 13.78125,32.005859 c -5.5765023,9.01093 -8.796875,19.634085 -8.796875,31.009766 0,31.595627 24.829268,57.392815 56.041016,58.943355 L 84.666016,81.476562 C 79.59092,87.153711 72.213942,90.730469 64,90.730469 c -12.669234,0 -23.345289,-8.504024 -26.650391,-20.113281 z"
       style="fill:#4a87f0;stroke-width:0.34972677"
       inkscape:connector-curvature="0" />
    <path
       transform="scale(0.75)"
       id="path1974"
       d="m 116.29688,35.652344 -47.779302,0.01758 0.002,0.0039 c 13.155589,2.158626 23.195313,13.575376 23.195313,27.341797 0,7.092067 -2.666899,13.559185 -7.048828,18.460937 L 61.025391,121.95898 c 0.98497,0.0478 1.977342,0.0742 2.974609,0.0742 32.594261,0 59.01562,-26.423314 59.01562,-59.017575 0,-9.877049 -2.43049,-19.182956 -6.71874,-27.363281 z"
       style="fill:#7fc5eb;stroke-width:0.34972677"
       inkscape:connector-curvature="0" />
    <path
       id="path1989"
       transform="scale(0.75)"
       d="m 116.25977,35.652344 -47.742192,0.01758 0.002,0.0039 c 6.821679,1.119331 12.801708,4.732385 16.982422,9.867188 z"
       style="opacity:0.25;fill:#000000;stroke-width:0.34972677"
       inkscape:connector-curvature="0" />
    <path
       id="path1994"
       transform="scale(0.75)"
       d="m 84.652344,81.490234 c -4.232785,4.728321 -10.065851,7.988944 -16.646485,8.94336 l -6.980468,31.525386 5.269531,-9.02343 z"
       style="opacity:0.25;fill:#000000;stroke-width:0.34972677"
       inkscape:connector-curvature="0" />
    <path
       id="path1999"
       transform="scale(0.75)"
       d="m 13.833984,32.091797 23.515625,38.525391 c -0.687872,-2.416173 -1.064453,-4.964785 -1.064453,-7.601563 0,-3.514472 0.660213,-6.873123 1.853516,-9.966797 z"
       style="opacity:0.25;fill:#000000;stroke-width:0.34972677"
       inkscape:connector-curvature="0" />
  </g>
</svg>
