<?xml version="1.0" encoding="UTF-8" standalone="no"?>
<!-- Created with Inkscape (http://www.inkscape.org/) -->

<svg
   xmlns:osb="http://www.openswatchbook.org/uri/2009/osb"
   xmlns:dc="http://purl.org/dc/elements/1.1/"
   xmlns:cc="http://creativecommons.org/ns#"
   xmlns:rdf="http://www.w3.org/1999/02/22-rdf-syntax-ns#"
   xmlns:svg="http://www.w3.org/2000/svg"
   xmlns="http://www.w3.org/2000/svg"
   xmlns:xlink="http://www.w3.org/1999/xlink"
   xmlns:sodipodi="http://sodipodi.sourceforge.net/DTD/sodipodi-0.dtd"
   xmlns:inkscape="http://www.inkscape.org/namespaces/inkscape"
   width="128"
   height="128"
   viewBox="0 0 33.866666 33.866668"
   version="1.1"
   id="svg8"
   inkscape:version="0.92.2 5c3e80d, 2017-08-06"
   sodipodi:docname="deepin-music-player.svg">
  <defs
     id="defs2">
    <linearGradient
       inkscape:collect="always"
       id="linearGradient1083">
      <stop
         style="stop-color:#f05134;stop-opacity:1"
         offset="0"
         id="stop1079" />
      <stop
         style="stop-color:#fe7758;stop-opacity:1"
         offset="1"
         id="stop1081" />
    </linearGradient>
    <linearGradient
       osb:paint="solid"
       id="linearGradient6987">
      <stop
         id="stop6985"
         offset="0"
         style="stop-color:#77d2fb;stop-opacity:1;" />
    </linearGradient>
    <linearGradient
       inkscape:collect="always"
       xlink:href="#linearGradient1083"
       id="linearGradient1085"
       x1="15.569812"
       y1="291.80679"
       x2="15.816384"
       y2="267.20883"
       gradientUnits="userSpaceOnUse" />
  </defs>
  <sodipodi:namedview
     id="base"
     pagecolor="#ffffff"
     bordercolor="#666666"
     borderopacity="1.0"
     inkscape:pageopacity="0.0"
     inkscape:pageshadow="2"
     inkscape:zoom="2.5600001"
     inkscape:cx="77.644787"
     inkscape:cy="21.494035"
     inkscape:document-units="mm"
     inkscape:current-layer="layer1"
     showgrid="false"
     inkscape:window-width="1600"
     inkscape:window-height="803"
     inkscape:window-x="0"
     inkscape:window-y="0"
     inkscape:window-maximized="1"
     units="px" />
  <metadata
     id="metadata5">
    <rdf:RDF>
      <cc:Work
         rdf:about="">
        <dc:format>image/svg+xml</dc:format>
        <dc:type
           rdf:resource="http://purl.org/dc/dcmitype/StillImage" />
        <dc:title />
      </cc:Work>
    </rdf:RDF>
  </metadata>
  <g
     inkscape:label="Layer 1"
     inkscape:groupmode="layer"
     id="layer1"
     transform="translate(0,-263.13332)">
    <circle
       style="opacity:0.25;fill:#000000;fill-opacity:1;fill-rule:nonzero;stroke:none;stroke-width:0.18805525;stroke-linecap:round;stroke-miterlimit:4;stroke-dasharray:0.04701381, 0.04701381;stroke-dashoffset:0;stroke-opacity:1"
       id="circle831"
       cx="16.933332"
       cy="280.31543"
       r="15.626215" />
    <circle
       r="15.626215"
       cy="279.81787"
       cx="16.933332"
       id="circle3590"
       style="opacity:1;fill:url(#linearGradient1085);fill-opacity:1;fill-rule:nonzero;stroke:none;stroke-width:0.18805525;stroke-linecap:round;stroke-miterlimit:4;stroke-dasharray:0.04701381, 0.04701381000000000;stroke-dashoffset:0;stroke-opacity:1" />
    <path
       style="opacity:0.2;isolation:isolate;fill:#ffffff;stroke-width:0.17187895"
       inkscape:connector-curvature="0"
       d="m 16.933335,265.63786 c -7.8314949,0 -14.1800159,6.3487 -14.1800159,14.18001 0,7.8315 6.3486962,14.18001 14.1800159,14.18001 7.831321,0 14.18001,-6.34851 14.18001,-14.18001 a 14.179669,14.179669 0 0 0 -14.18001,-14.18001 z m 0.485386,2.55533 a 9.9236026,9.9236026 0 0 1 0.655889,0 c 1.393768,0.0435 3.18096,0.37555 3.792853,1.30456 0.505495,0.76726 -0.159678,1.55275 -0.530591,2.17616 -0.918175,1.54312 -1.726869,3.21637 -2.616512,4.79285 -0.241667,0.42831 -1.136813,1.89839 -1.717073,1.16465 -1.234606,-1.56136 -1.597613,-4.83187 -1.781183,-6.75331 -0.0586,-0.61274 -0.261252,-1.56701 0.02904,-2.13835 0.249909,-0.49191 1.144197,-0.44912 1.61944,-0.50584 a 6.8270319,6.8270319 0 0 1 0.548125,-0.041 z m -5.071119,0.99844 c 0.257301,0.0156 0.504982,0.0965 0.730317,0.2652 0.807316,0.60537 1.042784,1.88277 1.303009,2.77843 0.337576,1.16189 0.799242,2.21999 1.023369,3.424 0.09866,0.53007 0.737366,1.83808 0.01598,2.16156 -0.521309,0.23392 -1.319862,-0.34738 -1.776883,-0.54796 -1.604318,-0.70453 -3.259858,-1.79064 -4.6426221,-2.87313 -2.1881907,-1.71277 -0.4993114,-3.12029 1.1574301,-4.32035 0.563079,-0.40804 1.417487,-0.93501 2.189392,-0.88775 z m 11.827335,1.46922 c 1.323986,-0.12994 2.159834,1.30285 2.854052,2.18648 0.52062,0.66293 1.447219,2.21586 0.94757,3.06253 -0.330696,0.55998 -1.086278,0.66774 -1.639897,0.87469 -1.439321,0.53781 -2.904412,1.09763 -4.415228,1.43863 -0.590579,0.13321 -2.985712,0.99035 -3.390484,0.45188 -0.19818,-0.2635 0.10794,-0.76058 0.228769,-1.00292 0.467851,-0.93794 1.16379,-1.6595 1.711395,-2.53196 0.755757,-1.20435 1.678232,-2.24112 2.534706,-3.36126 0.332411,-0.43468 0.543479,-1.05672 1.169117,-1.11807 z m -17.1143304,4.96489 c 1.9097506,-0.0763 4.2773794,1.3869 5.8407904,2.20385 0.569093,0.29734 1.343748,0.48726 1.801809,0.95925 0.754716,0.77791 -0.529215,1.29751 -1.12684,1.41387 -1.92573,0.37487 -3.872431,0.5928 -5.8000586,0.94156 -0.6258061,0.11326 -1.8566304,0.38363 -2.358346,-0.15883 -1.251112,-1.35268 -0.6641403,-5.01852 1.2665731,-5.32326 a 3.2588248,3.2588248 0 0 1 0.3760721,-0.0366 z m 20.5936744,2.68201 c 0.174631,0.007 0.340668,0.0402 0.489854,0.10936 1.712948,0.7939 0.936397,4.93035 -0.72017,5.39183 -1.131478,0.31524 -2.481417,-0.37039 -3.485192,-0.82793 -1.297858,-0.59162 -2.658621,-0.97026 -3.899241,-1.69663 -0.373325,-0.2188 -1.239594,-0.7334 -0.93726,-1.26244 0.340149,-0.59522 1.426769,-0.64283 2.004282,-0.76813 1.635941,-0.35458 3.293372,-0.50549 4.957507,-0.71571 0.46407,-0.0586 1.066509,-0.25335 1.59022,-0.2303 z m -13.698919,2.52609 c 0.365243,-0.0182 0.685448,0.022 0.91388,0.15316 0.864035,0.4957 -0.26813,1.79578 -0.553795,2.31315 -0.914225,1.6557 -2.113251,3.38996 -3.271032,4.88324 -0.447225,0.57665 -1.0513787,1.24493 -1.8657438,0.81918 -1.2920126,-0.67548 -2.3378964,-2.45787 -2.8832728,-3.74628 -0.2086585,-0.49295 -0.5195867,-1.19455 -0.1502185,-1.68201 0.8643796,-1.14023 3.269134,-1.48657 4.5348571,-1.89066 0.675482,-0.21554 2.179421,-0.79493 3.275325,-0.84978 z m 4.795588,0.73617 c 0.521483,0.0618 1.196965,0.53316 1.50429,0.70986 1.568568,0.9015 3.275324,1.8312 4.59896,3.0493 0.288419,0.26538 0.781532,0.37435 1.007212,0.68958 0.315572,0.44052 0.08096,1.38757 -0.196803,1.79871 -0.703494,1.04142 -3.922445,3.38086 -5.008378,1.98092 -1.300437,-1.67584 -1.695928,-4.01167 -2.176329,-6.03898 -0.110861,-0.4675 -0.660015,-1.70212 -0.17927,-2.08885 0.119797,-0.0964 0.276552,-0.12117 0.450318,-0.10071 z m -2.217067,0.462 c 0.05035,-0.009 0.101924,-0.007 0.151603,0.005 0.380197,0.0892 0.539009,0.66517 0.683732,0.96802 0.492433,1.03094 0.731688,2.06341 0.951865,3.18785 0.226192,1.15605 1.105012,3.51562 0.460464,4.6091 -0.585075,0.9926 -3.348375,0.60313 -4.269298,0.38484 -0.749052,-0.17756 -1.970249,-0.31661 -2.400804,-1.04228 -0.333619,-0.56256 0.103809,-1.12133 0.352691,-1.61222 0.616362,-1.21552 1.298893,-2.38069 1.925563,-3.59312 0.275347,-0.53249 1.358871,-2.78049 2.144184,-2.90649 z"
       id="path983" />
    <path
       style="fill:#ffffff;fill-opacity:1;stroke:none;stroke-width:0.21391149px;stroke-linecap:butt;stroke-linejoin:miter;stroke-opacity:1"
       d="m 10.72459,289.31786 c 0,0 1.522195,0.0227 2.560053,-0.97646 1.03786,-0.99917 0.74933,-2.10009 0.780344,-3.19504 0.04975,-1.75649 -0.104573,-8.49253 -0.104573,-8.49253 0,0 -0.0063,-0.66499 0.670722,-0.79999 0.804686,-0.16258 7.855863,-1.52352 7.855863,-1.52352 0,0 0.484333,-0.11355 0.484333,0.34062 0,0.45417 0.136469,6.26076 -0.04613,7.15315 -0.06074,0.29681 -0.436704,0.48458 -0.738032,0.545 -0.9431,0.1891 -1.975748,0.16845 -2.998262,0.90833 -1.372754,1.15391 -0.821853,3.18695 0.60143,3.91077 1.740834,0.64411 3.983332,-0.26041 4.241916,-2.13951 0.115318,-0.56771 0.212723,-10.04108 0.06919,-14.98754 -0.0071,-0.2413 -0.161445,-0.5223 -0.553525,-0.47688 -0.39208,0.0454 -10.009578,1.95292 -10.009578,1.95292 0,0 -0.576588,0.15896 -0.622716,0.68126 -0.04612,0.52229 -0.120843,11.45366 -0.120843,11.45366 0,0 0.05166,0.55908 -0.686379,0.69533 -0.738033,0.13625 -2.053608,0.16159 -2.9982589,0.93104 -1.7841359,1.69354 -0.6189334,4.07165 1.6144439,4.01939 z"
       id="path4534"
       inkscape:connector-curvature="0"
       sodipodi:nodetypes="ccscccssscccssccccccc" />
  </g>
</svg>
