<?xml version="1.0" encoding="UTF-8" standalone="no"?>
<!-- Created with Inkscape (http://www.inkscape.org/) -->

<svg
   xmlns:dc="http://purl.org/dc/elements/1.1/"
   xmlns:cc="http://creativecommons.org/ns#"
   xmlns:rdf="http://www.w3.org/1999/02/22-rdf-syntax-ns#"
   xmlns:svg="http://www.w3.org/2000/svg"
   xmlns="http://www.w3.org/2000/svg"
   xmlns:xlink="http://www.w3.org/1999/xlink"
   xmlns:sodipodi="http://sodipodi.sourceforge.net/DTD/sodipodi-0.dtd"
   xmlns:inkscape="http://www.inkscape.org/namespaces/inkscape"
   version="1.1"
   id="svg2"
   width="128"
   height="128"
   viewBox="0 0 128 128"
   sodipodi:docname="8-ball-pool.svg"
   inkscape:version="0.92.2 5c3e80d, 2017-08-06">
  <metadata
     id="metadata8">
    <rdf:RDF>
      <cc:Work
         rdf:about="">
        <dc:format>image/svg+xml</dc:format>
        <dc:type
           rdf:resource="http://purl.org/dc/dcmitype/StillImage" />
        <dc:title></dc:title>
      </cc:Work>
    </rdf:RDF>
  </metadata>
  <defs
     id="defs6">
    <linearGradient
       inkscape:collect="always"
       id="linearGradient4541">
      <stop
         id="stop4539"
         offset="0"
         style="stop-color:#666666;stop-opacity:1" />
      <stop
         id="stop4537"
         offset="1"
         style="stop-color:#0e0e0e;stop-opacity:1" />
    </linearGradient>
    <radialGradient
       inkscape:collect="always"
       xlink:href="#linearGradient4541"
       id="radialGradient847"
       cx="55.240364"
       cy="17.952141"
       fx="55.240364"
       fy="17.952141"
       r="60"
       gradientUnits="userSpaceOnUse"
       gradientTransform="matrix(-1.1352822,0.90684074,-0.82156255,-1.0285216,146.87268,-15.030531)" />
  </defs>
  <sodipodi:namedview
     pagecolor="#ffffff"
     bordercolor="#666666"
     borderopacity="1"
     objecttolerance="10"
     gridtolerance="10"
     guidetolerance="10"
     inkscape:pageopacity="0"
     inkscape:pageshadow="2"
     inkscape:window-width="1600"
     inkscape:window-height="803"
     id="namedview4"
     showgrid="false"
     inkscape:zoom="3.5751319"
     inkscape:cx="76.20124"
     inkscape:cy="33.405104"
     inkscape:window-x="0"
     inkscape:window-y="0"
     inkscape:window-maximized="1"
     inkscape:current-layer="svg2" />
  <path
     id="path850-9"
     d="m 76.934264,29.508628 c -3.545424,0 -7.185703,4.903043 -7.185703,14.371405 0,8.622842 2.874281,14.3714 2.874281,14.3714 0,0 22.99425,-2.87428 22.99425,-14.3714 0,-8.622844 -8.096371,-15.62555 -11.497126,-8.622844 -1.283845,-3.851536 -3.752852,-5.748561 -7.185702,-5.748561 z m -33.054232,2.87428 c -8.622843,0 -15.625549,8.096371 -8.622843,11.497125 -3.851536,1.283844 -5.748562,3.752852 -5.748562,7.185702 0,3.545425 4.903045,7.185698 14.371405,7.185698 8.622844,0 14.371405,-2.87428 14.371405,-2.87428 0,0 -2.874281,-22.994245 -14.371405,-22.994245 z m 11.497124,37.365654 c 0,0 -22.994248,2.87428 -22.994248,14.371399 0,8.622849 8.09637,15.625546 11.497124,8.622849 1.283846,3.85153 3.752852,5.748561 7.185704,5.748561 3.545425,0 7.185702,-4.90305 7.185702,-14.37141 0,-8.62284 -2.874282,-14.371399 -2.874282,-14.371399 z m 28.742811,0 c -8.622843,0 -14.371405,2.87428 -14.371405,2.87428 0,0 2.874281,22.994248 14.371405,22.994248 8.622845,0 15.625552,-8.096371 8.622845,-11.497129 3.851535,-1.28384 5.74856,-3.752849 5.74856,-7.185695 0,-3.545424 -4.903043,-7.185704 -14.371405,-7.185704 z"
     inkscape:connector-curvature="0"
     style="isolation:isolate;fill:#f9f9f9;stroke-width:0.47904685" />
  <path
     style="fill:#000000;stroke-width:1.33333337"
     d=""
     id="path849"
     inkscape:connector-curvature="0" />
  <path
     style="fill:#000000;stroke-width:1.33333337"
     d=""
     id="path847"
     inkscape:connector-curvature="0" />
  <circle
     id="path12-3"
     cx="64"
     cy="64"
     r="60"
     style="fill:url(#radialGradient847);fill-opacity:1;stroke:none;stroke-width:4.60148573;stroke-miterlimit:4;stroke-dasharray:none;stroke-opacity:1" />
  <g
     id="g844" />
  <path
     style="fill:#f2f2f2;fill-opacity:1;stroke-width:0.99066299"
     d="M 63.999999,30.102687 A 33.897291,33.897291 0 0 0 30.102685,64 33.897291,33.897291 0 0 0 63.999999,97.897312 33.897291,33.897291 0 0 0 97.897315,64 33.897291,33.897291 0 0 0 63.999999,30.102687 Z m -0.116093,9.778927 c 5.078799,0 8.971317,1.086826 11.677052,3.260287 2.727915,2.151282 4.09229,5.221869 4.09229,9.213939 0,2.550489 -0.777134,4.792304 -2.329606,6.721805 -1.530293,1.929499 -3.592928,3.148775 -6.187774,3.658873 v 0.133508 c 3.016231,0.48792 5.379778,1.728626 7.087497,3.72466 1.729897,1.973856 2.594686,4.525362 2.594686,7.652484 0,4.391277 -1.453964,7.805638 -4.359304,10.245237 -2.905339,2.417419 -7.05204,3.625981 -12.441333,3.625981 -5.344938,0 -9.491638,-1.208562 -12.441334,-3.625981 -2.927518,-2.417421 -4.392198,-5.810352 -4.392198,-10.17945 0,-2.994052 0.864789,-5.511479 2.594686,-7.55187 1.729897,-2.062569 4.04865,-3.337355 6.95399,-3.825275 v -0.133508 c -2.528311,-0.554455 -4.569516,-1.807811 -6.121988,-3.759489 -1.552471,-1.951679 -2.327671,-4.202273 -2.327671,-6.752761 0,-3.836822 1.351725,-6.864551 4.057461,-9.082368 2.727915,-2.217816 6.575637,-3.326073 11.543546,-3.326072 z m 0,6.553467 c -4.036426,0 -6.054266,2.139575 -6.054266,6.419961 0,4.479989 2.041205,6.719869 6.121987,6.719869 2.040391,0 3.558645,-0.521018 4.556663,-1.56339 1.020196,-1.042375 1.530496,-2.761236 1.530496,-5.156478 0,-2.217818 -0.5103,-3.836375 -1.530496,-4.856572 -1.020196,-1.042372 -2.561815,-1.563389 -4.624384,-1.56339 z m -0.06579,19.695232 c -2.262173,0 -4.002466,0.642751 -5.222265,1.929084 -1.19762,1.286333 -1.797511,3.137646 -1.797511,5.555066 0,2.750091 0.599891,4.757217 1.797511,6.021372 1.197622,1.264155 3.025568,1.896191 5.487345,1.896191 2.417419,0 4.191792,-0.632036 5.322878,-1.896191 1.153265,-1.264155 1.72979,-3.316075 1.72979,-6.154882 0,-4.901375 -2.438552,-7.35064 -7.317748,-7.35064 z"
     id="path844"
     inkscape:connector-curvature="0" />
</svg>
