<?xml version="1.0" encoding="UTF-8" standalone="no"?>
<!-- Created with Inkscape (http://www.inkscape.org/) -->

<svg
   xmlns:osb="http://www.openswatchbook.org/uri/2009/osb"
   xmlns:dc="http://purl.org/dc/elements/1.1/"
   xmlns:cc="http://creativecommons.org/ns#"
   xmlns:rdf="http://www.w3.org/1999/02/22-rdf-syntax-ns#"
   xmlns:svg="http://www.w3.org/2000/svg"
   xmlns="http://www.w3.org/2000/svg"
   xmlns:xlink="http://www.w3.org/1999/xlink"
   xmlns:sodipodi="http://sodipodi.sourceforge.net/DTD/sodipodi-0.dtd"
   xmlns:inkscape="http://www.inkscape.org/namespaces/inkscape"
   width="128"
   height="128"
   viewBox="0 0 33.866666 33.866668"
   version="1.1"
   id="svg8"
   sodipodi:docname="user_icon 2.svg"
   inkscape:version="0.92.2 5c3e80d, 2017-08-06">
  <defs
     id="defs2">
    <linearGradient
       inkscape:collect="always"
       id="linearGradient957">
      <stop
         style="stop-color:#e89143;stop-opacity:1"
         offset="0"
         id="stop953" />
      <stop
         style="stop-color:#edb668;stop-opacity:1"
         offset="1"
         id="stop955" />
    </linearGradient>
    <linearGradient
       id="linearGradient6987"
       osb:paint="solid">
      <stop
         style="stop-color:#77d2fb;stop-opacity:1;"
         offset="0"
         id="stop6985" />
    </linearGradient>
    <linearGradient
       inkscape:collect="always"
       xlink:href="#linearGradient957"
       id="linearGradient959"
       x1="98.058289"
       y1="290.15744"
       x2="98.95594"
       y2="268.22507"
       gradientUnits="userSpaceOnUse"
       gradientTransform="matrix(1.0967175,0,0,1.0967175,-92.871343,-24.931533)" />
    <linearGradient
       inkscape:collect="always"
       id="linearGradient8907">
      <stop
         style="stop-color:#632c06;stop-opacity:1"
         offset="0"
         id="stop8909" />
      <stop
         style="stop-color:#a74f0c;stop-opacity:0"
         offset="1"
         id="stop8911" />
    </linearGradient>
    <linearGradient
       id="linearGradient8901"
       inkscape:collect="always">
      <stop
         id="stop8903"
         offset="0"
         style="stop-color:#aa540d;stop-opacity:1" />
      <stop
         id="stop8905"
         offset="1"
         style="stop-color:#662300;stop-opacity:0.96470588" />
    </linearGradient>
    <linearGradient
       id="linearGradient4445"
       inkscape:collect="always">
      <stop
         id="stop4447"
         offset="0"
         style="stop-color:#585858;stop-opacity:0.96078432" />
      <stop
         style="stop-color:#888888;stop-opacity:1"
         offset="0.18999147"
         id="stop4449" />
      <stop
         style="stop-color:#fefefe;stop-opacity:1"
         offset="0.72080481"
         id="stop4451" />
      <stop
         id="stop4453"
         offset="1"
         style="stop-color:#9b9b9b;stop-opacity:1" />
    </linearGradient>
    <linearGradient
       id="linearGradient4435">
      <stop
         style="stop-color:#205d95;stop-opacity:1"
         offset="0"
         id="stop4437" />
      <stop
         id="stop4439"
         offset="0.32248509"
         style="stop-color:#177ac7;stop-opacity:1" />
      <stop
         id="stop4441"
         offset="0.64673662"
         style="stop-color:#54b3fe;stop-opacity:1" />
      <stop
         style="stop-color:#198ae3;stop-opacity:1"
         offset="1"
         id="stop4443" />
    </linearGradient>
    <linearGradient
       id="linearGradient4332"
       inkscape:collect="always">
      <stop
         id="stop4334"
         offset="0"
         style="stop-color:#731800;stop-opacity:1" />
      <stop
         id="stop4336"
         offset="1"
         style="stop-color:#390008;stop-opacity:1" />
    </linearGradient>
    <linearGradient
       inkscape:collect="always"
       id="linearGradient4314">
      <stop
         style="stop-color:#634d52;stop-opacity:1"
         offset="0"
         id="stop4316" />
      <stop
         id="stop4318"
         offset="0.21750407"
         style="stop-color:#4a2839;stop-opacity:1" />
      <stop
         id="stop4320"
         offset="0.47722748"
         style="stop-color:#633839;stop-opacity:1" />
      <stop
         id="stop4322"
         offset="0.81679243"
         style="stop-color:#844d4a;stop-opacity:1" />
      <stop
         style="stop-color:#844d4a;stop-opacity:1"
         offset="1"
         id="stop4324" />
    </linearGradient>
    <linearGradient
       id="linearGradient4295"
       inkscape:collect="always">
      <stop
         id="stop4297-4"
         offset="0"
         style="stop-color:#fffbef;stop-opacity:1" />
      <stop
         style="stop-color:#fff3cf;stop-opacity:1;"
         offset="0.15653789"
         id="stop4305" />
      <stop
         style="stop-color:#ffcd2d;stop-opacity:1"
         offset="0.48936182"
         id="stop4299" />
      <stop
         style="stop-color:#f79e29;stop-opacity:1"
         offset="0.81679243"
         id="stop4301-5" />
      <stop
         id="stop4303-9"
         offset="1"
         style="stop-color:#ff8a01;stop-opacity:1" />
    </linearGradient>
    <radialGradient
       r="12.727128"
       fy="1007.3033"
       fx="43.697731"
       cy="1007.3033"
       cx="43.697731"
       gradientTransform="matrix(-0.36769962,0.3019154,-0.08000367,-0.09882429,110.70751,369.96675)"
       gradientUnits="userSpaceOnUse"
       id="radialGradient5525"
       xlink:href="#linearGradient8901"
       inkscape:collect="always" />
    <linearGradient
       id="linearGradient3657-9"
       inkscape:collect="always">
      <stop
         id="stop3659-3"
         offset="0"
         style="stop-color:#f7ebf7;stop-opacity:1" />
      <stop
         id="stop3661-5"
         offset="1"
         style="stop-color:#ffffff;stop-opacity:1" />
    </linearGradient>
    <linearGradient
       y2="18.62431"
       x2="146.4171"
       y1="26.408762"
       x1="140.51161"
       gradientTransform="matrix(0.04840395,-0.37483907,0.37339455,0.03552567,1.4266312,334.57448)"
       gradientUnits="userSpaceOnUse"
       id="linearGradient3437"
       xlink:href="#linearGradient4445"
       inkscape:collect="always" />
    <radialGradient
       r="12.727128"
       fy="1002.8321"
       fx="44.683674"
       cy="1002.8321"
       cx="44.683674"
       gradientTransform="matrix(0.14964917,-0.12038443,0.07296056,0.0921271,-67.494051,200.71031)"
       gradientUnits="userSpaceOnUse"
       id="radialGradient3440"
       xlink:href="#linearGradient8907"
       inkscape:collect="always" />
    <linearGradient
       y2="38.107964"
       x2="172.01106"
       y1="45.122654"
       x1="166.41133"
       gradientTransform="matrix(0.04840395,-0.37483907,0.37339455,0.03552567,1.4266312,334.57448)"
       gradientUnits="userSpaceOnUse"
       id="linearGradient3443"
       xlink:href="#linearGradient4435"
       inkscape:collect="always" />
    <radialGradient
       gradientUnits="userSpaceOnUse"
       gradientTransform="matrix(0.52115971,0.42449374,-0.43220417,0.53062778,132.2268,953.08375)"
       r="30.5"
       fy="67.158691"
       fx="46.676998"
       cy="67.158691"
       cx="46.676998"
       id="radialGradient4338-5"
       xlink:href="#linearGradient4332"
       inkscape:collect="always" />
    <linearGradient
       gradientTransform="rotate(-5.8365789,74.125052,299.57035)"
       gradientUnits="userSpaceOnUse"
       y2="1013.5125"
       x2="49.25"
       y1="1034.1122"
       x1="49.5"
       id="linearGradient4312-8"
       xlink:href="#linearGradient4314"
       inkscape:collect="always" />
    <radialGradient
       r="41"
       fy="1016.3925"
       fx="54.708103"
       cy="1016.3925"
       cx="54.708103"
       gradientTransform="matrix(0.66277974,-0.6627818,0.69172758,0.69172905,-715.82985,337.39023)"
       gradientUnits="userSpaceOnUse"
       id="radialGradient4293-1"
       xlink:href="#linearGradient4295"
       inkscape:collect="always" />
    <clipPath
       id="clipPath8976"
       clipPathUnits="userSpaceOnUse">
      <path
         inkscape:connector-curvature="0"
         id="path8978"
         d="m 89.454138,983.77282 55.684652,-5.83363 5.30331,45.07801 -56.214992,6.1872 z"
         style="fill:#000000;fill-rule:evenodd;stroke:none;stroke-width:1px;stroke-linecap:butt;stroke-linejoin:miter;stroke-opacity:1" />
    </clipPath>
    <linearGradient
       gradientUnits="userSpaceOnUse"
       y2="976.86218"
       x2="62.25"
       y1="1026.8622"
       x1="54.25"
       id="linearGradient8987"
       xlink:href="#linearGradient3657-9"
       inkscape:collect="always"
       gradientTransform="matrix(0.34048969,0,0,0.34048969,-0.15391671,-60.677463)" />
  </defs>
  <sodipodi:namedview
     id="base"
     pagecolor="#ffffff"
     bordercolor="#666666"
     borderopacity="1.0"
     inkscape:pageopacity="0.0"
     inkscape:pageshadow="2"
     inkscape:zoom="1.707"
     inkscape:cx="15.27317"
     inkscape:cy="50.434416"
     inkscape:document-units="mm"
     inkscape:current-layer="layer1"
     showgrid="false"
     inkscape:window-width="1600"
     inkscape:window-height="803"
     inkscape:window-x="0"
     inkscape:window-y="0"
     inkscape:window-maximized="1"
     units="px" />
  <metadata
     id="metadata5">
    <rdf:RDF>
      <cc:Work
         rdf:about="">
        <dc:format>image/svg+xml</dc:format>
        <dc:type
           rdf:resource="http://purl.org/dc/dcmitype/StillImage" />
        <dc:title />
      </cc:Work>
    </rdf:RDF>
  </metadata>
  <g
     inkscape:label="Layer 1"
     inkscape:groupmode="layer"
     id="layer1"
     transform="translate(0,-263.13332)">
    <g
       id="g2577"
       transform="translate(-0.42229978,8.8212524e-6)">
      <rect
         style="opacity:0.25;fill:#000000;fill-opacity:1;stroke:none;stroke-width:0.17271142;stroke-miterlimit:4;stroke-dasharray:none;stroke-dashoffset:0;stroke-opacity:0.99607843"
         id="rect2498"
         width="27.417938"
         height="27.417938"
         x="2.6016016"
         y="267.42087"
         ry="2.2457361" />
      <rect
         ry="2.2457361"
         y="266.91599"
         x="2.6016016"
         height="27.417938"
         width="27.417938"
         id="rect943"
         style="opacity:1;fill:url(#linearGradient959);fill-opacity:1;stroke:#814e21;stroke-width:0.17271142;stroke-miterlimit:4;stroke-dasharray:none;stroke-dashoffset:0;stroke-opacity:0.99607843" />
      <path
         style="opacity:0.1;fill:#000000;fill-opacity:1;fill-rule:evenodd;stroke:none;stroke-width:0.34048969px;stroke-linecap:butt;stroke-linejoin:miter;stroke-opacity:1"
         d="m 6.3338154,291.02432 -1.8057193,-16.97376 20.8861519,-2.34744 1.926099,17.03396 z"
         id="path8989"
         inkscape:connector-curvature="0" />
      <path
         inkscape:connector-curvature="0"
         id="path8949"
         d="m 6.589182,290.59871 -1.8057192,-16.97376 20.8861522,-2.34744 1.926099,17.03396 z"
         style="opacity:1;fill:url(#linearGradient8987);fill-opacity:1;fill-rule:evenodd;stroke:none;stroke-width:0.34048969px;stroke-linecap:butt;stroke-linejoin:miter;stroke-opacity:1" />
      <g
         clip-path="url(#clipPath8976)"
         transform="matrix(0.34048969,0,0,0.34048969,-24.591318,-60.677463)"
         id="g8967">
        <rect
           ry="7.2619047"
           rx="7.2619047"
           y="979.84711"
           x="-13.347998"
           height="61"
           width="61"
           id="rect3416"
           style="fill:url(#radialGradient4293-1);fill-opacity:1;stroke:none"
           transform="rotate(-5.8365789)" />
        <path
           inkscape:connector-curvature="0"
           style="fill:url(#linearGradient4312-8);fill-opacity:1;stroke:none"
           d="m 90.380059,1015.4201 1.4491,14.1762 c 0.40912,4.0022 3.94744,6.8842 7.94968,6.4751 l 46.258951,-4.7286 c 4.00224,-0.4091 6.88426,-3.9475 6.47515,-7.9497 l -1.4491,-14.1761 z"
           id="rect4309" />
        <path
           inkscape:connector-curvature="0"
           style="fill:url(#radialGradient4338-5);fill-opacity:1;stroke:none;stroke-width:1px;stroke-linecap:butt;stroke-linejoin:miter;stroke-opacity:1"
           d="m 117.87111,1004.0971 c -1.72054,0.1909 -3.22792,1.8967 -4.41366,5.0689 l -2.45057,5.5278 c -1.75955,2.6885 -5.44588,3.0075 -8.15072,1.0845 -1.90368,-1.5292 -3.703691,-1.2955 -4.950041,0.129 0,0 -3.15374,1.8764 -4.90376,-0.033 -1.28019,-1.3965 -2.17763,-2.2429 -2.86382,-2.817 l 0.86438,8.4559 60.683781,-6.2032 -0.72456,-7.088 -5.56475,0.5688 c -2.39376,0.2447 -5.48682,0.1205 -6.83853,-1.7511 -2.38774,-3.1608 -6.50001,-3.0245 -7.88254,0.02 -1.97328,3.8741 -4.95567,4.0632 -7.11527,1.0729 -2.04389,-2.9008 -3.96935,-4.2267 -5.68994,-4.0361 z"
           id="path4327" />
        <path
           inkscape:connector-curvature="0"
           style="opacity:0.05;fill:#000000;fill-opacity:1;stroke:none"
           d="m 93.575659,975.38766 c -4.00224,0.40912 -6.88426,3.94744 -6.47515,7.94968 l 4.72865,46.25896 c 0.40912,4.0022 3.94744,6.8842 7.94968,6.4751 l 46.258951,-4.7286 c 4.00224,-0.4091 6.88426,-3.9475 6.47515,-7.9497 l -4.72865,-46.25894 c -0.40912,-4.00224 -3.94744,-6.88426 -7.94968,-6.47515 z m 0.87889,0.91537 44.704551,-4.56976 c 3.87102,-0.3957 7.31411,2.40877 7.70982,6.27979 l 4.56975,44.70444 c 0.3957,3.8711 -2.40876,7.3142 -6.27978,7.7099 l -44.70454,4.5698 c -3.871021,0.3957 -7.314121,-2.4088 -7.709821,-6.2799 l -4.56976,-44.70445 c -0.3957,-3.87102 2.40877,-7.31412 6.27978,-7.70982 z"
           id="rect4352" />
        <path
           inkscape:connector-curvature="0"
           style="opacity:0.05;fill:#000000;fill-opacity:1;stroke:none"
           d="m 93.575659,975.38766 c -4.00224,0.40912 -6.88426,3.94744 -6.47515,7.94968 l 4.72865,46.25896 c 0.40912,4.0022 3.94744,6.8842 7.94968,6.4751 l 46.258951,-4.7286 c 4.00224,-0.4091 6.88426,-3.9475 6.47515,-7.9497 l -4.72865,-46.25894 c -0.40912,-4.00224 -3.94744,-6.88426 -7.94968,-6.47515 z m 1.7267,1.83392 43.212321,-4.41722 c 3.7398,-0.38229 7.0534,2.3167 7.43569,6.0565 l 4.41722,43.21224 c 0.38229,3.7398 -2.3167,7.0535 -6.0565,7.4358 l -43.21232,4.4172 c -3.739801,0.3823 -7.053411,-2.3168 -7.435691,-6.0566 l -4.41722,-43.21223 c -0.38229,-3.7398 2.3167,-7.0534 6.0565,-7.43569 z"
           id="rect4356" />
        <path
           inkscape:connector-curvature="0"
           style="opacity:0.05;fill:#000000;fill-opacity:1;stroke:none"
           d="m 93.575659,975.38766 c -4.00224,0.40912 -6.88426,3.94744 -6.47515,7.94968 l 4.72865,46.25896 c 0.40912,4.0022 3.94744,6.8842 7.94968,6.4751 l 46.258951,-4.7286 c 4.00224,-0.4091 6.88426,-3.9475 6.47515,-7.9497 l -4.72865,-46.25894 c -0.40912,-4.00224 -3.94744,-6.88426 -7.94968,-6.47515 z m 0.45499,0.4561 45.450661,-4.64603 c 3.93662,-0.40241 7.44447,2.45479 7.84688,6.39142 l 4.64602,45.45055 c 0.40242,3.9367 -2.45479,7.4446 -6.39141,7.847 l -45.45066,4.646 c -3.936631,0.4024 -7.444471,-2.4548 -7.846891,-6.3915 l -4.64602,-45.45056 c -0.40241,-3.93664 2.45479,-7.44447 6.39142,-7.84688 z"
           id="rect4360" />
        <path
           inkscape:connector-curvature="0"
           style="opacity:0.05;fill:#000000;fill-opacity:1;stroke:none"
           d="m 93.575659,975.38766 c -4.00224,0.40912 -6.88426,3.94744 -6.47515,7.94968 l 4.72865,46.25896 c 0.40912,4.0022 3.94744,6.8842 7.94968,6.4751 l 46.258951,-4.7286 c 4.00224,-0.4091 6.88426,-3.9475 6.47515,-7.9497 l -4.72865,-46.25894 c -0.40912,-4.00224 -3.94744,-6.88426 -7.94968,-6.47515 z m 1.3028,1.37465 43.958431,-4.49349 c 3.80541,-0.389 7.18376,2.36273 7.57275,6.16814 l 4.49349,43.95834 c 0.389,3.8055 -2.36273,7.1838 -6.16814,7.5728 l -43.95843,4.4935 c -3.805411,0.389 -7.183761,-2.3627 -7.572761,-6.1682 l -4.49349,-43.95834 c -0.38899,-3.80541 2.36274,-7.18376 6.16815,-7.57275 z"
           id="rect4364" />
      </g>
      <path
         style="fill:url(#radialGradient5525);fill-opacity:1;stroke:none;stroke-width:0.34048969"
         d="m 8.3498725,288.87341 c 3.2524485,-0.12163 6.9919055,-1.6459 7.0178135,-4.28415 -0.0339,-0.28526 0.197117,-1.04898 -0.24852,-1.37401 -0.631458,-0.46055 -2.801862,-0.61547 -3.956598,1.45488 -0.82799,1.65614 -1.6775689,2.98861 -2.8126955,4.20328 z"
         id="path4692"
         inkscape:connector-curvature="0"
         sodipodi:nodetypes="ccscc" />
      <path
         sodipodi:nodetypes="cccccccccc"
         inkscape:connector-curvature="0"
         id="path4690"
         d="m 31.874054,265.60723 c -0.326138,-0.34038 -0.908276,-0.46654 -1.59309,-0.0507 -4.163654,3.51485 -8.550523,7.84105 -11.580062,11.17013 -0.97959,1.07616 -1.89882,2.17509 -2.794353,3.27157 0.606225,0.77203 1.294202,1.50415 2.175438,2.14604 1.104691,-0.96893 2.185311,-1.93504 3.237506,-2.94619 l 0.008,-0.008 c 3.50518,-3.36846 7.640925,-8.24458 10.64153,-12.10867 0.384823,-0.44455 0.231035,-1.13401 -0.0951,-1.47438 z"
         style="fill:url(#linearGradient3443);fill-opacity:1;stroke:none;stroke-width:0.34048969" />
      <path
         sodipodi:nodetypes="ccscc"
         inkscape:connector-curvature="0"
         id="path4700"
         d="m 9.1134159,288.61062 c 2.5669351,-0.096 5.5182051,-1.29901 5.5386501,-3.3812 -0.02677,-0.2251 0.155564,-0.8279 -0.196148,-1.08436 -0.49834,-0.36347 -2.211296,-0.48578 -3.122616,1.1482 -0.653487,1.30707 -1.324008,2.35871 -2.2198742,3.31736 z"
         style="fill:url(#radialGradient3440);fill-opacity:1;stroke:none;stroke-width:0.34048969" />
      <path
         sodipodi:nodetypes="ccccc"
         inkscape:connector-curvature="0"
         id="path4733"
         d="m 15.899763,279.98724 c -0.802853,0.98221 -1.577133,1.97068 -2.33188,2.96253 0.406999,0.69072 0.959093,1.22471 1.714844,1.53867 0.966327,-0.7677 1.89872,-1.54759 2.806951,-2.34141 -0.88677,-0.6457 -1.580917,-1.38266 -2.189822,-2.15989 z"
         style="fill:url(#linearGradient3437);fill-opacity:1;stroke:none;stroke-width:0.34048969" />
    </g>
  </g>
</svg>
