<?xml version="1.0" encoding="UTF-8" standalone="no"?>
<!-- Created with Inkscape (http://www.inkscape.org/) -->

<svg
   xmlns:dc="http://purl.org/dc/elements/1.1/"
   xmlns:cc="http://creativecommons.org/ns#"
   xmlns:rdf="http://www.w3.org/1999/02/22-rdf-syntax-ns#"
   xmlns:svg="http://www.w3.org/2000/svg"
   xmlns="http://www.w3.org/2000/svg"
   xmlns:xlink="http://www.w3.org/1999/xlink"
   xmlns:sodipodi="http://sodipodi.sourceforge.net/DTD/sodipodi-0.dtd"
   xmlns:inkscape="http://www.inkscape.org/namespaces/inkscape"
   width="128"
   height="128"
   viewBox="0 0 33.866666 33.866668"
   version="1.1"
   id="svg8"
   inkscape:version="0.92.2 5c3e80d, 2017-08-06"
   sodipodi:docname="preferences-color.svg">
  <defs
     id="defs2">
    <linearGradient
       inkscape:collect="always"
       id="linearGradient1447">
      <stop
         style="stop-color:#02c9fc;stop-opacity:1"
         offset="0"
         id="stop1443" />
      <stop
         style="stop-color:#0b7fe4;stop-opacity:1"
         offset="1"
         id="stop1445" />
    </linearGradient>
    <linearGradient
       inkscape:collect="always"
       xlink:href="#linearGradient1447"
       id="linearGradient1449"
       x1="-101.62383"
       y1="-16.082338"
       x2="-88.97332"
       y2="72.174751"
       gradientUnits="userSpaceOnUse" />
  </defs>
  <sodipodi:namedview
     id="base"
     pagecolor="#ffffff"
     bordercolor="#666666"
     borderopacity="1.0"
     inkscape:pageopacity="0.0"
     inkscape:pageshadow="2"
     inkscape:zoom="2.8"
     inkscape:cx="31.282081"
     inkscape:cy="69.318385"
     inkscape:document-units="mm"
     inkscape:current-layer="layer1"
     showgrid="false"
     inkscape:window-width="1600"
     inkscape:window-height="792"
     inkscape:window-x="0"
     inkscape:window-y="0"
     inkscape:window-maximized="1"
     units="px" />
  <metadata
     id="metadata5">
    <rdf:RDF>
      <cc:Work
         rdf:about="">
        <dc:format>image/svg+xml</dc:format>
        <dc:type
           rdf:resource="http://purl.org/dc/dcmitype/StillImage" />
        <dc:title />
      </cc:Work>
    </rdf:RDF>
  </metadata>
  <g
     inkscape:label="Layer 1"
     inkscape:groupmode="layer"
     id="layer1"
     transform="translate(0,-263.13332)">
    <g
       id="g1567"
       transform="matrix(1.0690803,0.13546512,-0.13548169,1.0689496,67.939146,-8.6314917)"
       style="stroke-width:0.92801839">
      <rect
         transform="rotate(-7.1768084)"
         style="opacity:0.25;fill:#000000;fill-opacity:1;stroke:none;stroke-width:0.08886409;stroke-linecap:round;stroke-linejoin:round;stroke-miterlimit:4;stroke-dasharray:none;stroke-opacity:1"
         id="rect836"
         width="30.260672"
         height="30.260672"
         x="-62.248592"
         y="253.17198"
         ry="4.6085563" />
      <rect
         transform="rotate(-7.1768084)"
         ry="4.6085563"
         y="252.55611"
         x="-62.248592"
         height="30.260672"
         width="30.260672"
         id="rect828"
         style="opacity:1;fill:#ededed;fill-opacity:1;stroke:#808080;stroke-width:0.09280184;stroke-linecap:round;stroke-linejoin:round;stroke-miterlimit:4;stroke-dasharray:none;stroke-opacity:1" />
      <path
         id="rect1072"
         transform="matrix(0.26458333,0,0,0.26458333,0,263.13332)"
         d="m -16.197266,-30.308594 c -0.589774,0.01454 -1.184824,0.05747 -1.783203,0.132813 l -78.912109,9.9375 c -9.574062,1.205548 -16.311022,9.882969 -15.105472,19.457031 l 3.66602,29.117188 c 1.0523,0.116531 2.07509,-0.01332 2.92969,-0.527344 2.50886,-1.509052 0.94286,-5.970695 2.58789,-8.392578 1.30842,-1.926312 3.136954,-4.083183 5.447262,-4.375 2.0747,-0.261922 4.4266,0.940621 5.714844,2.58789 8.202698,10.488681 0.519264,27.786839 7.230469,39.28711 1.192717,2.043855 3.114178,4.157055 5.447266,4.552734 2.163632,0.366992 4.537952,-0.842328 6.160156,-2.320312 0.954406,-0.869556 1.506256,-2.205509 1.697265,-3.482422 1.979082,-13.230312 -9.532432,-26.674037 -6.25,-39.642578 0.505365,-1.996649 1.960466,-3.892545 3.75,-4.91211 1.327926,-0.756586 3.094514,-0.992744 4.552735,-0.535156 1.669621,0.523918 3.050305,1.969552 3.929687,3.482422 1.742412,2.997619 0.598275,7.073419 2.142578,10.177734 0.808067,1.624365 1.935153,3.321431 3.570313,4.107422 1.959798,0.942047 4.561396,1.213065 6.519531,0.267578 1.592126,-0.768756 2.698231,-2.56944 3.125,-4.285156 1.821649,-7.323553 -4.85551,-15.0439705 -3.214844,-22.4101564 0.495304,-2.2237984 1.754758,-4.615039 3.75,-5.7148437 1.485895,-0.8190614 3.616932,-0.9320359 5.089844,-0.089844 2.047797,1.1708977 1.706317,4.60747633 3.480469,6.1621094 1.858016,1.6281071 4.421981,3.0602647 6.875,2.7675781 1.779534,-0.2124094 3.3585,-1.6490189 4.375,-3.125 1.535407,-2.22946769 0.417139,-5.7018817 2.054687,-7.8574218 1.279064,-1.6836662 3.378522,-3.4020016 5.482422,-3.1914063 2.521531,0.2524724 4.011706,3.1446899 5.681641,5.0507813 1.13853,1.2995149 1.396621,3.44918917 2.904297,4.2929687 1.654439,0.9259087 3.9961791,1.1220637 5.6816405,0.25390625 C -3.3809364,-1.7171586 -0.13592807,-5.7167178 2.0839844,-10.240234 L 1.4765625,-15.070312 C 0.34636092,-24.045996 -7.3506546,-30.526713 -16.197266,-30.308594 Z"
         style="opacity:1;fill:url(#linearGradient1449);fill-opacity:1;stroke:#075599;stroke-width:0.35074708;stroke-linecap:round;stroke-linejoin:round;stroke-miterlimit:4;stroke-dasharray:none;stroke-opacity:1"
         inkscape:connector-curvature="0" />
      <circle
         transform="rotate(-7.1768084)"
         r="1.1719635"
         cy="256.48001"
         cx="-57.819229"
         id="path830"
         style="opacity:1;fill:#ff6059;fill-opacity:1;stroke:#075599;stroke-width:0.10961674;stroke-linecap:round;stroke-linejoin:round;stroke-miterlimit:4;stroke-dasharray:none;stroke-opacity:1" />
      <circle
         transform="rotate(-7.1768084)"
         style="opacity:1;fill:#ffc02f;fill-opacity:1;stroke:#075599;stroke-width:0.10961674;stroke-linecap:round;stroke-linejoin:round;stroke-miterlimit:4;stroke-dasharray:none;stroke-opacity:1"
         id="circle832"
         cx="-53.882282"
         cy="256.48001"
         r="1.1719635" />
      <circle
         transform="rotate(-7.1768084)"
         r="1.1719635"
         cy="256.48001"
         cx="-49.943169"
         id="circle834"
         style="opacity:1;fill:#28ca42;fill-opacity:1;stroke:#075599;stroke-width:0.10961674;stroke-linecap:round;stroke-linejoin:round;stroke-miterlimit:4;stroke-dasharray:none;stroke-opacity:1" />
    </g>
  </g>
</svg>
