<?xml version="1.0" encoding="UTF-8" standalone="no"?>
<svg
   xmlns:dc="http://purl.org/dc/elements/1.1/"
   xmlns:cc="http://creativecommons.org/ns#"
   xmlns:rdf="http://www.w3.org/1999/02/22-rdf-syntax-ns#"
   xmlns:svg="http://www.w3.org/2000/svg"
   xmlns="http://www.w3.org/2000/svg"
   xmlns:sodipodi="http://sodipodi.sourceforge.net/DTD/sodipodi-0.dtd"
   xmlns:inkscape="http://www.inkscape.org/namespaces/inkscape"
   height="128"
   viewBox="0 0 128 128"
   width="128"
   version="1.1"
   id="svg25"
   sodipodi:docname="curflew.svg"
   inkscape:version="0.92.2 5c3e80d, 2017-08-06">
  <metadata
     id="metadata31">
    <rdf:RDF>
      <cc:Work
         rdf:about="">
        <dc:format>image/svg+xml</dc:format>
        <dc:type
           rdf:resource="http://purl.org/dc/dcmitype/StillImage" />
        <dc:title></dc:title>
      </cc:Work>
    </rdf:RDF>
  </metadata>
  <defs
     id="defs29" />
  <sodipodi:namedview
     pagecolor="#ffffff"
     bordercolor="#666666"
     borderopacity="1"
     objecttolerance="10"
     gridtolerance="10"
     guidetolerance="10"
     inkscape:pageopacity="0"
     inkscape:pageshadow="2"
     inkscape:window-width="1600"
     inkscape:window-height="803"
     id="namedview27"
     showgrid="false"
     inkscape:zoom="2.6074563"
     inkscape:cx="63.368347"
     inkscape:cy="49.657446"
     inkscape:window-x="0"
     inkscape:window-y="0"
     inkscape:window-maximized="1"
     inkscape:current-layer="svg25" />
  <linearGradient
     id="a"
     gradientUnits="userSpaceOnUse"
     x1="66.01551341119"
     x2="64.33359152003"
     y1="119.34706540717"
     y2="1.33853303141">
    <stop
       offset="0"
       stop-color="#cccdd1"
       id="stop2" />
    <stop
       offset="1"
       stop-color="#f7f9f9"
       id="stop4" />
  </linearGradient>
  <linearGradient
     id="b"
     gradientUnits="userSpaceOnUse"
     x1="64.42871085545"
     x2="63.70264686264"
     y1="9.49702762746"
     y2="114.03049919903"
     gradientTransform="matrix(0.99066297,0,0,0.99066297,-99.678863,177.19881)">
    <stop
       offset="0"
       stop-color="#c2aaf1"
       id="stop7"
       style="stop-color:#ec78ee;stop-opacity:1" />
    <stop
       offset="1"
       stop-color="#8a43ce"
       id="stop9"
       style="stop-color:#a923ce;stop-opacity:1" />
  </linearGradient>
  <filter
     id="c"
     color-interpolation-filters="sRGB"
     height="1.548971"
     width="1.559937"
     x="-.279969"
     y="-.274486">
    <feGaussianBlur
       stdDeviation="7.5012652"
       id="feGaussianBlur12" />
  </filter>
  <g
     id="g977"
     transform="matrix(0.98360656,0,0,0.98360656,99.357028,-173.86091)">
    <circle
       cx="-35.946312"
       cy="242.82526"
       r="60"
       id="circle971"
       style="opacity:0.25;fill:#000000;stroke:none;stroke-width:4.60148573" />
    <circle
       style="fill:url(#b);stroke:none;stroke-width:4.60148573"
       id="circle15"
       r="60"
       cy="240.82526"
       cx="-35.946312" />
    <path
       style="opacity:0.25;fill:#000000;fill-opacity:1;stroke-width:2.5391376"
       inkscape:connector-curvature="0"
       id="path969"
       d="m -25.356704,210.33392 c -0.229639,-0.0258 -0.460507,-0.0188 -0.714132,0.0198 -0.338164,0.0516 -0.718353,0.15816 -1.200141,0.30251 -3.44945,1.03348 -4.736085,4.07246 -4.736085,9.77964 0,2.69229 -0.283476,5.51829 -0.629825,6.27842 -0.365098,0.8013 -1.709239,1.9306 -3.203679,2.68791 -4.990942,2.52909 -12.285299,8.72562 -19.822136,16.15229 -4.18953,4.12851 -7.495071,7.92287 -9.204376,9.05064 -3.099219,2.04478 -3.099664,2.04798 -1.572082,2.35564 l 1.52745,0.31244 -1.443142,0.40169 c -0.794566,0.22281 -1.443142,0.60606 -1.443142,0.84804 0,0.57084 4.064999,-0.13519 8.981207,-2.17711 3.732848,-1.5505 4.105584,-1.89001 14.922393,-2.93588 3.895411,-0.37682 4.012229,-0.24345 1.825006,2.19694 -0.937019,1.04544 -0.91232,1.19393 1.125753,5.92136 2.073322,4.80915 2.757318,9.08342 1.567123,9.81932 -0.862434,0.53299 -0.536703,1.46088 1.081115,2.435 -0.0047,0 -0.01011,0 -0.01499,0 2.465989,1.37942 5.053921,1.66135 7.696866,1.44814 1.192941,-0.0482 1.164548,-0.20166 0.421536,-0.76373 -0.560856,-0.42431 -1.580274,-0.77364 -2.266379,-0.77364 -2.172693,0 -4.343346,-1.44319 -3.977321,-2.90118 0.179339,-0.71486 0.06369,-1.61637 -0.257879,-2.00353 -0.36842,-0.44402 -0.565631,-3.15893 -0.530642,-7.34466 0.04776,-5.71304 0.199576,-6.82168 1.071198,-7.92984 0.55739,-0.70863 1.319895,-1.88364 1.696065,-2.60857 0.376168,-0.72521 2.87547,-2.36917 4.622026,-3.65497 1.746545,-1.28598 3.791438,-3.14606 4.542675,-4.13106 3.126336,-4.09883 4.055759,-10.0952 2.732549,-17.6103 -0.975542,-5.54044 -1.521754,-6.36883 1.234854,-7.67693 3.370122,-1.59922 11.4776721,0.005 16.02336,2.35565 0.8391708,0.43396 1.3621497,0.52658 1.1654238,0.20829 -1.0917472,-1.76647 -6.1376188,-4.42324 -13.1023608,-5.28657 -1.747398,-0.21659 -3.792488,-2.47798 -5.390708,-3.47148 -1.349531,-0.83889 -2.038671,-1.22696 -2.727591,-1.30428 z m -13.523883,43.44801 c 0.422467,-0.14079 0.576674,0.62942 0.307473,2.19696 -0.210902,1.22813 -0.36048,3.00341 -0.33227,3.9426 0.05939,1.97838 -0.20501,2.14105 -1.016648,0.62487 -0.808715,-1.51119 -0.798412,-3.96189 0.02489,-5.49981 0.409534,-0.76526 0.763163,-1.18013 1.016647,-1.26462 z" />
    <path
       d="m -25.356704,208.3526 c -0.229639,-0.0258 -0.460507,-0.0188 -0.714132,0.0198 -0.338164,0.0516 -0.718353,0.15816 -1.200141,0.30251 -3.44945,1.03348 -4.736085,4.07247 -4.736085,9.77965 0,2.69228 -0.283476,5.51829 -0.629825,6.27841 -0.365098,0.8013 -1.709239,1.93061 -3.203679,2.68792 -4.990942,2.52908 -12.285299,8.72561 -19.822136,16.15228 -4.18953,4.12851 -7.495071,7.92287 -9.204376,9.05064 -3.099219,2.04479 -3.099664,2.04799 -1.572082,2.35565 l 1.52745,0.31243 -1.443142,0.4017 c -0.794566,0.22281 -1.443142,0.60606 -1.443142,0.84803 0,0.57084 4.064999,-0.13518 8.981207,-2.17711 3.732848,-1.55049 4.105584,-1.89 14.922393,-2.93588 3.895411,-0.37681 4.012229,-0.24345 1.825006,2.19695 -0.937019,1.04544 -0.91232,1.19393 1.125753,5.92135 2.073322,4.80915 2.757318,9.08343 1.567123,9.81932 -0.862434,0.533 -0.536703,1.46088 1.081115,2.435 -0.0047,0 -0.01011,0 -0.01499,0 2.465989,1.37942 5.053921,1.66135 7.696866,1.44814 1.192941,-0.0482 1.164548,-0.20166 0.421536,-0.76373 -0.560856,-0.42431 -1.580274,-0.77364 -2.266379,-0.77364 -2.172693,0 -4.343346,-1.44318 -3.977321,-2.90117 0.179339,-0.71487 0.06369,-1.61638 -0.257879,-2.00354 -0.36842,-0.44401 -0.565631,-3.15893 -0.530642,-7.34466 0.04776,-5.71304 0.199576,-6.82167 1.071198,-7.92984 0.55739,-0.70863 1.319895,-1.88363 1.696065,-2.60856 0.376168,-0.72522 2.87547,-2.36917 4.622026,-3.65497 1.746545,-1.28598 3.791438,-3.14606 4.542675,-4.13107 3.126336,-4.09883 4.055759,-10.0952 2.732549,-17.6103 -0.975542,-5.54043 -1.521754,-6.36882 1.234854,-7.67692 3.370122,-1.59922 11.4776721,0.005 16.02336,2.35564 0.8391708,0.43396 1.3621497,0.52658 1.1654238,0.20829 -1.0917472,-1.76647 -6.1376188,-4.42324 -13.1023608,-5.28656 -1.747398,-0.21659 -3.792488,-2.47799 -5.390708,-3.47148 -1.349531,-0.8389 -2.038671,-1.22697 -2.727591,-1.30428 z m -13.523883,43.44801 c 0.422467,-0.14079 0.576674,0.62942 0.307473,2.19695 -0.210902,1.22814 -0.36048,3.00342 -0.33227,3.9426 0.05939,1.97839 -0.20501,2.14105 -1.016648,0.62487 -0.808715,-1.51118 -0.798412,-3.96188 0.02489,-5.49981 0.409534,-0.76526 0.763163,-1.18013 1.016647,-1.26461 z"
       id="path21"
       inkscape:connector-curvature="0"
       style="fill:#ffffff;fill-opacity:1;stroke-width:2.5391376" />
  </g>
</svg>
