<?xml version="1.0" encoding="UTF-8" standalone="no"?>
<!-- Created with Inkscape (http://www.inkscape.org/) -->

<svg
   xmlns:osb="http://www.openswatchbook.org/uri/2009/osb"
   xmlns:dc="http://purl.org/dc/elements/1.1/"
   xmlns:cc="http://creativecommons.org/ns#"
   xmlns:rdf="http://www.w3.org/1999/02/22-rdf-syntax-ns#"
   xmlns:svg="http://www.w3.org/2000/svg"
   xmlns="http://www.w3.org/2000/svg"
   xmlns:sodipodi="http://sodipodi.sourceforge.net/DTD/sodipodi-0.dtd"
   xmlns:inkscape="http://www.inkscape.org/namespaces/inkscape"
   width="128"
   height="128"
   viewBox="0 0 33.866666 33.866668"
   version="1.1"
   id="svg8"
   inkscape:version="0.92.2 5c3e80d, 2017-08-06"
   sodipodi:docname="gnome-music.svg">
  <defs
     id="defs2">
    <linearGradient
       osb:paint="solid"
       id="linearGradient6987">
      <stop
         id="stop6985"
         offset="0"
         style="stop-color:#77d2fb;stop-opacity:1;" />
    </linearGradient>
  </defs>
  <sodipodi:namedview
     id="base"
     pagecolor="#ffffff"
     bordercolor="#666666"
     borderopacity="1.0"
     inkscape:pageopacity="0.0"
     inkscape:pageshadow="2"
     inkscape:zoom="2.5600001"
     inkscape:cx="93.069885"
     inkscape:cy="48.184533"
     inkscape:document-units="mm"
     inkscape:current-layer="layer1"
     showgrid="false"
     inkscape:window-width="1600"
     inkscape:window-height="803"
     inkscape:window-x="0"
     inkscape:window-y="0"
     inkscape:window-maximized="1"
     units="px" />
  <metadata
     id="metadata5">
    <rdf:RDF>
      <cc:Work
         rdf:about="">
        <dc:format>image/svg+xml</dc:format>
        <dc:type
           rdf:resource="http://purl.org/dc/dcmitype/StillImage" />
        <dc:title />
      </cc:Work>
    </rdf:RDF>
  </metadata>
  <g
     inkscape:label="Layer 1"
     inkscape:groupmode="layer"
     id="layer1"
     transform="translate(0,-263.13332)">
    <circle
       style="opacity:0.25;fill:#000000;fill-opacity:1;fill-rule:nonzero;stroke:none;stroke-width:0.18805525;stroke-linecap:round;stroke-miterlimit:4;stroke-dasharray:0.04701381, 0.04701381;stroke-dashoffset:0;stroke-opacity:1"
       id="circle831"
       cx="16.933332"
       cy="280.31543"
       r="15.626215" />
    <circle
       r="15.626215"
       cy="279.81787"
       cx="16.933332"
       id="circle3590"
       style="opacity:1;fill:#1b2329;fill-opacity:1;fill-rule:nonzero;stroke:none;stroke-width:0.18805525;stroke-linecap:round;stroke-miterlimit:4;stroke-dasharray:0.04701381, 0.04701381;stroke-dashoffset:0;stroke-opacity:1" />
    <path
       style="fill:#92df00;fill-opacity:1;stroke:none;stroke-width:0.21391149px;stroke-linecap:butt;stroke-linejoin:miter;stroke-opacity:1"
       d="m 10.72459,289.31786 c 0,0 1.522195,0.0227 2.560053,-0.97646 1.03786,-0.99917 0.74933,-2.10009 0.780344,-3.19504 0.04975,-1.75649 -0.104573,-8.49253 -0.104573,-8.49253 0,0 -0.0063,-0.66499 0.670722,-0.79999 0.804686,-0.16258 7.855863,-1.52352 7.855863,-1.52352 0,0 0.484333,-0.11355 0.484333,0.34062 0,0.45417 0.136469,6.26076 -0.04613,7.15315 -0.06074,0.29681 -0.436704,0.48458 -0.738032,0.545 -0.9431,0.1891 -1.975748,0.16845 -2.998262,0.90833 -1.372754,1.15391 -0.821853,3.18695 0.60143,3.91077 1.740834,0.64411 3.983332,-0.26041 4.241916,-2.13951 0.115318,-0.56771 0.212723,-10.04108 0.06919,-14.98754 -0.0071,-0.2413 -0.161445,-0.5223 -0.553525,-0.47688 -0.39208,0.0454 -10.009578,1.95292 -10.009578,1.95292 0,0 -0.576588,0.15896 -0.622716,0.68126 -0.04612,0.52229 -0.120843,11.45366 -0.120843,11.45366 0,0 0.05166,0.55908 -0.686379,0.69533 -0.738033,0.13625 -2.053608,0.16159 -2.9982589,0.93104 -1.7841359,1.69354 -0.6189334,4.07165 1.6144439,4.01939 z"
       id="path4534"
       inkscape:connector-curvature="0"
       sodipodi:nodetypes="ccscccssscccssccccccc" />
  </g>
</svg>
