<?xml version="1.0" encoding="UTF-8" standalone="no"?>
<!-- Created with Inkscape (http://www.inkscape.org/) -->

<svg
   xmlns:osb="http://www.openswatchbook.org/uri/2009/osb"
   xmlns:dc="http://purl.org/dc/elements/1.1/"
   xmlns:cc="http://creativecommons.org/ns#"
   xmlns:rdf="http://www.w3.org/1999/02/22-rdf-syntax-ns#"
   xmlns:svg="http://www.w3.org/2000/svg"
   xmlns="http://www.w3.org/2000/svg"
   xmlns:xlink="http://www.w3.org/1999/xlink"
   xmlns:sodipodi="http://sodipodi.sourceforge.net/DTD/sodipodi-0.dtd"
   xmlns:inkscape="http://www.inkscape.org/namespaces/inkscape"
   width="128"
   height="128"
   viewBox="0 0 33.866666 33.866668"
   version="1.1"
   id="svg8"
   inkscape:version="0.92.2 5c3e80d, 2017-08-06"
   sodipodi:docname="deja-dup.svg">
  <defs
     id="defs2">
    <linearGradient
       inkscape:collect="always"
       id="linearGradient4042">
      <stop
         style="stop-color:#f6f6f6;stop-opacity:1"
         offset="0"
         id="stop4038" />
      <stop
         style="stop-color:#cdcdcd;stop-opacity:1"
         offset="1"
         id="stop4040" />
    </linearGradient>
    <linearGradient
       id="linearGradient4392"
       inkscape:collect="always">
      <stop
         id="stop4388"
         offset="0"
         style="stop-color:#fefefe;stop-opacity:1" />
      <stop
         id="stop4390"
         offset="1"
         style="stop-color:#cacaca;stop-opacity:1" />
    </linearGradient>
    <linearGradient
       inkscape:collect="always"
       id="linearGradient4861">
      <stop
         style="stop-color:#13847e;stop-opacity:1"
         offset="0"
         id="stop4857" />
      <stop
         style="stop-color:#03292d;stop-opacity:1"
         offset="1"
         id="stop4859" />
    </linearGradient>
    <linearGradient
       id="linearGradient6987"
       osb:paint="solid">
      <stop
         style="stop-color:#77d2fb;stop-opacity:1;"
         offset="0"
         id="stop6985" />
    </linearGradient>
    <linearGradient
       gradientTransform="matrix(0.2400568,0,0,0.2400568,-12.374979,244.45932)"
       gradientUnits="userSpaceOnUse"
       y2="206.82208"
       x2="122.40987"
       y1="85.481728"
       x1="118.02655"
       id="linearGradient4394"
       xlink:href="#linearGradient4392"
       inkscape:collect="always" />
    <linearGradient
       inkscape:collect="always"
       xlink:href="#linearGradient4042"
       id="linearGradient4036"
       x1="69.361595"
       y1="189.90652"
       x2="68.567429"
       y2="210.15929"
       gradientUnits="userSpaceOnUse"
       gradientTransform="translate(37.652722,-10.01417)" />
    <linearGradient
       inkscape:collect="always"
       xlink:href="#linearGradient4042"
       id="linearGradient4116"
       x1="66.656845"
       y1="193.88425"
       x2="67.2033"
       y2="204.59198"
       gradientUnits="userSpaceOnUse"
       gradientTransform="translate(39.990392,-10.550611)" />
    <linearGradient
       inkscape:collect="always"
       xlink:href="#linearGradient4861"
       id="linearGradient1022"
       x1="-32.028965"
       y1="275.63333"
       x2="-32.057755"
       y2="292.22742"
       gradientUnits="userSpaceOnUse"
       gradientTransform="matrix(0.9403876,0,0,0.9403876,47.129768,14.482963)" />
  </defs>
  <sodipodi:namedview
     id="base"
     pagecolor="#ffffff"
     bordercolor="#666666"
     borderopacity="1.0"
     inkscape:pageopacity="0.0"
     inkscape:pageshadow="2"
     inkscape:zoom="2.8"
     inkscape:cx="114.34917"
     inkscape:cy="75.237233"
     inkscape:document-units="mm"
     inkscape:current-layer="layer1"
     showgrid="false"
     inkscape:window-width="1600"
     inkscape:window-height="803"
     inkscape:window-x="0"
     inkscape:window-y="0"
     inkscape:window-maximized="1"
     showguides="true"
     units="px" />
  <metadata
     id="metadata5">
    <rdf:RDF>
      <cc:Work
         rdf:about="">
        <dc:format>image/svg+xml</dc:format>
        <dc:type
           rdf:resource="http://purl.org/dc/dcmitype/StillImage" />
        <dc:title />
      </cc:Work>
    </rdf:RDF>
  </metadata>
  <g
     inkscape:label="Layer 1"
     inkscape:groupmode="layer"
     id="layer1"
     transform="translate(0,-263.13332)">
    <circle
       style="opacity:0.25;fill:#000000;fill-opacity:1;stroke:none;stroke-width:0.18807752;stroke-miterlimit:4;stroke-dasharray:none;stroke-opacity:1"
       id="circle849"
       cx="16.933332"
       cy="280.36249"
       r="15.579165" />
    <circle
       r="15.579165"
       cy="279.86487"
       cx="16.933332"
       id="circle4865"
       style="opacity:1;fill:url(#linearGradient4394);fill-opacity:1;stroke:#999999;stroke-width:0.18807752;stroke-miterlimit:4;stroke-dasharray:none;stroke-opacity:1" />
    <circle
       style="opacity:1;fill:url(#linearGradient1022);fill-opacity:1;stroke:none;stroke-width:0.22417291;stroke-miterlimit:4;stroke-dasharray:none;stroke-opacity:1"
       id="path4855"
       cx="16.933332"
       cy="279.86487"
       r="14.375926" />
    <g
       id="g4134"
       transform="matrix(0.9403876,0,0,0.9403876,-48.068509,91.536794)"
       style="stroke:none;stroke-opacity:1;stroke-width:0.10633913;stroke-miterlimit:4;stroke-dasharray:none">
      <g
         style="opacity:0.25;fill:#000000;stroke:none;stroke-opacity:1;stroke-width:0.10633913;stroke-miterlimit:4;stroke-dasharray:none"
         id="g4126"
         transform="translate(-37.443176,10.361363)">
        <path
           inkscape:connector-curvature="0"
           d="m 107.01421,179.89222 c -0.49064,-0.004 -0.98021,0.0117 -1.26659,0.0476 -1.94949,0.24449 -3.77276,1.0122 -5.302,2.2319 -0.40204,0.32065 -1.212756,1.13188 -1.544607,1.54564 -0.653918,0.8153 -1.317601,1.98941 -1.667082,2.9497 -0.198532,0.54549 -0.420137,1.42134 -0.504877,1.99367 -0.08942,0.60401 -0.06159,0.5824 -0.75913,0.5824 -0.504954,0 -0.563692,0.007 -0.653187,0.0775 -0.127654,0.10042 -0.124225,0.16696 0.02119,0.39119 0.06583,0.10157 0.6101,1.02477 1.20923,2.05156 l 1.089338,1.86706 0.125574,0.22841 0.126089,-0.22841 0.979271,-1.68 c 0.538813,-0.92411 1.080595,-1.85056 1.204061,-2.05827 0.0673,-0.1132 0.12818,-0.22318 0.1695,-0.30541 0.0345,-0.0687 0.0553,-0.11804 0.0553,-0.13332 0,-0.0336 -0.0378,-0.0996 -0.0749,-0.13539 -0.0303,-0.0292 -0.0539,-0.0457 -0.11266,-0.0568 -0.0843,-0.0159 -0.23637,-0.0181 -0.559136,-0.0181 -0.547621,0 -0.603861,-0.006 -0.672308,-0.0744 -0.101241,-0.10124 -0.09606,-0.28485 0.02169,-0.817 0.27268,-1.23181 0.861198,-2.46908 1.651064,-3.47059 0.54548,-0.69165 1.43982,-1.45163 2.28513,-1.94149 1.89372,-1.09741 4.26276,-1.38194 6.3965,-0.76843 1.86315,0.53572 3.47581,1.71532 4.55425,3.33158 0.27364,0.4101 0.68595,1.22093 0.86713,1.70533 0.41236,1.10248 0.60311,2.45453 0.50591,3.58479 -0.1885,2.19165 -1.12109,4.11235 -2.67994,5.51853 -1.24649,1.12443 -2.73816,1.82444 -4.39973,2.06499 -0.54068,0.0783 -1.63235,0.0877 -2.14509,0.0191 -1.69304,-0.22685 -3.25778,-0.94441 -4.50876,-2.06809 -0.35228,-0.31644 -0.54568,-0.40721 -0.86765,-0.40721 -0.36923,0 -0.661276,0.15416 -0.864548,0.45682 -0.250571,0.37309 -0.206832,0.76936 0.122473,1.10639 0.603125,0.61727 1.690365,1.38269 2.585885,1.82056 1.14618,0.56043 2.36454,0.90682 3.61012,1.02681 0.47716,0.046 1.79341,0.017 2.27479,-0.0501 1.55502,-0.21698 3.00091,-0.75437 4.25659,-1.58181 0.66099,-0.43556 0.99614,-0.70684 1.5999,-1.29605 0.89352,-0.87202 1.54322,-1.75603 2.0743,-2.82205 0.56831,-1.1408 0.86296,-2.16503 0.99632,-3.46335 0.0645,-0.62816 0.0246,-1.9957 -0.0755,-2.58382 -0.29948,-1.76118 -1.02453,-3.38828 -2.13011,-4.77904 -0.37225,-0.46828 -1.1287,-1.23109 -1.56889,-1.58233 -1.4913,-1.18993 -3.26515,-1.95176 -5.15266,-2.2133 -0.29003,-0.0402 -0.78163,-0.0631 -1.27227,-0.0667 z m -0.35864,7.69824 c -6e-5,0.0131 -5.3e-4,0.0262 -5.3e-4,0.0393 0.004,-0.0133 0.005,-0.0158 0.008,-0.0284 4e-5,-5.2e-4 5.3e-4,-0.001 5.3e-4,-0.002 -1.4e-4,-2.2e-4 1.4e-4,-8e-4 0,-10e-4 -0.002,-0.003 -0.005,-0.006 -0.008,-0.008 z"
           style="fill:#000000;fill-opacity:1;stroke-width:0.10633913;stroke:none;stroke-opacity:1;stroke-miterlimit:4;stroke-dasharray:none"
           id="path4122" />
        <path
           inkscape:connector-curvature="0"
           id="path4124"
           d="m 106.64723,183.33359 c -0.23452,0 -0.42323,0.20106 -0.42323,0.45062 v 6.06733 a 0.72051708,0.72051708 0 0 0 -0.28319,0.57205 0.72051708,0.72051708 0 0 0 0.72037,0.72037 0.72051708,0.72051708 0 0 0 0.0574,-0.002 l 2.71146,2.71146 c 0.17647,0.17646 0.45222,0.18495 0.61805,0.0191 0.16583,-0.16583 0.15735,-0.44159 -0.0191,-0.61805 l -2.66702,-2.66702 a 0.72051708,0.72051708 0 0 0 0.0196,-0.16382 0.72051708,0.72051708 0 0 0 -0.31057,-0.59221 v -6.04717 c 0,-0.24956 -0.18923,-0.45062 -0.42375,-0.45062 z"
           style="opacity:1;fill:#000000;fill-opacity:1;fill-rule:nonzero;stroke:none;stroke-width:0.10633913;stroke-linecap:round;stroke-linejoin:round;stroke-miterlimit:4;stroke-dasharray:none;stroke-dashoffset:0;stroke-opacity:1" />
      </g>
      <g
         transform="translate(-37.443176,9.832196)"
         id="g4120"
         style="stroke:none;stroke-opacity:1;stroke-width:0.10633913;stroke-miterlimit:4;stroke-dasharray:none">
        <path
           id="path3746"
           style="fill:url(#linearGradient4036);fill-opacity:1;stroke-width:0.10633913;stroke:none;stroke-opacity:1;stroke-miterlimit:4;stroke-dasharray:none"
           d="m 107.01421,179.89222 c -0.49064,-0.004 -0.98021,0.0117 -1.26659,0.0476 -1.94949,0.24449 -3.77276,1.0122 -5.302,2.2319 -0.40204,0.32065 -1.212756,1.13188 -1.544607,1.54564 -0.653918,0.8153 -1.317601,1.98941 -1.667082,2.9497 -0.198532,0.54549 -0.420137,1.42134 -0.504877,1.99367 -0.08942,0.60401 -0.06159,0.5824 -0.75913,0.5824 -0.504954,0 -0.563692,0.007 -0.653187,0.0775 -0.127654,0.10042 -0.124225,0.16696 0.02119,0.39119 0.06583,0.10157 0.6101,1.02477 1.20923,2.05156 l 1.089338,1.86706 0.125574,0.22841 0.126089,-0.22841 0.979271,-1.68 c 0.538813,-0.92411 1.080595,-1.85056 1.204061,-2.05827 0.0673,-0.1132 0.12818,-0.22318 0.1695,-0.30541 0.0345,-0.0687 0.0553,-0.11804 0.0553,-0.13332 0,-0.0336 -0.0378,-0.0996 -0.0749,-0.13539 -0.0303,-0.0292 -0.0539,-0.0457 -0.11266,-0.0568 -0.0843,-0.0159 -0.23637,-0.0181 -0.559136,-0.0181 -0.547621,0 -0.603861,-0.006 -0.672308,-0.0744 -0.101241,-0.10124 -0.09606,-0.28485 0.02169,-0.817 0.27268,-1.23181 0.861198,-2.46908 1.651064,-3.47059 0.54548,-0.69165 1.43982,-1.45163 2.28513,-1.94149 1.89372,-1.09741 4.26276,-1.38194 6.3965,-0.76843 1.86315,0.53572 3.47581,1.71532 4.55425,3.33158 0.27364,0.4101 0.68595,1.22093 0.86713,1.70533 0.41236,1.10248 0.60311,2.45453 0.50591,3.58479 -0.1885,2.19165 -1.12109,4.11235 -2.67994,5.51853 -1.24649,1.12443 -2.73816,1.82444 -4.39973,2.06499 -0.54068,0.0783 -1.63235,0.0877 -2.14509,0.0191 -1.69304,-0.22685 -3.25778,-0.94441 -4.50876,-2.06809 -0.35228,-0.31644 -0.54568,-0.40721 -0.86765,-0.40721 -0.36923,0 -0.661276,0.15416 -0.864548,0.45682 -0.250571,0.37309 -0.206832,0.76936 0.122473,1.10639 0.603125,0.61727 1.690365,1.38269 2.585885,1.82056 1.14618,0.56043 2.36454,0.90682 3.61012,1.02681 0.47716,0.046 1.79341,0.017 2.27479,-0.0501 1.55502,-0.21698 3.00091,-0.75437 4.25659,-1.58181 0.66099,-0.43556 0.99614,-0.70684 1.5999,-1.29605 0.89352,-0.87202 1.54322,-1.75603 2.0743,-2.82205 0.56831,-1.1408 0.86296,-2.16503 0.99632,-3.46335 0.0645,-0.62816 0.0246,-1.9957 -0.0755,-2.58382 -0.29948,-1.76118 -1.02453,-3.38828 -2.13011,-4.77904 -0.37225,-0.46828 -1.1287,-1.23109 -1.56889,-1.58233 -1.4913,-1.18993 -3.26515,-1.95176 -5.15266,-2.2133 -0.29003,-0.0402 -0.78163,-0.0631 -1.27227,-0.0667 z m -0.35864,7.69824 c -6e-5,0.0131 -5.3e-4,0.0262 -5.3e-4,0.0393 0.004,-0.0133 0.005,-0.0158 0.008,-0.0284 4e-5,-5.2e-4 5.3e-4,-0.001 5.3e-4,-0.002 -1.4e-4,-2.2e-4 1.4e-4,-8e-4 0,-10e-4 -0.002,-0.003 -0.005,-0.006 -0.008,-0.008 z"
           inkscape:connector-curvature="0" />
        <path
           style="opacity:1;fill:url(#linearGradient4116);fill-opacity:1;fill-rule:nonzero;stroke:none;stroke-width:0.10633913;stroke-linecap:round;stroke-linejoin:round;stroke-miterlimit:4;stroke-dasharray:none;stroke-dashoffset:0;stroke-opacity:1"
           d="m 106.64723,183.33359 c -0.23452,0 -0.42323,0.20106 -0.42323,0.45062 v 6.06733 a 0.72051708,0.72051708 0 0 0 -0.28319,0.57205 0.72051708,0.72051708 0 0 0 0.72037,0.72037 0.72051708,0.72051708 0 0 0 0.0574,-0.002 l 2.71146,2.71146 c 0.17647,0.17646 0.45222,0.18495 0.61805,0.0191 0.16583,-0.16583 0.15735,-0.44159 -0.0191,-0.61805 l -2.66702,-2.66702 a 0.72051708,0.72051708 0 0 0 0.0196,-0.16382 0.72051708,0.72051708 0 0 0 -0.31057,-0.59221 v -6.04717 c 0,-0.24956 -0.18923,-0.45062 -0.42375,-0.45062 z"
           id="path4052"
           inkscape:connector-curvature="0" />
      </g>
    </g>
  </g>
</svg>
