<?xml version="1.0" encoding="UTF-8" standalone="no"?>
<!-- Created with Inkscape (http://www.inkscape.org/) -->

<svg
   xmlns:dc="http://purl.org/dc/elements/1.1/"
   xmlns:cc="http://creativecommons.org/ns#"
   xmlns:rdf="http://www.w3.org/1999/02/22-rdf-syntax-ns#"
   xmlns:svg="http://www.w3.org/2000/svg"
   xmlns="http://www.w3.org/2000/svg"
   xmlns:xlink="http://www.w3.org/1999/xlink"
   xmlns:sodipodi="http://sodipodi.sourceforge.net/DTD/sodipodi-0.dtd"
   xmlns:inkscape="http://www.inkscape.org/namespaces/inkscape"
   width="128"
   height="128"
   viewBox="0 0 33.866666 33.866668"
   version="1.1"
   id="svg8"
   inkscape:version="0.92.2 5c3e80d, 2017-08-06"
   sodipodi:docname="drawing.svg">
  <defs
     id="defs2">
    <linearGradient
       inkscape:collect="always"
       id="linearGradient1435">
      <stop
         style="stop-color:#0062b1;stop-opacity:1"
         offset="0"
         id="stop1431" />
      <stop
         style="stop-color:#00b2f9;stop-opacity:1"
         offset="1"
         id="stop1433" />
    </linearGradient>
    <linearGradient
       inkscape:collect="always"
       xlink:href="#linearGradient1435"
       id="linearGradient1437"
       x1="174.47096"
       y1="99.101585"
       x2="176.58763"
       y2="69.619446"
       gradientUnits="userSpaceOnUse" />
  </defs>
  <sodipodi:namedview
     id="base"
     pagecolor="#ffffff"
     bordercolor="#666666"
     borderopacity="1.0"
     inkscape:pageopacity="0.0"
     inkscape:pageshadow="2"
     inkscape:zoom="1.979899"
     inkscape:cx="7.2614114"
     inkscape:cy="48.249689"
     inkscape:document-units="mm"
     inkscape:current-layer="layer1"
     showgrid="false"
     inkscape:window-width="1600"
     inkscape:window-height="803"
     inkscape:window-x="0"
     inkscape:window-y="0"
     inkscape:window-maximized="1"
     units="px" />
  <metadata
     id="metadata5">
    <rdf:RDF>
      <cc:Work
         rdf:about="">
        <dc:format>image/svg+xml</dc:format>
        <dc:type
           rdf:resource="http://purl.org/dc/dcmitype/StillImage" />
        <dc:title></dc:title>
      </cc:Work>
    </rdf:RDF>
  </metadata>
  <g
     inkscape:label="Layer 1"
     inkscape:groupmode="layer"
     id="layer1"
     transform="translate(0,-263.13332)">
    <g
       id="g1447"
       transform="matrix(0.92307696,0,0,0.92307696,-147.71048,200.90447)">
      <circle
         style="opacity:0.25;fill:#000000;fill-opacity:1;stroke:none;stroke-width:0.1005663;stroke-miterlimit:4;stroke-dasharray:none;stroke-dashoffset:0;stroke-opacity:1"
         id="circle1441"
         cx="178.36412"
         cy="86.023613"
         r="16.933332" />
      <circle
         r="16.933332"
         cy="85.494446"
         cx="178.36412"
         id="path1429"
         style="opacity:1;fill:url(#linearGradient1437);fill-opacity:1;stroke:none;stroke-width:0.1005663;stroke-miterlimit:4;stroke-dasharray:none;stroke-dashoffset:0;stroke-opacity:1" />
      <path
         style="opacity:0.25;fill:#000000;fill-opacity:1;stroke-width:0.43816963"
         inkscape:connector-curvature="0"
         d="m 184.82511,75.396468 c -4.15034,0 -4.92941,6.308768 -2.59309,6.308768 2.33457,0 6.74562,-6.308768 2.59309,-6.308768 z m -6.39377,0.970105 c -0.0653,0 -0.1354,0.0066 -0.20901,0.01181 -2.35341,0.297957 -1.52483,4.279168 -0.2721,4.354532 1.21022,0.07186 2.53656,-4.35979 0.47935,-4.368551 z m -4.07717,1.470058 c -0.14372,-0.0088 -0.30453,0.01887 -0.48111,0.0907 -1.89114,0.777312 -0.28744,3.981211 0.77205,3.767385 0.96004,-0.194989 1.09893,-3.767385 -0.29094,-3.858088 z m -3.08603,2.620256 c -0.16431,-0.0046 -0.34221,0.05344 -0.53238,0.19367 -1.513,1.1296 0.51003,3.859837 1.39996,3.435253 0.77906,-0.369817 0.28261,-3.587735 -0.86933,-3.628481 z m 8.93778,2.605359 c -3.2775,-0.05654 -7.60443,1.607207 -8.34406,4.953506 -0.79747,3.614897 3.28978,8.635006 7.55361,8.635006 2.09839,0 4.52015,-1.919178 4.9719,-4.347518 0.34616,-1.850386 -4.0684,-1.109003 -3.91066,0.116558 0.18973,1.468303 -1.06475,2.193911 -2.29382,1.247465 -3.91285,-3.014167 6.47834,-4.518407 5.79217,-8.636326 -0.21207,-1.282517 -1.80394,-1.934516 -3.77089,-1.968691 z m 0,0"
         id="path1439" />
      <path
         id="path1072"
         d="m 184.82511,74.867301 c -4.15034,0 -4.92941,6.308768 -2.59309,6.308768 2.33457,0 6.74562,-6.308768 2.59309,-6.308768 z m -6.39377,0.970105 c -0.0653,0 -0.1354,0.0066 -0.20901,0.01181 -2.35341,0.297957 -1.52483,4.279168 -0.2721,4.354532 1.21022,0.07186 2.53656,-4.35979 0.47935,-4.368551 z m -4.07717,1.470058 c -0.14372,-0.0088 -0.30453,0.01887 -0.48111,0.0907 -1.89114,0.777312 -0.28744,3.981211 0.77205,3.767385 0.96004,-0.194989 1.09893,-3.767385 -0.29094,-3.858088 z m -3.08603,2.620256 c -0.16431,-0.0046 -0.34221,0.05344 -0.53238,0.19367 -1.513,1.1296 0.51003,3.859837 1.39996,3.435253 0.77906,-0.369817 0.28261,-3.587735 -0.86933,-3.628481 z m 8.93778,2.605359 c -3.2775,-0.05654 -7.60443,1.607207 -8.34406,4.953506 -0.79747,3.614897 3.28978,8.635006 7.55361,8.635006 2.09839,0 4.52015,-1.919178 4.9719,-4.347518 0.34616,-1.850386 -4.0684,-1.109003 -3.91066,0.116558 0.18973,1.468303 -1.06475,2.193911 -2.29382,1.247465 -3.91285,-3.014167 6.47834,-4.518407 5.79217,-8.636326 -0.21207,-1.282517 -1.80394,-1.934516 -3.77089,-1.968691 z m 0,0"
         inkscape:connector-curvature="0"
         style="fill:#dde9f4;fill-opacity:1;stroke-width:0.43816963" />
    </g>
  </g>
</svg>
