<?xml version="1.0" encoding="UTF-8" standalone="no"?>
<!-- Created with Inkscape (http://www.inkscape.org/) -->

<svg
   xmlns:osb="http://www.openswatchbook.org/uri/2009/osb"
   xmlns:dc="http://purl.org/dc/elements/1.1/"
   xmlns:cc="http://creativecommons.org/ns#"
   xmlns:rdf="http://www.w3.org/1999/02/22-rdf-syntax-ns#"
   xmlns:svg="http://www.w3.org/2000/svg"
   xmlns="http://www.w3.org/2000/svg"
   xmlns:sodipodi="http://sodipodi.sourceforge.net/DTD/sodipodi-0.dtd"
   xmlns:inkscape="http://www.inkscape.org/namespaces/inkscape"
   width="128"
   height="128"
   viewBox="0 0 33.866665 33.866665"
   version="1.1"
   id="svg4942"
   inkscape:version="0.92.2 5c3e80d, 2017-08-06"
   sodipodi:docname="simplescreenrecorder.svg">
  <defs
     id="defs4936">
    <linearGradient
       id="linearGradient6987"
       osb:paint="solid">
      <stop
         style="stop-color:#77d2fb;stop-opacity:1;"
         offset="0"
         id="stop6985" />
    </linearGradient>
    <linearGradient
       gradientTransform="scale(1.0058652,0.994169)"
       gradientUnits="userSpaceOnUse"
       id="ButtonShadow"
       y2="7.0165396"
       x2="45.447727"
       y1="92.539597"
       x1="45.447727">
      <stop
         offset="0"
         style="stop-color:#000000;stop-opacity:1"
         id="stop3750" />
      <stop
         offset="1"
         style="stop-color:#000000;stop-opacity:0.58823532"
         id="stop3752" />
    </linearGradient>
    <filter
       id="filter3174"
       color-interpolation-filters="sRGB">
      <feGaussianBlur
         stdDeviation="1.71"
         id="feGaussianBlur3176" />
    </filter>
    <linearGradient
       osb:paint="gradient"
       id="linearGradient1102">
      <stop
         id="stop1098"
         offset="0"
         style="stop-color:#999999;stop-opacity:1" />
      <stop
         id="stop1100"
         offset="1"
         style="stop-color:#808080;stop-opacity:1" />
    </linearGradient>
  </defs>
  <sodipodi:namedview
     id="base"
     pagecolor="#ffffff"
     bordercolor="#666666"
     borderopacity="1.0"
     inkscape:pageopacity="0.0"
     inkscape:pageshadow="2"
     inkscape:zoom="0.88029809"
     inkscape:cx="-161.44114"
     inkscape:cy="75.414913"
     inkscape:document-units="mm"
     inkscape:current-layer="layer1"
     showgrid="false"
     units="px"
     width="128px"
     inkscape:window-width="1600"
     inkscape:window-height="803"
     inkscape:window-x="0"
     inkscape:window-y="0"
     inkscape:window-maximized="1" />
  <metadata
     id="metadata4939">
    <rdf:RDF>
      <cc:Work
         rdf:about="">
        <dc:format>image/svg+xml</dc:format>
        <dc:type
           rdf:resource="http://purl.org/dc/dcmitype/StillImage" />
        <dc:title />
      </cc:Work>
    </rdf:RDF>
  </metadata>
  <g
     inkscape:label="Layer 1"
     inkscape:groupmode="layer"
     id="layer1"
     transform="translate(0,-263.13332)">
    <g
       id="layer2"
       style="display:none"
       transform="matrix(0.26458333,0,0,0.26458333,-92.023358,258.35881)">
      <rect
         width="86"
         height="85"
         rx="6"
         ry="6"
         x="5"
         y="7"
         id="rect3745"
         style="opacity:0.9;fill:url(#ButtonShadow);fill-opacity:1;fill-rule:nonzero;stroke:none;filter:url(#filter3174)" />
    </g>
    <rect
       rx="1.3876748"
       ry="1.3876748"
       y="267.40884"
       x="1.1583031"
       height="25.315619"
       width="31.55006"
       id="rect901"
       style="fill:#cccccc;fill-opacity:1;stroke:#808080;stroke-width:0.2;stroke-miterlimit:4;stroke-dasharray:none;stroke-opacity:1" />
    <rect
       style="fill:#000000;fill-opacity:1;stroke:none;stroke-width:0.08765683"
       id="rect897"
       width="31.55006"
       height="20.507538"
       x="1.1583858"
       y="267.40884"
       ry="1.12412"
       rx="1.12412" />
    <rect
       style="opacity:1;fill:#346fb1;fill-opacity:1;stroke:none;stroke-width:0.12911996;stroke-miterlimit:4;stroke-dasharray:0.03227998, 0.03227998000000000;stroke-dashoffset:0;stroke-opacity:1"
       id="rect1848"
       width="28.480881"
       height="17.545879"
       x="2.7307405"
       y="268.79901"
       ry="0.41185313" />
    <path
       inkscape:connector-curvature="0"
       id="path1568"
       d="m 16.538264,291.32487 c -0.01058,-0.002 -0.016,-0.004 -0.01203,-0.005 0.0039,-2.5e-4 -0.0014,-0.003 -0.0116,-0.006 -0.04007,-0.009 -0.101226,-0.0471 -0.151599,-0.0931 -0.04931,-0.0452 -0.149291,-0.17534 -0.205212,-0.26714 -0.09613,-0.15777 -0.17026,-0.3579 -0.201617,-0.54422 -0.02101,-0.12484 -0.0223,-0.27494 -0.0032,-0.3824 0.05758,-0.32525 0.300154,-0.55258 0.590155,-0.5531 0.05956,-1.1e-4 0.102273,0.009 0.185437,0.0378 0.189508,0.0665 0.189298,0.0665 0.221371,0.0664 0.02489,-7e-5 0.0446,-0.005 0.09628,-0.023 0.235582,-0.0828 0.252258,-0.0869 0.349035,-0.0865 0.130965,2.5e-4 0.256206,0.0405 0.351855,0.11161 0.03671,0.0273 0.0854,0.0754 0.106905,0.1056 l 0.0103,0.0144 -0.04197,0.0314 c -0.159058,0.11878 -0.232232,0.28155 -0.217219,0.48314 0.005,0.0662 0.01616,0.11496 0.03973,0.1728 0.04326,0.10614 0.146789,0.21891 0.249839,0.27217 0.01785,0.009 0.03249,0.0193 0.0325,0.0224 5.4e-5,0.0156 -0.04008,0.11396 -0.07525,0.1845 -0.0542,0.10869 -0.126429,0.21687 -0.208441,0.31214 -0.05907,0.0687 -0.135954,0.11887 -0.202837,0.13252 -0.01699,0.003 -0.02767,0.008 -0.02372,0.009 0.0039,0.002 -0.009,0.003 -0.02892,0.003 -0.02118,1.3e-4 -0.03347,-0.002 -0.02974,-0.004 0.0041,-0.003 -0.0033,-0.005 -0.02068,-0.007 -0.02947,-0.003 -0.08273,-0.0201 -0.161425,-0.0504 -0.07852,-0.0302 -0.138797,-0.0408 -0.211825,-0.0377 -0.06432,0.003 -0.104836,0.0114 -0.173315,0.0369 -0.08591,0.0318 -0.135113,0.0482 -0.153784,0.0511 -0.01066,0.002 -0.0182,0.005 -0.01674,0.007 0.0014,0.003 -0.0027,0.004 -0.009,0.004 -0.0064,0 -0.02115,9.5e-4 -0.03279,0.002 -0.01163,9.6e-4 -0.0298,2.1e-4 -0.04039,-0.002 z m 0.405201,-1.90026 c -0.0061,-0.006 -0.0032,-0.0936 0.0043,-0.12982 0.02721,-0.13177 0.120439,-0.26308 0.24,-0.33805 0.05045,-0.0317 0.117718,-0.0611 0.165,-0.0723 0.01954,-0.005 0.03403,-0.01 0.03218,-0.0117 -0.0018,-0.002 0.0033,-0.003 0.01148,-0.003 0.0082,0 0.01781,-9.5e-4 0.02142,-0.003 0.01453,-0.006 1.22e-4,0.13248 -0.02062,0.19751 -0.04973,0.15585 -0.179092,0.29738 -0.312334,0.34172 -0.0483,0.0161 -0.132814,0.0271 -0.141431,0.0185 z"
       style="fill:#000000;stroke-width:0.00505539" />
  </g>
</svg>
