<?xml version="1.0" encoding="UTF-8" standalone="no"?>
<!-- Created with Inkscape (http://www.inkscape.org/) -->

<svg
   xmlns:dc="http://purl.org/dc/elements/1.1/"
   xmlns:cc="http://creativecommons.org/ns#"
   xmlns:rdf="http://www.w3.org/1999/02/22-rdf-syntax-ns#"
   xmlns:svg="http://www.w3.org/2000/svg"
   xmlns="http://www.w3.org/2000/svg"
   xmlns:xlink="http://www.w3.org/1999/xlink"
   xmlns:sodipodi="http://sodipodi.sourceforge.net/DTD/sodipodi-0.dtd"
   xmlns:inkscape="http://www.inkscape.org/namespaces/inkscape"
   width="128"
   height="128"
   viewBox="0 0 33.866666 33.866668"
   version="1.1"
   id="svg8"
   inkscape:version="0.92.2 5c3e80d, 2017-08-06"
   sodipodi:docname="ma.svg">
  <defs
     id="defs2">
    <linearGradient
       gradientTransform="matrix(0.24971371,0.03066099,-0.03962352,0.32270783,-41.634608,-244.61571)"
       y2="968.85486"
       x2="59.895287"
       y1="1015.5117"
       x1="33.271156"
       gradientUnits="userSpaceOnUse"
       id="linearGradient4319"
       xlink:href="#linearGradient4321"
       inkscape:collect="always" />
    <linearGradient
       id="linearGradient4321"
       inkscape:collect="always">
      <stop
         id="stop4323"
         offset="0"
         style="stop-color:#7dbded;stop-opacity:1" />
      <stop
         style="stop-color:#4f9ce7;stop-opacity:1;"
         offset="0.47546974"
         id="stop4767" />
      <stop
         id="stop4325"
         offset="1"
         style="stop-color:#237fe5;stop-opacity:1" />
    </linearGradient>
    <clipPath
       id="clipPath4780"
       clipPathUnits="userSpaceOnUse">
      <rect
         style="fill:url(#linearGradient4784);fill-opacity:1;stroke:none"
         id="rect4782"
         width="74.754715"
         height="74.754715"
         x="10.622642"
         y="966.9848"
         rx="6.5939178"
         ry="6.5939178" />
    </clipPath>
  </defs>
  <sodipodi:namedview
     id="base"
     pagecolor="#ffffff"
     bordercolor="#666666"
     borderopacity="1.0"
     inkscape:pageopacity="0.0"
     inkscape:pageshadow="2"
     inkscape:zoom="2.8284271"
     inkscape:cx="54.364733"
     inkscape:cy="59.816061"
     inkscape:document-units="mm"
     inkscape:current-layer="layer1"
     showgrid="false"
     inkscape:window-width="1600"
     inkscape:window-height="792"
     inkscape:window-x="0"
     inkscape:window-y="0"
     inkscape:window-maximized="1"
     units="px" />
  <metadata
     id="metadata5">
    <rdf:RDF>
      <cc:Work
         rdf:about="">
        <dc:format>image/svg+xml</dc:format>
        <dc:type
           rdf:resource="http://purl.org/dc/dcmitype/StillImage" />
        <dc:title></dc:title>
      </cc:Work>
    </rdf:RDF>
  </metadata>
  <g
     inkscape:label="Layer 1"
     inkscape:groupmode="layer"
     id="layer1"
     transform="translate(0,-263.13332)">
    <g
       id="g3932"
       transform="matrix(0.02168716,0,0,0.02168716,-44.251537,62.543122)" />
    <g
       id="g1972"
       transform="matrix(0.98568182,0,0,0.98568182,73.782465,192.17448)"
       style="stroke-width:1.01452613">
      <path
         d="m -70.985526,75.388332 c -0.062,0.195705 -0.190224,0.372433 -0.371354,0.500225 -0.282035,0.198986 -0.650528,0.250601 -0.975931,0.138734 -0.08018,0.04223 -0.112241,0.0042 -0.125072,-0.05286 -0.03156,-0.01578 -0.06204,-0.0328 -0.09127,-0.05128 -0.09206,0.173531 -0.236357,0.315587 -0.411591,0.410637 l 0.04476,0.364461 c 0.209575,0.05411 0.397473,0.170915 0.531747,0.337553 0.217049,0.26937 0.26119,0.628873 0.115729,0.94269 -0.08998,0.194169 -0.244123,0.352129 -0.434392,0.45535 l 0.04476,0.364462 c 0.209575,0.05411 0.397473,0.170915 0.531747,0.337553 0.217049,0.269369 0.261189,0.628864 0.115729,0.94269 -0.08998,0.194211 -0.244123,0.352128 -0.434393,0.45535 l 0.04476,0.364461 c 0.209574,0.05411 0.397473,0.170874 0.531747,0.337553 0.217049,0.269329 0.261189,0.628873 0.11577,0.942687 -0.08998,0.19421 -0.244123,0.352128 -0.434392,0.455354 l 0.04476,0.364461 c 0.209575,0.05411 0.397473,0.170874 0.531747,0.337553 0.217049,0.269329 0.26119,0.628873 0.115729,0.942687 -0.08998,0.19421 -0.244123,0.352128 -0.434393,0.455354 l 0.04476,0.364461 c 0.209574,0.05411 0.397473,0.170915 0.531747,0.337553 0.217049,0.26937 0.261189,0.628873 0.11577,0.942691 -0.08998,0.194168 -0.244123,0.352128 -0.434392,0.45535 l 0.04476,0.364461 c 0.209575,0.05411 0.397473,0.170915 0.531747,0.337553 0.217049,0.26937 0.26119,0.628873 0.115729,0.94269 -0.08998,0.194169 -0.244123,0.352129 -0.434393,0.45535 l 0.04476,0.364461 c 0.209574,0.05411 0.397473,0.170916 0.531747,0.337554 0.217049,0.269369 0.261189,0.628872 0.11577,0.94269 -0.08998,0.194169 -0.244123,0.352128 -0.434392,0.45535 l 0.04476,0.364461 c 0.209575,0.05411 0.397473,0.170915 0.531747,0.337553 0.217049,0.269329 0.26119,0.628873 0.115771,0.942691 -0.08998,0.194169 -0.244123,0.352128 -0.434393,0.455358 l 0.04476,0.364461 c 0.209575,0.05411 0.397474,0.170915 0.531752,0.337554 0.217048,0.269369 0.261106,0.628058 0.115645,0.941893 -0.08998,0.194169 -0.244039,0.352959 -0.434297,0.45616 l 0.04476,0.364461 c 0.209574,0.05415 0.397473,0.170915 0.531747,0.337553 0.217049,0.269328 0.261106,0.628055 0.115646,0.941889 -0.08998,0.194169 -0.24404,0.352959 -0.434293,0.456168 l 0.04476,0.364461 c 0.209575,0.05411 0.397473,0.170915 0.531747,0.337553 0.217049,0.26937 0.261107,0.628055 0.115646,0.941889 -0.08998,0.194169 -0.24404,0.352959 -0.434293,0.45616 l 0.04476,0.364461 c 0.209574,0.05411 0.397473,0.170915 0.531746,0.337553 0.217049,0.26937 0.261107,0.62805 0.115646,0.94189 -0.08998,0.19417 -0.244039,0.35296 -0.434293,0.45617 l 0.04476,0.36446 c 0.209574,0.0541 0.397473,0.17091 0.531747,0.33755 0.217049,0.26933 0.261106,0.62806 0.115646,0.94189 -0.08998,0.19417 -0.24404,0.35296 -0.434293,0.45617 l 0.04476,0.36446 c 0.209575,0.0541 0.397473,0.17092 0.531747,0.33756 0.217049,0.26937 0.261107,0.62805 0.115646,0.94189 -0.08998,0.19416 -0.24404,0.35291 -0.434297,0.45615 l 0.02824,0.22921 c 0.05004,-0.0345 0.109251,-0.0826 0.211941,-0.15509 0.293247,-0.20692 0.679408,-0.2543 1.013972,-0.12449 0.206667,0.0802 0.373845,0.22062 0.481344,0.39552 l 0.394068,-0.0484 c 0.062,-0.1957 0.190224,-0.37243 0.371354,-0.50022 0.293247,-0.20692 0.679417,-0.2543 1.013972,-0.12449 0.206668,0.0802 0.373846,0.22062 0.481344,0.39552 l 0.39411,-0.0484 c 0.062,-0.1957 0.190224,-0.37243 0.371354,-0.50022 0.293247,-0.20692 0.679417,-0.2543 1.013972,-0.12449 0.206667,0.0802 0.373845,0.22062 0.481344,0.39552 l 0.394068,-0.0484 c 0.062,-0.1957 0.190266,-0.37243 0.371354,-0.50022 0.293247,-0.20692 0.679417,-0.2543 1.013972,-0.1245 0.206668,0.0802 0.373846,0.22062 0.481344,0.39553 l 0.394068,-0.0484 c 0.062,-0.19571 0.190224,-0.37243 0.371355,-0.50023 0.293246,-0.20687 0.679408,-0.25429 1.013975,-0.12449 0.206668,0.0802 0.373846,0.22062 0.481345,0.39553 l 0.394109,-0.0484 c 0.062,-0.19571 0.190224,-0.37243 0.371354,-0.50023 0.293247,-0.20687 0.679417,-0.25429 1.013972,-0.12449 0.206668,0.0802 0.373846,0.22062 0.481344,0.39552 l 0.394069,-0.0484 c 0.062,-0.19571 0.190224,-0.37244 0.371354,-0.50023 0.293246,-0.20687 0.679404,-0.25429 1.013971,-0.12449 0.206668,0.0802 0.373846,0.22062 0.481345,0.39552 l 0.394068,-0.0484 c 0.062,-0.19571 0.190224,-0.37244 0.371354,-0.50022 0.293246,-0.20692 0.679408,-0.2543 1.013972,-0.12449 0.206667,0.0802 0.373845,0.22062 0.481344,0.39552 l 0.394068,-0.0484 c 0.062,-0.1957 0.190266,-0.37243 0.371354,-0.50023 0.293247,-0.20691 0.679404,-0.25429 1.013972,-0.12449 0.206667,0.0802 0.373845,0.22067 0.481344,0.39553 l 0.394068,-0.0484 c 0.062,-0.19571 0.190224,-0.37243 0.371354,-0.50023 0.293247,-0.20691 0.679409,-0.25429 1.013972,-0.12449 0.206668,0.0802 0.373846,0.22062 0.481344,0.39552 l 0.394068,-0.0484 c 0.06204,-0.19571 0.190266,-0.37244 0.371355,-0.50023 0.293246,-0.20691 0.679416,-0.25429 1.013971,-0.12449 0.073,0.0282 0.121584,0.0476 0.159787,0.0618 l -0.03114,-0.2543 c -0.209159,-0.0542 -0.396725,-0.1705 -0.530779,-0.33684 -0.217049,-0.26933 -0.26119,-0.62888 -0.115771,-0.94269 0.08982,-0.19384 0.243791,-0.35122 0.433621,-0.45444 l -0.04493,-0.36608 c -0.209159,-0.0542 -0.396726,-0.1705 -0.530779,-0.33685 -0.217049,-0.26933 -0.26119,-0.628854 -0.115771,-0.942689 0.08982,-0.193836 0.243832,-0.351214 0.43362,-0.454444 l -0.04493,-0.366081 c -0.209159,-0.05423 -0.396726,-0.1705 -0.53078,-0.336847 -0.217048,-0.26937 -0.261189,-0.628877 -0.11577,-0.942782 0.08982,-0.193837 0.243791,-0.351215 0.433624,-0.454424 l -0.04493,-0.366081 c -0.209159,-0.05423 -0.396726,-0.170499 -0.53078,-0.336847 -0.217048,-0.26937 -0.261189,-0.628881 -0.11577,-0.942778 0.08982,-0.193836 0.243791,-0.351214 0.433624,-0.454428 l -0.04497,-0.36608 c -0.209159,-0.05423 -0.396725,-0.1705 -0.530779,-0.336847 -0.217049,-0.269329 -0.261065,-0.628059 -0.115646,-0.941894 0.08982,-0.193836 0.243708,-0.352003 0.433525,-0.45525 l -0.04497,-0.366081 c -0.20916,-0.05427 -0.396726,-0.170499 -0.53078,-0.336847 -0.217049,-0.269328 -0.261065,-0.628046 -0.115646,-0.941889 0.08982,-0.193837 0.243708,-0.352004 0.433521,-0.455254 l -0.04493,-0.366081 c -0.209159,-0.05427 -0.396725,-0.1705 -0.530779,-0.336847 -0.217049,-0.269329 -0.261065,-0.628051 -0.115646,-0.941894 0.08982,-0.193836 0.243708,-0.352003 0.433521,-0.455242 l -0.04493,-0.36608 c -0.209159,-0.05423 -0.396726,-0.1705 -0.530779,-0.336847 -0.217049,-0.26937 -0.261107,-0.628059 -0.115646,-0.941894 0.08982,-0.193836 0.243707,-0.352003 0.433524,-0.455242 l -0.04493,-0.36608 c -0.209159,-0.05423 -0.396726,-0.1705 -0.53078,-0.336847 -0.217048,-0.26937 -0.261064,-0.628064 -0.115645,-0.94189 0.08982,-0.193836 0.243707,-0.352003 0.433524,-0.455246 l -0.04497,-0.36608 c -0.209159,-0.05423 -0.396725,-0.1705 -0.530775,-0.336848 -0.217049,-0.269369 -0.261107,-0.628059 -0.115646,-0.941889 0.08982,-0.193836 0.243708,-0.352003 0.433521,-0.455246 l -0.04493,-0.36608 c -0.209159,-0.05423 -0.396726,-0.1705 -0.530779,-0.336848 -0.217049,-0.269328 -0.261107,-0.628059 -0.115646,-0.941893 0.08982,-0.193837 0.243707,-0.352004 0.43352,-0.455242 l -0.04493,-0.36608 c -0.20916,-0.05423 -0.396726,-0.1705 -0.53078,-0.336848 -0.217049,-0.26937 -0.261106,-0.628059 -0.115646,-0.941893 0.08982,-0.193837 0.243708,-0.352004 0.433525,-0.455242 l -0.04493,-0.366081 c -0.20916,-0.05423 -0.396726,-0.170499 -0.53078,-0.336847 -0.217049,-0.26937 -0.261065,-0.628063 -0.115646,-0.941889 0.08982,-0.193837 0.243708,-0.352004 0.433525,-0.455242 l -0.04497,-0.366081 c -0.209159,-0.05423 -0.396726,-0.170499 -0.530775,-0.336847 -0.217049,-0.26937 -0.261065,-0.628055 -0.115646,-0.941889 0.08982,-0.193837 0.243707,-0.352004 0.43352,-0.455246 l -0.04493,-0.366081 c -0.209159,-0.05423 -0.396726,-0.170499 -0.53078,-0.336847 -0.217049,-0.269328 0.07171,0.389002 -0.262892,0.259196 -0.206667,-0.08018 -0.372973,-0.220744 -0.480472,-0.395646 l -0.394068,0.04838 c -0.062,0.195705 -0.190224,0.372433 -0.371354,0.500225 -0.293247,0.206917 -0.680276,0.254421 -1.014836,0.124615 -0.206667,-0.08018 -0.372973,-0.220744 -0.480472,-0.395646 l -0.394068,0.04838 c -0.062,0.195706 -0.190224,0.372434 -0.371354,0.500226 -0.293247,0.206917 -0.680285,0.254421 -1.014831,0.124615 -0.206668,-0.08018 -0.372974,-0.220744 -0.480477,-0.395646 l -0.394109,0.04838 c -0.062,0.195706 -0.190224,0.372434 -0.371355,0.500226 -0.293246,0.206917 -0.680284,0.254421 -1.014831,0.124615 -0.206668,-0.08018 -0.372973,-0.220744 -0.480476,-0.395646 l -0.39411,0.04838 c -0.062,0.195706 -0.190224,0.372434 -0.371354,0.500222 -0.293246,0.206917 -0.680284,0.254421 -1.014835,0.124615 -0.206668,-0.08018 -0.372974,-0.220745 -0.480473,-0.395646 l -0.394109,0.04838 c -0.062,0.195705 -0.190224,0.372434 -0.371354,0.500226 -0.293247,0.206917 -0.680285,0.254421 -1.014832,0.124615 -0.206667,-0.08018 -0.372973,-0.220745 -0.480472,-0.395646 l -0.39411,0.04838 c -0.062,0.195705 -0.190224,0.372434 -0.371354,0.500221 -0.293246,0.206917 -0.680284,0.254421 -1.014831,0.124616 -0.206668,-0.08018 -0.372974,-0.220745 -0.480477,-0.395646 l -0.394068,0.04838 c -0.062,0.195705 -0.190224,0.372434 -0.371354,0.500225 -0.293246,0.206917 -0.680284,0.254421 -1.014831,0.124616 -0.206668,-0.08018 -0.372973,-0.220745 -0.480476,-0.395646 l -0.394069,0.04838 c -0.062,0.195705 -0.190224,0.372433 -0.371354,0.500225 -0.293246,0.206917 -0.680284,0.254421 -1.014835,0.124616 -0.206668,-0.08018 -0.372974,-0.220745 -0.480472,-0.395647 l -0.394068,0.04838 c -0.062,0.195705 -0.190224,0.372433 -0.371355,0.500225 -0.293246,0.206917 -0.680272,0.254421 -1.014831,0.124615 -0.206667,-0.08018 -0.372973,-0.220744 -0.480472,-0.395646 l -0.39411,0.04838 z"
         inkscape:connector-curvature="0"
         style="opacity:0.25;fill:#000000;stroke:none;stroke-width:0.10145262;stroke-miterlimit:4;stroke-dasharray:none;stroke-opacity:0.98823529"
         id="path1715" />
      <path
         id="path8219"
         style="fill:#f9f9f9;stroke:#999999;stroke-width:0.10145262;stroke-miterlimit:4;stroke-dasharray:none;stroke-opacity:0.98823529"
         inkscape:connector-curvature="0"
         d="m -70.985526,74.859165 c -0.062,0.195705 -0.190224,0.372433 -0.371354,0.500225 -0.282035,0.198986 -0.650528,0.250601 -0.975931,0.138734 -0.08018,0.04223 -0.112241,0.0042 -0.125072,-0.05286 -0.03156,-0.01578 -0.06204,-0.0328 -0.09127,-0.05128 -0.09206,0.173531 -0.236357,0.315587 -0.411591,0.410637 l 0.04476,0.364461 c 0.209575,0.05411 0.397473,0.170915 0.531747,0.337553 0.217049,0.26937 0.26119,0.628873 0.115729,0.94269 -0.08998,0.194169 -0.244123,0.352129 -0.434392,0.45535 l 0.04476,0.364462 c 0.209575,0.05411 0.397473,0.170915 0.531747,0.337553 0.217049,0.269369 0.261189,0.628864 0.115729,0.94269 -0.08998,0.194211 -0.244123,0.352128 -0.434393,0.45535 l 0.04476,0.364461 c 0.209574,0.05411 0.397473,0.170874 0.531747,0.337553 0.217049,0.269329 0.261189,0.628873 0.11577,0.942687 -0.08998,0.19421 -0.244123,0.352128 -0.434392,0.455354 l 0.04476,0.364461 c 0.209575,0.05411 0.397473,0.170874 0.531747,0.337553 0.217049,0.269329 0.26119,0.628873 0.115729,0.942687 -0.08998,0.19421 -0.244123,0.352128 -0.434393,0.455354 l 0.04476,0.364461 c 0.209574,0.05411 0.397473,0.170915 0.531747,0.337553 0.217049,0.26937 0.261189,0.628873 0.11577,0.942691 -0.08998,0.194168 -0.244123,0.352128 -0.434392,0.45535 l 0.04476,0.364461 c 0.209575,0.05411 0.397473,0.170915 0.531747,0.337553 0.217049,0.26937 0.26119,0.628873 0.115729,0.94269 -0.08998,0.194169 -0.244123,0.352129 -0.434393,0.45535 l 0.04476,0.364461 c 0.209574,0.05411 0.397473,0.170916 0.531747,0.337554 0.217049,0.269369 0.261189,0.628872 0.11577,0.94269 -0.08998,0.194169 -0.244123,0.352128 -0.434392,0.45535 l 0.04476,0.364461 c 0.209575,0.05411 0.397473,0.170915 0.531747,0.337553 0.217049,0.269329 0.26119,0.628873 0.115771,0.942691 -0.08998,0.194169 -0.244123,0.352128 -0.434393,0.455358 l 0.04476,0.364461 c 0.209575,0.05411 0.397474,0.170915 0.531752,0.337554 0.217048,0.269369 0.261106,0.628058 0.115645,0.941893 -0.08998,0.194169 -0.244039,0.352959 -0.434297,0.45616 l 0.04476,0.364461 c 0.209574,0.05415 0.397473,0.170915 0.531747,0.337553 0.217049,0.269328 0.261106,0.628055 0.115646,0.941889 -0.08998,0.194169 -0.24404,0.352959 -0.434293,0.456168 l 0.04476,0.364461 c 0.209575,0.05411 0.397473,0.170915 0.531747,0.337553 0.217049,0.26937 0.261107,0.628055 0.115646,0.941889 -0.08998,0.194169 -0.24404,0.352959 -0.434293,0.45616 l 0.04476,0.364461 c 0.209574,0.05411 0.397473,0.170915 0.531746,0.337553 0.217049,0.26937 0.261107,0.628047 0.115646,0.941887 -0.08998,0.19417 -0.244039,0.35296 -0.434293,0.45617 l 0.04476,0.36446 c 0.209574,0.0541 0.397473,0.17091 0.531747,0.33755 0.217049,0.26933 0.261106,0.62806 0.115646,0.94189 -0.08998,0.19417 -0.24404,0.35296 -0.434293,0.45617 l 0.04476,0.36446 c 0.209575,0.0541 0.397473,0.17092 0.531747,0.33756 0.217049,0.26937 0.261107,0.62805 0.115646,0.94189 -0.08998,0.19416 -0.24404,0.35291 -0.434297,0.45615 l 0.02824,0.22921 c 0.05004,-0.0345 0.109251,-0.0826 0.211941,-0.15509 0.293247,-0.20692 0.679408,-0.2543 1.013972,-0.12449 0.206667,0.0802 0.373845,0.22062 0.481344,0.39552 l 0.394068,-0.0484 c 0.062,-0.1957 0.190224,-0.37243 0.371354,-0.50022 0.293247,-0.20692 0.679417,-0.2543 1.013972,-0.12449 0.206668,0.0802 0.373846,0.22062 0.481344,0.39552 l 0.39411,-0.0484 c 0.062,-0.1957 0.190224,-0.37243 0.371354,-0.50022 0.293247,-0.20692 0.679417,-0.2543 1.013972,-0.12449 0.206667,0.0802 0.373845,0.22062 0.481344,0.39552 l 0.394068,-0.0484 c 0.062,-0.1957 0.190266,-0.37243 0.371354,-0.50022 0.293247,-0.20692 0.679417,-0.2543 1.013972,-0.1245 0.206668,0.0802 0.373846,0.22062 0.481344,0.39553 l 0.394068,-0.0484 c 0.062,-0.19571 0.190224,-0.37243 0.371355,-0.50023 0.293246,-0.20687 0.679408,-0.25429 1.013975,-0.12449 0.206668,0.0802 0.373846,0.22062 0.481345,0.39553 l 0.394109,-0.0484 c 0.062,-0.19571 0.190224,-0.37243 0.371354,-0.50023 0.293247,-0.20687 0.679417,-0.25429 1.013972,-0.12449 0.206668,0.0802 0.373846,0.22062 0.481344,0.39552 l 0.394069,-0.0484 c 0.062,-0.19571 0.190224,-0.37244 0.371354,-0.50023 0.293246,-0.20687 0.679404,-0.25429 1.013971,-0.12449 0.206668,0.0802 0.373846,0.22062 0.481345,0.39552 l 0.394068,-0.0484 c 0.062,-0.19571 0.190224,-0.37244 0.371354,-0.50022 0.293246,-0.20692 0.679408,-0.2543 1.013972,-0.12449 0.206667,0.0802 0.373845,0.22062 0.481344,0.39552 l 0.394068,-0.0484 c 0.062,-0.1957 0.190266,-0.37243 0.371354,-0.50023 0.293247,-0.20691 0.679404,-0.25429 1.013972,-0.12449 0.206667,0.0802 0.373845,0.22067 0.481344,0.39553 l 0.394068,-0.0484 c 0.062,-0.19571 0.190224,-0.37243 0.371354,-0.50023 0.293247,-0.20691 0.679409,-0.25429 1.013972,-0.12449 0.206668,0.0802 0.373846,0.22062 0.481344,0.39552 l 0.394068,-0.0484 c 0.06204,-0.19571 0.190266,-0.37244 0.371355,-0.50023 0.293246,-0.20691 0.679416,-0.25429 1.013971,-0.12449 0.073,0.0282 0.121584,0.0476 0.159787,0.0618 l -0.03114,-0.2543 c -0.209159,-0.0542 -0.396725,-0.1705 -0.530779,-0.33684 -0.217049,-0.26933 -0.26119,-0.62888 -0.115771,-0.94269 0.08982,-0.19384 0.243791,-0.35122 0.433621,-0.45444 l -0.04493,-0.36608 c -0.209159,-0.0542 -0.396726,-0.170498 -0.530779,-0.336845 -0.217049,-0.269328 -0.26119,-0.628856 -0.115771,-0.942691 0.08982,-0.193836 0.243832,-0.351214 0.43362,-0.454444 l -0.04493,-0.366081 c -0.209159,-0.05423 -0.396726,-0.1705 -0.53078,-0.336847 -0.217048,-0.26937 -0.261189,-0.628877 -0.11577,-0.942782 0.08982,-0.193837 0.243791,-0.351215 0.433624,-0.454424 l -0.04493,-0.366081 c -0.209159,-0.05423 -0.396726,-0.170499 -0.53078,-0.336847 -0.217048,-0.26937 -0.261189,-0.628881 -0.11577,-0.942778 0.08982,-0.193836 0.243791,-0.351214 0.433624,-0.454428 l -0.04497,-0.36608 c -0.209159,-0.05423 -0.396725,-0.1705 -0.530779,-0.336847 -0.217049,-0.269329 -0.261065,-0.628059 -0.115646,-0.941894 0.08982,-0.193836 0.243708,-0.352003 0.433525,-0.45525 l -0.04497,-0.366081 c -0.20916,-0.05427 -0.396726,-0.170499 -0.53078,-0.336847 -0.217049,-0.269328 -0.261065,-0.628046 -0.115646,-0.941889 0.08982,-0.193837 0.243708,-0.352004 0.433521,-0.455254 l -0.04493,-0.366081 c -0.209159,-0.05427 -0.396725,-0.1705 -0.530779,-0.336847 -0.217049,-0.269329 -0.261065,-0.628051 -0.115646,-0.941894 0.08982,-0.193836 0.243708,-0.352003 0.433521,-0.455242 l -0.04493,-0.36608 c -0.209159,-0.05423 -0.396726,-0.1705 -0.530779,-0.336847 -0.217049,-0.26937 -0.261107,-0.628059 -0.115646,-0.941894 0.08982,-0.193836 0.243707,-0.352003 0.433524,-0.455242 l -0.04493,-0.36608 c -0.209159,-0.05423 -0.396726,-0.1705 -0.53078,-0.336847 -0.217048,-0.26937 -0.261064,-0.628064 -0.115645,-0.94189 0.08982,-0.193836 0.243707,-0.352003 0.433524,-0.455246 l -0.04497,-0.36608 c -0.209159,-0.05423 -0.396725,-0.1705 -0.530775,-0.336848 -0.217049,-0.269369 -0.261107,-0.628059 -0.115646,-0.941889 0.08982,-0.193836 0.243708,-0.352003 0.433521,-0.455246 l -0.04493,-0.36608 c -0.209159,-0.05423 -0.396726,-0.1705 -0.530779,-0.336848 -0.217049,-0.269328 -0.261107,-0.628059 -0.115646,-0.941893 0.08982,-0.193837 0.243707,-0.352004 0.43352,-0.455242 l -0.04493,-0.36608 c -0.20916,-0.05423 -0.396726,-0.1705 -0.53078,-0.336848 -0.217049,-0.26937 -0.261106,-0.628059 -0.115646,-0.941893 0.08982,-0.193837 0.243708,-0.352004 0.433525,-0.455242 l -0.04493,-0.366081 c -0.20916,-0.05423 -0.396726,-0.170499 -0.53078,-0.336847 -0.217049,-0.26937 -0.261065,-0.628063 -0.115646,-0.941889 0.08982,-0.193837 0.243708,-0.352004 0.433525,-0.455242 l -0.04497,-0.366081 c -0.209159,-0.05423 -0.396726,-0.170499 -0.530775,-0.336847 -0.217049,-0.26937 -0.261065,-0.628055 -0.115646,-0.941889 0.08982,-0.193837 0.243707,-0.352004 0.43352,-0.455246 l -0.04493,-0.366081 c -0.209159,-0.05423 -0.396726,-0.170499 -0.53078,-0.336847 -0.217049,-0.269328 0.07171,0.389002 -0.262892,0.259196 -0.206667,-0.08018 -0.372973,-0.220744 -0.480472,-0.395646 l -0.394068,0.04838 c -0.062,0.195705 -0.190224,0.372433 -0.371354,0.500225 -0.293247,0.206917 -0.680276,0.254421 -1.014836,0.124615 -0.206667,-0.08018 -0.372973,-0.220744 -0.480472,-0.395646 l -0.394068,0.04838 c -0.062,0.195706 -0.190224,0.372434 -0.371354,0.500226 -0.293247,0.206917 -0.680285,0.254421 -1.014831,0.124615 -0.206668,-0.08018 -0.372974,-0.220744 -0.480477,-0.395646 l -0.394109,0.04838 c -0.062,0.195706 -0.190224,0.372434 -0.371355,0.500226 -0.293246,0.206917 -0.680284,0.254421 -1.014831,0.124615 -0.206668,-0.08018 -0.372973,-0.220744 -0.480476,-0.395646 l -0.39411,0.04838 c -0.062,0.195706 -0.190224,0.372434 -0.371354,0.500222 -0.293246,0.206917 -0.680284,0.254421 -1.014835,0.124615 -0.206668,-0.08018 -0.372974,-0.220745 -0.480473,-0.395646 l -0.394109,0.04838 c -0.062,0.195705 -0.190224,0.372434 -0.371354,0.500226 -0.293247,0.206917 -0.680285,0.254421 -1.014832,0.124615 -0.206667,-0.08018 -0.372973,-0.220745 -0.480472,-0.395646 l -0.39411,0.04838 c -0.062,0.195705 -0.190224,0.372434 -0.371354,0.500221 -0.293246,0.206917 -0.680284,0.254421 -1.014831,0.124616 -0.206668,-0.08018 -0.372974,-0.220745 -0.480477,-0.395646 l -0.394068,0.04838 c -0.062,0.195705 -0.190224,0.372434 -0.371354,0.500225 -0.293246,0.206917 -0.680284,0.254421 -1.014831,0.124616 -0.206668,-0.08018 -0.372973,-0.220745 -0.480476,-0.395646 l -0.394069,0.04838 c -0.062,0.195705 -0.190224,0.372433 -0.371354,0.500225 -0.293246,0.206917 -0.680284,0.254421 -1.014835,0.124616 -0.206668,-0.08018 -0.372974,-0.220745 -0.480472,-0.395647 l -0.394068,0.04838 c -0.062,0.195705 -0.190224,0.372433 -0.371355,0.500225 -0.293246,0.206917 -0.680272,0.254421 -1.014831,0.124615 -0.206667,-0.08018 -0.372973,-0.220744 -0.480472,-0.395646 l -0.39411,0.04838 z" />
      <ellipse
         ry="0.2249018"
         rx="0.24211329"
         cy="69.561584"
         cx="-73.834854"
         id="path18914"
         style="fill:#ffffff;stroke-width:0.00518289"
         transform="rotate(-6.9999983)" />
      <rect
         style="fill:url(#linearGradient4319);fill-opacity:1;stroke:#405f84;stroke-width:0.10145262;stroke-miterlimit:4;stroke-dasharray:none;stroke-opacity:0.98431373"
         id="rect3034"
         width="20.630299"
         height="26.660767"
         x="-79.811035"
         y="67.647278"
         rx="0"
         ry="0"
         transform="rotate(-6.9999993)" />
      <g
         clip-path="url(#clipPath4780)"
         id="g4769"
         transform="matrix(0.28260341,-0.03469933,0.03534089,0.28782861,-107.93309,-195.36496)"
         style="stroke-width:0.24431954">
        <ellipse
           style="opacity:0.75;fill:#ffffff;fill-opacity:0.55813958;stroke:none;stroke-width:0.36647931;stroke-miterlimit:4;stroke-dasharray:none;stroke-opacity:0.39215686"
           id="path4722"
           cx="13.947169"
           cy="1034.249"
           rx="11.049057"
           ry="11.592453" />
        <ellipse
           style="opacity:0.75;fill:#ffffff;fill-opacity:0.55813958;stroke:none;stroke-width:0.36647931;stroke-miterlimit:4;stroke-dasharray:none;stroke-opacity:0.39215686"
           id="path4724"
           cx="24.815088"
           cy="1040.2263"
           rx="14.475719"
           ry="13.584907" />
        <ellipse
           ry="17.207548"
           rx="18.335911"
           cy="1022.4452"
           cx="15.033957"
           id="ellipse4726"
           style="opacity:0.75;fill:#ffffff;fill-opacity:0.55813958;stroke:none;stroke-width:0.36647931;stroke-miterlimit:4;stroke-dasharray:none;stroke-opacity:0.39215686" />
        <ellipse
           ry="13.584907"
           rx="14.475719"
           cy="1040.2263"
           cx="53.796223"
           id="ellipse4728"
           style="opacity:0.75;fill:#ffffff;fill-opacity:0.55813958;stroke:none;stroke-width:0.36647931;stroke-miterlimit:4;stroke-dasharray:none;stroke-opacity:0.39215686" />
        <ellipse
           style="opacity:0.75;fill:#ffffff;fill-opacity:0.55813958;stroke:none;stroke-width:0.36647931;stroke-miterlimit:4;stroke-dasharray:none;stroke-opacity:0.39215686"
           id="ellipse4761"
           cx="41.47924"
           cy="1034.7924"
           rx="18.335911"
           ry="17.207548" />
        <ellipse
           ry="17.207548"
           rx="18.335911"
           cy="1026.4602"
           cx="79.879242"
           id="ellipse4763"
           style="opacity:0.75;fill:#ffffff;fill-opacity:0.55813958;stroke:none;stroke-width:0.36647931;stroke-miterlimit:4;stroke-dasharray:none;stroke-opacity:0.39215686" />
        <ellipse
           style="opacity:0.75;fill:#ffffff;fill-opacity:0.55813958;stroke:none;stroke-width:0.36647931;stroke-miterlimit:4;stroke-dasharray:none;stroke-opacity:0.39215686"
           id="ellipse4765"
           cx="65.750938"
           cy="1030.9508"
           rx="18.335911"
           ry="17.207548" />
      </g>
      <path
         inkscape:connector-curvature="0"
         id="path2"
         d="m -66.992395,77.583346 -0.04626,-0.01744 c 0.494296,0.747778 1.231366,1.300159 1.905139,1.877213 0.08699,0.003 0.06989,0.172119 -0.02159,0.07142 -0.774524,-0.573317 -1.480164,-1.221345 -2.238917,-1.815416 -0.04111,-0.07088 -0.202141,-0.113196 -0.24188,-0.04701 0.692268,0.694586 1.447903,1.337145 2.251017,1.907921 0.02865,0.0245 0.0083,0.06087 -0.0042,0.08762 -1.01846,-0.547257 -1.901347,-1.301991 -2.912179,-1.863527 -0.03779,0.0931 0.125612,0.161572 0.187109,0.231956 0.649731,0.618218 1.42183,1.093275 2.15897,1.604717 0.126775,0.108794 -0.117182,0.112241 -0.151855,0.01204 -0.977002,-0.477317 -1.926561,-1.026832 -2.860615,-1.57832 l -0.0058,0.01412 c 0.68986,0.800228 1.692558,1.25042 2.559586,1.83578 0.164687,0.137695 -0.126774,0.149488 -0.21327,0.09094 -0.425485,-0.210529 -0.898105,-0.291211 -1.331817,-0.476922 -0.43362,-0.127023 -0.847147,-0.330784 -1.297838,-0.397556 0.499898,0.344239 1.107431,0.631468 1.685266,0.883199 0.186902,0.105555 0.448993,0.138941 0.564726,0.333899 -0.05693,0.04069 -0.146374,0.003 -0.214765,0.01744 -0.628919,-0.08043 -1.237689,-0.314798 -1.875731,-0.363631 0.356364,0.240469 0.776451,0.373721 1.124626,0.620797 -0.136034,0.117929 -0.441813,-0.09775 -0.575214,0.07715 0.119881,0.279876 0.463613,0.374801 0.638132,0.615112 -0.170956,0.290132 0.197284,0.53771 0.408644,0.687065 -0.218959,0.38593 0.291585,0.63134 0.602932,0.701919 0.02782,0.135038 0.162652,0.165351 0.25521,0.245286 -0.04364,0.06685 -0.004,0.08699 0.0473,0.09634 -0.09559,0.06806 -0.215512,0.223277 -0.0725,0.310271 0.085,0.157461 0.366703,0.04273 0.40067,0.230918 -0.104974,0.07304 -0.09102,0.210903 -0.169794,0.305413 0.08454,0.176729 0.374884,0.04526 0.423256,0.252303 -0.05066,0.09318 -0.116393,0.214475 -0.161323,0.325345 0.191262,0.158251 0.43012,0.02242 0.643323,0.06299 -0.073,0.06677 -0.142512,0.138443 -0.16099,0.238393 0.151896,0.123909 0.348474,0.146706 0.535554,0.120338 0.133876,0.104932 -0.110746,0.300347 -0.08737,0.360516 0.221533,-0.111286 0.153931,0.227679 -0.01536,0.233036 0.02325,0.164562 0.285938,0.110538 0.281328,0.280498 -0.0096,0.131841 0.129474,0.152063 0.228469,0.179802 0.02658,0.178887 0.02575,0.44866 0.292249,0.430364 -0.01,0.174154 0.09592,0.275516 0.273564,0.272485 0.07059,0.09783 0.09405,0.243873 0.102234,0.368696 0.117514,0.06366 0.334605,-0.03197 0.341539,0.159288 0.04236,0.221866 0.416761,0.09156 0.402622,0.339422 0.0075,0.154015 0.236566,0.100863 0.269079,0.242711 0.06154,0.283281 0.390871,0.327587 0.549956,0.533466 -0.173988,0.0892 -0.335934,-0.08243 -0.509884,-0.03862 -0.118428,0.101735 0.06,0.255335 -0.0079,0.373265 -0.587435,-0.10568 -1.233653,-0.129848 -1.764632,0.173531 -0.08247,0.103728 0.03363,0.248234 0.111618,0.313884 0.185075,-0.0032 0.362759,-0.124283 0.540413,-0.127273 -0.09181,0.08591 -0.08097,0.254089 -0.224108,0.280831 -0.254836,0.0529 -0.581896,0.138941 -0.650324,0.416458 -0.01536,0.06951 -0.130014,0.03073 -0.142969,0.08969 0.05431,0.119798 0.09409,0.261937 0.227222,0.323269 0.137571,0.09575 0.31459,0.0083 0.458905,0.0828 -0.157918,0.19911 -0.515769,0.256829 -0.637186,0.510963 -0.02782,0.123121 0.0904,0.171331 0.196452,0.177144 0.0058,0.08982 0.04111,0.183954 0.126941,0.230794 0.101071,-0.01827 0.212149,-0.05195 0.302174,0.01619 -0.01578,0.124698 -0.133128,0.205921 -0.259321,0.186362 -0.173448,0.06063 -0.468206,0.375216 -0.190971,0.493619 0.142927,0.100739 0.339671,-0.09443 0.467105,0.02616 0.0075,0.108462 -0.166056,0.228219 -0.07616,0.341913 0.200439,0.04493 0.408768,-0.0066 0.583873,-0.103064 0.192342,0.0058 0.0011,0.223901 0.04153,0.314798 0.108462,0.02699 0.210571,-0.143177 0.313842,-0.05797 -0.162319,0.219 -0.13537,0.496945 0.085,0.637833 0.364544,0.0889 0.612118,-0.213477 0.924893,-0.30508 0.08654,-0.05024 0.110289,-0.249272 0.238268,-0.188771 -0.158375,0.195747 -0.09459,0.50973 -0.238932,0.630015 0.30562,0.111369 0.47972,0.447448 0.829494,0.455408 0.09119,-0.05946 0.169711,-0.193255 0.261771,-0.06777 0.237438,-0.0087 0.165642,-0.33012 0.308611,-0.457443 0.181254,0.114026 0.35599,-0.07981 0.480592,-0.1923 0.22797,-0.243127 0.174611,-0.592444 -0.0091,-0.843464 0.04825,-0.306119 0.411218,-0.729038 0.75064,-0.50978 0.203719,0.108877 0.389417,-0.107923 0.558468,-0.186778 -0.01329,0.16531 -0.133543,0.371479 0.02824,0.500317 0.06864,0.08861 0.184909,0.02325 0.277841,0.04356 -0.174569,0.14409 -0.460412,0.197366 -0.557073,0.41625 -0.0811,0.237604 0.212149,0.279834 0.179054,0.497464 0.07196,0.127481 0.398553,0.112449 0.318743,0.322812 -0.07362,0.228759 0.225354,0.27809 0.370399,0.371687 0.0079,0.167634 0.0079,0.38543 0.223942,0.419784 0.278339,0.02076 0.0012,0.418447 0.310022,0.41635 0.193338,0.0075 0.106677,0.233617 0.191304,0.33938 0.10651,0.0931 0.262767,0.09563 0.390829,0.147745 0.0495,0.09999 0.06013,0.213353 0.103479,0.315835 0.06308,0.196951 0.406692,0.06972 0.413003,0.29524 0.005,0.243915 0.28652,0.321151 0.498611,0.3116 0.0473,0.204633 0.138235,0.44984 0.385472,0.486863 -0.139979,0.280914 0.10132,0.749402 0.466176,0.641289 0.128933,0.161032 0.163565,0.404574 0.359852,0.511524 0.236357,0.04389 0.447568,-0.124449 0.624629,-0.228925 -0.03447,0.207789 0.02699,0.434705 0.208245,0.564078 0.07807,-0.04617 0.178348,-0.0075 0.17623,0.08654 0.11764,0.0032 0.217755,-0.09646 0.339256,-0.08164 0.04771,0.189601 0.249604,0.276762 0.306867,0.457219 0.09426,0.295904 0.557666,0.500877 0.788032,0.228219 0.206169,0.185407 0.511778,0.625356 0.854845,0.418269 0.250643,0.215304 0.464996,0.505532 0.805361,0.593344 0.157959,-0.01869 0.108005,-0.256331 0.167344,-0.321193 0.294783,0.341582 0.560988,0.719243 0.927879,1.003572 l 0.0299,0.0112 c -0.04335,-0.616378 -0.470776,-1.17691 -0.385555,-1.801269 0.23208,0.14953 0.320902,0.423077 0.47382,0.636023 0.266297,0.38103 0.52945,0.77756 0.905509,1.066907 0.09102,0.06415 0.214558,0.253549 0.32983,0.134209 -0.289385,-0.655782 -0.697123,-1.26405 -0.988584,-1.915662 -0.03405,-0.151399 -0.121417,-0.302382 -0.07557,-0.460794 0.165558,0.09563 0.245036,0.275765 0.361346,0.416695 0.485032,0.603846 0.995074,1.247983 1.741723,1.564218 0.05128,0.01038 0.10568,0.101444 0.161032,0.05332 -0.643286,-0.706636 -1.218351,-1.46595 -1.745613,-2.255228 -0.04576,-0.04842 -0.0647,-0.20073 0.049,-0.100905 0.343325,0.399135 0.685064,0.807064 1.10146,1.140165 0.362633,0.295281 0.661644,0.672694 1.103465,0.866024 0.04908,-0.06798 0.118179,-0.02242 0.188438,-0.02118 -0.600956,-0.806481 -1.415651,-1.440242 -2.016133,-2.246541 -0.08521,-0.03363 0.01619,-0.135785 0.0595,-0.06249 0.739299,0.671058 1.55718,1.27475 2.484622,1.679419 0.0353,-0.06839 0.08417,-0.07391 0.14733,-0.03197 -0.795898,-0.727236 -1.822634,-1.254112 -2.53059,-2.057745 0.185781,-0.03862 0.399134,0.166721 0.579396,0.262394 0.782539,0.378621 1.679777,0.595827 2.559395,0.468114 l 0.01703,-0.04186 c -1.19024,-0.05249 -2.371813,-0.461251 -3.297146,-1.185593 -0.117058,-0.0997 0.105306,-0.142305 0.187317,-0.152395 -0.09775,-0.0137 -0.255127,-0.06013 -0.140726,-0.174113 -0.57926,-0.188853 -1.051959,-0.583827 -1.525056,-0.942948 -0.02699,-0.03571 -0.140561,-0.07794 -0.08733,-0.13537 0.166639,0.0042 0.352502,0.03405 0.502261,-0.04726 0.0036,-0.118054 0.170375,-0.10024 0.208951,-0.154513 -0.951971,-0.341456 -1.704973,-1.022214 -2.5421,-1.550801 -0.52039,-0.189933 -0.863611,-0.642733 -1.247028,-1.00957 -0.344529,-0.333193 -0.653364,-0.69946 -0.981736,-1.047955 -0.461982,-0.561483 -1.014616,-1.051634 -1.44001,-1.642134 -0.166306,-0.353457 -0.418709,-0.68675 -0.448511,-1.085008 0.01661,-0.226434 0.235029,-0.368406 0.423206,-0.46995 0.386968,-0.09966 0.492432,-0.671058 0.198155,-0.920554 -0.23179,-0.309316 -0.696533,-0.370939 -1.058299,-0.268207 -0.345733,0.01453 -0.709974,0.0637 -1.04188,-0.05855 -0.447327,-0.196992 -0.91445,-0.424015 -1.176275,-0.845095 -0.680915,-1.018062 -1.397293,-2.033873 -1.82676,-3.181695 -0.151233,-0.392905 -0.568252,-0.588033 -0.876833,-0.85122 -0.424954,-0.361388 -0.93079,-0.61845 -1.378624,-0.950601 -0.09675,0.03903 -0.170832,-0.04547 -0.246033,-0.0911 -0.507924,-0.374302 -1.066932,-0.695109 -1.511444,-1.144193 -0.687447,-0.584142 -1.282984,-1.263509 -1.972707,-1.84656 z"
         style="fill:#214478;fill-opacity:1;stroke-width:0.00410147" />
      <g
         style="opacity:0.7;stroke-width:1.01452613"
         id="g1927">
        <path
           inkscape:connector-curvature="0"
           id="path3210"
           d="m -48.696534,96.773407 c -0.367532,0.119413 -0.411364,0.489323 -0.351967,0.868094 0.721195,-0.488215 0.351967,-0.868094 0.351967,-0.868094 z m 0.272829,0.706536 c -0.205707,0.07465 -0.403315,0.240311 -0.568789,0.504154 0,0 -1.072736,-0.512124 -1.375815,0.497617 -0.294044,0.979645 0.850697,1.905936 0.850697,1.905936 0.253212,0.17987 0.659065,0.30847 0.875002,0.0821 0.134415,-0.17099 0.341357,-0.23456 0.603704,-0.17347 0.248576,0.10523 0.622575,-0.0674 0.764467,-0.486246 0.11315,-0.220184 0.184744,-0.439504 0.220767,-0.64537 -0.373012,-0.02742 -0.701986,-0.282376 -0.802743,-0.658392 -0.08852,-0.330357 0.0256,-0.665821 0.263781,-0.885546 -0.221854,-0.159046 -0.486317,-0.225939 -0.742023,-0.164639 -0.02941,0.0078 -0.05985,0.01243 -0.08905,0.02378 z"
           style="opacity:1;fill:#547499;fill-opacity:1;stroke:none;stroke-width:0.20290524;stroke-miterlimit:4;stroke-dasharray:none;stroke-opacity:1" />
        <circle
           r="6.3965926"
           cy="82.701393"
           cx="-72.716484"
           style="opacity:1;fill:none;stroke:#547499;stroke-width:0.20290524;stroke-miterlimit:4;stroke-dasharray:none;stroke-opacity:1"
           id="path3506"
           transform="rotate(-15)" />
        <circle
           r="3.5036588"
           cy="82.701393"
           cx="-72.716484"
           transform="rotate(-15)"
           id="path4276"
           style="opacity:1;fill:none;stroke:#547499;stroke-width:0.20290524;stroke-miterlimit:4;stroke-dasharray:none;stroke-opacity:1;marker-mid:none" />
        <circle
           r="3.7764404"
           cy="82.701393"
           cx="-72.716484"
           style="opacity:1;fill:none;stroke:#547499;stroke-width:0.20290524;stroke-miterlimit:4;stroke-dasharray:none;stroke-opacity:1;marker-mid:none"
           id="path4523"
           transform="rotate(-15)" />
        <circle
           r="6.1206021"
           cy="82.701393"
           cx="-72.716484"
           transform="rotate(-15)"
           id="path4525"
           style="opacity:1;fill:none;stroke:#547499;stroke-width:0.20290524;stroke-miterlimit:4;stroke-dasharray:none;stroke-opacity:1" />
        <g
           transform="matrix(-0.2296485,0.22964851,-0.22964851,-0.2296485,195.98059,317.09974)"
           style="font-style:normal;font-variant:normal;font-weight:bold;font-stretch:normal;font-size:5.09886456px;line-height:100%;font-family:'Liberation Sans';-inkscape-font-specification:'Liberation Sans Bold';text-align:start;letter-spacing:0px;word-spacing:0px;text-anchor:start;opacity:1;fill:#547499;fill-opacity:1;stroke:none;stroke-width:0.62476206;stroke-miterlimit:4;stroke-dasharray:none"
           id="text4278">
          <path
             d="m 71.592596,1011.7815 c -0.158064,-0.02 -0.298464,-0.067 -0.421199,-0.1415 -0.121089,-0.074 -0.219979,-0.1778 -0.29667,-0.3113 -0.0769,-0.132 -0.128816,-0.2959 -0.15575,-0.4917 -0.0255,-0.194 -0.02168,-0.4211 0.01144,-0.6812 0.02935,-0.2305 0.07582,-0.4312 0.139414,-0.6022 0.06359,-0.1709 0.1438,-0.3146 0.240621,-0.4311 0.09661,-0.1149 0.20922,-0.2043 0.337831,-0.2682 0.130046,-0.062 0.274656,-0.1006 0.43383,-0.1155 l 0.02646,0.7187 c -0.0799,0.01 -0.15437,0.03 -0.223404,0.059 -0.06904,0.03 -0.13162,0.074 -0.187753,0.1342 -0.0547,0.062 -0.101507,0.1402 -0.140429,0.2356 -0.03748,0.097 -0.06524,0.2167 -0.08327,0.3583 -0.03145,0.247 -0.0184,0.4403 0.03913,0.5798 0.05897,0.1413 0.168306,0.2222 0.328017,0.2425 0.0955,0.012 0.177058,0 0.244688,-0.049 0.06763,-0.045 0.126755,-0.1086 0.177383,-0.1908 0.05063,-0.082 0.09634,-0.1785 0.137153,-0.2887 0.04081,-0.1103 0.08142,-0.2256 0.121844,-0.3459 0.03563,-0.096 0.07208,-0.1916 0.109357,-0.2873 0.03727,-0.096 0.07896,-0.1865 0.125073,-0.2727 0.04589,-0.084 0.09764,-0.1624 0.155247,-0.2337 0.0576,-0.071 0.124645,-0.1314 0.201137,-0.1802 0.07793,-0.047 0.16591,-0.081 0.263955,-0.1019 0.09783,-0.019 0.210137,-0.021 0.33692,0 0.172879,0.022 0.316661,0.075 0.431346,0.1603 0.114679,0.085 0.202957,0.1932 0.264832,0.3249 0.06331,0.1335 0.102275,0.2874 0.116909,0.4616 0.01463,0.1742 0.0092,0.3618 -0.01642,0.5626 -0.02893,0.2273 -0.07178,0.4192 -0.128546,0.576 -0.05533,0.1586 -0.12614,0.2876 -0.212419,0.387 -0.08649,0.1011 -0.18888,0.1759 -0.307159,0.2245 -0.116847,0.05 -0.250425,0.081 -0.400734,0.092 l -0.0064,-0.7186 c 0.15444,-0.017 0.276659,-0.077 0.366655,-0.1792 0.08978,-0.1007 0.147881,-0.2547 0.174298,-0.4622 0.01635,-0.1284 0.01845,-0.2369 0.0063,-0.3255 -0.01072,-0.087 -0.03176,-0.158 -0.06312,-0.2138 -0.03158,-0.054 -0.07153,-0.095 -0.119845,-0.1232 -0.04667,-0.028 -0.098,-0.045 -0.153975,-0.052 -0.08562,-0.011 -0.15904,6e-4 -0.220259,0.035 -0.05958,0.034 -0.113017,0.086 -0.160318,0.1553 -0.04566,0.069 -0.08816,0.1535 -0.127497,0.2523 -0.03791,0.1005 -0.07789,0.2109 -0.119957,0.331 -0.03689,0.1058 -0.07532,0.2105 -0.115286,0.3141 -0.03833,0.1039 -0.08096,0.2022 -0.127903,0.295 -0.04695,0.093 -0.100462,0.1779 -0.160547,0.2556 -0.06009,0.078 -0.130232,0.1424 -0.210433,0.1941 -0.07877,0.053 -0.169745,0.091 -0.272936,0.1133 -0.103402,0.024 -0.222609,0.027 -0.357621,0.01"
             style="font-weight:bold;-inkscape-font-specification:'Liberation Sans Bold';fill:#547499;fill-opacity:1;stroke:none;stroke-width:0.62476206;stroke-miterlimit:4;stroke-dasharray:none"
             id="path4668"
             inkscape:connector-curvature="0" />
          <path
             d="m 70.37192,1012.1687 3.342991,1.0631 -0.222581,0.6999 -3.34299,-1.0631 0.22258,-0.6999"
             style="font-weight:bold;-inkscape-font-specification:'Liberation Sans Bold';fill:#547499;fill-opacity:1;stroke:none;stroke-width:0.62476206;stroke-miterlimit:4;stroke-dasharray:none"
             id="path4670"
             inkscape:connector-curvature="0" />
          <path
             d="m 69.638951,1015.2583 c -0.05189,0.093 -0.09451,0.1858 -0.12786,0.2794 -0.03335,0.094 -0.05871,0.183 -0.07607,0.2684 -0.01673,0.088 -0.0261,0.169 -0.02811,0.2439 -0.0014,0.077 0.004,0.144 0.01628,0.2003 l 0.423628,0.2371 0.418349,-0.7473 0.473594,0.2651 -0.746706,1.3339 -1.125327,-0.6299 c -0.03205,-0.1093 -0.0531,-0.2314 -0.06314,-0.3663 -0.0086,-0.1342 -0.0031,-0.2766 0.01662,-0.4273 0.02112,-0.1499 0.05814,-0.306 0.111061,-0.4685 0.05211,-0.1611 0.123973,-0.3234 0.215587,-0.4871 0.151612,-0.2708 0.321248,-0.4821 0.508907,-0.6338 0.189109,-0.151 0.389173,-0.2501 0.600193,-0.2975 0.212469,-0.046 0.432765,-0.046 0.660889,0 0.227312,0.049 0.456108,0.1384 0.686389,0.2673 0.238967,0.1338 0.436927,0.2864 0.593879,0.458 0.156949,0.1715 0.266691,0.3595 0.329228,0.5638 0.06317,0.2065 0.07624,0.4278 0.0392,0.6639 -0.0364,0.2383 -0.128786,0.49 -0.277152,0.755 -0.107832,0.1926 -0.222329,0.353 -0.343491,0.4811 -0.121975,0.1295 -0.248936,0.2306 -0.380881,0.3032 -0.132758,0.074 -0.269458,0.1212 -0.410101,0.1414 -0.140007,0.022 -0.283405,0.022 -0.430194,0 l 0.152647,-0.6906 c 0.07832,0.01 0.15788,0.01 0.238687,0 0.08225,-0.011 0.162623,-0.037 0.241109,-0.079 0.07912,-0.039 0.15491,-0.095 0.227367,-0.1666 0.07309,-0.069 0.140041,-0.1584 0.200849,-0.267 0.08918,-0.1593 0.140858,-0.3111 0.15503,-0.4554 0.01562,-0.1434 -0.0018,-0.2787 -0.05237,-0.4059 -0.05053,-0.1272 -0.130838,-0.2454 -0.240914,-0.3546 -0.108631,-0.1083 -0.243327,-0.2075 -0.404086,-0.2975 -0.159314,-0.089 -0.315727,-0.153 -0.469238,-0.1913 -0.154324,-0.037 -0.300359,-0.044 -0.438105,-0.023 -0.138558,0.023 -0.26706,0.078 -0.385508,0.1636 -0.118447,0.086 -0.221857,0.2078 -0.310229,0.3656"
             style="font-weight:bold;-inkscape-font-specification:'Liberation Sans Bold';fill:#547499;fill-opacity:1;stroke:none;stroke-width:0.62476206;stroke-miterlimit:4;stroke-dasharray:none"
             id="path4672"
             inkscape:connector-curvature="0" />
          <path
             d="m 66.422062,1018.4501 2.982038,0.861 c -0.05702,-0.046 -0.113444,-0.093 -0.169275,-0.1409 -0.04887,-0.04 -0.100029,-0.086 -0.153488,-0.1354 -0.05465,-0.049 -0.105191,-0.097 -0.151633,-0.1442 l -1.447288,-1.4785 0.466129,-0.4563 2.453945,2.5068 -0.599563,0.5869 -3.013724,-0.8613 c 0.0547,0.044 0.111122,0.091 0.169275,0.1409 0.05003,0.042 0.105266,0.09 0.165716,0.1444 0.05927,0.056 0.117926,0.1133 0.175979,0.1726 l 1.426388,1.4571 -0.466128,0.4563 -2.453946,-2.5068 0.615575,-0.6026"
             style="font-weight:bold;-inkscape-font-specification:'Liberation Sans Bold';fill:#547499;fill-opacity:1;stroke:none;stroke-width:0.62476206;stroke-miterlimit:4;stroke-dasharray:none"
             id="path4674"
             inkscape:connector-curvature="0" />
          <path
             d="m 65.234368,1019.4597 1.712052,3.0618 -2.407723,1.3463 -0.277039,-0.4955 1.766678,-0.9878 -0.43014,-0.7693 -1.634122,0.9138 -0.277039,-0.4955 1.634122,-0.9137 -0.450795,-0.8062 -1.855772,1.0377 -0.277039,-0.4955 2.496817,-1.3961"
             style="font-weight:bold;-inkscape-font-specification:'Liberation Sans Bold';fill:#547499;fill-opacity:1;stroke:none;stroke-width:0.62476206;stroke-miterlimit:4;stroke-dasharray:none"
             id="path4676"
             inkscape:connector-curvature="0" />
          <path
             d="m 59.608408,1023.5427 c -0.07023,-0.2836 -0.08939,-0.5439 -0.05747,-0.7809 0.03232,-0.2354 0.104628,-0.444 0.216932,-0.6257 0.11231,-0.1817 0.260784,-0.3348 0.445424,-0.4592 0.183034,-0.124 0.391354,-0.2149 0.624962,-0.2728 l 1.377493,-0.3411 0.843392,3.405 -1.232493,0.3053 c -0.26422,0.065 -0.514871,0.092 -0.751954,0.081 -0.237081,-0.011 -0.452331,-0.066 -0.645751,-0.1632 -0.193416,-0.098 -0.360568,-0.2408 -0.501457,-0.4299 -0.140883,-0.1891 -0.247241,-0.4286 -0.319073,-0.7186 m 0.717746,-0.1778 c 0.04909,0.1982 0.118574,0.3614 0.208466,0.4896 0.08829,0.1286 0.191932,0.226 0.310944,0.2923 0.119413,0.068 0.252172,0.1068 0.398278,0.1168 0.144497,0.01 0.298105,0 0.460826,-0.045 l 0.50508,-0.1251 -0.570442,-2.3031 -0.604163,0.1497 c -0.143387,0.035 -0.269312,0.093 -0.377776,0.1731 -0.110071,0.08 -0.197242,0.1805 -0.261512,0.3007 -0.06548,0.1222 -0.105034,0.2629 -0.118667,0.4218 -0.01524,0.1594 0.0011,0.3358 0.04897,0.5291"
             style="font-weight:bold;-inkscape-font-specification:'Liberation Sans Bold';fill:#547499;fill-opacity:1;stroke:none;stroke-width:0.62476206;stroke-miterlimit:4;stroke-dasharray:none"
             id="path4678"
             inkscape:connector-curvature="0" />
          <path
             d="m 56.560221,1021.7365 c 0.128739,0.014 0.242431,0.043 0.341078,0.089 0.09682,0.047 0.177122,0.1081 0.240901,0.1833 0.0636,0.077 0.109037,0.1677 0.136298,0.2724 0.02726,0.1047 0.03405,0.2215 0.02037,0.3502 -0.01684,0.1584 -0.05819,0.2884 -0.124061,0.3899 -0.06769,0.103 -0.152912,0.1824 -0.255657,0.2382 -0.10292,0.057 -0.220327,0.094 -0.352224,0.1103 -0.13207,0.018 -0.270815,0.02 -0.416235,0.01 l -0.577899,-0.052 -0.01447,0.1362 c -0.01035,0.097 -0.0099,0.1792 0.0014,0.2455 0.0095,0.068 0.02855,0.1241 0.05717,0.1688 0.02863,0.045 0.06682,0.078 0.114578,0.1 0.04594,0.023 0.100263,0.038 0.16298,0.045 0.05777,0.01 0.110374,0.01 0.157814,-7e-4 0.04579,-0.01 0.08677,-0.023 0.122937,-0.05 0.03599,-0.024 0.06735,-0.06 0.09407,-0.1076 0.02489,-0.046 0.04541,-0.1054 0.06156,-0.1788 l 0.721708,0.1118 c -0.03226,0.1151 -0.07988,0.2177 -0.142874,0.3078 -0.06316,0.092 -0.144731,0.1682 -0.244702,0.2293 -0.101619,0.061 -0.222117,0.1033 -0.361493,0.1269 -0.141199,0.025 -0.303401,0.028 -0.486608,0.01 -0.166697,-0.018 -0.313049,-0.054 -0.439055,-0.1092 -0.126001,-0.055 -0.230006,-0.1288 -0.312015,-0.2209 -0.08218,-0.091 -0.140888,-0.1978 -0.176126,-0.3217 -0.03523,-0.1239 -0.04452,-0.2643 -0.02786,-0.4211 l 0.103665,-0.9754 c 0.0067,-0.063 0.01016,-0.1191 0.01047,-0.1692 -0.0013,-0.05 -0.0076,-0.093 -0.01877,-0.1297 -0.01299,-0.035 -0.03256,-0.063 -0.05869,-0.084 -0.02795,-0.02 -0.06504,-0.032 -0.111253,-0.037 -0.05281,-0.01 -0.104504,-0.01 -0.155074,0 l 0.03999,-0.3763 c 0.04232,-0.01 0.08042,-0.011 0.114302,-0.015 0.03389,0 0.0676,-0.01 0.101135,-0.01 0.03354,0 0.06946,0 0.107772,0 0.03666,6e-4 0.07975,0 0.129264,0.01 0.174955,0.018 0.299958,0.075 0.37501,0.17 0.07341,0.095 0.109501,0.2261 0.108288,0.3946 h 0.01485 c 0.110146,-0.1569 0.242751,-0.2739 0.397815,-0.3509 0.153417,-0.077 0.33328,-0.1047 0.539591,-0.083 m -0.946647,1.2038 0.357032,0.033 c 0.07463,0 0.146298,0.01 0.215019,0 0.0669,0 0.127507,-0.014 0.181829,-0.038 0.0525,-0.023 0.09649,-0.06 0.131991,-0.1112 0.0355,-0.051 0.05825,-0.124 0.06824,-0.218 0.01351,-0.1271 -0.0053,-0.2251 -0.05639,-0.294 -0.05293,-0.067 -0.12808,-0.1062 -0.22546,-0.1165 -0.08913,-0.01 -0.172017,9e-4 -0.248674,0.031 -0.07665,0.03 -0.142985,0.073 -0.198991,0.1291 -0.05783,0.057 -0.105071,0.1249 -0.141726,0.2027 -0.03665,0.078 -0.05945,0.159 -0.0684,0.2431 l -0.01447,0.1362"
             style="font-weight:bold;-inkscape-font-specification:'Liberation Sans Bold';fill:#547499;fill-opacity:1;stroke:none;stroke-width:0.62476206;stroke-miterlimit:4;stroke-dasharray:none"
             id="path4680"
             inkscape:connector-curvature="0" />
          <path
             d="m 52.701872,1020.9223 -0.489473,1.4297 c -0.03386,0.099 -0.05692,0.1919 -0.06918,0.279 -0.01279,0.089 -0.01107,0.1681 0.0052,0.2386 0.01569,0.072 0.04694,0.1345 0.09375,0.1873 0.04681,0.053 0.111834,0.094 0.195058,0.1221 0.08009,0.027 0.15929,0.034 0.237606,0.021 0.07621,-0.012 0.149161,-0.044 0.218847,-0.093 0.06915,-0.048 0.132665,-0.1134 0.190539,-0.1953 0.05577,-0.081 0.102199,-0.1755 0.139291,-0.2839 l 0.467701,-1.3662 0.661888,0.2266 -0.677359,1.9786 c -0.01881,0.055 -0.03738,0.1118 -0.0557,0.1704 -0.01989,0.058 -0.03713,0.1136 -0.05174,0.1665 -0.01671,0.054 -0.03126,0.1016 -0.04367,0.143 -0.01294,0.043 -0.02134,0.075 -0.02519,0.097 l -0.631267,-0.2161 c 0.0033,-0.02 0.01065,-0.052 0.02203,-0.095 0.01084,-0.042 0.02329,-0.088 0.03735,-0.1398 0.01406,-0.051 0.02891,-0.1024 0.04454,-0.1532 0.01406,-0.051 0.02701,-0.094 0.03883,-0.1288 h -0.0094 c -0.156167,0.164 -0.316827,0.2669 -0.481981,0.3086 -0.16515,0.042 -0.341159,0.031 -0.528029,-0.033 -0.153888,-0.053 -0.274838,-0.1221 -0.362849,-0.2084 -0.08958,-0.087 -0.152289,-0.1855 -0.188141,-0.296 -0.03742,-0.111 -0.05062,-0.2313 -0.0396,-0.3609 0.01102,-0.1296 0.04019,-0.2634 0.08749,-0.4016 l 0.553983,-1.6182 0.659533,0.2258"
             style="font-weight:bold;-inkscape-font-specification:'Liberation Sans Bold';fill:#547499;fill-opacity:1;stroke:none;stroke-width:0.62476206;stroke-miterlimit:4;stroke-dasharray:none"
             id="path4682"
             inkscape:connector-curvature="0" />
          <path
             d="m 49.952732,1019.4626 c -0.0043,0.013 -0.01322,0.035 -0.02676,0.066 -0.01583,0.031 -0.03319,0.066 -0.05206,0.1055 -0.02027,0.038 -0.04099,0.077 -0.06216,0.1168 -0.02256,0.039 -0.04317,0.073 -0.06181,0.1023 l 0.0084,0.01 c 0.16193,-0.1038 0.325019,-0.1489 0.489268,-0.1353 0.161961,0.014 0.328491,0.075 0.49959,0.1836 0.143052,0.091 0.248529,0.1986 0.31643,0.3241 0.0665,0.1246 0.100821,0.2612 0.102964,0.4099 7.42e-4,0.1478 -0.02733,0.3039 -0.08422,0.4682 -0.05917,0.1649 -0.142468,0.3322 -0.249879,0.5019 -0.109185,0.1725 -0.226323,0.3203 -0.351415,0.4434 -0.126493,0.1223 -0.258347,0.2127 -0.395563,0.2712 -0.1381,0.06 -0.280489,0.085 -0.427165,0.074 -0.148076,-0.011 -0.297847,-0.065 -0.449315,-0.1607 -0.07433,-0.047 -0.140972,-0.1 -0.19993,-0.1589 -0.05895,-0.059 -0.107675,-0.1232 -0.146164,-0.1927 -0.03848,-0.07 -0.06559,-0.1447 -0.08132,-0.2253 -0.01572,-0.081 -0.01778,-0.1675 -0.0062,-0.2603 h -0.0042 c -0.0089,0.014 -0.02104,0.035 -0.03651,0.062 -0.01775,0.028 -0.03772,0.06 -0.05992,0.095 -0.02219,0.035 -0.04457,0.072 -0.06714,0.1107 -0.02397,0.038 -0.04705,0.074 -0.06924,0.1094 l -0.525956,0.8309 -0.591138,-0.3741 1.661755,-2.6254 c 0.07013,-0.1108 0.130608,-0.211 0.181435,-0.3007 0.04994,-0.088 0.0886,-0.157 0.115978,-0.2065 l 0.572204,0.3622 m -0.701001,1.168 c -0.09498,0.1501 -0.159516,0.2831 -0.193608,0.399 -0.03497,0.1174 -0.04752,0.2194 -0.03764,0.3062 0.0076,0.087 0.03375,0.1608 0.07844,0.2206 0.04241,0.06 0.09377,0.1094 0.154074,0.1476 0.07574,0.048 0.152374,0.076 0.229917,0.084 0.07614,0.01 0.154524,-0.01 0.23514,-0.046 0.07922,-0.038 0.160412,-0.1 0.243585,-0.1847 0.08177,-0.086 0.166601,-0.198 0.254481,-0.3369 0.326671,-0.5161 0.335034,-0.8722 0.02509,-1.0684 -0.0589,-0.037 -0.125794,-0.062 -0.200677,-0.074 -0.07488,-0.012 -0.154547,0 -0.239001,0.029 -0.08445,0.031 -0.172657,0.088 -0.264622,0.1713 -0.09425,0.084 -0.189312,0.2014 -0.285185,0.3528"
             style="font-weight:bold;-inkscape-font-specification:'Liberation Sans Bold';fill:#547499;fill-opacity:1;stroke:none;stroke-width:0.62476206;stroke-miterlimit:4;stroke-dasharray:none"
             id="path4684"
             inkscape:connector-curvature="0" />
          <path
             d="m 45.256175,1016.0518 c 0.126109,-0.097 0.258804,-0.1632 0.398086,-0.1974 0.137973,-0.033 0.281278,-0.03 0.429915,0.011 0.147627,0.039 0.300137,0.1185 0.457531,0.2381 0.155069,0.1193 0.312753,0.2827 0.473052,0.4903 0.142039,0.1839 0.250917,0.3588 0.326634,0.5247 0.07572,0.1659 0.120454,0.3243 0.134208,0.4752 0.01274,0.1495 -0.0038,0.2924 -0.04971,0.4285 -0.04821,0.1358 -0.123399,0.2651 -0.225573,0.3881 l -0.526333,-0.49 c 0.04957,-0.064 0.0883,-0.1301 0.116191,-0.1999 0.0279,-0.07 0.0406,-0.1456 0.03811,-0.2276 -0.0048,-0.082 -0.02715,-0.1709 -0.06701,-0.266 -0.04218,-0.095 -0.106901,-0.1995 -0.194154,-0.3125 -0.152182,-0.197 -0.297905,-0.3246 -0.437169,-0.3827 -0.141589,-0.058 -0.276094,-0.038 -0.403516,0.06 -0.07619,0.059 -0.12235,0.128 -0.13849,0.2076 -0.01613,0.08 -0.01308,0.1664 0.0092,0.2603 0.02225,0.094 0.05786,0.1944 0.106848,0.3013 0.04899,0.1069 0.101676,0.2172 0.158062,0.3309 0.04248,0.093 0.08431,0.1866 0.125479,0.2806 0.04117,0.094 0.07586,0.1878 0.104076,0.2814 0.0272,0.092 0.0456,0.1839 0.05519,0.2751 0.0096,0.091 0.0046,0.181 -0.01511,0.2696 -0.02199,0.088 -0.06028,0.1745 -0.114862,0.2586 -0.0556,0.083 -0.13397,0.1632 -0.23512,0.2414 -0.137926,0.1065 -0.277456,0.1702 -0.418591,0.1911 -0.141129,0.021 -0.280103,0.01 -0.416923,-0.043 -0.139142,-0.05 -0.275414,-0.1312 -0.408816,-0.2442 -0.133395,-0.113 -0.261983,-0.2496 -0.385763,-0.4098 -0.140005,-0.1813 -0.245273,-0.3475 -0.315804,-0.4985 -0.07285,-0.1514 -0.11386,-0.2927 -0.123027,-0.4241 -0.01017,-0.1326 0.0095,-0.2579 0.05892,-0.3758 0.04713,-0.1182 0.120024,-0.2342 0.218669,-0.3482 l 0.512091,0.5042 c -0.09721,0.1212 -0.141541,0.2498 -0.132981,0.3858 0.0076,0.1347 0.07525,0.2848 0.203076,0.4503 0.07914,0.1025 0.154281,0.1808 0.225425,0.2349 0.06882,0.054 0.134064,0.089 0.195725,0.1068 0.06065,0.016 0.117933,0.017 0.171841,0 0.0526,-0.013 0.101231,-0.037 0.145891,-0.072 0.06831,-0.053 0.112113,-0.1128 0.131409,-0.1801 0.01799,-0.066 0.01926,-0.1407 0.0038,-0.2232 -0.01675,-0.081 -0.04607,-0.171 -0.08796,-0.2686 -0.04421,-0.098 -0.09385,-0.2044 -0.148931,-0.3191 -0.04857,-0.1009 -0.09532,-0.2022 -0.140248,-0.3038 -0.04624,-0.1006 -0.0855,-0.2003 -0.117773,-0.2991 -0.03227,-0.099 -0.05457,-0.1969 -0.06691,-0.2944 -0.01233,-0.097 -0.0084,-0.1927 0.01189,-0.286 0.01794,-0.094 0.05566,-0.1845 0.113164,-0.273 0.0565,-0.09 0.138605,-0.1763 0.246318,-0.2594"
             style="font-weight:bold;-inkscape-font-specification:'Liberation Sans Bold';fill:#547499;fill-opacity:1;stroke:none;stroke-width:0.62476206;stroke-miterlimit:4;stroke-dasharray:none"
             id="path4686"
             inkscape:connector-curvature="0" />
          <path
             d="m 42.482936,1014.7086 2.675841,-1.2187 0.304425,0.6683 -2.675841,1.2188 0.469537,1.0309 -0.516589,0.2353 -1.244531,-2.7325 0.516589,-0.2353 0.470569,1.0332"
             style="font-weight:bold;-inkscape-font-specification:'Liberation Sans Bold';fill:#547499;fill-opacity:1;stroke:none;stroke-width:0.62476206;stroke-miterlimit:4;stroke-dasharray:none"
             id="path4688"
             inkscape:connector-curvature="0" />
          <path
             d="m 44.242597,1009.9787 -0.823585,0.4711 0.246373,1.314 0.938285,0.1407 0.135344,0.7219 -3.683702,-0.6113 -0.159661,-0.8516 3.212978,-1.8993 0.133968,0.7145 m -2.263827,1.2604 c -0.05342,0.03 -0.106852,0.061 -0.160282,0.091 -0.05536,0.029 -0.105322,0.055 -0.149882,0.079 -0.04649,0.022 -0.08432,0.041 -0.113482,0.057 -0.02946,0.014 -0.04568,0.022 -0.04863,0.024 0.0052,8e-4 0.02407,0 0.05659,0 0.03253,0 0.07382,0.01 0.123881,0.012 0.04976,0 0.105837,0.01 0.168234,0.019 0.06047,0.01 0.12108,0.015 0.181845,0.024 l 1.054824,0.1543 -0.185812,-0.9911 -0.927279,0.526"
             style="font-weight:bold;-inkscape-font-specification:'Liberation Sans Bold';fill:#547499;fill-opacity:1;stroke:none;stroke-width:0.62476206;stroke-miterlimit:4;stroke-dasharray:none"
             id="path4690"
             inkscape:connector-curvature="0" />
          <path
             d="m 44.399817,1005.8675 -2.113249,-0.2342 c -0.08413,-0.01 -0.17065,-0.02 -0.259552,-0.031 -0.08872,-0.013 -0.170009,-0.025 -0.243882,-0.037 -0.08688,-0.015 -0.171384,-0.028 -0.253505,-0.041 0.126488,0.049 0.246558,0.096 0.36021,0.1401 0.04803,0.019 0.09762,0.038 0.148759,0.059 0.05115,0.021 0.100642,0.041 0.148485,0.062 0.04803,0.019 0.09276,0.037 0.134186,0.055 0.04143,0.018 0.07727,0.034 0.107514,0.047 l 1.875326,0.844 -0.05759,0.5197 -2.014636,0.413 c -0.03244,0.01 -0.07084,0.014 -0.115194,0.022 -0.04417,0.01 -0.09182,0.015 -0.142961,0.024 -0.05095,0.01 -0.103645,0.016 -0.158083,0.025 -0.05443,0.01 -0.107219,0.018 -0.158357,0.027 -0.120782,0.02 -0.248347,0.041 -0.382697,0.063 0.09623,0.01 0.190813,0.011 0.283741,0.016 0.07955,0.01 0.163228,0.011 0.251025,0.018 0.0878,0.01 0.16387,0.013 0.228205,0.02 l 2.11325,0.2342 -0.07185,0.6483 -3.486613,-0.3864 0.108322,-0.9774 2.019037,-0.4075 c 0.05297,-0.011 0.117577,-0.021 0.193823,-0.031 0.07643,-0.012 0.150295,-0.023 0.221592,-0.033 0.08303,-0.011 0.16954,-0.023 0.259532,-0.036 -0.08322,-0.033 -0.16324,-0.064 -0.240049,-0.094 -0.03354,-0.014 -0.06792,-0.028 -0.103114,-0.042 -0.0352,-0.014 -0.06957,-0.028 -0.103114,-0.041 -0.03355,-0.014 -0.06544,-0.027 -0.09569,-0.041 -0.03025,-0.013 -0.05729,-0.026 -0.08112,-0.037 l -1.894293,-0.8312 0.107774,-0.9725 3.486614,0.3864 -0.07185,0.6483"
             style="font-weight:bold;-inkscape-font-specification:'Liberation Sans Bold';fill:#547499;fill-opacity:1;stroke:none;stroke-width:0.62476206;stroke-miterlimit:4;stroke-dasharray:none"
             id="path4692"
             inkscape:connector-curvature="0" />
          <path
             d="m 43.615347,1000.9607 c 0.139217,0.059 0.263865,0.139 0.373944,0.2411 0.109195,0.1 0.193233,0.2191 0.252114,0.3573 0.05888,0.1382 0.08693,0.2941 0.08415,0.4676 -0.0043,0.1729 -0.04928,0.361 -0.134902,0.5645 l -0.337985,0.8032 1.138209,0.4789 -0.284873,0.677 -3.233337,-1.3606 0.611268,-1.4526 c 0.08691,-0.2065 0.187478,-0.3749 0.301694,-0.5051 0.112692,-0.1309 0.23509,-0.227 0.367195,-0.2885 0.132108,-0.061 0.270864,-0.089 0.416267,-0.084 0.14605,0 0.294802,0.038 0.446256,0.1013 m -0.27533,0.6864 c -0.166752,-0.07 -0.31421,-0.073 -0.442372,-0.01 -0.129045,0.063 -0.235736,0.1943 -0.320073,0.3947 l -0.294529,0.7 1.048712,0.4413 0.302254,-0.7183 c 0.04249,-0.101 0.06586,-0.1929 0.07011,-0.2757 0.0049,-0.084 -0.0064,-0.1603 -0.03386,-0.2277 -0.02682,-0.069 -0.0683,-0.1286 -0.124427,-0.1793 -0.05766,-0.051 -0.12626,-0.094 -0.205813,-0.1271"
             style="font-weight:bold;-inkscape-font-specification:'Liberation Sans Bold';fill:#547499;fill-opacity:1;stroke:none;stroke-width:0.62476206;stroke-miterlimit:4;stroke-dasharray:none"
             id="path4694"
             inkscape:connector-curvature="0" />
          <path
             d="m 46.112429,1001.4391 -2.784586,-2.13346 1.677733,-2.18972 0.450593,0.34523 -1.231044,1.60672 0.699605,0.53603 1.138678,-1.48617 0.450593,0.34524 -1.138678,1.48617 0.733202,0.56176 1.293127,-1.68774 0.450593,0.34524 -1.739816,2.2707"
             style="font-weight:bold;-inkscape-font-specification:'Liberation Sans Bold';fill:#547499;fill-opacity:1;stroke:none;stroke-width:0.62476206;stroke-miterlimit:4;stroke-dasharray:none"
             id="path4696"
             inkscape:connector-curvature="0" />
          <path
             d="m 49.6523,995.45831 c 0.177404,0.23209 0.298697,0.46319 0.36388,0.69331 0.06417,0.22881 0.08096,0.44892 0.05036,0.66033 -0.0306,0.21142 -0.105791,0.41096 -0.225572,0.59862 -0.118467,0.18666 -0.273301,0.35306 -0.464505,0.49922 l -1.127452,0.86183 -2.130378,-2.78698 1.008773,-0.77111 c 0.21626,-0.16531 0.435381,-0.28998 0.657364,-0.37401 0.221984,-0.084 0.441088,-0.11989 0.657314,-0.1076 0.216225,0.0123 0.426624,0.0771 0.631197,0.1944 0.204571,0.11731 0.397576,0.29464 0.579015,0.53199 m -0.587462,0.44906 c -0.123983,-0.16219 -0.252742,-0.28417 -0.386279,-0.36595 -0.132219,-0.0828 -0.266111,-0.13084 -0.401677,-0.14421 -0.136575,-0.0147 -0.273854,0.003 -0.411836,0.0516 -0.136664,0.0481 -0.271588,0.123 -0.404773,0.2248 l -0.413399,0.316 1.440916,1.88502 0.494496,-0.37799 c 0.117359,-0.0897 0.209865,-0.1928 0.277518,-0.30928 0.06897,-0.11749 0.108974,-0.24417 0.120014,-0.38005 0.01135,-0.1382 -0.0084,-0.28292 -0.05925,-0.43417 -0.04953,-0.15225 -0.134774,-0.3075 -0.255732,-0.46574"
             style="font-weight:bold;-inkscape-font-specification:'Liberation Sans Bold';fill:#547499;fill-opacity:1;stroke:none;stroke-width:0.62476206;stroke-miterlimit:4;stroke-dasharray:none"
             id="path4698"
             inkscape:connector-curvature="0" />
          <path
             d="m 54.217997,996.70798 -1.185221,-4.67974 0.632331,-0.16014 1.185221,4.67973 -0.632331,0.16015"
             style="font-weight:bold;-inkscape-font-specification:'Liberation Sans Bold';fill:#547499;fill-opacity:1;stroke:none;stroke-width:0.62476206;stroke-miterlimit:4;stroke-dasharray:none"
             id="path4700"
             inkscape:connector-curvature="0" />
          <path
             d="m 56.687805,995.09466 0.09477,-3.50668 0.734187,0.0199 -0.07943,2.93924 1.881511,0.0508 -0.01534,0.56744 -2.615699,-0.0707"
             style="font-weight:bold;-inkscape-font-specification:'Liberation Sans Bold';fill:#547499;fill-opacity:1;stroke:none;stroke-width:0.62476206;stroke-miterlimit:4;stroke-dasharray:none"
             id="path4702"
             inkscape:connector-curvature="0" />
          <path
             d="m 59.810404,995.24407 0.939605,-3.37978 2.65777,0.73888 -0.152044,0.5469 -1.950151,-0.54215 -0.236068,0.84914 1.803829,0.50148 -0.152044,0.5469 -1.803829,-0.50147 -0.247405,0.88992 2.048498,0.5695 -0.152044,0.5469 -2.756117,-0.76622"
             style="font-weight:bold;-inkscape-font-specification:'Liberation Sans Bold';fill:#547499;fill-opacity:1;stroke:none;stroke-width:0.62476206;stroke-miterlimit:4;stroke-dasharray:none"
             id="path4704"
             inkscape:connector-curvature="0" />
          <path
             d="m 64.786044,996.63794 c 0.09064,0.0554 0.182072,0.10153 0.274291,0.13843 0.09221,0.0369 0.180654,0.0657 0.265319,0.0863 0.08694,0.0201 0.167826,0.0325 0.242655,0.0374 0.07711,0.004 0.144024,10e-4 0.200755,-0.009 l 0.253135,-0.41427 -0.730818,-0.44656 0.282992,-0.46313 1.304425,0.79705 -0.67243,1.10047 c -0.110392,0.0279 -0.233212,0.0442 -0.368462,0.0491 -0.134391,0.003 -0.27649,-0.008 -0.426298,-0.0329 -0.148948,-0.0268 -0.303599,-0.0698 -0.463952,-0.12886 -0.158942,-0.0582 -0.318433,-0.13622 -0.478475,-0.23401 -0.264852,-0.16183 -0.469512,-0.33941 -0.613981,-0.53272 -0.143605,-0.19473 -0.235044,-0.39843 -0.274317,-0.6111 -0.03841,-0.21409 -0.02937,-0.4342 0.02711,-0.66034 0.0579,-0.22526 0.155645,-0.45049 0.293248,-0.67569 0.142792,-0.23369 0.302898,-0.42568 0.480318,-0.57597 0.177416,-0.15029 0.369393,-0.25279 0.575931,-0.30748 0.208815,-0.0553 0.43046,-0.0599 0.664936,-0.0138 0.236752,0.0455 0.484722,0.14739 0.74391,0.30576 0.188366,0.1151 0.344241,0.23563 0.467624,0.36159 0.124792,0.12683 0.220948,0.25755 0.288468,0.39217 0.06893,0.13549 0.110794,0.27389 0.125598,0.4152 0.01708,0.14076 0.01122,0.28404 -0.01756,0.42983 l -0.684302,-0.17888 c 0.01258,-0.0779 0.0145,-0.15744 0.0058,-0.23864 -0.0079,-0.0826 -0.03113,-0.16393 -0.06976,-0.24395 -0.03636,-0.0806 -0.08896,-0.15842 -0.157809,-0.23356 -0.06657,-0.0757 -0.152968,-0.14598 -0.259188,-0.21089 -0.155797,-0.0952 -0.305492,-0.15262 -0.449084,-0.17228 -0.142732,-0.0211 -0.278614,-0.009 -0.407646,0.0368 -0.129037,0.0457 -0.250202,0.12138 -0.363496,0.22721 -0.112432,0.10442 -0.216677,0.23524 -0.312737,0.39244 -0.0952,0.1558 -0.164901,0.30967 -0.20911,0.4616 -0.04279,0.1528 -0.05593,0.29844 -0.03939,0.43692 0.01795,0.13934 0.06756,0.26984 0.148848,0.39147 0.08128,0.12164 0.199114,0.22962 0.353494,0.32395"
             style="font-weight:bold;-inkscape-font-specification:'Liberation Sans Bold';fill:#547499;fill-opacity:1;stroke:none;stroke-width:0.62476206;stroke-miterlimit:4;stroke-dasharray:none"
             id="path4706"
             inkscape:connector-curvature="0" />
          <path
             d="m 68.084285,1000.2281 0.45468,-0.83275 -0.898355,-0.99016 -0.872908,0.37177 -0.49351,-0.54395 3.457894,-1.40938 0.582174,0.64167 -1.741484,3.3012 -0.488491,-0.5384 m 1.26784,-2.25966 c 0.02964,-0.0538 0.05928,-0.10757 0.08892,-0.16136 0.03198,-0.0537 0.06078,-0.10221 0.08639,-0.14561 0.02795,-0.0433 0.05026,-0.0792 0.06693,-0.10779 0.01778,-0.0273 0.02734,-0.0427 0.02868,-0.0462 -0.0048,0.002 -0.02167,0.0107 -0.0506,0.0257 -0.02894,0.015 -0.06624,0.0332 -0.111927,0.0545 -0.04457,0.0225 -0.09568,0.0465 -0.15331,0.0719 -0.0553,0.0255 -0.111144,0.0504 -0.167548,0.0747 l -0.979303,0.42123 0.67753,0.74677 0.514233,-0.93383"
             style="font-weight:bold;-inkscape-font-specification:'Liberation Sans Bold';fill:#547499;fill-opacity:1;stroke:none;stroke-width:0.62476206;stroke-miterlimit:4;stroke-dasharray:none"
             id="path4708"
             inkscape:connector-curvature="0" />
          <path
             d="m 68.801195,1001.2071 3.101976,-1.63818 0.342976,0.64948 -2.600024,1.373 0.878948,1.6644 -0.501952,0.2651 -1.221924,-2.3138"
             style="font-weight:bold;-inkscape-font-specification:'Liberation Sans Bold';fill:#547499;fill-opacity:1;stroke:none;stroke-width:0.62476206;stroke-miterlimit:4;stroke-dasharray:none"
             id="path4710"
             inkscape:connector-curvature="0" />
          <path
             d="m 69.413413,1005.5753 4.719938,-1.0133 0.136922,0.6378 -4.719937,1.0133 -0.136923,-0.6378"
             style="font-weight:bold;-inkscape-font-specification:'Liberation Sans Bold';fill:#547499;fill-opacity:1;stroke:none;stroke-width:0.62476206;stroke-miterlimit:4;stroke-dasharray:none"
             id="path4712"
             inkscape:connector-curvature="0" />
        </g>
      </g>
    </g>
  </g>
</svg>
