<?xml version="1.0" encoding="UTF-8" standalone="no"?>
<!-- Created with Inkscape (http://www.inkscape.org/) -->

<svg
   xmlns:dc="http://purl.org/dc/elements/1.1/"
   xmlns:cc="http://creativecommons.org/ns#"
   xmlns:rdf="http://www.w3.org/1999/02/22-rdf-syntax-ns#"
   xmlns:svg="http://www.w3.org/2000/svg"
   xmlns="http://www.w3.org/2000/svg"
   xmlns:xlink="http://www.w3.org/1999/xlink"
   xmlns:sodipodi="http://sodipodi.sourceforge.net/DTD/sodipodi-0.dtd"
   xmlns:inkscape="http://www.inkscape.org/namespaces/inkscape"
   width="128"
   height="128"
   viewBox="0 0 33.866666 33.866668"
   version="1.1"
   id="svg8"
   sodipodi:docname="ever.svg"
   inkscape:version="0.92.2 5c3e80d, 2017-08-06">
  <defs
     id="defs2">
    <linearGradient
       inkscape:collect="always"
       id="linearGradient1069">
      <stop
         style="stop-color:#5a5a5a;stop-opacity:1"
         offset="0"
         id="stop1065" />
      <stop
         style="stop-color:#2a292a;stop-opacity:1"
         offset="1"
         id="stop1067" />
    </linearGradient>
    <linearGradient
       inkscape:collect="always"
       id="linearGradient1059">
      <stop
         style="stop-color:#9cfc84;stop-opacity:1"
         offset="0"
         id="stop1055" />
      <stop
         style="stop-color:#40c431;stop-opacity:1"
         offset="1"
         id="stop1057" />
    </linearGradient>
    <radialGradient
       inkscape:collect="always"
       xlink:href="#linearGradient1059"
       id="radialGradient1063"
       cx="-109.60681"
       cy="132.99673"
       fx="-109.60681"
       fy="132.99673"
       r="57.303028"
       gradientTransform="matrix(0.29088777,0,0,0.28983407,-83.078232,100.45907)"
       gradientUnits="userSpaceOnUse" />
    <linearGradient
       inkscape:collect="always"
       xlink:href="#linearGradient1069"
       id="linearGradient1071"
       x1="-115.58269"
       y1="95.174973"
       x2="-109.58342"
       y2="176.06187"
       gradientUnits="userSpaceOnUse"
       gradientTransform="matrix(0.29088777,0,0,0.29088777,-83.078232,100.31893)" />
  </defs>
  <sodipodi:namedview
     id="base"
     pagecolor="#ffffff"
     bordercolor="#666666"
     borderopacity="1.0"
     inkscape:pageopacity="0.0"
     inkscape:pageshadow="2"
     inkscape:zoom="3.959798"
     inkscape:cx="119.0695"
     inkscape:cy="17.829739"
     inkscape:document-units="mm"
     inkscape:current-layer="layer1"
     showgrid="false"
     inkscape:window-width="1600"
     inkscape:window-height="814"
     inkscape:window-x="0"
     inkscape:window-y="0"
     inkscape:window-maximized="1"
     units="px" />
  <metadata
     id="metadata5">
    <rdf:RDF>
      <cc:Work
         rdf:about="">
        <dc:format>image/svg+xml</dc:format>
        <dc:type
           rdf:resource="http://purl.org/dc/dcmitype/StillImage" />
        <dc:title></dc:title>
      </cc:Work>
    </rdf:RDF>
  </metadata>
  <g
     inkscape:label="Layer 1"
     inkscape:groupmode="layer"
     id="layer1"
     transform="translate(0,-263.13332)">
    <g
       id="g1086"
       transform="matrix(0.98789759,0,0,0.98789759,130.50354,142.48153)"
       style="stroke-width:1.01225066">
      <rect
         style="opacity:0.25;fill:#000000;fill-opacity:1;fill-rule:nonzero;stroke:none;stroke-width:0.26782465"
         id="rect1081"
         width="33.337502"
         height="33.21674"
         x="-131.63026"
         y="122.92685"
         ry="1.6605039" />
      <rect
         ry="1.6605039"
         y="122.39768"
         x="-131.63026"
         height="33.21674"
         width="33.337502"
         id="rect1008"
         style="opacity:1;fill:url(#radialGradient1063);fill-opacity:1;fill-rule:nonzero;stroke:none;stroke-width:0.26782465" />
      <path
         style="fill:url(#linearGradient1071);fill-opacity:1;stroke-width:1.01225066"
         d="m -112.54718,151.30857 c -2.07561,-0.21894 -2.79565,-1.12996 -2.70569,-3.42335 0.0597,-1.5232 0.42622,-2.27004 1.30559,-2.66065 0.36483,-0.16206 0.5225,-0.1811 1.52294,-0.1839 l 1.11598,-0.003 -0.0172,0.26938 c -0.009,0.14815 -0.0267,0.52913 -0.0385,0.8466 l -0.0213,0.57723 -0.5702,0.0621 c -0.6651,0.0724 -0.9851,0.21517 -1.08783,0.48539 -0.10812,0.28437 -0.0898,0.77586 0.0382,1.0233 0.18738,0.36234 0.48196,0.43053 1.85077,0.4284 1.86284,-0.003 2.13293,-0.17987 2.23692,-1.46581 0.0614,-0.7593 -0.0708,-1.97276 -0.27417,-2.5163 -0.15091,-0.40335 -0.4865,-0.79857 -0.82605,-0.97284 -0.0944,-0.0485 -0.75346,-0.17373 -1.46452,-0.27838 -1.53793,-0.22634 -2.09971,-0.36383 -2.53953,-0.62153 -0.39615,-0.23211 -0.74891,-0.80745 -0.86839,-1.41633 -0.12733,-0.64884 -0.17153,-0.69069 -0.24387,-0.23089 -0.12859,0.81732 -0.43489,2.00184 -0.62505,2.41719 -0.32503,0.70997 -0.68502,0.78404 -2.4861,0.5115 -1.97893,-0.29946 -4.1669,-0.83709 -4.8826,-1.19976 -0.22312,-0.11306 -0.47715,-0.32596 -0.61345,-0.51412 -0.43693,-0.60316 -0.91211,-2.41289 -1.42382,-5.42264 -0.47322,-2.78332 -0.44612,-3.67511 0.13069,-4.30088 0.48156,-0.52243 0.75021,-0.58511 2.74591,-0.64065 l 1.71896,-0.0478 0.22438,-0.25135 c 0.25555,-0.28627 0.25168,-0.25141 0.25846,-2.32695 0.004,-1.24744 0.0175,-1.37357 0.18251,-1.70847 0.43097,-0.87496 1.78171,-1.26619 3.68949,-1.06862 1.69089,0.1751 2.25888,0.45112 2.69446,1.30937 0.13805,0.27202 0.26032,0.50391 0.27172,0.51531 0.0114,0.0114 0.64308,0.0399 1.40373,0.0632 2.09038,0.0642 4.40084,0.39538 5.19272,0.74421 0.48287,0.21271 0.89757,0.6438 1.07467,1.11713 0.41976,1.1219 0.88221,8.35126 0.69521,10.86781 -0.18064,2.43077 -0.65629,5.20158 -1.15216,6.71169 -0.74593,2.2716 -1.47899,3.08742 -2.96751,3.30254 -0.607,0.0877 -2.72159,0.0889 -3.54535,0.002 z m 4.07078,-12.79978 c 0.0656,-0.17088 -0.0885,-0.82348 -0.25994,-1.10082 -0.54005,-0.87382 -1.93588,-0.61484 -2.22106,0.41209 -0.1364,0.4912 -0.14744,0.48265 0.63033,0.48839 0.43129,0.003 0.90911,0.0596 1.21218,0.14321 0.27515,0.0759 0.52254,0.14278 0.54976,0.14868 0.0272,0.006 0.0671,-0.0353 0.0887,-0.0915 z m -16.30394,-6.98372 c -0.0376,-0.0608 3.89501,-3.94048 3.94424,-3.89124 0.0158,0.0158 -0.009,0.26693 -0.0561,0.55804 -0.0544,0.33939 -0.0655,0.96369 -0.0309,1.74001 0.0413,0.92642 0.0312,1.23817 -0.0431,1.32763 -0.08,0.0964 -0.33547,0.1172 -1.45372,0.11852 -0.82013,8.8e-4 -1.54817,0.0417 -1.84084,0.10305 -0.26628,0.0558 -0.50012,0.0756 -0.51965,0.044 z"
         id="path1033"
         inkscape:connector-curvature="0" />
    </g>
  </g>
</svg>
