<?xml version="1.0" encoding="UTF-8" standalone="no"?>
<!-- Created with Inkscape (http://www.inkscape.org/) -->

<svg
   xmlns:osb="http://www.openswatchbook.org/uri/2009/osb"
   xmlns:dc="http://purl.org/dc/elements/1.1/"
   xmlns:cc="http://creativecommons.org/ns#"
   xmlns:rdf="http://www.w3.org/1999/02/22-rdf-syntax-ns#"
   xmlns:svg="http://www.w3.org/2000/svg"
   xmlns="http://www.w3.org/2000/svg"
   xmlns:xlink="http://www.w3.org/1999/xlink"
   xmlns:sodipodi="http://sodipodi.sourceforge.net/DTD/sodipodi-0.dtd"
   xmlns:inkscape="http://www.inkscape.org/namespaces/inkscape"
   width="128"
   height="128"
   viewBox="0 0 33.866666 33.866668"
   version="1.1"
   id="svg8"
   inkscape:version="0.92.2 5c3e80d, 2017-08-06"
   sodipodi:docname="drawing.svg">
  <defs
     id="defs2">
    <linearGradient
       inkscape:collect="always"
       id="linearGradient1125">
      <stop
         style="stop-color:#f2f1f2;stop-opacity:1"
         offset="0"
         id="stop1121" />
      <stop
         style="stop-color:#dcdadc;stop-opacity:1"
         offset="1"
         id="stop1123" />
    </linearGradient>
    <linearGradient
       id="linearGradient6987"
       osb:paint="solid">
      <stop
         style="stop-color:#77d2fb;stop-opacity:1;"
         offset="0"
         id="stop6985" />
    </linearGradient>
    <linearGradient
       id="linearGradient6088"
       osb:paint="solid">
      <stop
         style="stop-color:#51b3e3;stop-opacity:1;"
         offset="0"
         id="stop6086" />
    </linearGradient>
    <linearGradient
       inkscape:collect="always"
       xlink:href="#linearGradient1125"
       id="linearGradient1127"
       x1="83.907333"
       y1="235.71355"
       x2="84.20623"
       y2="241.99438"
       gradientUnits="userSpaceOnUse" />
  </defs>
  <sodipodi:namedview
     id="base"
     pagecolor="#ffffff"
     bordercolor="#666666"
     borderopacity="1.0"
     inkscape:pageopacity="0.0"
     inkscape:pageshadow="2"
     inkscape:zoom="3.959798"
     inkscape:cx="110.88915"
     inkscape:cy="65.654367"
     inkscape:document-units="mm"
     inkscape:current-layer="layer1"
     showgrid="false"
     units="px"
     inkscape:window-width="1600"
     inkscape:window-height="814"
     inkscape:window-x="0"
     inkscape:window-y="0"
     inkscape:window-maximized="1" />
  <metadata
     id="metadata5">
    <rdf:RDF>
      <cc:Work
         rdf:about="">
        <dc:format>image/svg+xml</dc:format>
        <dc:type
           rdf:resource="http://purl.org/dc/dcmitype/StillImage" />
        <dc:title></dc:title>
      </cc:Work>
    </rdf:RDF>
  </metadata>
  <g
     inkscape:label="Layer 1"
     inkscape:groupmode="layer"
     id="layer1"
     transform="translate(0,-263.13332)">
    <g
       id="g1141"
       transform="matrix(1.1015318,0,0,1.1011512,-89.034206,6.6727882)"
       style="stroke-width:0.9079836">
      <rect
         style="opacity:0.28000004;fill:#000000;fill-opacity:1;fill-rule:nonzero;stroke:none;stroke-width:0.23062785;stroke-linecap:round;stroke-linejoin:round;stroke-miterlimit:4;stroke-dasharray:none;stroke-dashoffset:0;stroke-opacity:1"
         id="rect1129"
         width="30.034086"
         height="26.6264"
         x="81.183121"
         y="235.28908"
         ry="0.86371595" />
      <rect
         ry="0.86371595"
         y="234.75992"
         x="81.183121"
         height="26.6264"
         width="30.034086"
         id="rect872"
         style="opacity:1;fill:#ffffff;fill-opacity:1;fill-rule:nonzero;stroke:#999999;stroke-width:0.23062785;stroke-linecap:round;stroke-linejoin:round;stroke-miterlimit:4;stroke-dasharray:none;stroke-dashoffset:0;stroke-opacity:1" />
      <path
         inkscape:connector-curvature="0"
         id="rect882"
         d="m 82.15725,234.87798 c -0.474223,0 -0.855798,0.37926 -0.855798,0.84999 v 6.30018 h 29.765368 v -6.30018 c 0,-0.47073 -0.38158,-0.84999 -0.8558,-0.84999 z"
         style="opacity:1;fill:url(#linearGradient1127);fill-opacity:1;fill-rule:nonzero;stroke:none;stroke-width:0.27239507;stroke-linecap:round;stroke-linejoin:round;stroke-miterlimit:4;stroke-dasharray:none;stroke-dashoffset:0;stroke-opacity:1" />
      <circle
         r="1.6463193"
         cy="238.54134"
         cx="85.391075"
         id="path874"
         style="opacity:1;fill:#ff6159;fill-opacity:1;fill-rule:nonzero;stroke:#cc4e47;stroke-width:0.09225114;stroke-linecap:round;stroke-linejoin:round;stroke-miterlimit:4;stroke-dasharray:none;stroke-dashoffset:0;stroke-opacity:1" />
      <circle
         style="opacity:1;fill:#ffbe2f;fill-opacity:1;fill-rule:nonzero;stroke:#cc9826;stroke-width:0.09225114;stroke-linecap:round;stroke-linejoin:round;stroke-miterlimit:4;stroke-dasharray:none;stroke-dashoffset:0;stroke-opacity:1"
         id="circle876"
         cx="91.167023"
         cy="238.54134"
         r="1.6463193" />
      <circle
         r="1.6463193"
         cy="238.53299"
         cx="96.764366"
         id="circle878"
         style="opacity:1;fill:#28ca40;fill-opacity:1;fill-rule:nonzero;stroke:#1e9630;stroke-width:0.09225114;stroke-linecap:round;stroke-linejoin:round;stroke-miterlimit:4;stroke-dasharray:none;stroke-dashoffset:0;stroke-opacity:1" />
      <g
         style="fill:#cecece;fill-opacity:1;stroke-width:0.9079836"
         transform="translate(-1.5481326,0.93285263)"
         id="g1119">
        <path
           inkscape:connector-curvature="0"
           style="opacity:1;fill:#cecece;fill-opacity:1;stroke:none;stroke-width:2.77071786;stroke-linecap:round;stroke-linejoin:round;stroke-miterlimit:4;stroke-dasharray:none;stroke-opacity:1"
           d="m 371.91797,-71.962891 c -4.52052,0.01134 -9.02744,0.113913 -12.98828,0.121094 -2.4897,0 -3.28743,1.518429 -4.68164,4.351563 -1.39424,2.833133 -6.17383,3.035156 -6.17383,3.035156 h -6.14453 c -2.30317,0 -4.15625,1.882599 -4.15625,4.222656 v 33.039063 c 0,2.340056 1.85308,4.222656 4.15625,4.222656 h 55.02343 c 2.30317,0 4.15821,-1.8826 4.15821,-4.222656 v -33.039063 c 0,-2.340057 -1.85504,-4.222656 -4.15821,-4.222656 h -6.14257 c 0,0 -4.78155,-0.201985 -6.17578,-3.035156 -1.39423,-2.833134 -2.19,-4.351563 -4.67969,-4.351563 -2.60772,-0.100913 -5.3248,-0.127519 -8.03711,-0.121094 z m 12.37891,11.908203 a 1.5761018,1.6013633 0 0 1 1.57617,1.601563 1.5761018,1.6013633 0 0 1 -1.57617,1.601563 1.5761018,1.6013633 0 0 1 -1.57618,-1.601563 1.5761018,1.6013633 0 0 1 1.57618,-1.601563 z m -14.85547,1.78125 a 14.578941,14.81261 0 0 1 14.58007,14.8125 14.578941,14.81261 0 0 1 -14.58007,14.8125 14.578941,14.81261 0 0 1 -14.57813,-14.8125 14.578941,14.81261 0 0 1 14.57813,-14.8125 z"
           id="path1111"
           transform="matrix(0.26458333,0,0,0.26458333,0,263.13332)" />
        <ellipse
           cy="251.6344"
           cx="97.748199"
           id="circle4599"
           style="opacity:1;fill:#cecece;fill-opacity:1;stroke:none;stroke-width:0.63007176;stroke-linecap:round;stroke-linejoin:round;stroke-miterlimit:4;stroke-dasharray:none;stroke-opacity:1"
           rx="3.0233243"
           ry="3.0717816" />
        <rect
           style="opacity:1;fill:#cecece;fill-opacity:1;stroke:none;stroke-width:0.73308581;stroke-linecap:round;stroke-linejoin:round;stroke-miterlimit:4;stroke-dasharray:none;stroke-opacity:1"
           id="rect4614"
           width="1.6395926"
           height="0.70042336"
           x="90.714912"
           y="244.94037"
           ry="0.19876878" />
      </g>
    </g>
  </g>
</svg>
