<?xml version="1.0" encoding="UTF-8" standalone="no"?>
<!-- Created with Inkscape (http://www.inkscape.org/) -->

<svg
   xmlns:dc="http://purl.org/dc/elements/1.1/"
   xmlns:cc="http://creativecommons.org/ns#"
   xmlns:rdf="http://www.w3.org/1999/02/22-rdf-syntax-ns#"
   xmlns:svg="http://www.w3.org/2000/svg"
   xmlns="http://www.w3.org/2000/svg"
   xmlns:sodipodi="http://sodipodi.sourceforge.net/DTD/sodipodi-0.dtd"
   xmlns:inkscape="http://www.inkscape.org/namespaces/inkscape"
   width="128"
   height="128"
   viewBox="0 0 33.866666 33.866668"
   version="1.1"
   id="svg8"
   sodipodi:docname="firefox 4.svg"
   inkscape:version="0.92.2 5c3e80d, 2017-08-06">
  <defs
     id="defs2" />
  <sodipodi:namedview
     id="base"
     pagecolor="#ffffff"
     bordercolor="#666666"
     borderopacity="1.0"
     inkscape:pageopacity="0.0"
     inkscape:pageshadow="2"
     inkscape:zoom="1.6898438"
     inkscape:cx="33.286893"
     inkscape:cy="1.3529653"
     inkscape:document-units="mm"
     inkscape:current-layer="layer1"
     showgrid="false"
     inkscape:window-width="1600"
     inkscape:window-height="803"
     inkscape:window-x="0"
     inkscape:window-y="0"
     inkscape:window-maximized="1"
     units="px" />
  <metadata
     id="metadata5">
    <rdf:RDF>
      <cc:Work
         rdf:about="">
        <dc:format>image/svg+xml</dc:format>
        <dc:type
           rdf:resource="http://purl.org/dc/dcmitype/StillImage" />
        <dc:title />
      </cc:Work>
    </rdf:RDF>
  </metadata>
  <g
     inkscape:label="Layer 1"
     inkscape:groupmode="layer"
     id="layer1"
     transform="translate(0,-263.13332)">
    <circle
       r="15.61475"
       cy="280.3269"
       cx="16.933332"
       id="circle2920"
       style="opacity:0.25;fill:#000000;fill-rule:evenodd;stroke:none;stroke-width:0.44613567" />
    <circle
       style="fill:#1a1a1a;fill-rule:evenodd;stroke:none;stroke-width:0.44613567;fill-opacity:1"
       id="Oval-2"
       cx="16.933332"
       cy="279.8064"
       r="15.61475" />
    <g
       id="g3683"
       transform="matrix(0.31210372,0,0,0.31210372,58.479282,191.73429)">
      <path
         id="path3478"
         d="m -129.33885,250.94884 c -0.0857,-0.0762 -0.19359,-0.0965 -0.29885,-0.12103 0.10526,0.0246 0.21319,0.0448 0.29898,0.12103 z"
         inkscape:connector-curvature="0"
         style="fill:none;stroke:none;stroke-width:0.06489665" />
      <path
         id="path3480"
         d="m -112.86003,305.29804 -7e-5,1.3e-4 c -0.16789,-0.0248 -0.33396,-0.0165 -0.50061,0.007 0.16672,-0.0239 0.33279,-0.0322 0.50068,-0.008 z"
         inkscape:connector-curvature="0"
         style="fill:none;stroke:none;stroke-width:0.06489665" />
      <path
         id="path3482"
         d="m -98.464723,281.7401 c 0.101758,0.46089 0.202607,0.92205 0.303132,1.38321 0.0133,-0.88675 0.006,-1.77382 -0.0026,-2.6609 -0.0042,-0.4287 -0.0085,-0.85741 -0.0109,-1.28612 -6.49e-4,-0.0753 -0.01337,-0.15056 -0.02044,-0.2259 -0.0053,-0.0386 -0.01058,-0.0771 -0.0159,-0.11565 -0.01285,-0.16393 -0.02563,-0.32779 -0.03842,-0.49172 -0.02868,-0.20546 -0.0573,-0.41093 -0.08599,-0.61639 -7.14e-4,-0.003 -0.0014,-0.007 -0.0021,-0.0104 -0.01408,-0.0698 -0.02817,-0.13953 -0.04225,-0.20929 -0.03115,-0.23103 -0.06236,-0.462 -0.09352,-0.69303 -0.01363,-0.0782 -0.02732,-0.15647 -0.04095,-0.23467 -0.01129,-0.0739 -0.02265,-0.14777 -0.03394,-0.22168 -0.01733,-0.0875 -0.03466,-0.1749 -0.05198,-0.26238 -0.0073,-0.0393 -0.0146,-0.0785 -0.02187,-0.11772 -0.0086,-0.05 -0.01733,-0.10014 -0.02602,-0.15024 -0.0045,-0.0491 -0.009,-0.0983 -0.0135,-0.14751 -0.0045,-0.086 -0.01012,-0.17191 -0.01668,-0.2577 -0.04802,-0.62165 -0.152378,-1.23648 -0.331882,-1.83061 -0.300277,-0.99376 -0.608665,-1.98525 -0.927892,-2.97317 -0.183265,-0.56701 -0.370045,-1.13284 -0.561035,-1.69718 -0.16412,-0.48484 -0.45414,-0.92699 -0.68654,-1.38872 v 0 c -0.0309,-0.0522 -0.0618,-0.10442 -0.0927,-0.1566 -0.0254,-0.0508 -0.0508,-0.10156 -0.0763,-0.15238 l -0.005,0.004 c 0.003,-0.002 0.005,-0.004 0.005,-0.004 -0.0254,-0.0506 -0.0507,-0.10124 -0.076,-0.15186 -0.0216,-0.0433 -0.0432,-0.0866 -0.0648,-0.12985 -0.63501,0.21104 -1.26983,0.42254 -1.9038,0.6367 -0.48063,0.1623 -0.95801,0.33421 -1.43824,0.49775 -0.0746,0.0254 -0.1603,0.0792 -0.23759,0.004 0.0257,-0.0797 0.0785,-0.10299 0.1272,-0.12882 0.41813,-0.22201 0.8371,-0.44233 1.25497,-0.6648 0.62976,-0.33532 1.25938,-0.67096 1.88817,-1.0081 -0.003,-0.007 -0.007,-0.0135 -0.0101,-0.0202 0,2.5e-4 0,5.1e-4 0,7.1e-4 -0.003,-0.005 -0.005,-0.0105 -0.008,-0.0158 -0.0254,-0.0508 -0.0507,-0.10143 -0.0761,-0.15212 -0.0253,-0.0507 -0.0507,-0.10143 -0.076,-0.15212 -0.0253,-0.0507 -0.0506,-0.10149 -0.0759,-0.15224 -0.0254,-0.0508 -0.0507,-0.10144 -0.0761,-0.15219 -0.0254,-0.0507 -0.0507,-0.10137 -0.0761,-0.15211 v -9.1e-4 c -0.0254,-0.0497 -0.0506,-0.0994 -0.076,-0.1492 l -6.5e-4,-0.001 c 0,-1.9e-4 0,-3.9e-4 0,-3.9e-4 v -1.9e-4 c -0.0202,-0.0295 -0.0404,-0.0589 -0.0606,-0.0883 -0.25855,-0.65967 -0.60393,-1.27009 -0.99292,-1.8563 -0.0992,-0.14946 -0.20105,-0.29742 -0.30521,-0.44409 -0.47472,-0.66876 -0.93996,-1.34433 -1.41559,-2.01244 -0.12142,-0.17055 -0.2664,-0.32429 -0.40054,-0.48576 l 0.006,0.004 c -0.009,-0.0272 -0.019,-0.0546 -0.0286,-0.082 -0.42696,-0.53118 -0.84126,-1.07294 -1.28573,-1.58887 -0.17691,-0.20533 -0.3862,-0.3823 -0.5881,-0.56628 -0.48529,0.23044 -0.97033,0.46141 -1.45608,0.69101 -0.86728,0.40989 -1.73469,0.81971 -2.60333,1.22675 -0.0806,0.0378 -0.16899,0.0705 -0.25654,0.0801 -0.68362,0.0744 -1.3677,0.14433 -2.05203,0.21215 -0.77402,0.0768 -1.54856,0.1488 -2.32265,0.22506 -0.85248,0.084 -1.70737,0.15108 -2.55576,0.26588 -0.31793,0.043 -0.53501,-0.0561 -0.76435,-0.2407 -0.79999,-0.64378 -1.60873,-1.27671 -2.41403,-1.91387 -0.26647,-0.21085 -0.54948,-0.39308 -0.8578,-0.53942 -0.70355,-0.33396 -1.40262,-0.67733 -2.10415,-1.0155 -0.13206,-0.0637 -0.26854,-0.11818 -0.40067,-0.18165 -0.78337,-0.37633 -1.56648,-0.75325 -2.34829,-1.13277 -0.0648,-0.0315 -0.15815,-0.0503 -0.14043,-0.17782 0.12849,-0.0564 0.2701,-0.0788 0.41579,-0.0946 0.52677,-0.0574 1.05288,-0.12051 1.57939,-0.18002 0.68343,-0.0773 1.36698,-0.15316 2.05048,-0.22967 0.62748,-0.0702 1.25529,-0.13764 1.88226,-0.21208 0.23895,-0.0284 0.27146,-0.0992 0.16101,-0.31034 -0.0261,-0.0498 -0.059,-0.0962 -0.0892,-0.14381 -0.3265,-0.51469 -0.66876,-1.02024 -0.97345,-1.54752 -0.17191,-0.29755 -0.39321,-0.45947 -0.72652,-0.54183 -1.33687,-0.33032 -2.66706,-0.68777 -4.00205,-1.02575 -0.50294,-0.12733 -1.00025,-0.27997 -1.51436,-0.36102 -0.0975,0.14043 -0.22188,0.25498 -0.35213,0.36355 -0.5195,0.43292 -1.04042,0.86423 -1.55836,1.29904 -0.16685,0.14011 -0.34648,0.24939 -0.56123,0.2993 -0.59335,0.13784 -1.18702,0.27432 -1.77862,0.4193 -1.31448,0.32214 -2.64175,0.59198 -3.94234,0.9713 -1.88421,0.54955 -3.77069,1.09157 -5.65574,1.63825 -0.18743,0.0544 -0.37037,0.077 -0.56525,0.0268 -0.72114,-0.18561 -1.44467,-0.36187 -2.16638,-0.5452 -0.0798,-0.0203 -0.1823,-0.0173 -0.21624,-0.12635 0.081,-0.0987 0.19917,-0.10858 0.30294,-0.14252 0.78265,-0.25627 1.56751,-0.50587 2.34984,-0.76299 2.13296,-0.70107 4.26345,-1.40981 6.39868,-2.10388 0.48199,-0.15666 0.958,-0.3448 1.45953,-0.43027 1.54518,-0.26315 3.09349,-0.50827 4.63829,-0.77389 0.0966,-0.0166 0.19404,-0.0293 0.29177,-0.0417 0.29301,-0.0373 0.58732,-0.0724 0.85982,-0.20501 -0.0857,-0.0762 -0.19359,-0.0965 -0.29885,-0.12103 -0.0151,-0.004 -0.03,-0.007 -0.0449,-0.011 -0.73145,-0.19002 -1.46394,-0.37608 -2.19519,-0.56707 -0.0883,-0.023 -0.19489,-0.0205 -0.25959,-0.10493 0.0517,-0.0674 0.10935,-0.0715 0.16335,-0.0841 0.54928,-0.12759 1.09844,-0.25569 1.64785,-0.38283 1.1318,-0.26192 2.26412,-0.52138 3.3954,-0.78544 1.03231,-0.24096 2.06351,-0.4866 3.09524,-0.73015 -0.0691,-0.0876 -0.14193,-0.17152 -0.21727,-0.25297 -0.50016,-0.14874 -1.00058,-0.2969 -1.50074,-0.44584 -0.0794,-0.0324 -0.15607,-0.0818 -0.23849,-0.0947 -1.67382,-0.2616 -3.33167,-0.63028 -5.02411,-0.76514 -0.27977,-0.0222 -0.55967,-0.0448 -0.83963,-0.0636 -0.12973,0.0635 -0.25959,0.12654 -0.3899,0.18872 -0.22714,0.10844 -0.33986,0.26101 -0.39879,0.50041 -0.16458,0.6685 -0.35433,1.33084 -0.52488,1.99791 -0.0446,0.17464 -0.137,0.26472 -0.3106,0.31079 -0.53455,0.14187 -1.0658,0.29638 -1.59795,0.44733 -1.74844,0.49614 -3.49968,0.9828 -5.2443,1.49198 -2.08052,0.60724 -4.15695,1.22888 -6.23144,1.85656 -0.44104,0.13343 -0.90141,0.21598 -1.31026,0.44818 -1.28567,0.73009 -2.57322,1.45686 -3.85889,2.18702 -1.08935,0.61865 -2.1765,1.24127 -3.26631,1.85915 -0.14011,0.0794 -0.25478,0.17821 -0.35641,0.30424 -0.72976,0.90453 -1.46517,1.80458 -2.19779,2.70677 -0.36277,0.44669 -0.7225,0.89584 -1.08533,1.34246 -0.29003,0.35699 -0.29814,0.38633 0.007,0.7404 0.19852,0.23064 0.41339,0.44876 0.6356,0.65689 0.15523,0.14536 0.17314,0.2906 0.10597,0.48438 -0.22577,0.65072 -0.44558,1.30371 -0.65279,1.96047 -0.0725,0.22973 -0.2006,0.3886 -0.40106,0.51859 -0.89986,0.58355 -1.79751,1.17086 -2.68594,1.77168 -0.24097,0.16295 -0.46272,0.18326 -0.731,0.0912 -0.59789,-0.20507 -1.20526,-0.38244 -1.80354,-0.58628 -0.22747,-0.0775 -0.39432,-0.0525 -0.582,0.11364 -0.40313,0.35686 -0.81231,0.70685 -1.22129,1.05716 -0.154,0.27692 -0.3224,0.5561 -0.39184,0.85528 -0.41813,1.79978 -0.81731,3.60416 -1.10727,5.43074 -0.0599,0.37744 -0.12051,0.75475 -0.18164,1.132 -0.15744,0.9713 -0.31943,1.9419 -0.48959,2.91093 -0.11012,0.62691 -0.17093,1.25374 -0.14121,1.8885 0.0112,0.23947 0.0593,0.47796 0.0602,0.71698 0.004,1.2658 0.0605,2.52804 0.13583,3.79217 0.056,0.94152 0.22908,1.85656 0.38419,2.77796 0.19962,1.18534 0.40631,2.37022 0.6474,3.54758 0.14901,0.72781 0.19067,1.48399 0.51782,2.17047 0.0817,0.17145 0.15315,0.34778 0.22973,0.52164 0.16484,0.37445 0.32935,0.7491 0.49386,1.12368 0.25738,0.0226 0.51457,0.0469 0.77175,0.0715 0.7408,0.0709 1.48185,0.13959 2.22213,0.21572 0.25745,0.0265 0.31079,0.0855 0.34129,0.33188 0.0914,0.73878 0.18697,1.47711 0.26627,2.21719 0.0198,0.18464 0.089,0.31028 0.23194,0.42475 0.71354,0.57135 1.42552,1.14484 2.12641,1.73151 0.20079,0.16808 0.41566,0.26225 0.66856,0.29236 0.0895,0.0106 0.17808,0.0296 0.26679,0.0463 1.1538,0.21663 2.30773,0.43221 3.46114,0.65065 1.04256,0.19749 2.0848,0.39652 3.12652,0.59835 0.37238,0.0722 0.39353,0.12123 0.22149,0.47109 -0.16951,0.34453 -0.34726,0.68505 -0.51203,1.03172 -0.0939,0.19768 -0.0576,0.24389 0.1625,0.20371 1.0438,-0.19034 2.08727,-0.38269 3.12932,-0.58257 0.28483,-0.0547 0.31507,-0.11623 0.33214,-0.41852 0.0161,-0.28431 -0.0482,-0.56188 -0.0578,-0.84307 -0.0214,-0.63106 -0.0364,-1.26263 -0.0557,-1.89343 -0.0273,-0.89051 -0.1002,-1.78057 -0.0845,-2.67166 0.009,-0.50964 -0.0772,-1.01207 -0.0721,-1.5206 0.002,-0.23291 -0.0346,-0.24888 -0.27945,-0.29229 -0.29054,-0.0515 -0.58303,-0.0531 -0.87669,-0.0605 -0.48432,-0.0121 -0.97163,0.0364 -1.45232,-0.0624 -0.21325,-0.0439 -0.22876,-0.0825 -0.0838,-0.25511 0.73274,-0.87279 1.46848,-1.74306 2.20045,-2.6165 0.39781,-0.47472 0.83054,-0.92504 1.05853,-1.51949 0.0726,-0.18937 0.16152,-0.37283 0.2481,-0.55656 0.42831,-0.90874 0.87266,-1.81035 1.27937,-2.72864 0.12758,-0.28808 0.31364,-0.48458 0.56213,-0.64955 0.23512,-0.15608 0.4657,-0.31903 0.69797,-0.47933 0.93853,-0.64754 1.8781,-1.29358 2.81411,-1.94469 0.13752,-0.0957 0.24609,-0.0825 0.35946,0.0294 0.13654,0.13485 0.27432,0.26867 0.41573,0.3984 0.73139,0.6709 1.47491,1.32921 2.19104,2.01601 0.28074,0.26919 0.56973,0.45908 0.96209,0.50613 0.23629,0.0283 0.48011,0.0643 0.71049,0.16101 -0.0461,0.0896 -0.10474,0.0924 -0.15899,0.10182 -1.55675,0.27088 -3.11271,0.5463 -4.67088,0.80868 -0.41001,0.0691 -0.81705,0.18911 -1.24056,0.14297 -0.42605,-0.0465 -0.85216,-0.0936 -1.27704,-0.14972 -0.46414,-0.0613 -0.47017,-0.0589 -0.38185,0.39821 0.24408,1.26347 0.48608,2.5274 0.73405,3.79009 0.0336,0.17126 0.0317,0.3311 -0.0199,0.49886 -0.40807,1.32727 -0.80959,2.65654 -1.21805,3.98368 -0.0654,0.21241 -0.0775,0.41729 -0.0153,0.63164 0.0975,0.3361 0.18281,0.67564 0.27905,1.01213 0.0294,0.1026 0.0415,0.22123 0.14686,0.28425 0.12558,-0.0679 0.14751,-0.18476 0.18963,-0.28607 0.40716,-0.97994 0.8201,-1.95767 1.21299,-2.94332 0.1037,-0.26024 0.25491,-0.38776 0.53092,-0.44344 0.97364,-0.19644 1.94235,-0.41754 2.91295,-0.62937 0.18878,-0.0412 0.36335,-0.10941 0.52929,-0.21494 0.79057,-0.50301 1.58244,-1.00408 2.38178,-1.49294 0.43253,-0.26459 0.84183,-0.5709 1.31779,-0.76137 3.29149,-1.31727 6.58934,-2.61858 9.8674,-3.96921 1.24199,-0.51171 2.49515,-0.99636 3.72027,-1.54902 1.48152,-0.66837 2.96895,-1.32376 4.44827,-1.997 0.35869,-0.16328 0.73301,-0.29677 1.06768,-0.51164 1.24453,-0.79901 2.48989,-1.59672 3.73377,-2.3967 0.21993,-0.14141 0.45174,-0.25349 0.70017,-0.33571 1.00778,-0.33344 2.01407,-0.67136 3.02191,-1.00454 0.10228,-0.0338 0.20215,-0.10169 0.32124,-0.0634 0.009,0.11045 -0.0806,0.13447 -0.14037,0.17626 -0.76793,0.53689 -1.53689,1.07229 -2.30643,1.60691 -1.35361,0.94041 -2.70736,1.88057 -4.06208,2.81943 -0.21318,0.14777 -0.4252,0.29651 -0.66415,0.40463 -1.19286,0.53962 -2.38482,1.08118 -3.57477,1.62715 -1.25159,0.57428 -2.49884,1.15796 -3.75089,1.73112 -1.96008,0.89733 -3.92274,1.78914 -5.88366,2.68465 -0.0441,0.0202 -0.11072,0.0349 -0.0792,0.1368 0.11649,-0.035 0.2337,-0.0665 0.34837,-0.10526 1.27288,-0.4304 2.54356,-0.86735 3.81871,-1.2908 0.6112,-0.20293 1.21558,-0.42377 1.81406,-0.6598 2.96195,-1.16801 5.92033,-2.34504 8.88344,-3.5102 0.70303,-0.27646 1.38568,-0.60886 2.12368,-0.7931 3.26476,-0.81517 6.52841,-1.63468 9.79498,-2.44245 0.29359,-0.0726 0.50678,-0.20676 0.67791,-0.45376 0.26342,-0.38029 0.55084,-0.74391 0.82867,-1.11421 0.76584,-1.02043 1.53045,-2.04178 2.299026,-3.06007 0.187681,-0.24868 0.226814,-0.24206 0.345056,0.0355 0.256666,0.60237 0.508465,1.20675 0.765521,1.80893 0.1503,0.3531 0.328052,0.69777 0.411055,1.07404 z m -62.537007,-8.69317 c -0.32987,0.19437 -0.64851,0.40762 -0.97377,0.60984 -0.35395,0.22006 -0.71614,0.42754 -1.06379,0.65701 -0.37712,0.24888 -0.69031,0.57732 -1.01732,0.88493 -0.48413,0.45545 -0.94444,0.93607 -1.41832,1.40248 -0.0702,0.0692 -0.12687,0.1858 -0.32695,0.13369 1.58971,-2.08837 3.18714,-4.1175 4.82805,-6.18491 0.0948,0.21967 0.0599,0.38094 0.0841,0.53403 0.081,0.51204 0.0334,1.03394 0.10935,1.5474 0.0275,0.18567 -0.0539,0.31683 -0.22136,0.41553 z m 25.39562,13.42037 c 0.032,-0.12168 0.13135,-0.13797 0.20754,-0.17464 0.26419,-0.12713 0.53533,-0.23992 0.79771,-0.37049 1.39398,-0.69362 2.80171,-1.35848 4.20283,-2.03711 1.40112,-0.67869 2.80042,-1.36107 4.20511,-2.0325 1.55733,-0.74442 3.10673,-1.50547 4.65971,-2.25898 0.3189,-0.15472 0.33597,-0.15413 0.5866,0.095 0.52034,0.51709 1.03828,1.03666 1.55616,1.55622 0.0554,0.0556 0.11116,0.11363 0.15341,0.17918 0.0525,0.0814 0.0315,0.15419 -0.0652,0.1858 -0.0528,0.0172 -0.11071,0.0184 -0.16633,0.0266 -0.80303,0.11792 -1.606,0.23662 -2.40922,0.35343 -1.52825,0.22227 -3.05644,0.44467 -4.58514,0.66402 -0.3169,0.0455 -0.60251,0.14401 -0.87468,0.3276 -1.64656,1.11084 -3.30383,2.2059 -4.95311,3.31272 -0.22519,0.15114 -0.45395,0.22499 -0.72678,0.2209 -0.75598,-0.0113 -1.51228,-0.003 -2.26839,-0.005 -0.10669,-3.9e-4 -0.22156,0.026 -0.3202,-0.0426 z m 4.96757,-5.64114 c -0.25621,0.1405 -0.51339,0.2797 -0.77473,0.41028 -0.0829,0.0414 -0.16536,0.0837 -0.24758,0.12654 -0.57531,0.29989 -1.13621,0.62768 -1.7308,0.89 l -6e-5,-1.3e-4 c -0.0504,0.0408 -0.0883,0.11032 -0.17925,0.0829 -0.006,-0.002 -0.0123,-0.004 -0.0189,-0.007 0.0317,-0.0859 0.11025,-0.0852 0.1745,-0.10526 0.0381,-0.11519 0.13603,-0.1749 0.225,-0.24317 0.31209,-0.23953 0.64325,-0.45843 0.93172,-0.72366 0.52021,-0.47829 1.18417,-0.47154 1.82652,-0.64021 -0.0294,0.15887 -0.13324,0.16938 -0.20638,0.20949 z m -24.08366,17.36154 c 0.50249,-1.45271 1.00921,-2.91762 1.52786,-4.41693 0.12363,0.0951 0.12499,0.18937 0.13791,0.27639 0.12784,0.85722 0.25056,1.71522 0.3836,2.57166 0.0285,0.18392 -0.0382,0.29879 -0.18113,0.39892 -0.54422,0.38134 -1.08442,0.76838 -1.62871,1.14952 -0.0567,0.0396 -0.11649,0.12168 -0.23953,0.0204 z m -1.19942,-28.42622 c -0.33837,0.32902 -0.69342,0.64098 -1.03095,0.97085 -0.49905,0.48783 -0.98766,0.9863 -1.48399,1.47692 -0.0847,0.0837 -0.15121,0.19767 -0.31235,0.22675 -0.0242,-0.16724 0.0635,-0.26563 0.11746,-0.37193 0.50471,-0.99318 1.01187,-1.98512 1.52144,-2.97583 0.10799,-0.20994 0.22506,-0.41541 0.34428,-0.61931 0.0896,-0.15329 0.12862,-0.16095 0.24855,-0.0324 0.20702,0.22175 0.40288,0.45389 0.60581,0.67947 0.25888,0.28775 0.26465,0.37822 -0.0102,0.64553 z m 5.07602,-6.15779 c -0.19008,0.0116 -0.38146,0.002 -0.57219,0.004 -0.17652,0.002 -0.25187,-0.0826 -0.28334,-0.25926 -0.0849,-0.47667 -0.0421,-0.96287 -0.12246,-1.43908 -0.005,-0.0283 0.018,-0.0612 0.0531,-0.16951 0.37829,0.57868 0.72509,1.10012 1.06087,1.62851 0.0955,0.15037 0.0493,0.22435 -0.13596,0.23564 z m 1.69445,3.85512 c 0.27555,-0.50496 0.54306,-1.01479 0.8336,-1.51105 0.12661,-0.21624 0.21052,-0.46525 0.41715,-0.66091 0.0967,0.14569 0.0633,0.27932 0.05,0.40904 -0.0836,0.81796 -0.17698,1.63501 -0.24687,2.45407 -0.0188,0.21942 -0.0864,0.34493 -0.29716,0.43059 -0.7419,0.30164 -1.47536,0.62405 -2.21415,0.93354 -0.19384,0.0812 -0.37523,0.2039 -0.62378,0.22214 0.004,-0.17574 0.11584,-0.23155 0.19073,-0.30839 0.47238,-0.48471 1.00349,-0.90771 1.46932,-1.40014 0.16465,-0.17406 0.30696,-0.35953 0.42118,-0.56889 z m 2.57964,-10.20766 c -0.0904,0.1309 -0.19981,0.24363 -0.30923,0.35765 -0.35881,0.37387 -0.7395,0.72541 -1.07248,1.12596 -0.22078,0.26549 -0.46998,0.51287 -0.75786,0.74391 -0.0866,-0.10481 -0.0554,-0.18269 -0.0415,-0.25855 0.15004,-0.82062 0.29878,-1.64143 0.45155,-2.46147 0.0979,-0.52534 0.10163,-0.52722 0.58296,-0.32863 0.35434,0.14614 0.70725,0.29592 1.05782,0.45096 0.24187,0.10702 0.24511,0.14368 0.0887,0.37017 z m 16.81492,11.93774 c -0.0108,0.11201 -0.0367,0.2226 -0.055,0.3339 -0.0659,0.40067 -0.12531,0.80251 -0.20007,1.20156 -0.0319,0.17009 -0.10527,0.18489 -0.22098,0.0613 -0.0538,-0.0574 -0.0953,-0.12609 -0.14725,-0.18548 -0.21604,-0.24667 -0.2847,-0.25089 -0.52099,-0.0362 -0.0919,0.0835 -0.18073,0.17036 -0.27445,0.25174 -0.63832,0.55454 -1.28852,1.0961 -1.91114,1.66778 -0.2479,0.22765 -0.46797,0.2821 -0.79044,0.17671 -0.75053,-0.24531 -1.51527,-0.44688 -2.27177,-0.67454 -0.20923,-0.063 -0.37471,-0.0291 -0.51541,0.13875 -0.0652,0.0777 -0.14024,0.14693 -0.20767,0.22286 -0.29177,0.32876 -0.57933,0.66136 -0.87409,0.98746 -0.55195,0.61068 -1.11019,1.21571 -1.65973,1.82853 -0.0931,0.10384 -0.19249,0.18801 -0.31696,0.24609 -0.58284,0.27198 -1.16911,0.53683 -1.74728,0.81835 -0.58627,0.28541 -1.21428,0.49341 -1.71788,0.9349 -0.27126,0.23778 -0.5583,0.45784 -0.84067,0.68271 -0.2564,0.20417 -0.52151,0.37919 -0.85034,0.46862 -1.42662,0.38802 -2.84909,0.79141 -4.27098,1.19643 -0.88428,0.25193 -0.88168,0.25524 -1.71567,-0.0681 -0.44194,-0.17133 -0.88934,-0.32857 -1.33129,-0.49971 -0.1697,-0.0657 -0.30534,-0.0549 -0.41209,0.10559 -0.031,0.0467 -0.0736,0.0855 -0.10935,0.12908 -0.71542,0.87195 -1.43039,1.74429 -2.14613,2.61605 -0.21468,0.26147 -0.43423,0.51911 -0.64612,0.78285 -0.12895,0.16055 -0.10798,0.22032 0.085,0.28892 0.0424,0.015 0.0866,0.0256 0.13031,0.0369 0.63391,0.1636 1.26756,0.32779 1.9018,0.4901 0.43818,0.11214 0.4557,0.13453 0.15601,0.4694 -0.45869,0.51255 -0.95444,0.99045 -1.41981,1.49801 -0.66311,0.7232 -1.35816,1.41714 -2.03821,2.12491 -0.0623,0.0648 -0.11285,0.14076 -0.17275,0.20812 -0.26686,0.30002 -0.54793,0.58524 -0.83477,0.84599 -0.0948,-0.0522 -0.0875,-0.1137 -0.10293,-0.16581 -0.0779,-0.26393 -0.0494,-0.53825 -0.079,-0.80705 -0.068,-0.61594 -0.12155,-1.23343 -0.18054,-1.85034 -0.0568,-0.59451 -0.10416,-1.19007 -0.17438,-1.78297 -0.0252,-0.21247 -0.005,-0.40015 0.0985,-0.58588 0.41151,-0.73944 0.8116,-1.48529 1.23051,-2.22051 0.70958,-1.24511 1.43545,-2.48093 2.14217,-3.72766 0.15588,-0.27497 0.35609,-0.4864 0.6173,-0.65624 1.5424,-1.00271 3.08402,-2.00673 4.62259,-3.01542 1.25549,-0.82315 2.50352,-1.65778 3.76063,-2.47847 0.47225,-0.30826 0.95489,-0.60178 1.44311,-0.88428 1.84585,-1.0682 3.69904,-2.12381 5.54074,-3.19914 0.24849,-0.14511 0.44214,-0.14771 0.68596,-0.0162 1.0924,0.58907 2.19318,1.16263 3.28676,1.74962 0.25556,0.13719 0.51235,0.2126 0.80666,0.20358 0.33863,-0.0104 0.67512,-0.0542 1.01174,-0.0628 0.99169,-0.0253 1.98233,-0.0639 2.97207,-0.1307 0.21715,-0.0147 0.28555,0.0591 0.26426,0.28074 z m 19.36081,-0.3017 c -0.0108,0.20189 -0.0233,0.40638 -0.0666,0.60289 -0.0342,0.15542 -0.19489,0.21221 -0.32046,0.28327 -1.09046,0.61658 -2.18273,1.22986 -3.27482,1.84352 -0.18748,0.10539 -0.3788,0.20442 -0.59374,0.24025 -0.32273,0.0537 -0.64643,0.10189 -0.96975,0.15257 -0.81361,0.12759 -1.62806,0.25037 -2.44043,0.38549 -0.27569,0.0458 -0.28341,0.0703 -0.20125,0.33538 0.15374,0.49601 0.31099,0.99091 0.4718,1.48464 0.18054,0.55415 0.18229,0.55078 0.73268,0.41865 1.58069,-0.37945 3.16177,-0.75728 4.74343,-1.13238 0.0763,-0.0181 0.16425,-0.087 0.24427,0.004 -0.0292,0.13434 -0.1209,0.21987 -0.20436,0.31008 -0.60497,0.65422 -1.21882,1.3004 -1.81191,1.9652 -0.25557,0.28645 -0.53689,0.55078 -0.77461,0.84969 -0.17931,0.22539 -0.39444,0.35856 -0.65448,0.45045 -1.06431,0.37601 -2.1279,0.7541 -3.19097,1.13368 -1.13738,0.40619 -2.27638,0.80809 -3.4098,1.22518 -0.63943,0.23532 -1.27723,0.38724 -1.97448,0.3718 -1.56758,-0.0347 -3.13665,-0.0139 -4.70397,0.0581 -0.13453,0.006 -0.27017,0.0227 -0.40191,0.0504 -1.50222,0.31592 -3.00348,0.63657 -4.50564,0.95275 -2.62883,0.55331 -5.25806,1.10461 -7.88728,1.6561 -0.2113,0.0443 -0.41235,0.11266 -0.60406,0.2139 -0.88824,0.46894 -1.77856,0.93412 -2.66757,1.40164 -0.77909,0.40969 -1.55253,0.83067 -2.33791,1.22797 -0.59179,0.2993 -1.16054,0.64669 -1.83021,0.77973 -1.61638,0.32098 -3.22777,0.66682 -4.84123,1.00227 -0.0541,0.0113 -0.10987,0.033 -0.19118,-0.0336 0.0354,-0.0489 0.0568,-0.0885 0.0871,-0.11896 1.17067,-1.17579 2.34641,-2.34659 3.48418,-3.55464 0.12654,-0.13434 0.2784,-0.22876 0.44551,-0.30151 0.94159,-0.41022 1.88298,-0.82095 2.82508,-1.22993 1.30449,-0.56628 2.60839,-1.13393 3.91541,-1.69432 0.25797,-0.11058 0.5084,-0.23888 0.78966,-0.29781 1.87805,-0.39366 3.75408,-0.79686 5.63193,-1.19163 0.18197,-0.0382 0.34168,-0.10098 0.48595,-0.21961 0.39204,-0.32247 0.78998,-0.63787 1.18468,-0.95723 0.88591,-0.71678 1.77266,-1.43252 2.65538,-2.15327 0.13537,-0.11052 0.27373,-0.18807 0.45045,-0.21098 1.01777,-0.13213 2.03464,-0.27074 3.05202,-0.40618 0.13129,-0.0175 0.26283,-0.0307 0.37692,-0.10358 -0.0151,-0.037 -0.0174,-0.0666 -0.0319,-0.0748 -0.25498,-0.14479 -0.50898,-0.29152 -0.76805,-0.42878 -0.4496,-0.23823 -0.61009,-0.17632 -0.0378,-0.62508 1.22551,-0.96086 2.45186,-1.92075 3.6651,-2.89692 1.37121,-1.10325 2.72949,-2.22252 4.09025,-3.33868 0.16399,-0.13453 0.34479,-0.21597 0.55,-0.23966 0.63838,-0.0738 1.27736,-0.14232 1.91633,-0.21078 0.24648,-0.0264 0.49328,-0.0517 0.74053,-0.0687 0.16426,-0.0114 0.25349,0.0733 0.25667,0.24129 0.002,0.0903 0.004,0.1806 0.004,0.27088 3.2e-4,0.94852 -5.9e-4,1.89699 0.001,2.84552 2e-4,0.10539 -0.024,0.21805 0.0317,0.31708 0.0722,-0.0197 0.0905,-0.0622 0.10779,-0.10214 0.2555,-0.59043 0.50386,-1.18398 0.76805,-1.77045 0.0888,-0.19722 0.0681,-0.36134 -0.0343,-0.54299 -0.1993,-0.35388 -0.38984,-0.71308 -0.57181,-1.07618 -0.088,-0.17568 -0.0633,-0.23012 0.12227,-0.25297 0.32351,-0.0397 0.5607,-0.21377 0.78518,-0.42987 0.23551,-0.22669 0.48089,-0.44338 0.72743,-0.65825 0.17918,-0.15621 0.24284,-0.14388 0.36517,0.0642 0.11435,0.1945 0.22078,0.39367 0.32961,0.59141 0.37004,0.67226 0.74313,1.3429 1.10694,2.01854 0.0922,0.1712 0.21929,0.24414 0.40781,0.24064 0.18048,-0.003 0.362,-0.005 0.5417,0.009 0.86546,0.0692 1.73137,0.12551 2.59995,0.1294 0.15991,7.2e-4 0.31384,0.0332 0.46797,0.0685 0.0701,0.0161 0.14388,0.053 0.13998,0.12597 z"
         inkscape:connector-curvature="0"
         style="fill:#be7539;fill-opacity:1;stroke:none;stroke-width:0.06489665" />
      <path
         id="path3484"
         d="m -141.20553,316.98086 c -0.5681,-0.1159 -1.11791,-0.32266 -1.67478,-0.4923 -0.46992,-0.1431 -0.93666,-0.29476 -1.40112,-0.45259 0.5169,0.14348 1.0338,0.2869 1.5507,0.43046 0.28263,0.0785 0.56305,0.16529 0.84606,0.24239 0.30138,0.0821 0.31663,0.0753 0.49704,-0.19197 0.62509,-0.92588 1.25861,-1.84631 1.86753,-2.7827 0.2019,-0.31047 0.46421,-0.55052 0.73334,-0.78798 0.69316,-0.61165 1.3945,-1.21415 2.09317,-1.81957 0.1492,-0.12927 0.32247,-0.19456 0.52047,-0.22032 1.48692,-0.19333 2.97065,-0.41366 4.46048,-0.58005 0.60821,-0.0679 1.15782,-0.28918 1.72054,-0.48231 2.07027,-0.71082 4.13612,-1.43461 6.20347,-2.15392 0.83418,-0.29022 1.70445,-0.43572 2.56102,-0.63456 1.57154,-0.36479 3.14541,-0.71977 4.72064,-1.06807 1.0242,-0.22649 2.03886,-0.49704 3.07468,-0.67071 0.0239,-0.004 0.0477,-0.008 0.0715,-0.0112 0.16672,-0.0239 0.33279,-0.0322 0.50062,-0.007 -0.048,0.0979 -0.13421,0.14083 -0.22727,0.176 -0.0133,0.005 -0.0267,0.01 -0.0402,0.0147 -1.16814,0.41982 -2.33576,0.84113 -3.50397,1.26082 -1.68848,0.60665 -3.37475,1.21979 -5.06771,1.81379 -0.49951,0.17522 -1.017,0.30028 -1.52864,0.43942 -1.19786,0.32571 -2.39754,0.64462 -3.59521,0.97085 -0.12558,0.0342 -0.30469,0.031 -0.34259,0.17697 -0.0422,0.1627 0.15108,0.19943 0.2407,0.29107 0.14199,0.14523 0.28736,0.28736 0.43526,0.42663 0.75527,0.71113 1.51151,1.42123 2.26801,2.13107 0.26543,0.24901 0.30411,0.25576 0.60958,0.0507 0.94651,-0.63527 1.9053,-1.25367 2.83014,-1.91925 0.6173,-0.44422 1.29267,-0.72717 2.01166,-0.93542 0.28172,-0.0816 0.55708,-0.18762 0.84165,-0.2566 0.38626,-0.0937 0.69413,-0.30878 0.98902,-0.56039 1.02083,-0.87078 2.04717,-1.73501 3.0689,-2.60462 0.54092,-0.46045 1.07781,-0.92569 1.61379,-1.39191 0.0843,-0.0733 0.15426,-0.16321 0.23083,-0.24544 0.0384,-0.0716 0.0909,-0.0757 0.16867,-0.0585 0.47757,0.10546 0.93542,0.0674 1.3481,-0.22181 1.45959,-1.02265 2.91996,-2.04418 4.37546,-3.07267 0.31741,-0.22428 0.64806,-0.39593 1.03199,-0.48231 0.51975,-0.11694 1.03718,-0.24407 1.55466,-0.37127 -0.22506,0.40521 -0.4448,0.81328 -0.65442,1.22629 -0.24946,0.49146 -0.58017,0.91666 -0.93814,1.32272 -0.80245,0.9103 -1.60691,1.81944 -2.4346,2.70658 -0.59471,0.63735 -1.21986,1.24725 -1.84722,1.85299 -0.64611,0.62379 -1.30481,1.23505 -1.97059,1.83788 -0.50528,0.45745 -0.9545,0.98188 -1.54836,1.33609 -0.29788,0.17762 -0.59731,0.35252 -0.89694,0.52715 -0.17684,0.10312 -0.35375,0.20612 -0.5304,0.3095 -0.0276,0.019 -0.0552,0.0379 -0.0827,0.0568 -0.0652,0.0404 -0.13031,0.0807 -0.1954,0.12103 l -0.002,0.003 c -0.42203,0.27445 -0.8412,0.55338 -1.26659,0.82237 -0.8325,0.52651 -1.65071,1.08053 -2.59652,1.3971 -0.20338,0.0681 -0.40567,0.13933 -0.6086,0.20896 -0.0681,0.0319 -0.13615,0.0639 -0.2041,0.096 -0.0583,0.0189 -0.11662,0.0379 -0.17502,0.0567 v 0 c -0.11701,0.0692 -0.22838,0.15166 -0.35226,0.20501 -0.75053,0.32299 -1.49782,0.65506 -2.25906,0.95119 -0.34005,0.13225 -0.70296,0.20559 -1.05846,0.29807 -0.0337,0.009 -0.0674,0.0174 -0.10091,0.0266 v 0 c -0.11481,0.0489 -0.22565,0.11318 -0.34513,0.1444 -0.98045,0.25615 -1.96461,0.49789 -2.94319,0.76078 -0.67992,0.18269 -1.37769,0.22493 -2.07098,0.30463 -0.0219,0.003 -0.0439,0.005 -0.0659,0.008 -0.58985,0.07 -1.17969,0.1418 -1.77064,0.20176 -0.64111,0.0651 -1.28255,0.14297 -1.92568,0.16692 -0.49088,0.0182 -0.98435,-0.0448 -1.47698,-0.0612 -0.93594,-0.0311 -1.87324,-0.0343 -2.80763,-0.09 -0.50275,-0.03 -1.00129,-0.13979 -1.50028,-0.22273 -1.01102,-0.16821 -2.02568,-0.31877 -3.02931,-0.52352 z"
         inkscape:connector-curvature="0"
         style="fill:#5c4533;fill-opacity:1;stroke:none;stroke-width:0.06489665" />
      <path
         id="path3486"
         d="m -132.44448,247.22936 c -0.16458,0.6685 -0.35433,1.33083 -0.52488,1.99791 -0.0447,0.17463 -0.137,0.26471 -0.3106,0.31079 -0.53455,0.14186 -1.0658,0.29638 -1.59795,0.44733 -1.74844,0.49613 -3.49968,0.98279 -5.2443,1.49197 -2.08052,0.60724 -4.15695,1.22889 -6.23144,1.85657 -0.44104,0.13342 -0.90141,0.21597 -1.31026,0.44817 -1.28567,0.73009 -2.57322,1.45687 -3.85889,2.18702 -1.08935,0.61866 -2.1765,1.24128 -3.26631,1.85916 -0.14011,0.0794 -0.25478,0.17821 -0.35641,0.30423 -0.72976,0.90453 -1.46517,1.80459 -2.19779,2.70678 -0.36277,0.44668 -0.7225,0.89583 -1.08533,1.34245 -0.29003,0.357 -0.29814,0.38633 0.007,0.74041 0.19852,0.23064 0.41339,0.44876 0.6356,0.65688 0.15523,0.14537 0.17314,0.29061 0.10597,0.48439 -0.22577,0.65072 -0.44558,1.30371 -0.65279,1.96046 -0.0725,0.22974 -0.2006,0.3886 -0.40106,0.51859 -0.89986,0.58355 -1.79751,1.17087 -2.68594,1.77168 -0.24097,0.16296 -0.46272,0.18327 -0.731,0.0912 -0.59789,-0.20507 -1.20526,-0.38243 -1.80354,-0.58627 -0.22747,-0.0775 -0.39432,-0.0525 -0.582,0.11363 -0.40313,0.35687 -0.81231,0.70686 -1.22129,1.05717 0.019,-0.0341 0.0377,-0.0681 0.056,-0.10215 0.60562,-1.1266 1.24991,-2.23342 1.82308,-3.37599 0.0822,-0.1638 0.16665,-0.3261 0.25212,-0.48783 0.33208,-0.62826 0.68726,-1.24199 1.05509,-1.84877 0.14108,-0.23285 0.28392,-0.46473 0.42793,-0.69602 0.0806,-0.12927 0.15964,-0.25958 0.2383,-0.39009 0.22227,-0.36868 0.44169,-0.73924 0.68336,-1.09474 0.27659,-0.40684 0.58706,-0.79233 0.90154,-1.17145 0.76734,-0.92504 1.53812,-1.84755 2.32447,-2.75642 0.23006,-0.26588 0.51431,-0.48556 0.7785,-0.721 0.65163,-0.58083 1.31546,-1.14829 1.95664,-1.74027 0.71146,-0.65682 1.49937,-1.19942 2.33491,-1.68362 0.78882,-0.45713 1.55986,-0.94496 2.34336,-1.4115 0.34797,-0.20721 0.70458,-0.40035 1.06197,-0.59108 0.87162,-0.46518 1.74098,-0.93503 2.62156,-1.38262 0.37114,-0.18866 0.76221,-0.34337 1.1549,-0.48355 1.15737,-0.41306 2.31448,-0.82847 3.48333,-1.20701 0.50321,-0.16295 1.03387,-0.24375 1.5544,-0.35051 1.01654,-0.20851 2.03328,-0.41644 3.053,-0.6086 0.33409,-0.063 0.67707,-0.0818 1.01687,-0.11097 0.9824,-0.0845 1.96533,-0.16211 2.9478,-0.24602 0.67934,-0.058 1.35673,-0.035 2.03321,0.0104 -0.12973,0.0635 -0.25959,0.12655 -0.3899,0.18872 -0.22727,0.10851 -0.33999,0.26108 -0.39892,0.50055 z"
         inkscape:connector-curvature="0"
         style="fill:#5c4533;fill-opacity:1;stroke:none;stroke-width:0.06489665" />
      <path
         id="path3488"
         d="m -105.10183,301.30131 c 0.51975,-0.11694 1.03718,-0.24407 1.55466,-0.37127 0.0794,-0.14297 0.15939,-0.28561 0.23999,-0.428 0.10273,-0.18151 0.20624,-0.36264 0.31014,-0.54344 0.36602,-0.63716 0.71996,-1.27937 1.04075,-1.9382 0.23791,-0.48861 0.45771,-0.98624 0.6502,-1.49801 0.28853,-0.76689 0.61781,-1.51832 0.92549,-2.27813 0.0108,-0.0265 0.0217,-0.053 0.0324,-0.0796 0.15582,-0.38731 0.32896,-0.77156 0.440196,-1.17223 0.05399,-0.19456 0.106819,-0.38938 0.160165,-0.58407 0.153869,-0.56201 0.305598,-1.12466 0.45486,-1.68796 0.168667,-0.63644 0.334932,-1.27347 0.499185,-1.91095 0.05172,-0.20072 0.08307,-0.40671 0.111752,-0.61334 0.01986,-0.14309 0.03848,-0.28645 0.06146,-0.4287 0.04517,-0.38874 0.09034,-0.77753 0.135505,-1.16633 0.0049,-0.042 0.0098,-0.0842 0.01467,-0.12622 0.04244,-0.33675 0.09378,-0.67266 0.125575,-1.01044 0.0686,-0.72879 0.168018,-1.45784 0.181062,-2.18806 9.08e-4,-0.051 0.0015,-0.10195 0.0022,-0.15296 -0.100525,-0.46122 -0.201374,-0.92231 -0.303132,-1.38321 -0.083,-0.3762 -0.26082,-0.72093 -0.411445,-1.07391 -0.25699,-0.60217 -0.508854,-1.20655 -0.765521,-1.80893 -0.118306,-0.27756 -0.157374,-0.28418 -0.345055,-0.0355 -0.768637,1.01835 -1.533247,2.03963 -2.299027,3.06007 -0.27789,0.37023 -0.56525,0.73391 -0.82867,1.11421 -0.17113,0.24706 -0.38432,0.3812 -0.67791,0.45376 -3.26657,0.80776 -6.53022,1.62728 -9.79498,2.44245 -0.738,0.18424 -1.42065,0.51664 -2.12368,0.7931 -2.96311,1.16515 -5.92149,2.34218 -8.88344,3.51019 -0.59854,0.23603 -1.20286,0.45688 -1.81406,0.65981 -1.27515,0.42345 -2.54583,0.8604 -3.81871,1.29079 -0.11467,0.0387 -0.23181,0.0703 -0.34837,0.10526 -0.0315,-0.10188 0.0351,-0.11668 0.0792,-0.1368 1.96092,-0.89557 3.92352,-1.78732 5.88366,-2.68464 1.25205,-0.57323 2.49936,-1.15685 3.7509,-1.73112 1.18994,-0.54598 2.3819,-1.08754 3.57476,-1.62715 0.23895,-0.10812 0.45097,-0.25687 0.66415,-0.40464 1.35466,-0.93885 2.70847,-1.87901 4.06208,-2.81943 0.76948,-0.53462 1.53851,-1.07002 2.30643,-1.60691 0.0598,-0.0418 0.14894,-0.0657 0.14037,-0.17626 -0.11909,-0.0383 -0.21896,0.0296 -0.32124,0.0634 -1.00784,0.33318 -2.01413,0.67109 -3.02191,1.00453 -0.24843,0.0822 -0.48024,0.19424 -0.70017,0.33571 -1.24388,0.79999 -2.48924,1.59769 -3.73377,2.3967 -0.33467,0.21488 -0.70899,0.34837 -1.06768,0.51165 -1.47931,0.67324 -2.96675,1.32863 -4.44827,1.997 -1.22512,0.55272 -2.47827,1.03731 -3.72027,1.54902 -3.27806,1.35062 -6.57591,2.652 -9.8674,3.9692 -0.47595,0.19048 -0.88526,0.49679 -1.31779,0.76137 -0.79927,0.48887 -1.5912,0.98994 -2.38178,1.49295 -0.16594,0.10559 -0.34051,0.17373 -0.52929,0.21494 -0.9706,0.21182 -1.93931,0.43292 -2.91295,0.62936 -0.27601,0.0557 -0.42722,0.18321 -0.53092,0.44344 -0.39289,0.98572 -0.80583,1.96339 -1.21299,2.94333 -0.0421,0.1013 -0.064,0.21824 -0.18962,0.28606 -0.10546,-0.063 -0.11753,-0.18164 -0.14687,-0.28425 -0.0963,-0.33642 -0.18158,-0.67602 -0.27905,-1.01212 -0.0622,-0.21436 -0.05,-0.41917 0.0153,-0.63164 0.40846,-1.32714 0.80998,-2.65642 1.21805,-3.98368 0.0516,-0.16776 0.0535,-0.3276 0.0199,-0.49887 -0.24797,-1.26269 -0.49004,-2.52662 -0.73405,-3.79009 -0.0883,-0.45707 -0.0823,-0.45953 0.38185,-0.39821 0.42488,0.0561 0.85099,0.10326 1.27704,0.14972 0.42352,0.0461 0.83055,-0.0739 1.24056,-0.14297 1.55817,-0.26237 3.11413,-0.53779 4.67088,-0.80867 0.0542,-0.009 0.11292,-0.0123 0.15899,-0.10183 -0.23038,-0.0968 -0.4742,-0.13271 -0.71049,-0.161 -0.39236,-0.047 -0.68135,-0.23688 -0.96209,-0.50613 -0.71613,-0.6868 -1.45965,-1.34505 -2.19104,-2.01602 -0.14141,-0.12973 -0.27912,-0.26354 -0.41573,-0.3984 -0.11331,-0.11188 -0.22194,-0.12505 -0.35946,-0.0294 -0.93607,0.65105 -1.87564,1.29709 -2.81411,1.9447 -0.23233,0.16029 -0.46285,0.32325 -0.69797,0.47932 -0.24849,0.16497 -0.43461,0.36154 -0.56213,0.64955 -0.40671,0.91829 -0.85106,1.8199 -1.27937,2.72865 -0.0866,0.18372 -0.17548,0.36712 -0.2481,0.55655 -0.22799,0.59452 -0.66078,1.04484 -1.05853,1.51949 -0.73197,0.87345 -1.46771,1.74377 -2.20045,2.61651 -0.14492,0.17262 -0.12947,0.21123 0.0838,0.2551 0.48076,0.0988 0.96807,0.0503 1.45232,0.0624 0.29366,0.007 0.58615,0.009 0.87669,0.0606 0.24492,0.0434 0.28178,0.0594 0.27945,0.2923 -0.005,0.50853 0.0811,1.01096 0.0721,1.52059 -0.0157,0.8911 0.0572,1.78115 0.0845,2.67167 0.0193,0.63079 0.0343,1.26237 0.0558,1.89342 0.01,0.2812 0.0738,0.55876 0.0578,0.84307 -0.0171,0.30229 -0.0473,0.36388 -0.33214,0.41852 -1.04205,0.19988 -2.08552,0.39224 -3.12932,0.58258 -0.22013,0.0402 -0.25641,-0.006 -0.1625,-0.20371 0.16477,-0.34674 0.34252,-0.68726 0.51203,-1.03173 0.17211,-0.34986 0.15095,-0.39898 -0.22149,-0.47108 -1.04172,-0.20183 -2.08396,-0.40087 -3.12652,-0.59835 -1.15341,-0.21844 -2.3074,-0.43409 -3.46114,-0.65065 -0.0887,-0.0167 -0.17729,-0.0356 -0.26679,-0.0463 -0.2529,-0.0301 -0.46771,-0.12427 -0.66856,-0.29236 -0.70089,-0.58666 -1.41293,-1.16015 -2.12641,-1.7315 -0.1429,-0.11448 -0.21214,-0.24012 -0.23194,-0.42475 -0.0793,-0.74008 -0.17483,-1.47841 -0.26627,-2.2172 -0.0305,-0.24641 -0.0838,-0.3054 -0.34129,-0.33188 -0.74028,-0.0761 -1.48133,-0.14485 -2.22213,-0.21571 -0.25718,-0.0246 -0.51443,-0.0489 -0.77175,-0.0715 0.35492,0.80802 0.70997,1.61592 1.06898,2.42213 0.19067,0.42793 0.39373,0.85073 0.6049,1.26899 0.3424,0.67824 0.6491,1.38081 1.05587,2.01894 0.65312,1.02465 1.37263,2.00719 2.07072,3.00283 0.0303,0.0432 0.0609,0.0864 0.0916,0.12953 0.43065,0.43806 0.86202,0.87552 1.33161,1.27399 0.18833,0.15984 0.37199,0.33565 0.51723,0.53384 0.20689,0.28243 0.41164,0.56629 0.61587,0.85067 0.26802,0.27451 0.53643,0.5485 0.80588,0.82159 0.33721,0.34174 0.69589,0.66454 1.06373,0.97332 0.47484,0.39859 0.96559,0.77856 1.4553,1.15912 0.65955,0.51248 1.30553,1.04548 1.99188,1.51949 0.91699,0.63319 1.86448,1.22252 2.80489,1.82113 0.27698,0.17625 0.56233,0.34966 0.86449,0.47426 1.64318,0.67765 3.2937,1.33629 4.97628,1.90816 0.5169,0.14348 1.0338,0.2869 1.5507,0.43046 0.28263,0.0785 0.56305,0.16529 0.84606,0.24239 0.30138,0.0821 0.31663,0.0753 0.49704,-0.19197 0.62509,-0.92588 1.25861,-1.84631 1.86753,-2.7827 0.2019,-0.31047 0.46421,-0.55052 0.73334,-0.78798 0.69316,-0.61165 1.3945,-1.21415 2.09317,-1.81957 0.1492,-0.12927 0.32247,-0.19456 0.52047,-0.22032 1.48692,-0.19333 2.97065,-0.41366 4.46048,-0.58005 0.60821,-0.0679 1.15782,-0.28918 1.72054,-0.48231 2.07027,-0.71082 4.13612,-1.43461 6.20347,-2.15392 0.83418,-0.29022 1.70445,-0.43572 2.56102,-0.63456 1.57154,-0.36479 3.14541,-0.71977 4.72065,-1.06807 1.02419,-0.22649 2.03885,-0.49704 3.07467,-0.67071 0.0239,-0.004 0.0477,-0.008 0.0715,-0.0112 0.16672,-0.0239 0.33286,-0.0322 0.50068,-0.008 0.27795,-0.0539 0.55597,-0.10766 0.83399,-0.16146 0.0384,-0.0716 0.0909,-0.0757 0.16867,-0.0585 0.47757,0.10545 0.93542,0.0674 1.34809,-0.22182 1.45959,-1.02264 2.91996,-2.04418 4.37547,-3.07266 0.3176,-0.22415 0.64825,-0.39581 1.03218,-0.48225 z m -22.20128,-2.5274 8.5e-4,8.5e-4 c 4.5e-4,4.5e-4 8.4e-4,8.4e-4 8.4e-4,8.4e-4 l -0.002,-0.002 0.002,0.002 z m 1.58536,-5.6769 c -0.0295,0.12558 -0.13401,0.19586 -0.21889,0.2775 -0.54371,0.52294 -1.08813,1.04523 -1.63378,1.56615 -0.40709,0.38867 -0.81588,0.77565 -1.22544,1.16172 -0.0573,0.0541 -0.10935,0.13693 -0.23979,0.0905 0.84644,-1.24231 2.07422,-2.05248 3.12918,-3.0395 0.0449,-0.0419 0.0865,-0.11168 0.18872,-0.0563 z m 0.71847,-0.69238 0.002,0.002 c -0.0226,0.0225 -0.0453,0.045 -0.068,0.0676 l -0.001,-10e-4 0.001,10e-4 c -0.0226,0.0225 -0.0452,0.0451 -0.0678,0.0676 l -10e-4,-10e-4 10e-4,10e-4 c -0.0226,0.0226 -0.0452,0.0452 -0.0678,0.0677 l -0.001,-0.001 0.001,0.001 c -0.0226,0.0226 -0.0452,0.0452 -0.0677,0.0678 l -0.001,-10e-4 0.001,10e-4 -0.001,-10e-4 c 0.0226,-0.0226 0.0452,-0.0452 0.0678,-0.0677 0.0226,-0.0226 0.0451,-0.0452 0.0677,-0.0678 0.0225,-0.0226 0.0451,-0.0452 0.0677,-0.0678 0.0225,-0.0226 0.045,-0.0453 0.0675,-0.0679 l 0.002,0.002 c 0,0 -4.5e-4,-4.5e-4 -8.4e-4,-8.4e-4 z m 0.50347,4.76913 c -0.57907,0.34868 -1.16243,0.69017 -1.74429,1.03432 -0.22305,0.13187 -0.44545,0.26491 -0.67051,0.39327 -0.0645,0.0368 -0.1479,0.10909 -0.2091,0.0232 -0.0552,-0.0775 0.0285,-0.14251 0.0768,-0.2026 0.0141,-0.0175 0.0311,-0.0327 0.0457,-0.0498 0.23343,-0.27438 0.46609,-0.54954 0.70017,-0.82341 0.40969,-0.47926 0.81997,-0.958 1.23077,-1.43642 0.0511,-0.0595 0.10182,-0.12142 0.18476,-0.14167 0.0953,-8.4e-4 0.13608,0.0696 0.17217,0.13979 0.11337,0.22045 0.2272,0.44091 0.33415,0.66454 0.1174,0.24563 0.11831,0.25478 -0.12071,0.39873 z m 11.20149,0.94554 c -0.0156,0.0833 -0.0244,0.13732 -0.0359,0.19073 -0.32669,1.51041 -0.65319,3.02081 -0.98111,4.53095 -0.0646,0.29762 -0.12798,0.59589 -0.20559,0.89019 -0.0577,0.21883 -0.0931,0.23207 -0.31378,0.19275 -0.0443,-0.008 -0.0877,-0.021 -0.13167,-0.0314 -1.2405,-0.29353 -2.481,-0.5868 -3.72131,-0.88078 -0.0987,-0.0234 -0.19677,-0.0501 -0.29424,-0.0783 -0.11584,-0.0336 -0.16652,-0.10863 -0.13758,-0.23012 0.0157,-0.0658 0.0291,-0.13226 0.0471,-0.19742 0.17341,-0.63086 0.34759,-1.26152 0.52145,-1.89225 0.0749,-0.27185 0.14362,-0.54565 0.22649,-0.81504 0.053,-0.17243 0.11253,-0.18554 0.2248,-0.0535 0.12395,0.14588 0.23499,0.30287 0.35018,0.45609 0.59647,0.79343 1.19222,1.58744 1.78914,2.38054 0.0595,0.0791 0.10221,0.20682 0.21468,0.1943 0.13719,-0.0153 0.13738,-0.16536 0.16743,-0.26692 0.11921,-0.40314 0.30307,-0.77701 0.49672,-1.14731 0.28223,-0.53974 0.56272,-1.08033 0.8445,-1.62027 0.25569,-0.48991 0.51138,-0.97988 0.76935,-1.46862 0.0297,-0.0561 0.0426,-0.13206 0.16938,-0.15367 z m 7.56351,-13.90521 c -0.0162,0.1941 -0.10591,0.2821 -0.17756,0.37672 -0.31274,0.41288 -0.63625,0.8179 -0.93827,1.23836 -0.13908,0.19352 -0.29859,0.29677 -0.53689,0.27211 -0.0446,-0.005 -0.0902,-0.002 -0.13512,-1.3e-4 -0.73048,0.0313 -1.46355,-0.0404 -2.19279,0.0614 -0.13382,0.0187 -0.28204,0.0356 -0.4683,-0.06 1.5071,-0.6317 2.94761,-1.27515 4.44893,-1.88849 z"
         inkscape:connector-curvature="0"
         style="fill:#9f673a;fill-opacity:1;stroke:none;stroke-width:0.06489665" />
      <path
         id="path3490"
         d="m -110.46236,269.49008 c 0.0433,-0.19657 0.0557,-0.40106 0.0666,-0.60289 0.004,-0.073 -0.0698,-0.10987 -0.13998,-0.1259 -0.15413,-0.0353 -0.30806,-0.0678 -0.46797,-0.0685 -0.86858,-0.004 -1.73449,-0.0602 -2.59995,-0.12941 -0.1797,-0.0143 -0.36122,-0.0127 -0.5417,-0.009 -0.18859,0.004 -0.31565,-0.0694 -0.40781,-0.24063 -0.36381,-0.67564 -0.7369,-1.34628 -1.10694,-2.01855 -0.10883,-0.19774 -0.21526,-0.39691 -0.32961,-0.5914 -0.12233,-0.20806 -0.18599,-0.22039 -0.36517,-0.0642 -0.24648,0.21488 -0.49192,0.43157 -0.72743,0.65825 -0.22448,0.21611 -0.46167,0.39016 -0.78518,0.42988 -0.18554,0.0228 -0.21027,0.0773 -0.12227,0.25296 0.18197,0.3631 0.37251,0.7223 0.57181,1.07619 0.10234,0.18164 0.1231,0.3457 0.0343,0.54299 -0.26419,0.58647 -0.51262,1.18001 -0.76805,1.77044 -0.0173,0.04 -0.0356,0.0825 -0.10779,0.10215 -0.0558,-0.099 -0.0315,-0.21169 -0.0317,-0.31709 -0.002,-0.94853 -10e-4,-1.89699 -10e-4,-2.84552 0,-0.0903 -0.002,-0.18061 -0.004,-0.27088 -0.003,-0.16795 -0.0924,-0.25264 -0.25667,-0.24128 -0.24725,0.0171 -0.49405,0.0423 -0.74053,0.0687 -0.63897,0.0685 -1.27795,0.137 -1.91633,0.21079 -0.20527,0.0237 -0.38601,0.10513 -0.55,0.23966 -1.36076,1.11622 -2.71904,2.23543 -4.09025,3.33867 -1.21324,0.97618 -2.43959,1.93606 -3.6651,2.89692 -0.57239,0.44876 -0.4119,0.38685 0.0378,0.62509 0.25907,0.13725 0.51307,0.28392 0.76805,0.42877 0.0145,0.008 0.0169,0.0378 0.0319,0.0748 -0.11409,0.0729 -0.24563,0.0861 -0.37692,0.10357 -1.01732,0.13538 -2.03425,0.27406 -3.05202,0.40619 -0.17672,0.0229 -0.31508,0.10046 -0.45045,0.21098 -0.88272,0.72074 -1.76947,1.43649 -2.65538,2.15327 -0.3947,0.31936 -0.79258,0.63469 -1.18468,0.95722 -0.14427,0.11864 -0.30398,0.18139 -0.48595,0.21961 -1.87785,0.39477 -3.75388,0.79797 -5.63193,1.19164 -0.28119,0.0589 -0.53169,0.18722 -0.78966,0.29781 -1.30702,0.56038 -2.61092,1.12803 -3.91541,1.69432 -0.9421,0.40898 -1.88349,0.81971 -2.82508,1.22992 -0.16704,0.0728 -0.3189,0.16717 -0.44551,0.30151 -1.13777,1.20799 -2.31351,2.37885 -3.48418,3.55465 -0.0304,0.0305 -0.0517,0.07 -0.0871,0.11896 0.0813,0.0666 0.13706,0.0449 0.19118,0.0336 1.61346,-0.33545 3.22491,-0.68128 4.84123,-1.00226 0.66967,-0.13298 1.23842,-0.48037 1.83021,-0.77974 0.78538,-0.39723 1.55876,-0.81821 2.33791,-1.22797 0.88901,-0.46752 1.77927,-0.93269 2.66757,-1.40164 0.19177,-0.10124 0.39282,-0.16957 0.60406,-0.2139 2.62922,-0.55149 5.25845,-1.10279 7.88728,-1.65609 1.50216,-0.31618 3.00342,-0.63684 4.50564,-0.95275 0.13174,-0.0277 0.26738,-0.0443 0.40191,-0.0504 1.56732,-0.072 3.13645,-0.0928 4.70397,-0.0581 0.69725,0.0154 1.33505,-0.13648 1.97448,-0.37179 1.13342,-0.41709 2.27235,-0.819 3.4098,-1.22519 1.06307,-0.37958 2.12666,-0.75766 3.19097,-1.13368 0.26004,-0.0918 0.47517,-0.22506 0.65448,-0.45044 0.23778,-0.29892 0.51904,-0.56324 0.77461,-0.8497 0.59309,-0.6648 1.20694,-1.31104 1.81191,-1.9652 0.0835,-0.0903 0.17522,-0.17574 0.20436,-0.31007 -0.08,-0.0906 -0.16795,-0.0217 -0.24427,-0.004 -1.58173,0.37511 -3.16274,0.75293 -4.74343,1.13239 -0.55039,0.13213 -0.5522,0.1355 -0.73268,-0.41865 -0.16081,-0.49374 -0.31812,-0.98864 -0.4718,-1.48464 -0.0822,-0.26511 -0.0744,-0.28957 0.20125,-0.33539 0.81237,-0.13505 1.62682,-0.2579 2.44043,-0.38549 0.32325,-0.0507 0.64696,-0.0988 0.96975,-0.15257 0.21494,-0.0358 0.40626,-0.13485 0.59374,-0.24024 1.09209,-0.61373 2.18436,-1.22701 3.27482,-1.84352 0.12557,-0.0711 0.28626,-0.12792 0.32046,-0.28334 z m -15.15136,8.73249 c -3.1617,0.8055 -6.2659,1.59639 -9.39288,2.39306 0.0273,-0.15276 0.12441,-0.14744 0.18956,-0.176 1.02252,-0.44817 2.04756,-0.89051 3.06975,-1.33927 0.54604,-0.23973 1.08293,-0.47102 1.69834,-0.51846 1.34745,-0.1039 2.69081,-0.2603 4.03605,-0.39269 0.11,-0.0108 0.22325,-0.0337 0.39918,0.0334 z"
         inkscape:connector-curvature="0"
         style="fill:#9f673a;fill-opacity:1;stroke:none;stroke-width:0.06489665" />
      <path
         id="path3492"
         d="m -129.75659,269.18889 c 0.0213,-0.22168 -0.0471,-0.29547 -0.26432,-0.28087 -0.98974,0.0667 -1.98039,0.10539 -2.97208,0.1307 -0.33661,0.009 -0.6731,0.0524 -1.01173,0.0628 -0.29425,0.009 -0.55104,-0.0664 -0.80667,-0.20358 -1.09357,-0.58699 -2.19429,-1.16055 -3.28676,-1.74962 -0.24381,-0.13148 -0.4374,-0.12882 -0.68595,0.0162 -1.84164,1.07533 -3.69483,2.13094 -5.54075,3.19914 -0.48815,0.2825 -0.97085,0.57602 -1.44311,0.88428 -1.25711,0.82069 -2.50514,1.65532 -3.76063,2.47847 -1.5385,1.00869 -3.08012,2.01271 -4.62259,3.01542 -0.2612,0.16984 -0.46148,0.38134 -0.61729,0.65624 -0.70666,1.24673 -1.4326,2.48256 -2.14218,3.72766 -0.41897,0.73515 -0.81899,1.48107 -1.2305,2.22051 -0.10338,0.18573 -0.12369,0.37341 -0.0985,0.58588 0.0702,0.5929 0.11752,1.18852 0.17437,1.78297 0.059,0.61691 0.1126,1.2344 0.18055,1.85034 0.0297,0.2688 10e-4,0.54318 0.079,0.80705 0.0154,0.0521 0.008,0.1137 0.10293,0.16581 0.28684,-0.26075 0.56797,-0.54597 0.83476,-0.84599 0.0599,-0.0673 0.11046,-0.14329 0.17276,-0.20812 0.68005,-0.7077 1.37509,-1.40171 2.03821,-2.12491 0.46537,-0.50756 0.96111,-0.98546 1.4198,-1.49801 0.2997,-0.33481 0.28217,-0.35726 -0.15601,-0.4694 -0.63423,-0.16231 -1.26795,-0.3265 -1.90179,-0.4901 -0.0437,-0.0113 -0.0879,-0.0218 -0.13032,-0.0369 -0.19306,-0.0685 -0.21396,-0.12837 -0.085,-0.28892 0.21182,-0.26381 0.43137,-0.52138 0.64611,-0.78285 0.71568,-0.87176 1.43065,-1.7441 2.14613,-2.61605 0.0358,-0.0436 0.0783,-0.0824 0.10935,-0.12908 0.10682,-0.16049 0.24239,-0.17133 0.4121,-0.10559 0.44201,0.17114 0.88941,0.32838 1.33129,0.49971 0.83398,0.32331 0.83132,0.31994 1.71567,0.0681 1.42189,-0.40509 2.84435,-0.80842 4.27098,-1.19644 0.32883,-0.0894 0.594,-0.26445 0.85034,-0.46862 0.28243,-0.22493 0.5694,-0.44493 0.84067,-0.68271 0.5036,-0.44149 1.1316,-0.64949 1.71788,-0.9349 0.57816,-0.28146 1.16444,-0.54637 1.74728,-0.81835 0.12447,-0.0581 0.22389,-0.14225 0.31695,-0.24609 0.54948,-0.61288 1.10779,-1.21785 1.65973,-1.82853 0.29476,-0.3261 0.58232,-0.6587 0.8741,-0.98746 0.0674,-0.0759 0.14251,-0.14518 0.20767,-0.22286 0.14069,-0.16782 0.30618,-0.2017 0.51541,-0.13875 0.7565,0.22766 1.52124,0.42916 2.27177,0.67454 0.32247,0.10539 0.54253,0.051 0.79044,-0.17671 0.62255,-0.57168 1.27275,-1.11324 1.91114,-1.66778 0.0937,-0.0814 0.18255,-0.16828 0.27445,-0.25174 0.23629,-0.21468 0.30501,-0.21046 0.52099,0.0362 0.052,0.0593 0.0935,0.12805 0.14725,0.18548 0.11577,0.12363 0.18911,0.10883 0.22097,-0.0613 0.0747,-0.39899 0.13414,-0.80089 0.20008,-1.20156 0.0184,-0.11117 0.0443,-0.22169 0.055,-0.33377 z m -12.31349,1.07417 c -0.0235,0.018 -0.0471,0.0359 -0.0705,0.0539 l -0.002,-0.002 c 0.0206,-0.0221 0.006,-0.0923 0.0722,-0.0522 z m 0.41424,-0.30105 c -0.0382,0.1161 -0.1052,0.15841 -0.25083,0.16827 0.0611,-0.13771 0.12901,-0.18106 0.25083,-0.16827 z m 0.41352,-0.26524 c -0.0245,0.12902 -0.1017,0.15816 -0.25862,0.17146 0.0777,-0.1246 0.13486,-0.18904 0.25862,-0.17146 z m 2.72319,-1.66791 c -0.83223,0.5637 -1.66629,1.07359 -2.51721,1.55778 0.18833,-0.27049 1.81853,-1.40378 2.18754,-1.55907 0.0874,-0.0368 0.17561,-0.10767 0.32967,10e-4 z"
         inkscape:connector-curvature="0"
         style="fill:#9f673a;fill-opacity:1;stroke:none;stroke-width:0.06489665" />
      <path
         id="path3494"
         d="m -111.66665,260.20849 c -0.68362,0.0744 -1.3677,0.14433 -2.05203,0.21215 -0.77402,0.0768 -1.54856,0.14881 -2.32265,0.22506 -0.85248,0.084 -1.70737,0.15108 -2.55576,0.26588 -0.31793,0.043 -0.53501,-0.0561 -0.76435,-0.2407 -0.79999,-0.64377 -1.60873,-1.27671 -2.41403,-1.91386 -0.26647,-0.21085 -0.54948,-0.39308 -0.8578,-0.53943 -0.70355,-0.33395 -1.40262,-0.67732 -2.10415,-1.0155 -0.13206,-0.0637 -0.26854,-0.11818 -0.40067,-0.18164 -0.78337,-0.37634 -1.56648,-0.75326 -2.34828,-1.13278 -0.0648,-0.0315 -0.15816,-0.0503 -0.14044,-0.17781 0.12849,-0.0564 0.2701,-0.0788 0.41579,-0.0946 0.52677,-0.0574 1.05288,-0.12051 1.57939,-0.18002 0.68343,-0.0773 1.36698,-0.15316 2.05048,-0.22967 0.62748,-0.0702 1.25529,-0.13765 1.88226,-0.21209 0.23895,-0.0284 0.27146,-0.0992 0.16101,-0.31033 -0.0261,-0.0498 -0.059,-0.0962 -0.0892,-0.14381 -0.3265,-0.5147 -0.66876,-1.02024 -0.97345,-1.54753 -0.17191,-0.29755 -0.39321,-0.45947 -0.72652,-0.54182 -1.33687,-0.33032 -2.66706,-0.68778 -4.00205,-1.02576 -0.50294,-0.12732 -1.00025,-0.27996 -1.51436,-0.36102 -0.15406,-0.0861 -0.32494,-0.0992 -0.49542,-0.11428 -0.0857,-0.0762 -0.19365,-0.0964 -0.29898,-0.12103 -0.0151,-0.004 -0.03,-0.007 -0.0449,-0.011 -0.73145,-0.19002 -1.46394,-0.37608 -2.19519,-0.56707 -0.0883,-0.023 -0.19489,-0.0205 -0.25959,-0.10493 0.0517,-0.0674 0.10935,-0.0715 0.16335,-0.0841 0.54928,-0.12759 1.09844,-0.25569 1.64785,-0.38283 1.1318,-0.26192 2.26412,-0.52138 3.3954,-0.78544 1.03231,-0.24096 2.06351,-0.4866 3.09524,-0.73015 0.29035,0.26601 0.61185,0.49762 0.87993,0.78791 0.13492,0.14614 0.29626,0.23337 0.48796,0.28386 1.42747,0.37607 2.85396,0.75565 4.2802,1.13647 0.0657,0.0176 0.13167,0.0326 0.1978,0.0454 0.0387,0.0166 0.0774,0.0331 0.1161,0.0495 0.0215,0.012 0.043,0.0241 0.0644,0.0362 0.0529,0.0279 0.10578,0.0558 0.15874,0.0837 0.18268,0.079 0.36926,0.1505 0.5474,0.23876 0.3716,0.18411 0.7417,0.37179 1.10616,0.56953 0.11837,0.0643 0.21721,0.16445 0.32494,0.24823 0.0505,0.0294 0.10098,0.0587 0.15147,0.0881 0.0622,0.0389 0.12434,0.0779 0.18651,0.11687 0.51437,0.31287 1.0303,0.62321 1.54298,0.93886 0.0259,0.016 0.0519,0.0318 0.0778,0.0478 0.80783,0.49873 1.62734,0.98065 2.41344,1.51177 0.15906,0.10746 0.31066,0.22603 0.45862,0.34998 0.0219,0.0183 0.0435,0.0369 0.0652,0.0555 0.0258,0.0219 0.0515,0.0439 0.077,0.0661 0.20754,0.18054 0.40995,0.36855 0.61723,0.54864 0.06,0.0521 0.0855,0.14368 0.12701,0.21695 l 0.005,0.006 c 0.0313,0.0328 0.0627,0.0657 0.094,0.0985 l 0.0247,0.005 0.005,0.0247 c 0.0328,0.0317 0.0657,0.0633 0.0987,0.0951 l 0.005,0.005 c 0.0238,0.0238 0.0477,0.0476 0.0715,0.0715 l 0.005,0.005 c 0.0238,0.0238 0.0477,0.0477 0.0716,0.0715 l 0.005,0.005 c 0.0238,0.0239 0.0477,0.0477 0.0716,0.0716 l 0.004,0.005 c 0.0239,0.0239 0.0477,0.0477 0.0716,0.0716 l 0.004,0.004 c 0.0239,0.0239 0.0477,0.0477 0.0716,0.0716 l 0.004,0.004 c 0.0239,0.0239 0.0477,0.0477 0.0716,0.0716 l 0.004,0.004 c 0.0239,0.0238 0.0478,0.0478 0.0716,0.0716 l 0.004,0.004 c 0.0239,0.0239 0.0478,0.0478 0.0716,0.0716 l 0.004,0.005 c 0.0248,0.0247 0.0496,0.0495 0.0745,0.0743 0.21688,0.22208 0.43325,0.44474 0.64981,0.66714 0.2773,0.28476 0.55512,0.56901 0.83554,0.85066 0.066,0.0663 0.13453,0.13032 0.20384,0.19346 -0.48529,0.23045 -0.97027,0.46148 -1.45602,0.69102 -0.86728,0.40989 -1.73468,0.81971 -2.60333,1.22674 -0.0804,0.0376 -0.16879,0.0704 -0.25634,0.0799 z"
         inkscape:connector-curvature="0"
         style="fill:#9f673a;fill-opacity:1;stroke:none;stroke-width:0.06489665" />
      <path
         id="path3496"
         d="m -128.84336,251.06313 c -0.0975,0.14043 -0.22189,0.25498 -0.35213,0.36355 -0.5195,0.43292 -1.04043,0.86423 -1.55837,1.29904 -0.16685,0.14011 -0.34648,0.24939 -0.56122,0.2993 -0.59335,0.13784 -1.18703,0.27432 -1.77863,0.4193 -1.31448,0.32214 -2.64174,0.59198 -3.94234,0.9713 -1.88421,0.54955 -3.77069,1.09157 -5.65574,1.63825 -0.18742,0.0544 -0.37037,0.077 -0.56525,0.0268 -0.72113,-0.18561 -1.44466,-0.36187 -2.16638,-0.5452 -0.0798,-0.0203 -0.18229,-0.0173 -0.21624,-0.12635 0.081,-0.0987 0.19917,-0.10858 0.30294,-0.14252 0.78266,-0.25627 1.56752,-0.50587 2.34985,-0.76299 2.13295,-0.70107 4.26345,-1.40981 6.39867,-2.10388 0.48199,-0.15666 0.95801,-0.3448 1.45953,-0.43027 1.54519,-0.26315 3.09349,-0.50827 4.63829,-0.77389 0.0966,-0.0166 0.19404,-0.0293 0.29178,-0.0417 0.29301,-0.0373 0.58731,-0.0724 0.85982,-0.20501 l 6e-5,-7e-5 c 0.17042,0.0151 0.34129,0.0282 0.49536,0.11429 z"
         inkscape:connector-curvature="0"
         style="fill:#9f673a;fill-opacity:1;stroke:none;stroke-width:0.06489665" />
      <path
         id="path3498"
         d="m -122.46766,249.23415 c -0.1917,-0.0505 -0.35304,-0.13772 -0.48796,-0.28386 -0.26808,-0.29029 -0.58958,-0.5219 -0.87993,-0.78791 -0.0691,-0.0876 -0.14193,-0.17152 -0.21727,-0.25297 0.17327,0.0515 0.34661,0.10286 0.51975,0.15465 0.26063,0.078 0.52112,0.15634 0.7813,0.23544 0.58173,0.17691 1.16924,0.34194 1.73533,0.56117 0.4561,0.17658 0.88389,0.42624 1.32435,0.64351 0.52988,0.28308 1.05982,0.56616 1.58977,0.84917 0.0325,0.0187 0.065,0.0374 0.0975,0.0561 0.005,0.002 0.0101,0.004 0.0151,0.006 -0.0661,-0.0128 -0.132,-0.0278 -0.19781,-0.0454 -1.42617,-0.38081 -2.85273,-0.76033 -4.28013,-1.1364 z"
         inkscape:connector-curvature="0"
         style="fill:#2c2118;fill-opacity:1;stroke:none;stroke-width:0.06489665" />
      <path
         id="path3500"
         d="m -135.39864,286.29273 c 0.26419,-0.12713 0.53533,-0.23992 0.79771,-0.3705 1.39398,-0.69361 2.80172,-1.35848 4.20284,-2.0371 1.40112,-0.67869 2.80042,-1.36108 4.20511,-2.0325 1.55732,-0.74443 3.10673,-1.50547 4.6597,-2.25899 0.31891,-0.15471 0.33597,-0.15413 0.58661,0.095 0.52034,0.5171 1.03828,1.03666 1.55615,1.55622 0.0554,0.0556 0.11117,0.11364 0.15342,0.17918 0.0525,0.0814 0.0315,0.1542 -0.0652,0.1858 -0.0528,0.0172 -0.11072,0.0184 -0.16633,0.0266 -0.80303,0.11792 -1.606,0.23661 -2.40923,0.35343 -1.52825,0.22227 -3.05643,0.44467 -4.58514,0.66402 -0.31689,0.0455 -0.6025,0.144 -0.87468,0.3276 -1.64655,1.11083 -3.30382,2.2059 -4.9531,3.31271 -0.2252,0.15115 -0.45396,0.225 -0.72678,0.22091 -0.75598,-0.0114 -1.51229,-0.003 -2.2684,-0.005 -0.10662,-3.2e-4 -0.22156,0.026 -0.3202,-0.0426 0.0321,-0.12181 0.13142,-0.13803 0.20754,-0.1747 z"
         inkscape:connector-curvature="0"
         style="fill:#9f673a;fill-opacity:1;stroke:none;stroke-width:0.06489665" />
      <path
         id="path3502"
         d="m -104.83796,268.07611 c -0.0746,0.0254 -0.1603,0.0792 -0.23759,0.004 0.0257,-0.0797 0.0785,-0.10299 0.1272,-0.12882 0.41813,-0.22201 0.8371,-0.44234 1.25497,-0.6648 0.62976,-0.33532 1.25938,-0.67097 1.88817,-1.00811 0.0193,0.0389 0.0387,0.0779 0.0581,0.11682 h 6e-5 v 0 c 0.0125,0.0309 0.0251,0.0618 0.0377,0.0927 0.0419,0.0934 0.0837,0.18684 0.12557,0.28029 0.0256,0.0505 0.0512,0.10098 0.0768,0.15147 0.004,0.007 0.007,0.0149 0.0112,0.0223 -0.63501,0.21104 -1.26983,0.42254 -1.9038,0.6367 -0.48076,0.16237 -0.95814,0.33421 -1.43837,0.49782 z"
         inkscape:connector-curvature="0"
         style="fill:#9f673a;fill-opacity:1;stroke:none;stroke-width:0.06489665" />
      <path
         id="path3504"
         d="m -159.37704,305.97439 c 0.18833,0.15984 0.37198,0.33565 0.51722,0.53384 0.20689,0.28243 0.41164,0.56629 0.61587,0.85067 -0.66103,-0.67714 -1.31811,-1.35823 -1.97136,-2.04289 -0.18074,-0.18943 -0.34039,-0.40099 -0.49335,-0.61561 0.43066,0.43806 0.86202,0.87552 1.33162,1.27399 z"
         inkscape:connector-curvature="0"
         style="fill:#3d5096;stroke:none;stroke-width:0.06489665" />
      <path
         id="path3506"
         d="m -161.00173,273.04693 c -0.32987,0.19437 -0.64851,0.40762 -0.97377,0.60984 -0.35395,0.22006 -0.71614,0.42754 -1.06379,0.65701 -0.37712,0.24888 -0.69031,0.57732 -1.01732,0.88493 -0.48413,0.45545 -0.94444,0.93607 -1.41832,1.40248 -0.0702,0.0692 -0.12687,0.1858 -0.32695,0.13369 1.58971,-2.08837 3.18714,-4.1175 4.82805,-6.18491 0.0948,0.21967 0.0599,0.38094 0.0841,0.53403 0.081,0.51204 0.0334,1.03394 0.10935,1.5474 0.0275,0.18567 -0.0539,0.31683 -0.22136,0.41553 z"
         inkscape:connector-curvature="0"
         style="fill:#9f673a;fill-opacity:1;stroke:none;stroke-width:0.06489665" />
      <path
         id="path3508"
         d="m -147.90046,265.28685 c 0.0967,0.14569 0.0633,0.27932 0.05,0.40904 -0.0836,0.81796 -0.17697,1.63501 -0.24687,2.45407 -0.0187,0.21942 -0.0864,0.34493 -0.29716,0.43059 -0.7419,0.30164 -1.47536,0.62405 -2.21414,0.93354 -0.19385,0.0812 -0.37523,0.2039 -0.62379,0.22214 0.004,-0.17574 0.11584,-0.23155 0.19073,-0.30839 0.47239,-0.48471 1.0035,-0.90771 1.46933,-1.40014 0.16464,-0.17406 0.30689,-0.35953 0.42118,-0.56889 0.27555,-0.50496 0.54305,-1.01479 0.83359,-1.51105 0.12668,-0.21624 0.21059,-0.46525 0.41716,-0.66091 z"
         inkscape:connector-curvature="0"
         style="fill:#9f673a;fill-opacity:1;stroke:none;stroke-width:0.06489665" />
      <path
         id="path3510"
         d="m -153.05643,294.04716 c 0.12784,0.85722 0.25056,1.71522 0.3836,2.57166 0.0285,0.18392 -0.0382,0.29879 -0.18113,0.39892 -0.54422,0.38134 -1.08442,0.76838 -1.62871,1.14952 -0.0567,0.0397 -0.11649,0.12174 -0.23953,0.0204 0.50249,-1.45271 1.00921,-2.91762 1.52786,-4.41693 0.12356,0.0952 0.12493,0.18937 0.13791,0.27639 z"
         inkscape:connector-curvature="0"
         style="fill:#9f673a;fill-opacity:1;stroke:none;stroke-width:0.06489665" />
      <path
         id="path3512"
         d="m -155.92162,269.76148 c -0.33837,0.32902 -0.69342,0.64098 -1.03095,0.97085 -0.49905,0.48783 -0.98766,0.9863 -1.48399,1.47692 -0.0847,0.0837 -0.15121,0.19767 -0.31235,0.22675 -0.0242,-0.16724 0.0635,-0.26563 0.11746,-0.37193 0.50471,-0.99318 1.01187,-1.98512 1.52144,-2.97583 0.10799,-0.20994 0.22506,-0.41541 0.34428,-0.61931 0.0896,-0.15329 0.12862,-0.16095 0.24855,-0.0324 0.20702,0.22175 0.40288,0.45389 0.60581,0.67947 0.25888,0.28775 0.26465,0.37822 -0.0102,0.64553 z"
         inkscape:connector-curvature="0"
         style="fill:#9f673a;fill-opacity:1;stroke:none;stroke-width:0.06489665" />
      <path
         id="path3514"
         d="m -146.88074,257.60873 c -0.35881,0.37387 -0.7395,0.72542 -1.07248,1.12596 -0.22078,0.26549 -0.46998,0.51288 -0.75786,0.74391 -0.0866,-0.10481 -0.0554,-0.18268 -0.0415,-0.25855 0.15004,-0.82062 0.29878,-1.64143 0.45155,-2.46146 0.0979,-0.52534 0.10163,-0.52722 0.58296,-0.32864 0.35434,0.14615 0.70725,0.29593 1.05782,0.45097 0.242,0.10701 0.24524,0.14368 0.0888,0.37017 -0.0905,0.13089 -0.19994,0.24362 -0.30936,0.35764 z"
         inkscape:connector-curvature="0"
         style="fill:#9f673a;fill-opacity:1;stroke:none;stroke-width:0.06489665" />
      <path
         id="path3516"
         d="m -150.8456,263.60369 c -0.19008,0.0116 -0.38146,0.002 -0.57219,0.004 -0.17652,0.002 -0.25187,-0.0826 -0.28334,-0.25926 -0.0849,-0.47667 -0.0421,-0.96287 -0.12246,-1.43908 -0.005,-0.0283 0.018,-0.0612 0.0531,-0.16951 0.37829,0.57868 0.72509,1.10012 1.06087,1.62851 0.0955,0.15037 0.0493,0.22435 -0.13596,0.23564 z"
         inkscape:connector-curvature="0"
         style="fill:#9f673a;fill-opacity:1;stroke:none;stroke-width:0.06489665" />
      <path
         id="path3518"
         d="m -131.41327,281.23644 c -0.0829,0.0414 -0.16536,0.0837 -0.24758,0.12654 -0.57531,0.29989 -1.13621,0.62768 -1.7308,0.89 l -6e-5,-1.3e-4 c -0.0504,0.0408 -0.0883,0.11032 -0.17925,0.0829 -0.006,-0.002 -0.0123,-0.004 -0.0189,-0.007 0.0317,-0.0859 0.11025,-0.0852 0.1745,-0.10526 0.0381,-0.11519 0.13603,-0.1749 0.225,-0.24317 0.31209,-0.23953 0.64325,-0.45843 0.93172,-0.72366 0.52021,-0.47829 1.18417,-0.47154 1.82652,-0.64021 -0.0295,0.15893 -0.13337,0.16945 -0.20644,0.20955 -0.25608,0.14044 -0.51333,0.27958 -0.77467,0.41022 z"
         inkscape:connector-curvature="0"
         style="fill:#5c4533;fill-opacity:1;stroke:none;stroke-width:0.06489665" />
      <path
         id="path3520"
         d="m -112.02605,305.13657 c -0.0766,0.0822 -0.14653,0.17211 -0.23083,0.24544 -0.53598,0.46616 -1.07281,0.93146 -1.61379,1.39191 -1.02173,0.86961 -2.04814,1.73384 -3.0689,2.60462 -0.29489,0.25154 -0.60276,0.46668 -0.98902,0.56039 -0.28457,0.069 -0.55993,0.17496 -0.84165,0.2566 -0.71899,0.20832 -1.39437,0.4912 -2.01166,0.93542 -0.92484,0.66551 -1.88363,1.28398 -2.83014,1.91925 -0.30547,0.20501 -0.34422,0.19826 -0.60958,-0.0507 -0.7565,-0.70984 -1.51274,-1.41994 -2.26801,-2.13107 -0.1479,-0.13927 -0.29327,-0.2814 -0.43526,-0.42663 -0.0896,-0.0916 -0.28288,-0.12837 -0.2407,-0.29107 0.0378,-0.14601 0.21701,-0.14277 0.34259,-0.17697 1.19773,-0.32623 2.39741,-0.64514 3.59521,-0.97085 0.51164,-0.13914 1.02919,-0.26413 1.52864,-0.43942 1.69296,-0.594 3.37917,-1.20714 5.06771,-1.81379 1.16821,-0.41969 2.33583,-0.841 3.50397,-1.26082 0.0135,-0.005 0.0269,-0.01 0.0402,-0.0147 0.093,-0.0352 0.17931,-0.0781 0.22727,-0.176 l 6e-5,-1.3e-4 c 0.27789,-0.0538 0.55591,-0.1076 0.83392,-0.1614 z"
         inkscape:connector-curvature="0"
         style="fill:#9f673a;fill-opacity:1;stroke:none;stroke-width:0.06489665" />
      <path
         id="path3522"
         d="m -114.31138,302.84098 c -0.0646,0.29762 -0.12798,0.59589 -0.20559,0.89019 -0.0577,0.21883 -0.0931,0.23207 -0.31378,0.19275 -0.0443,-0.008 -0.0877,-0.021 -0.13167,-0.0314 -1.2405,-0.29353 -2.481,-0.5868 -3.72131,-0.88078 -0.0987,-0.0234 -0.19677,-0.0501 -0.29424,-0.0783 -0.11584,-0.0336 -0.16652,-0.10863 -0.13758,-0.23012 0.0157,-0.0658 0.0291,-0.13226 0.0471,-0.19742 0.17341,-0.63086 0.34759,-1.26152 0.52145,-1.89225 0.0749,-0.27185 0.14362,-0.54565 0.22649,-0.81504 0.053,-0.17243 0.11253,-0.18554 0.2248,-0.0535 0.12395,0.14588 0.23499,0.30287 0.35018,0.45609 0.59647,0.79343 1.19222,1.58744 1.78914,2.38054 0.0595,0.0791 0.10221,0.20682 0.21468,0.1943 0.13719,-0.0153 0.13738,-0.16536 0.16743,-0.26692 0.11921,-0.40314 0.30307,-0.77701 0.49672,-1.14731 0.28223,-0.53974 0.56272,-1.08033 0.8445,-1.62027 0.25569,-0.48991 0.51138,-0.97988 0.76935,-1.46862 0.0297,-0.0562 0.0426,-0.13206 0.16938,-0.15374 -0.0156,0.0833 -0.0244,0.13733 -0.0359,0.19074 -0.32669,1.51047 -0.65319,3.02087 -0.98111,4.53101 z"
         inkscape:connector-curvature="0"
         style="fill:#be7539;fill-opacity:1;stroke:none;stroke-width:0.06489665" />
      <path
         id="path3524"
         d="m -106.84664,285.82917 c -0.13908,0.19352 -0.29859,0.29677 -0.53689,0.27211 -0.0446,-0.005 -0.0902,-0.002 -0.13512,-1.3e-4 -0.73048,0.0313 -1.46355,-0.0404 -2.19279,0.0614 -0.13382,0.0187 -0.28204,0.0356 -0.4683,-0.06 1.50703,-0.63177 2.94754,-1.27528 4.44886,-1.88856 -0.0162,0.19411 -0.10591,0.28211 -0.17755,0.37673 -0.31268,0.41294 -0.63619,0.81802 -0.93821,1.23842 z"
         inkscape:connector-curvature="0"
         style="fill:#be7539;fill-opacity:1;stroke:none;stroke-width:0.06489665" />
      <path
         id="path3526"
         d="m -124.49581,297.17376 c -0.57907,0.34868 -1.16243,0.69017 -1.74429,1.03432 -0.22305,0.13187 -0.44545,0.26491 -0.67051,0.39327 -0.0645,0.0368 -0.1479,0.10909 -0.2091,0.0232 -0.0552,-0.0775 0.0285,-0.14251 0.0768,-0.2026 0.0141,-0.0175 0.0311,-0.0327 0.0457,-0.0498 0.23343,-0.27438 0.46609,-0.54954 0.70017,-0.82341 0.40969,-0.47926 0.81997,-0.958 1.23077,-1.43642 0.0511,-0.0595 0.10182,-0.12142 0.18476,-0.14167 0.0953,-8.4e-4 0.13608,0.0696 0.17217,0.13979 0.11337,0.22045 0.2272,0.44091 0.33415,0.66454 0.1174,0.24563 0.11831,0.25478 -0.12071,0.39873 z"
         inkscape:connector-curvature="0"
         style="fill:#be7539;fill-opacity:1;stroke:none;stroke-width:0.06489665" />
      <path
         id="path3528"
         d="m -125.93664,293.37458 c -0.54371,0.52293 -1.08813,1.04522 -1.63378,1.56615 -0.40709,0.38866 -0.81588,0.77564 -1.22544,1.16171 -0.0573,0.0541 -0.10935,0.13693 -0.23979,0.0905 0.84644,-1.24232 2.07422,-2.05249 3.12918,-3.0395 0.0449,-0.042 0.0865,-0.11182 0.18872,-0.0565 -0.0295,0.12564 -0.13394,0.19592 -0.21889,0.27763 z"
         inkscape:connector-curvature="0"
         style="fill:#be7539;fill-opacity:1;stroke:none;stroke-width:0.06489665" />
      <line
         id="line3530"
         y2="292.67596"
         x2="-125.26996"
         y1="292.67719"
         x1="-125.26879"
         style="fill:none;stroke:none;stroke-width:0;stroke-linecap:round;stroke-linejoin:round" />
      <path
         id="path3532"
         d="m -125.2011,292.60938 c -0.0226,0.0226 -0.0452,0.0452 -0.0678,0.0678 l -0.001,-0.001 c 0.0226,-0.0226 0.0452,-0.0452 0.0678,-0.0677 z"
         inkscape:connector-curvature="0"
         style="fill:#445cac;stroke:none;stroke-width:0.06489665" />
      <path
         id="path3534"
         d="m -125.13329,292.54163 c -0.0226,0.0226 -0.0452,0.0452 -0.0678,0.0677 l -0.001,-10e-4 c 0.0226,-0.0226 0.0451,-0.0452 0.0677,-0.0678 z"
         inkscape:connector-curvature="0"
         style="fill:#445cac;stroke:none;stroke-width:0.06489665" />
      <path
         id="path3536"
         d="m -125.06554,292.47394 c -0.0226,0.0225 -0.0452,0.0451 -0.0678,0.0676 l -10e-4,-10e-4 c 0.0225,-0.0226 0.0451,-0.0452 0.0677,-0.0678 z"
         inkscape:connector-curvature="0"
         style="fill:#445cac;stroke:none;stroke-width:0.06489665" />
      <path
         id="path3538"
         d="m -124.99759,292.40638 c -0.0226,0.0225 -0.0453,0.045 -0.0679,0.0676 l -0.001,-10e-4 c 0.0225,-0.0226 0.045,-0.0453 0.0676,-0.068 z"
         inkscape:connector-curvature="0"
         style="fill:#445cac;stroke:none;stroke-width:0.06489665" />
      <line
         id="line3540"
         y2="298.77567"
         x2="-127.30135"
         y1="298.7739"
         x1="-127.30311"
         style="fill:none;stroke:none;stroke-width:0;stroke-linecap:round;stroke-linejoin:round" />
      <path
         id="path3542"
         d="m -127.30135,298.77566 -0.002,-0.002 8.4e-4,8.5e-4 c 3.9e-4,4.5e-4 8.5e-4,9e-4 8.5e-4,9e-4 z"
         inkscape:connector-curvature="0"
         style="fill:#36334b;stroke:none;stroke-width:0.06489665" />
      <path
         id="path3544"
         d="m -124.99759,292.40638 c 0,0 -4.5e-4,-4.5e-4 -8.4e-4,-8.4e-4 l -8.5e-4,-8.4e-4 z"
         inkscape:connector-curvature="0"
         style="fill:#445cac;stroke:none;stroke-width:0.06489665" />
      <path
         id="path3546"
         d="m -134.81704,280.43963 c 1.02252,-0.44817 2.04756,-0.89051 3.06975,-1.33927 0.54604,-0.23973 1.08293,-0.47102 1.69834,-0.51846 1.34745,-0.1039 2.69081,-0.2603 4.03605,-0.39269 0.10994,-0.0108 0.22318,-0.0337 0.39918,0.0334 -3.1617,0.8055 -6.2659,1.59639 -9.39288,2.39306 0.0273,-0.1527 0.12441,-0.14744 0.18956,-0.176 z"
         inkscape:connector-curvature="0"
         style="fill:#5c4533;fill-opacity:1;stroke:none;stroke-width:0.06489665" />
      <path
         id="path3548"
         d="m -138.8488,268.02757 c 0.0874,-0.0368 0.17561,-0.10767 0.32967,10e-4 -0.83223,0.56369 -1.66629,1.07358 -2.51721,1.55778 0.18833,-0.27056 1.81853,-1.40385 2.18754,-1.55914 z"
         inkscape:connector-curvature="0"
         style="fill:#5c4533;fill-opacity:1;stroke:none;stroke-width:0.06489665" />
      <path
         id="path3550"
         d="m -141.50087,269.8683 c 0.0776,-0.12467 0.13485,-0.18911 0.25861,-0.17146 -0.0246,0.12895 -0.10169,0.15809 -0.25861,0.17146 z"
         inkscape:connector-curvature="0"
         style="fill:#5c4533;fill-opacity:1;stroke:none;stroke-width:0.06489665" />
      <path
         id="path3552"
         d="m -141.90667,270.13022 c 0.0611,-0.13765 0.12901,-0.181 0.25083,-0.16828 -0.0383,0.11617 -0.1052,0.15848 -0.25083,0.16828 z"
         inkscape:connector-curvature="0"
         style="fill:#5c4533;fill-opacity:1;stroke:none;stroke-width:0.06489665" />
      <path
         id="path3554"
         d="m -142.14225,270.3153 c 0.0206,-0.0221 0.006,-0.0923 0.0722,-0.0522 -0.0235,0.018 -0.0471,0.0359 -0.0705,0.0539 z"
         inkscape:connector-curvature="0"
         style="fill:#5c4533;fill-opacity:1;stroke:none;stroke-width:0.06489665" />
    </g>
  </g>
</svg>
