<?xml version="1.0" encoding="UTF-8" standalone="no"?>
<!-- Created with Inkscape (http://www.inkscape.org/) -->

<svg
   xmlns:dc="http://purl.org/dc/elements/1.1/"
   xmlns:cc="http://creativecommons.org/ns#"
   xmlns:rdf="http://www.w3.org/1999/02/22-rdf-syntax-ns#"
   xmlns:svg="http://www.w3.org/2000/svg"
   xmlns="http://www.w3.org/2000/svg"
   xmlns:xlink="http://www.w3.org/1999/xlink"
   xmlns:sodipodi="http://sodipodi.sourceforge.net/DTD/sodipodi-0.dtd"
   xmlns:inkscape="http://www.inkscape.org/namespaces/inkscape"
   width="128"
   height="128"
   viewBox="0 0 33.866666 33.866668"
   version="1.1"
   id="svg8"
   sodipodi:docname="drawing.svg"
   inkscape:version="0.92.2 5c3e80d, 2017-08-06">
  <defs
     id="defs2">
    <linearGradient
       inkscape:collect="always"
       id="linearGradient971">
      <stop
         style="stop-color:#0092f7;stop-opacity:1"
         offset="0"
         id="stop967" />
      <stop
         style="stop-color:#431b80;stop-opacity:1"
         offset="1"
         id="stop969" />
    </linearGradient>
    <linearGradient
       inkscape:collect="always"
       id="linearGradient963">
      <stop
         style="stop-color:#ff4122;stop-opacity:1"
         offset="0"
         id="stop959" />
      <stop
         style="stop-color:#fff04e;stop-opacity:1"
         offset="1"
         id="stop961" />
    </linearGradient>
    <linearGradient
       inkscape:collect="always"
       xlink:href="#linearGradient963"
       id="linearGradient965"
       x1="-142.18881"
       y1="158.39774"
       x2="-66.059303"
       y2="133.35846"
       gradientUnits="userSpaceOnUse" />
    <radialGradient
       inkscape:collect="always"
       xlink:href="#linearGradient971"
       id="radialGradient975"
       cx="-87.267166"
       cy="150.64282"
       fx="-87.267166"
       fy="150.64282"
       r="42.490334"
       gradientTransform="matrix(-1.9150262,-0.64841392,0.51101765,-1.50924,-324.89523,306.66518)"
       gradientUnits="userSpaceOnUse" />
  </defs>
  <sodipodi:namedview
     id="base"
     pagecolor="#ffffff"
     bordercolor="#666666"
     borderopacity="1.0"
     inkscape:pageopacity="0.0"
     inkscape:pageshadow="2"
     inkscape:zoom="2.8"
     inkscape:cx="5.6615692"
     inkscape:cy="89.803258"
     inkscape:document-units="mm"
     inkscape:current-layer="layer1"
     showgrid="false"
     inkscape:window-width="1600"
     inkscape:window-height="814"
     inkscape:window-x="0"
     inkscape:window-y="0"
     inkscape:window-maximized="1"
     units="px" />
  <metadata
     id="metadata5">
    <rdf:RDF>
      <cc:Work
         rdf:about="">
        <dc:format>image/svg+xml</dc:format>
        <dc:type
           rdf:resource="http://purl.org/dc/dcmitype/StillImage" />
        <dc:title></dc:title>
      </cc:Work>
    </rdf:RDF>
  </metadata>
  <g
     inkscape:label="Layer 1"
     inkscape:groupmode="layer"
     id="layer1"
     transform="translate(0,-263.13332)">
    <g
       id="g997"
       transform="matrix(0.27925756,0,0,0.27925756,42.801624,230.27108)"
       style="stroke-width:3.58092356">
      <path
         inkscape:connector-curvature="0"
         style="opacity:0.25;fill:#000000;fill-opacity:1;fill-rule:evenodd;stroke:none;stroke-width:0.94745266"
         d="m -78.290217,128.39546 c 4.658929,1.06924 9.146127,2.56999 12.230912,7.60885 -2.406898,-0.4112 -4.832649,-0.3694 -7.276692,0.12726 11.49628,5.82885 23.133216,11.849 22.933448,23.68046 l -4.569889,-3.71344 c 3.632274,20.51487 1.23834,19.78916 0.346139,24.35747 l -3.441102,-6.71294 c 0.181528,10.36428 0.631174,20.83273 -6.63021,28.29998 l 0.976061,-9.17032 c -9.011007,12.05243 -23.248572,26.59572 -45.43037,7.00054 16.086925,0.25135 20.694057,-7.81095 22.860894,-8.24896 0.911947,-0.27814 2.126813,0.0792 2.976607,0.11327 1.71957,0.069 2.030984,-1.80021 1.500386,-2.58083 -1.300361,-1.91316 -2.576891,-3.08467 -5.827212,-4.36246 -1.969069,-0.61822 -4.951304,-0.50158 -6.92037,0.23416 -2.817749,1.59929 -7.739775,4.62892 -12.703045,2.46119 -3.72075,-1.94461 -6.13501,-4.10483 -9.17923,-8.41948 -1.30531,-1.78439 0.31444,-5.38581 3.09241,-5.14383 l 8.10515,1.37822 c -0.0276,-2.55027 0.71808,-4.58512 -1.4953,-8.59257 -0.68147,-1.34186 -0.0988,-1.36844 0.17435,-1.71799 l 7.475225,-5.61851 c 1.07664,-0.87553 1.572189,-1.99178 2.219402,-3.04532 0.189778,-1.26326 -0.770461,-1.65206 -1.317133,-1.7511 -2.368644,0.16509 -4.165774,0.0274 -6.547504,-0.55739 -0.54799,-0.18204 -1.09492,-0.44347 -1.64292,-0.915 l -5.85903,-5.60578 c 1.53985,-4.59527 2.73702,-9.45215 8.72873,-12.73614 -5.15531,0.73693 -10.28515,2.5334 -15.33604,7.61649 -3.58291,-1.31294 -7.78642,-1.40364 -13.99855,0.93535 -4.40017,-3.03181 -5.79434,-7.90975 -6.81602,-13.01737 -6.33274,7.04007 -6.27214,16.75994 -5.87175,22.46003 -2.32574,5.439 -7.29418,7.12889 -6.7473,16.20269 l 3.41819,-2.74754 c -1.11809,3.98124 -2.23728,7.96208 -2.25122,11.94331 -0.36589,-0.33657 -0.7148,-0.65136 -1.13389,-1.06007 0,0.20596 0.006,0.41049 0.008,0.61593 -0.0361,1.09007 0.006,2.16571 0.11581,3.22731 1.93963,31.21195 27.35079,55.54241 59.094229,55.54241 33.035615,0 59.8158,-26.78146 59.8158,-59.81706 -0.211785,0.21724 -0.403492,0.42945 -0.609563,0.6452 1.101945,-4.76595 1.209612,-9.58366 0.09162,-14.29888 l -1.53983,6.125 c -0.15762,-3.69694 -0.449646,-7.73229 -3.042787,-17.54018 l -0.362699,2.08579 c -11.035945,-26.07538 -32.60775,-24.8784 -39.613337,-25.28775 z"
         id="path977" />
      <path
         id="path904"
         d="m -94.114528,120.14492 a 56.041599,56.041599 0 0 0 -41.266222,18.22505 c 0.71415,0.84744 1.54903,1.62072 2.53588,2.30068 6.21212,-2.33899 10.41551,-2.24825 13.99841,-0.93532 5.05089,-5.08309 10.18055,-6.87968 15.33587,-7.61661 -5.99172,3.28399 -7.18898,8.14094 -8.72883,12.73621 l 5.85908,5.60594 c 0.548,0.47153 1.09493,0.73286 1.64292,0.91489 2.38174,0.58476 4.1791,0.72269 6.547743,0.55761 0.546674,0.099 1.506802,0.48779 1.317024,1.75104 -0.647213,1.05355 -1.142817,2.16962 -2.219457,3.04515 l -7.47509,5.6184 c -0.27311,0.34955 -0.85588,0.3763 -0.17441,1.71816 2.21338,4.00745 1.4678,6.04253 1.49542,8.59279 l -8.10545,-1.37831 c -2.77796,-0.24199 -4.39779,3.35913 -3.09249,5.14352 3.04423,4.31465 5.45855,6.47526 9.1793,8.41987 4.96327,2.16773 9.885569,-0.86184 12.70332,-2.46113 1.969067,-0.73575 4.951408,-0.85243 6.920474,-0.2342 3.250321,1.27778 4.526833,2.44901 5.827194,4.36217 0.5306,0.78062 0.21917,2.64969 -1.5004,2.58073 -0.849796,-0.0341 -2.064935,-0.39126 -2.97688,-0.11312 -2.166839,0.43801 -6.773865,8.50031 -22.860798,8.24896 22.181804,19.59518 36.41957,5.05172 45.430577,-7.0007 l -0.976183,9.17033 c 7.261386,-7.46725 6.811491,-17.93554 6.629963,-28.29981 l 3.441303,6.71318 c 0.892199,-4.56831 3.285951,-3.84284 -0.346323,-24.3577 l 4.569965,3.71338 c 0.199768,-11.83146 -11.437263,-17.85166 -22.933543,-23.68051 2.444043,-0.49665 4.869868,-0.53826 7.276766,-0.12706 -3.084785,-5.03887 -7.571999,-6.5399 -12.230925,-7.60914 2.194449,0.12823 5.818743,0.0997 10.100167,0.80028 a 56.041599,56.041599 0 0 0 -25.924375,-6.40473 z"
         style="fill:url(#radialGradient975);fill-opacity:1;stroke-width:0.94745266"
         inkscape:connector-curvature="0" />
      <path
         id="path910"
         d="m -78.290217,125.74961 c 4.658929,1.06924 9.146127,2.56999 12.230912,7.60885 -2.406898,-0.4112 -4.832649,-0.3694 -7.276692,0.12726 11.49628,5.82885 23.133216,11.849 22.933448,23.68046 l -4.569889,-3.71344 c 3.632274,20.51487 1.23834,19.78916 0.346139,24.35747 l -3.441102,-6.71294 c 0.181528,10.36428 0.631174,20.83273 -6.63021,28.29998 l 0.976061,-9.17032 c -9.011007,12.05243 -23.248572,26.59572 -45.43037,7.00054 16.086925,0.25135 20.694057,-7.81095 22.860894,-8.24896 0.911947,-0.27814 2.126813,0.0792 2.976607,0.11327 1.71957,0.069 2.030984,-1.80021 1.500386,-2.58083 -1.300361,-1.91316 -2.576891,-3.08467 -5.827212,-4.36246 -1.969069,-0.61822 -4.951304,-0.50158 -6.92037,0.23416 -2.817749,1.59929 -7.739775,4.62892 -12.703045,2.46119 -3.72075,-1.94461 -6.13501,-4.10483 -9.17923,-8.41948 -1.30531,-1.78439 0.31444,-5.38581 3.09241,-5.14383 l 8.10515,1.37822 c -0.0276,-2.55027 0.71808,-4.58512 -1.4953,-8.59257 -0.68147,-1.34186 -0.0988,-1.36844 0.17435,-1.71799 l 7.475225,-5.61851 c 1.07664,-0.87553 1.572189,-1.99178 2.219402,-3.04532 0.189778,-1.26326 -0.770461,-1.65206 -1.317133,-1.7511 -2.368644,0.16509 -4.165774,0.0274 -6.547504,-0.55739 -0.54799,-0.18204 -1.09492,-0.44347 -1.64292,-0.915 l -5.85903,-5.60578 c 1.53985,-4.59527 2.73702,-9.45215 8.72873,-12.73614 -5.15531,0.73693 -10.28515,2.5334 -15.33604,7.61649 -3.58291,-1.31294 -7.78642,-1.40364 -13.99855,0.93535 -4.40017,-3.03181 -5.79434,-7.90975 -6.81602,-13.01737 -6.33274,7.04007 -6.27214,16.75994 -5.87175,22.46003 -2.32574,5.439 -7.29418,7.12889 -6.7473,16.20269 l 3.41819,-2.74754 c -1.11809,3.98124 -2.23728,7.96208 -2.25122,11.94331 -0.36589,-0.33657 -0.7148,-0.65136 -1.13389,-1.06007 0,0.20596 0.006,0.41049 0.008,0.61593 -0.0361,1.09007 0.006,2.16571 0.11581,3.22731 1.93963,31.21195 27.35079,55.54241 59.094229,55.54241 33.035615,0 59.8158,-26.78146 59.8158,-59.81706 -0.211785,0.21724 -0.403492,0.42945 -0.609563,0.6452 1.101945,-4.76595 1.209612,-9.58366 0.09162,-14.29888 l -1.53983,6.125 c -0.15762,-3.69694 -0.449646,-7.73229 -3.042787,-17.54018 l -0.362699,2.08579 c -11.035945,-26.07538 -32.60775,-24.8784 -39.613337,-25.28775 z"
         style="fill:url(#linearGradient965);fill-opacity:1;fill-rule:evenodd;stroke:none;stroke-width:0.94745266"
         inkscape:connector-curvature="0" />
    </g>
  </g>
</svg>
