<?xml version="1.0" encoding="UTF-8" standalone="no"?>
<!-- Created with Inkscape (http://www.inkscape.org/) -->

<svg
   xmlns:dc="http://purl.org/dc/elements/1.1/"
   xmlns:cc="http://creativecommons.org/ns#"
   xmlns:rdf="http://www.w3.org/1999/02/22-rdf-syntax-ns#"
   xmlns:svg="http://www.w3.org/2000/svg"
   xmlns="http://www.w3.org/2000/svg"
   xmlns:xlink="http://www.w3.org/1999/xlink"
   xmlns:sodipodi="http://sodipodi.sourceforge.net/DTD/sodipodi-0.dtd"
   xmlns:inkscape="http://www.inkscape.org/namespaces/inkscape"
   width="128"
   height="128"
   viewBox="0 0 33.866666 33.866668"
   version="1.1"
   id="svg8"
   inkscape:version="0.92.2 5c3e80d, 2017-08-06"
   sodipodi:docname="dd.svg">
  <defs
     id="defs2">
    <linearGradient
       inkscape:collect="always"
       id="linearGradient1346">
      <stop
         style="stop-color:#2f5fdd;stop-opacity:1"
         offset="0"
         id="stop1342" />
      <stop
         style="stop-color:#799df6;stop-opacity:1"
         offset="1"
         id="stop1344" />
    </linearGradient>
    <linearGradient
       inkscape:collect="always"
       xlink:href="#linearGradient1346"
       id="linearGradient1348"
       x1="-33.375599"
       y1="144.96455"
       x2="-35.26548"
       y2="116.04938"
       gradientUnits="userSpaceOnUse" />
  </defs>
  <sodipodi:namedview
     id="base"
     pagecolor="#ffffff"
     bordercolor="#666666"
     borderopacity="1.0"
     inkscape:pageopacity="0.0"
     inkscape:pageshadow="2"
     inkscape:zoom="3.959798"
     inkscape:cx="39.198928"
     inkscape:cy="83.596065"
     inkscape:document-units="mm"
     inkscape:current-layer="layer1"
     showgrid="false"
     units="px"
     inkscape:window-width="1600"
     inkscape:window-height="803"
     inkscape:window-x="0"
     inkscape:window-y="0"
     inkscape:window-maximized="1" />
  <metadata
     id="metadata5">
    <rdf:RDF>
      <cc:Work
         rdf:about="">
        <dc:format>image/svg+xml</dc:format>
        <dc:type
           rdf:resource="http://purl.org/dc/dcmitype/StillImage" />
        <dc:title></dc:title>
      </cc:Work>
    </rdf:RDF>
  </metadata>
  <g
     inkscape:label="Layer 1"
     inkscape:groupmode="layer"
     id="layer1"
     transform="translate(0,-263.13332)">
    <g
       id="g1358"
       transform="matrix(0.98374862,0,0,0.98374862,52.741203,151.56247)">
      <circle
         style="opacity:0.25;fill:#000000;fill-opacity:1;stroke:none;stroke-width:0.2;stroke-miterlimit:4;stroke-dasharray:none;stroke-dashoffset:0;stroke-opacity:1"
         id="circle1352"
         cx="-36.39941"
         cy="130.94164"
         r="15.822673" />
      <circle
         r="15.822673"
         cy="130.41248"
         cx="-36.39941"
         id="path1340"
         style="opacity:1;fill:url(#linearGradient1348);fill-opacity:1;stroke:#1d3880;stroke-width:0.2;stroke-miterlimit:4;stroke-dasharray:none;stroke-dashoffset:0;stroke-opacity:1" />
      <path
         style="opacity:0.25;isolation:isolate;fill:#000000;fill-opacity:1;stroke-width:0.11795245"
         inkscape:connector-curvature="0"
         d="m -21.976654,134.68358 c 3.52e-4,-0.0904 0.0062,-0.15547 0.0062,-0.24746 v -1.53067 c -1.487146,-0.47039 -3.661124,-1.10698 -5.03811,-2.07078 1.050251,-0.7398 2.511684,-1.45234 5.03811,-2.03951 v -1.34797 c 0,-0.24876 -0.01327,-0.43229 -0.01618,-0.66903 -2.447765,0.58105 -4.422873,1.60074 -6.636841,2.99884 -0.652986,-0.51298 -1.063341,-0.95259 -1.585623,-1.48456 -0.169851,0.31269 -0.580223,1.19415 -0.729424,1.42629 0.546229,0.53255 0.773054,0.84442 1.207821,1.15923 -0.523231,0.37486 -0.530659,0.48089 -1.780959,1.58411 0.261031,0.49351 0.404228,0.97794 0.665496,1.45872 0.605093,-0.65027 1.062744,-1.17256 2.367178,-2.03729 1.804677,0.9487 3.354221,1.93148 6.502479,2.80008 z m -10.52006,-1.91308 c -0.214913,0.48822 -0.350435,0.81719 -0.671271,1.54496 1.230247,2.42817 1.406585,3.46283 2.543771,5.53125 0.484779,0.8245 1.575478,0.23591 1.157352,-0.54989 -1.149221,-2.3226 -1.838769,-3.97406 -3.029852,-6.52632 z m -9.938791,7.33983 c -0.541288,0.92016 -1.797477,0.49293 -1.095191,-0.93476 1.233676,-2.73827 4.007314,-9.56535 5.509449,-12.93161 0.437598,-1.01935 1.602264,-0.36352 1.255714,0.49199 -1.741443,4.02865 -4.079505,10.07691 -5.669972,13.37438 z m 7.542471,-4.09177 c -0.475118,0.78747 -1.731069,0.22765 -1.028792,-1.20005 1.233675,-2.73826 4.007322,-9.56511 5.509448,-12.93147 0.437616,-1.01947 1.602264,-0.36353 1.255732,0.49198 -1.741452,4.02853 -4.145921,10.34194 -5.736388,13.63954 z m -2.898918,-0.51485 c -0.475109,1.05261 -1.664777,0.55909 -0.962376,-0.86849 1.23342,-2.73828 1.75266,-4.3929 3.254786,-7.75916 0.437598,-1.01945 1.602264,-0.36352 1.255723,0.49199 -1.74146,4.02843 -1.957666,4.83805 -3.548133,8.13566 z m -13.030214,-8.27744 c -2.38e-4,0.0809 -0.0062,0.13886 -0.0062,0.22092 v 1.48502 c 1.498355,0.47524 3.682592,1.12739 5.048018,2.08305 -1.051676,0.74074 -2.515218,1.45411 -5.048018,2.04187 v 1.37899 c 0,0.23743 0.01327,0.41212 0.01547,0.6386 2.45282,-0.58056 4.430178,-1.60156 6.647451,-3.00178 0.652987,0.51285 1.063342,0.95234 1.585632,1.48432 0.169842,-0.3127 0.580215,-1.19393 0.729424,-1.42606 -0.546237,-0.53266 -0.773062,-0.84465 -1.20783,-1.15946 0.523231,-0.37486 0.530669,-0.48089 1.780959,-1.58411 -0.261031,-0.49351 -0.404228,-0.97806 -0.665496,-1.45872 -0.605093,0.65027 -1.062743,1.17268 -2.367177,2.03716 -1.783218,-0.93714 -3.431838,-1.88111 -6.513108,-2.7398 z m 10.474531,1.5355 c 0.214923,-0.4882 0.35033,-0.81717 0.671149,-1.54481 -1.230124,-2.42829 -1.406463,-3.46298 -2.543639,-5.53139 -0.48478,-0.82448 -1.575496,-0.2359 -1.157344,0.5499 1.149203,2.3226 1.83876,3.97405 3.029834,6.5263 z"
         id="path1350" />
      <path
         id="path1269"
         d="m -21.976654,134.15441 c 3.52e-4,-0.0904 0.0062,-0.15547 0.0062,-0.24746 v -1.53067 c -1.487146,-0.47039 -3.661124,-1.10698 -5.03811,-2.07078 1.050251,-0.7398 2.511684,-1.45234 5.03811,-2.03951 v -1.34797 c 0,-0.24876 -0.01327,-0.43229 -0.01618,-0.66903 -2.447765,0.58105 -4.422873,1.60074 -6.636841,2.99884 -0.652986,-0.51298 -1.063341,-0.95259 -1.585623,-1.48456 -0.169851,0.31269 -0.580223,1.19415 -0.729424,1.42629 0.546229,0.53255 0.773054,0.84442 1.207821,1.15923 -0.523231,0.37486 -0.530659,0.48089 -1.780959,1.58411 0.261031,0.49351 0.404228,0.97794 0.665496,1.45872 0.605093,-0.65027 1.062744,-1.17256 2.367178,-2.03729 1.804677,0.9487 3.354221,1.93148 6.502479,2.80008 z m -10.52006,-1.91308 c -0.214913,0.48822 -0.350435,0.81719 -0.671271,1.54496 1.230247,2.42817 1.406585,3.46283 2.543771,5.53125 0.484779,0.8245 1.575478,0.23591 1.157352,-0.54989 -1.149221,-2.3226 -1.838769,-3.97406 -3.029852,-6.52632 z m -9.938791,7.33983 c -0.541288,0.92016 -1.797477,0.49293 -1.095191,-0.93476 1.233676,-2.73827 4.007314,-9.56535 5.509449,-12.93161 0.437598,-1.01935 1.602264,-0.36352 1.255714,0.49199 -1.741443,4.02865 -4.079505,10.07691 -5.669972,13.37438 z m 7.542471,-4.09177 c -0.475118,0.78747 -1.731069,0.22765 -1.028792,-1.20005 1.233675,-2.73826 4.007322,-9.56511 5.509448,-12.93147 0.437616,-1.01947 1.602264,-0.36353 1.255732,0.49198 -1.741452,4.02853 -4.145921,10.34194 -5.736388,13.63954 z m -2.898918,-0.51485 c -0.475109,1.05261 -1.664777,0.55909 -0.962376,-0.86849 1.23342,-2.73828 1.75266,-4.3929 3.254786,-7.75916 0.437598,-1.01945 1.602264,-0.36352 1.255723,0.49199 -1.74146,4.02843 -1.957666,4.83805 -3.548133,8.13566 z m -13.030214,-8.27744 c -2.38e-4,0.0809 -0.0062,0.13886 -0.0062,0.22092 v 1.48502 c 1.498355,0.47524 3.682592,1.12739 5.048018,2.08305 -1.051676,0.74074 -2.515218,1.45411 -5.048018,2.04187 v 1.37899 c 0,0.23743 0.01327,0.41212 0.01547,0.6386 2.45282,-0.58056 4.430178,-1.60156 6.647451,-3.00178 0.652987,0.51285 1.063342,0.95234 1.585632,1.48432 0.169842,-0.3127 0.580215,-1.19393 0.729424,-1.42606 -0.546237,-0.53266 -0.773062,-0.84465 -1.20783,-1.15946 0.523231,-0.37486 0.530669,-0.48089 1.780959,-1.58411 -0.261031,-0.49351 -0.404228,-0.97806 -0.665496,-1.45872 -0.605093,0.65027 -1.062743,1.17268 -2.367177,2.03716 -1.783218,-0.93714 -3.431838,-1.88111 -6.513108,-2.7398 z m 10.474531,1.5355 c 0.214923,-0.4882 0.35033,-0.81717 0.671149,-1.54481 -1.230124,-2.42829 -1.406463,-3.46298 -2.543639,-5.53139 -0.48478,-0.82448 -1.575496,-0.2359 -1.157344,0.5499 1.149203,2.3226 1.83876,3.97405 3.029834,6.5263 z"
         inkscape:connector-curvature="0"
         style="isolation:isolate;fill:#ffffff;fill-opacity:1;stroke-width:0.11795245" />
    </g>
  </g>
</svg>
