<?xml version="1.0" encoding="UTF-8" standalone="no"?>
<!-- Created with Inkscape (http://www.inkscape.org/) -->

<svg
   xmlns:osb="http://www.openswatchbook.org/uri/2009/osb"
   xmlns:dc="http://purl.org/dc/elements/1.1/"
   xmlns:cc="http://creativecommons.org/ns#"
   xmlns:rdf="http://www.w3.org/1999/02/22-rdf-syntax-ns#"
   xmlns:svg="http://www.w3.org/2000/svg"
   xmlns="http://www.w3.org/2000/svg"
   xmlns:xlink="http://www.w3.org/1999/xlink"
   xmlns:sodipodi="http://sodipodi.sourceforge.net/DTD/sodipodi-0.dtd"
   xmlns:inkscape="http://www.inkscape.org/namespaces/inkscape"
   width="128"
   height="128"
   viewBox="0 0 33.866666 33.866668"
   version="1.1"
   id="svg8"
   inkscape:version="0.92.2 5c3e80d, 2017-08-06"
   sodipodi:docname="gda-browser-5.0 2.svg">
  <defs
     id="defs2">
    <linearGradient
       osb:paint="solid"
       id="linearGradient6987">
      <stop
         id="stop6985"
         offset="0"
         style="stop-color:#77d2fb;stop-opacity:1;" />
    </linearGradient>
    <radialGradient
       gradientUnits="userSpaceOnUse"
       gradientTransform="matrix(0.51836295,0,0,0.20020546,-23.539746,272.84272)"
       r="22.627"
       cy="41.636"
       cx="23.335"
       id="radialGradient2490">
      <stop
         offset="0"
         id="stop23421" />
      <stop
         offset="1"
         style="stop-opacity:0"
         id="stop23423" />
    </radialGradient>
    <linearGradient
       xlink:href="#linearGradient3858"
       gradientUnits="userSpaceOnUse"
       gradientTransform="matrix(0.90225397,0,0,0.90615311,-96.397656,258.9359)"
       y2="27.546"
       y1="22.537"
       x2="89.018"
       x1="89.018"
       id="linearGradient2479" />
    <linearGradient
       xlink:href="#linearGradient2793"
       spreadMethod="reflect"
       gradientUnits="userSpaceOnUse"
       gradientTransform="matrix(0.41307894,0,0,0.39172093,-54.3842,284.7233)"
       y2="-7.6657"
       y1="-7.6657"
       x2="89.424"
       x1="103.95"
       id="linearGradient2477" />
    <linearGradient
       xlink:href="#linearGradient3858"
       gradientUnits="userSpaceOnUse"
       gradientTransform="matrix(0.90225397,0,0,0.90615311,-96.397656,253.49898)"
       y2="27.546"
       y1="22.537"
       x2="89.018"
       x1="89.018"
       id="linearGradient2473" />
    <linearGradient
       xlink:href="#linearGradient2793"
       spreadMethod="reflect"
       gradientUnits="userSpaceOnUse"
       gradientTransform="matrix(0.41307894,0,0,0.39172093,-54.3842,279.28638)"
       y2="-7.6657"
       y1="-7.6657"
       x2="89.424"
       x1="103.95"
       id="linearGradient2471" />
    <linearGradient
       id="linearGradient3858">
      <stop
         offset="0"
         style="stop-color:#a0a0a0"
         id="stop3860" />
      <stop
         offset="1"
         style="stop-color:#4a4a4a"
         id="stop3862" />
    </linearGradient>
    <linearGradient
       xlink:href="#linearGradient3858"
       gradientUnits="userSpaceOnUse"
       gradientTransform="matrix(0.90225397,0,0,0.90615311,-96.397656,248.06206)"
       y2="27.546"
       y1="22.537"
       x2="89.018"
       x1="89.018"
       id="linearGradient2466" />
    <linearGradient
       id="linearGradient2793">
      <stop
         offset="0"
         style="stop-color:#868688"
         id="stop2795" />
      <stop
         offset="1"
         style="stop-color:#d9d9da"
         id="stop2797" />
    </linearGradient>
    <linearGradient
       xlink:href="#linearGradient2793"
       spreadMethod="reflect"
       gradientUnits="userSpaceOnUse"
       gradientTransform="matrix(0.41307894,0,0,0.39172093,-54.3842,273.84946)"
       y2="-7.6657"
       y1="-7.6657"
       x2="89.424"
       x1="103.95"
       id="linearGradient2463" />
    <linearGradient
       gradientUnits="userSpaceOnUse"
       gradientTransform="matrix(0.41334961,0,0,0.39770154,-54.409463,270.24387)"
       y2="-2.3758"
       y1="-24.911"
       x2="109.96"
       x1="109.96"
       id="linearGradient2460">
      <stop
         offset="0"
         style="stop-color:#b3b3b3"
         id="stop2511" />
      <stop
         offset="1"
         style="stop-color:#dadada"
         id="stop2513" />
    </linearGradient>
    <linearGradient
       spreadMethod="reflect"
       gradientUnits="userSpaceOnUse"
       gradientTransform="matrix(0.41334961,0,0,0.39770154,-54.409463,270.24387)"
       y2="-24.582"
       y1="-2.3925"
       x2="102.31"
       x1="102.31"
       id="linearGradient2458">
      <stop
         offset="0"
         style="stop-color:#a5a6a8"
         id="stop3846" />
      <stop
         offset="1"
         style="stop-color:#e8e8e8"
         id="stop3848" />
    </linearGradient>
    <linearGradient
       id="linearGradient1104"
       inkscape:collect="always">
      <stop
         style="stop-color:#cdd4d7;stop-opacity:1"
         offset="0"
         id="stop1100" />
      <stop
         style="stop-color:#878684;stop-opacity:1"
         offset="1"
         id="stop1102" />
    </linearGradient>
    <linearGradient
       inkscape:collect="always"
       xlink:href="#linearGradient1104"
       id="linearGradient1048"
       gradientUnits="userSpaceOnUse"
       gradientTransform="matrix(0.214021,0,0,0.21403331,36.813933,184.72782)"
       x1="-425.94803"
       y1="286.10971"
       x2="-422.19818"
       y2="393.44238" />
  </defs>
  <sodipodi:namedview
     id="base"
     pagecolor="#ffffff"
     bordercolor="#666666"
     borderopacity="1.0"
     inkscape:pageopacity="0.0"
     inkscape:pageshadow="2"
     inkscape:zoom="2.5600001"
     inkscape:cx="111.87516"
     inkscape:cy="60.856744"
     inkscape:document-units="mm"
     inkscape:current-layer="layer1"
     showgrid="false"
     units="px"
     inkscape:window-width="1600"
     inkscape:window-height="803"
     inkscape:window-x="0"
     inkscape:window-y="0"
     inkscape:window-maximized="1"
     showguides="false" />
  <metadata
     id="metadata5">
    <rdf:RDF>
      <cc:Work
         rdf:about="">
        <dc:format>image/svg+xml</dc:format>
        <dc:type
           rdf:resource="http://purl.org/dc/dcmitype/StillImage" />
        <dc:title />
      </cc:Work>
    </rdf:RDF>
  </metadata>
  <g
     inkscape:label="Layer 1"
     inkscape:groupmode="layer"
     id="layer1"
     transform="translate(0,-263.13332)">
    <g
       style="stroke-width:4.08449793"
       inkscape:transform-center-y="-9.4924686"
       inkscape:transform-center-x="5.4653607"
       inkscape:label="Capa 1"
       id="layer1-4-3"
       transform="matrix(0.53602412,0,0,0.5372689,-234.93365,-13.785303)">
      <g
         style="stroke-width:4.08449793"
         id="layer1-3-65-9"
         inkscape:label="Capa 1"
         transform="translate(0.41988239,0.03484499)" />
    </g>
    <g
       style="stroke-width:4.08449793"
       inkscape:transform-center-y="-9.4924686"
       inkscape:transform-center-x="5.4653607"
       inkscape:label="Capa 1"
       id="layer1-4"
       transform="matrix(0.53602412,0,0,0.5372689,-234.93365,-13.7603)">
      <g
         style="stroke-width:4.08449793"
         id="layer1-3-65"
         inkscape:label="Capa 1"
         transform="translate(0.41988239,0.03484499)" />
    </g>
    <g
       id="g876"
       transform="matrix(1.2673886,0,0,1.2673886,31.437491,-66.16293)">
      <path
         style="opacity:0.3;fill:url(#radialGradient2490);fill-rule:evenodd;stroke-width:0.26458335"
         d="m 0.28517321,281.17842 c 9.9253e-4,2.50217 -5.25066761,4.53078 -11.72930221,4.53078 -6.478635,0 -11.730204,-2.02861 -11.729301,-4.53078 -9.93e-4,-2.50215 5.250666,-4.53076 11.729301,-4.53076 6.4786346,0 11.73020495,2.02861 11.72930221,4.53076 z"
         id="path23417"
         inkscape:connector-curvature="0" />
      <path
         style="fill:url(#linearGradient2477);stroke:url(#linearGradient2479);stroke-width:0.26458335"
         d="m -1.0772308,279.42775 c 0,2.21699 -4.6454342,4.01624 -10.3696042,4.01624 -5.723899,0 -10.369605,-1.79925 -10.369605,-4.01624 0.103274,-4.95612 -1.267396,-3.93272 10.369605,-4.01627 11.90343668,-0.0862 10.2234389,-1.02095 10.3696042,4.01627 z"
         id="path4834"
         inkscape:connector-curvature="0" />
      <path
         style="fill:#868688;stroke:#d8d8d8;stroke-width:0.26458335"
         d="m -1.0682083,275.74151 c 0,2.25206 -4.6454342,4.07769 -10.3759207,4.07769 -5.730485,0 -10.375921,-1.82563 -10.375921,-4.07769 0,-2.25206 4.645436,-4.07769 10.375921,-4.07769 5.7304865,0 10.3759207,1.82563 10.3759207,4.07769 z"
         id="path4838"
         inkscape:connector-curvature="0" />
      <path
         style="fill:url(#linearGradient2471);stroke:url(#linearGradient2473);stroke-width:0.26458335"
         d="m -1.0772308,273.99082 c 0,2.21699 -4.6454342,4.01625 -10.3696042,4.01625 -5.723899,0 -10.369605,-1.79926 -10.369605,-4.01625 0.103274,-4.95612 -1.267396,-3.9327 10.369605,-4.01626 11.90343668,-0.0862 10.2234389,-1.02095 10.3696042,4.01626 z"
         id="path3866"
         inkscape:connector-curvature="0" />
      <path
         style="fill:#868688;stroke:#d8d8d8;stroke-width:0.26458335"
         d="m -1.0682083,270.30459 c 0,2.25206 -4.6454342,4.07768 -10.3759207,4.07768 -5.730485,0 -10.375921,-1.82562 -10.375921,-4.07768 0,-2.25206 4.645436,-4.07769 10.375921,-4.07769 5.7304865,0 10.3759207,1.82563 10.3759207,4.07769 z"
         id="path3868"
         inkscape:connector-curvature="0" />
      <path
         style="fill:url(#linearGradient2463);stroke:url(#linearGradient2466);stroke-width:0.26458335"
         d="m -1.0772308,268.5539 c 0,2.21699 -4.6454342,4.01625 -10.3696042,4.01625 -5.723899,0 -10.369605,-1.79926 -10.369605,-4.01625 0.103274,-4.95612 -1.267396,-3.9327 10.369605,-4.01625 11.90343668,-0.0862 10.2234389,-1.02097 10.3696042,4.01625 z"
         id="path3878"
         inkscape:connector-curvature="0" />
      <path
         style="fill:url(#linearGradient2458);stroke:url(#linearGradient2460);stroke-width:0.26458335"
         d="m -1.0682083,264.86767 c 0,2.25207 -4.6454342,4.0777 -10.3759207,4.0777 -5.730485,0 -10.375921,-1.82563 -10.375921,-4.0777 0,-2.25207 4.645436,-4.07769 10.375921,-4.07769 5.7304865,0 10.3759207,1.82562 10.3759207,4.07769 z"
         id="path3880"
         inkscape:connector-curvature="0" />
    </g>
    <g
       id="g1080"
       transform="matrix(0.49565535,0,0,0.49565535,51.384199,159.06097)">
      <ellipse
         ry="14.703374"
         rx="14.702529"
         style="opacity:1;fill:#2d2f33;fill-opacity:1;fill-rule:nonzero;stroke:none;stroke-width:0.01146859;stroke-linecap:round;stroke-linejoin:round;stroke-miterlimit:4;stroke-dasharray:none;stroke-dashoffset:0;stroke-opacity:1"
         id="circle1042"
         cx="-54.338806"
         cy="257.59912" />
      <path
         inkscape:connector-curvature="0"
         id="path1172"
         d="m -54.347893,246.48416 c -0.510832,0 -0.498425,-0.017 -0.667825,0.88811 -0.0626,0.33423 -0.128299,0.62252 -0.145919,0.64014 -0.06155,0.0618 -0.808132,0.15673 -0.929045,0.11818 -0.07841,-0.0254 -0.23288,-0.27024 -0.431584,-0.68685 -0.349065,-0.731 -0.357029,-0.7355 -0.959241,-0.53432 -0.298449,0.0999 -0.311792,0.11437 -0.329412,0.35327 -0.01014,0.13724 0.0076,0.45935 0.03855,0.71566 0.03135,0.25586 0.03515,0.50916 0.0076,0.56216 -0.06141,0.11861 -0.835324,0.44338 -0.94414,0.39564 -0.04401,-0.0212 -0.271975,-0.27279 -0.50707,-0.56372 -0.385449,-0.4768 -0.443742,-0.5251 -0.591292,-0.4885 -0.23199,0.0567 -0.693602,0.33507 -0.734981,0.44343 -0.01906,0.0479 0.06645,0.35921 0.190395,0.68681 0.123937,0.32787 0.225467,0.64807 0.225467,0.71147 0,0.12962 -0.605621,0.6171 -0.766218,0.6171 -0.05582,0 -0.357405,-0.16817 -0.670168,-0.37318 -0.312765,-0.20503 -0.599629,-0.3732 -0.637496,-0.3732 -0.09348,0 -0.664317,0.56792 -0.664317,0.66094 0,0.0436 0.181755,0.3465 0.403833,0.67844 0.455573,0.68152 0.455467,0.63894 -7.53e-4,1.1794 -0.238513,0.28256 -0.211235,0.28423 -1.17062,-0.0682 l -0.487446,-0.1796 -0.150622,0.18682 c -0.08285,0.1029 -0.198104,0.31006 -0.256176,0.46141 l -0.105553,0.27492 0.337629,0.28551 c 0.185694,0.15715 0.445708,0.38419 0.577756,0.50492 l 0.240164,0.21984 -0.166336,0.41513 c -0.09145,0.22832 -0.198866,0.44125 -0.238724,0.47256 -0.04456,0.034 -0.346312,0.0296 -0.78041,-0.009 -0.818352,-0.0758 -0.804416,-0.0831 -0.939849,0.48158 -0.104539,0.43584 -0.08831,0.45613 0.654816,0.81022 0.365668,0.17451 0.591771,0.32023 0.61641,0.39775 0.0509,0.16055 -0.06756,0.89112 -0.153037,0.94394 -0.03642,0.0211 -0.352155,0.0907 -0.701666,0.1508 -0.349488,0.061 -0.670467,0.13894 -0.713247,0.17325 -0.104958,0.0852 -0.104958,0.88193 0,0.96723 0.04295,0.034 0.36372,0.1131 0.713247,0.17325 0.349488,0.0607 0.665189,0.12878 0.701666,0.15165 0.08548,0.053 0.20395,0.78349 0.153037,0.94391 -0.02456,0.0775 -0.250754,0.22408 -0.61641,0.39775 -0.740344,0.35328 -0.762686,0.37997 -0.658717,0.79369 0.128511,0.51179 0.155197,0.54101 0.487179,0.53877 0.16138,-9.8e-4 0.489406,-0.0254 0.728999,-0.0585 0.320982,-0.0437 0.455572,-0.034 0.511522,0.017 0.146683,0.14444 0.381977,0.81449 0.323948,0.92285 -0.03008,0.0567 -0.281676,0.29185 -0.558624,0.52296 -0.449205,0.37446 -0.499271,0.43758 -0.463738,0.58207 0.05667,0.23043 0.335554,0.69232 0.443056,0.73363 0.04985,0.0212 0.359061,-0.0669 0.686821,-0.1902 0.327802,-0.12412 0.647746,-0.22536 0.711168,-0.22536 0.129315,0 0.617329,0.60566 0.617329,0.76625 0,0.0556 -0.168073,0.35752 -0.373464,0.67008 -0.205346,0.31261 -0.373419,0.59973 -0.373419,0.63755 0,0.0944 0.568394,0.66434 0.662622,0.66434 0.04193,0 0.327251,-0.16818 0.634239,-0.3732 0.307004,-0.20502 0.607301,-0.37318 0.667304,-0.37318 0.159601,0 0.773898,0.49433 0.773898,0.62281 0,0.0605 -0.101234,0.37742 -0.225213,0.70571 -0.123937,0.32785 -0.209838,0.63696 -0.190692,0.68687 0.04151,0.10752 0.503301,0.38673 0.735248,0.44341 0.147529,0.034 0.205728,-0.009 0.591161,-0.48849 0.235167,-0.291 0.460342,-0.54351 0.500594,-0.56127 0.105718,-0.0479 0.891083,0.27788 0.94935,0.39268 0.02712,0.053 0.02668,0.2927 -9.82e-4,0.53233 -0.02753,0.23975 -0.05196,0.55606 -0.05358,0.70329 -0.0029,0.24865 0.0127,0.27449 0.215937,0.35922 0.120506,0.0478 0.341991,0.10797 0.492224,0.12919 l 0.273203,0.034 0.313274,-0.65573 c 0.20145,-0.42189 0.356603,-0.66965 0.435083,-0.69456 0.12093,-0.034 0.867601,0.0563 0.929175,0.11819 0.01736,0.017 0.08328,0.30539 0.145921,0.64 0.06261,0.33421 0.141939,0.67098 0.176247,0.7482 0.05596,0.12538 0.106567,0.1402 0.491733,0.1402 0.277058,0 0.453187,-0.0254 0.496679,-0.0814 0.03727,-0.0436 0.114322,-0.3647 0.171802,-0.71057 0.05748,-0.34651 0.123681,-0.66038 0.147232,-0.69842 0.05447,-0.0881 0.782904,-0.20757 0.947525,-0.15546 0.07772,0.0254 0.208227,0.21814 0.347286,0.51552 0.122497,0.2622 0.277821,0.55626 0.345126,0.65394 0.110213,0.1597 0.147064,0.17325 0.368591,0.1381 0.135416,-0.0212 0.341441,-0.0792 0.457903,-0.12793 0.199586,-0.083 0.211573,-0.10544 0.209709,-0.38717 -9.82e-4,-0.16436 -0.02753,-0.49485 -0.05871,-0.73435 -0.04193,-0.32023 -0.03727,-0.45507 0.01736,-0.5081 0.115252,-0.11309 0.849277,-0.39225 0.933076,-0.35497 0.04066,0.017 0.265198,0.26897 0.498106,0.55689 0.232922,0.28805 0.471216,0.52404 0.529241,0.52352 0.124233,-7.5e-4 0.729685,-0.3376 0.794204,-0.44231 0.02456,-0.0339 -0.0643,-0.3931 -0.197554,-0.78564 l -0.242494,-0.71354 0.338687,-0.30458 c 0.186203,-0.16773 0.369609,-0.30499 0.407518,-0.30499 0.03812,0 0.343051,0.18215 0.678104,0.40497 0.335087,0.22239 0.646666,0.40495 0.692293,0.40495 0.107206,0 0.652854,-0.54461 0.652854,-0.65157 0,-0.0436 -0.168072,-0.33761 -0.37342,-0.6503 -0.205347,-0.31305 -0.373548,-0.6143 -0.373548,-0.67009 0,-0.15419 0.497892,-0.76638 0.622921,-0.76638 0.06032,0 0.378038,0.10125 0.705831,0.22536 0.327802,0.12411 0.637572,0.20968 0.688524,0.18977 0.110424,-0.0436 0.470473,-0.65169 0.471532,-0.7975 5e-4,-0.0563 -0.237496,-0.30287 -0.52844,-0.54758 -0.606672,-0.51077 -0.62522,-0.56999 -0.354189,-1.12384 0.140117,-0.28635 0.192937,-0.341 0.323015,-0.33295 0.08552,0.004 0.428569,0.0296 0.762183,0.0547 l 0.60652,0.0478 0.09484,-0.22704 c 0.05197,-0.12497 0.111823,-0.35032 0.132493,-0.5012 l 0.0377,-0.27449 -0.656628,-0.31473 c -0.414973,-0.19866 -0.67072,-0.35837 -0.694767,-0.43449 -0.05146,-0.16096 0.06998,-0.88933 0.156806,-0.94304 0.03812,-0.0212 0.352326,-0.0898 0.69841,-0.14742 0.346099,-0.0572 0.665747,-0.1347 0.710383,-0.17197 0.11051,-0.0919 0.11051,-0.88388 0,-0.97559 -0.04452,-0.034 -0.364313,-0.11479 -0.710383,-0.17199 -0.3461,-0.0572 -0.660382,-0.12326 -0.69841,-0.1474 -0.08746,-0.0542 -0.207719,-0.78234 -0.156044,-0.94508 0.02499,-0.0783 0.272738,-0.23383 0.694509,-0.43537 l 0.655844,-0.31305 -0.0377,-0.27321 c -0.02076,-0.14996 -0.07866,-0.37192 -0.128977,-0.49222 -0.08696,-0.20798 -0.106655,-0.219 -0.390321,-0.21688 -0.164303,9.8e-4 -0.494761,0.0254 -0.734325,0.0588 -0.510571,0.0665 -0.515553,0.0631 -0.735509,-0.4646 -0.105553,-0.25331 -0.137618,-0.40538 -0.100044,-0.47574 0.03008,-0.0567 0.27981,-0.29058 0.554332,-0.51979 0.274515,-0.22916 0.498479,-0.46248 0.498479,-0.5198 -7.59e-4,-0.14697 -0.360586,-0.75615 -0.471537,-0.7988 -0.05091,-0.0211 -0.360713,0.0656 -0.688518,0.18976 -0.327802,0.12411 -0.645463,0.22535 -0.705832,0.22535 -0.125037,0 -0.622915,-0.61247 -0.622915,-0.76637 0,-0.0555 0.168199,-0.35751 0.373505,-0.67017 0.205346,-0.31303 0.37342,-0.60527 0.37342,-0.65021 0,-0.10764 -0.546263,-0.65158 -0.654545,-0.65158 -0.04668,0 -0.31717,0.15674 -0.601708,0.34735 -0.762975,0.51233 -0.674202,0.49802 -1.103322,0.17537 -0.217801,-0.16394 -0.378589,-0.33253 -0.378589,-0.39691 0,-0.0618 0.101488,-0.38039 0.225468,-0.70812 0.123936,-0.32787 0.209328,-0.63773 0.18976,-0.68874 -0.04287,-0.11182 -0.652359,-0.4709 -0.800584,-0.47145 -0.05798,-2.2e-4 -0.296246,0.23552 -0.529185,0.52348 -0.232921,0.28805 -0.456309,0.53847 -0.496565,0.55626 -0.105728,0.0479 -0.890965,-0.27788 -0.94935,-0.39267 -0.02712,-0.053 -0.02753,-0.26476 -9.82e-4,-0.4699 0.02668,-0.20544 0.05035,-0.52186 0.05349,-0.70338 0.0051,-0.31812 -0.002,-0.33295 -0.20628,-0.41808 -0.116482,-0.0478 -0.322507,-0.10589 -0.457902,-0.12793 -0.221569,-0.034 -0.258293,-0.0211 -0.368507,0.13809 -0.0673,0.0974 -0.22267,0.39226 -0.345125,0.65378 -0.139058,0.29695 -0.269688,0.49116 -0.347371,0.51556 -0.164642,0.053 -0.892914,-0.0668 -0.947402,-0.15547 -0.0233,-0.034 -0.08984,-0.35284 -0.147318,-0.69862 -0.05748,-0.3465 -0.134865,-0.66577 -0.171927,-0.71043 -0.04333,-0.0529 -0.219537,-0.0809 -0.496519,-0.0809 z m -0.312766,3.48391 c 0.171547,7.6e-4 0.347455,0.009 0.525581,0.0254 0.178153,0.017 0.35851,0.0437 0.539231,0.0694 0.361433,0.0589 0.724183,0.14106 1.072211,0.23722 0.348006,0.0958 0.681437,0.20544 0.984362,0.31812 0.302939,0.11309 0.57535,0.22916 0.801495,0.33845 0.150114,0.0728 0.298109,0.1525 0.44358,0.23932 0.145455,0.0869 0.288411,0.17919 0.428307,0.27747 0.139948,0.0978 0.276846,0.20206 0.410483,0.31007 0.13368,0.10797 0.264054,0.22112 0.390576,0.33761 0.253083,0.23297 0.491049,0.48052 0.710768,0.73472 0.21975,0.25458 0.4212,0.51607 0.601052,0.77696 0.179848,0.26094 0.338222,0.52192 0.471693,0.77476 0.13351,0.25288 0.242156,0.49802 0.322762,0.72782 0.04024,0.11521 0.07352,0.22577 0.09945,0.33252 0.02583,0.10676 0.04456,0.20799 0.05506,0.30414 0.01058,0.0958 0.01313,0.18596 0.008,0.26983 -0.0051,0.0838 -0.01906,0.16054 -0.04151,0.23044 -0.02542,0.0792 -0.0579,0.14995 -0.09645,0.21519 -0.03855,0.0648 -0.08307,0.12368 -0.132113,0.17537 -0.04879,0.053 -0.102633,0.0987 -0.159305,0.13936 -0.05671,0.0437 -0.116525,0.0767 -0.178027,0.1072 -0.12309,0.0618 -0.253126,0.10423 -0.378756,0.13174 -0.12559,0.0254 -0.246774,0.0437 -0.352286,0.0437 -0.533314,0.017 -0.998806,0.009 -1.656218,-0.004 -0.657408,-0.017 -1.506736,-0.0437 -2.807697,-0.053 v -9e-5 c -0.01949,0.002 -0.102677,0.004 -0.2275,-0.004 -0.06243,-0.004 -0.135161,-0.017 -0.215513,-0.0296 -0.08043,-0.017 -0.168327,-0.0437 -0.261089,-0.0771 -0.09276,-0.0296 -0.19031,-0.0783 -0.289808,-0.1347 -0.09954,-0.0558 -0.20111,-0.12496 -0.301794,-0.20969 -0.100727,-0.0838 -0.20056,-0.18298 -0.296881,-0.2999 -0.09632,-0.11691 -0.188998,-0.25077 -0.275236,-0.40581 -0.427782,-0.7667 -0.800224,-1.40396 -1.153042,-2.03142 -0.176376,-0.31431 -0.347837,-0.62494 -0.518947,-0.94873 -0.17108,-0.32406 -0.341863,-0.66027 -0.516561,-1.02409 -0.05582,-0.11607 -0.108991,-0.25204 -0.139272,-0.39691 -0.01525,-0.0725 -0.02456,-0.14741 -0.02542,-0.22323 -0.0012,-0.0758 0.0055,-0.15335 0.02414,-0.23002 0.01779,-0.0771 0.04667,-0.15462 0.08823,-0.22959 0.04193,-0.0758 0.09696,-0.14995 0.167945,-0.22239 0.0709,-0.072 0.157739,-0.1419 0.262784,-0.20714 0.105046,-0.0657 0.228433,-0.1275 0.372616,-0.18468 0.08984,-0.034 0.183957,-0.0657 0.281674,-0.0911 0.09776,-0.0254 0.199079,-0.0479 0.303532,-0.0622 0.208906,-0.0296 0.430052,-0.0478 0.658848,-0.0436 z m -4.67737,2.4136 c 0.0654,9.8e-4 0.128766,0.009 0.190015,0.0212 0.06124,0.009 0.120336,0.0296 0.17718,0.0547 0.113686,0.0479 0.218224,0.10974 0.312679,0.183 0.09442,0.0733 0.178494,0.15672 0.251432,0.24102 0.07297,0.0847 0.134739,0.17071 0.184043,0.24992 0.284978,0.45821 0.512211,0.87066 0.830126,1.45506 0.317976,0.58448 0.726544,1.34081 1.374044,2.4865 0.01187,0.017 0.05812,0.0864 0.110722,0.20164 0.02668,0.0576 0.05421,0.12666 0.07976,0.20629 0.02542,0.0797 0.04879,0.16943 0.0665,0.26771 0.01736,0.0983 0.02922,0.20587 0.03134,0.32193 0.0022,0.11564 -0.0051,0.23975 -0.02542,0.37022 -0.02076,0.13047 -0.05421,0.26813 -0.104792,0.41174 -0.0504,0.14317 -0.118008,0.29228 -0.205941,0.44604 -0.435961,0.76193 -0.789817,1.40994 -1.145226,2.03589 -0.17773,0.31303 -0.355716,0.62035 -0.5447,0.93374 -0.188956,0.31346 -0.388839,0.63276 -0.610033,0.96956 -0.0707,0.10764 -0.159093,0.22282 -0.26706,0.32235 -0.054,0.0478 -0.11284,0.0958 -0.176842,0.13514 -0.06399,0.0339 -0.13317,0.072 -0.207719,0.0953 -0.07451,0.0211 -0.154392,0.034 -0.239911,0.034 -0.08548,9.8e-4 -0.176671,-0.009 -0.273584,-0.034 -0.09696,-0.0254 -0.199798,-0.0669 -0.308614,-0.12581 -0.108814,-0.0589 -0.223731,-0.13555 -0.344914,-0.2334 -0.07552,-0.061 -0.148674,-0.12835 -0.219579,-0.20078 -0.0709,-0.0728 -0.139567,-0.1508 -0.205855,-0.2351 -0.132621,-0.16732 -0.256177,-0.35369 -0.370795,-0.55475 -0.114661,-0.20078 -0.220422,-0.41596 -0.317467,-0.64 -0.09699,-0.22408 -0.185269,-0.45613 -0.265029,-0.69156 -0.07972,-0.23551 -0.15096,-0.47363 -0.213734,-0.70915 -0.06278,-0.23551 -0.117159,-0.46832 -0.163329,-0.69317 -0.04612,-0.22493 -0.08424,-0.44075 -0.114152,-0.64344 -0.03008,-0.20247 -0.05198,-0.39055 -0.06587,-0.55996 -0.01398,-0.16815 -0.02076,-0.33844 -0.02076,-0.50919 2.1e-5,-0.17156 0.0072,-0.34311 0.01949,-0.51552 0.0127,-0.17239 0.03178,-0.3448 0.0566,-0.51657 0.02456,-0.17198 0.05476,-0.34269 0.08996,-0.51234 0.07027,-0.33972 0.160492,-0.67288 0.265919,-0.99393 0.105464,-0.32066 0.225933,-0.6295 0.357113,-0.91899 0.131221,-0.28974 0.27303,-0.55987 0.420691,-0.80449 0.147656,-0.24441 0.3012,-0.46354 0.455944,-0.65026 0.07738,-0.0932 0.15507,-0.17834 0.232456,-0.255 0.07734,-0.0766 0.154519,-0.14361 0.230761,-0.20164 0.07625,-0.0576 0.151639,-0.10587 0.225552,-0.14318 0.07396,-0.0339 0.146387,-0.0648 0.216784,-0.0801 0.07972,-0.017 0.15706,-0.0254 0.23182,-0.0254 z m 4.999633,4.90024 a 0.86549908,0.84009168 0 0 1 0.865529,0.84008 0.86549908,0.84009168 0 0 1 -0.865529,0.84003 0.86549908,0.84009168 0 0 1 -0.865527,-0.84003 0.86549908,0.84009168 0 0 1 0.865527,-0.84008 z m 4.297709,1.70345 c 0.3558,-9.8e-4 0.707101,5e-4 1.068959,0.009 0.361857,0.009 0.73426,0.0211 1.132214,0.0479 0.127198,0.009 0.269518,0.0254 0.408703,0.0724 0.06955,0.0211 0.138338,0.053 0.204077,0.0877 0.06574,0.0339 0.128469,0.0806 0.185736,0.13427 0.05726,0.0533 0.109199,0.11734 0.15346,0.19147 0.04456,0.0746 0.08082,0.1597 0.107503,0.25755 0.02668,0.0978 0.04333,0.20924 0.04773,0.33421 0.0042,0.12495 -0.0033,0.26475 -0.02542,0.4202 -0.01398,0.097 -0.03474,0.19528 -0.06078,0.29398 -0.02668,0.0983 -0.05892,0.19824 -0.0967,0.29821 -0.07557,0.20036 -0.172477,0.40242 -0.286079,0.60434 -0.113603,0.20164 -0.243808,0.40242 -0.385705,0.60008 -0.141854,0.19739 -0.29544,0.39224 -0.455783,0.58003 -0.160365,0.18808 -0.327547,0.37021 -0.496677,0.54376 -0.169088,0.17325 -0.340254,0.33802 -0.50839,0.49166 -0.168158,0.15335 -0.333224,0.29526 -0.490576,0.42317 -0.157356,0.12793 -0.306962,0.24189 -0.443852,0.33888 -0.136264,0.0971 -0.277779,0.18808 -0.423529,0.27449 -0.14575,0.0856 -0.295737,0.1669 -0.448887,0.24103 -0.153206,0.0754 -0.309589,0.14529 -0.468301,0.2101 -0.158711,0.0648 -0.319543,0.12411 -0.48172,0.17834 -0.324328,0.10841 -0.653705,0.19739 -0.980058,0.26559 -0.326361,0.0691 -0.649814,0.11776 -0.962235,0.14784 -0.312426,0.0296 -0.613828,0.0437 -0.896375,0.034 -0.282563,-0.004 -0.546139,-0.0296 -0.782882,-0.0737 -0.118346,-0.0211 -0.230042,-0.0479 -0.333986,-0.0758 -0.103944,-0.0296 -0.20018,-0.0631 -0.287647,-0.10169 -0.08751,-0.0339 -0.166252,-0.0801 -0.235293,-0.12623 -0.06904,-0.0475 -0.128512,-0.0958 -0.177139,-0.14995 -0.05506,-0.061 -0.10022,-0.12495 -0.136941,-0.19146 -0.03685,-0.0665 -0.0648,-0.13429 -0.08548,-0.2029 -0.02076,-0.0691 -0.03431,-0.13937 -0.04151,-0.20969 -0.0076,-0.0703 -0.008,-0.14063 -0.0042,-0.21011 0.008,-0.13893 0.03601,-0.2749 0.07396,-0.39945 0.03812,-0.12453 0.08633,-0.23805 0.135245,-0.33293 0.246986,-0.48053 0.484312,-0.88693 0.822436,-1.45968 0.338095,-0.57265 0.777046,-1.31128 1.427545,-2.45523 0.008,-0.017 0.04401,-0.0944 0.116229,-0.19911 0.03601,-0.053 0.08094,-0.11139 0.135585,-0.17325 0.05469,-0.0627 0.119108,-0.12791 0.194291,-0.19272 0.07522,-0.0653 0.16117,-0.12962 0.25859,-0.18934 0.09751,-0.0602 0.206577,-0.11608 0.328099,-0.1631 0.121565,-0.0478 0.255541,-0.0872 0.402986,-0.11479 0.147402,-0.0254 0.30819,-0.0437 0.483261,-0.0437 0.867927,0 1.597481,-0.017 2.309068,-0.017 z"
         style="opacity:0.25;fill:#000000;fill-opacity:1;stroke-width:0.01173384" />
      <path
         style="opacity:1;fill:url(#linearGradient1048);fill-opacity:1;stroke-width:0.01173384"
         d="m -54.347893,245.96482 c -0.510832,0 -0.498425,-0.017 -0.667825,0.88812 -0.0626,0.33422 -0.128299,0.62251 -0.145919,0.64013 -0.06155,0.0618 -0.808132,0.15673 -0.929045,0.11818 -0.07841,-0.0254 -0.23288,-0.27024 -0.431584,-0.68685 -0.349065,-0.731 -0.357029,-0.73549 -0.959241,-0.53432 -0.298449,0.0999 -0.311792,0.11437 -0.329412,0.35327 -0.01014,0.13724 0.0076,0.45935 0.03855,0.71566 0.03135,0.25586 0.03515,0.50916 0.0076,0.56216 -0.06141,0.11861 -0.835324,0.44338 -0.94414,0.39564 -0.04401,-0.0212 -0.271975,-0.27279 -0.50707,-0.56372 -0.385449,-0.4768 -0.443742,-0.5251 -0.591292,-0.4885 -0.23199,0.0567 -0.693602,0.33507 -0.734981,0.44343 -0.01906,0.0479 0.06645,0.35921 0.190395,0.68682 0.123937,0.32786 0.225467,0.64806 0.225467,0.71146 0,0.12962 -0.605621,0.61711 -0.766218,0.61711 -0.05582,0 -0.357405,-0.16818 -0.670168,-0.37319 -0.312765,-0.20503 -0.599629,-0.3732 -0.637496,-0.3732 -0.09348,0 -0.664317,0.56792 -0.664317,0.66094 0,0.0436 0.181755,0.3465 0.403833,0.67844 0.455573,0.68152 0.455467,0.63895 -7.53e-4,1.1794 -0.238513,0.28256 -0.211235,0.28423 -1.17062,-0.0682 l -0.487446,-0.1796 -0.150622,0.18681 c -0.08285,0.1029 -0.198104,0.31006 -0.256176,0.46141 l -0.105553,0.27492 0.337629,0.28551 c 0.185694,0.15715 0.445708,0.38419 0.577756,0.50492 l 0.240164,0.21984 -0.166336,0.41513 c -0.09145,0.22832 -0.198866,0.44126 -0.238724,0.47256 -0.04456,0.034 -0.346312,0.0296 -0.78041,-0.009 -0.818352,-0.0758 -0.804416,-0.0831 -0.939849,0.48158 -0.104539,0.43584 -0.08831,0.45613 0.654816,0.81022 0.365668,0.17451 0.591771,0.32023 0.61641,0.39775 0.0509,0.16055 -0.06756,0.89112 -0.153037,0.94394 -0.03642,0.0211 -0.352155,0.0907 -0.701666,0.1508 -0.349488,0.061 -0.670467,0.13894 -0.713247,0.17325 -0.104958,0.0852 -0.104958,0.88193 0,0.96724 0.04295,0.0339 0.36372,0.11309 0.713247,0.17325 0.349488,0.0606 0.665189,0.12877 0.701666,0.15164 0.08548,0.053 0.20395,0.78349 0.153037,0.94391 -0.02456,0.0775 -0.250754,0.22409 -0.61641,0.39775 -0.740344,0.35328 -0.762686,0.37997 -0.658717,0.79369 0.128511,0.5118 0.155197,0.54101 0.487179,0.53877 0.16138,-9.8e-4 0.489406,-0.0254 0.728999,-0.0585 0.320982,-0.0437 0.455572,-0.034 0.511522,0.017 0.146683,0.14444 0.381977,0.81449 0.323948,0.92285 -0.03008,0.0567 -0.281676,0.29185 -0.558624,0.52296 -0.449205,0.37446 -0.499271,0.43758 -0.463738,0.58207 0.05667,0.23043 0.335554,0.69232 0.443056,0.73363 0.04985,0.0212 0.359061,-0.0669 0.686821,-0.1902 0.327802,-0.12411 0.647746,-0.22536 0.711168,-0.22536 0.129315,0 0.617329,0.60566 0.617329,0.76625 0,0.0556 -0.168073,0.35752 -0.373464,0.67008 -0.205346,0.31262 -0.373419,0.59973 -0.373419,0.63755 0,0.0944 0.568394,0.66434 0.662622,0.66434 0.04193,0 0.327251,-0.16818 0.634239,-0.3732 0.307004,-0.20502 0.607301,-0.37318 0.667304,-0.37318 0.159601,0 0.773898,0.49433 0.773898,0.62281 0,0.0605 -0.101234,0.37742 -0.225213,0.70571 -0.123937,0.32785 -0.209838,0.63696 -0.190692,0.68687 0.04151,0.10752 0.503301,0.38673 0.735248,0.44341 0.147529,0.034 0.205728,-0.009 0.591161,-0.48849 0.235167,-0.291 0.460342,-0.54351 0.500594,-0.56127 0.105718,-0.0479 0.891083,0.27788 0.94935,0.39268 0.02712,0.053 0.02668,0.2927 -9.82e-4,0.53233 -0.02753,0.23976 -0.05196,0.55606 -0.05358,0.70329 -0.0029,0.24865 0.0127,0.2745 0.215937,0.35922 0.120506,0.0478 0.341991,0.10797 0.492224,0.12919 l 0.273203,0.034 0.313274,-0.65572 c 0.20145,-0.4219 0.356603,-0.66966 0.435083,-0.69457 0.12093,-0.034 0.867601,0.0563 0.929175,0.11819 0.01736,0.017 0.08328,0.3054 0.145921,0.64 0.06261,0.33421 0.141939,0.67098 0.176247,0.7482 0.05596,0.12538 0.106567,0.1402 0.491733,0.1402 0.277058,0 0.453187,-0.0254 0.496679,-0.0814 0.03727,-0.0436 0.114322,-0.3647 0.171802,-0.71056 0.05748,-0.34652 0.123681,-0.66039 0.147232,-0.69843 0.05447,-0.0881 0.782904,-0.20756 0.947525,-0.15546 0.07772,0.0254 0.208227,0.21814 0.347286,0.51552 0.122497,0.2622 0.277821,0.55626 0.345126,0.65394 0.110213,0.1597 0.147064,0.17325 0.368591,0.1381 0.135416,-0.0212 0.341441,-0.0792 0.457903,-0.12793 0.199586,-0.083 0.211573,-0.10544 0.209709,-0.38717 -9.82e-4,-0.16436 -0.02753,-0.49484 -0.05871,-0.73435 -0.04193,-0.32023 -0.03727,-0.45507 0.01736,-0.5081 0.115252,-0.11309 0.849277,-0.39225 0.933076,-0.35497 0.04066,0.017 0.265198,0.26898 0.498106,0.55689 0.232922,0.28805 0.471216,0.52404 0.529241,0.52352 0.124233,-7.5e-4 0.729685,-0.33759 0.794204,-0.44231 0.02456,-0.0339 -0.0643,-0.3931 -0.197554,-0.78564 l -0.242494,-0.71354 0.338687,-0.30458 c 0.186203,-0.16773 0.369609,-0.30498 0.407518,-0.30498 0.03812,0 0.343051,0.18214 0.678104,0.40496 0.335087,0.22239 0.646666,0.40495 0.692293,0.40495 0.107206,0 0.652854,-0.54461 0.652854,-0.65157 0,-0.0436 -0.168072,-0.33761 -0.37342,-0.6503 -0.205347,-0.31305 -0.373548,-0.6143 -0.373548,-0.67009 0,-0.15419 0.497892,-0.76638 0.622921,-0.76638 0.06032,0 0.378038,0.10125 0.705831,0.22536 0.327802,0.12411 0.637572,0.20968 0.688524,0.18977 0.110424,-0.0436 0.470473,-0.65169 0.471532,-0.7975 5e-4,-0.0563 -0.237496,-0.30287 -0.52844,-0.54758 -0.606672,-0.51077 -0.62522,-0.56999 -0.354189,-1.12384 0.140117,-0.28635 0.192937,-0.341 0.323015,-0.33295 0.08552,0.004 0.428569,0.0296 0.762183,0.0547 l 0.60652,0.0478 0.09484,-0.22704 c 0.05197,-0.12497 0.111823,-0.35032 0.132493,-0.5012 l 0.0377,-0.27449 -0.656628,-0.31473 c -0.414973,-0.19866 -0.67072,-0.35837 -0.694767,-0.43449 -0.05146,-0.16096 0.06998,-0.88933 0.156806,-0.94304 0.03812,-0.0212 0.352326,-0.0898 0.69841,-0.14742 0.346099,-0.0572 0.665747,-0.1347 0.710383,-0.17197 0.11051,-0.0919 0.11051,-0.88388 0,-0.97559 -0.04452,-0.034 -0.364313,-0.11479 -0.710383,-0.17198 -0.3461,-0.0572 -0.660382,-0.12327 -0.69841,-0.1474 -0.08746,-0.0542 -0.207719,-0.78234 -0.156044,-0.94509 0.02499,-0.0783 0.272738,-0.23383 0.694509,-0.43537 l 0.655844,-0.31305 -0.0377,-0.2732 c -0.02076,-0.14997 -0.07866,-0.37192 -0.128977,-0.49223 -0.08696,-0.20798 -0.106655,-0.219 -0.390321,-0.21688 -0.164303,9.8e-4 -0.494761,0.0254 -0.734325,0.0588 -0.510571,0.0665 -0.515553,0.0631 -0.735509,-0.46461 -0.105553,-0.2533 -0.137618,-0.40538 -0.100044,-0.47573 0.03008,-0.0567 0.27981,-0.29059 0.554332,-0.51979 0.274515,-0.22917 0.498479,-0.46249 0.498479,-0.51981 -7.59e-4,-0.14697 -0.360586,-0.75615 -0.471537,-0.7988 -0.05091,-0.0211 -0.360713,0.0656 -0.688518,0.18976 -0.327802,0.12411 -0.645463,0.22535 -0.705832,0.22535 -0.125037,0 -0.622915,-0.61247 -0.622915,-0.76636 0,-0.0555 0.168199,-0.35752 0.373505,-0.67018 0.205346,-0.31303 0.37342,-0.60527 0.37342,-0.65021 0,-0.10764 -0.546263,-0.65158 -0.654545,-0.65158 -0.04668,0 -0.31717,0.15674 -0.601708,0.34735 -0.762975,0.51233 -0.674202,0.49802 -1.103322,0.17537 -0.217801,-0.16394 -0.378589,-0.33253 -0.378589,-0.39691 0,-0.0618 0.101488,-0.38039 0.225468,-0.70812 0.123936,-0.32787 0.209328,-0.63773 0.18976,-0.68874 -0.04287,-0.11182 -0.652359,-0.4709 -0.800584,-0.47145 -0.05798,-2.2e-4 -0.296246,0.23552 -0.529185,0.52348 -0.232921,0.28805 -0.456309,0.53847 -0.496565,0.55626 -0.105728,0.0479 -0.890965,-0.27788 -0.94935,-0.39267 -0.02712,-0.053 -0.02753,-0.26476 -9.82e-4,-0.4699 0.02668,-0.20544 0.05035,-0.52186 0.05349,-0.70338 0.0051,-0.31812 -0.002,-0.33294 -0.20628,-0.41808 -0.116482,-0.0478 -0.322507,-0.10589 -0.457902,-0.12793 -0.221569,-0.034 -0.258293,-0.0211 -0.368507,0.13809 -0.0673,0.0974 -0.22267,0.39226 -0.345125,0.65378 -0.139058,0.29695 -0.269688,0.49116 -0.347371,0.51556 -0.164642,0.053 -0.892914,-0.0668 -0.947402,-0.15547 -0.0233,-0.034 -0.08984,-0.35284 -0.147318,-0.69862 -0.05748,-0.3465 -0.134865,-0.66577 -0.171927,-0.71042 -0.04333,-0.0529 -0.219537,-0.0809 -0.496519,-0.0809 z m -0.312766,3.48391 c 0.171547,7.6e-4 0.347455,0.009 0.525581,0.0254 0.178153,0.017 0.35851,0.0437 0.539231,0.0694 0.361433,0.0589 0.724183,0.14106 1.072211,0.23722 0.348006,0.0958 0.681437,0.20544 0.984362,0.31812 0.302939,0.11309 0.57535,0.22916 0.801495,0.33845 0.150114,0.0728 0.298109,0.1525 0.44358,0.23932 0.145455,0.0869 0.288411,0.17919 0.428307,0.27747 0.139948,0.0978 0.276846,0.20206 0.410483,0.31007 0.13368,0.10797 0.264054,0.22112 0.390576,0.33761 0.253083,0.23297 0.491049,0.48053 0.710768,0.73472 0.21975,0.25458 0.4212,0.51607 0.601052,0.77697 0.179848,0.26093 0.338222,0.52191 0.471693,0.77475 0.13351,0.25288 0.242156,0.49802 0.322762,0.72782 0.04024,0.11521 0.07352,0.22577 0.09945,0.33252 0.02583,0.10676 0.04456,0.20799 0.05506,0.30414 0.01058,0.0958 0.01313,0.18596 0.008,0.26983 -0.0051,0.0838 -0.01906,0.16054 -0.04151,0.23044 -0.02542,0.0792 -0.0579,0.14995 -0.09645,0.21519 -0.03855,0.0648 -0.08307,0.12369 -0.132113,0.17537 -0.04879,0.053 -0.102633,0.0987 -0.159305,0.13936 -0.05671,0.0437 -0.116525,0.0767 -0.178027,0.1072 -0.12309,0.0618 -0.253126,0.10423 -0.378756,0.13174 -0.12559,0.0254 -0.246774,0.0437 -0.352286,0.0437 -0.533314,0.017 -0.998806,0.009 -1.656218,-0.004 -0.657408,-0.017 -1.506736,-0.0437 -2.807697,-0.053 v -9e-5 c -0.01949,0.002 -0.102677,0.004 -0.2275,-0.004 -0.06243,-0.004 -0.135161,-0.017 -0.215513,-0.0296 -0.08043,-0.017 -0.168327,-0.0437 -0.261089,-0.0771 -0.09276,-0.0296 -0.19031,-0.0783 -0.289808,-0.1347 -0.09954,-0.0558 -0.20111,-0.12496 -0.301794,-0.20969 -0.100727,-0.0838 -0.20056,-0.18298 -0.296881,-0.2999 -0.09632,-0.11691 -0.188998,-0.25077 -0.275236,-0.40581 -0.427782,-0.7667 -0.800224,-1.40396 -1.153042,-2.03142 -0.176376,-0.31431 -0.347837,-0.62494 -0.518947,-0.94873 -0.17108,-0.32406 -0.341863,-0.66027 -0.516561,-1.02409 -0.05582,-0.11607 -0.108991,-0.25204 -0.139272,-0.39691 -0.01525,-0.0725 -0.02456,-0.1474 -0.02542,-0.22323 -0.0012,-0.0758 0.0055,-0.15335 0.02414,-0.23002 0.01779,-0.0771 0.04667,-0.15462 0.08823,-0.22959 0.04193,-0.0758 0.09696,-0.14995 0.167945,-0.22239 0.0709,-0.072 0.157739,-0.1419 0.262784,-0.20714 0.105046,-0.0657 0.228433,-0.12749 0.372616,-0.18468 0.08984,-0.034 0.183957,-0.0657 0.281674,-0.0911 0.09776,-0.0254 0.199079,-0.0479 0.303532,-0.0622 0.208906,-0.0296 0.430052,-0.0478 0.658848,-0.0436 z m -4.67737,2.4136 c 0.0654,9.8e-4 0.128766,0.009 0.190015,0.0212 0.06124,0.009 0.120336,0.0296 0.17718,0.0547 0.113686,0.0479 0.218224,0.10974 0.312679,0.183 0.09442,0.0733 0.178494,0.15672 0.251432,0.24102 0.07297,0.0847 0.134739,0.17072 0.184043,0.24993 0.284978,0.4582 0.512211,0.87065 0.830126,1.45505 0.317976,0.58448 0.726544,1.34081 1.374044,2.4865 0.01187,0.017 0.05812,0.0864 0.110722,0.20164 0.02668,0.0576 0.05421,0.12666 0.07976,0.20629 0.02542,0.0797 0.04879,0.16943 0.0665,0.26771 0.01736,0.0983 0.02922,0.20587 0.03134,0.32193 0.0022,0.11564 -0.0051,0.23975 -0.02542,0.37022 -0.02076,0.13047 -0.05421,0.26814 -0.104792,0.41174 -0.0504,0.14317 -0.118008,0.29228 -0.205941,0.44604 -0.435961,0.76193 -0.789817,1.40994 -1.145226,2.0359 -0.17773,0.31302 -0.355716,0.62034 -0.5447,0.93373 -0.188956,0.31346 -0.388839,0.63276 -0.610033,0.96956 -0.0707,0.10764 -0.159093,0.22282 -0.26706,0.32235 -0.054,0.0478 -0.11284,0.0958 -0.176842,0.13514 -0.06399,0.0339 -0.13317,0.072 -0.207719,0.0953 -0.07451,0.0211 -0.154392,0.034 -0.239911,0.034 -0.08548,9.8e-4 -0.176671,-0.009 -0.273584,-0.034 -0.09696,-0.0254 -0.199798,-0.0669 -0.308614,-0.12581 -0.108814,-0.0589 -0.223731,-0.13555 -0.344914,-0.2334 -0.07552,-0.061 -0.148674,-0.12835 -0.219579,-0.20078 -0.0709,-0.0728 -0.139567,-0.1508 -0.205855,-0.2351 -0.132621,-0.16732 -0.256177,-0.35369 -0.370795,-0.55475 -0.114661,-0.20078 -0.220422,-0.41596 -0.317467,-0.64 -0.09699,-0.22408 -0.185269,-0.45613 -0.265029,-0.69156 -0.07972,-0.23551 -0.15096,-0.47362 -0.213734,-0.70915 -0.06278,-0.23551 -0.117159,-0.46832 -0.163329,-0.69316 -0.04612,-0.22494 -0.08424,-0.44076 -0.114152,-0.64344 -0.03008,-0.20248 -0.05198,-0.39056 -0.06587,-0.55996 -0.01398,-0.16816 -0.02076,-0.33845 -0.02076,-0.5092 2.1e-5,-0.17156 0.0072,-0.34311 0.01949,-0.51552 0.0127,-0.17239 0.03178,-0.3448 0.0566,-0.51657 0.02456,-0.17198 0.05476,-0.34269 0.08996,-0.51234 0.07027,-0.33972 0.160492,-0.67288 0.265919,-0.99392 0.105464,-0.32066 0.225933,-0.62951 0.357113,-0.919 0.131221,-0.28974 0.27303,-0.55987 0.420691,-0.80449 0.147656,-0.24441 0.3012,-0.46354 0.455944,-0.65026 0.07738,-0.0932 0.15507,-0.17833 0.232456,-0.255 0.07734,-0.0766 0.154519,-0.14361 0.230761,-0.20164 0.07625,-0.0576 0.151639,-0.10587 0.225552,-0.14318 0.07396,-0.0339 0.146387,-0.0648 0.216784,-0.0801 0.07972,-0.017 0.15706,-0.0254 0.23182,-0.0254 z m 4.999633,4.90024 a 0.86549908,0.84009168 0 0 1 0.865529,0.84008 0.86549908,0.84009168 0 0 1 -0.865529,0.84004 0.86549908,0.84009168 0 0 1 -0.865527,-0.84004 0.86549908,0.84009168 0 0 1 0.865527,-0.84008 z m 4.297709,1.70345 c 0.3558,-9.8e-4 0.707101,5e-4 1.068959,0.009 0.361857,0.009 0.73426,0.0211 1.132214,0.0479 0.127198,0.009 0.269518,0.0254 0.408703,0.0724 0.06955,0.0211 0.138338,0.053 0.204077,0.0877 0.06574,0.0339 0.128469,0.0806 0.185736,0.13428 0.05726,0.0533 0.109199,0.11733 0.15346,0.19146 0.04456,0.0746 0.08082,0.1597 0.107503,0.25755 0.02668,0.0978 0.04333,0.20925 0.04773,0.33421 0.0042,0.12495 -0.0033,0.26475 -0.02542,0.42021 -0.01398,0.097 -0.03474,0.19527 -0.06078,0.29397 -0.02668,0.0983 -0.05892,0.19824 -0.0967,0.29822 -0.07557,0.20035 -0.172477,0.40241 -0.286079,0.60434 -0.113603,0.20163 -0.243808,0.40241 -0.385705,0.60007 -0.141854,0.19739 -0.29544,0.39224 -0.455783,0.58003 -0.160365,0.18808 -0.327547,0.37021 -0.496677,0.54376 -0.169088,0.17325 -0.340254,0.33802 -0.50839,0.49167 -0.168158,0.15334 -0.333224,0.29525 -0.490576,0.42317 -0.157356,0.12792 -0.306962,0.24188 -0.443852,0.33887 -0.136264,0.0971 -0.277779,0.18808 -0.423529,0.27449 -0.14575,0.0856 -0.295737,0.16691 -0.448887,0.24103 -0.153206,0.0754 -0.309589,0.14529 -0.468301,0.2101 -0.158711,0.0648 -0.319543,0.12412 -0.48172,0.17834 -0.324328,0.10841 -0.653705,0.19739 -0.980058,0.26559 -0.326361,0.0691 -0.649814,0.11776 -0.962235,0.14784 -0.312426,0.0296 -0.613828,0.0437 -0.896375,0.034 -0.282563,-0.004 -0.546139,-0.0296 -0.782882,-0.0737 -0.118346,-0.0211 -0.230042,-0.0479 -0.333986,-0.0758 -0.103944,-0.0296 -0.20018,-0.0631 -0.287647,-0.10169 -0.08751,-0.0338 -0.166252,-0.0801 -0.235293,-0.12623 -0.06904,-0.0475 -0.128512,-0.0958 -0.177139,-0.14995 -0.05506,-0.061 -0.10022,-0.12495 -0.136941,-0.19146 -0.03685,-0.0665 -0.0648,-0.13429 -0.08548,-0.2029 -0.02076,-0.0691 -0.03431,-0.13936 -0.04151,-0.20969 -0.0076,-0.0703 -0.008,-0.14063 -0.0042,-0.21011 0.008,-0.13893 0.03601,-0.2749 0.07396,-0.39944 0.03812,-0.12454 0.08633,-0.23806 0.135245,-0.33294 0.246986,-0.48053 0.484312,-0.88693 0.822436,-1.45968 0.338095,-0.57265 0.777046,-1.31128 1.427545,-2.45523 0.008,-0.017 0.04401,-0.0944 0.116229,-0.1991 0.03601,-0.053 0.08094,-0.1114 0.135585,-0.17326 0.05469,-0.0627 0.119108,-0.12791 0.194291,-0.19272 0.07522,-0.0653 0.16117,-0.12962 0.25859,-0.18934 0.09751,-0.0602 0.206577,-0.11608 0.328099,-0.1631 0.121565,-0.0478 0.255541,-0.0872 0.402986,-0.11479 0.147402,-0.0254 0.30819,-0.0437 0.483261,-0.0437 0.867927,0 1.597481,-0.017 2.309068,-0.017 z"
         id="path1007"
         inkscape:connector-curvature="0" />
    </g>
  </g>
</svg>
