<?xml version="1.0" encoding="UTF-8" standalone="no"?>
<!-- Created with Inkscape (http://www.inkscape.org/) -->

<svg
   xmlns:i="http://ns.adobe.com/AdobeIllustrator/10.0/"
   xmlns:osb="http://www.openswatchbook.org/uri/2009/osb"
   xmlns:dc="http://purl.org/dc/elements/1.1/"
   xmlns:cc="http://creativecommons.org/ns#"
   xmlns:rdf="http://www.w3.org/1999/02/22-rdf-syntax-ns#"
   xmlns:svg="http://www.w3.org/2000/svg"
   xmlns="http://www.w3.org/2000/svg"
   xmlns:xlink="http://www.w3.org/1999/xlink"
   xmlns:sodipodi="http://sodipodi.sourceforge.net/DTD/sodipodi-0.dtd"
   xmlns:inkscape="http://www.inkscape.org/namespaces/inkscape"
   width="128"
   height="128"
   viewBox="0 0 33.866666 33.866668"
   version="1.1"
   id="svg1345"
   inkscape:version="0.92.2 5c3e80d, 2017-08-06"
   sodipodi:docname="gdebi.svg">
  <sodipodi:namedview
     id="base"
     pagecolor="#ffffff"
     bordercolor="#666666"
     borderopacity="1.0"
     inkscape:pageopacity="0.0"
     inkscape:pageshadow="2"
     inkscape:zoom="1"
     inkscape:cx="-88.232692"
     inkscape:cy="85.378741"
     inkscape:document-units="mm"
     inkscape:current-layer="layer1"
     showgrid="false"
     inkscape:window-width="1600"
     inkscape:window-height="803"
     inkscape:window-x="0"
     inkscape:window-y="0"
     inkscape:window-maximized="1"
     units="px" />
  <defs
     id="defs1339">
    <linearGradient
       inkscape:collect="always"
       id="linearGradient6985">
      <stop
         style="stop-color:#9a5e00;stop-opacity:1"
         offset="0"
         id="stop6981" />
      <stop
         style="stop-color:#a06e00;stop-opacity:1"
         offset="1"
         id="stop6983" />
    </linearGradient>
    <linearGradient
       inkscape:collect="always"
       id="linearGradient6956">
      <stop
         style="stop-color:#d59b6a;stop-opacity:1"
         offset="0"
         id="stop6952" />
      <stop
         style="stop-color:#e5ba92;stop-opacity:1"
         offset="1"
         id="stop6954" />
    </linearGradient>
    <linearGradient
       inkscape:collect="always"
       id="linearGradient6948">
      <stop
         style="stop-color:#e4bc94;stop-opacity:1"
         offset="0"
         id="stop6944" />
      <stop
         style="stop-color:#fbf5ee;stop-opacity:1"
         offset="1"
         id="stop6946" />
    </linearGradient>
    <linearGradient
       inkscape:collect="always"
       id="linearGradient1314-7">
      <stop
         style="stop-color:#e2bb93;stop-opacity:1"
         offset="0"
         id="stop1310" />
      <stop
         style="stop-color:#b39475;stop-opacity:1"
         offset="1"
         id="stop1312" />
    </linearGradient>
    <linearGradient
       id="linearGradient6987"
       osb:paint="solid">
      <stop
         style="stop-color:#77d2fb;stop-opacity:1;"
         offset="0"
         id="stop6985" />
    </linearGradient>
    <linearGradient
       gradientUnits="userSpaceOnUse"
       y2="461.02222"
       x2="-364.82761"
       y1="432.21008"
       x1="-317.45132"
       id="linearGradient1324-9"
       xlink:href="#linearGradient1314-7"
       inkscape:collect="always"
       gradientTransform="matrix(0.24792125,0,0,0.2390142,92.13794,175.68739)" />
    <linearGradient
       inkscape:collect="always"
       xlink:href="#linearGradient6948"
       id="linearGradient6950"
       x1="76.874634"
       y1="42.309639"
       x2="99.615227"
       y2="43.235958"
       gradientUnits="userSpaceOnUse"
       gradientTransform="matrix(1.0045367,0,0,1.0045367,-72.4416,227.98453)" />
    <linearGradient
       inkscape:collect="always"
       xlink:href="#linearGradient6956"
       id="linearGradient6958"
       x1="86.744072"
       y1="63.524765"
       x2="101.13804"
       y2="46.591434"
       gradientUnits="userSpaceOnUse"
       gradientTransform="matrix(1.0045367,0,0,1.0045367,-72.4416,227.98453)" />
    <linearGradient
       inkscape:collect="always"
       xlink:href="#linearGradient6985"
       id="linearGradient6988"
       x1="302.81055"
       y1="172.37891"
       x2="365.68359"
       y2="149.54883"
       gradientUnits="userSpaceOnUse"
       gradientTransform="matrix(0.26578367,0,0,0.26578367,-72.4416,227.98453)" />
  </defs>
  <metadata
     id="metadata1342">
    <rdf:RDF>
      <cc:Work
         rdf:about="">
        <dc:format>image/svg+xml</dc:format>
        <dc:type
           rdf:resource="http://purl.org/dc/dcmitype/StillImage" />
        <dc:title />
      </cc:Work>
    </rdf:RDF>
  </metadata>
  <g
     inkscape:label="Layer 1"
     inkscape:groupmode="layer"
     id="layer1"
     transform="translate(0,-263.13332)">
    <path
       sodipodi:nodetypes="ccccc"
       inkscape:connector-curvature="0"
       id="path7010"
       d="m 13.435,279.52091 19.37333,-6.84063 -0.54862,15.68399 -18.8247,7.39595 z"
       style="opacity:0.25;fill:#000000;fill-opacity:1;fill-rule:nonzero;stroke:none;stroke-width:0.2;stroke-linecap:round;stroke-linejoin:round;stroke-miterlimit:4;stroke-dasharray:none;stroke-opacity:1" />
    <path
       sodipodi:nodetypes="ccccc"
       inkscape:connector-curvature="0"
       id="path7012"
       d="m 1.05833,270.29587 12.37667,9.22504 10e-6,16.23931 -11.7456,-9.35279 z"
       style="opacity:0.25;fill:#000000;fill-opacity:1;fill-rule:nonzero;stroke:none;stroke-width:0.2;stroke-linecap:round;stroke-linejoin:round;stroke-miterlimit:4;stroke-dasharray:none;stroke-opacity:1" />
    <path
       style="opacity:1;fill:url(#linearGradient6950);fill-opacity:1;fill-rule:nonzero;stroke:#806953;stroke-width:0.2;stroke-linecap:round;stroke-linejoin:round;stroke-miterlimit:4;stroke-dasharray:none;stroke-opacity:1"
       d="m 1.05834,269.76671 18.07577,-5.39362 13.67422,7.77803 -19.37333,6.84063 z"
       id="rect1234-2"
       inkscape:connector-curvature="0"
       sodipodi:nodetypes="ccccc" />
    <path
       style="opacity:1;fill:url(#linearGradient6958);fill-opacity:1;fill-rule:nonzero;stroke:#806953;stroke-width:0.2;stroke-linecap:round;stroke-linejoin:round;stroke-miterlimit:4;stroke-dasharray:none;stroke-opacity:1"
       d="m 13.435,278.99175 19.37333,-6.84063 -0.54862,15.68398 -18.8247,7.39596 z"
       id="rect1237-9"
       inkscape:connector-curvature="0"
       sodipodi:nodetypes="ccccc" />
    <path
       style="opacity:1;fill:url(#linearGradient1324-9);fill-opacity:1;fill-rule:nonzero;stroke:#806953;stroke-width:0.2;stroke-linecap:round;stroke-linejoin:round;stroke-miterlimit:4;stroke-dasharray:none;stroke-opacity:1"
       d="m 1.05833,269.76671 12.37667,9.22504 10e-6,16.23931 -11.7456,-9.3528 z"
       id="rect1240-7"
       inkscape:connector-curvature="0"
       sodipodi:nodetypes="ccccc" />
    <path
       style="opacity:1;fill:url(#linearGradient6988);fill-opacity:1;fill-rule:nonzero;stroke:#593700;stroke-width:0.2;stroke-linecap:round;stroke-linejoin:round;stroke-miterlimit:4;stroke-dasharray:none;stroke-opacity:1"
       d="m 23.75444,267.00126 c -0.9093,0.40961 -16.04601,5.79134 -17.64035,6.5117 l -5.4e-4,0.0213 2.21296,1.64973 c 4.69401,-1.96789 12.45781,-4.28393 18.20774,-6.60151 z"
       id="path6967"
       inkscape:connector-curvature="0"
       sodipodi:nodetypes="cccccc" />
    <path
       style="fill:none;stroke:#593700;stroke-width:0.26941749px;stroke-linecap:butt;stroke-linejoin:miter;stroke-opacity:1"
       d="m 7.29308,274.44005 17.81431,-6.65513"
       id="path6990"
       inkscape:connector-curvature="0" />
    <path
       style="opacity:1;fill:#965b06;fill-opacity:1;fill-rule:nonzero;stroke:#593700;stroke-width:0.2;stroke-linecap:round;stroke-linejoin:round;stroke-miterlimit:4;stroke-dasharray:none;stroke-opacity:1"
       d="m 6.11357,273.53425 -0.14899,4.48925 2.12627,1.52825 0.22841,-4.36466 c 0.002,-0.001 0.005,-0.002 0.007,-0.003 z"
       id="path6974"
       inkscape:connector-curvature="0" />
    <g
       transform="matrix(0.00327763,-0.05484778,0.03903145,0.00233247,22.734141,285.20426)"
       id="g1007"
       style="overflow:visible">
      <g
         id="Layer_1"
         i:layer="yes"
         i:dimmedPercent="50"
         i:rgbTrio="#4F008000FFFF">
        <g
           id="g977">
          <path
             style="fill:#a80030"
             inkscape:connector-curvature="0"
             i:knockout="Off"
             d="m 59.681368,48.316155 c -1.148172,-2.956801 -0.739673,0.541455 0.356302,4.403921 0.930888,1.081695 1.823039,2.054528 2.665272,2.928099 -1.283308,-2.413914 -2.22348,-4.865576 -3.021574,-7.33202"
             id="path939" />
          <path
             style="fill:#a80030"
             inkscape:connector-curvature="0"
             i:knockout="Off"
             d="m 68.215422,64.280088 c 2.202021,1.800602 4.36087,3.114687 6.257724,3.5935 -1.379759,-0.416615 -2.846367,-1.497386 -4.353045,-2.524989 -4.298173,-5.59246 1.09359,-0.509218 2.614728,0.03034 -6.964737,-6.041046 -3.125218,-0.862192 -4.519407,-1.098848"
             id="path941" />
          <path
             style="fill:#a80030"
             inkscape:connector-curvature="0"
             i:knockout="Off"
             d="m 80.015045,70.311847 c 3.46757,0.404024 1.870778,-1.026955 0.420731,-1.519368 0.03164,0.552098 -1.967785,0.965991 -0.420731,1.519368"
             id="path943" />
          <path
             style="fill:#a80030"
             inkscape:connector-curvature="0"
             i:knockout="Off"
             d="m 112.33881,38.129457 c 0.43954,1.555483 1.01648,3.363073 0.68259,3.099036 0.90674,1.71737 1.26929,2.106418 -0.68259,-3.099036"
             id="path945" />
          <path
             style="fill:#a80030"
             inkscape:connector-curvature="0"
             i:knockout="Off"
             d="m 113.02217,41.230449 c 0,0 -0.57235,-1.099067 -0.57235,-1.099067 0,0 0.45945,1.023328 0.45945,1.023328 0,0 0.1129,0.07574 0.1129,0.07574"
             id="path947" />
          <path
             style="fill:#f90d08;fill-opacity:1"
             inkscape:connector-curvature="0"
             i:knockout="Off"
             d="m 86.273981,89.967289 c -2.932708,0.154015 -5.003249,-1.460507 -8.137125,-2.932435 0,0 -1.790486,-2.609395 -1.790486,-2.609395 -3.364233,-2.151071 -1.542344,0.195019 -4.154165,-1.348099 -3.08745,-3.339469 -9.526493,-10.112761 -10.697104,-12.268405 -0.573551,-1.570945 1.555714,1.077307 2.128208,1.427107 -3.56133,-4.444179 -4.177721,-3.584037 -7.879521,-10.350144 0,0 0.201132,-0.191751 0.201132,-0.191751 -11.128321,-16.636322 -10.124872,-39.260759 3.043409,-38.701102 -0.892005,-0.18863 -0.80858,-0.507034 -1.277907,-0.873382 6.373918,-0.704136 15.29746,5.187131 21.791023,14.97549 6.637911,9.610671 9.771364,20.850414 8.432806,27.70005 C 89.557936,61.041544 89.914158,53.550435 86.177608,44.652495 82.736544,35.968935 76.174256,27.808442 71.400129,25.039625 67.956404,20.586898 62.768316,19.969612 61.11672,18.027944 48.132857,15.183296 45.775461,22.55498 44.451526,35.160442 c -0.09376,1.989404 -0.767854,0.546483 -1.314092,0.803224 -0.352487,-4.215339 0.06725,-8.051128 1.165909,-11.187036 -0.915782,1.65742 -1.739623,3.449463 -2.037798,5.785239 -0.658527,-3.973307 2.558291,-9.18249 2.185337,-10.722516 -5.146989,6.698645 -3.058265,27.69654 4.049861,38.878103 -2.062876,-5.161328 -4.470639,-11.695633 -5.304952,-17.435231 -0.131973,-2.408863 0.246742,-5.656043 0.769353,-5.064663 2.160594,15.063786 8.951202,30.804329 20.561713,44.133931 2.915414,3.401306 7.095093,7.127151 7.538643,8.198098 -2.110263,-1.625076 -0.616228,0.269626 -2.409511,-0.981078 4.649033,3.404057 0.815274,-1.456227 7.1408,3.542867 0,0 -0.861835,1.819397 -0.861835,1.819397 2.536364,-0.662306 8.33217,5.679524 12.500864,5.070641 1.902203,1.459466 -0.83627,1.604237 -4.528297,0.04348 4.259726,2.160032 4.214073,0.594911 7.263258,1.162271 -0.729881,0.581062 -1.44443,1.356221 -2.301375,1.747421 2.795328,-1.366836 6.144545,1.46246 8.344782,2.1759 -0.07912,-0.69044 -2.291014,-2.15605 1.500474,-2.46285 1.72094,0.063 1.189195,0.7802 1.71481,1.06001 -0.016,-0.54003 0.73899,-1.957899 2.90397,-2.804491 0.82821,0.627647 -0.87549,1.667261 -0.63138,2.522701 1.7733,-0.53674 2.92229,-1.471816 4.42961,-1.500787 2.2355,-2.473723 -0.76962,-0.888273 0.25167,-2.896853 4.05086,-2.613503 2.03175,2.212616 4.46689,2.560449 -2.01923,4.003861 -6.69125,6.268841 -8.58791,7.316671 2.49984,-0.79167 4.71871,-2.07811 6.7329,-3.654 0.15732,1.22764 4.99639,-1.93381 2.35494,1.60898 7.09479,-3.74947 10.23492,-16.102051 9.52375,-27.420817 -0.23827,1.373956 -0.53301,3.113449 -0.9317,2.486396 -0.14307,-5.61259 0.40656,-4.621545 0.96101,-5.417798 -0.64399,-4.558051 -2.0037,-4.878667 -3.0944,-7.897127 -0.55239,-8.550634 -1.49788,-10.205557 -2.82772,-18.0456 0,0 -0.89538,0.340526 -0.89538,0.340526 -1.04891,-5.626379 -3.01962,-6.585015 -4.96816,-12.659882 0.0337,-0.365521 1.41454,1.95966 2.33533,3.873177 -2.58029,-5.446239 -1.36772,-5.17245 -4.24026,-10.495802 1.08306,1.316414 2.00645,2.709603 3.03878,4.113216 -1.90303,-4.423472 -5.74014,-10.575135 -3.69434,-8.6611 -4.81926,-7.221637 -12.603741,-19.9866373 -19.56626,-27.1867588 0,0 0.850764,-0.1999272 0.850764,-0.1999272 -3.722536,-3.307106 -12.841501,-14.31704 -16.361353,-15.267354 0,0 -0.463115,-0.868561 -0.463115,-0.868561 -2.455162,-1.726848 -4.921766,-2.872336 -7.293718,-4.255113 -3.226955,-2.261094 -2.161123,-3.243541 -2.41312,-2.941539 -7.229952,-4.471908 -12.73577,-6.752391 -17.290057,-8.712601 -0.752454,1.28028 -7.56802,-0.190643 -12.447835,0.157876 C 6.5893583,-37.090481 -6.915713,-7.7560427 -0.35967298,25.467566 0.33645462,30.37926 3.0854838,37.735008 5.2861922,44.009402 3.898285,36.63152 2.9170453,35.666732 1.8546518,28.509691 c -0.360777,-5.135958 0.9826023,-6.229889 1.6443351,-9.839413 0,0 -1.0865217,1.410836 -1.0865217,1.410836 -1.0337137,-7.108329 0.4520942,-4.11486 -0.5272417,-9.891023 0,0 1.8435887,1.563778 1.8435887,1.563778 -0.7430744,-2.3057103 0.2073191,-6.0514038 1.1317576,-7.057893 0,0 -0.9980513,-2.517656 -0.9980513,-2.517656 1.2501753,-2.96015584 2.3633212,-4.5264872 3.732728,-4.3759012 0,0 -1.2230818,-0.8319838 -1.2230818,-0.8319838 0.6630476,-0.8921998 4.7456863,-10.82009 4.8797953,-5.6222175 0.202102,-0.960919 0.07469,-2.2481055 1.180256,-3.6101095 0,0 1.177029,1.086395 1.177029,1.086395 1.127985,-2.463588 2.983977,-4.513636 3.927758,-4.328329 -0.652338,1.311915 -0.519572,2.237653 -0.371135,3.156585 7.661595,-6.085838 -1.967311,-6.696208 5.896615,-11.226289 0,0 0.433406,1.01183 0.433406,1.01183 0.457476,-0.753536 1.086851,-1.205526 1.647737,-1.80541 0,0 2.968644,0.518814 2.968644,0.518814 1.628314,-4.443564 13.753663,-0.873579 19.956921,-0.05224 2.589159,0.516178 6.442274,3.918452 11.449453,6.559384 0,0 -0.427212,-1.538167 -0.427212,-1.538167 4.403046,3.038651 19.642551,17.2223891 21.655741,23.6919926 3.706113,3.2017589 -0.233095,-0.6248835 0.151771,-1.2256152 7.181508,7.0120936 6.709607,9.1588836 9.341103,13.8544486 3.845505,5.091039 -2.419395,-4.345529 -0.04044,-1.924828 4.801687,8.767837 5.585805,6.252723 10.756603,17.69741 0.0444,1.202237 -1.755345,-2.814676 -2.703278,-3.830752 5.089088,7.358023 10.798138,23.270434 11.887408,33.63698 1.22414,12.091432 -3.84082,25.719748 -13.454204,26.174569 0,0 0.13615,0.619927 0.13615,0.619927 -4.035861,-0.349413 -8.077242,0.897056 -13.102274,-1.377452 0,0 2.553971,1.529931 2.553971,1.529931"
             id="path949" />
          <path
             style="fill:#a80030"
             inkscape:connector-curvature="0"
             i:knockout="Off"
             d="m 44.969311,16.194564 c 0,0 -1.44729,-0.439375 -1.44729,-0.439375 -0.919209,1.8861 -2.127167,3.374723 -2.48436,5.802124 1.505327,-1.722173 1.907355,-3.012599 3.93165,-5.362749"
             id="path951" />
          <path
             style="fill:#a80030"
             inkscape:connector-curvature="0"
             i:knockout="Off"
             d="m 46.801897,20.733963 c 0.324383,-1.002684 0.950407,-1.583413 1.541458,-2.242089 -1.247714,0.614077 -2.02988,1.909823 -2.872667,3.110459 0,0 1.331209,-0.86837 1.331209,-0.86837"
             id="path953" />
          <path
             style="fill:#a80030"
             inkscape:connector-curvature="0"
             i:knockout="Off"
             d="m 89.00579,102.67367 c 0,0 -0.856777,-0.44835 -0.856777,-0.44835 -3.871847,-0.83959 -8.070617,-2.629599 -12.369125,-5.351506 4.586005,3.006787 9.093156,4.956576 13.225902,5.799856"
             id="path955" />
          <path
             style="fill:#a80030"
             inkscape:connector-curvature="0"
             i:knockout="Off"
             d="m 113.43609,38.724704 c 1.22173,1.978733 2.15185,4.855607 3.2727,6.962936 -1.21697,-2.738618 -2.37015,-5.45937 -3.63547,-8.144055 0,0 0.36277,1.181119 0.36277,1.181119"
             id="path957" />
          <path
             style="fill:#a80030"
             inkscape:connector-curvature="0"
             i:knockout="Off"
             d="m 63.934602,-30.137842 c -2.432961,0.367992 -4.808161,-3.182789 -1.594994,0.72493 3.770893,2.158098 0.506407,-0.782621 1.594994,-0.72493"
             id="path959" />
          <path
             style="fill:#a80030"
             inkscape:connector-curvature="0"
             i:knockout="Off"
             d="m 50.107044,-35.028527 c 2.085349,0.942661 3.191478,1.133011 4.331835,1.502805 -2.950884,-2.51535 -2.868484,-1.204093 -4.331835,-1.502805"
             id="path961" />
          <path
             inkscape:connector-curvature="0"
             i:knockout="Off"
             d="m -71.825505,-46.857206 c -0.09026,-0.08861 -9.492378,-0.379116 -12.015181,-0.634764 -2.052345,-0.2393 -6.427788,-0.642458 -8.709539,-7.082738 -2.338421,-6.600236 2.063583,-8.03696 4.032555,-8.498294 2.171069,-0.541192 4.155201,-0.474717 5.026711,-0.445518 2.796492,0.09369 10.685083,0.620679 14.293874,10.66018 1.089452,3.030811 1.114179,4.706782 1.131517,6.031484 0,0 -3.759937,-0.03035 -3.759937,-0.03035 m -16.09358,-26.003042 c -16.452525,-0.575504 -11.742921,12.761576 -11.050094,14.723585 1.956711,5.541191 5.219437,9.186584 9.219328,10.815785 0,0 -5.160121,0.01876 -5.160121,0.01876 0.662138,1.707844 1.381185,3.416769 2.365121,6.202436 0.349747,0.990185 0.635146,1.798195 0.830764,2.519234 0.254691,0.721097 0.451619,1.438814 0.678364,2.248133 1.372814,-1.38585 5.221726,-2.341374 14.372811,-2.071418 8.887337,0.262176 23.855995,0.70375 28.807694,1.9996 -2.15531,-3.246271 -3.798991,-6.037165 -6.343262,-12.109607 -0.810313,2.3528 -1.680474,2.325951 -9.347191,2.089392 -0.262091,-1.681755 -0.625907,-3.810107 -1.941376,-7.460277 -5.718186,-15.863428 -15.686549,-18.739671 -22.432038,-18.975625"
             id="path963" />
          <path
             inkscape:connector-curvature="0"
             i:knockout="Off"
             d="m -67.625117,-24.297246 c 4.894255,0.224139 9.774042,1.876835 12.081371,8.294095 2.543744,7.0747902 -2.303878,7.4909914 -6.539753,7.2070517 0,0 -5.541618,-15.5011467 -5.541618,-15.5011467 m 8.176972,24.51136311 c 6.880767,0.16068028 12.875174,-1.77588231 8.03204,-15.21415311 -6.627331,-18.388892 -19.83011,-18.76886 -22.637973,-18.849669 -11.914204,-0.342883 -13.718132,7.746436 -8.809831,21.647222 2.189899,6.2020051 3.845791,9.2376038 4.726758,10.8921999 2.098383,-0.040745 3.620745,0.44755743 5.649116,1.04357824 -1.4528,-1.94334404 -3.330877,-4.43542004 -5.26959,-9.91072914 -5.019098,-14.174922 3.272899,-14.12905 6.149637,-14.050683 0,0 8.623709,24.18361443 8.623709,24.18361443 0,0 3.536134,0.25861968 3.536134,0.25861968"
             id="path965" />
          <path
             inkscape:connector-curvature="0"
             i:knockout="Off"
             d="m -51.300323,30.086417 c -5.511071,-0.102272 -13.493323,-1.815786 -17.291895,-12.548097 -0.522952,-1.477524 -0.994648,-3.316274 -1.241794,-4.509531 2.067869,-0.139463 5.738897,-0.06135 9.996088,0.02924 5.079024,0.108075 8.023854,0.989165 9.555392,1.663022 4.872486,2.015017 6.482835,6.340222 6.779834,7.167065 2.518903,7.012594 -3.184266,8.283914 -7.797625,8.198301 0,0 0,0 0,0 M -67.161202,3.5158389 c -4.375919,-0.099732 -6.86005,-0.1563482 -9.143168,-1.3001504 0.38088,3.7421718 1.504058,8.4187205 3.49072,14.0451385 1.272034,3.602526 4.969507,14.074128 14.411078,19.876921 4.405927,2.758524 9.368801,3.767363 12.867494,3.826763 2.132593,0.03621 6.673092,-0.257286 8.663029,-2.895969 1.838766,-2.542344 1.754642,-6.679829 0.158954,-11.107555 -3.184088,-8.83523 -8.813444,-11.503629 -11.720323,-12.929584 3.000678,0.06398 13.483892,0.375767 19.078973,1.220181 -3.911821,-5.979458 -5.526538,-9.6390475 -7.180119,-13.55887208 0.353773,3.53115618 -3.512193,3.44304778 -16.128796,3.15550548 0,0 -14.497139,-0.3304012 -14.497139,-0.3304012"
             id="path967" />
          <path
             inkscape:connector-curvature="0"
             i:knockout="Off"
             d="m -57.843772,57.649547 c -0.485384,-1.879515 -0.830727,-3.19507 -1.791998,-5.916365 -1.0572,-2.992868 -1.907503,-5.059165 -2.843642,-7.20929 1.464387,0.952354 2.134469,1.334255 6.106249,1.676485 5.432586,0.45933 19.590943,0.776164 22.316252,0.17193 2.080631,-0.430093 2.133269,-1.259725 2.254666,-2.552581 3.222218,7.641707 4.348926,9.79369 6.692113,13.357479 -2.869525,-0.781696 -4.21099,-0.899336 -8.179312,-0.956392 -20.59429,-0.479509 -22.835409,-0.606552 -24.554328,1.428734"
             id="path969" />
          <path
             inkscape:connector-curvature="0"
             i:knockout="Off"
             d="m -30.176865,88.113823 c -3.835887,-0.223505 -6.504448,-0.344335 -9.17521,-1.983198 -3.40599,-2.022087 -5.361948,-5.352222 -6.235808,-7.818889 -2.014591,-5.686637 0.541086,-6.875233 3.46826,-6.840428 5.608041,0.06668 8.86221,8.010982 10.145748,11.607388 0,0 1.79701,5.035127 1.79701,5.035127 M -46.781907,62.030379 c -3.761652,-0.05043 -6.891956,1.690127 -6.640902,6.956056 0.174932,2.354588 1.010115,4.719734 1.278597,5.480047 3.083893,8.733244 8.208835,11.718725 11.369238,13.551719 -2.674373,-0.120918 -4.259849,-0.03926 -6.263139,0.227196 0.666961,1.716366 1.392807,3.434497 2.405375,6.301227 0.573456,1.623539 0.994993,3.154394 1.508144,4.779767 0.650101,-1.046005 1.051732,-1.613409 3.293905,-1.886459 2.215094,-0.172214 4.497009,-0.154591 7.676696,-0.130035 0,0 12.242581,0.19095 12.242581,0.19095 4.53745,0.03497 8.319919,-1.835809 3.195175,-16.055975 -3.363612,-9.333368 -7.107193,-14.806711 -8.97614,-17.540631 -0.89953,1.111022 -1.686482,2.034832 -3.939869,2.845878 3.338393,3.697425 6.133916,8.514811 7.897203,13.421274 2.825685,7.862656 -0.451726,7.832354 -5.103171,7.789348 -0.58753,-1.804298 -1.01233,-3.322104 -1.928222,-5.88275 -4.294069,-12.001757 -10.029415,-19.940539 -18.015471,-20.047612"
             id="path971" />
          <path
             inkscape:connector-curvature="0"
             i:knockout="Off"
             d="m -21.522726,143.51266 c -2.024071,0.0985 -4.204914,0.098 -5.480923,1.46333 -0.639473,-2.15145 -0.904047,-3.41895 -2.314115,-7.41076 -0.825736,-2.33761 -1.394825,-3.6012 -2.227706,-5.44925 0.922564,0.38737 1.295932,0.58715 2.394334,0.78207 1.491888,0.29407 6.215057,0.49778 7.846067,0.50084 0,0 6.510219,0.0122 6.510219,0.0122 2.829288,0.005 6.9192294,0.013 8.2539188,-0.27886 0.9508775,-0.19018 3.5379698,-0.66486 1.5228453,-6.27229 -1.9736322,-5.49197 -5.1434711,-7.32941 -7.4232921,-8.01273 -2.371594,-0.77518 -4.652702,-0.78515 -13.545979,-0.82402 -7.681183,0.06 -8.402636,0.0569 -10.176387,1.01258 -0.459294,-1.6394 -1.054981,-3.66468 -2.076128,-6.5556 -0.816721,-2.31217 -1.418565,-3.85059 -2.277049,-5.77027 1.202512,0.67772 1.821354,1.06635 5.260627,1.27734 3.378879,0.21458 19.711351,0.69341 23.224037,-0.15143 2.1606324,-0.4606 2.3511808,-1.41661 2.5702029,-2.46031 3.0310032,7.75293 4.7049669,10.24622 6.3443423,12.65247 0,0 -6.336428,-0.0278 -6.336428,-0.0278 2.2709778,1.15937 7.2622843,3.57898 10.736764,13.21963 4.3631672,12.10649 -1.06687285,12.1994 -4.6376317,12.29712 0,0 -18.1677185,-0.004 -18.1677185,-0.004"
             id="path973" />
          <path
             style="fill:#f90d08;fill-opacity:1"
             inkscape:connector-curvature="0"
             i:knockout="Off"
             d="m -16.12443,59.021625 c 0,0 -7.681891,-7.799845 -7.681891,-7.799845 0,0 2.094855,-7.6209 2.094855,-7.6209 0,0 7.663147,7.76933 7.663147,7.76933 0,0 -2.076111,7.651415 -2.076111,7.651415"
             id="path975" />
        </g>
      </g>
    </g>
  </g>
</svg>
