<?xml version="1.0" encoding="UTF-8" standalone="no"?>
<!-- Created with Inkscape (http://www.inkscape.org/) -->

<svg
   xmlns:dc="http://purl.org/dc/elements/1.1/"
   xmlns:cc="http://creativecommons.org/ns#"
   xmlns:rdf="http://www.w3.org/1999/02/22-rdf-syntax-ns#"
   xmlns:svg="http://www.w3.org/2000/svg"
   xmlns="http://www.w3.org/2000/svg"
   xmlns:xlink="http://www.w3.org/1999/xlink"
   xmlns:sodipodi="http://sodipodi.sourceforge.net/DTD/sodipodi-0.dtd"
   xmlns:inkscape="http://www.inkscape.org/namespaces/inkscape"
   width="128"
   height="128"
   viewBox="0 0 33.866666 33.866668"
   version="1.1"
   id="svg8"
   inkscape:version="0.92.2 5c3e80d, 2017-08-06"
   sodipodi:docname="gimp.svg">
  <defs
     id="defs2">
    <radialGradient
       id="radialGradient-1"
       gradientTransform="matrix(0.30018843,0,0,0.24690229,-0.46372023,265.17448)"
       r="43.369213"
       fy="47.271988"
       fx="61.48822"
       cy="47.271988"
       cx="61.48822"
       gradientUnits="userSpaceOnUse">
      <stop
         id="stop1679"
         offset="0%"
         stop-color="#DEE0F2" />
      <stop
         id="stop1681"
         offset="100%"
         stop-color="#3B3A4C" />
    </radialGradient>
    <linearGradient
       id="linearGradient-2"
       y2="53.515839"
       x2="18.084034"
       y1="33.586185"
       x1="20.397594"
       gradientTransform="matrix(0.23800342,0,0,0.31141237,-135.9437,232.40814)"
       gradientUnits="userSpaceOnUse">
      <stop
         id="stop1684"
         offset="0%"
         stop-color="#757681" />
      <stop
         id="stop1686"
         offset="100%"
         stop-opacity="0"
         stop-color="#41414A" />
    </linearGradient>
    <linearGradient
       id="linearGradient-3-7"
       y2="49.366241"
       x2="16.760571"
       y1="38.41769"
       x1="15.054258"
       gradientTransform="matrix(0.27266718,0,0,0.27182299,-0.46372023,265.17448)"
       gradientUnits="userSpaceOnUse">
      <stop
         id="stop1689"
         offset="0%"
         stop-color="#FFFFFF" />
      <stop
         id="stop1691"
         offset="100%"
         stop-opacity="0.317991395"
         stop-color="#FFFFFF" />
    </linearGradient>
    <linearGradient
       id="linearGradient-4-9"
       y2="18.49242"
       x2="203.90958"
       y1="13.903599"
       x1="199.96968"
       gradientTransform="matrix(0.14285748,0,0,0.51881924,-0.46372023,265.17448)"
       gradientUnits="userSpaceOnUse">
      <stop
         id="stop1694"
         offset="0%"
         stop-color="#4C495E" />
      <stop
         id="stop1696"
         offset="100%"
         stop-color="#252330" />
    </linearGradient>
    <linearGradient
       id="linearGradient-5-3"
       y2="17.050068"
       x2="193.84053"
       y1="2.2785094"
       x1="208.27989"
       gradientTransform="matrix(0.14664064,0,0,0.50543433,-0.46372023,265.17448)"
       gradientUnits="userSpaceOnUse">
      <stop
         id="stop1699"
         offset="0%"
         stop-opacity="0.105157382"
         stop-color="#C1C2E1" />
      <stop
         id="stop1701"
         offset="100%"
         stop-color="#676779" />
    </linearGradient>
    <path
       id="path-6"
       d="m 122.21375,109.30526 c -11.79057,-5.13234 -16.24577,-11.381705 -13.36559,-18.748097 2.79687,-4.87312 10.60065,-0.329403 10.82826,5.725783 0.34044,3.973914 1.18622,8.314694 2.53733,13.022314 z"
       inkscape:connector-curvature="0" />
    <linearGradient
       id="linearGradient-8"
       y2="83.121109"
       x2="151.54868"
       y1="70.997375"
       x1="142.522"
       gradientTransform="scale(0.77902546,1.2836551)"
       gradientUnits="userSpaceOnUse">
      <stop
         id="stop1705"
         offset="0%"
         stop-opacity="0.104194973"
         stop-color="#FFFFFF" />
      <stop
         id="stop1707"
         offset="100%"
         stop-opacity="0.0688122736"
         stop-color="#FFFFFF" />
    </linearGradient>
    <path
       id="path-9"
       d="m 114.5289,105.0928 c 2.06959,1.47908 4.63121,2.88323 7.68485,4.21246 -1.23415,-4.30009 -2.04667,-8.2941 -2.43756,-11.98202 -2.77331,-4.354635 -5.01734,-7.277121 -6.7321,-8.767456 -1.28032,-0.191561 -2.51433,0.100315 -3.45665,1.029784 0.12599,0.240073 0.27411,0.498467 0.44439,0.775184 1.76685,7.715133 3.26587,12.625818 4.49707,14.732048 z"
       inkscape:connector-curvature="0" />
    <linearGradient
       id="linearGradient-11-8"
       y2="77.018326"
       x2="156.99245"
       y1="66.74411"
       x1="149.81175"
       gradientTransform="scale(0.74534595,1.3416589)"
       gradientUnits="userSpaceOnUse">
      <stop
         id="stop1711"
         offset="0%"
         stop-opacity="0.199871912"
         stop-color="#FFFFFF" />
      <stop
         id="stop1713"
         offset="100%"
         stop-opacity="0"
         stop-color="#FFFFFF" />
    </linearGradient>
    <path
       id="path-12"
       d="m 109.88155,89.32336 c 0.84712,-0.680497 1.88626,-0.913479 2.9677,-0.793019 4.52987,9.082583 6.14072,13.989779 4.83257,14.721569 -1.36064,0.76117 -3.96073,-3.881683 -7.80027,-13.92855 z"
       inkscape:connector-curvature="0" />
    <linearGradient
       id="linearGradient-14-0"
       y2="66.623337"
       x2="179.49835"
       y1="57.974258"
       x1="173.45346"
       gradientTransform="scale(0.64758417,1.5442008)"
       gradientUnits="userSpaceOnUse">
      <stop
         id="stop1717"
         offset="0%"
         stop-opacity="0.274994339"
         stop-color="#FFFFFF" />
      <stop
         id="stop1719"
         offset="100%"
         stop-opacity="0"
         stop-color="#FFFFFF" />
    </linearGradient>
    <path
       id="path-15"
       d="m 111.18072,88.652638 c 0.27594,-0.07843 0.56128,-0.125754 0.85282,-0.143995 3.65608,8.682905 5.31393,13.438257 4.97353,14.266047 -0.35623,0.86631 -2.35066,-3.621695 -5.98328,-13.464015 z"
       inkscape:connector-curvature="0" />
    <linearGradient
       id="linearGradient-17-2"
       y2="26.457561"
       x2="239.30737"
       y1="26.457561"
       x1="255.52599"
       gradientTransform="matrix(0.06347092,-0.08123908,0.56652407,0.44261709,-7.3874103,293.43271)"
       gradientUnits="userSpaceOnUse">
      <stop
         id="stop1723"
         offset="0%"
         stop-color="#FF4900" />
      <stop
         id="stop1725"
         offset="49.1509885%"
         stop-color="#FFD052" />
      <stop
         id="stop1727"
         offset="100%"
         stop-color="#FF3800" />
    </linearGradient>
    <linearGradient
       id="linearGradient-18-4"
       y2="88.468674"
       x2="93.577614"
       y1="83.220016"
       x1="98.449104"
       gradientTransform="matrix(0.28990877,0,0,0.25565703,-0.46372023,265.17448)"
       gradientUnits="userSpaceOnUse">
      <stop
         id="stop1730"
         offset="0%"
         stop-opacity="0"
         stop-color="#FFFFFF" />
      <stop
         id="stop1732"
         offset="100%"
         stop-color="#FFFFFF" />
    </linearGradient>
  </defs>
  <sodipodi:namedview
     id="base"
     pagecolor="#ffffff"
     bordercolor="#666666"
     borderopacity="1.0"
     inkscape:pageopacity="0.0"
     inkscape:pageshadow="2"
     inkscape:zoom="5.6"
     inkscape:cx="50.502139"
     inkscape:cy="79.526073"
     inkscape:document-units="mm"
     inkscape:current-layer="layer1"
     showgrid="false"
     units="px"
     inkscape:window-width="1600"
     inkscape:window-height="803"
     inkscape:window-x="0"
     inkscape:window-y="0"
     inkscape:window-maximized="1" />
  <metadata
     id="metadata5">
    <rdf:RDF>
      <cc:Work
         rdf:about="">
        <dc:format>image/svg+xml</dc:format>
        <dc:type
           rdf:resource="http://purl.org/dc/dcmitype/StillImage" />
        <dc:title />
      </cc:Work>
    </rdf:RDF>
  </metadata>
  <g
     inkscape:label="Layer 1"
     inkscape:groupmode="layer"
     id="layer1"
     transform="translate(0,-263.13332)">
    <g
       transform="matrix(0.27224476,0,0,0.27224476,-0.46372023,265.71897)"
       id="g1976"
       style="opacity:0.25;fill:#000000;fill-rule:evenodd;stroke:none;stroke-width:0.92557931">
      <path
         id="path1950"
         d="M 33.092432,13.762092 C 40.402791,28.077269 53.979173,33.543065 73.821578,30.159477 103.58518,25.084096 109.34066,-2.0620972 111.80934,2.8305011 114.27802,7.7230994 118.85862,62.563834 93.011272,77.789978 75.77971,87.940741 54.240258,84.557153 28.392915,67.639216 18.732797,61.913145 14.294364,57.358315 15.077617,53.974728 c 10.443371,-4.164416 16.056682,-7.417865 16.839935,-9.760349 0.783253,-2.342484 1.17488,-12.493246 1.17488,-30.452287 z"
         inkscape:connector-curvature="0"
         style="fill:#000000;stroke-width:0.92557931" />
      <path
         id="path1952"
         d="m 56.590016,67.887137 c 8.804575,0.703181 16.154594,-0.975169 22.050056,-5.035049 0.284056,-0.295985 -0.831828,-1.172897 -3.347651,-2.630737 7.513314,2.540352 5.965602,5.404383 -4.643135,8.592091 -4.018569,1.011312 -8.704993,0.702544 -14.05927,-0.926305 z"
         inkscape:connector-curvature="0"
         style="fill:#000000;stroke-width:0.92557931" />
      <ellipse
         ry="16.397387"
         rx="12.532045"
         cy="50.948215"
         cx="19.130886"
         transform="rotate(-29,19.130885,50.948214)"
         id="ellipse1954"
         style="fill:#000000;stroke-width:0.92557931" />
      <ellipse
         ry="9.8464222"
         rx="7.5253344"
         cy="48.264622"
         cx="17.832106"
         transform="rotate(-29,17.832107,48.26462)"
         id="ellipse1956"
         style="fill:#000000;stroke-width:0.92557931" />
      <ellipse
         ry="15.226144"
         rx="15.27343"
         cy="38.748585"
         cx="69.513687"
         id="ellipse1958"
         style="fill:#000000;stroke-width:0.92557931" />
      <ellipse
         ry="6.246623"
         rx="6.2660227"
         cy="42.26231"
         cx="73.038322"
         id="ellipse1960"
         style="fill:#000000;stroke-width:0.92557931" />
      <ellipse
         ry="3.5137255"
         rx="3.5246377"
         cy="42.652721"
         cx="73.429955"
         id="ellipse1962"
         style="fill:#000000;stroke-width:0.92557931" />
      <ellipse
         ry="10.150763"
         rx="10.182286"
         cy="39.919827"
         cx="41.708214"
         id="ellipse1964"
         style="fill:#000000;stroke-width:0.92557931" />
      <ellipse
         ry="5.0753813"
         rx="5.0911431"
         cy="42.652721"
         cx="42.883091"
         id="ellipse1966"
         style="fill:#000000;stroke-width:0.92557931" />
      <ellipse
         ry="2.854902"
         rx="2.8637681"
         cy="42.969936"
         cx="43.201286"
         id="ellipse1968"
         style="fill:#000000;stroke-width:0.92557931" />
      <ellipse
         style="fill:#000000;stroke-width:0.92557931"
         ry="5.465795"
         rx="5.48277"
         cy="43.823967"
         cx="15.077617"
         id="ellipse1970" />
      <path
         style="fill:#000000;stroke-width:0.92557931"
         id="path1972"
         d="m 102.47137,31.909086 c 5.51204,-18.569966 8.5135,-28.4028531 9.00438,-29.498662 0.73631,-1.64371331 -6.64161,32.217611 -7.57551,32.762538 -0.62259,0.363284 -1.09888,-0.724675 -1.42887,-3.263876 z"
         inkscape:connector-curvature="0" />
      <path
         style="fill:#000000;fill-rule:nonzero;stroke-width:0.92557931"
         id="path1974"
         d="m 102.68133,33.684289 c -0.9,-2.058059 4.81309,-13.302011 8.93293,-31.8734486 0.15269,-0.6883035 0.37776,-1.13509371 0.57264,-1.71323691 C 105.16352,20.933506 101.43063,30.824293 102.68133,33.684289 Z"
         inkscape:connector-curvature="0" />
    </g>
    <path
       id="Path-25"
       d="m 8.5455209,268.92113 c 1.9902071,3.89724 5.6863061,5.38527 11.0882971,4.4641 8.102984,-1.38174 9.669884,-8.77215 10.341969,-7.44017 0.672085,1.33199 1.91913,16.2621 -5.117676,20.40733 -4.691202,2.76349 -10.555205,1.84233 -17.5920091,-2.76349 -2.6299163,-1.55889 -3.8382561,-2.79893 -3.6250203,-3.72009 2.8431532,-1.13373 4.3713482,-2.01947 4.5845841,-2.6572 0.2132368,-0.63772 0.3198552,-3.40122 0.3198552,-8.29048 z"
       inkscape:connector-curvature="0"
       style="fill:url(#radialGradient-1);fill-rule:evenodd;stroke:#252330;stroke-width:0.2;stroke-opacity:1;stroke-miterlimit:4;stroke-dasharray:none" />
    <path
       id="Path-35"
       d="m 14.942615,283.65639 c 2.397,0.19144 4.398003,-0.26548 6.003012,-1.37077 0.07734,-0.0806 -0.22646,-0.3193 -0.91138,-0.71619 2.04546,0.69159 1.624104,1.47131 -1.264069,2.33915 -1.094035,0.27532 -2.369888,0.19126 -3.827563,-0.25219 z"
       inkscape:connector-curvature="0"
       style="fill:#252330;fill-rule:evenodd;stroke:none;stroke-width:0.25198412" />
    <ellipse
       ry="4.4641027"
       rx="3.4117837"
       cy="246.35835"
       cx="-131.13396"
       transform="rotate(-29)"
       id="Oval-6"
       style="fill:#252330;fill-rule:evenodd;stroke:none;stroke-width:0.25198412" />
    <ellipse
       ry="2.6806369"
       rx="2.0487328"
       cy="245.54793"
       cx="-131.089"
       transform="rotate(-29)"
       id="ellipse1742"
       style="fill:url(#linearGradient-2);fill-rule:evenodd;stroke:none;stroke-width:0.25198412" />
    <ellipse
       ry="4.1452379"
       rx="4.1581111"
       cy="275.72357"
       cx="18.461018"
       id="Oval-5"
       style="fill:#ffffff;fill-rule:evenodd;stroke:#666666;stroke-width:0.1;stroke-miterlimit:4;stroke-dasharray:none" />
    <ellipse
       ry="1.7006104"
       rx="1.705892"
       cy="276.68018"
       cx="19.42058"
       id="Oval-7"
       style="fill:#424b4e;fill-rule:evenodd;stroke:none;stroke-width:0.25198412" />
    <ellipse
       ry="0.95659339"
       rx="0.95956415"
       cy="276.78647"
       cx="19.527199"
       id="ellipse1746"
       style="fill:#171717;fill-rule:evenodd;stroke:none;stroke-width:0.25198412" />
    <ellipse
       ry="2.7634919"
       rx="2.772074"
       cy="276.04245"
       cx="10.891122"
       id="Oval-5-Copy"
       style="fill:#ffffff;fill-rule:evenodd;stroke:#666666;stroke-width:0.1;stroke-miterlimit:4;stroke-dasharray:none" />
    <ellipse
       ry="1.3817459"
       rx="1.386037"
       cy="276.78647"
       cx="11.210978"
       id="Oval-7-Copy"
       style="fill:#424b4e;fill-rule:evenodd;stroke:none;stroke-width:0.25198412" />
    <ellipse
       ry="0.77723211"
       rx="0.77964586"
       cy="276.8728"
       cx="11.297604"
       id="Oval-7-Copy-2"
       style="fill:#171717;fill-rule:evenodd;stroke:none;stroke-width:0.25198412" />
    <ellipse
       style="fill:url(#linearGradient-3-7);fill-rule:evenodd;stroke:none;stroke-width:0.25198412"
       ry="1.4880341"
       rx="1.4926554"
       cy="277.10532"
       cx="3.6410816"
       id="Oval-8" />
    <path
       style="fill:url(#linearGradient-4-9);fill-rule:evenodd;stroke:none;stroke-width:0.25198412"
       id="Path-37"
       d="m 27.433574,273.86156 c 1.500624,-5.05558 2.317756,-7.73253 2.451395,-8.03086 0.200457,-0.44749 -1.808144,8.77108 -2.062393,8.91943 -0.169497,0.0989 -0.299165,-0.19729 -0.389002,-0.88857 z"
       inkscape:connector-curvature="0" />
    <path
       style="fill:url(#linearGradient-5-3);fill-rule:nonzero;stroke:none;stroke-width:0.25198412"
       id="Path-33"
       d="m 27.490735,274.34485 c -0.245021,-0.5603 1.310338,-3.62141 2.431943,-8.67738 0.04157,-0.18739 0.102844,-0.30903 0.155898,-0.46643 -1.912078,5.67248 -2.928338,8.36518 -2.587841,9.14381 z"
       inkscape:connector-curvature="0" />
    <use
       height="100%"
       width="100%"
       y="0"
       x="0"
       style="fill:#252330;fill-rule:evenodd;stroke:none;stroke-width:0.92557931"
       id="Mask-3"
       xlink:href="#path-6"
       transform="matrix(0.27224476,0,0,0.27224476,-0.46372023,265.17448)" />
    <use
       height="100%"
       width="100%"
       y="0"
       x="0"
       style="fill:url(#linearGradient-8);fill-rule:evenodd;stroke:none;stroke-width:0.92557931"
       id="Combined-Shape-9"
       xlink:href="#path-9"
       transform="matrix(0.27224476,0,0,0.27224476,-0.46372023,265.17448)" />
    <use
       height="100%"
       width="100%"
       y="0"
       x="0"
       id="use1766"
       xlink:href="#path-12"
       style="fill:url(#linearGradient-11-8);fill-rule:evenodd;stroke:none;stroke-width:0.92557931"
       transform="matrix(0.27224476,0,0,0.27224476,-0.46372023,265.17448)" />
    <use
       height="100%"
       width="100%"
       y="0"
       x="0"
       id="use1771"
       xlink:href="#path-15"
       style="fill:url(#linearGradient-14-0);fill-rule:evenodd;stroke:none;stroke-width:0.92557931"
       transform="matrix(0.27224476,0,0,0.27224476,-0.46372023,265.17448)" />
    <path
       inkscape:connector-curvature="0"
       d="m 19.954637,283.48293 c -0.04538,0 0.06806,-0.13612 0.340306,-0.40836 0.408367,-0.40838 0.82107,-0.74868 4.536064,2.10989 2.476662,1.90571 4.231578,3.31232 5.264747,4.21979 l -1.020918,1.02092 c -2.441244,-1.83385 -4.256209,-3.21776 -5.444895,-4.15173 -1.188686,-0.93397 -2.413787,-1.86413 -3.675304,-2.79051 z"
       id="Rectangle"
       style="fill:url(#linearGradient-17-2);fill-rule:evenodd;stroke:none;stroke-width:0.25198412" />
    <path
       style="fill:#d8d8d8;fill-rule:evenodd;stroke:none;stroke-width:0.25198412"
       inkscape:connector-curvature="0"
       d="m 26.225186,286.26394 c 1.753024,1.36684 3.043214,2.41361 3.870568,3.14032 l -1.020917,1.02091 c -1.544464,-1.16019 -2.838259,-2.1403 -3.881385,-2.94031 0.368116,-0.43583 0.712027,-0.8428 1.031734,-1.22092 z"
       id="path1774" />
    <path
       inkscape:connector-curvature="0"
       d="m 26.463817,286.45026 c 1.63194,1.276 2.842586,2.26067 3.631937,2.954 l -0.60554,0.60555 c -2.201491,-1.6241 -3.335601,-2.53814 -3.402334,-2.74213 -0.107953,-0.33 0.10599,-0.60292 0.375937,-0.81742 z"
       id="path1776"
       style="fill:url(#linearGradient-18-4);fill-rule:evenodd;stroke:none;stroke-width:0.25198412" />
  </g>
</svg>
