<?xml version="1.0" encoding="UTF-8" standalone="no"?>
<!-- Created with Inkscape (http://www.inkscape.org/) -->

<svg
   xmlns:dc="http://purl.org/dc/elements/1.1/"
   xmlns:cc="http://creativecommons.org/ns#"
   xmlns:rdf="http://www.w3.org/1999/02/22-rdf-syntax-ns#"
   xmlns:svg="http://www.w3.org/2000/svg"
   xmlns="http://www.w3.org/2000/svg"
   xmlns:xlink="http://www.w3.org/1999/xlink"
   xmlns:sodipodi="http://sodipodi.sourceforge.net/DTD/sodipodi-0.dtd"
   xmlns:inkscape="http://www.inkscape.org/namespaces/inkscape"
   width="128"
   height="128"
   viewBox="0 0 33.866666 33.866668"
   version="1.1"
   id="svg8"
   inkscape:version="0.92.2 5c3e80d, 2017-08-06"
   sodipodi:docname="dfd.svg">
  <defs
     id="defs2">
    <linearGradient
       inkscape:collect="always"
       id="linearGradient1809">
      <stop
         style="stop-color:#f05033;stop-opacity:1"
         offset="0"
         id="stop1805" />
      <stop
         style="stop-color:#fe7758;stop-opacity:1"
         offset="1"
         id="stop1807" />
    </linearGradient>
    <linearGradient
       inkscape:collect="always"
       xlink:href="#linearGradient1809"
       id="linearGradient1811"
       x1="36.082211"
       y1="168.12"
       x2="34.321873"
       y2="140.19032"
       gradientUnits="userSpaceOnUse" />
  </defs>
  <sodipodi:namedview
     id="base"
     pagecolor="#ffffff"
     bordercolor="#666666"
     borderopacity="1.0"
     inkscape:pageopacity="0.0"
     inkscape:pageshadow="2"
     inkscape:zoom="2.8"
     inkscape:cx="89.510068"
     inkscape:cy="29.887113"
     inkscape:document-units="mm"
     inkscape:current-layer="layer1"
     showgrid="false"
     showguides="false"
     inkscape:window-width="1600"
     inkscape:window-height="803"
     inkscape:window-x="0"
     inkscape:window-y="0"
     inkscape:window-maximized="1"
     units="px" />
  <metadata
     id="metadata5">
    <rdf:RDF>
      <cc:Work
         rdf:about="">
        <dc:format>image/svg+xml</dc:format>
        <dc:type
           rdf:resource="http://purl.org/dc/dcmitype/StillImage" />
        <dc:title></dc:title>
      </cc:Work>
    </rdf:RDF>
  </metadata>
  <g
     inkscape:label="Layer 1"
     inkscape:groupmode="layer"
     id="layer1"
     transform="translate(0,-263.13332)">
    <g
       id="g1823"
       transform="matrix(0.9867138,0,0,0.9867138,-16.350555,128.16007)">
      <circle
         style="opacity:0.25;fill:#000000;fill-opacity:1;stroke:none;stroke-width:0.1;stroke-miterlimit:4;stroke-dasharray:none;stroke-dashoffset:0;stroke-opacity:1"
         id="circle1815"
         cx="33.732059"
         cy="154.2166"
         r="15.824179" />
      <circle
         r="15.824179"
         cy="153.68744"
         cx="33.732059"
         id="path1399"
         style="opacity:1;fill:url(#linearGradient1811);fill-opacity:1;stroke:none;stroke-width:0.1;stroke-miterlimit:4;stroke-dasharray:none;stroke-dashoffset:0;stroke-opacity:1" />
      <path
         inkscape:connector-curvature="0"
         style="opacity:0.25;fill:#000000;fill-opacity:1;stroke:none;stroke-width:0.10153367;stroke-miterlimit:4;stroke-dasharray:none;stroke-dashoffset:0;stroke-opacity:1"
         d="m 27.092617,139.3531 a 16.066869,16.066869 0 0 0 -2.258791,1.25033 l 4.150821,4.15135 c -0.458009,1.0967 -0.243336,2.40717 0.649566,3.29978 0.292206,0.29304 0.628478,0.51162 0.988516,0.659 V 159.529 c -0.360038,0.14737 -0.697135,0.36745 -0.988516,0.65848 -1.178932,1.1788 -1.178932,3.08933 0,4.26992 1.178061,1.17841 3.089419,1.17841 4.268353,0 1.178914,-1.18059 1.178914,-3.09112 0,-4.26992 -0.23948,-0.23878 -0.510869,-0.42854 -0.798054,-0.57086 v -10.71574 l 4.073166,4.07211 c -0.449618,1.09255 -0.230281,2.39544 0.656388,3.28299 1.180301,1.17961 3.090142,1.17961 4.269925,0 1.178921,-1.17956 1.178921,-3.09029 0,-4.26888 -0.844025,-0.84518 -2.062087,-1.08041 -3.118755,-0.7162 l -4.366469,-4.36594 c 0.364567,-1.05666 0.127824,-2.27439 -0.716201,-3.11876 -0.838976,-0.83918 -2.046328,-1.07802 -3.099343,-0.7225 z"
         id="path1817" />
      <path
         transform="scale(0.26458333)"
         id="circle1800"
         d="m 102.69727,526.52148 a 59.807919,59.807919 0 0 0 -8.408208,4.6543 l 15.451168,15.45313 c -1.70491,4.08238 -0.9058,8.96054 2.41797,12.2832 1.08772,1.09088 2.33947,1.90449 3.67969,2.45312 V 601.625 c -1.34022,0.5486 -2.59504,1.36781 -3.67969,2.45117 -4.3885,4.388 -4.3885,11.49985 0,15.89453 4.38526,4.38656 11.50017,4.38656 15.88868,0 4.38843,-4.39468 4.38843,-11.50653 0,-15.89453 -0.89145,-0.88883 -1.90168,-1.59522 -2.97071,-2.125 V 562.0625 l 15.16211,15.1582 c -1.67368,4.06693 -0.85721,8.91687 2.44336,12.22071 4.3936,4.39101 11.50286,4.39101 15.89453,0 4.38846,-4.39083 4.38846,-11.50339 0,-15.89063 -3.14183,-3.14612 -7.67599,-4.02177 -11.60937,-2.66601 l -16.25391,-16.25196 c 1.35708,-3.93335 0.47582,-8.46628 -2.66601,-11.60937 -3.12304,-3.12382 -7.61733,-4.01286 -11.53711,-2.68946 z"
         style="opacity:1;fill:#ffffff;fill-opacity:1;stroke:none;stroke-width:0.37795275;stroke-miterlimit:4;stroke-dasharray:none;stroke-dashoffset:0;stroke-opacity:1"
         inkscape:connector-curvature="0" />
    </g>
  </g>
</svg>
