<?xml version="1.0" encoding="UTF-8" standalone="no"?>
<svg
   xmlns:dc="http://purl.org/dc/elements/1.1/"
   xmlns:cc="http://creativecommons.org/ns#"
   xmlns:rdf="http://www.w3.org/1999/02/22-rdf-syntax-ns#"
   xmlns:svg="http://www.w3.org/2000/svg"
   xmlns="http://www.w3.org/2000/svg"
   xmlns:sodipodi="http://sodipodi.sourceforge.net/DTD/sodipodi-0.dtd"
   xmlns:inkscape="http://www.inkscape.org/namespaces/inkscape"
   width="128"
   height="128"
   version="1.1"
   viewBox="0 0 96 96"
   id="svg38"
   sodipodi:docname="google-chrome-unstable.svg"
   inkscape:version="0.92.2 5c3e80d, 2017-08-06">
  <metadata
     id="metadata44">
    <rdf:RDF>
      <cc:Work
         rdf:about="">
        <dc:format>image/svg+xml</dc:format>
        <dc:type
           rdf:resource="http://purl.org/dc/dcmitype/StillImage" />
        <dc:title />
      </cc:Work>
    </rdf:RDF>
  </metadata>
  <defs
     id="defs42" />
  <sodipodi:namedview
     pagecolor="#ffffff"
     bordercolor="#666666"
     borderopacity="1"
     objecttolerance="10"
     gridtolerance="10"
     guidetolerance="10"
     inkscape:pageopacity="0"
     inkscape:pageshadow="2"
     inkscape:window-width="1600"
     inkscape:window-height="803"
     id="namedview40"
     showgrid="false"
     units="px"
     inkscape:zoom="1.3037281"
     inkscape:cx="-38.60091"
     inkscape:cy="76.980217"
     inkscape:window-x="0"
     inkscape:window-y="0"
     inkscape:window-maximized="1"
     inkscape:current-layer="svg38" />
  <g
     id="g1247"
     transform="translate(189.55933,9.3559315)">
    <path
       style="opacity:0.25;fill:#000000;fill-opacity:1;stroke-width:0.26222393"
       d="m -141.55835,-4.856833 c -15.90859,0 -29.85474,8.3965865 -37.65386,20.998697 -4.18123,6.75637 -6.59586,14.72157 -6.59586,23.251017 0,23.689799 18.61612,43.032207 42.0179,44.195532 4.8e-4,2.3e-5 9.7e-4,-2.2e-5 10e-4,0 0.73805,0.0358 1.48164,0.05566 2.22889,0.05566 24.43908,0 44.249716,-19.812116 44.249716,-44.251182 0,-7.405778 -1.822376,-14.383312 -5.037696,-20.516895 h 10e-4 c -7.39563,-14.1068274 -22.1778,-23.732824 -39.21109,-23.732824 z m 0,23.470683 c 1.14774,0 2.27254,0.09637 3.36969,0.275317 h 0.0176 v 0.0029 c 9.86402,1.618528 17.39176,10.178771 17.39176,20.500786 0,5.317608 -1.99963,10.166631 -5.28517,13.841948 l -0.003,0.0044 c -3.80516,4.254024 -9.33437,6.934154 -15.49092,6.934154 -9.49935,0 -17.50422,-6.376288 -19.98238,-15.08087 -0.51577,-1.811637 -0.79811,-3.722579 -0.79811,-5.699626 0,-11.476395 9.30409,-20.779031 20.78049,-20.779031 z"
       id="path1382"
       inkscape:connector-curvature="0" />
    <path
       inkscape:connector-curvature="0"
       style="fill:#8a2029;fill-opacity:1;stroke-width:0.26222393"
       d="m -141.55907,-6.3559119 c -15.90859,0 -29.85473,8.3965822 -37.65385,20.9986939 l 17.67148,28.950647 c -0.51577,-1.811638 -0.79812,-3.722579 -0.79812,-5.699626 0,-11.476396 9.30409,-20.779032 20.78049,-20.779032 1.14774,0 2.27254,0.09637 3.3697,0.275315 l 35.84232,-0.0132 c -7.39656,-14.1068232 -22.17873,-23.7328219 -39.21202,-23.7328219 z m -37.65824,21.0074809 c -10.73172,51.332385 -5.36535,25.666198 0,0 z"
       id="path1984" />
    <path
       inkscape:connector-curvature="0"
       style="fill:#d63241;fill-opacity:1;stroke-width:0.26222393"
       d="m -179.21292,14.642782 c -4.18124,6.756369 -6.59587,14.721574 -6.59587,23.251021 0,23.690293 18.6169,43.032937 42.01936,44.195527 l 17.72567,-30.35358 c -3.80529,4.256707 -9.33652,6.938549 -15.49531,6.938549 -9.49935,0 -17.50422,-6.376289 -19.98237,-15.08087 z"
       id="path1979" />
    <path
       inkscape:connector-curvature="0"
       style="fill:#f09183;fill-opacity:1;stroke-width:0.26222393"
       d="m -102.34705,17.37691 -35.82476,0.0132 0.001,0.003 c 9.86402,1.618528 17.39177,10.178768 17.39177,20.500784 0,5.317607 -1.99964,10.16663 -5.28518,13.841947 l -17.72571,30.353583 c 0.73853,0.03584 1.48261,0.05563 2.23036,0.05563 24.43907,0 44.249706,-19.812111 44.249706,-44.251176 0,-7.405778 -1.822366,-14.383315 -5.037686,-20.516898 z"
       id="path1974" />
    <path
       inkscape:connector-curvature="0"
       style="opacity:0.25;fill:#000000;stroke-width:0.26222393"
       d="m -102.37487,17.37691 -35.79694,0.0132 0.001,0.003 c 5.11487,0.839272 9.59868,3.548324 12.73337,7.398382 z"
       id="path1989" />
    <path
       inkscape:connector-curvature="0"
       style="opacity:0.25;fill:#000000;stroke-width:0.26222393"
       d="m -126.07401,51.746001 c -3.17373,3.545279 -7.54734,5.990083 -12.48149,6.705701 l -5.23393,23.637628 3.95108,-6.765738 z"
       id="path1994" />
    <path
       inkscape:connector-curvature="0"
       style="opacity:0.25;fill:#000000;stroke-width:0.26222393"
       d="m -179.17338,14.707224 17.63194,28.886205 c -0.51577,-1.811639 -0.79812,-3.722579 -0.79812,-5.699626 0,-2.635139 0.49502,-5.153445 1.38975,-7.473071 z"
       id="path1999" />
  </g>
</svg>
