<?xml version="1.0" encoding="UTF-8" standalone="no"?>
<svg
   xmlns:dc="http://purl.org/dc/elements/1.1/"
   xmlns:cc="http://creativecommons.org/ns#"
   xmlns:rdf="http://www.w3.org/1999/02/22-rdf-syntax-ns#"
   xmlns:svg="http://www.w3.org/2000/svg"
   xmlns="http://www.w3.org/2000/svg"
   xmlns:sodipodi="http://sodipodi.sourceforge.net/DTD/sodipodi-0.dtd"
   xmlns:inkscape="http://www.inkscape.org/namespaces/inkscape"
   width="128"
   height="128"
   version="1.1"
   viewBox="0 0 96 96"
   id="svg20"
   sodipodi:docname="google-chrome.svg"
   inkscape:version="0.92.2 5c3e80d, 2017-08-06">
  <metadata
     id="metadata26">
    <rdf:RDF>
      <cc:Work
         rdf:about="">
        <dc:format>image/svg+xml</dc:format>
        <dc:type
           rdf:resource="http://purl.org/dc/dcmitype/StillImage" />
        <dc:title />
      </cc:Work>
    </rdf:RDF>
  </metadata>
  <defs
     id="defs24" />
  <sodipodi:namedview
     pagecolor="#ffffff"
     bordercolor="#666666"
     borderopacity="1"
     objecttolerance="10"
     gridtolerance="10"
     guidetolerance="10"
     inkscape:pageopacity="0"
     inkscape:pageshadow="2"
     inkscape:window-width="1600"
     inkscape:window-height="803"
     id="namedview22"
     showgrid="false"
     units="px"
     inkscape:zoom="3.6875"
     inkscape:cx="38.53883"
     inkscape:cy="32.99782"
     inkscape:window-x="0"
     inkscape:window-y="0"
     inkscape:window-maximized="1"
     inkscape:current-layer="svg20" />
  <g
     id="g1396"
     transform="matrix(0.99972879,0,0,0.99972879,-127.49975,4.4742034)">
    <path
       inkscape:connector-curvature="0"
       id="path1382"
       d="m 175.54834,0.02490233 c -15.91291,0 -29.86284,8.39886437 -37.66407,21.00439367 -4.18237,6.758203 -6.59765,14.725564 -6.59765,23.257325 0,23.696225 18.62117,43.043881 42.0293,44.207521 4.8e-4,2.3e-5 9.7e-4,-2.2e-5 0.001,0 0.73825,0.03581 1.48204,0.05567 2.22949,0.05567 24.44571,0 44.26172,-19.817491 44.26172,-44.263186 0,-7.407787 -1.82287,-14.387214 -5.03906,-20.522461 h 0.001 C 207.37243,9.6535103 192.58625,0.02490233 175.54834,0.02490233 Z m 0,23.47705067 c 1.14805,0 2.27316,0.0964 3.3706,0.275391 h 0.0176 v 0.0029 c 9.8667,1.618967 17.39648,10.181532 17.39648,20.506348 0,5.31905 -2.00017,10.169389 -5.28661,13.845703 l -0.003,0.0044 c -3.80619,4.255178 -9.3369,6.936035 -15.49512,6.936035 -9.50193,0 -17.50897,-6.378018 -19.9878,-15.084961 -0.51591,-1.812129 -0.79833,-3.723589 -0.79833,-5.701172 0,-11.479509 9.30662,-20.784668 20.78613,-20.784668 z"
       style="opacity:0.25;fill:#000000;fill-opacity:1;stroke-width:0.26229507" />
    <path
       id="path1984"
       d="m 175.54762,-1.4745832 c -15.91291,0 -29.86283,8.39886 -37.66406,21.0043902 l 17.67627,28.958501 c -0.51591,-1.812129 -0.79834,-3.723589 -0.79834,-5.701172 0,-11.479509 9.30662,-20.784669 20.78613,-20.784669 1.14805,0 2.27316,0.0964 3.37061,0.27539 l 35.85205,-0.0132 C 207.37171,8.1540068 192.58553,-1.4746032 175.54762,-1.4746032 Z M 137.87916,19.538597 c -10.73463,51.34631 -5.3668,25.67316 0,0 z"
       style="fill:#fedd30;fill-opacity:1;stroke-width:0.26229507"
       inkscape:connector-curvature="0" />
    <path
       id="path1979"
       d="m 137.88356,19.529807 c -4.18238,6.758202 -6.59766,14.725568 -6.59766,23.257329 0,23.69672 18.62195,43.044611 42.03076,44.207516 l 17.73047,-30.361814 c -3.80632,4.257862 -9.33905,6.940431 -15.49951,6.940431 -9.50193,0 -17.50897,-6.378018 -19.98779,-15.084961 z"
       style="fill:#e3211e;fill-opacity:1;stroke-width:0.26229507"
       inkscape:connector-curvature="0" />
    <path
       id="path1974"
       d="m 214.77028,22.264677 -35.83448,0.0132 0.001,0.003 c 9.8667,1.618967 17.39649,10.18153 17.39649,20.506346 0,5.31905 -2.00018,10.169388 -5.28662,13.845702 l -17.73051,30.361817 c 0.73873,0.03585 1.48301,0.05565 2.23096,0.05565 24.4457,0 44.26171,-19.817486 44.26171,-44.263181 0,-7.407787 -1.82286,-14.387217 -5.03905,-20.522464 z"
       style="fill:#138f4d;fill-opacity:1;stroke-width:0.26229507"
       inkscape:connector-curvature="0" />
    <path
       id="path1989"
       d="m 214.74245,22.264677 -35.80665,0.0132 0.001,0.003 c 5.11626,0.8395 9.60128,3.549287 12.73682,7.400389 z"
       style="opacity:0.25;fill:#000000;stroke-width:0.26229507"
       inkscape:connector-curvature="0" />
    <path
       id="path1994"
       d="m 191.03688,56.643092 c -3.17459,3.546241 -7.54939,5.991708 -12.48487,6.70752 l -5.23535,23.64404 3.95215,-6.767573 z"
       style="opacity:0.25;fill:#000000;stroke-width:0.26229507"
       inkscape:connector-curvature="0" />
    <path
       id="path1999"
       d="m 137.92311,19.594267 17.63672,28.894041 c -0.51591,-1.81213 -0.79834,-3.723589 -0.79834,-5.701172 0,-2.635854 0.49516,-5.154843 1.39013,-7.475098 z"
       style="opacity:0.25;fill:#000000;stroke-width:0.26229507"
       inkscape:connector-curvature="0" />
  </g>
</svg>
