<?xml version="1.0" encoding="UTF-8" standalone="no"?>
<!-- Created with Inkscape (http://www.inkscape.org/) -->

<svg
   xmlns:osb="http://www.openswatchbook.org/uri/2009/osb"
   xmlns:dc="http://purl.org/dc/elements/1.1/"
   xmlns:cc="http://creativecommons.org/ns#"
   xmlns:rdf="http://www.w3.org/1999/02/22-rdf-syntax-ns#"
   xmlns:svg="http://www.w3.org/2000/svg"
   xmlns="http://www.w3.org/2000/svg"
   xmlns:xlink="http://www.w3.org/1999/xlink"
   xmlns:sodipodi="http://sodipodi.sourceforge.net/DTD/sodipodi-0.dtd"
   xmlns:inkscape="http://www.inkscape.org/namespaces/inkscape"
   width="128"
   height="128"
   viewBox="0 0 33.866666 33.866668"
   version="1.1"
   id="svg8"
   inkscape:version="0.92.2 5c3e80d, 2017-08-06"
   sodipodi:docname="drawing.svg">
  <defs
     id="defs2">
    <linearGradient
       id="linearGradient966"
       inkscape:collect="always">
      <stop
         id="stop962"
         offset="0"
         style="stop-color:#e2e3e5;stop-opacity:1" />
      <stop
         id="stop964"
         offset="1"
         style="stop-color:#c7c9cc;stop-opacity:1" />
    </linearGradient>
    <linearGradient
       inkscape:collect="always"
       id="linearGradient882">
      <stop
         style="stop-color:#808080;stop-opacity:1"
         offset="0"
         id="stop878" />
      <stop
         style="stop-color:#4d4d4d;stop-opacity:1"
         offset="1"
         id="stop880" />
    </linearGradient>
    <linearGradient
       osb:paint="solid"
       id="linearGradient6987">
      <stop
         id="stop6985"
         offset="0"
         style="stop-color:#77d2fb;stop-opacity:1;" />
    </linearGradient>
    <linearGradient
       gradientTransform="matrix(0.19814825,0,0,0.19874717,80.5536,236.42898)"
       gradientUnits="userSpaceOnUse"
       y2="304.3671"
       x2="-328.73996"
       y1="137.63516"
       x1="-329.21906"
       id="linearGradient968"
       xlink:href="#linearGradient966"
       inkscape:collect="always" />
    <linearGradient
       gradientTransform="matrix(0.19814825,0,0,0.19874717,82.235343,237.90134)"
       gradientUnits="userSpaceOnUse"
       y2="201.93062"
       x2="-372.40469"
       y1="137.99007"
       x1="-329.63672"
       id="linearGradient1250"
       xlink:href="#linearGradient882"
       inkscape:collect="always" />
  </defs>
  <sodipodi:namedview
     id="base"
     pagecolor="#ffffff"
     bordercolor="#666666"
     borderopacity="1.0"
     inkscape:pageopacity="0.0"
     inkscape:pageshadow="2"
     inkscape:zoom="0.98994949"
     inkscape:cx="105.57538"
     inkscape:cy="52.158861"
     inkscape:document-units="mm"
     inkscape:current-layer="layer1"
     showgrid="false"
     units="px"
     inkscape:window-width="1600"
     inkscape:window-height="814"
     inkscape:window-x="0"
     inkscape:window-y="0"
     inkscape:window-maximized="1" />
  <metadata
     id="metadata5">
    <rdf:RDF>
      <cc:Work
         rdf:about="">
        <dc:format>image/svg+xml</dc:format>
        <dc:type
           rdf:resource="http://purl.org/dc/dcmitype/StillImage" />
        <dc:title></dc:title>
      </cc:Work>
    </rdf:RDF>
  </metadata>
  <g
     inkscape:label="Layer 1"
     inkscape:groupmode="layer"
     id="layer1"
     transform="translate(0,-263.13332)">
    <rect
       style="opacity:1;fill:url(#linearGradient968);fill-opacity:1;stroke:#808080;stroke-width:0.2;stroke-linecap:round;stroke-linejoin:round;stroke-miterlimit:4;stroke-dasharray:none;stroke-opacity:1"
       id="rect960"
       width="19.746634"
       height="33.137501"
       x="7.0600166"
       y="263.49789"
       ry="2.4311147" />
    <rect
       style="opacity:1;fill:url(#linearGradient1250);fill-opacity:1;stroke:#4d4d4d;stroke-width:0.2;stroke-linecap:round;stroke-linejoin:round;stroke-miterlimit:4;stroke-dasharray:none;stroke-opacity:1"
       id="rect1208"
       width="16.978651"
       height="13.014172"
       x="8.444006"
       y="265.02029"
       ry="0.89155364" />
    <path
       inkscape:connector-curvature="0"
       id="path1267"
       d="m 16.933382,281.13306 a 6.1425956,6.161162 0 0 0 -6.142629,6.1611 6.1425956,6.161162 0 0 0 6.142629,6.1612 6.1425956,6.161162 0 0 0 6.142528,-6.1612 6.1425956,6.161162 0 0 0 -6.142528,-6.1611 z m 0,3.86573 a 2.2787049,2.2953998 0 0 1 2.278618,2.29537 2.2787049,2.2953998 0 0 1 -2.278618,2.29547 2.2787049,2.2953998 0 0 1 -2.278719,-2.29547 2.2787049,2.2953998 0 0 1 2.278719,-2.29537 z"
       style="opacity:1;fill:#ffffff;fill-opacity:1;stroke:#808080;stroke-width:0.15464525;stroke-linecap:round;stroke-linejoin:round;stroke-miterlimit:4;stroke-dasharray:none;stroke-opacity:1" />
    <g
       aria-label="MENU"
       style="font-style:normal;font-weight:normal;font-size:4.43265867px;line-height:1.25;font-family:sans-serif;letter-spacing:0px;word-spacing:0px;fill:#808080;fill-opacity:1;stroke:none;stroke-width:0.43178272"
       id="text978"
       transform="matrix(0.25626167,0,0,0.25703624,-0.42412375,221.55749)">
      <path
         d="m 61.54751,236.37523 h 0.65148 l 0.82463,2.19902 0.828959,-2.19902 h 0.65148 v 3.23143 h -0.426384 v -2.83751 l -0.833288,2.21633 h -0.43937 l -0.833288,-2.21633 v 2.83751 H 61.54751 Z"
         style="fill:#808080;stroke-width:0.43178272"
         id="path886"
         inkscape:connector-curvature="0" />
      <path
         d="m 65.374141,236.37523 h 2.043179 v 0.36795 h -1.605973 v 0.95666 h 1.538877 v 0.36794 h -1.538877 v 1.17093 h 1.644932 v 0.36795 h -2.082138 z"
         style="fill:#808080;stroke-width:0.43178272"
         id="path888"
         inkscape:connector-curvature="0" />
      <path
         d="m 68.179183,236.37523 h 0.588712 l 1.432823,2.70332 v -2.70332 h 0.424219 v 3.23143 h -0.588713 l -1.432822,-2.70332 v 2.70332 h -0.424219 z"
         style="fill:#808080;stroke-width:0.43178272"
         id="path890"
         inkscape:connector-curvature="0" />
      <path
         d="m 71.445239,236.37523 h 0.43937 v 1.9631 q 0,0.51945 0.188301,0.74888 0.188302,0.22726 0.610357,0.22726 0.41989,0 0.608192,-0.22726 0.188301,-0.22943 0.188301,-0.74888 v -1.9631 h 0.43937 v 2.01721 q 0,0.632 -0.313836,0.95449 -0.311671,0.3225 -0.922027,0.3225 -0.612521,0 -0.926357,-0.3225 -0.311671,-0.32249 -0.311671,-0.95449 z"
         style="fill:#808080;stroke-width:0.43178272"
         id="path892"
         inkscape:connector-curvature="0" />
    </g>
    <g
       style="fill:#808080;stroke-width:3.89637733"
       id="g1185"
       transform="matrix(0.04280525,0,0,0.04293464,22.813007,281.57506)">
      <path
         id="path1179"
         style="color:#bebebe;display:inline;overflow:visible;visibility:visible;fill:#808080;fill-opacity:1;fill-rule:nonzero;stroke:none;stroke-width:14.71200371;marker:none;enable-background:accumulate"
         d="m -236.20947,104.52858 -26.43041,18.87947 26.43041,18.87895 v -18.87895 z m 0,18.87947 0.002,0.002 c 1.8e-4,-5e-5 2.7e-4,4e-5 5.3e-4,0 0,-4e-4 0,-6.1e-4 0,-0.001 3e-5,-3.7e-4 -9e-5,-7.2e-4 0,-10e-4 -2.6e-4,1e-5 -7.9e-4,-2e-5 -0.001,0 v -5.3e-4 z m 0.36329,-0.18035 c 1.9e-4,0.002 -2.2e-4,0.003 0,0.005 2.6e-4,0.002 0.001,0.004 0.002,0.006 -5.3e-4,-0.003 -8e-4,-0.007 -0.002,-0.0103 z m -0.34365,0.1943 0.001,0.001 c 0,-3.4e-4 -2e-5,-6.9e-4 0,-0.001 -2.6e-4,-1.3e-4 -7.9e-4,1.8e-4 -0.001,0 z"
         inkscape:connector-curvature="0" />
      <path
         inkscape:connector-curvature="0"
         d="m -209.2687,104.52858 -26.43041,18.87947 26.43041,18.87895 v -18.87895 z m 0,18.87947 0.002,0.002 c 1.8e-4,-5e-5 2.7e-4,4e-5 5.3e-4,0 0,-4e-4 0,-6.1e-4 0,-0.001 3e-5,-3.7e-4 -9e-5,-7.2e-4 0,-10e-4 -2.6e-4,1e-5 -7.9e-4,-2e-5 -0.001,0 v -5.3e-4 z m 0.36329,-0.18035 c 1.9e-4,0.002 -2.2e-4,0.003 0,0.005 2.6e-4,0.002 10e-4,0.004 0.002,0.006 -5.3e-4,-0.003 -8e-4,-0.007 -0.002,-0.0103 z m -0.34365,0.1943 10e-4,0.001 c 0,-3.4e-4 -2e-5,-6.9e-4 0,-0.001 -2.6e-4,-1.3e-4 -7.9e-4,1.8e-4 -10e-4,0 z"
         style="color:#bebebe;display:inline;overflow:visible;visibility:visible;fill:#808080;fill-opacity:1;fill-rule:nonzero;stroke:none;stroke-width:14.71200371;marker:none;enable-background:accumulate"
         id="path1181" />
      <rect
         style="opacity:1;fill:#808080;fill-opacity:1;stroke:none;stroke-width:7.1484251;stroke-linecap:round;stroke-linejoin:round;stroke-miterlimit:4;stroke-dasharray:none;stroke-opacity:1"
         id="rect1183"
         width="5.8208332"
         height="37.757999"
         x="-269.08124"
         y="104.52879"
         ry="0.7674008" />
    </g>
    <g
       id="g1195"
       transform="matrix(0.04325297,0,0,0.0433837,27.039934,283.19227)"
       style="fill:#808080;stroke-width:3.89637733">
      <path
         id="path1162"
         style="color:#bebebe;display:inline;overflow:visible;visibility:visible;fill:#808080;fill-opacity:1;fill-rule:nonzero;stroke:none;stroke-width:14.71200371;marker:none;enable-background:accumulate"
         d="m -253.91251,167.89093 26.43041,18.87946 -26.43041,18.87895 v -18.87895 z m 0,18.87946 -0.002,0.002 c -1.8e-4,-5e-5 -2.7e-4,4e-5 -5.3e-4,0 0,-4e-4 0,-6e-4 0,-0.001 -3e-5,-3.7e-4 9e-5,-7.2e-4 0,-0.001 2.6e-4,1e-5 7.9e-4,-2e-5 0.001,0 v -5.3e-4 z m -0.36329,-0.18035 c -1.9e-4,0.002 2.2e-4,0.003 0,0.005 -2.6e-4,0.002 -0.001,0.004 -0.002,0.006 5.3e-4,-0.003 8e-4,-0.007 0.002,-0.0103 z m 0.34365,0.1943 -0.001,0.001 c 0,-3.4e-4 2e-5,-6.9e-4 0,-0.001 2.6e-4,-1.3e-4 7.9e-4,1.8e-4 0.001,0 z"
         inkscape:connector-curvature="0" />
      <rect
         ry="0.7674008"
         y="167.89113"
         x="-226.80577"
         height="37.757999"
         width="5.8208332"
         id="rect1164"
         style="opacity:1;fill:#808080;fill-opacity:1;stroke:none;stroke-width:7.1484251;stroke-linecap:round;stroke-linejoin:round;stroke-miterlimit:4;stroke-dasharray:none;stroke-opacity:1" />
      <rect
         style="opacity:1;fill:#808080;fill-opacity:1;stroke:none;stroke-width:7.1484251;stroke-linecap:round;stroke-linejoin:round;stroke-miterlimit:4;stroke-dasharray:none;stroke-opacity:1"
         id="rect1190"
         width="5.8208332"
         height="37.757999"
         x="-218.8683"
         y="167.89113"
         ry="0.7674008" />
    </g>
    <g
       transform="matrix(-0.04280525,0,0,0.04293464,10.813645,281.57506)"
       id="g1216"
       style="fill:#808080;stroke-width:3.89637733">
      <path
         inkscape:connector-curvature="0"
         d="m -236.20947,104.52858 -26.43041,18.87947 26.43041,18.87895 v -18.87895 z m 0,18.87947 0.002,0.002 c 1.8e-4,-5e-5 2.7e-4,4e-5 5.3e-4,0 0,-4e-4 0,-6.1e-4 0,-0.001 3e-5,-3.7e-4 -9e-5,-7.2e-4 0,-10e-4 -2.6e-4,1e-5 -7.9e-4,-2e-5 -0.001,0 v -5.3e-4 z m 0.36329,-0.18035 c 1.9e-4,0.002 -2.2e-4,0.003 0,0.005 2.6e-4,0.002 0.001,0.004 0.002,0.006 -5.3e-4,-0.003 -8e-4,-0.007 -0.002,-0.0103 z m -0.34365,0.1943 0.001,0.001 c 0,-3.4e-4 -2e-5,-6.9e-4 0,-0.001 -2.6e-4,-1.3e-4 -7.9e-4,1.8e-4 -0.001,0 z"
         style="color:#bebebe;display:inline;overflow:visible;visibility:visible;fill:#808080;fill-opacity:1;fill-rule:nonzero;stroke:none;stroke-width:14.71200371;marker:none;enable-background:accumulate"
         id="path1210" />
      <path
         id="path1212"
         style="color:#bebebe;display:inline;overflow:visible;visibility:visible;fill:#808080;fill-opacity:1;fill-rule:nonzero;stroke:none;stroke-width:14.71200371;marker:none;enable-background:accumulate"
         d="m -209.2687,104.52858 -26.43041,18.87947 26.43041,18.87895 v -18.87895 z m 0,18.87947 0.002,0.002 c 1.8e-4,-5e-5 2.7e-4,4e-5 5.3e-4,0 0,-4e-4 0,-6.1e-4 0,-0.001 3e-5,-3.7e-4 -9e-5,-7.2e-4 0,-10e-4 -2.6e-4,1e-5 -7.9e-4,-2e-5 -0.001,0 v -5.3e-4 z m 0.36329,-0.18035 c 1.9e-4,0.002 -2.2e-4,0.003 0,0.005 2.6e-4,0.002 10e-4,0.004 0.002,0.006 -5.3e-4,-0.003 -8e-4,-0.007 -0.002,-0.0103 z m -0.34365,0.1943 10e-4,0.001 c 0,-3.4e-4 -2e-5,-6.9e-4 0,-0.001 -2.6e-4,-1.3e-4 -7.9e-4,1.8e-4 -10e-4,0 z"
         inkscape:connector-curvature="0" />
      <rect
         ry="0.7674008"
         y="104.52879"
         x="-269.08124"
         height="37.757999"
         width="5.8208332"
         id="rect1214"
         style="opacity:1;fill:#808080;fill-opacity:1;stroke:none;stroke-width:7.1484251;stroke-linecap:round;stroke-linejoin:round;stroke-miterlimit:4;stroke-dasharray:none;stroke-opacity:1" />
    </g>
  </g>
</svg>
