<?xml version="1.0" encoding="UTF-8" standalone="no"?>
<!-- Created with Inkscape (http://www.inkscape.org/) -->

<svg
   xmlns:osb="http://www.openswatchbook.org/uri/2009/osb"
   xmlns:dc="http://purl.org/dc/elements/1.1/"
   xmlns:cc="http://creativecommons.org/ns#"
   xmlns:rdf="http://www.w3.org/1999/02/22-rdf-syntax-ns#"
   xmlns:svg="http://www.w3.org/2000/svg"
   xmlns="http://www.w3.org/2000/svg"
   xmlns:xlink="http://www.w3.org/1999/xlink"
   xmlns:sodipodi="http://sodipodi.sourceforge.net/DTD/sodipodi-0.dtd"
   xmlns:inkscape="http://www.inkscape.org/namespaces/inkscape"
   width="128"
   height="128"
   viewBox="0 0 33.866666 33.866668"
   version="1.1"
   id="svg880"
   inkscape:version="0.92.2 5c3e80d, 2017-08-06"
   sodipodi:docname="guake-prefs.svg">
  <defs
     id="defs874">
    <linearGradient
       id="linearGradient939"
       inkscape:collect="always">
      <stop
         id="stop935"
         offset="0"
         style="stop-color:#d4e8ee;stop-opacity:1" />
      <stop
         id="stop937"
         offset="1"
         style="stop-color:#757574;stop-opacity:1" />
    </linearGradient>
    <linearGradient
       osb:paint="solid"
       id="linearGradient6987">
      <stop
         id="stop6985"
         offset="0"
         style="stop-color:#77d2fb;stop-opacity:1;" />
    </linearGradient>
    <linearGradient
       gradientTransform="matrix(0.21334088,0,0,0.21334088,62.320793,247.64298)"
       y2="220.38788"
       x2="-219.88927"
       y1="84.454018"
       x1="-218.42142"
       gradientUnits="userSpaceOnUse"
       id="linearGradient1025"
       xlink:href="#linearGradient939"
       inkscape:collect="always" />
    <linearGradient
       inkscape:collect="always"
       id="linearGradient1104">
      <stop
         id="stop1100"
         offset="0"
         style="stop-color:#cdd4d7;stop-opacity:1" />
      <stop
         id="stop1102"
         offset="1"
         style="stop-color:#878684;stop-opacity:1" />
    </linearGradient>
    <linearGradient
       y2="393.44238"
       x2="-422.19818"
       y1="286.10971"
       x1="-425.94803"
       gradientTransform="matrix(0.10608065,0,0,0.10608676,70.161464,250.02639)"
       gradientUnits="userSpaceOnUse"
       id="linearGradient1048"
       xlink:href="#linearGradient1104"
       inkscape:collect="always" />
  </defs>
  <sodipodi:namedview
     id="base"
     pagecolor="#ffffff"
     bordercolor="#666666"
     borderopacity="1.0"
     inkscape:pageopacity="0.0"
     inkscape:pageshadow="2"
     inkscape:zoom="1.6898437"
     inkscape:cx="21.121732"
     inkscape:cy="106.7663"
     inkscape:document-units="mm"
     inkscape:current-layer="layer1"
     showgrid="false"
     inkscape:window-width="1600"
     inkscape:window-height="803"
     inkscape:window-x="0"
     inkscape:window-y="0"
     inkscape:window-maximized="1"
     units="px" />
  <metadata
     id="metadata877">
    <rdf:RDF>
      <cc:Work
         rdf:about="">
        <dc:format>image/svg+xml</dc:format>
        <dc:type
           rdf:resource="http://purl.org/dc/dcmitype/StillImage" />
        <dc:title />
      </cc:Work>
    </rdf:RDF>
  </metadata>
  <g
     inkscape:label="Layer 1"
     inkscape:groupmode="layer"
     id="layer1"
     transform="translate(0,-263.13332)">
    <g
       id="g835"
       transform="matrix(0.94953267,0,0,0.94953267,0.85457938,14.134229)">
      <rect
         ry="1.5424962"
         y="265.47485"
         x="0.26458335"
         height="29.183573"
         width="33.337502"
         id="rect1015"
         style="opacity:1;fill:url(#linearGradient1025);fill-opacity:1;fill-rule:nonzero;stroke:#666666;stroke-width:0.1;stroke-linecap:round;stroke-linejoin:round;stroke-miterlimit:4;stroke-dasharray:none;stroke-dashoffset:0;stroke-opacity:1" />
      <rect
         style="opacity:1;fill:#085432;fill-opacity:1;fill-rule:nonzero;stroke:none;stroke-width:0.08500546;stroke-linecap:round;stroke-linejoin:round;stroke-miterlimit:4;stroke-dasharray:none;stroke-dashoffset:0;stroke-opacity:1"
         id="rect1017"
         width="32.484177"
         height="28.436579"
         x="0.691239"
         y="265.84836"
         ry="1.1978766" />
      <rect
         style="opacity:1;fill:#0fa15f;fill-opacity:1;fill-rule:nonzero;stroke:none;stroke-width:0.12322024;stroke-linecap:round;stroke-linejoin:round;stroke-miterlimit:4;stroke-dasharray:none;stroke-dashoffset:0;stroke-opacity:1"
         id="rect1019"
         width="28.435896"
         height="24.380209"
         x="2.7153795"
         y="267.87656" />
      <g
         transform="matrix(0.88797013,0,0,0.88797013,-4.9203369,259.56173)"
         id="g1053"
         style="fill:#ffffff;stroke:#ffffff;stroke-width:0.29796422">
        <g
           id="g1110">
          <polygon
             style="fill:#ffffff;stroke:#ffffff;stroke-width:0.29796422;stroke-miterlimit:10"
             stroke-miterlimit="10"
             points="15.5,14.287 11.5,12.016 11.5,12.956 14.451,14.583 11.5,16.018 11.5,17.031 15.5,14.935 "
             id="polygon1049" />
          <path
             style="fill:#ffffff;stroke:#ffffff;stroke-width:0.29796422;stroke-miterlimit:10"
             inkscape:connector-curvature="0"
             stroke-miterlimit="10"
             d="m 22.5,19.5 h -6 v -1 h 6 z"
             id="path1051" />
        </g>
      </g>
    </g>
    <g
       style="stroke-width:4.08449793"
       inkscape:transform-center-y="-9.4924686"
       inkscape:transform-center-x="5.4653607"
       inkscape:label="Capa 1"
       id="layer1-4-3"
       transform="matrix(0.53602412,0,0,0.5372689,-297.29079,-20.505666)">
      <g
         style="stroke-width:4.08449793"
         id="layer1-3-65-9"
         inkscape:label="Capa 1"
         transform="translate(0.41988239,0.03484499)" />
    </g>
    <g
       style="stroke-width:4.08449793"
       inkscape:transform-center-y="-9.4924686"
       inkscape:transform-center-x="5.4653607"
       inkscape:label="Capa 1"
       id="layer1-4"
       transform="matrix(0.53602412,0,0,0.5372689,-297.29079,-20.480663)">
      <g
         style="stroke-width:4.08449793"
         id="layer1-3-65"
         inkscape:label="Capa 1"
         transform="translate(0.41988239,0.03484499)" />
    </g>
    <ellipse
       cy="286.14545"
       cx="24.981121"
       id="circle1042"
       style="opacity:1;fill:#2d2f33;fill-opacity:1;fill-rule:nonzero;stroke:none;stroke-width:0.00568447;stroke-linecap:round;stroke-linejoin:round;stroke-miterlimit:4;stroke-dasharray:none;stroke-dashoffset:0;stroke-opacity:1"
       rx="7.2873874"
       ry="7.287806" />
    <path
       style="opacity:0.25;fill:#000000;fill-opacity:1;stroke-width:0.00581594"
       d="m 24.976617,280.63625 c -0.253197,0 -0.247047,-0.008 -0.331011,0.4402 -0.03103,0.16566 -0.06359,0.30855 -0.07232,0.31729 -0.03051,0.0306 -0.400555,0.0777 -0.460487,0.0586 -0.03886,-0.0126 -0.115428,-0.13394 -0.213917,-0.34044 -0.173015,-0.36232 -0.176963,-0.36455 -0.475452,-0.26484 -0.147928,0.0495 -0.154542,0.0567 -0.163275,0.17511 -0.005,0.068 0.0038,0.22767 0.01911,0.35472 0.01554,0.12681 0.01742,0.25236 0.0038,0.27863 -0.03044,0.0588 -0.414033,0.21977 -0.467968,0.1961 -0.02181,-0.0105 -0.134806,-0.13521 -0.251332,-0.27941 -0.19105,-0.23632 -0.219943,-0.26026 -0.293077,-0.24212 -0.114987,0.0281 -0.343787,0.16608 -0.364297,0.21978 -0.0094,0.0238 0.03294,0.17805 0.09437,0.34043 0.06143,0.16251 0.111754,0.32121 0.111754,0.35264 0,0.0643 -0.300179,0.30587 -0.37978,0.30587 -0.02767,0 -0.17715,-0.0834 -0.332172,-0.18497 -0.155024,-0.10162 -0.29721,-0.18498 -0.315979,-0.18498 -0.04633,0 -0.329272,0.28149 -0.329272,0.3276 0,0.0216 0.09009,0.17174 0.200162,0.33627 0.225807,0.3378 0.225755,0.3167 -3.73e-4,0.58458 -0.11822,0.14005 -0.1047,0.14088 -0.580224,-0.0338 l -0.241605,-0.089 -0.07466,0.0926 c -0.04106,0.051 -0.09819,0.15369 -0.126975,0.2287 l -0.05232,0.13627 0.167348,0.14151 c 0.09204,0.0779 0.220917,0.19043 0.286368,0.25027 l 0.119038,0.10896 -0.08244,0.20577 c -0.04533,0.11316 -0.09857,0.2187 -0.118325,0.23422 -0.02209,0.0169 -0.171651,0.0147 -0.386814,-0.004 -0.405621,-0.0376 -0.398714,-0.0412 -0.465842,0.2387 -0.05182,0.21603 -0.04377,0.22608 0.324563,0.40159 0.181246,0.0865 0.293315,0.15872 0.305527,0.19715 0.02523,0.0796 -0.03349,0.44168 -0.07585,0.46787 -0.01805,0.0104 -0.174548,0.0449 -0.347785,0.0747 -0.173225,0.0302 -0.33232,0.0689 -0.353524,0.0859 -0.05202,0.0422 -0.05202,0.43714 0,0.47942 0.02129,0.0169 0.180279,0.0561 0.353524,0.0859 0.173226,0.0301 0.329705,0.0638 0.347785,0.0752 0.04237,0.0263 0.101089,0.38834 0.07585,0.46786 -0.01217,0.0384 -0.124287,0.11106 -0.305527,0.19714 -0.366955,0.17511 -0.378029,0.18834 -0.326496,0.3934 0.0637,0.25367 0.07692,0.26816 0.241473,0.26705 0.07999,-4.9e-4 0.242576,-0.0126 0.361332,-0.029 0.159096,-0.0217 0.225807,-0.0169 0.253539,0.008 0.0727,0.0716 0.189329,0.4037 0.160566,0.45741 -0.01491,0.0281 -0.139614,0.14466 -0.276885,0.25921 -0.222651,0.1856 -0.247466,0.21689 -0.229854,0.28851 0.02809,0.11421 0.166319,0.34315 0.219603,0.36362 0.02471,0.0105 0.177971,-0.0332 0.340427,-0.0943 0.162476,-0.0615 0.321058,-0.1117 0.352494,-0.1117 0.06409,0 0.305982,0.3002 0.305982,0.37979 0,0.0276 -0.08331,0.17721 -0.185109,0.33213 -0.101781,0.15495 -0.185087,0.29726 -0.185087,0.31601 0,0.0468 0.281727,0.32928 0.328432,0.32928 0.02078,0 0.162203,-0.0834 0.314364,-0.18498 0.152168,-0.10162 0.301012,-0.18497 0.330753,-0.18497 0.07911,0 0.383586,0.24502 0.383586,0.3087 0,0.03 -0.05018,0.18707 -0.111628,0.34979 -0.06143,0.1625 -0.104007,0.31572 -0.09452,0.34045 0.02057,0.0533 0.249464,0.19169 0.364429,0.21978 0.07312,0.0169 0.10197,-0.004 0.293012,-0.24212 0.116562,-0.14424 0.228171,-0.26939 0.248122,-0.2782 0.0524,-0.0237 0.441671,0.13774 0.470551,0.19464 0.01344,0.0263 0.01322,0.14508 -4.87e-4,0.26385 -0.01365,0.11883 -0.02575,0.27561 -0.02656,0.34859 -0.0014,0.12324 0.0063,0.13605 0.10703,0.17805 0.05973,0.0237 0.16951,0.0535 0.243974,0.064 l 0.135414,0.0169 0.155276,-0.32501 c 0.09985,-0.20911 0.176752,-0.33192 0.215651,-0.34426 0.05994,-0.0169 0.430031,0.0279 0.460551,0.0586 0.0086,0.008 0.04128,0.15136 0.07233,0.31722 0.03103,0.16565 0.07035,0.33257 0.08736,0.37085 0.02774,0.0621 0.05282,0.0695 0.24373,0.0695 0.137326,0 0.224625,-0.0126 0.246182,-0.0403 0.01847,-0.0216 0.05666,-0.18077 0.08516,-0.3522 0.02849,-0.17175 0.0613,-0.32732 0.07298,-0.34617 0.027,-0.0437 0.38805,-0.10289 0.469646,-0.0771 0.03852,0.0126 0.103209,0.10812 0.172134,0.25552 0.06072,0.12996 0.137703,0.27572 0.171063,0.32413 0.05463,0.0792 0.07289,0.0859 0.182695,0.0684 0.06712,-0.0105 0.169237,-0.0392 0.226962,-0.0634 0.09893,-0.0411 0.104867,-0.0523 0.103943,-0.1919 -4.87e-4,-0.0815 -0.01365,-0.24528 -0.0291,-0.36399 -0.02078,-0.15872 -0.01847,-0.22555 0.0086,-0.25184 0.05712,-0.0561 0.420948,-0.19442 0.462484,-0.17594 0.02015,0.008 0.131447,0.13332 0.246889,0.27602 0.115449,0.14278 0.23356,0.25975 0.262321,0.25949 0.06158,-3.7e-4 0.361672,-0.16733 0.393651,-0.21923 0.01217,-0.0168 -0.03187,-0.19485 -0.09792,-0.38941 l -0.120194,-0.35367 0.167872,-0.15097 c 0.09229,-0.0831 0.183199,-0.15117 0.201989,-0.15117 0.01889,0 0.170035,0.0903 0.336105,0.20073 0.166088,0.11023 0.320524,0.20071 0.343139,0.20071 0.05314,0 0.323591,-0.26993 0.323591,-0.32295 0,-0.0216 -0.08331,-0.16734 -0.185088,-0.32232 -0.101781,-0.15517 -0.185151,-0.30448 -0.185151,-0.33214 0,-0.0764 0.246783,-0.37986 0.308754,-0.37986 0.0299,0 0.187377,0.0502 0.349849,0.1117 0.162477,0.0615 0.316016,0.10393 0.341271,0.0941 0.05473,-0.0216 0.233192,-0.32301 0.233717,-0.39528 2.48e-4,-0.0279 -0.117716,-0.15012 -0.261924,-0.27141 -0.3007,-0.25317 -0.309894,-0.28252 -0.175556,-0.55704 0.06945,-0.14193 0.09563,-0.16902 0.160104,-0.16503 0.04239,0.002 0.212423,0.0147 0.377781,0.0271 l 0.300624,0.0237 0.04701,-0.11254 c 0.02576,-0.0619 0.05543,-0.17364 0.06567,-0.24842 l 0.01869,-0.13605 -0.325461,-0.156 c -0.205683,-0.0985 -0.332446,-0.17763 -0.344365,-0.21536 -0.02551,-0.0798 0.03469,-0.4408 0.07772,-0.46742 0.01889,-0.0105 0.174632,-0.0445 0.346171,-0.0731 0.171545,-0.0283 0.329981,-0.0668 0.352105,-0.0852 0.05477,-0.0455 0.05477,-0.4381 0,-0.48355 -0.02207,-0.0169 -0.180574,-0.0569 -0.352105,-0.0853 -0.171547,-0.0283 -0.327322,-0.0611 -0.346171,-0.0731 -0.04335,-0.0269 -0.102957,-0.38777 -0.07734,-0.46843 0.01239,-0.0388 0.135184,-0.1159 0.344237,-0.2158 l 0.325073,-0.15516 -0.01869,-0.13542 c -0.01029,-0.0743 -0.03899,-0.18435 -0.06393,-0.24397 -0.0431,-0.10309 -0.05286,-0.10855 -0.193464,-0.1075 -0.08144,4.9e-4 -0.245231,0.0126 -0.363973,0.0291 -0.253067,0.033 -0.255536,0.0313 -0.364558,-0.23028 -0.05232,-0.12555 -0.06821,-0.20093 -0.04959,-0.2358 0.01491,-0.0281 0.138689,-0.14403 0.274758,-0.25764 0.136065,-0.11358 0.247074,-0.22923 0.247074,-0.25764 -3.77e-4,-0.0728 -0.178727,-0.37479 -0.23372,-0.39593 -0.02523,-0.0105 -0.17879,0.0325 -0.341268,0.0941 -0.162477,0.0615 -0.319927,0.11169 -0.349849,0.11169 -0.06198,0 -0.308751,-0.30357 -0.308751,-0.37985 0,-0.0275 0.08337,-0.1772 0.185129,-0.33218 0.101781,-0.15515 0.185088,-0.3 0.185088,-0.32228 0,-0.0533 -0.270758,-0.32295 -0.324429,-0.32295 -0.02314,0 -0.157207,0.0777 -0.29824,0.17216 -0.378172,0.25394 -0.334171,0.24685 -0.546867,0.0869 -0.107954,-0.0813 -0.18765,-0.16482 -0.18765,-0.19673 0,-0.0306 0.0503,-0.18854 0.111755,-0.35098 0.06143,-0.16251 0.103754,-0.31609 0.09406,-0.34138 -0.02125,-0.0554 -0.323345,-0.2334 -0.396813,-0.23367 -0.02874,-1.1e-4 -0.146836,0.11673 -0.262294,0.25946 -0.115448,0.14277 -0.226172,0.2669 -0.246125,0.27571 -0.05241,0.0238 -0.441612,-0.13773 -0.47055,-0.19462 -0.01344,-0.0263 -0.01365,-0.13123 -4.87e-4,-0.23291 0.01322,-0.10183 0.02496,-0.25867 0.02651,-0.34864 0.0025,-0.15767 -9.91e-4,-0.16503 -0.102243,-0.20722 -0.05773,-0.0237 -0.159853,-0.0525 -0.226962,-0.0634 -0.109822,-0.0169 -0.128024,-0.0105 -0.182652,0.0684 -0.03336,0.0483 -0.110368,0.19442 -0.171063,0.32404 -0.06893,0.14719 -0.133673,0.24345 -0.172177,0.25555 -0.0816,0.0263 -0.442577,-0.0331 -0.469585,-0.0771 -0.01155,-0.0169 -0.04453,-0.17489 -0.07302,-0.34628 -0.02849,-0.17174 -0.06685,-0.32999 -0.08522,-0.35213 -0.02148,-0.0262 -0.108815,-0.0401 -0.246102,-0.0401 z m -0.155024,1.72682 c 0.08503,3.8e-4 0.172218,0.004 0.260507,0.0126 0.0883,0.008 0.177697,0.0217 0.267273,0.0344 0.179146,0.0292 0.358945,0.0699 0.531447,0.11758 0.172491,0.0475 0.337758,0.10183 0.487904,0.15768 0.150153,0.0561 0.285175,0.11358 0.397265,0.16775 0.0744,0.0361 0.14776,0.0756 0.219863,0.11862 0.0721,0.0431 0.142953,0.0888 0.212293,0.13753 0.06937,0.0485 0.13722,0.10015 0.203458,0.15369 0.06626,0.0535 0.13088,0.1096 0.193591,0.16734 0.125442,0.11547 0.243391,0.23817 0.352296,0.36416 0.10892,0.12619 0.20877,0.2558 0.297915,0.38511 0.08914,0.12934 0.167641,0.25869 0.233797,0.38401 0.06617,0.12534 0.120026,0.24685 0.159978,0.36075 0.01995,0.0571 0.03644,0.11191 0.04929,0.16482 0.0128,0.0529 0.02209,0.10309 0.02729,0.15074 0.0052,0.0475 0.0065,0.0922 0.004,0.13375 -0.0025,0.0415 -0.0094,0.0796 -0.02057,0.11422 -0.0126,0.0392 -0.0287,0.0743 -0.04781,0.10666 -0.01911,0.0321 -0.04117,0.0613 -0.06548,0.0869 -0.02418,0.0263 -0.05087,0.0489 -0.07896,0.0691 -0.02811,0.0217 -0.05776,0.038 -0.08824,0.0531 -0.06101,0.0306 -0.125463,0.0517 -0.187733,0.0653 -0.06225,0.0126 -0.122314,0.0217 -0.174612,0.0217 -0.26434,0.008 -0.495064,0.004 -0.820913,-0.002 -0.325848,-0.008 -0.746822,-0.0217 -1.39165,-0.0263 v -4e-5 c -0.0097,9.9e-4 -0.05089,0.002 -0.112762,-0.002 -0.03094,-0.002 -0.06699,-0.008 -0.10682,-0.0147 -0.03987,-0.008 -0.08343,-0.0217 -0.12941,-0.0382 -0.04598,-0.0147 -0.09433,-0.0388 -0.143645,-0.0668 -0.04934,-0.0277 -0.09968,-0.0619 -0.149586,-0.10394 -0.04993,-0.0415 -0.09941,-0.0907 -0.147151,-0.14865 -0.04774,-0.0579 -0.09368,-0.12429 -0.136422,-0.20114 -0.212032,-0.38002 -0.396635,-0.69588 -0.571511,-1.00688 -0.08742,-0.15579 -0.172407,-0.30976 -0.257219,-0.47024 -0.0848,-0.16063 -0.169446,-0.32727 -0.256036,-0.5076 -0.02767,-0.0575 -0.05402,-0.12493 -0.06903,-0.19673 -0.0076,-0.0359 -0.01217,-0.0731 -0.0126,-0.11065 -5.95e-4,-0.0376 0.0027,-0.076 0.01197,-0.11401 0.0088,-0.0382 0.02313,-0.0766 0.04373,-0.11379 0.02078,-0.0376 0.04806,-0.0743 0.08324,-0.11023 0.03514,-0.0357 0.07818,-0.0703 0.13025,-0.10267 0.05207,-0.0326 0.113224,-0.0632 0.184689,-0.0915 0.04453,-0.0168 0.09118,-0.0326 0.139613,-0.0452 0.04846,-0.0126 0.09868,-0.0237 0.150448,-0.0308 0.103545,-0.0147 0.213157,-0.0237 0.326561,-0.0216 z m -2.318364,1.19631 c 0.03242,4.9e-4 0.06382,0.004 0.09418,0.0105 0.03035,0.004 0.05965,0.0147 0.08782,0.0271 0.05635,0.0237 0.108164,0.0544 0.154981,0.0907 0.0468,0.0363 0.08847,0.0777 0.124623,0.11946 0.03617,0.042 0.06678,0.0846 0.09122,0.12388 0.141251,0.22711 0.25388,0.43154 0.411457,0.72121 0.157606,0.2897 0.360115,0.66458 0.681052,1.23244 0.0059,0.008 0.02881,0.0428 0.05488,0.0999 0.01322,0.0285 0.02687,0.0628 0.03953,0.10225 0.0126,0.0395 0.02418,0.084 0.03296,0.13269 0.0086,0.0487 0.01448,0.10204 0.01553,0.15956 0.0011,0.0573 -0.0025,0.11884 -0.0126,0.1835 -0.01029,0.0647 -0.02687,0.1329 -0.05194,0.20409 -0.02498,0.071 -0.05849,0.14487 -0.102076,0.22108 -0.216086,0.37765 -0.391477,0.69884 -0.567637,1.0091 -0.08809,0.15515 -0.176313,0.30748 -0.269984,0.46281 -0.09366,0.15537 -0.19273,0.31363 -0.302366,0.48057 -0.03504,0.0534 -0.07886,0.11044 -0.13237,0.15977 -0.02677,0.0237 -0.05593,0.0475 -0.08765,0.067 -0.03172,0.0168 -0.06601,0.0357 -0.102957,0.0472 -0.03693,0.0105 -0.07653,0.0168 -0.118913,0.0168 -0.04237,4.9e-4 -0.08757,-0.004 -0.135604,-0.0168 -0.04806,-0.0126 -0.09903,-0.0332 -0.152966,-0.0624 -0.05393,-0.0292 -0.110893,-0.0672 -0.170958,-0.11568 -0.03743,-0.0302 -0.07369,-0.0636 -0.108836,-0.0995 -0.03514,-0.0361 -0.06918,-0.0747 -0.102033,-0.11653 -0.06573,-0.0829 -0.126976,-0.17531 -0.183787,-0.27496 -0.05683,-0.0995 -0.109253,-0.20618 -0.157354,-0.31722 -0.04807,-0.11107 -0.09183,-0.22609 -0.131363,-0.34278 -0.03951,-0.11673 -0.07482,-0.23476 -0.105938,-0.35149 -0.03112,-0.11673 -0.05807,-0.23213 -0.08095,-0.34358 -0.02286,-0.11148 -0.04175,-0.21846 -0.05658,-0.31892 -0.01491,-0.10036 -0.02576,-0.19358 -0.03265,-0.27755 -0.0069,-0.0833 -0.01029,-0.16775 -0.01029,-0.25238 1.1e-5,-0.085 0.0036,-0.17006 0.0097,-0.25552 0.0063,-0.0854 0.01575,-0.1709 0.02806,-0.25604 0.01217,-0.0852 0.02714,-0.16986 0.04459,-0.25394 0.03483,-0.16839 0.07955,-0.33352 0.131804,-0.49265 0.05227,-0.15894 0.111985,-0.31202 0.177005,-0.4555 0.06504,-0.14362 0.135329,-0.27751 0.208518,-0.39875 0.07319,-0.12115 0.149291,-0.22976 0.225991,-0.32231 0.03835,-0.0462 0.07686,-0.0884 0.115218,-0.12639 0.03833,-0.038 0.07659,-0.0712 0.114378,-0.0999 0.03779,-0.0285 0.07516,-0.0525 0.111796,-0.071 0.03666,-0.0168 0.07256,-0.0321 0.10745,-0.0397 0.03951,-0.008 0.07785,-0.0126 0.114903,-0.0126 z m 2.478095,2.42884 a 0.42898925,0.41639594 0 0 1 0.429004,0.41639 0.42898925,0.41639594 0 0 1 -0.429004,0.41636 0.42898925,0.41639594 0 0 1 -0.429003,-0.41636 0.42898925,0.41639594 0 0 1 0.429003,-0.41639 z m 2.130183,0.84432 c 0.176354,-4.9e-4 0.350478,2.5e-4 0.529835,0.004 0.179356,0.004 0.36394,0.0105 0.561188,0.0237 0.06305,0.004 0.133588,0.0126 0.202576,0.0359 0.03447,0.0105 0.06857,0.0263 0.101152,0.0435 0.03258,0.0168 0.06368,0.04 0.09206,0.0666 0.02838,0.0264 0.05412,0.0582 0.07606,0.0949 0.02209,0.037 0.04006,0.0792 0.05328,0.12766 0.01322,0.0485 0.02148,0.10371 0.02366,0.16565 0.0021,0.0619 -0.0016,0.13123 -0.0126,0.20827 -0.0069,0.0481 -0.01722,0.0968 -0.03013,0.14572 -0.01322,0.0487 -0.0292,0.0983 -0.04793,0.14781 -0.03746,0.0993 -0.08549,0.19946 -0.141797,0.29954 -0.05631,0.1 -0.120845,0.19946 -0.191177,0.29743 -0.07031,0.0978 -0.146436,0.19442 -0.225911,0.2875 -0.07949,0.0932 -0.16235,0.1835 -0.246181,0.26952 -0.08381,0.0859 -0.168648,0.16754 -0.251986,0.24369 -0.08335,0.076 -0.165164,0.14635 -0.243156,0.20975 -0.078,0.0634 -0.152148,0.11989 -0.219998,0.16796 -0.06754,0.0481 -0.137683,0.0932 -0.209924,0.13606 -0.07224,0.0424 -0.146584,0.0827 -0.222494,0.11946 -0.07594,0.0374 -0.153449,0.072 -0.232116,0.10414 -0.07867,0.0321 -0.158383,0.0615 -0.238767,0.0884 -0.160755,0.0537 -0.324012,0.0978 -0.485771,0.13164 -0.161762,0.0342 -0.322083,0.0584 -0.476937,0.0733 -0.154855,0.0147 -0.304247,0.0217 -0.444293,0.0168 -0.140054,-0.002 -0.270696,-0.0147 -0.388039,-0.0365 -0.05866,-0.0105 -0.114022,-0.0237 -0.165542,-0.0376 -0.05152,-0.0147 -0.09922,-0.0313 -0.142574,-0.0504 -0.04338,-0.0168 -0.0824,-0.0397 -0.116624,-0.0626 -0.03422,-0.0236 -0.0637,-0.0475 -0.0878,-0.0743 -0.02729,-0.0302 -0.04968,-0.0619 -0.06788,-0.0949 -0.01827,-0.033 -0.03212,-0.0666 -0.04237,-0.10057 -0.01029,-0.0342 -0.01701,-0.0691 -0.02057,-0.10394 -0.0038,-0.0348 -0.004,-0.0697 -0.0021,-0.10414 0.004,-0.0689 0.01785,-0.13625 0.03666,-0.19799 0.01889,-0.0617 0.04279,-0.11799 0.06704,-0.16502 0.12242,-0.23817 0.240052,-0.43961 0.407645,-0.72349 0.167578,-0.28384 0.385147,-0.64995 0.70757,-1.21695 0.004,-0.008 0.02181,-0.0468 0.05761,-0.0987 0.01785,-0.0263 0.04012,-0.0552 0.0672,-0.0859 0.02711,-0.0311 0.05904,-0.0634 0.0963,-0.0955 0.03728,-0.0324 0.07989,-0.0642 0.128172,-0.0938 0.04833,-0.0298 0.102391,-0.0575 0.162624,-0.0808 0.06025,-0.0237 0.12666,-0.0432 0.199742,-0.0569 0.07306,-0.0126 0.152756,-0.0217 0.239531,-0.0217 0.430193,0 0.7918,-0.008 1.144502,-0.008 z"
       id="path1172"
       inkscape:connector-curvature="0" />
    <path
       inkscape:connector-curvature="0"
       id="path1007"
       d="m 24.976617,280.37884 c -0.253197,0 -0.247047,-0.008 -0.331011,0.4402 -0.03103,0.16566 -0.06359,0.30855 -0.07232,0.31728 -0.03051,0.0306 -0.400555,0.0777 -0.460487,0.0586 -0.03886,-0.0126 -0.115428,-0.13395 -0.213917,-0.34044 -0.173015,-0.36232 -0.176963,-0.36455 -0.475452,-0.26484 -0.147928,0.0495 -0.154542,0.0567 -0.163275,0.1751 -0.005,0.068 0.0038,0.22768 0.01911,0.35472 0.01554,0.12682 0.01742,0.25237 0.0038,0.27864 -0.03044,0.0588 -0.414033,0.21976 -0.467968,0.1961 -0.02181,-0.0105 -0.134806,-0.13521 -0.251332,-0.27941 -0.19105,-0.23633 -0.219943,-0.26027 -0.293077,-0.24213 -0.114987,0.0281 -0.343787,0.16608 -0.364297,0.21979 -0.0094,0.0237 0.03294,0.17805 0.09437,0.34043 0.06143,0.1625 0.111754,0.32121 0.111754,0.35264 0,0.0642 -0.300179,0.30587 -0.37978,0.30587 -0.02767,0 -0.17715,-0.0834 -0.332172,-0.18497 -0.155024,-0.10163 -0.29721,-0.18498 -0.315979,-0.18498 -0.04633,0 -0.329272,0.28149 -0.329272,0.3276 0,0.0216 0.09009,0.17174 0.200162,0.33627 0.225807,0.3378 0.225755,0.3167 -3.73e-4,0.58457 -0.11822,0.14006 -0.1047,0.14088 -0.580224,-0.0338 l -0.241605,-0.089 -0.07466,0.0926 c -0.04106,0.051 -0.09819,0.15369 -0.126975,0.2287 l -0.05232,0.13627 0.167348,0.14151 c 0.09204,0.0779 0.220917,0.19043 0.286368,0.25027 l 0.119038,0.10897 -0.08244,0.20576 c -0.04533,0.11317 -0.09857,0.21871 -0.118325,0.23422 -0.02209,0.0169 -0.171651,0.0147 -0.386814,-0.004 -0.405621,-0.0376 -0.398714,-0.0412 -0.465842,0.2387 -0.05182,0.21603 -0.04377,0.22608 0.324563,0.40159 0.181246,0.0865 0.293315,0.15872 0.305527,0.19715 0.02523,0.0796 -0.03349,0.44169 -0.07585,0.46787 -0.01805,0.0105 -0.174548,0.045 -0.347785,0.0747 -0.173225,0.0302 -0.33232,0.0689 -0.353524,0.0859 -0.05202,0.0422 -0.05202,0.43714 0,0.47942 0.02129,0.0168 0.180279,0.0561 0.353524,0.0859 0.173226,0.03 0.329705,0.0638 0.347785,0.0752 0.04237,0.0263 0.101089,0.38835 0.07585,0.46786 -0.01217,0.0384 -0.124287,0.11107 -0.305527,0.19715 -0.366955,0.1751 -0.378029,0.18833 -0.326496,0.39339 0.0637,0.25368 0.07692,0.26816 0.241473,0.26705 0.07999,-4.9e-4 0.242576,-0.0126 0.361332,-0.029 0.159096,-0.0217 0.225807,-0.0168 0.253539,0.008 0.0727,0.0716 0.189329,0.4037 0.160566,0.45741 -0.01491,0.0281 -0.139614,0.14466 -0.276885,0.25921 -0.222651,0.1856 -0.247466,0.21689 -0.229854,0.28851 0.02809,0.11421 0.166319,0.34315 0.219603,0.36362 0.02471,0.0105 0.177971,-0.0331 0.340427,-0.0943 0.162476,-0.0615 0.321058,-0.1117 0.352494,-0.1117 0.06409,0 0.305982,0.3002 0.305982,0.3798 0,0.0276 -0.08331,0.1772 -0.185109,0.33212 -0.101781,0.15496 -0.185087,0.29726 -0.185087,0.31601 0,0.0468 0.281727,0.32928 0.328432,0.32928 0.02078,0 0.162203,-0.0834 0.314364,-0.18498 0.152168,-0.10161 0.301012,-0.18496 0.330753,-0.18496 0.07911,0 0.383586,0.24501 0.383586,0.3087 0,0.03 -0.05018,0.18707 -0.111628,0.34978 -0.06143,0.1625 -0.104007,0.31572 -0.09452,0.34045 0.02057,0.0533 0.249464,0.19169 0.364429,0.21978 0.07312,0.0169 0.10197,-0.004 0.293012,-0.24212 0.116562,-0.14424 0.228171,-0.26939 0.248122,-0.2782 0.0524,-0.0237 0.441671,0.13774 0.470551,0.19464 0.01344,0.0263 0.01322,0.14508 -4.87e-4,0.26385 -0.01365,0.11884 -0.02575,0.27561 -0.02656,0.34859 -0.0014,0.12324 0.0063,0.13606 0.10703,0.17805 0.05973,0.0237 0.16951,0.0535 0.243974,0.064 l 0.135414,0.0169 0.155276,-0.32502 c 0.09985,-0.20911 0.176752,-0.33192 0.215651,-0.34426 0.05994,-0.0169 0.430031,0.0279 0.460551,0.0586 0.0086,0.008 0.04128,0.15137 0.07233,0.31722 0.03103,0.16565 0.07035,0.33257 0.08736,0.37085 0.02774,0.0621 0.05282,0.0695 0.24373,0.0695 0.137326,0 0.224625,-0.0126 0.246182,-0.0403 0.01847,-0.0216 0.05666,-0.18076 0.08516,-0.35219 0.02849,-0.17176 0.0613,-0.32733 0.07298,-0.34618 0.027,-0.0437 0.38805,-0.10288 0.469646,-0.0771 0.03852,0.0126 0.103209,0.10813 0.172134,0.25552 0.06072,0.12996 0.137703,0.27572 0.171063,0.32413 0.05463,0.0792 0.07289,0.0859 0.182695,0.0685 0.06712,-0.0105 0.169237,-0.0393 0.226962,-0.0634 0.09893,-0.0411 0.104867,-0.0523 0.103943,-0.1919 -4.87e-4,-0.0815 -0.01365,-0.24527 -0.0291,-0.36398 -0.02078,-0.15873 -0.01847,-0.22556 0.0086,-0.25185 0.05712,-0.056 0.420948,-0.19442 0.462484,-0.17594 0.02015,0.008 0.131447,0.13332 0.246889,0.27603 0.115449,0.14277 0.23356,0.25974 0.262321,0.25948 0.06158,-3.7e-4 0.361672,-0.16733 0.393651,-0.21923 0.01217,-0.0168 -0.03187,-0.19484 -0.09792,-0.38941 l -0.120194,-0.35367 0.167872,-0.15096 c 0.09229,-0.0831 0.183199,-0.15117 0.201989,-0.15117 0.01889,0 0.170035,0.0903 0.336105,0.20072 0.166088,0.11023 0.320524,0.20072 0.343139,0.20072 0.05314,0 0.323591,-0.26994 0.323591,-0.32296 0,-0.0216 -0.08331,-0.16734 -0.185088,-0.32232 -0.101781,-0.15517 -0.185151,-0.30448 -0.185151,-0.33214 0,-0.0764 0.246783,-0.37986 0.308754,-0.37986 0.0299,0 0.187377,0.0502 0.349849,0.1117 0.162477,0.0615 0.316016,0.10393 0.341271,0.0941 0.05473,-0.0216 0.233192,-0.32301 0.233717,-0.39528 2.48e-4,-0.0279 -0.117716,-0.15012 -0.261924,-0.27141 -0.3007,-0.25317 -0.309894,-0.28252 -0.175556,-0.55704 0.06945,-0.14193 0.09563,-0.16902 0.160104,-0.16503 0.04239,0.002 0.212423,0.0147 0.377781,0.0271 l 0.300624,0.0237 0.04701,-0.11254 c 0.02576,-0.0619 0.05543,-0.17363 0.06567,-0.24842 l 0.01869,-0.13605 -0.325461,-0.156 c -0.205683,-0.0985 -0.332446,-0.17763 -0.344365,-0.21536 -0.02551,-0.0798 0.03469,-0.4408 0.07772,-0.46742 0.01889,-0.0105 0.174632,-0.0445 0.346171,-0.0731 0.171545,-0.0284 0.329981,-0.0668 0.352105,-0.0852 0.05477,-0.0456 0.05477,-0.4381 0,-0.48355 -0.02207,-0.0168 -0.180574,-0.0569 -0.352105,-0.0852 -0.171547,-0.0283 -0.327322,-0.0611 -0.346171,-0.0731 -0.04335,-0.0269 -0.102957,-0.38778 -0.07734,-0.46844 0.01239,-0.0388 0.135184,-0.1159 0.344237,-0.2158 l 0.325073,-0.15516 -0.01869,-0.13541 c -0.01029,-0.0743 -0.03899,-0.18435 -0.06393,-0.24398 -0.0431,-0.10309 -0.05286,-0.10855 -0.193464,-0.1075 -0.08144,4.9e-4 -0.245231,0.0126 -0.363973,0.0291 -0.253067,0.033 -0.255536,0.0313 -0.364558,-0.23029 -0.05232,-0.12555 -0.06821,-0.20093 -0.04959,-0.2358 0.01491,-0.0281 0.138689,-0.14403 0.274758,-0.25764 0.136065,-0.11359 0.247074,-0.22923 0.247074,-0.25764 -3.77e-4,-0.0729 -0.178727,-0.37479 -0.23372,-0.39593 -0.02523,-0.0105 -0.17879,0.0325 -0.341268,0.0941 -0.162477,0.0615 -0.319927,0.1117 -0.349849,0.1117 -0.06198,0 -0.308751,-0.30357 -0.308751,-0.37985 0,-0.0275 0.08337,-0.17721 0.185129,-0.33218 0.101781,-0.15515 0.185088,-0.3 0.185088,-0.32228 0,-0.0534 -0.270758,-0.32296 -0.324429,-0.32296 -0.02314,0 -0.157207,0.0777 -0.29824,0.17217 -0.378172,0.25394 -0.334171,0.24684 -0.546867,0.0869 -0.107954,-0.0813 -0.18765,-0.16482 -0.18765,-0.19673 0,-0.0306 0.0503,-0.18854 0.111755,-0.35098 0.06143,-0.16251 0.103754,-0.3161 0.09406,-0.34138 -0.02125,-0.0554 -0.323345,-0.23341 -0.396813,-0.23368 -0.02874,-1.1e-4 -0.146836,0.11674 -0.262294,0.25947 -0.115448,0.14277 -0.226172,0.26689 -0.246125,0.27571 -0.05241,0.0237 -0.441612,-0.13773 -0.47055,-0.19463 -0.01344,-0.0263 -0.01365,-0.13123 -4.87e-4,-0.23291 0.01322,-0.10182 0.02496,-0.25866 0.02651,-0.34863 0.0025,-0.15768 -9.91e-4,-0.16502 -0.102243,-0.20722 -0.05773,-0.0237 -0.159853,-0.0525 -0.226962,-0.0634 -0.109822,-0.0169 -0.128024,-0.0105 -0.182652,0.0684 -0.03336,0.0483 -0.110368,0.19443 -0.171063,0.32405 -0.06893,0.14719 -0.133673,0.24345 -0.172177,0.25554 -0.0816,0.0263 -0.442577,-0.0331 -0.469585,-0.0771 -0.01155,-0.0168 -0.04453,-0.17489 -0.07302,-0.34627 -0.02849,-0.17175 -0.06685,-0.33 -0.08522,-0.35213 -0.02148,-0.0262 -0.108815,-0.0401 -0.246102,-0.0401 z m -0.155024,1.72682 c 0.08503,3.7e-4 0.172218,0.004 0.260507,0.0126 0.0883,0.008 0.177697,0.0217 0.267273,0.0344 0.179146,0.0292 0.358945,0.0699 0.531447,0.11758 0.172491,0.0475 0.337758,0.10182 0.487904,0.15767 0.150153,0.0561 0.285175,0.11359 0.397265,0.16776 0.0744,0.0361 0.14776,0.0756 0.219863,0.11862 0.0721,0.0431 0.142953,0.0888 0.212293,0.13753 0.06937,0.0485 0.13722,0.10015 0.203458,0.15369 0.06626,0.0535 0.13088,0.10959 0.193591,0.16733 0.125442,0.11548 0.243391,0.23818 0.352296,0.36417 0.10892,0.12619 0.20877,0.25579 0.297915,0.38511 0.08914,0.12933 0.167641,0.25869 0.233797,0.38401 0.06617,0.12534 0.120026,0.24685 0.159978,0.36075 0.01995,0.0571 0.03644,0.1119 0.04929,0.16481 0.0128,0.0529 0.02209,0.10309 0.02729,0.15075 0.0052,0.0475 0.0065,0.0922 0.004,0.13374 -0.0025,0.0415 -0.0094,0.0796 -0.02057,0.11422 -0.0126,0.0393 -0.0287,0.0743 -0.04781,0.10666 -0.01911,0.0321 -0.04117,0.0613 -0.06548,0.0869 -0.02418,0.0263 -0.05087,0.0489 -0.07896,0.0691 -0.02811,0.0217 -0.05776,0.038 -0.08824,0.0531 -0.06101,0.0306 -0.125463,0.0517 -0.187733,0.0653 -0.06225,0.0126 -0.122314,0.0217 -0.174612,0.0217 -0.26434,0.008 -0.495064,0.004 -0.820913,-0.002 -0.325848,-0.008 -0.746822,-0.0217 -1.39165,-0.0263 v -4e-5 c -0.0097,9.9e-4 -0.05089,0.002 -0.112762,-0.002 -0.03094,-0.002 -0.06699,-0.008 -0.10682,-0.0147 -0.03987,-0.008 -0.08343,-0.0217 -0.12941,-0.0382 -0.04598,-0.0147 -0.09433,-0.0388 -0.143645,-0.0668 -0.04934,-0.0277 -0.09968,-0.0619 -0.149586,-0.10393 -0.04993,-0.0415 -0.09941,-0.0907 -0.147151,-0.14865 -0.04774,-0.058 -0.09368,-0.12429 -0.136422,-0.20114 -0.212032,-0.38002 -0.396635,-0.69588 -0.571511,-1.00689 -0.08742,-0.15578 -0.172407,-0.30975 -0.257219,-0.47024 -0.0848,-0.16062 -0.169446,-0.32726 -0.256036,-0.50759 -0.02767,-0.0575 -0.05402,-0.12493 -0.06903,-0.19673 -0.0076,-0.0359 -0.01217,-0.0731 -0.0126,-0.11065 -5.95e-4,-0.0376 0.0027,-0.076 0.01197,-0.11401 0.0088,-0.0382 0.02313,-0.0766 0.04373,-0.1138 0.02078,-0.0376 0.04806,-0.0743 0.08324,-0.11023 0.03514,-0.0357 0.07818,-0.0703 0.13025,-0.10267 0.05207,-0.0326 0.113224,-0.0632 0.184689,-0.0915 0.04453,-0.0169 0.09118,-0.0326 0.139613,-0.0452 0.04846,-0.0126 0.09868,-0.0237 0.150448,-0.0308 0.103545,-0.0147 0.213157,-0.0237 0.326561,-0.0216 z m -2.318364,1.19631 c 0.03242,4.9e-4 0.06382,0.004 0.09418,0.0105 0.03035,0.004 0.05965,0.0147 0.08782,0.0271 0.05635,0.0237 0.108164,0.0544 0.154981,0.0907 0.0468,0.0363 0.08847,0.0777 0.124623,0.11946 0.03617,0.042 0.06678,0.0846 0.09122,0.12388 0.141251,0.22711 0.25388,0.43154 0.411457,0.7212 0.157606,0.2897 0.360115,0.66458 0.681052,1.23245 0.0059,0.008 0.02881,0.0428 0.05488,0.0999 0.01322,0.0285 0.02687,0.0628 0.03953,0.10225 0.0126,0.0395 0.02418,0.084 0.03296,0.13269 0.0086,0.0487 0.01448,0.10204 0.01553,0.15957 0.0011,0.0573 -0.0025,0.11883 -0.0126,0.1835 -0.01029,0.0647 -0.02687,0.13291 -0.05194,0.20408 -0.02498,0.071 -0.05849,0.14487 -0.102076,0.22108 -0.216086,0.37766 -0.391477,0.69885 -0.567637,1.00911 -0.08809,0.15515 -0.176313,0.30747 -0.269984,0.46281 -0.09366,0.15537 -0.19273,0.31363 -0.302366,0.48057 -0.03504,0.0534 -0.07886,0.11044 -0.13237,0.15977 -0.02677,0.0237 -0.05593,0.0475 -0.08765,0.067 -0.03172,0.0168 -0.06601,0.0357 -0.102957,0.0472 -0.03693,0.0105 -0.07653,0.0168 -0.118913,0.0168 -0.04237,4.9e-4 -0.08757,-0.004 -0.135604,-0.0168 -0.04806,-0.0126 -0.09903,-0.0332 -0.152966,-0.0624 -0.05393,-0.0292 -0.110893,-0.0672 -0.170958,-0.11569 -0.03743,-0.0302 -0.07369,-0.0636 -0.108836,-0.0995 -0.03514,-0.0361 -0.06918,-0.0747 -0.102033,-0.11653 -0.06573,-0.0829 -0.126976,-0.17531 -0.183787,-0.27497 -0.05683,-0.0995 -0.109253,-0.20617 -0.157354,-0.31722 -0.04807,-0.11106 -0.09183,-0.22608 -0.131363,-0.34277 -0.03951,-0.11673 -0.07482,-0.23475 -0.105938,-0.3515 -0.03112,-0.11673 -0.05807,-0.23212 -0.08095,-0.34356 -0.02286,-0.1115 -0.04175,-0.21847 -0.05658,-0.31893 -0.01491,-0.10036 -0.02576,-0.19358 -0.03265,-0.27755 -0.0069,-0.0833 -0.01029,-0.16775 -0.01029,-0.25238 1.1e-5,-0.085 0.0036,-0.17007 0.0097,-0.25552 0.0063,-0.0855 0.01575,-0.17091 0.02806,-0.25604 0.01217,-0.0852 0.02714,-0.16986 0.04459,-0.25395 0.03483,-0.16838 0.07955,-0.33352 0.131804,-0.49264 0.05227,-0.15894 0.111985,-0.31202 0.177005,-0.45551 0.06504,-0.14361 0.135329,-0.2775 0.208518,-0.39875 0.07319,-0.12114 0.149291,-0.22975 0.225991,-0.3223 0.03835,-0.0462 0.07686,-0.0884 0.115218,-0.12639 0.03833,-0.038 0.07659,-0.0712 0.114378,-0.0999 0.03779,-0.0285 0.07516,-0.0525 0.111796,-0.071 0.03666,-0.0168 0.07256,-0.0321 0.10745,-0.0397 0.03951,-0.008 0.07785,-0.0126 0.114903,-0.0126 z m 2.478095,2.42883 a 0.42898925,0.41639594 0 0 1 0.429004,0.41639 0.42898925,0.41639594 0 0 1 -0.429004,0.41637 0.42898925,0.41639594 0 0 1 -0.429003,-0.41637 0.42898925,0.41639594 0 0 1 0.429003,-0.41639 z m 2.130183,0.84433 c 0.176354,-4.9e-4 0.350478,2.4e-4 0.529835,0.004 0.179356,0.004 0.36394,0.0104 0.561188,0.0237 0.06305,0.004 0.133588,0.0126 0.202576,0.0359 0.03447,0.0105 0.06857,0.0263 0.101152,0.0435 0.03258,0.0168 0.06368,0.0399 0.09206,0.0666 0.02838,0.0264 0.05412,0.0582 0.07606,0.0949 0.02209,0.037 0.04006,0.0792 0.05328,0.12765 0.01322,0.0485 0.02148,0.10372 0.02366,0.16566 0.0021,0.0619 -0.0016,0.13122 -0.0126,0.20828 -0.0069,0.0481 -0.01722,0.0968 -0.03013,0.1457 -0.01322,0.0487 -0.0292,0.0983 -0.04793,0.14782 -0.03746,0.0993 -0.08549,0.19945 -0.141797,0.29954 -0.05631,0.0999 -0.120845,0.19946 -0.191177,0.29743 -0.07031,0.0978 -0.146436,0.19442 -0.225911,0.2875 -0.07949,0.0932 -0.16235,0.18349 -0.246181,0.26951 -0.08381,0.0859 -0.168648,0.16754 -0.251986,0.2437 -0.08335,0.076 -0.165164,0.14634 -0.243156,0.20975 -0.078,0.0634 -0.152148,0.11989 -0.219998,0.16796 -0.06754,0.0481 -0.137683,0.0932 -0.209924,0.13605 -0.07224,0.0424 -0.146584,0.0827 -0.222494,0.11947 -0.07594,0.0374 -0.153449,0.072 -0.232116,0.10414 -0.07867,0.0321 -0.158383,0.0615 -0.238767,0.0884 -0.160755,0.0537 -0.324012,0.0978 -0.485771,0.13164 -0.161762,0.0342 -0.322083,0.0584 -0.476937,0.0733 -0.154855,0.0147 -0.304247,0.0217 -0.444293,0.0168 -0.140054,-0.002 -0.270696,-0.0147 -0.388039,-0.0365 -0.05866,-0.0104 -0.114022,-0.0237 -0.165542,-0.0376 -0.05152,-0.0147 -0.09922,-0.0313 -0.142574,-0.0504 -0.04338,-0.0168 -0.0824,-0.0397 -0.116624,-0.0626 -0.03422,-0.0235 -0.0637,-0.0475 -0.0878,-0.0743 -0.02729,-0.0302 -0.04968,-0.0619 -0.06788,-0.0949 -0.01827,-0.033 -0.03212,-0.0666 -0.04237,-0.10057 -0.01029,-0.0342 -0.01701,-0.0691 -0.02057,-0.10393 -0.0038,-0.0348 -0.004,-0.0697 -0.0021,-0.10414 0.004,-0.0689 0.01785,-0.13626 0.03666,-0.19799 0.01889,-0.0617 0.04279,-0.11799 0.06704,-0.16502 0.12242,-0.23818 0.240052,-0.43961 0.407645,-0.7235 0.167578,-0.28384 0.385147,-0.64994 0.70757,-1.21695 0.004,-0.008 0.02181,-0.0468 0.05761,-0.0987 0.01785,-0.0263 0.04012,-0.0552 0.0672,-0.0859 0.02711,-0.0311 0.05904,-0.0634 0.0963,-0.0955 0.03728,-0.0324 0.07989,-0.0642 0.128172,-0.0938 0.04833,-0.0298 0.102391,-0.0575 0.162624,-0.0808 0.06025,-0.0237 0.12666,-0.0432 0.199742,-0.0569 0.07306,-0.0126 0.152756,-0.0217 0.239531,-0.0217 0.430193,0 0.7918,-0.008 1.144502,-0.008 z"
       style="opacity:1;fill:url(#linearGradient1048);fill-opacity:1;stroke-width:0.00581594" />
  </g>
</svg>
