<?xml version="1.0" encoding="UTF-8" standalone="no"?>
<!-- Created with Inkscape (http://www.inkscape.org/) -->

<svg
   xmlns:osb="http://www.openswatchbook.org/uri/2009/osb"
   xmlns:dc="http://purl.org/dc/elements/1.1/"
   xmlns:cc="http://creativecommons.org/ns#"
   xmlns:rdf="http://www.w3.org/1999/02/22-rdf-syntax-ns#"
   xmlns:svg="http://www.w3.org/2000/svg"
   xmlns="http://www.w3.org/2000/svg"
   xmlns:xlink="http://www.w3.org/1999/xlink"
   xmlns:sodipodi="http://sodipodi.sourceforge.net/DTD/sodipodi-0.dtd"
   xmlns:inkscape="http://www.inkscape.org/namespaces/inkscape"
   width="128"
   height="128"
   viewBox="0 0 33.866666 33.866668"
   version="1.1"
   id="svg8"
   inkscape:version="0.92.2 5c3e80d, 2017-08-06"
   sodipodi:docname="help-browser.svg">
  <defs
     id="defs2">
    <linearGradient
       inkscape:collect="always"
       id="linearGradient1077">
      <stop
         style="stop-color:#fefefe;stop-opacity:1"
         offset="0"
         id="stop1073" />
      <stop
         style="stop-color:#cacaca;stop-opacity:1"
         offset="1"
         id="stop1075" />
    </linearGradient>
    <linearGradient
       id="linearGradient1231"
       inkscape:collect="always">
      <stop
         id="stop1227"
         offset="0"
         style="stop-color:#fdaa00;stop-opacity:1" />
      <stop
         id="stop1229"
         offset="1"
         style="stop-color:#ff4300;stop-opacity:1" />
    </linearGradient>
    <linearGradient
       osb:paint="solid"
       id="linearGradient6987">
      <stop
         id="stop6985"
         offset="0"
         style="stop-color:#77d2fb;stop-opacity:1;" />
    </linearGradient>
    <linearGradient
       gradientTransform="matrix(0.30509876,0,0,0.30509876,-12.357361,176.12343)"
       gradientUnits="userSpaceOnUse"
       y2="392.4646"
       x2="96.539238"
       y1="293.0831"
       x1="97.097816"
       id="linearGradient1233"
       xlink:href="#linearGradient1077"
       inkscape:collect="always" />
    <linearGradient
       y2="380.75809"
       x2="95.35537"
       y1="290.09341"
       x1="97.048286"
       gradientTransform="matrix(0.27783728,0,0,0.27783728,-9.7401633,185.41107)"
       gradientUnits="userSpaceOnUse"
       id="linearGradient1071"
       xlink:href="#linearGradient1231"
       inkscape:collect="always" />
    <linearGradient
       inkscape:collect="always"
       id="linearGradient943">
      <stop
         style="stop-color:#fcfcfc;stop-opacity:1"
         offset="0"
         id="stop939" />
      <stop
         style="stop-color:#ccc9c5;stop-opacity:1"
         offset="1"
         id="stop941" />
    </linearGradient>
    <linearGradient
       gradientTransform="matrix(0.06883889,0,0,0.06883889,-0.6894212,262.4439)"
       inkscape:collect="always"
       xlink:href="#linearGradient943"
       id="linearGradient945"
       x1="256"
       y1="96.757812"
       x2="238.75977"
       y2="382.00391"
       gradientUnits="userSpaceOnUse" />
  </defs>
  <sodipodi:namedview
     id="base"
     pagecolor="#ffffff"
     bordercolor="#666666"
     borderopacity="1.0"
     inkscape:pageopacity="0.0"
     inkscape:pageshadow="2"
     inkscape:zoom="2.3898"
     inkscape:cx="23.964762"
     inkscape:cy="48.041181"
     inkscape:document-units="mm"
     inkscape:current-layer="layer1"
     showgrid="false"
     units="px"
     inkscape:window-width="1600"
     inkscape:window-height="811"
     inkscape:window-x="0"
     inkscape:window-y="0"
     inkscape:window-maximized="1" />
  <metadata
     id="metadata5">
    <rdf:RDF>
      <cc:Work
         rdf:about="">
        <dc:format>image/svg+xml</dc:format>
        <dc:type
           rdf:resource="http://purl.org/dc/dcmitype/StillImage" />
        <dc:title />
      </cc:Work>
    </rdf:RDF>
  </metadata>
  <g
     inkscape:label="Layer 1"
     inkscape:groupmode="layer"
     id="layer1"
     transform="translate(0,-263.13332)">
    <g
       id="g845"
       transform="matrix(0.9374998,0,0,0.9374998,1.0583376,17.303049)">
      <circle
         r="16.61875"
         cy="280.59583"
         cx="16.933332"
         id="circle838"
         style="opacity:0.25;fill:#000000;fill-opacity:1;fill-rule:nonzero;stroke:none;stroke-width:0.2;stroke-linecap:round;stroke-linejoin:round;stroke-miterlimit:4;stroke-dasharray:none;stroke-dashoffset:0;stroke-opacity:1" />
      <circle
         style="opacity:1;fill:url(#linearGradient1233);fill-opacity:1;fill-rule:nonzero;stroke:#999999;stroke-width:0.2;stroke-linecap:round;stroke-linejoin:round;stroke-miterlimit:4;stroke-dasharray:none;stroke-dashoffset:0;stroke-opacity:1"
         id="circle1069"
         cx="16.933332"
         cy="280.06665"
         r="16.61875" />
      <circle
         r="15.133817"
         cy="280.06665"
         cx="16.933332"
         id="path1201"
         style="opacity:1;fill:url(#linearGradient1071);fill-opacity:1;fill-rule:nonzero;stroke:none;stroke-width:0.22611232;stroke-linecap:round;stroke-linejoin:round;stroke-miterlimit:4;stroke-dasharray:none;stroke-dashoffset:0;stroke-opacity:1" />
      <path
         style="opacity:0.25;fill:#000000;fill-opacity:1;fill-rule:nonzero;stroke:none;stroke-width:0.12014765;stroke-linecap:round;stroke-linejoin:round;stroke-miterlimit:4;stroke-dasharray:none;stroke-dashoffset:0;stroke-opacity:1"
         d="M 16.933334,269.51079 A 10.962117,10.962117 0 0 0 5.9712788,280.47284 10.962117,10.962117 0 0 0 16.933334,291.4349 10.962117,10.962117 0 0 0 27.895389,280.47284 10.962117,10.962117 0 0 0 16.933334,269.51079 Z m 0.02326,2.28808 c 1.667706,0 2.998041,0.45377 3.990908,1.36132 0.992867,0.90754 1.489313,2.00508 1.489313,3.2927 0,0.74465 -0.174631,1.43109 -0.523686,2.05939 -0.349055,0.62829 -1.031551,1.39233 -2.047689,2.29212 -0.682595,0.60503 -1.128623,1.05105 -1.338055,1.33805 -0.209433,0.287 -0.364631,0.6167 -0.46547,0.98903 -0.100837,0.37232 -0.159003,0.97735 -0.174516,1.81508 h -2.012866 c -0.0078,-0.27924 -0.0117,-0.48867 -0.0117,-0.62829 0,-0.82222 0.116466,-1.53203 0.349169,-2.1293 0.17065,-0.44989 0.445985,-0.90366 0.826067,-1.36131 0.279244,-0.33354 0.779496,-0.8183 1.500876,-1.45436 0.729136,-0.64381 1.202344,-1.15575 1.419533,-1.53583 0.21719,-0.38008 0.325775,-0.79513 0.325775,-1.24502 0,-0.81446 -0.318009,-1.52808 -0.954064,-2.14086 -0.636055,-0.62054 -1.415584,-0.9308 -2.33864,-0.9308 -0.892028,0 -1.636766,0.27927 -2.234037,0.83776 -0.597272,0.55848 -0.988939,1.43111 -1.175101,2.61789 l -2.15256,-0.25599 c 0.193919,-1.59014 0.767965,-2.80795 1.722048,-3.65344 0.961839,-0.84549 2.230069,-1.26814 3.804693,-1.26814 z m -1.210058,14.96278 h 2.38516 v 2.38516 h -2.38516 z"
         id="path3262"
         inkscape:connector-curvature="0" />
      <path
         inkscape:connector-curvature="0"
         id="path932"
         d="M 16.933334,269.1046 A 10.962117,10.962117 0 0 0 5.9712788,280.06665 10.962117,10.962117 0 0 0 16.933334,291.02871 10.962117,10.962117 0 0 0 27.895389,280.06665 10.962117,10.962117 0 0 0 16.933334,269.1046 Z m 0.02326,2.28808 c 1.667706,0 2.998041,0.45377 3.990908,1.36132 0.992867,0.90754 1.489313,2.00508 1.489313,3.2927 0,0.74465 -0.174631,1.43109 -0.523686,2.05939 -0.349055,0.62829 -1.031551,1.39233 -2.047689,2.29212 -0.682595,0.60503 -1.128623,1.05105 -1.338055,1.33805 -0.209433,0.287 -0.364631,0.6167 -0.46547,0.98902 -0.100837,0.37233 -0.159003,0.97736 -0.174516,1.81509 h -2.012866 c -0.0078,-0.27924 -0.0117,-0.48867 -0.0117,-0.62829 0,-0.82222 0.116466,-1.53203 0.349169,-2.1293 0.17065,-0.44989 0.445985,-0.90366 0.826067,-1.36131 0.279244,-0.33355 0.779496,-0.8183 1.500876,-1.45436 0.729136,-0.64381 1.202344,-1.15575 1.419533,-1.53583 0.21719,-0.38008 0.325775,-0.79513 0.325775,-1.24502 0,-0.81446 -0.318009,-1.52808 -0.954064,-2.14086 -0.636055,-0.62054 -1.415584,-0.93081 -2.33864,-0.93081 -0.892028,0 -1.636766,0.27928 -2.234037,0.83777 -0.597272,0.55848 -0.988939,1.43111 -1.175101,2.61789 l -2.15256,-0.25599 c 0.193919,-1.59014 0.767965,-2.80795 1.722048,-3.65344 0.961839,-0.84549 2.230069,-1.26814 3.804693,-1.26814 z m -1.210058,14.96278 h 2.38516 v 2.38516 h -2.38516 z"
         style="opacity:1;fill:url(#linearGradient945);fill-opacity:1;fill-rule:nonzero;stroke:none;stroke-width:0.12014765;stroke-linecap:round;stroke-linejoin:round;stroke-miterlimit:4;stroke-dasharray:none;stroke-dashoffset:0;stroke-opacity:1" />
    </g>
  </g>
</svg>
