<?xml version="1.0" encoding="UTF-8" standalone="no"?>
<!-- Created with Inkscape (http://www.inkscape.org/) -->

<svg
   xmlns:dc="http://purl.org/dc/elements/1.1/"
   xmlns:cc="http://creativecommons.org/ns#"
   xmlns:rdf="http://www.w3.org/1999/02/22-rdf-syntax-ns#"
   xmlns:svg="http://www.w3.org/2000/svg"
   xmlns="http://www.w3.org/2000/svg"
   xmlns:xlink="http://www.w3.org/1999/xlink"
   xmlns:sodipodi="http://sodipodi.sourceforge.net/DTD/sodipodi-0.dtd"
   xmlns:inkscape="http://www.inkscape.org/namespaces/inkscape"
   width="128"
   height="128"
   viewBox="0 0 33.866666 33.866668"
   version="1.1"
   id="svg8"
   inkscape:version="0.92.2 5c3e80d, 2017-08-06"
   sodipodi:docname="inkscape.svg">
  <defs
     id="defs2">
    <linearGradient
       id="linearGradient997"
       x1="64.902"
       x2="78.785"
       y1="53.311"
       y2="78.152"
       gradientTransform="matrix(1.218336,3.3624988e-8,-4.1001628e-8,1.2182905,-90.544692,186.53449)"
       gradientUnits="userSpaceOnUse">
      <stop
         offset="0"
         style="stop-color:#333333;stop-opacity:1"
         id="stop993" />
      <stop
         offset="1"
         style="stop-color:#4d4d4d;stop-opacity:1"
         id="stop995" />
    </linearGradient>
    <linearGradient
       inkscape:collect="always"
       id="linearGradient977">
      <stop
         style="stop-color:#f2f2f2;stop-opacity:1"
         offset="0"
         id="stop973" />
      <stop
         style="stop-color:#d9d9d9;stop-opacity:1"
         offset="1"
         id="stop975" />
    </linearGradient>
    <filter
       filterUnits="objectBoundingBox"
       y="0%"
       x="0%"
       height="100%"
       width="100%"
       id="alpha">
      <feColorMatrix
         id="feColorMatrix916"
         values="0 0 0 0 1 0 0 0 0 1 0 0 0 0 1 0 0 0 1 0"
         type="matrix"
         in="SourceGraphic" />
    </filter>
    <mask
       id="mask0">
      <g
         id="g921"
         filter="url(#alpha)">
        <rect
           id="rect919"
           style="fill:rgb(0%,0%,0%);fill-opacity:0.301961"
           y="0"
           x="0"
           height="384"
           width="384" />
      </g>
    </mask>
    <clipPath
       id="clip1">
      <rect
         id="rect924"
         y="0"
         x="0"
         height="384"
         width="384" />
    </clipPath>
    <g
       clip-path="url(#clip1)"
       id="surface5">
      <path
         id="path927"
         d="M 25.25 190.425781 C 24.171875 196.769531 25.53125 202.992188 31.101562 207.507812 C 47.382812 213.488281 65.265625 211.421875 82.046875 215.269531 C 88.511719 217.003906 101.90625 225.113281 105.445312 233.410156 C 110.789062 223.183594 90.492188 210.03125 82.046875 207.769531 C 65.265625 203.921875 47.382812 205.988281 31.101562 200.007812 C 27.773438 197.308594 25.953125 194 25.25 190.425781 Z M 358.753906 192.730469 C 357.78125 199.949219 353.867188 206.503906 346.277344 209.929688 C 327.300781 220.589844 304.21875 222.660156 284.097656 228.050781 C 270.695312 231.640625 265.851562 237.632812 267.925781 247.214844 C 269.414062 241.839844 274.605469 238.09375 284.097656 235.550781 C 304.21875 230.160156 327.300781 228.089844 346.277344 217.429688 C 356.449219 212.835938 360.027344 202.625 358.753906 192.730469 Z M 68.90625 259.785156 C 66.933594 262.84375 67.417969 266.6875 72.230469 271.683594 C 88.617188 277.925781 106 280.378906 123.730469 280.378906 C 135.980469 280.378906 146.011719 285.53125 148.800781 292.191406 C 152.863281 282.339844 140.328125 272.878906 123.730469 272.878906 C 106 272.878906 88.617188 270.425781 72.230469 264.183594 C 70.710938 262.605469 69.621094 261.144531 68.90625 259.785156 Z M 356.863281 261.488281 C 354.519531 264.878906 349.117188 267.699219 341.167969 267.699219 C 337.164062 267.445312 333.164062 266.847656 329.296875 265.742188 C 326.953125 265.0625 325.242188 264.277344 324.050781 263.429688 C 320.539062 266.820312 320.648438 270.730469 329.296875 273.242188 C 333.164062 274.347656 337.164062 274.945312 341.167969 275.199219 C 354.941406 275.199219 361.101562 266.742188 356.863281 261.488281 Z M 284.605469 287.296875 C 283.539062 290.105469 280.964844 292.519531 276.136719 294.195312 C 259.898438 302.472656 239.863281 301.722656 225.058594 312.910156 C 223.359375 315.625 223.546875 318.5625 224.464844 321.535156 C 224.628906 321.15625 224.824219 320.78125 225.058594 320.410156 C 239.863281 309.222656 259.898438 309.972656 276.136719 301.695312 C 284.917969 298.648438 286.238281 293.160156 284.605469 287.296875 Z M 98.246094 302.769531 C 98.210938 302.8125 98.183594 302.851562 98.148438 302.894531 C 90.164062 306.96875 78.082031 313.902344 69.839844 307.441406 C 68.433594 309.351562 68.011719 311.65625 69.121094 314.339844 C 77.367188 321.816406 89.929688 314.585938 98.148438 310.394531 C 101.144531 306.882812 100.644531 304.359375 98.246094 302.769531 Z M 133.433594 314.085938 C 129.4375 321.019531 137.898438 328.992188 147.628906 329.722656 C 165.710938 330.710938 169.496094 350.152344 183.304688 357.238281 C 195.867188 361.183594 209.800781 357.699219 221.167969 351.78125 C 230.539062 349.140625 230.84375 344.71875 228.992188 339.660156 C 227.835938 341.5 225.449219 343.074219 221.167969 344.28125 C 209.800781 350.199219 195.867188 353.683594 183.304688 349.738281 C 169.496094 342.652344 165.710938 323.210938 147.628906 322.222656 C 141.402344 321.757812 135.691406 318.316406 133.433594 314.085938 Z M 133.433594 314.085938"
         style="fill:rgb(0%,0%,0%)" />
    </g>
    <linearGradient
       inkscape:collect="always"
       xlink:href="#linearGradient977"
       id="linearGradient979"
       x1="5.9422121"
       y1="267.33301"
       x2="25.278622"
       y2="291.90146"
       gradientUnits="userSpaceOnUse" />
    <linearGradient
       inkscape:collect="always"
       xlink:href="#linearGradient997"
       id="linearGradient991"
       x1="15.239247"
       y1="268.98669"
       x2="18.994362"
       y2="288.39716"
       gradientUnits="userSpaceOnUse" />
  </defs>
  <sodipodi:namedview
     id="base"
     pagecolor="#ffffff"
     bordercolor="#666666"
     borderopacity="1.0"
     inkscape:pageopacity="0.0"
     inkscape:pageshadow="2"
     inkscape:zoom="2.3898"
     inkscape:cx="37.742341"
     inkscape:cy="29.411774"
     inkscape:document-units="mm"
     inkscape:current-layer="layer1"
     showgrid="false"
     inkscape:window-width="1600"
     inkscape:window-height="811"
     inkscape:window-x="0"
     inkscape:window-y="0"
     inkscape:window-maximized="1"
     units="px" />
  <metadata
     id="metadata5">
    <rdf:RDF>
      <cc:Work
         rdf:about="">
        <dc:format>image/svg+xml</dc:format>
        <dc:type
           rdf:resource="http://purl.org/dc/dcmitype/StillImage" />
        <dc:title />
      </cc:Work>
    </rdf:RDF>
  </metadata>
  <g
     inkscape:label="Layer 1"
     inkscape:groupmode="layer"
     id="layer1"
     transform="translate(0,-263.13332)">
    <g
       id="g842"
       transform="matrix(0.94950654,0,0,0.94950654,0.85528359,14.189448)">
      <path
         style="opacity:0.25;fill:#000000;fill-opacity:1;stroke:none;stroke-width:0.26458332px;stroke-linecap:butt;stroke-linejoin:miter;stroke-opacity:1"
         d="M 3.0731743,294.06228 0.55605162,268.10184 c 0,0 0.2177221,-2.01998 1.93531378,-2.21352 1.7175906,-0.19352 24.4318656,-1.96951 24.4318656,-1.96951 0,0 1.670675,0.39707 2.106121,1.7518 0.435447,1.35472 4.233499,23.64711 4.233499,23.64711 0,0 0.556402,2.32237 -2.128846,2.83039 -2.263762,0.42828 -18.392409,3.26334 -23.5777161,4.27335 -0.9683919,0.18863 -1.6376851,0.36201 -2.3786695,0.30178 -1.3567168,-0.26292 -2.0761994,-1.58926 -2.1044451,-2.66096 z"
         id="path1885"
         inkscape:connector-curvature="0"
         sodipodi:nodetypes="ccscscsscc" />
      <path
         sodipodi:nodetypes="ccscscsscc"
         inkscape:connector-curvature="0"
         id="path1100"
         d="M 3.0731743,293.54138 0.55605162,267.58094 c 0,0 0.2177221,-2.01998 1.93531378,-2.21352 1.7175906,-0.19353 24.4318656,-1.96952 24.4318656,-1.96952 0,0 1.670675,0.39708 2.106121,1.75181 0.435447,1.35471 4.233499,23.64711 4.233499,23.64711 0,0 0.556402,2.32237 -2.128846,2.83039 -2.263762,0.42828 -18.392409,3.26334 -23.5777161,4.27335 -0.9683919,0.18862 -1.6376851,0.36201 -2.3786695,0.30178 -1.3567168,-0.26292 -2.0761994,-1.58927 -2.1044451,-2.66096 z"
         style="fill:url(#linearGradient979);fill-opacity:1;stroke:#808080;stroke-width:0.2;stroke-linecap:butt;stroke-linejoin:miter;stroke-miterlimit:4;stroke-dasharray:none;stroke-opacity:1" />
      <path
         id="path932"
         d="m 17.755088,290.64335 c -1.017458,-0.33383 -1.485493,-1.61776 -2.728083,-1.48999 -0.848447,0.07 -1.685427,-0.67144 -0.78294,-1.3271 1.302509,-1.05191 0.113774,-2.01404 -1.378217,-1.77773 -1.2085,0.19141 -2.41921,0.21208 -3.6032885,-0.0367 -1.283144,-0.969 0.9042175,-1.57849 1.5756395,-2.02019 1.223162,-0.91028 -0.801588,-1.85487 -1.5155418,-1.9298 -1.1850771,-0.0811 -2.3813889,0.25275 -3.5554132,0.0209 -1.0065918,-0.58223 -0.5342131,-2.05494 0.089308,-2.78184 2.4296524,-3.57626 4.882722,-7.14424 7.534175,-10.56054 0.702619,-1.06822 2.377683,-1.11687 3.268562,-0.26255 3.635751,2.64671 7.238756,5.34335 10.747059,8.15705 0.726288,0.73168 0.918535,2.0833 -0.05453,2.7223 -1.178092,0.93125 -2.728659,1.32145 -4.041619,1.90596 -1.2194,0.54295 -1.254846,1.22364 -0.373915,2.31146 0.406111,0.50188 1.808413,1.60646 0.54532,2.28184 -1.017211,0.73932 -2.390591,0.90445 -3.278968,1.82665 -0.347698,0.81964 1.425595,1.55657 0.07373,2.17971 -0.710738,0.52597 -1.622628,0.91379 -2.521275,0.78053 z m -4.40168,-14.17572 c 0.04091,-0.0346 -0.03255,0.21144 -0.02202,0.15902 z m -3.8423033,12.48481 c -0.6274264,-1.02401 2.6285033,-1.71434 1.9354713,-0.58214 -0.514825,0.37433 -1.292851,1.00263 -1.9354713,0.58214 z m 17.2859703,-5.60866 c -1.47573,-0.18648 0.290949,-1.4467 1.015715,-1.26216 1.246646,-0.11423 1.126361,1.05933 -0.185686,1.26713 -0.275584,0.0259 -0.55457,0.0286 -0.830029,-0.005 z m 0,0"
         style="fill:url(#linearGradient991);fill-opacity:1;stroke-width:0.35277775"
         inkscape:connector-curvature="0" />
      <path
         id="path936"
         d="m 14.926572,269.73542 c -0.69114,0.0795 -1.07681,0.71792 -1.463639,1.21987 -1.037352,1.42876 -2.046558,2.88363 -2.931324,4.41266 -0.391939,0.42144 0.233791,0.62331 0.538429,0.79117 0.546458,0.26299 1.100289,0.53464 1.695442,0.66576 0.406896,-0.17195 0.305014,-0.83416 0.399082,-1.2188 0.07283,-0.53598 0.07981,-1.08282 0.201886,-1.61105 0.324397,0.0583 0.635091,0.58485 0.944918,0.85094 0.240117,0.25666 0.685248,0.72753 0.883238,0.17036 0.370531,-0.53593 0.570438,-1.18782 1.038505,-1.65407 0.402506,-0.0343 0.80714,0.18951 1.201093,0.28729 0.784219,0.25153 1.548286,0.58429 2.356494,0.75125 0.357919,-0.0711 0.51282,-0.60922 0.335859,-0.87889 -1.451547,-1.2122 -2.90287,-2.42471 -4.354192,-3.63721 -0.259393,-0.13028 -0.556973,-0.18984 -0.845791,-0.14928 z m 0,0"
         style="fill:#ffffff;stroke-width:0.35277775"
         inkscape:connector-curvature="0" />
      <use
         transform="matrix(0.06814446,-0.01079302,0.01079302,0.06814446,1.4082089,268.27795)"
         id="use938"
         xlink:href="#surface5"
         mask="url(#mask0)"
         x="0"
         y="0"
         width="100%"
         height="100%"
         style="stroke-width:5.11317396" />
    </g>
  </g>
</svg>
