<?xml version="1.0" encoding="UTF-8" standalone="no"?>
<svg
   xmlns:dc="http://purl.org/dc/elements/1.1/"
   xmlns:cc="http://creativecommons.org/ns#"
   xmlns:rdf="http://www.w3.org/1999/02/22-rdf-syntax-ns#"
   xmlns:svg="http://www.w3.org/2000/svg"
   xmlns="http://www.w3.org/2000/svg"
   xmlns:xlink="http://www.w3.org/1999/xlink"
   xmlns:sodipodi="http://sodipodi.sourceforge.net/DTD/sodipodi-0.dtd"
   xmlns:inkscape="http://www.inkscape.org/namespaces/inkscape"
   width="128"
   height="128"
   viewBox="0 0 95.999997 95.999997"
   version="1.1"
   id="svg73"
   sodipodi:docname="insomnia.svg"
   inkscape:version="0.92.2 5c3e80d, 2017-08-06">
  <metadata
     id="metadata77">
    <rdf:RDF>
      <cc:Work
         rdf:about="">
        <dc:format>image/svg+xml</dc:format>
        <dc:type
           rdf:resource="http://purl.org/dc/dcmitype/StillImage" />
        <dc:title />
      </cc:Work>
    </rdf:RDF>
  </metadata>
  <sodipodi:namedview
     pagecolor="#ffffff"
     bordercolor="#666666"
     borderopacity="1"
     objecttolerance="10"
     gridtolerance="10"
     guidetolerance="10"
     inkscape:pageopacity="0"
     inkscape:pageshadow="2"
     inkscape:window-width="1600"
     inkscape:window-height="803"
     id="namedview75"
     showgrid="false"
     units="px"
     inkscape:zoom="1.3828125"
     inkscape:cx="154.08481"
     inkscape:cy="47.610859"
     inkscape:window-x="0"
     inkscape:window-y="0"
     inkscape:window-maximized="1"
     inkscape:current-layer="svg73"
     showguides="false" />
  <defs
     id="defs45">
    <linearGradient
       inkscape:collect="always"
       id="linearGradient939">
      <stop
         id="stop937"
         offset="0"
         style="stop-color:#3e81f6;stop-opacity:1" />
      <stop
         id="stop935"
         offset="1"
         style="stop-color:#245fe0;stop-opacity:1" />
    </linearGradient>
    <linearGradient
       inkscape:collect="always"
       xlink:href="#linearGradient939"
       id="linearGradient941"
       x1="130.20128"
       y1="27.032131"
       x2="128.95285"
       y2="73.947388"
       gradientUnits="userSpaceOnUse"
       gradientTransform="matrix(1.7608773,0,0,1.7608773,-173.72272,-41.643976)" />
  </defs>
  <g
     id="g922"
     transform="matrix(0.99686029,0,0,0.99686029,0.15070498,0.2919933)">
    <path
       style="opacity:0.25;fill:#000000;fill-opacity:1;stroke:none;stroke-width:0.55763519;stroke-miterlimit:4;stroke-dasharray:none;stroke-opacity:1"
       inkscape:connector-curvature="0"
       id="path969"
       d="m 48.002641,4.4754099 c 24.446262,0 44.26317,19.8169151 44.26317,44.2631771 0,24.446253 -19.816908,44.26141 -44.26317,44.26141 -24.446263,0 -44.2684528,-19.816918 -44.2684528,-44.26141 0,-24.446262 19.8221898,-44.2631771 44.2684528,-44.2631771 z m 0,0" />
    <path
       d="m 48.002641,3.0000001 c 24.446262,0 44.26317,19.8169149 44.26317,44.2631779 0,24.446252 -19.816908,44.26141 -44.26317,44.26141 -24.446263,0 -44.2684528,-19.816919 -44.2684528,-44.26141 0,-24.446263 19.8221898,-44.2631779 44.2684528,-44.2631779 z m 0,0"
       id="path894"
       inkscape:connector-curvature="0"
       style="fill:url(#linearGradient941);fill-opacity:1;stroke:#153680;stroke-width:0.5669291;stroke-miterlimit:4;stroke-dasharray:none;stroke-opacity:1" />
    <path
       style="opacity:0.25;fill:#000000;fill-opacity:1;stroke:none;stroke-width:0.30818632;stroke-miterlimit:4;stroke-dasharray:0.07704658, 0.07704658;stroke-dashoffset:0;stroke-opacity:1"
       d="m 54.474077,20.034668 c 0.05232,1.03209 -0.05519,2.284468 -0.312007,3.812988 -0.956392,5.691997 -3.919755,15.121382 -10.33008,21.596191 -6.410325,6.474808 -16.267694,9.993945 -21.618164,11.002441 -1.009695,0.190315 -1.85829,0.291037 -2.581058,0.310546 A 29.778578,29.778578 0 0 0 48.414018,78.962398 29.778578,29.778578 0 0 0 78.192827,49.183592 29.778578,29.778578 0 0 0 54.474077,20.034668 Z"
       id="path915"
       inkscape:connector-curvature="0" />
    <path
       inkscape:connector-curvature="0"
       id="circle901"
       d="m 54.474077,18.534668 c 0.05232,1.03209 -0.05519,2.284468 -0.312007,3.812988 -0.956392,5.691997 -3.919755,15.121382 -10.33008,21.596191 -6.410325,6.474808 -16.267694,9.993945 -21.618164,11.002441 -1.009695,0.190315 -1.85829,0.291037 -2.581058,0.310546 A 29.778578,29.778578 0 0 0 48.414018,77.462398 29.778578,29.778578 0 0 0 78.192827,47.683592 29.778578,29.778578 0 0 0 54.474077,18.534668 Z"
       style="opacity:1;fill:#dfeeff;fill-opacity:1;stroke:none;stroke-width:0.30818632;stroke-miterlimit:4;stroke-dasharray:0.07704658, 0.07704658;stroke-dashoffset:0;stroke-opacity:1" />
    <path
       inkscape:connector-curvature="0"
       id="path910"
       d="m 54.474077,18.534668 c 0.05232,1.03209 -0.05519,2.284468 -0.312007,3.812988 -0.956392,5.691997 -3.919755,15.121382 -10.33008,21.596191 -6.410325,6.474808 -16.267694,9.993945 -21.618164,11.002441 -1.009695,0.190315 -1.85829,0.291037 -2.581058,0.310546 a 29.778578,29.778578 0 0 0 7.819343,13.514648 28.859545,28.859545 0 0 0 11.664547,2.484375 28.859545,28.859545 0 0 0 28.858889,-28.86035 28.859545,28.859545 0 0 0 -12.208012,-23.547363 29.778578,29.778578 0 0 0 -1.293458,-0.313476 z"
       style="opacity:1;fill:#ffffff;fill-opacity:1;stroke:none;stroke-width:0.30818632;stroke-miterlimit:4;stroke-dasharray:0.07704658, 0.07704658;stroke-dashoffset:0;stroke-opacity:1" />
  </g>
</svg>
