<?xml version="1.0" encoding="UTF-8" standalone="no"?>
<!-- Created with Inkscape (http://www.inkscape.org/) -->

<svg
   xmlns:dc="http://purl.org/dc/elements/1.1/"
   xmlns:cc="http://creativecommons.org/ns#"
   xmlns:rdf="http://www.w3.org/1999/02/22-rdf-syntax-ns#"
   xmlns:svg="http://www.w3.org/2000/svg"
   xmlns="http://www.w3.org/2000/svg"
   xmlns:xlink="http://www.w3.org/1999/xlink"
   xmlns:sodipodi="http://sodipodi.sourceforge.net/DTD/sodipodi-0.dtd"
   xmlns:inkscape="http://www.inkscape.org/namespaces/inkscape"
   width="128"
   height="128"
   viewBox="0 0 33.866666 33.866668"
   version="1.1"
   id="svg8"
   inkscape:version="0.92.2 5c3e80d, 2017-08-06"
   sodipodi:docname="java.svg">
  <defs
     id="defs2">
    <pattern
       inkscape:collect="always"
       xlink:href="#Strips1_1"
       id="pattern903"
       patternTransform="matrix(0.5112336,0,0,0.5112336,33.960754,254.07229)" />
    <pattern
       inkscape:isstock="true"
       inkscape:stockid="Stripes 1:1"
       id="Strips1_1"
       patternTransform="translate(0,0) scale(10,10)"
       height="1"
       width="2"
       patternUnits="userSpaceOnUse"
       inkscape:collect="always">
      <rect
         id="rect1755"
         height="2"
         width="1"
         y="-0.5"
         x="0"
         style="fill:black;stroke:none" />
    </pattern>
    <linearGradient
       id="linearGradient897"
       inkscape:collect="always">
      <stop
         id="stop893"
         offset="0"
         style="stop-color:#d9d9d9;stop-opacity:1" />
      <stop
         id="stop895"
         offset="1"
         style="stop-color:#969998;stop-opacity:1" />
    </linearGradient>
    <linearGradient
       inkscape:collect="always"
       id="linearGradient846">
      <stop
         style="stop-color:#d9d9d9;stop-opacity:1"
         offset="0"
         id="stop842" />
      <stop
         style="stop-color:#787a79;stop-opacity:1"
         offset="1"
         id="stop844" />
    </linearGradient>
    <linearGradient
       inkscape:collect="always"
       xlink:href="#linearGradient897"
       id="linearGradient848"
       x1="-133.26918"
       y1="126.92522"
       x2="-121.78141"
       y2="152.32561"
       gradientUnits="userSpaceOnUse"
       gradientTransform="matrix(0.19322215,0,0,0.19322215,33.960754,254.07229)" />
    <linearGradient
       inkscape:collect="always"
       xlink:href="#linearGradient846"
       id="linearGradient856"
       x1="-126.82896"
       y1="88.590752"
       x2="-75.684265"
       y2="105.44576"
       gradientUnits="userSpaceOnUse"
       gradientTransform="matrix(0.19322215,0,0,0.19322215,33.960754,254.07229)" />
  </defs>
  <sodipodi:namedview
     id="base"
     pagecolor="#ffffff"
     bordercolor="#666666"
     borderopacity="1.0"
     inkscape:pageopacity="0.0"
     inkscape:pageshadow="2"
     inkscape:zoom="5.6"
     inkscape:cx="81.530563"
     inkscape:cy="57.385603"
     inkscape:document-units="mm"
     inkscape:current-layer="layer1"
     showgrid="false"
     inkscape:window-width="1600"
     inkscape:window-height="814"
     inkscape:window-x="0"
     inkscape:window-y="0"
     inkscape:window-maximized="1"
     showguides="false"
     units="px" />
  <metadata
     id="metadata5">
    <rdf:RDF>
      <cc:Work
         rdf:about="">
        <dc:format>image/svg+xml</dc:format>
        <dc:type
           rdf:resource="http://purl.org/dc/dcmitype/StillImage" />
        <dc:title />
      </cc:Work>
    </rdf:RDF>
  </metadata>
  <g
     inkscape:label="Layer 1"
     inkscape:groupmode="layer"
     id="layer1"
     transform="translate(0,-263.13332)">
    <path
       sodipodi:nodetypes="cscscssccccsccccsccccscssssccccscccsccc"
       inkscape:connector-curvature="0"
       id="path996"
       d="m 5.0797465,281.69204 c 0,0 -0.6842615,0.10328 -0.9295628,0.34859 -0.2453013,0.2453 -1.174866,0.34858 -1.3556137,0.50351 -0.1807478,0.15493 -0.6971726,0.41314 -1.0844903,0.61971 -0.3873176,0.20657 -1.58800395,0.15493 -1.39434318,0.51642 0.19365883,0.3615 0.99909958,1.66592 1.58336668,1.90328 0.584267,0.23736 0.818004,0.58847 1.450623,0.89832 0.632619,0.30986 1.1490438,1.32979 1.910768,1.63965 0.7617262,0.30985 0.4906027,0.30985 1.0715791,0.83919 0.5809785,0.52933 0.9166537,0.61971 1.1490439,0.92956 0.2323902,0.30985 0.5527892,0.73258 0.9544729,0.93342 0.4016838,0.20085 1.1867937,0.76685 1.6067349,0.98595 0.419941,0.2191 0.602525,0.41995 1.077243,0.73034 0.474715,0.31039 0.657299,0.67556 1.241566,1.15027 0.584267,0.47472 1.022468,0.62079 1.533701,1.04073 0.511235,0.41994 1.332859,1.13202 1.679768,1.38763 0.346908,0.25562 0.756638,0.89004 1.097715,0.48504 0.437761,-0.51981 0.726227,-0.42273 1.202836,-0.75891 0.474717,-0.34691 1.259826,-0.76685 1.698026,-1.35112 0.4382,-0.58427 2.43236,-1.90504 2.574377,-2.20198 0.142016,-0.29694 2.569209,-1.65255 2.775778,-1.93659 0.20657,-0.28403 0.710083,-0.80046 1.213597,-1.17486 0.503513,-0.37441 0.657422,-0.52011 1.040848,-0.75747 0.383425,-0.23736 0.6573,-0.63904 1.068113,-0.8764 0.410813,-0.23736 1.661509,-1.26895 1.789317,-1.43328 0.127809,-0.16432 1.291782,-0.94805 1.653279,-1.2579 0.361496,-0.30986 0.826278,-0.51643 1.032848,-0.80046 0.206569,-0.28403 0.08914,-0.32435 0.08914,-0.32435 0,0 -0.237358,-0.35604 -0.575137,-0.40169 -0.33778,-0.0456 -0.748592,-0.24648 -1.113759,-0.39255 -0.365167,-0.14607 -0.4382,-0.009 -0.812497,-0.19171 -0.374296,-0.18259 -1.077242,-0.69382 -1.698026,-0.84902 -0.620783,-0.15519 -1.031596,-0.40168 -1.068112,-0.45645 -0.03652,-0.0548 -3.00693,-1.41234 -3.161857,-1.54144 -0.154927,-0.12911 -0.464781,-0.14202 -0.580976,-0.21948 -0.116196,-0.0775 -1.368524,-0.80046 -1.652557,-0.8521 -0.284033,-0.0516 -0.593888,0.11619 -0.942474,-0.15493 -0.348586,-0.27112 -2.737046,-1.48472 -2.737046,-1.48472 z"
       style="opacity:1;fill:#2b3b5e;fill-opacity:1;stroke:none;stroke-width:0.26458332px;stroke-linecap:butt;stroke-linejoin:miter;stroke-opacity:1" />
    <path
       style="opacity:1;fill:#55617a;fill-opacity:1;stroke:none;stroke-width:0.26458332px;stroke-linecap:butt;stroke-linejoin:miter;stroke-opacity:1"
       d="m 5.0797465,281.48755 c 0,0 -0.6842615,0.10328 -0.9295628,0.34858 -0.2453013,0.2453 -1.174866,0.34859 -1.3556137,0.50352 -0.1807478,0.15492 -0.6971726,0.41313 -1.0844903,0.6197 -0.3873176,0.20657 -1.58800395,0.15493 -1.39434318,0.51643 0.19365883,0.36149 0.99909958,1.66592 1.58336668,1.90327 0.584267,0.23736 0.818004,0.58847 1.450623,0.89833 0.632619,0.30985 1.1490438,1.32979 1.910768,1.63964 0.7617262,0.30986 0.4906027,0.30986 1.0715791,0.83919 0.5809785,0.52934 0.9166537,0.61971 1.1490439,0.92957 0.2323902,0.30985 0.5527892,0.73258 0.9544729,0.93342 0.4016838,0.20084 1.1867937,0.76685 1.6067349,0.98595 0.419941,0.2191 0.602525,0.41994 1.077243,0.73033 0.474715,0.3104 0.657299,0.67556 1.241566,1.15028 0.584267,0.47472 1.022468,0.62078 1.533701,1.04073 0.511235,0.41994 1.332859,1.13201 1.679768,1.38763 0.346908,0.25562 0.756638,0.89003 1.097715,0.48503 0.437761,-0.51981 0.726227,-0.42272 1.202836,-0.75891 0.474717,-0.3469 1.259826,-0.76685 1.698026,-1.35111 0.4382,-0.58427 2.43236,-1.90504 2.574377,-2.20198 0.142016,-0.29695 2.569209,-1.65256 2.775778,-1.93659 0.20657,-0.28404 0.710083,-0.80046 1.213597,-1.17487 0.503513,-0.3744 0.657422,-0.5201 1.040848,-0.75746 0.383425,-0.23736 0.6573,-0.63905 1.068113,-0.8764 0.410813,-0.23736 1.661509,-1.26896 1.789317,-1.43328 0.127809,-0.16433 1.291782,-0.94805 1.653279,-1.25791 0.361496,-0.30985 0.826278,-0.51642 1.032848,-0.80046 0.206569,-0.28403 0.08914,-0.32435 0.08914,-0.32435 0,0 -0.237358,-0.35603 -0.575137,-0.40168 -0.33778,-0.0456 -0.748592,-0.24649 -1.113759,-0.39256 -0.365167,-0.14606 -0.4382,-0.009 -0.812497,-0.19171 -0.374296,-0.18258 -1.077242,-0.69381 -1.698026,-0.84901 -0.620783,-0.1552 -1.031596,-0.40168 -1.068112,-0.45646 -0.03652,-0.0548 -3.00693,-1.41233 -3.161857,-1.54144 -0.154927,-0.1291 -0.464781,-0.14202 -0.580976,-0.21948 -0.116196,-0.0775 -1.368524,-0.80046 -1.652557,-0.8521 -0.284033,-0.0516 -0.593888,0.1162 -0.942474,-0.15493 -0.348586,-0.27112 -2.737046,-1.48471 -2.737046,-1.48471 z"
       id="path994"
       inkscape:connector-curvature="0"
       sodipodi:nodetypes="cscscssccccsccccsccccscssssccccscccsccc" />
    <path
       sodipodi:nodetypes="cscscssccccsccccsccccscssssccccscccsccc"
       inkscape:connector-curvature="0"
       id="path992"
       d="m 5.0797465,281.1808 c 0,0 -0.6842615,0.10329 -0.9295628,0.34859 -0.2453013,0.2453 -1.174866,0.34859 -1.3556137,0.50351 -0.1807478,0.15493 -0.6971726,0.41314 -1.0844903,0.61971 -0.3873176,0.20657 -1.58800395,0.15493 -1.39434318,0.51643 0.19365883,0.36149 0.99909958,1.66591 1.58336668,1.90327 0.584267,0.23736 0.818004,0.58847 1.450623,0.89833 0.632619,0.30985 1.1490438,1.32979 1.910768,1.63964 0.7617262,0.30985 0.4906027,0.30985 1.0715791,0.83919 0.5809785,0.52933 0.9166537,0.61971 1.1490439,0.92956 0.2323902,0.30986 0.5527892,0.73259 0.9544729,0.93343 0.4016838,0.20084 1.1867937,0.76685 1.6067349,0.98595 0.419941,0.2191 0.602525,0.41994 1.077243,0.73033 0.474715,0.31039 0.657299,0.67556 1.241566,1.15028 0.584267,0.47471 1.022468,0.62078 1.533701,1.04072 0.511235,0.41994 1.332859,1.13202 1.679768,1.38764 0.346908,0.25561 0.756638,0.89003 1.097715,0.48503 0.437761,-0.51981 0.726227,-0.42272 1.202836,-0.75891 0.474717,-0.34691 1.259826,-0.76685 1.698026,-1.35112 0.4382,-0.58426 2.43236,-1.90503 2.574377,-2.20198 0.142016,-0.29694 2.569209,-1.65255 2.775778,-1.93659 0.20657,-0.28403 0.710083,-0.80045 1.213597,-1.17486 0.503513,-0.37441 0.657422,-0.52011 1.040848,-0.75747 0.383425,-0.23735 0.6573,-0.63904 1.068113,-0.8764 0.410813,-0.23735 1.661509,-1.26895 1.789317,-1.43327 0.127809,-0.16433 1.291782,-0.94806 1.653279,-1.25791 0.361496,-0.30985 0.826278,-0.51642 1.032848,-0.80046 0.206569,-0.28403 0.08914,-0.32435 0.08914,-0.32435 0,0 -0.237358,-0.35604 -0.575137,-0.40168 -0.33778,-0.0457 -0.748592,-0.24649 -1.113759,-0.39256 -0.365167,-0.14606 -0.4382,-0.009 -0.812497,-0.19171 -0.374296,-0.18258 -1.077242,-0.69382 -1.698026,-0.84901 -0.620783,-0.1552 -1.031596,-0.40169 -1.068112,-0.45646 -0.03652,-0.0548 -3.00693,-1.41233 -3.161857,-1.54144 -0.154927,-0.12911 -0.464781,-0.14202 -0.580976,-0.21948 -0.116196,-0.0775 -1.368524,-0.80046 -1.652557,-0.8521 -0.284033,-0.0516 -0.593888,0.1162 -0.942474,-0.15493 -0.348586,-0.27112 -2.737046,-1.48472 -2.737046,-1.48472 z"
       style="opacity:1;fill:#667594;fill-opacity:1;stroke:none;stroke-width:0.26458332px;stroke-linecap:butt;stroke-linejoin:miter;stroke-opacity:1" />
    <rect
       style="opacity:1;fill:#f1473e;fill-opacity:1;stroke:none;stroke-width:0.85219717;stroke-miterlimit:4;stroke-dasharray:none;stroke-opacity:1"
       id="rect887"
       width="1.7617952"
       height="3.634953"
       x="140.4805"
       y="228.1817"
       ry="0.73892349"
       transform="matrix(0.91593517,0.40132625,-0.42277528,0.90623455,0,0)" />
    <path
       style="opacity:1;fill:#ff4b42;fill-opacity:1;stroke:none;stroke-width:0.85207909;stroke-miterlimit:4;stroke-dasharray:none;stroke-opacity:1"
       d="m 32.674083,263.6703 c -0.162597,0.0273 -0.330586,0.12505 -0.417574,0.2651 -0.149881,0.24132 -0.274402,0.53985 -0.350575,0.81528 -0.06832,0.24704 0.0045,0.56277 0.182826,0.74688 0.133636,0.13799 0.376646,0.22603 0.555068,0.15487 0.162448,-0.0648 0.187659,-0.2956 0.269625,-0.4501 0.101719,-0.19173 0.207429,-0.38396 0.274888,-0.59025 0.06057,-0.18524 0.187599,-0.39298 0.114,-0.57343 -0.07484,-0.1835 -0.309436,-0.25552 -0.490664,-0.3357 -0.04311,-0.0191 -0.09111,-0.0404 -0.137594,-0.0326 z"
       id="rect888"
       inkscape:connector-curvature="0"
       sodipodi:nodetypes="assaaaaaaa" />
    <path
       style="fill:#9bb1e0;fill-opacity:1;stroke:#7c8db2;stroke-width:0.1;stroke-linecap:butt;stroke-linejoin:miter;stroke-opacity:1;stroke-miterlimit:4;stroke-dasharray:none"
       d="m 5.0797465,280.87406 c 0,0 -0.6842615,0.10329 -0.9295628,0.34859 -0.2453013,0.2453 -1.174866,0.34858 -1.3556137,0.50351 -0.1807478,0.15493 -0.6971726,0.41314 -1.0844903,0.61971 -0.3873176,0.20657 -1.58800395,0.15493 -1.39434318,0.51642 0.19365883,0.3615 0.99909958,1.66592 1.58336668,1.90328 0.584267,0.23736 0.818004,0.58847 1.450623,0.89832 0.632619,0.30986 1.1490438,1.32979 1.910768,1.63965 0.7617262,0.30985 0.4906027,0.30985 1.0715791,0.83919 0.5809785,0.52933 0.9166537,0.61971 1.1490439,0.92956 0.2323902,0.30985 0.5527892,0.73258 0.9544729,0.93342 0.4016838,0.20085 1.1867937,0.76686 1.6067349,0.98596 0.419941,0.2191 0.602525,0.41994 1.077243,0.73033 0.474715,0.31039 0.657299,0.67556 1.241566,1.15028 0.584267,0.47471 1.022468,0.62078 1.533701,1.04072 0.511235,0.41994 1.332859,1.13202 1.679768,1.38764 0.346908,0.25561 0.756638,0.89003 1.097715,0.48503 0.437761,-0.51981 0.726227,-0.42273 1.202836,-0.75891 0.474717,-0.34691 1.259826,-0.76685 1.698026,-1.35112 0.4382,-0.58426 2.43236,-1.90503 2.574377,-2.20198 0.142016,-0.29694 2.569209,-1.65255 2.775778,-1.93659 0.20657,-0.28403 0.710083,-0.80046 1.213597,-1.17486 0.503513,-0.37441 0.657422,-0.52011 1.040848,-0.75747 0.383425,-0.23736 0.6573,-0.63904 1.068113,-0.8764 0.410813,-0.23736 1.661509,-1.26895 1.789317,-1.43328 0.127809,-0.16432 1.291782,-0.94805 1.653279,-1.2579 0.361496,-0.30986 0.826278,-0.51643 1.032848,-0.80046 0.206569,-0.28403 0.08914,-0.32435 0.08914,-0.32435 0,0 -0.237358,-0.35604 -0.575137,-0.40169 -0.33778,-0.0456 -0.748592,-0.24648 -1.113759,-0.39255 -0.365167,-0.14607 -0.4382,-0.009 -0.812497,-0.19171 -0.374296,-0.18259 -1.077242,-0.69382 -1.698026,-0.84902 -0.620783,-0.15519 -1.031596,-0.40168 -1.068112,-0.45645 -0.03652,-0.0548 -3.00693,-1.41234 -3.161857,-1.54144 -0.154927,-0.12911 -0.464781,-0.14202 -0.580976,-0.21948 -0.116196,-0.0775 -1.368524,-0.80046 -1.652557,-0.8521 -0.284033,-0.0516 -0.593888,0.11619 -0.942474,-0.15493 -0.348586,-0.27112 -2.737046,-1.48472 -2.737046,-1.48472 z"
       id="path841"
       inkscape:connector-curvature="0"
       sodipodi:nodetypes="cscscssccccsccccsccccscssssccccscccsccc" />
    <path
       style="opacity:0.03999999;fill:url(#pattern903);fill-opacity:1;stroke:none;stroke-width:0.26458332px;stroke-linecap:butt;stroke-linejoin:miter;stroke-opacity:1"
       d="M 30.49445,282.00012 16.321996,291.6234 2.2496925,282.05943 c -0.1793934,0.0968 -0.3707656,0.19643 -0.5395907,0.28647 -0.3873178,0.20657 -1.58807054,0.15493 -1.39440962,0.51643 0.19365835,0.3615 0.99915902,1.66589 1.58342592,1.90325 0.5842674,0.23736 0.8180065,0.5885 1.4506254,0.89835 0.6326188,0.30986 1.1490113,1.32979 1.9107355,1.63964 0.7617263,0.30986 0.4906171,0.30981 1.0715937,0.83914 0.5809787,0.52934 0.9166874,0.61976 1.1490773,0.92961 0.2323904,0.30985 0.5527856,0.73256 0.954469,0.9334 0.4016839,0.20084 1.1867501,0.76682 1.606692,0.98592 0.419941,0.2191 0.602567,0.41992 1.077284,0.73031 0.474717,0.31039 0.657273,0.67566 1.241539,1.15037 0.584267,0.47472 1.022468,0.6207 1.533701,1.04064 0.511235,0.41995 1.332874,1.13211 1.679782,1.38772 0.346909,0.25562 0.756577,0.88998 1.097654,0.48498 0.437761,-0.51981 0.726288,-0.42268 1.202897,-0.75887 0.474717,-0.3469 1.259854,-0.7669 1.698055,-1.35117 0.4382,-0.58427 2.432324,-1.90506 2.57434,-2.202 0.142016,-0.29694 2.56917,-1.65256 2.775739,-1.9366 0.20657,-0.28403 0.710068,-0.80043 1.213581,-1.17483 0.503514,-0.37441 0.657514,-0.52011 1.04094,-0.75747 0.383425,-0.23736 0.657285,-0.63903 1.068098,-0.87639 0.410813,-0.23735 1.661509,-1.26892 1.789318,-1.43325 0.127808,-0.16432 1.291725,-0.94806 1.653221,-1.25791 0.361497,-0.30986 0.826283,-0.51647 1.032852,-0.8005 0.20657,-0.28403 0.08917,-0.32431 0.08917,-0.32431 0,0 -0.237358,-0.35606 -0.575137,-0.4017 -0.33778,-0.0456 -0.748564,-0.24645 -1.113731,-0.39251 -0.295488,-0.1182 -0.399833,-0.0512 -0.62716,-0.11803 z"
       id="path1002"
       inkscape:connector-curvature="0" />
    <path
       style="opacity:0.25;fill:#000000;fill-opacity:1;stroke:none;stroke-width:0.26458332px;stroke-linecap:butt;stroke-linejoin:miter;stroke-opacity:1"
       d="m 5.0797465,280.87406 c -0.2886411,0.62825 0.4897273,1.34753 0.9941164,1.8204 1.1911237,1.11668 2.833883,1.77909 4.4412461,2.06569 2.057561,0.36687 4.269398,0.15469 6.248728,-0.51642 1.085313,-0.36799 1.988222,-1.15446 2.891975,-1.85913 0.297729,-0.23214 0.526278,-0.54543 0.826278,-0.77464 0.417596,-0.31904 1.333151,-0.30084 1.342702,-0.82627 0.01241,-0.68262 -1.111158,-0.79787 -1.704199,-1.13614 -0.448083,-0.25558 -0.889049,-0.56753 -1.394345,-0.67135 -1.940952,-0.39878 -3.973219,0.008 -5.938874,0.25821 -2.605701,0.33147 -6.6110261,-0.74719 -7.7076275,1.63965 z"
       id="path901"
       inkscape:connector-curvature="0"
       sodipodi:nodetypes="aaaaaaaaaaa" />
    <path
       style="fill:#333333;fill-opacity:1;stroke:none;stroke-width:0.26458332px;stroke-linecap:butt;stroke-linejoin:miter;stroke-opacity:1"
       d="m 17.7017,281.7073 c 0.04478,0.0898 0.195572,0.10044 0.292133,0.073 0.163544,-0.0464 0.230084,-0.25099 0.356038,-0.36517 0.129927,-0.11778 0.259128,-0.24064 0.410813,-0.32865 0.257585,-0.14944 0.549419,-0.23099 0.830754,-0.32865 0.750348,-0.26044 1.566026,-0.34145 2.282293,-0.68468 0.532835,-0.25534 1.032092,-0.59748 1.460668,-1.00421 0.478567,-0.45418 0.912229,-0.97899 1.20505,-1.57022 0.293409,-0.59242 0.512059,-1.25294 0.519714,-1.91399 0.0075,-0.64672 -0.124999,-1.33353 -0.464939,-1.88374 -0.256412,-0.41502 -0.667785,-0.75172 -1.113759,-0.94944 -0.476868,-0.21142 -1.032339,-0.24664 -1.551959,-0.20084 -0.444849,0.0392 -0.901099,0.16229 -1.278084,0.40168 -0.174532,0.11083 -0.339191,0.26613 -0.419942,0.45646 -0.242882,0.57246 -0.07061,1.24172 -0.10955,1.86235 -0.02292,0.36526 -0.243997,0.77191 -0.07303,1.0955 0.05396,0.10214 0.183405,0.16766 0.298631,0.17583 0.07892,0.006 0.169629,-0.0289 0.21948,-0.0904 0.07446,-0.0918 0.06575,-0.23042 0.06455,-0.34858 -0.002,-0.19318 -0.116917,-0.37443 -0.117076,-0.56762 -2.32e-4,-0.27334 0.04428,-0.55781 0.164325,-0.80337 0.145976,-0.2986 0.364813,-0.58399 0.648171,-0.75772 0.309578,-0.18981 0.696008,-0.24495 1.058984,-0.25562 0.309062,-0.009 0.622715,0.0576 0.912917,0.16433 0.497864,0.14815 0.670193,0.55757 0.715256,1.01931 0.03691,0.39515 -0.03826,0.80006 -0.148471,1.18132 -0.09303,0.32181 -0.251495,0.62428 -0.42605,0.9102 -0.225392,0.36919 -0.48275,0.72602 -0.794002,1.02639 -0.345045,0.33298 -0.744482,0.61509 -1.168409,0.83919 -0.344231,0.18197 -0.724834,0.28708 -1.097401,0.40023 -0.398494,0.12102 -0.821209,0.15738 -1.213596,0.29694 -0.179556,0.0639 -0.377515,0.11483 -0.516424,0.2453 -0.297669,0.27959 -0.414969,0.70448 -0.593887,1.07158 -0.132166,0.27118 -0.487784,0.56326 -0.353198,0.83324 z"
       id="path839"
       inkscape:connector-curvature="0"
       sodipodi:nodetypes="aaaaaaaaaaaaaaaaaaaaaaaccaaaaaaaaa" />
    <path
       sodipodi:nodetypes="ccccc"
       inkscape:connector-curvature="0"
       id="path851"
       d="m 23.31614,282.8667 7.339501,-16.72363 1.835755,1.08336 -7.294646,16.53493 z"
       style="opacity:1;fill:#ad7712;fill-opacity:1;stroke:none;stroke-width:0.26458332px;stroke-linecap:butt;stroke-linejoin:miter;stroke-opacity:1" />
    <path
       style="opacity:1;fill:#f9f847;fill-opacity:1;stroke:none;stroke-width:0.26458332px;stroke-linecap:butt;stroke-linejoin:miter;stroke-opacity:1"
       d="m 23.574178,283.31416 7.597887,-17.01616 1.002059,0.52841 -7.534822,17.08164 z"
       id="path849"
       inkscape:connector-curvature="0"
       sodipodi:nodetypes="ccccc" />
    <path
       style="fill:url(#linearGradient848);fill-opacity:1;stroke:#999999;stroke-width:0.1;stroke-linecap:butt;stroke-linejoin:miter;stroke-opacity:1;stroke-miterlimit:4;stroke-dasharray:none"
       d="m 3.3962888,272.14906 c -1.6832122,2.60745 -0.0097,7.11986 1.7162842,9.12917 0.7711361,0.88754 1.7190105,1.67726 2.7945932,2.15213 1.2492624,0.55155 2.6691728,0.75958 4.0340268,0.71443 1.24663,-0.0412 2.501683,-0.37028 3.63341,-0.89466 0.838381,-0.38847 1.629359,-0.93665 2.245776,-1.62499 0.863671,-0.96445 1.473597,-2.1615 1.917126,-3.3778 0.458024,-1.25604 0.910916,-2.6191 0.730334,-3.9438 -0.115258,-0.8455 -0.34351,-1.8872 -1.122889,-2.30055 -2.82479,-1.49814 -4.438807,0.58962 -7.869858,0.81909 -2.3292945,0.15579 -6.5242324,-2.23347 -8.0788032,-0.67302 z"
       id="path837"
       inkscape:connector-curvature="0"
       sodipodi:nodetypes="ccaaaaaassc" />
    <path
       style="opacity:1;fill:#f1f1f1;fill-opacity:1;stroke:none;stroke-width:1.07701993;stroke-miterlimit:4;stroke-dasharray:none;stroke-opacity:1"
       d="m 11.499526,271.77425 a 8.1311924,3.6295232 0 0 0 -8.0287638,3.08478 8.7533846,3.53021 0 0 0 0.3873192,0.31183 8.7533846,3.53021 0 0 0 0.011582,0.008 8.7533846,3.53021 0 0 0 0.4495262,0.28627 8.7533846,3.53021 0 0 0 0.028857,0.0163 8.7533846,3.53021 0 0 0 0.5008489,0.25792 8.7533846,3.53021 0 0 0 0.052322,0.0241 8.7533846,3.53021 0 0 0 0.5417875,0.22776 8.7533846,3.53021 0 0 0 0.079181,0.0298 8.7533846,3.53021 0 0 0 0.5719426,0.1968 8.7533846,3.53021 0 0 0 0.1134299,0.0347 8.7533846,3.53021 0 0 0 0.5869202,0.16415 8.7533846,3.53021 0 0 0 0.1569646,0.0388 8.7533846,3.53021 0 0 0 0.5875193,0.13141 8.7533846,3.53021 0 0 0 0.2045932,0.0398 8.7533846,3.53021 0 0 0 0.5761367,0.0999 8.7533846,3.53021 0 0 0 0.2568146,0.0378 8.7533846,3.53021 0 0 0 0.5533705,0.0706 8.7533846,3.53021 0 0 0 0.3116327,0.0321 8.7533846,3.53021 0 0 0 0.5201204,0.0439 8.7533846,3.53021 0 0 0 0.3664503,0.0224 8.7533846,3.53021 0 0 0 0.48058,0.0207 8.7533846,3.53021 0 0 0 0.662606,0.0134 8.7533846,3.53021 0 0 0 0.745683,-0.0151 8.7533846,3.53021 0 0 0 0.43325,-0.0213 8.7533846,3.53021 0 0 0 0.435448,-0.0266 8.7533846,3.53021 0 0 0 0.417473,-0.0377 8.7533846,3.53021 0 0 0 0.435248,-0.0449 8.7533846,3.53021 0 0 0 0.397604,-0.0532 8.7533846,3.53021 0 0 0 0.430155,-0.0633 8.7533846,3.53021 0 0 0 0.37364,-0.0674 8.7533846,3.53021 0 0 0 0.421967,-0.0823 8.7533846,3.53021 0 0 0 0.347879,-0.0805 8.7533846,3.53021 0 0 0 0.404294,-0.10005 8.7533846,3.53021 0 0 0 0.324014,-0.0935 8.7533846,3.53021 0 0 0 0.37973,-0.11643 8.7533846,3.53021 0 0 0 0.295857,-0.10484 8.7533846,3.53021 0 0 0 0.352971,-0.1326 8.7533846,3.53021 0 0 0 0.264803,-0.11463 8.7533846,3.53021 0 0 0 0.322217,-0.14808 8.7533846,3.53021 0 0 0 0.230055,-0.12202 8.7533846,3.53021 0 0 0 0.288567,-0.16275 8.7533846,3.53021 0 0 0 0.197105,-0.12971 8.7533846,3.53021 0 0 0 0.24713,-0.17374 8.7533846,3.53021 0 0 0 0.303844,-0.25362 8.7533846,3.53021 0 0 0 0.0017,-0.002 8.1311924,3.6295232 0 0 0 -8.022374,-3.04773 z"
       id="ellipse857"
       inkscape:connector-curvature="0" />
    <ellipse
       ry="3.53021"
       rx="8.7533846"
       cy="273.43744"
       cx="11.47125"
       id="ellipse828"
       style="opacity:1;fill:#333333;fill-opacity:1;stroke:none;stroke-width:0.1;stroke-miterlimit:4;stroke-dasharray:none;stroke-opacity:1" />
    <ellipse
       style="opacity:1;fill:url(#linearGradient856);fill-opacity:1;stroke:none;stroke-width:0.99327904;stroke-miterlimit:4;stroke-dasharray:none;stroke-opacity:1"
       id="path826"
       cx="11.547955"
       cy="273.28796"
       rx="8.3918877"
       ry="3.1319277" />
    <path
       id="path858"
       d="m 11.499525,271.56976 c -3.6159686,0.003 -6.9026735,1.17641 -7.9063602,2.72705 1.2342741,1.21742 4.4670662,1.91803 7.9547882,1.91858 3.433381,-0.001 6.599295,-0.65682 7.869615,-1.84726 -0.965791,-1.57708 -4.255291,-2.79715 -7.918043,-2.79837 z"
       style="opacity:0.52600002;fill:#4e3001;fill-opacity:1;stroke:none;stroke-width:0.99327904;stroke-miterlimit:4;stroke-dasharray:none;stroke-opacity:1"
       inkscape:connector-curvature="0"
       sodipodi:nodetypes="ccccc" />
    <path
       style="opacity:1;fill:#bb9d55;fill-opacity:1;stroke:none;stroke-width:0.26458332px;stroke-linecap:butt;stroke-linejoin:miter;stroke-opacity:1"
       d="m 22.558419,287.05699 0.757721,-4.19029 1.88061,0.89466 -2.474006,3.32302 c 0,0 -0.07201,0.0901 -0.116861,0.0771 -0.03677,-0.0106 -0.04746,-0.10453 -0.04746,-0.10453 z"
       id="path845"
       inkscape:connector-curvature="0"
       sodipodi:nodetypes="ccccac" />
    <path
       style="opacity:1;fill:#a68c4c;fill-opacity:1;stroke:none;stroke-width:0.26458332px;stroke-linecap:butt;stroke-linejoin:miter;stroke-opacity:1"
       d="m 24.788504,283.56717 -1.801,2.93291 0.09755,0.0975 2.111734,-2.83625 z"
       id="path2869"
       inkscape:connector-curvature="0" />
    <path
       style="opacity:1;fill:#ab8f4f;fill-opacity:1;stroke:none;stroke-width:0.26458332px;stroke-linecap:butt;stroke-linejoin:miter;stroke-opacity:1"
       d="m 23.316112,282.86672 -0.628358,3.47499 0.22666,-0.0242 0.776036,-3.27269 z"
       id="path2860"
       inkscape:connector-curvature="0" />
    <path
       style="opacity:1;fill:#4e3001;fill-opacity:1;stroke:none;stroke-width:0.99327904;stroke-miterlimit:4;stroke-dasharray:none;stroke-opacity:1"
       d="m 11.499526,271.77425 a 8.1311924,3.6295232 0 0 0 -7.7968115,2.62207 8.3918878,3.1319278 0 0 0 7.8452385,2.02357 8.3918878,3.1319278 0 0 0 7.788924,-1.97314 8.1311924,3.6295232 0 0 0 -7.837351,-2.6725 z"
       id="ellipse871"
       inkscape:connector-curvature="0" />
    <path
       style="opacity:1;fill:#331f02;fill-opacity:1;stroke:none;stroke-width:0.99327904;stroke-miterlimit:4;stroke-dasharray:none;stroke-opacity:1"
       d="m 11.763131,272.57755 a 10.828312,8.3399045 0 0 0 -7.4255682,2.30444 8.3918878,3.1319277 0 0 0 7.2103902,1.5379 8.3918878,3.1319277 0 0 0 7.441445,-1.69197 10.828312,8.3399045 0 0 0 -7.226267,-2.15037 z"
       id="path905"
       inkscape:connector-curvature="0" />
    <path
       style="opacity:1;fill:#000000;stroke:none;stroke-width:0.26458332px;stroke-linecap:butt;stroke-linejoin:miter;stroke-opacity:1"
       d="m 22.764738,285.91625 -0.206291,1.14069 c 0,0 0.01066,0.094 0.04743,0.10455 0.04485,0.0129 0.116825,-0.0771 0.116825,-0.0771 l 0.630855,-0.84733 -0.0648,-0.02 c -0.237942,-0.0732 -0.424804,-0.21435 -0.524015,-0.30085 z"
       id="path876"
       inkscape:connector-curvature="0" />
    <path
       style="opacity:1;fill:#221202;fill-opacity:1;stroke:none;stroke-width:0.99327904;stroke-miterlimit:4;stroke-dasharray:none;stroke-opacity:1"
       d="m 11.487444,273.83746 a 8.5680088,3.6295231 0 0 0 -6.6240698,1.33909 8.3918878,3.1319277 0 0 0 6.6845788,1.24334 8.3918878,3.1319277 0 0 0 6.626966,-1.21658 8.5680088,3.6295231 0 0 0 -6.687475,-1.36585 z"
       id="path898"
       inkscape:connector-curvature="0" />
    <g
       aria-label="main () {     public sta  "
       transform="matrix(0.16364688,-0.08009854,0.07023169,0.19376686,33.960754,254.07229)"
       style="font-style:normal;font-weight:normal;font-size:14.35334587px;line-height:1.25;font-family:sans-serif;letter-spacing:0px;word-spacing:0px;fill:#2b3b5e;fill-opacity:1;stroke:none;stroke-width:1.36932194"
       id="text912">
      <path
         d="m -184.50461,98.202552 q 0.0144,0.229653 0.0431,0.574134 0.0431,0.330126 0.0861,0.703313 0.0431,0.358834 0.0861,0.717671 0.0574,0.35883 0.10047,0.66025 0.15789,-0.31577 0.38754,-0.77508 0.22966,-0.459307 0.47366,-0.875554 0.25836,-0.4306 0.51672,-0.717667 0.27272,-0.301421 0.48802,-0.301421 0.22965,0 0.41624,0.229654 0.20095,0.2153 0.34448,0.531074 0.14354,0.315773 0.24401,0.674607 0.11483,0.358834 0.18659,0.631547 0.0574,-0.18659 0.14354,-0.416247 0.10047,-0.244007 0.20094,-0.488014 0.11483,-0.25836 0.24401,-0.502367 0.14353,-0.244007 0.30142,-0.4306 0.1866,-0.200947 0.4019,-0.287067 0.2153,-0.100473 0.31577,-0.100473 0.12918,0 0.30142,0.08612 0.18659,0.07177 0.37319,0.200946 0.18659,0.129181 0.34448,0.315774 0.17224,0.17224 0.27271,0.358834 0.20095,0.38754 0.31577,0.846847 0.12918,0.459307 0.1866,0.875557 0.0574,0.41624 0.0718,0.74637 0.0287,0.31577 0.0431,0.44495 0,0.1866 -0.0431,0.28707 -0.0431,0.0861 -0.15788,0.14354 -0.15789,0.0718 -0.27272,0.0574 -0.11482,-0.0287 -0.18659,-0.10047 -0.0718,-0.0718 -0.11483,-0.15789 -0.0431,-0.10047 -0.0574,-0.17224 -0.0431,-0.33013 -0.10047,-0.67461 -0.0431,-0.34448 -0.10048,-0.66025 -0.0574,-0.33013 -0.14353,-0.60284 -0.0718,-0.28707 -0.15789,-0.50237 -0.0287,-0.05741 -0.10047,-0.143534 -0.0574,-0.100473 -0.14353,-0.186593 -0.0718,-0.08612 -0.14354,-0.143534 -0.0718,-0.05741 -0.10047,-0.07177 -0.14353,0 -0.30142,0.272714 -0.15789,0.25836 -0.30142,0.631547 -0.14353,0.37319 -0.27271,0.78944 -0.11483,0.40189 -0.17225,0.68896 0,0.37318 -0.14353,0.55978 -0.14353,0.17224 -0.30142,0.17224 -0.15789,0 -0.34448,-0.11483 -0.17224,-0.12918 -0.22965,-0.28707 -0.0861,-0.22965 -0.1866,-0.51672 -0.10047,-0.28706 -0.2153,-0.58848 -0.10047,-0.30142 -0.2153,-0.588493 -0.10047,-0.287067 -0.20094,-0.516721 -0.20095,0.272714 -0.4019,0.602844 -0.18659,0.33013 -0.37318,0.67461 -0.17224,0.34448 -0.34448,0.68896 -0.15789,0.33012 -0.30142,0.58849 -0.10048,0.15788 -0.2153,0.28706 -0.11483,0.11483 -0.27272,0.11483 -0.11483,0 -0.24401,-0.10047 -0.12918,-0.11483 -0.244,-0.27272 -0.11483,-0.15789 -0.2153,-0.35883 -0.0861,-0.20095 -0.12918,-0.4019 -0.11483,-0.61719 -0.20095,-1.349213 -0.0718,-0.746374 -0.14353,-1.449688 -0.0144,-0.244007 0.0574,-0.444954 0.0861,-0.2153 0.31577,-0.287067 0.24401,-0.04306 0.37319,0.07177 0.12918,0.114827 0.15789,0.358834 z"
         style="font-style:normal;font-variant:normal;font-weight:normal;font-stretch:normal;font-family:'Nanum Pen Script';-inkscape-font-specification:'Nanum Pen Script';fill:#2b3b5e;fill-opacity:1;stroke-width:1.36932194"
         id="path938"
         inkscape:connector-curvature="0" />
      <path
         d="m -172.8627,97.527944 q 0.0574,0.401894 0.0861,0.861201 0.0431,0.444954 0.0574,0.904261 0.0287,0.459307 0.0287,0.889904 0,0.4306 -0.0144,0.77508 0.45931,0.31578 0.54543,0.55978 0.10047,0.24401 0.0287,0.4306 -0.0861,0.25837 -0.31578,0.27272 -0.2153,0 -0.50236,-0.15789 -0.20095,0.14354 -0.45931,0.31578 -0.25836,0.15788 -0.54543,0.31577 -0.28706,0.14353 -0.57413,0.25836 -0.28707,0.11483 -0.53108,0.15789 -0.4593,0.0718 -0.83249,-0.17224 -0.35883,-0.24401 -0.48801,-0.73202 -0.0861,-0.33013 -0.0431,-0.67461 0.0431,-0.35884 0.2153,-0.67461 0.17224,-0.33013 0.4593,-0.58849 0.30142,-0.25836 0.70332,-0.40189 0.10047,-0.04306 0.27271,-0.07177 0.1866,-0.02871 0.37319,-0.01435 0.20095,0 0.40189,0.07177 0.20095,0.07177 0.37319,0.244 0,-0.244 -0.0143,-0.531066 0,-0.301421 -0.0144,-0.602841 -0.0144,-0.30142 -0.0431,-0.55978 -0.0144,-0.272714 -0.0431,-0.459308 -0.0287,-0.2153 -0.17224,-0.25836 -0.12918,-0.05741 -0.33012,0.01435 -0.34448,0.114826 -0.80379,0.444953 -0.45931,0.330127 -0.87556,0.703314 -0.12918,0.12918 -0.30142,0.114827 -0.15788,-0.01435 -0.27271,-0.12918 -0.11483,-0.114827 -0.12918,-0.25836 -0.0144,-0.157887 0.11483,-0.330127 0.244,-0.25836 0.54542,-0.531074 0.30142,-0.272714 0.63155,-0.488014 0.33013,-0.229653 0.67461,-0.373187 0.34448,-0.143533 0.68896,-0.157887 0.50237,-0.01435 0.77508,0.229654 0.27271,0.229653 0.33013,0.60284 z m -1.66499,3.085966 q -0.18659,0.0431 -0.4019,0.1866 -0.20094,0.12918 -0.37318,0.33012 -0.15789,0.1866 -0.24401,0.4306 -0.0718,0.22966 0,0.45931 0.0287,0.0861 0.11483,0.12918 0.10047,0.0431 0.2153,0.0144 0.34448,-0.0718 0.77508,-0.27272 0.44495,-0.2153 0.70331,-0.45931 0,-0.0861 -0.0861,-0.2153 -0.0861,-0.14353 -0.20094,-0.27271 -0.11483,-0.14353 -0.25836,-0.24401 -0.12918,-0.10047 -0.24401,-0.0861 z"
         style="font-style:normal;font-variant:normal;font-weight:normal;font-stretch:normal;font-family:'Nanum Pen Script';-inkscape-font-specification:'Nanum Pen Script';fill:#2b3b5e;fill-opacity:1;stroke-width:1.36932194"
         id="path940"
         inkscape:connector-curvature="0" />
      <path
         d="m -168.88144,96.982517 q -0.0287,0.143534 -0.20095,0.157887 -0.17224,0.01435 -0.28707,0.01435 -0.35883,0.01435 -0.74637,0.07177 -0.37319,0.05741 -0.78944,0.17224 -0.17224,0.05741 -0.37318,-0.04306 -0.20095,-0.100473 -0.24401,-0.401893 0,-0.114827 0.0861,-0.186594 0.0861,-0.07177 0.20095,-0.12918 0.18659,-0.08612 0.44495,-0.143533 0.25836,-0.07177 0.51672,-0.100474 0.27272,-0.02871 0.51672,-0.01435 0.24401,0 0.4019,0.04306 0.22965,0.07177 0.35883,0.2153 0.14353,0.143533 0.11483,0.34448 z m -0.33013,4.779663 q 0.10047,0.22966 0.10047,0.50237 0.0144,0.25836 -0.14353,0.35883 -0.20095,0.12918 -0.4306,-0.0143 -0.22965,-0.14353 -0.34448,-0.38754 -0.15789,-0.30142 -0.24401,-0.73202 -0.0861,-0.44496 -0.12918,-0.87556 -0.0431,-0.4306 -0.0574,-0.803784 0,-0.373187 0,-0.55978 0.0143,-0.200947 0.11482,-0.373187 0.10048,-0.17224 0.25836,-0.200947 0.25837,0.01435 0.41625,0.244007 0.15789,0.2153 0.14354,0.545427 0,0.25836 0.0144,0.574134 0.0144,0.31577 0.0574,0.63155 0.0431,0.31577 0.10048,0.61719 0.0574,0.28707 0.14353,0.47366 z"
         style="font-style:normal;font-variant:normal;font-weight:normal;font-stretch:normal;font-family:'Nanum Pen Script';-inkscape-font-specification:'Nanum Pen Script';fill:#2b3b5e;fill-opacity:1;stroke-width:1.36932194"
         id="path942"
         inkscape:connector-curvature="0" />
      <path
         d="m -166.89799,98.102078 q 0.0431,0.2153 0.0861,0.488014 0.0574,0.25836 0.11483,0.545427 0.0574,0.272714 0.10047,0.559781 0.0431,0.287067 0.0718,0.54543 0.17224,-0.37319 0.37318,-0.789437 0.20095,-0.416247 0.4306,-0.760728 0.24401,-0.358833 0.50237,-0.588487 0.27271,-0.229653 0.58849,-0.229653 0.47366,0 0.78943,0.34448 0.33013,0.34448 0.54543,0.861201 0.22965,0.502367 0.35883,1.062144 0.12918,0.55978 0.2153,0.99038 0.0861,0.38754 -0.34448,0.57414 -0.20094,0.10047 -0.30142,0.0287 -0.10047,-0.0718 -0.11482,-0.14353 -0.0718,-0.17224 -0.1866,-0.60284 -0.10047,-0.4306 -0.244,-0.87555 -0.12919,-0.444957 -0.30143,-0.775084 -0.17224,-0.330127 -0.38754,-0.30142 -0.25836,0.01435 -0.4593,0.38754 -0.17224,0.30142 -0.35884,0.674604 -0.17224,0.35884 -0.34448,0.74638 -0.17224,0.37318 -0.34448,0.76072 -0.15788,0.37319 -0.30142,0.68897 -0.10047,0.10047 -0.25836,0.14353 -0.14353,0.0287 -0.30142,-0.0287 -0.14353,-0.0431 -0.22965,-0.14353 -0.0861,-0.10047 -0.0861,-0.20095 -0.12918,-1.11956 -0.27271,-2.03817 -0.12918,-0.918618 -0.34449,-1.880292 -0.10047,-0.330127 -0.0431,-0.51672 0.0718,-0.200947 0.43061,-0.157887 0.50236,0.08612 0.61719,0.631547 z"
         style="font-style:normal;font-variant:normal;font-weight:normal;font-stretch:normal;font-family:'Nanum Pen Script';-inkscape-font-specification:'Nanum Pen Script';fill:#2b3b5e;fill-opacity:1;stroke-width:1.36932194"
         id="path944"
         inkscape:connector-curvature="0" />
      <path
         d="m -154.4662,95.819896 q -0.63155,0.660254 -1.06215,1.636282 -0.4306,0.976027 -0.55978,2.023821 -0.11482,0.947321 0.0718,1.865931 0.18659,0.90427 0.78943,1.60758 0.15789,0.20095 0.30142,0.35883 0.15789,0.14354 0.24401,0.28707 0.10047,0.14353 0.11483,0.30142 0.0143,0.14353 -0.0861,0.31577 -0.0574,0.10048 -0.15789,0.12918 -0.0861,0.0144 -0.18659,0 -0.10048,-0.0144 -0.20095,-0.0574 -0.0861,-0.0431 -0.12918,-0.0718 -0.45931,-0.31577 -0.81814,-0.78943 -0.34448,-0.48801 -0.57414,-1.0765 -0.22965,-0.58849 -0.34448,-1.23439 -0.10047,-0.66025 -0.0574,-1.33486 0.0431,-0.688961 0.20095,-1.349215 0.15788,-0.674607 0.41624,-1.263094 0.25837,-0.588487 0.60285,-1.062148 0.35883,-0.488014 0.77508,-0.789434 0.0861,-0.07177 0.27271,-0.05741 0.18659,0.01435 0.30142,0.100473 0.12918,0.100474 0.14353,0.25836 0.0144,0.143534 -0.0574,0.200947 z"
         style="font-style:normal;font-variant:normal;font-weight:normal;font-stretch:normal;font-family:'Nanum Pen Script';-inkscape-font-specification:'Nanum Pen Script';fill:#2b3b5e;fill-opacity:1;stroke-width:1.36932194"
         id="path946"
         inkscape:connector-curvature="0" />
      <path
         d="m -150.53989,97.642771 q 0.0861,0.918614 -0.0287,1.851582 -0.10048,0.918617 -0.28707,1.751107 -0.18659,0.81814 -0.41625,1.49275 -0.22965,0.66025 -0.37319,1.06215 -0.0287,0.0718 -0.10047,0.22965 -0.0718,0.15789 -0.18659,0.31577 -0.10048,0.14354 -0.24401,0.24401 -0.14353,0.0861 -0.31577,0.0287 -0.14354,-0.0431 -0.20095,-0.15789 -0.0431,-0.11483 -0.0431,-0.24401 0,-0.12918 0.0287,-0.25836 0.0431,-0.14353 0.0861,-0.244 0.37318,-0.99038 0.63154,-1.93771 0.25836,-0.94732 0.45931,-2.066877 0.20095,-1.148268 0.0431,-1.937702 -0.11483,-0.60284 -0.4306,-0.918614 -0.31577,-0.330127 -0.84685,-0.574134 -0.2153,-0.100473 -0.35883,-0.315773 -0.12918,-0.229654 -0.0287,-0.459307 0.11483,-0.17224 0.28707,-0.200947 0.17224,-0.04306 0.35883,0 0.1866,0.02871 0.35884,0.114827 0.17224,0.08612 0.28706,0.143533 0.22966,0.143534 0.44496,0.330127 0.2153,0.186594 0.40189,0.444954 0.1866,0.25836 0.30142,0.588487 0.12918,0.315774 0.17224,0.717667 z"
         style="font-style:normal;font-variant:normal;font-weight:normal;font-stretch:normal;font-family:'Nanum Pen Script';-inkscape-font-specification:'Nanum Pen Script';fill:#2b3b5e;fill-opacity:1;stroke-width:1.36932194"
         id="path948"
         inkscape:connector-curvature="0" />
      <path
         d="m -141.77582,95.647656 q 0.12918,0.12918 0.0287,0.330127 -0.0431,0.08612 -0.15789,0.143534 -0.11483,0.05741 -0.22965,0.02871 -0.20095,-0.02871 -0.51673,-0.08612 -0.30142,-0.05741 -0.54542,-0.08612 -0.53108,-0.07177 -0.54543,0.459307 -0.0144,0.25836 0,0.617194 0.0144,0.358834 0.0431,0.760727 0.0431,0.387541 0.0861,0.775081 0.0574,0.373187 0.11483,0.645901 0.10047,-0.01435 0.22965,0 0.12918,0 0.25836,0.05741 0.12918,0.04306 0.2153,0.157887 0.10047,0.114827 0.12918,0.30142 0.0431,0.315776 0.0431,0.875556 0,0.55978 -0.0287,1.19132 -0.0144,0.6172 -0.0574,1.23439 -0.0287,0.60284 -0.0718,1.00474 0.25836,-0.0574 0.51672,-0.11483 0.27272,-0.0574 0.50237,-0.10047 0.24401,-0.0431 0.4306,-0.0718 0.20095,-0.0287 0.30142,-0.0287 0.14354,0 0.17224,0.22966 0.0144,0.11482 -0.0143,0.2153 -0.0144,0.0861 -0.0718,0.12918 -0.12918,0.0718 -0.4306,0.17224 -0.30142,0.10047 -0.6459,0.18659 -0.33013,0.10047 -0.63155,0.17224 -0.30142,0.0718 -0.41624,0.0718 -0.15789,0 -0.27272,-0.0718 -0.11482,-0.0718 -0.18659,-0.17224 -0.0718,-0.10047 -0.10047,-0.20095 -0.0287,-0.11482 -0.0287,-0.20094 0,-0.31578 0.0144,-0.84685 0.0287,-0.53107 0.0431,-1.11956 0.0287,-0.58849 0.0431,-1.14827 0.0287,-0.57413 0.0287,-0.97603 -0.0861,0.15789 -0.22965,0.30142 -0.14354,0.12918 -0.31578,0.1866 -0.17224,0.0574 -0.40189,0 -0.22965,-0.0574 -0.34448,-0.27272 -0.0861,-0.15788 -0.0574,-0.28706 0.0287,-0.129182 0.12918,-0.229656 0.10047,-0.100473 0.25836,-0.17224 0.15788,-0.08612 0.31577,-0.17224 -0.15789,-0.488014 -0.30142,-1.047794 -0.14353,-0.559781 -0.18659,-1.119561 -0.0431,-0.559781 0.0574,-1.076501 0.10047,-0.516721 0.4306,-0.918614 0.17224,-0.215301 0.48801,-0.244007 0.33013,-0.04306 0.67461,0.02871 0.35883,0.05741 0.68896,0.200947 0.34448,0.143534 0.54543,0.287067 z"
         style="font-style:normal;font-variant:normal;font-weight:normal;font-stretch:normal;font-family:'Nanum Pen Script';-inkscape-font-specification:'Nanum Pen Script';fill:#2b3b5e;fill-opacity:1;stroke-width:1.36932194"
         id="path950"
         inkscape:connector-curvature="0" />
      <path
         d="m -166.89036,122.92238 q -0.0144,0.15788 -0.14354,0.28706 -0.12918,0.14354 -0.28706,0.12918 -0.24401,-0.0144 -0.37319,-0.18659 -0.12918,-0.17224 -0.12918,-0.28707 0,-0.54542 -0.0287,-1.13391 -0.0287,-0.60284 -0.0718,-1.23439 -0.18659,0.0287 -0.34448,-0.0287 -0.14353,-0.0718 -0.20094,-0.2153 -0.10048,-0.24401 0.0287,-0.43061 0.12918,-0.18659 0.41625,-0.35883 -0.0718,-0.53107 -0.14353,-1.04779 -0.0574,-0.51672 -0.12918,-1.00474 -0.0144,-0.0861 0.0144,-0.15788 0.0287,-0.0718 0.0718,-0.12918 0.0431,-0.0718 0.15788,-0.12918 0.1866,-0.0718 0.41625,0.11482 0.24401,0.1866 0.33013,0.47366 0.0431,0.27272 0.0861,0.63155 0.0574,0.34448 0.10047,0.76073 0.30142,-0.1866 0.55978,-0.4019 0.27272,-0.2153 0.45931,-0.4593 0.20095,-0.24401 0.30142,-0.50237 0.10047,-0.27271 0.0574,-0.55978 -0.0287,-0.24401 -0.2153,-0.4306 -0.18659,-0.20095 -0.58848,-0.2153 -0.35884,-0.0144 -0.71767,0.0574 -0.34448,0.0718 -0.68896,0.1866 -0.33013,0.11482 -0.66026,0.27271 -0.31577,0.15789 -0.61719,0.31577 -0.20095,0.11483 -0.40189,0.10048 -0.1866,-0.0287 -0.24401,-0.14354 -0.12918,-0.28706 0.0143,-0.51672 0.15789,-0.22965 0.47366,-0.4306 0.27272,-0.15789 0.6459,-0.31577 0.38754,-0.17224 0.80379,-0.28707 0.4306,-0.12918 0.8612,-0.17224 0.44496,-0.0574 0.84685,0.0144 0.40189,0.0574 0.71767,0.27272 0.33012,0.20094 0.53107,0.60284 0.24401,0.66025 0.12918,1.22003 -0.10047,0.54543 -0.4306,1.00474 -0.31577,0.44495 -0.78943,0.81814 -0.45931,0.35883 -0.93297,0.6459 0.0718,0.77508 0.10047,1.53581 0.0287,0.76072 0.0144,1.33486 z"
         style="font-style:normal;font-variant:normal;font-weight:normal;font-stretch:normal;font-family:'Nanum Pen Script';-inkscape-font-specification:'Nanum Pen Script';fill:#2b3b5e;fill-opacity:1;stroke-width:1.36932194"
         id="path952"
         inkscape:connector-curvature="0" />
      <path
         d="m -162.60141,117.10927 q -0.0861,0.38754 -0.17224,0.8612 -0.0861,0.45931 -0.12918,0.88991 -0.0287,0.4306 0,0.77508 0.0431,0.34448 0.1866,0.48801 0.244,0.0431 0.55978,-0.20094 0.31577,-0.25836 0.61719,-0.6459 0.30142,-0.38754 0.54543,-0.8325 0.24401,-0.4593 0.34448,-0.80378 0.0574,-0.17224 0.10047,-0.35884 0.0431,-0.18659 0.0431,-0.38754 0,-0.11482 0.14354,-0.2153 0.15788,-0.11482 0.25836,-0.12918 0.0718,-0.0144 0.15788,0.0287 0.10048,0.0431 0.17224,0.12918 0.0861,0.0718 0.14354,0.18659 0.0718,0.10048 0.0718,0.2153 0.0287,0.4306 0.0861,0.94732 0.0574,0.51672 0.12918,1.03344 0.0861,0.51672 0.17224,1.00474 0.0861,0.48801 0.17224,0.87555 0.0431,0.15789 -0.0861,0.35884 -0.12918,0.20094 -0.28706,0.244 -0.12918,0.0287 -0.27272,-0.0287 -0.12918,-0.0574 -0.20094,-0.22966 -0.0718,-0.20094 -0.14354,-0.48801 -0.0574,-0.30142 -0.11482,-0.6172 -0.0431,-0.33012 -0.0861,-0.61719 -0.0431,-0.30142 -0.0574,-0.50237 -0.2153,0.38754 -0.51672,0.78944 -0.28706,0.38754 -0.63154,0.71767 -0.33013,0.31577 -0.70332,0.50236 -0.35883,0.17224 -0.74637,0.12918 -0.57414,-0.0718 -0.87556,-1.0765 -0.11482,-0.40189 -0.11482,-0.88991 0.0144,-0.48801 0.0718,-0.96167 0.0718,-0.48801 0.15789,-0.91861 0.10047,-0.4306 0.17224,-0.70332 0.0287,-0.11482 0.11483,-0.20094 0.0861,-0.10048 0.20094,-0.0718 0.2153,0.0431 0.38754,0.25836 0.1866,0.2153 0.12918,0.44495 z"
         style="font-style:normal;font-variant:normal;font-weight:normal;font-stretch:normal;font-family:'Nanum Pen Script';-inkscape-font-specification:'Nanum Pen Script';fill:#2b3b5e;fill-opacity:1;stroke-width:1.36932194"
         id="path954"
         inkscape:connector-curvature="0" />
      <path
         d="m -157.08748,114.06636 q 0.0144,0.22966 0.0144,0.55978 0.0144,0.33013 0.0287,0.71767 0.0144,0.38754 0.0431,0.78943 0.0287,0.38755 0.0861,0.74638 0.2153,-0.35883 0.48802,-0.54543 0.28706,-0.18659 0.57413,-0.22965 0.44495,-0.0574 0.77508,0.10047 0.33013,0.15789 0.54543,0.44496 0.2153,0.27271 0.31577,0.61719 0.10047,0.33013 0.10047,0.6459 0,0.67461 -0.35883,1.24874 -0.34448,0.57413 -0.81814,1.01909 -0.45931,0.44495 -0.91861,0.74637 -0.44496,0.30142 -0.64591,0.4306 -0.28706,0.11483 -0.55978,0.0574 -0.27271,-0.0574 -0.35883,-0.17224 -0.0718,-0.17224 -0.0431,-0.28707 0.0287,-0.12918 0.11483,-0.22965 0.0861,-0.10048 0.20094,-0.17224 0.12918,-0.0861 0.2153,-0.15789 -0.34448,-1.57887 -0.53107,-3.18644 -0.18659,-1.62193 -0.15789,-3.28692 0,-0.28707 0.11483,-0.33013 0.12918,-0.0431 0.2153,-0.0431 0.20095,0.0287 0.35883,0.15789 0.15789,0.12918 0.20095,0.35883 z m 2.09559,3.80364 q 0,-0.48801 -0.24401,-0.67461 -0.244,-0.20094 -0.50236,-0.17224 -0.2153,0.0287 -0.38754,0.15789 -0.17224,0.12918 -0.30142,0.31577 -0.12918,0.1866 -0.20095,0.41625 -0.0574,0.22965 -0.0431,0.44495 0.0287,0.35884 0.0718,0.77508 0.0574,0.41625 0.12918,0.74638 0.22965,-0.15789 0.48801,-0.35884 0.25836,-0.2153 0.47366,-0.47366 0.22965,-0.25836 0.37319,-0.54542 0.14353,-0.30142 0.14353,-0.63155 z"
         style="font-style:normal;font-variant:normal;font-weight:normal;font-stretch:normal;font-family:'Nanum Pen Script';-inkscape-font-specification:'Nanum Pen Script';fill:#2b3b5e;fill-opacity:1;stroke-width:1.36932194"
         id="path956"
         inkscape:connector-curvature="0" />
      <path
         d="m -151.89314,114.6405 q 0.0718,1.56451 0.24401,3.24385 0.17224,1.66499 0.37319,3.18645 0.0431,0.63154 -0.34448,0.6459 -0.0861,0 -0.17224,-0.0574 -0.0861,-0.0718 -0.15789,-0.17224 -0.0718,-0.10047 -0.14353,-0.2153 -0.0574,-0.11482 -0.0718,-0.20094 -0.11483,-0.73202 -0.2153,-1.55017 -0.10047,-0.81814 -0.18659,-1.63628 -0.0718,-0.83249 -0.12918,-1.62193 -0.0574,-0.78943 -0.0718,-1.44968 0.0287,-0.34448 0.10047,-0.57414 0.0718,-0.244 0.30142,-0.22965 0.24401,0.0144 0.34448,0.20095 0.11483,0.17224 0.12918,0.4306 z"
         style="font-style:normal;font-variant:normal;font-weight:normal;font-stretch:normal;font-family:'Nanum Pen Script';-inkscape-font-specification:'Nanum Pen Script';fill:#2b3b5e;fill-opacity:1;stroke-width:1.36932194"
         id="path958"
         inkscape:connector-curvature="0" />
      <path
         d="m -147.68783,115.5017 q -0.0287,0.14353 -0.20095,0.15788 -0.17224,0.0144 -0.28706,0.0144 -0.35884,0.0143 -0.74638,0.0718 -0.37318,0.0574 -0.78943,0.17224 -0.17224,0.0574 -0.37319,-0.0431 -0.20095,-0.10047 -0.24401,-0.40189 0,-0.11483 0.0861,-0.18659 0.0861,-0.0718 0.20095,-0.12918 0.18659,-0.0861 0.44495,-0.14354 0.25837,-0.0718 0.51673,-0.10047 0.27271,-0.0287 0.51672,-0.0144 0.244,0 0.40189,0.0431 0.22965,0.0718 0.35883,0.2153 0.14354,0.14353 0.11483,0.34448 z m -0.33013,4.77966 q 0.10048,0.22966 0.10048,0.50237 0.0144,0.25836 -0.14354,0.35883 -0.20094,0.12918 -0.4306,-0.0144 -0.22965,-0.14353 -0.34448,-0.38754 -0.15788,-0.30142 -0.244,-0.73202 -0.0861,-0.44496 -0.12918,-0.87556 -0.0431,-0.4306 -0.0574,-0.80378 0,-0.37319 0,-0.55978 0.0144,-0.20095 0.11483,-0.37319 0.10047,-0.17224 0.25836,-0.20095 0.25836,0.0144 0.41625,0.24401 0.15788,0.2153 0.14353,0.54543 0,0.25836 0.0144,0.57413 0.0144,0.31577 0.0574,0.63155 0.0431,0.31577 0.10047,0.61719 0.0574,0.28707 0.14353,0.47366 z"
         style="font-style:normal;font-variant:normal;font-weight:normal;font-stretch:normal;font-family:'Nanum Pen Script';-inkscape-font-specification:'Nanum Pen Script';fill:#2b3b5e;fill-opacity:1;stroke-width:1.36932194"
         id="path960"
         inkscape:connector-curvature="0" />
      <path
         d="m -143.32172,117.66905 q -0.10048,0.0574 -0.24401,0.0431 -0.14353,-0.0287 -0.24401,-0.18659 -0.22965,-0.30142 -0.55978,-0.30142 -0.30142,0 -0.54542,0.14353 -0.22966,0.12918 -0.41625,0.35884 -0.17224,0.2153 -0.28707,0.48801 -0.11482,0.27271 -0.15788,0.54543 -0.0718,0.50236 0.17224,0.84684 0.244,0.34448 0.76072,0.34448 0.41625,0.0144 0.93297,-0.15788 0.53107,-0.1866 0.99038,-0.47366 0.20095,-0.0861 0.37319,-0.10048 0.17224,-0.0144 0.28707,0.17224 0.14353,0.22966 -0.0718,0.47366 -0.2153,0.22966 -0.57414,0.41625 -0.35883,0.20095 -0.76072,0.35884 -0.38754,0.14353 -0.78944,0.2153 -0.40189,0.0574 -0.80378,0 -0.38754,-0.0574 -0.73202,-0.27272 -0.54543,-0.37319 -0.66026,-1.06215 -0.11483,-0.68896 0.10047,-1.42098 0.0861,-0.27271 0.24401,-0.54542 0.15789,-0.28707 0.37319,-0.51672 0.22965,-0.22966 0.50237,-0.38754 0.27271,-0.17224 0.60284,-0.22966 0.53107,-0.0861 1.01908,0.11483 0.48802,0.18659 0.6459,0.70331 0.0287,0.11483 0,0.24401 -0.0287,0.11483 -0.15788,0.18659 z"
         style="font-style:normal;font-variant:normal;font-weight:normal;font-stretch:normal;font-family:'Nanum Pen Script';-inkscape-font-specification:'Nanum Pen Script';fill:#2b3b5e;fill-opacity:1;stroke-width:1.36932194"
         id="path962"
         inkscape:connector-curvature="0" />
      <path
         d="m -134.7438,117.06621 q -0.0287,-0.15788 -0.0574,-0.30142 -0.0287,-0.14353 -0.14353,-0.18659 -0.24401,-0.0718 -0.51672,-0.0143 -0.27271,0.0574 -0.50237,0.18659 -0.22965,0.11483 -0.38754,0.27271 -0.15788,0.14354 -0.17224,0.25836 -0.0431,0.2153 0.11483,0.41625 0.15789,0.20095 0.45931,0.40189 0.50236,0.30142 1.04779,0.6172 0.54543,0.31577 0.91862,0.6459 0.37318,0.33012 0.50236,0.73202 0.14354,0.38754 -0.0574,0.88991 -0.15789,0.38754 -0.58849,0.63154 -0.4306,0.24401 -0.94732,0.38754 -0.51672,0.12918 -1.03344,0.1866 -0.51672,0.0431 -0.87555,0.0431 -0.0861,0 -0.2153,-0.0574 -0.11483,-0.0718 -0.22966,-0.15788 -0.10047,-0.0861 -0.18659,-0.17224 -0.0718,-0.10048 -0.0718,-0.17224 0,-0.25836 0.22966,-0.35884 0.22965,-0.10047 0.47366,-0.10047 0.34448,0 0.73202,-0.0287 0.40189,-0.0431 0.76072,-0.11482 0.35884,-0.0861 0.6459,-0.2153 0.28707,-0.12918 0.4019,-0.33013 0.10047,-0.17224 -0.12918,-0.4019 -0.2153,-0.244 -0.58849,-0.50236 -0.35883,-0.25836 -0.78943,-0.50237 -0.41625,-0.24401 -0.71767,-0.44495 -0.30142,-0.20095 -0.51672,-0.47366 -0.2153,-0.28707 -0.27271,-0.70332 -0.0144,-0.37318 0.15788,-0.71766 0.17224,-0.34448 0.44496,-0.60285 0.28706,-0.27271 0.6459,-0.4306 0.35883,-0.15788 0.71766,-0.15788 0.6172,0.0287 1.01909,0.34448 0.4019,0.30142 0.47366,0.90426 0,0.20095 -0.0718,0.33013 -0.0574,0.12918 -0.21531,0.15788 -0.20094,0.0287 -0.33012,-0.0431 -0.11483,-0.0861 -0.12918,-0.2153 z"
         style="font-style:normal;font-variant:normal;font-weight:normal;font-stretch:normal;font-family:'Nanum Pen Script';-inkscape-font-specification:'Nanum Pen Script';fill:#2b3b5e;fill-opacity:1;stroke-width:1.36932194"
         id="path964"
         inkscape:connector-curvature="0" />
      <path
         d="m -129.29177,117.51117 q 0.27271,-0.0144 0.54542,0.12918 0.27272,0.14353 0.27272,0.44495 -0.0287,0.24401 -0.27272,0.31577 -0.22965,0.0574 -0.37318,0.0574 -0.28707,0 -0.6172,0.0144 -0.33012,0.0143 -0.6746,0.0431 -0.0287,0.47366 -0.0574,0.88991 -0.0144,0.41624 -0.0287,0.74637 -0.0144,0.31578 -0.0144,0.51672 0,0.20095 0.0144,0.2153 0.31577,-0.0574 0.6746,-0.18659 0.37319,-0.14353 0.73202,-0.30142 0.37319,-0.17224 0.71767,-0.34448 0.35883,-0.1866 0.67461,-0.34448 0.14353,-0.0718 0.25836,-0.0431 0.12918,0.0287 0.15789,0.12918 0.0287,0.15788 -0.0431,0.38754 -0.0718,0.22965 -0.25836,0.41625 -0.21531,0.17224 -0.57414,0.40189 -0.34448,0.2153 -0.74637,0.41625 -0.4019,0.20094 -0.81814,0.35883 -0.4019,0.14353 -0.71767,0.17224 -0.47366,0.0431 -0.71767,-0.25836 -0.244,-0.30142 -0.27271,-0.76073 -0.0287,-0.4593 -0.0144,-1.06215 0.0287,-0.60284 0.0574,-1.27744 -0.27272,0.0287 -0.53108,0.0574 -0.244,0.0144 -0.47366,0.0431 -0.18659,0 -0.41624,-0.0861 -0.2153,-0.0861 -0.2153,-0.33013 0,-0.0861 0.0718,-0.22965 0.0718,-0.14353 0.31578,-0.2153 0.58848,-0.10047 1.30615,-0.17224 0.0431,-0.67461 0.10048,-1.30616 0.0574,-0.63154 0.10047,-1.14826 0.0143,-0.17224 0.10047,-0.30142 0.0861,-0.12918 0.1866,-0.12918 0.244,-0.0144 0.4593,0.12918 0.22966,0.12918 0.22966,0.30142 -0.0574,0.48801 -0.11483,1.1052 -0.0431,0.6172 -0.0861,1.2631 0.28707,-0.0287 0.54543,-0.0287 0.27271,-0.0143 0.51672,-0.0287 z"
         style="font-style:normal;font-variant:normal;font-weight:normal;font-stretch:normal;font-family:'Nanum Pen Script';-inkscape-font-specification:'Nanum Pen Script';fill:#2b3b5e;fill-opacity:1;stroke-width:1.36932194"
         id="path966"
         inkscape:connector-curvature="0" />
      <path
         d="m -123.10257,116.04712 q 0.0574,0.4019 0.0861,0.86121 0.0431,0.44495 0.0574,0.90426 0.0287,0.4593 0.0287,0.8899 0,0.4306 -0.0144,0.77508 0.45931,0.31578 0.54543,0.55978 0.10047,0.24401 0.0287,0.43061 -0.0861,0.25836 -0.31577,0.27271 -0.2153,0 -0.50237,-0.15789 -0.20095,0.14354 -0.45931,0.31578 -0.25836,0.15788 -0.54542,0.31577 -0.28707,0.14353 -0.57414,0.25836 -0.28706,0.11483 -0.53107,0.15789 -0.45931,0.0718 -0.83249,-0.17224 -0.35884,-0.24401 -0.48802,-0.73202 -0.0861,-0.33013 -0.0431,-0.67461 0.0431,-0.35884 0.2153,-0.67461 0.17224,-0.33013 0.45931,-0.58849 0.30142,-0.25836 0.70331,-0.40189 0.10048,-0.0431 0.27272,-0.0718 0.18659,-0.0287 0.37318,-0.0143 0.20095,0 0.4019,0.0718 0.20094,0.0718 0.37318,0.244 0,-0.244 -0.0144,-0.53107 0,-0.30142 -0.0143,-0.60284 -0.0144,-0.30142 -0.0431,-0.55978 -0.0144,-0.27271 -0.0431,-0.45931 -0.0287,-0.2153 -0.17224,-0.25836 -0.12918,-0.0574 -0.33013,0.0143 -0.34448,0.11483 -0.80379,0.44496 -0.4593,0.33013 -0.87555,0.70331 -0.12918,0.12918 -0.30142,0.11483 -0.15789,-0.0144 -0.27272,-0.12918 -0.11482,-0.11483 -0.12918,-0.25836 -0.0143,-0.15789 0.11483,-0.33013 0.24401,-0.25836 0.54543,-0.53107 0.30142,-0.27272 0.63155,-0.48802 0.33012,-0.22965 0.6746,-0.37318 0.34448,-0.14354 0.68896,-0.15789 0.50237,-0.0143 0.77508,0.22965 0.27272,0.22966 0.33013,0.60284 z m -1.66499,3.08597 q -0.18659,0.0431 -0.40189,0.1866 -0.20095,0.12918 -0.37319,0.33012 -0.15788,0.1866 -0.244,0.4306 -0.0718,0.22966 0,0.45931 0.0287,0.0861 0.11482,0.12918 0.10048,0.0431 0.2153,0.0144 0.34448,-0.0718 0.77508,-0.27272 0.44496,-0.2153 0.70332,-0.45931 0,-0.0861 -0.0861,-0.2153 -0.0861,-0.14353 -0.20095,-0.27271 -0.11483,-0.14353 -0.25836,-0.24401 -0.12918,-0.10047 -0.24401,-0.0861 z"
         style="font-style:normal;font-variant:normal;font-weight:normal;font-stretch:normal;font-family:'Nanum Pen Script';-inkscape-font-specification:'Nanum Pen Script';fill:#2b3b5e;fill-opacity:1;stroke-width:1.36932194"
         id="path968"
         inkscape:connector-curvature="0" />
    </g>
    <path
       style="opacity:0.25;fill:#000000;fill-opacity:1;stroke:none;stroke-width:0.26458332px;stroke-linecap:butt;stroke-linejoin:miter;stroke-opacity:1"
       d="m 28.868188,281.15928 -3.836248,3.13321 -1.946283,2.40799 -0.324513,0.40139 v 1.1e-4 c -2.7e-5,5e-5 -0.0015,0.004 -0.0035,0.0106 l -1.02e-4,1e-4 c -0.0029,0.01 -0.0066,0.0245 -0.0069,0.0381 -1.54e-4,0.009 0.0012,0.0176 0.0054,0.0237 0.0021,0.003 0.0049,0.006 0.0086,0.007 0.0045,0.002 0.0099,0.003 0.01608,0.003 0.04294,3e-4 0.118921,-0.0398 0.118921,-0.0398 l 0.891863,-0.49975 h 1.02e-4 l 2.605994,-1.46031 3.969349,-3.23156 c -0.01858,-0.008 -0.03756,-0.0166 -0.05781,-0.0265 -0.323337,-0.15773 -0.891926,-0.5603 -1.44094,-0.76715 z"
       id="path987"
       inkscape:connector-curvature="0" />
    <path
       style="fill:#535667;fill-opacity:1;stroke:none;stroke-width:0.26458332px;stroke-linecap:butt;stroke-linejoin:miter;stroke-opacity:1"
       d="m 31.410277,264.49017 c -0.0043,-10e-5 -0.0082,2.6e-4 -0.01168,0.001 -0.05571,0.0152 -0.116728,0.073 -0.15357,0.12861 -0.03891,0.0588 -0.04222,0.13443 -0.06161,0.20219 -0.02052,0.0717 -0.01576,0.15466 -0.05781,0.21628 -0.05118,0.075 -0.174061,0.0827 -0.219371,0.16136 -0.05779,0.10034 0.01029,0.24001 -0.03774,0.34538 -0.03765,0.0826 -0.148703,0.11665 -0.184923,0.1999 -0.03339,0.0768 0.02465,0.21171 -0.01867,0.25042 -0.04332,0.0387 -0.03369,0.0301 -0.128008,0.24424 -0.09432,0.21415 -0.110568,0.34122 -0.05741,0.37164 5.19e-4,3.1e-4 0.0013,4.1e-4 0.0018,7e-4 1.5e-5,1.5e-4 1.03e-4,0.002 1.03e-4,0.002 0,0 0.116151,0.0517 0.21298,0.0775 0.01968,0.005 0.03483,0.0112 0.04863,0.0174 0.0089,0.008 0.01793,0.0144 0.02686,0.0237 0.116653,0.12085 0.271107,0.13868 0.334399,0.15137 0.03106,0.006 0.05316,1.1e-4 0.09775,0.009 0.04219,0.0178 0.09363,0.0381 0.16665,0.0639 0.02429,0.0121 0.05079,0.026 0.08108,0.0427 0.102845,0.057 0.164547,0.0859 0.215477,0.10894 0.01206,0.0128 0.02184,0.0242 0.03625,0.0351 0.04911,0.0368 0.157152,0.13109 0.311932,0.14588 0.03173,0.0106 0.05919,0.0186 0.09875,0.0445 0.08378,0.055 0.1998,0.10714 0.1998,0.10714 0,0 0.06369,0.0314 0.07203,0.0242 0.05782,0.0114 0.0823,-0.12206 0.175994,-0.32818 0.09683,-0.21303 0.09685,-0.20012 0.09685,-0.25822 0,-0.0581 0.139265,-0.10469 0.174239,-0.18073 0.03793,-0.0825 -0.01065,-0.18807 0.02586,-0.27119 0.04657,-0.10602 0.196044,-0.14826 0.232352,-0.25821 0.02846,-0.0862 -0.04756,-0.18297 -0.02576,-0.2711 0.01792,-0.0724 0.08281,-0.12412 0.122616,-0.18722 0.03761,-0.0596 0.09184,-0.11255 0.109735,-0.18072 0.01694,-0.0646 0.01933,-0.14846 -0.0065,-0.2001 -0.02251,-0.045 -0.1762,-0.0791 -0.238243,-0.096 -0.126306,-0.0741 -0.399902,-0.23216 -0.48687,-0.25172 -0.03348,-0.008 -0.101586,-0.0301 -0.177634,-0.0566 -0.103117,-0.0556 -0.201823,-0.11084 -0.23984,-0.13799 -0.08483,-0.0606 -0.482014,-0.18571 -0.563955,-0.21198 -0.05681,-0.0376 -0.131116,-0.0842 -0.172541,-0.0853 z"
       id="path2846"
       inkscape:connector-curvature="0"
       sodipodi:nodetypes="cccccccccsccccccccccccccccsscssscsccccccc" />
    <path
       style="fill:#686c81;fill-opacity:1;stroke:none;stroke-width:0.26458332px;stroke-linecap:butt;stroke-linejoin:miter;stroke-opacity:1"
       d="m 31.96255,264.70555 -1.033851,2.1322 c 0.07226,0.0294 0.139099,0.0391 0.175537,0.0464 0.03106,0.006 0.05316,1.1e-4 0.09775,0.009 0.04218,0.0178 0.09363,0.0381 0.16665,0.0639 0.02429,0.0121 0.05079,0.026 0.08108,0.0427 0.102846,0.057 0.164548,0.0859 0.215477,0.10894 0.01206,0.0128 0.02185,0.0242 0.03625,0.035 0.04506,0.0338 0.140229,0.11525 0.275088,0.13999 l 0.962756,-2.11453 c -0.135206,-0.0773 -0.308827,-0.17212 -0.375037,-0.18702 -0.03348,-0.008 -0.101587,-0.0301 -0.177634,-0.0566 -0.103117,-0.0556 -0.201823,-0.11084 -0.239841,-0.13799 -0.03014,-0.0215 -0.103382,-0.0514 -0.184223,-0.0819 z"
       id="path2853"
       inkscape:connector-curvature="0" />
  </g>
</svg>
