<?xml version="1.0" encoding="UTF-8" standalone="no"?>
<svg
   xmlns:osb="http://www.openswatchbook.org/uri/2009/osb"
   xmlns:dc="http://purl.org/dc/elements/1.1/"
   xmlns:cc="http://creativecommons.org/ns#"
   xmlns:rdf="http://www.w3.org/1999/02/22-rdf-syntax-ns#"
   xmlns:svg="http://www.w3.org/2000/svg"
   xmlns="http://www.w3.org/2000/svg"
   xmlns:sodipodi="http://sodipodi.sourceforge.net/DTD/sodipodi-0.dtd"
   xmlns:inkscape="http://www.inkscape.org/namespaces/inkscape"
   width="128"
   height="128"
   viewBox="0 0 128 128"
   version="1.1"
   id="svg116"
   sodipodi:docname="jetbrains-datagrip.svg"
   inkscape:version="0.92.2 5c3e80d, 2017-08-06">
  <metadata
     id="metadata120">
    <rdf:RDF>
      <cc:Work
         rdf:about="">
        <dc:format>image/svg+xml</dc:format>
        <dc:type
           rdf:resource="http://purl.org/dc/dcmitype/StillImage" />
        <dc:title />
      </cc:Work>
    </rdf:RDF>
  </metadata>
  <sodipodi:namedview
     pagecolor="#ffffff"
     bordercolor="#666666"
     borderopacity="1"
     objecttolerance="10"
     gridtolerance="10"
     guidetolerance="10"
     inkscape:pageopacity="0"
     inkscape:pageshadow="2"
     inkscape:window-width="1600"
     inkscape:window-height="803"
     id="namedview118"
     showgrid="false"
     inkscape:zoom="3.6875"
     inkscape:cx="63.766603"
     inkscape:cy="60.208776"
     inkscape:window-x="0"
     inkscape:window-y="0"
     inkscape:window-maximized="1"
     inkscape:current-layer="svg116" />
  <defs
     id="defs65">
    <linearGradient
       osb:paint="solid"
       id="linearGradient6987">
      <stop
         id="stop6985"
         offset="0"
         style="stop-color:#77d2fb;stop-opacity:1;" />
    </linearGradient>
    <linearGradient
       y2="34.1707"
       x2="44.958401"
       y1="34.1707"
       x1="19.2722"
       gradientUnits="userSpaceOnUse"
       id="SVGID_1_-7">
      <stop
         id="stop1057"
         style="stop-color:#f05e8f;stop-opacity:1"
         offset="0" />
      <stop
         id="stop1059"
         style="stop-color:#805ac3;stop-opacity:1"
         offset="1" />
    </linearGradient>
    <linearGradient
       y2="40.840302"
       x2="13.4802"
       y1="6.8832002"
       x1="13.4802"
       gradientUnits="userSpaceOnUse"
       id="SVGID_2_-9">
      <stop
         id="stop1064"
         style="stop-color:#22D88F"
         offset="0" />
      <stop
         id="stop1066"
         style="stop-color:#049DE0"
         offset="1" />
    </linearGradient>
    <linearGradient
       y2="15.1851"
       x2="17.306801"
       y1="21.218201"
       x1="27.0996"
       gradientUnits="userSpaceOnUse"
       id="SVGID_3_-3">
      <stop
         id="stop1071"
         style="stop-color:#825cc4;stop-opacity:1"
         offset="0" />
      <stop
         id="stop1073"
         style="stop-color:#E33C8C"
         offset="1" />
    </linearGradient>
    <linearGradient
       y2="27.2966"
       x2="21.0305"
       y1="8.1799002"
       x1="40.235199"
       gradientUnits="userSpaceOnUse"
       id="SVGID_4_">
      <stop
         id="stop1078"
         style="stop-color:#48b4aa;stop-opacity:1"
         offset="0" />
      <stop
         id="stop1080"
         style="stop-color:#049DE0"
         offset="1" />
    </linearGradient>
  </defs>
  <path
     style="opacity:0.25;fill:#000000;stroke:none;stroke-width:0.42204022;stroke-miterlimit:4;stroke-dasharray:none;stroke-opacity:1"
     d="M 49.42328,6.575279 14.24014,27.34231 5.3484,91.865838 l 38.16667,29.274932 16.02565,-16.18703 15.55892,11.7837 28.6839,7.26255 18.8129,-42.657226 L 77.84982,63.55487 61.61917,84.533479 Z"
     id="polygon1200"
     inkscape:connector-curvature="0" />
  <polygon
     style="fill:url(#SVGID_1_-7);stroke:#333333;stroke-width:0.13538831;stroke-miterlimit:4;stroke-dasharray:none;stroke-opacity:1"
     points="28.929,23.345 19.272,35.827 27.944,42.396 38.219,44.997 44.958,29.717 "
     id="polygon1062"
     transform="matrix(2.7916203,0,0,2.7916203,-2.90946,-3.848507)" />
  <polygon
     style="fill:url(#SVGID_2_-9);stroke:#333333;stroke-width:0.13538831;stroke-miterlimit:4;stroke-dasharray:none;stroke-opacity:1"
     points="18.746,2.934 24.002,36.527 16.63,43.973 2.958,33.486 6.143,10.373 "
     id="polygon1069"
     transform="matrix(2.7916203,0,0,2.7916203,-2.90946,-3.848507)" />
  <path
     style="opacity:0.25;fill:#000000;stroke-width:2.79162025"
     id="path1229"
     d="M 100.38049,104.23306 H 27.79837 c -1.54098,0 -2.79163,-1.25065 -2.79163,-2.7916 V 28.859299 c 0,-1.540952 1.25065,-2.791635 2.79163,-2.791635 h 72.58212 c 1.54098,0 2.79162,1.250683 2.79162,2.791635 v 72.582161 c 0,1.54095 -1.25064,2.7916 -2.79162,2.7916 z"
     inkscape:connector-curvature="0" />
  <polygon
     style="fill:url(#SVGID_3_-3);stroke:#333333;stroke-width:0.13538831;stroke-miterlimit:4;stroke-dasharray:none;stroke-opacity:1"
     points="18.746,2.934 29.783,8.761 17.564,29.454 "
     id="polygon1076"
     transform="matrix(2.7916203,0,0,2.7916203,-2.90946,-3.848507)" />
  <polygon
     style="fill:url(#SVGID_4_);stroke:#333333;stroke-width:0.13538831;stroke-miterlimit:4;stroke-dasharray:none;stroke-opacity:1"
     points="24.002,36.527 19.732,19.272 28.209,7.962 38.742,4.049 43.974,15.583 "
     id="polygon1083"
     transform="matrix(2.7916203,0,0,2.7916203,-2.90946,-3.848507)" />
  <path
     inkscape:connector-curvature="0"
     d="M 100.38049,102.23304 H 27.79837 c -1.54098,0 -2.79163,-1.25064 -2.79163,-2.791593 V 26.859286 c 0,-1.540951 1.25065,-2.791635 2.79163,-2.791635 h 72.58212 c 1.54098,0 2.79162,1.250684 2.79162,2.791635 v 72.582161 c 0,1.540953 -1.25064,2.791593 -2.79162,2.791593 z"
     id="path1085"
     style="stroke-width:2.79162025" />
  <rect
     x="36.173229"
     y="82.69162"
     style="fill:#ffffff;stroke-width:2.79162025"
     width="25.124582"
     height="5.5832405"
     id="rect1093" />
  <g
     aria-label="DG"
     style="font-style:normal;font-weight:normal;font-size:37.84776306px;line-height:1.25;font-family:sans-serif;letter-spacing:0px;word-spacing:0px;fill:#ffffff;fill-opacity:1;stroke:none;stroke-width:0.94619405"
     id="text1339"
     transform="translate(-168.70119,60.978952)">
    <path
       d="M 210.40005,-17.592373 V 0.18572712 h 5.24842 q 4.02871,0 5.61802,-3.97327592 0.86858,-2.1806816 0.86858,-5.1929792 0,-4.158079 -1.3121,-6.375722 -1.29363,-2.236123 -5.1745,-2.236123 z m 6.20939,-4.73097 q 2.53181,0.03696 4.21353,0.591371 2.86445,0.942498 4.63856,3.455826 1.42299,2.032839 1.94044,4.398324 0.51745,2.365486 0.51745,4.5092066 0,5.4332238 -2.18068,9.20321581 -2.95686,5.08209709 -9.1293,5.08209709 H 204.87442 V -22.323343 Z"
       style="font-style:normal;font-variant:normal;font-weight:bold;font-stretch:normal;font-family:Helvetica;-inkscape-font-specification:'Helvetica Bold';fill:#ffffff;stroke-width:0.94619405"
       id="path1341"
       inkscape:connector-curvature="0" />
    <path
       d="m 250.53937,-13.82238 q -0.64681,-2.790534 -3.16014,-3.899355 -1.40451,-0.609852 -3.12318,-0.609852 -3.2895,0 -5.41474,2.494848 -2.10676,2.476367 -2.10676,7.4660627 0,5.026656 2.29156,7.1149359 2.29157,2.08827988 5.21146,2.08827988 2.86446,0 4.69401,-1.64475143 1.82956,-1.66323175 2.2546,-4.34288295 h -6.3018 v -4.5461669 h 11.34694 V 4.9166975 h -3.76999 l -0.57289,-3.400385 q -1.64475,1.9404371 -2.95686,2.7350923 -2.2546,1.3860265 -5.5441,1.3860265 -5.41475,0 -8.87057,-3.7515117 -3.60367,-3.769992 -3.60367,-10.312037 0,-6.6159666 3.64063,-10.6077226 3.64063,-3.991756 9.62826,-3.991756 5.19298,0 8.33464,2.64269 3.16014,2.62421 3.62215,6.560526 z m -6.37572,-9.203216 z"
       style="font-style:normal;font-variant:normal;font-weight:bold;font-stretch:normal;font-family:Helvetica;-inkscape-font-specification:'Helvetica Bold';fill:#ffffff;stroke-width:0.94619405"
       id="path1343"
       inkscape:connector-curvature="0" />
  </g>
</svg>
