<?xml version="1.0" encoding="UTF-8" standalone="no"?>
<!-- Created with Inkscape (http://www.inkscape.org/) -->

<svg
   xmlns:dc="http://purl.org/dc/elements/1.1/"
   xmlns:cc="http://creativecommons.org/ns#"
   xmlns:rdf="http://www.w3.org/1999/02/22-rdf-syntax-ns#"
   xmlns:svg="http://www.w3.org/2000/svg"
   xmlns="http://www.w3.org/2000/svg"
   xmlns:xlink="http://www.w3.org/1999/xlink"
   xmlns:sodipodi="http://sodipodi.sourceforge.net/DTD/sodipodi-0.dtd"
   xmlns:inkscape="http://www.inkscape.org/namespaces/inkscape"
   width="128"
   height="128"
   viewBox="0 0 33.866666 33.866668"
   version="1.1"
   id="svg8"
   inkscape:version="0.92.2 5c3e80d, 2017-08-06"
   sodipodi:docname="drawing.svg">
  <defs
     id="defs2">
    <linearGradient
       inkscape:collect="always"
       id="linearGradient1127">
      <stop
         style="stop-color:#f77f12;stop-opacity:1"
         offset="0"
         id="stop1123" />
      <stop
         style="stop-color:#ce6401;stop-opacity:1"
         offset="1"
         id="stop1125" />
    </linearGradient>
    <linearGradient
       inkscape:collect="always"
       id="linearGradient1119">
      <stop
         style="stop-color:#d4d4d5;stop-opacity:1"
         offset="0"
         id="stop1115" />
      <stop
         style="stop-color:#aaabae;stop-opacity:1"
         offset="1"
         id="stop1117" />
    </linearGradient>
    <inkscape:path-effect
       is_visible="true"
       id="path-effect1100"
       effect="spiro" />
    <linearGradient
       inkscape:collect="always"
       id="linearGradient1038">
      <stop
         style="stop-color:#344042;stop-opacity:1"
         offset="0"
         id="stop1034" />
      <stop
         style="stop-color:#0b1719;stop-opacity:1"
         offset="1"
         id="stop1036" />
    </linearGradient>
    <inkscape:path-effect
       effect="spiro"
       id="path-effect940"
       is_visible="true" />
    <inkscape:path-effect
       is_visible="true"
       id="path-effect936"
       effect="spiro" />
    <inkscape:path-effect
       is_visible="true"
       id="path-effect932"
       effect="spiro" />
    <inkscape:path-effect
       effect="spiro"
       id="path-effect928"
       is_visible="true" />
    <inkscape:path-effect
       is_visible="true"
       id="path-effect924"
       effect="spiro" />
    <inkscape:path-effect
       effect="spiro"
       id="path-effect920"
       is_visible="true" />
    <linearGradient
       inkscape:collect="always"
       xlink:href="#linearGradient1038"
       id="linearGradient1040"
       x1="-97.853455"
       y1="171.29807"
       x2="-75.670319"
       y2="171.29807"
       gradientUnits="userSpaceOnUse"
       gradientTransform="translate(0.02591811)" />
    <linearGradient
       inkscape:collect="always"
       xlink:href="#linearGradient1119"
       id="linearGradient1121"
       x1="-92.866714"
       y1="178.22986"
       x2="-84.84269"
       y2="194.76631"
       gradientUnits="userSpaceOnUse" />
    <linearGradient
       inkscape:collect="always"
       xlink:href="#linearGradient1127"
       id="linearGradient1129"
       x1="-78.449997"
       y1="174.83635"
       x2="-78.564201"
       y2="194.88681"
       gradientUnits="userSpaceOnUse" />
  </defs>
  <sodipodi:namedview
     id="base"
     pagecolor="#ffffff"
     bordercolor="#666666"
     borderopacity="1.0"
     inkscape:pageopacity="0.0"
     inkscape:pageshadow="2"
     inkscape:zoom="3.6203867"
     inkscape:cx="40.736491"
     inkscape:cy="64.200074"
     inkscape:document-units="mm"
     inkscape:current-layer="layer1"
     showgrid="false"
     inkscape:window-width="1600"
     inkscape:window-height="814"
     inkscape:window-x="0"
     inkscape:window-y="0"
     inkscape:window-maximized="1"
     units="px" />
  <metadata
     id="metadata5">
    <rdf:RDF>
      <cc:Work
         rdf:about="">
        <dc:format>image/svg+xml</dc:format>
        <dc:type
           rdf:resource="http://purl.org/dc/dcmitype/StillImage" />
        <dc:title></dc:title>
      </cc:Work>
    </rdf:RDF>
  </metadata>
  <g
     inkscape:label="Layer 1"
     inkscape:groupmode="layer"
     id="layer1"
     transform="translate(0,-263.13332)">
    <text
       xml:space="preserve"
       style="font-style:normal;font-weight:normal;font-size:1.56304431px;line-height:1.25;font-family:sans-serif;letter-spacing:0px;word-spacing:0px;fill:#000000;fill-opacity:1;stroke:none;stroke-width:0.26458332"
       x="-122.55348"
       y="176.42645"
       id="text948"><tspan
         sodipodi:role="line"
         id="tspan946"
         x="-122.55348"
         y="177.80939"
         style="font-style:normal;font-variant:normal;font-weight:normal;font-stretch:normal;font-family:'Lucida Grande';-inkscape-font-specification:'Lucida Grande';stroke-width:0.26458332" /></text>
    <g
       id="g1270"
       transform="matrix(1.0672652,-0.17704776,0.17704776,1.0672652,77.206755,70.021255)"
       style="stroke-width:0.92434198">
      <rect
         style="opacity:1;fill:#000000;fill-opacity:1;fill-rule:nonzero;stroke:none;stroke-width:1.20164454;stroke-linecap:round;stroke-linejoin:round;stroke-miterlimit:4;stroke-dasharray:none;stroke-dashoffset:0;stroke-opacity:1"
         id="rect1113"
         width="22.183371"
         height="27.020712"
         x="-97.827652"
         y="169.17606" />
      <rect
         y="168.6469"
         x="-97.827652"
         height="27.020712"
         width="22.183371"
         id="rect901"
         style="opacity:1;fill:url(#linearGradient1121);fill-opacity:1;fill-rule:nonzero;stroke:none;stroke-width:1.20164454;stroke-linecap:round;stroke-linejoin:round;stroke-miterlimit:4;stroke-dasharray:none;stroke-dashoffset:0;stroke-opacity:1" />
      <path
         inkscape:connector-curvature="0"
         id="rect905"
         d="m -81.447224,173.85554 v 21.80538 h 5.776909 v -21.80538 z"
         style="opacity:1;fill:url(#linearGradient1129);fill-opacity:1;fill-rule:nonzero;stroke:none;stroke-width:1.20164454;stroke-linecap:round;stroke-linejoin:round;stroke-miterlimit:4;stroke-dasharray:none;stroke-dashoffset:0;stroke-opacity:1" />
      <g
         id="g1109"
         style="stroke-width:0.92434198">
        <path
           inkscape:original-d="m -81.453,195.608 c -2.7e-4,-7.25228 -2.7e-4,-14.50431 0,-21.75606"
           inkscape:path-effect="#path-effect1100"
           inkscape:connector-curvature="0"
           id="path1098"
           d="M -81.453,195.608 V 173.85194"
           style="fill:none;stroke:#455558;stroke-width:0.1848684;stroke-linecap:square;stroke-linejoin:miter;stroke-miterlimit:4;stroke-dasharray:none;stroke-opacity:1" />
        <path
           style="fill:none;stroke:#455558;stroke-width:0.18486841;stroke-linecap:square;stroke-linejoin:miter;stroke-miterlimit:4;stroke-dasharray:none;stroke-opacity:1"
           d="m -97.705665,178.06254 h 21.92192"
           id="path918"
           inkscape:connector-curvature="0"
           inkscape:path-effect="#path-effect920"
           inkscape:original-d="m -97.705665,178.06254 c 7.30757,-2.7e-4 14.61488,-2.7e-4 21.92192,0" />
        <path
           inkscape:original-d="m -97.705665,182.396 c 7.30757,-2.7e-4 14.61488,-2.7e-4 21.92192,0"
           inkscape:path-effect="#path-effect924"
           inkscape:connector-curvature="0"
           id="path922"
           d="m -97.705665,182.396 h 21.92192"
           style="fill:none;stroke:#455558;stroke-width:0.18486841;stroke-linecap:square;stroke-linejoin:miter;stroke-miterlimit:4;stroke-dasharray:none;stroke-opacity:1" />
        <path
           style="fill:none;stroke:#455558;stroke-width:0.18486841;stroke-linecap:square;stroke-linejoin:miter;stroke-miterlimit:4;stroke-dasharray:none;stroke-opacity:1"
           d="m -97.705665,186.696 h 21.92192"
           id="path926"
           inkscape:connector-curvature="0"
           inkscape:path-effect="#path-effect928"
           inkscape:original-d="m -97.705665,186.696 c 7.30757,-2.7e-4 14.61488,-2.7e-4 21.92192,0" />
        <path
           inkscape:original-d="m -97.705665,191.096 c 7.30757,-2.7e-4 14.61488,-2.7e-4 21.92192,0"
           inkscape:path-effect="#path-effect932"
           inkscape:connector-curvature="0"
           id="path930"
           d="m -97.705665,191.096 h 21.92192"
           style="fill:none;stroke:#455558;stroke-width:0.18486841;stroke-linecap:square;stroke-linejoin:miter;stroke-miterlimit:4;stroke-dasharray:none;stroke-opacity:1" />
        <path
           inkscape:original-d="m -92.665725,190.92963 c -2.2e-4,-5.94597 -2.2e-4,-11.89173 0,-17.83726"
           inkscape:path-effect="#path-effect936"
           inkscape:connector-curvature="0"
           id="path934"
           d="M -92.665725,190.92963 V 173.09237"
           style="fill:none;stroke:#455558;stroke-width:0.18486841;stroke-linecap:square;stroke-linejoin:miter;stroke-miterlimit:4;stroke-dasharray:none;stroke-opacity:1" />
        <path
           style="fill:none;stroke:#455558;stroke-width:0.1848684;stroke-linecap:square;stroke-linejoin:miter;stroke-miterlimit:4;stroke-dasharray:none;stroke-opacity:1"
           d="M -87.044715,195.608 V 173.85194"
           id="path938"
           inkscape:connector-curvature="0"
           inkscape:path-effect="#path-effect940"
           inkscape:original-d="m -87.044715,195.608 c -2.7e-4,-7.25228 -2.7e-4,-14.50431 0,-21.75606" />
      </g>
      <path
         inkscape:connector-curvature="0"
         id="rect913"
         d="m -97.827539,168.64035 v 5.31544 h 22.183142 v -5.31544 z"
         style="opacity:1;fill:url(#linearGradient1040);fill-opacity:1;fill-rule:nonzero;stroke:none;stroke-width:1.20164454;stroke-linecap:round;stroke-linejoin:round;stroke-miterlimit:4;stroke-dasharray:none;stroke-dashoffset:0;stroke-opacity:1" />
      <g
         style="fill:#242423;fill-opacity:1;stroke-width:0.92434198"
         id="g1089">
        <g
           id="text960"
           style="font-style:normal;font-weight:normal;font-size:0.85502529px;line-height:1.25;font-family:sans-serif;letter-spacing:0px;word-spacing:0px;fill:#242423;fill-opacity:1;stroke:none;stroke-width:0.2445655"
           aria-label="7 ">
          <path
             id="path1148"
             style="font-style:normal;font-variant:normal;font-weight:normal;font-stretch:normal;font-size:1.90971351px;font-family:'Lucida Grande';-inkscape-font-specification:'Lucida Grande';fill:#242423;fill-opacity:1;stroke-width:0.2445655"
             d="m -95.736547,180.90799 q 0.02704,-0.16132 0.07646,-0.27881 0.05035,-0.11749 0.177171,-0.32264 l 0.37672,-0.60611 h -0.710547 v -0.17251 h 0.885853 v 0.17251 q -0.530579,0.78235 -0.593988,1.20756 z"
             inkscape:connector-curvature="0" />
        </g>
        <g
           id="text964"
           style="font-style:normal;font-weight:normal;font-size:0.85502529px;line-height:1.25;font-family:sans-serif;letter-spacing:0px;word-spacing:0px;fill:#242423;fill-opacity:1;stroke:none;stroke-width:0.2445655"
           aria-label="8 ">
          <path
             id="path1151"
             style="font-style:normal;font-variant:normal;font-weight:normal;font-stretch:normal;font-size:1.90971351px;font-family:'Lucida Grande';-inkscape-font-specification:'Lucida Grande';fill:#242423;fill-opacity:1;stroke-width:0.2445655"
             d="m -89.964093,180.15641 q -0.202348,-0.1408 -0.202348,-0.31144 0,-0.15666 0.114695,-0.25457 0.114695,-0.0979 0.299325,-0.0979 0.170644,0 0.276014,0.083 0.106302,0.083 0.106302,0.2154 0,0.20048 -0.257364,0.36553 0.31238,0.15293 0.31238,0.39444 0,0.17344 -0.131479,0.28254 -0.130547,0.1091 -0.337557,0.1091 -0.20328,0 -0.329164,-0.10257 -0.124952,-0.10351 -0.124952,-0.27135 0,-0.24804 0.274148,-0.41216 z m 0.234052,-0.0578 q 0.193023,-0.12682 0.193023,-0.28254 0,-0.083 -0.06434,-0.13335 -0.06434,-0.0513 -0.169711,-0.0513 -0.10164,0 -0.165049,0.0504 -0.06341,0.0494 -0.06341,0.12868 0,0.0774 0.05688,0.13894 0.05781,0.0606 0.212605,0.1492 z m -0.134277,0.13241 q -0.110965,0.0858 -0.151061,0.15013 -0.03916,0.0634 -0.03916,0.15852 0,0.11843 0.07646,0.19209 0.07646,0.0727 0.201415,0.0727 0.12029,0 0.19582,-0.0625 0.07646,-0.0625 0.07646,-0.16225 0,-0.0802 -0.04756,-0.13521 -0.04662,-0.0559 -0.181833,-0.13614 z"
             inkscape:connector-curvature="0" />
        </g>
        <g
           id="text968"
           style="font-style:normal;font-weight:normal;font-size:0.85502529px;line-height:1.25;font-family:sans-serif;letter-spacing:0px;word-spacing:0px;fill:#242423;fill-opacity:1;stroke:none;stroke-width:0.2445655"
           aria-label="9 ">
          <path
             id="path1154"
             style="font-style:normal;font-variant:normal;font-weight:normal;font-stretch:normal;font-size:1.90971351px;font-family:'Lucida Grande';-inkscape-font-specification:'Lucida Grande';fill:#242423;fill-opacity:1;stroke-width:0.2445655"
             d="m -84.643725,180.8996 v -0.15573 q 0.175306,0.0606 0.298393,0.0606 0.171575,0 0.26762,-0.14546 0.09698,-0.1464 0.09698,-0.40656 -0.139871,0.17251 -0.317975,0.17251 -0.174373,0 -0.295595,-0.12775 -0.121222,-0.12868 -0.121222,-0.31332 0,-0.21167 0.128682,-0.35061 0.129614,-0.13987 0.325434,-0.13987 0.224727,0 0.354342,0.1809 0.129614,0.17997 0.129614,0.49328 0,0.35621 -0.158521,0.56602 -0.157589,0.20887 -0.427075,0.20887 -0.108167,0 -0.280675,-0.0429 z m 0.111897,-0.95206 q 0,0.16038 0.07087,0.2527 0.0718,0.0923 0.195821,0.0923 0.116559,0 0.198617,-0.0793 0.08299,-0.0793 0.08299,-0.19115 0,-0.17624 -0.08019,-0.28348 -0.07926,-0.10816 -0.208875,-0.10816 -0.12029,0 -0.190226,0.0858 -0.069,0.0849 -0.069,0.23126 z"
             inkscape:connector-curvature="0" />
        </g>
        <g
           id="text972"
           style="font-style:normal;font-weight:normal;font-size:0.85502529px;line-height:1.25;font-family:sans-serif;letter-spacing:0px;word-spacing:0px;fill:#242423;fill-opacity:1;stroke:none;stroke-width:0.2445655"
           aria-label="4 ">
          <path
             id="path1157"
             style="font-style:normal;font-variant:normal;font-weight:normal;font-stretch:normal;font-size:1.90971351px;font-family:'Lucida Grande';-inkscape-font-specification:'Lucida Grande';fill:#242423;fill-opacity:1;stroke-width:0.2445655"
             d="m -95.265404,185.24544 v -0.39071 h -0.62103 v -0.13894 l 0.62103,-0.85042 h 0.172508 v 0.83923 h 0.18463 v 0.15013 h -0.18463 v 0.39071 z m -0.441062,-0.54084 h 0.453184 v -0.61357 z"
             inkscape:connector-curvature="0" />
        </g>
        <g
           id="text976"
           style="font-style:normal;font-weight:normal;font-size:0.85502529px;line-height:1.25;font-family:sans-serif;letter-spacing:0px;word-spacing:0px;fill:#242423;fill-opacity:1;stroke:none;stroke-width:0.2445655"
           aria-label="5">
          <path
             id="path1160"
             style="font-style:normal;font-variant:normal;font-weight:normal;font-stretch:normal;font-size:1.90971351px;font-family:'Lucida Grande';-inkscape-font-specification:'Lucida Grande';fill:#242423;fill-opacity:1;stroke-width:0.2445655"
             d="m -90.216223,185.25103 v -0.16411 q 0.137074,0.055 0.261093,0.055 0.136142,0 0.213538,-0.0802 0.07833,-0.0802 0.07833,-0.221 0,-0.31051 -0.428007,-0.31051 -0.04849,0 -0.10164,0.007 v -0.67138 h 0.698425 v 0.16039 h -0.537107 v 0.36366 q 0.265756,0 0.414953,0.12216 0.149196,0.12215 0.149196,0.33849 0,0.20141 -0.136142,0.31611 -0.135209,0.11376 -0.375788,0.11376 -0.104437,0 -0.236849,-0.0289 z"
             inkscape:connector-curvature="0" />
        </g>
        <g
           id="text980"
           style="font-style:normal;font-weight:normal;font-size:0.85502529px;line-height:1.25;font-family:sans-serif;letter-spacing:0px;word-spacing:0px;fill:#242423;fill-opacity:1;stroke:none;stroke-width:0.2445655"
           aria-label="6">
          <path
             id="path1163"
             style="font-style:normal;font-variant:normal;font-weight:normal;font-stretch:normal;font-size:1.90971351px;font-family:'Lucida Grande';-inkscape-font-specification:'Lucida Grande';fill:#242423;fill-opacity:1;stroke-width:0.2445655"
             d="m -84.438087,184.53023 q 0.131479,-0.17065 0.331029,-0.17065 0.180901,0 0.295595,0.12029 0.115628,0.11936 0.115628,0.30679 0,0.2154 -0.129615,0.35434 -0.128682,0.13894 -0.327299,0.13894 -0.228457,0 -0.357139,-0.1837 -0.128682,-0.1837 -0.128682,-0.51006 0,-0.35901 0.147332,-0.55763 0.148263,-0.19861 0.416817,-0.19861 0.123087,0 0.307717,0.0522 v 0.16038 q -0.194887,-0.0746 -0.318907,-0.0746 -0.352476,0 -0.352476,0.56229 z m 0.557621,0.29746 q 0,-0.15666 -0.07087,-0.24618 -0.06994,-0.0895 -0.194888,-0.0895 -0.11656,0 -0.200482,0.0783 -0.08392,0.0783 -0.08392,0.18836 0,0.17345 0.07926,0.27882 0.08019,0.10443 0.211672,0.10443 0.118425,0 0.188361,-0.0848 0.07087,-0.0858 0.07087,-0.22939 z"
             inkscape:connector-curvature="0" />
        </g>
        <g
           id="text984"
           style="font-style:normal;font-weight:normal;font-size:0.85502529px;line-height:1.25;font-family:sans-serif;letter-spacing:0px;word-spacing:0px;fill:#242423;fill-opacity:1;stroke:none;stroke-width:0.2445655"
           aria-label="1 ">
          <path
             id="path1166"
             style="font-style:normal;font-variant:normal;font-weight:normal;font-stretch:normal;font-size:1.90971351px;font-family:'Lucida Grande';-inkscape-font-specification:'Lucida Grande';fill:#242423;fill-opacity:1;stroke-width:0.2445655"
             d="m -95.700369,189.59074 v -0.138 h 0.276014 v -1.08914 l -0.276014,0.069 v -0.14174 l 0.460644,-0.11469 v 1.27656 h 0.276013 v 0.138 z"
             inkscape:connector-curvature="0" />
        </g>
        <g
           id="text988"
           style="font-style:normal;font-weight:normal;font-size:0.85502529px;line-height:1.25;font-family:sans-serif;letter-spacing:0px;word-spacing:0px;fill:#242423;fill-opacity:1;stroke:none;stroke-width:0.2445655"
           aria-label="2 ">
          <path
             id="path1169"
             style="font-style:normal;font-variant:normal;font-weight:normal;font-stretch:normal;font-size:1.90971351px;font-family:'Lucida Grande';-inkscape-font-specification:'Lucida Grande';fill:#242423;fill-opacity:1;stroke-width:0.2445655"
             d="m -90.276965,189.59074 v -0.16131 q 0.08019,-0.18743 0.324502,-0.40843 l 0.10537,-0.0942 q 0.20328,-0.1837 0.20328,-0.3646 0,-0.11563 -0.06994,-0.18183 -0.069,-0.0662 -0.190226,-0.0662 -0.143601,0 -0.338489,0.11097 v -0.16225 q 0.183698,-0.0867 0.364599,-0.0867 0.193955,0 0.311447,0.10443 0.117492,0.10444 0.117492,0.27695 0,0.12402 -0.05968,0.22006 -0.05875,0.096 -0.220065,0.23312 l -0.07087,0.0606 q -0.220997,0.18743 -0.255499,0.35808 h 0.599583 v 0.16131 z"
             inkscape:connector-curvature="0" />
        </g>
        <g
           id="text992"
           style="font-style:normal;font-weight:normal;font-size:0.85502529px;line-height:1.25;font-family:sans-serif;letter-spacing:0px;word-spacing:0px;fill:#242423;fill-opacity:1;stroke:none;stroke-width:0.2445655"
           aria-label="3 ">
          <path
             id="path1172"
             style="font-style:normal;font-variant:normal;font-weight:normal;font-stretch:normal;font-size:1.90971351px;font-family:'Lucida Grande';-inkscape-font-specification:'Lucida Grande';fill:#242423;fill-opacity:1;stroke-width:0.2445655"
             d="m -84.608794,189.58049 v -0.17158 q 0.197685,0.0783 0.311447,0.0783 0.131479,0 0.213537,-0.0765 0.08299,-0.0774 0.08299,-0.19955 0,-0.29094 -0.407493,-0.29094 h -0.07273 v -0.12402 l 0.06434,-9.3e-4 q 0.382316,0 0.382316,-0.26949 0,-0.21167 -0.251769,-0.21167 -0.138007,0 -0.303988,0.0774 v -0.16039 q 0.163184,-0.055 0.317042,-0.055 0.423345,0 0.423345,0.31984 0,0.24337 -0.288135,0.34688 0.333827,0.0774 0.333827,0.36553 0,0.19489 -0.128682,0.30585 -0.128682,0.11097 -0.353409,0.11097 -0.12775,0 -0.322637,-0.0448 z"
             inkscape:connector-curvature="0" />
        </g>
        <g
           id="text996"
           style="font-style:normal;font-weight:normal;font-size:0.85502529px;line-height:1.25;font-family:sans-serif;letter-spacing:0px;word-spacing:0px;fill:#242423;fill-opacity:1;stroke:none;stroke-width:0.2445655"
           aria-label="0 ">
          <path
             id="path1175"
             style="font-style:normal;font-variant:normal;font-weight:normal;font-stretch:normal;font-size:1.90971351px;font-family:'Lucida Grande';-inkscape-font-specification:'Lucida Grande';fill:#242423;fill-opacity:1;stroke-width:0.2445655"
             d="m -95.45371,193.96327 q -0.213537,0 -0.345949,-0.20048 -0.131479,-0.20141 -0.131479,-0.52498 0,-0.32637 0.132411,-0.52499 0.133345,-0.19862 0.350612,-0.19862 0.217267,0 0.349679,0.19862 0.133344,0.19862 0.133344,0.52219 0,0.33196 -0.133344,0.53058 -0.132412,0.19768 -0.355274,0.19768 z m 0.0019,-0.138 q 0.291865,0 0.291865,-0.59306 0,-0.58 -0.288135,-0.58 -0.287203,0 -0.287203,0.5856 0,0.58746 0.283473,0.58746 z"
             inkscape:connector-curvature="0" />
        </g>
        <g
           id="text1000"
           style="font-style:normal;font-weight:normal;font-size:0.85502529px;line-height:1.25;font-family:sans-serif;letter-spacing:0px;word-spacing:0px;fill:#242423;fill-opacity:1;stroke:none;stroke-width:0.2445655"
           aria-label=". ">
          <path
             id="path1178"
             style="font-style:normal;font-variant:normal;font-weight:normal;font-stretch:normal;font-size:1.90971351px;font-family:'Lucida Grande';-inkscape-font-specification:'Lucida Grande';fill:#242423;fill-opacity:1;stroke-width:0.2445655"
             d="m -84.384008,193.92877 v -0.23032 h 0.230322 v 0.23032 z"
             inkscape:connector-curvature="0" />
        </g>
        <g
           id="text1004"
           style="font-style:normal;font-weight:normal;font-size:0.68253797px;line-height:1.25;font-family:sans-serif;letter-spacing:0px;word-spacing:0px;fill:#242423;fill-opacity:1;stroke:none;stroke-width:0.2445655"
           aria-label="AC ">
          <path
             id="path1181"
             style="font-style:normal;font-variant:normal;font-weight:normal;font-stretch:normal;font-size:1.52446008px;font-family:'Lucida Grande';-inkscape-font-specification:'Lucida Grande';fill:#242423;fill-opacity:1;stroke-width:0.2445655"
             d="m -95.694648,176.01579 -0.18758,-0.4749 -0.188325,0.4749 z m 0.165249,0.42131 -0.119843,-0.30519 h -0.466717 l -0.121331,0.30519 h -0.145152 l 0.436943,-1.10166 h 0.154828 l 0.430243,1.10166 z"
             inkscape:connector-curvature="0" />
          <path
             id="path1183"
             style="font-style:normal;font-variant:normal;font-weight:normal;font-stretch:normal;font-size:1.52446008px;font-family:'Lucida Grande';-inkscape-font-specification:'Lucida Grande';fill:#242423;fill-opacity:1;stroke-width:0.2445655"
             d="m -94.729951,176.46464 q -0.256806,0 -0.396746,-0.15036 -0.139941,-0.1511 -0.139941,-0.42726 0,-0.27542 0.142174,-0.42727 0.142918,-0.15185 0.401957,-0.15185 0.148129,0 0.346874,0.0484 v 0.14664 q -0.226287,-0.0781 -0.349107,-0.0781 -0.179392,0 -0.277648,0.12133 -0.09826,0.12133 -0.09826,0.34241 0,0.21065 0.104956,0.33273 0.104955,0.12133 0.286581,0.12133 0.156316,0 0.334964,-0.096 v 0.13398 q -0.163016,0.0841 -0.355807,0.0841 z"
             inkscape:connector-curvature="0" />
        </g>
        <g
           id="text1008"
           style="font-style:normal;font-weight:normal;font-size:0.68253797px;line-height:1.25;font-family:sans-serif;letter-spacing:0px;word-spacing:0px;fill:#242423;fill-opacity:1;stroke:none;stroke-width:0.2445655"
           aria-label="+/_ ">
          <path
             id="path1186"
             style="font-style:normal;font-variant:normal;font-weight:normal;font-stretch:normal;font-size:1.52446008px;font-family:'Lucida Grande';-inkscape-font-specification:'Lucida Grande';fill:#242423;fill-opacity:1;stroke-width:0.2445655"
             d="m -90.290059,176.4371 v -0.38558 h -0.385581 v -0.11016 h 0.385581 v -0.38559 h 0.110166 v 0.38559 h 0.385582 v 0.11016 h -0.385582 v 0.38558 z"
             inkscape:connector-curvature="0" />
          <path
             id="path1188"
             style="font-style:normal;font-variant:normal;font-weight:normal;font-stretch:normal;font-size:1.52446008px;font-family:'Lucida Grande';-inkscape-font-specification:'Lucida Grande';fill:#242423;fill-opacity:1;stroke-width:0.2445655"
             d="m -89.4854,176.65744 0.396747,-1.322 h 0.115377 l -0.396747,1.322 z"
             inkscape:connector-curvature="0" />
          <path
             id="path1190"
             style="font-style:normal;font-variant:normal;font-weight:normal;font-stretch:normal;font-size:1.52446008px;font-family:'Lucida Grande';-inkscape-font-specification:'Lucida Grande';fill:#242423;fill-opacity:1;stroke-width:0.2445655"
             d="m -88.828125,176.69391 v -0.11017 h 0.76223 v 0.11017 z"
             inkscape:connector-curvature="0" />
        </g>
        <g
           id="text1012"
           style="font-style:normal;font-weight:normal;font-size:0.68253797px;line-height:1.25;font-family:sans-serif;letter-spacing:0px;word-spacing:0px;fill:#242423;fill-opacity:1;stroke:none;stroke-width:0.2445655"
           aria-label="% ">
          <path
             id="path1193"
             style="font-style:normal;font-variant:normal;font-weight:normal;font-stretch:normal;font-size:1.52446008px;font-family:'Lucida Grande';-inkscape-font-specification:'Lucida Grande';fill:#242423;fill-opacity:1;stroke-width:0.2445655"
             d="m -84.636951,176.46464 0.86793,-1.15674 h 0.114632 l -0.867185,1.15674 z m 0.221821,-0.57837 q -0.104956,0 -0.168227,-0.0752 -0.06253,-0.0752 -0.06253,-0.20098 0,-0.12654 0.06327,-0.20023 0.06327,-0.0744 0.171204,-0.0744 0.107188,0 0.170459,0.0744 0.06327,0.0737 0.06327,0.19949 0,0.12877 -0.06327,0.20321 -0.06327,0.0737 -0.174181,0.0737 z m 0.0022,-0.0737 q 0.125053,0 0.125053,-0.20321 0,-0.0916 -0.0335,-0.1459 -0.0335,-0.0551 -0.09007,-0.0551 -0.05732,0 -0.09081,0.0551 -0.0335,0.0543 -0.0335,0.14664 0,0.0923 0.0335,0.14739 0.0335,0.0551 0.08932,0.0551 z m 0.530732,0.62452 q -0.105699,0 -0.168226,-0.0744 -0.06253,-0.0752 -0.06253,-0.20098 0,-0.12654 0.06327,-0.20098 0.06327,-0.0744 0.17046,-0.0744 0.107189,0 0.17046,0.0744 0.06401,0.0737 0.06401,0.19949 0,0.12952 -0.06327,0.20321 -0.06327,0.0737 -0.174182,0.0737 z m 0.0015,-0.0737 q 0.125798,0 0.125798,-0.20321 0,-0.0916 -0.03424,-0.1459 -0.0335,-0.0551 -0.09007,-0.0551 -0.05657,0 -0.09007,0.0551 -0.0335,0.0543 -0.0335,0.14739 0,0.0916 0.03275,0.14664 0.0335,0.0551 0.08932,0.0551 z"
             inkscape:connector-curvature="0" />
        </g>
      </g>
      <g
         id="g1050"
         style="stroke-width:0.92434198">
        <g
           id="text1016"
           style="font-style:normal;font-weight:normal;font-size:0.68253797px;line-height:1.25;font-family:sans-serif;letter-spacing:0px;word-spacing:0px;fill:#c6c9ca;fill-opacity:1;stroke:none;stroke-width:0.2445655"
           aria-label="/ ">
          <path
             id="path1196"
             style="font-style:normal;font-variant:normal;font-weight:normal;font-stretch:normal;font-size:1.52446008px;font-family:'Lucida Grande';-inkscape-font-specification:'Lucida Grande';fill:#c6c9ca;fill-opacity:1;stroke-width:0.2445655"
             d="m -78.700713,176.65744 0.396747,-1.322 h 0.115376 l -0.396746,1.322 z"
             inkscape:connector-curvature="0" />
        </g>
        <g
           id="text1020"
           style="font-style:normal;font-weight:normal;font-size:0.85502529px;line-height:1.25;font-family:sans-serif;letter-spacing:0px;word-spacing:0px;fill:#c6c9ca;fill-opacity:1;stroke:none;stroke-width:0.2445655"
           aria-label="x ">
          <path
             id="path1199"
             style="font-style:normal;font-variant:normal;font-weight:normal;font-stretch:normal;font-size:1.90971351px;font-family:'Lucida Grande';-inkscape-font-specification:'Lucida Grande';fill:#c6c9ca;fill-opacity:1;stroke-width:0.2445655"
             d="m -78.916645,180.90799 0.385113,-0.52312 -0.373923,-0.48955 h 0.218199 l 0.295596,0.38977 0.267621,-0.38977 h 0.179035 l -0.350611,0.51379 0.381383,0.49888 h -0.2182 l -0.30492,-0.40097 -0.294662,0.40097 z"
             inkscape:connector-curvature="0" />
        </g>
        <g
           id="text1024"
           style="font-style:normal;font-weight:normal;font-size:0.85502529px;line-height:1.25;font-family:sans-serif;letter-spacing:0px;word-spacing:0px;fill:#c6c9ca;fill-opacity:1;stroke:none;stroke-width:0.2445655"
           aria-label="-">
          <path
             id="path1202"
             style="font-style:normal;font-variant:normal;font-weight:normal;font-stretch:normal;font-size:1.90971351px;font-family:'Lucida Grande';-inkscape-font-specification:'Lucida Grande';fill:#c6c9ca;fill-opacity:1;stroke-width:0.2445655"
             d="m -78.786096,184.76241 v -0.138 h 0.82804 v 0.138 z"
             inkscape:connector-curvature="0" />
        </g>
        <g
           id="text1028"
           style="font-style:normal;font-weight:normal;font-size:0.85502529px;line-height:1.25;font-family:sans-serif;letter-spacing:0px;word-spacing:0px;fill:#c6c9ca;fill-opacity:1;stroke:none;stroke-width:0.2445655"
           aria-label="+ ">
          <path
             id="path1205"
             style="font-style:normal;font-variant:normal;font-weight:normal;font-stretch:normal;font-size:1.90971351px;font-family:'Lucida Grande';-inkscape-font-specification:'Lucida Grande';fill:#c6c9ca;fill-opacity:1;stroke-width:0.2445655"
             d="m -78.544586,189.59074 v -0.48302 h -0.483023 v -0.13801 h 0.483023 v -0.48302 h 0.138007 v 0.48302 h 0.483023 v 0.13801 h -0.483023 v 0.48302 z"
             inkscape:connector-curvature="0" />
        </g>
      </g>
      <g
         id="text1032"
         style="font-style:normal;font-weight:normal;font-size:1.56996965px;line-height:1.25;font-family:sans-serif;letter-spacing:0px;word-spacing:0px;fill:#cccbcb;fill-opacity:1;stroke:none;stroke-width:0.0462171;stroke-miterlimit:4;stroke-dasharray:none"
         aria-label="3.141592 ">
        <path
           id="path1131"
           style="font-style:normal;font-variant:normal;font-weight:normal;font-stretch:normal;font-size:3.50655389px;font-family:'Nanum Gothic';-inkscape-font-specification:'Nanum Gothic';fill:#cccbcb;fill-opacity:1;stroke:none;stroke-width:0.0462171;stroke-miterlimit:4;stroke-dasharray:none"
           d="m -92.557159,172.56436 q -0.0526,-0.014 -0.04559,-0.0806 l 0.01403,-0.13675 q 0.007,-0.0421 0.05611,-0.021 0.147275,0.0596 0.277018,0.0842 0.133249,0.0245 0.308576,0.0281 0.277018,0.004 0.466372,-0.14026 0.220913,-0.14728 0.220913,-0.43131 0,-0.49793 -0.746896,-0.49793 h -0.182341 q -0.04559,0 -0.04559,-0.0386 v -0.12975 q 0,-0.0456 0.04559,-0.0456 h 0.01753 q 0.375201,0 0.585594,-0.0806 0.319097,-0.12273 0.319097,-0.44183 0,-0.10169 -0.05611,-0.18584 -0.0526,-0.0877 -0.143769,-0.14728 -0.08416,-0.0491 -0.189354,-0.0771 -0.105196,-0.0281 -0.220913,-0.0281 -0.119222,0 -0.262991,0.0316 -0.143769,0.0316 -0.277018,0.0842 -0.04558,0.0175 -0.0526,-0.0281 l -0.01403,-0.12974 q -0.01052,-0.0491 0.04559,-0.0701 0.157795,-0.0526 0.29455,-0.0771 0.136756,-0.0246 0.291044,-0.0246 0.354162,0 0.578582,0.15079 0.255978,0.17182 0.255978,0.50143 0,0.23494 -0.168314,0.40676 -0.140263,0.15078 -0.364682,0.22092 0.11221,0.014 0.206887,0.0596 0.09818,0.0456 0.168314,0.12623 0.08065,0.0877 0.12273,0.19988 0.04208,0.1087 0.04208,0.24195 0,0.17533 -0.07364,0.3191 -0.07013,0.14026 -0.203381,0.24195 -0.129742,0.0947 -0.298057,0.14727 -0.168314,0.0561 -0.375201,0.0526 -0.185847,-0.004 -0.322603,-0.021 -0.133249,-0.0175 -0.273511,-0.0631 z"
           inkscape:connector-curvature="0" />
        <path
           id="path1133"
           style="font-style:normal;font-variant:normal;font-weight:normal;font-stretch:normal;font-size:3.50655389px;font-family:'Nanum Gothic';-inkscape-font-specification:'Nanum Gothic';fill:#cccbcb;fill-opacity:1;stroke:none;stroke-width:0.0462171;stroke-miterlimit:4;stroke-dasharray:none"
           d="m -90.325347,172.59943 q 0,-0.0736 0.04909,-0.12624 0.0526,-0.0491 0.126236,-0.0491 0.07364,0 0.122729,0.0491 0.0526,0.0526 0.0526,0.12624 0,0.0736 -0.0526,0.12273 -0.04909,0.0526 -0.122729,0.0526 -0.07364,0 -0.126236,-0.0526 -0.04909,-0.0491 -0.04909,-0.12273 z"
           inkscape:connector-curvature="0" />
        <path
           id="path1135"
           style="font-style:normal;font-variant:normal;font-weight:normal;font-stretch:normal;font-size:3.50655389px;font-family:'Nanum Gothic';-inkscape-font-specification:'Nanum Gothic';fill:#cccbcb;fill-opacity:1;stroke:none;stroke-width:0.0462171;stroke-miterlimit:4;stroke-dasharray:none"
           d="m -88.348582,172.57488 q 0,0.0491 -0.04909,0.0491 h -0.143768 q -0.04909,0 -0.04909,-0.0491 v -2.27926 q -0.108703,0.0912 -0.20338,0.17182 -0.09468,0.0807 -0.199874,0.17183 -0.03857,0.0315 -0.07013,-0.007 l -0.07013,-0.0841 q -0.01052,-0.0175 -0.01052,-0.0351 0,-0.021 0.01753,-0.0351 l 0.543516,-0.45585 q 0.01403,-0.014 0.04208,-0.014 h 0.09468 q 0.07364,0 0.08416,0.014 0.01403,0.0105 0.01403,0.0842 z"
           inkscape:connector-curvature="0" />
        <path
           id="path1137"
           style="font-style:normal;font-variant:normal;font-weight:normal;font-stretch:normal;font-size:3.50655389px;font-family:'Nanum Gothic';-inkscape-font-specification:'Nanum Gothic';fill:#cccbcb;fill-opacity:1;stroke:none;stroke-width:0.0462171;stroke-miterlimit:4;stroke-dasharray:none"
           d="M -86.144822,171.79292 V 170.229 q -0.259485,0.39273 -0.515464,0.78196 -0.255978,0.38923 -0.51897,0.78196 z m 0.238445,0.78196 q 0,0.0491 -0.04909,0.0491 h -0.140262 q -0.04909,0 -0.04909,-0.0491 v -0.56806 h -1.157163 q -0.07364,0 -0.08766,-0.0105 -0.01052,-0.014 -0.01052,-0.0877 v -0.1087 q 0,-0.0316 0.0035,-0.0421 0.0035,-0.0105 0.02104,-0.0386 l 1.118591,-1.66912 q 0.02104,-0.0316 0.02805,-0.0351 0.01052,-0.007 0.04909,-0.007 h 0.175328 q 0.07364,0 0.08416,0.014 0.01403,0.0105 0.01403,0.0842 v 1.68665 h 0.347149 q 0.04909,0 0.04909,0.0491 v 0.11572 q 0,0.0491 -0.04909,0.0491 h -0.347149 z"
           inkscape:connector-curvature="0" />
        <path
           id="path1139"
           style="font-style:normal;font-variant:normal;font-weight:normal;font-stretch:normal;font-size:3.50655389px;font-family:'Nanum Gothic';-inkscape-font-specification:'Nanum Gothic';fill:#cccbcb;fill-opacity:1;stroke:none;stroke-width:0.0462171;stroke-miterlimit:4;stroke-dasharray:none"
           d="m -84.102364,172.57488 q 0,0.0491 -0.04909,0.0491 h -0.143769 q -0.04909,0 -0.04909,-0.0491 v -2.27926 q -0.108703,0.0912 -0.20338,0.17182 -0.09468,0.0807 -0.199873,0.17183 -0.03857,0.0315 -0.07013,-0.007 l -0.07013,-0.0841 q -0.01052,-0.0175 -0.01052,-0.0351 0,-0.021 0.01753,-0.0351 l 0.543516,-0.45585 q 0.01403,-0.014 0.04208,-0.014 h 0.09468 q 0.07364,0 0.08416,0.014 0.01403,0.0105 0.01403,0.0842 z"
           inkscape:connector-curvature="0" />
        <path
           id="path1141"
           style="font-style:normal;font-variant:normal;font-weight:normal;font-stretch:normal;font-size:3.50655389px;font-family:'Nanum Gothic';-inkscape-font-specification:'Nanum Gothic';fill:#cccbcb;fill-opacity:1;stroke:none;stroke-width:0.0462171;stroke-miterlimit:4;stroke-dasharray:none"
           d="m -82.869921,172.57138 q -0.04909,-0.0175 -0.04909,-0.0631 V 172.361 q 0,-0.0596 0.04909,-0.0351 0.126236,0.0596 0.245459,0.0842 0.12273,0.0245 0.266498,0.0245 0.308577,0 0.501437,-0.15078 0.210394,-0.1613 0.210394,-0.46287 0,-0.5926 -0.676765,-0.5926 -0.133249,0 -0.241952,0.014 -0.105197,0.014 -0.23494,0.0491 -0.03857,0.0105 -0.06312,-0.007 -0.02455,-0.021 -0.02455,-0.0596 l 0.02104,-1.11859 q 0,-0.0736 0.01052,-0.0842 0.01403,-0.014 0.08766,-0.014 h 1.199242 q 0.04909,0 0.04909,0.0491 v 0.11571 q 0,0.0491 -0.04909,0.0491 h -1.058979 q -0.0035,0.22091 -0.01052,0.4313 -0.0035,0.2104 -0.007,0.43131 0.171821,-0.0666 0.41728,-0.0666 0.368188,0 0.596114,0.19988 0.227926,0.20688 0.227926,0.55403 0,0.4243 -0.262992,0.65573 -0.252471,0.22091 -0.690791,0.22091 -0.157795,0 -0.273511,-0.0175 -0.115716,-0.0175 -0.238446,-0.0596 z"
           inkscape:connector-curvature="0" />
        <path
           id="path1143"
           style="font-style:normal;font-variant:normal;font-weight:normal;font-stretch:normal;font-size:3.50655389px;font-family:'Nanum Gothic';-inkscape-font-specification:'Nanum Gothic';fill:#cccbcb;fill-opacity:1;stroke:none;stroke-width:0.0462171;stroke-miterlimit:4;stroke-dasharray:none"
           d="m -79.508997,170.85667 q 0,-0.27351 -0.147276,-0.45936 -0.161301,-0.19987 -0.427799,-0.19987 -0.284031,0 -0.445332,0.17883 -0.157795,0.16832 -0.157795,0.44884 0,0.29806 0.143768,0.46287 h -0.0035 q 0.150782,0.1613 0.427799,0.1613 0.287538,0 0.448839,-0.1613 0.161302,-0.16832 0.161302,-0.43131 z m -1.283399,1.74276 q -0.0526,-0.0105 -0.04559,-0.0807 l 0.01052,-0.12273 q 0.007,-0.0421 0.05611,-0.021 0.08766,0.0351 0.175328,0.0491 0.09117,0.014 0.20338,0.014 0.245459,0 0.4278,-0.0947 0.182341,-0.0982 0.298057,-0.27702 0.175328,-0.29455 0.182341,-0.74689 -0.2139,0.34364 -0.634687,0.34364 -0.322603,0 -0.540009,-0.16481 -0.277018,-0.2139 -0.277018,-0.65572 0,-0.38923 0.227926,-0.62066 0.231433,-0.24196 0.63118,-0.24196 0.841573,0 0.841573,1.24132 0,1.42717 -1.181709,1.42717 -0.161301,0 -0.375201,-0.0491 z"
           inkscape:connector-curvature="0" />
        <path
           id="path1145"
           style="font-style:normal;font-variant:normal;font-weight:normal;font-stretch:normal;font-size:3.50655389px;font-family:'Nanum Gothic';-inkscape-font-specification:'Nanum Gothic';fill:#cccbcb;fill-opacity:1;stroke:none;stroke-width:0.0462171;stroke-miterlimit:4;stroke-dasharray:none"
           d="m -78.711367,172.62398 q -0.03857,0 -0.05961,-0.004 -0.01753,0 -0.02805,-0.0105 -0.007,-0.007 -0.01052,-0.0281 0,-0.0175 0,-0.0561 l 0.0035,-0.0771 q 0,-0.0456 0.02805,-0.0736 l 0.578581,-0.63819 q 0.645206,-0.69781 0.645206,-1.05898 0,-0.2104 -0.140262,-0.35066 -0.136756,-0.13675 -0.340136,-0.13675 -0.284031,0 -0.592607,0.15779 -0.04909,0.0246 -0.05611,-0.021 l -0.02104,-0.11571 q -0.01052,-0.0596 0.03507,-0.0736 0.178834,-0.0807 0.322603,-0.11922 0.143769,-0.0386 0.29455,-0.0386 0.33663,0 0.536503,0.16832 0.22442,0.18234 0.22442,0.51897 0,0.12974 -0.06312,0.28403 -0.06312,0.15429 -0.175328,0.3226 -0.07013,0.0982 -0.199874,0.25598 -0.126236,0.1578 -0.291044,0.33663 -0.122729,0.13325 -0.245458,0.27 -0.119223,0.13676 -0.241953,0.27001 h 1.227294 q 0.04909,0 0.04909,0.0491 v 0.11922 q 0,0.0491 -0.04909,0.0491 z"
           inkscape:connector-curvature="0" />
      </g>
    </g>
  </g>
</svg>
