<?xml version="1.0" encoding="UTF-8" standalone="no"?>
<!-- Created with Inkscape (http://www.inkscape.org/) -->

<svg
   xmlns:dc="http://purl.org/dc/elements/1.1/"
   xmlns:cc="http://creativecommons.org/ns#"
   xmlns:rdf="http://www.w3.org/1999/02/22-rdf-syntax-ns#"
   xmlns:svg="http://www.w3.org/2000/svg"
   xmlns="http://www.w3.org/2000/svg"
   xmlns:xlink="http://www.w3.org/1999/xlink"
   xmlns:sodipodi="http://sodipodi.sourceforge.net/DTD/sodipodi-0.dtd"
   xmlns:inkscape="http://www.inkscape.org/namespaces/inkscape"
   width="128"
   height="128"
   viewBox="0 0 33.866666 33.866668"
   version="1.1"
   id="svg8"
   inkscape:version="0.92.2 5c3e80d, 2017-08-06"
   sodipodi:docname="spee.svg">
  <defs
     id="defs2">
    <linearGradient
       inkscape:collect="always"
       id="linearGradient2201">
      <stop
         style="stop-color:#2ca946;stop-opacity:1"
         offset="0"
         id="stop2197" />
      <stop
         style="stop-color:#7be637;stop-opacity:1"
         offset="1"
         id="stop2199" />
    </linearGradient>
    <linearGradient
       inkscape:collect="always"
       id="linearGradient1676">
      <stop
         style="stop-color:#3c4140;stop-opacity:1"
         offset="0"
         id="stop1672" />
      <stop
         style="stop-color:#56676d;stop-opacity:1"
         offset="1"
         id="stop1674" />
    </linearGradient>
    <linearGradient
       inkscape:collect="always"
       id="linearGradient1668">
      <stop
         style="stop-color:#eef1f5;stop-opacity:1"
         offset="0"
         id="stop1664" />
      <stop
         style="stop-color:#feffff;stop-opacity:1"
         offset="1"
         id="stop1666" />
    </linearGradient>
    <linearGradient
       inkscape:collect="always"
       xlink:href="#linearGradient1668"
       id="linearGradient1670"
       x1="32.880192"
       y1="291.88303"
       x2="32.502747"
       y2="266.65314"
       gradientUnits="userSpaceOnUse"
       gradientTransform="matrix(1.0013471,0,0,1.0013471,-18.520125,-0.6330912)" />
    <linearGradient
       inkscape:collect="always"
       xlink:href="#linearGradient1676"
       id="linearGradient1678"
       x1="32.884129"
       y1="286.78033"
       x2="34.294197"
       y2="270.90533"
       gradientUnits="userSpaceOnUse" />
    <linearGradient
       inkscape:collect="always"
       xlink:href="#linearGradient2201"
       id="linearGradient2203"
       x1="8.1347656"
       y1="279.22379"
       x2="8.3164062"
       y2="268.5"
       gradientUnits="userSpaceOnUse"
       gradientTransform="matrix(5.0419389,0,0,5.0419389,49.399355,-1289.1288)" />
    <linearGradient
       inkscape:collect="always"
       xlink:href="#linearGradient1676"
       id="linearGradient2211"
       gradientUnits="userSpaceOnUse"
       x1="32.884129"
       y1="286.78033"
       x2="34.294197"
       y2="270.90533" />
    <linearGradient
       inkscape:collect="always"
       xlink:href="#linearGradient1676"
       id="linearGradient2213"
       gradientUnits="userSpaceOnUse"
       x1="32.884129"
       y1="286.78033"
       x2="34.294197"
       y2="270.90533" />
  </defs>
  <sodipodi:namedview
     id="base"
     pagecolor="#ffffff"
     bordercolor="#666666"
     borderopacity="1.0"
     inkscape:pageopacity="0.0"
     inkscape:pageshadow="2"
     inkscape:zoom="1.979899"
     inkscape:cx="102.2222"
     inkscape:cy="68.294705"
     inkscape:document-units="mm"
     inkscape:current-layer="layer1"
     showgrid="false"
     units="px"
     inkscape:window-width="1600"
     inkscape:window-height="803"
     inkscape:window-x="0"
     inkscape:window-y="0"
     inkscape:window-maximized="1" />
  <metadata
     id="metadata5">
    <rdf:RDF>
      <cc:Work
         rdf:about="">
        <dc:format>image/svg+xml</dc:format>
        <dc:type
           rdf:resource="http://purl.org/dc/dcmitype/StillImage" />
        <dc:title></dc:title>
      </cc:Work>
    </rdf:RDF>
  </metadata>
  <g
     inkscape:label="Layer 1"
     inkscape:groupmode="layer"
     id="layer1"
     transform="translate(0,-263.13332)">
    <g
       id="g2242"
       transform="matrix(0.98773986,0,0,0.98773986,0.26595399,3.2307833)">
      <circle
         style="opacity:0.25;fill:#000000;fill-opacity:1;stroke:none;stroke-width:0.117;stroke-miterlimit:4;stroke-dasharray:none;stroke-dashoffset:0;stroke-opacity:1"
         id="circle2219"
         cx="16.438984"
         cy="279.39844"
         r="14.619264" />
      <circle
         r="14.619264"
         cy="278.86926"
         cx="16.438984"
         id="path1662"
         style="opacity:1;fill:url(#linearGradient1670);fill-opacity:1;stroke:#999999;stroke-width:0.1;stroke-miterlimit:4;stroke-dasharray:none;stroke-dashoffset:0;stroke-opacity:1" />
      <path
         inkscape:connector-curvature="0"
         style="opacity:0.25;fill:#000000;fill-opacity:1;stroke:#2dab46;stroke-width:0.1;stroke-miterlimit:4;stroke-dasharray:none;stroke-opacity:1"
         d="m 24.164416,280.76273 c -4.281376,0 -7.766968,3.48612 -7.766968,7.76749 0,4.28138 3.485592,7.76387 7.766968,7.76387 4.281377,0 7.764384,-3.48249 7.764384,-7.76387 0,-4.28137 -3.483007,-7.76749 -7.764384,-7.76749 z"
         id="path2233" />
      <g
         transform="matrix(1.0013471,0,0,1.0013471,-18.520125,-0.6330912)"
         id="text1660"
         style="font-style:normal;font-weight:normal;font-size:27.27103996px;line-height:1.25;font-family:sans-serif;letter-spacing:0px;word-spacing:0px;fill:url(#linearGradient2213);fill-opacity:1;stroke:none;stroke-width:0.68177599"
         aria-label="A">
        <path
           id="path1680"
           style="font-style:normal;font-variant:normal;font-weight:normal;font-stretch:normal;font-family:'Times New Roman';-inkscape-font-specification:'Times New Roman, ';fill:url(#linearGradient2211);fill-opacity:1;stroke-width:0.68177599"
           d="m 37.588583,280.70911 h -6.990867 l -1.225067,2.84961 q -0.452742,1.05196 -0.452742,1.57128 0,0.4128 0.386163,0.73238 0.399478,0.30627 1.70444,0.39948 v 0.49269 h -5.685906 v -0.49269 q 1.131855,-0.19974 1.464754,-0.51932 0.679112,-0.63917 1.5047,-2.59661 l 6.351703,-14.86059 h 0.466057 l 6.285123,15.02038 q 0.759008,1.81097 1.371541,2.35692 0.62585,0.53264 1.731072,0.59922 v 0.49269 h -7.124026 v -0.49269 q 1.078591,-0.0533 1.451437,-0.35953 0.386162,-0.30627 0.386162,-0.7457 0,-0.5859 -0.532637,-1.85091 z m -0.372846,-0.98538 -3.062666,-7.29713 -3.142561,7.29713 z"
           inkscape:connector-curvature="0" />
      </g>
      <path
         id="path1383"
         transform="matrix(0.26458333,0,0,0.26458333,0,263.13332)"
         d="m 91.330078,64.630859 c -16.181578,0 -29.355469,13.175874 -29.355469,29.357422 0,16.181599 13.173891,29.343749 29.355469,29.343749 16.181582,0 29.345702,-13.16215 29.345702,-29.343749 0,-16.181548 -13.16412,-29.357422 -29.345702,-29.357422 z"
         style="fill:url(#linearGradient2203);fill-opacity:1;stroke:#1e7330;stroke-width:0.37795275;stroke-miterlimit:4;stroke-dasharray:none;stroke-opacity:1"
         inkscape:connector-curvature="0" />
      <path
         sodipodi:nodetypes="ccccccccccc"
         inkscape:connector-curvature="0"
         id="path2223"
         d="m 27.517167,284.71603 c -0.113313,2.9e-4 -0.225655,0.0551 -0.294039,0.15658 l -3.600815,5.3051 -2.574003,-2.38693 c -0.141184,-0.13064 -0.367044,-0.12309 -0.497644,0.0181 -0.134123,0.14472 -0.123095,0.36611 0.01809,0.50023 l 3.176033,2.94711 4.064868,-5.98982 c 0.109413,-0.16236 0.06573,-0.3805 -0.09663,-0.48989 -0.05956,-0.041 -0.127868,-0.0606 -0.195853,-0.0605 z"
         style="fill:#ffffff;fill-opacity:1;stroke:none;stroke-width:0.1;stroke-miterlimit:4;stroke-dasharray:none;stroke-opacity:1" />
    </g>
  </g>
</svg>
