<?xml version="1.0" encoding="UTF-8" standalone="no"?>
<!-- Created with Inkscape (http://www.inkscape.org/) -->

<svg
   xmlns:dc="http://purl.org/dc/elements/1.1/"
   xmlns:cc="http://creativecommons.org/ns#"
   xmlns:rdf="http://www.w3.org/1999/02/22-rdf-syntax-ns#"
   xmlns:svg="http://www.w3.org/2000/svg"
   xmlns="http://www.w3.org/2000/svg"
   xmlns:sodipodi="http://sodipodi.sourceforge.net/DTD/sodipodi-0.dtd"
   xmlns:inkscape="http://www.inkscape.org/namespaces/inkscape"
   width="128"
   height="128"
   viewBox="0 0 33.866666 33.866668"
   version="1.1"
   id="svg8"
   inkscape:version="0.92.3 (2405546, 2018-03-11)"
   sodipodi:docname="search.svg">
  <defs
     id="defs2" />
  <sodipodi:namedview
     id="base"
     pagecolor="#ffffff"
     bordercolor="#666666"
     borderopacity="1.0"
     inkscape:pageopacity="0.0"
     inkscape:pageshadow="2"
     inkscape:zoom="3.959798"
     inkscape:cx="46.95683"
     inkscape:cy="68.584221"
     inkscape:document-units="mm"
     inkscape:current-layer="layer1"
     showgrid="false"
     inkscape:window-width="1600"
     inkscape:window-height="838"
     inkscape:window-x="-8"
     inkscape:window-y="-8"
     inkscape:window-maximized="1"
     units="px" />
  <metadata
     id="metadata5">
    <rdf:RDF>
      <cc:Work
         rdf:about="">
        <dc:format>image/svg+xml</dc:format>
        <dc:type
           rdf:resource="http://purl.org/dc/dcmitype/StillImage" />
        <dc:title></dc:title>
      </cc:Work>
    </rdf:RDF>
  </metadata>
  <g
     inkscape:label="Layer 1"
     inkscape:groupmode="layer"
     id="layer1"
     transform="translate(0,-263.13332)">
    <g
       id="g828"
       transform="matrix(0.20752167,0,0,0.20752167,47.913913,210.90001)">
      <circle
         style="opacity:0.25;fill:#000000;fill-opacity:1;stroke:none;stroke-width:1.40132725;stroke-miterlimit:4;stroke-dasharray:none;stroke-opacity:1"
         id="circle822"
         cx="-149.28841"
         cy="334.62134"
         r="79" />
      <circle
         r="79"
         cy="331.97546"
         cx="-149.28841"
         id="path854"
         style="opacity:1;fill:#008cfb;fill-opacity:1;stroke:none;stroke-width:1.40132725;stroke-miterlimit:4;stroke-dasharray:none;stroke-opacity:1" />
      <path
         id="path820"
         style="opacity:0.25;fill:#000000;fill-opacity:1;stroke-width:0.17638889"
         d="m -160.69443,283.3397 c -2.14442,0.002 -4.30921,0.17909 -6.4771,0.53899 -10.97651,1.82225 -21.03835,8.42102 -27.03608,17.73121 -3.31671,5.14849 -5.25695,10.48997 -6.14331,16.91267 -0.27268,1.97597 -0.268,7.2397 0.006,9.34826 1.76448,13.52343 9.93648,25.07957 21.9847,31.08907 6.1368,3.06091 12.13395,4.35853 19.12649,4.13824 7.48782,-0.23588 14.37167,-2.43512 20.56207,-6.5691 1.23015,-0.82177 2.30862,-1.49397 2.3957,-1.49397 0.14247,0 6.64794,6.40609 25.11631,24.73338 5.31259,5.27201 6.25472,6.1345 6.70086,6.1345 0.4362,0 0.99129,-0.47207 3.47525,-2.95278 2.200805,-2.19795 2.956395,-3.06208 2.956395,-3.38069 0,-0.5058 0.67683,0.19995 -17.418545,-18.1596 -7.39733,-7.50546 -13.44983,-13.71055 -13.44983,-13.78883 0,-0.0783 0.58066,-1.00178 1.29035,-2.05259 3.2513,-4.81402 5.27336,-9.82935 6.31745,-15.66881 0.5496,-3.07387 0.59955,-9.66399 0.0961,-12.7 -0.70686,-4.26291 -1.80864,-7.72051 -3.65353,-11.46545 -6.84162,-13.88782 -20.83858,-22.4099 -35.8495,-22.3945 z m -22.94123,2.56677 c -0.0408,0.009 -0.0817,0.0178 -0.12247,0.0269 -0.043,0.0594 -0.0857,0.11894 -0.12867,0.17829 a 64.350447,66.807288 0 0 1 0.25114,-0.20516 z m 22.68906,6.39031 c 3.50115,-0.0192 7.01183,0.52091 10.32494,1.6216 13.00948,4.32203 21.37928,16.64809 20.78066,30.60124 -0.16888,3.93335 -0.70702,6.61414 -2.03607,10.14098 -1.51575,4.02231 -3.62458,7.23758 -6.88949,10.50479 -5.19863,5.20224 -11.6673,8.13803 -19.40914,8.80875 -2.48854,0.21561 -3.40405,0.20222 -5.99707,-0.0884 -5.30503,-0.59412 -9.78464,-2.19992 -13.95365,-5.0002 -5.60393,-3.76405 -9.65494,-9.14811 -11.78327,-15.66209 -1.11377,-3.40881 -1.48606,-5.8991 -1.48672,-9.93841 0,-2.78015 0.0735,-3.84539 0.386,-5.55625 0.81579,-4.46691 2.44779,-8.5352 4.91651,-12.25403 1.64492,-2.4779 4.94964,-5.85784 7.45691,-7.62693 1.92254,-1.35657 5.21846,-3.05133 7.42228,-3.8163 3.27514,-1.13684 6.76696,-1.71557 10.26811,-1.73478 z"
         inkscape:connector-curvature="0" />
      <path
         inkscape:connector-curvature="0"
         d="m -160.69443,280.69385 c -2.14442,0.002 -4.30921,0.17909 -6.4771,0.53899 -10.97651,1.82225 -21.03835,8.42102 -27.03608,17.73121 -3.31671,5.14849 -5.25695,10.48997 -6.14331,16.91267 -0.27268,1.97597 -0.268,7.2397 0.006,9.34826 1.76448,13.52343 9.93648,25.07957 21.9847,31.08907 6.1368,3.06091 12.13395,4.35853 19.12649,4.13824 7.48782,-0.23588 14.37167,-2.43512 20.56207,-6.5691 1.23015,-0.82177 2.30862,-1.49397 2.3957,-1.49397 0.14247,0 6.64794,6.40609 25.11631,24.73338 5.31259,5.27201 6.25472,6.1345 6.70086,6.1345 0.4362,0 0.99129,-0.47207 3.47525,-2.95278 2.200805,-2.19795 2.956395,-3.06208 2.956395,-3.38069 0,-0.5058 0.67683,0.19995 -17.418545,-18.1596 -7.39733,-7.50546 -13.44983,-13.71055 -13.44983,-13.78883 0,-0.0783 0.58066,-1.00178 1.29035,-2.05259 3.2513,-4.81402 5.27336,-9.82935 6.31745,-15.66881 0.5496,-3.07387 0.59955,-9.66399 0.0961,-12.7 -0.70686,-4.26291 -1.80864,-7.72051 -3.65353,-11.46545 -6.84162,-13.88782 -20.83858,-22.4099 -35.8495,-22.3945 z m -22.94123,2.56677 c -0.0408,0.009 -0.0817,0.0178 -0.12247,0.0269 -0.043,0.0594 -0.0857,0.11894 -0.12867,0.17829 a 64.350447,66.807288 0 0 1 0.25114,-0.20516 z m 22.68906,6.39031 c 3.50115,-0.0192 7.01183,0.52091 10.32494,1.6216 13.00948,4.32203 21.37928,16.64809 20.78066,30.60124 -0.16888,3.93335 -0.70702,6.61414 -2.03607,10.14098 -1.51575,4.02231 -3.62458,7.23758 -6.88949,10.50479 -5.19863,5.20224 -11.6673,8.13803 -19.40914,8.80875 -2.48854,0.21561 -3.40405,0.20222 -5.99707,-0.0884 -5.30503,-0.59412 -9.78464,-2.19992 -13.95365,-5.0002 -5.60393,-3.76405 -9.65494,-9.14811 -11.78327,-15.66209 -1.11377,-3.40881 -1.48606,-5.8991 -1.48672,-9.93841 0,-2.78015 0.0735,-3.84539 0.386,-5.55625 0.81579,-4.46691 2.44779,-8.5352 4.91651,-12.25403 1.64492,-2.4779 4.94964,-5.85784 7.45691,-7.62693 1.92254,-1.35657 5.21846,-3.05133 7.42228,-3.8163 3.27514,-1.13684 6.76696,-1.71557 10.26811,-1.73478 z"
         style="opacity:1;fill:#eeeeee;fill-opacity:1;stroke-width:0.17638889"
         id="path856" />
    </g>
  </g>
</svg>
