<?xml version="1.0" encoding="UTF-8" standalone="no"?>
<!-- Created with Inkscape (http://www.inkscape.org/) -->

<svg
   xmlns:dc="http://purl.org/dc/elements/1.1/"
   xmlns:cc="http://creativecommons.org/ns#"
   xmlns:rdf="http://www.w3.org/1999/02/22-rdf-syntax-ns#"
   xmlns:svg="http://www.w3.org/2000/svg"
   xmlns="http://www.w3.org/2000/svg"
   xmlns:xlink="http://www.w3.org/1999/xlink"
   xmlns:sodipodi="http://sodipodi.sourceforge.net/DTD/sodipodi-0.dtd"
   xmlns:inkscape="http://www.inkscape.org/namespaces/inkscape"
   width="128"
   height="128"
   viewBox="0 0 33.866666 33.866668"
   version="1.1"
   id="svg8"
   inkscape:version="0.92.2 5c3e80d, 2017-08-06"
   sodipodi:docname="libreoffice-draw copy.svg">
  <defs
     id="defs2">
    <linearGradient
       inkscape:collect="always"
       id="linearGradient1136">
      <stop
         style="stop-color:#fbfafa;stop-opacity:1"
         offset="0"
         id="stop1132" />
      <stop
         style="stop-color:#e9e8e8;stop-opacity:1"
         offset="1"
         id="stop1134" />
    </linearGradient>
    <linearGradient
       gradientTransform="matrix(1.0058652,0,0,0.994169,2548.5715,-34.051766)"
       gradientUnits="userSpaceOnUse"
       id="ButtonShadow"
       y2="7.0165396"
       x2="45.447727"
       y1="92.539597"
       x1="45.447727">
      <stop
         offset="0"
         style="stop-color:#000000;stop-opacity:1"
         id="stop3750" />
      <stop
         offset="1"
         style="stop-color:#000000;stop-opacity:0.58823532"
         id="stop3752" />
    </linearGradient>
    <linearGradient
       id="linearGradient3737">
      <stop
         offset="0"
         style="stop-color:#ffffff;stop-opacity:1"
         id="stop3739" />
      <stop
         offset="1"
         style="stop-color:#ffffff;stop-opacity:0"
         id="stop3741" />
    </linearGradient>
    <filter
       id="filter3174"
       style="color-interpolation-filters:sRGB">
      <feGaussianBlur
         stdDeviation="1.71"
         id="feGaussianBlur3176" />
    </filter>
    <filter
       id="filter3794"
       height="1.3839999"
       width="1.3839999"
       y="-0.192"
       x="-0.192"
       style="color-interpolation-filters:sRGB">
      <feGaussianBlur
         stdDeviation="5.28"
         id="feGaussianBlur3796" />
    </filter>
    <linearGradient
       gradientUnits="userSpaceOnUse"
       xlink:href="#linearGradient3737"
       id="linearGradient3613"
       y2="138.66119"
       x2="48"
       y1="20.220806"
       x1="48"
       gradientTransform="translate(2548.5715,-34.051766)" />
    <clipPath
       id="clipPath3613">
      <rect
         style="fill:#ffffff;fill-opacity:1;fill-rule:nonzero;stroke:none"
         id="rect3615"
         y="6"
         x="6"
         ry="6"
         rx="6"
         height="84"
         width="84" />
    </clipPath>
    <linearGradient
       inkscape:collect="always"
       xlink:href="#linearGradient1136"
       id="linearGradient1138"
       x1="-34.032032"
       y1="268.50766"
       x2="-14.312284"
       y2="293.21143"
       gradientUnits="userSpaceOnUse"
       gradientTransform="matrix(0.95029415,0.15051181,-0.15051296,0.95030144,-42.130374,4.532974)" />
  </defs>
  <sodipodi:namedview
     id="base"
     pagecolor="#ffffff"
     bordercolor="#666666"
     borderopacity="1.0"
     inkscape:pageopacity="0.0"
     inkscape:pageshadow="2"
     inkscape:zoom="0.99999999"
     inkscape:cx="-252.65914"
     inkscape:cy="206.51466"
     inkscape:document-units="mm"
     inkscape:current-layer="layer1"
     showgrid="false"
     inkscape:window-width="1600"
     inkscape:window-height="792"
     inkscape:window-x="0"
     inkscape:window-y="0"
     inkscape:window-maximized="1"
     inkscape:lockguides="true"
     units="px" />
  <metadata
     id="metadata5">
    <rdf:RDF>
      <cc:Work
         rdf:about="">
        <dc:format>image/svg+xml</dc:format>
        <dc:type
           rdf:resource="http://purl.org/dc/dcmitype/StillImage" />
        <dc:title />
      </cc:Work>
    </rdf:RDF>
  </metadata>
  <g
     inkscape:label="Layer 1"
     inkscape:groupmode="layer"
     id="layer1"
     transform="translate(0,-263.13332)">
    <g
       id="layer2"
       style="display:none"
       transform="matrix(0.26458333,0,0,0.26458333,-374.57481,222.60752)">
      <rect
         width="86"
         height="85"
         rx="6"
         ry="6"
         x="5"
         y="7"
         id="rect3745"
         style="opacity:0.9;fill:url(#ButtonShadow);fill-opacity:1;fill-rule:nonzero;stroke:none;filter:url(#filter3174)" />
    </g>
    <g
       id="layer5"
       style="display:none"
       transform="matrix(0.26458333,0,0,0.26458333,-374.57481,222.60752)">
      <rect
         width="66"
         height="66"
         rx="12"
         ry="12"
         x="15"
         y="15"
         clip-path="url(#clipPath3613)"
         id="rect3171"
         style="opacity:0.1;fill:url(#linearGradient3613);fill-opacity:1;fill-rule:nonzero;stroke:#ffffff;stroke-width:0.5;stroke-linecap:round;stroke-linejoin:miter;stroke-miterlimit:4;stroke-dasharray:none;stroke-dashoffset:0;stroke-opacity:1;filter:url(#filter3794)" />
    </g>
    <g
       id="g1336"
       transform="matrix(1.0393501,0,0,1.0393421,42.512087,-11.503238)"
       style="stroke-width:0.96214336">
      <rect
         style="opacity:0.25;fill:#000000;fill-opacity:1;fill-rule:nonzero;stroke:none;stroke-width:0.09621434;stroke-linecap:round;stroke-linejoin:round;stroke-miterlimit:4;stroke-dasharray:none;stroke-dashoffset:0;stroke-opacity:1"
         id="rect1226"
         width="22.815367"
         height="28.277344"
         x="-80.305222"
         y="259.27127"
         ry="0"
         transform="rotate(-9)" />
      <rect
         transform="rotate(-9)"
         ry="0"
         y="258.74863"
         x="-80.222443"
         height="28.277344"
         width="22.815367"
         id="rect1122"
         style="opacity:1;fill:url(#linearGradient1138);fill-opacity:1;fill-rule:nonzero;stroke:#767576;stroke-width:0.09621434;stroke-linecap:round;stroke-linejoin:round;stroke-miterlimit:4;stroke-dasharray:none;stroke-dashoffset:0;stroke-opacity:1" />
      <path
         inkscape:connector-curvature="0"
         id="path1124"
         d="m -37.338539,270.14804 20.385118,-3.25602"
         style="opacity:1;fill:none;stroke:#767576;stroke-width:0.19242868;stroke-linecap:round;stroke-linejoin:round;stroke-miterlimit:4;stroke-dasharray:none;stroke-dashoffset:0;stroke-opacity:1" />
      <path
         style="opacity:1;fill:none;stroke:#767576;stroke-width:0.19242868;stroke-linecap:round;stroke-linejoin:round;stroke-miterlimit:4;stroke-dasharray:none;stroke-dashoffset:0;stroke-opacity:1"
         d="m -33.61342,293.66751 20.385118,-3.25602"
         id="path1126"
         inkscape:connector-curvature="0" />
      <path
         inkscape:connector-curvature="0"
         id="path1128"
         d="m -36.606729,269.12871 4.108047,25.26448 v 0 0 0 0"
         style="opacity:1;fill:none;stroke:#767576;stroke-width:0.19242868;stroke-linecap:round;stroke-linejoin:round;stroke-miterlimit:4;stroke-dasharray:none;stroke-opacity:1" />
      <path
         style="opacity:1;fill:none;stroke:#767576;stroke-width:0.19242868;stroke-linecap:round;stroke-linejoin:round;stroke-miterlimit:4;stroke-dasharray:none;stroke-opacity:1"
         d="m -18.105101,266.19834 4.108047,25.26448 v 0 0 0 0"
         id="path1130"
         inkscape:connector-curvature="0" />
      <g
         transform="matrix(0.77987132,0.03946275,-0.03947979,0.78020815,48.669085,65.960516)"
         id="g919"
         style="opacity:1;fill:#eeeded;fill-opacity:1;stroke:#767576;stroke-width:1.23187816;stroke-opacity:1">
        <rect
           style="opacity:1;fill:#eeeded;fill-opacity:1;fill-rule:nonzero;stroke:#767576;stroke-width:0.24637564;stroke-linecap:round;stroke-linejoin:round;stroke-miterlimit:4;stroke-dasharray:none;stroke-dashoffset:0;stroke-opacity:1"
           id="rect38685"
           width="9.2302971"
           height="9.2326555"
           x="-139.03319"
           y="247.36961"
           rx="0"
           transform="matrix(0.97652548,-0.2154019,0.21528727,0.97655076,0,0)" />
        <ellipse
           style="opacity:1;fill:#eeeded;fill-opacity:1;fill-rule:nonzero;stroke:#767576;stroke-width:0.24637564;stroke-linecap:round;stroke-linejoin:round;stroke-miterlimit:4;stroke-dasharray:none;stroke-dashoffset:0;stroke-opacity:1"
           id="circle38683"
           cx="-142.76613"
           cy="252.35182"
           transform="matrix(0.97652548,-0.2154019,0.21528727,0.97655076,0,0)"
           rx="5.0935926"
           ry="5.0948939" />
        <path
           sodipodi:type="star"
           style="opacity:1;fill:#eeeded;fill-opacity:1;fill-rule:nonzero;stroke:#767576;stroke-width:0.34969237;stroke-linecap:round;stroke-linejoin:round;stroke-miterlimit:4;stroke-dasharray:none;stroke-dashoffset:0;stroke-opacity:1"
           id="path38681"
           sodipodi:sides="3"
           sodipodi:cx="38.175594"
           sodipodi:cy="151.95163"
           sodipodi:r1="9.5775204"
           sodipodi:r2="4.7887607"
           sodipodi:arg1="0.52359878"
           sodipodi:arg2="1.5707963"
           inkscape:flatsided="true"
           inkscape:rounded="0"
           inkscape:randomized="0"
           d="m 46.46997,156.74039 -16.588752,0 8.294376,-14.36628 z"
           inkscape:transform-center-y="-1.6326097"
           transform="matrix(0.71360072,-0.15740599,0.14624079,0.66335574,-128.30457,187.98032)"
           inkscape:transform-center-x="-4.0353174e-06" />
      </g>
      <g
         id="g1160"
         transform="matrix(1.2554645,-0.14320798,0.13621428,1.2303449,-397.83562,54.866541)"
         style="opacity:0.25;fill:#000000;stroke-width:0.76930583">
        <rect
           transform="matrix(0.91593517,0.40132625,-0.42277528,0.90623455,0,0)"
           ry="0.73892349"
           y="72.079384"
           x="344.44061"
           height="3.634953"
           width="1.7617952"
           id="rect1140"
           style="opacity:1;fill:#000000;fill-opacity:1;stroke:none;stroke-width:0.65560049;stroke-miterlimit:4;stroke-dasharray:none;stroke-opacity:1" />
        <path
           sodipodi:nodetypes="assaaaaaaa"
           inkscape:connector-curvature="0"
           id="path1142"
           d="m 285.48453,204.05953 c -0.16259,0.0273 -0.33058,0.12505 -0.41757,0.2651 -0.14988,0.24132 -0.2744,0.53985 -0.35058,0.81528 -0.0683,0.24704 0.005,0.56277 0.18283,0.74688 0.13364,0.13799 0.37665,0.22603 0.55507,0.15487 0.16245,-0.0648 0.18766,-0.2956 0.26962,-0.4501 0.10172,-0.19173 0.20743,-0.38396 0.27489,-0.59025 0.0606,-0.18524 0.1876,-0.39298 0.114,-0.57343 -0.0748,-0.1835 -0.30944,-0.25552 -0.49066,-0.3357 -0.0431,-0.0191 -0.0911,-0.0404 -0.1376,-0.0326 z"
           style="opacity:1;fill:#000000;fill-opacity:1;stroke:none;stroke-width:0.65550953;stroke-miterlimit:4;stroke-dasharray:none;stroke-opacity:1" />
        <path
           style="opacity:1;fill:#000000;fill-opacity:1;stroke:none;stroke-width:0.2035455px;stroke-linecap:butt;stroke-linejoin:miter;stroke-opacity:1"
           d="m 276.12659,223.25593 7.3395,-16.72363 1.83576,1.08336 -7.29465,16.53493 z"
           id="path1144"
           inkscape:connector-curvature="0"
           sodipodi:nodetypes="ccccc" />
        <path
           sodipodi:nodetypes="ccccc"
           inkscape:connector-curvature="0"
           id="path1146"
           d="m 276.38463,223.70339 7.59788,-17.01616 1.00206,0.52841 -7.53482,17.08164 z"
           style="opacity:1;fill:#000000;fill-opacity:1;stroke:none;stroke-width:0.2035455px;stroke-linecap:butt;stroke-linejoin:miter;stroke-opacity:1" />
        <path
           sodipodi:nodetypes="ccccac"
           inkscape:connector-curvature="0"
           id="path1148"
           d="m 275.36887,227.44622 0.75772,-4.19029 1.88061,0.89466 -2.47401,3.32302 c 0,0 -0.072,0.0901 -0.11686,0.0771 -0.0368,-0.0106 -0.0475,-0.10453 -0.0475,-0.10453 z"
           style="opacity:1;fill:#000000;fill-opacity:1;stroke:none;stroke-width:0.2035455px;stroke-linecap:butt;stroke-linejoin:miter;stroke-opacity:1" />
        <path
           inkscape:connector-curvature="0"
           id="path1150"
           d="m 277.59895,223.9564 -1.801,2.93291 0.0976,0.0975 2.11174,-2.83625 z"
           style="opacity:1;fill:#000000;fill-opacity:1;stroke:none;stroke-width:0.2035455px;stroke-linecap:butt;stroke-linejoin:miter;stroke-opacity:1" />
        <path
           inkscape:connector-curvature="0"
           id="path1152"
           d="m 276.12656,223.25595 -0.62836,3.47499 0.22666,-0.0242 0.77604,-3.27269 z"
           style="opacity:1;fill:#000000;fill-opacity:1;stroke:none;stroke-width:0.2035455px;stroke-linecap:butt;stroke-linejoin:miter;stroke-opacity:1" />
        <path
           inkscape:connector-curvature="0"
           id="path1154"
           d="m 275.57519,226.30548 -0.20629,1.14069 c 0,0 0.0107,0.094 0.0474,0.10455 0.0448,0.0129 0.11682,-0.0771 0.11682,-0.0771 l 0.63086,-0.84733 -0.0648,-0.02 c -0.23795,-0.0732 -0.42481,-0.21435 -0.52402,-0.30085 z"
           style="opacity:1;fill:#000000;stroke:none;stroke-width:0.2035455px;stroke-linecap:butt;stroke-linejoin:miter;stroke-opacity:1" />
        <path
           sodipodi:nodetypes="cccccccccsccccccccccccccccsscssscsccccccc"
           inkscape:connector-curvature="0"
           id="path1156"
           d="m 284.22073,204.8794 c -0.004,-1e-4 -0.008,2.6e-4 -0.0117,0.001 -0.0557,0.0152 -0.11673,0.073 -0.15357,0.12861 -0.0389,0.0588 -0.0422,0.13443 -0.0616,0.20219 -0.0205,0.0717 -0.0158,0.15466 -0.0578,0.21628 -0.0512,0.075 -0.17406,0.0827 -0.21937,0.16136 -0.0578,0.10034 0.0103,0.24001 -0.0377,0.34538 -0.0376,0.0826 -0.14871,0.11665 -0.18493,0.1999 -0.0334,0.0768 0.0247,0.21171 -0.0187,0.25042 -0.0433,0.0387 -0.0337,0.0301 -0.12801,0.24424 -0.0943,0.21415 -0.11056,0.34122 -0.0574,0.37164 5.2e-4,3.1e-4 0.001,4.1e-4 0.002,7e-4 2e-5,1.5e-4 1.1e-4,0.002 1.1e-4,0.002 0,0 0.11615,0.0517 0.21298,0.0775 0.0197,0.005 0.0348,0.0112 0.0486,0.0174 0.009,0.008 0.0179,0.0144 0.0269,0.0237 0.11665,0.12085 0.2711,0.13868 0.3344,0.15137 0.0311,0.006 0.0532,1.1e-4 0.0978,0.009 0.0422,0.0178 0.0936,0.0381 0.16665,0.0639 0.0243,0.0121 0.0508,0.026 0.0811,0.0427 0.10284,0.057 0.16454,0.0859 0.21547,0.10894 0.0121,0.0128 0.0218,0.0242 0.0363,0.0351 0.0491,0.0368 0.15716,0.13109 0.31194,0.14588 0.0317,0.0106 0.0592,0.0186 0.0987,0.0445 0.0838,0.055 0.1998,0.10714 0.1998,0.10714 0,0 0.0637,0.0314 0.072,0.0242 0.0578,0.0114 0.0823,-0.12206 0.17599,-0.32818 0.0968,-0.21303 0.0969,-0.20012 0.0969,-0.25821 0,-0.0581 0.13927,-0.1047 0.17424,-0.18073 0.0379,-0.0825 -0.0106,-0.18807 0.0259,-0.27119 0.0466,-0.10602 0.19604,-0.14826 0.23235,-0.25821 0.0285,-0.0862 -0.0476,-0.18298 -0.0258,-0.2711 0.0179,-0.0724 0.0828,-0.12412 0.12262,-0.18723 0.0376,-0.0596 0.0918,-0.11255 0.10973,-0.18072 0.0169,-0.0646 0.0193,-0.14846 -0.006,-0.2001 -0.0225,-0.045 -0.1762,-0.0791 -0.23824,-0.096 -0.12631,-0.0741 -0.3999,-0.23216 -0.48687,-0.25172 -0.0335,-0.008 -0.10159,-0.0301 -0.17763,-0.0566 -0.10312,-0.0556 -0.20183,-0.11084 -0.23984,-0.13799 -0.0848,-0.0606 -0.48202,-0.1857 -0.56396,-0.21198 -0.0568,-0.0376 -0.13112,-0.0842 -0.17254,-0.0853 z"
           style="fill:#000000;fill-opacity:1;stroke:none;stroke-width:0.2035455px;stroke-linecap:butt;stroke-linejoin:miter;stroke-opacity:1" />
        <path
           inkscape:connector-curvature="0"
           id="path1158"
           d="m 284.773,205.09478 -1.03385,2.13221 c 0.0723,0.0294 0.1391,0.0391 0.17554,0.0464 0.0311,0.006 0.0532,1.1e-4 0.0978,0.009 0.0422,0.0178 0.0936,0.0381 0.16665,0.0639 0.0243,0.0121 0.0508,0.026 0.0811,0.0427 0.10284,0.057 0.16454,0.0859 0.21547,0.10894 0.0121,0.0128 0.0218,0.0242 0.0362,0.035 0.0451,0.0338 0.14023,0.11525 0.27509,0.13999 l 0.96276,-2.11453 c -0.13521,-0.0773 -0.30883,-0.17212 -0.37504,-0.18702 -0.0335,-0.008 -0.10159,-0.0301 -0.17763,-0.0566 -0.10312,-0.0556 -0.20183,-0.11084 -0.23984,-0.13799 -0.0301,-0.0215 -0.10339,-0.0514 -0.18423,-0.0819 z"
           style="fill:#000000;fill-opacity:1;stroke:none;stroke-width:0.2035455px;stroke-linecap:butt;stroke-linejoin:miter;stroke-opacity:1" />
      </g>
      <g
         style="stroke-width:0.76930583"
         transform="matrix(1.2554645,-0.14320798,0.13621428,1.2303449,-398.35828,54.949321)"
         id="g8617">
        <rect
           style="opacity:1;fill:#f1473e;fill-opacity:1;stroke:none;stroke-width:0.65560049;stroke-miterlimit:4;stroke-dasharray:none;stroke-opacity:1"
           id="rect887"
           width="1.7617952"
           height="3.634953"
           x="344.44061"
           y="72.079384"
           ry="0.73892349"
           transform="matrix(0.91593517,0.40132625,-0.42277528,0.90623455,0,0)" />
        <path
           style="opacity:1;fill:#ff4b42;fill-opacity:1;stroke:none;stroke-width:0.65550953;stroke-miterlimit:4;stroke-dasharray:none;stroke-opacity:1"
           d="m 285.48453,204.05953 c -0.16259,0.0273 -0.33058,0.12505 -0.41757,0.2651 -0.14988,0.24132 -0.2744,0.53985 -0.35058,0.81528 -0.0683,0.24704 0.005,0.56277 0.18283,0.74688 0.13364,0.13799 0.37665,0.22603 0.55507,0.15487 0.16245,-0.0648 0.18766,-0.2956 0.26962,-0.4501 0.10172,-0.19173 0.20743,-0.38396 0.27489,-0.59025 0.0606,-0.18524 0.1876,-0.39298 0.114,-0.57343 -0.0748,-0.1835 -0.30944,-0.25552 -0.49066,-0.3357 -0.0431,-0.0191 -0.0911,-0.0404 -0.1376,-0.0326 z"
           id="rect888"
           inkscape:connector-curvature="0"
           sodipodi:nodetypes="assaaaaaaa" />
        <path
           sodipodi:nodetypes="ccccc"
           inkscape:connector-curvature="0"
           id="path851"
           d="m 276.12659,223.25593 7.3395,-16.72363 1.83576,1.08336 -7.29465,16.53493 z"
           style="opacity:1;fill:#ad7712;fill-opacity:1;stroke:none;stroke-width:0.2035455px;stroke-linecap:butt;stroke-linejoin:miter;stroke-opacity:1" />
        <path
           style="opacity:1;fill:#f9f847;fill-opacity:1;stroke:none;stroke-width:0.2035455px;stroke-linecap:butt;stroke-linejoin:miter;stroke-opacity:1"
           d="m 276.38463,223.70339 7.59788,-17.01616 1.00206,0.52841 -7.53482,17.08164 z"
           id="path849"
           inkscape:connector-curvature="0"
           sodipodi:nodetypes="ccccc" />
        <path
           style="opacity:1;fill:#bb9d55;fill-opacity:1;stroke:none;stroke-width:0.2035455px;stroke-linecap:butt;stroke-linejoin:miter;stroke-opacity:1"
           d="m 275.36887,227.44622 0.75772,-4.19029 1.88061,0.89466 -2.47401,3.32302 c 0,0 -0.072,0.0901 -0.11686,0.0771 -0.0368,-0.0106 -0.0475,-0.10453 -0.0475,-0.10453 z"
           id="path845"
           inkscape:connector-curvature="0"
           sodipodi:nodetypes="ccccac" />
        <path
           style="opacity:1;fill:#a68c4c;fill-opacity:1;stroke:none;stroke-width:0.2035455px;stroke-linecap:butt;stroke-linejoin:miter;stroke-opacity:1"
           d="m 277.59895,223.9564 -1.801,2.93291 0.0976,0.0975 2.11174,-2.83625 z"
           id="path2869"
           inkscape:connector-curvature="0" />
        <path
           style="opacity:1;fill:#ab8f4f;fill-opacity:1;stroke:none;stroke-width:0.2035455px;stroke-linecap:butt;stroke-linejoin:miter;stroke-opacity:1"
           d="m 276.12656,223.25595 -0.62836,3.47499 0.22666,-0.0242 0.77604,-3.27269 z"
           id="path2860"
           inkscape:connector-curvature="0" />
        <path
           style="opacity:1;fill:#000000;stroke:none;stroke-width:0.2035455px;stroke-linecap:butt;stroke-linejoin:miter;stroke-opacity:1"
           d="m 275.57519,226.30548 -0.20629,1.14069 c 0,0 0.0107,0.094 0.0474,0.10455 0.0448,0.0129 0.11682,-0.0771 0.11682,-0.0771 l 0.63086,-0.84733 -0.0648,-0.02 c -0.23795,-0.0732 -0.42481,-0.21435 -0.52402,-0.30085 z"
           id="path876"
           inkscape:connector-curvature="0" />
        <path
           style="fill:#535667;fill-opacity:1;stroke:none;stroke-width:0.2035455px;stroke-linecap:butt;stroke-linejoin:miter;stroke-opacity:1"
           d="m 284.22073,204.8794 c -0.004,-1e-4 -0.008,2.6e-4 -0.0117,0.001 -0.0557,0.0152 -0.11673,0.073 -0.15357,0.12861 -0.0389,0.0588 -0.0422,0.13443 -0.0616,0.20219 -0.0205,0.0717 -0.0158,0.15466 -0.0578,0.21628 -0.0512,0.075 -0.17406,0.0827 -0.21937,0.16136 -0.0578,0.10034 0.0103,0.24001 -0.0377,0.34538 -0.0376,0.0826 -0.14871,0.11665 -0.18493,0.1999 -0.0334,0.0768 0.0247,0.21171 -0.0187,0.25042 -0.0433,0.0387 -0.0337,0.0301 -0.12801,0.24424 -0.0943,0.21415 -0.11056,0.34122 -0.0574,0.37164 5.2e-4,3.1e-4 0.001,4.1e-4 0.002,7e-4 2e-5,1.5e-4 1.1e-4,0.002 1.1e-4,0.002 0,0 0.11615,0.0517 0.21298,0.0775 0.0197,0.005 0.0348,0.0112 0.0486,0.0174 0.009,0.008 0.0179,0.0144 0.0269,0.0237 0.11665,0.12085 0.2711,0.13868 0.3344,0.15137 0.0311,0.006 0.0532,1.1e-4 0.0978,0.009 0.0422,0.0178 0.0936,0.0381 0.16665,0.0639 0.0243,0.0121 0.0508,0.026 0.0811,0.0427 0.10284,0.057 0.16454,0.0859 0.21547,0.10894 0.0121,0.0128 0.0218,0.0242 0.0363,0.0351 0.0491,0.0368 0.15716,0.13109 0.31194,0.14588 0.0317,0.0106 0.0592,0.0186 0.0987,0.0445 0.0838,0.055 0.1998,0.10714 0.1998,0.10714 0,0 0.0637,0.0314 0.072,0.0242 0.0578,0.0114 0.0823,-0.12206 0.17599,-0.32818 0.0968,-0.21303 0.0969,-0.20012 0.0969,-0.25821 0,-0.0581 0.13927,-0.1047 0.17424,-0.18073 0.0379,-0.0825 -0.0106,-0.18807 0.0259,-0.27119 0.0466,-0.10602 0.19604,-0.14826 0.23235,-0.25821 0.0285,-0.0862 -0.0476,-0.18298 -0.0258,-0.2711 0.0179,-0.0724 0.0828,-0.12412 0.12262,-0.18723 0.0376,-0.0596 0.0918,-0.11255 0.10973,-0.18072 0.0169,-0.0646 0.0193,-0.14846 -0.006,-0.2001 -0.0225,-0.045 -0.1762,-0.0791 -0.23824,-0.096 -0.12631,-0.0741 -0.3999,-0.23216 -0.48687,-0.25172 -0.0335,-0.008 -0.10159,-0.0301 -0.17763,-0.0566 -0.10312,-0.0556 -0.20183,-0.11084 -0.23984,-0.13799 -0.0848,-0.0606 -0.48202,-0.1857 -0.56396,-0.21198 -0.0568,-0.0376 -0.13112,-0.0842 -0.17254,-0.0853 z"
           id="path2846"
           inkscape:connector-curvature="0"
           sodipodi:nodetypes="cccccccccsccccccccccccccccsscssscsccccccc" />
        <path
           style="fill:#686c81;fill-opacity:1;stroke:none;stroke-width:0.2035455px;stroke-linecap:butt;stroke-linejoin:miter;stroke-opacity:1"
           d="m 284.773,205.09478 -1.03385,2.13221 c 0.0723,0.0294 0.1391,0.0391 0.17554,0.0464 0.0311,0.006 0.0532,1.1e-4 0.0978,0.009 0.0422,0.0178 0.0936,0.0381 0.16665,0.0639 0.0243,0.0121 0.0508,0.026 0.0811,0.0427 0.10284,0.057 0.16454,0.0859 0.21547,0.10894 0.0121,0.0128 0.0218,0.0242 0.0362,0.035 0.0451,0.0338 0.14023,0.11525 0.27509,0.13999 l 0.96276,-2.11453 c -0.13521,-0.0773 -0.30883,-0.17212 -0.37504,-0.18702 -0.0335,-0.008 -0.10159,-0.0301 -0.17763,-0.0566 -0.10312,-0.0556 -0.20183,-0.11084 -0.23984,-0.13799 -0.0301,-0.0215 -0.10339,-0.0514 -0.18423,-0.0819 z"
           id="path2853"
           inkscape:connector-curvature="0" />
      </g>
    </g>
  </g>
</svg>
