<?xml version="1.0" encoding="UTF-8" standalone="no"?>
<!-- Created with Inkscape (http://www.inkscape.org/) -->

<svg
   xmlns:dc="http://purl.org/dc/elements/1.1/"
   xmlns:cc="http://creativecommons.org/ns#"
   xmlns:rdf="http://www.w3.org/1999/02/22-rdf-syntax-ns#"
   xmlns:svg="http://www.w3.org/2000/svg"
   xmlns="http://www.w3.org/2000/svg"
   xmlns:sodipodi="http://sodipodi.sourceforge.net/DTD/sodipodi-0.dtd"
   xmlns:inkscape="http://www.inkscape.org/namespaces/inkscape"
   width="128"
   height="128"
   viewBox="0 0 33.866666 33.866668"
   version="1.1"
   id="svg8"
   inkscape:version="0.92.2 5c3e80d, 2017-08-06"
   sodipodi:docname="lig.svg">
  <defs
     id="defs2" />
  <sodipodi:namedview
     id="base"
     pagecolor="#ffffff"
     bordercolor="#666666"
     borderopacity="1.0"
     inkscape:pageopacity="0.0"
     inkscape:pageshadow="2"
     inkscape:zoom="3.959798"
     inkscape:cx="58.832816"
     inkscape:cy="63.623836"
     inkscape:document-units="mm"
     inkscape:current-layer="layer1"
     showgrid="false"
     inkscape:window-width="1600"
     inkscape:window-height="803"
     inkscape:window-x="0"
     inkscape:window-y="0"
     inkscape:window-maximized="1"
     units="px" />
  <metadata
     id="metadata5">
    <rdf:RDF>
      <cc:Work
         rdf:about="">
        <dc:format>image/svg+xml</dc:format>
        <dc:type
           rdf:resource="http://purl.org/dc/dcmitype/StillImage" />
        <dc:title></dc:title>
      </cc:Work>
    </rdf:RDF>
  </metadata>
  <g
     inkscape:label="Layer 1"
     inkscape:groupmode="layer"
     id="layer1"
     transform="translate(0,-263.13332)">
    <g
       id="g1034"
       transform="translate(-98.294069,74.528458)">
      <path
         id="path4"
         d="m 100.67532,191.38299 h 29.10417 v 28.31042 h -29.10417 z"
         class="st0"
         inkscape:connector-curvature="0"
         style="fill:#001d26;stroke-width:0.13229166" />
      <path
         sodipodi:nodetypes="cccccccccc"
         id="path6"
         d="m 99.352404,190.06007 v 30.95625 H 131.1024 v -30.95625 z m 1.322916,1.32291 h 29.10417 v 28.31042 h -29.10417 z"
         class="st1"
         inkscape:connector-curvature="0"
         style="fill:#22dfe6;fill-opacity:1;stroke-width:0.13229166" />
      <path
         sodipodi:nodetypes="cscsccssccccccccccccscccccc"
         inkscape:connector-curvature="0"
         id="path1007"
         d="m 107.54681,198.23329 v 7.27981 c 0,4.00388 0.0113,7.29114 0.0251,7.3049 0.0137,0.0138 1.81393,0.0251 4.00005,0.0251 3.15477,0 3.97495,-0.01 3.97497,-0.0472 2e-5,-0.0258 0.0591,-0.49246 0.13136,-1.03717 0.0723,-0.5447 0.13137,-1.02194 0.13137,-1.06078 0,-0.0685 -0.0846,-0.0708 -2.79807,-0.0708 h -2.79807 v -6.19689 -6.19689 h -1.33336 z m 14.80711,3.56807 c -1.94982,5e-4 -4.01277,0.38369 -4.50683,0.83692 l -0.0846,0.0772 v 5.06379 5.06379 h 1.18329 1.18279 v -4.42958 c 0,-2.58865 0.0142,-4.43804 0.034,-4.45025 0.0747,-0.0462 0.78901,-0.0956 1.74074,-0.12005 l 1.00469,-0.0256 v -1.00814 -1.00813 z"
         style="fill:#1fdee4;fill-opacity:1;stroke-width:0.03755693" />
    </g>
  </g>
  <style
     id="style2"
     type="text/css">
	.st0{fill:#001D26;}
	.st1{fill:#00C8FF;}
</style>
</svg>
