<?xml version="1.0" encoding="UTF-8" standalone="no"?>
<!-- Created with Inkscape (http://www.inkscape.org/) -->

<svg
   xmlns:osb="http://www.openswatchbook.org/uri/2009/osb"
   xmlns:dc="http://purl.org/dc/elements/1.1/"
   xmlns:cc="http://creativecommons.org/ns#"
   xmlns:rdf="http://www.w3.org/1999/02/22-rdf-syntax-ns#"
   xmlns:svg="http://www.w3.org/2000/svg"
   xmlns="http://www.w3.org/2000/svg"
   xmlns:xlink="http://www.w3.org/1999/xlink"
   xmlns:sodipodi="http://sodipodi.sourceforge.net/DTD/sodipodi-0.dtd"
   xmlns:inkscape="http://www.inkscape.org/namespaces/inkscape"
   width="128"
   height="128"
   viewBox="0 0 33.866666 33.866668"
   version="1.1"
   id="svg8"
   inkscape:version="0.92.2 5c3e80d, 2017-08-06"
   sodipodi:docname="linconnect.svg">
  <defs
     id="defs2">
    <linearGradient
       inkscape:collect="always"
       id="linearGradient1897">
      <stop
         style="stop-color:#f05134;stop-opacity:1"
         offset="0"
         id="stop1893" />
      <stop
         style="stop-color:#fe7758;stop-opacity:1"
         offset="1"
         id="stop1895" />
    </linearGradient>
    <linearGradient
       inkscape:collect="always"
       xlink:href="#linearGradient1897"
       id="linearGradient1899"
       x1="56.5084"
       y1="134.32802"
       x2="55.37384"
       y2="44.369682"
       gradientUnits="userSpaceOnUse"
       gradientTransform="matrix(0.25725995,0,0,0.25725995,6.2369726,257.54785)" />
    <linearGradient
       id="linearGradient6987"
       osb:paint="solid">
      <stop
         style="stop-color:#77d2fb;stop-opacity:1;"
         offset="0"
         id="stop6985" />
    </linearGradient>
  </defs>
  <sodipodi:namedview
     id="base"
     pagecolor="#ffffff"
     bordercolor="#666666"
     borderopacity="1.0"
     inkscape:pageopacity="0.0"
     inkscape:pageshadow="2"
     inkscape:zoom="0.9899495"
     inkscape:cx="-43.103512"
     inkscape:cy="97.681448"
     inkscape:document-units="mm"
     inkscape:current-layer="layer1"
     showgrid="false"
     inkscape:window-width="1600"
     inkscape:window-height="803"
     inkscape:window-x="0"
     inkscape:window-y="0"
     inkscape:window-maximized="1"
     units="px" />
  <metadata
     id="metadata5">
    <rdf:RDF>
      <cc:Work
         rdf:about="">
        <dc:format>image/svg+xml</dc:format>
        <dc:type
           rdf:resource="http://purl.org/dc/dcmitype/StillImage" />
        <dc:title />
      </cc:Work>
    </rdf:RDF>
  </metadata>
  <g
     inkscape:label="Layer 1"
     inkscape:groupmode="layer"
     id="layer1"
     transform="translate(0,-263.13332)">
    <rect
       ry="1.351293"
       y="266.55972"
       x="1.1578676"
       height="27.640106"
       width="31.55093"
       id="rect1911"
       style="opacity:0.25;fill:#000000;fill-opacity:1;stroke:none;stroke-width:0.05130019;stroke-miterlimit:4;stroke-dasharray:none;stroke-dashoffset:0;stroke-opacity:1" />
    <rect
       style="opacity:1;fill:url(#linearGradient1899);fill-opacity:1;stroke:#a63824;stroke-width:0.19906917;stroke-miterlimit:4;stroke-dasharray:none;stroke-dashoffset:0;stroke-opacity:1"
       id="rect1860"
       width="31.55093"
       height="27.640106"
       x="1.1578676"
       y="266.03302"
       ry="1.351293" />
    <g
       id="g1178"
       transform="matrix(0.05012282,0,0,0.04657828,-105.07905,303.7654)" />
    <g
       id="g1180"
       transform="matrix(0.05012282,0,0,0.04657828,-105.07905,303.7654)" />
    <g
       id="g1182"
       transform="matrix(0.05012282,0,0,0.04657828,-105.07905,303.7654)" />
    <g
       id="g1184"
       transform="matrix(0.05012282,0,0,0.04657828,-105.07905,303.7654)" />
    <g
       id="g1186"
       transform="matrix(0.05012282,0,0,0.04657828,-105.07905,303.7654)" />
    <g
       id="g1188"
       transform="matrix(0.05012282,0,0,0.04657828,-105.07905,303.7654)" />
    <g
       id="g1190"
       transform="matrix(0.05012282,0,0,0.04657828,-105.07905,303.7654)" />
    <g
       id="g1192"
       transform="matrix(0.05012282,0,0,0.04657828,-105.07905,303.7654)" />
    <g
       id="g1194"
       transform="matrix(0.05012282,0,0,0.04657828,-105.07905,303.7654)" />
    <g
       id="g1196"
       transform="matrix(0.05012282,0,0,0.04657828,-105.07905,303.7654)" />
    <g
       id="g1198"
       transform="matrix(0.05012282,0,0,0.04657828,-105.07905,303.7654)" />
    <g
       id="g1200"
       transform="matrix(0.05012282,0,0,0.04657828,-105.07905,303.7654)" />
    <g
       id="g1202"
       transform="matrix(0.05012282,0,0,0.04657828,-105.07905,303.7654)" />
    <g
       id="g1204"
       transform="matrix(0.05012282,0,0,0.04657828,-105.07905,303.7654)" />
    <g
       id="g1206"
       transform="matrix(0.05012282,0,0,0.04657828,-105.07905,303.7654)" />
    <g
       transform="matrix(0.95161159,0,0,0.95161159,-25.922414,13.235027)"
       id="g1015"
       style="fill:#000000;opacity:0.25">
      <path
         style="opacity:1;fill:#000000;fill-opacity:1;stroke:none;stroke-width:0.21854451;stroke-miterlimit:4;stroke-dasharray:none;stroke-dashoffset:0;stroke-opacity:1"
         d="m 36.302137,271.94365 c -0.668916,0 -1.207285,0.53837 -1.207285,1.20728 v 12.1361 c 0,0.66892 0.538369,1.20727 1.207285,1.20727 h 17.465554 c 0.668917,0 1.207286,-0.53835 1.207286,-1.20727 v -12.1361 c 0,-0.66891 -0.538369,-1.20728 -1.207286,-1.20728 z m 1.451228,1.20954 h 14.561968 c 0.557735,0 1.00739,0.44851 1.00739,1.00626 v 10.11906 c 0,0.55772 -0.449655,1.0074 -1.00739,1.0074 H 37.753365 c -0.557741,0 -1.006263,-0.44968 -1.006263,-1.0074 v -10.11906 c 0,-0.55775 0.448522,-1.00626 1.006263,-1.00626 z"
         id="path1011"
         inkscape:connector-curvature="0" />
      <rect
         style="opacity:1;fill:#000000;fill-opacity:1;stroke:none;stroke-width:0.21854451;stroke-miterlimit:4;stroke-dasharray:none;stroke-dashoffset:0;stroke-opacity:1"
         id="rect1013"
         width="18.611855"
         height="1.2648833"
         x="35.728985"
         y="288.25418"
         ry="0.63244164" />
    </g>
    <g
       id="g1009"
       transform="matrix(0.95161159,0,0,0.95161159,-25.922414,12.70586)">
      <path
         inkscape:connector-curvature="0"
         id="rect970"
         d="m 36.302137,271.94365 c -0.668916,0 -1.207285,0.53837 -1.207285,1.20728 v 12.1361 c 0,0.66892 0.538369,1.20727 1.207285,1.20727 h 17.465554 c 0.668917,0 1.207286,-0.53835 1.207286,-1.20727 v -12.1361 c 0,-0.66891 -0.538369,-1.20728 -1.207286,-1.20728 z m 1.451228,1.20954 h 14.561968 c 0.557735,0 1.00739,0.44851 1.00739,1.00626 v 10.11906 c 0,0.55772 -0.449655,1.0074 -1.00739,1.0074 H 37.753365 c -0.557741,0 -1.006263,-0.44968 -1.006263,-1.0074 v -10.11906 c 0,-0.55775 0.448522,-1.00626 1.006263,-1.00626 z"
         style="opacity:1;fill:#ffffff;fill-opacity:1;stroke:none;stroke-width:0.21854451;stroke-miterlimit:4;stroke-dasharray:none;stroke-dashoffset:0;stroke-opacity:1" />
      <rect
         ry="0.63244164"
         y="288.25418"
         x="35.728985"
         height="1.2648833"
         width="18.611855"
         id="rect975"
         style="opacity:1;fill:#ffffff;fill-opacity:1;stroke:none;stroke-width:0.21854451;stroke-miterlimit:4;stroke-dasharray:none;stroke-dashoffset:0;stroke-opacity:1" />
    </g>
  </g>
</svg>
