<?xml version="1.0" encoding="UTF-8" standalone="no"?>
<!-- Created with Inkscape (http://www.inkscape.org/) -->

<svg
   xmlns:dc="http://purl.org/dc/elements/1.1/"
   xmlns:cc="http://creativecommons.org/ns#"
   xmlns:rdf="http://www.w3.org/1999/02/22-rdf-syntax-ns#"
   xmlns:svg="http://www.w3.org/2000/svg"
   xmlns="http://www.w3.org/2000/svg"
   xmlns:sodipodi="http://sodipodi.sourceforge.net/DTD/sodipodi-0.dtd"
   xmlns:inkscape="http://www.inkscape.org/namespaces/inkscape"
   width="128"
   height="128"
   viewBox="0 0 33.866666 33.866668"
   version="1.1"
   id="svg8"
   inkscape:version="0.92.2 5c3e80d, 2017-08-06"
   sodipodi:docname="dddd.svg">
  <defs
     id="defs2" />
  <sodipodi:namedview
     id="base"
     pagecolor="#ffffff"
     bordercolor="#666666"
     borderopacity="1.0"
     inkscape:pageopacity="0.0"
     inkscape:pageshadow="2"
     inkscape:zoom="3.959798"
     inkscape:cx="32.539524"
     inkscape:cy="63.765321"
     inkscape:document-units="mm"
     inkscape:current-layer="layer1"
     showgrid="false"
     units="px"
     inkscape:window-width="1600"
     inkscape:window-height="803"
     inkscape:window-x="0"
     inkscape:window-y="0"
     inkscape:window-maximized="1" />
  <metadata
     id="metadata5">
    <rdf:RDF>
      <cc:Work
         rdf:about="">
        <dc:format>image/svg+xml</dc:format>
        <dc:type
           rdf:resource="http://purl.org/dc/dcmitype/StillImage" />
        <dc:title></dc:title>
      </cc:Work>
    </rdf:RDF>
  </metadata>
  <g
     inkscape:label="Layer 1"
     inkscape:groupmode="layer"
     id="layer1"
     transform="translate(0,-263.13332)">
    <g
       id="g2506"
       transform="matrix(0.48850334,0,0,0.48850334,-4.7251363,232.85814)">
      <path
         id="path1208"
         d="m 76.517419,80.459571 c -0.0259,-0.279929 -0.0413,-0.591079 -0.0712,-0.859896 -0.0966,-0.860954 -0.21405,-1.666346 -0.35613,-2.420143 -0.10504,-0.556948 -0.23918,-1.056746 -0.37253,-1.558661 h -2.22012 v 4.8387 z"
         inkscape:connector-curvature="0"
         style="isolation:isolate;fill:#72b248;stroke-width:0.26458332" />
      <path
         id="path1210"
         d="m 54.145049,124.00284 h -4.83817 v -4.83817 h 4.83817 z"
         inkscape:connector-curvature="0"
         style="isolation:isolate;fill:#b8845b;stroke-width:0.26458332" />
      <path
         id="path1212"
         d="m 34.791839,124.00284 h -4.83817 v -4.83817 h 4.83817 z m -19.351892,-1.49066 c 0.17171,0.20664 0.32438,0.43418 0.51329,0.62283 0.31935,0.31882 0.68262,0.59664 1.0541,0.86704 h 3.271042 v -4.83791 h -4.838432 z"
         inkscape:connector-curvature="0"
         style="isolation:isolate;fill:#785439;stroke-width:0.26458332" />
      <path
         id="path1214"
         d="m 25.115229,124.00284 h -4.83817 v -4.83817 h 4.83817 z m 33.86746,-38.706156 h 4.83817 v 4.83817 h -4.83817 z"
         inkscape:connector-curvature="0"
         style="isolation:isolate;fill:#956b49;stroke-width:0.26458332" />
      <path
         id="path1216"
         d="m 25.116019,85.296684 h 4.83818 v 4.83817 h -4.83818 z"
         inkscape:connector-curvature="0"
         style="isolation:isolate;fill:#583c28;stroke-width:0.26458332" />
      <path
         id="path1218"
         d="m 39.631069,85.296684 h 4.83817 v 4.83817 h -4.83817 z"
         inkscape:connector-curvature="0"
         style="isolation:isolate;fill:#b8845b;stroke-width:0.26458332" />
      <path
         id="path1220"
         d="m 34.791839,85.296684 h 4.83817 v 4.83817 h -4.83817 z"
         inkscape:connector-curvature="0"
         style="isolation:isolate;fill:#785439;stroke-width:0.26458332" />
      <path
         id="path1222"
         d="m 12.191657,85.297477 c -0.0312,1.196182 -0.0878,2.283619 -0.0878,3.635375 v 1.202532 h 3.33613 v -4.837907 z"
         inkscape:connector-curvature="0"
         style="isolation:isolate;fill:#583c28;stroke-width:0.26458332" />
      <path
         id="path1224"
         d="m 39.631069,80.4601 h 4.83817 v 4.838171 h -4.83817 z"
         inkscape:connector-curvature="0"
         style="isolation:isolate;fill:#956b49;stroke-width:0.26458332" />
      <path
         id="path1226"
         d="m 15.440207,80.4601 h 4.838172 v 4.838171 h -4.838172 z"
         inkscape:connector-curvature="0"
         style="isolation:isolate;fill:#583c28;stroke-width:0.26458332" />
      <path
         id="path1228"
         d="m 34.791839,80.4601 h 4.83817 v 4.838171 h -4.83817 z"
         inkscape:connector-curvature="0"
         style="isolation:isolate;fill:#785439;stroke-width:0.26458332" />
      <path
         id="path1230"
         d="m 12.419987,80.459571 c -0.0574,0.615686 -0.118,1.221581 -0.15742,1.891771 -0.0516,0.87286 -0.0455,1.976702 -0.0709,2.946135 h 3.24829 v -4.837906 z"
         inkscape:connector-curvature="0"
         style="isolation:isolate;fill:#72b248;stroke-width:0.26458332" />
      <path
         id="path1232"
         d="m 13.220087,75.620871 c -0.13335,0.501915 -0.26749,1.001713 -0.37253,1.558661 -0.14235,0.753797 -0.25982,1.559189 -0.35613,2.420143 -0.0302,0.268817 -0.0452,0.579967 -0.0714,0.859896 h 3.01996 v -4.8387 z"
         inkscape:connector-curvature="0"
         style="isolation:isolate;fill:#60a036;stroke-width:0.26458332" />
      <path
         id="path1234"
         d="m 34.791839,75.620871 h 4.83817 v 4.838171 h -4.83817 z"
         inkscape:connector-curvature="0"
         style="isolation:isolate;fill:#583c28;stroke-width:0.26458332" />
      <path
         id="path1236"
         d="m 39.631069,75.620871 h 4.83817 v 4.838171 h -4.83817 z"
         inkscape:connector-curvature="0"
         style="isolation:isolate;fill:#9bca6b;stroke-width:0.26458332" />
      <path
         id="path1238"
         d="m 15.439947,71.030615 c -0.186,0.224102 -0.38973,0.42889 -0.55642,0.674952 a 10.451042,10.451042 0 0 0 -0.86043,1.547019 c -0.25426,0.559858 -0.47704,1.164696 -0.67177,1.817952 -0.0508,0.170656 -0.0847,0.373591 -0.13177,0.550862 h 2.22039 z"
         inkscape:connector-curvature="0"
         style="isolation:isolate;fill:#72b248;stroke-width:0.26458332" />
      <path
         id="path1240"
         d="m 15.644207,70.782965 c -0.0709,0.07937 -0.136,0.165365 -0.20426,0.24765 V 75.6214 h 4.838432 v -4.838435 z"
         inkscape:connector-curvature="0"
         style="isolation:isolate;fill:#56962c;stroke-width:0.26458332" />
      <path
         id="path1242"
         d="m 20.279439,70.784288 h 4.83817 v 4.838171 h -4.83817 z"
         inkscape:connector-curvature="0"
         style="isolation:isolate;fill:#60a036;stroke-width:0.26458332" />
      <path
         id="path1244"
         d="m 25.116019,70.784288 h 4.83818 v 4.838171 h -4.83818 z m 29.03009,4.836583 h 4.83817 v 4.838171 h -4.83817 z"
         inkscape:connector-curvature="0"
         style="isolation:isolate;fill:#72b248;stroke-width:0.26458332" />
      <path
         id="path1246"
         d="m 20.279439,75.620871 h 4.83817 v 4.838171 h -4.83817 z"
         inkscape:connector-curvature="0"
         style="isolation:isolate;fill:#72b248;stroke-width:0.26458332" />
      <path
         id="path1248"
         d="m 54.146109,80.4601 h 4.83817 v 4.838171 h -4.83817 z"
         inkscape:connector-curvature="0"
         style="isolation:isolate;fill:#56962c;stroke-width:0.26458332" />
      <path
         id="path1250"
         d="m 15.440207,75.620871 h 4.838172 v 4.838171 h -4.838172 z"
         inkscape:connector-curvature="0"
         style="isolation:isolate;fill:#60a036;stroke-width:0.26458332" />
      <path
         id="path1252"
         d="m 25.116549,66.956825 c -0.8464,0.09552 -1.64147,0.209815 -2.38389,0.349515 -0.75459,0.141817 -1.45706,0.308769 -2.11111,0.503238 -0.1233,0.03678 -0.22305,0.08784 -0.34317,0.126735 v 2.846652 h 4.83817 z"
         inkscape:connector-curvature="0"
         style="isolation:isolate;fill:#56962c;stroke-width:0.26458332" />
      <path
         id="path1254"
         d="m 29.954459,66.673192 c -0.65193,0.02275 -1.4388,0.01349 -2.04444,0.04921 -0.97578,0.05715 -1.89309,0.132556 -2.75484,0.228865 -0.0138,0.0016 -0.0249,0.0042 -0.0386,0.0056 v 3.826139 h 4.83791 z"
         inkscape:connector-curvature="0"
         style="isolation:isolate;fill:#60a036;stroke-width:0.26458332" />
      <path
         id="path1256"
         d="m 20.278379,67.936313 c -0.515932,0.166423 -1.022082,0.338137 -1.476902,0.543983 a 10.482527,10.482527 0 0 0 -1.54914,0.859367 8.8185624,8.8185624 0 0 0 -1.2991,1.068123 c -0.11377,0.113771 -0.20161,0.255058 -0.30903,0.375179 h 4.634172 z"
         inkscape:connector-curvature="0"
         style="isolation:isolate;fill:#72b248;stroke-width:0.26458332" />
      <path
         id="path1258"
         d="m 44.467649,90.135913 h 4.83817 v 4.838171 h -4.83817 z"
         inkscape:connector-curvature="0"
         style="isolation:isolate;fill:#b8845b;stroke-width:0.26458332" />
      <path
         id="path1260"
         d="m 29.955249,90.135913 h 4.83817 v 4.838171 h -4.83817 z m -14.515042,0 h 4.838172 v 4.838171 h -4.838172 z"
         inkscape:connector-curvature="0"
         style="isolation:isolate;fill:#785439;stroke-width:0.26458332" />
      <path
         id="path1262"
         d="m 20.279439,90.135913 h 4.83817 v 4.838171 h -4.83817 z"
         inkscape:connector-curvature="0"
         style="isolation:isolate;fill:#956b49;stroke-width:0.26458332" />
      <path
         id="path1264"
         d="m 44.467649,85.296684 h 4.83817 v 4.83817 h -4.83817 z"
         inkscape:connector-curvature="0"
         style="isolation:isolate;fill:#b8845b;stroke-width:0.26458332" />
      <path
         id="path1266"
         d="m 29.955249,85.296684 h 4.83817 v 4.83817 h -4.83817 z m -14.515042,0 h 4.838172 v 4.83817 h -4.838172 z"
         inkscape:connector-curvature="0"
         style="isolation:isolate;fill:#785439;stroke-width:0.26458332" />
      <path
         id="path1268"
         d="m 20.279439,85.296684 h 4.83817 v 4.83817 h -4.83817 z m 9.67581,-4.836584 h 4.83817 v 4.838171 h -4.83817 z"
         inkscape:connector-curvature="0"
         style="isolation:isolate;fill:#583c28;stroke-width:0.26458332" />
      <path
         id="path1270"
         d="m 44.467649,80.4601 h 4.83817 v 4.838171 h -4.83817 z"
         inkscape:connector-curvature="0"
         style="isolation:isolate;fill:#6b6b6b;stroke-width:0.26458332" />
      <path
         id="path1272"
         d="m 44.467649,75.620871 h 4.83817 v 4.838171 h -4.83817 z"
         inkscape:connector-curvature="0"
         style="isolation:isolate;fill:#956b49;stroke-width:0.26458332" />
      <path
         id="path1274"
         d="m 29.955249,70.784288 h 4.83817 v 4.838171 h -4.83817 z"
         inkscape:connector-curvature="0"
         style="isolation:isolate;fill:#60a036;stroke-width:0.26458332" />
      <path
         id="path1276"
         d="m 20.279439,80.4601 h 4.83817 v 4.838171 h -4.83817 z"
         inkscape:connector-curvature="0"
         style="isolation:isolate;fill:#56962c;stroke-width:0.26458332" />
      <path
         id="path1278"
         d="m 29.955249,75.620871 h 4.83817 v 4.838171 h -4.83817 z"
         inkscape:connector-curvature="0"
         style="isolation:isolate;fill:#60a036;stroke-width:0.26458332" />
      <path
         id="path1280"
         d="m 34.792369,66.564184 h -0.29448 c -1.68937,0 -3.09484,0.05847 -4.54343,0.109008 v 4.109773 h 4.83791 z"
         inkscape:connector-curvature="0"
         style="isolation:isolate;fill:#56962c;stroke-width:0.26458332" />
      <path
         id="path1282"
         d="m 13.607177,119.16414 c 0.13414,0.38206 0.2585,0.7792 0.41592,1.12607 a 10.451042,10.451042 0 0 0 0.86043,1.54702 c 0.16669,0.24606 0.37042,0.45085 0.55642,0.67495 v -3.34804 z"
         inkscape:connector-curvature="0"
         style="isolation:isolate;fill:#956b49;stroke-width:0.26458332" />
      <path
         id="path1284"
         d="m 34.791839,119.16335 h 4.83817 v 4.83817 h -4.83817 z"
         inkscape:connector-curvature="0"
         style="isolation:isolate;fill:#b8845b;stroke-width:0.26458332" />
      <path
         id="path1286"
         d="m 25.116019,119.16335 h 4.83818 v 4.83817 h -4.83818 z"
         inkscape:connector-curvature="0"
         style="isolation:isolate;fill:#785439;stroke-width:0.26458332" />
      <path
         id="path1288"
         d="m 58.982689,119.16335 h 4.83817 v 4.83817 h -4.83817 z"
         inkscape:connector-curvature="0"
         style="isolation:isolate;fill:#583c28;stroke-width:0.26458332" />
      <path
         id="path1290"
         d="m 12.103817,90.135384 v 4.838435 h 3.33613 v -4.838435 z"
         inkscape:connector-curvature="0"
         style="isolation:isolate;fill:#956b49;stroke-width:0.26458332" />
      <path
         id="path1292"
         d="m 39.631329,94.97329 h -4.83817 v -4.838171 h 4.83817 z"
         inkscape:connector-curvature="0"
         style="isolation:isolate;fill:#b8845b;stroke-width:0.26458332" />
      <path
         id="path1294"
         d="m 44.468439,94.97329 h -4.83817 v -4.838171 h 4.83817 z m -14.51372,0 h -4.83817 v -4.838171 h 4.83817 z"
         inkscape:connector-curvature="0"
         style="isolation:isolate;fill:#785439;stroke-width:0.26458332" />
      <path
         id="path1296"
         d="m 63.821389,94.97329 h -4.83817 v -4.838171 h 4.83817 z"
         inkscape:connector-curvature="0"
         style="isolation:isolate;fill:#583c28;stroke-width:0.26458332" />
      <path
         id="path1298"
         d="m 20.278379,125.60701 c 0.12012,0.0389 0.21987,0.09 0.34317,0.12674 0.65405,0.19447 1.35652,0.36089 2.11111,0.50271 0.74242,0.1397 1.53749,0.25452 2.38389,0.34977 v -2.58418 h -4.83817 z"
         inkscape:connector-curvature="0"
         style="isolation:isolate;fill:#956b49;stroke-width:0.26458332" />
      <path
         id="path1300"
         d="m 17.007337,124.00205 c 0.0865,0.0627 0.15557,0.14102 0.245,0.20161 a 10.505017,10.505017 0 0 0 1.54914,0.85884 c 0.45482,0.20585 0.96097,0.37809 1.476902,0.54451 v -1.60496 z"
         inkscape:connector-curvature="0"
         style="isolation:isolate;fill:#583c28;stroke-width:0.26458332" />
      <path
         id="path1302"
         d="m 29.954459,126.8696 c 1.44859,0.0505 2.85406,0.10901 4.54343,0.10901 h 0.29448 v -2.97656 h -4.83791 z"
         inkscape:connector-curvature="0"
         style="isolation:isolate;fill:#b8845b;stroke-width:0.26458332" />
      <path
         id="path1304"
         d="m 49.306609,126.97861 h 4.83844 v -2.97656 h -4.83844 z"
         inkscape:connector-curvature="0"
         style="isolation:isolate;fill:#785439;stroke-width:0.26458332" />
      <path
         id="path1306"
         d="m 34.792369,126.97861 h 4.83843 v -2.97656 h -4.83843 z"
         inkscape:connector-curvature="0"
         style="isolation:isolate;fill:#956b49;stroke-width:0.26458332" />
      <path
         id="path1308"
         d="m 25.116549,126.58623 c 0.0138,0.002 0.0249,0.004 0.0386,0.006 0.86175,0.0963 1.77906,0.17119 2.75484,0.22834 0.60564,0.0357 1.39251,0.0265 2.04444,0.0492 v -2.86755 h -4.83791 z"
         inkscape:connector-curvature="0"
         style="isolation:isolate;fill:#785439;stroke-width:0.26458332" />
      <path
         id="path1310"
         d="m 58.983219,126.8696 c 0.65167,-0.0228 1.43854,-0.0135 2.04417,-0.0492 0.97605,-0.0572 1.89309,-0.13202 2.75484,-0.22833 0.0138,-0.002 0.0251,-0.004 0.0389,-0.006 v -2.58419 h -4.83791 z"
         inkscape:connector-curvature="0"
         style="isolation:isolate;fill:#583c28;stroke-width:0.26458332" />
      <path
         id="path1312"
         d="m 68.658499,124.00284 h -4.83817 v -4.83817 h 4.83817 z"
         inkscape:connector-curvature="0"
         style="isolation:isolate;fill:#b8845b;stroke-width:0.26458332" />
      <path
         id="path1314"
         d="m 58.981899,124.00284 h -4.83817 v -4.83817 h 4.83817 z"
         inkscape:connector-curvature="0"
         style="isolation:isolate;fill:#785439;stroke-width:0.26458332" />
      <path
         id="path1316"
         d="m 44.468439,124.00284 h -4.83817 v -4.83817 h 4.83817 z m 4.83844,-38.706156 h 4.83817 v 4.83817 h -4.83817 z"
         inkscape:connector-curvature="0"
         style="isolation:isolate;fill:#956b49;stroke-width:0.26458332" />
      <path
         id="path1318"
         d="m 68.658499,85.296684 h 4.83817 v 4.83817 h -4.83817 z"
         inkscape:connector-curvature="0"
         style="isolation:isolate;fill:#583c28;stroke-width:0.26458332" />
      <path
         id="path1320"
         d="m 76.833599,90.135384 v -1.202532 c 0,-1.351756 -0.0564,-2.439193 -0.0878,-3.635375 h -3.24829 v 4.837907 z"
         inkscape:connector-curvature="0"
         style="isolation:isolate;fill:#b8845b;stroke-width:0.26458332" />
      <path
         id="path1322"
         d="m 49.306879,80.4601 h 4.83817 v 4.838171 h -4.83817 z"
         inkscape:connector-curvature="0"
         style="isolation:isolate;fill:#9bca6b;stroke-width:0.26458332" />
      <path
         id="path1324"
         d="m 68.658499,80.4601 h 4.83817 v 4.838171 h -4.83817 z"
         inkscape:connector-curvature="0"
         style="isolation:isolate;fill:#785439;stroke-width:0.26458332" />
      <path
         id="path1326"
         d="m 68.658499,75.620871 h 4.83817 v 4.838171 h -4.83817 z"
         inkscape:connector-curvature="0"
         style="isolation:isolate;fill:#583c28;stroke-width:0.26458332" />
      <path
         id="path1328"
         d="m 39.631069,70.784288 h 4.83817 v 4.838171 h -4.83817 z"
         inkscape:connector-curvature="0"
         style="isolation:isolate;fill:#72b248;stroke-width:0.26458332" />
      <path
         id="path1330"
         d="m 44.467649,70.784288 h 4.83817 v 4.838171 h -4.83817 z"
         inkscape:connector-curvature="0"
         style="isolation:isolate;fill:#56962c;stroke-width:0.26458332" />
      <path
         id="path1332"
         d="m 49.306879,70.784288 h 4.83817 v 4.838171 h -4.83817 z"
         inkscape:connector-curvature="0"
         style="isolation:isolate;fill:#60a036;stroke-width:0.26458332" />
      <path
         id="path1334"
         d="m 75.718119,75.6214 c -0.0471,-0.177271 -0.081,-0.380206 -0.13177,-0.550862 -0.19499,-0.653256 -0.41777,-1.258094 -0.67177,-1.817952 a 10.475119,10.475119 0 0 0 -0.86043,-1.547019 c -0.16695,-0.246062 -0.37068,-0.45085 -0.55668,-0.674952 V 75.6214 Z"
         inkscape:connector-curvature="0"
         style="isolation:isolate;fill:#72b248;stroke-width:0.26458332" />
      <path
         id="path1336"
         d="m 73.497469,70.979815 c -0.0198,-0.02355 -0.0347,-0.05345 -0.0548,-0.07699 -0.0378,-0.04418 -0.0876,-0.07646 -0.12621,-0.119856 h -4.65746 v 4.838435 h 4.83844 z"
         inkscape:connector-curvature="0"
         style="isolation:isolate;fill:#56962c;stroke-width:0.26458332" />
      <path
         id="path1338"
         d="m 49.306879,75.620871 h 4.83817 v 4.838171 h -4.83817 z"
         inkscape:connector-curvature="0"
         style="isolation:isolate;fill:#72b248;stroke-width:0.26458332" />
      <path
         id="path1340"
         d="m 76.745759,85.297477 c -0.0251,-0.969433 -0.0193,-2.073275 -0.0707,-2.946135 -0.0394,-0.67019 -0.10027,-1.276085 -0.15769,-1.891771 h -3.01995 v 4.837906 z M 54.145049,66.564184 h -4.83844 v 4.218781 h 4.83844 z"
         inkscape:connector-curvature="0"
         style="isolation:isolate;fill:#56962c;stroke-width:0.26458332" />
      <path
         id="path1342"
         d="m 68.659029,67.936313 c -0.11985,-0.03889 -0.21987,-0.08996 -0.34316,-0.126735 -0.65405,-0.194469 -1.35652,-0.361421 -2.11085,-0.503238 -0.74242,-0.1397 -1.53776,-0.254 -2.38389,-0.349515 v 3.82614 h 4.8379 z"
         inkscape:connector-curvature="0"
         style="isolation:isolate;fill:#60a036;stroke-width:0.26458332" />
      <path
         id="path1344"
         d="m 73.293469,70.782965 c -0.10768,-0.120121 -0.19526,-0.261408 -0.30903,-0.375179 a 8.8071853,8.8071853 0 0 0 -1.29937,-1.068123 10.482527,10.482527 0 0 0 -1.54913,-0.859367 c -0.45482,-0.205846 -0.96097,-0.37756 -1.47691,-0.543983 v 2.846652 z m -23.98686,-4.218781 h -4.8379 v 4.218781 h 4.8379 z"
         inkscape:connector-curvature="0"
         style="isolation:isolate;fill:#72b248;stroke-width:0.26458332" />
      <path
         id="path1346"
         d="m 44.468709,66.564184 h -4.83791 v 4.218781 h 4.83791 z"
         inkscape:connector-curvature="0"
         style="isolation:isolate;fill:#56962c;stroke-width:0.26458332" />
      <path
         id="path1348"
         d="m 63.821919,90.135913 h 4.83817 v 4.838171 h -4.83817 z"
         inkscape:connector-curvature="0"
         style="isolation:isolate;fill:#b8845b;stroke-width:0.26458332" />
      <path
         id="path1350"
         d="m 54.146109,90.135913 h 4.83817 v 4.838171 h -4.83817 z"
         inkscape:connector-curvature="0"
         style="isolation:isolate;fill:#785439;stroke-width:0.26458332" />
      <path
         id="path1352"
         d="m 63.821919,85.296684 h 4.83817 v 4.83817 h -4.83817 z"
         inkscape:connector-curvature="0"
         style="isolation:isolate;fill:#b8845b;stroke-width:0.26458332" />
      <path
         id="path1354"
         d="m 54.146109,85.296684 h 4.83817 v 4.83817 h -4.83817 z"
         inkscape:connector-curvature="0"
         style="isolation:isolate;fill:#785439;stroke-width:0.26458332" />
      <path
         id="path1356"
         d="m 25.116019,80.4601 h 4.83818 v 4.838171 h -4.83818 z"
         inkscape:connector-curvature="0"
         style="isolation:isolate;fill:#583c28;stroke-width:0.26458332" />
      <path
         id="path1358"
         d="m 58.982689,80.4601 h 4.83817 v 4.838171 h -4.83817 z"
         inkscape:connector-curvature="0"
         style="isolation:isolate;fill:#b8845b;stroke-width:0.26458332" />
      <path
         id="path1360"
         d="m 63.821919,70.784288 h 4.83817 v 4.838171 h -4.83817 z"
         inkscape:connector-curvature="0"
         style="isolation:isolate;fill:#60a036;stroke-width:0.26458332" />
      <path
         id="path1362"
         d="m 58.982689,70.784288 h 4.83817 v 4.838171 h -4.83817 z"
         inkscape:connector-curvature="0"
         style="isolation:isolate;fill:#72b248;stroke-width:0.26458332" />
      <path
         id="path1364"
         d="m 54.146109,70.784288 h 4.83817 v 4.838171 h -4.83817 z"
         inkscape:connector-curvature="0"
         style="isolation:isolate;fill:#72b248;stroke-width:0.26458332" />
      <path
         id="path1366"
         d="m 34.791839,70.784288 h 4.83817 v 4.838171 h -4.83817 z"
         inkscape:connector-curvature="0"
         style="isolation:isolate;fill:#56962c;stroke-width:0.26458332" />
      <path
         id="path1368"
         d="m 63.821919,75.620871 h 4.83817 v 4.838171 h -4.83817 z"
         inkscape:connector-curvature="0"
         style="isolation:isolate;fill:#72b248;stroke-width:0.26458332" />
      <path
         id="path1370"
         d="m 58.982689,75.620871 h 4.83817 v 4.838171 h -4.83817 z m 4.83923,4.839229 h 4.83817 v 4.838171 h -4.83817 z"
         inkscape:connector-curvature="0"
         style="isolation:isolate;fill:#56962c;stroke-width:0.26458332" />
      <path
         id="path1372"
         d="m 25.116019,75.620871 h 4.83818 v 4.838171 h -4.83818 z"
         inkscape:connector-curvature="0"
         style="isolation:isolate;fill:#60a036;stroke-width:0.26458332" />
      <path
         id="path1374"
         d="m 39.630799,66.564184 h -4.83843 v 4.218781 h 4.83843 z"
         inkscape:connector-curvature="0"
         style="isolation:isolate;fill:#72b248;stroke-width:0.26458332" />
      <path
         id="path1376"
         d="m 63.821129,66.956825 c -0.0138,-0.0013 -0.0251,-0.004 -0.0389,-0.0056 -0.91598,-0.100541 -1.83462,-0.176741 -2.75484,-0.228864 -0.60563,-0.03572 -1.3925,-0.02646 -2.04417,-0.04921 v 4.109773 h 4.83791 z"
         inkscape:connector-curvature="0"
         style="isolation:isolate;fill:#60a036;stroke-width:0.26458332" />
      <path
         id="path1378"
         d="m 58.983219,66.673192 c -1.44859,-0.05054 -2.85432,-0.109008 -4.54342,-0.109008 h -0.29475 v 4.218781 h 4.83817 z"
         inkscape:connector-curvature="0"
         style="isolation:isolate;fill:#72b248;stroke-width:0.26458332" />
      <path
         id="path1380"
         d="m 73.497469,122.51218 c 0.186,-0.2241 0.38973,-0.42889 0.55668,-0.67495 a 10.475119,10.475119 0 0 0 0.86043,-1.54702 c 0.15742,-0.34687 0.28178,-0.74401 0.41592,-1.12607 h -1.83303 z"
         inkscape:connector-curvature="0"
         style="isolation:isolate;fill:#6b6b6b;stroke-width:0.26458332" />
      <path
         id="path1382"
         d="m 71.930079,124.00205 c 0.37174,-0.2704 0.73474,-0.54822 1.05436,-0.86704 0.18891,-0.18865 0.34131,-0.41619 0.51303,-0.62283 v -3.34804 h -4.83844 v 4.83791 z"
         inkscape:connector-curvature="0"
         style="isolation:isolate;fill:#785439;stroke-width:0.26458332" />
      <path
         id="path1384"
         d="m 44.467649,119.16335 h 4.83817 v 4.83817 h -4.83817 z"
         inkscape:connector-curvature="0"
         style="isolation:isolate;fill:#583c28;stroke-width:0.26458332" />
      <path
         id="path1386"
         d="m 76.833599,94.973819 v -4.838435 h -3.33613 v 4.838435 z"
         inkscape:connector-curvature="0"
         style="isolation:isolate;fill:#785439;stroke-width:0.26458332" />
      <path
         id="path1388"
         d="m 73.497999,94.97329 h -4.83817 v -4.838171 h 4.83817 z"
         inkscape:connector-curvature="0"
         style="isolation:isolate;fill:#785439;stroke-width:0.26458332" />
      <path
         id="path1390"
         d="m 54.145049,94.97329 h -4.83817 v -4.838171 h 4.83817 z"
         inkscape:connector-curvature="0"
         style="isolation:isolate;fill:#583c28;stroke-width:0.26458332" />
      <path
         id="path1392"
         d="m 39.630799,126.97861 h 4.83791 v -2.97656 h -4.83791 z"
         inkscape:connector-curvature="0"
         style="isolation:isolate;fill:#956b49;stroke-width:0.26458332" />
      <path
         id="path1394"
         d="m 54.145049,126.97861 h 0.29475 c 1.6891,0 3.09483,-0.0585 4.54342,-0.10901 v -2.86755 h -4.83817 z"
         inkscape:connector-curvature="0"
         style="isolation:isolate;fill:#b8845b;stroke-width:0.26458332" />
      <path
         id="path1396"
         d="m 63.821129,126.58623 c 0.84613,-0.0953 1.64147,-0.21007 2.38389,-0.34977 0.75433,-0.14182 1.4568,-0.30824 2.11085,-0.50271 0.12329,-0.0368 0.22331,-0.0878 0.34316,-0.12674 v -1.60496 h -4.8379 z"
         inkscape:connector-curvature="0"
         style="isolation:isolate;fill:#785439;stroke-width:0.26458332" />
      <path
         id="path1398"
         d="m 68.659029,125.60701 c 0.51594,-0.16642 1.02209,-0.33866 1.47691,-0.54451 a 10.505017,10.505017 0 0 0 1.54913,-0.85884 c 0.0894,-0.0606 0.15875,-0.1389 0.24501,-0.20161 h -3.27105 z"
         inkscape:connector-curvature="0"
         style="isolation:isolate;fill:#785439;stroke-width:0.26458332" />
      <path
         id="path1400"
         d="m 44.468709,126.97861 h 4.8379 v -2.97656 h -4.8379 z"
         inkscape:connector-curvature="0"
         style="isolation:isolate;fill:#583c28;stroke-width:0.26458332" />
      <path
         id="path1402"
         d="m 44.467649,109.48754 h 4.83817 v 4.83817 h -4.83817 z"
         inkscape:connector-curvature="0"
         style="isolation:isolate;fill:#b8845b;stroke-width:0.26458332" />
      <path
         id="path1404"
         d="m 29.955249,109.48754 h 4.83817 v 4.83817 h -4.83817 z m -14.515042,0 h 4.838172 v 4.83817 h -4.838172 z"
         inkscape:connector-curvature="0"
         style="isolation:isolate;fill:#785439;stroke-width:0.26458332" />
      <path
         id="path1406"
         d="m 20.279439,109.48754 h 4.83817 v 4.83817 h -4.83817 z"
         inkscape:connector-curvature="0"
         style="isolation:isolate;fill:#956b49;stroke-width:0.26458332" />
      <path
         id="path1408"
         d="m 25.116019,114.32677 h 4.83818 v 4.83817 h -4.83818 z m -12.568232,-5.3e-4 c 0.0868,0.70987 0.17991,1.40255 0.29977,2.03702 0.14208,0.75354 0.30903,1.45548 0.50377,2.109 0.0741,0.24844 0.1733,0.45693 0.25585,0.69188 h 1.83277 v -4.8379 z"
         inkscape:connector-curvature="0"
         style="isolation:isolate;fill:#583c28;stroke-width:0.26458332" />
      <path
         id="path1410"
         d="m 12.221557,109.48754 c 0.0206,0.53684 0.0111,1.19909 0.041,1.70391 0.0574,0.97499 0.13255,1.89098 0.22886,2.75167 0.0151,0.13626 0.04,0.2495 0.0564,0.38312 h 2.89216 v -4.8387 z"
         inkscape:connector-curvature="0"
         style="isolation:isolate;fill:#956b49;stroke-width:0.26458332" />
      <path
         id="path1412"
         d="m 39.631329,114.32624 h -4.83817 v -4.83817 h 4.83817 z"
         inkscape:connector-curvature="0"
         style="isolation:isolate;fill:#b8845b;stroke-width:0.26458332" />
      <path
         id="path1414"
         d="m 44.468439,114.32624 h -4.83817 v -4.83817 h 4.83817 z m -14.51372,0 h -4.83817 v -4.83817 h 4.83817 z"
         inkscape:connector-curvature="0"
         style="isolation:isolate;fill:#785439;stroke-width:0.26458332" />
      <path
         id="path1416"
         d="m 34.791839,114.32677 h 4.83817 v 4.83817 h -4.83817 z"
         inkscape:connector-curvature="0"
         style="isolation:isolate;fill:#583c28;stroke-width:0.26458332" />
      <path
         id="path1418"
         d="m 20.279439,114.32677 h 4.83817 v 4.83817 h -4.83817 z"
         inkscape:connector-curvature="0"
         style="isolation:isolate;fill:#b8845b;stroke-width:0.26458332" />
      <path
         id="path1420"
         d="m 29.955249,114.32677 h 4.83817 v 4.83817 h -4.83817 z"
         inkscape:connector-curvature="0"
         style="isolation:isolate;fill:#6b6b6b;stroke-width:0.26458332" />
      <path
         id="path1422"
         d="m 15.440207,114.32677 h 4.838172 v 4.83817 h -4.838172 z"
         inkscape:connector-curvature="0"
         style="isolation:isolate;fill:#785439;stroke-width:0.26458332" />
      <path
         id="path1424"
         d="m 49.306879,114.32677 h 4.83817 v 4.83817 h -4.83817 z"
         inkscape:connector-curvature="0"
         style="isolation:isolate;fill:#583c28;stroke-width:0.26458332" />
      <path
         id="path1426"
         d="m 44.467649,114.32677 h 4.83817 v 4.83817 h -4.83817 z"
         inkscape:connector-curvature="0"
         style="isolation:isolate;fill:#956b49;stroke-width:0.26458332" />
      <path
         id="path1428"
         d="m 54.145049,114.32624 h -4.83817 v -4.83817 h 4.83817 z"
         inkscape:connector-curvature="0"
         style="isolation:isolate;fill:#583c28;stroke-width:0.26458332" />
      <path
         id="path1430"
         d="m 39.631069,114.32677 h 4.83817 v 4.83817 h -4.83817 z m 29.02743,-9.67582 h 4.83817 v 4.83817 h -4.83817 z"
         inkscape:connector-curvature="0"
         style="isolation:isolate;fill:#b8845b;stroke-width:0.26458332" />
      <path
         id="path1432"
         d="m 44.467649,104.65095 h 4.83817 v 4.83817 h -4.83817 z"
         inkscape:connector-curvature="0"
         style="isolation:isolate;fill:#583c28;stroke-width:0.26458332" />
      <path
         id="path1434"
         d="m 49.306879,104.65095 h 4.83817 v 4.83817 h -4.83817 z"
         inkscape:connector-curvature="0"
         style="isolation:isolate;fill:#785439;stroke-width:0.26458332" />
      <path
         id="path1436"
         d="m 63.821919,104.65095 h 4.83817 v 4.83817 h -4.83817 z"
         inkscape:connector-curvature="0"
         style="isolation:isolate;fill:#583c28;stroke-width:0.26458332" />
      <path
         id="path1438"
         d="m 58.982689,104.65095 h 4.83817 v 4.83817 h -4.83817 z"
         inkscape:connector-curvature="0"
         style="isolation:isolate;fill:#956b49;stroke-width:0.26458332" />
      <path
         id="path1440"
         d="m 76.715859,109.48754 c 0.0587,-1.524 0.11642,-3.04139 0.11695,-4.83791 h -3.33534 v 4.83791 z"
         inkscape:connector-curvature="0"
         style="isolation:isolate;fill:#583c28;stroke-width:0.26458332" />
      <path
         id="path1442"
         d="m 54.146109,104.65095 h 4.83817 v 4.83817 h -4.83817 z"
         inkscape:connector-curvature="0"
         style="isolation:isolate;fill:#b8845b;stroke-width:0.26458332" />
      <path
         id="path1444"
         d="m 12.104867,104.64963 c 2.7e-4,1.79652 0.058,3.31391 0.11669,4.83791 h 3.21839 v -4.83791 z"
         inkscape:connector-curvature="0"
         style="isolation:isolate;fill:#583c28;stroke-width:0.26458332" />
      <path
         id="path1446"
         d="m 15.440207,104.65095 h 4.838172 v 4.83817 h -4.838172 z"
         inkscape:connector-curvature="0"
         style="isolation:isolate;fill:#6b6b6b;stroke-width:0.26458332" />
      <path
         id="path1448"
         d="m 39.631069,104.65095 h 4.83817 v 4.83817 h -4.83817 z"
         inkscape:connector-curvature="0"
         style="isolation:isolate;fill:#583c28;stroke-width:0.26458332" />
      <path
         id="path1450"
         d="m 25.116019,104.65095 h 4.83818 v 4.83817 h -4.83818 z"
         inkscape:connector-curvature="0"
         style="isolation:isolate;fill:#785439;stroke-width:0.26458332" />
      <path
         id="path1452"
         d="m 20.279439,104.65095 h 4.83817 v 4.83817 h -4.83817 z m 9.67581,0 h 4.83817 v 4.83817 h -4.83817 z"
         inkscape:connector-curvature="0"
         style="isolation:isolate;fill:#583c28;stroke-width:0.26458332" />
      <path
         id="path1454"
         d="m 34.791839,104.65095 h 4.83817 v 4.83817 h -4.83817 z"
         inkscape:connector-curvature="0"
         style="isolation:isolate;fill:#785439;stroke-width:0.26458332" />
      <path
         id="path1456"
         d="m 63.821919,109.48754 h 4.83817 v 4.83817 h -4.83817 z m 11.50858,9.6766 c 0.0823,-0.23495 0.18151,-0.44344 0.25585,-0.69188 0.19474,-0.65352 0.36169,-1.35546 0.50377,-2.109 0.11959,-0.63447 0.21273,-1.32715 0.29977,-2.03702 h -2.89242 v 4.8379 z m -16.3486,-4.8379 h -4.83817 v -4.83817 h 4.83817 z"
         inkscape:connector-curvature="0"
         style="isolation:isolate;fill:#b8845b;stroke-width:0.26458332" />
      <path
         id="path1458"
         d="m 63.821389,114.32624 h -4.83817 v -4.83817 h 4.83817 z"
         inkscape:connector-curvature="0"
         style="isolation:isolate;fill:#785439;stroke-width:0.26458332" />
      <path
         id="path1460"
         d="m 54.146109,114.32677 h 4.83817 v 4.83817 h -4.83817 z m 14.51239,0 h 4.83817 v 4.83817 h -4.83817 z"
         inkscape:connector-curvature="0"
         style="isolation:isolate;fill:#583c28;stroke-width:0.26458332" />
      <path
         id="path1462"
         d="m 76.389889,114.32624 c 0.0161,-0.13362 0.041,-0.24686 0.0564,-0.38312 0.0963,-0.86069 0.17145,-1.77668 0.22886,-2.75167 0.0296,-0.50456 0.0201,-1.16681 0.0407,-1.70338 h -3.21839 v 4.83817 z m -12.56797,5.3e-4 h 4.83817 v 4.83817 h -4.83817 z"
         inkscape:connector-curvature="0"
         style="isolation:isolate;fill:#956b49;stroke-width:0.26458332" />
      <path
         id="path1464"
         d="m 73.497999,114.32624 h -4.83817 v -4.83817 h 4.83817 z"
         inkscape:connector-curvature="0"
         style="isolation:isolate;fill:#583c28;stroke-width:0.26458332" />
      <path
         id="path1466"
         d="m 58.982689,114.32677 h 4.83817 v 4.83817 h -4.83817 z"
         inkscape:connector-curvature="0"
         style="isolation:isolate;fill:#b8845b;stroke-width:0.26458332" />
      <path
         id="path1468"
         d="m 49.306879,99.811725 h 4.83817 v 4.838175 h -4.83817 z m -14.51504,0 h 4.83817 v 4.838175 h -4.83817 z"
         inkscape:connector-curvature="0"
         style="isolation:isolate;fill:#785439;stroke-width:0.26458332" />
      <path
         id="path1470"
         d="m 39.631069,99.811725 h 4.83817 v 4.838175 h -4.83817 z m -4.83923,4.838175 h -4.83817 v -4.838175 h 4.83817 z"
         inkscape:connector-curvature="0"
         style="isolation:isolate;fill:#956b49;stroke-width:0.26458332" />
      <path
         id="path1472"
         d="m 58.981899,104.6499 h -4.83817 v -4.838175 h 4.83817 z"
         inkscape:connector-curvature="0"
         style="isolation:isolate;fill:#b8845b;stroke-width:0.26458332" />
      <path
         id="path1474"
         d="m 63.821389,104.6499 h -4.83817 v -4.838175 h 4.83817 z m -14.51345,0 h -4.83817 v -4.838175 h 4.83817 z"
         inkscape:connector-curvature="0"
         style="isolation:isolate;fill:#785439;stroke-width:0.26458332" />
      <path
         id="path1476"
         d="m 29.955249,94.972496 h 4.83817 v 4.838171 h -4.83817 z"
         inkscape:connector-curvature="0"
         style="isolation:isolate;fill:#583c28;stroke-width:0.26458332" />
      <path
         id="path1478"
         d="m 34.791839,94.972496 h 4.83817 v 4.838171 h -4.83817 z"
         inkscape:connector-curvature="0"
         style="isolation:isolate;fill:#6b6b6b;stroke-width:0.26458332" />
      <path
         id="path1480"
         d="m 58.982689,94.972496 h 4.83817 v 4.838171 h -4.83817 z"
         inkscape:connector-curvature="0"
         style="isolation:isolate;fill:#583c28;stroke-width:0.26458332" />
      <path
         id="path1482"
         d="m 44.467649,94.972496 h 4.83817 v 4.838171 h -4.83817 z"
         inkscape:connector-curvature="0"
         style="isolation:isolate;fill:#785439;stroke-width:0.26458332" />
      <path
         id="path1484"
         d="m 39.631069,94.972496 h 4.83817 v 4.838171 h -4.83817 z m 9.67581,0 h 4.83817 v 4.838171 h -4.83817 z"
         inkscape:connector-curvature="0"
         style="isolation:isolate;fill:#583c28;stroke-width:0.26458332" />
      <path
         id="path1486"
         d="m 54.146109,94.972496 h 4.83817 v 4.838171 h -4.83817 z"
         inkscape:connector-curvature="0"
         style="isolation:isolate;fill:#785439;stroke-width:0.26458332" />
      <path
         id="path1488"
         d="m 68.658499,104.6499 h -4.83817 v -4.838175 h 4.83817 z"
         inkscape:connector-curvature="0"
         style="isolation:isolate;fill:#b8845b;stroke-width:0.26458332" />
      <path
         id="path1490"
         d="m 76.832809,104.64963 c 0,-0.0148 7.9e-4,-0.0249 7.9e-4,-0.0397 v -4.798218 h -3.33613 v 4.837908 z"
         inkscape:connector-curvature="0"
         style="isolation:isolate;fill:#6b6b6b;stroke-width:0.26458332" />
      <path
         id="path1492"
         d="m 68.658499,99.811725 h 4.83817 v 4.838175 h -4.83817 z"
         inkscape:connector-curvature="0"
         style="isolation:isolate;fill:#785439;stroke-width:0.26458332" />
      <path
         id="path1494"
         d="m 76.833599,99.811725 v -4.837906 h -3.33613 v 4.837906 z"
         inkscape:connector-curvature="0"
         style="isolation:isolate;fill:#b8845b;stroke-width:0.26458332" />
      <path
         id="path1496"
         d="m 68.658499,94.972496 h 4.83817 v 4.838171 h -4.83817 z"
         inkscape:connector-curvature="0"
         style="isolation:isolate;fill:#583c28;stroke-width:0.26458332" />
      <path
         id="path1498"
         d="m 63.821919,94.972496 h 4.83817 v 4.838171 h -4.83817 z"
         inkscape:connector-curvature="0"
         style="isolation:isolate;fill:#956b49;stroke-width:0.26458332" />
      <path
         id="path1500"
         d="m 15.440207,94.972496 h 4.838172 v 4.838171 h -4.838172 z"
         inkscape:connector-curvature="0"
         style="isolation:isolate;fill:#b8845b;stroke-width:0.26458332" />
      <path
         id="path1502"
         d="m 29.954719,99.813048 h -4.83817 v -4.838171 h 4.83817 z"
         inkscape:connector-curvature="0"
         style="isolation:isolate;fill:#6b6b6b;stroke-width:0.26458332" />
      <path
         id="path1504"
         d="m 25.115229,99.813048 h -4.83817 v -4.838171 h 4.83817 z"
         inkscape:connector-curvature="0"
         style="isolation:isolate;fill:#785439;stroke-width:0.26458332" />
      <path
         id="path1506"
         d="m 29.954719,104.6499 h -4.83817 v -4.838175 h 4.83817 z"
         inkscape:connector-curvature="0"
         style="isolation:isolate;fill:#b8845b;stroke-width:0.26458332" />
      <path
         id="path1508"
         d="m 25.115229,104.6499 h -4.83817 v -4.838175 h 4.83817 z"
         inkscape:connector-curvature="0"
         style="isolation:isolate;fill:#583c28;stroke-width:0.26458332" />
      <path
         id="path1510"
         d="m 20.278379,104.6499 h -4.838172 v -4.838175 h 4.838172 z m -8.174562,-9.676081 v 4.837906 h 3.33613 v -4.837906 z"
         inkscape:connector-curvature="0"
         style="isolation:isolate;fill:#956b49;stroke-width:0.26458332" />
      <path
         id="path1512"
         d="m 12.103817,99.811725 v 4.798215 c 0,0.0148 0.001,0.0249 0.001,0.0397 h 3.33508 v -4.837902 z"
         inkscape:connector-curvature="0"
         style="isolation:isolate;fill:#b8845b;stroke-width:0.26458332" />
      <g
         transform="matrix(0.26458333,0,0,0.26458333,10.336397,63.13783)"
         id="g1525"
         style="opacity:0.4;isolation:isolate">
        <linearGradient
           gradientUnits="userSpaceOnUse"
           gradientTransform="matrix(244.65,0,0,228.34,5.68,11.95)"
           y2="1"
           x2="0.51700002"
           x1="0.51700002"
           id="b">
          <stop
             id="stop1514"
             stop-color="#ffffff"
             offset="0%" />
          <stop
             id="stop1516"
             stop-opacity=".098"
             stop-color="#ffffff"
             offset="12.5%" />
          <stop
             id="stop1518"
             stop-opacity=".098"
             offset="92.5%" />
          <stop
             id="stop1520"
             stop-opacity=".498"
             offset="100%" />
        </linearGradient>
        <path
           id="path1523"
           d="m 165.068,11.951 c 4.328,-0.01 8.656,0.04 12.984,0.138 3.875,0.078 7.75,0.226 11.626,0.452 3.453,0.196 6.905,0.481 10.348,0.854 3.06,0.335 6.118,0.786 9.148,1.346 a 80.47,80.47 0 0 1 8.046,1.916 53.64,53.64 0 0 1 7.023,2.584 40.413,40.413 0 0 1 6.06,3.35 35.176,35.176 0 0 1 5.134,4.215 35.072,35.072 0 0 1 4.22,5.119 41.692,41.692 0 0 1 3.363,6.042 55.982,55.982 0 0 1 2.597,7.005 80.224,80.224 0 0 1 1.918,8.037 124.43,124.43 0 0 1 1.348,9.127 c 0.374,3.439 0.659,6.878 0.856,10.326 0.226,3.861 0.373,7.732 0.462,11.593 0.088,4.323 0.138,8.646 0.128,12.96 v 58.21 c 0.01,4.324 -0.04,8.637 -0.128,12.96 a 325.177,325.177 0 0 1 -0.462,11.593 200.984,200.984 0 0 1 -0.856,10.326 124.691,124.691 0 0 1 -1.348,9.137 80.687,80.687 0 0 1 -1.918,8.027 55.414,55.414 0 0 1 -2.597,7.005 41.18,41.18 0 0 1 -3.364,6.042 34.559,34.559 0 0 1 -4.22,5.119 35.177,35.177 0 0 1 -5.134,4.215 40.412,40.412 0 0 1 -6.059,3.35 55.138,55.138 0 0 1 -7.023,2.594 77.806,77.806 0 0 1 -8.046,1.906 120,120 0 0 1 -9.148,1.346 c -3.443,0.373 -6.895,0.658 -10.348,0.854 -3.875,0.226 -7.75,0.374 -11.626,0.462 -4.328,0.088 -8.656,0.138 -12.984,0.128 H 90.942 c -4.328,0.01 -8.656,-0.04 -12.984,-0.128 a 328.387,328.387 0 0 1 -11.626,-0.462 203.003,203.003 0 0 1 -10.348,-0.854 120,120 0 0 1 -9.148,-1.346 77.806,77.806 0 0 1 -8.046,-1.906 55.139,55.139 0 0 1 -7.023,-2.594 40.413,40.413 0 0 1 -6.06,-3.35 35.176,35.176 0 0 1 -5.134,-4.215 34.56,34.56 0 0 1 -4.22,-5.119 41.183,41.183 0 0 1 -3.363,-6.042 55.415,55.415 0 0 1 -2.597,-7.005 80.682,80.682 0 0 1 -1.918,-8.027 124.688,124.688 0 0 1 -1.348,-9.137 200.993,200.993 0 0 1 -0.856,-10.326 325.212,325.212 0 0 1 -0.462,-11.593 569.197,569.197 0 0 1 -0.128,-12.96 v -58.21 c -0.01,-4.314 0.04,-8.637 0.128,-12.96 0.089,-3.86 0.236,-7.732 0.462,-11.593 0.197,-3.448 0.482,-6.887 0.856,-10.326 0.335,-3.055 0.787,-6.101 1.348,-9.127 a 80.219,80.219 0 0 1 1.918,-8.037 55.983,55.983 0 0 1 2.597,-7.005 41.695,41.695 0 0 1 3.364,-6.042 35.072,35.072 0 0 1 4.22,-5.119 35.176,35.176 0 0 1 5.134,-4.215 40.413,40.413 0 0 1 6.059,-3.35 53.64,53.64 0 0 1 7.023,-2.584 80.47,80.47 0 0 1 8.046,-1.916 125.11,125.11 0 0 1 9.148,-1.346 c 3.443,-0.373 6.895,-0.658 10.348,-0.854 3.875,-0.226 7.75,-0.374 11.626,-0.452 4.328,-0.098 8.656,-0.148 12.984,-0.138 z m 0.01,4.009 c 4.298,-0.01 8.597,0.039 12.895,0.127 3.827,0.089 7.653,0.236 11.48,0.452 3.383,0.197 6.766,0.472 10.13,0.845 2.971,0.315 5.932,0.747 8.863,1.297 a 75.943,75.943 0 0 1 7.653,1.818 50.493,50.493 0 0 1 6.501,2.397 37.038,37.038 0 0 1 5.47,3.026 30.383,30.383 0 0 1 4.524,3.724 31.05,31.05 0 0 1 3.738,4.519 37.271,37.271 0 0 1 3.03,5.443 51.46,51.46 0 0 1 2.4,6.494 75.563,75.563 0 0 1 1.829,7.634 c 0.54,2.928 0.974,5.875 1.298,8.842 0.374,3.36 0.65,6.73 0.846,10.11 0.217,3.822 0.374,7.634 0.453,11.456 0.088,4.293 0.137,8.577 0.137,12.87 v 58.212 c 0,4.293 -0.049,8.577 -0.137,12.87 a 317.503,317.503 0 0 1 -0.453,11.456 c -0.196,3.38 -0.472,6.75 -0.846,10.12 a 121.689,121.689 0 0 1 -1.298,8.832 75.562,75.562 0 0 1 -1.83,7.634 50.902,50.902 0 0 1 -2.4,6.494 36.767,36.767 0 0 1 -3.03,5.443 30.615,30.615 0 0 1 -3.737,4.53 30.938,30.938 0 0 1 -4.525,3.713 37.038,37.038 0 0 1 -5.469,3.026 49.07,49.07 0 0 1 -6.501,2.397 75.942,75.942 0 0 1 -7.653,1.818 c -2.931,0.55 -5.892,0.982 -8.863,1.306 -3.364,0.364 -6.747,0.649 -10.13,0.836 -3.827,0.216 -7.653,0.373 -11.48,0.452 -4.298,0.098 -8.597,0.137 -12.895,0.137 H 90.932 c -4.298,0 -8.597,-0.04 -12.895,-0.137 a 320.093,320.093 0 0 1 -11.48,-0.452 193.696,193.696 0 0 1 -10.13,-0.836 116.71,116.71 0 0 1 -8.863,-1.306 75.942,75.942 0 0 1 -7.653,-1.818 49.07,49.07 0 0 1 -6.501,-2.397 37.038,37.038 0 0 1 -5.47,-3.026 30.938,30.938 0 0 1 -4.524,-3.714 30.615,30.615 0 0 1 -3.738,-4.529 36.766,36.766 0 0 1 -3.03,-5.443 50.903,50.903 0 0 1 -2.4,-6.494 75.567,75.567 0 0 1 -1.829,-7.634 121.69,121.69 0 0 1 -1.298,-8.832 c -0.374,-3.37 -0.65,-6.74 -0.846,-10.12 A 317.535,317.535 0 0 1 9.822,168.096 623.851,623.851 0 0 1 9.685,155.226 V 97.014 c 0,-4.293 0.049,-8.577 0.137,-12.87 0.079,-3.822 0.236,-7.634 0.453,-11.456 0.197,-3.38 0.472,-6.75 0.846,-10.11 0.324,-2.967 0.757,-5.914 1.298,-8.842 a 75.568,75.568 0 0 1 1.83,-7.634 51.46,51.46 0 0 1 2.4,-6.494 37.27,37.27 0 0 1 3.03,-5.443 31.05,31.05 0 0 1 3.737,-4.52 30.384,30.384 0 0 1 4.525,-3.723 37.039,37.039 0 0 1 5.469,-3.026 50.494,50.494 0 0 1 6.501,-2.397 75.943,75.943 0 0 1 7.653,-1.818 c 2.931,-0.55 5.892,-0.982 8.863,-1.297 3.364,-0.373 6.747,-0.648 10.13,-0.845 a 344.71,344.71 0 0 1 11.48,-0.452 c 4.298,-0.088 8.597,-0.137 12.895,-0.127 z"
           inkscape:connector-curvature="0"
           style="fill:url(#b);fill-rule:evenodd" />
      </g>
    </g>
  </g>
</svg>
