<?xml version="1.0" encoding="UTF-8" standalone="no"?>
<svg
   xmlns:dc="http://purl.org/dc/elements/1.1/"
   xmlns:cc="http://creativecommons.org/ns#"
   xmlns:rdf="http://www.w3.org/1999/02/22-rdf-syntax-ns#"
   xmlns:svg="http://www.w3.org/2000/svg"
   xmlns="http://www.w3.org/2000/svg"
   xmlns:sodipodi="http://sodipodi.sourceforge.net/DTD/sodipodi-0.dtd"
   xmlns:inkscape="http://www.inkscape.org/namespaces/inkscape"
   viewBox="0 0 128 128"
   version="1.1"
   id="svg28"
   sodipodi:docname="Excel.svg"
   width="128"
   height="128"
   inkscape:version="0.92.2 5c3e80d, 2017-08-06">
  <metadata
     id="metadata34">
    <rdf:RDF>
      <cc:Work
         rdf:about="">
        <dc:format>image/svg+xml</dc:format>
        <dc:type
           rdf:resource="http://purl.org/dc/dcmitype/StillImage" />
        <dc:title>OfficeCore10_32x_24x_20x_16x_01-22-2019</dc:title>
      </cc:Work>
    </rdf:RDF>
  </metadata>
  <defs
     id="defs32" />
  <sodipodi:namedview
     pagecolor="#ffffff"
     bordercolor="#666666"
     borderopacity="1"
     objecttolerance="10"
     gridtolerance="10"
     guidetolerance="10"
     inkscape:pageopacity="0"
     inkscape:pageshadow="2"
     inkscape:window-width="1600"
     inkscape:window-height="803"
     id="namedview30"
     showgrid="false"
     inkscape:zoom="3.6875"
     inkscape:cx="43.909438"
     inkscape:cy="51.500898"
     inkscape:window-x="0"
     inkscape:window-y="0"
     inkscape:window-maximized="1"
     inkscape:current-layer="svg28" />
  <title
     id="title2">OfficeCore10_32x_24x_20x_16x_01-22-2019</title>
  <g
     id="g849"
     transform="matrix(0.99685989,0,0,0.99685989,0.20096704,-0.70168959)">
    <path
       style="opacity:0.25;fill:#000000;stroke-width:0.37799999;stroke-miterlimit:4;stroke-dasharray:none"
       inkscape:connector-curvature="0"
       id="path1091"
       d="M 79,66 H 33.999775 v 47.49986 A 5.000175,5.000175 0 0 0 38.999688,118.5 H 118.99986 A 5.0002125,5.0002125 0 0 0 124,113.49986 V 92.25 Z" />
    <path
       d="M 79,11.5 H 38.999688 a 4.99995,4.99995 0 0 0 -4.999913,4.999912 V 37.75 L 79,64 101.5,73.49335 124,64 V 37.75 Z"
       id="path4"
       inkscape:connector-curvature="0"
       style="fill:#21a366;stroke:#114026;stroke-width:0.37799999;stroke-miterlimit:4;stroke-dasharray:none;stroke-opacity:1" />
    <rect
       x="33.999775"
       y="37.749969"
       width="45.000225"
       height="26.25"
       id="rect6"
       style="fill:#107c41;stroke:#114026;stroke-width:0.37799999;stroke-miterlimit:4;stroke-dasharray:none;stroke-opacity:1" />
    <path
       d="M 118.99986,11.5 H 79 v 26.25 h 45 V 16.499912 A 4.9999875,4.9999875 0 0 0 118.99986,11.5 Z"
       id="path8"
       inkscape:connector-curvature="0"
       style="fill:#33c481;stroke:#114026;stroke-width:0.37799999;stroke-miterlimit:4;stroke-dasharray:none;stroke-opacity:1" />
    <path
       d="M 79,64 H 33.999775 v 47.49986 A 5.000175,5.000175 0 0 0 38.999688,116.5 H 118.99986 A 5.0002125,5.0002125 0 0 0 124,111.49986 V 90.25 Z"
       id="path10"
       inkscape:connector-curvature="0"
       style="fill:#185c37;stroke:#114026;stroke-width:0.37799999;stroke-miterlimit:4;stroke-dasharray:none;stroke-opacity:1" />
    <rect
       style="fill:#0e6e3a;fill-opacity:1;stroke:#114026;stroke-width:0.37799999;stroke-miterlimit:4;stroke-dasharray:none;stroke-opacity:1"
       id="rect1067"
       height="26.25"
       width="45"
       y="64"
       x="34" />
    <rect
       x="79"
       y="64"
       width="45"
       height="26.25"
       id="rect12"
       style="fill:#107c41;stroke:#114026;stroke-width:0.37799999;stroke-miterlimit:4;stroke-dasharray:none;stroke-opacity:1" />
    <path
       style="opacity:0.25;fill:#000000;stroke-width:0.37799999;stroke-miterlimit:4;stroke-dasharray:none"
       inkscape:connector-curvature="0"
       d="M 8.9999875,36 H 59.000087 A 5.000025,5.000025 0 0 1 64,41.000025 v 49.99995 A 4.9999875,4.9999875 0 0 1 59.000125,96 H 8.9999875 A 4.9999875,4.9999875 0 0 1 4,90.999975 V 40.999988 A 4.9999875,4.9999875 0 0 1 8.9999875,36 Z"
       data-name="Back Plate"
       id="path1089" />
    <path
       id="Back_Plate"
       data-name="Back Plate"
       d="M 8.9999875,34 H 59.000087 A 5.000025,5.000025 0 0 1 64,39.000025 v 49.99995 A 4.9999875,4.9999875 0 0 1 59.000125,94 H 8.9999875 A 4.9999875,4.9999875 0 0 1 4,88.999975 V 38.999988 A 4.9999875,4.9999875 0 0 1 8.9999875,34 Z"
       inkscape:connector-curvature="0"
       style="fill:#107c41;stroke:#114026;stroke-width:0.37799999;stroke-miterlimit:4;stroke-dasharray:none;stroke-opacity:1" />
    <path
       d="M 17.250588,82.75 29.384463,63.947688 18.270437,45.25 h 8.943526 L 33.2809,57.200838 q 0.836437,1.700587 1.15065,2.536612 H 34.51 q 0.60105,-1.359 1.255237,-2.641237 L 42.250563,45.25 h 8.2113 L 39.060212,63.8431 50.749525,82.75 H 42.015212 L 35.006875,69.622375 A 10.955887,10.955887 0 0 1 34.170025,67.8703 h -0.104587 a 8.27475,8.27475 0 0 1 -0.810675,1.699762 L 26.037175,82.75 Z"
       id="path23"
       inkscape:connector-curvature="0"
       style="fill:#ffffff;stroke-width:3.75" />
  </g>
  <style
     id="style2191"
     type="text/css">
	.st0{fill:url(#SVGID_9_);}
	.st1{opacity:0.52;}
	.st2{fill:#30E195;}
	.st3{opacity:0.12;}
	.st4{fill:#759480;}
	.st5{fill:#1ABA6D;}
	.st6{fill:url(#SVGID_28_);}
	.st7{opacity:0.58;}
	.st8{fill:url(#SVGID_45_);}
	.st9{opacity:0.38;}
	.st10{fill:#41D9FF;}
	.st11{fill:url(#SVGID_72_);}
	.st12{fill:url(#SVGID_93_);}
	.st13{fill:url(#SVGID_104_);}
	.st14{fill:url(#SVGID_117_);}
	.st15{fill:#D86CFF;}
	.st16{fill:url(#SVGID_144_);}
	.st17{fill:#38A8F0;}
	.st18{fill:url(#SVGID_157_);}
	.st19{display:none;}
	.st20{display:inline;}
	.st21{fill:#3B3C3D;}
	.st22{font-family:'Poppins-Light';}
	.st23{font-size:22.1246px;}
	.st24{font-family:'Poppins-Medium';}
</style>
</svg>
