<?xml version="1.0" encoding="UTF-8" standalone="no"?>
<svg
   xmlns:dc="http://purl.org/dc/elements/1.1/"
   xmlns:cc="http://creativecommons.org/ns#"
   xmlns:rdf="http://www.w3.org/1999/02/22-rdf-syntax-ns#"
   xmlns:svg="http://www.w3.org/2000/svg"
   xmlns="http://www.w3.org/2000/svg"
   xmlns:sodipodi="http://sodipodi.sourceforge.net/DTD/sodipodi-0.dtd"
   xmlns:inkscape="http://www.inkscape.org/namespaces/inkscape"
   viewBox="0 0 128 128"
   version="1.1"
   id="svg28"
   sodipodi:docname="note.svg"
   inkscape:version="0.92.2 5c3e80d, 2017-08-06"
   width="128"
   height="128">
  <metadata
     id="metadata34">
    <rdf:RDF>
      <cc:Work
         rdf:about="">
        <dc:format>image/svg+xml</dc:format>
        <dc:type
           rdf:resource="http://purl.org/dc/dcmitype/StillImage" />
        <dc:title>OfficeCore10_32x_24x_20x_16x_01-22-2019</dc:title>
      </cc:Work>
    </rdf:RDF>
  </metadata>
  <defs
     id="defs32" />
  <sodipodi:namedview
     pagecolor="#ffffff"
     bordercolor="#666666"
     borderopacity="1"
     objecttolerance="10"
     gridtolerance="10"
     guidetolerance="10"
     inkscape:pageopacity="0"
     inkscape:pageshadow="2"
     inkscape:window-width="1600"
     inkscape:window-height="803"
     id="namedview30"
     showgrid="false"
     inkscape:zoom="1.84375"
     inkscape:cx="44.521773"
     inkscape:cy="-17.957436"
     inkscape:window-x="0"
     inkscape:window-y="0"
     inkscape:window-maximized="1"
     inkscape:current-layer="svg28" />
  <title
     id="title2">OfficeCore10_32x_24x_20x_16x_01-22-2019</title>
  <g
     id="g893"
     transform="matrix(0.99686028,0,0,0.99686028,173.74333,64.516639)">
    <path
       inkscape:connector-curvature="0"
       id="path857"
       d="m -135.08944,-51.923828 a 4.9998,4.9998 0 0 0 -5,5 v 95 a 4.9998375,4.9998375 0 0 0 5,5 h 58.75 21.25 a 4.9999875,4.9999875 0 0 0 5,-5 v -21.25 h -17.5 l 17.5,-52.5 v -21.25 a 5.000025,5.000025 0 0 0 -5,-5 z"
       style="opacity:0.25;fill:#000000;stroke:none;stroke-width:0.37795275;stroke-miterlimit:4;stroke-dasharray:none;stroke-opacity:1" />
    <path
       d="m -135.08952,-53.923729 h 80.000141 a 4.9999125,4.9999125 0 0 1 4.999913,4.999913 v 95.000062 a 4.9999125,4.9999125 0 0 1 -4.999913,5.000025 h -79.999911 a 5.0001375,5.0001375 0 0 1 -5.00014,-5.00025 v -94.999837 a 4.9999125,4.9999125 0 0 1 4.99991,-4.999913 z"
       id="path4"
       inkscape:connector-curvature="0"
       style="fill:#ca64ea;stroke:#000000;stroke-width:0.37795275;stroke-miterlimit:4;stroke-dasharray:none;stroke-opacity:1" />
    <path
       d="m -50.089429,-48.923591 a 5.000025,5.000025 0 0 0 -5.000175,-4.999913 h -79.999916 a 4.9998,4.9998 0 0 0 -4.99991,4.999913 v 94.999912 a 4.9998375,4.9998375 0 0 0 4.99991,4.99995 h 58.749866 l 26.250225,-78.749775 z"
       id="path6"
       inkscape:connector-curvature="0"
       style="fill:#ca64ea;stroke:#501173;stroke-width:0.37795275;stroke-miterlimit:4;stroke-dasharray:none;stroke-opacity:1" />
    <path
       style="opacity:0.25;fill:#000000;stroke:none;stroke-width:0.37795275;stroke-miterlimit:4;stroke-dasharray:none;stroke-opacity:1"
       inkscape:connector-curvature="0"
       d="m -165.08899,-29.423729 h 50.0001 a 5.000025,5.000025 0 0 1 4.99991,5.000025 v 49.99995 a 4.9999875,4.9999875 0 0 1 -4.99987,5.000025 h -50.00011 a 5.000025,5.000025 0 0 1 -5.00002,-5.000025 v -49.999987 a 4.9999875,4.9999875 0 0 1 4.99999,-4.999988 z"
       data-name="Back Plate"
       id="path853" />
    <polygon
       transform="matrix(3.75,0,0,3.75,-170.08898,-61.423729)"
       points="28.5,19.195 32,16 32,9 25,9 25,16 "
       id="polygon8"
       style="fill:#ae4bd5;stroke:#501173;stroke-width:0.1007874;stroke-miterlimit:4;stroke-dasharray:none;stroke-opacity:1" />
    <polygon
       transform="matrix(3.75,0,0,3.75,-170.08898,-61.423729)"
       points="28.5,26.395 32,23 32,16 25,16 25,23 "
       id="polygon10"
       style="fill:#9332bf;stroke:#501173;stroke-width:0.1007874;stroke-miterlimit:4;stroke-dasharray:none;stroke-opacity:1" />
    <path
       d="m -76.339541,24.826271 h 26.249999 v 21.250012 a 4.9999875,4.9999875 0 0 1 -4.999987,4.999988 h -21.250012 z"
       id="path12"
       inkscape:connector-curvature="0"
       style="fill:#7719aa;stroke:#501173;stroke-width:0.37795275;stroke-miterlimit:4;stroke-dasharray:none;stroke-opacity:1" />
    <path
       id="Back_Plate"
       data-name="Back Plate"
       d="m -165.08899,-31.423729 h 50.0001 a 5.000025,5.000025 0 0 1 4.99991,5.000025 v 49.99995 a 4.9999875,4.9999875 0 0 1 -4.99987,5.000025 h -50.00011 a 5.000025,5.000025 0 0 1 -5.00002,-5.000025 v -49.999987 a 4.9999875,4.9999875 0 0 1 4.99999,-4.999988 z"
       inkscape:connector-curvature="0"
       style="fill:#7719aa;stroke:#501173;stroke-width:0.37795275;stroke-miterlimit:4;stroke-dasharray:none;stroke-opacity:1" />
    <path
       d="m -155.08339,-20.173729 h 7.98566 l 13.71169,25.2436125 q 1.07156,1.633275 1.60732,2.62785 h 0.10204 a 35.599275,35.599275 0 0 1 -0.22961,-4.9750125 v -22.89645 h 6.81195 v 37.5 h -7.4754 l -14.29849,-24.8597625 a 19.2501,19.2501 0 0 1 -1.45425,-2.5767755 h -0.1275 a 51.10575,51.10575 0 0 1 0.20408,5.459738 v 21.9768 h -6.83749 z"
       id="path23"
       inkscape:connector-curvature="0"
       style="fill:#ffffff;stroke-width:3.75" />
  </g>
</svg>
