<?xml version="1.0" encoding="UTF-8" standalone="no"?>
<svg
   xmlns:dc="http://purl.org/dc/elements/1.1/"
   xmlns:cc="http://creativecommons.org/ns#"
   xmlns:rdf="http://www.w3.org/1999/02/22-rdf-syntax-ns#"
   xmlns:svg="http://www.w3.org/2000/svg"
   xmlns="http://www.w3.org/2000/svg"
   xmlns:sodipodi="http://sodipodi.sourceforge.net/DTD/sodipodi-0.dtd"
   xmlns:inkscape="http://www.inkscape.org/namespaces/inkscape"
   viewBox="0 0 128 128"
   version="1.1"
   id="svg30"
   sodipodi:docname="people.svg"
   width="128"
   height="128"
   inkscape:version="0.92.2 5c3e80d, 2017-08-06">
  <metadata
     id="metadata36">
    <rdf:RDF>
      <cc:Work
         rdf:about="">
        <dc:format>image/svg+xml</dc:format>
        <dc:type
           rdf:resource="http://purl.org/dc/dcmitype/StillImage" />
        <dc:title>OfficeCore10_32x_24x_20x_16x_01-22-2019</dc:title>
      </cc:Work>
    </rdf:RDF>
  </metadata>
  <defs
     id="defs34" />
  <sodipodi:namedview
     pagecolor="#ffffff"
     bordercolor="#666666"
     borderopacity="1"
     objecttolerance="10"
     gridtolerance="10"
     guidetolerance="10"
     inkscape:pageopacity="0"
     inkscape:pageshadow="2"
     inkscape:window-width="1600"
     inkscape:window-height="803"
     id="namedview32"
     showgrid="false"
     inkscape:zoom="1.84375"
     inkscape:cx="-72.741678"
     inkscape:cy="33.907376"
     inkscape:window-x="0"
     inkscape:window-y="0"
     inkscape:window-maximized="1"
     inkscape:current-layer="svg30" />
  <title
     id="title2">OfficeCore10_32x_24x_20x_16x_01-22-2019</title>
  <g
     id="g842"
     transform="matrix(0.99686894,0,0,0.99686894,176.44801,-1.3211081)">
    <path
       inkscape:connector-curvature="0"
       id="circle824"
       d="m -109.05067,11 a 17.499975,17.499975 0 0 0 -17.5,17.5 17.499975,17.499975 0 0 0 17.5,17.5 A 17.499975,17.499975 0 0 0 -91.550665,28.5 17.499975,17.499975 0 0 0 -109.05067,11 Z m 39.375005,10 a 13.125,13.125 0 0 0 -13.125,13.125 13.125,13.125 0 0 0 13.125,13.125 13.125,13.125 0 0 0 13.125,-13.125 13.125,13.125 0 0 0 -13.125,-13.125 z m -63.750005,30 a 5.6175,5.6175 0 0 0 -5.625,5.625 V 92.25 a 30.900825,30.900825 0 0 0 0.9375,7.5 31.376025,31.376025 0 0 0 1.23829,3.75 26.897887,26.897887 0 0 0 1.875,3.75 29.980463,29.980463 0 0 0 54.648434,-6.26758 19.20495,19.20495 0 0 0 4.923831,1.89453 18.770663,18.770663 0 0 0 22.625,-18.361325 V 56.625 A 5.625,5.625 0 0 0 -58.425665,51 h -26.25 -3.228516 z"
       style="opacity:0.25;fill:#000000;stroke:none;stroke-width:0.37795275;stroke-miterlimit:4;stroke-dasharray:none;stroke-opacity:1" />
    <circle
       id="Head"
       cx="-109.05064"
       cy="26.500038"
       r="17.499975"
       style="fill:#7b83eb;stroke:#1f224d;stroke-width:0.37795275;stroke-miterlimit:4;stroke-dasharray:none;stroke-opacity:1" />
    <circle
       id="Head-2"
       data-name="Head"
       cx="-69.675667"
       cy="32.125038"
       r="13.125"
       style="fill:#5059c9;stroke:#1f224d;stroke-width:0.37795275;stroke-miterlimit:4;stroke-dasharray:none;stroke-opacity:1" />
    <path
       d="M -58.426565,49 H -87.90509 a 2.396475,2.396475 0 0 0 -2.396475,2.396475 V 81.80995 a 19.20495,19.20495 0 0 0 14.8734,19.06718 18.770663,18.770663 0 0 0 22.62645,-18.361355 V 54.625 A 5.625,5.625 0 0 0 -58.426565,49 Z"
       id="path10"
       inkscape:connector-curvature="0"
       style="fill:#5059c9;stroke:#1f224d;stroke-width:0.37795275;stroke-miterlimit:4;stroke-dasharray:none;stroke-opacity:1" />
    <path
       d="M -79.050665,54.625 V 90.25 a 29.980463,29.980463 0 0 1 -55.950005,15 26.897887,26.897887 0 0 1 -1.875,-3.75 31.376025,31.376025 0 0 1 -1.2375,-3.75 30.900825,30.900825 0 0 1 -0.9375,-7.5 V 54.625 a 5.6175,5.6175 0 0 1 5.625,-5.625 h 48.750005 a 5.6175,5.6175 0 0 1 5.625,5.625 z"
       id="path12"
       inkscape:connector-curvature="0"
       style="fill:#7b83eb;stroke:#1f224d;stroke-width:0.37795275;stroke-miterlimit:4;stroke-dasharray:none;stroke-opacity:1" />
    <path
       style="opacity:0.25;fill:#000000;stroke:none;stroke-width:0.37795275;stroke-miterlimit:4;stroke-dasharray:none;stroke-opacity:1"
       inkscape:connector-curvature="0"
       d="m -167.80064,36 h 50.0001 a 4.9999875,4.9999875 0 0 1 4.99987,4.999988 V 90.999975 A 4.9999875,4.9999875 0 0 1 -117.80054,96 h -50.0001 a 5.000025,5.000025 0 0 1 -5.00003,-5.000025 V 41.000025 A 5.000025,5.000025 0 0 1 -167.80064,36 Z"
       data-name="Back Plate"
       id="path822" />
    <path
       id="Back_Plate"
       data-name="Back Plate"
       d="m -167.80064,34 h 50.0001 a 4.9999875,4.9999875 0 0 1 4.99987,4.999988 V 88.999975 A 4.9999875,4.9999875 0 0 1 -117.80054,94 h -50.0001 a 5.000025,5.000025 0 0 1 -5.00003,-5.000025 V 39.000025 A 5.000025,5.000025 0 0 1 -167.80064,34 Z"
       inkscape:connector-curvature="0"
       style="fill:#4b53bc;stroke:#1f224d;stroke-width:0.37795275;stroke-miterlimit:4;stroke-dasharray:none;stroke-opacity:1" />
    <path
       d="m -127.87713,52.65625 h -11.208 v 30.076125 h -7.36601 V 52.65625 h -11.27295 v -7.388775 h 29.84696 z"
       id="path25"
       inkscape:connector-curvature="0"
       style="fill:#ffffff;stroke-width:3.75" />
  </g>
</svg>
