<?xml version="1.0" encoding="UTF-8" standalone="no"?>
<svg
   xmlns:dc="http://purl.org/dc/elements/1.1/"
   xmlns:cc="http://creativecommons.org/ns#"
   xmlns:rdf="http://www.w3.org/1999/02/22-rdf-syntax-ns#"
   xmlns:svg="http://www.w3.org/2000/svg"
   xmlns="http://www.w3.org/2000/svg"
   xmlns:sodipodi="http://sodipodi.sourceforge.net/DTD/sodipodi-0.dtd"
   xmlns:inkscape="http://www.inkscape.org/namespaces/inkscape"
   viewBox="0 0 128 128"
   version="1.1"
   id="svg24"
   sodipodi:docname="Power.svg"
   width="128"
   height="128"
   inkscape:version="0.92.2 5c3e80d, 2017-08-06">
  <metadata
     id="metadata30">
    <rdf:RDF>
      <cc:Work
         rdf:about="">
        <dc:format>image/svg+xml</dc:format>
        <dc:type
           rdf:resource="http://purl.org/dc/dcmitype/StillImage" />
        <dc:title>OfficeCore10_32x_24x_20x_16x_01-22-2019</dc:title>
      </cc:Work>
    </rdf:RDF>
  </metadata>
  <defs
     id="defs28" />
  <sodipodi:namedview
     pagecolor="#ffffff"
     bordercolor="#666666"
     borderopacity="1"
     objecttolerance="10"
     gridtolerance="10"
     guidetolerance="10"
     inkscape:pageopacity="0"
     inkscape:pageshadow="2"
     inkscape:window-width="1600"
     inkscape:window-height="803"
     id="namedview26"
     showgrid="false"
     inkscape:zoom="2.6074563"
     inkscape:cx="9.3287274"
     inkscape:cy="53.841104"
     inkscape:window-x="0"
     inkscape:window-y="0"
     inkscape:window-maximized="1"
     inkscape:current-layer="svg24" />
  <title
     id="title2">OfficeCore10_32x_24x_20x_16x_01-22-2019</title>
  <g
     id="g827"
     transform="matrix(0.99686722,0,0,0.99686722,180.2709,-0.70190114)">
    <path
       style="opacity:0.25;fill:#000000;stroke:none;stroke-width:0.37795275;stroke-miterlimit:4;stroke-dasharray:none;stroke-opacity:1"
       inkscape:connector-curvature="0"
       id="path866"
       d="M -109.13726,118.5 A 52.654275,52.654275 0 0 0 -56.637271,66 H -161.63726 a 52.654313,52.654313 0 0 0 52.5,52.5 z" />
    <path
       d="m -109.13723,11.5 a 52.654275,52.654275 0 0 0 -52.5,52.5 l 66.513753,14.01375 z"
       id="path4"
       inkscape:connector-curvature="0"
       style="fill:#ed6c47;stroke:#66200e;stroke-width:0.37795275;stroke-miterlimit:4;stroke-dasharray:none;stroke-opacity:1" />
    <path
       d="M -109.13723,11.5 A 52.654275,52.654275 0 0 1 -56.637231,64 L -82.887227,81.842162 -109.13723,64 Z"
       id="path6"
       inkscape:connector-curvature="0"
       style="fill:#ff8f6b;stroke:#66200e;stroke-width:0.37795275;stroke-miterlimit:4;stroke-dasharray:none;stroke-opacity:1" />
    <path
       d="M -109.13726,116.5 A 52.654275,52.654275 0 0 0 -56.637271,64 H -161.63726 a 52.654313,52.654313 0 0 0 52.5,52.5 z"
       id="path8"
       inkscape:connector-curvature="0"
       style="fill:#d35230;stroke:#66200e;stroke-width:0.37795275;stroke-miterlimit:4;stroke-dasharray:none;stroke-opacity:1" />
    <path
       style="opacity:0.25;fill:#000000;stroke:none;stroke-width:0.37795275;stroke-miterlimit:4;stroke-dasharray:none;stroke-opacity:1"
       inkscape:connector-curvature="0"
       d="m -171.63589,36 h 50.0001 a 5.000025,5.000025 0 0 1 4.99991,5.000025 v 49.99995 A 4.9999875,4.9999875 0 0 1 -121.63575,96 h -50.0001 a 5.000025,5.000025 0 0 1 -5.00003,-5.000025 V 40.999988 A 4.9999875,4.9999875 0 0 1 -171.63589,36 Z"
       data-name="Back Plate"
       id="path864" />
    <path
       id="Back_Plate"
       data-name="Back Plate"
       d="m -171.63589,34 h 50.0001 a 5.000025,5.000025 0 0 1 4.99991,5.000025 v 49.99995 A 4.9999875,4.9999875 0 0 1 -121.63575,94 h -50.0001 a 5.000025,5.000025 0 0 1 -5.00003,-5.000025 V 38.999988 A 4.9999875,4.9999875 0 0 1 -171.63589,34 Z"
       inkscape:connector-curvature="0"
       style="fill:#c43e1c;stroke:#66200e;stroke-width:0.37795275;stroke-miterlimit:4;stroke-dasharray:none;stroke-opacity:1" />
    <path
       d="m -146.64525,45.25 a 15.628913,15.628913 0 0 1 10.33065,3.019125 10.790888,10.790888 0 0 1 3.58357,8.742337 10.222838,10.222838 0 0 1 -1.77206,5.95215 11.863912,11.863912 0 0 1 -5.04064,4.45035 17.136563,17.136563 0 0 1 -7.5741,1.5879 h -7.16711 V 82.75 h -7.35094 v -37.5 z m -7.63969,17.561962 h 6.32704 a 8.226825,8.226825 0 0 0 5.59192,-1.66665 4.149825,4.149825 0 0 0 1.89027,-3.845062 q 0,-6.222038 -7.24594,-6.222038 h -6.56329 z"
       id="path19"
       inkscape:connector-curvature="0"
       style="fill:#f9f7f7;stroke:none;stroke-width:0.37795275;stroke-miterlimit:4;stroke-dasharray:none;stroke-opacity:1" />
  </g>
</svg>
