<?xml version="1.0" encoding="UTF-8" standalone="no"?>
<svg
   xmlns:dc="http://purl.org/dc/elements/1.1/"
   xmlns:cc="http://creativecommons.org/ns#"
   xmlns:rdf="http://www.w3.org/1999/02/22-rdf-syntax-ns#"
   xmlns:svg="http://www.w3.org/2000/svg"
   xmlns="http://www.w3.org/2000/svg"
   xmlns:sodipodi="http://sodipodi.sourceforge.net/DTD/sodipodi-0.dtd"
   xmlns:inkscape="http://www.inkscape.org/namespaces/inkscape"
   viewBox="0 0 128 128"
   version="1.1"
   id="svg25"
   sodipodi:docname="Word.svg"
   width="128"
   height="128"
   inkscape:version="0.92.2 5c3e80d, 2017-08-06">
  <metadata
     id="metadata31">
    <rdf:RDF>
      <cc:Work
         rdf:about="">
        <dc:format>image/svg+xml</dc:format>
        <dc:type
           rdf:resource="http://purl.org/dc/dcmitype/StillImage" />
        <dc:title>OfficeCore10_32x_24x_20x_16x_01-22-2019</dc:title>
      </cc:Work>
    </rdf:RDF>
  </metadata>
  <defs
     id="defs29" />
  <sodipodi:namedview
     pagecolor="#ffffff"
     bordercolor="#666666"
     borderopacity="1"
     objecttolerance="10"
     gridtolerance="10"
     guidetolerance="10"
     inkscape:pageopacity="0"
     inkscape:pageshadow="2"
     inkscape:window-width="1600"
     inkscape:window-height="803"
     id="namedview27"
     showgrid="false"
     inkscape:zoom="0.921875"
     inkscape:cx="-102.25933"
     inkscape:cy="-23.053604"
     inkscape:window-x="0"
     inkscape:window-y="0"
     inkscape:window-maximized="1"
     inkscape:current-layer="svg25" />
  <title
     id="title2">OfficeCore10_32x_24x_20x_16x_01-22-2019</title>
  <g
     id="g842"
     transform="matrix(0.99686028,0,0,0.99686028,227.28225,-0.70172518)">
    <path
       style="opacity:0.25;fill:#000000;stroke-width:3.75"
       inkscape:connector-curvature="0"
       id="path4732"
       d="m -103.79653,92.249996 h -90 v 21.249974 a 5.000025,5.000025 0 0 0 5.00003,5.00003 h 80.0001 a 5.000025,5.000025 0 0 0 4.99987,-5.00003 z" />
    <path
       d="m -108.79659,11.499997 h -80.00018 a 4.99995,4.99995 0 0 0 -4.99976,4.999912 v 21.250088 l 45,13.125 45,-13.125 V 16.499909 a 4.9999875,4.9999875 0 0 0 -5.00006,-4.999912 z"
       id="path4"
       inkscape:connector-curvature="0"
       style="fill:#41a5ee;stroke:#0c2c66;stroke-width:0.37795275;stroke-miterlimit:4;stroke-dasharray:none;stroke-opacity:1" />
    <polygon
       transform="matrix(3.75,0,0,3.75,-223.79653,3.999997)"
       points="32,16 32,9 8,9 8,16 20,19.5 "
       id="polygon6"
       style="fill:#2b7cd3;stroke:#0c2c66;stroke-width:0.1007874;stroke-miterlimit:4;stroke-dasharray:none;stroke-opacity:1" />
    <polygon
       transform="matrix(3.75,0,0,3.75,-223.79653,3.999997)"
       points="32,23 32,16 8,16 8,23 20,26.5 "
       id="polygon8"
       style="fill:#185abd;stroke:#0c2c66;stroke-width:0.1007874;stroke-miterlimit:4;stroke-dasharray:none;stroke-opacity:1" />
    <path
       d="m -103.79653,90.249996 h -90 v 21.249974 a 5.000025,5.000025 0 0 0 5.00003,5.00003 h 80.0001 a 5.000025,5.000025 0 0 0 4.99987,-5.00003 z"
       id="path10"
       inkscape:connector-curvature="0"
       style="fill:#103f91;stroke:#0c2c66;stroke-width:0.37795275;stroke-miterlimit:4;stroke-dasharray:none;stroke-opacity:1" />
    <path
       style="opacity:0.25;fill:#000000;stroke-width:3.75"
       inkscape:connector-curvature="0"
       d="m -218.79669,35.999997 h 50.00014 a 4.9999875,4.9999875 0 0 1 5.00002,4.999987 v 49.999987 a 5.000025,5.000025 0 0 1 -5.00006,5.000025 h -50.00007 a 5.000025,5.000025 0 0 1 -4.99987,-5.000025 V 40.999984 a 4.9999875,4.9999875 0 0 1 4.99984,-4.999987 z"
       data-name="Back Plate"
       id="path4730" />
    <path
       id="Back_Plate"
       data-name="Back Plate"
       d="m -218.79669,33.999997 h 50.00014 a 4.9999875,4.9999875 0 0 1 5.00002,4.999987 v 49.999987 a 5.000025,5.000025 0 0 1 -5.00006,5.000025 h -50.00007 a 5.000025,5.000025 0 0 1 -4.99987,-5.000025 V 38.999984 a 4.9999875,4.9999875 0 0 1 4.99984,-4.999987 z"
       inkscape:connector-curvature="0"
       style="fill:#185abd;stroke:#0c2c66;stroke-width:0.37795275;stroke-miterlimit:4;stroke-dasharray:none;stroke-opacity:1" />
    <path
       id="Letter"
       d="m -178.98403,82.749996 h -6.75 l -7.875,-25.874999 -8.25,25.874999 h -6.75 l -7.5,-37.499999 h 6.75 l 5.25,26.249999 7.875,-25.499999 h 5.625 l 7.5,25.499999 5.25,-26.249999 h 6.375 z"
       inkscape:connector-curvature="0"
       style="fill:#ffffff;stroke-width:3.75" />
  </g>
</svg>
