<?xml version="1.0" encoding="UTF-8" standalone="no"?>
<!-- Created with Inkscape (http://www.inkscape.org/) -->

<svg
   xmlns:osb="http://www.openswatchbook.org/uri/2009/osb"
   xmlns:dc="http://purl.org/dc/elements/1.1/"
   xmlns:cc="http://creativecommons.org/ns#"
   xmlns:rdf="http://www.w3.org/1999/02/22-rdf-syntax-ns#"
   xmlns:svg="http://www.w3.org/2000/svg"
   xmlns="http://www.w3.org/2000/svg"
   xmlns:xlink="http://www.w3.org/1999/xlink"
   xmlns:sodipodi="http://sodipodi.sourceforge.net/DTD/sodipodi-0.dtd"
   xmlns:inkscape="http://www.inkscape.org/namespaces/inkscape"
   width="128"
   height="128"
   viewBox="0 0 33.866666 33.866668"
   version="1.1"
   id="svg8"
   inkscape:version="0.92.2 5c3e80d, 2017-08-06"
   sodipodi:docname="musique.svg">
  <defs
     id="defs2">
    <linearGradient
       id="linearGradient1103"
       inkscape:collect="always">
      <stop
         id="stop1099"
         offset="0"
         style="stop-color:#ffffff;stop-opacity:1" />
      <stop
         id="stop1101"
         offset="1"
         style="stop-color:#cbcbcc;stop-opacity:1" />
    </linearGradient>
    <linearGradient
       id="linearGradient1097"
       inkscape:collect="always">
      <stop
         id="stop1093"
         offset="0"
         style="stop-color:#24cbff;stop-opacity:1" />
      <stop
         id="stop1095"
         offset="1"
         style="stop-color:#0048bf;stop-opacity:1" />
    </linearGradient>
    <linearGradient
       osb:paint="solid"
       id="linearGradient6987">
      <stop
         id="stop6985"
         offset="0"
         style="stop-color:#77d2fb;stop-opacity:1;" />
    </linearGradient>
    <linearGradient
       inkscape:collect="always"
       xlink:href="#linearGradient1103"
       id="linearGradient961"
       x1="50.179356"
       y1="91.685593"
       x2="50.878483"
       y2="117.30058"
       gradientUnits="userSpaceOnUse"
       gradientTransform="matrix(1.0562839,0,0,1.0562839,-37.073224,168.86799)" />
    <linearGradient
       id="linearGradient2831"
       inkscape:collect="always">
      <stop
         id="stop2827"
         offset="0"
         style="stop-color:#f6f6f6;stop-opacity:1" />
      <stop
         id="stop2829"
         offset="1"
         style="stop-color:#d2d2d2;stop-opacity:1" />
    </linearGradient>
    <linearGradient
       inkscape:collect="always"
       xlink:href="#linearGradient2831"
       id="linearGradient1364"
       x1="16.310616"
       y1="271.92776"
       x2="19.971811"
       y2="287.90512"
       gradientUnits="userSpaceOnUse"
       gradientTransform="matrix(0.95238097,0,0,0.95238097,0.80634794,13.336505)" />
    <radialGradient
       inkscape:collect="always"
       xlink:href="#linearGradient1097"
       id="radialGradient1091"
       cx="16.933332"
       cy="280.06665"
       fx="16.933332"
       fy="280.06665"
       r="15.138472"
       gradientUnits="userSpaceOnUse"
       gradientTransform="matrix(0,1.2093837,-0.95238097,0,283.66348,259.58776)" />
  </defs>
  <sodipodi:namedview
     id="base"
     pagecolor="#ffffff"
     bordercolor="#666666"
     borderopacity="1.0"
     inkscape:pageopacity="0.0"
     inkscape:pageshadow="2"
     inkscape:zoom="2.56"
     inkscape:cx="-6.9004635"
     inkscape:cy="51.377769"
     inkscape:document-units="mm"
     inkscape:current-layer="layer1"
     showgrid="false"
     inkscape:window-width="1600"
     inkscape:window-height="803"
     inkscape:window-x="0"
     inkscape:window-y="0"
     inkscape:window-maximized="1"
     units="px" />
  <metadata
     id="metadata5">
    <rdf:RDF>
      <cc:Work
         rdf:about="">
        <dc:format>image/svg+xml</dc:format>
        <dc:type
           rdf:resource="http://purl.org/dc/dcmitype/StillImage" />
        <dc:title />
      </cc:Work>
    </rdf:RDF>
  </metadata>
  <g
     inkscape:label="Layer 1"
     inkscape:groupmode="layer"
     id="layer1"
     transform="translate(0,-263.13332)">
    <g
       id="g847"
       transform="matrix(0.98346122,0,0,0.98346122,0.28005755,4.4209253)">
      <circle
         r="15.827381"
         cy="280.59583"
         cx="16.933332"
         id="circle840"
         style="opacity:0.25;fill:#000000;fill-opacity:1;fill-rule:nonzero;stroke:none;stroke-width:0.1;stroke-linecap:round;stroke-miterlimit:4;stroke-dasharray:0.025, 0.025;stroke-dashoffset:0;stroke-opacity:1" />
      <circle
         style="opacity:1;fill:url(#linearGradient961);fill-opacity:1;fill-rule:nonzero;stroke:#999999;stroke-width:0.2;stroke-linecap:round;stroke-miterlimit:4;stroke-dasharray:0.05, 0.05;stroke-dashoffset:0;stroke-opacity:1"
         id="circle3590"
         cx="16.933332"
         cy="280.06665"
         r="15.827381" />
      <circle
         style="opacity:1;fill:url(#radialGradient1091);fill-opacity:1;stroke:#053f80;stroke-width:0.2;stroke-linecap:round;stroke-miterlimit:4;stroke-dasharray:0.05, 0.05;stroke-dashoffset:0;stroke-opacity:1"
         id="circle2071"
         cx="16.933332"
         cy="280.06665"
         r="14.417592" />
      <path
         style="opacity:0.25;fill:#000000;fill-opacity:1;stroke:none;stroke-width:0.21666531px;stroke-linecap:butt;stroke-linejoin:miter;stroke-opacity:1"
         d="m 10.644663,290.19292 c 0,0 1.541792,0.0229 2.593011,-0.98904 1.051221,-1.01203 0.758976,-2.12712 0.790389,-3.23617 0.05039,-1.7791 -0.105919,-8.60186 -0.105919,-8.60186 0,0 -0.0064,-0.67354 0.679357,-0.81028 0.815045,-0.16467 7.956997,-1.54314 7.956997,-1.54314 0,0 0.490568,-0.11501 0.490568,0.34501 0,0.46001 0.138226,6.34136 -0.04672,7.24523 -0.06151,0.30064 -0.442326,0.49082 -0.747534,0.55202 -0.955242,0.19153 -2.001184,0.17062 -3.03686,0.92003 -1.390426,1.16876 -0.832433,3.22797 0.609173,3.9611 1.763243,0.65241 4.034611,-0.26375 4.296524,-2.16704 0.116803,-0.57502 0.215462,-10.17035 0.07009,-15.18049 -0.0071,-0.2444 -0.163523,-0.52902 -0.560649,-0.48302 -0.397129,0.046 -10.138439,1.97807 -10.138439,1.97807 0,0 -0.584011,0.16101 -0.630732,0.69003 -0.04672,0.52901 -0.122399,11.6011 -0.122399,11.6011 0,0 0.05233,0.56628 -0.695215,0.70429 -0.747535,0.138 -2.0800466,0.16366 -3.0368581,0.94303 -1.8071042,1.71534 -0.6269013,4.12406 1.6352281,4.07113 z"
         id="path1366"
         inkscape:connector-curvature="0"
         sodipodi:nodetypes="ccscccssscccssccccccc" />
      <path
         sodipodi:nodetypes="ccscccssscccssccccccc"
         inkscape:connector-curvature="0"
         id="path4534"
         d="m 10.644663,289.68895 c 0,0 1.541792,0.023 2.593011,-0.98904 1.051221,-1.01203 0.758976,-2.12712 0.790389,-3.23617 0.05039,-1.7791 -0.105919,-8.60186 -0.105919,-8.60186 0,0 -0.0064,-0.67354 0.679357,-0.81028 0.815045,-0.16467 7.956997,-1.54314 7.956997,-1.54314 0,0 0.490568,-0.11501 0.490568,0.34501 0,0.46001 0.138226,6.34135 -0.04672,7.24523 -0.06151,0.30064 -0.442326,0.49082 -0.747534,0.55202 -0.955242,0.19153 -2.001184,0.17062 -3.03686,0.92003 -1.390426,1.16876 -0.832433,3.22797 0.609173,3.9611 1.763243,0.65241 4.034611,-0.26375 4.296524,-2.16704 0.116803,-0.57502 0.215462,-10.17035 0.07009,-15.18049 -0.0071,-0.2444 -0.163523,-0.52902 -0.560649,-0.48302 -0.397129,0.046 -10.138439,1.97807 -10.138439,1.97807 0,0 -0.584011,0.16101 -0.630732,0.69003 -0.04672,0.52901 -0.122399,11.6011 -0.122399,11.6011 0,0 0.05233,0.56628 -0.695215,0.70429 -0.747535,0.138 -2.0800466,0.16366 -3.0368581,0.94302 -1.8071042,1.71535 -0.6269013,4.12407 1.6352281,4.07114 z"
         style="fill:url(#linearGradient1364);fill-opacity:1;stroke:#053f80;stroke-width:0.1;stroke-linecap:butt;stroke-linejoin:miter;stroke-miterlimit:4;stroke-dasharray:none;stroke-opacity:1" />
    </g>
  </g>
</svg>
