<?xml version="1.0" encoding="UTF-8" standalone="no"?>
<!-- Created with Inkscape (http://www.inkscape.org/) -->

<svg
   xmlns:dc="http://purl.org/dc/elements/1.1/"
   xmlns:cc="http://creativecommons.org/ns#"
   xmlns:rdf="http://www.w3.org/1999/02/22-rdf-syntax-ns#"
   xmlns:svg="http://www.w3.org/2000/svg"
   xmlns="http://www.w3.org/2000/svg"
   xmlns:xlink="http://www.w3.org/1999/xlink"
   xmlns:sodipodi="http://sodipodi.sourceforge.net/DTD/sodipodi-0.dtd"
   xmlns:inkscape="http://www.inkscape.org/namespaces/inkscape"
   width="128"
   height="128"
   viewBox="0 0 33.866666 33.866668"
   version="1.1"
   id="svg8"
   inkscape:version="0.92.2 5c3e80d, 2017-08-06"
   sodipodi:docname="mailspring.svg">
  <defs
     id="defs2">
    <linearGradient
       inkscape:collect="always"
       id="linearGradient1020">
      <stop
         style="stop-color:#ffaf1a;stop-opacity:1"
         offset="0"
         id="stop1016" />
      <stop
         style="stop-color:#ff8011;stop-opacity:1"
         offset="1"
         id="stop1018" />
    </linearGradient>
    <linearGradient
       inkscape:collect="always"
       xlink:href="#linearGradient1020"
       id="linearGradient1022"
       x1="60.287086"
       y1="269.93997"
       x2="62.77776"
       y2="278.60611"
       gradientUnits="userSpaceOnUse"
       gradientTransform="translate(-44.130002,7.4131995)" />
  </defs>
  <sodipodi:namedview
     id="base"
     pagecolor="#ffffff"
     bordercolor="#666666"
     borderopacity="1.0"
     inkscape:pageopacity="0.0"
     inkscape:pageshadow="2"
     inkscape:zoom="1.6898438"
     inkscape:cx="-20.606886"
     inkscape:cy="58.981022"
     inkscape:document-units="mm"
     inkscape:current-layer="layer1"
     showgrid="false"
     inkscape:window-width="1600"
     inkscape:window-height="803"
     inkscape:window-x="0"
     inkscape:window-y="0"
     inkscape:window-maximized="1"
     units="px" />
  <metadata
     id="metadata5">
    <rdf:RDF>
      <cc:Work
         rdf:about="">
        <dc:format>image/svg+xml</dc:format>
        <dc:type
           rdf:resource="http://purl.org/dc/dcmitype/StillImage" />
        <dc:title />
      </cc:Work>
    </rdf:RDF>
  </metadata>
  <g
     inkscape:label="Layer 1"
     inkscape:groupmode="layer"
     id="layer1"
     transform="translate(0,-263.13332)">
    <rect
       ry="1.4044232"
       y="269.22748"
       x="1.0583329"
       height="22.182304"
       width="31.75"
       id="rect930"
       style="opacity:0.25;fill:#000000;fill-opacity:1;fill-rule:nonzero;stroke:none;stroke-width:0.19032511;stroke-miterlimit:4;stroke-dasharray:none;stroke-opacity:1" />
    <rect
       style="opacity:1;fill:#0288d1;fill-opacity:1;fill-rule:nonzero;stroke:none;stroke-width:0.19032511;stroke-miterlimit:4;stroke-dasharray:none;stroke-opacity:1"
       id="rect880"
       width="31.75"
       height="22.182304"
       x="1.0583329"
       y="268.72351"
       ry="1.4044232" />
    <path
       style="opacity:1;fill:#079be0;fill-opacity:1;fill-rule:nonzero;stroke:none;stroke-width:0.1903251;stroke-miterlimit:4;stroke-dasharray:none;stroke-opacity:1"
       d="M 16.933285,274.94256 1.9107142,290.7937 c 0.1693428,0.0721 0.3558476,0.11219 0.5521047,0.11219 H 31.403894 c 0.196257,0 0.382771,-0.0401 0.552105,-0.11219 z"
       id="rect913"
       inkscape:connector-curvature="0" />
    <path
       id="path918"
       d="m 2.4613522,268.72353 c -0.6287047,0 -1.158019,0.47093 -1.3381999,1.12412 l 15.7885037,16.78117 15.815343,-16.8239 c -0.191258,-0.63058 -0.709867,-1.08139 -1.324572,-1.08139 z"
       style="opacity:0.25;fill:#000000;fill-opacity:1;fill-rule:nonzero;stroke:none;stroke-width:0.1903251;stroke-miterlimit:4;stroke-dasharray:none;stroke-opacity:1"
       inkscape:connector-curvature="0" />
    <path
       style="opacity:1;fill:#017fca;fill-opacity:1;fill-rule:nonzero;stroke:none;stroke-width:0.1903251;stroke-miterlimit:4;stroke-dasharray:none;stroke-opacity:1"
       d="m 2.4613522,268.72353 c -0.6287047,0 -1.158019,0.40916 -1.3381999,0.97668 l 15.7885037,14.58011 15.815343,-14.61724 c -0.191258,-0.54787 -0.709867,-0.93955 -1.324572,-0.93955 z"
       id="rect884"
       inkscape:connector-curvature="0" />
    <circle
       r="5.9797845"
       cy="282.2002"
       cx="16.933334"
       id="circle1032"
       style="opacity:0.25;fill:#000000;fill-opacity:1;stroke:none;stroke-width:0.21823861;stroke-miterlimit:4;stroke-dasharray:none;stroke-dashoffset:0;stroke-opacity:1" />
    <circle
       style="opacity:1;fill:url(#linearGradient1022);fill-opacity:1;stroke:none;stroke-width:0.21823861;stroke-miterlimit:4;stroke-dasharray:none;stroke-dashoffset:0;stroke-opacity:1"
       id="path1007"
       cx="16.933334"
       cy="281.67102"
       r="5.9797845" />
    <g
       aria-label="@"
       style="font-style:normal;font-weight:normal;font-size:10.58333302px;line-height:1.25;font-family:sans-serif;letter-spacing:0px;word-spacing:0px;opacity:1;fill:#fff8e1;fill-opacity:1;stroke:none;stroke-width:0.26458332"
       id="text1011"
       transform="matrix(0.9267061,0,0,0.9267061,76.492568,19.857703)">
      <path
         d="m -62.419803,286.60276 v 0.60978 q -0.868164,0.21705 -1.539957,0.21705 -2.010213,0 -3.219442,-1.29708 -1.204061,-1.29191 -1.204061,-3.45199 0,-2.16007 1.291911,-3.61218 1.291911,-1.45728 3.209106,-1.45728 1.658814,0 2.692343,1.17823 1.033528,1.17305 1.033528,3.06441 0,1.49345 -0.490926,2.32544 -0.490926,0.83199 -1.374593,0.83199 -0.873332,0 -1.260905,-1.04903 -0.800985,1.04903 -1.627808,1.04903 -0.65629,0 -1.043863,-0.5426 -0.387574,-0.54261 -0.387574,-1.46245 0,-1.36942 0.713135,-2.23242 0.713135,-0.86299 1.844849,-0.86299 0.403076,0 1.204061,0.093 v 2.66134 l 0.0052,0.48059 q 0,0.72864 0.139527,0.99219 0.144694,0.26355 0.537434,0.26355 1.136882,0 1.136882,-2.2841 0,-1.86552 -0.81132,-2.87838 -0.81132,-1.01802 -2.304769,-1.01802 -1.679484,0 -2.790527,1.26607 -1.105876,1.2609 -1.105876,3.1781 0,1.90686 1.023194,3.03341 1.023193,1.13171 2.759521,1.13171 0.692464,0 1.570963,-0.22738 z m -0.925008,-5.99446 q -0.403076,-0.093 -0.625284,-0.093 -1.576132,0 -1.576132,2.41846 0,1.39009 0.826823,1.39009 0.769979,0 1.374593,-1.22473 z"
         style="font-style:normal;font-variant:normal;font-weight:normal;font-stretch:normal;font-family:'Lucida Grande';-inkscape-font-specification:'Lucida Grande';fill:#fff8e1;fill-opacity:1;stroke-width:0.26458332"
         id="path1013"
         inkscape:connector-curvature="0" />
    </g>
  </g>
</svg>
