<?xml version="1.0" encoding="UTF-8" standalone="no"?>
<!-- Created with Inkscape (http://www.inkscape.org/) -->

<svg
   xmlns:dc="http://purl.org/dc/elements/1.1/"
   xmlns:cc="http://creativecommons.org/ns#"
   xmlns:rdf="http://www.w3.org/1999/02/22-rdf-syntax-ns#"
   xmlns:svg="http://www.w3.org/2000/svg"
   xmlns="http://www.w3.org/2000/svg"
   xmlns:xlink="http://www.w3.org/1999/xlink"
   xmlns:sodipodi="http://sodipodi.sourceforge.net/DTD/sodipodi-0.dtd"
   xmlns:inkscape="http://www.inkscape.org/namespaces/inkscape"
   width="128"
   height="128"
   viewBox="0 0 33.866666 33.866668"
   version="1.1"
   id="svg8"
   inkscape:version="0.92.2 5c3e80d, 2017-08-06"
   sodipodi:docname="s.svg">
  <defs
     id="defs2">
    <linearGradient
       id="linearGradient836">
      <stop
         id="stop1029"
         style="stop-color:#297fb1"
         offset="0" />
      <stop
         id="stop1031"
         style="stop-color:#50a6d6"
         offset="1" />
    </linearGradient>
    <linearGradient
       inkscape:collect="always"
       xlink:href="#linearGradient836"
       id="linearGradient1187"
       x1="-139.60451"
       y1="27.847731"
       x2="-141.02132"
       y2="-27.714769"
       gradientUnits="userSpaceOnUse"
       gradientTransform="matrix(0.51141057,0,0,0.51141057,-0.92796286,-50.393063)" />
  </defs>
  <sodipodi:namedview
     id="base"
     pagecolor="#ffffff"
     bordercolor="#666666"
     borderopacity="1.0"
     inkscape:pageopacity="0.0"
     inkscape:pageshadow="2"
     inkscape:zoom="2.8"
     inkscape:cx="55.624235"
     inkscape:cy="72.61131"
     inkscape:document-units="mm"
     inkscape:current-layer="layer1"
     showgrid="false"
     units="px"
     inkscape:window-width="1600"
     inkscape:window-height="803"
     inkscape:window-x="0"
     inkscape:window-y="0"
     inkscape:window-maximized="1" />
  <metadata
     id="metadata5">
    <rdf:RDF>
      <cc:Work
         rdf:about="">
        <dc:format>image/svg+xml</dc:format>
        <dc:type
           rdf:resource="http://purl.org/dc/dcmitype/StillImage" />
        <dc:title></dc:title>
      </cc:Work>
    </rdf:RDF>
  </metadata>
  <g
     inkscape:label="Layer 1"
     inkscape:groupmode="layer"
     id="layer1"
     transform="translate(0,-263.13332)">
    <g
       id="g1206"
       transform="matrix(0.98703297,0,0,0.98703297,89.439464,329.27471)">
      <rect
         style="opacity:0.25;fill:#000000;fill-opacity:1;stroke:none;stroke-width:0.10174704;stroke-miterlimit:4;stroke-dasharray:none;stroke-dashoffset:0;stroke-opacity:1"
         id="rect1200"
         width="31.75"
         height="31.537945"
         x="-89.333672"
         y="-65.308914"
         ry="3.4691606" />
      <rect
         ry="3.4691606"
         y="-65.838081"
         x="-89.333672"
         height="31.537945"
         width="31.75"
         id="rect1168"
         style="opacity:1;fill:url(#linearGradient1187);fill-opacity:1;stroke:#154059;stroke-width:0.2;stroke-miterlimit:4;stroke-dasharray:none;stroke-dashoffset:0;stroke-opacity:1" />
      <path
         inkscape:connector-curvature="0"
         d="m -83.958512,-60.69007 c -0.96946,-0.02056 -1.424023,0.649693 -1.224429,1.805117 0.06442,0.372421 0.390508,0.904664 1.093723,1.785789 0.782008,0.979495 1.096699,1.514712 1.437401,2.441428 0.537201,1.460693 0.785481,1.95131 1.221458,2.407236 0.339464,0.355572 0.339464,0.35681 0.111503,1.080344 -0.352843,1.121229 -0.425938,3.36988 -0.142479,4.427922 0.423714,1.58211 0.946544,2.300687 1.675028,2.300687 0.519113,0 0.945307,-0.434863 1.097697,-1.119988 0.05327,-0.237874 0.15238,-0.57734 0.220525,-0.754506 0.117702,-0.307254 0.14991,-0.283715 0.612031,0.470793 0.267606,0.437342 0.779282,1.089014 1.134856,1.447064 0.822645,0.828842 1.951312,1.761753 2.033077,1.682462 0.03467,-0.03345 -0.294864,-0.522823 -0.73097,-1.089015 -0.4361,-0.56619 -1.257507,-1.88193 -1.827418,-2.922629 -0.664056,-1.215386 -1.113791,-1.894319 -1.255027,-1.895558 -0.45964,-0.0025 -0.887072,0.718578 -1.134856,1.916621 -0.28619,1.380169 -0.789193,1.148484 -1.19804,-0.551324 -0.235403,-0.97999 -0.112746,-2.299448 0.327072,-3.535895 0.199466,-0.561235 0.363004,-1.081584 0.363004,-1.153443 0,-0.07186 -0.319636,-0.673975 -0.709899,-1.33804 -0.390262,-0.665304 -0.848788,-1.606888 -1.018402,-2.093786 -0.412064,-1.181936 -0.607694,-1.526358 -1.434926,-2.531003 -0.852256,-1.034257 -0.932905,-1.511987 -0.2541,-1.507527 0.527162,0.0036 1.378057,0.35867 2.232916,0.934027 0.542653,0.364369 0.726009,0.413802 1.595739,0.413802 1.091493,0 1.325653,0.08945 2.84086,1.086539 1.541223,1.015672 2.690945,1.959734 3.486337,2.865389 0.706187,0.804062 1.092731,1.504056 3.172894,5.768445 0.797861,1.63662 1.505296,2.427056 2.481563,2.765283 1.509019,0.522828 2.021933,0.759461 2.685995,1.236448 l 0.702474,0.504245 -0.472027,0.09168 c -0.26018,0.04956 -0.828843,0.131328 -1.261231,0.18088 -0.900696,0.104072 -1.490429,0.478226 -1.490429,0.946542 0,0.527784 1.797685,2.038038 3.60032,3.02422 0.86725,0.474508 1.699811,0.941584 1.852196,1.038223 0.403892,0.26017 0.512914,0.227958 0.408847,-0.112746 -0.219293,-0.716096 -0.957693,-1.412378 -3.010597,-2.843333 -1.204234,-0.839993 -1.216625,-0.80902 0.39151,-0.968842 1.147242,-0.113983 1.725822,-0.30973 1.725822,-0.584775 0,-0.126367 -0.582297,-0.797868 -1.294677,-1.490426 -1.115039,-1.086542 -1.491672,-1.355388 -2.719446,-1.953791 -1.672548,-0.812735 -2.282103,-1.458216 -2.66741,-2.82847 -0.574862,-2.044227 -2.12104,-4.44403 -4.176419,-6.479586 -2.121045,-2.101839 -4.146691,-3.263953 -6.0026,-3.446075 -0.75451,-0.07409 -1.144772,-0.188564 -1.535035,-0.452579 -0.660594,-0.447377 -2.195005,-0.951992 -2.944431,-0.96785 z m 3.67044,3.719258 c -0.151142,-0.0098 -0.28371,0.0099 -0.374153,0.0731 -0.339464,0.231679 -0.298582,0.514155 0.09912,0.688843 0.187079,0.08301 0.452205,0.374156 0.589728,0.64672 0.464601,0.915567 1.176981,0.302298 0.85982,-0.740878 -0.10036,-0.328316 -0.718583,-0.638047 -1.174511,-0.667782 z"
         style="opacity:0.25;isolation:isolate;fill:#000000;stroke-width:0.13531071"
         id="path1198" />
      <path
         id="path1070"
         style="isolation:isolate;fill:#ffffff;stroke-width:0.13531071"
         d="m -83.958512,-61.219237 c -0.96946,-0.02056 -1.424023,0.649693 -1.224429,1.805117 0.06442,0.372421 0.390508,0.904664 1.093723,1.785789 0.782008,0.979495 1.096699,1.514712 1.437401,2.441428 0.537201,1.460693 0.785481,1.95131 1.221458,2.407236 0.339464,0.355572 0.339464,0.35681 0.111503,1.080344 -0.352843,1.121229 -0.425938,3.36988 -0.142479,4.427922 0.423714,1.58211 0.946544,2.300687 1.675028,2.300687 0.519113,0 0.945307,-0.434863 1.097697,-1.119988 0.05327,-0.237874 0.15238,-0.57734 0.220525,-0.754506 0.117702,-0.307254 0.14991,-0.283715 0.612031,0.470793 0.267606,0.437342 0.779282,1.089014 1.134856,1.447064 0.822645,0.828842 1.951312,1.761753 2.033077,1.682462 0.03467,-0.03345 -0.294864,-0.522823 -0.73097,-1.089015 -0.4361,-0.56619 -1.257507,-1.88193 -1.827418,-2.922629 -0.664056,-1.215386 -1.113791,-1.894319 -1.255027,-1.895558 -0.45964,-0.0025 -0.887072,0.718578 -1.134856,1.916621 -0.28619,1.380169 -0.789193,1.148484 -1.19804,-0.551324 -0.235403,-0.97999 -0.112746,-2.299448 0.327072,-3.535895 0.199466,-0.561235 0.363004,-1.081584 0.363004,-1.153443 0,-0.07186 -0.319636,-0.673975 -0.709899,-1.33804 -0.390262,-0.665304 -0.848788,-1.606888 -1.018402,-2.093786 -0.412064,-1.181936 -0.607694,-1.526358 -1.434926,-2.531003 -0.852256,-1.034257 -0.932905,-1.511987 -0.2541,-1.507527 0.527162,0.0036 1.378057,0.35867 2.232916,0.934027 0.542653,0.364369 0.726009,0.413802 1.595739,0.413802 1.091493,0 1.325653,0.08945 2.84086,1.086539 1.541223,1.015672 2.690945,1.959734 3.486337,2.865389 0.706187,0.804062 1.092731,1.504056 3.172894,5.768445 0.797861,1.63662 1.505296,2.427056 2.481563,2.765283 1.509019,0.522828 2.021933,0.759461 2.685995,1.236448 l 0.702474,0.504245 -0.472027,0.09168 c -0.26018,0.04956 -0.828843,0.131328 -1.261231,0.18088 -0.900696,0.104072 -1.490429,0.478226 -1.490429,0.946542 0,0.527784 1.797685,2.038038 3.60032,3.02422 0.86725,0.474508 1.699811,0.941584 1.852196,1.038223 0.403892,0.26017 0.512914,0.227958 0.408847,-0.112746 -0.219293,-0.716096 -0.957693,-1.412378 -3.010597,-2.843333 -1.204234,-0.839993 -1.216625,-0.80902 0.39151,-0.968842 1.147242,-0.113983 1.725822,-0.30973 1.725822,-0.584775 0,-0.126367 -0.582297,-0.797868 -1.294677,-1.490426 -1.115039,-1.086542 -1.491672,-1.355388 -2.719446,-1.953791 -1.672548,-0.812735 -2.282103,-1.458216 -2.66741,-2.82847 -0.574862,-2.044227 -2.12104,-4.44403 -4.176419,-6.479586 -2.121045,-2.101839 -4.146691,-3.263953 -6.0026,-3.446075 -0.75451,-0.07409 -1.144772,-0.188564 -1.535035,-0.452579 -0.660594,-0.447377 -2.195005,-0.951992 -2.944431,-0.96785 z m 3.67044,3.719258 c -0.151142,-0.0098 -0.28371,0.0099 -0.374153,0.0731 -0.339464,0.231679 -0.298582,0.514155 0.09912,0.688843 0.187079,0.08301 0.452205,0.374156 0.589728,0.64672 0.464601,0.915567 1.176981,0.302298 0.85982,-0.740878 -0.10036,-0.328316 -0.718583,-0.638047 -1.174511,-0.667782 z"
         inkscape:connector-curvature="0" />
    </g>
  </g>
</svg>
