<?xml version="1.0" encoding="UTF-8" standalone="no"?>
<!-- Created with Inkscape (http://www.inkscape.org/) -->

<svg
   xmlns:dc="http://purl.org/dc/elements/1.1/"
   xmlns:cc="http://creativecommons.org/ns#"
   xmlns:rdf="http://www.w3.org/1999/02/22-rdf-syntax-ns#"
   xmlns:svg="http://www.w3.org/2000/svg"
   xmlns="http://www.w3.org/2000/svg"
   xmlns:sodipodi="http://sodipodi.sourceforge.net/DTD/sodipodi-0.dtd"
   xmlns:inkscape="http://www.inkscape.org/namespaces/inkscape"
   width="128"
   height="128"
   viewBox="0 0 33.866666 33.866668"
   version="1.1"
   id="svg837"
   inkscape:version="0.92.2 5c3e80d, 2017-08-06"
   sodipodi:docname="onboard.svg">
  <defs
     id="defs831" />
  <sodipodi:namedview
     id="base"
     pagecolor="#ffffff"
     bordercolor="#666666"
     borderopacity="1.0"
     inkscape:pageopacity="0.0"
     inkscape:pageshadow="2"
     inkscape:zoom="0.49497475"
     inkscape:cx="603.28369"
     inkscape:cy="110.74049"
     inkscape:document-units="mm"
     inkscape:current-layer="layer1"
     showgrid="false"
     inkscape:window-width="1600"
     inkscape:window-height="803"
     inkscape:window-x="0"
     inkscape:window-y="0"
     inkscape:window-maximized="1"
     units="px" />
  <metadata
     id="metadata834">
    <rdf:RDF>
      <cc:Work
         rdf:about="">
        <dc:format>image/svg+xml</dc:format>
        <dc:type
           rdf:resource="http://purl.org/dc/dcmitype/StillImage" />
        <dc:title></dc:title>
      </cc:Work>
    </rdf:RDF>
  </metadata>
  <g
     inkscape:label="Layer 1"
     inkscape:groupmode="layer"
     id="layer1"
     transform="translate(0,-263.13332)">
    <g
       transform="matrix(0.38805556,0,0,0.38805556,167.77355,114.86688)"
       id="layer1-6"
       inkscape:label="Capa 1" />
    <g
       transform="matrix(-0.38805556,0,0,0.38805556,180.98508,114.86688)"
       id="layer1-6-2"
       inkscape:label="Capa 1" />
    <g
       transform="matrix(0.38805556,0,0,-0.38805556,167.77355,346.91705)"
       id="layer1-6-27"
       inkscape:label="Capa 1" />
    <g
       transform="matrix(-0.38805556,0,0,-0.38805556,180.98508,346.91705)"
       id="layer1-6-2-3"
       inkscape:label="Capa 1" />
    <g
       id="g1618"
       transform="matrix(1.0511486,0,0,1.0511486,-268.65506,37.033356)">
      <rect
         style="opacity:0.25;fill:#000000;fill-opacity:0.98522171;stroke:none;stroke-width:0.30000001;stroke-miterlimit:4;stroke-dasharray:none;stroke-dashoffset:0;stroke-opacity:1"
         id="rect1597"
         width="13.394531"
         height="13.890625"
         x="257.44412"
         y="216.784"
         ry="1.7008928" />
      <rect
         ry="1.7008928"
         y="216.784"
         x="272.54483"
         height="13.890625"
         width="13.394531"
         id="rect1599"
         style="opacity:0.25;fill:#000000;fill-opacity:1;stroke:none;stroke-width:0.30000001;stroke-miterlimit:4;stroke-dasharray:none;stroke-dashoffset:0;stroke-opacity:1" />
      <rect
         style="opacity:0.25;fill:#000000;fill-opacity:1;stroke:none;stroke-width:0.30000001;stroke-miterlimit:4;stroke-dasharray:none;stroke-dashoffset:0;stroke-opacity:1"
         id="rect1601"
         width="13.394531"
         height="13.890625"
         x="272.54483"
         y="232.41927"
         ry="1.7008928" />
      <rect
         ry="1.7008928"
         y="232.41927"
         x="257.44412"
         height="13.890625"
         width="13.394531"
         id="rect1603"
         style="opacity:0.25;fill:#000000;fill-opacity:1;stroke:none;stroke-width:0.30000001;stroke-miterlimit:4;stroke-dasharray:none;stroke-dashoffset:0;stroke-opacity:1" />
      <rect
         ry="1.7008928"
         y="216.25484"
         x="257.44412"
         height="13.890625"
         width="13.394531"
         id="rect1546"
         style="opacity:1;fill:#5454ff;fill-opacity:0.76078431;stroke:#000000;stroke-width:0.30000001;stroke-miterlimit:4;stroke-dasharray:none;stroke-dashoffset:0;stroke-opacity:1" />
      <rect
         style="opacity:1;fill:#ffaacc;fill-opacity:1;stroke:#000000;stroke-width:0.30000001;stroke-miterlimit:4;stroke-dasharray:none;stroke-dashoffset:0;stroke-opacity:1"
         id="rect1548"
         width="13.394531"
         height="13.890625"
         x="272.54483"
         y="216.25484"
         ry="1.7008928" />
      <rect
         ry="1.7008928"
         y="231.89011"
         x="272.54483"
         height="13.890625"
         width="13.394531"
         id="rect1550"
         style="opacity:1;fill:#008aff;fill-opacity:1;stroke:#000000;stroke-width:0.30000001;stroke-miterlimit:4;stroke-dasharray:none;stroke-dashoffset:0;stroke-opacity:1" />
      <rect
         style="opacity:1;fill:#ffaacc;fill-opacity:1;stroke:#000000;stroke-width:0.30000001;stroke-miterlimit:4;stroke-dasharray:none;stroke-dashoffset:0;stroke-opacity:1"
         id="rect1552"
         width="13.394531"
         height="13.890625"
         x="257.44412"
         y="231.89011"
         ry="1.7008928" />
      <path
         sodipodi:nodetypes="ssscccsssscccsssscccsssscccsssscsssssscsscccccscsssscssssc"
         id="rect993-9"
         d="m 260.08891,234.46168 c -0.57878,0 -1.04474,0.46596 -1.04474,1.04474 0,0.57879 0.46596,1.04474 1.04474,1.04474 h 0.41791 v 0.20896 1.46265 h -0.41791 c -0.57878,0 -1.04474,0.46595 -1.04474,1.04474 0,0.57878 0.46596,1.04474 1.04474,1.04474 0.5788,0 1.04475,-0.46596 1.04475,-1.04474 v -0.4179 h 0.20895 1.46265 v 0.4179 c 0,0.57878 0.46595,1.04474 1.04475,1.04474 0.57878,0 1.04474,-0.46596 1.04474,-1.04474 0,-0.57879 -0.46596,-1.04474 -1.04474,-1.04474 h -0.41791 v -0.20896 -1.46265 h 0.41791 c 0.57878,0 1.04474,-0.46595 1.04474,-1.04474 0,-0.57878 -0.46596,-1.04474 -1.04474,-1.04474 -0.5788,0 -1.04475,0.46596 -1.04475,1.04474 v 0.4179 h -1.46265 -0.20895 v -0.4179 c 0,-0.57878 -0.46595,-1.04474 -1.04475,-1.04474 z m 0,0.62685 c 0.23153,0 0.41791,0.18637 0.41791,0.41789 v 0.4179 h -0.41791 c -0.23151,0 -0.41789,-0.18638 -0.41789,-0.4179 0,-0.23152 0.18638,-0.41789 0.41789,-0.41789 z m 3.7611,0 c 0.23151,0 0.41789,0.18637 0.41789,0.41789 0,0.23152 -0.18638,0.4179 -0.41789,0.4179 h -0.41791 v -0.4179 c 0,-0.23152 0.18638,-0.41789 0.41791,-0.41789 z m -2.71635,1.46263 h 1.6716 v 1.67161 h -1.6716 z m -1.04475,2.29845 h 0.41791 v 0.4179 c 0,0.23151 -0.18638,0.41789 -0.41791,0.41789 -0.23151,0 -0.41789,-0.18638 -0.41789,-0.41789 0,-0.23152 0.18638,-0.4179 0.41789,-0.4179 z m 3.34319,0 h 0.41791 c 0.23151,0 0.41789,0.18638 0.41789,0.4179 0,0.23151 -0.18638,0.41789 -0.41789,0.41789 -0.23153,0 -0.41791,-0.18638 -0.41791,-0.41789 z"
         style="opacity:1;vector-effect:none;fill:#000000;fill-opacity:1;stroke:none;stroke-width:0.41789809;stroke-linecap:round;stroke-linejoin:round;stroke-miterlimit:4;stroke-dasharray:none;stroke-dashoffset:0;stroke-opacity:1"
         inkscape:connector-curvature="0" />
      <g
         id="text1585"
         style="font-style:normal;font-weight:normal;font-size:7.61020184px;line-height:1.25;font-family:sans-serif;letter-spacing:0px;word-spacing:0px;fill:#000000;fill-opacity:1;stroke:none;stroke-width:0.19025503"
         aria-label="O">
        <path
           id="path1594"
           style="font-style:normal;font-variant:normal;font-weight:normal;font-stretch:normal;font-family:'Lucida Grande';-inkscape-font-specification:'Lucida Grande';stroke-width:0.19025503"
           d="m 262.47149,225.08829 q -1.14451,0 -1.8431,-0.79149 -0.69488,-0.7952 -0.69488,-2.09949 0,-1.31172 0.6986,-2.09578 0.70231,-0.78777 1.87282,-0.78777 1.1668,0 1.86911,0.78406 0.70231,0.78405 0.70231,2.09206 0,1.33401 -0.70231,2.11807 -0.70231,0.78034 -1.90255,0.78034 z m 0.0111,-0.58339 q 0.84352,0 1.30429,-0.6057 0.46078,-0.60941 0.46078,-1.71675 0,-1.0739 -0.46449,-1.6796 -0.46078,-0.60569 -1.27828,-0.60569 -0.82122,0 -1.28199,0.60941 -0.46078,0.60569 -0.46078,1.68702 0,1.07762 0.45706,1.69446 0.45706,0.61685 1.26341,0.61685 z"
           inkscape:connector-curvature="0" />
      </g>
      <g
         id="text1589"
         style="font-style:normal;font-weight:normal;font-size:7.61020184px;line-height:1.25;font-family:sans-serif;letter-spacing:0px;word-spacing:0px;fill:#000000;fill-opacity:1;stroke:none;stroke-width:0.19025503"
         aria-label="B">
        <path
           id="path1591"
           style="font-style:normal;font-variant:normal;font-weight:normal;font-stretch:normal;font-family:'Lucida Grande';-inkscape-font-specification:'Lucida Grande';stroke-width:0.19025503"
           d="m 274.95663,240.58607 v -5.49956 h 1.42691 q 0.82493,0 1.26341,0.31214 0.4422,0.31214 0.4422,0.89925 0,0.99959 -1.12964,1.4232 1.34888,0.41247 1.34888,1.49008 0,0.66887 -0.44591,1.02188 -0.44591,0.35301 -1.28571,0.35301 z m 0.77291,-0.58339 h 0.15978 q 0.85838,0 1.11106,-0.10777 0.48307,-0.20437 0.48307,-0.75804 0,-0.4905 -0.43848,-0.81379 -0.43847,-0.327 -1.09619,-0.327 h -0.21924 z m 0,-2.50082 h 0.24897 q 0.62427,0 0.96613,-0.26754 0.34558,-0.26755 0.34558,-0.75434 0,-0.81007 -1.25598,-0.81007 h -0.3047 z"
           inkscape:connector-curvature="0" />
      </g>
    </g>
  </g>
</svg>
