<?xml version="1.0" encoding="UTF-8" standalone="no"?>
<!-- Created with Inkscape (http://www.inkscape.org/) -->

<svg
   xmlns:osb="http://www.openswatchbook.org/uri/2009/osb"
   xmlns:dc="http://purl.org/dc/elements/1.1/"
   xmlns:cc="http://creativecommons.org/ns#"
   xmlns:rdf="http://www.w3.org/1999/02/22-rdf-syntax-ns#"
   xmlns:svg="http://www.w3.org/2000/svg"
   xmlns="http://www.w3.org/2000/svg"
   xmlns:sodipodi="http://sodipodi.sourceforge.net/DTD/sodipodi-0.dtd"
   xmlns:inkscape="http://www.inkscape.org/namespaces/inkscape"
   width="128"
   height="128"
   viewBox="0 0 33.866665 33.866665"
   version="1.1"
   id="svg4942"
   inkscape:version="0.92.2 5c3e80d, 2017-08-06"
   sodipodi:docname="application-network.svg"
   inkscape:export-filename="C:\Users\Balasakthi\Desktop\Network.png"
   inkscape:export-xdpi="96"
   inkscape:export-ydpi="96">
  <defs
     id="defs4936">
    <linearGradient
       id="linearGradient6088"
       osb:paint="solid">
      <stop
         style="stop-color:#51b3e3;stop-opacity:1;"
         offset="0"
         id="stop6086" />
    </linearGradient>
    <linearGradient
       id="linearGradient6987"
       osb:paint="solid">
      <stop
         style="stop-color:#77d2fb;stop-opacity:1;"
         offset="0"
         id="stop6985" />
    </linearGradient>
  </defs>
  <sodipodi:namedview
     id="base"
     pagecolor="#ffffff"
     bordercolor="#666666"
     borderopacity="1.0"
     inkscape:pageopacity="0.0"
     inkscape:pageshadow="2"
     inkscape:zoom="0.8111382"
     inkscape:cx="180.77868"
     inkscape:cy="-29.393972"
     inkscape:document-units="mm"
     inkscape:current-layer="layer1"
     showgrid="false"
     units="px"
     width="128px"
     inkscape:window-width="1600"
     inkscape:window-height="803"
     inkscape:window-x="0"
     inkscape:window-y="0"
     inkscape:window-maximized="1"
     showguides="false"
     inkscape:lockguides="true" />
  <metadata
     id="metadata4939">
    <rdf:RDF>
      <cc:Work
         rdf:about="">
        <dc:format>image/svg+xml</dc:format>
        <dc:type
           rdf:resource="http://purl.org/dc/dcmitype/StillImage" />
        <dc:title />
      </cc:Work>
    </rdf:RDF>
  </metadata>
  <g
     inkscape:label="Layer 1"
     inkscape:groupmode="layer"
     id="layer1"
     transform="translate(0,-263.13332)">
    <g
       id="g1708"
       transform="translate(-70.180707,5.341791)">
      <g
         transform="matrix(0.19961299,0,0,0.19961299,105.37118,247.72465)"
         id="g1006">
        <circle
           style="opacity:1;fill:#2f2f2f;fill-opacity:1;stroke:none;stroke-width:0.23338091;stroke-miterlimit:4;stroke-dasharray:none;stroke-dashoffset:0;stroke-opacity:1"
           id="path920"
           cx="-91.462685"
           cy="135.2628"
           r="79.528893" />
        <path
           style="opacity:1;fill:#cacaca;fill-opacity:1;stroke:none;stroke-width:0.88206959;stroke-miterlimit:4;stroke-dasharray:none;stroke-dashoffset:0;stroke-opacity:1"
           d="m -343.45312,287.375 c -2.69674,0.032 -5.37525,0.15969 -8.1543,0.38281 -7.41081,0.595 -15.53898,1.87531 -22.67383,3.50391 -7.13485,1.6286 -13.28088,3.60675 -18.26758,5.05859 -4.9867,1.45185 -8.81802,2.37777 -20.52148,7.01367 -11.70346,4.63591 -31.28225,12.98214 -45.74219,20.01172 -14.45994,7.02959 -23.80605,12.74607 -33.00195,19.33789 -9.19591,6.59183 -18.24473,14.06197 -27.35352,23.86719 -9.10879,9.80522 -18.2664,21.92889 -25.3418,33.73242 -7.07539,11.80354 -12.04309,23.2541 -15.87304,33.79688 -3.82995,10.54277 -6.52326,20.18134 -8.56446,28.64062 -2.04119,8.45929 -3.42952,15.74283 -4.35546,22.85547 -0.92595,7.11264 -1.38997,14.05811 -1.45313,19.61328 -0.0632,5.55517 0.27454,9.72248 0.42188,15.02539 0.14733,5.30292 0.10442,11.74417 0.79882,18.37305 0.69441,6.62889 2.12491,13.44892 3.89258,19.13086 1.76768,5.68194 3.87377,10.22747 5.49414,14.83594 1.62037,4.60847 2.75525,9.28065 5.34375,15.15234 2.5885,5.87169 6.63005,12.94309 10.52344,18.26758 3.89339,5.32449 7.64029,8.90102 11.77148,14.37305 4.1312,5.47203 8.60979,12.77888 9.28907,20.28906 0.67928,7.51018 -2.46479,14.98396 -6.78516,22.20117 -4.32037,7.21721 -9.7924,14.1208 -16.18945,19.88672 -6.39705,5.76592 -13.68554,10.37145 -19.80664,14.12891 -2.93807,1.80354 -5.57669,3.38985 -8.02539,4.76367 a 300.58164,300.58164 0 0 0 7.05468,8.02929 c 2.55031,-1.3597 5.11008,-2.82272 7.60352,-4.36328 6.60867,-4.08314 12.75233,-8.71113 18.49805,-13.88867 5.74571,-5.17754 11.08993,-10.90059 15.50976,-16.64648 4.41983,-5.7459 7.91211,-11.51069 10.08008,-16.1836 2.16797,-4.6729 3.00946,-8.2492 3.17773,-11.40625 0.16827,-3.15705 -0.33781,-5.89286 -2.67382,-11.51172 -2.33602,-5.61885 -6.50261,-14.12095 -10.13672,-20.39062 -3.63411,-6.26967 -6.73451,-10.30641 -9.9668,-15.07813 -3.23229,-4.77171 -6.595,-10.27706 -9.125,-15.20312 -2.52999,-4.92606 -4.22629,-9.27093 -5.55078,-14.46484 -1.32449,-5.19392 -2.27612,-11.23501 -3.22852,-19.61329 -0.95239,-8.37827 -1.90441,-19.09018 -2.02343,-30.28125 -0.11902,-11.19106 0.59398,-22.85818 2.32031,-34.64453 1.72633,-11.78634 4.4654,-23.68874 8.03711,-34.93945 3.57171,-11.25071 7.97545,-21.84539 13.27344,-32.20313 5.29798,-10.35773 11.48818,-20.47594 19.46484,-30.23828 7.97666,-9.76233 17.73525,-19.16453 26.07812,-26.16796 8.34288,-7.00344 15.26548,-11.60418 30.04883,-20.0918 14.78336,-8.48762 37.42427,-20.85971 53.0586,-28.6543 15.63432,-7.79459 24.25551,-11.00809 34.58203,-13.37109 10.32652,-2.363 22.3554,-3.87575 35.89062,-2.52149 13.53522,1.35426 28.57608,5.57541 40.05274,10.04297 11.47665,4.46756 19.38838,9.18052 27.21289,14.22656 7.8245,5.04605 15.56124,10.42414 26.29687,23.53321 10.73563,13.10907 24.47089,33.95056 35.53516,47.88281 11.06427,13.93225 19.45792,20.95649 25.41015,31.01563 5.95224,10.05913 9.46347,23.1551 11.9336,34.64257 2.47012,11.48748 3.89807,21.36795 3.54101,34.22461 -0.35706,12.85666 -2.47112,28.49045 -5.10351,40.31641 -2.63239,11.82595 -5.77058,19.54968 -8.9043,26.87891 -3.13372,7.32922 -6.39361,14.57138 -9.83594,20.29687 -3.44233,5.72549 -7.15843,10.13383 -13.52734,14.30078 -6.3689,4.16695 -15.4054,8.09864 -25.8457,10.85938 -10.44031,2.76073 -22.31515,4.36405 -33.14844,7.57812 -10.83329,3.21407 -20.62772,8.04043 -29.7793,13.2207 -9.15158,5.18028 -17.6633,10.71723 -25.49023,17.47266 -7.82693,6.75543 -14.97235,14.73235 -20.89453,22.5293 -5.92219,7.79695 -10.62514,15.41878 -13.7793,21.1914 -3.15416,5.77263 -4.76134,9.70126 -7.87891,20.69922 -3.11756,10.99797 -7.7461,29.06582 -8.86132,45.34375 -1.11523,16.27793 1.28283,30.76462 3.89648,41.03516 1.62681,6.39268 3.34497,11.16373 5.11133,16.01367 a 300.58164,300.58164 0 0 0 14.10156,0.70703 c -1.23875,-2.26342 -2.49847,-4.30508 -3.6914,-7.13281 -1.60729,-3.80993 -3.09895,-9.0631 -4.5254,-13.99609 -1.42645,-4.933 -2.79542,-9.57478 -3.50976,-14.24805 -0.71434,-4.67327 -0.77303,-9.37352 -0.92188,-13.30274 -0.14885,-3.92921 -0.38779,-7.08391 0.92188,-15.44726 1.30967,-8.36335 4.16647,-21.93277 6.48828,-31.51758 2.32181,-9.58481 4.10746,-15.17911 7.08398,-21.31055 2.97653,-6.13143 7.14298,-12.79561 11.96485,-19.34375 4.82187,-6.54813 10.29699,-12.97753 17.26172,-19.64453 6.96473,-6.66699 15.41654,-13.57072 25.47656,-19.28515 10.06002,-5.71444 21.725,-10.23776 31.9043,-13.19922 10.17929,-2.96146 18.75188,-4.34008 26.42968,-5.48047 7.67781,-1.1404 14.2226,-2.00409 19.28321,-2.79297 5.0606,-0.78888 8.63269,-1.50243 14.42773,-5.35742 5.79504,-3.855 13.81184,-10.84916 19.16992,-17.2793 5.35808,-6.43013 8.05124,-12.2896 10.70899,-18.43555 2.65775,-6.14594 5.27724,-12.57379 7.77734,-20.07421 2.5001,-7.50043 4.88046,-16.07116 6.9043,-26.36915 2.02383,-10.29798 3.69063,-22.32066 3.86914,-33.27343 0.17851,-10.95277 -1.1305,-20.832 -2.64844,-30.0586 -1.51794,-9.22659 -3.2435,-17.79778 -5.6543,-25.35742 -2.4108,-7.55964 -5.49518,-14.08483 -9.45898,-21.17969 -3.9638,-7.09485 -8.78551,-14.71368 -13.39844,-20.42773 -4.61293,-5.71405 -9.01896,-9.52398 -18.35547,-19.61133 -9.3365,-10.08734 -23.60291,-26.45094 -33.00976,-36.90625 -9.40686,-10.4553 -13.95409,-15.00216 -20.65039,-20.27344 -6.69631,-5.27127 -15.54252,-11.26903 -24.12696,-16.21093 -8.58443,-4.9419 -16.90598,-8.82731 -25.94726,-11.47461 -9.04129,-2.64731 -18.80519,-4.05618 -27.0332,-4.80469 -5.14251,-0.46782 -9.68708,-0.67831 -14.18164,-0.625 z"
           id="circle922"
           inkscape:connector-curvature="0"
           transform="scale(0.26458333)" />
        <path
           style="opacity:1;fill:#cacaca;fill-opacity:1;stroke:none;stroke-width:0.88206959;stroke-miterlimit:4;stroke-dasharray:none;stroke-dashoffset:0;stroke-opacity:1"
           d="m -443.86914,461.625 c -10.77784,-0.15395 -21.77977,1.79934 -31.16797,4.14453 -15.02112,3.7523 -25.90997,8.50809 -35.33398,13.84766 -9.42401,5.33956 -17.38522,11.26531 -24.60743,17.02343 -7.22221,5.75813 -13.71043,11.35406 -17.44336,16.56055 -3.73292,5.20649 -4.70964,10.02538 -10.73242,13.04492 -6.02278,3.01954 -17.09423,4.2408 -25.13281,4.17774 -8.03858,-0.0631 -13.04817,-1.41155 -18.89844,-3.15821 -5.85027,-1.74665 -12.54257,-3.89204 -20.51757,-7.23046 -6.21149,-2.6002 -13.14614,-5.89292 -18.54883,-8.36914 a 300.58164,300.58164 0 0 0 0.44336,12.52734 c 3.41201,1.5168 7.35681,3.2356 12.41406,5.17773 9.06008,3.47934 21.49341,7.59886 30.24219,10.19532 8.74877,2.59645 13.80744,3.66764 22.23046,3.07226 8.42303,-0.59538 20.20597,-2.856 28.02149,-6.83008 7.81552,-3.97407 11.65717,-9.65604 16.60937,-14.93945 4.95221,-5.28341 11.01183,-10.1655 18.79883,-15.76367 7.787,-5.59817 17.29777,-11.91018 27.65235,-16.49805 10.35457,-4.58787 21.55013,-7.45085 31.27343,-8.83984 9.72331,-1.38899 17.97114,-1.30466 23.73829,-0.92578 5.76714,0.37887 9.04901,1.05296 14.5625,4.33593 5.51348,3.28298 13.25751,9.17511 19.80468,13.96485 6.54718,4.78973 11.8969,8.47606 16.74414,12.75976 4.84725,4.28371 9.19262,9.1646 17.34766,15.74219 8.15503,6.57759 20.11931,14.85061 30.17187,21.7207 10.05257,6.8701 18.19301,12.33617 29.27149,19.04688 11.07848,6.71071 25.09373,14.66509 37.93164,21.27344 12.83791,6.60834 24.49506,11.86943 38.98242,19.23633 14.48737,7.36689 31.83885,16.85814 42.97656,23.24218 11.13772,6.38405 16.13227,9.69873 23.59375,13.34375 7.46148,3.64502 17.38604,7.61949 26.4375,10.36719 9.05146,2.7477 17.22277,4.26695 25.08985,5.17578 7.86708,0.90884 15.425725,1.20643 22.777341,1.74219 1.287713,0.0938 2.443011,0.19763 3.705078,0.30078 a 300.58164,300.58164 0 0 0 6.351563,-11.5957 c -1.340971,-0.001 -2.58553,-0.0137 -3.925781,-0.0137 -8.481595,0 -16.578628,-10e-4 -23.333981,-0.29883 -6.75536,-0.29757 -12.17171,-0.89136 -18.68946,-2.34961 -6.51775,-1.45826 -14.13734,-3.78057 -20.61718,-6.32617 -6.47985,-2.54561 -11.82029,-5.31482 -16.19532,-7.66602 -4.37502,-2.3512 -7.78647,-4.28436 -10.35351,-5.60742 -2.56704,-1.32306 -4.34266,-2.05859 -12.38281,-6.72071 -8.04016,-4.66211 -22.44608,-13.29409 -35.42188,-20.10937 -12.9758,-6.81528 -24.56793,-11.83424 -36.09375,-17.53906 -11.52582,-5.70483 -23.21381,-12.21273 -34.86914,-18.95899 -11.65533,-6.74626 -23.56022,-13.88917 -34.95899,-21.35937 -11.39876,-7.4702 -22.29282,-15.2669 -30.92382,-21.9336 -8.63101,-6.66669 -14.99989,-12.2017 -19.25586,-16.04101 -4.25598,-3.83931 -6.39923,-5.98284 -13.64844,-13.70899 -7.24921,-7.72614 -19.60334,-21.03614 -35.35742,-26.3164 -5.90778,-1.9801 -12.29502,-2.83146 -18.76172,-2.92383 z"
           transform="scale(0.26458333)"
           id="circle929"
           inkscape:connector-curvature="0" />
        <path
           style="opacity:1;fill:#cacaca;fill-opacity:1;stroke:none;stroke-width:0.88206959;stroke-miterlimit:4;stroke-dasharray:none;stroke-dashoffset:0;stroke-opacity:1"
           d="m -479.51953,242.22656 a 300.58164,300.58164 0 0 0 -9.67578,5.23242 c 2.97113,3.39596 6.72272,6.98471 10.10547,10.51954 3.97207,4.15064 7.42738,8.22529 11.01367,12.80859 3.58628,4.5833 7.30333,9.67537 10.45703,14.92969 3.1537,5.25431 5.7434,10.6723 11.97852,21.26758 6.23511,10.59527 16.11725,26.36958 22.63476,38.00585 6.51751,11.63628 9.67295,19.13648 12.11328,26.3086 2.44033,7.17212 4.1667,14.01851 5.625,22.85742 1.4583,8.83891 2.64837,19.68079 3.30274,28.36719 0.65436,8.6864 0.77378,15.23636 0.625,20.97851 -0.14879,5.74215 -0.56434,10.68411 -2.08204,16.9043 -1.51769,6.22019 -4.13817,13.72066 -7.4414,21.01172 -3.30323,7.29106 -7.29047,14.37501 -10.71289,21.78515 -3.42242,7.41015 -6.28111,15.14971 -8.54297,23.72071 -2.26186,8.571 -3.92754,17.97723 -4.93945,28.33398 -1.01192,10.35676 -1.36908,21.66591 -0.74414,32.32031 0.62493,10.65441 2.23091,20.65462 4.58203,30.77344 2.35111,10.11883 5.46421,20.4132 9.65234,30.56446 4.18813,10.15125 9.50896,20.31654 14.58594,29.1621 5.07698,8.84557 9.95865,16.46467 13.73828,22.23829 3.77963,5.77361 6.45896,9.70317 8.95898,12.94726 2.50002,3.24409 4.82036,5.8036 11.74024,10.23828 6.91988,4.43468 18.43684,10.74262 25.81836,14.82032 7.38152,4.07769 10.62651,5.92301 18.55468,8.74023 7.92818,2.81722 20.53883,6.60737 33.36719,9.24609 12.82836,2.63873 25.86772,4.1254 37.92969,4.82227 12.06197,0.69687 23.13844,0.60216 33.70508,-0.0723 10.56664,-0.67443 20.61736,-1.92754 29.66211,-3.29882 8.77005,-1.32965 16.64618,-2.77219 24.6875,-3.93946 a 300.58164,300.58164 0 0 0 13.52929,-10.25586 c -0.85832,0.11714 -1.7114,0.23053 -2.58593,0.35743 -10.73237,1.55721 -22.51983,3.83154 -33.82032,5.76757 -11.30049,1.93604 -22.11627,3.53546 -33.85937,4.20899 -11.7431,0.67353 -24.4135,0.41996 -37.38477,-0.69727 -12.97126,-1.11723 -26.24574,-3.09797 -37.97851,-5.58789 -11.73278,-2.48992 -21.92099,-5.4877 -27.28125,-7.35937 -5.36026,-1.87168 -5.88669,-2.6154 -13.14844,-8.24024 -7.26175,-5.62483 -21.25838,-16.13133 -29.12109,-22.51562 -7.86272,-6.38429 -9.58831,-8.64427 -13.3086,-14.03125 -3.72028,-5.38698 -9.43384,-13.89865 -13.77929,-20.86328 -4.34545,-6.96464 -7.34794,-12.42644 -10.49024,-19.3086 -3.1423,-6.88215 -6.47445,-15.27439 -8.97461,-22.80469 -2.50016,-7.53029 -4.16749,-14.19705 -5.73828,-24.73242 -1.57079,-10.53537 -3.04459,-24.93605 -3.07422,-36.54492 -0.0296,-11.60886 1.38587,-20.41794 2.91406,-28.64453 1.5282,-8.22659 3.16753,-15.86502 5.01368,-21.84961 1.84615,-5.98459 3.89256,-10.30314 5.51367,-13.12109 1.62111,-2.81795 2.81289,-4.12691 4.41992,-7.49024 1.60703,-3.36333 3.62929,-8.77935 6.84375,-16.13086 3.21446,-7.3515 7.61884,-16.63512 9.52344,-27.55859 1.90459,-10.92347 1.31056,-23.48038 0.5664,-33.06445 -0.74415,-9.58408 -1.63712,-16.19141 -2.85742,-23.42383 -1.2203,-7.23243 -2.76737,-15.08962 -4.57422,-22.90625 -1.80685,-7.81663 -3.87415,-15.59039 -11.67187,-30.67969 -7.79773,-15.0893 -21.32478,-37.49182 -28.78906,-50.09375 -7.46429,-12.60193 -8.86398,-15.40162 -11.99414,-20.23242 -3.13017,-4.8308 -7.991,-11.6927 -14.13282,-18.65039 -4.94124,-5.59764 -10.67474,-11.22486 -14.45898,-15.14063 z"
           transform="scale(0.26458333)"
           id="circle948"
           inkscape:connector-curvature="0" />
        <path
           style="opacity:1;fill:#cacaca;fill-opacity:1;stroke:none;stroke-width:0.88206959;stroke-miterlimit:4;stroke-dasharray:none;stroke-dashoffset:0;stroke-opacity:1"
           d="m -543.24805,285.18945 a 300.58164,300.58164 0 0 0 -7.34961,6.45899 c 7.45076,0.20467 15.27122,0.52256 22.85743,1.2207 10.29126,0.94708 20.13793,2.58859 29.94531,5.15625 9.80737,2.56766 19.57162,6.05953 26.39062,8.73242 6.81901,2.67289 10.69089,4.5246 20.58203,9.07031 9.89115,4.54572 25.80004,11.78522 35.98633,16.28907 10.1863,4.50385 14.64755,6.27188 21.80274,10.82226 7.15519,4.55039 17.00343,11.883 28.19922,21.52149 11.19578,9.63849 23.73902,21.58296 36.11328,35.04687 12.37426,13.46392 24.58082,28.44726 36.11328,44.33594 11.53245,15.88868 22.39231,32.68358 30.98828,46.98828 8.59597,14.3047 14.9284,26.12215 20.77344,37.35742 5.84503,11.23527 11.20274,21.89026 15.48828,30.9375 4.28554,9.04724 7.50195,16.48895 9.40625,21.39844 1.9043,4.90949 2.49872,7.29085 4.0957,15.29492 1.59698,8.00408 4.19451,21.62932 9.45117,26.42383 5.25666,4.79451 13.17012,0.75432 13.33789,-7.07422 0.16777,-7.82853 -7.40826,-19.44454 -14.05859,-31.86133 -6.65033,-12.41678 -12.37475,-25.63183 -18.35156,-38.21679 -5.97682,-12.58497 -12.20571,-24.53898 -19.06641,-37.16602 -6.86069,-12.62704 -14.3523,-25.92806 -23.08594,-39.6914 -8.73363,-13.76335 -18.70817,-27.98909 -28.83398,-41.5918 -10.12581,-13.60271 -20.40287,-26.58049 -29.66016,-36.6875 -9.25728,-10.10701 -17.49591,-17.3426 -24.91601,-23.95899 -7.42011,-6.61638 -14.02195,-12.6135 -21.26367,-18.52148 -7.24173,-5.90798 -15.12396,-11.7278 -21.31641,-15.12109 -6.19245,-3.3933 -10.69534,-4.36163 -22.66992,-8.67579 -11.97458,-4.31416 -31.4206,-11.97435 -44.61524,-17.65625 -13.19464,-5.68189 -20.14,-9.38573 -29.35742,-12.33203 -9.21742,-2.94629 -20.70869,-5.13506 -30.97851,-6.46093 -10.24873,-1.32316 -19.27782,-1.78616 -26.00782,-2.03907 z"
           transform="scale(0.26458333)"
           id="circle955"
           inkscape:connector-curvature="0" />
        <path
           style="opacity:1;fill:#cacaca;fill-opacity:1;stroke:none;stroke-width:0.88206959;stroke-miterlimit:4;stroke-dasharray:none;stroke-dashoffset:0;stroke-opacity:1"
           d="m -635.58008,433.12305 a 300.58164,300.58164 0 0 0 -2.5,9.79492 c 2.29043,3.5694 4.07236,7.34081 7.17188,13.26172 3.283,6.27141 8.05197,14.95039 13.76172,23.7832 5.70974,8.83281 12.35881,17.81984 17.47265,24.48047 5.11384,6.66063 8.69344,10.99612 10.81836,13.99414 2.12492,2.99802 2.79906,4.66199 5.53516,6.9668 2.73609,2.30481 7.52929,5.24707 10.5625,6.46875 3.03321,1.22168 4.29473,0.71663 2.94726,-1.42969 -1.34747,-2.14632 -5.30312,-5.93446 -10.56445,-12.24805 -5.26133,-6.31359 -11.8261,-15.15194 -17.71875,-23.27539 -5.89265,-8.12345 -11.1128,-15.53076 -15.99023,-23.33203 -4.87744,-7.80127 -9.4124,-15.99501 -13.83204,-24.28711 -2.67613,-5.02094 -5.30568,-10.06193 -7.66406,-14.17773 z"
           transform="scale(0.26458333)"
           id="circle962"
           inkscape:connector-curvature="0" />
        <path
           style="opacity:1;fill:#cacaca;fill-opacity:1;stroke:none;stroke-width:0.88206959;stroke-miterlimit:4;stroke-dasharray:none;stroke-dashoffset:0;stroke-opacity:1"
           d="m -111.19727,323.28711 c -5.45769,3.50056 -10.23624,6.99311 -16.29101,11.01758 -7.0286,4.67175 -15.78558,10.05997 -25.50781,14.14258 -9.72223,4.08261 -20.41219,6.86144 -25.58985,10.3125 -5.17766,3.45105 -4.84038,7.57389 -3.15625,9.76367 1.68413,2.18977 4.71257,2.44221 9.30078,0.96875 4.58822,-1.47347 10.73192,-4.67131 16.07813,-7.28125 5.34621,-2.60994 9.89121,-4.62983 15.36328,-7.49219 5.47207,-2.86236 11.86882,-6.56564 17.13086,-10.01758 5.26203,-3.45194 9.38437,-6.64961 13.97266,-9.80664 1.5905,-1.09437 3.23919,-2.17705 4.90039,-3.1875 a 300.58164,300.58164 0 0 0 -6.20118,-8.41992 z"
           transform="scale(0.26458333)"
           id="circle969"
           inkscape:connector-curvature="0" />
        <path
           style="opacity:1;fill:#cacaca;fill-opacity:1;stroke:none;stroke-width:0.88206959;stroke-miterlimit:4;stroke-dasharray:none;stroke-dashoffset:0;stroke-opacity:1"
           d="m -215.08398,240.91992 c 0.92605,3.84869 1.90875,8.83419 2.80468,14.19336 1.15749,6.92371 2.16708,14.41554 2.9668,21.5918 0.79972,7.17626 1.38981,14.03698 1.72656,20.85547 0.33675,6.81849 0.41974,13.59597 0.50391,19.08789 0.0842,5.49192 0.16884,9.70166 0.21094,11.80664 0.0421,2.10497 0.0419,2.10525 -0.37891,4.9668 -0.42082,2.86154 -1.26253,8.58666 -1.30469,12.24804 -0.0422,3.66138 0.7147,5.26069 1.85157,4.08203 1.13686,-1.17865 2.65308,-5.13331 4.29492,-8.83789 1.64183,-3.70457 3.4075,-7.15628 4.39648,-11.4707 0.98898,-4.31442 1.20092,-9.48554 1.28516,-17.2168 0.0842,-7.73125 0.0405,-17.98905 -0.49805,-26.74023 -0.5386,-8.75119 -1.57175,-15.978 -2.57227,-23.9961 -0.59185,-4.74315 -1.16232,-9.73605 -1.33398,-13.77148 a 300.58164,300.58164 0 0 0 -13.95312,-6.79883 z"
           transform="scale(0.26458333)"
           id="circle976"
           inkscape:connector-curvature="0" />
        <path
           style="opacity:1;fill:#cacaca;fill-opacity:1;stroke:none;stroke-width:0.88206959;stroke-miterlimit:4;stroke-dasharray:none;stroke-dashoffset:0;stroke-opacity:1"
           d="m -304.28906,213.87109 c 1.30496,1.10823 2.64143,2.22374 4.03711,3.36133 5.87449,4.78823 12.65178,9.93658 20.34375,17.93164 7.69197,7.99506 16.30014,18.83664 23.55078,29.19727 7.25063,10.36063 13.14414,20.24227 18.05469,29.88476 4.91054,9.6425 8.83799,19.04809 11.84375,26.25 3.00575,7.20191 5.08999,12.2018 6.94531,15.32227 1.85532,3.12047 3.48068,4.35994 3.97851,3.16992 0.49784,-1.19002 -0.13221,-4.80843 -1.41601,-9.48047 -1.2838,-4.67204 -3.21966,-10.39585 -6.81836,-18.87695 -3.59871,-8.4811 -8.86097,-19.71988 -13.61719,-28.66406 -4.75621,-8.94419 -9.00584,-15.59291 -13.21484,-21.63282 -4.209,-6.0399 -8.37639,-11.46951 -12.83789,-16.83593 -4.4615,-5.36642 -9.21828,-10.67024 -13.39649,-15.04883 -4.01785,-4.21055 -7.54312,-7.60101 -12.71289,-12.35156 a 300.58164,300.58164 0 0 0 -14.74023,-2.22657 z"
           transform="scale(0.26458333)"
           id="circle983"
           inkscape:connector-curvature="0" />
        <circle
           style="opacity:1;fill:#cacaca;fill-opacity:1;stroke:none;stroke-width:0.26604939;stroke-miterlimit:4;stroke-dasharray:none;stroke-dashoffset:0;stroke-opacity:1"
           id="path854"
           cx="-54.322533"
           cy="99.788506"
           r="14.399146" />
        <circle
           r="10.122833"
           cy="85.536118"
           cx="-113.75258"
           id="circle856"
           style="opacity:1;fill:#cacaca;fill-opacity:1;stroke:none;stroke-width:0.18703704;stroke-miterlimit:4;stroke-dasharray:none;stroke-dashoffset:0;stroke-opacity:1" />
        <circle
           r="8.0906353"
           cy="143.37704"
           cx="-149.34332"
           id="circle860"
           style="opacity:1;fill:#cacaca;fill-opacity:1;stroke:none;stroke-width:0.14948863;stroke-miterlimit:4;stroke-dasharray:none;stroke-dashoffset:0;stroke-opacity:1" />
        <circle
           r="8.0906353"
           cy="191.73758"
           cx="-95.839943"
           id="circle866"
           style="opacity:1;fill:#cacaca;fill-opacity:1;stroke:none;stroke-width:0.14948863;stroke-miterlimit:4;stroke-dasharray:none;stroke-dashoffset:0;stroke-opacity:1" />
        <circle
           style="opacity:1;fill:#cacaca;fill-opacity:1;stroke:none;stroke-width:0.10751333;stroke-miterlimit:4;stroke-dasharray:none;stroke-dashoffset:0;stroke-opacity:1"
           id="circle862"
           cx="-136.68143"
           cy="166.09496"
           r="5.8188443" />
        <circle
           style="opacity:1;fill:#cacaca;fill-opacity:1;stroke:none;stroke-width:0.14948863;stroke-miterlimit:4;stroke-dasharray:none;stroke-dashoffset:0;stroke-opacity:1"
           id="circle864"
           cx="-52.675911"
           cy="161.80339"
           r="8.0906353" />
        <circle
           style="opacity:1;fill:#cacaca;fill-opacity:1;stroke:none;stroke-width:0.15123457;stroke-miterlimit:4;stroke-dasharray:none;stroke-dashoffset:0;stroke-opacity:1"
           id="circle858"
           cx="-106.00177"
           cy="126.49518"
           r="8.1851292" />
      </g>
      <g
         transform="translate(0.9893381,0.54769116)"
         id="g1686">
        <ellipse
           style="opacity:1;fill:#e3211e;fill-opacity:1;fill-rule:nonzero;stroke:none;stroke-width:0.0707764;stroke-linecap:round;stroke-linejoin:round;stroke-miterlimit:4;stroke-dasharray:none;stroke-dashoffset:0;stroke-opacity:1"
           id="path1201"
           cx="95.316742"
           cy="283.36874"
           rx="6.68296"
           ry="6.6834273" />
        <path
           style="opacity:1;fill:#ffffff;fill-opacity:1;fill-rule:nonzero;stroke:none;stroke-width:0.0707764;stroke-linecap:round;stroke-linejoin:round;stroke-miterlimit:4;stroke-dasharray:none;stroke-dashoffset:0;stroke-opacity:1"
           d="m 95.21318,279.13088 c -1.341622,0 -2.421696,1.08013 -2.421696,2.42185 v 1.08707 h -0.01935 c -0.385011,0 -0.694974,0.30999 -0.694974,0.69502 v 3.57681 c 0,0.38505 0.309963,0.69497 0.694974,0.69497 h 5.089209 c 0.38501,0 0.69498,-0.30992 0.69498,-0.69497 v -3.57681 c 0,-0.38503 -0.30997,-0.69502 -0.69498,-0.69502 h -0.0194 v -1.08707 c 0,-1.34172 -1.080075,-2.42185 -2.421696,-2.42185 z m 0.103552,0.9299 c 0.818975,0 1.478287,0.65934 1.478287,1.47837 v 1.10065 H 93.83839 v -1.10065 c 0,-0.81903 0.659365,-1.47837 1.478342,-1.47837 z"
           id="rect1046"
           inkscape:connector-curvature="0" />
      </g>
    </g>
  </g>
</svg>
