<?xml version="1.0" encoding="UTF-8" standalone="no"?>
<!-- Created with Inkscape (http://www.inkscape.org/) -->

<svg
   xmlns:dc="http://purl.org/dc/elements/1.1/"
   xmlns:cc="http://creativecommons.org/ns#"
   xmlns:rdf="http://www.w3.org/1999/02/22-rdf-syntax-ns#"
   xmlns:svg="http://www.w3.org/2000/svg"
   xmlns="http://www.w3.org/2000/svg"
   xmlns:xlink="http://www.w3.org/1999/xlink"
   xmlns:sodipodi="http://sodipodi.sourceforge.net/DTD/sodipodi-0.dtd"
   xmlns:inkscape="http://www.inkscape.org/namespaces/inkscape"
   width="128"
   height="128"
   viewBox="0 0 33.866666 33.866668"
   version="1.1"
   id="svg8"
   inkscape:version="0.92.2 5c3e80d, 2017-08-06"
   sodipodi:docname="aa 3.svg">
  <defs
     id="defs2">
    <linearGradient
       inkscape:collect="always"
       id="linearGradient925">
      <stop
         style="stop-color:#0c3266;stop-opacity:1"
         offset="0"
         id="stop921" />
      <stop
         style="stop-color:#02b6ff;stop-opacity:1"
         offset="1"
         id="stop923" />
    </linearGradient>
    <linearGradient
       inkscape:collect="always"
       id="linearGradient917">
      <stop
         style="stop-color:#0d3b77;stop-opacity:1"
         offset="0"
         id="stop913" />
      <stop
         style="stop-color:#008eff;stop-opacity:1"
         offset="1"
         id="stop915" />
    </linearGradient>
    <linearGradient
       inkscape:collect="always"
       xlink:href="#linearGradient917"
       id="linearGradient919"
       x1="11.724262"
       y1="292.07968"
       x2="13.148215"
       y2="265.90482"
       gradientUnits="userSpaceOnUse"
       gradientTransform="matrix(1.00158,0,0,1.00158,-0.02675483,-0.467589)" />
    <linearGradient
       inkscape:collect="always"
       xlink:href="#linearGradient925"
       id="linearGradient927"
       x1="22.959639"
       y1="268.2941"
       x2="26.394636"
       y2="288.01642"
       gradientUnits="userSpaceOnUse"
       gradientTransform="matrix(1.00158,0,0,1.00158,-0.02675483,-0.467589)" />
  </defs>
  <sodipodi:namedview
     id="base"
     pagecolor="#ffffff"
     bordercolor="#666666"
     borderopacity="1.0"
     inkscape:pageopacity="0.0"
     inkscape:pageshadow="2"
     inkscape:zoom="0.9899495"
     inkscape:cx="-41.093018"
     inkscape:cy="54.947173"
     inkscape:document-units="mm"
     inkscape:current-layer="layer1"
     showgrid="false"
     units="px"
     inkscape:window-width="1600"
     inkscape:window-height="803"
     inkscape:window-x="0"
     inkscape:window-y="0"
     inkscape:window-maximized="1" />
  <metadata
     id="metadata5">
    <rdf:RDF>
      <cc:Work
         rdf:about="">
        <dc:format>image/svg+xml</dc:format>
        <dc:type
           rdf:resource="http://purl.org/dc/dcmitype/StillImage" />
        <dc:title />
      </cc:Work>
    </rdf:RDF>
  </metadata>
  <g
     inkscape:label="Layer 1"
     inkscape:groupmode="layer"
     id="layer1"
     transform="translate(0,-263.13332)">
    <g
       style="opacity:0.25;fill:#000000;stroke:none;stroke-width:0.3023622;stroke-miterlimit:4;stroke-dasharray:none"
       transform="matrix(0.74182212,0,0,0.74182212,-0.82700108,262.71915)"
       id="g908">
      <g
         style="fill:#000000;stroke:none;stroke-width:0.3023622;stroke-miterlimit:4;stroke-dasharray:none"
         id="g906">
        <path
           id="path902"
           d="m 23.989,2.785 c -11.572,0 -20.952,9.402 -20.952,21 0,11.598 9.381,21 20.952,21 11.571,0 20.952,-9.402 20.952,-21 0,-11.598 -9.38,-21 -20.952,-21 z m -0.196,38.187 c -6.789,0 -12.293,-7.611 -12.293,-17 0,-9.389 5.504,-17 12.293,-17 6.789,0 12.293,7.611 12.293,17 0,9.389 -5.503,17 -12.293,17 z"
           style="fill:#000000;stroke:none;stroke-width:0.3023622;stroke-miterlimit:4;stroke-dasharray:none"
           inkscape:connector-curvature="0" />
        <path
           id="path904"
           d="m 28.882,43.785 c -9.368,0 -16.961,-8.954 -16.961,-20 0,-11.046 7.594,-20 16.961,-20 0.562,0 1.117,0.036 1.665,0.099 -2.092,-0.703 -4.325,-1.099 -6.653,-1.099 -11.572,0 -20.952,9.402 -20.952,21 0,11.598 9.381,21 20.952,21 2.328,0 4.561,-0.396 6.653,-1.099 -0.548,0.063 -1.103,0.099 -1.665,0.099 z"
           style="fill:#000000;stroke:none;stroke-width:0.3023622;stroke-miterlimit:4;stroke-dasharray:none"
           inkscape:connector-curvature="0" />
      </g>
    </g>
    <path
       inkscape:connector-curvature="0"
       style="fill:url(#linearGradient927);fill-opacity:1;stroke:none;stroke-width:0.1003532;stroke-miterlimit:4;stroke-dasharray:none;stroke-opacity:1"
       d="m 16.968569,264.19167 c -8.5843648,0 -15.5426563,6.97461 -15.5426563,15.57827 0,8.60365 6.9590333,15.57825 15.5426563,15.57825 8.583624,0 15.542658,-6.9746 15.542658,-15.57825 0,-8.60366 -6.958292,-15.57827 -15.542658,-15.57827 z m -0.145396,28.32796 c -5.036231,0 -9.1192197,-5.64601 -9.1192197,-12.61097 0,-6.96497 4.0829887,-12.61099 9.1192197,-12.61099 5.03623,0 9.119219,5.64602 9.119219,12.61099 0,6.96496 -4.082247,12.61097 -9.119219,12.61097 z"
       id="path874" />
    <path
       inkscape:connector-curvature="0"
       style="fill:url(#linearGradient919);fill-opacity:1;stroke:none;stroke-width:0.1003532;stroke-miterlimit:4;stroke-dasharray:none;stroke-opacity:1"
       d="m 20.598305,294.60637 c -6.949389,0 -12.5820446,-6.64227 -12.5820446,-14.83643 0,-8.19418 5.6333976,-14.83645 12.5820446,-14.83645 0.416904,0 0.828616,0.0267 1.235134,0.0734 -1.551891,-0.5215 -3.20838,-0.81526 -4.935343,-0.81526 -8.584365,0 -15.5426564,6.97461 -15.5426564,15.57827 0,8.60365 6.9590333,15.57825 15.5426564,15.57825 1.726963,0 3.383452,-0.29375 4.935343,-0.81525 -0.406518,0.0468 -0.81823,0.0734 -1.235134,0.0734 z"
       id="path876" />
  </g>
</svg>
