<?xml version="1.0" encoding="UTF-8" standalone="no"?>
<!-- Created with Inkscape (http://www.inkscape.org/) -->

<svg
   xmlns:osb="http://www.openswatchbook.org/uri/2009/osb"
   xmlns:dc="http://purl.org/dc/elements/1.1/"
   xmlns:cc="http://creativecommons.org/ns#"
   xmlns:rdf="http://www.w3.org/1999/02/22-rdf-syntax-ns#"
   xmlns:svg="http://www.w3.org/2000/svg"
   xmlns="http://www.w3.org/2000/svg"
   xmlns:xlink="http://www.w3.org/1999/xlink"
   xmlns:sodipodi="http://sodipodi.sourceforge.net/DTD/sodipodi-0.dtd"
   xmlns:inkscape="http://www.inkscape.org/namespaces/inkscape"
   width="128"
   height="128"
   viewBox="0 0 33.866666 33.866668"
   version="1.1"
   id="svg8"
   inkscape:version="0.92.2 5c3e80d, 2017-08-06"
   sodipodi:docname="orca.svg">
  <defs
     id="defs2">
    <linearGradient
       inkscape:collect="always"
       id="linearGradient2077">
      <stop
         style="stop-color:#617993;stop-opacity:1;"
         offset="0"
         id="stop2073" />
      <stop
         style="stop-color:#464848;stop-opacity:1"
         offset="1"
         id="stop2075" />
    </linearGradient>
    <linearGradient
       inkscape:collect="always"
       id="linearGradient2053">
      <stop
         style="stop-color:#d0e5ec;stop-opacity:1"
         offset="0"
         id="stop2049" />
      <stop
         style="stop-color:#787776;stop-opacity:1"
         offset="1"
         id="stop2051" />
    </linearGradient>
    <linearGradient
       inkscape:collect="always"
       id="linearGradient959">
      <stop
         style="stop-color:#353534;stop-opacity:1"
         offset="0"
         id="stop955" />
      <stop
         style="stop-color:#484847;stop-opacity:1"
         offset="1"
         id="stop957" />
    </linearGradient>
    <linearGradient
       id="linearGradient6987"
       osb:paint="solid">
      <stop
         style="stop-color:#77d2fb;stop-opacity:1;"
         offset="0"
         id="stop6985" />
    </linearGradient>
    <linearGradient
       inkscape:collect="always"
       xlink:href="#linearGradient959"
       id="linearGradient961"
       x1="-71.483482"
       y1="384.89142"
       x2="-71.217484"
       y2="272.58057"
       gradientUnits="userSpaceOnUse"
       gradientTransform="matrix(0.12463632,0,0,0.12458092,25.839545,242.97197)" />
    <linearGradient
       gradientTransform="matrix(0.1196795,0,0,0.11963001,46.670356,243.75094)"
       inkscape:collect="always"
       xlink:href="#linearGradient2053"
       id="linearGradient1236"
       x1="-249.88472"
       y1="223.38019"
       x2="-249.46869"
       y2="409.84219"
       gradientUnits="userSpaceOnUse" />
    <linearGradient
       inkscape:collect="always"
       xlink:href="#linearGradient2053"
       id="linearGradient2055"
       x1="58.940884"
       y1="226.29268"
       x2="58.959343"
       y2="272.45981"
       gradientUnits="userSpaceOnUse"
       gradientTransform="matrix(0.54726407,0,0,0.54702085,-16.186504,143.53449)" />
    <linearGradient
       inkscape:collect="always"
       xlink:href="#linearGradient2053"
       id="linearGradient2069"
       x1="-385.46759"
       y1="158.74811"
       x2="-386.06366"
       y2="289.27969"
       gradientUnits="userSpaceOnUse" />
    <linearGradient
       inkscape:collect="always"
       xlink:href="#linearGradient2077"
       id="linearGradient2079"
       x1="43.071445"
       y1="221.66258"
       x2="36.539642"
       y2="277.38828"
       gradientUnits="userSpaceOnUse"
       gradientTransform="matrix(0.54726407,0,0,0.54702085,-16.186504,143.53449)" />
    <linearGradient
       inkscape:collect="always"
       xlink:href="#linearGradient2077"
       id="linearGradient2087"
       x1="55.355476"
       y1="240.83168"
       x2="50.269569"
       y2="269.46338"
       gradientUnits="userSpaceOnUse"
       gradientTransform="matrix(0.54726407,0,0,0.54702085,-16.186504,143.53449)" />
    <linearGradient
       inkscape:collect="always"
       xlink:href="#linearGradient2053"
       id="linearGradient2107"
       gradientUnits="userSpaceOnUse"
       x1="-385.46759"
       y1="158.74811"
       x2="-386.06366"
       y2="289.27969" />
    <linearGradient
       inkscape:collect="always"
       xlink:href="#linearGradient2053"
       id="linearGradient2109"
       gradientUnits="userSpaceOnUse"
       x1="-385.46759"
       y1="158.74811"
       x2="-386.06366"
       y2="289.27969" />
  </defs>
  <sodipodi:namedview
     id="base"
     pagecolor="#ffffff"
     bordercolor="#666666"
     borderopacity="1.0"
     inkscape:pageopacity="0.0"
     inkscape:pageshadow="2"
     inkscape:zoom="2.8"
     inkscape:cx="113.13528"
     inkscape:cy="28.96937"
     inkscape:document-units="mm"
     inkscape:current-layer="layer1"
     showgrid="false"
     inkscape:window-width="1600"
     inkscape:window-height="814"
     inkscape:window-x="0"
     inkscape:window-y="0"
     inkscape:window-maximized="1"
     showguides="false"
     units="px" />
  <metadata
     id="metadata5">
    <rdf:RDF>
      <cc:Work
         rdf:about="">
        <dc:format>image/svg+xml</dc:format>
        <dc:type
           rdf:resource="http://purl.org/dc/dcmitype/StillImage" />
        <dc:title />
      </cc:Work>
    </rdf:RDF>
  </metadata>
  <g
     inkscape:label="Layer 1"
     inkscape:groupmode="layer"
     id="layer1"
     transform="translate(0,-263.13332)">
    <g
       id="g906"
       transform="translate(7.7088673e-7,-0.23972198)">
      <rect
         style="opacity:0.25;fill:#000000;fill-opacity:1;fill-rule:nonzero;stroke:none;stroke-width:0.30000001;stroke-linecap:round;stroke-miterlimit:4;stroke-dasharray:none;stroke-dashoffset:0;stroke-opacity:1"
         id="rect862"
         width="32.837402"
         height="30.817743"
         x="0.51463139"
         y="265.28723"
         ry="1.3971093" />
      <rect
         ry="1.3971093"
         y="264.65778"
         x="0.51463139"
         height="30.817743"
         width="32.837402"
         id="rect898"
         style="opacity:1;fill:url(#linearGradient2055);fill-opacity:1;fill-rule:nonzero;stroke:url(#linearGradient2079);stroke-width:0.30000001;stroke-linecap:round;stroke-miterlimit:4;stroke-dasharray:none;stroke-dashoffset:0;stroke-opacity:1" />
      <path
         inkscape:connector-curvature="0"
         d="m 20.171268,266.49785 c -0.05058,0.004 -0.09629,0.0219 -0.123587,0.0492 -0.103204,0.10317 -0.06818,0.24282 0.123587,0.49469 0.423085,0.55565 0.691734,1.10967 0.876983,1.80887 0.125269,0.47282 0.156864,1.36103 0.06703,1.87898 -0.121898,0.70276 -0.465146,1.49108 -0.907526,2.08421 -0.229686,0.30795 -0.264122,0.42488 -0.158937,0.54105 0.155139,0.17135 0.307612,0.06 0.680715,-0.49752 0.88457,-1.32185 1.134618,-2.83536 0.713804,-4.32275 -0.128816,-0.45532 -0.549729,-1.28922 -0.854642,-1.69326 -0.21075,-0.27927 -0.268666,-0.33343 -0.365669,-0.3429 -0.01749,-0.002 -0.03489,-0.002 -0.05175,0 z m -4.101543,0.82345 v 0.002 c -0.03504,0 -0.411337,0.29448 -0.836259,0.6544 l -0.772628,0.65441 h -0.760184 c -1.191602,0 -1.14069,-0.0562 -1.156396,1.27178 -0.01734,1.46549 -0.0543,1.41909 1.132641,1.42019 h 0.796665 l 0.77178,0.66431 c 0.435074,0.37458 0.796919,0.6596 0.829754,0.65326 0.05248,-0.0101 0.05826,-0.2757 0.05826,-2.66539 0,-2.48979 -0.0039,-2.65381 -0.06363,-2.65381 z m 2.641413,0.0633 c -0.03429,0.004 -0.06882,0.0188 -0.106618,0.0435 -0.143516,0.094 -0.119233,0.22564 0.09615,0.52013 0.237693,0.325 0.402443,0.65064 0.531111,1.04987 0.123945,0.38457 0.167539,1.10203 0.09276,1.52563 -0.09065,0.51355 -0.325965,1.04367 -0.651302,1.46711 -0.0884,0.11507 -0.160917,0.24875 -0.160917,0.29711 0,0.0978 0.06335,0.1938 0.147625,0.22388 0.09302,0.0332 0.103855,0.0294 0.235861,-0.0865 0.299314,-0.26269 0.692325,-1.01647 0.844743,-1.62062 0.120918,-0.47919 0.110548,-1.28539 -0.02291,-1.7854 -0.120091,-0.44995 -0.356009,-0.94275 -0.632355,-1.32069 -0.171559,-0.23461 -0.271275,-0.3252 -0.374153,-0.31405 z m -1.46409,0.91362 c -0.04981,-0.002 -0.09709,0.0194 -0.142535,0.0605 -0.100652,0.0911 -0.08277,0.24174 0.04808,0.40397 0.28333,0.35125 0.469851,0.95602 0.41912,1.35996 -0.04595,0.36605 -0.190628,0.72151 -0.410919,1.01003 -0.135968,0.17808 -0.156353,0.31247 -0.06278,0.41582 0.163582,0.18067 0.429515,-0.0311 0.679018,-0.54077 0.188314,-0.38467 0.255923,-0.66296 0.255375,-1.04959 -7.12e-4,-0.40748 -0.07602,-0.71697 -0.260183,-1.0708 -0.204657,-0.39312 -0.375737,-0.58642 -0.525172,-0.5891 z"
         style="fill:#4d4e4d;fill-opacity:1;stroke:#333333;stroke-width:0.15000001;stroke-miterlimit:4;stroke-dasharray:none"
         id="path1966" />
      <ellipse
         ry="8.9698267"
         rx="8.973815"
         cy="284.0101"
         cx="16.982229"
         id="path941"
         style="opacity:1;fill:url(#linearGradient961);fill-opacity:1;fill-rule:nonzero;stroke:url(#linearGradient2087);stroke-width:0.15000001;stroke-linecap:round;stroke-linejoin:round;stroke-miterlimit:4;stroke-dasharray:none;stroke-dashoffset:0;stroke-opacity:1" />
      <ellipse
         ry="7.4884167"
         rx="7.4915147"
         cy="284.11691"
         cx="16.982231"
         id="circle1336"
         style="opacity:0.25;fill:none;fill-opacity:1;fill-rule:nonzero;stroke:#000000;stroke-width:1;stroke-linecap:round;stroke-linejoin:round;stroke-miterlimit:4;stroke-dasharray:none;stroke-dashoffset:0;stroke-opacity:1" />
      <ellipse
         ry="7.4884167"
         rx="7.4915147"
         style="opacity:1;fill:none;fill-opacity:1;fill-rule:nonzero;stroke:url(#linearGradient1236);stroke-width:1;stroke-linecap:round;stroke-linejoin:round;stroke-miterlimit:4;stroke-dasharray:none;stroke-dashoffset:0;stroke-opacity:1"
         id="circle951"
         cx="16.982231"
         cy="283.90326" />
      <g
         id="g1334"
         transform="matrix(0.12463632,0,0,0.12458092,65.159791,255.09867)"
         style="opacity:0.25;fill:#000000;fill-opacity:1;stroke-width:7.13344622">
        <path
           inkscape:connector-curvature="0"
           d="m -386.54512,192.02165 c -5.22414,0 -9.46402,4.20074 -9.46402,9.37669 0,5.17595 4.23988,9.37669 9.46402,9.37669 5.22415,0 9.46402,-4.20074 9.46402,-9.37669 0,-5.17595 -4.23987,-9.37669 -9.46402,-9.37669 z"
           style="display:inline;fill:#000000;fill-opacity:1;stroke:none;stroke-width:36.50866699;enable-background:new"
           id="path1330" />
        <path
           sodipodi:nodetypes="cccsccsccccccccccccccccccccccccccccccccccccccscccccsccsccccccscccccccccccccccccccccccccccccccccccccscccccccccccccccccccccccccccccccccccccccccccccccccccccccccccccccccccccccc"
           inkscape:connector-curvature="0"
           id="path1332"
           d="m -418.0611,213.03714 c -3.94267,0.13534 -3.91804,5.64702 -1.67949,6.49831 11.68139,4.44223 23.89705,2.14057 23.86315,9.2723 0.67865,4.71905 0.40968,12.76567 -1.08521,21.1119 -1.29894,7.25217 -3.64411,14.77481 -5.48804,21.05866 -0.14154,5.5263 5.11074,5.15419 6.26732,3.69382 2.01261,-2.54127 4.41682,-9.61943 6.1867,-16.97466 1.14584,-4.76186 3.22946,-8.1561 3.30626,-7.92562 0,0 0.004,0.006 0.004,0.007 2.7e-4,-0.003 7.9e-4,-0.003 0.001,-0.004 -5e-5,-2.4e-4 -0.002,0 -0.002,0 -2.5e-4,-0.0172 0.004,-0.0238 0.006,-0.0341 -6e-5,0 -1.7e-4,0.003 0,0.003 5.3e-4,0.003 -1.4e-4,0.005 0,0.007 1.2e-4,-0.003 5.3e-4,-0.005 5.3e-4,-0.008 4e-5,-0.003 -5e-5,-0.004 0,-0.005 -4e-5,0 -5.3e-4,0 -5.3e-4,0 2.7e-4,0 -10e-4,-0.003 0,-0.003 h 5.3e-4 5.3e-4 c 10e-4,-0.005 0.003,-0.007 0.005,-0.0103 v 0 c 0.007,-0.0167 0.0162,-0.0267 0.0305,-0.0217 -0.003,0.009 -0.006,0.0175 -0.007,0.0254 0.004,-0.003 0.009,5e-5 0.0134,-0.003 0.002,0 0.004,5e-5 0.006,-0.003 2.2e-4,-0.005 0.002,-0.01 0.002,-0.0145 -0.004,-0.003 -0.009,-0.007 -0.0129,-0.008 10e-4,-0.005 0.002,-0.009 0.005,-0.0151 0.004,-0.009 0.0108,-0.0164 0.0171,-0.0243 0.0204,0 0.0389,0.003 0.0553,0.009 10e-4,1.9e-4 0.003,-2.4e-4 0.004,0 0.06,0.0116 0.0821,0.0397 0.093,0.0723 0.001,0.003 0.002,0.003 0.003,0.005 -7.9e-4,0 -10e-4,-1e-4 -0.002,-0.003 1.5e-4,0.003 -1.4e-4,0.003 0,0.003 0.006,0.008 0.0131,0.0159 0.0171,0.0249 0.002,0.006 0.003,0.01 0.004,0.014 -0.004,0.003 -0.008,0.005 -0.0124,0.008 2e-4,0.005 0.002,0.01 0.002,0.0151 0.002,0.003 0.004,0.003 0.006,0.003 0.004,0.003 0.01,7e-5 0.0134,0.003 -0.002,-0.008 -0.004,-0.0159 -0.007,-0.0243 0.0144,-0.005 0.0238,0.005 0.0305,0.0222 0.002,0.004 0.004,0.006 0.005,0.0103 h 5.3e-4 c 10e-4,0 -2.7e-4,0.003 0,0.003 0.002,0.0111 0.006,0.0177 0.006,0.0356 0,0 -0.002,-2.4e-4 -0.002,0 2.6e-4,0 7.9e-4,0 10e-4,0.004 10e-5,0 0.004,-0.007 0.004,-0.007 0.0768,-0.23048 2.16041,3.16375 3.30626,7.92562 1.76987,7.35523 4.17409,14.43339 6.1867,16.97466 1.15658,1.46037 6.40885,1.83248 6.26731,-3.69382 -1.84392,-6.28386 -4.18909,-13.80649 -5.48803,-21.05867 -1.49489,-8.34623 -1.76386,-16.39284 -1.08521,-21.11189 -0.0339,-7.13172 12.18176,-4.83007 23.86314,-9.2723 2.23856,-0.85128 2.26319,-6.36297 -1.67948,-6.49831 v 0.001 c -0.26284,-0.009 -0.54318,0.006 -0.84181,0.0475 -11.00762,1.55816 -20.03009,1.87809 -29.67622,1.98179 -11.43469,0.0543 -19.90631,-0.42526 -31.67094,-2.06964 -0.29863,-0.0417 -0.57896,-0.0566 -0.84181,-0.0475 z m 31.65491,36.82462 c -1.5e-4,0 -7.9e-4,-0.003 -0.001,-0.003 1.1e-4,0 5.3e-4,0.003 5.3e-4,0.003 z m -5.3e-4,0 h -5.3e-4 c 2.7e-4,0.003 5.3e-4,0.003 10e-4,0.005 h 5.3e-4 c -5.3e-4,-0.003 -7.9e-4,-0.003 -0.001,-0.005 z m -5.3e-4,0 v -0.003 c -6e-5,0 6e-5,0 0,0 -2.6e-4,-0.004 -0.002,-0.007 -0.003,-0.0114 3e-5,0.003 -2e-5,0.003 0,0.003 1.2e-4,0.003 -1.1e-4,0.003 0,0.003 0,0.003 -5.3e-4,0.006 -5.3e-4,0.009 z m -0.009,-0.0491 c 1.4e-4,0.003 10e-4,0.003 10e-4,0.005 5.3e-4,0 8e-4,0 0.002,0.004 -10e-4,-0.006 -0.002,-0.0116 -0.003,-0.009 z m 0.003,0.009 c -2.6e-4,-6e-5 -7.9e-4,8e-5 -10e-4,0 8e-4,0.003 0.002,0.007 0.003,0.0108 2.7e-4,-0.003 2.7e-4,-0.003 5.3e-4,-0.006 1e-4,0 -1.1e-4,0 0,-0.004 -5.3e-4,-8e-5 -10e-4,8e-5 -0.002,0 -1.5e-4,0 -2.6e-4,0 -5.3e-4,0 z m -10e-4,0 v 0 0 h -0.0104 c 0.005,0.003 0.009,0.007 0.0119,0.0135 v 0 c -7.9e-4,-0.004 -10e-4,-0.008 -0.002,-0.0114 z m 0.002,0.0124 c 2.7e-4,0 2.7e-4,0.003 5.3e-4,0.003 5e-5,0 -6e-5,-0.003 0,-0.003 z m 5.3e-4,0.003 c -6e-5,0 6e-5,0.003 0,0.003 10e-4,0 2.4e-4,0.003 10e-4,0.005 -5.3e-4,-0.003 -5.3e-4,-0.005 -10e-4,-0.008 z m 0,0.003 c -0.005,-0.008 -0.0136,-0.014 -0.0233,-0.0201 -7.9e-4,-1e-4 -10e-4,8e-5 -0.002,0 -1.3e-4,0 -5.3e-4,-0.003 -5.3e-4,-0.003 -0.004,-0.003 -0.01,-0.003 -0.0145,-0.005 -0.002,0 -0.004,2.3e-4 -0.006,0 0,0.003 0.001,0.003 0.001,0.005 0.007,0.003 0.0132,0.003 0.0196,0.003 0.001,0.007 0.002,0.0148 0.003,0.0217 0.007,0 0.0148,-2.7e-4 0.0222,0 0,0 5.3e-4,-0.003 5.3e-4,-0.003 z m -0.26303,-0.11575 c -1.8e-4,-0.003 -0.002,0.005 -0.003,0.0103 -5.3e-4,8e-5 -10e-4,-7e-5 -0.002,0 1.1e-4,0.003 -10e-5,0.003 0,0.004 1.4e-4,0.003 2.5e-4,0.004 5.3e-4,0.006 10e-4,-0.003 0.002,-0.007 0.003,-0.0109 -2.7e-4,5e-5 -8e-4,0 -10e-4,0 7.9e-4,-0.003 10e-4,-0.003 0.002,-0.004 9e-5,-0.003 7.9e-4,-0.004 0.001,-0.006 z m -0.002,0.01 c -2.7e-4,0.004 -8e-4,0.007 -0.002,0.0114 v 0.003 c 0.003,-0.006 0.007,-0.0103 0.0119,-0.014 h -0.0103 v 0 z m -0.002,0.013 h -5.3e-4 c 5e-5,0 -6e-5,0.003 0,0.003 1.4e-4,0 2.6e-4,-0.003 5.3e-4,-0.003 z m -0.007,0.0269 h 5.3e-4 c 8e-5,0 5.3e-4,0 5.3e-4,-0.003 7.9e-4,-0.006 10e-4,-0.0127 0.003,-0.0175 -0.002,0.007 -0.003,0.013 -0.004,0.0196 z m 10e-4,-0.003 v 0.003 h 0.004 c 10e-5,-0.003 -5.3e-4,-0.006 -5.3e-4,-0.009 1.1e-4,0 -1.2e-4,8e-5 0,-0.003 2e-5,0 -3e-5,0 0,-0.003 -0.002,0.004 -0.003,0.008 -0.003,0.0124 z m 0,0.003 h -5.3e-4 c -1.8e-4,0.003 -5.3e-4,0.003 -0.001,0.005 h 5.3e-4 c 5.3e-4,-0.003 7.9e-4,-0.003 10e-4,-0.005 z m 0.0455,-0.0481 c -0.005,0.003 -0.0104,0.003 -0.0145,0.005 -9e-5,0 -5.3e-4,0.003 -5.3e-4,0.003 -8e-4,7e-5 -10e-4,-1.1e-4 -0.002,0 -0.01,0.006 -0.018,0.0124 -0.0233,0.0201 7e-5,0 5.3e-4,0.003 5.3e-4,0.003 0.007,-2.7e-4 0.0148,0 0.0222,0 2.6e-4,-0.007 0.001,-0.0153 0.003,-0.0222 v 0 c 0.007,0 0.0131,8e-5 0.0196,-0.003 8e-5,-0.003 0.001,-0.003 0.001,-0.005 -0.002,2.3e-4 -0.004,0 -0.006,0 z m 0.22789,0.0987 c 5e-5,0 -5e-5,0.003 0,0.005 0,0.003 2.7e-4,0.005 5.3e-4,0.008 1.5e-4,-0.003 -5.3e-4,-0.004 0,-0.007 1.5e-4,0 -1e-5,-0.003 0,-0.003 0,-0.003 -5.3e-4,-0.003 -5.3e-4,-0.003 z"
           style="fill:#000000;fill-opacity:1;stroke:none;stroke-width:1.88739085px;stroke-linecap:butt;stroke-linejoin:miter;stroke-opacity:1" />
      </g>
      <g
         style="fill:url(#linearGradient2069);fill-opacity:1;stroke:none;stroke-width:7.13344622"
         transform="matrix(0.12463632,0,0,0.12458092,65.159791,254.87618)"
         id="g1220">
        <path
           id="path6668"
           style="display:inline;fill:url(#linearGradient2107);fill-opacity:1;stroke:none;stroke-width:36.50866699;enable-background:new"
           d="m -386.54512,192.02165 c -5.22414,0 -9.46402,4.20074 -9.46402,9.37669 0,5.17595 4.23988,9.37669 9.46402,9.37669 5.22415,0 9.46402,-4.20074 9.46402,-9.37669 0,-5.17595 -4.23987,-9.37669 -9.46402,-9.37669 z"
           inkscape:connector-curvature="0" />
        <path
           style="fill:url(#linearGradient2109);fill-opacity:1;stroke:none;stroke-width:1.88739085px;stroke-linecap:butt;stroke-linejoin:miter;stroke-opacity:1"
           d="m -418.0611,213.03714 c -3.94267,0.13534 -3.91804,5.64702 -1.67949,6.49831 11.68139,4.44223 23.89705,2.14057 23.86315,9.2723 0.67865,4.71905 0.40968,12.76567 -1.08521,21.1119 -1.29894,7.25217 -3.64411,14.77481 -5.48804,21.05866 -0.14154,5.5263 5.11074,5.15419 6.26732,3.69382 2.01261,-2.54127 4.41682,-9.61943 6.1867,-16.97466 1.14584,-4.76186 3.22946,-8.1561 3.30626,-7.92562 0,0 0.004,0.006 0.004,0.007 2.7e-4,-0.003 7.9e-4,-0.003 0.001,-0.004 -5e-5,-2.4e-4 -0.002,0 -0.002,0 -2.5e-4,-0.0172 0.004,-0.0238 0.006,-0.0341 -6e-5,0 -1.7e-4,0.003 0,0.003 5.3e-4,0.003 -1.4e-4,0.005 0,0.007 1.2e-4,-0.003 5.3e-4,-0.005 5.3e-4,-0.008 4e-5,-0.003 -5e-5,-0.004 0,-0.005 -4e-5,0 -5.3e-4,0 -5.3e-4,0 2.7e-4,0 -10e-4,-0.003 0,-0.003 h 5.3e-4 5.3e-4 c 10e-4,-0.005 0.003,-0.007 0.005,-0.0103 v 0 c 0.007,-0.0167 0.0162,-0.0267 0.0305,-0.0217 -0.003,0.009 -0.006,0.0175 -0.007,0.0254 0.004,-0.003 0.009,5e-5 0.0134,-0.003 0.002,0 0.004,5e-5 0.006,-0.003 2.2e-4,-0.005 0.002,-0.01 0.002,-0.0145 -0.004,-0.003 -0.009,-0.007 -0.0129,-0.008 10e-4,-0.005 0.002,-0.009 0.005,-0.0151 0.004,-0.009 0.0108,-0.0164 0.0171,-0.0243 0.0204,0 0.0389,0.003 0.0553,0.009 10e-4,1.9e-4 0.003,-2.4e-4 0.004,0 0.06,0.0116 0.0821,0.0397 0.093,0.0723 0.001,0.003 0.002,0.003 0.003,0.005 -7.9e-4,0 -10e-4,-1e-4 -0.002,-0.003 1.5e-4,0.003 -1.4e-4,0.003 0,0.003 0.006,0.008 0.0131,0.0159 0.0171,0.0249 0.002,0.006 0.003,0.01 0.004,0.014 -0.004,0.003 -0.008,0.005 -0.0124,0.008 2e-4,0.005 0.002,0.01 0.002,0.0151 0.002,0.003 0.004,0.003 0.006,0.003 0.004,0.003 0.01,7e-5 0.0134,0.003 -0.002,-0.008 -0.004,-0.0159 -0.007,-0.0243 0.0144,-0.005 0.0238,0.005 0.0305,0.0222 0.002,0.004 0.004,0.006 0.005,0.0103 h 5.3e-4 c 10e-4,0 -2.7e-4,0.003 0,0.003 0.002,0.0111 0.006,0.0177 0.006,0.0356 0,0 -0.002,-2.4e-4 -0.002,0 2.6e-4,0 7.9e-4,0 10e-4,0.004 10e-5,0 0.004,-0.007 0.004,-0.007 0.0768,-0.23048 2.16041,3.16375 3.30626,7.92562 1.76987,7.35523 4.17409,14.43339 6.1867,16.97466 1.15658,1.46037 6.40885,1.83248 6.26731,-3.69382 -1.84392,-6.28386 -4.18909,-13.80649 -5.48803,-21.05867 -1.49489,-8.34623 -1.76386,-16.39284 -1.08521,-21.11189 -0.0339,-7.13172 12.18176,-4.83007 23.86314,-9.2723 2.23856,-0.85128 2.26319,-6.36297 -1.67948,-6.49831 v 0.001 c -0.26284,-0.009 -0.54318,0.006 -0.84181,0.0475 -11.00762,1.55816 -20.03009,1.87809 -29.67622,1.98179 -11.43469,0.0543 -19.90631,-0.42526 -31.67094,-2.06964 -0.29863,-0.0417 -0.57896,-0.0566 -0.84181,-0.0475 z m 31.65491,36.82462 c -1.5e-4,0 -7.9e-4,-0.003 -0.001,-0.003 1.1e-4,0 5.3e-4,0.003 5.3e-4,0.003 z m -5.3e-4,0 h -5.3e-4 c 2.7e-4,0.003 5.3e-4,0.003 10e-4,0.005 h 5.3e-4 c -5.3e-4,-0.003 -7.9e-4,-0.003 -0.001,-0.005 z m -5.3e-4,0 v -0.003 c -6e-5,0 6e-5,0 0,0 -2.6e-4,-0.004 -0.002,-0.007 -0.003,-0.0114 3e-5,0.003 -2e-5,0.003 0,0.003 1.2e-4,0.003 -1.1e-4,0.003 0,0.003 0,0.003 -5.3e-4,0.006 -5.3e-4,0.009 z m -0.009,-0.0491 c 1.4e-4,0.003 10e-4,0.003 10e-4,0.005 5.3e-4,0 8e-4,0 0.002,0.004 -10e-4,-0.006 -0.002,-0.0116 -0.003,-0.009 z m 0.003,0.009 c -2.6e-4,-6e-5 -7.9e-4,8e-5 -10e-4,0 8e-4,0.003 0.002,0.007 0.003,0.0108 2.7e-4,-0.003 2.7e-4,-0.003 5.3e-4,-0.006 1e-4,0 -1.1e-4,0 0,-0.004 -5.3e-4,-8e-5 -10e-4,8e-5 -0.002,0 -1.5e-4,0 -2.6e-4,0 -5.3e-4,0 z m -10e-4,0 v 0 0 h -0.0104 c 0.005,0.003 0.009,0.007 0.0119,0.0135 v 0 c -7.9e-4,-0.004 -10e-4,-0.008 -0.002,-0.0114 z m 0.002,0.0124 c 2.7e-4,0 2.7e-4,0.003 5.3e-4,0.003 5e-5,0 -6e-5,-0.003 0,-0.003 z m 5.3e-4,0.003 c -6e-5,0 6e-5,0.003 0,0.003 10e-4,0 2.4e-4,0.003 10e-4,0.005 -5.3e-4,-0.003 -5.3e-4,-0.005 -10e-4,-0.008 z m 0,0.003 c -0.005,-0.008 -0.0136,-0.014 -0.0233,-0.0201 -7.9e-4,-1e-4 -10e-4,8e-5 -0.002,0 -1.3e-4,0 -5.3e-4,-0.003 -5.3e-4,-0.003 -0.004,-0.003 -0.01,-0.003 -0.0145,-0.005 -0.002,0 -0.004,2.3e-4 -0.006,0 0,0.003 0.001,0.003 0.001,0.005 0.007,0.003 0.0132,0.003 0.0196,0.003 0.001,0.007 0.002,0.0148 0.003,0.0217 0.007,0 0.0148,-2.7e-4 0.0222,0 0,0 5.3e-4,-0.003 5.3e-4,-0.003 z m -0.26303,-0.11575 c -1.8e-4,-0.003 -0.002,0.005 -0.003,0.0103 -5.3e-4,8e-5 -10e-4,-7e-5 -0.002,0 1.1e-4,0.003 -10e-5,0.003 0,0.004 1.4e-4,0.003 2.5e-4,0.004 5.3e-4,0.006 10e-4,-0.003 0.002,-0.007 0.003,-0.0109 -2.7e-4,5e-5 -8e-4,0 -10e-4,0 7.9e-4,-0.003 10e-4,-0.003 0.002,-0.004 9e-5,-0.003 7.9e-4,-0.004 0.001,-0.006 z m -0.002,0.01 c -2.7e-4,0.004 -8e-4,0.007 -0.002,0.0114 v 0.003 c 0.003,-0.006 0.007,-0.0103 0.0119,-0.014 h -0.0103 v 0 z m -0.002,0.013 h -5.3e-4 c 5e-5,0 -6e-5,0.003 0,0.003 1.4e-4,0 2.6e-4,-0.003 5.3e-4,-0.003 z m -0.007,0.0269 h 5.3e-4 c 8e-5,0 5.3e-4,0 5.3e-4,-0.003 7.9e-4,-0.006 10e-4,-0.0127 0.003,-0.0175 -0.002,0.007 -0.003,0.013 -0.004,0.0196 z m 10e-4,-0.003 v 0.003 h 0.004 c 10e-5,-0.003 -5.3e-4,-0.006 -5.3e-4,-0.009 1.1e-4,0 -1.2e-4,8e-5 0,-0.003 2e-5,0 -3e-5,0 0,-0.003 -0.002,0.004 -0.003,0.008 -0.003,0.0124 z m 0,0.003 h -5.3e-4 c -1.8e-4,0.003 -5.3e-4,0.003 -0.001,0.005 h 5.3e-4 c 5.3e-4,-0.003 7.9e-4,-0.003 10e-4,-0.005 z m 0.0455,-0.0481 c -0.005,0.003 -0.0104,0.003 -0.0145,0.005 -9e-5,0 -5.3e-4,0.003 -5.3e-4,0.003 -8e-4,7e-5 -10e-4,-1.1e-4 -0.002,0 -0.01,0.006 -0.018,0.0124 -0.0233,0.0201 7e-5,0 5.3e-4,0.003 5.3e-4,0.003 0.007,-2.7e-4 0.0148,0 0.0222,0 2.6e-4,-0.007 0.001,-0.0153 0.003,-0.0222 v 0 c 0.007,0 0.0131,8e-5 0.0196,-0.003 8e-5,-0.003 0.001,-0.003 0.001,-0.005 -0.002,2.3e-4 -0.004,0 -0.006,0 z m 0.22789,0.0987 c 5e-5,0 -5e-5,0.003 0,0.005 0,0.003 2.7e-4,0.005 5.3e-4,0.008 1.5e-4,-0.003 -5.3e-4,-0.004 0,-0.007 1.5e-4,0 -1e-5,-0.003 0,-0.003 0,-0.003 -5.3e-4,-0.003 -5.3e-4,-0.003 z"
           id="path1037"
           inkscape:connector-curvature="0"
           sodipodi:nodetypes="cccsccsccccccccccccccccccccccccccccccccccccccscccccsccsccccccscccccccccccccccccccccccccccccccccccccscccccccccccccccccccccccccccccccccccccccccccccccccccccccccccccccccccccccc" />
      </g>
    </g>
  </g>
</svg>
