<?xml version="1.0" encoding="UTF-8" standalone="no"?>
<!-- Created with Inkscape (http://www.inkscape.org/) -->

<svg
   xmlns:dc="http://purl.org/dc/elements/1.1/"
   xmlns:cc="http://creativecommons.org/ns#"
   xmlns:rdf="http://www.w3.org/1999/02/22-rdf-syntax-ns#"
   xmlns:svg="http://www.w3.org/2000/svg"
   xmlns="http://www.w3.org/2000/svg"
   xmlns:sodipodi="http://sodipodi.sourceforge.net/DTD/sodipodi-0.dtd"
   xmlns:inkscape="http://www.inkscape.org/namespaces/inkscape"
   width="128"
   height="128"
   viewBox="0 0 33.866666 33.866668"
   version="1.1"
   id="svg8"
   inkscape:version="0.92.2 5c3e80d, 2017-08-06"
   sodipodi:docname="aa 4.svg">
  <defs
     id="defs2" />
  <sodipodi:namedview
     id="base"
     pagecolor="#ffffff"
     bordercolor="#666666"
     borderopacity="1.0"
     inkscape:pageopacity="0.0"
     inkscape:pageshadow="2"
     inkscape:zoom="0.49497475"
     inkscape:cx="1.6974655"
     inkscape:cy="-98.88756"
     inkscape:document-units="mm"
     inkscape:current-layer="layer1"
     showgrid="false"
     units="px"
     inkscape:window-width="1600"
     inkscape:window-height="803"
     inkscape:window-x="0"
     inkscape:window-y="0"
     inkscape:window-maximized="1" />
  <metadata
     id="metadata5">
    <rdf:RDF>
      <cc:Work
         rdf:about="">
        <dc:format>image/svg+xml</dc:format>
        <dc:type
           rdf:resource="http://purl.org/dc/dcmitype/StillImage" />
        <dc:title></dc:title>
      </cc:Work>
    </rdf:RDF>
  </metadata>
  <g
     inkscape:label="Layer 1"
     inkscape:groupmode="layer"
     id="layer1"
     transform="translate(0,-263.13332)">
    <g
       id="g1460"
       transform="matrix(0.99241643,0,0,0.99241643,51.138885,-5.2591457)">
      <circle
         style="opacity:0.25;fill:#000000;fill-opacity:1;stroke:none;stroke-width:0.2;stroke-miterlimit:4;stroke-dasharray:none;stroke-dashoffset:0;stroke-opacity:1"
         id="circle1444"
         cx="-34.466934"
         cy="287.82071"
         r="15.681722" />
      <circle
         r="15.681722"
         cy="287.29153"
         cx="-34.466934"
         id="path1379"
         style="opacity:1;fill:#ececec;fill-opacity:1;stroke:#999999;stroke-width:0.2;stroke-miterlimit:4;stroke-dasharray:none;stroke-dashoffset:0;stroke-opacity:1" />
      <g
         id="g1442"
         transform="matrix(0.59782476,0,0,0.59782476,-48.814727,273.45974)"
         style="opacity:0.25;fill:#000000">
        <g
           style="fill:#000000"
           id="g1440">
          <linearGradient
             id="linearGradient1436"
             gradientUnits="userSpaceOnUse"
             x1="24"
             y1="4.0216999"
             x2="24"
             y2="44.021702">
            <stop
               offset="0"
               style="stop-color:#FF2929"
               id="stop1432" />
            <stop
               offset="1"
               style="stop-color:#9D0000"
               id="stop1434" />
          </linearGradient>
          <path
             style="fill:#000000"
             inkscape:connector-curvature="0"
             d="m 24,4.022 c -10.493,0 -19,8.954 -19,20 0,11.046 8.507,20 19,20 10.493,0 19,-8.954 19,-20 0,-11.046 -8.507,-20 -19,-20 z M 24.031,41 c -6.969,0 -8,-7.611 -8,-17 0,-9.389 1.031,-17 8,-17 6.969,0 8,7.611 8,17 0,9.389 -1.031,17 -8,17 z"
             id="path1438" />
        </g>
      </g>
      <g
         style="opacity:1"
         transform="matrix(0.59782476,0,0,0.59782476,-48.814727,272.93057)"
         id="g898">
        <g
           id="g896">
          <linearGradient
             y2="44.021702"
             x2="24"
             y1="4.0216999"
             x1="24"
             gradientUnits="userSpaceOnUse"
             id="SVGID_1_">
            <stop
               id="stop889"
               style="stop-color:#FF2929"
               offset="0" />
            <stop
               id="stop891"
               style="stop-color:#9D0000"
               offset="1" />
          </linearGradient>
          <path
             id="path894"
             d="m 24,4.022 c -10.493,0 -19,8.954 -19,20 0,11.046 8.507,20 19,20 10.493,0 19,-8.954 19,-20 0,-11.046 -8.507,-20 -19,-20 z M 24.031,41 c -6.969,0 -8,-7.611 -8,-17 0,-9.389 1.031,-17 8,-17 6.969,0 8,7.611 8,17 0,9.389 -1.031,17 -8,17 z"
             inkscape:connector-curvature="0"
             style="fill:url(#SVGID_1_)" />
        </g>
      </g>
    </g>
  </g>
</svg>
