<?xml version="1.0" encoding="UTF-8" standalone="no"?>
<!-- Created with Inkscape (http://www.inkscape.org/) -->

<svg
   xmlns:dc="http://purl.org/dc/elements/1.1/"
   xmlns:cc="http://creativecommons.org/ns#"
   xmlns:rdf="http://www.w3.org/1999/02/22-rdf-syntax-ns#"
   xmlns:svg="http://www.w3.org/2000/svg"
   xmlns="http://www.w3.org/2000/svg"
   xmlns:xlink="http://www.w3.org/1999/xlink"
   xmlns:sodipodi="http://sodipodi.sourceforge.net/DTD/sodipodi-0.dtd"
   xmlns:inkscape="http://www.inkscape.org/namespaces/inkscape"
   version="1.1"
   id="svg2"
   width="128"
   height="128"
   viewBox="0 0 128 128"
   sodipodi:docname="effects.svg"
   inkscape:version="0.92.2 5c3e80d, 2017-08-06">
  <metadata
     id="metadata8">
    <rdf:RDF>
      <cc:Work
         rdf:about="">
        <dc:format>image/svg+xml</dc:format>
        <dc:type
           rdf:resource="http://purl.org/dc/dcmitype/StillImage" />
        <dc:title></dc:title>
      </cc:Work>
    </rdf:RDF>
  </metadata>
  <defs
     id="defs6">
    <linearGradient
       inkscape:collect="always"
       id="linearGradient1075">
      <stop
         style="stop-color:#68ff7a;stop-opacity:1"
         offset="0"
         id="stop1071" />
      <stop
         id="stop1109"
         offset="0.69490701"
         style="stop-color:#0fe1ff;stop-opacity:0.53612167" />
      <stop
         style="stop-color:#0ffff0;stop-opacity:0;"
         offset="1"
         id="stop1073" />
    </linearGradient>
    <linearGradient
       inkscape:collect="always"
       id="linearGradient1001">
      <stop
         style="stop-color:#7507eb;stop-opacity:1;"
         offset="0"
         id="stop997" />
      <stop
         style="stop-color:#7507eb;stop-opacity:0;"
         offset="1"
         id="stop999" />
    </linearGradient>
    <linearGradient
       inkscape:collect="always"
       id="linearGradient880">
      <stop
         style="stop-color:#eaebf2;stop-opacity:1"
         offset="0"
         id="stop876" />
      <stop
         id="stop884"
         offset="0.22201402"
         style="stop-color:#f5f5f8;stop-opacity:1" />
      <stop
         style="stop-color:#cbcdd5;stop-opacity:1;"
         offset="0.75727856"
         id="stop886" />
      <stop
         id="stop888"
         offset="0.89709383"
         style="stop-color:#e2e3e7;stop-opacity:1" />
      <stop
         style="stop-color:#b9bbc5;stop-opacity:1"
         offset="1"
         id="stop878" />
    </linearGradient>
    <linearGradient
       inkscape:collect="always"
       id="linearGradient851">
      <stop
         style="stop-color:#0d0f13;stop-opacity:1"
         offset="0"
         id="stop847" />
      <stop
         id="stop863"
         offset="0.11931818"
         style="stop-color:#2c2f33;stop-opacity:1;" />
      <stop
         id="stop855"
         offset="0.23863636"
         style="stop-color:#4f5458;stop-opacity:1" />
      <stop
         style="stop-color:#131924;stop-opacity:1"
         offset="0.41254544"
         id="stop861" />
      <stop
         style="stop-color:#0d1013;stop-opacity:1"
         offset="0.77603638"
         id="stop857" />
      <stop
         id="stop859"
         offset="0.91041452"
         style="stop-color:#868686;stop-opacity:0.92015207" />
      <stop
         style="stop-color:#2c2e33;stop-opacity:1"
         offset="1"
         id="stop849" />
    </linearGradient>
    <linearGradient
       id="linearGradient839"
       inkscape:collect="always">
      <stop
         id="stop835"
         offset="0"
         style="stop-color:#448eff;stop-opacity:1;" />
      <stop
         id="stop837"
         offset="1"
         style="stop-color:#5eacff;stop-opacity:1" />
    </linearGradient>
    <linearGradient
       inkscape:collect="always"
       xlink:href="#linearGradient839"
       id="linearGradient825"
       x1="102.27081"
       y1="146.5052"
       x2="89.998306"
       y2="253.88956"
       gradientUnits="userSpaceOnUse"
       gradientTransform="matrix(0.68215936,0,0,0.68215936,5.3953014,-66.216824)" />
    <linearGradient
       inkscape:collect="always"
       xlink:href="#linearGradient851"
       id="linearGradient853"
       x1="-42.953743"
       y1="110.32689"
       x2="-30.425568"
       y2="110.32689"
       gradientUnits="userSpaceOnUse"
       gradientTransform="matrix(0.68215936,0,0,0.68215936,129.26809,-41.211856)" />
    <linearGradient
       inkscape:collect="always"
       xlink:href="#linearGradient880"
       id="linearGradient882"
       x1="165.05263"
       y1="35.245499"
       x2="176.52324"
       y2="39.464172"
       gradientUnits="userSpaceOnUse"
       gradientTransform="matrix(0.68212788,0.00655342,-0.00655342,0.68212788,-15.859255,2.5834804)" />
    <linearGradient
       inkscape:collect="always"
       xlink:href="#linearGradient839"
       id="linearGradient982"
       gradientUnits="userSpaceOnUse"
       gradientTransform="matrix(0.6666371,-0.14469407,0.14469407,0.6666371,-27.624667,-49.42633)"
       x1="102.27081"
       y1="146.5052"
       x2="89.998306"
       y2="253.88956" />
    <linearGradient
       inkscape:collect="always"
       xlink:href="#linearGradient1001"
       id="linearGradient1056"
       gradientUnits="userSpaceOnUse"
       x1="227.34183"
       y1="208.51694"
       x2="33.519783"
       y2="237.77237" />
    <linearGradient
       inkscape:collect="always"
       xlink:href="#linearGradient1075"
       id="linearGradient1107"
       gradientUnits="userSpaceOnUse"
       x1="-94.010727"
       y1="98.717949"
       x2="-200.41173"
       y2="138.09221"
       gradientTransform="matrix(0.68215936,0,0,0.68215936,172.48246,-66.565649)" />
    <linearGradient
       inkscape:collect="always"
       xlink:href="#linearGradient1001"
       id="linearGradient1285"
       gradientUnits="userSpaceOnUse"
       x1="227.34183"
       y1="208.51694"
       x2="33.519783"
       y2="237.77237"
       gradientTransform="translate(-240.33642,-80.282591)" />
  </defs>
  <sodipodi:namedview
     pagecolor="#ffffff"
     bordercolor="#666666"
     borderopacity="1"
     objecttolerance="10"
     gridtolerance="10"
     guidetolerance="10"
     inkscape:pageopacity="0"
     inkscape:pageshadow="2"
     inkscape:window-width="1600"
     inkscape:window-height="811"
     id="namedview4"
     showgrid="false"
     inkscape:zoom="4.7209216"
     inkscape:cx="29.188756"
     inkscape:cy="57.088179"
     inkscape:window-x="0"
     inkscape:window-y="0"
     inkscape:window-maximized="1"
     inkscape:current-layer="svg2" />
  <g
     id="g1064"
     transform="matrix(0.99811104,0,0,0.99811104,0.00755881,0.12089286)">
    <path
       style="opacity:0.25;fill:#000000;fill-opacity:1;stroke:none;stroke-width:0.68215936px;stroke-linecap:butt;stroke-linejoin:miter;stroke-opacity:1"
       d="m 26.150389,29.357005 -12.383287,75.695025 107.961328,9.59269 0.52323,-77.78798 z"
       id="path989"
       inkscape:connector-curvature="0"
       sodipodi:nodetypes="ccccc" />
    <path
       sodipodi:nodetypes="ccccc"
       inkscape:connector-curvature="0"
       id="path984"
       d="m 12.506267,39.615864 3.9543,76.599256 L 124,102.68966 108.01158,26.560725 Z"
       style="opacity:0.25;fill:#000000;fill-opacity:1;stroke:none;stroke-width:0.68215936px;stroke-linecap:butt;stroke-linejoin:miter;stroke-opacity:1" />
    <g
       id="g1068"
       style="opacity:1"
       transform="translate(-240.33642,-122.94926)" />
    <path
       style="fill:url(#linearGradient982);fill-opacity:1;stroke:#335e8c;stroke-width:0.37795275;stroke-linecap:butt;stroke-linejoin:miter;stroke-miterlimit:4;stroke-dasharray:none;stroke-opacity:1"
       d="m 12.506267,37.615864 3.9543,76.599256 L 124,100.68966 108.01158,24.560725 Z"
       id="path974"
       inkscape:connector-curvature="0"
       sodipodi:nodetypes="ccccc" />
    <path
       style="color:#000000;font-style:normal;font-variant:normal;font-weight:normal;font-stretch:normal;font-size:medium;line-height:normal;font-family:sans-serif;font-variant-ligatures:normal;font-variant-position:normal;font-variant-caps:normal;font-variant-numeric:normal;font-variant-alternates:normal;font-feature-settings:normal;text-indent:0;text-align:start;text-decoration:none;text-decoration-line:none;text-decoration-style:solid;text-decoration-color:#000000;letter-spacing:normal;word-spacing:normal;text-transform:none;writing-mode:lr-tb;direction:ltr;text-orientation:mixed;dominant-baseline:auto;baseline-shift:baseline;text-anchor:start;white-space:normal;shape-padding:0;clip-rule:nonzero;display:inline;overflow:visible;visibility:visible;opacity:1;isolation:auto;mix-blend-mode:normal;color-interpolation:sRGB;color-interpolation-filters:linearRGB;solid-color:#000000;solid-opacity:1;vector-effect:none;fill:#ffffff;fill-opacity:1;fill-rule:nonzero;stroke:none;stroke-width:0.68215936px;stroke-linecap:butt;stroke-linejoin:miter;stroke-miterlimit:4;stroke-dasharray:none;stroke-dashoffset:0;stroke-opacity:1;color-rendering:auto;image-rendering:auto;shape-rendering:auto;text-rendering:auto;enable-background:accumulate"
       d="m 16.637881,39.499954 0.0526,1.203342 c -0.400046,0.05287 -1.006772,0.135982 -1.396353,0.187192 0.245284,0.04482 0.731315,0.0513 1.405848,0.0262 l 2.825245,64.447942 -0.609427,0.1759 0.613697,-0.0746 0.210822,4.80917 -1.438142,0.57256 c 0,0 1.413905,-0.17442 1.455278,-0.17954 l 0.04264,0.96283 0.682111,-0.0295 c -0.02094,-0.23284 -0.04414,-0.67701 -0.06651,-1.01626 1.975213,-0.24452 23.987492,-2.96859 48.151187,-5.96169 12.612178,-1.56225 25.271064,-3.13084 34.868263,-4.32065 8.65609,-1.073136 13.47219,-1.670925 14.88486,-1.848314 0.14192,0.750368 0.39857,1.474651 1.07963,1.971584 l -0.4172,-2.054016 c 0.0634,-0.0082 0.93287,-0.115831 0.95583,-0.118846 l -0.0881,-0.676184 c -0.0207,0.0027 -0.93755,0.116793 -1.00355,0.125115 l -0.92821,-4.571675 1.63808,-0.411458 -1.67984,0.206462 -11.90824,-58.626324 c -0.10825,-1.643758 -0.29516,-3.131172 -0.77679,-4.533644 0.4609,-0.06078 1.15466,-0.155287 1.60184,-0.214069 -0.2675,-0.06064 -0.88935,-0.06139 -1.69211,-0.0322 -0.24044,-0.646741 -0.54058,-1.27737 -0.9391,-1.895755 l 0.3856,1.927271 c -11.246098,0.567727 -60.565012,7.544894 -87.510245,11.105732 -0.1315,-0.730627 -0.264535,-1.162475 -0.399657,-1.156642 z m 0.442428,1.3914 C 27.438265,40.39889 77.215556,33.462816 104.60588,29.843647 l 12.61609,63.162663 -95.632042,11.76424 -1.439677,0.41474 C 19.469259,88.821522 18.372067,48.805092 17.080309,40.891354 Z m 5.165249,2.371827 c -0.0034,-0.01617 0.03179,0.236607 0.06405,0.558709 0.0074,0.07397 0.01951,0.205685 0.02776,0.291194 l -1.015612,0.138635 0.09234,0.676641 0.986688,-0.133731 c 0.01003,0.110257 0.01671,0.176597 0.02736,0.295375 0.06405,0.714419 0.142769,1.649175 0.218803,2.546999 l -2.043061,0.304379 0.100148,0.674943 2.000835,-0.297947 c 0.01228,0.145968 0.02319,0.262106 0.0354,0.408149 0.134085,1.60154 0.181031,2.188872 0.260551,3.166441 l -1.003743,0.161945 0.109568,0.674266 0.949784,-0.15296 c 0.02292,0.282687 0.106615,1.295229 0.106615,1.295229 l 0.679349,-0.05478 c 0,0 -0.08552,-1.044291 -0.110114,-1.349011 l 20.931664,-3.373462 -0.05389,-0.335971 0.334477,-0.06699 -0.252481,-1.263577 c 0.52926,0.08253 0.887332,0.284835 1.170708,0.557106 0.507554,0.487635 0.812588,1.312734 1.203684,2.222789 0.391089,0.910062 0.901133,1.913805 1.961747,2.55588 0.714569,0.432585 1.650485,0.673919 2.889736,0.669342 0.04857,0.323337 0.08653,0.588076 0.135416,0.912695 0.348126,2.311749 0.541164,3.564897 0.692446,4.553311 l -0.228073,0.03588 0.106683,0.673523 0.223891,-0.03629 c 0.01685,0.109746 0.12916,0.8527 0.12916,0.8527 l 0.67411,-0.104009 c 0,0 -0.112808,-0.744864 -0.129733,-0.855312 l 21.058628,-3.360113 -0.05416,-0.337273 0.338119,-0.05021 -1.631766,-11.004015 -0.336817,0.04993 -0.05648,-0.335397 -21.024657,3.504082 c -0.01037,-0.08851 -0.03581,-0.276172 -0.0367,-0.294706 l -0.681252,0.03336 c 0.0034,0.06672 0.02988,0.254152 0.04427,0.373496 l -0.83295,0.138492 0.11188,0.672398 0.807916,-0.134454 c 0.05068,0.368626 0.106928,0.774695 0.18095,1.285912 0.09863,0.681443 0.233946,1.57866 0.357362,2.406494 -1.008838,-0.01426 -1.706196,-0.22162 -2.20819,-0.525515 -0.782526,-0.473719 -1.179966,-1.21979 -1.55106,-2.083315 -0.371102,-0.863525 -0.682467,-1.835759 -1.434691,-2.558479 -0.494852,-0.475445 -1.177939,-0.781987 -2.085763,-0.853395 l -0.964171,-4.837895 -0.33477,0.06569 -0.04598,-0.337676 -20.127481,2.738106 c -0.0075,-0.07781 -0.01842,-0.198781 -0.02524,-0.267195 -0.03268,-0.326365 -0.04687,-0.49844 -0.07648,-0.635083 z m 0.831805,1.439131 19.838552,-2.699932 0.873648,4.383099 c -0.28549,0.01358 -0.583546,0.04038 -0.907592,0.09611 a 0.51167068,0.51167068 0 0 0 -0.05109,0.0097 0.51167068,0.51167068 0 0 0 0.223707,0.998504 c 0.354014,-0.06092 0.660119,-0.09015 0.9355,-0.09944 l 0.216865,1.087253 -20.531605,3.307081 c -0.07949,-0.981027 -0.122823,-1.538924 -0.254732,-3.114535 -0.01351,-0.161679 -0.02592,-0.290668 -0.0395,-0.452237 L 39.165158,45.8704 39.06501,45.195457 23.323194,47.53654 c -0.07498,-0.882537 -0.152701,-1.803862 -0.215815,-2.508109 -0.01173,-0.130798 -0.01896,-0.205685 -0.02988,-0.326175 z m 28.824105,3.906229 20.707473,-3.451603 1.531338,10.327783 -20.721348,3.306004 c -0.151459,-0.989827 -0.343671,-2.239543 -0.69132,-4.548107 -0.04482,-0.297585 -0.07973,-0.539383 -0.124228,-0.836048 0.416287,-0.02947 0.855584,-0.07773 1.336964,-0.159304 a 0.51167068,0.51167068 0 0 0 0.19095,-0.06874 1.0496759,1.1157383 77.75386 0 0 -0.0528,0.592251 1.0496759,1.1157383 77.75386 0 0 1.313218,0.786564 1.0496759,1.1157383 77.75386 0 0 0.867106,-1.262534 l -5.8e-4,-0.0027 a 1.0496759,1.1157383 77.75386 0 0 -1.315824,-0.786012 1.0496759,1.1157383 77.75386 0 0 -0.56933,0.310356 0.51167068,0.51167068 0 0 0 -0.602667,-0.578144 c -0.486032,0.08239 -0.91891,0.12959 -1.317434,0.155068 -0.12785,-0.857569 -0.267072,-1.781472 -0.36883,-2.484438 -0.07499,-0.518202 -0.132168,-0.931502 -0.182757,-1.300516 z m -8.13621,7.740237 0.117495,1.112909 -21.450071,3.585512 0.05675,0.3367 -0.337559,0.0528 2.042958,13.074341 -1.069387,0.142128 0.09073,0.675624 1.083705,-0.145238 0.121145,0.778098 0.67381,-0.105346 -0.119085,-0.762176 22.401643,-2.989032 -0.08975,-0.6772 -1.233665,0.164148 -1.426361,-13.562644 0.690632,-0.115838 -0.112161,-0.6737 -0.649989,0.10834 -0.112358,-1.07039 z m 37.75091,-7.7794 -0.66548,0.150028 0.266308,1.182864 -1.604589,0.270558 0.11315,0.672125 1.641316,-0.277175 3.558252,15.815749 c -1.117151,0.532098 -1.890386,1.19942 -2.41176,1.953643 -0.796749,1.152556 -1.01036,2.440479 -1.205642,3.622382 -0.195282,1.181902 -0.377555,2.255737 -0.960132,3.101458 -0.582585,0.845714 -1.575113,1.544907 -3.624136,1.933212 a 0.51167068,0.51167068 0 1 0 0.190691,1.004309 c 2.217502,-0.42023 3.526293,-1.267923 4.276539,-2.357031 0.750246,-1.089115 0.93228,-2.338927 1.126634,-3.515249 0.194368,-1.176329 0.396287,-2.28185 1.036534,-3.208025 0.387801,-0.560974 0.945814,-1.077116 1.800614,-1.515608 l 2.557041,11.366269 c -0.07962,0.01166 -0.970549,0.145245 -0.970549,0.145245 l 0.100147,0.674949 c 0,0 0.933044,-0.138997 1.020872,-0.15206 l 0.235577,1.047742 0.665481,-0.150027 -0.225119,-0.999561 c 1.313354,-0.195043 4.666754,-0.691887 9.473836,-1.414158 2.834057,-0.425824 5.708727,-0.860291 7.959167,-1.206746 1.62257,-0.249773 2.31432,-0.367486 3.04691,-0.490903 l 0.32148,1.537629 0.66779,-0.139366 -0.31469,-1.506378 c 0.0799,-0.01453 0.4578,-0.07075 0.50461,-0.0809 l -0.1447,-0.66664 c -0.0323,0.007 -0.42876,0.06706 -0.49939,0.07977 l -6.05386,-28.971799 -0.3339,0.06968 -0.0567,-0.336707 -21.218092,3.58015 z M 22.877347,61.663727 43.953964,58.141548 45.378408,71.6828 24.870419,74.420326 Z m 32.659471,-6.13032 a 1.0496759,1.1157383 77.75386 0 0 -0.864214,1.263277 1.0496759,1.1157383 77.75386 0 0 1.313225,0.786571 1.0496759,1.1157383 77.75386 0 0 0.867106,-1.262548 l -5.79e-4,-0.0027 a 1.0496759,1.1157383 77.75386 0 0 -1.315552,-0.784702 z m 26.403456,-5.079202 20.857946,-3.518339 5.98016,28.619696 c -0.71191,0.119193 -1.39331,0.235474 -3.01148,0.484578 -2.2489,0.346203 -5.12294,0.780418 -7.956557,1.206167 -4.831708,0.725975 -8.238275,1.231312 -9.522583,1.422023 L 85.688159,67.112257 c 0.398347,-0.159339 0.853641,-0.303554 1.366209,-0.432878 a 1.0496759,1.1157383 77.75386 0 0 1.163047,0.44015 1.0496759,1.1157383 77.75386 0 0 0.867107,-1.262534 l -5.8e-4,-0.0027 a 1.0496759,1.1157383 77.75386 0 0 -1.315544,-0.784701 1.0496759,1.1157383 77.75386 0 0 -0.767764,0.577018 0.51179331,0.51179331 0 0 0 -0.103258,0.01426 c -0.528224,0.129379 -1.000837,0.281732 -1.434929,0.449154 z m 4.254245,5.618039 a 1.0496759,1.1157383 77.75386 0 0 -0.864207,1.263278 1.0496759,1.1157383 77.75386 0 0 1.313218,0.786564 1.0496759,1.1157383 77.75386 0 0 0.866084,-1.260952 l -6.83e-4,-0.0041 A 1.0496759,1.1157383 77.75386 0 0 86.194683,56.07206 Z M 53.86741,73.250027 c -0.002,-0.008 0.0161,0.09032 0.03363,0.217663 0.0176,0.127325 0.04066,0.301289 0.06827,0.515522 0.0116,0.08996 0.03199,0.254868 0.04502,0.358338 -0.19503,0.03254 -0.492553,0.08094 -0.656763,0.108491 -0.628214,0.105291 -0.985058,0.164734 -1.110391,0.191939 l 0.144692,0.666633 c 0.02531,-0.0055 0.451781,-0.08137 1.07887,-0.18642 0.156835,-0.02626 0.442434,-0.07397 0.627559,-0.104869 0.02926,0.236887 0.04987,0.40066 0.08341,0.673114 0.07024,0.571234 0.164878,1.36846 0.247549,2.051308 l -0.457381,0.05976 0.08813,0.676184 0.452183,-0.05867 c 0.04243,0.35181 0.07994,0.658366 0.123573,1.021602 -2.718807,1.003354 -3.535502,2.742526 -4.404737,4.234954 -0.679239,1.1662 -1.416968,2.239073 -3.318773,3.04488 l -0.737176,-5.563405 0.628528,-0.09412 -0.101416,-0.67467 -0.616802,0.09165 -0.125129,-0.940827 -0.675904,0.08947 0.126377,0.952827 -20.774099,3.10068 -0.05335,-0.867782 -0.680583,0.0427 0.05669,0.927054 -1.459371,0.217227 0.100148,0.674949 1.401224,-0.2087 0.191502,3.130982 -1.495334,0.271377 0.121295,0.671715 1.415344,-0.256737 0.602026,9.846438 -1.121736,0.120776 0.07223,0.678271 1.09123,-0.116881 0.113116,1.85281 0.680863,-0.0415 -0.114692,-1.885181 21.945654,-2.363798 0.154099,1.162222 0.675904,-0.08946 -0.152012,-1.146314 1.009828,-0.108743 -0.07382,-0.679301 -1.025735,0.110837 -1.043008,-7.870632 c 2.315201,-0.941646 3.32496,-2.287744 4.067893,-3.563321 0.880716,-1.512135 1.394539,-2.826281 3.645603,-3.706151 0.0076,0.06058 0.01303,0.108122 0.02026,0.168746 0.301221,2.51519 0.44558,3.74118 0.593199,4.987956 l -1.062265,0.162367 0.104016,0.674104 1.038539,-0.158616 c 0.02967,0.250516 0.167771,1.40739 0.167771,1.40739 l 0.678162,-0.07906 c 0,0 -0.139891,-1.173642 -0.17054,-1.432685 l 23.93481,-3.664 -0.102746,-0.674383 -23.912394,3.660501 c -0.14839,-1.253024 -0.290927,-2.460788 -0.590702,-4.963951 -0.01351,-0.112618 -0.02456,-0.200875 -0.03806,-0.313507 0.0807,-0.0249 0.143881,-0.0541 0.228428,-0.0782 a 0.51167068,0.51167068 0 0 0 -0.24542,-0.992432 0.51167068,0.51167068 0 0 0 -0.03486,0.0089 c -0.02578,0.0077 -0.04857,0.01542 -0.07408,0.02306 -0.038,-0.315935 -0.07056,-0.584604 -0.107597,-0.891466 l 19.366176,-2.533322 -0.08946,-0.67589 -19.358086,2.532919 c -0.08251,-0.680816 -0.177655,-1.475825 -0.247727,-2.04581 -0.03486,-0.283382 -0.05635,-0.456064 -0.08675,-0.701028 0.409398,-0.06794 0.717311,-0.11995 1.207982,-0.200834 2.038612,-0.336018 4.700637,-0.770963 7.343807,-1.202688 5.286325,-0.86347 10.497307,-1.711292 10.497307,-1.711292 L 73.712129,71.11877 c 0,0 -5.210927,0.846471 -10.497587,1.709989 -2.64334,0.431759 -5.30559,0.868157 -7.344837,1.204278 -0.480158,0.07916 -0.780117,0.129883 -1.182946,0.196796 -0.01207,-0.09547 -0.03022,-0.249391 -0.041,-0.33331 -0.0277,-0.215453 -0.05157,-0.390918 -0.06968,-0.522043 -0.01815,-0.131118 -0.02722,-0.200671 -0.04202,-0.268996 z m -29.188828,11.115418 20.82153,-3.108245 0.756262,5.707866 c -0.612565,0.211067 -1.301369,0.405325 -2.148536,0.565871 a 0.51179331,0.51179331 0 1 0 0.190971,1.005612 c 0.789224,-0.14959 1.480449,-0.332777 2.094086,-0.54042 l 1.019855,7.701156 -21.89737,2.360142 -0.604386,-9.895008 19.034995,-3.449878 -0.121015,-0.670419 -18.956588,3.434229 z m 32.862427,-5.352256 a 1.0496759,1.1157383 77.75386 0 0 -0.864214,1.263277 1.0496759,1.1157383 77.75386 0 0 1.313225,0.786564 1.0496759,1.1157383 77.75386 0 0 0.867106,-1.262541 l -5.79e-4,-0.0027 a 1.0496759,1.1157383 77.75386 0 0 -1.315552,-0.784702 z m -37.383247,26.376341 94.767868,-11.505793 2.35302,-0.591159 0.53535,2.680068 c 0.24911,0.478801 0.31334,1.13437 0.39907,1.807095 -1.38999,0.174278 -6.2172,0.77436 -14.86216,1.846121 -9.597151,1.189808 -22.256098,2.758398 -34.868263,4.320638 -25.158023,3.11628 -47.983826,6.06273 -48.104077,6.07826 -0.06712,-1.14367 -0.141903,-2.75148 -0.220781,-4.63524 z"
       id="path976"
       inkscape:connector-curvature="0" />
    <path
       id="path986"
       d="m 69.191274,29.867966 -45.988462,6.285996 -8.184582,50.105403 0.939299,18.187805 45.771297,4.07431 61.121214,-7.68629 0.036,-5.446616 -13.09293,-62.346964 z"
       style="fill:#1a1a1a;fill-opacity:0.32699621;stroke:none;stroke-width:0.69974816px;stroke-linecap:butt;stroke-linejoin:miter;stroke-opacity:1"
       inkscape:connector-curvature="0" />
    <path
       sodipodi:nodetypes="ccccc"
       inkscape:connector-curvature="0"
       id="path817"
       d="m 26.150389,27.357005 -12.383287,75.695025 107.961328,9.59269 0.52323,-77.78798 z"
       style="fill:url(#linearGradient825);fill-opacity:1;stroke:#335e8c;stroke-width:0.37795275;stroke-linecap:butt;stroke-linejoin:miter;stroke-miterlimit:4;stroke-dasharray:none;stroke-opacity:1" />
    <path
       inkscape:connector-curvature="0"
       id="path841"
       d="m 29.788351,30.074585 -0.203849,1.187121 c -0.402154,-0.03322 -1.012707,-0.08066 -1.404287,-0.113252 0.230202,0.0958 0.703791,0.205255 1.36831,0.32376 l -10.909216,63.580717 -0.632866,0.04264 0.615546,0.0573 -0.814061,4.744473 -1.526864,0.254476 c 0,0 1.418728,0.12946 1.460244,0.13323 l -0.162545,0.94996 0.672834,0.11592 c 0.02892,-0.23199 0.100469,-0.67096 0.150553,-1.00725 1.98213,0.18002 24.071337,2.18699 48.320069,4.3874 12.656567,1.1485 25.36012,2.30071 34.991311,3.17364 8.68675,0.78734 13.52006,1.22471 14.93821,1.35099 -0.0205,0.7634 0.0767,1.52565 0.63687,2.15574 l 0.028,-2.09578 c 0.0637,0.005 0.93621,0.0847 0.95929,0.0866 l 0.0573,-0.67949 c -0.0208,-0.002 -0.941,-0.0847 -1.00725,-0.0906 l 0.0626,-4.66453 1.68808,-0.0546 -1.68541,-0.15455 0.79807,-59.818185 c 0.24287,-1.629317 0.37571,-3.12253 0.20252,-4.59525 0.46331,0.03834 1.16132,0.09317 1.6108,0.130572 -0.24856,-0.115981 -0.8561,-0.248613 -1.64678,-0.390373 -0.0978,-0.683025 -0.25734,-1.362968 -0.51561,-2.051812 l -0.032,1.965205 C 106.6976,37.167992 57.020978,33.525275 29.933576,31.289681 c 0.02647,-0.741896 -0.01194,-1.192134 -0.145225,-1.215096 z m 0.13723,1.453586 c 10.226722,1.715788 60.342576,5.495892 87.877309,7.768888 l -1.06854,64.401441 -95.9513,-8.788133 -1.494891,0.09993 C 22.093614,78.874431 29.509348,39.535835 29.925581,31.528171 Z m 4.544621,3.413464 c 0,-0.01651 -0.0191,0.237972 -0.05594,0.559582 -0.0085,0.07386 -0.02456,0.205139 -0.03465,0.29045 l -1.021908,-0.07994 -0.05328,0.680829 0.992596,0.07861 c -0.01357,0.109876 -0.02115,0.176113 -0.03595,0.294448 -0.08897,0.711744 -0.21029,1.64193 -0.326427,2.535449 l -2.061131,-0.135899 -0.0453,0.680829 2.018503,0.133232 c -0.01896,0.145246 -0.03295,0.261056 -0.05198,0.40637 -0.208673,1.593537 -0.287374,2.177459 -0.417018,3.149652 l -1.015251,-0.05464 -0.03595,0.682159 0.960617,0.05198 c -0.03759,0.281111 -0.17054,1.288374 -0.17054,1.288374 l 0.675502,0.0906 c 0,0 0.137925,-1.03867 0.178534,-1.341672 l 21.170918,1.143156 0.01862,-0.339749 0.34108,0.0055 0.02128,-1.288374 c 0.499709,0.192915 0.806722,0.466563 1.0259,0.792744 0.392569,0.584202 0.515651,1.455224 0.704814,2.427526 0.189156,0.972309 0.474687,2.061404 1.374974,2.913837 0.606555,0.57431 1.469985,1.008668 2.682005,1.267056 -0.02115,0.326277 -0.04018,0.593049 -0.06126,0.920649 -0.150143,2.332992 -0.227302,3.598568 -0.28912,4.596581 l -0.230495,-0.0133 -0.03861,0.680822 0.226498,0.01201 c -0.0068,0.110817 -0.05464,0.860694 -0.05464,0.860694 l 0.680829,0.04134 c 0,0 0.04775,-0.751842 0.05464,-0.863361 l 21.292165,1.183123 0.01862,-0.341079 0.341079,0.02265 0.739448,-11.099742 -0.339743,-0.02265 0.01596,-0.339742 -21.289504,-1.035232 c 0.0087,-0.08869 0.0236,-0.277482 0.02667,-0.295777 L 61.72993,45.368808 c -0.01098,0.0659 -0.02469,0.254711 -0.03595,0.37439 l -0.843374,-0.04134 -0.03329,0.680829 0.818052,0.03997 c -0.02865,0.370993 -0.05982,0.779749 -0.09593,1.295039 -0.04816,0.686853 -0.106226,1.592358 -0.161215,2.427532 -0.982848,-0.22795 -1.620367,-0.578478 -2.046478,-0.981941 -0.664232,-0.628923 -0.894379,-1.442317 -1.073869,-2.364903 -0.17949,-0.922593 -0.27755,-1.938752 -0.859357,-2.804582 -0.382746,-0.56959 -0.98527,-1.014044 -1.857288,-1.276389 l 0.08394,-4.932326 -0.34108,-0.0068 0.02667,-0.33975 -20.250275,-1.593476 c 0.0092,-0.07763 0.02415,-0.198168 0.03199,-0.266472 0.03731,-0.325868 0.05996,-0.497028 0.05996,-0.636857 z m 0.507622,1.582821 19.959819,1.569499 -0.07594,4.468676 c -0.281875,-0.04727 -0.578825,-0.08434 -0.907326,-0.09859 a 0.51167068,0.51167068 0 0 0 -0.05198,-0.0014 0.51167068,0.51167068 0 0 0 0.0068,1.023239 c 0.358884,0.01555 0.664225,0.05191 0.935309,0.101253 L 54.825816,44.695642 34.05993,43.57248 c 0.130402,-0.975569 0.206395,-1.52996 0.41169,-3.097699 0.02108,-0.160867 0.03629,-0.289556 0.0573,-0.450328 l 15.92282,1.053882 0.0453,-0.680829 -15.880193,-1.051214 c 0.113921,-0.878356 0.233394,-1.795205 0.3211,-2.496813 0.0163,-0.130299 0.0251,-0.205023 0.03997,-0.32509 z m 27.339665,9.931279 20.968412,1.019241 -0.694152,10.41759 L 61.640664,56.7281 c 0.06194,-0.999432 0.139181,-2.261481 0.289113,-4.591253 0.0193,-0.300328 0.03649,-0.544022 0.05594,-0.843374 0.413068,0.05948 0.852604,0.105516 1.340334,0.127904 a 0.51167068,0.51167068 0 0 0 0.201182,-0.02667 1.1157383,1.0496759 0 0 0 -0.177197,0.567577 1.1157383,1.0496759 0 0 0 1.116497,1.047217 1.1157383,1.0496759 0 0 0 1.115173,-1.049884 v -0.0027 a 1.1157383,1.0496759 0 0 0 -1.119164,-1.047224 1.1157383,1.0496759 0 0 0 -0.622204,0.182533 0.51167068,0.51167068 0 0 0 -0.466325,-0.692822 c -0.492444,-0.02258 -0.925485,-0.06827 -1.320346,-0.127905 0.05696,-0.865176 0.116874,-1.797585 0.166542,-2.506137 0.03663,-0.522323 0.06842,-0.938345 0.09726,-1.309692 z m -9.592866,5.838329 -0.12124,1.112506 -21.722512,-1.045893 -0.01596,0.341079 -0.34108,-0.01999 -0.776754,13.210173 -1.075199,-0.08794 -0.05464,0.679499 1.089859,0.08793 -0.04666,0.786087 0.680822,0.03997 0.0453,-0.77009 22.525911,1.830636 0.05594,-0.680829 -1.240411,-0.101259 1.482892,-13.556581 0.699486,0.03329 0.03329,-0.68216 -0.658174,-0.03199 0.117242,-1.069871 z m 38.542004,0.405032 -0.68216,0.0055 0.0093,1.212429 -1.625463,-0.07594 -0.03199,0.680829 1.662763,0.07728 0.122577,16.210617 c -1.204598,0.283027 -2.10178,0.771153 -2.771272,1.397621 -1.023089,0.957336 -1.505021,2.170638 -1.946555,3.284229 -0.441535,1.113584 -0.847433,2.124326 -1.596144,2.82723 -0.748711,0.702897 -1.866968,1.175654 -3.951729,1.120501 a 0.51167068,0.51167068 0 1 0 -0.02667,1.021902 c 2.25618,0.05969 3.714992,-0.4911 4.679183,-1.396291 0.964191,-0.905198 1.407179,-2.08796 1.846626,-3.196292 0.439454,-1.108331 0.871274,-2.145869 1.693406,-2.915167 0.497963,-0.465949 1.152761,-0.851983 2.081118,-1.099184 l 0.08794,11.650006 c -0.08029,-0.0055 -0.979274,-0.06392 -0.979274,-0.06392 l -0.04529,0.680829 c 0,0 0.941298,0.06208 1.029897,0.06794 l 0.008,1.073869 0.68216,-0.0055 -0.008,-1.024569 c 1.324843,0.08797 4.707323,0.313732 9.55823,0.627532 2.85989,0.185008 5.76131,0.370174 8.03402,0.508952 1.63863,0.100073 2.33961,0.131766 3.08171,0.166549 l -0.012,1.570829 0.68216,0.0055 0.012,-1.538856 c 0.0812,0.0027 0.46239,0.02797 0.51029,0.02797 v -0.682159 c -0.0331,0 -0.43323,-0.02545 -0.50496,-0.02797 l 0.22916,-29.596657 -0.34108,-0.0027 0.016,-0.341079 -21.494677,-1.001922 z m -60.081984,0.3584 21.344125,1.028566 -1.480231,13.53527 -20.621998,-1.674756 z m 33.216631,0.936632 a 1.1157383,1.0496759 0 0 0 -1.112506,1.051221 1.1157383,1.0496759 0 0 0 1.116504,1.047224 1.1157383,1.0496759 0 0 0 1.115173,-1.049891 v -0.0027 A 1.1157383,1.0496759 0 0 0 64.401274,53.99406 Z m 26.880012,0.636864 21.129614,0.985932 -0.22649,29.236927 c -0.721,-0.03452 -1.41155,-0.06542 -3.04574,-0.165212 -2.27116,-0.138697 -5.1719,-0.323978 -8.03136,-0.508959 -4.875743,-0.315411 -8.311985,-0.544145 -9.607521,-0.630193 l -0.08927,-11.844524 c 0.423082,-0.07122 0.898602,-0.115578 1.426941,-0.133239 a 1.1157383,1.0496759 0 0 0 1.04322,0.676831 1.1157383,1.0496759 0 0 0 1.115174,-1.049884 v -0.0027 a 1.1157383,1.0496759 0 0 0 -1.119165,-1.045887 1.1157383,1.0496759 0 0 0 -0.872686,0.401035 0.51179331,0.51179331 0 0 0 -0.103927,-0.008 c -0.543647,0.01439 -1.037824,0.06303 -1.497551,0.13457 z m 2.96579,6.392577 a 1.1157383,1.0496759 0 0 0 -1.112499,1.051221 1.1157383,1.0496759 0 0 0 1.116497,1.047217 1.1157383,1.0496759 0 0 0 1.113843,-1.048554 v -0.0041 a 1.1157383,1.0496759 0 0 0 -1.117841,-1.045887 z m -35.235127,9.929948 c 0,-0.0083 -0.0034,0.09167 -0.0133,0.219839 -0.0098,0.128158 -0.02415,0.303063 -0.04263,0.518278 -0.0078,0.09037 -0.02278,0.255857 -0.03199,0.359736 -0.197499,-0.0096 -0.498515,-0.02538 -0.664833,-0.03329 -0.63625,-0.03036 -0.997589,-0.04796 -1.125835,-0.04796 v 0.68216 c 0.02592,0 0.458759,0.0163 1.093856,0.04666 0.158847,0.0076 0.448063,0.02156 0.635527,0.03063 -0.02163,0.237712 -0.03622,0.402126 -0.06126,0.675495 -0.05253,0.57313 -0.12914,1.372293 -0.193195,2.05714 l -0.459652,-0.03861 -0.0573,0.679492 0.454332,0.03861 c -0.03315,0.352806 -0.06153,0.660337 -0.09593,1.02457 -2.869769,0.403831 -4.036773,1.930197 -5.202795,3.204286 -0.911147,0.995591 -1.859655,1.887569 -3.889107,2.271645 l 0.45966,-5.593174 0.63419,0.04134 0.044,-0.680829 -0.622204,-0.04127 0.07728,-0.945964 -0.679499,-0.05594 -0.07861,0.957956 -20.95908,-1.376311 0.131903,-0.859357 -0.674165,-0.102597 -0.141227,0.917989 -1.472244,-0.09726 -0.04529,0.680829 1.413612,0.09327 -0.47698,3.100359 -1.518869,-0.05198 -0.02394,0.682159 1.437596,0.04932 -1.500219,9.750084 -1.121831,-0.11991 -0.07328,0.678161 1.091189,0.117243 -0.282461,1.834641 0.674164,0.10392 0.287789,-1.866613 21.94768,2.344922 -0.09593,1.168464 0.679499,0.05594 0.09459,-1.152474 1.009916,0.107925 0.07195,-0.679499 -1.025906,-0.109255 0.65018,-7.912776 c 2.462254,-0.429139 3.734556,-1.530424 4.73115,-2.619389 1.181418,-1.290919 1.962293,-2.466177 4.348766,-2.848548 -0.0055,0.06078 -0.01023,0.108423 -0.01596,0.16921 -0.239138,2.521854 -0.358114,3.750567 -0.47831,5.000283 l -1.072532,-0.06665 -0.04134,0.680829 1.048554,0.06528 c -0.02415,0.251103 -0.134569,1.410952 -0.134569,1.410952 l 0.679498,0.06658 c 0,0 0.112236,-1.176609 0.13723,-1.436259 l 24.167358,1.496221 0.04263,-0.680829 -24.14471,-1.494891 c 0.120763,-1.255992 0.237651,-2.466504 0.475649,-4.976298 0.01071,-0.112911 0.01862,-0.20151 0.02933,-0.314434 0.08415,-0.0072 0.152088,-0.02238 0.23982,-0.02797 a 0.51167068,0.51167068 0 0 0 -0.02933,-1.021909 0.51167068,0.51167068 0 0 0 -0.03595,0.0014 c -0.02681,0.002 -0.05075,0.0048 -0.07728,0.0068 0.02988,-0.316808 0.05505,-0.586268 0.08394,-0.894004 l 19.46286,1.632121 0.05594,-0.679492 -19.454865,-1.630791 c 0.06378,-0.682827 0.139434,-1.479924 0.191858,-2.051805 0.02606,-0.284324 0.04168,-0.457634 0.06392,-0.703477 0.414487,0.02047 0.726432,0.03493 1.223091,0.05996 2.063498,0.104043 4.757209,0.24364 7.431806,0.382384 5.349193,0.277475 10.621433,0.554255 10.621433,0.554255 l 0.03595,-0.68083 c 0,0 -5.271904,-0.278089 -10.621432,-0.555584 -2.674768,-0.138752 -5.369004,-0.276977 -7.433143,-0.381055 -0.486025,-0.02449 -0.78992,-0.03854 -1.197776,-0.0586 0.0085,-0.09586 0.0234,-0.250121 0.03063,-0.334422 0.01862,-0.216429 0.03254,-0.392958 0.04263,-0.524942 0.0101,-0.131984 0.01596,-0.201885 0.01596,-0.2718 z m -30.882364,4.671195 21.007043,1.378972 -0.471651,5.738399 c -0.6434,0.07633 -1.357729,0.120067 -2.219679,0.09726 a 0.51179331,0.51179331 0 1 0 -0.02667,1.023239 c 0.802997,0.02121 1.517347,-0.01119 2.16106,-0.08394 l -0.636857,7.742243 -21.899717,-2.338259 1.508214,-9.798045 19.333624,0.666169 0.02394,-0.680829 -19.253682,-0.664839 z m 33.249935,1.740039 a 1.1157383,1.0496759 0 0 0 -1.112507,1.051221 1.1157383,1.0496759 0 0 0 1.116504,1.047217 1.1157383,1.0496759 0 0 0 1.115174,-1.049884 v -0.0027 A 1.1157383,1.0496759 0 0 0 61.37952,77.364689 Z m -42.127338,17.846728 95.051978,8.857411 2.42487,-0.0786 -0.0453,2.73264 c 0.14188,0.52074 0.0656,1.17502 0.007,1.85062 -1.39534,-0.12452 -6.23999,-0.562 -14.91557,-1.34833 -9.631141,-0.87293 -22.334756,-2.02514 -34.991308,-3.17364 -25.246561,-2.29095 -48.177949,-4.253163 -48.298752,-4.263498 0.176959,-1.131886 0.444945,-2.718964 0.767429,-4.576593 z"
       style="color:#000000;font-style:normal;font-variant:normal;font-weight:normal;font-stretch:normal;font-size:medium;line-height:normal;font-family:sans-serif;font-variant-ligatures:normal;font-variant-position:normal;font-variant-caps:normal;font-variant-numeric:normal;font-variant-alternates:normal;font-feature-settings:normal;text-indent:0;text-align:start;text-decoration:none;text-decoration-line:none;text-decoration-style:solid;text-decoration-color:#000000;letter-spacing:normal;word-spacing:normal;text-transform:none;writing-mode:lr-tb;direction:ltr;text-orientation:mixed;dominant-baseline:auto;baseline-shift:baseline;text-anchor:start;white-space:normal;shape-padding:0;clip-rule:nonzero;display:inline;overflow:visible;visibility:visible;opacity:1;isolation:auto;mix-blend-mode:normal;color-interpolation:sRGB;color-interpolation-filters:linearRGB;solid-color:#000000;solid-opacity:1;vector-effect:none;fill:#ffffff;fill-opacity:1;fill-rule:nonzero;stroke:none;stroke-width:0.68215936px;stroke-linecap:butt;stroke-linejoin:miter;stroke-miterlimit:4;stroke-dasharray:none;stroke-dashoffset:0;stroke-opacity:1;color-rendering:auto;image-rendering:auto;shape-rendering:auto;text-rendering:auto;enable-background:accumulate" />
    <g
       transform="matrix(0.68215936,0,0,0.68215936,8.5347215,-121.33117)"
       style="opacity:1"
       id="g1054">
      <path
         style="fill:url(#linearGradient1056);fill-opacity:1;stroke:none;stroke-width:1px;stroke-linecap:butt;stroke-linejoin:miter;stroke-opacity:1"
         d="M 32.726661,264.75582 C 65.900325,254.5384 85.471101,240.21512 140.62237,236.63135 171.09229,225.89291 155.25268,190.09813 131.418,192.14354 72.367723,188.46368 38.964954,203.43655 -6.647603,209.52958 Z"
         id="path995"
         inkscape:connector-curvature="0"
         sodipodi:nodetypes="ccccc" />
    </g>
    <path
       id="path1058"
       d="M 87.293812,9.3552224 C 60.838881,9.1494695 41.992094,14.477311 21.494747,18.604348 l 1.708065,17.549614 80.959788,-8.530989 c 3.85372,-2.323456 7.47653,-4.774522 10.44157,-7.591691 C 111.97763,13.924387 105.66299,9.0996991 98.183047,9.7416043 94.40664,9.5062661 90.783958,9.3823655 87.293812,9.3552224 Z"
       style="opacity:0.731;fill:url(#linearGradient1107);fill-opacity:1;stroke:none;stroke-width:0.68215936px;stroke-linecap:butt;stroke-linejoin:miter;stroke-opacity:1"
       inkscape:connector-curvature="0" />
    <g
       transform="matrix(0.68215936,0,0,0.68215936,172.48246,-66.565649)"
       id="g1155">
      <path
         d="m -84.610175,136.13559 a 12.293786,8.1355934 0 0 1 -12.283862,8.13559 12.293786,8.1355934 0 0 1 -12.303693,-8.12246 12.293786,8.1355934 0 0 1 12.263997,-8.1487 12.293786,8.1355934 0 0 1 12.323494,8.1093"
         sodipodi:open="true"
         sodipodi:end="6.2799564"
         sodipodi:start="0"
         sodipodi:ry="8.1355934"
         sodipodi:rx="12.293786"
         sodipodi:cy="136.13559"
         sodipodi:cx="-96.903961"
         sodipodi:type="arc"
         id="path1113"
         style="opacity:0.731;fill:#ffc40f;fill-opacity:0;stroke:none;stroke-width:1.5;stroke-linecap:round;stroke-linejoin:round;stroke-miterlimit:4;stroke-dasharray:none;stroke-dashoffset:0;stroke-opacity:0.59315592;paint-order:fill markers stroke" />
      <path
         style="opacity:0.731;fill:#ffc40f;fill-opacity:0.0988593;stroke:none;stroke-width:1.5;stroke-linecap:round;stroke-linejoin:round;stroke-miterlimit:4;stroke-dasharray:none;stroke-dashoffset:0;stroke-opacity:0.59315592;paint-order:fill markers stroke"
         id="path1115"
         sodipodi:type="arc"
         sodipodi:cx="-97.850136"
         sodipodi:cy="136.226"
         sodipodi:rx="12.432352"
         sodipodi:ry="7.6836162"
         sodipodi:start="0"
         sodipodi:end="6.2799564"
         sodipodi:open="true"
         d="m -85.417784,136.226 a 12.432352,7.6836162 0 0 1 -12.422316,7.68361 12.432352,7.6836162 0 0 1 -12.44237,-7.67121 12.432352,7.6836162 0 0 1 12.402227,-7.696 12.432352,7.6836162 0 0 1 12.462394,7.65879" />
      <path
         d="m -84.87541,133.87572 a 12.432352,7.6836162 0 0 1 -12.422316,7.68361 12.432352,7.6836162 0 0 1 -12.442374,-7.67121 12.432352,7.6836162 0 0 1 12.402231,-7.696 12.432352,7.6836162 0 0 1 12.462394,7.65879"
         sodipodi:open="true"
         sodipodi:end="6.2799564"
         sodipodi:start="0"
         sodipodi:ry="7.6836162"
         sodipodi:rx="12.432352"
         sodipodi:cy="133.87572"
         sodipodi:cx="-97.307762"
         sodipodi:type="arc"
         id="path1117"
         style="opacity:0.731;fill:#ffc40f;fill-opacity:0.0988593;stroke:none;stroke-width:1.5;stroke-linecap:round;stroke-linejoin:round;stroke-miterlimit:4;stroke-dasharray:none;stroke-dashoffset:0;stroke-opacity:0.59315592;paint-order:fill markers stroke" />
      <path
         style="opacity:0.731;fill:#ffc40f;fill-opacity:0.0988593;stroke:none;stroke-width:1.5;stroke-linecap:round;stroke-linejoin:round;stroke-miterlimit:4;stroke-dasharray:none;stroke-dashoffset:0;stroke-opacity:0.59315592;paint-order:fill markers stroke"
         id="path1119"
         sodipodi:type="arc"
         sodipodi:cx="-96.223015"
         sodipodi:cy="138.03391"
         sodipodi:rx="12.432352"
         sodipodi:ry="7.6836162"
         sodipodi:start="0"
         sodipodi:end="6.2799564"
         sodipodi:open="true"
         d="m -83.790663,138.03391 a 12.432352,7.6836162 0 0 1 -12.422316,7.68361 12.432352,7.6836162 0 0 1 -12.442371,-7.67121 12.432352,7.6836162 0 0 1 12.402228,-7.696 12.432352,7.6836162 0 0 1 12.462394,7.65879" />
      <path
         d="m -88.310438,133.51413 a 12.432352,7.6836162 0 0 1 -12.422312,7.68361 12.432352,7.6836162 0 0 1 -12.44238,-7.67121 12.432352,7.6836162 0 0 1 12.40223,-7.69599 12.432352,7.6836162 0 0 1 12.462397,7.65878"
         sodipodi:open="true"
         sodipodi:end="6.2799564"
         sodipodi:start="0"
         sodipodi:ry="7.6836162"
         sodipodi:rx="12.432352"
         sodipodi:cy="133.51413"
         sodipodi:cx="-100.74279"
         sodipodi:type="arc"
         id="path1121"
         style="opacity:0.731;fill:#ffc40f;fill-opacity:0.0988593;stroke:none;stroke-width:1.5;stroke-linecap:round;stroke-linejoin:round;stroke-miterlimit:4;stroke-dasharray:none;stroke-dashoffset:0;stroke-opacity:0.59315592;paint-order:fill markers stroke" />
      <path
         style="opacity:0.731;fill:#ffc40f;fill-opacity:0.0988593;stroke:none;stroke-width:1.5;stroke-linecap:round;stroke-linejoin:round;stroke-miterlimit:4;stroke-dasharray:none;stroke-dashoffset:0;stroke-opacity:0.59315592;paint-order:fill markers stroke"
         id="path1123"
         sodipodi:type="arc"
         sodipodi:cx="-103.63544"
         sodipodi:cy="137.85312"
         sodipodi:rx="12.432352"
         sodipodi:ry="7.6836162"
         sodipodi:start="0"
         sodipodi:end="6.2799564"
         sodipodi:open="true"
         d="m -91.203085,137.85312 a 12.432352,7.6836162 0 0 1 -12.422315,7.68361 12.432352,7.6836162 0 0 1 -12.44237,-7.67121 12.432352,7.6836162 0 0 1 12.40223,-7.69599 12.432352,7.6836162 0 0 1 12.46239,7.65878" />
      <path
         d="m -89.03359,142.19211 a 12.432352,7.6836162 0 0 1 -12.42232,7.68361 12.432352,7.6836162 0 0 1 -12.44237,-7.67121 12.432352,7.6836162 0 0 1 12.40223,-7.696 12.432352,7.6836162 0 0 1 12.462395,7.65879"
         sodipodi:open="true"
         sodipodi:end="6.2799564"
         sodipodi:start="0"
         sodipodi:ry="7.6836162"
         sodipodi:rx="12.432352"
         sodipodi:cy="142.19211"
         sodipodi:cx="-101.46594"
         sodipodi:type="arc"
         id="path1125"
         style="opacity:0.731;fill:#ffc40f;fill-opacity:0.0988593;stroke:none;stroke-width:1.5;stroke-linecap:round;stroke-linejoin:round;stroke-miterlimit:4;stroke-dasharray:none;stroke-dashoffset:0;stroke-opacity:0.59315592;paint-order:fill markers stroke" />
      <path
         style="opacity:0.731;fill:#ffc40f;fill-opacity:0.0988593;stroke:none;stroke-width:1.5;stroke-linecap:round;stroke-linejoin:round;stroke-miterlimit:4;stroke-dasharray:none;stroke-dashoffset:0;stroke-opacity:0.59315592;paint-order:fill markers stroke"
         id="path1127"
         sodipodi:type="arc"
         sodipodi:cx="-100.74279"
         sodipodi:cy="133.51413"
         sodipodi:rx="12.432352"
         sodipodi:ry="7.6836162"
         sodipodi:start="0"
         sodipodi:end="6.2799564"
         sodipodi:open="true"
         d="m -88.310438,133.51413 a 12.432352,7.6836162 0 0 1 -12.422312,7.68361 12.432352,7.6836162 0 0 1 -12.44238,-7.67121 12.432352,7.6836162 0 0 1 12.40223,-7.69599 12.432352,7.6836162 0 0 1 12.462397,7.65878" />
      <path
         d="m -85.23699,141.83052 a 12.432352,7.6836162 0 0 1 -12.422316,7.68361 12.432352,7.6836162 0 0 1 -12.442374,-7.6712 12.432352,7.6836162 0 0 1 12.402231,-7.696 12.432352,7.6836162 0 0 1 12.462394,7.65878"
         sodipodi:open="true"
         sodipodi:end="6.2799564"
         sodipodi:start="0"
         sodipodi:ry="7.6836162"
         sodipodi:rx="12.432352"
         sodipodi:cy="141.83052"
         sodipodi:cx="-97.669342"
         sodipodi:type="arc"
         id="path1129"
         style="opacity:0.731;fill:#ffc40f;fill-opacity:0.0988593;stroke:none;stroke-width:1.5;stroke-linecap:round;stroke-linejoin:round;stroke-miterlimit:4;stroke-dasharray:none;stroke-dashoffset:0;stroke-opacity:0.59315592;paint-order:fill markers stroke" />
      <path
         style="opacity:0.731;fill:#ff720f;fill-opacity:0.0988593;stroke:none;stroke-width:1.5;stroke-linecap:round;stroke-linejoin:round;stroke-miterlimit:4;stroke-dasharray:none;stroke-dashoffset:0;stroke-opacity:0.59315592;paint-order:fill markers stroke"
         id="path1131"
         sodipodi:type="arc"
         sodipodi:cx="-97.669342"
         sodipodi:cy="141.83052"
         sodipodi:rx="12.432352"
         sodipodi:ry="7.6836162"
         sodipodi:start="0"
         sodipodi:end="6.2799564"
         sodipodi:open="true"
         d="m -85.23699,141.83052 a 12.432352,7.6836162 0 0 1 -12.422316,7.68361 12.432352,7.6836162 0 0 1 -12.442374,-7.6712 12.432352,7.6836162 0 0 1 12.402231,-7.696 12.432352,7.6836162 0 0 1 12.462394,7.65878" />
      <path
         d="m -89.03359,142.19211 a 12.432352,7.6836162 0 0 1 -12.42232,7.68361 12.432352,7.6836162 0 0 1 -12.44237,-7.67121 12.432352,7.6836162 0 0 1 12.40223,-7.696 12.432352,7.6836162 0 0 1 12.462395,7.65879"
         sodipodi:open="true"
         sodipodi:end="6.2799564"
         sodipodi:start="0"
         sodipodi:ry="7.6836162"
         sodipodi:rx="12.432352"
         sodipodi:cy="142.19211"
         sodipodi:cx="-101.46594"
         sodipodi:type="arc"
         id="path1133"
         style="opacity:0.731;fill:#ff720f;fill-opacity:0.0988593;stroke:none;stroke-width:1.5;stroke-linecap:round;stroke-linejoin:round;stroke-miterlimit:4;stroke-dasharray:none;stroke-dashoffset:0;stroke-opacity:0.59315592;paint-order:fill markers stroke" />
      <path
         style="opacity:0.731;fill:#ff720f;fill-opacity:0.0988593;stroke:none;stroke-width:1.5;stroke-linecap:round;stroke-linejoin:round;stroke-miterlimit:4;stroke-dasharray:none;stroke-dashoffset:0;stroke-opacity:0.59315592;paint-order:fill markers stroke"
         id="path1135"
         sodipodi:type="arc"
         sodipodi:cx="-101.46594"
         sodipodi:cy="144.72318"
         sodipodi:rx="12.432352"
         sodipodi:ry="7.6836162"
         sodipodi:start="0"
         sodipodi:end="6.2799564"
         sodipodi:open="true"
         d="m -89.03359,144.72318 a 12.432352,7.6836162 0 0 1 -12.42232,7.68361 12.432352,7.6836162 0 0 1 -12.44237,-7.67121 12.432352,7.6836162 0 0 1 12.40223,-7.696 12.432352,7.6836162 0 0 1 12.462395,7.65879" />
      <path
         d="m -89.847151,147.07346 a 12.432352,7.6836162 0 0 1 -12.422319,7.68361 12.432352,7.6836162 0 0 1 -12.44237,-7.67121 12.432352,7.6836162 0 0 1 12.40223,-7.696 12.432352,7.6836162 0 0 1 12.462394,7.65879"
         sodipodi:open="true"
         sodipodi:end="6.2799564"
         sodipodi:start="0"
         sodipodi:ry="7.6836162"
         sodipodi:rx="12.432352"
         sodipodi:cy="147.07346"
         sodipodi:cx="-102.2795"
         sodipodi:type="arc"
         id="path1137"
         style="opacity:0.731;fill:#ff720f;fill-opacity:0.0988593;stroke:none;stroke-width:1.5;stroke-linecap:round;stroke-linejoin:round;stroke-miterlimit:4;stroke-dasharray:none;stroke-dashoffset:0;stroke-opacity:0.59315592;paint-order:fill markers stroke" />
      <path
         style="opacity:0.731;fill:#ff720f;fill-opacity:0.0988593;stroke:none;stroke-width:1.5;stroke-linecap:round;stroke-linejoin:round;stroke-miterlimit:4;stroke-dasharray:none;stroke-dashoffset:0;stroke-opacity:0.59315592;paint-order:fill markers stroke"
         id="path1139"
         sodipodi:type="arc"
         sodipodi:cx="-97.488541"
         sodipodi:cy="132.06781"
         sodipodi:rx="12.432352"
         sodipodi:ry="7.6836162"
         sodipodi:start="0"
         sodipodi:end="6.2799564"
         sodipodi:open="true"
         d="m -85.056189,132.06781 a 12.432352,7.6836162 0 0 1 -12.422316,7.68361 12.432352,7.6836162 0 0 1 -12.442375,-7.67121 12.432352,7.6836162 0 0 1 12.402232,-7.69599 12.432352,7.6836162 0 0 1 12.462395,7.65878" />
    </g>
    <rect
       transform="rotate(20.202235)"
       ry="2.0198848"
       rx="4.1523447"
       y="-19.321562"
       x="99.966789"
       height="106.74043"
       width="8.7980022"
       id="rect845"
       style="opacity:1;fill:url(#linearGradient853);fill-opacity:1;stroke:none;stroke-width:0.13643187;stroke-linecap:round;stroke-linejoin:round;stroke-miterlimit:4;stroke-dasharray:none;stroke-dashoffset:0;stroke-opacity:0.59315592;paint-order:fill markers stroke" />
    <path
       sodipodi:nodetypes="sssccss"
       inkscape:connector-curvature="0"
       id="rect865"
       d="m 104.44492,17.665997 0.4613,0.174797 c 2.15115,0.815112 3.5556,2.310699 3.16722,3.360153 L 99.536574,44.268336 C 97.228979,42.731697 94.987349,41.11955 91.309398,41.150902 l 8.53687,-23.067389 c 0.388392,-1.049455 2.447502,-1.232628 4.598652,-0.417516 z"
       style="opacity:1;fill:url(#linearGradient882);fill-opacity:1;stroke:none;stroke-width:0.13643187;stroke-linecap:round;stroke-linejoin:round;stroke-miterlimit:4;stroke-dasharray:none;stroke-dashoffset:0;stroke-opacity:0.59315592;paint-order:fill markers stroke" />
    <g
       id="g1169"
       transform="matrix(0.4563569,0,0,0.4563569,25.604689,-7.0397063)">
      <path
         inkscape:transform-center-y="-1.0084766"
         inkscape:transform-center-x="1.0084766"
         d="M 62.456849,71.279954 C 62.849809,70.886994 50.324,63.599289 50.87973,63.599289 c 0.55573,0 -11.970079,7.287705 -11.577119,7.680665 0.392961,0.39296 7.680665,-12.132849 7.680665,-11.577119 0,0.55573 -7.287704,-11.970079 -7.680665,-11.577119 -0.39296,0.392961 12.132849,7.680665 11.577119,7.680665 -0.55573,0 11.970079,-7.287705 11.577119,-7.680665 -0.39296,-0.39296 -7.680664,12.132849 -7.680664,11.577119 0,-0.55573 7.287704,11.970079 7.680664,11.577119 z"
         inkscape:randomized="0"
         inkscape:rounded="-0.04"
         inkscape:flatsided="false"
         sodipodi:arg2="1.5707963"
         sodipodi:arg1="0.78539816"
         sodipodi:r2="3.8964543"
         sodipodi:r1="16.372519"
         sodipodi:cy="59.702835"
         sodipodi:cx="50.87973"
         sodipodi:sides="4"
         id="path1165"
         style="opacity:0.731;fill:#ffffff;fill-opacity:1;stroke:none;stroke-width:1.5;stroke-linecap:round;stroke-linejoin:round;stroke-miterlimit:4;stroke-dasharray:none;stroke-dashoffset:0;stroke-opacity:0.59315592;paint-order:fill markers stroke"
         sodipodi:type="star" />
      <path
         sodipodi:type="star"
         style="opacity:0.731;fill:#ffffff;fill-opacity:1;stroke:none;stroke-width:1.5;stroke-linecap:round;stroke-linejoin:round;stroke-miterlimit:4;stroke-dasharray:none;stroke-dashoffset:0;stroke-opacity:0.59315592;paint-order:fill markers stroke"
         id="path1167"
         sodipodi:sides="4"
         sodipodi:cx="50.87973"
         sodipodi:cy="59.702835"
         sodipodi:r1="7.2382998"
         sodipodi:r2="3.8964543"
         sodipodi:arg1="-0.024668013"
         sodipodi:arg2="0.76073013"
         inkscape:flatsided="false"
         inkscape:rounded="-0.04"
         inkscape:randomized="0"
         d="m 58.115828,59.524299 c -0.0052,-0.210419 -4.558885,3.017408 -4.413768,2.864948 0.145117,-0.152459 -2.854212,4.554877 -2.643793,4.549686 0.210418,-0.0052 -3.017408,-4.558885 -2.864949,-4.413768 0.152459,0.145117 -4.554877,-2.854212 -4.549685,-2.643794 0.0052,0.210419 4.558885,-3.017408 4.413767,-2.864948 -0.145117,0.152459 2.854212,-4.554877 2.643794,-4.549686 -0.210419,0.0052 3.017408,4.558886 2.864949,4.413768 -0.15246,-0.145117 4.554877,2.854212 4.549685,2.643794 z"
         inkscape:transform-center-x="1.0084766"
         inkscape:transform-center-y="-1.0084766" />
    </g>
    <g
       transform="matrix(0.4563569,0,0,0.4563569,42.34829,8.3085921)"
       id="g1175">
      <path
         sodipodi:type="star"
         style="opacity:0.731;fill:#ffffff;fill-opacity:1;stroke:none;stroke-width:1.5;stroke-linecap:round;stroke-linejoin:round;stroke-miterlimit:4;stroke-dasharray:none;stroke-dashoffset:0;stroke-opacity:0.59315592;paint-order:fill markers stroke"
         id="path1171"
         sodipodi:sides="4"
         sodipodi:cx="50.87973"
         sodipodi:cy="59.702835"
         sodipodi:r1="16.372519"
         sodipodi:r2="3.8964543"
         sodipodi:arg1="0.78539816"
         sodipodi:arg2="1.5707963"
         inkscape:flatsided="false"
         inkscape:rounded="-0.04"
         inkscape:randomized="0"
         d="M 62.456849,71.279954 C 62.849809,70.886994 50.324,63.599289 50.87973,63.599289 c 0.55573,0 -11.970079,7.287705 -11.577119,7.680665 0.392961,0.39296 7.680665,-12.132849 7.680665,-11.577119 0,0.55573 -7.287704,-11.970079 -7.680665,-11.577119 -0.39296,0.392961 12.132849,7.680665 11.577119,7.680665 -0.55573,0 11.970079,-7.287705 11.577119,-7.680665 -0.39296,-0.39296 -7.680664,12.132849 -7.680664,11.577119 0,-0.55573 7.287704,11.970079 7.680664,11.577119 z"
         inkscape:transform-center-x="1.0084766"
         inkscape:transform-center-y="-1.0084766" />
      <path
         inkscape:transform-center-y="-1.0084766"
         inkscape:transform-center-x="1.0084766"
         d="m 58.115828,59.524299 c -0.0052,-0.210419 -4.558885,3.017408 -4.413768,2.864948 0.145117,-0.152459 -2.854212,4.554877 -2.643793,4.549686 0.210418,-0.0052 -3.017408,-4.558885 -2.864949,-4.413768 0.152459,0.145117 -4.554877,-2.854212 -4.549685,-2.643794 0.0052,0.210419 4.558885,-3.017408 4.413767,-2.864948 -0.145117,0.152459 2.854212,-4.554877 2.643794,-4.549686 -0.210419,0.0052 3.017408,4.558886 2.864949,4.413768 -0.15246,-0.145117 4.554877,2.854212 4.549685,2.643794 z"
         inkscape:randomized="0"
         inkscape:rounded="-0.04"
         inkscape:flatsided="false"
         sodipodi:arg2="0.76073013"
         sodipodi:arg1="-0.024668013"
         sodipodi:r2="3.8964543"
         sodipodi:r1="7.2382998"
         sodipodi:cy="59.702835"
         sodipodi:cx="50.87973"
         sodipodi:sides="4"
         id="path1173"
         style="opacity:0.731;fill:#ffffff;fill-opacity:1;stroke:none;stroke-width:1.5;stroke-linecap:round;stroke-linejoin:round;stroke-miterlimit:4;stroke-dasharray:none;stroke-dashoffset:0;stroke-opacity:0.59315592;paint-order:fill markers stroke"
         sodipodi:type="star" />
    </g>
    <g
       id="g1181"
       transform="matrix(0.35098242,0,0,0.36603592,51.372378,-2.3449382)">
      <path
         inkscape:transform-center-y="-1.0084766"
         inkscape:transform-center-x="1.0084766"
         d="M 62.456849,71.279954 C 62.849809,70.886994 50.324,63.599289 50.87973,63.599289 c 0.55573,0 -11.970079,7.287705 -11.577119,7.680665 0.392961,0.39296 7.680665,-12.132849 7.680665,-11.577119 0,0.55573 -7.287704,-11.970079 -7.680665,-11.577119 -0.39296,0.392961 12.132849,7.680665 11.577119,7.680665 -0.55573,0 11.970079,-7.287705 11.577119,-7.680665 -0.39296,-0.39296 -7.680664,12.132849 -7.680664,11.577119 0,-0.55573 7.287704,11.970079 7.680664,11.577119 z"
         inkscape:randomized="0"
         inkscape:rounded="-0.04"
         inkscape:flatsided="false"
         sodipodi:arg2="1.5707963"
         sodipodi:arg1="0.78539816"
         sodipodi:r2="3.8964543"
         sodipodi:r1="16.372519"
         sodipodi:cy="59.702835"
         sodipodi:cx="50.87973"
         sodipodi:sides="4"
         id="path1177"
         style="opacity:0.731;fill:#ffffff;fill-opacity:1;stroke:none;stroke-width:1.5;stroke-linecap:round;stroke-linejoin:round;stroke-miterlimit:4;stroke-dasharray:none;stroke-dashoffset:0;stroke-opacity:0.59315592;paint-order:fill markers stroke"
         sodipodi:type="star" />
      <path
         sodipodi:type="star"
         style="opacity:0.731;fill:#ffffff;fill-opacity:1;stroke:none;stroke-width:1.5;stroke-linecap:round;stroke-linejoin:round;stroke-miterlimit:4;stroke-dasharray:none;stroke-dashoffset:0;stroke-opacity:0.59315592;paint-order:fill markers stroke"
         id="path1179"
         sodipodi:sides="4"
         sodipodi:cx="50.87973"
         sodipodi:cy="59.702835"
         sodipodi:r1="7.2382998"
         sodipodi:r2="3.8964543"
         sodipodi:arg1="-0.024668013"
         sodipodi:arg2="0.76073013"
         inkscape:flatsided="false"
         inkscape:rounded="-0.04"
         inkscape:randomized="0"
         d="m 58.115828,59.524299 c -0.0052,-0.210419 -4.558885,3.017408 -4.413768,2.864948 0.145117,-0.152459 -2.854212,4.554877 -2.643793,4.549686 0.210418,-0.0052 -3.017408,-4.558885 -2.864949,-4.413768 0.152459,0.145117 -4.554877,-2.854212 -4.549685,-2.643794 0.0052,0.210419 4.558885,-3.017408 4.413767,-2.864948 -0.145117,0.152459 2.854212,-4.554877 2.643794,-4.549686 -0.210419,0.0052 3.017408,4.558886 2.864949,4.413768 -0.15246,-0.145117 4.554877,2.854212 4.549685,2.643794 z"
         inkscape:transform-center-x="1.0084766"
         inkscape:transform-center-y="-1.0084766" />
    </g>
    <g
       transform="matrix(0.35098242,0,0,0.36603592,65.674204,10.910409)"
       id="g1187">
      <path
         sodipodi:type="star"
         style="opacity:0.731;fill:#ffffff;fill-opacity:1;stroke:none;stroke-width:1.5;stroke-linecap:round;stroke-linejoin:round;stroke-miterlimit:4;stroke-dasharray:none;stroke-dashoffset:0;stroke-opacity:0.59315592;paint-order:fill markers stroke"
         id="path1183"
         sodipodi:sides="4"
         sodipodi:cx="50.87973"
         sodipodi:cy="59.702835"
         sodipodi:r1="16.372519"
         sodipodi:r2="3.8964543"
         sodipodi:arg1="0.78539816"
         sodipodi:arg2="1.5707963"
         inkscape:flatsided="false"
         inkscape:rounded="-0.04"
         inkscape:randomized="0"
         d="M 62.456849,71.279954 C 62.849809,70.886994 50.324,63.599289 50.87973,63.599289 c 0.55573,0 -11.970079,7.287705 -11.577119,7.680665 0.392961,0.39296 7.680665,-12.132849 7.680665,-11.577119 0,0.55573 -7.287704,-11.970079 -7.680665,-11.577119 -0.39296,0.392961 12.132849,7.680665 11.577119,7.680665 -0.55573,0 11.970079,-7.287705 11.577119,-7.680665 -0.39296,-0.39296 -7.680664,12.132849 -7.680664,11.577119 0,-0.55573 7.287704,11.970079 7.680664,11.577119 z"
         inkscape:transform-center-x="1.0084766"
         inkscape:transform-center-y="-1.0084766" />
      <path
         inkscape:transform-center-y="-1.0084766"
         inkscape:transform-center-x="1.0084766"
         d="m 58.115828,59.524299 c -0.0052,-0.210419 -4.558885,3.017408 -4.413768,2.864948 0.145117,-0.152459 -2.854212,4.554877 -2.643793,4.549686 0.210418,-0.0052 -3.017408,-4.558885 -2.864949,-4.413768 0.152459,0.145117 -4.554877,-2.854212 -4.549685,-2.643794 0.0052,0.210419 4.558885,-3.017408 4.413767,-2.864948 -0.145117,0.152459 2.854212,-4.554877 2.643794,-4.549686 -0.210419,0.0052 3.017408,4.558886 2.864949,4.413768 -0.15246,-0.145117 4.554877,2.854212 4.549685,2.643794 z"
         inkscape:randomized="0"
         inkscape:rounded="-0.04"
         inkscape:flatsided="false"
         sodipodi:arg2="0.76073013"
         sodipodi:arg1="-0.024668013"
         sodipodi:r2="3.8964543"
         sodipodi:r1="7.2382998"
         sodipodi:cy="59.702835"
         sodipodi:cx="50.87973"
         sodipodi:sides="4"
         id="path1185"
         style="opacity:0.731;fill:#ffffff;fill-opacity:1;stroke:none;stroke-width:1.5;stroke-linecap:round;stroke-linejoin:round;stroke-miterlimit:4;stroke-dasharray:none;stroke-dashoffset:0;stroke-opacity:0.59315592;paint-order:fill markers stroke"
         sodipodi:type="star" />
    </g>
    <g
       transform="matrix(0.23814609,0,0,0.23814609,78.453812,5.9264371)"
       id="g1216">
      <path
         sodipodi:type="star"
         style="opacity:0.731;fill:#ffffff;fill-opacity:1;stroke:none;stroke-width:1.5;stroke-linecap:round;stroke-linejoin:round;stroke-miterlimit:4;stroke-dasharray:none;stroke-dashoffset:0;stroke-opacity:0.59315592;paint-order:fill markers stroke"
         id="path1212"
         sodipodi:sides="4"
         sodipodi:cx="50.87973"
         sodipodi:cy="59.702835"
         sodipodi:r1="16.372519"
         sodipodi:r2="3.8964543"
         sodipodi:arg1="0.78539816"
         sodipodi:arg2="1.5707963"
         inkscape:flatsided="false"
         inkscape:rounded="-0.04"
         inkscape:randomized="0"
         d="M 62.456849,71.279954 C 62.849809,70.886994 50.324,63.599289 50.87973,63.599289 c 0.55573,0 -11.970079,7.287705 -11.577119,7.680665 0.392961,0.39296 7.680665,-12.132849 7.680665,-11.577119 0,0.55573 -7.287704,-11.970079 -7.680665,-11.577119 -0.39296,0.392961 12.132849,7.680665 11.577119,7.680665 -0.55573,0 11.970079,-7.287705 11.577119,-7.680665 -0.39296,-0.39296 -7.680664,12.132849 -7.680664,11.577119 0,-0.55573 7.287704,11.970079 7.680664,11.577119 z"
         inkscape:transform-center-x="1.0084766"
         inkscape:transform-center-y="-1.0084766" />
      <path
         inkscape:transform-center-y="-1.0084766"
         inkscape:transform-center-x="1.0084766"
         d="m 58.115828,59.524299 c -0.0052,-0.210419 -4.558885,3.017408 -4.413768,2.864948 0.145117,-0.152459 -2.854212,4.554877 -2.643793,4.549686 0.210418,-0.0052 -3.017408,-4.558885 -2.864949,-4.413768 0.152459,0.145117 -4.554877,-2.854212 -4.549685,-2.643794 0.0052,0.210419 4.558885,-3.017408 4.413767,-2.864948 -0.145117,0.152459 2.854212,-4.554877 2.643794,-4.549686 -0.210419,0.0052 3.017408,4.558886 2.864949,4.413768 -0.15246,-0.145117 4.554877,2.854212 4.549685,2.643794 z"
         inkscape:randomized="0"
         inkscape:rounded="-0.04"
         inkscape:flatsided="false"
         sodipodi:arg2="0.76073013"
         sodipodi:arg1="-0.024668013"
         sodipodi:r2="3.8964543"
         sodipodi:r1="7.2382998"
         sodipodi:cy="59.702835"
         sodipodi:cx="50.87973"
         sodipodi:sides="4"
         id="path1214"
         style="opacity:0.731;fill:#ffffff;fill-opacity:1;stroke:none;stroke-width:1.5;stroke-linecap:round;stroke-linejoin:round;stroke-miterlimit:4;stroke-dasharray:none;stroke-dashoffset:0;stroke-opacity:0.59315592;paint-order:fill markers stroke"
         sodipodi:type="star" />
    </g>
    <g
       id="g1222"
       transform="matrix(0.23814609,0,0,0.23814609,91.351501,15.590138)">
      <path
         inkscape:transform-center-y="-1.0084766"
         inkscape:transform-center-x="1.0084766"
         d="M 62.456849,71.279954 C 62.849809,70.886994 50.324,63.599289 50.87973,63.599289 c 0.55573,0 -11.970079,7.287705 -11.577119,7.680665 0.392961,0.39296 7.680665,-12.132849 7.680665,-11.577119 0,0.55573 -7.287704,-11.970079 -7.680665,-11.577119 -0.39296,0.392961 12.132849,7.680665 11.577119,7.680665 -0.55573,0 11.970079,-7.287705 11.577119,-7.680665 -0.39296,-0.39296 -7.680664,12.132849 -7.680664,11.577119 0,-0.55573 7.287704,11.970079 7.680664,11.577119 z"
         inkscape:randomized="0"
         inkscape:rounded="-0.04"
         inkscape:flatsided="false"
         sodipodi:arg2="1.5707963"
         sodipodi:arg1="0.78539816"
         sodipodi:r2="3.8964543"
         sodipodi:r1="16.372519"
         sodipodi:cy="59.702835"
         sodipodi:cx="50.87973"
         sodipodi:sides="4"
         id="path1218"
         style="opacity:0.731;fill:#ffffff;fill-opacity:1;stroke:none;stroke-width:1.5;stroke-linecap:round;stroke-linejoin:round;stroke-miterlimit:4;stroke-dasharray:none;stroke-dashoffset:0;stroke-opacity:0.59315592;paint-order:fill markers stroke"
         sodipodi:type="star" />
      <path
         sodipodi:type="star"
         style="opacity:0.731;fill:#ffffff;fill-opacity:1;stroke:none;stroke-width:1.5;stroke-linecap:round;stroke-linejoin:round;stroke-miterlimit:4;stroke-dasharray:none;stroke-dashoffset:0;stroke-opacity:0.59315592;paint-order:fill markers stroke"
         id="path1220"
         sodipodi:sides="4"
         sodipodi:cx="50.87973"
         sodipodi:cy="59.702835"
         sodipodi:r1="7.2382998"
         sodipodi:r2="3.8964543"
         sodipodi:arg1="-0.024668013"
         sodipodi:arg2="0.76073013"
         inkscape:flatsided="false"
         inkscape:rounded="-0.04"
         inkscape:randomized="0"
         d="m 58.115828,59.524299 c -0.0052,-0.210419 -4.558885,3.017408 -4.413768,2.864948 0.145117,-0.152459 -2.854212,4.554877 -2.643793,4.549686 0.210418,-0.0052 -3.017408,-4.558885 -2.864949,-4.413768 0.152459,0.145117 -4.554877,-2.854212 -4.549685,-2.643794 0.0052,0.210419 4.558885,-3.017408 4.413767,-2.864948 -0.145117,0.152459 2.854212,-4.554877 2.643794,-4.549686 -0.210419,0.0052 3.017408,4.558886 2.864949,4.413768 -0.15246,-0.145117 4.554877,2.854212 4.549685,2.643794 z"
         inkscape:transform-center-x="1.0084766"
         inkscape:transform-center-y="-1.0084766" />
    </g>
    <g
       transform="matrix(0.15299065,0,0,0.15299065,98.251939,11.322543)"
       id="g1228">
      <path
         sodipodi:type="star"
         style="opacity:0.731;fill:#ffffff;fill-opacity:1;stroke:none;stroke-width:1.5;stroke-linecap:round;stroke-linejoin:round;stroke-miterlimit:4;stroke-dasharray:none;stroke-dashoffset:0;stroke-opacity:0.59315592;paint-order:fill markers stroke"
         id="path1224"
         sodipodi:sides="4"
         sodipodi:cx="50.87973"
         sodipodi:cy="59.702835"
         sodipodi:r1="16.372519"
         sodipodi:r2="3.8964543"
         sodipodi:arg1="0.78539816"
         sodipodi:arg2="1.5707963"
         inkscape:flatsided="false"
         inkscape:rounded="-0.04"
         inkscape:randomized="0"
         d="M 62.456849,71.279954 C 62.849809,70.886994 50.324,63.599289 50.87973,63.599289 c 0.55573,0 -11.970079,7.287705 -11.577119,7.680665 0.392961,0.39296 7.680665,-12.132849 7.680665,-11.577119 0,0.55573 -7.287704,-11.970079 -7.680665,-11.577119 -0.39296,0.392961 12.132849,7.680665 11.577119,7.680665 -0.55573,0 11.970079,-7.287705 11.577119,-7.680665 -0.39296,-0.39296 -7.680664,12.132849 -7.680664,11.577119 0,-0.55573 7.287704,11.970079 7.680664,11.577119 z"
         inkscape:transform-center-x="1.0084766"
         inkscape:transform-center-y="-1.0084766" />
      <path
         inkscape:transform-center-y="-1.0084766"
         inkscape:transform-center-x="1.0084766"
         d="m 58.115828,59.524299 c -0.0052,-0.210419 -4.558885,3.017408 -4.413768,2.864948 0.145117,-0.152459 -2.854212,4.554877 -2.643793,4.549686 0.210418,-0.0052 -3.017408,-4.558885 -2.864949,-4.413768 0.152459,0.145117 -4.554877,-2.854212 -4.549685,-2.643794 0.0052,0.210419 4.558885,-3.017408 4.413767,-2.864948 -0.145117,0.152459 2.854212,-4.554877 2.643794,-4.549686 -0.210419,0.0052 3.017408,4.558886 2.864949,4.413768 -0.15246,-0.145117 4.554877,2.854212 4.549685,2.643794 z"
         inkscape:randomized="0"
         inkscape:rounded="-0.04"
         inkscape:flatsided="false"
         sodipodi:arg2="0.76073013"
         sodipodi:arg1="-0.024668013"
         sodipodi:r2="3.8964543"
         sodipodi:r1="7.2382998"
         sodipodi:cy="59.702835"
         sodipodi:cx="50.87973"
         sodipodi:sides="4"
         id="path1226"
         style="opacity:0.731;fill:#ffffff;fill-opacity:1;stroke:none;stroke-width:1.5;stroke-linecap:round;stroke-linejoin:round;stroke-miterlimit:4;stroke-dasharray:none;stroke-dashoffset:0;stroke-opacity:0.59315592;paint-order:fill markers stroke"
         sodipodi:type="star" />
    </g>
    <g
       id="g1234"
       transform="matrix(0.15299065,0,0,0.15299065,100.71206,16.550053)">
      <path
         inkscape:transform-center-y="-1.0084766"
         inkscape:transform-center-x="1.0084766"
         d="M 62.456849,71.279954 C 62.849809,70.886994 50.324,63.599289 50.87973,63.599289 c 0.55573,0 -11.970079,7.287705 -11.577119,7.680665 0.392961,0.39296 7.680665,-12.132849 7.680665,-11.577119 0,0.55573 -7.287704,-11.970079 -7.680665,-11.577119 -0.39296,0.392961 12.132849,7.680665 11.577119,7.680665 -0.55573,0 11.970079,-7.287705 11.577119,-7.680665 -0.39296,-0.39296 -7.680664,12.132849 -7.680664,11.577119 0,-0.55573 7.287704,11.970079 7.680664,11.577119 z"
         inkscape:randomized="0"
         inkscape:rounded="-0.04"
         inkscape:flatsided="false"
         sodipodi:arg2="1.5707963"
         sodipodi:arg1="0.78539816"
         sodipodi:r2="3.8964543"
         sodipodi:r1="16.372519"
         sodipodi:cy="59.702835"
         sodipodi:cx="50.87973"
         sodipodi:sides="4"
         id="path1230"
         style="opacity:0.731;fill:#ffffff;fill-opacity:1;stroke:none;stroke-width:1.5;stroke-linecap:round;stroke-linejoin:round;stroke-miterlimit:4;stroke-dasharray:none;stroke-dashoffset:0;stroke-opacity:0.59315592;paint-order:fill markers stroke"
         sodipodi:type="star" />
      <path
         sodipodi:type="star"
         style="opacity:0.731;fill:#ffffff;fill-opacity:1;stroke:none;stroke-width:1.5;stroke-linecap:round;stroke-linejoin:round;stroke-miterlimit:4;stroke-dasharray:none;stroke-dashoffset:0;stroke-opacity:0.59315592;paint-order:fill markers stroke"
         id="path1232"
         sodipodi:sides="4"
         sodipodi:cx="50.87973"
         sodipodi:cy="59.702835"
         sodipodi:r1="7.2382998"
         sodipodi:r2="3.8964543"
         sodipodi:arg1="-0.024668013"
         sodipodi:arg2="0.76073013"
         inkscape:flatsided="false"
         inkscape:rounded="-0.04"
         inkscape:randomized="0"
         d="m 58.115828,59.524299 c -0.0052,-0.210419 -4.558885,3.017408 -4.413768,2.864948 0.145117,-0.152459 -2.854212,4.554877 -2.643793,4.549686 0.210418,-0.0052 -3.017408,-4.558885 -2.864949,-4.413768 0.152459,0.145117 -4.554877,-2.854212 -4.549685,-2.643794 0.0052,0.210419 4.558885,-3.017408 4.413767,-2.864948 -0.145117,0.152459 2.854212,-4.554877 2.643794,-4.549686 -0.210419,0.0052 3.017408,4.558886 2.864949,4.413768 -0.15246,-0.145117 4.554877,2.854212 4.549685,2.643794 z"
         inkscape:transform-center-x="1.0084766"
         inkscape:transform-center-y="-1.0084766" />
    </g>
    <g
       transform="matrix(0.15299065,0,0,0.15299065,106.45296,11.479596)"
       id="g1240">
      <path
         sodipodi:type="star"
         style="opacity:0.731;fill:#ffffff;fill-opacity:1;stroke:none;stroke-width:1.5;stroke-linecap:round;stroke-linejoin:round;stroke-miterlimit:4;stroke-dasharray:none;stroke-dashoffset:0;stroke-opacity:0.59315592;paint-order:fill markers stroke"
         id="path1236"
         sodipodi:sides="4"
         sodipodi:cx="50.87973"
         sodipodi:cy="59.702835"
         sodipodi:r1="16.372519"
         sodipodi:r2="3.8964543"
         sodipodi:arg1="0.78539816"
         sodipodi:arg2="1.5707963"
         inkscape:flatsided="false"
         inkscape:rounded="-0.04"
         inkscape:randomized="0"
         d="M 62.456849,71.279954 C 62.849809,70.886994 50.324,63.599289 50.87973,63.599289 c 0.55573,0 -11.970079,7.287705 -11.577119,7.680665 0.392961,0.39296 7.680665,-12.132849 7.680665,-11.577119 0,0.55573 -7.287704,-11.970079 -7.680665,-11.577119 -0.39296,0.392961 12.132849,7.680665 11.577119,7.680665 -0.55573,0 11.970079,-7.287705 11.577119,-7.680665 -0.39296,-0.39296 -7.680664,12.132849 -7.680664,11.577119 0,-0.55573 7.287704,11.970079 7.680664,11.577119 z"
         inkscape:transform-center-x="1.0084766"
         inkscape:transform-center-y="-1.0084766" />
      <path
         inkscape:transform-center-y="-1.0084766"
         inkscape:transform-center-x="1.0084766"
         d="m 58.115828,59.524299 c -0.0052,-0.210419 -4.558885,3.017408 -4.413768,2.864948 0.145117,-0.152459 -2.854212,4.554877 -2.643793,4.549686 0.210418,-0.0052 -3.017408,-4.558885 -2.864949,-4.413768 0.152459,0.145117 -4.554877,-2.854212 -4.549685,-2.643794 0.0052,0.210419 4.558885,-3.017408 4.413767,-2.864948 -0.145117,0.152459 2.854212,-4.554877 2.643794,-4.549686 -0.210419,0.0052 3.017408,4.558886 2.864949,4.413768 -0.15246,-0.145117 4.554877,2.854212 4.549685,2.643794 z"
         inkscape:randomized="0"
         inkscape:rounded="-0.04"
         inkscape:flatsided="false"
         sodipodi:arg2="0.76073013"
         sodipodi:arg1="-0.024668013"
         sodipodi:r2="3.8964543"
         sodipodi:r1="7.2382998"
         sodipodi:cy="59.702835"
         sodipodi:cx="50.87973"
         sodipodi:sides="4"
         id="path1238"
         style="opacity:0.731;fill:#ffffff;fill-opacity:1;stroke:none;stroke-width:1.5;stroke-linecap:round;stroke-linejoin:round;stroke-miterlimit:4;stroke-dasharray:none;stroke-dashoffset:0;stroke-opacity:0.59315592;paint-order:fill markers stroke"
         sodipodi:type="star" />
    </g>
    <g
       id="g1246"
       transform="matrix(0.11041293,0,0,0.11041293,96.533136,16.303179)">
      <path
         inkscape:transform-center-y="-1.0084766"
         inkscape:transform-center-x="1.0084766"
         d="M 62.456849,71.279954 C 62.849809,70.886994 50.324,63.599289 50.87973,63.599289 c 0.55573,0 -11.970079,7.287705 -11.577119,7.680665 0.392961,0.39296 7.680665,-12.132849 7.680665,-11.577119 0,0.55573 -7.287704,-11.970079 -7.680665,-11.577119 -0.39296,0.392961 12.132849,7.680665 11.577119,7.680665 -0.55573,0 11.970079,-7.287705 11.577119,-7.680665 -0.39296,-0.39296 -7.680664,12.132849 -7.680664,11.577119 0,-0.55573 7.287704,11.970079 7.680664,11.577119 z"
         inkscape:randomized="0"
         inkscape:rounded="-0.04"
         inkscape:flatsided="false"
         sodipodi:arg2="1.5707963"
         sodipodi:arg1="0.78539816"
         sodipodi:r2="3.8964543"
         sodipodi:r1="16.372519"
         sodipodi:cy="59.702835"
         sodipodi:cx="50.87973"
         sodipodi:sides="4"
         id="path1242"
         style="opacity:0.731;fill:#ffffff;fill-opacity:1;stroke:none;stroke-width:1.5;stroke-linecap:round;stroke-linejoin:round;stroke-miterlimit:4;stroke-dasharray:none;stroke-dashoffset:0;stroke-opacity:0.59315592;paint-order:fill markers stroke"
         sodipodi:type="star" />
      <path
         sodipodi:type="star"
         style="opacity:0.731;fill:#ffffff;fill-opacity:1;stroke:none;stroke-width:1.5;stroke-linecap:round;stroke-linejoin:round;stroke-miterlimit:4;stroke-dasharray:none;stroke-dashoffset:0;stroke-opacity:0.59315592;paint-order:fill markers stroke"
         id="path1244"
         sodipodi:sides="4"
         sodipodi:cx="50.87973"
         sodipodi:cy="59.702835"
         sodipodi:r1="7.2382998"
         sodipodi:r2="3.8964543"
         sodipodi:arg1="-0.024668013"
         sodipodi:arg2="0.76073013"
         inkscape:flatsided="false"
         inkscape:rounded="-0.04"
         inkscape:randomized="0"
         d="m 58.115828,59.524299 c -0.0052,-0.210419 -4.558885,3.017408 -4.413768,2.864948 0.145117,-0.152459 -2.854212,4.554877 -2.643793,4.549686 0.210418,-0.0052 -3.017408,-4.558885 -2.864949,-4.413768 0.152459,0.145117 -4.554877,-2.854212 -4.549685,-2.643794 0.0052,0.210419 4.558885,-3.017408 4.413767,-2.864948 -0.145117,0.152459 2.854212,-4.554877 2.643794,-4.549686 -0.210419,0.0052 3.017408,4.558886 2.864949,4.413768 -0.15246,-0.145117 4.554877,2.854212 4.549685,2.643794 z"
         inkscape:transform-center-x="1.0084766"
         inkscape:transform-center-y="-1.0084766" />
    </g>
    <g
       transform="matrix(0.11041293,0,0,0.11041293,93.57326,10.568416)"
       id="g1252">
      <path
         sodipodi:type="star"
         style="opacity:0.731;fill:#ffffff;fill-opacity:1;stroke:none;stroke-width:1.5;stroke-linecap:round;stroke-linejoin:round;stroke-miterlimit:4;stroke-dasharray:none;stroke-dashoffset:0;stroke-opacity:0.59315592;paint-order:fill markers stroke"
         id="path1248"
         sodipodi:sides="4"
         sodipodi:cx="50.87973"
         sodipodi:cy="59.702835"
         sodipodi:r1="16.372519"
         sodipodi:r2="3.8964543"
         sodipodi:arg1="0.78539816"
         sodipodi:arg2="1.5707963"
         inkscape:flatsided="false"
         inkscape:rounded="-0.04"
         inkscape:randomized="0"
         d="M 62.456849,71.279954 C 62.849809,70.886994 50.324,63.599289 50.87973,63.599289 c 0.55573,0 -11.970079,7.287705 -11.577119,7.680665 0.392961,0.39296 7.680665,-12.132849 7.680665,-11.577119 0,0.55573 -7.287704,-11.970079 -7.680665,-11.577119 -0.39296,0.392961 12.132849,7.680665 11.577119,7.680665 -0.55573,0 11.970079,-7.287705 11.577119,-7.680665 -0.39296,-0.39296 -7.680664,12.132849 -7.680664,11.577119 0,-0.55573 7.287704,11.970079 7.680664,11.577119 z"
         inkscape:transform-center-x="1.0084766"
         inkscape:transform-center-y="-1.0084766" />
      <path
         inkscape:transform-center-y="-1.0084766"
         inkscape:transform-center-x="1.0084766"
         d="m 58.115828,59.524299 c -0.0052,-0.210419 -4.558885,3.017408 -4.413768,2.864948 0.145117,-0.152459 -2.854212,4.554877 -2.643793,4.549686 0.210418,-0.0052 -3.017408,-4.558885 -2.864949,-4.413768 0.152459,0.145117 -4.554877,-2.854212 -4.549685,-2.643794 0.0052,0.210419 4.558885,-3.017408 4.413767,-2.864948 -0.145117,0.152459 2.854212,-4.554877 2.643794,-4.549686 -0.210419,0.0052 3.017408,4.558886 2.864949,4.413768 -0.15246,-0.145117 4.554877,2.854212 4.549685,2.643794 z"
         inkscape:randomized="0"
         inkscape:rounded="-0.04"
         inkscape:flatsided="false"
         sodipodi:arg2="0.76073013"
         sodipodi:arg1="-0.024668013"
         sodipodi:r2="3.8964543"
         sodipodi:r1="7.2382998"
         sodipodi:cy="59.702835"
         sodipodi:cx="50.87973"
         sodipodi:sides="4"
         id="path1250"
         style="opacity:0.731;fill:#ffffff;fill-opacity:1;stroke:none;stroke-width:1.5;stroke-linecap:round;stroke-linejoin:round;stroke-miterlimit:4;stroke-dasharray:none;stroke-dashoffset:0;stroke-opacity:0.59315592;paint-order:fill markers stroke"
         sodipodi:type="star" />
    </g>
    <g
       id="g1258"
       transform="matrix(0.11041293,0,0,0.11041293,103.8095,10.260093)">
      <path
         inkscape:transform-center-y="-1.0084766"
         inkscape:transform-center-x="1.0084766"
         d="M 62.456849,71.279954 C 62.849809,70.886994 50.324,63.599289 50.87973,63.599289 c 0.55573,0 -11.970079,7.287705 -11.577119,7.680665 0.392961,0.39296 7.680665,-12.132849 7.680665,-11.577119 0,0.55573 -7.287704,-11.970079 -7.680665,-11.577119 -0.39296,0.392961 12.132849,7.680665 11.577119,7.680665 -0.55573,0 11.970079,-7.287705 11.577119,-7.680665 -0.39296,-0.39296 -7.680664,12.132849 -7.680664,11.577119 0,-0.55573 7.287704,11.970079 7.680664,11.577119 z"
         inkscape:randomized="0"
         inkscape:rounded="-0.04"
         inkscape:flatsided="false"
         sodipodi:arg2="1.5707963"
         sodipodi:arg1="0.78539816"
         sodipodi:r2="3.8964543"
         sodipodi:r1="16.372519"
         sodipodi:cy="59.702835"
         sodipodi:cx="50.87973"
         sodipodi:sides="4"
         id="path1254"
         style="opacity:0.731;fill:#ffffff;fill-opacity:1;stroke:none;stroke-width:1.5;stroke-linecap:round;stroke-linejoin:round;stroke-miterlimit:4;stroke-dasharray:none;stroke-dashoffset:0;stroke-opacity:0.59315592;paint-order:fill markers stroke"
         sodipodi:type="star" />
      <path
         sodipodi:type="star"
         style="opacity:0.731;fill:#ffffff;fill-opacity:1;stroke:none;stroke-width:1.5;stroke-linecap:round;stroke-linejoin:round;stroke-miterlimit:4;stroke-dasharray:none;stroke-dashoffset:0;stroke-opacity:0.59315592;paint-order:fill markers stroke"
         id="path1256"
         sodipodi:sides="4"
         sodipodi:cx="50.87973"
         sodipodi:cy="59.702835"
         sodipodi:r1="7.2382998"
         sodipodi:r2="3.8964543"
         sodipodi:arg1="-0.024668013"
         sodipodi:arg2="0.76073013"
         inkscape:flatsided="false"
         inkscape:rounded="-0.04"
         inkscape:randomized="0"
         d="m 58.115828,59.524299 c -0.0052,-0.210419 -4.558885,3.017408 -4.413768,2.864948 0.145117,-0.152459 -2.854212,4.554877 -2.643793,4.549686 0.210418,-0.0052 -3.017408,-4.558885 -2.864949,-4.413768 0.152459,0.145117 -4.554877,-2.854212 -4.549685,-2.643794 0.0052,0.210419 4.558885,-3.017408 4.413767,-2.864948 -0.145117,0.152459 2.854212,-4.554877 2.643794,-4.549686 -0.210419,0.0052 3.017408,4.558886 2.864949,4.413768 -0.15246,-0.145117 4.554877,2.854212 4.549685,2.643794 z"
         inkscape:transform-center-x="1.0084766"
         inkscape:transform-center-y="-1.0084766" />
    </g>
    <g
       id="g1264"
       transform="matrix(0.23814609,0,0,0.23814609,82.770298,16.655992)">
      <path
         inkscape:transform-center-y="-1.0084766"
         inkscape:transform-center-x="1.0084766"
         d="M 62.456849,71.279954 C 62.849809,70.886994 50.324,63.599289 50.87973,63.599289 c 0.55573,0 -11.970079,7.287705 -11.577119,7.680665 0.392961,0.39296 7.680665,-12.132849 7.680665,-11.577119 0,0.55573 -7.287704,-11.970079 -7.680665,-11.577119 -0.39296,0.392961 12.132849,7.680665 11.577119,7.680665 -0.55573,0 11.970079,-7.287705 11.577119,-7.680665 -0.39296,-0.39296 -7.680664,12.132849 -7.680664,11.577119 0,-0.55573 7.287704,11.970079 7.680664,11.577119 z"
         inkscape:randomized="0"
         inkscape:rounded="-0.04"
         inkscape:flatsided="false"
         sodipodi:arg2="1.5707963"
         sodipodi:arg1="0.78539816"
         sodipodi:r2="3.8964543"
         sodipodi:r1="16.372519"
         sodipodi:cy="59.702835"
         sodipodi:cx="50.87973"
         sodipodi:sides="4"
         id="path1260"
         style="opacity:0.731;fill:#ffffff;fill-opacity:1;stroke:none;stroke-width:1.5;stroke-linecap:round;stroke-linejoin:round;stroke-miterlimit:4;stroke-dasharray:none;stroke-dashoffset:0;stroke-opacity:0.59315592;paint-order:fill markers stroke"
         sodipodi:type="star" />
      <path
         sodipodi:type="star"
         style="opacity:0.731;fill:#ffffff;fill-opacity:1;stroke:none;stroke-width:1.5;stroke-linecap:round;stroke-linejoin:round;stroke-miterlimit:4;stroke-dasharray:none;stroke-dashoffset:0;stroke-opacity:0.59315592;paint-order:fill markers stroke"
         id="path1262"
         sodipodi:sides="4"
         sodipodi:cx="50.87973"
         sodipodi:cy="59.702835"
         sodipodi:r1="7.2382998"
         sodipodi:r2="3.8964543"
         sodipodi:arg1="-0.024668013"
         sodipodi:arg2="0.76073013"
         inkscape:flatsided="false"
         inkscape:rounded="-0.04"
         inkscape:randomized="0"
         d="m 58.115828,59.524299 c -0.0052,-0.210419 -4.558885,3.017408 -4.413768,2.864948 0.145117,-0.152459 -2.854212,4.554877 -2.643793,4.549686 0.210418,-0.0052 -3.017408,-4.558885 -2.864949,-4.413768 0.152459,0.145117 -4.554877,-2.854212 -4.549685,-2.643794 0.0052,0.210419 4.558885,-3.017408 4.413767,-2.864948 -0.145117,0.152459 2.854212,-4.554877 2.643794,-4.549686 -0.210419,0.0052 3.017408,4.558886 2.864949,4.413768 -0.15246,-0.145117 4.554877,2.854212 4.549685,2.643794 z"
         inkscape:transform-center-x="1.0084766"
         inkscape:transform-center-y="-1.0084766" />
    </g>
    <g
       transform="matrix(0.68215936,0,0,0.68215936,172.48246,-66.565649)"
       id="g1275">
      <path
         style="opacity:0.731;fill:#ffffff;fill-opacity:0.20532322;stroke:none;stroke-width:1.5;stroke-linecap:round;stroke-linejoin:round;stroke-miterlimit:4;stroke-dasharray:none;stroke-dashoffset:0;stroke-opacity:0.59315592;paint-order:fill markers stroke"
         id="path1266"
         sodipodi:type="arc"
         sodipodi:cx="-33.833755"
         sodipodi:cy="166.38802"
         sodipodi:rx="11.299436"
         sodipodi:ry="13.378531"
         sodipodi:start="0"
         sodipodi:end="6.2799564"
         sodipodi:open="true"
         d="m -22.53432,166.38802 a 11.299436,13.378531 0 0 1 -11.290314,13.37852 11.299436,13.378531 0 0 1 -11.308542,-13.35693 11.299436,13.378531 0 0 1 11.272057,-13.40009 11.299436,13.378531 0 0 1 11.32674,13.3353"
         transform="rotate(26.065334)" />
      <path
         transform="rotate(26.065334)"
         d="m -21.502124,166.21248 a 12.281339,14.541103 0 0 1 -12.271425,14.5411 12.281339,14.541103 0 0 1 -12.291236,-14.51763 12.281339,14.541103 0 0 1 12.251581,-14.56453 12.281339,14.541103 0 0 1 12.311016,14.49411"
         sodipodi:open="true"
         sodipodi:end="6.2799564"
         sodipodi:start="0"
         sodipodi:ry="14.541103"
         sodipodi:rx="12.281339"
         sodipodi:cy="166.21248"
         sodipodi:cx="-33.783463"
         sodipodi:type="arc"
         id="path1268"
         style="opacity:0.731;fill:#ffffff;fill-opacity:0.20532322;stroke:none;stroke-width:1.63034749;stroke-linecap:round;stroke-linejoin:round;stroke-miterlimit:4;stroke-dasharray:none;stroke-dashoffset:0;stroke-opacity:0.59315592;paint-order:fill markers stroke" />
      <path
         style="opacity:0.731;fill:#ffffff;fill-opacity:0.20532322;stroke:none;stroke-width:1.76805389;stroke-linecap:round;stroke-linejoin:round;stroke-miterlimit:4;stroke-dasharray:none;stroke-dashoffset:0;stroke-opacity:0.59315592;paint-order:fill markers stroke"
         id="path1270"
         sodipodi:type="arc"
         sodipodi:cx="-33.823887"
         sodipodi:cy="166.35358"
         sodipodi:rx="13.318675"
         sodipodi:ry="15.76931"
         sodipodi:start="0"
         sodipodi:end="6.2799564"
         sodipodi:open="true"
         d="m -20.505212,166.35358 a 13.318675,15.76931 0 0 1 -13.307924,15.7693 13.318675,15.76931 0 0 1 -13.329409,-15.74384 13.318675,15.76931 0 0 1 13.286405,-15.79473 13.318675,15.76931 0 0 1 13.350859,15.71835"
         transform="rotate(26.065334)" />
    </g>
    <g
       id="g1279"
       style="opacity:0.081"
       transform="matrix(0.68215936,0,0,0.68215936,8.5347215,-121.33117)">
      <path
         id="path1277"
         transform="translate(240.33642,80.282591)"
         d="m -103.10742,122.74023 c -1.70426,-0.0778 -3.0172,0.38809 -3.37305,1.34961 l -12.51367,33.81446 c 0.60194,-0.005 1.17405,0.0247 1.72656,0.0762 3.9465,-0.48373 8.07965,-0.91236 12.46485,-1.26367 l 10.382808,-28.05664 c 0.56934,-1.53843 -1.489138,-3.73088 -4.642578,-4.92578 l -0.675781,-0.25586 c -1.182539,-0.44809 -2.346589,-0.69158 -3.369139,-0.73829 z"
         style="fill:url(#linearGradient1285);fill-opacity:1;stroke:none;stroke-width:1px;stroke-linecap:butt;stroke-linejoin:miter;stroke-opacity:1"
         inkscape:connector-curvature="0" />
    </g>
  </g>
</svg>
