<?xml version="1.0" encoding="UTF-8" standalone="no"?>
<!-- Created with Inkscape (http://www.inkscape.org/) -->

<svg
   xmlns:osb="http://www.openswatchbook.org/uri/2009/osb"
   xmlns:dc="http://purl.org/dc/elements/1.1/"
   xmlns:cc="http://creativecommons.org/ns#"
   xmlns:rdf="http://www.w3.org/1999/02/22-rdf-syntax-ns#"
   xmlns:svg="http://www.w3.org/2000/svg"
   xmlns="http://www.w3.org/2000/svg"
   xmlns:xlink="http://www.w3.org/1999/xlink"
   xmlns:sodipodi="http://sodipodi.sourceforge.net/DTD/sodipodi-0.dtd"
   xmlns:inkscape="http://www.inkscape.org/namespaces/inkscape"
   width="128"
   height="128"
   viewBox="0 0 33.866666 33.866668"
   version="1.1"
   id="svg880"
   inkscape:version="0.92.2 5c3e80d, 2017-08-06"
   sodipodi:docname="guake-prefs.svg">
  <defs
     id="defs874">
    <linearGradient
       inkscape:collect="always"
       id="linearGradient1321">
      <stop
         style="stop-color:#797676;stop-opacity:1"
         offset="0"
         id="stop1317" />
      <stop
         style="stop-color:#c4d9e7;stop-opacity:1"
         offset="1"
         id="stop1319" />
    </linearGradient>
    <linearGradient
       osb:paint="solid"
       id="linearGradient6987">
      <stop
         id="stop6985"
         offset="0"
         style="stop-color:#77d2fb;stop-opacity:1;" />
    </linearGradient>
    <linearGradient
       inkscape:collect="always"
       id="linearGradient1104">
      <stop
         id="stop1100"
         offset="0"
         style="stop-color:#556168;stop-opacity:1" />
      <stop
         id="stop1102"
         offset="1"
         style="stop-color:#2b1c1c;stop-opacity:1" />
    </linearGradient>
    <linearGradient
       y2="393.44238"
       x2="-422.19818"
       y1="286.10971"
       x1="-425.94803"
       gradientTransform="matrix(0.22667337,0,0,0.22668643,113.47479,202.6811)"
       gradientUnits="userSpaceOnUse"
       id="linearGradient1048"
       xlink:href="#linearGradient1104"
       inkscape:collect="always" />
    <linearGradient
       inkscape:collect="always"
       xlink:href="#linearGradient1321"
       id="linearGradient1323"
       x1="15.701913"
       y1="292.40076"
       x2="16.058784"
       y2="264.41046"
       gradientUnits="userSpaceOnUse"
       gradientTransform="matrix(0.96125678,0,0,0.96125678,1.4867164,13.368277)" />
  </defs>
  <sodipodi:namedview
     id="base"
     pagecolor="#ffffff"
     bordercolor="#666666"
     borderopacity="1.0"
     inkscape:pageopacity="0.0"
     inkscape:pageshadow="2"
     inkscape:zoom="1.1948999"
     inkscape:cx="-54.833251"
     inkscape:cy="120.83823"
     inkscape:document-units="mm"
     inkscape:current-layer="layer1"
     showgrid="false"
     inkscape:window-width="1600"
     inkscape:window-height="803"
     inkscape:window-x="0"
     inkscape:window-y="0"
     inkscape:window-maximized="1"
     units="px" />
  <metadata
     id="metadata877">
    <rdf:RDF>
      <cc:Work
         rdf:about="">
        <dc:format>image/svg+xml</dc:format>
        <dc:type
           rdf:resource="http://purl.org/dc/dcmitype/StillImage" />
        <dc:title />
      </cc:Work>
    </rdf:RDF>
  </metadata>
  <g
     inkscape:label="Layer 1"
     inkscape:groupmode="layer"
     id="layer1"
     transform="translate(0,-263.13332)">
    <g
       style="stroke-width:4.08449793"
       inkscape:transform-center-y="-9.4924686"
       inkscape:transform-center-x="5.4653607"
       inkscape:label="Capa 1"
       id="layer1-4-3"
       transform="matrix(0.53602412,0,0,0.5372689,-297.29079,-20.505666)">
      <g
         style="stroke-width:4.08449793"
         id="layer1-3-65-9"
         inkscape:label="Capa 1"
         transform="translate(0.41988239,0.03484499)" />
    </g>
    <g
       style="stroke-width:4.08449793"
       inkscape:transform-center-y="-9.4924686"
       inkscape:transform-center-x="5.4653607"
       inkscape:label="Capa 1"
       id="layer1-4"
       transform="matrix(0.53602412,0,0,0.5372689,-297.29079,-20.480663)">
      <g
         style="stroke-width:4.08449793"
         id="layer1-3-65"
         inkscape:label="Capa 1"
         transform="translate(0.41988239,0.03484499)" />
    </g>
    <g
       id="g1341">
      <ellipse
         cy="280.36905"
         cx="16.933332"
         id="ellipse1325"
         style="opacity:0.25;fill:#000000;fill-opacity:1;fill-rule:nonzero;stroke:none;stroke-width:0.19225135;stroke-linecap:round;stroke-linejoin:round;stroke-miterlimit:4;stroke-dasharray:none;stroke-dashoffset:0;stroke-opacity:1"
         rx="15.571706"
         ry="15.5726" />
      <ellipse
         ry="15.5726"
         rx="15.571706"
         style="opacity:1;fill:url(#linearGradient1323);fill-opacity:1;fill-rule:nonzero;stroke:#2d1f1f;stroke-width:0.19225135;stroke-linecap:round;stroke-linejoin:round;stroke-miterlimit:4;stroke-dasharray:none;stroke-dashoffset:0;stroke-opacity:1"
         id="circle1042"
         cx="16.933332"
         cy="279.86038" />
      <path
         inkscape:connector-curvature="0"
         id="path1172"
         d="m 16.923709,268.08832 c -0.541033,0 -0.527891,-0.0171 -0.707305,0.94062 -0.06631,0.35398 -0.135879,0.6593 -0.154534,0.67798 -0.06519,0.0654 -0.855907,0.16603 -0.98397,0.12522 -0.08303,-0.0269 -0.246646,-0.2862 -0.457098,-0.72746 -0.369699,-0.7742 -0.378135,-0.77896 -1.015947,-0.56591 -0.316092,0.10578 -0.330226,0.12116 -0.348886,0.37418 -0.01068,0.1453 0.0081,0.48648 0.04083,0.75797 0.0332,0.27096 0.03722,0.53924 0.0081,0.59538 -0.06505,0.12564 -0.884707,0.4696 -0.999956,0.41903 -0.0466,-0.0224 -0.288053,-0.28893 -0.537046,-0.59705 -0.408236,-0.50497 -0.469975,-0.55613 -0.626247,-0.51737 -0.245705,0.0601 -0.734605,0.35489 -0.778431,0.46963 -0.02009,0.0508 0.07039,0.38046 0.20165,0.72743 0.131264,0.34726 0.238796,0.68636 0.238796,0.75352 0,0.1374 -0.641423,0.65359 -0.8115148,0.65359 -0.059125,0 -0.3785345,-0.17822 -0.7097859,-0.39525 -0.3312556,-0.21714 -0.635079,-0.39526 -0.6751846,-0.39526 -0.098998,0 -0.7035893,0.60149 -0.7035893,0.70002 0,0.0461 0.1925046,0.36697 0.4277067,0.71854 0.4825049,0.72181 0.4823938,0.67672 -7.97e-4,1.24913 -0.2526128,0.29926 -0.2237232,0.30103 -1.2398239,-0.0722 L 6.574392,273.7899 6.4148583,273.98776 c -0.087737,0.10898 -0.2098126,0.32842 -0.2713205,0.4887 l -0.1117974,0.29118 0.3575896,0.30237 c 0.1966713,0.16646 0.472056,0.40691 0.6119118,0.53478 l 0.2543607,0.23282 -0.176158,0.43969 c -0.096861,0.24181 -0.2106247,0.46733 -0.2528372,0.50049 -0.047202,0.0361 -0.3667843,0.0314 -0.826545,-0.009 -0.8667319,-0.0804 -0.851973,-0.0881 -0.9954123,0.51005 -0.110729,0.46162 -0.093527,0.48309 0.693527,0.85812 0.3872869,0.18484 0.6267562,0.33916 0.6528508,0.42127 0.053911,0.17009 -0.071562,0.94379 -0.1620764,0.99974 -0.038569,0.0222 -0.3729746,0.0959 -0.7431478,0.15963 -0.3701476,0.0645 -0.7101021,0.14722 -0.7554109,0.18355 -0.1111565,0.0902 -0.1111565,0.93408 0,1.02442 0.045492,0.0361 0.3852206,0.11988 0.7554109,0.18355 0.3701497,0.0643 0.7045144,0.13633 0.7431478,0.16069 0.090536,0.0562 0.2160072,0.8298 0.1620764,0.99972 -0.026005,0.0821 -0.2655768,0.23732 -0.6528508,0.42125 -0.7841103,0.37418 -0.8077732,0.40244 -0.6976574,0.84062 0.1361143,0.54205 0.1643628,0.57301 0.5159801,0.57063 0.1709228,-9.6e-4 0.5183369,-0.0269 0.772095,-0.062 0.3399567,-0.0463 0.4825049,-0.0361 0.5417628,0.0171 0.1553454,0.153 0.4045585,0.86263 0.3430977,0.9774 -0.03186,0.0601 -0.2983275,0.30911 -0.5916485,0.55388 -0.4757611,0.39659 -0.5287859,0.46345 -0.4911526,0.61649 0.060023,0.24404 0.3553909,0.73325 0.4692483,0.77698 0.0528,0.0224 0.3802888,-0.0709 0.7274251,-0.2015 0.3471791,-0.13141 0.6860375,-0.23868 0.75321,-0.23868 0.1369477,0 0.6538231,0.64147 0.6538231,0.81154 0,0.059 -0.178017,0.37866 -0.3955413,0.70969 -0.2174859,0.3311 -0.3954944,0.63519 -0.3954944,0.67526 0,0.1 0.6019949,0.7036 0.7017942,0.7036 0.044402,0 0.3465958,-0.17821 0.6717338,-0.39526 0.3251528,-0.21715 0.6432031,-0.39525 0.7067537,-0.39525 0.1690424,0 0.8196474,0.52356 0.8196474,0.65963 0,0.0641 -0.107225,0.39973 -0.238527,0.74744 -0.131264,0.34722 -0.222242,0.67463 -0.20197,0.72747 0.04395,0.11389 0.533055,0.4096 0.778712,0.46962 0.156244,0.0361 0.21789,-0.009 0.626109,-0.51736 0.24907,-0.30821 0.487556,-0.57563 0.530188,-0.59446 0.111968,-0.0507 0.943764,0.29433 1.005474,0.41591 0.02872,0.0562 0.02825,0.31 -0.0011,0.56379 -0.02916,0.25392 -0.05502,0.58893 -0.05675,0.74487 -0.003,0.26334 0.01346,0.29071 0.228703,0.38046 0.12763,0.0507 0.362209,0.11432 0.521324,0.13676 l 0.289352,0.0361 0.331795,-0.69449 c 0.213359,-0.44682 0.377684,-0.70924 0.460803,-0.73561 0.128081,-0.0361 0.918891,0.0596 0.984107,0.12521 0.01838,0.0171 0.08821,0.32344 0.154554,0.67784 0.06631,0.35397 0.150325,0.71064 0.186672,0.79243 0.05927,0.1327 0.112866,0.14852 0.520803,0.14852 0.293438,0 0.479978,-0.0269 0.526042,-0.0861 0.03947,-0.0461 0.121071,-0.38627 0.18197,-0.75258 0.06088,-0.367 0.130986,-0.69942 0.155943,-0.7397 0.05769,-0.0933 0.829187,-0.21985 1.003541,-0.16475 0.08231,0.0269 0.220537,0.23103 0.367817,0.546 0.129747,0.2777 0.294244,0.58916 0.365528,0.6926 0.116733,0.16923 0.155751,0.18355 0.390382,0.14616 0.143423,-0.0224 0.361626,-0.0837 0.484974,-0.13548 0.211393,-0.0879 0.224079,-0.11175 0.222105,-0.41005 -0.0011,-0.17414 -0.02916,-0.52412 -0.06218,-0.77777 -0.0444,-0.33915 -0.03947,-0.48196 0.01838,-0.53813 0.122055,-0.11988 0.899483,-0.41544 0.988238,-0.37595 0.04305,0.0171 0.280876,0.28488 0.527553,0.5898 0.246691,0.30509 0.499071,0.55503 0.560528,0.55448 0.131584,-8e-4 0.772821,-0.35756 0.841154,-0.46846 0.026,-0.0359 -0.0681,-0.41635 -0.209236,-0.83208 l -0.25683,-0.75573 0.358708,-0.32259 c 0.197206,-0.17757 0.391461,-0.32302 0.431611,-0.32302 0.04036,0 0.363331,0.19295 0.71819,0.42892 0.354898,0.23554 0.684896,0.42887 0.733221,0.42887 0.113549,0 0.69145,-0.57678 0.69145,-0.69007 0,-0.0461 -0.178017,-0.35758 -0.395497,-0.68874 -0.217486,-0.33157 -0.395631,-0.65061 -0.395631,-0.70972 0,-0.16325 0.527326,-0.81168 0.659746,-0.81168 0.0639,0 0.400388,0.10726 0.747558,0.23868 0.347182,0.13141 0.675264,0.22208 0.729229,0.20107 0.116947,-0.0461 0.498285,-0.69021 0.499407,-0.84463 5.3e-4,-0.0596 -0.251536,-0.32079 -0.55968,-0.57995 -0.642536,-0.54098 -0.662182,-0.6037 -0.375129,-1.19029 0.148402,-0.30327 0.204343,-0.36116 0.342112,-0.35263 0.09058,0.004 0.453905,0.0314 0.807243,0.0579 l 0.642373,0.0507 0.100452,-0.24047 c 0.05504,-0.13227 0.118443,-0.37103 0.140324,-0.53083 l 0.03994,-0.2907 -0.695445,-0.33335 c -0.439504,-0.21047 -0.710372,-0.37956 -0.73584,-0.46018 -0.05451,-0.17052 0.07412,-0.94191 0.166072,-0.99878 0.04036,-0.0224 0.373154,-0.0951 0.739699,-0.15621 0.366558,-0.0605 0.705104,-0.14274 0.752378,-0.18205 0.117033,-0.0972 0.117033,-0.93613 0,-1.03325 -0.04716,-0.0361 -0.38585,-0.12159 -0.752378,-0.18227 -0.366562,-0.0605 -0.699422,-0.13056 -0.739699,-0.1562 -0.09263,-0.0575 -0.219999,-0.82859 -0.16526,-1.00094 0.02647,-0.083 0.28886,-0.24766 0.735566,-0.46113 l 0.694617,-0.33154 -0.03994,-0.28937 c -0.02198,-0.15876 -0.08331,-0.39391 -0.136605,-0.52131 -0.0921,-0.22028 -0.112951,-0.23195 -0.413394,-0.22971 -0.174021,9.6e-4 -0.524011,0.0269 -0.777738,0.0622 -0.540754,0.0706 -0.546031,0.0669 -0.778989,-0.49206 -0.111797,-0.26827 -0.145751,-0.42935 -0.105964,-0.50386 0.03186,-0.0601 0.296351,-0.30776 0.587103,-0.55053 0.290745,-0.2427 0.527949,-0.48982 0.527949,-0.55052 -8.06e-4,-0.15556 -0.381905,-0.80085 -0.499414,-0.84602 -0.05391,-0.0224 -0.382039,0.0694 -0.729222,0.20107 -0.347182,0.13141 -0.68362,0.23866 -0.747558,0.23866 -0.132439,0 -0.65974,-0.64867 -0.65974,-0.81167 0,-0.0587 0.178145,-0.37864 0.395584,-0.7098 0.217487,-0.33152 0.395497,-0.64104 0.395497,-0.68865 0,-0.11389 -0.578557,-0.69008 -0.693241,-0.69008 -0.04945,0 -0.33592,0.16604 -0.63728,0.36787 -0.808078,0.54262 -0.714057,0.52747 -1.168547,0.1857 -0.230675,-0.17373 -0.400971,-0.3522 -0.400971,-0.42038 0,-0.0654 0.107482,-0.40287 0.238799,-0.74997 0.131264,-0.34726 0.221702,-0.67543 0.200988,-0.72947 -0.04541,-0.11838 -0.690925,-0.49873 -0.847911,-0.49931 -0.06142,-2.3e-4 -0.313759,0.24944 -0.560471,0.55442 -0.246689,0.30507 -0.483285,0.57031 -0.525921,0.58914 -0.111989,0.0509 -0.943637,-0.29431 -1.005471,-0.41587 -0.02872,-0.0562 -0.02916,-0.2804 -0.0011,-0.49768 0.02825,-0.21759 0.05333,-0.55273 0.05665,-0.74497 0.0054,-0.33691 -0.0021,-0.35264 -0.218473,-0.44279 -0.123357,-0.0507 -0.341574,-0.11218 -0.484973,-0.13547 -0.234667,-0.0361 -0.273562,-0.0224 -0.390291,0.14615 -0.07129,0.10321 -0.235835,0.41544 -0.365528,0.69242 -0.14729,0.31451 -0.285632,0.5202 -0.367908,0.54605 -0.174363,0.0562 -0.9457,-0.0708 -1.00341,-0.16474 -0.02467,-0.0362 -0.09515,-0.37371 -0.15603,-0.73994 -0.06088,-0.36697 -0.142845,-0.70512 -0.182098,-0.75243 -0.0459,-0.0559 -0.232516,-0.0856 -0.525872,-0.0856 z m -0.331256,3.68987 c 0.181692,8.2e-4 0.367996,0.009 0.556652,0.0269 0.18868,0.0171 0.379704,0.0463 0.571109,0.0735 0.382801,0.0624 0.766995,0.14936 1.135598,0.25124 0.368579,0.1015 0.721721,0.21759 1.042554,0.33693 0.320848,0.11988 0.609363,0.2427 0.848877,0.35846 0.158978,0.0771 0.315734,0.16154 0.469803,0.25346 0.154064,0.0921 0.305463,0.18975 0.453629,0.29388 0.14823,0.10363 0.293212,0.21399 0.434749,0.3284 0.141585,0.11432 0.279665,0.23419 0.413666,0.35757 0.268045,0.24674 0.520078,0.50893 0.752787,0.77814 0.23274,0.26965 0.4461,0.54659 0.636585,0.82291 0.190475,0.27637 0.358216,0.55276 0.499578,0.82055 0.141392,0.26782 0.256472,0.52747 0.341841,0.77085 0.04263,0.12201 0.07786,0.23913 0.105323,0.35218 0.02735,0.11305 0.04721,0.22029 0.05831,0.32211 0.01111,0.1015 0.01389,0.19701 0.0086,0.28579 -0.0054,0.0887 -0.02009,0.1701 -0.04396,0.24407 -0.02693,0.0837 -0.06133,0.15877 -0.10216,0.22791 -0.04083,0.0686 -0.08798,0.13099 -0.139918,0.18569 -0.05167,0.0562 -0.108699,0.10449 -0.168722,0.14765 -0.06007,0.0463 -0.123421,0.0812 -0.188551,0.11347 -0.130367,0.0654 -0.26809,0.11047 -0.401149,0.13954 -0.133016,0.0269 -0.261361,0.0463 -0.373111,0.0463 -0.564842,0.0171 -1.057854,0.009 -1.754129,-0.004 -0.696272,-0.0171 -1.595811,-0.0463 -2.973681,-0.0562 v -9e-5 c -0.02072,0.002 -0.108742,0.004 -0.24095,-0.004 -0.06612,-0.004 -0.143144,-0.0171 -0.228253,-0.0314 -0.0852,-0.0171 -0.178273,-0.0463 -0.276523,-0.0816 -0.09825,-0.0314 -0.201565,-0.0829 -0.306941,-0.14274 -0.105431,-0.0592 -0.212997,-0.13226 -0.319636,-0.2221 -0.106691,-0.0887 -0.21242,-0.19381 -0.314433,-0.31763 -0.102011,-0.12372 -0.200175,-0.26558 -0.291507,-0.4298 -0.45307,-0.81203 -0.847531,-1.48695 -1.221206,-2.1515 -0.186799,-0.33289 -0.3684,-0.6619 -0.549626,-1.00481 -0.181201,-0.34324 -0.362073,-0.69932 -0.547099,-1.08465 -0.05913,-0.12286 -0.115429,-0.26695 -0.147502,-0.42036 -0.01624,-0.0767 -0.026,-0.15621 -0.02693,-0.23644 -0.0013,-0.0804 0.0058,-0.1624 0.02558,-0.24362 0.0188,-0.0816 0.04943,-0.16368 0.09344,-0.24314 0.0444,-0.0804 0.102694,-0.15877 0.177867,-0.23555 0.07508,-0.0763 0.167056,-0.15022 0.278318,-0.21938 0.111264,-0.0697 0.241938,-0.13505 0.394644,-0.19552 0.09516,-0.036 0.194834,-0.0697 0.298325,-0.0966 0.10355,-0.0269 0.21086,-0.0507 0.321478,-0.0658 0.221255,-0.0314 0.455474,-0.0507 0.697797,-0.0461 z m -4.953885,2.55628 c 0.06928,9.6e-4 0.13637,0.009 0.201243,0.0224 0.06486,0.009 0.127461,0.0314 0.187655,0.0579 0.120408,0.0507 0.231125,0.11625 0.331164,0.19381 0.100002,0.0776 0.189042,0.16603 0.266294,0.25526 0.07728,0.0898 0.142695,0.18078 0.194919,0.26471 0.301825,0.48529 0.542492,0.92212 0.879202,1.54108 0.336773,0.61903 0.769495,1.42008 1.455274,2.63349 0.0126,0.0171 0.06156,0.0914 0.117268,0.21347 0.02825,0.0609 0.05741,0.13419 0.08446,0.21848 0.02693,0.0844 0.05167,0.1795 0.07043,0.28353 0.01838,0.10407 0.03094,0.21804 0.03318,0.34095 0.0023,0.12244 -0.0054,0.25394 -0.02693,0.39211 -0.02198,0.13824 -0.05742,0.28397 -0.110985,0.43609 -0.05338,0.15172 -0.124982,0.30956 -0.218116,0.47241 -0.461733,0.80697 -0.836509,1.49328 -1.212929,2.15624 -0.18823,0.33153 -0.376745,0.65703 -0.576902,0.98893 -0.200132,0.332 -0.411826,0.67017 -0.646096,1.0269 -0.07487,0.1141 -0.168508,0.23598 -0.282849,0.34139 -0.0572,0.0506 -0.119511,0.1015 -0.18729,0.14317 -0.06778,0.0358 -0.141051,0.0763 -0.219999,0.10085 -0.07891,0.0224 -0.16353,0.036 -0.254094,0.036 -0.09053,9.6e-4 -0.187119,-0.009 -0.289758,-0.036 -0.102695,-0.0269 -0.211608,-0.0709 -0.326858,-0.13334 -0.115238,-0.0624 -0.236957,-0.14359 -0.365304,-0.24718 -0.07998,-0.0645 -0.157461,-0.1359 -0.232561,-0.21261 -0.07509,-0.0771 -0.147824,-0.15962 -0.218025,-0.24901 -0.140452,-0.17714 -0.271322,-0.3746 -0.3927161,-0.58753 -0.1214344,-0.21261 -0.2334519,-0.44057 -0.3362343,-0.67784 -0.1027161,-0.23733 -0.1962225,-0.48311 -0.2806968,-0.73245 -0.084425,-0.24943 -0.1598756,-0.50164 -0.2263685,-0.75106 -0.066498,-0.24943 -0.1240841,-0.49602 -0.1729742,-0.73416 -0.048847,-0.23821 -0.089211,-0.46681 -0.1209002,-0.68148 -0.03186,-0.21444 -0.055045,-0.41364 -0.069766,-0.59306 -0.014744,-0.178 -0.021988,-0.35846 -0.021988,-0.53929 2.34e-5,-0.18163 0.00769,-0.36338 0.020727,-0.54599 0.013461,-0.18249 0.033655,-0.36518 0.059958,-0.54711 0.026005,-0.18206 0.057993,-0.36296 0.09528,-0.54262 0.074425,-0.35982 0.1699825,-0.71267 0.2816391,-1.0527 0.1116906,-0.33962 0.2392897,-0.66672 0.3782246,-0.97331 0.1389776,-0.30689 0.2891713,-0.59298 0.4455617,-0.85205 0.1563927,-0.25888 0.3190057,-0.49095 0.4828977,-0.68871 0.08195,-0.0987 0.164235,-0.1889 0.246198,-0.27008 0.0819,-0.0812 0.163658,-0.15214 0.244404,-0.21346 0.08075,-0.0609 0.160602,-0.11218 0.238886,-0.15172 0.07833,-0.0358 0.155047,-0.0685 0.2296,-0.0848 0.08443,-0.0171 0.166349,-0.0269 0.245524,-0.0269 z m 5.295199,5.18995 a 0.9166652,0.88975579 0 0 1 0.916697,0.88974 0.9166652,0.88975579 0 0 1 -0.916697,0.88968 0.9166652,0.88975579 0 0 1 -0.916695,-0.88968 0.9166652,0.88975579 0 0 1 0.916695,-0.88974 z m 4.551779,1.80414 c 0.376834,-9.6e-4 0.748903,5.4e-4 1.132153,0.009 0.383249,0.009 0.777668,0.0224 1.199148,0.0507 0.134725,0.009 0.285451,0.0269 0.432864,0.0767 0.07365,0.0224 0.146521,0.0562 0.216143,0.0929 0.06961,0.036 0.136072,0.0855 0.196713,0.14232 0.06065,0.0564 0.115644,0.12437 0.162526,0.20279 0.0472,0.079 0.0856,0.16922 0.113848,0.27278 0.02825,0.10363 0.0459,0.22161 0.05056,0.35395 0.0045,0.13227 -0.0035,0.28042 -0.02692,0.44504 -0.01475,0.10278 -0.0368,0.20684 -0.06439,0.31138 -0.02825,0.10405 -0.0624,0.21004 -0.102418,0.31584 -0.08004,0.21218 -0.182674,0.4262 -0.302992,0.64005 -0.120323,0.21369 -0.258221,0.42621 -0.408507,0.63555 -0.150238,0.20898 -0.312904,0.41544 -0.482727,0.61433 -0.169855,0.19916 -0.346909,0.39211 -0.52604,0.57591 -0.179086,0.18355 -0.360367,0.358 -0.538444,0.52072 -0.178102,0.1624 -0.352923,0.31272 -0.519576,0.44819 -0.166671,0.13548 -0.325111,0.25619 -0.470092,0.35891 -0.144321,0.10277 -0.294202,0.19914 -0.448567,0.29073 -0.154363,0.0906 -0.313221,0.17671 -0.475425,0.25526 -0.162269,0.0799 -0.327891,0.15385 -0.495987,0.22252 -0.168101,0.0686 -0.338433,0.13141 -0.510197,0.1889 -0.343502,0.11474 -0.69235,0.20897 -1.037997,0.28129 -0.345654,0.0731 -0.688228,0.12479 -1.01912,0.15663 -0.330895,0.0314 -0.650116,0.0463 -0.949367,0.0358 -0.299267,-0.004 -0.578423,-0.0314 -0.829162,-0.078 -0.125344,-0.0224 -0.243642,-0.0507 -0.35373,-0.0804 -0.110088,-0.0314 -0.212014,-0.0669 -0.304652,-0.10769 -0.09269,-0.0359 -0.176074,-0.0849 -0.249203,-0.13377 -0.07312,-0.0505 -0.136114,-0.10149 -0.187612,-0.15876 -0.05831,-0.0645 -0.106156,-0.13227 -0.145046,-0.20278 -0.03904,-0.0706 -0.06863,-0.14231 -0.09053,-0.21489 -0.02198,-0.0731 -0.03634,-0.14766 -0.04396,-0.22211 -0.0081,-0.0744 -0.0086,-0.14893 -0.0045,-0.22252 0.0086,-0.14723 0.03814,-0.29114 0.07833,-0.42307 0.04036,-0.13184 0.09143,-0.25212 0.143251,-0.35262 0.261588,-0.50892 0.512944,-0.93936 0.871057,-1.54595 0.358081,-0.60651 0.822983,-1.38881 1.511937,-2.60038 0.0086,-0.0171 0.0466,-0.1 0.123101,-0.2109 0.03814,-0.0562 0.08573,-0.11796 0.143594,-0.18355 0.05793,-0.0664 0.126156,-0.13547 0.205773,-0.20407 0.07966,-0.0692 0.17071,-0.13718 0.273879,-0.20043 0.103271,-0.0636 0.218789,-0.12287 0.347495,-0.17265 0.128742,-0.0507 0.270648,-0.0923 0.42681,-0.12159 0.156114,-0.0269 0.326409,-0.0463 0.511829,-0.0463 0.919238,0 1.691921,-0.0171 2.445575,-0.0171 z"
         style="opacity:0.25;fill:#000000;fill-opacity:1;stroke-width:0.01242751" />
      <path
         style="opacity:1;fill:url(#linearGradient1048);fill-opacity:1;stroke-width:0.01242751"
         d="m 16.923709,267.53828 c -0.541033,0 -0.527891,-0.0171 -0.707305,0.94063 -0.06631,0.35398 -0.135879,0.6593 -0.154534,0.67796 -0.06519,0.0654 -0.855907,0.16603 -0.98397,0.12521 -0.08303,-0.0269 -0.246646,-0.28622 -0.457098,-0.72745 -0.369699,-0.7742 -0.378135,-0.77897 -1.015947,-0.56591 -0.316092,0.10577 -0.330226,0.12116 -0.348886,0.37415 -0.01068,0.14531 0.0081,0.48651 0.04083,0.75797 0.0332,0.27099 0.03722,0.53927 0.0081,0.5954 -0.06505,0.12564 -0.884707,0.46958 -0.999956,0.41903 -0.0466,-0.0224 -0.288053,-0.28892 -0.537046,-0.59705 -0.408236,-0.50499 -0.469975,-0.55614 -0.626247,-0.51738 -0.245705,0.0601 -0.734605,0.35488 -0.778431,0.46964 -0.02009,0.0507 0.07039,0.38046 0.20165,0.72744 0.131264,0.34723 0.238796,0.68636 0.238796,0.75351 0,0.1372 -0.641423,0.65359 -0.8115148,0.65359 -0.059125,0 -0.3785345,-0.17821 -0.7097859,-0.39524 -0.3312556,-0.21717 -0.635079,-0.39527 -0.6751846,-0.39527 -0.098998,0 -0.7035893,0.60149 -0.7035893,0.70002 0,0.0461 0.1925046,0.36698 0.4277067,0.71854 0.4825049,0.72182 0.4823938,0.67672 -7.97e-4,1.24911 -0.2526128,0.29928 -0.2237232,0.30103 -1.2398239,-0.0722 l -0.5162622,-0.19017 -0.1595337,0.19787 c -0.087737,0.10898 -0.2098126,0.32841 -0.2713205,0.48869 l -0.1117974,0.29118 0.3575896,0.30237 c 0.1966713,0.16646 0.472056,0.40692 0.6119118,0.53479 l 0.2543607,0.23284 -0.176158,0.43967 c -0.096861,0.24183 -0.2106247,0.46734 -0.2528372,0.50048 -0.047202,0.0361 -0.3667843,0.0314 -0.826545,-0.009 -0.8667319,-0.0804 -0.851973,-0.0881 -0.9954123,0.51005 -0.110729,0.46162 -0.093527,0.48309 0.693527,0.85813 0.3872869,0.18483 0.6267562,0.33915 0.6528508,0.42127 0.053911,0.17008 -0.071562,0.9438 -0.1620764,0.99974 -0.038569,0.0224 -0.3729746,0.0962 -0.7431478,0.15962 -0.3701476,0.0645 -0.7101021,0.14723 -0.7554109,0.18355 -0.1111565,0.0902 -0.1111565,0.93408 0,1.02442 0.045492,0.036 0.3852206,0.11988 0.7554109,0.18355 0.3701497,0.0641 0.7045144,0.13633 0.7431478,0.1607 0.090536,0.0562 0.2160072,0.82982 0.1620764,0.99971 -0.026005,0.0821 -0.2655768,0.23734 -0.6528508,0.42127 -0.7841103,0.37416 -0.8077732,0.40244 -0.6976574,0.8406 0.1361143,0.54207 0.1643628,0.57301 0.5159801,0.57064 0.1709228,-9.7e-4 0.5183369,-0.0269 0.772095,-0.062 0.3399567,-0.0463 0.4825049,-0.036 0.5417628,0.0171 0.1553454,0.153 0.4045585,0.86264 0.3430977,0.9774 -0.03186,0.0601 -0.2983275,0.30911 -0.5916485,0.55388 -0.4757611,0.39659 -0.5287859,0.46345 -0.4911526,0.61649 0.060023,0.24404 0.3553909,0.73325 0.4692483,0.77698 0.0528,0.0224 0.3802888,-0.0707 0.7274251,-0.20149 0.3471791,-0.13142 0.6860375,-0.23869 0.75321,-0.23869 0.1369477,0 0.6538231,0.64147 0.6538231,0.81157 0,0.059 -0.178017,0.37863 -0.3955413,0.70966 -0.2174859,0.33113 -0.3954944,0.63519 -0.3954944,0.67526 0,0.1 0.6019949,0.7036 0.7017942,0.7036 0.044402,0 0.3465958,-0.17821 0.6717338,-0.39526 0.3251528,-0.21712 0.6432031,-0.39522 0.7067537,-0.39522 0.1690424,0 0.8196474,0.52353 0.8196474,0.65962 0,0.0641 -0.107225,0.39974 -0.238527,0.74742 -0.131264,0.34722 -0.222242,0.67463 -0.20197,0.72747 0.04395,0.11389 0.533055,0.40961 0.778712,0.46963 0.156244,0.0361 0.21789,-0.009 0.626109,-0.51737 0.24907,-0.30821 0.487556,-0.57563 0.530188,-0.59446 0.111968,-0.0507 0.943764,0.29433 1.005474,0.41591 0.02872,0.0562 0.02825,0.31001 -0.0011,0.56379 -0.02916,0.25395 -0.05502,0.58893 -0.05675,0.74487 -0.003,0.26335 0.01346,0.29073 0.228703,0.38047 0.12763,0.0507 0.362209,0.11431 0.521324,0.13675 l 0.289352,0.0361 0.331795,-0.69451 c 0.213359,-0.44682 0.377684,-0.70924 0.460803,-0.73561 0.128081,-0.0361 0.918891,0.0596 0.984107,0.12521 0.01838,0.0171 0.08821,0.32346 0.154554,0.67784 0.06631,0.35397 0.150325,0.71064 0.186672,0.79243 0.05927,0.13271 0.112866,0.14852 0.520803,0.14852 0.293438,0 0.479978,-0.0269 0.526042,-0.0861 0.03947,-0.0461 0.121071,-0.38624 0.18197,-0.75256 0.06088,-0.36702 0.130986,-0.69944 0.155943,-0.73971 0.05769,-0.0933 0.829187,-0.21984 1.003541,-0.16475 0.08231,0.0269 0.220537,0.23104 0.367817,0.54599 0.129747,0.2777 0.294244,0.58916 0.365528,0.6926 0.116733,0.16923 0.155751,0.18356 0.390382,0.14637 0.143423,-0.0224 0.361626,-0.084 0.484974,-0.13546 0.211393,-0.0879 0.224079,-0.11176 0.222105,-0.41006 -0.0011,-0.17415 -0.02916,-0.52409 -0.06218,-0.77775 -0.0444,-0.33918 -0.03947,-0.48198 0.01838,-0.53816 0.122055,-0.11966 0.899483,-0.41544 0.988238,-0.37595 0.04305,0.0171 0.280876,0.28488 0.527553,0.58982 0.246691,0.30507 0.499071,0.55502 0.560528,0.55446 0.131584,-7.9e-4 0.772821,-0.35755 0.841154,-0.46845 0.026,-0.0359 -0.0681,-0.41634 -0.209236,-0.83209 l -0.25683,-0.75572 0.358708,-0.32258 c 0.197206,-0.17756 0.391461,-0.32302 0.431611,-0.32302 0.04036,0 0.363331,0.19295 0.71819,0.4289 0.354898,0.23554 0.684896,0.4289 0.733221,0.4289 0.113549,0 0.69145,-0.57681 0.69145,-0.6901 0,-0.0461 -0.178017,-0.35758 -0.395497,-0.68874 -0.217486,-0.33157 -0.395631,-0.65061 -0.395631,-0.70971 0,-0.16325 0.527326,-0.81169 0.659746,-0.81169 0.0639,0 0.400388,0.10727 0.747558,0.23868 0.347182,0.13141 0.675264,0.22208 0.729229,0.20108 0.116947,-0.0461 0.498285,-0.69022 0.499407,-0.84464 5.3e-4,-0.0596 -0.251536,-0.32077 -0.55968,-0.57995 -0.642536,-0.54097 -0.662182,-0.60369 -0.375129,-1.19028 0.148402,-0.30328 0.204343,-0.36117 0.342112,-0.35264 0.09058,0.004 0.453905,0.0314 0.807243,0.0579 l 0.642373,0.0507 0.100452,-0.24047 c 0.05504,-0.13227 0.118443,-0.37102 0.140324,-0.53083 l 0.03994,-0.29071 -0.695445,-0.33334 c -0.439504,-0.21048 -0.710372,-0.37957 -0.73584,-0.46019 -0.05451,-0.17051 0.07412,-0.94189 0.166072,-0.99878 0.04036,-0.0224 0.373154,-0.0951 0.739699,-0.1562 0.366558,-0.0607 0.705104,-0.14273 0.752378,-0.18206 0.117033,-0.0974 0.117033,-0.93613 0,-1.03324 -0.04716,-0.036 -0.38585,-0.12159 -0.752378,-0.18207 -0.366562,-0.0605 -0.699422,-0.13055 -0.739699,-0.15619 -0.09263,-0.0575 -0.219999,-0.82861 -0.16526,-1.00097 0.02647,-0.0829 0.28886,-0.24765 0.735566,-0.46112 l 0.694617,-0.33155 -0.03994,-0.28934 c -0.02198,-0.15876 -0.08331,-0.39392 -0.136605,-0.52133 -0.0921,-0.22029 -0.112951,-0.23195 -0.413394,-0.22971 -0.174021,9.6e-4 -0.524011,0.0269 -0.777738,0.0622 -0.540754,0.0706 -0.546031,0.0669 -0.778989,-0.49209 -0.111797,-0.26827 -0.145751,-0.42934 -0.105964,-0.50385 0.03186,-0.0601 0.296351,-0.30777 0.587103,-0.55053 0.290745,-0.24272 0.527949,-0.48982 0.527949,-0.55052 -8.06e-4,-0.15577 -0.381905,-0.80085 -0.499414,-0.84602 -0.05391,-0.0224 -0.382039,0.0694 -0.729222,0.20106 -0.347182,0.13142 -0.68362,0.23868 -0.747558,0.23868 -0.132439,0 -0.65974,-0.64866 -0.65974,-0.81165 0,-0.0587 0.178145,-0.37867 0.395584,-0.70982 0.217487,-0.33151 0.395497,-0.64103 0.395497,-0.68864 0,-0.1141 -0.578557,-0.69011 -0.693241,-0.69011 -0.04945,0 -0.33592,0.16604 -0.63728,0.36791 -0.808078,0.54262 -0.714057,0.52744 -1.168547,0.18568 -0.230675,-0.17373 -0.400971,-0.35218 -0.400971,-0.42037 0,-0.0654 0.107482,-0.40288 0.238799,-0.74998 0.131264,-0.34725 0.221702,-0.67544 0.200988,-0.72946 -0.04541,-0.11838 -0.690925,-0.49875 -0.847911,-0.49933 -0.06142,-2.3e-4 -0.313759,0.24945 -0.560471,0.55444 -0.246689,0.30507 -0.483285,0.57029 -0.525921,0.58914 -0.111989,0.0507 -0.943637,-0.2943 -1.005471,-0.41589 -0.02872,-0.0562 -0.02916,-0.28041 -0.0011,-0.49768 0.02825,-0.21757 0.05333,-0.5527 0.05665,-0.74496 0.0054,-0.33693 -0.0021,-0.35261 -0.218473,-0.44278 -0.123357,-0.0507 -0.341574,-0.11219 -0.484973,-0.13548 -0.234667,-0.0361 -0.273562,-0.0224 -0.390291,0.14616 -0.07129,0.10321 -0.235835,0.41545 -0.365528,0.69243 -0.14729,0.31451 -0.285632,0.5202 -0.367908,0.54604 -0.174363,0.0562 -0.9457,-0.0708 -1.00341,-0.16475 -0.02467,-0.036 -0.09515,-0.3737 -0.15603,-0.7399 -0.06088,-0.367 -0.142845,-0.70515 -0.182098,-0.75244 -0.0459,-0.0559 -0.232516,-0.0856 -0.525872,-0.0856 z m -0.331256,3.68988 c 0.181692,7.9e-4 0.367996,0.009 0.556652,0.0269 0.18868,0.0171 0.379704,0.0463 0.571109,0.0735 0.382801,0.0624 0.766995,0.14937 1.135598,0.25125 0.368579,0.1015 0.721721,0.21756 1.042554,0.3369 0.320848,0.11988 0.609363,0.24273 0.848877,0.35848 0.158978,0.0772 0.315734,0.16154 0.469803,0.25347 0.154064,0.0921 0.305463,0.18974 0.453629,0.29387 0.14823,0.10364 0.293212,0.214 0.434749,0.32841 0.141585,0.11431 0.279665,0.23417 0.413666,0.35755 0.268045,0.24675 0.520078,0.50894 0.752787,0.77815 0.23274,0.26965 0.4461,0.54657 0.636585,0.82291 0.190475,0.27635 0.358216,0.55277 0.499578,0.82055 0.141392,0.26783 0.256472,0.52748 0.341841,0.77086 0.04263,0.12201 0.07786,0.2391 0.105323,0.35216 0.02735,0.11304 0.04721,0.22028 0.05831,0.32212 0.01111,0.1015 0.01389,0.19702 0.0086,0.28578 -0.0054,0.0886 -0.02009,0.17009 -0.04396,0.24406 -0.02693,0.084 -0.06133,0.15876 -0.10216,0.22792 -0.04083,0.0685 -0.08798,0.13098 -0.139918,0.18568 -0.05167,0.0562 -0.108699,0.10449 -0.168722,0.14766 -0.06007,0.0463 -0.123421,0.0812 -0.188551,0.11346 -0.130367,0.0654 -0.26809,0.11048 -0.401149,0.13954 -0.133016,0.0269 -0.261361,0.0463 -0.373111,0.0463 -0.564842,0.0171 -1.057854,0.009 -1.754129,-0.004 -0.696272,-0.0171 -1.595811,-0.0463 -2.973681,-0.0562 v -9e-5 c -0.02072,0.002 -0.108742,0.004 -0.24095,-0.004 -0.06612,-0.004 -0.143144,-0.0171 -0.228253,-0.0314 -0.0852,-0.0171 -0.178273,-0.0463 -0.276523,-0.0816 -0.09825,-0.0314 -0.201565,-0.0829 -0.306941,-0.14273 -0.105431,-0.0592 -0.212997,-0.13227 -0.319636,-0.22208 -0.106691,-0.0887 -0.21242,-0.19381 -0.314433,-0.31764 -0.102011,-0.12393 -0.200175,-0.26558 -0.291507,-0.4298 -0.45307,-0.81202 -0.847531,-1.48696 -1.221206,-2.15152 -0.186799,-0.33287 -0.3684,-0.66187 -0.549626,-1.00481 -0.181201,-0.34321 -0.362073,-0.69929 -0.547099,-1.08462 -0.05913,-0.12286 -0.115429,-0.26695 -0.147502,-0.42037 -0.01624,-0.0767 -0.026,-0.1562 -0.02693,-0.23643 -0.0013,-0.0804 0.0058,-0.16241 0.02558,-0.24363 0.0188,-0.0816 0.04943,-0.16368 0.09344,-0.24316 0.0444,-0.0804 0.102694,-0.15877 0.177867,-0.23554 0.07508,-0.0763 0.167056,-0.15022 0.278318,-0.21939 0.111264,-0.0697 0.241938,-0.13505 0.394644,-0.19552 0.09516,-0.0361 0.194834,-0.0697 0.298325,-0.0966 0.10355,-0.0269 0.21086,-0.0506 0.321478,-0.0658 0.221255,-0.0314 0.455474,-0.0507 0.697797,-0.0461 z m -4.953885,2.55628 c 0.06928,9.6e-4 0.13637,0.009 0.201243,0.0224 0.06486,0.009 0.127461,0.0314 0.187655,0.0579 0.120408,0.0507 0.231125,0.11624 0.331164,0.19381 0.100002,0.0776 0.189042,0.16603 0.266294,0.25526 0.07728,0.0898 0.142695,0.18078 0.194919,0.2647 0.301825,0.48529 0.542492,0.92212 0.879202,1.54107 0.336773,0.61903 0.769495,1.42008 1.455274,2.6335 0.0126,0.0171 0.06156,0.0914 0.117268,0.21347 0.02825,0.0609 0.05741,0.13419 0.08446,0.21849 0.02693,0.0844 0.05167,0.17948 0.07043,0.28353 0.01838,0.10406 0.03094,0.21803 0.03318,0.34097 0.0023,0.12243 -0.0054,0.25391 -0.02693,0.3921 -0.02198,0.13825 -0.05742,0.284 -0.110985,0.43608 -0.05338,0.15171 -0.124982,0.30956 -0.218116,0.4724 -0.461733,0.80698 -0.836509,1.49331 -1.212929,2.15627 -0.18823,0.33153 -0.376745,0.657 -0.576902,0.98893 -0.200132,0.332 -0.411826,0.67017 -0.646096,1.02688 -0.07487,0.11411 -0.168508,0.23599 -0.282849,0.3414 -0.0572,0.0507 -0.119511,0.1015 -0.18729,0.14317 -0.06778,0.0359 -0.141051,0.0763 -0.219999,0.10086 -0.07891,0.0224 -0.16353,0.0358 -0.254094,0.0358 -0.09053,9.6e-4 -0.187119,-0.009 -0.289758,-0.0358 -0.102695,-0.0269 -0.211608,-0.0709 -0.326858,-0.13334 -0.115238,-0.0624 -0.236957,-0.14359 -0.365304,-0.2472 -0.07998,-0.0645 -0.157461,-0.13591 -0.232561,-0.21261 -0.07509,-0.0771 -0.147824,-0.15963 -0.218025,-0.24901 -0.140452,-0.17714 -0.271322,-0.3746 -0.3927161,-0.58756 -0.1214344,-0.21261 -0.2334519,-0.44054 -0.3362343,-0.67783 -0.1027161,-0.23731 -0.1962225,-0.48309 -0.2806968,-0.73244 -0.084425,-0.24942 -0.1598756,-0.50161 -0.2263685,-0.75108 -0.066498,-0.24943 -0.1240841,-0.49599 -0.1729742,-0.73412 -0.048847,-0.23825 -0.089211,-0.46683 -0.1209002,-0.68149 -0.03186,-0.21445 -0.055045,-0.41364 -0.069766,-0.59306 -0.014744,-0.178 -0.021988,-0.35846 -0.021988,-0.5393 2.34e-5,-0.18162 0.00769,-0.3634 0.020727,-0.54599 0.013461,-0.1827 0.033655,-0.3652 0.059958,-0.54711 0.026005,-0.18205 0.057993,-0.36295 0.09528,-0.54264 0.074425,-0.35979 0.1699825,-0.71267 0.2816391,-1.05267 0.1116906,-0.33962 0.2392897,-0.66673 0.3782246,-0.97333 0.1389776,-0.30687 0.2891713,-0.59297 0.4455617,-0.85206 0.1563927,-0.25885 0.3190057,-0.49092 0.4828977,-0.68869 0.08195,-0.0987 0.164235,-0.18889 0.246198,-0.27007 0.0819,-0.0812 0.163658,-0.15214 0.244404,-0.21346 0.08075,-0.0609 0.160602,-0.11218 0.238886,-0.15172 0.07833,-0.0359 0.155047,-0.0686 0.2296,-0.0849 0.08443,-0.0171 0.166349,-0.0269 0.245524,-0.0269 z m 5.295199,5.18992 a 0.9166652,0.88975579 0 0 1 0.916697,0.88975 0.9166652,0.88975579 0 0 1 -0.916697,0.8897 0.9166652,0.88975579 0 0 1 -0.916695,-0.8897 0.9166652,0.88975579 0 0 1 0.916695,-0.88975 z m 4.551779,1.80417 c 0.376834,-9.6e-4 0.748903,5.1e-4 1.132153,0.009 0.383249,0.009 0.777668,0.0222 1.199148,0.0507 0.134725,0.009 0.285451,0.0269 0.432864,0.0767 0.07365,0.0225 0.146521,0.0562 0.216143,0.0929 0.06961,0.036 0.136072,0.0853 0.196713,0.14232 0.06065,0.0564 0.115644,0.12436 0.162526,0.20277 0.0472,0.079 0.0856,0.16924 0.113848,0.27277 0.02825,0.10363 0.0459,0.22163 0.05056,0.35398 0.0045,0.13227 -0.0035,0.28039 -0.02692,0.44506 -0.01475,0.10277 -0.0368,0.20684 -0.06439,0.31133 -0.02825,0.10406 -0.0624,0.21005 -0.102418,0.31586 -0.08004,0.21218 -0.182674,0.42619 -0.302992,0.64006 -0.120323,0.21347 -0.258221,0.4262 -0.408507,0.63554 -0.150238,0.20899 -0.312904,0.41545 -0.482727,0.61434 -0.169855,0.19915 -0.346909,0.39208 -0.52604,0.57589 -0.179086,0.18355 -0.360367,0.358 -0.538444,0.52073 -0.178102,0.16241 -0.352923,0.31271 -0.519576,0.4482 -0.166671,0.13548 -0.325111,0.25618 -0.470092,0.35889 -0.144321,0.10279 -0.294202,0.19916 -0.448567,0.29072 -0.154363,0.0906 -0.313221,0.17671 -0.475425,0.25529 -0.162269,0.0799 -0.327891,0.15385 -0.495987,0.22252 -0.168101,0.0686 -0.338433,0.13141 -0.510197,0.1889 -0.343502,0.11474 -0.69235,0.20897 -1.037997,0.28128 -0.345654,0.073 -0.688228,0.12479 -1.01912,0.15663 -0.330895,0.0314 -0.650116,0.0463 -0.949367,0.0359 -0.299267,-0.004 -0.578423,-0.0314 -0.829162,-0.078 -0.125344,-0.0222 -0.243642,-0.0507 -0.35373,-0.0804 -0.110088,-0.0314 -0.212014,-0.0669 -0.304652,-0.10769 -0.09269,-0.0359 -0.176074,-0.0849 -0.249203,-0.13377 -0.07312,-0.0502 -0.136114,-0.1015 -0.187612,-0.15876 -0.05831,-0.0645 -0.106156,-0.13227 -0.145046,-0.20279 -0.03904,-0.0705 -0.06863,-0.14231 -0.09053,-0.2149 -0.02198,-0.073 -0.03634,-0.14765 -0.04396,-0.22208 -0.0081,-0.0743 -0.0086,-0.14892 -0.0045,-0.22252 0.0086,-0.14722 0.03814,-0.29116 0.07833,-0.42307 0.04036,-0.13183 0.09143,-0.25211 0.143251,-0.35261 0.261588,-0.50894 0.512944,-0.93936 0.871057,-1.54597 0.358081,-0.60652 0.822983,-1.3888 1.511937,-2.60039 0.0086,-0.0171 0.0466,-0.1 0.123101,-0.2109 0.03814,-0.0562 0.08573,-0.11795 0.143594,-0.18355 0.05793,-0.0664 0.126156,-0.13548 0.205773,-0.20406 0.07966,-0.0692 0.17071,-0.13719 0.273879,-0.20043 0.103271,-0.0636 0.218789,-0.12287 0.347495,-0.17266 0.128742,-0.0507 0.270648,-0.0923 0.42681,-0.12158 0.156114,-0.0269 0.326409,-0.0463 0.511829,-0.0463 0.919238,0 1.691921,-0.0171 2.445575,-0.0171 z"
         id="path1007"
         inkscape:connector-curvature="0" />
    </g>
  </g>
</svg>
