<?xml version="1.0" encoding="UTF-8" standalone="no"?>
<!-- Created with Inkscape (http://www.inkscape.org/) -->

<svg
   xmlns:osb="http://www.openswatchbook.org/uri/2009/osb"
   xmlns:dc="http://purl.org/dc/elements/1.1/"
   xmlns:cc="http://creativecommons.org/ns#"
   xmlns:rdf="http://www.w3.org/1999/02/22-rdf-syntax-ns#"
   xmlns:svg="http://www.w3.org/2000/svg"
   xmlns="http://www.w3.org/2000/svg"
   xmlns:xlink="http://www.w3.org/1999/xlink"
   xmlns:sodipodi="http://sodipodi.sourceforge.net/DTD/sodipodi-0.dtd"
   xmlns:inkscape="http://www.inkscape.org/namespaces/inkscape"
   width="128"
   height="128"
   viewBox="0 0 33.866666 33.866668"
   version="1.1"
   id="svg8"
   inkscape:version="0.92.2 5c3e80d, 2017-08-06"
   sodipodi:docname="drawing.svg">
  <defs
     id="defs2">
    <linearGradient
       inkscape:collect="always"
       id="linearGradient1324">
      <stop
         style="stop-color:#f8f8f8;stop-opacity:1"
         offset="0"
         id="stop1320" />
      <stop
         style="stop-color:#e5e5e5;stop-opacity:1"
         offset="1"
         id="stop1322" />
    </linearGradient>
    <linearGradient
       inkscape:collect="always"
       id="linearGradient1318">
      <stop
         style="stop-color:#ffffff;stop-opacity:1"
         offset="0"
         id="stop1314" />
      <stop
         style="stop-color:#e5e5e5;stop-opacity:1"
         offset="1"
         id="stop1316" />
    </linearGradient>
    <linearGradient
       id="linearGradient1226"
       inkscape:collect="always">
      <stop
         id="stop1222"
         offset="0"
         style="stop-color:#f2f2f2;stop-opacity:1" />
      <stop
         id="stop1224"
         offset="1"
         style="stop-color:#e5e5e5;stop-opacity:1" />
    </linearGradient>
    <linearGradient
       id="linearGradient959"
       inkscape:collect="always">
      <stop
         id="stop955"
         offset="0"
         style="stop-color:#0070fc;stop-opacity:1" />
      <stop
         id="stop957"
         offset="1"
         style="stop-color:#06b2fa;stop-opacity:1" />
    </linearGradient>
    <linearGradient
       osb:paint="solid"
       id="linearGradient6987">
      <stop
         id="stop6985"
         offset="0"
         style="stop-color:#77d2fb;stop-opacity:1;" />
    </linearGradient>
    <linearGradient
       gradientTransform="matrix(0.22774438,0,0,0.22774438,-61.655782,122.98895)"
       gradientUnits="userSpaceOnUse"
       y2="272.58057"
       x2="-71.217484"
       y1="384.89142"
       x1="-71.483482"
       id="linearGradient961"
       xlink:href="#linearGradient959"
       inkscape:collect="always" />
    <linearGradient
       gradientUnits="userSpaceOnUse"
       y2="274.54361"
       x2="-386.09314"
       y1="192.02165"
       x1="-386.5451"
       id="linearGradient1228"
       xlink:href="#linearGradient1318"
       inkscape:collect="always" />
    <linearGradient
       gradientUnits="userSpaceOnUse"
       y2="398.8114"
       x2="-247.36462"
       y1="270.3222"
       x1="-249.29794"
       id="linearGradient1236"
       xlink:href="#linearGradient1324"
       inkscape:collect="always"
       gradientTransform="matrix(0.22774438,0,0,0.22774438,-21.345407,121.57051)" />
    <linearGradient
       y2="276.14972"
       x2="-386.62851"
       y1="192.02165"
       x1="-386.5451"
       gradientUnits="userSpaceOnUse"
       id="linearGradient1310"
       xlink:href="#linearGradient1226"
       inkscape:collect="always" />
    <linearGradient
       inkscape:collect="always"
       xlink:href="#linearGradient1226"
       id="linearGradient1317"
       gradientUnits="userSpaceOnUse"
       x1="-386.5451"
       y1="192.02165"
       x2="-386.62851"
       y2="276.14972" />
  </defs>
  <sodipodi:namedview
     id="base"
     pagecolor="#ffffff"
     bordercolor="#666666"
     borderopacity="1.0"
     inkscape:pageopacity="0.0"
     inkscape:pageshadow="2"
     inkscape:zoom="0.98994949"
     inkscape:cx="-101.3815"
     inkscape:cy="-155.61158"
     inkscape:document-units="mm"
     inkscape:current-layer="layer1"
     showgrid="false"
     units="px"
     inkscape:window-width="1600"
     inkscape:window-height="814"
     inkscape:window-x="0"
     inkscape:window-y="0"
     inkscape:window-maximized="1" />
  <metadata
     id="metadata5">
    <rdf:RDF>
      <cc:Work
         rdf:about="">
        <dc:format>image/svg+xml</dc:format>
        <dc:type
           rdf:resource="http://purl.org/dc/dcmitype/StillImage" />
        <dc:title></dc:title>
      </cc:Work>
    </rdf:RDF>
  </metadata>
  <g
     inkscape:label="Layer 1"
     inkscape:groupmode="layer"
     id="layer1"
     transform="translate(0,-263.13332)">
    <g
       id="g1437"
       transform="translate(94.773833,81.785426)">
      <circle
         style="opacity:0.25;fill:#000000;fill-opacity:1;fill-rule:nonzero;stroke:none;stroke-width:0.2208066;stroke-linecap:round;stroke-linejoin:round;stroke-miterlimit:4;stroke-dasharray:none;stroke-dashoffset:0;stroke-opacity:1"
         id="circle1338"
         cx="-77.8405"
         cy="198.55238"
         r="16.397596" />
      <circle
         r="16.397596"
         cy="198.01007"
         cx="-77.8405"
         id="path941"
         style="opacity:1;fill:url(#linearGradient961);fill-opacity:1;fill-rule:nonzero;stroke:none;stroke-width:0.2208066;stroke-linecap:round;stroke-linejoin:round;stroke-miterlimit:4;stroke-dasharray:none;stroke-dashoffset:0;stroke-opacity:1" />
      <circle
         r="14.255995"
         cy="198.41681"
         cx="-77.8405"
         id="circle1336"
         style="opacity:0.25;fill:none;fill-opacity:1;fill-rule:nonzero;stroke:#000000;stroke-width:1.29999995;stroke-linecap:round;stroke-linejoin:round;stroke-miterlimit:4;stroke-dasharray:none;stroke-dashoffset:0;stroke-opacity:1" />
      <circle
         style="opacity:1;fill:none;fill-opacity:1;fill-rule:nonzero;stroke:url(#linearGradient1236);stroke-width:1.29999995;stroke-linecap:round;stroke-linejoin:round;stroke-miterlimit:4;stroke-dasharray:none;stroke-dashoffset:0;stroke-opacity:1"
         id="circle951"
         cx="-77.8405"
         cy="198.01007"
         r="14.255995" />
      <g
         id="g1334"
         transform="matrix(0.22774438,0,0,0.22774438,10.19298,145.15757)"
         style="opacity:0.25;fill:#000000;fill-opacity:1;stroke-width:3.90301132">
        <path
           inkscape:connector-curvature="0"
           d="m -386.54512,192.02165 c -5.22414,0 -9.46402,4.20074 -9.46402,9.37669 0,5.17595 4.23988,9.37669 9.46402,9.37669 5.22415,0 9.46402,-4.20074 9.46402,-9.37669 0,-5.17595 -4.23987,-9.37669 -9.46402,-9.37669 z"
           style="display:inline;fill:#000000;fill-opacity:1;stroke:none;stroke-width:19.97544098;enable-background:new"
           id="path1330" />
        <path
           sodipodi:nodetypes="cccsccsccccccccccccccccccccccccccccccccccccccscccccsccsccccccscccccccccccccccccccccccccccccccccccccscccccccccccccccccccccccccccccccccccccccccccccccccccccccccccccccccccccccc"
           inkscape:connector-curvature="0"
           id="path1332"
           d="m -418.0611,213.03714 c -3.94267,0.13534 -3.91804,5.64702 -1.67949,6.49831 11.68139,4.44223 23.89705,2.14057 23.86315,9.2723 0.67865,4.71905 0.40968,12.76567 -1.08521,21.1119 -1.29894,7.25217 -3.64411,14.77481 -5.48804,21.05866 -0.14154,5.5263 5.11074,5.15419 6.26732,3.69382 2.01261,-2.54127 4.41682,-9.61943 6.1867,-16.97466 1.14584,-4.76186 3.22946,-8.1561 3.30626,-7.92562 0,0 0.004,0.006 0.004,0.007 2.7e-4,-0.003 7.9e-4,-0.003 0.001,-0.004 -5e-5,-2.4e-4 -0.002,0 -0.002,0 -2.5e-4,-0.0172 0.004,-0.0238 0.006,-0.0341 -6e-5,0 -1.7e-4,0.003 0,0.003 5.3e-4,0.003 -1.4e-4,0.005 0,0.007 1.2e-4,-0.003 5.3e-4,-0.005 5.3e-4,-0.008 4e-5,-0.003 -5e-5,-0.004 0,-0.005 -4e-5,0 -5.3e-4,0 -5.3e-4,0 2.7e-4,0 -10e-4,-0.003 0,-0.003 h 5.3e-4 5.3e-4 c 10e-4,-0.005 0.003,-0.007 0.005,-0.0103 v 0 c 0.007,-0.0167 0.0162,-0.0267 0.0305,-0.0217 -0.003,0.009 -0.006,0.0175 -0.007,0.0254 0.004,-0.003 0.009,5e-5 0.0134,-0.003 0.002,0 0.004,5e-5 0.006,-0.003 2.2e-4,-0.005 0.002,-0.01 0.002,-0.0145 -0.004,-0.003 -0.009,-0.007 -0.0129,-0.008 10e-4,-0.005 0.002,-0.009 0.005,-0.0151 0.004,-0.009 0.0108,-0.0164 0.0171,-0.0243 0.0204,0 0.0389,0.003 0.0553,0.009 10e-4,1.9e-4 0.003,-2.4e-4 0.004,0 0.06,0.0116 0.0821,0.0397 0.093,0.0723 0.001,0.003 0.002,0.003 0.003,0.005 -7.9e-4,0 -10e-4,-1e-4 -0.002,-0.003 1.5e-4,0.003 -1.4e-4,0.003 0,0.003 0.006,0.008 0.0131,0.0159 0.0171,0.0249 0.002,0.006 0.003,0.01 0.004,0.014 -0.004,0.003 -0.008,0.005 -0.0124,0.008 2e-4,0.005 0.002,0.01 0.002,0.0151 0.002,0.003 0.004,0.003 0.006,0.003 0.004,0.003 0.01,7e-5 0.0134,0.003 -0.002,-0.008 -0.004,-0.0159 -0.007,-0.0243 0.0144,-0.005 0.0238,0.005 0.0305,0.0222 0.002,0.004 0.004,0.006 0.005,0.0103 h 5.3e-4 c 10e-4,0 -2.7e-4,0.003 0,0.003 0.002,0.0111 0.006,0.0177 0.006,0.0356 0,0 -0.002,-2.4e-4 -0.002,0 2.6e-4,0 7.9e-4,0 10e-4,0.004 10e-5,0 0.004,-0.007 0.004,-0.007 0.0768,-0.23048 2.16041,3.16375 3.30626,7.92562 1.76987,7.35523 4.17409,14.43339 6.1867,16.97466 1.15658,1.46037 6.40885,1.83248 6.26731,-3.69382 -1.84392,-6.28386 -4.18909,-13.80649 -5.48803,-21.05867 -1.49489,-8.34623 -1.76386,-16.39284 -1.08521,-21.11189 -0.0339,-7.13172 12.18176,-4.83007 23.86314,-9.2723 2.23856,-0.85128 2.26319,-6.36297 -1.67948,-6.49831 v 0.001 c -0.26284,-0.009 -0.54318,0.006 -0.84181,0.0475 -11.00762,1.55816 -20.03009,1.87809 -29.67622,1.98179 -11.43469,0.0543 -19.90631,-0.42526 -31.67094,-2.06964 -0.29863,-0.0417 -0.57896,-0.0566 -0.84181,-0.0475 z m 31.65491,36.82462 c -1.5e-4,0 -7.9e-4,-0.003 -0.001,-0.003 1.1e-4,0 5.3e-4,0.003 5.3e-4,0.003 z m -5.3e-4,0 h -5.3e-4 c 2.7e-4,0.003 5.3e-4,0.003 10e-4,0.005 h 5.3e-4 c -5.3e-4,-0.003 -7.9e-4,-0.003 -0.001,-0.005 z m -5.3e-4,0 v -0.003 c -6e-5,0 6e-5,0 0,0 -2.6e-4,-0.004 -0.002,-0.007 -0.003,-0.0114 3e-5,0.003 -2e-5,0.003 0,0.003 1.2e-4,0.003 -1.1e-4,0.003 0,0.003 0,0.003 -5.3e-4,0.006 -5.3e-4,0.009 z m -0.009,-0.0491 c 1.4e-4,0.003 10e-4,0.003 10e-4,0.005 5.3e-4,0 8e-4,0 0.002,0.004 -10e-4,-0.006 -0.002,-0.0116 -0.003,-0.009 z m 0.003,0.009 c -2.6e-4,-6e-5 -7.9e-4,8e-5 -10e-4,0 8e-4,0.003 0.002,0.007 0.003,0.0108 2.7e-4,-0.003 2.7e-4,-0.003 5.3e-4,-0.006 1e-4,0 -1.1e-4,0 0,-0.004 -5.3e-4,-8e-5 -10e-4,8e-5 -0.002,0 -1.5e-4,0 -2.6e-4,0 -5.3e-4,0 z m -10e-4,0 v 0 0 h -0.0104 c 0.005,0.003 0.009,0.007 0.0119,0.0135 v 0 c -7.9e-4,-0.004 -10e-4,-0.008 -0.002,-0.0114 z m 0.002,0.0124 c 2.7e-4,0 2.7e-4,0.003 5.3e-4,0.003 5e-5,0 -6e-5,-0.003 0,-0.003 z m 5.3e-4,0.003 c -6e-5,0 6e-5,0.003 0,0.003 10e-4,0 2.4e-4,0.003 10e-4,0.005 -5.3e-4,-0.003 -5.3e-4,-0.005 -10e-4,-0.008 z m 0,0.003 c -0.005,-0.008 -0.0136,-0.014 -0.0233,-0.0201 -7.9e-4,-1e-4 -10e-4,8e-5 -0.002,0 -1.3e-4,0 -5.3e-4,-0.003 -5.3e-4,-0.003 -0.004,-0.003 -0.01,-0.003 -0.0145,-0.005 -0.002,0 -0.004,2.3e-4 -0.006,0 0,0.003 0.001,0.003 0.001,0.005 0.007,0.003 0.0132,0.003 0.0196,0.003 0.001,0.007 0.002,0.0148 0.003,0.0217 0.007,0 0.0148,-2.7e-4 0.0222,0 0,0 5.3e-4,-0.003 5.3e-4,-0.003 z m -0.26303,-0.11575 c -1.8e-4,-0.003 -0.002,0.005 -0.003,0.0103 -5.3e-4,8e-5 -10e-4,-7e-5 -0.002,0 1.1e-4,0.003 -10e-5,0.003 0,0.004 1.4e-4,0.003 2.5e-4,0.004 5.3e-4,0.006 10e-4,-0.003 0.002,-0.007 0.003,-0.0109 -2.7e-4,5e-5 -8e-4,0 -10e-4,0 7.9e-4,-0.003 10e-4,-0.003 0.002,-0.004 9e-5,-0.003 7.9e-4,-0.004 0.001,-0.006 z m -0.002,0.01 c -2.7e-4,0.004 -8e-4,0.007 -0.002,0.0114 v 0.003 c 0.003,-0.006 0.007,-0.0103 0.0119,-0.014 h -0.0103 v 0 z m -0.002,0.013 h -5.3e-4 c 5e-5,0 -6e-5,0.003 0,0.003 1.4e-4,0 2.6e-4,-0.003 5.3e-4,-0.003 z m -0.007,0.0269 h 5.3e-4 c 8e-5,0 5.3e-4,0 5.3e-4,-0.003 7.9e-4,-0.006 10e-4,-0.0127 0.003,-0.0175 -0.002,0.007 -0.003,0.013 -0.004,0.0196 z m 10e-4,-0.003 v 0.003 h 0.004 c 10e-5,-0.003 -5.3e-4,-0.006 -5.3e-4,-0.009 1.1e-4,0 -1.2e-4,8e-5 0,-0.003 2e-5,0 -3e-5,0 0,-0.003 -0.002,0.004 -0.003,0.008 -0.003,0.0124 z m 0,0.003 h -5.3e-4 c -1.8e-4,0.003 -5.3e-4,0.003 -0.001,0.005 h 5.3e-4 c 5.3e-4,-0.003 7.9e-4,-0.003 10e-4,-0.005 z m 0.0455,-0.0481 c -0.005,0.003 -0.0104,0.003 -0.0145,0.005 -9e-5,0 -5.3e-4,0.003 -5.3e-4,0.003 -8e-4,7e-5 -10e-4,-1.1e-4 -0.002,0 -0.01,0.006 -0.018,0.0124 -0.0233,0.0201 7e-5,0 5.3e-4,0.003 5.3e-4,0.003 0.007,-2.7e-4 0.0148,0 0.0222,0 2.6e-4,-0.007 0.001,-0.0153 0.003,-0.0222 v 0 c 0.007,0 0.0131,8e-5 0.0196,-0.003 8e-5,-0.003 0.001,-0.003 0.001,-0.005 -0.002,2.3e-4 -0.004,0 -0.006,0 z m 0.22789,0.0987 c 5e-5,0 -5e-5,0.003 0,0.005 0,0.003 2.7e-4,0.005 5.3e-4,0.008 1.5e-4,-0.003 -5.3e-4,-0.004 0,-0.007 1.5e-4,0 -1e-5,-0.003 0,-0.003 0,-0.003 -5.3e-4,-0.003 -5.3e-4,-0.003 z"
           style="fill:#000000;fill-opacity:1;stroke:none;stroke-width:1.03267169px;stroke-linecap:butt;stroke-linejoin:miter;stroke-opacity:1" />
      </g>
      <g
         style="fill:url(#linearGradient1228);fill-opacity:1;stroke-width:3.90301132"
         transform="matrix(0.22774438,0,0,0.22774438,10.19298,144.75083)"
         id="g1220">
        <path
           id="path6668"
           style="display:inline;fill:url(#linearGradient1317);fill-opacity:1;stroke:none;stroke-width:19.97544098;enable-background:new"
           d="m -386.54512,192.02165 c -5.22414,0 -9.46402,4.20074 -9.46402,9.37669 0,5.17595 4.23988,9.37669 9.46402,9.37669 5.22415,0 9.46402,-4.20074 9.46402,-9.37669 0,-5.17595 -4.23987,-9.37669 -9.46402,-9.37669 z"
           inkscape:connector-curvature="0" />
        <path
           style="fill:url(#linearGradient1310);fill-opacity:1;stroke:none;stroke-width:1.03267169px;stroke-linecap:butt;stroke-linejoin:miter;stroke-opacity:1"
           d="m -418.0611,213.03714 c -3.94267,0.13534 -3.91804,5.64702 -1.67949,6.49831 11.68139,4.44223 23.89705,2.14057 23.86315,9.2723 0.67865,4.71905 0.40968,12.76567 -1.08521,21.1119 -1.29894,7.25217 -3.64411,14.77481 -5.48804,21.05866 -0.14154,5.5263 5.11074,5.15419 6.26732,3.69382 2.01261,-2.54127 4.41682,-9.61943 6.1867,-16.97466 1.14584,-4.76186 3.22946,-8.1561 3.30626,-7.92562 0,0 0.004,0.006 0.004,0.007 2.7e-4,-0.003 7.9e-4,-0.003 0.001,-0.004 -5e-5,-2.4e-4 -0.002,0 -0.002,0 -2.5e-4,-0.0172 0.004,-0.0238 0.006,-0.0341 -6e-5,0 -1.7e-4,0.003 0,0.003 5.3e-4,0.003 -1.4e-4,0.005 0,0.007 1.2e-4,-0.003 5.3e-4,-0.005 5.3e-4,-0.008 4e-5,-0.003 -5e-5,-0.004 0,-0.005 -4e-5,0 -5.3e-4,0 -5.3e-4,0 2.7e-4,0 -10e-4,-0.003 0,-0.003 h 5.3e-4 5.3e-4 c 10e-4,-0.005 0.003,-0.007 0.005,-0.0103 v 0 c 0.007,-0.0167 0.0162,-0.0267 0.0305,-0.0217 -0.003,0.009 -0.006,0.0175 -0.007,0.0254 0.004,-0.003 0.009,5e-5 0.0134,-0.003 0.002,0 0.004,5e-5 0.006,-0.003 2.2e-4,-0.005 0.002,-0.01 0.002,-0.0145 -0.004,-0.003 -0.009,-0.007 -0.0129,-0.008 10e-4,-0.005 0.002,-0.009 0.005,-0.0151 0.004,-0.009 0.0108,-0.0164 0.0171,-0.0243 0.0204,0 0.0389,0.003 0.0553,0.009 10e-4,1.9e-4 0.003,-2.4e-4 0.004,0 0.06,0.0116 0.0821,0.0397 0.093,0.0723 0.001,0.003 0.002,0.003 0.003,0.005 -7.9e-4,0 -10e-4,-1e-4 -0.002,-0.003 1.5e-4,0.003 -1.4e-4,0.003 0,0.003 0.006,0.008 0.0131,0.0159 0.0171,0.0249 0.002,0.006 0.003,0.01 0.004,0.014 -0.004,0.003 -0.008,0.005 -0.0124,0.008 2e-4,0.005 0.002,0.01 0.002,0.0151 0.002,0.003 0.004,0.003 0.006,0.003 0.004,0.003 0.01,7e-5 0.0134,0.003 -0.002,-0.008 -0.004,-0.0159 -0.007,-0.0243 0.0144,-0.005 0.0238,0.005 0.0305,0.0222 0.002,0.004 0.004,0.006 0.005,0.0103 h 5.3e-4 c 10e-4,0 -2.7e-4,0.003 0,0.003 0.002,0.0111 0.006,0.0177 0.006,0.0356 0,0 -0.002,-2.4e-4 -0.002,0 2.6e-4,0 7.9e-4,0 10e-4,0.004 10e-5,0 0.004,-0.007 0.004,-0.007 0.0768,-0.23048 2.16041,3.16375 3.30626,7.92562 1.76987,7.35523 4.17409,14.43339 6.1867,16.97466 1.15658,1.46037 6.40885,1.83248 6.26731,-3.69382 -1.84392,-6.28386 -4.18909,-13.80649 -5.48803,-21.05867 -1.49489,-8.34623 -1.76386,-16.39284 -1.08521,-21.11189 -0.0339,-7.13172 12.18176,-4.83007 23.86314,-9.2723 2.23856,-0.85128 2.26319,-6.36297 -1.67948,-6.49831 v 0.001 c -0.26284,-0.009 -0.54318,0.006 -0.84181,0.0475 -11.00762,1.55816 -20.03009,1.87809 -29.67622,1.98179 -11.43469,0.0543 -19.90631,-0.42526 -31.67094,-2.06964 -0.29863,-0.0417 -0.57896,-0.0566 -0.84181,-0.0475 z m 31.65491,36.82462 c -1.5e-4,0 -7.9e-4,-0.003 -0.001,-0.003 1.1e-4,0 5.3e-4,0.003 5.3e-4,0.003 z m -5.3e-4,0 h -5.3e-4 c 2.7e-4,0.003 5.3e-4,0.003 10e-4,0.005 h 5.3e-4 c -5.3e-4,-0.003 -7.9e-4,-0.003 -0.001,-0.005 z m -5.3e-4,0 v -0.003 c -6e-5,0 6e-5,0 0,0 -2.6e-4,-0.004 -0.002,-0.007 -0.003,-0.0114 3e-5,0.003 -2e-5,0.003 0,0.003 1.2e-4,0.003 -1.1e-4,0.003 0,0.003 0,0.003 -5.3e-4,0.006 -5.3e-4,0.009 z m -0.009,-0.0491 c 1.4e-4,0.003 10e-4,0.003 10e-4,0.005 5.3e-4,0 8e-4,0 0.002,0.004 -10e-4,-0.006 -0.002,-0.0116 -0.003,-0.009 z m 0.003,0.009 c -2.6e-4,-6e-5 -7.9e-4,8e-5 -10e-4,0 8e-4,0.003 0.002,0.007 0.003,0.0108 2.7e-4,-0.003 2.7e-4,-0.003 5.3e-4,-0.006 1e-4,0 -1.1e-4,0 0,-0.004 -5.3e-4,-8e-5 -10e-4,8e-5 -0.002,0 -1.5e-4,0 -2.6e-4,0 -5.3e-4,0 z m -10e-4,0 v 0 0 h -0.0104 c 0.005,0.003 0.009,0.007 0.0119,0.0135 v 0 c -7.9e-4,-0.004 -10e-4,-0.008 -0.002,-0.0114 z m 0.002,0.0124 c 2.7e-4,0 2.7e-4,0.003 5.3e-4,0.003 5e-5,0 -6e-5,-0.003 0,-0.003 z m 5.3e-4,0.003 c -6e-5,0 6e-5,0.003 0,0.003 10e-4,0 2.4e-4,0.003 10e-4,0.005 -5.3e-4,-0.003 -5.3e-4,-0.005 -10e-4,-0.008 z m 0,0.003 c -0.005,-0.008 -0.0136,-0.014 -0.0233,-0.0201 -7.9e-4,-1e-4 -10e-4,8e-5 -0.002,0 -1.3e-4,0 -5.3e-4,-0.003 -5.3e-4,-0.003 -0.004,-0.003 -0.01,-0.003 -0.0145,-0.005 -0.002,0 -0.004,2.3e-4 -0.006,0 0,0.003 0.001,0.003 0.001,0.005 0.007,0.003 0.0132,0.003 0.0196,0.003 0.001,0.007 0.002,0.0148 0.003,0.0217 0.007,0 0.0148,-2.7e-4 0.0222,0 0,0 5.3e-4,-0.003 5.3e-4,-0.003 z m -0.26303,-0.11575 c -1.8e-4,-0.003 -0.002,0.005 -0.003,0.0103 -5.3e-4,8e-5 -10e-4,-7e-5 -0.002,0 1.1e-4,0.003 -10e-5,0.003 0,0.004 1.4e-4,0.003 2.5e-4,0.004 5.3e-4,0.006 10e-4,-0.003 0.002,-0.007 0.003,-0.0109 -2.7e-4,5e-5 -8e-4,0 -10e-4,0 7.9e-4,-0.003 10e-4,-0.003 0.002,-0.004 9e-5,-0.003 7.9e-4,-0.004 0.001,-0.006 z m -0.002,0.01 c -2.7e-4,0.004 -8e-4,0.007 -0.002,0.0114 v 0.003 c 0.003,-0.006 0.007,-0.0103 0.0119,-0.014 h -0.0103 v 0 z m -0.002,0.013 h -5.3e-4 c 5e-5,0 -6e-5,0.003 0,0.003 1.4e-4,0 2.6e-4,-0.003 5.3e-4,-0.003 z m -0.007,0.0269 h 5.3e-4 c 8e-5,0 5.3e-4,0 5.3e-4,-0.003 7.9e-4,-0.006 10e-4,-0.0127 0.003,-0.0175 -0.002,0.007 -0.003,0.013 -0.004,0.0196 z m 10e-4,-0.003 v 0.003 h 0.004 c 10e-5,-0.003 -5.3e-4,-0.006 -5.3e-4,-0.009 1.1e-4,0 -1.2e-4,8e-5 0,-0.003 2e-5,0 -3e-5,0 0,-0.003 -0.002,0.004 -0.003,0.008 -0.003,0.0124 z m 0,0.003 h -5.3e-4 c -1.8e-4,0.003 -5.3e-4,0.003 -0.001,0.005 h 5.3e-4 c 5.3e-4,-0.003 7.9e-4,-0.003 10e-4,-0.005 z m 0.0455,-0.0481 c -0.005,0.003 -0.0104,0.003 -0.0145,0.005 -9e-5,0 -5.3e-4,0.003 -5.3e-4,0.003 -8e-4,7e-5 -10e-4,-1.1e-4 -0.002,0 -0.01,0.006 -0.018,0.0124 -0.0233,0.0201 7e-5,0 5.3e-4,0.003 5.3e-4,0.003 0.007,-2.7e-4 0.0148,0 0.0222,0 2.6e-4,-0.007 0.001,-0.0153 0.003,-0.0222 v 0 c 0.007,0 0.0131,8e-5 0.0196,-0.003 8e-5,-0.003 0.001,-0.003 0.001,-0.005 -0.002,2.3e-4 -0.004,0 -0.006,0 z m 0.22789,0.0987 c 5e-5,0 -5e-5,0.003 0,0.005 0,0.003 2.7e-4,0.005 5.3e-4,0.008 1.5e-4,-0.003 -5.3e-4,-0.004 0,-0.007 1.5e-4,0 -1e-5,-0.003 0,-0.003 0,-0.003 -5.3e-4,-0.003 -5.3e-4,-0.003 z"
           id="path1037"
           inkscape:connector-curvature="0"
           sodipodi:nodetypes="cccsccsccccccccccccccccccccccccccccccccccccccscccccsccsccccccscccccccccccccccccccccccccccccccccccccscccccccccccccccccccccccccccccccccccccccccccccccccccccccccccccccccccccccc" />
      </g>
    </g>
  </g>
</svg>
