<?xml version="1.0" encoding="UTF-8" standalone="no"?>
<!-- Created with Inkscape (http://www.inkscape.org/) -->

<svg
   xmlns:osb="http://www.openswatchbook.org/uri/2009/osb"
   xmlns:dc="http://purl.org/dc/elements/1.1/"
   xmlns:cc="http://creativecommons.org/ns#"
   xmlns:rdf="http://www.w3.org/1999/02/22-rdf-syntax-ns#"
   xmlns:svg="http://www.w3.org/2000/svg"
   xmlns="http://www.w3.org/2000/svg"
   xmlns:xlink="http://www.w3.org/1999/xlink"
   xmlns:sodipodi="http://sodipodi.sourceforge.net/DTD/sodipodi-0.dtd"
   xmlns:inkscape="http://www.inkscape.org/namespaces/inkscape"
   width="128"
   height="128"
   viewBox="0 0 33.866665 33.866665"
   version="1.1"
   id="svg4942"
   inkscape:version="0.92.2 5c3e80d, 2017-08-06"
   sodipodi:docname="video-television.svg">
  <defs
     id="defs4936">
    <linearGradient
       inkscape:collect="always"
       id="linearGradient5537">
      <stop
         style="stop-color:#83d0fd;stop-opacity:1"
         offset="0"
         id="stop5533" />
      <stop
         style="stop-color:#182f73;stop-opacity:1"
         offset="1"
         id="stop5535" />
    </linearGradient>
    <linearGradient
       id="linearGradient6987"
       osb:paint="solid">
      <stop
         style="stop-color:#77d2fb;stop-opacity:1;"
         offset="0"
         id="stop6985" />
    </linearGradient>
    <linearGradient
       inkscape:collect="always"
       xlink:href="#linearGradient5537"
       id="linearGradient5539"
       x1="113.0743"
       y1="201.25548"
       x2="17.73333"
       y2="277.0062"
       gradientUnits="userSpaceOnUse"
       gradientTransform="matrix(0.33337502,0,0,0.33337502,-5.6472681,201.69301)" />
  </defs>
  <sodipodi:namedview
     id="base"
     pagecolor="#ffffff"
     bordercolor="#666666"
     borderopacity="1.0"
     inkscape:pageopacity="0.0"
     inkscape:pageshadow="2"
     inkscape:zoom="3.132871"
     inkscape:cx="41.956409"
     inkscape:cy="45.378695"
     inkscape:document-units="mm"
     inkscape:current-layer="layer1"
     showgrid="false"
     units="px"
     width="128px"
     inkscape:window-width="1600"
     inkscape:window-height="814"
     inkscape:window-x="0"
     inkscape:window-y="0"
     inkscape:window-maximized="1" />
  <metadata
     id="metadata4939">
    <rdf:RDF>
      <cc:Work
         rdf:about="">
        <dc:format>image/svg+xml</dc:format>
        <dc:type
           rdf:resource="http://purl.org/dc/dcmitype/StillImage" />
        <dc:title></dc:title>
      </cc:Work>
    </rdf:RDF>
  </metadata>
  <g
     inkscape:label="Layer 1"
     inkscape:groupmode="layer"
     id="layer1"
     transform="translate(0,-263.13332)">
    <g
       id="g868"
       transform="translate(-4.5100848e-7,-0.26459668)">
      <rect
         style="opacity:0.25;fill:#000000;fill-opacity:1;stroke:none;stroke-width:0.33737546"
         id="rect859"
         width="33.337502"
         height="21.669376"
         x="0.26458302"
         y="267.81927"
         ry="1.1311557" />
      <rect
         style="opacity:0.25;fill:#000000;fill-opacity:1;stroke:none;stroke-width:0.32248142"
         id="rect857"
         width="12.736685"
         height="1.1765991"
         x="10.564991"
         y="292.1958"
         ry="0.47064295" />
      <path
         sodipodi:nodetypes="ccccc"
         inkscape:connector-curvature="0"
         id="path5782"
         d="m 13.182924,288.87157 7.559649,1.2e-4 0.500055,2.82363 -8.618589,9e-5 z"
         style="fill:#b3b3b3;stroke:#808080;stroke-width:0.1;stroke-linecap:butt;stroke-linejoin:miter;stroke-miterlimit:4;stroke-dasharray:none;stroke-opacity:1" />
      <rect
         ry="0.47064295"
         y="291.66663"
         x="10.564991"
         height="1.1765991"
         width="12.736685"
         id="rect5784"
         style="fill:#e6e6e6;fill-opacity:1;stroke:#999999;stroke-width:0.1;stroke-miterlimit:4;stroke-dasharray:none" />
      <rect
         ry="1.1311557"
         y="267.2901"
         x="0.26458302"
         height="21.669376"
         width="33.337502"
         id="rect897"
         style="fill:#000000;fill-opacity:1;stroke:none;stroke-width:0.33737546" />
      <rect
         style="fill:url(#linearGradient5539);fill-opacity:1;stroke:none;stroke-width:0.298262"
         id="rect899"
         width="30.231096"
         height="18.676453"
         x="1.8177854"
         y="268.78656"
         ry="0" />
      <path
         style="fill:#ffffff;stroke-width:0.00823309"
         d="m 16.756689,288.70703 c -0.0047,-7.8e-4 -0.0072,-0.002 -0.0054,-0.002 0.0018,-1.1e-4 -6.27e-4,-0.002 -0.0052,-0.003 -0.01792,-0.004 -0.04526,-0.021 -0.06778,-0.0417 -0.02204,-0.0202 -0.06675,-0.0784 -0.09175,-0.11944 -0.04298,-0.0705 -0.07612,-0.16002 -0.09014,-0.24333 -0.0094,-0.0558 -0.01,-0.12293 -0.0015,-0.17098 0.02574,-0.14541 0.134201,-0.24706 0.263864,-0.24729 0.02663,-4e-5 0.04573,0.004 0.08291,0.0169 0.08473,0.0297 0.08464,0.0297 0.09898,0.0297 0.01113,-2e-5 0.01994,-0.002 0.04305,-0.0102 0.105331,-0.0371 0.112787,-0.0389 0.156057,-0.0387 0.05856,1.1e-4 0.114552,0.0181 0.157318,0.0499 0.01641,0.0122 0.03819,0.0337 0.0478,0.0472 l 0.0046,0.006 -0.01876,0.014 c -0.07112,0.0531 -0.103834,0.12588 -0.09712,0.21602 0.0022,0.0296 0.0072,0.0514 0.01776,0.0773 0.01935,0.0474 0.06563,0.0979 0.111706,0.12169 0.008,0.004 0.01453,0.009 0.01453,0.01 2.4e-5,0.007 -0.01792,0.051 -0.03365,0.0825 -0.02423,0.0486 -0.05653,0.097 -0.0932,0.13957 -0.02641,0.0307 -0.06079,0.0531 -0.09069,0.0592 -0.0076,0.002 -0.01238,0.003 -0.01061,0.004 0.0018,7.9e-4 -0.0041,0.001 -0.01293,0.002 -0.0095,6e-5 -0.01497,-7.8e-4 -0.0133,-0.002 0.0018,-10e-4 -0.0015,-0.002 -0.0092,-0.003 -0.01318,-0.002 -0.03699,-0.009 -0.07217,-0.0225 -0.03511,-0.0135 -0.06206,-0.0183 -0.09471,-0.0168 -0.02876,10e-4 -0.04687,0.005 -0.07749,0.0164 -0.03841,0.0142 -0.06041,0.0215 -0.06876,0.0229 -0.0048,7.8e-4 -0.0081,0.002 -0.0075,0.003 6.28e-4,0.001 -0.0012,0.002 -0.004,0.002 -0.0029,0 -0.0095,5.2e-4 -0.01466,7.8e-4 -0.0052,5.3e-4 -0.01332,10e-5 -0.01806,-7.8e-4 z m 0.18117,-0.84963 c -0.0027,-0.003 -0.0014,-0.0418 0.0019,-0.058 0.01217,-0.0589 0.05385,-0.11763 0.107306,-0.15115 0.02256,-0.0142 0.05263,-0.0273 0.07377,-0.0323 0.0087,-0.002 0.01521,-0.004 0.01439,-0.005 -8.11e-4,-7.8e-4 0.0015,-0.002 0.0051,-0.002 0.0037,0 0.008,-7.8e-4 0.0096,-10e-4 0.0065,-0.003 5.5e-5,0.0592 -0.0092,0.0883 -0.02224,0.0697 -0.08007,0.13297 -0.139648,0.1528 -0.02159,0.007 -0.05938,0.0121 -0.06323,0.008 z"
         id="path1568"
         inkscape:connector-curvature="0" />
    </g>
  </g>
</svg>
