<?xml version="1.0" encoding="UTF-8" standalone="no"?>
<!-- Created with Inkscape (http://www.inkscape.org/) -->

<svg
   xmlns:dc="http://purl.org/dc/elements/1.1/"
   xmlns:cc="http://creativecommons.org/ns#"
   xmlns:rdf="http://www.w3.org/1999/02/22-rdf-syntax-ns#"
   xmlns:svg="http://www.w3.org/2000/svg"
   xmlns="http://www.w3.org/2000/svg"
   xmlns:xlink="http://www.w3.org/1999/xlink"
   xmlns:sodipodi="http://sodipodi.sourceforge.net/DTD/sodipodi-0.dtd"
   xmlns:inkscape="http://www.inkscape.org/namespaces/inkscape"
   width="128"
   height="128"
   viewBox="0 0 33.866666 33.866668"
   version="1.1"
   id="svg8"
   inkscape:version="0.92.2 5c3e80d, 2017-08-06"
   sodipodi:docname="preferences-system-login.svg">
  <defs
     id="defs2">
    <linearGradient
       inkscape:collect="always"
       id="linearGradient1056">
      <stop
         style="stop-color:#edfaff;stop-opacity:1"
         offset="0"
         id="stop1052" />
      <stop
         style="stop-color:#9b9b9a;stop-opacity:1"
         offset="1"
         id="stop1054" />
    </linearGradient>
    <linearGradient
       inkscape:collect="always"
       id="linearGradient1048">
      <stop
         style="stop-color:#cce1e7;stop-opacity:1"
         offset="0"
         id="stop1044" />
      <stop
         style="stop-color:#818383;stop-opacity:1"
         offset="1"
         id="stop1046" />
    </linearGradient>
    <linearGradient
       inkscape:collect="always"
       xlink:href="#linearGradient1048"
       id="linearGradient1050"
       x1="65.132858"
       y1="62.269798"
       x2="89.757072"
       y2="128.55264"
       gradientUnits="userSpaceOnUse"
       gradientTransform="matrix(0.3944869,0,0,0.3944869,-11.667156,241.37383)" />
    <linearGradient
       inkscape:collect="always"
       xlink:href="#linearGradient1056"
       id="linearGradient1058"
       x1="64.038284"
       y1="60.131641"
       x2="93.791611"
       y2="131.4926"
       gradientUnits="userSpaceOnUse"
       gradientTransform="matrix(0.3944869,0,0,0.3944869,-11.667156,241.37383)" />
  </defs>
  <sodipodi:namedview
     id="base"
     pagecolor="#ffffff"
     bordercolor="#666666"
     borderopacity="1.0"
     inkscape:pageopacity="0.0"
     inkscape:pageshadow="2"
     inkscape:zoom="2.8"
     inkscape:cx="34.544809"
     inkscape:cy="86.745421"
     inkscape:document-units="mm"
     inkscape:current-layer="layer1"
     showgrid="false"
     inkscape:window-width="1600"
     inkscape:window-height="803"
     inkscape:window-x="0"
     inkscape:window-y="0"
     inkscape:window-maximized="1"
     units="px" />
  <metadata
     id="metadata5">
    <rdf:RDF>
      <cc:Work
         rdf:about="">
        <dc:format>image/svg+xml</dc:format>
        <dc:type
           rdf:resource="http://purl.org/dc/dcmitype/StillImage" />
        <dc:title />
      </cc:Work>
    </rdf:RDF>
  </metadata>
  <g
     inkscape:label="Layer 1"
     inkscape:groupmode="layer"
     id="layer1"
     transform="translate(0,-263.13332)">
    <g
       id="g841"
       transform="matrix(0.98792321,0,0,0.98792321,0.20450119,3.1456151)">
      <circle
         r="15.779475"
         cy="280.59583"
         cx="16.933332"
         id="circle834"
         style="opacity:0.25;fill:#000000;fill-opacity:1;stroke:none;stroke-width:0.1;stroke-linecap:round;stroke-miterlimit:4;stroke-dasharray:0.025, 0.025;stroke-dashoffset:0;stroke-opacity:1" />
      <circle
         style="opacity:1;fill:url(#linearGradient1058);fill-opacity:1;stroke:#646666;stroke-width:0.1;stroke-linecap:round;stroke-miterlimit:4;stroke-dasharray:0.025, 0.025;stroke-dashoffset:0;stroke-opacity:1"
         id="circle1042"
         cx="16.933332"
         cy="280.06665"
         r="15.779475" />
      <circle
         r="14.398771"
         cy="280.06665"
         cx="16.933332"
         id="path1040"
         style="opacity:1;fill:url(#linearGradient1050);fill-opacity:1;stroke:#646666;stroke-width:0.1;stroke-linecap:round;stroke-miterlimit:4;stroke-dasharray:0.025, 0.025;stroke-dashoffset:0;stroke-opacity:1" />
      <path
         style="opacity:0.25;fill:#000000;fill-opacity:1;stroke-width:0.95524639"
         d="m 25.994846,271.02686 c -0.09902,-0.002 -0.244172,0.007 -0.460919,0.021 -1.821172,0.1226 -3.96358,0.74689 -5.808082,1.69262 -1.987261,1.01891 -3.886147,2.55127 -5.381615,4.34276 l -0.613405,0.7349 -0.797283,0.0832 c -2.29574,0.2393 -4.5815212,1.32423 -6.4530842,3.06294 -0.4922491,0.45731 -0.5541914,0.54139 -0.5149439,0.70046 0.024537,0.0994 0.072692,0.2093 0.1068192,0.24422 0.037239,0.0381 0.3758671,-0.0174 0.8474332,-0.13903 0.7342096,-0.18944 0.8715932,-0.2028 2.1074721,-0.20161 1.1696096,7.8e-4 1.3871816,0.0195 1.8871016,0.16165 l 0.565092,0.16065 -0.232194,0.71655 c -0.432292,1.33314 -0.416614,1.50818 0.167572,1.86876 0.540037,0.33333 1.238136,1.03371 1.643084,1.64838 l 0.328209,0.49823 0.268683,-0.0455 c 0.147758,-0.0249 0.62224,-0.15158 1.054552,-0.28152 0.432311,-0.12996 0.811855,-0.21051 0.843355,-0.17899 0.09737,0.0974 0.255096,0.77884 0.32984,1.42516 0.08796,0.76054 -0.0041,1.78116 -0.247278,2.73983 -0.188635,0.74363 -0.215688,1.12937 -0.08806,1.25699 0.138241,0.13823 0.218619,0.0996 0.588127,-0.28194 1.200754,-1.23975 2.292682,-3.05857 2.802622,-4.66812 0.191736,-0.60519 0.337839,-1.37314 0.461532,-2.42793 0.037,-0.31551 0.0681,-0.35485 0.749377,-0.94794 3.046594,-2.65221 4.984585,-5.85971 5.789125,-9.58086 0.193911,-0.89689 0.356565,-2.31799 0.286212,-2.50132 -0.02714,-0.0708 -0.06429,-0.10071 -0.229338,-0.10356 z m -5.696572,4.22881 a 1.8319214,1.8319214 0 0 1 1.831858,1.83186 1.8319214,1.8319214 0 0 1 -1.831858,1.83205 1.8319214,1.8319214 0 0 1 -1.79027,-1.45309 c -0.0054,-0.0207 -0.0093,-0.0416 -0.01386,-0.0624 a 1.8319214,1.8319214 0 0 1 -0.0012,-0.006 c -0.02296,-0.10512 -0.03631,-0.21073 -0.03567,-0.31455 4.73e-4,-0.0796 0.0117,-0.17524 0.03282,-0.27684 a 1.8319214,1.8319214 0 0 1 1.808208,-1.55155 z m -9.841388,9.62673 c -0.08665,0.0111 -0.200146,0.0674 -0.37,0.17328 -0.7545838,0.47011 -1.4542209,1.239 -1.8591735,2.04285 -0.4015767,0.79715 -0.6561161,2.09942 -0.4890525,2.50274 0.083191,0.20086 0.1078653,0.21161 0.4855869,0.21161 1.1122089,0 2.5338111,-0.67683 3.3660821,-1.60252 0.846295,-0.94128 1.021543,-1.91987 0.275615,-1.53932 -0.320426,0.16347 -0.910304,0.33414 -1.342601,0.38835 -0.138551,0.017 -0.330037,-0.009 -0.25054,-0.36042 0.02389,-0.14352 0.142723,-0.56408 0.263995,-0.93448 0.184475,-0.56345 0.205578,-0.69132 0.129653,-0.78281 -0.06312,-0.076 -0.122918,-0.11035 -0.209565,-0.0993 z"
         id="path1060"
         inkscape:connector-curvature="0" />
      <path
         inkscape:connector-curvature="0"
         id="path1035"
         d="m 25.994846,270.60936 c -0.09902,-0.002 -0.244172,0.007 -0.460919,0.021 -1.821172,0.1226 -3.96358,0.74689 -5.808082,1.69262 -1.987261,1.01891 -3.886147,2.55127 -5.381615,4.34277 l -0.613405,0.7349 -0.797283,0.0832 c -2.29574,0.2393 -4.5815212,1.32423 -6.4530842,3.06294 -0.4922491,0.45731 -0.5541914,0.54139 -0.5149439,0.70046 0.024537,0.0994 0.072692,0.2093 0.1068192,0.24422 0.037239,0.0381 0.3758671,-0.0174 0.8474332,-0.13904 0.7342096,-0.18944 0.8715932,-0.20279 2.1074721,-0.20161 1.1696096,7.9e-4 1.3871816,0.0195 1.8871016,0.16166 l 0.565092,0.16064 -0.232194,0.71656 c -0.432292,1.33314 -0.416614,1.50818 0.167572,1.86876 0.540037,0.33333 1.238136,1.03371 1.643084,1.64838 l 0.328209,0.49823 0.268683,-0.0455 c 0.147758,-0.0249 0.62224,-0.15159 1.054552,-0.28152 0.432311,-0.12996 0.811855,-0.21051 0.843355,-0.179 0.09737,0.0974 0.255096,0.77885 0.32984,1.42517 0.08796,0.76054 -0.0041,1.78115 -0.247278,2.73983 -0.188635,0.74363 -0.215688,1.12936 -0.08806,1.25698 0.138241,0.13824 0.218619,0.0996 0.588127,-0.28193 1.200754,-1.23975 2.292682,-3.05857 2.802622,-4.66812 0.191736,-0.60519 0.337839,-1.37315 0.461532,-2.42793 0.037,-0.31551 0.0681,-0.35485 0.749377,-0.94794 3.046594,-2.6522 4.984585,-5.85971 5.789125,-9.58086 0.193911,-0.89689 0.356565,-2.31799 0.286212,-2.50132 -0.02714,-0.0708 -0.06429,-0.10071 -0.229338,-0.10356 z m -5.696572,4.22881 a 1.8319214,1.8319214 0 0 1 1.831858,1.83186 1.8319214,1.8319214 0 0 1 -1.831858,1.83205 1.8319214,1.8319214 0 0 1 -1.79027,-1.45309 c -0.0054,-0.0207 -0.0093,-0.0416 -0.01386,-0.0624 a 1.8319214,1.8319214 0 0 1 -0.0012,-0.006 c -0.02296,-0.10512 -0.03631,-0.21073 -0.03567,-0.31455 4.73e-4,-0.0796 0.0117,-0.17524 0.03282,-0.27684 a 1.8319214,1.8319214 0 0 1 1.808208,-1.55155 z m -9.841388,9.62673 c -0.08665,0.0111 -0.200146,0.0674 -0.37,0.17328 -0.7545838,0.47011 -1.4542209,1.23899 -1.8591735,2.04285 -0.4015767,0.79715 -0.6561161,2.09942 -0.4890525,2.50274 0.083191,0.20086 0.1078653,0.21161 0.4855869,0.21161 1.1122089,0 2.5338111,-0.67683 3.3660821,-1.60252 0.846295,-0.94128 1.021543,-1.91987 0.275615,-1.53932 -0.320426,0.16347 -0.910304,0.33414 -1.342601,0.38834 -0.138551,0.017 -0.330037,-0.009 -0.25054,-0.36041 0.02389,-0.14352 0.142723,-0.56408 0.263995,-0.93448 0.184475,-0.56345 0.205578,-0.69132 0.129653,-0.78281 -0.06312,-0.076 -0.122918,-0.11035 -0.209565,-0.0993 z"
         style="fill:#44484a;fill-opacity:1;stroke-width:0.95524639" />
    </g>
  </g>
</svg>
