<?xml version="1.0" encoding="UTF-8" standalone="no"?>
<!-- Created with Inkscape (http://www.inkscape.org/) -->

<svg
   xmlns:dc="http://purl.org/dc/elements/1.1/"
   xmlns:cc="http://creativecommons.org/ns#"
   xmlns:rdf="http://www.w3.org/1999/02/22-rdf-syntax-ns#"
   xmlns:svg="http://www.w3.org/2000/svg"
   xmlns="http://www.w3.org/2000/svg"
   xmlns:sodipodi="http://sodipodi.sourceforge.net/DTD/sodipodi-0.dtd"
   xmlns:inkscape="http://www.inkscape.org/namespaces/inkscape"
   width="128"
   height="128"
   viewBox="0 0 33.866666 33.866668"
   version="1.1"
   id="svg8"
   inkscape:version="0.92.2 5c3e80d, 2017-08-06"
   sodipodi:docname="theme.svg">
  <defs
     id="defs2" />
  <sodipodi:namedview
     id="base"
     pagecolor="#ffffff"
     bordercolor="#666666"
     borderopacity="1.0"
     inkscape:pageopacity="0.0"
     inkscape:pageshadow="2"
     inkscape:zoom="5.6"
     inkscape:cx="46.259297"
     inkscape:cy="52.486062"
     inkscape:document-units="mm"
     inkscape:current-layer="layer1"
     showgrid="false"
     inkscape:window-width="1600"
     inkscape:window-height="803"
     inkscape:window-x="0"
     inkscape:window-y="0"
     inkscape:window-maximized="1"
     units="px" />
  <metadata
     id="metadata5">
    <rdf:RDF>
      <cc:Work
         rdf:about="">
        <dc:format>image/svg+xml</dc:format>
        <dc:type
           rdf:resource="http://purl.org/dc/dcmitype/StillImage" />
        <dc:title />
      </cc:Work>
    </rdf:RDF>
  </metadata>
  <g
     inkscape:label="Layer 1"
     inkscape:groupmode="layer"
     id="layer1"
     transform="translate(0,-263.13332)">
    <rect
       transform="matrix(0.84346179,0.53718917,-0.52677672,0.8500037,0,0)"
       ry="0.87966198"
       y="216.44971"
       x="159.35686"
       height="22.587679"
       width="13.941397"
       id="rect907"
       style="opacity:0.25;fill:#000000;fill-opacity:1;stroke:none;stroke-width:0.20241787;stroke-linecap:round;stroke-miterlimit:4;stroke-dasharray:none;stroke-opacity:1" />
    <rect
       style="opacity:1;fill:#95a1b4;fill-opacity:1;stroke:#666666;stroke-width:0.20241787;stroke-linecap:round;stroke-miterlimit:4;stroke-dasharray:none;stroke-opacity:1"
       id="rect4581"
       width="13.941397"
       height="22.587679"
       x="159.07472"
       y="215.99796"
       ry="0.87966198"
       transform="matrix(0.84346179,0.53718917,-0.52677672,0.8500037,0,0)" />
    <rect
       style="opacity:0.25;fill:#000000;fill-opacity:1;stroke:none;stroke-width:0.20241787;stroke-linecap:round;stroke-miterlimit:4;stroke-dasharray:none;stroke-opacity:1"
       id="rect905"
       width="13.941397"
       height="22.587679"
       x="128.88773"
       y="234.40192"
       ry="0.87966198"
       transform="matrix(0.90249007,0.43071067,-0.41958042,0.90771817,0,0)" />
    <rect
       transform="matrix(0.90249007,0.43071067,-0.41958042,0.90771817,0,0)"
       ry="0.87966198"
       y="233.91855"
       x="128.66301"
       height="22.587679"
       width="13.941397"
       id="rect4579"
       style="opacity:1;fill:#b3c1d8;fill-opacity:1;stroke:#666666;stroke-width:0.20241787;stroke-linecap:round;stroke-miterlimit:4;stroke-dasharray:none;stroke-opacity:1" />
    <rect
       transform="matrix(0.94576969,0.32483795,-0.31318351,0.94969263,0,0)"
       ry="0.87966198"
       y="247.80063"
       x="98.515808"
       height="22.587679"
       width="13.941397"
       id="rect903"
       style="opacity:0.25;fill:#000000;fill-opacity:1;stroke:none;stroke-width:0.20241787;stroke-linecap:round;stroke-miterlimit:4;stroke-dasharray:none;stroke-opacity:1" />
    <rect
       style="opacity:1;fill:#dce7ed;fill-opacity:1;stroke:#666666;stroke-width:0.20241787;stroke-linecap:round;stroke-miterlimit:4;stroke-dasharray:none;stroke-opacity:1"
       id="rect4577"
       width="13.941397"
       height="22.587679"
       x="98.348068"
       y="247.29408"
       ry="0.87966198"
       transform="matrix(0.94576969,0.32483795,-0.31318351,0.94969263,0,0)" />
    <rect
       style="opacity:0.25;fill:#000000;fill-opacity:1;stroke:none;stroke-width:0.20241024;stroke-linecap:round;stroke-miterlimit:4;stroke-dasharray:none;stroke-opacity:1"
       id="rect901"
       width="13.914574"
       height="22.138996"
       x="48.932983"
       y="262.59927"
       ry="0.86218822"
       transform="rotate(8.066815)" />
    <rect
       transform="rotate(8.066815)"
       ry="0.86218822"
       y="262.06903"
       x="48.857838"
       height="22.138996"
       width="13.914574"
       id="rect4575"
       style="opacity:1;fill:#eaf6fd;fill-opacity:1;stroke:#666666;stroke-width:0.20241024;stroke-linecap:round;stroke-miterlimit:4;stroke-dasharray:none;stroke-opacity:1" />
    <rect
       transform="rotate(-0.93318497)"
       ry="0.86218822"
       y="266.74847"
       x="3.7876573"
       height="22.138994"
       width="13.914574"
       id="rect899"
       style="opacity:0.25;fill:#000000;fill-opacity:1;stroke:none;stroke-width:0.20241024;stroke-linecap:round;stroke-miterlimit:4;stroke-dasharray:none;stroke-opacity:1" />
    <rect
       style="opacity:1;fill:#f6fafe;fill-opacity:1;stroke:#666666;stroke-width:0.20241024;stroke-linecap:round;stroke-miterlimit:4;stroke-dasharray:none;stroke-opacity:1"
       id="rect4573"
       width="13.914574"
       height="22.138994"
       x="3.7963824"
       y="266.21298"
       ry="0.86218822"
       transform="rotate(-0.93318497)" />
    <rect
       style="opacity:1;fill:#5eaee7;fill-opacity:1;stroke:#13326d;stroke-width:0.20241022;stroke-miterlimit:4;stroke-dasharray:none;stroke-dashoffset:0;stroke-opacity:1"
       id="rect882"
       width="6.6464796"
       height="4.4947419"
       x="14.522222"
       y="267.91541"
       ry="1.3149511" />
    <path
       style="opacity:0.35;fill:#ffffff;fill-opacity:1;stroke:none;stroke-width:0.19523819;stroke-miterlimit:4;stroke-dasharray:none;stroke-dashoffset:0;stroke-opacity:1"
       d="m 15.825282,268.01094 c -0.728475,0 -1.314796,0.54551 -1.314796,1.22329 v 0.71965 c 0.229098,0.18082 0.52242,0.2939 0.847764,0.2939 h 4.016578 c 0.728485,0 1.314806,-0.54551 1.314806,-1.22328 v -0.71966 c -0.229128,-0.18091 -0.522339,-0.2939 -0.847775,-0.2939 z"
       id="rect888"
       inkscape:connector-curvature="0" />
    <rect
       ry="1.3149511"
       y="273.9881"
       x="14.713479"
       height="4.4947419"
       width="6.6464796"
       id="rect884"
       style="opacity:1;fill:#a5a6a5;fill-opacity:1;stroke:#666666;stroke-width:0.20241022;stroke-miterlimit:4;stroke-dasharray:none;stroke-dashoffset:0;stroke-opacity:1" />
    <path
       inkscape:connector-curvature="0"
       id="path893"
       d="m 15.971533,274.08941 c -0.728474,0 -1.314796,0.54551 -1.314796,1.22329 v 0.71965 c 0.229098,0.18082 0.522421,0.2939 0.847765,0.2939 h 4.016578 c 0.728484,0 1.314806,-0.54551 1.314806,-1.22328 v -0.71966 c -0.229128,-0.18091 -0.52234,-0.2939 -0.847775,-0.2939 z"
       style="opacity:0.35;fill:#ffffff;fill-opacity:1;stroke:none;stroke-width:0.19523819;stroke-miterlimit:4;stroke-dasharray:none;stroke-dashoffset:0;stroke-opacity:1" />
    <path
       sodipodi:nodetypes="sssssssss"
       inkscape:connector-curvature="0"
       id="path897"
       d="m 14.147099,265.5576 7.896336,17.93286 c 0.241546,0.54856 -0.116001,1.179 -0.684703,1.36837 l -11.5828947,3.85731 c -0.5686816,0.18938 -1.1789889,-0.116 -1.368374,-0.6847 L 2.1045406,269.10468 c -0.189375,-0.56869 0.1085121,-1.20322 0.6846728,-1.36839 l 9.9895116,-2.86338 c 0.576191,-0.16512 1.126837,0.13589 1.368374,0.68469 z"
       style="opacity:0.25;fill:#000000;fill-opacity:1;stroke:none;stroke-width:0.20241022;stroke-linecap:round;stroke-miterlimit:4;stroke-dasharray:none;stroke-opacity:1" />
    <path
       style="opacity:1;fill:#f8ffff;fill-opacity:1;stroke:#666666;stroke-width:0.20241022;stroke-linecap:round;stroke-miterlimit:4;stroke-dasharray:none;stroke-opacity:1"
       d="m 14.147099,265.02205 7.896336,17.93286 c 0.241546,0.54856 -0.116001,1.179 -0.684703,1.36838 L 9.7758373,288.1806 c -0.5686816,0.18937 -1.1789889,-0.116 -1.368374,-0.68471 L 2.1045406,268.56913 c -0.189375,-0.56869 0.1085121,-1.20322 0.6846728,-1.36838 l 9.9895116,-2.86339 c 0.576191,-0.16511 1.126837,0.13589 1.368374,0.68469 z"
       id="rect4568"
       inkscape:connector-curvature="0"
       sodipodi:nodetypes="sssssssss" />
    <ellipse
       style="opacity:1;fill:#c83b2d;fill-opacity:1;stroke:#643534;stroke-width:0.20241022;stroke-linecap:round;stroke-miterlimit:4;stroke-dasharray:none;stroke-opacity:1"
       id="path4540"
       cx="9.2263422"
       cy="269.64752"
       rx="2.9584889"
       ry="2.6795456" />
    <ellipse
       ry="2.814791"
       rx="3.1078134"
       cy="275.29736"
       cx="11.535546"
       id="ellipse4542"
       style="opacity:1;fill:#df9827;fill-opacity:1;stroke:#8c6019;stroke-width:0.20241022;stroke-linecap:round;stroke-miterlimit:4;stroke-dasharray:none;stroke-opacity:1" />
    <ellipse
       style="opacity:1;fill:#67b525;fill-opacity:1;stroke:#35691b;stroke-width:0.20241022;stroke-linecap:round;stroke-miterlimit:4;stroke-dasharray:none;stroke-opacity:1"
       id="ellipse4544"
       cx="14.001"
       cy="281.3493"
       rx="3.2758033"
       ry="3.0430174" />
    <ellipse
       ry="1.1071781"
       rx="1.1918755"
       cy="286.17078"
       cx="10.084445"
       id="ellipse4546"
       style="opacity:1;fill:#7b4403;fill-opacity:1;stroke:#362b2c;stroke-width:0.20241022;stroke-linecap:round;stroke-miterlimit:4;stroke-dasharray:none;stroke-opacity:1" />
    <path
       style="opacity:0.35;fill:#ffffff;fill-opacity:1;stroke:none;stroke-width:0.19460833;stroke-linecap:round;stroke-miterlimit:4;stroke-dasharray:none;stroke-opacity:1"
       d="m 9.2076464,267.06272 a 2.844454,2.5762628 0 0 0 -2.707312,1.79014 2.844454,2.5762628 0 0 0 1.7757262,0.5669 2.844454,2.5762628 0 0 0 2.7078094,-1.79014 2.844454,2.5762628 0 0 0 -1.7762236,-0.5669 z"
       id="ellipse866"
       inkscape:connector-curvature="0" />
    <path
       style="opacity:0.35;fill:#ffffff;fill-opacity:1;stroke:none;stroke-width:0.20241022;stroke-linecap:round;stroke-miterlimit:4;stroke-dasharray:none;stroke-opacity:1"
       d="m 10.095767,285.15981 a 0.78611277,0.78611277 0 0 0 -0.5057321,0.73428 0.78611277,0.78611277 0 0 0 0.7860501,0.78606 0.78611277,0.78611277 0 0 0 0.783965,-0.74997 1.1918755,1.1071781 0 0 0 -1.064283,-0.77037 z"
       id="ellipse867"
       inkscape:connector-curvature="0" />
    <path
       style="opacity:0.35;fill:#ffffff;fill-opacity:1;stroke:none;stroke-width:0.19340715;stroke-linecap:round;stroke-miterlimit:4;stroke-dasharray:none;stroke-opacity:1"
       d="m 11.525796,272.58448 a 2.9695799,2.6895911 0 0 0 -2.7508426,1.68033 2.9695799,2.6895911 0 0 0 1.9524016,0.6661 2.9695799,2.6895911 0 0 0 2.750843,-1.68033 2.9695799,2.6895911 0 0 0 -1.952402,-0.6661 z"
       id="ellipse873"
       inkscape:connector-curvature="0" />
    <path
       style="opacity:0.35;fill:#ffffff;fill-opacity:1;stroke:none;stroke-width:0.1954084;stroke-linecap:round;stroke-miterlimit:4;stroke-dasharray:none;stroke-opacity:1"
       d="m 13.994345,278.41234 a 3.1850268,2.9169616 0 0 0 -2.934777,1.78379 3.1850268,2.9169616 0 0 0 2.038918,0.67616 3.1850268,2.9169616 0 0 0 2.934275,-1.78329 3.1850268,2.9169616 0 0 0 -2.038416,-0.67666 z"
       id="ellipse880"
       inkscape:connector-curvature="0" />
  </g>
</svg>
