<?xml version="1.0" encoding="UTF-8" standalone="no"?>
<!-- Created with Inkscape (http://www.inkscape.org/) -->

<svg
   xmlns:osb="http://www.openswatchbook.org/uri/2009/osb"
   xmlns:dc="http://purl.org/dc/elements/1.1/"
   xmlns:cc="http://creativecommons.org/ns#"
   xmlns:rdf="http://www.w3.org/1999/02/22-rdf-syntax-ns#"
   xmlns:svg="http://www.w3.org/2000/svg"
   xmlns="http://www.w3.org/2000/svg"
   xmlns:xlink="http://www.w3.org/1999/xlink"
   xmlns:sodipodi="http://sodipodi.sourceforge.net/DTD/sodipodi-0.dtd"
   xmlns:inkscape="http://www.inkscape.org/namespaces/inkscape"
   width="128"
   height="128"
   viewBox="0 0 33.866666 33.866668"
   version="1.1"
   id="svg8"
   inkscape:version="0.92.2 5c3e80d, 2017-08-06"
   sodipodi:docname="share.svg">
  <defs
     id="defs2">
    <linearGradient
       inkscape:collect="always"
       id="linearGradient947">
      <stop
         style="stop-color:#f7c929;stop-opacity:1;"
         offset="0"
         id="stop943" />
      <stop
         style="stop-color:#e89415;stop-opacity:1"
         offset="1"
         id="stop945" />
    </linearGradient>
    <linearGradient
       inkscape:collect="always"
       id="linearGradient7009">
      <stop
         style="stop-color:#63c4f2;stop-opacity:1"
         offset="0"
         id="stop7005" />
      <stop
         style="stop-color:#7cd4fa;stop-opacity:1"
         offset="1"
         id="stop7007" />
    </linearGradient>
    <linearGradient
       osb:paint="solid"
       id="linearGradient6088">
      <stop
         id="stop6086"
         offset="0"
         style="stop-color:#51b3e3;stop-opacity:1;" />
    </linearGradient>
    <linearGradient
       osb:paint="solid"
       id="linearGradient6987">
      <stop
         id="stop6985"
         offset="0"
         style="stop-color:#77d2fb;stop-opacity:1;" />
    </linearGradient>
    <linearGradient
       inkscape:collect="always"
       id="linearGradient1006">
      <stop
         style="stop-color:#59b0d9;stop-opacity:1"
         offset="0"
         id="stop1002" />
      <stop
         style="stop-color:#7cd4fa;stop-opacity:1"
         offset="1"
         id="stop1004" />
    </linearGradient>
    <linearGradient
       gradientTransform="matrix(0.25104166,0,0,0.25614281,-15.770937,249.30337)"
       gradientUnits="userSpaceOnUse"
       y2="132.42918"
       x2="124.11147"
       y1="84.320671"
       x1="123.07384"
       id="linearGradient7011-3"
       xlink:href="#linearGradient7009"
       inkscape:collect="always" />
    <linearGradient
       gradientTransform="matrix(0.26137453,0,0,0.28556168,0.207633,261.0264)"
       gradientUnits="userSpaceOnUse"
       y2="110.65087"
       x2="70.726562"
       y1="113.65864"
       x1="70.726562"
       id="linearGradient1033"
       xlink:href="#linearGradient1006"
       inkscape:collect="always" />
    <linearGradient
       gradientTransform="matrix(0.26295085,0,0,0.26458333,0.10257,263.13331)"
       gradientUnits="userSpaceOnUse"
       y2="107.45322"
       x2="60.902935"
       y1="111.36977"
       x1="60.902935"
       id="linearGradient986"
       xlink:href="#linearGradient1006"
       inkscape:collect="always" />
    <linearGradient
       gradientTransform="matrix(0.26302556,0,0,0.26458333,0.099041,263.13331)"
       gradientUnits="userSpaceOnUse"
       y2="103.91254"
       x2="59.245655"
       y1="107.43008"
       x1="59.245655"
       id="linearGradient994"
       xlink:href="#linearGradient1006"
       inkscape:collect="always" />
    <linearGradient
       inkscape:collect="always"
       xlink:href="#linearGradient947"
       id="linearGradient949"
       x1="57.365929"
       y1="308.0314"
       x2="57.365929"
       y2="322.91776"
       gradientUnits="userSpaceOnUse"
       gradientTransform="translate(10.154418,0.18087)" />
  </defs>
  <sodipodi:namedview
     id="base"
     pagecolor="#ffffff"
     bordercolor="#666666"
     borderopacity="1.0"
     inkscape:pageopacity="0.0"
     inkscape:pageshadow="2"
     inkscape:zoom="1.2800001"
     inkscape:cx="57.080491"
     inkscape:cy="13.78772"
     inkscape:document-units="mm"
     inkscape:current-layer="layer1"
     showgrid="false"
     inkscape:window-width="1600"
     inkscape:window-height="792"
     inkscape:window-x="0"
     inkscape:window-y="0"
     inkscape:window-maximized="1"
     units="px" />
  <metadata
     id="metadata5">
    <rdf:RDF>
      <cc:Work
         rdf:about="">
        <dc:format>image/svg+xml</dc:format>
        <dc:type
           rdf:resource="http://purl.org/dc/dcmitype/StillImage" />
        <dc:title />
      </cc:Work>
    </rdf:RDF>
  </metadata>
  <g
     inkscape:label="Layer 1"
     inkscape:groupmode="layer"
     id="layer1"
     transform="translate(0,-263.13331)">
    <path
       inkscape:connector-curvature="0"
       style="fill:#97ddff;fill-opacity:1;stroke:#59b0d9;stroke-width:0.2;stroke-miterlimit:4;stroke-dasharray:none;stroke-opacity:1"
       d="m 2.32678,266.73146 c -1.087001,0 -1.962197,0.88554 -1.962197,1.98584 v 2.37881 1.63039 0.78694 6.6397 1.59032 10.06124 0.72222 c 0,0.48468 0.382274,0.87478 0.857306,0.87478 h 0.707829 30.007232 0.707827 c 0.475032,0 0.857306,-0.3901 0.857306,-0.87478 v -0.72222 -10.06124 -1.59032 -7.42664 -1.63039 c 0,-0.91589 -0.728604,-1.65299 -1.633452,-1.65299 H 12.238444 c -0.969415,-0.091 -1.011271,-2.40862 -2.716257,-2.71166 z"
       id="path7028-3" />
    <path
       inkscape:connector-curvature="0"
       id="rect5176-9"
       d="m 1.929839,271.12962 c -0.86715,0 -1.565184,0.71234 -1.565184,1.59712 v 7.42624 11.65185 0.7222 c 0,0.48468 0.382351,0.8748 0.857383,0.8748 h 0.707801 30.007047 0.707804 c 0.475033,0 0.857381,-0.39012 0.857381,-0.8748 v -0.7222 -11.65185 -7.42624 c 0,-0.88478 -0.698031,-1.59712 -1.565185,-1.59712 z"
       style="fill:url(#linearGradient7011-3);fill-opacity:1;stroke:#59b0d9;stroke-width:0.2;stroke-miterlimit:4;stroke-dasharray:none;stroke-opacity:1" />
    <path
       style="fill:url(#linearGradient1033);fill-opacity:1;stroke:none;stroke-width:0.2;stroke-miterlimit:4;stroke-dasharray:none;stroke-opacity:1"
       d="m 0.469008,292.39133 v 0.14724 c 0,0.52625 0.379917,0.94982 0.852019,0.94982 h 0.703466 29.822221 0.703464 c 0.472105,0 0.85202,-0.42357 0.85202,-0.94982 v -0.14724 z"
       id="path1020"
       inkscape:connector-curvature="0" />
    <path
       style="fill:url(#linearGradient994);fill-opacity:1;stroke:none;stroke-width:0.19999999;stroke-miterlimit:4;stroke-dasharray:none;stroke-opacity:1"
       d="m 0.461729,290.61897 v 0.93793 h 32.941897 v -0.93793 z"
       id="path966"
       inkscape:connector-curvature="0" />
    <path
       style="fill:url(#linearGradient986);fill-opacity:1;stroke:none;stroke-width:0.2;stroke-miterlimit:4;stroke-dasharray:none;stroke-opacity:1"
       d="m 0.465155,291.6773 v 0.12764 0.72192 c 0,0.0303 0.0053,0.0589 0.0082,0.0884 h 32.916103 c 0.0029,-0.0295 0.0082,-0.0581 0.0082,-0.0884 v -0.72192 -0.12764 z"
       id="path973"
       inkscape:connector-curvature="0" />
    <g
       id="g953"
       transform="matrix(0.98530979,0,0,0.98530979,-49.895665,-28.648226)"
       style="stroke-width:1.01490927">
      <path
         style="fill:url(#linearGradient949);fill-opacity:1;stroke-width:1.01490927"
         d="m 67.520278,323.09867 c -0.0592,-0.0221 -0.17228,-0.0851 -0.25125,-0.13981 -0.079,-0.0548 -1.90747,-1.86544 -4.06334,-4.02373 -3.15781,-3.16135 -3.934086,-3.95668 -3.993408,-4.09141 -0.110378,-0.2507 -0.126806,-0.45267 -0.05675,-0.69773 l 0.06056,-0.21184 4.026268,-4.02922 c 3.010501,-3.01272 4.06707,-4.04882 4.188,-4.10689 0.221551,-0.1064 0.56851,-0.1064 0.79006,0 0.12093,0.0581 1.177501,1.09417 4.188,4.10689 l 4.02627,4.02922 0.0606,0.21184 c 0.07,0.24495 0.0536,0.44684 -0.0566,0.69773 -0.0594,0.13514 -0.83961,0.93263 -4.06519,4.15515 -2.78077,2.77814 -4.03525,4.00804 -4.13527,4.05425 -0.16923,0.0782 -0.56359,0.1032 -0.71788,0.0455 z"
         id="path923"
         inkscape:connector-curvature="0" />
      <path
         sodipodi:nodetypes="ccscccccccccccccccccscccccccccccscscccccccccsccccccccccscccccccsccsccccsccccccc"
         style="fill:#191918;stroke-width:1.01490927"
         d="m 67.520278,323.09867 c -0.0592,-0.0221 -0.17228,-0.0851 -0.25125,-0.13981 -0.079,-0.0548 -1.90747,-1.86544 -4.06334,-4.02373 -3.15781,-3.16135 -3.934087,-3.95668 -3.993408,-4.09141 -0.110378,-0.2507 -0.126806,-0.45267 -0.05675,-0.69773 l 0.06056,-0.21184 4.026268,-4.02922 c 3.0105,-3.01272 4.06707,-4.04882 4.188,-4.10689 0.22155,-0.1064 0.56851,-0.1064 0.79006,0 0.12093,0.0581 1.1775,1.09417 4.188,4.10689 l 4.02627,4.02922 0.0606,0.21184 c 0.07,0.24495 0.0536,0.44684 -0.0566,0.69773 -0.0594,0.13514 -0.83961,0.93263 -4.06519,4.15515 -2.78077,2.77814 -4.03525,4.00804 -4.13527,4.05425 -0.16923,0.0782 -0.56359,0.1032 -0.71788,0.0455 z m 0.50915,-0.92869 c 0.11431,-0.0426 7.45294,-7.35571 7.53339,-7.5072 0.0668,-0.12578 0.0657,-0.36469 -0.002,-0.50797 -0.0296,-0.0623 -1.71341,-1.77154 -3.74191,-3.79836 -4.03745,-4.03411 -3.79572,-3.81633 -4.13826,-3.72817 -0.1473,0.0379 -0.45325,0.33457 -3.82561,3.70943 -2.01603,2.01753 -3.699831,3.72476 -3.741777,3.79386 -0.08937,0.14722 -0.100739,0.38876 -0.02499,0.53121 0.08917,0.1677 7.382977,7.42881 7.522007,7.48829 0.14987,0.0641 0.28207,0.0701 0.41941,0.0189 z m -1.94763,-3.84786 c -0.20191,-0.18503 -0.19797,-0.26402 0.0687,-1.37744 0.12825,-0.53551 0.26908,-1.04403 0.312961,-1.13004 0.0439,-0.086 0.263279,-0.44954 0.48756,-0.80785 0.22427,-0.3583 0.40777,-0.68257 0.40777,-0.7206 0,-0.038 -0.0727,-0.26914 -0.16152,-0.51356 -0.0888,-0.24442 -0.16152,-0.4494 -0.16152,-0.45551 0,-0.0627 -0.1288,0.0396 -0.35892,0.28502 l -0.27764,0.29612 h -0.90521 -0.90521 l -0.0866,-0.10071 c -0.1145,-0.13313 -0.11453,-0.31148 -7e-5,-0.44467 l 0.0866,-0.10071 0.71106,-0.0112 c 0.3972,-0.006 0.72991,-0.0268 0.75376,-0.0466 0.0235,-0.0195 0.2097,-0.31192 0.4138,-0.64984 0.2041,-0.33792 0.42183,-0.66596 0.48385,-0.72898 0.14981,-0.15222 0.38721,-0.26323 0.65521,-0.30639 0.26275,-0.0423 0.30227,-0.0339 1.60054,0.33939 0.72014,0.20707 0.94758,0.2865 0.99772,0.34842 0.0596,0.0736 0.0641,0.15699 0.0543,1.01056 l -0.0106,0.93036 -0.10071,0.0866 c -0.14405,0.12383 -0.32341,0.11665 -0.4584,-0.0183 l -0.10492,-0.10491 v -0.10944 -0.57607 c 0,-0.677 -0.001,-0.68593 -0.0808,-0.71916 -0.1513,-0.063 -0.68039,-0.15126 -0.71279,-0.11886 -0.0185,0.0184 0.0437,0.25699 0.14817,0.5685 0.23643,0.7052 0.27436,0.91308 0.35379,1.93909 l 0.0669,0.86397 0.63209,0.89482 c 0.34841,0.49323 0.64177,0.94457 0.65366,1.00567 0.0473,0.24314 -0.18203,0.51702 -0.43292,0.51702 -0.20117,0 -0.32276,-0.12417 -0.8996,-0.9187 -0.68864,-0.94853 -0.75418,-1.05559 -0.99011,-1.61742 -0.10227,-0.24353 -0.20376,-0.44278 -0.22554,-0.44278 -0.0218,0 -0.21438,0.17534 -0.42803,0.38965 l -0.38844,0.38965 -0.2312,0.99518 c -0.12715,0.54734 -0.25733,1.03506 -0.28928,1.08382 -0.0791,0.1208 -0.23025,0.19266 -0.405101,0.19266 -0.114549,0 -0.17323,-0.0251 -0.2732,-0.11668 z m 0.61904,-7.08239 c -0.37085,-0.11825 -0.63644,-0.54469 -0.57876,-0.92929 0.0385,-0.25698 0.21684,-0.5149 0.44383,-0.64204 0.6484,-0.36316 1.41338,0.21229 1.25625,0.94499 -0.10452,0.48734 -0.63245,0.78222 -1.12132,0.62634 z"
         id="path919"
         inkscape:connector-curvature="0" />
    </g>
  </g>
</svg>
