<?xml version="1.0" encoding="UTF-8" standalone="no"?>
<!-- Created with Inkscape (http://www.inkscape.org/) -->

<svg
   xmlns:dc="http://purl.org/dc/elements/1.1/"
   xmlns:cc="http://creativecommons.org/ns#"
   xmlns:rdf="http://www.w3.org/1999/02/22-rdf-syntax-ns#"
   xmlns:svg="http://www.w3.org/2000/svg"
   xmlns="http://www.w3.org/2000/svg"
   xmlns:xlink="http://www.w3.org/1999/xlink"
   xmlns:sodipodi="http://sodipodi.sourceforge.net/DTD/sodipodi-0.dtd"
   xmlns:inkscape="http://www.inkscape.org/namespaces/inkscape"
   width="128"
   height="128"
   viewBox="0 0 33.866666 33.866668"
   version="1.1"
   id="svg8"
   inkscape:version="0.92.4 (5da689c313, 2019-01-14)"
   sodipodi:docname="preferences-system-power.svg">
  <defs
     id="defs2">
    <linearGradient
       inkscape:collect="always"
       id="linearGradient1010">
      <stop
         style="stop-color:#bed7e5;stop-opacity:1"
         offset="0"
         id="stop1006" />
      <stop
         style="stop-color:#90a3bd;stop-opacity:1"
         offset="1"
         id="stop1008" />
    </linearGradient>
    <inkscape:path-effect
       effect="skeletal"
       id="path-effect984"
       is_visible="true"
       pattern="m -100.11494,19.454976 c 0,-2.76 2.240005,-5 5.000005,-5 2.76,0 5,2.24 5,5 0,2.76 -2.24,5 -5,5 -2.76,0 -5.000005,-2.24 -5.000005,-5 z"
       copytype="single_stretched"
       prop_scale="0.044783664"
       scale_y_rel="false"
       spacing="0"
       normal_offset="0"
       tang_offset="0"
       prop_units="false"
       vertical_pattern="false"
       fuse_tolerance="0" />
    <inkscape:path-effect
       fuse_tolerance="0"
       vertical_pattern="false"
       prop_units="false"
       tang_offset="0"
       normal_offset="0"
       spacing="0"
       scale_y_rel="false"
       prop_scale="0.055746102"
       copytype="single_stretched"
       pattern="m -99.898156,14.811975 c 0,-2.76 2.24,-4.9999995 5,-4.9999995 2.76,0 5,2.2399995 5,4.9999995 0,2.76 -2.24,5 -5,5 -2.76,0 -5,-2.24 -5,-5 z"
       is_visible="true"
       id="path-effect980"
       effect="skeletal" />
    <inkscape:path-effect
       effect="skeletal"
       id="path-effect972"
       is_visible="true"
       pattern="m -99.736845,10.354543 c 0,-2.7600002 2.24,-5 5,-5 2.76,0 5,2.2399998 5,5 0,2.76 -2.24,5 -5,5 -2.76,0 -5,-2.24 -5,-5 z"
       copytype="single_stretched"
       prop_scale="0.048632976"
       scale_y_rel="false"
       spacing="0"
       normal_offset="0"
       tang_offset="0"
       prop_units="false"
       vertical_pattern="false"
       fuse_tolerance="0" />
    <linearGradient
       inkscape:collect="always"
       id="linearGradient926">
      <stop
         style="stop-color:#ecedf1;stop-opacity:1"
         offset="0"
         id="stop922" />
      <stop
         style="stop-color:#c5c4c8;stop-opacity:1"
         offset="1"
         id="stop924" />
    </linearGradient>
    <linearGradient
       inkscape:collect="always"
       id="linearGradient918">
      <stop
         style="stop-color:#ffffff;stop-opacity:1"
         offset="0"
         id="stop914" />
      <stop
         style="stop-color:#fffe97;stop-opacity:1"
         offset="1"
         id="stop916" />
    </linearGradient>
    <radialGradient
       inkscape:collect="always"
       xlink:href="#linearGradient1010"
       id="radialGradient1014"
       cx="-140.48355"
       cy="230.09775"
       fx="-140.48355"
       fy="230.09775"
       r="3.7088108"
       gradientTransform="matrix(0.99696948,0,0,0.62312236,156.9454,150.04711)"
       gradientUnits="userSpaceOnUse" />
    <linearGradient
       inkscape:collect="always"
       xlink:href="#linearGradient926"
       id="linearGradient1030"
       gradientUnits="userSpaceOnUse"
       gradientTransform="matrix(0.05004408,0,0,0.05004531,36.771711,251.86191)"
       x1="-446.83182"
       y1="746.12903"
       x2="-301.85349"
       y2="546.11877" />
    <radialGradient
       inkscape:collect="always"
       xlink:href="#linearGradient918"
       id="radialGradient1056"
       gradientUnits="userSpaceOnUse"
       gradientTransform="matrix(0.19137375,0,0,0.1864836,37.009101,251.23826)"
       cx="-104.90329"
       cy="112.45598"
       fx="-104.90329"
       fy="112.45598"
       r="44.500374" />
  </defs>
  <sodipodi:namedview
     id="base"
     pagecolor="#ffffff"
     bordercolor="#666666"
     borderopacity="1.0"
     inkscape:pageopacity="0.0"
     inkscape:pageshadow="2"
     inkscape:zoom="2.8284271"
     inkscape:cx="70.271092"
     inkscape:cy="56.90413"
     inkscape:document-units="mm"
     inkscape:current-layer="layer1"
     showgrid="false"
     inkscape:window-width="1600"
     inkscape:window-height="838"
     inkscape:window-x="-8"
     inkscape:window-y="-8"
     inkscape:window-maximized="1"
     units="px" />
  <metadata
     id="metadata5">
    <rdf:RDF>
      <cc:Work
         rdf:about="">
        <dc:format>image/svg+xml</dc:format>
        <dc:type
           rdf:resource="http://purl.org/dc/dcmitype/StillImage" />
        <dc:title />
      </cc:Work>
    </rdf:RDF>
  </metadata>
  <g
     inkscape:label="Layer 1"
     inkscape:groupmode="layer"
     id="layer1"
     transform="translate(0,-263.13332)">
    <g
       id="g861"
       transform="matrix(0.95524345,0,0,0.95524345,0.75786992,12.487096)">
      <path
         id="circle1047"
         d="m 16.93358,263.49791 a 8.9388563,8.9390755 0 0 0 -8.9392043,8.93943 8.9388563,8.9390755 0 0 0 1.1339519,4.33601 c 0.056713,0.0366 0.1179551,0.0787 0.1756811,0.0974 0.4247093,0.13718 0.8786003,0.15919 1.3214843,0.21432 0.003,2.7e-4 0.0063,7.9e-4 0.0093,0.001 0.613506,0.0625 1.342142,0.12118 2.077797,0.17053 1.386037,0.0725 2.774335,0.12962 4.162285,0.13859 1.387952,-0.008 2.77625,-0.066 4.162287,-0.13859 0.735465,-0.0493 1.46438,-0.10802 2.077794,-0.17053 0.004,-2.5e-4 0.0073,-5.3e-4 0.01031,-0.001 0.442891,-0.0552 0.896783,-0.0771 1.321482,-0.21432 0.113346,-0.0366 0.240265,-0.1657 0.319423,-0.15972 0.0052,2.6e-4 0.01026,0.003 0.01546,0.004 a 8.9388563,8.9390755 0 0 0 1.090676,-4.2778 8.9388563,8.9390755 0 0 0 -8.93869,-8.93942 z"
         style="opacity:1;fill:#ffe44d;fill-opacity:1;fill-rule:nonzero;stroke:#d4a22d;stroke-width:0.30000001;stroke-miterlimit:4;stroke-dasharray:none;stroke-opacity:0.91764706"
         inkscape:connector-curvature="0" />
      <path
         inkscape:connector-curvature="0"
         id="circle1052"
         d="m 16.933576,263.91069 a 8.5162033,8.2985896 0 0 0 -8.5165172,8.29891 8.5162033,8.2985896 0 0 0 1.2933113,4.38672 c 0.3116549,0.0579 0.6317719,0.0811 0.9467989,0.11936 0.003,2.6e-4 0.006,7.8e-4 0.009,10e-4 0.610425,0.0606 1.335401,0.11749 2.06736,0.16534 1.379077,0.0702 2.760405,0.12567 4.141386,0.13436 1.380981,-0.008 2.76231,-0.064 4.141386,-0.13436 0.731771,-0.0479 1.457024,-0.10474 2.06736,-0.16534 0.004,-2.5e-4 0.007,-5.2e-4 0.01022,-10e-4 0.357891,-0.0435 0.721942,-0.0688 1.072898,-0.14684 a 8.5162033,8.2985896 0 0 0 1.282558,-4.35924 8.5162033,8.2985896 0 0 0 -8.516012,-8.29891 z"
         style="opacity:1;fill:url(#radialGradient1056);fill-opacity:1;fill-rule:nonzero;stroke:none;stroke-width:0.19899565;stroke-miterlimit:4;stroke-dasharray:none;stroke-opacity:0.66666667" />
      <path
         sodipodi:nodetypes="aaaaaaaaaaa"
         inkscape:connector-curvature="0"
         id="path910"
         d="m 15.033494,295.18134 c -0.11832,0.10495 -0.09003,0.31341 -0.0664,0.4698 0.02213,0.14693 0.101043,0.28419 0.189803,0.40336 0.109078,0.14644 0.246281,0.28081 0.4081,0.3654 0.400532,0.20937 0.867493,0.29814 1.31919,0.31319 0.391141,0.0131 0.804494,-0.0263 1.15785,-0.19456 0.159884,-0.0762 0.269032,-0.23047 0.398608,-0.35116 0.104762,-0.0976 0.255873,-0.16725 0.30607,-0.30133 0.06869,-0.1835 0.09052,-0.4446 -0.04506,-0.58606 -0.321862,-0.33586 -0.921,-0.14318 -1.385628,-0.16609 -0.76007,-0.0375 -1.713153,-0.45751 -2.282482,0.0474 z"
         style="opacity:1;fill:#748498;fill-opacity:1;stroke:none;stroke-width:0.1;stroke-linecap:butt;stroke-linejoin:miter;stroke-miterlimit:4;stroke-dasharray:none;stroke-opacity:1" />
      <path
         style="opacity:0.003;fill:#000000;fill-opacity:1;stroke:none;stroke-width:0.1;stroke-linecap:butt;stroke-linejoin:miter;stroke-miterlimit:4;stroke-dasharray:none;stroke-opacity:1"
         d="m 20.409592,291.30637 c 0.114113,0.0617 0.159515,0.2277 0.154341,0.35736 -0.006,0.14674 -0.207898,0.24239 -0.206353,0.38924 9.97e-4,0.12298 0.132886,0.20852 0.179614,0.32228 0.133315,0.32462 -0.04297,0.55376 -0.144381,0.66592 -0.127672,0.14111 0.110634,0.22934 0.142078,0.35188 0.04995,0.19456 0.02154,0.45779 -0.07387,0.65609 -0.06989,0.14511 -0.257099,0.20458 -0.341632,0.34167 -0.0973,0.15776 -0.06221,0.38065 -0.174808,0.52785 -0.216273,0.2826 -0.559111,0.45921 -0.890543,0.58881 -0.649635,0.25401 -1.367912,0.33717 -2.065452,0.33603 -0.790567,-0.001 -1.592758,-0.12943 -2.339648,-0.38857 -0.184768,-0.0641 -0.354841,-0.16929 -0.513958,-0.28302 -0.108211,-0.0774 -0.194947,-0.18109 -0.295272,-0.26844 -0.184489,-0.16059 -0.46068,-0.24792 -0.563716,-0.46977 -0.07308,-0.15724 -0.07218,-0.36405 0.003,-0.5201 0.06411,-0.13248 0.247707,-0.15888 0.231517,-0.27851 -0.01904,-0.14087 -0.233191,-0.22391 -0.275144,-0.37246 -0.07417,-0.26257 0.102488,-0.54339 0.247498,-0.64699 0.119796,-0.0855 -0.219473,-0.28147 -0.264446,-0.41342 -0.09601,-0.28157 0.06859,-0.47208 0.239093,-0.57885 0.356825,-0.22349 0.8257,0.0304 1.238754,0.034 1.300218,0.0116 2.60567,0.0795 3.900633,-0.038 0.610564,-0.0553 1.27318,-0.60485 1.812371,-0.31307 z"
         id="path934"
         inkscape:connector-curvature="0"
         sodipodi:nodetypes="caasssaaaaaaaaassssssaaac" />
      <path
         sodipodi:nodetypes="caasssaaaaaaaaassssssaaac"
         inkscape:connector-curvature="0"
         id="path908"
         d="m 20.409592,291.20007 c 0.114113,0.0617 0.159515,0.22771 0.154341,0.35736 -0.006,0.14674 -0.207898,0.2424 -0.206353,0.38924 9.97e-4,0.12298 0.132886,0.20852 0.179614,0.32228 0.133315,0.32462 -0.04297,0.55376 -0.144381,0.66592 -0.127672,0.14111 0.110634,0.22936 0.142078,0.35188 0.04995,0.19457 0.02154,0.45781 -0.07387,0.65609 -0.06989,0.14511 -0.257099,0.20458 -0.341632,0.34168 -0.0973,0.15775 -0.06221,0.38065 -0.174808,0.52784 -0.216273,0.2826 -0.559111,0.45921 -0.890543,0.58881 -0.649635,0.25401 -1.367912,0.33717 -2.065452,0.33603 -0.790567,-10e-4 -1.592758,-0.12943 -2.339648,-0.38857 -0.184768,-0.0641 -0.354841,-0.16928 -0.513958,-0.28302 -0.108211,-0.0774 -0.194947,-0.18109 -0.295272,-0.26844 -0.184489,-0.16059 -0.46068,-0.24792 -0.563716,-0.46976 -0.07308,-0.15725 -0.07218,-0.36405 0.003,-0.52011 0.06411,-0.13247 0.247707,-0.15887 0.231517,-0.2785 -0.01904,-0.14088 -0.233191,-0.22392 -0.275144,-0.37247 -0.07417,-0.26257 0.102488,-0.54339 0.247498,-0.64699 0.119796,-0.0855 -0.219473,-0.28147 -0.264446,-0.41342 -0.09601,-0.28156 0.06859,-0.47208 0.239093,-0.57884 0.356825,-0.2235 0.8257,0.0304 1.238754,0.034 1.300218,0.0116 2.60567,0.0795 3.900633,-0.038 0.610564,-0.0553 1.27318,-0.60485 1.812371,-0.31307 z"
         style="opacity:1;fill:url(#radialGradient1014);fill-opacity:1;stroke:#768499;stroke-width:0.2;stroke-linecap:butt;stroke-linejoin:miter;stroke-miterlimit:4;stroke-dasharray:none;stroke-opacity:1" />
      <path
         sodipodi:nodetypes="sasaaas"
         inkscape:connector-curvature="0"
         id="path912"
         d="m 13.686937,292.03338 c 0.557286,0.27338 2.034705,0.33521 3.058523,0.30038 1.106746,-0.0377 2.212535,-0.37134 3.27653,-0.54868 0.241147,-0.0402 0.540807,-0.39373 0.416066,-0.604 -0.929455,-1.56671 -3.614553,0.60226 -5.435787,0.56373 -0.339059,-0.007 -0.694888,-0.28116 -1.00663,-0.14764 -0.163742,0.0701 -0.468626,0.35777 -0.308702,0.43621 z"
         style="opacity:0.25;fill:#000000;fill-opacity:1;stroke:none;stroke-width:0.26458332px;stroke-linecap:butt;stroke-linejoin:miter;stroke-opacity:1" />
      <path
         id="path884"
         d="m 8.9844516,276.71091 c -0.1290178,0.009 -0.2560217,0.22434 -0.1800925,0.64194 0.043767,0.24054 0.7951629,1.63101 1.4156669,3.08582 0.456712,1.07081 0.801663,2.18879 1.03284,2.84594 0.551514,1.5678 1.208088,4.6711 1.246053,5.25954 0.02213,0.34292 0.0989,0.91517 0.158607,1.45161 0.04277,0.38406 0.03469,0.78686 0.227748,1.05229 0.243002,0.33403 0.687789,0.48784 1.086408,0.59615 0.852817,0.23171 2.057027,0.34658 2.903683,0.34307 0.846657,0.004 2.050846,-0.11135 2.903684,-0.34307 0.398618,-0.10831 0.843406,-0.26212 1.086408,-0.59615 0.193093,-0.26543 0.184967,-0.66823 0.227747,-1.05229 0.05972,-0.53644 0.136485,-1.10869 0.158608,-1.45161 0.03798,-0.58844 0.694539,-3.69174 1.246052,-5.25954 0.231178,-0.65715 0.576129,-1.77513 1.032851,-2.84594 0.620504,-1.45481 1.37193,-2.84528 1.415667,-3.08582 0.07597,-0.4176 -0.05104,-0.6328 -0.180103,-0.64194 -0.07916,-0.006 -0.206163,0.12335 -0.319509,0.15996 -0.424699,0.13721 -0.878828,0.1591 -1.321722,0.21426 -0.003,4.2e-4 -0.006,7.4e-4 -0.01,9.9e-4 -0.613415,0.0625 -1.34227,0.12111 -2.077734,0.17045 -1.386037,0.0726 -2.774347,0.13029 -4.162298,0.13879 -1.387951,-0.009 -2.776261,-0.0663 -4.162297,-0.13879 -0.735654,-0.0494 -1.464638,-0.10803 -2.078143,-0.17056 -0.003,-3.7e-4 -0.006,-6.4e-4 -0.009,-9.9e-4 -0.442884,-0.0551 -0.8969137,-0.0771 -1.3216227,-0.21426 -0.1133355,-0.0366 -0.2404192,-0.16556 -0.3196085,-0.15996 z"
         style="opacity:1;fill:#d7e3f3;fill-opacity:1;stroke:#768499;stroke-width:0.2;stroke-linecap:butt;stroke-linejoin:miter;stroke-miterlimit:4;stroke-dasharray:none;stroke-opacity:1"
         inkscape:connector-curvature="0" />
      <path
         transform="matrix(0.99696948,0,0,0.99699391,156.9454,64.02011)"
         sodipodi:nodetypes="cc"
         inkscape:original-d="m -143.74988,229.33952 c 1.01074,-0.21115 4.02324,0.70891 6.69452,-0.58502"
         inkscape:path-effect="#path-effect972"
         inkscape:connector-curvature="0"
         id="path970"
         d="m -143.74988,229.33952 c -0.0116,-0.0556 0.26733,-0.18453 0.77498,-0.21868 0.50222,-0.0338 1.21494,0.0761 1.9578,0.0939 0,0 0,0 0,0 0.21303,0.004 0.4339,0.004 0.65948,-6e-5 1.84518,-0.0358 3.24375,-0.581 3.30226,-0.4602 0.0805,0.16617 -1.31583,0.91218 -3.29306,0.94841 -0.2354,0.004 -0.46468,-3.2e-4 -0.68513,-0.0116 0,0 0,0 0,0 -0.81284,-0.0358 -1.47789,-0.20946 -1.94726,-0.26185 -0.46424,-0.0518 -0.75679,-0.0312 -0.76907,-0.09 z"
         style="fill:#92a6bf;fill-opacity:1;stroke:none;stroke-width:0.26538432px;stroke-linecap:butt;stroke-linejoin:miter;stroke-opacity:1" />
      <path
         transform="matrix(0.99696948,0,0,0.99699391,156.9454,64.02011)"
         style="fill:#92a6bf;fill-opacity:1;stroke:none;stroke-width:0.26538432px;stroke-linecap:butt;stroke-linejoin:miter;stroke-opacity:1"
         d="m -143.67237,230.21435 c -0.006,-0.0735 0.35212,-0.17852 0.95673,-0.18329 0.59971,-0.005 1.42336,0.1282 2.29431,0.16266 0.0666,0.002 0.13378,0.003 0.20158,0.004 1.84186,0.0152 3.08219,-0.89384 3.18902,-0.78311 0.0457,0.0474 -0.1629,0.40377 -0.72764,0.74829 -0.58202,0.35507 -1.42522,0.61497 -2.46919,0.59499 -0.0736,-0.001 -0.14639,-0.004 -0.21832,-0.008 -0.75134,-0.0364 -1.92353,-0.27523 -2.29902,-0.33773 -0.56206,-0.0935 -0.92174,-0.12395 -0.92747,-0.19755 z"
         id="path978"
         inkscape:connector-curvature="0"
         inkscape:path-effect="#path-effect980"
         inkscape:original-d="m -143.67237,230.21435 c 1.7381,-0.13526 4.68473,1.08804 6.64163,-0.79975"
         sodipodi:nodetypes="cc" />
      <path
         transform="matrix(0.99696948,0,0,0.99699391,156.9454,64.02011)"
         sodipodi:nodetypes="cc"
         inkscape:original-d="m -143.60835,231.27772 c 1.61694,-0.28334 4.57703,0.96016 6.53393,-0.92764"
         inkscape:path-effect="#path-effect984"
         inkscape:connector-curvature="0"
         id="path982"
         d="m -143.60835,231.27772 c -0.01,-0.0567 0.32594,-0.18432 0.90988,-0.20949 0.57902,-0.025 1.38685,0.0984 2.23702,0.12418 0,0 0,0 0,0 0.0823,0.002 0.16559,0.002 0.24978,0.002 1.83148,-0.0119 3.05144,-0.9332 3.13725,-0.84424 0.0356,0.0369 -0.17831,0.37695 -0.73001,0.70615 -0.57134,0.34093 -1.38576,0.59042 -2.40623,0.58865 -0.0897,-1.5e-4 -0.17834,-0.002 -0.26563,-0.006 0,0 0,0 0,0 -0.90916,-0.0327 -1.68074,-0.21069 -2.23056,-0.26678 -0.545,-0.0556 -0.8912,-0.0355 -0.9015,-0.0942 z"
         style="fill:#92a6bf;fill-opacity:1;stroke:none;stroke-width:0.26538432px;stroke-linecap:butt;stroke-linejoin:miter;stroke-opacity:1" />
      <path
         inkscape:connector-curvature="0"
         style="opacity:1;fill:url(#linearGradient1030);fill-opacity:1;stroke:none;stroke-width:0.09863926;stroke-linecap:butt;stroke-linejoin:miter;stroke-miterlimit:4;stroke-dasharray:none;stroke-opacity:1"
         d="m 9.4451921,277.15688 c -0.1214798,0.008 -0.2410715,0.21123 -0.1695683,0.60446 0.041205,0.2265 0.7487342,1.53578 1.3330032,2.90564 0.430042,1.00829 0.754851,2.06098 0.972527,2.67978 0.519316,1.47624 1.137552,4.39835 1.173299,4.95244 0.02085,0.32289 0.09322,0.86174 0.149339,1.36685 0.04032,0.36164 0.03265,0.74092 0.214462,0.99085 0.228807,0.31452 0.64763,0.45936 1.022975,0.56134 0.803017,0.21819 1.936931,0.32636 2.734146,0.32304 0.797226,0.003 1.931109,-0.10481 2.734138,-0.32304 0.375335,-0.102 0.794166,-0.24682 1.022975,-0.56134 0.181831,-0.24993 0.17417,-0.62921 0.21446,-0.99085 0.05625,-0.50511 0.128502,-1.04396 0.14934,-1.36685 0.0358,-0.55409 0.653983,-3.4762 1.173298,-4.95244 0.217688,-0.6188 0.542486,-1.67149 0.972547,-2.67978 0.58428,-1.36986 1.291819,-2.67914 1.333013,-2.90564 0.07149,-0.39323 -0.04809,-0.59586 -0.169587,-0.60446 -0.07444,-0.006 -0.194124,0.11615 -0.300863,0.15063 -0.3999,0.12918 -0.827524,0.14981 -1.244546,0.20172 -0.002,4.2e-4 -0.0059,7.1e-4 -0.0089,9.5e-4 -0.577592,0.0588 -1.263899,0.11404 -1.956422,0.1605 -1.305104,0.0684 -2.612353,0.12266 -3.919266,0.13068 -1.306924,-0.008 -2.614161,-0.0624 -3.919267,-0.13068 -0.692709,-0.0465 -1.379124,-0.1018 -1.956814,-0.1606 -0.002,-3.5e-4 -0.0059,-6.2e-4 -0.0079,-9.4e-4 -0.417023,-0.052 -0.844527,-0.0727 -1.2444484,-0.20174 -0.1067287,-0.0345 -0.2263793,-0.1559 -0.3009508,-0.15062 z"
         id="path1028" />
    </g>
  </g>
</svg>
