<?xml version="1.0" encoding="UTF-8" standalone="no"?>
<!-- Created with Inkscape (http://www.inkscape.org/) -->

<svg
   xmlns:osb="http://www.openswatchbook.org/uri/2009/osb"
   xmlns:dc="http://purl.org/dc/elements/1.1/"
   xmlns:cc="http://creativecommons.org/ns#"
   xmlns:rdf="http://www.w3.org/1999/02/22-rdf-syntax-ns#"
   xmlns:svg="http://www.w3.org/2000/svg"
   xmlns="http://www.w3.org/2000/svg"
   xmlns:xlink="http://www.w3.org/1999/xlink"
   xmlns:sodipodi="http://sodipodi.sourceforge.net/DTD/sodipodi-0.dtd"
   xmlns:inkscape="http://www.inkscape.org/namespaces/inkscape"
   width="128"
   height="128"
   viewBox="0 0 33.866666 33.866668"
   version="1.1"
   id="svg1038"
   inkscape:version="0.92.2 5c3e80d, 2017-08-06"
   sodipodi:docname="preferences-desktop-wallpaper.svg">
  <defs
     id="defs1032">
    <linearGradient
       inkscape:collect="always"
       id="linearGradient1014">
      <stop
         style="stop-color:#7666ce;stop-opacity:1"
         offset="0"
         id="stop1000" />
      <stop
         id="stop1002"
         offset="0.17321716"
         style="stop-color:#8491d8;stop-opacity:1" />
      <stop
         style="stop-color:#8b74da;stop-opacity:1"
         offset="0.31329748"
         id="stop1004" />
      <stop
         id="stop1006"
         offset="0.5"
         style="stop-color:#c199ee;stop-opacity:1" />
      <stop
         style="stop-color:#e5b3fb;stop-opacity:1"
         offset="0.68477499"
         id="stop1008" />
      <stop
         style="stop-color:#8478d7;stop-opacity:1"
         offset="0.86264777"
         id="stop1010" />
      <stop
         style="stop-color:#6d2f93;stop-opacity:0.99215686"
         offset="1"
         id="stop1012" />
    </linearGradient>
    <linearGradient
       osb:paint="solid"
       id="linearGradient6987">
      <stop
         id="stop6985"
         offset="0"
         style="stop-color:#77d2fb;stop-opacity:1;" />
    </linearGradient>
    <linearGradient
       inkscape:collect="always"
       xlink:href="#linearGradient1014"
       id="linearGradient998"
       x1="4.7414303"
       y1="295.51337"
       x2="32.669273"
       y2="272.36636"
       gradientUnits="userSpaceOnUse" />
  </defs>
  <sodipodi:namedview
     id="base"
     pagecolor="#ffffff"
     bordercolor="#666666"
     borderopacity="1.0"
     inkscape:pageopacity="0.0"
     inkscape:pageshadow="2"
     inkscape:zoom="2.4140626"
     inkscape:cx="-20.564039"
     inkscape:cy="63.115198"
     inkscape:document-units="mm"
     inkscape:current-layer="layer1"
     showgrid="false"
     inkscape:window-width="1600"
     inkscape:window-height="803"
     inkscape:window-x="0"
     inkscape:window-y="0"
     inkscape:window-maximized="1"
     units="px" />
  <metadata
     id="metadata1035">
    <rdf:RDF>
      <cc:Work
         rdf:about="">
        <dc:format>image/svg+xml</dc:format>
        <dc:type
           rdf:resource="http://purl.org/dc/dcmitype/StillImage" />
        <dc:title />
      </cc:Work>
    </rdf:RDF>
  </metadata>
  <g
     inkscape:label="Layer 1"
     inkscape:groupmode="layer"
     id="layer1"
     transform="translate(0,-263.13332)">
    <g
       style="stroke-width:4.08449793"
       inkscape:transform-center-y="-9.4924686"
       inkscape:transform-center-x="5.4653607"
       inkscape:label="Capa 1"
       id="layer1-4-9"
       transform="matrix(0.51049882,0,0,0.51168433,-222.93983,0.2078319)">
      <g
         style="stroke-width:4.08449793"
         id="layer1-3-65-0"
         inkscape:label="Capa 1"
         transform="translate(0.41988239,0.03484499)" />
    </g>
    <g
       style="stroke-width:4.08449793"
       inkscape:transform-center-y="-9.4924686"
       inkscape:transform-center-x="5.4653607"
       inkscape:label="Capa 1"
       id="layer1-4"
       transform="matrix(0.51049882,0,0,0.51168433,-222.93983,0.23164141)">
      <g
         style="stroke-width:4.08449793"
         id="layer1-3-65"
         inkscape:label="Capa 1"
         transform="translate(0.41988239,0.03484499)" />
    </g>
    <g
       id="g1035"
       transform="matrix(0.99985039,0,0,0.99985039,-0.04507841,0.04428259)">
      <rect
         style="opacity:0.25;fill:#000000;fill-opacity:1;stroke:none;stroke-width:0.04761901;stroke-linecap:round;stroke-linejoin:round;stroke-miterlimit:4;stroke-dasharray:none;stroke-opacity:1"
         id="rect1411"
         width="27.927845"
         height="23.575283"
         x="4.7414303"
         y="272.36636"
         ry="1.4295199" />
      <rect
         ry="1.4295199"
         y="271.93808"
         x="4.7414303"
         height="23.575283"
         width="27.927845"
         id="rect1367"
         style="opacity:1;fill:url(#linearGradient998);fill-opacity:1;stroke:#652880;stroke-width:0.2;stroke-linecap:round;stroke-linejoin:round;stroke-miterlimit:4;stroke-dasharray:none;stroke-opacity:1" />
      <rect
         ry="1.4295199"
         y="264.71664"
         x="1.2926292"
         height="23.575283"
         width="27.927845"
         id="rect1433"
         style="opacity:0.25;fill:#000000;fill-opacity:1;stroke:#528bba;stroke-width:0.04761901;stroke-linecap:round;stroke-linejoin:round;stroke-miterlimit:4;stroke-dasharray:none;stroke-opacity:1" />
      <rect
         style="opacity:1;fill:#4ab5ff;fill-opacity:1;stroke:#4778a1;stroke-width:0.2;stroke-linecap:round;stroke-linejoin:round;stroke-miterlimit:4;stroke-dasharray:none;stroke-opacity:1"
         id="rect849"
         width="27.927845"
         height="23.575283"
         x="1.2926292"
         y="264.2869"
         ry="1.4295199" />
      <path
         inkscape:connector-curvature="0"
         style="opacity:0.25;fill:#000000;fill-opacity:1;stroke:none;stroke-width:0.23549327;stroke-linecap:round;stroke-linejoin:round;stroke-miterlimit:4;stroke-dasharray:none;stroke-opacity:1"
         d="m 2.8145811,264.71532 c -0.7864458,0 -1.4196248,0.63763 -1.4196248,1.42958 v 3.59815 H 29.12845 v -3.59815 c 0,-0.79195 -0.633185,-1.42958 -1.41962,-1.42958 z"
         id="path1365" />
      <path
         id="rect1356"
         d="m 2.8078151,264.38463 c -0.786484,0 -1.4197088,0.62526 -1.4197088,1.40184 v 3.5284 H 29.123607 v -3.5284 c 0,-0.77658 -0.633231,-1.40184 -1.419724,-1.40184 z"
         style="opacity:1;fill:#d4efff;fill-opacity:1;stroke:none;stroke-width:0.23320733;stroke-linecap:round;stroke-linejoin:round;stroke-miterlimit:4;stroke-dasharray:none;stroke-opacity:1"
         inkscape:connector-curvature="0" />
      <g
         style="fill:#436489;fill-opacity:1;stroke-width:0.50882262"
         transform="matrix(1.8717369,0,0,1.8717304,156.67073,-253.80238)"
         id="g1363">
        <path
           inkscape:connector-curvature="0"
           id="path855"
           d="m -69.92275,277.29883 a 0.5998883,0.5998883 0 0 0 -0.599848,0.5999 0.5998883,0.5998883 0 0 0 0.599848,0.5999 0.5998883,0.5998883 0 0 0 0.327596,-0.0979 l 0.430138,0.41622 c 0.03972,0.0384 0.09444,0.0478 0.122667,0.0211 l 0.04129,-0.0392 c 0.02822,-0.0268 0.01897,-0.0792 -0.02072,-0.11769 l -0.427816,-0.41388 a 0.5998883,0.5998883 0 0 0 0.126759,-0.36845 0.5998883,0.5998883 0 0 0 -0.599908,-0.59991 z m -0.0073,0.19977 a 0.40733152,0.40733152 0 0 1 0.04068,0.002 0.40733152,0.40733152 0 0 1 0.04025,0.006 0.40733152,0.40733152 0 0 1 0.03947,0.01 0.40733152,0.40733152 0 0 1 0.03825,0.014 0.40733152,0.40733152 0 0 1 0.03665,0.0176 0.40733152,0.40733152 0 0 1 0.03472,0.0213 0.40733152,0.40733152 0 0 1 0.0324,0.0247 0.40733152,0.40733152 0 0 1 0.02979,0.0278 0.40733152,0.40733152 0 0 1 0.02687,0.0306 0.40733152,0.40733152 0 0 1 0.02372,0.0332 0.40733152,0.40733152 0 0 1 0.02021,0.0352 0.40733152,0.40733152 0 0 1 0.01663,0.0372 0.40733152,0.40733152 0 0 1 0.01282,0.0387 0.40733152,0.40733152 0 0 1 0.009,0.0397 0.40733152,0.40733152 0 0 1 0.0048,0.0404 0.40733152,0.40733152 0 0 1 9.84e-4,0.0288 0.40733152,0.40733152 0 0 1 -0.0021,0.0406 0.40733152,0.40733152 0 0 1 -0.0061,0.0403 0.40733152,0.40733152 0 0 1 -0.0101,0.0395 0.40733152,0.40733152 0 0 1 -0.01398,0.0383 0.40733152,0.40733152 0 0 1 -0.01769,0.0366 0.40733152,0.40733152 0 0 1 -0.02128,0.0347 0.40733152,0.40733152 0 0 1 -0.02463,0.0325 0.40733152,0.40733152 0 0 1 -0.02775,0.0297 0.40733152,0.40733152 0 0 1 -0.03057,0.027 0.40733152,0.40733152 0 0 1 -0.03312,0.0237 0.40733152,0.40733152 0 0 1 -0.03532,0.0203 0.40733152,0.40733152 0 0 1 -0.0372,0.0165 0.40733152,0.40733152 0 0 1 -0.03864,0.0129 0.40733152,0.40733152 0 0 1 -0.03969,0.009 0.40733152,0.40733152 0 0 1 -0.04041,0.005 0.40733152,0.40733152 0 0 1 -0.02886,9.9e-4 0.40733152,0.40733152 0 0 1 -0.04063,-0.002 0.40733152,0.40733152 0 0 1 -0.04024,-0.006 0.40733152,0.40733152 0 0 1 -0.03947,-0.0101 0.40733152,0.40733152 0 0 1 -0.03825,-0.014 0.40733152,0.40733152 0 0 1 -0.03665,-0.0177 0.40733152,0.40733152 0 0 1 -0.03472,-0.0213 0.40733152,0.40733152 0 0 1 -0.0324,-0.0246 0.40733152,0.40733152 0 0 1 -0.0298,-0.0278 0.40733152,0.40733152 0 0 1 -0.02687,-0.0306 0.40733152,0.40733152 0 0 1 -0.02373,-0.0332 0.40733152,0.40733152 0 0 1 -0.02021,-0.0353 0.40733152,0.40733152 0 0 1 -0.01663,-0.0372 0.40733152,0.40733152 0 0 1 -0.01279,-0.0387 0.40733152,0.40733152 0 0 1 -0.009,-0.0398 0.40733152,0.40733152 0 0 1 -0.0049,-0.0405 0.40733152,0.40733152 0 0 1 -9.84e-4,-0.0288 0.40733152,0.40733152 0 0 1 0.0021,-0.0406 0.40733152,0.40733152 0 0 1 0.0061,-0.0403 0.40733152,0.40733152 0 0 1 0.01007,-0.0395 0.40733152,0.40733152 0 0 1 0.014,-0.0383 0.40733152,0.40733152 0 0 1 0.01767,-0.0366 0.40733152,0.40733152 0 0 1 0.02125,-0.0347 0.40733152,0.40733152 0 0 1 0.02463,-0.0324 0.40733152,0.40733152 0 0 1 0.02775,-0.0298 0.40733152,0.40733152 0 0 1 0.03057,-0.0269 0.40733152,0.40733152 0 0 1 0.03312,-0.0237 0.40733152,0.40733152 0 0 1 0.03532,-0.0202 0.40733152,0.40733152 0 0 1 0.03714,-0.0166 0.40733152,0.40733152 0 0 1 0.03865,-0.0128 0.40733152,0.40733152 0 0 1 0.03975,-0.009 0.40733152,0.40733152 0 0 1 0.04041,-0.005 0.40733152,0.40733152 0 0 1 0.02881,-9.9e-4 z"
           style="opacity:1;fill:#436489;fill-opacity:1;stroke:none;stroke-width:0.02120952" />
        <path
           inkscape:connector-curvature="0"
           id="path853"
           d="m -82.022476,278.88759 c -0.0071,-0.002 -0.0106,-0.003 -0.0079,-0.004 0.0026,-1.8e-4 -8.83e-4,-0.003 -0.0079,-0.004 -0.0265,-0.006 -0.06686,-0.031 -0.100166,-0.0616 -0.03259,-0.0299 -0.09862,-0.11585 -0.135567,-0.17649 -0.06351,-0.10423 -0.112487,-0.23645 -0.1332,-0.35955 -0.01387,-0.0825 -0.01475,-0.18165 -0.0027,-0.25264 0.03807,-0.21487 0.198299,-0.36506 0.389893,-0.3654 0.03931,-7e-5 0.06757,0.005 0.122513,0.025 0.125189,0.0439 0.125056,0.0439 0.146246,0.0438 0.01643,-3e-5 0.0295,-0.004 0.0636,-0.0151 0.155645,-0.0548 0.16666,-0.0574 0.230601,-0.0571 0.08647,1.8e-4 0.169257,0.0267 0.232447,0.0738 0.02429,0.018 0.05644,0.0498 0.07066,0.0698 l 0.0071,0.01 -0.02774,0.0208 c -0.105086,0.0785 -0.153428,0.18601 -0.143509,0.31921 0.0035,0.0437 0.01069,0.076 0.02623,0.11415 0.02862,0.0701 0.09698,0.14463 0.165052,0.17981 0.01184,0.006 0.02146,0.0128 0.02146,0.0148 3.5e-5,0.0103 -0.0265,0.0753 -0.04973,0.12191 -0.03577,0.0718 -0.08356,0.14327 -0.137706,0.20622 -0.03904,0.0454 -0.08982,0.0785 -0.134004,0.0875 -0.01122,0.003 -0.01828,0.005 -0.01563,0.006 0.0027,8.7e-4 -0.0062,0.002 -0.01908,0.003 -0.01404,6e-5 -0.02208,-8.7e-4 -0.01961,-0.003 0.0027,-0.002 -0.0027,-0.004 -0.01369,-0.005 -0.01943,-0.003 -0.05468,-0.0133 -0.106649,-0.0333 -0.05185,-0.02 -0.0917,-0.027 -0.139949,-0.0248 -0.04249,0.002 -0.06925,0.008 -0.114501,0.0244 -0.05671,0.021 -0.08926,0.0318 -0.101596,0.0338 -0.0071,0.002 -0.01201,0.004 -0.01104,0.005 8.83e-4,0.002 -0.0018,0.003 -0.0062,0.003 -0.0044,0 -0.01404,6.8e-4 -0.02164,0.002 -0.0079,6.7e-4 -0.0197,1.2e-4 -0.02667,-0.002 z m 0.26769,-1.25543 c -0.0044,-0.004 -0.0027,-0.0618 0.0027,-0.0858 0.01793,-0.087 0.07958,-0.1738 0.15856,-0.22333 0.0333,-0.0208 0.07773,-0.0404 0.109007,-0.0477 0.0129,-0.004 0.02244,-0.007 0.02129,-0.008 -0.0018,-0.002 0.0026,-0.003 0.0079,-0.003 0.0053,0 0.01175,-8.6e-4 0.01413,-0.002 0.0096,-0.004 8e-5,0.0875 -0.0136,0.13048 -0.03286,0.10296 -0.118317,0.19647 -0.206346,0.22576 -0.03189,0.0106 -0.08771,0.0179 -0.09343,0.0123 z"
           style="opacity:1;fill:#436489;fill-opacity:1;stroke-width:0.00183219" />
      </g>
    </g>
  </g>
</svg>
