<?xml version="1.0" encoding="UTF-8" standalone="no"?>
<!-- Created with Inkscape (http://www.inkscape.org/) -->

<svg
   xmlns:dc="http://purl.org/dc/elements/1.1/"
   xmlns:cc="http://creativecommons.org/ns#"
   xmlns:rdf="http://www.w3.org/1999/02/22-rdf-syntax-ns#"
   xmlns:svg="http://www.w3.org/2000/svg"
   xmlns="http://www.w3.org/2000/svg"
   xmlns:xlink="http://www.w3.org/1999/xlink"
   xmlns:sodipodi="http://sodipodi.sourceforge.net/DTD/sodipodi-0.dtd"
   xmlns:inkscape="http://www.inkscape.org/namespaces/inkscape"
   width="128"
   height="128"
   viewBox="0 0 33.866666 33.866668"
   version="1.1"
   id="svg8"
   inkscape:version="0.92.2 5c3e80d, 2017-08-06"
   sodipodi:docname="preferences-plugin.svg">
  <defs
     id="defs2">
    <linearGradient
       inkscape:collect="always"
       id="linearGradient910">
      <stop
         style="stop-color:#aab1b2;stop-opacity:1"
         offset="0"
         id="stop906" />
      <stop
         style="stop-color:#d3e5e9;stop-opacity:1"
         offset="1"
         id="stop908" />
    </linearGradient>
    <linearGradient
       inkscape:collect="always"
       xlink:href="#linearGradient910"
       id="linearGradient912"
       x1="82.212303"
       y1="195.96344"
       x2="84.651352"
       y2="56.983292"
       gradientUnits="userSpaceOnUse"
       gradientTransform="matrix(0.20090754,0,0,0.20096759,-2.4062037,254.67929)" />
  </defs>
  <sodipodi:namedview
     id="base"
     pagecolor="#ffffff"
     bordercolor="#666666"
     borderopacity="1.0"
     inkscape:pageopacity="0.0"
     inkscape:pageshadow="2"
     inkscape:zoom="4.7795999"
     inkscape:cx="38.013336"
     inkscape:cy="41.80565"
     inkscape:document-units="mm"
     inkscape:current-layer="layer1"
     showgrid="false"
     units="px"
     inkscape:window-width="1600"
     inkscape:window-height="811"
     inkscape:window-x="0"
     inkscape:window-y="0"
     inkscape:window-maximized="1" />
  <metadata
     id="metadata5">
    <rdf:RDF>
      <cc:Work
         rdf:about="">
        <dc:format>image/svg+xml</dc:format>
        <dc:type
           rdf:resource="http://purl.org/dc/dcmitype/StillImage" />
        <dc:title />
      </cc:Work>
    </rdf:RDF>
  </metadata>
  <g
     inkscape:label="Layer 1"
     inkscape:groupmode="layer"
     id="layer1"
     transform="translate(0,-263.13332)">
    <g
       id="g826"
       transform="matrix(0.95238083,0,0,0.95238083,0.8063518,13.336641)">
      <path
         inkscape:connector-curvature="0"
         id="path916"
         d="m 3.2943032,295.15846 c -0.7221705,-0.11057 -1.3951205,-0.45257 -1.9149463,-0.97317 -0.43701456,-0.43767 -0.74063562,-0.97834 -0.91398294,-1.62754 l -0.0769711,-0.28829 v -4.37788 c 0,-4.2165 0.00249,-4.38507 0.067651,-4.57285 0.24515324,-0.70656 0.53166545,-1.04119 1.01420364,-1.18453 0.3510399,-0.10428 0.789729,-0.0532 1.1616227,0.13534 0.093043,0.0471 0.2961,0.19161 0.4512366,0.32099 0.6395433,0.53337 1.2387824,0.64212 1.881208,0.3414 0.5642263,-0.26412 0.8892446,-0.8188 1.0270633,-1.75281 0.076936,-0.5214 0.050407,-1.4909 -0.053173,-1.9432 -0.1515704,-0.66188 -0.4555357,-1.17515 -0.8532847,-1.44084 -0.2822746,-0.18855 -0.5082237,-0.25445 -0.8725128,-0.25445 -0.3851037,0 -0.6156533,0.0753 -1.1744494,0.38361 -0.5182251,0.28592 -0.7891812,0.38589 -1.1323248,0.41779 -0.742842,0.069 -1.31126771,-0.33512 -1.48033738,-1.05261 -0.0798703,-0.33894 -0.0814533,-8.34137 -0.001779,-8.79861 0.10240494,-0.58741 0.37219961,-1.17783 0.78389328,-1.71549 0.4350749,-0.5682 1.1195327,-1.01076 1.8248372,-1.17989 0.2945606,-0.0706 0.3990199,-0.0713 10.7619695,-0.0716 9.362509,-1.9e-4 10.493287,0.005 10.737671,0.0553 1.238474,0.25192 2.249412,1.27526 2.640446,2.67284 0.07333,0.26209 0.0751,0.34098 0.09672,4.2904 0.01989,3.63343 0.02783,4.04357 0.08202,4.23158 0.07592,0.26338 0.169684,0.39505 0.345018,0.48452 0.449591,0.22944 0.969305,0.0702 1.547304,-0.47405 0.393021,-0.37009 0.640399,-0.501 1.063134,-0.56264 0.823619,-0.12008 1.695276,0.3107 2.2829,1.12823 0.7354,1.02312 1.040303,2.40433 0.863774,3.91289 -0.223643,1.91116 -1.244504,3.11925 -2.635835,3.11925 -0.613255,0 -1.030322,-0.16401 -1.618039,-0.63628 -0.485629,-0.39023 -0.772814,-0.53352 -1.069308,-0.53352 -0.440011,0 -0.674745,0.21904 -0.797763,0.74441 -0.02426,0.10362 -0.04576,1.5943 -0.06136,4.25382 -0.02369,4.03944 -0.02504,4.09794 -0.09994,4.36638 -0.297954,1.06774 -0.947934,1.854 -1.901015,2.29961 -0.158243,0.074 -0.415289,0.17128 -0.571216,0.21621 l -0.283502,0.0817 -10.471889,0.005 c -5.7595361,0.003 -10.5516211,-0.007 -10.6490752,-0.0216 z"
         style="opacity:0.25;fill:#000000;fill-opacity:1;stroke-width:1" />
      <path
         style="fill:url(#linearGradient912);fill-opacity:1;stroke:#666666;stroke-width:0.2;stroke-miterlimit:4;stroke-dasharray:none;stroke-opacity:1"
         d="m 3.2943032,294.68771 c -0.7221705,-0.11057 -1.3951205,-0.45256 -1.9149463,-0.97317 -0.43701456,-0.43767 -0.74063562,-0.97833 -0.91398294,-1.62753 l -0.0769711,-0.28829 v -4.37788 c 0,-4.21651 0.00249,-4.38508 0.067651,-4.57285 0.24515324,-0.70657 0.53166545,-1.0412 1.01420364,-1.18454 0.3510399,-0.10427 0.789729,-0.0532 1.1616227,0.13535 0.093043,0.0471 0.2961,0.19161 0.4512366,0.32099 0.6395433,0.53336 1.2387824,0.64211 1.881208,0.3414 0.5642263,-0.26412 0.8892446,-0.8188 1.0270633,-1.75282 0.076936,-0.5214 0.050407,-1.49089 -0.053173,-1.9432 -0.1515704,-0.66188 -0.4555357,-1.17515 -0.8532847,-1.44083 -0.2822746,-0.18856 -0.5082237,-0.25445 -0.8725128,-0.25445 -0.3851037,0 -0.6156533,0.0754 -1.1744494,0.38361 -0.5182251,0.28591 -0.7891812,0.38589 -1.1323248,0.41779 -0.742842,0.069 -1.31126771,-0.33512 -1.48033738,-1.05261 -0.0798703,-0.33895 -0.0814533,-8.34137 -0.001779,-8.79861 0.10240494,-0.58742 0.37219961,-1.17784 0.78389328,-1.7155 0.4350749,-0.5682 1.1195327,-1.01075 1.8248372,-1.17988 0.2945606,-0.0706 0.3990199,-0.0713 10.7619695,-0.0716 9.362509,-2e-4 10.493287,0.005 10.737671,0.0553 1.238474,0.25191 2.249412,1.27525 2.640446,2.67284 0.07333,0.26208 0.0751,0.34098 0.09672,4.29039 0.01989,3.63344 0.02783,4.04358 0.08202,4.23158 0.07592,0.26338 0.169684,0.39505 0.345018,0.48453 0.449591,0.22943 0.969305,0.0702 1.547304,-0.47406 0.393021,-0.37009 0.640399,-0.501 1.063134,-0.56264 0.823619,-0.12007 1.695276,0.3107 2.2829,1.12824 0.7354,1.02311 1.040303,2.40433 0.863774,3.91289 -0.223643,1.91115 -1.244504,3.11924 -2.635835,3.11924 -0.613255,0 -1.030322,-0.164 -1.618039,-0.63628 -0.485629,-0.39022 -0.772814,-0.53352 -1.069308,-0.53352 -0.440011,0 -0.674745,0.21904 -0.797763,0.74442 -0.02426,0.10362 -0.04576,1.5943 -0.06136,4.25381 -0.02369,4.03945 -0.02504,4.09795 -0.09994,4.36638 -0.297954,1.06774 -0.947934,1.85401 -1.901015,2.29961 -0.158243,0.074 -0.415289,0.17129 -0.571216,0.21622 l -0.283502,0.0817 -10.471889,0.005 c -5.7595361,0.003 -10.5516211,-0.007 -10.6490752,-0.0216 z"
         id="path894"
         inkscape:connector-curvature="0" />
    </g>
  </g>
</svg>
