<?xml version="1.0" encoding="UTF-8" standalone="no"?>
<svg
   xmlns:osb="http://www.openswatchbook.org/uri/2009/osb"
   xmlns:dc="http://purl.org/dc/elements/1.1/"
   xmlns:cc="http://creativecommons.org/ns#"
   xmlns:rdf="http://www.w3.org/1999/02/22-rdf-syntax-ns#"
   xmlns:svg="http://www.w3.org/2000/svg"
   xmlns="http://www.w3.org/2000/svg"
   xmlns:xlink="http://www.w3.org/1999/xlink"
   xmlns:sodipodi="http://sodipodi.sourceforge.net/DTD/sodipodi-0.dtd"
   xmlns:inkscape="http://www.inkscape.org/namespaces/inkscape"
   width="128"
   height="128"
   viewBox="0 0 128 128"
   version="1.1"
   id="svg129"
   sodipodi:docname="pycharm.svg"
   inkscape:version="0.92.2 5c3e80d, 2017-08-06">
  <metadata
     id="metadata133">
    <rdf:RDF>
      <cc:Work
         rdf:about="">
        <dc:format>image/svg+xml</dc:format>
        <dc:type
           rdf:resource="http://purl.org/dc/dcmitype/StillImage" />
        <dc:title />
      </cc:Work>
    </rdf:RDF>
  </metadata>
  <sodipodi:namedview
     pagecolor="#ffffff"
     bordercolor="#666666"
     borderopacity="1"
     objecttolerance="10"
     gridtolerance="10"
     guidetolerance="10"
     inkscape:pageopacity="0"
     inkscape:pageshadow="2"
     inkscape:window-width="1600"
     inkscape:window-height="803"
     id="namedview131"
     showgrid="false"
     inkscape:zoom="3.6874999"
     inkscape:cx="71.636316"
     inkscape:cy="47.742718"
     inkscape:window-x="0"
     inkscape:window-y="0"
     inkscape:window-maximized="1"
     inkscape:current-layer="svg129" />
  <defs
     id="defs70">
    <linearGradient
       inkscape:collect="always"
       id="linearGradient2008">
      <stop
         style="stop-color:#01cbd7;stop-opacity:1"
         offset="0"
         id="stop2004" />
      <stop
         style="stop-color:#01cbd7;stop-opacity:1"
         offset="1"
         id="stop2006" />
    </linearGradient>
    <linearGradient
       id="linearGradient2000"
       gradientUnits="userSpaceOnUse"
       x1="25.11768"
       y1="25.07728"
       x2="35.8092"
       y2="39.625801"
       spreadMethod="pad">
      <stop
         offset="0"
         style="stop-color:#C841BA"
         id="stop1996" />
      <stop
         offset="1"
         style="stop-color:#2387d7;stop-opacity:1"
         id="stop1998" />
    </linearGradient>
    <linearGradient
       osb:paint="solid"
       id="linearGradient6987">
      <stop
         id="stop6985"
         offset="0"
         style="stop-color:#77d2fb;stop-opacity:1;" />
    </linearGradient>
    <linearGradient
       y2="34.8647"
       x2="16.7826"
       y1="3.8575001"
       x1="16.7826"
       gradientUnits="userSpaceOnUse"
       id="SVGID_1_">
      <stop
         id="stop915"
         style="stop-color:#aed580;stop-opacity:1"
         offset="0" />
      <stop
         id="stop917"
         style="stop-color:#29a79c;stop-opacity:1"
         offset="1" />
    </linearGradient>
    <linearGradient
       y2="39.625801"
       x2="35.8092"
       y1="25.07728"
       x1="25.11768"
       gradientUnits="userSpaceOnUse"
       id="SVGID_2_"
       xlink:href="#linearGradient2000">
      <stop
         id="stop922"
         style="stop-color:#C841BA"
         offset="0" />
      <stop
         id="stop924"
         style="stop-color:#ffa92a;stop-opacity:1"
         offset="1" />
    </linearGradient>
    <linearGradient
       y2="30.0431"
       x2="33.758999"
       y1="9.5263004"
       x1="23.9412"
       gradientUnits="userSpaceOnUse"
       id="SVGID_3_"
       xlink:href="#SVGID_2_">
      <stop
         id="stop929"
         style="stop-color:#d0e824;stop-opacity:1"
         offset="0" />
      <stop
         id="stop931"
         style="stop-color:#ffa828;stop-opacity:1"
         offset="1" />
    </linearGradient>
    <linearGradient
       inkscape:collect="always"
       xlink:href="#linearGradient2008"
       id="linearGradient2010"
       x1="23.577389"
       y1="25.819801"
       x2="32.820629"
       y2="40.655857"
       gradientUnits="userSpaceOnUse" />
  </defs>
  <g
     id="g857">
    <path
       inkscape:connector-curvature="0"
       id="polygon842"
       d="M 25.537105,8.303455 4.205076,30.686271 16.792965,97.131576 40.392575,96.487053 37.734375,108.2644 76.203125,121.90502 120.96679,97.072993 108.75194,76.022196 123.77733,61.490933 109.09179,23.371789 79.712885,16.37766 69.041015,27.049534 67.501955,18.098366 Z"
       style="opacity:0.25;fill:#000000;stroke:none;stroke-width:0.37919584;stroke-miterlimit:4;stroke-dasharray:none;stroke-opacity:1" />
    <polygon
       transform="matrix(2.7783891,0,0,2.7783891,-4.130763,-2.33376)"
       id="polygon920"
       points="3,11.165 7.531,35.08 30.565,34.451 25.782,6.634 10.678,3.109 "
       style="fill:url(#SVGID_1_);stroke:#333333;stroke-width:0.13640998;stroke-miterlimit:4;stroke-dasharray:none;stroke-opacity:1" />
    <polygon
       transform="matrix(2.7783891,0,0,2.7783891,-4.130763,-2.33376)"
       id="polygon927"
       points="20.354,15.675 15.068,39.087 28.914,43.996 45.025,35.059 33.193,14.668 "
       style="fill:url(#linearGradient2010);fill-opacity:1;stroke:#333333;stroke-width:0.13640998;stroke-miterlimit:4;stroke-dasharray:none;stroke-opacity:1" />
    <path
       id="path851"
       d="m 98.669635,105.24505 h -72.23812 c -1.53367,0 -2.77839,-1.24475 -2.77839,-2.77841 V 30.228571 c 0,-1.533695 1.24472,-2.778445 2.77839,-2.778445 h 72.23812 c 1.533675,0 2.778375,1.24475 2.778375,2.778445 v 72.238069 c 0,1.53366 -1.2447,2.77841 -2.778375,2.77841 z"
       inkscape:connector-curvature="0"
       style="opacity:0.25;fill:#000000;stroke-width:2.77838898" />
    <polygon
       transform="matrix(2.7783891,0,0,2.7783891,-4.130763,-2.33376)"
       id="polygon934"
       points="30.177,6.015 40.751,8.532 46.037,22.252 34.583,33.329 15.577,28.168 20.108,16.084 "
       style="fill:url(#SVGID_3_);fill-opacity:1;stroke:#333333;stroke-width:0.13640998;stroke-miterlimit:4;stroke-dasharray:none;stroke-opacity:1" />
    <path
       style="stroke-width:2.77838898"
       inkscape:connector-curvature="0"
       d="m 98.669635,103.24504 h -72.23812 c -1.53367,0 -2.77839,-1.24475 -2.77839,-2.77841 V 28.228558 c 0,-1.533695 1.24472,-2.778444 2.77839,-2.778444 h 72.23812 c 1.533675,0 2.778375,1.244749 2.778375,2.778444 v 72.238072 c 0,1.53366 -1.2447,2.77841 -2.778375,2.77841 z"
       id="path936" />
    <rect
       x="31.932728"
       y="83.796242"
       style="fill:#ffffff;stroke-width:2.77838898"
       width="25.005501"
       height="5.556778"
       id="rect938" />
    <path
       id="path940"
       d="M 37.739565,56.993182 V 67.01761 h -5.80684 V 39.264282 h 12.69446 c 2.6867,0 4.7955,0.79184 6.32917,2.375522 1.53645,1.580904 2.30329,3.753604 2.30329,6.506988 0,1.958764 -0.54179,3.748046 -1.62536,5.370626 -1.55034,2.317176 -3.96198,3.475764 -7.2377,3.475764 z m 0,-4.801056 h 5.38174 c 1.85874,0 3.1229,-0.564013 3.7925,-1.694817 0.36119,-0.616803 0.54178,-1.486438 0.54178,-2.617243 0,-1.36141 -0.40286,-2.336625 -1.20026,-2.928422 -0.80018,-0.591797 -2.10602,-0.886306 -3.9092,-0.886306 h -4.60656 z"
       style="fill:#ffffff;stroke-width:2.77838922"
       inkscape:connector-curvature="0" />
    <path
       id="path1091"
       d="m 76.030135,59.042896 c -1.51026,1.47398 -3.56769,2.38685 -5.84286,2.38685 -4.62572,0 -8.37486,-3.74914 -8.37486,-8.37483 0,-4.625729 3.74914,-8.374869 8.37486,-8.374869 2.35055,0 4.46939,0.97425 5.98802,2.53482 l 3.93898,-3.95577 c -2.532,-2.5655 -6.04106,-4.15948 -9.92979,-4.15948 -7.70766,0 -13.9581,6.25039 -13.9581,13.958099 0,7.70762 6.25044,13.95809 13.9581,13.95809 3.82173,0 7.27775,-1.54102 9.79859,-4.03113 z"
       style="fill:#ffffff;stroke-width:2.79162025"
       inkscape:connector-curvature="0" />
  </g>
</svg>
