<?xml version="1.0" encoding="UTF-8" standalone="no"?>
<svg
   xmlns:dc="http://purl.org/dc/elements/1.1/"
   xmlns:cc="http://creativecommons.org/ns#"
   xmlns:rdf="http://www.w3.org/1999/02/22-rdf-syntax-ns#"
   xmlns:svg="http://www.w3.org/2000/svg"
   xmlns="http://www.w3.org/2000/svg"
   xmlns:sodipodi="http://sodipodi.sourceforge.net/DTD/sodipodi-0.dtd"
   xmlns:inkscape="http://www.inkscape.org/namespaces/inkscape"
   width="128"
   height="128"
   viewBox="0 0 128 128"
   version="1.1"
   id="svg142"
   sodipodi:docname="resharpercpp.svg"
   inkscape:version="0.92.2 5c3e80d, 2017-08-06">
  <metadata
     id="metadata146">
    <rdf:RDF>
      <cc:Work
         rdf:about="">
        <dc:format>image/svg+xml</dc:format>
        <dc:type
           rdf:resource="http://purl.org/dc/dcmitype/StillImage" />
        <dc:title />
      </cc:Work>
    </rdf:RDF>
  </metadata>
  <sodipodi:namedview
     pagecolor="#ffffff"
     bordercolor="#666666"
     borderopacity="1"
     objecttolerance="10"
     gridtolerance="10"
     guidetolerance="10"
     inkscape:pageopacity="0"
     inkscape:pageshadow="2"
     inkscape:window-width="1600"
     inkscape:window-height="803"
     id="namedview144"
     showgrid="false"
     inkscape:measure-start="0,0"
     inkscape:measure-end="0,0"
     inkscape:zoom="3.6875"
     inkscape:cx="103.16317"
     inkscape:cy="59.16428"
     inkscape:window-x="0"
     inkscape:window-y="0"
     inkscape:window-maximized="1"
     inkscape:current-layer="svg142" />
  <defs
     id="defs75">
    <linearGradient
       y2="2.7918"
       x2="32.125099"
       y1="32.0746"
       x1="25.9534"
       gradientUnits="userSpaceOnUse"
       id="SVGID_1_">
      <stop
         id="stop4-7"
         style="stop-color:#ffa829;stop-opacity:1"
         offset="0" />
      <stop
         id="stop6"
         style="stop-color:#f05e8f;stop-opacity:1"
         offset="1" />
    </linearGradient>
    <linearGradient
       id="SVGID_2_"
       gradientUnits="userSpaceOnUse"
       x1="10.7174"
       y1="8.7054996"
       x2="22.285601"
       y2="42.8722">
      <stop
         offset="0.0148"
         style="stop-color:#ffb64a;stop-opacity:1"
         id="stop11-9" />
      <stop
         offset="0.5567"
         style="stop-color:#FF1F51"
         id="stop13" />
      <stop
         offset="1"
         style="stop-color:#ec437c;stop-opacity:1"
         id="stop15" />
    </linearGradient>
  </defs>
  <path
     inkscape:connector-curvature="0"
     id="polygon4635"
     d="m 42.409424,6.508127 -2.55093,9.800128 -35.0725203,9.519372 0.0812,68.217052 L 29.253434,124 98.040764,113.38173 88.595974,94.577669 111.42711,94.222339 123.20127,29.126506 104.96312,7.892165 67.339664,17.354508 Z"
     style="opacity:0.25;fill:#000000;stroke:none;stroke-width:0.42444953;stroke-miterlimit:4;stroke-dasharray:none;stroke-opacity:1" />
  <polygon
     transform="matrix(2.8359159,0,0,2.8359159,-6.5242963,-4.694309)"
     id="polygon9"
     points="17.255,3.158 10.581,28.797 25.883,34.332 41.592,34.088 45.744,11.134 39.313,3.646 26.046,6.983 "
     style="fill:url(#SVGID_1_);stroke:#333333;stroke-width:0.13329028;stroke-miterlimit:4;stroke-dasharray:none;stroke-opacity:1" />
  <polygon
     transform="matrix(2.8359159,0,0,2.8359159,-6.5242963,-4.694309)"
     style="fill:url(#SVGID_2_);stroke:#333333;stroke-width:0.13329028;stroke-miterlimit:4;stroke-dasharray:none;stroke-opacity:1"
     points="4.017,34.025 3.988,9.971 19.278,5.82 36.872,40.844 12.616,44.588 "
     id="polygon18" />
  <path
     inkscape:connector-curvature="0"
     id="path4642"
     d="m 98.404594,105.31654 h -73.73381 c -1.56542,0 -2.83591,-1.27049 -2.83591,-2.83592 V 28.746811 c 0,-1.565425 1.27049,-2.835915 2.83591,-2.835915 h 73.73381 c 1.56543,0 2.835916,1.27049 2.835916,2.835915 v 73.733809 c 0,1.56543 -1.270486,2.83592 -2.835916,2.83592 z"
     style="opacity:0.25;fill:#000000;stroke-width:2.83591604" />
  <path
     style="stroke-width:2.83591604"
     d="m 98.404594,103.07049 h -73.73381 c -1.56542,0 -2.83591,-1.27049 -2.83591,-2.83591 V 26.500765 c 0,-1.565424 1.27049,-2.835915 2.83591,-2.835915 h 73.73381 c 1.56543,0 2.835916,1.270491 2.835916,2.835915 v 73.733815 c 0,1.56542 -1.270486,2.83591 -2.835916,2.83591 z"
     id="path20"
     inkscape:connector-curvature="0" />
  <rect
     x="30.131432"
     y="83.219086"
     style="fill:#ffffff;stroke-width:2.83591604"
     width="25.523243"
     height="5.6718321"
     id="rect22" />
  <g
     id="g1323"
     transform="translate(3.6859714e-6)">
    <g
       transform="translate(-180.40678,50.983049)"
       id="text1065"
       style="font-style:normal;font-weight:normal;font-size:25.13360786px;line-height:1.25;font-family:sans-serif;letter-spacing:0px;word-spacing:0px;fill:#ffffff;fill-opacity:1;stroke:none;stroke-width:0.62834024"
       aria-label="+">
      <path
         inkscape:connector-curvature="0"
         id="path1090"
         style="font-style:normal;font-variant:normal;font-weight:bold;font-stretch:normal;font-family:Arial;-inkscape-font-specification:'Arial Bold';fill:#ffffff;stroke-width:0.62834024"
         d="m 243.95218,-1.1185568 v -4.6757347 h -4.71255 v -3.2276068 h 4.71255 v -4.6757347 h 3.1417 v 4.6757347 h 4.72483 v 3.2276068 h -4.72483 v 4.6757347 z" />
    </g>
    <g
       transform="translate(-180.40678,50.983049)"
       id="text1088"
       style="font-style:normal;font-weight:normal;font-size:25.13360786px;line-height:1.25;font-family:sans-serif;letter-spacing:0px;word-spacing:0px;fill:#ffffff;fill-opacity:1;stroke:none;stroke-width:0.62834024"
       aria-label="+">
      <path
         inkscape:connector-curvature="0"
         id="path1093"
         style="font-style:normal;font-variant:normal;font-weight:bold;font-stretch:normal;font-family:Arial;-inkscape-font-specification:'Arial Bold';fill:#ffffff;stroke-width:0.62834024"
         d="m 243.95218,15.208616 v -4.675734 h -4.71255 V 7.3052748 h 4.71255 V 2.6295401 h 3.1417 v 4.6757347 h 4.72483 v 3.2276072 h -4.72483 v 4.675734 z" />
    </g>
  </g>
  <path
     style="fill:#ffffff;stroke-width:2.8359158"
     d="m 30.131434,37.752212 v 28.328124 h 5.80859 V 54.978774 h 5.29102 l 6.72851,11.212891 h 6.33399 l -7.13086,-11.882813 c 4.18269,-1.248894 6.24023,-4.149543 6.24023,-7.83789 0,-2.572176 -0.93581,-5.344302 -2.80468,-6.867188 -1.5002,-1.233624 -3.54042,-1.851562 -6.1211,-1.851562 z m 5.8125,4.898437 h 7.38672 c 1.55408,0 2.68662,0.433873 3.39844,1.298828 0.49912,0.629573 0.75,1.4266 0.75,2.396485 0,1.389598 -0.36813,2.378878 -1.10547,2.96875 -0.74018,0.589869 -1.89803,0.884765 -3.48047,0.884765 h -6.94922 z"
     id="path24"
     inkscape:connector-curvature="0" />
</svg>
