<?xml version="1.0" encoding="UTF-8" standalone="no"?>
<!-- Generator: Adobe Illustrator 18.0.0, SVG Export Plug-In . SVG Version: 6.00 Build 0)  -->

<svg
   xmlns:dc="http://purl.org/dc/elements/1.1/"
   xmlns:cc="http://creativecommons.org/ns#"
   xmlns:rdf="http://www.w3.org/1999/02/22-rdf-syntax-ns#"
   xmlns:svg="http://www.w3.org/2000/svg"
   xmlns="http://www.w3.org/2000/svg"
   xmlns:sodipodi="http://sodipodi.sourceforge.net/DTD/sodipodi-0.dtd"
   xmlns:inkscape="http://www.inkscape.org/namespaces/inkscape"
   version="1.1"
   id="图层_1"
   x="0px"
   y="0px"
   viewBox="0 0 128 128"
   xml:space="preserve"
   sodipodi:docname="rubymine.svg"
   width="128"
   height="128"
   inkscape:version="0.92.2 5c3e80d, 2017-08-06"><metadata
     id="metadata47"><rdf:RDF><cc:Work
         rdf:about=""><dc:format>image/svg+xml</dc:format><dc:type
           rdf:resource="http://purl.org/dc/dcmitype/StillImage" /><dc:title /></cc:Work></rdf:RDF></metadata><defs
     id="defs45"><linearGradient
       id="SVGID_1_"
       gradientUnits="userSpaceOnUse"
       x1="25.9534"
       y1="32.0746"
       x2="32.125099"
       y2="2.7918"><stop
         offset="0"
         style="stop-color:#FF1F51"
         id="stop4" /><stop
         offset="1"
         style="stop-color:#FF8629"
         id="stop6" /></linearGradient><linearGradient
       y2="42.8722"
       x2="22.285601"
       y1="8.7054996"
       x1="10.7174"
       gradientUnits="userSpaceOnUse"
       id="SVGID_2_"><stop
         id="stop11"
         style="stop-color:#9039D0"
         offset="0.0148" /><stop
         id="stop13"
         style="stop-color:#FF1F51"
         offset="0.5567" /><stop
         id="stop15"
         style="stop-color:#FF8629"
         offset="1" /></linearGradient></defs><sodipodi:namedview
     pagecolor="#ffffff"
     bordercolor="#666666"
     borderopacity="1"
     objecttolerance="10"
     gridtolerance="10"
     guidetolerance="10"
     inkscape:pageopacity="0"
     inkscape:pageshadow="2"
     inkscape:window-width="1600"
     inkscape:window-height="803"
     id="namedview43"
     showgrid="false"
     inkscape:zoom="3.4766084"
     inkscape:cx="62.852987"
     inkscape:cy="32.606092"
     inkscape:window-x="0"
     inkscape:window-y="0"
     inkscape:window-maximized="1"
     inkscape:current-layer="图层_1" /><path
     style="opacity:0.25;fill:#000000;stroke:none;stroke-width:0.42444953;stroke-miterlimit:4;stroke-dasharray:none;stroke-opacity:1"
     d="M 42.409416,6.5081293 39.858494,16.308257 4.7859681,25.82763 4.8671898,94.04468 29.253449,124 98.040785,113.38173 88.595989,94.577677 111.42713,94.222346 123.20129,29.126509 104.96314,7.8921672 67.339682,17.354511 Z"
     id="polygon4635"
     inkscape:connector-curvature="0" /><polygon
     style="fill:url(#SVGID_1_);stroke:#333333;stroke-width:0.13329027;stroke-miterlimit:4;stroke-dasharray:none;stroke-opacity:1"
     points="26.046,6.983 17.255,3.158 10.581,28.797 25.883,34.332 41.592,34.088 45.744,11.134 39.313,3.646 "
     id="polygon9"
     transform="matrix(2.8359159,0,0,2.8359159,-6.5242954,-4.6943067)" /><polygon
     id="polygon18"
     points="4.017,34.025 3.988,9.971 19.278,5.82 36.872,40.844 12.616,44.588 "
     style="fill:url(#SVGID_2_);stroke:#333333;stroke-width:0.13329027;stroke-miterlimit:4;stroke-dasharray:none;stroke-opacity:1"
     transform="matrix(2.8359159,0,0,2.8359159,-6.5242954,-4.6943067)" /><path
     style="opacity:0.25;fill:#000000;stroke-width:2.83591604"
     d="M 98.404593,105.31654 H 24.670784 c -1.565429,0 -2.835918,-1.27049 -2.835918,-2.83592 V 28.746813 c 0,-1.565424 1.270489,-2.835915 2.835918,-2.835915 h 73.733809 c 1.565426,0 2.835917,1.270491 2.835917,2.835915 v 73.733807 c 0,1.56543 -1.270491,2.83592 -2.835917,2.83592 z"
     id="path4642"
     inkscape:connector-curvature="0" /><path
     inkscape:connector-curvature="0"
     id="path20"
     d="M 98.404593,103.07049 H 24.670784 c -1.565429,0 -2.835918,-1.27049 -2.835918,-2.83591 V 26.500768 c 0,-1.565425 1.270489,-2.835915 2.835918,-2.835915 h 73.733809 c 1.565426,0 2.835917,1.27049 2.835917,2.835915 v 73.733812 c 0,1.56542 -1.270491,2.83591 -2.835917,2.83591 z"
     style="stroke-width:2.83591604" /><rect
     id="rect22"
     height="5.6718321"
     width="25.523243"
     style="fill:#ffffff;stroke-width:2.83591604"
     y="83.219086"
     x="30.285892" /><g
     id="g28"
     transform="matrix(2.8359159,0,0,2.8359159,-6.5242954,-4.6943067)"><path
       inkscape:connector-curvature="0"
       id="path24"
       d="m 12.98,24.961 v -9.989 h 5.058 c 0.91,0 1.63,0.218 2.159,0.653 0.659,0.537 0.989,1.514 0.989,2.421 0,1.75 -1.311,3 -3.998,3 h -2.16 v 3.915 z m 2.048,-5.6 h 2.452 c 0.558,0 0.966,-0.104 1.227,-0.312 0.26,-0.208 0.39,-0.557 0.39,-1.047 0,-0.342 -0.089,-0.623 -0.265,-0.845 -0.251,-0.305 -0.65,-0.458 -1.198,-0.458 h -2.605 v 2.662 z"
       style="fill:#ffffff" /><path
       inkscape:connector-curvature="0"
       id="path26"
       d="m 32.638,14.972 v 9.989 h -1.951 v -6.845 l -2.895,4.845 -2.873,-4.859 -0.027,6.859 h -1.951 v -9.989 h 2.548 l 2.308,3.889 2.32,-3.889 z"
       style="fill:#ffffff" /></g><polygon
     id="polygon34"
     points="19.266,25 16.266,20 18.5,20 21.5,25 "
     style="fill:#ffffff"
     transform="matrix(2.8359159,0,0,2.8359159,-6.5242954,-4.6943067)" /></svg>