<?xml version="1.0" encoding="UTF-8" standalone="no"?>
<!-- Created with Inkscape (http://www.inkscape.org/) -->

<svg
   xmlns:dc="http://purl.org/dc/elements/1.1/"
   xmlns:cc="http://creativecommons.org/ns#"
   xmlns:rdf="http://www.w3.org/1999/02/22-rdf-syntax-ns#"
   xmlns:svg="http://www.w3.org/2000/svg"
   xmlns="http://www.w3.org/2000/svg"
   xmlns:xlink="http://www.w3.org/1999/xlink"
   xmlns:sodipodi="http://sodipodi.sourceforge.net/DTD/sodipodi-0.dtd"
   xmlns:inkscape="http://www.inkscape.org/namespaces/inkscape"
   width="128"
   height="128"
   viewBox="0 0 33.866666 33.866668"
   version="1.1"
   id="svg8"
   inkscape:version="0.92.2 5c3e80d, 2017-08-06"
   sodipodi:docname="rygedl.svg">
  <defs
     id="defs2">
    <linearGradient
       inkscape:collect="always"
       id="linearGradient1421">
      <stop
         style="stop-color:#de1352;stop-opacity:1"
         offset="0"
         id="stop1417" />
      <stop
         style="stop-color:#fa031a;stop-opacity:1"
         offset="1"
         id="stop1419" />
    </linearGradient>
    <linearGradient
       inkscape:collect="always"
       xlink:href="#linearGradient1421"
       id="linearGradient1423"
       x1="-21.121832"
       y1="200.27368"
       x2="-23.923992"
       y2="131.10405"
       gradientUnits="userSpaceOnUse"
       gradientTransform="matrix(0.37866594,0,0,0.37866594,-24.859217,127.04117)" />
  </defs>
  <sodipodi:namedview
     id="base"
     pagecolor="#ffffff"
     bordercolor="#666666"
     borderopacity="1.0"
     inkscape:pageopacity="0.0"
     inkscape:pageshadow="2"
     inkscape:zoom="3.959798"
     inkscape:cx="85.553088"
     inkscape:cy="64.235171"
     inkscape:document-units="mm"
     inkscape:current-layer="layer1"
     showgrid="false"
     units="px"
     inkscape:window-width="1600"
     inkscape:window-height="803"
     inkscape:window-x="0"
     inkscape:window-y="0"
     inkscape:window-maximized="1" />
  <metadata
     id="metadata5">
    <rdf:RDF>
      <cc:Work
         rdf:about="">
        <dc:format>image/svg+xml</dc:format>
        <dc:type
           rdf:resource="http://purl.org/dc/dcmitype/StillImage" />
        <dc:title></dc:title>
      </cc:Work>
    </rdf:RDF>
  </metadata>
  <g
     inkscape:label="Layer 1"
     inkscape:groupmode="layer"
     id="layer1"
     transform="translate(0,-263.13332)">
    <g
       id="g1449"
       transform="matrix(1.0394952,0,0,1.0394952,47.548435,82.737489)">
      <rect
         style="opacity:0.25;fill:#000000;fill-opacity:1;stroke:none;stroke-width:0.02163386;stroke-miterlimit:4;stroke-dasharray:none;stroke-dashoffset:0;stroke-opacity:1"
         id="rect1432"
         width="29.997414"
         height="30.01437"
         x="-44.4506"
         y="175.08919"
         ry="2.7451251" />
      <rect
         ry="2.7451251"
         y="174.56003"
         x="-44.4506"
         height="30.01437"
         width="29.997414"
         id="rect880"
         style="opacity:1;fill:url(#linearGradient1423);fill-opacity:1;stroke:none;stroke-width:0.2;stroke-miterlimit:4;stroke-dasharray:none;stroke-dashoffset:0;stroke-opacity:1" />
      <path
         inkscape:connector-curvature="0"
         id="rect1438"
         d="m -34.488334,175.08905 1.883606,6.96908 c 0.172606,0.64425 0.2712,0.99785 -0.482658,1.89653 -0.12803,0.15259 -0.253048,0.30607 -0.352433,0.47852 -0.397976,0.68928 -0.533392,1.52894 -0.311092,2.35851 0.444452,1.65897 2.150454,2.64432 3.809587,2.19987 1.658985,-0.44461 2.643428,-2.1506 2.198831,-3.80959 -0.222298,-0.8297 -0.760781,-1.48991 -1.450039,-1.88774 -0.17232,-0.0996 -0.35656,-0.16855 -0.543637,-0.23668 -1.102288,-0.40132 -1.194233,-0.75736 -1.366842,-1.40146 l -1.759583,-6.56704 z m 20.034953,10.55646 -6.65179,1.7818 c -0.644243,0.17275 -0.996424,0.27275 -1.894975,-0.4811 -0.152584,-0.12804 -0.306209,-0.25447 -0.478524,-0.35399 -0.713812,-0.41362 -1.562866,-0.52551 -2.359546,-0.31109 -1.658988,0.44445 -2.643431,2.15095 -2.198833,3.8101 0.444455,1.65898 2.149569,2.64306 3.808554,2.19832 0.796975,-0.21236 1.475947,-0.73366 1.887223,-1.44849 0.09938,-0.17232 0.170638,-0.35782 0.238746,-0.54519 0.401335,-1.10214 0.75567,-1.19372 1.399914,-1.36632 l 6.249231,-1.6738 z m -19.504752,2.94556 c -0.08932,-0.002 -0.178993,-8.7e-4 -0.269234,0.004 h -5.16e-4 c -0.210466,0.0128 -0.419111,0.047 -0.622702,0.1018 -0.796828,0.21252 -1.476463,0.73366 -1.887742,1.44849 -0.09953,0.17246 -0.170119,0.3581 -0.238228,0.54519 -0.401336,1.10229 -0.755526,1.19268 -1.399913,1.36529 l -6.074047,1.62833 v 1.60972 l 6.476605,-1.73633 c 0.644242,-0.17261 0.997829,-0.27084 1.896526,0.48317 0.152585,0.12803 0.304657,0.25239 0.476975,0.35192 0.713808,0.41362 1.562864,0.52588 2.359543,0.31161 1.659133,-0.4446 2.643947,-2.14958 2.199349,-3.80856 -0.364739,-1.36087 -1.576858,-2.26807 -2.916616,-2.30476 z m 5.712312,3.29695 c -0.08934,-0.002 -0.179501,-6.1e-4 -0.269751,0.005 v 0.001 c -0.209875,0.0128 -0.417626,0.0465 -0.620633,0.10129 -1.659133,0.44445 -2.644981,2.14955 -2.200383,3.80855 0.212947,0.7974 0.734766,1.47743 1.450041,1.88929 0.172312,0.0994 0.357963,0.16843 0.545187,0.23668 1.102138,0.40136 1.192168,0.75736 1.364774,1.40147 l 1.404048,5.24309 h 1.598869 l -1.500685,-5.64617 c -0.172606,-0.64439 -0.2712,-0.99833 0.482659,-1.89704 0.128031,-0.15244 0.25305,-0.30555 0.352433,-0.47801 0.413615,-0.71381 0.5255,-1.56338 0.311092,-2.36006 -0.364604,-1.36101 -1.577613,-2.26821 -2.917651,-2.30477 z"
         style="opacity:0.25;fill:#000000;fill-opacity:1;stroke:none;stroke-width:0.02163386;stroke-miterlimit:4;stroke-dasharray:none;stroke-dashoffset:0;stroke-opacity:1" />
      <path
         transform="scale(0.26458333)"
         id="rect1425"
         d="m -130.34961,659.75391 7.11914,26.33984 c 0.65237,2.43496 1.02501,3.77138 -1.82422,7.16797 -0.48389,0.57672 -0.9564,1.15681 -1.33203,1.80859 -1.50416,2.60512 -2.01597,5.77868 -1.17578,8.91407 1.67982,6.27012 8.1277,9.99426 14.39844,8.31445 6.27018,-1.68042 9.99091,-8.12824 8.31054,-14.39844 -0.84018,-3.13587 -2.87539,-5.63116 -5.48046,-7.13477 -0.65128,-0.37644 -1.34763,-0.63706 -2.05469,-0.89453 -4.16613,-1.51683 -4.51364,-2.86248 -5.16602,-5.29687 l -6.65039,-24.82031 z m 75.722657,39.89843 -25.140625,6.73438 c -2.434934,0.65291 -3.766011,1.03084 -7.16211,-1.81836 -0.576695,-0.48393 -1.157324,-0.96175 -1.808593,-1.33789 -2.697872,-1.56329 -5.906895,-1.98619 -8.917969,-1.17578 -6.27019,1.67981 -9.99092,8.12958 -8.31055,14.40039 1.67983,6.27016 8.124355,9.9895 14.394534,8.30859 3.012189,-0.80262 5.578384,-2.77289 7.132813,-5.47461 0.375609,-0.65129 0.644931,-1.35237 0.902344,-2.06054 1.516864,-4.16557 2.856077,-4.51172 5.291015,-5.16407 l 23.619141,-6.32617 z m -73.718747,11.13282 c -0.33758,-0.009 -0.67651,-0.005 -1.01758,0.0156 h -0.002 c -0.79545,0.0484 -1.58404,0.17761 -2.35352,0.38477 -3.01163,0.80322 -5.58034,2.77289 -7.13477,5.47461 -0.37617,0.65178 -0.64297,1.35343 -0.90039,2.06054 -1.51686,4.16614 -2.85553,4.50781 -5.29101,5.16016 l -22.95703,6.1543 v 6.08398 l 24.47851,-6.5625 c 2.43493,-0.65238 3.77132,-1.02363 7.16797,1.82617 0.5767,0.4839 1.15147,0.9539 1.80274,1.33008 2.69787,1.56329 5.90688,1.98757 8.91796,1.17773 6.27074,-1.68037 9.99287,-8.12437 8.3125,-14.39453 -1.37855,-5.14346 -5.95978,-8.57226 -11.02343,-8.71093 z m 21.58984,12.46093 c -0.33765,-0.009 -0.67843,-0.003 -1.01953,0.0176 v 0.004 c -0.79323,0.0484 -1.57843,0.17562 -2.3457,0.38281 -6.27074,1.67981 -9.99678,8.1243 -8.31641,14.39453 0.80484,3.0138 2.77707,5.58399 5.48047,7.14063 0.65126,0.37568 1.35293,0.63658 2.06055,0.89453 4.16557,1.51695 4.50583,2.86244 5.1582,5.29687 l 5.843749,21.81836 h 6.037109 l -6.203128,-23.34179 c -0.65237,-2.43549 -1.02501,-3.77326 1.824222,-7.16993 0.483897,-0.57615 0.956407,-1.15482 1.332031,-1.80664 1.563266,-2.69786 1.986142,-5.90881 1.175781,-8.91992 -1.378038,-5.14396 -5.962634,-8.57273 -11.027344,-8.71094 z"
         style="opacity:1;fill:#ffd5d5;fill-opacity:1;stroke:none;stroke-width:0.08176577;stroke-miterlimit:4;stroke-dasharray:none;stroke-dashoffset:0;stroke-opacity:1"
         inkscape:connector-curvature="0" />
    </g>
  </g>
</svg>
