<?xml version="1.0" encoding="UTF-8" standalone="no"?>
<!-- Created with Inkscape (http://www.inkscape.org/) -->

<svg
   xmlns:osb="http://www.openswatchbook.org/uri/2009/osb"
   xmlns:dc="http://purl.org/dc/elements/1.1/"
   xmlns:cc="http://creativecommons.org/ns#"
   xmlns:rdf="http://www.w3.org/1999/02/22-rdf-syntax-ns#"
   xmlns:svg="http://www.w3.org/2000/svg"
   xmlns="http://www.w3.org/2000/svg"
   xmlns:xlink="http://www.w3.org/1999/xlink"
   xmlns:sodipodi="http://sodipodi.sourceforge.net/DTD/sodipodi-0.dtd"
   xmlns:inkscape="http://www.inkscape.org/namespaces/inkscape"
   width="128"
   height="128"
   viewBox="0 0 33.866665 33.866665"
   version="1.1"
   id="svg4942"
   inkscape:version="0.92.2 5c3e80d, 2017-08-06"
   sodipodi:docname="computer.svg">
  <defs
     id="defs4936">
    <linearGradient
       inkscape:collect="always"
       id="linearGradient2736">
      <stop
         style="stop-color:#658b8b;stop-opacity:1;"
         offset="0"
         id="stop2732" />
      <stop
         style="stop-color:#658b8b;stop-opacity:0;"
         offset="1"
         id="stop2734" />
    </linearGradient>
    <linearGradient
       id="linearGradient6987"
       osb:paint="solid">
      <stop
         style="stop-color:#77d2fb;stop-opacity:1;"
         offset="0"
         id="stop6985" />
    </linearGradient>
    <linearGradient
       gradientTransform="scale(1.0058652,0.994169)"
       gradientUnits="userSpaceOnUse"
       id="ButtonShadow"
       y2="7.0165396"
       x2="45.447727"
       y1="92.539597"
       x1="45.447727">
      <stop
         offset="0"
         style="stop-color:#000000;stop-opacity:1"
         id="stop3750" />
      <stop
         offset="1"
         style="stop-color:#000000;stop-opacity:0.58823532"
         id="stop3752" />
    </linearGradient>
    <filter
       id="filter3174"
       color-interpolation-filters="sRGB">
      <feGaussianBlur
         stdDeviation="1.71"
         id="feGaussianBlur3176" />
    </filter>
    <linearGradient
       osb:paint="gradient"
       id="linearGradient1102">
      <stop
         id="stop1098"
         offset="0"
         style="stop-color:#999999;stop-opacity:1" />
      <stop
         id="stop1100"
         offset="1"
         style="stop-color:#808080;stop-opacity:1" />
    </linearGradient>
    <linearGradient
       inkscape:collect="always"
       xlink:href="#linearGradient2736"
       id="linearGradient2740"
       x1="59.675312"
       y1="276.8671"
       x2="59.675312"
       y2="274.9967"
       gradientUnits="userSpaceOnUse" />
  </defs>
  <sodipodi:namedview
     id="base"
     pagecolor="#ffffff"
     bordercolor="#666666"
     borderopacity="1.0"
     inkscape:pageopacity="0.0"
     inkscape:pageshadow="2"
     inkscape:zoom="2.489859"
     inkscape:cx="-4.6695567"
     inkscape:cy="42.832106"
     inkscape:document-units="mm"
     inkscape:current-layer="layer1"
     showgrid="false"
     units="px"
     width="128px"
     inkscape:window-width="1600"
     inkscape:window-height="803"
     inkscape:window-x="0"
     inkscape:window-y="0"
     inkscape:window-maximized="1" />
  <metadata
     id="metadata4939">
    <rdf:RDF>
      <cc:Work
         rdf:about="">
        <dc:format>image/svg+xml</dc:format>
        <dc:type
           rdf:resource="http://purl.org/dc/dcmitype/StillImage" />
        <dc:title />
      </cc:Work>
    </rdf:RDF>
  </metadata>
  <g
     inkscape:label="Layer 1"
     inkscape:groupmode="layer"
     id="layer1"
     transform="translate(0,-263.13332)">
    <g
       id="layer2"
       style="display:none"
       transform="matrix(0.26458333,0,0,0.26458333,-92.023358,258.35881)">
      <rect
         width="86"
         height="85"
         rx="6"
         ry="6"
         x="5"
         y="7"
         id="rect3745"
         style="opacity:0.9;fill:url(#ButtonShadow);fill-opacity:1;fill-rule:nonzero;stroke:none;filter:url(#filter3174)" />
    </g>
    <g
       id="g878"
       transform="translate(-3.0199687e-7,2.125641)">
      <rect
         style="fill:#cccccc;fill-opacity:1;stroke:#808080;stroke-width:0.2;stroke-miterlimit:4;stroke-dasharray:none;stroke-opacity:1"
         id="rect901"
         width="31.55006"
         height="25.315619"
         x="1.1583035"
         y="265.2832"
         ry="1.3876748"
         rx="1.3876748" />
      <rect
         rx="1.12412"
         ry="1.12412"
         y="265.2832"
         x="1.1583861"
         height="20.507538"
         width="31.55006"
         id="rect897"
         style="fill:#000000;fill-opacity:1;stroke:none;stroke-width:0.08765683" />
      <rect
         ry="0.41185313"
         y="266.67337"
         x="2.7307408"
         height="17.545879"
         width="28.480881"
         id="rect1848"
         style="opacity:1;fill:#23a7fd;fill-opacity:1;stroke:none;stroke-width:0.12911996;stroke-miterlimit:4;stroke-dasharray:0.03227998, 0.03227998;stroke-dashoffset:0;stroke-opacity:1" />
      <path
         style="fill:#000000;stroke-width:0.00505539"
         d="m 16.538264,289.19923 c -0.01058,-0.002 -0.016,-0.004 -0.01203,-0.005 0.0039,-2.5e-4 -0.0014,-0.003 -0.0116,-0.006 -0.04007,-0.009 -0.101226,-0.0471 -0.151599,-0.0931 -0.04931,-0.0452 -0.149291,-0.17534 -0.205212,-0.26714 -0.09613,-0.15777 -0.17026,-0.3579 -0.201617,-0.54422 -0.02101,-0.12484 -0.0223,-0.27494 -0.0032,-0.3824 0.05758,-0.32525 0.300154,-0.55258 0.590155,-0.5531 0.05956,-1.1e-4 0.102273,0.009 0.185437,0.0378 0.189508,0.0665 0.189298,0.0665 0.221371,0.0664 0.02489,-7e-5 0.0446,-0.005 0.09628,-0.023 0.235582,-0.0828 0.252258,-0.0869 0.349035,-0.0865 0.130965,2.5e-4 0.256206,0.0405 0.351855,0.11161 0.03671,0.0273 0.0854,0.0754 0.106905,0.1056 l 0.0103,0.0144 -0.04197,0.0314 c -0.159058,0.11878 -0.232232,0.28155 -0.217219,0.48314 0.005,0.0662 0.01616,0.11496 0.03973,0.1728 0.04326,0.10614 0.146789,0.21891 0.249839,0.27217 0.01785,0.009 0.03249,0.0193 0.0325,0.0224 5.4e-5,0.0156 -0.04008,0.11396 -0.07525,0.1845 -0.0542,0.10869 -0.126429,0.21687 -0.208441,0.31214 -0.05907,0.0687 -0.135954,0.11887 -0.202837,0.13252 -0.01699,0.003 -0.02767,0.008 -0.02372,0.009 0.0039,0.002 -0.009,0.003 -0.02892,0.003 -0.02118,1.3e-4 -0.03347,-0.002 -0.02974,-0.004 0.0041,-0.003 -0.0033,-0.005 -0.02068,-0.007 -0.02947,-0.003 -0.08273,-0.0201 -0.161425,-0.0504 -0.07852,-0.0302 -0.138797,-0.0408 -0.211825,-0.0377 -0.06432,0.003 -0.104836,0.0114 -0.173315,0.0369 -0.08591,0.0318 -0.135113,0.0482 -0.153784,0.0511 -0.01066,0.002 -0.0182,0.005 -0.01674,0.007 0.0014,0.003 -0.0027,0.004 -0.009,0.004 -0.0064,0 -0.02115,9.5e-4 -0.03279,0.002 -0.01163,9.6e-4 -0.0298,2.1e-4 -0.04039,-0.002 z m 0.405201,-1.90026 c -0.0061,-0.006 -0.0032,-0.0936 0.0043,-0.12982 0.02721,-0.13177 0.120439,-0.26308 0.24,-0.33805 0.05045,-0.0317 0.117718,-0.0611 0.165,-0.0723 0.01954,-0.005 0.03403,-0.01 0.03218,-0.0117 -0.0018,-0.002 0.0033,-0.003 0.01148,-0.003 0.0082,0 0.01781,-9.5e-4 0.02142,-0.003 0.01453,-0.006 1.22e-4,0.13248 -0.02062,0.19751 -0.04973,0.15585 -0.179092,0.29738 -0.312334,0.34172 -0.0483,0.0161 -0.132814,0.0271 -0.141431,0.0185 z"
         id="path1568"
         inkscape:connector-curvature="0" />
      <g
         transform="translate(-42.654231,-0.17029762)"
         id="g2749">
        <circle
           style="opacity:1;fill:#404040;fill-opacity:1;stroke:none;stroke-width:0.13372655;stroke-miterlimit:4;stroke-dasharray:0.03343164, 0.03343164;stroke-dashoffset:0;stroke-opacity:1"
           id="path2718"
           cx="59.625412"
           cy="275.61661"
           r="5.7149415" />
        <circle
           r="3.9881454"
           cy="275.61661"
           cx="59.625412"
           id="circle2724"
           style="opacity:1;fill:#78797b;fill-opacity:1;stroke:none;stroke-width:0.09332045;stroke-miterlimit:4;stroke-dasharray:0.02333011, 0.02333011;stroke-dashoffset:0;stroke-opacity:1" />
        <circle
           style="opacity:1;fill:#5e5f61;fill-opacity:1;stroke:none;stroke-width:0.0808878;stroke-miterlimit:4;stroke-dasharray:0.02022195, 0.02022195;stroke-dashoffset:0;stroke-opacity:1"
           id="circle2722"
           cx="59.625412"
           cy="275.61661"
           r="3.4568233" />
        <circle
           r="3.058332"
           cy="275.61661"
           cx="59.625412"
           id="circle2720"
           style="opacity:1;fill:#15191d;fill-opacity:1;stroke:none;stroke-width:0.07156332;stroke-miterlimit:4;stroke-dasharray:0.01789083, 0.01789083;stroke-dashoffset:0;stroke-opacity:1" />
        <circle
           style="opacity:1;fill:url(#linearGradient2740);fill-opacity:1;stroke:none;stroke-width:0.03115722;stroke-miterlimit:4;stroke-dasharray:0.0077893, 0.0077893;stroke-dashoffset:0;stroke-opacity:1"
           id="circle2726"
           cx="59.625412"
           cy="275.61661"
           r="1.3315357" />
        <circle
           r="0.48142064"
           cy="274.48755"
           cx="60.236431"
           id="circle2728"
           style="opacity:1;fill:#ffffff;fill-opacity:1;stroke:none;stroke-width:0.01126498;stroke-miterlimit:4;stroke-dasharray:0.00281624, 0.00281624;stroke-dashoffset:0;stroke-opacity:1" />
        <circle
           style="opacity:1;fill:#ffffff;fill-opacity:1;stroke:none;stroke-width:0.00675815;stroke-miterlimit:4;stroke-dasharray:0.00168953, 0.00168953;stroke-dashoffset:0;stroke-opacity:1"
           id="circle2730"
           cx="61.000206"
           cy="275.25131"
           r="0.28881645" />
      </g>
      <circle
         r="0.70808756"
         cy="268.55377"
         cx="4.5928435"
         id="path2751"
         style="opacity:1;fill:#fb0007;fill-opacity:1;stroke:none;stroke-width:0.08884603;stroke-miterlimit:4;stroke-dasharray:0.02221151, 0.02221151;stroke-dashoffset:0;stroke-opacity:1" />
      <rect
         ry="0"
         y="267.88934"
         x="5.6672683"
         height="0.37100506"
         width="1.3055621"
         id="rect2753"
         style="opacity:1;fill:#ffffff;fill-opacity:1;stroke:none;stroke-width:0.1;stroke-miterlimit:4;stroke-dasharray:0.025, 0.025;stroke-dashoffset:0;stroke-opacity:1" />
    </g>
  </g>
</svg>
