<?xml version="1.0" encoding="UTF-8" standalone="no"?>
<!-- Created with Inkscape (http://www.inkscape.org/) -->

<svg
   xmlns:dc="http://purl.org/dc/elements/1.1/"
   xmlns:cc="http://creativecommons.org/ns#"
   xmlns:rdf="http://www.w3.org/1999/02/22-rdf-syntax-ns#"
   xmlns:svg="http://www.w3.org/2000/svg"
   xmlns="http://www.w3.org/2000/svg"
   xmlns:xlink="http://www.w3.org/1999/xlink"
   xmlns:sodipodi="http://sodipodi.sourceforge.net/DTD/sodipodi-0.dtd"
   xmlns:inkscape="http://www.inkscape.org/namespaces/inkscape"
   width="128"
   height="128"
   viewBox="0 0 33.866666 33.866668"
   version="1.1"
   id="svg8"
   inkscape:version="0.92.2 5c3e80d, 2017-08-06"
   sodipodi:docname="drawing.svg">
  <defs
     id="defs2">
    <linearGradient
       inkscape:collect="always"
       id="linearGradient1056">
      <stop
         style="stop-color:#edfaff;stop-opacity:1"
         offset="0"
         id="stop1052" />
      <stop
         style="stop-color:#9b9b9a;stop-opacity:1"
         offset="1"
         id="stop1054" />
    </linearGradient>
    <linearGradient
       inkscape:collect="always"
       id="linearGradient1048">
      <stop
         style="stop-color:#cce1e7;stop-opacity:1"
         offset="0"
         id="stop1044" />
      <stop
         style="stop-color:#818383;stop-opacity:1"
         offset="1"
         id="stop1046" />
    </linearGradient>
    <linearGradient
       inkscape:collect="always"
       xlink:href="#linearGradient1048"
       id="linearGradient1050"
       x1="65.132858"
       y1="62.269798"
       x2="89.757072"
       y2="128.55264"
       gradientUnits="userSpaceOnUse"
       gradientTransform="matrix(0.41296875,0,0,0.41296875,-13.0071,239.56106)" />
    <linearGradient
       inkscape:collect="always"
       xlink:href="#linearGradient1056"
       id="linearGradient1058"
       x1="64.038284"
       y1="60.131641"
       x2="93.791611"
       y2="131.4926"
       gradientUnits="userSpaceOnUse"
       gradientTransform="matrix(0.41296875,0,0,0.41296875,-13.0071,239.56106)" />
  </defs>
  <sodipodi:namedview
     id="base"
     pagecolor="#ffffff"
     bordercolor="#666666"
     borderopacity="1.0"
     inkscape:pageopacity="0.0"
     inkscape:pageshadow="2"
     inkscape:zoom="2.8"
     inkscape:cx="43.979671"
     inkscape:cy="33.353528"
     inkscape:document-units="mm"
     inkscape:current-layer="layer1"
     showgrid="false"
     inkscape:window-width="1600"
     inkscape:window-height="814"
     inkscape:window-x="0"
     inkscape:window-y="0"
     inkscape:window-maximized="1"
     units="px" />
  <metadata
     id="metadata5">
    <rdf:RDF>
      <cc:Work
         rdf:about="">
        <dc:format>image/svg+xml</dc:format>
        <dc:type
           rdf:resource="http://purl.org/dc/dcmitype/StillImage" />
        <dc:title></dc:title>
      </cc:Work>
    </rdf:RDF>
  </metadata>
  <g
     inkscape:label="Layer 1"
     inkscape:groupmode="layer"
     id="layer1"
     transform="translate(0,-263.13332)">
    <circle
       r="16.518749"
       cy="280.06665"
       cx="16.933332"
       id="circle1042"
       style="opacity:1;fill:url(#linearGradient1058);fill-opacity:1;stroke:#999999;stroke-width:0.2;stroke-linecap:round;stroke-miterlimit:4;stroke-dasharray:0.05,0.05;stroke-dashoffset:0;stroke-opacity:1" />
    <circle
       style="opacity:1;fill:url(#linearGradient1050);fill-opacity:1;stroke:none;stroke-width:1;stroke-linecap:round;stroke-miterlimit:4;stroke-dasharray:0.24999999, 0.24999999;stroke-dashoffset:0;stroke-opacity:1"
       id="path1040"
       cx="16.933332"
       cy="280.06665"
       r="15.073359" />
    <path
       inkscape:connector-curvature="0"
       id="path1060"
       d="m 26.41938,270.60334 c -0.103664,-0.002 -0.255611,0.007 -0.482513,0.022 -1.906495,0.12835 -4.149275,0.78189 -6.080193,1.77192 -2.080365,1.06665 -4.068214,2.6708 -5.633745,4.54622 l -0.642143,0.76934 -0.834636,0.0871 c -2.403297,0.25051 -4.7961675,1.38627 -6.7554139,3.20644 -0.5153111,0.47874 -0.5801554,0.56676 -0.5390692,0.73328 0.025687,0.10409 0.076098,0.21911 0.1118237,0.25566 0.038984,0.0399 0.3934766,-0.0182 0.8871358,-0.14554 0.7686075,-0.19832 0.9124276,-0.2123 2.2062079,-0.21106 1.2244061,8.2e-4 1.4521717,0.0204 1.9755127,0.16923 l 0.591567,0.16817 -0.243072,0.75012 c -0.452545,1.3956 -0.436133,1.57884 0.175422,1.95631 0.565338,0.34895 1.296144,1.08214 1.720063,1.72561 l 0.343586,0.52157 0.281271,-0.0476 c 0.154681,-0.0261 0.651392,-0.15868 1.103958,-0.29471 0.452565,-0.13604 0.849891,-0.22037 0.882867,-0.18737 0.101934,0.10193 0.267047,0.81533 0.345293,1.49193 0.09208,0.79617 -0.0043,1.86461 -0.258863,2.86819 -0.197473,0.77847 -0.225793,1.18228 -0.09219,1.31588 0.144717,0.14471 0.228861,0.10423 0.615681,-0.29515 1.25701,-1.29783 2.400095,-3.20186 2.933926,-4.88682 0.200719,-0.63354 0.353666,-1.43747 0.483155,-2.54168 0.03873,-0.33029 0.07129,-0.37148 0.784485,-0.99235 3.189328,-2.77647 5.218115,-6.13424 6.060348,-10.02973 0.202995,-0.93891 0.37327,-2.42659 0.299621,-2.61851 -0.02841,-0.0741 -0.0673,-0.10542 -0.240083,-0.10841 z m -5.963458,4.42693 a 1.9177475,1.9177475 0 0 1 1.917681,1.91768 1.9177475,1.9177475 0 0 1 -1.917681,1.91789 1.9177475,1.9177475 0 0 1 -1.874145,-1.52117 c -0.0057,-0.0217 -0.0097,-0.0435 -0.01451,-0.0653 a 1.9177475,1.9177475 0 0 1 -0.0013,-0.006 c -0.02404,-0.11005 -0.03801,-0.22061 -0.03734,-0.32929 4.95e-4,-0.0833 0.01225,-0.18345 0.03436,-0.28981 a 1.9177475,1.9177475 0 0 1 1.892923,-1.62424 z m -10.302461,10.07775 c -0.09071,0.0116 -0.2095225,0.0706 -0.3873344,0.18139 -0.7899362,0.49214 -1.5223515,1.29705 -1.9462763,2.13856 -0.4203907,0.8345 -0.6868554,2.19778 -0.5119648,2.62 0.087089,0.21027 0.1129188,0.22152 0.5083368,0.22152 1.1643163,0 2.6525207,-0.70854 3.5237847,-1.6776 0.885944,-0.98538 1.069402,-2.00981 0.288527,-1.61143 -0.335438,0.17112 -0.952952,0.34979 -1.405502,0.40654 -0.145042,0.0178 -0.3454993,-0.009 -0.2622778,-0.37731 0.025009,-0.15024 0.1494098,-0.5905 0.2763628,-0.97826 0.193118,-0.58984 0.21521,-0.72371 0.135727,-0.81948 -0.06608,-0.0796 -0.128676,-0.11552 -0.219383,-0.10393 z"
       style="opacity:0.25;fill:#000000;fill-opacity:1;stroke-width:1" />
    <path
       style="fill:#44484a;fill-opacity:1;stroke-width:1"
       d="m 26.41938,270.16628 c -0.103664,-0.002 -0.255611,0.007 -0.482513,0.022 -1.906495,0.12835 -4.149275,0.78189 -6.080193,1.77192 -2.080365,1.06665 -4.068214,2.6708 -5.633745,4.54623 l -0.642143,0.76933 -0.834636,0.0871 c -2.403297,0.25051 -4.7961675,1.38627 -6.7554139,3.20644 -0.5153111,0.47874 -0.5801554,0.56676 -0.5390692,0.73328 0.025687,0.10409 0.076098,0.21911 0.1118237,0.25566 0.038984,0.0399 0.3934766,-0.0182 0.8871358,-0.14555 0.7686075,-0.19832 0.9124276,-0.21229 2.2062079,-0.21106 1.2244061,8.3e-4 1.4521717,0.0204 1.9755127,0.16924 l 0.591567,0.16816 -0.243072,0.75013 c -0.452545,1.3956 -0.436133,1.57884 0.175422,1.95631 0.565338,0.34895 1.296144,1.08214 1.720063,1.72561 l 0.343586,0.52157 0.281271,-0.0476 c 0.154681,-0.0261 0.651392,-0.15869 1.103958,-0.29471 0.452565,-0.13604 0.849891,-0.22037 0.882867,-0.18738 0.101934,0.10194 0.267047,0.81534 0.345293,1.49194 0.09208,0.79617 -0.0043,1.8646 -0.258863,2.86819 -0.197473,0.77847 -0.225793,1.18227 -0.09219,1.31587 0.144717,0.14472 0.228861,0.10424 0.615681,-0.29514 1.25701,-1.29783 2.400095,-3.20186 2.933926,-4.88682 0.200719,-0.63354 0.353666,-1.43748 0.483155,-2.54168 0.03873,-0.33029 0.07129,-0.37148 0.784485,-0.99235 3.189328,-2.77646 5.218115,-6.13424 6.060348,-10.02973 0.202995,-0.93891 0.37327,-2.42659 0.299621,-2.61851 -0.02841,-0.0741 -0.0673,-0.10542 -0.240083,-0.10841 z m -5.963458,4.42693 a 1.9177475,1.9177475 0 0 1 1.917681,1.91768 1.9177475,1.9177475 0 0 1 -1.917681,1.91789 1.9177475,1.9177475 0 0 1 -1.874145,-1.52117 c -0.0057,-0.0217 -0.0097,-0.0435 -0.01451,-0.0653 a 1.9177475,1.9177475 0 0 1 -0.0013,-0.006 c -0.02404,-0.11005 -0.03801,-0.22061 -0.03734,-0.32929 4.95e-4,-0.0833 0.01225,-0.18345 0.03436,-0.28981 a 1.9177475,1.9177475 0 0 1 1.892923,-1.62424 z m -10.302461,10.07775 c -0.09071,0.0116 -0.2095225,0.0706 -0.3873344,0.18139 -0.7899362,0.49214 -1.5223515,1.29704 -1.9462763,2.13856 -0.4203907,0.8345 -0.6868554,2.19778 -0.5119648,2.62 0.087089,0.21027 0.1129188,0.22152 0.5083368,0.22152 1.1643163,0 2.6525207,-0.70854 3.5237847,-1.6776 0.885944,-0.98538 1.069402,-2.00981 0.288527,-1.61143 -0.335438,0.17112 -0.952952,0.34979 -1.405502,0.40653 -0.145042,0.0178 -0.3454993,-0.009 -0.2622778,-0.3773 0.025009,-0.15024 0.1494098,-0.5905 0.2763628,-0.97826 0.193118,-0.58984 0.21521,-0.72371 0.135727,-0.81948 -0.06608,-0.0796 -0.128676,-0.11552 -0.219383,-0.10393 z"
       id="path1035"
       inkscape:connector-curvature="0" />
  </g>
</svg>
