<?xml version="1.0" encoding="UTF-8" standalone="no"?>
<!-- Created with Inkscape (http://www.inkscape.org/) -->

<svg
   xmlns:dc="http://purl.org/dc/elements/1.1/"
   xmlns:cc="http://creativecommons.org/ns#"
   xmlns:rdf="http://www.w3.org/1999/02/22-rdf-syntax-ns#"
   xmlns:svg="http://www.w3.org/2000/svg"
   xmlns="http://www.w3.org/2000/svg"
   xmlns:xlink="http://www.w3.org/1999/xlink"
   xmlns:sodipodi="http://sodipodi.sourceforge.net/DTD/sodipodi-0.dtd"
   xmlns:inkscape="http://www.inkscape.org/namespaces/inkscape"
   width="128"
   height="128"
   viewBox="0 0 33.866666 33.866668"
   version="1.1"
   id="svg8"
   inkscape:version="0.92.2 5c3e80d, 2017-08-06"
   sodipodi:docname="slingscold.svg">
  <defs
     id="defs2">
    <linearGradient
       inkscape:collect="always"
       id="linearGradient1056">
      <stop
         style="stop-color:#edfaff;stop-opacity:1"
         offset="0"
         id="stop1052" />
      <stop
         style="stop-color:#9b9b9a;stop-opacity:1"
         offset="1"
         id="stop1054" />
    </linearGradient>
    <linearGradient
       inkscape:collect="always"
       id="linearGradient1048">
      <stop
         style="stop-color:#cce1e7;stop-opacity:1"
         offset="0"
         id="stop1044" />
      <stop
         style="stop-color:#818383;stop-opacity:1"
         offset="1"
         id="stop1046" />
    </linearGradient>
    <linearGradient
       inkscape:collect="always"
       xlink:href="#linearGradient1048"
       id="linearGradient1050"
       x1="65.132858"
       y1="62.269798"
       x2="89.757072"
       y2="128.55264"
       gradientUnits="userSpaceOnUse"
       gradientTransform="matrix(0.39061833,0,0,0.39061833,-11.386683,241.50301)" />
    <linearGradient
       inkscape:collect="always"
       xlink:href="#linearGradient1056"
       id="linearGradient1058"
       x1="64.038284"
       y1="60.131641"
       x2="93.791611"
       y2="131.4926"
       gradientUnits="userSpaceOnUse"
       gradientTransform="matrix(0.39061833,0,0,0.39061833,-11.386683,241.50301)" />
  </defs>
  <sodipodi:namedview
     id="base"
     pagecolor="#ffffff"
     bordercolor="#666666"
     borderopacity="1.0"
     inkscape:pageopacity="0.0"
     inkscape:pageshadow="2"
     inkscape:zoom="3.3035145"
     inkscape:cx="46.824874"
     inkscape:cy="40.08626"
     inkscape:document-units="mm"
     inkscape:current-layer="layer1"
     showgrid="false"
     inkscape:window-width="1600"
     inkscape:window-height="811"
     inkscape:window-x="0"
     inkscape:window-y="0"
     inkscape:window-maximized="1"
     units="px" />
  <metadata
     id="metadata5">
    <rdf:RDF>
      <cc:Work
         rdf:about="">
        <dc:format>image/svg+xml</dc:format>
        <dc:type
           rdf:resource="http://purl.org/dc/dcmitype/StillImage" />
        <dc:title />
      </cc:Work>
    </rdf:RDF>
  </metadata>
  <g
     inkscape:label="Layer 1"
     inkscape:groupmode="layer"
     id="layer1"
     transform="translate(0,-263.13332)">
    <g
       id="g836"
       transform="matrix(0.99842725,0,0,0.99842725,0.02663279,0.46543845)">
      <circle
         r="15.624732"
         cy="280.31693"
         cx="16.933332"
         id="circle824"
         style="opacity:0.25;fill:#000000;fill-opacity:1;stroke:none;stroke-width:0.18917574;stroke-linecap:round;stroke-miterlimit:4;stroke-dasharray:0.04729393, 0.04729393;stroke-dashoffset:0;stroke-opacity:1" />
      <circle
         style="opacity:1;fill:url(#linearGradient1058);fill-opacity:1;stroke:#808080;stroke-width:0.1;stroke-linecap:round;stroke-miterlimit:4;stroke-dasharray:0.025, 0.025;stroke-dashoffset:0;stroke-opacity:1"
         id="circle1042"
         cx="16.933332"
         cy="279.81638"
         r="15.624732" />
      <circle
         r="14.257568"
         cy="279.81638"
         cx="16.933332"
         id="path1040"
         style="opacity:1;fill:url(#linearGradient1050);fill-opacity:1;stroke:#999999;stroke-width:0.09458787;stroke-linecap:round;stroke-miterlimit:4;stroke-dasharray:0.02364697, 0.02364697;stroke-dashoffset:0;stroke-opacity:1" />
      <path
         style="opacity:0.25;fill:#000000;fill-opacity:1;stroke-width:0.94587868"
         d="m 25.905983,270.86524 c -0.09805,-0.002 -0.241777,0.007 -0.456398,0.0208 -1.803313,0.12141 -3.924711,0.73958 -5.751125,1.67602 -1.967773,1.00892 -3.848037,2.52626 -5.328839,4.30018 l -0.60739,0.7277 -0.789464,0.0824 c -2.273228,0.23696 -4.5365927,1.31125 -6.389802,3.03291 -0.4874218,0.45283 -0.5487566,0.53608 -0.5098941,0.69359 0.024297,0.0985 0.071979,0.20725 0.1057717,0.24182 0.036874,0.0378 0.3721811,-0.0172 0.8391228,-0.13766 0.7270094,-0.18759 0.8630458,-0.20081 2.086805,-0.19964 1.1581396,7.8e-4 1.3735786,0.0193 1.8685956,0.16008 l 0.55955,0.15906 -0.229916,0.70953 c -0.428053,1.32006 -0.412529,1.49339 0.165928,1.85043 0.534741,0.33006 1.225995,1.02357 1.62697,1.63222 l 0.324991,0.49334 0.266048,-0.045 c 0.14631,-0.0247 0.616138,-0.15009 1.044211,-0.27876 0.428071,-0.12867 0.803893,-0.20844 0.835085,-0.17723 0.09642,0.0964 0.252594,0.77121 0.326605,1.41119 0.0871,0.75308 -0.0041,1.76369 -0.244853,2.71296 -0.186785,0.73634 -0.213573,1.11829 -0.0872,1.24466 0.136885,0.13688 0.216475,0.0986 0.58236,-0.27917 1.188979,-1.22759 2.270199,-3.02858 2.775138,-4.62234 0.189856,-0.59925 0.334525,-1.35968 0.457006,-2.40412 0.03663,-0.31242 0.06743,-0.35138 0.742028,-0.93865 3.016717,-2.6262 4.935703,-5.80224 5.732353,-9.4869 0.192009,-0.8881 0.353069,-2.29526 0.283406,-2.4768 -0.02687,-0.0701 -0.06366,-0.0997 -0.22709,-0.10254 z m -5.640707,4.18734 a 1.8139564,1.8139564 0 0 1 1.813893,1.81389 1.8139564,1.8139564 0 0 1 -1.813893,1.8141 1.8139564,1.8139564 0 0 1 -1.772714,-1.43885 c -0.0054,-0.0205 -0.0092,-0.0411 -0.01373,-0.0618 a 1.8139564,1.8139564 0 0 1 -0.0012,-0.006 c -0.02274,-0.10409 -0.03595,-0.20867 -0.03532,-0.31147 4.69e-4,-0.0788 0.01159,-0.17352 0.0325,-0.27412 a 1.8139564,1.8139564 0 0 1 1.790475,-1.53634 z m -9.744878,9.53233 c -0.0858,0.011 -0.198183,0.0668 -0.366372,0.17157 -0.7471835,0.46551 -1.4399595,1.22685 -1.8409409,2.02282 -0.3976386,0.78934 -0.6496819,2.07883 -0.4842566,2.4782 0.082376,0.19889 0.1068075,0.20953 0.4808249,0.20953 1.1013019,0 2.5089626,-0.67019 3.3330726,-1.5868 0.837996,-0.93205 1.011525,-1.90104 0.272912,-1.52422 -0.317284,0.16186 -0.901377,0.33086 -1.329435,0.38454 -0.137192,0.0168 -0.3268,-0.009 -0.248083,-0.35689 0.02366,-0.14211 0.141324,-0.55854 0.261406,-0.92532 0.182666,-0.55791 0.203563,-0.68454 0.128381,-0.77512 -0.0625,-0.0753 -0.121712,-0.10927 -0.207509,-0.0983 z"
         id="path1060"
         inkscape:connector-curvature="0" />
      <path
         inkscape:connector-curvature="0"
         id="path1035"
         d="m 25.905983,270.45184 c -0.09805,-0.002 -0.241777,0.007 -0.456398,0.0208 -1.803313,0.1214 -3.924711,0.73957 -5.751125,1.67602 -1.967773,1.00892 -3.848037,2.52625 -5.328839,4.30018 l -0.60739,0.72769 -0.789464,0.0824 c -2.273228,0.23695 -4.5365927,1.31124 -6.389802,3.0329 -0.4874218,0.45283 -0.5487566,0.53609 -0.5098941,0.6936 0.024297,0.0985 0.071979,0.20725 0.1057717,0.24182 0.036874,0.0377 0.3721811,-0.0172 0.8391228,-0.13767 0.7270094,-0.18759 0.8630458,-0.2008 2.086805,-0.19964 1.1581396,7.8e-4 1.3735786,0.0193 1.8685956,0.16008 l 0.55955,0.15906 -0.229916,0.70953 c -0.428053,1.32007 -0.412529,1.49339 0.165928,1.85043 0.534741,0.33007 1.225995,1.02358 1.62697,1.63222 l 0.324991,0.49334 0.266048,-0.045 c 0.14631,-0.0247 0.616138,-0.1501 1.044211,-0.27876 0.428071,-0.12868 0.803893,-0.20845 0.835085,-0.17724 0.09642,0.0964 0.252594,0.77121 0.326605,1.41119 0.0871,0.75308 -0.0041,1.76369 -0.244853,2.71296 -0.186785,0.73634 -0.213573,1.11829 -0.0872,1.24466 0.136885,0.13688 0.216475,0.0986 0.58236,-0.27917 1.188979,-1.22759 2.270199,-3.02857 2.775138,-4.62234 0.189856,-0.59925 0.334525,-1.35968 0.457006,-2.40412 0.03663,-0.31241 0.06743,-0.35137 0.742028,-0.93864 3.016717,-2.6262 4.935703,-5.80225 5.732353,-9.48691 0.192009,-0.88809 0.353069,-2.29526 0.283406,-2.47679 -0.02687,-0.0701 -0.06366,-0.0997 -0.22709,-0.10255 z m -5.640707,4.18734 a 1.8139564,1.8139564 0 0 1 1.813893,1.81389 1.8139564,1.8139564 0 0 1 -1.813893,1.81409 1.8139564,1.8139564 0 0 1 -1.772714,-1.43884 c -0.0054,-0.0205 -0.0092,-0.0412 -0.01373,-0.0618 a 1.8139564,1.8139564 0 0 1 -0.0012,-0.006 c -0.02274,-0.1041 -0.03595,-0.20867 -0.03532,-0.31147 4.69e-4,-0.0788 0.01159,-0.17352 0.0325,-0.27413 a 1.8139564,1.8139564 0 0 1 1.790475,-1.53633 z m -9.744878,9.53232 c -0.0858,0.011 -0.198183,0.0668 -0.366372,0.17158 -0.7471835,0.4655 -1.4399595,1.22684 -1.8409409,2.02282 -0.3976386,0.78933 -0.6496819,2.07883 -0.4842566,2.4782 0.082376,0.19889 0.1068075,0.20953 0.4808249,0.20953 1.1013019,0 2.5089626,-0.67019 3.3330726,-1.58681 0.837996,-0.93205 1.011525,-1.90103 0.272912,-1.52421 -0.317284,0.16185 -0.901377,0.33085 -1.329435,0.38452 -0.137192,0.0168 -0.3268,-0.009 -0.248083,-0.35688 0.02366,-0.14211 0.141324,-0.55854 0.261406,-0.92531 0.182666,-0.55792 0.203563,-0.68454 0.128381,-0.77513 -0.0625,-0.0753 -0.121712,-0.10927 -0.207509,-0.0983 z"
         style="fill:#44484a;fill-opacity:1;stroke-width:0.94587868" />
    </g>
  </g>
</svg>
