<?xml version="1.0" encoding="UTF-8" standalone="no"?>
<!-- Created with Inkscape (http://www.inkscape.org/) -->

<svg
   xmlns:osb="http://www.openswatchbook.org/uri/2009/osb"
   xmlns:dc="http://purl.org/dc/elements/1.1/"
   xmlns:cc="http://creativecommons.org/ns#"
   xmlns:rdf="http://www.w3.org/1999/02/22-rdf-syntax-ns#"
   xmlns:svg="http://www.w3.org/2000/svg"
   xmlns="http://www.w3.org/2000/svg"
   xmlns:xlink="http://www.w3.org/1999/xlink"
   xmlns:sodipodi="http://sodipodi.sourceforge.net/DTD/sodipodi-0.dtd"
   xmlns:inkscape="http://www.inkscape.org/namespaces/inkscape"
   width="128"
   height="128"
   viewBox="0 0 33.866665 33.866665"
   version="1.1"
   id="svg4942"
   inkscape:version="0.92.2 5c3e80d, 2017-08-06"
   sodipodi:docname="brackets.svg"
   style="enable-background:new">
  <defs
     id="defs4936">
    <linearGradient
       inkscape:collect="always"
       id="linearGradient2807">
      <stop
         style="stop-color:#ebf4f5;stop-opacity:1"
         offset="0"
         id="stop2803" />
      <stop
         style="stop-color:#d0d0d0;stop-opacity:1"
         offset="1"
         id="stop2805" />
    </linearGradient>
    <linearGradient
       id="linearGradient6987"
       osb:paint="solid">
      <stop
         style="stop-color:#77d2fb;stop-opacity:1;"
         offset="0"
         id="stop6985" />
    </linearGradient>
    <linearGradient
       id="linearGradient3318"
       inkscape:collect="always">
      <stop
         id="stop3314"
         offset="0"
         style="stop-color:#3f4a59;stop-opacity:1" />
      <stop
         id="stop3316"
         offset="1"
         style="stop-color:#4c5a6b;stop-opacity:1" />
    </linearGradient>
    <linearGradient
       inkscape:collect="always"
       xlink:href="#linearGradient2807"
       id="linearGradient2809"
       x1="24.601843"
       y1="265.95294"
       x2="29.395853"
       y2="291.59354"
       gradientUnits="userSpaceOnUse" />
    <linearGradient
       inkscape:collect="always"
       xlink:href="#linearGradient3318"
       id="linearGradient2817"
       x1="16.191771"
       y1="288.41022"
       x2="11.484479"
       y2="270.84238"
       gradientUnits="userSpaceOnUse" />
  </defs>
  <sodipodi:namedview
     id="base"
     pagecolor="#ffffff"
     bordercolor="#666666"
     borderopacity="1.0"
     inkscape:pageopacity="0.0"
     inkscape:pageshadow="2"
     inkscape:zoom="2.4971816"
     inkscape:cx="-2.460437"
     inkscape:cy="48.771318"
     inkscape:document-units="mm"
     inkscape:current-layer="layer1"
     showgrid="false"
     units="px"
     width="128px"
     inkscape:window-width="1600"
     inkscape:window-height="803"
     inkscape:window-x="0"
     inkscape:window-y="0"
     inkscape:window-maximized="1"
     inkscape:measure-start="-293.521,100.415"
     inkscape:measure-end="-294.709,409.978"
     showguides="false" />
  <metadata
     id="metadata4939">
    <rdf:RDF>
      <cc:Work
         rdf:about="">
        <dc:format>image/svg+xml</dc:format>
        <dc:type
           rdf:resource="http://purl.org/dc/dcmitype/StillImage" />
        <dc:title />
      </cc:Work>
    </rdf:RDF>
  </metadata>
  <g
     inkscape:label="Layer 1"
     inkscape:groupmode="layer"
     id="layer1"
     transform="translate(0,-263.13332)">
    <g
       id="g2838"
       transform="matrix(0.99686464,0,0,0.99686464,0.05309225,0.927881)">
      <path
         style="opacity:0.25;fill:#000000;fill-opacity:1;stroke:none;stroke-width:0.17679989;stroke-miterlimit:4;stroke-dasharray:none;stroke-opacity:1"
         inkscape:connector-curvature="0"
         d="m 32.563045,291.02322 c 0.06798,0.42918 -0.172825,0.76061 -0.601998,0.82858 l -25.7503875,4.07846 c -0.429173,0.068 -0.7606038,-0.17282 -0.8285798,-0.602 L 1.303619,269.57787 c -0.067971,-0.42918 0.1728254,-0.76061 0.6019983,-0.82858 l 25.7503887,-4.07846 c 0.429173,-0.068 0.760603,0.17282 0.828577,0.60199 z"
         id="path4593" />
      <path
         id="path1379"
         d="m 32.563045,290.55543 c 0.06798,0.42918 -0.172825,0.76061 -0.601998,0.82858 l -25.7503875,4.07847 c -0.429173,0.068 -0.7606038,-0.17283 -0.8285798,-0.60201 L 1.303619,269.11008 c -0.067971,-0.42917 0.1728254,-0.7606 0.6019983,-0.82857 l 25.7503887,-4.07847 c 0.429173,-0.068 0.760603,0.17283 0.828577,0.602 z"
         inkscape:connector-curvature="0"
         style="fill:url(#linearGradient2809);fill-opacity:1;stroke:#999999;stroke-width:0.2;stroke-miterlimit:4;stroke-dasharray:none;stroke-opacity:1" />
      <path
         style="fill:url(#linearGradient2817);fill-opacity:1;stroke:none;stroke-width:0.15520498;stroke-miterlimit:4;stroke-dasharray:none;stroke-opacity:1"
         inkscape:connector-curvature="0"
         d="m 30.653981,289.24572 c 0.05968,0.37676 -0.151715,0.66771 -0.528467,0.72738 l -22.6051524,3.58031 c -0.3767524,0.0597 -0.6677013,-0.15171 -0.7273744,-0.52847 L 3.2126829,270.41978 c -0.059669,-0.37674 0.1517159,-0.66769 0.5284683,-0.72736 l 22.6051528,-3.58031 c 0.376753,-0.0597 0.6677,0.15171 0.727372,0.52846 z"
         id="path1535" />
      <g
         id="g2825"
         transform="matrix(0.92402475,-0.14635114,0.14635114,0.92402475,-28.203314,11.2782)"
         style="opacity:0.25;fill:#000000;stroke:none;stroke-width:0.10688982;stroke-miterlimit:4;stroke-dasharray:none;stroke-opacity:1">
        <path
           style="isolation:isolate;fill:#000000;fill-opacity:1;stroke:none;stroke-width:0.10688982;stroke-miterlimit:4;stroke-dasharray:none;stroke-opacity:1"
           inkscape:connector-curvature="0"
           d="m 10.744744,291.66498 c 0,-0.24572 -0.181658,-0.38756 -0.404728,-0.31657 l -15.3310326,4.86309 c -0.2232136,0.0707 -0.4041507,0.32782 -0.4041507,0.57296 v 4.97015 c 0,0.24572 0.1809371,0.38813 0.4041507,0.31729 l 15.3310326,-4.86294 c 0.22307,-0.0709 0.404728,-0.32725 0.404728,-0.57311 z"
           id="path2819" />
        <path
           style="isolation:isolate;fill:#000000;fill-opacity:1;stroke:none;stroke-width:0.10688982;stroke-miterlimit:4;stroke-dasharray:none;stroke-opacity:1"
           inkscape:connector-curvature="0"
           d="m -5.4305179,291.59341 c 0,0.24587 0.1816586,0.38756 0.4047279,0.31672 l 15.331033,-4.86323 c 0.223213,-0.0707 0.404151,-0.3271 0.404151,-0.57282 v -4.97 c 0,-0.24601 -0.180938,-0.38843 -0.404151,-0.31758 l -15.331033,4.86323 c -0.2230693,0.0708 -0.4047279,0.32782 -0.4047279,0.57354 z"
           id="path2821" />
        <path
           style="isolation:isolate;fill:#000000;fill-opacity:1;stroke:none;stroke-width:0.10688982;stroke-miterlimit:4;stroke-dasharray:none;stroke-opacity:1"
           inkscape:connector-curvature="0"
           d="m -5.3951673,291.53455 c 0,0.24586 0.1809371,0.50298 0.4041507,0.57383 l 15.3310326,4.86294 c 0.22307,0.071 0.404728,-0.0716 0.404728,-0.31657 v -4.97 c 0,-0.24601 -0.181658,-0.50299 -0.404728,-0.57383 l -15.3310326,-4.86309 c -0.2232136,-0.0708 -0.4041507,0.0709 -0.4041507,0.31657 z"
           id="path2823" />
      </g>
      <g
         style="stroke:none;stroke-width:0.10688982;stroke-miterlimit:4;stroke-dasharray:none;stroke-opacity:1"
         transform="matrix(0.92402475,-0.14635114,0.14635114,0.92402475,-28.203314,10.749033)"
         id="g2801">
        <path
           id="Path"
           d="m 10.744744,291.66498 c 0,-0.24572 -0.181658,-0.38756 -0.404728,-0.31657 l -15.3310326,4.86309 c -0.2232136,0.0707 -0.4041507,0.32782 -0.4041507,0.57296 v 4.97015 c 0,0.24572 0.1809371,0.38813 0.4041507,0.31729 l 15.3310326,-4.86294 c 0.22307,-0.0709 0.404728,-0.32725 0.404728,-0.57311 z"
           inkscape:connector-curvature="0"
           style="isolation:isolate;fill:#e67e22;fill-opacity:1;stroke:none;stroke-width:0.10688982;stroke-miterlimit:4;stroke-dasharray:none;stroke-opacity:1" />
        <path
           id="path1972"
           d="m -5.4305179,291.59341 c 0,0.24587 0.1816586,0.38756 0.4047279,0.31672 l 15.331033,-4.86323 c 0.223213,-0.0707 0.404151,-0.3271 0.404151,-0.57282 v -4.97 c 0,-0.24601 -0.180938,-0.38843 -0.404151,-0.31758 l -15.331033,4.86323 c -0.2230693,0.0708 -0.4047279,0.32782 -0.4047279,0.57354 z"
           inkscape:connector-curvature="0"
           style="isolation:isolate;fill:#e67e22;fill-opacity:1;stroke:none;stroke-width:0.10688982;stroke-miterlimit:4;stroke-dasharray:none;stroke-opacity:1" />
        <path
           id="path1997"
           d="m -5.3951673,291.53455 c 0,0.24586 0.1809371,0.50298 0.4041507,0.57383 l 15.3310326,4.86294 c 0.22307,0.071 0.404728,-0.0716 0.404728,-0.31657 v -4.97 c 0,-0.24601 -0.181658,-0.50299 -0.404728,-0.57383 l -15.3310326,-4.86309 c -0.2232136,-0.0708 -0.4041507,0.0709 -0.4041507,0.31657 z"
           inkscape:connector-curvature="0"
           style="isolation:isolate;fill:#ff8c26;fill-opacity:1;stroke:none;stroke-width:0.10688982;stroke-miterlimit:4;stroke-dasharray:none;stroke-opacity:1" />
      </g>
    </g>
  </g>
</svg>
