<?xml version="1.0" encoding="UTF-8" standalone="no"?>
<svg
   xmlns:dc="http://purl.org/dc/elements/1.1/"
   xmlns:cc="http://creativecommons.org/ns#"
   xmlns:rdf="http://www.w3.org/1999/02/22-rdf-syntax-ns#"
   xmlns:svg="http://www.w3.org/2000/svg"
   xmlns="http://www.w3.org/2000/svg"
   xmlns:sodipodi="http://sodipodi.sourceforge.net/DTD/sodipodi-0.dtd"
   xmlns:inkscape="http://www.inkscape.org/namespaces/inkscape"
   width="128"
   height="128"
   viewBox="0 0 33.866 33.866"
   version="1.1"
   id="svg14"
   sodipodi:docname="help-browser.svg"
   inkscape:version="0.92.2 5c3e80d, 2017-08-06">
  <metadata
     id="metadata20">
    <rdf:RDF>
      <cc:Work
         rdf:about="">
        <dc:format>image/svg+xml</dc:format>
        <dc:type
           rdf:resource="http://purl.org/dc/dcmitype/StillImage" />
        <dc:title></dc:title>
      </cc:Work>
    </rdf:RDF>
  </metadata>
  <defs
     id="defs18" />
  <sodipodi:namedview
     pagecolor="#ffffff"
     bordercolor="#666666"
     borderopacity="1"
     objecttolerance="10"
     gridtolerance="10"
     guidetolerance="10"
     inkscape:pageopacity="0"
     inkscape:pageshadow="2"
     inkscape:window-width="1600"
     inkscape:window-height="811"
     id="namedview16"
     showgrid="false"
     inkscape:zoom="1.2474768"
     inkscape:cx="-219.15454"
     inkscape:cy="-53.964317"
     inkscape:window-x="0"
     inkscape:window-y="0"
     inkscape:window-maximized="1"
     inkscape:current-layer="svg14" />
  <g
     id="g998"
     transform="matrix(1.0651627,0,0,1.0651627,71.994274,-2.3219014)">
    <g
       aria-label="?"
       style="font-style:normal;font-weight:normal;font-size:7.44067526px;line-height:1.25;font-family:sans-serif;letter-spacing:0px;word-spacing:0px;opacity:0.25;fill:#000000;fill-opacity:0.99215686;stroke:none;stroke-width:0.18601689"
       id="g973"
       transform="matrix(2.4725332,0,0,2.4725332,22.047637,-6.3303752)">
      <path
         d="m -29.799109,11.243408 c 0.10417,-0.639898 0.297627,-0.937525 0.706864,-1.4137287 0.223221,-0.2604236 0.558051,-0.7812709 0.558051,-1.1607453 0,-0.3869151 -0.06697,-0.5580507 -0.267864,-0.8035929 -0.178577,-0.2157796 -0.669661,-0.4315592 -1.09378,-0.4315592 -0.513406,0 -1.21283,0.319949 -1.21283,1.0714572 0,0.252983 0.07441,0.4687626 0.372034,0.4687626 0.208339,0 0.290186,-0.1785762 0.290186,-0.3050677 0,-0.2678643 -0.282745,-0.3571524 -0.282745,-0.5580507 0,-0.2455422 0.379474,-0.4538812 0.691983,-0.4538812 0.572932,0 0.818474,0.4985253 0.818474,0.9449658 0,0.5431693 -0.312508,1.190508 -0.483644,1.5848641 -0.04464,0.104169 -0.22322,0.617576 -0.22322,1.056576 z m -0.44644,0.900321 c 0,0.282746 0.238101,0.379475 0.394355,0.379475 0.178577,0 0.409238,-0.11161 0.409238,-0.379475 0,-0.215779 -0.178577,-0.401796 -0.409238,-0.401796 -0.215779,0 -0.394355,0.171135 -0.394355,0.401796 z"
         style="font-style:normal;font-variant:normal;font-weight:normal;font-stretch:normal;font-family:'.Times LT MM';-inkscape-font-specification:'.Times LT MM';fill:#000000;fill-opacity:0.99215686;stroke-width:0.18601689"
         id="path971"
         inkscape:connector-curvature="0" />
    </g>
    <path
       style="opacity:0.25;fill:#000000;fill-opacity:1;stroke:#4d4d4d;stroke-width:0.09999804;stroke-miterlimit:4;stroke-dasharray:none"
       inkscape:connector-curvature="0"
       id="path969"
       d="M -38.13619,12.96103 A 14.585302,14.585302 0 1 0 -65.071654,24.149898 14.585302,14.585302 0 0 0 -38.13619,12.96103 m -5.385735,2.237209 a 8.7533862,8.7533862 0 1 1 -16.165415,6.711024 8.7533862,8.7533862 0 0 1 16.163993,-6.714449 m 0,0" />
    <path
       d="M -38.13619,12.431874 A 14.585302,14.585302 0 1 0 -65.071654,23.620742 14.585302,14.585302 0 0 0 -38.13619,12.431874 m -5.385735,2.237209 a 8.7533862,8.7533862 0 1 1 -16.165415,6.711024 8.7533862,8.7533862 0 0 1 16.163993,-6.714449 m 0,0"
       id="path8"
       inkscape:connector-curvature="0"
       style="fill:#f2f2f2;fill-opacity:1;stroke:#4d4d4d;stroke-width:0.09999804;stroke-miterlimit:4;stroke-dasharray:none" />
    <path
       inkscape:connector-curvature="0"
       id="path917"
       d="m -38.191916,12.308514 a 14.585302,14.585302 0 0 0 -0.189607,-0.416812 c -0.151217,-0.338635 -0.306683,-0.673842 -0.481112,-0.994846 A 14.585302,14.585302 0 0 0 -39.0672,10.547949 c -0.203356,-0.350045 -0.411814,-0.6954463 -0.640893,-1.0230704 a 14.585302,14.585302 0 0 0 -0.12106,-0.1676902 c -0.277793,-0.3854623 -0.569083,-0.7583646 -0.87904,-1.1112639 -0.33798,-0.3848061 -0.694539,-0.7502073 -1.065742,-1.0954037 l -3.69221,4.7394832 a 8.7533862,8.7533862 0 0 1 1.946353,2.779718 l 0.0014,0.0034 a 8.7533862,8.7533862 0 0 1 0.706604,2.928692 l 5.676711,0.716072 c 0.05931,-1.540647 -0.129418,-3.075991 -0.552051,-4.551558 a 14.585302,14.585302 0 0 0 -0.122298,-0.368675 c -0.115709,-0.366598 -0.237581,-0.731827 -0.38256,-1.089258 z M -51.187299,3.2654003 c -1.014676,-0.039675 -2.026006,0.031204 -3.021046,0.2021075 a 14.585302,14.585302 0 0 0 -0.125647,0.019313 c -0.434912,0.078618 -0.864953,0.1838747 -1.29134,0.3019854 a 14.585302,14.585302 0 0 0 -0.242837,0.063881 c -0.368497,0.1090003 -0.730245,0.2424287 -1.089986,0.380807 a 14.585302,14.585302 0 0 0 -0.39335,0.1470614 c -1.96151,0.827385 -3.640259,2.0533909 -5.003234,3.5238939 l 4.955275,3.7958675 a 8.7533862,8.7533862 0 0 1 5.610397,-2.250346 z m 10.16366,24.4674367 -4.323693,-3.344682 a 8.7533862,8.7533862 0 0 1 -6.15862,2.554246 l -0.68513,5.429444 c 0.980329,0.03361 1.973427,-0.02971 2.962608,-0.194281 a 14.585302,14.585302 0 0 0 0.271901,-0.05331 c 0.386578,-0.07192 0.771915,-0.16148 1.156039,-0.266345 a 14.585302,14.585302 0 0 0 0.452097,-0.134349 c 0.31899,-0.09855 0.635763,-0.210816 0.951306,-0.333484 a 14.585302,14.585302 0 0 0 0.545075,-0.222397 c 0.313354,-0.137127 0.617274,-0.286994 0.915638,-0.4441 a 14.585302,14.585302 0 0 0 0.422688,-0.224937 c 0.354367,-0.202083 0.697757,-0.417243 1.029366,-0.645544 a 14.585302,14.585302 0 0 0 0.209033,-0.140306 c 0.824819,-0.589291 1.578004,-1.254385 2.25165,-1.98 z m -19.258801,-9.696424 -0.129572,0.01476 -5.829337,-0.736984 c -0.03569,0.993213 0.02877,1.998726 0.197597,3.000293 a 14.585302,14.585302 0 0 0 0.03226,0.171701 c 0.07351,0.406067 0.170243,0.810671 0.280162,1.214054 a 14.585302,14.585302 0 0 0 0.130386,0.44757 c 0.117373,0.381022 0.246093,0.76033 0.397966,1.136322 a 14.585302,14.585302 0 0 0 0.07308,0.185549 c 0.200766,0.477055 0.422756,0.938703 0.668554,1.381724 0.767538,1.383408 1.743879,2.598281 2.858986,3.630276 l 3.669537,-4.318825 a 8.7533862,8.7533862 0 0 1 -1.752368,-2.778048 8.7533862,8.7533862 0 0 1 -0.597177,-3.348387 z"
       style="fill:#919191;fill-opacity:1;stroke:#4d4d4d;stroke-width:0.09999804;stroke-miterlimit:4;stroke-dasharray:none" />
    <g
       transform="matrix(2.4725332,0,0,2.4725332,22.047637,-6.8595315)"
       id="text928"
       style="font-style:normal;font-weight:normal;font-size:7.44067526px;line-height:1.25;font-family:sans-serif;letter-spacing:0px;word-spacing:0px;fill:#484848;fill-opacity:0.99215686;stroke:none;stroke-width:0.18601689"
       aria-label="?">
      <path
         inkscape:connector-curvature="0"
         id="path930"
         style="font-style:normal;font-variant:normal;font-weight:normal;font-stretch:normal;font-family:'.Times LT MM';-inkscape-font-specification:'.Times LT MM';fill:#484848;fill-opacity:0.99215686;stroke-width:0.18601689"
         d="m -29.799109,11.243408 c 0.10417,-0.639898 0.297627,-0.937525 0.706864,-1.4137287 0.223221,-0.2604236 0.558051,-0.7812709 0.558051,-1.1607453 0,-0.3869151 -0.06697,-0.5580507 -0.267864,-0.8035929 -0.178577,-0.2157796 -0.669661,-0.4315592 -1.09378,-0.4315592 -0.513406,0 -1.21283,0.319949 -1.21283,1.0714572 0,0.252983 0.07441,0.4687626 0.372034,0.4687626 0.208339,0 0.290186,-0.1785762 0.290186,-0.3050677 0,-0.2678643 -0.282745,-0.3571524 -0.282745,-0.5580507 0,-0.2455422 0.379474,-0.4538812 0.691983,-0.4538812 0.572932,0 0.818474,0.4985253 0.818474,0.9449658 0,0.5431693 -0.312508,1.190508 -0.483644,1.5848641 -0.04464,0.104169 -0.22322,0.617576 -0.22322,1.056576 z m -0.44644,0.900321 c 0,0.282746 0.238101,0.379475 0.394355,0.379475 0.178577,0 0.409238,-0.11161 0.409238,-0.379475 0,-0.215779 -0.178577,-0.401796 -0.409238,-0.401796 -0.215779,0 -0.394355,0.171135 -0.394355,0.401796 z" />
    </g>
  </g>
</svg>
