<?xml version="1.0" encoding="UTF-8" standalone="no"?>
<!-- Created with Inkscape (http://www.inkscape.org/) -->

<svg
   xmlns:dc="http://purl.org/dc/elements/1.1/"
   xmlns:cc="http://creativecommons.org/ns#"
   xmlns:rdf="http://www.w3.org/1999/02/22-rdf-syntax-ns#"
   xmlns:svg="http://www.w3.org/2000/svg"
   xmlns="http://www.w3.org/2000/svg"
   xmlns:sodipodi="http://sodipodi.sourceforge.net/DTD/sodipodi-0.dtd"
   xmlns:inkscape="http://www.inkscape.org/namespaces/inkscape"
   width="128"
   height="128"
   viewBox="0 0 33.866666 33.866668"
   version="1.1"
   id="svg8"
   inkscape:version="0.92.4 (5da689c313, 2019-01-14)"
   sodipodi:docname="preferences-system-search.svg">
  <defs
     id="defs2" />
  <sodipodi:namedview
     id="base"
     pagecolor="#ffffff"
     bordercolor="#666666"
     borderopacity="1.0"
     inkscape:pageopacity="0.0"
     inkscape:pageshadow="2"
     inkscape:zoom="1.979899"
     inkscape:cx="33.561891"
     inkscape:cy="129.36093"
     inkscape:document-units="mm"
     inkscape:current-layer="layer1"
     showgrid="false"
     inkscape:window-width="1600"
     inkscape:window-height="838"
     inkscape:window-x="-8"
     inkscape:window-y="-8"
     inkscape:window-maximized="1"
     units="px" />
  <metadata
     id="metadata5">
    <rdf:RDF>
      <cc:Work
         rdf:about="">
        <dc:format>image/svg+xml</dc:format>
        <dc:type
           rdf:resource="http://purl.org/dc/dcmitype/StillImage" />
        <dc:title />
      </cc:Work>
    </rdf:RDF>
  </metadata>
  <g
     inkscape:label="Layer 1"
     inkscape:groupmode="layer"
     id="layer1"
     transform="translate(0,-263.13332)">
    <g
       id="g825"
       transform="translate(-1.0172526e-6,2.9427084e-6)">
      <circle
         style="opacity:0.25;fill:#000000;fill-opacity:1;stroke:none;stroke-width:0.27695787;stroke-miterlimit:4;stroke-dasharray:none;stroke-opacity:1"
         id="circle822"
         cx="16.933334"
         cy="280.32812"
         r="15.613536" />
      <circle
         r="15.613536"
         cy="279.80518"
         cx="16.933334"
         id="path854"
         style="opacity:1;fill:#008cfb;fill-opacity:1;stroke:#0064b2;stroke-width:0.27695787;stroke-miterlimit:4;stroke-dasharray:none;stroke-opacity:1" />
      <path
         id="path820"
         style="opacity:0.25;fill:#000000;fill-opacity:1;stroke-width:0.03486145"
         d="m 14.679051,270.19283 c -0.423823,4e-4 -0.851671,0.0354 -1.280132,0.10653 -2.169394,0.36015 -4.1580133,1.66432 -5.3434028,3.50439 -0.6555136,1.01754 -1.038982,2.07323 -1.2141619,3.34261 -0.053892,0.39053 -0.052968,1.43085 0.00119,1.84759 0.3487313,2.67277 1.9638428,4.95672 4.3450487,6.14443 1.212876,0.60496 2.398151,0.86142 3.780154,0.81788 1.47989,-0.0466 2.840412,-0.48127 4.063881,-1.29831 0.243127,-0.16242 0.456275,-0.29527 0.473486,-0.29527 0.02816,0 1.313896,1.2661 4.963979,4.8883 1.049979,1.04196 1.236181,1.21242 1.324356,1.21242 0.08621,0 0.195918,-0.0933 0.686847,-0.58359 0.434967,-0.4344 0.584301,-0.60519 0.584301,-0.66816 0,-0.1 0.133769,0.0395 -3.442595,-3.58905 -1.462006,-1.48338 -2.658221,-2.70975 -2.658221,-2.72522 0,-0.0155 0.114762,-0.19799 0.255025,-0.40568 0.642586,-0.95144 1.042225,-1.94267 1.248579,-3.09678 0.108622,-0.60751 0.118494,-1.90998 0.01899,-2.51002 -0.139704,-0.84252 -0.357459,-1.52588 -0.722083,-2.26603 -1.352175,-2.74478 -4.11853,-4.42908 -7.085284,-4.42604 z m -4.534098,0.5073 c -0.0081,0.002 -0.01615,0.004 -0.0242,0.005 -0.0085,0.0117 -0.01694,0.0235 -0.02543,0.0352 a 12.718202,13.203772 0 0 1 0.04963,-0.0405 z m 4.484259,1.26297 c 0.691966,-0.004 1.385816,0.10296 2.040618,0.3205 2.571189,0.8542 4.225394,3.29032 4.107083,6.04802 -0.03338,0.77738 -0.139735,1.30721 -0.402408,2.00426 -0.299573,0.79497 -0.716361,1.43043 -1.361637,2.07616 -1.027456,1.02817 -2.305921,1.6084 -3.836016,1.74096 -0.491835,0.0426 -0.672776,0.04 -1.185259,-0.0175 -1.048485,-0.11742 -1.933834,-0.43479 -2.757795,-0.98824 -1.107559,-0.74393 -1.9081998,-1.80803 -2.3288423,-3.09545 -0.2201251,-0.67372 -0.2937044,-1.1659 -0.2938348,-1.96422 0,-0.54947 0.014527,-0.76001 0.076289,-1.09814 0.1612325,-0.88284 0.4837804,-1.68689 0.9716975,-2.42188 0.3251015,-0.48973 0.9782456,-1.15774 1.4737816,-1.50739 0.37997,-0.26811 1.031374,-0.60306 1.466937,-0.75425 0.647297,-0.22468 1.33742,-0.33906 2.029386,-0.34286 z"
         inkscape:connector-curvature="0" />
      <path
         inkscape:connector-curvature="0"
         d="m 14.679051,269.66991 c -0.423823,3.9e-4 -0.851671,0.0354 -1.280132,0.10652 -2.169394,0.36015 -4.1580133,1.66433 -5.3434028,3.50439 -0.6555136,1.01755 -1.038982,2.07324 -1.2141619,3.34262 -0.053892,0.39053 -0.052968,1.43085 0.00119,1.84758 0.3487313,2.67277 1.9638428,4.95672 4.3450487,6.14444 1.212876,0.60496 2.398151,0.86142 3.780154,0.81788 1.47989,-0.0466 2.840412,-0.48128 4.063881,-1.29832 0.243127,-0.16241 0.456275,-0.29526 0.473486,-0.29526 0.02816,0 1.313896,1.26609 4.963979,4.88829 1.049979,1.04196 1.236181,1.21242 1.324356,1.21242 0.08621,0 0.195918,-0.0933 0.686847,-0.58358 0.434967,-0.4344 0.584301,-0.60519 0.584301,-0.66816 0,-0.1 0.133769,0.0395 -3.442595,-3.58906 -1.462006,-1.48338 -2.658221,-2.70975 -2.658221,-2.72522 0,-0.0155 0.114762,-0.19799 0.255025,-0.40567 0.642586,-0.95144 1.042225,-1.94267 1.248579,-3.09678 0.108622,-0.60752 0.118494,-1.90999 0.01899,-2.51002 -0.139704,-0.84252 -0.357459,-1.52588 -0.722083,-2.26603 -1.352175,-2.74479 -4.11853,-4.42909 -7.085284,-4.42604 z m -4.534098,0.50729 c -0.0081,0.002 -0.01615,0.004 -0.0242,0.005 -0.0085,0.0117 -0.01694,0.0235 -0.02543,0.0352 a 12.718202,13.203772 0 0 1 0.04963,-0.0405 z m 4.484259,1.26298 c 0.691966,-0.004 1.385816,0.10295 2.040618,0.32049 2.571189,0.85421 4.225394,3.29033 4.107083,6.04802 -0.03338,0.77739 -0.139735,1.30722 -0.402408,2.00426 -0.299573,0.79497 -0.716361,1.43044 -1.361637,2.07617 -1.027456,1.02816 -2.305921,1.60839 -3.836016,1.74095 -0.491835,0.0426 -0.672776,0.04 -1.185259,-0.0175 -1.048485,-0.11742 -1.933834,-0.43479 -2.757795,-0.98824 -1.107559,-0.74392 -1.9081998,-1.80802 -2.3288423,-3.09545 -0.2201251,-0.67371 -0.2937044,-1.16589 -0.2938348,-1.96422 0,-0.54947 0.014527,-0.76 0.076289,-1.09814 0.1612325,-0.88283 0.4837804,-1.68689 0.9716975,-2.42188 0.3251015,-0.48973 0.9782456,-1.15774 1.4737816,-1.50738 0.37997,-0.26811 1.031374,-0.60307 1.466937,-0.75425 0.647297,-0.22469 1.33742,-0.33907 2.029386,-0.34287 z"
         style="opacity:1;fill:#eeeeee;fill-opacity:1;stroke-width:0.03486145"
         id="path856" />
    </g>
  </g>
</svg>
