<?xml version="1.0" encoding="UTF-8" standalone="no"?>
<!-- Created with Inkscape (http://www.inkscape.org/) -->

<svg
   xmlns:osb="http://www.openswatchbook.org/uri/2009/osb"
   xmlns:dc="http://purl.org/dc/elements/1.1/"
   xmlns:cc="http://creativecommons.org/ns#"
   xmlns:rdf="http://www.w3.org/1999/02/22-rdf-syntax-ns#"
   xmlns:svg="http://www.w3.org/2000/svg"
   xmlns="http://www.w3.org/2000/svg"
   xmlns:xlink="http://www.w3.org/1999/xlink"
   xmlns:sodipodi="http://sodipodi.sourceforge.net/DTD/sodipodi-0.dtd"
   xmlns:inkscape="http://www.inkscape.org/namespaces/inkscape"
   width="128"
   height="128"
   viewBox="0 0 33.866666 33.866668"
   version="1.1"
   id="svg8"
   sodipodi:docname="user_icon 2.svg"
   inkscape:version="0.92.2 5c3e80d, 2017-08-06">
  <defs
     id="defs2">
    <linearGradient
       inkscape:collect="always"
       id="linearGradient1400">
      <stop
         style="stop-color:#36454e;stop-opacity:1"
         offset="0"
         id="stop1396" />
      <stop
         style="stop-color:#273339;stop-opacity:1"
         offset="1"
         id="stop1398" />
    </linearGradient>
    <linearGradient
       inkscape:collect="always"
       id="linearGradient1270">
      <stop
         style="stop-color:#fd4205;stop-opacity:1"
         offset="0"
         id="stop1266" />
      <stop
         style="stop-color:#e30f2d;stop-opacity:1"
         offset="1"
         id="stop1268" />
    </linearGradient>
    <linearGradient
       id="linearGradient6987"
       osb:paint="solid">
      <stop
         style="stop-color:#77d2fb;stop-opacity:1;"
         offset="0"
         id="stop6985" />
    </linearGradient>
    <linearGradient
       inkscape:collect="always"
       xlink:href="#linearGradient1270"
       id="linearGradient1272"
       x1="-104.34485"
       y1="244.93161"
       x2="-104.34485"
       y2="271.09589"
       gradientUnits="userSpaceOnUse"
       gradientTransform="matrix(0.51204607,0,0,0.51204607,-28.683806,149.61856)" />
    <linearGradient
       inkscape:collect="always"
       xlink:href="#linearGradient1400"
       id="linearGradient1402"
       x1="-122.19425"
       y1="236.82236"
       x2="-86.827293"
       y2="280.91232"
       gradientUnits="userSpaceOnUse"
       gradientTransform="matrix(0.51204607,0,0,0.51204607,-28.683806,149.61856)" />
  </defs>
  <sodipodi:namedview
     id="base"
     pagecolor="#ffffff"
     bordercolor="#666666"
     borderopacity="1.0"
     inkscape:pageopacity="0.0"
     inkscape:pageshadow="2"
     inkscape:zoom="3.414"
     inkscape:cx="103.22483"
     inkscape:cy="15.107087"
     inkscape:document-units="mm"
     inkscape:current-layer="layer1"
     showgrid="false"
     inkscape:window-width="1600"
     inkscape:window-height="803"
     inkscape:window-x="0"
     inkscape:window-y="0"
     inkscape:window-maximized="1"
     units="px" />
  <metadata
     id="metadata5">
    <rdf:RDF>
      <cc:Work
         rdf:about="">
        <dc:format>image/svg+xml</dc:format>
        <dc:type
           rdf:resource="http://purl.org/dc/dcmitype/StillImage" />
        <dc:title />
      </cc:Work>
    </rdf:RDF>
  </metadata>
  <g
     inkscape:label="Layer 1"
     inkscape:groupmode="layer"
     id="layer1"
     transform="translate(0,-263.13332)">
    <g
       id="g1443"
       transform="matrix(0.99038593,0,0,0.99038593,97.579417,2.319124)">
      <path
         inkscape:connector-curvature="0"
         style="opacity:0.25;fill:#000000;fill-opacity:1;fill-rule:nonzero;stroke:none;stroke-width:0.23483111;stroke-linecap:round;stroke-linejoin:round;stroke-miterlimit:4;stroke-opacity:1"
         d="m -93.855463,264.9938 c -0.45739,0 -0.826724,0.36933 -0.826724,0.82672 v 0.82917 c 0,0.45983 0.369334,0.82917 0.826724,0.82917 0.459833,0 0.829167,-0.36934 0.829167,-0.82917 v -0.82917 c 0,-0.45739 -0.369334,-0.82672 -0.829167,-0.82672 z m 4.143395,0 c -0.459833,0 -0.829166,0.36933 -0.829166,0.82672 v 0.82917 c 0,0.45983 0.369333,0.82917 0.829166,0.82917 0.45739,0 0.826724,-0.36934 0.826724,-0.82917 v -0.82917 c 0,-0.45739 -0.369334,-0.82672 -0.826724,-0.82672 z m 4.140947,0 c -0.457385,0 -0.826719,0.36933 -0.826719,0.82672 v 0.82917 c 0,0.45983 0.369334,0.82917 0.826719,0.82917 0.459838,0 0.829172,-0.36934 0.829172,-0.82917 v -0.82917 c 0,-0.45739 -0.369334,-0.82672 -0.829172,-0.82672 z m 4.143395,0 c -0.459833,0 -0.829166,0.36933 -0.829166,0.82672 v 0.82917 c 0,0.45983 0.369333,0.82917 0.829166,0.82917 0.45739,0 0.826724,-0.36934 0.826724,-0.82917 v -0.82917 c 0,-0.45739 -0.369334,-0.82672 -0.826724,-0.82672 z m 4.140951,0 c -0.457387,0 -0.826723,0.36933 -0.826723,0.82672 v 0.82917 c 0,0.45983 0.369336,0.82917 0.826723,0.82917 0.459834,0 0.829168,-0.36934 0.829168,-0.82917 v -0.82917 c 0,-0.45739 -0.369334,-0.82672 -0.829168,-0.82672 z m 4.143395,0 c -0.459834,0 -0.829168,0.36933 -0.829168,0.82672 v 0.82917 c 0,0.45983 0.369334,0.82917 0.829168,0.82917 0.457388,0 0.826723,-0.36934 0.826723,-0.82917 v -0.82917 c 0,-0.45739 -0.369335,-0.82672 -0.826723,-0.82672 z m 4.14095,0 c -0.457387,0 -0.826723,0.36933 -0.826723,0.82672 v 0.82917 c 0,0.45983 0.369336,0.82917 0.826723,0.82917 0.459833,0 0.829167,-0.36934 0.829167,-0.82917 v -0.82917 c 0,-0.45739 -0.369334,-0.82672 -0.829167,-0.82672 z m -27.33809,2.48506 c -0.45739,0 -0.829171,0.36934 -0.829171,0.82917 0,0.45738 0.371781,0.82672 0.829171,0.82672 h 0.829167 c 0.459832,0 0.829166,-0.36934 0.829166,-0.82672 0,-0.45983 -0.369334,-0.82917 -0.829166,-0.82917 z m 28.996427,0 c -0.459834,0 -0.82917,0.36934 -0.82917,0.82917 0,0.45738 0.369336,0.82672 0.82917,0.82672 h 0.826721 c 0.459833,0 0.829169,-0.36934 0.829169,-0.82672 0,-0.45983 -0.369336,-0.82917 -0.829169,-0.82917 z m -28.996427,4.14095 c -0.45739,0 -0.829171,0.36933 -0.829171,0.82917 0,0.45983 0.371781,0.82917 0.829171,0.82917 h 0.829167 c 0.459832,0 0.829166,-0.36934 0.829166,-0.82917 0,-0.45984 -0.369334,-0.82917 -0.829166,-0.82917 z m 28.996427,0 c -0.459834,0 -0.82917,0.36933 -0.82917,0.82917 0,0.45983 0.369336,0.82917 0.82917,0.82917 h 0.826721 c 0.459833,0 0.829169,-0.36934 0.829169,-0.82917 0,-0.45984 -0.369336,-0.82917 -0.829169,-0.82917 z m -28.996427,4.14339 c -0.45739,0 -0.829171,0.36934 -0.829171,0.82917 0,0.45739 0.371781,0.82673 0.829171,0.82673 h 0.829167 c 0.459832,0 0.829166,-0.36934 0.829166,-0.82673 0,-0.45983 -0.369334,-0.82917 -0.829166,-0.82917 z m 28.996427,0 c -0.459834,0 -0.82917,0.36934 -0.82917,0.82917 0,0.45739 0.369336,0.82673 0.82917,0.82673 h 0.826721 c 0.459833,0 0.829169,-0.36934 0.829169,-0.82673 0,-0.45983 -0.369336,-0.82917 -0.829169,-0.82917 z m -28.996427,4.14095 c -0.45739,0 -0.829171,0.36934 -0.829171,0.82917 0,0.45984 0.371781,0.82917 0.829171,0.82917 h 0.829167 c 0.459832,0 0.829166,-0.36933 0.829166,-0.82917 0,-0.45983 -0.369334,-0.82917 -0.829166,-0.82917 z m 28.996427,0 c -0.459834,0 -0.82917,0.36934 -0.82917,0.82917 0,0.45984 0.369336,0.82917 0.82917,0.82917 h 0.826721 c 0.459833,0 0.829169,-0.36933 0.829169,-0.82917 0,-0.45983 -0.369336,-0.82917 -0.829169,-0.82917 z m -28.996427,4.1434 c -0.45739,0 -0.829171,0.36933 -0.829171,0.82917 0,0.45738 0.371781,0.82672 0.829171,0.82672 h 0.829167 c 0.459832,0 0.829166,-0.36934 0.829166,-0.82672 0,-0.45984 -0.369334,-0.82917 -0.829166,-0.82917 z m 28.996427,0 c -0.459834,0 -0.82917,0.36933 -0.82917,0.82917 0,0.45738 0.369336,0.82672 0.82917,0.82672 h 0.826721 c 0.459833,0 0.829169,-0.36934 0.829169,-0.82672 0,-0.45984 -0.369336,-0.82917 -0.829169,-0.82917 z m -28.996427,4.14095 c -0.45739,0 -0.829171,0.36933 -0.829171,0.82917 0,0.45983 0.371781,0.82916 0.829171,0.82916 h 0.829167 c 0.459832,0 0.829166,-0.36933 0.829166,-0.82916 0,-0.45984 -0.369334,-0.82917 -0.829166,-0.82917 z m 28.996427,0 c -0.459834,0 -0.82917,0.36933 -0.82917,0.82917 0,0.45983 0.369336,0.82916 0.82917,0.82916 h 0.826721 c 0.459833,0 0.829169,-0.36933 0.829169,-0.82916 0,-0.45984 -0.369336,-0.82917 -0.829169,-0.82917 z m -28.996427,4.14339 c -0.45739,0 -0.829171,0.36934 -0.829171,0.82917 0,0.45739 0.371781,0.82672 0.829171,0.82672 h 0.829167 c 0.459832,0 0.829166,-0.36933 0.829166,-0.82672 0,-0.45983 -0.369334,-0.82917 -0.829166,-0.82917 z m 28.996427,0 c -0.459834,0 -0.82917,0.36934 -0.82917,0.82917 0,0.45739 0.369336,0.82672 0.82917,0.82672 h 0.826721 c 0.459833,0 0.829169,-0.36933 0.829169,-0.82672 0,-0.45983 -0.369336,-0.82917 -0.829169,-0.82917 z m -26.51137,1.65589 c -0.45739,0 -0.826724,0.36934 -0.826724,0.82917 v 0.82917 c 0,0.45739 0.369334,0.82672 0.826724,0.82672 0.459833,0 0.829167,-0.36933 0.829167,-0.82672 v -0.82917 c 0,-0.45983 -0.369334,-0.82917 -0.829167,-0.82917 z m 4.143395,0 c -0.459833,0 -0.829166,0.36934 -0.829166,0.82917 v 0.82917 c 0,0.45739 0.369333,0.82672 0.829166,0.82672 0.45739,0 0.826724,-0.36933 0.826724,-0.82672 v -0.82917 c 0,-0.45983 -0.369334,-0.82917 -0.826724,-0.82917 z m 4.140947,0 c -0.457385,0 -0.826719,0.36934 -0.826719,0.82917 v 0.82917 c 0,0.45739 0.369334,0.82672 0.826719,0.82672 0.459838,0 0.829172,-0.36933 0.829172,-0.82672 v -0.82917 c 0,-0.45983 -0.369334,-0.82917 -0.829172,-0.82917 z m 4.143395,0 c -0.459833,0 -0.829166,0.36934 -0.829166,0.82917 v 0.82917 c 0,0.45739 0.369333,0.82672 0.829166,0.82672 0.45739,0 0.826724,-0.36933 0.826724,-0.82672 v -0.82917 c 0,-0.45983 -0.369334,-0.82917 -0.826724,-0.82917 z m 4.140951,0 c -0.457387,0 -0.826723,0.36934 -0.826723,0.82917 v 0.82917 c 0,0.45739 0.369336,0.82672 0.826723,0.82672 0.459834,0 0.829168,-0.36933 0.829168,-0.82672 v -0.82917 c 0,-0.45983 -0.369334,-0.82917 -0.829168,-0.82917 z m 4.143395,0 c -0.459834,0 -0.829168,0.36934 -0.829168,0.82917 v 0.82917 c 0,0.45739 0.369334,0.82672 0.829168,0.82672 0.457388,0 0.826723,-0.36933 0.826723,-0.82672 v -0.82917 c 0,-0.45983 -0.369335,-0.82917 -0.826723,-0.82917 z m 4.14095,0 c -0.457387,0 -0.826723,0.36934 -0.826723,0.82917 v 0.82917 c 0,0.45739 0.369336,0.82672 0.826723,0.82672 0.459833,0 0.829167,-0.36933 0.829167,-0.82672 v -0.82917 c 0,-0.45983 -0.369334,-0.82917 -0.829167,-0.82917 z m 0,0"
         id="path1432" />
      <path
         id="path1063"
         d="m -93.855463,264.46463 c -0.45739,0 -0.826724,0.36933 -0.826724,0.82672 v 0.82917 c 0,0.45983 0.369334,0.82917 0.826724,0.82917 0.459833,0 0.829167,-0.36934 0.829167,-0.82917 v -0.82917 c 0,-0.45739 -0.369334,-0.82672 -0.829167,-0.82672 z m 4.143395,0 c -0.459833,0 -0.829166,0.36933 -0.829166,0.82672 v 0.82917 c 0,0.45983 0.369333,0.82917 0.829166,0.82917 0.45739,0 0.826724,-0.36934 0.826724,-0.82917 v -0.82917 c 0,-0.45739 -0.369334,-0.82672 -0.826724,-0.82672 z m 4.140947,0 c -0.457385,0 -0.826719,0.36933 -0.826719,0.82672 v 0.82917 c 0,0.45983 0.369334,0.82917 0.826719,0.82917 0.459838,0 0.829172,-0.36934 0.829172,-0.82917 v -0.82917 c 0,-0.45739 -0.369334,-0.82672 -0.829172,-0.82672 z m 4.143395,0 c -0.459833,0 -0.829166,0.36933 -0.829166,0.82672 v 0.82917 c 0,0.45983 0.369333,0.82917 0.829166,0.82917 0.45739,0 0.826724,-0.36934 0.826724,-0.82917 v -0.82917 c 0,-0.45739 -0.369334,-0.82672 -0.826724,-0.82672 z m 4.140951,0 c -0.457387,0 -0.826723,0.36933 -0.826723,0.82672 v 0.82917 c 0,0.45983 0.369336,0.82917 0.826723,0.82917 0.459834,0 0.829168,-0.36934 0.829168,-0.82917 v -0.82917 c 0,-0.45739 -0.369334,-0.82672 -0.829168,-0.82672 z m 4.143395,0 c -0.459834,0 -0.829168,0.36933 -0.829168,0.82672 v 0.82917 c 0,0.45983 0.369334,0.82917 0.829168,0.82917 0.457388,0 0.826723,-0.36934 0.826723,-0.82917 v -0.82917 c 0,-0.45739 -0.369335,-0.82672 -0.826723,-0.82672 z m 4.14095,0 c -0.457387,0 -0.826723,0.36933 -0.826723,0.82672 v 0.82917 c 0,0.45983 0.369336,0.82917 0.826723,0.82917 0.459833,0 0.829167,-0.36934 0.829167,-0.82917 v -0.82917 c 0,-0.45739 -0.369334,-0.82672 -0.829167,-0.82672 z m -27.33809,2.48506 c -0.45739,0 -0.829171,0.36934 -0.829171,0.82917 0,0.45738 0.371781,0.82672 0.829171,0.82672 h 0.829167 c 0.459832,0 0.829166,-0.36934 0.829166,-0.82672 0,-0.45983 -0.369334,-0.82917 -0.829166,-0.82917 z m 28.996427,0 c -0.459834,0 -0.82917,0.36934 -0.82917,0.82917 0,0.45738 0.369336,0.82672 0.82917,0.82672 h 0.826721 c 0.459833,0 0.829169,-0.36934 0.829169,-0.82672 0,-0.45983 -0.369336,-0.82917 -0.829169,-0.82917 z m -28.996427,4.14095 c -0.45739,0 -0.829171,0.36933 -0.829171,0.82917 0,0.45983 0.371781,0.82917 0.829171,0.82917 h 0.829167 c 0.459832,0 0.829166,-0.36934 0.829166,-0.82917 0,-0.45984 -0.369334,-0.82917 -0.829166,-0.82917 z m 28.996427,0 c -0.459834,0 -0.82917,0.36933 -0.82917,0.82917 0,0.45983 0.369336,0.82917 0.82917,0.82917 h 0.826721 c 0.459833,0 0.829169,-0.36934 0.829169,-0.82917 0,-0.45984 -0.369336,-0.82917 -0.829169,-0.82917 z m -28.996427,4.14339 c -0.45739,0 -0.829171,0.36934 -0.829171,0.82917 0,0.45739 0.371781,0.82673 0.829171,0.82673 h 0.829167 c 0.459832,0 0.829166,-0.36934 0.829166,-0.82673 0,-0.45983 -0.369334,-0.82917 -0.829166,-0.82917 z m 28.996427,0 c -0.459834,0 -0.82917,0.36934 -0.82917,0.82917 0,0.45739 0.369336,0.82673 0.82917,0.82673 h 0.826721 c 0.459833,0 0.829169,-0.36934 0.829169,-0.82673 0,-0.45983 -0.369336,-0.82917 -0.829169,-0.82917 z m -28.996427,4.14095 c -0.45739,0 -0.829171,0.36934 -0.829171,0.82917 0,0.45984 0.371781,0.82917 0.829171,0.82917 h 0.829167 c 0.459832,0 0.829166,-0.36933 0.829166,-0.82917 0,-0.45983 -0.369334,-0.82917 -0.829166,-0.82917 z m 28.996427,0 c -0.459834,0 -0.82917,0.36934 -0.82917,0.82917 0,0.45984 0.369336,0.82917 0.82917,0.82917 h 0.826721 c 0.459833,0 0.829169,-0.36933 0.829169,-0.82917 0,-0.45983 -0.369336,-0.82917 -0.829169,-0.82917 z m -28.996427,4.1434 c -0.45739,0 -0.829171,0.36933 -0.829171,0.82917 0,0.45738 0.371781,0.82672 0.829171,0.82672 h 0.829167 c 0.459832,0 0.829166,-0.36934 0.829166,-0.82672 0,-0.45984 -0.369334,-0.82917 -0.829166,-0.82917 z m 28.996427,0 c -0.459834,0 -0.82917,0.36933 -0.82917,0.82917 0,0.45738 0.369336,0.82672 0.82917,0.82672 h 0.826721 c 0.459833,0 0.829169,-0.36934 0.829169,-0.82672 0,-0.45984 -0.369336,-0.82917 -0.829169,-0.82917 z m -28.996427,4.14095 c -0.45739,0 -0.829171,0.36933 -0.829171,0.82917 0,0.45983 0.371781,0.82916 0.829171,0.82916 h 0.829167 c 0.459832,0 0.829166,-0.36933 0.829166,-0.82916 0,-0.45984 -0.369334,-0.82917 -0.829166,-0.82917 z m 28.996427,0 c -0.459834,0 -0.82917,0.36933 -0.82917,0.82917 0,0.45983 0.369336,0.82916 0.82917,0.82916 h 0.826721 c 0.459833,0 0.829169,-0.36933 0.829169,-0.82916 0,-0.45984 -0.369336,-0.82917 -0.829169,-0.82917 z m -28.996427,4.14339 c -0.45739,0 -0.829171,0.36934 -0.829171,0.82917 0,0.45739 0.371781,0.82672 0.829171,0.82672 h 0.829167 c 0.459832,0 0.829166,-0.36933 0.829166,-0.82672 0,-0.45983 -0.369334,-0.82917 -0.829166,-0.82917 z m 28.996427,0 c -0.459834,0 -0.82917,0.36934 -0.82917,0.82917 0,0.45739 0.369336,0.82672 0.82917,0.82672 h 0.826721 c 0.459833,0 0.829169,-0.36933 0.829169,-0.82672 0,-0.45983 -0.369336,-0.82917 -0.829169,-0.82917 z m -26.51137,1.65589 c -0.45739,0 -0.826724,0.36934 -0.826724,0.82917 v 0.82917 c 0,0.45739 0.369334,0.82672 0.826724,0.82672 0.459833,0 0.829167,-0.36933 0.829167,-0.82672 v -0.82917 c 0,-0.45983 -0.369334,-0.82917 -0.829167,-0.82917 z m 4.143395,0 c -0.459833,0 -0.829166,0.36934 -0.829166,0.82917 v 0.82917 c 0,0.45739 0.369333,0.82672 0.829166,0.82672 0.45739,0 0.826724,-0.36933 0.826724,-0.82672 v -0.82917 c 0,-0.45983 -0.369334,-0.82917 -0.826724,-0.82917 z m 4.140947,0 c -0.457385,0 -0.826719,0.36934 -0.826719,0.82917 v 0.82917 c 0,0.45739 0.369334,0.82672 0.826719,0.82672 0.459838,0 0.829172,-0.36933 0.829172,-0.82672 v -0.82917 c 0,-0.45983 -0.369334,-0.82917 -0.829172,-0.82917 z m 4.143395,0 c -0.459833,0 -0.829166,0.36934 -0.829166,0.82917 v 0.82917 c 0,0.45739 0.369333,0.82672 0.829166,0.82672 0.45739,0 0.826724,-0.36933 0.826724,-0.82672 v -0.82917 c 0,-0.45983 -0.369334,-0.82917 -0.826724,-0.82917 z m 4.140951,0 c -0.457387,0 -0.826723,0.36934 -0.826723,0.82917 v 0.82917 c 0,0.45739 0.369336,0.82672 0.826723,0.82672 0.459834,0 0.829168,-0.36933 0.829168,-0.82672 v -0.82917 c 0,-0.45983 -0.369334,-0.82917 -0.829168,-0.82917 z m 4.143395,0 c -0.459834,0 -0.829168,0.36934 -0.829168,0.82917 v 0.82917 c 0,0.45739 0.369334,0.82672 0.829168,0.82672 0.457388,0 0.826723,-0.36933 0.826723,-0.82672 v -0.82917 c 0,-0.45983 -0.369335,-0.82917 -0.826723,-0.82917 z m 4.14095,0 c -0.457387,0 -0.826723,0.36934 -0.826723,0.82917 v 0.82917 c 0,0.45739 0.369336,0.82672 0.826723,0.82672 0.459833,0 0.829167,-0.36933 0.829167,-0.82672 v -0.82917 c 0,-0.45983 -0.369334,-0.82917 -0.829167,-0.82917 z m 0,0"
         style="fill:#5e5e5e;fill-opacity:1;fill-rule:nonzero;stroke:#2b383f;stroke-width:0.1;stroke-linecap:round;stroke-linejoin:round;stroke-miterlimit:4;stroke-dasharray:none;stroke-opacity:1"
         inkscape:connector-curvature="0" />
      <path
         inkscape:connector-curvature="0"
         style="opacity:0.25;fill:#000000;fill-opacity:1;fill-rule:nonzero;stroke:none;stroke-width:0.62615597"
         d="m -94.268827,266.64969 h 25.682175 c 0.684858,0 1.242527,0.55767 1.242527,1.24253 v 25.68217 c 0,0.68731 -0.557669,1.24253 -1.242527,1.24253 h -25.682175 c -0.687305,0 -1.242531,-0.55522 -1.242531,-1.24253 v -25.68217 c 0,-0.68486 0.555226,-1.24253 1.242531,-1.24253 z m 0,0"
         id="path1430" />
      <path
         id="path1065"
         d="m -94.268827,266.12052 h 25.682175 c 0.684858,0 1.242527,0.55767 1.242527,1.24253 v 25.68217 c 0,0.68731 -0.557669,1.24253 -1.242527,1.24253 h -25.682175 c -0.687305,0 -1.242531,-0.55522 -1.242531,-1.24253 v -25.68217 c 0,-0.68486 0.555226,-1.24253 1.242531,-1.24253 z m 0,0"
         style="fill:url(#linearGradient1402);fill-opacity:1;fill-rule:nonzero;stroke:none;stroke-width:0.62615597"
         inkscape:connector-curvature="0" />
      <path
         inkscape:connector-curvature="0"
         style="opacity:0.25;fill:#000000;fill-opacity:1;fill-rule:nonzero;stroke:none;stroke-width:0.62615597"
         d="m -82.256908,269.96391 c -0.459832,0 -0.829166,0.36933 -0.829166,0.82917 v 11.94099 c -1.465107,0.63594 -2.485057,2.09371 -2.485057,3.79851 0,2.29428 1.849116,4.14095 4.14339,4.14095 2.294274,0 4.140945,-1.84667 4.140945,-4.14095 0,-1.7048 -1.01995,-3.16257 -2.485056,-3.79851 v -11.94099 c 0,-0.45984 -0.369333,-0.82917 -0.829165,-0.82917 z m 0,0"
         id="path1426" />
      <path
         id="path1073"
         d="m -82.256908,269.43474 c -0.459832,0 -0.829166,0.36933 -0.829166,0.82917 v 11.94099 c -1.465107,0.63594 -2.485057,2.09371 -2.485057,3.79851 0,2.29428 1.849116,4.14095 4.14339,4.14095 2.294274,0 4.140945,-1.84667 4.140945,-4.14095 0,-1.7048 -1.01995,-3.16257 -2.485056,-3.79851 v -11.94099 c 0,-0.45984 -0.369333,-0.82917 -0.829165,-0.82917 z m 0,0"
         style="fill:url(#linearGradient1272);fill-opacity:1;fill-rule:nonzero;stroke:none;stroke-width:0.62615597"
         inkscape:connector-curvature="0" />
      <path
         id="path1075"
         d="m -82.256908,269.43474 c -0.459832,0 -0.829166,0.36933 -0.829166,0.82917 v 3.31178 h 3.314222 v -3.31178 c 0,-0.45984 -0.369333,-0.82917 -0.829165,-0.82917 z m 0,0"
         style="fill:#d9cccc;fill-opacity:1;fill-rule:nonzero;stroke:none;stroke-width:0.62615597"
         inkscape:connector-curvature="0" />
    </g>
  </g>
</svg>
