<?xml version="1.0" encoding="UTF-8" standalone="no"?>
<!-- Created with Inkscape (http://www.inkscape.org/) -->

<svg
   xmlns:osb="http://www.openswatchbook.org/uri/2009/osb"
   xmlns:dc="http://purl.org/dc/elements/1.1/"
   xmlns:cc="http://creativecommons.org/ns#"
   xmlns:rdf="http://www.w3.org/1999/02/22-rdf-syntax-ns#"
   xmlns:svg="http://www.w3.org/2000/svg"
   xmlns="http://www.w3.org/2000/svg"
   xmlns:xlink="http://www.w3.org/1999/xlink"
   xmlns:sodipodi="http://sodipodi.sourceforge.net/DTD/sodipodi-0.dtd"
   xmlns:inkscape="http://www.inkscape.org/namespaces/inkscape"
   width="128"
   height="128"
   viewBox="0 0 33.866666 33.866668"
   version="1.1"
   id="svg8"
   inkscape:version="0.92.2 5c3e80d, 2017-08-06"
   sodipodi:docname="inst.svg">
  <defs
     id="defs2">
    <linearGradient
       inkscape:collect="always"
       id="linearGradient12677">
      <stop
         style="stop-color:#fcfcfc;stop-opacity:1"
         offset="0"
         id="stop12673" />
      <stop
         style="stop-color:#e9e9e9;stop-opacity:1"
         offset="1"
         id="stop12675" />
    </linearGradient>
    <linearGradient
       id="linearGradient6987"
       osb:paint="solid">
      <stop
         style="stop-color:#77d2fb;stop-opacity:1;"
         offset="0"
         id="stop6985" />
    </linearGradient>
    <linearGradient
       inkscape:collect="always"
       id="linearGradient6341">
      <stop
         style="stop-color:#505658;stop-opacity:1"
         offset="0"
         id="stop6343" />
      <stop
         style="stop-color:#9da7aa;stop-opacity:1"
         offset="1"
         id="stop6345" />
    </linearGradient>
    <linearGradient
       inkscape:collect="always"
       id="linearGradient6333">
      <stop
         style="stop-color:#797979;stop-opacity:1"
         offset="0"
         id="stop6335" />
      <stop
         style="stop-color:#cbe0e7;stop-opacity:1"
         offset="1"
         id="stop6337" />
    </linearGradient>
    <linearGradient
       inkscape:collect="always"
       xlink:href="#linearGradient6333"
       id="linearGradient6339"
       x1="139.23012"
       y1="244.68021"
       x2="142.00493"
       y2="196.22424"
       gradientUnits="userSpaceOnUse"
       gradientTransform="matrix(0.23067882,0,0,0.23147124,69.027635,114.25153)" />
    <linearGradient
       inkscape:collect="always"
       xlink:href="#linearGradient6341"
       id="linearGradient6347"
       x1="137.03909"
       y1="196.25342"
       x2="136.88582"
       y2="191.38911"
       gradientUnits="userSpaceOnUse"
       gradientTransform="matrix(0.23067882,0,0,0.23147124,69.027635,114.25153)" />
    <linearGradient
       inkscape:collect="always"
       xlink:href="#linearGradient6341"
       id="linearGradient6355"
       x1="136.17715"
       y1="223.40398"
       x2="136.17715"
       y2="219.38156"
       gradientUnits="userSpaceOnUse"
       gradientTransform="matrix(0.23067882,0,0,0.23147124,69.027635,114.25153)" />
    <linearGradient
       inkscape:collect="always"
       xlink:href="#linearGradient12677"
       id="linearGradient12679"
       x1="101.08939"
       y1="171.36852"
       x2="100.88163"
       y2="191.31996"
       gradientUnits="userSpaceOnUse"
       gradientTransform="matrix(1,0,0,0.99773723,0,0.4338703)" />
  </defs>
  <sodipodi:namedview
     id="base"
     pagecolor="#ffffff"
     bordercolor="#666666"
     borderopacity="1.0"
     inkscape:pageopacity="0.0"
     inkscape:pageshadow="2"
     inkscape:zoom="3.959798"
     inkscape:cx="79.709488"
     inkscape:cy="44.614435"
     inkscape:document-units="mm"
     inkscape:current-layer="layer1"
     showgrid="false"
     inkscape:window-width="1600"
     inkscape:window-height="792"
     inkscape:window-x="0"
     inkscape:window-y="0"
     inkscape:window-maximized="1"
     units="px" />
  <metadata
     id="metadata5">
    <rdf:RDF>
      <cc:Work
         rdf:about="">
        <dc:format>image/svg+xml</dc:format>
        <dc:type
           rdf:resource="http://purl.org/dc/dcmitype/StillImage" />
        <dc:title></dc:title>
      </cc:Work>
    </rdf:RDF>
  </metadata>
  <g
     inkscape:label="Layer 1"
     inkscape:groupmode="layer"
     id="layer1"
     transform="translate(0,-263.13332)">
    <g
       style="stroke-width:4.08449793"
       inkscape:transform-center-y="-9.4924686"
       inkscape:transform-center-x="5.4653607"
       inkscape:label="Capa 1"
       id="layer1-4-3"
       transform="matrix(0.53602412,0,0,0.5372689,-98.3479,-115.5249)">
      <g
         style="stroke-width:4.08449793"
         id="layer1-3-65-9"
         inkscape:label="Capa 1"
         transform="translate(0.41988239,0.03484499)" />
    </g>
    <g
       style="stroke-width:4.08449793"
       inkscape:transform-center-y="-9.4924686"
       inkscape:transform-center-x="5.4653607"
       inkscape:label="Capa 1"
       id="layer1-4"
       transform="matrix(0.53602412,0,0,0.5372689,-98.3479,-115.4999)">
      <g
         style="stroke-width:4.08449793"
         id="layer1-3-65"
         inkscape:label="Capa 1"
         transform="translate(0.41988239,0.03484499)" />
    </g>
    <g
       id="g12842"
       transform="matrix(0.98719017,0,0,0.98725132,-82.691931,106.91435)"
       style="stroke-width:1.0129447">
      <ellipse
         style="opacity:0.25;fill:#000000;fill-opacity:1;fill-rule:nonzero;stroke:none;stroke-width:0.20258895;stroke-miterlimit:4;stroke-dasharray:none;stroke-opacity:1"
         id="ellipse12795"
         cx="100.91801"
         cy="179.45016"
         rx="12.851191"
         ry="12.822111" />
      <ellipse
         ry="12.822111"
         rx="12.851191"
         cy="178.92101"
         cx="100.91801"
         id="path12547"
         style="opacity:1;fill:url(#linearGradient12679);fill-opacity:1;fill-rule:nonzero;stroke:#666666;stroke-width:0.20258895;stroke-miterlimit:4;stroke-dasharray:none;stroke-opacity:1" />
      <path
         inkscape:connector-curvature="0"
         id="path6331"
         d="m 95.460188,165.89004 0.411351,-0.80656 h 10.212121 l 0.48552,0.75514 z"
         style="fill:url(#linearGradient6355);fill-opacity:1;fill-rule:evenodd;stroke:#595959;stroke-width:0.20258895;stroke-linecap:round;stroke-linejoin:round;stroke-miterlimit:4;stroke-dasharray:none;stroke-opacity:1" />
      <path
         id="ellipse12819"
         transform="scale(0.26458333)"
         d="m 363.53125,631.19922 a 48.571429,48.461522 0 0 0 -3.0293,1.35156 l 21.56836,15.31641 21.19531,-14.85547 a 48.571429,48.461522 0 0 0 -3.65624,-1.67578 z"
         style="opacity:0.2;fill:#000000;fill-opacity:1;fill-rule:nonzero;stroke:none;stroke-width:0.76569045;stroke-miterlimit:4;stroke-dasharray:none;stroke-opacity:1"
         inkscape:connector-curvature="0" />
      <path
         inkscape:connector-curvature="0"
         id="path6324"
         d="m 98.13581,159.3617 v 6.50986 l -2.687507,0.0125 2.820545,2.76528 2.820542,2.76528 2.74319,-2.791 2.74306,-2.79112 -2.68763,0.0125 v -6.48318 h -5.7522 z"
         style="opacity:1;fill:url(#linearGradient6339);fill-opacity:1;fill-rule:evenodd;stroke:#666666;stroke-width:0.20258895;stroke-linecap:round;stroke-linejoin:round;stroke-miterlimit:4;stroke-dasharray:none;stroke-opacity:1" />
      <path
         inkscape:connector-curvature="0"
         id="path6329"
         d="m 98.57333,158.62377 4.76649,-0.0182 0.54444,0.76019 -5.747732,-0.003 z"
         style="fill:url(#linearGradient6347);fill-opacity:1;fill-rule:evenodd;stroke:#666666;stroke-width:0.20258895;stroke-linecap:round;stroke-linejoin:round;stroke-miterlimit:4;stroke-dasharray:none;stroke-opacity:1" />
      <g
         transform="matrix(1,0,0,0.99773723,35.676277,0.72843028)"
         id="g12761"
         style="stroke-width:1.01409268">
        <g
           aria-label="linux"
           style="font-style:normal;font-weight:normal;font-size:5.13680124px;line-height:1.25;font-family:sans-serif;letter-spacing:0px;word-spacing:0px;opacity:1;fill:#4b4b4b;fill-opacity:1;stroke:none;stroke-width:0.27451119"
           id="text12551"
           transform="matrix(0.97741735,0,0,0.97741735,-32.979633,3.8526448)">
          <path
             d="m 95.924974,175.33745 h -0.554775 v -3.64199 h 0.554775 z"
             style="font-style:normal;font-variant:normal;font-weight:normal;font-stretch:normal;font-family:MyriadSetPro-Semibold;-inkscape-font-specification:MyriadSetPro-Semibold;fill:#4b4b4b;fill-opacity:1;stroke-width:0.27451119"
             id="path12689"
             inkscape:connector-curvature="0" />
          <path
             d="m 97.240717,172.09613 q 0,0.14896 -0.0976,0.24143 -0.0976,0.0925 -0.251703,0.0925 -0.138694,0 -0.236293,-0.0925 -0.09246,-0.0976 -0.09246,-0.24143 0,-0.14383 0.0976,-0.2363 0.0976,-0.0925 0.24143,-0.0925 0.14383,0 0.241429,0.0925 0.0976,0.0925 0.0976,0.2363 z m -0.06164,3.24132 h -0.554775 v -2.49649 h 0.554775 z"
             style="font-style:normal;font-variant:normal;font-weight:normal;font-stretch:normal;font-family:MyriadSetPro-Semibold;-inkscape-font-specification:MyriadSetPro-Semibold;fill:#4b4b4b;fill-opacity:1;stroke-width:0.27451119"
             id="path12691"
             inkscape:connector-curvature="0" />
          <path
             d="m 100.04613,175.33745 h -0.554771 v -1.43317 q 0,-0.66265 -0.503407,-0.66265 -0.246566,0 -0.40067,0.18493 -0.154104,0.17979 -0.154104,0.42635 v 1.48454 h -0.554775 v -1.78247 q 0,-0.32876 -0.02055,-0.71402 h 0.487996 l 0.02568,0.38526 h 0.01541 q 0.0976,-0.17979 0.287661,-0.29793 0.22602,-0.1387 0.503407,-0.1387 0.349302,0 0.580458,0.22602 0.287655,0.27739 0.287655,0.82703 z"
             style="font-style:normal;font-variant:normal;font-weight:normal;font-stretch:normal;font-family:MyriadSetPro-Semibold;-inkscape-font-specification:MyriadSetPro-Semibold;fill:#4b4b4b;fill-opacity:1;stroke-width:0.27451119"
             id="path12693"
             inkscape:connector-curvature="0" />
          <path
             d="m 102.89521,175.33745 h -0.48799 l -0.0308,-0.38013 h -0.0103 q -0.26198,0.43663 -0.79107,0.43663 -0.36985,0 -0.59073,-0.23115 -0.26197,-0.28253 -0.26197,-0.85271 v -1.46913 h 0.55477 v 1.37667 q 0,0.71915 0.49313,0.71915 0.36985,0 0.51368,-0.35958 0.036,-0.0925 0.036,-0.21061 v -1.52563 h 0.55477 v 1.77734 q 0,0.35444 0.0206,0.71915 z"
             style="font-style:normal;font-variant:normal;font-weight:normal;font-stretch:normal;font-family:MyriadSetPro-Semibold;-inkscape-font-specification:MyriadSetPro-Semibold;fill:#4b4b4b;fill-opacity:1;stroke-width:0.27451119"
             id="path12695"
             inkscape:connector-curvature="0" />
          <path
             d="m 105.61122,175.33745 h -0.62669 l -0.32362,-0.52396 q -0.10788,-0.17465 -0.2363,-0.41608 h -0.0103 q -0.077,0.14897 -0.23629,0.41608 l -0.30821,0.52396 h -0.60614 l 0.85271,-1.27393 -0.82189,-1.22256 h 0.61641 l 0.31335,0.49827 q 0.0925,0.14383 0.23115,0.39554 h 0.0154 q 0.113,-0.22089 0.22601,-0.40581 l 0.2928,-0.488 h 0.60614 l -0.82702,1.20201 z"
             style="font-style:normal;font-variant:normal;font-weight:normal;font-stretch:normal;font-family:MyriadSetPro-Semibold;-inkscape-font-specification:MyriadSetPro-Semibold;fill:#4b4b4b;fill-opacity:1;stroke-width:0.27451119"
             id="path12697"
             inkscape:connector-curvature="0" />
        </g>
        <g
           aria-label="OS"
           style="font-style:normal;font-weight:normal;font-size:11.83917999px;line-height:1.25;font-family:sans-serif;letter-spacing:0px;word-spacing:0px;fill:#4b4b4b;fill-opacity:1;stroke:#4b4b4b;stroke-width:0.26831195;stroke-opacity:1"
           id="text12741">
          <path
             inkscape:connector-curvature="0"
             d="m 62.519458,185.39033 c 1.835073,0 3.563593,-1.38518 3.563593,-4.20291 0,-2.46255 -1.468058,-4.03716 -3.480719,-4.03716 -2.000821,0 -3.587271,1.58645 -3.587271,4.20291 0,2.48623 1.527254,4.03716 3.492558,4.03716 z m 0.01184,-0.47356 c -1.882429,0 -2.924277,-1.78772 -2.924277,-3.58728 0,-1.85875 0.935295,-3.70566 2.959795,-3.70566 2.000821,0 2.924277,1.91795 2.924277,3.59911 0,1.97714 -1.053687,3.69383 -2.947956,3.69383 z"
             style="font-style:normal;font-variant:normal;font-weight:normal;font-stretch:normal;font-family:'Myriad Pro';-inkscape-font-specification:'Myriad Pro';fill:#4b4b4b;fill-opacity:1;stroke:#4b4b4b;stroke-width:0.26831195;stroke-opacity:1"
             id="path12747" />
          <path
             inkscape:connector-curvature="0"
             d="m 67.028706,184.84573 c 0.414371,0.30782 1.219435,0.53276 1.906108,0.53276 1.704842,0 2.533584,-1.03001 2.533584,-2.19025 0,-1.18391 -0.698511,-1.78771 -2.01266,-2.32047 -1.148401,-0.44989 -1.657485,-0.89978 -1.657485,-1.77588 0,-0.62748 0.438049,-1.45622 1.72852,-1.45622 0.686672,0 1.195757,0.22494 1.408862,0.37885 l 0.213105,-0.4854 c -0.272301,-0.17759 -0.840581,-0.36702 -1.58645,-0.36702 -1.361505,0 -2.320479,0.85242 -2.320479,2.0245 0,1.07737 0.769547,1.74036 2.048178,2.20209 1.16024,0.43805 1.621968,0.97081 1.621968,1.85875 0,0.98265 -0.734029,1.65749 -1.929786,1.65749 -0.662995,0 -1.290471,-0.21311 -1.74036,-0.52093 z"
             style="font-style:normal;font-variant:normal;font-weight:normal;font-stretch:normal;font-family:'Myriad Pro';-inkscape-font-specification:'Myriad Pro';fill:#4b4b4b;fill-opacity:1;stroke:#4b4b4b;stroke-width:0.26831195;stroke-opacity:1"
             id="path12749" />
        </g>
      </g>
    </g>
  </g>
</svg>
