<?xml version="1.0" encoding="UTF-8" standalone="no"?>
<!-- Created with Inkscape (http://www.inkscape.org/) -->

<svg
   xmlns:osb="http://www.openswatchbook.org/uri/2009/osb"
   xmlns:dc="http://purl.org/dc/elements/1.1/"
   xmlns:cc="http://creativecommons.org/ns#"
   xmlns:rdf="http://www.w3.org/1999/02/22-rdf-syntax-ns#"
   xmlns:svg="http://www.w3.org/2000/svg"
   xmlns="http://www.w3.org/2000/svg"
   xmlns:xlink="http://www.w3.org/1999/xlink"
   xmlns:sodipodi="http://sodipodi.sourceforge.net/DTD/sodipodi-0.dtd"
   xmlns:inkscape="http://www.inkscape.org/namespaces/inkscape"
   width="128"
   height="128"
   viewBox="0 0 33.866666 33.866668"
   version="1.1"
   id="svg8"
   sodipodi:docname="user-info.svg"
   inkscape:version="0.92.2 5c3e80d, 2017-08-06">
  <defs
     id="defs2">
    <linearGradient
       inkscape:collect="always"
       id="linearGradient965">
      <stop
         style="stop-color:#c9eaff;stop-opacity:1"
         offset="0"
         id="stop961" />
      <stop
         style="stop-color:#fbfdff;stop-opacity:1"
         offset="1"
         id="stop963" />
    </linearGradient>
    <linearGradient
       inkscape:collect="always"
       id="linearGradient957">
      <stop
         style="stop-color:#0384cb;stop-opacity:1"
         offset="0"
         id="stop953" />
      <stop
         style="stop-color:#26b4f5;stop-opacity:1"
         offset="1"
         id="stop955" />
    </linearGradient>
    <linearGradient
       id="linearGradient6987"
       osb:paint="solid">
      <stop
         style="stop-color:#77d2fb;stop-opacity:1;"
         offset="0"
         id="stop6985" />
    </linearGradient>
    <linearGradient
       inkscape:collect="always"
       xlink:href="#linearGradient957"
       id="linearGradient959"
       x1="98.058289"
       y1="290.15744"
       x2="98.95594"
       y2="268.22507"
       gradientUnits="userSpaceOnUse"
       gradientTransform="matrix(1.27,0,0,1.27,-23.504407,-78.599704)" />
    <linearGradient
       inkscape:collect="always"
       xlink:href="#linearGradient965"
       id="linearGradient967"
       x1="98.230347"
       y1="285.73996"
       x2="99.09388"
       y2="272.48755"
       gradientUnits="userSpaceOnUse"
       gradientTransform="matrix(1.27,0,0,1.27,-23.504407,-78.599704)" />
  </defs>
  <sodipodi:namedview
     id="base"
     pagecolor="#ffffff"
     bordercolor="#666666"
     borderopacity="1.0"
     inkscape:pageopacity="0.0"
     inkscape:pageshadow="2"
     inkscape:zoom="0.60351563"
     inkscape:cx="74.494214"
     inkscape:cy="8.4736962"
     inkscape:document-units="mm"
     inkscape:current-layer="layer1"
     showgrid="false"
     inkscape:window-width="1600"
     inkscape:window-height="803"
     inkscape:window-x="0"
     inkscape:window-y="0"
     inkscape:window-maximized="1"
     units="px" />
  <metadata
     id="metadata5">
    <rdf:RDF>
      <cc:Work
         rdf:about="">
        <dc:format>image/svg+xml</dc:format>
        <dc:type
           rdf:resource="http://purl.org/dc/dcmitype/StillImage" />
        <dc:title />
      </cc:Work>
    </rdf:RDF>
  </metadata>
  <g
     inkscape:label="Layer 1"
     inkscape:groupmode="layer"
     id="layer1"
     transform="translate(0,-263.13332)">
    <g
       id="g979"
       transform="matrix(0.98056853,0,0,0.98056853,-83.994977,9.9694408)">
      <rect
         style="opacity:0.25;fill:#000000;fill-opacity:1;stroke:none;stroke-width:0.25645104;stroke-miterlimit:4;stroke-dasharray:none;stroke-dashoffset:0;stroke-opacity:1"
         id="rect973"
         width="31.75"
         height="31.75"
         x="87.05336"
         y="259.88919"
         ry="2.6005647" />
      <rect
         ry="2.6005647"
         y="259.36002"
         x="87.05336"
         height="31.75"
         width="31.75"
         id="rect943"
         style="opacity:1;fill:url(#linearGradient959);fill-opacity:1;stroke:#015284;stroke-width:0.2;stroke-miterlimit:4;stroke-dasharray:none;stroke-dashoffset:0;stroke-opacity:1" />
      <path
         style="opacity:0.25;fill:#000000;fill-opacity:1;stroke-width:0.85440785"
         d="m 103.07234,266.27935 c -0.30064,-0.004 -0.55308,0.0414 -0.88313,0.15706 -0.15954,0.0559 -0.44013,0.15184 -0.6236,0.21313 -0.62566,0.20903 -0.90542,0.36962 -1.31407,0.75474 -0.19682,0.18547 -0.275402,0.23843 -0.455335,0.30669 -0.2815,0.10681 -0.471926,0.29105 -0.620879,0.60072 -0.239699,0.49838 -0.325025,0.888 -0.298456,1.36312 0.05142,0.91969 0.143869,1.8354 0.224522,2.22449 0.07493,0.36146 0.07716,0.34794 -0.05422,0.33032 -0.09771,-0.0135 -0.120053,-0.004 -0.188574,0.0775 -0.06986,0.083 -0.07767,0.11531 -0.07767,0.3203 0,0.28902 0.05098,0.52713 0.214409,1.00041 0.074,0.21431 0.144225,0.48355 0.162656,0.62368 0.04991,0.3795 0.133662,0.51555 0.434939,0.70654 0.124422,0.0789 0.168735,0.22334 0.276785,0.90335 0.155253,0.97705 0.241043,1.21972 0.567343,1.60404 l 0.17973,0.21177 -0.0186,0.26684 c -0.0276,0.39572 -0.24752,1.66953 -0.30882,1.78904 -0.15535,0.30283 -0.485376,0.4322 -1.559161,0.61101 -1.236663,0.20594 -1.57786,0.31366 -2.733955,0.86318 -0.74941,0.35621 -1.053942,0.54777 -1.370757,0.86239 -0.572862,0.56888 -0.893575,1.20378 -1.033977,2.04678 -0.07061,0.42403 -0.118847,0.91421 -0.118885,1.20854 v 0.21033 h 10.749955 3.46353 0.127 4.57101 v -0.21033 c -4e-5,-0.29433 -0.0483,-0.78451 -0.11888,-1.20854 -0.14039,-0.843 -0.46111,-1.4779 -1.03397,-2.04678 -0.31681,-0.31462 -0.62134,-0.50618 -1.37076,-0.86239 -1.15609,-0.54952 -1.49729,-0.65724 -2.73395,-0.86318 -0.48216,-0.0803 -0.81347,-0.15069 -1.04723,-0.23122 -0.29262,-0.13076 -0.45686,-0.29489 -0.54032,-0.51797 -0.0136,-0.0362 -0.0278,-0.085 -0.0426,-0.14295 -0.0244,-0.1176 -0.0513,-0.25822 -0.0785,-0.41173 -10e-4,9.1e-4 -0.004,0.003 -0.005,0.004 -0.0724,-0.41516 -0.13427,-0.93245 -0.13427,-1.20736 0,-0.17179 0.005,-0.18459 0.11773,-0.29428 0.23124,-0.22515 0.40979,-0.56265 0.49229,-0.9308 0.016,-0.0711 0.0551,-0.30822 0.0871,-0.52682 0.0606,-0.41367 0.17972,-0.95417 0.23193,-1.05172 0.0166,-0.031 0.0949,-0.0893 0.17379,-0.12914 0.16829,-0.0853 0.30633,-0.2948 0.33422,-0.50723 0.0348,-0.26465 0.0794,-0.45562 0.16292,-0.69628 0.13853,-0.39935 0.19809,-0.68863 0.19826,-0.96394 3.3e-4,-0.40746 -0.11773,-0.6003 -0.32055,-0.52375 -0.047,0.0178 -0.0855,0.0213 -0.0855,0.008 0,-0.0135 0.0325,-0.15897 0.0723,-0.32378 0.26099,-1.08334 0.33137,-2.12873 0.20174,-2.99654 -0.0555,-0.37136 -0.11493,-0.54497 -0.27439,-0.80095 -0.0638,-0.10236 -0.16251,-0.27578 -0.21943,-0.3854 -0.20505,-0.3949 -0.49754,-0.60132 -1.15262,-0.81362 -0.21684,-0.0702 -0.57618,-0.20058 -0.79849,-0.28952 -0.49691,-0.19882 -0.91438,-0.30405 -1.29538,-0.32659 -0.0453,-0.003 -0.0892,-0.004 -0.13215,-0.005 z"
         id="path969"
         inkscape:connector-curvature="0" />
      <path
         inkscape:connector-curvature="0"
         id="path880"
         d="m 103.07234,265.6073 c -0.30064,-0.004 -0.55308,0.0414 -0.88313,0.15706 -0.15954,0.0559 -0.44013,0.15185 -0.6236,0.21314 -0.62566,0.20903 -0.90542,0.36962 -1.31407,0.75473 -0.19682,0.18547 -0.275402,0.23843 -0.455335,0.30669 -0.2815,0.10681 -0.471926,0.29105 -0.620879,0.60073 -0.239699,0.49837 -0.325025,0.88799 -0.298456,1.36311 0.05142,0.9197 0.143869,1.83541 0.224522,2.2245 0.07493,0.36145 0.07716,0.34794 -0.05422,0.33031 -0.09771,-0.0135 -0.120053,-0.004 -0.188574,0.0775 -0.06986,0.0831 -0.07767,0.11532 -0.07767,0.32031 0,0.28901 0.05098,0.52712 0.214409,1.0004 0.074,0.21431 0.144225,0.48355 0.162656,0.62369 0.04991,0.3795 0.133662,0.51554 0.434939,0.70654 0.124422,0.0789 0.168735,0.22334 0.276785,0.90335 0.155253,0.97705 0.241043,1.21972 0.567343,1.60403 l 0.17973,0.21177 -0.0186,0.26684 c -0.0276,0.39572 -0.24752,1.66953 -0.30882,1.78904 -0.15535,0.30283 -0.485376,0.43221 -1.559161,0.61101 -1.236663,0.20594 -1.57786,0.31366 -2.733955,0.86318 -0.74941,0.35621 -1.053942,0.54778 -1.370757,0.86239 -0.572862,0.56889 -0.893575,1.20379 -1.033977,2.04679 -0.07061,0.42402 -0.118847,0.91421 -0.118885,1.20853 v 0.21034 h 10.749955 3.46353 0.127 4.57101 v -0.21034 c -4e-5,-0.29432 -0.0483,-0.78451 -0.11888,-1.20853 -0.14039,-0.843 -0.46111,-1.4779 -1.03397,-2.04679 -0.31681,-0.31461 -0.62134,-0.50618 -1.37076,-0.86239 -1.15609,-0.54952 -1.49729,-0.65724 -2.73395,-0.86318 -0.48216,-0.0803 -0.81347,-0.15069 -1.04723,-0.23122 -0.29262,-0.13076 -0.45686,-0.29489 -0.54032,-0.51797 -0.0136,-0.0362 -0.0278,-0.085 -0.0426,-0.14295 -0.0244,-0.1176 -0.0513,-0.25821 -0.0785,-0.41173 -10e-4,9.1e-4 -0.004,0.003 -0.005,0.004 -0.0724,-0.41515 -0.13427,-0.93245 -0.13427,-1.20735 0,-0.17179 0.005,-0.1846 0.11773,-0.29429 0.23124,-0.22514 0.40979,-0.56264 0.49229,-0.93079 0.016,-0.0711 0.0551,-0.30823 0.0871,-0.52682 0.0606,-0.41368 0.17972,-0.95418 0.23193,-1.05173 0.0166,-0.031 0.0949,-0.0893 0.17379,-0.12913 0.16829,-0.0854 0.30633,-0.29481 0.33422,-0.50724 0.0348,-0.26464 0.0794,-0.45561 0.16292,-0.69628 0.13853,-0.39935 0.19809,-0.68863 0.19826,-0.96394 3.3e-4,-0.40745 -0.11773,-0.60029 -0.32055,-0.52375 -0.047,0.0178 -0.0855,0.0213 -0.0855,0.008 0,-0.0135 0.0325,-0.15896 0.0723,-0.32377 0.26099,-1.08335 0.33137,-2.12874 0.20174,-2.99654 -0.0555,-0.37136 -0.11493,-0.54497 -0.27439,-0.80095 -0.0638,-0.10236 -0.16251,-0.27578 -0.21943,-0.38541 -0.20505,-0.39489 -0.49754,-0.60132 -1.15262,-0.81361 -0.21684,-0.0702 -0.57618,-0.20059 -0.79849,-0.28952 -0.49691,-0.19882 -0.91438,-0.30405 -1.29538,-0.3266 -0.0453,-0.003 -0.0892,-0.004 -0.13215,-0.005 z"
         style="fill:url(#linearGradient967);fill-opacity:1;stroke-width:0.85440785" />
    </g>
  </g>
</svg>
