<?xml version="1.0" encoding="UTF-8" standalone="no"?>
<!-- Created with Inkscape (http://www.inkscape.org/) -->

<svg
   xmlns:dc="http://purl.org/dc/elements/1.1/"
   xmlns:cc="http://creativecommons.org/ns#"
   xmlns:rdf="http://www.w3.org/1999/02/22-rdf-syntax-ns#"
   xmlns:svg="http://www.w3.org/2000/svg"
   xmlns="http://www.w3.org/2000/svg"
   xmlns:sodipodi="http://sodipodi.sourceforge.net/DTD/sodipodi-0.dtd"
   xmlns:inkscape="http://www.inkscape.org/namespaces/inkscape"
   width="128"
   height="128"
   viewBox="0 0 33.866666 33.866668"
   version="1.1"
   id="svg8"
   inkscape:version="0.92.2 5c3e80d, 2017-08-06"
   sodipodi:docname="vom.svg">
  <defs
     id="defs2" />
  <sodipodi:namedview
     id="base"
     pagecolor="#ffffff"
     bordercolor="#666666"
     borderopacity="1.0"
     inkscape:pageopacity="0.0"
     inkscape:pageshadow="2"
     inkscape:zoom="1.4"
     inkscape:cx="10.357337"
     inkscape:cy="97.533366"
     inkscape:document-units="mm"
     inkscape:current-layer="layer1"
     showgrid="false"
     units="px"
     inkscape:window-width="1600"
     inkscape:window-height="803"
     inkscape:window-x="0"
     inkscape:window-y="0"
     inkscape:window-maximized="1" />
  <metadata
     id="metadata5">
    <rdf:RDF>
      <cc:Work
         rdf:about="">
        <dc:format>image/svg+xml</dc:format>
        <dc:type
           rdf:resource="http://purl.org/dc/dcmitype/StillImage" />
        <dc:title></dc:title>
      </cc:Work>
    </rdf:RDF>
  </metadata>
  <g
     inkscape:label="Layer 1"
     inkscape:groupmode="layer"
     id="layer1"
     transform="translate(0,-263.13332)">
    <g
       id="g943"
       transform="matrix(1.0477458,0,0,1.0477458,-2.539575,-10.736141)">
      <rect
         width="20.953388"
         height="20.953388"
         x="-220.11386"
         y="-193.82996"
         transform="rotate(-135)"
         id="rect921"
         style="opacity:0.25;fill:#000000;stroke-width:0.70554882" />
      <rect
         style="fill:#008200;fill-opacity:1;stroke:#004a00;stroke-width:0.2;stroke-miterlimit:4;stroke-dasharray:none;stroke-opacity:1"
         id="rect826_12_"
         transform="rotate(-135)"
         y="-193.45578"
         x="-219.73969"
         height="20.953388"
         width="20.953388" />
      <path
         d="m 22.784095,283.08308 c -0.356305,0.004 -0.70485,0.0339 -1.036461,0.0748 -0.259644,-0.019 -0.360539,0.40146 -0.265994,0.69356 l 0.275166,0.55104 c 0.03528,0.4438 0.258234,0.91088 -1.945922,4.91349 -0.161572,0.3556 -0.105833,0.635 0.07973,0.92146 0.205317,0.15875 0.445911,0.29845 0.699206,0.29563 l 1.945922,-0.019 c 0.225778,-0.005 0.625828,-0.52 0.451555,-0.88477 l -0.41275,-0.51082 c -0.187677,-0.32526 0.212373,-1.28623 0.687917,-2.2606 0.67945,-0.89253 1.419578,-1.07809 1.923344,-1.08797 -0.04727,0.40499 -0.491066,1.78153 -1.463322,3.54612 -0.163689,0.35913 -0.09172,0.68369 0.1143,0.94686 0.179917,0.15663 0.392289,0.27305 0.644172,0.27023 l 1.965678,-0.019 c 0.225778,-0.005 0.625828,-0.52 0.451556,-0.88477 l -0.41275,-0.51082 c -0.1905,-0.3302 0.222955,-1.31093 0.708378,-2.30011 0.625122,-0.89606 1.334911,-1.00613 1.816805,-1.00683 -0.103717,0.99836 -0.452261,1.82527 -1.376539,3.50379 -0.163689,0.35912 -0.112889,0.66322 0.1143,0.92569 0.179917,0.15663 0.392289,0.29421 0.644172,0.29139 l 1.945923,-0.019 c 0.225777,-0.005 0.646289,-0.51999 0.472016,-0.88477 l -0.41275,-0.51082 c -0.388761,-0.6738 1.005417,-2.48849 1.461206,-3.71757 0.210961,-0.66957 0.121355,-1.04352 -0.179211,-1.44851 -0.36195,-0.4064 -0.816328,-0.67733 -1.107017,-0.76905 l -1.480961,-0.0219 c -0.2667,0.0607 -0.322439,0.21378 -0.395817,0.49388 0,0 -0.884061,-0.0402 -0.997655,-0.0536 -0.02258,-0.14816 -0.115006,-0.39088 -0.252589,-0.40428 l -1.551517,-0.0233 c -0.500239,-0.0106 -0.45085,0.17003 -0.515055,0.47766 0,0 -1.325739,0.0557 -1.370895,7e-4 -0.05433,-0.01 -0.09948,-0.4318 -0.143933,-0.48754 -0.360539,-0.0628 -0.7239,-0.0854 -1.080206,-0.0811 z"
         inkscape:connector-curvature="0"
         id="path923"
         style="opacity:0.25;fill:#000000;stroke:none;stroke-width:0.35277778" />
      <path
         style="fill:#dcdddd;stroke:#595757;stroke-width:0.35277778"
         id="path934_12_"
         inkscape:connector-curvature="0"
         d="m 22.784095,282.55391 c -0.356305,0.004 -0.70485,0.0339 -1.036461,0.0748 -0.259644,-0.019 -0.360539,0.40146 -0.265994,0.69356 l 0.275166,0.55104 c 0.03528,0.4438 0.258234,0.91088 -1.945922,4.91349 -0.161572,0.3556 -0.105833,0.635 0.07973,0.92146 0.205317,0.15875 0.445911,0.29845 0.699206,0.29563 l 1.945922,-0.019 c 0.225778,-0.005 0.625828,-0.52 0.451555,-0.88477 l -0.41275,-0.51082 c -0.187677,-0.32526 0.212373,-1.28623 0.687917,-2.2606 0.67945,-0.89253 1.419578,-1.07809 1.923344,-1.08797 -0.04727,0.40499 -0.491066,1.78153 -1.463322,3.54612 -0.163689,0.35913 -0.09172,0.68369 0.1143,0.94686 0.179917,0.15663 0.392289,0.27305 0.644172,0.27023 l 1.965678,-0.019 c 0.225778,-0.005 0.625828,-0.52 0.451556,-0.88477 l -0.41275,-0.51082 c -0.1905,-0.3302 0.222955,-1.31093 0.708378,-2.30011 0.625122,-0.89606 1.334911,-1.00613 1.816805,-1.00683 -0.103717,0.99836 -0.452261,1.82527 -1.376539,3.50379 -0.163689,0.35912 -0.112889,0.66322 0.1143,0.92569 0.179917,0.15663 0.392289,0.29421 0.644172,0.29139 l 1.945923,-0.019 c 0.225777,-0.005 0.646289,-0.51999 0.472016,-0.88477 l -0.41275,-0.51082 c -0.388761,-0.6738 1.005417,-2.48849 1.461206,-3.71757 0.210961,-0.66957 0.121355,-1.04352 -0.179211,-1.44851 -0.36195,-0.4064 -0.816328,-0.67733 -1.107017,-0.76905 l -1.480961,-0.0219 c -0.2667,0.0607 -0.322439,0.21378 -0.395817,0.49388 0,0 -0.884061,-0.0402 -0.997655,-0.0536 -0.02258,-0.14816 -0.115006,-0.39088 -0.252589,-0.40428 l -1.551517,-0.0233 c -0.500239,-0.0106 -0.45085,0.17003 -0.515055,0.47766 0,0 -1.325739,0.0557 -1.370895,7e-4 -0.05433,-0.01 -0.09948,-0.4318 -0.143933,-0.48754 -0.360539,-0.0628 -0.7239,-0.0854 -1.080206,-0.0811 z" />
      <g
         id="g927"
         transform="matrix(0.70555556,0,0,0.70555556,1.6527063,260.93499)"
         style="opacity:0.25;fill:#000000;fill-opacity:1;stroke:none">
        <path
           d="m 29,7 v 3 c 0,0.552 0.448,1 1,1 h 0.89 L 18,23.89 V 11 h 2 c 0.552,0 1,-0.448 1,-1 V 7 C 21,6.448 20.552,6 20,6 H 7 C 6.448,6 6,6.448 6,7 v 3 c 0,0.552 0.448,1 1,1 h 2 v 29 c 0,0.552 0.448,1 1,1 h 3.138 c 0.262,0 0.514,-0.103 0.701,-0.287 L 18,36.618 43.118,11 H 44 c 0.552,0 1,-0.448 1,-1 V 7 C 45,6.448 44.552,6 44,6 H 30 c -0.552,0 -1,0.448 -1,1 z"
           inkscape:connector-curvature="0"
           id="path925"
           style="fill:#000000;fill-opacity:1;stroke:none" />
      </g>
      <g
         style="fill:#595757;fill-opacity:1"
         transform="matrix(0.70555556,0,0,0.70555556,1.6527063,260.40582)"
         id="g15">
        <path
           style="fill:#595757;fill-opacity:1"
           id="path17"
           inkscape:connector-curvature="0"
           d="m 29,7 v 3 c 0,0.552 0.448,1 1,1 h 0.89 L 18,23.89 V 11 h 2 c 0.552,0 1,-0.448 1,-1 V 7 C 21,6.448 20.552,6 20,6 H 7 C 6.448,6 6,6.448 6,7 v 3 c 0,0.552 0.448,1 1,1 h 2 v 29 c 0,0.552 0.448,1 1,1 h 3.138 c 0.262,0 0.514,-0.103 0.701,-0.287 L 18,36.618 43.118,11 H 44 c 0.552,0 1,-0.448 1,-1 V 7 C 45,6.448 44.552,6 44,6 H 30 c -0.552,0 -1,0.448 -1,1 z" />
      </g>
      <path
         d="m 19.803123,283.33779 -1.04775,0.0289 c -0.688622,-0.0141 -0.824794,0.22648 -0.791633,0.84878 0.01411,0.46708 0.353483,0.82056 -1.952978,5.00803 -0.416278,0.84314 0.303389,1.19733 0.766939,1.21638 l 1.951567,-0.0155 c 0.225777,-0.005 0.631472,-0.53128 0.457905,-0.89676 l -0.41275,-0.51365 c -0.388761,-0.6738 1.538817,-3.94476 1.810456,-4.67853 0.112889,-0.32033 0.07408,-0.50448 -0.01623,-0.68369 -0.153106,-0.22648 -0.323145,-0.33373 -0.765528,-0.31397 z"
         inkscape:connector-curvature="0"
         id="path929"
         style="opacity:0.25;fill:#000000;stroke:none;stroke-width:0.35277778" />
      <polygon
         transform="matrix(0.70555556,0,0,0.70555556,1.6527063,260.40582)"
         style="fill:#dcdddd"
         id="polygon19"
         points="30,7 44,7 44,10 42.697,10 17.286,35.917 13.138,40 10,40 10,10 7,10 7,7 20,7 20,10 17,10 17,26.304 33.304,10 30,10 " />
      <path
         style="fill:#dcdddd;stroke:#595757;stroke-width:0.35277778"
         id="path935_12_"
         inkscape:connector-curvature="0"
         d="m 19.803123,282.80862 -1.04775,0.0289 c -0.688622,-0.0141 -0.824794,0.22648 -0.791633,0.84878 0.01411,0.46708 0.353483,0.82056 -1.952978,5.00803 -0.416278,0.84314 0.303389,1.19733 0.766939,1.21638 l 1.951567,-0.0155 c 0.225777,-0.005 0.631472,-0.53128 0.457905,-0.89676 l -0.41275,-0.51365 c -0.388761,-0.6738 1.538817,-3.94476 1.810456,-4.67853 0.112889,-0.32033 0.07408,-0.50448 -0.01623,-0.68369 -0.153106,-0.22648 -0.323145,-0.33373 -0.765528,-0.31397 z" />
      <path
         style="fill:#dcdddd;stroke:#595757;stroke-width:0.35277778"
         id="path936_12_"
         inkscape:connector-curvature="0"
         d="m 19.801712,279.40149 c -0.601133,0 -1.286933,0.71896 -1.286933,1.36384 0,0.64558 0.04163,0.77541 0.280105,1.21779 0.217311,0.44168 0.5715,0.52776 1.172634,0.52776 0.601133,0 1.3716,-0.80363 1.3716,-1.44851 -0.08467,-0.62371 -0.198262,-0.86572 -0.4699,-1.17263 -0.288573,-0.32456 -0.466373,-0.48825 -1.067506,-0.48825 z" />
    </g>
  </g>
</svg>
