<?xml version="1.0" encoding="UTF-8" standalone="no"?>
<!-- Created with Inkscape (http://www.inkscape.org/) -->

<svg
   xmlns:osb="http://www.openswatchbook.org/uri/2009/osb"
   xmlns:dc="http://purl.org/dc/elements/1.1/"
   xmlns:cc="http://creativecommons.org/ns#"
   xmlns:rdf="http://www.w3.org/1999/02/22-rdf-syntax-ns#"
   xmlns:svg="http://www.w3.org/2000/svg"
   xmlns="http://www.w3.org/2000/svg"
   xmlns:sodipodi="http://sodipodi.sourceforge.net/DTD/sodipodi-0.dtd"
   xmlns:inkscape="http://www.inkscape.org/namespaces/inkscape"
   width="128"
   height="128"
   viewBox="0 0 33.866666 33.866668"
   version="1.1"
   id="svg8"
   inkscape:version="0.92.2 5c3e80d, 2017-08-06"
   sodipodi:docname="webstorm.svg">
  <defs
     id="defs2">
    <linearGradient
       id="linearGradient6987"
       osb:paint="solid">
      <stop
         style="stop-color:#77d2fb;stop-opacity:1;"
         offset="0"
         id="stop6985" />
    </linearGradient>
    <linearGradient
       id="SVGID_1_"
       gradientUnits="userSpaceOnUse"
       x1="17.3381"
       y1="3.9782"
       x2="23.768999"
       y2="41.199799">
      <stop
         offset="0"
         style="stop-color:#00CDD7"
         id="stop921" />
      <stop
         offset="1"
         style="stop-color:#2387D7"
         id="stop923" />
    </linearGradient>
    <linearGradient
       id="SVGID_2_"
       gradientUnits="userSpaceOnUse"
       x1="21.496099"
       y1="10.8091"
       x2="37.108398"
       y2="24.6315">
      <stop
         offset="0"
         style="stop-color:#FAEE00"
         id="stop928" />
      <stop
         offset="0.6749"
         style="stop-color:#00CDD7"
         id="stop930" />
      <stop
         offset="1"
         style="stop-color:#2387D7"
         id="stop932" />
    </linearGradient>
  </defs>
  <sodipodi:namedview
     id="base"
     pagecolor="#ffffff"
     bordercolor="#666666"
     borderopacity="1.0"
     inkscape:pageopacity="0.0"
     inkscape:pageshadow="2"
     inkscape:zoom="11.313708"
     inkscape:cx="58.511517"
     inkscape:cy="98.266138"
     inkscape:document-units="mm"
     inkscape:current-layer="layer1"
     showgrid="false"
     units="px"
     inkscape:window-width="1600"
     inkscape:window-height="803"
     inkscape:window-x="0"
     inkscape:window-y="0"
     inkscape:window-maximized="1" />
  <metadata
     id="metadata5">
    <rdf:RDF>
      <cc:Work
         rdf:about="">
        <dc:format>image/svg+xml</dc:format>
        <dc:type
           rdf:resource="http://purl.org/dc/dcmitype/StillImage" />
        <dc:title />
      </cc:Work>
    </rdf:RDF>
  </metadata>
  <g
     inkscape:label="Layer 1"
     inkscape:groupmode="layer"
     id="layer1"
     transform="translate(0,-263.13332)">
    <path
       style="opacity:0.25;fill:#000000;stroke:none;stroke-width:0.11284197;stroke-miterlimit:4;stroke-dasharray:none;stroke-opacity:1"
       d="m 20.367256,264.83942 -0.773228,0.91434 -0.793054,-0.61578 -4.737906,3.02176 -4.4556741,-3.03868 -8.276903,3.03868 3.5949758,25.84652 16.6955123,1.93539 0.512567,-4.27664 10.393073,-6.16248 -3.283003,-7.0022 2.910385,-2.62056 -4.178105,-10.74179 z"
       id="polygon1038"
       inkscape:connector-curvature="0" />
    <polygon
       style="fill:url(#SVGID_1_);stroke:#333333;stroke-width:0.13330608;stroke-miterlimit:4;stroke-dasharray:none;stroke-opacity:1"
       points="34.245,9.159 26.302,2.994 19.986,7.022 14.046,2.971 3.013,7.022 7.805,41.477 30.061,44.057 "
       id="polygon926"
       transform="matrix(0.75015335,0,0,0.75015335,-0.92954747,262.29518)" />
    <polygon
       style="fill:url(#SVGID_2_);stroke:#333333;stroke-width:0.13330608;stroke-miterlimit:4;stroke-dasharray:none;stroke-opacity:1"
       points="44.102,17.313 26.103,33.522 10.391,23.876 28.39,2.596 38.533,2.994 "
       id="polygon935"
       transform="matrix(0.75015335,0,0,0.75015335,-0.92954747,262.29518)" />
    <polygon
       style="fill:#04ced8;stroke:#333333;stroke-width:0.13330608;stroke-miterlimit:4;stroke-dasharray:none;stroke-opacity:1"
       points="11.286,30.937 36.25,12.333 44.599,30.141 24.81,41.875 "
       id="polygon937"
       transform="matrix(0.75015335,0,0,0.75015335,-0.92954747,262.29518)" />
    <path
       style="opacity:0.25;fill:#000000;stroke-width:0.7501533"
       id="path1030"
       d="M 26.826127,291.39814 H 7.3221398 c -0.4140848,0 -0.7501541,-0.33607 -0.7501541,-0.75016 v -19.50399 c 0,-0.41408 0.3360693,-0.75015 0.7501541,-0.75015 H 26.826127 c 0.414085,0 0.750153,0.33607 0.750153,0.75015 v 19.50399 c 0,0.41409 -0.336068,0.75016 -0.750153,0.75016 z"
       inkscape:connector-curvature="0" />
    <path
       inkscape:connector-curvature="0"
       d="M 26.826127,290.80102 H 7.3221398 c -0.4140848,0 -0.7501541,-0.33608 -0.7501541,-0.75017 v -19.50398 c 0,-0.41408 0.3360693,-0.75015 0.7501541,-0.75015 H 26.826127 c 0.414085,0 0.750153,0.33607 0.750153,0.75015 v 19.50398 c 0,0.41409 -0.336068,0.75017 -0.750153,0.75017 z"
       id="path939"
       style="stroke-width:0.7501533" />
    <rect
       x="9.5725975"
       y="285.54996"
       style="fill:#ffffff;stroke-width:0.7501533"
       width="6.7513804"
       height="1.5003066"
       id="rect941" />
    <g
       id="g947"
       transform="matrix(0.75015335,0,0,0.75015335,-0.92954747,262.29518)">
      <path
         inkscape:connector-curvature="0"
         style="fill:#ffffff"
         d="m 14.972,24.961 -2.828,-9.989 h 2.229 c 0.464,1.966 0.803,3.435 1.017,4.408 0.26,1.159 0.45,2.123 0.571,2.893 l 1.421,-7.301 h 2.216 c 0.538,2.54 0.905,4.278 1.101,5.215 0.13,0.64 0.26,1.335 0.39,2.086 0.26,-1.242 0.46,-2.179 0.599,-2.81 0.01,-0.046 0.362,-1.543 1.06,-4.491 h 2.117 l -2.814,9.989 h -2.006 c -0.465,-2.188 -0.808,-3.856 -1.031,-5.007 -0.176,-0.908 -0.348,-1.835 -0.515,-2.781 -0.084,0.473 -0.19,1.048 -0.321,1.725 -0.176,0.909 -0.32,1.632 -0.432,2.17 -0.278,1.298 -0.553,2.596 -0.821,3.894 h -1.953 z"
         id="path943" />
      <path
         inkscape:connector-curvature="0"
         style="fill:#ffffff"
         d="m 25.615,21.882 h 2.007 c 0,0.409 0.12,0.748 0.362,1.018 0.362,0.399 0.947,0.599 1.755,0.599 0.595,0 1.068,-0.083 1.421,-0.25 0.446,-0.214 0.669,-0.562 0.669,-1.044 0,-0.361 -0.167,-0.635 -0.502,-0.82 -0.223,-0.12 -0.659,-0.26 -1.31,-0.417 l -1.072,-0.251 c -1.068,-0.25 -1.797,-0.51 -2.188,-0.778 -0.659,-0.454 -0.989,-1.173 -0.989,-2.156 0,-0.77 0.232,-1.419 0.697,-1.947 0.659,-0.751 1.708,-1.127 3.148,-1.127 1.365,0 2.396,0.384 3.093,1.151 0.538,0.592 0.808,1.281 0.808,2.067 h -2.006 c -0.047,-0.396 -0.163,-0.7 -0.349,-0.911 -0.334,-0.387 -0.9,-0.58 -1.699,-0.58 -0.474,0 -0.864,0.084 -1.171,0.251 -0.381,0.213 -0.57,0.528 -0.57,0.945 0,0.344 0.12,0.604 0.361,0.779 0.14,0.102 0.372,0.19 0.697,0.264 l 2.438,0.599 c 0.827,0.204 1.436,0.468 1.825,0.793 0.529,0.436 0.794,1.066 0.794,1.892 0,1.011 -0.334,1.794 -1.003,2.351 -0.733,0.612 -1.714,0.918 -2.939,0.918 -1.625,0 -2.796,-0.399 -3.511,-1.198 -0.51,-0.569 -0.766,-1.284 -0.766,-2.148 z"
         id="path945" />
    </g>
  </g>
</svg>
