<?xml version="1.0" encoding="UTF-8" standalone="no"?>
<svg
   xmlns:dc="http://purl.org/dc/elements/1.1/"
   xmlns:cc="http://creativecommons.org/ns#"
   xmlns:rdf="http://www.w3.org/1999/02/22-rdf-syntax-ns#"
   xmlns:svg="http://www.w3.org/2000/svg"
   xmlns="http://www.w3.org/2000/svg"
   xmlns:xlink="http://www.w3.org/1999/xlink"
   xmlns:sodipodi="http://sodipodi.sourceforge.net/DTD/sodipodi-0.dtd"
   xmlns:inkscape="http://www.inkscape.org/namespaces/inkscape"
   width="128"
   height="128"
   viewBox="0 0 128 128"
   version="1.1"
   id="svg19"
   sodipodi:docname="whatsapp.svg"
   inkscape:version="0.92.2 5c3e80d, 2017-08-06">
  <metadata
     id="metadata23">
    <rdf:RDF>
      <cc:Work
         rdf:about="">
        <dc:format>image/svg+xml</dc:format>
        <dc:type
           rdf:resource="http://purl.org/dc/dcmitype/StillImage" />
        <dc:title>whatsapp</dc:title>
      </cc:Work>
    </rdf:RDF>
  </metadata>
  <sodipodi:namedview
     pagecolor="#ffffff"
     bordercolor="#666666"
     borderopacity="1"
     objecttolerance="10"
     gridtolerance="10"
     guidetolerance="10"
     inkscape:pageopacity="0"
     inkscape:pageshadow="2"
     inkscape:window-width="1600"
     inkscape:window-height="803"
     id="namedview21"
     showgrid="false"
     inkscape:zoom="3.4766083"
     inkscape:cx="44.640221"
     inkscape:cy="43.976471"
     inkscape:window-x="0"
     inkscape:window-y="0"
     inkscape:window-maximized="1"
     inkscape:current-layer="svg19" />
  <!-- Generator: Sketch 46.2 (44496) - http://www.bohemiancoding.com/sketch -->
  <title
     id="title2">whatsapp</title>
  <desc
     id="desc4">Created with Sketch.</desc>
  <defs
     id="defs11">
    <linearGradient
       id="linearGradient1181"
       inkscape:collect="always">
      <stop
         id="stop1177"
         offset="0"
         style="stop-color:#fbfbfd;stop-opacity:1" />
      <stop
         id="stop1179"
         offset="1"
         style="stop-color:#eaedf2;stop-opacity:1" />
    </linearGradient>
    <linearGradient
       inkscape:collect="always"
       id="linearGradient1165">
      <stop
         style="stop-color:#fefefe;stop-opacity:1"
         offset="0"
         id="stop1161" />
      <stop
         style="stop-color:#eaedf2;stop-opacity:1"
         offset="1"
         id="stop1163" />
    </linearGradient>
    <linearGradient
       x1="22"
       y1="0"
       x2="22"
       y2="44"
       id="linearGradient-1"
       gradientUnits="userSpaceOnUse"
       gradientTransform="matrix(2.7144556,0,0,2.7144556,-15.459604,-11.712695)">
      <stop
         stop-color="#A3FF00"
         offset="0%"
         id="stop6"
         style="stop-color:#7ae044;stop-opacity:1" />
      <stop
         stop-color="#37BA01"
         offset="100%"
         id="stop8"
         style="stop-color:#019c3f;stop-opacity:1" />
    </linearGradient>
    <linearGradient
       inkscape:collect="always"
       xlink:href="#linearGradient1165"
       id="linearGradient1167"
       x1="72.889877"
       y1="14.927368"
       x2="69.414497"
       y2="127.10567"
       gradientUnits="userSpaceOnUse"
       gradientTransform="translate(-51.918417,8.0538264)" />
    <linearGradient
       inkscape:collect="always"
       xlink:href="#linearGradient1181"
       id="linearGradient1175"
       x1="51.157085"
       y1="47.717945"
       x2="80.217087"
       y2="101.79364"
       gradientUnits="userSpaceOnUse"
       gradientTransform="translate(-51.918417,8.0538264)" />
  </defs>
  <g
     id="g1228"
     transform="matrix(0.98588523,0,0,0.98588523,20.366288,15.82537)">
    <path
       style="opacity:0.25;fill:#000000;fill-rule:evenodd;stroke:none;stroke-width:0.56395465;stroke-miterlimit:4;stroke-dasharray:none;stroke-opacity:1"
       inkscape:connector-curvature="0"
       id="path1219"
       d="m 13.692278,101.31858 c 8.941635,5.3378 19.395711,8.40477 30.566123,8.40477 32.981365,0 59.718029,-26.736672 59.718029,-59.718024 0,-32.981354 -26.736664,-59.718021 -59.718029,-59.718021 -32.981349,0 -59.718013,26.736667 -59.718013,59.718021 0,10.886464 2.913025,21.092553 8.0021188,29.881326 L -10.008756,103.0901 Z" />
    <path
       d="m 13.692278,99.318584 c 8.941635,5.337796 19.395711,8.404766 30.566123,8.404766 32.981365,0 59.718029,-26.736672 59.718029,-59.718024 0,-32.981354 -26.736664,-59.718021 -59.718029,-59.718021 -32.981349,0 -59.718013,26.736667 -59.718013,59.718021 0,10.886464 2.913025,21.092553 8.0021188,29.881326 L -10.008756,101.0901 Z"
       id="Combined-Shape"
       inkscape:connector-curvature="0"
       style="fill:url(#linearGradient-1);fill-rule:evenodd;stroke:#025924;stroke-width:0.56395465;stroke-miterlimit:4;stroke-dasharray:none;stroke-opacity:1" />
    <g
       transform="matrix(0.74606498,0,0,0.74606498,30.767151,-13.951915)"
       id="g1203">
      <path
         sodipodi:nodetypes="ccscsccccccccccsccc"
         style="opacity:0.25;fill:#000000;fill-opacity:1;stroke:none;stroke-width:0.73489225;stroke-miterlimit:4;stroke-dasharray:none;stroke-opacity:1"
         d="M 36.389574,117.12683 C 29.598231,115.65541 21.584781,111.40341 13.466512,104.96331 9.475319,101.79734 0.915823,93.286843 -2.183043,89.403288 -9.146258,80.67712 -13.653865,71.878096 -14.881547,64.615304 c -0.49597,-2.932449 -0.298128,-4.926785 0.691019,-6.969711 1.189855,-2.458154 4.735092,-5.158733 8.292371,-6.316781 1.699741,-0.552638 1.736183,-0.554098 2.709038,-0.07934 0.820165,0.400528 1.476481,1.241969 3.898562,4.997191 1.601879,2.48351 3.740103,5.883842 4.751777,7.556242 2.332659,3.856197 2.366676,4.293028 0.589323,7.561606 -3.04781,5.605384 -3.153143,5.986584 -2.198234,7.958655 1.712848,3.537337 12.990875,15.084559 17.947292,18.375694 0.973222,0.646709 1.799169,0.977198 2.639607,1.057872 1.283417,0.12347 1.676197,-0.04413 6.770445,-2.865193 2.229507,-1.235126 3.632503,-1.267984 5.655422,-0.13222 3.564653,2.000595 13.211108,8.315021 13.834478,9.055861 0.99662,1.18443 0.79661,2.66502 -0.78088,5.78037 -3.043467,6.01048 -7.036461,7.9383 -13.529099,6.53156 z"
         id="path1185"
         inkscape:connector-curvature="0" />
      <path
         inkscape:connector-curvature="0"
         id="path947"
         d="M 36.389574,115.12683 C 29.598231,113.65541 21.584781,109.40341 13.466512,102.96331 9.475319,99.797339 0.915823,91.286843 -2.183043,87.403288 -9.146258,78.67712 -13.653865,69.878096 -14.881547,62.615304 c -0.49597,-2.932449 -0.298128,-4.926785 0.691019,-6.969711 1.189855,-2.458154 4.735092,-5.158733 8.292371,-6.316781 1.699741,-0.552638 1.736183,-0.554098 2.709038,-0.07934 0.820165,0.400528 1.476481,1.241969 3.898562,4.997191 1.601879,2.48351 3.740103,5.883842 4.751777,7.556242 2.332659,3.856197 2.366676,4.293028 0.589323,7.561606 -3.04781,5.605384 -3.153143,5.986584 -2.198234,7.958655 1.712848,3.537337 12.990875,15.084559 17.947292,18.375694 0.973222,0.646709 1.799169,0.977198 2.639607,1.057872 1.283417,0.12347 1.676197,-0.04413 6.770445,-2.865193 2.229507,-1.235126 3.632503,-1.267984 5.655422,-0.13222 3.564653,2.000595 13.211108,8.315021 13.834478,9.055861 0.99662,1.18443 0.79661,2.66502 -0.78088,5.78037 -3.043467,6.01048 -7.036461,7.9383 -13.529099,6.53156 z"
         style="opacity:1;fill:url(#linearGradient1175);fill-opacity:1;stroke:#025924;stroke-width:0.75590551;stroke-miterlimit:4;stroke-dasharray:none;stroke-opacity:1"
         sodipodi:nodetypes="ccscsccccccccccsccc" />
      <path
         inkscape:connector-curvature="0"
         id="path1183"
         d="M 18.084199,19.815612 A 64.417919,64.417919 0 0 0 -46.335521,84.233386 64.417919,64.417919 0 0 0 18.084199,148.65308 64.417919,64.417919 0 0 0 82.501963,84.233386 64.417919,64.417919 0 0 0 18.084199,19.815612 Z m 0,12.533011 A 51.88606,51.88606 0 0 1 69.968953,84.233386 51.88606,51.88606 0 0 1 18.084199,136.12009 51.88606,51.88606 0 0 1 -33.802511,84.233386 51.88606,51.88606 0 0 1 18.084199,32.348623 Z"
         style="opacity:0.25;fill:#000000;fill-opacity:1;stroke:none;stroke-width:0.44549862;stroke-miterlimit:4;stroke-dasharray:none;stroke-dashoffset:0;stroke-opacity:1" />
      <path
         style="opacity:1;fill:url(#linearGradient1167);fill-opacity:1;stroke:#025924;stroke-width:0.75590551;stroke-miterlimit:4;stroke-dasharray:none;stroke-dashoffset:0;stroke-opacity:1"
         d="M 18.084199,17.815612 A 64.417919,64.417919 0 0 0 -46.335521,82.233386 64.417919,64.417919 0 0 0 18.084199,146.65308 64.417919,64.417919 0 0 0 82.501963,82.233386 64.417919,64.417919 0 0 0 18.084199,17.815612 Z m 0,12.533011 A 51.88606,51.88606 0 0 1 69.968953,82.233386 51.88606,51.88606 0 0 1 18.084199,134.12009 51.88606,51.88606 0 0 1 -33.802511,82.233386 51.88606,51.88606 0 0 1 18.084199,30.348623 Z"
         id="path1156"
         inkscape:connector-curvature="0" />
    </g>
  </g>
</svg>
