<?xml version="1.0" encoding="UTF-8" standalone="no"?>
<!-- Created with Inkscape (http://www.inkscape.org/) -->

<svg
   xmlns:osb="http://www.openswatchbook.org/uri/2009/osb"
   xmlns:dc="http://purl.org/dc/elements/1.1/"
   xmlns:cc="http://creativecommons.org/ns#"
   xmlns:rdf="http://www.w3.org/1999/02/22-rdf-syntax-ns#"
   xmlns:svg="http://www.w3.org/2000/svg"
   xmlns="http://www.w3.org/2000/svg"
   xmlns:xlink="http://www.w3.org/1999/xlink"
   xmlns:sodipodi="http://sodipodi.sourceforge.net/DTD/sodipodi-0.dtd"
   xmlns:inkscape="http://www.inkscape.org/namespaces/inkscape"
   width="128"
   height="128"
   id="svg2"
   version="1.1"
   inkscape:version="0.92.2 5c3e80d, 2017-08-06"
   sodipodi:docname="gdm-xnest 2.svg"
   viewBox="0 0 256 256">
  <defs
     id="defs4">
    <linearGradient
       inkscape:collect="always"
       id="linearGradient1073">
      <stop
         style="stop-color:#6d6d6d;stop-opacity:1"
         offset="0"
         id="stop1069" />
      <stop
         style="stop-color:#b2b2b2;stop-opacity:1"
         offset="1"
         id="stop1071" />
    </linearGradient>
    <linearGradient
       inkscape:collect="always"
       id="linearGradient3541">
      <stop
         style="stop-color:#d0d0d0;stop-opacity:1"
         offset="0"
         id="stop3544" />
      <stop
         style="stop-color:#fcfcfc;stop-opacity:1"
         offset="1"
         id="stop3546" />
    </linearGradient>
    <linearGradient
       inkscape:collect="always"
       id="linearGradient3531">
      <stop
         style="stop-color:#e3e3e3;stop-opacity:1"
         offset="0"
         id="stop3533" />
      <stop
         style="stop-color:#efefef;stop-opacity:1"
         offset="1"
         id="stop3535" />
    </linearGradient>
    <linearGradient
       inkscape:collect="always"
       id="linearGradient3509">
      <stop
         style="stop-color:#b2b2b2;stop-opacity:1"
         offset="0"
         id="stop3511" />
      <stop
         style="stop-color:#6a6a6a;stop-opacity:1"
         offset="1"
         id="stop3520" />
    </linearGradient>
    <linearGradient
       inkscape:collect="always"
       id="linearGradient3439">
      <stop
         style="stop-color:#e6e6e6;stop-opacity:1"
         offset="0"
         id="stop3441" />
      <stop
         style="stop-color:#f9f9f9;stop-opacity:1"
         offset="1"
         id="stop3443" />
    </linearGradient>
    <linearGradient
       inkscape:collect="always"
       xlink:href="#linearGradient3439"
       id="linearGradient3445"
       x1="76"
       y1="1044.3622"
       x2="38"
       y2="957.86218"
       gradientUnits="userSpaceOnUse"
       gradientTransform="matrix(2.7977528,0,0,2.7977528,-424.29214,-1891.3927)" />
    <linearGradient
       inkscape:collect="always"
       xlink:href="#linearGradient3509"
       id="linearGradient3507"
       gradientUnits="userSpaceOnUse"
       x1="49.568539"
       y1="1030.0529"
       x2="51.951534"
       y2="968.57434"
       gradientTransform="matrix(2.7977528,0,0,2.7977528,-424.29214,-1891.3927)" />
    <linearGradient
       inkscape:collect="always"
       xlink:href="#linearGradient3541"
       id="linearGradient3571"
       gradientUnits="userSpaceOnUse"
       gradientTransform="matrix(1.1505816,-0.6636336,-0.66428861,-1.1494472,-1496.2774,181.38805)"
       x1="734.68396"
       y1="-1005.6931"
       x2="450.42703"
       y2="-1060.1404" />
    <linearGradient
       inkscape:collect="always"
       xlink:href="#linearGradient3531"
       id="linearGradient3573"
       gradientUnits="userSpaceOnUse"
       x1="564.3891"
       y1="929.20905"
       x2="462.09427"
       y2="913.75519"
       gradientTransform="matrix(1.1509674,-0.66454115,0.66451134,1.1510191,-1496.7265,180.26091)" />
    <linearGradient
       id="linearGradient6987"
       osb:paint="solid">
      <stop
         style="stop-color:#77d2fb;stop-opacity:1;"
         offset="0"
         id="stop6985" />
    </linearGradient>
    <linearGradient
       inkscape:collect="always"
       xlink:href="#linearGradient1073"
       id="linearGradient1075"
       x1="181.93654"
       y1="1001.5441"
       x2="203.13168"
       y2="1092.7609"
       gradientUnits="userSpaceOnUse" />
  </defs>
  <sodipodi:namedview
     id="base"
     pagecolor="#ffffff"
     bordercolor="#666666"
     borderopacity="1.0"
     inkscape:pageopacity="0.0"
     inkscape:pageshadow="2"
     inkscape:zoom="1"
     inkscape:cx="51.775553"
     inkscape:cy="62.600708"
     inkscape:document-units="px"
     inkscape:current-layer="layer1"
     showgrid="false"
     inkscape:window-width="1600"
     inkscape:window-height="803"
     inkscape:window-x="0"
     inkscape:window-y="0"
     inkscape:window-maximized="1"
     showguides="false"
     inkscape:guide-bbox="true">
    <sodipodi:guide
       orientation="0,1"
       position="118.44039,37.830213"
       id="guide5113"
       inkscape:locked="false" />
    <sodipodi:guide
       orientation="1,0"
       position="25.455844,-108.89445"
       id="guide3453"
       inkscape:locked="false" />
    <sodipodi:guide
       orientation="1,0"
       position="38.183767,31.819805"
       id="guide3455"
       inkscape:locked="false" />
    <sodipodi:guide
       orientation="0,1"
       position="117.37973,27.577165"
       id="guide3457"
       inkscape:locked="false" />
  </sodipodi:namedview>
  <metadata
     id="metadata7">
    <rdf:RDF>
      <cc:Work
         rdf:about="">
        <dc:format>image/svg+xml</dc:format>
        <dc:type
           rdf:resource="http://purl.org/dc/dcmitype/StillImage" />
        <dc:title />
      </cc:Work>
    </rdf:RDF>
  </metadata>
  <g
     inkscape:label="Layer 1"
     inkscape:groupmode="layer"
     id="layer1"
     transform="translate(0,-844.3622)">
    <g
       id="g1274"
       transform="matrix(1.0009712,0,0,1.0009712,418.28165,51.282015)">
      <rect
         style="opacity:0.25;fill:#000000;fill-opacity:1;stroke:none;stroke-width:1.51181102;stroke-miterlimit:4;stroke-dasharray:none"
         id="rect1260"
         width="235.01123"
         height="235.01123"
         x="-407.50562"
         y="805.05884"
         rx="27.977528"
         ry="27.977528" />
      <rect
         ry="27.977528"
         rx="27.977528"
         y="801.05884"
         x="-407.50562"
         height="235.01123"
         width="235.01123"
         id="rect3382"
         style="fill:url(#linearGradient3445);fill-opacity:1;stroke:#666666;stroke-width:1.51181102;stroke-miterlimit:4;stroke-dasharray:none" />
      <rect
         ry="23.980738"
         rx="23.980738"
         y="817.84534"
         x="-390.71909"
         height="201.43819"
         width="201.43819"
         id="rect3386"
         style="fill:url(#linearGradient3507);fill-opacity:1;stroke:#666666;stroke-width:1.51181102;stroke-miterlimit:4;stroke-dasharray:none;stroke-opacity:0.99507392" />
      <path
         style="opacity:0.25;fill:#000000;fill-opacity:1;stroke:none;stroke-width:2.75674677"
         d="m -195.94595,832.6886 -178.92438,101.17803 c -4.78913,2.7069 -6.42186,8.60868 -3.65685,13.29721 l 42.14082,71.51526 h 120.58894 c 13.23033,0 23.85659,-10.403 23.85659,-23.35535 V 845.64486 c 0,-4.81427 -1.47662,-9.24558 -4.00512,-12.95626 z"
         id="path1258"
         inkscape:connector-curvature="0" />
      <path
         inkscape:connector-curvature="0"
         id="rect3521"
         d="m -194.06727,828.51182 -178.92438,103.35401 c -4.78913,2.76512 -6.42186,8.79382 -3.65685,13.58319 l 42.14082,73.05328 h 120.58894 c 13.23033,0 23.85659,-10.6267 23.85659,-23.85762 V 841.74673 c 0,-4.91781 -1.47662,-9.44443 -4.00512,-13.23491 z"
         style="fill:url(#linearGradient3573);fill-opacity:1;stroke:none;stroke-width:2.78623295" />
      <path
         inkscape:connector-curvature="0"
         id="rect3539"
         d="m -190.05105,872.83858 -171.37908,98.86548 27.06902,46.78054 h 120.46148 c 13.22589,0 23.84858,-10.612 23.84858,-23.82498 z"
         style="fill:url(#linearGradient3571);fill-opacity:1;stroke:none;stroke-width:2.78386307" />
      <path
         inkscape:connector-curvature="0"
         id="rect3529"
         d="m -189.2809,871.35241 -172.84867,99.75724 0.69944,1.13672 172.14923,-99.40779 z"
         style="opacity:0.3;fill:#000000;fill-opacity:1;stroke:none;stroke-width:2.79775286" />
      <path
         inkscape:connector-curvature="0"
         id="rect3550"
         d="m -189.2809,869.77868 -173.46068,100.19452 0.61201,1.13645 172.84867,-99.75724 z"
         style="opacity:0.15;fill:#000000;fill-opacity:1;stroke:none;stroke-width:2.79775286" />
      <circle
         r="10.214607"
         cy="641.11951"
         cx="-775.64575"
         transform="rotate(-30)"
         id="path3523"
         style="fill:#ff6052;fill-opacity:1;stroke:#e14c45;stroke-width:1.25718248;stroke-opacity:1" />
      <circle
         r="10.214607"
         cy="641.11932"
         cx="-741.43774"
         style="fill:#ffbe04;fill-opacity:1;stroke:#f0b10e;stroke-width:1.25718248;stroke-opacity:1"
         id="path3525"
         transform="rotate(-30)" />
      <circle
         r="10.217813"
         cy="641.11609"
         cx="-707.46234"
         transform="rotate(-30)"
         id="path3527"
         style="fill:#14ce36;fill-opacity:1;stroke:#09b63a;stroke-width:1.25757706;stroke-opacity:1" />
      <path
         inkscape:connector-curvature="0"
         id="path3612"
         d="m -193.30267,828.51182 -179.66819,103.77901 c -4.61236,2.6629 -6.25286,8.32443 -3.93434,13.02717 -1.18355,-4.28252 0.58767,-8.94245 4.63378,-11.27858 l 179.66819,-103.779 c 0.63475,0.95151 1.1651,1.93409 1.66116,2.97261 -0.63996,-1.6641 -1.38339,-3.2563 -2.3606,-4.72121 z"
         style="opacity:0.5;fill:#ffffff;fill-opacity:1;stroke:none;stroke-width:2.79775286" />
    </g>
    <g
       style="stroke-width:4.08449793"
       inkscape:transform-center-y="-9.4924686"
       inkscape:transform-center-x="5.4653607"
       inkscape:label="Capa 1"
       id="layer1-4-3"
       transform="matrix(1.7717088,0,0,1.7758231,-838.10906,50.823601)">
      <g
         style="stroke-width:4.08449793"
         id="layer1-3-65-9"
         inkscape:label="Capa 1"
         transform="translate(0.41988239,0.03484499)" />
    </g>
    <g
       style="stroke-width:4.08449793"
       inkscape:transform-center-y="-9.4924686"
       inkscape:transform-center-x="5.4653607"
       inkscape:label="Capa 1"
       id="layer1-4"
       transform="matrix(1.7717088,0,0,1.7758231,-838.10906,50.906243)">
      <g
         style="stroke-width:4.08449793"
         id="layer1-3-65"
         inkscape:label="Capa 1"
         transform="translate(0.41988239,0.03484499)" />
    </g>
    <ellipse
       ry="51.471775"
       rx="51.468819"
       style="opacity:0.25;fill:#000000;fill-opacity:1;fill-rule:nonzero;stroke:none;stroke-width:0.63544416;stroke-linecap:round;stroke-linejoin:round;stroke-miterlimit:4;stroke-dasharray:none;stroke-dashoffset:0;stroke-opacity:1"
       id="ellipse1325"
       cx="200.48906"
       cy="1045.2982" />
    <ellipse
       cy="1043.6169"
       cx="200.48906"
       id="circle1042"
       style="opacity:1;fill:url(#linearGradient1075);fill-opacity:1;fill-rule:nonzero;stroke:#2d1f1f;stroke-width:0.63544416;stroke-linecap:round;stroke-linejoin:round;stroke-miterlimit:4;stroke-dasharray:none;stroke-dashoffset:0;stroke-opacity:1"
       rx="51.468819"
       ry="51.471775" />
    <path
       style="opacity:0.25;fill:#000000;fill-opacity:1;stroke-width:0.04107638"
       d="m 200.45724,1004.707 c -1.78826,0 -1.74482,-0.057 -2.33783,3.109 -0.21918,1.17 -0.44912,2.1792 -0.51078,2.2409 -0.21547,0.2162 -2.82901,0.5488 -3.2523,0.4139 -0.27443,-0.089 -0.81523,-0.946 -1.51083,-2.4045 -1.22196,-2.5589 -1.24984,-2.5746 -3.35799,-1.8705 -1.04477,0.3497 -1.09149,0.4005 -1.15317,1.2368 -0.0353,0.4803 0.0268,1.608 0.13496,2.5053 0.10973,0.8956 0.12302,1.7824 0.0268,1.9679 -0.21501,0.4153 -2.9242,1.5522 -3.30513,1.385 -0.15403,-0.074 -0.9521,-0.955 -1.77509,-1.9734 -1.34933,-1.6691 -1.5534,-1.8382 -2.06992,-1.71 -0.81212,0.1986 -2.42807,1.173 -2.57293,1.5522 -0.0664,0.1679 0.23266,1.2575 0.66651,2.4044 0.43386,1.1478 0.78929,2.2686 0.78929,2.4906 0,0.4541 -2.12008,2.1603 -2.68228,2.1603 -0.19543,0 -1.25117,-0.5891 -2.34604,-1.3064 -1.0949,-0.7178 -2.09912,-1.3065 -2.23168,-1.3065 -0.32721,0 -2.32556,1.9881 -2.32556,2.3138 0,0.1523 0.63629,1.2129 1.41369,2.3749 1.59482,2.3858 1.59445,2.2368 -0.003,4.1288 -0.83496,0.9891 -0.73947,0.995 -4.09796,-0.2387 l -1.70647,-0.6285 -0.5273,0.654 c -0.28999,0.3602 -0.69349,1.0855 -0.89679,1.6153 l -0.36952,0.9624 1.18193,0.9994 c 0.65006,0.5502 1.56028,1.345 2.02254,1.7676 l 0.84073,0.7695 -0.58225,1.4533 c -0.32015,0.7993 -0.69617,1.5447 -0.83569,1.6543 -0.15602,0.1193 -1.21233,0.1038 -2.73197,-0.03 -2.86479,-0.2658 -2.816,-0.2912 -3.29011,1.6858 -0.36599,1.5258 -0.30913,1.5968 2.2923,2.8363 1.28009,0.611 2.0716,1.1211 2.15785,1.3924 0.17819,0.5622 -0.23653,3.1195 -0.5357,3.3045 -0.12749,0.073 -1.23279,0.3169 -2.45631,0.5276 -1.22345,0.2132 -2.34709,0.4866 -2.49685,0.6067 -0.3674,0.2981 -0.3674,3.0874 0,3.386 0.15037,0.1193 1.27326,0.3962 2.49685,0.6066 1.22344,0.2126 2.32861,0.4507 2.45631,0.5312 0.29924,0.1857 0.71396,2.7427 0.5357,3.3043 -0.086,0.2714 -0.8778,0.7844 -2.15785,1.3924 -2.5917,1.2367 -2.66992,1.3302 -2.30595,2.7785 0.44989,1.7916 0.54326,1.8939 1.70546,1.886 0.56494,0 1.71324,-0.089 2.55198,-0.2049 1.12366,-0.153 1.59482,-0.1193 1.79068,0.056 0.51346,0.5057 1.33718,2.8513 1.13403,3.2306 -0.1053,0.1987 -0.98605,1.0217 -1.95556,1.8307 -1.57252,1.3109 -1.74778,1.5319 -1.62339,2.0377 0.19839,0.8066 1.17466,2.4236 1.55099,2.5682 0.17452,0.074 1.25696,-0.2344 2.40434,-0.6661 1.14753,-0.4343 2.26755,-0.7889 2.48957,-0.7889 0.45265,0 2.16107,2.1203 2.16107,2.6824 0,0.195 -0.5884,1.2516 -1.30737,2.3457 -0.71886,1.0944 -1.30722,2.0995 -1.30722,2.2319 0,0.3306 1.98976,2.3256 2.31962,2.3256 0.14676,0 1.1456,-0.589 2.22027,-1.3064 1.07472,-0.7177 2.12596,-1.3064 2.33602,-1.3064 0.55873,0 2.70916,1.7305 2.70916,2.1802 0,0.2119 -0.35441,1.3213 -0.7884,2.4705 -0.43386,1.1477 -0.73457,2.2299 -0.66757,2.4045 0.14527,0.3765 1.7619,1.3539 2.57386,1.5523 0.51643,0.1193 0.72019,-0.03 2.06947,-1.7101 0.82324,-1.0187 1.61151,-1.9026 1.75242,-1.9648 0.37008,-0.1676 3.1194,0.9728 3.32337,1.3747 0.0949,0.1857 0.0934,1.0246 -0.004,1.8635 -0.0964,0.8392 -0.18185,1.9465 -0.18757,2.462 -0.01,0.8704 0.0445,0.9608 0.75592,1.2575 0.42186,0.1676 1.19721,0.3779 1.72313,0.452 l 0.95638,0.1193 1.09668,-2.2954 c 0.70521,-1.4769 1.24835,-2.3443 1.52308,-2.4314 0.42334,-0.1194 3.03719,0.197 3.25275,0.4138 0.0608,0.057 0.29156,1.0691 0.51084,2.2405 0.21918,1.1699 0.49687,2.3488 0.61701,2.6192 0.1959,0.4386 0.37305,0.4909 1.72139,0.4909 0.9699,0 1.58646,-0.089 1.73872,-0.2846 0.13046,-0.1524 0.40017,-1.2767 0.60146,-2.4875 0.20123,-1.213 0.43295,-2.3118 0.51544,-2.4449 0.19068,-0.3084 2.74069,-0.7267 3.31698,-0.5446 0.27205,0.089 0.72893,0.7637 1.21573,1.8047 0.42885,0.9179 0.97256,1.9474 1.20818,2.2893 0.38583,0.5593 0.5148,0.6066 1.29032,0.4831 0.47405,-0.074 1.19527,-0.2767 1.60297,-0.4478 0.69871,-0.2906 0.74065,-0.3694 0.73412,-1.3554 -0.004,-0.5756 -0.0964,-1.7323 -0.20552,-2.5707 -0.14676,-1.121 -0.13046,-1.593 0.0607,-1.7787 0.40342,-0.3962 2.97304,-1.3731 3.2664,-1.2426 0.14229,0.057 0.92837,0.9416 1.74371,1.9494 0.81538,1.0085 1.64957,1.8346 1.8527,1.8328 0.43492,0 2.55439,-1.1819 2.78025,-1.5484 0.0859,-0.1187 -0.22509,-1.3762 -0.69158,-2.7503 l -0.8489,-2.4979 1.18563,-1.0662 c 0.65182,-0.587 1.29389,-1.0677 1.4266,-1.0677 0.1334,0 1.20091,0.6377 2.37381,1.4177 1.17304,0.7785 2.26377,1.4175 2.4235,1.4175 0.37531,0 2.28544,-1.9064 2.28544,-2.2808 0,-0.1524 -0.5884,-1.1819 -1.30723,-2.2765 -0.71885,-1.096 -1.30767,-2.1505 -1.30767,-2.3458 0,-0.5396 1.74296,-2.6829 2.18064,-2.6829 0.21121,0 1.3234,0.3546 2.47089,0.7889 1.14753,0.4344 2.23194,0.7341 2.4103,0.6646 0.38655,-0.1524 1.64697,-2.2813 1.65068,-2.7917 0.002,-0.197 -0.83139,-1.0603 -1.84989,-1.9169 -2.12376,-1.7881 -2.1887,-1.9954 -1.23991,-3.9342 0.49051,-1.0024 0.67541,-1.1938 1.13078,-1.1656 0.29939,0.013 1.50028,0.1038 2.66816,0.1914 l 2.12322,0.1676 0.33202,-0.7949 c 0.18192,-0.4371 0.39149,-1.2263 0.46381,-1.7545 l 0.13201,-0.9608 -2.29864,-1.1019 c -1.45268,-0.6956 -2.34797,-1.2545 -2.43215,-1.521 -0.18017,-0.5636 0.24499,-3.1133 0.54891,-3.3012 0.1334,-0.074 1.23338,-0.3144 2.44491,-0.5163 1.21158,-0.2 2.33057,-0.4718 2.48682,-0.6018 0.38683,-0.3212 0.38683,-3.0941 0,-3.4151 -0.15587,-0.1194 -1.27534,-0.4019 -2.48682,-0.6025 -1.21159,-0.2 -2.31178,-0.4315 -2.44491,-0.5163 -0.30617,-0.19 -0.72716,-2.7387 -0.54623,-3.3084 0.0875,-0.2743 0.95477,-0.8186 2.43125,-1.5241 l 2.2959,-1.0959 -0.13201,-0.9564 c -0.0727,-0.5248 -0.27536,-1.302 -0.45152,-1.7231 -0.30441,-0.7281 -0.37333,-0.7666 -1.36638,-0.7592 -0.57519,0 -1.732,0.089 -2.57064,0.2055 -1.78734,0.2334 -1.80478,0.2212 -2.57477,-1.6263 -0.36952,-0.8868 -0.48175,-1.4192 -0.35024,-1.6654 0.1053,-0.1987 0.97952,-1.0173 1.94054,-1.8197 0.96099,-0.8022 1.74501,-1.619 1.74501,-1.8196 -0.003,-0.5142 -1.2623,-2.6471 -1.6507,-2.7964 -0.17819,-0.074 -1.26274,0.2294 -2.41028,0.6646 -1.14753,0.4344 -2.25955,0.7889 -2.47089,0.7889 -0.43775,0 -2.18062,-2.1441 -2.18062,-2.6828 0,-0.194 0.58882,-1.2515 1.30751,-2.3461 0.71886,-1.0958 1.30723,-2.1188 1.30723,-2.2762 0,-0.3764 -1.91229,-2.2809 -2.29135,-2.2809 -0.16345,0 -1.11031,0.5488 -2.10639,1.2159 -2.67092,1.7935 -2.36016,1.7435 -3.86237,0.6138 -0.76245,-0.5742 -1.32532,-1.1641 -1.32532,-1.3895 0,-0.2161 0.35525,-1.3316 0.78929,-2.4788 0.43387,-1.1478 0.73279,-2.2325 0.66432,-2.4111 -0.15009,-0.3913 -2.2837,-1.6485 -2.80258,-1.6504 -0.20301,-7e-4 -1.03706,0.8245 -1.85251,1.8325 -0.81538,1.0084 -1.59739,1.8851 -1.73832,1.9473 -0.37015,0.1682 -3.11898,-0.9728 -3.32336,-1.3746 -0.0949,-0.1857 -0.0964,-0.9268 -0.004,-1.6449 0.0934,-0.7192 0.17627,-1.827 0.18724,-2.4624 0.0178,-1.1135 -0.007,-1.1655 -0.72211,-1.4635 -0.40773,-0.1676 -1.129,-0.3708 -1.60297,-0.4478 -0.77564,-0.1193 -0.9042,-0.074 -1.29002,0.4831 -0.23564,0.3411 -0.7795,1.3731 -1.20818,2.2886 -0.48683,1.0396 -0.94409,1.7194 -1.21603,1.8049 -0.57632,0.1857 -3.1258,-0.234 -3.31655,-0.5445 -0.0815,-0.1197 -0.3145,-1.2353 -0.51572,-2.4457 -0.20123,-1.213 -0.47215,-2.3307 -0.60189,-2.487 -0.15171,-0.1848 -0.76853,-0.283 -1.73815,-0.283 z m -1.09489,12.196 c 0.60054,0 1.21633,0.03 1.83989,0.089 0.62364,0.057 1.25503,0.1531 1.88768,0.243 1.26526,0.2062 2.53513,0.4937 3.75346,0.8304 1.21826,0.3355 2.38549,0.7192 3.44593,1.1136 1.0605,0.3963 2.01412,0.8022 2.80578,1.1849 0.52546,0.2548 1.04359,0.5339 1.55283,0.8377 0.50922,0.3044 1.00964,0.6272 1.49937,0.9714 0.48994,0.3425 0.96914,0.7073 1.43696,1.0854 0.46798,0.3779 0.92437,0.7741 1.36729,1.1819 0.88596,0.8155 1.719,1.6821 2.48817,2.572 0.76927,0.8912 1.47448,1.8066 2.10409,2.7199 0.62957,0.9135 1.184,1.827 1.65124,2.7121 0.46734,0.8853 0.84771,1.7435 1.12988,2.5479 0.1409,0.4033 0.25735,0.7904 0.34812,1.1641 0.0904,0.3736 0.15604,0.7281 0.19273,1.0646 0.0367,0.3355 0.0459,0.6512 0.0284,0.9447 -0.0179,0.2931 -0.0664,0.5622 -0.1453,0.8067 -0.089,0.2766 -0.20272,0.5248 -0.33767,0.7533 -0.13495,0.2267 -0.2908,0.4329 -0.46247,0.6137 -0.17078,0.1858 -0.35928,0.3454 -0.55767,0.4881 -0.19855,0.153 -0.40794,0.2683 -0.62321,0.375 -0.4309,0.2162 -0.88612,0.3651 -1.32591,0.4612 -0.43966,0.089 -0.86387,0.1531 -1.23324,0.1531 -1.86696,0.056 -3.4965,0.03 -5.79788,-0.013 -2.30138,-0.057 -5.2746,-0.153 -9.82885,-0.1857 v -3e-4 c -0.0685,0.01 -0.35942,0.013 -0.7964,-0.013 -0.21855,-0.013 -0.47313,-0.057 -0.75444,-0.1038 -0.28161,-0.056 -0.58924,-0.1531 -0.91399,-0.2697 -0.32474,-0.1038 -0.66623,-0.274 -1.01452,-0.4718 -0.34848,-0.1957 -0.70402,-0.4372 -1.05649,-0.7341 -0.35264,-0.2932 -0.70211,-0.6406 -1.03929,-1.0499 -0.33717,-0.4089 -0.66163,-0.8778 -0.96351,-1.4206 -1.49752,-2.684 -2.80132,-4.9148 -4.03642,-7.1113 -0.61743,-1.1003 -1.21767,-2.1878 -1.81667,-3.3212 -0.59892,-1.1345 -1.19675,-2.3114 -1.80832,-3.585 -0.19544,-0.4061 -0.38152,-0.8824 -0.48753,-1.3895 -0.0537,-0.2535 -0.0859,-0.5163 -0.089,-0.7815 -0.004,-0.2657 0.0192,-0.5367 0.0846,-0.8052 0.0621,-0.2697 0.16338,-0.541 0.30884,-0.8036 0.14676,-0.2658 0.33943,-0.5248 0.5879,-0.7786 0.24816,-0.2522 0.55217,-0.4965 0.91992,-0.7251 0.36776,-0.2304 0.79967,-0.4464 1.30441,-0.6462 0.31453,-0.119 0.64398,-0.2304 0.98605,-0.3193 0.34226,-0.089 0.69695,-0.1676 1.06257,-0.2175 0.73131,-0.1038 1.50547,-0.1676 2.30641,-0.1524 z m -16.37397,8.4492 c 0.22899,0 0.45074,0.03 0.66517,0.074 0.21438,0.03 0.42129,0.1038 0.62025,0.1914 0.39798,0.1675 0.76393,0.3842 1.09459,0.6406 0.33053,0.2564 0.62484,0.5487 0.88017,0.8437 0.25544,0.2968 0.47165,0.5975 0.64427,0.8749 0.99761,1.604 1.79308,3.0479 2.906,5.0937 1.11313,2.0461 2.5434,4.6938 4.81009,8.7044 0.0416,0.056 0.20347,0.3021 0.3876,0.7056 0.0934,0.2013 0.18976,0.4435 0.27917,0.7221 0.089,0.279 0.17078,0.5933 0.23279,0.9372 0.0608,0.344 0.10226,0.7207 0.10967,1.1269 0.008,0.4047 -0.0179,0.8394 -0.089,1.296 -0.0727,0.457 -0.18978,0.9386 -0.36683,1.4414 -0.17644,0.5015 -0.4131,1.0232 -0.72094,1.5615 -1.52615,2.6672 -2.76489,4.9357 -4.00906,7.127 -0.62216,1.0958 -1.24525,2.1716 -1.90682,3.2687 -0.6615,1.0973 -1.3612,2.215 -2.13553,3.3941 -0.24747,0.3772 -0.55697,0.78 -0.9349,1.1284 -0.18906,0.1673 -0.39501,0.3355 -0.61904,0.4732 -0.22403,0.1184 -0.46621,0.2522 -0.72716,0.3334 -0.26082,0.074 -0.54051,0.119 -0.83985,0.119 -0.29923,0 -0.61848,-0.03 -0.95773,-0.119 -0.33944,-0.089 -0.69943,-0.2344 -1.08036,-0.4407 -0.38089,-0.2063 -0.78321,-0.4746 -1.20743,-0.817 -0.26436,-0.2132 -0.52045,-0.4492 -0.76868,-0.7028 -0.24819,-0.2548 -0.4886,-0.5276 -0.72063,-0.823 -0.46423,-0.5855 -0.8968,-1.2382 -1.29804,-1.942 -0.40137,-0.7027 -0.77162,-1.4562 -1.11135,-2.2404 -0.3395,-0.7845 -0.64857,-1.5968 -0.92778,-2.421 -0.27904,-0.8244 -0.52843,-1.658 -0.74821,-2.4824 -0.21979,-0.8245 -0.41013,-1.6395 -0.57173,-2.4266 -0.16145,-0.7874 -0.29486,-1.543 -0.3996,-2.2525 -0.10531,-0.7088 -0.18194,-1.3672 -0.2306,-1.9602 -0.0487,-0.5884 -0.0727,-1.1849 -0.0727,-1.7826 8e-5,-0.6003 0.0254,-1.201 0.0685,-1.8046 0.0445,-0.6032 0.11124,-1.207 0.19818,-1.8084 0.0859,-0.6017 0.19168,-1.1996 0.31493,-1.7935 0.24599,-1.1893 0.56184,-2.3555 0.93089,-3.4794 0.36917,-1.1226 0.79092,-2.2037 1.25014,-3.2171 0.45936,-1.0143 0.95579,-1.96 1.4727,-2.8163 0.51693,-0.8556 1.05441,-1.6227 1.59612,-2.2763 0.27086,-0.3263 0.54284,-0.6244 0.81375,-0.8927 0.2707,-0.2684 0.54093,-0.5029 0.80782,-0.7056 0.2669,-0.2013 0.53084,-0.3707 0.78959,-0.5014 0.2589,-0.1184 0.51247,-0.2265 0.75889,-0.2803 0.27906,-0.057 0.54983,-0.089 0.81152,-0.089 z m 17.50211,17.1543 a 3.0298334,2.9408903 0 0 1 3.02994,2.9408 3.0298334,2.9408903 0 0 1 -3.02994,2.9407 3.0298334,2.9408903 0 0 1 -3.02993,-2.9407 3.0298334,2.9408903 0 0 1 3.02993,-2.9408 z m 15.04489,5.9632 c 1.24555,0 2.47534,0 3.74209,0.03 1.26674,0.03 2.5704,0.074 3.96351,0.1676 0.44531,0.03 0.9435,0.089 1.43074,0.2535 0.24343,0.074 0.48429,0.1858 0.71441,0.3071 0.23008,0.1189 0.44976,0.2826 0.65019,0.4704 0.20047,0.1864 0.38224,0.411 0.5372,0.6702 0.15601,0.2612 0.28293,0.5594 0.3763,0.9017 0.0934,0.3425 0.15171,0.7324 0.16711,1.1699 0.0149,0.4371 -0.0116,0.9268 -0.089,1.4709 -0.0488,0.3398 -0.12163,0.6837 -0.21282,1.0292 -0.0934,0.344 -0.20625,0.6943 -0.33852,1.044 -0.26456,0.7013 -0.60379,1.4087 -1.00148,2.1155 -0.3977,0.7063 -0.85349,1.4088 -1.35023,2.1007 -0.49657,0.6907 -1.03423,1.3731 -1.59554,2.0305 -0.56142,0.6583 -1.14663,1.2961 -1.73871,1.9036 -0.59193,0.6066 -1.19112,1.1833 -1.77971,1.7211 -0.58868,0.5368 -1.16651,1.0336 -1.71734,1.4814 -0.5509,0.4478 -1.07458,0.8468 -1.55379,1.1863 -0.47702,0.3397 -0.97242,0.6582 -1.48264,0.9609 -0.51021,0.2995 -1.03528,0.5841 -1.57141,0.8437 -0.53634,0.2641 -1.08377,0.5085 -1.63937,0.7355 -0.55562,0.2268 -1.11862,0.4344 -1.68635,0.6244 -1.13537,0.3792 -2.2884,0.6907 -3.43086,0.9297 -1.14249,0.2416 -2.27479,0.4125 -3.36848,0.5177 -1.0937,0.1038 -2.14881,0.1531 -3.13792,0.1184 -0.98916,-0.013 -1.91185,-0.1038 -2.74061,-0.2579 -0.4143,-0.074 -0.80531,-0.1675 -1.16918,-0.2657 -0.36387,-0.1038 -0.70076,-0.2211 -1.00696,-0.3559 -0.30636,-0.1187 -0.58197,-0.2807 -0.82368,-0.4422 -0.24169,-0.1669 -0.4499,-0.3354 -0.62011,-0.5247 -0.19273,-0.2132 -0.35088,-0.4372 -0.47942,-0.6703 -0.12904,-0.2333 -0.22684,-0.4704 -0.29923,-0.7102 -0.0727,-0.2417 -0.12011,-0.4881 -0.1453,-0.7342 -0.0268,-0.2459 -0.0284,-0.4922 -0.0149,-0.7355 0.0284,-0.4866 0.12606,-0.9623 0.2589,-1.3983 0.1334,-0.4358 0.3022,-0.8334 0.47349,-1.1655 0.86462,-1.6822 1.69542,-3.1049 2.87908,-5.1098 1.18356,-2.0047 2.72019,-4.5904 4.99737,-8.595 0.0284,-0.056 0.15403,-0.3305 0.40689,-0.6971 0.12606,-0.1858 0.28336,-0.3899 0.47461,-0.6067 0.19148,-0.2195 0.41699,-0.4478 0.68014,-0.6745 0.2633,-0.2287 0.56425,-0.4534 0.90525,-0.6625 0.34134,-0.2102 0.72316,-0.4061 1.14857,-0.5706 0.42552,-0.1676 0.89456,-0.3051 1.41072,-0.4019 0.516,-0.089 1.07887,-0.1531 1.69174,-0.1531 3.03834,0 5.59227,-0.056 8.0833,-0.056 z"
       id="path1172"
       inkscape:connector-curvature="0" />
    <path
       inkscape:connector-curvature="0"
       id="path1007"
       d="m 200.45724,1002.8889 c -1.78826,0 -1.74482,-0.057 -2.33783,3.1091 -0.21918,1.17 -0.44912,2.1792 -0.51078,2.2408 -0.21547,0.2162 -2.82901,0.5488 -3.2523,0.4139 -0.27443,-0.089 -0.81523,-0.946 -1.51083,-2.4044 -1.22196,-2.559 -1.24984,-2.5747 -3.35799,-1.8705 -1.04477,0.3496 -1.09149,0.4004 -1.15317,1.2366 -0.0353,0.4803 0.0268,1.6081 0.13496,2.5053 0.10973,0.8957 0.12302,1.7825 0.0268,1.968 -0.21501,0.4153 -2.9242,1.5521 -3.30513,1.385 -0.15403,-0.074 -0.9521,-0.9549 -1.77509,-1.9734 -1.34933,-1.6691 -1.5534,-1.8382 -2.06992,-1.7101 -0.81212,0.1987 -2.42807,1.173 -2.57293,1.5523 -0.0664,0.1676 0.23266,1.2575 0.66651,2.4044 0.43386,1.1477 0.78929,2.2686 0.78929,2.4906 0,0.4534 -2.12008,2.1603 -2.68228,2.1603 -0.19543,0 -1.25117,-0.5891 -2.34604,-1.3064 -1.0949,-0.7178 -2.09912,-1.3065 -2.23168,-1.3065 -0.32721,0 -2.32556,1.9881 -2.32556,2.3138 0,0.1523 0.63629,1.2129 1.41369,2.3749 1.59482,2.3859 1.59445,2.2368 -0.003,4.1287 -0.83496,0.9892 -0.73947,0.995 -4.09796,-0.2386 l -1.70639,-0.6286 -0.52731,0.654 c -0.28999,0.3602 -0.69349,1.0855 -0.89679,1.6153 l -0.36952,0.9624 1.18194,0.9994 c 0.65005,0.5502 1.56027,1.345 2.02253,1.7676 l 0.84074,0.7696 -0.58225,1.4533 c -0.32016,0.7993 -0.69618,1.5447 -0.8357,1.6542 -0.15602,0.1193 -1.21233,0.1038 -2.73196,-0.03 -2.86479,-0.2657 -2.81601,-0.2911 -3.29012,1.6859 -0.36599,1.5258 -0.30913,1.5968 2.2923,2.8364 1.28009,0.6109 2.07161,1.121 2.15786,1.3924 0.17819,0.5621 -0.23654,3.1195 -0.53571,3.3044 -0.12748,0.074 -1.23279,0.318 -2.45631,0.5276 -1.22344,0.2132 -2.34709,0.4866 -2.49685,0.6067 -0.3674,0.2981 -0.3674,3.0874 0,3.386 0.15037,0.119 1.27327,0.3962 2.49685,0.6066 1.22345,0.2119 2.32861,0.4507 2.45631,0.5312 0.29924,0.1858 0.71396,2.7428 0.53571,3.3043 -0.086,0.2714 -0.87781,0.7845 -2.15786,1.3924 -2.5917,1.2367 -2.66991,1.3302 -2.30595,2.7785 0.4499,1.7916 0.54327,1.8939 1.70546,1.8861 0.56495,0 1.71325,-0.089 2.55199,-0.2049 1.12365,-0.1531 1.59481,-0.119 1.79067,0.056 0.51346,0.5057 1.33718,2.8512 1.13404,3.2306 -0.10531,0.1986 -0.98606,1.0216 -1.95557,1.8307 -1.57252,1.3108 -1.74778,1.5318 -1.62339,2.0377 0.19839,0.8066 1.17466,2.4235 1.55099,2.5681 0.17452,0.074 1.25696,-0.2337 2.40435,-0.666 1.14752,-0.4344 2.26754,-0.7889 2.48957,-0.7889 0.45265,0 2.16106,2.1202 2.16106,2.6824 0,0.195 -0.58839,1.2515 -1.30737,2.3457 -0.71885,1.0944 -1.30722,2.0994 -1.30722,2.2319 0,0.3305 1.98976,2.3256 2.31962,2.3256 0.14677,0 1.1456,-0.5891 2.22027,-1.3065 1.07472,-0.7176 2.12597,-1.3063 2.33602,-1.3063 0.55873,0 2.70916,1.7304 2.70916,2.1802 0,0.2119 -0.35441,1.3213 -0.7884,2.4705 -0.43386,1.1476 -0.73457,2.2298 -0.66756,2.4045 0.14526,0.3764 1.76189,1.3538 2.57386,1.5522 0.51643,0.1193 0.72018,-0.03 2.06946,-1.71 0.82325,-1.0187 1.61151,-1.9026 1.75242,-1.9649 0.37008,-0.1676 3.1194,0.9729 3.32337,1.3747 0.0949,0.1858 0.0934,1.0247 -0.004,1.8635 -0.0964,0.8394 -0.18185,1.9466 -0.18757,2.462 -0.01,0.8704 0.0445,0.9609 0.75593,1.2576 0.42185,0.1675 1.1972,0.3778 1.72312,0.452 l 0.95639,0.1193 1.09667,-2.2956 c 0.70521,-1.4768 1.24835,-2.3442 1.52308,-2.4314 0.42335,-0.1193 3.03719,0.197 3.25275,0.4139 0.0607,0.056 0.29156,1.0691 0.51084,2.2404 0.21918,1.17 0.49687,2.3489 0.61701,2.6192 0.1959,0.4387 0.37305,0.4909 1.7214,0.4909 0.96989,0 1.58646,-0.089 1.73871,-0.2845 0.13046,-0.1524 0.40017,-1.2767 0.60146,-2.4875 0.20123,-1.2131 0.43295,-2.3118 0.51544,-2.4449 0.19068,-0.3084 2.74069,-0.7266 3.31698,-0.5446 0.27206,0.089 0.72894,0.7637 1.21574,1.8047 0.42885,0.9179 0.97256,1.9473 1.20817,2.2892 0.38583,0.5594 0.5148,0.6067 1.29032,0.4838 0.47405,-0.074 1.19527,-0.2776 1.60297,-0.4477 0.69872,-0.2905 0.74065,-0.3694 0.73412,-1.3554 -0.004,-0.5756 -0.0964,-1.7322 -0.20552,-2.5707 -0.14675,-1.121 -0.13046,-1.593 0.0607,-1.7787 0.40343,-0.3955 2.97304,-1.3732 3.2664,-1.2426 0.1423,0.056 0.92838,0.9416 1.74371,1.9495 0.81539,1.0083 1.64957,1.8345 1.8527,1.8326 0.43493,0 2.55439,-1.1818 2.78025,-1.5483 0.0859,-0.1187 -0.22509,-1.3762 -0.69158,-2.7503 l -0.8489,-2.4979 1.18563,-1.0662 c 0.65182,-0.5869 1.29389,-1.0677 1.4266,-1.0677 0.1334,0 1.20091,0.6378 2.37382,1.4177 1.17303,0.7785 2.26377,1.4176 2.42349,1.4176 0.37532,0 2.28544,-1.9065 2.28544,-2.281 0,-0.1524 -0.5884,-1.1819 -1.30723,-2.2765 -0.71885,-1.0959 -1.30767,-2.1504 -1.30767,-2.3458 0,-0.5395 1.74296,-2.6828 2.18065,-2.6828 0.2112,0 1.32339,0.3545 2.47088,0.7889 1.14754,0.4343 2.23194,0.734 2.41031,0.6646 0.38654,-0.1524 1.64697,-2.2814 1.65068,-2.7918 0.002,-0.1969 -0.8314,-1.0602 -1.8499,-1.9168 -2.12376,-1.7881 -2.1887,-1.9954 -1.23991,-3.9343 0.49051,-1.0024 0.67541,-1.1937 1.13078,-1.1655 0.29939,0.013 1.50028,0.1038 2.66816,0.1913 l 2.12322,0.1676 0.33202,-0.7948 c 0.18193,-0.4372 0.39149,-1.2263 0.46381,-1.7545 l 0.13202,-0.9609 -2.29864,-1.1018 c -1.45269,-0.6957 -2.34798,-1.2546 -2.43216,-1.5211 -0.18017,-0.5635 0.24499,-3.1132 0.54892,-3.3012 0.1334,-0.074 1.23337,-0.3143 2.44491,-0.5163 1.21157,-0.2006 2.33056,-0.4717 2.48681,-0.6017 0.38683,-0.322 0.38683,-3.0942 0,-3.4152 -0.15587,-0.119 -1.27534,-0.4019 -2.48681,-0.6018 -1.21159,-0.1999 -2.31179,-0.4315 -2.44491,-0.5162 -0.30617,-0.1901 -0.72716,-2.7388 -0.54623,-3.3085 0.0875,-0.274 0.95476,-0.8186 2.43125,-1.5241 l 2.2959,-1.0959 -0.13202,-0.9564 c -0.0726,-0.5247 -0.27536,-1.302 -0.45151,-1.7231 -0.30442,-0.7281 -0.37334,-0.7667 -1.36638,-0.7593 -0.57519,0 -1.73201,0.089 -2.57065,0.2056 -1.78734,0.2334 -1.80478,0.2212 -2.57477,-1.6265 -0.36952,-0.8867 -0.48175,-1.419 -0.35024,-1.6653 0.10531,-0.1987 0.97952,-1.0173 1.94054,-1.8197 0.96099,-0.8022 1.74502,-1.619 1.74502,-1.8196 -0.003,-0.5149 -1.26231,-2.647 -1.65071,-2.7963 -0.17818,-0.074 -1.26274,0.2294 -2.41028,0.6645 -1.14753,0.4344 -2.25955,0.7889 -2.47088,0.7889 -0.43775,0 -2.18063,-2.144 -2.18063,-2.6827 0,-0.194 0.58882,-1.2516 1.30752,-2.3462 0.71885,-1.0957 1.30722,-2.1187 1.30722,-2.2761 0,-0.3771 -1.91229,-2.281 -2.29135,-2.281 -0.16345,0 -1.11031,0.5488 -2.10639,1.216 -2.67092,1.7936 -2.36016,1.7434 -3.86237,0.6138 -0.76245,-0.5743 -1.32532,-1.1641 -1.32532,-1.3895 0,-0.2161 0.35526,-1.3316 0.7893,-2.4789 0.43386,-1.1477 0.73278,-2.2325 0.66432,-2.411 -0.1501,-0.3913 -2.2837,-1.6485 -2.80258,-1.6505 -0.20302,-7e-4 -1.03707,0.8245 -1.85252,1.8326 -0.81537,1.0084 -1.59739,1.885 -1.73831,1.9473 -0.37016,0.1676 -3.11899,-0.9728 -3.32336,-1.3746 -0.0949,-0.1858 -0.0964,-0.9269 -0.004,-1.645 0.0934,-0.7191 0.17627,-1.8268 0.18724,-2.4623 0.0179,-1.1137 -0.007,-1.1655 -0.72211,-1.4635 -0.40773,-0.1676 -1.129,-0.3708 -1.60297,-0.4478 -0.77564,-0.1193 -0.9042,-0.074 -1.29002,0.4831 -0.23563,0.3411 -0.7795,1.3732 -1.20817,2.2887 -0.48684,1.0395 -0.9441,1.7194 -1.21604,1.8048 -0.57632,0.1857 -3.1258,-0.234 -3.31655,-0.5446 -0.0815,-0.119 -0.3145,-1.2352 -0.51572,-2.4456 -0.20123,-1.213 -0.47214,-2.3307 -0.60189,-2.487 -0.15171,-0.1847 -0.76853,-0.2829 -1.73815,-0.2829 z m -1.09489,12.1961 c 0.60054,0 1.21633,0.03 1.83989,0.089 0.62364,0.057 1.25503,0.1531 1.88768,0.243 1.26526,0.2062 2.53513,0.4937 3.75346,0.8304 1.21826,0.3355 2.38549,0.7191 3.44593,1.1136 1.0605,0.3962 2.01412,0.8023 2.80578,1.1849 0.52546,0.2551 1.04359,0.5339 1.55283,0.8377 0.50922,0.3045 1.00964,0.6272 1.49937,0.9714 0.48994,0.3425 0.96914,0.7073 1.43696,1.0854 0.46798,0.3779 0.92437,0.774 1.36729,1.1819 0.88596,0.8155 1.719,1.6821 2.48817,2.572 0.76927,0.8912 1.47448,1.8065 2.10409,2.7199 0.62957,0.9134 1.184,1.8271 1.65124,2.7121 0.46734,0.8853 0.84771,1.7435 1.12988,2.548 0.1409,0.4032 0.25735,0.7902 0.34812,1.1639 0.0904,0.3737 0.15604,0.7281 0.19273,1.0647 0.0367,0.3355 0.0459,0.6512 0.0284,0.9446 -0.0179,0.2929 -0.0664,0.5622 -0.1453,0.8067 -0.089,0.2776 -0.20272,0.5248 -0.33767,0.7533 -0.13495,0.2265 -0.2908,0.433 -0.46247,0.6138 -0.17078,0.1857 -0.35928,0.3453 -0.55767,0.488 -0.19855,0.1531 -0.40794,0.2684 -0.62321,0.375 -0.4309,0.2162 -0.88612,0.3652 -1.32591,0.4613 -0.43966,0.089 -0.86387,0.153 -1.23324,0.153 -1.86696,0.057 -3.4965,0.03 -5.79788,-0.013 -2.30138,-0.057 -5.2746,-0.1531 -9.82885,-0.1858 v -3e-4 c -0.0685,0.01 -0.35942,0.013 -0.7964,-0.013 -0.21855,-0.013 -0.47313,-0.057 -0.75444,-0.1038 -0.28161,-0.056 -0.58924,-0.153 -0.91399,-0.2697 -0.32474,-0.1038 -0.66623,-0.274 -1.01452,-0.4718 -0.34848,-0.1956 -0.70402,-0.4371 -1.05649,-0.734 -0.35264,-0.2932 -0.70211,-0.6406 -1.03929,-1.0499 -0.33717,-0.4096 -0.66163,-0.8778 -0.96351,-1.4206 -1.49752,-2.6839 -2.80132,-4.9148 -4.03642,-7.1114 -0.61743,-1.1002 -1.21767,-2.1876 -1.81667,-3.3211 -0.59892,-1.1344 -1.19675,-2.3114 -1.80832,-3.585 -0.19544,-0.4061 -0.38152,-0.8824 -0.48753,-1.3895 -0.0537,-0.2535 -0.0859,-0.5162 -0.089,-0.7814 -0.004,-0.2658 0.0192,-0.5368 0.0846,-0.8053 0.0621,-0.2697 0.16338,-0.541 0.30884,-0.8037 0.14676,-0.2657 0.33943,-0.5248 0.5879,-0.7785 0.24816,-0.2522 0.55217,-0.4965 0.91992,-0.7252 0.36776,-0.2303 0.79967,-0.4463 1.30441,-0.6462 0.31453,-0.1193 0.64398,-0.2304 0.98605,-0.3193 0.34226,-0.089 0.69695,-0.1673 1.06257,-0.2175 0.73131,-0.1038 1.50547,-0.1676 2.30641,-0.1524 z m -16.37397,8.4492 c 0.22899,0 0.45074,0.03 0.66517,0.074 0.21438,0.03 0.42129,0.1038 0.62025,0.1914 0.39798,0.1675 0.76393,0.3842 1.09459,0.6406 0.33053,0.2564 0.62484,0.5487 0.88017,0.8437 0.25544,0.2968 0.47165,0.5975 0.64427,0.8749 0.99761,1.604 1.79308,3.0478 2.906,5.0936 1.11313,2.0461 2.5434,4.6938 4.81009,8.7045 0.0416,0.056 0.20347,0.3021 0.3876,0.7056 0.0934,0.2012 0.18976,0.4435 0.27917,0.7221 0.089,0.279 0.17078,0.5933 0.23279,0.9372 0.0608,0.3439 0.10226,0.7206 0.10967,1.127 0.008,0.4046 -0.0179,0.8392 -0.089,1.296 -0.0727,0.4569 -0.18978,0.9387 -0.36683,1.4413 -0.17644,0.5015 -0.4131,1.0232 -0.72094,1.5615 -1.52615,2.6672 -2.76489,4.9358 -4.00906,7.127 -0.62216,1.0958 -1.24525,2.1716 -1.90682,3.2687 -0.6615,1.0974 -1.3612,2.2151 -2.13553,3.3941 -0.24747,0.3772 -0.55697,0.7801 -0.9349,1.1285 -0.18906,0.1675 -0.39501,0.3354 -0.61904,0.4732 -0.22403,0.1186 -0.46621,0.2522 -0.72716,0.3333 -0.26082,0.074 -0.54051,0.1184 -0.83985,0.1184 -0.29923,0 -0.61848,-0.03 -0.95773,-0.1184 -0.33944,-0.089 -0.69943,-0.2343 -1.08036,-0.4407 -0.38089,-0.2062 -0.78321,-0.4746 -1.20743,-0.817 -0.26436,-0.2132 -0.52045,-0.4493 -0.76868,-0.7028 -0.24819,-0.2548 -0.4886,-0.5276 -0.72063,-0.823 -0.46423,-0.5855 -0.8968,-1.2382 -1.29804,-1.9421 -0.40137,-0.7027 -0.77162,-1.4561 -1.11135,-2.2404 -0.3395,-0.7844 -0.64857,-1.5967 -0.92778,-2.4209 -0.27904,-0.8244 -0.52843,-1.658 -0.74821,-2.4825 -0.21979,-0.8245 -0.41013,-1.6394 -0.57173,-2.4265 -0.16145,-0.7875 -0.29486,-1.543 -0.3996,-2.2525 -0.10531,-0.7088 -0.18194,-1.3672 -0.2306,-1.9603 -0.0487,-0.5883 -0.0727,-1.1848 -0.0727,-1.7825 8e-5,-0.6003 0.0254,-1.2011 0.0685,-1.8046 0.0445,-0.6039 0.11124,-1.2071 0.19818,-1.8084 0.0859,-0.6017 0.19168,-1.1996 0.31493,-1.7936 0.24599,-1.1892 0.56184,-2.3555 0.93089,-3.4793 0.36917,-1.1226 0.79092,-2.2038 1.25014,-3.2172 0.45936,-1.0142 0.95579,-1.9599 1.4727,-2.8163 0.51693,-0.8555 1.05441,-1.6226 1.59612,-2.2763 0.27086,-0.3262 0.54284,-0.6243 0.81375,-0.8926 0.2707,-0.2684 0.54093,-0.5029 0.80782,-0.7056 0.2669,-0.2013 0.53084,-0.3708 0.78959,-0.5014 0.2589,-0.1187 0.51247,-0.2268 0.75889,-0.2807 0.27906,-0.057 0.54983,-0.089 0.81152,-0.089 z m 17.50211,17.1542 a 3.0298334,2.9408903 0 0 1 3.02994,2.9408 3.0298334,2.9408903 0 0 1 -3.02994,2.9407 3.0298334,2.9408903 0 0 1 -3.02993,-2.9407 3.0298334,2.9408903 0 0 1 3.02993,-2.9408 z m 15.04489,5.9633 c 1.24555,0 2.47534,0 3.74209,0.03 1.26674,0.03 2.5704,0.073 3.96351,0.1676 0.44531,0.03 0.9435,0.089 1.43074,0.2535 0.24343,0.074 0.48429,0.1858 0.71441,0.3071 0.23008,0.1189 0.44976,0.2819 0.65019,0.4704 0.20047,0.1864 0.38224,0.411 0.5372,0.6702 0.15601,0.2611 0.28293,0.5594 0.3763,0.9016 0.0934,0.3425 0.15171,0.7325 0.16711,1.17 0.0149,0.4371 -0.0116,0.9267 -0.089,1.471 -0.0488,0.3397 -0.12163,0.6837 -0.21282,1.029 -0.0934,0.344 -0.20625,0.6943 -0.33852,1.044 -0.26456,0.7014 -0.60379,1.4087 -1.00148,2.1156 -0.3977,0.7056 -0.85349,1.4087 -1.35023,2.1007 -0.49657,0.6907 -1.03423,1.3731 -1.59554,2.0305 -0.56142,0.6583 -1.14663,1.296 -1.73871,1.9035 -0.59193,0.6067 -1.19112,1.1833 -1.77971,1.7212 -0.58868,0.5368 -1.16651,1.0335 -1.71734,1.4814 -0.5509,0.4478 -1.07458,0.8467 -1.55379,1.1862 -0.47702,0.3398 -0.97242,0.6583 -1.48264,0.9609 -0.51021,0.2995 -1.03528,0.5841 -1.57141,0.8438 -0.53634,0.2641 -1.08377,0.5085 -1.63937,0.7355 -0.55562,0.2268 -1.11862,0.4344 -1.68635,0.6244 -1.13537,0.3792 -2.2884,0.6907 -3.43086,0.9297 -1.14249,0.2413 -2.27479,0.4125 -3.36848,0.5177 -1.0937,0.1038 -2.14881,0.153 -3.13792,0.1187 -0.98916,-0.013 -1.91185,-0.1038 -2.74061,-0.2579 -0.4143,-0.073 -0.80531,-0.1675 -1.16918,-0.2657 -0.36387,-0.1038 -0.70076,-0.2211 -1.00696,-0.3559 -0.30636,-0.1187 -0.58197,-0.2807 -0.82368,-0.4422 -0.24169,-0.1659 -0.4499,-0.3355 -0.62011,-0.5247 -0.19273,-0.2132 -0.35088,-0.4372 -0.47942,-0.6703 -0.12904,-0.233 -0.22684,-0.4704 -0.29923,-0.7103 -0.0727,-0.2413 -0.12011,-0.488 -0.1453,-0.7341 -0.0268,-0.2455 -0.0284,-0.4922 -0.0149,-0.7354 0.0284,-0.4866 0.12606,-0.9624 0.2589,-1.3984 0.1334,-0.4357 0.3022,-0.8333 0.47349,-1.1655 0.86462,-1.6822 1.69542,-3.1048 2.87908,-5.1098 1.18356,-2.0048 2.72019,-4.5904 4.99737,-8.5951 0.0284,-0.056 0.15403,-0.3305 0.40689,-0.697 0.12606,-0.1858 0.28336,-0.3899 0.47461,-0.6067 0.19148,-0.2195 0.41699,-0.4478 0.68014,-0.6745 0.2633,-0.2287 0.56425,-0.4534 0.90525,-0.6625 0.34134,-0.2102 0.72316,-0.4061 1.14857,-0.5707 0.42552,-0.1675 0.89456,-0.305 1.41072,-0.4018 0.516,-0.089 1.07887,-0.1531 1.69174,-0.1531 3.03834,0 5.59227,-0.056 8.0833,-0.056 z"
       style="opacity:1;fill:#ffffff;fill-opacity:1;stroke-width:0.04107638" />
  </g>
</svg>
