<?xml version="1.0" encoding="UTF-8" standalone="no"?>
<!-- Created with Inkscape (http://www.inkscape.org/) -->

<svg
   xmlns:dc="http://purl.org/dc/elements/1.1/"
   xmlns:cc="http://creativecommons.org/ns#"
   xmlns:rdf="http://www.w3.org/1999/02/22-rdf-syntax-ns#"
   xmlns:svg="http://www.w3.org/2000/svg"
   xmlns="http://www.w3.org/2000/svg"
   xmlns:xlink="http://www.w3.org/1999/xlink"
   xmlns:sodipodi="http://sodipodi.sourceforge.net/DTD/sodipodi-0.dtd"
   xmlns:inkscape="http://www.inkscape.org/namespaces/inkscape"
   version="1.1"
   id="svg2"
   width="128"
   height="128"
   viewBox="0 0 128 128.00001"
   sodipodi:docname="yast.svg"
   inkscape:version="0.92.2 5c3e80d, 2017-08-06">
  <metadata
     id="metadata8">
    <rdf:RDF>
      <cc:Work
         rdf:about="">
        <dc:format>image/svg+xml</dc:format>
        <dc:type
           rdf:resource="http://purl.org/dc/dcmitype/StillImage" />
        <dc:title></dc:title>
      </cc:Work>
    </rdf:RDF>
  </metadata>
  <defs
     id="defs6">
    <linearGradient
       inkscape:collect="always"
       id="linearGradient4313">
      <stop
         style="stop-color:#0bc641;stop-opacity:1"
         offset="0"
         id="stop4315" />
      <stop
         style="stop-color:#6bf657;stop-opacity:1"
         offset="1"
         id="stop4317" />
    </linearGradient>
    <linearGradient
       inkscape:collect="always"
       xlink:href="#linearGradient4313"
       id="linearGradient4319"
       x1="80.007973"
       y1="125.92976"
       x2="60.765713"
       y2="16.876659"
       gradientUnits="userSpaceOnUse"
       gradientTransform="translate(0,-8.533325)" />
  </defs>
  <sodipodi:namedview
     pagecolor="#ffffff"
     bordercolor="#666666"
     borderopacity="1"
     objecttolerance="10"
     gridtolerance="10"
     guidetolerance="10"
     inkscape:pageopacity="0"
     inkscape:pageshadow="2"
     inkscape:window-width="1600"
     inkscape:window-height="803"
     id="namedview4"
     showgrid="false"
     inkscape:zoom="4.7390633"
     inkscape:cx="50.779419"
     inkscape:cy="65.718486"
     inkscape:window-x="0"
     inkscape:window-y="0"
     inkscape:window-maximized="1"
     inkscape:current-layer="svg2"
     showguides="false" />
  <path
     style="fill:#000000;stroke-width:1.33333337"
     d=""
     id="path849"
     inkscape:connector-curvature="0" />
  <path
     style="fill:#000000;stroke-width:1.33333337"
     d=""
     id="path847"
     inkscape:connector-curvature="0" />
  <g
     id="g900"
     transform="matrix(0.92009724,0,0,0.92009724,0.55632874,8.2019731)">
    <circle
       id="circle894"
       cx="68.953224"
       cy="61.832596"
       r="64.021523"
       style="opacity:0.25;fill:#000000;fill-opacity:1;stroke:none;stroke-width:6;stroke-miterlimit:4;stroke-dasharray:none;stroke-opacity:1" />
    <circle
       style="fill:url(#linearGradient4319);fill-opacity:1;stroke:#07812a;stroke-width:0.75590551;stroke-miterlimit:4;stroke-dasharray:none;stroke-opacity:1"
       r="64.021523"
       cy="59.832596"
       cx="68.953224"
       id="path12" />
    <path
       id="path892"
       d="M 76.671552,96.259899 C 67.230904,93.166931 62.932723,83.368614 67.276489,74.842393 c 1.970714,-3.868233 4.568667,-6.001628 8.817612,-7.240879 5.539765,-1.615721 11.617606,0.615662 14.807871,5.436482 2.184047,3.300311 2.434744,8.600964 0.571746,12.088813 -4.373223,8.187211 -16.364531,8.012773 -19.533145,-0.284134 -1.838779,-4.814743 0.289873,-9.836279 4.919004,-11.604186 4.69457,-1.792857 9.626376,1.079519 10.172523,5.924655 0.229879,2.040133 0.04176,2.693178 -1.203052,4.172368 -2.688085,3.19464 -7.095808,2.825573 -8.715743,-0.729773 -0.859807,-1.887145 -0.216662,-2.245955 1.543599,-0.861287 1.861127,1.463983 3.237301,1.482624 4.656808,0.06299 1.460009,-1.459991 1.397177,-2.919593 -0.205818,-4.783113 -2.982383,-3.467268 -8.757524,-0.650358 -8.866538,4.324731 -0.06145,2.810343 1.292807,4.980184 3.900375,6.248824 6.60796,3.214865 13.908597,-4.037798 11.222104,-11.148278 -0.740362,-1.959469 -3.063721,-4.439433 -5.207379,-5.558252 -4.331032,-2.260527 -10.964413,-0.171985 -13.994016,4.405997 -1.263318,1.909042 -1.508932,2.879122 -1.508932,5.959852 0,3.130332 0.24997,4.083978 1.674296,6.38773 1.03919,1.680899 2.702387,3.343102 4.384841,4.382316 2.362529,1.459267 3.213161,1.671534 6.623945,1.652659 8.07802,-0.04415 13.619487,-5.227939 15.292112,-14.303708 1.18501,-6.429807 -1.160125,-13.730824 -5.885594,-18.323456 -1.685174,-1.637796 -2.450495,-2.840334 -2.450495,-3.85036 0,-1.685839 -0.894737,-3.608895 -1.679102,-3.608895 -0.301123,0 -0.533742,2.055452 -0.533742,4.715951 v 4.715941 l 2.489454,1.503696 c 2.730399,1.649247 3.365326,3.447991 1.217064,3.447991 -0.69981,0 -1.549191,-0.276809 -1.887522,-0.615149 -0.338356,-0.338329 -2.19299,-1.158454 -4.121431,-1.822503 -3.583353,-1.233934 -4.656213,-2.654569 -2.261607,-2.994649 1.070801,-0.152095 1.244722,-0.509735 1.244722,-2.559266 v -2.382463 l -3.093581,-0.256562 c -3.483249,-0.288861 -4.077303,-0.854107 -4.089706,-3.891267 -0.0065,-1.140972 -0.226853,-2.07455 -0.493927,-2.07455 -1.239726,0 -1.947303,2.07009 -2.172181,6.355153 -0.236683,4.509137 -0.212241,4.618877 1.06375,4.800205 2.518786,0.357852 1.891591,2.004099 -1.301518,3.416239 -1.634967,0.723028 -3.893522,2.123171 -5.019042,3.111379 -2.046523,1.796883 -3.703043,1.949603 -3.703043,0.341384 0,-0.450823 1.120259,-1.756077 2.489448,-2.900583 2.454252,-2.051494 2.489492,-2.12898 2.489492,-5.477845 0,-4.227099 -1.40096,-6.56674 -5.110283,-8.534538 l -2.597729,-1.378079 -2.402853,2.358237 -2.402897,2.358261 -11.031088,-0.150557 C 34.418685,55.530461 34.35318,55.522501 34.177492,54.284855 L 34.00062,53.04013 h 8.545556 c 6.921159,0 8.676501,-0.15786 9.234254,-0.829836 0.607824,-0.73237 -0.480443,-0.829824 -9.269139,-0.829824 -7.302402,0 -10.111217,-0.185041 -10.532962,-0.692914 -0.629735,-0.758805 -0.03405,-5.060057 1.079116,-7.789324 1.781232,-4.195915 4.760028,-8.15353 8.325541,-11.099167 3.029271,-2.502596 11.839124,-5.386623 13.963951,-4.571225 0.683898,0.262437 0.859232,1.292677 0.859232,5.049375 0,2.595846 0.199187,4.719698 0.442552,4.719698 1.085901,0 1.770287,-1.531591 1.770287,-3.961807 0,-2.627042 0.0088,-2.635872 2.351164,-3.291426 3.647467,-1.019748 12.20244,-0.741356 17.169951,0.558791 13.665824,3.576696 23.645837,13.140002 27.011177,25.883265 1.52846,5.787722 1.65615,15.143611 0.27037,19.81277 -2.53755,8.54989 -8.040238,15.360382 -15.06799,18.649023 -2.937564,1.37465 -4.5877,1.77172 -7.904103,1.90187 -2.305313,0.0906 -4.815455,-0.04 -5.5781,-0.28979 z M 59.551126,62.7889 c -0.479206,-1.260379 -0.869735,-1.412351 -4.012441,-1.56157 -3.130148,-0.148785 -3.499388,-0.290957 -3.658343,-1.410067 -0.168237,-1.185791 5.54e-4,-1.244725 3.57261,-1.244725 3.557222,0 3.853662,-0.102125 5.785801,-1.988602 1.761024,-1.719575 2.194444,-1.903969 3.204315,-1.363552 1.593076,0.85258 1.471881,1.602755 -0.60537,3.745838 -1.085371,1.11989 -1.782756,2.413649 -1.797944,3.335487 -0.0336,2.044514 -1.767503,2.383903 -2.488628,0.487191 z"
       inkscape:connector-curvature="0"
       style="opacity:0.25;fill:#000000;fill-opacity:1;stroke-width:1.46880162" />
    <path
       style="opacity:1;fill:#fcfeff;fill-opacity:1;stroke-width:1.46880162"
       inkscape:connector-curvature="0"
       d="M 76.671552,94.259899 C 67.230904,91.166931 62.932723,81.368614 67.276489,72.842393 c 1.970714,-3.868233 4.568667,-6.001628 8.817612,-7.240879 5.539765,-1.615721 11.617606,0.615662 14.807871,5.436482 2.184047,3.300311 2.434744,8.600964 0.571746,12.088813 -4.373223,8.187211 -16.364531,8.012773 -19.533145,-0.284134 -1.838779,-4.814743 0.289873,-9.836279 4.919004,-11.604186 4.69457,-1.792857 9.626376,1.079519 10.172523,5.924655 0.229879,2.040133 0.04176,2.693178 -1.203052,4.172368 -2.688085,3.19464 -7.095808,2.825573 -8.715743,-0.729773 -0.859807,-1.887145 -0.216662,-2.245955 1.543599,-0.861287 1.861127,1.463983 3.237301,1.482624 4.656808,0.06299 1.460009,-1.459991 1.397177,-2.919593 -0.205818,-4.783113 -2.982383,-3.467268 -8.757524,-0.650358 -8.866538,4.324731 -0.06145,2.810343 1.292807,4.980184 3.900375,6.248824 6.60796,3.214865 13.908597,-4.037798 11.222104,-11.148278 -0.740362,-1.959469 -3.063721,-4.439433 -5.207379,-5.558252 -4.331032,-2.260527 -10.964413,-0.171985 -13.994016,4.405997 -1.263318,1.909042 -1.508932,2.879122 -1.508932,5.959852 0,3.130332 0.24997,4.083978 1.674296,6.38773 1.03919,1.680899 2.702387,3.343102 4.384841,4.382316 2.362529,1.459267 3.213161,1.671534 6.623945,1.652659 8.07802,-0.04415 13.619487,-5.227939 15.292112,-14.303708 1.18501,-6.429807 -1.160125,-13.730824 -5.885594,-18.323456 -1.685174,-1.637796 -2.450495,-2.840334 -2.450495,-3.85036 0,-1.685839 -0.894737,-3.608895 -1.679102,-3.608895 -0.301123,0 -0.533742,2.055452 -0.533742,4.715951 v 4.715941 l 2.489454,1.503696 c 2.730399,1.649247 3.365326,3.447991 1.217064,3.447991 -0.69981,0 -1.549191,-0.276809 -1.887522,-0.615149 -0.338356,-0.338329 -2.19299,-1.158454 -4.121431,-1.822503 -3.583353,-1.233934 -4.656213,-2.654569 -2.261607,-2.994649 1.070801,-0.152095 1.244722,-0.509735 1.244722,-2.559266 v -2.382463 l -3.093581,-0.256562 c -3.483249,-0.288861 -4.077303,-0.854107 -4.089706,-3.891267 -0.0065,-1.140972 -0.226853,-2.07455 -0.493927,-2.07455 -1.239726,0 -1.947303,2.07009 -2.172181,6.355153 -0.236683,4.509137 -0.212241,4.618877 1.06375,4.800205 2.518786,0.357852 1.891591,2.004099 -1.301518,3.416239 -1.634967,0.723028 -3.893522,2.123171 -5.019042,3.111379 -2.046523,1.796883 -3.703043,1.949603 -3.703043,0.341384 0,-0.450823 1.120259,-1.756077 2.489448,-2.900583 2.454252,-2.051494 2.489492,-2.12898 2.489492,-5.477845 0,-4.227099 -1.40096,-6.56674 -5.110283,-8.534538 l -2.597729,-1.378079 -2.402853,2.358237 -2.402897,2.358261 -11.031088,-0.150557 C 34.418685,53.530461 34.35318,53.522501 34.177492,52.284855 L 34.00062,51.04013 h 8.545556 c 6.921159,0 8.676501,-0.15786 9.234254,-0.829836 0.607824,-0.73237 -0.480443,-0.829824 -9.269139,-0.829824 -7.302402,0 -10.111217,-0.185041 -10.532962,-0.692914 -0.629735,-0.758805 -0.03405,-5.060057 1.079116,-7.789324 1.781232,-4.195915 4.760028,-8.15353 8.325541,-11.099167 3.029271,-2.502596 11.839124,-5.386623 13.963951,-4.571225 0.683898,0.262437 0.859232,1.292677 0.859232,5.049375 0,2.595846 0.199187,4.719698 0.442552,4.719698 1.085901,0 1.770287,-1.531591 1.770287,-3.961807 0,-2.627042 0.0088,-2.635872 2.351164,-3.291426 3.647467,-1.019748 12.20244,-0.741356 17.169951,0.558791 13.665824,3.576696 23.645837,13.140002 27.011177,25.883265 1.52846,5.787722 1.65615,15.143611 0.27037,19.81277 -2.53755,8.54989 -8.040238,15.360382 -15.06799,18.649023 -2.937564,1.37465 -4.5877,1.77172 -7.904103,1.90187 -2.305313,0.0906 -4.815455,-0.04 -5.5781,-0.28979 z M 59.551126,60.7889 c -0.479206,-1.260379 -0.869735,-1.412351 -4.012441,-1.56157 -3.130148,-0.148785 -3.499388,-0.290957 -3.658343,-1.410067 -0.168237,-1.185791 5.54e-4,-1.244725 3.57261,-1.244725 3.557222,0 3.853662,-0.102125 5.785801,-1.988602 1.761024,-1.719575 2.194444,-1.903969 3.204315,-1.363552 1.593076,0.85258 1.471881,1.602755 -0.60537,3.745838 -1.085371,1.11989 -1.782756,2.413649 -1.797944,3.335487 -0.0336,2.044514 -1.767503,2.383903 -2.488628,0.487191 z"
       id="path4183-3" />
  </g>
</svg>
