<?xml version="1.0" encoding="UTF-8" standalone="no"?>
<!-- Created with Inkscape (http://www.inkscape.org/) -->

<svg
   xmlns:osb="http://www.openswatchbook.org/uri/2009/osb"
   xmlns:dc="http://purl.org/dc/elements/1.1/"
   xmlns:cc="http://creativecommons.org/ns#"
   xmlns:rdf="http://www.w3.org/1999/02/22-rdf-syntax-ns#"
   xmlns:svg="http://www.w3.org/2000/svg"
   xmlns="http://www.w3.org/2000/svg"
   xmlns:xlink="http://www.w3.org/1999/xlink"
   xmlns:sodipodi="http://sodipodi.sourceforge.net/DTD/sodipodi-0.dtd"
   xmlns:inkscape="http://www.inkscape.org/namespaces/inkscape"
   width="128"
   height="128"
   viewBox="0 0 33.866666 33.866668"
   version="1.1"
   id="svg8"
   inkscape:version="0.92.2 5c3e80d, 2017-08-06"
   sodipodi:docname="fbreader.svg">
  <defs
     id="defs2">
    <linearGradient
       inkscape:collect="always"
       id="linearGradient1205">
      <stop
         style="stop-color:#e12243;stop-opacity:1"
         offset="0"
         id="stop1201" />
      <stop
         style="stop-color:#df2243;stop-opacity:1"
         offset="1"
         id="stop1203" />
    </linearGradient>
    <linearGradient
       osb:paint="solid"
       id="linearGradient6987">
      <stop
         id="stop6985"
         offset="0"
         style="stop-color:#77d2fb;stop-opacity:1;" />
    </linearGradient>
    <linearGradient
       y2="71.020111"
       x2="84.091423"
       y1="117.04197"
       x1="122.34071"
       gradientUnits="userSpaceOnUse"
       id="linearGradient948"
       xlink:href="#linearGradient944"
       inkscape:collect="always"
       gradientTransform="matrix(0.26458333,0,0,0.26458333,-57.71897,262.24419)" />
    <linearGradient
       id="linearGradient944"
       inkscape:collect="always">
      <stop
         id="stop940"
         offset="0"
         style="stop-color:#d5dada;stop-opacity:1" />
      <stop
         id="stop942"
         offset="1"
         style="stop-color:#f1f1f1;stop-opacity:1" />
    </linearGradient>
    <linearGradient
       x1="45.447727"
       y1="92.539597"
       x2="45.447727"
       y2="7.0165396"
       id="ButtonShadow"
       gradientUnits="userSpaceOnUse"
       gradientTransform="matrix(1.0058652,0,0,0.994169,2548.5715,-34.051766)">
      <stop
         id="stop3750"
         style="stop-color:#000000;stop-opacity:1"
         offset="0" />
      <stop
         id="stop3752"
         style="stop-color:#000000;stop-opacity:0.58823532"
         offset="1" />
    </linearGradient>
    <linearGradient
       id="linearGradient3737">
      <stop
         id="stop3739"
         style="stop-color:#ffffff;stop-opacity:1"
         offset="0" />
      <stop
         id="stop3741"
         style="stop-color:#ffffff;stop-opacity:0"
         offset="1" />
    </linearGradient>
    <filter
       style="color-interpolation-filters:sRGB"
       id="filter3174">
      <feGaussianBlur
         id="feGaussianBlur3176"
         stdDeviation="1.71" />
    </filter>
    <filter
       style="color-interpolation-filters:sRGB"
       x="-0.192"
       y="-0.192"
       width="1.3839999"
       height="1.3839999"
       id="filter3794">
      <feGaussianBlur
         id="feGaussianBlur3796"
         stdDeviation="5.28" />
    </filter>
    <linearGradient
       gradientTransform="translate(2548.5715,-34.051766)"
       x1="48"
       y1="20.220806"
       x2="48"
       y2="138.66119"
       id="linearGradient3613"
       xlink:href="#linearGradient3737"
       gradientUnits="userSpaceOnUse" />
    <clipPath
       id="clipPath3613">
      <rect
         width="84"
         height="84"
         rx="6"
         ry="6"
         x="6"
         y="6"
         id="rect3615"
         style="fill:#ffffff;fill-opacity:1;fill-rule:nonzero;stroke:none" />
    </clipPath>
    <linearGradient
       y2="71.020111"
       x2="84.091423"
       y1="117.04197"
       x1="122.34071"
       gradientUnits="userSpaceOnUse"
       id="linearGradient948-2"
       xlink:href="#linearGradient944"
       inkscape:collect="always"
       gradientTransform="matrix(0.26458333,0,0,0.26458333,-85.492075,256.99651)" />
    <linearGradient
       inkscape:collect="always"
       xlink:href="#linearGradient1205"
       id="linearGradient1207"
       x1="264.7305"
       y1="27.053375"
       x2="293.38857"
       y2="27.053375"
       gradientUnits="userSpaceOnUse" />
  </defs>
  <sodipodi:namedview
     id="base"
     pagecolor="#ffffff"
     bordercolor="#666666"
     borderopacity="1.0"
     inkscape:pageopacity="0.0"
     inkscape:pageshadow="2"
     inkscape:zoom="0.36563776"
     inkscape:cx="306.6077"
     inkscape:cy="0.30841941"
     inkscape:document-units="mm"
     inkscape:current-layer="layer1"
     showgrid="false"
     units="px"
     inkscape:window-width="1600"
     inkscape:window-height="803"
     inkscape:window-x="0"
     inkscape:window-y="0"
     inkscape:window-maximized="1" />
  <metadata
     id="metadata5">
    <rdf:RDF>
      <cc:Work
         rdf:about="">
        <dc:format>image/svg+xml</dc:format>
        <dc:type
           rdf:resource="http://purl.org/dc/dcmitype/StillImage" />
        <dc:title />
      </cc:Work>
    </rdf:RDF>
  </metadata>
  <g
     inkscape:label="Layer 1"
     inkscape:groupmode="layer"
     id="layer1"
     transform="translate(0,-263.13332)">
    <path
       inkscape:connector-curvature="0"
       d=""
       style="opacity:1;fill:url(#linearGradient948);fill-opacity:1;stroke:none;stroke-width:0.57240593;stroke-linecap:round;stroke-linejoin:round;stroke-miterlimit:4;stroke-dasharray:none;stroke-dashoffset:0;stroke-opacity:0.03831416;paint-order:fill markers stroke"
       id="path864"
       r="28.431282"
       cy="97.610519"
       cx="103.31834" />
    <g
       id="layer2"
       style="display:none"
       transform="matrix(0.26458333,0,0,0.26458333,-440.37336,228.6677)">
      <rect
         width="86"
         height="85"
         rx="6"
         ry="6"
         x="5"
         y="7"
         id="rect3745"
         style="opacity:0.9;fill:url(#ButtonShadow);fill-opacity:1;fill-rule:nonzero;stroke:none;filter:url(#filter3174)" />
    </g>
    <g
       id="layer5"
       style="display:none"
       transform="matrix(0.26458333,0,0,0.26458333,-440.37336,228.6677)">
      <rect
         width="66"
         height="66"
         rx="12"
         ry="12"
         x="15"
         y="15"
         clip-path="url(#clipPath3613)"
         id="rect3171"
         style="opacity:0.1;fill:url(#linearGradient3613);fill-opacity:1;fill-rule:nonzero;stroke:#ffffff;stroke-width:0.5;stroke-linecap:round;stroke-linejoin:miter;stroke-miterlimit:4;stroke-dasharray:none;stroke-dashoffset:0;stroke-opacity:1;filter:url(#filter3794)" />
    </g>
    <path
       inkscape:connector-curvature="0"
       d=""
       style="opacity:1;fill:url(#linearGradient948-2);fill-opacity:1;stroke:none;stroke-width:0.57240593;stroke-linecap:round;stroke-linejoin:round;stroke-miterlimit:4;stroke-dasharray:none;stroke-dashoffset:0;stroke-opacity:0.03831416;paint-order:fill markers stroke"
       id="path864-5"
       r="28.431282"
       cy="97.610519"
       cx="103.31834" />
    <rect
       transform="rotate(81)"
       ry="2.0474997"
       y="15.595513"
       x="265.3418"
       height="23.07823"
       width="28.46172"
       id="rect959"
       style="opacity:0.25;fill:#000000;fill-opacity:1;fill-rule:nonzero;stroke:none;stroke-width:0.19635165;stroke-linecap:round;stroke-linejoin:round;stroke-miterlimit:4;stroke-dasharray:none;stroke-dashoffset:0;stroke-opacity:1;paint-order:markers fill stroke" />
    <rect
       style="opacity:1;fill:url(#linearGradient1207);fill-opacity:1;fill-rule:nonzero;stroke:#28334c;stroke-width:0.19635165;stroke-linecap:round;stroke-linejoin:round;stroke-miterlimit:4;stroke-dasharray:none;stroke-dashoffset:0;stroke-opacity:1;paint-order:markers fill stroke"
       id="rect908"
       width="28.46172"
       height="23.07823"
       x="264.82867"
       y="15.51426"
       ry="2.0474997"
       transform="rotate(81)" />
    <path
       style="opacity:1;fill:#28334c;fill-opacity:1;fill-rule:nonzero;stroke:#28334c;stroke-width:0.2;stroke-linecap:round;stroke-linejoin:round;stroke-miterlimit:4;stroke-dasharray:none;stroke-dashoffset:0;stroke-opacity:1;paint-order:markers fill stroke"
       d="m 7.560625,266.93235 -2.227364,0.35279 c -1.1203438,0.17744 -1.8793905,1.2222 -1.7019463,2.34254 l 3.8117534,24.06673 c 0.1774437,1.12036 1.2222894,1.8794 2.342643,1.70196 L 12.13392,295.0245 Z"
       id="rect918"
       inkscape:connector-curvature="0" />
    <g
       transform="matrix(0.10986071,-0.01740023,0.01740023,0.10986071,-0.7090493,267.9225)"
       id="g1229"
       style="opacity:0.25;isolation:isolate;fill:#000000;fill-opacity:1">
      <path
         id="path1227"
         d="m 183.838,82.37 c -0.066,0.158 -0.13,0.301 -0.222,0.432 -0.314,0.483 -0.64,0.954 -1.006,1.398 -1.417,1.678518 -2.87647,3.320716 -4.377,4.925 -2.15995,2.318914 -4.36368,4.596657 -6.61,6.832 -2.24272,2.251634 -4.51154,4.47712 -6.806,6.676 -2.59468,2.49255 -5.21179,4.96165 -7.851,7.407 -2.64,2.443 -5.304,4.86 -7.97,7.276 -2.80585,2.51279 -5.62723,5.00817 -8.464,7.486 -5.3594,4.69938 -10.74615,9.36746 -16.16,14.004 -2.5441,2.18976 -5.09144,4.37576 -7.642,6.558 -1.986,1.698 -3.972,3.396 -5.97,5.095 -1.98871,1.69635 -3.98339,3.38569 -5.984,5.068 -1.03312,0.86188 -2.06946,1.71988 -3.109,2.574 -0.6,0.496 -1.24,0.954 -1.907,1.359 -0.61587,0.3622 -1.26316,0.66811 -1.934,0.914 -0.666,0.248 -1.358,0.431 -2.064,0.562 -0.757,0.117 -1.515,0.196 -2.273,0.196 -0.314948,3e-5 -0.629354,0.0261 -0.94,0.078 -0.268447,0.0403 -0.526147,0.13381 -0.758,0.275 -0.182798,0.10083 -0.346318,0.2332 -0.483,0.391 -0.314239,0.3391 -0.474847,0.79271 -0.444,1.254 0,0.21 0.039,0.406 0.104,0.601 0.166411,0.48654 0.454143,0.92261 0.836,1.267 0.21,0.17 0.418,0.314 0.666,0.432 0.275,0.117 0.575,0.209 0.876,0.261 4.493,0.13 8.987,0.444 13.455,0.94 4.546,0.51 9.08,1.202 13.573,2.078 4.533,0.888 9.054,1.803 13.574,2.756 4.258,0.902 8.504,1.842 12.737,2.822 8.0917,1.87104 16.20003,3.66944 24.324,5.395 3.88,0.823 7.8,1.463 11.744,1.908 3.28298,0.38026 6.58507,0.57191 9.89,0.574 2.01631,-0.002 4.02655,-0.22084 5.996,-0.653 1.541,-0.34 3.03,-0.901 4.429,-1.672 1.34388,-0.74301 2.64372,-1.56304 3.893,-2.456 1.64188,-1.18498 3.22855,-2.44463 4.755,-3.775 1.08285,-0.93921 2.10397,-1.9473 3.057,-3.018 0.67329,-0.73492 1.27657,-1.53104 1.802,-2.378 0.523,-0.836 0.967,-1.724 1.307,-2.652 0.23822,-0.62619 0.36218,-1.29004 0.366,-1.96 0,-0.273 -0.027,-0.56 -0.053,-0.848 -0.0257,-0.2189 -0.078,-0.43384 -0.156,-0.64 -0.0619,-0.16696 -0.14565,-0.32499 -0.249,-0.47 -0.13,-0.184 -0.3,-0.34 -0.496,-0.458 -0.25913,-0.14431 -0.55384,-0.21227 -0.85,-0.196 -0.234,0.013 -0.47,0.065 -0.679,0.183 -0.39281,0.19097 -0.72661,0.48468 -0.966,0.85 -0.275,0.417 -0.51,0.874 -0.667,1.358 -0.30274,0.84955 -0.66016,1.67862 -1.07,2.482 -0.35251,0.69018 -0.75456,1.35392 -1.203,1.986 -0.4182,0.57926 -0.91,1.10165 -1.463,1.554 -0.7408,0.60323 -1.54168,1.12866 -2.39,1.568 -0.86584,0.445 -1.77147,0.80791 -2.705,1.084 -1.49137,0.44542 -3.00983,0.79447 -4.546,1.045 -1.55432,0.25024 -3.1193,0.42909 -4.69,0.536 -2.39,0.157 -4.768,0.235 -7.145,0.235 -3.044,0 -6.088,-0.105 -9.119,-0.3 -3.54827,-0.22394 -7.08964,-0.5464 -10.62,-0.967 -3.54643,-0.42801 -7.08707,-0.90272 -10.621,-1.424 -3.33516,-0.48368 -6.66257,-1.01941 -9.981,-1.607 -3.31816,-0.58597 -6.62814,-1.21737 -9.929,-1.894 -2.71819,-0.56036 -5.4269,-1.16577 -8.125,-1.816 -2.7034,-0.65249 -5.40343,-1.31883 -8.1,-1.999 -1.4229,-0.35617 -2.8423,-0.72619 -4.258,-1.11 -0.18976,-0.0623 -0.37378,-0.14097 -0.55,-0.235 -0.0775,-0.0406 -0.14775,-0.0936 -0.208,-0.157 -0.0369,-0.0254 -0.0643,-0.0624 -0.078,-0.105 0.19291,-0.40211 0.42008,-0.78686 0.679,-1.15 2.782,-2.9 5.591,-5.773 8.452,-8.595 3.76402,-3.73569 7.57026,-7.42859 11.418,-11.078 3.854,-3.658 7.72,-7.29 11.6,-10.908 3.893,-3.632 7.786,-7.238 11.705,-10.83 3.92,-3.593 7.852,-7.172 11.784,-10.739 3.475,-3.161 6.95,-6.296 10.45,-9.432 3.489,-3.135 6.99,-6.244 10.517,-9.353 2.19667,-1.933625 4.40874,-3.849686 6.636,-5.748 0.327,-0.314 0.654,-0.627 0.98,-0.915 0.353,-0.3 0.706,-0.588 1.084,-0.862 0.31897,-0.245147 0.6605,-0.459443 1.02,-0.64 0.18184,-0.09039 0.37485,-0.156292 0.574,-0.196 0.288,-0.04 0.562,-0.118 0.836,-0.209 0.262,-0.091 0.51,-0.222 0.732,-0.392 0.2747,-0.200987 0.50203,-0.45972 0.666,-0.758 0.17,-0.3 0.274,-0.627 0.314,-0.98 0.013,-0.208 0,-0.43 -0.04,-0.64 -0.0455,-0.223779 -0.13381,-0.436671 -0.26,-0.627 -0.12033,-0.196191 -0.27556,-0.3687 -0.458,-0.509 -0.16721,-0.13356 -0.35193,-0.243583 -0.549,-0.327 -0.25767,-0.115847 -0.53033,-0.194952 -0.81,-0.235 -0.34619,-0.04806 -0.69552,-0.06979 -1.045,-0.065 -0.405,-0.013 -0.81,0 -1.202,0 -1.502,0.026 -3.004,0.065 -4.52,0.091 -1.502,0.04 -2.991,0.066 -4.494,0.092 -1.96,0.039 -3.919,0.078 -5.878,0.104 l -5.892,0.118 c -2.195,0.052 -4.376,0.117 -6.571,0.183 -2.182,0.065 -4.363,0.104 -6.545,0.144 -1.76314,0.03259 -3.52658,0.04559 -5.29,0.039 -3.005,0.078 -6.023,0.143 -9.028,0.222 l -8.922,0.274 c -2.992,0.105 -5.97,0.235 -8.949,0.405 -2.247,0.118 -4.494,0.287 -6.74,0.483 -0.53285,0.0802 -1.05756,0.207365 -1.568,0.38 -0.43667,0.153007 -0.8568,0.349669 -1.254,0.587 -0.36766,0.223234 -0.7097,0.486141 -1.02,0.784 -0.30911,0.295529 -0.58477,0.624173 -0.822,0.98 -0.40817,0.624791 -0.7918,1.265279 -1.15,1.92 -0.63483,1.180387 -1.23607,2.378535 -1.803,3.593 -0.013,0.313 0,0.64 0.04,0.953 0.012,0.196 0.052,0.38 0.117,0.549 0.091,0.3 0.274,0.588 0.496,0.81 0.275,0.274 0.627,0.444 1.006,0.483 0.42525,0.03643 0.851,-0.06414 1.215,-0.287 0.39408,-0.249645 0.76195,-0.538443 1.098,-0.862 0.68004,-0.628307 1.43991,-1.164255 2.26,-1.594 1.24488,-0.66176 2.54763,-1.208366 3.892,-1.633 1.38525,-0.443583 2.79409,-0.809815 4.22,-1.097 1.76274,-0.354788 3.54144,-0.625096 5.33,-0.81 2.665,-0.327 5.33,-0.588 7.995,-0.797 3.606,-0.288 7.211,-0.51 10.83,-0.666 3.605,-0.17 7.224,-0.288 10.843,-0.38 3.318,-0.078 6.636,-0.117 9.967,-0.117 0.523,0.013 1.045,0.04 1.555,0.092 0.248,0.026 0.496,0.078 0.745,0.156 0.09,0.026 0.17,0.066 0.26,0.105 z"
         inkscape:connector-curvature="0"
         style="fill:#000000;fill-opacity:1" />
    </g>
    <g
       style="opacity:1;isolation:isolate;fill:#eff1f4;fill-opacity:1"
       id="g1138"
       transform="matrix(0.10986071,-0.01740023,0.01740023,0.10986071,-0.7090493,267.39333)">
      <path
         style="fill:#eff1f4;fill-opacity:1"
         inkscape:connector-curvature="0"
         d="m 183.838,82.37 c -0.066,0.158 -0.13,0.301 -0.222,0.432 -0.314,0.483 -0.64,0.954 -1.006,1.398 -1.417,1.678518 -2.87647,3.320716 -4.377,4.925 -2.15995,2.318914 -4.36368,4.596657 -6.61,6.832 -2.24272,2.251634 -4.51154,4.47712 -6.806,6.676 -2.59468,2.49255 -5.21179,4.96165 -7.851,7.407 -2.64,2.443 -5.304,4.86 -7.97,7.276 -2.80585,2.51279 -5.62723,5.00817 -8.464,7.486 -5.3594,4.69938 -10.74615,9.36746 -16.16,14.004 -2.5441,2.18976 -5.09144,4.37576 -7.642,6.558 -1.986,1.698 -3.972,3.396 -5.97,5.095 -1.98871,1.69635 -3.98339,3.38569 -5.984,5.068 -1.03312,0.86188 -2.06946,1.71988 -3.109,2.574 -0.6,0.496 -1.24,0.954 -1.907,1.359 -0.61587,0.3622 -1.26316,0.66811 -1.934,0.914 -0.666,0.248 -1.358,0.431 -2.064,0.562 -0.757,0.117 -1.515,0.196 -2.273,0.196 -0.314948,3e-5 -0.629354,0.0261 -0.94,0.078 -0.268447,0.0403 -0.526147,0.13381 -0.758,0.275 -0.182798,0.10083 -0.346318,0.2332 -0.483,0.391 -0.314239,0.3391 -0.474847,0.79271 -0.444,1.254 0,0.21 0.039,0.406 0.104,0.601 0.166411,0.48654 0.454143,0.92261 0.836,1.267 0.21,0.17 0.418,0.314 0.666,0.432 0.275,0.117 0.575,0.209 0.876,0.261 4.493,0.13 8.987,0.444 13.455,0.94 4.546,0.51 9.08,1.202 13.573,2.078 4.533,0.888 9.054,1.803 13.574,2.756 4.258,0.902 8.504,1.842 12.737,2.822 8.0917,1.87104 16.20003,3.66944 24.324,5.395 3.88,0.823 7.8,1.463 11.744,1.908 3.28298,0.38026 6.58507,0.57191 9.89,0.574 2.01631,-0.002 4.02655,-0.22084 5.996,-0.653 1.541,-0.34 3.03,-0.901 4.429,-1.672 1.34388,-0.74301 2.64372,-1.56304 3.893,-2.456 1.64188,-1.18498 3.22855,-2.44463 4.755,-3.775 1.08285,-0.93921 2.10397,-1.9473 3.057,-3.018 0.67329,-0.73492 1.27657,-1.53104 1.802,-2.378 0.523,-0.836 0.967,-1.724 1.307,-2.652 0.23822,-0.62619 0.36218,-1.29004 0.366,-1.96 0,-0.273 -0.027,-0.56 -0.053,-0.848 -0.0257,-0.2189 -0.078,-0.43384 -0.156,-0.64 -0.0619,-0.16696 -0.14565,-0.32499 -0.249,-0.47 -0.13,-0.184 -0.3,-0.34 -0.496,-0.458 -0.25913,-0.14431 -0.55384,-0.21227 -0.85,-0.196 -0.234,0.013 -0.47,0.065 -0.679,0.183 -0.39281,0.19097 -0.72661,0.48468 -0.966,0.85 -0.275,0.417 -0.51,0.874 -0.667,1.358 -0.30274,0.84955 -0.66016,1.67862 -1.07,2.482 -0.35251,0.69018 -0.75456,1.35392 -1.203,1.986 -0.4182,0.57926 -0.91,1.10165 -1.463,1.554 -0.7408,0.60323 -1.54168,1.12866 -2.39,1.568 -0.86584,0.445 -1.77147,0.80791 -2.705,1.084 -1.49137,0.44542 -3.00983,0.79447 -4.546,1.045 -1.55432,0.25024 -3.1193,0.42909 -4.69,0.536 -2.39,0.157 -4.768,0.235 -7.145,0.235 -3.044,0 -6.088,-0.105 -9.119,-0.3 -3.54827,-0.22394 -7.08964,-0.5464 -10.62,-0.967 -3.54643,-0.42801 -7.08707,-0.90272 -10.621,-1.424 -3.33516,-0.48368 -6.66257,-1.01941 -9.981,-1.607 -3.31816,-0.58597 -6.62814,-1.21737 -9.929,-1.894 -2.71819,-0.56036 -5.4269,-1.16577 -8.125,-1.816 -2.7034,-0.65249 -5.40343,-1.31883 -8.1,-1.999 -1.4229,-0.35617 -2.8423,-0.72619 -4.258,-1.11 -0.18976,-0.0623 -0.37378,-0.14097 -0.55,-0.235 -0.0775,-0.0406 -0.14775,-0.0936 -0.208,-0.157 -0.0369,-0.0254 -0.0643,-0.0624 -0.078,-0.105 0.19291,-0.40211 0.42008,-0.78686 0.679,-1.15 2.782,-2.9 5.591,-5.773 8.452,-8.595 3.76402,-3.73569 7.57026,-7.42859 11.418,-11.078 3.854,-3.658 7.72,-7.29 11.6,-10.908 3.893,-3.632 7.786,-7.238 11.705,-10.83 3.92,-3.593 7.852,-7.172 11.784,-10.739 3.475,-3.161 6.95,-6.296 10.45,-9.432 3.489,-3.135 6.99,-6.244 10.517,-9.353 2.19667,-1.933625 4.40874,-3.849686 6.636,-5.748 0.327,-0.314 0.654,-0.627 0.98,-0.915 0.353,-0.3 0.706,-0.588 1.084,-0.862 0.31897,-0.245147 0.6605,-0.459443 1.02,-0.64 0.18184,-0.09039 0.37485,-0.156292 0.574,-0.196 0.288,-0.04 0.562,-0.118 0.836,-0.209 0.262,-0.091 0.51,-0.222 0.732,-0.392 0.2747,-0.200987 0.50203,-0.45972 0.666,-0.758 0.17,-0.3 0.274,-0.627 0.314,-0.98 0.013,-0.208 0,-0.43 -0.04,-0.64 -0.0455,-0.223779 -0.13381,-0.436671 -0.26,-0.627 -0.12033,-0.196191 -0.27556,-0.3687 -0.458,-0.509 -0.16721,-0.13356 -0.35193,-0.243583 -0.549,-0.327 -0.25767,-0.115847 -0.53033,-0.194952 -0.81,-0.235 -0.34619,-0.04806 -0.69552,-0.06979 -1.045,-0.065 -0.405,-0.013 -0.81,0 -1.202,0 -1.502,0.026 -3.004,0.065 -4.52,0.091 -1.502,0.04 -2.991,0.066 -4.494,0.092 -1.96,0.039 -3.919,0.078 -5.878,0.104 l -5.892,0.118 c -2.195,0.052 -4.376,0.117 -6.571,0.183 -2.182,0.065 -4.363,0.104 -6.545,0.144 -1.76314,0.03259 -3.52658,0.04559 -5.29,0.039 -3.005,0.078 -6.023,0.143 -9.028,0.222 l -8.922,0.274 c -2.992,0.105 -5.97,0.235 -8.949,0.405 -2.247,0.118 -4.494,0.287 -6.74,0.483 -0.53285,0.0802 -1.05756,0.207365 -1.568,0.38 -0.43667,0.153007 -0.8568,0.349669 -1.254,0.587 -0.36766,0.223234 -0.7097,0.486141 -1.02,0.784 -0.30911,0.295529 -0.58477,0.624173 -0.822,0.98 -0.40817,0.624791 -0.7918,1.265279 -1.15,1.92 -0.63483,1.180387 -1.23607,2.378535 -1.803,3.593 -0.013,0.313 0,0.64 0.04,0.953 0.012,0.196 0.052,0.38 0.117,0.549 0.091,0.3 0.274,0.588 0.496,0.81 0.275,0.274 0.627,0.444 1.006,0.483 0.42525,0.03643 0.851,-0.06414 1.215,-0.287 0.39408,-0.249645 0.76195,-0.538443 1.098,-0.862 0.68004,-0.628307 1.43991,-1.164255 2.26,-1.594 1.24488,-0.66176 2.54763,-1.208366 3.892,-1.633 1.38525,-0.443583 2.79409,-0.809815 4.22,-1.097 1.76274,-0.354788 3.54144,-0.625096 5.33,-0.81 2.665,-0.327 5.33,-0.588 7.995,-0.797 3.606,-0.288 7.211,-0.51 10.83,-0.666 3.605,-0.17 7.224,-0.288 10.843,-0.38 3.318,-0.078 6.636,-0.117 9.967,-0.117 0.523,0.013 1.045,0.04 1.555,0.092 0.248,0.026 0.496,0.078 0.745,0.156 0.09,0.026 0.17,0.066 0.26,0.105 z"
         id="path1136" />
    </g>
  </g>
</svg>
