<?xml version="1.0" encoding="UTF-8" standalone="no"?>
<!-- Created with Inkscape (http://www.inkscape.org/) -->

<svg
   xmlns:dc="http://purl.org/dc/elements/1.1/"
   xmlns:cc="http://creativecommons.org/ns#"
   xmlns:rdf="http://www.w3.org/1999/02/22-rdf-syntax-ns#"
   xmlns:svg="http://www.w3.org/2000/svg"
   xmlns="http://www.w3.org/2000/svg"
   xmlns:xlink="http://www.w3.org/1999/xlink"
   xmlns:sodipodi="http://sodipodi.sourceforge.net/DTD/sodipodi-0.dtd"
   xmlns:inkscape="http://www.inkscape.org/namespaces/inkscape"
   version="1.1"
   id="svg2"
   width="128"
   height="128"
   viewBox="0 0 128 128"
   sodipodi:docname="zotero.svg"
   inkscape:version="0.92.2 5c3e80d, 2017-08-06">
  <metadata
     id="metadata8">
    <rdf:RDF>
      <cc:Work
         rdf:about="">
        <dc:format>image/svg+xml</dc:format>
        <dc:type
           rdf:resource="http://purl.org/dc/dcmitype/StillImage" />
        <dc:title></dc:title>
      </cc:Work>
    </rdf:RDF>
  </metadata>
  <defs
     id="defs6">
    <linearGradient
       inkscape:collect="always"
       id="linearGradient1476">
      <stop
         style="stop-color:#ffebf2;stop-opacity:1"
         offset="0"
         id="stop1472" />
      <stop
         style="stop-color:#f8d5db;stop-opacity:1"
         offset="1"
         id="stop1474" />
    </linearGradient>
    <linearGradient
       inkscape:collect="always"
       id="linearGradient4313">
      <stop
         style="stop-color:#d51227;stop-opacity:1"
         offset="0"
         id="stop4315" />
      <stop
         style="stop-color:#d94497;stop-opacity:1"
         offset="1"
         id="stop4317" />
    </linearGradient>
    <linearGradient
       inkscape:collect="always"
       xlink:href="#linearGradient4313"
       id="linearGradient4319"
       x1="66.280823"
       y1="128.61551"
       x2="64.943542"
       y2="16.578243"
       gradientUnits="userSpaceOnUse"
       gradientTransform="matrix(0.9371848,0,0,0.9371848,-0.62191858,-0.07150095)" />
    <linearGradient
       inkscape:collect="always"
       xlink:href="#linearGradient1476"
       id="linearGradient1478"
       x1="-44.065762"
       y1="37.012497"
       x2="-42.155891"
       y2="101.47041"
       gradientUnits="userSpaceOnUse"
       gradientTransform="matrix(1.0468592,0,0,1.0468592,106.94416,-8.7984528)" />
  </defs>
  <sodipodi:namedview
     pagecolor="#ffffff"
     bordercolor="#666666"
     borderopacity="1"
     objecttolerance="10"
     gridtolerance="10"
     guidetolerance="10"
     inkscape:pageopacity="0"
     inkscape:pageshadow="2"
     inkscape:window-width="1600"
     inkscape:window-height="803"
     id="namedview4"
     showgrid="false"
     inkscape:zoom="1.1847658"
     inkscape:cx="-9.6886949"
     inkscape:cy="42.559073"
     inkscape:window-x="0"
     inkscape:window-y="0"
     inkscape:window-maximized="1"
     inkscape:current-layer="svg2"
     showguides="false" />
  <path
     style="fill:#000000;stroke-width:1.33333337"
     d=""
     id="path849"
     inkscape:connector-curvature="0" />
  <path
     style="fill:#000000;stroke-width:1.33333337"
     d=""
     id="path847"
     inkscape:connector-curvature="0" />
  <g
     id="g1494"
     transform="matrix(0.98056878,0,0,0.98056878,1.2436018,0.44833364)">
    <circle
       id="circle1486"
       cx="63.999996"
       cy="66"
       r="60"
       style="opacity:0.25;fill:#000000;fill-opacity:1;stroke:none;stroke-width:5.62310886;stroke-miterlimit:4;stroke-dasharray:none;stroke-opacity:1" />
    <circle
       style="fill:url(#linearGradient4319);fill-opacity:1;stroke:#800000;stroke-width:0.75590551;stroke-miterlimit:4;stroke-dasharray:none;stroke-opacity:1"
       r="60"
       cy="64"
       cx="63.999996"
       id="path12" />
    <path
       style="opacity:0.25;fill:#000000;fill-opacity:1;stroke-width:1.93004179"
       d="M 64.209215,27.402754 A 8.8117991,8.7776374 0 0 0 59.5952,28.571334 L 33.664044,43.483922 a 8.8117991,8.7776374 0 0 0 -4.402907,7.603309 V 80.91241 a 8.8117991,8.7776374 0 0 0 4.402907,7.599539 L 59.5952,103.42455 a 8.8117991,8.7776374 0 0 0 8.809598,0 L 94.332186,88.511949 a 8.8117991,8.7776374 0 0 0 4.40667,-7.599539 V 51.087231 a 8.8117991,8.7776374 0 0 0 -4.40667,-7.603309 L 68.404798,28.571334 a 8.8117991,8.7776374 0 0 0 -4.195583,-1.16858 z M 44.701472,42.839318 h 3.860083 30.88067 a 3.8604698,3.8604698 0 0 1 3.011908,6.272637 L 56.590819,81.440156 h 22.851406 3.860085 v 7.720168 h -3.860085 -30.88067 a 3.8604698,3.8604698 0 0 1 -3.01569,-6.272636 L 71.409178,50.559486 H 48.561555 44.701472 Z"
       id="path1488"
       inkscape:connector-curvature="0" />
    <path
       inkscape:connector-curvature="0"
       id="path827"
       d="M 64.209215,25.402754 A 8.8117991,8.7776374 0 0 0 59.5952,26.571334 L 33.664044,41.483922 a 8.8117991,8.7776374 0 0 0 -4.402907,7.603309 V 78.91241 a 8.8117991,8.7776374 0 0 0 4.402907,7.599539 L 59.5952,101.42455 a 8.8117991,8.7776374 0 0 0 8.809598,0 L 94.332186,86.511949 a 8.8117991,8.7776374 0 0 0 4.40667,-7.599539 V 49.087231 a 8.8117991,8.7776374 0 0 0 -4.40667,-7.603309 L 68.404798,26.571334 a 8.8117991,8.7776374 0 0 0 -4.195583,-1.16858 z M 44.701472,40.839318 h 3.860083 30.88067 a 3.8604698,3.8604698 0 0 1 3.011908,6.272637 L 56.590819,79.440156 h 22.851406 3.860085 v 7.720168 h -3.860085 -30.88067 a 3.8604698,3.8604698 0 0 1 -3.01569,-6.272636 L 71.409178,48.559486 H 48.561555 44.701472 Z"
       style="fill:url(#linearGradient1478);fill-opacity:1;stroke-width:1.93004179" />
  </g>
</svg>
