<?xml version="1.0" encoding="UTF-8" standalone="no"?>
<!-- Created with Inkscape (http://www.inkscape.org/) -->

<svg
   xmlns:osb="http://www.openswatchbook.org/uri/2009/osb"
   xmlns:dc="http://purl.org/dc/elements/1.1/"
   xmlns:cc="http://creativecommons.org/ns#"
   xmlns:rdf="http://www.w3.org/1999/02/22-rdf-syntax-ns#"
   xmlns:svg="http://www.w3.org/2000/svg"
   xmlns="http://www.w3.org/2000/svg"
   xmlns:xlink="http://www.w3.org/1999/xlink"
   xmlns:sodipodi="http://sodipodi.sourceforge.net/DTD/sodipodi-0.dtd"
   xmlns:inkscape="http://www.inkscape.org/namespaces/inkscape"
   width="128"
   height="128"
   viewBox="0 0 33.866666 33.866668"
   version="1.1"
   id="svg8"
   inkscape:version="0.92.1 r15371"
   sodipodi:docname="folder-publicshare.svg">
  <defs
     id="defs2">
    <linearGradient
       inkscape:collect="always"
       id="linearGradient4527">
      <stop
         style="stop-color:#54a6cc;stop-opacity:1"
         offset="0"
         id="stop4523" />
      <stop
         style="stop-color:#7cd4fa;stop-opacity:1"
         offset="1"
         id="stop4525" />
    </linearGradient>
    <linearGradient
       inkscape:collect="always"
       id="linearGradient4521">
      <stop
         style="stop-color:#54a6cc;stop-opacity:1"
         offset="0"
         id="stop4517" />
      <stop
         style="stop-color:#7cd4fa;stop-opacity:1"
         offset="1"
         id="stop4519" />
    </linearGradient>
    <linearGradient
       id="linearGradient1006"
       inkscape:collect="always">
      <stop
         id="stop1002"
         offset="0"
         style="stop-color:#54a6cc;stop-opacity:1" />
      <stop
         id="stop1004"
         offset="1"
         style="stop-color:#7cd4fa;stop-opacity:1" />
    </linearGradient>
    <linearGradient
       inkscape:collect="always"
       id="linearGradient7009">
      <stop
         style="stop-color:#63c4f2;stop-opacity:1"
         offset="0"
         id="stop7005" />
      <stop
         style="stop-color:#7cd4fa;stop-opacity:1"
         offset="1"
         id="stop7007" />
    </linearGradient>
    <linearGradient
       id="linearGradient6987"
       osb:paint="solid">
      <stop
         style="stop-color:#77d2fb;stop-opacity:1;"
         offset="0"
         id="stop6985" />
    </linearGradient>
    <linearGradient
       inkscape:collect="always"
       xlink:href="#linearGradient7009"
       id="linearGradient7011-3"
       x1="123.07384"
       y1="84.320671"
       x2="124.11147"
       y2="132.42918"
       gradientUnits="userSpaceOnUse"
       gradientTransform="matrix(0.23908729,0,0,0.24394553,-14.21359,250.56636)" />
    <linearGradient
       inkscape:collect="always"
       xlink:href="#linearGradient1006"
       id="linearGradient1033-6"
       x1="70.726562"
       y1="113.65864"
       x2="70.726562"
       y2="110.65087"
       gradientUnits="userSpaceOnUse"
       gradientTransform="matrix(0.24892812,0,0,0.2719635,1.0040953,261.55779)" />
    <linearGradient
       inkscape:collect="always"
       xlink:href="#linearGradient4527"
       id="linearGradient986-2"
       x1="60.902935"
       y1="111.36977"
       x2="60.902935"
       y2="107.45322"
       gradientUnits="userSpaceOnUse"
       gradientTransform="matrix(0.25042938,0,0,0.25198412,0.90403537,263.56437)" />
    <linearGradient
       inkscape:collect="always"
       xlink:href="#linearGradient4521"
       id="linearGradient994-9"
       x1="59.245655"
       y1="107.43008"
       x2="59.245655"
       y2="103.91254"
       gradientUnits="userSpaceOnUse"
       gradientTransform="matrix(0.25050053,0,0,0.25198412,0.90067442,263.56437)" />
    <linearGradient
       id="linearGradient6570"
       inkscape:collect="always">
      <stop
         id="stop6566"
         offset="0"
         style="stop-color:#51b1e3;stop-opacity:1" />
      <stop
         id="stop6568"
         offset="1"
         style="stop-color:#5cc0ee;stop-opacity:1" />
    </linearGradient>
    <linearGradient
       id="linearGradient6088"
       osb:paint="solid">
      <stop
         style="stop-color:#51b3e3;stop-opacity:1;"
         offset="0"
         id="stop6086" />
    </linearGradient>
    <linearGradient
       inkscape:collect="always"
       xlink:href="#linearGradient6570"
       id="linearGradient6564"
       x1="66.650986"
       y1="207.59541"
       x2="65.296364"
       y2="257.8244"
       gradientUnits="userSpaceOnUse"
       gradientTransform="matrix(0.24595216,0,0,0.24989424,0.54223091,222.79395)" />
  </defs>
  <sodipodi:namedview
     id="base"
     pagecolor="#ffffff"
     bordercolor="#666666"
     borderopacity="1.0"
     inkscape:pageopacity="0.0"
     inkscape:pageshadow="2"
     inkscape:zoom="2.828427"
     inkscape:cx="70.647973"
     inkscape:cy="41.098918"
     inkscape:document-units="mm"
     inkscape:current-layer="layer1"
     showgrid="false"
     inkscape:window-width="1366"
     inkscape:window-height="704"
     inkscape:window-x="0"
     inkscape:window-y="27"
     inkscape:window-maximized="1"
     units="px"
     showguides="false" />
  <metadata
     id="metadata5">
    <rdf:RDF>
      <cc:Work
         rdf:about="">
        <dc:format>image/svg+xml</dc:format>
        <dc:type
           rdf:resource="http://purl.org/dc/dcmitype/StillImage" />
        <dc:title />
      </cc:Work>
    </rdf:RDF>
  </metadata>
  <g
     inkscape:label="Layer 1"
     inkscape:groupmode="layer"
     id="layer1"
     transform="translate(0,-263.13331)">
    <path
       id="path1228"
       d="m 3.0223306,267.66851 c -1.0352391,0 -1.8687591,0.84338 -1.8687591,1.89128 v 2.26553 1.55276 0.74946 6.32353 1.51459 9.58213 0.68783 c 0,0.4616 0.3640705,0.83312 0.8164819,0.83312 h 0.6741229 28.5783157 0.674121 c 0.452412,0 0.816482,-0.37152 0.816482,-0.83312 v -0.68783 -9.58213 -1.51459 -7.07299 -1.55276 c 0,-0.87227 -0.693908,-1.57427 -1.555668,-1.57427 H 12.46201 c -0.923252,-0.0867 -0.963115,-2.29393 -2.5869109,-2.58254 z"
       style="opacity:0.25;fill:#000000;fill-opacity:1;stroke:none;stroke-width:0.19047619;stroke-miterlimit:4;stroke-dasharray:none;stroke-opacity:1"
       inkscape:connector-curvature="0" />
    <path
       inkscape:connector-curvature="0"
       style="fill:#97ddff;fill-opacity:1;stroke:#4891b2;stroke-width:0.2;stroke-miterlimit:4;stroke-dasharray:none;stroke-opacity:1"
       d="m 3.0223306,267.16454 c -1.0352391,0 -1.8687591,0.84337 -1.8687591,1.89128 v 2.26553 1.55275 0.74947 6.32352 1.51459 9.58214 0.68783 c 0,0.4616 0.3640705,0.83312 0.8164819,0.83312 h 0.6741229 28.5783157 0.674121 c 0.452412,0 0.816482,-0.37152 0.816482,-0.83312 v -0.68783 -9.58214 -1.51459 -7.07299 -1.55275 c 0,-0.87227 -0.693908,-1.57427 -1.555668,-1.57427 H 12.46201 c -0.923252,-0.0867 -0.963115,-2.29393 -2.5869109,-2.58254 z"
       id="path7028-3" />
    <path
       inkscape:connector-curvature="0"
       id="rect5176-9"
       d="m 2.6442915,271.35327 c -0.8258571,0 -1.4906514,0.67842 -1.4906514,1.52106 v 7.07261 11.097 0.68781 c 0,0.4616 0.3641438,0.83314 0.8165552,0.83314 H 2.6442915 31.222431 31.89653 c 0.452413,0 0.816554,-0.37154 0.816554,-0.83314 v -0.68781 -11.097 -7.07261 c 0,-0.84264 -0.664792,-1.52106 -1.490653,-1.52106 z"
       style="fill:url(#linearGradient7011-3);fill-opacity:1;stroke:#4891b2;stroke-width:0.2;stroke-miterlimit:4;stroke-dasharray:none;stroke-opacity:1" />
    <path
       style="fill:url(#linearGradient1033-6);fill-opacity:1;stroke:none;stroke-width:0.19047619;stroke-miterlimit:4;stroke-dasharray:none;stroke-opacity:1"
       d="m 1.2530239,291.42915 -0.00248,0.23015 c -0.002,0.18209 0.027267,0.375 0.1382591,0.513 0.1386152,0.17235 0.29094,0.3079 0.5887333,0.30602 l 0.7569695,-0.005 H 31.136625 31.80659 c 0.295101,0 0.291488,-0.0227 0.421025,-0.0834 0.09483,-0.0445 0.178348,-0.11633 0.24407,-0.19788 0.05308,-0.0659 0.09082,-0.14531 0.114282,-0.22658 0.02857,-0.099 0.0279,-0.19197 0.02929,-0.30766 l 0.0028,-0.22932 z"
       id="path1020-0"
       inkscape:connector-curvature="0"
       sodipodi:nodetypes="csasccsaaascc" />
    <path
       style="fill:url(#linearGradient994-9);fill-opacity:1;stroke:none;stroke-width:0.19047618;stroke-miterlimit:4;stroke-dasharray:none;stroke-opacity:1"
       d="m 1.2460915,289.74119 v 0.89327 H 32.619327 v -0.89327 z"
       id="path966-9"
       inkscape:connector-curvature="0" />
    <path
       style="fill:url(#linearGradient986-2);fill-opacity:1;stroke:none;stroke-width:0.19047619;stroke-miterlimit:4;stroke-dasharray:none;stroke-opacity:1"
       d="m 1.2493544,290.74912 v 0.12156 0.68755 c 0,0.0288 -8.581e-4,0.06 0.0019,0.0881 l 31.3594966,-0.004 c 0.0028,-0.0281 0.0029,-0.0553 0.0029,-0.0842 v -0.68754 -0.12156 z"
       id="path973-3"
       inkscape:connector-curvature="0"
       sodipodi:nodetypes="ccsccsccc" />
    <g
       style="stroke-width:4.08449793"
       inkscape:transform-center-y="-9.4924686"
       inkscape:transform-center-x="5.4653607"
       inkscape:label="Capa 1"
       id="layer1-4-9-22"
       transform="matrix(0.51049916,0,0,0.51168467,-314.3213,-2.6029569)">
      <g
         style="stroke-width:4.08449793"
         id="layer1-3-65-0-7"
         inkscape:label="Capa 1"
         transform="translate(0.41988239,0.03484499)" />
    </g>
    <g
       style="stroke-width:4.08449793"
       inkscape:transform-center-y="-9.4924686"
       inkscape:transform-center-x="5.4653607"
       inkscape:label="Capa 1"
       id="layer1-4-3"
       transform="matrix(0.51049916,0,0,0.51168467,-314.3213,-2.5791474)">
      <g
         style="stroke-width:4.08449793"
         id="layer1-3-65-7"
         inkscape:label="Capa 1"
         transform="translate(0.41988239,0.03484499)" />
    </g>
    <g
       style="stroke-width:4.08449793"
       inkscape:transform-center-y="-9.4924686"
       inkscape:transform-center-x="5.4653607"
       inkscape:label="Capa 1"
       id="layer1-4-9-2"
       transform="matrix(0.51049916,0,0,0.51168467,-345.51563,-44.12492)">
      <g
         style="stroke-width:4.08449793"
         id="layer1-3-65-0-2"
         inkscape:label="Capa 1"
         transform="translate(0.41988239,0.03484499)" />
    </g>
    <g
       style="stroke-width:4.08449793"
       inkscape:transform-center-y="-9.4924686"
       inkscape:transform-center-x="5.4653607"
       inkscape:label="Capa 1"
       id="layer1-4-7"
       transform="matrix(0.51049916,0,0,0.51168467,-345.51563,-44.101109)">
      <g
         style="stroke-width:4.08449793"
         id="layer1-3-65-3"
         inkscape:label="Capa 1"
         transform="translate(0.41988239,0.03484499)" />
    </g>
    <g
       style="stroke-width:4.08449793"
       inkscape:transform-center-y="-9.4924686"
       inkscape:transform-center-x="5.4653607"
       inkscape:label="Capa 1"
       id="layer1-4-9"
       transform="matrix(0.51049916,0,0,0.51168467,-314.3213,-2.6029598)">
      <g
         style="stroke-width:4.08449793"
         id="layer1-3-65-0"
         inkscape:label="Capa 1"
         transform="translate(0.41988239,0.03484499)" />
    </g>
    <g
       style="stroke-width:4.08449793"
       inkscape:transform-center-y="-9.4924686"
       inkscape:transform-center-x="5.4653607"
       inkscape:label="Capa 1"
       id="layer1-4"
       transform="matrix(0.51049916,0,0,0.51168467,-314.3213,-2.5791502)">
      <g
         style="stroke-width:4.08449793"
         id="layer1-3-65"
         inkscape:label="Capa 1"
         transform="translate(0.41988239,0.03484499)" />
    </g>
    <path
       id="path6492"
       style="fill:url(#linearGradient6564);fill-opacity:1;stroke:#4891b2;stroke-width:0.15000001;stroke-miterlimit:4;stroke-dasharray:none;stroke-opacity:1"
       d="m 22.926767,274.65445 c -0.110115,0.003 -0.222086,0.0203 -0.333762,0.054 -0.558124,0.16841 -0.92501,0.71194 -0.8766,1.2986 0.04162,0.50418 0.342133,0.91102 0.824619,1.11652 0.213619,0.091 0.69259,0.0636 0.943714,-0.0538 0.497314,-0.23264 0.817581,-0.85757 0.708067,-1.3819 -0.131972,-0.63188 -0.671419,-1.04821 -1.266038,-1.03334 z m -12.023334,0.0164 c -0.286089,0 -0.346492,0.0114 -0.519324,0.0976 -0.5359481,0.2674 -0.8323021,0.87932 -0.6904051,1.42579 0.111134,0.42801 0.3724631,0.74017 0.7575111,0.90499 0.16924,0.0726 0.239656,0.0827 0.505218,0.0731 0.252562,-0.01 0.343057,-0.0283 0.498362,-0.1055 0.234552,-0.1166 0.480524,-0.37833 0.601181,-0.63988 0.07895,-0.17119 0.09124,-0.24258 0.09124,-0.527 0,-0.30824 -0.0076,-0.34248 -0.115533,-0.54534 -0.140343,-0.26296 -0.352648,-0.46848 -0.611086,-0.59157 -0.166886,-0.0795 -0.237828,-0.0922 -0.517171,-0.0922 z m 6.031753,0 c -0.283362,0 -0.347305,0.0118 -0.512591,0.0943 -0.266409,0.13294 -0.495305,0.36862 -0.619228,0.63767 -0.088,0.19099 -0.103791,0.26666 -0.103077,0.49137 0.0019,0.58228 0.336991,1.06603 0.855629,1.23481 0.25199,0.082 0.691657,0.0521 0.928848,-0.0632 0.558466,-0.27156 0.844942,-0.9744 0.639304,-1.56824 -0.108219,-0.31252 -0.354209,-0.58682 -0.651133,-0.72613 -0.188676,-0.0886 -0.252419,-0.10047 -0.537752,-0.10047 z m -0.0048,2.78613 c -0.9174,4.9e-4 -1.038324,0.008 -1.129657,0.0614 -0.07924,0.0471 -0.29822,0.4102 -0.972058,1.61111 -0.478428,0.85265 -0.885133,1.54511 -0.9038,1.53879 -0.01867,-0.007 -0.419742,-0.69617 -0.891219,-1.53298 -0.665438,-1.18106 -0.882543,-1.53888 -0.9704,-1.59935 -0.111333,-0.0767 -0.130552,-0.0779 -1.165123,-0.0779 H 9.8462529 l -0.118456,0.11248 c -0.07468,0.071 -0.486023,0.76527 -1.113007,1.87842 -1.156073,2.05246 -1.122444,1.9889 -1.126224,2.12416 -0.01004,0.35894 0.36788,0.57676 0.654554,0.37733 0.08242,-0.0573 0.261445,-0.33946 0.678081,-1.0686 0.616793,-1.07944 0.668918,-1.16464 0.696248,-1.13821 0.0101,0.01 0.02199,1.70029 0.02644,3.75671 0.0061,2.83143 0.01803,3.76487 0.04931,3.84568 0.02272,0.0587 0.08358,0.14041 0.135236,0.1817 0.16967,0.13561 0.4745131,0.0793 0.5987611,-0.11067 0.04003,-0.0612 0.05122,-0.46579 0.06533,-2.35907 l 0.01702,-2.2852 0.472425,-0.01 c 0.286267,-0.006 0.488943,0.004 0.514371,0.0257 0.03238,0.0273 0.04286,0.54935 0.0459,2.28534 0.0048,2.47881 -0.0057,2.36277 0.214543,2.47851 0.204181,0.10728 0.49583,0.0131 0.569153,-0.18389 0.02838,-0.0762 0.07438,-4.56877 0.07486,-7.32255 3.9e-5,-0.16663 0.01343,-0.30308 0.02962,-0.30308 0.01619,0 0.195542,0.29224 0.398457,0.64929 0.602362,1.05995 0.830628,1.44072 0.916266,1.5282 0.05676,0.058 0.1302,0.087 0.24581,0.0971 0.234171,0.0205 0.345619,-0.062 0.531019,-0.39349 0.458305,-0.81952 1.032619,-1.80332 1.087457,-1.86279 0.06133,-0.0665 0.06314,0.005 0.06752,2.64873 0.0029,1.49435 0.0029,3.18879 0,3.76535 -0.0048,1.16577 0.0048,1.2323 0.206533,1.35709 0.13621,0.0844 0.307734,0.09 0.434048,0.0142 0.197295,-0.11841 0.188447,-0.0121 0.206914,-2.48883 l 0.01705,-2.2852 0.502685,-0.01 c 0.276458,-0.006 0.503153,0.003 0.503686,0.0173 7.43e-4,0.0148 0.0086,1.03769 0.01848,2.27319 0.01905,2.45429 0.01333,2.38905 0.217972,2.49659 0.201076,0.10564 0.46719,0.0354 0.558352,-0.14722 0.03905,-0.0782 0.05057,-0.75267 0.06695,-3.88133 0.01086,-2.08269 0.02705,-3.79399 0.03581,-3.80293 0.01876,-0.019 0.05343,0.0351 0.302371,0.47445 0.102515,0.1809 0.267277,0.46912 0.366172,0.64051 0.09889,0.17138 0.263238,0.45974 0.365162,0.64065 0.244886,0.43467 0.368171,0.55387 0.572447,0.55387 0.225591,0 0.329172,-0.11937 0.7518,-0.86561 0.794467,-1.40282 0.832229,-1.46623 0.857153,-1.4409 0.01048,0.0106 0.02638,1.72203 0.03543,3.80306 0.018,4.1218 0.0076,3.91809 0.211619,4.02545 0.200524,0.10535 0.4846,0.0266 0.584153,-0.16207 0.032,-0.0605 0.04381,-0.61938 0.04933,-2.31839 0.0038,-1.23128 0.01762,-2.25572 0.03029,-2.27654 0.02457,-0.0404 0.855314,-0.055 0.953371,-0.0168 0.04838,0.0189 0.05391,0.24972 0.05391,2.25396 0,2.44773 -0.0048,2.38935 0.201714,2.51324 0.202724,0.12167 0.488296,0.0346 0.598896,-0.18273 0.04619,-0.0907 0.05333,-0.25102 0.04876,-1.08358 -0.0029,-0.5374 -0.0038,-2.22871 -0.0019,-3.75851 0.0029,-2.17662 0.01295,-2.77844 0.04562,-2.76739 0.04162,0.0141 0.130447,0.1544 0.367562,0.58033 0.570314,1.02445 0.906866,1.57222 1.002562,1.63151 0.200295,0.1241 0.480638,0.0558 0.581095,-0.14153 0.1138,-0.22358 0.07809,-0.34476 -0.295372,-1.0012 -0.190895,-0.33553 -0.417123,-0.73625 -0.502685,-0.89051 -0.986457,-1.77867 -1.3218,-2.34875 -1.416391,-2.40789 -0.09352,-0.0585 -0.190809,-0.0639 -1.141609,-0.0639 -1.223067,0 -1.170838,-0.0144 -1.399486,0.38703 -0.2612,0.45858 -0.393962,0.69374 -0.876219,1.55157 -0.7062,1.25621 -0.700505,1.24656 -0.740229,1.24656 -0.02029,0 -0.410704,-0.66607 -0.867838,-1.48016 -0.457133,-0.8141 -0.855219,-1.50907 -0.884609,-1.54435 -0.129429,-0.15539 -0.187048,-0.16281 -1.268448,-0.16206 z"
       inkscape:connector-curvature="0" />
  </g>
</svg>
