<?xml version="1.0" encoding="UTF-8" standalone="no"?>
<!-- Created with Inkscape (http://www.inkscape.org/) -->

<svg
   xmlns:osb="http://www.openswatchbook.org/uri/2009/osb"
   xmlns:dc="http://purl.org/dc/elements/1.1/"
   xmlns:cc="http://creativecommons.org/ns#"
   xmlns:rdf="http://www.w3.org/1999/02/22-rdf-syntax-ns#"
   xmlns:svg="http://www.w3.org/2000/svg"
   xmlns="http://www.w3.org/2000/svg"
   xmlns:xlink="http://www.w3.org/1999/xlink"
   xmlns:sodipodi="http://sodipodi.sourceforge.net/DTD/sodipodi-0.dtd"
   xmlns:inkscape="http://www.inkscape.org/namespaces/inkscape"
   width="128"
   height="128"
   viewBox="0 0 33.866666 33.866668"
   version="1.1"
   id="svg8"
   inkscape:version="0.92.2 5c3e80d, 2017-08-06"
   sodipodi:docname="bookmark-missing.svg">
  <defs
     id="defs2">
    <linearGradient
       osb:paint="solid"
       id="linearGradient6987">
      <stop
         id="stop6985"
         offset="0"
         style="stop-color:#77d2fb;stop-opacity:1;" />
    </linearGradient>
    <linearGradient
       id="linearGradient886"
       inkscape:collect="always">
      <stop
         id="stop882"
         offset="0"
         style="stop-color:#ff0000;stop-opacity:1" />
      <stop
         id="stop884"
         offset="1"
         style="stop-color:#bd0000;stop-opacity:1" />
    </linearGradient>
    <linearGradient
       gradientTransform="matrix(0.41569401,0,0,0.41569401,110.10584,194.10235)"
       gradientUnits="userSpaceOnUse"
       y2="182.0515"
       x2="-103.39869"
       y1="-64.330849"
       x1="-102.04562"
       id="linearGradient888"
       xlink:href="#linearGradient886"
       inkscape:collect="always" />
  </defs>
  <sodipodi:namedview
     id="base"
     pagecolor="#ffffff"
     bordercolor="#666666"
     borderopacity="1.0"
     inkscape:pageopacity="0.0"
     inkscape:pageshadow="2"
     inkscape:zoom="3.6203867"
     inkscape:cx="116.73722"
     inkscape:cy="56.971583"
     inkscape:document-units="mm"
     inkscape:current-layer="layer1"
     showgrid="false"
     inkscape:window-width="1600"
     inkscape:window-height="814"
     inkscape:window-x="0"
     inkscape:window-y="0"
     inkscape:window-maximized="1"
     units="px" />
  <metadata
     id="metadata5">
    <rdf:RDF>
      <cc:Work
         rdf:about="">
        <dc:format>image/svg+xml</dc:format>
        <dc:type
           rdf:resource="http://purl.org/dc/dcmitype/StillImage" />
        <dc:title></dc:title>
      </cc:Work>
    </rdf:RDF>
  </metadata>
  <g
     inkscape:label="Layer 1"
     inkscape:groupmode="layer"
     id="layer1"
     transform="translate(0,-263.13332)">
    <g
       id="g947"
       transform="matrix(2.0697305,0,0,2.0697305,-0.5903849,-317.35982)">
      <g
         style="opacity:0.25;fill:#000000"
         transform="matrix(0.12214701,0,0,0.12214701,0.19324242,260.76125)"
         id="g939"
         inkscape:label="Layer 1">
        <path
           style="fill:#000000;fill-opacity:1;stroke-width:0.10998572"
           d="m 27.979983,294.15639 c -0.09111,-0.0991 0.822478,-6.07724 3.549032,-23.22346 2.019441,-12.69948 3.658443,-23.19721 3.642229,-23.32828 -0.0166,-0.13389 -6.4045,-7.48327 -14.5786,-16.77282 -8.002012,-9.09399 -14.6210566,-16.67488 -14.7089746,-16.84644 -0.136999,-0.26732 -0.137847,-0.33394 -0.0062,-0.46586 0.110122,-0.11011 6.0334156,-0.8764 20.8131916,-2.69254 11.362593,-1.39625 20.758246,-2.57868 20.879229,-2.62762 0.162331,-0.0657 2.784995,-5.81263 10.008702,-21.93172 5.383795,-12.01351 9.846466,-21.84412 9.917046,-21.84579 0.0706,-0.002 0.14481,-0.0491 0.16498,-0.10536 0.0202,-0.0563 0.12277,-0.0388 0.228,0.0388 0.10524,0.0776 4.59373,9.95331 9.97444,21.94603 5.3807,11.99271 9.80888,21.83072 9.8404,21.86224 0.0315,0.0315 9.44133,1.215 20.910712,2.62996 12.75608,1.57371 20.9087,2.62433 20.99583,2.70572 0.11606,0.10842 0.10467,0.2003 -0.0615,0.49611 -0.11215,0.19967 -6.72897,7.77722 -14.70403,16.83898 -7.97507,9.06177 -14.53483,16.53208 -14.57724,16.6007 -0.0424,0.0686 1.58223,10.56695 3.6103,23.32963 2.02808,12.76268 3.6582,23.28099 3.62249,23.37405 -0.0486,0.12671 -0.11556,0.14207 -0.26666,0.0612 -0.11097,-0.0593 -0.275,-0.10797 -0.36451,-0.10797 -0.0895,0 -8.929182,-5.17286 -19.643682,-11.49525 -17.64699,-10.41309 -19.50382,-11.483 -19.72438,-11.36517 -0.13392,0.0715 -8.880116,5.22761 -19.435993,11.45795 -10.555877,6.23032 -19.316238,11.3513 -19.467467,11.37993 -0.151235,0.0286 -0.324463,0.0899 -0.384955,0.13625 -0.06047,0.0463 -0.165199,0.0242 -0.232679,-0.0492 z"
           id="path937"
           inkscape:connector-curvature="0" />
      </g>
      <g
         inkscape:label="Layer 1"
         id="layer1-3"
         transform="matrix(0.12214701,0,0,0.12214701,0.19324242,260.52908)">
        <path
           inkscape:connector-curvature="0"
           id="path870"
           d="m 27.979983,294.15639 c -0.09111,-0.0991 0.822478,-6.07724 3.549032,-23.22346 2.019441,-12.69948 3.658443,-23.19721 3.642229,-23.32828 -0.0166,-0.13389 -6.4045,-7.48327 -14.5786,-16.77282 -8.002012,-9.09399 -14.6210566,-16.67488 -14.7089746,-16.84644 -0.136999,-0.26732 -0.137847,-0.33394 -0.0062,-0.46586 0.110122,-0.11011 6.0334156,-0.8764 20.8131916,-2.69254 11.362593,-1.39625 20.758246,-2.57868 20.879229,-2.62762 0.162331,-0.0657 2.784995,-5.81263 10.008702,-21.93172 5.383795,-12.01351 9.846466,-21.84412 9.917046,-21.84579 0.0706,-0.002 0.14481,-0.0491 0.16498,-0.10536 0.0202,-0.0563 0.12277,-0.0388 0.228,0.0388 0.10524,0.0776 4.59373,9.95331 9.97444,21.94603 5.3807,11.99271 9.80888,21.83072 9.8404,21.86224 0.0315,0.0315 9.44133,1.215 20.910712,2.62996 12.75608,1.57371 20.9087,2.62433 20.99583,2.70572 0.11606,0.10842 0.10467,0.2003 -0.0615,0.49611 -0.11215,0.19967 -6.72897,7.77722 -14.70403,16.83898 -7.97507,9.06177 -14.53483,16.53208 -14.57724,16.6007 -0.0424,0.0686 1.58223,10.56695 3.6103,23.32963 2.02808,12.76268 3.6582,23.28099 3.62249,23.37405 -0.0486,0.12671 -0.11556,0.14207 -0.26666,0.0612 -0.11097,-0.0593 -0.275,-0.10797 -0.36451,-0.10797 -0.0895,0 -8.929182,-5.17286 -19.643682,-11.49525 -17.64699,-10.41309 -19.50382,-11.483 -19.72438,-11.36517 -0.13392,0.0715 -8.880116,5.22761 -19.435993,11.45795 -10.555877,6.23032 -19.316238,11.3513 -19.467467,11.37993 -0.151235,0.0286 -0.324463,0.0899 -0.384955,0.13625 -0.06047,0.0463 -0.165199,0.0242 -0.232679,-0.0492 z"
           style="fill:url(#linearGradient888);fill-opacity:1;stroke-width:0.10998572" />
      </g>
    </g>
  </g>
</svg>
