<?xml version="1.0" encoding="UTF-8" standalone="no"?>
<!-- Created with Inkscape (http://www.inkscape.org/) -->

<svg
   xmlns:osb="http://www.openswatchbook.org/uri/2009/osb"
   xmlns:dc="http://purl.org/dc/elements/1.1/"
   xmlns:cc="http://creativecommons.org/ns#"
   xmlns:rdf="http://www.w3.org/1999/02/22-rdf-syntax-ns#"
   xmlns:svg="http://www.w3.org/2000/svg"
   xmlns="http://www.w3.org/2000/svg"
   xmlns:xlink="http://www.w3.org/1999/xlink"
   xmlns:sodipodi="http://sodipodi.sourceforge.net/DTD/sodipodi-0.dtd"
   xmlns:inkscape="http://www.inkscape.org/namespaces/inkscape"
   width="128"
   height="128"
   viewBox="0 0 33.866665 33.866665"
   version="1.1"
   id="svg4942"
   inkscape:version="0.92.2 5c3e80d, 2017-08-06"
   sodipodi:docname="user-desktop.svg">
  <defs
     id="defs4936">
    <linearGradient
       id="linearGradient6987"
       osb:paint="solid">
      <stop
         style="stop-color:#77d2fb;stop-opacity:1;"
         offset="0"
         id="stop6985" />
    </linearGradient>
    <linearGradient
       id="linearGradient4205">
      <stop
         id="stop895"
         offset="0"
         style="stop-color:#cb51bc;stop-opacity:1" />
      <stop
         id="stop897"
         offset="1"
         style="stop-color:#4c2a48;stop-opacity:1" />
    </linearGradient>
    <radialGradient
       inkscape:collect="always"
       xlink:href="#linearGradient4205"
       id="radialGradient940"
       cx="20.105698"
       cy="277.36697"
       fx="20.105698"
       fy="277.36697"
       r="16.404167"
       gradientTransform="matrix(-0.84682772,0.90043115,-0.90191222,-0.84822066,284.25416,501.79813)"
       gradientUnits="userSpaceOnUse" />
  </defs>
  <sodipodi:namedview
     id="base"
     pagecolor="#ffffff"
     bordercolor="#666666"
     borderopacity="1.0"
     inkscape:pageopacity="0.0"
     inkscape:pageshadow="2"
     inkscape:zoom="0.98659512"
     inkscape:cx="181.65112"
     inkscape:cy="-86.496403"
     inkscape:document-units="mm"
     inkscape:current-layer="layer1"
     showgrid="false"
     units="px"
     width="128px"
     inkscape:window-width="1600"
     inkscape:window-height="814"
     inkscape:window-x="0"
     inkscape:window-y="0"
     inkscape:window-maximized="1"
     showguides="true" />
  <metadata
     id="metadata4939">
    <rdf:RDF>
      <cc:Work
         rdf:about="">
        <dc:format>image/svg+xml</dc:format>
        <dc:type
           rdf:resource="http://purl.org/dc/dcmitype/StillImage" />
        <dc:title />
      </cc:Work>
    </rdf:RDF>
  </metadata>
  <g
     inkscape:label="Layer 1"
     inkscape:groupmode="layer"
     id="layer1"
     transform="translate(0,-263.13332)">
    <rect
       style="opacity:0.25;fill:#000000;fill-opacity:1;stroke:none;stroke-width:0.24813491;stroke-linecap:round;stroke-linejoin:round;stroke-miterlimit:4;stroke-dasharray:none;stroke-opacity:1"
       id="rect868"
       width="32.808334"
       height="23.837305"
       x="0.52916664"
       y="268.40836"
       ry="1.4454079" />
    <rect
       ry="1.4454079"
       y="267.88766"
       x="0.52916664"
       height="23.837305"
       width="32.808334"
       id="rect849"
       style="opacity:1;fill:url(#radialGradient940);fill-opacity:1;stroke:none;stroke-width:0.24813491;stroke-linecap:round;stroke-linejoin:round;stroke-miterlimit:4;stroke-dasharray:none;stroke-opacity:1" />
    <path
       style="opacity:0.5;fill:#ffffff;fill-opacity:1;stroke:none;stroke-width:0.24813491;stroke-linecap:round;stroke-linejoin:round;stroke-miterlimit:4;stroke-dasharray:none;stroke-opacity:1"
       d="m 1.9745669,267.88767 c -0.8007562,0 -1.44536597,0.64474 -1.44536597,1.44549 v 1.76934 H 33.337465 v -1.76934 c 0,-0.80075 -0.644611,-1.44549 -1.445362,-1.44549 z"
       id="rect835"
       inkscape:connector-curvature="0" />
    <path
       inkscape:connector-curvature="0"
       id="path853"
       d="m 2.2512077,270.39558 c -0.00789,-0.002 -0.011971,-0.003 -0.00903,-0.004 0.00298,-2e-4 -0.00126,-0.003 -0.00866,-0.004 -0.029977,-0.007 -0.075714,-0.0351 -0.1133942,-0.0697 -0.036878,-0.0338 -0.1116554,-0.13115 -0.1534844,-0.19981 -0.071896,-0.118 -0.1273448,-0.26769 -0.1507991,-0.40705 -0.015718,-0.0934 -0.016679,-0.20566 -0.00256,-0.28602 0.043071,-0.24327 0.2245029,-0.4133 0.4414079,-0.41369 0.044542,-7e-5 0.076493,0.006 0.1386984,0.0283 0.1417385,0.0497 0.1415815,0.0497 0.1655725,0.0496 0.018628,-4e-5 0.033358,-0.004 0.072015,-0.0171 0.1762073,-0.062 0.1886775,-0.065 0.2610625,-0.0647 0.097953,2e-4 0.1916281,0.0302 0.2631683,0.0835 0.027456,0.0204 0.063876,0.0564 0.079957,0.079 l 0.00772,0.0108 -0.031392,0.0235 c -0.1189648,0.0889 -0.1736966,0.21059 -0.1624667,0.36138 0.00369,0.0495 0.012099,0.086 0.029714,0.12924 0.032363,0.0794 0.1097901,0.16374 0.1868677,0.20357 0.013363,0.007 0.024298,0.0145 0.024298,0.0168 3.78e-5,0.0116 -0.029984,0.0852 -0.056288,0.13801 -0.040541,0.0813 -0.094564,0.1622 -0.1559014,0.23347 -0.044182,0.0514 -0.1016887,0.0889 -0.1517125,0.0991 -0.012704,0.003 -0.020676,0.006 -0.017742,0.007 0.00299,9.9e-4 -0.00675,0.002 -0.021641,0.003 -0.015845,7e-5 -0.025033,-9.8e-4 -0.022249,-0.003 0.00306,-0.002 -0.00256,-0.004 -0.015463,-0.006 -0.02202,-0.003 -0.061874,-0.0151 -0.1207364,-0.0377 -0.058729,-0.0226 -0.1038147,-0.0306 -0.1584374,-0.0281 -0.048101,0.002 -0.078409,0.009 -0.1296303,0.0276 -0.064251,0.0238 -0.1010559,0.036 -0.1150241,0.0383 -0.00797,0.002 -0.013642,0.004 -0.012501,0.006 0.00101,0.002 -0.00203,0.003 -0.00676,0.003 -0.00475,0 -0.015845,7.6e-4 -0.024526,0.002 -0.00868,7.6e-4 -0.022273,1.3e-4 -0.030207,-0.002 z m 0.3030662,-1.42131 c -0.00459,-0.005 -0.00256,-0.07 0.00321,-0.0971 0.020349,-0.0985 0.090082,-0.19677 0.1795053,-0.25284 0.037739,-0.0236 0.088049,-0.0457 0.1234119,-0.054 0.014602,-0.004 0.025451,-0.008 0.024069,-0.009 -0.00152,-0.002 0.00256,-0.003 0.00858,-0.003 0.00612,0 0.013338,-9.8e-4 0.015995,-0.002 0.01086,-0.004 9.37e-5,0.0991 -0.015412,0.14772 -0.037202,0.11657 -0.1339531,0.22243 -0.2336117,0.2556 -0.036124,0.012 -0.099337,0.0203 -0.1057812,0.0139 z"
       style="opacity:1;fill:#000000;fill-opacity:1;stroke-width:0.00360083" />
    <path
       inkscape:connector-curvature="0"
       id="path855"
       d="m 31.017724,268.70007 a 0.5998883,0.5998883 0 0 0 -0.599848,0.5999 0.5998883,0.5998883 0 0 0 0.599848,0.5999 0.5998883,0.5998883 0 0 0 0.327596,-0.0979 l 0.430138,0.41622 c 0.03972,0.0384 0.09444,0.0478 0.122667,0.0211 l 0.04129,-0.0392 c 0.02822,-0.0268 0.01897,-0.0792 -0.02072,-0.11769 l -0.427816,-0.41388 a 0.5998883,0.5998883 0 0 0 0.126759,-0.36845 0.5998883,0.5998883 0 0 0 -0.599908,-0.59991 z m -0.0073,0.19977 a 0.40733152,0.40733152 0 0 1 0.04068,0.002 0.40733152,0.40733152 0 0 1 0.04025,0.006 0.40733152,0.40733152 0 0 1 0.03947,0.01 0.40733152,0.40733152 0 0 1 0.03825,0.014 0.40733152,0.40733152 0 0 1 0.03665,0.0176 0.40733152,0.40733152 0 0 1 0.03472,0.0213 0.40733152,0.40733152 0 0 1 0.0324,0.0247 0.40733152,0.40733152 0 0 1 0.02979,0.0278 0.40733152,0.40733152 0 0 1 0.02687,0.0306 0.40733152,0.40733152 0 0 1 0.02372,0.0332 0.40733152,0.40733152 0 0 1 0.02021,0.0352 0.40733152,0.40733152 0 0 1 0.01663,0.0372 0.40733152,0.40733152 0 0 1 0.01282,0.0387 0.40733152,0.40733152 0 0 1 0.009,0.0397 0.40733152,0.40733152 0 0 1 0.0048,0.0404 0.40733152,0.40733152 0 0 1 9.84e-4,0.0288 0.40733152,0.40733152 0 0 1 -0.0021,0.0406 0.40733152,0.40733152 0 0 1 -0.0061,0.0403 0.40733152,0.40733152 0 0 1 -0.0101,0.0395 0.40733152,0.40733152 0 0 1 -0.01398,0.0383 0.40733152,0.40733152 0 0 1 -0.01769,0.0366 0.40733152,0.40733152 0 0 1 -0.02128,0.0347 0.40733152,0.40733152 0 0 1 -0.02463,0.0325 0.40733152,0.40733152 0 0 1 -0.02775,0.0297 0.40733152,0.40733152 0 0 1 -0.03057,0.027 0.40733152,0.40733152 0 0 1 -0.03312,0.0237 0.40733152,0.40733152 0 0 1 -0.03532,0.0203 0.40733152,0.40733152 0 0 1 -0.0372,0.0165 0.40733152,0.40733152 0 0 1 -0.03864,0.0129 0.40733152,0.40733152 0 0 1 -0.03969,0.009 0.40733152,0.40733152 0 0 1 -0.04041,0.005 0.40733152,0.40733152 0 0 1 -0.02886,9.9e-4 0.40733152,0.40733152 0 0 1 -0.04063,-0.002 0.40733152,0.40733152 0 0 1 -0.04024,-0.006 0.40733152,0.40733152 0 0 1 -0.03947,-0.0101 0.40733152,0.40733152 0 0 1 -0.03825,-0.014 0.40733152,0.40733152 0 0 1 -0.03665,-0.0177 0.40733152,0.40733152 0 0 1 -0.03472,-0.0213 0.40733152,0.40733152 0 0 1 -0.0324,-0.0246 0.40733152,0.40733152 0 0 1 -0.0298,-0.0278 0.40733152,0.40733152 0 0 1 -0.02687,-0.0306 0.40733152,0.40733152 0 0 1 -0.02373,-0.0332 0.40733152,0.40733152 0 0 1 -0.02021,-0.0353 0.40733152,0.40733152 0 0 1 -0.01663,-0.0372 0.40733152,0.40733152 0 0 1 -0.01279,-0.0387 0.40733152,0.40733152 0 0 1 -0.009,-0.0398 0.40733152,0.40733152 0 0 1 -0.0049,-0.0405 0.40733152,0.40733152 0 0 1 -9.84e-4,-0.0288 0.40733152,0.40733152 0 0 1 0.0021,-0.0406 0.40733152,0.40733152 0 0 1 0.0061,-0.0403 0.40733152,0.40733152 0 0 1 0.01007,-0.0395 0.40733152,0.40733152 0 0 1 0.014,-0.0383 0.40733152,0.40733152 0 0 1 0.01767,-0.0366 0.40733152,0.40733152 0 0 1 0.02125,-0.0347 0.40733152,0.40733152 0 0 1 0.02463,-0.0324 0.40733152,0.40733152 0 0 1 0.02775,-0.0298 0.40733152,0.40733152 0 0 1 0.03057,-0.0269 0.40733152,0.40733152 0 0 1 0.03312,-0.0237 0.40733152,0.40733152 0 0 1 0.03532,-0.0202 0.40733152,0.40733152 0 0 1 0.03714,-0.0166 0.40733152,0.40733152 0 0 1 0.03865,-0.0128 0.40733152,0.40733152 0 0 1 0.03975,-0.009 0.40733152,0.40733152 0 0 1 0.04041,-0.005 0.40733152,0.40733152 0 0 1 0.02881,-9.9e-4 z"
       style="opacity:1;fill:#000000;fill-opacity:1;stroke:none;stroke-width:0.04168353" />
    <path
       id="path857"
       d="m 27.185935,291.72497 v -2.0241 c 0,-0.3724 -0.152895,-0.7093 -0.399973,-0.9523 -0.247088,-0.243 -0.588383,-0.39212 -0.967039,-0.39212 H 8.0477432 c -0.3786557,0 -0.7199544,0.14912 -0.9670332,0.39212 -0.2470866,0.243 -0.3999812,0.5799 -0.3999812,0.9523 v 2.0241 z"
       style="opacity:0.5;fill:#ffffff;fill-opacity:1;stroke-width:0.64268851"
       inkscape:connector-curvature="0" />
  </g>
</svg>
