<?xml version="1.0" encoding="UTF-8" standalone="no"?>
<!-- Created with Inkscape (http://www.inkscape.org/) -->

<svg
   xmlns:osb="http://www.openswatchbook.org/uri/2009/osb"
   xmlns:dc="http://purl.org/dc/elements/1.1/"
   xmlns:cc="http://creativecommons.org/ns#"
   xmlns:rdf="http://www.w3.org/1999/02/22-rdf-syntax-ns#"
   xmlns:svg="http://www.w3.org/2000/svg"
   xmlns="http://www.w3.org/2000/svg"
   xmlns:xlink="http://www.w3.org/1999/xlink"
   xmlns:sodipodi="http://sodipodi.sourceforge.net/DTD/sodipodi-0.dtd"
   xmlns:inkscape="http://www.inkscape.org/namespaces/inkscape"
   width="128"
   height="128"
   viewBox="0 0 33.866666 33.866668"
   version="1.1"
   id="svg8"
   inkscape:version="0.92.2 5c3e80d, 2017-08-06"
   sodipodi:docname="folder copy.svg">
  <defs
     id="defs2">
    <linearGradient
       inkscape:collect="always"
       xlink:href="#linearGradient7009"
       id="linearGradient7011"
       x1="123.07384"
       y1="84.320671"
       x2="124.11147"
       y2="132.42918"
       gradientUnits="userSpaceOnUse"
       gradientTransform="matrix(0.25255681,0,0,0.25768595,-15.968322,248.84654)" />
    <linearGradient
       inkscape:collect="always"
       id="linearGradient7009">
      <stop
         style="stop-color:#63c4f2;stop-opacity:1"
         offset="0"
         id="stop7005" />
      <stop
         style="stop-color:#7cd4fa;stop-opacity:1"
         offset="1"
         id="stop7007" />
    </linearGradient>
    <linearGradient
       id="linearGradient8382"
       inkscape:collect="always">
      <stop
         id="stop8378"
         offset="0"
         style="stop-color:#4db0e3;stop-opacity:1" />
      <stop
         id="stop8380"
         offset="1"
         style="stop-color:#5ebfea;stop-opacity:1" />
    </linearGradient>
    <linearGradient
       osb:paint="solid"
       id="linearGradient6987">
      <stop
         id="stop6985"
         offset="0"
         style="stop-color:#77d2fb;stop-opacity:1;" />
    </linearGradient>
    <linearGradient
       gradientUnits="userSpaceOnUse"
       y2="337.6265"
       x2="170.27765"
       y1="211.40616"
       x1="169.82764"
       id="linearGradient858"
       xlink:href="#linearGradient8382"
       inkscape:collect="always" />
    <linearGradient
       inkscape:collect="always"
       xlink:href="#linearGradient8382"
       id="linearGradient953"
       gradientUnits="userSpaceOnUse"
       x1="169.82764"
       y1="211.40616"
       x2="170.27765"
       y2="337.6265" />
    <linearGradient
       inkscape:collect="always"
       xlink:href="#linearGradient8382"
       id="linearGradient955"
       gradientUnits="userSpaceOnUse"
       x1="169.82764"
       y1="211.40616"
       x2="170.27765"
       y2="337.6265" />
    <linearGradient
       inkscape:collect="always"
       xlink:href="#linearGradient8382"
       id="linearGradient957"
       gradientUnits="userSpaceOnUse"
       x1="169.82764"
       y1="211.40616"
       x2="170.27765"
       y2="337.6265" />
  </defs>
  <sodipodi:namedview
     id="base"
     pagecolor="#ffffff"
     bordercolor="#666666"
     borderopacity="1.0"
     inkscape:pageopacity="0.0"
     inkscape:pageshadow="2"
     inkscape:zoom="2.56"
     inkscape:cx="166.54839"
     inkscape:cy="29.34279"
     inkscape:document-units="mm"
     inkscape:current-layer="layer1"
     showgrid="false"
     inkscape:window-width="1600"
     inkscape:window-height="814"
     inkscape:window-x="0"
     inkscape:window-y="0"
     inkscape:window-maximized="1"
     units="px" />
  <metadata
     id="metadata5">
    <rdf:RDF>
      <cc:Work
         rdf:about="">
        <dc:format>image/svg+xml</dc:format>
        <dc:type
           rdf:resource="http://purl.org/dc/dcmitype/StillImage" />
        <dc:title></dc:title>
      </cc:Work>
    </rdf:RDF>
  </metadata>
  <g
     inkscape:label="Layer 1"
     inkscape:groupmode="layer"
     id="layer1"
     transform="translate(0,-263.13331)">
    <path
       id="path3726"
       style="opacity:0.25;fill:#000000;fill-opacity:1;stroke-width:0.07295433"
       d="m 1.839255,271.34745 c -0.87238339,0 -1.57463018,0.71666 -1.57463018,1.60675 v 7.47097 11.72207 0.72653 c 0,0.4876 0.38465877,0.88009 0.86255748,0.88009 h 0.7120727 30.188153 0.712078 c 0.477897,0 0.862556,-0.39249 0.862556,-0.88009 v -0.72653 -11.72207 -7.47097 c 0,-0.89009 -0.702246,-1.60675 -1.574634,-1.60675 z m 0.3993405,-4.42484 c -1.0935623,0 -1.97401229,0.89107 -1.97401229,1.998 v 2.39332 2.43155 8.27983 c 0,0.92145 0.73293882,1.66319 1.64324119,1.66319 H 31.95898 c 0.910304,0 1.643103,-0.74174 1.643103,-1.66319 v -10.71138 c 0,-0.92143 -0.732793,-1.66317 -1.643103,-1.66317 l -19.749002,-8e-5 c -0.975266,-0.0917 -1.017482,-2.4232 -2.7327582,-2.72807 z"
       inkscape:connector-curvature="0" />
    <path
       inkscape:connector-curvature="0"
       d="m 1.839255,270.80428 c -0.87238339,0 -1.57463018,0.71663 -1.57463018,1.60674 v 7.47098 11.72205 0.72655 c 0,0.4876 0.38465877,0.88007 0.86255748,0.88007 h 0.7120727 30.188153 0.712078 c 0.477897,0 0.862556,-0.39247 0.862556,-0.88007 v -0.72655 -11.72205 -7.47098 c 0,-0.89011 -0.702246,-1.60674 -1.574634,-1.60674 z m 0.3993405,-4.42484 c -1.0935623,0 -1.97401229,0.89105 -1.97401229,1.99798 v 2.39332 2.43157 8.27983 c 0,0.92142 0.73293882,1.66316 1.64324119,1.66316 H 31.95898 c 0.910304,0 1.643103,-0.74174 1.643103,-1.66316 v -10.7114 c 0,-0.92141 -0.732793,-1.66317 -1.643103,-1.66317 l -19.749002,-8e-5 c -0.975266,-0.0915 -1.017482,-2.42318 -2.7327582,-2.72805 z"
       style="fill:#97ddff;fill-opacity:1;stroke-width:0.07295433"
       id="path7028" />
    <path
       inkscape:connector-curvature="0"
       id="rect5176"
       d="m 1.8392858,270.80428 c -0.87238343,0 -1.57463021,0.71663 -1.57463021,1.60674 v 7.47098 11.72205 0.72655 c 0,0.4876 0.38465878,0.88007 0.86255751,0.88007 h 0.7120727 30.1881532 0.712076 c 0.4779,0 0.862556,-0.39247 0.862556,-0.88007 v -0.72655 -11.72205 -7.47098 c 0,-0.89011 -0.702244,-1.60674 -1.574632,-1.60674 z"
       style="fill:url(#linearGradient7011);fill-opacity:1;stroke-width:0.07295433" />
    <rect
       style="fill:#5ebae5;fill-opacity:1;stroke:none;stroke-width:0.14778438;stroke-linecap:round;stroke-linejoin:round;stroke-miterlimit:4;stroke-dasharray:none;stroke-opacity:1"
       id="rect5180"
       width="30.427078"
       height="0.26995665"
       x="1.7198211"
       y="291.00845"
       ry="0.13497832" />
    <rect
       ry="0.13497832"
       y="291.84982"
       x="1.7198211"
       height="0.26995665"
       width="30.427078"
       id="rect5182"
       style="fill:#5ebae5;fill-opacity:1;stroke:none;stroke-width:0.14778438;stroke-linecap:round;stroke-linejoin:round;stroke-miterlimit:4;stroke-dasharray:none;stroke-opacity:1" />
    <path
       style="fill:#90d3f2;fill-opacity:1;stroke-width:0.07295433"
       d="m 2.2390733,266.37944 c -1.0935605,0 -1.97438151,0.89084 -1.97438151,1.99777 v 0.36196 c 0,-1.10693 0.88081921,-1.99777 1.97438151,-1.99777 h 7.238172 c 1.7152727,0.30487 1.7576317,2.63664 2.7329017,2.72822 h 19.748535 c 0.91031,0 1.643295,0.74153 1.643295,1.66293 v -0.36196 c 0,-0.92141 -0.732985,-1.66292 -1.643295,-1.66292 H 12.210147 c -0.97527,-0.0915 -1.017629,-2.42336 -2.7329017,-2.72823 z"
       id="path3721"
       inkscape:connector-curvature="0" />
    <g
       transform="matrix(0.10947744,0,0,0.10882417,-1.6608276,251.4636)"
       id="g19"
       style="fill:url(#linearGradient858);fill-opacity:1;stroke-width:3.90064645">
      <path
         inkscape:connector-curvature="0"
         style="fill:url(#linearGradient953);fill-opacity:1;stroke-width:3.90064645"
         d="m 169.82763,211.40616 c -25.65009,0 -48.01969,13.91852 -59.96894,34.63552 h 17.93627 c 9.99481,-12.09769 25.15032,-19.79172 42.05742,-19.79172 30.0587,0 54.42728,24.36857 54.42728,54.42728 0,30.05867 -24.36858,54.42725 -54.42728,54.42725 -30.0587,0 -54.42727,-24.36858 -54.42727,-54.42725 0,-1.67242 0.16328,-3.31513 0.31172,-4.94795 h -14.99224 c -0.1138,1.63282 -0.15338,3.28544 -0.15338,4.94795 0,38.25741 31.01365,69.27106 69.27107,69.27106 38.25742,0 69.27106,-31.01365 69.27106,-69.27106 0,-38.25743 -31.01364,-69.27108 -69.27106,-69.27108 z"
         id="path13" />
      <path
         inkscape:connector-curvature="0"
         style="fill:url(#linearGradient955);fill-opacity:1;stroke-width:3.90064645"
         d="m 100.55657,211.39527 v 49.47934 h 49.47933 z"
         id="path15" />
      <path
         inkscape:connector-curvature="0"
         style="fill:url(#linearGradient957);fill-opacity:1;stroke-width:3.90064645"
         d="m 168.90237,235.83806 a 9.8958676,9.8958676 0 0 0 -1.23698,0.30678 9.8958676,9.8958676 0 0 0 -7.73363,9.89586 v 36.491 a 9.8958676,9.8958676 0 0 0 0,0.93023 9.8958676,9.8958676 0 0 0 1.237,7.42189 9.8958676,9.8958676 0 0 0 0.31172,0.30678 9.8958676,9.8958676 0 0 0 0.31171,0.61354 9.8958676,9.8958676 0 0 0 0.31172,0.30678 9.8958676,9.8958676 0 0 0 0.31173,0.30676 9.8958676,9.8958676 0 0 0 0.31173,0.30678 9.8958676,9.8958676 0 0 0 0.31171,0.30676 9.8958676,9.8958676 0 0 0 0.61849,0.30678 9.8958676,9.8958676 0 0 0 0.31171,0.30677 9.8958676,9.8958676 0 0 0 0.31173,0.30677 9.8958676,9.8958676 0 0 0 0.6185,0.30678 9.8958676,9.8958676 0 0 0 1.23697,0.61353 l 24.42794,14.22532 a 9.9948263,9.9948263 0 1 0 9.89588,-17.31777 l -20.717,-12.06306 v -33.70532 a 9.8958676,9.8958676 0 0 0 -10.82113,-10.2076 z"
         id="path17" />
    </g>
  </g>
</svg>
