<?xml version="1.0" encoding="UTF-8" standalone="no"?>
<!-- Created with Inkscape (http://www.inkscape.org/) -->

<svg
   xmlns:osb="http://www.openswatchbook.org/uri/2009/osb"
   xmlns:dc="http://purl.org/dc/elements/1.1/"
   xmlns:cc="http://creativecommons.org/ns#"
   xmlns:rdf="http://www.w3.org/1999/02/22-rdf-syntax-ns#"
   xmlns:svg="http://www.w3.org/2000/svg"
   xmlns="http://www.w3.org/2000/svg"
   xmlns:xlink="http://www.w3.org/1999/xlink"
   xmlns:sodipodi="http://sodipodi.sourceforge.net/DTD/sodipodi-0.dtd"
   xmlns:inkscape="http://www.inkscape.org/namespaces/inkscape"
   width="128"
   height="128"
   viewBox="0 0 33.866666 33.866668"
   version="1.1"
   id="svg8"
   inkscape:version="0.92.2 5c3e80d, 2017-08-06"
   sodipodi:docname="folder-private.svg">
  <defs
     id="defs2">
    <linearGradient
       inkscape:collect="always"
       xlink:href="#linearGradient7009"
       id="linearGradient7011"
       x1="123.07384"
       y1="84.320671"
       x2="124.11147"
       y2="132.42918"
       gradientUnits="userSpaceOnUse"
       gradientTransform="matrix(0.25255681,0,0,0.25768595,-15.968322,248.84654)" />
    <linearGradient
       inkscape:collect="always"
       id="linearGradient7009">
      <stop
         style="stop-color:#63c4f2;stop-opacity:1"
         offset="0"
         id="stop7005" />
      <stop
         style="stop-color:#7cd4fa;stop-opacity:1"
         offset="1"
         id="stop7007" />
    </linearGradient>
    <linearGradient
       id="linearGradient1009"
       inkscape:collect="always">
      <stop
         id="stop1005"
         offset="0"
         style="stop-color:#4eb1e3;stop-opacity:1" />
      <stop
         id="stop1007"
         offset="1"
         style="stop-color:#5bc0eb;stop-opacity:1" />
    </linearGradient>
    <linearGradient
       osb:paint="solid"
       id="linearGradient6987">
      <stop
         id="stop6985"
         offset="0"
         style="stop-color:#77d2fb;stop-opacity:1;" />
    </linearGradient>
    <linearGradient
       gradientTransform="matrix(0.06832858,0,0,0.06942373,30.688271,236.21849)"
       gradientUnits="userSpaceOnUse"
       y2="759.93457"
       x2="-203.23453"
       y1="550.70117"
       x1="-200.8457"
       id="linearGradient1003"
       xlink:href="#linearGradient1009"
       inkscape:collect="always" />
  </defs>
  <sodipodi:namedview
     id="base"
     pagecolor="#ffffff"
     bordercolor="#666666"
     borderopacity="1.0"
     inkscape:pageopacity="0.0"
     inkscape:pageshadow="2"
     inkscape:zoom="1.28"
     inkscape:cx="54.563069"
     inkscape:cy="95.546099"
     inkscape:document-units="mm"
     inkscape:current-layer="layer1"
     showgrid="false"
     inkscape:window-width="1600"
     inkscape:window-height="814"
     inkscape:window-x="0"
     inkscape:window-y="0"
     inkscape:window-maximized="1"
     units="px" />
  <metadata
     id="metadata5">
    <rdf:RDF>
      <cc:Work
         rdf:about="">
        <dc:format>image/svg+xml</dc:format>
        <dc:type
           rdf:resource="http://purl.org/dc/dcmitype/StillImage" />
        <dc:title />
      </cc:Work>
    </rdf:RDF>
  </metadata>
  <g
     inkscape:label="Layer 1"
     inkscape:groupmode="layer"
     id="layer1"
     transform="translate(0,-263.13331)">
    <path
       id="path3726"
       style="opacity:0.25;fill:#000000;fill-opacity:1;stroke-width:0.07295433"
       d="m 1.839255,271.34745 c -0.87238339,0 -1.57463018,0.71666 -1.57463018,1.60675 v 7.47097 11.72207 0.72653 c 0,0.4876 0.38465877,0.88009 0.86255748,0.88009 h 0.7120727 30.188153 0.712078 c 0.477897,0 0.862556,-0.39249 0.862556,-0.88009 v -0.72653 -11.72207 -7.47097 c 0,-0.89009 -0.702246,-1.60675 -1.574634,-1.60675 z m 0.3993405,-4.42484 c -1.0935623,0 -1.97401229,0.89107 -1.97401229,1.998 v 2.39332 2.43155 8.27983 c 0,0.92145 0.73293882,1.66319 1.64324119,1.66319 H 31.95898 c 0.910304,0 1.643103,-0.74174 1.643103,-1.66319 v -10.71138 c 0,-0.92143 -0.732793,-1.66317 -1.643103,-1.66317 l -19.749002,-8e-5 c -0.975266,-0.0917 -1.017482,-2.4232 -2.7327582,-2.72807 z"
       inkscape:connector-curvature="0" />
    <path
       inkscape:connector-curvature="0"
       d="m 1.839255,270.80428 c -0.87238339,0 -1.57463018,0.71663 -1.57463018,1.60674 v 7.47098 11.72205 0.72655 c 0,0.4876 0.38465877,0.88007 0.86255748,0.88007 h 0.7120727 30.188153 0.712078 c 0.477897,0 0.862556,-0.39247 0.862556,-0.88007 v -0.72655 -11.72205 -7.47098 c 0,-0.89011 -0.702246,-1.60674 -1.574634,-1.60674 z m 0.3993405,-4.42484 c -1.0935623,0 -1.97401229,0.89105 -1.97401229,1.99798 v 2.39332 2.43157 8.27983 c 0,0.92142 0.73293882,1.66316 1.64324119,1.66316 H 31.95898 c 0.910304,0 1.643103,-0.74174 1.643103,-1.66316 v -10.7114 c 0,-0.92141 -0.732793,-1.66317 -1.643103,-1.66317 l -19.749002,-8e-5 c -0.975266,-0.0915 -1.017482,-2.42318 -2.7327582,-2.72805 z"
       style="fill:#97ddff;fill-opacity:1;stroke-width:0.07295433"
       id="path7028" />
    <path
       inkscape:connector-curvature="0"
       id="rect5176"
       d="m 1.8392858,270.80428 c -0.87238343,0 -1.57463021,0.71663 -1.57463021,1.60674 v 7.47098 11.72205 0.72655 c 0,0.4876 0.38465878,0.88007 0.86255751,0.88007 h 0.7120727 30.1881532 0.712076 c 0.4779,0 0.862556,-0.39247 0.862556,-0.88007 v -0.72655 -11.72205 -7.47098 c 0,-0.89011 -0.702244,-1.60674 -1.574632,-1.60674 z"
       style="fill:url(#linearGradient7011);fill-opacity:1;stroke-width:0.07295433" />
    <rect
       style="fill:#5ebae5;fill-opacity:1;stroke:none;stroke-width:0.14778438;stroke-linecap:round;stroke-linejoin:round;stroke-miterlimit:4;stroke-dasharray:none;stroke-opacity:1"
       id="rect5180"
       width="30.427078"
       height="0.26995665"
       x="1.7198211"
       y="291.00845"
       ry="0.13497832" />
    <rect
       ry="0.13497832"
       y="291.84982"
       x="1.7198211"
       height="0.26995665"
       width="30.427078"
       id="rect5182"
       style="fill:#5ebae5;fill-opacity:1;stroke:none;stroke-width:0.14778438;stroke-linecap:round;stroke-linejoin:round;stroke-miterlimit:4;stroke-dasharray:none;stroke-opacity:1" />
    <path
       style="fill:#90d3f2;fill-opacity:1;stroke-width:0.07295433"
       d="m 2.2390733,266.37944 c -1.0935605,0 -1.97438151,0.89084 -1.97438151,1.99777 v 0.36196 c 0,-1.10693 0.88081921,-1.99777 1.97438151,-1.99777 h 7.238172 c 1.7152727,0.30487 1.7576317,2.63664 2.7329017,2.72822 h 19.748535 c 0.91031,0 1.643295,0.74153 1.643295,1.66293 v -0.36196 c 0,-0.92141 -0.732985,-1.66292 -1.643295,-1.66292 H 12.210147 c -0.97527,-0.0915 -1.017629,-2.42336 -2.7329017,-2.72823 z"
       id="path3721"
       inkscape:connector-curvature="0" />
    <path
       id="path921"
       style="fill:url(#linearGradient1003);fill-opacity:1;stroke-width:0.13569221"
       d="m 16.964768,274.45022 c -0.03844,10e-4 -0.07622,0.003 -0.113169,0.007 -0.254451,0.0259 -1.199172,0.34048 -1.526183,0.50821 -0.115241,0.0591 -0.319683,0.21082 -0.454278,0.33722 -0.134597,0.1264 -0.305311,0.25195 -0.37941,0.27905 -0.440146,0.16094 -0.790479,0.88548 -0.747478,1.54576 0.05692,0.874 0.145121,1.65718 0.221534,1.96651 0.0165,0.0668 0.0057,0.0807 -0.06259,0.0812 -0.113362,7.9e-4 -0.15925,0.0364 -0.205386,0.15973 -0.0544,0.14536 -0.01697,0.38232 0.14026,0.89003 0.07277,0.23499 0.143884,0.5146 0.15801,0.62129 0.03085,0.23291 0.162645,0.39349 0.323093,0.39349 0.05562,0 0.126316,0.02 0.157076,0.0445 0.07401,0.0589 0.131583,0.34763 0.16535,0.82915 0.03202,0.45665 0.08937,0.61562 0.329898,0.91566 l 0.163482,0.20393 -0.03323,0.38305 c -0.05918,0.68303 -0.141044,1.15339 -0.220467,1.26671 -0.108222,0.15443 -0.407474,0.27858 -1.306116,0.54197 -1.117729,0.3276 -1.598203,0.51713 -2.830566,1.1162 -0.62148,0.30212 -0.8580585,0.46016 -1.1211485,0.74889 -0.367295,0.40308 -0.565074,0.76489 -0.690358,1.26264 -0.08446,0.33556 -0.158228,0.88654 -0.129051,0.9638 0.01876,0.0497 0.832773,0.0542 8.1429785,0.0461 l 8.12216,-0.009 -0.0063,-0.22386 c -0.0079,-0.28676 -0.129062,-0.84975 -0.246891,-1.14699 -0.192415,-0.4854 -0.605323,-1.01569 -1.006512,-1.29261 -0.203079,-0.14018 -0.923929,-0.49289 -1.631345,-0.79823 -0.426445,-0.18407 -1.179758,-0.43401 -1.804701,-0.59892 -0.985208,-0.25997 -1.345415,-0.41453 -1.456253,-0.62495 -0.07012,-0.13312 -0.135539,-0.5998 -0.160279,-1.14319 l -0.02375,-0.52366 0.131052,-0.14739 c 0.07209,-0.0811 0.184964,-0.26158 0.250761,-0.40108 0.104136,-0.22078 0.119575,-0.28912 0.119575,-0.52746 0,-0.41907 0.08412,-0.81438 0.194042,-0.912 0.04962,-0.0441 0.132639,-0.0804 0.184567,-0.0807 0.05193,-2.7e-4 0.111852,-0.0123 0.133054,-0.0267 0.06068,-0.0412 0.119042,-0.1733 0.119042,-0.26942 0,-0.0483 0.06317,-0.29334 0.14026,-0.54441 0.168541,-0.54889 0.190893,-0.8995 0.06753,-1.05885 -0.03995,-0.0516 -0.10298,-0.0938 -0.140127,-0.0938 -0.07626,0 -0.08455,-0.0612 -0.03336,-0.24922 0.08593,-0.31572 0.181548,-1.02523 0.200582,-1.48868 0.0367,-0.89382 -0.06412,-1.26468 -0.531148,-1.95498 -0.1882,-0.27817 -0.203144,-0.28553 -1.666043,-0.81261 -0.362217,-0.13051 -0.669097,-0.19072 -0.938184,-0.18359 z"
       inkscape:connector-curvature="0" />
  </g>
</svg>
