<?xml version="1.0" encoding="UTF-8" standalone="no"?>
<!-- Created with Inkscape (http://www.inkscape.org/) -->

<svg
   xmlns:osb="http://www.openswatchbook.org/uri/2009/osb"
   xmlns:dc="http://purl.org/dc/elements/1.1/"
   xmlns:cc="http://creativecommons.org/ns#"
   xmlns:rdf="http://www.w3.org/1999/02/22-rdf-syntax-ns#"
   xmlns:svg="http://www.w3.org/2000/svg"
   xmlns="http://www.w3.org/2000/svg"
   xmlns:xlink="http://www.w3.org/1999/xlink"
   xmlns:sodipodi="http://sodipodi.sourceforge.net/DTD/sodipodi-0.dtd"
   xmlns:inkscape="http://www.inkscape.org/namespaces/inkscape"
   width="128"
   height="128"
   viewBox="0 0 33.866666 33.866668"
   version="1.1"
   id="svg8"
   inkscape:version="0.92.2 5c3e80d, 2017-08-06"
   sodipodi:docname="folder-owncloud.svg">
  <defs
     id="defs2">
    <linearGradient
       inkscape:collect="always"
       id="linearGradient7009">
      <stop
         style="stop-color:#63c4f2;stop-opacity:1"
         offset="0"
         id="stop7005" />
      <stop
         style="stop-color:#7cd4fa;stop-opacity:1"
         offset="1"
         id="stop7007" />
    </linearGradient>
    <linearGradient
       inkscape:collect="always"
       id="linearGradient4574">
      <stop
         style="stop-color:#50b2e3;stop-opacity:1"
         offset="0"
         id="stop4570" />
      <stop
         style="stop-color:#5ec2ee;stop-opacity:1"
         offset="1"
         id="stop4572" />
    </linearGradient>
    <linearGradient
       osb:paint="solid"
       id="linearGradient6987">
      <stop
         id="stop6985"
         offset="0"
         style="stop-color:#77d2fb;stop-opacity:1;" />
    </linearGradient>
    <linearGradient
       gradientTransform="matrix(0.50054858,0,0,0.50054858,157.1074,217.73959)"
       gradientUnits="userSpaceOnUse"
       y2="137.51018"
       x2="-282.2247"
       y1="115.01884"
       x1="-282.2247"
       id="linearGradient847"
       xlink:href="#linearGradient4574"
       inkscape:collect="always" />
    <linearGradient
       inkscape:collect="always"
       id="linearGradient1006">
      <stop
         style="stop-color:#59b0d9;stop-opacity:1"
         offset="0"
         id="stop1002" />
      <stop
         style="stop-color:#7cd4fa;stop-opacity:1"
         offset="1"
         id="stop1004" />
    </linearGradient>
    <linearGradient
       gradientTransform="matrix(0.25104166,0,0,0.25614281,-15.770937,249.30337)"
       gradientUnits="userSpaceOnUse"
       y2="132.42918"
       x2="124.11147"
       y1="84.320671"
       x1="123.07384"
       id="linearGradient7011-3"
       xlink:href="#linearGradient7009"
       inkscape:collect="always" />
    <linearGradient
       gradientTransform="matrix(0.26137453,0,0,0.28556168,0.207633,261.0264)"
       gradientUnits="userSpaceOnUse"
       y2="110.65087"
       x2="70.726562"
       y1="113.65864"
       x1="70.726562"
       id="linearGradient1033"
       xlink:href="#linearGradient1006"
       inkscape:collect="always" />
    <linearGradient
       gradientTransform="matrix(0.26295085,0,0,0.26458333,0.10257,263.13331)"
       gradientUnits="userSpaceOnUse"
       y2="107.45322"
       x2="60.902935"
       y1="111.36977"
       x1="60.902935"
       id="linearGradient986"
       xlink:href="#linearGradient1006"
       inkscape:collect="always" />
    <linearGradient
       gradientTransform="matrix(0.26302556,0,0,0.26458333,0.099041,263.13331)"
       gradientUnits="userSpaceOnUse"
       y2="103.91254"
       x2="59.245655"
       y1="107.43008"
       x1="59.245655"
       id="linearGradient994"
       xlink:href="#linearGradient1006"
       inkscape:collect="always" />
  </defs>
  <sodipodi:namedview
     id="base"
     pagecolor="#ffffff"
     bordercolor="#666666"
     borderopacity="1.0"
     inkscape:pageopacity="0.0"
     inkscape:pageshadow="2"
     inkscape:zoom="3.6203867"
     inkscape:cx="67.3623"
     inkscape:cy="26.526172"
     inkscape:document-units="mm"
     inkscape:current-layer="layer1"
     showgrid="false"
     inkscape:window-width="1600"
     inkscape:window-height="814"
     inkscape:window-x="0"
     inkscape:window-y="0"
     inkscape:window-maximized="1"
     units="px" />
  <metadata
     id="metadata5">
    <rdf:RDF>
      <cc:Work
         rdf:about="">
        <dc:format>image/svg+xml</dc:format>
        <dc:type
           rdf:resource="http://purl.org/dc/dcmitype/StillImage" />
        <dc:title />
      </cc:Work>
    </rdf:RDF>
  </metadata>
  <g
     inkscape:label="Layer 1"
     inkscape:groupmode="layer"
     id="layer1"
     transform="translate(0,-263.13331)">
    <path
       inkscape:connector-curvature="0"
       style="fill:#97ddff;fill-opacity:1;stroke:#59b0d9;stroke-width:0.2;stroke-miterlimit:4;stroke-dasharray:none;stroke-opacity:1"
       d="m 2.32678,266.73146 c -1.087001,0 -1.962197,0.88554 -1.962197,1.98584 v 2.37881 1.63039 0.78694 6.6397 1.59032 10.06124 0.72222 c 0,0.48468 0.382274,0.87478 0.857306,0.87478 h 0.707829 30.007232 0.707827 c 0.475032,0 0.857306,-0.3901 0.857306,-0.87478 v -0.72222 -10.06124 -1.59032 -7.42664 -1.63039 c 0,-0.91589 -0.728604,-1.65299 -1.633452,-1.65299 H 12.238444 c -0.969415,-0.091 -1.011271,-2.40862 -2.716257,-2.71166 z"
       id="path7028-3" />
    <path
       inkscape:connector-curvature="0"
       id="rect5176-9"
       d="m 1.929839,271.12962 c -0.86715,0 -1.565184,0.71234 -1.565184,1.59712 v 7.42624 11.65185 0.7222 c 0,0.48468 0.382351,0.8748 0.857383,0.8748 h 0.707801 30.007047 0.707804 c 0.475033,0 0.857381,-0.39012 0.857381,-0.8748 v -0.7222 -11.65185 -7.42624 c 0,-0.88478 -0.698031,-1.59712 -1.565185,-1.59712 z"
       style="fill:url(#linearGradient7011-3);fill-opacity:1;stroke:#59b0d9;stroke-width:0.2;stroke-miterlimit:4;stroke-dasharray:none;stroke-opacity:1" />
    <path
       style="fill:url(#linearGradient1033);fill-opacity:1;stroke:none;stroke-width:0.2;stroke-miterlimit:4;stroke-dasharray:none;stroke-opacity:1"
       d="m 0.469008,292.39133 v 0.14724 c 0,0.52625 0.379917,0.94982 0.852019,0.94982 h 0.703466 29.822221 0.703464 c 0.472105,0 0.85202,-0.42357 0.85202,-0.94982 v -0.14724 z"
       id="path1020"
       inkscape:connector-curvature="0" />
    <path
       style="fill:url(#linearGradient994);fill-opacity:1;stroke:none;stroke-width:0.19999999;stroke-miterlimit:4;stroke-dasharray:none;stroke-opacity:1"
       d="m 0.461729,290.61897 v 0.93793 h 32.941897 v -0.93793 z"
       id="path966"
       inkscape:connector-curvature="0" />
    <path
       style="fill:url(#linearGradient986);fill-opacity:1;stroke:none;stroke-width:0.2;stroke-miterlimit:4;stroke-dasharray:none;stroke-opacity:1"
       d="m 0.465155,291.6773 v 0.12764 0.72192 c 0,0.0303 0.0053,0.0589 0.0082,0.0884 h 32.916103 c 0.0029,-0.0295 0.0082,-0.0581 0.0082,-0.0884 v -0.72192 -0.12764 z"
       id="path973"
       inkscape:connector-curvature="0" />
    <path
       inkscape:connector-curvature="0"
       style="fill:url(#linearGradient847);fill-opacity:1;stroke-width:0.13243681"
       d="m 15.840225,275.3121 c -1.675411,0.005 -3.024905,1.36268 -3.019814,3.03779 0.0025,0.69044 0.234076,1.32521 0.623263,1.83299 0.838183,-0.97603 2.077662,-1.59795 3.463751,-1.60216 0.678108,-0.003 1.321653,0.14553 1.901864,0.41001 0.0464,-0.21231 0.06992,-0.43303 0.06929,-0.65926 -0.005,-1.67513 -1.362814,-3.02446 -3.03824,-3.01937 z m -3.951356,1.4135 c -0.872566,0.003 -1.571752,0.71183 -1.569089,1.58446 10e-4,0.28217 0.07455,0.54892 0.204364,0.77687 0.525606,-0.2984 1.133822,-0.4725 1.780386,-0.47446 0.06229,-5.2e-4 0.122579,-5.2e-4 0.184142,-5.2e-4 -0.0075,-0.0879 -0.01276,-0.17814 -0.01251,-0.26694 -0.001,-0.4858 0.102688,-0.94851 0.28686,-1.36656 -0.25024,-0.16794 -0.549718,-0.25978 -0.873893,-0.25879 z m 7.475008,1.06404 c -0.06442,10e-4 -0.126539,5.2e-4 -0.190028,0.0215 0.02778,0.17205 0.0489,0.34745 0.049,0.52827 0.001,0.28089 -0.03439,0.55264 -0.09843,0.81373 0.76565,0.42058 1.402423,1.05141 1.823003,1.8177 0.433125,-0.22741 0.916605,-0.37246 1.430183,-0.40837 -0.137135,-1.55159 -1.426879,-2.76867 -3.013768,-2.76383 z m -2.455416,1.13558 c -2.34443,0.006 -4.234916,1.90897 -4.227784,4.25295 0.0075,2.34393 1.908992,4.23411 4.253577,4.22698 2.34456,-0.006 4.234901,-1.90883 4.227774,-4.25279 -0.0075,-2.34424 -1.909143,-4.23426 -4.253567,-4.22714 z m -4.60295,0.0353 c -1.818893,0.005 -3.2858963,1.48136 -3.2803653,3.29974 0.0035,1.07058 0.516286,2.01677 1.3086693,2.61479 0.331338,-0.64346 0.999381,-1.08373 1.772598,-1.08606 0.09356,6e-5 0.183201,0.0206 0.273304,0.0234 -0.02913,-0.20567 -0.0429,-0.41597 -0.04355,-0.6294 -0.0025,-1.02003 0.326172,-1.96454 0.888514,-2.72825 -0.339322,-0.42186 -0.582769,-0.92938 -0.687544,-1.4826 -0.0763,10e-4 -0.153929,-0.0208 -0.231714,-0.0205 z m 10.316325,1.92836 c -0.552284,0.001 -1.06917,0.14381 -1.52525,0.38436 0.261111,0.57391 0.407562,1.2105 0.409599,1.8815 0.0035,1.25576 -0.497711,2.39744 -1.314681,3.22839 0.604052,0.66618 1.478771,1.08217 2.450285,1.07921 1.818905,-0.005 3.285901,-1.48119 3.280391,-3.29958 -0.005,-1.81869 -1.481565,-3.27942 -3.300377,-3.2739 z m -13.9204103,0.47574 c -1.67483,0.004 -3.030261,1.35572 -3.025175,3.03126 0.005,1.67479 1.36877,3.03009 3.044261,3.025 0.637709,-0.001 1.227856,-0.20178 1.7148393,-0.53973 -0.202602,-0.3125 -0.322823,-0.68675 -0.32402,-1.0858 -10e-4,-0.20704 0.02928,-0.40609 0.0873,-0.594 -0.9156183,-0.65742 -1.5139043,-1.72946 -1.5175683,-2.94079 -10e-4,-0.30771 0.03864,-0.60534 0.110191,-0.89099 -0.02988,-0.001 -0.05891,-8e-5 -0.08905,5.2e-4 z m 17.8201413,2.54681 c -0.0893,5.2e-4 -0.175819,0.0218 -0.261337,0.0243 0.005,0.0767 0.0063,0.14781 0.0075,0.2259 0.0026,0.96535 -0.375601,1.84355 -0.990226,2.49679 0.304439,0.3517 0.750709,0.5737 1.254961,0.5722 0.918486,-0.003 1.660809,-0.74338 1.658017,-1.66187 -0.0026,-0.91835 -0.749588,-1.66035 -1.668097,-1.65756 z m -14.414178,0.22203 c -0.918407,0.003 -1.654789,0.74332 -1.652001,1.66154 0.0025,0.91836 0.743685,1.66051 1.662092,1.65772 0.704017,-10e-4 1.3002,-0.44304 1.540989,-1.06151 -0.593951,-0.60115 -1.02186,-1.36924 -1.212489,-2.22299 -0.110066,-0.0224 -0.221833,-0.0363 -0.338641,-0.0359 z"
       id="path15-7" />
  </g>
</svg>
