<?xml version="1.0" encoding="UTF-8" standalone="no"?>
<!-- Created with Inkscape (http://www.inkscape.org/) -->

<svg
   xmlns:osb="http://www.openswatchbook.org/uri/2009/osb"
   xmlns:dc="http://purl.org/dc/elements/1.1/"
   xmlns:cc="http://creativecommons.org/ns#"
   xmlns:rdf="http://www.w3.org/1999/02/22-rdf-syntax-ns#"
   xmlns:svg="http://www.w3.org/2000/svg"
   xmlns="http://www.w3.org/2000/svg"
   xmlns:xlink="http://www.w3.org/1999/xlink"
   xmlns:sodipodi="http://sodipodi.sourceforge.net/DTD/sodipodi-0.dtd"
   xmlns:inkscape="http://www.inkscape.org/namespaces/inkscape"
   width="128"
   height="128"
   viewBox="0 0 33.866666 33.866668"
   version="1.1"
   id="svg8"
   inkscape:version="0.92.1 r15371"
   sodipodi:docname="folder-mail.svg">
  <defs
     id="defs2">
    <linearGradient
       inkscape:collect="always"
       id="linearGradient4527">
      <stop
         style="stop-color:#54a6cc;stop-opacity:1"
         offset="0"
         id="stop4523" />
      <stop
         style="stop-color:#7cd4fa;stop-opacity:1"
         offset="1"
         id="stop4525" />
    </linearGradient>
    <linearGradient
       inkscape:collect="always"
       id="linearGradient4521">
      <stop
         style="stop-color:#54a6cc;stop-opacity:1"
         offset="0"
         id="stop4517" />
      <stop
         style="stop-color:#7cd4fa;stop-opacity:1"
         offset="1"
         id="stop4519" />
    </linearGradient>
    <linearGradient
       id="linearGradient1006"
       inkscape:collect="always">
      <stop
         id="stop1002"
         offset="0"
         style="stop-color:#54a6cc;stop-opacity:1" />
      <stop
         id="stop1004"
         offset="1"
         style="stop-color:#7cd4fa;stop-opacity:1" />
    </linearGradient>
    <linearGradient
       inkscape:collect="always"
       id="linearGradient7009">
      <stop
         style="stop-color:#63c4f2;stop-opacity:1"
         offset="0"
         id="stop7005" />
      <stop
         style="stop-color:#7cd4fa;stop-opacity:1"
         offset="1"
         id="stop7007" />
    </linearGradient>
    <linearGradient
       id="linearGradient6987"
       osb:paint="solid">
      <stop
         style="stop-color:#77d2fb;stop-opacity:1;"
         offset="0"
         id="stop6985" />
    </linearGradient>
    <linearGradient
       inkscape:collect="always"
       xlink:href="#linearGradient7009"
       id="linearGradient7011-3"
       x1="123.07384"
       y1="84.320671"
       x2="124.11147"
       y2="132.42918"
       gradientUnits="userSpaceOnUse"
       gradientTransform="matrix(0.23908729,0,0,0.24394553,-14.21359,250.56636)" />
    <linearGradient
       inkscape:collect="always"
       xlink:href="#linearGradient1006"
       id="linearGradient1033-6"
       x1="70.726562"
       y1="113.65864"
       x2="70.726562"
       y2="110.65087"
       gradientUnits="userSpaceOnUse"
       gradientTransform="matrix(0.24892812,0,0,0.2719635,1.0040953,261.55779)" />
    <linearGradient
       inkscape:collect="always"
       xlink:href="#linearGradient4527"
       id="linearGradient986-2"
       x1="60.902935"
       y1="111.36977"
       x2="60.902935"
       y2="107.45322"
       gradientUnits="userSpaceOnUse"
       gradientTransform="matrix(0.25042938,0,0,0.25198412,0.90403537,263.56437)" />
    <linearGradient
       inkscape:collect="always"
       xlink:href="#linearGradient4521"
       id="linearGradient994-9"
       x1="59.245655"
       y1="107.43008"
       x2="59.245655"
       y2="103.91254"
       gradientUnits="userSpaceOnUse"
       gradientTransform="matrix(0.25050053,0,0,0.25198412,0.90067442,263.56437)" />
    <linearGradient
       inkscape:collect="always"
       id="linearGradient8382">
      <stop
         style="stop-color:#4db0e3;stop-opacity:1"
         offset="0"
         id="stop8378" />
      <stop
         style="stop-color:#5ebfea;stop-opacity:1"
         offset="1"
         id="stop8380" />
    </linearGradient>
    <linearGradient
       inkscape:collect="always"
       xlink:href="#linearGradient8382"
       id="linearGradient4670"
       x1="8.7060404"
       y1="276.0004"
       x2="9.3373737"
       y2="289.75143"
       gradientUnits="userSpaceOnUse"
       gradientTransform="translate(7.2568989,-1.7370314)" />
  </defs>
  <sodipodi:namedview
     id="base"
     pagecolor="#ffffff"
     bordercolor="#666666"
     borderopacity="1.0"
     inkscape:pageopacity="0.0"
     inkscape:pageshadow="2"
     inkscape:zoom="4.0271941"
     inkscape:cx="49.718739"
     inkscape:cy="53.487641"
     inkscape:document-units="mm"
     inkscape:current-layer="layer1"
     showgrid="false"
     inkscape:window-width="1280"
     inkscape:window-height="960"
     inkscape:window-x="0"
     inkscape:window-y="27"
     inkscape:window-maximized="1"
     units="px"
     showguides="false" />
  <metadata
     id="metadata5">
    <rdf:RDF>
      <cc:Work
         rdf:about="">
        <dc:format>image/svg+xml</dc:format>
        <dc:type
           rdf:resource="http://purl.org/dc/dcmitype/StillImage" />
        <dc:title />
      </cc:Work>
    </rdf:RDF>
  </metadata>
  <g
     inkscape:label="Layer 1"
     inkscape:groupmode="layer"
     id="layer1"
     transform="translate(0,-263.13331)">
    <path
       id="path1228"
       d="m 3.0223306,267.66851 c -1.0352391,0 -1.8687591,0.84338 -1.8687591,1.89128 v 2.26553 1.55276 0.74946 6.32353 1.51459 9.58213 0.68783 c 0,0.4616 0.3640705,0.83312 0.8164819,0.83312 h 0.6741229 28.5783157 0.674121 c 0.452412,0 0.816482,-0.37152 0.816482,-0.83312 v -0.68783 -9.58213 -1.51459 -7.07299 -1.55276 c 0,-0.87227 -0.693908,-1.57427 -1.555668,-1.57427 H 12.46201 c -0.923252,-0.0867 -0.963115,-2.29393 -2.5869109,-2.58254 z"
       style="opacity:0.25;fill:#000000;fill-opacity:1;stroke:none;stroke-width:0.19047619;stroke-miterlimit:4;stroke-dasharray:none;stroke-opacity:1"
       inkscape:connector-curvature="0" />
    <path
       inkscape:connector-curvature="0"
       style="fill:#97ddff;fill-opacity:1;stroke:#4891b2;stroke-width:0.2;stroke-miterlimit:4;stroke-dasharray:none;stroke-opacity:1"
       d="m 3.0223306,267.16454 c -1.0352391,0 -1.8687591,0.84337 -1.8687591,1.89128 v 2.26553 1.55275 0.74947 6.32352 1.51459 9.58214 0.68783 c 0,0.4616 0.3640705,0.83312 0.8164819,0.83312 h 0.6741229 28.5783157 0.674121 c 0.452412,0 0.816482,-0.37152 0.816482,-0.83312 v -0.68783 -9.58214 -1.51459 -7.07299 -1.55275 c 0,-0.87227 -0.693908,-1.57427 -1.555668,-1.57427 H 12.46201 c -0.923252,-0.0867 -0.963115,-2.29393 -2.5869109,-2.58254 z"
       id="path7028-3" />
    <path
       inkscape:connector-curvature="0"
       id="rect5176-9"
       d="m 2.6442915,271.35327 c -0.8258571,0 -1.4906514,0.67842 -1.4906514,1.52106 v 7.07261 11.097 0.68781 c 0,0.4616 0.3641438,0.83314 0.8165552,0.83314 H 2.6442915 31.222431 31.89653 c 0.452413,0 0.816554,-0.37154 0.816554,-0.83314 v -0.68781 -11.097 -7.07261 c 0,-0.84264 -0.664792,-1.52106 -1.490653,-1.52106 z"
       style="fill:url(#linearGradient7011-3);fill-opacity:1;stroke:#4891b2;stroke-width:0.2;stroke-miterlimit:4;stroke-dasharray:none;stroke-opacity:1" />
    <path
       style="fill:url(#linearGradient1033-6);fill-opacity:1;stroke:none;stroke-width:0.19047619;stroke-miterlimit:4;stroke-dasharray:none;stroke-opacity:1"
       d="m 1.2530239,291.42915 -0.00248,0.23015 c -0.002,0.18209 0.027267,0.375 0.1382591,0.513 0.1386152,0.17235 0.29094,0.3079 0.5887333,0.30602 l 0.7569695,-0.005 H 31.136625 31.80659 c 0.295101,0 0.291488,-0.0227 0.421025,-0.0834 0.09483,-0.0445 0.178348,-0.11633 0.24407,-0.19788 0.05308,-0.0659 0.09082,-0.14531 0.114282,-0.22658 0.02857,-0.099 0.0279,-0.19197 0.02929,-0.30766 l 0.0028,-0.22932 z"
       id="path1020-0"
       inkscape:connector-curvature="0"
       sodipodi:nodetypes="csasccsaaascc" />
    <path
       style="fill:url(#linearGradient994-9);fill-opacity:1;stroke:none;stroke-width:0.19047618;stroke-miterlimit:4;stroke-dasharray:none;stroke-opacity:1"
       d="m 1.2460915,289.74119 v 0.89327 H 32.619327 v -0.89327 z"
       id="path966-9"
       inkscape:connector-curvature="0" />
    <path
       style="fill:url(#linearGradient986-2);fill-opacity:1;stroke:none;stroke-width:0.19047619;stroke-miterlimit:4;stroke-dasharray:none;stroke-opacity:1"
       d="m 1.2493544,290.74912 v 0.12156 0.68755 c 0,0.0288 -8.581e-4,0.06 0.0019,0.0881 l 31.3594966,-0.004 c 0.0028,-0.0281 0.0029,-0.0553 0.0029,-0.0842 v -0.68754 -0.12156 z"
       id="path973-3"
       inkscape:connector-curvature="0"
       sodipodi:nodetypes="ccsccsccc" />
    <g
       style="stroke-width:4.08449793"
       inkscape:transform-center-y="-9.4924686"
       inkscape:transform-center-x="5.4653607"
       inkscape:label="Capa 1"
       id="layer1-4-9-22"
       transform="matrix(0.51049916,0,0,0.51168467,-314.3213,-2.6029569)">
      <g
         style="stroke-width:4.08449793"
         id="layer1-3-65-0-7"
         inkscape:label="Capa 1"
         transform="translate(0.41988239,0.03484499)" />
    </g>
    <g
       style="stroke-width:4.08449793"
       inkscape:transform-center-y="-9.4924686"
       inkscape:transform-center-x="5.4653607"
       inkscape:label="Capa 1"
       id="layer1-4-3"
       transform="matrix(0.51049916,0,0,0.51168467,-314.3213,-2.5791474)">
      <g
         style="stroke-width:4.08449793"
         id="layer1-3-65-7"
         inkscape:label="Capa 1"
         transform="translate(0.41988239,0.03484499)" />
    </g>
    <g
       style="stroke-width:4.08449793"
       inkscape:transform-center-y="-9.4924686"
       inkscape:transform-center-x="5.4653607"
       inkscape:label="Capa 1"
       id="layer1-4-9-2"
       transform="matrix(0.51049916,0,0,0.51168467,-345.51563,-44.12492)">
      <g
         style="stroke-width:4.08449793"
         id="layer1-3-65-0-2"
         inkscape:label="Capa 1"
         transform="translate(0.41988239,0.03484499)" />
    </g>
    <g
       style="stroke-width:4.08449793"
       inkscape:transform-center-y="-9.4924686"
       inkscape:transform-center-x="5.4653607"
       inkscape:label="Capa 1"
       id="layer1-4-7"
       transform="matrix(0.51049916,0,0,0.51168467,-345.51563,-44.101109)">
      <g
         style="stroke-width:4.08449793"
         id="layer1-3-65-3"
         inkscape:label="Capa 1"
         transform="translate(0.41988239,0.03484499)" />
    </g>
    <g
       style="stroke-width:4.08449793"
       inkscape:transform-center-y="-9.4924686"
       inkscape:transform-center-x="5.4653607"
       inkscape:label="Capa 1"
       id="layer1-4-9"
       transform="matrix(0.51049916,0,0,0.51168467,-314.3213,-2.6029598)">
      <g
         style="stroke-width:4.08449793"
         id="layer1-3-65-0"
         inkscape:label="Capa 1"
         transform="translate(0.41988239,0.03484499)" />
    </g>
    <g
       style="stroke-width:4.08449793"
       inkscape:transform-center-y="-9.4924686"
       inkscape:transform-center-x="5.4653607"
       inkscape:label="Capa 1"
       id="layer1-4"
       transform="matrix(0.51049916,0,0,0.51168467,-314.3213,-2.5791502)">
      <g
         style="stroke-width:4.08449793"
         id="layer1-3-65"
         inkscape:label="Capa 1"
         transform="translate(0.41988239,0.03484499)" />
    </g>
    <path
       id="path3787"
       style="fill:url(#linearGradient4670);fill-opacity:1;stroke:#3e7d99;stroke-width:0.05;stroke-miterlimit:4;stroke-dasharray:none;stroke-opacity:1"
       d="m 16.946679,273.82755 c -0.937114,-10e-4 -1.881219,0.18174 -2.781741,0.55603 -1.972945,0.82002 -3.505637,2.54432 -4.101561,4.61471 -0.3946955,1.3713 -0.362366,2.91318 0.0894,4.25349 0.151866,0.45055 0.497015,1.19272 0.706935,1.52032 1.241346,1.93721 3.236175,3.1768 5.421892,3.3693 1.387877,0.12222 2.781676,-0.15552 3.956863,-0.78858 0.727588,-0.39195 1.252494,-0.79146 1.837614,-1.39837 0.554892,-0.57556 0.965294,-1.15889 1.290361,-1.83399 0.475259,-0.98703 0.6739,-1.83068 0.70435,-2.99052 0.01554,-0.59285 0.0085,-0.74824 -0.05374,-1.15755 -0.03951,-0.26008 -0.108972,-0.61595 -0.154512,-0.79117 -0.394159,-1.51651 -1.295312,-2.88582 -2.527495,-3.84059 -1.284796,-0.99553 -2.826508,-1.5107 -4.388362,-1.51308 z m 0.0016,1.0206 c 0.31487,1e-5 0.629486,0.0117 0.800984,0.0357 0.391424,0.0546 0.988375,0.2072 1.369941,0.34985 2.088174,0.78068 3.598432,2.64119 3.945496,4.86069 0.07406,0.47097 0.07601,1.3742 0.0047,1.83761 -0.112617,0.73133 -0.430123,1.62227 -0.794784,2.22932 -1.035309,1.7235 -2.76532,2.81693 -4.770767,3.01532 h -5.29e-4 c -1.344014,0.13297 -2.890745,-0.25487 -3.998722,-1.00252 -1.452782,-0.98033 -2.392219,-2.4465 -2.688206,-4.19406 -0.06398,-0.37729 -0.07155,-0.51707 -0.05736,-1.10019 0.01876,-0.77036 0.08424,-1.1688 0.29404,-1.79059 0.187206,-0.55482 0.399089,-0.98911 0.716235,-1.46709 1.012967,-1.52668 2.543418,-2.48428 4.376475,-2.73834 0.172707,-0.0239 0.487667,-0.0357 0.802537,-0.0357 z m -0.0021,0.63614 c -0.09801,0 -0.187939,0.0155 -0.199985,0.0351 -0.0423,0.0685 -0.02273,0.54079 0.02376,0.56999 v 5.3e-4 c 0.04685,0.0294 0.30359,0.0146 0.360701,-0.0207 0.03652,-0.0226 0.04768,-0.44447 0.01394,-0.53227 -0.01497,-0.0391 -0.06675,-0.0527 -0.198437,-0.0527 z m 0.950847,0.0863 c -0.03696,-0.004 -0.06784,-0.003 -0.08475,0.003 -0.02432,0.009 -0.05295,0.0718 -0.06356,0.13901 -0.01061,0.0671 -0.03262,0.18145 -0.04909,0.25425 -0.03585,0.15845 -0.0041,0.20963 0.144176,0.22893 v -5.3e-4 c 0.229632,0.03 0.235257,0.0257 0.299723,-0.24081 0.03293,-0.13624 0.05314,-0.26608 0.04444,-0.28888 -0.01349,-0.0352 -0.180062,-0.0839 -0.290938,-0.0951 z m -1.962153,0.014 c -0.266554,9.8e-4 -0.323313,0.0512 -0.271301,0.23875 0.01701,0.0614 0.04702,0.17713 0.06666,0.25683 l 0.03566,0.14469 0.173114,-0.0233 c 0.09534,-0.0126 0.186002,-0.0341 0.201022,-0.0481 0.01508,-0.0141 0.01027,-0.12198 -0.01035,-0.23926 -0.05828,-0.3327 -0.05706,-0.33027 -0.194821,-0.3297 z m 2.920751,0.27802 c -0.02312,0.009 -0.077,0.11128 -0.119372,0.22789 -0.04233,0.11663 -0.0839,0.23074 -0.0925,0.25374 -0.0093,0.0247 0.04379,0.069 0.129707,0.108 0.08007,0.0363 0.168262,0.0663 0.196371,0.0667 0.0534,7.7e-4 0.233069,-0.3668 0.233061,-0.47697 -8e-6,-0.0662 -0.273725,-0.20762 -0.347266,-0.17932 z m -3.846793,5.3e-4 c -0.06538,-0.0251 -0.349332,0.11103 -0.349332,0.16743 0,0.0269 0.04434,0.14757 0.0987,0.26872 0.05455,0.12158 0.120065,0.22066 0.146245,0.22066 0.06841,0 0.28108,-0.0934 0.306441,-0.13436 0.02897,-0.0469 -0.146736,-0.50125 -0.202054,-0.52245 z m 4.802291,0.48163 c -0.01114,0.001 -0.02045,0.006 -0.02894,0.0129 -0.04598,0.0382 -0.278535,0.4061 -0.278535,0.44079 0,0.0107 0.05592,0.0578 0.124539,0.10439 0.06857,0.0466 0.147802,0.0849 0.175702,0.0848 0.04472,-1.4e-4 0.334862,-0.38698 0.334862,-0.44648 0,-0.0127 -0.07028,-0.0669 -0.156062,-0.12144 -0.08885,-0.0563 -0.138152,-0.0791 -0.171566,-0.0749 z m -5.799645,0.008 c -0.06867,0 -0.269375,0.14717 -0.280604,0.20567 -0.0056,0.0289 0.0534,0.14505 0.131257,0.25787 0.07786,0.11285 0.154278,0.20515 0.1695,0.20515 0.06355,0 0.293521,-0.17212 0.293521,-0.21962 0,-0.0745 -0.261665,-0.44907 -0.313674,-0.44907 z m 7.101374,0.60151 c -0.05793,0.005 -0.211363,0.0896 -0.51263,0.2775 -0.244692,0.15265 -0.828503,0.51561 -1.297078,0.80667 -0.468577,0.29105 -0.927203,0.57766 -1.019058,0.63666 -0.190225,0.12211 -0.998488,0.6249 -1.519807,0.94516 -0.650301,0.39951 -0.674992,0.41984 -0.886767,0.73225 -0.109516,0.16156 -0.275796,0.39899 -0.369485,0.52762 -0.143984,0.19769 -0.810326,1.14278 -1.377693,1.9544 -0.0835,0.11945 -0.349568,0.49514 -0.59118,0.83509 -0.639331,0.89954 -0.922155,1.30821 -0.943094,1.36271 -0.02429,0.0633 -0.01545,0.0587 0.676444,-0.3793 0.312383,-0.19772 0.680744,-0.43025 0.818555,-0.51625 0.137819,-0.086 0.573857,-0.36051 0.968933,-0.6103 0.395073,-0.24978 1.026838,-0.6458 1.403533,-0.88005 0.3767,-0.23424 0.827452,-0.51815 1.002003,-0.63097 l 0.317294,-0.20515 0.683165,-0.98289 c 0.375565,-0.54067 0.811905,-1.17125 0.969965,-1.40095 0.278662,-0.40496 0.350927,-0.50886 0.848011,-1.21956 0.128524,-0.18376 0.279333,-0.40151 0.334863,-0.48421 0.05554,-0.0827 0.195835,-0.28047 0.311608,-0.43925 0.115764,-0.15878 0.210323,-0.29782 0.210323,-0.30902 0,-0.0149 -0.0086,-0.0219 -0.02791,-0.0202 z m -7.921996,0.0191 -0.0925,0.0687 c -0.051,0.0379 -0.114242,0.10708 -0.14056,0.15348 -0.04635,0.0816 -0.04196,0.0906 0.14986,0.2713 0.109037,0.10272 0.206465,0.18742 0.216524,0.18811 0.01005,6.6e-4 0.07776,-0.0594 0.149863,-0.13333 l 0.130741,-0.13436 -0.206706,-0.2067 z m 8.186579,0.81649 c -0.06132,0 -0.437182,0.27539 -0.437182,0.32039 0,0.0263 0.03411,0.10002 0.07545,0.16382 0.04134,0.0639 0.0954,0.11659 0.120406,0.11679 0.0759,6.9e-4 0.435182,-0.24698 0.437182,-0.30128 0.0022,-0.0598 -0.154653,-0.29972 -0.195854,-0.29972 z m -8.937955,0.0444 c -0.05427,0.0208 -0.200666,0.28566 -0.173117,0.31316 0.0096,0.01 0.104817,0.0755 0.211357,0.14625 0.106534,0.0708 0.210465,0.12914 0.230994,0.1297 0.03836,9.8e-4 0.213424,-0.24097 0.213424,-0.29507 0,-0.0514 -0.430848,-0.31394 -0.482658,-0.29404 z m 9.458337,0.92449 c -0.07809,4e-5 -0.489892,0.1837 -0.489892,0.21859 0,0.0228 0.09661,0.20439 0.145727,0.27389 0.01619,0.0229 0.03192,0.0419 0.03462,0.0419 0.01736,0 0.457789,-0.19269 0.471289,-0.20619 0.0091,-0.009 -0.0075,-0.0868 -0.03669,-0.1726 -0.04126,-0.121 -0.06918,-0.15555 -0.125057,-0.15555 z m -9.955982,0.006 c -0.04968,0.0113 -0.07452,0.0571 -0.108003,0.14469 -0.03165,0.0831 -0.04772,0.16102 -0.03566,0.17312 0.01207,0.012 0.115847,0.0627 0.230478,0.11265 0.114628,0.0499 0.226444,0.0921 0.248563,0.0941 0.02212,0.002 0.07084,-0.0661 0.108521,-0.15141 0.08317,-0.18802 0.06596,-0.21711 -0.186552,-0.31161 -0.133075,-0.0498 -0.207669,-0.0728 -0.25735,-0.0615 z m 10.226767,0.98598 c -0.03736,0.002 -0.08503,0.0105 -0.145728,0.0233 -0.2838,0.0598 -0.291346,0.0672 -0.264066,0.24959 0.01281,0.0851 0.03676,0.16292 0.05323,0.17312 0.01644,0.0103 0.144128,-0.003 0.283704,-0.0305 l 0.253731,-0.0491 -0.02222,-0.15348 c -0.0243,-0.16727 -0.04656,-0.21899 -0.158646,-0.21291 z m -10.570415,0.0326 c -0.04794,0.0184 -0.09298,0.20072 -0.0739,0.29972 0.0083,0.0432 0.06209,0.0731 0.1788,0.10025 0.09164,0.0213 0.211638,0.0399 0.267166,0.0419 0.09301,0.003 0.10387,-0.009 0.135911,-0.14676 0.01945,-0.0825 0.02564,-0.16494 0.01447,-0.18293 -0.0254,-0.041 -0.462788,-0.13504 -0.522449,-0.11214 z m 5.334042,0.7829 c 0.07563,-0.007 0.156556,0.007 0.234095,0.047 0.106167,0.0549 0.198954,0.20364 0.198954,0.31833 0,0.12016 -0.10359,0.29896 -0.203089,0.35036 -0.229616,0.11874 -0.49266,0.003 -0.568442,-0.24959 -0.07143,-0.23842 0.111583,-0.44523 0.338482,-0.46612 z m -5.380551,0.24339 c -0.09045,0.0134 -0.133323,0.0681 -0.133323,0.16898 0,0.0622 0.0092,0.13774 0.02066,0.16744 v 5.2e-4 c 0.01725,0.0449 0.06713,0.0524 0.292488,0.0444 l 0.271817,-0.01 0.0098,-0.1757 0.01035,-0.17519 -0.127125,-0.004 c -0.06987,-0.002 -0.17712,-0.01 -0.238228,-0.0165 -0.04098,-0.005 -0.0763,-0.004 -0.106455,0 z m 10.816395,0.0171 c -0.155221,-0.0122 -0.478255,0.009 -0.502295,0.0331 -0.01556,0.016 -0.01843,0.0985 -0.0057,0.18345 l 0.02274,0.15451 h 0.263549 0.26355 v -0.18397 c 0,-0.12294 -0.01389,-0.18507 -0.04186,-0.18707 z m -0.449069,0.96222 c -0.110617,-0.007 -0.132452,0.0425 -0.156062,0.2005 -0.02091,0.14008 -0.02058,0.14124 0.104386,0.17364 0.06901,0.018 0.162823,0.0385 0.208773,0.0465 0.207468,0.0357 0.202164,0.0399 0.250114,-0.19896 0.02551,-0.12714 0.0063,-0.14164 -0.26355,-0.19844 -0.05987,-0.0126 -0.106788,-0.0211 -0.143661,-0.0233 z m -9.949263,0.0419 c -0.132834,0.0104 -0.37142,0.0563 -0.42323,0.0884 -0.02858,0.0177 -0.01847,0.12798 0.02687,0.28888 0.01926,0.0685 0.05973,0.0701 0.329179,0.0134 l 0.200506,-0.0424 -0.0021,-0.15968 c -0.0013,-0.0903 -0.02048,-0.17072 -0.04444,-0.18552 -0.0099,-0.006 -0.04254,-0.007 -0.08682,-0.003 z m 0.321426,0.9033 c -0.01712,0 -0.132164,0.0449 -0.25528,0.10025 -0.2124,0.0953 -0.222383,0.10524 -0.20102,0.19224 0.01238,0.0504 0.04486,0.12648 0.07235,0.16898 0.0275,0.0425 0.06026,0.0727 0.07286,0.0667 0.01262,-0.006 0.118596,-0.0473 0.235129,-0.0915 0.195924,-0.0743 0.210352,-0.0871 0.194303,-0.16692 -0.0282,-0.14038 -0.08493,-0.26975 -0.118341,-0.26975 z m 9.287807,0 c -0.02418,0 -0.13746,0.26795 -0.13746,0.32505 0,0.007 0.09393,0.0551 0.208773,0.108 0.11485,0.0529 0.223972,0.0919 0.242363,0.0879 0.03782,-0.009 0.146128,-0.2138 0.148828,-0.2806 0.0014,-0.0392 -0.385514,-0.2403 -0.462504,-0.2403 z m -0.421163,0.8692 c -0.04072,5e-4 -0.184348,0.2147 -0.183968,0.2744 1.72e-4,0.0232 0.08675,0.0976 0.192236,0.16485 0.105488,0.0673 0.199573,0.12306 0.208773,0.12506 0.03956,0.007 0.204152,-0.23871 0.188102,-0.28061 -0.01978,-0.0516 -0.352233,-0.28427 -0.405143,-0.2837 z m -8.432044,0.0331 c -0.04601,-4e-4 -0.369327,0.2202 -0.411343,0.2806 -0.01243,0.0179 0.01799,0.0896 0.06718,0.15917 0.04917,0.0696 0.101462,0.12674 0.116271,0.12712 0.04644,10e-4 0.424265,-0.26759 0.424265,-0.30179 0,-0.0614 -0.150702,-0.26472 -0.196371,-0.2651 z m 7.830013,0.76791 c -0.02006,0 -0.08631,0.0518 -0.147278,0.11473 l -0.111104,0.1142 0.16278,0.16743 c 0.0895,0.0922 0.184321,0.1675 0.210841,0.1695 0.05507,0.002 0.235644,-0.15936 0.235644,-0.21136 0,-0.0463 -0.30493,-0.3545 -0.350883,-0.3545 z m -0.709518,0.60152 c -0.04779,0 -0.275952,0.17902 -0.275952,0.21652 0,0.0221 0.06185,0.12561 0.136943,0.23048 l 0.136427,0.19068 0.105418,-0.0667 c 0.170712,-0.10753 0.174048,-0.13546 0.04082,-0.36277 -0.06706,-0.11445 -0.131749,-0.20825 -0.143661,-0.20825 z m -5.785175,0.0336 c -0.0383,0 -0.270785,0.36499 -0.270785,0.42529 0,0.0238 0.04931,0.0731 0.109037,0.10956 0.05972,0.0365 0.124812,0.0661 0.145211,0.0661 0.04321,1.5e-4 0.280657,-0.34594 0.280086,-0.40824 -5.29e-4,-0.0427 -0.205539,-0.19275 -0.263549,-0.19275 z m 0.826304,0.46767 c -0.02267,0 -0.194818,0.41504 -0.194818,0.46974 0,0.019 0.04879,0.0564 0.108519,0.0827 0.175567,0.0774 0.221483,0.0527 0.311092,-0.16795 0.04477,-0.11025 0.08155,-0.21721 0.08165,-0.23771 1.3e-4,-0.0312 -0.241062,-0.14676 -0.306443,-0.14676 z m 4.081407,0 c -0.01976,0 -0.09517,0.0305 -0.167949,0.0677 -0.129887,0.0663 -0.160954,0.12149 -0.103352,0.18449 0.01595,0.0174 0.0554,0.10339 0.08785,0.19069 0.06502,0.17475 0.08509,0.18255 0.267165,0.10645 0.109464,-0.0458 0.122293,-0.0633 0.106455,-0.14211 -0.02927,-0.14593 -0.15132,-0.40721 -0.190169,-0.40721 z m -0.933278,0.31212 c -0.08778,0.0102 -0.247227,0.0534 -0.275434,0.0816 -0.02691,0.0269 0.0084,0.20742 0.09095,0.46612 0.0088,0.0273 0.04963,0.0341 0.122989,0.0202 0.216016,-0.041 0.219585,-0.047 0.174667,-0.31161 -0.0222,-0.1307 -0.04794,-0.24473 -0.05685,-0.25373 -0.0058,-0.006 -0.02707,-0.006 -0.05633,-0.003 z m -2.235523,0.0129 -0.02479,0.12971 c -0.01363,0.0713 -0.02598,0.18908 -0.02739,0.26148 -0.0024,0.11287 0.009,0.13515 0.08061,0.15555 0.147823,0.0422 0.22869,0.0325 0.245981,-0.0284 0.0478,-0.1685 0.09694,-0.44514 0.08165,-0.46044 -0.0097,-0.01 -0.094,-0.0267 -0.187068,-0.0377 z m 1.025779,0.11524 c -0.08609,0.0115 -0.0849,0.0736 -0.06925,0.30489 l 0.0155,0.22686 0.171567,-0.01 0.171047,-0.01 v -0.25064 -0.25063 l -0.171047,-0.0103 c -0.05085,-0.003 -0.08913,-0.004 -0.117822,-5.3e-4 z"
       inkscape:connector-curvature="0" />
  </g>
</svg>
