<?xml version="1.0" encoding="UTF-8" standalone="no"?>
<!-- Created with Inkscape (http://www.inkscape.org/) -->

<svg
   xmlns:osb="http://www.openswatchbook.org/uri/2009/osb"
   xmlns:dc="http://purl.org/dc/elements/1.1/"
   xmlns:cc="http://creativecommons.org/ns#"
   xmlns:rdf="http://www.w3.org/1999/02/22-rdf-syntax-ns#"
   xmlns:svg="http://www.w3.org/2000/svg"
   xmlns="http://www.w3.org/2000/svg"
   xmlns:xlink="http://www.w3.org/1999/xlink"
   xmlns:sodipodi="http://sodipodi.sourceforge.net/DTD/sodipodi-0.dtd"
   xmlns:inkscape="http://www.inkscape.org/namespaces/inkscape"
   width="128"
   height="128"
   viewBox="0 0 33.866666 33.866668"
   version="1.1"
   id="svg8"
   inkscape:version="0.92.2 5c3e80d, 2017-08-06"
   sodipodi:docname="folder-development.svg">
  <defs
     id="defs2">
    <linearGradient
       inkscape:collect="always"
       id="linearGradient7009">
      <stop
         style="stop-color:#63c4f2;stop-opacity:1"
         offset="0"
         id="stop7005" />
      <stop
         style="stop-color:#7cd4fa;stop-opacity:1"
         offset="1"
         id="stop7007" />
    </linearGradient>
    <linearGradient
       inkscape:collect="always"
       id="linearGradient1129">
      <stop
         style="stop-color:#4dafe3;stop-opacity:1"
         offset="0"
         id="stop1125" />
      <stop
         style="stop-color:#5ebfeb;stop-opacity:1"
         offset="1"
         id="stop1127" />
    </linearGradient>
    <linearGradient
       osb:paint="solid"
       id="linearGradient6088">
      <stop
         id="stop6086"
         offset="0"
         style="stop-color:#51b3e3;stop-opacity:1;" />
    </linearGradient>
    <linearGradient
       osb:paint="solid"
       id="linearGradient6987">
      <stop
         id="stop6985"
         offset="0"
         style="stop-color:#77d2fb;stop-opacity:1;" />
    </linearGradient>
    <linearGradient
       gradientTransform="matrix(0.25824977,0,0,0.26238895,-1.8797041,220.39849)"
       gradientUnits="userSpaceOnUse"
       y2="258.47931"
       x2="45.404984"
       y1="212.61162"
       x1="94.450165"
       id="linearGradient1123"
       xlink:href="#linearGradient1129"
       inkscape:collect="always" />
    <linearGradient
       inkscape:collect="always"
       id="linearGradient1006">
      <stop
         style="stop-color:#59b0d9;stop-opacity:1"
         offset="0"
         id="stop1002" />
      <stop
         style="stop-color:#7cd4fa;stop-opacity:1"
         offset="1"
         id="stop1004" />
    </linearGradient>
    <linearGradient
       gradientTransform="matrix(0.25104166,0,0,0.25614281,-15.770937,249.30337)"
       gradientUnits="userSpaceOnUse"
       y2="132.42918"
       x2="124.11147"
       y1="84.320671"
       x1="123.07384"
       id="linearGradient7011-3"
       xlink:href="#linearGradient7009"
       inkscape:collect="always" />
    <linearGradient
       gradientTransform="matrix(0.26137453,0,0,0.28556168,0.207633,261.0264)"
       gradientUnits="userSpaceOnUse"
       y2="110.65087"
       x2="70.726562"
       y1="113.65864"
       x1="70.726562"
       id="linearGradient1033"
       xlink:href="#linearGradient1006"
       inkscape:collect="always" />
    <linearGradient
       gradientTransform="matrix(0.26295085,0,0,0.26458333,0.10257,263.13331)"
       gradientUnits="userSpaceOnUse"
       y2="107.45322"
       x2="60.902935"
       y1="111.36977"
       x1="60.902935"
       id="linearGradient986"
       xlink:href="#linearGradient1006"
       inkscape:collect="always" />
    <linearGradient
       gradientTransform="matrix(0.26302556,0,0,0.26458333,0.099041,263.13331)"
       gradientUnits="userSpaceOnUse"
       y2="103.91254"
       x2="59.245655"
       y1="107.43008"
       x1="59.245655"
       id="linearGradient994"
       xlink:href="#linearGradient1006"
       inkscape:collect="always" />
  </defs>
  <sodipodi:namedview
     id="base"
     pagecolor="#ffffff"
     bordercolor="#666666"
     borderopacity="1.0"
     inkscape:pageopacity="0.0"
     inkscape:pageshadow="2"
     inkscape:zoom="2.5600001"
     inkscape:cx="84.418077"
     inkscape:cy="37.557992"
     inkscape:document-units="mm"
     inkscape:current-layer="layer1"
     showgrid="false"
     inkscape:window-width="1600"
     inkscape:window-height="814"
     inkscape:window-x="0"
     inkscape:window-y="0"
     inkscape:window-maximized="1"
     units="px" />
  <metadata
     id="metadata5">
    <rdf:RDF>
      <cc:Work
         rdf:about="">
        <dc:format>image/svg+xml</dc:format>
        <dc:type
           rdf:resource="http://purl.org/dc/dcmitype/StillImage" />
        <dc:title />
      </cc:Work>
    </rdf:RDF>
  </metadata>
  <g
     inkscape:label="Layer 1"
     inkscape:groupmode="layer"
     id="layer1"
     transform="translate(0,-263.13331)">
    <path
       inkscape:connector-curvature="0"
       style="fill:#97ddff;fill-opacity:1;stroke:#59b0d9;stroke-width:0.2;stroke-miterlimit:4;stroke-dasharray:none;stroke-opacity:1"
       d="m 2.32678,266.73146 c -1.087001,0 -1.962197,0.88554 -1.962197,1.98584 v 2.37881 1.63039 0.78694 6.6397 1.59032 10.06124 0.72222 c 0,0.48468 0.382274,0.87478 0.857306,0.87478 h 0.707829 30.007232 0.707827 c 0.475032,0 0.857306,-0.3901 0.857306,-0.87478 v -0.72222 -10.06124 -1.59032 -7.42664 -1.63039 c 0,-0.91589 -0.728604,-1.65299 -1.633452,-1.65299 H 12.238444 c -0.969415,-0.091 -1.011271,-2.40862 -2.716257,-2.71166 z"
       id="path7028-3" />
    <path
       inkscape:connector-curvature="0"
       id="rect5176-9"
       d="m 1.929839,271.12962 c -0.86715,0 -1.565184,0.71234 -1.565184,1.59712 v 7.42624 11.65185 0.7222 c 0,0.48468 0.382351,0.8748 0.857383,0.8748 h 0.707801 30.007047 0.707804 c 0.475033,0 0.857381,-0.39012 0.857381,-0.8748 v -0.7222 -11.65185 -7.42624 c 0,-0.88478 -0.698031,-1.59712 -1.565185,-1.59712 z"
       style="fill:url(#linearGradient7011-3);fill-opacity:1;stroke:#59b0d9;stroke-width:0.2;stroke-miterlimit:4;stroke-dasharray:none;stroke-opacity:1" />
    <path
       style="fill:url(#linearGradient1033);fill-opacity:1;stroke:none;stroke-width:0.2;stroke-miterlimit:4;stroke-dasharray:none;stroke-opacity:1"
       d="m 0.469008,292.39133 v 0.14724 c 0,0.52625 0.379917,0.94982 0.852019,0.94982 h 0.703466 29.822221 0.703464 c 0.472105,0 0.85202,-0.42357 0.85202,-0.94982 v -0.14724 z"
       id="path1020"
       inkscape:connector-curvature="0" />
    <path
       style="fill:url(#linearGradient994);fill-opacity:1;stroke:none;stroke-width:0.19999999;stroke-miterlimit:4;stroke-dasharray:none;stroke-opacity:1"
       d="m 0.461729,290.61897 v 0.93793 h 32.941897 v -0.93793 z"
       id="path966"
       inkscape:connector-curvature="0" />
    <path
       style="fill:url(#linearGradient986);fill-opacity:1;stroke:none;stroke-width:0.2;stroke-miterlimit:4;stroke-dasharray:none;stroke-opacity:1"
       d="m 0.465155,291.6773 v 0.12764 0.72192 c 0,0.0303 0.0053,0.0589 0.0082,0.0884 h 32.916103 c 0.0029,-0.0295 0.0082,-0.0581 0.0082,-0.0884 v -0.72192 -0.12764 z"
       id="path973"
       inkscape:connector-curvature="0" />
    <path
       id="path1075"
       style="fill:url(#linearGradient1123);fill-opacity:1;stroke-width:0.14095055"
       d="m 18.027064,273.59062 c -0.07422,0.003 -0.122403,0.0168 -0.171888,0.0428 -0.10453,0.0549 -0.150426,0.11564 -0.136279,0.16926 0.0094,0.0355 0.144543,0.0714 0.144543,0.0714 0.102597,0.0419 0.320901,0.0989 -0.07646,0.0834 -0.132284,0.0374 -0.262015,0.16799 -0.212726,0.2141 0.01854,0.0173 0.123833,0.0655 0.233946,0.10698 0.31984,0.12053 0.891174,0.40006 1.11888,0.54739 0.262552,0.16988 0.458812,0.34727 0.648989,0.58671 0.396574,0.49931 0.481326,0.76239 0.416511,1.29234 -0.07539,0.61637 -0.248341,0.98353 -0.77697,1.64936 -0.4301,0.54173 -2.231183,2.29368 -2.648669,2.57641 -0.09204,0.0623 -0.608044,0.485 -1.146637,0.93925 -1.064901,0.89812 -2.012158,1.69569 -3.090404,2.60176 -2.5395861,2.13409 -3.1845391,2.69521 -3.3762581,2.93804 -0.286495,0.36288 -0.19923,0.79654 0.263705,1.31118 0.208937,0.23228 0.37011,0.34511 0.594539,0.41641 0.2015741,0.0641 0.2366511,0.0635 0.4385301,-0.006 0.129117,-0.0447 0.278634,-0.16134 0.598009,-0.46657 0.47809,-0.45693 6.038815,-6.11359 6.632144,-6.74658 0.210213,-0.22426 0.68525,-0.6836 1.055624,-1.02074 1.677451,-1.52697 2.36194,-2.00752 3.065177,-2.15214 0.410524,-0.0844 0.532775,-0.0756 0.731996,0.0527 0.270475,0.17428 0.457156,0.54395 0.463354,0.91769 0.0023,0.13643 0.565774,0.74712 0.689424,0.74712 0.04666,0 0.176465,-0.0696 0.288395,-0.15458 0.308186,-0.2339 1.270012,-1.22712 1.297978,-1.34034 0.02102,-0.0851 -0.01353,-0.1396 -0.266374,-0.4202 -0.290379,-0.32227 -0.290683,-0.32254 -0.581195,-0.39783 -0.159867,-0.0414 -0.334374,-0.10435 -0.387819,-0.13993 -0.222046,-0.14783 -0.358348,-0.43725 -0.49725,-1.05573 -0.0556,-0.24759 -0.358425,-0.62569 -1.040943,-1.29953 -0.626997,-0.61902 -1.303725,-1.08194 -2.234692,-1.52881 -0.686247,-0.3294 -1.17334,-0.47126 -1.8039,-0.52529 -0.05826,-0.005 -0.107308,-0.008 -0.149336,-0.01 -0.03152,-10e-4 -0.0592,-10e-4 -0.08394,0 z"
       inkscape:connector-curvature="0"
       sodipodi:nodetypes="ccscccccccscccccccscscsccccscccsscccc" />
  </g>
</svg>
