<?xml version="1.0" encoding="UTF-8" standalone="no"?>
<!-- Created with Inkscape (http://www.inkscape.org/) -->

<svg
   xmlns:osb="http://www.openswatchbook.org/uri/2009/osb"
   xmlns:dc="http://purl.org/dc/elements/1.1/"
   xmlns:cc="http://creativecommons.org/ns#"
   xmlns:rdf="http://www.w3.org/1999/02/22-rdf-syntax-ns#"
   xmlns:svg="http://www.w3.org/2000/svg"
   xmlns="http://www.w3.org/2000/svg"
   xmlns:xlink="http://www.w3.org/1999/xlink"
   xmlns:sodipodi="http://sodipodi.sourceforge.net/DTD/sodipodi-0.dtd"
   xmlns:inkscape="http://www.inkscape.org/namespaces/inkscape"
   width="128"
   height="128"
   viewBox="0 0 33.866666 33.866668"
   version="1.1"
   id="svg8"
   inkscape:version="0.92.2 5c3e80d, 2017-08-06"
   sodipodi:docname="folder-development.svg">
  <defs
     id="defs2">
    <linearGradient
       inkscape:collect="always"
       xlink:href="#linearGradient7009"
       id="linearGradient7011"
       x1="123.07384"
       y1="84.320671"
       x2="124.11147"
       y2="132.42918"
       gradientUnits="userSpaceOnUse"
       gradientTransform="matrix(0.25255681,0,0,0.25768595,-15.968322,248.84654)" />
    <linearGradient
       inkscape:collect="always"
       id="linearGradient7009">
      <stop
         style="stop-color:#63c4f2;stop-opacity:1"
         offset="0"
         id="stop7005" />
      <stop
         style="stop-color:#7cd4fa;stop-opacity:1"
         offset="1"
         id="stop7007" />
    </linearGradient>
    <linearGradient
       inkscape:collect="always"
       id="linearGradient1129">
      <stop
         style="stop-color:#4dafe3;stop-opacity:1"
         offset="0"
         id="stop1125" />
      <stop
         style="stop-color:#5ebfeb;stop-opacity:1"
         offset="1"
         id="stop1127" />
    </linearGradient>
    <linearGradient
       osb:paint="solid"
       id="linearGradient6088">
      <stop
         id="stop6086"
         offset="0"
         style="stop-color:#51b3e3;stop-opacity:1;" />
    </linearGradient>
    <linearGradient
       osb:paint="solid"
       id="linearGradient6987">
      <stop
         id="stop6985"
         offset="0"
         style="stop-color:#77d2fb;stop-opacity:1;" />
    </linearGradient>
    <linearGradient
       gradientTransform="matrix(0.25824977,0,0,0.26238895,-1.8797032,221.01874)"
       gradientUnits="userSpaceOnUse"
       y2="258.47931"
       x2="45.404984"
       y1="212.61162"
       x1="94.450165"
       id="linearGradient1123"
       xlink:href="#linearGradient1129"
       inkscape:collect="always" />
  </defs>
  <sodipodi:namedview
     id="base"
     pagecolor="#ffffff"
     bordercolor="#666666"
     borderopacity="1.0"
     inkscape:pageopacity="0.0"
     inkscape:pageshadow="2"
     inkscape:zoom="1.28"
     inkscape:cx="-53.508384"
     inkscape:cy="89.341219"
     inkscape:document-units="mm"
     inkscape:current-layer="layer1"
     showgrid="false"
     inkscape:window-width="1600"
     inkscape:window-height="814"
     inkscape:window-x="0"
     inkscape:window-y="0"
     inkscape:window-maximized="1"
     units="px" />
  <metadata
     id="metadata5">
    <rdf:RDF>
      <cc:Work
         rdf:about="">
        <dc:format>image/svg+xml</dc:format>
        <dc:type
           rdf:resource="http://purl.org/dc/dcmitype/StillImage" />
        <dc:title />
      </cc:Work>
    </rdf:RDF>
  </metadata>
  <g
     inkscape:label="Layer 1"
     inkscape:groupmode="layer"
     id="layer1"
     transform="translate(0,-263.13331)">
    <path
       id="path3726"
       style="opacity:0.25;fill:#000000;fill-opacity:1;stroke-width:0.07295433"
       d="m 1.839255,271.34745 c -0.87238339,0 -1.57463018,0.71666 -1.57463018,1.60675 v 7.47097 11.72207 0.72653 c 0,0.4876 0.38465877,0.88009 0.86255748,0.88009 h 0.7120727 30.188153 0.712078 c 0.477897,0 0.862556,-0.39249 0.862556,-0.88009 v -0.72653 -11.72207 -7.47097 c 0,-0.89009 -0.702246,-1.60675 -1.574634,-1.60675 z m 0.3993405,-4.42484 c -1.0935623,0 -1.97401229,0.89107 -1.97401229,1.998 v 2.39332 2.43155 8.27983 c 0,0.92145 0.73293882,1.66319 1.64324119,1.66319 H 31.95898 c 0.910304,0 1.643103,-0.74174 1.643103,-1.66319 v -10.71138 c 0,-0.92143 -0.732793,-1.66317 -1.643103,-1.66317 l -19.749002,-8e-5 c -0.975266,-0.0917 -1.017482,-2.4232 -2.7327582,-2.72807 z"
       inkscape:connector-curvature="0" />
    <path
       inkscape:connector-curvature="0"
       d="m 1.839255,270.80428 c -0.87238339,0 -1.57463018,0.71663 -1.57463018,1.60674 v 7.47098 11.72205 0.72655 c 0,0.4876 0.38465877,0.88007 0.86255748,0.88007 h 0.7120727 30.188153 0.712078 c 0.477897,0 0.862556,-0.39247 0.862556,-0.88007 v -0.72655 -11.72205 -7.47098 c 0,-0.89011 -0.702246,-1.60674 -1.574634,-1.60674 z m 0.3993405,-4.42484 c -1.0935623,0 -1.97401229,0.89105 -1.97401229,1.99798 v 2.39332 2.43157 8.27983 c 0,0.92142 0.73293882,1.66316 1.64324119,1.66316 H 31.95898 c 0.910304,0 1.643103,-0.74174 1.643103,-1.66316 v -10.7114 c 0,-0.92141 -0.732793,-1.66317 -1.643103,-1.66317 l -19.749002,-8e-5 c -0.975266,-0.0915 -1.017482,-2.42318 -2.7327582,-2.72805 z"
       style="fill:#97ddff;fill-opacity:1;stroke-width:0.07295433"
       id="path7028" />
    <path
       inkscape:connector-curvature="0"
       id="rect5176"
       d="m 1.8392858,270.80428 c -0.87238343,0 -1.57463021,0.71663 -1.57463021,1.60674 v 7.47098 11.72205 0.72655 c 0,0.4876 0.38465878,0.88007 0.86255751,0.88007 h 0.7120727 30.1881532 0.712076 c 0.4779,0 0.862556,-0.39247 0.862556,-0.88007 v -0.72655 -11.72205 -7.47098 c 0,-0.89011 -0.702244,-1.60674 -1.574632,-1.60674 z"
       style="fill:url(#linearGradient7011);fill-opacity:1;stroke-width:0.07295433" />
    <rect
       style="fill:#5ebae5;fill-opacity:1;stroke:none;stroke-width:0.14778438;stroke-linecap:round;stroke-linejoin:round;stroke-miterlimit:4;stroke-dasharray:none;stroke-opacity:1"
       id="rect5180"
       width="30.427078"
       height="0.26995665"
       x="1.7198211"
       y="291.00845"
       ry="0.13497832" />
    <rect
       ry="0.13497832"
       y="291.84982"
       x="1.7198211"
       height="0.26995665"
       width="30.427078"
       id="rect5182"
       style="fill:#5ebae5;fill-opacity:1;stroke:none;stroke-width:0.14778438;stroke-linecap:round;stroke-linejoin:round;stroke-miterlimit:4;stroke-dasharray:none;stroke-opacity:1" />
    <path
       style="fill:#90d3f2;fill-opacity:1;stroke-width:0.07295433"
       d="m 2.2390733,266.37944 c -1.0935605,0 -1.97438151,0.89084 -1.97438151,1.99777 v 0.36196 c 0,-1.10693 0.88081921,-1.99777 1.97438151,-1.99777 h 7.238172 c 1.7152727,0.30487 1.7576317,2.63664 2.7329017,2.72822 h 19.748535 c 0.91031,0 1.643295,0.74153 1.643295,1.66293 v -0.36196 c 0,-0.92141 -0.732985,-1.66292 -1.643295,-1.66292 H 12.210147 c -0.97527,-0.0915 -1.017629,-2.42336 -2.7329017,-2.72823 z"
       id="path3721"
       inkscape:connector-curvature="0" />
    <path
       id="path1075"
       style="fill:url(#linearGradient1123);fill-opacity:1;stroke-width:0.14095055"
       d="m 18.027065,274.21087 c -0.07422,0.003 -0.122403,0.0168 -0.171888,0.0428 -0.10453,0.0549 -0.150426,0.11564 -0.136279,0.16926 0.0094,0.0355 0.144543,0.0714 0.144543,0.0714 0.102597,0.0419 0.320901,0.0989 -0.07646,0.0834 -0.132284,0.0374 -0.262015,0.16799 -0.212726,0.2141 0.01854,0.0173 0.123833,0.0655 0.233946,0.10698 0.31984,0.12053 0.891174,0.40006 1.11888,0.54739 0.262552,0.16988 0.458812,0.34727 0.648989,0.58671 0.396574,0.49931 0.481326,0.76239 0.416511,1.29234 -0.07539,0.61637 -0.248341,0.98353 -0.77697,1.64936 -0.4301,0.54173 -2.231183,2.29368 -2.648669,2.57641 -0.09204,0.0623 -0.608044,0.485 -1.146637,0.93925 -1.064901,0.89812 -2.012158,1.69569 -3.090404,2.60176 -2.5395862,2.13409 -3.1845392,2.69521 -3.3762582,2.93804 -0.286495,0.36288 -0.19923,0.79654 0.263705,1.31118 0.208937,0.23228 0.37011,0.34511 0.594539,0.41641 0.2015742,0.0641 0.2366512,0.0635 0.4385302,-0.006 0.129117,-0.0447 0.278634,-0.16134 0.598009,-0.46657 0.47809,-0.45693 6.038815,-6.11359 6.632144,-6.74658 0.210213,-0.22426 0.68525,-0.6836 1.055624,-1.02074 1.677451,-1.52697 2.36194,-2.00752 3.065177,-2.15214 0.410524,-0.0844 0.532775,-0.0756 0.731996,0.0527 0.270475,0.17428 0.457156,0.54395 0.463354,0.91769 0.0023,0.13643 0.565774,0.74712 0.689424,0.74712 0.04666,0 0.176465,-0.0696 0.288395,-0.15458 0.308186,-0.2339 1.270011,-1.22712 1.297977,-1.34034 0.02102,-0.0851 -0.01353,-0.1396 -0.266374,-0.4202 -0.290379,-0.32227 -0.290683,-0.32254 -0.581194,-0.39783 -0.159867,-0.0414 -0.334374,-0.10435 -0.387819,-0.13993 -0.222046,-0.14783 -0.358348,-0.43725 -0.49725,-1.05573 -0.0556,-0.24759 -0.358425,-0.62569 -1.040943,-1.29953 -0.626997,-0.61902 -1.303725,-1.08194 -2.234692,-1.52881 -0.686247,-0.3294 -1.17334,-0.47126 -1.8039,-0.52529 -0.05826,-0.005 -0.107308,-0.008 -0.149336,-0.01 -0.03152,-10e-4 -0.0592,-10e-4 -0.08394,0 z"
       inkscape:connector-curvature="0"
       sodipodi:nodetypes="ccscccccccscccccccscscsccccscccsscccc" />
  </g>
</svg>
