<?xml version="1.0" encoding="UTF-8" standalone="no"?>
<!-- Created with Inkscape (http://www.inkscape.org/) -->

<svg
   xmlns:osb="http://www.openswatchbook.org/uri/2009/osb"
   xmlns:dc="http://purl.org/dc/elements/1.1/"
   xmlns:cc="http://creativecommons.org/ns#"
   xmlns:rdf="http://www.w3.org/1999/02/22-rdf-syntax-ns#"
   xmlns:svg="http://www.w3.org/2000/svg"
   xmlns="http://www.w3.org/2000/svg"
   xmlns:xlink="http://www.w3.org/1999/xlink"
   xmlns:sodipodi="http://sodipodi.sourceforge.net/DTD/sodipodi-0.dtd"
   xmlns:inkscape="http://www.inkscape.org/namespaces/inkscape"
   width="128"
   height="128"
   viewBox="0 0 33.866666 33.866668"
   version="1.1"
   id="svg8"
   inkscape:version="0.92.2 5c3e80d, 2017-08-06"
   sodipodi:docname="folder-cloud.svg">
  <defs
     id="defs2">
    <linearGradient
       inkscape:collect="always"
       id="linearGradient7009">
      <stop
         style="stop-color:#63c4f2;stop-opacity:1"
         offset="0"
         id="stop7005" />
      <stop
         style="stop-color:#7cd4fa;stop-opacity:1"
         offset="1"
         id="stop7007" />
    </linearGradient>
    <linearGradient
       id="linearGradient6108"
       inkscape:collect="always">
      <stop
         id="stop6104"
         offset="0"
         style="stop-color:#4eaede;stop-opacity:1" />
      <stop
         id="stop6106"
         offset="1"
         style="stop-color:#60c6f2;stop-opacity:1" />
    </linearGradient>
    <linearGradient
       osb:paint="solid"
       id="linearGradient6088">
      <stop
         id="stop6086"
         offset="0"
         style="stop-color:#51b3e3;stop-opacity:1;" />
    </linearGradient>
    <linearGradient
       osb:paint="solid"
       id="linearGradient6987">
      <stop
         id="stop6985"
         offset="0"
         style="stop-color:#77d2fb;stop-opacity:1;" />
    </linearGradient>
    <linearGradient
       gradientTransform="matrix(0.25824977,0,0,0.26238895,29.107989,230.51124)"
       gradientUnits="userSpaceOnUse"
       y2="217.53894"
       x2="-43.544567"
       y1="172.18172"
       x1="-43.544567"
       id="linearGradient885"
       xlink:href="#linearGradient6108"
       inkscape:collect="always" />
    <linearGradient
       inkscape:collect="always"
       id="linearGradient1006">
      <stop
         style="stop-color:#59b0d9;stop-opacity:1"
         offset="0"
         id="stop1002" />
      <stop
         style="stop-color:#7cd4fa;stop-opacity:1"
         offset="1"
         id="stop1004" />
    </linearGradient>
    <linearGradient
       gradientTransform="matrix(0.25104166,0,0,0.25614281,-15.77094,249.30337)"
       gradientUnits="userSpaceOnUse"
       y2="132.42918"
       x2="124.11147"
       y1="84.320671"
       x1="123.07384"
       id="linearGradient7011-3"
       xlink:href="#linearGradient7009"
       inkscape:collect="always" />
    <linearGradient
       gradientTransform="matrix(0.26137453,0,0,0.28556168,0.20763,261.0264)"
       gradientUnits="userSpaceOnUse"
       y2="110.65087"
       x2="70.726562"
       y1="113.65864"
       x1="70.726562"
       id="linearGradient1033"
       xlink:href="#linearGradient1006"
       inkscape:collect="always" />
    <linearGradient
       gradientTransform="matrix(0.26295085,0,0,0.26458333,0.10257,263.13331)"
       gradientUnits="userSpaceOnUse"
       y2="107.45322"
       x2="60.902935"
       y1="111.36977"
       x1="60.902935"
       id="linearGradient986"
       xlink:href="#linearGradient1006"
       inkscape:collect="always" />
    <linearGradient
       gradientTransform="matrix(0.26302556,0,0,0.26458333,0.09904,263.13331)"
       gradientUnits="userSpaceOnUse"
       y2="103.91254"
       x2="59.245655"
       y1="107.43008"
       x1="59.245655"
       id="linearGradient994"
       xlink:href="#linearGradient1006"
       inkscape:collect="always" />
  </defs>
  <sodipodi:namedview
     id="base"
     pagecolor="#ffffff"
     bordercolor="#666666"
     borderopacity="1.0"
     inkscape:pageopacity="0.0"
     inkscape:pageshadow="2"
     inkscape:zoom="2.56"
     inkscape:cx="117.93537"
     inkscape:cy="71.238458"
     inkscape:document-units="mm"
     inkscape:current-layer="layer1"
     showgrid="false"
     inkscape:window-width="1600"
     inkscape:window-height="814"
     inkscape:window-x="0"
     inkscape:window-y="0"
     inkscape:window-maximized="1"
     units="px" />
  <metadata
     id="metadata5">
    <rdf:RDF>
      <cc:Work
         rdf:about="">
        <dc:format>image/svg+xml</dc:format>
        <dc:type
           rdf:resource="http://purl.org/dc/dcmitype/StillImage" />
        <dc:title />
      </cc:Work>
    </rdf:RDF>
  </metadata>
  <g
     inkscape:label="Layer 1"
     inkscape:groupmode="layer"
     id="layer1"
     transform="translate(0,-263.13331)">
    <path
       inkscape:connector-curvature="0"
       style="fill:#97ddff;fill-opacity:1;stroke:#59b0d9;stroke-width:0.2;stroke-miterlimit:4;stroke-dasharray:none;stroke-opacity:1"
       d="m 2.32678,266.73146 c -1.087,0 -1.9622,0.88554 -1.9622,1.98584 v 2.37881 1.63039 0.78694 6.6397 1.59032 10.06124 0.72222 c 0,0.48468 0.38228,0.87478 0.85731,0.87478 h 0.70783 30.00723 0.707827 c 0.475032,0 0.857306,-0.3901 0.857306,-0.87478 v -0.72222 -10.06124 -1.59032 -7.42664 -1.63039 c 0,-0.91589 -0.728604,-1.65299 -1.633452,-1.65299 H 12.23844 c -0.96941,-0.091 -1.01127,-2.40862 -2.71625,-2.71166 z"
       id="path7028-3" />
    <path
       inkscape:connector-curvature="0"
       id="rect5176-9"
       d="m 1.92984,271.12962 c -0.86715,0 -1.56518,0.71234 -1.56518,1.59712 v 7.42624 11.65185 0.7222 c 0,0.48468 0.38235,0.8748 0.85738,0.8748 h 0.7078 30.007046 0.707804 c 0.475033,0 0.857381,-0.39012 0.857381,-0.8748 v -0.7222 -11.65185 -7.42624 c 0,-0.88478 -0.698031,-1.59712 -1.565185,-1.59712 z"
       style="fill:url(#linearGradient7011-3);fill-opacity:1;stroke:#59b0d9;stroke-width:0.2;stroke-miterlimit:4;stroke-dasharray:none;stroke-opacity:1" />
    <path
       style="fill:url(#linearGradient1033);fill-opacity:1;stroke:none;stroke-width:0.2;stroke-miterlimit:4;stroke-dasharray:none;stroke-opacity:1"
       d="m 0.46901,292.39133 v 0.14724 c 0,0.52625 0.37991,0.94982 0.85202,0.94982 h 0.70346 29.822224 0.703464 c 0.472105,0 0.85202,-0.42357 0.85202,-0.94982 v -0.14724 z"
       id="path1020"
       inkscape:connector-curvature="0" />
    <path
       style="fill:url(#linearGradient994);fill-opacity:1;stroke:none;stroke-width:0.19999999;stroke-miterlimit:4;stroke-dasharray:none;stroke-opacity:1"
       d="m 0.46173,290.61897 v 0.93793 h 32.941896 v -0.93793 z"
       id="path966"
       inkscape:connector-curvature="0" />
    <path
       style="fill:url(#linearGradient986);fill-opacity:1;stroke:none;stroke-width:0.2;stroke-miterlimit:4;stroke-dasharray:none;stroke-opacity:1"
       d="m 0.46515,291.6773 v 0.12764 0.72192 c 0,0.0303 0.005,0.0589 0.008,0.0884 h 32.916106 c 0.0029,-0.0295 0.0082,-0.0581 0.0082,-0.0884 v -0.72192 -0.12764 z"
       id="path973"
       inkscape:connector-curvature="0" />
    <path
       id="path867"
       d="m 13.65609,278.15996 c -0.43769,-0.34519 -0.98739,-0.5507 -1.58436,-0.5507 -1.40553,0 -2.54917,1.13929 -2.5851,2.55854 -1.45083,0.55284 -2.4834,1.97491 -2.4834,3.64201 0,1.96934 1.44093,3.59674 3.31005,3.85328 v 0 0.0352 h 13.240174 v -0.006 c 1.846053,-0.10884 3.310047,-1.66426 3.310047,-3.56712 0,-1.83512 -1.361619,-3.34713 -3.114373,-3.55004 0.0075,-0.11187 0.01117,-0.22473 0.01117,-0.33845 0,-2.84404 -2.361871,-5.1496 -5.275388,-5.1496 -2.15657,0 -4.01092,1.26319 -4.82887,3.07294 z"
       style="fill:url(#linearGradient885);fill-opacity:1;stroke-width:0.45237267"
       inkscape:connector-curvature="0" />
  </g>
</svg>
