<?xml version="1.0" encoding="UTF-8" standalone="no"?>
<!-- Created with Inkscape (http://www.inkscape.org/) -->

<svg
   xmlns:osb="http://www.openswatchbook.org/uri/2009/osb"
   xmlns:dc="http://purl.org/dc/elements/1.1/"
   xmlns:cc="http://creativecommons.org/ns#"
   xmlns:rdf="http://www.w3.org/1999/02/22-rdf-syntax-ns#"
   xmlns:svg="http://www.w3.org/2000/svg"
   xmlns="http://www.w3.org/2000/svg"
   xmlns:xlink="http://www.w3.org/1999/xlink"
   xmlns:sodipodi="http://sodipodi.sourceforge.net/DTD/sodipodi-0.dtd"
   xmlns:inkscape="http://www.inkscape.org/namespaces/inkscape"
   width="128"
   height="128"
   viewBox="0 0 33.866666 33.866668"
   version="1.1"
   id="svg8"
   inkscape:version="0.92.2 5c3e80d, 2017-08-06"
   sodipodi:docname="folder-saved-search.svg">
  <defs
     id="defs2">
    <linearGradient
       inkscape:collect="always"
       xlink:href="#linearGradient7009"
       id="linearGradient7011"
       x1="123.07384"
       y1="84.320671"
       x2="124.11147"
       y2="132.42918"
       gradientUnits="userSpaceOnUse"
       gradientTransform="matrix(0.25255681,0,0,0.25768595,-15.968322,248.84654)" />
    <linearGradient
       inkscape:collect="always"
       id="linearGradient7009">
      <stop
         style="stop-color:#63c4f2;stop-opacity:1"
         offset="0"
         id="stop7005" />
      <stop
         style="stop-color:#7cd4fa;stop-opacity:1"
         offset="1"
         id="stop7007" />
    </linearGradient>
    <linearGradient
       inkscape:collect="always"
       id="linearGradient1547">
      <stop
         style="stop-color:#52b2e4;stop-opacity:1"
         offset="0"
         id="stop1543" />
      <stop
         style="stop-color:#55b6e7;stop-opacity:1"
         offset="1"
         id="stop1545" />
    </linearGradient>
    <linearGradient
       osb:paint="solid"
       id="linearGradient6987">
      <stop
         id="stop6985"
         offset="0"
         style="stop-color:#77d2fb;stop-opacity:1;" />
    </linearGradient>
    <linearGradient
       gradientTransform="matrix(0.23852762,0,0,0.24307951,0.77709068,224.53003)"
       gradientUnits="userSpaceOnUse"
       y2="268.58331"
       x2="64.400841"
       y1="205.86926"
       x1="60.488476"
       id="linearGradient1541"
       xlink:href="#linearGradient1547"
       inkscape:collect="always" />
  </defs>
  <sodipodi:namedview
     id="base"
     pagecolor="#ffffff"
     bordercolor="#666666"
     borderopacity="1.0"
     inkscape:pageopacity="0.0"
     inkscape:pageshadow="2"
     inkscape:zoom="0.45254834"
     inkscape:cx="-1092.5109"
     inkscape:cy="-218.4374"
     inkscape:document-units="mm"
     inkscape:current-layer="layer1"
     showgrid="false"
     inkscape:window-width="1600"
     inkscape:window-height="814"
     inkscape:window-x="0"
     inkscape:window-y="0"
     inkscape:window-maximized="1"
     units="px" />
  <metadata
     id="metadata5">
    <rdf:RDF>
      <cc:Work
         rdf:about="">
        <dc:format>image/svg+xml</dc:format>
        <dc:type
           rdf:resource="http://purl.org/dc/dcmitype/StillImage" />
        <dc:title />
      </cc:Work>
    </rdf:RDF>
  </metadata>
  <g
     inkscape:label="Layer 1"
     inkscape:groupmode="layer"
     id="layer1"
     transform="translate(0,-263.13331)">
    <path
       id="path3726"
       style="opacity:0.25;fill:#000000;fill-opacity:1;stroke-width:0.07295433"
       d="m 1.839255,271.34745 c -0.87238339,0 -1.57463018,0.71666 -1.57463018,1.60675 v 7.47097 11.72207 0.72653 c 0,0.4876 0.38465877,0.88009 0.86255748,0.88009 h 0.7120727 30.188153 0.712078 c 0.477897,0 0.862556,-0.39249 0.862556,-0.88009 v -0.72653 -11.72207 -7.47097 c 0,-0.89009 -0.702246,-1.60675 -1.574634,-1.60675 z m 0.3993405,-4.42484 c -1.0935623,0 -1.97401229,0.89107 -1.97401229,1.998 v 2.39332 2.43155 8.27983 c 0,0.92145 0.73293882,1.66319 1.64324119,1.66319 H 31.95898 c 0.910304,0 1.643103,-0.74174 1.643103,-1.66319 v -10.71138 c 0,-0.92143 -0.732793,-1.66317 -1.643103,-1.66317 l -19.749002,-8e-5 c -0.975266,-0.0917 -1.017482,-2.4232 -2.7327582,-2.72807 z"
       inkscape:connector-curvature="0" />
    <path
       inkscape:connector-curvature="0"
       d="m 1.839255,270.80428 c -0.87238339,0 -1.57463018,0.71663 -1.57463018,1.60674 v 7.47098 11.72205 0.72655 c 0,0.4876 0.38465877,0.88007 0.86255748,0.88007 h 0.7120727 30.188153 0.712078 c 0.477897,0 0.862556,-0.39247 0.862556,-0.88007 v -0.72655 -11.72205 -7.47098 c 0,-0.89011 -0.702246,-1.60674 -1.574634,-1.60674 z m 0.3993405,-4.42484 c -1.0935623,0 -1.97401229,0.89105 -1.97401229,1.99798 v 2.39332 2.43157 8.27983 c 0,0.92142 0.73293882,1.66316 1.64324119,1.66316 H 31.95898 c 0.910304,0 1.643103,-0.74174 1.643103,-1.66316 v -10.7114 c 0,-0.92141 -0.732793,-1.66317 -1.643103,-1.66317 l -19.749002,-8e-5 c -0.975266,-0.0915 -1.017482,-2.42318 -2.7327582,-2.72805 z"
       style="fill:#97ddff;fill-opacity:1;stroke-width:0.07295433"
       id="path7028" />
    <path
       inkscape:connector-curvature="0"
       id="rect5176"
       d="m 1.8392858,270.80428 c -0.87238343,0 -1.57463021,0.71663 -1.57463021,1.60674 v 7.47098 11.72205 0.72655 c 0,0.4876 0.38465878,0.88007 0.86255751,0.88007 h 0.7120727 30.1881532 0.712076 c 0.4779,0 0.862556,-0.39247 0.862556,-0.88007 v -0.72655 -11.72205 -7.47098 c 0,-0.89011 -0.702244,-1.60674 -1.574632,-1.60674 z"
       style="fill:url(#linearGradient7011);fill-opacity:1;stroke-width:0.07295433" />
    <rect
       style="fill:#5ebae5;fill-opacity:1;stroke:none;stroke-width:0.14778438;stroke-linecap:round;stroke-linejoin:round;stroke-miterlimit:4;stroke-dasharray:none;stroke-opacity:1"
       id="rect5180"
       width="30.427078"
       height="0.26995665"
       x="1.7198211"
       y="291.00845"
       ry="0.13497832" />
    <rect
       ry="0.13497832"
       y="291.84982"
       x="1.7198211"
       height="0.26995665"
       width="30.427078"
       id="rect5182"
       style="fill:#5ebae5;fill-opacity:1;stroke:none;stroke-width:0.14778438;stroke-linecap:round;stroke-linejoin:round;stroke-miterlimit:4;stroke-dasharray:none;stroke-opacity:1" />
    <path
       style="fill:#90d3f2;fill-opacity:1;stroke-width:0.07295433"
       d="m 2.2390733,266.37944 c -1.0935605,0 -1.97438151,0.89084 -1.97438151,1.99777 v 0.36196 c 0,-1.10693 0.88081921,-1.99777 1.97438151,-1.99777 h 7.238172 c 1.7152727,0.30487 1.7576317,2.63664 2.7329017,2.72822 h 19.748535 c 0.91031,0 1.643295,0.74153 1.643295,1.66293 v -0.36196 c 0,-0.92141 -0.732985,-1.66292 -1.643295,-1.66292 H 12.210147 c -0.97527,-0.0915 -1.017629,-2.42336 -2.7329017,-2.72823 z"
       id="path3721"
       inkscape:connector-curvature="0" />
    <path
       style="opacity:1;fill:url(#linearGradient1541);fill-opacity:1;stroke:none;stroke-width:2.54743671;stroke-linecap:round;stroke-linejoin:round;stroke-miterlimit:4;stroke-dasharray:none;stroke-opacity:1"
       d="m 15.205261,274.57263 a 5.6813789,5.7897983 0 0 0 -5.6813604,5.7899 5.6813789,5.7897983 0 0 0 5.6813604,5.78978 5.6813789,5.7897983 0 0 0 3.57283,-1.29387 l 4.5657,4.4157 c 0.25531,0.24693 0.63607,0.21868 0.85374,-0.0632 0.21767,-0.28189 0.18735,-0.70762 -0.068,-0.95455 l -4.46049,-4.31408 a 5.6813789,5.7897983 0 0 0 1.21756,-3.57977 5.6813789,5.7897983 0 0 0 -5.68137,-5.7899 z m 0,1.91584 a 3.8015105,3.8740558 0 0 1 0.37958,0.0193 3.8015105,3.8740558 0 0 1 0.3757,0.0579 3.8015105,3.8740558 0 0 1 0.36816,0.0958 3.8015105,3.8740558 0 0 1 0.35696,0.13283 3.8015105,3.8740558 0 0 1 0.34211,0.16844 3.8015105,3.8740558 0 0 1 0.32395,0.20231 3.8015105,3.8740558 0 0 1 0.30259,0.23445 3.8015105,3.8740558 0 0 1 0.27803,0.2639 3.8015105,3.8740558 0 0 1 0.25074,0.2909 3.8015105,3.8740558 0 0 1 0.22103,0.315 3.8015105,3.8740558 0 0 1 0.18916,0.33595 3.8015105,3.8740558 0 0 1 0.15512,0.35342 3.8015105,3.8740558 0 0 1 0.11983,0.3675 3.8015105,3.8740558 0 0 1 0.0833,0.37786 3.8015105,3.8740558 0 0 1 0.0458,0.38438 3.8015105,3.8740558 0 0 1 0.009,0.27414 3.8015105,3.8740558 0 0 1 -0.019,0.38671 3.8015105,3.8740558 0 0 1 -0.0568,0.38286 3.8015105,3.8740558 0 0 1 -0.094,0.3753 3.8015105,3.8740558 0 0 1 -0.13033,0.36366 3.8015105,3.8740558 0 0 1 -0.16529,0.34876 3.8015105,3.8740558 0 0 1 -0.19864,0.33013 3.8015105,3.8740558 0 0 1 -0.22994,0.30825 3.8015105,3.8740558 0 0 1 -0.25896,0.28333 3.8015105,3.8740558 0 0 1 -0.28557,0.25563 3.8015105,3.8740558 0 0 1 -0.3091,0.22525 3.8015105,3.8740558 0 0 1 -0.32955,0.19266 3.8015105,3.8740558 0 0 1 -0.34691,0.1582 3.8015105,3.8740558 0 0 1 -0.3605,0.12211 3.8015105,3.8740558 0 0 1 -0.37078,0.0848 3.8015105,3.8740558 0 0 1 -0.3773,0.0467 3.8015105,3.8740558 0 0 1 -0.26889,0.01 3.8015105,3.8740558 0 0 1 -0.37947,-0.0195 3.8015105,3.8740558 0 0 1 -0.37581,-0.0579 3.8015105,3.8740558 0 0 1 -0.36816,-0.0958 3.8015105,3.8740558 0 0 1 -0.35696,-0.1327 3.8015105,3.8740558 0 0 1 -0.34211,-0.16845 3.8015105,3.8740558 0 0 1 -0.32395,-0.20243 3.8015105,3.8740558 0 0 1 -0.30248,-0.23433 3.8015105,3.8740558 0 0 1 -0.27803,-0.26401 3.8015105,3.8740558 0 0 1 -0.25085,-0.2909 3.8015105,3.8740558 0 0 1 -0.22103,-0.315 3.8015105,3.8740558 0 0 1 -0.18904,-0.33596 3.8015105,3.8740558 0 0 1 -0.15524,-0.35341 3.8015105,3.8740558 0 0 1 -0.11983,-0.3675 3.8015105,3.8740558 0 0 1 -0.0833,-0.37786 3.8015105,3.8740558 0 0 1 -0.0457,-0.38438 3.8015105,3.8740558 0 0 1 -0.01,-0.27402 3.8015105,3.8740558 0 0 1 0.019,-0.38683 3.8015105,3.8740558 0 0 1 0.0569,-0.38286 3.8015105,3.8740558 0 0 1 0.094,-0.37519 3.8015105,3.8740558 0 0 1 0.13023,-0.36377 3.8015105,3.8740558 0 0 1 0.16528,-0.34876 3.8015105,3.8740558 0 0 1 0.19865,-0.33013 3.8015105,3.8740558 0 0 1 0.22994,-0.30825 3.8015105,3.8740558 0 0 1 0.25907,-0.28334 3.8015105,3.8740558 0 0 1 0.28545,-0.25563 3.8015105,3.8740558 0 0 1 0.3091,-0.22525 3.8015105,3.8740558 0 0 1 0.32955,-0.19265 3.8015105,3.8740558 0 0 1 0.34691,-0.1582 3.8015105,3.8740558 0 0 1 0.36062,-0.12211 3.8015105,3.8740558 0 0 1 0.37079,-0.0847 3.8015105,3.8740558 0 0 1 0.37718,-0.0467 3.8015105,3.8740558 0 0 1 0.26889,-0.01 z"
       id="circle1512"
       inkscape:connector-curvature="0" />
  </g>
</svg>
