<?xml version="1.0" encoding="UTF-8" standalone="no"?>
<!-- Created with Inkscape (http://www.inkscape.org/) -->

<svg
   xmlns:osb="http://www.openswatchbook.org/uri/2009/osb"
   xmlns:dc="http://purl.org/dc/elements/1.1/"
   xmlns:cc="http://creativecommons.org/ns#"
   xmlns:rdf="http://www.w3.org/1999/02/22-rdf-syntax-ns#"
   xmlns:svg="http://www.w3.org/2000/svg"
   xmlns="http://www.w3.org/2000/svg"
   xmlns:xlink="http://www.w3.org/1999/xlink"
   xmlns:sodipodi="http://sodipodi.sourceforge.net/DTD/sodipodi-0.dtd"
   xmlns:inkscape="http://www.inkscape.org/namespaces/inkscape"
   width="128"
   height="128"
   viewBox="0 0 33.866666 33.866668"
   version="1.1"
   id="svg8"
   inkscape:version="0.92.2 5c3e80d, 2017-08-06"
   sodipodi:docname="folder-remote.svg">
  <defs
     id="defs2">
    <linearGradient
       inkscape:collect="always"
       id="linearGradient7009">
      <stop
         style="stop-color:#63c4f2;stop-opacity:1"
         offset="0"
         id="stop7005" />
      <stop
         style="stop-color:#7cd4fa;stop-opacity:1"
         offset="1"
         id="stop7007" />
    </linearGradient>
    <linearGradient
       inkscape:collect="always"
       id="linearGradient6756">
      <stop
         style="stop-color:#51b2e3;stop-opacity:1"
         offset="0"
         id="stop6752" />
      <stop
         style="stop-color:#5bbeea;stop-opacity:1"
         offset="1"
         id="stop6754" />
    </linearGradient>
    <linearGradient
       osb:paint="solid"
       id="linearGradient6088">
      <stop
         id="stop6086"
         offset="0"
         style="stop-color:#51b3e3;stop-opacity:1;" />
    </linearGradient>
    <linearGradient
       osb:paint="solid"
       id="linearGradient6987">
      <stop
         id="stop6985"
         offset="0"
         style="stop-color:#77d2fb;stop-opacity:1;" />
    </linearGradient>
    <linearGradient
       gradientTransform="matrix(0.26317258,0,0,0.26238895,-0.11863806,219.3188)"
       gradientUnits="userSpaceOnUse"
       y2="265.51105"
       x2="65.002815"
       y1="207.37984"
       x1="65.336906"
       id="linearGradient6750"
       xlink:href="#linearGradient6756"
       inkscape:collect="always" />
    <linearGradient
       inkscape:collect="always"
       id="linearGradient1006">
      <stop
         style="stop-color:#59b0d9;stop-opacity:1"
         offset="0"
         id="stop1002" />
      <stop
         style="stop-color:#7cd4fa;stop-opacity:1"
         offset="1"
         id="stop1004" />
    </linearGradient>
    <linearGradient
       gradientTransform="matrix(0.25104166,0,0,0.25614281,-15.770937,249.30337)"
       gradientUnits="userSpaceOnUse"
       y2="132.42918"
       x2="124.11147"
       y1="84.320671"
       x1="123.07384"
       id="linearGradient7011-3"
       xlink:href="#linearGradient7009"
       inkscape:collect="always" />
    <linearGradient
       gradientTransform="matrix(0.26137453,0,0,0.28556168,0.207633,261.0264)"
       gradientUnits="userSpaceOnUse"
       y2="110.65087"
       x2="70.726562"
       y1="113.65864"
       x1="70.726562"
       id="linearGradient1033"
       xlink:href="#linearGradient1006"
       inkscape:collect="always" />
    <linearGradient
       gradientTransform="matrix(0.26295085,0,0,0.26458333,0.10257,263.13331)"
       gradientUnits="userSpaceOnUse"
       y2="107.45322"
       x2="60.902935"
       y1="111.36977"
       x1="60.902935"
       id="linearGradient986"
       xlink:href="#linearGradient1006"
       inkscape:collect="always" />
    <linearGradient
       gradientTransform="matrix(0.26302556,0,0,0.26458333,0.099041,263.13331)"
       gradientUnits="userSpaceOnUse"
       y2="103.91254"
       x2="59.245655"
       y1="107.43008"
       x1="59.245655"
       id="linearGradient994"
       xlink:href="#linearGradient1006"
       inkscape:collect="always" />
  </defs>
  <sodipodi:namedview
     id="base"
     pagecolor="#ffffff"
     bordercolor="#666666"
     borderopacity="1.0"
     inkscape:pageopacity="0.0"
     inkscape:pageshadow="2"
     inkscape:zoom="2.5600001"
     inkscape:cx="55.360235"
     inkscape:cy="4.4470949"
     inkscape:document-units="mm"
     inkscape:current-layer="layer1"
     showgrid="false"
     inkscape:window-width="1600"
     inkscape:window-height="814"
     inkscape:window-x="0"
     inkscape:window-y="0"
     inkscape:window-maximized="1"
     units="px" />
  <metadata
     id="metadata5">
    <rdf:RDF>
      <cc:Work
         rdf:about="">
        <dc:format>image/svg+xml</dc:format>
        <dc:type
           rdf:resource="http://purl.org/dc/dcmitype/StillImage" />
        <dc:title />
      </cc:Work>
    </rdf:RDF>
  </metadata>
  <g
     inkscape:label="Layer 1"
     inkscape:groupmode="layer"
     id="layer1"
     transform="translate(0,-263.13331)">
    <path
       inkscape:connector-curvature="0"
       style="fill:#97ddff;fill-opacity:1;stroke:#59b0d9;stroke-width:0.2;stroke-miterlimit:4;stroke-dasharray:none;stroke-opacity:1"
       d="m 2.32678,266.73146 c -1.087001,0 -1.962197,0.88554 -1.962197,1.98584 v 2.37881 1.63039 0.78694 6.6397 1.59032 10.06124 0.72222 c 0,0.48468 0.382274,0.87478 0.857306,0.87478 h 0.707829 30.007232 0.707827 c 0.475032,0 0.857306,-0.3901 0.857306,-0.87478 v -0.72222 -10.06124 -1.59032 -7.42664 -1.63039 c 0,-0.91589 -0.728604,-1.65299 -1.633452,-1.65299 H 12.238444 c -0.969415,-0.091 -1.011271,-2.40862 -2.716257,-2.71166 z"
       id="path7028-3" />
    <path
       inkscape:connector-curvature="0"
       id="rect5176-9"
       d="m 1.929839,271.12962 c -0.86715,0 -1.565184,0.71234 -1.565184,1.59712 v 7.42624 11.65185 0.7222 c 0,0.48468 0.382351,0.8748 0.857383,0.8748 h 0.707801 30.007047 0.707804 c 0.475033,0 0.857381,-0.39012 0.857381,-0.8748 v -0.7222 -11.65185 -7.42624 c 0,-0.88478 -0.698031,-1.59712 -1.565185,-1.59712 z"
       style="fill:url(#linearGradient7011-3);fill-opacity:1;stroke:#59b0d9;stroke-width:0.2;stroke-miterlimit:4;stroke-dasharray:none;stroke-opacity:1" />
    <path
       style="fill:url(#linearGradient1033);fill-opacity:1;stroke:none;stroke-width:0.2;stroke-miterlimit:4;stroke-dasharray:none;stroke-opacity:1"
       d="m 0.469008,292.39133 v 0.14724 c 0,0.52625 0.379917,0.94982 0.852019,0.94982 h 0.703466 29.822221 0.703464 c 0.472105,0 0.85202,-0.42357 0.85202,-0.94982 v -0.14724 z"
       id="path1020"
       inkscape:connector-curvature="0" />
    <path
       style="fill:url(#linearGradient994);fill-opacity:1;stroke:none;stroke-width:0.19999999;stroke-miterlimit:4;stroke-dasharray:none;stroke-opacity:1"
       d="m 0.461729,290.61897 v 0.93793 h 32.941897 v -0.93793 z"
       id="path966"
       inkscape:connector-curvature="0" />
    <path
       style="fill:url(#linearGradient986);fill-opacity:1;stroke:none;stroke-width:0.2;stroke-miterlimit:4;stroke-dasharray:none;stroke-opacity:1"
       d="m 0.465155,291.6773 v 0.12764 0.72192 c 0,0.0303 0.0053,0.0589 0.0082,0.0884 h 32.916103 c 0.0029,-0.0295 0.0082,-0.0581 0.0082,-0.0884 v -0.72192 -0.12764 z"
       id="path973"
       inkscape:connector-curvature="0" />
    <path
       id="path6669"
       style="fill:url(#linearGradient6750);fill-opacity:1;stroke-width:0.13683026"
       d="m 17.076244,273.73298 c -0.119149,-5.3e-4 -0.242089,10e-4 -0.369777,0.005 -0.705589,0.0209 -1.080349,0.0707 -1.67917,0.22332 -1.624151,0.41394 -3.040454,1.33302 -4.104294,2.66332 -2.0542665,2.56881 -2.1994319,6.23741 -0.355764,8.99269 1.293546,1.93316 3.441689,3.21561 5.696017,3.4004 1.149818,0.0942 2.289497,-0.0598 3.342015,-0.45166 2.386256,-0.88845 4.228822,-2.98602 4.803054,-5.4678 0.151667,-0.65551 0.184634,-0.97918 0.180741,-1.77722 -0.0031,-0.59011 -0.02028,-0.85145 -0.0801,-1.20271 -0.478531,-2.81251 -2.451772,-5.11226 -5.15569,-6.00881 -0.794227,-0.26335 -1.442951,-0.37341 -2.277023,-0.37655 z m -2.11273,0.79769 c 0.07409,-0.003 0.156874,0.0105 0.311578,0.0372 1.451063,0.24967 2.621446,1.26743 3.100619,2.69627 l 0.07225,0.21532 0.569686,0.005 c 0.313331,0.003 0.697691,0.0244 0.854208,0.0483 2.033977,0.31028 3.624642,1.77557 4.110816,3.78698 0.125263,0.51827 0.124631,0.64974 -0.0061,1.41858 -0.07888,0.46533 -0.122399,0.4427 -0.122399,-0.0636 0,-0.82989 -0.15397,-1.50746 -0.503193,-2.21506 -0.626173,-1.26873 -1.742566,-2.14633 -3.13381,-2.46332 -0.353869,-0.0806 -1.318095,-0.13059 -1.512441,-0.0784 -0.115347,0.031 -0.125416,0.0443 -0.118048,0.15688 0.0041,0.0676 0.01865,0.32497 0.03159,0.5718 l 0.02334,0.44868 h 0.688692 c 0.640103,0 0.714149,0.007 1.048819,0.0988 1.399631,0.38385 2.41263,1.45822 2.714802,2.87946 0.135963,0.63948 0.09518,1.41704 -0.10907,2.08244 -0.355938,1.15935 -1.21086,2.14319 -2.309256,2.65763 -0.641918,0.30065 -1.061466,0.39467 -1.754917,0.39336 -0.775415,-0.002 -1.323874,-0.14906 -1.961094,-0.52746 -0.787001,-0.46734 -1.463923,-1.35155 -1.669652,-2.18088 -0.05544,-0.22358 -0.07837,-0.2681 -0.135453,-0.26238 -0.103568,0.0104 -0.982529,0.31528 -1.020938,0.35417 -0.02069,0.0209 0.02476,0.17791 0.118996,0.41085 0.362277,0.89518 0.917156,1.60896 1.661347,2.13709 1.099384,0.7802 2.460311,1.02333 3.882494,0.69383 0.174627,-0.0405 0.325346,-0.0657 0.334956,-0.0561 0.04117,0.041 -0.266291,0.18246 -0.721466,0.3318 -0.47314,0.15523 -0.503824,0.16055 -0.912549,0.15688 -0.734031,-0.007 -1.244826,-0.10313 -1.904801,-0.35959 -0.841582,-0.32704 -1.573779,-0.89047 -2.150802,-1.65505 -0.231704,-0.30702 -0.593003,-0.9958 -0.683261,-1.30265 -0.03485,-0.11848 -0.07449,-0.23599 -0.08825,-0.26115 -0.01794,-0.033 -0.180435,-0.0497 -0.583158,-0.0601 -0.45547,-0.0118 -0.6244,-0.0318 -0.918267,-0.10888 -0.40953,-0.10742 -0.909696,-0.33211 -1.24669,-0.56 -0.278785,-0.18854 -0.804886,-0.70536 -0.9581126,-0.94129 -0.1086321,-0.16727 -0.2201888,-0.59861 -0.1833191,-0.70888 0.00917,-0.0269 0.1162851,0.0977 0.2430267,0.28217 0.38383,0.55877 0.953445,1.0298 1.550921,1.28244 0.523502,0.22135 0.949419,0.30387 1.568601,0.30387 h 0.384472 l -0.02364,-0.29628 c -0.01304,-0.1629 -0.02507,-0.43428 -0.0269,-0.60312 l -0.0031,-0.30698 -0.580581,-7.9e-4 c -0.480987,-5.2e-4 -0.628537,-0.0139 -0.860455,-0.0777 -1.018981,-0.28028 -1.827912,-1.11007 -2.1113746,-2.1657 -0.1108745,-0.41291 -0.1254572,-0.62998 -0.06023,-0.89451 0.09375,-0.38049 0.1750346,-0.64556 0.1977496,-0.64556 0.01172,10e-6 0.02334,0.21416 0.02568,0.4758 0.0051,0.57241 0.07959,0.89421 0.317143,1.37329 0.331399,0.66836 0.818643,1.0894 1.566828,1.3539 0.314065,0.11102 1.342207,0.13456 1.504686,0.0344 0.02303,-0.0142 0.06787,-0.15196 0.09987,-0.30604 0.0319,-0.15407 0.0907,-0.38543 0.130563,-0.51417 0.03984,-0.12873 0.0641,-0.24243 0.0537,-0.25274 -0.01039,-0.0103 -0.136982,0.0239 -0.281516,0.0761 -0.636638,0.22994 -1.343144,0.1773 -1.887242,-0.14061 -0.430492,-0.25154 -0.808748,-0.80487 -0.934042,-1.36638 -0.07205,-0.32302 -0.05696,-0.91832 0.03139,-1.23661 0.297189,-1.07027 1.103501,-1.9098 2.071396,-2.15688 0.319109,-0.0815 0.804377,-0.0948 1.069211,-0.0293 0.940675,0.23268 1.565065,1.05765 1.565065,2.0678 0,0.17447 0.01488,0.2983 0.03587,0.2983 0.01977,0 0.175635,-0.10507 0.346389,-0.23349 0.170775,-0.12841 0.373303,-0.26866 0.450161,-0.31172 0.117742,-0.066 0.139805,-0.0968 0.139805,-0.19553 0,-0.17483 -0.167768,-0.67506 -0.335516,-1.00054 -0.173444,-0.33653 -0.635935,-0.82265 -0.967212,-1.01668 -0.679603,-0.39803 -1.512156,-0.46429 -2.399148,-0.19078 -0.06532,0.0202 -0.254623,0.10869 -0.420638,0.19675 -0.166036,0.0881 -0.293745,0.13911 -0.283829,0.11335 0.02109,-0.0548 0.405281,-0.38468 0.592269,-0.50861 0.268808,-0.17815 1.037812,-0.32327 1.491356,-0.28136 0.558691,0.0516 1.058745,0.21575 1.453142,0.47675 0.617246,0.40849 1.031434,1.00411 1.266277,1.82102 0.04902,0.17069 0.07612,0.21394 0.129747,0.20868 0.0373,-0.004 0.2518,-0.0723 0.476809,-0.15255 0.224978,-0.0803 0.436637,-0.1459 0.470277,-0.1459 0.03363,0 0.0907,-0.0216 0.126893,-0.048 0.06339,-0.0462 0.06288,-0.057 -0.01559,-0.29614 -0.127821,-0.38926 -0.407962,-0.90276 -0.67143,-1.23092 -0.62764,-0.78177 -1.697126,-1.33315 -2.586278,-1.33315 -0.129574,0 -0.235689,-0.0157 -0.235689,-0.0349 0,-0.0192 0.111944,-0.0687 0.248743,-0.1101 0.119577,-0.0362 0.184899,-0.0546 0.258944,-0.0572 z m -1.784297,2.2861 c -0.464203,0.012 -0.952324,0.20226 -1.376977,0.58984 -0.544505,0.49697 -0.838056,1.14686 -0.839116,1.85722 -7.85e-4,0.28519 0.06023,0.54265 0.196659,0.83647 0.201346,0.43359 0.54051,0.73858 0.982854,0.88366 0.162225,0.0532 0.287967,0.0653 0.584799,0.0563 0.324154,-0.01 0.419141,-0.0276 0.666121,-0.12542 0.702745,-0.27826 1.28303,-0.95576 1.481971,-1.73003 0.07602,-0.2957 0.07755,-0.85094 0.0031,-1.09763 -0.242812,-0.80438 -0.888806,-1.25227 -1.606949,-1.27038 -0.03067,-7.8e-4 -0.06155,-7.8e-4 -0.09253,0 z m -0.146327,0.62672 c 0.331919,0 0.376004,0.009 0.552281,0.1059 0.37692,0.20817 0.589517,0.56791 0.612681,1.03674 0.0163,0.3297 -0.02965,0.52613 -0.199645,0.85492 -0.159595,0.3087 -0.433071,0.57919 -0.748674,0.74047 -0.220923,0.11289 -0.289883,0.13023 -0.558141,0.14007 -0.362246,0.0133 -0.503294,-0.0309 -0.780489,-0.24407 -0.776189,-0.59703 -0.484452,-2.02298 0.514066,-2.51268 0.23098,-0.11328 0.27104,-0.12135 0.607921,-0.12135 z m -0.142669,0.39064 c -0.367606,0.0122 -0.743212,0.25989 -0.941379,0.68421 -0.109406,0.23427 -0.117946,0.64612 -0.01783,0.86589 0.08591,0.18864 0.335016,0.3997 0.522514,0.44271 0.316194,0.0725 0.687632,-0.0536 0.935387,-0.31769 0.232234,-0.24753 0.318997,-0.43855 0.339184,-0.74658 0.02222,-0.33946 -0.04892,-0.53188 -0.268054,-0.7242 -0.146622,-0.12868 -0.319231,-0.19424 -0.496528,-0.20366 -0.02435,-10e-4 -0.04881,-10e-4 -0.07327,-7.9e-4 z m 5.133251,0.20176 c -0.122022,0 -0.635935,0.17322 -0.920835,0.31038 l -0.216112,0.104 -0.02374,0.4301 c -0.02293,0.41276 -0.091,0.82233 -0.172038,1.03471 -0.02099,0.0551 -0.03822,0.11523 -0.03822,0.1337 0,0.0558 0.03485,0.0394 0.196923,-0.093 0.233763,-0.19098 0.709971,-0.466 1.001769,-0.57858 0.142862,-0.0551 0.27158,-0.11696 0.286132,-0.13735 0.03169,-0.0444 0.03597,-1.0078 0.0051,-1.12312 -0.01569,-0.0584 -0.04851,-0.0808 -0.118721,-0.0808 z m -5.242321,0.46753 c 0.07011,-0.006 0.136514,0.0235 0.196924,0.0876 0.11228,0.11915 0.08611,0.35831 -0.05238,0.47702 -0.19939,0.171 -0.48646,0.0511 -0.48646,-0.20325 0,-0.0863 0.03302,-0.15072 0.122533,-0.24 0.07531,-0.0751 0.1492,-0.11568 0.219363,-0.12136 z m 3.572394,0.28651 c -0.09019,0 -0.514341,0.33824 -0.853383,0.6804 -0.540011,0.545 -0.927245,1.14005 -1.212419,1.86319 -0.134965,0.34224 -0.266913,0.81632 -0.235821,0.84732 0.03557,0.0355 0.07796,0.0215 0.287498,-0.0949 1.013753,-0.56311 1.766952,-1.60707 1.991013,-2.75946 0.08203,-0.42195 0.08703,-0.53654 0.02313,-0.53654 z m 2.974561,0.77518 c -0.332041,0.003 -0.625368,0.0356 -0.708961,0.0979 -0.03251,0.0242 -0.07928,0.16079 -0.109346,0.31865 -0.02884,0.15195 -0.08713,0.39181 -0.129329,0.53301 -0.04219,0.1412 -0.07093,0.26249 -0.06379,0.26956 0.0071,0.007 0.158128,-0.0388 0.335638,-0.1021 0.311599,-0.11105 0.342109,-0.11504 0.881,-0.11349 0.538003,0.002 0.568922,0.006 0.859232,0.11566 0.672459,0.2547 1.103166,0.63249 1.412757,1.23919 0.215185,0.4217 0.296343,0.81166 0.274443,1.31837 -0.02211,0.51182 -0.08265,0.74232 -0.318783,1.2141 -0.589904,1.17862 -1.98923,1.85297 -3.186566,1.5356 -1.077394,-0.28558 -1.855631,-1.21581 -1.909957,-2.28299 -0.0092,-0.18759 -0.02415,-0.36265 -0.03261,-0.38901 -0.0104,-0.0325 -0.08784,0.009 -0.240438,0.12881 -0.123765,0.0972 -0.325285,0.24387 -0.447847,0.32597 -0.122542,0.0821 -0.231123,0.16263 -0.241263,0.17898 -0.02436,0.0392 0.09569,0.51286 0.190544,0.75227 0.428577,1.08132 1.287443,1.81186 2.416135,2.05519 1.484529,0.32003 3.120644,-0.41604 3.927772,-1.76719 1.291325,-2.1617 0.332642,-4.76523 -1.967351,-5.34305 -0.238481,-0.0599 -0.609195,-0.0879 -0.941246,-0.0854 z m -1.335776,0.32462 c -0.121697,0.0134 -0.491504,0.21674 -0.793004,0.44325 -0.884505,0.66451 -1.430284,1.65038 -1.533515,2.76976 -0.01029,0.11107 -0.0092,0.21188 0.0041,0.22414 0.03241,0.0323 0.180914,-0.0695 0.508492,-0.34861 0.562919,-0.47963 1.060976,-1.11966 1.407997,-1.80922 0.220729,-0.43862 0.493114,-1.22239 0.442395,-1.27295 -0.0061,-0.006 -0.01865,-0.008 -0.03608,-0.006 z m 1.594312,1.18101 c -0.224978,-0.002 -0.449427,0.02 -0.609684,0.0674 -1.105387,0.32705 -1.836687,1.34372 -1.77165,2.46278 0.03526,0.60698 0.261053,1.10527 0.673192,1.4857 0.292563,0.27005 0.73933,0.48822 1.096685,0.53559 0.27856,0.0369 0.603824,0.0197 0.859782,-0.0456 0.824167,-0.21015 1.465646,-0.81119 1.754245,-1.64352 0.102752,-0.29638 0.130613,-0.9206 0.05523,-1.23851 -0.172487,-0.72727 -0.727519,-1.32046 -1.44498,-1.54427 -0.162316,-0.0506 -0.387834,-0.0773 -0.612802,-0.0796 z m 0.04025,0.75268 c 0.366394,0.007 0.724339,0.14694 0.998498,0.42048 0.312057,0.31136 0.4865,0.77799 0.440907,1.17979 -0.07083,0.62433 -0.425224,1.1307 -0.982722,1.40434 -0.21649,0.10626 -0.275565,0.11879 -0.602205,0.12705 -0.481925,0.0122 -0.73506,-0.071 -1.033584,-0.33993 -0.67469,-0.60773 -0.670043,-1.62958 0.0106,-2.31132 0.327139,-0.32767 0.753239,-0.48883 1.168487,-0.48041 z m -4.291291,0.21044 c -0.03465,0.008 -0.147805,0.0784 -0.273353,0.17126 -0.143495,0.10614 -0.456092,0.29129 -0.694675,0.41139 l -0.433835,0.2183 0.0061,0.42793 c 0.0031,0.23535 0.01681,0.51274 0.02965,0.61641 0.01844,0.14958 0.03679,0.18848 0.08866,0.18848 0.08907,0 0.582832,-0.16653 0.851345,-0.28706 l 0.219638,-0.0986 0.02038,-0.46238 c 0.02008,-0.45593 0.08968,-0.88197 0.174627,-1.06779 0.02385,-0.0523 0.03332,-0.10517 0.02109,-0.11743 -0.002,-0.002 -0.0051,-0.002 -0.01019,-5.2e-4 z m 4.249805,0.33302 c -0.276461,0.005 -0.553391,0.11812 -0.762401,0.32651 -0.326681,0.32571 -0.42714,0.82392 -0.245747,1.21898 0.146929,0.31996 0.33786,0.49395 0.629668,0.57369 0.342018,0.0935 0.739921,-0.0135 1.025024,-0.27552 0.555929,-0.51091 0.470715,-1.41072 -0.164293,-1.73451 -0.150648,-0.0768 -0.316368,-0.11234 -0.482251,-0.10915 z m -0.01019,0.73315 v 0 c 0.08713,-0.003 0.175411,0.0308 0.24806,0.10319 0.146408,0.14596 0.146561,0.3458 7.84e-4,0.50156 -0.145308,0.15509 -0.358669,0.15779 -0.510397,0.007 -0.125396,-0.12503 -0.1358,-0.25768 -0.03322,-0.4255 0.07235,-0.11838 0.182636,-0.18211 0.294702,-0.18576 z"
       inkscape:connector-curvature="0" />
  </g>
</svg>
