<?xml version="1.0" encoding="UTF-8" standalone="no"?>
<!-- Created with Inkscape (http://www.inkscape.org/) -->

<svg
   xmlns:osb="http://www.openswatchbook.org/uri/2009/osb"
   xmlns:dc="http://purl.org/dc/elements/1.1/"
   xmlns:cc="http://creativecommons.org/ns#"
   xmlns:rdf="http://www.w3.org/1999/02/22-rdf-syntax-ns#"
   xmlns:svg="http://www.w3.org/2000/svg"
   xmlns="http://www.w3.org/2000/svg"
   xmlns:xlink="http://www.w3.org/1999/xlink"
   xmlns:sodipodi="http://sodipodi.sourceforge.net/DTD/sodipodi-0.dtd"
   xmlns:inkscape="http://www.inkscape.org/namespaces/inkscape"
   width="128"
   height="128"
   viewBox="0 0 33.866666 33.866668"
   version="1.1"
   id="svg8"
   inkscape:version="0.92.1 r15371"
   sodipodi:docname="folder-videos.svg">
  <defs
     id="defs2">
    <linearGradient
       inkscape:collect="always"
       id="linearGradient4527">
      <stop
         style="stop-color:#54a6cc;stop-opacity:1"
         offset="0"
         id="stop4523" />
      <stop
         style="stop-color:#7cd4fa;stop-opacity:1"
         offset="1"
         id="stop4525" />
    </linearGradient>
    <linearGradient
       inkscape:collect="always"
       id="linearGradient4521">
      <stop
         style="stop-color:#54a6cc;stop-opacity:1"
         offset="0"
         id="stop4517" />
      <stop
         style="stop-color:#7cd4fa;stop-opacity:1"
         offset="1"
         id="stop4519" />
    </linearGradient>
    <linearGradient
       id="linearGradient1006"
       inkscape:collect="always">
      <stop
         id="stop1002"
         offset="0"
         style="stop-color:#54a6cc;stop-opacity:1" />
      <stop
         id="stop1004"
         offset="1"
         style="stop-color:#7cd4fa;stop-opacity:1" />
    </linearGradient>
    <linearGradient
       inkscape:collect="always"
       id="linearGradient7009">
      <stop
         style="stop-color:#63c4f2;stop-opacity:1"
         offset="0"
         id="stop7005" />
      <stop
         style="stop-color:#7cd4fa;stop-opacity:1"
         offset="1"
         id="stop7007" />
    </linearGradient>
    <linearGradient
       id="linearGradient6987"
       osb:paint="solid">
      <stop
         style="stop-color:#77d2fb;stop-opacity:1;"
         offset="0"
         id="stop6985" />
    </linearGradient>
    <linearGradient
       inkscape:collect="always"
       xlink:href="#linearGradient7009"
       id="linearGradient7011-3"
       x1="123.07384"
       y1="84.320671"
       x2="124.11147"
       y2="132.42918"
       gradientUnits="userSpaceOnUse"
       gradientTransform="matrix(0.23908729,0,0,0.24394553,-14.21359,250.56636)" />
    <linearGradient
       inkscape:collect="always"
       xlink:href="#linearGradient1006"
       id="linearGradient1033-6"
       x1="70.726562"
       y1="113.65864"
       x2="70.726562"
       y2="110.65087"
       gradientUnits="userSpaceOnUse"
       gradientTransform="matrix(0.24892812,0,0,0.2719635,1.0040953,261.55779)" />
    <linearGradient
       inkscape:collect="always"
       xlink:href="#linearGradient4527"
       id="linearGradient986-2"
       x1="60.902935"
       y1="111.36977"
       x2="60.902935"
       y2="107.45322"
       gradientUnits="userSpaceOnUse"
       gradientTransform="matrix(0.25042938,0,0,0.25198412,0.90403537,263.56437)" />
    <linearGradient
       inkscape:collect="always"
       xlink:href="#linearGradient4521"
       id="linearGradient994-9"
       x1="59.245655"
       y1="107.43008"
       x2="59.245655"
       y2="103.91254"
       gradientUnits="userSpaceOnUse"
       gradientTransform="matrix(0.25050053,0,0,0.25198412,0.90067442,263.56437)" />
    <linearGradient
       id="linearGradient6475"
       inkscape:collect="always">
      <stop
         id="stop6471"
         offset="0"
         style="stop-color:#4db0e3;stop-opacity:1" />
      <stop
         id="stop6473"
         offset="1"
         style="stop-color:#5bbfec;stop-opacity:1" />
    </linearGradient>
    <linearGradient
       id="linearGradient6088"
       osb:paint="solid">
      <stop
         style="stop-color:#51b3e3;stop-opacity:1;"
         offset="0"
         id="stop6086" />
    </linearGradient>
    <linearGradient
       inkscape:collect="always"
       xlink:href="#linearGradient6475"
       id="linearGradient6469"
       x1="67.724297"
       y1="212.27159"
       x2="68.737701"
       y2="265.51202"
       gradientUnits="userSpaceOnUse"
       gradientTransform="matrix(0.26000706,0,0,0.26000706,-0.6778242,219.49313)" />
  </defs>
  <sodipodi:namedview
     id="base"
     pagecolor="#ffffff"
     bordercolor="#666666"
     borderopacity="1.0"
     inkscape:pageopacity="0.0"
     inkscape:pageshadow="2"
     inkscape:zoom="7.9999996"
     inkscape:cx="71.933929"
     inkscape:cy="50.849467"
     inkscape:document-units="mm"
     inkscape:current-layer="layer1"
     showgrid="false"
     inkscape:window-width="1366"
     inkscape:window-height="704"
     inkscape:window-x="0"
     inkscape:window-y="27"
     inkscape:window-maximized="1"
     units="px"
     showguides="false" />
  <metadata
     id="metadata5">
    <rdf:RDF>
      <cc:Work
         rdf:about="">
        <dc:format>image/svg+xml</dc:format>
        <dc:type
           rdf:resource="http://purl.org/dc/dcmitype/StillImage" />
        <dc:title />
      </cc:Work>
    </rdf:RDF>
  </metadata>
  <g
     inkscape:label="Layer 1"
     inkscape:groupmode="layer"
     id="layer1"
     transform="translate(0,-263.13331)">
    <path
       id="path1228"
       d="m 3.0223306,267.66851 c -1.0352391,0 -1.8687591,0.84338 -1.8687591,1.89128 v 2.26553 1.55276 0.74946 6.32353 1.51459 9.58213 0.68783 c 0,0.4616 0.3640705,0.83312 0.8164819,0.83312 h 0.6741229 28.5783157 0.674121 c 0.452412,0 0.816482,-0.37152 0.816482,-0.83312 v -0.68783 -9.58213 -1.51459 -7.07299 -1.55276 c 0,-0.87227 -0.693908,-1.57427 -1.555668,-1.57427 H 12.46201 c -0.923252,-0.0867 -0.963115,-2.29393 -2.5869109,-2.58254 z"
       style="opacity:0.25;fill:#000000;fill-opacity:1;stroke:none;stroke-width:0.19047619;stroke-miterlimit:4;stroke-dasharray:none;stroke-opacity:1"
       inkscape:connector-curvature="0" />
    <path
       inkscape:connector-curvature="0"
       style="fill:#97ddff;fill-opacity:1;stroke:#4891b2;stroke-width:0.2;stroke-miterlimit:4;stroke-dasharray:none;stroke-opacity:1"
       d="m 3.0223306,267.16454 c -1.0352391,0 -1.8687591,0.84337 -1.8687591,1.89128 v 2.26553 1.55275 0.74947 6.32352 1.51459 9.58214 0.68783 c 0,0.4616 0.3640705,0.83312 0.8164819,0.83312 h 0.6741229 28.5783157 0.674121 c 0.452412,0 0.816482,-0.37152 0.816482,-0.83312 v -0.68783 -9.58214 -1.51459 -7.07299 -1.55275 c 0,-0.87227 -0.693908,-1.57427 -1.555668,-1.57427 H 12.46201 c -0.923252,-0.0867 -0.963115,-2.29393 -2.5869109,-2.58254 z"
       id="path7028-3" />
    <path
       inkscape:connector-curvature="0"
       id="rect5176-9"
       d="m 2.6442915,271.35327 c -0.8258571,0 -1.4906514,0.67842 -1.4906514,1.52106 v 7.07261 11.097 0.68781 c 0,0.4616 0.3641438,0.83314 0.8165552,0.83314 H 2.6442915 31.222431 31.89653 c 0.452413,0 0.816554,-0.37154 0.816554,-0.83314 v -0.68781 -11.097 -7.07261 c 0,-0.84264 -0.664792,-1.52106 -1.490653,-1.52106 z"
       style="fill:url(#linearGradient7011-3);fill-opacity:1;stroke:#4891b2;stroke-width:0.2;stroke-miterlimit:4;stroke-dasharray:none;stroke-opacity:1" />
    <path
       style="fill:url(#linearGradient1033-6);fill-opacity:1;stroke:none;stroke-width:0.19047619;stroke-miterlimit:4;stroke-dasharray:none;stroke-opacity:1"
       d="m 1.2530239,291.42915 -0.00248,0.23015 c -0.002,0.18209 0.027267,0.375 0.1382591,0.513 0.1386152,0.17235 0.29094,0.3079 0.5887333,0.30602 l 0.7569695,-0.005 H 31.136625 31.80659 c 0.295101,0 0.291488,-0.0227 0.421025,-0.0834 0.09483,-0.0445 0.178348,-0.11633 0.24407,-0.19788 0.05308,-0.0659 0.09082,-0.14531 0.114282,-0.22658 0.02857,-0.099 0.0279,-0.19197 0.02929,-0.30766 l 0.0028,-0.22932 z"
       id="path1020-0"
       inkscape:connector-curvature="0"
       sodipodi:nodetypes="csasccsaaascc" />
    <path
       style="fill:url(#linearGradient994-9);fill-opacity:1;stroke:none;stroke-width:0.19047618;stroke-miterlimit:4;stroke-dasharray:none;stroke-opacity:1"
       d="m 1.2460915,289.74119 v 0.89327 H 32.619327 v -0.89327 z"
       id="path966-9"
       inkscape:connector-curvature="0" />
    <path
       style="fill:url(#linearGradient986-2);fill-opacity:1;stroke:none;stroke-width:0.19047619;stroke-miterlimit:4;stroke-dasharray:none;stroke-opacity:1"
       d="m 1.2493544,290.74912 v 0.12156 0.68755 c 0,0.0288 -8.581e-4,0.06 0.0019,0.0881 l 31.3594966,-0.004 c 0.0028,-0.0281 0.0029,-0.0553 0.0029,-0.0842 v -0.68754 -0.12156 z"
       id="path973-3"
       inkscape:connector-curvature="0"
       sodipodi:nodetypes="ccsccsccc" />
    <g
       style="stroke-width:4.08449793"
       inkscape:transform-center-y="-9.4924686"
       inkscape:transform-center-x="5.4653607"
       inkscape:label="Capa 1"
       id="layer1-4-9-22"
       transform="matrix(0.51049916,0,0,0.51168467,-314.3213,-2.6029569)">
      <g
         style="stroke-width:4.08449793"
         id="layer1-3-65-0-7"
         inkscape:label="Capa 1"
         transform="translate(0.41988239,0.03484499)" />
    </g>
    <g
       style="stroke-width:4.08449793"
       inkscape:transform-center-y="-9.4924686"
       inkscape:transform-center-x="5.4653607"
       inkscape:label="Capa 1"
       id="layer1-4-3"
       transform="matrix(0.51049916,0,0,0.51168467,-314.3213,-2.5791474)">
      <g
         style="stroke-width:4.08449793"
         id="layer1-3-65-7"
         inkscape:label="Capa 1"
         transform="translate(0.41988239,0.03484499)" />
    </g>
    <g
       style="stroke-width:4.08449793"
       inkscape:transform-center-y="-9.4924686"
       inkscape:transform-center-x="5.4653607"
       inkscape:label="Capa 1"
       id="layer1-4-9-2"
       transform="matrix(0.51049916,0,0,0.51168467,-345.51563,-44.12492)">
      <g
         style="stroke-width:4.08449793"
         id="layer1-3-65-0-2"
         inkscape:label="Capa 1"
         transform="translate(0.41988239,0.03484499)" />
    </g>
    <g
       style="stroke-width:4.08449793"
       inkscape:transform-center-y="-9.4924686"
       inkscape:transform-center-x="5.4653607"
       inkscape:label="Capa 1"
       id="layer1-4-7"
       transform="matrix(0.51049916,0,0,0.51168467,-345.51563,-44.101109)">
      <g
         style="stroke-width:4.08449793"
         id="layer1-3-65-3"
         inkscape:label="Capa 1"
         transform="translate(0.41988239,0.03484499)" />
    </g>
    <g
       style="stroke-width:4.08449793"
       inkscape:transform-center-y="-9.4924686"
       inkscape:transform-center-x="5.4653607"
       inkscape:label="Capa 1"
       id="layer1-4-9"
       transform="matrix(0.51049916,0,0,0.51168467,-314.3213,-2.6029598)">
      <g
         style="stroke-width:4.08449793"
         id="layer1-3-65-0"
         inkscape:label="Capa 1"
         transform="translate(0.41988239,0.03484499)" />
    </g>
    <g
       style="stroke-width:4.08449793"
       inkscape:transform-center-y="-9.4924686"
       inkscape:transform-center-x="5.4653607"
       inkscape:label="Capa 1"
       id="layer1-4"
       transform="matrix(0.51049916,0,0,0.51168467,-314.3213,-2.5791502)">
      <g
         style="stroke-width:4.08449793"
         id="layer1-3-65"
         inkscape:label="Capa 1"
         transform="translate(0.41988239,0.03484499)" />
    </g>
    <path
       id="path6355"
       style="fill:url(#linearGradient6469);fill-opacity:1;stroke:#4891b2;stroke-width:0.05;stroke-miterlimit:4;stroke-dasharray:none;stroke-opacity:1"
       d="m 9.896699,273.78496 0.0049,2.02095 c 0.0028,1.11153 0.0086,4.45162 0.01304,7.42244 0.0045,2.97083 0.01575,5.41414 0.02512,5.42959 0.0094,0.0155 3.161723,0.0238 7.005251,0.0183 l 6.988321,-0.0106 0.0039,-1.69028 c 0.0022,-0.92964 0.0105,-4.27803 0.01841,-7.44085 l 0.01438,-5.75058 h -7.036554 z m 12.665265,0.82673 c 0.532716,0 0.550392,0.003 0.638086,0.0902 0.08089,0.0809 0.09016,0.12084 0.09016,0.38751 0,0.26665 -0.0093,0.3066 -0.09016,0.38749 -0.08779,0.0879 -0.105054,0.0901 -0.644804,0.0901 -0.539751,0 -0.556882,-0.002 -0.64467,-0.0901 -0.08156,-0.0816 -0.09016,-0.1199 -0.09016,-0.40147 0,-0.29258 0.0057,-0.31592 0.09674,-0.38749 0.08811,-0.0692 0.146161,-0.0761 0.644806,-0.0761 z m -11.575049,0.002 c 0.07888,0 0.179454,0.002 0.310376,0.005 0.704739,0.0147 0.712255,0.0194 0.712255,0.44233 0,0.27787 -0.03703,0.41948 -0.124956,0.47819 -0.02223,0.0148 -0.293364,0.0272 -0.602482,0.0276 -0.548084,5.3e-4 -0.564242,-0.002 -0.652193,-0.0896 -0.08156,-0.0816 -0.09016,-0.11992 -0.09016,-0.40147 0,-0.29505 0.0053,-0.31554 0.09997,-0.39006 0.07039,-0.0554 0.110579,-0.0715 0.347193,-0.0715 z m 5.944057,0.0712 v 1.3e-4 c 3.274807,0 4.152269,0.0106 4.177595,0.0459 0.01762,0.0252 0.03211,1.40003 0.03211,3.055 v 3.0089 l -4.176788,0.008 c -2.297208,0.004 -4.197104,-0.004 -4.221935,-0.0198 -0.03543,-0.022 -0.03992,-0.6741 -0.02096,-3.03042 0.01328,-1.65134 0.03324,-3.01714 0.04434,-3.0351 0.01159,-0.0188 1.785486,-0.0327 4.165637,-0.0327 z m -5.656388,1.69041 c 0.746286,0 0.734962,-0.007 0.734962,0.45872 0,0.32821 -0.0046,0.34782 -0.09687,0.42041 -0.08799,0.0691 -0.146145,0.0761 -0.638086,0.0761 -0.491945,0 -0.550093,-0.007 -0.638088,-0.0761 -0.0923,-0.0726 -0.09674,-0.0922 -0.09674,-0.42041 0,-0.46587 -0.01146,-0.45872 0.734828,-0.45872 z m 11.280662,0 c 0.746284,0 0.734962,-0.007 0.734962,0.45872 0,0.32821 -0.0046,0.34782 -0.09687,0.42041 -0.08798,0.0691 -0.146146,0.0761 -0.638087,0.0761 -0.491944,0 -0.550092,-0.007 -0.638087,-0.0761 -0.0923,-0.0726 -0.09674,-0.0922 -0.09674,-0.42041 0,-0.46587 -0.01146,-0.45872 0.734828,-0.45872 z m -11.276497,1.72696 c 0.752213,0 0.747768,-0.003 0.735367,0.48115 -0.0066,0.25458 -0.02408,0.36147 -0.06745,0.40939 -0.05154,0.0569 -0.131991,0.0649 -0.659316,0.0649 -0.760497,0 -0.747592,0.008 -0.747592,-0.49404 0,-0.46922 -0.01255,-0.4614 0.738991,-0.4614 z m 11.276497,0 c 0.746883,0 0.734962,-0.007 0.734962,0.4614 0,0.298 -0.01039,0.35745 -0.07349,0.42056 -0.0675,0.0674 -0.122494,0.0735 -0.674096,0.0735 -0.745959,0 -0.722198,0.0159 -0.722198,-0.48773 0,-0.47618 -0.01343,-0.46771 0.734828,-0.46771 z m -11.87441,1.74537 0.558009,0.006 c 0.306934,0.003 0.594801,0.0155 0.639699,0.0267 0.111736,0.0281 0.167683,0.16915 0.167683,0.4227 0,0.25243 -0.05531,0.43244 -0.148336,0.48223 -0.03697,0.0198 -0.32279,0.0361 -0.63513,0.0361 -0.72884,0 -0.735872,-0.004 -0.754176,-0.44998 -0.01178,-0.287 -0.0059,-0.31723 0.07982,-0.41665 z m 11.610388,0.003 c 0.07234,-4e-5 0.155304,7.7e-4 0.250586,0.002 0.771375,0.006 0.766806,0.003 0.766806,0.4958 0,0.30552 -0.0072,0.33858 -0.0868,0.40309 -0.07724,0.0626 -0.150333,0.0704 -0.666572,0.0704 -0.757589,0 -0.753235,0.003 -0.753235,-0.49149 0,-0.43575 -0.01714,-0.47901 0.489212,-0.47928 z m -10.990305,1.74241 c 0.689192,0 0.742413,0.0356 0.744234,0.50024 9.62e-4,0.24715 -0.01199,0.31477 -0.07511,0.39502 l -0.07604,0.0967 h -0.619411 -0.619276 l -0.07618,-0.0967 c -0.0625,-0.0795 -0.07618,-0.14913 -0.07618,-0.38831 0,-0.16028 0.01622,-0.32164 0.03601,-0.35862 0.06007,-0.11223 0.245893,-0.14833 0.761968,-0.14833 z m 11.457886,0.0106 c 0.558208,0.006 0.5862,0.0852 0.562441,0.55573 -0.01018,0.20152 -0.03176,0.29213 -0.08317,0.34893 -0.06518,0.072 -0.10745,0.0768 -0.685785,0.0768 h -0.616322 l -0.07618,-0.0967 c -0.107482,-0.13666 -0.11142,-0.65987 -0.0059,-0.79018 0.06777,-0.0837 0.0898,-0.0871 0.631772,-0.0935 0.102775,-10e-4 0.193415,-0.002 0.27316,-10e-4 z m -5.826221,0.0595 v 1.4e-4 c 2.101085,-2.5e-4 4.202151,0.003 4.21038,0.0118 0.02551,0.0253 0.02673,6.04419 0.0013,6.08527 h -2.86e-4 c -0.0371,0.0599 -8.383668,0.0615 -8.420759,0.002 -0.0248,-0.0403 -0.02597,-6.06066 -0.0011,-6.08553 0.0083,-0.008 2.109297,-0.0127 4.21038,-0.013 z m -5.664583,1.69351 c 0.53582,0 0.592751,0.006 0.681485,0.0761 0.09149,0.0719 0.09674,0.094 0.09674,0.39932 0,0.27121 -0.01225,0.33862 -0.07618,0.41989 l -0.07605,0.0967 h -0.619413 -0.619277 l -0.07618,-0.0967 c -0.06333,-0.0805 -0.07618,-0.1489 -0.07618,-0.40592 0,-0.27913 0.0088,-0.31774 0.0903,-0.39919 0.0882,-0.0881 0.10304,-0.0902 0.674767,-0.0902 z m 10.667968,0 h 0.619277 0.61941 l 0.07618,0.0968 c 0.06302,0.0802 0.07604,0.14887 0.07604,0.39919 0,0.25031 -0.01302,0.31919 -0.07604,0.39933 l -0.07618,0.0967 h -0.61941 -0.619277 l -0.07618,-0.0967 c -0.06302,-0.0802 -0.07618,-0.14902 -0.07618,-0.39933 0,-0.25032 0.01315,-0.31906 0.07618,-0.39919 z m -10.661385,1.7271 c 0.584738,0 0.592337,10e-4 0.68498,0.0936 0.08933,0.0894 0.09311,0.10965 0.08102,0.43965 -0.009,0.24623 -0.02876,0.362 -0.06825,0.40147 -0.07522,0.0752 -1.15092,0.10582 -1.313527,0.0374 -0.139977,-0.0589 -0.15586,-0.10768 -0.15586,-0.48089 0,-0.2812 0.0088,-0.31966 0.09029,-0.40121 0.08829,-0.0883 0.102584,-0.0901 0.681352,-0.0901 z m 11.28738,0 c 0.571727,0 0.586566,0.002 0.674768,0.0901 0.08072,0.0807 0.09016,0.12109 0.09016,0.38414 0,0.32438 -0.04498,0.46571 -0.161637,0.50695 -0.125094,0.0442 -1.122672,0.034 -1.233984,-0.0126 -0.131997,-0.0553 -0.147664,-0.10733 -0.147664,-0.49136 0,-0.30738 0.0053,-0.32905 0.09687,-0.40108 0.08874,-0.0698 0.145666,-0.0761 0.681487,-0.0761 z m -11.495641,1.73152 c 0.324955,-10e-4 0.795386,0.029 0.86274,0.0651 0.101746,0.0544 0.117164,0.11625 0.117164,0.46773 0,0.2812 -0.0086,0.31965 -0.09016,0.40121 -0.08829,0.0883 -0.102722,0.0901 -0.681487,0.0901 -0.578765,0 -0.593066,-0.002 -0.681352,-0.0901 -0.08247,-0.0825 -0.09029,-0.11868 -0.09029,-0.42258 0,-0.39065 0.04216,-0.45915 0.307154,-0.49889 0.05567,-0.008 0.147909,-0.0122 0.256228,-0.0126 z m 11.663729,0.0119 c 0.216043,10e-4 0.379189,0.0106 0.417464,0.0247 0.152103,0.059 0.188797,0.17034 0.174132,0.52751 -0.01163,0.2833 -0.023,0.32782 -0.09983,0.39005 -0.07721,0.0624 -0.150415,0.0702 -0.665631,0.0702 -0.530012,0 -0.587066,-0.006 -0.675708,-0.076 -0.09236,-0.0726 -0.09687,-0.0921 -0.09687,-0.42258 0,-0.29742 0.01039,-0.35678 0.07349,-0.41988 0.04042,-0.0404 0.102488,-0.0751 0.137856,-0.0769 0.250104,-0.0129 0.519053,-0.0185 0.735097,-0.0171 z"
       inkscape:connector-curvature="0" />
  </g>
</svg>
