<?xml version="1.0" encoding="UTF-8" standalone="no"?>
<!-- Created with Inkscape (http://www.inkscape.org/) -->

<svg
   xmlns:osb="http://www.openswatchbook.org/uri/2009/osb"
   xmlns:dc="http://purl.org/dc/elements/1.1/"
   xmlns:cc="http://creativecommons.org/ns#"
   xmlns:rdf="http://www.w3.org/1999/02/22-rdf-syntax-ns#"
   xmlns:svg="http://www.w3.org/2000/svg"
   xmlns="http://www.w3.org/2000/svg"
   xmlns:xlink="http://www.w3.org/1999/xlink"
   xmlns:sodipodi="http://sodipodi.sourceforge.net/DTD/sodipodi-0.dtd"
   xmlns:inkscape="http://www.inkscape.org/namespaces/inkscape"
   width="128"
   height="128"
   viewBox="0 0 33.866666 33.866668"
   version="1.1"
   id="svg8"
   inkscape:version="0.92.2 5c3e80d, 2017-08-06"
   sodipodi:docname="folder-steam.svg">
  <defs
     id="defs2">
    <linearGradient
       inkscape:collect="always"
       id="linearGradient7009">
      <stop
         style="stop-color:#63c4f2;stop-opacity:1"
         offset="0"
         id="stop7005" />
      <stop
         style="stop-color:#7cd4fa;stop-opacity:1"
         offset="1"
         id="stop7007" />
    </linearGradient>
    <linearGradient
       osb:paint="solid"
       id="linearGradient6987">
      <stop
         id="stop6985"
         offset="0"
         style="stop-color:#77d2fb;stop-opacity:1;" />
    </linearGradient>
    <linearGradient
       inkscape:collect="always"
       id="linearGradient1006">
      <stop
         style="stop-color:#59b0d9;stop-opacity:1"
         offset="0"
         id="stop1002" />
      <stop
         style="stop-color:#7cd4fa;stop-opacity:1"
         offset="1"
         id="stop1004" />
    </linearGradient>
    <linearGradient
       gradientTransform="matrix(0.25104166,0,0,0.25614281,-15.770937,249.30337)"
       gradientUnits="userSpaceOnUse"
       y2="132.42918"
       x2="124.11147"
       y1="84.320671"
       x1="123.07384"
       id="linearGradient7011-3"
       xlink:href="#linearGradient7009"
       inkscape:collect="always" />
    <linearGradient
       gradientTransform="matrix(0.26137453,0,0,0.28556168,0.207633,261.0264)"
       gradientUnits="userSpaceOnUse"
       y2="110.65087"
       x2="70.726562"
       y1="113.65864"
       x1="70.726562"
       id="linearGradient1033"
       xlink:href="#linearGradient1006"
       inkscape:collect="always" />
    <linearGradient
       gradientTransform="matrix(0.26295085,0,0,0.26458333,0.10257,263.13331)"
       gradientUnits="userSpaceOnUse"
       y2="107.45322"
       x2="60.902935"
       y1="111.36977"
       x1="60.902935"
       id="linearGradient986"
       xlink:href="#linearGradient1006"
       inkscape:collect="always" />
    <linearGradient
       gradientTransform="matrix(0.26302556,0,0,0.26458333,0.099041,263.13331)"
       gradientUnits="userSpaceOnUse"
       y2="103.91254"
       x2="59.245655"
       y1="107.43008"
       x1="59.245655"
       id="linearGradient994"
       xlink:href="#linearGradient1006"
       inkscape:collect="always" />
    <linearGradient
       id="linearGradient4574"
       inkscape:collect="always">
      <stop
         id="stop4570"
         offset="0"
         style="stop-color:#50b2e3;stop-opacity:1" />
      <stop
         id="stop4572"
         offset="1"
         style="stop-color:#5ec2ee;stop-opacity:1" />
    </linearGradient>
    <linearGradient
       inkscape:collect="always"
       xlink:href="#linearGradient4574"
       id="linearGradient1157"
       x1="19.175497"
       y1="275.39661"
       x2="19.189709"
       y2="285.7319"
       gradientUnits="userSpaceOnUse"
       gradientTransform="matrix(1.2957059,0,0,1.2957059,-5.9798452,-82.001163)" />
  </defs>
  <sodipodi:namedview
     id="base"
     pagecolor="#ffffff"
     bordercolor="#666666"
     borderopacity="1.0"
     inkscape:pageopacity="0.0"
     inkscape:pageshadow="2"
     inkscape:zoom="3.6203867"
     inkscape:cx="63.158777"
     inkscape:cy="61.362575"
     inkscape:document-units="mm"
     inkscape:current-layer="layer1"
     showgrid="false"
     inkscape:window-width="1600"
     inkscape:window-height="814"
     inkscape:window-x="0"
     inkscape:window-y="0"
     inkscape:window-maximized="1"
     units="px" />
  <metadata
     id="metadata5">
    <rdf:RDF>
      <cc:Work
         rdf:about="">
        <dc:format>image/svg+xml</dc:format>
        <dc:type
           rdf:resource="http://purl.org/dc/dcmitype/StillImage" />
        <dc:title />
      </cc:Work>
    </rdf:RDF>
  </metadata>
  <g
     inkscape:label="Layer 1"
     inkscape:groupmode="layer"
     id="layer1"
     transform="translate(0,-263.13331)">
    <path
       inkscape:connector-curvature="0"
       style="fill:#97ddff;fill-opacity:1;stroke:#59b0d9;stroke-width:0.2;stroke-miterlimit:4;stroke-dasharray:none;stroke-opacity:1"
       d="m 2.32678,266.73146 c -1.087002,0 -1.962197,0.88554 -1.962197,1.98584 v 2.37881 1.63039 0.78694 6.6397 1.59032 10.06124 0.72222 c 0,0.48468 0.382274,0.87478 0.857306,0.87478 h 0.707829 30.007232 0.707827 c 0.475032,0 0.857306,-0.3901 0.857306,-0.87478 v -0.72222 -10.06124 -1.59032 -7.42664 -1.63039 c 0,-0.91589 -0.728604,-1.65299 -1.633452,-1.65299 H 12.238444 c -0.969415,-0.091 -1.011271,-2.40862 -2.716257,-2.71166 z"
       id="path7028-3" />
    <path
       inkscape:connector-curvature="0"
       id="rect5176-9"
       d="m 1.929839,271.12962 c -0.86715,0 -1.565184,0.71234 -1.565184,1.59712 v 7.42624 11.65185 0.7222 c 0,0.48468 0.382351,0.8748 0.857383,0.8748 h 0.707801 30.007047 0.707804 c 0.475033,0 0.857381,-0.39012 0.857381,-0.8748 v -0.7222 -11.65185 -7.42624 c 0,-0.88478 -0.698031,-1.59712 -1.565185,-1.59712 z"
       style="fill:url(#linearGradient7011-3);fill-opacity:1;stroke:#59b0d9;stroke-width:0.2;stroke-miterlimit:4;stroke-dasharray:none;stroke-opacity:1" />
    <path
       style="fill:url(#linearGradient1033);fill-opacity:1;stroke:none;stroke-width:0.2;stroke-miterlimit:4;stroke-dasharray:none;stroke-opacity:1"
       d="m 0.469008,292.39133 v 0.14724 c 0,0.52625 0.379917,0.94982 0.852019,0.94982 h 0.703466 29.822221 0.703464 c 0.472105,0 0.85202,-0.42357 0.85202,-0.94982 v -0.14724 z"
       id="path1020"
       inkscape:connector-curvature="0" />
    <path
       style="fill:url(#linearGradient994);fill-opacity:1;stroke:none;stroke-width:0.19999999;stroke-miterlimit:4;stroke-dasharray:none;stroke-opacity:1"
       d="m 0.461729,290.61897 v 0.93793 h 32.941897 v -0.93793 z"
       id="path966"
       inkscape:connector-curvature="0" />
    <path
       style="fill:url(#linearGradient986);fill-opacity:1;stroke:none;stroke-width:0.2;stroke-miterlimit:4;stroke-dasharray:none;stroke-opacity:1"
       d="m 0.465155,291.6773 v 0.12764 0.72192 c 0,0.0303 0.0053,0.0589 0.0082,0.0884 h 32.916103 c 0.0029,-0.0295 0.0082,-0.0581 0.0082,-0.0884 v -0.72192 -0.12764 z"
       id="path973"
       inkscape:connector-curvature="0" />
    <g
       style="stroke-width:4.08449793"
       inkscape:transform-center-y="-9.4924686"
       inkscape:transform-center-x="5.4653607"
       inkscape:label="Capa 1"
       id="layer1-4-9-22"
       transform="matrix(0.53602412,0,0,0.5372689,-252.34828,-16.132824)">
      <g
         style="stroke-width:4.08449793"
         id="layer1-3-65-0-7"
         inkscape:label="Capa 1"
         transform="translate(0.41988239,0.03484499)" />
    </g>
    <g
       style="stroke-width:4.08449793"
       inkscape:transform-center-y="-9.4924686"
       inkscape:transform-center-x="5.4653607"
       inkscape:label="Capa 1"
       id="layer1-4-3"
       transform="matrix(0.53602412,0,0,0.5372689,-252.34828,-16.107824)">
      <g
         style="stroke-width:4.08449793"
         id="layer1-3-65-7"
         inkscape:label="Capa 1"
         transform="translate(0.41988239,0.03484499)" />
    </g>
    <g
       style="stroke-width:4.08449793"
       inkscape:transform-center-y="-9.4924686"
       inkscape:transform-center-x="5.4653607"
       inkscape:label="Capa 1"
       id="layer1-4-9-2"
       transform="matrix(0.53602412,0,0,0.5372689,-285.10233,-59.730885)">
      <g
         style="stroke-width:4.08449793"
         id="layer1-3-65-0-2"
         inkscape:label="Capa 1"
         transform="translate(0.41988239,0.03484499)" />
    </g>
    <g
       style="stroke-width:4.08449793"
       inkscape:transform-center-y="-9.4924686"
       inkscape:transform-center-x="5.4653607"
       inkscape:label="Capa 1"
       id="layer1-4-7"
       transform="matrix(0.53602412,0,0,0.5372689,-285.10233,-59.705884)">
      <g
         style="stroke-width:4.08449793"
         id="layer1-3-65-3"
         inkscape:label="Capa 1"
         transform="translate(0.41988239,0.03484499)" />
    </g>
    <g
       style="stroke-width:4.08449793"
       inkscape:transform-center-y="-9.4924686"
       inkscape:transform-center-x="5.4653607"
       inkscape:label="Capa 1"
       id="layer1-4-9"
       transform="matrix(0.53602412,0,0,0.5372689,-252.34828,-16.132827)">
      <g
         style="stroke-width:4.08449793"
         id="layer1-3-65-0"
         inkscape:label="Capa 1"
         transform="translate(0.41988239,0.03484499)" />
    </g>
    <g
       style="stroke-width:4.08449793"
       inkscape:transform-center-y="-9.4924686"
       inkscape:transform-center-x="5.4653607"
       inkscape:label="Capa 1"
       id="layer1-4"
       transform="matrix(0.53602412,0,0,0.5372689,-252.34828,-16.107827)">
      <g
         style="stroke-width:4.08449793"
         id="layer1-3-65"
         inkscape:label="Capa 1"
         transform="translate(0.41988239,0.03484499)" />
    </g>
    <path
       inkscape:connector-curvature="0"
       style="fill:url(#linearGradient1157);fill-opacity:1;stroke-width:0.26458332"
       d="m 7.9518935,283.14058 3.3770415,1.95012 c -0.0056,0.0775 -0.009,0.15487 -0.009,0.23237 0,1.86029 1.507768,3.36806 3.368057,3.36806 1.860289,0 3.368055,-1.50777 3.368055,-3.36806 -0.0023,-0.15381 -0.01464,-0.30647 -0.03705,-0.45803 l 4.084328,-2.91673 c 2.121874,-0.064 3.809274,-1.80082 3.811518,-3.92268 0,-2.17015 -1.759247,-3.92941 -3.929399,-3.92941 -2.170152,0 -3.930523,1.75926 -3.929399,3.94514 l -2.606876,4.00573 c -0.249238,-0.0592 -0.505208,-0.0909 -0.761181,-0.0921 -0.508578,10e-4 -1.010419,0.11795 -1.467352,0.34016 l -5.2687172,-3.04138 m 14.0335692,-4.03493 c 1.550428,0 2.806712,1.25629 2.806712,2.80671 0,1.55044 -1.256284,2.80672 -2.806712,2.80672 -1.55043,0 -2.806714,-1.25627 -2.806714,-2.80672 0,-1.55042 1.256284,-2.80671 2.806714,-2.80671 z m 0,1.12268 c -0.929583,0 -1.684029,0.75445 -1.684029,1.68403 0,0.92959 0.754446,1.68403 1.684029,1.68403 0.929584,0 1.684028,-0.75444 1.684028,-1.68403 0,-0.92958 -0.754444,-1.68403 -1.684028,-1.68403 z m -7.297456,6.73612 c 1.240567,0 2.245373,1.00479 2.245373,2.24537 0,1.24055 -1.004806,2.24538 -2.245373,2.24538 -1.071042,-0.001 -1.991641,-0.75894 -2.199339,-1.80865 l 0.791491,0.45807 c 0.808335,0.4659 1.833345,0.192 2.300384,-0.61636 0.465915,-0.80832 0.191984,-1.83335 -0.616355,-2.30039 l -0.379467,-0.21892 c 0.0348,-0.002 0.06849,-0.003 0.103279,-0.003 z"
       id="path1125" />
  </g>
</svg>
