<?xml version="1.0" encoding="UTF-8" standalone="no"?>
<!-- Created with Inkscape (http://www.inkscape.org/) -->

<svg
   xmlns:osb="http://www.openswatchbook.org/uri/2009/osb"
   xmlns:dc="http://purl.org/dc/elements/1.1/"
   xmlns:cc="http://creativecommons.org/ns#"
   xmlns:rdf="http://www.w3.org/1999/02/22-rdf-syntax-ns#"
   xmlns:svg="http://www.w3.org/2000/svg"
   xmlns="http://www.w3.org/2000/svg"
   xmlns:xlink="http://www.w3.org/1999/xlink"
   xmlns:sodipodi="http://sodipodi.sourceforge.net/DTD/sodipodi-0.dtd"
   xmlns:inkscape="http://www.inkscape.org/namespaces/inkscape"
   width="128"
   height="128"
   viewBox="0 0 33.866666 33.866668"
   version="1.1"
   id="svg8"
   inkscape:version="0.92.1 r15371"
   sodipodi:docname="folder (நகல்).svg">
  <defs
     id="defs2">
    <linearGradient
       inkscape:collect="always"
       id="linearGradient4527">
      <stop
         style="stop-color:#54a6cc;stop-opacity:1"
         offset="0"
         id="stop4523" />
      <stop
         style="stop-color:#7cd4fa;stop-opacity:1"
         offset="1"
         id="stop4525" />
    </linearGradient>
    <linearGradient
       inkscape:collect="always"
       id="linearGradient4521">
      <stop
         style="stop-color:#54a6cc;stop-opacity:1"
         offset="0"
         id="stop4517" />
      <stop
         style="stop-color:#7cd4fa;stop-opacity:1"
         offset="1"
         id="stop4519" />
    </linearGradient>
    <linearGradient
       id="linearGradient1006"
       inkscape:collect="always">
      <stop
         id="stop1002"
         offset="0"
         style="stop-color:#54a6cc;stop-opacity:1" />
      <stop
         id="stop1004"
         offset="1"
         style="stop-color:#7cd4fa;stop-opacity:1" />
    </linearGradient>
    <linearGradient
       inkscape:collect="always"
       id="linearGradient7009">
      <stop
         style="stop-color:#63c4f2;stop-opacity:1"
         offset="0"
         id="stop7005" />
      <stop
         style="stop-color:#7cd4fa;stop-opacity:1"
         offset="1"
         id="stop7007" />
    </linearGradient>
    <linearGradient
       id="linearGradient6987"
       osb:paint="solid">
      <stop
         style="stop-color:#77d2fb;stop-opacity:1;"
         offset="0"
         id="stop6985" />
    </linearGradient>
    <linearGradient
       inkscape:collect="always"
       xlink:href="#linearGradient7009"
       id="linearGradient7011-3"
       x1="123.07384"
       y1="84.320671"
       x2="124.11147"
       y2="132.42918"
       gradientUnits="userSpaceOnUse"
       gradientTransform="matrix(0.2390156,0,0,0.24387238,-14.20425,250.57521)" />
    <linearGradient
       inkscape:collect="always"
       xlink:href="#linearGradient1006"
       id="linearGradient1033-6"
       x1="70.726562"
       y1="113.65864"
       x2="70.726562"
       y2="110.65087"
       gradientUnits="userSpaceOnUse"
       gradientTransform="matrix(0.24885348,0,0,0.27188195,1.0088719,261.56334)" />
    <linearGradient
       inkscape:collect="always"
       xlink:href="#linearGradient4527"
       id="linearGradient986-2"
       x1="60.902935"
       y1="111.36977"
       x2="60.902935"
       y2="107.45322"
       gradientUnits="userSpaceOnUse"
       gradientTransform="matrix(0.25035429,0,0,0.25190856,0.908842,263.56932)" />
    <linearGradient
       inkscape:collect="always"
       xlink:href="#linearGradient4521"
       id="linearGradient994-9"
       x1="59.245655"
       y1="107.43008"
       x2="59.245655"
       y2="103.91254"
       gradientUnits="userSpaceOnUse"
       gradientTransform="matrix(0.25042541,0,0,0.25190856,0.90548205,263.56932)" />
    <linearGradient
       inkscape:collect="always"
       id="linearGradient6636">
      <stop
         style="stop-color:#51b2e4;stop-opacity:1"
         offset="0"
         id="stop6632" />
      <stop
         style="stop-color:#5ebfeb;stop-opacity:1"
         offset="1"
         id="stop6634" />
    </linearGradient>
    <linearGradient
       id="linearGradient6088"
       osb:paint="solid">
      <stop
         style="stop-color:#51b3e3;stop-opacity:1;"
         offset="0"
         id="stop6086" />
    </linearGradient>
    <linearGradient
       inkscape:collect="always"
       xlink:href="#linearGradient6636"
       id="linearGradient6630"
       x1="232.24342"
       y1="201.54691"
       x2="232.30373"
       y2="255.4086"
       gradientUnits="userSpaceOnUse"
       gradientTransform="matrix(0.24522069,0,0,0.24522069,-40.140807,225.09418)" />
  </defs>
  <sodipodi:namedview
     id="base"
     pagecolor="#ffffff"
     bordercolor="#666666"
     borderopacity="1.0"
     inkscape:pageopacity="0.0"
     inkscape:pageshadow="2"
     inkscape:zoom="2.828427"
     inkscape:cx="93.105162"
     inkscape:cy="46.918159"
     inkscape:document-units="mm"
     inkscape:current-layer="layer1"
     showgrid="false"
     inkscape:window-width="1366"
     inkscape:window-height="704"
     inkscape:window-x="0"
     inkscape:window-y="27"
     inkscape:window-maximized="1"
     units="px"
     showguides="false" />
  <metadata
     id="metadata5">
    <rdf:RDF>
      <cc:Work
         rdf:about="">
        <dc:format>image/svg+xml</dc:format>
        <dc:type
           rdf:resource="http://purl.org/dc/dcmitype/StillImage" />
        <dc:title />
      </cc:Work>
    </rdf:RDF>
  </metadata>
  <g
     inkscape:label="Layer 1"
     inkscape:groupmode="layer"
     id="layer1"
     transform="translate(0,-263.13331)">
    <path
       id="path1228"
       d="m 3.026502,267.67223 c -1.0349286,0 -1.8681987,0.84313 -1.8681987,1.89071 v 2.26485 1.5523 0.74923 6.32164 1.51413 9.57926 0.68762 c 0,0.46147 0.3639613,0.83287 0.8162371,0.83287 h 0.6739207 28.5697459 0.673919 c 0.452277,0 0.816237,-0.3714 0.816237,-0.83287 v -0.68762 -9.57926 -1.51413 -7.07087 -1.5523 c 0,-0.872 -0.6937,-1.57379 -1.555201,-1.57379 H 12.463351 c -0.922975,-0.0867 -0.962826,-2.29325 -2.5861353,-2.58177 z"
       style="opacity:0.25;fill:#000000;fill-opacity:1;stroke:none;stroke-width:0.19041908;stroke-miterlimit:4;stroke-dasharray:none;stroke-opacity:1"
       inkscape:connector-curvature="0" />
    <path
       inkscape:connector-curvature="0"
       style="fill:#97ddff;fill-opacity:1;stroke:#4891b2;stroke-width:0.19994003;stroke-miterlimit:4;stroke-dasharray:none;stroke-opacity:1"
       d="m 3.026502,267.16841 c -1.0349286,0 -1.8681987,0.84312 -1.8681987,1.89072 v 2.26485 1.55228 0.74925 6.32162 1.51414 9.57926 0.68763 c 0,0.46146 0.3639613,0.83287 0.8162371,0.83287 h 0.6739207 28.5697459 0.673919 c 0.452277,0 0.816237,-0.37141 0.816237,-0.83287 v -0.68763 -9.57926 -1.51414 -7.07087 -1.55228 c 0,-0.87201 -0.6937,-1.5738 -1.555201,-1.5738 H 12.463351 c -0.922975,-0.0867 -0.962826,-2.29324 -2.5861353,-2.58177 z"
       id="path7028-3" />
    <path
       inkscape:connector-curvature="0"
       id="rect5176-9"
       d="m 2.6485763,271.35589 c -0.8256095,0 -1.4902044,0.67821 -1.4902044,1.5206 v 7.07049 11.09367 0.68761 c 0,0.46146 0.3640346,0.83289 0.8163103,0.83289 h 0.6738941 28.5695697 0.673897 c 0.452278,0 0.816309,-0.37143 0.816309,-0.83289 v -0.68761 -11.09367 -7.07049 c 0,-0.84239 -0.664592,-1.5206 -1.490206,-1.5206 z"
       style="fill:url(#linearGradient7011-3);fill-opacity:1;stroke:#4891b2;stroke-width:0.19994003;stroke-miterlimit:4;stroke-dasharray:none;stroke-opacity:1" />
    <path
       style="fill:url(#linearGradient1033-6);fill-opacity:1;stroke:none;stroke-width:0.19041908;stroke-miterlimit:4;stroke-dasharray:none;stroke-opacity:1"
       d="m 1.2577259,291.42575 -0.00248,0.23008 c -0.002,0.18203 0.027259,0.37488 0.1382177,0.51284 0.1385736,0.1723 0.2908527,0.30781 0.5885567,0.30593 l 0.7567425,-0.005 H 31.132366 31.80213 c 0.295013,0 0.291401,-0.0227 0.420899,-0.0834 0.0948,-0.0445 0.178294,-0.1163 0.243997,-0.19782 0.05306,-0.0659 0.09079,-0.14527 0.114247,-0.22651 0.02856,-0.099 0.02789,-0.19192 0.02928,-0.30757 l 0.0028,-0.22925 z"
       id="path1020-0"
       inkscape:connector-curvature="0"
       sodipodi:nodetypes="csasccsaaascc" />
    <path
       style="fill:url(#linearGradient994-9);fill-opacity:1;stroke:none;stroke-width:0.19041906;stroke-miterlimit:4;stroke-dasharray:none;stroke-opacity:1"
       d="m 1.2507956,289.73829 v 0.893 H 32.614623 v -0.893 z"
       id="path966-9"
       inkscape:connector-curvature="0" />
    <path
       style="fill:url(#linearGradient986-2);fill-opacity:1;stroke:none;stroke-width:0.19041908;stroke-miterlimit:4;stroke-dasharray:none;stroke-opacity:1"
       d="m 1.2540575,290.74592 v 0.12152 0.68735 c 0,0.0288 -8.579e-4,0.06 0.0019,0.0881 l 31.3500935,-0.004 c 0.0028,-0.0281 0.0029,-0.0553 0.0029,-0.0842 v -0.68734 -0.12152 z"
       id="path973-3"
       inkscape:connector-curvature="0"
       sodipodi:nodetypes="ccsccsccc" />
    <g
       style="stroke-width:4.08449793"
       inkscape:transform-center-y="-9.4924686"
       inkscape:transform-center-x="5.4653607"
       inkscape:label="Capa 1"
       id="layer1-4-9-22"
       transform="matrix(0.51049916,0,0,0.51168467,-314.3213,-2.6029569)">
      <g
         style="stroke-width:4.08449793"
         id="layer1-3-65-0-7"
         inkscape:label="Capa 1"
         transform="translate(0.41988239,0.03484499)" />
    </g>
    <g
       style="stroke-width:4.08449793"
       inkscape:transform-center-y="-9.4924686"
       inkscape:transform-center-x="5.4653607"
       inkscape:label="Capa 1"
       id="layer1-4-3"
       transform="matrix(0.51049916,0,0,0.51168467,-314.3213,-2.5791474)">
      <g
         style="stroke-width:4.08449793"
         id="layer1-3-65-7"
         inkscape:label="Capa 1"
         transform="translate(0.41988239,0.03484499)" />
    </g>
    <g
       style="stroke-width:4.08449793"
       inkscape:transform-center-y="-9.4924686"
       inkscape:transform-center-x="5.4653607"
       inkscape:label="Capa 1"
       id="layer1-4-9-2"
       transform="matrix(0.51049916,0,0,0.51168467,-345.51563,-44.12492)">
      <g
         style="stroke-width:4.08449793"
         id="layer1-3-65-0-2"
         inkscape:label="Capa 1"
         transform="translate(0.41988239,0.03484499)" />
    </g>
    <g
       style="stroke-width:4.08449793"
       inkscape:transform-center-y="-9.4924686"
       inkscape:transform-center-x="5.4653607"
       inkscape:label="Capa 1"
       id="layer1-4-7"
       transform="matrix(0.51049916,0,0,0.51168467,-345.51563,-44.101109)">
      <g
         style="stroke-width:4.08449793"
         id="layer1-3-65-3"
         inkscape:label="Capa 1"
         transform="translate(0.41988239,0.03484499)" />
    </g>
    <g
       style="stroke-width:4.08449793"
       inkscape:transform-center-y="-9.4924686"
       inkscape:transform-center-x="5.4653607"
       inkscape:label="Capa 1"
       id="layer1-4-9"
       transform="matrix(0.51049916,0,0,0.51168467,-314.3213,-2.6029598)">
      <g
         style="stroke-width:4.08449793"
         id="layer1-3-65-0"
         inkscape:label="Capa 1"
         transform="translate(0.41988239,0.03484499)" />
    </g>
    <g
       style="stroke-width:4.08449793"
       inkscape:transform-center-y="-9.4924686"
       inkscape:transform-center-x="5.4653607"
       inkscape:label="Capa 1"
       id="layer1-4"
       transform="matrix(0.51049916,0,0,0.51168467,-314.3213,-2.5791502)">
      <g
         style="stroke-width:4.08449793"
         id="layer1-3-65"
         inkscape:label="Capa 1"
         transform="translate(0.41988239,0.03484499)" />
    </g>
    <path
       id="path6595"
       style="fill:url(#linearGradient6630);fill-opacity:1;stroke:#4891b2;stroke-width:0.15000001;stroke-miterlimit:4;stroke-dasharray:none;stroke-opacity:1"
       d="m 12.396355,274.17182 c -0.671743,0 -1.117381,0.0126 -1.129343,0.0319 -0.01857,0.0301 0.178448,0.32834 1.332981,2.01804 0.263067,0.385 0.661095,0.97002 0.884515,1.30002 0.223428,0.33 0.652428,0.96001 0.953323,1.40002 0.300896,0.44 0.726581,1.06245 0.945972,1.38329 0.21939,0.32084 0.398981,0.6028 0.399047,0.62664 6.7e-5,0.0238 -0.124885,0.22631 -0.277647,0.44999 -0.357619,0.52363 -0.916819,1.35137 -1.896257,2.80674 -1.069362,1.58901 -2.024086,2.99178 -2.427343,3.56671 -0.09,0.12833 -0.163991,0.25181 -0.164486,0.27435 -7.33e-4,0.0315 0.227886,0.0407 0.991086,0.0402 0.54559,-5e-4 1.008305,-0.0112 1.028343,-0.0242 0.02,-0.0129 0.435266,-0.62372 0.922657,-1.35706 0.48739,-0.73333 1.21119,-1.8133 1.608476,-2.39997 0.397286,-0.58668 0.850581,-1.25789 1.007305,-1.49164 0.156732,-0.23375 0.301493,-0.42502 0.321748,-0.42502 0.02026,0 0.171142,0.20627 0.335176,0.45835 0.369738,0.56819 0.93124,1.42814 1.376702,2.10839 0.577703,0.88218 1.142481,1.75908 1.706807,2.65 0.150973,0.23833 0.291634,0.44438 0.312625,0.45784 0.05771,0.037 2.221546,0.0313 2.221546,-0.006 0,-0.0172 -0.08486,-0.15611 -0.188558,-0.30845 -0.202065,-0.29683 -0.267218,-0.39131 -1.031002,-1.49581 -0.273423,-0.39539 -0.677061,-0.98433 -0.897061,-1.30878 -0.220007,-0.32445 -0.540572,-0.79602 -0.71243,-1.04786 -0.171858,-0.25184 -0.56819,-0.83282 -0.880709,-1.29116 -0.312522,-0.45834 -0.694498,-1.01809 -0.848779,-1.24389 l -0.280436,-0.41058 0.127731,-0.19136 c 0.07032,-0.10523 0.41288,-0.60724 0.761221,-1.11564 0.348333,-0.50841 0.773727,-1.13012 0.94521,-1.38153 0.17148,-0.2514 0.664273,-0.97171 1.095124,-1.60074 0.43085,-0.62901 0.920485,-1.34485 1.088157,-1.59073 0.167679,-0.24589 0.362505,-0.5292 0.43288,-0.62968 0.07038,-0.10048 0.118188,-0.19848 0.106322,-0.21771 -0.01429,-0.0231 -0.36833,-0.0349 -1.047989,-0.0349 h -1.026312 l -0.577468,0.87501 c -0.317602,0.48125 -0.759968,1.15246 -0.982979,1.49164 -0.223008,0.33917 -0.712273,1.0817 -1.087266,1.65003 -0.374995,0.56834 -0.726121,1.10431 -0.780355,1.19106 -0.05423,0.0868 -0.119915,0.15428 -0.145981,0.15004 -0.02607,-0.004 -0.249162,-0.33031 -0.495734,-0.72448 -0.246571,-0.39416 -0.703552,-1.12169 -1.015543,-1.6167 -0.31199,-0.495 -0.732362,-1.16244 -0.934066,-1.48328 -0.201696,-0.32083 -0.501915,-0.79712 -0.667181,-1.05837 l -0.300457,-0.47495 z"
       inkscape:connector-curvature="0" />
  </g>
</svg>
