<?xml version="1.0" encoding="UTF-8" standalone="no"?>
<!-- Created with Inkscape (http://www.inkscape.org/) -->

<svg
   xmlns:osb="http://www.openswatchbook.org/uri/2009/osb"
   xmlns:dc="http://purl.org/dc/elements/1.1/"
   xmlns:cc="http://creativecommons.org/ns#"
   xmlns:rdf="http://www.w3.org/1999/02/22-rdf-syntax-ns#"
   xmlns:svg="http://www.w3.org/2000/svg"
   xmlns="http://www.w3.org/2000/svg"
   xmlns:xlink="http://www.w3.org/1999/xlink"
   xmlns:sodipodi="http://sodipodi.sourceforge.net/DTD/sodipodi-0.dtd"
   xmlns:inkscape="http://www.inkscape.org/namespaces/inkscape"
   width="128"
   height="128"
   viewBox="0 0 33.866666 33.866668"
   version="1.1"
   id="svg8"
   inkscape:version="0.92.2 5c3e80d, 2017-08-06"
   sodipodi:docname="folder copy.svg">
  <defs
     id="defs2">
    <linearGradient
       inkscape:collect="always"
       xlink:href="#linearGradient7009"
       id="linearGradient7011"
       x1="123.07384"
       y1="84.320671"
       x2="124.11147"
       y2="132.42918"
       gradientUnits="userSpaceOnUse"
       gradientTransform="matrix(0.25255681,0,0,0.25768595,-15.968322,248.84654)" />
    <linearGradient
       inkscape:collect="always"
       id="linearGradient7009">
      <stop
         style="stop-color:#63c4f2;stop-opacity:1"
         offset="0"
         id="stop7005" />
      <stop
         style="stop-color:#7cd4fa;stop-opacity:1"
         offset="1"
         id="stop7007" />
    </linearGradient>
    <linearGradient
       inkscape:collect="always"
       id="linearGradient6475">
      <stop
         style="stop-color:#4db0e3;stop-opacity:1"
         offset="0"
         id="stop6471" />
      <stop
         style="stop-color:#5bbfec;stop-opacity:1"
         offset="1"
         id="stop6473" />
    </linearGradient>
    <linearGradient
       osb:paint="solid"
       id="linearGradient6088">
      <stop
         id="stop6086"
         offset="0"
         style="stop-color:#51b3e3;stop-opacity:1;" />
    </linearGradient>
    <linearGradient
       osb:paint="solid"
       id="linearGradient6987">
      <stop
         id="stop6985"
         offset="0"
         style="stop-color:#77d2fb;stop-opacity:1;" />
    </linearGradient>
    <linearGradient
       gradientTransform="matrix(0.25748172,0,0,0.25748172,-0.50676276,220.86902)"
       gradientUnits="userSpaceOnUse"
       y2="265.51202"
       x2="68.737701"
       y1="212.27159"
       x1="67.724297"
       id="linearGradient6469"
       xlink:href="#linearGradient6475"
       inkscape:collect="always" />
  </defs>
  <sodipodi:namedview
     id="base"
     pagecolor="#ffffff"
     bordercolor="#666666"
     borderopacity="1.0"
     inkscape:pageopacity="0.0"
     inkscape:pageshadow="2"
     inkscape:zoom="5.12"
     inkscape:cx="79.910635"
     inkscape:cy="53.306829"
     inkscape:document-units="mm"
     inkscape:current-layer="layer1"
     showgrid="false"
     inkscape:window-width="1600"
     inkscape:window-height="814"
     inkscape:window-x="0"
     inkscape:window-y="0"
     inkscape:window-maximized="1"
     units="px" />
  <metadata
     id="metadata5">
    <rdf:RDF>
      <cc:Work
         rdf:about="">
        <dc:format>image/svg+xml</dc:format>
        <dc:type
           rdf:resource="http://purl.org/dc/dcmitype/StillImage" />
        <dc:title />
      </cc:Work>
    </rdf:RDF>
  </metadata>
  <g
     inkscape:label="Layer 1"
     inkscape:groupmode="layer"
     id="layer1"
     transform="translate(0,-263.13331)">
    <path
       id="path3726"
       style="opacity:0.25;fill:#000000;fill-opacity:1;stroke-width:0.07295433"
       d="m 1.839255,271.34745 c -0.87238339,0 -1.57463018,0.71666 -1.57463018,1.60675 v 7.47097 11.72207 0.72653 c 0,0.4876 0.38465877,0.88009 0.86255748,0.88009 h 0.7120727 30.188153 0.712078 c 0.477897,0 0.862556,-0.39249 0.862556,-0.88009 v -0.72653 -11.72207 -7.47097 c 0,-0.89009 -0.702246,-1.60675 -1.574634,-1.60675 z m 0.3993405,-4.42484 c -1.0935623,0 -1.97401229,0.89107 -1.97401229,1.998 v 2.39332 2.43155 8.27983 c 0,0.92145 0.73293882,1.66319 1.64324119,1.66319 H 31.95898 c 0.910304,0 1.643103,-0.74174 1.643103,-1.66319 v -10.71138 c 0,-0.92143 -0.732793,-1.66317 -1.643103,-1.66317 l -19.749002,-8e-5 c -0.975266,-0.0917 -1.017482,-2.4232 -2.7327582,-2.72807 z"
       inkscape:connector-curvature="0" />
    <path
       inkscape:connector-curvature="0"
       d="m 1.839255,270.80428 c -0.87238339,0 -1.57463018,0.71663 -1.57463018,1.60674 v 7.47098 11.72205 0.72655 c 0,0.4876 0.38465877,0.88007 0.86255748,0.88007 h 0.7120727 30.188153 0.712078 c 0.477897,0 0.862556,-0.39247 0.862556,-0.88007 v -0.72655 -11.72205 -7.47098 c 0,-0.89011 -0.702246,-1.60674 -1.574634,-1.60674 z m 0.3993405,-4.42484 c -1.0935623,0 -1.97401229,0.89105 -1.97401229,1.99798 v 2.39332 2.43157 8.27983 c 0,0.92142 0.73293882,1.66316 1.64324119,1.66316 H 31.95898 c 0.910304,0 1.643103,-0.74174 1.643103,-1.66316 v -10.7114 c 0,-0.92141 -0.732793,-1.66317 -1.643103,-1.66317 l -19.749002,-8e-5 c -0.975266,-0.0915 -1.017482,-2.42318 -2.7327582,-2.72805 z"
       style="fill:#97ddff;fill-opacity:1;stroke-width:0.07295433"
       id="path7028" />
    <path
       inkscape:connector-curvature="0"
       id="rect5176"
       d="m 1.8392858,270.80428 c -0.87238343,0 -1.57463021,0.71663 -1.57463021,1.60674 v 7.47098 11.72205 0.72655 c 0,0.4876 0.38465878,0.88007 0.86255751,0.88007 h 0.7120727 30.1881532 0.712076 c 0.4779,0 0.862556,-0.39247 0.862556,-0.88007 v -0.72655 -11.72205 -7.47098 c 0,-0.89011 -0.702244,-1.60674 -1.574632,-1.60674 z"
       style="fill:url(#linearGradient7011);fill-opacity:1;stroke-width:0.07295433" />
    <rect
       style="fill:#5ebae5;fill-opacity:1;stroke:none;stroke-width:0.14778438;stroke-linecap:round;stroke-linejoin:round;stroke-miterlimit:4;stroke-dasharray:none;stroke-opacity:1"
       id="rect5180"
       width="30.427078"
       height="0.26995665"
       x="1.7198211"
       y="291.00845"
       ry="0.13497832" />
    <rect
       ry="0.13497832"
       y="291.84982"
       x="1.7198211"
       height="0.26995665"
       width="30.427078"
       id="rect5182"
       style="fill:#5ebae5;fill-opacity:1;stroke:none;stroke-width:0.14778438;stroke-linecap:round;stroke-linejoin:round;stroke-miterlimit:4;stroke-dasharray:none;stroke-opacity:1" />
    <path
       style="fill:#90d3f2;fill-opacity:1;stroke-width:0.07295433"
       d="m 2.2390733,266.37944 c -1.0935605,0 -1.97438151,0.89084 -1.97438151,1.99777 v 0.36196 c 0,-1.10693 0.88081921,-1.99777 1.97438151,-1.99777 h 7.238172 c 1.7152727,0.30487 1.7576317,2.63664 2.7329017,2.72822 h 19.748535 c 0.91031,0 1.643295,0.74153 1.643295,1.66293 v -0.36196 c 0,-0.92141 -0.732985,-1.66292 -1.643295,-1.66292 H 12.210147 c -0.97527,-0.0915 -1.017629,-2.42336 -2.7329017,-2.72823 z"
       id="path3721"
       inkscape:connector-curvature="0" />
    <path
       id="path6355"
       style="fill:url(#linearGradient6469);fill-opacity:1;stroke-width:0.03638801"
       d="m 9.9650543,274.63353 0.0048,2.00132 c 0.0027,1.10073 0.0085,4.40838 0.01291,7.35035 0.0044,2.94197 0.01559,5.36155 0.02488,5.37685 0.0093,0.0153 3.131014,0.0235 6.937212,0.0182 l 6.920446,-0.01 0.0039,-1.67386 c 0.0022,-0.92062 0.01038,-4.23649 0.01823,-7.36858 l 0.01424,-5.69473 h -6.968211 z m 12.5422527,0.8187 c 0.527542,0 0.545046,0.003 0.631889,0.0893 0.0801,0.0801 0.08928,0.11967 0.08928,0.38374 0,0.26407 -0.0092,0.30363 -0.08928,0.38374 -0.08694,0.087 -0.104035,0.0893 -0.638542,0.0893 -0.534509,0 -0.551473,-0.002 -0.638409,-0.0893 -0.08077,-0.0808 -0.08928,-0.11875 -0.08928,-0.39758 0,-0.28973 0.0057,-0.31286 0.0958,-0.38373 0.08726,-0.0686 0.144741,-0.0754 0.638543,-0.0754 z m -11.462626,0.002 c 0.07811,0 0.177712,0.002 0.307362,0.005 0.697894,0.0146 0.705337,0.0192 0.705337,0.43803 0,0.27517 -0.03667,0.41541 -0.123743,0.47355 -0.02202,0.0147 -0.290514,0.027 -0.596629,0.0273 -0.542761,5.2e-4 -0.558762,-0.002 -0.64586,-0.0887 -0.08077,-0.0808 -0.08928,-0.11875 -0.08928,-0.39757 0,-0.29218 0.0052,-0.31248 0.09899,-0.38627 0.06971,-0.0548 0.109504,-0.0708 0.34382,-0.0708 z m 5.886325,0.0705 v 1.3e-4 c 3.243,0 4.11194,0.01 4.13702,0.0455 0.01745,0.025 0.0318,1.38644 0.0318,3.02533 v 2.97968 l -4.136221,0.008 c -2.274897,0.004 -4.156339,-0.004 -4.180929,-0.0196 -0.03509,-0.0217 -0.03953,-0.66755 -0.02076,-3.00098 0.01315,-1.6353 0.03292,-2.98784 0.04391,-3.00563 0.01148,-0.0186 1.768145,-0.0323 4.125178,-0.0323 z m -5.601449,1.67399 c 0.739037,0 0.727823,-0.007 0.727823,0.45426 0,0.32503 -0.0045,0.34445 -0.09593,0.41634 -0.08714,0.0685 -0.144726,0.0754 -0.631889,0.0754 -0.487166,0 -0.54475,-0.007 -0.63189,-0.0754 -0.0914,-0.0719 -0.0958,-0.0913 -0.0958,-0.41634 0,-0.46133 -0.01135,-0.45426 0.727691,-0.45426 z m 11.171097,0 c 0.739036,0 0.727824,-0.007 0.727824,0.45426 0,0.32503 -0.0045,0.34445 -0.09593,0.41634 -0.08713,0.0685 -0.144726,0.0754 -0.631889,0.0754 -0.487166,0 -0.544749,-0.007 -0.63189,-0.0754 -0.0914,-0.0719 -0.0958,-0.0913 -0.0958,-0.41634 0,-0.46133 -0.01135,-0.45426 0.727691,-0.45426 z m -11.166973,1.71019 c 0.744907,0 0.740505,-0.003 0.728224,0.47648 -0.0065,0.2521 -0.02384,0.35796 -0.06679,0.40542 -0.05104,0.0564 -0.130709,0.0643 -0.652913,0.0643 -0.753111,0 -0.740331,0.008 -0.740331,-0.48925 0,-0.46466 -0.01243,-0.45692 0.731815,-0.45692 z m 11.166973,0 c 0.739629,0 0.727824,-0.007 0.727824,0.45692 0,0.2951 -0.01028,0.35397 -0.07278,0.41647 -0.06684,0.0668 -0.121304,0.0728 -0.667549,0.0728 -0.738714,0 -0.715183,0.0158 -0.715183,-0.483 0,-0.47156 -0.0133,-0.46317 0.727691,-0.46317 z m -11.759078,1.72842 0.552588,0.006 c 0.303953,0.003 0.589024,0.0153 0.633486,0.0265 0.110652,0.0278 0.166055,0.16751 0.166055,0.4186 0,0.24998 -0.05477,0.42824 -0.146895,0.47755 -0.03661,0.0196 -0.319655,0.0357 -0.628962,0.0357 -0.72176,0 -0.728725,-0.004 -0.746851,-0.44561 -0.01167,-0.28422 -0.0059,-0.31415 0.07904,-0.41261 z m 11.49762,0.003 c 0.07164,-4e-5 0.153796,7.7e-4 0.248152,0.002 0.763884,0.006 0.759359,0.003 0.759359,0.49099 0,0.30255 -0.0071,0.33529 -0.08595,0.39917 -0.07649,0.062 -0.148873,0.0697 -0.660098,0.0697 -0.75023,0 -0.745919,0.003 -0.745919,-0.48672 0,-0.43151 -0.01698,-0.47435 0.484461,-0.47462 z m -10.88356,1.72549 c 0.682497,0 0.735202,0.0353 0.737005,0.49537 9.52e-4,0.24476 -0.01187,0.31172 -0.07438,0.39119 l -0.07531,0.0958 h -0.613394 -0.613262 l -0.07544,-0.0958 c -0.0619,-0.0787 -0.07544,-0.14768 -0.07544,-0.38454 0,-0.15872 0.01606,-0.31852 0.03566,-0.35513 0.05948,-0.11114 0.243506,-0.14689 0.754568,-0.14689 z m 11.3466,0.0105 c 0.552786,0.006 0.580506,0.0844 0.556978,0.55033 -0.01008,0.19956 -0.03145,0.28929 -0.08236,0.34554 -0.06454,0.0713 -0.106406,0.076 -0.679125,0.076 h -0.610335 l -0.07544,-0.0958 c -0.106438,-0.13533 -0.110338,-0.65346 -0.0059,-0.78251 0.06711,-0.0829 0.08892,-0.0862 0.625636,-0.0926 0.101782,-10e-4 0.191536,-0.002 0.270506,-10e-4 z m -5.769634,0.0589 v 1.4e-4 c 2.080678,-2.6e-4 4.161337,0.003 4.169486,0.0116 0.02526,0.0251 0.02647,5.98548 0.0013,6.02617 h -2.83e-4 c -0.03674,0.0593 -8.302241,0.0609 -8.338971,0.002 -0.02456,-0.0399 -0.02571,-6.00179 -0.0011,-6.02643 0.0082,-0.008 2.08881,-0.0126 4.169486,-0.0129 z m -5.609565,1.67706 c 0.530616,0 0.586994,0.006 0.674867,0.0754 0.0906,0.0712 0.0958,0.0931 0.0958,0.39544 0,0.26858 -0.01213,0.33533 -0.07544,0.41581 l -0.07531,0.0958 h -0.613397 -0.613262 l -0.07544,-0.0958 c -0.06272,-0.0797 -0.07544,-0.14745 -0.07544,-0.40197 0,-0.27642 0.0087,-0.31465 0.08942,-0.39531 0.08734,-0.0873 0.10204,-0.0894 0.668214,-0.0894 z m 10.564355,0 h 0.613262 0.613394 l 0.07544,0.0959 c 0.06241,0.0794 0.07531,0.14743 0.07531,0.39531 0,0.24788 -0.01289,0.31609 -0.07531,0.39545 l -0.07544,0.0958 h -0.613394 -0.613262 l -0.07544,-0.0958 c -0.06241,-0.0794 -0.07544,-0.14757 -0.07544,-0.39545 0,-0.24788 0.01302,-0.31595 0.07544,-0.39531 z m -10.557835,1.71032 c 0.579058,0 0.586583,10e-4 0.678326,0.0927 0.08846,0.0885 0.09221,0.10858 0.08023,0.43537 -0.0089,0.24384 -0.02847,0.35849 -0.06759,0.39757 -0.07449,0.0744 -1.139743,0.10483 -1.300769,0.0371 -0.138618,-0.0583 -0.154347,-0.10663 -0.154347,-0.47622 0,-0.27847 0.0087,-0.31655 0.08942,-0.39731 0.08743,-0.0875 0.10159,-0.0893 0.674734,-0.0893 z m 11.17775,0 c 0.566174,0 0.580869,0.002 0.668214,0.0893 0.07994,0.0799 0.08928,0.11992 0.08928,0.38041 0,0.32123 -0.04454,0.46118 -0.160068,0.50203 -0.123879,0.0438 -1.111768,0.0337 -1.221999,-0.0125 -0.130715,-0.0548 -0.146229,-0.10629 -0.146229,-0.48659 0,-0.30439 0.0053,-0.32586 0.09593,-0.39718 0.08787,-0.0691 0.144251,-0.0754 0.674867,-0.0754 z m -11.383989,1.71471 c 0.321799,-10e-4 0.787661,0.0288 0.854361,0.0645 0.100753,0.0539 0.116026,0.11512 0.116026,0.46318 0,0.27847 -0.0085,0.31655 -0.08928,0.39731 -0.08743,0.0875 -0.101726,0.0893 -0.674867,0.0893 -0.573144,0 -0.587306,-0.002 -0.674734,-0.0893 -0.08167,-0.0817 -0.08942,-0.11752 -0.08942,-0.41847 0,-0.38686 0.04175,-0.45469 0.30417,-0.49404 0.05513,-0.008 0.146473,-0.0121 0.25374,-0.0125 z m 11.550444,0.0117 c 0.213945,10e-4 0.375506,0.01 0.413409,0.0245 0.150626,0.0584 0.186964,0.16868 0.172442,0.52239 -0.01152,0.28055 -0.02277,0.32464 -0.09886,0.38626 -0.07646,0.0619 -0.148954,0.0695 -0.659166,0.0695 -0.524864,0 -0.581365,-0.006 -0.669146,-0.0753 -0.09147,-0.0719 -0.09593,-0.0912 -0.09593,-0.41847 0,-0.29453 0.0103,-0.35332 0.07278,-0.4158 0.04002,-0.04 0.101491,-0.0743 0.136516,-0.0761 0.247676,-0.0128 0.514012,-0.0183 0.727958,-0.0169 z"
       inkscape:connector-curvature="0" />
  </g>
</svg>
