<?xml version="1.0" encoding="UTF-8" standalone="no"?>
<!-- Created with Inkscape (http://www.inkscape.org/) -->

<svg
   xmlns:osb="http://www.openswatchbook.org/uri/2009/osb"
   xmlns:dc="http://purl.org/dc/elements/1.1/"
   xmlns:cc="http://creativecommons.org/ns#"
   xmlns:rdf="http://www.w3.org/1999/02/22-rdf-syntax-ns#"
   xmlns:svg="http://www.w3.org/2000/svg"
   xmlns="http://www.w3.org/2000/svg"
   xmlns:xlink="http://www.w3.org/1999/xlink"
   xmlns:sodipodi="http://sodipodi.sourceforge.net/DTD/sodipodi-0.dtd"
   xmlns:inkscape="http://www.inkscape.org/namespaces/inkscape"
   width="128"
   height="128"
   viewBox="0 0 33.866666 33.866668"
   version="1.1"
   id="svg8"
   inkscape:version="0.92.1 r15371"
   sodipodi:docname="folder-downloads.svg">
  <defs
     id="defs2">
    <linearGradient
       inkscape:collect="always"
       id="linearGradient4527">
      <stop
         style="stop-color:#54a6cc;stop-opacity:1"
         offset="0"
         id="stop4523" />
      <stop
         style="stop-color:#7cd4fa;stop-opacity:1"
         offset="1"
         id="stop4525" />
    </linearGradient>
    <linearGradient
       inkscape:collect="always"
       id="linearGradient4521">
      <stop
         style="stop-color:#54a6cc;stop-opacity:1"
         offset="0"
         id="stop4517" />
      <stop
         style="stop-color:#7cd4fa;stop-opacity:1"
         offset="1"
         id="stop4519" />
    </linearGradient>
    <linearGradient
       id="linearGradient1006"
       inkscape:collect="always">
      <stop
         id="stop1002"
         offset="0"
         style="stop-color:#54a6cc;stop-opacity:1" />
      <stop
         id="stop1004"
         offset="1"
         style="stop-color:#7cd4fa;stop-opacity:1" />
    </linearGradient>
    <linearGradient
       inkscape:collect="always"
       id="linearGradient7009">
      <stop
         style="stop-color:#63c4f2;stop-opacity:1"
         offset="0"
         id="stop7005" />
      <stop
         style="stop-color:#7cd4fa;stop-opacity:1"
         offset="1"
         id="stop7007" />
    </linearGradient>
    <linearGradient
       id="linearGradient6987"
       osb:paint="solid">
      <stop
         style="stop-color:#77d2fb;stop-opacity:1;"
         offset="0"
         id="stop6985" />
    </linearGradient>
    <linearGradient
       inkscape:collect="always"
       xlink:href="#linearGradient7009"
       id="linearGradient7011-3"
       x1="123.07384"
       y1="84.320671"
       x2="124.11147"
       y2="132.42918"
       gradientUnits="userSpaceOnUse"
       gradientTransform="matrix(0.23908729,0,0,0.24394553,-14.21359,250.56636)" />
    <linearGradient
       inkscape:collect="always"
       xlink:href="#linearGradient1006"
       id="linearGradient1033-6"
       x1="70.726562"
       y1="113.65864"
       x2="70.726562"
       y2="110.65087"
       gradientUnits="userSpaceOnUse"
       gradientTransform="matrix(0.24892812,0,0,0.2719635,1.0040953,261.55779)" />
    <linearGradient
       inkscape:collect="always"
       xlink:href="#linearGradient4527"
       id="linearGradient986-2"
       x1="60.902935"
       y1="111.36977"
       x2="60.902935"
       y2="107.45322"
       gradientUnits="userSpaceOnUse"
       gradientTransform="matrix(0.25042938,0,0,0.25198412,0.90403537,263.56437)" />
    <linearGradient
       inkscape:collect="always"
       xlink:href="#linearGradient4521"
       id="linearGradient994-9"
       x1="59.245655"
       y1="107.43008"
       x2="59.245655"
       y2="103.91254"
       gradientUnits="userSpaceOnUse"
       gradientTransform="matrix(0.25050053,0,0,0.25198412,0.90067442,263.56437)" />
  </defs>
  <sodipodi:namedview
     id="base"
     pagecolor="#ffffff"
     bordercolor="#666666"
     borderopacity="1.0"
     inkscape:pageopacity="0.0"
     inkscape:pageshadow="2"
     inkscape:zoom="2.828427"
     inkscape:cx="48.036099"
     inkscape:cy="28.135419"
     inkscape:document-units="mm"
     inkscape:current-layer="layer1"
     showgrid="false"
     inkscape:window-width="1366"
     inkscape:window-height="704"
     inkscape:window-x="0"
     inkscape:window-y="27"
     inkscape:window-maximized="1"
     units="px"
     showguides="false" />
  <metadata
     id="metadata5">
    <rdf:RDF>
      <cc:Work
         rdf:about="">
        <dc:format>image/svg+xml</dc:format>
        <dc:type
           rdf:resource="http://purl.org/dc/dcmitype/StillImage" />
        <dc:title />
      </cc:Work>
    </rdf:RDF>
  </metadata>
  <g
     inkscape:label="Layer 1"
     inkscape:groupmode="layer"
     id="layer1"
     transform="translate(0,-263.13331)">
    <path
       id="path1228"
       d="m 3.0223306,267.66851 c -1.0352391,0 -1.8687591,0.84338 -1.8687591,1.89128 v 2.26553 1.55276 0.74946 6.32353 1.51459 9.58213 0.68783 c 0,0.4616 0.3640705,0.83312 0.8164819,0.83312 h 0.6741229 28.5783157 0.674121 c 0.452412,0 0.816482,-0.37152 0.816482,-0.83312 v -0.68783 -9.58213 -1.51459 -7.07299 -1.55276 c 0,-0.87227 -0.693908,-1.57427 -1.555668,-1.57427 H 12.46201 c -0.923252,-0.0867 -0.963115,-2.29393 -2.5869109,-2.58254 z"
       style="opacity:0.25;fill:#000000;fill-opacity:1;stroke:none;stroke-width:0.19047619;stroke-miterlimit:4;stroke-dasharray:none;stroke-opacity:1"
       inkscape:connector-curvature="0" />
    <path
       inkscape:connector-curvature="0"
       style="fill:#97ddff;fill-opacity:1;stroke:#4891b2;stroke-width:0.2;stroke-miterlimit:4;stroke-dasharray:none;stroke-opacity:1"
       d="m 3.0223306,267.16454 c -1.0352391,0 -1.8687591,0.84337 -1.8687591,1.89128 v 2.26553 1.55275 0.74947 6.32352 1.51459 9.58214 0.68783 c 0,0.4616 0.3640705,0.83312 0.8164819,0.83312 h 0.6741229 28.5783157 0.674121 c 0.452412,0 0.816482,-0.37152 0.816482,-0.83312 v -0.68783 -9.58214 -1.51459 -7.07299 -1.55275 c 0,-0.87227 -0.693908,-1.57427 -1.555668,-1.57427 H 12.46201 c -0.923252,-0.0867 -0.963115,-2.29393 -2.5869109,-2.58254 z"
       id="path7028-3" />
    <path
       inkscape:connector-curvature="0"
       id="rect5176-9"
       d="m 2.6442915,271.35327 c -0.8258571,0 -1.4906514,0.67842 -1.4906514,1.52106 v 7.07261 11.097 0.68781 c 0,0.4616 0.3641438,0.83314 0.8165552,0.83314 H 2.6442915 31.222431 31.89653 c 0.452413,0 0.816554,-0.37154 0.816554,-0.83314 v -0.68781 -11.097 -7.07261 c 0,-0.84264 -0.664792,-1.52106 -1.490653,-1.52106 z"
       style="fill:url(#linearGradient7011-3);fill-opacity:1;stroke:#4891b2;stroke-width:0.2;stroke-miterlimit:4;stroke-dasharray:none;stroke-opacity:1" />
    <path
       style="fill:url(#linearGradient1033-6);fill-opacity:1;stroke:none;stroke-width:0.19047619;stroke-miterlimit:4;stroke-dasharray:none;stroke-opacity:1"
       d="m 1.2530239,291.42915 -0.00248,0.23015 c -0.002,0.18209 0.027267,0.375 0.1382591,0.513 0.1386152,0.17235 0.29094,0.3079 0.5887333,0.30602 l 0.7569695,-0.005 H 31.136625 31.80659 c 0.295101,0 0.291488,-0.0227 0.421025,-0.0834 0.09483,-0.0445 0.178348,-0.11633 0.24407,-0.19788 0.05308,-0.0659 0.09082,-0.14531 0.114282,-0.22658 0.02857,-0.099 0.0279,-0.19197 0.02929,-0.30766 l 0.0028,-0.22932 z"
       id="path1020-0"
       inkscape:connector-curvature="0"
       sodipodi:nodetypes="csasccsaaascc" />
    <path
       style="fill:url(#linearGradient994-9);fill-opacity:1;stroke:none;stroke-width:0.19047618;stroke-miterlimit:4;stroke-dasharray:none;stroke-opacity:1"
       d="m 1.2460915,289.74119 v 0.89327 H 32.619327 v -0.89327 z"
       id="path966-9"
       inkscape:connector-curvature="0" />
    <path
       style="fill:url(#linearGradient986-2);fill-opacity:1;stroke:none;stroke-width:0.19047619;stroke-miterlimit:4;stroke-dasharray:none;stroke-opacity:1"
       d="m 1.2493544,290.74912 v 0.12156 0.68755 c 0,0.0288 -8.581e-4,0.06 0.0019,0.0881 l 31.3594966,-0.004 c 0.0028,-0.0281 0.0029,-0.0553 0.0029,-0.0842 v -0.68754 -0.12156 z"
       id="path973-3"
       inkscape:connector-curvature="0"
       sodipodi:nodetypes="ccsccsccc" />
    <g
       style="stroke-width:4.08449793"
       inkscape:transform-center-y="-9.4924686"
       inkscape:transform-center-x="5.4653607"
       inkscape:label="Capa 1"
       id="layer1-4-9-22"
       transform="matrix(0.51049916,0,0,0.51168467,-314.3213,-2.6029569)">
      <g
         style="stroke-width:4.08449793"
         id="layer1-3-65-0-7"
         inkscape:label="Capa 1"
         transform="translate(0.41988239,0.03484499)" />
    </g>
    <g
       style="stroke-width:4.08449793"
       inkscape:transform-center-y="-9.4924686"
       inkscape:transform-center-x="5.4653607"
       inkscape:label="Capa 1"
       id="layer1-4-3"
       transform="matrix(0.51049916,0,0,0.51168467,-314.3213,-2.5791474)">
      <g
         style="stroke-width:4.08449793"
         id="layer1-3-65-7"
         inkscape:label="Capa 1"
         transform="translate(0.41988239,0.03484499)" />
    </g>
    <g
       style="stroke-width:4.08449793"
       inkscape:transform-center-y="-9.4924686"
       inkscape:transform-center-x="5.4653607"
       inkscape:label="Capa 1"
       id="layer1-4-9-2"
       transform="matrix(0.51049916,0,0,0.51168467,-345.51563,-44.12492)">
      <g
         style="stroke-width:4.08449793"
         id="layer1-3-65-0-2"
         inkscape:label="Capa 1"
         transform="translate(0.41988239,0.03484499)" />
    </g>
    <g
       style="stroke-width:4.08449793"
       inkscape:transform-center-y="-9.4924686"
       inkscape:transform-center-x="5.4653607"
       inkscape:label="Capa 1"
       id="layer1-4-7"
       transform="matrix(0.51049916,0,0,0.51168467,-345.51563,-44.101109)">
      <g
         style="stroke-width:4.08449793"
         id="layer1-3-65-3"
         inkscape:label="Capa 1"
         transform="translate(0.41988239,0.03484499)" />
    </g>
    <g
       style="stroke-width:4.08449793"
       inkscape:transform-center-y="-9.4924686"
       inkscape:transform-center-x="5.4653607"
       inkscape:label="Capa 1"
       id="layer1-4-9"
       transform="matrix(0.51049916,0,0,0.51168467,-314.3213,-2.6029598)">
      <g
         style="stroke-width:4.08449793"
         id="layer1-3-65-0"
         inkscape:label="Capa 1"
         transform="translate(0.41988239,0.03484499)" />
    </g>
    <g
       style="stroke-width:4.08449793"
       inkscape:transform-center-y="-9.4924686"
       inkscape:transform-center-x="5.4653607"
       inkscape:label="Capa 1"
       id="layer1-4"
       transform="matrix(0.51049916,0,0,0.51168467,-314.3213,-2.5791502)">
      <g
         style="stroke-width:4.08449793"
         id="layer1-3-65"
         inkscape:label="Capa 1"
         transform="translate(0.41988239,0.03484499)" />
    </g>
    <path
       id="path8401"
       style="fill:#51b2e4;fill-opacity:1;stroke:#4891b2;stroke-width:0.15585367;stroke-miterlimit:4;stroke-dasharray:none;stroke-opacity:1"
       d="m 16.881721,273.74921 c -0.162408,0.002 -0.32471,0.01 -0.486661,0.0216 -2.563003,0.20552 -4.740059,1.6062 -5.992077,3.8552 -0.9056314,1.6268 -1.1341181,3.62645 -0.6267702,5.48493 0.5909742,2.1648 2.1845342,4.00042 4.2328952,4.87591 0.682643,0.29176 1.303766,0.46033 2.047874,0.5557 0.724099,0.0928 1.608186,0.054 2.410545,-0.10602 0.15326,-0.0305 0.505935,-0.13003 0.783719,-0.22099 2.532592,-0.82932 4.430091,-2.9802 4.977734,-5.64257 0.139619,-0.67876 0.167498,-1.8364 0.0602,-2.49948 -0.236004,-1.45858 -0.764414,-2.60857 -1.714894,-3.73193 -1.352404,-1.59841 -3.436861,-2.56265 -5.530114,-2.59194 -0.05414,-7.7e-4 -0.108324,-7.7e-4 -0.162459,-5.1e-4 z m -1.653562,3.26928 h 1.706831 1.70673 l 0.0098,2.04822 c 0.0054,1.12651 0.01675,2.06768 0.02512,2.09156 0.01173,0.0337 0.28009,0.0434 1.183129,0.0434 1.077187,0 1.252254,0.0133 1.133332,0.0866 -0.03386,0.0208 -0.306976,0.34445 -2.49096,2.95095 -0.591931,0.70647 -1.185668,1.41332 -1.319462,1.57083 -0.1338,0.15752 -0.254113,0.2864 -0.267365,0.2864 -0.02813,0 -0.257121,-0.26951 -2.034502,-2.39533 -0.726353,-0.86876 -1.490007,-1.77721 -1.697037,-2.01884 -0.207027,-0.24162 -0.376349,-0.44864 -0.376349,-0.46 0,-0.0114 0.533417,-0.0207 1.185374,-0.0207 0.916633,0 1.188951,-0.0106 1.201192,-0.0434 0.0087,-0.0238 0.01995,-0.96505 0.02501,-2.09156 z"
       inkscape:connector-curvature="0" />
  </g>
</svg>
