<?xml version="1.0" encoding="UTF-8" standalone="no"?>
<!-- Created with Inkscape (http://www.inkscape.org/) -->

<svg
   xmlns:osb="http://www.openswatchbook.org/uri/2009/osb"
   xmlns:dc="http://purl.org/dc/elements/1.1/"
   xmlns:cc="http://creativecommons.org/ns#"
   xmlns:rdf="http://www.w3.org/1999/02/22-rdf-syntax-ns#"
   xmlns:svg="http://www.w3.org/2000/svg"
   xmlns="http://www.w3.org/2000/svg"
   xmlns:xlink="http://www.w3.org/1999/xlink"
   xmlns:sodipodi="http://sodipodi.sourceforge.net/DTD/sodipodi-0.dtd"
   xmlns:inkscape="http://www.inkscape.org/namespaces/inkscape"
   width="128"
   height="128"
   viewBox="0 0 33.866666 33.866668"
   version="1.1"
   id="svg8"
   inkscape:version="0.92.1 r15371"
   sodipodi:docname="folder-temp.svg">
  <defs
     id="defs2">
    <linearGradient
       inkscape:collect="always"
       id="linearGradient4527">
      <stop
         style="stop-color:#54a6cc;stop-opacity:1"
         offset="0"
         id="stop4523" />
      <stop
         style="stop-color:#7cd4fa;stop-opacity:1"
         offset="1"
         id="stop4525" />
    </linearGradient>
    <linearGradient
       inkscape:collect="always"
       id="linearGradient4521">
      <stop
         style="stop-color:#54a6cc;stop-opacity:1"
         offset="0"
         id="stop4517" />
      <stop
         style="stop-color:#7cd4fa;stop-opacity:1"
         offset="1"
         id="stop4519" />
    </linearGradient>
    <linearGradient
       id="linearGradient1006"
       inkscape:collect="always">
      <stop
         id="stop1002"
         offset="0"
         style="stop-color:#54a6cc;stop-opacity:1" />
      <stop
         id="stop1004"
         offset="1"
         style="stop-color:#7cd4fa;stop-opacity:1" />
    </linearGradient>
    <linearGradient
       inkscape:collect="always"
       id="linearGradient7009">
      <stop
         style="stop-color:#63c4f2;stop-opacity:1"
         offset="0"
         id="stop7005" />
      <stop
         style="stop-color:#7cd4fa;stop-opacity:1"
         offset="1"
         id="stop7007" />
    </linearGradient>
    <linearGradient
       id="linearGradient6987"
       osb:paint="solid">
      <stop
         style="stop-color:#77d2fb;stop-opacity:1;"
         offset="0"
         id="stop6985" />
    </linearGradient>
    <linearGradient
       inkscape:collect="always"
       xlink:href="#linearGradient7009"
       id="linearGradient7011-3"
       x1="123.07384"
       y1="84.320671"
       x2="124.11147"
       y2="132.42918"
       gradientUnits="userSpaceOnUse"
       gradientTransform="matrix(0.23908729,0,0,0.24394553,-14.21359,250.56636)" />
    <linearGradient
       inkscape:collect="always"
       xlink:href="#linearGradient1006"
       id="linearGradient1033-6"
       x1="70.726562"
       y1="113.65864"
       x2="70.726562"
       y2="110.65087"
       gradientUnits="userSpaceOnUse"
       gradientTransform="matrix(0.24892812,0,0,0.2719635,1.0040953,261.55779)" />
    <linearGradient
       inkscape:collect="always"
       xlink:href="#linearGradient4527"
       id="linearGradient986-2"
       x1="60.902935"
       y1="111.36977"
       x2="60.902935"
       y2="107.45322"
       gradientUnits="userSpaceOnUse"
       gradientTransform="matrix(0.25042938,0,0,0.25198412,0.90403537,263.56437)" />
    <linearGradient
       inkscape:collect="always"
       xlink:href="#linearGradient4521"
       id="linearGradient994-9"
       x1="59.245655"
       y1="107.43008"
       x2="59.245655"
       y2="103.91254"
       gradientUnits="userSpaceOnUse"
       gradientTransform="matrix(0.25050053,0,0,0.25198412,0.90067442,263.56437)" />
    <clipPath
       id="clip1">
      <rect
         width="384"
         height="384"
         x="0"
         y="0"
         id="rect16" />
    </clipPath>
  </defs>
  <sodipodi:namedview
     id="base"
     pagecolor="#ffffff"
     bordercolor="#666666"
     borderopacity="1.0"
     inkscape:pageopacity="0.0"
     inkscape:pageshadow="2"
     inkscape:zoom="3.9999998"
     inkscape:cx="54.42614"
     inkscape:cy="38.248831"
     inkscape:document-units="mm"
     inkscape:current-layer="layer1"
     showgrid="false"
     inkscape:window-width="1366"
     inkscape:window-height="704"
     inkscape:window-x="0"
     inkscape:window-y="27"
     inkscape:window-maximized="1"
     units="px"
     showguides="false" />
  <metadata
     id="metadata5">
    <rdf:RDF>
      <cc:Work
         rdf:about="">
        <dc:format>image/svg+xml</dc:format>
        <dc:type
           rdf:resource="http://purl.org/dc/dcmitype/StillImage" />
        <dc:title />
      </cc:Work>
    </rdf:RDF>
  </metadata>
  <g
     inkscape:label="Layer 1"
     inkscape:groupmode="layer"
     id="layer1"
     transform="translate(0,-263.13331)">
    <path
       id="path1228"
       d="m 3.0223306,267.66851 c -1.0352391,0 -1.8687591,0.84338 -1.8687591,1.89128 v 2.26553 1.55276 0.74946 6.32353 1.51459 9.58213 0.68783 c 0,0.4616 0.3640705,0.83312 0.8164819,0.83312 h 0.6741229 28.5783157 0.674121 c 0.452412,0 0.816482,-0.37152 0.816482,-0.83312 v -0.68783 -9.58213 -1.51459 -7.07299 -1.55276 c 0,-0.87227 -0.693908,-1.57427 -1.555668,-1.57427 H 12.46201 c -0.923252,-0.0867 -0.963115,-2.29393 -2.5869109,-2.58254 z"
       style="opacity:0.25;fill:#000000;fill-opacity:1;stroke:none;stroke-width:0.19047619;stroke-miterlimit:4;stroke-dasharray:none;stroke-opacity:1"
       inkscape:connector-curvature="0" />
    <path
       inkscape:connector-curvature="0"
       style="fill:#97ddff;fill-opacity:1;stroke:#4891b2;stroke-width:0.2;stroke-miterlimit:4;stroke-dasharray:none;stroke-opacity:1"
       d="m 3.0223306,267.16454 c -1.0352391,0 -1.8687591,0.84337 -1.8687591,1.89128 v 2.26553 1.55275 0.74947 6.32352 1.51459 9.58214 0.68783 c 0,0.4616 0.3640705,0.83312 0.8164819,0.83312 h 0.6741229 28.5783157 0.674121 c 0.452412,0 0.816482,-0.37152 0.816482,-0.83312 v -0.68783 -9.58214 -1.51459 -7.07299 -1.55275 c 0,-0.87227 -0.693908,-1.57427 -1.555668,-1.57427 H 12.46201 c -0.923252,-0.0867 -0.963115,-2.29393 -2.5869109,-2.58254 z"
       id="path7028-3" />
    <path
       inkscape:connector-curvature="0"
       id="rect5176-9"
       d="m 2.6442915,271.35327 c -0.8258571,0 -1.4906514,0.67842 -1.4906514,1.52106 v 7.07261 11.097 0.68781 c 0,0.4616 0.3641438,0.83314 0.8165552,0.83314 H 2.6442915 31.222431 31.89653 c 0.452413,0 0.816554,-0.37154 0.816554,-0.83314 v -0.68781 -11.097 -7.07261 c 0,-0.84264 -0.664792,-1.52106 -1.490653,-1.52106 z"
       style="fill:url(#linearGradient7011-3);fill-opacity:1;stroke:#4891b2;stroke-width:0.2;stroke-miterlimit:4;stroke-dasharray:none;stroke-opacity:1" />
    <path
       style="fill:url(#linearGradient1033-6);fill-opacity:1;stroke:none;stroke-width:0.19047619;stroke-miterlimit:4;stroke-dasharray:none;stroke-opacity:1"
       d="m 1.2530239,291.42915 -0.00248,0.23015 c -0.002,0.18209 0.027267,0.375 0.1382591,0.513 0.1386152,0.17235 0.29094,0.3079 0.5887333,0.30602 l 0.7569695,-0.005 H 31.136625 31.80659 c 0.295101,0 0.291488,-0.0227 0.421025,-0.0834 0.09483,-0.0445 0.178348,-0.11633 0.24407,-0.19788 0.05308,-0.0659 0.09082,-0.14531 0.114282,-0.22658 0.02857,-0.099 0.0279,-0.19197 0.02929,-0.30766 l 0.0028,-0.22932 z"
       id="path1020-0"
       inkscape:connector-curvature="0"
       sodipodi:nodetypes="csasccsaaascc" />
    <path
       style="fill:url(#linearGradient994-9);fill-opacity:1;stroke:none;stroke-width:0.19047618;stroke-miterlimit:4;stroke-dasharray:none;stroke-opacity:1"
       d="m 1.2460915,289.74119 v 0.89327 H 32.619327 v -0.89327 z"
       id="path966-9"
       inkscape:connector-curvature="0" />
    <path
       style="fill:url(#linearGradient986-2);fill-opacity:1;stroke:none;stroke-width:0.19047619;stroke-miterlimit:4;stroke-dasharray:none;stroke-opacity:1"
       d="m 1.2493544,290.74912 v 0.12156 0.68755 c 0,0.0288 -8.581e-4,0.06 0.0019,0.0881 l 31.3594966,-0.004 c 0.0028,-0.0281 0.0029,-0.0553 0.0029,-0.0842 v -0.68754 -0.12156 z"
       id="path973-3"
       inkscape:connector-curvature="0"
       sodipodi:nodetypes="ccsccsccc" />
    <g
       style="stroke-width:4.08449793"
       inkscape:transform-center-y="-9.4924686"
       inkscape:transform-center-x="5.4653607"
       inkscape:label="Capa 1"
       id="layer1-4-9-22"
       transform="matrix(0.51049916,0,0,0.51168467,-314.3213,-2.6029569)">
      <g
         style="stroke-width:4.08449793"
         id="layer1-3-65-0-7"
         inkscape:label="Capa 1"
         transform="translate(0.41988239,0.03484499)" />
    </g>
    <g
       style="stroke-width:4.08449793"
       inkscape:transform-center-y="-9.4924686"
       inkscape:transform-center-x="5.4653607"
       inkscape:label="Capa 1"
       id="layer1-4-3"
       transform="matrix(0.51049916,0,0,0.51168467,-314.3213,-2.5791474)">
      <g
         style="stroke-width:4.08449793"
         id="layer1-3-65-7"
         inkscape:label="Capa 1"
         transform="translate(0.41988239,0.03484499)" />
    </g>
    <g
       style="stroke-width:4.08449793"
       inkscape:transform-center-y="-9.4924686"
       inkscape:transform-center-x="5.4653607"
       inkscape:label="Capa 1"
       id="layer1-4-9-2"
       transform="matrix(0.51049916,0,0,0.51168467,-345.51563,-44.12492)">
      <g
         style="stroke-width:4.08449793"
         id="layer1-3-65-0-2"
         inkscape:label="Capa 1"
         transform="translate(0.41988239,0.03484499)" />
    </g>
    <g
       style="stroke-width:4.08449793"
       inkscape:transform-center-y="-9.4924686"
       inkscape:transform-center-x="5.4653607"
       inkscape:label="Capa 1"
       id="layer1-4-7"
       transform="matrix(0.51049916,0,0,0.51168467,-345.51563,-44.101109)">
      <g
         style="stroke-width:4.08449793"
         id="layer1-3-65-3"
         inkscape:label="Capa 1"
         transform="translate(0.41988239,0.03484499)" />
    </g>
    <g
       style="stroke-width:4.08449793"
       inkscape:transform-center-y="-9.4924686"
       inkscape:transform-center-x="5.4653607"
       inkscape:label="Capa 1"
       id="layer1-4-9"
       transform="matrix(0.51049916,0,0,0.51168467,-314.3213,-2.6029598)">
      <g
         style="stroke-width:4.08449793"
         id="layer1-3-65-0"
         inkscape:label="Capa 1"
         transform="translate(0.41988239,0.03484499)" />
    </g>
    <g
       style="stroke-width:4.08449793"
       inkscape:transform-center-y="-9.4924686"
       inkscape:transform-center-x="5.4653607"
       inkscape:label="Capa 1"
       id="layer1-4"
       transform="matrix(0.51049916,0,0,0.51168467,-314.3213,-2.5791502)">
      <g
         style="stroke-width:4.08449793"
         id="layer1-3-65"
         inkscape:label="Capa 1"
         transform="translate(0.41988239,0.03484499)" />
    </g>
    <g
       id="use32"
       clip-path="url(#clip1)"
       transform="matrix(0.13188477,0,0,0.13188477,-8.3885082,252.58718)"
       style="fill:#5dbbe5;fill-opacity:1;stroke:#4991b2;stroke-width:0.81867498;stroke-miterlimit:4;stroke-dasharray:none;stroke-opacity:1">
      <path
         style="fill:#5dbbe5;fill-opacity:1;stroke:#4991b2;stroke-width:4.64314699;stroke-miterlimit:4;stroke-dasharray:none;stroke-opacity:1"
         d="M 587.56762,186.87145 C 555.30236,111.65458 500.478,56.947378 424.6236,24.588176 386.70748,8.41965 346.99639,0.158197 305.49031,0.158197 c -41.48391,0 -80.90692,8.195007 -118.77872,24.429979 C 111.47768,56.858783 56.409557,111.54384 24.099971,186.87145 7.900858,224.63493 -0.0103369,264.1703 -0.0103369,305.65475 c 0,41.5066 7.9111949,81.3742 24.1103079,119.13768 32.309586,75.34976 87.399869,130.3449 162.611619,162.61551 37.8718,16.25712 77.29481,24.42998 118.77872,24.42998 41.50608,0 81.21717,-8.26146 119.13329,-24.42998 75.8544,-32.33706 130.67876,-87.39864 162.94402,-162.61551 16.24344,-37.87422 24.44271,-77.63108 24.44271,-119.13768 0,-41.48445 -8.17711,-80.88693 -24.44271,-118.7833 z m -48.8411,253.97876 c -24.02167,41.19652 -56.92958,73.88795 -98.36917,98.05215 -41.19583,24.00915 -86.33618,36.12447 -134.84488,36.12447 -36.4757,0 -71.28939,-7.02112 -104.4189,-21.41776 -33.12952,-14.37448 -61.71619,-33.28944 -85.64921,-57.21 C 91.511329,472.47851 72.475709,443.59665 58.226694,410.3958 44.022,377.32784 37.152335,342.13361 37.152335,305.65475 c 0,-48.50558 11.922193,-93.42307 35.810899,-134.50885 C 96.91842,129.92723 129.84849,97.213653 171,73.115904 212.15151,49.018155 256.98161,36.969281 305.49031,36.969281 c 48.53086,0 93.64905,12.11532 134.84488,36.146623 41.46175,24.164195 74.28102,56.877776 98.39133,98.029996 24.08815,41.15222 36.12114,86.00327 36.12114,134.50885 0,48.52773 -11.96651,93.75531 -36.12114,135.19546 z m 0,0"
         transform="matrix(0.176273,0,0,0.176365,138.06042,161.64007)"
         id="path4571"
         inkscape:connector-curvature="0" />
      <path
         style="fill:#5dbbe5;fill-opacity:1;stroke:#4991b2;stroke-width:4.64314699;stroke-miterlimit:4;stroke-dasharray:none;stroke-opacity:1"
         d="M 324.90266,302.99691 V 129.66145 c 0,-10.36558 -9.04137,-18.73777 -19.41235,-18.73777 -9.70617,0 -18.39297,8.37219 -18.39297,18.73777 v 175.9933 c 0,0.35438 0.66481,1.6833 0.66481,2.67999 -0.66481,6.02444 1.01937,11.05219 5.03036,15.06109 l 100.05335,100.04553 c 6.69238,6.71105 19.05778,6.71105 25.75016,0 7.6896,-7.68559 7.17991,-18.84852 0,-26.09113 z m 0,0"
         transform="matrix(0.176273,0,0,0.176365,138.06042,161.64007)"
         id="path4573"
         inkscape:connector-curvature="0" />
    </g>
  </g>
</svg>
