<?xml version="1.0" encoding="UTF-8" standalone="no"?>
<!-- Created with Inkscape (http://www.inkscape.org/) -->

<svg
   xmlns:osb="http://www.openswatchbook.org/uri/2009/osb"
   xmlns:dc="http://purl.org/dc/elements/1.1/"
   xmlns:cc="http://creativecommons.org/ns#"
   xmlns:rdf="http://www.w3.org/1999/02/22-rdf-syntax-ns#"
   xmlns:svg="http://www.w3.org/2000/svg"
   xmlns="http://www.w3.org/2000/svg"
   xmlns:xlink="http://www.w3.org/1999/xlink"
   xmlns:sodipodi="http://sodipodi.sourceforge.net/DTD/sodipodi-0.dtd"
   xmlns:inkscape="http://www.inkscape.org/namespaces/inkscape"
   width="128"
   height="128"
   viewBox="0 0 33.866666 33.866668"
   version="1.1"
   id="svg8"
   inkscape:version="0.92.2 5c3e80d, 2017-08-06"
   sodipodi:docname="folder-books.svg">
  <defs
     id="defs2">
    <linearGradient
       inkscape:collect="always"
       id="linearGradient7009">
      <stop
         style="stop-color:#63c4f2;stop-opacity:1"
         offset="0"
         id="stop7005" />
      <stop
         style="stop-color:#7cd4fa;stop-opacity:1"
         offset="1"
         id="stop7007" />
    </linearGradient>
    <linearGradient
       id="linearGradient8382"
       inkscape:collect="always">
      <stop
         id="stop8378"
         offset="0"
         style="stop-color:#4db0e3;stop-opacity:1" />
      <stop
         id="stop8380"
         offset="1"
         style="stop-color:#5ebfea;stop-opacity:1" />
    </linearGradient>
    <linearGradient
       osb:paint="solid"
       id="linearGradient6987">
      <stop
         id="stop6985"
         offset="0"
         style="stop-color:#77d2fb;stop-opacity:1;" />
    </linearGradient>
    <linearGradient
       gradientUnits="userSpaceOnUse"
       y2="393.89447"
       x2="350.29642"
       y1="266.8204"
       x1="350.29642"
       id="linearGradient1002"
       xlink:href="#linearGradient8382"
       inkscape:collect="always" />
    <linearGradient
       inkscape:collect="always"
       xlink:href="#linearGradient8382"
       id="linearGradient936"
       gradientUnits="userSpaceOnUse"
       x1="350.29642"
       y1="266.8204"
       x2="350.29642"
       y2="393.89447" />
    <linearGradient
       inkscape:collect="always"
       xlink:href="#linearGradient8382"
       id="linearGradient938"
       gradientUnits="userSpaceOnUse"
       x1="350.29642"
       y1="266.8204"
       x2="350.29642"
       y2="393.89447" />
    <linearGradient
       inkscape:collect="always"
       id="linearGradient1006">
      <stop
         style="stop-color:#59b0d9;stop-opacity:1"
         offset="0"
         id="stop1002" />
      <stop
         style="stop-color:#7cd4fa;stop-opacity:1"
         offset="1"
         id="stop1004" />
    </linearGradient>
    <linearGradient
       gradientTransform="matrix(0.25104166,0,0,0.25614281,-15.770937,249.30337)"
       gradientUnits="userSpaceOnUse"
       y2="132.42918"
       x2="124.11147"
       y1="84.320671"
       x1="123.07384"
       id="linearGradient7011-3"
       xlink:href="#linearGradient7009"
       inkscape:collect="always" />
    <linearGradient
       gradientTransform="matrix(0.26137453,0,0,0.28556168,0.207633,261.0264)"
       gradientUnits="userSpaceOnUse"
       y2="110.65087"
       x2="70.726562"
       y1="113.65864"
       x1="70.726562"
       id="linearGradient1033"
       xlink:href="#linearGradient1006"
       inkscape:collect="always" />
    <linearGradient
       gradientTransform="matrix(0.26295085,0,0,0.26458333,0.10257,263.13331)"
       gradientUnits="userSpaceOnUse"
       y2="107.45322"
       x2="60.902935"
       y1="111.36977"
       x1="60.902935"
       id="linearGradient986"
       xlink:href="#linearGradient1006"
       inkscape:collect="always" />
    <linearGradient
       gradientTransform="matrix(0.26302556,0,0,0.26458333,0.099041,263.13331)"
       gradientUnits="userSpaceOnUse"
       y2="103.91254"
       x2="59.245655"
       y1="107.43008"
       x1="59.245655"
       id="linearGradient994"
       xlink:href="#linearGradient1006"
       inkscape:collect="always" />
  </defs>
  <sodipodi:namedview
     id="base"
     pagecolor="#ffffff"
     bordercolor="#666666"
     borderopacity="1.0"
     inkscape:pageopacity="0.0"
     inkscape:pageshadow="2"
     inkscape:zoom="1.8101934"
     inkscape:cx="11.735164"
     inkscape:cy="-12.362464"
     inkscape:document-units="mm"
     inkscape:current-layer="layer1"
     showgrid="false"
     inkscape:window-width="1600"
     inkscape:window-height="814"
     inkscape:window-x="0"
     inkscape:window-y="0"
     inkscape:window-maximized="1"
     units="px" />
  <metadata
     id="metadata5">
    <rdf:RDF>
      <cc:Work
         rdf:about="">
        <dc:format>image/svg+xml</dc:format>
        <dc:type
           rdf:resource="http://purl.org/dc/dcmitype/StillImage" />
        <dc:title />
      </cc:Work>
    </rdf:RDF>
  </metadata>
  <g
     inkscape:label="Layer 1"
     inkscape:groupmode="layer"
     id="layer1"
     transform="translate(0,-263.13331)">
    <path
       inkscape:connector-curvature="0"
       style="fill:#97ddff;fill-opacity:1;stroke:#59b0d9;stroke-width:0.2;stroke-miterlimit:4;stroke-dasharray:none;stroke-opacity:1"
       d="m 2.32678,266.73146 c -1.087001,0 -1.962197,0.88554 -1.962197,1.98584 v 2.37881 1.63039 0.78694 6.6397 1.59032 10.06124 0.72222 c 0,0.48468 0.382274,0.87478 0.857306,0.87478 h 0.707829 30.007232 0.707827 c 0.475032,0 0.857306,-0.3901 0.857306,-0.87478 v -0.72222 -10.06124 -1.59032 -7.42664 -1.63039 c 0,-0.91589 -0.728604,-1.65299 -1.633452,-1.65299 H 12.238444 c -0.969415,-0.091 -1.011271,-2.40862 -2.716257,-2.71166 z"
       id="path7028-3" />
    <path
       inkscape:connector-curvature="0"
       id="rect5176-9"
       d="m 1.929839,271.12962 c -0.86715,0 -1.565184,0.71234 -1.565184,1.59712 v 7.42624 11.65185 0.7222 c 0,0.48468 0.382351,0.8748 0.857383,0.8748 h 0.707801 30.007047 0.707804 c 0.475033,0 0.857381,-0.39012 0.857381,-0.8748 v -0.7222 -11.65185 -7.42624 c 0,-0.88478 -0.698031,-1.59712 -1.565185,-1.59712 z"
       style="fill:url(#linearGradient7011-3);fill-opacity:1;stroke:#59b0d9;stroke-width:0.2;stroke-miterlimit:4;stroke-dasharray:none;stroke-opacity:1" />
    <path
       style="fill:url(#linearGradient1033);fill-opacity:1;stroke:none;stroke-width:0.2;stroke-miterlimit:4;stroke-dasharray:none;stroke-opacity:1"
       d="m 0.469008,292.39133 v 0.14724 c 0,0.52625 0.379917,0.94982 0.852019,0.94982 h 0.703466 29.822221 0.703464 c 0.472105,0 0.85202,-0.42357 0.85202,-0.94982 v -0.14724 z"
       id="path1020"
       inkscape:connector-curvature="0" />
    <path
       style="fill:url(#linearGradient994);fill-opacity:1;stroke:none;stroke-width:0.19999999;stroke-miterlimit:4;stroke-dasharray:none;stroke-opacity:1"
       d="m 0.461729,290.61897 v 0.93793 h 32.941897 v -0.93793 z"
       id="path966"
       inkscape:connector-curvature="0" />
    <path
       style="fill:url(#linearGradient986);fill-opacity:1;stroke:none;stroke-width:0.2;stroke-miterlimit:4;stroke-dasharray:none;stroke-opacity:1"
       d="m 0.465155,291.6773 v 0.12764 0.72192 c 0,0.0303 0.0053,0.0589 0.0082,0.0884 h 32.916103 c 0.0029,-0.0295 0.0082,-0.0581 0.0082,-0.0884 v -0.72192 -0.12764 z"
       id="path973"
       inkscape:connector-curvature="0" />
    <g
       id="g994"
       transform="matrix(0.09147487,0,0,0.09294102,-14.793663,252.22463)"
       style="fill:url(#linearGradient1002);fill-opacity:1;stroke-width:3.84155655">
      <path
         sodipodi:nodetypes="ccssccsssc"
         inkscape:connector-curvature="0"
         id="path986"
         d="M 350.29642,393.89447 V 266.8204 c 0,0 2.12557,-29.58307 41.62218,-32.87415 15.77899,-1.31479 26.82101,2.4294 35.59321,7.49404 7.71499,4.45425 13.90914,8.6004 15.18408,13.35855 l 0.13085,118.39761 c -1.57462,6.44778 -10.7997,-3.01728 -23.5873,-8.31554 -6.48861,-2.68841 -14.60806,-4.14493 -21.96173,-4.05992 -13.65025,0.15779 -26.83811,4.61706 -33.48306,11.43087 -10.40172,10.66604 -13.49823,21.64261 -13.49823,21.64261 z"
         style="fill:url(#linearGradient936);fill-opacity:1;stroke:none;stroke-width:1.92077827;stroke-linecap:round;stroke-linejoin:round;stroke-miterlimit:4;stroke-dasharray:none;stroke-opacity:1" />
      <path
         style="fill:url(#linearGradient938);fill-opacity:1;stroke:none;stroke-width:1.92077827;stroke-linecap:round;stroke-linejoin:round;stroke-miterlimit:4;stroke-dasharray:none;stroke-opacity:1"
         d="M 343.381,393.89447 V 266.8204 c 0,0 -2.12557,-29.58307 -41.62218,-32.87415 -15.77899,-1.31479 -26.82101,2.4294 -35.59321,7.49404 -7.71499,4.45425 -13.90914,8.6004 -15.18408,13.35855 l -0.13085,118.39761 c 1.57462,6.44778 10.7997,-3.01728 23.5873,-8.31554 6.48861,-2.68841 14.60806,-4.14493 21.96173,-4.05992 13.65025,0.15779 26.83811,4.61706 33.48306,11.43087 10.40172,10.66604 13.49823,21.64261 13.49823,21.64261 z"
         id="path990"
         inkscape:connector-curvature="0"
         sodipodi:nodetypes="ccssccsssc" />
    </g>
  </g>
</svg>
