<?xml version="1.0" encoding="UTF-8" standalone="no"?>
<!-- Created with Inkscape (http://www.inkscape.org/) -->

<svg
   xmlns:osb="http://www.openswatchbook.org/uri/2009/osb"
   xmlns:dc="http://purl.org/dc/elements/1.1/"
   xmlns:cc="http://creativecommons.org/ns#"
   xmlns:rdf="http://www.w3.org/1999/02/22-rdf-syntax-ns#"
   xmlns:svg="http://www.w3.org/2000/svg"
   xmlns="http://www.w3.org/2000/svg"
   xmlns:xlink="http://www.w3.org/1999/xlink"
   xmlns:sodipodi="http://sodipodi.sourceforge.net/DTD/sodipodi-0.dtd"
   xmlns:inkscape="http://www.inkscape.org/namespaces/inkscape"
   width="128"
   height="128"
   viewBox="0 0 33.866666 33.866668"
   version="1.1"
   id="svg8"
   inkscape:version="0.92.2 5c3e80d, 2017-08-06"
   sodipodi:docname="folder-remote.svg">
  <defs
     id="defs2">
    <linearGradient
       inkscape:collect="always"
       xlink:href="#linearGradient7009"
       id="linearGradient7011"
       x1="123.07384"
       y1="84.320671"
       x2="124.11147"
       y2="132.42918"
       gradientUnits="userSpaceOnUse"
       gradientTransform="matrix(0.25255681,0,0,0.25768595,-15.968322,248.84654)" />
    <linearGradient
       inkscape:collect="always"
       id="linearGradient7009">
      <stop
         style="stop-color:#63c4f2;stop-opacity:1"
         offset="0"
         id="stop7005" />
      <stop
         style="stop-color:#7cd4fa;stop-opacity:1"
         offset="1"
         id="stop7007" />
    </linearGradient>
    <linearGradient
       inkscape:collect="always"
       id="linearGradient6756">
      <stop
         style="stop-color:#51b2e3;stop-opacity:1"
         offset="0"
         id="stop6752" />
      <stop
         style="stop-color:#5bbeea;stop-opacity:1"
         offset="1"
         id="stop6754" />
    </linearGradient>
    <linearGradient
       osb:paint="solid"
       id="linearGradient6088">
      <stop
         id="stop6086"
         offset="0"
         style="stop-color:#51b3e3;stop-opacity:1;" />
    </linearGradient>
    <linearGradient
       osb:paint="solid"
       id="linearGradient6987">
      <stop
         id="stop6985"
         offset="0"
         style="stop-color:#77d2fb;stop-opacity:1;" />
    </linearGradient>
    <linearGradient
       gradientTransform="matrix(0.25824977,0,0,0.26238895,0.20033099,219.93754)"
       gradientUnits="userSpaceOnUse"
       y2="265.51105"
       x2="65.002815"
       y1="207.37984"
       x1="65.336906"
       id="linearGradient6750"
       xlink:href="#linearGradient6756"
       inkscape:collect="always" />
  </defs>
  <sodipodi:namedview
     id="base"
     pagecolor="#ffffff"
     bordercolor="#666666"
     borderopacity="1.0"
     inkscape:pageopacity="0.0"
     inkscape:pageshadow="2"
     inkscape:zoom="0.90509668"
     inkscape:cx="12.280111"
     inkscape:cy="106.10884"
     inkscape:document-units="mm"
     inkscape:current-layer="layer1"
     showgrid="false"
     inkscape:window-width="1600"
     inkscape:window-height="814"
     inkscape:window-x="0"
     inkscape:window-y="0"
     inkscape:window-maximized="1"
     units="px" />
  <metadata
     id="metadata5">
    <rdf:RDF>
      <cc:Work
         rdf:about="">
        <dc:format>image/svg+xml</dc:format>
        <dc:type
           rdf:resource="http://purl.org/dc/dcmitype/StillImage" />
        <dc:title />
      </cc:Work>
    </rdf:RDF>
  </metadata>
  <g
     inkscape:label="Layer 1"
     inkscape:groupmode="layer"
     id="layer1"
     transform="translate(0,-263.13331)">
    <path
       id="path3726"
       style="opacity:0.25;fill:#000000;fill-opacity:1;stroke-width:0.07295433"
       d="m 1.839255,271.34745 c -0.87238339,0 -1.57463018,0.71666 -1.57463018,1.60675 v 7.47097 11.72207 0.72653 c 0,0.4876 0.38465877,0.88009 0.86255748,0.88009 h 0.7120727 30.188153 0.712078 c 0.477897,0 0.862556,-0.39249 0.862556,-0.88009 v -0.72653 -11.72207 -7.47097 c 0,-0.89009 -0.702246,-1.60675 -1.574634,-1.60675 z m 0.3993405,-4.42484 c -1.0935623,0 -1.97401229,0.89107 -1.97401229,1.998 v 2.39332 2.43155 8.27983 c 0,0.92145 0.73293882,1.66319 1.64324119,1.66319 H 31.95898 c 0.910304,0 1.643103,-0.74174 1.643103,-1.66319 v -10.71138 c 0,-0.92143 -0.732793,-1.66317 -1.643103,-1.66317 l -19.749002,-8e-5 c -0.975266,-0.0917 -1.017482,-2.4232 -2.7327582,-2.72807 z"
       inkscape:connector-curvature="0" />
    <path
       inkscape:connector-curvature="0"
       d="m 1.839255,270.80428 c -0.87238339,0 -1.57463018,0.71663 -1.57463018,1.60674 v 7.47098 11.72205 0.72655 c 0,0.4876 0.38465877,0.88007 0.86255748,0.88007 h 0.7120727 30.188153 0.712078 c 0.477897,0 0.862556,-0.39247 0.862556,-0.88007 v -0.72655 -11.72205 -7.47098 c 0,-0.89011 -0.702246,-1.60674 -1.574634,-1.60674 z m 0.3993405,-4.42484 c -1.0935623,0 -1.97401229,0.89105 -1.97401229,1.99798 v 2.39332 2.43157 8.27983 c 0,0.92142 0.73293882,1.66316 1.64324119,1.66316 H 31.95898 c 0.910304,0 1.643103,-0.74174 1.643103,-1.66316 v -10.7114 c 0,-0.92141 -0.732793,-1.66317 -1.643103,-1.66317 l -19.749002,-8e-5 c -0.975266,-0.0915 -1.017482,-2.42318 -2.7327582,-2.72805 z"
       style="fill:#97ddff;fill-opacity:1;stroke-width:0.07295433"
       id="path7028" />
    <path
       inkscape:connector-curvature="0"
       id="rect5176"
       d="m 1.8392858,270.80428 c -0.87238343,0 -1.57463021,0.71663 -1.57463021,1.60674 v 7.47098 11.72205 0.72655 c 0,0.4876 0.38465878,0.88007 0.86255751,0.88007 h 0.7120727 30.1881532 0.712076 c 0.4779,0 0.862556,-0.39247 0.862556,-0.88007 v -0.72655 -11.72205 -7.47098 c 0,-0.89011 -0.702244,-1.60674 -1.574632,-1.60674 z"
       style="fill:url(#linearGradient7011);fill-opacity:1;stroke-width:0.07295433" />
    <rect
       style="fill:#5ebae5;fill-opacity:1;stroke:none;stroke-width:0.14778438;stroke-linecap:round;stroke-linejoin:round;stroke-miterlimit:4;stroke-dasharray:none;stroke-opacity:1"
       id="rect5180"
       width="30.427078"
       height="0.26995665"
       x="1.7198211"
       y="291.00845"
       ry="0.13497832" />
    <rect
       ry="0.13497832"
       y="291.84982"
       x="1.7198211"
       height="0.26995665"
       width="30.427078"
       id="rect5182"
       style="fill:#5ebae5;fill-opacity:1;stroke:none;stroke-width:0.14778438;stroke-linecap:round;stroke-linejoin:round;stroke-miterlimit:4;stroke-dasharray:none;stroke-opacity:1" />
    <path
       style="fill:#90d3f2;fill-opacity:1;stroke-width:0.07295433"
       d="m 2.2390733,266.37944 c -1.0935605,0 -1.97438151,0.89084 -1.97438151,1.99777 v 0.36196 c 0,-1.10693 0.88081921,-1.99777 1.97438151,-1.99777 h 7.238172 c 1.7152727,0.30487 1.7576317,2.63664 2.7329017,2.72822 h 19.748535 c 0.91031,0 1.643295,0.74153 1.643295,1.66293 v -0.36196 c 0,-0.92141 -0.732985,-1.66292 -1.643295,-1.66292 H 12.210147 c -0.97527,-0.0915 -1.017629,-2.42336 -2.7329017,-2.72823 z"
       id="path3721"
       inkscape:connector-curvature="0" />
    <path
       id="path6669"
       style="fill:url(#linearGradient6750);fill-opacity:1;stroke-width:0.13683026"
       d="m 17.073571,274.35172 c -0.11692,-5.3e-4 -0.23756,10e-4 -0.36286,0.005 -0.69239,0.0209 -1.06014,0.0707 -1.64776,0.22332 -1.59377,0.41394 -2.98358,1.33302 -4.02752,2.66332 -2.0158401,2.56881 -2.1582901,6.23741 -0.34911,8.99269 1.26935,1.93316 3.37731,3.21561 5.58947,3.4004 1.12831,0.0942 2.24667,-0.0598 3.2795,-0.45166 2.34162,-0.88845 4.14972,-2.98602 4.71321,-5.4678 0.14883,-0.65551 0.18118,-0.97918 0.17736,-1.77722 -0.003,-0.59011 -0.0199,-0.85145 -0.0786,-1.20271 -0.46958,-2.81251 -2.40591,-5.11226 -5.05925,-6.00881 -0.77937,-0.26335 -1.41596,-0.37341 -2.23443,-0.37655 z m -2.07321,0.79769 c 0.0727,-0.003 0.15394,0.0105 0.30575,0.0372 1.42392,0.24967 2.57241,1.26743 3.04262,2.69627 l 0.0709,0.21532 0.55903,0.005 c 0.30747,0.003 0.68464,0.0244 0.83823,0.0483 1.99593,0.31028 3.55684,1.77557 4.03392,3.78698 0.12292,0.51827 0.1223,0.64974 -0.006,1.41858 -0.0774,0.46533 -0.12011,0.4427 -0.12011,-0.0636 0,-0.82989 -0.15109,-1.50746 -0.49378,-2.21506 -0.61446,-1.26873 -1.70997,-2.14633 -3.07519,-2.46332 -0.34725,-0.0806 -1.29344,-0.13059 -1.48415,-0.0784 -0.11319,0.031 -0.12307,0.0443 -0.11584,0.15688 0.004,0.0676 0.0183,0.32497 0.031,0.5718 l 0.0229,0.44868 h 0.67581 c 0.62813,0 0.70079,0.007 1.0292,0.0988 1.37345,0.38385 2.3675,1.45822 2.66402,2.87946 0.13342,0.63948 0.0934,1.41704 -0.10703,2.08244 -0.34928,1.15935 -1.18821,2.14319 -2.26606,2.65763 -0.62991,0.30065 -1.04161,0.39467 -1.72209,0.39336 -0.76091,-0.002 -1.29911,-0.14906 -1.92441,-0.52746 -0.77228,-0.46734 -1.43654,-1.35155 -1.63842,-2.18088 -0.0544,-0.22358 -0.0769,-0.2681 -0.13292,-0.26238 -0.10163,0.0104 -0.96415,0.31528 -1.00184,0.35417 -0.0203,0.0209 0.0243,0.17791 0.11677,0.41085 0.3555,0.89518 0.9,1.60896 1.63027,2.13709 1.07882,0.7802 2.41429,1.02333 3.80987,0.69383 0.17136,-0.0405 0.31926,-0.0657 0.32869,-0.0561 0.0404,0.041 -0.26131,0.18246 -0.70797,0.3318 -0.46429,0.15523 -0.4944,0.16055 -0.89548,0.15688 -0.7203,-0.007 -1.22154,-0.10313 -1.86917,-0.35959 -0.82584,-0.32704 -1.54434,-0.89047 -2.11057,-1.65505 -0.22737,-0.30702 -0.58191,-0.9958 -0.67048,-1.30265 -0.0342,-0.11848 -0.0731,-0.23599 -0.0866,-0.26115 -0.0176,-0.033 -0.17706,-0.0497 -0.57225,-0.0601 -0.44695,-0.0118 -0.61272,-0.0318 -0.90109,-0.10888 -0.40187,-0.10742 -0.89268,-0.33211 -1.22337,-0.56 -0.27357,-0.18854 -0.78983,-0.70536 -0.94019,-0.94129 -0.1066001,-0.16727 -0.2160701,-0.59861 -0.1798901,-0.70888 0.009,-0.0269 0.1141101,0.0977 0.2384801,0.28217 0.37665,0.55877 0.93561,1.0298 1.52191,1.28244 0.51371,0.22135 0.93166,0.30387 1.53926,0.30387 h 0.37728 l -0.0232,-0.29628 c -0.0128,-0.1629 -0.0246,-0.43428 -0.0264,-0.60312 l -0.003,-0.30698 -0.56972,-7.9e-4 c -0.47199,-5.2e-4 -0.61678,-0.0139 -0.84436,-0.0777 -0.99992,-0.28028 -1.79372,-1.11007 -2.07188,-2.1657 -0.1088001,-0.41291 -0.1231101,-0.62998 -0.0591,-0.89451 0.092,-0.38049 0.17176,-0.64556 0.19405,-0.64556 0.0115,10e-6 0.0229,0.21416 0.0252,0.4758 0.005,0.57241 0.0781,0.89421 0.31121,1.37329 0.3252,0.66836 0.80333,1.0894 1.53752,1.3539 0.30819,0.11102 1.3171,0.13456 1.47654,0.0344 0.0226,-0.0142 0.0666,-0.15196 0.098,-0.30604 0.0313,-0.15407 0.089,-0.38543 0.12812,-0.51417 0.0391,-0.12873 0.0629,-0.24243 0.0527,-0.25274 -0.0102,-0.0103 -0.13442,0.0239 -0.27625,0.0761 -0.62473,0.22994 -1.31802,0.1773 -1.85194,-0.14061 -0.42244,-0.25154 -0.79362,-0.80487 -0.91657,-1.36638 -0.0707,-0.32302 -0.0559,-0.91832 0.0308,-1.23661 0.29163,-1.07027 1.08286,-1.9098 2.03265,-2.15688 0.31314,-0.0815 0.78933,-0.0948 1.04921,-0.0293 0.92308,0.23268 1.53579,1.05765 1.53579,2.0678 0,0.17447 0.0146,0.2983 0.0352,0.2983 0.0194,0 0.17235,-0.10507 0.33991,-0.23349 0.16758,-0.12841 0.36632,-0.26866 0.44174,-0.31172 0.11554,-0.066 0.13719,-0.0968 0.13719,-0.19553 0,-0.17483 -0.16463,-0.67506 -0.32924,-1.00054 -0.1702,-0.33653 -0.62404,-0.82265 -0.94912,-1.01668 -0.66689,-0.39803 -1.48387,-0.46429 -2.35427,-0.19078 -0.0641,0.0202 -0.24986,0.10869 -0.41277,0.19675 -0.16293,0.0881 -0.28825,0.13911 -0.27852,0.11335 0.0207,-0.0548 0.3977,-0.38468 0.58119,-0.50861 0.26378,-0.17815 1.0184,-0.32327 1.46346,-0.28136 0.54824,0.0516 1.03894,0.21575 1.42596,0.47675 0.6057,0.40849 1.01214,1.00411 1.24259,1.82102 0.0481,0.17069 0.0747,0.21394 0.12732,0.20868 0.0366,-0.004 0.24709,-0.0723 0.46789,-0.15255 0.22077,-0.0803 0.42847,-0.1459 0.46148,-0.1459 0.033,0 0.089,-0.0216 0.12452,-0.048 0.0622,-0.0462 0.0617,-0.057 -0.0153,-0.29614 -0.12543,-0.38926 -0.40033,-0.90276 -0.65887,-1.23092 -0.6159,-0.78177 -1.66538,-1.33315 -2.5379,-1.33315 -0.12715,0 -0.23128,-0.0157 -0.23128,-0.0349 0,-0.0192 0.10985,-0.0687 0.24409,-0.1101 0.11734,-0.0362 0.18144,-0.0546 0.2541,-0.0572 z m -1.75092,2.2861 c -0.45552,0.012 -0.93451,0.20226 -1.35122,0.58984 -0.53432,0.49697 -0.82238,1.14686 -0.82342,1.85722 -7.7e-4,0.28519 0.0591,0.54265 0.19298,0.83647 0.19758,0.43359 0.5304,0.73858 0.96447,0.88366 0.15919,0.0532 0.28258,0.0653 0.57386,0.0563 0.31809,-0.01 0.4113,-0.0276 0.65366,-0.12542 0.6896,-0.27826 1.25903,-0.95576 1.45425,-1.73003 0.0746,-0.2957 0.0761,-0.85094 0.003,-1.09763 -0.23827,-0.80438 -0.87218,-1.25227 -1.57689,-1.27038 -0.0301,-7.8e-4 -0.0604,-7.8e-4 -0.0908,0 z m -0.14359,0.62672 c 0.32571,0 0.36897,0.009 0.54195,0.1059 0.36987,0.20817 0.57849,0.56791 0.60122,1.03674 0.016,0.3297 -0.0291,0.52613 -0.19591,0.85492 -0.15661,0.3087 -0.42497,0.57919 -0.73467,0.74047 -0.21679,0.11289 -0.28446,0.13023 -0.5477,0.14007 -0.35547,0.0133 -0.49388,-0.0309 -0.76589,-0.24407 -0.76167,-0.59703 -0.47539,-2.02298 0.50445,-2.51268 0.22666,-0.11328 0.26597,-0.12135 0.59655,-0.12135 z m -0.14,0.39064 c -0.36073,0.0122 -0.72931,0.25989 -0.92377,0.68421 -0.10736,0.23427 -0.11574,0.64612 -0.0175,0.86589 0.0843,0.18864 0.32875,0.3997 0.51274,0.44271 0.31028,0.0725 0.67477,-0.0536 0.91789,-0.31769 0.22789,-0.24753 0.31303,-0.43855 0.33284,-0.74658 0.0218,-0.33946 -0.048,-0.53188 -0.26304,-0.7242 -0.14388,-0.12868 -0.31326,-0.19424 -0.48724,-0.20366 -0.0239,-0.001 -0.0479,-0.001 -0.0719,-7.9e-4 z m 5.03723,0.20176 c -0.11974,0 -0.62404,0.17322 -0.90361,0.31038 l -0.21207,0.104 -0.0233,0.4301 c -0.0225,0.41276 -0.0893,0.82233 -0.16882,1.03471 -0.0206,0.0551 -0.0375,0.11523 -0.0375,0.1337 0,0.0558 0.0342,0.0394 0.19324,-0.093 0.22939,-0.19098 0.69669,-0.466 0.98303,-0.57858 0.14019,-0.0551 0.2665,-0.11696 0.28078,-0.13735 0.0311,-0.0444 0.0353,-1.0078 0.005,-1.12312 -0.0154,-0.0584 -0.0476,-0.0808 -0.1165,-0.0808 z m -5.14426,0.46753 c 0.0688,-0.006 0.13396,0.0235 0.19324,0.0876 0.11018,0.11915 0.0845,0.35831 -0.0514,0.47702 -0.19566,0.171 -0.47736,0.0511 -0.47736,-0.20325 0,-0.0863 0.0324,-0.15072 0.12024,-0.24 0.0739,-0.0751 0.14641,-0.11568 0.21526,-0.12136 z m 3.50557,0.28651 c -0.0885,0 -0.50472,0.33824 -0.83742,0.6804 -0.52991,0.545 -0.9099,1.14005 -1.18974,1.86319 -0.13244,0.34224 -0.26192,0.81632 -0.23141,0.84732 0.0349,0.0355 0.0765,0.0215 0.28212,-0.0949 0.99479,-0.56311 1.7339,-1.60707 1.95377,-2.75946 0.0805,-0.42195 0.0854,-0.53654 0.0227,-0.53654 z m 2.91892,0.77518 c -0.32583,0.003 -0.61367,0.0356 -0.6957,0.0979 -0.0319,0.0242 -0.0778,0.16079 -0.1073,0.31865 -0.0283,0.15195 -0.0855,0.39181 -0.12691,0.53301 -0.0414,0.1412 -0.0696,0.26249 -0.0626,0.26956 0.007,0.007 0.15517,-0.0388 0.32936,-0.1021 0.30577,-0.11105 0.33571,-0.11504 0.86452,-0.11349 0.52794,0.002 0.55828,0.006 0.84316,0.11566 0.65988,0.2547 1.08253,0.63249 1.38633,1.23919 0.21116,0.4217 0.2908,0.81166 0.26931,1.31837 -0.0217,0.51182 -0.0811,0.74232 -0.31282,1.2141 -0.57887,1.17862 -1.95202,1.85297 -3.12696,1.5356 -1.05724,-0.28558 -1.82092,-1.21581 -1.87423,-2.28299 -0.009,-0.18759 -0.0237,-0.36265 -0.032,-0.38901 -0.0102,-0.0325 -0.0862,0.009 -0.23594,0.12881 -0.12145,0.0972 -0.3192,0.24387 -0.43947,0.32597 -0.12025,0.0821 -0.2268,0.16263 -0.23675,0.17898 -0.0239,0.0392 0.0939,0.51286 0.18698,0.75227 0.42056,1.08132 1.26336,1.81186 2.37094,2.05519 1.45676,0.32003 3.06227,-0.41604 3.8543,-1.76719 1.26717,-2.1617 0.32642,-4.76523 -1.93055,-5.34305 -0.23402,-0.0599 -0.5978,-0.0879 -0.92364,-0.0854 z m -1.31079,0.32462 c -0.11942,0.0134 -0.48231,0.21674 -0.77817,0.44325 -0.86796,0.66451 -1.40353,1.65038 -1.50483,2.76976 -0.0101,0.11107 -0.009,0.21188 0.004,0.22414 0.0318,0.0323 0.17753,-0.0695 0.49898,-0.34861 0.55239,-0.47963 1.04113,-1.11966 1.38166,-1.80922 0.2166,-0.43862 0.48389,-1.22239 0.43412,-1.27295 -0.006,-0.006 -0.0183,-0.008 -0.0354,-0.006 z m 1.56449,1.18101 c -0.22077,-0.002 -0.44102,0.02 -0.59828,0.0674 -1.08471,0.32705 -1.80233,1.34372 -1.73851,2.46278 0.0346,0.60698 0.25617,1.10527 0.6606,1.4857 0.28709,0.27005 0.7255,0.48822 1.07617,0.53559 0.27335,0.0369 0.59253,0.0197 0.8437,-0.0456 0.80875,-0.21015 1.43823,-0.81119 1.72143,-1.64352 0.10083,-0.29638 0.12817,-0.9206 0.0542,-1.23851 -0.16926,-0.72727 -0.71391,-1.32046 -1.41795,-1.54427 -0.15928,-0.0506 -0.38058,-0.0773 -0.60134,-0.0796 z m 0.0395,0.75268 c 0.35954,0.007 0.71079,0.14694 0.97982,0.42048 0.30622,0.31136 0.4774,0.77799 0.43266,1.17979 -0.0695,0.62433 -0.41727,1.1307 -0.96434,1.40434 -0.21244,0.10626 -0.27041,0.11879 -0.59094,0.12705 -0.47291,0.0122 -0.72131,-0.071 -1.01425,-0.33993 -0.66207,-0.60773 -0.65751,-1.62958 0.0104,-2.31132 0.32102,-0.32767 0.73915,-0.48883 1.14663,-0.48041 z m -4.21102,0.21044 c -0.034,0.008 -0.14504,0.0784 -0.26824,0.17126 -0.14081,0.10614 -0.44756,0.29129 -0.68168,0.41139 l -0.42572,0.2183 0.006,0.42793 c 0.003,0.23535 0.0165,0.51274 0.0291,0.61641 0.0181,0.14958 0.0361,0.18848 0.087,0.18848 0.0874,0 0.57193,-0.16653 0.83542,-0.28706 l 0.21553,-0.0986 0.02,-0.46238 c 0.0197,-0.45593 0.088,-0.88197 0.17136,-1.06779 0.0234,-0.0523 0.0327,-0.10517 0.0207,-0.11743 -0.002,-0.002 -0.005,-0.002 -0.01,-5.2e-4 z m 4.17031,0.33302 c -0.27129,0.005 -0.54304,0.11812 -0.74814,0.32651 -0.32057,0.32571 -0.41915,0.82392 -0.24115,1.21898 0.14418,0.31996 0.33154,0.49395 0.61789,0.57369 0.33562,0.0935 0.72608,-0.0135 1.00585,-0.27552 0.54553,-0.51091 0.46191,-1.41072 -0.16122,-1.73451 -0.14783,-0.0768 -0.31045,-0.11234 -0.47323,-0.10915 z m -0.01,0.73315 v 0 c 0.0855,-0.003 0.17213,0.0308 0.24342,0.10319 0.14367,0.14596 0.14382,0.3458 7.7e-4,0.50156 -0.14259,0.15509 -0.35196,0.15779 -0.50085,0.007 -0.12305,-0.12503 -0.13326,-0.25768 -0.0326,-0.4255 0.071,-0.11838 0.17922,-0.18211 0.28919,-0.18576 z"
       inkscape:connector-curvature="0" />
  </g>
</svg>
