<?xml version="1.0" encoding="UTF-8" standalone="no"?>
<!-- Created with Inkscape (http://www.inkscape.org/) -->

<svg
   xmlns:osb="http://www.openswatchbook.org/uri/2009/osb"
   xmlns:dc="http://purl.org/dc/elements/1.1/"
   xmlns:cc="http://creativecommons.org/ns#"
   xmlns:rdf="http://www.w3.org/1999/02/22-rdf-syntax-ns#"
   xmlns:svg="http://www.w3.org/2000/svg"
   xmlns="http://www.w3.org/2000/svg"
   xmlns:sodipodi="http://sodipodi.sourceforge.net/DTD/sodipodi-0.dtd"
   xmlns:inkscape="http://www.inkscape.org/namespaces/inkscape"
   width="128"
   height="128"
   viewBox="0 0 33.866665 33.866667"
   version="1.1"
   id="svg8"
   inkscape:version="0.92.1 r15371"
   sodipodi:docname="folder.svg">
  <defs
     id="defs2">
    <linearGradient
       osb:paint="solid"
       id="linearGradient6088">
      <stop
         id="stop6086"
         offset="0"
         style="stop-color:#51b3e3;stop-opacity:1;" />
    </linearGradient>
    <linearGradient
       osb:paint="solid"
       id="linearGradient6987">
      <stop
         id="stop6985"
         offset="0"
         style="stop-color:#77d2fb;stop-opacity:1;" />
    </linearGradient>
  </defs>
  <sodipodi:namedview
     id="base"
     pagecolor="#ffffff"
     bordercolor="#666666"
     borderopacity="1.0"
     inkscape:pageopacity="0.0"
     inkscape:pageshadow="2"
     inkscape:zoom="1.8101934"
     inkscape:cx="77.925775"
     inkscape:cy="56.69302"
     inkscape:document-units="mm"
     inkscape:current-layer="layer1"
     showgrid="false"
     inkscape:window-width="1366"
     inkscape:window-height="704"
     inkscape:window-x="0"
     inkscape:window-y="27"
     inkscape:window-maximized="1"
     units="px" />
  <metadata
     id="metadata5">
    <rdf:RDF>
      <cc:Work
         rdf:about="">
        <dc:format>image/svg+xml</dc:format>
        <dc:type
           rdf:resource="http://purl.org/dc/dcmitype/StillImage" />
        <dc:title />
      </cc:Work>
    </rdf:RDF>
  </metadata>
  <g
     inkscape:label="Layer 1"
     inkscape:groupmode="layer"
     id="layer1"
     transform="translate(0,-263.13331)">
    <path
       style="opacity:0.25;fill:#000000;fill-opacity:1;stroke:#808080;stroke-width:0.0254487;stroke-miterlimit:4;stroke-dasharray:none;stroke-opacity:1"
       d="m 16.938305,264.87387 a 12.466727,2.9993442 0 0 0 -12.4667332,2.99936 12.466727,2.9993442 0 0 0 0.00541,0.0366 c -0.00465,0.0117 -0.00902,0.0223 -0.013068,0.0332 l 2.9865218,23.28013 c -0.014682,0.10275 0.6019181,4.67876 7.9300944,4.69452 4.83509,0.10121 10.416969,-0.39403 11.103214,-5.15964 0.328213,-1.60463 2.858997,-22.44266 2.900564,-22.78499 a 12.466727,2.9993442 0 0 0 0.02077,-0.0999 12.466727,2.9993442 0 0 0 -12.46673,-2.99937 z"
       id="path1139-9-8"
       inkscape:connector-curvature="0" />
    <path
       inkscape:connector-curvature="0"
       id="path822-0-3"
       d="m 16.938305,264.29173 a 12.466727,2.9993442 0 0 0 -12.4667332,2.99936 12.466727,2.9993442 0 0 0 0.00541,0.0366 c -0.00465,0.0117 -0.00902,0.0223 -0.013068,0.0332 l 2.9865218,23.28013 c -0.014682,0.10275 0.6019181,4.67876 7.9300944,4.69452 4.83509,0.10121 10.416969,-0.39403 11.103214,-5.15964 0.328213,-1.60463 2.858997,-22.44266 2.900564,-22.78499 a 12.466727,2.9993442 0 0 0 0.02077,-0.0999 12.466727,2.9993442 0 0 0 -12.46673,-2.99937 z"
       style="opacity:1;fill:#f2f2f2;fill-opacity:1;stroke:#4d4d4d;stroke-width:0.19998953;stroke-miterlimit:4;stroke-dasharray:none;stroke-opacity:1" />
    <ellipse
       ry="2.4897447"
       rx="11.392953"
       cy="267.56766"
       cx="16.831509"
       id="ellipse824-9"
       style="opacity:1;fill:#808080;fill-opacity:1;stroke:#4d4d4d;stroke-width:0.19998953;stroke-miterlimit:4;stroke-dasharray:none;stroke-opacity:1" />
  </g>
</svg>
