<?xml version="1.0" encoding="UTF-8" standalone="no"?>
<!-- Created with Inkscape (http://www.inkscape.org/) -->

<svg
   xmlns:osb="http://www.openswatchbook.org/uri/2009/osb"
   xmlns:dc="http://purl.org/dc/elements/1.1/"
   xmlns:cc="http://creativecommons.org/ns#"
   xmlns:rdf="http://www.w3.org/1999/02/22-rdf-syntax-ns#"
   xmlns:svg="http://www.w3.org/2000/svg"
   xmlns="http://www.w3.org/2000/svg"
   xmlns:xlink="http://www.w3.org/1999/xlink"
   xmlns:sodipodi="http://sodipodi.sourceforge.net/DTD/sodipodi-0.dtd"
   xmlns:inkscape="http://www.inkscape.org/namespaces/inkscape"
   width="128"
   height="128"
   viewBox="0 0 33.866665 33.866665"
   version="1.1"
   id="svg4942"
   inkscape:version="0.92.2 5c3e80d, 2017-08-06"
   sodipodi:docname="application-archive.svg">
  <defs
     id="defs4936">
    <linearGradient
       inkscape:collect="always"
       id="linearGradient963">
      <stop
         style="stop-color:#12d51d;stop-opacity:1"
         offset="0"
         id="stop959" />
      <stop
         style="stop-color:#85fb6f;stop-opacity:1"
         offset="1"
         id="stop961" />
    </linearGradient>
    <linearGradient
       id="linearGradient6987"
       osb:paint="solid">
      <stop
         style="stop-color:#77d2fb;stop-opacity:1;"
         offset="0"
         id="stop6985" />
    </linearGradient>
    <linearGradient
       id="linearGradient3137">
      <stop
         style="stop-color:#262a19;stop-opacity:1"
         offset="0"
         id="stop3139" />
      <stop
         id="stop3141"
         offset="0.22095624"
         style="stop-color:#2f2c33;stop-opacity:1" />
      <stop
         id="stop3143"
         offset="0.48518145"
         style="stop-color:#3a3a3a;stop-opacity:1" />
      <stop
         id="stop3145"
         offset="0.76176167"
         style="stop-color:#3d3c37;stop-opacity:1" />
      <stop
         style="stop-color:#2e3122;stop-opacity:1;"
         offset="0.9575814"
         id="stop3149" />
      <stop
         style="stop-color:#001200;stop-opacity:1"
         offset="1"
         id="stop3147" />
    </linearGradient>
    <linearGradient
       id="linearGradient3644">
      <stop
         id="stop3646"
         offset="0"
         style="stop-color:#b7b4b8;stop-opacity:1" />
      <stop
         style="stop-color:#f5f5f5;stop-opacity:1;"
         offset="0.30463547"
         id="stop3652" />
      <stop
         id="stop3654"
         offset="0.85247308"
         style="stop-color:#f3f3f3;stop-opacity:1;" />
      <stop
         id="stop3648"
         offset="1"
         style="stop-color:#dcdcdc;stop-opacity:1;" />
    </linearGradient>
    <linearGradient
       id="linearGradient3721"
       inkscape:collect="always">
      <stop
         id="stop3723"
         offset="0"
         style="stop-color:#8b8d82;stop-opacity:1" />
      <stop
         id="stop3725"
         offset="1"
         style="stop-color:#9aa692;stop-opacity:0;" />
    </linearGradient>
    <linearGradient
       id="linearGradient3656">
      <stop
         id="stop3658"
         offset="0"
         style="stop-color:#f0f0f0;stop-opacity:1;" />
      <stop
         id="stop3660"
         offset="1"
         style="stop-color:#fffffd;stop-opacity:1" />
    </linearGradient>
    <linearGradient
       id="linearGradient3678"
       inkscape:collect="always">
      <stop
         id="stop3680"
         offset="0"
         style="stop-color:#959794;stop-opacity:1" />
      <stop
         id="stop3682"
         offset="1"
         style="stop-color:#000000;stop-opacity:0;" />
    </linearGradient>
    <linearGradient
       gradientUnits="userSpaceOnUse"
       y2="46.033882"
       x2="92.981857"
       y1="48.400726"
       x1="96.013008"
       id="linearGradient3674"
       xlink:href="#linearGradient3668"
       inkscape:collect="always" />
    <linearGradient
       id="linearGradient3668"
       inkscape:collect="always">
      <stop
         id="stop3670"
         offset="0"
         style="stop-color:#0a0a00;stop-opacity:1" />
      <stop
         id="stop3672"
         offset="1"
         style="stop-color:#0b0a05;stop-opacity:1" />
    </linearGradient>
    <linearGradient
       y2="964.08435"
       x2="201.76851"
       y1="964.83563"
       x1="203.07224"
       gradientTransform="matrix(1,0,0,-1,-152.55859,1969.0775)"
       gradientUnits="userSpaceOnUse"
       id="linearGradient3799"
       xlink:href="#linearGradient3191"
       inkscape:collect="always" />
    <linearGradient
       id="linearGradient3191"
       inkscape:collect="always">
      <stop
         id="stop3193"
         offset="0"
         style="stop-color:#dadedd;stop-opacity:1" />
      <stop
         id="stop3195"
         offset="1"
         style="stop-color:#f7f7f5;stop-opacity:1" />
    </linearGradient>
    <linearGradient
       y2="964.08435"
       x2="201.76851"
       y1="964.83563"
       x1="203.07224"
       gradientTransform="translate(-152.55859)"
       gradientUnits="userSpaceOnUse"
       id="linearGradient3801"
       xlink:href="#linearGradient3191"
       inkscape:collect="always" />
    <linearGradient
       y2="965.22681"
       x2="199.49873"
       y1="965.88971"
       x1="198.69772"
       gradientTransform="translate(-152.55859,0.02102661)"
       gradientUnits="userSpaceOnUse"
       id="linearGradient3803"
       xlink:href="#linearGradient3177"
       inkscape:collect="always" />
    <linearGradient
       id="linearGradient3177">
      <stop
         id="stop3179"
         offset="0"
         style="stop-color:#b1b1b1;stop-opacity:1" />
      <stop
         id="stop3181"
         offset="1"
         style="stop-color:#f7f7f7;stop-opacity:1" />
    </linearGradient>
    <linearGradient
       y2="962.75977"
       x2="199.43245"
       y1="963.57733"
       x1="198.60933"
       gradientTransform="translate(-152.55859)"
       gradientUnits="userSpaceOnUse"
       id="linearGradient3805"
       xlink:href="#linearGradient3177"
       inkscape:collect="always" />
    <linearGradient
       y2="968.47388"
       x2="201.11574"
       y1="969.20306"
       x1="203.07686"
       gradientTransform="translate(-152.55859,0.03340149)"
       gradientUnits="userSpaceOnUse"
       id="linearGradient3807-8"
       xlink:href="#linearGradient3191"
       inkscape:collect="always" />
    <linearGradient
       y2="969.38763"
       x2="199.35992"
       y1="970.07263"
       x1="198.52023"
       gradientTransform="translate(-152.55859,0.05257416)"
       gradientUnits="userSpaceOnUse"
       id="linearGradient3809"
       xlink:href="#linearGradient3177"
       inkscape:collect="always" />
    <linearGradient
       y2="967.08563"
       x2="199.85229"
       y1="967.92535"
       x1="198.60933"
       gradientTransform="translate(-152.55859,0.03155518)"
       gradientUnits="userSpaceOnUse"
       id="linearGradient3811"
       xlink:href="#linearGradient3177"
       inkscape:collect="always" />
    <linearGradient
       y2="965.93524"
       x2="201.09364"
       y1="966.86334"
       x1="202.41394"
       gradientTransform="translate(-152.55859,0.01670074)"
       gradientUnits="userSpaceOnUse"
       id="linearGradient3813"
       xlink:href="#linearGradient3191"
       inkscape:collect="always" />
    <linearGradient
       y2="964.08435"
       x2="201.76851"
       y1="964.83563"
       x1="203.07224"
       gradientTransform="translate(-152.55859,9.072177)"
       gradientUnits="userSpaceOnUse"
       id="linearGradient3815"
       xlink:href="#linearGradient3191"
       inkscape:collect="always" />
    <linearGradient
       y2="965.22681"
       x2="199.49873"
       y1="965.88971"
       x1="198.69772"
       gradientTransform="translate(-152.55859,9.0895033)"
       gradientUnits="userSpaceOnUse"
       id="linearGradient3817"
       xlink:href="#linearGradient3177"
       inkscape:collect="always" />
    <linearGradient
       y2="962.75977"
       x2="199.43245"
       y1="963.57733"
       x1="198.60933"
       gradientTransform="translate(-152.55859,9.0684691)"
       gradientUnits="userSpaceOnUse"
       id="linearGradient3819"
       xlink:href="#linearGradient3177"
       inkscape:collect="always" />
    <linearGradient
       y2="968.47388"
       x2="201.11574"
       y1="969.20306"
       x1="203.07686"
       gradientTransform="translate(-152.55859,9.1055861)"
       gradientUnits="userSpaceOnUse"
       id="linearGradient3821"
       xlink:href="#linearGradient3191"
       inkscape:collect="always" />
    <linearGradient
       y2="969.38763"
       x2="199.35992"
       y1="970.07263"
       x1="198.52023"
       gradientTransform="translate(-152.55859,9.1210509)"
       gradientUnits="userSpaceOnUse"
       id="linearGradient3823"
       xlink:href="#linearGradient3177"
       inkscape:collect="always" />
    <linearGradient
       y2="967.08563"
       x2="199.85229"
       y1="967.92535"
       x1="198.60933"
       gradientTransform="translate(-152.55859,9.1000242)"
       gradientUnits="userSpaceOnUse"
       id="linearGradient3825"
       xlink:href="#linearGradient3177"
       inkscape:collect="always" />
    <linearGradient
       y2="965.93524"
       x2="201.09364"
       y1="966.86334"
       x1="202.41394"
       gradientTransform="translate(-152.55859,9.0888701)"
       gradientUnits="userSpaceOnUse"
       id="linearGradient3827"
       xlink:href="#linearGradient3191"
       inkscape:collect="always" />
    <linearGradient
       y2="964.08435"
       x2="201.76851"
       y1="964.83563"
       x1="203.07224"
       gradientTransform="translate(-152.55859,6.8041334)"
       gradientUnits="userSpaceOnUse"
       id="linearGradient3829"
       xlink:href="#linearGradient3191"
       inkscape:collect="always" />
    <linearGradient
       y2="968.47388"
       x2="201.11574"
       y1="969.20306"
       x1="203.07686"
       gradientTransform="translate(-152.55859,11.373622)"
       gradientUnits="userSpaceOnUse"
       id="linearGradient3831"
       xlink:href="#linearGradient3191"
       inkscape:collect="always" />
    <linearGradient
       y2="964.08435"
       x2="201.76851"
       y1="964.83563"
       x1="203.07224"
       gradientTransform="translate(-152.55859,18.14434)"
       gradientUnits="userSpaceOnUse"
       id="linearGradient3833"
       xlink:href="#linearGradient3191"
       inkscape:collect="always" />
    <linearGradient
       y2="965.22681"
       x2="199.49873"
       y1="965.88971"
       x1="198.69772"
       gradientTransform="translate(-152.55859,18.157959)"
       gradientUnits="userSpaceOnUse"
       id="linearGradient3835"
       xlink:href="#linearGradient3177"
       inkscape:collect="always" />
    <linearGradient
       y2="962.75977"
       x2="199.43245"
       y1="963.57733"
       x1="198.60933"
       gradientTransform="translate(-152.55859,18.136932)"
       gradientUnits="userSpaceOnUse"
       id="linearGradient3837"
       xlink:href="#linearGradient3177"
       inkscape:collect="always" />
    <linearGradient
       y2="968.47388"
       x2="201.11574"
       y1="969.20306"
       x1="203.07686"
       gradientTransform="translate(-152.55859,18.177742)"
       gradientUnits="userSpaceOnUse"
       id="linearGradient3839"
       xlink:href="#linearGradient3191"
       inkscape:collect="always" />
    <linearGradient
       y2="969.38763"
       x2="199.35992"
       y1="970.07263"
       x1="198.52023"
       gradientTransform="translate(-152.55859,18.189506)"
       gradientUnits="userSpaceOnUse"
       id="linearGradient3841"
       xlink:href="#linearGradient3177"
       inkscape:collect="always" />
    <linearGradient
       y2="967.08563"
       x2="199.85229"
       y1="967.92535"
       x1="198.60933"
       gradientTransform="translate(-152.55859,18.168487)"
       gradientUnits="userSpaceOnUse"
       id="linearGradient3843"
       xlink:href="#linearGradient3177"
       inkscape:collect="always" />
    <linearGradient
       y2="965.93524"
       x2="201.09364"
       y1="966.86334"
       x1="202.41394"
       gradientTransform="translate(-152.55859,18.161041)"
       gradientUnits="userSpaceOnUse"
       id="linearGradient3845"
       xlink:href="#linearGradient3191"
       inkscape:collect="always" />
    <linearGradient
       y2="964.08435"
       x2="201.76851"
       y1="964.83563"
       x1="203.07224"
       gradientTransform="translate(-152.55859,27.216513)"
       gradientUnits="userSpaceOnUse"
       id="linearGradient3847"
       xlink:href="#linearGradient3191"
       inkscape:collect="always" />
    <linearGradient
       y2="965.22681"
       x2="199.49873"
       y1="965.88971"
       x1="198.69772"
       gradientTransform="translate(-152.55859,27.226427)"
       gradientUnits="userSpaceOnUse"
       id="linearGradient3849"
       xlink:href="#linearGradient3177"
       inkscape:collect="always" />
    <linearGradient
       y2="962.75977"
       x2="199.43245"
       y1="963.57733"
       x1="198.60933"
       gradientTransform="translate(-152.55859,27.205404)"
       gradientUnits="userSpaceOnUse"
       id="linearGradient3851"
       xlink:href="#linearGradient3177"
       inkscape:collect="always" />
    <linearGradient
       y2="968.47388"
       x2="201.11574"
       y1="969.20306"
       x1="203.07686"
       gradientTransform="translate(-152.55859,27.249918)"
       gradientUnits="userSpaceOnUse"
       id="linearGradient3853"
       xlink:href="#linearGradient3191"
       inkscape:collect="always" />
    <linearGradient
       y2="969.38763"
       x2="199.35992"
       y1="970.07263"
       x1="198.52023"
       gradientTransform="translate(-152.55859,27.257978)"
       gradientUnits="userSpaceOnUse"
       id="linearGradient3855"
       xlink:href="#linearGradient3177"
       inkscape:collect="always" />
    <linearGradient
       y2="967.08563"
       x2="199.85229"
       y1="967.92535"
       x1="198.60933"
       gradientTransform="translate(-152.55859,27.236952)"
       gradientUnits="userSpaceOnUse"
       id="linearGradient3857"
       xlink:href="#linearGradient3177"
       inkscape:collect="always" />
    <linearGradient
       y2="965.93524"
       x2="201.09364"
       y1="966.86334"
       x1="202.41394"
       gradientTransform="translate(-152.55859,27.233217)"
       gradientUnits="userSpaceOnUse"
       id="linearGradient3859"
       xlink:href="#linearGradient3191"
       inkscape:collect="always" />
    <linearGradient
       y2="964.08435"
       x2="201.76851"
       y1="964.83563"
       x1="203.07224"
       gradientTransform="translate(-152.55859,24.948473)"
       gradientUnits="userSpaceOnUse"
       id="linearGradient3861"
       xlink:href="#linearGradient3191"
       inkscape:collect="always" />
    <linearGradient
       y2="968.47388"
       x2="201.11574"
       y1="969.20306"
       x1="203.07686"
       gradientTransform="translate(-152.55859,29.517959)"
       gradientUnits="userSpaceOnUse"
       id="linearGradient3863"
       xlink:href="#linearGradient3191"
       inkscape:collect="always" />
    <linearGradient
       y2="964.08435"
       x2="201.76851"
       y1="964.83563"
       x1="203.07224"
       gradientTransform="translate(-152.55859,36.287685)"
       gradientUnits="userSpaceOnUse"
       id="linearGradient3865"
       xlink:href="#linearGradient3191"
       inkscape:collect="always" />
    <linearGradient
       y2="965.22681"
       x2="199.49873"
       y1="965.88971"
       x1="198.69772"
       gradientTransform="translate(-152.55859,36.293899)"
       gradientUnits="userSpaceOnUse"
       id="linearGradient3867"
       xlink:href="#linearGradient3177"
       inkscape:collect="always" />
    <linearGradient
       y2="962.75977"
       x2="199.43245"
       y1="963.57733"
       x1="198.60933"
       gradientTransform="translate(-152.55859,36.27386)"
       gradientUnits="userSpaceOnUse"
       id="linearGradient3869"
       xlink:href="#linearGradient3177"
       inkscape:collect="always" />
    <linearGradient
       y2="967.08563"
       x2="199.85229"
       y1="967.92535"
       x1="198.60933"
       gradientTransform="translate(-152.55859,36.304416)"
       gradientUnits="userSpaceOnUse"
       id="linearGradient3871"
       xlink:href="#linearGradient3177"
       inkscape:collect="always" />
    <linearGradient
       y2="965.93524"
       x2="201.09364"
       y1="966.86334"
       x1="202.41394"
       gradientTransform="translate(-152.55859,36.304416)"
       gradientUnits="userSpaceOnUse"
       id="linearGradient3873"
       xlink:href="#linearGradient3191"
       inkscape:collect="always" />
    <linearGradient
       gradientTransform="matrix(1.3908187,0,0,1.3908187,-293.09315,-1203.8768)"
       y2="1009.7133"
       x2="48.304234"
       y1="1010.4219"
       x1="48.304234"
       gradientUnits="userSpaceOnUse"
       id="linearGradient4393"
       xlink:href="#linearGradient3656"
       inkscape:collect="always" />
    <linearGradient
       gradientTransform="matrix(1.3884041,0.08192127,-0.08192127,1.3884041,-293.09315,-1203.8768)"
       y2="1016.1454"
       x2="105.78614"
       y1="1006.1552"
       x1="106.38625"
       gradientUnits="userSpaceOnUse"
       id="linearGradient4400"
       xlink:href="#linearGradient3678"
       inkscape:collect="always" />
    <linearGradient
       gradientTransform="matrix(1.3908187,0,0,1.3908187,-293.09315,-1203.8768)"
       y2="1008.5561"
       x2="49.8125"
       y1="1005.7997"
       x1="49.8125"
       gradientUnits="userSpaceOnUse"
       id="linearGradient4403"
       xlink:href="#linearGradient3656"
       inkscape:collect="always" />
    <linearGradient
       gradientTransform="matrix(1.3908187,0,0,1.3908187,-293.09315,126.24962)"
       y2="60.169193"
       x2="45.877602"
       y1="60.5625"
       x1="49.875"
       gradientUnits="userSpaceOnUse"
       id="linearGradient4408"
       xlink:href="#linearGradient3721"
       inkscape:collect="always" />
    <linearGradient
       gradientTransform="matrix(1.3908187,0,0,1.3908187,-293.09315,-1203.8768)"
       y2="1023.9896"
       x2="46.403881"
       y1="1012.5741"
       x1="50.428692"
       gradientUnits="userSpaceOnUse"
       id="linearGradient4412"
       xlink:href="#linearGradient3644"
       inkscape:collect="always" />
    <linearGradient
       inkscape:collect="always"
       xlink:href="#linearGradient963"
       id="linearGradient5320"
       gradientUnits="userSpaceOnUse"
       x1="35.602985"
       y1="262.06546"
       x2="35.757076"
       y2="164.39854"
       gradientTransform="matrix(0.25422046,0,0,0.25422046,-3.9183462,221.8855)" />
    <linearGradient
       inkscape:collect="always"
       xlink:href="#linearGradient3137"
       id="linearGradient6006"
       x1="-222.35352"
       y1="198.73425"
       x2="-222.54712"
       y2="136.15646"
       gradientUnits="userSpaceOnUse" />
  </defs>
  <sodipodi:namedview
     id="base"
     pagecolor="#ffffff"
     bordercolor="#666666"
     borderopacity="1.0"
     inkscape:pageopacity="0.0"
     inkscape:pageshadow="2"
     inkscape:zoom="3.3612455"
     inkscape:cx="50.871998"
     inkscape:cy="49.505688"
     inkscape:document-units="mm"
     inkscape:current-layer="text1157"
     showgrid="false"
     units="px"
     width="128px"
     inkscape:window-width="1600"
     inkscape:window-height="814"
     inkscape:window-x="0"
     inkscape:window-y="0"
     inkscape:window-maximized="1"
     showguides="false" />
  <metadata
     id="metadata4939">
    <rdf:RDF>
      <cc:Work
         rdf:about="">
        <dc:format>image/svg+xml</dc:format>
        <dc:type
           rdf:resource="http://purl.org/dc/dcmitype/StillImage" />
        <dc:title></dc:title>
      </cc:Work>
    </rdf:RDF>
  </metadata>
  <g
     inkscape:label="Layer 1"
     inkscape:groupmode="layer"
     id="layer1"
     transform="translate(0,-263.13332)">
    <g
       aria-label="7z"
       style="font-style:normal;font-variant:normal;font-weight:normal;font-stretch:normal;font-size:27.69460678px;line-height:1.25;font-family:'Apple Braille';-inkscape-font-specification:'Apple Braille';letter-spacing:0px;word-spacing:0px;fill:#ffffff;fill-opacity:1;stroke:#ffffff;stroke-width:0.81880671;stroke-miterlimit:4;stroke-dasharray:none;stroke-opacity:1"
       id="text1157">
      <g
         id="g1204"
         transform="matrix(0.9843749,0,0,0.9843749,3.8403069,4.0141132)"
         style="stroke-width:0.83180374">
        <path
           style="opacity:0.25;fill:#000000;fill-opacity:1;stroke:none;stroke-width:0.30476195;stroke-miterlimit:4;stroke-dasharray:none;stroke-opacity:1"
           d="m 0.58980623,264.03019 v 33.3375 H 26.011878 v -18.70698 c -0.157134,-2.75337 -1.341318,-4.81456 -3.532592,-6.86065 -1.083749,-0.98879 -4.446527,-4.33959 -6.813487,-6.46311 -0.975487,-0.87516 -2.767663,-1.21747 -3.779048,-1.30676 z"
           id="path1132"
           inkscape:connector-curvature="0"
           sodipodi:nodetypes="cccccccc" />
        <path
           sodipodi:nodetypes="cccccccc"
           inkscape:connector-curvature="0"
           id="path4750"
           d="m 0.58980623,263.50102 v 33.3375 H 26.011878 v -18.70698 c -0.157134,-2.75337 -1.341318,-4.81456 -3.532592,-6.86065 -1.083749,-0.98879 -4.446527,-4.33959 -6.813487,-6.46311 -0.975487,-0.87516 -2.767663,-1.21747 -3.779048,-1.30676 z"
           style="opacity:1;fill:url(#linearGradient5320);fill-opacity:1;stroke:none;stroke-width:0.30476195;stroke-miterlimit:4;stroke-dasharray:none;stroke-opacity:1" />
        <path
           inkscape:connector-curvature="0"
           id="path4797"
           d="m 19.843976,268.74529 c -0.929756,0.7937 -1.997924,1.61206 -3.226889,2.4468 0.773054,0.70757 10.056786,7.67156 9.241503,15.68898 0.05722,-0.19575 0.108031,-0.49447 0.153311,-0.87625 v -7.87326 c -0.157139,-2.75337 -1.341321,-4.81456 -3.5326,-6.86065 -0.496599,-0.45308 -1.496758,-1.42598 -2.635325,-2.52562 z"
           style="opacity:0.1;fill:#000000;fill-opacity:1;stroke:none;stroke-width:0.30476195;stroke-miterlimit:4;stroke-dasharray:none;stroke-opacity:1" />
        <path
           sodipodi:nodetypes="cccc"
           inkscape:connector-curvature="0"
           id="path1012"
           d="m 15.485107,264.66001 c 0,0 1.934719,1.51255 1.13198,6.53208 0.441105,-0.0228 5.266812,-0.75018 7.496954,1.86784 -0.605106,-1.04124 -7.468268,-7.41273 -8.628934,-8.39992 z"
           style="fill:#d5ffd5;fill-opacity:1;stroke:none;stroke-width:0.2118787;stroke-linecap:round;stroke-linejoin:round;stroke-miterlimit:4;stroke-dasharray:none;stroke-opacity:1" />
        <g
           transform="matrix(0.20417951,0,0,0.20417951,27.391588,237.59457)"
           id="text5019"
           style="font-style:normal;font-weight:normal;font-size:28.19686127px;line-height:1.25;font-family:sans-serif;letter-spacing:0px;word-spacing:0px;fill:#ffffff;fill-opacity:1;stroke:none;stroke-width:2.3064878"
           aria-label="ZIP">
          <path
             inkscape:connector-curvature="0"
             id="path5021"
             style="font-style:normal;font-variant:normal;font-weight:bold;font-stretch:normal;font-family:Ubuntu;-inkscape-font-specification:'Ubuntu Bold';fill:#ffffff;stroke-width:2.3064878"
             d="m -75.098991,265.87468 q -0.9023,0.9305 -2.142962,2.42493 -1.240662,1.46624 -2.565914,3.21444 -1.325253,1.74821 -2.622308,3.6092 -1.297056,1.86099 -2.312143,3.5528 h 9.953492 v 3.69379 h -15.367289 v -2.62231 q 0.789512,-1.43804 1.917386,-3.18624 1.156072,-1.7764 2.396734,-3.55281 1.240661,-1.80459 2.50952,-3.46821 1.297056,-1.69181 2.396733,-3.01706 h -8.769223 v -3.69379 h 14.605974 z" />
          <path
             inkscape:connector-curvature="0"
             id="path5023"
             style="font-style:normal;font-variant:normal;font-weight:bold;font-stretch:normal;font-family:Ubuntu;-inkscape-font-specification:'Ubuntu Bold';fill:#ffffff;stroke-width:2.3064878"
             d="m -71.704794,262.82942 h 4.398711 v 19.54042 h -4.398711 z" />
          <path
             inkscape:connector-curvature="0"
             id="path5025"
             style="font-style:normal;font-variant:normal;font-weight:bold;font-stretch:normal;font-family:Ubuntu;-inkscape-font-specification:'Ubuntu Bold';fill:#ffffff;stroke-width:2.3064878"
             d="m -56.918183,262.60384 q 4.370513,0 6.710853,1.55083 2.340339,1.52263 2.340339,5.01904 0,3.52461 -2.368536,5.10363 -2.368537,1.55083 -6.767247,1.55083 h -1.381646 v 6.54167 h -4.39871 v -19.25845 q 1.438039,-0.28197 3.045261,-0.39476 1.607221,-0.11279 2.819686,-0.11279 z m 0.281968,3.75019 q -0.479346,0 -0.958693,0.0282 -0.45115,0.0282 -0.789512,0.0564 v 5.63937 h 1.381646 q 2.283946,0 3.440017,-0.62033 1.156071,-0.62033 1.156071,-2.31215 0,-0.8177 -0.310165,-1.35344 -0.281969,-0.53575 -0.845906,-0.84591 -0.53574,-0.33836 -1.325252,-0.45115 -0.789512,-0.14098 -1.748206,-0.14098 z" />
        </g>
        <g
           transform="matrix(0.25422046,0,0,0.25422046,70.83954,229.28435)"
           id="g6460"
           style="stroke-width:3.2719779">
          <path
             sodipodi:nodetypes="cccsscccccsssss"
             id="path3733"
             d="m -230.26654,198.68877 -1.3824,18.95214 -0.0476,0.54283 c -0.0169,0.1655 -0.0476,0.32782 -0.0476,0.49764 0,2.83838 2.44288,5.15646 5.43425,5.15646 2.99138,0 5.38658,-2.31808 5.38658,-5.15646 0,-0.14772 -1.1e-4,-0.27203 -1.5e-4,-0.36162 l -1.43006,-19.5855 -7.91304,-0.0445 z m 3.95652,17.68565 c 1.35254,0 2.43111,1.02351 2.43111,2.30696 0,1.28344 -1.07857,2.35201 -2.43111,2.35201 -1.35255,0 -2.47878,-1.06857 -2.47878,-2.35201 0,-1.28345 1.12623,-2.30696 2.47878,-2.30696 z"
             style="opacity:0.05;fill:#000000;fill-opacity:1;stroke:none;stroke-width:9.38507175"
             inkscape:connector-curvature="0" />
          <path
             inkscape:connector-curvature="0"
             style="opacity:0.1;fill:#000000;fill-opacity:1;stroke:none;stroke-width:9.38507175"
             d="m -230.26654,197.99336 -1.3824,18.95214 -0.0476,0.54283 c -0.0169,0.1655 -0.0476,0.32782 -0.0476,0.49764 0,2.83838 2.44288,5.15646 5.43425,5.15646 2.99138,0 5.38658,-2.31808 5.38658,-5.15646 0,-0.14773 -1.1e-4,-0.27203 -1.5e-4,-0.36161 l -1.43006,-19.58551 -7.91304,-0.0445 z m 3.95652,17.68565 c 1.35254,0 2.43111,1.02351 2.43111,2.30696 0,1.28344 -1.07857,2.35201 -2.43111,2.35201 -1.35255,0 -2.47878,-1.06857 -2.47878,-2.35201 0,-1.28345 1.12623,-2.30696 2.47878,-2.30696 z"
             id="path3731"
             sodipodi:nodetypes="cccsscccccsssss" />
          <path
             sodipodi:nodetypes="cccsscccccsssss"
             id="path3729"
             d="m -230.26654,197.29809 -1.3824,18.95214 -0.0476,0.54283 c -0.0169,0.1655 -0.0476,0.32782 -0.0476,0.49764 0,2.83838 2.44288,5.15646 5.43425,5.15646 2.99138,0 5.38658,-2.31808 5.38658,-5.15646 0,-0.14769 -1.1e-4,-0.27203 -1.5e-4,-0.36162 l -1.43008,-19.5855 -7.91303,-0.0445 z m 3.95652,17.68565 c 1.35254,0 2.43111,1.02351 2.43111,2.30696 0,1.28344 -1.07857,2.35201 -2.43111,2.35201 -1.35255,0 -2.47878,-1.06857 -2.47878,-2.35201 0,-1.28345 1.12623,-2.30696 2.47878,-2.30696 z"
             style="opacity:0.05;fill:#000000;fill-opacity:1;stroke:none;stroke-width:9.38507175"
             inkscape:connector-curvature="0" />
          <path
             style="opacity:1;fill:url(#linearGradient6006);fill-opacity:1;stroke:none;stroke-width:1.19880962;stroke-miterlimit:4;stroke-dasharray:none;stroke-opacity:1"
             d="m -232.85337,134.59449 v 4.17235 36.76985 19.38487 c 0,0.28814 0.0288,0.56911 0.0832,0.84077 0.0544,0.27167 0.13473,0.53381 0.2382,0.78342 0.10351,0.24961 0.22987,0.48703 0.37725,0.709 0.1474,0.22197 0.31575,0.42879 0.50178,0.61753 0.18603,0.18874 0.38984,0.35908 0.60926,0.50902 0.21944,0.14993 0.45421,0.27944 0.70178,0.38498 0.24757,0.10554 0.50776,0.18732 0.77824,0.24288 0.27049,0.0556 0.55108,0.0848 0.83923,0.0848 h 4.7811 c 0.28813,0 0.56875,-0.0292 0.83924,-0.0848 0.27045,-0.0556 0.53067,-0.13734 0.77824,-0.24288 0.24757,-0.10554 0.48234,-0.23505 0.70176,-0.38498 0.21941,-0.14994 0.42375,-0.32028 0.60978,-0.50902 0.18603,-0.18874 0.35388,-0.39556 0.50125,-0.61753 0.1474,-0.22197 0.27427,-0.45939 0.37778,-0.709 0.1035,-0.24961 0.18383,-0.51175 0.23823,-0.78342 0.0544,-0.27166 0.0827,-0.55263 0.0827,-0.84077 v -19.38487 -36.76985 -0.90278 c -3.88115,-2.07057 -8.93326,-2.99161 -12.08196,-3.26957 z"
             id="path5934"
             inkscape:connector-curvature="0" />
          <path
             inkscape:connector-curvature="0"
             style="opacity:0.2;fill:#000000;fill-opacity:1;stroke:none;stroke-width:9.38507175"
             d="m -229.91955,197.78989 -1.26043,18.21097 -0.0434,0.52155 c -0.0155,0.15911 -0.0434,0.31502 -0.0434,0.47817 0,2.72739 2.22734,4.95479 4.95479,4.95479 2.72745,0 4.91133,-2.2274 4.91133,-4.95479 0,-0.14188 -1e-4,-0.26134 -1.4e-4,-0.34743 l -1.30389,-18.81959 -7.21487,-0.0431 z m 3.60744,16.994 c 1.23321,0 2.21661,0.98344 2.21661,2.21669 0,1.23323 -0.9834,2.26007 -2.21661,2.26007 -1.23322,0 -2.26009,-1.02684 -2.26009,-2.26007 0,-1.23325 1.02687,-2.21669 2.26009,-2.21669 z"
             id="path3557"
             sodipodi:nodetypes="cccsscccccsssss" />
          <path
             inkscape:connector-curvature="0"
             style="fill:url(#linearGradient4412);fill-opacity:1;stroke:none;stroke-width:9.38507175"
             d="m -229.44146,197.78989 -1.34735,18.81944 v 0.39125 c 0,2.46759 2.00904,4.47663 4.4767,4.47663 2.46766,0 4.43323,-2.00904 4.43323,-4.47663 v -0.2608 l -1.30389,-18.9499 h -6.25869 z m 3.12935,16.55936 c 1.47924,0 2.65124,1.17205 2.65124,2.65133 0,1.47927 -1.172,2.6947 -2.65124,2.6947 -1.47925,0 -2.69471,-1.21543 -2.69471,-2.6947 0,-1.47928 1.21546,-2.65133 2.69471,-2.65133 z"
             id="path3551" />
          <path
             inkscape:connector-curvature="0"
             style="opacity:0.1;fill:#000000;fill-opacity:1;stroke:none;stroke-width:9.38507175"
             d="m -226.31211,194.76541 c -5.24331,0 -5.89706,0.77399 -3.27541,3.76147 0.0126,0.0152 0.0326,0.0224 0.0442,0.0376 0.0155,0.0209 -0.0144,0.0542 0,0.0765 0.0453,0.55299 0.54526,0.99791 1.19508,0.99791 h 4.02787 c 0.63214,0 1.08146,-0.4281 1.15082,-0.95967 0.036,-0.0598 0.0895,-0.10432 0.13272,-0.15353 2.62164,-2.98749 1.96788,-3.76133 -3.27542,-3.76133 z"
             id="path3757" />
          <path
             style="opacity:0.5;fill:url(#linearGradient4408);fill-opacity:1;stroke:none;stroke-width:9.38507175"
             d="m -224.89956,201.13651 c -0.13467,0.008 -0.23457,0.083 -0.21731,0.21731 l 1.91238,14.73398 c 0.0123,0.10981 0.0224,0.26829 0.0287,0.34371 0.24016,1.5762 -0.75414,3.10168 -2.33216,3.52451 -1.69258,0.45353 -3.45815,-0.56749 -3.91167,-2.26007 -0.14414,-0.53797 -0.14414,-1.07017 0,-1.60815 l -0.43463,-0.13039 c -0.16487,0.61534 -0.16487,1.25358 0,1.86892 0.51876,1.93604 2.54066,3.08307 4.4767,2.56432 1.64115,-0.43975 2.69068,-1.92116 2.65891,-3.54229 -0.001,-0.21532 0.0106,-0.42953 -0.008,-0.63017 l -1.91239,-14.86438 c -0.0172,-0.13412 -0.1261,-0.22524 -0.26079,-0.2173 z"
             id="path3702"
             inkscape:connector-curvature="0"
             sodipodi:nodetypes="scccssccsscccs" />
          <path
             inkscape:transform-center-y="0.098664007"
             inkscape:transform-center-x="0.15145334"
             transform="matrix(0.45980079,-0.1541287,0.12320324,0.5752161,-275.81112,190.36598)"
             d="m 96.781534,48.531534 c -2.381963,2.381964 -3.195419,2.163999 -4.067278,-1.089824 -0.871859,-3.253822 -0.276368,-3.849313 2.977454,-2.977454 3.253823,0.871859 3.471788,1.685315 1.089824,4.067278 z"
             inkscape:randomized="0"
             inkscape:rounded="0.8"
             inkscape:flatsided="true"
             sodipodi:arg2="1.8325957"
             sodipodi:arg1="0.78539816"
             sodipodi:r2="1.2155406"
             sodipodi:r1="2.4310813"
             sodipodi:cy="46.8125"
             sodipodi:cx="95.0625"
             sodipodi:sides="3"
             id="path3586"
             style="opacity:0.2;fill:#ffffff;stroke:none;stroke-width:3.2719779"
             sodipodi:type="star" />
          <path
             id="path3749"
             d="m -226.31211,194.44288 c -5.72729,0 -6.44138,0.87636 -3.57774,4.25938 0.0138,0.0167 0.0356,0.025 0.0483,0.0431 0.0169,0.0236 -0.0155,0.0612 0,0.0863 0.0495,0.62628 0.5956,1.13004 1.30539,1.13004 h 4.39967 c 0.69048,0 1.18128,-0.48471 1.25704,-1.08665 0.0393,-0.0682 0.0978,-0.11823 0.14497,-0.17384 2.86364,-3.38303 2.14952,-4.25939 -3.57775,-4.25939 z"
             style="opacity:0.1;fill:#000000;fill-opacity:1;stroke:none;stroke-width:9.38507175"
             inkscape:connector-curvature="0" />
          <g
             id="g3759"
             transform="matrix(1.3908187,0,0,1.3908187,-293.09316,-1202.8702)"
             style="stroke-width:3.2719779">
            <path
               sodipodi:nodetypes="cccsssssssscccccccc"
               inkscape:connector-curvature="0"
               id="path3616"
               d="m 48.81641,1005.4399 c 0,-0.2076 -0.18286,-0.3164 -0.33594,-0.3164 h -0.32031 v 0.062 c 0,0.1315 -0.0873,0.25 -0.21875,0.25 h -0.1875 c -0.1315,0 -0.21875,-0.1185 -0.21875,-0.25 v -0.4687 c 0,-0.1315 0.0873,-0.25 0.21875,-0.25 h 0.1875 c 0.1315,0 0.21875,0.1185 0.21875,0.25 v 0.062 h 0.33594 c 0.15056,0 0.32031,-0.1382 0.32031,-0.3086 0,-0.1914 0.15261,-0.3164 0.32813,-0.3164 h 1.57812 v 1.5937 H 49.1211 c -0.15943,0 -0.30469,-0.1616 -0.30469,-0.3086 z"
               style="fill:url(#linearGradient3799);fill-opacity:1;stroke:none;stroke-width:3.2719779" />
            <path
               sodipodi:nodetypes="cccsssssssscccccccc"
               inkscape:connector-curvature="0"
               id="rect3155"
               d="m 48.81641,963.63757 c 0,0.20757 -0.18286,0.31641 -0.33594,0.31641 h -0.32031 v -0.0625 c 0,-0.1315 -0.0873,-0.25 -0.21875,-0.25 h -0.1875 c -0.1315,0 -0.21875,0.1185 -0.21875,0.25 v 0.46875 c 0,0.1315 0.0873,0.25 0.21875,0.25 h 0.1875 c 0.1315,0 0.21875,-0.1185 0.21875,-0.25 v -0.0625 h 0.33594 c 0.15056,0 0.32031,0.13816 0.32031,0.30859 0,0.1914 0.15261,0.31641 0.32813,0.31641 h 1.57812 v -1.59375 H 49.1211 c -0.15943,0 -0.30469,0.16168 -0.30469,0.30859 z"
               style="fill:url(#linearGradient3801);fill-opacity:1;stroke:none;stroke-width:3.2719779" />
            <path
               style="fill:url(#linearGradient3803);fill-opacity:1;stroke:none;stroke-width:3.2719779"
               d="m 47.1836,964.78164 c 0,0.20757 0.18286,0.31641 0.33594,0.31641 h 0.32031 v -0.0625 c 0,-0.1315 0.0873,-0.25 0.21875,-0.25 h 0.1875 c 0.1315,0 0.21875,0.1185 0.21875,0.25 v 0.46875 c 0,0.1315 -0.0873,0.25 -0.21875,0.25 h -0.1875 c -0.1315,0 -0.21875,-0.1185 -0.21875,-0.25 v -0.0625 h -0.33594 c -0.15056,0 -0.32031,0.13816 -0.32031,0.30859 0,0.19141 -0.15261,0.31641 -0.32813,0.31641 h -1.57812 v -1.59375 h 1.60156 c 0.15943,0 0.30469,0.16168 0.30469,0.30859 z"
               id="path3165"
               inkscape:connector-curvature="0"
               sodipodi:nodetypes="cccsssssssscccccccc" />
            <path
               sodipodi:nodetypes="cccsssssssscccccccc"
               inkscape:connector-curvature="0"
               id="path3167"
               d="m 47.1836,962.51452 c 0,0.20757 0.18286,0.31641 0.33594,0.31641 h 0.32031 v -0.0625 c 0,-0.1315 0.0873,-0.25 0.21875,-0.25 h 0.1875 c 0.1315,0 0.21875,0.1185 0.21875,0.25 v 0.46875 c 0,0.1315 -0.0873,0.25 -0.21875,0.25 h -0.1875 c -0.1315,0 -0.21875,-0.1185 -0.21875,-0.25 v -0.0625 h -0.33594 c -0.15056,0 -0.32031,0.13816 -0.32031,0.30859 0,0.19141 -0.15261,0.31641 -0.32813,0.31641 h -1.57812 v -1.59375 h 1.60156 c 0.15943,0 0.30469,0.16168 0.30469,0.30859 z"
               style="fill:url(#linearGradient3805);fill-opacity:1;stroke:none;stroke-width:3.2719779" />
            <path
               style="fill:url(#linearGradient3807-8);fill-opacity:1;stroke:none;stroke-width:3.2719779"
               d="m 48.81641,968.17365 c 0,0.20757 -0.18286,0.31641 -0.33594,0.31641 h -0.32031 v -0.0625 c 0,-0.1315 -0.0873,-0.25 -0.21875,-0.25 h -0.1875 c -0.1315,0 -0.21875,0.1185 -0.21875,0.25 v 0.46875 c 0,0.1315 0.0873,0.25 0.21875,0.25 h 0.1875 c 0.1315,0 0.21875,-0.1185 0.21875,-0.25 v -0.0625 h 0.33594 c 0.15056,0 0.32031,0.13816 0.32031,0.30859 0,0.1914 0.15261,0.31641 0.32813,0.31641 h 1.57812 v -1.59375 H 49.1211 c -0.15943,0 -0.30469,0.16168 -0.30469,0.30859 z"
               id="path3169"
               inkscape:connector-curvature="0"
               sodipodi:nodetypes="cccsssssssscccccccc" />
            <path
               sodipodi:nodetypes="cccsssssssscccccccc"
               inkscape:connector-curvature="0"
               id="path3171"
               d="m 47.1836,969.31585 c 0,0.20758 0.18286,0.31642 0.33594,0.31642 h 0.32031 v -0.0625 c 0,-0.1315 0.0873,-0.25 0.21875,-0.25 h 0.1875 c 0.1315,0 0.21875,0.1185 0.21875,0.25 v 0.46875 c 0,0.13149 -0.0873,0.25 -0.21875,0.25 h -0.1875 c -0.1315,0 -0.21875,-0.11851 -0.21875,-0.25 v -0.0625 h -0.33594 c -0.15056,0 -0.32031,0.13815 -0.32031,0.30858 0,0.19142 -0.15261,0.31642 -0.32813,0.31642 h -1.57812 v -1.59375 h 1.60156 c 0.15943,0 0.30469,0.16168 0.30469,0.30858 z"
               style="fill:url(#linearGradient3809);fill-opacity:1;stroke:none;stroke-width:3.2719779" />
            <path
               style="fill:url(#linearGradient3811);fill-opacity:1;stroke:none;stroke-width:3.2719779"
               d="m 47.1836,967.04876 c 0,0.20757 0.18286,0.31641 0.33594,0.31641 h 0.32031 v -0.0625 c 0,-0.1315 0.0873,-0.25 0.21875,-0.25 h 0.1875 c 0.1315,0 0.21875,0.1185 0.21875,0.25 v 0.46875 c 0,0.13149 -0.0873,0.25 -0.21875,0.25 h -0.1875 c -0.1315,0 -0.21875,-0.11851 -0.21875,-0.25 v -0.0625 h -0.33594 c -0.15056,0 -0.32031,0.13815 -0.32031,0.30859 0,0.19141 -0.15261,0.31641 -0.32813,0.31641 h -1.57812 v -1.59375 h 1.60156 c 0.15943,0 0.30469,0.16168 0.30469,0.30859 z"
               id="path3173"
               inkscape:connector-curvature="0"
               sodipodi:nodetypes="cccsssssssscccccccc" />
            <path
               style="fill:url(#linearGradient3813);fill-opacity:1;stroke:none;stroke-width:3.2719779"
               d="m 48.81641,965.90561 c 0,0.20757 -0.18286,0.31641 -0.33594,0.31641 h -0.32031 v -0.0625 c 0,-0.1315 -0.0873,-0.25 -0.21875,-0.25 h -0.1875 c -0.1315,0 -0.21875,0.1185 -0.21875,0.25 v 0.46875 c 0,0.1315 0.0873,0.25 0.21875,0.25 h 0.1875 c 0.1315,0 0.21875,-0.1185 0.21875,-0.25 v -0.0625 h 0.33594 c 0.15056,0 0.32031,0.13816 0.32031,0.30859 0,0.1914 0.15261,0.31641 0.32813,0.31641 h 1.57812 v -1.59375 H 49.1211 c -0.15943,0 -0.30469,0.16168 -0.30469,0.30859 z"
               id="path3175"
               inkscape:connector-curvature="0"
               sodipodi:nodetypes="cccsssssssscccccccc" />
            <path
               style="fill:url(#linearGradient3815);fill-opacity:1;stroke:none;stroke-width:3.2719779"
               d="m 48.81641,972.70974 c 0,0.20757 -0.18286,0.31641 -0.33594,0.31641 h -0.32031 v -0.0625 c 0,-0.1315 -0.0873,-0.25 -0.21875,-0.25 h -0.1875 c -0.1315,0 -0.21875,0.1185 -0.21875,0.25 v 0.46875 c 0,0.1315 0.0873,0.25 0.21875,0.25 h 0.1875 c 0.1315,0 0.21875,-0.1185 0.21875,-0.25 v -0.0625 h 0.33594 c 0.15056,0 0.32031,0.13816 0.32031,0.30859 0,0.1914 0.15261,0.31641 0.32813,0.31641 h 1.57812 v -1.59375 H 49.1211 c -0.15943,0 -0.30469,0.16168 -0.30469,0.30859 z"
               id="path3203"
               inkscape:connector-curvature="0"
               sodipodi:nodetypes="cccsssssssscccccccc" />
            <path
               sodipodi:nodetypes="cccsssssssscccccccc"
               inkscape:connector-curvature="0"
               id="path3205"
               d="m 47.1836,973.85011 c 0,0.20757 0.18286,0.31641 0.33594,0.31641 h 0.32031 v -0.0625 c 0,-0.1315 0.0873,-0.25 0.21875,-0.25 h 0.1875 c 0.1315,0 0.21875,0.1185 0.21875,0.25 v 0.46875 c 0,0.1315 -0.0873,0.25 -0.21875,0.25 h -0.1875 c -0.1315,0 -0.21875,-0.1185 -0.21875,-0.25 v -0.0625 h -0.33594 c -0.15056,0 -0.32031,0.13816 -0.32031,0.30859 0,0.19141 -0.15261,0.31641 -0.32813,0.31641 h -1.57812 v -1.59375 h 1.60156 c 0.15943,0 0.30469,0.16168 0.30469,0.30859 z"
               style="fill:url(#linearGradient3817);fill-opacity:1;stroke:none;stroke-width:3.2719779" />
            <path
               style="fill:url(#linearGradient3819);fill-opacity:1;stroke:none;stroke-width:3.2719779"
               d="m 47.1836,971.58298 c 0,0.20757 0.18286,0.31641 0.33594,0.31641 h 0.32031 v -0.0625 c 0,-0.1315 0.0873,-0.25 0.21875,-0.25 h 0.1875 c 0.1315,0 0.21875,0.1185 0.21875,0.25 v 0.46875 c 0,0.1315 -0.0873,0.25 -0.21875,0.25 h -0.1875 c -0.1315,0 -0.21875,-0.1185 -0.21875,-0.25 v -0.0625 h -0.33594 c -0.15056,0 -0.32031,0.13816 -0.32031,0.30859 0,0.19141 -0.15261,0.31641 -0.32813,0.31641 h -1.57812 v -1.59375 h 1.60156 c 0.15943,0 0.30469,0.16168 0.30469,0.30859 z"
               id="path3207"
               inkscape:connector-curvature="0"
               sodipodi:nodetypes="cccsssssssscccccccc" />
            <path
               sodipodi:nodetypes="cccsssssssscccccccc"
               inkscape:connector-curvature="0"
               id="path3209"
               d="m 48.81641,977.24583 c 0,0.20757 -0.18286,0.31641 -0.33594,0.31641 h -0.32031 v -0.0625 c 0,-0.1315 -0.0873,-0.25 -0.21875,-0.25 h -0.1875 c -0.1315,0 -0.21875,0.1185 -0.21875,0.25 v 0.46875 c 0,0.1315 0.0873,0.25 0.21875,0.25 h 0.1875 c 0.1315,0 0.21875,-0.1185 0.21875,-0.25 v -0.0625 h 0.33594 c 0.15056,0 0.32031,0.13816 0.32031,0.30859 0,0.1914 0.15261,0.31641 0.32813,0.31641 h 1.57812 v -1.59375 H 49.1211 c -0.15943,0 -0.30469,0.16168 -0.30469,0.30859 z"
               style="fill:url(#linearGradient3821);fill-opacity:1;stroke:none;stroke-width:3.2719779" />
            <path
               style="fill:url(#linearGradient3823);fill-opacity:1;stroke:none;stroke-width:3.2719779"
               d="m 47.1836,978.38433 c 0,0.20758 0.18286,0.31642 0.33594,0.31642 h 0.32031 v -0.0625 c 0,-0.1315 0.0873,-0.25 0.21875,-0.25 h 0.1875 c 0.1315,0 0.21875,0.1185 0.21875,0.25 v 0.46875 c 0,0.13149 -0.0873,0.25 -0.21875,0.25 h -0.1875 c -0.1315,0 -0.21875,-0.11851 -0.21875,-0.25 v -0.0625 h -0.33594 c -0.15056,0 -0.32031,0.13815 -0.32031,0.30858 0,0.19142 -0.15261,0.31642 -0.32813,0.31642 h -1.57812 v -1.59375 h 1.60156 c 0.15943,0 0.30469,0.16168 0.30469,0.30858 z"
               id="path3211"
               inkscape:connector-curvature="0"
               sodipodi:nodetypes="cccsssssssscccccccc" />
            <path
               sodipodi:nodetypes="cccsssssssscccccccc"
               inkscape:connector-curvature="0"
               id="path3213"
               d="m 47.1836,976.11722 c 0,0.20757 0.18286,0.31641 0.33594,0.31641 h 0.32031 v -0.0625 c 0,-0.1315 0.0873,-0.25 0.21875,-0.25 h 0.1875 c 0.1315,0 0.21875,0.1185 0.21875,0.25 v 0.46875 c 0,0.13149 -0.0873,0.25 -0.21875,0.25 h -0.1875 c -0.1315,0 -0.21875,-0.11851 -0.21875,-0.25 v -0.0625 h -0.33594 c -0.15056,0 -0.32031,0.13815 -0.32031,0.30859 0,0.19141 -0.15261,0.31641 -0.32813,0.31641 h -1.57812 v -1.59375 h 1.60156 c 0.15943,0 0.30469,0.16168 0.30469,0.30859 z"
               style="fill:url(#linearGradient3825);fill-opacity:1;stroke:none;stroke-width:3.2719779" />
            <path
               sodipodi:nodetypes="cccsssssssscccccccc"
               inkscape:connector-curvature="0"
               id="path3215"
               d="m 48.81641,974.97777 c 0,0.20757 -0.18286,0.31641 -0.33594,0.31641 h -0.32031 v -0.0625 c 0,-0.1315 -0.0873,-0.25 -0.21875,-0.25 h -0.1875 c -0.1315,0 -0.21875,0.1185 -0.21875,0.25 v 0.46875 c 0,0.1315 0.0873,0.25 0.21875,0.25 h 0.1875 c 0.1315,0 0.21875,-0.1185 0.21875,-0.25 v -0.0625 h 0.33594 c 0.15056,0 0.32031,0.13816 0.32031,0.30859 0,0.1914 0.15261,0.31641 0.32813,0.31641 h 1.57812 v -1.59375 H 49.1211 c -0.15943,0 -0.30469,0.16168 -0.30469,0.30859 z"
               style="fill:url(#linearGradient3827);fill-opacity:1;stroke:none;stroke-width:3.2719779" />
            <path
               sodipodi:nodetypes="cccsssssssscccccccc"
               inkscape:connector-curvature="0"
               id="path3231"
               d="m 48.81641,970.4417 c 0,0.20757 -0.18286,0.31641 -0.33594,0.31641 h -0.32031 v -0.0625 c 0,-0.1315 -0.0873,-0.25 -0.21875,-0.25 h -0.1875 c -0.1315,0 -0.21875,0.1185 -0.21875,0.25 v 0.46875 c 0,0.1315 0.0873,0.25 0.21875,0.25 h 0.1875 c 0.1315,0 0.21875,-0.1185 0.21875,-0.25 v -0.0625 h 0.33594 c 0.15056,0 0.32031,0.13816 0.32031,0.30859 0,0.1914 0.15261,0.31641 0.32813,0.31641 h 1.57812 v -1.59375 H 49.1211 c -0.15943,0 -0.30469,0.16168 -0.30469,0.30859 z"
               style="fill:url(#linearGradient3829);fill-opacity:1;stroke:none;stroke-width:3.2719779" />
            <path
               style="fill:url(#linearGradient3831);fill-opacity:1;stroke:none;stroke-width:3.2719779"
               d="m 48.81641,979.51387 c 0,0.20757 -0.18286,0.31641 -0.33594,0.31641 h -0.32031 v -0.0625 c 0,-0.1315 -0.0873,-0.25 -0.21875,-0.25 h -0.1875 c -0.1315,0 -0.21875,0.1185 -0.21875,0.25 v 0.46875 c 0,0.1315 0.0873,0.25 0.21875,0.25 h 0.1875 c 0.1315,0 0.21875,-0.1185 0.21875,-0.25 v -0.0625 h 0.33594 c 0.15056,0 0.32031,0.13816 0.32031,0.30859 0,0.1914 0.15261,0.31641 0.32813,0.31641 h 1.57812 v -1.59375 H 49.1211 c -0.15943,0 -0.30469,0.16168 -0.30469,0.30859 z"
               id="path3235"
               inkscape:connector-curvature="0"
               sodipodi:nodetypes="cccsssssssscccccccc" />
            <path
               style="fill:url(#linearGradient3833);fill-opacity:1;stroke:none;stroke-width:3.2719779"
               d="m 48.81641,981.78191 c 0,0.20757 -0.18286,0.31641 -0.33594,0.31641 h -0.32031 v -0.0625 c 0,-0.1315 -0.0873,-0.25 -0.21875,-0.25 h -0.1875 c -0.1315,0 -0.21875,0.1185 -0.21875,0.25 v 0.46875 c 0,0.1315 0.0873,0.25 0.21875,0.25 h 0.1875 c 0.1315,0 0.21875,-0.1185 0.21875,-0.25 v -0.0625 h 0.33594 c 0.15056,0 0.32031,0.13816 0.32031,0.30859 0,0.1914 0.15261,0.31641 0.32813,0.31641 h 1.57812 v -1.59375 H 49.1211 c -0.15943,0 -0.30469,0.16168 -0.30469,0.30859 z"
               id="path3239"
               inkscape:connector-curvature="0"
               sodipodi:nodetypes="cccsssssssscccccccc" />
            <path
               sodipodi:nodetypes="cccsssssssscccccccc"
               inkscape:connector-curvature="0"
               id="path3241"
               d="m 47.1836,982.91857 c 0,0.20757 0.18286,0.31641 0.33594,0.31641 h 0.32031 v -0.0625 c 0,-0.1315 0.0873,-0.25 0.21875,-0.25 h 0.1875 c 0.1315,0 0.21875,0.1185 0.21875,0.25 v 0.46875 c 0,0.1315 -0.0873,0.25 -0.21875,0.25 h -0.1875 c -0.1315,0 -0.21875,-0.1185 -0.21875,-0.25 v -0.0625 h -0.33594 c -0.15056,0 -0.32031,0.13816 -0.32031,0.30859 0,0.19141 -0.15261,0.31641 -0.32813,0.31641 h -1.57812 v -1.59375 h 1.60156 c 0.15943,0 0.30469,0.16168 0.30469,0.30859 z"
               style="fill:url(#linearGradient3835);fill-opacity:1;stroke:none;stroke-width:3.2719779" />
            <path
               style="fill:url(#linearGradient3837);fill-opacity:1;stroke:none;stroke-width:3.2719779"
               d="m 47.1836,980.65145 c 0,0.20757 0.18286,0.31641 0.33594,0.31641 h 0.32031 v -0.0625 c 0,-0.1315 0.0873,-0.25 0.21875,-0.25 h 0.1875 c 0.1315,0 0.21875,0.1185 0.21875,0.25 v 0.46875 c 0,0.1315 -0.0873,0.25 -0.21875,0.25 h -0.1875 c -0.1315,0 -0.21875,-0.1185 -0.21875,-0.25 v -0.0625 h -0.33594 c -0.15056,0 -0.32031,0.13816 -0.32031,0.30859 0,0.19141 -0.15261,0.31641 -0.32813,0.31641 h -1.57812 v -1.59375 h 1.60156 c 0.15943,0 0.30469,0.16168 0.30469,0.30859 z"
               id="path3243"
               inkscape:connector-curvature="0"
               sodipodi:nodetypes="cccsssssssscccccccc" />
            <path
               sodipodi:nodetypes="cccsssssssscccccccc"
               inkscape:connector-curvature="0"
               id="path3245"
               d="m 48.81641,986.31799 c 0,0.20757 -0.18286,0.31641 -0.33594,0.31641 h -0.32031 v -0.0625 c 0,-0.1315 -0.0873,-0.25 -0.21875,-0.25 h -0.1875 c -0.1315,0 -0.21875,0.1185 -0.21875,0.25 v 0.46875 c 0,0.1315 0.0873,0.25 0.21875,0.25 h 0.1875 c 0.1315,0 0.21875,-0.1185 0.21875,-0.25 v -0.0625 h 0.33594 c 0.15056,0 0.32031,0.13816 0.32031,0.30859 0,0.1914 0.15261,0.31641 0.32813,0.31641 h 1.57812 V 986.0094 H 49.1211 c -0.15943,0 -0.30469,0.16168 -0.30469,0.30859 z"
               style="fill:url(#linearGradient3839);fill-opacity:1;stroke:none;stroke-width:3.2719779" />
            <path
               style="fill:url(#linearGradient3841);fill-opacity:1;stroke:none;stroke-width:3.2719779"
               d="m 47.1836,987.45279 c 0,0.20758 0.18286,0.31642 0.33594,0.31642 h 0.32031 v -0.0625 c 0,-0.1315 0.0873,-0.25 0.21875,-0.25 h 0.1875 c 0.1315,0 0.21875,0.1185 0.21875,0.25 v 0.46875 c 0,0.13149 -0.0873,0.25 -0.21875,0.25 h -0.1875 c -0.1315,0 -0.21875,-0.11851 -0.21875,-0.25 v -0.0625 h -0.33594 c -0.15056,0 -0.32031,0.13815 -0.32031,0.30858 0,0.19142 -0.15261,0.31642 -0.32813,0.31642 h -1.57812 v -1.59375 h 1.60156 c 0.15943,0 0.30469,0.16168 0.30469,0.30858 z"
               id="path3247"
               inkscape:connector-curvature="0"
               sodipodi:nodetypes="cccsssssssscccccccc" />
            <path
               sodipodi:nodetypes="cccsssssssscccccccc"
               inkscape:connector-curvature="0"
               id="path3249"
               d="m 47.1836,985.18569 c 0,0.20757 0.18286,0.31641 0.33594,0.31641 h 0.32031 v -0.0625 c 0,-0.1315 0.0873,-0.25 0.21875,-0.25 h 0.1875 c 0.1315,0 0.21875,0.1185 0.21875,0.25 v 0.46875 c 0,0.13149 -0.0873,0.25 -0.21875,0.25 h -0.1875 c -0.1315,0 -0.21875,-0.11851 -0.21875,-0.25 v -0.0625 h -0.33594 c -0.15056,0 -0.32031,0.13815 -0.32031,0.30859 0,0.19141 -0.15261,0.31641 -0.32813,0.31641 h -1.57812 v -1.59375 h 1.60156 c 0.15943,0 0.30469,0.16168 0.30469,0.30859 z"
               style="fill:url(#linearGradient3843);fill-opacity:1;stroke:none;stroke-width:3.2719779" />
            <path
               sodipodi:nodetypes="cccsssssssscccccccc"
               inkscape:connector-curvature="0"
               id="path3251"
               d="m 48.81641,984.04995 c 0,0.20757 -0.18286,0.31641 -0.33594,0.31641 h -0.32031 v -0.0625 c 0,-0.1315 -0.0873,-0.25 -0.21875,-0.25 h -0.1875 c -0.1315,0 -0.21875,0.1185 -0.21875,0.25 v 0.46875 c 0,0.1315 0.0873,0.25 0.21875,0.25 h 0.1875 c 0.1315,0 0.21875,-0.1185 0.21875,-0.25 v -0.0625 h 0.33594 c 0.15056,0 0.32031,0.13816 0.32031,0.30859 0,0.1914 0.15261,0.31641 0.32813,0.31641 h 1.57812 v -1.59375 H 49.1211 c -0.15943,0 -0.30469,0.16168 -0.30469,0.30859 z"
               style="fill:url(#linearGradient3845);fill-opacity:1;stroke:none;stroke-width:3.2719779" />
            <path
               sodipodi:nodetypes="cccsssssssscccccccc"
               inkscape:connector-curvature="0"
               id="path3253"
               d="m 48.81641,990.85408 c 0,0.20757 -0.18286,0.31641 -0.33594,0.31641 h -0.32031 v -0.0625 c 0,-0.1315 -0.0873,-0.25 -0.21875,-0.25 h -0.1875 c -0.1315,0 -0.21875,0.1185 -0.21875,0.25 v 0.46875 c 0,0.1315 0.0873,0.25 0.21875,0.25 h 0.1875 c 0.1315,0 0.21875,-0.1185 0.21875,-0.25 v -0.0625 h 0.33594 c 0.15056,0 0.32031,0.13816 0.32031,0.30859 0,0.1914 0.15261,0.31641 0.32813,0.31641 h 1.57812 v -1.59375 H 49.1211 c -0.15943,0 -0.30469,0.16168 -0.30469,0.30859 z"
               style="fill:url(#linearGradient3847);fill-opacity:1;stroke:none;stroke-width:3.2719779" />
            <path
               style="fill:url(#linearGradient3849);fill-opacity:1;stroke:none;stroke-width:3.2719779"
               d="m 47.1836,991.98703 c 0,0.20757 0.18286,0.31641 0.33594,0.31641 h 0.32031 v -0.0625 c 0,-0.1315 0.0873,-0.25 0.21875,-0.25 h 0.1875 c 0.1315,0 0.21875,0.1185 0.21875,0.25 v 0.46875 c 0,0.1315 -0.0873,0.25 -0.21875,0.25 h -0.1875 c -0.1315,0 -0.21875,-0.1185 -0.21875,-0.25 v -0.0625 h -0.33594 c -0.15056,0 -0.32031,0.13816 -0.32031,0.30859 0,0.19141 -0.15261,0.31641 -0.32813,0.31641 h -1.57812 v -1.59375 h 1.60156 c 0.15943,0 0.30469,0.16168 0.30469,0.30859 z"
               id="path3255"
               inkscape:connector-curvature="0"
               sodipodi:nodetypes="cccsssssssscccccccc" />
            <path
               sodipodi:nodetypes="cccsssssssscccccccc"
               inkscape:connector-curvature="0"
               id="path3257"
               d="m 47.1836,989.71992 c 0,0.20757 0.18286,0.31641 0.33594,0.31641 h 0.32031 v -0.0625 c 0,-0.1315 0.0873,-0.25 0.21875,-0.25 h 0.1875 c 0.1315,0 0.21875,0.1185 0.21875,0.25 v 0.46875 c 0,0.1315 -0.0873,0.25 -0.21875,0.25 h -0.1875 c -0.1315,0 -0.21875,-0.1185 -0.21875,-0.25 v -0.0625 h -0.33594 c -0.15056,0 -0.32031,0.13816 -0.32031,0.30859 0,0.19141 -0.15261,0.31641 -0.32813,0.31641 h -1.57812 v -1.59375 h 1.60156 c 0.15943,0 0.30469,0.16168 0.30469,0.30859 z"
               style="fill:url(#linearGradient3851);fill-opacity:1;stroke:none;stroke-width:3.2719779" />
            <path
               style="fill:url(#linearGradient3853);fill-opacity:1;stroke:none;stroke-width:3.2719779"
               d="m 48.81641,995.39016 c 0,0.20757 -0.18286,0.31641 -0.33594,0.31641 h -0.32031 v -0.0625 c 0,-0.1315 -0.0873,-0.25 -0.21875,-0.25 h -0.1875 c -0.1315,0 -0.21875,0.1185 -0.21875,0.25 v 0.46875 c 0,0.1315 0.0873,0.25 0.21875,0.25 h 0.1875 c 0.1315,0 0.21875,-0.1185 0.21875,-0.25 v -0.0625 h 0.33594 c 0.15056,0 0.32031,0.13816 0.32031,0.30859 0,0.1914 0.15261,0.31641 0.32813,0.31641 h 1.57812 v -1.59375 H 49.1211 c -0.15943,0 -0.30469,0.16168 -0.30469,0.30859 z"
               id="path3259"
               inkscape:connector-curvature="0"
               sodipodi:nodetypes="cccsssssssscccccccc" />
            <path
               sodipodi:nodetypes="cccsssssssscccccccc"
               inkscape:connector-curvature="0"
               id="path3261"
               d="m 47.1836,996.52125 c 0,0.20758 0.18286,0.31642 0.33594,0.31642 h 0.32031 v -0.0625 c 0,-0.1315 0.0873,-0.25 0.21875,-0.25 h 0.1875 c 0.1315,0 0.21875,0.1185 0.21875,0.25 v 0.46875 c 0,0.13149 -0.0873,0.25 -0.21875,0.25 h -0.1875 c -0.1315,0 -0.21875,-0.11851 -0.21875,-0.25 v -0.0625 h -0.33594 c -0.15056,0 -0.32031,0.13815 -0.32031,0.30858 0,0.19142 -0.15261,0.31642 -0.32813,0.31642 h -1.57812 v -1.59375 h 1.60156 c 0.15943,0 0.30469,0.16168 0.30469,0.30858 z"
               style="fill:url(#linearGradient3855);fill-opacity:1;stroke:none;stroke-width:3.2719779" />
            <path
               style="fill:url(#linearGradient3857);fill-opacity:1;stroke:none;stroke-width:3.2719779"
               d="m 47.1836,994.25415 c 0,0.20757 0.18286,0.31641 0.33594,0.31641 h 0.32031 v -0.0625 c 0,-0.1315 0.0873,-0.25 0.21875,-0.25 h 0.1875 c 0.1315,0 0.21875,0.1185 0.21875,0.25 v 0.46875 c 0,0.13149 -0.0873,0.25 -0.21875,0.25 h -0.1875 c -0.1315,0 -0.21875,-0.11851 -0.21875,-0.25 v -0.0625 h -0.33594 c -0.15056,0 -0.32031,0.13815 -0.32031,0.30859 0,0.19141 -0.15261,0.31641 -0.32813,0.31641 h -1.57812 v -1.59375 h 1.60156 c 0.15943,0 0.30469,0.16168 0.30469,0.30859 z"
               id="path3263"
               inkscape:connector-curvature="0"
               sodipodi:nodetypes="cccsssssssscccccccc" />
            <path
               style="fill:url(#linearGradient3859);fill-opacity:1;stroke:none;stroke-width:3.2719779"
               d="m 48.81641,993.12212 c 0,0.20757 -0.18286,0.31641 -0.33594,0.31641 h -0.32031 v -0.0625 c 0,-0.1315 -0.0873,-0.25 -0.21875,-0.25 h -0.1875 c -0.1315,0 -0.21875,0.1185 -0.21875,0.25 v 0.46875 c 0,0.1315 0.0873,0.25 0.21875,0.25 h 0.1875 c 0.1315,0 0.21875,-0.1185 0.21875,-0.25 v -0.0625 h 0.33594 c 0.15056,0 0.32031,0.13816 0.32031,0.30859 0,0.1914 0.15261,0.31641 0.32813,0.31641 h 1.57812 v -1.59375 H 49.1211 c -0.15943,0 -0.30469,0.16168 -0.30469,0.30859 z"
               id="path3265"
               inkscape:connector-curvature="0"
               sodipodi:nodetypes="cccsssssssscccccccc" />
            <path
               style="fill:url(#linearGradient3861);fill-opacity:1;stroke:none;stroke-width:3.2719779"
               d="m 48.81641,988.58604 c 0,0.20757 -0.18286,0.31641 -0.33594,0.31641 h -0.32031 v -0.0625 c 0,-0.1315 -0.0873,-0.25 -0.21875,-0.25 h -0.1875 c -0.1315,0 -0.21875,0.1185 -0.21875,0.25 v 0.46875 c 0,0.1315 0.0873,0.25 0.21875,0.25 h 0.1875 c 0.1315,0 0.21875,-0.1185 0.21875,-0.25 v -0.0625 h 0.33594 c 0.15056,0 0.32031,0.13816 0.32031,0.30859 0,0.1914 0.15261,0.31641 0.32813,0.31641 h 1.57812 v -1.59375 H 49.1211 c -0.15943,0 -0.30469,0.16168 -0.30469,0.30859 z"
               id="path3267"
               inkscape:connector-curvature="0"
               sodipodi:nodetypes="cccsssssssscccccccc" />
            <path
               sodipodi:nodetypes="cccsssssssscccccccc"
               inkscape:connector-curvature="0"
               id="path3269"
               d="m 48.81641,997.6582 c 0,0.20757 -0.18286,0.31641 -0.33594,0.31641 h -0.32031 v -0.0625 c 0,-0.1315 -0.0873,-0.25 -0.21875,-0.25 h -0.1875 c -0.1315,0 -0.21875,0.1185 -0.21875,0.25 v 0.46875 c 0,0.1315 0.0873,0.25 0.21875,0.25 h 0.1875 c 0.1315,0 0.21875,-0.1185 0.21875,-0.25 v -0.0625 h 0.33594 c 0.15056,0 0.32031,0.13816 0.32031,0.30859 0,0.1914 0.15261,0.31641 0.32813,0.31641 h 1.57812 v -1.59375 H 49.1211 c -0.15943,0 -0.30469,0.16168 -0.30469,0.30859 z"
               style="fill:url(#linearGradient3863);fill-opacity:1;stroke:none;stroke-width:3.2719779" />
            <path
               style="fill:url(#linearGradient3865);fill-opacity:1;stroke:none;stroke-width:3.2719779"
               d="m 48.81641,999.92525 c 0,0.20765 -0.18286,0.31645 -0.33594,0.31645 h -0.32031 v -0.062 c 0,-0.1315 -0.0873,-0.25004 -0.21875,-0.25004 h -0.1875 c -0.1315,0 -0.21875,0.11854 -0.21875,0.25004 v 0.4687 c 0,0.1315 0.0873,0.25 0.21875,0.25 h 0.1875 c 0.1315,0 0.21875,-0.1185 0.21875,-0.25 v -0.062 h 0.33594 c 0.15056,0 0.32031,0.1382 0.32031,0.3086 0,0.1914 0.15261,0.3164 0.32813,0.3164 h 1.57812 v -1.59374 H 49.1211 c -0.15943,0 -0.30469,0.16168 -0.30469,0.30859 z"
               id="path3303"
               inkscape:connector-curvature="0"
               sodipodi:nodetypes="cccsssssssscccccccc" />
            <path
               sodipodi:nodetypes="cccsssssssscccccccc"
               inkscape:connector-curvature="0"
               id="path3305"
               d="m 47.1836,1001.0545 c 0,0.2076 0.18286,0.3164 0.33594,0.3164 h 0.32031 v -0.062 c 0,-0.1315 0.0873,-0.25 0.21875,-0.25 h 0.1875 c 0.1315,0 0.21875,0.1185 0.21875,0.25 v 0.4688 c 0,0.1315 -0.0873,0.25 -0.21875,0.25 h -0.1875 c -0.1315,0 -0.21875,-0.1185 -0.21875,-0.25 v -0.062 h -0.33594 c -0.15056,0 -0.32031,0.1381 -0.32031,0.3086 0,0.1914 -0.15261,0.3164 -0.32813,0.3164 h -1.57812 v -1.5938 h 1.60156 c 0.15943,0 0.30469,0.1617 0.30469,0.3086 z"
               style="fill:url(#linearGradient3867);fill-opacity:1;stroke:none;stroke-width:3.2719779" />
            <path
               style="fill:url(#linearGradient3869);fill-opacity:1;stroke:none;stroke-width:3.2719779"
               d="m 47.1836,998.78837 c 0,0.20757 0.18286,0.31641 0.33594,0.31641 h 0.32031 v -0.0625 c 0,-0.1315 0.0873,-0.25 0.21875,-0.25 h 0.1875 c 0.1315,0 0.21875,0.1185 0.21875,0.25 v 0.46875 c 0,0.1315 -0.0873,0.25 -0.21875,0.25 h -0.1875 c -0.1315,0 -0.21875,-0.1185 -0.21875,-0.25 v -0.0625 h -0.33594 c -0.15056,0 -0.32031,0.13816 -0.32031,0.30859 0,0.19141 -0.15261,0.31638 -0.32813,0.31638 h -1.57812 v -1.59372 h 1.60156 c 0.15943,0 0.30469,0.16168 0.30469,0.30859 z"
               id="path3307"
               inkscape:connector-curvature="0"
               sodipodi:nodetypes="cccsssssssscccccccc" />
            <path
               sodipodi:nodetypes="cccsssssssscccccccc"
               inkscape:connector-curvature="0"
               id="path3309"
               d="m 47.1836,1003.3216 c 0,0.2076 0.18286,0.3164 0.33594,0.3164 h 0.32031 v -0.062 c 0,-0.1315 0.0873,-0.25 0.21875,-0.25 h 0.1875 c 0.1315,0 0.21875,0.1185 0.21875,0.25 v 0.4688 c 0,0.1315 -0.0873,0.25 -0.21875,0.25 h -0.1875 c -0.1315,0 -0.21875,-0.1185 -0.21875,-0.25 v -0.062 h -0.33594 c -0.15056,0 -0.32031,0.1381 -0.32031,0.3086 0,0.1914 -0.15261,0.3164 -0.32813,0.3164 h -1.57812 v -1.5938 h 1.60156 c 0.15943,0 0.30469,0.1617 0.30469,0.3086 z"
               style="fill:url(#linearGradient3871);fill-opacity:1;stroke:none;stroke-width:3.2719779" />
            <path
               sodipodi:nodetypes="cccsssssssscccccccc"
               inkscape:connector-curvature="0"
               id="path3311"
               d="m 48.81641,1002.1933 c 0,0.2076 -0.18286,0.3164 -0.33594,0.3164 h -0.32031 v -0.062 c 0,-0.1315 -0.0873,-0.25 -0.21875,-0.25 h -0.1875 c -0.1315,0 -0.21875,0.1185 -0.21875,0.25 v 0.4688 c 0,0.1315 0.0873,0.25 0.21875,0.25 h 0.1875 c 0.1315,0 0.21875,-0.1185 0.21875,-0.25 v -0.062 h 0.33594 c 0.15056,0 0.32031,0.1381 0.32031,0.3086 0,0.1914 0.15261,0.3164 0.32813,0.3164 h 1.57812 v -1.5938 H 49.1211 c -0.15943,0 -0.30469,0.1617 -0.30469,0.3086 z"
               style="fill:url(#linearGradient3873);fill-opacity:1;stroke:none;stroke-width:3.2719779" />
          </g>
          <path
             inkscape:connector-curvature="0"
             style="fill:url(#linearGradient4403);fill-opacity:1;stroke:none;stroke-width:9.38507175"
             d="m -226.31211,193.74775 c -5.14863,0 -5.79058,0.87635 -3.21627,4.25939 0.0126,0.0167 0.032,0.025 0.0434,0.0431 0.0152,0.0236 -0.014,0.0612 0,0.0862 0.0445,0.6263 0.53542,1.13004 1.1735,1.13004 h 3.95514 c 0.62072,0 1.06193,-0.48469 1.13004,-1.08665 0.0353,-0.0682 0.0879,-0.11819 0.13031,-0.17384 2.57431,-3.38303 1.93235,-4.25938 -3.21627,-4.25938 z"
             id="path3568" />
          <path
             style="fill:url(#linearGradient4400);fill-opacity:1;stroke:none;stroke-width:9.38507175"
             d="m -227.68486,200.9305 c 0.13467,0.008 0.24559,0.12317 0.22875,0.25746 l -1.91392,15.24097 c -0.0163,0.13418 -0.12276,0.23673 -0.25743,0.22878 -0.13467,-0.008 -0.24561,-0.12317 -0.22878,-0.25746 l 1.91392,-15.24097 c 0.0163,-0.13418 0.12276,-0.23672 0.25746,-0.22878 z"
             id="rect3588"
             inkscape:connector-curvature="0"
             sodipodi:nodetypes="sssssss" />
          <path
             sodipodi:type="star"
             style="fill:url(#linearGradient3674);fill-opacity:1;stroke:none;stroke-width:3.2719779"
             id="path3584"
             sodipodi:sides="3"
             sodipodi:cx="95.0625"
             sodipodi:cy="46.8125"
             sodipodi:r1="2.4310813"
             sodipodi:r2="1.2155406"
             sodipodi:arg1="0.78539816"
             sodipodi:arg2="1.8325957"
             inkscape:flatsided="true"
             inkscape:rounded="0.8"
             inkscape:randomized="0"
             d="m 96.781534,48.531534 c -2.381963,2.381964 -3.195419,2.163999 -4.067278,-1.089824 -0.871859,-3.253822 -0.276368,-3.849313 2.977454,-2.977454 3.253823,0.871859 3.471788,1.685315 1.089824,4.067278 z"
             transform="matrix(0.35215938,-0.11653277,0.09436082,0.43490624,-264.22827,193.23537)"
             inkscape:transform-center-x="0.11599707"
             inkscape:transform-center-y="0.074638578" />
          <g
             id="g3753"
             transform="matrix(1.3908187,0,0,1.3908187,-293.09315,-1203.8768)"
             style="stroke-width:3.2719779">
            <rect
               ry="0.59140182"
               rx="0.53999162"
               y="1008.5491"
               x="46.375"
               height="2.7190001"
               width="3.25"
               id="rect3709"
               style="opacity:0.1;fill:#000000;fill-opacity:1;stroke:none;stroke-width:3.2719779" />
            <rect
               style="opacity:0.1;fill:#000000;fill-opacity:1;stroke:none;stroke-width:3.2719779"
               id="rect3711"
               width="2.7417669"
               height="2.2328641"
               x="46.629116"
               y="1008.7921"
               rx="0.45554805"
               ry="0.4856638" />
          </g>
          <rect
             ry="0.51994413"
             rx="0.51994413"
             y="199.52831"
             x="-227.89853"
             height="2.3904698"
             width="3.1293423"
             id="rect3578"
             style="fill:url(#linearGradient4393);fill-opacity:1;stroke:none;stroke-width:9.38507175" />
          <rect
             style="fill:#bec3bf;fill-opacity:1;stroke:none;stroke-width:9.38507175"
             id="rect3582"
             width="6.9540935"
             height="0.69540942"
             x="-229.78917"
             y="195.96434"
             rx="0.51594895"
             ry="0.34770471" />
          <g
             id="g3717"
             transform="matrix(1.3908187,0,0,1.3908187,-293.09315,-1203.8768)"
             style="stroke-width:3.2719779">
            <rect
               style="opacity:0.1;fill:#000000;fill-opacity:1;stroke:none;stroke-width:3.2719779"
               id="rect3664"
               width="3.25"
               height="6"
               x="46.375"
               y="1003.9252"
               rx="0.94066709"
               ry="0.94066709" />
            <rect
               ry="0.64528149"
               rx="0.64528149"
               y="1004.175"
               x="46.618069"
               height="5.5002656"
               width="2.763864"
               id="rect3666"
               style="opacity:0.2;fill:#000000;fill-opacity:1;stroke:none;stroke-width:3.2719779" />
          </g>
          <rect
             style="fill:#ffffff;fill-opacity:1;stroke:none;stroke-width:9.38507175"
             id="rect3576"
             width="3.1293423"
             height="6.9540935"
             x="-227.89853"
             y="193.09586"
             rx="0.50118375"
             ry="0.50118375" />
        </g>
      </g>
    </g>
  </g>
</svg>
