<?xml version="1.0" encoding="UTF-8" standalone="no"?>
<!-- Created with Inkscape (http://www.inkscape.org/) -->

<svg
   xmlns:osb="http://www.openswatchbook.org/uri/2009/osb"
   xmlns:dc="http://purl.org/dc/elements/1.1/"
   xmlns:cc="http://creativecommons.org/ns#"
   xmlns:rdf="http://www.w3.org/1999/02/22-rdf-syntax-ns#"
   xmlns:svg="http://www.w3.org/2000/svg"
   xmlns="http://www.w3.org/2000/svg"
   xmlns:xlink="http://www.w3.org/1999/xlink"
   xmlns:sodipodi="http://sodipodi.sourceforge.net/DTD/sodipodi-0.dtd"
   xmlns:inkscape="http://www.inkscape.org/namespaces/inkscape"
   width="128"
   height="128"
   viewBox="0 0 33.866666 33.866668"
   version="1.1"
   id="svg8"
   inkscape:version="0.92.3 (2405546, 2018-03-11)"
   sodipodi:docname="default-folder-publicshare.svg">
  <defs
     id="defs2">
    <linearGradient
       id="linearGradient6987"
       osb:paint="solid">
      <stop
         style="stop-color:#77d2fb;stop-opacity:1;"
         offset="0"
         id="stop6985" />
    </linearGradient>
    <linearGradient
       id="linearGradient6088"
       osb:paint="solid">
      <stop
         style="stop-color:#51b3e3;stop-opacity:1;"
         offset="0"
         id="stop6086" />
    </linearGradient>
    <linearGradient
       inkscape:collect="always"
       id="linearGradient7009-7">
      <stop
         style="stop-color:#4d4d4d;stop-opacity:1"
         offset="0"
         id="stop7005-5" />
      <stop
         style="stop-color:#4d4d4d;stop-opacity:1"
         offset="1"
         id="stop7007-3" />
    </linearGradient>
    <linearGradient
       inkscape:collect="always"
       xlink:href="#linearGradient7009-7"
       id="linearGradient7011-3-6"
       x1="123.07384"
       y1="84.320671"
       x2="123.07384"
       y2="167.68925"
       gradientUnits="userSpaceOnUse"
       gradientTransform="matrix(0.24053029,0,0,0.24541785,-14.401575,250.33802)" />
    <style
       id="current-color-scheme"
       type="text/css">.ColorScheme-Text { color:#565656; }</style>
  </defs>
  <sodipodi:namedview
     id="base"
     pagecolor="#ffffff"
     bordercolor="#666666"
     borderopacity="1.0"
     inkscape:pageopacity="0.0"
     inkscape:pageshadow="2"
     inkscape:zoom="2.828427"
     inkscape:cx="46.415119"
     inkscape:cy="31.078087"
     inkscape:document-units="mm"
     inkscape:current-layer="layer1"
     showgrid="false"
     inkscape:window-width="1533"
     inkscape:window-height="836"
     inkscape:window-x="67"
     inkscape:window-y="27"
     inkscape:window-maximized="1"
     units="px"
     showguides="false" />
  <metadata
     id="metadata5">
    <rdf:RDF>
      <cc:Work
         rdf:about="">
        <dc:format>image/svg+xml</dc:format>
        <dc:type
           rdf:resource="http://purl.org/dc/dcmitype/StillImage" />
        <dc:title></dc:title>
      </cc:Work>
    </rdf:RDF>
  </metadata>
  <g
     inkscape:label="Layer 1"
     inkscape:groupmode="layer"
     id="layer1"
     transform="translate(0,-263.13331)">
    <g
       style="stroke-width:4.08449793"
       inkscape:transform-center-y="-9.4924686"
       inkscape:transform-center-x="5.4653607"
       inkscape:label="Capa 1"
       id="layer1-4-9-22"
       transform="matrix(0.51049916,0,0,0.51168467,-272.41344,-2.6029536)">
      <g
         style="stroke-width:4.08449793"
         id="layer1-3-65-0-7"
         inkscape:label="Capa 1"
         transform="translate(0.41988239,0.03484499)" />
    </g>
    <g
       style="stroke-width:4.08449793"
       inkscape:transform-center-y="-9.4924686"
       inkscape:transform-center-x="5.4653607"
       inkscape:label="Capa 1"
       id="layer1-4-3"
       transform="matrix(0.51049916,0,0,0.51168467,-272.41344,-2.5791441)">
      <g
         style="stroke-width:4.08449793"
         id="layer1-3-65-7"
         inkscape:label="Capa 1"
         transform="translate(0.41988239,0.03484499)" />
    </g>
    <g
       style="stroke-width:4.08449793"
       inkscape:transform-center-y="-9.4924686"
       inkscape:transform-center-x="5.4653607"
       inkscape:label="Capa 1"
       id="layer1-4-9-2"
       transform="matrix(0.51049916,0,0,0.51168467,-303.60777,-44.124917)">
      <g
         style="stroke-width:4.08449793"
         id="layer1-3-65-0-2"
         inkscape:label="Capa 1"
         transform="translate(0.41988239,0.03484499)" />
    </g>
    <g
       style="stroke-width:4.08449793"
       inkscape:transform-center-y="-9.4924686"
       inkscape:transform-center-x="5.4653607"
       inkscape:label="Capa 1"
       id="layer1-4-7"
       transform="matrix(0.51049916,0,0,0.51168467,-303.60777,-44.101106)">
      <g
         style="stroke-width:4.08449793"
         id="layer1-3-65-3"
         inkscape:label="Capa 1"
         transform="translate(0.41988239,0.03484499)" />
    </g>
    <g
       style="stroke-width:4.08449793"
       inkscape:transform-center-y="-9.4924686"
       inkscape:transform-center-x="5.4653607"
       inkscape:label="Capa 1"
       id="layer1-4-9"
       transform="matrix(0.51049916,0,0,0.51168467,-272.41344,-2.6029565)">
      <g
         style="stroke-width:4.08449793"
         id="layer1-3-65-0"
         inkscape:label="Capa 1"
         transform="translate(0.41988239,0.03484499)" />
    </g>
    <g
       style="stroke-width:4.08449793"
       inkscape:transform-center-y="-9.4924686"
       inkscape:transform-center-x="5.4653607"
       inkscape:label="Capa 1"
       id="layer1-4"
       transform="matrix(0.51049916,0,0,0.51168467,-272.41344,-2.5791469)">
      <g
         style="stroke-width:4.08449793"
         id="layer1-3-65"
         inkscape:label="Capa 1"
         transform="translate(0.41988239,0.03484499)" />
    </g>
    <g
       style="stroke-width:4.08449793"
       inkscape:transform-center-y="-9.4924686"
       inkscape:transform-center-x="5.4653607"
       inkscape:label="Capa 1"
       id="layer1-4-9-22-2"
       transform="matrix(0.51049916,0,0,0.51168467,-314.3213,-2.6029503)">
      <g
         style="stroke-width:4.08449793"
         id="layer1-3-65-0-7-9"
         inkscape:label="Capa 1"
         transform="translate(0.41988239,0.03484499)" />
    </g>
    <g
       style="stroke-width:4.08449793"
       inkscape:transform-center-y="-9.4924686"
       inkscape:transform-center-x="5.4653607"
       inkscape:label="Capa 1"
       id="layer1-4-3-1"
       transform="matrix(0.51049916,0,0,0.51168467,-314.3213,-2.5791408)">
      <g
         style="stroke-width:4.08449793"
         id="layer1-3-65-7-2"
         inkscape:label="Capa 1"
         transform="translate(0.41988239,0.03484499)" />
    </g>
    <g
       style="stroke-width:4.08449793"
       inkscape:transform-center-y="-9.4924686"
       inkscape:transform-center-x="5.4653607"
       inkscape:label="Capa 1"
       id="layer1-4-9-2-7"
       transform="matrix(0.51049916,0,0,0.51168467,-345.51563,-44.124914)">
      <g
         style="stroke-width:4.08449793"
         id="layer1-3-65-0-2-0"
         inkscape:label="Capa 1"
         transform="translate(0.41988239,0.03484499)" />
    </g>
    <g
       style="stroke-width:4.08449793"
       inkscape:transform-center-y="-9.4924686"
       inkscape:transform-center-x="5.4653607"
       inkscape:label="Capa 1"
       id="layer1-4-7-9"
       transform="matrix(0.51049916,0,0,0.51168467,-345.51563,-44.101103)">
      <g
         style="stroke-width:4.08449793"
         id="layer1-3-65-3-3"
         inkscape:label="Capa 1"
         transform="translate(0.41988239,0.03484499)" />
    </g>
    <g
       style="stroke-width:4.08449793"
       inkscape:transform-center-y="-9.4924686"
       inkscape:transform-center-x="5.4653607"
       inkscape:label="Capa 1"
       id="layer1-4-9-6"
       transform="matrix(0.51049916,0,0,0.51168467,-314.3213,-2.6029532)">
      <g
         style="stroke-width:4.08449793"
         id="layer1-3-65-0-0"
         inkscape:label="Capa 1"
         transform="translate(0.41988239,0.03484499)" />
    </g>
    <g
       style="stroke-width:4.08449793"
       inkscape:transform-center-y="-9.4924686"
       inkscape:transform-center-x="5.4653607"
       inkscape:label="Capa 1"
       id="layer1-4-6"
       transform="matrix(0.51049916,0,0,0.51168467,-314.3213,-2.5791436)">
      <g
         style="stroke-width:4.08449793"
         id="layer1-3-65-2"
         inkscape:label="Capa 1"
         transform="translate(0.41988239,0.03484499)" />
    </g>
    <path
       id="path1228-2"
       d="m 2.938372,267.54339 c -1.041487,0 -1.880038,0.84847 -1.880038,1.90269 v 2.2792 1.56214 0.75398 6.3617 1.52372 9.63997 0.69198 c 0,0.46439 0.366268,0.83814 0.82141,0.83814 h 0.678191 28.750798 0.67819 c 0.455143,0 0.82141,-0.37375 0.82141,-0.83814 v -0.69198 -9.63997 -1.52372 -7.11568 -1.56214 c 0,-0.87753 -0.698096,-1.58376 -1.565057,-1.58376 H 12.435024 C 11.5062,270.05422 11.466096,267.83373 9.8325,267.54339 Z"
       style="opacity:0.25;fill:#000000;fill-opacity:1;stroke:none;stroke-width:0.1916258;stroke-miterlimit:4;stroke-dasharray:none;stroke-opacity:1"
       inkscape:connector-curvature="0" />
    <path
       inkscape:connector-curvature="0"
       style="fill:#828181;fill-opacity:1;stroke:none;stroke-width:0.20120709;stroke-miterlimit:4;stroke-dasharray:none;stroke-opacity:1"
       d="m 2.938372,267.03637 c -1.041487,0 -1.880038,0.84847 -1.880038,1.9027 v 2.27921 1.56211 0.754 6.36168 1.52374 9.63997 0.69198 c 0,0.46439 0.366268,0.83815 0.82141,0.83815 h 0.678191 28.750798 0.67819 c 0.455143,0 0.82141,-0.37376 0.82141,-0.83815 v -0.69198 -9.63997 -1.52374 -7.11568 -1.56211 c 0,-0.87754 -0.698096,-1.58378 -1.565057,-1.58378 H 12.435024 C 11.5062,269.5473 11.466096,267.32673 9.8325,267.03637 Z"
       id="path7028-3-7" />
    <path
       inkscape:connector-curvature="0"
       id="rect5176-9-0"
       d="m 2.558051,271.25039 c -0.830841,0 -1.499648,0.68251 -1.499648,1.53024 v 7.11529 11.16398 0.69196 c 0,0.46439 0.366342,0.83817 0.821483,0.83817 h 0.678165 28.750621 0.678168 c 0.455144,0 0.821482,-0.37378 0.821482,-0.83817 v -0.69196 -11.16398 -7.11529 c 0,-0.84773 -0.668804,-1.53024 -1.49965,-1.53024 z"
       style="fill:url(#linearGradient7011-3-6);fill-opacity:1;stroke:none;stroke-width:0.20120709;stroke-miterlimit:4;stroke-dasharray:none;stroke-opacity:1" />
    <g
       style="stroke-width:4.08449793"
       inkscape:transform-center-y="-9.4924686"
       inkscape:transform-center-x="5.4653607"
       inkscape:label="Capa 1"
       id="layer1-4-9-22-9"
       transform="matrix(0.51049916,0,0,0.51168467,-314.3213,-2.6029503)">
      <g
         style="stroke-width:4.08449793"
         id="layer1-3-65-0-7-3"
         inkscape:label="Capa 1"
         transform="translate(0.41988239,0.03484499)" />
    </g>
    <g
       style="stroke-width:4.08449793"
       inkscape:transform-center-y="-9.4924686"
       inkscape:transform-center-x="5.4653607"
       inkscape:label="Capa 1"
       id="layer1-4-3-6"
       transform="matrix(0.51049916,0,0,0.51168467,-314.3213,-2.5791408)">
      <g
         style="stroke-width:4.08449793"
         id="layer1-3-65-7-0"
         inkscape:label="Capa 1"
         transform="translate(0.41988239,0.03484499)" />
    </g>
    <g
       style="stroke-width:4.08449793"
       inkscape:transform-center-y="-9.4924686"
       inkscape:transform-center-x="5.4653607"
       inkscape:label="Capa 1"
       id="layer1-4-9-2-6"
       transform="matrix(0.51049916,0,0,0.51168467,-345.51563,-44.124914)">
      <g
         style="stroke-width:4.08449793"
         id="layer1-3-65-0-2-2"
         inkscape:label="Capa 1"
         transform="translate(0.41988239,0.03484499)" />
    </g>
    <g
       style="stroke-width:4.08449793"
       inkscape:transform-center-y="-9.4924686"
       inkscape:transform-center-x="5.4653607"
       inkscape:label="Capa 1"
       id="layer1-4-7-6"
       transform="matrix(0.51049916,0,0,0.51168467,-345.51563,-44.101103)">
      <g
         style="stroke-width:4.08449793"
         id="layer1-3-65-3-1"
         inkscape:label="Capa 1"
         transform="translate(0.41988239,0.03484499)" />
    </g>
    <g
       style="stroke-width:4.08449793"
       inkscape:transform-center-y="-9.4924686"
       inkscape:transform-center-x="5.4653607"
       inkscape:label="Capa 1"
       id="layer1-4-9-8"
       transform="matrix(0.51049916,0,0,0.51168467,-314.3213,-2.6029532)">
      <g
         style="stroke-width:4.08449793"
         id="layer1-3-65-0-79"
         inkscape:label="Capa 1"
         transform="translate(0.41988239,0.03484499)" />
    </g>
    <g
       style="stroke-width:4.08449793"
       inkscape:transform-center-y="-9.4924686"
       inkscape:transform-center-x="5.4653607"
       inkscape:label="Capa 1"
       id="layer1-4-2"
       transform="matrix(0.51049916,0,0,0.51168467,-314.3213,-2.5791436)">
      <g
         style="stroke-width:4.08449793"
         id="layer1-3-65-02"
         inkscape:label="Capa 1"
         transform="translate(0.41988239,0.03484499)" />
    </g>
    <path
       inkscape:connector-curvature="0"
       d="m 22.925895,275.44639 c -0.110115,0.003 -0.222086,0.0203 -0.333762,0.054 -0.558124,0.16841 -0.92501,0.71194 -0.8766,1.2986 0.04162,0.50418 0.342133,0.91102 0.824619,1.11652 0.213619,0.091 0.69259,0.0636 0.943714,-0.0538 0.497314,-0.23264 0.817581,-0.85757 0.708067,-1.3819 -0.131972,-0.63188 -0.671419,-1.04821 -1.266038,-1.03334 z m -12.023334,0.0164 c -0.286089,0 -0.346492,0.0114 -0.519324,0.0976 -0.535948,0.2674 -0.832302,0.87932 -0.690405,1.42579 0.111134,0.42801 0.372463,0.74017 0.757511,0.90499 0.16924,0.0726 0.239656,0.0827 0.505218,0.0731 0.252562,-0.01 0.343057,-0.0283 0.498362,-0.1055 0.234552,-0.1166 0.480524,-0.37833 0.601181,-0.63988 0.07895,-0.17119 0.09124,-0.24258 0.09124,-0.527 0,-0.30824 -0.0076,-0.34248 -0.115533,-0.54534 -0.140343,-0.26296 -0.352648,-0.46848 -0.611086,-0.59157 -0.166886,-0.0795 -0.237828,-0.0922 -0.517171,-0.0922 z m 6.031753,0 c -0.283362,0 -0.347305,0.0118 -0.512591,0.0943 -0.266409,0.13294 -0.495305,0.36862 -0.619228,0.63767 -0.088,0.19099 -0.103791,0.26666 -0.103077,0.49137 0.0019,0.58228 0.336991,1.06603 0.855629,1.23481 0.25199,0.082 0.691657,0.0521 0.928848,-0.0632 0.558466,-0.27156 0.844942,-0.9744 0.639304,-1.56824 -0.108219,-0.31252 -0.354209,-0.58682 -0.651133,-0.72613 -0.188676,-0.0886 -0.252419,-0.10047 -0.537752,-0.10047 z m -0.0048,2.78613 c -0.9174,4.9e-4 -1.038324,0.008 -1.129657,0.0614 -0.07924,0.0471 -0.29822,0.4102 -0.972058,1.61111 -0.478428,0.85265 -0.885133,1.54511 -0.9038,1.53879 -0.01867,-0.007 -0.419742,-0.69617 -0.891219,-1.53298 -0.665438,-1.18106 -0.882543,-1.53888 -0.9704,-1.59935 -0.111333,-0.0767 -0.130552,-0.0779 -1.165123,-0.0779 H 9.845381 l -0.118456,0.11248 c -0.07468,0.071 -0.486023,0.76527 -1.113007,1.87842 -1.156073,2.05246 -1.122444,1.9889 -1.126224,2.12416 -0.01004,0.35894 0.36788,0.57676 0.654554,0.37733 0.08242,-0.0573 0.261445,-0.33946 0.678081,-1.0686 0.616793,-1.07944 0.668918,-1.16464 0.696248,-1.13821 0.0101,0.01 0.02199,1.70029 0.02644,3.75671 0.0061,2.83143 0.01803,3.76487 0.04931,3.84568 0.02272,0.0587 0.08358,0.14041 0.135236,0.1817 0.16967,0.13561 0.474513,0.0793 0.598761,-0.11067 0.04003,-0.0612 0.05122,-0.46579 0.06533,-2.35907 l 0.01702,-2.2852 0.472425,-0.01 c 0.286267,-0.006 0.488943,0.004 0.514371,0.0257 0.03238,0.0273 0.04286,0.54935 0.0459,2.28534 0.0048,2.47881 -0.0057,2.36277 0.214543,2.47851 0.204181,0.10728 0.49583,0.0131 0.569153,-0.18389 0.02838,-0.0762 0.07438,-4.56877 0.07486,-7.32255 3.9e-5,-0.16663 0.01343,-0.30308 0.02962,-0.30308 0.01619,0 0.195542,0.29224 0.398457,0.64929 0.602362,1.05995 0.830628,1.44072 0.916266,1.5282 0.05676,0.058 0.1302,0.087 0.24581,0.0971 0.234171,0.0205 0.345619,-0.062 0.531019,-0.39349 0.458305,-0.81952 1.032619,-1.80332 1.087457,-1.86279 0.06133,-0.0665 0.06314,0.005 0.06752,2.64873 0.0029,1.49435 0.0029,3.18879 0,3.76535 -0.0048,1.16577 0.0048,1.2323 0.206533,1.35709 0.13621,0.0844 0.307734,0.09 0.434048,0.0142 0.197295,-0.11841 0.188447,-0.0121 0.206914,-2.48883 l 0.01705,-2.2852 0.502685,-0.01 c 0.276458,-0.006 0.503153,0.003 0.503686,0.0173 7.43e-4,0.0148 0.0086,1.03769 0.01848,2.27319 0.01905,2.45429 0.01333,2.38905 0.217972,2.49659 0.201076,0.10564 0.46719,0.0354 0.558352,-0.14722 0.03905,-0.0782 0.05057,-0.75267 0.06695,-3.88133 0.01086,-2.08269 0.02705,-3.79399 0.03581,-3.80293 0.01876,-0.019 0.05343,0.0351 0.302371,0.47445 0.102515,0.1809 0.267277,0.46912 0.366172,0.64051 0.09889,0.17138 0.263238,0.45974 0.365162,0.64065 0.244886,0.43467 0.368171,0.55387 0.572447,0.55387 0.225591,0 0.329172,-0.11937 0.7518,-0.86561 0.794467,-1.40282 0.832229,-1.46623 0.857153,-1.4409 0.01048,0.0106 0.02638,1.72203 0.03543,3.80306 0.018,4.1218 0.0076,3.91809 0.211619,4.02545 0.200524,0.10535 0.4846,0.0266 0.584153,-0.16207 0.032,-0.0605 0.04381,-0.61938 0.04933,-2.31839 0.0038,-1.23128 0.01762,-2.25572 0.03029,-2.27654 0.02457,-0.0404 0.855314,-0.055 0.953371,-0.0168 0.04838,0.0189 0.05391,0.24972 0.05391,2.25396 0,2.44773 -0.0048,2.38935 0.201714,2.51324 0.202724,0.12167 0.488296,0.0346 0.598896,-0.18273 0.04619,-0.0907 0.05333,-0.25102 0.04876,-1.08358 -0.0029,-0.5374 -0.0038,-2.22871 -0.0019,-3.75851 0.0029,-2.17662 0.01295,-2.77844 0.04562,-2.76739 0.04162,0.0141 0.130447,0.1544 0.367562,0.58033 0.570314,1.02445 0.906866,1.57222 1.002562,1.63151 0.200295,0.1241 0.480638,0.0558 0.581095,-0.14153 0.1138,-0.22358 0.07809,-0.34476 -0.295372,-1.0012 -0.190895,-0.33553 -0.417123,-0.73625 -0.502685,-0.89051 -0.986457,-1.77867 -1.3218,-2.34875 -1.416391,-2.40789 -0.09352,-0.0585 -0.190809,-0.0639 -1.141609,-0.0639 -1.223067,0 -1.170838,-0.0144 -1.399486,0.38703 -0.2612,0.45858 -0.393962,0.69374 -0.876219,1.55157 -0.7062,1.25621 -0.700505,1.24656 -0.740229,1.24656 -0.02029,0 -0.410704,-0.66607 -0.867838,-1.48016 -0.457133,-0.8141 -0.855219,-1.50907 -0.884609,-1.54435 -0.129429,-0.15539 -0.187048,-0.16281 -1.268448,-0.16206 z"
       style="fill:#828181;fill-opacity:1;stroke:none;stroke-width:0.15000001;stroke-miterlimit:4;stroke-dasharray:none;stroke-opacity:1"
       id="path1016" />
  </g>
</svg>
