<?xml version="1.0" encoding="UTF-8" standalone="no"?>
<!-- Created with Inkscape (http://www.inkscape.org/) -->

<svg
   xmlns:osb="http://www.openswatchbook.org/uri/2009/osb"
   xmlns:dc="http://purl.org/dc/elements/1.1/"
   xmlns:cc="http://creativecommons.org/ns#"
   xmlns:rdf="http://www.w3.org/1999/02/22-rdf-syntax-ns#"
   xmlns:svg="http://www.w3.org/2000/svg"
   xmlns="http://www.w3.org/2000/svg"
   xmlns:xlink="http://www.w3.org/1999/xlink"
   xmlns:sodipodi="http://sodipodi.sourceforge.net/DTD/sodipodi-0.dtd"
   xmlns:inkscape="http://www.inkscape.org/namespaces/inkscape"
   width="128"
   height="128"
   viewBox="0 0 33.866666 33.866668"
   version="1.1"
   id="svg8"
   inkscape:version="0.92.3 (2405546, 2018-03-11)"
   sodipodi:docname="default-folder-documents.svg">
  <defs
     id="defs2">
    <linearGradient
       id="linearGradient6987"
       osb:paint="solid">
      <stop
         style="stop-color:#77d2fb;stop-opacity:1;"
         offset="0"
         id="stop6985" />
    </linearGradient>
    <linearGradient
       id="linearGradient6088"
       osb:paint="solid">
      <stop
         style="stop-color:#51b3e3;stop-opacity:1;"
         offset="0"
         id="stop6086" />
    </linearGradient>
    <linearGradient
       id="linearGradient7009-7"
       inkscape:collect="always">
      <stop
         id="stop7005-5"
         offset="0"
         style="stop-color:#4d4d4d;stop-opacity:1" />
      <stop
         id="stop7007-3"
         offset="1"
         style="stop-color:#4d4d4d;stop-opacity:1" />
    </linearGradient>
    <linearGradient
       gradientTransform="matrix(0.24053029,0,0,0.24541785,-14.401575,250.33802)"
       gradientUnits="userSpaceOnUse"
       y2="167.68925"
       x2="123.07384"
       y1="84.320671"
       x1="123.07384"
       id="linearGradient7011-3-6"
       xlink:href="#linearGradient7009-7"
       inkscape:collect="always" />
    <style
       type="text/css"
       id="current-color-scheme">.ColorScheme-Text { color:#565656; }</style>
  </defs>
  <sodipodi:namedview
     id="base"
     pagecolor="#ffffff"
     bordercolor="#666666"
     borderopacity="1.0"
     inkscape:pageopacity="0.0"
     inkscape:pageshadow="2"
     inkscape:zoom="0.49999998"
     inkscape:cx="433.18655"
     inkscape:cy="-226.92542"
     inkscape:document-units="mm"
     inkscape:current-layer="layer1"
     showgrid="false"
     inkscape:window-width="1533"
     inkscape:window-height="836"
     inkscape:window-x="67"
     inkscape:window-y="27"
     inkscape:window-maximized="1"
     units="px"
     showguides="false" />
  <metadata
     id="metadata5">
    <rdf:RDF>
      <cc:Work
         rdf:about="">
        <dc:format>image/svg+xml</dc:format>
        <dc:type
           rdf:resource="http://purl.org/dc/dcmitype/StillImage" />
        <dc:title></dc:title>
      </cc:Work>
    </rdf:RDF>
  </metadata>
  <g
     inkscape:label="Layer 1"
     inkscape:groupmode="layer"
     id="layer1"
     transform="translate(0,-263.13331)">
    <g
       style="stroke-width:4.08449793"
       inkscape:transform-center-y="-9.4924686"
       inkscape:transform-center-x="5.4653607"
       inkscape:label="Capa 1"
       id="layer1-4-9-22"
       transform="matrix(0.51049916,0,0,0.51168467,-314.3213,-2.6029569)">
      <g
         style="stroke-width:4.08449793"
         id="layer1-3-65-0-7"
         inkscape:label="Capa 1"
         transform="translate(0.41988239,0.03484499)" />
    </g>
    <g
       style="stroke-width:4.08449793"
       inkscape:transform-center-y="-9.4924686"
       inkscape:transform-center-x="5.4653607"
       inkscape:label="Capa 1"
       id="layer1-4-3"
       transform="matrix(0.51049916,0,0,0.51168467,-314.3213,-2.5791474)">
      <g
         style="stroke-width:4.08449793"
         id="layer1-3-65-7"
         inkscape:label="Capa 1"
         transform="translate(0.41988239,0.03484499)" />
    </g>
    <g
       style="stroke-width:4.08449793"
       inkscape:transform-center-y="-9.4924686"
       inkscape:transform-center-x="5.4653607"
       inkscape:label="Capa 1"
       id="layer1-4-9-2"
       transform="matrix(0.51049916,0,0,0.51168467,-345.51563,-44.12492)">
      <g
         style="stroke-width:4.08449793"
         id="layer1-3-65-0-2"
         inkscape:label="Capa 1"
         transform="translate(0.41988239,0.03484499)" />
    </g>
    <g
       style="stroke-width:4.08449793"
       inkscape:transform-center-y="-9.4924686"
       inkscape:transform-center-x="5.4653607"
       inkscape:label="Capa 1"
       id="layer1-4-7"
       transform="matrix(0.51049916,0,0,0.51168467,-345.51563,-44.101109)">
      <g
         style="stroke-width:4.08449793"
         id="layer1-3-65-3"
         inkscape:label="Capa 1"
         transform="translate(0.41988239,0.03484499)" />
    </g>
    <g
       style="stroke-width:4.08449793"
       inkscape:transform-center-y="-9.4924686"
       inkscape:transform-center-x="5.4653607"
       inkscape:label="Capa 1"
       id="layer1-4-9"
       transform="matrix(0.51049916,0,0,0.51168467,-314.3213,-2.6029598)">
      <g
         style="stroke-width:4.08449793"
         id="layer1-3-65-0"
         inkscape:label="Capa 1"
         transform="translate(0.41988239,0.03484499)" />
    </g>
    <g
       style="stroke-width:4.08449793"
       inkscape:transform-center-y="-9.4924686"
       inkscape:transform-center-x="5.4653607"
       inkscape:label="Capa 1"
       id="layer1-4"
       transform="matrix(0.51049916,0,0,0.51168467,-314.3213,-2.5791502)">
      <g
         style="stroke-width:4.08449793"
         id="layer1-3-65"
         inkscape:label="Capa 1"
         transform="translate(0.41988239,0.03484499)" />
    </g>
    <path
       id="path1228-2"
       d="m 2.9383718,267.54339 c -1.0414871,0 -1.8800378,0.84847 -1.8800378,1.90269 v 2.2792 1.56214 0.75398 6.3617 1.52372 9.63997 0.69198 c 0,0.46439 0.3662678,0.83814 0.8214097,0.83814 h 0.6781915 28.7507978 0.67819 c 0.455143,0 0.82141,-0.37375 0.82141,-0.83814 v -0.69198 -9.63997 -1.52372 -7.11568 -1.56214 c 0,-0.87753 -0.698096,-1.58376 -1.565057,-1.58376 H 12.435024 c -0.928824,-0.0873 -0.968928,-2.30779 -2.6025241,-2.59813 z"
       style="opacity:0.25;fill:#000000;fill-opacity:1;stroke:none;stroke-width:0.1916258;stroke-miterlimit:4;stroke-dasharray:none;stroke-opacity:1"
       inkscape:connector-curvature="0" />
    <path
       inkscape:connector-curvature="0"
       style="fill:#828181;fill-opacity:1;stroke:none;stroke-width:0.20120709;stroke-miterlimit:4;stroke-dasharray:none;stroke-opacity:1"
       d="m 2.9383718,267.03637 c -1.0414871,0 -1.8800378,0.84847 -1.8800378,1.9027 v 2.27921 1.56211 0.754 6.36168 1.52374 9.63997 0.69198 c 0,0.46439 0.3662678,0.83815 0.8214097,0.83815 h 0.6781915 28.7507978 0.67819 c 0.455143,0 0.82141,-0.37376 0.82141,-0.83815 v -0.69198 -9.63997 -1.52374 -7.11568 -1.56211 c 0,-0.87754 -0.698096,-1.58378 -1.565057,-1.58378 H 12.435024 c -0.928824,-0.0872 -0.968928,-2.30777 -2.6025241,-2.59813 z"
       id="path7028-3-7" />
    <path
       inkscape:connector-curvature="0"
       id="rect5176-9-0"
       d="m 2.5580511,271.25039 c -0.8308415,0 -1.4996481,0.68251 -1.4996481,1.53024 v 7.11529 11.16398 0.69196 c 0,0.46439 0.3663416,0.83817 0.8214834,0.83817 H 2.5580511 31.308672 31.98684 c 0.455144,0 0.821482,-0.37378 0.821482,-0.83817 v -0.69196 -11.16398 -7.11529 c 0,-0.84773 -0.668804,-1.53024 -1.49965,-1.53024 z"
       style="fill:url(#linearGradient7011-3-6);fill-opacity:1;stroke:none;stroke-width:0.20120709;stroke-miterlimit:4;stroke-dasharray:none;stroke-opacity:1" />
    <g
       style="stroke-width:4.08449793"
       inkscape:transform-center-y="-9.4924686"
       inkscape:transform-center-x="5.4653607"
       inkscape:label="Capa 1"
       id="layer1-4-9-22-9"
       transform="matrix(0.51049916,0,0,0.51168467,-314.3213,-2.6029569)">
      <g
         style="stroke-width:4.08449793"
         id="layer1-3-65-0-7-3"
         inkscape:label="Capa 1"
         transform="translate(0.41988239,0.03484499)" />
    </g>
    <g
       style="stroke-width:4.08449793"
       inkscape:transform-center-y="-9.4924686"
       inkscape:transform-center-x="5.4653607"
       inkscape:label="Capa 1"
       id="layer1-4-3-6"
       transform="matrix(0.51049916,0,0,0.51168467,-314.3213,-2.5791474)">
      <g
         style="stroke-width:4.08449793"
         id="layer1-3-65-7-0"
         inkscape:label="Capa 1"
         transform="translate(0.41988239,0.03484499)" />
    </g>
    <g
       style="stroke-width:4.08449793"
       inkscape:transform-center-y="-9.4924686"
       inkscape:transform-center-x="5.4653607"
       inkscape:label="Capa 1"
       id="layer1-4-9-2-6"
       transform="matrix(0.51049916,0,0,0.51168467,-345.51563,-44.12492)">
      <g
         style="stroke-width:4.08449793"
         id="layer1-3-65-0-2-2"
         inkscape:label="Capa 1"
         transform="translate(0.41988239,0.03484499)" />
    </g>
    <g
       style="stroke-width:4.08449793"
       inkscape:transform-center-y="-9.4924686"
       inkscape:transform-center-x="5.4653607"
       inkscape:label="Capa 1"
       id="layer1-4-7-6"
       transform="matrix(0.51049916,0,0,0.51168467,-345.51563,-44.101109)">
      <g
         style="stroke-width:4.08449793"
         id="layer1-3-65-3-1"
         inkscape:label="Capa 1"
         transform="translate(0.41988239,0.03484499)" />
    </g>
    <g
       style="stroke-width:4.08449793"
       inkscape:transform-center-y="-9.4924686"
       inkscape:transform-center-x="5.4653607"
       inkscape:label="Capa 1"
       id="layer1-4-9-8"
       transform="matrix(0.51049916,0,0,0.51168467,-314.3213,-2.6029598)">
      <g
         style="stroke-width:4.08449793"
         id="layer1-3-65-0-79"
         inkscape:label="Capa 1"
         transform="translate(0.41988239,0.03484499)" />
    </g>
    <g
       style="stroke-width:4.08449793"
       inkscape:transform-center-y="-9.4924686"
       inkscape:transform-center-x="5.4653607"
       inkscape:label="Capa 1"
       id="layer1-4-2"
       transform="matrix(0.51049916,0,0,0.51168467,-314.3213,-2.5791502)">
      <g
         style="stroke-width:4.08449793"
         id="layer1-3-65-02"
         inkscape:label="Capa 1"
         transform="translate(0.41988239,0.03484499)" />
    </g>
    <path
       inkscape:connector-curvature="0"
       id="path4910"
       d="m 11.329835,289.20692 c -0.01792,-0.0478 0.0026,-3.35868 0.0026,-7.35747 l 2.8e-5,-7.27049 2.715815,1e-5 c 1.69072,-0.0112 2.813263,-0.044 2.973986,0 0.190211,0.052 0.767673,0.55601 2.193631,1.8182 2.485268,2.19983 3.001105,2.97205 3.328337,3.96942 l -5e-5,4.44592 v 4.43711 l -5.608327,3e-5 c -4.422583,0.0141 -5.577542,0.0691 -5.60342,0 z m 10.517757,-4.48388 c 0.01371,-2.62496 -0.0034,-3.92565 -0.05418,-4.10379 -0.04084,-0.14346 -0.169423,-0.37095 -0.285742,-0.50555 -0.408707,-0.47296 -0.425101,-0.54922 -2.576529,-0.54924 l -1.976423,-2e-5 5.2e-5,-1.80032 c 5.3e-5,-1.73853 -0.03959,-1.80932 -0.193993,-2.06165 -0.285634,-0.46679 -0.303839,-0.43096 -2.649816,-0.43103 l -2.099597,-6e-5 v 6.57807 c -0.0096,3.61794 -0.01796,6.66871 -2.2e-5,6.71656 0.02587,0.069 1.047088,0 4.924417,0 l 4.891767,10e-6 z"
       style="fill:#828181;fill-opacity:1;stroke:none;stroke-width:0.15994962;stroke-miterlimit:4;stroke-dasharray:none;stroke-opacity:1"
       sodipodi:nodetypes="cscccsccccccccsscssscccscc" />
  </g>
</svg>
