<?xml version="1.0" encoding="UTF-8" standalone="no"?>
<!-- Created with Inkscape (http://www.inkscape.org/) -->

<svg
   xmlns:osb="http://www.openswatchbook.org/uri/2009/osb"
   xmlns:dc="http://purl.org/dc/elements/1.1/"
   xmlns:cc="http://creativecommons.org/ns#"
   xmlns:rdf="http://www.w3.org/1999/02/22-rdf-syntax-ns#"
   xmlns:svg="http://www.w3.org/2000/svg"
   xmlns="http://www.w3.org/2000/svg"
   xmlns:xlink="http://www.w3.org/1999/xlink"
   xmlns:sodipodi="http://sodipodi.sourceforge.net/DTD/sodipodi-0.dtd"
   xmlns:inkscape="http://www.inkscape.org/namespaces/inkscape"
   width="128"
   height="128"
   viewBox="0 0 33.866666 33.866668"
   version="1.1"
   id="svg8"
   inkscape:version="0.92.3 (2405546, 2018-03-11)"
   sodipodi:docname="default-folder-templates.svg">
  <defs
     id="defs2">
    <linearGradient
       id="linearGradient6987"
       osb:paint="solid">
      <stop
         style="stop-color:#77d2fb;stop-opacity:1;"
         offset="0"
         id="stop6985" />
    </linearGradient>
    <linearGradient
       id="linearGradient6088"
       osb:paint="solid">
      <stop
         style="stop-color:#51b3e3;stop-opacity:1;"
         offset="0"
         id="stop6086" />
    </linearGradient>
    <linearGradient
       inkscape:collect="always"
       id="linearGradient7009-7">
      <stop
         style="stop-color:#4d4d4d;stop-opacity:1"
         offset="0"
         id="stop7005-5" />
      <stop
         style="stop-color:#4d4d4d;stop-opacity:1"
         offset="1"
         id="stop7007-3" />
    </linearGradient>
    <linearGradient
       inkscape:collect="always"
       xlink:href="#linearGradient7009-7"
       id="linearGradient7011-3-6"
       x1="123.07384"
       y1="84.320671"
       x2="123.07384"
       y2="167.68925"
       gradientUnits="userSpaceOnUse"
       gradientTransform="matrix(0.24053029,0,0,0.24541785,-14.401575,250.33802)" />
    <style
       id="current-color-scheme"
       type="text/css">.ColorScheme-Text { color:#565656; }</style>
  </defs>
  <sodipodi:namedview
     id="base"
     pagecolor="#ffffff"
     bordercolor="#666666"
     borderopacity="1.0"
     inkscape:pageopacity="0.0"
     inkscape:pageshadow="2"
     inkscape:zoom="2.828427"
     inkscape:cx="76.134276"
     inkscape:cy="31.360637"
     inkscape:document-units="mm"
     inkscape:current-layer="layer1"
     showgrid="false"
     inkscape:window-width="1533"
     inkscape:window-height="836"
     inkscape:window-x="67"
     inkscape:window-y="27"
     inkscape:window-maximized="1"
     units="px"
     showguides="false" />
  <metadata
     id="metadata5">
    <rdf:RDF>
      <cc:Work
         rdf:about="">
        <dc:format>image/svg+xml</dc:format>
        <dc:type
           rdf:resource="http://purl.org/dc/dcmitype/StillImage" />
        <dc:title></dc:title>
      </cc:Work>
    </rdf:RDF>
  </metadata>
  <g
     inkscape:label="Layer 1"
     inkscape:groupmode="layer"
     id="layer1"
     transform="translate(0,-263.13331)">
    <g
       style="stroke-width:4.08449793"
       inkscape:transform-center-y="-9.4924686"
       inkscape:transform-center-x="5.4653607"
       inkscape:label="Capa 1"
       id="layer1-4-9-22"
       transform="matrix(0.51049916,0,0,0.51168467,-276.3423,-2.6029536)">
      <g
         style="stroke-width:4.08449793"
         id="layer1-3-65-0-7"
         inkscape:label="Capa 1"
         transform="translate(0.41988239,0.03484499)" />
    </g>
    <g
       style="stroke-width:4.08449793"
       inkscape:transform-center-y="-9.4924686"
       inkscape:transform-center-x="5.4653607"
       inkscape:label="Capa 1"
       id="layer1-4-3"
       transform="matrix(0.51049916,0,0,0.51168467,-276.3423,-2.5791441)">
      <g
         style="stroke-width:4.08449793"
         id="layer1-3-65-7"
         inkscape:label="Capa 1"
         transform="translate(0.41988239,0.03484499)" />
    </g>
    <g
       style="stroke-width:4.08449793"
       inkscape:transform-center-y="-9.4924686"
       inkscape:transform-center-x="5.4653607"
       inkscape:label="Capa 1"
       id="layer1-4-9-2"
       transform="matrix(0.51049916,0,0,0.51168467,-307.53663,-44.124917)">
      <g
         style="stroke-width:4.08449793"
         id="layer1-3-65-0-2"
         inkscape:label="Capa 1"
         transform="translate(0.41988239,0.03484499)" />
    </g>
    <g
       style="stroke-width:4.08449793"
       inkscape:transform-center-y="-9.4924686"
       inkscape:transform-center-x="5.4653607"
       inkscape:label="Capa 1"
       id="layer1-4-7"
       transform="matrix(0.51049916,0,0,0.51168467,-307.53663,-44.101106)">
      <g
         style="stroke-width:4.08449793"
         id="layer1-3-65-3"
         inkscape:label="Capa 1"
         transform="translate(0.41988239,0.03484499)" />
    </g>
    <g
       style="stroke-width:4.08449793"
       inkscape:transform-center-y="-9.4924686"
       inkscape:transform-center-x="5.4653607"
       inkscape:label="Capa 1"
       id="layer1-4-9"
       transform="matrix(0.51049916,0,0,0.51168467,-276.3423,-2.6029565)">
      <g
         style="stroke-width:4.08449793"
         id="layer1-3-65-0"
         inkscape:label="Capa 1"
         transform="translate(0.41988239,0.03484499)" />
    </g>
    <g
       style="stroke-width:4.08449793"
       inkscape:transform-center-y="-9.4924686"
       inkscape:transform-center-x="5.4653607"
       inkscape:label="Capa 1"
       id="layer1-4"
       transform="matrix(0.51049916,0,0,0.51168467,-276.3423,-2.5791469)">
      <g
         style="stroke-width:4.08449793"
         id="layer1-3-65"
         inkscape:label="Capa 1"
         transform="translate(0.41988239,0.03484499)" />
    </g>
    <g
       style="stroke-width:4.08449793"
       inkscape:transform-center-y="-9.4924686"
       inkscape:transform-center-x="5.4653607"
       inkscape:label="Capa 1"
       id="layer1-4-9-22-2"
       transform="matrix(0.51049916,0,0,0.51168467,-314.3213,-2.6029503)">
      <g
         style="stroke-width:4.08449793"
         id="layer1-3-65-0-7-9"
         inkscape:label="Capa 1"
         transform="translate(0.41988239,0.03484499)" />
    </g>
    <g
       style="stroke-width:4.08449793"
       inkscape:transform-center-y="-9.4924686"
       inkscape:transform-center-x="5.4653607"
       inkscape:label="Capa 1"
       id="layer1-4-3-1"
       transform="matrix(0.51049916,0,0,0.51168467,-314.3213,-2.5791408)">
      <g
         style="stroke-width:4.08449793"
         id="layer1-3-65-7-2"
         inkscape:label="Capa 1"
         transform="translate(0.41988239,0.03484499)" />
    </g>
    <g
       style="stroke-width:4.08449793"
       inkscape:transform-center-y="-9.4924686"
       inkscape:transform-center-x="5.4653607"
       inkscape:label="Capa 1"
       id="layer1-4-9-2-7"
       transform="matrix(0.51049916,0,0,0.51168467,-345.51563,-44.124914)">
      <g
         style="stroke-width:4.08449793"
         id="layer1-3-65-0-2-0"
         inkscape:label="Capa 1"
         transform="translate(0.41988239,0.03484499)" />
    </g>
    <g
       style="stroke-width:4.08449793"
       inkscape:transform-center-y="-9.4924686"
       inkscape:transform-center-x="5.4653607"
       inkscape:label="Capa 1"
       id="layer1-4-7-9"
       transform="matrix(0.51049916,0,0,0.51168467,-345.51563,-44.101103)">
      <g
         style="stroke-width:4.08449793"
         id="layer1-3-65-3-3"
         inkscape:label="Capa 1"
         transform="translate(0.41988239,0.03484499)" />
    </g>
    <g
       style="stroke-width:4.08449793"
       inkscape:transform-center-y="-9.4924686"
       inkscape:transform-center-x="5.4653607"
       inkscape:label="Capa 1"
       id="layer1-4-9-6"
       transform="matrix(0.51049916,0,0,0.51168467,-314.3213,-2.6029532)">
      <g
         style="stroke-width:4.08449793"
         id="layer1-3-65-0-0"
         inkscape:label="Capa 1"
         transform="translate(0.41988239,0.03484499)" />
    </g>
    <g
       style="stroke-width:4.08449793"
       inkscape:transform-center-y="-9.4924686"
       inkscape:transform-center-x="5.4653607"
       inkscape:label="Capa 1"
       id="layer1-4-6"
       transform="matrix(0.51049916,0,0,0.51168467,-314.3213,-2.5791436)">
      <g
         style="stroke-width:4.08449793"
         id="layer1-3-65-2"
         inkscape:label="Capa 1"
         transform="translate(0.41988239,0.03484499)" />
    </g>
    <path
       id="path1228-2"
       d="m 2.938372,267.54339 c -1.041487,0 -1.880038,0.84847 -1.880038,1.90269 v 2.2792 1.56214 0.75398 6.3617 1.52372 9.63997 0.69198 c 0,0.46439 0.366268,0.83814 0.82141,0.83814 h 0.678191 28.750798 0.67819 c 0.455143,0 0.82141,-0.37375 0.82141,-0.83814 v -0.69198 -9.63997 -1.52372 -7.11568 -1.56214 c 0,-0.87753 -0.698096,-1.58376 -1.565057,-1.58376 H 12.435024 C 11.5062,270.05422 11.466096,267.83373 9.8325,267.54339 Z"
       style="opacity:0.25;fill:#000000;fill-opacity:1;stroke:none;stroke-width:0.1916258;stroke-miterlimit:4;stroke-dasharray:none;stroke-opacity:1"
       inkscape:connector-curvature="0" />
    <path
       inkscape:connector-curvature="0"
       style="fill:#828181;fill-opacity:1;stroke:none;stroke-width:0.20120709;stroke-miterlimit:4;stroke-dasharray:none;stroke-opacity:1"
       d="m 2.938372,267.03637 c -1.041487,0 -1.880038,0.84847 -1.880038,1.9027 v 2.27921 1.56211 0.754 6.36168 1.52374 9.63997 0.69198 c 0,0.46439 0.366268,0.83815 0.82141,0.83815 h 0.678191 28.750798 0.67819 c 0.455143,0 0.82141,-0.37376 0.82141,-0.83815 v -0.69198 -9.63997 -1.52374 -7.11568 -1.56211 c 0,-0.87754 -0.698096,-1.58378 -1.565057,-1.58378 H 12.435024 C 11.5062,269.5473 11.466096,267.32673 9.8325,267.03637 Z"
       id="path7028-3-7" />
    <path
       inkscape:connector-curvature="0"
       id="rect5176-9-0"
       d="m 2.558051,271.25039 c -0.830841,0 -1.499648,0.68251 -1.499648,1.53024 v 7.11529 11.16398 0.69196 c 0,0.46439 0.366342,0.83817 0.821483,0.83817 h 0.678165 28.750621 0.678168 c 0.455144,0 0.821482,-0.37378 0.821482,-0.83817 v -0.69196 -11.16398 -7.11529 c 0,-0.84773 -0.668804,-1.53024 -1.49965,-1.53024 z"
       style="fill:url(#linearGradient7011-3-6);fill-opacity:1;stroke:none;stroke-width:0.20120709;stroke-miterlimit:4;stroke-dasharray:none;stroke-opacity:1" />
    <g
       style="stroke-width:4.08449793"
       inkscape:transform-center-y="-9.4924686"
       inkscape:transform-center-x="5.4653607"
       inkscape:label="Capa 1"
       id="layer1-4-9-22-9"
       transform="matrix(0.51049916,0,0,0.51168467,-314.3213,-2.6029503)">
      <g
         style="stroke-width:4.08449793"
         id="layer1-3-65-0-7-3"
         inkscape:label="Capa 1"
         transform="translate(0.41988239,0.03484499)" />
    </g>
    <g
       style="stroke-width:4.08449793"
       inkscape:transform-center-y="-9.4924686"
       inkscape:transform-center-x="5.4653607"
       inkscape:label="Capa 1"
       id="layer1-4-3-6"
       transform="matrix(0.51049916,0,0,0.51168467,-314.3213,-2.5791408)">
      <g
         style="stroke-width:4.08449793"
         id="layer1-3-65-7-0"
         inkscape:label="Capa 1"
         transform="translate(0.41988239,0.03484499)" />
    </g>
    <g
       style="stroke-width:4.08449793"
       inkscape:transform-center-y="-9.4924686"
       inkscape:transform-center-x="5.4653607"
       inkscape:label="Capa 1"
       id="layer1-4-9-2-6"
       transform="matrix(0.51049916,0,0,0.51168467,-345.51563,-44.124914)">
      <g
         style="stroke-width:4.08449793"
         id="layer1-3-65-0-2-2"
         inkscape:label="Capa 1"
         transform="translate(0.41988239,0.03484499)" />
    </g>
    <g
       style="stroke-width:4.08449793"
       inkscape:transform-center-y="-9.4924686"
       inkscape:transform-center-x="5.4653607"
       inkscape:label="Capa 1"
       id="layer1-4-7-6"
       transform="matrix(0.51049916,0,0,0.51168467,-345.51563,-44.101103)">
      <g
         style="stroke-width:4.08449793"
         id="layer1-3-65-3-1"
         inkscape:label="Capa 1"
         transform="translate(0.41988239,0.03484499)" />
    </g>
    <g
       style="stroke-width:4.08449793"
       inkscape:transform-center-y="-9.4924686"
       inkscape:transform-center-x="5.4653607"
       inkscape:label="Capa 1"
       id="layer1-4-9-8"
       transform="matrix(0.51049916,0,0,0.51168467,-314.3213,-2.6029532)">
      <g
         style="stroke-width:4.08449793"
         id="layer1-3-65-0-79"
         inkscape:label="Capa 1"
         transform="translate(0.41988239,0.03484499)" />
    </g>
    <g
       style="stroke-width:4.08449793"
       inkscape:transform-center-y="-9.4924686"
       inkscape:transform-center-x="5.4653607"
       inkscape:label="Capa 1"
       id="layer1-4-2"
       transform="matrix(0.51049916,0,0,0.51168467,-314.3213,-2.5791436)">
      <g
         style="stroke-width:4.08449793"
         id="layer1-3-65-02"
         inkscape:label="Capa 1"
         transform="translate(0.41988239,0.03484499)" />
    </g>
    <path
       sodipodi:nodetypes="cccccccsscscccccccccccccccccscccccccscsscccccsccccccccccccccccccccccccccccccccccsscccscccsccccccccccccccscccscccccs"
       inkscape:connector-curvature="0"
       d="m 17.046974,274.47026 c -0.124223,0.002 -0.257234,0.0323 -0.384284,0.0914 -0.343638,0.15997 -0.674703,0.40331 -0.770165,0.5662 -0.153564,0.26204 -0.117992,0.49065 0.144306,0.92988 0.08199,0.13725 0.405166,0.69072 0.718345,1.22993 0.481583,0.82916 1.274229,2.19124 3.459104,5.9446 v 1.4e-4 c 0.195907,0.33654 0.359427,0.57921 0.390136,0.57921 0.02906,0 0.20807,-0.0898 0.397836,-0.19958 0.189755,-0.10978 0.541522,-0.31224 0.78173,-0.44992 0.251462,-0.14414 0.436773,-0.27288 0.436773,-0.3035 0,-0.0447 -0.630314,-1.20276 -0.713432,-1.31072 -0.01508,-0.0197 -0.09857,-0.16404 -0.185631,-0.32089 -0.140201,-0.25277 -1.781127,-3.1186 -2.102535,-3.67198 -0.06831,-0.11765 -0.273573,-0.47867 -0.456048,-0.8022 -0.182475,-0.32352 -0.415682,-0.73255 -0.518234,-0.90902 -0.102542,-0.17647 -0.279714,-0.48134 -0.393711,-0.67741 -0.263276,-0.45284 -0.31258,-0.5169 -0.472655,-0.6147 -0.09178,-0.0561 -0.207312,-0.0832 -0.331535,-0.0815 z m -1.65274,2.57892 c -0.15627,-0.007 -0.344267,0.0649 -0.481024,0.18841 -0.116873,0.10559 -0.459802,0.6565 -0.695356,1.11698 -0.0754,0.14736 -0.09387,0.12923 0.427077,0.42044 0.196066,0.10959 0.524945,0.29998 0.730828,0.42308 0.205883,0.1231 0.407513,0.22488 0.447938,0.22616 0.05572,0.002 0.113997,-0.0687 0.241037,-0.29167 0.09218,-0.16176 0.228752,-0.39888 0.303502,-0.52686 0.158038,-0.27062 0.219645,-0.43227 0.219645,-0.5759 0,-0.13118 -0.08838,-0.34359 -0.18656,-0.44807 -0.09977,-0.1062 -0.797079,-0.49445 -0.942244,-0.5246 -0.02077,-0.004 -0.04254,-0.007 -0.06481,-0.008 z m -1.34739,1.68716 c -0.01079,-10e-4 -0.01867,5.1e-4 -0.02397,0.004 -0.04504,0.0285 -1.296169,2.16433 -1.529825,2.61173 -0.08129,0.15563 -0.754177,1.33939 -0.911955,1.60424 -0.548244,0.92036 -1.590963,2.79427 -1.576213,2.83272 0.01019,0.0265 0.135828,0.11096 0.279315,0.18776 0.143497,0.0768 0.501566,0.27848 0.795681,0.44819 0.294115,0.16972 0.538557,0.30897 0.543211,0.30948 0.01178,10e-4 0.179159,-0.26461 0.313588,-0.49829 0.06202,-0.10785 0.261988,-0.45273 0.444353,-0.76645 0.182366,-0.31372 0.48451,-0.83518 0.671429,-1.15871 0.344926,-0.59697 0.552338,-0.95456 1.147948,-1.97856 0.182475,-0.31373 0.438341,-0.7549 0.568586,-0.98038 0.130245,-0.22549 0.393292,-0.67939 0.584535,-1.00869 0.191233,-0.32929 0.34262,-0.62548 0.336318,-0.65814 -0.007,-0.0348 -0.343838,-0.2505 -0.81162,-0.51957 -0.533583,-0.30689 -0.755954,-0.42268 -0.831423,-0.42906 z m -3.910497,3.17063 c -0.894279,-0.002 -1.807842,-0.009 -1.837123,0.0204 -0.01698,0.017 -0.005,0.41745 0,0.90632 l -7e-5,0.889 h 0.49923 c 0.274511,0.01 0.843976,7.8e-4 1.26554,0 h 0.76645 l 0.106967,-0.13435 c 0.05882,-0.0921 0.243263,-0.40226 0.409929,-0.68924 0.166666,-0.28701 0.363242,-0.61672 0.436773,-0.7327 0.0735,-0.11598 0.133671,-0.22008 0.133671,-0.23903 -0.670859,-0.0142 -1.247245,-0.004 -1.781367,-0.0204 z m 13.631779,0.0204 c -0.867724,-9.9e-4 -1.733052,-0.0159 -1.74895,0 -0.02996,0.03 -0.03725,-0.0133 0.533643,0.9752 l 0.473574,0.82 0.283429,1.2e-4 c 0.366208,0.0231 2.185974,0.0266 2.229046,0 0.04973,-0.0308 0.05003,-1.76444 6e-5,-1.79532 -0.662121,-0.0233 -1.215637,7.7e-4 -1.770802,0 z m -6.822406,0 c -1.792562,-0.002 -2.191996,-0.0396 -2.229435,0 -0.04234,0.0448 -0.221013,0.35718 -0.78944,1.38075 -0.123714,0.22279 -0.218826,0.40192 -0.211536,0.41457 0.01398,0.0226 6.438492,0.0357 6.461102,0.0131 0.007,-0.007 -0.158507,-0.31483 -0.367277,-0.67592 -0.208769,-0.36108 -0.441986,-0.76795 -0.518234,-0.90424 -0.0762,-0.13629 -0.143767,-0.22204 -0.150018,-0.22829 -0.006,-0.006 -0.994035,0.002 -2.195162,0 z m 5.425053,1.20694 c -0.02776,0 -0.325512,0.15829 -0.661741,0.35174 -0.827289,0.47598 -0.946189,0.54946 -0.964035,0.59596 -0.008,0.022 0.0778,0.19871 0.191613,0.39279 0.113837,0.19407 0.322087,0.54936 0.462818,0.78956 0.140731,0.2402 0.272464,0.43678 0.292737,0.43678 0.02027,0 0.335989,-0.17119 0.701597,-0.3803 0.365599,-0.20911 0.725366,-0.41356 0.799527,-0.45444 0.09128,-0.0503 0.130015,-0.0938 0.119859,-0.13434 -0.03435,-0.13724 -0.895787,-1.59775 -0.942375,-1.59775 z m 0.943173,2.04448 c -0.142099,0.004 -0.311691,0.0916 -0.754616,0.35293 -0.615983,0.36349 -0.654061,0.41698 -0.592384,0.83169 0.04564,0.30667 0.227065,0.6979 0.478108,1.03114 0.150308,0.19953 0.422921,0.42545 0.753547,0.62453 0.241826,0.1456 0.539486,0.41369 0.658017,0.59264 0.06272,0.0947 0.147601,0.28463 0.188696,0.42216 0.04105,0.13751 0.09048,0.27008 0.109753,0.29458 0.04654,0.0591 0.08089,0.0562 0.149759,-0.0126 0.09407,-0.0941 0.186958,-0.30312 0.292327,-0.65855 0.09028,-0.30435 0.09947,-0.38605 0.09767,-0.87062 -0.002,-0.55985 -0.03945,-0.84364 -0.162911,-1.22992 -0.206923,-0.64763 -0.686758,-1.25337 -1.075925,-1.35816 -0.05033,-0.0136 -0.09467,-0.0213 -0.14204,-0.0198 z m -13.431798,0.91448 c -0.03465,0 -0.07111,0.028 -0.08119,0.0623 -0.01009,0.0344 -0.08429,0.31105 -0.164909,0.61496 -0.08059,0.30392 -0.19297,0.71308 -0.249684,0.90916 -0.271935,0.9403 -0.427596,1.51807 -0.427596,1.58711 0,0.0477 0.01907,0.0715 0.05153,0.0643 0.02836,-0.006 0.450066,-0.39658 0.937201,-0.86717 0.487126,-0.47057 1.027939,-0.99066 1.201746,-1.15577 l 0.315996,-0.30018 -0.09887,-0.0788 c -0.16335,-0.13026 -1.416327,-0.83594 -1.484256,-0.83594 z"
       style="fill:#828181;fill-opacity:1;stroke:none;stroke-width:1;stroke-miterlimit:4;stroke-dasharray:none;stroke-opacity:1"
       id="path1070" />
  </g>
</svg>
