<?xml version="1.0" encoding="UTF-8" standalone="no"?>
<!-- Created with Inkscape (http://www.inkscape.org/) -->

<svg
   xmlns:osb="http://www.openswatchbook.org/uri/2009/osb"
   xmlns:dc="http://purl.org/dc/elements/1.1/"
   xmlns:cc="http://creativecommons.org/ns#"
   xmlns:rdf="http://www.w3.org/1999/02/22-rdf-syntax-ns#"
   xmlns:svg="http://www.w3.org/2000/svg"
   xmlns="http://www.w3.org/2000/svg"
   xmlns:xlink="http://www.w3.org/1999/xlink"
   xmlns:sodipodi="http://sodipodi.sourceforge.net/DTD/sodipodi-0.dtd"
   xmlns:inkscape="http://www.inkscape.org/namespaces/inkscape"
   width="128"
   height="128"
   viewBox="0 0 33.866666 33.866668"
   version="1.1"
   id="svg8"
   inkscape:version="0.92.3 (2405546, 2018-03-11)"
   sodipodi:docname="default-folder-download.svg">
  <defs
     id="defs2">
    <linearGradient
       id="linearGradient6987"
       osb:paint="solid">
      <stop
         style="stop-color:#77d2fb;stop-opacity:1;"
         offset="0"
         id="stop6985" />
    </linearGradient>
    <linearGradient
       osb:paint="solid"
       id="linearGradient6088">
      <stop
         id="stop6086"
         offset="0"
         style="stop-color:#51b3e3;stop-opacity:1;" />
    </linearGradient>
    <linearGradient
       inkscape:collect="always"
       id="linearGradient7009-7">
      <stop
         style="stop-color:#4d4d4d;stop-opacity:1"
         offset="0"
         id="stop7005-5" />
      <stop
         style="stop-color:#4d4d4d;stop-opacity:1"
         offset="1"
         id="stop7007-3" />
    </linearGradient>
    <linearGradient
       inkscape:collect="always"
       xlink:href="#linearGradient7009-7"
       id="linearGradient7011-3-6"
       x1="123.07384"
       y1="84.320671"
       x2="123.07384"
       y2="167.68925"
       gradientUnits="userSpaceOnUse"
       gradientTransform="matrix(0.24053029,0,0,0.24541785,-14.401575,250.33802)" />
    <style
       id="current-color-scheme"
       type="text/css">.ColorScheme-Text { color:#565656; }</style>
  </defs>
  <sodipodi:namedview
     id="base"
     pagecolor="#ffffff"
     bordercolor="#666666"
     borderopacity="1.0"
     inkscape:pageopacity="0.0"
     inkscape:pageshadow="2"
     inkscape:zoom="1.9999999"
     inkscape:cx="153.75934"
     inkscape:cy="11.221987"
     inkscape:document-units="mm"
     inkscape:current-layer="layer1"
     showgrid="false"
     inkscape:window-width="1533"
     inkscape:window-height="836"
     inkscape:window-x="67"
     inkscape:window-y="27"
     inkscape:window-maximized="1"
     units="px"
     showguides="false" />
  <metadata
     id="metadata5">
    <rdf:RDF>
      <cc:Work
         rdf:about="">
        <dc:format>image/svg+xml</dc:format>
        <dc:type
           rdf:resource="http://purl.org/dc/dcmitype/StillImage" />
        <dc:title></dc:title>
      </cc:Work>
    </rdf:RDF>
  </metadata>
  <g
     inkscape:label="Layer 1"
     inkscape:groupmode="layer"
     id="layer1"
     transform="translate(0,-263.13331)">
    <g
       style="stroke-width:4.08449793"
       inkscape:transform-center-y="-9.4924686"
       inkscape:transform-center-x="5.4653607"
       inkscape:label="Capa 1"
       id="layer1-4-9-22"
       transform="matrix(0.51049916,0,0,0.51168467,-314.3213,-2.6029569)">
      <g
         style="stroke-width:4.08449793"
         id="layer1-3-65-0-7"
         inkscape:label="Capa 1"
         transform="translate(0.41988239,0.03484499)" />
    </g>
    <g
       style="stroke-width:4.08449793"
       inkscape:transform-center-y="-9.4924686"
       inkscape:transform-center-x="5.4653607"
       inkscape:label="Capa 1"
       id="layer1-4-3"
       transform="matrix(0.51049916,0,0,0.51168467,-314.3213,-2.5791474)">
      <g
         style="stroke-width:4.08449793"
         id="layer1-3-65-7"
         inkscape:label="Capa 1"
         transform="translate(0.41988239,0.03484499)" />
    </g>
    <g
       style="stroke-width:4.08449793"
       inkscape:transform-center-y="-9.4924686"
       inkscape:transform-center-x="5.4653607"
       inkscape:label="Capa 1"
       id="layer1-4-9-2"
       transform="matrix(0.51049916,0,0,0.51168467,-345.51563,-44.12492)">
      <g
         style="stroke-width:4.08449793"
         id="layer1-3-65-0-2"
         inkscape:label="Capa 1"
         transform="translate(0.41988239,0.03484499)" />
    </g>
    <g
       style="stroke-width:4.08449793"
       inkscape:transform-center-y="-9.4924686"
       inkscape:transform-center-x="5.4653607"
       inkscape:label="Capa 1"
       id="layer1-4-7"
       transform="matrix(0.51049916,0,0,0.51168467,-345.51563,-44.101109)">
      <g
         style="stroke-width:4.08449793"
         id="layer1-3-65-3"
         inkscape:label="Capa 1"
         transform="translate(0.41988239,0.03484499)" />
    </g>
    <g
       style="stroke-width:4.08449793"
       inkscape:transform-center-y="-9.4924686"
       inkscape:transform-center-x="5.4653607"
       inkscape:label="Capa 1"
       id="layer1-4-9"
       transform="matrix(0.51049916,0,0,0.51168467,-314.3213,-2.6029598)">
      <g
         style="stroke-width:4.08449793"
         id="layer1-3-65-0"
         inkscape:label="Capa 1"
         transform="translate(0.41988239,0.03484499)" />
    </g>
    <g
       style="stroke-width:4.08449793"
       inkscape:transform-center-y="-9.4924686"
       inkscape:transform-center-x="5.4653607"
       inkscape:label="Capa 1"
       id="layer1-4"
       transform="matrix(0.51049916,0,0,0.51168467,-314.3213,-2.5791502)">
      <g
         style="stroke-width:4.08449793"
         id="layer1-3-65"
         inkscape:label="Capa 1"
         transform="translate(0.41988239,0.03484499)" />
    </g>
    <g
       style="stroke-width:4.08449793"
       inkscape:transform-center-y="-9.4924686"
       inkscape:transform-center-x="5.4653607"
       inkscape:label="Capa 1"
       id="layer1-4-9-22-6"
       transform="matrix(0.51049916,0,0,0.51168467,-314.3213,-2.6029536)">
      <g
         style="stroke-width:4.08449793"
         id="layer1-3-65-0-7-2"
         inkscape:label="Capa 1"
         transform="translate(0.41988239,0.03484499)" />
    </g>
    <g
       style="stroke-width:4.08449793"
       inkscape:transform-center-y="-9.4924686"
       inkscape:transform-center-x="5.4653607"
       inkscape:label="Capa 1"
       id="layer1-4-3-9"
       transform="matrix(0.51049916,0,0,0.51168467,-314.3213,-2.5791441)">
      <g
         style="stroke-width:4.08449793"
         id="layer1-3-65-7-1"
         inkscape:label="Capa 1"
         transform="translate(0.41988239,0.03484499)" />
    </g>
    <g
       style="stroke-width:4.08449793"
       inkscape:transform-center-y="-9.4924686"
       inkscape:transform-center-x="5.4653607"
       inkscape:label="Capa 1"
       id="layer1-4-9-2-2"
       transform="matrix(0.51049916,0,0,0.51168467,-345.51563,-44.124917)">
      <g
         style="stroke-width:4.08449793"
         id="layer1-3-65-0-2-7"
         inkscape:label="Capa 1"
         transform="translate(0.41988239,0.03484499)" />
    </g>
    <g
       style="stroke-width:4.08449793"
       inkscape:transform-center-y="-9.4924686"
       inkscape:transform-center-x="5.4653607"
       inkscape:label="Capa 1"
       id="layer1-4-7-0"
       transform="matrix(0.51049916,0,0,0.51168467,-345.51563,-44.101106)">
      <g
         style="stroke-width:4.08449793"
         id="layer1-3-65-3-9"
         inkscape:label="Capa 1"
         transform="translate(0.41988239,0.03484499)" />
    </g>
    <g
       style="stroke-width:4.08449793"
       inkscape:transform-center-y="-9.4924686"
       inkscape:transform-center-x="5.4653607"
       inkscape:label="Capa 1"
       id="layer1-4-9-3"
       transform="matrix(0.51049916,0,0,0.51168467,-314.3213,-2.6029565)">
      <g
         style="stroke-width:4.08449793"
         id="layer1-3-65-0-6"
         inkscape:label="Capa 1"
         transform="translate(0.41988239,0.03484499)" />
    </g>
    <g
       style="stroke-width:4.08449793"
       inkscape:transform-center-y="-9.4924686"
       inkscape:transform-center-x="5.4653607"
       inkscape:label="Capa 1"
       id="layer1-4-0"
       transform="matrix(0.51049916,0,0,0.51168467,-314.3213,-2.5791469)">
      <g
         style="stroke-width:4.08449793"
         id="layer1-3-65-6"
         inkscape:label="Capa 1"
         transform="translate(0.41988239,0.03484499)" />
    </g>
    <path
       id="path1228-2"
       d="m 2.9383716,267.54339 c -1.0414871,0 -1.8800378,0.84847 -1.8800378,1.90269 v 2.2792 1.56214 0.75398 6.3617 1.52372 9.63997 0.69198 c 0,0.46439 0.3662678,0.83814 0.8214097,0.83814 h 0.6781915 28.750798 0.67819 c 0.455143,0 0.82141,-0.37375 0.82141,-0.83814 v -0.69198 -9.63997 -1.52372 -7.11568 -1.56214 c 0,-0.87753 -0.698096,-1.58376 -1.565057,-1.58376 H 12.435024 c -0.928824,-0.0873 -0.968928,-2.30779 -2.6025243,-2.59813 z"
       style="opacity:0.25;fill:#000000;fill-opacity:1;stroke:none;stroke-width:0.1916258;stroke-miterlimit:4;stroke-dasharray:none;stroke-opacity:1"
       inkscape:connector-curvature="0" />
    <path
       inkscape:connector-curvature="0"
       style="fill:#828181;fill-opacity:1;stroke:none;stroke-width:0.20120709;stroke-miterlimit:4;stroke-dasharray:none;stroke-opacity:1"
       d="m 2.9383716,267.03637 c -1.0414871,0 -1.8800378,0.84847 -1.8800378,1.9027 v 2.27921 1.56211 0.754 6.36168 1.52374 9.63997 0.69198 c 0,0.46439 0.3662678,0.83815 0.8214097,0.83815 h 0.6781915 28.750798 0.67819 c 0.455143,0 0.82141,-0.37376 0.82141,-0.83815 v -0.69198 -9.63997 -1.52374 -7.11568 -1.56211 c 0,-0.87754 -0.698096,-1.58378 -1.565057,-1.58378 H 12.435024 c -0.928824,-0.0872 -0.968928,-2.30777 -2.6025243,-2.59813 z"
       id="path7028-3-7" />
    <path
       inkscape:connector-curvature="0"
       id="rect5176-9-0"
       d="m 2.5580509,271.25039 c -0.8308415,0 -1.4996481,0.68251 -1.4996481,1.53024 v 7.11529 11.16398 0.69196 c 0,0.46439 0.3663416,0.83817 0.8214834,0.83817 H 2.5580509 31.308672 31.98684 c 0.455144,0 0.821482,-0.37378 0.821482,-0.83817 v -0.69196 -11.16398 -7.11529 c 0,-0.84773 -0.668804,-1.53024 -1.49965,-1.53024 z"
       style="fill:url(#linearGradient7011-3-6);fill-opacity:1;stroke:none;stroke-width:0.20120709;stroke-miterlimit:4;stroke-dasharray:none;stroke-opacity:1" />
    <g
       style="stroke-width:4.08449793"
       inkscape:transform-center-y="-9.4924686"
       inkscape:transform-center-x="5.4653607"
       inkscape:label="Capa 1"
       id="layer1-4-9-22-9"
       transform="matrix(0.51049916,0,0,0.51168467,-314.3213,-2.6029536)">
      <g
         style="stroke-width:4.08449793"
         id="layer1-3-65-0-7-3"
         inkscape:label="Capa 1"
         transform="translate(0.41988239,0.03484499)" />
    </g>
    <g
       style="stroke-width:4.08449793"
       inkscape:transform-center-y="-9.4924686"
       inkscape:transform-center-x="5.4653607"
       inkscape:label="Capa 1"
       id="layer1-4-3-6"
       transform="matrix(0.51049916,0,0,0.51168467,-314.3213,-2.5791441)">
      <g
         style="stroke-width:4.08449793"
         id="layer1-3-65-7-0"
         inkscape:label="Capa 1"
         transform="translate(0.41988239,0.03484499)" />
    </g>
    <g
       style="stroke-width:4.08449793"
       inkscape:transform-center-y="-9.4924686"
       inkscape:transform-center-x="5.4653607"
       inkscape:label="Capa 1"
       id="layer1-4-9-2-6"
       transform="matrix(0.51049916,0,0,0.51168467,-345.51563,-44.124917)">
      <g
         style="stroke-width:4.08449793"
         id="layer1-3-65-0-2-2"
         inkscape:label="Capa 1"
         transform="translate(0.41988239,0.03484499)" />
    </g>
    <g
       style="stroke-width:4.08449793"
       inkscape:transform-center-y="-9.4924686"
       inkscape:transform-center-x="5.4653607"
       inkscape:label="Capa 1"
       id="layer1-4-7-6"
       transform="matrix(0.51049916,0,0,0.51168467,-345.51563,-44.101106)">
      <g
         style="stroke-width:4.08449793"
         id="layer1-3-65-3-1"
         inkscape:label="Capa 1"
         transform="translate(0.41988239,0.03484499)" />
    </g>
    <g
       style="stroke-width:4.08449793"
       inkscape:transform-center-y="-9.4924686"
       inkscape:transform-center-x="5.4653607"
       inkscape:label="Capa 1"
       id="layer1-4-9-8"
       transform="matrix(0.51049916,0,0,0.51168467,-314.3213,-2.6029565)">
      <g
         style="stroke-width:4.08449793"
         id="layer1-3-65-0-79"
         inkscape:label="Capa 1"
         transform="translate(0.41988239,0.03484499)" />
    </g>
    <g
       style="stroke-width:4.08449793"
       inkscape:transform-center-y="-9.4924686"
       inkscape:transform-center-x="5.4653607"
       inkscape:label="Capa 1"
       id="layer1-4-2"
       transform="matrix(0.51049916,0,0,0.51168467,-314.3213,-2.5791469)">
      <g
         style="stroke-width:4.08449793"
         id="layer1-3-65-02"
         inkscape:label="Capa 1"
         transform="translate(0.41988239,0.03484499)" />
    </g>
    <path
       id="path8401"
       style="fill:#828181;fill-opacity:1;stroke:none;stroke-width:0.15585367;stroke-miterlimit:4;stroke-dasharray:none;stroke-opacity:1"
       d="m 17.318125,274.19946 c -0.162408,0.002 -0.32471,0.01 -0.486661,0.0216 -2.563003,0.20552 -4.740058,1.6062 -5.992076,3.8552 -0.9056317,1.6268 -1.1341179,3.62645 -0.62677,5.48493 0.590974,2.1648 2.184534,4.00042 4.232894,4.87591 0.682643,0.29176 1.303766,0.46033 2.047874,0.5557 0.724099,0.0928 1.608186,0.054 2.410545,-0.10602 0.15326,-0.0305 0.505935,-0.13003 0.783719,-0.22099 2.532592,-0.82932 4.430091,-2.9802 4.977734,-5.64257 0.139619,-0.67876 0.167498,-1.8364 0.0602,-2.49948 -0.236004,-1.45858 -0.764414,-2.60857 -1.714894,-3.73193 -1.352404,-1.59841 -3.436861,-2.56265 -5.530114,-2.59194 -0.05414,-7.7e-4 -0.108324,-7.7e-4 -0.162459,-5.1e-4 z m -1.653562,3.26928 h 1.706831 1.70673 l 0.0098,2.04822 c 0.0054,1.12651 0.01675,2.06768 0.02512,2.09156 0.01173,0.0337 0.28009,0.0434 1.183129,0.0434 1.077187,0 1.252254,0.0133 1.133332,0.0866 -0.03386,0.0208 -0.306976,0.34445 -2.49096,2.95095 -0.591931,0.70647 -1.185668,1.41332 -1.319462,1.57083 -0.1338,0.15752 -0.254113,0.2864 -0.267365,0.2864 -0.02813,0 -0.257121,-0.26951 -2.034502,-2.39533 -0.726353,-0.86876 -1.490007,-1.77721 -1.697037,-2.01884 -0.207027,-0.24162 -0.376349,-0.44864 -0.376349,-0.46 0,-0.0114 0.533417,-0.0207 1.185374,-0.0207 0.916633,0 1.188951,-0.0106 1.201192,-0.0434 0.0087,-0.0238 0.01995,-0.96505 0.02501,-2.09156 z"
       inkscape:connector-curvature="0" />
  </g>
</svg>
