<?xml version="1.0" encoding="UTF-8" standalone="no"?>
<!-- Created with Inkscape (http://www.inkscape.org/) -->

<svg
   xmlns:osb="http://www.openswatchbook.org/uri/2009/osb"
   xmlns:dc="http://purl.org/dc/elements/1.1/"
   xmlns:cc="http://creativecommons.org/ns#"
   xmlns:rdf="http://www.w3.org/1999/02/22-rdf-syntax-ns#"
   xmlns:svg="http://www.w3.org/2000/svg"
   xmlns="http://www.w3.org/2000/svg"
   xmlns:xlink="http://www.w3.org/1999/xlink"
   xmlns:sodipodi="http://sodipodi.sourceforge.net/DTD/sodipodi-0.dtd"
   xmlns:inkscape="http://www.inkscape.org/namespaces/inkscape"
   width="128"
   height="128"
   viewBox="0 0 33.866666 33.866668"
   version="1.1"
   id="svg8"
   inkscape:version="0.92.4 (5da689c313, 2019-01-14)"
   sodipodi:docname="folder-games.svg">
  <defs
     id="defs2">
    <linearGradient
       id="linearGradient6987"
       osb:paint="solid">
      <stop
         style="stop-color:#77d2fb;stop-opacity:1;"
         offset="0"
         id="stop6985" />
    </linearGradient>
    <linearGradient
       id="linearGradient1185"
       inkscape:collect="always">
      <stop
         id="stop1181"
         offset="0"
         style="stop-color:#d1ab65;stop-opacity:1" />
      <stop
         id="stop1183"
         offset="1"
         style="stop-color:#d1b377;stop-opacity:1" />
    </linearGradient>
    <linearGradient
       id="linearGradient4527-8"
       inkscape:collect="always">
      <stop
         id="stop4523-2"
         offset="0"
         style="stop-color:#d9bb76;stop-opacity:1" />
      <stop
         id="stop4525-3"
         offset="1"
         style="stop-color:#ffedb3;stop-opacity:1" />
    </linearGradient>
    <linearGradient
       id="linearGradient4521-9"
       inkscape:collect="always">
      <stop
         id="stop4517-5"
         offset="0"
         style="stop-color:#d9ba74;stop-opacity:1" />
      <stop
         id="stop4519-9"
         offset="1"
         style="stop-color:#ffedb3;stop-opacity:1" />
    </linearGradient>
    <linearGradient
       inkscape:collect="always"
       id="linearGradient1006-7">
      <stop
         style="stop-color:#d9bb76;stop-opacity:1"
         offset="0"
         id="stop1002-0" />
      <stop
         style="stop-color:#ffedb2;stop-opacity:1"
         offset="1"
         id="stop1004-7" />
    </linearGradient>
    <linearGradient
       id="linearGradient7009-2"
       inkscape:collect="always">
      <stop
         id="stop7005-6"
         offset="0"
         style="stop-color:#ffdb87;stop-opacity:1" />
      <stop
         id="stop7007-6"
         offset="1"
         style="stop-color:#ffedb3;stop-opacity:1" />
    </linearGradient>
    <linearGradient
       gradientTransform="matrix(0.2390156,0,0,0.24387238,-48.335502,250.52523)"
       gradientUnits="userSpaceOnUse"
       y2="160.63724"
       x2="124.11147"
       y1="84.320671"
       x1="123.07384"
       id="linearGradient7011-3-5"
       xlink:href="#linearGradient7009-2"
       inkscape:collect="always" />
    <linearGradient
       gradientTransform="matrix(0.24885348,0,0,0.27188195,-33.12238,261.51336)"
       gradientUnits="userSpaceOnUse"
       y2="110.65087"
       x2="70.726562"
       y1="113.65864"
       x1="70.726562"
       id="linearGradient1033-6-0"
       xlink:href="#linearGradient1006-7"
       inkscape:collect="always" />
    <linearGradient
       gradientTransform="matrix(0.25035429,0,0,0.25190856,-33.22241,263.51934)"
       gradientUnits="userSpaceOnUse"
       y2="107.45322"
       x2="60.902935"
       y1="111.36977"
       x1="60.902935"
       id="linearGradient986-2-2"
       xlink:href="#linearGradient4527-8"
       inkscape:collect="always" />
    <linearGradient
       gradientTransform="matrix(0.25042541,0,0,0.25190856,-33.22577,263.63042)"
       gradientUnits="userSpaceOnUse"
       y2="103.91254"
       x2="59.245655"
       y1="107.43008"
       x1="59.245655"
       id="linearGradient994-9-5"
       xlink:href="#linearGradient4521-9"
       inkscape:collect="always" />
    <linearGradient
       id="linearGradient6088"
       osb:paint="solid">
      <stop
         style="stop-color:#51b3e3;stop-opacity:1;"
         offset="0"
         id="stop6086" />
    </linearGradient>
    <linearGradient
       inkscape:collect="always"
       xlink:href="#linearGradient1185"
       id="linearGradient1272"
       x1="33.031593"
       y1="297.26086"
       x2="33.138206"
       y2="303.10739"
       gradientUnits="userSpaceOnUse"
       gradientTransform="matrix(1.1826985,0,0,1.1826985,-56.07842,-74.746371)" />
  </defs>
  <sodipodi:namedview
     id="base"
     pagecolor="#ffffff"
     bordercolor="#666666"
     borderopacity="1.0"
     inkscape:pageopacity="0.0"
     inkscape:pageshadow="2"
     inkscape:zoom="0.70710675"
     inkscape:cx="-231.45138"
     inkscape:cy="81.36716"
     inkscape:document-units="mm"
     inkscape:current-layer="layer1"
     showgrid="false"
     inkscape:window-width="1600"
     inkscape:window-height="838"
     inkscape:window-x="-8"
     inkscape:window-y="-8"
     inkscape:window-maximized="1"
     units="px"
     showguides="false" />
  <metadata
     id="metadata5">
    <rdf:RDF>
      <cc:Work
         rdf:about="">
        <dc:format>image/svg+xml</dc:format>
        <dc:type
           rdf:resource="http://purl.org/dc/dcmitype/StillImage" />
        <dc:title />
      </cc:Work>
    </rdf:RDF>
  </metadata>
  <g
     inkscape:label="Layer 1"
     inkscape:groupmode="layer"
     id="layer1"
     transform="translate(0,-263.13331)">
    <g
       style="stroke-width:4.08449793"
       inkscape:transform-center-y="-9.4924686"
       inkscape:transform-center-x="5.4653607"
       inkscape:label="Capa 1"
       id="layer1-4-9-22"
       transform="matrix(0.51049916,0,0,0.51168467,-314.3213,-2.6029569)">
      <g
         style="stroke-width:4.08449793"
         id="layer1-3-65-0-7"
         inkscape:label="Capa 1"
         transform="translate(0.41988239,0.03484499)" />
    </g>
    <g
       style="stroke-width:4.08449793"
       inkscape:transform-center-y="-9.4924686"
       inkscape:transform-center-x="5.4653607"
       inkscape:label="Capa 1"
       id="layer1-4-3"
       transform="matrix(0.51049916,0,0,0.51168467,-314.3213,-2.5791474)">
      <g
         style="stroke-width:4.08449793"
         id="layer1-3-65-7"
         inkscape:label="Capa 1"
         transform="translate(0.41988239,0.03484499)" />
    </g>
    <g
       style="stroke-width:4.08449793"
       inkscape:transform-center-y="-9.4924686"
       inkscape:transform-center-x="5.4653607"
       inkscape:label="Capa 1"
       id="layer1-4-9-2"
       transform="matrix(0.51049916,0,0,0.51168467,-345.51563,-44.12492)">
      <g
         style="stroke-width:4.08449793"
         id="layer1-3-65-0-2"
         inkscape:label="Capa 1"
         transform="translate(0.41988239,0.03484499)" />
    </g>
    <g
       style="stroke-width:4.08449793"
       inkscape:transform-center-y="-9.4924686"
       inkscape:transform-center-x="5.4653607"
       inkscape:label="Capa 1"
       id="layer1-4-7"
       transform="matrix(0.51049916,0,0,0.51168467,-345.51563,-44.101109)">
      <g
         style="stroke-width:4.08449793"
         id="layer1-3-65-3"
         inkscape:label="Capa 1"
         transform="translate(0.41988239,0.03484499)" />
    </g>
    <g
       style="stroke-width:4.08449793"
       inkscape:transform-center-y="-9.4924686"
       inkscape:transform-center-x="5.4653607"
       inkscape:label="Capa 1"
       id="layer1-4-9"
       transform="matrix(0.51049916,0,0,0.51168467,-314.3213,-2.6029598)">
      <g
         style="stroke-width:4.08449793"
         id="layer1-3-65-0"
         inkscape:label="Capa 1"
         transform="translate(0.41988239,0.03484499)" />
    </g>
    <g
       style="stroke-width:4.08449793"
       inkscape:transform-center-y="-9.4924686"
       inkscape:transform-center-x="5.4653607"
       inkscape:label="Capa 1"
       id="layer1-4"
       transform="matrix(0.51049916,0,0,0.51168467,-314.3213,-2.5791502)">
      <g
         style="stroke-width:4.08449793"
         id="layer1-3-65"
         inkscape:label="Capa 1"
         transform="translate(0.41988239,0.03484499)" />
    </g>
    <g
       style="stroke-width:4.08449793"
       inkscape:transform-center-y="-9.4924686"
       inkscape:transform-center-x="5.4653607"
       inkscape:label="Capa 1"
       id="layer1-4-9-22-0"
       transform="matrix(0.51049916,0,0,0.51168467,-239.34422,-2.1755159)">
      <g
         style="stroke-width:4.08449793"
         id="layer1-3-65-0-7-6"
         inkscape:label="Capa 1"
         transform="translate(0.41988239,0.03484499)" />
    </g>
    <g
       style="stroke-width:4.08449793"
       inkscape:transform-center-y="-9.4924686"
       inkscape:transform-center-x="5.4653607"
       inkscape:label="Capa 1"
       id="layer1-4-3-2"
       transform="matrix(0.51049916,0,0,0.51168467,-239.34422,-2.1517064)">
      <g
         style="stroke-width:4.08449793"
         id="layer1-3-65-7-6"
         inkscape:label="Capa 1"
         transform="translate(0.41988239,0.03484499)" />
    </g>
    <g
       style="stroke-width:4.08449793"
       inkscape:transform-center-y="-9.4924686"
       inkscape:transform-center-x="5.4653607"
       inkscape:label="Capa 1"
       id="layer1-4-9-2-1"
       transform="matrix(0.51049916,0,0,0.51168467,-270.53856,-43.697479)">
      <g
         style="stroke-width:4.08449793"
         id="layer1-3-65-0-2-8"
         inkscape:label="Capa 1"
         transform="translate(0.41988239,0.03484499)" />
    </g>
    <g
       style="stroke-width:4.08449793"
       inkscape:transform-center-y="-9.4924686"
       inkscape:transform-center-x="5.4653607"
       inkscape:label="Capa 1"
       id="layer1-4-7-7"
       transform="matrix(0.51049916,0,0,0.51168467,-270.53856,-43.673668)">
      <g
         style="stroke-width:4.08449793"
         id="layer1-3-65-3-9"
         inkscape:label="Capa 1"
         transform="translate(0.41988239,0.03484499)" />
    </g>
    <g
       style="stroke-width:4.08449793"
       inkscape:transform-center-y="-9.4924686"
       inkscape:transform-center-x="5.4653607"
       inkscape:label="Capa 1"
       id="layer1-4-9-20"
       transform="matrix(0.51049916,0,0,0.51168467,-239.34422,-2.1755188)">
      <g
         style="stroke-width:4.08449793"
         id="layer1-3-65-0-23"
         inkscape:label="Capa 1"
         transform="translate(0.41988239,0.03484499)" />
    </g>
    <g
       style="stroke-width:4.08449793"
       inkscape:transform-center-y="-9.4924686"
       inkscape:transform-center-x="5.4653607"
       inkscape:label="Capa 1"
       id="layer1-4-75"
       transform="matrix(0.51049916,0,0,0.51168467,-239.34422,-2.1517092)">
      <g
         style="stroke-width:4.08449793"
         id="layer1-3-65-9"
         inkscape:label="Capa 1"
         transform="translate(0.41988239,0.03484499)" />
    </g>
    <g
       style="stroke-width:4.08449793"
       inkscape:transform-center-y="-9.4924686"
       inkscape:transform-center-x="5.4653607"
       inkscape:label="Capa 1"
       id="layer1-4-9-22-19"
       transform="matrix(0.51049916,0,0,0.51168467,-348.45255,-2.6529353)">
      <g
         style="stroke-width:4.08449793"
         id="layer1-3-65-0-7-2"
         inkscape:label="Capa 1"
         transform="translate(0.41988239,0.03484499)" />
    </g>
    <g
       style="stroke-width:4.08449793"
       inkscape:transform-center-y="-9.4924686"
       inkscape:transform-center-x="5.4653607"
       inkscape:label="Capa 1"
       id="layer1-4-3-98"
       transform="matrix(0.51049916,0,0,0.51168467,-348.45255,-2.6291258)">
      <g
         style="stroke-width:4.08449793"
         id="layer1-3-65-7-8"
         inkscape:label="Capa 1"
         transform="translate(0.41988239,0.03484499)" />
    </g>
    <g
       style="stroke-width:4.08449793"
       inkscape:transform-center-y="-9.4924686"
       inkscape:transform-center-x="5.4653607"
       inkscape:label="Capa 1"
       id="layer1-4-9-2-26"
       transform="matrix(0.51049916,0,0,0.51168467,-379.64688,-44.174899)">
      <g
         style="stroke-width:4.08449793"
         id="layer1-3-65-0-2-7"
         inkscape:label="Capa 1"
         transform="translate(0.41988239,0.03484499)" />
    </g>
    <g
       style="stroke-width:4.08449793"
       inkscape:transform-center-y="-9.4924686"
       inkscape:transform-center-x="5.4653607"
       inkscape:label="Capa 1"
       id="layer1-4-7-8"
       transform="matrix(0.51049916,0,0,0.51168467,-379.64688,-44.151088)">
      <g
         style="stroke-width:4.08449793"
         id="layer1-3-65-3-70"
         inkscape:label="Capa 1"
         transform="translate(0.41988239,0.03484499)" />
    </g>
    <g
       style="stroke-width:4.08449793"
       inkscape:transform-center-y="-9.4924686"
       inkscape:transform-center-x="5.4653607"
       inkscape:label="Capa 1"
       id="layer1-4-9-26"
       transform="matrix(0.51049916,0,0,0.51168467,-348.45255,-2.6529382)">
      <g
         style="stroke-width:4.08449793"
         id="layer1-3-65-0-0"
         inkscape:label="Capa 1"
         transform="translate(0.41988239,0.03484499)" />
    </g>
    <g
       style="stroke-width:4.08449793"
       inkscape:transform-center-y="-9.4924686"
       inkscape:transform-center-x="5.4653607"
       inkscape:label="Capa 1"
       id="layer1-4-73"
       transform="matrix(0.51049916,0,0,0.51168467,-348.45255,-2.6291286)">
      <g
         style="stroke-width:4.08449793"
         id="layer1-3-65-5"
         inkscape:label="Capa 1"
         transform="translate(0.41988239,0.03484499)" />
    </g>
    <g
       style="stroke-width:4.08449793"
       inkscape:transform-center-y="-9.4924686"
       inkscape:transform-center-x="5.4653607"
       inkscape:label="Capa 1"
       id="layer1-4-9-22-8"
       transform="matrix(0.51049917,0,0,0.51168468,-170.91714,-2.6529406)">
      <g
         style="stroke-width:4.08449793"
         id="layer1-3-65-0-7-6-1"
         inkscape:label="Capa 1"
         transform="translate(0.41988239,0.03484499)" />
    </g>
    <g
       style="stroke-width:4.08449793"
       inkscape:transform-center-y="-9.4924686"
       inkscape:transform-center-x="5.4653607"
       inkscape:label="Capa 1"
       id="layer1-4-3-5"
       transform="matrix(0.51049917,0,0,0.51168468,-170.91714,-2.6291311)">
      <g
         style="stroke-width:4.08449793"
         id="layer1-3-65-7-9"
         inkscape:label="Capa 1"
         transform="translate(0.41988239,0.03484499)" />
    </g>
    <g
       style="stroke-width:4.08449793"
       inkscape:transform-center-y="-9.4924686"
       inkscape:transform-center-x="5.4653607"
       inkscape:label="Capa 1"
       id="layer1-4-9-2-4"
       transform="matrix(0.51049917,0,0,0.51168468,-202.11146,-44.174904)">
      <g
         style="stroke-width:4.08449793"
         id="layer1-3-65-0-2-6"
         inkscape:label="Capa 1"
         transform="translate(0.41988239,0.03484499)" />
    </g>
    <g
       style="stroke-width:4.08449793"
       inkscape:transform-center-y="-9.4924686"
       inkscape:transform-center-x="5.4653607"
       inkscape:label="Capa 1"
       id="layer1-4-7-1"
       transform="matrix(0.51049917,0,0,0.51168468,-202.11146,-44.151094)">
      <g
         style="stroke-width:4.08449793"
         id="layer1-3-65-3-7"
         inkscape:label="Capa 1"
         transform="translate(0.41988239,0.03484499)" />
    </g>
    <g
       style="stroke-width:4.08449793"
       inkscape:transform-center-y="-9.4924686"
       inkscape:transform-center-x="5.4653607"
       inkscape:label="Capa 1"
       id="layer1-4-9-5"
       transform="matrix(0.51049917,0,0,0.51168468,-170.91714,-2.6529435)">
      <g
         style="stroke-width:4.08449793"
         id="layer1-3-65-0-5"
         inkscape:label="Capa 1"
         transform="translate(0.41988239,0.03484499)" />
    </g>
    <g
       style="stroke-width:4.08449793"
       inkscape:transform-center-y="-9.4924686"
       inkscape:transform-center-x="5.4653607"
       inkscape:label="Capa 1"
       id="layer1-4-8"
       transform="matrix(0.51049917,0,0,0.51168468,-170.91714,-2.6291339)">
      <g
         style="stroke-width:4.08449793"
         id="layer1-3-65-01"
         inkscape:label="Capa 1"
         transform="translate(0.41988239,0.03484499)" />
    </g>
    <g
       style="stroke-width:4.08449793"
       inkscape:transform-center-y="-9.4924686"
       inkscape:transform-center-x="5.4653607"
       inkscape:label="Capa 1"
       id="layer1-4-9-22-4"
       transform="matrix(0.51049917,0,0,0.51168468,-214.04422,-2.7029223)">
      <g
         style="stroke-width:4.08449793"
         id="layer1-3-65-0-7-9"
         inkscape:label="Capa 1"
         transform="translate(0.41988239,0.03484499)" />
    </g>
    <g
       style="stroke-width:4.08449793"
       inkscape:transform-center-y="-9.4924686"
       inkscape:transform-center-x="5.4653607"
       inkscape:label="Capa 1"
       id="layer1-4-3-0"
       transform="matrix(0.51049917,0,0,0.51168468,-214.04422,-2.6791128)">
      <g
         style="stroke-width:4.08449793"
         id="layer1-3-65-7-4"
         inkscape:label="Capa 1"
         transform="translate(0.41988239,0.03484499)" />
    </g>
    <g
       style="stroke-width:4.08449793"
       inkscape:transform-center-y="-9.4924686"
       inkscape:transform-center-x="5.4653607"
       inkscape:label="Capa 1"
       id="layer1-4-9-2-3"
       transform="matrix(0.51049917,0,0,0.51168468,-245.23856,-44.224886)">
      <g
         style="stroke-width:4.08449793"
         id="layer1-3-65-0-2-0"
         inkscape:label="Capa 1"
         transform="translate(0.41988239,0.03484499)" />
    </g>
    <g
       style="stroke-width:4.08449793"
       inkscape:transform-center-y="-9.4924686"
       inkscape:transform-center-x="5.4653607"
       inkscape:label="Capa 1"
       id="layer1-4-7-0"
       transform="matrix(0.51049917,0,0,0.51168468,-245.23856,-44.201075)">
      <g
         style="stroke-width:4.08449793"
         id="layer1-3-65-3-1"
         inkscape:label="Capa 1"
         transform="translate(0.41988239,0.03484499)" />
    </g>
    <g
       style="stroke-width:4.08449793"
       inkscape:transform-center-y="-9.4924686"
       inkscape:transform-center-x="5.4653607"
       inkscape:label="Capa 1"
       id="layer1-4-9-3"
       transform="matrix(0.51049917,0,0,0.51168468,-214.04422,-2.7029251)">
      <g
         style="stroke-width:4.08449793"
         id="layer1-3-65-0-74"
         inkscape:label="Capa 1"
         transform="translate(0.41988239,0.03484499)" />
    </g>
    <g
       style="stroke-width:4.08449793"
       inkscape:transform-center-y="-9.4924686"
       inkscape:transform-center-x="5.4653607"
       inkscape:label="Capa 1"
       id="layer1-4-35"
       transform="matrix(0.51049917,0,0,0.51168468,-214.04422,-2.6791155)">
      <g
         style="stroke-width:4.08449793"
         id="layer1-3-65-2"
         inkscape:label="Capa 1"
         transform="translate(0.41988239,0.03484499)" />
    </g>
    <g
       style="stroke-width:4.08449793"
       inkscape:transform-center-y="-9.4924686"
       inkscape:transform-center-x="5.4653607"
       inkscape:label="Capa 1"
       id="layer1-4-9-22-80"
       transform="matrix(0.51049916,0,0,0.51168467,-300.82755,-2.6529403)">
      <g
         style="stroke-width:4.08449793"
         id="layer1-3-65-0-7-98"
         inkscape:label="Capa 1"
         transform="translate(0.41988239,0.03484499)" />
    </g>
    <g
       style="stroke-width:4.08449793"
       inkscape:transform-center-y="-9.4924686"
       inkscape:transform-center-x="5.4653607"
       inkscape:label="Capa 1"
       id="layer1-4-3-8"
       transform="matrix(0.51049916,0,0,0.51168467,-300.82755,-2.6291308)">
      <g
         style="stroke-width:4.08449793"
         id="layer1-3-65-7-3"
         inkscape:label="Capa 1"
         transform="translate(0.41988239,0.03484499)" />
    </g>
    <g
       style="stroke-width:4.08449793"
       inkscape:transform-center-y="-9.4924686"
       inkscape:transform-center-x="5.4653607"
       inkscape:label="Capa 1"
       id="layer1-4-9-2-0"
       transform="matrix(0.51049916,0,0,0.51168467,-332.02188,-44.174904)">
      <g
         style="stroke-width:4.08449793"
         id="layer1-3-65-0-2-4"
         inkscape:label="Capa 1"
         transform="translate(0.41988239,0.03484499)" />
    </g>
    <g
       style="stroke-width:4.08449793"
       inkscape:transform-center-y="-9.4924686"
       inkscape:transform-center-x="5.4653607"
       inkscape:label="Capa 1"
       id="layer1-4-7-08"
       transform="matrix(0.51049916,0,0,0.51168467,-332.02188,-44.151093)">
      <g
         style="stroke-width:4.08449793"
         id="layer1-3-65-3-6"
         inkscape:label="Capa 1"
         transform="translate(0.41988239,0.03484499)" />
    </g>
    <g
       style="stroke-width:4.08449793"
       inkscape:transform-center-y="-9.4924686"
       inkscape:transform-center-x="5.4653607"
       inkscape:label="Capa 1"
       id="layer1-4-9-65"
       transform="matrix(0.51049916,0,0,0.51168467,-300.82755,-2.6529432)">
      <g
         style="stroke-width:4.08449793"
         id="layer1-3-65-0-8"
         inkscape:label="Capa 1"
         transform="translate(0.41988239,0.03484499)" />
    </g>
    <g
       style="stroke-width:4.08449793"
       inkscape:transform-center-y="-9.4924686"
       inkscape:transform-center-x="5.4653607"
       inkscape:label="Capa 1"
       id="layer1-4-5"
       transform="matrix(0.51049916,0,0,0.51168467,-300.82755,-2.6291336)">
      <g
         style="stroke-width:4.08449793"
         id="layer1-3-65-06"
         inkscape:label="Capa 1"
         transform="translate(0.41988239,0.03484499)" />
    </g>
    <g
       style="stroke-width:4.08449793"
       inkscape:transform-center-y="-9.4924686"
       inkscape:transform-center-x="5.4653607"
       inkscape:label="Capa 1"
       id="layer1-4-9-22-6"
       transform="matrix(0.51049916,0,0,0.51168467,-347.59972,-2.702922)">
      <g
         style="stroke-width:4.08449793"
         id="layer1-3-65-0-7-6-7"
         inkscape:label="Capa 1"
         transform="translate(0.41988239,0.03484499)" />
    </g>
    <g
       style="stroke-width:4.08449793"
       inkscape:transform-center-y="-9.4924686"
       inkscape:transform-center-x="5.4653607"
       inkscape:label="Capa 1"
       id="layer1-4-3-9"
       transform="matrix(0.51049916,0,0,0.51168467,-347.59972,-2.6791125)">
      <g
         style="stroke-width:4.08449793"
         id="layer1-3-65-7-9-7"
         inkscape:label="Capa 1"
         transform="translate(0.41988239,0.03484499)" />
    </g>
    <g
       style="stroke-width:4.08449793"
       inkscape:transform-center-y="-9.4924686"
       inkscape:transform-center-x="5.4653607"
       inkscape:label="Capa 1"
       id="layer1-4-9-2-8"
       transform="matrix(0.51049916,0,0,0.51168467,-378.79405,-44.224886)">
      <g
         style="stroke-width:4.08449793"
         id="layer1-3-65-0-2-0-2"
         inkscape:label="Capa 1"
         transform="translate(0.41988239,0.03484499)" />
    </g>
    <g
       style="stroke-width:4.08449793"
       inkscape:transform-center-y="-9.4924686"
       inkscape:transform-center-x="5.4653607"
       inkscape:label="Capa 1"
       id="layer1-4-7-2"
       transform="matrix(0.51049916,0,0,0.51168467,-378.79405,-44.201075)">
      <g
         style="stroke-width:4.08449793"
         id="layer1-3-65-3-3"
         inkscape:label="Capa 1"
         transform="translate(0.41988239,0.03484499)" />
    </g>
    <g
       style="stroke-width:4.08449793"
       inkscape:transform-center-y="-9.4924686"
       inkscape:transform-center-x="5.4653607"
       inkscape:label="Capa 1"
       id="layer1-4-9-5-1"
       transform="matrix(0.51049916,0,0,0.51168467,-347.59972,-2.7029249)">
      <g
         style="stroke-width:4.08449793"
         id="layer1-3-65-0-4"
         inkscape:label="Capa 1"
         transform="translate(0.41988239,0.03484499)" />
    </g>
    <g
       style="stroke-width:4.08449793"
       inkscape:transform-center-y="-9.4924686"
       inkscape:transform-center-x="5.4653607"
       inkscape:label="Capa 1"
       id="layer1-4-2"
       transform="matrix(0.51049916,0,0,0.51168467,-347.59972,-2.6791153)">
      <g
         style="stroke-width:4.08449793"
         id="layer1-3-65-6"
         inkscape:label="Capa 1"
         transform="translate(0.41988239,0.03484499)" />
    </g>
    <g
       style="stroke-width:4.08449793"
       inkscape:transform-center-y="-9.4924686"
       inkscape:transform-center-x="5.4653607"
       inkscape:label="Capa 1"
       id="layer1-4-9-22-1"
       transform="matrix(0.5137343,0,0,0.51492732,-276.27263,28.441897)">
      <g
         style="stroke-width:4.08449793"
         id="layer1-3-65-0-7-7"
         inkscape:label="Capa 1"
         transform="translate(0.41988239,0.03484499)" />
    </g>
    <g
       style="stroke-width:4.08449793"
       inkscape:transform-center-y="-9.4924686"
       inkscape:transform-center-x="5.4653607"
       inkscape:label="Capa 1"
       id="layer1-4-3-5-1"
       transform="matrix(0.5137343,0,0,0.51492732,-276.27263,28.465857)">
      <g
         style="stroke-width:4.08449793"
         id="layer1-3-65-7-2"
         inkscape:label="Capa 1"
         transform="translate(0.41988239,0.03484499)" />
    </g>
    <g
       style="stroke-width:4.08449793"
       inkscape:transform-center-y="-9.4924686"
       inkscape:transform-center-x="5.4653607"
       inkscape:label="Capa 1"
       id="layer1-4-9-2-2"
       transform="matrix(0.5137343,0,0,0.51492732,-307.66465,-13.343199)">
      <g
         style="stroke-width:4.08449793"
         id="layer1-3-65-0-2-2"
         inkscape:label="Capa 1"
         transform="translate(0.41988239,0.03484499)" />
    </g>
    <g
       style="stroke-width:4.08449793"
       inkscape:transform-center-y="-9.4924686"
       inkscape:transform-center-x="5.4653607"
       inkscape:label="Capa 1"
       id="layer1-4-7-3"
       transform="matrix(0.5137343,0,0,0.51492732,-307.66465,-13.319238)">
      <g
         style="stroke-width:4.08449793"
         id="layer1-3-65-3-7-9"
         inkscape:label="Capa 1"
         transform="translate(0.41988239,0.03484499)" />
    </g>
    <g
       style="stroke-width:4.08449793"
       inkscape:transform-center-y="-9.4924686"
       inkscape:transform-center-x="5.4653607"
       inkscape:label="Capa 1"
       id="layer1-4-9-6"
       transform="matrix(0.5137343,0,0,0.51492732,-276.27263,28.441894)">
      <g
         style="stroke-width:4.08449793"
         id="layer1-3-65-0-9"
         inkscape:label="Capa 1"
         transform="translate(0.41988239,0.03484499)" />
    </g>
    <g
       style="stroke-width:4.08449793"
       inkscape:transform-center-y="-9.4924686"
       inkscape:transform-center-x="5.4653607"
       inkscape:label="Capa 1"
       id="layer1-4-20"
       transform="matrix(0.5137343,0,0,0.51492732,-276.27263,28.465854)">
      <g
         style="stroke-width:4.08449793"
         id="layer1-3-65-9-7"
         inkscape:label="Capa 1"
         transform="translate(0.41988239,0.03484499)" />
    </g>
    <g
       style="stroke-width:4.08449793"
       inkscape:transform-center-y="-9.4924686"
       inkscape:transform-center-x="5.4653607"
       inkscape:label="Capa 1"
       id="layer1-4-9-22-4-5"
       transform="matrix(0.5137343,0,0,0.51492732,-319.67303,28.391598)">
      <g
         style="stroke-width:4.08449793"
         id="layer1-3-65-0-7-9-6"
         inkscape:label="Capa 1"
         transform="translate(0.41988239,0.03484499)" />
    </g>
    <g
       style="stroke-width:4.08449793"
       inkscape:transform-center-y="-9.4924686"
       inkscape:transform-center-x="5.4653607"
       inkscape:label="Capa 1"
       id="layer1-4-3-0-7"
       transform="matrix(0.5137343,0,0,0.51492732,-319.67303,28.415559)">
      <g
         style="stroke-width:4.08449793"
         id="layer1-3-65-7-4-1"
         inkscape:label="Capa 1"
         transform="translate(0.41988239,0.03484499)" />
    </g>
    <g
       style="stroke-width:4.08449793"
       inkscape:transform-center-y="-9.4924686"
       inkscape:transform-center-x="5.4653607"
       inkscape:label="Capa 1"
       id="layer1-4-9-2-3-1"
       transform="matrix(0.5137343,0,0,0.51492732,-351.06504,-13.393498)">
      <g
         style="stroke-width:4.08449793"
         id="layer1-3-65-0-2-0-6"
         inkscape:label="Capa 1"
         transform="translate(0.41988239,0.03484499)" />
    </g>
    <g
       style="stroke-width:4.08449793"
       inkscape:transform-center-y="-9.4924686"
       inkscape:transform-center-x="5.4653607"
       inkscape:label="Capa 1"
       id="layer1-4-7-0-0"
       transform="matrix(0.5137343,0,0,0.51492732,-351.06504,-13.369536)">
      <g
         style="stroke-width:4.08449793"
         id="layer1-3-65-3-1-4"
         inkscape:label="Capa 1"
         transform="translate(0.41988239,0.03484499)" />
    </g>
    <g
       style="stroke-width:4.08449793"
       inkscape:transform-center-y="-9.4924686"
       inkscape:transform-center-x="5.4653607"
       inkscape:label="Capa 1"
       id="layer1-4-9-3-1"
       transform="matrix(0.5137343,0,0,0.51492732,-319.67303,28.391595)">
      <g
         style="stroke-width:4.08449793"
         id="layer1-3-65-0-74-4"
         inkscape:label="Capa 1"
         transform="translate(0.41988239,0.03484499)" />
    </g>
    <g
       style="stroke-width:4.08449793"
       inkscape:transform-center-y="-9.4924686"
       inkscape:transform-center-x="5.4653607"
       inkscape:label="Capa 1"
       id="layer1-4-35-5"
       transform="matrix(0.5137343,0,0,0.51492732,-319.67303,28.415556)">
      <g
         style="stroke-width:4.08449793"
         id="layer1-3-65-2-8"
         inkscape:label="Capa 1"
         transform="translate(0.41988239,0.03484499)" />
    </g>
    <g
       id="g1385"
       transform="translate(34.131252,-1.6666667e-6)">
      <path
         inkscape:connector-curvature="0"
         style="opacity:0.25;fill:#000000;fill-opacity:1;stroke:none;stroke-width:0.19041908;stroke-miterlimit:4;stroke-dasharray:none;stroke-opacity:1"
         d="m -31.10475,267.62225 c -1.034928,0 -1.868199,0.84313 -1.868199,1.89071 v 2.26485 1.5523 0.74923 6.32164 1.51413 9.57926 0.68762 c 0,0.46147 0.363962,0.83287 0.816238,0.83287 h 0.67392 28.569746 0.673919 c 0.452277,0 0.816237,-0.3714 0.816237,-0.83287 v -0.68762 -9.57926 -1.51413 -7.07087 -1.5523 c 0,-0.872 -0.6937,-1.57379 -1.555201,-1.57379 h -18.689811 c -0.922975,-0.0867 -0.962826,-2.29325 -2.586135,-2.58177 z"
         id="path1228-4" />
      <path
         id="path7028-3-6"
         d="m -31.10475,267.11843 c -1.034928,0 -1.868199,0.84312 -1.868199,1.89072 v 2.26485 1.55228 0.74925 6.32162 1.51414 9.57926 0.68763 c 0,0.46146 0.363962,0.83287 0.816238,0.83287 h 0.67392 28.569746 0.673919 c 0.452277,0 0.816237,-0.37141 0.816237,-0.83287 v -0.68763 -9.57926 -1.51414 -7.07087 -1.55228 c 0,-0.87201 -0.6937,-1.5738 -1.555201,-1.5738 h -18.689811 c -0.922975,-0.0867 -0.962826,-2.29324 -2.586135,-2.58177 z"
         style="fill:#ffedb4;fill-opacity:1;stroke:#998453;stroke-width:0.2;stroke-miterlimit:4;stroke-dasharray:none;stroke-opacity:1"
         inkscape:connector-curvature="0" />
      <path
         style="fill:url(#linearGradient7011-3-5);fill-opacity:1;stroke:#998453;stroke-width:0.2;stroke-miterlimit:4;stroke-dasharray:none;stroke-opacity:1"
         d="m -31.482676,271.30591 c -0.825609,0 -1.490204,0.67821 -1.490204,1.5206 v 7.07049 11.09367 0.68761 c 0,0.46146 0.364035,0.83289 0.81631,0.83289 h 0.673894 28.56957 0.673897 c 0.452278,0 0.816309,-0.37143 0.816309,-0.83289 v -0.68761 -11.09367 -7.07049 c 0,-0.84239 -0.664592,-1.5206 -1.490206,-1.5206 z"
         id="rect5176-9-9"
         inkscape:connector-curvature="0" />
      <path
         sodipodi:nodetypes="csasccsaaascc"
         inkscape:connector-curvature="0"
         id="path1020-0-8"
         d="m -32.873526,291.37577 -0.0025,0.23008 c -0.002,0.18203 0.02726,0.37488 0.138218,0.51284 0.138573,0.1723 0.290852,0.30781 0.588556,0.30593 l 0.756743,-0.005 h 28.393603 0.669764 c 0.295013,0 0.291401,-0.0227 0.420899,-0.0834 0.0948,-0.0445 0.178294,-0.1163 0.243997,-0.19782 0.05306,-0.0659 0.09079,-0.14527 0.114247,-0.22651 0.02856,-0.099 0.02789,-0.19192 0.02928,-0.30757 l 0.0028,-0.22925 z"
         style="fill:url(#linearGradient1033-6-0);fill-opacity:1;stroke:none;stroke-width:0.19041908;stroke-miterlimit:4;stroke-dasharray:none;stroke-opacity:1" />
      <path
         inkscape:connector-curvature="0"
         id="path966-9-1"
         d="m -32.880456,289.79939 v 0.893 h 31.363827 v -0.893 z"
         style="fill:url(#linearGradient994-9-5);fill-opacity:1;stroke:none;stroke-width:0.19041906;stroke-miterlimit:4;stroke-dasharray:none;stroke-opacity:1" />
      <path
         sodipodi:nodetypes="ccsccsccc"
         inkscape:connector-curvature="0"
         id="path973-3-2"
         d="m -32.877194,290.69594 v 0.12152 0.68735 c 0,0.0288 -8.58e-4,0.06 0.0019,0.0881 l 31.350093,-0.004 c 0.0028,-0.0281 0.0029,-0.0553 0.0029,-0.0842 v -0.68734 -0.12152 z"
         style="fill:url(#linearGradient986-2-2);fill-opacity:1;stroke:none;stroke-width:0.19041908;stroke-miterlimit:4;stroke-dasharray:none;stroke-opacity:1" />
      <path
         style="fill:url(#linearGradient1272);fill-opacity:1;stroke-width:0.03497153"
         d="m -24.635623,287.22793 c -0.446568,-0.0689 -0.837243,-0.37522 -1.04911,-0.82244 -0.145335,-0.30679 -0.237182,-0.66328 -0.308024,-1.19555 -0.03031,-0.22764 -0.06985,-0.50829 -0.0879,-0.62371 -0.05561,-0.35557 -0.07716,-1.2714 -0.04073,-1.7311 0.158057,-1.99495 0.629868,-3.61996 1.486755,-5.12066 0.708123,-1.24015 1.604131,-1.98705 2.646912,-2.2064 0.142691,-0.03 0.43166,-0.052 0.684933,-0.052 0.896846,0 1.680302,0.25465 2.609051,0.84804 0.149323,0.0954 0.385381,0.21492 0.524573,0.2656 0.242557,0.0883 0.28288,0.0921 0.969994,0.0921 0.687114,0 0.727437,-0.004 0.969993,-0.0921 0.139193,-0.0507 0.37525,-0.17019 0.524573,-0.2656 0.926916,-0.59223 1.740453,-0.85715 2.616895,-0.85219 0.982151,0.006 1.717984,0.32746 2.4457,1.06991 0.9894579,1.00945 1.849295,2.92604 2.1865127,4.87374 0.1986618,1.14743 0.2561289,2.45658 0.1384102,3.15309 -0.017881,0.10574 -0.057057,0.3847 -0.087046,0.61981 -0.1669123,1.30821 -0.5887702,1.92584 -1.3932356,2.03977 -0.5157173,0.0731 -0.8718933,-0.0828 -1.6489853,-0.72095 -0.366082,-0.30068 -1.325768,-1.25857 -1.762317,-1.759 -0.330955,-0.37938 -0.441731,-0.47415 -0.690416,-0.59065 l -0.205103,-0.096 h -3.09498 -3.09498 l -0.205105,0.096 c -0.248686,0.1165 -0.359462,0.21126 -0.690416,0.59064 -0.436549,0.50044 -1.396236,1.45833 -1.762317,1.75901 -0.779413,0.64017 -1.157158,0.80182 -1.683639,0.72055 z m 3.89808,-5.25331 0.16362,-0.0811 0.01749,-0.57705 0.01749,-0.57701 0.575272,-0.009 c 0.674791,-0.0117 0.667285,-0.009 0.776349,-0.36685 0.08231,-0.27095 0.07305,-0.45979 -0.03445,-0.7028 -0.11788,-0.26649 -0.119588,-0.26712 -0.725156,-0.26712 h -0.539563 v -0.55285 c 0,-0.38888 -0.01296,-0.56962 -0.04371,-0.60932 -0.06485,-0.0837 -0.391624,-0.16675 -0.656506,-0.16675 -0.251714,0 -0.55241,0.0738 -0.598797,0.1469 -0.01586,0.0249 -0.02908,0.30118 -0.02936,0.61373 l -5.34e-4,0.56829 h -0.570347 c -0.402998,0 -0.586832,0.0129 -0.626531,0.0437 -0.155268,0.12081 -0.221971,0.7017 -0.115254,1.0037 0.09986,0.28258 0.0971,0.28151 0.723034,0.28151 h 0.554125 v 0.55819 c 0,0.52647 0.0043,0.56216 0.07534,0.62837 0.206033,0.19195 0.71822,0.22462 1.0375,0.0663 z m 7.448198,-0.0308 c 0.338194,-0.169 0.528533,-0.4487 0.557165,-0.81877 0.03304,-0.42715 -0.234665,-0.84395 -0.639317,-0.99535 -0.242653,-0.0908 -0.450908,-0.0916 -0.687667,-0.004 -0.245848,0.092 -0.409923,0.23305 -0.535658,0.46038 -0.09051,0.16364 -0.103616,0.22263 -0.103734,0.46707 -1.06e-4,0.22534 0.01577,0.3104 0.08167,0.43714 0.189821,0.36509 0.491698,0.55178 0.90054,0.55689 0.170985,0.003 0.255193,-0.0186 0.427001,-0.10432 z m 2.392141,-1.21377 c 0.590797,-0.26134 0.773801,-1.05416 0.355998,-1.54227 -0.06828,-0.0799 -0.197592,-0.18821 -0.287339,-0.24098 -0.145332,-0.0854 -0.197604,-0.0959 -0.477922,-0.0958 -0.234506,1.2e-4 -0.3436,0.0158 -0.427929,0.0618 -0.464889,0.25352 -0.679452,0.78801 -0.501552,1.24945 0.08137,0.21106 0.162926,0.31682 0.360207,0.46715 0.267692,0.20399 0.654821,0.24378 0.978537,0.10053 z m -2.435772,-1.42306 c 0.205866,-0.086 0.459866,-0.35451 0.542581,-0.57353 0.193399,-0.5121 -0.09039,-1.11322 -0.606477,-1.28464 -0.650138,-0.21594 -1.323651,0.26701 -1.317785,0.9449 0.0061,0.7028 0.733944,1.18391 1.381681,0.91327 z"
         id="path1244"
         inkscape:connector-curvature="0" />
    </g>
  </g>
</svg>
