<?xml version="1.0" encoding="UTF-8" standalone="no"?>
<!-- Created with Inkscape (http://www.inkscape.org/) -->

<svg
   xmlns:osb="http://www.openswatchbook.org/uri/2009/osb"
   xmlns:dc="http://purl.org/dc/elements/1.1/"
   xmlns:cc="http://creativecommons.org/ns#"
   xmlns:rdf="http://www.w3.org/1999/02/22-rdf-syntax-ns#"
   xmlns:svg="http://www.w3.org/2000/svg"
   xmlns="http://www.w3.org/2000/svg"
   xmlns:xlink="http://www.w3.org/1999/xlink"
   xmlns:sodipodi="http://sodipodi.sourceforge.net/DTD/sodipodi-0.dtd"
   xmlns:inkscape="http://www.inkscape.org/namespaces/inkscape"
   width="128"
   height="128"
   viewBox="0 0 33.866666 33.866668"
   version="1.1"
   id="svg8"
   inkscape:version="0.92.4 (5da689c313, 2019-01-14)"
   sodipodi:docname="default-folder-system.svg">
  <defs
     id="defs2">
    <linearGradient
       id="linearGradient6987"
       osb:paint="solid">
      <stop
         style="stop-color:#77d2fb;stop-opacity:1;"
         offset="0"
         id="stop6985" />
    </linearGradient>
    <linearGradient
       id="linearGradient6088"
       osb:paint="solid">
      <stop
         style="stop-color:#51b3e3;stop-opacity:1;"
         offset="0"
         id="stop6086" />
    </linearGradient>
    <linearGradient
       id="linearGradient1065"
       inkscape:collect="always">
      <stop
         id="stop1051"
         offset="0"
         style="stop-color:#5a8aa4;stop-opacity:1" />
      <stop
         style="stop-color:#56859f;stop-opacity:1"
         offset="0.16504955"
         id="stop1053" />
      <stop
         id="stop1055"
         offset="0.29030523"
         style="stop-color:#4e7890;stop-opacity:1;" />
      <stop
         id="stop1057"
         offset="0.34926009"
         style="stop-color:#4a7289;stop-opacity:1" />
      <stop
         style="stop-color:#345a6c;stop-opacity:1"
         offset="0.38956389"
         id="stop1059" />
      <stop
         style="stop-color:#33586d;stop-opacity:1"
         offset="0.44399697"
         id="stop1061" />
      <stop
         id="stop1063"
         offset="1"
         style="stop-color:#4e88a4;stop-opacity:0;" />
    </linearGradient>
    <linearGradient
       inkscape:collect="always"
       id="linearGradient1049">
      <stop
         style="stop-color:#65acd6;stop-opacity:1"
         offset="0"
         id="stop1036" />
      <stop
         id="stop1038"
         offset="0.33128312"
         style="stop-color:#70b3d7;stop-opacity:1" />
      <stop
         id="stop1041"
         offset="0.5047847"
         style="stop-color:#7bb6d5;stop-opacity:1" />
      <stop
         style="stop-color:#7db7d7;stop-opacity:1"
         offset="0.63501281"
         id="stop1043" />
      <stop
         id="stop1045"
         offset="0.83962148"
         style="stop-color:#6ea9c6;stop-opacity:1" />
      <stop
         style="stop-color:#6aa4c2;stop-opacity:1"
         offset="1"
         id="stop1047" />
    </linearGradient>
    <linearGradient
       id="linearGradient4527-7"
       inkscape:collect="always">
      <stop
         id="stop4523-5"
         offset="0"
         style="stop-color:#538099;stop-opacity:1" />
      <stop
         id="stop4525-1"
         offset="1"
         style="stop-color:#6da8c5;stop-opacity:1" />
    </linearGradient>
    <linearGradient
       id="linearGradient4521-1"
       inkscape:collect="always">
      <stop
         id="stop4517-7"
         offset="0"
         style="stop-color:#527f98;stop-opacity:1" />
      <stop
         id="stop4519-4"
         offset="1"
         style="stop-color:#6da8c5;stop-opacity:1" />
    </linearGradient>
    <linearGradient
       inkscape:collect="always"
       id="linearGradient1006-6">
      <stop
         style="stop-color:#527e97;stop-opacity:1"
         offset="0"
         id="stop1002-5" />
      <stop
         style="stop-color:#6da8c5;stop-opacity:1"
         offset="1"
         id="stop1004-3" />
    </linearGradient>
    <linearGradient
       gradientTransform="matrix(0.24053029,0,0,0.24541785,-62.576909,250.33802)"
       gradientUnits="userSpaceOnUse"
       y2="170.78709"
       x2="122.68246"
       y1="84.320671"
       x1="123.07384"
       id="linearGradient7011-3-8"
       xlink:href="#linearGradient1049"
       inkscape:collect="always" />
    <linearGradient
       gradientTransform="matrix(0.25043051,0,0,0.27360492,-47.267379,261.39578)"
       gradientUnits="userSpaceOnUse"
       y2="110.65087"
       x2="70.726562"
       y1="113.65864"
       x1="70.726562"
       id="linearGradient1033-6-9"
       xlink:href="#linearGradient1006-6"
       inkscape:collect="always" />
    <linearGradient
       gradientTransform="matrix(0.25194084,0,0,0.25350495,-47.368042,263.41447)"
       gradientUnits="userSpaceOnUse"
       y2="107.45322"
       x2="60.902935"
       y1="111.36977"
       x1="60.902935"
       id="linearGradient986-2-7"
       xlink:href="#linearGradient4527-7"
       inkscape:collect="always" />
    <linearGradient
       gradientTransform="matrix(0.25201241,0,0,0.25350495,-47.371424,263.41447)"
       gradientUnits="userSpaceOnUse"
       y2="103.91254"
       x2="59.245655"
       y1="107.43008"
       x1="59.245655"
       id="linearGradient994-9-8"
       xlink:href="#linearGradient4521-1"
       inkscape:collect="always" />
    <linearGradient
       gradientUnits="userSpaceOnUse"
       y2="281.34308"
       x2="7.6064372"
       y1="267.32977"
       x1="7.5128927"
       id="linearGradient876"
       xlink:href="#linearGradient1065"
       inkscape:collect="always"
       gradientTransform="matrix(1.0063372,0,0,1.0063372,-48.282644,-1.8251418)" />
  </defs>
  <sodipodi:namedview
     id="base"
     pagecolor="#ffffff"
     bordercolor="#666666"
     borderopacity="1.0"
     inkscape:pageopacity="0.0"
     inkscape:pageshadow="2"
     inkscape:zoom="0.99999996"
     inkscape:cx="-334.43889"
     inkscape:cy="-4.8319005"
     inkscape:document-units="mm"
     inkscape:current-layer="layer1"
     showgrid="false"
     inkscape:window-width="1600"
     inkscape:window-height="837"
     inkscape:window-x="-8"
     inkscape:window-y="-8"
     inkscape:window-maximized="1"
     units="px"
     showguides="false" />
  <metadata
     id="metadata5">
    <rdf:RDF>
      <cc:Work
         rdf:about="">
        <dc:format>image/svg+xml</dc:format>
        <dc:type
           rdf:resource="http://purl.org/dc/dcmitype/StillImage" />
        <dc:title />
      </cc:Work>
    </rdf:RDF>
  </metadata>
  <g
     inkscape:label="Layer 1"
     inkscape:groupmode="layer"
     id="layer1"
     transform="translate(0,-263.13331)">
    <g
       id="g1382"
       transform="matrix(0.99370271,0,0,0.99370271,47.978595,1.8136492)">
      <g
         transform="matrix(0.51049916,0,0,0.51168467,-314.3213,-2.6029569)"
         id="layer1-4-9-22"
         inkscape:label="Capa 1"
         inkscape:transform-center-x="5.4653607"
         inkscape:transform-center-y="-9.4924686"
         style="stroke-width:4.08449793">
        <g
           transform="translate(0.41988239,0.03484499)"
           inkscape:label="Capa 1"
           id="layer1-3-65-0-7"
           style="stroke-width:4.08449793" />
      </g>
      <g
         transform="matrix(0.51049916,0,0,0.51168467,-314.3213,-2.5791474)"
         id="layer1-4-3"
         inkscape:label="Capa 1"
         inkscape:transform-center-x="5.4653607"
         inkscape:transform-center-y="-9.4924686"
         style="stroke-width:4.08449793">
        <g
           transform="translate(0.41988239,0.03484499)"
           inkscape:label="Capa 1"
           id="layer1-3-65-7"
           style="stroke-width:4.08449793" />
      </g>
      <g
         transform="matrix(0.51049916,0,0,0.51168467,-345.51563,-44.12492)"
         id="layer1-4-9-2"
         inkscape:label="Capa 1"
         inkscape:transform-center-x="5.4653607"
         inkscape:transform-center-y="-9.4924686"
         style="stroke-width:4.08449793">
        <g
           transform="translate(0.41988239,0.03484499)"
           inkscape:label="Capa 1"
           id="layer1-3-65-0-2"
           style="stroke-width:4.08449793" />
      </g>
      <g
         transform="matrix(0.51049916,0,0,0.51168467,-345.51563,-44.101109)"
         id="layer1-4-7"
         inkscape:label="Capa 1"
         inkscape:transform-center-x="5.4653607"
         inkscape:transform-center-y="-9.4924686"
         style="stroke-width:4.08449793">
        <g
           transform="translate(0.41988239,0.03484499)"
           inkscape:label="Capa 1"
           id="layer1-3-65-3"
           style="stroke-width:4.08449793" />
      </g>
      <g
         transform="matrix(0.51049916,0,0,0.51168467,-314.3213,-2.6029598)"
         id="layer1-4-9"
         inkscape:label="Capa 1"
         inkscape:transform-center-x="5.4653607"
         inkscape:transform-center-y="-9.4924686"
         style="stroke-width:4.08449793">
        <g
           transform="translate(0.41988239,0.03484499)"
           inkscape:label="Capa 1"
           id="layer1-3-65-0"
           style="stroke-width:4.08449793" />
      </g>
      <g
         transform="matrix(0.51049916,0,0,0.51168467,-314.3213,-2.5791502)"
         id="layer1-4"
         inkscape:label="Capa 1"
         inkscape:transform-center-x="5.4653607"
         inkscape:transform-center-y="-9.4924686"
         style="stroke-width:4.08449793">
        <g
           transform="translate(0.41988239,0.03484499)"
           inkscape:label="Capa 1"
           id="layer1-3-65"
           style="stroke-width:4.08449793" />
      </g>
      <g
         transform="matrix(0.5137343,0,0,0.51492732,-402.40478,-4.3942941)"
         id="layer1-4-9-22-8"
         inkscape:label="Capa 1"
         inkscape:transform-center-x="5.4653607"
         inkscape:transform-center-y="-9.4924686"
         style="stroke-width:4.08449793">
        <g
           transform="translate(0.41988239,0.03484499)"
           inkscape:label="Capa 1"
           id="layer1-3-65-0-7-3"
           style="stroke-width:4.08449793" />
      </g>
      <g
         transform="matrix(0.5137343,0,0,0.51492732,-402.40478,-4.3703337)"
         id="layer1-4-3-8"
         inkscape:label="Capa 1"
         inkscape:transform-center-x="5.4653607"
         inkscape:transform-center-y="-9.4924686"
         style="stroke-width:4.08449793">
        <g
           transform="translate(0.41988239,0.03484499)"
           inkscape:label="Capa 1"
           id="layer1-3-65-7-7"
           style="stroke-width:4.08449793" />
      </g>
      <g
         transform="matrix(0.5137343,0,0,0.51492732,-433.7968,-46.17939)"
         id="layer1-4-9-2-7"
         inkscape:label="Capa 1"
         inkscape:transform-center-x="5.4653607"
         inkscape:transform-center-y="-9.4924686"
         style="stroke-width:4.08449793">
        <g
           transform="translate(0.41988239,0.03484499)"
           inkscape:label="Capa 1"
           id="layer1-3-65-0-2-97"
           style="stroke-width:4.08449793" />
      </g>
      <g
         transform="matrix(0.5137343,0,0,0.51492732,-433.7968,-46.155429)"
         id="layer1-4-7-7"
         inkscape:label="Capa 1"
         inkscape:transform-center-x="5.4653607"
         inkscape:transform-center-y="-9.4924686"
         style="stroke-width:4.08449793">
        <g
           transform="translate(0.41988239,0.03484499)"
           inkscape:label="Capa 1"
           id="layer1-3-65-3-71"
           style="stroke-width:4.08449793" />
      </g>
      <g
         transform="matrix(0.5137343,0,0,0.51492732,-402.40478,-4.394297)"
         id="layer1-4-9-99"
         inkscape:label="Capa 1"
         inkscape:transform-center-x="5.4653607"
         inkscape:transform-center-y="-9.4924686"
         style="stroke-width:4.08449793">
        <g
           transform="translate(0.41988239,0.03484499)"
           inkscape:label="Capa 1"
           id="layer1-3-65-0-0"
           style="stroke-width:4.08449793" />
      </g>
      <g
         transform="matrix(0.5137343,0,0,0.51492732,-402.40478,-4.3703365)"
         id="layer1-4-62"
         inkscape:label="Capa 1"
         inkscape:transform-center-x="5.4653607"
         inkscape:transform-center-y="-9.4924686"
         style="stroke-width:4.08449793">
        <g
           transform="translate(0.41988239,0.03484499)"
           inkscape:label="Capa 1"
           id="layer1-3-65-8"
           style="stroke-width:4.08449793" />
      </g>
      <g
         transform="matrix(0.5137343,0,0,0.51492732,-364.59586,-4.3942941)"
         id="layer1-4-9-22-9"
         inkscape:label="Capa 1"
         inkscape:transform-center-x="5.4653607"
         inkscape:transform-center-y="-9.4924686"
         style="stroke-width:4.08449793">
        <g
           transform="translate(0.41988239,0.03484499)"
           inkscape:label="Capa 1"
           id="layer1-3-65-0-7-98"
           style="stroke-width:4.08449793" />
      </g>
      <g
         transform="matrix(0.5137343,0,0,0.51492732,-364.59586,-4.3703337)"
         id="layer1-4-3-09"
         inkscape:label="Capa 1"
         inkscape:transform-center-x="5.4653607"
         inkscape:transform-center-y="-9.4924686"
         style="stroke-width:4.08449793">
        <g
           transform="translate(0.41988239,0.03484499)"
           inkscape:label="Capa 1"
           id="layer1-3-65-7-0"
           style="stroke-width:4.08449793" />
      </g>
      <g
         transform="matrix(0.5137343,0,0,0.51492732,-395.98788,-46.17939)"
         id="layer1-4-9-2-1"
         inkscape:label="Capa 1"
         inkscape:transform-center-x="5.4653607"
         inkscape:transform-center-y="-9.4924686"
         style="stroke-width:4.08449793">
        <g
           transform="translate(0.41988239,0.03484499)"
           inkscape:label="Capa 1"
           id="layer1-3-65-0-2-9"
           style="stroke-width:4.08449793" />
      </g>
      <g
         transform="matrix(0.5137343,0,0,0.51492732,-395.98788,-46.155429)"
         id="layer1-4-7-1"
         inkscape:label="Capa 1"
         inkscape:transform-center-x="5.4653607"
         inkscape:transform-center-y="-9.4924686"
         style="stroke-width:4.08449793">
        <g
           transform="translate(0.41988239,0.03484499)"
           inkscape:label="Capa 1"
           id="layer1-3-65-3-8"
           style="stroke-width:4.08449793" />
      </g>
      <g
         transform="matrix(0.5137343,0,0,0.51492732,-364.59586,-4.394297)"
         id="layer1-4-9-9"
         inkscape:label="Capa 1"
         inkscape:transform-center-x="5.4653607"
         inkscape:transform-center-y="-9.4924686"
         style="stroke-width:4.08449793">
        <g
           transform="translate(0.41988239,0.03484499)"
           inkscape:label="Capa 1"
           id="layer1-3-65-0-78"
           style="stroke-width:4.08449793" />
      </g>
      <g
         transform="matrix(0.5137343,0,0,0.51492732,-364.59586,-4.3703365)"
         id="layer1-4-6"
         inkscape:label="Capa 1"
         inkscape:transform-center-x="5.4653607"
         inkscape:transform-center-y="-9.4924686"
         style="stroke-width:4.08449793">
        <g
           transform="translate(0.41988239,0.03484499)"
           inkscape:label="Capa 1"
           id="layer1-3-65-5"
           style="stroke-width:4.08449793" />
      </g>
      <g
         transform="matrix(0.5137343,0,0,0.51492732,-411.66445,-4.4445925)"
         id="layer1-4-9-22-6"
         inkscape:label="Capa 1"
         inkscape:transform-center-x="5.4653607"
         inkscape:transform-center-y="-9.4924686"
         style="stroke-width:4.08449793">
        <g
           transform="translate(0.41988239,0.03484499)"
           inkscape:label="Capa 1"
           id="layer1-3-65-0-7-6"
           style="stroke-width:4.08449793" />
      </g>
      <g
         transform="matrix(0.5137343,0,0,0.51492732,-411.66445,-4.4206321)"
         id="layer1-4-3-9"
         inkscape:label="Capa 1"
         inkscape:transform-center-x="5.4653607"
         inkscape:transform-center-y="-9.4924686"
         style="stroke-width:4.08449793">
        <g
           transform="translate(0.41988239,0.03484499)"
           inkscape:label="Capa 1"
           id="layer1-3-65-7-9"
           style="stroke-width:4.08449793" />
      </g>
      <g
         transform="matrix(0.5137343,0,0,0.51492732,-443.05645,-46.229689)"
         id="layer1-4-9-2-8"
         inkscape:label="Capa 1"
         inkscape:transform-center-x="5.4653607"
         inkscape:transform-center-y="-9.4924686"
         style="stroke-width:4.08449793">
        <g
           transform="translate(0.41988239,0.03484499)"
           inkscape:label="Capa 1"
           id="layer1-3-65-0-2-0"
           style="stroke-width:4.08449793" />
      </g>
      <g
         transform="matrix(0.5137343,0,0,0.51492732,-443.05645,-46.205727)"
         id="layer1-4-7-2"
         inkscape:label="Capa 1"
         inkscape:transform-center-x="5.4653607"
         inkscape:transform-center-y="-9.4924686"
         style="stroke-width:4.08449793">
        <g
           transform="translate(0.41988239,0.03484499)"
           inkscape:label="Capa 1"
           id="layer1-3-65-3-3"
           style="stroke-width:4.08449793" />
      </g>
      <g
         transform="matrix(0.5137343,0,0,0.51492732,-411.66445,-4.4445954)"
         id="layer1-4-9-5"
         inkscape:label="Capa 1"
         inkscape:transform-center-x="5.4653607"
         inkscape:transform-center-y="-9.4924686"
         style="stroke-width:4.08449793">
        <g
           transform="translate(0.41988239,0.03484499)"
           inkscape:label="Capa 1"
           id="layer1-3-65-0-4"
           style="stroke-width:4.08449793" />
      </g>
      <g
         transform="matrix(0.5137343,0,0,0.51492732,-411.66445,-4.4206349)"
         id="layer1-4-2"
         inkscape:label="Capa 1"
         inkscape:transform-center-x="5.4653607"
         inkscape:transform-center-y="-9.4924686"
         style="stroke-width:4.08449793">
        <g
           transform="translate(0.41988239,0.03484499)"
           inkscape:label="Capa 1"
           id="layer1-3-65-6"
           style="stroke-width:4.08449793" />
      </g>
      <g
         transform="matrix(0.51698994,0,0,0.51819052,-339.88534,26.897598)"
         id="layer1-4-9-22-1"
         inkscape:label="Capa 1"
         inkscape:transform-center-x="5.4653607"
         inkscape:transform-center-y="-9.4924686"
         style="stroke-width:4.08449793">
        <g
           transform="translate(0.41988239,0.03484499)"
           inkscape:label="Capa 1"
           id="layer1-3-65-0-7-7"
           style="stroke-width:4.08449793" />
      </g>
      <g
         transform="matrix(0.51698994,0,0,0.51819052,-339.88534,26.92171)"
         id="layer1-4-3-5"
         inkscape:label="Capa 1"
         inkscape:transform-center-x="5.4653607"
         inkscape:transform-center-y="-9.4924686"
         style="stroke-width:4.08449793">
        <g
           transform="translate(0.41988239,0.03484499)"
           inkscape:label="Capa 1"
           id="layer1-3-65-7-2"
           style="stroke-width:4.08449793" />
      </g>
      <g
         transform="matrix(0.51698994,0,0,0.51819052,-371.47628,-15.152299)"
         id="layer1-4-9-2-2"
         inkscape:label="Capa 1"
         inkscape:transform-center-x="5.4653607"
         inkscape:transform-center-y="-9.4924686"
         style="stroke-width:4.08449793">
        <g
           transform="translate(0.41988239,0.03484499)"
           inkscape:label="Capa 1"
           id="layer1-3-65-0-2-2"
           style="stroke-width:4.08449793" />
      </g>
      <g
         transform="matrix(0.51698994,0,0,0.51819052,-371.47628,-15.128186)"
         id="layer1-4-7-3"
         inkscape:label="Capa 1"
         inkscape:transform-center-x="5.4653607"
         inkscape:transform-center-y="-9.4924686"
         style="stroke-width:4.08449793">
        <g
           transform="translate(0.41988239,0.03484499)"
           inkscape:label="Capa 1"
           id="layer1-3-65-3-7"
           style="stroke-width:4.08449793" />
      </g>
      <g
         transform="matrix(0.51698994,0,0,0.51819052,-339.88534,26.897595)"
         id="layer1-4-9-6"
         inkscape:label="Capa 1"
         inkscape:transform-center-x="5.4653607"
         inkscape:transform-center-y="-9.4924686"
         style="stroke-width:4.08449793">
        <g
           transform="translate(0.41988239,0.03484499)"
           inkscape:label="Capa 1"
           id="layer1-3-65-0-9"
           style="stroke-width:4.08449793" />
      </g>
      <g
         transform="matrix(0.51698994,0,0,0.51819052,-339.88534,26.921707)"
         id="layer1-4-20"
         inkscape:label="Capa 1"
         inkscape:transform-center-x="5.4653607"
         inkscape:transform-center-y="-9.4924686"
         style="stroke-width:4.08449793">
        <g
           transform="translate(0.41988239,0.03484499)"
           inkscape:label="Capa 1"
           id="layer1-3-65-9"
           style="stroke-width:4.08449793" />
      </g>
      <g
         transform="matrix(0.51698994,0,0,0.51819052,-383.56078,26.84698)"
         id="layer1-4-9-22-4"
         inkscape:label="Capa 1"
         inkscape:transform-center-x="5.4653607"
         inkscape:transform-center-y="-9.4924686"
         style="stroke-width:4.08449793">
        <g
           transform="translate(0.41988239,0.03484499)"
           inkscape:label="Capa 1"
           id="layer1-3-65-0-7-9"
           style="stroke-width:4.08449793" />
      </g>
      <g
         transform="matrix(0.51698994,0,0,0.51819052,-383.56078,26.871093)"
         id="layer1-4-3-0"
         inkscape:label="Capa 1"
         inkscape:transform-center-x="5.4653607"
         inkscape:transform-center-y="-9.4924686"
         style="stroke-width:4.08449793">
        <g
           transform="translate(0.41988239,0.03484499)"
           inkscape:label="Capa 1"
           id="layer1-3-65-7-4"
           style="stroke-width:4.08449793" />
      </g>
      <g
         transform="matrix(0.51698994,0,0,0.51819052,-415.15172,-15.202917)"
         id="layer1-4-9-2-3"
         inkscape:label="Capa 1"
         inkscape:transform-center-x="5.4653607"
         inkscape:transform-center-y="-9.4924686"
         style="stroke-width:4.08449793">
        <g
           transform="translate(0.41988239,0.03484499)"
           inkscape:label="Capa 1"
           id="layer1-3-65-0-2-0-6"
           style="stroke-width:4.08449793" />
      </g>
      <g
         transform="matrix(0.51698994,0,0,0.51819052,-415.15172,-15.178803)"
         id="layer1-4-7-0"
         inkscape:label="Capa 1"
         inkscape:transform-center-x="5.4653607"
         inkscape:transform-center-y="-9.4924686"
         style="stroke-width:4.08449793">
        <g
           transform="translate(0.41988239,0.03484499)"
           inkscape:label="Capa 1"
           id="layer1-3-65-3-1"
           style="stroke-width:4.08449793" />
      </g>
      <g
         transform="matrix(0.51698994,0,0,0.51819052,-383.56078,26.846977)"
         id="layer1-4-9-3"
         inkscape:label="Capa 1"
         inkscape:transform-center-x="5.4653607"
         inkscape:transform-center-y="-9.4924686"
         style="stroke-width:4.08449793">
        <g
           transform="translate(0.41988239,0.03484499)"
           inkscape:label="Capa 1"
           id="layer1-3-65-0-74"
           style="stroke-width:4.08449793" />
      </g>
      <g
         transform="matrix(0.51698994,0,0,0.51819052,-383.56078,26.87109)"
         id="layer1-4-35"
         inkscape:label="Capa 1"
         inkscape:transform-center-x="5.4653607"
         inkscape:transform-center-y="-9.4924686"
         style="stroke-width:4.08449793">
        <g
           transform="translate(0.41988239,0.03484499)"
           inkscape:label="Capa 1"
           id="layer1-3-65-2"
           style="stroke-width:4.08449793" />
      </g>
      <path
         inkscape:connector-curvature="0"
         style="opacity:0.25;fill:#000000;fill-opacity:1;stroke:none;stroke-width:0.1916258;stroke-miterlimit:4;stroke-dasharray:none;stroke-opacity:1"
         d="m -45.236962,267.54339 c -1.041488,0 -1.880039,0.84847 -1.880039,1.90269 v 2.2792 1.56214 0.75398 6.3617 1.52372 9.63997 0.69198 c 0,0.46439 0.366269,0.83814 0.82141,0.83814 h 0.678192 28.750798 0.67819 c 0.455143,0 0.821409,-0.37375 0.821409,-0.83814 v -0.69198 -9.63997 -1.52372 -7.11568 -1.56214 c 0,-0.87753 -0.698096,-1.58376 -1.565056,-1.58376 H -35.74031 c -0.928824,-0.0873 -0.968928,-2.30779 -2.602524,-2.59813 z"
         id="path1228-0" />
      <path
         id="path7028-3-8"
         d="m -45.236962,267.03637 c -1.041488,0 -1.880039,0.84847 -1.880039,1.9027 v 2.27921 1.56211 0.754 6.36168 1.52374 9.63997 0.69198 c 0,0.46439 0.366269,0.83815 0.82141,0.83815 h 0.678192 28.750798 0.67819 c 0.455143,0 0.821409,-0.37376 0.821409,-0.83815 v -0.69198 -9.63997 -1.52374 -7.11568 -1.56211 c 0,-0.87754 -0.698096,-1.58378 -1.565056,-1.58378 H -35.74031 c -0.928824,-0.0872 -0.968928,-2.30777 -2.602524,-2.59813 z"
         style="fill:url(#linearGradient876);fill-opacity:1;stroke:#385466;stroke-width:0.20120709;stroke-miterlimit:4;stroke-dasharray:none;stroke-opacity:1"
         inkscape:connector-curvature="0" />
      <path
         style="fill:url(#linearGradient7011-3-8);fill-opacity:1;stroke:#385466;stroke-width:0.20120709;stroke-miterlimit:4;stroke-dasharray:none;stroke-opacity:1"
         d="m -45.617283,271.25039 c -0.830841,0 -1.499648,0.68251 -1.499648,1.53024 v 7.11529 11.16398 0.69196 c 0,0.46439 0.366342,0.83817 0.821483,0.83817 h 0.678165 28.750621 0.678167 c 0.455144,0 0.821482,-0.37378 0.821482,-0.83817 v -0.69196 -11.16398 -7.11529 c 0,-0.84773 -0.668803,-1.53024 -1.499649,-1.53024 z"
         id="rect5176-9-4"
         inkscape:connector-curvature="0" />
      <path
         sodipodi:nodetypes="csasccsaaascc"
         inkscape:connector-curvature="0"
         id="path1020-0-9"
         d="m -47.016948,291.44744 -0.0025,0.23153 c -0.002,0.18319 0.02743,0.37726 0.139094,0.51609 0.139451,0.1734 0.292695,0.30977 0.592285,0.30787 l 0.761539,-0.005 h 28.573539 0.674008 c 0.296883,0 0.293248,-0.0228 0.423567,-0.0839 0.0954,-0.0448 0.179424,-0.11703 0.245543,-0.19907 0.0534,-0.0663 0.09136,-0.14619 0.114971,-0.22795 0.02874,-0.0996 0.02807,-0.19313 0.02946,-0.30952 l 0.0028,-0.2307 z"
         style="fill:url(#linearGradient1033-6-9);fill-opacity:1;stroke:none;stroke-width:0.1916258;stroke-miterlimit:4;stroke-dasharray:none;stroke-opacity:1" />
      <path
         inkscape:connector-curvature="0"
         id="path966-9-2"
         d="m -47.023921,289.74928 v 0.89866 h 31.562585 v -0.89866 z"
         style="fill:url(#linearGradient994-9-8);fill-opacity:1;stroke:none;stroke-width:0.19162579;stroke-miterlimit:4;stroke-dasharray:none;stroke-opacity:1" />
      <path
         sodipodi:nodetypes="ccsccsccc"
         inkscape:connector-curvature="0"
         id="path973-3-5"
         d="m -47.020639,290.7633 v 0.12229 0.6917 c 0,0.029 -8.63e-4,0.0604 0.0019,0.0887 l 31.548765,-0.004 c 0.0028,-0.0283 0.0029,-0.0556 0.0029,-0.0847 v -0.69169 -0.12229 z"
         style="fill:url(#linearGradient986-2-7);fill-opacity:1;stroke:none;stroke-width:0.1916258;stroke-miterlimit:4;stroke-dasharray:none;stroke-opacity:1" />
      <path
         inkscape:connector-curvature="0"
         d="m -35.778969,274.17182 c -0.671743,0 -1.117381,0.0126 -1.129343,0.0319 -0.01857,0.0301 0.178448,0.32834 1.332981,2.01804 0.263067,0.385 0.661095,0.97002 0.884515,1.30002 0.223428,0.33 0.652428,0.96001 0.953323,1.40002 0.300896,0.44 0.726581,1.06245 0.945972,1.38329 0.21939,0.32084 0.398981,0.6028 0.399047,0.62664 6.7e-5,0.0238 -0.124885,0.22631 -0.277647,0.44999 -0.357619,0.52363 -0.916819,1.35137 -1.896257,2.80674 -1.069362,1.58901 -2.024086,2.99178 -2.427343,3.56671 -0.09,0.12833 -0.163991,0.25181 -0.164486,0.27435 -7.33e-4,0.0315 0.227886,0.0407 0.991086,0.0402 0.54559,-5e-4 1.008305,-0.0112 1.028343,-0.0242 0.02,-0.0129 0.435266,-0.62372 0.922657,-1.35706 0.48739,-0.73333 1.21119,-1.8133 1.608476,-2.39997 0.397286,-0.58668 0.850581,-1.25789 1.007305,-1.49164 0.156732,-0.23375 0.301493,-0.42502 0.321748,-0.42502 0.02026,0 0.171142,0.20627 0.335176,0.45835 0.369738,0.56819 0.93124,1.42814 1.376702,2.10839 0.577703,0.88218 1.142481,1.75908 1.706807,2.65 0.150973,0.23833 0.291634,0.44438 0.312625,0.45784 0.05771,0.037 2.221546,0.0313 2.221546,-0.006 0,-0.0172 -0.08486,-0.15611 -0.188558,-0.30845 -0.202065,-0.29683 -0.267218,-0.39131 -1.031002,-1.49581 -0.273423,-0.39539 -0.677061,-0.98433 -0.897061,-1.30878 -0.220007,-0.32445 -0.540572,-0.79602 -0.71243,-1.04786 -0.171858,-0.25184 -0.56819,-0.83282 -0.880709,-1.29116 -0.312522,-0.45834 -0.694498,-1.01809 -0.848779,-1.24389 l -0.280436,-0.41058 0.127731,-0.19136 c 0.07032,-0.10523 0.41288,-0.60724 0.761221,-1.11564 0.348333,-0.50841 0.773727,-1.13012 0.94521,-1.38153 0.17148,-0.2514 0.664273,-0.97171 1.095124,-1.60074 0.43085,-0.62901 0.920485,-1.34485 1.088157,-1.59073 0.167679,-0.24589 0.362505,-0.5292 0.43288,-0.62968 0.07038,-0.10048 0.118188,-0.19848 0.106322,-0.21771 -0.01429,-0.0231 -0.36833,-0.0349 -1.047989,-0.0349 h -1.026312 l -0.577468,0.87501 c -0.317602,0.48125 -0.759968,1.15246 -0.982979,1.49164 -0.223008,0.33917 -0.712273,1.0817 -1.087266,1.65003 -0.374995,0.56834 -0.726121,1.10431 -0.780355,1.19106 -0.05423,0.0868 -0.119915,0.15428 -0.145981,0.15004 -0.02607,-0.004 -0.249162,-0.33031 -0.495734,-0.72448 -0.246571,-0.39416 -0.703552,-1.12169 -1.015543,-1.6167 -0.31199,-0.495 -0.732362,-1.16244 -0.934066,-1.48328 -0.201696,-0.32083 -0.501915,-0.79712 -0.667181,-1.05837 l -0.300457,-0.47495 z"
         style="fill:#5695bf;fill-opacity:1;stroke:#385466;stroke-width:0.1;stroke-miterlimit:4;stroke-dasharray:none;stroke-opacity:1"
         id="path6595" />
    </g>
  </g>
</svg>
