<?xml version="1.0" encoding="UTF-8" standalone="no"?>
<svg
   xmlns:dc="http://purl.org/dc/elements/1.1/"
   xmlns:cc="http://creativecommons.org/ns#"
   xmlns:rdf="http://www.w3.org/1999/02/22-rdf-syntax-ns#"
   xmlns:svg="http://www.w3.org/2000/svg"
   xmlns="http://www.w3.org/2000/svg"
   xmlns:xlink="http://www.w3.org/1999/xlink"
   xmlns:sodipodi="http://sodipodi.sourceforge.net/DTD/sodipodi-0.dtd"
   xmlns:inkscape="http://www.inkscape.org/namespaces/inkscape"
   width="128"
   height="128"
   viewBox="0 0 95.999997 95.999997"
   version="1.1"
   id="svg73"
   sodipodi:docname="1cestart.svg"
   inkscape:version="0.92.4 (5da689c313, 2019-01-14)">
  <metadata
     id="metadata77">
    <rdf:RDF>
      <cc:Work
         rdf:about="">
        <dc:format>image/svg+xml</dc:format>
        <dc:type
           rdf:resource="http://purl.org/dc/dcmitype/StillImage" />
        <dc:title />
      </cc:Work>
    </rdf:RDF>
  </metadata>
  <sodipodi:namedview
     pagecolor="#ffffff"
     bordercolor="#666666"
     borderopacity="1"
     objecttolerance="10"
     gridtolerance="10"
     guidetolerance="10"
     inkscape:pageopacity="0"
     inkscape:pageshadow="2"
     inkscape:window-width="1600"
     inkscape:window-height="838"
     id="namedview75"
     showgrid="false"
     units="px"
     inkscape:zoom="1.9555922"
     inkscape:cx="62.763115"
     inkscape:cy="41.870731"
     inkscape:window-x="-8"
     inkscape:window-y="-8"
     inkscape:window-maximized="1"
     inkscape:current-layer="svg73"
     showguides="false" />
  <defs
     id="defs45">
    <linearGradient
       inkscape:collect="always"
       id="linearGradient1063">
      <stop
         id="stop1061"
         offset="0"
         style="stop-color:#e53500;stop-opacity:1" />
      <stop
         id="stop1059"
         offset="1"
         style="stop-color:#c52e00;stop-opacity:1" />
    </linearGradient>
    <linearGradient
       inkscape:collect="always"
       id="linearGradient939">
      <stop
         id="stop937"
         offset="0"
         style="stop-color:#f7b22e;stop-opacity:1" />
      <stop
         id="stop935"
         offset="1"
         style="stop-color:#f78b23;stop-opacity:1" />
    </linearGradient>
    <linearGradient
       inkscape:collect="always"
       xlink:href="#linearGradient939"
       id="linearGradient941"
       x1="130.20128"
       y1="27.032131"
       x2="128.95285"
       y2="73.947388"
       gradientUnits="userSpaceOnUse"
       gradientTransform="matrix(1.7608773,0,0,1.7608773,-173.72273,-41.643976)" />
    <linearGradient
       inkscape:collect="always"
       xlink:href="#linearGradient1063"
       id="linearGradient1057"
       x1="68.404305"
       y1="31.237818"
       x2="83.920486"
       y2="58.801659"
       gradientUnits="userSpaceOnUse"
       gradientTransform="translate(-0.47939441,1.8936079)" />
  </defs>
  <g
     id="g1072">
    <path
       style="opacity:0.25;fill:#000000;fill-opacity:1;stroke:none;stroke-width:0.55763519;stroke-miterlimit:4;stroke-dasharray:none;stroke-opacity:1"
       inkscape:connector-curvature="0"
       id="path969"
       d="m 48.00264,4.4754099 c 24.446262,0 44.26317,19.8169151 44.26317,44.2631771 0,24.446253 -19.816908,44.26141 -44.26317,44.26141 -24.446263,0 -44.2684529,-19.816918 -44.2684529,-44.26141 0,-24.446262 19.8221899,-44.2631771 44.2684529,-44.2631771 z m 0,0" />
    <path
       d="m 48.00264,3.0000002 c 24.446262,0 44.26317,19.8169148 44.26317,44.2631778 0,24.446252 -19.816908,44.26141 -44.26317,44.26141 -24.446263,0 -44.2684529,-19.816919 -44.2684529,-44.26141 0,-24.446263 19.8221899,-44.2631778 44.2684529,-44.2631778 z m 0,0"
       id="path894"
       inkscape:connector-curvature="0"
       style="fill:url(#linearGradient941);fill-opacity:1;stroke:#a7590c;stroke-width:0.5669291;stroke-miterlimit:4;stroke-dasharray:none;stroke-opacity:1" />
    <path
       id="path1009"
       d="m 33.135304,33.131426 v 8.029185 h 5.35178 V 65.248175 H 46.51627 V 33.131426 Z m 34.789605,0 c -8.871092,0 -16.058376,7.193349 -16.058376,16.058372 0,8.869576 7.187284,16.058377 16.058376,16.058377 H 88.43855 a 37.696072,37.696072 0 0 0 2.672856,-8.029188 H 67.917324 a 8.0261534,8.0261534 0 0 1 -8.021602,-8.029189 8.0261534,8.0261534 0 0 1 8.023119,-8.029187 8.039806,8.039806 0 0 1 5.97221,2.677408 h 9.144142 A 16.055341,16.055341 0 0 0 67.924909,33.131426 Z m 0,0"
       inkscape:connector-curvature="0"
       style="fill:url(#linearGradient1057);fill-opacity:1;stroke:#800000;stroke-width:0.5669291;stroke-miterlimit:4;stroke-dasharray:none" />
  </g>
</svg>
