<?xml version="1.0" encoding="UTF-8" standalone="no"?>
<svg
   xmlns:osb="http://www.openswatchbook.org/uri/2009/osb"
   xmlns:dc="http://purl.org/dc/elements/1.1/"
   xmlns:cc="http://creativecommons.org/ns#"
   xmlns:rdf="http://www.w3.org/1999/02/22-rdf-syntax-ns#"
   xmlns:svg="http://www.w3.org/2000/svg"
   xmlns="http://www.w3.org/2000/svg"
   xmlns:sodipodi="http://sodipodi.sourceforge.net/DTD/sodipodi-0.dtd"
   xmlns:inkscape="http://www.inkscape.org/namespaces/inkscape"
   width="128"
   height="128"
   viewBox="0 0 128 128"
   version="1.1"
   id="svg129"
   sodipodi:docname="appcode.svg"
   inkscape:version="0.92.3 (2405546, 2018-03-11)">
  <metadata
     id="metadata133">
    <rdf:RDF>
      <cc:Work
         rdf:about="">
        <dc:format>image/svg+xml</dc:format>
        <dc:type
           rdf:resource="http://purl.org/dc/dcmitype/StillImage" />
        <dc:title />
      </cc:Work>
    </rdf:RDF>
  </metadata>
  <sodipodi:namedview
     pagecolor="#ffffff"
     bordercolor="#666666"
     borderopacity="1"
     objecttolerance="10"
     gridtolerance="10"
     guidetolerance="10"
     inkscape:pageopacity="0"
     inkscape:pageshadow="2"
     inkscape:window-width="1600"
     inkscape:window-height="837"
     id="namedview131"
     showgrid="false"
     inkscape:zoom="3.6875"
     inkscape:cx="71.64972"
     inkscape:cy="65.815323"
     inkscape:window-x="0"
     inkscape:window-y="30"
     inkscape:window-maximized="1"
     inkscape:current-layer="svg129" />
  <defs
     id="defs70">
    <linearGradient
       osb:paint="solid"
       id="linearGradient6987">
      <stop
         id="stop6985"
         offset="0"
         style="stop-color:#77d2fb;stop-opacity:1;" />
    </linearGradient>
    <linearGradient
       y2="34.8647"
       x2="16.7826"
       y1="3.8575001"
       x1="16.7826"
       gradientUnits="userSpaceOnUse"
       id="SVGID_1_">
      <stop
         id="stop915"
         style="stop-color:#49b4aa;stop-opacity:1"
         offset="0" />
      <stop
         id="stop917"
         style="stop-color:#2db7f6;stop-opacity:1"
         offset="1" />
    </linearGradient>
    <linearGradient
       y2="39.625801"
       x2="35.8092"
       y1="21.6264"
       x1="19.3202"
       gradientUnits="userSpaceOnUse"
       id="SVGID_2_">
      <stop
         id="stop922"
         style="stop-color:#93aca7;stop-opacity:1"
         offset="0" />
      <stop
         id="stop924"
         style="stop-color:#47b4a9;stop-opacity:1"
         offset="1" />
    </linearGradient>
    <linearGradient
       y2="30.0431"
       x2="33.758999"
       y1="9.5263004"
       x1="23.9412"
       gradientUnits="userSpaceOnUse"
       id="SVGID_3_">
      <stop
         id="stop929"
         style="stop-color:#C841BA"
         offset="0" />
      <stop
         id="stop931"
         style="stop-color:#8056F7"
         offset="1" />
    </linearGradient>
  </defs>
  <g
     id="g853"
     transform="matrix(0.99647031,0,0,0.99647031,0.21713283,0.32982489)">
    <path
       inkscape:connector-curvature="0"
       id="polygon842"
       d="M 25.53669,8.302462 4.20441,30.68554 16.79245,97.131621 40.39233,96.487091 37.7341,108.26458 76.2033,121.90535 120.9675,97.073038 108.7525,76.021995 123.77807,61.490562 109.09236,23.370972 79.7131,16.376761 69.0411,27.04876 67.50202,18.097487 Z"
       style="opacity:0.25;fill:#000000;stroke:none;stroke-width:0.37920028;stroke-miterlimit:4;stroke-dasharray:none;stroke-opacity:1" />
    <polygon
       transform="matrix(2.7784215,0,0,2.7784215,-4.13153,-2.334878)"
       id="polygon920"
       points="3,11.165 7.531,35.08 30.565,34.451 25.782,6.634 10.678,3.109 "
       style="fill:url(#SVGID_1_);stroke:#333333;stroke-width:0.27206293;stroke-miterlimit:4;stroke-dasharray:none;stroke-opacity:1" />
    <polygon
       transform="matrix(2.7784215,0,0,2.7784215,-4.13153,-2.334878)"
       id="polygon927"
       points="20.354,15.675 15.068,39.087 28.914,43.996 45.025,35.059 33.193,14.668 "
       style="fill:url(#SVGID_2_);stroke:#333333;stroke-width:0.27206293;stroke-miterlimit:4;stroke-dasharray:none;stroke-opacity:1" />
    <path
       id="path851"
       d="M 98.67007,105.24519 H 26.43111 c -1.53369,0 -2.77842,-1.24476 -2.77842,-2.77844 V 30.227834 c 0,-1.533713 1.24473,-2.778477 2.77842,-2.778477 h 72.23896 c 1.53369,0 2.77842,1.244764 2.77842,2.778477 v 72.238916 c 0,1.53368 -1.24473,2.77844 -2.77842,2.77844 z"
       inkscape:connector-curvature="0"
       style="opacity:0.25;fill:#000000;stroke-width:2.7784214" />
    <polygon
       transform="matrix(2.7784215,0,0,2.7784215,-4.13153,-2.334878)"
       id="polygon934"
       points="15.577,28.168 20.108,16.084 30.177,6.015 40.751,8.532 46.037,22.252 34.583,33.329 "
       style="fill:url(#SVGID_3_);stroke:#333333;stroke-width:0.27206293;stroke-miterlimit:4;stroke-dasharray:none;stroke-opacity:1" />
    <path
       style="stroke-width:2.7784214"
       inkscape:connector-curvature="0"
       d="M 98.67007,103.24515 H 26.43111 c -1.53369,0 -2.77842,-1.24476 -2.77842,-2.77843 V 28.227798 c 0,-1.533713 1.24473,-2.778477 2.77842,-2.778477 h 72.23896 c 1.53369,0 2.77842,1.244764 2.77842,2.778477 v 72.238922 c 0,1.53367 -1.24473,2.77843 -2.77842,2.77843 z"
       id="path936" />
    <rect
       x="31.932388"
       y="83.796135"
       style="fill:#ffffff;stroke-width:2.7784214"
       width="25.005795"
       height="5.5568428"
       id="rect938" />
    <g
       transform="translate(-115.09644,59.332018)"
       id="text1564"
       style="font-style:normal;font-weight:normal;font-size:38.73115921px;line-height:1.25;font-family:sans-serif;letter-spacing:0px;word-spacing:0px;fill:#ffffff;fill-opacity:1;stroke:none;stroke-width:0.968279"
       aria-label="AC">
      <path
         inkscape:connector-curvature="0"
         id="path1566"
         style="font-style:normal;font-variant:normal;font-weight:bold;font-stretch:normal;font-family:Helvetica;-inkscape-font-specification:'Helvetica Bold';fill:#ffffff;stroke-width:0.968279"
         d="m 156.61707,-2.8165769 h 7.07297 l -3.47975,-10.9687851 z m 0.35932,-17.3420281 h 6.58127 l 9.87191,27.8758444 h -6.31651 l -1.79661,-5.7302448 h -10.26906 l -1.92899,5.7302448 h -6.08957 z m 3.25281,0 z" />
      <path
         inkscape:connector-curvature="0"
         id="path1568"
         style="font-style:normal;font-variant:normal;font-weight:bold;font-stretch:normal;font-family:Helvetica;-inkscape-font-specification:'Helvetica Bold';fill:#ffffff;stroke-width:0.968279"
         d="m 175.77462,-5.9937423 q 0,-7.2999157 3.91472,-11.2524607 3.4041,-3.441929 8.66156,-3.441929 7.03515,0 10.28796,4.614454 1.79661,2.590903 1.92899,5.200717 h -5.8248 q -0.56735,-2.00464 -1.4562,-3.025871 -1.58858,-1.815523 -4.70901,-1.815523 -3.17717,0 -5.0116,2.571991 -1.83444,2.553079 -1.83444,7.2431802 0,4.6901013 1.929,7.035152 1.9479,2.3261389 4.93595,2.3261389 3.06369,0 4.67119,-2.00464 0.88885,-1.07796687 1.47511,-3.2339005 h 5.76807 q -0.75647,4.5577194 -3.8769,7.4133859 -3.10152,2.8556665 -7.96182,2.8556665 -6.01392,0 -9.45585,-3.8579865 -3.44193,-3.87689829 -3.44193,-10.6283748 z m 12.40607,-15.0158887 z" />
    </g>
  </g>
</svg>
