<?xml version="1.0" encoding="UTF-8" standalone="no"?>
<!-- Created with Inkscape (http://www.inkscape.org/) -->

<svg
   xmlns:osb="http://www.openswatchbook.org/uri/2009/osb"
   xmlns:dc="http://purl.org/dc/elements/1.1/"
   xmlns:cc="http://creativecommons.org/ns#"
   xmlns:rdf="http://www.w3.org/1999/02/22-rdf-syntax-ns#"
   xmlns:svg="http://www.w3.org/2000/svg"
   xmlns="http://www.w3.org/2000/svg"
   xmlns:xlink="http://www.w3.org/1999/xlink"
   xmlns:sodipodi="http://sodipodi.sourceforge.net/DTD/sodipodi-0.dtd"
   xmlns:inkscape="http://www.inkscape.org/namespaces/inkscape"
   width="128"
   height="128"
   viewBox="0 0 33.866666 33.866668"
   version="1.1"
   id="svg8"
   inkscape:version="0.92.2 5c3e80d, 2017-08-06"
   sodipodi:docname="applications-system.svg">
  <defs
     id="defs2">
    <linearGradient
       id="linearGradient13039"
       inkscape:collect="always">
      <stop
         id="stop13023"
         offset="0"
         style="stop-color:#e9eff1;stop-opacity:1;" />
      <stop
         style="stop-color:#b2b2b2;stop-opacity:1"
         offset="0.1"
         id="stop13025" />
      <stop
         id="stop13027"
         offset="0.22744797"
         style="stop-color:#a2a2a2;stop-opacity:1" />
      <stop
         style="stop-color:#e0e0e0;stop-opacity:1"
         offset="0.41861993"
         id="stop13029" />
      <stop
         id="stop13031"
         offset="0.55723983"
         style="stop-color:#e0e0e0;stop-opacity:1" />
      <stop
         style="stop-color:#d1d1d1;stop-opacity:1"
         offset="0.70549953"
         id="stop13033" />
      <stop
         id="stop13035"
         offset="0.90499985"
         style="stop-color:#b2b2b2;stop-opacity:1" />
      <stop
         id="stop13037"
         offset="1"
         style="stop-color:#697072;stop-opacity:1" />
    </linearGradient>
    <linearGradient
       osb:paint="solid"
       id="linearGradient6987">
      <stop
         id="stop6985"
         offset="0"
         style="stop-color:#77d2fb;stop-opacity:1;" />
    </linearGradient>
    <linearGradient
       inkscape:collect="always"
       xlink:href="#linearGradient13039"
       id="linearGradient12627"
       x1="4.271091"
       y1="277.72757"
       x2="29.595737"
       y2="277.72757"
       gradientUnits="userSpaceOnUse"
       gradientTransform="matrix(1.0142891,0,0,1.0142891,-0.24204374,-4.0271223)" />
  </defs>
  <sodipodi:namedview
     id="base"
     pagecolor="#ffffff"
     bordercolor="#666666"
     borderopacity="1.0"
     inkscape:pageopacity="0.0"
     inkscape:pageshadow="2"
     inkscape:zoom="3.4817579"
     inkscape:cx="33.086085"
     inkscape:cy="82.263672"
     inkscape:document-units="mm"
     inkscape:current-layer="layer1"
     showgrid="false"
     inkscape:window-width="1600"
     inkscape:window-height="811"
     inkscape:window-x="0"
     inkscape:window-y="0"
     inkscape:window-maximized="1"
     units="px" />
  <metadata
     id="metadata5">
    <rdf:RDF>
      <cc:Work
         rdf:about="">
        <dc:format>image/svg+xml</dc:format>
        <dc:type
           rdf:resource="http://purl.org/dc/dcmitype/StillImage" />
        <dc:title />
      </cc:Work>
    </rdf:RDF>
  </metadata>
  <g
     inkscape:label="Layer 1"
     inkscape:groupmode="layer"
     id="layer1"
     transform="translate(0,-263.13332)">
    <path
       style="opacity:1;fill:#000000;fill-opacity:1;stroke:none;stroke-width:0.10142891;stroke-miterlimit:4;stroke-dasharray:none;stroke-dashoffset:0;stroke-opacity:1"
       d="m 10.834784,289.61291 c -0.02853,0.34721 -0.0922,1.14348 -0.09644,1.18614 -0.03159,0.31837 0.03021,0.3538 0.609584,0.3538 h 0.487978 l 0.0063,0.73958 h 1.466567 l 0.0063,-0.73905 h 0.318682 0.318682 l 0.0058,0.73905 h 1.467091 l 0.0058,-0.73958 h 0.392062 0.392588 l 0.0063,0.73958 h 1.466566 l 0.0063,-0.73905 h 0.343841 0.343842 v 0.73905 h 1.476001 v -0.73905 h 0.320255 0.31973 v 0.73905 h 1.476002 v -0.73905 h 0.513142 c 0.619608,0 0.676019,-0.0338 0.638413,-0.38263 -0.005,-0.046 -0.06749,-0.823 -0.09539,-1.15784 z"
       id="path13071"
       inkscape:connector-curvature="0" />
    <path
       id="path13061"
       style="opacity:0.25;fill:#000000;fill-opacity:1;stroke:none;stroke-width:0.10092665;stroke-miterlimit:4;stroke-dasharray:none;stroke-dashoffset:0;stroke-opacity:1"
       d="m 17.25295,264.78418 c -0.491331,-0.0224 -0.921893,0.023 -1.359048,0.18513 -1.283271,0.51871 -2.075819,1.95987 -1.793607,3.30187 0.098,0.46589 0.400447,1.07912 0.698775,1.41757 l 0.230446,0.26117 -0.556317,1.14106 c -0.305929,0.62764 -0.752298,1.54563 -0.992079,2.03953 l -0.436215,0.89803 h -0.217397 c -0.119648,0 -0.274449,0.0261 -0.344038,0.0577 -0.255122,0.11624 -0.204911,0.5093 0.07217,0.56471 0.08155,0.0163 0.14804,0.0489 0.14804,0.0725 0,0.0949 -0.582437,1.00856 -0.884531,1.38732 -0.685776,0.85979 -1.435702,1.50874 -3.3886831,2.93199 -0.7940202,0.57865 -1.1657028,0.88693 -1.571206,1.30398 -2.333969,2.40046 -3.1877379,4.78802 -2.474358,6.9189 0.1529442,0.45683 0.6093547,1.39297 0.8240055,1.69039 0.4632836,0.64188 2.2712836,2.27131 2.8938193,2.60797 0.1989163,0.10756 0.4213486,0.0854 0.4697328,-0.0466 h 4.139e-4 c 0.094366,-0.25745 -0.2216248,-0.64311 -1.4231667,-1.73787 -0.2796577,-0.2548 -0.6257857,-0.62015 -0.7690711,-0.81191 -0.7141368,-0.95577 -1.059306,-2.15857 -0.9944,-3.4627 0.036434,-0.73137 0.1629662,-1.21373 0.4999905,-1.90687 0.4361243,-0.89691 1.0074196,-1.56399 2.0530398,-2.39568 0.9570269,-0.76122 1.3672433,-1.02924 3.0916761,-2.01999 1.376438,-0.7908 1.968271,-1.20717 2.530221,-1.7793 0.422822,-0.43047 0.461306,-0.48886 1.033509,-1.57865 l 0.594488,-1.13174 1.754166,-0.013 1.75463,-0.013 0.582851,1.11917 c 0.565644,1.08598 0.596285,1.13256 1.026061,1.56747 0.56089,0.56759 1.165955,0.99533 2.435713,1.72158 1.500073,0.85797 2.186364,1.29707 2.933858,1.8766 1.250278,0.96943 1.824591,1.61573 2.308626,2.59866 0.391211,0.79442 0.489615,1.24009 0.488353,2.21459 -10e-4,0.69225 -0.01715,0.85274 -0.135938,1.32867 -0.159221,0.63792 -0.504976,1.37423 -0.87243,1.85796 -0.138865,0.18283 -0.455068,0.51475 -0.7025,0.7379 -1.218508,1.09897 -1.580783,1.54112 -1.467393,1.78999 0.132144,0.29004 0.498497,0.0917 1.704359,-0.92176 0.836409,-0.70297 1.386783,-1.25987 1.700624,-1.72111 0.289307,-0.42519 0.748876,-1.45 0.881261,-1.96459 0.457915,-1.7799 -0.174128,-3.76396 -1.840287,-5.77553 -0.683979,-0.82576 -1.25376,-1.34323 -2.365882,-2.15033 -1.68167,-1.22046 -2.339923,-1.77374 -3.063264,-2.57305 -0.423176,-0.46763 -0.86687,-1.09405 -0.824016,-1.16339 0.01776,-0.0288 0.29295,-0.0494 0.659676,-0.0494 0.59351,0 0.63165,-0.006 0.675503,-0.10429 0.04037,-0.0905 0.08852,-0.10404 0.364517,-0.10428 l 0.317495,-4.2e-4 0.01484,0.19041 c 0.01908,0.24552 0.114976,0.31377 0.440878,0.31377 0.413335,0 0.454835,-0.0406 0.454835,-0.44459 v -0.34264 h 1.465526 1.465526 l 0.08528,0.14385 c 0.203418,0.34436 0.736714,0.46222 1.071669,0.2365 0.287783,-0.19393 0.401486,-0.41227 0.379413,-0.72812 -0.02312,-0.3294 -0.160503,-0.54696 -0.434348,-0.68667 -0.34642,-0.17672 -0.692558,-0.10001 -0.969248,0.21508 l -0.157365,0.1797 h -1.451103 -1.451094 l -0.01443,-0.35707 -0.01443,-0.3566 h -0.418523 -0.418058 l -0.01484,0.23371 -0.01484,0.23369 h -0.33006 c -0.295129,0 -0.335531,-0.0118 -0.378959,-0.1108 -0.04713,-0.10751 -0.06934,-0.11033 -0.762088,-0.11033 h -0.713672 l -0.01494,0.23603 -0.01534,0.23604 -0.243022,-0.0144 -0.24301,-0.0148 -0.313307,-0.66433 c -0.172383,-0.36537 -0.608053,-1.26713 -0.967866,-2.00369 l -0.654086,-1.33891 0.205769,-0.22344 c 0.313085,-0.33966 0.569721,-0.76698 0.700644,-1.16667 0.169344,-0.51694 0.168153,-1.28998 -0.003,-1.81235 -0.311703,-0.95321 -1.200463,-1.75832 -2.174556,-1.97018 -0.09982,-0.0217 -0.225713,-0.0347 -0.364507,-0.04 z m -0.268151,0.6336 c 1.132044,0 2.08687,0.811 2.272312,1.93013 0.102371,0.61775 -0.154135,1.50356 -0.543287,1.87615 l -0.147575,0.14105 -0.276065,-0.55027 h 4.13e-4 c -0.20155,-0.40187 -0.298025,-0.54625 -0.356614,-0.53491 -0.04683,0.009 -0.157738,0.18969 -0.266748,0.43389 -0.143751,0.32202 -0.207112,0.41498 -0.274673,0.40362 -0.272249,-0.0458 -0.643942,-0.0179 -0.793283,0.0595 -0.09053,0.047 -0.171495,0.0781 -0.180174,0.0694 -0.0091,-0.009 -0.10345,-0.21545 -0.210412,-0.45903 -0.11212,-0.25532 -0.22763,-0.44917 -0.272814,-0.45809 -0.05592,-0.0111 -0.150331,0.12738 -0.329143,0.48369 -0.280354,0.55867 -0.276912,0.55771 -0.537696,0.1513 -0.487093,-0.75906 -0.486437,-1.76142 0.003,-2.52324 0.399639,-0.62277 1.148373,-1.02326 1.913377,-1.02326 z m -0.03492,5.86677 c 0.033,0.0104 0.0978,0.0951 0.144315,0.18806 0.04652,0.093 0.346915,0.70586 0.66759,1.36219 l 0.582851,1.19365 H 16.95124 c -0.766367,0 -1.393374,-0.009 -1.393374,-0.0196 0,-0.0106 0.195646,-0.40367 0.434348,-0.87336 0.238702,-0.46968 0.538211,-1.08278 0.665733,-1.36217 0.139096,-0.30477 0.255919,-0.50035 0.2919,-0.48882 z m 4.291835,3.38355 c 0.04593,0 0.07408,0.0464 0.07408,0.12291 0,0.14767 -0.02836,0.15588 -0.09679,0.028 -0.06803,-0.12713 -0.06449,-0.15084 0.02281,-0.15084 z"
       inkscape:connector-curvature="0"
       sodipodi:nodetypes="ccccccccsccsccccccccccccccccccccscccccccccccccccsccccsscccccccccccccccccscsccccccccccccccccccccccccccccccccccccsssccccsccc" />
    <path
       sodipodi:nodetypes="ccccccccsccsccccccccccccccccccccscccccccccccccccsccccsscccccccccccccccccscsccccccccccccccccccccccccccccccccccccsssccccsccc"
       inkscape:connector-curvature="0"
       d="m 17.25295,264.24745 c -0.491331,-0.0224 -0.921893,0.023 -1.359048,0.18512 -1.283271,0.51872 -2.075819,1.95987 -1.793607,3.30188 0.098,0.46589 0.400447,1.07912 0.698775,1.41757 l 0.230446,0.26117 -0.556317,1.14105 c -0.305929,0.62765 -0.752298,1.54564 -0.992079,2.03954 l -0.436215,0.89803 h -0.217397 c -0.119648,0 -0.274449,0.0261 -0.344038,0.0577 -0.255122,0.11624 -0.204911,0.5093 0.07217,0.56471 0.08155,0.0163 0.14804,0.0489 0.14804,0.0725 0,0.0949 -0.582437,1.00856 -0.884531,1.38732 -0.685776,0.85979 -1.435702,1.50874 -3.3886831,2.93199 -0.7940202,0.57865 -1.1657028,0.88693 -1.571206,1.30398 -2.333969,2.40046 -3.1877379,4.78802 -2.474358,6.9189 0.1529442,0.45683 0.6093547,1.39296 0.8240055,1.69038 0.4632836,0.64189 2.2712836,2.27132 2.8938193,2.60797 0.1989163,0.10757 0.4213486,0.0854 0.4697328,-0.0465 h 4.139e-4 c 0.094366,-0.25745 -0.2216248,-0.64311 -1.4231667,-1.73787 -0.2796577,-0.2548 -0.6257857,-0.62015 -0.7690711,-0.81191 -0.7141368,-0.95577 -1.059306,-2.15857 -0.9944,-3.4627 0.036434,-0.73137 0.1629662,-1.21373 0.4999905,-1.90687 0.4361243,-0.89691 1.0074196,-1.56399 2.0530398,-2.39568 0.9570269,-0.76122 1.3672433,-1.02924 3.0916761,-2.01999 1.376438,-0.79081 1.968271,-1.20717 2.530221,-1.7793 0.422822,-0.43048 0.461306,-0.48886 1.033509,-1.57865 l 0.594488,-1.13174 1.754166,-0.013 1.75463,-0.013 0.582851,1.11917 c 0.565644,1.08598 0.596285,1.13256 1.026061,1.56747 0.56089,0.56758 1.165955,0.99533 2.435713,1.72158 1.500073,0.85797 2.186364,1.29706 2.933858,1.8766 1.250278,0.96943 1.824591,1.61573 2.308626,2.59866 0.391211,0.79442 0.489615,1.24009 0.488353,2.21459 -10e-4,0.69225 -0.01715,0.85274 -0.135938,1.32867 -0.159221,0.63792 -0.504976,1.37423 -0.87243,1.85796 -0.138865,0.18283 -0.455068,0.51475 -0.7025,0.7379 -1.218508,1.09897 -1.580783,1.54112 -1.467393,1.78999 0.132144,0.29004 0.498497,0.0917 1.704359,-0.92176 0.836409,-0.70297 1.386783,-1.25987 1.700624,-1.72111 0.289307,-0.42519 0.748876,-1.45 0.881261,-1.96459 0.457915,-1.7799 -0.174128,-3.76396 -1.840287,-5.77553 -0.683979,-0.82576 -1.25376,-1.34323 -2.365882,-2.15033 -1.68167,-1.22046 -2.339923,-1.77374 -3.063264,-2.57305 -0.423176,-0.46763 -0.86687,-1.09406 -0.824016,-1.16339 0.01776,-0.0288 0.29295,-0.0494 0.659676,-0.0494 0.59351,0 0.63165,-0.006 0.675503,-0.10429 0.04037,-0.0905 0.08852,-0.10404 0.364517,-0.10428 l 0.317495,-4.2e-4 0.01484,0.19041 c 0.01908,0.24552 0.114976,0.31377 0.440878,0.31377 0.413335,0 0.454835,-0.0406 0.454835,-0.44459 v -0.34264 h 1.465526 1.465526 l 0.08528,0.14385 c 0.203418,0.34436 0.736714,0.46222 1.071669,0.2365 0.287783,-0.19393 0.401486,-0.41227 0.379413,-0.72812 -0.02312,-0.3294 -0.160503,-0.54697 -0.434348,-0.68667 -0.34642,-0.17672 -0.692558,-0.10001 -0.969248,0.21508 l -0.157365,0.1797 h -1.451103 -1.451094 l -0.01443,-0.35707 -0.01443,-0.35661 h -0.418523 -0.418058 l -0.01484,0.23372 -0.01484,0.23369 h -0.33006 c -0.295129,0 -0.335531,-0.0118 -0.378959,-0.1108 -0.04713,-0.10751 -0.06934,-0.11033 -0.762088,-0.11033 h -0.713672 l -0.01494,0.23603 -0.01534,0.23603 -0.243022,-0.0144 -0.24301,-0.0148 -0.313307,-0.66433 c -0.172383,-0.36537 -0.608053,-1.26713 -0.967866,-2.00369 l -0.654086,-1.33891 0.205769,-0.22344 c 0.313085,-0.33966 0.569721,-0.76698 0.700644,-1.16667 0.169344,-0.51694 0.168153,-1.28998 -0.003,-1.81235 -0.311703,-0.95321 -1.200463,-1.75832 -2.174556,-1.97018 -0.09982,-0.0217 -0.225713,-0.0347 -0.364507,-0.04 z m -0.268151,0.6336 c 1.132044,0 2.08687,0.811 2.272312,1.93013 0.102371,0.61775 -0.154135,1.50355 -0.543287,1.87614 l -0.147575,0.14106 -0.276065,-0.55027 h 4.13e-4 c -0.20155,-0.40187 -0.298025,-0.54625 -0.356614,-0.53491 -0.04683,0.009 -0.157738,0.18969 -0.266748,0.43389 -0.143751,0.32202 -0.207112,0.41498 -0.274673,0.40362 -0.272249,-0.0458 -0.643942,-0.0179 -0.793283,0.0595 -0.09053,0.047 -0.171495,0.0781 -0.180174,0.0694 -0.0091,-0.009 -0.10345,-0.21545 -0.210412,-0.45903 -0.11212,-0.25533 -0.22763,-0.44917 -0.272814,-0.45809 -0.05592,-0.0111 -0.150331,0.12738 -0.329143,0.48369 -0.280354,0.55867 -0.276912,0.55771 -0.537696,0.1513 -0.487093,-0.75906 -0.486437,-1.76142 0.003,-2.52324 0.399639,-0.62277 1.148373,-1.02326 1.913377,-1.02326 z m -0.03492,5.86677 c 0.033,0.0104 0.0978,0.0951 0.144315,0.18806 0.04652,0.093 0.346915,0.70585 0.66759,1.36219 l 0.582851,1.19365 H 16.95124 c -0.766367,0 -1.393374,-0.009 -1.393374,-0.0196 0,-0.0106 0.195646,-0.40368 0.434348,-0.87336 0.238702,-0.46968 0.538211,-1.08278 0.665733,-1.36217 0.139096,-0.30478 0.255919,-0.50035 0.2919,-0.48882 z m 4.291835,3.38355 c 0.04593,0 0.07408,0.0464 0.07408,0.12291 0,0.14767 -0.02836,0.15588 -0.09679,0.028 -0.06803,-0.12712 -0.06449,-0.15083 0.02281,-0.15083 z"
       style="opacity:1;fill:url(#linearGradient12627);fill-opacity:1;stroke:#4d4d4d;stroke-width:0.10092665;stroke-miterlimit:4;stroke-dasharray:none;stroke-dashoffset:0;stroke-opacity:1"
       id="path830" />
    <path
       sodipodi:nodetypes="csscscsccccccccccccccccccsccccccccccscscccccccsssccccccccsscccccccscccssssssssccccssscsssscc"
       inkscape:connector-curvature="0"
       d="m 13.141341,283.57956 c -0.614402,0 -0.713209,0.0288 -0.713209,0.20669 0,0.0799 -0.05268,0.0885 -0.535375,0.0885 -0.397015,0 -0.550061,0.0178 -0.592178,0.0685 -0.03492,0.0422 -0.149634,1.22821 -0.298873,3.08794 -0.133264,1.6607 -0.251943,3.11463 -0.2635,3.23086 -0.03159,0.31838 0.03048,0.35429 0.609859,0.35429 h 0.48789 l 0.01313,1.58657 0.01302,1.58656 0.127098,0.061 c 0.120778,0.0578 0.135897,0.10928 0.289568,1.0093 0.08911,0.52164 0.171272,0.96479 0.182949,0.98508 0.04491,0.0779 0.162603,0.0322 0.188552,-0.0734 0.01494,-0.0609 0.110807,-0.50497 0.212763,-0.98695 0.167205,-0.79051 0.19711,-0.88248 0.305849,-0.93667 l 0.120576,-0.06 0.01252,-1.58563 0.01312,-1.58565 h 0.318434 0.318897 l 0.01252,1.58658 0.01302,1.58655 0.126168,0.06 c 0.119003,0.057 0.135121,0.11387 0.294221,1.02792 0.155872,0.89544 0.221171,1.09304 0.325882,0.98834 0.01554,-0.0155 0.121395,-0.46105 0.235564,-0.99021 0.114167,-0.52916 0.21689,-0.96768 0.228113,-0.97438 0.01131,-0.006 0.06459,-0.0365 0.118721,-0.0666 0.09477,-0.0524 0.09921,-0.1127 0.111726,-1.63638 l 0.01252,-1.58191 h 0.392454 0.392463 l 0.01302,1.58657 0.01312,1.58656 0.123817,0.0591 c 0.116651,0.0558 0.134223,0.11696 0.288176,1.00977 0.09013,0.52249 0.173826,0.96619 0.18622,0.98648 0.01242,0.0203 0.05268,0.0372 0.08982,0.0372 0.06883,0 0.07822,-0.034 0.35939,-1.34309 0.119074,-0.55416 0.149977,-0.63684 0.257444,-0.69041 l 0.12198,-0.061 0.01302,-1.58564 0.01312,-1.58516 h 0.343564 0.344039 v 1.56468 c 0,1.61439 0.0081,1.68294 0.198785,1.68294 0.06641,0 0.109203,0.16469 0.240225,0.9227 0.192993,1.11659 0.189673,1.10407 0.287703,1.08518 0.05843,-0.0113 0.114511,-0.18007 0.216477,-0.65454 0.306323,-1.42542 0.280566,-1.3413 0.412002,-1.37429 l 0.121042,-0.0302 v -1.5982 -1.59821 h 0.319826 0.319827 v 1.56469 c 0,1.61438 0.0081,1.68292 0.198785,1.68292 0.06641,0 0.109193,0.1647 0.240216,0.92271 0.193001,1.11659 0.189691,1.10407 0.287711,1.08518 0.05843,-0.0113 0.114512,-0.18007 0.216477,-0.65454 0.306323,-1.42542 0.281041,-1.3413 0.412468,-1.37429 l 0.120587,-0.0303 v -1.5982 -1.59821 h 0.51302 c 0.619609,0 0.675866,-0.0338 0.63826,-0.38268 -0.01383,-0.12796 -0.133384,-1.57918 -0.265356,-3.22528 -0.152389,-1.90068 -0.26132,-3.01857 -0.29842,-3.06328 -0.04512,-0.0544 -0.202267,-0.0708 -0.691791,-0.0708 -0.577422,0 -0.634062,-0.008 -0.634062,-0.0885 0,-0.17794 -0.09881,-0.20669 -0.713218,-0.20669 -0.614392,0 -0.713683,0.0288 -0.713683,0.20669 0,0.0684 -0.03916,0.0885 -0.172251,0.0885 -0.133032,0 -0.172242,-0.0201 -0.172242,-0.0885 0,-0.17794 -0.09931,-0.20669 -0.713673,-0.20669 -0.616369,0 -0.713207,0.0288 -0.713207,0.20949 0,0.079 -0.03431,0.0894 -0.257919,0.0764 -0.212551,-0.0123 -0.261329,-0.0324 -0.276529,-0.11359 -0.01019,-0.0541 -0.0434,-0.11468 -0.07408,-0.13456 -0.03068,-0.0199 -0.31472,-0.0364 -0.630802,-0.0367 -0.591915,-8.3e-4 -0.729043,0.0412 -0.729043,0.22392 0,0.0506 -0.06247,0.0703 -0.221605,0.0703 -0.200754,0 -0.221594,-0.0111 -0.221594,-0.11778 0,-0.0648 -0.03492,-0.13115 -0.07771,-0.14758 -0.04279,-0.0164 -0.328819,-0.0298 -0.635929,-0.0298 -0.574575,0 -0.713208,0.0436 -0.713208,0.22485 0,0.0476 -0.05582,0.0703 -0.172242,0.0703 -0.133041,0 -0.17225,-0.0201 -0.17225,-0.0884 0,-0.17795 -0.09931,-0.20669 -0.713674,-0.20669 z"
       style="opacity:1;fill:#404040;fill-opacity:1;stroke:#4d4d4d;stroke-width:0.10142891;stroke-miterlimit:4;stroke-dasharray:none;stroke-dashoffset:0;stroke-opacity:1"
       id="path832" />
    <path
       id="path13043"
       style="opacity:1;fill:#979999;fill-opacity:1;stroke:none;stroke-width:0.10092665;stroke-miterlimit:4;stroke-dasharray:none;stroke-dashoffset:0;stroke-opacity:1"
       d="m 11.835955,290.61636 0.01313,1.58657 0.01302,1.58656 0.127098,0.061 c 0.120778,0.0578 0.135897,0.10928 0.289568,1.0093 0.08911,0.52164 0.171272,0.96479 0.182949,0.98508 0.04491,0.0779 0.162603,0.0322 0.188552,-0.0734 0.01494,-0.0609 0.110807,-0.50497 0.212763,-0.98695 0.167205,-0.79051 0.19711,-0.88248 0.305849,-0.93667 l 0.120576,-0.06 0.01252,-1.58563 0.01312,-1.58565 h 0.318434 0.318897 l 0.01252,1.58658 0.01302,1.58655 0.126168,0.06 c 0.119003,0.057 0.135121,0.11387 0.294221,1.02792 0.155872,0.89544 0.221171,1.09304 0.325882,0.98834 0.01554,-0.0155 0.121395,-0.46105 0.235564,-0.99021 0.114167,-0.52916 0.21689,-0.96768 0.228113,-0.97438 0.01131,-0.006 0.06459,-0.0365 0.118721,-0.0666 0.09477,-0.0524 0.09921,-0.1127 0.111726,-1.63638 l 0.01252,-1.58191 h 0.392454 0.392463 l 0.01302,1.58657 0.01312,1.58656 0.123817,0.0591 c 0.116651,0.0558 0.134223,0.11696 0.288176,1.00977 0.09013,0.52249 0.173826,0.96619 0.18622,0.98648 0.01242,0.0203 0.05268,0.0372 0.08982,0.0372 0.06883,0 0.07822,-0.034 0.35939,-1.34309 0.119074,-0.55416 0.149977,-0.63684 0.257444,-0.69041 l 0.12198,-0.061 0.01302,-1.58564 0.01312,-1.58516 h 0.343564 0.344039 v 1.56468 c 0,1.61439 0.0081,1.68294 0.198785,1.68294 0.06641,0 0.109203,0.16469 0.240225,0.9227 0.192993,1.11659 0.189673,1.10407 0.287703,1.08518 0.05843,-0.0113 0.114511,-0.18007 0.216477,-0.65454 0.306323,-1.42542 0.280566,-1.3413 0.412002,-1.37429 l 0.121042,-0.0302 v -1.5982 -1.59821 h 0.319826 0.319827 v 1.56469 c 0,1.61438 0.0081,1.68292 0.198785,1.68292 0.06641,0 0.109193,0.1647 0.240216,0.92271 0.193001,1.11659 0.189691,1.10407 0.287711,1.08518 0.05843,-0.0113 0.114512,-0.18007 0.216477,-0.65454 0.306323,-1.42542 0.281041,-1.3413 0.412468,-1.37429 l 0.120587,-0.0303 v -1.5982 -1.59821 c 0,0 -11.309732,-0.0662 -10.138726,-4.5e-4 z"
       inkscape:connector-curvature="0"
       sodipodi:nodetypes="ccccccccccccccccccsccccccccccscscccccccsssccccccccsscccccccc" />
    <path
       style="opacity:1;fill:#aeafb0;fill-opacity:1;stroke:none;stroke-width:0.05071446;stroke-miterlimit:4;stroke-dasharray:none;stroke-dashoffset:0;stroke-opacity:1"
       d="m 11.839053,291.62151 0.0089,1.11801 h 1.455035 l 0.0089,-1.11801 z m 2.115987,0 0.0089,1.11801 h 1.45556 l 0.0089,-1.11801 z m 2.263797,0 0.0089,1.11801 h 1.455036 l 0.0089,-1.11801 z m 2.163685,0 v 1.11801 h 1.476002 v -1.11801 z m 2.115987,0 v 1.11801 h 1.476002 v -1.11801 z"
       id="path13047"
       inkscape:connector-curvature="0" />
    <path
       inkscape:connector-curvature="0"
       style="opacity:1;fill:#d0d6d7;fill-opacity:1;stroke:none;stroke-width:0.10092665;stroke-miterlimit:4;stroke-dasharray:none;stroke-dashoffset:0;stroke-opacity:1"
       d="m 12.926137,290.58887 c -0.895615,0.003 -1.38298,0.0108 -1.090229,0.0273 l 0.0084,1.04096 h 1.462374 l 0.0084,-1.04044 h 0.318682 0.318683 l 0.0084,1.04044 h 1.46185 l 0.0084,-1.04096 h 0.392063 0.392587 l 0.0084,1.04096 h 1.462374 l 0.0084,-1.04044 h 0.343842 0.343841 v 1.04044 h 1.476002 v -1.04044 h 0.320255 0.31973 v 1.04044 h 1.476002 v -1.04044 c 0,0 -6.36153,-0.0369 -9.048374,-0.0278 z"
       id="path13054" />
  </g>
</svg>
