<?xml version="1.0" encoding="UTF-8" standalone="no"?>
<!-- Created with Inkscape (http://www.inkscape.org/) -->

<svg
   xmlns:osb="http://www.openswatchbook.org/uri/2009/osb"
   xmlns:dc="http://purl.org/dc/elements/1.1/"
   xmlns:cc="http://creativecommons.org/ns#"
   xmlns:rdf="http://www.w3.org/1999/02/22-rdf-syntax-ns#"
   xmlns:svg="http://www.w3.org/2000/svg"
   xmlns="http://www.w3.org/2000/svg"
   xmlns:xlink="http://www.w3.org/1999/xlink"
   xmlns:sodipodi="http://sodipodi.sourceforge.net/DTD/sodipodi-0.dtd"
   xmlns:inkscape="http://www.inkscape.org/namespaces/inkscape"
   width="128"
   height="128"
   viewBox="0 0 33.866666 33.866668"
   version="1.1"
   id="svg8"
   inkscape:version="0.92.4 (5da689c313, 2019-01-14)"
   sodipodi:docname="applications-utilities.svg">
  <defs
     id="defs2">
    <linearGradient
       id="linearGradient6987"
       osb:paint="solid">
      <stop
         style="stop-color:#77d2fb;stop-opacity:1;"
         offset="0"
         id="stop6985" />
    </linearGradient>
    <linearGradient
       id="linearGradient939"
       inkscape:collect="always">
      <stop
         id="stop935"
         offset="0"
         style="stop-color:#d4e8ee;stop-opacity:1" />
      <stop
         id="stop937"
         offset="1"
         style="stop-color:#757574;stop-opacity:1" />
    </linearGradient>
    <linearGradient
       inkscape:collect="always"
       xlink:href="#linearGradient939"
       id="linearGradient3662"
       gradientUnits="userSpaceOnUse"
       gradientTransform="matrix(0.20257414,0,0,0.20257414,60.030207,249.27934)"
       x1="-218.42142"
       y1="84.454018"
       x2="-219.88927"
       y2="220.38788" />
  </defs>
  <sodipodi:namedview
     id="base"
     pagecolor="#ffffff"
     bordercolor="#666666"
     borderopacity="1.0"
     inkscape:pageopacity="0.0"
     inkscape:pageshadow="2"
     inkscape:zoom="3.959798"
     inkscape:cx="36.892637"
     inkscape:cy="77.150935"
     inkscape:document-units="mm"
     inkscape:current-layer="layer1"
     showgrid="false"
     units="px"
     inkscape:window-width="1600"
     inkscape:window-height="838"
     inkscape:window-x="-8"
     inkscape:window-y="-8"
     inkscape:window-maximized="1" />
  <metadata
     id="metadata5">
    <rdf:RDF>
      <cc:Work
         rdf:about="">
        <dc:format>image/svg+xml</dc:format>
        <dc:type
           rdf:resource="http://purl.org/dc/dcmitype/StillImage" />
        <dc:title />
      </cc:Work>
    </rdf:RDF>
  </metadata>
  <g
     inkscape:label="Layer 1"
     inkscape:groupmode="layer"
     id="layer1"
     transform="translate(0,-263.13332)">
    <g
       id="g886"
       transform="matrix(1.0029996,0,0,1.0029996,-0.05079353,-1.105467)">
      <rect
         style="opacity:0.25;fill:#000000;fill-opacity:1;fill-rule:nonzero;stroke:none;stroke-width:0.09495327;stroke-linecap:round;stroke-linejoin:round;stroke-miterlimit:4;stroke-dasharray:none;stroke-dashoffset:0;stroke-opacity:1"
         id="rect862"
         width="31.655046"
         height="27.710756"
         x="1.1058104"
         y="266.74045"
         ry="1.4646505" />
      <rect
         ry="1.4646505"
         y="266.21127"
         x="1.1058104"
         height="27.710756"
         width="31.655046"
         id="rect1015-9"
         style="opacity:1;fill:url(#linearGradient3662);fill-opacity:1;fill-rule:nonzero;stroke:#666666;stroke-width:0.09495327;stroke-linecap:round;stroke-linejoin:round;stroke-miterlimit:4;stroke-dasharray:none;stroke-dashoffset:0;stroke-opacity:1" />
      <rect
         style="opacity:1;fill:#000000;fill-opacity:1;fill-rule:nonzero;stroke:none;stroke-width:0.08071546;stroke-linecap:round;stroke-linejoin:round;stroke-miterlimit:4;stroke-dasharray:none;stroke-dashoffset:0;stroke-opacity:1"
         id="rect1017-0"
         width="30.844788"
         height="27.001461"
         x="1.5109313"
         y="266.56592"
         ry="1.1374229" />
      <rect
         style="opacity:1;fill:#003380;fill-opacity:1;fill-rule:nonzero;stroke:none;stroke-width:0.11700165;stroke-linecap:round;stroke-linejoin:round;stroke-miterlimit:4;stroke-dasharray:none;stroke-dashoffset:0;stroke-opacity:1"
         id="rect1019-4-5"
         width="27.000813"
         height="23.149805"
         x="3.4329207"
         y="268.49176" />
      <path
         inkscape:connector-curvature="0"
         id="path918-2"
         d="m 3.855931,268.50296 -0.0326,23.13466"
         style="fill:none;stroke:#2a7fff;stroke-width:0.09495324;stroke-linecap:butt;stroke-linejoin:miter;stroke-miterlimit:4;stroke-dasharray:none;stroke-opacity:1" />
      <path
         style="fill:none;stroke:#2a7fff;stroke-width:0.09495324;stroke-linecap:butt;stroke-linejoin:miter;stroke-miterlimit:4;stroke-dasharray:none;stroke-opacity:1"
         d="m 7.046349,268.50296 -0.0326,23.13466"
         id="path920-2"
         inkscape:connector-curvature="0" />
      <path
         inkscape:connector-curvature="0"
         id="path922-7"
         d="m 10.306414,268.50296 -0.0326,23.13466"
         style="fill:none;stroke:#2a7fff;stroke-width:0.09495324;stroke-linecap:butt;stroke-linejoin:miter;stroke-miterlimit:4;stroke-dasharray:none;stroke-opacity:1" />
      <path
         style="fill:none;stroke:#2a7fff;stroke-width:0.09495324;stroke-linecap:butt;stroke-linejoin:miter;stroke-miterlimit:4;stroke-dasharray:none;stroke-opacity:1"
         d="m 13.556766,268.50296 -0.03261,23.13466"
         id="path924-3"
         inkscape:connector-curvature="0" />
      <path
         inkscape:connector-curvature="0"
         id="path926-7"
         d="m 16.784066,268.50296 -0.0326,23.13466"
         style="fill:none;stroke:#2a7fff;stroke-width:0.09495324;stroke-linecap:butt;stroke-linejoin:miter;stroke-miterlimit:4;stroke-dasharray:none;stroke-opacity:1" />
      <path
         style="fill:none;stroke:#2a7fff;stroke-width:0.09495324;stroke-linecap:butt;stroke-linejoin:miter;stroke-miterlimit:4;stroke-dasharray:none;stroke-opacity:1"
         d="m 20.045945,268.50296 -0.0326,23.13466"
         id="path928-9"
         inkscape:connector-curvature="0" />
      <path
         inkscape:connector-curvature="0"
         id="path930-0"
         d="m 23.319349,268.50296 -0.0326,23.13466"
         style="fill:none;stroke:#2a7fff;stroke-width:0.09495324;stroke-linecap:butt;stroke-linejoin:miter;stroke-miterlimit:4;stroke-dasharray:none;stroke-opacity:1" />
      <path
         style="fill:none;stroke:#2a7fff;stroke-width:0.09495324;stroke-linecap:butt;stroke-linejoin:miter;stroke-miterlimit:4;stroke-dasharray:none;stroke-opacity:1"
         d="m 26.523598,268.50296 -0.0326,23.13466"
         id="path932-2"
         inkscape:connector-curvature="0" />
      <path
         inkscape:connector-curvature="0"
         id="path934-3"
         d="m 29.773949,268.50296 -0.0326,23.13466"
         style="fill:none;stroke:#2a7fff;stroke-width:0.09495324;stroke-linecap:butt;stroke-linejoin:miter;stroke-miterlimit:4;stroke-dasharray:none;stroke-opacity:1" />
      <path
         inkscape:connector-curvature="0"
         id="path936-9"
         d="M 3.440272,270.38204 H 30.429537"
         style="fill:none;stroke:#2a7fff;stroke-width:0.09495324;stroke-linecap:butt;stroke-linejoin:miter;stroke-miterlimit:4;stroke-dasharray:none;stroke-opacity:1" />
      <path
         style="fill:none;stroke:#2a7fff;stroke-width:0.09495324;stroke-linecap:butt;stroke-linejoin:miter;stroke-miterlimit:4;stroke-dasharray:none;stroke-opacity:1"
         d="M 3.440272,273.62158 H 30.429537"
         id="path938-9"
         inkscape:connector-curvature="0" />
      <path
         inkscape:connector-curvature="0"
         id="path940-7"
         d="M 3.440272,276.86582 H 30.429537"
         style="fill:none;stroke:#2a7fff;stroke-width:0.09495324;stroke-linecap:butt;stroke-linejoin:miter;stroke-miterlimit:4;stroke-dasharray:none;stroke-opacity:1" />
      <path
         style="fill:none;stroke:#2a7fff;stroke-width:0.09495324;stroke-linecap:butt;stroke-linejoin:miter;stroke-miterlimit:4;stroke-dasharray:none;stroke-opacity:1"
         d="M 3.440272,280.09717 H 30.429537"
         id="path942-0"
         inkscape:connector-curvature="0" />
      <path
         inkscape:connector-curvature="0"
         id="path944-3"
         d="M 3.440272,283.33309 H 30.429537"
         style="fill:none;stroke:#2a7fff;stroke-width:0.09495324;stroke-linecap:butt;stroke-linejoin:miter;stroke-miterlimit:4;stroke-dasharray:none;stroke-opacity:1" />
      <path
         style="fill:none;stroke:#2a7fff;stroke-width:0.09495324;stroke-linecap:butt;stroke-linejoin:miter;stroke-miterlimit:4;stroke-dasharray:none;stroke-opacity:1"
         d="M 3.440272,286.57063 H 30.429537"
         id="path946-9"
         inkscape:connector-curvature="0" />
      <path
         inkscape:connector-curvature="0"
         id="path948-8"
         d="M 3.440272,289.81476 H 30.429537"
         style="fill:none;stroke:#2a7fff;stroke-width:0.09495324;stroke-linecap:butt;stroke-linejoin:miter;stroke-miterlimit:4;stroke-dasharray:none;stroke-opacity:1" />
      <path
         id="path927-6"
         style="opacity:0.25;fill:#000000;fill-opacity:1;stroke-width:1.08278418"
         d="m 18.499443,271.99973 c 0.0666,0.009 0.119914,0.0966 0.190537,0.28197 0.136563,0.35851 0.16799,0.87459 0.347285,5.68973 0.09463,2.54138 0.300755,4.81868 0.478221,5.28454 0.229741,0.60312 0.612626,0.41445 1.574987,-0.77521 0.495255,-0.61223 1.055871,-1.23532 1.246003,-1.3846 0.327212,-0.25688 0.364264,-0.25894 0.696447,-0.0418 0.193021,0.12622 0.444651,0.45608 0.558942,0.73306 0.295146,0.71529 0.699526,1.10272 1.26196,1.208 0.267935,0.0503 1.650111,0.0117 3.071129,-0.0857 l 2.466196,-0.16862 c -4.09e-4,0.13757 -9.99e-4,0.2751 -9.09e-4,0.41266 l -1.292464,0.11198 c -0.774625,0.0674 -2.153208,0.12273 -3.06362,0.12273 -1.930543,0 -2.260777,-0.13557 -2.689584,-1.10311 -0.146229,-0.32992 -0.326689,-0.63722 -0.400787,-0.68292 -0.284592,-0.17556 -0.678964,0.11577 -1.488164,1.09979 -0.461379,0.56108 -0.991249,1.11997 -1.177486,1.24175 -0.453235,0.29641 -0.882052,0.14229 -1.107558,-0.39768 -0.229531,-0.54959 -0.457441,-2.84692 -0.552841,-5.57495 -0.08245,-2.35757 -0.15383,-2.90744 -0.339776,-2.60714 -0.107463,0.17356 -0.213466,1.1452 -0.344001,3.15564 -0.02693,0.41485 -0.148133,1.86492 -0.26938,3.22262 -0.407027,4.55777 -0.553161,5.37159 -0.942364,5.24288 -0.204946,-0.0678 -0.475458,-1.19786 -0.492768,-2.05865 -0.0073,-0.36071 -0.10309,-0.86962 -0.212596,-1.1312 -0.226143,-0.5402 -0.335828,-0.56089 -1.671663,-0.31524 -1.21288,0.22307 -1.470417,0.0823 -1.991258,-1.08668 -0.699448,-1.56984 -0.725795,-1.60813 -1.129616,-1.65488 -0.314782,-0.0364 -0.502204,0.0927 -1.092542,0.75412 -2.167641,2.42835 -2.41422,2.52558 -3.59018,1.41553 -0.399535,-0.37715 -0.785572,-0.68575 -0.858357,-0.68575 -0.07278,0 -0.458539,0.27745 -0.856951,0.61689 -0.591973,0.50434 -0.823013,0.61735 -1.264775,0.61735 H 3.432918 v -0.41126 h 0.046 c 0.341457,0 0.637807,-0.15518 1.1803,-0.61736 0.974871,-0.83053 1.297816,-0.82021 2.11797,0.0683 0.926885,1.00427 0.971246,0.98911 2.702259,-0.93821 1.778192,-1.97986 2.189528,-1.95486 3.021381,0.1841 0.176008,0.45255 0.464395,0.97413 0.640601,1.15927 0.309761,0.32551 0.346735,0.33121 1.121638,0.17145 1.172834,-0.24179 1.625032,-0.21059 1.946205,0.1335 0.153225,0.16414 0.314335,0.41095 0.358079,0.54849 0.1008,0.31696 0.295196,0.3222 0.389993,0.01 0.109837,-0.36141 0.341587,-2.42044 0.420496,-3.73741 0.100113,-1.67092 0.60643,-6.99389 0.707242,-7.43548 0.04684,-0.2051 0.169866,-0.44336 0.273604,-0.52929 0.05602,-0.0465 0.100833,-0.0693 0.140792,-0.0637 z"
         inkscape:connector-curvature="0" />
      <path
         inkscape:connector-curvature="0"
         d="m 18.499443,271.47056 c 0.0666,0.009 0.119914,0.0966 0.190537,0.28197 0.136563,0.35851 0.16799,0.87459 0.347285,5.68973 0.09463,2.54138 0.300755,4.81868 0.478221,5.28454 0.229741,0.60312 0.612626,0.41445 1.574987,-0.77521 0.495255,-0.61223 1.055871,-1.23532 1.246003,-1.3846 0.327212,-0.25688 0.364264,-0.25894 0.696447,-0.0418 0.193021,0.12622 0.444651,0.45608 0.558942,0.73306 0.295146,0.71529 0.699526,1.10272 1.26196,1.208 0.267935,0.0503 1.650111,0.0117 3.071129,-0.0857 l 2.466196,-0.16862 c -4.09e-4,0.13757 -9.99e-4,0.2751 -9.09e-4,0.41266 l -1.292464,0.11198 c -0.774625,0.0674 -2.153208,0.12273 -3.06362,0.12273 -1.930543,0 -2.260777,-0.13557 -2.689584,-1.10311 -0.146229,-0.32992 -0.326689,-0.63722 -0.400787,-0.68292 -0.284592,-0.17556 -0.678964,0.11577 -1.488164,1.09979 -0.461379,0.56108 -0.991249,1.11997 -1.177486,1.24175 -0.453235,0.29641 -0.882052,0.14229 -1.107558,-0.39768 -0.229531,-0.54959 -0.457441,-2.84692 -0.552841,-5.57495 -0.08245,-2.35757 -0.15383,-2.90744 -0.339776,-2.60714 -0.107463,0.17356 -0.213466,1.1452 -0.344001,3.15564 -0.02693,0.41485 -0.148133,1.86492 -0.26938,3.22262 -0.407027,4.55777 -0.553161,5.37159 -0.942364,5.24288 -0.204946,-0.0678 -0.475458,-1.19786 -0.492768,-2.05865 -0.0073,-0.36071 -0.10309,-0.86962 -0.212596,-1.1312 -0.226143,-0.5402 -0.335828,-0.56089 -1.671663,-0.31524 -1.21288,0.22307 -1.470417,0.0823 -1.991258,-1.08668 -0.699448,-1.56984 -0.725795,-1.60813 -1.129616,-1.65488 -0.314782,-0.0364 -0.502204,0.0927 -1.092542,0.75412 -2.167641,2.42835 -2.41422,2.52558 -3.59018,1.41553 -0.399535,-0.37715 -0.785572,-0.68575 -0.858357,-0.68575 -0.07278,0 -0.458539,0.27745 -0.856951,0.61689 -0.591973,0.50434 -0.823013,0.61735 -1.264775,0.61735 H 3.432918 v -0.41126 h 0.046 c 0.341457,0 0.637807,-0.15518 1.1803,-0.61736 0.974871,-0.83053 1.297816,-0.82021 2.11797,0.0683 0.926885,1.00427 0.971246,0.98911 2.702259,-0.93821 1.778192,-1.97986 2.189528,-1.95486 3.021381,0.1841 0.176008,0.45255 0.464395,0.97413 0.640601,1.15927 0.309761,0.32551 0.346735,0.33121 1.121638,0.17145 1.172834,-0.24179 1.625032,-0.21059 1.946205,0.1335 0.153225,0.16414 0.314335,0.41095 0.358079,0.54849 0.1008,0.31696 0.295196,0.3222 0.389993,0.01 0.109837,-0.36141 0.341587,-2.42044 0.420496,-3.73741 0.100113,-1.67092 0.60643,-6.99389 0.707242,-7.43548 0.04684,-0.2051 0.169866,-0.44336 0.273604,-0.52929 0.05602,-0.0465 0.100833,-0.0693 0.140792,-0.0637 z"
         style="fill:#d5e5ff;fill-opacity:1;stroke-width:1.08278418"
         id="path1056-5" />
    </g>
  </g>
</svg>
