<?xml version="1.0" encoding="UTF-8" standalone="no"?>
<!-- Created with Inkscape (http://www.inkscape.org/) -->

<svg
   xmlns:dc="http://purl.org/dc/elements/1.1/"
   xmlns:cc="http://creativecommons.org/ns#"
   xmlns:rdf="http://www.w3.org/1999/02/22-rdf-syntax-ns#"
   xmlns:svg="http://www.w3.org/2000/svg"
   xmlns="http://www.w3.org/2000/svg"
   xmlns:xlink="http://www.w3.org/1999/xlink"
   xmlns:sodipodi="http://sodipodi.sourceforge.net/DTD/sodipodi-0.dtd"
   xmlns:inkscape="http://www.inkscape.org/namespaces/inkscape"
   width="128"
   height="128"
   viewBox="0 0 33.866666 33.866668"
   version="1.1"
   id="svg8"
   inkscape:version="0.92.4 (5da689c313, 2019-01-14)"
   sodipodi:docname="babe.svg">
  <defs
     id="defs2">
    <linearGradient
       inkscape:collect="always"
       id="linearGradient1140">
      <stop
         style="stop-color:#c05ddc;stop-opacity:1"
         offset="0"
         id="stop1136" />
      <stop
         style="stop-color:#fe746e;stop-opacity:1"
         offset="1"
         id="stop1138" />
    </linearGradient>
    <linearGradient
       inkscape:collect="always"
       xlink:href="#linearGradient1140"
       id="linearGradient1142"
       x1="15.168114"
       y1="215.52408"
       x2="13.656209"
       y2="192.08955"
       gradientUnits="userSpaceOnUse"
       gradientTransform="matrix(0.99529781,0,0,0.99529781,1.062818,70.568339)" />
  </defs>
  <sodipodi:namedview
     id="base"
     pagecolor="#ffffff"
     bordercolor="#666666"
     borderopacity="1.0"
     inkscape:pageopacity="0.0"
     inkscape:pageshadow="2"
     inkscape:zoom="1.4"
     inkscape:cx="23.390577"
     inkscape:cy="68.854852"
     inkscape:document-units="mm"
     inkscape:current-layer="layer1"
     showgrid="false"
     units="px"
     inkscape:window-width="1600"
     inkscape:window-height="838"
     inkscape:window-x="-8"
     inkscape:window-y="-8"
     inkscape:window-maximized="1" />
  <metadata
     id="metadata5">
    <rdf:RDF>
      <cc:Work
         rdf:about="">
        <dc:format>image/svg+xml</dc:format>
        <dc:type
           rdf:resource="http://purl.org/dc/dcmitype/StillImage" />
        <dc:title />
      </cc:Work>
    </rdf:RDF>
  </metadata>
  <g
     inkscape:label="Layer 1"
     inkscape:groupmode="layer"
     id="layer1"
     transform="translate(0,-263.13332)">
    <g
       id="g829"
       transform="matrix(1.0047244,0,0,1.0047244,4.4771425,4.7155527)">
      <rect
         style="opacity:0.25;fill:#000000;fill-opacity:1;stroke:none;stroke-width:0.12409959;stroke-miterlimit:4;stroke-dasharray:none;stroke-dashoffset:0;stroke-opacity:1"
         id="rect1161"
         width="31.600706"
         height="27.848171"
         x="-3.4027336"
         y="260.3956"
         ry="2.7817304" />
      <rect
         ry="2.7817304"
         y="259.86893"
         x="-3.4027336"
         height="27.848171"
         width="31.600706"
         id="rect1134"
         style="opacity:1;fill:url(#linearGradient1142);fill-opacity:1;stroke:#643173;stroke-width:0.2;stroke-miterlimit:4;stroke-dasharray:none;stroke-dashoffset:0;stroke-opacity:1" />
      <path
         inkscape:connector-curvature="0"
         style="opacity:0.25;fill:#000000;fill-opacity:1;fill-rule:nonzero;stroke:none;stroke-width:0.61612493"
         d="m 6.6912428,264.94545 c -0.4524673,0 -0.8158844,0.31769 -0.8158844,0.7124 v 1.02046 c 0,0.3947 0.3634171,0.7148 0.8158844,0.7148 h 1.6293613 c 0.4524673,0 0.8158844,-0.3201 0.8158844,-0.7148 v -1.02046 c 0,-0.39471 -0.3634171,-0.7124 -0.8158844,-0.7124 z m 9.7809842,0 c -0.450061,0 -0.813478,0.31769 -0.813478,0.7124 v 1.02046 c 0,0.3947 0.363417,0.7148 0.813478,0.7148 h 1.631768 c 0.45006,0 0.813477,-0.3201 0.813477,-0.7148 v -1.02046 c 0,-0.39471 -0.363417,-0.7124 -0.813477,-0.7124 z m -14.6714755,2.03851 c -0.4524673,0 -0.81588439,0.31769 -0.81588439,0.7124 v 1.02046 c 0,0.3947 0.36341709,0.71239 0.81588439,0.71239 h 1.6293612 c 0.4524664,0 0.8158845,-0.31769 0.8158845,-0.71239 v -1.02046 c 0,-0.39471 -0.3634181,-0.7124 -0.8158845,-0.7124 z m 19.5619665,0 c -0.45006,0 -0.813478,0.31769 -0.813478,0.7124 v 1.02046 c 0,0.3947 0.363418,0.71239 0.813478,0.71239 h 1.631769 c 0.452466,0 0.815884,-0.31769 0.815884,-0.71239 v -1.02046 c 0,-0.39471 -0.363418,-0.7124 -0.815884,-0.7124 z m -14.6714752,2.03851 c -0.4524673,0 -0.8158844,0.31769 -0.8158844,0.7124 v 1.02045 c 0,0.3947 0.3634171,0.7124 0.8158844,0.7124 h 1.6293613 c 0.4524673,0 0.8158844,-0.3177 0.8158844,-0.7124 v -1.02045 c 0,-0.39471 -0.3634171,-0.7124 -0.8158844,-0.7124 z m 4.8904912,0 c -0.452466,0 -0.815883,0.31769 -0.815883,0.7124 v 1.02045 c 0,0.3947 0.363417,0.7124 0.815883,0.7124 h 1.629363 c 0.452466,0 0.815884,-0.3177 0.815884,-0.7124 v -1.02045 c 0,-0.39471 -0.363418,-0.7124 -0.815884,-0.7124 z m 4.890493,0 c -0.450061,0 -0.813478,0.31769 -0.813478,0.7124 v 1.02045 c 0,0.3947 0.363417,0.7124 0.813478,0.7124 h 1.631768 c 0.45006,0 0.813477,-0.3177 0.813477,-0.7124 v -1.02045 c 0,-0.39471 -0.363417,-0.7124 -0.813477,-0.7124 z m -14.6714755,2.0385 c -0.4524673,0 -0.81588439,0.31769 -0.81588439,0.71239 v 1.02046 c 0,0.39471 0.36341709,0.7124 0.81588439,0.7124 h 1.6293612 c 0.4524664,0 0.8158845,-0.31769 0.8158845,-0.7124 v -1.02046 c 0,-0.3947 -0.3634181,-0.71239 -0.8158845,-0.71239 z m 19.5619665,0 c -0.45006,0 -0.813478,0.31769 -0.813478,0.71239 v 1.02046 c 0,0.39471 0.363418,0.7124 0.813478,0.7124 h 1.631769 c 0.452466,0 0.815884,-0.31769 0.815884,-0.7124 v -1.02046 c 0,-0.3947 -0.363418,-0.71239 -0.815884,-0.71239 z m -14.6714752,2.0361 c -0.4524673,0 -0.8158844,0.31769 -0.8158844,0.7124 v 1.02045 c 0,0.39471 0.3634171,0.7124 0.8158844,0.7124 h 1.6293613 c 0.4524673,0 0.8158844,-0.31769 0.8158844,-0.7124 v -1.02045 c 0,-0.39471 -0.3634171,-0.7124 -0.8158844,-0.7124 z m 4.8904912,0 c -0.452466,0 -0.815883,0.31769 -0.815883,0.7124 v 1.02045 c 0,0.39471 0.363417,0.7124 0.815883,0.7124 h 1.629363 c 0.452466,0 0.815884,-0.31769 0.815884,-0.7124 v -1.02045 c 0,-0.39471 -0.363418,-0.7124 -0.815884,-0.7124 z m 4.890493,0 c -0.450061,0 -0.813478,0.31769 -0.813478,0.7124 v 1.02045 c 0,0.39471 0.363417,0.7124 0.813478,0.7124 h 1.631768 c 0.45006,0 0.813477,-0.31769 0.813477,-0.7124 v -1.02045 c 0,-0.39471 -0.363417,-0.7124 -0.813477,-0.7124 z m -14.6714755,2.03851 c -0.4524673,0 -0.81588439,0.31769 -0.81588439,0.71239 v 1.02046 c 0,0.39471 0.36341709,0.7124 0.81588439,0.7124 h 1.6293612 c 0.4524664,0 0.8158845,-0.31769 0.8158845,-0.7124 v -1.02046 c 0,-0.3947 -0.3634181,-0.71239 -0.8158845,-0.71239 z m 19.5619665,0 c -0.45006,0 -0.813478,0.31769 -0.813478,0.71239 v 1.02046 c 0,0.39471 0.363418,0.7124 0.813478,0.7124 h 1.631769 c 0.452466,0 0.815884,-0.31769 0.815884,-0.7124 v -1.02046 c 0,-0.3947 -0.363418,-0.71239 -0.815884,-0.71239 z m -14.6714752,2.03851 c -0.4524673,0 -0.8158844,0.31769 -0.8158844,0.71239 v 1.02046 c 0,0.39471 0.3634171,0.7124 0.8158844,0.7124 h 1.6293613 c 0.4524673,0 0.8158844,-0.31769 0.8158844,-0.7124 v -1.02046 c 0,-0.3947 -0.3634171,-0.71239 -0.8158844,-0.71239 z m 4.8904912,0 c -0.452466,0 -0.815883,0.31769 -0.815883,0.71239 v 1.02046 c 0,0.39471 0.363417,0.7124 0.815883,0.7124 h 1.629363 c 0.452466,0 0.815884,-0.31769 0.815884,-0.7124 v -1.02046 c 0,-0.3947 -0.363418,-0.71239 -0.815884,-0.71239 z m 4.890493,0 c -0.450061,0 -0.813478,0.31769 -0.813478,0.71239 v 1.02046 c 0,0.39471 0.363417,0.7124 0.813478,0.7124 h 1.631768 c 0.45006,0 0.813477,-0.31769 0.813477,-0.7124 v -1.02046 c 0,-0.3947 -0.363417,-0.71239 -0.813477,-0.71239 z m -4.890493,4.07461 c -0.452466,0 -0.815883,0.31769 -0.815883,0.71239 v 1.02046 c 0,0.39471 0.363417,0.7124 0.815883,0.7124 h 1.629363 c 0.452466,0 0.815884,-0.31769 0.815884,-0.7124 v -1.02046 c 0,-0.3947 -0.363418,-0.71239 -0.815884,-0.71239 z m 0,0"
         id="path1159" />
      <path
         id="path1074"
         d="m 6.6912428,264.41877 c -0.4524673,0 -0.8158844,0.31769 -0.8158844,0.7124 v 1.02045 c 0,0.39471 0.3634171,0.71481 0.8158844,0.71481 h 1.6293613 c 0.4524673,0 0.8158844,-0.3201 0.8158844,-0.71481 v -1.02045 c 0,-0.39471 -0.3634171,-0.7124 -0.8158844,-0.7124 z m 9.7809842,0 c -0.450061,0 -0.813478,0.31769 -0.813478,0.7124 v 1.02045 c 0,0.39471 0.363417,0.71481 0.813478,0.71481 h 1.631768 c 0.45006,0 0.813477,-0.3201 0.813477,-0.71481 v -1.02045 c 0,-0.39471 -0.363417,-0.7124 -0.813477,-0.7124 z m -14.6714755,2.03851 c -0.4524673,0 -0.81588439,0.31769 -0.81588439,0.71239 v 1.02046 c 0,0.39471 0.36341709,0.7124 0.81588439,0.7124 h 1.6293612 c 0.4524664,0 0.8158845,-0.31769 0.8158845,-0.7124 v -1.02046 c 0,-0.3947 -0.3634181,-0.71239 -0.8158845,-0.71239 z m 19.5619665,0 c -0.45006,0 -0.813478,0.31769 -0.813478,0.71239 v 1.02046 c 0,0.39471 0.363418,0.7124 0.813478,0.7124 h 1.631769 c 0.452466,0 0.815884,-0.31769 0.815884,-0.7124 v -1.02046 c 0,-0.3947 -0.363418,-0.71239 -0.815884,-0.71239 z m -14.6714752,2.03851 c -0.4524673,0 -0.8158844,0.31769 -0.8158844,0.71239 v 1.02046 c 0,0.3947 0.3634171,0.7124 0.8158844,0.7124 h 1.6293613 c 0.4524673,0 0.8158844,-0.3177 0.8158844,-0.7124 v -1.02046 c 0,-0.3947 -0.3634171,-0.71239 -0.8158844,-0.71239 z m 4.8904912,0 c -0.452466,0 -0.815883,0.31769 -0.815883,0.71239 v 1.02046 c 0,0.3947 0.363417,0.7124 0.815883,0.7124 h 1.629363 c 0.452466,0 0.815884,-0.3177 0.815884,-0.7124 v -1.02046 c 0,-0.3947 -0.363418,-0.71239 -0.815884,-0.71239 z m 4.890493,0 c -0.450061,0 -0.813478,0.31769 -0.813478,0.71239 v 1.02046 c 0,0.3947 0.363417,0.7124 0.813478,0.7124 h 1.631768 c 0.45006,0 0.813477,-0.3177 0.813477,-0.7124 v -1.02046 c 0,-0.3947 -0.363417,-0.71239 -0.813477,-0.71239 z m -14.6714755,2.0385 c -0.4524673,0 -0.81588439,0.31769 -0.81588439,0.71239 v 1.02046 c 0,0.39471 0.36341709,0.7124 0.81588439,0.7124 h 1.6293612 c 0.4524664,0 0.8158845,-0.31769 0.8158845,-0.7124 v -1.02046 c 0,-0.3947 -0.3634181,-0.71239 -0.8158845,-0.71239 z m 19.5619665,0 c -0.45006,0 -0.813478,0.31769 -0.813478,0.71239 v 1.02046 c 0,0.39471 0.363418,0.7124 0.813478,0.7124 h 1.631769 c 0.452466,0 0.815884,-0.31769 0.815884,-0.7124 v -1.02046 c 0,-0.3947 -0.363418,-0.71239 -0.815884,-0.71239 z m -14.6714752,2.0361 c -0.4524673,0 -0.8158844,0.31769 -0.8158844,0.71239 v 1.02046 c 0,0.39471 0.3634171,0.7124 0.8158844,0.7124 h 1.6293613 c 0.4524673,0 0.8158844,-0.31769 0.8158844,-0.7124 v -1.02046 c 0,-0.3947 -0.3634171,-0.71239 -0.8158844,-0.71239 z m 4.8904912,0 c -0.452466,0 -0.815883,0.31769 -0.815883,0.71239 v 1.02046 c 0,0.39471 0.363417,0.7124 0.815883,0.7124 h 1.629363 c 0.452466,0 0.815884,-0.31769 0.815884,-0.7124 v -1.02046 c 0,-0.3947 -0.363418,-0.71239 -0.815884,-0.71239 z m 4.890493,0 c -0.450061,0 -0.813478,0.31769 -0.813478,0.71239 v 1.02046 c 0,0.39471 0.363417,0.7124 0.813478,0.7124 h 1.631768 c 0.45006,0 0.813477,-0.31769 0.813477,-0.7124 v -1.02046 c 0,-0.3947 -0.363417,-0.71239 -0.813477,-0.71239 z M 1.8007515,274.6089 c -0.4524673,0 -0.81588439,0.31769 -0.81588439,0.71239 v 1.02046 c 0,0.39471 0.36341709,0.7124 0.81588439,0.7124 h 1.6293612 c 0.4524664,0 0.8158845,-0.31769 0.8158845,-0.7124 v -1.02046 c 0,-0.3947 -0.3634181,-0.71239 -0.8158845,-0.71239 z m 19.5619665,0 c -0.45006,0 -0.813478,0.31769 -0.813478,0.71239 v 1.02046 c 0,0.39471 0.363418,0.7124 0.813478,0.7124 h 1.631769 c 0.452466,0 0.815884,-0.31769 0.815884,-0.7124 v -1.02046 c 0,-0.3947 -0.363418,-0.71239 -0.815884,-0.71239 z m -14.6714752,2.03851 c -0.4524673,0 -0.8158844,0.31769 -0.8158844,0.71239 v 1.02046 c 0,0.39471 0.3634171,0.7124 0.8158844,0.7124 h 1.6293613 c 0.4524673,0 0.8158844,-0.31769 0.8158844,-0.7124 v -1.02046 c 0,-0.3947 -0.3634171,-0.71239 -0.8158844,-0.71239 z m 4.8904912,0 c -0.452466,0 -0.815883,0.31769 -0.815883,0.71239 v 1.02046 c 0,0.39471 0.363417,0.7124 0.815883,0.7124 h 1.629363 c 0.452466,0 0.815884,-0.31769 0.815884,-0.7124 v -1.02046 c 0,-0.3947 -0.363418,-0.71239 -0.815884,-0.71239 z m 4.890493,0 c -0.450061,0 -0.813478,0.31769 -0.813478,0.71239 v 1.02046 c 0,0.39471 0.363417,0.7124 0.813478,0.7124 h 1.631768 c 0.45006,0 0.813477,-0.31769 0.813477,-0.7124 v -1.02046 c 0,-0.3947 -0.363417,-0.71239 -0.813477,-0.71239 z m -4.890493,4.07461 c -0.452466,0 -0.815883,0.31769 -0.815883,0.71239 v 1.02046 c 0,0.39471 0.363417,0.7124 0.815883,0.7124 h 1.629363 c 0.452466,0 0.815884,-0.31769 0.815884,-0.7124 v -1.02046 c 0,-0.3947 -0.363418,-0.71239 -0.815884,-0.71239 z m 0,0"
         style="fill:#eff4f6;fill-opacity:1;fill-rule:nonzero;stroke:#643173;stroke-width:0.1;stroke-miterlimit:4;stroke-dasharray:none;stroke-opacity:1"
         inkscape:connector-curvature="0" />
    </g>
  </g>
</svg>
