<?xml version="1.0" encoding="UTF-8" standalone="no"?>
<!-- Created with Inkscape (http://www.inkscape.org/) -->

<svg
   xmlns:osb="http://www.openswatchbook.org/uri/2009/osb"
   xmlns:dc="http://purl.org/dc/elements/1.1/"
   xmlns:cc="http://creativecommons.org/ns#"
   xmlns:rdf="http://www.w3.org/1999/02/22-rdf-syntax-ns#"
   xmlns:svg="http://www.w3.org/2000/svg"
   xmlns="http://www.w3.org/2000/svg"
   xmlns:xlink="http://www.w3.org/1999/xlink"
   xmlns:sodipodi="http://sodipodi.sourceforge.net/DTD/sodipodi-0.dtd"
   xmlns:inkscape="http://www.inkscape.org/namespaces/inkscape"
   width="128"
   height="128"
   viewBox="0 0 33.866666 33.866668"
   version="1.1"
   id="svg8"
   inkscape:version="0.92.4 (5da689c313, 2019-01-14)"
   sodipodi:docname="brave-browser-dev - Copy.svg">
  <defs
     id="defs2">
    <linearGradient
       inkscape:collect="always"
       id="linearGradient917">
      <stop
         style="stop-color:#d9d9d9;stop-opacity:1"
         offset="0"
         id="stop913" />
      <stop
         style="stop-color:#ffffff;stop-opacity:1"
         offset="1"
         id="stop915" />
    </linearGradient>
    <linearGradient
       id="linearGradient1495"
       inkscape:collect="always">
      <stop
         id="stop1491"
         offset="0"
         style="stop-color:#7d3ac0;stop-opacity:1" />
      <stop
         id="stop1493"
         offset="1"
         style="stop-color:#4e1b7e;stop-opacity:1" />
    </linearGradient>
    <linearGradient
       osb:paint="solid"
       id="linearGradient6987">
      <stop
         id="stop6985"
         offset="0"
         style="stop-color:#77d2fb;stop-opacity:1;" />
    </linearGradient>
    <linearGradient
       inkscape:collect="always"
       xlink:href="#linearGradient1495"
       id="linearGradient911"
       x1="110.0088"
       y1="139.77408"
       x2="109.84691"
       y2="159.15111"
       gradientUnits="userSpaceOnUse"
       gradientTransform="translate(-93.595874,130.55683)" />
    <linearGradient
       inkscape:collect="always"
       xlink:href="#linearGradient917"
       id="linearGradient919"
       x1="114.12408"
       y1="162.69707"
       x2="116.39588"
       y2="135.43558"
       gradientUnits="userSpaceOnUse"
       gradientTransform="translate(-93.595874,130.55683)" />
  </defs>
  <sodipodi:namedview
     id="base"
     pagecolor="#ffffff"
     bordercolor="#666666"
     borderopacity="1.0"
     inkscape:pageopacity="0.0"
     inkscape:pageshadow="2"
     inkscape:zoom="1.979899"
     inkscape:cx="18.244788"
     inkscape:cy="73.7697"
     inkscape:document-units="mm"
     inkscape:current-layer="layer1"
     showgrid="false"
     inkscape:window-width="1600"
     inkscape:window-height="838"
     inkscape:window-x="-8"
     inkscape:window-y="-8"
     inkscape:window-maximized="1"
     units="px" />
  <metadata
     id="metadata5">
    <rdf:RDF>
      <cc:Work
         rdf:about="">
        <dc:format>image/svg+xml</dc:format>
        <dc:type
           rdf:resource="http://purl.org/dc/dcmitype/StillImage" />
        <dc:title />
      </cc:Work>
    </rdf:RDF>
  </metadata>
  <g
     inkscape:label="Layer 1"
     inkscape:groupmode="layer"
     id="layer1"
     transform="translate(0,-263.13332)">
    <path
       id="path839"
       d="M 15.286896,295.87822 C 9.226156,295.2414 4.014949,291.05204 2.09537,285.27338 1.537228,283.59317 1.308549,282.15329 1.308549,280.3191 c 0,-1.83417 0.228679,-3.27408 0.786821,-4.95429 1.454016,-4.37713 4.800906,-7.89619 9.144276,-9.61466 2.71389,-1.07376 5.87424,-1.34341 8.83236,-0.75359 2.98109,0.59438 5.75454,2.0881 7.9354,4.2738 2.43698,2.44238 3.97166,5.54948 4.46684,9.04346 0.11183,0.78913 0.11183,3.22144 0,4.01056 -0.64731,4.56743 -3.1138,8.51953 -6.88214,11.02734 -2.04825,1.36311 -4.36546,2.20967 -6.84017,2.49896 -0.93432,0.10922 -2.56437,0.12218 -3.46504,0.0276 z"
       style="opacity:0.25;fill:#000000;fill-opacity:1;stroke:none;stroke-width:0.18861724;stroke-miterlimit:4;stroke-dasharray:none;stroke-opacity:1"
       inkscape:connector-curvature="0" />
    <path
       inkscape:connector-curvature="0"
       style="fill:url(#linearGradient919);fill-opacity:1;stroke:#2f104d;stroke-width:0.2;stroke-miterlimit:4;stroke-dasharray:none;stroke-opacity:1"
       d="M 15.286896,295.37917 C 9.226156,294.74235 4.014949,290.55299 2.09537,284.77433 c -0.558142,-1.68021 -0.786821,-3.1201 -0.786821,-4.95428 0,-1.83418 0.228679,-3.27408 0.786821,-4.9543 1.454016,-4.37712 4.800906,-7.89617 9.144276,-9.61465 2.71389,-1.07377 5.87424,-1.34341 8.83236,-0.7536 2.98109,0.5944 5.75454,2.08811 7.9354,4.27381 2.43698,2.44238 3.97166,5.54948 4.46684,9.04346 0.11183,0.78913 0.11183,3.22144 0,4.01056 -0.64731,4.56744 -3.1138,8.51951 -6.88214,11.02734 -2.04825,1.36311 -4.36546,2.20967 -6.84017,2.49895 -0.93432,0.10923 -2.56437,0.12219 -3.46504,0.0276 z"
       id="path4939" />
    <path
       d="m 26.068186,274.08332 0.54023,-1.32768 c 0,0 -0.68757,-0.7376 -1.52247,-1.57355 -0.83491,-0.83596 -2.60295,-0.34422 -2.60295,-0.34422 l -2.01359,-2.28731 h -3.53607 -3.53607 l -2.0136,2.28731 c 0,0 -1.76803,-0.49174 -2.60294,0.34422 -0.83491,0.83595 -1.52248,1.57355 -1.52248,1.57355 l 0.54024,1.32768 -0.68757,1.96695 c 0,0 2.02219,7.66886 2.25915,8.60537 0.46657,1.84401 0.7858,2.55703 2.11182,3.49133 1.32603,0.9343 3.73252,2.55702 4.12542,2.80289 0.3929,0.24587 0.88402,0.66468 1.32603,0.66468 0.44201,0 0.93313,-0.41881 1.32603,-0.66468 0.39289,-0.24587 2.79939,-1.86859 4.12541,-2.80289 1.32603,-0.9343 1.64526,-1.64732 2.11182,-3.49133 0.23692,-0.93651 2.25916,-8.60537 2.25916,-8.60537 z"
       id="path1469"
       inkscape:connector-curvature="0"
       style="opacity:0.25;fill:#000000;fill-opacity:1;fill-rule:evenodd;stroke:none;stroke-width:0.0971022;stroke-miterlimit:4;stroke-dasharray:none;stroke-opacity:1" />
    <path
       style="fill:url(#linearGradient911);fill-opacity:1;fill-rule:evenodd;stroke:#2f104d;stroke-width:0.1003164;stroke-miterlimit:4;stroke-dasharray:none;stroke-opacity:1"
       inkscape:connector-curvature="0"
       id="Head"
       d="m 26.068186,273.55248 0.54023,-1.32768 c 0,0 -0.68757,-0.7376 -1.52247,-1.57356 -0.83491,-0.83595 -2.60295,-0.34421 -2.60295,-0.34421 l -2.01359,-2.28731 h -3.53607 -3.53607 l -2.0136,2.28731 c 0,0 -1.76803,-0.49174 -2.60294,0.34421 -0.83491,0.83596 -1.52248,1.57356 -1.52248,1.57356 l 0.54024,1.32768 -0.68757,1.96695 c 0,0 2.02219,7.66886 2.25915,8.60537 0.46657,1.84401 0.7858,2.55703 2.11182,3.49133 1.32603,0.9343 3.73252,2.55702 4.12542,2.80289 0.3929,0.24587 0.88402,0.66468 1.32603,0.66468 0.44201,0 0.93313,-0.41881 1.32603,-0.66468 0.39289,-0.24587 2.79939,-1.86859 4.12541,-2.80289 1.32603,-0.9343 1.64526,-1.64732 2.11182,-3.49133 0.23692,-0.93651 2.25916,-8.60537 2.25916,-8.60537 z" />
    <path
       style="fill:#ffffff;fill-opacity:1;fill-rule:evenodd;stroke:#2f104d;stroke-width:0.1003164;stroke-miterlimit:4;stroke-dasharray:none;stroke-opacity:1"
       inkscape:connector-curvature="0"
       id="Face"
       d="m 21.918216,271.75765 c 0,0 2.58997,3.13482 2.58997,3.80481 0,0.66998 -0.32581,0.84681 -0.65338,1.19511 -0.32758,0.34829 -1.75827,1.86943 -1.94199,2.06475 -0.18373,0.19536 -0.56622,0.49154 -0.34124,1.02463 0.22498,0.53309 0.55688,1.21144 0.18781,1.89947 -0.36913,0.68804 -1.00145,1.14727 -1.40662,1.07135 -0.40518,-0.076 -1.35672,-0.57386 -1.70665,-0.80128 -0.34992,-0.22743 -1.45897,-1.14324 -1.45897,-1.49365 0,-0.35036 1.14642,-0.97949 1.35819,-1.12244 0.21188,-0.1429 1.17791,-0.69615 1.1977,-0.9133 0.0198,-0.2172 0.0122,-0.28088 -0.27287,-0.81746 -0.28509,-0.53663 -0.79851,-1.2527 -0.71305,-1.72914 0.0854,-0.47639 0.91348,-0.72413 1.5044,-0.94757 0.59082,-0.2234 1.7285,-0.64536 1.87058,-0.71095 0.14218,-0.0657 0.10544,-0.12815 -0.32512,-0.16902 -0.43047,-0.0409 -1.65218,-0.20323 -2.20298,-0.0495 -0.55079,0.15371 -1.49177,0.38758 -1.568,0.5116 -0.0762,0.12401 -0.14346,0.12819 -0.0652,0.55601 0.0782,0.42781 0.48125,2.4806 0.52035,2.84523 0.0391,0.36462 0.11565,0.60566 -0.277,0.69556 -0.3927,0.0899 -1.0537,0.24597 -1.28084,0.24597 -0.22715,0 -0.88819,-0.15608 -1.28085,-0.24597 -0.3927,-0.0899 -0.31618,-0.33094 -0.27703,-0.69556 0.0391,-0.36463 0.4421,-2.41742 0.52038,-2.84523 0.0782,-0.42782 0.011,-0.432 -0.0652,-0.55601 -0.0762,-0.12402 -1.01726,-0.35789 -1.56805,-0.5116 -0.55079,-0.15372 -1.77245,0.009 -2.20297,0.0495 -0.43052,0.0409 -0.46725,0.10337 -0.32512,0.16902 0.14213,0.0656 1.27981,0.48755 1.87063,0.71095 0.59087,0.22344 1.41895,0.47118 1.5044,0.94757 0.0855,0.47644 -0.42801,1.19251 -0.71306,1.72914 -0.2851,0.53658 -0.29266,0.60026 -0.27287,0.81746 0.0198,0.21715 0.98583,0.7704 1.19765,0.9133 0.21182,0.14295 1.35819,0.77208 1.35819,1.12244 0,0.35041 -1.10899,1.26622 -1.45891,1.49365 -0.34993,0.22742 -1.30147,0.72531 -1.70665,0.80128 -0.40517,0.0759 -1.0375,-0.38331 -1.40662,-1.07135 -0.36908,-0.68803 -0.0372,-1.36638 0.18775,-1.89947 0.22499,-0.53309 -0.15745,-0.82927 -0.34123,-1.02463 -0.18367,-0.19532 -1.6144,-1.71646 -1.94198,-2.06475 -0.32758,-0.3483 -0.65334,-0.52513 -0.65334,-1.19512 0,-0.66999 2.58997,-3.8048 2.58997,-3.8048 0,0 2.18549,0.41798 2.48016,0.41798 0.29467,0 0.93313,-0.24587 1.52247,-0.44257 0.58935,-0.19669 0.98225,-0.19812 0.98225,-0.19812 0,0 0.3929,0.002 0.98224,0.19812 0.58935,0.1967 1.2278,0.44257 1.52247,0.44257 0.29468,0 2.48017,-0.41798 2.48017,-0.41798 z m -1.94161,11.99129 c 0.1603,0.10051 0.0625,0.28998 -0.0835,0.39334 -0.14606,0.10336 -2.10863,1.62499 -2.29909,1.79316 -0.1905,0.16822 -0.47039,0.44601 -0.6607,0.44601 -0.19031,0 -0.47025,-0.27779 -0.66071,-0.44601 -0.1905,-0.16817 -2.15302,-1.6898 -2.29908,-1.79316 -0.14606,-0.10336 -0.24379,-0.29283 -0.0835,-0.39334 0.16035,-0.10046 0.66193,-0.35405 1.35407,-0.71267 0.69204,-0.35858 1.55459,-0.66345 1.68921,-0.66345 0.13462,0 0.99712,0.30487 1.68926,0.66345 0.69209,0.35862 1.19367,0.61221 1.35402,0.71267 z" />
  </g>
</svg>
