<?xml version="1.0" encoding="UTF-8" standalone="no"?>
<!-- Generator: Adobe Illustrator 18.1.1, SVG Export Plug-In . SVG Version: 6.00 Build 0)  -->

<svg
   xmlns:ns="&amp;ns_sfw;"
   xmlns:dc="http://purl.org/dc/elements/1.1/"
   xmlns:cc="http://creativecommons.org/ns#"
   xmlns:rdf="http://www.w3.org/1999/02/22-rdf-syntax-ns#"
   xmlns:svg="http://www.w3.org/2000/svg"
   xmlns="http://www.w3.org/2000/svg"
   xmlns:sodipodi="http://sodipodi.sourceforge.net/DTD/sodipodi-0.dtd"
   xmlns:inkscape="http://www.inkscape.org/namespaces/inkscape"
   version="1.1"
   id="图层_1"
   x="0px"
   y="0px"
   viewBox="0 0 128 128"
   enable-background="new 0 0 48 48"
   xml:space="preserve"
   sodipodi:docname="cherrytree.svg"
   width="128"
   height="128"
   inkscape:version="0.92.2 5c3e80d, 2017-08-06"><defs
     id="defs47" /><sodipodi:namedview
     pagecolor="#ffffff"
     bordercolor="#666666"
     borderopacity="1"
     objecttolerance="10"
     gridtolerance="10"
     guidetolerance="10"
     inkscape:pageopacity="0"
     inkscape:pageshadow="2"
     inkscape:window-width="1600"
     inkscape:window-height="803"
     id="namedview45"
     showgrid="false"
     inkscape:zoom="2.4583333"
     inkscape:cx="32.90379"
     inkscape:cy="88.57715"
     inkscape:window-x="0"
     inkscape:window-y="0"
     inkscape:window-maximized="1"
     inkscape:current-layer="图层_1" /><metadata
     id="metadata2"><ns:sfw><ns:slices /><ns:sliceSourceBounds
         width="438.618"
         height="290.108"
         x="2"
         y="-151.549"
         bottomLeftOrigin="true" /></ns:sfw><rdf:RDF><cc:Work
         rdf:about=""><dc:format>image/svg+xml</dc:format><dc:type
           rdf:resource="http://purl.org/dc/dcmitype/StillImage" /><dc:title></dc:title></cc:Work></rdf:RDF></metadata><g
     id="g1000"
     transform="matrix(0.98360653,0,0,0.98360653,1.0491821,0.06557477)"><g
       style="opacity:0.25"
       transform="translate(0,2)"
       id="g977"><path
         d="M 65.117102,82.060377 C 62.27306,91.612517 47.515842,111.37081 31.88561,103.9727 30.9346,103.5227 27.56855,102.10968 24.3165,102.18768 11.0233,102.50868 3.9342002,84.811418 6.0432302,70.714209 8.5152702,48.516882 22.36947,41.808783 36.07067,48.297879 c 3.28805,1.557023 6.5371,2.604038 10.65616,2.619038 14.631216,0.102002 24.966369,13.653202 18.390272,31.14346 z"
         id="path873"
         inkscape:connector-curvature="0"
         style="fill:#000000;stroke-width:3.00004435" /><path
         d="M 111.29978,95.737577 C 108.84275,106.60674 93.866526,129.75808 75.87226,122.67798 74.777244,122.24897 70.916187,120.92295 67.295134,121.25296 52.489915,122.60898 43.25278,103.3997 44.545798,87.511457 45.637814,62.563089 60.590035,54.039963 76.361268,60.250055 c 3.783055,1.491022 7.48811,2.415036 12.084178,2.121031 16.332244,-0.978014 28.878424,13.362198 22.854334,33.366491 z"
         id="path881"
         inkscape:connector-curvature="0"
         style="fill:#000000;stroke-width:3.00004435" /></g><g
       transform="matrix(3.0000443,0,0,3.0000443,-9.4819999,-7.7339488)"
       id="g40"><g
         id="g38"><path
           d="m 24.866,29.931 c -0.948,3.184 -5.867,9.77 -11.077,7.304 -0.317,-0.15 -1.439,-0.621 -2.523,-0.595 -4.431,0.107 -6.794,-5.792 -6.091,-10.491 0.824,-7.399 5.442,-9.635 10.009,-7.472 1.096,0.519 2.179,0.868 3.552,0.873 4.877,0.034 8.322,4.551 6.13,10.381 z"
           id="path6"
           inkscape:connector-curvature="0"
           style="fill:#940707" /><path
           d="m 20.028,21.362 c -0.257,0.753 -1.753,0.925 -3.343,0.384 -1.59,-0.541 -2.67,-1.591 -2.414,-2.344 0.257,-0.753 1.364,0.003 2.954,0.545 1.59,0.541 3.06,0.662 2.803,1.415 z"
           id="path8"
           inkscape:connector-curvature="0"
           style="fill:#6a0202" /><path
           d="m 19.947,27.791 c -1.224,4.22 -5.22,6.771 -8.927,5.696 C 7.313,32.412 5.301,28.12 6.525,23.9 c 1.019,-3.516 3.448,-5.086 5.902,-3.204 1.007,0.773 1.603,1.82 4.04,1.946 3.257,0.167 4.406,1.955 3.48,5.149 z"
           id="path10"
           inkscape:connector-curvature="0"
           style="fill:#b00707" /><path
           d="m 15.379,19.491 c 0,0 1.575,0.006 3.98,-2.859 0,0 8.29,-9.092 14.429,-10.024 0.69,-0.105 1.107,0.164 0.026,0.94 -0.908,0.652 -8.275,4.371 -13.52,10.238 0,0 -1.818,1.806 -1.304,2.788 0.603,1.152 -0.31,1.287 -1.632,1.051 -0.558,-0.1 -1.458,-0.481 -1.807,-0.823 10e-4,-0.001 -1.267,-1.13 -0.172,-1.311 z"
           id="path12"
           inkscape:connector-curvature="0"
           style="fill:#356b02" /><path
           d="m 40.26,34.49 c -0.819,3.623 -5.811,11.34 -11.809,8.98 -0.365,-0.143 -1.652,-0.585 -2.859,-0.475 -4.935,0.452 -8.014,-5.951 -7.583,-11.247 0.364,-8.316 5.348,-11.157 10.605,-9.087 1.261,0.497 2.496,0.805 4.028,0.707 5.444,-0.326 9.626,4.454 7.618,11.122 z"
           id="path14"
           inkscape:connector-curvature="0"
           style="fill:#b30909" /><path
           d="m 33.732,25.373 c -0.139,0.813 -1.752,1.215 -3.603,0.899 -1.851,-0.316 -3.239,-1.231 -3.1,-2.043 0.139,-0.813 1.501,-0.203 3.351,0.113 1.851,0.316 3.491,0.219 3.352,1.031 z"
           id="path16"
           inkscape:connector-curvature="0"
           style="fill:#810606" /><path
           d="m 37.632,5.922 c 0,0 -3.285,4.891 1.68,9.793 0,0 2.113,2.143 2.928,3.735 0.093,0.182 0.362,0.133 0.387,-0.071 0.138,-1.135 0.443,-3.102 0.986,-4.168 0,0 1.551,-3.633 -2.158,-5.258 0,0.001 -3.185,-1.802 -3.823,-4.031 z"
           id="path18"
           inkscape:connector-curvature="0"
           style="fill:#59a80a" /><path
           d="m 41.932,17.122 c -0.886,-1.13 -1.819,-2.08 -1.878,-2.14 -2.603,-2.57 -2.653,-5.093 -2.269,-6.712 1.222,1.465 2.898,2.445 3.155,2.59 l 0.096,0.048 c 2.597,1.138 1.801,3.448 1.616,3.899 -0.304,0.593 -0.539,1.438 -0.72,2.315 z"
           id="path20"
           inkscape:connector-curvature="0"
           style="fill:#4d920b" /><g
           id="g24"><path
             d="m 25.985,11.083 c -3.291,2.07 -5.884,5.262 -8.387,7.725 -0.618,0.609 -1.198,0.565 -1.52,0.951 -0.215,0.257 0.26,1.144 1.439,-0.036 2.776,-2.778 5.8,-6.353 9.113,-8.437 0.284,-0.178 0.028,-0.633 -0.256,-0.454 z"
             id="path22"
             inkscape:connector-curvature="0"
             style="fill:#4e9a06" /></g><path
           d="m 28.651,23.805 c 0,0 1.296,-0.241 1.884,-3.919 0,0 1.66,-10.099 6.202,-12.832 0.721,-0.434 1.417,-0.271 0.362,0.844 -0.887,0.937 -3.263,4.768 -4.956,13.033 0,0 -0.692,2.514 0.42,3.576 1.016,0.971 -0.15,1.383 -1.787,1.212 -0.688,-0.072 -1.166,-0.201 -1.68,-0.475 0,0.001 -1.691,-0.956 -0.445,-1.439 z"
           id="path26"
           inkscape:connector-curvature="0"
           style="fill:#356b02" /><path
           d="m 38.117,5.854 c 0,0 -3.456,0.603 -6.7,-1.184 0,0 -3.905,-2.412 -9.179,1.365 -1.379,0.988 -3.641,0.215 -5.639,-0.885 -0.21,-0.116 -0.424,0.145 -0.26,0.32 1.896,2.02 6.663,6.411 12.225,6.365 7.221,-0.059 9.553,-5.981 9.553,-5.981 z"
           id="path28"
           inkscape:connector-curvature="0"
           style="fill:#59aa0a" /><path
           d="m 28.478,10.586 c -3.193,0 -6.144,-1.518 -8.333,-3.183 0.177,0.018 0.35,0.078 0.518,0.078 0.845,0 1.58,-0.193 2.181,-0.624 1.788,-1.28 3.582,-1.916 5.335,-1.916 1.665,0 2.679,0.604 2.689,0.61 1.968,1.085 3.952,1.285 5.394,1.331 -1.14,1.562 -3.493,3.704 -7.706,3.704 z"
           id="path30"
           inkscape:connector-curvature="0"
           style="fill:#4d920b" /><g
           id="g34"><path
             d="m 33.556,11.451 c -1.799,3.446 -2.431,7.51 -3.351,10.899 -0.227,0.837 -0.75,1.092 -0.834,1.588 -0.056,0.331 0.801,0.857 1.225,-0.756 0.997,-3.798 1.808,-8.41 3.619,-11.88 0.155,-0.297 -0.295,-0.561 -0.45,-0.263 z"
             id="path32"
             inkscape:connector-curvature="0"
             style="fill:#4e9a06" /></g><path
           d="m 34.465,33.306 c -1.081,4.259 -5.436,6.829 -9.728,5.74 -4.292,-1.089 -6.895,-5.425 -5.814,-9.684 0.9,-3.548 3.546,-5.131 6.473,-3.228 1.202,0.781 1.955,1.84 4.735,1.969 3.715,0.174 5.152,1.98 4.334,5.203 z"
           id="path36"
           inkscape:connector-curvature="0"
           style="fill:#ca1b1b" /></g></g></g></svg>