<?xml version="1.0" encoding="UTF-8" standalone="no"?>
<!-- Created with Inkscape (http://www.inkscape.org/) -->

<svg
   xmlns:osb="http://www.openswatchbook.org/uri/2009/osb"
   xmlns:dc="http://purl.org/dc/elements/1.1/"
   xmlns:cc="http://creativecommons.org/ns#"
   xmlns:rdf="http://www.w3.org/1999/02/22-rdf-syntax-ns#"
   xmlns:svg="http://www.w3.org/2000/svg"
   xmlns="http://www.w3.org/2000/svg"
   xmlns:xlink="http://www.w3.org/1999/xlink"
   xmlns:sodipodi="http://sodipodi.sourceforge.net/DTD/sodipodi-0.dtd"
   xmlns:inkscape="http://www.inkscape.org/namespaces/inkscape"
   width="128"
   height="128"
   viewBox="0 0 33.866665 33.866665"
   version="1.1"
   id="svg4942"
   inkscape:version="0.92.2 5c3e80d, 2017-08-06"
   sodipodi:docname="audio-input-microphone.svg"
   inkscape:export-filename="/Users/balasakthi/Desktop/d.png"
   inkscape:export-xdpi="96"
   inkscape:export-ydpi="96"
   style="enable-background:new">
  <defs
     id="defs4936">
    <linearGradient
       inkscape:collect="always"
       id="linearGradient953">
      <stop
         style="stop-color:#e8c1c1;stop-opacity:1"
         offset="0"
         id="stop949" />
      <stop
         style="stop-color:#fefdfd;stop-opacity:1"
         offset="1"
         id="stop951" />
    </linearGradient>
    <linearGradient
       inkscape:collect="always"
       id="linearGradient945">
      <stop
         style="stop-color:#d50300;stop-opacity:1"
         offset="0"
         id="stop941" />
      <stop
         style="stop-color:#ff5621;stop-opacity:1"
         offset="1"
         id="stop943" />
    </linearGradient>
    <linearGradient
       id="linearGradient6211"
       osb:paint="solid">
      <stop
         style="stop-color:#666666;stop-opacity:1;"
         offset="0"
         id="stop6209" />
    </linearGradient>
    <linearGradient
       inkscape:collect="always"
       id="linearGradient927">
      <stop
         style="stop-color:#4d4d4d;stop-opacity:1"
         offset="0"
         id="stop923" />
      <stop
         style="stop-color:#1a1a1a;stop-opacity:1"
         offset="1"
         id="stop925" />
    </linearGradient>
    <linearGradient
       id="linearGradient6987"
       osb:paint="solid">
      <stop
         style="stop-color:#77d2fb;stop-opacity:1;"
         offset="0"
         id="stop6985" />
    </linearGradient>
    <linearGradient
       inkscape:collect="always"
       xlink:href="#linearGradient927"
       id="linearGradient1096"
       x1="58.177284"
       y1="192.12115"
       x2="60.816216"
       y2="192.12115"
       gradientUnits="userSpaceOnUse"
       gradientTransform="matrix(1.1916739,0,0,0.28724286,-64.961755,216.79445)" />
    <linearGradient
       inkscape:collect="always"
       xlink:href="#linearGradient945"
       id="linearGradient947"
       x1="18.412905"
       y1="296.32272"
       x2="18.412905"
       y2="265.80728"
       gradientUnits="userSpaceOnUse"
       gradientTransform="matrix(0.90731707,0,0,0.90731707,0.15872071,24.344476)" />
    <linearGradient
       inkscape:collect="always"
       xlink:href="#linearGradient953"
       id="linearGradient955"
       x1="59.811413"
       y1="291.09738"
       x2="60.901249"
       y2="268.33191"
       gradientUnits="userSpaceOnUse" />
    <linearGradient
       inkscape:collect="always"
       xlink:href="#linearGradient953"
       id="linearGradient957"
       gradientUnits="userSpaceOnUse"
       x1="59.811413"
       y1="291.09738"
       x2="60.901249"
       y2="268.33191" />
    <linearGradient
       inkscape:collect="always"
       xlink:href="#linearGradient953"
       id="linearGradient959"
       gradientUnits="userSpaceOnUse"
       x1="59.811413"
       y1="291.09738"
       x2="60.901249"
       y2="268.33191" />
  </defs>
  <sodipodi:namedview
     id="base"
     pagecolor="#ffffff"
     bordercolor="#666666"
     borderopacity="1.0"
     inkscape:pageopacity="0.0"
     inkscape:pageshadow="2"
     inkscape:zoom="1.5450001"
     inkscape:cx="227.42523"
     inkscape:cy="32.477567"
     inkscape:document-units="mm"
     inkscape:current-layer="layer1"
     showgrid="false"
     units="px"
     width="128px"
     inkscape:window-width="1600"
     inkscape:window-height="803"
     inkscape:window-x="0"
     inkscape:window-y="0"
     inkscape:window-maximized="1"
     inkscape:measure-start="-293.521,100.415"
     inkscape:measure-end="-294.709,409.978" />
  <metadata
     id="metadata4939">
    <rdf:RDF>
      <cc:Work
         rdf:about="">
        <dc:format>image/svg+xml</dc:format>
        <dc:type
           rdf:resource="http://purl.org/dc/dcmitype/StillImage" />
        <dc:title />
      </cc:Work>
    </rdf:RDF>
  </metadata>
  <g
     inkscape:label="Layer 1"
     inkscape:groupmode="layer"
     id="layer1"
     transform="translate(0,-263.13332)">
    <circle
       style="opacity:1;fill:url(#linearGradient1096);fill-opacity:1;stroke:none;stroke-width:1.30081987;stroke-linecap:round;stroke-linejoin:round;stroke-miterlimit:4;stroke-dasharray:none;stroke-opacity:1"
       id="path1084"
       cx="5.9389677"
       cy="271.97989"
       r="0" />
    <g
       id="g977"
       transform="matrix(0.98048524,0,0,0.98048524,-0.36133542,6.653401)">
      <circle
         style="opacity:0.25;fill:#000000;fill-opacity:1;stroke:none;stroke-width:0.21136364;stroke-miterlimit:4;stroke-dasharray:none;stroke-dashoffset:0;stroke-opacity:1"
         id="circle967"
         cx="17.638887"
         cy="279.11963"
         r="15.926375" />
      <circle
         r="15.926375"
         cy="278.59045"
         cx="17.638887"
         id="path930"
         style="opacity:1;fill:url(#linearGradient947);fill-opacity:1;stroke:none;stroke-width:0.21136364;stroke-miterlimit:4;stroke-dasharray:none;stroke-dashoffset:0;stroke-opacity:1" />
      <g
         id="g965"
         transform="matrix(0.87300673,0,0,0.87300673,-34.798777,34.623355)"
         style="opacity:0.25;fill:#000000;fill-opacity:1">
        <path
           sodipodi:nodetypes="ccccccccccscccccccccccccccccscccccccccccccccccccccccccc"
           inkscape:connector-curvature="0"
           d="m 54.32309,276.46059 c -0.223759,0.004 -0.444633,0.12351 -0.561629,0.35702 -0.06297,0.12568 -0.07055,0.2996 -0.09152,2.12184 -0.02409,2.0916 -0.0041,2.60591 0.126572,3.25149 0.255561,1.26252 0.920277,2.47001 1.840717,3.34388 0.431666,0.40982 0.636835,0.54829 1.342187,0.90617 0.731856,0.37133 1.274736,0.56577 1.908489,0.68353 0.236115,0.0439 0.454553,0.093 0.485443,0.10912 0.04741,0.0248 0.05502,0.14692 0.04871,0.79246 -0.0146,1.49028 -0.05227,2.27811 -0.111708,2.33757 -0.0456,0.0456 -0.249754,0.0547 -1.232535,0.0547 -1.285013,0 -1.327665,0.006 -1.524848,0.21582 -0.272976,0.29055 -0.162212,0.8319 0.207901,1.01593 0.160002,0.0796 0.162808,0.0797 3.345558,0.0701 l 3.185428,-0.01 0.141621,-0.10809 c 0.169759,-0.12953 0.281248,-0.3574 0.282311,-0.5773 10e-4,-0.20367 -0.07419,-0.34963 -0.248845,-0.48297 l -0.13751,-0.105 -1.249359,-0.0187 c -1.010765,-0.0152 -1.255462,-0.0287 -1.281426,-0.0708 -0.03554,-0.0576 -0.07712,-1.1466 -0.08862,-2.32158 -0.0063,-0.64556 0.0013,-0.76765 0.04871,-0.79247 0.03089,-0.0162 0.249237,-0.0651 0.485348,-0.10902 0.633755,-0.11777 1.176726,-0.31221 1.908582,-0.68353 0.696915,-0.35361 0.904563,-0.49272 1.318255,-0.88307 0.935106,-0.88238 1.607435,-2.09642 1.864648,-3.36707 0.130353,-0.64393 0.149897,-1.15387 0.125357,-3.25627 -0.02262,-1.9374 -0.02557,-2.00081 -0.101987,-2.13708 -0.204382,-0.36446 -0.669663,-0.4481 -0.990516,-0.17803 -0.220046,0.18521 -0.221871,0.20332 -0.24716,2.59722 -0.01778,1.68418 -0.03591,2.26131 -0.0789,2.50924 -0.358622,2.06819 -1.922988,3.66707 -4.021605,4.11063 -0.44456,0.094 -1.464863,0.094 -1.909425,0 -2.099483,-0.44373 -3.663,-2.04228 -4.021981,-4.1125 -0.04323,-0.2493 -0.06217,-0.83762 -0.08236,-2.55487 -0.02556,-2.17346 -0.02829,-2.23468 -0.105071,-2.3716 -0.128536,-0.22921 -0.355075,-0.34091 -0.578828,-0.337 z m 9.3223,5.65835 c -8.91e-4,1.9e-4 -0.0019,10e-4 -0.0026,0.004 -0.0074,0.026 -0.0054,0.0577 0,0.0913 0.0039,-0.008 0.008,-0.0149 0.01151,-0.0234 0.0077,-0.0186 -0.0021,-0.0735 -0.0089,-0.0721 z m 0.04245,0.11614 c -0.01096,0.0122 -0.02148,0.0243 -0.03356,0.0371 0.0025,0.0108 0.0045,0.021 0.0071,0.0318 0.0092,-0.0228 0.01772,-0.0459 0.02655,-0.0689 z m -4.282134,2.02637 c 0.01385,0.0149 0.028,0.0294 0.04356,0.0425 0.0081,0.007 -0.007,-0.0218 -0.01579,-0.0275 -0.0089,-0.006 -0.01821,-0.0105 -0.02776,-0.015 z"
           style="fill:#000000;fill-opacity:1;stroke:none;stroke-width:0.14856902;stroke-miterlimit:4;stroke-dasharray:none"
           id="path961" />
        <rect
           style="opacity:1;fill:#000000;fill-opacity:1;fill-rule:evenodd;stroke:none;stroke-width:0.14856902;stroke-miterlimit:4;stroke-dasharray:none;stroke-dashoffset:0;stroke-opacity:1"
           id="rect963"
           width="7.6526437"
           height="16.524239"
           x="56.241856"
           y="268.28772"
           ry="3.7989058"
           rx="4.0198555" />
      </g>
      <g
         style="opacity:1;fill:url(#linearGradient955);fill-opacity:1"
         transform="matrix(0.87300673,0,0,0.87300673,-34.798777,34.143233)"
         id="g939">
        <path
           id="path4630"
           style="fill:url(#linearGradient957);fill-opacity:1;stroke:none;stroke-width:0.14856902;stroke-miterlimit:4;stroke-dasharray:none"
           d="m 54.32309,276.46059 c -0.223759,0.004 -0.444633,0.12351 -0.561629,0.35702 -0.06297,0.12568 -0.07055,0.2996 -0.09152,2.12184 -0.02409,2.0916 -0.0041,2.60591 0.126572,3.25149 0.255561,1.26252 0.920277,2.47001 1.840717,3.34388 0.431666,0.40982 0.636835,0.54829 1.342187,0.90617 0.731856,0.37133 1.274736,0.56577 1.908489,0.68353 0.236115,0.0439 0.454553,0.093 0.485443,0.10912 0.04741,0.0248 0.05502,0.14692 0.04871,0.79246 -0.0146,1.49028 -0.05227,2.27811 -0.111708,2.33757 -0.0456,0.0456 -0.249754,0.0547 -1.232535,0.0547 -1.285013,0 -1.327665,0.006 -1.524848,0.21582 -0.272976,0.29055 -0.162212,0.8319 0.207901,1.01593 0.160002,0.0796 0.162808,0.0797 3.345558,0.0701 l 3.185428,-0.01 0.141621,-0.10809 c 0.169759,-0.12953 0.281248,-0.3574 0.282311,-0.5773 10e-4,-0.20367 -0.07419,-0.34963 -0.248845,-0.48297 l -0.13751,-0.105 -1.249359,-0.0187 c -1.010765,-0.0152 -1.255462,-0.0287 -1.281426,-0.0708 -0.03554,-0.0576 -0.07712,-1.1466 -0.08862,-2.32158 -0.0063,-0.64556 0.0013,-0.76765 0.04871,-0.79247 0.03089,-0.0162 0.249237,-0.0651 0.485348,-0.10902 0.633755,-0.11777 1.176726,-0.31221 1.908582,-0.68353 0.696915,-0.35361 0.904563,-0.49272 1.318255,-0.88307 0.935106,-0.88238 1.607435,-2.09642 1.864648,-3.36707 0.130353,-0.64393 0.149897,-1.15387 0.125357,-3.25627 -0.02262,-1.9374 -0.02557,-2.00081 -0.101987,-2.13708 -0.204382,-0.36446 -0.669663,-0.4481 -0.990516,-0.17803 -0.220046,0.18521 -0.221871,0.20332 -0.24716,2.59722 -0.01778,1.68418 -0.03591,2.26131 -0.0789,2.50924 -0.358622,2.06819 -1.922988,3.66707 -4.021605,4.11063 -0.44456,0.094 -1.464863,0.094 -1.909425,0 -2.099483,-0.44373 -3.663,-2.04228 -4.021981,-4.1125 -0.04323,-0.2493 -0.06217,-0.83762 -0.08236,-2.55487 -0.02556,-2.17346 -0.02829,-2.23468 -0.105071,-2.3716 -0.128536,-0.22921 -0.355075,-0.34091 -0.578828,-0.337 z m 9.3223,5.65835 c -8.91e-4,1.9e-4 -0.0019,10e-4 -0.0026,0.004 -0.0074,0.026 -0.0054,0.0577 0,0.0913 0.0039,-0.008 0.008,-0.0149 0.01151,-0.0234 0.0077,-0.0186 -0.0021,-0.0735 -0.0089,-0.0721 z m 0.04245,0.11614 c -0.01096,0.0122 -0.02148,0.0243 -0.03356,0.0371 0.0025,0.0108 0.0045,0.021 0.0071,0.0318 0.0092,-0.0228 0.01772,-0.0459 0.02655,-0.0689 z m -4.282134,2.02637 c 0.01385,0.0149 0.028,0.0294 0.04356,0.0425 0.0081,0.007 -0.007,-0.0218 -0.01579,-0.0275 -0.0089,-0.006 -0.01821,-0.0105 -0.02776,-0.015 z"
           inkscape:connector-curvature="0"
           sodipodi:nodetypes="ccccccccccscccccccccccccccccscccccccccccccccccccccccccc" />
        <rect
           rx="4.0198555"
           ry="3.7989058"
           y="268.28772"
           x="56.241856"
           height="16.524239"
           width="7.6526437"
           id="rect993"
           style="opacity:1;fill:url(#linearGradient959);fill-opacity:1;fill-rule:evenodd;stroke:none;stroke-width:0.14856902;stroke-miterlimit:4;stroke-dasharray:none;stroke-dashoffset:0;stroke-opacity:1" />
      </g>
    </g>
  </g>
</svg>
