<?xml version="1.0" encoding="UTF-8" standalone="no"?>
<!-- Created with Inkscape (http://www.inkscape.org/) -->

<svg
   xmlns:dc="http://purl.org/dc/elements/1.1/"
   xmlns:cc="http://creativecommons.org/ns#"
   xmlns:rdf="http://www.w3.org/1999/02/22-rdf-syntax-ns#"
   xmlns:svg="http://www.w3.org/2000/svg"
   xmlns="http://www.w3.org/2000/svg"
   xmlns:sodipodi="http://sodipodi.sourceforge.net/DTD/sodipodi-0.dtd"
   xmlns:inkscape="http://www.inkscape.org/namespaces/inkscape"
   width="128"
   height="128"
   viewBox="0 0 33.866666 33.866668"
   version="1.1"
   id="svg8"
   inkscape:version="0.92.4 (5da689c313, 2019-01-14)"
   sodipodi:docname="com.github.calo001.luna.svg">
  <defs
     id="defs2" />
  <sodipodi:namedview
     id="base"
     pagecolor="#ffffff"
     bordercolor="#666666"
     borderopacity="1.0"
     inkscape:pageopacity="0.0"
     inkscape:pageshadow="2"
     inkscape:zoom="4.0000001"
     inkscape:cx="86.990939"
     inkscape:cy="83.734677"
     inkscape:document-units="mm"
     inkscape:current-layer="layer1"
     showgrid="false"
     units="px"
     inkscape:window-width="1600"
     inkscape:window-height="838"
     inkscape:window-x="-8"
     inkscape:window-y="-8"
     inkscape:window-maximized="1" />
  <metadata
     id="metadata5">
    <rdf:RDF>
      <cc:Work
         rdf:about="">
        <dc:format>image/svg+xml</dc:format>
        <dc:type
           rdf:resource="http://purl.org/dc/dcmitype/StillImage" />
        <dc:title />
      </cc:Work>
    </rdf:RDF>
  </metadata>
  <g
     inkscape:label="Layer 1"
     inkscape:groupmode="layer"
     id="layer1"
     transform="translate(0,-263.13332)">
    <g
       id="g841"
       transform="translate(-1.7065473e-6)">
      <rect
         transform="rotate(-9.0000001)"
         ry="1.1324556"
         y="268.04211"
         x="-41.547131"
         height="24.61356"
         width="28.577274"
         id="rect1901"
         style="opacity:0.25;fill:#000000;fill-opacity:1;stroke:none;stroke-width:0.47076744;stroke-miterlimit:4;stroke-dasharray:none;stroke-dashoffset:0;stroke-opacity:1" />
      <rect
         transform="rotate(-9.0000001)"
         style="opacity:1;fill:#3a424a;fill-opacity:1;stroke:none;stroke-width:0.2;stroke-miterlimit:4;stroke-dasharray:none;stroke-dashoffset:0;stroke-opacity:1"
         id="rect1883"
         width="28.577274"
         height="24.61356"
         x="-41.463764"
         y="267.51578"
         ry="1.1324556" />
      <rect
         transform="rotate(-9.0000001)"
         style="opacity:0.25;fill:#000000;fill-opacity:1;stroke:none;stroke-width:0.45826426;stroke-miterlimit:4;stroke-dasharray:none;stroke-dashoffset:0;stroke-opacity:1"
         id="rect1897"
         width="26.646011"
         height="25.013943"
         x="-40.581505"
         y="266.37674"
         ry="0" />
      <rect
         transform="rotate(-9.0000001)"
         ry="0"
         y="265.85037"
         x="-40.498138"
         height="25.013943"
         width="26.646011"
         id="rect1881"
         style="opacity:1;fill:#f4f4f4;fill-opacity:1;stroke:none;stroke-width:0.20141868;stroke-miterlimit:4;stroke-dasharray:none;stroke-dashoffset:0;stroke-opacity:1" />
      <g
         transform="rotate(-9,-91.812707,294.80013)"
         id="text935"
         style="font-style:normal;font-weight:normal;font-size:15.0185976px;line-height:1.25;font-family:sans-serif;letter-spacing:0px;word-spacing:0px;fill:#363636;fill-opacity:1;stroke:none;stroke-width:0.37546495"
         aria-label="18">
        <path
           inkscape:connector-curvature="0"
           id="path937"
           style="font-style:normal;font-variant:normal;font-weight:normal;font-stretch:normal;font-family:Arial;-inkscape-font-specification:Arial;fill:#363636;fill-opacity:1;stroke-width:0.37546495"
           d="m 14.521693,306.13245 h -1.319994 v -8.4113 q -0.476665,0.45467 -1.253995,0.90933 -0.769996,0.45467 -1.385993,0.682 v -1.276 q 1.107328,-0.52066 1.935991,-1.26132 0.828663,-0.74067 1.173328,-1.43733 h 0.850663 z" />
        <path
           inkscape:connector-curvature="0"
           id="path939"
           style="font-style:normal;font-variant:normal;font-weight:normal;font-stretch:normal;font-family:Arial;-inkscape-font-specification:Arial;fill:#363636;fill-opacity:1;stroke-width:0.37546495"
           d="m 19.941001,300.30247 q -0.82133,-0.30066 -1.217328,-0.85799 -0.395998,-0.55733 -0.395998,-1.33466 0,-1.17333 0.843329,-1.97266 0.84333,-0.79933 2.24399,-0.79933 1.407994,0 2.26599,0.82133 0.857996,0.814 0.857996,1.98732 0,0.748 -0.395998,1.30533 -0.388665,0.55 -1.187995,0.85066 0.989995,0.32267 1.503326,1.04133 0.520665,0.71867 0.520665,1.71599 0,1.37866 -0.975329,2.31733 -0.975329,0.93866 -2.566655,0.93866 -1.591326,0 -2.566655,-0.93866 -0.975329,-0.946 -0.975329,-2.35399 0,-1.04866 0.527998,-1.75266 0.535331,-0.71133 1.517993,-0.968 z m -0.263999,-2.23665 q 0,0.76266 0.491331,1.24666 0.491331,0.484 1.275994,0.484 0.762663,0 1.246661,-0.47667 0.491331,-0.484 0.491331,-1.18066 0,-0.726 -0.505997,-1.21733 -0.498665,-0.49866 -1.246661,-0.49866 -0.75533,0 -1.253995,0.484 -0.498664,0.48399 -0.498664,1.15866 z m -0.425331,4.96464 q 0,0.56466 0.263999,1.09266 0.271332,0.528 0.799329,0.82133 0.527998,0.286 1.136662,0.286 0.945995,0 1.561992,-0.60866 0.615998,-0.60867 0.615998,-1.54733 0,-0.95333 -0.637997,-1.57666 -0.630664,-0.62333 -1.583993,-0.62333 -0.931329,0 -1.547326,0.616 -0.608664,0.61599 -0.608664,1.53999 z" />
      </g>
      <path
         style="opacity:0.25;fill:#000000;fill-opacity:1;stroke:none;stroke-width:0.45826426;stroke-miterlimit:4;stroke-dasharray:none;stroke-dashoffset:0;stroke-opacity:1"
         d="m 1.5888721,269.4455 1.3462513,8.49987 26.3179506,-4.16834 -1.346252,-8.49989 z"
         id="path1903"
         inkscape:connector-curvature="0" />
      <path
         inkscape:connector-curvature="0"
         id="rect1892"
         d="m 1.5888721,268.91257 1.3462533,8.49988 26.3179486,-4.16835 -1.346242,-8.49987 z"
         style="opacity:1;fill:#b12dd1;fill-opacity:1;stroke:none;stroke-width:0.45826426;stroke-miterlimit:4;stroke-dasharray:none;stroke-dashoffset:0;stroke-opacity:1" />
      <g
         transform="matrix(0.57282642,-0.09072679,0.09072679,0.57282642,-14.792568,124.62981)"
         id="text948"
         style="font-style:normal;font-weight:normal;font-size:10.58333302px;line-height:1.25;font-family:sans-serif;letter-spacing:0px;word-spacing:0px;fill:#ffffff;fill-opacity:1;stroke:none;stroke-width:0.26458332"
         aria-label="OCT">
        <path
           inkscape:connector-curvature="0"
           id="path950"
           style="font-style:normal;font-variant:normal;font-weight:normal;font-stretch:normal;font-family:Arial;-inkscape-font-specification:Arial;fill:#ffffff;fill-opacity:1;stroke-width:0.26458332"
           d="m -0.01756997,257.59155 q 0,-1.88619 1.01285804,-2.95072 1.01285803,-1.0697 2.61482743,-1.0697 1.0490315,0 1.8913573,0.50126 0.8423258,0.50126 1.2815755,1.40043 0.4444173,0.894 0.4444173,2.03088 0,1.15239 -0.4650879,2.06189 -0.4650878,0.90951 -1.3177489,1.37976 -0.8526612,0.46509 -1.839681,0.46509 -1.0697021,0 -1.9120279,-0.51676 -0.84232584,-0.51677 -1.27640786,-1.41077 -0.43408201,-0.894 -0.43408201,-1.89136 z m 1.03352857,0.0155 q 0,1.36942 0.7338054,2.16007 0.7389729,0.78548 1.8500162,0.78548 1.1317138,0 1.8603515,-0.79581 0.7338053,-0.79582 0.7338053,-2.25826 0,-0.92501 -0.3152262,-1.61231 -0.3100586,-0.69246 -0.9146729,-1.0697 -0.5994465,-0.38241 -1.3487548,-0.38241 -1.0645345,0 -1.8345133,0.73381 -0.7648112,0.72864 -0.7648112,2.43913 z" />
        <path
           inkscape:connector-curvature="0"
           id="path952"
           style="font-style:normal;font-variant:normal;font-weight:normal;font-stretch:normal;font-family:Arial;-inkscape-font-specification:Arial;fill:#ffffff;fill-opacity:1;stroke-width:0.26458332"
           d="m 13.919563,258.62508 1.002523,0.25322 q -0.315226,1.23506 -1.136881,1.88619 -0.816488,0.64595 -1.999878,0.64595 -1.224732,0 -1.9947105,-0.49609 -0.7648112,-0.50126 -1.1678873,-1.44694 -0.3979085,-0.94568 -0.3979085,-2.03089 0,-1.18339 0.4495849,-2.06189 0.4547526,-0.88366 1.2867431,-1.33842 0.8371583,-0.45992 1.8396813,-0.45992 1.136881,0 1.912028,0.57878 0.775146,0.57878 1.080037,1.62781 l -0.98702,0.23254 q -0.26355,-0.82682 -0.764811,-1.20406 -0.501261,-0.37724 -1.260905,-0.37724 -0.873332,0 -1.462443,0.41858 -0.5839436,0.41858 -0.8216551,1.12655 -0.2377116,0.7028 -0.2377116,1.45211 0,0.96635 0.2790527,1.68982 0.2842204,0.7183 0.878499,1.07486 0.594279,0.35657 1.286743,0.35657 0.842326,0 1.42627,-0.48576 0.583944,-0.48575 0.790649,-1.44177 z" />
        <path
           inkscape:connector-curvature="0"
           id="path954"
           style="font-style:normal;font-variant:normal;font-weight:normal;font-stretch:normal;font-family:Arial;-inkscape-font-specification:Arial;fill:#ffffff;fill-opacity:1;stroke-width:0.26458332"
           d="m 18.089852,261.28125 v -6.68176 H 15.59388 v -0.894 h 6.004801 v 0.894 h -2.506306 v 6.68176 z" />
      </g>
    </g>
  </g>
</svg>
