<?xml version="1.0" encoding="UTF-8" standalone="no"?>
<!-- Created with Inkscape (http://www.inkscape.org/) -->

<svg
   xmlns:dc="http://purl.org/dc/elements/1.1/"
   xmlns:cc="http://creativecommons.org/ns#"
   xmlns:rdf="http://www.w3.org/1999/02/22-rdf-syntax-ns#"
   xmlns:svg="http://www.w3.org/2000/svg"
   xmlns="http://www.w3.org/2000/svg"
   xmlns:xlink="http://www.w3.org/1999/xlink"
   xmlns:sodipodi="http://sodipodi.sourceforge.net/DTD/sodipodi-0.dtd"
   xmlns:inkscape="http://www.inkscape.org/namespaces/inkscape"
   width="128"
   height="128"
   viewBox="0 0 33.866666 33.866668"
   version="1.1"
   id="svg8"
   inkscape:version="0.92.2 5c3e80d, 2017-08-06"
   sodipodi:docname="amule.svg">
  <defs
     id="defs2">
    <linearGradient
       inkscape:collect="always"
       id="linearGradient961">
      <stop
         style="stop-color:#fd8f3c;stop-opacity:0.99215686"
         offset="0"
         id="stop957" />
      <stop
         style="stop-color:#fdc53e;stop-opacity:0.99215686"
         offset="1"
         id="stop959" />
    </linearGradient>
    <linearGradient
       inkscape:collect="always"
       xlink:href="#linearGradient961"
       id="linearGradient963"
       x1="-17.758511"
       y1="266.51538"
       x2="-17.585201"
       y2="293.72968"
       gradientUnits="userSpaceOnUse"
       gradientTransform="matrix(1.055063,0,0,1.055063,34.880375,-15.508645)" />
  </defs>
  <sodipodi:namedview
     id="base"
     pagecolor="#ffffff"
     bordercolor="#666666"
     borderopacity="1.0"
     inkscape:pageopacity="0.0"
     inkscape:pageshadow="2"
     inkscape:zoom="1.4"
     inkscape:cx="30.055079"
     inkscape:cy="56.632598"
     inkscape:document-units="mm"
     inkscape:current-layer="layer1"
     showgrid="false"
     units="px"
     inkscape:window-width="1600"
     inkscape:window-height="803"
     inkscape:window-x="0"
     inkscape:window-y="0"
     inkscape:window-maximized="1" />
  <metadata
     id="metadata5">
    <rdf:RDF>
      <cc:Work
         rdf:about="">
        <dc:format>image/svg+xml</dc:format>
        <dc:type
           rdf:resource="http://purl.org/dc/dcmitype/StillImage" />
        <dc:title></dc:title>
      </cc:Work>
    </rdf:RDF>
  </metadata>
  <g
     inkscape:label="Layer 1"
     inkscape:groupmode="layer"
     id="layer1"
     transform="translate(0,-263.13332)">
    <path
       inkscape:connector-curvature="0"
       id="path1002"
       d="m 113.57732,284.12385 v -26.43369 h 26.43369 26.4337 v 26.43369 26.4337 h -26.4337 -26.43369 z"
       style="fill:#fdfdfc;stroke-width:0.05162831" />
    <rect
       ry="3.3838344"
       y="264.85269"
       x="1.388846"
       height="31.088974"
       width="31.088974"
       id="rect1014"
       style="opacity:0.25;fill:#000000;fill-opacity:1;stroke:none;stroke-width:0.20542286;stroke-miterlimit:4;stroke-dasharray:none;stroke-dashoffset:0;stroke-opacity:1" />
    <rect
       style="opacity:1;fill:url(#linearGradient963);fill-opacity:1;stroke:#995724;stroke-width:0.2;stroke-miterlimit:4;stroke-dasharray:none;stroke-dashoffset:0;stroke-opacity:0.99607843"
       id="rect955"
       width="31.088974"
       height="31.088974"
       x="1.388846"
       y="264.29437"
       ry="3.3838344" />
    <path
       inkscape:connector-curvature="0"
       id="path988"
       d="m 24.849346,291.66235 c -0.03327,-0.007 -0.250945,-0.0425 -0.483746,-0.0787 -0.588594,-0.0915 -1.672312,-0.32978 -3.312432,-0.72842 -0.768681,-0.18683 -1.436654,-0.33969 -1.484376,-0.33969 -0.04771,0 -0.162559,0.0439 -0.255195,0.0975 -0.345674,0.20006 -1.356995,0.45827 -2.132056,0.54435 -1.097038,0.12184 -2.166179,-0.0377 -2.908992,-0.43408 -0.183414,-0.0979 -0.246035,-0.11246 -0.374713,-0.0873 -0.08498,0.0167 -0.97082,0.19554 -1.968546,0.3976 -2.8298852,0.57311 -3.34125,0.6488 -3.523031,0.52149 -0.2268892,-0.15894 -0.4380927,-0.64806 -0.5213974,-1.20755 -0.03928,-0.26407 -0.017799,-0.31784 0.1747069,-0.43683 0.082211,-0.0509 0.1408435,-0.11943 0.1408435,-0.16486 0,-0.0427 -0.083666,-0.20364 -0.1859274,-0.35744 l -0.1859274,-0.27963 0.047235,-0.19696 c 0.061605,-0.25692 0.1782751,-0.44466 0.2931176,-0.47176 0.050601,-0.0119 1.1410222,-0.10066 2.4232132,-0.19724 1.747208,-0.13155 2.344969,-0.18951 2.386001,-0.23133 0.05504,-0.056 0.341919,-1.13084 0.341919,-1.28089 0,-0.0442 -0.01733,-0.091 -0.03857,-0.10413 -0.02124,-0.0131 -0.288566,0.0509 -0.594122,0.14235 -0.806622,0.2413 -2.078243,0.58262 -2.462834,0.66107 -0.3297849,0.0672 -0.3337435,0.0671 -0.4750871,-0.0203 -0.2662873,-0.16458 -0.6209426,-0.72914 -0.7053877,-1.12288 -0.053407,-0.24893 -0.010129,-0.34155 0.3021374,-0.64764 0.1236576,-0.12119 0.2248275,-0.23705 0.2248275,-0.25748 0,-0.0205 -0.099756,-0.154 -0.2216887,-0.29683 -0.2396249,-0.2807 -0.2494939,-0.3368 -0.1046517,-0.59454 0.1380244,-0.2456 0.2159418,-0.26317 1.4430463,-0.32559 0.616338,-0.0313 1.260191,-0.0574 1.430776,-0.0578 l 0.310163,-7.8e-4 0.108041,0.24075 c 0.193807,0.43185 0.747304,0.84564 1.811305,1.35411 0.998422,0.47714 1.76377,0.67225 2.640453,0.67315 0.609544,6.3e-4 1.002662,-0.0666 1.491546,-0.25519 0.893324,-0.34457 1.58237,-0.98285 2.007454,-1.85958 0.104261,-0.21504 0.207705,-0.3979 0.229872,-0.40637 0.114257,-0.0437 2.695665,0.30521 2.904611,0.39251 0.164135,0.0686 0.299857,0.27448 0.30006,0.45522 1.64e-4,0.12856 -0.0032,0.13102 -0.182516,0.13102 -0.238969,0 -0.2613,0.0672 -0.100157,0.30139 0.208906,0.30365 0.335383,0.61534 0.310897,0.76624 -0.03225,0.19888 -0.279134,0.70817 -0.422296,0.87122 -0.06925,0.0788 -0.200819,0.17714 -0.292439,0.21847 -0.149144,0.0672 -0.195954,0.07 -0.447205,0.027 -0.154344,-0.0265 -0.701586,-0.18598 -1.216097,-0.35448 -1.014397,-0.33222 -1.372518,-0.39939 -1.492069,-0.27983 -0.03756,0.0376 -0.06824,0.0821 -0.06824,0.0991 0,0.017 0.087,0.13924 0.193337,0.27174 0.222735,0.27753 0.342668,0.53164 0.491875,1.04214 l 0.106043,0.36281 h 2.395995 c 2.323395,0 2.400142,0.002 2.533146,0.0806 0.180977,0.10638 0.303526,0.34827 0.305064,0.60213 l 7.81e-4,0.20022 -0.266336,0.12935 c -0.261199,0.12684 -0.439122,0.29181 -0.439122,0.40713 0,0.032 0.05302,0.11117 0.117832,0.17597 0.09199,0.092 0.154149,0.11784 0.283451,0.11784 0.118029,0 0.173092,0.0195 0.191651,0.0678 0.06184,0.16126 -0.280601,1.44419 -0.439434,1.64611 -0.06957,0.0884 -0.107691,0.0996 -0.327756,0.0954 -0.136963,-0.002 -0.276236,-0.0106 -0.309492,-0.0176 z m -8.377777,-5.58287 c -0.960943,-0.1204 -2.088816,-0.57741 -3.13489,-1.27028 -0.510178,-0.33791 -0.671087,-0.65177 -0.670564,-1.30797 5.07e-4,-0.63802 0.173598,-1.27118 0.59509,-2.17686 l 0.215748,-0.46358 -0.219534,-1.6924 c -0.166752,-1.28538 -0.219542,-1.81707 -0.219542,-2.21086 0,-0.49076 -0.0046,-0.51965 -0.08361,-0.54035 -0.06817,-0.0178 -0.0783,-0.0414 -0.05481,-0.12723 0.0613,-0.2239 0.04638,-0.26522 -0.10347,-0.2867 l -0.141094,-0.0203 0.151165,-0.11565 c 0.08315,-0.0636 0.151174,-0.13151 0.151174,-0.15091 0,-0.0193 -0.123438,-0.17598 -0.274308,-0.34794 -1.500602,-1.71048 -2.635299,-3.31703 -2.8057365,-3.97247 -0.096559,-0.37133 -0.028265,-0.4363 0.3272245,-0.31136 0.696643,0.24486 2.283152,1.48104 3.125988,2.43575 0.357785,0.40528 0.473385,0.60205 0.473385,0.80579 0,0.0772 0.01819,0.15157 0.04045,0.16533 0.02225,0.0137 0.444035,-0.004 0.93726,-0.0409 0.805685,-0.0593 0.903951,-0.0743 0.967329,-0.14803 0.0388,-0.0452 0.07058,-0.1103 0.07058,-0.14482 0,-0.13269 0.291057,-1.20175 0.486589,-1.78725 0.490641,-1.46915 1.147752,-2.74651 1.853664,-3.60335 0.328215,-0.39839 0.747373,-0.80099 0.80004,-0.76843 0.06441,0.0398 0.05504,0.56503 -0.01897,1.0656 -0.150768,1.0195 -0.604336,2.96348 -1.142802,4.89794 -0.153501,0.55145 -0.269811,1.02682 -0.258473,1.05637 0.01336,0.0347 0.108345,0.0579 0.268951,0.0656 0.262714,0.0126 0.340343,0.0837 0.115015,0.1053 -0.07332,0.007 -0.143186,0.0385 -0.155235,0.0698 -0.01203,0.0313 0.07012,0.35218 0.182618,0.71282 0.164893,0.52861 0.251923,0.92917 0.449046,2.06662 0.134481,0.77602 0.261137,1.4508 0.281453,1.49952 0.0203,0.0488 0.167774,0.24827 0.327686,0.44343 0.564045,0.68841 1.015263,1.4386 1.25602,2.08828 0.290573,0.78408 0.281586,0.74606 0.257294,1.08842 -0.02218,0.31283 -0.143811,0.74621 -0.289136,1.03033 -0.468575,0.91611 -1.389024,1.61957 -2.396402,1.83148 -0.375454,0.079 -0.99308,0.10572 -1.365186,0.0591 z"
       style="fill:#4d4c4b;stroke-width:0.04031219" />
    <path
       style="fill:#4d4c4b;stroke-width:0.2;stroke:none;stroke-opacity:0.99607843;stroke-miterlimit:4;stroke-dasharray:none"
       d="m 24.849346,291.66235 c -0.03327,-0.007 -0.250945,-0.0425 -0.483746,-0.0787 -0.588594,-0.0915 -1.672312,-0.32978 -3.312432,-0.72842 -0.768681,-0.18683 -1.436654,-0.33969 -1.484376,-0.33969 -0.04771,0 -0.162559,0.0439 -0.255195,0.0975 -0.345674,0.20006 -1.356995,0.45827 -2.132056,0.54435 -1.097038,0.12184 -2.166179,-0.0377 -2.908992,-0.43408 -0.183414,-0.0979 -0.246035,-0.11246 -0.374713,-0.0873 -0.08498,0.0167 -0.97082,0.19554 -1.968546,0.3976 -2.8298852,0.57311 -3.34125,0.6488 -3.523031,0.52149 -0.2268892,-0.15894 -0.4380927,-0.64806 -0.5213974,-1.20755 -0.03928,-0.26407 -0.017799,-0.31784 0.1747069,-0.43683 0.082211,-0.0509 0.1408435,-0.11943 0.1408435,-0.16486 0,-0.0427 -0.083666,-0.20364 -0.1859274,-0.35744 l -0.1859274,-0.27963 0.047235,-0.19696 c 0.061605,-0.25692 0.1782751,-0.44466 0.2931176,-0.47176 0.050601,-0.0119 1.1410222,-0.10066 2.4232132,-0.19724 1.747208,-0.13155 2.344969,-0.18951 2.386001,-0.23133 0.05504,-0.056 0.341919,-1.13084 0.341919,-1.28089 0,-0.0442 -0.01733,-0.091 -0.03857,-0.10413 -0.02124,-0.0131 -0.288566,0.0509 -0.594122,0.14235 -0.806622,0.2413 -2.078243,0.58262 -2.462834,0.66107 -0.3297849,0.0672 -0.3337435,0.0671 -0.4750871,-0.0203 -0.2662873,-0.16458 -0.6209426,-0.72914 -0.7053877,-1.12288 -0.053407,-0.24893 -0.010129,-0.34155 0.3021374,-0.64764 0.1236576,-0.12119 0.2248275,-0.23705 0.2248275,-0.25748 0,-0.0205 -0.099756,-0.154 -0.2216887,-0.29683 -0.2396249,-0.2807 -0.2494939,-0.3368 -0.1046517,-0.59454 0.1380244,-0.2456 0.2159418,-0.26317 1.4430463,-0.32559 0.616338,-0.0313 1.260191,-0.0574 1.430776,-0.0578 l 0.310163,-7.8e-4 0.108041,0.24075 c 0.193807,0.43185 0.747304,0.84564 1.811305,1.35411 0.998422,0.47714 1.76377,0.67225 2.640453,0.67315 0.609544,6.3e-4 1.002662,-0.0666 1.491546,-0.25519 0.893324,-0.34457 1.58237,-0.98285 2.007454,-1.85958 0.104261,-0.21504 0.207705,-0.3979 0.229872,-0.40637 0.114257,-0.0437 2.695665,0.30521 2.904611,0.39251 0.164135,0.0686 0.299857,0.27448 0.30006,0.45522 1.64e-4,0.12856 -0.0032,0.13102 -0.182516,0.13102 -0.238969,0 -0.2613,0.0672 -0.100157,0.30139 0.208906,0.30365 0.335383,0.61534 0.310897,0.76624 -0.03225,0.19888 -0.279134,0.70817 -0.422296,0.87122 -0.06925,0.0788 -0.200819,0.17714 -0.292439,0.21847 -0.149144,0.0672 -0.195954,0.07 -0.447205,0.027 -0.154344,-0.0265 -0.701586,-0.18598 -1.216097,-0.35448 -1.014397,-0.33222 -1.372518,-0.39939 -1.492069,-0.27983 -0.03756,0.0376 -0.06824,0.0821 -0.06824,0.0991 0,0.017 0.087,0.13924 0.193337,0.27174 0.222735,0.27753 0.342668,0.53164 0.491875,1.04214 l 0.106043,0.36281 h 2.395995 c 2.323395,0 2.400142,0.002 2.533146,0.0806 0.180977,0.10638 0.303526,0.34827 0.305064,0.60213 l 7.81e-4,0.20022 -0.266336,0.12935 c -0.261199,0.12684 -0.439122,0.29181 -0.439122,0.40713 0,0.032 0.05302,0.11117 0.117832,0.17597 0.09199,0.092 0.154149,0.11784 0.283451,0.11784 0.118029,0 0.173092,0.0195 0.191651,0.0678 0.06184,0.16126 -0.280601,1.44419 -0.439434,1.64611 -0.06957,0.0884 -0.107691,0.0996 -0.327756,0.0954 -0.136963,-0.002 -0.276236,-0.0106 -0.309492,-0.0176 z m -8.377777,-5.58287 c -0.960943,-0.1204 -2.088816,-0.57741 -3.13489,-1.27028 -0.510178,-0.33791 -0.671087,-0.65177 -0.670564,-1.30797 5.07e-4,-0.63802 0.173598,-1.27118 0.59509,-2.17686 l 0.215748,-0.46358 -0.219534,-1.6924 c -0.166752,-1.28538 -0.219542,-1.81707 -0.219542,-2.21086 0,-0.49076 -0.0046,-0.51965 -0.08361,-0.54035 -0.06817,-0.0178 -0.0783,-0.0414 -0.05481,-0.12723 0.0613,-0.2239 0.04638,-0.26522 -0.10347,-0.2867 l -0.141094,-0.0203 0.151165,-0.11565 c 0.08315,-0.0636 0.151174,-0.13151 0.151174,-0.15091 0,-0.0193 -0.123438,-0.17598 -0.274308,-0.34794 -1.500602,-1.71048 -2.635299,-3.31703 -2.8057365,-3.97247 -0.096559,-0.37133 -0.028265,-0.4363 0.3272245,-0.31136 0.696643,0.24486 2.283152,1.48104 3.125988,2.43575 0.357785,0.40528 0.473385,0.60205 0.473385,0.80579 0,0.0772 0.01819,0.15157 0.04045,0.16533 0.02225,0.0137 0.444035,-0.004 0.93726,-0.0409 0.805685,-0.0593 0.903951,-0.0743 0.967329,-0.14803 0.0388,-0.0452 0.07058,-0.1103 0.07058,-0.14482 0,-0.13269 0.291057,-1.20175 0.486589,-1.78725 0.490641,-1.46915 1.147752,-2.74651 1.853664,-3.60335 0.328215,-0.39839 0.747373,-0.80099 0.80004,-0.76843 0.06441,0.0398 0.05504,0.56503 -0.01897,1.0656 -0.150768,1.0195 -0.604336,2.96348 -1.142802,4.89794 -0.153501,0.55145 -0.269811,1.02682 -0.258473,1.05637 0.01336,0.0347 0.108345,0.0579 0.268951,0.0656 0.262714,0.0126 0.340343,0.0837 0.115015,0.1053 -0.07332,0.007 -0.143186,0.0385 -0.155235,0.0698 -0.01203,0.0313 0.07012,0.35218 0.182618,0.71282 0.164893,0.52861 0.251923,0.92917 0.449046,2.06662 0.134481,0.77602 0.261137,1.4508 0.281453,1.49952 0.0203,0.0488 0.167774,0.24827 0.327686,0.44343 0.564045,0.68841 1.015263,1.4386 1.25602,2.08828 0.290573,0.78408 0.281586,0.74606 0.257294,1.08842 -0.02218,0.31283 -0.143811,0.74621 -0.289136,1.03033 -0.468575,0.91611 -1.389024,1.61957 -2.396402,1.83148 -0.375454,0.079 -0.99308,0.10572 -1.365186,0.0591 z"
       id="path1012"
       inkscape:connector-curvature="0" />
  </g>
</svg>
