<?xml version="1.0" encoding="UTF-8" standalone="no"?>
<!-- Created with Inkscape (http://www.inkscape.org/) -->

<svg
   xmlns:dc="http://purl.org/dc/elements/1.1/"
   xmlns:cc="http://creativecommons.org/ns#"
   xmlns:rdf="http://www.w3.org/1999/02/22-rdf-syntax-ns#"
   xmlns:svg="http://www.w3.org/2000/svg"
   xmlns="http://www.w3.org/2000/svg"
   xmlns:xlink="http://www.w3.org/1999/xlink"
   xmlns:sodipodi="http://sodipodi.sourceforge.net/DTD/sodipodi-0.dtd"
   xmlns:inkscape="http://www.inkscape.org/namespaces/inkscape"
   width="128"
   height="128"
   viewBox="0 0 33.866666 33.866668"
   version="1.1"
   id="svg8"
   inkscape:version="0.92.3 (2405546, 2018-03-11)"
   sodipodi:docname="evolution.svg">
  <defs
     id="defs2">
    <linearGradient
       gradientTransform="matrix(0.23441794,0.02878291,-0.03719645,0.30294094,7.5311449,-26.074382)"
       y2="968.85486"
       x2="59.895287"
       y1="1015.5117"
       x1="33.271156"
       gradientUnits="userSpaceOnUse"
       id="linearGradient4319"
       xlink:href="#linearGradient4321"
       inkscape:collect="always" />
    <linearGradient
       id="linearGradient4321"
       inkscape:collect="always">
      <stop
         id="stop4323"
         offset="0"
         style="stop-color:#7dbded;stop-opacity:1" />
      <stop
         style="stop-color:#4f9ce7;stop-opacity:1;"
         offset="0.47546974"
         id="stop4767" />
      <stop
         id="stop4325"
         offset="1"
         style="stop-color:#237fe5;stop-opacity:1" />
    </linearGradient>
    <clipPath
       id="clipPath4780"
       clipPathUnits="userSpaceOnUse">
      <rect
         style="fill:url(#linearGradient4784);fill-opacity:1;stroke:none"
         id="rect4782"
         width="74.754715"
         height="74.754715"
         x="10.622642"
         y="966.9848"
         rx="6.5939178"
         ry="6.5939178" />
    </clipPath>
  </defs>
  <sodipodi:namedview
     id="base"
     pagecolor="#ffffff"
     bordercolor="#666666"
     borderopacity="1.0"
     inkscape:pageopacity="0.0"
     inkscape:pageshadow="2"
     inkscape:zoom="4.828125"
     inkscape:cx="44.069568"
     inkscape:cy="85.584527"
     inkscape:document-units="mm"
     inkscape:current-layer="layer1"
     showgrid="false"
     inkscape:window-width="1600"
     inkscape:window-height="837"
     inkscape:window-x="0"
     inkscape:window-y="30"
     inkscape:window-maximized="1"
     units="px" />
  <metadata
     id="metadata5">
    <rdf:RDF>
      <cc:Work
         rdf:about="">
        <dc:format>image/svg+xml</dc:format>
        <dc:type
           rdf:resource="http://purl.org/dc/dcmitype/StillImage" />
        <dc:title />
      </cc:Work>
    </rdf:RDF>
  </metadata>
  <g
     inkscape:label="Layer 1"
     inkscape:groupmode="layer"
     id="layer1"
     transform="translate(0,-263.13332)">
    <g
       id="g952"
       transform="matrix(1.0000098,0,0,1.0000098,-1.6603346e-4,-0.00290634)">
      <g
         transform="matrix(0.02065449,0,0,0.02065449,-41.338108,72.900817)"
         id="g3932" />
      <path
         d="m 4.4380559,267.1301 c -0.058202,0.18371 -0.1785722,0.34962 -0.3486073,0.46958 -0.2647595,0.1868 -0.6106812,0.23525 -0.9161522,0.13024 -0.075269,0.0396 -0.1053658,0.004 -0.1174109,-0.0496 -0.029627,-0.0149 -0.05824,-0.0308 -0.085679,-0.0481 -0.086421,0.1629 -0.2218794,0.29625 -0.3863796,0.38548 l 0.042018,0.34214 c 0.1967378,0.0508 0.3731264,0.16044 0.4991757,0.31687 0.2037541,0.25287 0.2451913,0.59036 0.1086403,0.88495 -0.084469,0.18228 -0.2291697,0.33056 -0.4077841,0.42746 l 0.042018,0.34214 c 0.1967379,0.0508 0.3731265,0.16044 0.4991759,0.31688 0.203754,0.25286 0.2451903,0.59034 0.1086401,0.88494 -0.084469,0.18232 -0.2291696,0.33056 -0.4077849,0.42746 l 0.042018,0.34213 c 0.1967369,0.0508 0.3731265,0.16041 0.4991757,0.31688 0.2037541,0.25283 0.2451904,0.59036 0.1086788,0.88495 -0.084469,0.18231 -0.2291697,0.33056 -0.4077841,0.42745 l 0.042018,0.34215 c 0.1967379,0.0508 0.3731266,0.1604 0.4991759,0.31688 0.203754,0.25282 0.2451912,0.59035 0.1086402,0.88494 -0.084469,0.18231 -0.2291696,0.33055 -0.407785,0.42746 l 0.042018,0.34213 c 0.1967369,0.0508 0.3731265,0.16045 0.4991757,0.31688 0.2037541,0.25288 0.2451904,0.59035 0.1086788,0.88495 -0.084469,0.18227 -0.2291697,0.33056 -0.4077841,0.42746 l 0.042018,0.34214 c 0.1967377,0.0508 0.3731264,0.16044 0.4991757,0.31687 0.2037541,0.25287 0.2451912,0.59036 0.1086403,0.88495 -0.084469,0.18227 -0.2291697,0.33056 -0.4077851,0.42746 l 0.042018,0.34213 c 0.1967369,0.0508 0.3731265,0.16045 0.4991758,0.31688 0.203754,0.25287 0.2451903,0.59035 0.1086787,0.88495 -0.084469,0.18228 -0.2291697,0.33055 -0.4077841,0.42746 l 0.042018,0.34213 c 0.1967378,0.0508 0.3731265,0.16045 0.4991757,0.31688 0.2037541,0.25283 0.2451913,0.59035 0.1086797,0.88495 -0.084469,0.18227 -0.2291697,0.33056 -0.4077851,0.42746 l 0.042018,0.34214 c 0.1967379,0.0508 0.3731275,0.16045 0.4991805,0.31687 0.2037532,0.25288 0.2451124,0.5896 0.1085614,0.88421 -0.084469,0.18227 -0.2290908,0.33134 -0.4076949,0.42822 l 0.042018,0.34213 c 0.1967369,0.0509 0.3731265,0.16045 0.4991758,0.31688 0.203754,0.25283 0.2451124,0.58958 0.1085623,0.8842 -0.084469,0.18227 -0.2290917,0.33133 -0.4076912,0.42822 l 0.042018,0.34213 c 0.1967378,0.0508 0.3731265,0.16045 0.4991758,0.31688 0.2037541,0.25288 0.2451133,0.58959 0.1085623,0.8842 -0.084469,0.18228 -0.2290918,0.33134 -0.4076912,0.42822 l 0.042018,0.34214 c 0.1967368,0.0508 0.3731265,0.16045 0.4991747,0.31687 0.2037541,0.25287 0.2451135,0.58959 0.1085624,0.8842 -0.084469,0.18227 -0.2290908,0.33134 -0.4076912,0.42823 l 0.042018,0.34213 c 0.196737,0.0508 0.3731265,0.16045 0.4991758,0.31688 0.2037541,0.25283 0.2451125,0.58959 0.1085623,0.88419 -0.084469,0.18228 -0.2290917,0.33134 -0.4076911,0.42823 l 0.042018,0.34213 c 0.1967379,0.0508 0.3731265,0.16046 0.4991758,0.31689 0.203754,0.25287 0.2451134,0.58958 0.1085623,0.88419 -0.084469,0.18227 -0.2290918,0.3313 -0.4076949,0.42821 l 0.026511,0.21518 c 0.046974,-0.0324 0.102559,-0.0775 0.1989589,-0.1456 0.2752846,-0.19424 0.6377921,-0.23872 0.951863,-0.11686 0.194008,0.0753 0.3509458,0.2071 0.4518601,0.37129 l 0.3699301,-0.0454 c 0.058202,-0.1837 0.1785721,-0.34961 0.3486074,-0.46957 0.2752846,-0.19425 0.6378005,-0.23872 0.9518629,-0.11686 0.1940089,0.0752 0.3509467,0.2071 0.4518602,0.37129 l 0.3699691,-0.0454 c 0.0582,-0.18371 0.178572,-0.34962 0.348608,-0.46958 0.275285,-0.19425 0.637801,-0.23872 0.951862,-0.11687 0.194009,0.0752 0.350947,0.20711 0.451861,0.3713 l 0.36993,-0.0454 c 0.0582,-0.18371 0.178612,-0.34961 0.348607,-0.46958 0.275285,-0.19424 0.637801,-0.23872 0.951864,-0.11687 0.194009,0.0752 0.350946,0.20711 0.45186,0.3713 l 0.369929,-0.0454 c 0.0582,-0.18372 0.178573,-0.34962 0.348609,-0.46959 0.275284,-0.1942 0.637792,-0.23872 0.951866,-0.11687 0.194009,0.0752 0.350946,0.20711 0.451861,0.37131 l 0.369968,-0.0454 c 0.0582,-0.18373 0.178572,-0.34962 0.348608,-0.46959 0.275284,-0.19419 0.6378,-0.23871 0.951863,-0.11686 0.194009,0.0752 0.350946,0.2071 0.45186,0.37129 l 0.36993,-0.0454 c 0.0582,-0.18373 0.178573,-0.34963 0.348608,-0.46959 0.275284,-0.19421 0.637788,-0.23872 0.951862,-0.11687 0.194009,0.0752 0.350947,0.2071 0.451861,0.37129 l 0.369931,-0.0454 c 0.0582,-0.18373 0.178571,-0.34963 0.348607,-0.46959 0.275284,-0.19423 0.637792,-0.23872 0.951862,-0.11685 0.194008,0.0752 0.350947,0.2071 0.45186,0.37128 l 0.369931,-0.0454 c 0.0582,-0.18371 0.178612,-0.34962 0.348607,-0.46959 0.275285,-0.19424 0.637788,-0.23871 0.951863,-0.11686 0.194009,0.0752 0.350946,0.20715 0.451861,0.3713 l 0.369929,-0.0454 c 0.0582,-0.18372 0.178573,-0.34962 0.348607,-0.46959 0.275286,-0.19423 0.637793,-0.23871 0.951864,-0.11686 0.194009,0.0753 0.350946,0.20711 0.45186,0.37129 l 0.36993,-0.0454 c 0.05824,-0.18372 0.178612,-0.34963 0.348609,-0.46959 0.275283,-0.19424 0.637799,-0.23871 0.951861,-0.11687 0.06852,0.0265 0.114137,0.0447 0.15,0.058 l -0.02924,-0.23872 c -0.196347,-0.0509 -0.372424,-0.16006 -0.498267,-0.31621 -0.203754,-0.25283 -0.245191,-0.59036 -0.108679,-0.88495 0.08431,-0.18197 0.228858,-0.3297 0.40706,-0.42661 l -0.04218,-0.34365 c -0.196348,-0.0508 -0.372426,-0.16005 -0.498268,-0.31622 -0.203754,-0.25283 -0.245191,-0.59033 -0.108679,-0.88494 0.08431,-0.18196 0.228896,-0.32971 0.407059,-0.42661 l -0.04218,-0.34366 c -0.196348,-0.0509 -0.372426,-0.16006 -0.498269,-0.31621 -0.203753,-0.25288 -0.24519,-0.59036 -0.108678,-0.88504 0.08431,-0.18196 0.228857,-0.32969 0.407062,-0.42658 l -0.04218,-0.34366 c -0.196348,-0.051 -0.372425,-0.16006 -0.498268,-0.31622 -0.203753,-0.25287 -0.24519,-0.59035 -0.108679,-0.88503 0.08431,-0.18196 0.228858,-0.3297 0.407063,-0.42659 l -0.04222,-0.34366 c -0.196347,-0.0509 -0.372424,-0.16006 -0.498267,-0.31621 -0.203754,-0.25283 -0.245074,-0.58959 -0.108562,-0.8842 0.08431,-0.18196 0.22878,-0.33044 0.40697,-0.42736 l -0.04222,-0.34366 c -0.196348,-0.051 -0.372424,-0.16006 -0.498268,-0.31621 -0.203753,-0.25284 -0.245073,-0.58958 -0.108562,-0.8842 0.08431,-0.18197 0.228781,-0.33044 0.406967,-0.42737 l -0.04218,-0.34366 c -0.196347,-0.051 -0.372424,-0.16005 -0.498267,-0.31621 -0.203754,-0.25283 -0.245074,-0.58958 -0.108562,-0.8842 0.08431,-0.18196 0.228779,-0.33045 0.406967,-0.42736 l -0.04218,-0.34366 c -0.196347,-0.0509 -0.372425,-0.16005 -0.498266,-0.31621 -0.203755,-0.25287 -0.245114,-0.58959 -0.108563,-0.8842 0.08432,-0.18196 0.228779,-0.33044 0.406969,-0.42735 l -0.04218,-0.34366 c -0.196348,-0.0509 -0.372426,-0.16006 -0.498269,-0.31621 -0.203753,-0.25288 -0.245073,-0.58959 -0.108561,-0.8842 0.08431,-0.18197 0.22878,-0.33044 0.406969,-0.42736 l -0.04222,-0.34366 c -0.196347,-0.051 -0.372424,-0.16005 -0.498263,-0.31622 -0.203755,-0.25286 -0.245114,-0.58958 -0.108563,-0.88419 0.08432,-0.18196 0.228781,-0.33044 0.406967,-0.42736 l -0.04218,-0.34366 c -0.196348,-0.0509 -0.372426,-0.16006 -0.498268,-0.31621 -0.203754,-0.25283 -0.245113,-0.58959 -0.108562,-0.8842 0.08431,-0.18196 0.228779,-0.33044 0.406965,-0.42735 l -0.04218,-0.34366 c -0.196348,-0.051 -0.372424,-0.16006 -0.498267,-0.31622 -0.203754,-0.25287 -0.245112,-0.58958 -0.108563,-0.88419 0.08432,-0.18197 0.22878,-0.33045 0.406971,-0.42737 l -0.04218,-0.34366 c -0.196348,-0.0508 -0.372426,-0.16004 -0.498268,-0.31621 -0.203755,-0.25286 -0.245074,-0.58959 -0.108562,-0.88419 0.08431,-0.18196 0.228779,-0.33045 0.406969,-0.42736 l -0.04222,-0.34366 c -0.196347,-0.0509 -0.372424,-0.16005 -0.498263,-0.31621 -0.203754,-0.25287 -0.245074,-0.58958 -0.108562,-0.88419 0.08431,-0.18196 0.228779,-0.33045 0.406965,-0.42737 l -0.04218,-0.34365 c -0.196347,-0.0509 -0.372426,-0.16006 -0.498268,-0.31621 -0.203755,-0.25284 0.06731,0.36517 -0.246789,0.24331 -0.194008,-0.0752 -0.350128,-0.20722 -0.451042,-0.37141 l -0.36993,0.0454 c -0.0582,0.18371 -0.178573,0.34962 -0.348607,0.46958 -0.275286,0.19424 -0.638607,0.23884 -0.952675,0.11698 -0.194008,-0.0752 -0.350126,-0.20722 -0.451041,-0.37141 l -0.36993,0.0454 c -0.0582,0.18372 -0.178572,0.34962 -0.348608,0.46958 -0.275284,0.19425 -0.638615,0.23884 -0.952669,0.11698 -0.194009,-0.0752 -0.350128,-0.20721 -0.451046,-0.37141 l -0.369969,0.0454 c -0.0582,0.18372 -0.178572,0.34962 -0.348608,0.46958 -0.275284,0.19425 -0.638614,0.23884 -0.952669,0.11699 -0.194009,-0.0752 -0.350128,-0.20722 -0.451046,-0.37141 l -0.36997,0.0454 c -0.0582,0.18372 -0.178571,0.34962 -0.348607,0.46959 -0.275284,0.19424 -0.638614,0.23884 -0.952673,0.11698 -0.194009,-0.0752 -0.350128,-0.20723 -0.451042,-0.37141 l -0.369968,0.0454 c -0.0582,0.18371 -0.178573,0.34962 -0.348608,0.46958 -0.275285,0.19424 -0.638616,0.23884 -0.952671,0.11698 -0.194008,-0.0752 -0.350127,-0.20722 -0.451041,-0.37141 l -0.369969,0.0454 c -0.0582,0.18371 -0.178573,0.34962 -0.348608,0.46957 -0.275284,0.19425 -0.638614,0.23884 -0.952669,0.11699 -0.194009,-0.0752 -0.350128,-0.20723 -0.451046,-0.37141 l -0.369931,0.0454 c -0.0582,0.18372 -0.178571,0.34962 -0.348607,0.46959 -0.275284,0.19424 -0.6386143,0.23883 -0.9526693,0.11698 -0.1940089,-0.0752 -0.3501272,-0.20723 -0.4510453,-0.37141 l -0.369931,0.0454 c -0.058202,0.18372 -0.1785722,0.34962 -0.3486074,0.46959 -0.2752838,0.19424 -0.6386144,0.23883 -0.9526731,0.11698 -0.1940089,-0.0752 -0.3501281,-0.20723 -0.4510415,-0.37141 l -0.3699301,0.0454 c -0.058202,0.18373 -0.1785721,0.34962 -0.3486084,0.46959 -0.2752837,0.19424 -0.6386031,0.23883 -0.9526692,0.11698 -0.1940081,-0.0752 -0.3501273,-0.20722 -0.4510417,-0.37141 l -0.3699694,0.0454 z"
         inkscape:connector-curvature="0"
         style="opacity:0.25;fill:#000000;stroke:none;stroke-width:0.09523832;stroke-miterlimit:4;stroke-dasharray:none;stroke-opacity:0.98823529"
         id="path1715" />
      <path
         id="path8219"
         style="fill:#f9f9f9;stroke:#666666;stroke-width:0.09523832;stroke-miterlimit:4;stroke-dasharray:none;stroke-opacity:0.98823529"
         inkscape:connector-curvature="0"
         d="m 4.4380559,266.63335 c -0.058202,0.18371 -0.1785722,0.34962 -0.3486073,0.46958 -0.2647595,0.1868 -0.6106812,0.23525 -0.9161522,0.13024 -0.075269,0.0396 -0.1053658,0.004 -0.1174109,-0.0496 -0.029627,-0.0149 -0.05824,-0.0308 -0.085679,-0.0481 -0.086421,0.16291 -0.2218794,0.29626 -0.3863796,0.38549 l 0.042018,0.34213 c 0.1967378,0.0508 0.3731264,0.16045 0.4991757,0.31688 0.2037541,0.25287 0.2451913,0.59035 0.1086403,0.88495 -0.084469,0.18227 -0.2291697,0.33056 -0.4077841,0.42745 l 0.042018,0.34215 c 0.1967379,0.0508 0.3731265,0.16044 0.4991759,0.31687 0.203754,0.25287 0.2451903,0.59035 0.1086401,0.88495 -0.084469,0.18231 -0.2291696,0.33055 -0.4077849,0.42746 l 0.042018,0.34213 c 0.1967369,0.0508 0.3731265,0.16041 0.4991757,0.31688 0.2037541,0.25283 0.2451904,0.59035 0.1086788,0.88494 -0.084469,0.18232 -0.2291697,0.33057 -0.4077841,0.42746 l 0.042018,0.34214 c 0.1967379,0.0508 0.3731266,0.16041 0.4991759,0.31688 0.203754,0.25283 0.2451912,0.59036 0.1086402,0.88495 -0.084469,0.18231 -0.2291696,0.33055 -0.407785,0.42745 l 0.042018,0.34214 c 0.1967369,0.0508 0.3731265,0.16045 0.4991757,0.31688 0.2037541,0.25287 0.2451904,0.59035 0.1086788,0.88495 -0.084469,0.18227 -0.2291697,0.33055 -0.4077841,0.42746 l 0.042018,0.34213 c 0.1967377,0.0508 0.3731264,0.16045 0.4991757,0.31688 0.2037541,0.25287 0.2451912,0.59035 0.1086403,0.88494 -0.084469,0.18228 -0.2291697,0.33057 -0.4077851,0.42746 l 0.042018,0.34214 c 0.1967369,0.0508 0.3731265,0.16044 0.4991758,0.31687 0.203754,0.25288 0.2451903,0.59036 0.1086787,0.88496 -0.084469,0.18227 -0.2291697,0.33055 -0.4077841,0.42746 l 0.042018,0.34213 c 0.1967378,0.0508 0.3731265,0.16045 0.4991757,0.31688 0.2037541,0.25283 0.2451913,0.59035 0.1086797,0.88494 -0.084469,0.18228 -0.2291697,0.33056 -0.4077851,0.42747 l 0.042018,0.34213 c 0.1967379,0.0508 0.3731275,0.16045 0.4991805,0.31688 0.2037532,0.25288 0.2451124,0.58959 0.1085614,0.8842 -0.084469,0.18228 -0.2290908,0.33135 -0.4076949,0.42822 l 0.042018,0.34214 c 0.1967369,0.0509 0.3731265,0.16045 0.4991758,0.31687 0.203754,0.25283 0.2451124,0.58959 0.1085623,0.88421 -0.084469,0.18226 -0.2290917,0.33133 -0.4076912,0.42822 l 0.042018,0.34213 c 0.1967378,0.0508 0.3731265,0.16045 0.4991758,0.31688 0.2037541,0.25287 0.2451133,0.58959 0.1085623,0.8842 -0.084469,0.18228 -0.2290918,0.33133 -0.4076912,0.42822 l 0.042018,0.34213 c 0.1967368,0.0508 0.3731265,0.16045 0.4991747,0.31688 0.2037541,0.25287 0.2451135,0.58957 0.1085624,0.88419 -0.084469,0.18228 -0.2290908,0.33135 -0.4076912,0.42823 l 0.042018,0.34214 c 0.196737,0.0508 0.3731265,0.16044 0.4991758,0.31687 0.2037541,0.25283 0.2451125,0.58959 0.1085623,0.8842 -0.084469,0.18227 -0.2290917,0.33134 -0.4076911,0.42823 l 0.042018,0.34213 c 0.1967379,0.0508 0.3731265,0.16045 0.4991758,0.31689 0.203754,0.25286 0.2451134,0.58957 0.1085623,0.88419 -0.084469,0.18227 -0.2290918,0.3313 -0.4076949,0.42821 l 0.026511,0.21517 c 0.046974,-0.0324 0.102559,-0.0775 0.1989589,-0.14559 0.2752846,-0.19425 0.6377921,-0.23872 0.951863,-0.11687 0.194008,0.0752 0.3509458,0.20711 0.4518601,0.3713 l 0.3699301,-0.0454 c 0.058202,-0.18371 0.1785721,-0.34962 0.3486074,-0.46958 0.2752846,-0.19424 0.6378005,-0.23873 0.9518629,-0.11687 0.1940089,0.0753 0.3509467,0.20712 0.4518602,0.3713 l 0.3699691,-0.0454 c 0.0582,-0.18371 0.178572,-0.34961 0.348608,-0.46957 0.275285,-0.19425 0.637801,-0.23873 0.951862,-0.11687 0.194009,0.0752 0.350947,0.20711 0.451861,0.3713 l 0.36993,-0.0454 c 0.0582,-0.18372 0.178612,-0.34962 0.348607,-0.46958 0.275285,-0.19425 0.637801,-0.23873 0.951864,-0.11688 0.194009,0.0753 0.350946,0.20711 0.45186,0.3713 l 0.369929,-0.0454 c 0.0582,-0.18372 0.178573,-0.34961 0.348609,-0.46959 0.275284,-0.1942 0.637792,-0.23871 0.951866,-0.11686 0.194009,0.0752 0.350946,0.2071 0.451861,0.3713 l 0.369968,-0.0454 c 0.0582,-0.18372 0.178572,-0.34962 0.348608,-0.46959 0.275284,-0.1942 0.6378,-0.23871 0.951863,-0.11686 0.194009,0.0753 0.350946,0.2071 0.45186,0.37129 l 0.36993,-0.0454 c 0.0582,-0.18371 0.178573,-0.34962 0.348608,-0.46958 0.275284,-0.1942 0.637788,-0.23871 0.951862,-0.11687 0.194009,0.0752 0.350947,0.20711 0.451861,0.3713 l 0.369931,-0.0454 c 0.0582,-0.18372 0.178571,-0.34963 0.348607,-0.46958 0.275284,-0.19425 0.637792,-0.23873 0.951862,-0.11687 0.194008,0.0752 0.350947,0.20711 0.45186,0.3713 l 0.369931,-0.0454 c 0.0582,-0.18371 0.178612,-0.34961 0.348607,-0.46959 0.275285,-0.19423 0.637788,-0.23871 0.951863,-0.11686 0.194009,0.0752 0.350946,0.20715 0.451861,0.3713 l 0.369929,-0.0454 c 0.0582,-0.18373 0.178573,-0.34962 0.348607,-0.46959 0.275286,-0.19424 0.637793,-0.23872 0.951864,-0.11687 0.194009,0.0752 0.350946,0.2071 0.45186,0.3713 l 0.36993,-0.0454 c 0.05824,-0.18373 0.178612,-0.34963 0.348609,-0.46959 0.275283,-0.19423 0.637799,-0.23871 0.951861,-0.11686 0.06852,0.0265 0.114137,0.0447 0.15,0.058 l -0.02924,-0.23873 c -0.196347,-0.0508 -0.372424,-0.16005 -0.498267,-0.3162 -0.203754,-0.25284 -0.245191,-0.59036 -0.108679,-0.88495 0.08431,-0.18196 0.228858,-0.32971 0.40706,-0.4266 l -0.04218,-0.34366 c -0.196348,-0.0509 -0.372426,-0.16005 -0.498268,-0.31621 -0.203754,-0.25283 -0.245191,-0.59034 -0.108679,-0.88495 0.08431,-0.18196 0.228896,-0.3297 0.407059,-0.42661 l -0.04218,-0.34365 c -0.196348,-0.0509 -0.372426,-0.16006 -0.498269,-0.31621 -0.203753,-0.25288 -0.24519,-0.59037 -0.108678,-0.88504 0.08431,-0.18197 0.228857,-0.3297 0.407062,-0.42659 l -0.04218,-0.34365 c -0.196348,-0.051 -0.372425,-0.16006 -0.498268,-0.31622 -0.203753,-0.25287 -0.24519,-0.59036 -0.108679,-0.88503 0.08431,-0.18197 0.228858,-0.3297 0.407063,-0.4266 l -0.04222,-0.34365 c -0.196347,-0.0509 -0.372424,-0.16006 -0.498267,-0.31621 -0.203754,-0.25283 -0.245074,-0.5896 -0.108562,-0.88421 0.08431,-0.18196 0.22878,-0.33044 0.40697,-0.42736 l -0.04222,-0.34366 c -0.196348,-0.051 -0.372424,-0.16005 -0.498268,-0.31621 -0.203753,-0.25284 -0.245073,-0.58958 -0.108562,-0.8842 0.08431,-0.18196 0.228781,-0.33044 0.406967,-0.42736 l -0.04218,-0.34366 c -0.196347,-0.051 -0.372424,-0.16006 -0.498267,-0.31622 -0.203754,-0.25283 -0.245074,-0.58957 -0.108562,-0.88419 0.08431,-0.18197 0.228779,-0.33045 0.406967,-0.42737 l -0.04218,-0.34365 c -0.196347,-0.0509 -0.372425,-0.16005 -0.498266,-0.31621 -0.203755,-0.25287 -0.245114,-0.5896 -0.108563,-0.88421 0.08432,-0.18196 0.228779,-0.33043 0.406969,-0.42735 l -0.04218,-0.34366 c -0.196348,-0.0509 -0.372426,-0.16005 -0.498269,-0.31621 -0.203753,-0.25287 -0.245073,-0.58959 -0.108561,-0.8842 0.08431,-0.18196 0.22878,-0.33044 0.406969,-0.42735 l -0.04222,-0.34366 c -0.196347,-0.051 -0.372424,-0.16006 -0.498263,-0.31622 -0.203755,-0.25287 -0.245114,-0.58958 -0.108563,-0.88419 0.08432,-0.18197 0.228781,-0.33044 0.406967,-0.42737 l -0.04218,-0.34365 c -0.196348,-0.0509 -0.372426,-0.16006 -0.498268,-0.31621 -0.203754,-0.25283 -0.245113,-0.5896 -0.108562,-0.88421 0.08431,-0.18196 0.228779,-0.33044 0.406965,-0.42735 l -0.04218,-0.34366 c -0.196348,-0.0509 -0.372424,-0.16006 -0.498267,-0.31622 -0.203754,-0.25287 -0.245112,-0.58958 -0.108563,-0.88419 0.08432,-0.18196 0.22878,-0.33045 0.406971,-0.42736 l -0.04218,-0.34366 c -0.196348,-0.0509 -0.372426,-0.16005 -0.498268,-0.31621 -0.203755,-0.25287 -0.245074,-0.58959 -0.108562,-0.88419 0.08431,-0.18197 0.228779,-0.33045 0.406969,-0.42737 l -0.04222,-0.34365 c -0.196347,-0.0509 -0.372424,-0.16005 -0.498263,-0.31622 -0.203754,-0.25286 -0.245074,-0.58958 -0.108562,-0.88419 0.08431,-0.18196 0.228779,-0.33045 0.406965,-0.42736 l -0.04218,-0.34366 c -0.196347,-0.0509 -0.372426,-0.16006 -0.498268,-0.31621 -0.203755,-0.25284 0.06731,0.36517 -0.246789,0.24332 -0.194008,-0.0752 -0.350128,-0.20722 -0.451042,-0.37141 l -0.36993,0.0454 c -0.0582,0.18372 -0.178573,0.34962 -0.348607,0.46959 -0.275286,0.19423 -0.638607,0.23884 -0.952675,0.11698 -0.194008,-0.0752 -0.350126,-0.20722 -0.451041,-0.37141 l -0.36993,0.0454 c -0.0582,0.18371 -0.178572,0.34962 -0.348608,0.46958 -0.275284,0.19424 -0.638615,0.23884 -0.952669,0.11698 -0.194009,-0.0752 -0.350128,-0.20722 -0.451046,-0.37141 l -0.369969,0.0454 c -0.0582,0.18371 -0.178572,0.34962 -0.348608,0.46958 -0.275284,0.19425 -0.638614,0.23884 -0.952669,0.11698 -0.194009,-0.0752 -0.350128,-0.20722 -0.451046,-0.37141 l -0.36997,0.0454 c -0.0582,0.18371 -0.178571,0.34962 -0.348607,0.46958 -0.275284,0.19424 -0.638614,0.23884 -0.952673,0.11698 -0.194009,-0.0752 -0.350128,-0.20723 -0.451042,-0.37141 l -0.369968,0.0454 c -0.0582,0.18372 -0.178573,0.34963 -0.348608,0.46959 -0.275285,0.19424 -0.638616,0.23884 -0.952671,0.11698 -0.194008,-0.0752 -0.350127,-0.20723 -0.451041,-0.37141 l -0.369969,0.0454 c -0.0582,0.18372 -0.178573,0.34962 -0.348608,0.46957 -0.275284,0.19425 -0.638614,0.23884 -0.952669,0.11699 -0.194009,-0.0752 -0.350128,-0.20722 -0.451046,-0.37141 l -0.369931,0.0454 c -0.0582,0.18372 -0.178571,0.34962 -0.348607,0.46959 -0.275284,0.19424 -0.6386143,0.23883 -0.9526693,0.11699 -0.1940089,-0.0752 -0.3501272,-0.20723 -0.4510453,-0.37141 l -0.369931,0.0454 c -0.058202,0.18373 -0.1785722,0.34962 -0.3486074,0.4696 -0.2752838,0.19423 -0.6386144,0.23883 -0.9526731,0.11698 -0.1940089,-0.0752 -0.3501281,-0.20723 -0.4510415,-0.37141 l -0.3699301,0.0454 c -0.058202,0.18372 -0.1785721,0.34962 -0.3486084,0.46959 -0.2752837,0.19424 -0.6386031,0.23883 -0.9526692,0.11698 -0.1940081,-0.0752 -0.3501273,-0.20723 -0.4510417,-0.37142 l -0.3699694,0.0454 z" />
      <ellipse
         ry="0.21112584"
         rx="0.22728308"
         cy="268.85852"
         cx="-22.69673"
         id="path18914"
         style="fill:#ffffff;stroke-width:0.00486542"
         transform="rotate(-6.9999986)" />
      <rect
         style="fill:url(#linearGradient4319);fill-opacity:1;stroke:#405f84;stroke-width:0.09523832;stroke-miterlimit:4;stroke-dasharray:none;stroke-opacity:0.98431373"
         id="rect3034"
         width="19.366627"
         height="25.02771"
         x="-28.306854"
         y="267.06152"
         rx="0"
         ry="0"
         transform="rotate(-6.9999992)" />
      <g
         clip-path="url(#clipPath4780)"
         id="g4769"
         transform="matrix(0.26529304,-0.03257389,0.03317614,0.27019819,-30.246352,12.961313)"
         style="stroke-width:0.24431954">
        <ellipse
           style="opacity:0.75;fill:#ffffff;fill-opacity:0.55813958;stroke:none;stroke-width:0.36647931;stroke-miterlimit:4;stroke-dasharray:none;stroke-opacity:0.39215686"
           id="path4722"
           cx="13.947169"
           cy="1034.249"
           rx="11.049057"
           ry="11.592453" />
        <ellipse
           style="opacity:0.75;fill:#ffffff;fill-opacity:0.55813958;stroke:none;stroke-width:0.36647931;stroke-miterlimit:4;stroke-dasharray:none;stroke-opacity:0.39215686"
           id="path4724"
           cx="24.815088"
           cy="1040.2263"
           rx="14.475719"
           ry="13.584907" />
        <ellipse
           ry="17.207548"
           rx="18.335911"
           cy="1022.4452"
           cx="15.033957"
           id="ellipse4726"
           style="opacity:0.75;fill:#ffffff;fill-opacity:0.55813958;stroke:none;stroke-width:0.36647931;stroke-miterlimit:4;stroke-dasharray:none;stroke-opacity:0.39215686" />
        <ellipse
           ry="13.584907"
           rx="14.475719"
           cy="1040.2263"
           cx="53.796223"
           id="ellipse4728"
           style="opacity:0.75;fill:#ffffff;fill-opacity:0.55813958;stroke:none;stroke-width:0.36647931;stroke-miterlimit:4;stroke-dasharray:none;stroke-opacity:0.39215686" />
        <ellipse
           style="opacity:0.75;fill:#ffffff;fill-opacity:0.55813958;stroke:none;stroke-width:0.36647931;stroke-miterlimit:4;stroke-dasharray:none;stroke-opacity:0.39215686"
           id="ellipse4761"
           cx="41.47924"
           cy="1034.7924"
           rx="18.335911"
           ry="17.207548" />
        <ellipse
           ry="17.207548"
           rx="18.335911"
           cy="1026.4602"
           cx="79.879242"
           id="ellipse4763"
           style="opacity:0.75;fill:#ffffff;fill-opacity:0.55813958;stroke:none;stroke-width:0.36647931;stroke-miterlimit:4;stroke-dasharray:none;stroke-opacity:0.39215686" />
        <ellipse
           style="opacity:0.75;fill:#ffffff;fill-opacity:0.55813958;stroke:none;stroke-width:0.36647931;stroke-miterlimit:4;stroke-dasharray:none;stroke-opacity:0.39215686"
           id="ellipse4765"
           cx="65.750938"
           cy="1030.9508"
           rx="18.335911"
           ry="17.207548" />
      </g>
      <path
         inkscape:connector-curvature="0"
         id="path2"
         d="m 8.1865949,269.19066 -0.043427,-0.0164 c 0.4640188,0.70197 1.1559409,1.22052 1.7884432,1.76223 0.081662,0.003 0.065609,0.16157 -0.020268,0.067 -0.7270819,-0.5382 -1.3894992,-1.14654 -2.1017761,-1.70423 -0.038591,-0.0666 -0.1897593,-0.10625 -0.2270641,-0.0441 0.6498643,0.65204 1.3592143,1.25524 2.113135,1.79105 0.026895,0.0229 0.00779,0.0571 -0.00394,0.0823 -0.956076,-0.51374 -1.7848834,-1.22224 -2.7337987,-1.74938 -0.035475,0.0874 0.1179179,0.15168 0.175648,0.21774 0.6099329,0.58036 1.3347383,1.02632 2.0267262,1.50644 0.1190096,0.10212 -0.1100042,0.10536 -0.1425534,0.0113 -0.9171575,-0.44808 -1.8085529,-0.96394 -2.6853932,-1.48164 l -0.00545,0.0132 c 0.6476038,0.75121 1.5888833,1.17383 2.4028031,1.72332 0.1545994,0.12927 -0.1190087,0.14034 -0.2002065,0.0853 -0.3994227,-0.19763 -0.8430932,-0.27337 -1.250239,-0.44771 -0.4070594,-0.11925 -0.7952565,-0.31052 -1.2183412,-0.37321 0.4692776,0.32316 1.0395973,0.59279 1.582038,0.82911 0.1754537,0.0991 0.4214908,0.13043 0.5301348,0.31345 -0.053443,0.0382 -0.1374082,0.003 -0.20161,0.0164 -0.5903957,-0.0755 -1.1618766,-0.29552 -1.7608364,-0.34137 0.3345355,0.22575 0.7288908,0.35083 1.055739,0.58278 -0.1277015,0.1107 -0.4147506,-0.0917 -0.5399803,0.0725 0.1125379,0.26273 0.4352152,0.35184 0.5990444,0.57743 -0.1604844,0.27237 0.1851996,0.50478 0.3836132,0.64499 -0.205547,0.36228 0.2737245,0.59266 0.5660005,0.65892 0.026116,0.12676 0.152689,0.15522 0.2395775,0.23026 -0.040967,0.0628 -0.00375,0.0817 0.044403,0.0905 -0.089734,0.0639 -0.2023113,0.2096 -0.068059,0.29126 0.079794,0.14782 0.3442413,0.0401 0.3761277,0.21677 -0.098544,0.0686 -0.085445,0.19799 -0.1593936,0.28671 0.079362,0.16591 0.3519212,0.0425 0.3973303,0.23685 -0.047557,0.0874 -0.1092636,0.20134 -0.1514415,0.30542 0.1795466,0.14855 0.4037738,0.0211 0.6039174,0.0591 -0.068529,0.0627 -0.1337827,0.12996 -0.1511288,0.22379 0.1425918,0.11632 0.3271288,0.13772 0.5027495,0.11296 0.1256751,0.0985 -0.1039624,0.28196 -0.082018,0.33844 0.2079631,-0.10447 0.1445023,0.21373 -0.014419,0.21876 0.021826,0.15448 0.2684241,0.10377 0.2640951,0.26332 -0.009,0.12376 0.121543,0.14274 0.214475,0.16878 0.02495,0.16794 0.02417,0.42118 0.274347,0.40401 -0.0094,0.16349 0.09005,0.25864 0.25681,0.25579 0.06627,0.0918 0.08829,0.22894 0.09597,0.34612 0.110316,0.0597 0.31411,-0.03 0.32062,0.14952 0.03976,0.20828 0.391232,0.0859 0.37796,0.31864 0.007,0.14458 0.222075,0.0947 0.252597,0.22784 0.05777,0.26593 0.366927,0.30752 0.51627,0.50079 -0.163331,0.0837 -0.315358,-0.0774 -0.478653,-0.0363 -0.111174,0.0955 0.05632,0.23969 -0.0074,0.3504 -0.551452,-0.0992 -1.158087,-0.1219 -1.656542,0.1629 -0.07742,0.0974 0.03157,0.23303 0.104782,0.29466 0.173738,-0.003 0.340538,-0.11667 0.50731,-0.11948 -0.08619,0.0807 -0.07601,0.23853 -0.21038,0.26363 -0.239227,0.0496 -0.546254,0.13043 -0.610491,0.39095 -0.01442,0.0652 -0.1220502,0.0288 -0.1342116,0.0842 0.050983,0.11245 0.088327,0.24589 0.2133046,0.30346 0.129144,0.0899 0.29532,0.008 0.430796,0.0777 -0.148245,0.18691 -0.484177,0.2411 -0.5981574,0.47967 -0.026116,0.11558 0.084863,0.16084 0.1844194,0.16629 0.0054,0.0843 0.03859,0.17269 0.119165,0.21666 0.09488,-0.0171 0.199154,-0.0488 0.283665,0.0152 -0.01481,0.11706 -0.124973,0.1933 -0.243437,0.17494 -0.162823,0.057 -0.4395271,0.35223 -0.179273,0.46338 0.134172,0.0946 0.318865,-0.0887 0.438494,0.0246 0.007,0.10182 -0.155885,0.21424 -0.0715,0.32097 0.188162,0.0422 0.38373,-0.006 0.548109,-0.0967 0.180561,0.006 10e-4,0.21019 0.03898,0.29552 0.10182,0.0253 0.197673,-0.13441 0.294619,-0.0544 -0.152376,0.20558 -0.127078,0.4665 0.07979,0.59876 0.342214,0.0834 0.574623,-0.2004 0.86824,-0.28639 0.08124,-0.0471 0.103534,-0.23401 0.223673,-0.17721 -0.148674,0.18375 -0.08879,0.47851 -0.224296,0.59142 0.2869,0.10455 0.450336,0.42004 0.778685,0.42752 0.0856,-0.0558 0.159315,-0.18142 0.245737,-0.0636 0.222893,-0.009 0.155495,-0.3099 0.289707,-0.42942 0.170152,0.10704 0.334185,-0.075 0.451154,-0.18053 0.214007,-0.22824 0.163916,-0.55615 -0.0086,-0.7918 0.04529,-0.28736 0.386029,-0.68438 0.704661,-0.47855 0.19124,0.10221 0.365563,-0.10132 0.52426,-0.17534 -0.01248,0.15518 -0.125363,0.34873 0.02651,0.46967 0.06444,0.0831 0.173583,0.0218 0.260822,0.0409 -0.163876,0.13526 -0.43221,0.18528 -0.52295,0.39075 -0.07613,0.22305 0.199154,0.26269 0.168086,0.46699 0.06755,0.11967 0.37414,0.10557 0.299219,0.30304 -0.06912,0.21475 0.21155,0.26106 0.347711,0.34892 0.0074,0.15737 0.0074,0.36182 0.210225,0.39407 0.26129,0.0195 0.0011,0.39282 0.291032,0.39085 0.181495,0.007 0.100143,0.21931 0.179586,0.31859 0.09999,0.0874 0.246672,0.0898 0.366889,0.1387 0.04647,0.0938 0.05645,0.20028 0.09714,0.29649 0.05922,0.18488 0.38178,0.0654 0.387705,0.27715 0.0047,0.22897 0.26897,0.30148 0.46807,0.29251 0.0444,0.1921 0.129768,0.42229 0.361861,0.45704 -0.131405,0.26371 0.09511,0.7035 0.437621,0.60201 0.121035,0.15118 0.153546,0.3798 0.337809,0.4802 0.22188,0.0412 0.420153,-0.11683 0.586369,-0.21491 -0.03236,0.19507 0.02533,0.40808 0.195489,0.52953 0.07329,-0.0433 0.167424,-0.007 0.165436,0.0812 0.110433,0.003 0.204416,-0.0906 0.318475,-0.0767 0.04479,0.17799 0.234315,0.25981 0.288071,0.42922 0.08849,0.27777 0.523507,0.47019 0.739762,0.21424 0.19354,0.17404 0.48043,0.58704 0.802483,0.39264 0.23529,0.20212 0.436514,0.47457 0.75603,0.557 0.148284,-0.0175 0.10139,-0.24063 0.157093,-0.30152 0.276727,0.32066 0.526626,0.67519 0.871044,0.9421 l 0.02807,0.0105 c -0.04069,-0.57862 -0.44194,-1.10482 -0.361939,-1.69092 0.217865,0.14036 0.301246,0.39715 0.444797,0.59706 0.249986,0.35769 0.49702,0.72993 0.850044,1.00155 0.08545,0.0602 0.201415,0.23802 0.309627,0.12599 -0.27166,-0.61561 -0.654423,-1.18662 -0.92803,-1.79832 -0.03196,-0.14212 -0.11398,-0.28386 -0.07094,-0.43257 0.155417,0.0898 0.230026,0.25888 0.339212,0.39117 0.455322,0.56686 0.934122,1.17154 1.635037,1.46841 0.04813,0.01 0.09921,0.0952 0.151168,0.0501 -0.603882,-0.66335 -1.143723,-1.37615 -1.638688,-2.11709 -0.04295,-0.0454 -0.06073,-0.18844 0.046,-0.0948 0.322296,0.37469 0.643101,0.75763 1.033992,1.07032 0.340421,0.2772 0.621116,0.63149 1.035875,0.81298 0.04608,-0.0638 0.11094,-0.0211 0.176895,-0.0199 -0.564146,-0.75708 -1.328938,-1.35202 -1.892638,-2.10893 -0.07999,-0.0315 0.0152,-0.12747 0.05586,-0.0587 0.694015,0.62995 1.461798,1.19666 2.332431,1.57654 0.03313,-0.0642 0.07901,-0.0694 0.138305,-0.03 -0.747147,-0.68269 -1.710993,-1.17729 -2.375583,-1.93169 0.174402,-0.0363 0.374686,0.1565 0.543906,0.24631 0.734606,0.35543 1.576885,0.55933 2.402624,0.43944 l 0.01599,-0.0393 c -1.117334,-0.0492 -2.226531,-0.433 -3.095186,-1.11297 -0.109888,-0.0936 0.09886,-0.13359 0.175844,-0.14307 -0.09176,-0.0128 -0.2395,-0.0565 -0.132106,-0.16344 -0.543779,-0.17729 -0.987524,-0.54807 -1.431642,-0.88519 -0.02533,-0.0335 -0.131951,-0.0731 -0.08198,-0.12708 0.156432,0.004 0.330909,0.032 0.471495,-0.0444 0.0033,-0.11082 0.15994,-0.0941 0.196152,-0.14505 -0.893659,-0.32055 -1.600537,-0.9596 -2.386386,-1.45581 -0.488515,-0.1783 -0.810713,-0.60337 -1.170644,-0.94773 -0.323427,-0.31278 -0.613343,-0.65662 -0.921602,-0.98377 -0.433684,-0.52708 -0.952467,-0.98722 -1.351805,-1.54154 -0.15612,-0.33181 -0.393062,-0.64469 -0.421038,-1.01856 0.01559,-0.21256 0.220632,-0.34584 0.397283,-0.44116 0.363264,-0.0935 0.462268,-0.62995 0.186018,-0.86416 -0.217592,-0.29038 -0.653868,-0.34822 -0.993475,-0.25178 -0.324557,0.0136 -0.666486,0.0598 -0.978061,-0.055 -0.419928,-0.18492 -0.858437,-0.39804 -1.104225,-0.79332 -0.639207,-0.95571 -1.311705,-1.90929 -1.714865,-2.98681 -0.141969,-0.36884 -0.533445,-0.55202 -0.823124,-0.79908 -0.398924,-0.33926 -0.873776,-0.58057 -1.294179,-0.89237 -0.09083,0.0367 -0.160368,-0.0427 -0.230963,-0.0855 -0.476812,-0.35137 -1.001579,-0.65253 -1.418863,-1.0741 -0.6453393,-0.54837 -1.2043977,-1.18612 -1.851873,-1.73345 z"
         style="fill:#214478;fill-opacity:1;stroke-width:0.00385024" />
      <g
         transform="matrix(0.9387468,0,0,0.9387468,71.075491,196.35954)"
         style="opacity:0.7;stroke-width:1.01452613"
         id="g1927">
        <path
           inkscape:connector-curvature="0"
           id="path3210"
           d="m -48.696534,96.773407 c -0.367532,0.119413 -0.411364,0.489323 -0.351967,0.868094 0.721195,-0.488215 0.351967,-0.868094 0.351967,-0.868094 z m 0.272829,0.706536 c -0.205707,0.07465 -0.403315,0.240311 -0.568789,0.504154 0,0 -1.072736,-0.512124 -1.375815,0.497617 -0.294044,0.979645 0.850697,1.905936 0.850697,1.905936 0.253212,0.17987 0.659065,0.30847 0.875002,0.0821 0.134415,-0.17099 0.341357,-0.23456 0.603704,-0.17347 0.248576,0.10523 0.622575,-0.0674 0.764467,-0.486246 0.11315,-0.220184 0.184744,-0.439504 0.220767,-0.64537 -0.373012,-0.02742 -0.701986,-0.282376 -0.802743,-0.658392 -0.08852,-0.330357 0.0256,-0.665821 0.263781,-0.885546 -0.221854,-0.159046 -0.486317,-0.225939 -0.742023,-0.164639 -0.02941,0.0078 -0.05985,0.01243 -0.08905,0.02378 z"
           style="opacity:1;fill:#547499;fill-opacity:1;stroke:none;stroke-width:0.20290524;stroke-miterlimit:4;stroke-dasharray:none;stroke-opacity:1" />
        <circle
           r="6.3965926"
           cy="82.701393"
           cx="-72.716484"
           style="opacity:1;fill:none;stroke:#547499;stroke-width:0.20290524;stroke-miterlimit:4;stroke-dasharray:none;stroke-opacity:1"
           id="path3506"
           transform="rotate(-15)" />
        <circle
           r="3.5036588"
           cy="82.701393"
           cx="-72.716484"
           transform="rotate(-15)"
           id="path4276"
           style="opacity:1;fill:none;stroke:#547499;stroke-width:0.20290524;stroke-miterlimit:4;stroke-dasharray:none;stroke-opacity:1;marker-mid:none" />
        <circle
           r="3.7764404"
           cy="82.701393"
           cx="-72.716484"
           style="opacity:1;fill:none;stroke:#547499;stroke-width:0.20290524;stroke-miterlimit:4;stroke-dasharray:none;stroke-opacity:1;marker-mid:none"
           id="path4523"
           transform="rotate(-15)" />
        <circle
           r="6.1206021"
           cy="82.701393"
           cx="-72.716484"
           transform="rotate(-15)"
           id="path4525"
           style="opacity:1;fill:none;stroke:#547499;stroke-width:0.20290524;stroke-miterlimit:4;stroke-dasharray:none;stroke-opacity:1" />
        <g
           transform="matrix(-0.2296485,0.22964851,-0.22964851,-0.2296485,195.98059,317.09974)"
           style="font-style:normal;font-variant:normal;font-weight:bold;font-stretch:normal;font-size:5.09886456px;line-height:100%;font-family:'Liberation Sans';-inkscape-font-specification:'Liberation Sans Bold';text-align:start;letter-spacing:0px;word-spacing:0px;text-anchor:start;opacity:1;fill:#547499;fill-opacity:1;stroke:none;stroke-width:0.62476206;stroke-miterlimit:4;stroke-dasharray:none"
           id="text4278">
          <path
             d="m 71.592596,1011.7815 c -0.158064,-0.02 -0.298464,-0.067 -0.421199,-0.1415 -0.121089,-0.074 -0.219979,-0.1778 -0.29667,-0.3113 -0.0769,-0.132 -0.128816,-0.2959 -0.15575,-0.4917 -0.0255,-0.194 -0.02168,-0.4211 0.01144,-0.6812 0.02935,-0.2305 0.07582,-0.4312 0.139414,-0.6022 0.06359,-0.1709 0.1438,-0.3146 0.240621,-0.4311 0.09661,-0.1149 0.20922,-0.2043 0.337831,-0.2682 0.130046,-0.062 0.274656,-0.1006 0.43383,-0.1155 l 0.02646,0.7187 c -0.0799,0.01 -0.15437,0.03 -0.223404,0.059 -0.06904,0.03 -0.13162,0.074 -0.187753,0.1342 -0.0547,0.062 -0.101507,0.1402 -0.140429,0.2356 -0.03748,0.097 -0.06524,0.2167 -0.08327,0.3583 -0.03145,0.247 -0.0184,0.4403 0.03913,0.5798 0.05897,0.1413 0.168306,0.2222 0.328017,0.2425 0.0955,0.012 0.177058,0 0.244688,-0.049 0.06763,-0.045 0.126755,-0.1086 0.177383,-0.1908 0.05063,-0.082 0.09634,-0.1785 0.137153,-0.2887 0.04081,-0.1103 0.08142,-0.2256 0.121844,-0.3459 0.03563,-0.096 0.07208,-0.1916 0.109357,-0.2873 0.03727,-0.096 0.07896,-0.1865 0.125073,-0.2727 0.04589,-0.084 0.09764,-0.1624 0.155247,-0.2337 0.0576,-0.071 0.124645,-0.1314 0.201137,-0.1802 0.07793,-0.047 0.16591,-0.081 0.263955,-0.1019 0.09783,-0.019 0.210137,-0.021 0.33692,0 0.172879,0.022 0.316661,0.075 0.431346,0.1603 0.114679,0.085 0.202957,0.1932 0.264832,0.3249 0.06331,0.1335 0.102275,0.2874 0.116909,0.4616 0.01463,0.1742 0.0092,0.3618 -0.01642,0.5626 -0.02893,0.2273 -0.07178,0.4192 -0.128546,0.576 -0.05533,0.1586 -0.12614,0.2876 -0.212419,0.387 -0.08649,0.1011 -0.18888,0.1759 -0.307159,0.2245 -0.116847,0.05 -0.250425,0.081 -0.400734,0.092 l -0.0064,-0.7186 c 0.15444,-0.017 0.276659,-0.077 0.366655,-0.1792 0.08978,-0.1007 0.147881,-0.2547 0.174298,-0.4622 0.01635,-0.1284 0.01845,-0.2369 0.0063,-0.3255 -0.01072,-0.087 -0.03176,-0.158 -0.06312,-0.2138 -0.03158,-0.054 -0.07153,-0.095 -0.119845,-0.1232 -0.04667,-0.028 -0.098,-0.045 -0.153975,-0.052 -0.08562,-0.011 -0.15904,6e-4 -0.220259,0.035 -0.05958,0.034 -0.113017,0.086 -0.160318,0.1553 -0.04566,0.069 -0.08816,0.1535 -0.127497,0.2523 -0.03791,0.1005 -0.07789,0.2109 -0.119957,0.331 -0.03689,0.1058 -0.07532,0.2105 -0.115286,0.3141 -0.03833,0.1039 -0.08096,0.2022 -0.127903,0.295 -0.04695,0.093 -0.100462,0.1779 -0.160547,0.2556 -0.06009,0.078 -0.130232,0.1424 -0.210433,0.1941 -0.07877,0.053 -0.169745,0.091 -0.272936,0.1133 -0.103402,0.024 -0.222609,0.027 -0.357621,0.01"
             style="font-weight:bold;-inkscape-font-specification:'Liberation Sans Bold';fill:#547499;fill-opacity:1;stroke:none;stroke-width:0.62476206;stroke-miterlimit:4;stroke-dasharray:none"
             id="path4668"
             inkscape:connector-curvature="0" />
          <path
             d="m 70.37192,1012.1687 3.342991,1.0631 -0.222581,0.6999 -3.34299,-1.0631 0.22258,-0.6999"
             style="font-weight:bold;-inkscape-font-specification:'Liberation Sans Bold';fill:#547499;fill-opacity:1;stroke:none;stroke-width:0.62476206;stroke-miterlimit:4;stroke-dasharray:none"
             id="path4670"
             inkscape:connector-curvature="0" />
          <path
             d="m 69.638951,1015.2583 c -0.05189,0.093 -0.09451,0.1858 -0.12786,0.2794 -0.03335,0.094 -0.05871,0.183 -0.07607,0.2684 -0.01673,0.088 -0.0261,0.169 -0.02811,0.2439 -0.0014,0.077 0.004,0.144 0.01628,0.2003 l 0.423628,0.2371 0.418349,-0.7473 0.473594,0.2651 -0.746706,1.3339 -1.125327,-0.6299 c -0.03205,-0.1093 -0.0531,-0.2314 -0.06314,-0.3663 -0.0086,-0.1342 -0.0031,-0.2766 0.01662,-0.4273 0.02112,-0.1499 0.05814,-0.306 0.111061,-0.4685 0.05211,-0.1611 0.123973,-0.3234 0.215587,-0.4871 0.151612,-0.2708 0.321248,-0.4821 0.508907,-0.6338 0.189109,-0.151 0.389173,-0.2501 0.600193,-0.2975 0.212469,-0.046 0.432765,-0.046 0.660889,0 0.227312,0.049 0.456108,0.1384 0.686389,0.2673 0.238967,0.1338 0.436927,0.2864 0.593879,0.458 0.156949,0.1715 0.266691,0.3595 0.329228,0.5638 0.06317,0.2065 0.07624,0.4278 0.0392,0.6639 -0.0364,0.2383 -0.128786,0.49 -0.277152,0.755 -0.107832,0.1926 -0.222329,0.353 -0.343491,0.4811 -0.121975,0.1295 -0.248936,0.2306 -0.380881,0.3032 -0.132758,0.074 -0.269458,0.1212 -0.410101,0.1414 -0.140007,0.022 -0.283405,0.022 -0.430194,0 l 0.152647,-0.6906 c 0.07832,0.01 0.15788,0.01 0.238687,0 0.08225,-0.011 0.162623,-0.037 0.241109,-0.079 0.07912,-0.039 0.15491,-0.095 0.227367,-0.1666 0.07309,-0.069 0.140041,-0.1584 0.200849,-0.267 0.08918,-0.1593 0.140858,-0.3111 0.15503,-0.4554 0.01562,-0.1434 -0.0018,-0.2787 -0.05237,-0.4059 -0.05053,-0.1272 -0.130838,-0.2454 -0.240914,-0.3546 -0.108631,-0.1083 -0.243327,-0.2075 -0.404086,-0.2975 -0.159314,-0.089 -0.315727,-0.153 -0.469238,-0.1913 -0.154324,-0.037 -0.300359,-0.044 -0.438105,-0.023 -0.138558,0.023 -0.26706,0.078 -0.385508,0.1636 -0.118447,0.086 -0.221857,0.2078 -0.310229,0.3656"
             style="font-weight:bold;-inkscape-font-specification:'Liberation Sans Bold';fill:#547499;fill-opacity:1;stroke:none;stroke-width:0.62476206;stroke-miterlimit:4;stroke-dasharray:none"
             id="path4672"
             inkscape:connector-curvature="0" />
          <path
             d="m 66.422062,1018.4501 2.982038,0.861 c -0.05702,-0.046 -0.113444,-0.093 -0.169275,-0.1409 -0.04887,-0.04 -0.100029,-0.086 -0.153488,-0.1354 -0.05465,-0.049 -0.105191,-0.097 -0.151633,-0.1442 l -1.447288,-1.4785 0.466129,-0.4563 2.453945,2.5068 -0.599563,0.5869 -3.013724,-0.8613 c 0.0547,0.044 0.111122,0.091 0.169275,0.1409 0.05003,0.042 0.105266,0.09 0.165716,0.1444 0.05927,0.056 0.117926,0.1133 0.175979,0.1726 l 1.426388,1.4571 -0.466128,0.4563 -2.453946,-2.5068 0.615575,-0.6026"
             style="font-weight:bold;-inkscape-font-specification:'Liberation Sans Bold';fill:#547499;fill-opacity:1;stroke:none;stroke-width:0.62476206;stroke-miterlimit:4;stroke-dasharray:none"
             id="path4674"
             inkscape:connector-curvature="0" />
          <path
             d="m 65.234368,1019.4597 1.712052,3.0618 -2.407723,1.3463 -0.277039,-0.4955 1.766678,-0.9878 -0.43014,-0.7693 -1.634122,0.9138 -0.277039,-0.4955 1.634122,-0.9137 -0.450795,-0.8062 -1.855772,1.0377 -0.277039,-0.4955 2.496817,-1.3961"
             style="font-weight:bold;-inkscape-font-specification:'Liberation Sans Bold';fill:#547499;fill-opacity:1;stroke:none;stroke-width:0.62476206;stroke-miterlimit:4;stroke-dasharray:none"
             id="path4676"
             inkscape:connector-curvature="0" />
          <path
             d="m 59.608408,1023.5427 c -0.07023,-0.2836 -0.08939,-0.5439 -0.05747,-0.7809 0.03232,-0.2354 0.104628,-0.444 0.216932,-0.6257 0.11231,-0.1817 0.260784,-0.3348 0.445424,-0.4592 0.183034,-0.124 0.391354,-0.2149 0.624962,-0.2728 l 1.377493,-0.3411 0.843392,3.405 -1.232493,0.3053 c -0.26422,0.065 -0.514871,0.092 -0.751954,0.081 -0.237081,-0.011 -0.452331,-0.066 -0.645751,-0.1632 -0.193416,-0.098 -0.360568,-0.2408 -0.501457,-0.4299 -0.140883,-0.1891 -0.247241,-0.4286 -0.319073,-0.7186 m 0.717746,-0.1778 c 0.04909,0.1982 0.118574,0.3614 0.208466,0.4896 0.08829,0.1286 0.191932,0.226 0.310944,0.2923 0.119413,0.068 0.252172,0.1068 0.398278,0.1168 0.144497,0.01 0.298105,0 0.460826,-0.045 l 0.50508,-0.1251 -0.570442,-2.3031 -0.604163,0.1497 c -0.143387,0.035 -0.269312,0.093 -0.377776,0.1731 -0.110071,0.08 -0.197242,0.1805 -0.261512,0.3007 -0.06548,0.1222 -0.105034,0.2629 -0.118667,0.4218 -0.01524,0.1594 0.0011,0.3358 0.04897,0.5291"
             style="font-weight:bold;-inkscape-font-specification:'Liberation Sans Bold';fill:#547499;fill-opacity:1;stroke:none;stroke-width:0.62476206;stroke-miterlimit:4;stroke-dasharray:none"
             id="path4678"
             inkscape:connector-curvature="0" />
          <path
             d="m 56.560221,1021.7365 c 0.128739,0.014 0.242431,0.043 0.341078,0.089 0.09682,0.047 0.177122,0.1081 0.240901,0.1833 0.0636,0.077 0.109037,0.1677 0.136298,0.2724 0.02726,0.1047 0.03405,0.2215 0.02037,0.3502 -0.01684,0.1584 -0.05819,0.2884 -0.124061,0.3899 -0.06769,0.103 -0.152912,0.1824 -0.255657,0.2382 -0.10292,0.057 -0.220327,0.094 -0.352224,0.1103 -0.13207,0.018 -0.270815,0.02 -0.416235,0.01 l -0.577899,-0.052 -0.01447,0.1362 c -0.01035,0.097 -0.0099,0.1792 0.0014,0.2455 0.0095,0.068 0.02855,0.1241 0.05717,0.1688 0.02863,0.045 0.06682,0.078 0.114578,0.1 0.04594,0.023 0.100263,0.038 0.16298,0.045 0.05777,0.01 0.110374,0.01 0.157814,-7e-4 0.04579,-0.01 0.08677,-0.023 0.122937,-0.05 0.03599,-0.024 0.06735,-0.06 0.09407,-0.1076 0.02489,-0.046 0.04541,-0.1054 0.06156,-0.1788 l 0.721708,0.1118 c -0.03226,0.1151 -0.07988,0.2177 -0.142874,0.3078 -0.06316,0.092 -0.144731,0.1682 -0.244702,0.2293 -0.101619,0.061 -0.222117,0.1033 -0.361493,0.1269 -0.141199,0.025 -0.303401,0.028 -0.486608,0.01 -0.166697,-0.018 -0.313049,-0.054 -0.439055,-0.1092 -0.126001,-0.055 -0.230006,-0.1288 -0.312015,-0.2209 -0.08218,-0.091 -0.140888,-0.1978 -0.176126,-0.3217 -0.03523,-0.1239 -0.04452,-0.2643 -0.02786,-0.4211 l 0.103665,-0.9754 c 0.0067,-0.063 0.01016,-0.1191 0.01047,-0.1692 -0.0013,-0.05 -0.0076,-0.093 -0.01877,-0.1297 -0.01299,-0.035 -0.03256,-0.063 -0.05869,-0.084 -0.02795,-0.02 -0.06504,-0.032 -0.111253,-0.037 -0.05281,-0.01 -0.104504,-0.01 -0.155074,0 l 0.03999,-0.3763 c 0.04232,-0.01 0.08042,-0.011 0.114302,-0.015 0.03389,0 0.0676,-0.01 0.101135,-0.01 0.03354,0 0.06946,0 0.107772,0 0.03666,6e-4 0.07975,0 0.129264,0.01 0.174955,0.018 0.299958,0.075 0.37501,0.17 0.07341,0.095 0.109501,0.2261 0.108288,0.3946 h 0.01485 c 0.110146,-0.1569 0.242751,-0.2739 0.397815,-0.3509 0.153417,-0.077 0.33328,-0.1047 0.539591,-0.083 m -0.946647,1.2038 0.357032,0.033 c 0.07463,0 0.146298,0.01 0.215019,0 0.0669,0 0.127507,-0.014 0.181829,-0.038 0.0525,-0.023 0.09649,-0.06 0.131991,-0.1112 0.0355,-0.051 0.05825,-0.124 0.06824,-0.218 0.01351,-0.1271 -0.0053,-0.2251 -0.05639,-0.294 -0.05293,-0.067 -0.12808,-0.1062 -0.22546,-0.1165 -0.08913,-0.01 -0.172017,9e-4 -0.248674,0.031 -0.07665,0.03 -0.142985,0.073 -0.198991,0.1291 -0.05783,0.057 -0.105071,0.1249 -0.141726,0.2027 -0.03665,0.078 -0.05945,0.159 -0.0684,0.2431 l -0.01447,0.1362"
             style="font-weight:bold;-inkscape-font-specification:'Liberation Sans Bold';fill:#547499;fill-opacity:1;stroke:none;stroke-width:0.62476206;stroke-miterlimit:4;stroke-dasharray:none"
             id="path4680"
             inkscape:connector-curvature="0" />
          <path
             d="m 52.701872,1020.9223 -0.489473,1.4297 c -0.03386,0.099 -0.05692,0.1919 -0.06918,0.279 -0.01279,0.089 -0.01107,0.1681 0.0052,0.2386 0.01569,0.072 0.04694,0.1345 0.09375,0.1873 0.04681,0.053 0.111834,0.094 0.195058,0.1221 0.08009,0.027 0.15929,0.034 0.237606,0.021 0.07621,-0.012 0.149161,-0.044 0.218847,-0.093 0.06915,-0.048 0.132665,-0.1134 0.190539,-0.1953 0.05577,-0.081 0.102199,-0.1755 0.139291,-0.2839 l 0.467701,-1.3662 0.661888,0.2266 -0.677359,1.9786 c -0.01881,0.055 -0.03738,0.1118 -0.0557,0.1704 -0.01989,0.058 -0.03713,0.1136 -0.05174,0.1665 -0.01671,0.054 -0.03126,0.1016 -0.04367,0.143 -0.01294,0.043 -0.02134,0.075 -0.02519,0.097 l -0.631267,-0.2161 c 0.0033,-0.02 0.01065,-0.052 0.02203,-0.095 0.01084,-0.042 0.02329,-0.088 0.03735,-0.1398 0.01406,-0.051 0.02891,-0.1024 0.04454,-0.1532 0.01406,-0.051 0.02701,-0.094 0.03883,-0.1288 h -0.0094 c -0.156167,0.164 -0.316827,0.2669 -0.481981,0.3086 -0.16515,0.042 -0.341159,0.031 -0.528029,-0.033 -0.153888,-0.053 -0.274838,-0.1221 -0.362849,-0.2084 -0.08958,-0.087 -0.152289,-0.1855 -0.188141,-0.296 -0.03742,-0.111 -0.05062,-0.2313 -0.0396,-0.3609 0.01102,-0.1296 0.04019,-0.2634 0.08749,-0.4016 l 0.553983,-1.6182 0.659533,0.2258"
             style="font-weight:bold;-inkscape-font-specification:'Liberation Sans Bold';fill:#547499;fill-opacity:1;stroke:none;stroke-width:0.62476206;stroke-miterlimit:4;stroke-dasharray:none"
             id="path4682"
             inkscape:connector-curvature="0" />
          <path
             d="m 49.952732,1019.4626 c -0.0043,0.013 -0.01322,0.035 -0.02676,0.066 -0.01583,0.031 -0.03319,0.066 -0.05206,0.1055 -0.02027,0.038 -0.04099,0.077 -0.06216,0.1168 -0.02256,0.039 -0.04317,0.073 -0.06181,0.1023 l 0.0084,0.01 c 0.16193,-0.1038 0.325019,-0.1489 0.489268,-0.1353 0.161961,0.014 0.328491,0.075 0.49959,0.1836 0.143052,0.091 0.248529,0.1986 0.31643,0.3241 0.0665,0.1246 0.100821,0.2612 0.102964,0.4099 7.42e-4,0.1478 -0.02733,0.3039 -0.08422,0.4682 -0.05917,0.1649 -0.142468,0.3322 -0.249879,0.5019 -0.109185,0.1725 -0.226323,0.3203 -0.351415,0.4434 -0.126493,0.1223 -0.258347,0.2127 -0.395563,0.2712 -0.1381,0.06 -0.280489,0.085 -0.427165,0.074 -0.148076,-0.011 -0.297847,-0.065 -0.449315,-0.1607 -0.07433,-0.047 -0.140972,-0.1 -0.19993,-0.1589 -0.05895,-0.059 -0.107675,-0.1232 -0.146164,-0.1927 -0.03848,-0.07 -0.06559,-0.1447 -0.08132,-0.2253 -0.01572,-0.081 -0.01778,-0.1675 -0.0062,-0.2603 h -0.0042 c -0.0089,0.014 -0.02104,0.035 -0.03651,0.062 -0.01775,0.028 -0.03772,0.06 -0.05992,0.095 -0.02219,0.035 -0.04457,0.072 -0.06714,0.1107 -0.02397,0.038 -0.04705,0.074 -0.06924,0.1094 l -0.525956,0.8309 -0.591138,-0.3741 1.661755,-2.6254 c 0.07013,-0.1108 0.130608,-0.211 0.181435,-0.3007 0.04994,-0.088 0.0886,-0.157 0.115978,-0.2065 l 0.572204,0.3622 m -0.701001,1.168 c -0.09498,0.1501 -0.159516,0.2831 -0.193608,0.399 -0.03497,0.1174 -0.04752,0.2194 -0.03764,0.3062 0.0076,0.087 0.03375,0.1608 0.07844,0.2206 0.04241,0.06 0.09377,0.1094 0.154074,0.1476 0.07574,0.048 0.152374,0.076 0.229917,0.084 0.07614,0.01 0.154524,-0.01 0.23514,-0.046 0.07922,-0.038 0.160412,-0.1 0.243585,-0.1847 0.08177,-0.086 0.166601,-0.198 0.254481,-0.3369 0.326671,-0.5161 0.335034,-0.8722 0.02509,-1.0684 -0.0589,-0.037 -0.125794,-0.062 -0.200677,-0.074 -0.07488,-0.012 -0.154547,0 -0.239001,0.029 -0.08445,0.031 -0.172657,0.088 -0.264622,0.1713 -0.09425,0.084 -0.189312,0.2014 -0.285185,0.3528"
             style="font-weight:bold;-inkscape-font-specification:'Liberation Sans Bold';fill:#547499;fill-opacity:1;stroke:none;stroke-width:0.62476206;stroke-miterlimit:4;stroke-dasharray:none"
             id="path4684"
             inkscape:connector-curvature="0" />
          <path
             d="m 45.256175,1016.0518 c 0.126109,-0.097 0.258804,-0.1632 0.398086,-0.1974 0.137973,-0.033 0.281278,-0.03 0.429915,0.011 0.147627,0.039 0.300137,0.1185 0.457531,0.2381 0.155069,0.1193 0.312753,0.2827 0.473052,0.4903 0.142039,0.1839 0.250917,0.3588 0.326634,0.5247 0.07572,0.1659 0.120454,0.3243 0.134208,0.4752 0.01274,0.1495 -0.0038,0.2924 -0.04971,0.4285 -0.04821,0.1358 -0.123399,0.2651 -0.225573,0.3881 l -0.526333,-0.49 c 0.04957,-0.064 0.0883,-0.1301 0.116191,-0.1999 0.0279,-0.07 0.0406,-0.1456 0.03811,-0.2276 -0.0048,-0.082 -0.02715,-0.1709 -0.06701,-0.266 -0.04218,-0.095 -0.106901,-0.1995 -0.194154,-0.3125 -0.152182,-0.197 -0.297905,-0.3246 -0.437169,-0.3827 -0.141589,-0.058 -0.276094,-0.038 -0.403516,0.06 -0.07619,0.059 -0.12235,0.128 -0.13849,0.2076 -0.01613,0.08 -0.01308,0.1664 0.0092,0.2603 0.02225,0.094 0.05786,0.1944 0.106848,0.3013 0.04899,0.1069 0.101676,0.2172 0.158062,0.3309 0.04248,0.093 0.08431,0.1866 0.125479,0.2806 0.04117,0.094 0.07586,0.1878 0.104076,0.2814 0.0272,0.092 0.0456,0.1839 0.05519,0.2751 0.0096,0.091 0.0046,0.181 -0.01511,0.2696 -0.02199,0.088 -0.06028,0.1745 -0.114862,0.2586 -0.0556,0.083 -0.13397,0.1632 -0.23512,0.2414 -0.137926,0.1065 -0.277456,0.1702 -0.418591,0.1911 -0.141129,0.021 -0.280103,0.01 -0.416923,-0.043 -0.139142,-0.05 -0.275414,-0.1312 -0.408816,-0.2442 -0.133395,-0.113 -0.261983,-0.2496 -0.385763,-0.4098 -0.140005,-0.1813 -0.245273,-0.3475 -0.315804,-0.4985 -0.07285,-0.1514 -0.11386,-0.2927 -0.123027,-0.4241 -0.01017,-0.1326 0.0095,-0.2579 0.05892,-0.3758 0.04713,-0.1182 0.120024,-0.2342 0.218669,-0.3482 l 0.512091,0.5042 c -0.09721,0.1212 -0.141541,0.2498 -0.132981,0.3858 0.0076,0.1347 0.07525,0.2848 0.203076,0.4503 0.07914,0.1025 0.154281,0.1808 0.225425,0.2349 0.06882,0.054 0.134064,0.089 0.195725,0.1068 0.06065,0.016 0.117933,0.017 0.171841,0 0.0526,-0.013 0.101231,-0.037 0.145891,-0.072 0.06831,-0.053 0.112113,-0.1128 0.131409,-0.1801 0.01799,-0.066 0.01926,-0.1407 0.0038,-0.2232 -0.01675,-0.081 -0.04607,-0.171 -0.08796,-0.2686 -0.04421,-0.098 -0.09385,-0.2044 -0.148931,-0.3191 -0.04857,-0.1009 -0.09532,-0.2022 -0.140248,-0.3038 -0.04624,-0.1006 -0.0855,-0.2003 -0.117773,-0.2991 -0.03227,-0.099 -0.05457,-0.1969 -0.06691,-0.2944 -0.01233,-0.097 -0.0084,-0.1927 0.01189,-0.286 0.01794,-0.094 0.05566,-0.1845 0.113164,-0.273 0.0565,-0.09 0.138605,-0.1763 0.246318,-0.2594"
             style="font-weight:bold;-inkscape-font-specification:'Liberation Sans Bold';fill:#547499;fill-opacity:1;stroke:none;stroke-width:0.62476206;stroke-miterlimit:4;stroke-dasharray:none"
             id="path4686"
             inkscape:connector-curvature="0" />
          <path
             d="m 42.482936,1014.7086 2.675841,-1.2187 0.304425,0.6683 -2.675841,1.2188 0.469537,1.0309 -0.516589,0.2353 -1.244531,-2.7325 0.516589,-0.2353 0.470569,1.0332"
             style="font-weight:bold;-inkscape-font-specification:'Liberation Sans Bold';fill:#547499;fill-opacity:1;stroke:none;stroke-width:0.62476206;stroke-miterlimit:4;stroke-dasharray:none"
             id="path4688"
             inkscape:connector-curvature="0" />
          <path
             d="m 44.242597,1009.9787 -0.823585,0.4711 0.246373,1.314 0.938285,0.1407 0.135344,0.7219 -3.683702,-0.6113 -0.159661,-0.8516 3.212978,-1.8993 0.133968,0.7145 m -2.263827,1.2604 c -0.05342,0.03 -0.106852,0.061 -0.160282,0.091 -0.05536,0.029 -0.105322,0.055 -0.149882,0.079 -0.04649,0.022 -0.08432,0.041 -0.113482,0.057 -0.02946,0.014 -0.04568,0.022 -0.04863,0.024 0.0052,8e-4 0.02407,0 0.05659,0 0.03253,0 0.07382,0.01 0.123881,0.012 0.04976,0 0.105837,0.01 0.168234,0.019 0.06047,0.01 0.12108,0.015 0.181845,0.024 l 1.054824,0.1543 -0.185812,-0.9911 -0.927279,0.526"
             style="font-weight:bold;-inkscape-font-specification:'Liberation Sans Bold';fill:#547499;fill-opacity:1;stroke:none;stroke-width:0.62476206;stroke-miterlimit:4;stroke-dasharray:none"
             id="path4690"
             inkscape:connector-curvature="0" />
          <path
             d="m 44.399817,1005.8675 -2.113249,-0.2342 c -0.08413,-0.01 -0.17065,-0.02 -0.259552,-0.031 -0.08872,-0.013 -0.170009,-0.025 -0.243882,-0.037 -0.08688,-0.015 -0.171384,-0.028 -0.253505,-0.041 0.126488,0.049 0.246558,0.096 0.36021,0.1401 0.04803,0.019 0.09762,0.038 0.148759,0.059 0.05115,0.021 0.100642,0.041 0.148485,0.062 0.04803,0.019 0.09276,0.037 0.134186,0.055 0.04143,0.018 0.07727,0.034 0.107514,0.047 l 1.875326,0.844 -0.05759,0.5197 -2.014636,0.413 c -0.03244,0.01 -0.07084,0.014 -0.115194,0.022 -0.04417,0.01 -0.09182,0.015 -0.142961,0.024 -0.05095,0.01 -0.103645,0.016 -0.158083,0.025 -0.05443,0.01 -0.107219,0.018 -0.158357,0.027 -0.120782,0.02 -0.248347,0.041 -0.382697,0.063 0.09623,0.01 0.190813,0.011 0.283741,0.016 0.07955,0.01 0.163228,0.011 0.251025,0.018 0.0878,0.01 0.16387,0.013 0.228205,0.02 l 2.11325,0.2342 -0.07185,0.6483 -3.486613,-0.3864 0.108322,-0.9774 2.019037,-0.4075 c 0.05297,-0.011 0.117577,-0.021 0.193823,-0.031 0.07643,-0.012 0.150295,-0.023 0.221592,-0.033 0.08303,-0.011 0.16954,-0.023 0.259532,-0.036 -0.08322,-0.033 -0.16324,-0.064 -0.240049,-0.094 -0.03354,-0.014 -0.06792,-0.028 -0.103114,-0.042 -0.0352,-0.014 -0.06957,-0.028 -0.103114,-0.041 -0.03355,-0.014 -0.06544,-0.027 -0.09569,-0.041 -0.03025,-0.013 -0.05729,-0.026 -0.08112,-0.037 l -1.894293,-0.8312 0.107774,-0.9725 3.486614,0.3864 -0.07185,0.6483"
             style="font-weight:bold;-inkscape-font-specification:'Liberation Sans Bold';fill:#547499;fill-opacity:1;stroke:none;stroke-width:0.62476206;stroke-miterlimit:4;stroke-dasharray:none"
             id="path4692"
             inkscape:connector-curvature="0" />
          <path
             d="m 43.615347,1000.9607 c 0.139217,0.059 0.263865,0.139 0.373944,0.2411 0.109195,0.1 0.193233,0.2191 0.252114,0.3573 0.05888,0.1382 0.08693,0.2941 0.08415,0.4676 -0.0043,0.1729 -0.04928,0.361 -0.134902,0.5645 l -0.337985,0.8032 1.138209,0.4789 -0.284873,0.677 -3.233337,-1.3606 0.611268,-1.4526 c 0.08691,-0.2065 0.187478,-0.3749 0.301694,-0.5051 0.112692,-0.1309 0.23509,-0.227 0.367195,-0.2885 0.132108,-0.061 0.270864,-0.089 0.416267,-0.084 0.14605,0 0.294802,0.038 0.446256,0.1013 m -0.27533,0.6864 c -0.166752,-0.07 -0.31421,-0.073 -0.442372,-0.01 -0.129045,0.063 -0.235736,0.1943 -0.320073,0.3947 l -0.294529,0.7 1.048712,0.4413 0.302254,-0.7183 c 0.04249,-0.101 0.06586,-0.1929 0.07011,-0.2757 0.0049,-0.084 -0.0064,-0.1603 -0.03386,-0.2277 -0.02682,-0.069 -0.0683,-0.1286 -0.124427,-0.1793 -0.05766,-0.051 -0.12626,-0.094 -0.205813,-0.1271"
             style="font-weight:bold;-inkscape-font-specification:'Liberation Sans Bold';fill:#547499;fill-opacity:1;stroke:none;stroke-width:0.62476206;stroke-miterlimit:4;stroke-dasharray:none"
             id="path4694"
             inkscape:connector-curvature="0" />
          <path
             d="m 46.112429,1001.4391 -2.784586,-2.13346 1.677733,-2.18972 0.450593,0.34523 -1.231044,1.60672 0.699605,0.53603 1.138678,-1.48617 0.450593,0.34524 -1.138678,1.48617 0.733202,0.56176 1.293127,-1.68774 0.450593,0.34524 -1.739816,2.2707"
             style="font-weight:bold;-inkscape-font-specification:'Liberation Sans Bold';fill:#547499;fill-opacity:1;stroke:none;stroke-width:0.62476206;stroke-miterlimit:4;stroke-dasharray:none"
             id="path4696"
             inkscape:connector-curvature="0" />
          <path
             d="m 49.6523,995.45831 c 0.177404,0.23209 0.298697,0.46319 0.36388,0.69331 0.06417,0.22881 0.08096,0.44892 0.05036,0.66033 -0.0306,0.21142 -0.105791,0.41096 -0.225572,0.59862 -0.118467,0.18666 -0.273301,0.35306 -0.464505,0.49922 l -1.127452,0.86183 -2.130378,-2.78698 1.008773,-0.77111 c 0.21626,-0.16531 0.435381,-0.28998 0.657364,-0.37401 0.221984,-0.084 0.441088,-0.11989 0.657314,-0.1076 0.216225,0.0123 0.426624,0.0771 0.631197,0.1944 0.204571,0.11731 0.397576,0.29464 0.579015,0.53199 m -0.587462,0.44906 c -0.123983,-0.16219 -0.252742,-0.28417 -0.386279,-0.36595 -0.132219,-0.0828 -0.266111,-0.13084 -0.401677,-0.14421 -0.136575,-0.0147 -0.273854,0.003 -0.411836,0.0516 -0.136664,0.0481 -0.271588,0.123 -0.404773,0.2248 l -0.413399,0.316 1.440916,1.88502 0.494496,-0.37799 c 0.117359,-0.0897 0.209865,-0.1928 0.277518,-0.30928 0.06897,-0.11749 0.108974,-0.24417 0.120014,-0.38005 0.01135,-0.1382 -0.0084,-0.28292 -0.05925,-0.43417 -0.04953,-0.15225 -0.134774,-0.3075 -0.255732,-0.46574"
             style="font-weight:bold;-inkscape-font-specification:'Liberation Sans Bold';fill:#547499;fill-opacity:1;stroke:none;stroke-width:0.62476206;stroke-miterlimit:4;stroke-dasharray:none"
             id="path4698"
             inkscape:connector-curvature="0" />
          <path
             d="m 54.217997,996.70798 -1.185221,-4.67974 0.632331,-0.16014 1.185221,4.67973 -0.632331,0.16015"
             style="font-weight:bold;-inkscape-font-specification:'Liberation Sans Bold';fill:#547499;fill-opacity:1;stroke:none;stroke-width:0.62476206;stroke-miterlimit:4;stroke-dasharray:none"
             id="path4700"
             inkscape:connector-curvature="0" />
          <path
             d="m 56.687805,995.09466 0.09477,-3.50668 0.734187,0.0199 -0.07943,2.93924 1.881511,0.0508 -0.01534,0.56744 -2.615699,-0.0707"
             style="font-weight:bold;-inkscape-font-specification:'Liberation Sans Bold';fill:#547499;fill-opacity:1;stroke:none;stroke-width:0.62476206;stroke-miterlimit:4;stroke-dasharray:none"
             id="path4702"
             inkscape:connector-curvature="0" />
          <path
             d="m 59.810404,995.24407 0.939605,-3.37978 2.65777,0.73888 -0.152044,0.5469 -1.950151,-0.54215 -0.236068,0.84914 1.803829,0.50148 -0.152044,0.5469 -1.803829,-0.50147 -0.247405,0.88992 2.048498,0.5695 -0.152044,0.5469 -2.756117,-0.76622"
             style="font-weight:bold;-inkscape-font-specification:'Liberation Sans Bold';fill:#547499;fill-opacity:1;stroke:none;stroke-width:0.62476206;stroke-miterlimit:4;stroke-dasharray:none"
             id="path4704"
             inkscape:connector-curvature="0" />
          <path
             d="m 64.786044,996.63794 c 0.09064,0.0554 0.182072,0.10153 0.274291,0.13843 0.09221,0.0369 0.180654,0.0657 0.265319,0.0863 0.08694,0.0201 0.167826,0.0325 0.242655,0.0374 0.07711,0.004 0.144024,10e-4 0.200755,-0.009 l 0.253135,-0.41427 -0.730818,-0.44656 0.282992,-0.46313 1.304425,0.79705 -0.67243,1.10047 c -0.110392,0.0279 -0.233212,0.0442 -0.368462,0.0491 -0.134391,0.003 -0.27649,-0.008 -0.426298,-0.0329 -0.148948,-0.0268 -0.303599,-0.0698 -0.463952,-0.12886 -0.158942,-0.0582 -0.318433,-0.13622 -0.478475,-0.23401 -0.264852,-0.16183 -0.469512,-0.33941 -0.613981,-0.53272 -0.143605,-0.19473 -0.235044,-0.39843 -0.274317,-0.6111 -0.03841,-0.21409 -0.02937,-0.4342 0.02711,-0.66034 0.0579,-0.22526 0.155645,-0.45049 0.293248,-0.67569 0.142792,-0.23369 0.302898,-0.42568 0.480318,-0.57597 0.177416,-0.15029 0.369393,-0.25279 0.575931,-0.30748 0.208815,-0.0553 0.43046,-0.0599 0.664936,-0.0138 0.236752,0.0455 0.484722,0.14739 0.74391,0.30576 0.188366,0.1151 0.344241,0.23563 0.467624,0.36159 0.124792,0.12683 0.220948,0.25755 0.288468,0.39217 0.06893,0.13549 0.110794,0.27389 0.125598,0.4152 0.01708,0.14076 0.01122,0.28404 -0.01756,0.42983 l -0.684302,-0.17888 c 0.01258,-0.0779 0.0145,-0.15744 0.0058,-0.23864 -0.0079,-0.0826 -0.03113,-0.16393 -0.06976,-0.24395 -0.03636,-0.0806 -0.08896,-0.15842 -0.157809,-0.23356 -0.06657,-0.0757 -0.152968,-0.14598 -0.259188,-0.21089 -0.155797,-0.0952 -0.305492,-0.15262 -0.449084,-0.17228 -0.142732,-0.0211 -0.278614,-0.009 -0.407646,0.0368 -0.129037,0.0457 -0.250202,0.12138 -0.363496,0.22721 -0.112432,0.10442 -0.216677,0.23524 -0.312737,0.39244 -0.0952,0.1558 -0.164901,0.30967 -0.20911,0.4616 -0.04279,0.1528 -0.05593,0.29844 -0.03939,0.43692 0.01795,0.13934 0.06756,0.26984 0.148848,0.39147 0.08128,0.12164 0.199114,0.22962 0.353494,0.32395"
             style="font-weight:bold;-inkscape-font-specification:'Liberation Sans Bold';fill:#547499;fill-opacity:1;stroke:none;stroke-width:0.62476206;stroke-miterlimit:4;stroke-dasharray:none"
             id="path4706"
             inkscape:connector-curvature="0" />
          <path
             d="m 68.084285,1000.2281 0.45468,-0.83275 -0.898355,-0.99016 -0.872908,0.37177 -0.49351,-0.54395 3.457894,-1.40938 0.582174,0.64167 -1.741484,3.3012 -0.488491,-0.5384 m 1.26784,-2.25966 c 0.02964,-0.0538 0.05928,-0.10757 0.08892,-0.16136 0.03198,-0.0537 0.06078,-0.10221 0.08639,-0.14561 0.02795,-0.0433 0.05026,-0.0792 0.06693,-0.10779 0.01778,-0.0273 0.02734,-0.0427 0.02868,-0.0462 -0.0048,0.002 -0.02167,0.0107 -0.0506,0.0257 -0.02894,0.015 -0.06624,0.0332 -0.111927,0.0545 -0.04457,0.0225 -0.09568,0.0465 -0.15331,0.0719 -0.0553,0.0255 -0.111144,0.0504 -0.167548,0.0747 l -0.979303,0.42123 0.67753,0.74677 0.514233,-0.93383"
             style="font-weight:bold;-inkscape-font-specification:'Liberation Sans Bold';fill:#547499;fill-opacity:1;stroke:none;stroke-width:0.62476206;stroke-miterlimit:4;stroke-dasharray:none"
             id="path4708"
             inkscape:connector-curvature="0" />
          <path
             d="m 68.801195,1001.2071 3.101976,-1.63818 0.342976,0.64948 -2.600024,1.373 0.878948,1.6644 -0.501952,0.2651 -1.221924,-2.3138"
             style="font-weight:bold;-inkscape-font-specification:'Liberation Sans Bold';fill:#547499;fill-opacity:1;stroke:none;stroke-width:0.62476206;stroke-miterlimit:4;stroke-dasharray:none"
             id="path4710"
             inkscape:connector-curvature="0" />
          <path
             d="m 69.413413,1005.5753 4.719938,-1.0133 0.136922,0.6378 -4.719937,1.0133 -0.136923,-0.6378"
             style="font-weight:bold;-inkscape-font-specification:'Liberation Sans Bold';fill:#547499;fill-opacity:1;stroke:none;stroke-width:0.62476206;stroke-miterlimit:4;stroke-dasharray:none"
             id="path4712"
             inkscape:connector-curvature="0" />
        </g>
      </g>
    </g>
  </g>
</svg>
