<?xml version="1.0" encoding="UTF-8" standalone="no"?>
<svg
   xmlns:dc="http://purl.org/dc/elements/1.1/"
   xmlns:cc="http://creativecommons.org/ns#"
   xmlns:rdf="http://www.w3.org/1999/02/22-rdf-syntax-ns#"
   xmlns:svg="http://www.w3.org/2000/svg"
   xmlns="http://www.w3.org/2000/svg"
   xmlns:xlink="http://www.w3.org/1999/xlink"
   xmlns:sodipodi="http://sodipodi.sourceforge.net/DTD/sodipodi-0.dtd"
   xmlns:inkscape="http://www.inkscape.org/namespaces/inkscape"
   width="128"
   height="128"
   version="1.1"
   id="svg29"
   sodipodi:docname="fingerprint-gui.svg"
   inkscape:version="0.92.3 (2405546, 2018-03-11)">
  <metadata
     id="metadata33">
    <rdf:RDF>
      <cc:Work
         rdf:about="">
        <dc:format>image/svg+xml</dc:format>
        <dc:type
           rdf:resource="http://purl.org/dc/dcmitype/StillImage" />
        <dc:title></dc:title>
      </cc:Work>
    </rdf:RDF>
  </metadata>
  <sodipodi:namedview
     pagecolor="#ffffff"
     bordercolor="#666666"
     borderopacity="1"
     objecttolerance="10"
     gridtolerance="10"
     guidetolerance="10"
     inkscape:pageopacity="0"
     inkscape:pageshadow="2"
     inkscape:window-width="1600"
     inkscape:window-height="837"
     id="namedview31"
     showgrid="false"
     inkscape:zoom="1.3037281"
     inkscape:cx="149.10709"
     inkscape:cy="3.5941062"
     inkscape:window-x="0"
     inkscape:window-y="30"
     inkscape:window-maximized="1"
     inkscape:current-layer="svg29" />
  <defs
     id="defs19">
    <linearGradient
       id="a"
       x1="388.73001"
       x2="428.41"
       y1="503.98999"
       y2="543.92999"
       gradientTransform="matrix(2.7985074,0,0,2.7985074,-1057.4888,-1436.7521)"
       gradientUnits="userSpaceOnUse">
      <stop
         stop-color="#3f3f3f"
         offset="0"
         id="stop2" />
      <stop
         stop-color="#de7d9c"
         offset=".11"
         id="stop4" />
      <stop
         stop-color="#cc3d8a"
         offset=".449"
         id="stop6" />
      <stop
         stop-color="#5f2b76"
         offset=".934"
         id="stop8" />
      <stop
         stop-color="#3f3f3f"
         stop-opacity="0"
         offset="1"
         id="stop10" />
    </linearGradient>
    <linearGradient
       inkscape:collect="always"
       xlink:href="#a"
       id="linearGradient867"
       gradientUnits="userSpaceOnUse"
       gradientTransform="matrix(2.9448164,0,0,2.9448164,-1116.2471,-1517.4801)"
       x1="388.73001"
       y1="503.98999"
       x2="428.41"
       y2="543.92999" />
  </defs>
  <g
     id="g879"
     transform="matrix(0.99774648,0,0,0.99774648,1.3684089,-1.7903428)">
    <rect
       x="29.030088"
       y="-32.149406"
       width="117.79266"
       height="117.79266"
       rx="58.896328"
       id="rect873"
       style="opacity:0.25;fill:#000000;stroke:none;stroke-width:0.75590551;stroke-miterlimit:4;stroke-dasharray:none;stroke-opacity:1"
       transform="rotate(30)" />
    <rect
       transform="rotate(30)"
       style="opacity:1;fill:url(#linearGradient867);stroke:#632866;stroke-width:0.75590551;stroke-miterlimit:4;stroke-dasharray:none;stroke-opacity:1"
       id="rect23"
       rx="58.896328"
       height="117.79266"
       width="117.79266"
       y="-33.881458"
       x="28.030088" />
    <path
       d="m 62.133045,27.134663 c -7.921556,-0.03617 -14.713284,1.435951 -20.890528,4.528342 -2.056071,1.029449 -2.37627,1.388619 -2.243164,2.499953 0.271845,2.268294 1.443038,2.488566 4.911953,0.93176 6.448756,-2.89397 9.588323,-3.511203 17.722494,-3.520038 9.335462,-0.0077 12.773436,0.793903 20.429174,4.758431 1.315429,0.680213 5.477947,3.893047 7.032222,2.166403 C 90.634589,36.9602 89.823155,35.688 85.859038,33.434234 78.04114,28.989524 71.208381,27.177284 62.131671,27.134289 Z m -0.241573,9.167999 c -10.451743,-0.0079 -20.894454,4.123332 -28.554904,12.396695 -2.963074,3.200427 -6.418718,8.446126 -6.418718,9.74322 0,1.512281 0.621651,2.346626 1.752323,2.346626 0.886272,0 1.788093,-0.958067 3.934078,-4.183407 4.799463,-7.213229 11.021663,-11.998556 19.037847,-14.64359 6.2169,-2.029174 13.498842,-1.794179 20.493958,0 9.033127,2.96916 16.782706,9.58577 21.027953,17.952583 0.923769,1.820564 1.476335,2.373522 2.381179,2.373522 1.558299,0 2.473253,-1.159649 2.047628,-2.599684 C 96.906439,57.365952 93.244697,51.739782 90.472251,48.745297 82.801986,40.46035 72.342389,36.310514 61.889862,36.302662 Z m 0.494631,9.106746 c -2.227655,-0.03869 -4.486134,0.172056 -6.744611,0.644169 -10.732678,2.243557 -19.704749,10.933711 -22.576927,21.872133 -1.523923,5.804234 -0.82337,15.285168 1.690973,22.867482 0.751439,2.266134 1.116125,2.738875 2.1933,2.864325 2.47659,0.287826 2.716494,-0.890867 1.234682,-6.016261 -4.240339,-14.665578 -0.589749,-27.143355 9.927173,-33.945881 10.39795,-6.726156 24.70112,-4.735657 32.83863,4.566822 5.099244,5.829362 7.896231,15.689589 5.671128,19.99334 -1.469975,2.84273 -5.05095,4.55308 -7.990859,3.815304 -2.148341,-0.539195 -4.693251,-3.181382 -5.019145,-5.207023 -1.150441,-7.148445 -2.776176,-9.94602 -6.88655,-11.859759 -3.506296,-1.632566 -6.428928,-1.585567 -9.869651,0.157214 -3.206121,1.623949 -5.660526,4.899783 -6.158004,8.21702 -0.179457,1.195439 -0.102502,3.784286 0.176375,5.747693 1.734555,12.230018 10.484724,21.905514 22.500361,24.881744 1.511103,0.37414 3.983551,0.63849 5.494634,0.58666 l 2.749281,-0.0921 c 1.55294,-0.78832 1.637946,-2.60264 0,-3.49688 l -3.88814,-0.59432 C 72.835058,99.665414 70.808632,99.022502 67.444866,97.128827 60.129941,93.010795 54.887186,84.084075 54.887186,75.74357 c 0,-3.675131 1.391505,-5.821902 4.635731,-7.166506 2.34427,-0.971553 2.379804,-0.971553 4.723878,0 2.966805,1.22952 4.394844,3.285237 4.762357,6.84827 0.674893,6.538866 5.212522,10.843598 11.434133,10.843598 4.993232,0 9.196073,-3.240279 10.686543,-8.236258 C 92.588534,73.143297 90.630289,64.930793 86.517067,58.684248 81.06582,50.40578 72.040546,45.577262 62.387242,45.409604 Z m -0.322085,9.470922 c -3.10894,0.03934 -6.306226,0.613013 -8.926524,1.633451 -4.040091,1.978721 -7.889948,5.930271 -9.881233,10.134292 -1.515246,3.198855 -1.603728,3.698885 -1.602785,9.129716 0.0012,6.681396 0.807764,10.230881 3.684948,16.231042 2.479142,5.170116 5.913779,9.679419 9.731636,12.768529 3.309189,2.67763 3.6608,2.80563 5.038384,1.79834 1.410331,-1.03119 0.625637,-2.80013 -2.223924,-4.98479 -3.089702,-2.368612 -6.428732,-6.653322 -8.681124,-11.146522 -3.699671,-7.380299 -4.631803,-16.503733 -2.220195,-21.724892 1.75032,-3.789979 4.419188,-6.615039 7.822218,-8.286125 4.088387,-2.007776 10.060474,-2.007776 14.148861,0 4.879758,2.396296 8.001852,6.759924 9.106747,12.745558 0.659403,3.573044 1.655694,4.758627 3.178635,3.776825 0.705735,-0.454914 0.859396,-1.212969 0.793726,-3.934078 C 81.873838,66.406833 77.24119,59.76745 70.468898,56.44177 68.195499,55.33558 65.172939,54.841851 62.063999,54.881175 Z m -0.023,18.07921 c -0.360622,-0.0073 -0.767694,0.108998 -1.223179,0.35277 -0.956319,0.511966 -1.034907,0.876691 -0.801382,3.638811 0.738678,8.739626 7.315513,16.26324 15.851358,18.12515 3.786052,0.825608 4.799658,0.806152 5.70941,-0.103461 1.816893,-1.816892 0.603687,-3.265016 -3.167248,-3.780752 C 70.702602,90.138009 64.974148,84.256426 64.057918,76.460318 63.7846,74.135092 63.122879,72.981312 62.041111,72.959521 Z"
       id="path857"
       inkscape:connector-curvature="0"
       style="opacity:0.25;fill:#000000;stroke-width:1.96321106" />
    <path
       style="fill:#ffffff;stroke-width:1.96321106"
       inkscape:connector-curvature="0"
       id="path27"
       d="m 62.133045,25.030101 c -7.921556,-0.03617 -14.713284,1.435951 -20.890528,4.528342 -2.056071,1.029449 -2.37627,1.388618 -2.243164,2.499953 0.271845,2.268294 1.443038,2.488565 4.911953,0.93176 6.448756,-2.89397 9.588323,-3.511203 17.722494,-3.520038 9.335462,-0.0077 12.773436,0.793903 20.429174,4.758431 1.315429,0.680213 5.477947,3.893047 7.032222,2.166403 1.539393,-1.539314 0.727959,-2.811514 -3.236158,-5.06528 -7.817898,-4.44471 -14.650657,-6.25695 -23.727367,-6.299945 z M 61.891472,34.1981 c -10.451743,-0.0079 -20.894454,4.123332 -28.554904,12.396695 -2.963074,3.200427 -6.418718,8.446126 -6.418718,9.74322 0,1.512281 0.621651,2.346626 1.752323,2.346626 0.886272,0 1.788093,-0.958067 3.934078,-4.183407 4.799463,-7.213229 11.021663,-11.998556 19.037847,-14.64359 6.2169,-2.029174 13.498842,-1.794179 20.493958,0 9.033127,2.96916 16.782706,9.58577 21.027953,17.952583 0.923769,1.820564 1.476335,2.373522 2.381179,2.373522 1.558299,0 2.473253,-1.15965 2.047628,-2.599685 C 96.906439,55.26139 93.244697,49.63522 90.472251,46.640734 82.801986,38.355788 72.342389,34.205952 61.889862,34.1981 Z m 0.494631,9.106746 c -2.227655,-0.03869 -4.486134,0.172056 -6.744611,0.644169 -10.732678,2.243557 -19.704749,10.933711 -22.576927,21.872133 -1.523923,5.804233 -0.82337,15.285168 1.690973,22.867482 0.751439,2.266133 1.116125,2.738875 2.1933,2.864325 2.47659,0.287826 2.716494,-0.890867 1.234682,-6.016261 -4.240339,-14.665578 -0.589749,-27.143355 9.927173,-33.945881 10.39795,-6.726156 24.70112,-4.735657 32.83863,4.566822 5.099244,5.829362 7.896231,15.689589 5.671128,19.99334 -1.469975,2.84273 -5.05095,4.553079 -7.990859,3.815304 -2.148341,-0.539195 -4.693251,-3.181382 -5.019145,-5.207024 -1.150441,-7.148444 -2.776176,-9.94602 -6.88655,-11.859758 -3.506296,-1.632567 -6.428928,-1.585568 -9.869651,0.157214 -3.206121,1.623949 -5.660526,4.899783 -6.158004,8.21702 -0.179457,1.195439 -0.102502,3.784286 0.176375,5.747693 1.734555,12.230018 10.484724,21.905509 22.500361,24.881736 1.511103,0.37415 3.983551,0.6385 5.494634,0.58667 l 2.749281,-0.0921 c 1.55294,-0.78832 1.637946,-2.602642 0,-3.496881 l -3.88814,-0.594322 C 72.835058,97.56085 70.808632,96.917938 67.444866,95.024265 60.129941,90.906233 54.887186,81.979513 54.887186,73.639008 c 0,-3.675131 1.391505,-5.821902 4.635731,-7.166506 2.34427,-0.971553 2.379804,-0.971553 4.723878,0 2.966805,1.22952 4.394844,3.285237 4.762357,6.848269 0.674893,6.538867 5.212522,10.843599 11.434133,10.843599 4.993232,0 9.196073,-3.240279 10.686543,-8.236259 C 92.588534,71.038735 90.630289,62.826231 86.517067,56.579686 81.06582,48.301218 72.040546,43.4727 62.387242,43.305042 Z m -0.322085,9.470922 c -3.10894,0.03934 -6.306226,0.613013 -8.926524,1.633451 -4.040091,1.978721 -7.889948,5.930271 -9.881233,10.134292 -1.515246,3.198855 -1.603728,3.698884 -1.602785,9.129716 0.0012,6.681395 0.807764,10.230881 3.684948,16.231042 2.479142,5.170116 5.913779,9.679414 9.731636,12.768531 3.309189,2.67763 3.6608,2.80562 5.038384,1.79834 1.410331,-1.03119 0.625637,-2.80013 -2.223924,-4.984793 -3.089702,-2.368612 -6.428732,-6.653321 -8.681124,-11.146521 -3.699671,-7.380299 -4.631803,-16.503733 -2.220195,-21.724893 1.75032,-3.789978 4.419188,-6.615039 7.822218,-8.286124 4.088387,-2.007777 10.060474,-2.007777 14.148861,0 4.879758,2.396295 8.001852,6.759924 9.106747,12.745558 0.659403,3.573044 1.655694,4.758627 3.178635,3.776825 0.705735,-0.454915 0.859396,-1.212969 0.793726,-3.934078 -0.15955,-6.614843 -4.792198,-13.254226 -11.56449,-16.579906 -2.273399,-1.106191 -5.295959,-1.599919 -8.404899,-1.560595 z m -0.023,18.07921 c -0.360622,-0.0073 -0.767694,0.108997 -1.223179,0.35277 -0.956319,0.511966 -1.034907,0.876691 -0.801382,3.638811 0.738678,8.739626 7.315513,16.26324 15.851358,18.125149 3.786052,0.825609 4.799658,0.806153 5.70941,-0.10346 1.816893,-1.816893 0.603687,-3.265017 -3.167248,-3.780752 C 70.702599,88.033447 64.974145,82.151864 64.057915,74.355756 63.784597,72.03053 63.122876,70.87675 62.041108,70.854959 Z" />
  </g>
</svg>
