<?xml version="1.0" encoding="UTF-8" standalone="no"?>
<!-- Created with Inkscape (http://www.inkscape.org/) -->

<svg
   xmlns:dc="http://purl.org/dc/elements/1.1/"
   xmlns:cc="http://creativecommons.org/ns#"
   xmlns:rdf="http://www.w3.org/1999/02/22-rdf-syntax-ns#"
   xmlns:svg="http://www.w3.org/2000/svg"
   xmlns="http://www.w3.org/2000/svg"
   xmlns:sodipodi="http://sodipodi.sourceforge.net/DTD/sodipodi-0.dtd"
   xmlns:inkscape="http://www.inkscape.org/namespaces/inkscape"
   width="128"
   height="128"
   viewBox="0 0 33.866666 33.866668"
   version="1.1"
   id="svg8"
   sodipodi:docname="firefox.svg"
   inkscape:version="0.92.4 (5da689c313, 2019-01-14)">
  <defs
     id="defs2">
    <linearGradient
       id="linearGradient-5"
       y2="54.577919"
       x2="43.477051"
       y1="11.036161"
       x1="41.09383"
       gradientUnits="userSpaceOnUse"
       gradientTransform="matrix(0.44613573,0,0,0.44613573,-0.80056855,261.06872)">
      <stop
         id="stop1087"
         offset="0%"
         stop-color="#01A2FC"
         style="stop-color:#0098ff;stop-opacity:1" />
      <stop
         id="stop1089"
         offset="100%"
         stop-color="#441A7E"
         style="stop-color:#2942a8;stop-opacity:1" />
    </linearGradient>
    <radialGradient
       gradientUnits="userSpaceOnUse"
       gradientTransform="matrix(0.762,0.034,0.05,-1.12,11426.936,11262.421)"
       fy="9397.75"
       fx="-14403.608"
       r="450.875"
       cy="9397.75"
       cx="-14374.85"
       id="c">
      <stop
         id="stop2249"
         stop-color="#ffea00"
         offset=".045" />
      <stop
         id="stop2251"
         stop-color="#ffde00"
         offset=".12" />
      <stop
         id="stop2253"
         stop-color="#ffbf00"
         offset=".254" />
      <stop
         id="stop2255"
         stop-color="#ff8e00"
         offset=".429" />
      <stop
         id="stop2257"
         stop-color="#ff272d"
         offset=".769" />
      <stop
         id="stop2259"
         stop-color="#e0255a"
         offset=".872" />
      <stop
         id="stop2261"
         stop-color="#cc2477"
         offset=".953" />
      <stop
         id="stop2263"
         stop-color="#c42482"
         offset="1" />
    </radialGradient>
    <linearGradient
       gradientUnits="userSpaceOnUse"
       gradientTransform="matrix(1,0,0,-1,0,1026)"
       y2="921.034"
       y1="294.806"
       x2="384.211"
       x1="575.649"
       id="d">
      <stop
         id="stop2266"
         stop-opacity=".4"
         stop-color="#000f43"
         offset="0" />
      <stop
         id="stop2268"
         stop-opacity=".173"
         stop-color="#001962"
         offset=".485" />
      <stop
         id="stop2270"
         stop-opacity="0"
         stop-color="#002079"
         offset="1" />
    </linearGradient>
    <radialGradient
       gradientUnits="userSpaceOnUse"
       gradientTransform="matrix(1.219,0.123,0.123,-1.219,10197.618,10946.078)"
       r="266.886"
       cy="7620.007"
       cx="-8291.357"
       id="e">
      <stop
         id="stop2273"
         stop-color="#ffea00"
         offset=".003" />
      <stop
         id="stop2275"
         stop-color="#ff272d"
         offset=".497" />
      <stop
         id="stop2277"
         stop-color="#c42482"
         offset="1" />
    </radialGradient>
    <radialGradient
       gradientUnits="userSpaceOnUse"
       gradientTransform="matrix(1.219,0.123,0.123,-1.219,10197.618,10946.078)"
       r="445.678"
       cy="7875.919"
       cx="-8315.504"
       id="f">
      <stop
         id="stop2280"
         stop-color="#ffe900"
         offset=".003" />
      <stop
         id="stop2282"
         stop-color="#ffaf0e"
         offset=".157" />
      <stop
         id="stop2284"
         stop-color="#ff7a1b"
         offset=".316" />
      <stop
         id="stop2286"
         stop-color="#ff4e26"
         offset=".472" />
      <stop
         id="stop2288"
         stop-color="#ff2c2e"
         offset=".621" />
      <stop
         id="stop2290"
         stop-color="#ff1434"
         offset=".762" />
      <stop
         id="stop2292"
         stop-color="#ff0538"
         offset=".892" />
      <stop
         id="stop2294"
         stop-color="#ff0039"
         offset="1" />
    </radialGradient>
    <radialGradient
       gradientUnits="userSpaceOnUse"
       gradientTransform="matrix(1.219,0.123,0.123,-1.219,10197.618,10946.078)"
       r="408.958"
       cy="7462.783"
       cx="-8252.468"
       id="g">
      <stop
         id="stop2297"
         stop-color="#ff272d"
         offset=".003" />
      <stop
         id="stop2299"
         stop-color="#c42482"
         offset=".497" />
      <stop
         id="stop2301"
         stop-color="#620700"
         offset=".986" />
    </radialGradient>
    <radialGradient
       gradientUnits="userSpaceOnUse"
       gradientTransform="matrix(1,0,0,-1,0,1026)"
       fy="616.13"
       fx="778.167"
       r="782.18"
       cy="629.959"
       cx="750.189"
       id="h">
      <stop
         id="stop2304"
         stop-color="#ffea00"
         offset=".156" />
      <stop
         id="stop2306"
         stop-color="#ffde00"
         offset=".231" />
      <stop
         id="stop2308"
         stop-color="#ffbf00"
         offset=".365" />
      <stop
         id="stop2310"
         stop-color="#ff8e00"
         offset=".541" />
      <stop
         id="stop2312"
         stop-color="#ff272d"
         offset=".763" />
      <stop
         id="stop2314"
         stop-color="#f92433"
         offset=".796" />
      <stop
         id="stop2316"
         stop-color="#e91c45"
         offset=".841" />
      <stop
         id="stop2318"
         stop-color="#cf0e62"
         offset=".893" />
      <stop
         id="stop2320"
         stop-color="#b5007f"
         offset=".935" />
    </radialGradient>
    <radialGradient
       gradientUnits="userSpaceOnUse"
       gradientTransform="matrix(1,0,0,-1,0,1026)"
       r="923.615"
       cy="1022.711"
       cx="691.339"
       id="i">
      <stop
         id="stop2323"
         stop-color="#ffea00"
         offset=".279" />
      <stop
         id="stop2325"
         stop-color="#ffdd00"
         offset=".402" />
      <stop
         id="stop2327"
         stop-color="#ffba00"
         offset=".63" />
      <stop
         id="stop2329"
         stop-color="#ff9100"
         offset=".856" />
      <stop
         id="stop2331"
         stop-color="#ff6711"
         offset=".933" />
      <stop
         id="stop2333"
         stop-color="#ff4a1d"
         offset=".994" />
    </radialGradient>
    <linearGradient
       gradientUnits="userSpaceOnUse"
       gradientTransform="matrix(1.219,0.123,0.123,-1.219,10197.618,10946.078)"
       y2="7849.544"
       y1="7777.06"
       x2="-8689.652"
       x1="-8974.014"
       id="j">
      <stop
         id="stop2336"
         stop-opacity=".5"
         stop-color="#c42482"
         offset="0" />
      <stop
         id="stop2338"
         stop-opacity=".5"
         stop-color="#ff272d"
         offset=".474" />
      <stop
         id="stop2340"
         stop-opacity=".513"
         stop-color="#ff2c2c"
         offset=".486" />
      <stop
         id="stop2342"
         stop-opacity=".72"
         stop-color="#ff7a1a"
         offset=".675" />
      <stop
         id="stop2344"
         stop-opacity=".871"
         stop-color="#ffb20d"
         offset=".829" />
      <stop
         id="stop2346"
         stop-opacity=".964"
         stop-color="#ffd605"
         offset=".942" />
      <stop
         id="stop2348"
         stop-color="#ffe302"
         offset="1" />
    </linearGradient>
    <linearGradient
       gradientUnits="userSpaceOnUse"
       gradientTransform="matrix(0.995,0.1,0.1,-0.995,-306.431,2362.076)"
       y2="2278.032"
       y1="2138.185"
       x2="218.114"
       x1="272.686"
       id="k">
      <stop
         id="stop2351"
         stop-opacity=".6"
         stop-color="#891551"
         offset="0" />
      <stop
         id="stop2353"
         stop-opacity="0"
         stop-color="#c42482"
         offset="1" />
    </linearGradient>
    <linearGradient
       gradientUnits="userSpaceOnUse"
       gradientTransform="matrix(0.995,0.1,0.1,-0.995,172.704,801.664)"
       y2="230.39"
       y1="337.277"
       x2="143.363"
       x1="49.255"
       id="l">
      <stop
         id="stop2356"
         stop-opacity=".5"
         stop-color="#891551"
         offset=".005" />
      <stop
         id="stop2358"
         stop-opacity=".5"
         stop-color="#ff272d"
         offset=".484" />
      <stop
         id="stop2360"
         stop-opacity="0"
         stop-color="#ff272d"
         offset="1" />
    </linearGradient>
    <linearGradient
       gradientUnits="userSpaceOnUse"
       gradientTransform="matrix(0.995,0.1,0.1,-0.995,172.704,801.664)"
       y2="226.306"
       y1="151.525"
       x2="227.344"
       x1="227.277"
       id="m">
      <stop
         id="stop2363"
         stop-color="#c42482"
         offset="0" />
      <stop
         id="stop2365"
         stop-opacity=".81"
         stop-color="#c42482"
         offset=".083" />
      <stop
         id="stop2367"
         stop-opacity=".565"
         stop-color="#c42482"
         offset=".206" />
      <stop
         id="stop2369"
         stop-opacity=".362"
         stop-color="#c42482"
         offset=".328" />
      <stop
         id="stop2371"
         stop-opacity=".204"
         stop-color="#c42482"
         offset=".447" />
      <stop
         id="stop2373"
         stop-opacity=".091"
         stop-color="#c42482"
         offset=".562" />
      <stop
         id="stop2375"
         stop-opacity=".023"
         stop-color="#c42482"
         offset=".673" />
      <stop
         id="stop2377"
         stop-opacity="0"
         stop-color="#c42482"
         offset=".773" />
    </linearGradient>
    <linearGradient
       gradientUnits="userSpaceOnUse"
       gradientTransform="matrix(1,0,0,-1,0,1026)"
       y2="304.385"
       y1="987.88"
       x2="961.187"
       x1="655.531"
       id="n">
      <stop
         id="stop2380"
         stop-color="#fff14f"
         offset="0" />
      <stop
         id="stop2382"
         stop-color="#ffee4c"
         offset=".268" />
      <stop
         id="stop2384"
         stop-color="#ffe643"
         offset=".452" />
      <stop
         id="stop2386"
         stop-color="#ffd834"
         offset=".612" />
      <stop
         id="stop2388"
         stop-color="#ffc41e"
         offset=".757" />
      <stop
         id="stop2390"
         stop-color="#ffab02"
         offset=".892" />
      <stop
         id="stop2392"
         stop-color="#ffa900"
         offset=".902" />
      <stop
         id="stop2394"
         stop-color="#ffa000"
         offset=".949" />
      <stop
         id="stop2396"
         stop-color="#ff9100"
         offset="1" />
    </linearGradient>
    <linearGradient
       gradientUnits="userSpaceOnUse"
       gradientTransform="matrix(1,0,0,-1,0,1026)"
       y2="206.04"
       y1="594.79"
       x2="571.098"
       x1="715.885"
       id="o">
      <stop
         id="stop2399"
         stop-color="#ff8e00"
         offset="0" />
      <stop
         id="stop2401"
         stop-opacity=".858"
         stop-color="#ff8e00"
         offset=".04" />
      <stop
         id="stop2403"
         stop-opacity=".729"
         stop-color="#ff8e00"
         offset=".084" />
      <stop
         id="stop2405"
         stop-opacity=".628"
         stop-color="#ff8e00"
         offset=".13" />
      <stop
         id="stop2407"
         stop-opacity=".557"
         stop-color="#ff8e00"
         offset=".178" />
      <stop
         id="stop2409"
         stop-opacity=".514"
         stop-color="#ff8e00"
         offset=".227" />
      <stop
         id="stop2411"
         stop-opacity=".5"
         stop-color="#ff8e00"
         offset=".282" />
      <stop
         id="stop2413"
         stop-opacity=".478"
         stop-color="#ff8e00"
         offset=".389" />
      <stop
         id="stop2415"
         stop-opacity=".416"
         stop-color="#ff8e00"
         offset=".524" />
      <stop
         id="stop2417"
         stop-opacity=".314"
         stop-color="#ff8e00"
         offset=".676" />
      <stop
         id="stop2419"
         stop-opacity=".172"
         stop-color="#ff8e00"
         offset=".838" />
      <stop
         id="stop2421"
         stop-opacity="0"
         stop-color="#ff8e00"
         offset="1" />
    </linearGradient>
  </defs>
  <sodipodi:namedview
     id="base"
     pagecolor="#ffffff"
     bordercolor="#666666"
     borderopacity="1.0"
     inkscape:pageopacity="0.0"
     inkscape:pageshadow="2"
     inkscape:zoom="1.1949"
     inkscape:cx="99.225838"
     inkscape:cy="15.186167"
     inkscape:document-units="mm"
     inkscape:current-layer="layer1"
     showgrid="false"
     inkscape:window-width="1600"
     inkscape:window-height="838"
     inkscape:window-x="-8"
     inkscape:window-y="-8"
     inkscape:window-maximized="1"
     units="px" />
  <metadata
     id="metadata5">
    <rdf:RDF>
      <cc:Work
         rdf:about="">
        <dc:format>image/svg+xml</dc:format>
        <dc:type
           rdf:resource="http://purl.org/dc/dcmitype/StillImage" />
        <dc:title />
      </cc:Work>
    </rdf:RDF>
  </metadata>
  <g
     inkscape:label="Layer 1"
     inkscape:groupmode="layer"
     id="layer1"
     transform="translate(0,-263.13332)">
    <g
       id="g943"
       transform="translate(-1.0172526e-6,2.9427084e-6)">
      <circle
         style="opacity:0.25;fill:#000000;fill-rule:evenodd;stroke:none;stroke-width:0.44613567"
         id="circle2920"
         cx="16.933334"
         cy="280.3269"
         r="15.61475" />
      <circle
         r="15.61475"
         cy="279.8064"
         cx="16.933334"
         id="Oval-2"
         style="fill:url(#linearGradient-5);fill-rule:evenodd;stroke:#192968;stroke-width:0.2;stroke-miterlimit:4;stroke-dasharray:none;stroke-opacity:1" />
      <path
         inkscape:connector-curvature="0"
         id="path1168"
         d="m 21.272445,267.4723 c 0,0 -0.529761,0.59587 -1.05071,1.54065 -0.205292,0.35477 -0.413756,0.78427 -0.588895,1.28161 -0.562172,1.22601 -1.019113,2.84265 -0.506157,4.39426 0.381996,1.15646 1.347808,2.3548 2.357742,3.02722 0.04448,0.0497 0.60151,0.65401 0.865767,2.01977 0.272107,1.40763 0.130996,2.50882 -0.431532,4.13361 -0.595597,1.28302 -2.028057,2.5503 -3.46415,2.89689 -0.348539,0.0659 -0.707783,0.10161 -1.075584,0.10161 -0.431708,0 -0.863079,-0.0471 -1.284321,-0.14385 -0.532407,-0.1014 -0.981633,-0.26412 -1.363273,-0.45262 -0.613658,-0.40275 -1.062661,-0.77636 -1.384362,-1.1237 1.210139,0.48185 2.54986,0.38261 3.362486,-0.12168 0.821552,-0.50759 1.318333,-0.88458 1.72126,-0.73545 0.327474,0.12281 0.59451,-0.14963 0.521299,-0.4975 0.220524,-0.11052 0.318057,-0.39896 0.104373,-0.69812 -0.308737,-0.43956 -1.109414,-1.07244 -2.299881,-0.89713 -0.91051,0.13343 -1.745355,0.77935 -2.935822,0.15141 -0.07588,-0.0392 -0.1517,-0.0838 -0.224959,-0.13087 -0.07849,-0.0471 0.256405,0.0707 0.177913,0.0184 -0.206784,-0.0999 -0.526987,-0.2921 -0.675418,-0.39909 -0.01057,-0.0126 -0.0224,-0.0254 -0.03245,-0.0379 0.04734,0.0133 0.135409,0.0431 0.121673,0.0314 -0.09614,-0.0708 -0.171473,-0.1369 -0.249834,-0.20386 -0.314627,-0.47678 -0.253592,-0.83134 -0.231448,-1.08046 0.02616,-0.27996 0.209317,-0.64138 0.518054,-0.78789 0.149135,0.0811 0.240641,0.14384 0.240641,0.14384 0,0 -0.06279,-0.13043 -0.0968,-0.19847 0.01308,-0.005 0.02369,-0.002 0.03677,-0.008 0.122971,0.0602 0.392451,0.21188 0.533736,0.30608 0.185765,0.13081 0.243345,0.24604 0.243345,0.24604 0,0 0.0496,-0.0261 0.01298,-0.14114 -0.01308,-0.0471 -0.06785,-0.19641 -0.253619,-0.34554 h 0.01025 c 0.109888,0.0628 0.214673,0.13356 0.311481,0.21467 0.05233,-0.18838 0.143686,-0.38484 0.122755,-0.73544 -0.01308,-0.24594 -0.0078,-0.31138 -0.04975,-0.40557 -0.03924,-0.0811 0.0212,-0.11239 0.08923,-0.0287 -0.01046,-0.0654 -0.03169,-0.1308 -0.05786,-0.1936 v -0.005 c 0.08373,-0.29303 1.784398,-1.05963 1.909987,-1.14859 0.204079,-0.1439 0.374081,-0.32945 0.499668,-0.544 0.09419,-0.15175 0.165005,-0.36119 0.18332,-0.683 0.0025,-0.0545 -0.0033,-0.10464 -0.03407,-0.15195 0.0147,-0.0756 0.02603,-0.15688 0.03136,-0.24983 0,0 0,-5.5e-4 0,-5.5e-4 0.0015,-0.0325 -0.0019,-0.0632 -0.01026,-0.093 -0.0059,-0.0205 -0.01431,-0.0406 -0.02866,-0.0601 -0.0046,-0.006 -0.01168,-0.0122 -0.01731,-0.0184 -0.01456,-0.0157 -0.03337,-0.0309 -0.05624,-0.0459 -0.0098,-0.006 -0.01811,-0.0135 -0.02974,-0.02 -0.02998,-0.0165 -0.06853,-0.0326 -0.111939,-0.0487 -0.159115,-0.0596 -0.427311,-0.11667 -0.843595,-0.17358 -0.01659,-0.002 -0.03429,-0.004 -0.05137,-0.006 -0.238524,-0.0317 -0.509789,-0.0636 -0.857656,-0.0963 -0.02886,-0.003 -0.05571,-0.008 -0.08328,-0.0125 -0.02235,-0.003 -0.04501,-0.007 -0.06651,-0.0114 -0.03788,-0.008 -0.07442,-0.018 -0.109776,-0.0292 -0.0071,-0.002 -0.01413,-0.004 -0.02109,-0.006 -0.18324,-0.0621 -0.328984,-0.16503 -0.449377,-0.28281 -0.02266,-0.0513 -0.04493,-0.10088 -0.0676,-0.15034 -0.02878,-0.0706 -0.04981,-0.14628 -0.06813,-0.21955 0.279956,-0.80847 0.75329,-1.49135 1.449254,-2.00679 0.03662,-0.034 -0.151725,0.008 -0.112479,-0.0265 0.04448,-0.0393 0.332244,-0.1566 0.387189,-0.18278 0.05566,-0.0267 -0.190104,-0.13795 -0.454785,-0.14816 0.0088,-0.006 0.01708,-0.0126 0.02596,-0.0184 0.04186,-0.034 -0.167321,0.007 -0.125458,-0.0259 0.04971,-0.0392 0.368651,-0.15445 0.428829,-0.18062 0.07326,-0.0314 -0.313829,-0.17785 -0.659195,-0.14384 -0.350599,0.034 -0.42422,0.0732 -0.609986,0.14384 0.07849,-0.068 0.324701,-0.15952 0.267139,-0.15952 -0.376762,0.0523 -0.845075,0.24861 -1.245385,0.47101 0,-0.0393 0.0075,-0.0785 0.02325,-0.11249 -0.185765,0.0706 -0.643645,0.35845 -0.777082,0.59917 0.0052,-0.0471 0.0081,-0.0946 0.0081,-0.14168 -0.141286,0.10467 -0.269275,0.2251 -0.381781,0.35853 l -0.0081,0.005 c -0.940269,-0.33306 -1.779749,-0.39676 -2.5096976,-0.29418 -0.057188,-0.10077 -0.1211649,-0.22397 -0.2033288,-0.40557 -0.027176,-0.0697 -0.021463,-0.0321 -0.011354,0.008 -0.1019344,0.0804 -0.2176285,0.16442 -0.3271633,0.24713 -0.046169,-0.0488 -0.092401,-0.0964 -0.1454666,-0.16277 -0.021986,-0.0276 -0.048628,-0.0701 -0.071922,-0.10171 -0.052877,-0.0712 -0.1052768,-0.1411 -0.1616886,-0.23037 -0.049309,-0.0786 -0.1017566,-0.16869 -0.1557407,-0.26659 -0.036772,-0.0678 -0.073419,-0.13758 -0.1103164,-0.21361 -0.00324,-0.006 -0.0068,-0.008 -0.00973,-0.009 -0.019862,-0.0199 -0.034031,0.0656 -0.049748,0.0659 -0.00115,-10e-4 -0.00251,-10e-4 -0.00377,-0.004 -0.1569849,-0.36106 -0.2512101,-0.94717 -0.2276629,-1.36057 0,0 -0.01036,0.006 -0.012442,0.007 1.224e-4,-0.004 -6.812e-4,-0.008 -5.41e-4,-0.0119 0,0 -0.321479,0.14601 -0.5883534,0.76086 -0.041994,0.0928 -0.068281,0.1434 -0.095174,0.19684 0.00565,-0.0499 0.027741,-0.15781 0.02163,-0.14764 -0.00387,0.006 -0.013112,0.0159 -0.017842,0.0227 8.319e-4,-0.006 0.00596,-0.0289 0.00481,-0.027 -0.04709,0.0785 -0.1672243,0.18805 -0.2195519,0.32933 -0.031592,0.0903 -0.071776,0.15458 -0.1043726,0.25254 0.00303,-0.0472 0.0067,-0.099 0.0022,-0.0854 -0.00827,0.0157 -0.015194,0.0327 -0.023252,0.0487 0.00147,-0.0293 0.00167,-0.0524 -0.00324,-0.0401 -0.1255883,0.25379 -0.2327989,0.51237 -0.3217564,0.77925 -0.1201153,0.39311 -0.2511682,0.91476 -0.3082362,1.56066 -0.034229,0.28676 -0.042726,0.48904 -0.033528,0.55481 -3.83e-4,0.008 2.146e-4,0.0193 -5.41e-4,0.0276 -0.340133,0.38723 -0.5733944,0.71678 -0.6597357,0.88685 -0.439557,0.68027 -0.9236832,1.73728 -1.3946367,3.4144 0.2093125,-0.45787 0.4579127,-0.89471 0.7457171,-1.30811 -0.3898445,0.88959 -0.7692559,2.28413 -0.8425145,4.43482 0.094191,-0.44479 0.2174182,-0.88443 0.3639365,-1.31352 -0.068029,1.43379 0.099465,3.21054 1.0047441,5.21733 0.5389799,1.17999 1.7764424,3.5737 4.8036286,5.44443 0,0 1.030856,0.76657 2.799548,1.34218 0.130821,0.0471 0.264027,0.0945 0.397464,0.13898 -0.04187,-0.0183 -0.08351,-0.0342 -0.122755,-0.0551 1.177384,0.35321 2.402077,0.53373 3.631789,0.53373 4.583949,0.002 5.933831,-1.83645 5.933831,-1.83645 0.217452,-0.20662 0.383187,-0.42363 0.48669,-0.63972 1.877202,-0.86562 3.90451,-2.26582 4.094684,-4.34236 -0.0015,0.0105 -0.0082,0.0441 -0.02001,0.0908 0.03758,-0.22295 0.0337,-0.42904 -0.01352,-0.60945 1.304175,-2.10424 1.859902,-4.46349 1.451418,-7.01698 0,0 0.005,0.0838 0.0075,0.10977 -0.0061,-0.0347 -0.01514,-0.0913 -0.01514,-0.0913 0,0 -0.159415,0.18516 -0.399086,0.52725 -0.06873,-0.83554 -0.248073,-1.70683 -0.579161,-2.59568 -1.163435,-3.35483 -3.671263,-6.02458 -3.671263,-6.95048 -0.242841,0.28349 -0.43417,0.70554 -0.541849,1.21186 -2.157341,-2.0388 -2.801711,-3.01764 -2.801711,-3.60853 z"
         style="opacity:0.25;isolation:isolate;fill:#000000;stroke-width:0.0261641" />
      <g
         transform="matrix(0.12816113,0,0,0.12816113,0.52848503,263.38941)"
         id="g2482"
         style="isolation:isolate;enable-background:new">
        <path
           id="path2456"
           transform="matrix(0.20415,0,0,0.20415,23.543,27.13)"
           d="m 805.3,93.6 c -23.9,27.9 -35.1,90.6 -10.8,154.3 24.3,63.7 61.5,49.8 84.7,114.7 30.6,85.6 16.4,200.6 16.4,200.6 0,0 36.8,106.6 62.5,-6.6 56.7,-212.9 -152.8,-410.7 -152.8,-463 z"
           class="st0"
           inkscape:connector-curvature="0"
           style="fill:url(#c)" />
        <path
           id="path2458"
           transform="matrix(0.20415,0,0,0.20415,23.543,27.13)"
           d="m 845.7,805.6 c -9.6,6.8 -19.7,12.8 -30.1,18.2 13.9,-20.3 26.6,-41.3 38.3,-63 9.5,-10.5 18.1,-20.6 25.2,-31.7 3.4,-5.4 7.3,-12.1 11.4,-19.8 24.9,-44.9 52.4,-117.6 53.2,-192.2 v -5.6 c 0.1,-18.7 -1.8,-37.4 -5.7,-55.7 0.2,1.4 0.4,2.9 0.6,4.3 l -0.6,-3.3 c 0.4,2 0.7,4 1,6 5.1,43.2 1.5,85.4 -16.7,116.4 -0.3,0.5 -0.6,0.9 -0.9,1.3 9.4,-47.2 12.6,-99.4 2.1,-151.6 0,0 -4.2,-25.4 -35.4,-102.4 -18,-44.4 -49.8,-80.7 -78,-107.2 C 785.4,188.8 763,168.3 750.6,155.2 724.8,128 714,107.6 709.5,94.3 c -3.9,-1.9 -53.1,-49.8 -57,-51.6 -21.5,33.4 -89.2,137.7 -57,235.1 14.6,44.2 51.5,90 90.1,115.7 1.7,1.9 23,25 33.1,77.2 10.4,53.8 5,95.9 -16.5,158 -25.3,54.5 -90.1,108.4 -150.7,113.9 -129.7,11.8 -177.1,-65.1 -177.1,-65.1 46.3,18.5 97.6,14.7 128.7,-4.6 31.4,-19.4 50.4,-33.8 65.8,-28.1 15.2,5.7 27.3,-10.8 16.4,-27.8 -17.1,-26.4 -48.4,-40 -79.4,-34.6 -31.4,5.1 -60.2,30 -101.4,5.9 -2.7,-1.5 -5.2,-3.2 -7.7,-5.1 -2.7,-1.8 8.8,2.7 6.1,0.7 -8,-4.4 -22.2,-13.8 -25.9,-17.2 -0.6,-0.6 6.2,2.2 5.6,1.6 -38.5,-31.7 -33.7,-53.1 -32.5,-66.6 1,-10.7 8,-24.5 19.8,-30.1 5.7,3.1 9.2,5.5 9.2,5.5 0,0 -2.4,-5 -3.7,-7.6 0.5,-0.2 0.9,-0.1 1.4,-0.3 4.7,2.3 15,8.1 20.4,11.7 7.1,5 9.3,9.4 9.3,9.4 0,0 1.9,-1 0.5,-5.4 -0.5,-1.8 -2.6,-7.5 -9.7,-13.2 h 0.4 c 4.2,2.4 8.2,5.1 11.9,8.2 2,-7.2 5.5,-14.7 4.7,-28.1 -0.5,-9.4 -0.3,-11.9 -1.9,-15.5 -1.5,-3.1 0.8,-4.3 3.4,-1.1 -0.4,-2.5 -1.2,-5 -2.2,-7.4 v -0.2 c 3.2,-11.2 68.2,-40.5 73,-43.9 7.8,-5.5 14.3,-12.6 19.1,-20.8 3.6,-5.8 6.3,-13.8 7,-26.1 0.4,-8.8 -3.8,-14.7 -69.5,-21.6 -18,-1.8 -28.5,-14.8 -34.5,-26.8 -1.1,-2.6 -2.2,-4.9 -3.3,-7.3 -1.1,-2.7 -1.9,-5.6 -2.6,-8.4 10.7,-30.9 28.8,-57 55.4,-76.7 1.4,-1.3 -5.8,0.3 -4.3,-1 1.7,-1.5 12.7,-6 14.8,-7 2.5,-1.2 -10.9,-6.9 -22.7,-5.5 -12.1,1.4 -14.6,2.8 -21.1,5.5 2.7,-2.7 11.2,-6.1 9.2,-6.1 -13,2 -29.2,9.6 -43,18.1 0,-1.5 0.3,-3 0.8,-4.3 -6.4,2.7 -22.3,13.8 -26.9,23.1 0.2,-1.8 0.3,-3.6 0.3,-5.4 -4.9,4.1 -9.3,8.7 -13.2,13.8 l -0.2,0.2 c -37.4,-15.1 -70.2,-16 -98.1,-9.3 -6.1,-6.1 -9.1,-1.6 -22.9,-32.1 -0.9,-1.8 0.7,1.8 0,0 -2.3,-5.9 1.4,7.9 0,0 -23.3,18.4 -53.9,39.2 -68.6,53.9 -0.2,0.6 17.2,-4.9 0,0 -6,1.7 -5.6,5.3 -6.5,37.5 -0.2,2.4 0,5.2 -0.2,7.4 -11.7,15 -19.7,27.6 -22.8,34.2 -15.2,26.2 -31.9,67 -48.1,131.6 7.2,-17.5 15.8,-34.4 25.8,-50.4 C 97,434.5 84,488.3 81.4,571.1 c 3.3,-17.1 7.4,-34 12.5,-50.7 -3.2,68.7 8.7,137.4 34.7,201.1 9.3,22.8 24.8,57.5 51,95.4 C 261.9,904 378.3,958 507.2,958 641.8,958 762.6,899.1 845.7,805.6 Z"
           class="st1"
           inkscape:connector-curvature="0"
           style="fill:url(#d)" />
        <path
           id="path2460"
           transform="matrix(0.20415,0,0,0.20415,23.543,27.13)"
           d="M 746.1,868.7 C 909,849.8 981.1,682 888.5,678.7 804.8,676 669,877.6 746.1,868.7 Z"
           class="st2"
           inkscape:connector-curvature="0"
           style="fill:url(#e)" />
        <path
           id="path2462"
           transform="matrix(0.20415,0,0,0.20415,23.543,27.13)"
           d="M 900.2,644.4 C 1012.3,579.2 983,438.3 983,438.3 c 0,0 -43.2,50.2 -72.6,130.3 -29,79.4 -77.6,115.2 -10.2,75.8 z"
           class="st3"
           inkscape:connector-curvature="0"
           style="fill:url(#f)" />
        <path
           id="path2464"
           transform="matrix(0.20415,0,0,0.20415,23.543,27.13)"
           d="M 544.5,952.1 C 700.7,1002 835,878.9 752.2,837.8 677,800.7 470.3,928.5 544.5,952.1 Z"
           class="st4"
           inkscape:connector-curvature="0"
           style="fill:url(#g)" />
        <path
           id="path2466"
           transform="matrix(0.20415,0,0,0.20415,23.543,27.13)"
           d="m 911.8,704.2 c 3.8,-5.4 8.9,-22.5 13.5,-30.2 27.6,-44.5 27.8,-80 27.8,-80.8 C 969.8,510 968.2,476 958,413.2 949.7,362.6 913.7,290.1 882.4,255.2 850.2,219.2 872.9,231 841.7,204.7 814.4,174.4 787.9,144.4 773.4,132.3 669.2,45.1 671.6,26.6 673.6,23.4 c -0.3,0.4 -0.8,0.9 -1.5,1.6 -1.2,-4.9 -2.1,-9.1 -2.1,-9.1 0,0 -57,57 -69,152 -7.8,62 15.4,126.7 49,168 17.5,21.4 37.3,40.9 59,58 25.4,36.5 39.4,81.5 39.4,129.9 0,121.2 -98.3,219.5 -219.7,219.5 -16.5,0 -33,-1.8 -49.1,-5.5 C 422.4,726.9 389.3,698 372.8,678.4 363.4,667.2 359.3,659 359.3,659 c 51.3,18.4 108,14.5 142.5,-4.5 34.7,-19.3 55.8,-33.5 72.8,-27.9 16.8,5.6 30.2,-10.7 18.2,-27.5 -11.8,-16.8 -42.4,-41 -87.9,-34.3 -34.8,5.1 -66.7,29.8 -112.2,5.8 -2.9,-1.5 -5.8,-3.2 -8.6,-5 -3,-1.8 9.8,2.7 6.8,0.7 -8.9,-4.3 -24.6,-13.7 -28.6,-17.1 -0.7,-0.6 6.9,2.2 6.2,1.6 -42.6,-31.4 -37.3,-52.7 -36,-66 1.1,-10.7 8.8,-24.3 21.9,-29.9 6.3,3.1 10.2,5.4 10.2,5.4 0,0 -2.7,-4.9 -4.1,-7.5 0.5,-0.2 1,-0.1 1.5,-0.3 5.2,2.2 16.6,8 22.6,11.6 7.8,4.9 10.3,9.4 10.3,9.4 0,0 2.1,-1 0.5,-5.3 -0.6,-1.8 -2.9,-7.4 -10.7,-13.1 h 0.5 c 4.6,2.3 9,5.1 13.1,8.2 2.2,-7.1 6.1,-14.6 5.3,-27.9 -0.5,-9.4 -0.3,-11.8 -2.1,-15.4 -1.6,-3.1 0.9,-4.3 3.8,-1.1 -0.5,-2.5 -1.3,-5 -2.4,-7.3 v -0.2 c 3.6,-11.1 75.5,-40.1 80.8,-43.5 8.4,-5.3 15.7,-12.3 21.2,-20.6 4,-5.7 7,-13.7 7.7,-25.9 0.2,-5.5 -1.4,-9.8 -20.5,-14 -11.4,-2.5 -29.1,-4.9 -56.4,-7.5 -19.9,-1.8 -31.6,-14.7 -38.2,-26.6 -1.2,-2.6 -2.4,-4.9 -3.7,-7.2 -1.2,-2.7 -2.1,-5.5 -2.8,-8.4 11.9,-31.2 33.4,-57.8 61.3,-76.1 1.6,-1.3 -6.4,0.3 -4.8,-1 1.9,-1.5 14.1,-5.9 16.4,-6.9 2.8,-1.2 -12,-6.8 -25.2,-5.5 -13.4,1.3 -16.2,2.8 -23.3,5.5 3,-2.6 12.4,-6.1 10.2,-6.1 -14.4,2 -32.3,9.5 -47.6,18 0,-1.5 0.3,-3 0.9,-4.3 -7.1,2.7 -24.6,13.7 -29.7,22.9 0.2,-1.8 0.3,-3.6 0.3,-5.4 -5.4,4 -10.3,8.6 -14.6,13.7 l -0.3,0.2 C 293.1,198 256.7,197 226,203.7 c -6.7,-6.1 -17.6,-15.2 -32.9,-45.4 -1,-1.8 -1.6,3.8 -2.4,2 -6,-13.8 -9.6,-36.4 -9,-52 0,0 -12.3,5.6 -22.5,29.1 -1.9,4.2 -3.1,6.5 -4.3,8.9 -0.6,0.7 1.3,-7.7 1,-7.2 -1.8,3 -6.4,7.2 -8.4,12.6 -1.4,4 -3.3,6.3 -4.6,11.3 l -0.3,0.5 c -0.1,-1.5 0.4,-6.1 0,-5.1 -4.8,9.7 -8.9,19.6 -12.3,29.8 -5.5,18 -11.9,42.6 -12.9,74.6 -0.2,2.4 0,5.1 -0.2,7.3 -13,14.8 -21.9,27.4 -25.2,33.9 -16.8,26 -35.3,66.4 -53.3,130.5 8,-17.5 17.5,-34.2 28.5,-50 -14.9,34 -29.4,87.3 -32.2,169.5 3.6,-17 8.3,-33.8 13.9,-50.2 -2.6,54.8 3.8,122.7 38.4,199.4 20.6,45.1 67.9,136.6 183.6,208.1 0,0 39.4,29.3 107,51.3 5,1.8 10.1,3.6 15.2,5.3 -1.6,-0.7 -3.2,-1.3 -4.7,-2.1 45,13.5 91.8,20.4 138.8,20.4 C 702.4,986.3 754,916 754,916 c 0,0 -0.2,0.1 -0.5,0.4 2.5,-2.3 4.9,-4.7 7.1,-7.3 -27.6,26.1 -90.7,27.8 -114.3,25.9 40.2,-11.8 66.7,-21.8 118.2,-41.5 6,-2.2 12.2,-4.8 18.5,-7.6 l 2.1,-0.9 c 1.2,-0.6 2.5,-1.1 3.7,-1.7 25.1,-11.8 48.7,-26.6 70.3,-44 51.7,-41.3 62.9,-81.6 68.8,-108.1 -0.8,2.5 -3.4,8.5 -5.2,12.3 -13.3,28.5 -42.8,46 -74.9,60.9 15.3,-20 29.4,-40.9 42.4,-62.4 10.6,-10.6 13.8,-26.9 21.6,-37.8 z"
           class="st5"
           inkscape:connector-curvature="0"
           style="fill:url(#h)" />
        <path
           id="path2468"
           transform="matrix(0.20415,0,0,0.20415,23.543,27.13)"
           d="m 848.9,803 c 21.1,-23.2 40,-49.8 54.3,-80 36.9,-77.6 94,-206.6 49,-341.3 C 916.8,275.2 868,217 806.1,160.1 705.6,67.8 677.5,26.5 677.5,2 c 0,0 -116.1,129.4 -65.7,264.4 50.4,135 153.5,130 221.7,270.9 80.3,165.7 -64.9,346.6 -185,397.2 7.4,-1.6 267,-60.4 280.6,-208.9 -0.4,2.7 -6.3,43.8 -80.2,77.4 z"
           class="st6"
           inkscape:connector-curvature="0"
           style="fill:url(#i)" />
        <path
           id="path2470"
           transform="matrix(0.20415,0,0,0.20415,23.543,27.13)"
           d="m 512.6,321.4 c 0.4,-8.8 -4.2,-14.7 -76.7,-21.5 -29.8,-2.8 -41.3,-30.3 -44.7,-41.9 -10.6,27.6 -15,56.5 -12.6,91.5 1.6,22.9 17,47.5 24.4,62 0,0 1.6,-2.1 2.4,-2.9 13.9,-14.4 71.9,-36.4 77.4,-39.5 5.9,-3.9 28.8,-20.7 29.8,-47.7 z"
           class="st7"
           inkscape:connector-curvature="0"
           style="fill:url(#j)" />
        <path
           id="path2472"
           transform="matrix(0.20415,0,0,0.20415,23.543,27.13)"
           d="m 193.3,158.5 c -1,-1.8 -1.6,3.8 -2.4,2 -6,-13.8 -9.6,-36.2 -8.7,-52 0,0 -12.3,5.6 -22.5,29.1 -1.9,4.2 -3.1,6.5 -4.3,8.9 -0.6,0.7 1.3,-7.7 1,-7.2 -1.8,3 -6.4,7.2 -8.3,12.4 -1.7,4.2 -3.3,6.5 -4.6,11.8 -0.4,1.4 0.4,-6.3 0.1,-5.4 C 119.7,203.7 115.2,273 117.7,270 168.2,216.1 226,203.3 226,203.3 c -6.1,-4.5 -19.5,-17.6 -32.7,-44.8 z"
           class="st8"
           inkscape:connector-curvature="0"
           style="fill:url(#k)" />
        <path
           id="path2474"
           transform="matrix(0.20415,0,0,0.20415,23.543,27.13)"
           d="M 384.8,722.1 C 315.1,692.3 235.8,650.3 238.8,555 242.9,429.3 356,454.2 356,454.2 c -4.3,1 -15.7,9.2 -19.7,17.8 -4.3,10.8 -12.1,35.3 11.6,60.9 37.1,40.2 -76.2,95.4 98.7,199.6 4.3,2.4 -41.1,-1.5 -61.8,-10.4 z"
           class="st9"
           inkscape:connector-curvature="0"
           style="fill:url(#l)" />
        <path
           id="path2476"
           transform="matrix(0.20415,0,0,0.20415,23.543,27.13)"
           d="m 360.1,659.5 c 49.4,17.2 107,14.2 141.5,-4.9 23.1,-12.9 52.7,-33.4 70.9,-28.4 -15.8,-6.2 -27.7,-9.2 -42.1,-9.9 -2.4,0 -5.4,-0.1 -8,-0.3 -5.3,0 -10.5,0.3 -15.8,0.9 -8.9,0.8 -18.8,6.4 -27.7,5.5 -0.5,0 8.7,-3.8 8,-3.6 -4.8,1 -9.9,1.2 -15.4,1.9 -3.5,0.4 -6.4,0.8 -9.9,1 -103,8.7 -190,-55.8 -190,-55.8 -7.5,25 33.1,74.3 88.5,93.6 z"
           class="st10"
           inkscape:connector-curvature="0"
           style="fill:url(#m)" />
        <path
           id="path2478"
           transform="matrix(0.20415,0,0,0.20415,23.543,27.13)"
           d="m 848.7,803.6 c 104.2,-102.3 156.9,-226.6 134.6,-366 0,0 8.9,71.5 -24.8,144.6 16.2,-71.4 18.1,-160.1 -25,-252 C 876,207.6 781.5,143 745.4,116.1 690.7,75.3 668,33.8 667.6,25.2 c -16.3,33.5 -65.8,148.2 -5.3,247 56.6,92.6 145.9,120 208.3,204.9 115.1,156.6 -21.9,326.5 -21.9,326.5 z"
           class="st11"
           inkscape:connector-curvature="0"
           style="fill:url(#n)" />
        <path
           id="path2480"
           transform="matrix(0.20415,0,0,0.20415,23.543,27.13)"
           d="M 833.8,537.6 C 797.4,462.4 752,429.5 709,394 c 5,7 6.2,9.5 9,14 37.8,40.3 93.6,138.7 53.1,262.1 C 694.9,902.5 390,793.1 358,762.3 370.9,896.8 596,961.1 742.6,873.9 826,795 893.5,660.8 833.8,537.6 Z"
           class="st12"
           inkscape:connector-curvature="0"
           style="fill:url(#o)" />
      </g>
    </g>
  </g>
</svg>
