<?xml version="1.0" encoding="UTF-8" standalone="no"?>
<!-- Created with Inkscape (http://www.inkscape.org/) -->

<svg
   xmlns:dc="http://purl.org/dc/elements/1.1/"
   xmlns:cc="http://creativecommons.org/ns#"
   xmlns:rdf="http://www.w3.org/1999/02/22-rdf-syntax-ns#"
   xmlns:svg="http://www.w3.org/2000/svg"
   xmlns="http://www.w3.org/2000/svg"
   xmlns:xlink="http://www.w3.org/1999/xlink"
   xmlns:sodipodi="http://sodipodi.sourceforge.net/DTD/sodipodi-0.dtd"
   xmlns:inkscape="http://www.inkscape.org/namespaces/inkscape"
   width="126"
   height="126"
   viewBox="0 0 33.337499 33.337501"
   version="1.1"
   id="svg8"
   inkscape:version="0.92.2 5c3e80d, 2017-08-06"
   sodipodi:docname="preferences-color1.svg">
  <defs
     id="defs2">
    <linearGradient
       inkscape:collect="always"
       id="linearGradient1365">
      <stop
         style="stop-color:#22343e;stop-opacity:1"
         offset="0"
         id="stop1361" />
      <stop
         style="stop-color:#030506;stop-opacity:1"
         offset="1"
         id="stop1363" />
    </linearGradient>
    <linearGradient
       inkscape:collect="always"
       xlink:href="#linearGradient1365"
       id="linearGradient1367"
       x1="-533.08594"
       y1="538.30664"
       x2="-532.03094"
       y2="622.29199"
       gradientUnits="userSpaceOnUse"
       gradientTransform="matrix(0.31340735,0,0,0.31342256,183.74166,97.617523)" />
  </defs>
  <sodipodi:namedview
     id="base"
     pagecolor="#ffffff"
     bordercolor="#666666"
     borderopacity="1.0"
     inkscape:pageopacity="0.0"
     inkscape:pageshadow="2"
     inkscape:zoom="3.959798"
     inkscape:cx="28.018713"
     inkscape:cy="72.633908"
     inkscape:document-units="mm"
     inkscape:current-layer="layer1"
     showgrid="false"
     inkscape:window-width="1600"
     inkscape:window-height="803"
     inkscape:window-x="0"
     inkscape:window-y="0"
     inkscape:window-maximized="1"
     units="px" />
  <metadata
     id="metadata5">
    <rdf:RDF>
      <cc:Work
         rdf:about="">
        <dc:format>image/svg+xml</dc:format>
        <dc:type
           rdf:resource="http://purl.org/dc/dcmitype/StillImage" />
        <dc:title />
      </cc:Work>
    </rdf:RDF>
  </metadata>
  <g
     inkscape:label="Layer 1"
     inkscape:groupmode="layer"
     id="layer1"
     transform="translate(0,-263.66248)">
    <g
       id="g991"
       transform="matrix(0.95238076,0,0,0.95238076,0.79374885,13.349164)">
      <ellipse
         ry="16.358316"
         rx="16.357523"
         style="opacity:0.25;fill:#000000;fill-opacity:1;fill-rule:nonzero;stroke:none;stroke-width:0.2;stroke-miterlimit:4;stroke-dasharray:none;stroke-opacity:1"
         id="circle1503"
         cx="16.668755"
         cy="280.64166" />
      <ellipse
         ry="16.358316"
         rx="16.357523"
         cy="280.12079"
         cx="16.668755"
         id="path1327"
         style="opacity:1;fill:#e6e6e6;fill-opacity:1;fill-rule:nonzero;stroke:#999999;stroke-width:0.2;stroke-miterlimit:4;stroke-dasharray:none;stroke-opacity:1" />
      <path
         style="opacity:0.25;fill:#000000;fill-opacity:1;fill-rule:nonzero;stroke:none;stroke-width:0.09999998;stroke-miterlimit:4;stroke-dasharray:none;stroke-opacity:1"
         d="m 16.668616,266.85584 a 13.785235,13.785904 0 0 0 -13.785026,13.78571 13.785235,13.785904 0 0 0 13.785026,13.78629 13.785235,13.785904 0 0 0 9.830095,-4.13938 l -5.757031,-5.90911 -0.727207,-6.88428 6.498923,-6.49923 a 13.785235,13.785904 0 0 0 -9.84478,-4.14 z"
         id="path1505"
         inkscape:connector-curvature="0" />
      <path
         inkscape:connector-curvature="0"
         id="circle1341"
         d="m 16.668616,266.33497 a 13.785235,13.785904 0 0 0 -13.785026,13.7857 13.785235,13.785904 0 0 0 13.785026,13.78629 13.785235,13.785904 0 0 0 9.830095,-4.13937 l -5.757031,-5.90912 -0.727207,-6.88428 6.498923,-6.49923 a 13.785235,13.785904 0 0 0 -9.84478,-4.13999 z"
         style="opacity:1;fill:url(#linearGradient1367);fill-opacity:1;fill-rule:nonzero;stroke:none;stroke-width:0.09999998;stroke-miterlimit:4;stroke-dasharray:none;stroke-opacity:1" />
      <g
         style="opacity:1;stroke-width:0.99953675"
         transform="matrix(1.0004635,0,0,1.0004635,-32.427246,2.197326)"
         id="g1581">
        <path
           inkscape:connector-curvature="0"
           style="fill:#2aa7b7;fill-opacity:1;stroke:none;stroke-width:0.13223039"
           d="m 49.666149,277.66139 9.01026,-0.01 c 0.0014,2.38373 -0.952686,4.6881 -2.636174,6.37499 l -6.374086,-6.3661 z"
           id="path3112" />
        <path
           inkscape:connector-curvature="0"
           style="fill:#51c6d7;fill-opacity:1;stroke:none;stroke-width:0.13223039"
           d="m 49.666149,277.66139 6.366093,-6.37407 c 0.815499,0.81385 1.48471,1.8016 1.952614,2.9326 0.464895,1.12375 0.690865,2.28758 0.691553,3.43258 l -9.01026,0.01 z"
           id="path3114" />
        <path
           inkscape:connector-curvature="0"
           style="fill:#d15aa7;fill-opacity:1;stroke:none;stroke-width:0.13223039"
           d="m 49.666149,277.66139 -0.009,-9.01024 c 2.383735,-10e-4 4.68811,0.95268 6.37501,2.63617 l -6.366095,6.37407 z"
           id="path3116" />
        <path
           inkscape:connector-curvature="0"
           style="fill:#f55a99;fill-opacity:1;stroke:none;stroke-width:0.13223039"
           d="m 43.292064,271.29531 c 0.81385,-0.81551 1.801599,-1.48471 2.932604,-1.9526 1.123745,-0.46491 2.287596,-0.69088 3.432564,-0.69156 l 0.009,9.01024 -6.374087,-6.36608 z"
           id="path3118" />
        <path
           inkscape:connector-curvature="0"
           style="fill:#f59123;fill-opacity:1;stroke:none;stroke-width:0.13223039"
           d="m 40.655888,277.67033 c -0.0014,-2.38375 0.952686,-4.68812 2.636176,-6.37502 l 6.374085,6.36608 -9.010261,0.01 z"
           id="path3120" />
        <path
           inkscape:connector-curvature="0"
           style="fill:#f9da3e;fill-opacity:1;stroke:none;stroke-width:0.13223039"
           d="m 41.347444,281.10289 c -0.464898,-1.12373 -0.690868,-2.28761 -0.691556,-3.43256 l 9.010261,-0.01 -6.366094,6.37407 c -0.815497,-0.81383 -1.48471,-1.80158 -1.952611,-2.9326 z"
           id="path3122" />
        <path
           inkscape:connector-curvature="0"
           style="fill:#c4dc2b;fill-opacity:1;stroke:none;stroke-width:0.13223039"
           d="m 43.300055,284.03549 6.366094,-6.3741 0.009,9.01027 c -2.383737,0 -4.688113,-0.95268 -6.37501,-2.63617 z"
           id="path3124" />
        <path
           inkscape:connector-curvature="0"
           style="fill:#72cb6b;fill-opacity:1;stroke:none;stroke-width:0.13223039"
           d="m 49.675066,286.67166 -0.009,-9.01027 6.374084,6.3661 c -0.813849,0.81551 -1.801598,1.48471 -2.932605,1.95261 -1.123743,0.46492 -2.287595,0.69088 -3.432562,0.69156 z"
           id="path3126" />
      </g>
    </g>
  </g>
</svg>
