<?xml version="1.0" encoding="UTF-8" standalone="no"?>
<svg
   xmlns:dc="http://purl.org/dc/elements/1.1/"
   xmlns:cc="http://creativecommons.org/ns#"
   xmlns:rdf="http://www.w3.org/1999/02/22-rdf-syntax-ns#"
   xmlns:svg="http://www.w3.org/2000/svg"
   xmlns="http://www.w3.org/2000/svg"
   xmlns:xlink="http://www.w3.org/1999/xlink"
   xmlns:sodipodi="http://sodipodi.sourceforge.net/DTD/sodipodi-0.dtd"
   xmlns:inkscape="http://www.inkscape.org/namespaces/inkscape"
   height="128"
   viewBox="0 0 128 128"
   width="128"
   version="1.1"
   id="svg80"
   sodipodi:docname="ghostwriter.svg"
   inkscape:version="0.92.3 (2405546, 2018-03-11)">
  <metadata
     id="metadata86">
    <rdf:RDF>
      <cc:Work
         rdf:about="">
        <dc:format>image/svg+xml</dc:format>
        <dc:type
           rdf:resource="http://purl.org/dc/dcmitype/StillImage" />
        <dc:title></dc:title>
      </cc:Work>
    </rdf:RDF>
  </metadata>
  <defs
     id="defs84" />
  <sodipodi:namedview
     pagecolor="#ffffff"
     bordercolor="#666666"
     borderopacity="1"
     objecttolerance="10"
     gridtolerance="10"
     guidetolerance="10"
     inkscape:pageopacity="0"
     inkscape:pageshadow="2"
     inkscape:window-width="1600"
     inkscape:window-height="837"
     id="namedview82"
     showgrid="false"
     inkscape:zoom="1.84375"
     inkscape:cx="192.16682"
     inkscape:cy="-26.60336"
     inkscape:window-x="0"
     inkscape:window-y="30"
     inkscape:window-maximized="1"
     inkscape:current-layer="svg80" />
  <linearGradient
     id="a">
    <stop
       offset="0"
       stop-opacity=".27451"
       id="stop2" />
    <stop
       offset="1"
       stop-opacity="0"
       id="stop4" />
  </linearGradient>
  <linearGradient
     id="b"
     gradientTransform="matrix(0.00833412,0,0,0.125012,52.127902,91.07358)"
     gradientUnits="userSpaceOnUse"
     x1="254"
     x2="254"
     xlink:href="#a"
     y1="233.5"
     y2="254.66667" />
  <linearGradient
     id="c">
    <stop
       offset="0"
       stop-opacity=".313726"
       id="stop8" />
    <stop
       offset=".222222"
       stop-opacity=".27451"
       id="stop10" />
    <stop
       offset="1"
       stop-opacity="0"
       id="stop12" />
  </linearGradient>
  <radialGradient
     id="d"
     cx="450.90894"
     cy="189.57936"
     gradientTransform="matrix(3.5e-7,-0.156265,-0.281277,-2e-7,108.23043,191.38667)"
     gradientUnits="userSpaceOnUse"
     r="21.166656"
     xlink:href="#c" />
  <radialGradient
     id="e"
     cx="450.90894"
     cy="189.57936"
     gradientTransform="matrix(-3.5e-7,0.156265,0.281277,2e-7,0.259119,49.141052)"
     gradientUnits="userSpaceOnUse"
     r="21.166656"
     xlink:href="#c" />
  <radialGradient
     id="f"
     cx="450.90894"
     cy="189.57936"
     gradientTransform="matrix(-3.5e-7,-0.156265,0.281277,-2e-7,0.259119,191.38667)"
     gradientUnits="userSpaceOnUse"
     r="21.166656"
     xlink:href="#c" />
  <radialGradient
     id="g"
     cx="450.90894"
     cy="189.57936"
     gradientTransform="matrix(3.5e-7,0.156265,-0.281277,2e-7,108.23042,49.141052)"
     gradientUnits="userSpaceOnUse"
     r="21.166656"
     xlink:href="#c" />
  <linearGradient
     id="h"
     gradientTransform="matrix(0.00833412,0,0,0.125012,29.636169,91.07358)"
     gradientUnits="userSpaceOnUse"
     x1="254"
     x2="254"
     xlink:href="#a"
     y1="233.5"
     y2="254.66667" />
  <radialGradient
     id="i"
     cx="450.90894"
     cy="189.57936"
     gradientTransform="matrix(3.5e-7,-0.156265,-0.281277,-2e-7,85.738694,191.38667)"
     gradientUnits="userSpaceOnUse"
     r="21.166656"
     xlink:href="#c" />
  <radialGradient
     id="j"
     cx="450.90894"
     cy="189.57936"
     gradientTransform="matrix(-3.5e-7,0.156265,0.281277,2e-7,-22.232615,49.141052)"
     gradientUnits="userSpaceOnUse"
     r="21.166656"
     xlink:href="#c" />
  <radialGradient
     id="k"
     cx="450.90894"
     cy="189.57936"
     gradientTransform="matrix(-3.5e-7,-0.156265,0.281277,-2e-7,-22.232615,191.38667)"
     gradientUnits="userSpaceOnUse"
     r="21.166656"
     xlink:href="#c" />
  <radialGradient
     id="l"
     cx="450.90894"
     cy="189.57936"
     gradientTransform="matrix(3.5e-7,0.156265,-0.281277,2e-7,85.73869,49.141052)"
     gradientUnits="userSpaceOnUse"
     r="21.166656"
     xlink:href="#c" />
  <linearGradient
     id="m"
     gradientTransform="matrix(0.120752,-0.0323555,-0.0323555,-0.120752,73.720933,165.38914)"
     gradientUnits="userSpaceOnUse"
     x1="241.31482"
     x2="345.40323"
     y1="-140.74301"
     y2="247.72017">
    <stop
       offset="0"
       stop-color="#bdbdbd"
       id="stop24" />
    <stop
       offset="1"
       stop-color="#e0e0e0"
       id="stop26" />
  </linearGradient>
  <linearGradient
     id="n">
    <stop
       offset="0"
       stop-color="#424242"
       id="stop29" />
    <stop
       offset="1"
       stop-color="#616161"
       id="stop31" />
  </linearGradient>
  <linearGradient
     id="o"
     gradientTransform="matrix(0.120752,0.0323555,-0.0323555,0.120752,71.703234,138.19788)"
     gradientUnits="userSpaceOnUse"
     x1="232.83333"
     x2="232.83333"
     xlink:href="#n"
     y1="-168.66666"
     y2="233.5" />
  <linearGradient
     id="p"
     gradientTransform="matrix(-0.120752,0.0323555,0.0323555,0.120752,143.12486,138.19788)"
     gradientUnits="userSpaceOnUse"
     x1="232.83333"
     x2="232.83333"
     xlink:href="#n"
     y1="-168.66666"
     y2="233.5" />
  <g
     id="g1294"
     transform="matrix(1.0115098,0,0,1.0115098,13.241801,-244.30936)">
    <path
       d="m 50.184553,252.33236 c -16.92142,0 -31.945197,7.79778 -41.7069207,20.01238 -1.02755,-0.24031 -2.0965329,-0.36463 -3.1986626,-0.36463 -7.7812056,0 -14.0376596,6.25646 -14.0376596,14.02937 0,4.87259 2.4611474,9.14851 6.2067328,11.65939 -0.389473,2.61032 -0.5966419,5.27033 -0.5966419,7.98837 0,29.54206 23.791097,53.32487 53.333152,53.32487 6.703943,0 13.117849,-1.22644 19.017975,-3.46385 5.311757,1.29273 11.584781,2.6849 13.225552,3.02466 6.430474,1.34244 14.029369,1.60761 20.46814,-0.0248 0.008,0 0.008,0 0.017,-0.008 1.88108,-0.48064 2.71803,-2.6766 1.64904,-4.29251 -4.15163,-6.28132 -7.971791,-12.04056 -9.140212,-20.22783 5.129462,-8.20383 8.087812,-17.90753 8.087812,-28.33218 0,-2.71804 -0.19877,-5.37807 -0.58837,-7.98839 3.7456,-2.51086 6.19846,-6.7868 6.19846,-11.65936 0,-7.77292 -6.25646,-14.02937 -14.02937,-14.02937 -1.102127,0 -2.179413,0.12431 -3.206953,0.3646 -9.753403,-12.21443 -24.785471,-20.01221 -41.69862,-20.01221 z m 0,0"
       id="path1286"
       inkscape:connector-curvature="0"
       style="opacity:0.25;fill:#000000;fill-opacity:1;stroke:none;stroke-width:0.75590551;stroke-miterlimit:4;stroke-dasharray:none;stroke-opacity:1" />
    <path
       style="fill:#643fad;fill-opacity:1;stroke:#3b2566;stroke-width:0.75590551;stroke-miterlimit:4;stroke-dasharray:none;stroke-opacity:1"
       inkscape:connector-curvature="0"
       id="path56"
       d="m 50.184553,250.33236 c -16.92142,0 -31.945197,7.79778 -41.7069207,20.01238 -1.02755,-0.24031 -2.0965329,-0.36463 -3.1986626,-0.36463 -7.7812056,0 -14.0376596,6.25646 -14.0376596,14.02937 0,4.87259 2.4611474,9.14851 6.2067328,11.65939 -0.389473,2.61032 -0.5966419,5.27033 -0.5966419,7.98837 0,29.54206 23.791097,53.32487 53.333152,53.32487 6.703943,0 13.117849,-1.22644 19.017975,-3.46385 5.311757,1.29273 11.584781,2.6849 13.225552,3.02466 6.430474,1.34244 14.029369,1.60761 20.46814,-0.0248 0.008,0 0.008,0 0.017,-0.008 1.88108,-0.48064 2.71803,-2.6766 1.64904,-4.29251 -4.15163,-6.28132 -7.971791,-12.04056 -9.140212,-20.22783 5.129462,-8.20383 8.087812,-17.90753 8.087812,-28.33218 0,-2.71804 -0.19877,-5.37807 -0.58837,-7.98839 3.7456,-2.51086 6.19846,-6.7868 6.19846,-11.65936 0,-7.77292 -6.25646,-14.02937 -14.02937,-14.02937 -1.102127,0 -2.179413,0.12431 -3.206953,0.3646 -9.753403,-12.21443 -24.785471,-20.01221 -41.69862,-20.01221 z m 0,0" />
    <path
       style="fill:#efebf6;fill-opacity:1;stroke:#3b2566;stroke-width:0.75590551;stroke-miterlimit:4;stroke-dasharray:none;stroke-opacity:1"
       inkscape:connector-curvature="0"
       id="path58"
       d="m 35.674561,278.97117 c 7.482876,2.0054 11.601371,10.91358 9.18994,19.89636 -2.403136,8.98277 -10.424659,14.64258 -17.907541,12.63721 -7.491171,-2.00538 -11.609659,-10.91357 -9.198231,-19.89636 2.40314,-8.98277 10.424659,-14.64258 17.915832,-12.63721 z m 0,0" />
    <path
       style="fill:#efebf6;fill-opacity:1;stroke:#3b2566;stroke-width:0.75590551;stroke-miterlimit:4;stroke-dasharray:none;stroke-opacity:1"
       inkscape:connector-curvature="0"
       id="path60"
       d="m 64.694566,278.97117 c -7.482897,2.0054 -11.60137,10.91358 -9.198235,19.89636 2.411431,8.98277 10.424655,14.64258 17.915826,12.63721 7.482898,-2.00538 11.601371,-10.91357 9.198235,-19.89636 -2.41143,-8.98277 -10.432949,-14.64258 -17.915826,-12.63721 z m 0,0" />
    <path
       style="opacity:0.25;fill:#000000;fill-opacity:1;stroke-width:2.12139344"
       inkscape:connector-curvature="0"
       id="path62"
       d="m 32.478223,278.56077 c -6.471913,0.0496 -12.662073,5.29519 -14.733746,13.04326 -0.613214,2.27884 -0.803808,4.54939 -0.629788,6.70392 0.09116,-1.20156 0.298321,-2.4197 0.629788,-3.64614 2.411429,-9.01593 10.399801,-14.65088 17.915849,-12.63721 5.601816,1.49989 9.314254,6.83653 9.81974,13.19242 0.604915,-7.64862 -3.331245,-14.50999 -9.81974,-16.25019 -1.060696,-0.28177 -2.121406,-0.41436 -3.182103,-0.40606 z m 0,0" />
    <path
       style="opacity:0.25;fill:#000000;fill-opacity:1;stroke-width:2.12139344"
       inkscape:connector-curvature="0"
       id="path64"
       d="m 67.862422,278.56077 c -1.060697,-0.008 -2.129688,0.12431 -3.18209,0.40606 -6.488473,1.7402 -10.43295,8.60157 -9.828013,16.25019 0.513759,-6.35589 4.217924,-11.69253 9.828013,-13.19242 7.507739,-2.01367 15.496122,3.62128 17.915826,12.63721 0.323194,1.22644 0.530348,2.44458 0.629799,3.64614 0.173954,-2.15453 -0.01697,-4.42508 -0.629799,-6.70392 -2.079963,-7.74807 -8.270126,-12.99354 -14.733736,-13.04326 z m 0,0" />
  </g>
</svg>
