<?xml version="1.0" encoding="UTF-8" standalone="no"?>
<!-- Created with Inkscape (http://www.inkscape.org/) -->

<svg
   xmlns:osb="http://www.openswatchbook.org/uri/2009/osb"
   xmlns:dc="http://purl.org/dc/elements/1.1/"
   xmlns:cc="http://creativecommons.org/ns#"
   xmlns:rdf="http://www.w3.org/1999/02/22-rdf-syntax-ns#"
   xmlns:svg="http://www.w3.org/2000/svg"
   xmlns="http://www.w3.org/2000/svg"
   xmlns:sodipodi="http://sodipodi.sourceforge.net/DTD/sodipodi-0.dtd"
   xmlns:inkscape="http://www.inkscape.org/namespaces/inkscape"
   width="128"
   height="128"
   viewBox="0 0 33.866666 33.866668"
   version="1.1"
   id="svg8"
   inkscape:version="0.92.4 (5da689c313, 2019-01-14)"
   sodipodi:docname="gnome-nibbles.svg">
  <defs
     id="defs2">
    <linearGradient
       id="linearGradient6987"
       osb:paint="solid">
      <stop
         style="stop-color:#77d2fb;stop-opacity:1;"
         offset="0"
         id="stop6985" />
    </linearGradient>
  </defs>
  <sodipodi:namedview
     id="base"
     pagecolor="#ffffff"
     bordercolor="#666666"
     borderopacity="1.0"
     inkscape:pageopacity="0.0"
     inkscape:pageshadow="2"
     inkscape:zoom="1.979899"
     inkscape:cx="133.5135"
     inkscape:cy="23.346532"
     inkscape:document-units="mm"
     inkscape:current-layer="layer1"
     showgrid="false"
     inkscape:window-width="1600"
     inkscape:window-height="838"
     inkscape:window-x="-8"
     inkscape:window-y="-8"
     inkscape:window-maximized="1"
     units="px" />
  <metadata
     id="metadata5">
    <rdf:RDF>
      <cc:Work
         rdf:about="">
        <dc:format>image/svg+xml</dc:format>
        <dc:type
           rdf:resource="http://purl.org/dc/dcmitype/StillImage" />
        <dc:title />
      </cc:Work>
    </rdf:RDF>
  </metadata>
  <g
     inkscape:label="Layer 1"
     inkscape:groupmode="layer"
     id="layer1"
     transform="translate(0,-263.13332)">
    <g
       id="g850"
       transform="matrix(1.0047244,0,0,1.0047244,-0.08000014,-1.3231574)">
      <rect
         style="opacity:0.25;fill:#000000;fill-opacity:1;stroke:none;stroke-width:0.12409959;stroke-miterlimit:4;stroke-dasharray:none;stroke-dashoffset:0;stroke-opacity:1"
         id="rect1161"
         width="31.600706"
         height="27.848171"
         x="1.1329806"
         y="266.40591"
         ry="2.7817304" />
      <rect
         ry="2.7817304"
         y="265.87924"
         x="1.1329806"
         height="27.848171"
         width="31.600706"
         id="rect1134"
         style="opacity:1;fill:#1b2329;fill-opacity:1;stroke:#000000;stroke-width:0.2;stroke-miterlimit:4;stroke-dasharray:none;stroke-dashoffset:0;stroke-opacity:1" />
      <g
         transform="translate(-75.076225,127.49138)"
         style="fill:#000000"
         id="g1706">
        <path
           id="path1700"
           d="m 84.238084,144.42339 c -0.479265,0 -0.864206,0.38494 -0.864206,0.86166 v 8.20358 c 0,0.47926 0.384941,0.8642 0.864206,0.8642 0.479264,0 0.864205,-0.38494 0.864205,-0.8642 v -7.33938 h 6.47517 v 14.24793 c 0,0.47671 0.336504,0.86165 0.757136,0.86165 h 8.308105 c 0.47926,0 0.8642,-0.38494 0.8642,-0.86165 0,-0.47927 -0.38494,-0.86421 -0.8642,-0.86421 h -7.339379 v -14.24792 c 0,-0.47672 -0.336505,-0.86166 -0.754587,-0.86166 z m 0,0"
           style="fill:#000000;fill-opacity:1;fill-rule:nonzero;stroke:none;stroke-width:0.65261549"
           inkscape:connector-curvature="0" />
        <path
           id="path1702"
           d="m 83.373878,158.23794 c -0.476716,0 -0.861657,0.38494 -0.861657,0.8642 v 1.29504 c 0,0.47671 0.384941,0.86165 0.861657,0.86165 h 1.728411 c 0.476715,0 0.864206,-0.38494 0.864206,-0.86165 v -1.29504 c 0,-0.47926 -0.387491,-0.8642 -0.864206,-0.8642 h -0.433377 v 0.43082 c 0,0.23964 -0.191196,0.43338 -0.430828,0.43338 -0.239633,0 -0.430828,-0.19374 -0.430828,-0.43338 v -0.43082 z m 0,0"
           style="fill:#000000;fill-opacity:1;fill-rule:nonzero;stroke:none;stroke-width:0.65261549"
           inkscape:connector-curvature="0" />
        <path
           id="path1704"
           d="m 84.23809,157.15959 c 0.3569,0 0.647518,0.28807 0.647518,0.64752 v 0.64752 c 0,0.3569 -0.290618,0.64751 -0.647518,0.64751 -0.356899,0 -0.647517,-0.29061 -0.647517,-0.64751 v -0.64752 c 0,-0.35945 0.290618,-0.64752 0.647517,-0.64752 z m 0,0"
           style="fill:#000000;fill-opacity:1;fill-rule:nonzero;stroke:none;stroke-width:0.24475431;stroke-linecap:square;stroke-linejoin:bevel;stroke-miterlimit:4;stroke-opacity:1"
           inkscape:connector-curvature="0" />
      </g>
      <path
         id="path1083"
         d="m 9.161859,271.3856 c -0.479265,0 -0.864206,0.38494 -0.864206,0.86166 v 8.20358 c 0,0.47926 0.384941,0.8642 0.864206,0.8642 0.479264,0 0.864205,-0.38494 0.864205,-0.8642 v -7.33938 h 6.47517 v 14.24793 c 0,0.47671 0.336504,0.86165 0.757136,0.86165 h 8.308105 c 0.47926,0 0.8642,-0.38494 0.8642,-0.86165 0,-0.47927 -0.38494,-0.86421 -0.8642,-0.86421 h -7.339379 v -14.24792 c 0,-0.47672 -0.336505,-0.86166 -0.754587,-0.86166 z m 0,0"
         style="fill:#92df00;fill-opacity:1;fill-rule:nonzero;stroke:none;stroke-width:0.65261549"
         inkscape:connector-curvature="0" />
      <path
         id="path1085"
         d="m 8.297653,285.20015 c -0.476716,0 -0.861657,0.38494 -0.861657,0.8642 v 1.29504 c 0,0.47671 0.384941,0.86165 0.861657,0.86165 h 1.728411 c 0.476715,0 0.864206,-0.38494 0.864206,-0.86165 v -1.29504 c 0,-0.47926 -0.387491,-0.8642 -0.864206,-0.8642 H 9.592687 v 0.43082 c 0,0.23964 -0.191196,0.43338 -0.430828,0.43338 -0.239633,0 -0.430828,-0.19374 -0.430828,-0.43338 v -0.43082 z m 0,0"
         style="fill:#ec6d8e;fill-opacity:1;fill-rule:nonzero;stroke:none;stroke-width:0.65261549"
         inkscape:connector-curvature="0" />
      <path
         id="path1103"
         d="m 9.161865,284.1218 c 0.3569,0 0.647518,0.28807 0.647518,0.64752 v 0.64752 c 0,0.3569 -0.290618,0.64751 -0.647518,0.64751 -0.356899,0 -0.647517,-0.29061 -0.647517,-0.64751 v -0.64752 c 0,-0.35945 0.290618,-0.64752 0.647517,-0.64752 z m 0,0"
         style="fill:#92df00;fill-opacity:1;fill-rule:nonzero;stroke:none;stroke-width:0.24475431;stroke-linecap:square;stroke-linejoin:bevel;stroke-miterlimit:4;stroke-opacity:1"
         inkscape:connector-curvature="0" />
    </g>
  </g>
</svg>
