<?xml version="1.0" encoding="UTF-8" standalone="no"?>
<!-- Created with Inkscape (http://www.inkscape.org/) -->

<svg
   xmlns:dc="http://purl.org/dc/elements/1.1/"
   xmlns:cc="http://creativecommons.org/ns#"
   xmlns:rdf="http://www.w3.org/1999/02/22-rdf-syntax-ns#"
   xmlns:svg="http://www.w3.org/2000/svg"
   xmlns="http://www.w3.org/2000/svg"
   xmlns:xlink="http://www.w3.org/1999/xlink"
   xmlns:sodipodi="http://sodipodi.sourceforge.net/DTD/sodipodi-0.dtd"
   xmlns:inkscape="http://www.inkscape.org/namespaces/inkscape"
   width="128"
   height="128"
   viewBox="0 0 33.866666 33.866668"
   version="1.1"
   id="svg8"
   inkscape:version="0.92.2 5c3e80d, 2017-08-06"
   sodipodi:docname="ss.svg">
  <defs
     id="defs2">
    <linearGradient
       inkscape:collect="always"
       id="linearGradient1418">
      <stop
         style="stop-color:#c52e00;stop-opacity:1"
         offset="0"
         id="stop1414" />
      <stop
         style="stop-color:#e53500;stop-opacity:1"
         offset="1"
         id="stop1416" />
    </linearGradient>
    <linearGradient
       inkscape:collect="always"
       xlink:href="#linearGradient1418"
       id="linearGradient1420"
       x1="89.643204"
       y1="118.61627"
       x2="88.745865"
       y2="94.379654"
       gradientUnits="userSpaceOnUse" />
  </defs>
  <sodipodi:namedview
     id="base"
     pagecolor="#ffffff"
     bordercolor="#666666"
     borderopacity="1.0"
     inkscape:pageopacity="0.0"
     inkscape:pageshadow="2"
     inkscape:zoom="3.959798"
     inkscape:cx="66.940497"
     inkscape:cy="73.279191"
     inkscape:document-units="mm"
     inkscape:current-layer="layer1"
     showgrid="false"
     inkscape:window-width="1600"
     inkscape:window-height="803"
     inkscape:window-x="0"
     inkscape:window-y="0"
     inkscape:window-maximized="1"
     units="px" />
  <metadata
     id="metadata5">
    <rdf:RDF>
      <cc:Work
         rdf:about="">
        <dc:format>image/svg+xml</dc:format>
        <dc:type
           rdf:resource="http://purl.org/dc/dcmitype/StillImage" />
        <dc:title></dc:title>
      </cc:Work>
    </rdf:RDF>
  </metadata>
  <g
     inkscape:label="Layer 1"
     inkscape:groupmode="layer"
     id="layer1"
     transform="translate(0,-263.13332)">
    <g
       id="g1438"
       transform="matrix(1.1574186,0,0,1.1574186,-7.2987601,157.41476)">
      <path
         sodipodi:type="star"
         style="opacity:0.25;fill:#000000;fill-opacity:1;stroke:none;stroke-width:0.2;stroke-miterlimit:4;stroke-dasharray:none;stroke-dashoffset:0;stroke-opacity:1"
         id="path1428"
         sodipodi:sides="8"
         sodipodi:cx="85.765678"
         sodipodi:cy="105.75569"
         sodipodi:r1="14.486971"
         sodipodi:r2="13.384216"
         sodipodi:arg1="0.35877067"
         sodipodi:arg2="0.75146975"
         inkscape:flatsided="true"
         inkscape:rounded="0"
         inkscape:randomized="0"
         d="m 99.330252,110.84241 -7.569822,8.10173 -11.081467,0.37613 -8.101737,-7.56983 -0.376121,-11.08146 7.569822,-8.101741 11.081466,-0.376121 8.101738,7.569822 z"
         inkscape:transform-center-y="-5.8604996e-06"
         transform="rotate(2.1203569,39.053618,-1645.5831)" />
      <path
         transform="rotate(2.1203569,53.351002,-1645.8477)"
         inkscape:transform-center-y="-5.8604996e-06"
         d="m 99.330252,110.84241 -7.569822,8.10173 -11.081467,0.37613 -8.101737,-7.56983 -0.376121,-11.08146 7.569822,-8.101741 11.081466,-0.376121 8.101738,7.569822 z"
         inkscape:randomized="0"
         inkscape:rounded="0"
         inkscape:flatsided="true"
         sodipodi:arg2="0.75146975"
         sodipodi:arg1="0.35877067"
         sodipodi:r2="13.384216"
         sodipodi:r1="14.486971"
         sodipodi:cy="105.75569"
         sodipodi:cx="85.765678"
         sodipodi:sides="8"
         id="path1355"
         style="opacity:1;fill:url(#linearGradient1420);fill-opacity:1;stroke:#800000;stroke-width:0.2;stroke-miterlimit:4;stroke-dasharray:none;stroke-dashoffset:0;stroke-opacity:1"
         sodipodi:type="star" />
      <g
         id="g1426"
         transform="translate(-32.606882,0.52916667)"
         style="opacity:0.25;fill:#000000;fill-opacity:1">
        <path
           sodipodi:nodetypes="cccscscscc"
           d="m 53.838551,110.09264 h -0.460287 l -1.065925,-9.81136 c -0.04845,-0.427986 -0.07268,-0.746957 -0.07268,-0.956912 0,-0.508737 0.13324,-0.916535 0.399721,-1.223392 0.274557,-0.306857 0.601602,-0.460285 0.981136,-0.460285 0.379534,0 0.698504,0.153428 0.95691,0.460285 0.266481,0.306857 0.399722,0.763106 0.399722,1.368745 0,0.193805 -0.01615,0.464324 -0.04845,0.811559 z"
           style="font-style:normal;font-variant:normal;font-weight:normal;font-stretch:normal;font-size:medium;line-height:1.25;font-family:'Times New Roman';-inkscape-font-specification:'Times New Roman, ';letter-spacing:0px;word-spacing:0px;fill:#000000;fill-opacity:1;stroke:none;stroke-width:0.62017477"
           id="path1422"
           inkscape:connector-curvature="0" />
        <path
           sodipodi:nodetypes="scscscscs"
           inkscape:connector-curvature="0"
           id="path1424"
           style="font-style:normal;font-variant:normal;font-weight:normal;font-stretch:normal;font-size:medium;line-height:1.25;font-family:'Times New Roman';-inkscape-font-specification:'Times New Roman, ';letter-spacing:0px;word-spacing:0px;fill:#000000;fill-opacity:1;stroke:none;stroke-width:0.82814687"
           d="m 53.608405,111.0403 c 0.496026,0 0.916569,0.17792 1.26163,0.53376 0.355843,0.34507 0.533766,0.76022 0.533766,1.24547 0,0.49601 -0.177923,0.92194 -0.533766,1.2778 -0.345061,0.34507 -0.765604,0.51759 -1.26163,0.51759 -0.496026,0 -0.921962,-0.17252 -1.277806,-0.51759 -0.345061,-0.35586 -0.517591,-0.78179 -0.517591,-1.2778 0,-0.48525 0.17253,-0.9004 0.517591,-1.24547 0.355844,-0.35584 0.78178,-0.53376 1.277806,-0.53376 z" />
      </g>
      <g
         style="fill:#ebebeb;fill-opacity:1;stroke:#800000;stroke-width:0.1;stroke-miterlimit:4;stroke-dasharray:none"
         transform="translate(-32.606882)"
         id="g1404">
        <path
           inkscape:connector-curvature="0"
           id="path1377"
           style="font-style:normal;font-variant:normal;font-weight:normal;font-stretch:normal;font-size:medium;line-height:1.25;font-family:'Times New Roman';-inkscape-font-specification:'Times New Roman, ';letter-spacing:0px;word-spacing:0px;fill:#ebebeb;fill-opacity:1;stroke:#800000;stroke-width:0.1;stroke-miterlimit:4;stroke-dasharray:none"
           d="m 53.838551,110.09264 h -0.460287 l -1.065925,-9.81136 c -0.04845,-0.427986 -0.07268,-0.746957 -0.07268,-0.956912 0,-0.508737 0.13324,-0.916535 0.399721,-1.223392 0.274557,-0.306857 0.601602,-0.460285 0.981136,-0.460285 0.379534,0 0.698504,0.153428 0.95691,0.460285 0.266481,0.306857 0.399722,0.763106 0.399722,1.368745 0,0.193805 -0.01615,0.464324 -0.04845,0.811559 z"
           sodipodi:nodetypes="cccscscscc" />
        <path
           d="m 53.608405,111.0403 c 0.496026,0 0.916569,0.17792 1.26163,0.53376 0.355843,0.34507 0.533766,0.76022 0.533766,1.24547 0,0.49601 -0.177923,0.92194 -0.533766,1.2778 -0.345061,0.34507 -0.765604,0.51759 -1.26163,0.51759 -0.496026,0 -0.921962,-0.17252 -1.277806,-0.51759 -0.345061,-0.35586 -0.517591,-0.78179 -0.517591,-1.2778 0,-0.48525 0.17253,-0.9004 0.517591,-1.24547 0.355844,-0.35584 0.78178,-0.53376 1.277806,-0.53376 z"
           style="font-style:normal;font-variant:normal;font-weight:normal;font-stretch:normal;font-size:medium;line-height:1.25;font-family:'Times New Roman';-inkscape-font-specification:'Times New Roman, ';letter-spacing:0px;word-spacing:0px;fill:#ebebeb;fill-opacity:1;stroke:#800000;stroke-width:0.1;stroke-miterlimit:4;stroke-dasharray:none"
           id="path1400"
           inkscape:connector-curvature="0"
           sodipodi:nodetypes="scscscscs" />
      </g>
    </g>
  </g>
</svg>
