<?xml version="1.0" encoding="UTF-8" standalone="no"?>
<!-- Created with Inkscape (http://www.inkscape.org/) -->

<svg
   xmlns:dc="http://purl.org/dc/elements/1.1/"
   xmlns:cc="http://creativecommons.org/ns#"
   xmlns:rdf="http://www.w3.org/1999/02/22-rdf-syntax-ns#"
   xmlns:svg="http://www.w3.org/2000/svg"
   xmlns="http://www.w3.org/2000/svg"
   xmlns:sodipodi="http://sodipodi.sourceforge.net/DTD/sodipodi-0.dtd"
   xmlns:inkscape="http://www.inkscape.org/namespaces/inkscape"
   width="128"
   height="128"
   viewBox="0 0 33.866666 33.866668"
   version="1.1"
   id="svg8"
   inkscape:version="0.92.4 (5da689c313, 2019-01-14)"
   sodipodi:docname="hourglass.svg">
  <defs
     id="defs2" />
  <sodipodi:namedview
     id="base"
     pagecolor="#ffffff"
     bordercolor="#666666"
     borderopacity="1.0"
     inkscape:pageopacity="0.0"
     inkscape:pageshadow="2"
     inkscape:zoom="1.6898438"
     inkscape:cx="17.311634"
     inkscape:cy="56.889418"
     inkscape:document-units="mm"
     inkscape:current-layer="layer1"
     showgrid="false"
     inkscape:window-width="1600"
     inkscape:window-height="838"
     inkscape:window-x="-8"
     inkscape:window-y="-8"
     inkscape:window-maximized="1"
     units="px" />
  <metadata
     id="metadata5">
    <rdf:RDF>
      <cc:Work
         rdf:about="">
        <dc:format>image/svg+xml</dc:format>
        <dc:type
           rdf:resource="http://purl.org/dc/dcmitype/StillImage" />
        <dc:title />
      </cc:Work>
    </rdf:RDF>
  </metadata>
  <g
     inkscape:label="Layer 1"
     inkscape:groupmode="layer"
     id="layer1"
     transform="translate(0,-263.13332)">
    <g
       id="g858"
       transform="matrix(1.0017663,0,0,1.0017663,-0.02990934,-0.52272108)">
      <g
         id="g1047"
         transform="matrix(0.74051451,0,0,0.74051451,-0.83901491,262.6185)"
         style="opacity:0.25;fill:#000000;stroke:none;stroke-width:0.1511811;stroke-miterlimit:4;stroke-dasharray:none;stroke-opacity:1">
        <circle
           style="fill:#000000;stroke:none;stroke-width:0.1511811;stroke-miterlimit:4;stroke-dasharray:none;stroke-opacity:1"
           cx="24"
           cy="24"
           r="21"
           id="circle1045" />
      </g>
      <g
         style="stroke:#666666;stroke-width:0.2700825;stroke-miterlimit:4;stroke-dasharray:none;stroke-opacity:1"
         transform="matrix(0.74051451,0,0,0.74051451,-0.83901491,262.02609)"
         id="g929">
        <circle
           id="circle927"
           r="21"
           cy="24"
           cx="24"
           style="fill:#e0e0e0;stroke:#666666;stroke-width:0.2700825;stroke-miterlimit:4;stroke-dasharray:none;stroke-opacity:1" />
      </g>
      <path
         id="path931"
         d="m 16.933333,293.86821 c -7.7583703,0 -14.069775,-6.3114 -14.069775,-14.06978 0,-7.75837 6.3114047,-14.06977 14.069775,-14.06977 7.758371,0 14.069775,6.3114 14.069775,14.06977 0,7.75838 -6.311404,14.06978 -14.069775,14.06978 z"
         style="fill:#3e3a39;stroke-width:0.74051452"
         inkscape:connector-curvature="0" />
      <g
         style="opacity:0.25;fill:#000000"
         id="g841"
         transform="matrix(1.119518,0,0,1.119518,53.042692,-37.571113)">
        <path
           id="path833"
           d="m -31.924064,284.48157 c -0.241432,0.24143 -0.633677,0.24143 -0.875771,0 l -0.06019,-0.0602 c -0.241432,-0.24144 -0.241432,-0.63368 0,-0.87577 l 7.539302,-7.5446 c 0.241433,-0.24143 0.633678,-0.24143 0.875771,0 l 0.06019,0.0602 c 0.241432,0.24144 0.241432,0.63368 0,0.87578 z"
           style="fill:#000000;stroke-width:0.66145831"
           inkscape:connector-curvature="0" />
        <path
           id="path835"
           d="m -31.971689,283.37429 c 0.296333,0.16139 0.405474,0.53247 0.243417,0.82881 l -0.04829,0.0893 c -0.161396,0.29634 -0.532474,0.40548 -0.828807,0.24342 l -5.680604,-3.08372 c -0.296334,-0.1614 -0.405474,-0.53247 -0.243417,-0.82881 l 0.04829,-0.0893 c 0.161396,-0.29634 0.532474,-0.40548 0.828808,-0.24342 z"
           style="fill:#000000;stroke-width:0.66145831"
           inkscape:connector-curvature="0" />
        <g
           style="fill:#000000"
           transform="matrix(0.66145833,0,0,0.66145833,-48.211814,268.08534)"
           id="g839">
          <circle
             id="circle837"
             r="1.5"
             cy="24"
             cx="24"
             style="fill:#000000" />
        </g>
      </g>
      <g
         transform="matrix(1.119518,0,0,1.119518,53.042692,-38.10028)"
         id="g1043">
        <path
           inkscape:connector-curvature="0"
           style="fill:#dcdddd;stroke-width:0.66145831"
           d="m -31.924064,284.48157 c -0.241432,0.24143 -0.633677,0.24143 -0.875771,0 l -0.06019,-0.0602 c -0.241432,-0.24144 -0.241432,-0.63368 0,-0.87577 l 7.539302,-7.5446 c 0.241433,-0.24143 0.633678,-0.24143 0.875771,0 l 0.06019,0.0602 c 0.241432,0.24144 0.241432,0.63368 0,0.87578 z"
           id="path933" />
        <path
           inkscape:connector-curvature="0"
           style="fill:#dcdddd;stroke-width:0.66145831"
           d="m -31.971689,283.37429 c 0.296333,0.16139 0.405474,0.53247 0.243417,0.82881 l -0.04829,0.0893 c -0.161396,0.29634 -0.532474,0.40548 -0.828807,0.24342 l -5.680604,-3.08372 c -0.296334,-0.1614 -0.405474,-0.53247 -0.243417,-0.82881 l 0.04829,-0.0893 c 0.161396,-0.29634 0.532474,-0.40548 0.828808,-0.24342 z"
           id="path935" />
        <g
           id="g943"
           transform="matrix(0.66145833,0,0,0.66145833,-48.211814,268.08534)">
          <circle
             style="fill:#ffffff"
             cx="24"
             cy="24"
             r="1.5"
             id="circle941" />
        </g>
      </g>
    </g>
  </g>
</svg>
