<?xml version="1.0" encoding="UTF-8" standalone="no"?>
<!-- Created with Inkscape (http://www.inkscape.org/) -->

<svg
   xmlns:osb="http://www.openswatchbook.org/uri/2009/osb"
   xmlns:dc="http://purl.org/dc/elements/1.1/"
   xmlns:cc="http://creativecommons.org/ns#"
   xmlns:rdf="http://www.w3.org/1999/02/22-rdf-syntax-ns#"
   xmlns:svg="http://www.w3.org/2000/svg"
   xmlns="http://www.w3.org/2000/svg"
   xmlns:xlink="http://www.w3.org/1999/xlink"
   xmlns:sodipodi="http://sodipodi.sourceforge.net/DTD/sodipodi-0.dtd"
   xmlns:inkscape="http://www.inkscape.org/namespaces/inkscape"
   width="128"
   height="128"
   viewBox="0 0 33.866666 33.866668"
   version="1.1"
   id="svg8"
   sodipodi:docname="klavaro 2.svg"
   inkscape:version="0.92.2 5c3e80d, 2017-08-06">
  <defs
     id="defs2">
    <linearGradient
       id="linearGradient6987"
       osb:paint="solid">
      <stop
         style="stop-color:#77d2fb;stop-opacity:1;"
         offset="0"
         id="stop6985" />
    </linearGradient>
    <linearGradient
       id="linearGradient3023"
       inkscape:collect="always">
      <stop
         id="stop3025"
         offset="0"
         style="stop-color:#191519;stop-opacity:1" />
      <stop
         id="stop3027"
         offset="1"
         style="stop-color:#282528;stop-opacity:1" />
    </linearGradient>
    <linearGradient
       id="linearGradient3047"
       inkscape:collect="always">
      <stop
         id="stop3049"
         offset="0"
         style="stop-color:#181818;stop-opacity:1" />
      <stop
         style="stop-color:#1d1c1d;stop-opacity:1;"
         offset="0.01753731"
         id="stop3096" />
      <stop
         style="stop-color:#353035;stop-opacity:1"
         offset="0.0470827"
         id="stop3055" />
      <stop
         id="stop3057"
         offset="0.16518617"
         style="stop-color:#181418;stop-opacity:1" />
      <stop
         style="stop-color:#181418;stop-opacity:1"
         offset="0.81725568"
         id="stop3059" />
      <stop
         id="stop3094"
         offset="0.93155962"
         style="stop-color:#313031;stop-opacity:1" />
      <stop
         id="stop3092"
         offset="0.98316115"
         style="stop-color:#181718;stop-opacity:1;" />
      <stop
         id="stop3051"
         offset="1"
         style="stop-color:#181818;stop-opacity:1" />
    </linearGradient>
    <linearGradient
       inkscape:collect="always"
       id="linearGradient3041">
      <stop
         style="stop-color:#423c42;stop-opacity:1"
         offset="0"
         id="stop3043" />
      <stop
         style="stop-color:#181418;stop-opacity:1"
         offset="1"
         id="stop3045" />
    </linearGradient>
    <linearGradient
       id="linearGradient3029"
       inkscape:collect="always">
      <stop
         id="stop3031"
         offset="0"
         style="stop-color:#4a494a;stop-opacity:1" />
      <stop
         id="stop3033"
         offset="1"
         style="stop-color:#191519;stop-opacity:0" />
    </linearGradient>
    <linearGradient
       gradientTransform="matrix(0.53683677,0,0,0.50999492,-8.8348292,-232.98308)"
       gradientUnits="userSpaceOnUse"
       y2="975.33282"
       x2="35.355339"
       y1="1030.3622"
       x1="35.355339"
       id="linearGradient3035"
       xlink:href="#linearGradient3029"
       inkscape:collect="always" />
    <linearGradient
       gradientTransform="matrix(0.51749128,0,0,0.49161674,-7.9062475,-214.55688)"
       y2="975.33282"
       x2="35.355339"
       y1="1030.3622"
       x1="35.355339"
       gradientUnits="userSpaceOnUse"
       id="linearGradient3039"
       xlink:href="#linearGradient3041"
       inkscape:collect="always" />
    <linearGradient
       gradientTransform="matrix(0.38151415,0,0,0.38151415,-1.3793455,-103.34467)"
       gradientUnits="userSpaceOnUse"
       y2="1015.6359"
       x2="88.983849"
       y1="1015.6359"
       x1="6.9895725"
       id="linearGradient3053"
       xlink:href="#linearGradient3047"
       inkscape:collect="always" />
    <linearGradient
       gradientUnits="userSpaceOnUse"
       y2="990.01654"
       x2="6.6922607"
       y1="962.45801"
       x1="6.6922607"
       id="linearGradient3030"
       xlink:href="#linearGradient3023"
       inkscape:collect="always"
       gradientTransform="matrix(0.37243049,0,0,0.37243049,-0.94332945,-94.221375)" />
    <linearGradient
       x1="45.447727"
       y1="92.539597"
       x2="45.447727"
       y2="7.0165396"
       id="ButtonShadow"
       gradientUnits="userSpaceOnUse"
       gradientTransform="scale(1.0058652,0.994169)">
      <stop
         id="stop3750"
         style="stop-color:#000000;stop-opacity:1"
         offset="0" />
      <stop
         id="stop3752"
         style="stop-color:#000000;stop-opacity:0.58823532"
         offset="1" />
    </linearGradient>
    <filter
       style="color-interpolation-filters:sRGB"
       id="filter3174">
      <feGaussianBlur
         id="feGaussianBlur3176"
         stdDeviation="1.71" />
    </filter>
  </defs>
  <sodipodi:namedview
     id="base"
     pagecolor="#ffffff"
     bordercolor="#666666"
     borderopacity="1.0"
     inkscape:pageopacity="0.0"
     inkscape:pageshadow="2"
     inkscape:zoom="1.2070313"
     inkscape:cx="88.784091"
     inkscape:cy="137.54709"
     inkscape:document-units="mm"
     inkscape:current-layer="layer1"
     showgrid="false"
     inkscape:window-width="1600"
     inkscape:window-height="803"
     inkscape:window-x="0"
     inkscape:window-y="0"
     inkscape:window-maximized="1"
     units="px" />
  <metadata
     id="metadata5">
    <rdf:RDF>
      <cc:Work
         rdf:about="">
        <dc:format>image/svg+xml</dc:format>
        <dc:type
           rdf:resource="http://purl.org/dc/dcmitype/StillImage" />
        <dc:title />
      </cc:Work>
    </rdf:RDF>
  </metadata>
  <g
     inkscape:label="Layer 1"
     inkscape:groupmode="layer"
     id="layer1"
     transform="translate(0,-263.13332)">
    <g
       transform="matrix(0.38805556,0,0,0.38805556,41.10091,111.96034)"
       id="layer1-6"
       inkscape:label="Capa 1" />
    <g
       transform="matrix(-0.38805556,0,0,0.38805556,54.31244,111.96034)"
       id="layer1-6-2"
       inkscape:label="Capa 1" />
    <g
       transform="matrix(0.38805556,0,0,-0.38805556,41.10091,344.01051)"
       id="layer1-6-27"
       inkscape:label="Capa 1" />
    <g
       transform="matrix(-0.38805556,0,0,-0.38805556,54.31244,344.01051)"
       id="layer1-6-2-3"
       inkscape:label="Capa 1" />
    <rect
       ry="3.7243049"
       rx="3.7243049"
       y="264.6575"
       x="1.2912531"
       height="31.284161"
       width="31.284161"
       id="rect3515"
       style="opacity:0.25;fill:#000000;fill-opacity:1;stroke:none;stroke-width:0.3724305" />
    <rect
       ry="3.7243049"
       rx="3.7243049"
       y="264.19165"
       x="1.2912531"
       height="31.284161"
       width="31.284161"
       id="rect3021"
       style="fill:url(#linearGradient3053);fill-opacity:1;stroke:none;stroke-width:0.3724305" />
    <rect
       style="fill:url(#linearGradient3030);fill-opacity:1;stroke:none;stroke-width:0.3724305"
       id="rect3019"
       width="31.284161"
       height="31.284161"
       x="1.2912531"
       y="264.19165"
       rx="3.7243049"
       ry="3.7243049" />
    <rect
       style="fill:url(#linearGradient3035);fill-opacity:1;stroke:none;stroke-width:0.3724305"
       id="rect3023"
       width="29.794439"
       height="28.304718"
       x="2.0361135"
       y="264.19165"
       rx="3.546957"
       ry="3.3696096" />
    <rect
       ry="3.2481823"
       rx="3.4191391"
       y="264.70166"
       x="2.5729511"
       height="27.284723"
       width="28.720764"
       id="rect3037"
       style="fill:url(#linearGradient3039);fill-opacity:1;stroke:none;stroke-width:0.3724305" />
    <text
       xml:space="preserve"
       style="font-style:normal;font-weight:normal;font-size:4.4691658px;line-height:0%;font-family:sans-serif;letter-spacing:0px;word-spacing:0px;fill:#000000;fill-opacity:1;stroke:none;stroke-width:0.3724305"
       x="26.190891"
       y="285.34039"
       id="text3039"><tspan
         sodipodi:role="line"
         id="tspan3041"
         x="26.190891"
         y="285.34039"
         style="font-size:14.89721966px;line-height:1.25;font-family:sans-serif;stroke-width:0.3724305"> </tspan></text>
    <g
       transform="matrix(0.26458333,0,0,0.26458333,-216.26908,62.047843)"
       style="display:none"
       id="layer2">
      <rect
         style="opacity:0.9;fill:url(#ButtonShadow);fill-opacity:1;fill-rule:nonzero;stroke:none;filter:url(#filter3174)"
         id="rect3745"
         y="7"
         x="5"
         ry="6"
         rx="6"
         height="85"
         width="86" />
    </g>
    <path
       inkscape:connector-curvature="0"
       style="font-style:normal;font-variant:normal;font-weight:bold;font-stretch:normal;font-size:28px;line-height:125%;font-family:'Nokia Sans S60';-inkscape-font-specification:'Nokia Sans S60 Bold';text-align:center;letter-spacing:0px;word-spacing:0px;text-anchor:middle;fill:#000000;fill-opacity:1;stroke:none;stroke-width:0.3673355;opacity:0.25"
       d="m 24.913344,268.13036 c -0.287546,0 -0.55423,0.0425 -0.815026,0.12627 l 0.16071,0.95277 c 0.290888,-0.067 0.551776,-0.0918 0.769108,-0.0918 0.9061,1e-5 2.039922,0.34868 3.420812,1.05609 -0.337703,0.0268 -1.010596,0.28917 -2.020345,0.79207 -0.752301,0.37214 -1.281321,0.61448 -1.595614,0.71171 -0.310951,0.0972 -0.573288,0.13775 -0.780588,0.13775 H 23.62767 23.60471 23.57027 c -0.481476,0 -0.74047,-0.19937 -0.780588,-0.6084 -0.02675,-0.26486 -0.08381,-0.56062 -0.16071,-0.87242 h -0.964255 c 0.177205,0.50961 0.275499,0.97041 0.275501,1.36603 -2e-6,1.92778 -0.854659,2.89276 -2.559869,2.89277 -0.240736,-1e-5 -0.514106,-0.0267 -0.815026,-0.0804 l -0.183667,0.8839 c 0.421287,0.0469 0.749821,0.0689 0.987214,0.0689 0.892726,0 1.631816,-0.25138 2.226971,-0.75763 0.598492,-0.50291 0.977845,-1.22606 1.124965,-2.1581 0.190578,0.16428 0.479327,0.25254 0.883901,0.25254 h 0.02296 0.401773 c 0.247422,0 0.542857,-0.0534 0.883901,-0.1607 0.34104,-0.10729 0.906503,-0.36822 1.698927,-0.78059 0.842571,-0.4392 1.455508,-0.724 1.836677,-0.83799 0.381159,-0.11733 0.70635,-0.17218 0.987214,-0.17219 v -0.84946 h -0.02296 c -0.02341,10e-6 -0.374457,-0.19033 -1.033131,-0.56248 -0.999726,-0.5666 -1.729232,-0.92817 -2.204013,-1.07905 -0.471443,-0.15421 -0.89827,-0.22958 -1.262716,-0.22958 z"
       id="path1741" />
    <path
       id="path1737"
       d="m 24.913344,267.60119 c -0.287546,0 -0.55423,0.0425 -0.815026,0.12627 l 0.16071,0.95277 c 0.290888,-0.067 0.551776,-0.0918 0.769108,-0.0918 0.9061,10e-6 2.039922,0.34868 3.420812,1.05609 -0.337703,0.0268 -1.010596,0.28917 -2.020345,0.79207 -0.752301,0.37214 -1.281321,0.61448 -1.595614,0.71171 -0.310951,0.0972 -0.573288,0.13775 -0.780588,0.13775 H 23.62767 23.60471 23.57027 c -0.481476,0 -0.74047,-0.19937 -0.780588,-0.6084 -0.02675,-0.26486 -0.08381,-0.56062 -0.16071,-0.87242 h -0.964255 c 0.177205,0.50961 0.275499,0.97041 0.275501,1.36603 -2e-6,1.92778 -0.854659,2.89276 -2.559869,2.89277 -0.240736,-10e-6 -0.514106,-0.0267 -0.815026,-0.0804 l -0.183667,0.8839 c 0.421287,0.0469 0.749821,0.0689 0.987214,0.0689 0.892726,0 1.631816,-0.25138 2.226971,-0.75763 0.598492,-0.50291 0.977845,-1.22606 1.124965,-2.1581 0.190578,0.16428 0.479327,0.25254 0.883901,0.25254 h 0.02296 0.401773 c 0.247422,0 0.542857,-0.0534 0.883901,-0.1607 0.34104,-0.10729 0.906503,-0.36822 1.698927,-0.78059 0.842571,-0.4392 1.455508,-0.724 1.836677,-0.83799 0.381159,-0.11733 0.70635,-0.17218 0.987214,-0.17219 v -0.84946 h -0.02296 c -0.02341,1e-5 -0.374457,-0.19033 -1.033131,-0.56248 -0.999726,-0.5666 -1.729232,-0.92817 -2.204013,-1.07905 -0.471443,-0.15421 -0.89827,-0.22958 -1.262716,-0.22958 z"
       style="font-style:normal;font-variant:normal;font-weight:bold;font-stretch:normal;font-size:28px;line-height:125%;font-family:'Nokia Sans S60';-inkscape-font-specification:'Nokia Sans S60 Bold';text-align:center;letter-spacing:0px;word-spacing:0px;text-anchor:middle;fill:#b5c3ef;fill-opacity:1;stroke:none;stroke-width:0.3673355"
       inkscape:connector-curvature="0" />
    <path
       style="fill:#000000;fill-opacity:1;stroke:none;stroke-width:0.18319009;opacity:0.25"
       id="path1739"
       inkscape:connector-curvature="0"
       d="m 8.2604572,279.79433 c -0.708213,0 -1.282331,0.57412 -1.282331,1.28233 0,0.70821 0.574118,1.28234 1.282331,1.28234 0.708211,0 1.282331,-0.57413 1.282331,-1.28234 0,-0.70821 -0.57412,-1.28233 -1.282331,-1.28233 z m -2.015091,3.29743 v 1.09914 h 1.09914 v 3.29742 h -1.09914 v 1.09914 h 4.3965618 v -1.09914 H 9.5427882 v -4.39656 z" />
    <path
       d="m 8.2604572,279.26516 c -0.708213,0 -1.282331,0.57412 -1.282331,1.28233 0,0.70821 0.574118,1.28234 1.282331,1.28234 0.708211,0 1.282331,-0.57413 1.282331,-1.28234 0,-0.70821 -0.57412,-1.28233 -1.282331,-1.28233 z m -2.015091,3.29743 v 1.09914 h 1.09914 v 3.29742 h -1.09914 v 1.09914 h 4.3965618 v -1.09914 H 9.5427882 v -4.39656 z"
       inkscape:connector-curvature="0"
       id="path3716"
       style="fill:#ffffff;fill-opacity:1;stroke:none;stroke-width:0.18319009" />
  </g>
</svg>
