<?xml version="1.0" encoding="UTF-8" standalone="no"?>
<!-- Generator: Adobe Illustrator 18.0.0, SVG Export Plug-In . SVG Version: 6.00 Build 0)  -->

<svg
   xmlns:dc="http://purl.org/dc/elements/1.1/"
   xmlns:cc="http://creativecommons.org/ns#"
   xmlns:rdf="http://www.w3.org/1999/02/22-rdf-syntax-ns#"
   xmlns:svg="http://www.w3.org/2000/svg"
   xmlns="http://www.w3.org/2000/svg"
   xmlns:xlink="http://www.w3.org/1999/xlink"
   xmlns:sodipodi="http://sodipodi.sourceforge.net/DTD/sodipodi-0.dtd"
   xmlns:inkscape="http://www.inkscape.org/namespaces/inkscape"
   version="1.1"
   id="图层_1"
   x="0px"
   y="0px"
   viewBox="0 0 128 128"
   enable-background="new 0 0 48 48"
   xml:space="preserve"
   sodipodi:docname="kmines.svg"
   width="128"
   height="128"
   inkscape:version="0.92.4 (5da689c313, 2019-01-14)"><metadata
     id="metadata45"><rdf:RDF><cc:Work
         rdf:about=""><dc:format>image/svg+xml</dc:format><dc:type
           rdf:resource="http://purl.org/dc/dcmitype/StillImage" /><dc:title /></cc:Work></rdf:RDF></metadata><defs
     id="defs43"><linearGradient
       inkscape:collect="always"
       id="linearGradient1040"><stop
         style="stop-color:#484848;stop-opacity:1"
         offset="0"
         id="stop1036" /><stop
         style="stop-color:#747474;stop-opacity:1"
         offset="1"
         id="stop1038" /></linearGradient><linearGradient
       inkscape:collect="always"
       xlink:href="#linearGradient1040"
       id="linearGradient1042"
       x1="67.958961"
       y1="95.336037"
       x2="68.17662"
       y2="30.658075"
       gradientUnits="userSpaceOnUse" /></defs><sodipodi:namedview
     pagecolor="#ffffff"
     bordercolor="#666666"
     borderopacity="1"
     objecttolerance="10"
     gridtolerance="10"
     guidetolerance="10"
     inkscape:pageopacity="0"
     inkscape:pageshadow="2"
     inkscape:window-width="1600"
     inkscape:window-height="838"
     id="namedview41"
     showgrid="false"
     inkscape:zoom="1.7383042"
     inkscape:cx="124.48406"
     inkscape:cy="49.39358"
     inkscape:window-x="-8"
     inkscape:window-y="-8"
     inkscape:window-maximized="1"
     inkscape:current-layer="图层_1" /><g
     id="g821"
     transform="matrix(1.0031146,0,0,1.0031146,-0.1993344,-0.38621684)"><circle
       style="opacity:0.25;fill:#000000;fill-opacity:1;stroke:none;stroke-width:0.74520105;stroke-miterlimit:4;stroke-dasharray:none;stroke-dashoffset:0;stroke-opacity:0.61568627"
       id="circle1081"
       cx="64"
       cy="65.172142"
       r="58.827862" /><circle
       r="58.827862"
       cy="63.200462"
       cx="64"
       id="path1732"
       style="opacity:1;fill:#f5f5f5;fill-opacity:1;stroke:#666666;stroke-width:0.745;stroke-miterlimit:4;stroke-dasharray:none;stroke-dashoffset:0;stroke-opacity:1" /><path
       id="path1077"
       d="m 55.672895,22.52021 c -0.862501,0.09385 -1.622301,0.799591 -1.779943,1.652679 l -1.716301,8.708515 c -3.081122,1.204995 -5.976989,2.860559 -8.517888,4.894792 l -8.453365,-2.860558 c -0.878754,-0.302817 -1.944145,0.0895 -2.416083,0.890085 l -8.13661,14.111851 c -0.458315,0.811627 -0.261838,1.934843 0.444949,2.542643 l 6.738091,5.911601 c -0.23714,1.585099 -0.381406,3.179927 -0.381406,4.831148 0,1.651203 0.144197,3.245898 0.381406,4.83113 l -6.738091,5.911898 c -0.706688,0.607815 -0.903264,1.730982 -0.444949,2.542644 l 8.13661,14.111849 c 0.471888,0.800299 1.537289,1.192791 2.4155,0.889921 l 8.454245,-2.860563 c 2.541026,2.034087 5.436755,3.689648 8.517866,4.894774 l 1.716322,8.708531 c 0.174063,0.91159 1.04263,1.64002 1.970573,1.65266 h 16.27236 c 0.927942,-0.0116 1.796509,-0.74115 1.970591,-1.65266 l 1.716292,-8.708531 c 3.081142,-1.204972 5.976998,-2.860559 8.517886,-4.894774 l 8.454243,2.860563 c 0.8783,0.30287 1.943701,-0.08951 2.415492,-0.889921 l 8.136605,-14.111849 c 0.4583,-0.811628 0.26183,-1.934844 -0.44494,-2.542644 l -6.73808,-5.911898 c 0.237123,-1.5851 0.381366,-3.179647 0.381366,-4.83113 0,-1.651221 -0.144353,-3.2459 -0.381366,-4.831148 l 6.73808,-5.911601 c 0.7067,-0.607816 0.90324,-1.730983 0.44494,-2.542643 L 95.210685,35.805723 c -0.470763,-0.801468 -1.537291,-1.194068 -2.414909,-0.891262 l -8.454243,2.86056 c -2.536975,-2.037137 -5.431381,-3.69212 -8.511781,-4.89667 l -1.717467,-8.709245 c -0.174359,-0.911474 -1.043272,-1.640025 -1.970286,-1.652522 h -16.27237 c -0.06363,-0.002 -0.127342,-0.002 -0.190628,0 z"
       inkscape:connector-curvature="0"
       style="isolation:isolate;fill:url(#linearGradient1042);fill-opacity:1;stroke:#353c3e;stroke-width:0.74520105;stroke-miterlimit:4;stroke-dasharray:none;stroke-opacity:1" /></g></svg>