<?xml version="1.0" encoding="UTF-8" standalone="no"?>
<!-- Created with Inkscape (http://www.inkscape.org/) -->

<svg
   xmlns:dc="http://purl.org/dc/elements/1.1/"
   xmlns:cc="http://creativecommons.org/ns#"
   xmlns:rdf="http://www.w3.org/1999/02/22-rdf-syntax-ns#"
   xmlns:svg="http://www.w3.org/2000/svg"
   xmlns="http://www.w3.org/2000/svg"
   xmlns:xlink="http://www.w3.org/1999/xlink"
   xmlns:sodipodi="http://sodipodi.sourceforge.net/DTD/sodipodi-0.dtd"
   xmlns:inkscape="http://www.inkscape.org/namespaces/inkscape"
   width="128"
   height="128"
   viewBox="0 0 33.866666 33.866668"
   version="1.1"
   id="svg8"
   inkscape:version="0.92.2 5c3e80d, 2017-08-06"
   sodipodi:docname="kmoney.svg">
  <defs
     id="defs2">
    <linearGradient
       inkscape:collect="always"
       id="linearGradient1435">
      <stop
         style="stop-color:#b5fb13;stop-opacity:1"
         offset="0"
         id="stop1431" />
      <stop
         style="stop-color:#37cab4;stop-opacity:1"
         offset="1"
         id="stop1433" />
    </linearGradient>
    <linearGradient
       inkscape:collect="always"
       xlink:href="#linearGradient1435"
       id="linearGradient1437"
       x1="-10.912218"
       y1="290.54385"
       x2="1.353744"
       y2="270.09903"
       gradientUnits="userSpaceOnUse"
       gradientTransform="matrix(1.040957,0,0,1.040957,16.847556,-9.0781424)" />
  </defs>
  <sodipodi:namedview
     id="base"
     pagecolor="#ffffff"
     bordercolor="#666666"
     borderopacity="1.0"
     inkscape:pageopacity="0.0"
     inkscape:pageshadow="2"
     inkscape:zoom="0.98994949"
     inkscape:cx="-186.85006"
     inkscape:cy="53.18676"
     inkscape:document-units="mm"
     inkscape:current-layer="layer1"
     showgrid="false"
     units="px"
     inkscape:window-width="1549"
     inkscape:window-height="856"
     inkscape:window-x="51"
     inkscape:window-y="0"
     inkscape:window-maximized="1" />
  <metadata
     id="metadata5">
    <rdf:RDF>
      <cc:Work
         rdf:about="">
        <dc:format>image/svg+xml</dc:format>
        <dc:type
           rdf:resource="http://purl.org/dc/dcmitype/StillImage" />
        <dc:title />
      </cc:Work>
    </rdf:RDF>
  </metadata>
  <g
     inkscape:label="Layer 1"
     inkscape:groupmode="layer"
     id="layer1"
     transform="translate(0,-263.13332)">
    <g
       id="g3985"
       transform="matrix(0.9976436,0,0,0.9976436,0.039902,0.69736744)">
      <rect
         style="opacity:0.25;fill:#000000;fill-opacity:1;stroke:none;stroke-width:0.19455485;stroke-miterlimit:4;stroke-dasharray:none;stroke-dashoffset:0;stroke-opacity:1"
         id="rect1483"
         width="31.19915"
         height="31.19915"
         x="1.333758"
         y="264.74249"
         ry="3.0360653" />
      <rect
         ry="3.0360653"
         y="264.19165"
         x="1.333758"
         height="31.19915"
         width="31.19915"
         id="rect1429"
         style="opacity:1;fill:url(#linearGradient1437);fill-opacity:1;stroke:#1c665b;stroke-width:0.15000001;stroke-miterlimit:4;stroke-dasharray:none;stroke-dashoffset:0;stroke-opacity:1" />
      <g
         transform="matrix(1.072922,0,0,1.072922,-1.2348123,-20.64658)"
         id="g3976">
        <g
           transform="matrix(2.5458681,0,0,2.5458681,51.875095,-488.19261)"
           id="g3970"
           style="font-style:normal;font-weight:normal;font-size:10.58333302px;line-height:1.25;font-family:sans-serif;letter-spacing:0px;word-spacing:0px;opacity:0.25;fill:#000000;fill-opacity:1;stroke:none;stroke-width:0.26458332"
           aria-label="$">
          <path
             inkscape:connector-curvature="0"
             id="path3968"
             style="font-style:normal;font-variant:normal;font-weight:normal;font-stretch:normal;font-family:'Lucida Grande';-inkscape-font-specification:'Lucida Grande';fill:#000000;fill-opacity:1;stroke-width:0.26458332"
             d="m -13.851498,306.32904 v -0.63562 q -0.909506,0 -2.041219,-0.42891 v -0.8785 q 1.167887,0.5426 2.041219,0.5426 v -2.74402 q -1.049032,-0.64079 -1.436605,-1.13171 -0.382406,-0.49093 -0.382406,-1.17306 0,-0.76481 0.496094,-1.26607 0.501261,-0.50643 1.322917,-0.56844 v -0.64079 h 0.506429 v 0.64079 q 0.754476,0 1.658813,0.34623 v 0.83199 q -0.992187,-0.42891 -1.658813,-0.48059 v 2.72335 q 0.279052,0.17053 0.418579,0.25321 0.790649,0.48059 1.080037,0.86817 0.289388,0.38757 0.289388,0.96118 0,0.81649 -0.480591,1.39526 -0.48059,0.57361 -1.307413,0.74931 v 0.63562 z m 0.506429,-1.46244 q 0.894002,-0.3204 0.894002,-1.16272 0,-0.3669 -0.170532,-0.59945 -0.170533,-0.23771 -0.72347,-0.62012 z m -0.506429,-3.73621 v -2.35644 q -0.925008,0.28938 -0.925008,1.0852 0,0.39274 0.191202,0.66146 0.191203,0.26355 0.733806,0.60978 z" />
        </g>
        <g
           aria-label="$"
           style="font-style:normal;font-weight:normal;font-size:10.58333302px;line-height:1.25;font-family:sans-serif;letter-spacing:0px;word-spacing:0px;fill:#dcf4ea;fill-opacity:1;stroke:#1c665b;stroke-width:0.058919;stroke-miterlimit:4;stroke-dasharray:none;stroke-opacity:1"
           id="text3961"
           transform="matrix(2.5458681,0,0,2.5458681,51.875095,-488.72178)">
          <path
             d="m -13.851498,306.32904 v -0.63562 q -0.909506,0 -2.041219,-0.42891 v -0.8785 q 1.167887,0.5426 2.041219,0.5426 v -2.74402 q -1.049032,-0.64079 -1.436605,-1.13171 -0.382406,-0.49093 -0.382406,-1.17306 0,-0.76481 0.496094,-1.26607 0.501261,-0.50643 1.322917,-0.56844 v -0.64079 h 0.506429 v 0.64079 q 0.754476,0 1.658813,0.34623 v 0.83199 q -0.992187,-0.42891 -1.658813,-0.48059 v 2.72335 q 0.279052,0.17053 0.418579,0.25321 0.790649,0.48059 1.080037,0.86817 0.289388,0.38757 0.289388,0.96118 0,0.81649 -0.480591,1.39526 -0.48059,0.57361 -1.307413,0.74931 v 0.63562 z m 0.506429,-1.46244 q 0.894002,-0.3204 0.894002,-1.16272 0,-0.3669 -0.170532,-0.59945 -0.170533,-0.23771 -0.72347,-0.62012 z m -0.506429,-3.73621 v -2.35644 q -0.925008,0.28938 -0.925008,1.0852 0,0.39274 0.191202,0.66146 0.191203,0.26355 0.733806,0.60978 z"
             style="font-style:normal;font-variant:normal;font-weight:normal;font-stretch:normal;font-family:'Lucida Grande';-inkscape-font-specification:'Lucida Grande';fill:#dcf4ea;fill-opacity:1;stroke:#1c665b;stroke-width:0.058919;stroke-miterlimit:4;stroke-dasharray:none;stroke-opacity:1"
             id="path3965"
             inkscape:connector-curvature="0" />
        </g>
      </g>
    </g>
  </g>
</svg>
