<?xml version="1.0" encoding="UTF-8" standalone="no"?>
<!-- Created with Inkscape (http://www.inkscape.org/) -->

<svg
   xmlns:osb="http://www.openswatchbook.org/uri/2009/osb"
   xmlns:dc="http://purl.org/dc/elements/1.1/"
   xmlns:cc="http://creativecommons.org/ns#"
   xmlns:rdf="http://www.w3.org/1999/02/22-rdf-syntax-ns#"
   xmlns:svg="http://www.w3.org/2000/svg"
   xmlns="http://www.w3.org/2000/svg"
   xmlns:xlink="http://www.w3.org/1999/xlink"
   xmlns:sodipodi="http://sodipodi.sourceforge.net/DTD/sodipodi-0.dtd"
   xmlns:inkscape="http://www.inkscape.org/namespaces/inkscape"
   width="128"
   height="128"
   viewBox="0 0 33.866666 33.866668"
   version="1.1"
   id="svg8"
   inkscape:version="0.92.2 5c3e80d, 2017-08-06"
   sodipodi:docname="bittorrent-sync 2.svg">
  <defs
     id="defs2">
    <linearGradient
       id="linearGradient6987"
       osb:paint="solid">
      <stop
         style="stop-color:#77d2fb;stop-opacity:1;"
         offset="0"
         id="stop6985" />
    </linearGradient>
    <linearGradient
       gradientTransform="matrix(0.26458333,0,0,0.26458333,-141.72645,254.03934)"
       inkscape:collect="always"
       xlink:href="#linearGradient944"
       id="linearGradient948"
       gradientUnits="userSpaceOnUse"
       x1="122.34071"
       y1="117.04197"
       x2="84.091423"
       y2="71.020111" />
    <linearGradient
       inkscape:collect="always"
       id="linearGradient944">
      <stop
         style="stop-color:#d5dada;stop-opacity:1"
         offset="0"
         id="stop940" />
      <stop
         style="stop-color:#f1f1f1;stop-opacity:1"
         offset="1"
         id="stop942" />
    </linearGradient>
    <linearGradient
       y2="71.020111"
       x2="84.091423"
       y1="117.04197"
       x1="122.34071"
       gradientTransform="matrix(0.26458333,0,0,0.26458333,-182.74565,256.6161)"
       gradientUnits="userSpaceOnUse"
       id="linearGradient1194"
       xlink:href="#linearGradient944"
       inkscape:collect="always" />
  </defs>
  <sodipodi:namedview
     id="base"
     pagecolor="#ffffff"
     bordercolor="#666666"
     borderopacity="1.0"
     inkscape:pageopacity="0.0"
     inkscape:pageshadow="2"
     inkscape:zoom="0.42246095"
     inkscape:cx="-255.56509"
     inkscape:cy="-27.737899"
     inkscape:document-units="mm"
     inkscape:current-layer="layer1"
     showgrid="false"
     inkscape:window-width="1600"
     inkscape:window-height="803"
     inkscape:window-x="0"
     inkscape:window-y="0"
     inkscape:window-maximized="1"
     units="px" />
  <metadata
     id="metadata5">
    <rdf:RDF>
      <cc:Work
         rdf:about="">
        <dc:format>image/svg+xml</dc:format>
        <dc:type
           rdf:resource="http://purl.org/dc/dcmitype/StillImage" />
        <dc:title />
      </cc:Work>
    </rdf:RDF>
  </metadata>
  <g
     inkscape:label="Layer 1"
     inkscape:groupmode="layer"
     id="layer1"
     transform="translate(0,-263.13332)">
    <path
       inkscape:connector-curvature="0"
       d=""
       style="opacity:1;fill:url(#linearGradient948);fill-opacity:1;stroke:none;stroke-width:0.57240593;stroke-linecap:round;stroke-linejoin:round;stroke-miterlimit:4;stroke-dasharray:none;stroke-dashoffset:0;stroke-opacity:0.03831416;paint-order:fill markers stroke"
       id="path864"
       r="28.431282"
       cy="97.610519"
       cx="103.31834" />
    <path
       inkscape:connector-curvature="0"
       d=""
       style="opacity:1;fill:url(#linearGradient1194);fill-opacity:1;stroke:none;stroke-width:0.57240593;stroke-linecap:round;stroke-linejoin:round;stroke-miterlimit:4;stroke-dasharray:none;stroke-dashoffset:0;stroke-opacity:0.03831416;paint-order:fill markers stroke"
       id="path864-2"
       r="28.431282"
       cy="97.610519"
       cx="103.31834" />
    <g
       id="g2805"
       transform="matrix(0.9836068,0,0,0.9836068,22.859868,-47.689997)">
      <rect
         style="opacity:0.25;fill:#000000;fill-opacity:1;stroke:none;stroke-width:0.75417352;stroke-miterlimit:4;stroke-dasharray:none;stroke-dashoffset:0;stroke-opacity:1"
         id="rect2794"
         width="23.45907"
         height="29.211363"
         x="-69.849014"
         y="313.82977"
         ry="2.6813588"
         transform="rotate(-8.9999998)" />
      <rect
         transform="rotate(-8.9999998)"
         ry="2.6813588"
         y="313.30713"
         x="-69.766235"
         height="29.211363"
         width="23.45907"
         id="rect2327"
         style="opacity:1;fill:#1d83df;fill-opacity:1;stroke:none;stroke-width:0.75417352;stroke-miterlimit:4;stroke-dasharray:none;stroke-dashoffset:0;stroke-opacity:1" />
      <g
         id="g2774"
         style="opacity:0.25;fill:#000000;fill-opacity:1;fill-rule:evenodd"
         transform="matrix(0.46258874,-0.07326686,0.07326686,0.46258874,-232.86058,123.00698)">
        <path
           id="path2772"
           d="M 25.5,14 C 24.672,14 24,14.672 24,15.5 24,16.328 24.672,17 25.5,17 26.328,17 27,16.328 27,15.5 27,14.672 26.328,14 25.5,14 M 43,23 c -0.552,0 -1,0.448 -1,1 0,0.552 0.448,1 1,1 0.552,0 1,-0.448 1,-1 0,-0.552 -0.448,-1 -1,-1 M 7.5,17 C 6.672,17 6,17.672 6,18.5 6,19.328 6.672,20 7.5,20 8.328,20 9,19.328 9,18.5 9,17.672 8.328,17 7.5,17 m 11.775,1.1 c -0.067,0.008 -0.132,0.027 -0.195,0.055 -0.506,0.222 -0.677,0.944 -0.012,2.461 0.666,1.517 1.615,2.568 2.121,2.346 0.506,-0.222 0.376,-1.631 -0.289,-3.148 -0.582,-1.328 -1.153,-1.771 -1.625,-1.713 m -5.988,0.635 c -0.395,-0.034 -0.937,0.359 -0.445,0.918 0.655,0.746 1,2.074 0.416,2.34 -0.587,0.266 -0.544,-0.99 -0.596,-1.658 -0.051,-0.668 -1.677,-1.07 -2.277,-0.242 -0.6,0.828 0.004,1.72 0.598,1.9 0.594,0.181 0.686,0.861 1.039,1.568 0.354,0.707 2.076,0.53 2.496,0 0.42,-0.53 0.681,-1.515 -0.137,-2.424 -0.818,-0.909 -0.57,-1.753 -0.791,-2.217 -0.055,-0.116 -0.171,-0.174 -0.303,-0.186 m 19.494,0.078 c -0.531,-0.125 -0.75,0.875 -0.875,1.813 -0.125,0.938 -0.594,1.906 -0.188,2.094 0.563,0.25 0.85,-1.288 1.486,-1.863 0.636,-0.576 0.107,-1.918 -0.424,-2.043 m -16.781,0.188 c -0.552,0 -1,0.448 -1,1 0,0.552 0.448,1 1,1 0.552,0 1,-0.448 1,-1 0,-0.552 -0.448,-1 -1,-1 m 12.152,0.236 c -0.65,0.048 -1.297,1.157 -1.615,1.926 -0.364,0.878 0.076,2.59 -0.781,3.232 -0.857,0.643 -1.484,0.661 -1.912,0.404 -0.428,-0.257 0.367,-0.224 -0.111,-1.203 -0.479,-0.979 -1.624,-0.673 -1.924,0.09 -0.3,0.763 0.322,0.728 0.107,1.178 -0.214,0.45 -2.036,0.936 -2.443,-0.414 -0.407,-1.35 -1.853,-2.819 -2.303,-2.455 -0.45,0.364 0.054,1.706 1.232,2.777 1.178,1.071 -0.302,1.648 -1.326,0.842 -1.024,-0.807 -2.228,0.613 -3.16,1.563 -0.933,0.949 -1.766,1.014 -2.43,0.445 -0.663,-0.568 -0.08,-2.114 -0.846,-3.668 -0.765,-1.554 -2.286,-0.78 -2.5,0.27 -0.214,1.05 1.92,1.757 1.506,2.34 -0.414,0.583 -2.069,0.451 -2.557,-0.648 -0.487,-1.099 -1.549,-0.743 -1.57,0.156 -0.021,0.9 0.822,0.272 1.48,0.93 l 17,17 17,-17 c 2,-2 -0.29,-1.143 -0.762,-0.693 -0.471,0.45 -1.928,0.815 -2.1,0.322 -0.171,-0.493 1.632,-1.32 2.146,-1.877 0.514,-0.557 1.017,-2.139 0.186,-2.719 -0.831,-0.58 -2.01,0.467 -2.521,1.238 -0.514,0.771 -0.068,2.736 -0.754,3.336 -0.686,0.6 -1.063,0.235 -1.191,-0.279 -0.129,-0.514 1.48,-1.237 0.805,-2.516 -0.676,-1.279 -1.924,-0.699 -2.502,-0.1 -0.578,0.6 0.348,1.524 0.563,2.467 0.214,0.943 -1.979,0.919 -2.836,0.576 -0.857,-0.343 -1.136,-2.498 -1.5,-2.627 -0.364,-0.129 -1.292,0.714 -2.471,0.35 -1.178,-0.364 -0.2,-1.09 0.164,-1.947 0.364,-0.857 0.939,-2.922 0.203,-3.246 -0.092,-0.041 -0.185,-0.056 -0.277,-0.049 m 10.348,-1.236 c -0.828,0 -1.5,0.672 -1.5,1.5 0,0.828 0.672,1.5 1.5,1.5 0.828,0 1.5,-0.672 1.5,-1.5 0,-0.828 -0.672,-1.5 -1.5,-1.5 m -34.5,4 c -0.552,0 -1,0.448 -1,1 0,0.552 0.448,1 1,1 0.552,0 1,-0.448 1,-1 0,-0.552 -0.448,-1 -1,-1"
           transform="translate(384.57,499.8)"
           inkscape:connector-curvature="0"
           style="fill:#000000;fill-opacity:1" />
      </g>
      <path
         style="opacity:0.45;fill:#addcfc;fill-opacity:1;stroke-width:2.76087761;stroke-opacity:0.55"
         inkscape:connector-curvature="0"
         d="m -10.643104,326.21841 1.9049711,12.02752 7.4015494,-1.17229 -1.9049717,-12.02752 z"
         id="path1927" />
      <path
         id="path2770"
         d="m -10.421445,327.84414 1.9049712,12.02753 7.4015494,-1.17229 -1.9049717,-12.02753 z"
         inkscape:connector-curvature="0"
         style="opacity:0.35;fill:#addcfc;fill-opacity:1;stroke-width:2.76087761;stroke-opacity:0.55" />
      <path
         sodipodi:nodetypes="ccccc"
         id="path2768"
         d="m -10.0975,329.71441 1.6959895,10.72139 7.3754266,-1.45964 -1.6698666,-10.43404 z"
         inkscape:connector-curvature="0"
         style="opacity:0.75;fill:#addcfc;fill-opacity:1;stroke-width:2.76087761;stroke-opacity:0.55" />
      <g
         transform="matrix(0.46258874,-0.07326686,0.07326686,0.46258874,-232.86058,122.50755)"
         style="fill:#ffffff;fill-opacity:1;fill-rule:evenodd"
         id="g1931">
        <path
           style="fill:#ffffff;fill-opacity:1"
           inkscape:connector-curvature="0"
           transform="translate(384.57,499.8)"
           d="M 25.5,14 C 24.672,14 24,14.672 24,15.5 24,16.328 24.672,17 25.5,17 26.328,17 27,16.328 27,15.5 27,14.672 26.328,14 25.5,14 M 43,23 c -0.552,0 -1,0.448 -1,1 0,0.552 0.448,1 1,1 0.552,0 1,-0.448 1,-1 0,-0.552 -0.448,-1 -1,-1 M 7.5,17 C 6.672,17 6,17.672 6,18.5 6,19.328 6.672,20 7.5,20 8.328,20 9,19.328 9,18.5 9,17.672 8.328,17 7.5,17 m 11.775,1.1 c -0.067,0.008 -0.132,0.027 -0.195,0.055 -0.506,0.222 -0.677,0.944 -0.012,2.461 0.666,1.517 1.615,2.568 2.121,2.346 0.506,-0.222 0.376,-1.631 -0.289,-3.148 -0.582,-1.328 -1.153,-1.771 -1.625,-1.713 m -5.988,0.635 c -0.395,-0.034 -0.937,0.359 -0.445,0.918 0.655,0.746 1,2.074 0.416,2.34 -0.587,0.266 -0.544,-0.99 -0.596,-1.658 -0.051,-0.668 -1.677,-1.07 -2.277,-0.242 -0.6,0.828 0.004,1.72 0.598,1.9 0.594,0.181 0.686,0.861 1.039,1.568 0.354,0.707 2.076,0.53 2.496,0 0.42,-0.53 0.681,-1.515 -0.137,-2.424 -0.818,-0.909 -0.57,-1.753 -0.791,-2.217 -0.055,-0.116 -0.171,-0.174 -0.303,-0.186 m 19.494,0.078 c -0.531,-0.125 -0.75,0.875 -0.875,1.813 -0.125,0.938 -0.594,1.906 -0.188,2.094 0.563,0.25 0.85,-1.288 1.486,-1.863 0.636,-0.576 0.107,-1.918 -0.424,-2.043 m -16.781,0.188 c -0.552,0 -1,0.448 -1,1 0,0.552 0.448,1 1,1 0.552,0 1,-0.448 1,-1 0,-0.552 -0.448,-1 -1,-1 m 12.152,0.236 c -0.65,0.048 -1.297,1.157 -1.615,1.926 -0.364,0.878 0.076,2.59 -0.781,3.232 -0.857,0.643 -1.484,0.661 -1.912,0.404 -0.428,-0.257 0.367,-0.224 -0.111,-1.203 -0.479,-0.979 -1.624,-0.673 -1.924,0.09 -0.3,0.763 0.322,0.728 0.107,1.178 -0.214,0.45 -2.036,0.936 -2.443,-0.414 -0.407,-1.35 -1.853,-2.819 -2.303,-2.455 -0.45,0.364 0.054,1.706 1.232,2.777 1.178,1.071 -0.302,1.648 -1.326,0.842 -1.024,-0.807 -2.228,0.613 -3.16,1.563 -0.933,0.949 -1.766,1.014 -2.43,0.445 -0.663,-0.568 -0.08,-2.114 -0.846,-3.668 -0.765,-1.554 -2.286,-0.78 -2.5,0.27 -0.214,1.05 1.92,1.757 1.506,2.34 -0.414,0.583 -2.069,0.451 -2.557,-0.648 -0.487,-1.099 -1.549,-0.743 -1.57,0.156 -0.021,0.9 0.822,0.272 1.48,0.93 l 17,17 17,-17 c 2,-2 -0.29,-1.143 -0.762,-0.693 -0.471,0.45 -1.928,0.815 -2.1,0.322 -0.171,-0.493 1.632,-1.32 2.146,-1.877 0.514,-0.557 1.017,-2.139 0.186,-2.719 -0.831,-0.58 -2.01,0.467 -2.521,1.238 -0.514,0.771 -0.068,2.736 -0.754,3.336 -0.686,0.6 -1.063,0.235 -1.191,-0.279 -0.129,-0.514 1.48,-1.237 0.805,-2.516 -0.676,-1.279 -1.924,-0.699 -2.502,-0.1 -0.578,0.6 0.348,1.524 0.563,2.467 0.214,0.943 -1.979,0.919 -2.836,0.576 -0.857,-0.343 -1.136,-2.498 -1.5,-2.627 -0.364,-0.129 -1.292,0.714 -2.471,0.35 -1.178,-0.364 -0.2,-1.09 0.164,-1.947 0.364,-0.857 0.939,-2.922 0.203,-3.246 -0.092,-0.041 -0.185,-0.056 -0.277,-0.049 m 10.348,-1.236 c -0.828,0 -1.5,0.672 -1.5,1.5 0,0.828 0.672,1.5 1.5,1.5 0.828,0 1.5,-0.672 1.5,-1.5 0,-0.828 -0.672,-1.5 -1.5,-1.5 m -34.5,4 c -0.552,0 -1,0.448 -1,1 0,0.552 0.448,1 1,1 0.552,0 1,-0.448 1,-1 0,-0.552 -0.448,-1 -1,-1"
           id="path1929" />
      </g>
    </g>
  </g>
</svg>
