<?xml version="1.0" encoding="UTF-8" standalone="no"?>
<!-- Created with Inkscape (http://www.inkscape.org/) -->

<svg
   xmlns:osb="http://www.openswatchbook.org/uri/2009/osb"
   xmlns:dc="http://purl.org/dc/elements/1.1/"
   xmlns:cc="http://creativecommons.org/ns#"
   xmlns:rdf="http://www.w3.org/1999/02/22-rdf-syntax-ns#"
   xmlns:svg="http://www.w3.org/2000/svg"
   xmlns="http://www.w3.org/2000/svg"
   xmlns:xlink="http://www.w3.org/1999/xlink"
   xmlns:sodipodi="http://sodipodi.sourceforge.net/DTD/sodipodi-0.dtd"
   xmlns:inkscape="http://www.inkscape.org/namespaces/inkscape"
   width="128"
   height="128"
   viewBox="0 0 33.866666 33.866668"
   version="1.1"
   id="svg8"
   inkscape:version="0.92.4 (5da689c313, 2019-01-14)"
   sodipodi:docname="leonflix.svg">
  <defs
     id="defs2">
    <linearGradient
       osb:paint="solid"
       id="linearGradient6987">
      <stop
         id="stop6985"
         offset="0"
         style="stop-color:#77d2fb;stop-opacity:1;" />
    </linearGradient>
    <linearGradient
       inkscape:collect="always"
       id="linearGradient1832">
      <stop
         style="stop-color:#208cef;stop-opacity:1"
         offset="0"
         id="stop1828" />
      <stop
         style="stop-color:#2eb2f6;stop-opacity:1"
         offset="1"
         id="stop1830" />
    </linearGradient>
    <linearGradient
       inkscape:collect="always"
       xlink:href="#linearGradient1832"
       id="linearGradient927"
       x1="6.8351774"
       y1="278.7525"
       x2="26.035456"
       y2="278.7525"
       gradientUnits="userSpaceOnUse" />
    <linearGradient
       inkscape:collect="always"
       xlink:href="#linearGradient1832"
       id="linearGradient929"
       x1="15.659252"
       y1="279.81479"
       x2="18.207413"
       y2="279.81479"
       gradientUnits="userSpaceOnUse" />
    <linearGradient
       inkscape:collect="always"
       xlink:href="#linearGradient1832"
       id="linearGradient931"
       x1="12.114949"
       y1="280.37076"
       x2="21.784403"
       y2="280.37076"
       gradientUnits="userSpaceOnUse" />
    <linearGradient
       inkscape:collect="always"
       xlink:href="#linearGradient1832"
       id="linearGradient933"
       x1="7.8313036"
       y1="279.80487"
       x2="26.153284"
       y2="279.80487"
       gradientUnits="userSpaceOnUse" />
  </defs>
  <sodipodi:namedview
     id="base"
     pagecolor="#ffffff"
     bordercolor="#666666"
     borderopacity="1.0"
     inkscape:pageopacity="0.0"
     inkscape:pageshadow="2"
     inkscape:zoom="1.1949"
     inkscape:cx="-69.257672"
     inkscape:cy="73.977112"
     inkscape:document-units="mm"
     inkscape:current-layer="layer1"
     showgrid="false"
     units="px"
     inkscape:window-width="1600"
     inkscape:window-height="838"
     inkscape:window-x="-8"
     inkscape:window-y="-8"
     inkscape:window-maximized="1" />
  <metadata
     id="metadata5">
    <rdf:RDF>
      <cc:Work
         rdf:about="">
        <dc:format>image/svg+xml</dc:format>
        <dc:type
           rdf:resource="http://purl.org/dc/dcmitype/StillImage" />
        <dc:title />
      </cc:Work>
    </rdf:RDF>
  </metadata>
  <g
     inkscape:label="Layer 1"
     inkscape:groupmode="layer"
     id="layer1"
     transform="translate(0,-263.13332)">
    <circle
       r="15.536033"
       cy="280.40561"
       cx="16.933332"
       id="circle916"
       style="opacity:0.25;fill:#000000;fill-opacity:1;stroke:none;stroke-width:0.21549952;stroke-miterlimit:4;stroke-dasharray:none;stroke-opacity:1" />
    <circle
       style="opacity:1;fill:#263238;fill-opacity:1;stroke:none;stroke-width:0.21549952;stroke-miterlimit:4;stroke-dasharray:none;stroke-opacity:1"
       id="path4855"
       cx="16.933332"
       cy="279.83545"
       r="15.536033" />
    <path
       id="path1563"
       d="m 24.006143,279.58811 c 0.208812,-0.29448 0.390852,-0.61037 0.535414,-0.94233 0.342664,-0.69604 0.530059,-1.45632 0.540767,-2.23267 0.0054,-0.54613 -0.117791,-1.08689 -0.353372,-1.57947 -0.149916,-0.30519 -0.401561,-0.54612 -0.712101,-0.67998 -0.192749,-0.0857 -0.390852,-0.14991 -0.599662,-0.18204 -0.251645,-0.0482 -0.508643,-0.0696 -0.765642,-0.0642 -0.658558,0.0107 -1.317116,0.0964 -1.959613,0.257 -0.781703,0.19275 -1.552698,0.44439 -2.302278,0.74958 -1.69726,0.69068 -3.314209,1.57411 -4.813367,2.62888 -0.765641,0.54077 -1.456324,1.17791 -2.050633,1.90072 -0.572892,0.69068 -1.060118,1.45097 -1.461678,2.25409 -0.3747898,0.74422 -0.6692672,1.52057 -0.8780784,2.32369 -0.1820406,0.67998 -0.278415,1.37601 -0.2837692,2.07741 v 0.13385 c 0,0.14456 -0.053541,0.27841 -0.1552698,0.38014 -0.096374,0.10173 -0.2302278,0.16063 -0.3747894,0.16063 -0.1392076,0.005 -0.2784151,-0.0536 -0.3801436,-0.14992 -0.1017286,-0.10173 -0.160624,-0.23558 -0.160624,-0.38014 v -0.13921 c 0,-0.005 0,-0.0107 0,-0.0107 0.00535,-0.79241 0.1124368,-1.57946 0.3212481,-2.34511 0.2248736,-0.87272 0.5461216,-1.72403 0.9530358,-2.52715 0.439039,-0.87807 0.9744525,-1.70261 1.5955325,-2.45754 0.653204,-0.79777 1.413491,-1.50452 2.259444,-2.09883 1.563408,-1.09759 3.24996,-2.0185 5.027533,-2.74131 0.792411,-0.3266 1.611594,-0.58896 2.446838,-0.79777 0.717455,-0.18204 1.461679,-0.27841 2.205905,-0.28912 0.321247,-0.005 0.642495,0.0214 0.95839,0.0803 0.294476,0.0482 0.5836,0.13385 0.856661,0.257 0.540767,0.24093 0.979806,0.66391 1.236805,1.19397 0.310539,0.6425 0.465809,1.34389 0.460455,2.05599 -0.01606,0.92626 -0.230228,1.84182 -0.637142,2.67706 -0.176686,0.39086 -0.390852,0.76565 -0.642495,1.11366 -0.08031,0.11244 -0.208813,0.19275 -0.348019,0.21417 -0.139208,0.0214 -0.28377,-0.0107 -0.396207,-0.0964 -0.117791,-0.0803 -0.192749,-0.20346 -0.219519,-0.34802 -0.02142,-0.13921 0.0107,-0.28377 0.09637,-0.39621 z"
       inkscape:connector-curvature="0"
       style="isolation:isolate;fill:url(#linearGradient933);fill-opacity:1;stroke-width:0.15536617" />
    <path
       id="path1565"
       d="m 16.665626,270.64135 c -0.123146,-0.0696 -0.214166,-0.18739 -0.251645,-0.32125 -0.03213,-0.13921 -0.01606,-0.28377 0.05354,-0.40691 0.0696,-0.12315 0.187395,-0.21417 0.326603,-0.25165 0.133852,-0.0375 0.283768,-0.0214 0.406913,0.0535 0.679976,0.3855 1.274284,0.91021 1.756157,1.53129 0.535413,0.68533 0.979806,1.43491 1.327824,2.23267 0.385498,0.88343 0.696039,1.79364 0.915557,2.73061 0.240936,1.00122 0.401561,2.01851 0.492581,3.04115 0.0589,0.72281 0.09102,1.45097 0.09102,2.17913 0.0054,1.18326 -0.08567,2.37188 -0.273061,3.53908 -0.160624,1.04406 -0.444392,2.06134 -0.845953,3.0358 -0.176686,0.42833 -0.396206,0.8406 -0.653205,1.23145 -0.235581,0.35873 -0.513996,0.68533 -0.829889,0.97445 -0.305186,0.27306 -0.658559,0.49794 -1.038703,0.65321 -0.385497,0.15527 -0.797766,0.23558 -1.215389,0.23558 -0.0054,0 -0.0107,0 -0.0107,0 l -0.117791,-0.005 c 0,0 0,0 -0.0054,0 -0.813829,-0.0214 -1.611595,-0.23558 -2.32905,-0.63179 -0.556829,-0.3159 -1.044056,-0.74423 -1.434907,-1.25287 -0.283769,-0.36408 -0.519351,-0.77099 -0.696038,-1.19932 -0.08567,-0.18205 -0.149915,-0.36944 -0.203457,-0.56219 -0.03212,-0.13921 -0.01606,-0.28377 0.0589,-0.40691 0.0696,-0.12315 0.187395,-0.21417 0.321248,-0.24629 0.139207,-0.0375 0.283769,-0.0161 0.406914,0.0535 0.123145,0.0696 0.214166,0.18739 0.251645,0.3266 0.03748,0.13921 0.08567,0.27841 0.14456,0.41227 0.144562,0.34802 0.337311,0.67462 0.567539,0.9691 0.299832,0.3962 0.679976,0.72816 1.108306,0.97445 0.562185,0.30518 1.193972,0.47652 1.831113,0.49258 l 0.112437,0.005 c 0.278416,0 0.551477,-0.0535 0.808474,-0.15527 0.262353,-0.11244 0.508644,-0.26771 0.722809,-0.46046 0.246291,-0.22487 0.465809,-0.48187 0.653204,-0.76564 0.21952,-0.33195 0.406915,-0.68533 0.562185,-1.04941 0.36408,-0.89949 0.626433,-1.83647 0.770995,-2.79485 0.18204,-1.11367 0.267707,-2.24339 0.262353,-3.37311 0,-0.69604 -0.02677,-1.39207 -0.09102,-2.08811 -0.08031,-0.9691 -0.235582,-1.93284 -0.46581,-2.88053 -0.203456,-0.87807 -0.49258,-1.72938 -0.851307,-2.55392 -0.310539,-0.71745 -0.7121,-1.39207 -1.193972,-2.0078 -0.396205,-0.50864 -0.883432,-0.93697 -1.445615,-1.25822 z"
       inkscape:connector-curvature="0"
       style="isolation:isolate;fill:url(#linearGradient931);fill-opacity:1;stroke-width:0.15536617" />
    <path
       id="path1567"
       d="m 25.301844,283.59835 c 0.133853,-0.0482 0.278415,-0.0482 0.412267,0.0107 0.128501,0.0535 0.230228,0.16062 0.28377,0.28912 0.05354,0.13386 0.04819,0.28377 -0.0054,0.41227 -0.0589,0.1285 -0.160623,0.23558 -0.294478,0.28377 -0.305185,0.12315 -0.615725,0.23023 -0.931619,0.32125 -0.465809,0.13385 -0.936973,0.25164 -1.408138,0.35337 -1.252866,0.27306 -2.532506,0.41227 -3.817497,0.41762 -1.140431,0.0107 -2.286215,-0.1285 -3.394521,-0.42297 -1.263576,-0.35338 -2.47361,-0.8995 -3.571208,-1.62231 -1.081535,-0.70139 -2.07205,-1.54199 -2.9394193,-2.49502 -0.8138285,-0.87273 -1.4938035,-1.85789 -2.0238628,-2.92336 -0.240936,-0.47652 -0.4283307,-0.97981 -0.5675382,-1.49916 -0.1338534,-0.47116 -0.2034571,-0.96374 -0.2088112,-1.46168 -0.00535,-0.51935 0.09102,-1.0387 0.2891232,-1.52057 0.1338533,-0.3266 0.3158939,-0.63179 0.5461216,-0.90485 0.2034571,-0.24093 0.4551015,-0.44975 0.7335165,-0.61037 0.519351,-0.28377 1.1029515,-0.42298 1.6919062,-0.40691 0.481872,0.005 0.95839,0.0696 1.429554,0.19275 0.417622,0.11243 0.829891,0.25164 1.231451,0.41762 0.428331,0.17133 0.840599,0.37479 1.236805,0.60501 0.123145,0.075 0.20881,0.19275 0.246289,0.32661 0.03213,0.1392 0.01606,0.28377 -0.05889,0.40691 -0.0696,0.12315 -0.187395,0.20881 -0.326602,0.24629 -0.139208,0.0375 -0.28377,0.0161 -0.406915,-0.0535 -0.348018,-0.20881 -0.717454,-0.39085 -1.097597,-0.54077 -0.353373,-0.14991 -0.722808,-0.27306 -1.097598,-0.36943 -0.385497,-0.10709 -0.781703,-0.16063 -1.177909,-0.16598 -0.4015604,-0.0107 -0.7977663,0.0857 -1.1457851,0.27841 -0.1659782,0.0964 -0.3158939,0.21952 -0.4443931,0.36944 -0.1552699,0.18204 -0.2784149,0.3855 -0.3694353,0.61037 -0.1392074,0.35337 -0.2141654,0.72816 -0.2088112,1.10831 0.00535,0.40156 0.058895,0.80312 0.1659782,1.19397 0.1231451,0.44975 0.2891232,0.88343 0.4979344,1.30105 0.4872263,0.97446 1.1083058,1.8793 1.8525301,2.67707 0.808475,0.88879 1.729386,1.66514 2.735962,2.31834 1.006577,0.66391 2.10953,1.1672 3.271376,1.48845 1.011933,0.26771 2.055989,0.39621 3.105399,0.3855 1.210034,-0.005 2.414715,-0.13386 3.597977,-0.39086 0.449748,-0.0964 0.894142,-0.20881 1.33318,-0.3373 0.283769,-0.0857 0.562185,-0.17669 0.835246,-0.28913 z"
       inkscape:connector-curvature="0"
       style="isolation:isolate;fill:url(#linearGradient927);fill-opacity:1;stroke-width:0.15536617" />
    <circle
       id="circle1569"
       r="1.1382126"
       cy="279.81479"
       cx="16.933332"
       style="isolation:isolate;vector-effect:non-scaling-stroke;fill:url(#linearGradient929);fill-opacity:1;stroke:#3f3f3f;stroke-width:0.27173543" />
    <path
       id="path1571"
       d="m 16.858039,268.57318 c -0.54628,0.0256 -1.041975,0.32747 -1.315527,0.80102 -0.443435,0.76815 -0.180337,1.75032 0.5877,2.19394 0.768143,0.44344 1.750318,0.18034 2.19394,-0.58769 0.443435,-0.76815 0.180337,-1.75032 -0.5877,-2.19394 -0.266345,-0.15374 -0.571224,-0.22778 -0.878413,-0.21333 z m 8.604261,13.91865 c -0.26918,0.007 -0.532404,0.0806 -0.765474,0.21542 -0.768035,0.44363 -1.031135,1.4258 -0.587698,2.19394 0.443621,0.76804 1.425795,1.03114 2.193939,0.5877 0.768036,-0.44362 1.031134,-1.42579 0.587699,-2.19394 -0.29351,-0.50873 -0.841287,-0.81671 -1.428466,-0.80312 z m -17.095583,2.14166 c -0.887102,0 -1.6062403,0.71914 -1.6062403,1.60624 0,0.8871 0.7191383,1.60624 1.6062403,1.60624 0.887102,0 1.6062402,-0.71914 1.6062402,-1.60624 0,-0.8871 -0.7191382,-1.60624 -1.6062402,-1.60624 z"
       inkscape:connector-curvature="0"
       style="isolation:isolate;fill:#e2f5fd;fill-opacity:1;stroke-width:0.15536617" />
    <path
       id="path1582"
       d="m 16.933331,269.64191 c -0.2957,0 -0.535412,0.23971 -0.535412,0.53541 0,0.29571 0.239712,0.53542 0.535412,0.53542 0.295701,0 0.535414,-0.23971 0.535414,-0.53542 0,-0.2957 -0.239713,-0.53541 -0.535414,-0.53541 z m 8.566616,13.92075 c -0.295701,0 -0.535414,0.23971 -0.535414,0.53541 0,0.29571 0.239713,0.53542 0.535414,0.53542 0.2957,0 0.535413,-0.23971 0.535413,-0.53542 0,-0.2957 -0.239713,-0.53541 -0.535413,-0.53541 z m -17.13323,2.14165 c -0.2957007,0 -0.5354134,0.23972 -0.5354134,0.53542 0,0.2957 0.2397127,0.53541 0.5354134,0.53541 0.2957007,0 0.5354134,-0.23971 0.5354134,-0.53541 0,-0.2957 -0.2397127,-0.53542 -0.5354134,-0.53542 z"
       inkscape:connector-curvature="0"
       style="isolation:isolate;fill:#2496f1;fill-opacity:1;stroke-width:0.15536617" />
  </g>
</svg>
