<?xml version="1.0" encoding="UTF-8" standalone="no"?>
<svg
   xmlns:dc="http://purl.org/dc/elements/1.1/"
   xmlns:cc="http://creativecommons.org/ns#"
   xmlns:rdf="http://www.w3.org/1999/02/22-rdf-syntax-ns#"
   xmlns:svg="http://www.w3.org/2000/svg"
   xmlns="http://www.w3.org/2000/svg"
   xmlns:xlink="http://www.w3.org/1999/xlink"
   xmlns:sodipodi="http://sodipodi.sourceforge.net/DTD/sodipodi-0.dtd"
   xmlns:inkscape="http://www.inkscape.org/namespaces/inkscape"
   width="128"
   height="128"
   version="1.1"
   viewBox="0 0 33.866 33.866"
   id="svg69"
   sodipodi:docname="lollypop.svg"
   inkscape:version="0.92.3 (2405546, 2018-03-11)">
  <metadata
     id="metadata73">
    <rdf:RDF>
      <cc:Work
         rdf:about="">
        <dc:format>image/svg+xml</dc:format>
        <dc:type
           rdf:resource="http://purl.org/dc/dcmitype/StillImage" />
        <dc:title></dc:title>
      </cc:Work>
    </rdf:RDF>
  </metadata>
  <sodipodi:namedview
     pagecolor="#ffffff"
     bordercolor="#666666"
     borderopacity="1"
     objecttolerance="10"
     gridtolerance="10"
     guidetolerance="10"
     inkscape:pageopacity="0"
     inkscape:pageshadow="2"
     inkscape:window-width="1600"
     inkscape:window-height="837"
     id="namedview71"
     showgrid="false"
     inkscape:zoom="1.84375"
     inkscape:cx="-23.858971"
     inkscape:cy="10.939607"
     inkscape:window-x="0"
     inkscape:window-y="30"
     inkscape:window-maximized="1"
     inkscape:current-layer="svg69" />
  <defs
     id="defs42">
    <linearGradient
       id="a"
       x2="0"
       y1="47"
       y2="1"
       gradientTransform="matrix(0.26458,0,0,0.26458,0,284.3)"
       gradientUnits="userSpaceOnUse">
      <stop
         stop-color="#fb5164"
         offset="0"
         id="stop2" />
      <stop
         stop-color="#ee4e8a"
         offset="1"
         id="stop4" />
    </linearGradient>
    <linearGradient
       id="c"
       x1="519.67999"
       x2="519.67999"
       y1="2.8257"
       y2="1026.1"
       gradientTransform="matrix(0.0336318,0,0,0.0336318,-46.450855,1.8189274)"
       gradientUnits="userSpaceOnUse">
      <stop
         stop-color="#fcc"
         offset="0"
         id="stop10" />
      <stop
         stop-color="#faf8f6"
         offset=".5"
         id="stop12" />
      <stop
         stop-color="#ffe5ef"
         offset="1"
         id="stop14" />
    </linearGradient>
    <filter
       id="e"
       x="-0.035863001"
       y="-0.036138002"
       width="1.0717"
       height="1.0723"
       style="color-interpolation-filters:sRGB">
      <feGaussianBlur
         stdDeviation="0.75453"
         id="feGaussianBlur17" />
    </filter>
    <linearGradient
       id="j"
       x1="23.683001"
       x2="25.655001"
       y1="-25.544001"
       y2="75.049004"
       gradientUnits="userSpaceOnUse">
      <stop
         stop-color="#111"
         offset="0"
         id="stop20" />
      <stop
         stop-color="#4c4c4c"
         offset=".54902"
         id="stop22" />
      <stop
         stop-color="#888"
         offset="1"
         id="stop24" />
    </linearGradient>
    <linearGradient
       id="b"
       x1="23.683001"
       x2="25.655001"
       y1="-25.544001"
       y2="75.049004"
       gradientUnits="userSpaceOnUse"
       xlink:href="#j" />
    <linearGradient
       id="g"
       x1="8.4667997"
       x2="8.4667997"
       y1="4.9200001"
       y2="12.028"
       gradientTransform="matrix(2.3094346,0,0,2.3092346,-48.836189,-2.4046007)"
       gradientUnits="userSpaceOnUse">
      <stop
         stop-color="#ffcfcf"
         offset="0"
         id="stop28" />
      <stop
         stop-color="#faf8f6"
         offset=".5"
         id="stop30" />
      <stop
         stop-color="#ffecec"
         offset="1"
         id="stop32" />
    </linearGradient>
    <linearGradient
       id="f"
       x1="8.9153004"
       x2="8.9153004"
       y1="6.3730998"
       y2="10.561"
       gradientUnits="userSpaceOnUse"
       xlink:href="#a"
       gradientTransform="matrix(2.3078192,0,0,2.3076192,-48.768773,-0.51505277)" />
    <linearGradient
       inkscape:collect="always"
       xlink:href="#j"
       id="linearGradient887"
       gradientUnits="userSpaceOnUse"
       x1="23.683001"
       y1="-25.544001"
       x2="25.655001"
       y2="75.049004" />
    <linearGradient
       inkscape:collect="always"
       xlink:href="#a"
       id="linearGradient897"
       gradientUnits="userSpaceOnUse"
       gradientTransform="matrix(0.69022541,0,0,0.69022663,-45.793994,2.4875059)"
       y1="47"
       x2="0"
       y2="1" />
  </defs>
  <g
     id="g939"
     transform="matrix(0.9805688,0,0,0.9805688,45.594241,-1.9479019)">
    <path
       inkscape:connector-curvature="0"
       style="opacity:0.25;fill:#000000;stroke:none;stroke-width:0.19999605;stroke-miterlimit:4;stroke-dasharray:none;stroke-opacity:1"
       id="path924"
       d="m -13.835391,15.533916 c -0.037,-0.146303 -0.07904,-0.302696 -0.122761,-0.457409 -0.03364,-0.114352 -0.06726,-0.230384 -0.105941,-0.353155 -0.05382,-0.17321 -0.114361,-0.353156 -0.178261,-0.533095 -0.216928,-0.613788 -0.47589,-1.212452 -0.778601,-1.804395 -0.127805,-0.248882 -0.26738,-0.502813 -0.413683,-0.753363 -0.682752,-1.160326 -1.540369,-2.2601229 -2.567873,-3.287595 -2.441743,-2.4417425 -5.285238,-3.9234306 -8.531126,-4.4413342 -0.546538,-0.087445 -1.103159,-0.147984 -1.683338,-0.1799353 -0.326239,-0.018498 -0.667629,-0.028588 -1.012349,-0.028588 -0.314466,0 -0.625584,0.00841 -0.938343,0.025225 -3.980565,0.2051618 -7.409281,1.7472273 -10.286486,4.6244992 q -4.649705,4.6497053 -4.649705,11.2248283 c 0,4.384201 1.550484,8.12749 4.649705,11.22651 1.906967,1.905288 4.054503,3.225386 6.427247,3.953679 1.236012,0.378361 2.515748,0.600343 3.859239,0.670987 h 0.01346 c 0.285879,0.0152 0.558301,0.02354 0.824008,0.02354 h 0.100899 c 0.346434,0 0.689473,-0.01 1.012348,-0.0269 0.08408,-0.005 0.159758,-0.01 0.233749,-0.0152 0.679392,-0.04876 1.341945,-0.136221 1.974251,-0.258972 0.267382,-0.05212 0.531415,-0.110981 0.787007,-0.173222 2.71753,-0.682751 5.117196,-2.071781 7.219394,-4.173812 1.634571,-1.634572 2.838621,-3.447201 3.610538,-5.441851 0.620509,-1.602612 0.963582,-3.322919 1.027472,-5.162569 0.0068,-0.203478 0.01,-0.412004 0.01,-0.622223 v -0.100899 c -0.0068,-1.367185 -0.166481,-2.673807 -0.480934,-3.935194 z" />
    <path
       d="m -13.835391,15.00476 c -0.037,-0.146303 -0.07904,-0.302696 -0.122761,-0.457409 -0.03364,-0.114352 -0.06726,-0.230384 -0.105941,-0.353155 -0.05382,-0.17321 -0.114361,-0.353156 -0.178261,-0.533095 -0.216928,-0.613788 -0.47589,-1.212452 -0.778601,-1.804395 -0.127805,-0.248882 -0.26738,-0.502813 -0.413683,-0.753363 -0.682752,-1.1603258 -1.540369,-2.2601231 -2.567873,-3.2875952 -2.441743,-2.4417425 -5.285238,-3.9234306 -8.531126,-4.4413342 -0.546538,-0.087445 -1.103159,-0.147984 -1.683338,-0.1799353 -0.326239,-0.018498 -0.667629,-0.028588 -1.012349,-0.028588 -0.314466,0 -0.625584,0.00841 -0.938343,0.025225 -3.980565,0.2051618 -7.409281,1.7472273 -10.286486,4.6244992 q -4.649705,4.6497055 -4.649705,11.2248285 c 0,4.384201 1.550484,8.12749 4.649705,11.22651 1.906967,1.905288 4.054503,3.225386 6.427247,3.953679 1.236012,0.378361 2.515748,0.600343 3.859239,0.670987 h 0.01346 c 0.285879,0.0152 0.558301,0.02354 0.824008,0.02354 h 0.100899 c 0.346434,0 0.689473,-0.01 1.012348,-0.0269 0.08408,-0.005 0.159758,-0.01 0.233749,-0.0152 0.679392,-0.04876 1.341945,-0.136221 1.974251,-0.258972 0.267382,-0.05212 0.531415,-0.110981 0.787007,-0.173222 2.71753,-0.682751 5.117196,-2.071781 7.219394,-4.173812 1.634571,-1.634572 2.838621,-3.447201 3.610538,-5.441851 0.620509,-1.602612 0.963582,-3.322919 1.027472,-5.162569 0.0068,-0.203478 0.01,-0.412004 0.01,-0.622223 v -0.100899 c -0.0068,-1.367185 -0.166481,-2.673807 -0.480934,-3.935194 z"
       id="path46"
       style="fill:url(#c);stroke:#802933;stroke-width:0.19999605;stroke-miterlimit:4;stroke-dasharray:none;stroke-opacity:1"
       inkscape:connector-curvature="0" />
    <g
       transform="matrix(0.34213228,0,0,0.34213228,-37.749698,10.990587)"
       id="g50"
       style="opacity:0.2;stroke-width:15.68299961;filter:url(#e)">
      <g
         id="g48"
         style="stroke-width:15.68299961" />
    </g>
    <g
       transform="matrix(0.34213228,0,0,0.34213228,-37.749698,10.65316)"
       id="g54"
       style="fill:url(#b);stroke-width:15.68299961">
      <g
         id="g52"
         style="fill:url(#linearGradient887);stroke-width:15.68299961" />
    </g>
    <path
       d="m -29.228375,3.1657844 c -1.565255,0 -3.073118,0.2295712 -4.500109,0.6521909 -1.025242,2.1783174 -0.986111,5.9323281 -0.485229,7.6932437 0.490446,1.719175 1.181768,3.370522 1.89135,5.000999 a 13.362063,13.362086 0 0 1 -3.464432,-1.30699 c -1.880915,-1.087855 -4.552284,-4.213153 -5.269693,-6.7540889 a 15.82734,15.827368 0 0 0 -3.735742,7.4349759 c 1.278292,1.742654 4.226189,3.422698 6.396676,3.96532 1.750478,0.438273 3.521825,0.626104 5.282737,0.777412 -0.813933,0.840022 -1.695693,1.588737 -2.707892,2.186144 -1.886132,1.090463 -5.937535,1.841787 -8.496727,1.186988 a 15.884733,15.884761 0 0 0 4.398367,6.782784 c 2.423537,-0.193042 5.577527,-2.068749 6.81147,-3.391392 1.23916,-1.322643 2.306142,-2.801811 3.349646,-4.2862 0.313051,1.166118 0.516534,2.334844 0.526969,3.521832 0,2.191362 -1.304379,6.114942 -3.052248,7.988034 a 15.926473,15.926501 0 0 0 7.779319,-0.417402 c 0.858283,-1.9644 0.850455,-5.441881 0.260876,-7.628025 -0.474794,-1.779177 -1.173942,-3.446177 -1.893958,-5.087089 1.226116,0.286964 2.400058,0.696541 3.500953,1.317426 1.888742,1.087855 4.567938,4.226197 5.27752,6.77235 a 15.835166,15.835194 0 0 0 3.65487,-7.234102 c -1.387859,-1.990486 -4.567936,-3.769662 -6.32624,-4.181847 -1.750477,-0.406967 -3.547912,-0.594798 -5.342736,-0.753933 a 13.043794,13.043817 0 0 1 2.702672,-2.180926 c 1.886134,-1.087854 5.942753,-1.839178 8.499337,-1.184379 a 15.882124,15.882152 0 0 0 -4.620113,-6.9497455 c -2.147008,0.255659 -5.047948,1.9565727 -6.594941,3.5531355 -1.265248,1.3096 -2.321796,2.760072 -3.344429,4.226197 a 13.779464,13.779489 0 0 1 -0.500882,-3.41748 c 0,-2.1913612 1.30438,-6.1149414 3.049639,-7.9880336 a 15.926473,15.926501 0 0 0 -3.052247,-0.297399 z"
       id="path57"
       style="fill:url(#linearGradient897);stroke:#802933;stroke-width:0.19999605;stroke-miterlimit:4;stroke-dasharray:none;stroke-opacity:1"
       inkscape:connector-curvature="0" />
    <path
       inkscape:connector-curvature="0"
       style="opacity:0.25;fill:#000000;stroke:none;stroke-width:0.09999803;stroke-miterlimit:4;stroke-dasharray:none;stroke-opacity:1"
       id="path926"
       d="m -21.028786,19.762708 a 8.2019893,8.2017401 0 0 1 -16.399363,0 8.2019893,8.2017401 0 1 1 16.399363,0 z" />
    <path
       d="m -21.028786,19.233552 a 8.2019893,8.2017401 0 0 1 -16.399363,0 8.2019893,8.2017401 0 1 1 16.399363,0 z"
       id="path61"
       style="fill:url(#g);stroke:#802933;stroke-width:0.09999803;stroke-miterlimit:4;stroke-dasharray:none;stroke-opacity:1"
       inkscape:connector-curvature="0" />
    <path
       inkscape:connector-curvature="0"
       style="opacity:0.25;fill:#000000;stroke:none;stroke-width:0.19999605;stroke-miterlimit:4;stroke-dasharray:none;stroke-opacity:1"
       id="path922"
       d="m -24.62206,19.875781 -6.877302,4.43986 c -0.270015,0.170763 -0.491565,0.02308 -0.491565,-0.408449 v -8.699724 c 0,-0.491523 0.216935,-0.576905 0.491565,-0.406141 l 6.877302,4.439859 c 0.306938,0.198456 0.293092,0.443063 0,0.634595 z" />
    <path
       d="m -24.62206,19.346625 -6.877302,4.43986 c -0.270015,0.170763 -0.491565,0.02308 -0.491565,-0.408449 v -8.699724 c 0,-0.491523 0.216935,-0.576905 0.491565,-0.406141 l 6.877302,4.439859 c 0.306938,0.198456 0.293092,0.443063 0,0.634595 z"
       id="path65"
       style="fill:url(#f);stroke:#802933;stroke-width:0.09999803;stroke-miterlimit:4;stroke-dasharray:none;stroke-opacity:1"
       inkscape:connector-curvature="0" />
  </g>
</svg>
