<?xml version="1.0" encoding="UTF-8" standalone="no"?>
<!-- Created with Inkscape (http://www.inkscape.org/) -->

<svg
   xmlns:osb="http://www.openswatchbook.org/uri/2009/osb"
   xmlns:dc="http://purl.org/dc/elements/1.1/"
   xmlns:cc="http://creativecommons.org/ns#"
   xmlns:rdf="http://www.w3.org/1999/02/22-rdf-syntax-ns#"
   xmlns:svg="http://www.w3.org/2000/svg"
   xmlns="http://www.w3.org/2000/svg"
   xmlns:xlink="http://www.w3.org/1999/xlink"
   xmlns:sodipodi="http://sodipodi.sourceforge.net/DTD/sodipodi-0.dtd"
   xmlns:inkscape="http://www.inkscape.org/namespaces/inkscape"
   width="128"
   height="128"
   viewBox="0 0 33.866666 33.866668"
   version="1.1"
   id="svg8"
   inkscape:version="0.92.2 5c3e80d, 2017-08-06"
   sodipodi:docname="messengerfordesktop.svg">
  <defs
     id="defs2">
    <linearGradient
       id="linearGradient5048">
      <stop
         id="stop5044"
         style="stop-color:#0e7bed;stop-opacity:1"
         offset="0" />
      <stop
         id="stop5046"
         style="stop-color:#58c5fa;stop-opacity:1"
         offset="1" />
    </linearGradient>
    <linearGradient
       osb:paint="solid"
       id="linearGradient6987">
      <stop
         id="stop6985"
         offset="0"
         style="stop-color:#77d2fb;stop-opacity:1;" />
    </linearGradient>
    <linearGradient
       gradientUnits="userSpaceOnUse"
       y2="168.42587"
       x2="-158.20953"
       y1="-379.9454"
       x1="-612.40222"
       id="linearGradient5042"
       xlink:href="#linearGradient5048"
       inkscape:collect="always" />
    <linearGradient
       inkscape:collect="always"
       xlink:href="#linearGradient5048"
       id="linearGradient1280"
       gradientUnits="userSpaceOnUse"
       x1="-612.40222"
       y1="-379.9454"
       x2="-158.20953"
       y2="168.42587" />
    <linearGradient
       id="linearGradient4342"
       inkscape:collect="always">
      <stop
         id="stop4338"
         offset="0"
         style="stop-color:#f8f8f8;stop-opacity:1" />
      <stop
         id="stop4340"
         offset="1"
         style="stop-color:#d8d8d8;stop-opacity:1" />
    </linearGradient>
    <linearGradient
       inkscape:collect="always"
       xlink:href="#linearGradient4342"
       id="linearGradient1866"
       x1="-38.538448"
       y1="127.51171"
       x2="-18.403261"
       y2="179.61229"
       gradientUnits="userSpaceOnUse"
       gradientTransform="matrix(0.26487927,0,0,0.26487927,24.942778,240.36346)" />
  </defs>
  <sodipodi:namedview
     id="base"
     pagecolor="#ffffff"
     bordercolor="#666666"
     borderopacity="1.0"
     inkscape:pageopacity="0.0"
     inkscape:pageshadow="2"
     inkscape:zoom="1.979899"
     inkscape:cx="-9.252249"
     inkscape:cy="52.36197"
     inkscape:document-units="mm"
     inkscape:current-layer="layer1"
     showgrid="false"
     inkscape:window-width="1600"
     inkscape:window-height="803"
     inkscape:window-x="0"
     inkscape:window-y="0"
     inkscape:window-maximized="1"
     units="px" />
  <metadata
     id="metadata5">
    <rdf:RDF>
      <cc:Work
         rdf:about="">
        <dc:format>image/svg+xml</dc:format>
        <dc:type
           rdf:resource="http://purl.org/dc/dcmitype/StillImage" />
        <dc:title />
      </cc:Work>
    </rdf:RDF>
  </metadata>
  <g
     inkscape:label="Layer 1"
     inkscape:groupmode="layer"
     id="layer1"
     transform="translate(0,-263.13332)">
    <g
       id="g842"
       transform="matrix(0.94647937,0,0,0.94647937,0.90628256,15.038527)">
      <g
         id="g1293"
         transform="matrix(0.05506053,0,0,-0.05506053,33.602083,278.91321)"
         style="opacity:0.25;fill:#000000;fill-opacity:1;stroke-width:3.77530479">
        <path
           d="m 0,0 c 0,-134.36 -135.54,-243.28 -302.74,-243.28 -27.31,0 -53.77,2.91 -78.94,8.36 -0.02,0.01 -0.03,0.01 -0.05,0.01 -0.06,0.01 -0.12,0.02 -0.19,0.03 -7.33,1.52 -10.83,-1.49 -18.83,-8.4 -42.5,-36.08 -90.67,-52.09 -133.5,-52.09 -42.83,0 -45.83,9 -45.83,13.83 0,4.84 3,6.67 8,8.67 57.5,20.83 60.833,60.323 60.833,79.493 -0.167,9.333 -2.334,16.997 -10.833,25.697 -51.67,43.64 -83.39,102.69 -83.39,167.68 0,134.37 135.54,243.29 302.73,243.29 C -135.54,243.29 0,134.37 0,0"
           style="fill:#000000;fill-opacity:1;fill-rule:nonzero;stroke:none;stroke-width:3.77530479"
           id="path1291"
           inkscape:connector-curvature="0" />
      </g>
      <g
         style="fill:url(#linearGradient5042);fill-opacity:1;stroke:#1f5d8c;stroke-width:3.77530479;stroke-opacity:1"
         transform="matrix(0.05506053,0,0,-0.05506053,33.602083,278.35255)"
         id="g4996">
        <path
           inkscape:connector-curvature="0"
           id="path4998"
           style="fill:url(#linearGradient1280);fill-opacity:1;fill-rule:nonzero;stroke:#1f5d8c;stroke-width:3.77530479;stroke-opacity:1"
           d="m 0,0 c 0,-134.36 -135.54,-243.28 -302.74,-243.28 -27.31,0 -53.77,2.91 -78.94,8.36 -0.02,0.01 -0.03,0.01 -0.05,0.01 -0.06,0.01 -0.12,0.02 -0.19,0.03 -7.33,1.52 -10.83,-1.49 -18.83,-8.4 -42.5,-36.08 -90.67,-52.09 -133.5,-52.09 -42.83,0 -45.83,9 -45.83,13.83 0,4.84 3,6.67 8,8.67 57.5,20.83 60.833,60.323 60.833,79.493 -0.167,9.333 -2.334,16.997 -10.833,25.697 -51.67,43.64 -83.39,102.69 -83.39,167.68 0,134.37 135.54,243.29 302.73,243.29 C -135.54,243.29 0,134.37 0,0" />
      </g>
      <path
         inkscape:connector-curvature="0"
         style="opacity:0.25;fill:#000000;stroke-width:2.07512498"
         d="m 18.032629,284.03232 -4.397184,-4.94682 -7.6950682,4.94682 8.7943652,-9.89365 4.397181,5.49646 8.794364,-5.49646 z"
         id="path1289" />
      <path
         id="path8"
         d="m 18.032629,283.61182 -4.397184,-4.94681 -7.6950682,4.94681 8.7943652,-9.89365 4.397181,5.49646 8.794364,-5.49646 z"
         style="fill:url(#linearGradient1866);fill-opacity:1;stroke:#1c5580;stroke-width:0.1;stroke-miterlimit:4;stroke-dasharray:none;stroke-opacity:1"
         inkscape:connector-curvature="0" />
    </g>
  </g>
</svg>
