<?xml version="1.0" encoding="UTF-8" standalone="no"?>
<!-- Created with Inkscape (http://www.inkscape.org/) -->

<svg
   xmlns:dc="http://purl.org/dc/elements/1.1/"
   xmlns:cc="http://creativecommons.org/ns#"
   xmlns:rdf="http://www.w3.org/1999/02/22-rdf-syntax-ns#"
   xmlns:svg="http://www.w3.org/2000/svg"
   xmlns="http://www.w3.org/2000/svg"
   xmlns:xlink="http://www.w3.org/1999/xlink"
   xmlns:sodipodi="http://sodipodi.sourceforge.net/DTD/sodipodi-0.dtd"
   xmlns:inkscape="http://www.inkscape.org/namespaces/inkscape"
   width="128"
   height="128"
   viewBox="0 0 33.866666 33.866668"
   version="1.1"
   id="svg8"
   inkscape:version="0.92.2 5c3e80d, 2017-08-06"
   sodipodi:docname="dd.svg">
  <defs
     id="defs2">
    <linearGradient
       id="linearGradient941"
       inkscape:collect="always">
      <stop
         style="stop-color:#6ba74a;stop-opacity:1"
         offset="0"
         id="stop939" />
      <stop
         style="stop-color:#61b053;stop-opacity:1"
         offset="1"
         id="stop937" />
    </linearGradient>
    <linearGradient
       inkscape:collect="always"
       id="linearGradient925">
      <stop
         style="stop-color:#98d459;stop-opacity:1"
         offset="0"
         id="stop921" />
      <stop
         style="stop-color:#64c962;stop-opacity:1"
         offset="1"
         id="stop923" />
    </linearGradient>
    <linearGradient
       inkscape:collect="always"
       xlink:href="#linearGradient925"
       id="linearGradient927"
       x1="-316.16797"
       y1="304.98801"
       x2="70.595978"
       y2="247.84514"
       gradientUnits="userSpaceOnUse"
       gradientTransform="matrix(0.05544638,0,0,0.05544638,-58.758735,-38.505182)" />
    <linearGradient
       inkscape:collect="always"
       xlink:href="#linearGradient941"
       id="linearGradient935"
       x1="-41.158131"
       y1="159.0565"
       x2="7.6924763"
       y2="117.897"
       gradientUnits="userSpaceOnUse"
       gradientTransform="matrix(0.20956114,0,0,0.20956114,-58.758735,-38.505182)" />
  </defs>
  <sodipodi:namedview
     id="base"
     pagecolor="#ffffff"
     bordercolor="#666666"
     borderopacity="1.0"
     inkscape:pageopacity="0.0"
     inkscape:pageshadow="2"
     inkscape:zoom="3.959798"
     inkscape:cx="90.607987"
     inkscape:cy="49.394351"
     inkscape:document-units="mm"
     inkscape:current-layer="layer1"
     showgrid="false"
     units="px"
     inkscape:window-width="1600"
     inkscape:window-height="803"
     inkscape:window-x="0"
     inkscape:window-y="0"
     inkscape:window-maximized="1" />
  <metadata
     id="metadata5">
    <rdf:RDF>
      <cc:Work
         rdf:about="">
        <dc:format>image/svg+xml</dc:format>
        <dc:type
           rdf:resource="http://purl.org/dc/dcmitype/StillImage" />
        <dc:title></dc:title>
      </cc:Work>
    </rdf:RDF>
  </metadata>
  <g
     inkscape:label="Layer 1"
     inkscape:groupmode="layer"
     id="layer1"
     transform="translate(0,-263.13332)">
    <g
       id="g953"
       transform="matrix(0.98360545,0,0,0.98360545,78.618536,293.71208)">
      <circle
         style="opacity:0.25;fill:#000000;fill-opacity:0.98029552;stroke:none;stroke-width:0.0271219;stroke-miterlimit:4;stroke-dasharray:none;stroke-dashoffset:0;stroke-opacity:1"
         id="circle945"
         cx="-62.71336"
         cy="-13.608262"
         r="15.875" />
      <circle
         r="15.875"
         cy="-14.137428"
         cx="-62.71336"
         id="path908"
         style="opacity:1;fill:#89714e;fill-opacity:1;stroke:none;stroke-width:0.0271219;stroke-miterlimit:4;stroke-dasharray:none;stroke-dashoffset:0;stroke-opacity:1" />
      <path
         sodipodi:nodetypes="cccccccccccccscscscccsccccccccccccccccsccc"
         inkscape:connector-curvature="0"
         id="path884"
         d="m -58.279652,-16.687026 c -0.841841,-6.29e-4 -1.681877,0.01161 -1.721725,0.03677 -0.0464,0.02925 -0.05958,0.185651 -0.07504,0.890497 l -0.01867,0.855102 -0.84248,0.01002 c -0.616516,0.0074 -0.850378,0.02262 -0.871839,0.05638 -0.01611,0.02538 -0.02955,0.422046 -0.02991,0.88158 l -6.28e-4,0.835621 -0.872252,-0.01014 -0.872387,-0.01002 0.01442,-0.750841 c 0.0079,-0.412942 0.0021,-0.805547 -0.01234,-0.872386 l -0.02675,-0.121414 h -0.806123 c -0.48396,0 -0.835268,-0.01565 -0.878834,-0.03896 -0.06843,-0.03662 -0.07257,-0.08664 -0.07257,-0.8776 0,-0.730325 -0.0076,-0.841862 -0.05927,-0.861688 -0.03265,-0.01253 -0.825675,-0.02278 -1.762196,-0.02278 -1.624974,0 -1.704411,0.0031 -1.74025,0.07024 -0.02488,0.04648 -0.03016,2.139563 -0.01563,6.200141 0.01968,5.5143226 0.02782,6.1346278 0.08094,6.1768187 0.04521,0.035915 0.446581,0.046917 1.714319,0.046917 1.265387,0 1.670215,-0.011065 1.718709,-0.046917 0.05835,-0.043155 0.06407,-0.2559181 0.07271,-2.6544795 l 0.0095,-2.6076971 h 0.862922 0.862923 l 0.0188,0.8629224 0.0188,0.8630567 0.872252,0.010017 c 0.479786,0.00553 0.875752,0.00553 0.879931,0 0.004,-0.00553 0.01697,-0.3984407 0.02826,-0.8730737 l 0.02043,-0.8629224 h 0.863059 0.862923 l 0.0093,2.6076992 c 0.0087,2.3985593 0.0145,2.6113393 0.07285,2.6544774 0.08982,0.066408 3.38962,0.068258 3.455938,0.00189 0.03464,-0.034638 0.045,-1.464648 0.045,-6.2082297 0,-6.054989 -0.0013,-6.163904 -0.07257,-6.202063 -0.04709,-0.0252 -0.890725,-0.03843 -1.732566,-0.03896 z"
         style="fill:url(#linearGradient935);fill-opacity:1;stroke-width:0.03751996" />
      <path
         inkscape:connector-curvature="0"
         id="circle916"
         d="m -62.713404,-30.012465 a 15.875,15.875 0 0 0 -14.684629,9.865126 h 29.365575 a 15.875,15.875 0 0 0 -14.680946,-9.865126 z"
         style="opacity:1;fill:url(#linearGradient927);fill-opacity:1;stroke:none;stroke-width:0.0271219;stroke-miterlimit:4;stroke-dasharray:none;stroke-dashoffset:0;stroke-opacity:1" />
    </g>
  </g>
</svg>
