<?xml version="1.0" encoding="UTF-8" standalone="no"?>
<svg
   xmlns:dc="http://purl.org/dc/elements/1.1/"
   xmlns:cc="http://creativecommons.org/ns#"
   xmlns:rdf="http://www.w3.org/1999/02/22-rdf-syntax-ns#"
   xmlns:svg="http://www.w3.org/2000/svg"
   xmlns="http://www.w3.org/2000/svg"
   xmlns:sodipodi="http://sodipodi.sourceforge.net/DTD/sodipodi-0.dtd"
   xmlns:inkscape="http://www.inkscape.org/namespaces/inkscape"
   viewBox="0 0 128 128"
   version="1.1"
   id="svg28"
   sodipodi:docname="ms-excel.svg"
   width="128"
   height="128"
   inkscape:version="0.92.3 (2405546, 2018-03-11)">
  <metadata
     id="metadata34">
    <rdf:RDF>
      <cc:Work
         rdf:about="">
        <dc:format>image/svg+xml</dc:format>
        <dc:type
           rdf:resource="http://purl.org/dc/dcmitype/StillImage" />
        <dc:title>OfficeCore10_32x_24x_20x_16x_01-22-2019</dc:title>
      </cc:Work>
    </rdf:RDF>
  </metadata>
  <defs
     id="defs32" />
  <sodipodi:namedview
     pagecolor="#ffffff"
     bordercolor="#666666"
     borderopacity="1"
     objecttolerance="10"
     gridtolerance="10"
     guidetolerance="10"
     inkscape:pageopacity="0"
     inkscape:pageshadow="2"
     inkscape:window-width="1600"
     inkscape:window-height="837"
     id="namedview30"
     showgrid="false"
     inkscape:zoom="2.6074563"
     inkscape:cx="-5.0091404"
     inkscape:cy="33.863288"
     inkscape:window-x="0"
     inkscape:window-y="30"
     inkscape:window-maximized="1"
     inkscape:current-layer="svg28" />
  <title
     id="title2">OfficeCore10_32x_24x_20x_16x_01-22-2019</title>
  <g
     id="g844"
     transform="matrix(0.99685086,0,0,0.99685086,0.20154561,0.29601839)">
    <path
       style="opacity:0.25;fill:#000000;stroke-width:0.37681302;stroke-miterlimit:4;stroke-dasharray:none"
       inkscape:connector-curvature="0"
       id="path1091"
       d="M 78.952898,65.091063 H 34.093979 v 47.350707 a 4.9844739,4.9844739 0 0 0 4.984213,4.98444 h 79.748958 a 4.9845113,4.9845113 0 0 0 4.98444,-4.98444 V 91.258635 Z" />
    <path
       d="M 78.952898,10.762199 H 39.078192 a 4.9842496,4.9842496 0 0 0 -4.984213,4.984212 v 21.18336 l 44.858919,26.167572 22.429352,9.46354 22.42934,-9.46354 V 36.929771 Z"
       id="path4"
       inkscape:connector-curvature="0"
       style="fill:#21a366;stroke:#114026;stroke-width:0.75590551;stroke-miterlimit:4;stroke-dasharray:none;stroke-opacity:1" />
    <rect
       x="34.093979"
       y="36.929741"
       width="44.858921"
       height="26.167572"
       id="rect6"
       style="fill:#107c41;stroke:#114026;stroke-width:0.75590551;stroke-miterlimit:4;stroke-dasharray:none;stroke-opacity:1" />
    <path
       d="M 118.82715,10.762199 H 78.952898 v 26.167572 h 44.858692 v -21.18336 a 4.984287,4.984287 0 0 0 -4.98444,-4.984212 z"
       id="path8"
       inkscape:connector-curvature="0"
       style="fill:#33c481;stroke:#114026;stroke-width:0.75590551;stroke-miterlimit:4;stroke-dasharray:none;stroke-opacity:1" />
    <path
       d="M 78.952898,63.097343 H 34.093979 v 47.350707 a 4.9844739,4.9844739 0 0 0 4.984213,4.98444 h 79.748958 a 4.9845113,4.9845113 0 0 0 4.98444,-4.98444 V 89.264915 Z"
       id="path10"
       inkscape:connector-curvature="0"
       style="fill:#185c37;stroke:#114026;stroke-width:0.75590551;stroke-miterlimit:4;stroke-dasharray:none;stroke-opacity:1" />
    <rect
       style="fill:#0e6e3a;fill-opacity:1;stroke:#114026;stroke-width:0.75590551;stroke-miterlimit:4;stroke-dasharray:none;stroke-opacity:1"
       id="rect1067"
       height="26.167572"
       width="44.858696"
       y="63.097343"
       x="34.094204" />
    <rect
       x="78.952896"
       y="63.097343"
       width="44.858696"
       height="26.167572"
       id="rect12"
       style="fill:#107c41;stroke:#114026;stroke-width:0.75590551;stroke-miterlimit:4;stroke-dasharray:none;stroke-opacity:1" />
    <path
       style="opacity:0.25;fill:#000000;stroke-width:0.37681302;stroke-miterlimit:4;stroke-dasharray:none"
       inkscape:connector-curvature="0"
       d="M 9.1726936,35.185266 H 59.015787 A 4.9843244,4.9843244 0 0 1 64,40.169591 V 90.012535 A 4.984287,4.984287 0 0 1 59.015825,94.99686 H 9.1726936 A 4.984287,4.984287 0 0 1 4.1884066,90.012535 V 40.169554 a 4.984287,4.984287 0 0 1 4.984287,-4.984288 z"
       data-name="Back Plate"
       id="path1089" />
    <path
       id="Back_Plate"
       data-name="Back Plate"
       d="M 9.1726936,33.191547 H 59.015787 A 4.9843244,4.9843244 0 0 1 64,38.175871 V 88.018816 A 4.984287,4.984287 0 0 1 59.015825,93.00314 H 9.1726936 A 4.984287,4.984287 0 0 1 4.1884066,88.018816 V 38.175834 a 4.984287,4.984287 0 0 1 4.984287,-4.984287 z"
       inkscape:connector-curvature="0"
       style="fill:#107c41;stroke:#114026;stroke-width:0.75590551;stroke-miterlimit:4;stroke-dasharray:none;stroke-opacity:1" />
    <path
       d="M 17.397386,81.788466 29.49316,63.045196 18.414033,44.40622 h 8.915442 l 6.047886,11.913311 q 0.833811,1.695247 1.147037,2.528647 h 0.0782 q 0.599162,-1.354732 1.251295,-2.632943 L 42.318859,44.40622 h 8.185515 L 39.138526,62.940936 50.791133,81.788466 H 42.084247 L 35.097917,68.702063 A 10.921484,10.921484 0 0 1 34.263694,66.95549 h -0.104258 a 8.2487664,8.2487664 0 0 1 -0.80813,1.694425 l -7.194924,13.138551 z"
       id="path23"
       inkscape:connector-curvature="0"
       style="fill:#ffffff;stroke-width:3.73822451" />
  </g>
  <style
     id="style2191"
     type="text/css">
	.st0{fill:url(#SVGID_9_);}
	.st1{opacity:0.52;}
	.st2{fill:#30E195;}
	.st3{opacity:0.12;}
	.st4{fill:#759480;}
	.st5{fill:#1ABA6D;}
	.st6{fill:url(#SVGID_28_);}
	.st7{opacity:0.58;}
	.st8{fill:url(#SVGID_45_);}
	.st9{opacity:0.38;}
	.st10{fill:#41D9FF;}
	.st11{fill:url(#SVGID_72_);}
	.st12{fill:url(#SVGID_93_);}
	.st13{fill:url(#SVGID_104_);}
	.st14{fill:url(#SVGID_117_);}
	.st15{fill:#D86CFF;}
	.st16{fill:url(#SVGID_144_);}
	.st17{fill:#38A8F0;}
	.st18{fill:url(#SVGID_157_);}
	.st19{display:none;}
	.st20{display:inline;}
	.st21{fill:#3B3C3D;}
	.st22{font-family:'Poppins-Light';}
	.st23{font-size:22.1246px;}
	.st24{font-family:'Poppins-Medium';}
</style>
</svg>
