<?xml version="1.0" encoding="UTF-8" standalone="no"?>
<svg
   xmlns:dc="http://purl.org/dc/elements/1.1/"
   xmlns:cc="http://creativecommons.org/ns#"
   xmlns:rdf="http://www.w3.org/1999/02/22-rdf-syntax-ns#"
   xmlns:svg="http://www.w3.org/2000/svg"
   xmlns="http://www.w3.org/2000/svg"
   xmlns:sodipodi="http://sodipodi.sourceforge.net/DTD/sodipodi-0.dtd"
   xmlns:inkscape="http://www.inkscape.org/namespaces/inkscape"
   viewBox="0 0 128 128"
   version="1.1"
   id="svg30"
   sodipodi:docname="ms-people.svg"
   width="128"
   height="128"
   inkscape:version="0.92.3 (2405546, 2018-03-11)">
  <metadata
     id="metadata36">
    <rdf:RDF>
      <cc:Work
         rdf:about="">
        <dc:format>image/svg+xml</dc:format>
        <dc:type
           rdf:resource="http://purl.org/dc/dcmitype/StillImage" />
        <dc:title>OfficeCore10_32x_24x_20x_16x_01-22-2019</dc:title>
      </cc:Work>
    </rdf:RDF>
  </metadata>
  <defs
     id="defs34" />
  <sodipodi:namedview
     pagecolor="#ffffff"
     bordercolor="#666666"
     borderopacity="1"
     objecttolerance="10"
     gridtolerance="10"
     guidetolerance="10"
     inkscape:pageopacity="0"
     inkscape:pageshadow="2"
     inkscape:window-width="1600"
     inkscape:window-height="837"
     id="namedview32"
     showgrid="false"
     inkscape:zoom="3.6875"
     inkscape:cx="51.470636"
     inkscape:cy="49.181183"
     inkscape:window-x="0"
     inkscape:window-y="30"
     inkscape:window-maximized="1"
     inkscape:current-layer="svg30" />
  <title
     id="title2">OfficeCore10_32x_24x_20x_16x_01-22-2019</title>
  <g
     id="g837"
     transform="matrix(0.99685048,0,0,0.99685048,0.20156464,0.29605295)">
    <path
       inkscape:connector-curvature="0"
       id="circle824"
       d="M 67.738784,9.6444502 A 17.445182,17.445182 0 0 0 50.293578,27.089657 17.445182,17.445182 0 0 0 67.738784,44.534863 17.445182,17.445182 0 0 0 85.183996,27.089657 17.445182,17.445182 0 0 0 67.738784,9.6444502 Z M 106.9905,19.61314 A 13.083905,13.083905 0 0 0 93.906599,32.697044 13.083905,13.083905 0 0 0 106.9905,45.780949 13.083905,13.083905 0 0 0 120.07441,32.697044 13.083905,13.083905 0 0 0 106.9905,19.61314 Z M 43.440104,49.519208 a 5.5999113,5.5999113 0 0 0 -5.607388,5.607388 v 35.513456 a 30.804073,30.804073 0 0 0 0.934565,7.476517 31.277785,31.277785 0 0 0 1.234412,3.738261 26.813668,26.813668 0 0 0 1.86913,3.73826 29.886592,29.886592 0 0 0 54.477326,-6.24796 19.144818,19.144818 0 0 0 4.908411,1.8886 18.711891,18.711891 0 0 0 22.55416,-18.303837 V 55.126596 a 5.6073878,5.6073878 0 0 0 -5.60544,-5.607388 H 92.03747 88.819062 Z"
       style="opacity:0.25;fill:#000000;stroke:none;stroke-width:0.37676936;stroke-miterlimit:4;stroke-dasharray:none;stroke-opacity:1" />
    <circle
       id="Head"
       cx="67.738815"
       cy="25.095957"
       r="17.445181"
       style="fill:#7b83eb;stroke:#1f224d;stroke-width:0.75590551;stroke-miterlimit:4;stroke-dasharray:none;stroke-opacity:1" />
    <circle
       id="Head-2"
       data-name="Head"
       cx="106.9905"
       cy="30.703344"
       r="13.083905"
       style="fill:#5059c9;stroke:#1f224d;stroke-width:0.75590551;stroke-miterlimit:4;stroke-dasharray:none;stroke-opacity:1" />
    <path
       d="M 118.20438,47.52547 H 88.818156 a 2.3889715,2.3889715 0 0 0 -2.388971,2.388971 V 80.23269 a 19.144818,19.144818 0 0 0 14.826835,19.00748 18.711891,18.711891 0 0 0 22.5556,-18.303865 V 53.132858 a 5.6073878,5.6073878 0 0 0 -5.60724,-5.607388 z"
       id="path10"
       inkscape:connector-curvature="0"
       style="fill:#5059c9;stroke:#1f224d;stroke-width:0.75590551;stroke-miterlimit:4;stroke-dasharray:none;stroke-opacity:1" />
    <path
       d="M 97.644857,53.132858 V 88.646314 A 29.886592,29.886592 0 0 1 41.870035,103.59935 26.813668,26.813668 0 0 1 40.000906,99.861089 31.277785,31.277785 0 0 1 38.767281,96.122831 30.804073,30.804073 0 0 1 37.832716,88.646314 V 53.132858 A 5.5999113,5.5999113 0 0 1 43.440104,47.52547 H 92.03747 a 5.5999113,5.5999113 0 0 1 5.607387,5.607388 z"
       id="path12"
       inkscape:connector-curvature="0"
       style="fill:#7b83eb;stroke:#1f224d;stroke-width:0.75590551;stroke-miterlimit:4;stroke-dasharray:none;stroke-opacity:1" />
    <path
       style="opacity:0.25;fill:#000000;stroke:none;stroke-width:0.37676936;stroke-miterlimit:4;stroke-dasharray:none;stroke-opacity:1"
       inkscape:connector-curvature="0"
       d="M 9.1727639,34.566174 H 59.016311 a 4.9843322,4.9843322 0 0 1 4.984215,4.984332 V 89.393941 A 4.9843322,4.9843322 0 0 1 59.016311,94.37831 H 9.1727639 A 4.9843696,4.9843696 0 0 1 4.1883893,89.393941 V 39.550543 a 4.9843696,4.9843696 0 0 1 4.9843746,-4.984369 z"
       data-name="Back Plate"
       id="path822" />
    <path
       id="Back_Plate"
       data-name="Back Plate"
       d="M 9.1727639,32.572436 H 59.016311 a 4.9843322,4.9843322 0 0 1 4.984215,4.984333 v 49.843434 a 4.9843322,4.9843322 0 0 1 -4.984215,4.984369 H 9.1727639 A 4.9843696,4.9843696 0 0 1 4.1883893,87.400203 V 37.556805 a 4.9843696,4.9843696 0 0 1 4.9843746,-4.984369 z"
       inkscape:connector-curvature="0"
       style="fill:#4b53bc;stroke:#1f224d;stroke-width:0.75590551;stroke-miterlimit:4;stroke-dasharray:none;stroke-opacity:1" />
    <path
       d="M 48.971271,51.170272 H 37.798364 V 81.152227 H 30.455417 V 51.170272 H 19.217764 v -7.36564 h 29.753507 z"
       id="path25"
       inkscape:connector-curvature="0"
       style="fill:#ffffff;stroke-width:3.7382586" />
  </g>
</svg>
