<?xml version="1.0" encoding="UTF-8" standalone="no"?>
<!-- Created with Inkscape (http://www.inkscape.org/) -->

<svg
   xmlns:osb="http://www.openswatchbook.org/uri/2009/osb"
   xmlns:dc="http://purl.org/dc/elements/1.1/"
   xmlns:cc="http://creativecommons.org/ns#"
   xmlns:rdf="http://www.w3.org/1999/02/22-rdf-syntax-ns#"
   xmlns:svg="http://www.w3.org/2000/svg"
   xmlns="http://www.w3.org/2000/svg"
   xmlns:xlink="http://www.w3.org/1999/xlink"
   xmlns:sodipodi="http://sodipodi.sourceforge.net/DTD/sodipodi-0.dtd"
   xmlns:inkscape="http://www.inkscape.org/namespaces/inkscape"
   width="128"
   height="128"
   viewBox="0 0 33.866666 33.866668"
   version="1.1"
   id="svg8"
   inkscape:version="0.92.3 (2405546, 2018-03-11)"
   sodipodi:docname="muon.svg">
  <defs
     id="defs2">
    <linearGradient
       osb:paint="solid"
       id="linearGradient6987">
      <stop
         id="stop6985"
         offset="0"
         style="stop-color:#77d2fb;stop-opacity:1;" />
    </linearGradient>
    <linearGradient
       id="linearGradient6341"
       inkscape:collect="always">
      <stop
         id="stop6343"
         offset="0"
         style="stop-color:#505658;stop-opacity:1" />
      <stop
         id="stop6345"
         offset="1"
         style="stop-color:#9da7aa;stop-opacity:1" />
    </linearGradient>
    <linearGradient
       id="linearGradient6333"
       inkscape:collect="always">
      <stop
         id="stop6335"
         offset="0"
         style="stop-color:#797979;stop-opacity:1" />
      <stop
         id="stop6337"
         offset="1"
         style="stop-color:#cbe0e7;stop-opacity:1" />
    </linearGradient>
    <linearGradient
       id="linearGradient936"
       inkscape:collect="always">
      <stop
         id="stop932"
         offset="0"
         style="stop-color:#c5c9cc;stop-opacity:1" />
      <stop
         id="stop934"
         offset="1"
         style="stop-color:#aab0b2;stop-opacity:1" />
    </linearGradient>
    <linearGradient
       inkscape:collect="always"
       id="linearGradient5420">
      <stop
         style="stop-color:#d5e3e8;stop-opacity:1"
         offset="0"
         id="stop5416" />
      <stop
         style="stop-color:#a0a0a1;stop-opacity:1"
         offset="1"
         id="stop5418" />
    </linearGradient>
    <radialGradient
       inkscape:collect="always"
       xlink:href="#linearGradient936"
       id="radialGradient898"
       gradientUnits="userSpaceOnUse"
       gradientTransform="matrix(0.09870257,0,0,0.02474713,-32.676608,279.90717)"
       cx="502.62054"
       cy="372.05499"
       fx="502.62054"
       fy="372.05499"
       r="74.884071" />
    <linearGradient
       inkscape:collect="always"
       xlink:href="#linearGradient5420"
       id="linearGradient1206"
       gradientUnits="userSpaceOnUse"
       gradientTransform="matrix(0.10472871,0,0,0.10482225,-35.705468,251.28871)"
       x1="496.5524"
       y1="216.14406"
       x2="504.37988"
       y2="349.10312" />
    <linearGradient
       gradientTransform="matrix(0.20518273,0,0,0.20638881,-11.515885,230.9619)"
       gradientUnits="userSpaceOnUse"
       y2="196.22424"
       x2="142.00493"
       y1="244.68021"
       x1="139.23012"
       id="linearGradient6339"
       xlink:href="#linearGradient6333"
       inkscape:collect="always" />
    <linearGradient
       gradientTransform="matrix(0.20518273,0,0,0.20638881,-11.515885,230.9619)"
       gradientUnits="userSpaceOnUse"
       y2="191.38911"
       x2="136.88582"
       y1="196.25342"
       x1="137.03909"
       id="linearGradient6347"
       xlink:href="#linearGradient6341"
       inkscape:collect="always" />
    <linearGradient
       gradientTransform="matrix(0.20518273,0,0,0.20638881,-11.515885,230.9619)"
       gradientUnits="userSpaceOnUse"
       y2="219.38156"
       x2="136.17715"
       y1="223.40398"
       x1="136.17715"
       id="linearGradient6355"
       xlink:href="#linearGradient6341"
       inkscape:collect="always" />
  </defs>
  <sodipodi:namedview
     id="base"
     pagecolor="#ffffff"
     bordercolor="#666666"
     borderopacity="1.0"
     inkscape:pageopacity="0.0"
     inkscape:pageshadow="2"
     inkscape:zoom="3.6203868"
     inkscape:cx="38.940814"
     inkscape:cy="48.929835"
     inkscape:document-units="mm"
     inkscape:current-layer="layer1"
     showgrid="false"
     units="px"
     inkscape:window-width="1600"
     inkscape:window-height="837"
     inkscape:window-x="0"
     inkscape:window-y="30"
     inkscape:window-maximized="1"
     showguides="false" />
  <metadata
     id="metadata5">
    <rdf:RDF>
      <cc:Work
         rdf:about="">
        <dc:format>image/svg+xml</dc:format>
        <dc:type
           rdf:resource="http://purl.org/dc/dcmitype/StillImage" />
        <dc:title />
      </cc:Work>
    </rdf:RDF>
  </metadata>
  <g
     inkscape:label="Layer 1"
     inkscape:groupmode="layer"
     id="layer1"
     transform="translate(0,-263.13332)">
    <g
       id="g1153"
       transform="matrix(0.99998967,0,0,0.99998967,1.7537632e-4,0.00301046)">
      <path
         style="opacity:0.25;fill:#000000;fill-opacity:1;stroke:none;stroke-width:0.28973773;stroke-miterlimit:4;stroke-dasharray:none;stroke-opacity:1"
         d="m 7.7743372,269.47024 c -0.2455361,-3.9e-4 -0.4579096,0.0402 -0.6304644,0.12613 -0.2807402,0.10418 -0.3996561,0.29953 -0.4806316,0.61769 l -1.9371629,20.54799 c -0.0095,0.10093 -0.00327,0.1988 0.016407,0.29224 1.627e-4,0.001 4.737e-4,0.001 6.316e-4,0.003 -0.0036,0.19152 0.00669,0.3996 0.02061,0.60792 0.016667,0.89723 0.064495,1.93845 0.1441993,2.87242 0.043674,0.77618 0.5196697,1.40407 1.1651887,1.40407 h 0.069073 1.6401832 18.2326749 0.06906 1.640267 0.06906 c 0.645519,0 1.12152,-0.62789 1.165194,-1.40407 0.07969,-0.93397 0.127439,-1.97519 0.144109,-2.87242 0.01392,-0.20823 0.02428,-0.41622 0.02068,-0.60767 1.63e-4,-0.001 4.34e-4,-0.001 6.32e-4,-0.003 0.0197,-0.0934 0.02592,-0.19138 0.0164,-0.29226 l -1.937122,-20.548 c -0.08097,-0.31814 -0.199888,-0.51346 -0.480629,-0.61768 -0.172555,-0.0858 -0.385019,-0.12657 -0.630546,-0.12613 l -9.158908,0.015 z"
         id="path884"
         inkscape:connector-curvature="0" />
      <path
         style="opacity:1;fill:url(#radialGradient898);fill-opacity:1;stroke:#666666;stroke-width:0.19047619;stroke-miterlimit:4;stroke-dasharray:none;stroke-opacity:1"
         d="m 5.1337644,289.686 c -0.4260025,0.0738 -0.416119,0.76611 -0.3699391,1.45766 0.016667,0.89724 0.064423,1.9384 0.1441253,2.87238 0.043677,0.77617 0.5196809,1.40411 1.1652032,1.40411 h 0.069091 1.6402176 18.2326396 0.06909 1.640222 0.06909 c 0.645518,0 1.121529,-0.62794 1.165206,-1.40411 0.07969,-0.93398 0.127454,-1.97514 0.144124,-2.87238 0.04619,-0.69155 0.05607,-1.38378 -0.369934,-1.45766 H 27.023675 17.787957 16.078723 6.8430056 Z"
         id="path886"
         inkscape:connector-curvature="0" />
      <path
         inkscape:connector-curvature="0"
         id="path888"
         d="m 7.7743372,269.20772 c -0.2455361,-3.8e-4 -0.4579096,0.0404 -0.6304644,0.12613 -0.2807402,0.10417 -0.3996561,0.29954 -0.4806316,0.61768 l -1.9371629,20.54801 c -0.0095,0.10093 -0.00327,0.1988 0.016407,0.29224 0.00788,0.0374 0.017894,0.0741 0.029948,0.10992 0.00603,0.018 0.012584,0.0357 0.019603,0.0532 0.02106,0.0524 0.04653,0.10314 0.075884,0.15133 0.048924,0.0805 0.1086592,0.1546 0.1770906,0.22085 0.013694,0.0133 0.027706,0.0261 0.042066,0.0387 0.071815,0.0631 0.1518767,0.11787 0.2379163,0.16298 0.017205,0.009 0.034578,0.0177 0.052246,0.0259 0.1590212,0.0741 0.3360812,0.11552 0.5183198,0.11552 h 22.075536 c 0.425157,0 0.822155,-0.2261 1.027636,-0.56404 0.02936,-0.0483 0.05482,-0.0989 0.07589,-0.15134 0.007,-0.0175 0.01362,-0.0352 0.0196,-0.0532 0.01199,-0.0358 0.02207,-0.0725 0.02995,-0.10992 0.0197,-0.0934 0.02592,-0.19136 0.0164,-0.29225 L 27.203398,269.9514 c -0.08098,-0.31815 -0.199887,-0.51347 -0.480629,-0.61769 -0.172554,-0.0858 -0.385014,-0.12657 -0.630544,-0.12612 l -9.15891,0.0152 z"
         style="opacity:1;fill:#f3fdff;fill-opacity:1;stroke:#666666;stroke-width:0.2857143;stroke-miterlimit:4;stroke-dasharray:none;stroke-opacity:1" />
      <path
         style="opacity:1;fill:url(#linearGradient1206);fill-opacity:1;stroke:none;stroke-width:0.0952381;stroke-miterlimit:4;stroke-dasharray:none;stroke-opacity:1"
         d="m 7.7743372,269.20772 c -0.2455361,-4e-4 -0.4579096,0.0401 -0.6304644,0.12554 -0.2807402,0.10358 -0.3996561,0.29805 -0.4806316,0.61462 l -1.9371629,20.44616 c -0.0095,0.10049 -0.00327,0.19781 0.016407,0.29082 0.00788,0.0373 0.017894,0.0737 0.029948,0.10933 0.00603,0.0178 0.012584,0.0355 0.019603,0.0529 0.02106,0.0522 0.04653,0.10256 0.075884,0.15059 0.048924,0.08 0.1086592,0.15383 0.1770906,0.21974 0.013694,0.0133 0.027706,0.0259 0.042066,0.0386 0.071815,0.0628 0.1518767,0.11729 0.2379163,0.16218 0.017205,0.009 0.034578,0.0175 0.052246,0.0258 0.1590212,0.0737 0.3360812,0.11493 0.5183198,0.11493 h 22.075536 c 0.425157,0 0.822155,-0.22498 1.027636,-0.56124 0.02936,-0.048 0.05482,-0.0984 0.07589,-0.1506 0.007,-0.0174 0.01362,-0.0351 0.0196,-0.0529 0.01199,-0.0357 0.02207,-0.0722 0.02995,-0.10933 0.0197,-0.093 0.02592,-0.19041 0.0164,-0.2908 L 27.20341,269.94788 c -0.08098,-0.31659 -0.199888,-0.51094 -0.480629,-0.61464 -0.172555,-0.0853 -0.385014,-0.12598 -0.630545,-0.12554 l -9.15891,0.015 z"
         id="path890"
         inkscape:connector-curvature="0" />
      <ellipse
         style="opacity:1;fill:#00ff00;fill-opacity:1;stroke:#808080;stroke-width:0.0952381;stroke-linecap:round;stroke-miterlimit:4;stroke-dasharray:none;stroke-opacity:1"
         id="ellipse894"
         cx="8.3948765"
         cy="293.6485"
         rx="0.60773933"
         ry="0.50085163" />
      <g
         id="g922"
         transform="matrix(0.48923252,0,0,0.48977587,1.5742869,173.5766)"
         style="opacity:0.4;fill:#5e6161;fill-opacity:1;stroke:#000000;stroke-width:0.38912073;stroke-miterlimit:4;stroke-dasharray:none;stroke-opacity:1">
        <path
           sodipodi:nodetypes="ccccccc"
           inkscape:connector-curvature="0"
           id="path920"
           d="m 40.325654,211.99733 c -2.767613,-0.96681 -5.826835,-1.47323 -8.931238,-1.47846 -10.94805,-8e-5 -19.823219,6.10149 -19.823079,13.62811 2.78e-4,7.52642 8.875325,13.62767 19.823079,13.62759 10.947552,-1.2e-4 19.822284,-6.10131 19.822562,-13.62759 -0.0041,-2.21231 -0.791611,-4.39066 -2.294432,-6.3469 -0.43408,-16.26084 4.580673,-21.12778 -8.596892,-5.80275 z"
           style="opacity:0.8;fill:#5e6161;fill-opacity:1;stroke:#000000;stroke-width:0.38912073;stroke-miterlimit:4;stroke-dasharray:none;stroke-opacity:1" />
      </g>
      <ellipse
         ry="0.4713504"
         rx="0.62114531"
         cy="290.18796"
         cx="6.3128448"
         id="path4868"
         style="opacity:1;fill:#5e6161;fill-opacity:1;stroke:#808080;stroke-width:0.0952381;stroke-miterlimit:4;stroke-dasharray:none;stroke-opacity:1" />
      <ellipse
         style="opacity:1;fill:#b1b6b8;fill-opacity:1;stroke:#808080;stroke-width:0.19047619;stroke-miterlimit:4;stroke-dasharray:none;stroke-opacity:1"
         id="ellipse924"
         cx="16.933331"
         cy="283.15689"
         rx="3.7228801"
         ry="2.4582441" />
      <ellipse
         style="opacity:1;fill:#5e6161;fill-opacity:1;stroke:#808080;stroke-width:0.0952381;stroke-miterlimit:4;stroke-dasharray:none;stroke-opacity:1"
         id="ellipse938"
         cx="27.535774"
         cy="290.1972"
         rx="0.62114531"
         ry="0.4713504" />
      <ellipse
         style="opacity:1;fill:#5e6161;fill-opacity:1;stroke:#808080;stroke-width:0.0952381;stroke-miterlimit:4;stroke-dasharray:none;stroke-opacity:1"
         id="ellipse942"
         cx="25.845255"
         cy="269.96393"
         rx="0.62114531"
         ry="0.4713504" />
      <ellipse
         ry="0.4713504"
         rx="0.62114531"
         cy="269.96393"
         cx="7.9939966"
         id="ellipse944"
         style="opacity:1;fill:#5e6161;fill-opacity:1;stroke:#808080;stroke-width:0.0952381;stroke-miterlimit:4;stroke-dasharray:none;stroke-opacity:1" />
      <g
         style="fill:#5e6161;fill-opacity:1;stroke:none;stroke-width:0.58467543;stroke-miterlimit:4;stroke-dasharray:none"
         transform="matrix(0.16280018,0,0,0.16298098,-60.071164,215.41905)"
         id="g1025">
        <g
           style="fill:#5e6161;fill-opacity:1;stroke:none;stroke-width:0.60741735;stroke-miterlimit:4;stroke-dasharray:none"
           transform="matrix(1,0,0,0.92652103,-7.4569555,35.588607)"
           id="g1034">
          <rect
             style="opacity:1;fill:#5e6161;fill-opacity:1;stroke:none;stroke-width:0.60741735;stroke-miterlimit:4;stroke-dasharray:none;stroke-opacity:1"
             id="rect4866"
             width="4.0135612"
             height="18.348207"
             x="490.29785"
             y="470.1777"
             rx="5.6981273"
             ry="2.1544261" />
          <rect
             ry="2.1544261"
             rx="5.6981273"
             y="470.1777"
             x="497.26431"
             height="18.348207"
             width="4.0135612"
             id="rect980"
             style="opacity:1;fill:#5e6161;fill-opacity:1;stroke:none;stroke-width:0.60741735;stroke-miterlimit:4;stroke-dasharray:none;stroke-opacity:1" />
          <rect
             style="opacity:1;fill:#5e6161;fill-opacity:1;stroke:none;stroke-width:0.60741735;stroke-miterlimit:4;stroke-dasharray:none;stroke-opacity:1"
             id="rect982"
             width="4.0135612"
             height="18.348207"
             x="504.23572"
             y="470.1777"
             rx="5.6981273"
             ry="2.1544261" />
          <rect
             ry="2.1544261"
             rx="5.6981273"
             y="470.1777"
             x="510.89514"
             height="18.348207"
             width="4.0135612"
             id="rect984"
             style="opacity:1;fill:#5e6161;fill-opacity:1;stroke:none;stroke-width:0.60741735;stroke-miterlimit:4;stroke-dasharray:none;stroke-opacity:1" />
          <rect
             style="opacity:1;fill:#5e6161;fill-opacity:1;stroke:none;stroke-width:0.60741735;stroke-miterlimit:4;stroke-dasharray:none;stroke-opacity:1"
             id="rect992"
             width="4.0135612"
             height="18.348207"
             x="517.9021"
             y="470.1777"
             rx="5.6981273"
             ry="2.1544261" />
          <rect
             ry="2.1544261"
             rx="5.6981273"
             y="470.1777"
             x="524.87354"
             height="18.348207"
             width="4.0135612"
             id="rect994"
             style="opacity:1;fill:#5e6161;fill-opacity:1;stroke:none;stroke-width:0.60741735;stroke-miterlimit:4;stroke-dasharray:none;stroke-opacity:1" />
          <rect
             style="opacity:1;fill:#5e6161;fill-opacity:1;stroke:none;stroke-width:0.60741735;stroke-miterlimit:4;stroke-dasharray:none;stroke-opacity:1"
             id="rect996"
             width="4.0135612"
             height="18.348207"
             x="531.53296"
             y="470.1777"
             rx="5.6981273"
             ry="2.1544261" />
        </g>
      </g>
      <path
         inkscape:connector-curvature="0"
         id="path1033"
         d="M 8.4139198,271.46302 H 21.279081 l 0.23775,2.68416 H 8.1761636 Z"
         style="fill:#606466;fill-opacity:1;stroke:none;stroke-width:0.0952381;stroke-linecap:butt;stroke-linejoin:miter;stroke-miterlimit:4;stroke-dasharray:none;stroke-opacity:1" />
      <path
         style="fill:#5e6566;fill-opacity:1;stroke:#808080;stroke-width:0.0952381;stroke-linecap:round;stroke-linejoin:round;stroke-miterlimit:4;stroke-dasharray:none;stroke-opacity:1"
         d="m 18.78806,273.33665 c 0,0 -0.262843,0.0277 -0.0415,-0.24928 0.272405,-0.31237 0.393632,-0.4587 0.705528,-0.83096 0,0 0.110665,-0.1385 0.276676,0 0.166005,0.13851 0.857699,0.87251 0.857699,0.87251 0,0 0.124507,0.18004 -0.0415,0.19389 -0.61441,-0.0118 -1.141891,-0.0103 -1.756898,0.0133 z"
         id="path1154"
         inkscape:connector-curvature="0"
         sodipodi:nodetypes="ccccccc" />
      <g
         id="text1158"
         style="font-style:normal;font-weight:normal;font-size:6.24831438px;line-height:1.25;font-family:sans-serif;letter-spacing:0px;word-spacing:0px;fill:#c6d4d9;fill-opacity:1;stroke:#808080;stroke-width:0.44541585;stroke-miterlimit:4;stroke-dasharray:none"
         transform="matrix(0.31290214,0,0,0.14611055,2.4587126,233.6534)"
         aria-label="!">
        <path
           id="path1031"
           style="font-style:normal;font-variant:normal;font-weight:normal;font-stretch:normal;font-family:'Times New Roman';-inkscape-font-specification:'Times New Roman, ';fill:#c6d4d9;fill-opacity:1;stroke:#808080;stroke-width:0.44541585;stroke-miterlimit:4;stroke-dasharray:none"
           d="M 54.983476,268.67519 H 54.86754 l -0.268482,-2.47126 q -0.0183,-0.16169 -0.0183,-0.24102 0,-0.19221 0.10068,-0.30814 0.103732,-0.11594 0.247126,-0.11594 0.143394,0 0.241024,0.11594 0.100681,0.11593 0.100681,0.34475 0,0.0732 -0.0122,0.20441 z m -0.06102,0.50646 q 0.140343,0 0.237973,0.10068 0.100681,0.0976 0.100681,0.23492 0,0.14034 -0.100681,0.24102 -0.09763,0.0976 -0.237973,0.0976 -0.140343,0 -0.241024,-0.0976 -0.09763,-0.10068 -0.09763,-0.24102 0,-0.13729 0.09763,-0.23492 0.100681,-0.10068 0.241024,-0.10068 z"
           inkscape:connector-curvature="0" />
      </g>
      <g
         transform="matrix(0.39205073,0,0,0.31221827,1.1210136,-30.653169)"
         style="font-style:normal;font-variant:normal;font-weight:bold;font-stretch:normal;font-size:2.74901938px;line-height:125%;font-family:Arial;-inkscape-font-specification:'Arial Bold';letter-spacing:0px;word-spacing:0px;fill:#d5e3e8;fill-opacity:1;stroke:none;stroke-width:0.272214;stroke-miterlimit:4;stroke-dasharray:none"
         id="g1062">
        <path
           inkscape:connector-curvature="0"
           d="m 19.619068,970.72382 v -1.96781 h 0.397319 v 1.96781 h -0.397319"
           id="path1030"
           style="fill:#d5e3e8;fill-opacity:1;stroke:none;stroke-width:0.272214;stroke-miterlimit:4;stroke-dasharray:none" />
        <path
           inkscape:connector-curvature="0"
           d="m 21.687544,970.72382 h -0.377185 v -0.72753 c -10e-7,-0.15391 -0.0081,-0.25324 -0.02416,-0.29799 -0.01611,-0.0456 -0.04251,-0.081 -0.0792,-0.10604 -0.0358,-0.025 -0.0792,-0.0376 -0.130202,-0.0376 -0.06533,0 -0.123939,0.0179 -0.175841,0.0537 -0.0519,0.0358 -0.0877,0.0832 -0.107383,0.14228 -0.01879,0.0591 -0.02819,0.16824 -0.02819,0.32752 v 0.64565 h -0.377184 v -1.42552 h 0.350339 v 0.2094 c 0.124385,-0.16108 0.280986,-0.24161 0.469803,-0.24162 0.08322,10e-6 0.159284,0.0152 0.22819,0.0456 0.0689,0.0295 0.120805,0.0676 0.155706,0.1141 0.03579,0.0465 0.0604,0.0993 0.07383,0.15839 0.01432,0.0591 0.02147,0.14362 0.02148,0.25369 v 0.88592"
           id="path1032"
           style="fill:#d5e3e8;fill-opacity:1;stroke:none;stroke-width:0.272214;stroke-miterlimit:4;stroke-dasharray:none" />
        <path
           inkscape:connector-curvature="0"
           d="m 22.725138,969.2983 v 0.30067 h -0.257721 v 0.57451 c -1e-6,0.11633 0.0022,0.18434 0.0067,0.20402 0.0054,0.0188 0.01655,0.0345 0.03356,0.047 0.0179,0.0125 0.03937,0.0188 0.06443,0.0188 0.0349,0 0.08546,-0.0121 0.151679,-0.0362 l 0.03222,0.29262 c -0.0877,0.0376 -0.187027,0.0564 -0.297989,0.0564 -0.06801,0 -0.129308,-0.0112 -0.183894,-0.0336 -0.05459,-0.0233 -0.09486,-0.0528 -0.120807,-0.0886 -0.02506,-0.0367 -0.04251,-0.0859 -0.05235,-0.14765 -0.0081,-0.0439 -0.01208,-0.13244 -0.01208,-0.26577 v -0.62149 H 21.91573 v -0.30067 h 0.173156 v -0.28323 l 0.378527,-0.22013 v 0.50336 h 0.257721"
           id="path1034"
           style="fill:#d5e3e8;fill-opacity:1;stroke:none;stroke-width:0.272214;stroke-miterlimit:4;stroke-dasharray:none" />
        <path
           inkscape:connector-curvature="0"
           d="m 23.815081,970.27012 0.375842,0.0631 c -0.04832,0.13781 -0.124834,0.24295 -0.229532,0.31544 -0.103805,0.0716 -0.234008,0.10738 -0.390608,0.10738 -0.247877,0 -0.431324,-0.081 -0.550341,-0.24295 -0.09396,-0.12976 -0.140941,-0.29352 -0.140941,-0.49128 0,-0.23625 0.06175,-0.42104 0.185237,-0.55437 0.123491,-0.13423 0.279644,-0.20134 0.468461,-0.20135 0.212082,1e-5 0.379421,0.0702 0.502018,0.21074 0.122595,0.1396 0.181208,0.35392 0.175841,0.64296 h -0.944976 c 0.0027,0.11186 0.03311,0.19911 0.09128,0.26175 0.05817,0.0617 0.13065,0.0926 0.217452,0.0926 0.05906,0 0.108725,-0.0161 0.148995,-0.0483 0.04027,-0.0322 0.07069,-0.0841 0.09128,-0.15571 m 0.02148,-0.38121 c -0.0027,-0.10917 -0.03087,-0.19195 -0.08457,-0.24833 -0.05369,-0.0573 -0.119018,-0.0859 -0.195975,-0.0859 -0.08233,0 -0.150338,0.03 -0.204029,0.0899 -0.05369,0.06 -0.08009,0.14139 -0.07919,0.2443 h 0.563764"
           id="path1036"
           style="fill:#d5e3e8;fill-opacity:1;stroke:none;stroke-width:0.272214;stroke-miterlimit:4;stroke-dasharray:none" />
        <path
           inkscape:connector-curvature="0"
           d="m 24.880863,970.72382 h -0.377185 v -1.42552 h 0.350339 v 0.20269 c 0.05996,-0.0957 0.113647,-0.15884 0.161075,-0.18927 0.04832,-0.0304 0.102909,-0.0456 0.16376,-0.0456 0.08591,10e-6 0.168681,0.0237 0.248325,0.0711 l -0.11678,0.32886 c -0.06354,-0.0412 -0.122597,-0.0618 -0.177183,-0.0618 -0.0528,0 -0.09754,0.0148 -0.134229,0.0443 -0.03669,0.0286 -0.06577,0.081 -0.08725,0.15705 -0.02058,0.0761 -0.03087,0.23535 -0.03087,0.47785 v 0.44028"
           id="path1038"
           style="fill:#d5e3e8;fill-opacity:1;stroke:none;stroke-width:0.272214;stroke-miterlimit:4;stroke-dasharray:none" />
        <path
           inkscape:connector-curvature="0"
           d="m 26.884909,970.72382 h -0.377185 v -0.72753 c -1e-6,-0.15391 -0.0081,-0.25324 -0.02416,-0.29799 -0.01611,-0.0456 -0.04251,-0.081 -0.0792,-0.10604 -0.0358,-0.025 -0.0792,-0.0376 -0.130202,-0.0376 -0.06533,0 -0.123939,0.0179 -0.175841,0.0537 -0.0519,0.0358 -0.0877,0.0832 -0.107383,0.14228 -0.01879,0.0591 -0.02819,0.16824 -0.02819,0.32752 v 0.64565 h -0.377184 v -1.42552 h 0.350339 v 0.2094 c 0.124385,-0.16108 0.280986,-0.24161 0.469803,-0.24162 0.08322,10e-6 0.159284,0.0152 0.22819,0.0456 0.0689,0.0295 0.120805,0.0676 0.155706,0.1141 0.03579,0.0465 0.0604,0.0993 0.07383,0.15839 0.01432,0.0591 0.02147,0.14362 0.02148,0.25369 v 0.88592"
           id="path1040"
           style="fill:#d5e3e8;fill-opacity:1;stroke:none;stroke-width:0.272214;stroke-miterlimit:4;stroke-dasharray:none" />
        <path
           inkscape:connector-curvature="0"
           d="m 27.550687,969.7332 -0.342286,-0.0617 c 0.03848,-0.13781 0.104699,-0.23983 0.19866,-0.30605 0.09396,-0.0662 0.233559,-0.0993 0.418796,-0.0993 0.168233,10e-6 0.293514,0.0201 0.375842,0.0604 0.08233,0.0394 0.140045,0.0899 0.173157,0.15168 0.034,0.0609 0.051,0.17315 0.05101,0.33691 l -0.004,0.44028 c -2e-6,0.12528 0.0058,0.21789 0.01745,0.27785 0.01253,0.0591 0.03534,0.1226 0.06846,0.19061 h -0.373158 c -0.0098,-0.0251 -0.02192,-0.0622 -0.03624,-0.11141 -0.0063,-0.0224 -0.01074,-0.0371 -0.01342,-0.0443 -0.06443,0.0626 -0.133336,0.10962 -0.206714,0.14094 -0.07338,0.0313 -0.151679,0.047 -0.234901,0.047 -0.146758,0 -0.262643,-0.0398 -0.347654,-0.11946 -0.08412,-0.0797 -0.126176,-0.18032 -0.126176,-0.30202 0,-0.0805 0.01924,-0.15213 0.05772,-0.21477 0.03848,-0.0635 0.09217,-0.11185 0.161075,-0.14496 0.0698,-0.034 0.170023,-0.0635 0.300674,-0.0886 0.176287,-0.0331 0.298436,-0.064 0.366446,-0.0926 v -0.0376 c -10e-7,-0.0725 -0.0179,-0.12394 -0.05369,-0.15436 -0.0358,-0.0313 -0.103358,-0.047 -0.202687,-0.047 -0.06712,0 -0.119465,0.0134 -0.157048,0.0403 -0.03758,0.0259 -0.06801,0.072 -0.09128,0.13825 m 0.504702,0.30605 c -0.04832,0.0161 -0.124834,0.0353 -0.229532,0.0577 -0.1047,0.0224 -0.173157,0.0443 -0.205371,0.0658 -0.04922,0.0349 -0.07383,0.0792 -0.07383,0.13288 -1e-6,0.0528 0.01969,0.0984 0.05906,0.13692 0.03937,0.0385 0.08948,0.0577 0.150337,0.0577 0.06801,0 0.132886,-0.0224 0.194632,-0.0671 0.04564,-0.034 0.07561,-0.0756 0.08993,-0.12483 0.0098,-0.0322 0.01476,-0.0935 0.01477,-0.1839 v -0.0752"
           id="path1042"
           style="fill:#d5e3e8;fill-opacity:1;stroke:none;stroke-width:0.272214;stroke-miterlimit:4;stroke-dasharray:none" />
        <path
           inkscape:connector-curvature="0"
           d="m 28.799021,970.72382 v -1.96781 h 0.377185 v 1.96781 h -0.377185"
           id="path1044"
           style="fill:#d5e3e8;fill-opacity:1;stroke:none;stroke-width:0.272214;stroke-miterlimit:4;stroke-dasharray:none" />
        <path
           inkscape:connector-curvature="0"
           d="m 30.327894,970.72382 v -1.96781 h 0.397319 v 0.77451 h 0.778531 v -0.77451 h 0.397319 v 1.96781 h -0.397319 v -0.86041 h -0.778531 v 0.86041 h -0.397319"
           id="path1046"
           style="fill:#d5e3e8;fill-opacity:1;stroke:none;stroke-width:0.272214;stroke-miterlimit:4;stroke-dasharray:none" />
        <path
           inkscape:connector-curvature="0"
           d="m 32.592345,969.7332 -0.342285,-0.0617 c 0.03848,-0.13781 0.104699,-0.23983 0.198659,-0.30605 0.09396,-0.0662 0.233559,-0.0993 0.418796,-0.0993 0.168234,10e-6 0.293514,0.0201 0.375843,0.0604 0.08233,0.0394 0.140045,0.0899 0.173156,0.15168 0.034,0.0609 0.05101,0.17315 0.05101,0.33691 l -0.004,0.44028 c -10e-7,0.12528 0.0058,0.21789 0.01745,0.27785 0.01253,0.0591 0.03535,0.1226 0.06846,0.19061 h -0.373158 c -0.0098,-0.0251 -0.02192,-0.0622 -0.03624,-0.11141 -0.0063,-0.0224 -0.01074,-0.0371 -0.01342,-0.0443 -0.06443,0.0626 -0.133335,0.10962 -0.206713,0.14094 -0.07338,0.0313 -0.15168,0.047 -0.234902,0.047 -0.146758,0 -0.262642,-0.0398 -0.347654,-0.11946 -0.08412,-0.0797 -0.126176,-0.18032 -0.126176,-0.30202 0,-0.0805 0.01924,-0.15213 0.05772,-0.21477 0.03848,-0.0635 0.09217,-0.11185 0.161075,-0.14496 0.0698,-0.034 0.170024,-0.0635 0.300674,-0.0886 0.176288,-0.0331 0.298436,-0.064 0.366447,-0.0926 v -0.0376 c -1e-6,-0.0725 -0.0179,-0.12394 -0.05369,-0.15436 -0.0358,-0.0313 -0.103358,-0.047 -0.202686,-0.047 -0.06712,0 -0.119465,0.0134 -0.157049,0.0403 -0.03758,0.0259 -0.06801,0.072 -0.09128,0.13825 m 0.504703,0.30605 c -0.04832,0.0161 -0.124834,0.0353 -0.229533,0.0577 -0.104699,0.0224 -0.173156,0.0443 -0.205371,0.0658 -0.04922,0.0349 -0.07383,0.0792 -0.07383,0.13288 0,0.0528 0.01969,0.0984 0.05906,0.13692 0.03937,0.0385 0.08949,0.0577 0.150337,0.0577 0.06801,0 0.132886,-0.0224 0.194633,-0.0671 0.04564,-0.034 0.07562,-0.0756 0.08993,-0.12483 0.0098,-0.0322 0.01476,-0.0935 0.01477,-0.1839 v -0.0752"
           id="path1048"
           style="fill:#d5e3e8;fill-opacity:1;stroke:none;stroke-width:0.272214;stroke-miterlimit:4;stroke-dasharray:none" />
        <path
           inkscape:connector-curvature="0"
           d="m 34.201757,970.72382 h -0.377185 v -1.42552 h 0.350339 v 0.20269 c 0.05995,-0.0957 0.113647,-0.15884 0.161075,-0.18927 0.04832,-0.0304 0.102909,-0.0456 0.16376,-0.0456 0.08591,10e-6 0.168681,0.0237 0.248325,0.0711 l -0.11678,0.32886 c -0.06354,-0.0412 -0.122597,-0.0618 -0.177183,-0.0618 -0.0528,0 -0.09754,0.0148 -0.134229,0.0443 -0.03669,0.0286 -0.06577,0.081 -0.08725,0.15705 -0.02058,0.0761 -0.03087,0.23535 -0.03087,0.47785 v 0.44028"
           id="path1050"
           style="fill:#d5e3e8;fill-opacity:1;stroke:none;stroke-width:0.272214;stroke-miterlimit:4;stroke-dasharray:none" />
        <path
           inkscape:connector-curvature="0"
           d="m 36.216541,970.72382 h -0.350339 v -0.2094 c -0.05817,0.0814 -0.127072,0.14228 -0.206714,0.18255 -0.07875,0.0394 -0.158391,0.0591 -0.238928,0.0591 -0.163761,0 -0.304254,-0.0658 -0.421481,-0.19732 -0.116332,-0.13244 -0.174498,-0.31678 -0.174498,-0.55302 0,-0.24161 0.05682,-0.42506 0.170471,-0.55034 0.113648,-0.12618 0.257273,-0.18926 0.430877,-0.18927 0.159285,10e-6 0.297094,0.0662 0.413427,0.19866 v -0.70873 h 0.377185 v 1.96781 m -1.006721,-0.74364 c -10e-7,0.15213 0.02103,0.2622 0.06309,0.33021 0.06085,0.0984 0.145862,0.14765 0.255036,0.14765 0.0868,0 0.160627,-0.0367 0.221479,-0.11007 0.06085,-0.0743 0.09127,-0.18479 0.09128,-0.33154 -10e-7,-0.16376 -0.02953,-0.28144 -0.08859,-0.35303 -0.05906,-0.0725 -0.134678,-0.10872 -0.226848,-0.10872 -0.08949,0 -0.164656,0.0358 -0.225506,0.10738 -0.05996,0.0707 -0.08993,0.17674 -0.08993,0.31812"
           id="path1052"
           style="fill:#d5e3e8;fill-opacity:1;stroke:none;stroke-width:0.272214;stroke-miterlimit:4;stroke-dasharray:none" />
        <path
           inkscape:connector-curvature="0"
           d="m 37.353464,968.75601 h 0.726181 c 0.163759,0 0.288592,0.0125 0.3745,0.0376 0.115436,0.034 0.214319,0.0944 0.296648,0.18121 0.08232,0.0868 0.144966,0.19329 0.187921,0.31946 0.04295,0.12528 0.06443,0.2801 0.06443,0.46444 -2e-6,0.16197 -0.02014,0.30157 -0.0604,0.41879 -0.04922,0.14318 -0.119466,0.25907 -0.210741,0.34766 -0.06891,0.0671 -0.161971,0.11946 -0.279197,0.15704 -0.0877,0.0278 -0.204925,0.0416 -0.351681,0.0416 H 37.353467 V 968.756 m 0.397319,0.33289 v 1.30337 h 0.296647 c 0.110962,0 0.191052,-0.006 0.240271,-0.0188 0.06443,-0.0161 0.117673,-0.0434 0.159733,-0.0819 0.04295,-0.0385 0.07785,-0.10157 0.104699,-0.18927 0.02684,-0.0886 0.04027,-0.20895 0.04027,-0.36107 -2e-6,-0.15213 -0.01342,-0.26891 -0.04027,-0.35034 -0.02685,-0.0814 -0.06443,-0.14497 -0.112753,-0.19061 -0.04832,-0.0456 -0.109622,-0.0765 -0.183894,-0.0926 -0.05548,-0.0125 -0.164208,-0.0188 -0.326178,-0.0188 h -0.178525"
           id="path1054"
           style="fill:#d5e3e8;fill-opacity:1;stroke:none;stroke-width:0.272214;stroke-miterlimit:4;stroke-dasharray:none" />
        <path
           inkscape:connector-curvature="0"
           d="m 39.338719,969.10501 v -0.349 h 0.377184 v 0.349 h -0.377184 m 0,1.61881 v -1.42552 h 0.377184 v 1.42552 h -0.377184"
           id="path1056"
           style="fill:#d5e3e8;fill-opacity:1;stroke:none;stroke-width:0.272214;stroke-miterlimit:4;stroke-dasharray:none" />
        <path
           inkscape:connector-curvature="0"
           d="m 39.968254,970.3171 0.378527,-0.0577 c 0.01611,0.0734 0.04877,0.12931 0.09799,0.16779 0.04922,0.0376 0.118121,0.0564 0.206713,0.0564 0.09754,0 0.170918,-0.0179 0.220136,-0.0537 0.03311,-0.025 0.04966,-0.0586 0.04967,-0.10067 -10e-7,-0.0286 -0.0089,-0.0523 -0.02685,-0.0711 -0.01879,-0.0179 -0.06085,-0.0345 -0.126175,-0.0497 -0.304254,-0.0671 -0.497097,-0.12841 -0.578529,-0.18389 -0.112753,-0.077 -0.16913,-0.18389 -0.16913,-0.32081 0,-0.12349 0.04877,-0.22729 0.146311,-0.31141 0.09754,-0.0841 0.248771,-0.12617 0.453695,-0.12618 0.195079,10e-6 0.340047,0.0318 0.434904,0.0953 0.09485,0.0635 0.160179,0.15749 0.195975,0.28188 l -0.355708,0.0658 c -0.01521,-0.0555 -0.0443,-0.098 -0.08725,-0.12752 -0.04206,-0.0295 -0.102462,-0.0443 -0.181209,-0.0443 -0.09933,0 -0.170472,0.0139 -0.213425,0.0416 -0.02864,0.0197 -0.04295,0.0452 -0.04295,0.0765 0,0.0268 0.01253,0.0497 0.03758,0.0685 0.034,0.0251 0.151231,0.0604 0.351681,0.10604 0.201343,0.0456 0.341836,0.10157 0.42148,0.16778 0.07875,0.0671 0.118121,0.16063 0.118122,0.28054 -1e-6,0.13065 -0.05459,0.24296 -0.16376,0.33692 -0.109174,0.094 -0.270697,0.14094 -0.484568,0.14094 -0.194186,0 -0.348102,-0.0394 -0.461749,-0.11812 -0.112753,-0.0788 -0.186579,-0.18568 -0.221479,-0.32081"
           id="path1058"
           style="fill:#d5e3e8;fill-opacity:1;stroke:none;stroke-width:0.272214;stroke-miterlimit:4;stroke-dasharray:none" />
        <path
           inkscape:connector-curvature="0"
           d="m 41.617934,970.72382 v -1.96781 h 0.377185 v 1.04431 l 0.441615,-0.50202 h 0.464434 l -0.487253,0.52081 0.522153,0.90471 h -0.406716 l -0.358392,-0.64028 -0.175841,0.1839 v 0.45638 h -0.377185"
           id="path1060"
           style="fill:#d5e3e8;fill-opacity:1;stroke:none;stroke-width:0.272214;stroke-miterlimit:4;stroke-dasharray:none" />
      </g>
      <g
         transform="matrix(0.27209696,0,0,0.2154704,-3.2350433,63.089524)"
         id="g1179"
         style="font-style:normal;font-weight:normal;font-size:2.98992205px;line-height:125%;font-family:sans-serif;letter-spacing:0px;word-spacing:0px;fill:#d5e3e8;fill-opacity:1;stroke:none;stroke-width:0.39332816;stroke-linecap:butt;stroke-linejoin:miter;stroke-miterlimit:4;stroke-dasharray:none;stroke-opacity:1">
        <g
           style="font-style:normal;font-variant:normal;font-weight:normal;font-stretch:normal;font-size:40px;line-height:125%;font-family:Helvetica;-inkscape-font-specification:Helvetica;letter-spacing:0px;word-spacing:0px;fill:#d5e3e8;fill-opacity:1;stroke:none;stroke-width:0.39332816;stroke-linecap:butt;stroke-linejoin:miter;stroke-miterlimit:4;stroke-dasharray:none;stroke-opacity:1"
           id="g1064" />
        <g
           style="font-style:normal;font-weight:normal;font-size:2.46652699px;line-height:125%;font-family:sans-serif;letter-spacing:0px;word-spacing:0px;fill:#d5e3e8;fill-opacity:1;stroke:none;stroke-width:0.39332816;stroke-linecap:butt;stroke-linejoin:miter;stroke-miterlimit:4;stroke-dasharray:none;stroke-opacity:1"
           id="g1177">
          <path
             inkscape:connector-curvature="0"
             d="m 43.961055,975.05707 0.620523,-1.64355 h 0.126341 0.127459 l 0.590336,1.64355 v 0 h -0.119633 -0.119632 v 0 l -0.166591,-0.4763 v 0 h -0.65742 v 0 l -0.172181,0.4763 v 0 h -0.114042 z m 0.736801,-1.40205 -0.263862,0.72898 v 0 h 0.517662 v 0 z"
             style="font-style:normal;font-variant:normal;font-weight:normal;font-stretch:normal;font-size:2.28978753px;font-family:Helvetica;-inkscape-font-specification:Helvetica;fill:#d5e3e8;fill-opacity:1;stroke:none;stroke-width:0.39332816;stroke-miterlimit:4;stroke-dasharray:none"
             id="path1066" />
          <path
             inkscape:connector-curvature="0"
             d="m 45.606839,975.05707 v -1.19633 0 h 0.09504 0.09615 v 0 0.17666 0 0 l 0.04472,-0.0593 q 0.130813,-0.15317 0.327592,-0.15317 0.197896,0 0.30523,0.10733 0.107334,0.10733 0.107334,0.30523 v 0.81954 0 H 46.48228 46.381654 v 0 -0.75134 q 0,-0.15765 -0.06149,-0.22696 -0.06038,-0.0704 -0.196779,-0.0704 -0.145348,0 -0.23032,0.11069 -0.08497,0.10957 -0.08497,0.2974 v 0 0.64065 0 H 45.70747 45.606844 v 0 z"
             style="font-style:normal;font-variant:normal;font-weight:normal;font-stretch:normal;font-size:2.28978753px;font-family:Helvetica;-inkscape-font-specification:Helvetica;fill:#d5e3e8;fill-opacity:1;stroke:none;stroke-width:0.39332816;stroke-miterlimit:4;stroke-dasharray:none"
             id="path1068" />
          <path
             inkscape:connector-curvature="0"
             d="m 47.851904,973.86074 -0.45505,1.23546 q -0.105098,0.27616 -0.187834,0.36113 -0.08162,0.085 -0.245973,0.085 -0.05367,10e-4 -0.09727,-0.0123 v -0.18672 q 0.04584,0.0168 0.11516,0.0179 0.0682,0 0.114043,-0.0559 0.04584,-0.0559 0.103979,-0.20908 l 0.0034,-0.019 v 0 l -0.44387,-1.21645 v 0 h 0.114043 0.11516 v 0 l 0.319765,0.98949 v 0 0 l 0.324238,-0.98949 v 0 h 0.10957 0.110687 v 0 z"
             style="font-style:normal;font-variant:normal;font-weight:normal;font-stretch:normal;font-size:2.28978753px;font-family:Helvetica;-inkscape-font-specification:Helvetica;fill:#d5e3e8;fill-opacity:1;stroke:none;stroke-width:0.39332816;stroke-miterlimit:4;stroke-dasharray:none"
             id="path1070" />
          <path
             inkscape:connector-curvature="0"
             d="m 49.117549,975.08949 q -0.240383,0 -0.382377,-0.17889 -0.141994,-0.18001 -0.141994,-0.48524 0,-0.26945 0.137522,-0.43492 0.137521,-0.16547 0.358897,-0.16547 0.220258,0 0.348835,0.18671 l 0.01565,0.0224 v 0 -0.62052 0 h 0.100625 0.100626 v 0 1.64355 0 h -0.0928 -0.09392 v 0 -0.16324 0 l -0.02572,0.0369 q -0.124104,0.15876 -0.325355,0.15876 z m 0.01118,-1.0834 q -0.168827,0 -0.247091,0.10845 -0.07826,0.10734 -0.07826,0.34213 0,0.22138 0.08385,0.34101 0.08497,0.11963 0.241501,0.11963 0.146466,0 0.235911,-0.10957 0.08944,-0.11069 0.08944,-0.29181 0,-0.24486 -0.08497,-0.37679 -0.08385,-0.13305 -0.240383,-0.13305 z"
             style="font-style:normal;font-variant:normal;font-weight:normal;font-stretch:normal;font-size:2.28978753px;font-family:Helvetica;-inkscape-font-specification:Helvetica;fill:#d5e3e8;fill-opacity:1;stroke:none;stroke-width:0.39332816;stroke-miterlimit:4;stroke-dasharray:none"
             id="path1072" />
          <path
             inkscape:connector-curvature="0"
             d="m 50.251262,975.08949 q -0.175536,0 -0.278397,-0.0939 -0.102862,-0.0939 -0.102862,-0.2538 0,-0.161 0.09615,-0.25603 0.09727,-0.095 0.28287,-0.11852 l 0.273924,-0.0347 q 0.03354,-0.003 0.06373,-0.0112 0.03913,-0.0101 0.06038,-0.0403 0.02124,-0.0302 0.02124,-0.076 v -0.0101 q 0,-0.0961 -0.07267,-0.14982 -0.07267,-0.0548 -0.202369,-0.0548 -0.124104,0 -0.194542,0.0581 -0.06932,0.057 -0.08385,0.17106 v 0 h -0.185598 v 0 q 0.01454,-0.19678 0.13864,-0.29517 0.124105,-0.0995 0.355543,-0.0995 0.218022,0 0.332064,0.095 0.114042,0.0939 0.114042,0.27504 v 0.65742 q 0,0.0302 0.01789,0.0492 0.01901,0.0179 0.05031,0.0179 0.0089,0 0.02571,-0.002 0.01789,-0.002 0.03801,-0.007 v 0.14535 q -0.02907,0.0112 -0.06149,0.0179 -0.03242,0.007 -0.05479,0.007 -0.114042,0 -0.165473,-0.0626 -0.03354,-0.0414 -0.04808,-0.1174 v 0 q -0.02236,0.028 -0.05143,0.0537 -0.150938,0.13528 -0.36896,0.13528 z m 0.417036,-0.50648 v -0.12969 0 q -0.0559,0.0268 -0.124104,0.0369 l -0.18448,0.0268 q -0.145348,0.0201 -0.212432,0.0682 -0.06708,0.047 -0.06708,0.12857 0,0.10063 0.05478,0.15541 0.05479,0.0537 0.155411,0.0537 0.158764,0 0.268334,-0.0861 0.07491,-0.0604 0.09951,-0.1364 0.0045,-0.0145 0.0067,-0.0458 0.0034,-0.0324 0.0034,-0.0716 z"
             style="font-style:normal;font-variant:normal;font-weight:normal;font-stretch:normal;font-size:2.28978753px;font-family:Helvetica;-inkscape-font-specification:Helvetica;fill:#d5e3e8;fill-opacity:1;stroke:none;stroke-width:0.39332816;stroke-miterlimit:4;stroke-dasharray:none"
             id="path1074" />
          <path
             inkscape:connector-curvature="0"
             d="m 51.649955,975.05595 q -0.102862,0.0156 -0.14982,0.0156 -0.131931,0 -0.186716,-0.0581 -0.05367,-0.0581 -0.05367,-0.20013 v -0.78823 0 h -0.165473 v -0.16436 h 0.165473 v 0 -0.33541 H 51.461 v 0.33541 0 h 0.188952 v 0.16436 H 51.461 v 0 0.78823 q 0,0.0403 0.03131,0.0637 0.03242,0.0235 0.08609,0.0235 h 0.07156 v 0.15541 z"
             style="font-style:normal;font-variant:normal;font-weight:normal;font-stretch:normal;font-size:2.28978753px;font-family:Helvetica;-inkscape-font-specification:Helvetica;fill:#d5e3e8;fill-opacity:1;stroke:none;stroke-width:0.39332816;stroke-miterlimit:4;stroke-dasharray:none"
             id="path1076" />
          <path
             inkscape:connector-curvature="0"
             d="m 52.160909,975.08949 q -0.175536,0 -0.278397,-0.0939 -0.102862,-0.0939 -0.102862,-0.2538 0,-0.161 0.09615,-0.25603 0.09727,-0.095 0.28287,-0.11852 l 0.273924,-0.0347 q 0.03354,-0.003 0.06373,-0.0112 0.03913,-0.0101 0.06038,-0.0403 0.02124,-0.0302 0.02124,-0.076 v -0.0101 q 0,-0.0961 -0.07267,-0.14982 -0.07267,-0.0548 -0.202369,-0.0548 -0.124104,0 -0.194542,0.0581 -0.06932,0.057 -0.08385,0.17106 v 0 h -0.185598 v 0 q 0.01454,-0.19678 0.13864,-0.29517 0.124105,-0.0995 0.355543,-0.0995 0.218022,0 0.332064,0.095 0.114042,0.0939 0.114042,0.27504 v 0.65742 q 0,0.0302 0.01789,0.0492 0.01901,0.0179 0.05031,0.0179 0.0089,0 0.02571,-0.002 0.01789,-0.002 0.03801,-0.007 v 0.14535 q -0.02907,0.0112 -0.06149,0.0179 -0.03242,0.007 -0.05479,0.007 -0.114042,0 -0.165473,-0.0626 -0.03354,-0.0414 -0.04808,-0.1174 v 0 q -0.02236,0.028 -0.05143,0.0537 -0.150938,0.13528 -0.36896,0.13528 z m 0.417036,-0.50648 v -0.12969 0 q -0.0559,0.0268 -0.124104,0.0369 l -0.18448,0.0268 q -0.145348,0.0201 -0.212432,0.0682 -0.06708,0.047 -0.06708,0.12857 0,0.10063 0.05478,0.15541 0.05479,0.0537 0.155411,0.0537 0.158764,0 0.268334,-0.0861 0.07491,-0.0604 0.09951,-0.1364 0.0045,-0.0145 0.0067,-0.0458 0.0034,-0.0324 0.0034,-0.0716 z"
             style="font-style:normal;font-variant:normal;font-weight:normal;font-stretch:normal;font-size:2.28978753px;font-family:Helvetica;-inkscape-font-specification:Helvetica;fill:#d5e3e8;fill-opacity:1;stroke:none;stroke-width:0.39332816;stroke-miterlimit:4;stroke-dasharray:none"
             id="path1078" />
          <path
             inkscape:connector-curvature="0"
             d="m 53.759735,975.05707 v -1.64355 0 h 0.100625 0.100626 v 0 1.64355 0 H 53.86036 Z"
             style="font-style:normal;font-variant:normal;font-weight:normal;font-stretch:normal;font-size:2.28978753px;font-family:Helvetica;-inkscape-font-specification:Helvetica;fill:#d5e3e8;fill-opacity:1;stroke:none;stroke-width:0.39332816;stroke-miterlimit:4;stroke-dasharray:none"
             id="path1080" />
          <path
             inkscape:connector-curvature="0"
             d="m 54.752572,975.08949 q -0.248209,0 -0.402501,-0.17442 -0.153175,-0.17441 -0.153175,-0.45728 0,-0.28399 0.153175,-0.45841 0.154292,-0.17441 0.402501,-0.17441 0.250446,0 0.40362,0.17441 0.153174,0.17442 0.153174,0.45841 0,0.28287 -0.153174,0.45728 -0.153174,0.17442 -0.40362,0.17442 z m 0,-0.1733 q 0.158765,0 0.252682,-0.1241 0.09392,-0.12411 0.09392,-0.3343 0,-0.2102 -0.09392,-0.3343 -0.09392,-0.12523 -0.252682,-0.12523 -0.158764,0 -0.252681,0.12523 -0.0928,0.1241 -0.0928,0.3343 0,0.21019 0.0928,0.3343 0.09392,0.1241 0.252681,0.1241 z"
             style="font-style:normal;font-variant:normal;font-weight:normal;font-stretch:normal;font-size:2.28978753px;font-family:Helvetica;-inkscape-font-specification:Helvetica;fill:#d5e3e8;fill-opacity:1;stroke:none;stroke-width:0.39332816;stroke-miterlimit:4;stroke-dasharray:none"
             id="path1082" />
          <path
             inkscape:connector-curvature="0"
             d="m 56.225058,974.20734 v 0 q -0.0089,-0.0995 -0.08162,-0.15429 -0.07156,-0.0548 -0.193424,-0.0548 -0.125223,0 -0.191189,0.0436 -0.06485,0.0436 -0.06485,0.12746 0,0.0637 0.04584,0.0962 0.04584,0.0324 0.182244,0.0648 l 0.207959,0.0492 q 0.174418,0.0425 0.249328,0.1174 0.07379,0.0738 0.07379,0.20684 0,0.17777 -0.128577,0.28175 -0.127459,0.10398 -0.345481,0.10398 -0.252681,0 -0.376786,-0.0995 -0.124105,-0.10062 -0.137522,-0.31529 v 0 h 0.193425 v 0 q 0.01453,0.12746 0.08944,0.18448 0.07603,0.057 0.231438,0.057 0.135286,0 0.204605,-0.0514 0.07044,-0.0514 0.07044,-0.14982 0,-0.0626 -0.04584,-0.095 -0.04584,-0.0324 -0.18448,-0.0648 l -0.20796,-0.0492 q -0.168827,-0.0403 -0.240383,-0.11292 -0.07156,-0.0716 -0.07156,-0.20125 0,-0.16883 0.119632,-0.26722 0.120751,-0.0995 0.326474,-0.0995 0.209077,0 0.332064,0.10174 0.124104,0.10174 0.131931,0.28063 v 0 h -0.188953 z"
             style="font-style:normal;font-variant:normal;font-weight:normal;font-stretch:normal;font-size:2.28978753px;font-family:Helvetica;-inkscape-font-specification:Helvetica;fill:#d5e3e8;fill-opacity:1;stroke:none;stroke-width:0.39332816;stroke-miterlimit:4;stroke-dasharray:none"
             id="path1084" />
          <path
             inkscape:connector-curvature="0"
             d="m 57.369952,974.20734 v 0 q -0.0089,-0.0995 -0.08162,-0.15429 -0.07156,-0.0548 -0.193425,-0.0548 -0.125222,0 -0.191188,0.0436 -0.06485,0.0436 -0.06485,0.12746 0,0.0637 0.04584,0.0962 0.04584,0.0324 0.182244,0.0648 l 0.207959,0.0492 q 0.174417,0.0425 0.249327,0.1174 0.07379,0.0738 0.07379,0.20684 0,0.17777 -0.128576,0.28175 -0.127459,0.10398 -0.345481,0.10398 -0.252682,0 -0.376786,-0.0995 -0.124105,-0.10062 -0.137522,-0.31529 v 0 h 0.193425 v 0 q 0.01453,0.12746 0.08944,0.18448 0.07603,0.057 0.231439,0.057 0.135285,0 0.204605,-0.0514 0.07044,-0.0514 0.07044,-0.14982 0,-0.0626 -0.04584,-0.095 -0.04584,-0.0324 -0.18448,-0.0648 l -0.207959,-0.0492 q -0.168827,-0.0403 -0.240383,-0.11292 -0.07156,-0.0716 -0.07156,-0.20125 0,-0.16883 0.119633,-0.26722 0.12075,-0.0995 0.326473,-0.0995 0.209078,0 0.332064,0.10174 0.124105,0.10174 0.131931,0.28063 v 0 H 57.36994 Z"
             style="font-style:normal;font-variant:normal;font-weight:normal;font-stretch:normal;font-size:2.28978753px;font-family:Helvetica;-inkscape-font-specification:Helvetica;fill:#d5e3e8;fill-opacity:1;stroke:none;stroke-width:0.39332816;stroke-miterlimit:4;stroke-dasharray:none"
             id="path1086" />
          <path
             inkscape:connector-curvature="0"
             d="m 58.471242,975.05707 v -1.19633 0 h 0.100625 0.100625 v 0 1.19633 0 h -0.100625 z m -0.0022,-1.64355 h 0.205724 v 0.22808 h -0.205724 z"
             style="font-style:normal;font-variant:normal;font-weight:normal;font-stretch:normal;font-size:2.28978753px;font-family:Helvetica;-inkscape-font-specification:Helvetica;fill:#d5e3e8;fill-opacity:1;stroke:none;stroke-width:0.39332816;stroke-miterlimit:4;stroke-dasharray:none"
             id="path1088" />
          <path
             inkscape:connector-curvature="0"
             d="m 59.659739,974.20734 v 0 q -0.0089,-0.0995 -0.08162,-0.15429 -0.07156,-0.0548 -0.193424,-0.0548 -0.125223,0 -0.191189,0.0436 -0.06485,0.0436 -0.06485,0.12746 0,0.0637 0.04584,0.0962 0.04584,0.0324 0.182244,0.0648 l 0.207959,0.0492 q 0.174418,0.0425 0.249328,0.1174 0.07379,0.0738 0.07379,0.20684 0,0.17777 -0.128577,0.28175 -0.127459,0.10398 -0.345481,0.10398 -0.252681,0 -0.376786,-0.0995 -0.124105,-0.10062 -0.137522,-0.31529 v 0 h 0.193425 v 0 q 0.01454,0.12746 0.08944,0.18448 0.07603,0.057 0.231438,0.057 0.135285,0 0.204605,-0.0514 0.07044,-0.0514 0.07044,-0.14982 0,-0.0626 -0.04584,-0.095 -0.04584,-0.0324 -0.18448,-0.0648 l -0.20796,-0.0492 q -0.168827,-0.0403 -0.240383,-0.11292 -0.07155,-0.0716 -0.07155,-0.20125 0,-0.16883 0.119632,-0.26722 0.12075,-0.0995 0.326474,-0.0995 0.209077,0 0.332064,0.10174 0.124104,0.10174 0.131931,0.28063 v 0 h -0.188953 z"
             style="font-style:normal;font-variant:normal;font-weight:normal;font-stretch:normal;font-size:2.28978753px;font-family:Helvetica;-inkscape-font-specification:Helvetica;fill:#d5e3e8;fill-opacity:1;stroke:none;stroke-width:0.39332816;stroke-miterlimit:4;stroke-dasharray:none"
             id="path1090" />
          <path
             inkscape:connector-curvature="0"
             d="m 60.75432,975.05707 v -1.19633 0 h 0.09504 0.09615 v 0 0.17666 0 0 l 0.04472,-0.0593 q 0.130813,-0.15317 0.327592,-0.15317 0.197897,0 0.30523,0.10733 0.107334,0.10733 0.107334,0.30523 v 0.81954 0 h -0.100625 -0.100626 v 0 -0.75134 q 0,-0.15765 -0.06149,-0.22696 -0.06038,-0.0704 -0.196779,-0.0704 -0.145347,0 -0.23032,0.11069 -0.08497,0.10957 -0.08497,0.2974 v 0 0.64065 0 h -0.100625 -0.100625 v 0 z"
             style="font-style:normal;font-variant:normal;font-weight:normal;font-stretch:normal;font-size:2.28978753px;font-family:Helvetica;-inkscape-font-specification:Helvetica;fill:#d5e3e8;fill-opacity:1;stroke:none;stroke-width:0.39332816;stroke-miterlimit:4;stroke-dasharray:none"
             id="path1092" />
          <path
             inkscape:connector-curvature="0"
             d="m 62.516383,975.08949 q -0.248209,0 -0.402501,-0.17442 -0.153175,-0.17441 -0.153175,-0.45728 0,-0.28399 0.153175,-0.45841 0.154292,-0.17441 0.402501,-0.17441 0.250446,0 0.40362,0.17441 0.153174,0.17442 0.153174,0.45841 0,0.28287 -0.153174,0.45728 -0.153174,0.17442 -0.40362,0.17442 z m 0,-0.1733 q 0.158765,0 0.252682,-0.1241 0.09392,-0.12411 0.09392,-0.3343 0,-0.2102 -0.09392,-0.3343 -0.09392,-0.12523 -0.252682,-0.12523 -0.158764,0 -0.252681,0.12523 -0.0928,0.1241 -0.0928,0.3343 0,0.21019 0.0928,0.3343 0.09392,0.1241 0.252681,0.1241 z"
             style="font-style:normal;font-variant:normal;font-weight:normal;font-stretch:normal;font-size:2.28978753px;font-family:Helvetica;-inkscape-font-specification:Helvetica;fill:#d5e3e8;fill-opacity:1;stroke:none;stroke-width:0.39332816;stroke-miterlimit:4;stroke-dasharray:none"
             id="path1094" />
          <path
             inkscape:connector-curvature="0"
             d="m 63.742896,975.05595 q -0.102861,0.0156 -0.14982,0.0156 -0.131931,0 -0.186716,-0.0581 -0.05367,-0.0581 -0.05367,-0.20013 v -0.78823 0 h -0.165473 v -0.16436 h 0.165473 v 0 -0.33541 h 0.201251 v 0.33541 0 h 0.188952 v 0.16436 h -0.188952 v 0 0.78823 q 0,0.0403 0.03131,0.0637 0.03242,0.0235 0.08609,0.0235 h 0.07156 v 0.15541 z"
             style="font-style:normal;font-variant:normal;font-weight:normal;font-stretch:normal;font-size:2.28978753px;font-family:Helvetica;-inkscape-font-specification:Helvetica;fill:#d5e3e8;fill-opacity:1;stroke:none;stroke-width:0.39332816;stroke-miterlimit:4;stroke-dasharray:none"
             id="path1096" />
          <path
             inkscape:connector-curvature="0"
             d="m 65.011893,975.39584 q 0.1733,0 0.263862,-0.10957 0.09056,-0.10845 0.09056,-0.31753 v -0.0391 l -0.0011,0.001 q -0.124104,0.15876 -0.324237,0.15876 -0.240383,0 -0.382377,-0.17889 -0.141994,-0.18001 -0.141994,-0.48524 0,-0.26945 0.139758,-0.43492 0.139758,-0.16547 0.365606,-0.16547 0.215785,0 0.342126,0.18671 l 0.01454,0.0212 v 0 -0.17218 0 h 0.188952 v 1.108 q -0.0011,0.303 -0.136403,0.44834 -0.135286,0.14535 -0.415919,0.14535 -0.203487,0 -0.323119,-0.0939 -0.119633,-0.0939 -0.14423,-0.2728 v 0 h 0.205723 v 0 q 0.01789,0.0962 0.08497,0.14758 0.0682,0.0525 0.173299,0.0525 z m 0.03913,-1.38751 q -0.168827,0 -0.247091,0.10733 -0.07715,0.10733 -0.07715,0.34101 0,0.22026 0.08385,0.33989 0.08497,0.11851 0.240383,0.11851 0.146466,0 0.235911,-0.10957 0.08944,-0.10957 0.08944,-0.28957 0,-0.2538 -0.08162,-0.38014 -0.0805,-0.12746 -0.243737,-0.12746 z"
             style="font-style:normal;font-variant:normal;font-weight:normal;font-stretch:normal;font-size:2.28978753px;font-family:Helvetica;-inkscape-font-specification:Helvetica;fill:#d5e3e8;fill-opacity:1;stroke:none;stroke-width:0.39332816;stroke-miterlimit:4;stroke-dasharray:none"
             id="path1098" />
          <path
             inkscape:connector-curvature="0"
             d="m 66.056162,973.86074 v 0.77146 q 0,0.15094 0.05814,0.21803 0.05814,0.066 0.188953,0.066 0.145347,0 0.23032,-0.1118 0.08497,-0.11293 0.08497,-0.30523 v 0 -0.63842 0 h 0.100625 0.100625 v 0 1.19633 0 h -0.09503 -0.09615 v 0 -0.18225 0 0 q -0.02012,0.0324 -0.04472,0.0615 -0.128577,0.15317 -0.322002,0.15317 -0.203487,0 -0.30523,-0.10174 -0.101744,-0.10175 -0.101744,-0.30523 v -0.82178 0 h 0.100626 0.100625 v 0 z"
             style="font-style:normal;font-variant:normal;font-weight:normal;font-stretch:normal;font-size:2.28978753px;font-family:Helvetica;-inkscape-font-specification:Helvetica;fill:#d5e3e8;fill-opacity:1;stroke:none;stroke-width:0.39332816;stroke-miterlimit:4;stroke-dasharray:none"
             id="path1100" />
          <path
             inkscape:connector-curvature="0"
             d="m 67.438086,975.08949 q -0.175536,0 -0.278397,-0.0939 -0.102862,-0.0939 -0.102862,-0.2538 0,-0.161 0.09615,-0.25603 0.09727,-0.095 0.282869,-0.11852 l 0.273925,-0.0347 q 0.03354,-0.003 0.06373,-0.0112 0.03913,-0.0101 0.06037,-0.0403 0.02124,-0.0302 0.02124,-0.076 v -0.0101 q 0,-0.0961 -0.07267,-0.14982 -0.07267,-0.0548 -0.202369,-0.0548 -0.124104,0 -0.194542,0.0581 -0.06932,0.057 -0.08385,0.17106 v 0 h -0.185598 v 0 q 0.01453,-0.19678 0.13864,-0.29517 0.124104,-0.0995 0.355543,-0.0995 0.218022,0 0.332064,0.095 0.114042,0.0939 0.114042,0.27504 v 0.65742 q 0,0.0302 0.01789,0.0492 0.01901,0.0179 0.05031,0.0179 0.0089,0 0.02572,-0.002 0.01789,-0.002 0.03801,-0.007 v 0.14535 q -0.02907,0.0112 -0.06149,0.0179 -0.03242,0.007 -0.05479,0.007 -0.114042,0 -0.165473,-0.0626 -0.03354,-0.0414 -0.04808,-0.1174 v 0 q -0.02236,0.028 -0.05143,0.0537 -0.150939,0.13528 -0.36896,0.13528 z m 0.417036,-0.50648 v -0.12969 0 q -0.0559,0.0268 -0.124105,0.0369 l -0.18448,0.0268 q -0.145347,0.0201 -0.212431,0.0682 -0.06708,0.047 -0.06708,0.12857 0,0.10063 0.05479,0.15541 0.05478,0.0537 0.155411,0.0537 0.158764,0 0.268334,-0.0861 0.07491,-0.0604 0.09951,-0.1364 0.0045,-0.0145 0.0067,-0.0458 0.0034,-0.0324 0.0034,-0.0716 z"
             style="font-style:normal;font-variant:normal;font-weight:normal;font-stretch:normal;font-size:2.28978753px;font-family:Helvetica;-inkscape-font-specification:Helvetica;fill:#d5e3e8;fill-opacity:1;stroke:none;stroke-width:0.39332816;stroke-miterlimit:4;stroke-dasharray:none"
             id="path1102" />
          <path
             inkscape:connector-curvature="0"
             d="m 68.425332,975.05707 v -1.19633 0 h 0.09503 0.09615 v 0 0.20461 0 0 q 0.02572,-0.0481 0.05479,-0.0872 0.114042,-0.15317 0.280633,-0.15317 0.02795,0 0.05702,0.0101 v 0.20572 l -0.04137,-10e-4 q -0.163237,0 -0.252682,0.0984 -0.08833,0.0973 -0.08833,0.2784 v 0 0.64065 0 h -0.100626 -0.100625 v 0 z"
             style="font-style:normal;font-variant:normal;font-weight:normal;font-stretch:normal;font-size:2.28978753px;font-family:Helvetica;-inkscape-font-specification:Helvetica;fill:#d5e3e8;fill-opacity:1;stroke:none;stroke-width:0.39332816;stroke-miterlimit:4;stroke-dasharray:none"
             id="path1104" />
          <path
             inkscape:connector-curvature="0"
             d="m 69.477427,975.08949 q -0.175536,0 -0.278397,-0.0939 -0.102862,-0.0939 -0.102862,-0.2538 0,-0.161 0.09615,-0.25603 0.09727,-0.095 0.282869,-0.11852 l 0.273925,-0.0347 q 0.03354,-0.003 0.06373,-0.0112 0.03913,-0.0101 0.06038,-0.0403 0.02124,-0.0302 0.02124,-0.076 v -0.0101 q 0,-0.0961 -0.07267,-0.14982 -0.07267,-0.0548 -0.202369,-0.0548 -0.124104,0 -0.194542,0.0581 -0.06932,0.057 -0.08385,0.17106 v 0 h -0.185598 v 0 q 0.01454,-0.19678 0.13864,-0.29517 0.124104,-0.0995 0.355543,-0.0995 0.218022,0 0.332064,0.095 0.114042,0.0939 0.114042,0.27504 v 0.65742 q 0,0.0302 0.01789,0.0492 0.01901,0.0179 0.05031,0.0179 0.0089,0 0.02572,-0.002 0.01789,-0.002 0.03801,-0.007 v 0.14535 q -0.02907,0.0112 -0.06149,0.0179 -0.03242,0.007 -0.05478,0.007 -0.114042,0 -0.165473,-0.0626 -0.03354,-0.0414 -0.04808,-0.1174 v 0 q -0.02236,0.028 -0.05143,0.0537 -0.150938,0.13528 -0.368959,0.13528 z m 0.417036,-0.50648 v -0.12969 0 q -0.0559,0.0268 -0.124105,0.0369 l -0.18448,0.0268 q -0.145347,0.0201 -0.212431,0.0682 -0.06708,0.047 -0.06708,0.12857 0,0.10063 0.05478,0.15541 0.05478,0.0537 0.155411,0.0537 0.158764,0 0.268334,-0.0861 0.07491,-0.0604 0.09951,-0.1364 0.0045,-0.0145 0.0067,-0.0458 0.0034,-0.0324 0.0034,-0.0716 z"
             style="font-style:normal;font-variant:normal;font-weight:normal;font-stretch:normal;font-size:2.28978753px;font-family:Helvetica;-inkscape-font-specification:Helvetica;fill:#d5e3e8;fill-opacity:1;stroke:none;stroke-width:0.39332816;stroke-miterlimit:4;stroke-dasharray:none"
             id="path1106" />
          <path
             inkscape:connector-curvature="0"
             d="m 70.436723,975.05707 v -1.19633 0 h 0.09503 0.09615 v 0 0.17666 0 0 l 0.04472,-0.0593 q 0.130813,-0.15317 0.327592,-0.15317 0.197896,0 0.30523,0.10733 0.107334,0.10733 0.107334,0.30523 v 0.81954 0 h -0.100626 -0.100625 v 0 -0.75134 q 0,-0.15765 -0.06149,-0.22696 -0.06038,-0.0704 -0.196779,-0.0704 -0.145348,0 -0.23032,0.11069 -0.08497,0.10957 -0.08497,0.2974 v 0 0.64065 0 h -0.100625 -0.100626 v 0 z"
             style="font-style:normal;font-variant:normal;font-weight:normal;font-stretch:normal;font-size:2.28978753px;font-family:Helvetica;-inkscape-font-specification:Helvetica;fill:#d5e3e8;fill-opacity:1;stroke:none;stroke-width:0.39332816;stroke-miterlimit:4;stroke-dasharray:none"
             id="path1108" />
          <path
             inkscape:connector-curvature="0"
             d="m 72.150708,975.05595 q -0.102861,0.0156 -0.14982,0.0156 -0.131931,0 -0.186716,-0.0581 -0.05367,-0.0581 -0.05367,-0.20013 v -0.78823 0 h -0.165473 v -0.16436 h 0.165473 v 0 -0.33541 h 0.201251 v 0.33541 0 h 0.188952 v 0.16436 h -0.188952 v 0 0.78823 q 0,0.0403 0.03131,0.0637 0.03242,0.0235 0.08609,0.0235 h 0.07155 v 0.15541 z"
             style="font-style:normal;font-variant:normal;font-weight:normal;font-stretch:normal;font-size:2.28978753px;font-family:Helvetica;-inkscape-font-specification:Helvetica;fill:#d5e3e8;fill-opacity:1;stroke:none;stroke-width:0.39332816;stroke-miterlimit:4;stroke-dasharray:none"
             id="path1110" />
          <path
             inkscape:connector-curvature="0"
             d="m 72.833844,975.08949 q -0.253799,0 -0.399147,-0.161 -0.145348,-0.161 -0.145348,-0.44499 0,-0.30187 0.153174,-0.47964 0.154293,-0.17889 0.413683,-0.17889 0.234792,0 0.379022,0.17441 0.14423,0.17442 0.14423,0.45841 l -0.0022,0.0716 v 0 h -0.874323 v 0 q 0.0123,0.17889 0.08162,0.27281 0.08497,0.11404 0.268334,0.11404 0.115161,0 0.201251,-0.0648 0.08609,-0.0648 0.105098,-0.16547 v 0 h 0.199015 v 0 q -0.04472,0.19678 -0.17889,0.30076 -0.134167,0.10286 -0.345481,0.10286 z m 0.335418,-0.72227 v 0 q -0.0089,-0.16659 -0.08274,-0.25939 -0.08162,-0.10286 -0.239265,-0.10286 -0.158764,0 -0.2538,0.11852 -0.07491,0.0928 -0.09056,0.24373 v 0 h 0.666363 z"
             style="font-style:normal;font-variant:normal;font-weight:normal;font-stretch:normal;font-size:2.28978753px;font-family:Helvetica;-inkscape-font-specification:Helvetica;fill:#d5e3e8;fill-opacity:1;stroke:none;stroke-width:0.39332816;stroke-miterlimit:4;stroke-dasharray:none"
             id="path1112" />
          <path
             inkscape:connector-curvature="0"
             d="m 74.108432,975.08949 q -0.2538,0 -0.399148,-0.161 -0.145347,-0.161 -0.145347,-0.44499 0,-0.30187 0.153174,-0.47964 0.154292,-0.17889 0.413682,-0.17889 0.234793,0 0.379023,0.17441 0.144229,0.17442 0.144229,0.45841 l -0.0022,0.0716 v 0 h -0.874323 v 0 q 0.0123,0.17889 0.08162,0.27281 0.08497,0.11404 0.268334,0.11404 0.11516,0 0.201251,-0.0648 0.08609,-0.0648 0.105098,-0.16547 v 0 h 0.199014 v 0 q -0.04472,0.19678 -0.178889,0.30076 -0.134168,0.10286 -0.345481,0.10286 z m 0.335418,-0.72227 v 0 q -0.0089,-0.16659 -0.08274,-0.25939 -0.08162,-0.10286 -0.239265,-0.10286 -0.158765,0 -0.2538,0.11852 -0.07491,0.0928 -0.09056,0.24373 v 0 z"
             style="font-style:normal;font-variant:normal;font-weight:normal;font-stretch:normal;font-size:2.28978753px;font-family:Helvetica;-inkscape-font-specification:Helvetica;fill:#d5e3e8;fill-opacity:1;stroke:none;stroke-width:0.39332816;stroke-miterlimit:4;stroke-dasharray:none"
             id="path1114" />
          <path
             inkscape:connector-curvature="0"
             d="m 75.351716,975.08949 q -0.240383,0 -0.382377,-0.17889 -0.141993,-0.18001 -0.141993,-0.48524 0,-0.26945 0.137521,-0.43492 0.137521,-0.16547 0.358897,-0.16547 0.220258,0 0.348835,0.18671 l 0.01565,0.0224 v 0 -0.62052 0 h 0.100625 0.100626 v 0 1.64355 0 h -0.0928 -0.09392 v 0 -0.16324 0 l -0.02572,0.0369 q -0.124104,0.15876 -0.325355,0.15876 z m 0.01118,-1.0834 q -0.168827,0 -0.247091,0.10845 -0.07826,0.10734 -0.07826,0.34213 0,0.22138 0.08385,0.34101 0.08497,0.11963 0.241501,0.11963 0.146466,0 0.235911,-0.10957 0.08945,-0.11069 0.08945,-0.29181 0,-0.24486 -0.08497,-0.37679 -0.08385,-0.13305 -0.240383,-0.13305 z"
             style="font-style:normal;font-variant:normal;font-weight:normal;font-stretch:normal;font-size:2.28978753px;font-family:Helvetica;-inkscape-font-specification:Helvetica;fill:#d5e3e8;fill-opacity:1;stroke:none;stroke-width:0.39332816;stroke-miterlimit:4;stroke-dasharray:none"
             id="path1116" />
          <path
             inkscape:connector-curvature="0"
             d="m 76.22045,974.81445 h 0.239264 v 0.24262 H 76.22045 Z"
             style="font-style:normal;font-variant:normal;font-weight:normal;font-stretch:normal;font-size:2.28978753px;font-family:Helvetica;-inkscape-font-specification:Helvetica;fill:#d5e3e8;fill-opacity:1;stroke:none;stroke-width:0.39332816;stroke-miterlimit:4;stroke-dasharray:none"
             id="path1118" />
          <path
             inkscape:connector-curvature="0"
             d="m 44.114229,977.9193 v -1.64355 0 h 0.110688 v 0 h 0.56462 q 0.313057,0 0.497537,0.22362 0.185598,0.22249 0.185598,0.59928 0,0.37566 -0.19007,0.59816 -0.188952,0.22249 -0.510954,0.22249 h -0.546731 v 0 z m 0.222494,-0.19007 v 0 h 0.406974 q 0.239265,0 0.36896,-0.16435 0.130813,-0.16436 0.130813,-0.46623 0,-0.303 -0.125223,-0.46735 -0.125223,-0.16548 -0.355543,-0.16548 h -0.425981 v 0 z"
             style="font-style:normal;font-variant:normal;font-weight:normal;font-stretch:normal;font-size:2.28978753px;font-family:Helvetica;-inkscape-font-specification:Helvetica;fill:#d5e3e8;fill-opacity:1;stroke:none;stroke-width:0.39332816;stroke-miterlimit:4;stroke-dasharray:none"
             id="path1120" />
          <path
             inkscape:connector-curvature="0"
             d="m 46.219536,977.95173 q -0.248209,0 -0.402501,-0.17442 -0.153175,-0.17442 -0.153175,-0.45729 0,-0.28399 0.153175,-0.4584 0.154292,-0.17442 0.402501,-0.17442 0.250446,0 0.40362,0.17442 0.153174,0.17441 0.153174,0.4584 0,0.28287 -0.153174,0.45729 -0.153174,0.17442 -0.40362,0.17442 z m 0,-0.1733 q 0.158765,0 0.252682,-0.12411 0.09392,-0.1241 0.09392,-0.3343 0,-0.21019 -0.09392,-0.3343 -0.09392,-0.12522 -0.252682,-0.12522 -0.158764,0 -0.252681,0.12522 -0.0928,0.12411 -0.0928,0.3343 0,0.2102 0.0928,0.3343 0.09392,0.12411 0.252681,0.12411 z"
             style="font-style:normal;font-variant:normal;font-weight:normal;font-stretch:normal;font-size:2.28978753px;font-family:Helvetica;-inkscape-font-specification:Helvetica;fill:#d5e3e8;fill-opacity:1;stroke:none;stroke-width:0.39332816;stroke-miterlimit:4;stroke-dasharray:none"
             id="path1122" />
          <path
             inkscape:connector-curvature="0"
             d="m 47.006651,977.9193 v -1.19632 0 h 0.09504 0.09615 v 0 0.17665 0 0 l 0.04472,-0.0593 q 0.130813,-0.15317 0.327591,-0.15317 0.197897,0 0.305231,0.10733 0.107333,0.10734 0.107333,0.30523 v 0.81954 0 h -0.100625 -0.100625 v 0 -0.75133 q 0,-0.15765 -0.06149,-0.22697 -0.06038,-0.0704 -0.196778,-0.0704 -0.145348,0 -0.230321,0.11069 -0.08497,0.10957 -0.08497,0.2974 v 0 0.64065 0 h -0.100626 -0.100625 v 0 z"
             style="font-style:normal;font-variant:normal;font-weight:normal;font-stretch:normal;font-size:2.28978753px;font-family:Helvetica;-inkscape-font-specification:Helvetica;fill:#d5e3e8;fill-opacity:1;stroke:none;stroke-width:0.39332816;stroke-miterlimit:4;stroke-dasharray:none"
             id="path1124" />
          <path
             inkscape:connector-curvature="0"
             d="m 48.267823,976.85826 v -0.58251 h 0.166591 v 0.58251 z"
             style="font-style:normal;font-variant:normal;font-weight:normal;font-stretch:normal;font-size:2.28978753px;font-family:Helvetica;-inkscape-font-specification:Helvetica;fill:#d5e3e8;fill-opacity:1;stroke:none;stroke-width:0.39332816;stroke-miterlimit:4;stroke-dasharray:none"
             id="path1126" />
          <path
             inkscape:connector-curvature="0"
             d="m 49.158917,977.91818 q -0.102862,0.0157 -0.14982,0.0157 -0.131931,0 -0.186716,-0.0581 -0.05367,-0.0581 -0.05367,-0.20013 v -0.78824 0 h -0.165473 v -0.16435 h 0.165473 v 0 -0.33542 h 0.201251 v 0.33542 0 h 0.188952 v 0.16435 h -0.188952 v 0 0.78824 q 0,0.0403 0.0313,0.0637 0.03242,0.0235 0.08609,0.0235 h 0.07156 v 0.15541 z"
             style="font-style:normal;font-variant:normal;font-weight:normal;font-stretch:normal;font-size:2.28978753px;font-family:Helvetica;-inkscape-font-specification:Helvetica;fill:#d5e3e8;fill-opacity:1;stroke:none;stroke-width:0.39332816;stroke-miterlimit:4;stroke-dasharray:none"
             id="path1128" />
          <path
             inkscape:connector-curvature="0"
             d="m 50.240081,976.88957 v 0 1.02973 0 H 50.139456 50.03883 v 0 -1.02973 0 h -0.165472 v -0.16659 h 0.165472 v 0 -0.20349 q 0,-0.13305 0.07827,-0.20013 0.07826,-0.0671 0.234792,-0.0671 l 0.08833,0.003 v 0.18112 l -0.07938,-0.003 q -0.05814,0 -0.08945,0.038 -0.03131,0.0369 -0.03131,0.10622 v 0.14535 0 h 0.200133 v 0.16659 h -0.200133 z"
             style="font-style:normal;font-variant:normal;font-weight:normal;font-stretch:normal;font-size:2.28978753px;font-family:Helvetica;-inkscape-font-specification:Helvetica;fill:#d5e3e8;fill-opacity:1;stroke:none;stroke-width:0.39332816;stroke-miterlimit:4;stroke-dasharray:none"
             id="path1130" />
          <path
             inkscape:connector-curvature="0"
             d="m 51.112169,977.95173 q -0.24821,0 -0.402502,-0.17442 -0.153174,-0.17442 -0.153174,-0.45729 0,-0.28399 0.153174,-0.4584 0.154292,-0.17442 0.402502,-0.17442 0.250445,0 0.403619,0.17442 0.153175,0.17441 0.153175,0.4584 0,0.28287 -0.153175,0.45729 -0.153174,0.17442 -0.403619,0.17442 z m 0,-0.1733 q 0.158764,0 0.252681,-0.12411 0.09392,-0.1241 0.09392,-0.3343 0,-0.21019 -0.09392,-0.3343 -0.09392,-0.12522 -0.252681,-0.12522 -0.158765,0 -0.252682,0.12522 -0.0928,0.12411 -0.0928,0.3343 0,0.2102 0.0928,0.3343 0.09392,0.12411 0.252682,0.12411 z"
             style="font-style:normal;font-variant:normal;font-weight:normal;font-stretch:normal;font-size:2.28978753px;font-family:Helvetica;-inkscape-font-specification:Helvetica;fill:#d5e3e8;fill-opacity:1;stroke:none;stroke-width:0.39332816;stroke-miterlimit:4;stroke-dasharray:none"
             id="path1132" />
          <path
             inkscape:connector-curvature="0"
             d="m 51.927234,977.9193 v -1.19632 0 h 0.09504 0.09615 v 0 0.2046 0 0 q 0.02571,-0.0481 0.05479,-0.0872 0.114042,-0.15317 0.280633,-0.15317 0.02795,0 0.05702,0.0101 v 0.20573 l -0.04137,-10e-4 q -0.163237,0 -0.252682,0.0984 -0.08833,0.0973 -0.08833,0.27839 v 0 0.64065 0 H 52.02786 51.927234 v 0 z"
             style="font-style:normal;font-variant:normal;font-weight:normal;font-stretch:normal;font-size:2.28978753px;font-family:Helvetica;-inkscape-font-specification:Helvetica;fill:#d5e3e8;fill-opacity:1;stroke:none;stroke-width:0.39332816;stroke-miterlimit:4;stroke-dasharray:none"
             id="path1134" />
          <path
             inkscape:connector-curvature="0"
             d="m 53.102316,978.25807 q 0.173299,0 0.263862,-0.10957 0.09056,-0.10845 0.09056,-0.31752 v -0.0391 l -0.0011,10e-4 q -0.124105,0.15877 -0.324238,0.15877 -0.240383,0 -0.382376,-0.17889 -0.141994,-0.18001 -0.141994,-0.48524 0,-0.26945 0.139758,-0.43493 0.139757,-0.16547 0.365605,-0.16547 0.215786,0 0.342127,0.18672 l 0.01454,0.0212 v 0 -0.17218 0 h 0.188952 v 1.108 q -0.0011,0.30299 -0.136404,0.44834 -0.135285,0.14535 -0.415918,0.14535 -0.203487,0 -0.323119,-0.0939 -0.119633,-0.0939 -0.14423,-0.27281 v 0 h 0.205723 v 0 q 0.01789,0.0961 0.08497,0.14759 0.0682,0.0525 0.1733,0.0525 z m 0.03913,-1.38751 q -0.168827,0 -0.247091,0.10734 -0.07715,0.10733 -0.07715,0.341 0,0.22026 0.08385,0.33989 0.08497,0.11852 0.240383,0.11852 0.146466,0 0.235911,-0.10957 0.08944,-0.10957 0.08944,-0.28958 0,-0.2538 -0.08162,-0.38014 -0.0805,-0.12746 -0.243737,-0.12746 z"
             style="font-style:normal;font-variant:normal;font-weight:normal;font-stretch:normal;font-size:2.28978753px;font-family:Helvetica;-inkscape-font-specification:Helvetica;fill:#d5e3e8;fill-opacity:1;stroke:none;stroke-width:0.39332816;stroke-miterlimit:4;stroke-dasharray:none"
             id="path1136" />
          <path
             inkscape:connector-curvature="0"
             d="m 54.426099,977.95173 q -0.2538,0 -0.399147,-0.161 -0.145348,-0.16101 -0.145348,-0.44499 0,-0.30188 0.153174,-0.47965 0.154292,-0.17889 0.413682,-0.17889 0.234793,0 0.379023,0.17442 0.144229,0.17441 0.144229,0.4584 l -0.0022,0.0716 v 0 h -0.874323 v 0 q 0.0123,0.17889 0.08162,0.2728 0.08497,0.11405 0.268334,0.11405 0.11516,0 0.201251,-0.0648 0.08609,-0.0648 0.105098,-0.16547 v 0 h 0.199014 v 0 q -0.04472,0.19677 -0.178889,0.30075 -0.134168,0.10287 -0.345481,0.10287 z m 0.335418,-0.72227 v 0 q -0.0089,-0.16659 -0.08274,-0.25939 -0.08162,-0.10286 -0.239265,-0.10286 -0.158765,0 -0.2538,0.11851 -0.07491,0.0928 -0.09056,0.24374 v 0 h 0.666364 z"
             style="font-style:normal;font-variant:normal;font-weight:normal;font-stretch:normal;font-size:2.28978753px;font-family:Helvetica;-inkscape-font-specification:Helvetica;fill:#d5e3e8;fill-opacity:1;stroke:none;stroke-width:0.39332816;stroke-miterlimit:4;stroke-dasharray:none"
             id="path1138" />
          <path
             inkscape:connector-curvature="0"
             d="m 55.652611,977.91818 q -0.102862,0.0157 -0.14982,0.0157 -0.131931,0 -0.186716,-0.0581 -0.05367,-0.0581 -0.05367,-0.20013 v -0.78824 0 h -0.165473 v -0.16435 h 0.165473 v 0 -0.33542 h 0.201251 v 0.33542 0 h 0.188952 v 0.16435 h -0.188952 v 0 0.78824 q 0,0.0403 0.03131,0.0637 0.03242,0.0235 0.08609,0.0235 h 0.07156 v 0.15541 z"
             style="font-style:normal;font-variant:normal;font-weight:normal;font-stretch:normal;font-size:2.28978753px;font-family:Helvetica;-inkscape-font-specification:Helvetica;fill:#d5e3e8;fill-opacity:1;stroke:none;stroke-width:0.39332816;stroke-miterlimit:4;stroke-dasharray:none"
             id="path1140" />
          <path
             inkscape:connector-curvature="0"
             d="m 56.922728,977.91818 q -0.102862,0.0157 -0.14982,0.0157 -0.131931,0 -0.186716,-0.0581 -0.05367,-0.0581 -0.05367,-0.20013 v -0.78824 0 h -0.165473 v -0.16435 h 0.165473 v 0 -0.33542 h 0.201251 v 0.33542 0 h 0.188952 v 0.16435 h -0.188952 v 0 0.78824 q 0,0.0403 0.03131,0.0637 0.03242,0.0235 0.08609,0.0235 h 0.07156 v 0.15541 z"
             style="font-style:normal;font-variant:normal;font-weight:normal;font-stretch:normal;font-size:2.28978753px;font-family:Helvetica;-inkscape-font-specification:Helvetica;fill:#d5e3e8;fill-opacity:1;stroke:none;stroke-width:0.39332816;stroke-miterlimit:4;stroke-dasharray:none"
             id="path1142" />
          <path
             inkscape:connector-curvature="0"
             d="m 57.605863,977.95173 q -0.24821,0 -0.402502,-0.17442 -0.153174,-0.17442 -0.153174,-0.45729 0,-0.28399 0.153174,-0.4584 0.154292,-0.17442 0.402502,-0.17442 0.250445,0 0.40362,0.17442 0.153174,0.17441 0.153174,0.4584 0,0.28287 -0.153174,0.45729 -0.153175,0.17442 -0.40362,0.17442 z m 0,-0.1733 q 0.158764,0 0.252681,-0.12411 0.09392,-0.1241 0.09392,-0.3343 0,-0.21019 -0.09392,-0.3343 -0.09392,-0.12522 -0.252681,-0.12522 -0.158765,0 -0.252682,0.12522 -0.0928,0.12411 -0.0928,0.3343 0,0.2102 0.0928,0.3343 0.09392,0.12411 0.252682,0.12411 z"
             style="font-style:normal;font-variant:normal;font-weight:normal;font-stretch:normal;font-size:2.28978753px;font-family:Helvetica;-inkscape-font-specification:Helvetica;fill:#d5e3e8;fill-opacity:1;stroke:none;stroke-width:0.39332816;stroke-miterlimit:4;stroke-dasharray:none"
             id="path1144" />
          <path
             inkscape:connector-curvature="0"
             d="m 59.012383,976.27575 v 0 h 0.100625 0.100626 v 0 0.60264 0 q 0.131931,-0.19343 0.341008,-0.19119 0.234793,0 0.371196,0.16212 0.137521,0.161 0.137521,0.43604 0,0.31194 -0.138639,0.48971 -0.137522,0.17666 -0.382377,0.17666 -0.202369,0 -0.322001,-0.15541 l -0.01901,-0.0246 v 0 0.14758 0 H 59.01238 v 0 -1.64355 z m 0.519898,1.50156 q 0.157646,0 0.239265,-0.11852 0.08162,-0.11963 0.08162,-0.34771 0,-0.22473 -0.07826,-0.33207 -0.07826,-0.10845 -0.241501,-0.10845 -0.166591,0 -0.243737,0.12187 -0.07603,0.12187 -0.07603,0.38573 v 0 0 0 q 0,0.19119 0.08274,0.29517 0.08274,0.10398 0.235911,0.10398 z"
             style="font-style:normal;font-variant:normal;font-weight:normal;font-stretch:normal;font-size:2.28978753px;font-family:Helvetica;-inkscape-font-specification:Helvetica;fill:#d5e3e8;fill-opacity:1;stroke:none;stroke-width:0.39332816;stroke-miterlimit:4;stroke-dasharray:none"
             id="path1146" />
          <path
             inkscape:connector-curvature="0"
             d="m 60.617916,977.95173 q -0.175535,0 -0.278397,-0.0939 -0.102861,-0.0939 -0.102861,-0.2538 0,-0.161 0.09615,-0.25604 0.09727,-0.095 0.282869,-0.11851 l 0.273925,-0.0347 q 0.03354,-0.003 0.06373,-0.0112 0.03913,-0.0101 0.06038,-0.0403 0.02124,-0.0302 0.02124,-0.076 v -0.0101 q 0,-0.0962 -0.07267,-0.14982 -0.07267,-0.0548 -0.202369,-0.0548 -0.124105,0 -0.194543,0.0581 -0.06932,0.057 -0.08385,0.17107 v 0 h -0.185598 v 0 q 0.01454,-0.19678 0.138639,-0.29517 0.124105,-0.0995 0.355543,-0.0995 0.218022,0 0.332064,0.095 0.114043,0.0939 0.114043,0.27505 v 0.65742 q 0,0.0302 0.01789,0.0492 0.01901,0.0179 0.05031,0.0179 0.0089,0 0.02572,-0.002 0.01789,-0.002 0.03801,-0.007 v 0.14534 q -0.02907,0.0112 -0.06149,0.0179 -0.03242,0.007 -0.05479,0.007 -0.114042,0 -0.165473,-0.0626 -0.03354,-0.0414 -0.04808,-0.1174 v 0 q -0.02236,0.028 -0.05143,0.0537 -0.150938,0.13529 -0.36896,0.13529 z m 0.417037,-0.50649 v -0.12969 0 q -0.0559,0.0268 -0.124105,0.0369 l -0.18448,0.0268 q -0.145348,0.0201 -0.212431,0.0682 -0.06708,0.047 -0.06708,0.12858 0,0.10062 0.05479,0.15541 0.05479,0.0537 0.15541,0.0537 0.158765,0 0.268335,-0.0861 0.07491,-0.0604 0.09951,-0.1364 0.0045,-0.0145 0.0067,-0.0458 0.0034,-0.0324 0.0034,-0.0716 z"
             style="font-style:normal;font-variant:normal;font-weight:normal;font-stretch:normal;font-size:2.28978753px;font-family:Helvetica;-inkscape-font-specification:Helvetica;fill:#d5e3e8;fill-opacity:1;stroke:none;stroke-width:0.39332816;stroke-miterlimit:4;stroke-dasharray:none"
             id="path1148" />
          <path
             inkscape:connector-curvature="0"
             d="m 62.520856,977.48885 v 0 q -0.03131,0.22585 -0.159883,0.34436 -0.128577,0.11852 -0.342126,0.11852 -0.238147,0 -0.380141,-0.17107 -0.141994,-0.17106 -0.141994,-0.46064 0,-0.28958 0.146466,-0.46064 0.147584,-0.17218 0.395794,-0.17218 0.215785,0 0.344362,0.11851 0.128577,0.1174 0.137522,0.32424 v 0 h -0.193425 v 0 q -0.0123,-0.12858 -0.08944,-0.19901 -0.07715,-0.0704 -0.205723,-0.0704 -0.152056,0 -0.239265,0.12299 -0.08609,0.12186 -0.08609,0.33653 0,0.22809 0.0805,0.34325 0.0805,0.11516 0.239265,0.11516 0.117396,0 0.19566,-0.0749 0.07938,-0.076 0.105098,-0.21467 v 0 h 0.193425 z"
             style="font-style:normal;font-variant:normal;font-weight:normal;font-stretch:normal;font-size:2.28978753px;font-family:Helvetica;-inkscape-font-specification:Helvetica;fill:#d5e3e8;fill-opacity:1;stroke:none;stroke-width:0.39332816;stroke-miterlimit:4;stroke-dasharray:none"
             id="path1150" />
          <path
             inkscape:connector-curvature="0"
             d="m 62.726579,977.9193 v -1.64355 0 h 0.100625 0.100625 v 0 0.947 0 l 0.505364,-0.49977 v 0 h 0.127459 0.128577 v 0 l -0.455051,0.44387 v 0 l 0.485238,0.75245 v 0 h -0.130813 -0.131931 v 0 l -0.371196,-0.60822 v 0 l -0.157647,0.15429 v 0 0.45393 0 h -0.100625 z"
             style="font-style:normal;font-variant:normal;font-weight:normal;font-stretch:normal;font-size:2.28978753px;font-family:Helvetica;-inkscape-font-specification:Helvetica;fill:#d5e3e8;fill-opacity:1;stroke:none;stroke-width:0.39332816;stroke-miterlimit:4;stroke-dasharray:none"
             id="path1152" />
          <path
             inkscape:connector-curvature="0"
             d="m 64.074959,976.72298 v 0.77146 q 0,0.15094 0.05814,0.21802 0.05814,0.066 0.188953,0.066 0.145347,0 0.23032,-0.11181 0.08497,-0.11292 0.08497,-0.30523 v 0 -0.63841 0 h 0.100625 0.100625 v 0 1.19632 0 h -0.09503 -0.09615 v 0 -0.18224 0 0 q -0.02013,0.0324 -0.04472,0.0615 -0.128577,0.15318 -0.322002,0.15318 -0.203487,0 -0.30523,-0.10175 -0.101744,-0.10174 -0.101744,-0.30523 v -0.82177 0 h 0.100626 0.100625 v 0 z"
             style="font-style:normal;font-variant:normal;font-weight:normal;font-stretch:normal;font-size:2.28978753px;font-family:Helvetica;-inkscape-font-specification:Helvetica;fill:#d5e3e8;fill-opacity:1;stroke:none;stroke-width:0.39332816;stroke-miterlimit:4;stroke-dasharray:none"
             id="path1155" />
          <path
             inkscape:connector-curvature="0"
             d="m 65.125937,976.72298 v 0 h 0.09504 0.09615 v 0 0.16994 0 l 0.01006,-0.0145 q 0.129695,-0.19119 0.341008,-0.19119 0.234793,0 0.371196,0.16212 0.137521,0.161 0.137521,0.43604 0,0.31194 -0.138639,0.48971 -0.137522,0.17666 -0.382377,0.17666 -0.202369,0 -0.322001,-0.15541 l -0.0067,-0.009 v 0 0.60487 0 h -0.100626 -0.100625 v 0 -1.66926 z m 0.519898,1.05433 q 0.157646,0 0.239265,-0.11852 0.08162,-0.11963 0.08162,-0.34771 0,-0.22473 -0.07826,-0.33207 -0.07826,-0.10845 -0.241501,-0.10845 -0.166591,0 -0.243737,0.12187 -0.07603,0.12187 -0.07603,0.38573 v 0 0 0 q 0,0.19119 0.08274,0.29517 0.08274,0.10398 0.235911,0.10398 z"
             style="font-style:normal;font-variant:normal;font-weight:normal;font-stretch:normal;font-size:2.28978753px;font-family:Helvetica;-inkscape-font-specification:Helvetica;fill:#d5e3e8;fill-opacity:1;stroke:none;stroke-width:0.39332816;stroke-miterlimit:4;stroke-dasharray:none"
             id="path1157" />
          <path
             inkscape:connector-curvature="0"
             d="m 68.021713,976.72298 -0.455051,1.23545 q -0.105097,0.27617 -0.187834,0.36114 -0.08162,0.085 -0.245973,0.085 -0.05367,10e-4 -0.09727,-0.0123 v -0.18671 q 0.04584,0.0168 0.11516,0.0179 0.0682,0 0.114042,-0.0559 0.04584,-0.0559 0.10398,-0.20908 l 0.0034,-0.019 v 0 l -0.44387,-1.21645 v 0 h 0.114042 0.11516 v 0 l 0.319765,0.98948 v 0 0 l 0.324238,-0.98948 v 0 h 0.10957 0.110688 v 0 z"
             style="font-style:normal;font-variant:normal;font-weight:normal;font-stretch:normal;font-size:2.28978753px;font-family:Helvetica;-inkscape-font-specification:Helvetica;fill:#d5e3e8;fill-opacity:1;stroke:none;stroke-width:0.39332816;stroke-miterlimit:4;stroke-dasharray:none"
             id="path1159" />
          <path
             inkscape:connector-curvature="0"
             d="m 68.683604,977.95173 q -0.248209,0 -0.402501,-0.17442 -0.153175,-0.17442 -0.153175,-0.45729 0,-0.28399 0.153175,-0.4584 0.154292,-0.17442 0.402501,-0.17442 0.250446,0 0.40362,0.17442 0.153174,0.17441 0.153174,0.4584 0,0.28287 -0.153174,0.45729 -0.153174,0.17442 -0.40362,0.17442 z m 0,-0.1733 q 0.158765,0 0.252682,-0.12411 0.09392,-0.1241 0.09392,-0.3343 0,-0.21019 -0.09392,-0.3343 -0.09392,-0.12522 -0.252682,-0.12522 -0.158764,0 -0.252681,0.12522 -0.0928,0.12411 -0.0928,0.3343 0,0.2102 0.0928,0.3343 0.09392,0.12411 0.252681,0.12411 z"
             style="font-style:normal;font-variant:normal;font-weight:normal;font-stretch:normal;font-size:2.28978753px;font-family:Helvetica;-inkscape-font-specification:Helvetica;fill:#d5e3e8;fill-opacity:1;stroke:none;stroke-width:0.39332816;stroke-miterlimit:4;stroke-dasharray:none"
             id="path1161" />
          <path
             inkscape:connector-curvature="0"
             d="m 69.678677,976.72298 v 0.77146 q 0,0.15094 0.05814,0.21802 0.05814,0.066 0.188952,0.066 0.145348,0 0.230321,-0.11181 0.08497,-0.11292 0.08497,-0.30523 v 0 -0.63841 0 h 0.100626 0.100625 v 0 1.19632 0 h -0.09503 -0.09615 v 0 -0.18224 0 0 q -0.02013,0.0324 -0.04472,0.0615 -0.128576,0.15318 -0.322001,0.15318 -0.203487,0 -0.30523,-0.10175 -0.101744,-0.10174 -0.101744,-0.30523 v -0.82177 0 h 0.100626 0.100625 v 0 z"
             style="font-style:normal;font-variant:normal;font-weight:normal;font-stretch:normal;font-size:2.28978753px;font-family:Helvetica;-inkscape-font-specification:Helvetica;fill:#d5e3e8;fill-opacity:1;stroke:none;stroke-width:0.39332816;stroke-miterlimit:4;stroke-dasharray:none"
             id="path1163" />
          <path
             inkscape:connector-curvature="0"
             d="m 70.773259,977.9193 v -1.19632 0 h 0.09504 0.09615 v 0 0.2046 0 0 q 0.02572,-0.0481 0.05478,-0.0872 0.114042,-0.15317 0.280633,-0.15317 0.02795,0 0.05702,0.0101 v 0.20573 l -0.04137,-10e-4 q -0.163237,0 -0.252682,0.0984 -0.08833,0.0973 -0.08833,0.27839 v 0 0.64065 0 h -0.100626 -0.100625 v 0 z"
             style="font-style:normal;font-variant:normal;font-weight:normal;font-stretch:normal;font-size:2.28978753px;font-family:Helvetica;-inkscape-font-specification:Helvetica;fill:#d5e3e8;fill-opacity:1;stroke:none;stroke-width:0.39332816;stroke-miterlimit:4;stroke-dasharray:none"
             id="path1165" />
          <path
             inkscape:connector-curvature="0"
             d="m 72.601287,977.95173 q -0.240383,0 -0.382377,-0.17889 -0.141994,-0.18001 -0.141994,-0.48524 0,-0.26945 0.137522,-0.43493 0.137521,-0.16547 0.358897,-0.16547 0.220258,0 0.348835,0.18672 l 0.01565,0.0224 v 0 -0.62053 0 h 0.100625 0.100626 v 0 1.64355 0 h -0.0928 -0.09392 v 0 -0.16323 0 l -0.02572,0.0369 q -0.124104,0.15877 -0.325355,0.15877 z m 0.01118,-1.0834 q -0.168827,0 -0.247091,0.10845 -0.07826,0.10733 -0.07826,0.34212 0,0.22138 0.08385,0.34101 0.08497,0.11963 0.241501,0.11963 0.146466,0 0.235911,-0.10957 0.08944,-0.11068 0.08944,-0.29181 0,-0.24485 -0.08497,-0.37679 -0.08385,-0.13304 -0.240383,-0.13304 z"
             style="font-style:normal;font-variant:normal;font-weight:normal;font-stretch:normal;font-size:2.28978753px;font-family:Helvetica;-inkscape-font-specification:Helvetica;fill:#d5e3e8;fill-opacity:1;stroke:none;stroke-width:0.39332816;stroke-miterlimit:4;stroke-dasharray:none"
             id="path1167" />
          <path
             inkscape:connector-curvature="0"
             d="m 73.735001,977.95173 q -0.175536,0 -0.278397,-0.0939 -0.102862,-0.0939 -0.102862,-0.2538 0,-0.161 0.09615,-0.25604 0.09727,-0.095 0.28287,-0.11851 l 0.273924,-0.0347 q 0.03354,-0.003 0.06373,-0.0112 0.03913,-0.0101 0.06037,-0.0403 0.02124,-0.0302 0.02124,-0.076 v -0.0101 q 0,-0.0962 -0.07267,-0.14982 -0.07267,-0.0548 -0.202369,-0.0548 -0.124104,0 -0.194542,0.0581 -0.06932,0.057 -0.08385,0.17107 v 0 h -0.185598 v 0 q 0.01453,-0.19678 0.13864,-0.29517 0.124104,-0.0995 0.355543,-0.0995 0.218022,0 0.332064,0.095 0.114042,0.0939 0.114042,0.27505 v 0.65742 q 0,0.0302 0.01789,0.0492 0.01901,0.0179 0.05031,0.0179 0.0089,0 0.02571,-0.002 0.01789,-0.002 0.03801,-0.007 v 0.14534 q -0.02907,0.0112 -0.06149,0.0179 -0.03242,0.007 -0.05478,0.007 -0.114042,0 -0.165473,-0.0626 -0.03354,-0.0414 -0.04808,-0.1174 v 0 q -0.02236,0.028 -0.05143,0.0537 -0.150939,0.13529 -0.36896,0.13529 z m 0.417036,-0.50649 v -0.12969 0 q -0.0559,0.0268 -0.124105,0.0369 l -0.184479,0.0268 q -0.145348,0.0201 -0.212432,0.0682 -0.06708,0.047 -0.06708,0.12858 0,0.10062 0.05479,0.15541 0.05478,0.0537 0.155411,0.0537 0.158764,0 0.268334,-0.0861 0.07491,-0.0604 0.09951,-0.1364 0.0045,-0.0145 0.0067,-0.0458 0.0034,-0.0324 0.0034,-0.0716 z"
             style="font-style:normal;font-variant:normal;font-weight:normal;font-stretch:normal;font-size:2.28978753px;font-family:Helvetica;-inkscape-font-specification:Helvetica;fill:#d5e3e8;fill-opacity:1;stroke:none;stroke-width:0.39332816;stroke-miterlimit:4;stroke-dasharray:none"
             id="path1169" />
          <path
             inkscape:connector-curvature="0"
             d="m 75.133693,977.91818 q -0.102862,0.0157 -0.14982,0.0157 -0.131931,0 -0.186716,-0.0581 -0.05367,-0.0581 -0.05367,-0.20013 v -0.78824 0 h -0.165473 v -0.16435 h 0.165473 v 0 -0.33542 h 0.201251 v 0.33542 0 h 0.188952 v 0.16435 h -0.188952 v 0 0.78824 q 0,0.0403 0.03131,0.0637 0.03242,0.0235 0.08609,0.0235 h 0.07156 v 0.15541 z"
             style="font-style:normal;font-variant:normal;font-weight:normal;font-stretch:normal;font-size:2.28978753px;font-family:Helvetica;-inkscape-font-specification:Helvetica;fill:#d5e3e8;fill-opacity:1;stroke:none;stroke-width:0.39332816;stroke-miterlimit:4;stroke-dasharray:none"
             id="path1171" />
          <path
             inkscape:connector-curvature="0"
             d="m 75.644648,977.95173 q -0.175536,0 -0.278397,-0.0939 -0.102862,-0.0939 -0.102862,-0.2538 0,-0.161 0.09615,-0.25604 0.09727,-0.095 0.28287,-0.11851 l 0.273924,-0.0347 q 0.03354,-0.003 0.06373,-0.0112 0.03913,-0.0101 0.06038,-0.0403 0.02124,-0.0302 0.02124,-0.076 v -0.0101 q 0,-0.0962 -0.07267,-0.14982 -0.07267,-0.0548 -0.202369,-0.0548 -0.124104,0 -0.194542,0.0581 -0.06932,0.057 -0.08385,0.17107 v 0 h -0.185598 v 0 q 0.01453,-0.19678 0.13864,-0.29517 0.124104,-0.0995 0.355543,-0.0995 0.218022,0 0.332064,0.095 0.114042,0.0939 0.114042,0.27505 v 0.65742 q 0,0.0302 0.01789,0.0492 0.01901,0.0179 0.05031,0.0179 0.0089,0 0.02572,-0.002 0.01789,-0.002 0.03801,-0.007 v 0.14534 q -0.02907,0.0112 -0.06149,0.0179 -0.03242,0.007 -0.05478,0.007 -0.114042,0 -0.165473,-0.0626 -0.03354,-0.0414 -0.04808,-0.1174 v 0 q -0.02236,0.028 -0.05143,0.0537 -0.150939,0.13529 -0.36896,0.13529 z m 0.417036,-0.50649 v -0.12969 0 q -0.0559,0.0268 -0.124105,0.0369 l -0.184479,0.0268 q -0.145348,0.0201 -0.212432,0.0682 -0.06708,0.047 -0.06708,0.12858 0,0.10062 0.05478,0.15541 0.05478,0.0537 0.155411,0.0537 0.158764,0 0.268334,-0.0861 0.07491,-0.0604 0.09951,-0.1364 0.0045,-0.0145 0.0067,-0.0458 0.0034,-0.0324 0.0034,-0.0716 z"
             style="font-style:normal;font-variant:normal;font-weight:normal;font-stretch:normal;font-size:2.28978753px;font-family:Helvetica;-inkscape-font-specification:Helvetica;fill:#d5e3e8;fill-opacity:1;stroke:none;stroke-width:0.39332816;stroke-miterlimit:4;stroke-dasharray:none"
             id="path1173" />
          <path
             inkscape:connector-curvature="0"
             d="m 76.654257,977.67668 h 0.239265 v 0.24262 h -0.239265 z"
             style="font-style:normal;font-variant:normal;font-weight:normal;font-stretch:normal;font-size:2.28978753px;font-family:Helvetica;-inkscape-font-specification:Helvetica;fill:#d5e3e8;fill-opacity:1;stroke:none;stroke-width:0.39332816;stroke-miterlimit:4;stroke-dasharray:none"
             id="path1175" />
        </g>
      </g>
      <path
         inkscape:connector-curvature="0"
         id="path6331"
         d="m 9.2569828,274.33537 0.5687584,-1.11264 H 23.945851 l 0.671318,1.04171 z"
         style="fill:url(#linearGradient6355);fill-opacity:1;fill-rule:evenodd;stroke:#595959;stroke-width:0.19047619;stroke-linecap:round;stroke-linejoin:round;stroke-miterlimit:4;stroke-dasharray:none;stroke-opacity:1" />
      <path
         inkscape:connector-curvature="0"
         id="path6324"
         d="m 12.956518,265.32966 v 8.98022 l -3.7159743,0.0172 3.8999183,3.81465 3.899918,3.81464 3.792947,-3.85012 3.792781,-3.8503 -3.716138,0.0172 v -8.94342 h -7.953452 z"
         style="opacity:1;fill:url(#linearGradient6339);fill-opacity:1;fill-rule:evenodd;stroke:#666666;stroke-width:0.19047619;stroke-linecap:round;stroke-linejoin:round;stroke-miterlimit:4;stroke-dasharray:none;stroke-opacity:1" />
      <path
         inkscape:connector-curvature="0"
         id="path6329"
         d="m 13.561465,264.31171 6.590536,-0.0251 0.752786,1.04866 -7.94728,-0.004 z"
         style="fill:url(#linearGradient6347);fill-opacity:1;fill-rule:evenodd;stroke:#666666;stroke-width:0.19047619;stroke-linecap:round;stroke-linejoin:round;stroke-miterlimit:4;stroke-dasharray:none;stroke-opacity:1" />
      <g
         transform="matrix(0.79356806,0,0,0.7916409,-355.94839,-153.90489)"
         id="layer1-4-3"
         inkscape:label="Capa 1"
         inkscape:transform-center-x="5.4653607"
         inkscape:transform-center-y="-9.4924686"
         style="stroke-width:2.63379049">
        <g
           transform="translate(0.41988239,0.03484499)"
           inkscape:label="Capa 1"
           id="layer1-3-65-9"
           style="stroke-width:2.63379049" />
      </g>
      <g
         transform="matrix(0.79356806,0,0,0.7916409,-355.94839,-153.86805)"
         id="layer1-4"
         inkscape:label="Capa 1"
         inkscape:transform-center-x="5.4653607"
         inkscape:transform-center-y="-9.4924686"
         style="stroke-width:2.63379049">
        <g
           transform="translate(0.41988239,0.03484499)"
           inkscape:label="Capa 1"
           id="layer1-3-65"
           style="stroke-width:2.63379049" />
      </g>
    </g>
  </g>
</svg>
