<?xml version="1.0" encoding="UTF-8" standalone="no"?>
<!-- Created with Inkscape (http://www.inkscape.org/) -->

<svg
   xmlns:osb="http://www.openswatchbook.org/uri/2009/osb"
   xmlns:dc="http://purl.org/dc/elements/1.1/"
   xmlns:cc="http://creativecommons.org/ns#"
   xmlns:rdf="http://www.w3.org/1999/02/22-rdf-syntax-ns#"
   xmlns:svg="http://www.w3.org/2000/svg"
   xmlns="http://www.w3.org/2000/svg"
   xmlns:sodipodi="http://sodipodi.sourceforge.net/DTD/sodipodi-0.dtd"
   xmlns:inkscape="http://www.inkscape.org/namespaces/inkscape"
   width="128"
   height="128"
   viewBox="0 0 33.866665 33.866665"
   version="1.1"
   id="svg4942"
   inkscape:version="0.92.2 5c3e80d, 2017-08-06"
   sodipodi:docname="netease-cloud-music.svg">
  <defs
     id="defs4936">
    <linearGradient
       id="linearGradient6987"
       osb:paint="solid">
      <stop
         style="stop-color:#77d2fb;stop-opacity:1;"
         offset="0"
         id="stop6985" />
    </linearGradient>
    <linearGradient
       gradientUnits="userSpaceOnUse"
       gradientTransform="matrix(0,-0.69021735,0.69021735,0,-90.211279,258.80599)"
       y2="35.988159"
       y1="15.05186"
       x2="38.089191"
       x1="5.536231"
       id="a">
      <stop
         id="stop1084"
         offset="0"
         stop-color="#e80b47"
         style="stop-color:#d70404;stop-opacity:1" />
      <stop
         id="stop1086"
         offset="1"
         stop-color="#ff4a4a"
         style="stop-color:#fc4e4e;stop-opacity:1" />
    </linearGradient>
  </defs>
  <sodipodi:namedview
     id="base"
     pagecolor="#ffffff"
     bordercolor="#666666"
     borderopacity="1.0"
     inkscape:pageopacity="0.0"
     inkscape:pageshadow="2"
     inkscape:zoom="2.4516413"
     inkscape:cx="14.876262"
     inkscape:cy="31.978309"
     inkscape:document-units="mm"
     inkscape:current-layer="layer1"
     showgrid="false"
     units="px"
     width="128px"
     inkscape:window-width="1549"
     inkscape:window-height="856"
     inkscape:window-x="51"
     inkscape:window-y="0"
     inkscape:window-maximized="1"
     inkscape:measure-start="-293.521,100.415"
     inkscape:measure-end="-294.709,409.978"
     showguides="true" />
  <metadata
     id="metadata4939">
    <rdf:RDF>
      <cc:Work
         rdf:about="">
        <dc:format>image/svg+xml</dc:format>
        <dc:type
           rdf:resource="http://purl.org/dc/dcmitype/StillImage" />
        <dc:title />
      </cc:Work>
    </rdf:RDF>
  </metadata>
  <g
     inkscape:label="Layer 1"
     inkscape:groupmode="layer"
     id="layer1"
     transform="translate(0,-263.13332)">
    <g
       style="fill:#ffffff;fill-opacity:0.84722003;stroke-width:0.79207999"
       transform="matrix(0.0237199,0,0,0.0237199,-44.064141,262.64667)"
       id="g30" />
    <g
       transform="matrix(0.4983199,0,0,0.4983199,-107.44011,259.04063)"
       id="g1099">
      <g
         transform="translate(1,1)"
         id="g1097" />
    </g>
    <g
       transform="matrix(0.4983199,0,0,0.4983199,-107.44011,259.04063)"
       id="g1101" />
    <g
       id="g1508"
       transform="matrix(0.98056868,0,0,0.98056868,89.148355,42.322526)">
      <path
         style="opacity:0.25;fill:#000000;stroke-width:0.52916896"
         inkscape:connector-curvature="0"
         d="m -73.64606,226.89494 c 8.767826,0 15.874997,7.10717 15.874997,15.875 0,8.76783 -7.107171,15.875 -15.874997,15.875 -8.767836,0 -15.875,-7.10717 -15.875,-15.875 0,-8.76783 7.107164,-15.875 15.875,-15.875 z"
         id="path1502" />
      <path
         id="path1105"
         d="m -73.64606,226.36577 c 8.767826,0 15.874997,7.10717 15.874997,15.875 0,8.76783 -7.107171,15.875 -15.874997,15.875 -8.767836,0 -15.875,-7.10717 -15.875,-15.875 0,-8.76783 7.107164,-15.875 15.875,-15.875 z"
         inkscape:connector-curvature="0"
         style="fill:url(#a);stroke:#8c0303;stroke-width:0.2;stroke-miterlimit:4;stroke-dasharray:none;stroke-opacity:1" />
      <path
         style="opacity:0.25;fill:#000000;fill-opacity:1;stroke-width:0.52916896"
         inkscape:connector-curvature="0"
         d="m -71.88532,242.80169 c 0,0.82184 -0.693946,1.48991 -1.547056,1.48991 -0.946284,0 -1.46809,-0.83069 -1.552504,-1.60083 -0.161234,-1.46947 0.636103,-2.26957 1.333436,-2.68115 0.283007,-0.16668 0.593912,-0.29662 0.918398,-0.39186 0,0 0.75179,2.30422 0.81025,2.6621 0.06467,0.3939 0.03674,0.5218 0.03674,0.5218 m 3.694109,-4.62141 c -0.831362,-0.52045 -1.850474,-0.80619 -2.900223,-0.85719 l -0.23471,-0.82791 0.0074,0.008 c -0.0096,-0.0252 -0.01699,-0.0489 -0.02517,-0.0727 l -0.06934,-0.24492 c -0.159875,-0.70823 0.130619,-1.04568 0.280289,-1.16675 0.02581,-0.0184 0.05172,-0.0374 0.07965,-0.0557 0.687117,-0.4388 1.659281,0.26465 1.713738,0.30615 0.432687,0.40207 1.223897,0.50139 1.651137,0.0898 0.431328,-0.415 0.329275,-1.19263 -0.10131,-1.60828 -0.671464,-0.64698 -2.734847,-1.68447 -4.488068,-0.55786 -1.577013,1.01234 -1.608967,2.43688 -1.349099,3.2608 l 0.314992,1.11366 c -0.527933,0.14627 -1.032015,0.35513 -1.49467,0.62793 -1.726651,1.01842 -2.592037,2.74168 -2.376347,4.71736 0.223826,2.03076 1.799458,3.50637 3.750572,3.50637 2.070232,0 3.75602,-1.62325 3.75602,-3.6179 -0.02793,-0.47555 -0.02241,-0.47079 -0.08772,-0.89597 -0.06531,-0.415 -0.702091,-2.36684 -0.702091,-2.36684 0.391187,0.0871 0.756548,0.22928 1.072188,0.42588 3.561451,2.22941 2.079067,5.77795 2.013089,5.93235 -0.98032,2.2675 -3.120618,3.62137 -5.868442,3.71385 -1.791249,0.0613 -3.507749,-0.5837 -4.832965,-1.81574 -1.397344,-1.29942 -2.198759,-3.11924 -2.198759,-4.99283 0,-2.82196 1.842956,-5.38542 4.586011,-6.37665 0.571462,-0.20613 1.032015,-0.79396 0.716375,-1.47699 -0.248314,-0.53677 -0.921159,-0.72114 -1.49328,-0.51433 -3.600243,1.30078 -6.01946,4.66429 -6.01946,8.3682 0,2.44778 1.047689,4.82621 2.873653,6.52427 1.684471,1.56542 3.851966,2.41715 6.136444,2.41654 0.103433,0 0.208183,-0.001 0.311584,-0.005 3.596176,-0.12178 6.522905,-1.9988 7.826384,-5.01187 0.815007,-1.83005 1.268817,-5.97115 -2.844386,-8.54559"
         id="path1500" />
      <path
         id="path1111"
         d="m -71.88532,242.27252 c 0,0.82184 -0.693946,1.48991 -1.547056,1.48991 -0.946284,0 -1.46809,-0.83069 -1.552504,-1.60083 -0.161234,-1.46947 0.636103,-2.26957 1.333436,-2.68115 0.283007,-0.16668 0.593912,-0.29662 0.918398,-0.39186 0,0 0.75179,2.30422 0.81025,2.6621 0.06467,0.3939 0.03674,0.5218 0.03674,0.5218 m 3.694109,-4.62141 c -0.831362,-0.52045 -1.850474,-0.80619 -2.900223,-0.85719 l -0.23471,-0.82791 0.0074,0.008 c -0.0096,-0.0252 -0.01699,-0.0489 -0.02517,-0.0727 l -0.06934,-0.24492 c -0.159875,-0.70823 0.130619,-1.04568 0.280289,-1.16675 0.02581,-0.0184 0.05172,-0.0374 0.07965,-0.0557 0.687117,-0.4388 1.659281,0.26465 1.713738,0.30615 0.432687,0.40207 1.223897,0.50139 1.651137,0.0898 0.431328,-0.415 0.329275,-1.19263 -0.10131,-1.60828 -0.671464,-0.64698 -2.734847,-1.68447 -4.488068,-0.55786 -1.577013,1.01234 -1.608967,2.43688 -1.349099,3.2608 l 0.314992,1.11366 c -0.527933,0.14627 -1.032015,0.35513 -1.49467,0.62793 -1.726651,1.01842 -2.592037,2.74168 -2.376347,4.71736 0.223826,2.03076 1.799458,3.50637 3.750572,3.50637 2.070232,0 3.75602,-1.62325 3.75602,-3.6179 -0.02793,-0.47555 -0.02241,-0.47079 -0.08772,-0.89597 -0.06531,-0.415 -0.702091,-2.36684 -0.702091,-2.36684 0.391187,0.0871 0.756548,0.22928 1.072188,0.42588 3.561451,2.22941 2.079067,5.77795 2.013089,5.93235 -0.98032,2.2675 -3.120618,3.62137 -5.868442,3.71385 -1.791249,0.0613 -3.507749,-0.5837 -4.832965,-1.81574 -1.397344,-1.29942 -2.198759,-3.11924 -2.198759,-4.99283 0,-2.82196 1.842956,-5.38542 4.586011,-6.37665 0.571462,-0.20613 1.032015,-0.79396 0.716375,-1.47699 -0.248314,-0.53677 -0.921159,-0.72114 -1.49328,-0.51433 -3.600243,1.30078 -6.01946,4.66429 -6.01946,8.3682 0,2.44778 1.047689,4.82621 2.873653,6.52427 1.684471,1.56542 3.851966,2.41715 6.136444,2.41654 0.103433,0 0.208183,-0.001 0.311584,-0.005 3.596176,-0.12178 6.522905,-1.9988 7.826384,-5.01187 0.815007,-1.83005 1.268817,-5.97115 -2.844386,-8.54559"
         inkscape:connector-curvature="0"
         style="fill:#ffe8e8;fill-opacity:1;stroke-width:0.52916896" />
    </g>
  </g>
</svg>
