<?xml version="1.0" encoding="UTF-8" standalone="no"?>
<!-- Created with Inkscape (http://www.inkscape.org/) -->

<svg
   xmlns:dc="http://purl.org/dc/elements/1.1/"
   xmlns:cc="http://creativecommons.org/ns#"
   xmlns:rdf="http://www.w3.org/1999/02/22-rdf-syntax-ns#"
   xmlns:svg="http://www.w3.org/2000/svg"
   xmlns="http://www.w3.org/2000/svg"
   xmlns:sodipodi="http://sodipodi.sourceforge.net/DTD/sodipodi-0.dtd"
   xmlns:inkscape="http://www.inkscape.org/namespaces/inkscape"
   width="128"
   height="128"
   viewBox="0 0 33.866666 33.866668"
   version="1.1"
   id="svg8"
   inkscape:version="0.92.2 5c3e80d, 2017-08-06"
   sodipodi:docname="org.kde.plasma.calendar.svg">
  <defs
     id="defs2" />
  <sodipodi:namedview
     id="base"
     pagecolor="#ffffff"
     bordercolor="#666666"
     borderopacity="1.0"
     inkscape:pageopacity="0.0"
     inkscape:pageshadow="2"
     inkscape:zoom="0.7071068"
     inkscape:cx="-191.70386"
     inkscape:cy="34.900876"
     inkscape:document-units="mm"
     inkscape:current-layer="layer1"
     showgrid="false"
     units="px"
     inkscape:window-width="1600"
     inkscape:window-height="803"
     inkscape:window-x="0"
     inkscape:window-y="0"
     inkscape:window-maximized="1" />
  <metadata
     id="metadata5">
    <rdf:RDF>
      <cc:Work
         rdf:about="">
        <dc:format>image/svg+xml</dc:format>
        <dc:type
           rdf:resource="http://purl.org/dc/dcmitype/StillImage" />
        <dc:title />
      </cc:Work>
    </rdf:RDF>
  </metadata>
  <g
     inkscape:label="Layer 1"
     inkscape:groupmode="layer"
     id="layer1"
     transform="translate(0,-263.13332)">
    <rect
       style="opacity:0.25;fill:#000000;fill-opacity:1;stroke:none;stroke-width:0.47076744;stroke-miterlimit:4;stroke-dasharray:none;stroke-dashoffset:0;stroke-opacity:1"
       id="rect1901"
       width="28.577274"
       height="24.61356"
       x="-41.547131"
       y="268.04211"
       ry="1.1324556"
       transform="rotate(-9.0000001)" />
    <rect
       ry="1.1324556"
       y="267.51578"
       x="-41.463764"
       height="24.61356"
       width="28.577274"
       id="rect1883"
       style="opacity:1;fill:#3a424a;fill-opacity:1;stroke:none;stroke-width:0.47076744;stroke-miterlimit:4;stroke-dasharray:none;stroke-dashoffset:0;stroke-opacity:1"
       transform="rotate(-9.0000001)" />
    <rect
       ry="0"
       y="266.37674"
       x="-40.581505"
       height="25.013943"
       width="26.646011"
       id="rect1897"
       style="opacity:0.25;fill:#000000;fill-opacity:1;stroke:none;stroke-width:0.45826426;stroke-miterlimit:4;stroke-dasharray:none;stroke-dashoffset:0;stroke-opacity:1"
       transform="rotate(-9.0000001)" />
    <rect
       style="opacity:1;fill:#f4f4f4;fill-opacity:1;stroke:none;stroke-width:0.20141868;stroke-miterlimit:4;stroke-dasharray:none;stroke-dashoffset:0;stroke-opacity:1"
       id="rect1881"
       width="26.646011"
       height="25.013943"
       x="-40.498138"
       y="265.85037"
       ry="0"
       transform="rotate(-9.0000001)" />
    <path
       inkscape:connector-curvature="0"
       id="path1903"
       d="m 1.5888721,269.4455 1.3462513,8.49987 26.3179506,-4.16834 -1.346252,-8.49989 z"
       style="opacity:0.25;fill:#000000;fill-opacity:1;stroke:none;stroke-width:0.45826426;stroke-miterlimit:4;stroke-dasharray:none;stroke-dashoffset:0;stroke-opacity:1" />
    <path
       style="opacity:1;fill:#0095ff;fill-opacity:1;stroke:none;stroke-width:0.45826426;stroke-miterlimit:4;stroke-dasharray:none;stroke-dashoffset:0;stroke-opacity:1"
       d="m 1.5888721,268.91257 1.3462533,8.49988 26.3179486,-4.16835 -1.346242,-8.49987 z"
       id="rect1892"
       inkscape:connector-curvature="0" />
    <g
       transform="matrix(1.0788673,-0.17187031,0.17187031,1.0788673,-49.646493,-17.22168)"
       id="g1911"
       style="font-style:normal;font-weight:normal;font-size:5.62844658px;line-height:1.25;font-family:sans-serif;letter-spacing:0px;word-spacing:0px;fill:#ffffff;fill-opacity:1;stroke:none;stroke-width:0.14071116"
       aria-label="JUL">
      <path
         id="path1905"
         style="font-style:normal;font-variant:normal;font-weight:normal;font-stretch:normal;font-family:arial;-inkscape-font-specification:arial;fill:#ffffff;stroke-width:0.14071116"
         d="m 12.475604,270.81732 0.480947,-0.0659 q 0.01924,0.4617 0.17314,0.6321 0.153903,0.17039 0.425981,0.17039 0.200624,0 0.346282,-0.0907 0.145658,-0.0935 0.200623,-0.2501 0.05496,-0.1594 0.05496,-0.50568 v -2.77574 h 0.533164 v 2.74551 q 0,0.50568 -0.123672,0.78326 -0.120924,0.27757 -0.387506,0.42323 -0.263833,0.14566 -0.621107,0.14566 -0.530416,0 -0.813487,-0.30506 -0.280323,-0.30506 -0.26933,-0.90693 z"
         inkscape:connector-curvature="0" />
      <path
         id="path1907"
         style="font-style:normal;font-variant:normal;font-weight:normal;font-stretch:normal;font-family:arial;-inkscape-font-specification:arial;fill:#ffffff;stroke-width:0.14071116"
         d="M 18.205737,267.93165 H 18.7389 v 2.32778 q 0,0.60736 -0.137413,0.96464 -0.137414,0.35727 -0.497436,0.58263 -0.357275,0.22261 -0.939907,0.22261 -0.566142,0 -0.926165,-0.19513 -0.360023,-0.19513 -0.513926,-0.56339 -0.153903,-0.37102 -0.153903,-1.01136 v -2.32778 h 0.533164 v 2.32503 q 0,0.52492 0.09619,0.77501 0.09894,0.24734 0.335288,0.38201 0.2391,0.13466 0.582633,0.13466 0.588128,0 0.83822,-0.26658 0.250093,-0.26658 0.250093,-1.0251 z"
         inkscape:connector-curvature="0" />
      <path
         id="path1909"
         style="font-style:normal;font-variant:normal;font-weight:normal;font-stretch:normal;font-family:arial;-inkscape-font-specification:arial;fill:#ffffff;stroke-width:0.14071116"
         d="m 19.607351,271.9606 v -4.02895 h 0.533164 v 3.5535 h 1.984247 v 0.47545 z"
         inkscape:connector-curvature="0" />
    </g>
    <g
       transform="matrix(1.0788673,-0.17187031,0.17187031,1.0788673,-49.510938,-16.400095)"
       id="g1917"
       style="font-style:normal;font-weight:normal;font-size:13.92944431px;line-height:1.25;font-family:sans-serif;letter-spacing:0px;word-spacing:0px;fill:#363636;fill-opacity:1;stroke:none;stroke-width:0.34823608"
       aria-label="17">
      <path
         id="path1913"
         style="font-style:normal;font-variant:normal;font-weight:normal;font-stretch:normal;font-family:Arial;-inkscape-font-specification:Arial;fill:#363636;fill-opacity:1;stroke-width:0.34823608"
         d="m 14.286752,285.67944 h -1.224268 v -7.8013 q -0.442096,0.42169 -1.163054,0.84338 -0.714156,0.42169 -1.285481,0.63254 v -1.18346 q 1.027025,-0.4829 1.795592,-1.16985 0.768568,-0.68695 1.088238,-1.33309 h 0.788973 z"
         inkscape:connector-curvature="0" />
      <path
         id="path1915"
         style="font-style:normal;font-variant:normal;font-weight:normal;font-stretch:normal;font-family:Arial;-inkscape-font-specification:Arial;fill:#363636;fill-opacity:1;stroke-width:0.34823608"
         d="m 17.510656,277.01435 v -1.17666 h 6.454611 v 0.95221 q -0.952208,1.01342 -1.890813,2.69339 -0.931804,1.67997 -1.441915,3.45515 -0.367281,1.25148 -0.469303,2.741 h -1.258275 q 0.0204,-1.17665 0.462501,-2.84302 0.442097,-1.66636 1.265077,-3.2103 0.829781,-1.55074 1.761585,-2.61177 z"
         inkscape:connector-curvature="0" />
    </g>
  </g>
</svg>
