<?xml version="1.0" encoding="UTF-8" standalone="no"?>
<!-- Generator: Adobe Illustrator 22.1.0, SVG Export Plug-In . SVG Version: 6.00 Build 0)  -->

<!-- Artist: @KevDoy for Trenta.io -->

<!-- Vector Conversion by @Genghis-Khanr -->

<svg
   xmlns:dc="http://purl.org/dc/elements/1.1/"
   xmlns:cc="http://creativecommons.org/ns#"
   xmlns:rdf="http://www.w3.org/1999/02/22-rdf-syntax-ns#"
   xmlns:svg="http://www.w3.org/2000/svg"
   xmlns="http://www.w3.org/2000/svg"
   xmlns:sodipodi="http://sodipodi.sourceforge.net/DTD/sodipodi-0.dtd"
   xmlns:inkscape="http://www.inkscape.org/namespaces/inkscape"
   version="1.1"
   id="seahorse"
   x="0px"
   y="0px"
   viewBox="0 0 128 128"
   xml:space="preserve"
   sodipodi:docname="password-manager.svg"
   inkscape:version="0.92.2 5c3e80d, 2017-08-06"
   width="128"
   height="128"><metadata
     id="metadata266"><rdf:RDF><cc:Work
         rdf:about=""><dc:format>image/svg+xml</dc:format><dc:type
           rdf:resource="http://purl.org/dc/dcmitype/StillImage" /><dc:title></dc:title></cc:Work></rdf:RDF></metadata><defs
     id="defs264" /><sodipodi:namedview
     pagecolor="#ffffff"
     bordercolor="#666666"
     borderopacity="1"
     objecttolerance="10"
     gridtolerance="10"
     guidetolerance="10"
     inkscape:pageopacity="0"
     inkscape:pageshadow="2"
     inkscape:window-width="1600"
     inkscape:window-height="803"
     id="namedview262"
     showgrid="false"
     inkscape:zoom="2.6074562"
     inkscape:cx="95.642225"
     inkscape:cy="49.960016"
     inkscape:window-x="0"
     inkscape:window-y="0"
     inkscape:window-maximized="1"
     inkscape:current-layer="seahorse" /><style
     type="text/css"
     id="style2">
	.st0{fill:#535555;}
	.st1{fill:url(#SVGID_1_);}
	.st2{fill:#717475;}
	.st3{fill:#E8E9E9;}
	.st4{fill:#585A5A;}
	.st5{fill:url(#SVGID_2_);}
	.st6{fill:#D2DADD;}
	.st7{fill:#7F8587;}
	.st8{fill:url(#SVGID_3_);}
	.st9{fill:url(#SVGID_4_);}
	.st10{fill:url(#SVGID_5_);}
	.st11{fill:#D8D8D8;}
	.st12{fill:#8E9698;}
	.st13{fill:#B3BBBD;}
	.st14{fill:url(#SVGID_6_);}
	.st15{fill:#CCD1D3;}
	.st16{fill:url(#SVGID_7_);}
	.st17{fill:#E5E6E6;}
	.st18{fill:#ADB2B2;}
	.st19{fill:url(#SVGID_8_);}
	.st20{fill:url(#SVGID_9_);}
	.st21{fill:#E2E5E6;}
	.st22{opacity:0.8;fill:#BABEBF;}
</style><g
     id="g1209"><g
       transform="matrix(0.13028625,0,0,0.13028625,-1.6708205,-2.3840268)"
       id="g70"><g
         id="g58"><path
           class="st0"
           d="m 757.9,858.1 -5,-10.1 6.8,-12.1 -35.5,-26.3 8.8,-23.1 -20,-16.5 -2.7,-10.1 6.8,-22.1 -17.3,-11.8 -6.9,-14.1 13.6,-25 -12,-12.4 -0.4,-14.9 L 706,631 695.4,597.5 c 0,0 23.6,-1.6 23.4,-12.8 -0.1,-6.1 -4.4,-21.8 -8.2,-34.7 25,-27.6 40.4,-64.5 40.4,-105 0,-85.6 -68.4,-155 -152.8,-155 -84.4,0 -152.8,69.4 -152.8,155 0,82.9 64.2,150.7 145,154.8 l 98.3,304.3 c 0,0 10.8,21.8 39.5,11 28.7,-10.8 36.3,-34 39.8,-50.5 z M 565.4,410 c -21.3,0 -38.6,-17.3 -38.6,-38.6 0,-21.3 17.3,-38.6 38.6,-38.6 21.3,0 38.6,17.3 38.6,38.6 0,21.3 -17.3,38.6 -38.6,38.6 z"
           id="path4"
           inkscape:connector-curvature="0"
           style="fill:#535555" /><linearGradient
           id="SVGID_1_"
           gradientUnits="userSpaceOnUse"
           x1="548.22162"
           y1="295.89169"
           x2="728.22162"
           y2="918.55829"><stop
             offset="0"
             style="stop-color:#C7D7DC"
             id="stop6" /><stop
             offset="0.2289"
             style="stop-color:#BCC9CD"
             id="stop8" /><stop
             offset="0.6656"
             style="stop-color:#9FA5A7"
             id="stop10" /><stop
             offset="1"
             style="stop-color:#868685"
             id="stop12" /></linearGradient><path
           class="st1"
           d="m 752,860.6 -3.3,-10.4 7.6,-12.4 -35.8,-23.4 6.1,-25.9 -18.6,-14 -3.4,-12.3 6.4,-19.3 -16.9,-11.4 -4.8,-17 13.9,-26.5 -13,-7.8 -2.8,-12.6 c 13.1,-18.9 11,-36.3 11,-36.3 l -8.3,-27.6 c 0,0 18.3,-5.2 22.6,-9.2 3.6,-3.3 -5.2,-33.5 -8.6,-44.3 25,-27.2 40.2,-63.4 40.2,-103.3 0,-84.3 -68.4,-152.7 -152.7,-152.7 -84.3,0 -152.3,68.8 -152.3,153.1 0,83.8 67.5,151.8 151.1,152.6 L 688.6,904 c 0,0 10.8,21.8 39.5,11 15,-5.6 24.2,-14.6 30.1,-24.3 0,0 3.4,-8 4.4,-21.7 z M 565.4,410 c -21.3,0 -38.6,-17.3 -38.6,-38.6 0,-21.3 17.3,-38.6 38.6,-38.6 21.3,0 38.6,17.3 38.6,38.6 0,21.3 -17.3,38.6 -38.6,38.6 z"
           id="path15"
           inkscape:connector-curvature="0"
           style="fill:url(#SVGID_1_)" /><polygon
           class="st2"
           points="757.9,858.1 752,860.6 762.6,869.1 767.9,864.6 "
           id="polygon17"
           style="fill:#717475" /><polygon
           class="st2"
           points="720.6,814.5 756.4,837.9 748.8,850.3 752.9,848 759.6,835.9 724.1,809.6 "
           id="polygon19"
           style="fill:#717475" /><polygon
           class="st2"
           points="713,770 708.1,774.6 726.8,788.6 732.9,786.5 "
           id="polygon21"
           style="fill:#717475" /><polygon
           class="st2"
           points="694.3,731.8 711.1,743.1 704.8,762.4 710.3,759.9 717.1,737.8 699.8,726 "
           id="polygon23"
           style="fill:#717475" /><polygon
           class="st2"
           points="689.5,680.8 703.4,688.3 689.5,714.8 692.9,711.9 706.5,686.9 694.5,674.5 "
           id="polygon25"
           style="fill:#717475" /><polygon
           class="st3"
           points="752,860.6 762.6,869.1 762.4,872.1 751.2,863.6 "
           id="polygon27"
           style="fill:#e8e9e9" /><polygon
           class="st3"
           points="718.9,815.6 720.6,814.5 754.3,836.5 752.7,838.9 "
           id="polygon29"
           style="fill:#e8e9e9" /><polygon
           class="st3"
           points="708.1,774.6 726.8,788.6 726.2,790.9 706.6,776.5 "
           id="polygon31"
           style="fill:#e8e9e9" /><polygon
           class="st3"
           points="694.3,731.8 711.1,743.1 710.1,746.2 692.8,733.4 "
           id="polygon33"
           style="fill:#e8e9e9" /><polygon
           class="st3"
           points="702.2,690.6 703.4,688.3 690.4,680.5 691,683.2 "
           id="polygon35"
           style="fill:#e8e9e9" /><polygon
           class="st3"
           points="592,599.3 590.4,600 688.6,904.1 690,903.3 "
           id="polygon37"
           style="fill:#e8e9e9" /><g
           id="g56"><path
             class="st4"
             d="m 729.3,914.7 c -0.4,0.2 -0.8,0.3 -1.2,0.5 -8.4,3.1 -15.2,3.5 -20.7,2.5 L 616.2,634.4 c 0,0 -4.5,-30.3 4.8,-34.9 l 13.3,19.4 c 0,0 0.5,-0.4 5.2,12.3 4.6,12.5 40.4,122.9 89.8,283.5 z"
             id="path39"
             inkscape:connector-curvature="0"
             style="fill:#585a5a" /><linearGradient
             id="SVGID_2_"
             gradientUnits="userSpaceOnUse"
             x1="616.6767"
             y1="616.9422"
             x2="720.6767"
             y2="934.9422"><stop
               offset="0"
               style="stop-color:#535555"
               id="stop41" /><stop
               offset="7.793793e-02"
               style="stop-color:#606262"
               id="stop43" /><stop
               offset="0.2712"
               style="stop-color:#7A7B7B"
               id="stop45" /><stop
               offset="0.4703"
               style="stop-color:#8C8D8D"
               id="stop47" /><stop
               offset="0.6767"
               style="stop-color:#979898"
               id="stop49" /><stop
               offset="0.9022"
               style="stop-color:#9B9C9C"
               id="stop51" /></linearGradient><path
             class="st5"
             d="m 712.1,918.1 c 1.8,0.1 3.7,0 5.7,-0.3 L 618,611.5 l 7.6,41.6 z"
             id="path54"
             inkscape:connector-curvature="0"
             style="fill:url(#SVGID_2_)" /></g></g><g
         id="g62"><path
           class="st6"
           d="m 695.1,354.8 c 12.6,12.7 22.6,28 29.1,44.8 6.5,16.8 9.7,35 9.1,53.1 -0.5,18.1 -4.8,36.2 -12.3,52.8 -7.5,16.6 -18.5,31.6 -31.8,44 -13.4,12.3 -29.2,22.1 -46.3,28.3 -17.1,6.2 -35.4,9.1 -53.6,8.2 -9.1,-0.4 -18.1,-1.7 -26.8,-4 -8.8,-2.2 -17.3,-5.3 -25.4,-9.2 -16.2,-7.9 -30.8,-19 -42.4,-32.5 12.6,12.6 27.4,22.9 43.7,29.9 16.2,7 33.7,10.8 51.2,11.2 8.8,0.2 17.5,-0.5 26.2,-1.9 8.6,-1.5 17.1,-3.8 25.3,-6.9 16.3,-6.2 31.5,-15.5 44.2,-27.4 12.9,-11.8 23.4,-26.2 30.8,-42 7.5,-15.8 11.8,-33.1 12.8,-50.6 0.9,-17.5 -1.5,-35.3 -7.2,-51.9 -5.9,-16.8 -14.9,-32.4 -26.6,-45.9 z"
           id="path60"
           inkscape:connector-curvature="0"
           style="fill:#d2dadd" /></g><g
         id="g66"><path
           class="st7"
           d="m 494.7,540.2 c -12.6,-12.7 -22.6,-28 -29.1,-44.8 -6.5,-16.8 -9.7,-35 -9.1,-53.1 0.5,-18.1 4.8,-36.2 12.3,-52.8 7.5,-16.6 18.5,-31.6 31.8,-44 13.4,-12.3 29.2,-22.1 46.3,-28.3 17.1,-6.2 35.4,-9.1 53.6,-8.2 9.1,0.4 18.1,1.7 26.8,4 8.8,2.2 17.3,5.3 25.4,9.2 16.2,7.9 30.8,19 42.4,32.5 -12.6,-12.6 -27.4,-22.9 -43.7,-29.9 -16.2,-7 -33.7,-10.8 -51.2,-11.2 -8.8,-0.2 -17.5,0.5 -26.2,1.9 -8.6,1.5 -17.1,3.8 -25.3,6.9 -16.3,6.2 -31.5,15.5 -44.2,27.4 -12.9,11.8 -23.4,26.2 -30.8,42 -7.5,15.8 -11.8,33.1 -12.8,50.6 -0.9,17.5 1.5,35.3 7.2,51.9 5.9,16.8 14.9,32.4 26.6,45.9 z"
           id="path64"
           inkscape:connector-curvature="0"
           style="fill:#7f8587" /></g><path
         class="st7"
         d="m 526.8,371.4 c 0,-12.9 6.3,-24.3 16,-31.3 -11.9,6.3 -19.8,18 -19.8,31.3 0,13.3 8,24.9 19.8,31.3 -9.7,-7.1 -16,-18.5 -16,-31.3 z"
         id="path68"
         inkscape:connector-curvature="0"
         style="fill:#7f8587" /></g><g
       transform="matrix(0.13028625,0,0,0.13028625,-1.6708205,-2.3840268)"
       id="g136"><path
         class="st0"
         d="m 564.6,318.7 c -85.1,0 -154.1,69.4 -154.1,155 0,54.1 27.5,101.6 69.2,129.4 -10.3,15.3 -3,42.9 -3,42.9 l 26.1,6.5 -3.8,293.8 c 0,0 4.3,24.9 33.1,23.7 28.8,-1.2 44,-16.3 56,-36 l -7.9,-9.6 -0.5,-10.9 9.9,-9.4 -25.4,-37.3 15.8,-19.8 -13.9,-22 1.5,-9.4 16.5,-15.5 -14.5,-20.4 17.1,-10.1 -18.5,-7.9 17.9,-18 6.4,-23.5 -10.5,-2.9 22.9,-29.1 v -30.6 c 0,0 17.1,-1 29.3,-8 V 612 c 50.2,-25.6 84.6,-77.9 84.6,-138.4 0,-85.5 -69.1,-154.9 -154.2,-154.9 z m -12,109.5 c -21.3,0 -38.6,-17.3 -38.6,-38.6 0,-21.3 17.3,-38.6 38.6,-38.6 21.3,0 38.6,17.3 38.6,38.6 0,21.3 -17.3,38.6 -38.6,38.6 z"
         id="path72"
         inkscape:connector-curvature="0"
         style="fill:#535555" /><linearGradient
         id="SVGID_3_"
         gradientUnits="userSpaceOnUse"
         x1="560.41663"
         y1="318.67731"
         x2="560.41663"
         y2="970.04547"><stop
           offset="0"
           style="stop-color:#C7D7DC"
           id="stop74" /><stop
           offset="0.2521"
           style="stop-color:#BAC7CB"
           id="stop76" /><stop
           offset="0.7514"
           style="stop-color:#989D9E"
           id="stop78" /><stop
           offset="1"
           style="stop-color:#868685"
           id="stop80" /></linearGradient><path
         class="st8"
         d="m 560.4,318.7 c -82.8,0 -149.9,69.4 -149.9,155 0,54.6 27.3,102.7 68.6,130.3 -9.4,15.5 -2.5,42 -2.5,42 l 26.1,6.5 -3.8,293.8 c 0,0 4.3,24.9 33.1,23.7 16.4,-0.7 28.4,-5.9 37.9,-13.8 l 11.9,-19.3 -8.3,-12.1 v -10 l 11.9,-10.6 -26.5,-35.6 14.6,-20.8 -13,-20.5 4.1,-14.8 15.1,-11.4 -17.3,-20.4 22.1,-12.1 -19.9,-7.3 18.1,-18.3 7.6,-23.5 -16.3,-0.7 c 0,0 19.7,-18.2 23.5,-29 l 1,-32.5 c 0,0 21.7,2 24.3,-0.8 2.5,-2.6 4.5,-5.1 7.6,-46 47.4,-26 79.7,-77.6 79.7,-137 0.2,-85.4 -66.9,-154.8 -149.7,-154.8 z m -7.8,109.5 c -21.3,0 -38.6,-17.3 -38.6,-38.6 0,-21.3 17.3,-38.6 38.6,-38.6 21.3,0 38.6,17.3 38.6,38.6 0,21.3 -17.3,38.6 -38.6,38.6 z"
         id="path83"
         inkscape:connector-curvature="0"
         style="fill:url(#SVGID_3_)" /><polygon
         class="st2"
         points="573.5,924.8 580.1,924.4 588,934 581.8,936.9 "
         id="polygon85"
         style="fill:#717475" /><polygon
         class="st2"
         points="558.9,868.5 585.4,904.1 573.5,914.8 579.6,913.5 589.5,904.1 564.1,866.9 "
         id="polygon87"
         style="fill:#717475" /><polygon
         class="st2"
         points="566.1,825 560.5,827.3 573.5,847.8 580,847 "
         id="polygon89"
         style="fill:#717475" /><polygon
         class="st2"
         points="584.1,800.1 569.6,779.8 586.8,769.6 584.6,768.7 562.5,780.8 579.8,801.1 564.6,812.5 567.6,815.6 "
         id="polygon91"
         style="fill:#717475" /><polygon
         class="st2"
         points="564.6,761.4 568.3,761.8 586.1,743.8 582.8,743.1 "
         id="polygon93"
         style="fill:#717475" /><path
         class="st3"
         d="m 580.2,939.4 c -0.3,-0.5 -9,-13.7 -9,-13.7 l 2.3,-1 8.3,12.1 z"
         id="path95"
         inkscape:connector-curvature="0"
         style="fill:#e8e9e9" /><polygon
         class="st3"
         points="558.9,868.5 585.4,904.1 583.8,905.5 556.5,870.3 "
         id="polygon97"
         style="fill:#e8e9e9" /><polygon
         class="st3"
         points="572.2,849.5 573.5,847.8 561.3,828.5 558.9,830.3 "
         id="polygon99"
         style="fill:#e8e9e9" /><polygon
         class="st3"
         points="565.7,784.5 579.8,801.1 577.4,802.9 562.5,786.8 "
         id="polygon101"
         style="fill:#e8e9e9" /><polygon
         class="st3"
         points="589.5,722.3 590.4,719.7 576.7,719.1 576.7,722.9 "
         id="polygon103"
         style="fill:#e8e9e9" /><polygon
         class="st3"
         points="504.6,653 502.7,653 498.9,945.9 500.7,945.9 "
         id="polygon105"
         style="fill:#e8e9e9" /><g
         id="g126"><path
           class="st4"
           d="m 535.3,969.8 c -1.1,0.1 -2.2,0.2 -3.3,0.2 -8.7,0.4 -15.2,-1.7 -20,-4.7 0,0 2.7,-272.3 4.7,-282.7 2,-10.3 11.3,-48.7 21.3,-55.7 0,0 2.7,8.8 2.8,31.8 0.2,23.1 -5.5,311.1 -5.5,311.1 z"
           id="path107"
           inkscape:connector-curvature="0"
           style="fill:#585a5a" /><linearGradient
           id="SVGID_4_"
           gradientUnits="userSpaceOnUse"
           x1="527.08612"
           y1="649"
           x2="527.08612"
           y2="970.03668"><stop
             offset="0"
             style="stop-color:#535555"
             id="stop109" /><stop
             offset="7.793793e-02"
             style="stop-color:#606262"
             id="stop111" /><stop
             offset="0.2712"
             style="stop-color:#7A7B7B"
             id="stop113" /><stop
             offset="0.4703"
             style="stop-color:#8C8D8D"
             id="stop115" /><stop
             offset="0.6767"
             style="stop-color:#979898"
             id="stop117" /><stop
             offset="0.9022"
             style="stop-color:#9B9C9C"
             id="stop119" /></linearGradient><path
           class="st9"
           d="m 529,970 c -2.2,0 -4.2,-0.2 -6,-0.6 l 4.2,-320.5 h 4 z"
           id="path122"
           inkscape:connector-curvature="0"
           style="fill:url(#SVGID_4_)" /><path
           class="st0"
           d="m 539,632 c -0.6,-3.5 -1,-5 -1,-5 -10,7 -19.3,45.3 -21.3,55.7 -2,10.3 -4.7,282.7 -4.7,282.7 1.7,1.1 3.6,2 5.8,2.8 0,0 1.1,-267.1 3.2,-276.9 0.8,-8 1.9,-14.3 4.5,-24 C 528.2,657.5 539,632 539,632 Z"
           id="path124"
           inkscape:connector-curvature="0"
           style="fill:#535555" /></g><g
         id="g130"><path
           class="st6"
           d="m 662.2,383 c 12.5,12.9 22.3,28.6 28.7,45.5 3.2,8.5 5.5,17.3 6.9,26.3 1.5,9 1.9,18.1 1.6,27.3 -0.7,18.3 -5.3,36.4 -13,52.9 -7.8,16.6 -19.1,31.5 -32.7,43.8 -13.7,12.2 -29.8,21.8 -47.1,27.7 -17.3,5.9 -35.8,8.5 -54,7.2 -9.1,-0.6 -18.2,-2.1 -26.9,-4.5 -8.8,-2.4 -17.3,-5.7 -25.4,-9.8 -16.2,-8.2 -30.7,-19.6 -42.2,-33.4 12.5,12.9 27.2,23.5 43.4,30.8 16.2,7.4 33.7,11.5 51.3,12.2 8.8,0.3 17.7,-0.1 26.4,-1.4 8.7,-1.3 17.3,-3.5 25.5,-6.5 16.6,-5.9 31.9,-15.1 45,-26.8 13.1,-11.7 23.9,-26 31.6,-41.8 7.8,-15.8 12.2,-33.1 13.5,-50.8 1.2,-17.6 -1,-35.5 -6.6,-52.4 -5.6,-16.6 -14.5,-32.5 -26,-46.3 z"
           id="path128"
           inkscape:connector-curvature="0"
           style="fill:#d2dadd" /></g><g
         id="g134"><path
           class="st7"
           d="m 458,566.2 c -12.5,-12.9 -22.3,-28.6 -28.7,-45.5 -3.2,-8.5 -5.5,-17.3 -6.9,-26.3 -1.5,-9 -1.9,-18.1 -1.6,-27.3 0.7,-18.3 5.3,-36.4 13,-52.9 7.8,-16.6 19.1,-31.5 32.7,-43.8 13.7,-12.2 29.8,-21.8 47.1,-27.7 17.3,-5.9 35.8,-8.5 54,-7.2 9.1,0.6 18.2,2.1 26.9,4.5 8.8,2.4 17.3,5.7 25.4,9.8 16.2,8.2 30.7,19.6 42.2,33.4 -12.5,-12.9 -27.2,-23.5 -43.4,-30.8 -16.2,-7.4 -33.7,-11.5 -51.3,-12.2 -8.8,-0.3 -17.7,0.1 -26.4,1.4 -8.7,1.3 -17.3,3.5 -25.5,6.5 -16.6,5.9 -31.9,15.1 -45,26.8 -13.1,11.7 -23.9,26 -31.6,41.8 -7.8,15.8 -12.2,33.1 -13.5,50.8 -1.2,17.6 1,35.5 6.6,52.4 5.6,16.7 14.5,32.5 26,46.3 z"
           id="path132"
           inkscape:connector-curvature="0"
           style="fill:#7f8587" /></g></g><g
       transform="matrix(0.13028625,0,0,0.13028625,-1.6708205,-2.3840268)"
       id="g193"><path
         class="st0"
         d="m 487.3,318.7 c -87.7,0 -158.8,70.1 -158.8,156.6 0,34.3 11.2,66.1 30.2,91.9 0,0 0,0 0,0 -12.5,22.3 -15.2,33 -14.4,35.9 0.8,3 19,12.5 19,12.5 l -122.6,268 c 0,0 -7.4,27.3 29.8,36.6 37.2,9.3 57.8,-14 57.8,-14 l -3.6,-12 3.4,-9.8 13.9,-4.6 -8.3,-44.5 22.1,-11.4 -3.9,-25.8 4.3,-8.9 21.8,-12.8 -6,-21.3 5,-14.3 27.3,-10 v -16.1 l 8.4,-11.1 c 0,0 26.4,-9.9 29.5,-15.5 3.1,-5.6 13.5,-27.1 13.5,-27.1 l 25.1,4.6 c 0,0 3.7,3.6 21.3,-34.5 80.8,-7.3 144,-74.3 144,-155.9 C 646,388.8 574.9,318.7 487.3,318.7 Z m 31.8,116.6 c -21.3,0 -38.6,-17.3 -38.6,-38.6 0,-21.3 17.3,-38.6 38.6,-38.6 21.3,0 38.6,17.3 38.6,38.6 0,21.4 -17.3,38.6 -38.6,38.6 z"
         id="path138"
         inkscape:connector-curvature="0"
         style="fill:#535555" /><linearGradient
         id="SVGID_5_"
         gradientUnits="userSpaceOnUse"
         x1="562.59991"
         y1="321.42261"
         x2="217.4324"
         y2="990.64313"><stop
           offset="0"
           style="stop-color:#C7D7DC"
           id="stop140" /><stop
           offset="0.2521"
           style="stop-color:#BAC7CB"
           id="stop142" /><stop
           offset="0.7514"
           style="stop-color:#989D9E"
           id="stop144" /><stop
           offset="1"
           style="stop-color:#868685"
           id="stop146" /></linearGradient><path
         class="st10"
         d="m 487.3,318.7 c -87.6,-2.2 -158.8,70.1 -158.8,156.6 0,34.3 11.2,66.1 30.2,91.9 0,0 0,0 0,0 -12.5,22.3 -15.2,33 -14.4,35.9 0.8,3 19,12.5 19,12.5 l -122.6,268 c 0,0 -7.4,27.3 29.8,36.6 12.4,3.1 23,2.6 31.5,0.5 l 18.8,-14.3 -2.2,-13.3 5.2,-10.3 13.3,-4.5 -9.7,-41.7 22,-14.8 -4,-23.7 5.8,-11.5 17.5,-9.5 -4.2,-21.2 7.2,-14.8 29.4,-10.3 -4.1,-15.3 6.9,-11.9 c 0,0 27.8,-8.4 33.7,-20.1 5.9,-11.7 12,-25.2 12,-25.2 0,0 17.3,8.3 21.5,8.8 4.2,0.5 9.1,-6.7 27.1,-40.7 80.8,-7.3 140.4,-73.1 140.4,-151 0.2,-87 -66,-154.5 -151.3,-156.7 z m 31.8,116.6 c -21.3,0 -38.6,-17.3 -38.6,-38.6 0,-21.3 17.3,-38.6 38.6,-38.6 21.3,0 38.6,17.3 38.6,38.6 0,21.4 -17.3,38.6 -38.6,38.6 z"
         id="path149"
         inkscape:connector-curvature="0"
         style="fill:url(#SVGID_5_)" /><polygon
         class="st2"
         points="404.3,731 401.3,730.8 397.1,715.5 404.3,714.9 "
         id="polygon151"
         style="fill:#717475" /><polygon
         class="st2"
         points="351.3,786.5 368.8,777 364.7,755.8 372,755.3 378,776.5 356.3,789.3 "
         id="polygon153"
         style="fill:#717475" /><polygon
         class="st2"
         points="355.9,823.9 349.5,821.7 345.5,798 352,798.1 "
         id="polygon155"
         style="fill:#717475" /><polygon
         class="st2"
         points="323.8,882.7 337.2,878.2 327.5,836.5 333.8,835.3 342,879.8 328.1,884.4 "
         id="polygon157"
         style="fill:#717475" /><polygon
         class="st2"
         points="328.3,906.2 320.8,906.3 318.7,893 324.8,894.1 "
         id="polygon159"
         style="fill:#717475" /><polygon
         class="st3"
         points="318.7,893 320.8,906.3 318.2,908.3 316.7,893 "
         id="polygon161"
         style="fill:#e8e9e9" /><polygon
         class="st3"
         points="327.5,836.5 337.2,878.2 335.3,878.8 325.2,837.1 "
         id="polygon163"
         style="fill:#e8e9e9" /><path
         class="st3"
         d="m 347.4,823.1 c -0.1,-0.9 -4.4,-24.4 -4.4,-24.4 l 2.4,-0.7 4,23.7 z"
         id="path165"
         inkscape:connector-curvature="0"
         style="fill:#e8e9e9" /><polygon
         class="st3"
         points="364.7,755.8 368.8,777 366.7,778.2 362.4,756.6 "
         id="polygon167"
         style="fill:#e8e9e9" /><polygon
         class="st3"
         points="397.1,715.5 401.3,730.8 398.7,731.6 394.8,716.1 "
         id="polygon169"
         style="fill:#e8e9e9" /><path
         class="st3"
         d="m 363.4,615.6 -122.6,268 c 0,0 1.8,-0.7 3,-2.8 1.2,-2.1 121,-264.7 121,-264.7 z"
         id="path171"
         inkscape:connector-curvature="0"
         style="fill:#e8e9e9" /><path
         class="st3"
         d="m 350.7,608.4 c -3.3,-2.1 -6.1,-4.1 -6.4,-5.3 -0.5,-1.7 0.2,-5.8 3.1,-13.2 0.1,0.1 -4.3,14 3.3,18.5 z"
         id="path173"
         inkscape:connector-curvature="0"
         style="fill:#e8e9e9" /><path
         class="st4"
         d="m 245.7,905.8 c 4.1,5.4 11.2,10.6 23,13.9 0,0 141.6,-303 137,-314.4 0,0 -32.3,21 -46,51.7 -13.7,30.7 -114,248.8 -114,248.8 z"
         id="path175"
         inkscape:connector-curvature="0"
         style="fill:#585a5a" /><path
         class="st11"
         d="m 364.7,709.1 c -40.4,91.6 -96,210.6 -96,210.6 -1.5,-0.4 -2.9,-0.9 -4.2,-1.3 z"
         id="path177"
         inkscape:connector-curvature="0"
         style="fill:#d8d8d8" /><path
         class="st0"
         d="m 404.4,612.3 c 1.1,-3.8 1.6,-6.2 1.2,-7 0,0 -32.3,21 -46,51.7 -13.7,30.7 -114,248.8 -114,248.8 1,1.4 2.2,2.7 3.7,4 0,0 112.9,-246.3 117.7,-254.5 4.8,-8.2 21.7,-29.4 28.5,-35.6 6.8,-6.2 8.9,-7.4 8.9,-7.4 z"
         id="path179"
         inkscape:connector-curvature="0"
         style="fill:#535555" /><g
         id="g183"><path
           class="st6"
           d="m 589,381.3 c 12.6,13 22.4,28.8 28.9,45.9 3.2,8.6 5.5,17.5 7,26.5 1.5,9.1 1.9,18.3 1.6,27.5 -0.7,18.4 -5.3,36.6 -13.1,53.3 -7.9,16.7 -19.2,31.7 -32.9,44.1 -13.8,12.3 -30,21.9 -47.4,27.9 -17.5,6 -36.1,8.6 -54.4,7.3 -9.2,-0.6 -18.3,-2.1 -27.1,-4.5 -8.8,-2.4 -17.4,-5.7 -25.6,-9.8 -16.3,-8.2 -30.9,-19.8 -42.5,-33.7 12.6,13 27.4,23.7 43.7,31 16.3,7.4 33.9,11.6 51.7,12.3 8.9,0.3 17.8,-0.1 26.6,-1.5 8.8,-1.3 17.4,-3.5 25.7,-6.5 16.7,-5.9 32.1,-15.2 45.3,-27 13.2,-11.8 24.1,-26.2 31.8,-42.1 7.8,-15.9 12.3,-33.4 13.6,-51.1 1.2,-17.7 -1.1,-35.7 -6.7,-52.7 -5.6,-17.1 -14.6,-33 -26.2,-46.9 z"
           id="path181"
           inkscape:connector-curvature="0"
           style="fill:#d2dadd" /></g><g
         id="g187"><path
           class="st7"
           d="m 383.4,565.8 c -12.6,-13 -22.4,-28.8 -28.9,-45.9 -3.2,-8.6 -5.5,-17.5 -7,-26.5 -1.5,-9.1 -1.9,-18.3 -1.6,-27.5 0.7,-18.4 5.3,-36.6 13.1,-53.3 7.9,-16.7 19.2,-31.7 32.9,-44.1 13.8,-12.3 30,-21.9 47.4,-27.9 17.5,-6 36.1,-8.6 54.4,-7.3 9.2,0.6 18.3,2.1 27.1,4.5 8.8,2.4 17.4,5.7 25.6,9.8 16.3,8.2 30.9,19.8 42.5,33.7 -12.6,-13 -27.4,-23.7 -43.7,-31 -16.3,-7.4 -33.9,-11.6 -51.7,-12.3 -8.9,-0.3 -17.8,0.1 -26.6,1.5 -8.8,1.3 -17.4,3.5 -25.7,6.5 -16.7,5.9 -32.1,15.2 -45.3,27 -13.2,11.8 -24.1,26.2 -31.8,42.1 -7.8,15.9 -12.3,33.4 -13.6,51.1 -1.2,17.7 1.1,35.7 6.7,52.7 5.6,17 14.6,33 26.2,46.9 z"
           id="path185"
           inkscape:connector-curvature="0"
           style="fill:#7f8587" /></g><path
         class="st7"
         d="m 490.4,370.9 c 14.2,-15.8 38.6,-17.1 54.5,-2.9 0.6,0.5 1.2,1.1 1.7,1.6 -7.7,-10.8 -20.5,-17.6 -34.6,-16.8 -22,1.2 -38.8,20 -37.7,42.2 0.9,16.7 11.7,30.4 26.4,35.7 -2.6,-1.4 -5.2,-3.2 -7.5,-5.3 -15.7,-14.2 -17,-38.6 -2.8,-54.5 z"
         id="path189"
         inkscape:connector-curvature="0"
         style="fill:#7f8587" /><path
         class="st6"
         d="m 523,435.1 c 45.2,-19.9 30.1,-56.6 30.1,-56.6 2.2,4.9 4.6,12.5 4.6,18.2 0,20 -15.2,36.5 -34.7,38.4"
         id="path191"
         inkscape:connector-curvature="0"
         style="fill:#d2dadd" /></g><path
       class="st12"
       d="m 83.927246,36.949392 c -1.524349,-0.638403 -3.139899,-1.107433 -4.820592,-1.341948 0,0 0.872918,-1.876122 1.016233,-3.3223 C 80.266202,30.838967 79.406313,21.106584 77.738649,17.875485 76.070985,14.644386 73.113487,8.9769342 66.664318,8.4297319 60.215148,7.8825297 55.17307,16.051478 54.248038,19.139262 c -0.938061,3.087784 -1.784922,7.361173 -1.563435,9.927812 0.06514,0.716574 -0.06514,1.04229 -1.498292,1.211662 0,0.456002 0,1.498292 0,1.498292 0,0 3.4135,5.628366 3.843444,6.840028 0.429945,1.211662 2.736012,6.25374 7.139687,9.09398 4.403675,2.840241 8.33832,-0.416916 8.33832,-0.416916 0.208458,0.781718 0.534174,2.696926 -0.768689,4.533962 0,0 -4.520933,0.143315 -6.357969,-0.677489 -0.742632,-0.234515 -2.149723,0.06514 -3.296242,-0.299658 -1.146519,-0.364802 -5.928024,-1.954294 -10.852845,-11.829992 0,0 1.628578,-0.75566 1.524349,-0.938061 -0.104229,-0.169372 -1.003204,-2.08458 -1.719778,-2.93144 -0.716574,-0.846861 -2.579668,-2.696926 -2.019437,-6.553399 0.560231,-3.869501 0.351773,-5.641394 1.172576,-8.299234 0.820804,-2.644811 3.192013,-12.807138 14.331488,-15.308634 2.514524,-0.6774885 3.999788,-1.2377194 6.123454,-0.8729179 2.123665,0.3648015 8.572835,1.0813759 13.197997,9.7454119 3.257156,6.34494 3.674072,10.904959 3.739215,12.637766 0.06514,1.732807 0.156344,6.162539 -0.586288,7.973518 -0.742632,1.797951 -1.068347,2.475439 -1.068347,2.475439 z"
       id="path195"
       inkscape:connector-curvature="0"
       style="fill:#8e9698;stroke-width:0.13028625" /><path
       class="st13"
       d="M 51.590198,40.740722 C 54.99067,48.088866 61.700411,50.811849 61.700411,50.811849 54.143809,49.261443 50.964824,40.688607 50.508823,39.945976 c -0.456002,-0.742632 -0.57326,0.416916 -0.57326,0.416916 -0.234515,-0.429945 -0.46903,-0.885947 -0.703546,-1.368006 0,0 0.651432,-0.299658 1.094405,-0.573259 z"
       id="path197"
       inkscape:connector-curvature="0"
       style="fill:#b3bbbd;stroke-width:0.13028625" /><g
       transform="matrix(0.13028625,0,0,0.13028625,-1.6708205,-2.3840268)"
       id="g212"><linearGradient
         id="SVGID_6_"
         gradientUnits="userSpaceOnUse"
         x1="672.19702"
         y1="153.6228"
         x2="582.0708"
         y2="183.21651"><stop
           offset="1.464978e-02"
           style="stop-color:#AFB5B8"
           id="stop199" /><stop
           offset="0.5733"
           style="stop-color:#A3ABAF"
           id="stop201" /><stop
           offset="1"
           style="stop-color:#97A1A5"
           id="stop203" /></linearGradient><path
         class="st14"
         d="m 630.5,264.9 c 5.5,-22.5 -5.8,-42.4 -5.8,-42.4 -3,-24.9 -8.2,-53.4 -15.2,-67 0,0 -11,-53.2 -68.2,-70.3 0,0 -12.3,-5.5 -22.8,-6.3 0,0 36,-12.8 73,15.8 37,28.6 48.3,108.8 48.8,119.9 0.5,11.1 4.4,42.9 -8.9,73.9 l -2.6,4.7 c -2,-0.4 -4.1,-0.8 -6.1,-1.1 -0.1,-0.1 2.3,-4.7 7.8,-27.2 z"
         id="path206"
         inkscape:connector-curvature="0"
         style="fill:url(#SVGID_6_)" /><path
         class="st15"
         d="m 624.3,189.3 c 10.1,11.1 9.9,31.9 9.8,35.5 -0.1,3.6 -0.8,14.8 -3.9,6 -3.1,-8.8 -5.5,-8.2 -5.5,-8.2 0,0 -3.5,-25.5 -6,-37.3 0,-0.1 0.6,-5.6 5.6,4 z"
         id="path208"
         inkscape:connector-curvature="0"
         style="fill:#ccd1d3" /><path
         class="st15"
         d="m 573.2,93.8 c 0,0 27.9,27.8 37.5,53 0,0 7.4,10.2 15.3,16.3 0,0 -6.5,-23.3 -14,-34 -7.5,-10.6 -23.3,-31.4 -38.8,-35.3 z"
         id="path210"
         inkscape:connector-curvature="0"
         style="fill:#ccd1d3" /></g><g
       transform="matrix(0.13028625,0,0,0.13028625,-1.6708205,-2.3840268)"
       id="g240"><g
         id="g229"><linearGradient
           id="SVGID_7_"
           gradientUnits="userSpaceOnUse"
           x1="406.97641"
           y1="104.929"
           x2="556.47638"
           y2="417.92899"><stop
             offset="0"
             style="stop-color:#C0CDCE"
             id="stop214" /><stop
             offset="0.2381"
             style="stop-color:#B1BCBD"
             id="stop216" /><stop
             offset="0.7097"
             style="stop-color:#888F90"
             id="stop218" /><stop
             offset="1"
             style="stop-color:#6D7171"
             id="stop220" /></linearGradient><path
           class="st16"
           d="m 549.3,414.4 c -0.4,0.6 -0.7,1.1 -1.1,1.7 0,0 -34.7,1.1 -48.8,-5.2 0,0 -43.7,-13.8 -62.5,-42.8 -18.8,-29 -27.2,-32.7 -28,-40.5 -0.8,-7.8 0.5,-12.3 -6,-23.5 -1.6,-2.8 -8.2,-9.5 -13.7,-16 -5.5,-6.5 -19.8,-20.7 -15.5,-50.3 4.3,-29.7 2.7,-43.3 9,-63.7 6.3,-20.3 24.5,-98.3 110,-117.5 0,0 -32.3,14.2 -47.2,29 -14.9,14.8 -36.5,46 -40.5,55.7 -4,9.7 -10.5,21.8 -13.2,38.2 -2.7,16.3 -6,37.5 -5.7,50.5 0.3,13 0.5,8.8 1.3,12.5 0.8,3.7 -1.2,7.2 5,8.5 3.3,3 7,8.5 9.2,11.8 2.2,3.3 25.8,40.8 29.3,48.7 3.5,7.8 15.3,28.7 19.3,34.7 4,6 26.2,33.8 38.3,40.3 12.1,6.4 29.5,13.3 45.6,7.6 16.1,-5.8 20.5,-9.9 20.5,-9.9 1.4,6.4 2.2,18.4 -5.3,30.2"
           id="path223"
           inkscape:connector-curvature="0"
           style="fill:url(#SVGID_7_)" /><path
           class="st17"
           d="m 407.9,316.5 c 0,3.4 -1.9,-7.2 -5,-12.5 -1.6,-2.8 -8.2,-9.5 -13.7,-16 -4.5,-5.3 -14.7,-15.6 -16.1,-35.2 0,0 4.6,-8 8.6,-4.9 4.1,3.1 2.1,13.2 4.6,20.5 2.5,7.3 3.8,12.3 9.5,19.1 5.7,6.8 12.2,12 12.1,29 z"
           id="path225"
           inkscape:connector-curvature="0"
           style="fill:#e5e6e6" /><path
           class="st18"
           d="m 550.1,413.1 m 5.2,-24.5 c 0.6,6.6 0,15.5 -5.3,24.5 0,0 -1.3,2 -3.7,2 -2.4,0 -31,-1.8 -44.7,-5.7 -13.7,-3.9 -39.8,-18.6 -50.3,-29.9 -10.5,-11.3 -33.8,-43.5 -35.1,-49.2 -1.3,-5.7 2.4,-12.6 6.7,-8.6 4.3,4 15.5,21.1 24.6,31 9.1,9.9 20.4,23.1 33,30.8 12.6,7.8 28.3,17 42.6,13.9 14.3,-3.1 26.8,-10.3 30.2,-12 0,0.1 1.5,1 2,3.2 z"
           id="path227"
           inkscape:connector-curvature="0"
           style="fill:#adb2b2" /></g><linearGradient
         id="SVGID_8_"
         gradientUnits="userSpaceOnUse"
         x1="526.67987"
         y1="401.49619"
         x2="531.42987"
         y2="420.74619"><stop
           offset="0"
           style="stop-color:#989B9B"
           id="stop231" /><stop
           offset="0.4599"
           style="stop-color:#878A8A"
           id="stop233" /><stop
           offset="1"
           style="stop-color:#6D7171"
           id="stop235" /></linearGradient><path
         class="st19"
         d="m 550.1,413.1 m 5.4,-22.5 c 0.3,6.3 -0.7,14.4 -5.4,22.5 0,0 -1.3,2 -3.7,2 -2.4,0 -31,-1.8 -44.7,-5.7 -1.5,-0.4 -3.2,-1 -4.9,-1.7 0,0 18.8,2.6 30.3,0.2 11.5,-2.4 15.8,-3.3 19.4,-7.7 3.6,-4.3 9,-9.6 9,-9.6 z"
         id="path238"
         inkscape:connector-curvature="0"
         style="fill:url(#SVGID_8_)" /></g><g
       transform="matrix(0.13028625,0,0,0.13028625,-1.6708205,-2.3840268)"
       id="g257"><linearGradient
         id="SVGID_9_"
         gradientUnits="userSpaceOnUse"
         x1="388.30139"
         y1="174.45399"
         x2="667.75092"
         y2="174.45399"><stop
           offset="0"
           style="stop-color:#C9CFD0"
           id="stop242" /><stop
           offset="0.5907"
           style="stop-color:#B8BFC1"
           id="stop244" /><stop
           offset="1"
           style="stop-color:#A9B2B4"
           id="stop246" /></linearGradient><path
         class="st20"
         d="m 506.7,84.3 c -40.8,9.4 -71.3,60.1 -77.6,80.9 -7.2,23.7 -13.7,56.5 -12,76.2 0.5,5.5 -0.5,8 -11.5,9.3 0,0 -17,1.8 -17.2,-2 -0.1,-3.9 -0.4,-20.1 0,-27.8 0.4,-7.6 7,-70.1 29,-96.4 22,-26.3 40.5,-59.2 114.9,-75.5 2.4,0.1 4.8,0.4 7.4,0.8 16.3,2.8 65.8,8.3 101.3,74.8 7.9,15.4 13.6,29.4 17.8,41.8 0,0 13,55.6 7.7,77 -1.9,21.5 -5.9,34.8 -9.1,43.4 -3.2,8.6 -5.3,13 -5.3,13 -6.7,-2.6 -13.6,-4.6 -20.7,-6.2 0,0 22.1,-48.4 5.4,-103.4 -16.7,-55 -30.3,-77.5 -52.3,-93.8 -22,-16.3 -57.3,-17.3 -62.5,-16.1 -5.2,1.2 -15.3,4 -15.3,4 z"
         id="path249"
         inkscape:connector-curvature="0"
         style="fill:url(#SVGID_9_)" /><path
         class="st21"
         d="m 417.2,244.7 c -0.5,3.2 -3.1,4.9 -11.5,5.9 0,0 -17,1.8 -17.2,-2 0,0 11.9,-12.2 28.7,-3.9 z"
         id="path251"
         inkscape:connector-curvature="0"
         style="fill:#e2e5e6" /><path
         class="st22"
         d="m 391.4,209.9 c -0.7,8.3 6,41.2 6,41.2 -4.4,0 -8.9,-0.5 -8.9,-2.5 -0.1,-3.9 -0.4,-20.1 0,-27.8 0.2,-3.1 1.3,-15 4.1,-29.8 0,0.1 -0.5,10.6 -1.2,18.9 z"
         id="path253"
         inkscape:connector-curvature="0"
         style="opacity:0.8;fill:#babebf" /><path
         class="st15"
         d="M 615.2,133.6 C 606.3,116.4 596.7,105.5 584.5,96.5 562.5,80.2 527.2,79.1 522,80.2 c -5.2,1.1 -15.3,4.1 -15.3,4.1 -17.7,4.1 -33.5,15.9 -46.1,29.7 0,0 -16.3,13.5 -20.1,15.6 0,0 6,-17.3 20.5,-30.5 14.5,-13.2 42,-41.8 87.3,-33.8 45.3,8 83.5,51.8 89.8,63.2 6.3,11.3 18.09781,44.7714 14.39781,66.6714 0,0 -18.09781,-41.6714 -19.19781,-42.2714 l -1.5,8.5 c 0,0 -8.5,-23.8 -13.8,-27 -2.2,-1.1 -2.8,-0.8 -2.8,-0.8 z"
         id="path255"
         inkscape:connector-curvature="0"
         style="fill:#ccd1d3"
         sodipodi:nodetypes="ccscccsscccccc" /></g></g></svg>