<?xml version="1.0" encoding="UTF-8" standalone="no"?>
<!-- Created with Inkscape (http://www.inkscape.org/) -->

<svg
   xmlns:osb="http://www.openswatchbook.org/uri/2009/osb"
   xmlns:dc="http://purl.org/dc/elements/1.1/"
   xmlns:cc="http://creativecommons.org/ns#"
   xmlns:rdf="http://www.w3.org/1999/02/22-rdf-syntax-ns#"
   xmlns:svg="http://www.w3.org/2000/svg"
   xmlns="http://www.w3.org/2000/svg"
   xmlns:sodipodi="http://sodipodi.sourceforge.net/DTD/sodipodi-0.dtd"
   xmlns:inkscape="http://www.inkscape.org/namespaces/inkscape"
   width="128"
   height="128"
   viewBox="0 0 33.866666 33.866668"
   version="1.1"
   id="svg880"
   inkscape:version="0.92.4 (5da689c313, 2019-01-14)"
   sodipodi:docname="preferences-desktop-icons.svg">
  <defs
     id="defs874">
    <linearGradient
       osb:paint="solid"
       id="linearGradient6987">
      <stop
         id="stop6985"
         offset="0"
         style="stop-color:#77d2fb;stop-opacity:1;" />
    </linearGradient>
  </defs>
  <sodipodi:namedview
     id="base"
     pagecolor="#ffffff"
     bordercolor="#666666"
     borderopacity="1.0"
     inkscape:pageopacity="0.0"
     inkscape:pageshadow="2"
     inkscape:zoom="0.98994949"
     inkscape:cx="-123.47154"
     inkscape:cy="90.019364"
     inkscape:document-units="mm"
     inkscape:current-layer="layer1"
     showgrid="false"
     inkscape:window-width="1600"
     inkscape:window-height="838"
     inkscape:window-x="-8"
     inkscape:window-y="-8"
     inkscape:window-maximized="1"
     units="px" />
  <metadata
     id="metadata877">
    <rdf:RDF>
      <cc:Work
         rdf:about="">
        <dc:format>image/svg+xml</dc:format>
        <dc:type
           rdf:resource="http://purl.org/dc/dcmitype/StillImage" />
        <dc:title />
      </cc:Work>
    </rdf:RDF>
  </metadata>
  <g
     inkscape:label="Layer 1"
     inkscape:groupmode="layer"
     id="layer1"
     transform="translate(0,-263.13332)">
    <g
       style="stroke-width:4.08449793"
       inkscape:transform-center-y="-9.4924686"
       inkscape:transform-center-x="5.4653607"
       inkscape:label="Capa 1"
       id="layer1-4-9"
       transform="matrix(0.51049882,0,0,0.51168433,-297.52094,-4.5601629)">
      <g
         style="stroke-width:4.08449793"
         id="layer1-3-65-0"
         inkscape:label="Capa 1"
         transform="translate(0.41988239,0.03484499)" />
    </g>
    <g
       style="stroke-width:4.08449793"
       inkscape:transform-center-y="-9.4924686"
       inkscape:transform-center-x="5.4653607"
       inkscape:label="Capa 1"
       id="layer1-4"
       transform="matrix(0.51049882,0,0,0.51168433,-297.52094,-4.5363534)">
      <g
         style="stroke-width:4.08449793"
         id="layer1-3-65"
         inkscape:label="Capa 1"
         transform="translate(0.41988239,0.03484499)" />
    </g>
    <rect
       style="opacity:0.25;fill:#000000;fill-opacity:1;stroke:none;stroke-width:0.22575495;stroke-linecap:round;stroke-linejoin:round;stroke-miterlimit:4;stroke-dasharray:none;stroke-opacity:1"
       id="rect1548"
       width="31.524244"
       height="26.611183"
       x="1.1712114"
       y="267.08209"
       ry="1.6136059" />
    <rect
       ry="1.6136059"
       y="266.55292"
       x="1.1712114"
       height="26.611183"
       width="31.524244"
       id="rect849"
       style="opacity:1;fill:#4ab5ff;fill-opacity:1;stroke:#4778a1;stroke-width:0.22575495;stroke-linecap:round;stroke-linejoin:round;stroke-miterlimit:4;stroke-dasharray:none;stroke-opacity:1" />
    <path
       id="path1365"
       d="m 2.889149,267.03651 c -0.88772,0 -1.602436,0.71974 -1.602436,1.61368 v 4.06149 h 31.304865 v -4.06149 c 0,-0.89394 -0.714723,-1.61368 -1.602431,-1.61368 z"
       style="opacity:0.25;fill:#000000;fill-opacity:1;stroke:none;stroke-width:0.26581886;stroke-linecap:round;stroke-linejoin:round;stroke-miterlimit:4;stroke-dasharray:none;stroke-opacity:1"
       inkscape:connector-curvature="0" />
    <path
       inkscape:connector-curvature="0"
       style="opacity:1;fill:#d4efff;fill-opacity:1;stroke:none;stroke-width:0.26323855;stroke-linecap:round;stroke-linejoin:round;stroke-miterlimit:4;stroke-dasharray:none;stroke-opacity:1"
       d="m 2.881512,266.66323 c -0.887763,0 -1.602531,0.70579 -1.602531,1.58237 v 3.98277 h 31.307131 v -3.98277 c 0,-0.87658 -0.714775,-1.58237 -1.602549,-1.58237 z"
       id="rect1356" />
    <g
       id="g998"
       transform="matrix(3.1893929,0,0,3.1893929,-46.219425,-647.7678)"
       style="fill:#436489;fill-opacity:1">
      <ellipse
         ry="0.39448151"
         rx="0.4290438"
         cy="287.66992"
         cx="15.689569"
         id="path973"
         style="opacity:1;fill:#436489;fill-opacity:1;stroke:none;stroke-width:0.06298318;stroke-linecap:round;stroke-linejoin:round;stroke-miterlimit:4;stroke-dasharray:none;stroke-dashoffset:0;stroke-opacity:1" />
      <g
         transform="translate(-0.00540611)"
         id="g992"
         style="fill:#436489;fill-opacity:1">
        <ellipse
           style="opacity:1;fill:#436489;fill-opacity:1;stroke:none;stroke-width:0.00304384;stroke-linecap:round;stroke-linejoin:round;stroke-miterlimit:4;stroke-dasharray:none;stroke-dashoffset:0;stroke-opacity:1"
           id="ellipse978"
           cx="233.25362"
           cy="167.45068"
           rx="0.087078884"
           ry="0.050316583"
           transform="matrix(0.62539853,0.7803055,-0.7781905,0.6280283,0,0)" />
        <ellipse
           transform="matrix(0.65013983,-0.75981458,0.68315788,0.73027071,0,0)"
           ry="0.075508773"
           rx="0.15848064"
           cy="199.87959"
           cx="-185.76843"
           id="ellipse980"
           style="opacity:1;fill:#436489;fill-opacity:1;stroke:none;stroke-width:0.09166089;stroke-linecap:round;stroke-linejoin:round;stroke-miterlimit:4;stroke-dasharray:none;stroke-dashoffset:0;stroke-opacity:1" />
      </g>
    </g>
    <path
       inkscape:connector-curvature="0"
       id="path855"
       d="m 28.82743,267.61328 a 1.2674256,1.2674212 0 0 0 -1.26734,1.26745 1.2674256,1.2674212 0 0 0 1.26734,1.26744 1.2674256,1.2674212 0 0 0 0.692135,-0.20684 l 0.908783,0.87938 c 0.08392,0.0811 0.199529,0.10099 0.259167,0.0446 l 0.08724,-0.0828 c 0.05962,-0.0566 0.04008,-0.16733 -0.04378,-0.24866 l -0.903876,-0.87442 a 1.2674256,1.2674212 0 0 0 0.267812,-0.77845 1.2674256,1.2674212 0 0 0 -1.267467,-1.26747 z m -0.01542,0.42207 a 0.86059753,0.86059456 0 0 1 0.08595,0.004 0.86059753,0.86059456 0 0 1 0.08504,0.0127 0.86059753,0.86059456 0 0 1 0.08339,0.0211 0.86059753,0.86059456 0 0 1 0.08081,0.0296 0.86059753,0.86059456 0 0 1 0.07743,0.0372 0.86059753,0.86059456 0 0 1 0.07336,0.045 0.86059753,0.86059456 0 0 1 0.06845,0.0522 0.86059753,0.86059456 0 0 1 0.06294,0.0587 0.86059753,0.86059456 0 0 1 0.05677,0.0646 0.86059753,0.86059456 0 0 1 0.05012,0.0702 0.86059753,0.86059456 0 0 1 0.0427,0.0744 0.86059753,0.86059456 0 0 1 0.03514,0.0786 0.86059753,0.86059456 0 0 1 0.02709,0.0818 0.86059753,0.86059456 0 0 1 0.01901,0.0839 0.86059753,0.86059456 0 0 1 0.01014,0.0854 0.86059753,0.86059456 0 0 1 0.0021,0.0608 0.86059753,0.86059456 0 0 1 -0.0044,0.0858 0.86059753,0.86059456 0 0 1 -0.01289,0.0851 0.86059753,0.86059456 0 0 1 -0.02134,0.0834 0.86059753,0.86059456 0 0 1 -0.02954,0.0809 0.86059753,0.86059456 0 0 1 -0.03738,0.0773 0.86059753,0.86059456 0 0 1 -0.04496,0.0733 0.86059753,0.86059456 0 0 1 -0.05204,0.0687 0.86059753,0.86059456 0 0 1 -0.05863,0.0627 0.86059753,0.86059456 0 0 1 -0.06459,0.0571 0.86059753,0.86059456 0 0 1 -0.06997,0.0501 0.86059753,0.86059456 0 0 1 -0.07462,0.0429 0.86059753,0.86059456 0 0 1 -0.07859,0.0349 0.86059753,0.86059456 0 0 1 -0.08164,0.0272 0.86059753,0.86059456 0 0 1 -0.08385,0.019 0.86059753,0.86059456 0 0 1 -0.08538,0.0106 0.86059753,0.86059456 0 0 1 -0.06098,0.002 0.86059753,0.86059456 0 0 1 -0.08584,-0.004 0.86059753,0.86059456 0 0 1 -0.08502,-0.0127 0.86059753,0.86059456 0 0 1 -0.08339,-0.0213 0.86059753,0.86059456 0 0 1 -0.08081,-0.0296 0.86059753,0.86059456 0 0 1 -0.07743,-0.0374 0.86059753,0.86059456 0 0 1 -0.07335,-0.045 0.86059753,0.86059456 0 0 1 -0.06845,-0.052 0.86059753,0.86059456 0 0 1 -0.06296,-0.0587 0.86059753,0.86059456 0 0 1 -0.05677,-0.0646 0.86059753,0.86059456 0 0 1 -0.05014,-0.0702 0.86059753,0.86059456 0 0 1 -0.0427,-0.0746 0.86059753,0.86059456 0 0 1 -0.03514,-0.0786 0.86059753,0.86059456 0 0 1 -0.02702,-0.0818 0.86059753,0.86059456 0 0 1 -0.01901,-0.0841 0.86059753,0.86059456 0 0 1 -0.01035,-0.0856 0.86059753,0.86059456 0 0 1 -0.0021,-0.0608 0.86059753,0.86059456 0 0 1 0.0044,-0.0858 0.86059753,0.86059456 0 0 1 0.01289,-0.0851 0.86059753,0.86059456 0 0 1 0.02127,-0.0834 0.86059753,0.86059456 0 0 1 0.02958,-0.0809 0.86059753,0.86059456 0 0 1 0.03733,-0.0773 0.86059753,0.86059456 0 0 1 0.0449,-0.0733 0.86059753,0.86059456 0 0 1 0.05204,-0.0685 0.86059753,0.86059456 0 0 1 0.05863,-0.063 0.86059753,0.86059456 0 0 1 0.06459,-0.0568 0.86059753,0.86059456 0 0 1 0.06997,-0.0501 0.86059753,0.86059456 0 0 1 0.07462,-0.0427 0.86059753,0.86059456 0 0 1 0.07847,-0.0351 0.86059753,0.86059456 0 0 1 0.08166,-0.027 0.86059753,0.86059456 0 0 1 0.08398,-0.019 0.86059753,0.86059456 0 0 1 0.08538,-0.0106 0.86059753,0.86059456 0 0 1 0.06087,-0.002 z"
       style="opacity:1;fill:#436489;fill-opacity:1;stroke:none;stroke-width:0.04481074" />
    <path
       style="opacity:1;fill:#d4efff;fill-opacity:1;stroke:none;stroke-width:0.26458332px;stroke-linecap:butt;stroke-linejoin:miter;stroke-opacity:1"
       d="m 2.558466,292.32166 1.441035,-2.57497 h 25.251142 l 1.553504,2.55998 z"
       id="path1536"
       inkscape:connector-curvature="0" />
  </g>
</svg>
