<?xml version="1.0" encoding="UTF-8" standalone="no"?>
<!-- Created with Inkscape (http://www.inkscape.org/) -->

<svg
   xmlns:dc="http://purl.org/dc/elements/1.1/"
   xmlns:cc="http://creativecommons.org/ns#"
   xmlns:rdf="http://www.w3.org/1999/02/22-rdf-syntax-ns#"
   xmlns:svg="http://www.w3.org/2000/svg"
   xmlns="http://www.w3.org/2000/svg"
   xmlns:xlink="http://www.w3.org/1999/xlink"
   xmlns:sodipodi="http://sodipodi.sourceforge.net/DTD/sodipodi-0.dtd"
   xmlns:inkscape="http://www.inkscape.org/namespaces/inkscape"
   width="128"
   height="128"
   viewBox="0 0 33.866666 33.866668"
   version="1.1"
   id="svg8"
   inkscape:version="0.92.3 (2405546, 2018-03-11)"
   sodipodi:docname="preferences-plugin.svg">
  <defs
     id="defs2">
    <linearGradient
       inkscape:collect="always"
       id="linearGradient910">
      <stop
         style="stop-color:#aab1b2;stop-opacity:1"
         offset="0"
         id="stop906" />
      <stop
         style="stop-color:#d3e5e9;stop-opacity:1"
         offset="1"
         id="stop908" />
    </linearGradient>
    <linearGradient
       inkscape:collect="always"
       xlink:href="#linearGradient910"
       id="linearGradient912"
       x1="82.212303"
       y1="195.96344"
       x2="84.651352"
       y2="56.983292"
       gradientUnits="userSpaceOnUse"
       gradientTransform="matrix(0.19134049,0,0,0.19139768,-19.365515,258.10259)" />
  </defs>
  <sodipodi:namedview
     id="base"
     pagecolor="#ffffff"
     bordercolor="#666666"
     borderopacity="1.0"
     inkscape:pageopacity="0.0"
     inkscape:pageshadow="2"
     inkscape:zoom="4.7795999"
     inkscape:cx="4.6423419"
     inkscape:cy="41.80565"
     inkscape:document-units="mm"
     inkscape:current-layer="layer1"
     showgrid="false"
     units="px"
     inkscape:window-width="1600"
     inkscape:window-height="837"
     inkscape:window-x="0"
     inkscape:window-y="30"
     inkscape:window-maximized="1" />
  <metadata
     id="metadata5">
    <rdf:RDF>
      <cc:Work
         rdf:about="">
        <dc:format>image/svg+xml</dc:format>
        <dc:type
           rdf:resource="http://purl.org/dc/dcmitype/StillImage" />
        <dc:title />
      </cc:Work>
    </rdf:RDF>
  </metadata>
  <g
     inkscape:label="Layer 1"
     inkscape:groupmode="layer"
     id="layer1"
     transform="translate(0,-263.13332)">
    <g
       id="g834"
       transform="translate(17.880251,-2.2120266)">
      <path
         inkscape:connector-curvature="0"
         id="path916"
         d="m -13.936462,296.65417 c -0.687781,-0.1053 -1.328686,-0.43102 -1.823758,-0.92683 -0.416204,-0.41682 -0.705367,-0.93175 -0.87046,-1.55003 l -0.07331,-0.27457 v -4.16941 c 0,-4.01571 0.0024,-4.17625 0.06443,-4.35509 0.233479,-0.67291 0.506348,-0.99161 0.965908,-1.12812 0.334324,-0.0993 0.752123,-0.0507 1.106307,0.12889 0.08861,0.0449 0.282,0.18249 0.429749,0.30571 0.609089,0.50797 1.179793,0.61154 1.791627,0.32514 0.537358,-0.25154 0.846899,-0.77981 0.978155,-1.66934 0.07327,-0.49657 0.04801,-1.41991 -0.05064,-1.85067 -0.144353,-0.63036 -0.433843,-1.11919 -0.812652,-1.37223 -0.268833,-0.17957 -0.484022,-0.24233 -0.830964,-0.24233 -0.366766,0 -0.586337,0.0717 -1.118523,0.36534 -0.493548,0.27231 -0.751601,0.36752 -1.078405,0.3979 -0.707468,0.0657 -1.248826,-0.31917 -1.409845,-1.00249 -0.07607,-0.3228 -0.07757,-7.94416 -0.0017,-8.37963 0.09753,-0.55943 0.354476,-1.12174 0.746565,-1.6338 0.414357,-0.54114 1.066221,-0.96262 1.73794,-1.1237 0.280534,-0.0672 0.380019,-0.0679 10.2494934,-0.0682 8.9166741,-1.8e-4 9.9936053,0.005 10.226352,0.0527 1.1794989,0.23992 2.1422968,1.21453 2.5147101,2.54556 0.069838,0.24961 0.071524,0.32474 0.092114,4.08609 0.018943,3.46041 0.026505,3.85102 0.078114,4.03008 0.072305,0.25084 0.1616038,0.37624 0.3285885,0.46144 0.4281819,0.21852 0.923147,0.0669 1.473622,-0.45147 0.374306,-0.35247 0.609904,-0.47714 1.012509,-0.53585 0.784399,-0.11436 1.614548,0.29591 2.17419,1.07451 0.700381,0.9744 0.990765,2.28983 0.822642,3.72656 -0.212994,1.82015 -1.185242,2.97071 -2.510319,2.97071 -0.584052,0 -0.981259,-0.1562 -1.540989,-0.60598 -0.462504,-0.37165 -0.7360132,-0.50811 -1.0183884,-0.50811 -0.419058,0 -0.6426142,0.20861 -0.7597742,0.70896 -0.023105,0.0987 -0.043581,1.51838 -0.058438,4.05125 -0.022562,3.84709 -0.023848,3.9028 -0.095181,4.15846 -0.2837657,1.0169 -0.9027942,1.76572 -1.8104902,2.19011 -0.1507076,0.0705 -0.3955133,0.16312 -0.5440152,0.20591 l -0.2700019,0.0778 -9.9732263,0.005 c -5.4852718,0.003 -10.0491618,-0.007 -10.1419758,-0.0206 z"
         style="opacity:0.25;fill:#000000;fill-opacity:1;stroke-width:0.95238084" />
      <path
         style="fill:url(#linearGradient912);fill-opacity:1;stroke:#666666;stroke-width:0.2;stroke-miterlimit:4;stroke-dasharray:none;stroke-opacity:1"
         d="m -13.936462,296.20584 c -0.687781,-0.10531 -1.328686,-0.43101 -1.823758,-0.92683 -0.416204,-0.41683 -0.705367,-0.93174 -0.87046,-1.55003 l -0.07331,-0.27456 v -4.16941 c 0,-4.01572 0.0024,-4.17626 0.06443,-4.35509 0.233479,-0.67293 0.506348,-0.99162 0.965908,-1.12814 0.334324,-0.0993 0.752123,-0.0507 1.106307,0.12891 0.08861,0.0449 0.282,0.18248 0.429749,0.3057 0.609089,0.50796 1.179793,0.61154 1.791627,0.32515 0.537358,-0.25155 0.846899,-0.77981 0.978155,-1.66936 0.07327,-0.49657 0.04801,-1.41989 -0.05064,-1.85066 -0.144353,-0.63036 -0.433843,-1.11919 -0.812652,-1.37222 -0.268833,-0.17958 -0.484022,-0.24234 -0.830964,-0.24234 -0.366766,0 -0.586337,0.0718 -1.118523,0.36535 -0.493548,0.27229 -0.751601,0.36751 -1.078405,0.39789 -0.707468,0.0657 -1.248826,-0.31916 -1.409845,-1.00248 -0.07607,-0.32281 -0.07757,-7.94416 -0.0017,-8.37963 0.09753,-0.55945 0.354476,-1.12175 0.746565,-1.63381 0.414357,-0.54114 1.066221,-0.96262 1.73794,-1.12369 0.280534,-0.0672 0.380019,-0.0679 10.2494934,-0.0682 8.9166741,-1.9e-4 9.9936053,0.005 10.226352,0.0527 1.1794989,0.23992 2.1422968,1.21453 2.5147101,2.54556 0.069838,0.2496 0.071524,0.32475 0.092114,4.08609 0.018943,3.46042 0.026505,3.85103 0.078114,4.03007 0.072305,0.25084 0.1616038,0.37624 0.3285885,0.46146 0.4281819,0.21851 0.923147,0.0669 1.473622,-0.45148 0.374306,-0.35247 0.609904,-0.47715 1.012509,-0.53585 0.784399,-0.11435 1.614548,0.2959 2.17419,1.07451 0.700381,0.97439 0.990765,2.28984 0.822642,3.72656 -0.212994,1.82015 -1.185242,2.97071 -2.510319,2.97071 -0.584052,0 -0.981259,-0.15619 -1.540989,-0.60598 -0.462504,-0.37164 -0.7360132,-0.50812 -1.0183884,-0.50812 -0.419058,0 -0.6426142,0.20861 -0.7597742,0.70897 -0.023105,0.0987 -0.043581,1.51838 -0.058438,4.05125 -0.022562,3.8471 -0.023848,3.90281 -0.095181,4.15846 -0.2837657,1.01689 -0.9027942,1.76572 -1.8104902,2.1901 -0.1507076,0.0705 -0.3955133,0.16314 -0.5440152,0.20593 l -0.2700019,0.0778 -9.9732263,0.005 c -5.4852718,0.003 -10.0491618,-0.007 -10.1419758,-0.0206 z"
         id="path894"
         inkscape:connector-curvature="0" />
    </g>
  </g>
</svg>
