<?xml version="1.0" encoding="UTF-8" standalone="no"?>
<!-- Created with Inkscape (http://www.inkscape.org/) -->

<svg
   xmlns:osb="http://www.openswatchbook.org/uri/2009/osb"
   xmlns:dc="http://purl.org/dc/elements/1.1/"
   xmlns:cc="http://creativecommons.org/ns#"
   xmlns:rdf="http://www.w3.org/1999/02/22-rdf-syntax-ns#"
   xmlns:svg="http://www.w3.org/2000/svg"
   xmlns="http://www.w3.org/2000/svg"
   xmlns:xlink="http://www.w3.org/1999/xlink"
   xmlns:sodipodi="http://sodipodi.sourceforge.net/DTD/sodipodi-0.dtd"
   xmlns:inkscape="http://www.inkscape.org/namespaces/inkscape"
   width="128"
   height="128"
   viewBox="0 0 33.866666 33.866668"
   version="1.1"
   id="svg8"
   inkscape:version="0.92.3 (2405546, 2018-03-11)"
   sodipodi:docname="preferences-system-network-server-dns (copy).svg">
  <defs
     id="defs2">
    <linearGradient
       inkscape:collect="always"
       id="linearGradient999">
      <stop
         style="stop-color:#f7c929;stop-opacity:1"
         offset="0"
         id="stop995" />
      <stop
         style="stop-color:#eb9d18;stop-opacity:1"
         offset="1"
         id="stop997" />
    </linearGradient>
    <linearGradient
       osb:paint="solid"
       id="linearGradient6987">
      <stop
         id="stop6985"
         offset="0"
         style="stop-color:#77d2fb;stop-opacity:1;" />
    </linearGradient>
    <linearGradient
       id="linearGradient6088"
       osb:paint="solid">
      <stop
         style="stop-color:#51b3e3;stop-opacity:1;"
         offset="0"
         id="stop6086" />
    </linearGradient>
    <linearGradient
       inkscape:collect="always"
       xlink:href="#linearGradient999"
       id="linearGradient1001"
       x1="23.226124"
       y1="281.47842"
       x2="25.925632"
       y2="293.77277"
       gradientUnits="userSpaceOnUse" />
  </defs>
  <sodipodi:namedview
     id="base"
     pagecolor="#ffffff"
     bordercolor="#666666"
     borderopacity="1.0"
     inkscape:pageopacity="0.0"
     inkscape:pageshadow="2"
     inkscape:zoom="0.9899495"
     inkscape:cx="-30.791849"
     inkscape:cy="-48.223735"
     inkscape:document-units="mm"
     inkscape:current-layer="layer1"
     showgrid="false"
     inkscape:window-width="1600"
     inkscape:window-height="837"
     inkscape:window-x="0"
     inkscape:window-y="30"
     inkscape:window-maximized="1"
     showguides="false"
     units="px" />
  <metadata
     id="metadata5">
    <rdf:RDF>
      <cc:Work
         rdf:about="">
        <dc:format>image/svg+xml</dc:format>
        <dc:type
           rdf:resource="http://purl.org/dc/dcmitype/StillImage" />
        <dc:title />
      </cc:Work>
    </rdf:RDF>
  </metadata>
  <g
     inkscape:label="Layer 1"
     inkscape:groupmode="layer"
     id="layer1"
     transform="translate(0,-263.13332)">
    <g
       id="g1011"
       transform="matrix(0.99834358,0,0,0.99834358,0.00175389,0.46391094)">
      <circle
         style="opacity:0.25;fill:#000000;fill-opacity:1;stroke:none;stroke-width:0.18928497;stroke-miterlimit:4;stroke-dasharray:none;stroke-dashoffset:0;stroke-opacity:1"
         id="circle31916"
         cx="16.082827"
         cy="279.94257"
         r="15.024494" />
      <circle
         r="15.024494"
         cy="279.44174"
         cx="16.082827"
         id="path920"
         style="opacity:1;fill:#2f2f2f;fill-opacity:1;stroke:none;stroke-width:0.18928497;stroke-miterlimit:4;stroke-dasharray:none;stroke-dashoffset:0;stroke-opacity:1" />
      <circle
         style="color:#000000;opacity:0.25;fill:#000000;stroke:none;stroke-width:0.18928497;stroke-miterlimit:4;stroke-dasharray:none;stroke-opacity:1"
         cx="24.878912"
         cy="287.83395"
         r="7.8820992"
         id="circle31941" />
      <path
         id="circle922"
         d="m 18.15212,264.57816 c 0.06523,0.0554 0.131738,0.11138 0.2015,0.16824 0.293635,0.23934 0.632802,0.49685 1.017283,0.89648 0.384481,0.39963 0.814791,0.94154 1.177212,1.45941 0.362421,0.51788 0.656898,1.01167 0.90235,1.49365 0.245453,0.48198 0.441543,0.95221 0.591785,1.3122 0.04592,0.11003 0.08103,0.1908 0.119336,0.28073 a 2.7202677,2.7202677 0 0 0 -0.69547,0.37904 c -0.271609,-0.28921 -0.46121,-0.46546 -0.708675,-0.66026 -0.334713,-0.26349 -0.776977,-0.56339 -1.206068,-0.8104 -0.42909,-0.24702 -0.845111,-0.44088 -1.297036,-0.5732 -0.451926,-0.13233 -0.939561,-0.20273 -1.350835,-0.24014 -0.257047,-0.0234 -0.484505,-0.034 -0.709164,-0.0313 -0.134795,0.002 -0.268493,0.008 -0.407403,0.0191 -0.370427,0.0297 -0.77705,0.0936 -1.133684,0.17509 -0.356633,0.0814 -0.663361,0.18028 -0.91262,0.25285 -0.127858,0.0372 -0.24561,0.0693 -0.403979,0.1213 a 1.9123923,1.9123923 0 0 0 -1.46479,-0.68569 1.9123923,1.9123923 0 0 0 -0.700361,0.13303 c -0.145079,-0.24976 -0.244124,-0.42131 -0.349202,-0.58347 -0.156461,-0.24147 -0.399233,-0.58441 -0.70623,-0.93219 -0.2469862,-0.2798 -0.5337034,-0.56136 -0.7228578,-0.75709 a 15.024494,15.024494 0 0 0 -0.4836985,0.26166 c 0.1485111,0.16974 0.3361322,0.34907 0.5052181,0.52576 0.1985429,0.20746 0.370953,0.41111 0.5502133,0.6402 0.1792599,0.2291 0.3651889,0.4837 0.5228249,0.74633 0.06782,0.113 0.133715,0.23523 0.207859,0.37121 a 1.9123923,1.9123923 0 0 0 -0.457289,0.51696 C 9.7750067,268.85092 9.4356892,268.68939 9.0562361,268.56809 8.5955058,268.42083 8.0211477,268.31158 7.5078133,268.2453 6.9955334,268.1792 6.5442397,268.1558 6.2078425,268.14308 a 15.024494,15.024494 0 0 0 -0.367298,0.3228 c 0.3724244,0.0102 0.7632928,0.0262 1.1424875,0.0611 0.5144059,0.0473 1.0063611,0.1294 1.4965806,0.25774 0.4902187,0.12835 0.9781989,0.30314 1.3190449,0.43675 0.1103741,0.0433 0.201194,0.0831 0.2958925,0.12374 a 1.9123923,1.9123923 0 0 0 -0.1349857,0.70232 1.9123923,1.9123923 0 0 0 0.01663,0.23231 c -0.4789854,0.25297 -0.8423896,0.48231 -1.1977534,0.73704 -0.4596551,0.3295 -0.911674,0.70324 -1.3669745,1.19335 -0.4553005,0.49012 -0.9130515,1.09585 -1.2667136,1.68585 -0.3536616,0.59 -0.6018464,1.1623 -0.7932855,1.68928 -0.1914389,0.52698 -0.3264039,1.0087 -0.4284327,1.43154 -0.1020283,0.42283 -0.1713571,0.78696 -0.2176401,1.14248 -0.046283,0.35553 -0.069226,0.70293 -0.072383,0.98061 -0.00165,0.14451 0.0018,0.27046 0.00685,0.39517 a 1.5284722,1.5284722 0 0 0 -0.3496914,0.17656 C 4.0377943,279.40271 3.7395628,279.00349 3.466068,278.62645 3.1715255,278.22041 2.9107106,277.85044 2.6669136,277.46049 2.4231161,277.07054 2.1967601,276.66059 1.9758456,276.24611 1.8420799,275.99514 1.7102911,275.74316 1.592408,275.53743 A 15.024494,15.024494 0 0 0 1.467693,276.027 c 0.1144865,0.17841 0.2035659,0.36723 0.3584946,0.66319 0.1640998,0.31348 0.4022441,0.74695 0.6876445,1.18846 0.2853997,0.44151 0.6178803,0.89074 0.8734942,1.22368 0.255614,0.33292 0.4347075,0.55001 0.5409211,0.69987 0.039861,0.0562 0.066166,0.0977 0.094881,0.14036 a 1.5284722,1.5284722 0 0 0 -0.2866002,0.448 c -0.2796577,-0.0215 -0.4906144,-0.0773 -0.7248144,-0.14721 -0.292424,-0.0873 -0.6269695,-0.19457 -1.0255977,-0.36143 -0.3104797,-0.12998 -0.6567518,-0.29439 -0.9268039,-0.41816 a 15.024494,15.024494 0 0 0 0.022009,0.62602 c 0.1705484,0.0758 0.3678554,0.16164 0.6206407,0.25872 0.4528657,0.17391 1.0739471,0.37983 1.5112528,0.50962 0.154129,0.0457 0.2831711,0.0787 0.4069134,0.10515 a 1.5284722,1.5284722 0 0 0 -5.009e-4,0.0112 1.5284722,1.5284722 0 0 0 1.5283704,1.52886 1.5284722,1.5284722 0 0 0 0.013695,-5e-4 c 5.008e-4,10e-4 9.766e-4,0.003 0.00148,0.004 0.080994,0.23035 0.1376514,0.4636 0.2670368,0.75709 0.1293857,0.2935 0.3311496,0.64697 0.5257596,0.91311 0.1861004,0.25451 0.3665311,0.4327 0.5624405,0.68667 a 1.0992884,1.0992884 0 0 0 -0.077764,0.40251 1.0992884,1.0992884 0 0 0 0.5541259,0.95321 c -0.044468,0.27052 -0.1688495,0.53889 -0.3252372,0.80014 -0.2159526,0.36075 -0.489181,0.7056 -0.808936,0.9938 -0.3197548,0.28821 -0.6844226,0.51842 -0.9903841,0.70623 -0.1468587,0.0902 -0.2786468,0.16951 -0.4010443,0.23819 a 15.024494,15.024494 0 0 0 0.3526256,0.40153 c 0.1274766,-0.068 0.2553801,-0.14113 0.380014,-0.21813 0.3303325,-0.2041 0.6376493,-0.43569 0.9248475,-0.69449 0.287198,-0.2588 0.5542656,-0.54472 0.7751898,-0.83192 0.2209239,-0.28722 0.3953853,-0.57536 0.5037507,-0.80894 0.079985,-0.1724 0.1234072,-0.31486 0.1442782,-0.44115 a 1.0992884,1.0992884 0 0 0 1.0896672,-1.09847 1.0992884,1.0992884 0 0 0 -1.0994486,-1.09945 1.0992884,1.0992884 0 0 0 -0.7360635,0.28465 C 6.673114,284.24525 6.5496843,284.07013 6.4259731,283.8875 6.264408,283.64898 6.0966134,283.37369 5.9701518,283.12747 c -0.1264607,-0.24623 -0.2115922,-0.46324 -0.2777967,-0.72286 -1.875e-4,-7.2e-4 -3.005e-4,-0.002 -5.008e-4,-0.002 a 1.5284722,1.5284722 0 0 0 0.9845153,-1.42811 1.5284722,1.5284722 0 0 0 -0.2787748,-0.87692 c 0.051463,-0.0585 0.1038581,-0.11638 0.1579723,-0.17411 0.2475348,-0.26409 0.5502886,-0.50809 0.9395199,-0.78791 0.3892311,-0.27983 0.8645653,-0.59526 1.382136,-0.82458 0.5175706,-0.22932 1.0770787,-0.37221 1.563095,-0.44164 0.486016,-0.0695 0.898235,-0.0654 1.186504,-0.0465 0.06042,0.004 0.113146,0.009 0.16482,0.0156 a 1.5463238,1.5463238 0 0 0 0.538475,1.12048 c -0.01308,0.0275 -0.0278,0.054 -0.04059,0.0817 -0.171068,0.37039 -0.313908,0.75711 -0.426966,1.18553 -0.113059,0.42842 -0.196405,0.89868 -0.246985,1.41637 -0.05058,0.51767 -0.06841,1.08287 -0.03717,1.61543 0.03123,0.53255 0.111368,1.03236 0.228888,1.53815 0.11752,0.50578 0.273378,1.02046 0.482721,1.52788 0.209343,0.50741 0.474956,1.01531 0.728727,1.45745 0.253771,0.44214 0.497742,0.82309 0.686666,1.11168 0.102327,0.15631 0.187219,0.28277 0.264592,0.3942 a 1.5284722,1.5284722 0 0 0 -0.242583,0.82361 1.5284722,1.5284722 0 0 0 1.183081,1.48728 c -0.05246,0.80557 0.06605,1.52196 0.195631,2.03115 0.08132,0.31954 0.167008,0.5582 0.255299,0.80062 a 15.024494,15.024494 0 0 0 0.705252,0.0352 c -0.06192,-0.11313 -0.125243,-0.21519 -0.184872,-0.35653 -0.08034,-0.19045 -0.154654,-0.45282 -0.225954,-0.69939 -0.0713,-0.24657 -0.139874,-0.47851 -0.17558,-0.7121 -0.03571,-0.23359 -0.03853,-0.46874 -0.04597,-0.66514 -0.0047,-0.12341 -0.0092,-0.23842 0.0029,-0.40545 a 1.5284722,1.5284722 0 0 0 1.037824,-0.59668 c 0.138871,0.0678 0.281018,0.12819 0.48321,0.20004 0.396288,0.14082 1.026535,0.33027 1.667758,0.46218 0.641222,0.13189 1.293243,0.2058 1.896158,0.24062 0.602915,0.0348 1.156215,0.0305 1.684386,-0.003 0.528171,-0.0337 1.030787,-0.0963 1.482887,-0.16482 0.438368,-0.0664 0.832001,-0.13875 1.233945,-0.1971 a 15.024494,15.024494 0 0 0 0.676396,-0.51255 c -0.0429,0.006 -0.0859,0.0113 -0.129607,0.0176 -0.536454,0.0778 -1.125403,0.19179 -1.690255,0.28856 -0.564853,0.0968 -1.105725,0.17664 -1.692701,0.2103 -0.586976,0.0337 -1.219914,0.0211 -1.86828,-0.0347 -0.648364,-0.0558 -1.312143,-0.15481 -1.898603,-0.27927 -0.58646,-0.12446 -1.09562,-0.27472 -1.363551,-0.36827 -0.140098,-0.0489 -0.218938,-0.0872 -0.309587,-0.14819 a 1.5284722,1.5284722 0 0 0 0.136942,-0.62994 1.5284722,1.5284722 0 0 0 -0.714544,-1.29214 c 0.02772,-0.0668 0.05651,-0.13259 0.08901,-0.19955 0.14878,-0.30648 0.357123,-0.63959 0.598143,-0.96691 0.241019,-0.3273 0.514604,-0.64833 0.862734,-0.98158 0.34813,-0.33324 0.770713,-0.67834 1.273561,-0.96397 0.502847,-0.28563 1.086076,-0.51174 1.594885,-0.65977 0.508809,-0.14802 0.937229,-0.21689 1.321002,-0.27388 0.04167,-0.006 0.06435,-0.009 0.104662,-0.0152 a 1.5284722,1.5284722 0 0 0 1.496581,1.22612 1.5284722,1.5284722 0 0 0 0.993807,-0.36926 c 0.289908,0.17085 0.526163,0.3106 0.788396,0.43871 0.37296,0.18218 0.869054,0.38107 1.321489,0.51842 0.452435,0.13734 0.860764,0.21329 1.253997,0.25872 0.393234,0.0454 0.771107,0.0603 1.138576,0.0871 0.06437,0.005 0.121786,0.009 0.184872,0.0147 a 15.024494,15.024494 0 0 0 0.3179,-0.57956 c -0.06703,-6e-5 -0.129616,-5e-4 -0.19661,-5e-4 -0.423949,0 -0.828298,-2.5e-4 -1.165963,-0.0152 -0.337663,-0.0149 -0.60884,-0.0445 -0.934629,-0.11738 -0.325786,-0.0729 -0.706594,-0.1887 -1.030487,-0.31595 -0.323894,-0.12723 -0.590741,-0.26591 -0.809425,-0.38343 -0.218685,-0.11753 -0.389133,-0.21412 -0.517446,-0.28025 -0.0082,-0.004 -0.01848,-0.009 -0.02641,-0.0132 a 1.5284722,1.5284722 0 0 0 0.210792,-0.77128 1.5284722,1.5284722 0 0 0 -0.416695,-1.04711 c 0.218822,-0.28498 0.345385,-0.55115 0.465114,-0.82801 0.132847,-0.30721 0.263851,-0.62869 0.388817,-1.00359 0.124966,-0.37491 0.24364,-0.80333 0.3448,-1.31807 0.101162,-0.51474 0.184754,-1.11589 0.193676,-1.66336 0.0089,-0.54746 -0.05667,-1.04126 -0.132539,-1.50244 -0.07588,-0.4612 -0.162187,-0.88934 -0.282688,-1.26721 -0.120504,-0.37786 -0.27432,-0.70422 -0.472451,-1.05885 -0.01263,-0.0226 -0.02811,-0.0457 -0.04108,-0.0685 a 2.7202677,2.7202677 0 0 0 0.833389,-1.95876 2.7202677,2.7202677 0 0 0 -0.128139,-0.81628 c 0.206544,-0.0986 0.401152,-0.18934 0.622598,-0.30518 0.273521,-0.14307 0.593355,-0.32779 0.856376,-0.50033 0.263021,-0.17254 0.46906,-0.33274 0.698406,-0.49054 0.0795,-0.0547 0.161994,-0.10844 0.245027,-0.15895 a 15.024494,15.024494 0 0 0 -0.310076,-0.4211 c -0.272802,0.17497 -0.511669,0.34954 -0.814315,0.5507 -0.351322,0.23351 -0.789064,0.50265 -1.275028,0.70672 -0.08262,0.0347 -0.166589,0.0654 -0.250409,0.0968 a 2.7202677,2.7202677 0 0 0 -1.956803,-1.3479 c 0.01324,-0.15524 0.01907,-0.33359 0.02152,-0.55902 0.0042,-0.38644 0.0019,-0.89922 -0.02494,-1.33665 -0.02693,-0.43743 -0.07862,-0.79893 -0.128627,-1.19971 -0.02959,-0.23709 -0.05794,-0.48642 -0.06651,-0.68813 a 15.024494,15.024494 0 0 0 -0.697426,-0.33991 c 0.04629,0.19238 0.09509,0.44128 0.139876,0.70916 0.05785,0.34608 0.108706,0.72069 0.14868,1.0794 0.03998,0.3587 0.06924,0.70189 0.08608,1.04271 0.01683,0.34083 0.02123,0.67918 0.02543,0.9537 0.0022,0.14283 0.0035,0.20481 0.0054,0.30715 a 2.7202677,2.7202677 0 0 0 -0.579545,0.0817 c -0.0614,-0.18804 -0.137413,-0.40025 -0.26019,-0.6896 -0.179881,-0.42392 -0.443059,-0.98544 -0.680797,-1.43251 -0.237739,-0.44708 -0.449871,-0.77946 -0.660256,-1.08136 -0.210387,-0.3019 -0.418664,-0.57346 -0.641671,-0.8417 -0.223007,-0.26824 -0.460702,-0.53334 -0.669549,-0.7522 -0.200831,-0.21047 -0.377392,-0.37976 -0.635802,-0.61722 a 15.024494,15.024494 0 0 0 -0.736552,-0.11151 z m -2.08103,4.16891 c 0.159574,5.7e-4 0.323853,0.008 0.492991,0.0254 0.676555,0.0677 1.428631,0.27897 2.002288,0.50228 0.573658,0.22332 0.969021,0.4589 1.360127,0.71112 0.342396,0.22081 0.687645,0.47006 1.126837,0.96446 a 2.7202677,2.7202677 0 0 0 -0.674439,1.78954 2.7202677,2.7202677 0 0 0 2.720255,2.72026 2.7202677,2.7202677 0 0 0 1.222697,-0.291 c 0.276002,0.49383 0.443506,1.11741 0.561951,1.66824 0.123469,0.57421 0.194894,1.06817 0.177047,1.7108 -0.01785,0.64264 -0.12372,1.42389 -0.2553,2.015 -0.131579,0.59112 -0.288423,0.97716 -0.445061,1.3435 -0.156638,0.36635 -0.31946,0.72865 -0.491524,1.01484 -0.01369,0.0228 -0.02863,0.0426 -0.04255,0.0646 a 1.5284722,1.5284722 0 0 0 -0.416206,-0.0587 1.5284722,1.5284722 0 0 0 -0.250897,0.021 c -0.311106,-0.59266 -0.584617,-1.21706 -0.868114,-1.81399 -0.29875,-0.62906 -0.609796,-1.22685 -0.952726,-1.85801 -0.34293,-0.63116 -0.717677,-1.29575 -1.154225,-1.98371 -0.436549,-0.68795 -0.935179,-1.39915 -1.441315,-2.07907 -0.506135,-0.67993 -1.019674,-1.32835 -1.482397,-1.83355 -0.462722,-0.5052 -0.874301,-0.86704 -1.245194,-1.19776 -0.370891,-0.33072 -0.700792,-0.63052 -1.062768,-0.92582 -0.361976,-0.29532 -0.756175,-0.58602 -1.065702,-0.75563 -0.04914,-0.0269 -0.09512,-0.0475 -0.141833,-0.0695 a 1.9123923,1.9123923 0 0 0 0.03913,-0.38392 1.9123923,1.9123923 0 0 0 -0.158462,-0.75661 c 0.443535,-0.19739 0.774104,-0.3075 1.144444,-0.39224 0.387127,-0.0886 0.822228,-0.15337 1.300949,-0.15161 z m -2.508484,2.19107 c 0.05022,0.0294 0.0985,0.0569 0.153571,0.0919 0.357651,0.22745 0.849905,0.59371 1.409524,1.07549 0.559618,0.48178 1.186666,1.07889 1.805189,1.75188 0.618525,0.67299 1.228742,1.42182 1.805189,2.21601 0.576447,0.7942 1.119245,1.63353 1.548912,2.34856 0.429668,0.71501 0.746152,1.30571 1.038314,1.8673 0.292162,0.56159 0.56,1.09425 0.774211,1.54647 0.214212,0.45223 0.374818,0.82421 0.470005,1.06961 0.03375,0.087 0.05435,0.15648 0.07679,0.22987 a 1.5284722,1.5284722 0 0 0 -0.585427,0.6089 c -0.526708,-0.26413 -1.014853,-0.48271 -1.498048,-0.72188 -0.576115,-0.28515 -1.159998,-0.61013 -1.742587,-0.94734 -0.582587,-0.33722 -1.177713,-0.69427 -1.747477,-1.06766 -0.569764,-0.3734 -1.114559,-0.76328 -1.545978,-1.09652 -0.431419,-0.33322 -0.749773,-0.60969 -0.962506,-0.8016 -0.07063,-0.0637 -0.128233,-0.12115 -0.188785,-0.17949 a 1.5463238,1.5463238 0 0 0 0.509131,-1.14444 1.5463238,1.5463238 0 0 0 -1.050051,-1.46284 c 0.03477,-0.44242 0.01219,-0.90196 -0.01663,-1.27307 -0.0372,-0.47906 -0.08181,-0.80934 -0.142811,-1.17085 -0.061,-0.36151 -0.138574,-0.75422 -0.228889,-1.14493 -0.074,-0.32013 -0.166033,-0.65082 -0.407892,-1.17037 a 1.9123923,1.9123923 0 0 0 0.526249,-0.62504 z m -3.302747,0.13743 a 1.9123923,1.9123923 0 0 0 1.612003,0.88425 1.9123923,1.9123923 0 0 0 0.702316,-0.134 c 0.106018,0.23039 0.184157,0.42978 0.24943,0.62161 0.12198,0.3585 0.208328,0.70068 0.281221,1.14249 0.07289,0.44182 0.132111,0.98365 0.164819,1.41784 0.03271,0.43418 0.03874,0.76156 0.0313,1.04858 -0.0017,0.064 -0.0083,0.12326 -0.01174,0.18439 a 1.5463238,1.5463238 0 0 0 -1.32149,0.82654 c -0.253794,-0.0682 -0.521603,-0.10128 -0.792796,-0.10515 -0.538727,-0.008 -1.088449,0.0901 -1.5577153,0.20737 -0.7508271,0.18755 -1.2950062,0.42515 -1.7660629,0.69204 -0.4710567,0.26691 -0.8690325,0.56318 -1.2300326,0.851 -0.3610002,0.28782 -0.6854376,0.56776 -0.8720271,0.82801 -0.00565,0.008 -0.00926,0.0151 -0.014671,0.023 a 1.5284722,1.5284722 0 0 0 -0.3002943,-0.0895 c 0.01194,-0.42348 0.047943,-0.85725 0.1119991,-1.29459 0.08629,-0.58914 0.2230025,-1.18415 0.4015336,-1.7465 0.1785308,-0.56237 0.398861,-1.09232 0.6636795,-1.61005 0.2648182,-0.51772 0.5740661,-1.02329 0.9727773,-1.51125 0.3987113,-0.48797 0.8863783,-0.95774 1.3033944,-1.3078 0.3892952,-0.32679 0.7293871,-0.55504 1.3723543,-0.92827 z m 3.700368,8.12262 c 0.07438,0.0585 0.152117,0.11568 0.221553,0.17704 0.242288,0.21412 0.459509,0.45815 0.867136,0.78693 0.407627,0.32878 1.005843,0.74235 1.508318,1.08575 0.502475,0.3434 0.909079,0.61681 1.462834,0.95224 0.553755,0.33543 1.254458,0.73295 1.896158,1.06326 0.625288,0.32187 1.198433,0.58241 1.897136,0.93609 -0.50054,0.12495 -1.057357,0.20657 -1.569453,0.3585 -0.541499,0.16065 -1.030827,0.40181 -1.488267,0.66074 -0.457439,0.25894 -0.883311,0.53583 -1.274538,0.8735 -0.391227,0.33767 -0.748165,0.73613 -1.044183,1.12586 -0.296019,0.38972 -0.530963,0.77079 -0.688623,1.05934 -0.06454,0.11812 -0.115223,0.22408 -0.16433,0.34187 a 1.5284722,1.5284722 0 0 0 -0.328172,-0.0367 1.5284722,1.5284722 0 0 0 -0.905773,0.29931 c -0.0554,-0.0689 -0.108682,-0.14084 -0.171178,-0.23133 -0.185956,-0.26927 -0.471416,-0.69459 -0.688623,-1.04272 -0.217205,-0.34812 -0.367714,-0.62143 -0.524781,-0.96544 -0.157067,-0.344 -0.323514,-0.76315 -0.448485,-1.13955 -0.124969,-0.37641 -0.208083,-0.70978 -0.2866,-1.23639 -0.07852,-0.5266 -0.152089,-1.24645 -0.153571,-1.82671 -0.0015,-0.58026 0.06887,-1.02033 0.145257,-1.43153 0.07639,-0.41121 0.158618,-0.79298 0.250897,-1.09212 0.09228,-0.29913 0.19432,-0.51499 0.275351,-0.65585 0.0085,-0.0148 0.01538,-0.0238 0.02348,-0.0372 a 1.5463238,1.5463238 0 0 0 0.564397,0.10857 1.5463238,1.5463238 0 0 0 0.624064,-0.13351 z"
         style="opacity:1;fill:#cccccc;fill-opacity:1;stroke:none;stroke-width:0.04409002;stroke-miterlimit:4;stroke-dasharray:none;stroke-dashoffset:0;stroke-opacity:1"
         inkscape:connector-curvature="0" />
      <circle
         id="circle31931"
         r="7.8820992"
         cy="287.33313"
         cx="24.878912"
         style="color:#000000;fill:url(#linearGradient1001);fill-opacity:1;stroke:#191918;stroke-width:0.2;stroke-miterlimit:4;stroke-dasharray:none;stroke-opacity:1" />
      <path
         sodipodi:nodetypes="ccccscscccccccccsccccccccccscccccccsccsccccsccccccc"
         style="fill:#191918;stroke-width:1.26351631"
         d="m 23.071091,292.71684 c -0.251367,-0.23035 -0.246463,-0.32869 0.08553,-1.71484 0.159666,-0.66668 0.334993,-1.29977 0.389623,-1.40685 0.05465,-0.10708 0.327771,-0.55966 0.60699,-1.00574 0.279206,-0.44606 0.507655,-0.84977 0.507655,-0.89711 0,-0.0473 -0.0905,-0.33506 -0.201085,-0.63936 -0.11055,-0.3043 -0.201085,-0.55949 -0.201085,-0.5671 0,-0.0781 -0.160351,0.0493 -0.446839,0.35485 l -0.345649,0.36865 h -1.126946 -1.126947 l -0.107819,-0.12541 c -0.142549,-0.16575 -0.142586,-0.38779 -8.9e-5,-0.55361 l 0.10782,-0.12541 0.885239,-0.014 c 0.494496,-0.008 0.908704,-0.0334 0.938397,-0.058 0.02926,-0.0243 0.261067,-0.38833 0.515162,-0.80902 0.254094,-0.4207 0.525159,-0.8291 0.602372,-0.90755 0.186506,-0.1895 0.482059,-0.3277 0.815706,-0.38144 0.327112,-0.0526 0.376312,-0.0422 1.9926,0.42252 0.896542,0.2578 1.179695,0.35669 1.242117,0.43377 0.07419,0.0917 0.0798,0.19545 0.0676,1.2581 l -0.0132,1.15825 -0.125385,0.10788 c -0.179336,0.15416 -0.40263,0.14522 -0.570687,-0.0228 l -0.13062,-0.13055 v -0.13624 -0.71719 c 0,-0.84283 -0.0012,-0.85395 -0.100593,-0.89532 -0.188362,-0.0785 -0.847055,-0.18831 -0.887392,-0.14797 -0.02303,0.0229 0.05441,0.31994 0.184465,0.70775 0.294345,0.87795 0.341566,1.13675 0.440453,2.41408 l 0.08329,1.0756 0.786923,1.11402 c 0.433755,0.61405 0.798976,1.17595 0.813779,1.25201 0.05888,0.30269 -0.226619,0.64366 -0.538967,0.64366 -0.250447,0 -0.401821,-0.15458 -1.119961,-1.14373 -0.857326,-1.18088 -0.938921,-1.31416 -1.232642,-2.01362 -0.127324,-0.30319 -0.253673,-0.55124 -0.280788,-0.55124 -0.02714,0 -0.266893,0.21829 -0.532878,0.4851 l -0.48359,0.48509 -0.287834,1.23897 c -0.158296,0.6814 -0.320363,1.2886 -0.36014,1.3493 -0.09847,0.15038 -0.286651,0.23985 -0.504333,0.23985 -0.142609,0 -0.215664,-0.0313 -0.340122,-0.14526 z m 0.770678,-8.81724 c -0.461692,-0.14723 -0.792339,-0.67812 -0.72053,-1.15693 0.04794,-0.31994 0.269956,-0.64103 0.552547,-0.79931 0.80723,-0.45213 1.759595,0.26429 1.563976,1.17647 -0.13012,0.60671 -0.787372,0.97382 -1.395993,0.77977 z"
         id="path919"
         inkscape:connector-curvature="0" />
    </g>
  </g>
</svg>
