<?xml version="1.0" encoding="UTF-8" standalone="no"?>
<!-- Created with Inkscape (http://www.inkscape.org/) -->

<svg
   xmlns:dc="http://purl.org/dc/elements/1.1/"
   xmlns:cc="http://creativecommons.org/ns#"
   xmlns:rdf="http://www.w3.org/1999/02/22-rdf-syntax-ns#"
   xmlns:svg="http://www.w3.org/2000/svg"
   xmlns="http://www.w3.org/2000/svg"
   xmlns:xlink="http://www.w3.org/1999/xlink"
   xmlns:sodipodi="http://sodipodi.sourceforge.net/DTD/sodipodi-0.dtd"
   xmlns:inkscape="http://www.inkscape.org/namespaces/inkscape"
   width="128"
   height="128"
   viewBox="0 0 33.866666 33.866668"
   version="1.1"
   id="svg8"
   inkscape:version="0.92.3 (2405546, 2018-03-11)"
   sodipodi:docname="preferences-desktop-gestures-touch.svg">
  <defs
     id="defs2">
    <linearGradient
       id="linearGradient935"
       inkscape:collect="always">
      <stop
         id="stop931"
         offset="0"
         style="stop-color:#f7f8f8;stop-opacity:1" />
      <stop
         id="stop933"
         offset="1"
         style="stop-color:#fefefe;stop-opacity:1" />
    </linearGradient>
    <linearGradient
       inkscape:collect="always"
       xlink:href="#linearGradient935"
       id="linearGradient927"
       gradientUnits="userSpaceOnUse"
       gradientTransform="matrix(0.7816152,0,0,0.7816152,29.71076,24.814958)"
       x1="-15.874995"
       y1="346.1369"
       x2="-15.874995"
       y2="313.72092" />
  </defs>
  <sodipodi:namedview
     id="base"
     pagecolor="#ffffff"
     bordercolor="#666666"
     borderopacity="1.0"
     inkscape:pageopacity="0.0"
     inkscape:pageshadow="2"
     inkscape:zoom="3.959798"
     inkscape:cx="40.678067"
     inkscape:cy="43.527685"
     inkscape:document-units="mm"
     inkscape:current-layer="layer1"
     showgrid="false"
     units="px"
     inkscape:window-width="1600"
     inkscape:window-height="837"
     inkscape:window-x="0"
     inkscape:window-y="30"
     inkscape:window-maximized="1" />
  <metadata
     id="metadata5">
    <rdf:RDF>
      <cc:Work
         rdf:about="">
        <dc:format>image/svg+xml</dc:format>
        <dc:type
           rdf:resource="http://purl.org/dc/dcmitype/StillImage" />
        <dc:title />
      </cc:Work>
    </rdf:RDF>
  </metadata>
  <g
     inkscape:label="Layer 1"
     inkscape:groupmode="layer"
     id="layer1"
     transform="translate(0,-263.13332)">
    <g
       id="g826"
       transform="translate(8.9009603e-7,8.4002587e-6)">
      <circle
         r="15.584034"
         cy="280.3576"
         cx="16.933332"
         id="circle965"
         style="opacity:0.25;fill:#000000;fill-opacity:1;stroke:none;stroke-width:0.14370039;stroke-miterlimit:4;stroke-dasharray:none;stroke-dashoffset:0;stroke-opacity:1" />
      <circle
         style="opacity:1;fill:url(#linearGradient927);fill-opacity:1;stroke:#666666;stroke-width:0.14998521;stroke-miterlimit:4;stroke-dasharray:none;stroke-dashoffset:0;stroke-opacity:1"
         id="circle925"
         cx="16.933332"
         cy="279.85068"
         r="15.584034" />
      <path
         style="fill:#151515;fill-opacity:1;stroke-width:0.03510017"
         d="m 17.08936,290.63379 c -0.240364,-0.15922 -0.752473,-0.65538 -1.073884,-1.04045 -0.542439,-0.64987 -0.905647,-1.27406 -1.155648,-1.98602 -0.25005,-0.71209 -0.487546,-1.21398 -1.238689,-2.61761 -0.68784,-1.28535 -0.854805,-1.71674 -0.822776,-2.12582 0.06024,-0.76945 0.751237,-1.18719 1.529192,-0.92448 0.363937,0.12291 0.719305,0.38233 1.225686,0.89473 0.255815,0.25886 0.480898,0.47066 0.500183,0.47066 0.02309,0 0.03526,-1.00584 0.03564,-2.93964 6.42e-4,-3.13671 0.0048,-3.22037 0.173801,-3.55175 0.178073,-0.34907 0.488447,-0.56881 0.895138,-0.63379 0.289058,-0.0462 0.642475,-0.002 0.880472,0.10975 0.201765,0.0949 0.449466,0.37105 0.523289,0.58352 0.09149,0.2632 0.122375,0.86634 0.123266,2.40417 9.11e-4,1.56067 -0.0038,1.53178 0.196094,1.32181 0.170649,-0.17964 0.354308,-0.25727 0.612039,-0.25874 0.283224,-0.002 0.50413,0.11468 0.685259,0.36071 0.127347,0.17296 0.309416,0.59967 0.351003,0.82262 0.01437,0.0771 0.04474,0.13163 0.07328,0.13163 0.02683,0 0.04876,-0.0136 0.04876,-0.0302 0,-0.0166 0.06648,-0.10573 0.14784,-0.19811 0.257156,-0.29215 0.621417,-0.40014 0.983648,-0.2916 0.316619,0.0949 0.63161,0.51764 0.799223,1.07271 0.04225,0.13994 0.08957,0.25446 0.105236,0.25446 0.01562,0 0.08497,-0.0788 0.154076,-0.17495 0.242614,-0.33769 0.570308,-0.48862 0.961173,-0.44268 0.540065,0.0635 0.903464,0.45457 1.07942,1.16169 0.128775,0.5175 0.102277,4.25475 -0.03334,4.70341 -0.135299,0.44757 -0.688306,1.3493 -1.154087,1.88184 -0.48336,0.55262 -1.094738,0.96821 -1.620212,1.10134 -0.176062,0.0446 -0.574149,0.053 -2.512428,0.053 H 17.2588 Z m 5.009729,-0.4538 c 0.396709,-0.15412 0.6239,-0.3121 1.028436,-0.71511 0.571966,-0.56983 1.178525,-1.51764 1.280514,-2.00093 0.05652,-0.26773 0.08842,-3.68245 0.03804,-4.05987 -0.04905,-0.36686 -0.146652,-0.66421 -0.27192,-0.82844 -0.180765,-0.237 -0.543054,-0.31603 -0.769285,-0.16779 -0.348014,0.22803 -0.566448,1.03127 -0.588856,2.1654 -0.01188,0.60176 -0.04628,0.69716 -0.251513,0.69716 -0.208683,0 -0.21902,-0.0455 -0.239042,-1.05301 -0.0184,-0.9251 -0.06332,-1.33519 -0.199484,-1.81954 -0.202148,-0.71922 -0.559982,-0.99706 -0.90013,-0.69889 -0.306082,0.26829 -0.481588,0.95634 -0.523769,2.05338 -0.02482,0.64577 -0.0274,0.65753 -0.152208,0.70926 -0.105877,0.0439 -0.231951,0.009 -0.292669,-0.0828 -0.01418,-0.0213 -0.02606,-0.34662 -0.02644,-0.72307 -9.58e-4,-1.39389 -0.167631,-2.338 -0.474298,-2.69275 -0.09494,-0.10985 -0.135777,-0.13122 -0.25068,-0.13122 -0.480783,0 -0.773655,0.83474 -0.840887,2.39666 -0.02357,0.54656 -0.02836,0.57549 -0.105686,0.62612 -0.10038,0.0658 -0.280331,0.0336 -0.32987,-0.0589 -0.02223,-0.0415 -0.03526,-1.14363 -0.03602,-3.04209 -6.9e-4,-1.63738 -0.01495,-3.13008 -0.03162,-3.31713 -0.04723,-0.52877 -0.171272,-0.69273 -0.581211,-0.76852 -0.420467,-0.0777 -0.737834,0.0749 -0.899536,0.43267 l -0.08344,0.18453 -0.01753,3.24676 c -0.01935,3.58655 -0.0077,3.41134 -0.238648,3.5071 -0.193258,0.0801 -0.274938,0.0239 -0.902113,-0.62093 -0.814285,-0.83711 -1.144643,-1.06096 -1.565801,-1.06096 -0.340882,0 -0.541387,0.17823 -0.579732,0.51531 -0.02986,0.26251 0.10988,0.63038 0.584243,1.53806 0.754518,1.44374 1.218756,2.41181 1.405471,2.93086 0.332897,0.9254 0.640003,1.43134 1.342267,2.21131 0.23723,0.26347 0.676561,0.6607 0.779162,0.70448 0.03861,0.0165 1.057396,0.0265 2.263962,0.0224 l 2.193759,-0.008 z M 7.9109937,287.77646 c -0.3672062,-0.0987 -0.7037956,-0.35451 -0.9031933,-0.68646 -0.2348313,-0.39095 -0.2208627,0.0418 -0.2208627,-6.8415 0,-3.91348 0.01277,-6.30303 0.034297,-6.41654 0.1092803,-0.57623 0.6003859,-1.06998 1.1871577,-1.19355 0.2645314,-0.0558 17.4049456,-0.0558 17.6694796,0 0.570787,0.12021 1.05386,0.59267 1.184254,1.15827 0.04895,0.21231 0.04895,12.6264 -2e-5,12.83871 -0.13457,0.5837 -0.617825,1.04956 -1.212678,1.16902 -0.159114,0.032 -0.201334,0.0304 -0.225293,-0.009 -0.01619,-0.0263 -0.02261,-0.0588 -0.01418,-0.0725 0.05134,-0.0831 0.08469,-1.09689 0.08564,-2.60148 9.58e-4,-1.80353 -0.01485,-2.04848 -0.162783,-2.50049 -0.223051,-0.68141 -0.709937,-1.16101 -1.303985,-1.28447 -0.277074,-0.0576 -0.726195,-0.0249 -0.93641,0.068 -0.09254,0.0409 -0.172268,0.0745 -0.177086,0.0745 -0.0048,0 -0.08852,-0.10925 -0.185891,-0.24277 -0.346817,-0.47532 -0.718148,-0.67912 -1.235526,-0.67809 -0.185719,3.8e-4 -0.35633,0.0219 -0.451938,0.0571 -0.08449,0.031 -0.171942,0.0564 -0.194379,0.0564 -0.02242,0 -0.108579,-0.1031 -0.191437,-0.22913 -0.274621,-0.4177 -0.688057,-0.64837 -1.162077,-0.64837 h -0.24658 l -0.0019,-0.30713 c -0.0077,-1.12416 -0.06591,-2.39338 -0.118638,-2.58864 -0.08976,-0.33215 -0.22745,-0.58084 -0.438603,-0.792 -0.227938,-0.22793 -0.485247,-0.36348 -0.827715,-0.43603 -0.89098,-0.18872 -1.708683,0.1678 -2.066727,0.90107 -0.252194,0.51651 -0.248391,0.47932 -0.248975,2.43297 -7.38e-4,2.44849 -0.01044,2.96596 -0.05546,2.96596 -0.02069,0 -0.136591,-0.0706 -0.257597,-0.15698 -0.525309,-0.37486 -1.112089,-0.55377 -1.590288,-0.48488 -0.677953,0.0977 -1.206968,0.58551 -1.347988,1.24305 -0.02266,0.10566 -0.03165,0.32137 -0.02096,0.50272 0.03036,0.51511 0.185673,0.88731 1.034477,2.47919 0.631361,1.18407 1.055114,2.11844 1.011864,2.23115 -0.02829,0.0738 -6.1318672,0.0653 -6.4078054,-0.009 z"
         id="path945"
         inkscape:connector-curvature="0" />
    </g>
  </g>
</svg>
