<?xml version="1.0" encoding="UTF-8" standalone="no"?>
<!-- Created with Inkscape (http://www.inkscape.org/) -->

<svg
   xmlns:osb="http://www.openswatchbook.org/uri/2009/osb"
   xmlns:dc="http://purl.org/dc/elements/1.1/"
   xmlns:cc="http://creativecommons.org/ns#"
   xmlns:rdf="http://www.w3.org/1999/02/22-rdf-syntax-ns#"
   xmlns:svg="http://www.w3.org/2000/svg"
   xmlns="http://www.w3.org/2000/svg"
   xmlns:xlink="http://www.w3.org/1999/xlink"
   xmlns:sodipodi="http://sodipodi.sourceforge.net/DTD/sodipodi-0.dtd"
   xmlns:inkscape="http://www.inkscape.org/namespaces/inkscape"
   width="128"
   height="128"
   viewBox="0 0 33.866666 33.866668"
   version="1.1"
   id="svg8"
   sodipodi:docname="user_icon 2.svg"
   inkscape:version="0.92.2 5c3e80d, 2017-08-06">
  <defs
     id="defs2">
    <linearGradient
       inkscape:collect="always"
       id="linearGradient3712">
      <stop
         style="stop-color:#36dff8;stop-opacity:1"
         offset="0"
         id="stop3708" />
      <stop
         style="stop-color:#249ac6;stop-opacity:1"
         offset="1"
         id="stop3710" />
    </linearGradient>
    <linearGradient
       inkscape:collect="always"
       id="linearGradient957">
      <stop
         style="stop-color:#434e54;stop-opacity:1"
         offset="0"
         id="stop953" />
      <stop
         style="stop-color:#738087;stop-opacity:1"
         offset="1"
         id="stop955" />
    </linearGradient>
    <linearGradient
       id="linearGradient6987"
       osb:paint="solid">
      <stop
         style="stop-color:#77d2fb;stop-opacity:1;"
         offset="0"
         id="stop6985" />
    </linearGradient>
    <linearGradient
       inkscape:collect="always"
       xlink:href="#linearGradient957"
       id="linearGradient959"
       x1="98.058289"
       y1="290.15744"
       x2="98.95594"
       y2="268.22507"
       gradientUnits="userSpaceOnUse"
       gradientTransform="matrix(1.245322,0,0,1.245322,-107.04266,-67.102955)" />
    <linearGradient
       inkscape:collect="always"
       xlink:href="#linearGradient3712"
       id="linearGradient3714"
       x1="266.46808"
       y1="82.519211"
       x2="151.07156"
       y2="173.73666"
       gradientUnits="userSpaceOnUse"
       gradientTransform="matrix(0.11820039,0,0,0.11820039,-3.9157965,263.39206)" />
  </defs>
  <sodipodi:namedview
     id="base"
     pagecolor="#ffffff"
     bordercolor="#666666"
     borderopacity="1.0"
     inkscape:pageopacity="0.0"
     inkscape:pageshadow="2"
     inkscape:zoom="1.8101934"
     inkscape:cx="82.575549"
     inkscape:cy="86.782773"
     inkscape:document-units="mm"
     inkscape:current-layer="layer1"
     showgrid="false"
     inkscape:window-width="1600"
     inkscape:window-height="803"
     inkscape:window-x="0"
     inkscape:window-y="0"
     inkscape:window-maximized="1"
     units="px" />
  <metadata
     id="metadata5">
    <rdf:RDF>
      <cc:Work
         rdf:about="">
        <dc:format>image/svg+xml</dc:format>
        <dc:type
           rdf:resource="http://purl.org/dc/dcmitype/StillImage" />
        <dc:title />
      </cc:Work>
    </rdf:RDF>
  </metadata>
  <g
     inkscape:label="Layer 1"
     inkscape:groupmode="layer"
     id="layer1"
     transform="translate(0,-263.13332)">
    <g
       id="g3755"
       transform="matrix(1.003098,0,0,1.003098,-0.05245977,-0.91681904)">
      <rect
         style="opacity:0.25;fill:#000000;fill-opacity:1;stroke:none;stroke-width:0.25146782;stroke-miterlimit:4;stroke-dasharray:none;stroke-dashoffset:0;stroke-opacity:1"
         id="rect973"
         width="31.133051"
         height="31.133051"
         x="1.3668082"
         y="264.80859"
         ry="2.5500319" />
      <rect
         ry="2.5500319"
         y="264.2897"
         x="1.3668082"
         height="31.133051"
         width="31.133051"
         id="rect943"
         style="opacity:1;fill:url(#linearGradient959);fill-opacity:1;stroke:none;stroke-width:0.19611371;stroke-miterlimit:4;stroke-dasharray:none;stroke-dashoffset:0;stroke-opacity:1" />
      <g
         transform="matrix(1.0750713,0,0,1.0750713,-2.4961491,-20.087641)"
         id="g3742">
        <path
           id="path3728"
           d="m 9.4858654,273.33571 c -2.35652,0.0862 -0.9771757,3.76469 2.7012946,7.44316 -2.9428348,5.88567 5.885548,5.88567 5.885548,0 0,5.88567 8.828383,5.88567 5.885548,0 5.885552,-5.88555 5.885556,-11.77116 -5.885548,-2.94278 -4.414164,-3.31064 -7.172931,-4.5521 -8.5868426,-4.50038 z"
           style="opacity:0.25;isolation:isolate;fill:#000000;fill-opacity:1;fill-rule:evenodd;stroke-width:0.11820038"
           inkscape:connector-curvature="0" />
        <path
           inkscape:connector-curvature="0"
           style="isolation:isolate;fill:url(#linearGradient3714);fill-opacity:1;fill-rule:evenodd;stroke-width:0.11820038"
           d="m 9.4858654,272.80654 c -2.35652,0.0862 -0.9771757,3.76469 2.7012946,7.44316 -2.9428348,5.88567 5.885548,5.88567 5.885548,0 0,5.88567 8.828383,5.88567 5.885548,0 5.885552,-5.88555 5.885556,-11.77116 -5.885548,-2.94278 -4.414164,-3.31064 -7.172931,-4.5521 -8.5868426,-4.50038 z"
           id="path3597" />
        <path
           style="opacity:0.25;isolation:isolate;fill:#000000;fill-opacity:1;stroke-width:0.11820038"
           inkscape:connector-curvature="0"
           d="m 21.129444,273.57943 c 0.03309,0.0272 0.05437,0.0662 0.06146,0.10875 0.0012,0.004 0.0012,0.006 0.0012,0.009 l 0.0012,0.009 c 0,0.002 0,0.006 0,0.009 0,0.039 -0.013,0.078 -0.03783,0.10875 -0.02482,0.0307 -0.05792,0.0532 -0.09692,0.0626 -0.119382,0.0319 -0.237582,0.0709 -0.352237,0.1182 -0.282499,0.10875 -0.551995,0.24586 -0.807308,0.41016 -0.156025,0.10047 -0.304957,0.21276 -0.444434,0.33687 -0.150114,0.1312 -0.286045,0.27659 -0.406609,0.43497 -0.127657,0.16667 -0.235219,0.3487 -0.319141,0.54136 -0.0922,0.2104 -0.154843,0.43262 -0.186757,0.66075 -0.0083,0.0626 -0.05083,0.11583 -0.108744,0.13947 -0.0071,0.002 -0.01418,0.005 -0.02246,0.006 l -0.02127,0.005 c -0.0083,10e-4 -0.01537,0.002 -0.02246,0.002 -0.04019,0 -0.07919,-0.0142 -0.109926,-0.0378 -0.04255,-0.0343 -0.06737,-0.0851 -0.06737,-0.13948 0,-0.004 0,-0.006 0,-0.008 l 0.0012,-0.009 c 0,-0.002 0,-0.005 0,-0.007 0.03664,-0.25886 0.107562,-0.51063 0.210397,-0.75057 0.09574,-0.21749 0.216306,-0.42434 0.360511,-0.61346 0.134748,-0.17612 0.286045,-0.33924 0.452707,-0.48581 0.153661,-0.13593 0.316778,-0.26004 0.48935,-0.36996 0.275407,-0.17849 0.568544,-0.32742 0.875865,-0.44562 0.127657,-0.052 0.258859,-0.0957 0.391243,-0.13002 0.0035,-0.001 0.0071,-0.002 0.01064,-0.002 l 0.14775,-0.026 z"
           id="path3730" />
        <path
           id="path3606"
           d="m 21.129444,273.05026 c 0.03309,0.0272 0.05437,0.0662 0.06146,0.10875 0.0012,0.004 0.0012,0.006 0.0012,0.009 l 0.0012,0.009 c 0,0.002 0,0.006 0,0.009 0,0.039 -0.013,0.078 -0.03783,0.10875 -0.02482,0.0307 -0.05792,0.0532 -0.09692,0.0626 -0.119382,0.0319 -0.237582,0.0709 -0.352237,0.1182 -0.282499,0.10875 -0.551995,0.24586 -0.807308,0.41016 -0.156025,0.10047 -0.304957,0.21276 -0.444434,0.33687 -0.150114,0.1312 -0.286045,0.27659 -0.406609,0.43497 -0.127657,0.16667 -0.235219,0.3487 -0.319141,0.54136 -0.0922,0.2104 -0.154843,0.43262 -0.186757,0.66075 -0.0083,0.0626 -0.05083,0.11583 -0.108744,0.13947 -0.0071,0.002 -0.01418,0.005 -0.02246,0.006 l -0.02127,0.005 c -0.0083,0.001 -0.01537,0.002 -0.02246,0.002 -0.04019,0 -0.07919,-0.0142 -0.109926,-0.0378 -0.04255,-0.0343 -0.06737,-0.0851 -0.06737,-0.13948 0,-0.004 0,-0.006 0,-0.008 l 0.0012,-0.009 c 0,-0.002 0,-0.005 0,-0.007 0.03664,-0.25886 0.107562,-0.51063 0.210397,-0.75057 0.09574,-0.21749 0.216306,-0.42434 0.360511,-0.61346 0.134748,-0.17612 0.286045,-0.33924 0.452707,-0.48581 0.153661,-0.13593 0.316778,-0.26004 0.48935,-0.36996 0.275407,-0.17849 0.568544,-0.32742 0.875865,-0.44562 0.127657,-0.052 0.258859,-0.0957 0.391243,-0.13002 0.0035,-0.001 0.0071,-0.002 0.01064,-0.002 l 0.14775,-0.026 z"
           inkscape:connector-curvature="0"
           style="isolation:isolate;fill:#eaf5f9;fill-opacity:1;stroke-width:0.11820038" />
        <path
           style="opacity:0.25;isolation:isolate;fill:#000000;fill-opacity:1;stroke-width:0.11820038"
           inkscape:connector-curvature="0"
           d="m 15.012574,273.58298 0.0012,-0.0402 0.121747,-0.004 0.02364,0.002 c 0.0047,0 0.01064,0.001 0.01537,0.004 0.133566,0.0343 0.263587,0.078 0.391243,0.13002 0.307321,0.1182 0.600458,0.26713 0.875865,0.44562 0.172573,0.10992 0.335689,0.23403 0.48935,0.36996 0.166662,0.14657 0.317959,0.30969 0.452707,0.48581 0.144205,0.18911 0.264769,0.39597 0.35933,0.61346 0.102834,0.23994 0.173754,0.49171 0.210396,0.75057 0,0 0,0.001 0,0.002 l 0.0024,0.013 c 0,0.005 0.0012,0.009 0.0012,0.0142 0,0.0532 -0.02364,0.10283 -0.06383,0.13593 -0.03192,0.0272 -0.0721,0.0414 -0.113472,0.0414 -0.02482,0 -0.04846,-0.005 -0.07092,-0.0142 -0.0591,-0.026 -0.100471,-0.0827 -0.105199,-0.14776 -0.03309,-0.22576 -0.09574,-0.44679 -0.185574,-0.65601 -0.0851,-0.19267 -0.191485,-0.37469 -0.320324,-0.54136 -0.120564,-0.15838 -0.256494,-0.30377 -0.406609,-0.43497 -0.139476,-0.12411 -0.288409,-0.2364 -0.445615,-0.33688 -0.254131,-0.16429 -0.52481,-0.3014 -0.807309,-0.41015 -0.114654,-0.0473 -0.232855,-0.0863 -0.352237,-0.1182 -0.03783,-0.009 -0.0721,-0.0319 -0.09574,-0.0626 -0.02482,-0.0319 -0.03782,-0.0697 -0.03782,-0.10875 0,-0.002 0,-0.005 0,-0.006 v -0.006 c 0.0012,-0.002 0.0012,-0.004 0.0012,-0.006 0.0035,-0.0449 0.02482,-0.0851 0.0591,-0.11584 0.02955,-0.026 0.06856,-0.0414 0.108744,-0.0437"
           id="path3732" />
        <path
           id="path3608"
           d="m 15.012574,273.05381 0.0012,-0.0402 0.121747,-0.004 0.02364,0.002 c 0.0047,0 0.01064,10e-4 0.01537,0.004 0.133566,0.0343 0.263587,0.078 0.391243,0.13002 0.307321,0.1182 0.600458,0.26713 0.875865,0.44562 0.172573,0.10992 0.335689,0.23403 0.48935,0.36996 0.166662,0.14657 0.317959,0.30969 0.452707,0.48581 0.144205,0.18911 0.264769,0.39597 0.35933,0.61346 0.102834,0.23994 0.173754,0.49171 0.210396,0.75057 0,0 0,10e-4 0,0.002 l 0.0024,0.013 c 0,0.005 0.0012,0.009 0.0012,0.0142 0,0.0532 -0.02364,0.10283 -0.06383,0.13593 -0.03192,0.0272 -0.0721,0.0414 -0.113472,0.0414 -0.02482,0 -0.04846,-0.005 -0.07092,-0.0142 -0.0591,-0.026 -0.100471,-0.0827 -0.105199,-0.14776 -0.03309,-0.22576 -0.09574,-0.44679 -0.185574,-0.65601 -0.0851,-0.19267 -0.191485,-0.37469 -0.320324,-0.54136 -0.120564,-0.15838 -0.256494,-0.30377 -0.406609,-0.43497 -0.139476,-0.12411 -0.288409,-0.2364 -0.445615,-0.33688 -0.254131,-0.16429 -0.52481,-0.3014 -0.807309,-0.41015 -0.114654,-0.0473 -0.232855,-0.0863 -0.352237,-0.1182 -0.03783,-0.009 -0.0721,-0.0319 -0.09574,-0.0626 -0.02482,-0.0319 -0.03782,-0.0697 -0.03782,-0.10875 0,-0.002 0,-0.005 0,-0.006 v -0.006 c 0.0012,-0.002 0.0012,-0.004 0.0012,-0.006 0.0035,-0.0449 0.02482,-0.0851 0.0591,-0.11584 0.02955,-0.026 0.06856,-0.0414 0.108744,-0.0437"
           inkscape:connector-curvature="0"
           style="isolation:isolate;fill:#eaf5f9;fill-opacity:1;stroke-width:0.11820038" />
        <path
           inkscape:connector-curvature="0"
           d="m 18.367101,277.24766 c 0.58852,1.47137 0.140895,6.44074 -0.294319,6.47408 -0.435214,0.0335 -0.882839,-5.00271 -0.294319,-6.47408 -0.882839,-0.58863 -0.882839,-1.17715 0.294319,-1.17715 1.177158,0 1.177158,0.58852 0.294319,1.17715 z"
           id="path3726"
           style="opacity:0.25;isolation:isolate;fill:#000000;fill-opacity:1;fill-rule:evenodd;stroke-width:0.11820038" />
        <path
           style="isolation:isolate;fill:#eaf5f9;fill-opacity:1;fill-rule:evenodd;stroke-width:0.11820038"
           id="path3615"
           d="m 18.367101,276.71849 c 0.58852,1.47137 0.140895,6.44074 -0.294319,6.47408 -0.435214,0.0335 -0.882839,-5.00271 -0.294319,-6.47408 -0.882839,-0.58863 -0.882839,-1.17715 0.294319,-1.17715 1.177158,0 1.177158,0.58852 0.294319,1.17715 z"
           inkscape:connector-curvature="0" />
      </g>
    </g>
  </g>
</svg>
