<?xml version="1.0" encoding="UTF-8" standalone="no"?>
<svg
   xmlns:dc="http://purl.org/dc/elements/1.1/"
   xmlns:cc="http://creativecommons.org/ns#"
   xmlns:rdf="http://www.w3.org/1999/02/22-rdf-syntax-ns#"
   xmlns:svg="http://www.w3.org/2000/svg"
   xmlns="http://www.w3.org/2000/svg"
   xmlns:sodipodi="http://sodipodi.sourceforge.net/DTD/sodipodi-0.dtd"
   xmlns:inkscape="http://www.inkscape.org/namespaces/inkscape"
   width="128"
   height="128"
   viewBox="0 0 128 128"
   version="1.1"
   id="svg129"
   sodipodi:docname="resharper.svg"
   inkscape:version="0.92.3 (2405546, 2018-03-11)">
  <metadata
     id="metadata133">
    <rdf:RDF>
      <cc:Work
         rdf:about="">
        <dc:format>image/svg+xml</dc:format>
        <dc:type
           rdf:resource="http://purl.org/dc/dcmitype/StillImage" />
        <dc:title />
      </cc:Work>
    </rdf:RDF>
  </metadata>
  <sodipodi:namedview
     pagecolor="#ffffff"
     bordercolor="#666666"
     borderopacity="1"
     objecttolerance="10"
     gridtolerance="10"
     guidetolerance="10"
     inkscape:pageopacity="0"
     inkscape:pageshadow="2"
     inkscape:window-width="1600"
     inkscape:window-height="837"
     id="namedview131"
     showgrid="false"
     inkscape:zoom="3.6875"
     inkscape:cx="68.697391"
     inkscape:cy="77.056923"
     inkscape:window-x="0"
     inkscape:window-y="30"
     inkscape:window-maximized="1"
     inkscape:current-layer="svg129" />
  <defs
     id="defs70">
    <linearGradient
       y2="2.7918"
       x2="32.125099"
       y1="32.0746"
       x1="25.9534"
       gradientUnits="userSpaceOnUse"
       id="SVGID_1_">
      <stop
         id="stop4-7"
         style="stop-color:#ec437c;stop-opacity:1"
         offset="0" />
      <stop
         id="stop6"
         style="stop-color:#ffb548;stop-opacity:1"
         offset="1" />
    </linearGradient>
    <linearGradient
       id="SVGID_2_"
       gradientUnits="userSpaceOnUse"
       x1="10.7174"
       y1="8.7054996"
       x2="22.285601"
       y2="42.8722">
      <stop
         offset="0.10025136"
         style="stop-color:#f05e8f;stop-opacity:1"
         id="stop11-9" />
      <stop
         offset="0.5567"
         style="stop-color:#ff0066;stop-opacity:1"
         id="stop13" />
      <stop
         offset="1"
         style="stop-color:#ee5552;stop-opacity:1"
         id="stop15" />
    </linearGradient>
  </defs>
  <g
     id="g849"
     transform="matrix(0.99782665,0,0,0.99782665,0.00957804,0.26949579)">
    <path
       inkscape:connector-curvature="0"
       id="polygon4635"
       d="M 42.40942,6.508109 39.85849,16.308237 4.78597,25.82761 4.86717,94.04466 29.25343,123.99998 98.04076,113.38171 88.59597,94.577657 111.42711,94.222326 123.20127,29.126489 104.96312,7.892147 67.33966,17.354491 Z"
       style="opacity:0.25;fill:#000000;stroke:none;stroke-width:0.42444953;stroke-miterlimit:4;stroke-dasharray:none;stroke-opacity:1" />
    <polygon
       transform="matrix(2.8359159,0,0,2.8359159,-6.5243,-4.694327)"
       id="polygon9"
       points="17.255,3.158 10.581,28.797 25.883,34.332 41.592,34.088 45.744,11.134 39.313,3.646 26.046,6.983 "
       style="fill:url(#SVGID_1_);stroke:#333333;stroke-width:0.26654723;stroke-miterlimit:4;stroke-dasharray:none;stroke-opacity:1" />
    <polygon
       transform="matrix(2.8359159,0,0,2.8359159,-6.5243,-4.694327)"
       style="fill:url(#SVGID_2_);stroke:#333333;stroke-width:0.26654723;stroke-miterlimit:4;stroke-dasharray:none;stroke-opacity:1"
       points="4.017,34.025 3.988,9.971 19.278,5.82 36.872,40.844 12.616,44.588 "
       id="polygon18" />
    <path
       inkscape:connector-curvature="0"
       id="path4642"
       d="M 98.40459,105.31652 H 24.67078 c -1.56542,0 -2.83591,-1.27049 -2.83591,-2.83592 V 28.746793 c 0,-1.565424 1.27049,-2.835915 2.83591,-2.835915 h 73.73381 c 1.56543,0 2.83592,1.270491 2.83592,2.835915 V 102.4806 c 0,1.56543 -1.27049,2.83592 -2.83592,2.83592 z"
       style="opacity:0.25;fill:#000000;stroke-width:2.83591604" />
    <path
       style="stroke-width:2.83591604"
       d="M 98.40459,103.07047 H 24.67078 c -1.56542,0 -2.83591,-1.27049 -2.83591,-2.83591 V 26.500748 c 0,-1.565425 1.27049,-2.835915 2.83591,-2.835915 h 73.73381 c 1.56543,0 2.83592,1.27049 2.83592,2.835915 v 73.733812 c 0,1.56542 -1.27049,2.83591 -2.83592,2.83591 z"
       id="path20"
       inkscape:connector-curvature="0" />
    <rect
       x="30.285891"
       y="83.219063"
       style="fill:#ffffff;stroke-width:2.83591604"
       width="25.523243"
       height="5.6718321"
       id="rect22" />
    <path
       inkscape:connector-curvature="0"
       id="path24"
       d="M 30.28589,66.09297 V 37.765006 h 14.34406 c 2.58068,0 4.62254,0.61823 6.12274,1.851853 1.86887,1.522887 2.80472,4.293577 2.80472,6.865752 0,4.962853 -3.71788,8.507748 -11.33799,8.507748 H 36.09384 V 66.09297 Z m 5.80795,-15.881129 h 6.95367 c 1.58244,0 2.73949,-0.294935 3.47967,-0.884806 0.73734,-0.58987 1.10601,-1.579605 1.10601,-2.969204 0,-0.969883 -0.2524,-1.766776 -0.75152,-2.396349 -0.71182,-0.864954 -1.84335,-1.298849 -3.39743,-1.298849 h -7.38756 v 7.549208 z"
       style="fill:#ffffff;stroke-width:2.8359158" />
    <polygon
       transform="matrix(2.8359159,0,0,2.8359159,-6.5243,-4.694327)"
       style="fill:#ffffff"
       points="21.5,25 19.266,25 16.266,20 18.5,20 "
       id="polygon34" />
    <g
       transform="translate(-137.49153,51.525423)"
       id="text2598"
       style="font-style:normal;font-weight:normal;font-size:53.07560349px;line-height:1.25;font-family:sans-serif;letter-spacing:0px;word-spacing:0px;fill:#ffffff;fill-opacity:1;stroke:none;stroke-width:1.32689011"
       aria-label="#">
      <path
         id="path2602"
         style="font-style:normal;font-variant:normal;font-weight:normal;font-stretch:normal;font-family:'Arial Hebrew';-inkscape-font-specification:'Arial Hebrew';fill:#ffffff;stroke-width:1.32689011"
         d="m 199.94516,14.550465 1.4772,-7.2305147 h -3.39497 V 3.7694827 h 4.04287 l 1.26987,-5.9347233 h -5.31274 v -3.5504676 h 5.98655 l 1.55495,-7.2305148 h 3.6023 l -1.4772,7.2305148 h 5.77923 l 1.42537,-7.2305148 h 3.68005 l -1.50312,7.2305148 h 3.73188 v 3.5504676 h -4.45753 l -1.11438,5.9347233 h 5.57191 v 3.5504676 h -6.32346 l -1.47721,7.2305147 h -3.68004 l 1.50311,-7.2305147 h -5.80514 l -1.42537,7.2305147 z m 5.83106,-10.7809823 h 5.7274 l 1.21804,-5.9347233 h -5.77923 z"
         inkscape:connector-curvature="0" />
    </g>
  </g>
</svg>
