<?xml version="1.0" encoding="UTF-8" standalone="no"?>
<svg
   xmlns:dc="http://purl.org/dc/elements/1.1/"
   xmlns:cc="http://creativecommons.org/ns#"
   xmlns:rdf="http://www.w3.org/1999/02/22-rdf-syntax-ns#"
   xmlns:svg="http://www.w3.org/2000/svg"
   xmlns="http://www.w3.org/2000/svg"
   xmlns:xlink="http://www.w3.org/1999/xlink"
   xmlns:sodipodi="http://sodipodi.sourceforge.net/DTD/sodipodi-0.dtd"
   xmlns:inkscape="http://www.inkscape.org/namespaces/inkscape"
   height="128"
   viewBox="0 0 95.999997 95.999997"
   width="128"
   version="1.1"
   id="svg48"
   sodipodi:docname="rygel.svg"
   inkscape:version="0.92.3 (2405546, 2018-03-11)">
  <metadata
     id="metadata54">
    <rdf:RDF>
      <cc:Work
         rdf:about="">
        <dc:format>image/svg+xml</dc:format>
        <dc:type
           rdf:resource="http://purl.org/dc/dcmitype/StillImage" />
        <dc:title></dc:title>
      </cc:Work>
    </rdf:RDF>
  </metadata>
  <defs
     id="defs52">
    <linearGradient
       inkscape:collect="always"
       id="linearGradient933">
      <stop
         style="stop-color:#f15753;stop-opacity:1"
         offset="0"
         id="stop929" />
      <stop
         style="stop-color:#d93382;stop-opacity:1"
         offset="1"
         id="stop931" />
    </linearGradient>
    <linearGradient
       inkscape:collect="always"
       xlink:href="#linearGradient933"
       id="linearGradient935"
       x1="130.17921"
       y1="39.336277"
       x2="99.566063"
       y2="84.624413"
       gradientUnits="userSpaceOnUse"
       gradientTransform="matrix(1.7846725,0,0,1.7846725,-81.961932,-23.028042)" />
  </defs>
  <sodipodi:namedview
     pagecolor="#ffffff"
     bordercolor="#666666"
     borderopacity="1"
     objecttolerance="10"
     gridtolerance="10"
     guidetolerance="10"
     inkscape:pageopacity="0"
     inkscape:pageshadow="2"
     inkscape:window-width="1600"
     inkscape:window-height="837"
     id="namedview50"
     showgrid="false"
     units="px"
     inkscape:zoom="0.9777961"
     inkscape:cx="85.661497"
     inkscape:cy="-92.061759"
     inkscape:window-x="0"
     inkscape:window-y="30"
     inkscape:window-maximized="1"
     inkscape:current-layer="svg48" />
  <linearGradient
     id="a"
     gradientUnits="userSpaceOnUse"
     x1="31.752541"
     x2="31.752541"
     y1="56.067837"
     y2="58.713921"
     gradientTransform="translate(0,31.999995)">
    <stop
       offset="0"
       stop-opacity=".275"
       id="stop2" />
    <stop
       offset="1"
       stop-opacity="0"
       id="stop4" />
  </linearGradient>
  <linearGradient
     id="b">
    <stop
       offset="0"
       stop-opacity=".314"
       id="stop7" />
    <stop
       offset=".222"
       stop-opacity=".275"
       id="stop9" />
    <stop
       offset="1"
       stop-opacity="0"
       id="stop11" />
  </linearGradient>
  <radialGradient
     id="c"
     cx="450.909"
     cy="189.57899"
     gradientTransform="matrix(0,-0.15626,-0.28128,0,100.292,159.19)"
     gradientUnits="userSpaceOnUse"
     r="21.167"
     xlink:href="#b" />
  <radialGradient
     id="d"
     cx="450.909"
     cy="189.57899"
     gradientTransform="matrix(0,0.15626,0.28128,0,-36.786,16.944995)"
     gradientUnits="userSpaceOnUse"
     r="21.167"
     xlink:href="#b" />
  <radialGradient
     id="e"
     cx="450.909"
     cy="189.57899"
     gradientTransform="matrix(0,-0.15626,0.28128,0,-36.786,159.19)"
     gradientUnits="userSpaceOnUse"
     r="21.167"
     xlink:href="#b" />
  <radialGradient
     id="f"
     cx="450.909"
     cy="189.57899"
     gradientTransform="matrix(0,0.15626,-0.28128,0,100.292,16.944995)"
     gradientUnits="userSpaceOnUse"
     r="21.167"
     xlink:href="#b" />
  <linearGradient
     id="g"
     gradientTransform="matrix(0.1507,0,0,0.43482,72.902167,98.198249)"
     gradientUnits="userSpaceOnUse"
     x1="288.396"
     x2="288.396"
     y1="-25.792"
     y2="-141.41499">
    <stop
       offset="0"
       stop-color="#ef5350"
       id="stop18" />
    <stop
       offset="1"
       stop-color="#e57373"
       id="stop20" />
  </linearGradient>
  <linearGradient
     id="h"
     gradientUnits="userSpaceOnUse"
     x1="1040.002"
     x2="1040.002"
     y1="1695.1183"
     y2="175.11601"
     gradientTransform="matrix(0.03308,0,0,0.03308,84.610167,30.915249)">
    <stop
       offset="0"
       stop-color="#eee"
       id="stop23" />
    <stop
       offset="1"
       stop-color="#e0e0e0"
       id="stop25" />
  </linearGradient>
  <g
     id="g948"
     transform="translate(-77.715496,-39.95285)">
    <path
       d="m 92.650723,43.984161 h 66.116767 a 4.7186741,4.7186741 0 0 1 4.72046,4.718674 v 80.283495 a 4.7186741,4.7186741 0 0 1 -4.72046,4.71867 H 92.650723 a 4.7186741,4.7186741 0 0 1 -4.718674,-4.71867 V 48.704619 a 4.7186741,4.7186741 0 0 1 4.718674,-4.720458 z m 0,0"
       id="path943"
       inkscape:connector-curvature="0"
       style="opacity:0.25;fill:#000000;fill-opacity:1;stroke:none;stroke-width:0.5669291;stroke-miterlimit:4;stroke-dasharray:none;stroke-opacity:1" />
    <path
       style="fill:url(#linearGradient935);fill-opacity:1;stroke:#802441;stroke-width:0.5669291;stroke-miterlimit:4;stroke-dasharray:none;stroke-opacity:1"
       inkscape:connector-curvature="0"
       id="path38"
       d="m 92.650723,42.484161 h 66.116767 a 4.7186741,4.7186741 0 0 1 4.72046,4.718674 v 80.283495 a 4.7186741,4.7186741 0 0 1 -4.72046,4.71867 H 92.650723 a 4.7186741,4.7186741 0 0 1 -4.718674,-4.71867 V 47.204619 a 4.7186741,4.7186741 0 0 1 4.718674,-4.720458 z m 0,0" />
    <path
       style="fill:#ffffff;fill-opacity:1;stroke:#802441;stroke-width:0.5669291;stroke-linecap:round;stroke-miterlimit:4;stroke-dasharray:none;stroke-opacity:1"
       inkscape:connector-curvature="0"
       id="path40"
       d="m 102.93835,42.485287 c 1.72212,4.483149 2.21023,9.942415 -0.56474,14.007228 -4.657427,6.072779 -2.17534,15.917548 4.91541,18.894664 6.58871,3.269939 15.26914,-0.913362 16.98429,-8.025012 2.05685,-6.261049 -2.09168,-13.609793 -8.07383,-15.457415 -4.12752,-1.464116 -7.0489,-5.298862 -8.12957,-9.419405 z m 34.16381,23.384838 c -7.34172,-0.104617 -13.66553,7.237106 -12.15252,14.502194 1.0946,7.634543 10.13057,12.466246 17.13766,9.363618 4.39943,-1.485076 6.63754,-5.835687 8.15053,-9.677341 2.34258,-4.043914 7.36959,-6.142559 12.0828,-5.696358 0.50199,0.146414 0.8855,0.111577 1.17831,-0.04876 v -5.591744 c -2.25898,-0.613573 -6.89551,0.850603 -8.88954,1.129494 -4.525,1.185287 -8.84079,-0.829705 -12.50816,-3.032905 -1.46413,-0.613572 -3.06775,-0.927294 -4.65047,-0.941227 -0.11154,-0.007 -0.23006,-0.007 -0.34861,-0.007 z m -35.78137,14.167514 c -5.556843,-0.06275 -10.632546,4.266956 -12.027,9.321819 -0.72515,0.850604 -1.143486,1.743067 -1.35962,2.698225 v 8.499137 c 4.950249,-0.11855 8.185357,4.32977 13.1496,4.25302 7.62757,0.59268 14.41848,-6.979168 12.87768,-14.488258 -0.95523,-5.86355 -6.47022,-10.353667 -12.37569,-10.283943 z m 24.8211,10.716271 c -7.5091,0.05579 -13.54008,7.976191 -11.71336,15.26218 0.80186,4.6086 4.79688,8.33177 8.92446,9.59374 4.66438,1.91038 6.95129,6.6027 8.12955,11.18337 0.52993,1.17136 0.55778,3.57676 0.98309,5.42438 h 5.1037 c -0.0489,-1.75694 -0.71117,-4.01599 -0.97613,-5.27094 -1.30383,-4.41343 -3.14448,-9.05686 -1.28983,-13.64462 1.89637,-3.74413 4.5737,-7.76006 3.39544,-12.34776 -0.97611,-5.6963 -6.21221,-10.207315 -12.01313,-10.193382 -0.18125,-0.007 -0.36248,-0.01392 -0.54379,-0.007 z m 0,0" />
  </g>
</svg>
