<?xml version="1.0" encoding="UTF-8" standalone="no"?>
<!-- Created with Inkscape (http://www.inkscape.org/) -->

<svg
   xmlns:dc="http://purl.org/dc/elements/1.1/"
   xmlns:cc="http://creativecommons.org/ns#"
   xmlns:rdf="http://www.w3.org/1999/02/22-rdf-syntax-ns#"
   xmlns:svg="http://www.w3.org/2000/svg"
   xmlns="http://www.w3.org/2000/svg"
   xmlns:xlink="http://www.w3.org/1999/xlink"
   xmlns:sodipodi="http://sodipodi.sourceforge.net/DTD/sodipodi-0.dtd"
   xmlns:inkscape="http://www.inkscape.org/namespaces/inkscape"
   width="128"
   height="128"
   viewBox="0 0 33.866666 33.866668"
   version="1.1"
   id="svg8"
   inkscape:version="0.92.3 (2405546, 2018-03-11)"
   sodipodi:docname="slingscold.svg">
  <defs
     id="defs2">
    <linearGradient
       inkscape:collect="always"
       id="linearGradient1056">
      <stop
         style="stop-color:#edfaff;stop-opacity:1"
         offset="0"
         id="stop1052" />
      <stop
         style="stop-color:#9b9b9a;stop-opacity:1"
         offset="1"
         id="stop1054" />
    </linearGradient>
    <linearGradient
       inkscape:collect="always"
       id="linearGradient1048">
      <stop
         style="stop-color:#cce1e7;stop-opacity:1"
         offset="0"
         id="stop1044" />
      <stop
         style="stop-color:#818383;stop-opacity:1"
         offset="1"
         id="stop1046" />
    </linearGradient>
    <linearGradient
       inkscape:collect="always"
       xlink:href="#linearGradient1048"
       id="linearGradient1050"
       x1="65.132858"
       y1="62.269798"
       x2="89.757072"
       y2="128.55264"
       gradientUnits="userSpaceOnUse"
       gradientTransform="matrix(0.39000399,0,0,0.39000399,-11.342142,241.58862)" />
    <linearGradient
       inkscape:collect="always"
       xlink:href="#linearGradient1056"
       id="linearGradient1058"
       x1="64.038284"
       y1="60.131641"
       x2="93.791611"
       y2="131.4926"
       gradientUnits="userSpaceOnUse"
       gradientTransform="matrix(0.39000399,0,0,0.39000399,-11.342142,241.58862)" />
  </defs>
  <sodipodi:namedview
     id="base"
     pagecolor="#ffffff"
     bordercolor="#666666"
     borderopacity="1.0"
     inkscape:pageopacity="0.0"
     inkscape:pageshadow="2"
     inkscape:zoom="1.6517573"
     inkscape:cx="74.570257"
     inkscape:cy="3.068966"
     inkscape:document-units="mm"
     inkscape:current-layer="layer1"
     showgrid="false"
     inkscape:window-width="1600"
     inkscape:window-height="837"
     inkscape:window-x="0"
     inkscape:window-y="30"
     inkscape:window-maximized="1"
     units="px" />
  <metadata
     id="metadata5">
    <rdf:RDF>
      <cc:Work
         rdf:about="">
        <dc:format>image/svg+xml</dc:format>
        <dc:type
           rdf:resource="http://purl.org/dc/dcmitype/StillImage" />
        <dc:title />
      </cc:Work>
    </rdf:RDF>
  </metadata>
  <g
     inkscape:label="Layer 1"
     inkscape:groupmode="layer"
     id="layer1"
     transform="translate(0,-263.13332)">
    <g
       id="g836"
       transform="matrix(0.99842537,0,0,0.99842537,0.02666462,0.46600149)">
      <circle
         r="15.600159"
         cy="280.34149"
         cx="16.933332"
         id="circle824"
         style="opacity:0.25;fill:#000000;fill-opacity:1;stroke:none;stroke-width:0.18887821;stroke-linecap:round;stroke-miterlimit:4;stroke-dasharray:0.04721955, 0.04721955;stroke-dashoffset:0;stroke-opacity:1" />
      <circle
         style="opacity:1;fill:url(#linearGradient1058);fill-opacity:1;stroke:#666666;stroke-width:0.2;stroke-linecap:round;stroke-miterlimit:4;stroke-dasharray:none;stroke-dashoffset:0;stroke-opacity:1"
         id="circle1042"
         cx="16.933332"
         cy="279.84174"
         r="15.600159" />
      <circle
         r="14.235145"
         cy="279.84174"
         cx="16.933332"
         id="path1040"
         style="opacity:1;fill:url(#linearGradient1050);fill-opacity:1;stroke:#666666;stroke-width:0.1;stroke-linecap:round;stroke-miterlimit:4;stroke-dasharray:none;stroke-dashoffset:0;stroke-opacity:1" />
      <path
         style="opacity:0.25;fill:#000000;fill-opacity:1;stroke-width:0.94439107"
         d="m 25.891872,270.90468 c -0.0979,-0.002 -0.241397,0.007 -0.45568,0.0208 -1.800477,0.12122 -3.918538,0.73842 -5.74208,1.67339 -1.964678,1.00733 -3.841985,2.52228 -5.320458,4.29341 l -0.606435,0.72656 -0.788222,0.0823 c -2.269653,0.23659 -4.5294579,1.30919 -6.3797526,3.02814 -0.4866552,0.45212 -0.5478935,0.53524 -0.5090921,0.6925 0.024259,0.0983 0.071866,0.20692 0.1056053,0.24144 0.036816,0.0377 0.3715958,-0.0172 0.8378031,-0.13745 0.725866,-0.18729 0.8616884,-0.20049 2.083523,-0.19932 1.1563183,7.8e-4 1.3714183,0.0193 1.8656563,0.15983 l 0.55867,0.15881 -0.229554,0.70841 c -0.42738,1.31798 -0.41188,1.49104 0.165667,1.84752 0.5339,0.32954 1.224067,1.02196 1.624411,1.62965 l 0.32448,0.49257 0.26563,-0.0449 c 0.14608,-0.0247 0.615169,-0.14986 1.042568,-0.27832 0.427398,-0.12847 0.802629,-0.20812 0.833772,-0.17695 0.09627,0.0962 0.252197,0.76999 0.326091,1.40897 0.08696,0.75189 -0.0041,1.76091 -0.244468,2.70869 -0.186491,0.73518 -0.213237,1.11653 -0.08706,1.2427 0.136669,0.13667 0.216134,0.0985 0.581444,-0.27873 1.187109,-1.22566 2.266628,-3.02382 2.770773,-4.61507 0.189557,-0.59831 0.333999,-1.35754 0.456287,-2.40034 0.03657,-0.31193 0.06732,-0.35083 0.740861,-0.93717 3.011973,-2.62207 4.927941,-5.79312 5.723338,-9.47198 0.191707,-0.8867 0.352513,-2.29165 0.28296,-2.47291 -0.02683,-0.07 -0.06356,-0.0995 -0.226733,-0.10237 z m -5.631835,4.18075 a 1.8111035,1.8111035 0 0 1 1.81104,1.81104 1.8111035,1.8111035 0 0 1 -1.81104,1.81124 1.8111035,1.8111035 0 0 1 -1.769926,-1.43658 c -0.0054,-0.0205 -0.0092,-0.041 -0.01371,-0.0617 a 1.8111035,1.8111035 0 0 1 -0.0012,-0.006 c -0.0227,-0.10392 -0.03589,-0.20834 -0.03526,-0.31098 4.68e-4,-0.0787 0.01157,-0.17324 0.03245,-0.27369 a 1.8111035,1.8111035 0 0 1 1.787659,-1.53392 z m -9.729552,9.51734 c -0.08567,0.011 -0.197871,0.0667 -0.365796,0.1713 -0.7460083,0.46478 -1.4376948,1.22492 -1.8380455,2.01964 -0.3970132,0.78809 -0.6486601,2.07556 -0.483495,2.4743 0.082246,0.19858 0.1066395,0.2092 0.4800687,0.2092 1.0995698,0 2.5050168,-0.66914 3.3278308,-1.58431 0.836678,-0.93058 1.009934,-1.89805 0.272482,-1.52182 -0.316785,0.16161 -0.899959,0.33034 -1.327344,0.38394 -0.136976,0.0168 -0.326286,-0.009 -0.247692,-0.35633 0.02362,-0.14189 0.141101,-0.55766 0.260994,-0.92387 0.182379,-0.55703 0.203243,-0.68346 0.128179,-0.7739 -0.0624,-0.0752 -0.12152,-0.1091 -0.207182,-0.0981 z"
         id="path1060"
         inkscape:connector-curvature="0" />
      <path
         inkscape:connector-curvature="0"
         id="path1035"
         d="m 25.891872,270.49193 c -0.0979,-0.002 -0.241397,0.007 -0.45568,0.0208 -1.800477,0.12121 -3.918538,0.73841 -5.74208,1.67339 -1.964678,1.00733 -3.841985,2.52227 -5.320458,4.29341 l -0.606435,0.72655 -0.788222,0.0823 c -2.269653,0.23658 -4.5294579,1.30918 -6.3797526,3.02813 -0.4866552,0.45212 -0.5478935,0.53525 -0.5090921,0.69251 0.024259,0.0983 0.071866,0.20692 0.1056053,0.24144 0.036816,0.0376 0.3715958,-0.0172 0.8378031,-0.13746 0.725866,-0.18729 0.8616884,-0.20048 2.083523,-0.19932 1.1563183,7.8e-4 1.3714183,0.0193 1.8656563,0.15983 l 0.55867,0.15881 -0.229554,0.70841 c -0.42738,1.31799 -0.41188,1.49104 0.165667,1.84752 0.5339,0.32955 1.224067,1.02197 1.624411,1.62965 l 0.32448,0.49257 0.26563,-0.0449 c 0.14608,-0.0247 0.615169,-0.14987 1.042568,-0.27832 0.427398,-0.12848 0.802629,-0.20813 0.833772,-0.17696 0.09627,0.0962 0.252197,0.76999 0.326091,1.40897 0.08696,0.75189 -0.0041,1.76091 -0.244468,2.70869 -0.186491,0.73518 -0.213237,1.11653 -0.08706,1.2427 0.136669,0.13667 0.216134,0.0985 0.581444,-0.27873 1.187109,-1.22566 2.266628,-3.02381 2.770773,-4.61507 0.189557,-0.59831 0.333999,-1.35754 0.456287,-2.40034 0.03657,-0.31192 0.06732,-0.35082 0.740861,-0.93716 3.011973,-2.62207 4.927941,-5.79313 5.723338,-9.47199 0.191707,-0.88669 0.352513,-2.29165 0.28296,-2.4729 -0.02683,-0.07 -0.06356,-0.0995 -0.226733,-0.10238 z m -5.631835,4.18075 a 1.8111035,1.8111035 0 0 1 1.81104,1.81104 1.8111035,1.8111035 0 0 1 -1.81104,1.81123 1.8111035,1.8111035 0 0 1 -1.769926,-1.43657 c -0.0054,-0.0205 -0.0092,-0.0411 -0.01371,-0.0617 a 1.8111035,1.8111035 0 0 1 -0.0012,-0.006 c -0.0227,-0.10393 -0.03589,-0.20834 -0.03526,-0.31098 4.68e-4,-0.0787 0.01157,-0.17324 0.03245,-0.2737 a 1.8111035,1.8111035 0 0 1 1.787659,-1.53391 z m -9.729552,9.51733 c -0.08567,0.011 -0.197871,0.0667 -0.365796,0.17131 -0.7460083,0.46477 -1.4376948,1.22491 -1.8380455,2.01964 -0.3970132,0.78809 -0.6486601,2.07556 -0.483495,2.4743 0.082246,0.19858 0.1066395,0.2092 0.4800687,0.2092 1.0995698,0 2.5050168,-0.66914 3.3278308,-1.58431 0.836678,-0.93059 1.009934,-1.89805 0.272482,-1.52182 -0.316785,0.1616 -0.899959,0.33033 -1.327344,0.38392 -0.136976,0.0168 -0.326286,-0.009 -0.247692,-0.35632 0.02362,-0.14189 0.141101,-0.55766 0.260994,-0.92386 0.182379,-0.55704 0.203243,-0.68346 0.128179,-0.77391 -0.0624,-0.0752 -0.12152,-0.1091 -0.207182,-0.0981 z"
         style="fill:#44484a;fill-opacity:1;stroke-width:0.94439107" />
    </g>
  </g>
</svg>
