<?xml version="1.0" encoding="UTF-8" standalone="no"?>
<!-- Created with Inkscape (http://www.inkscape.org/) -->

<svg
   xmlns:dc="http://purl.org/dc/elements/1.1/"
   xmlns:cc="http://creativecommons.org/ns#"
   xmlns:rdf="http://www.w3.org/1999/02/22-rdf-syntax-ns#"
   xmlns:svg="http://www.w3.org/2000/svg"
   xmlns="http://www.w3.org/2000/svg"
   xmlns:sodipodi="http://sodipodi.sourceforge.net/DTD/sodipodi-0.dtd"
   xmlns:inkscape="http://www.inkscape.org/namespaces/inkscape"
   width="128"
   height="128"
   viewBox="0 0 33.866666 33.866668"
   version="1.1"
   id="svg8"
   inkscape:version="0.92.4 (5da689c313, 2019-01-14)"
   sodipodi:docname="spotify-client.svg">
  <defs
     id="defs2" />
  <sodipodi:namedview
     id="base"
     pagecolor="#ffffff"
     bordercolor="#666666"
     borderopacity="1.0"
     inkscape:pageopacity="0.0"
     inkscape:pageshadow="2"
     inkscape:zoom="1.979899"
     inkscape:cx="-7.9834936"
     inkscape:cy="16.61705"
     inkscape:document-units="mm"
     inkscape:current-layer="layer1"
     showgrid="false"
     units="px"
     inkscape:window-width="1600"
     inkscape:window-height="838"
     inkscape:window-x="-8"
     inkscape:window-y="-8"
     inkscape:window-maximized="1" />
  <metadata
     id="metadata5">
    <rdf:RDF>
      <cc:Work
         rdf:about="">
        <dc:format>image/svg+xml</dc:format>
        <dc:type
           rdf:resource="http://purl.org/dc/dcmitype/StillImage" />
        <dc:title />
      </cc:Work>
    </rdf:RDF>
  </metadata>
  <g
     inkscape:label="Layer 1"
     inkscape:groupmode="layer"
     id="layer1"
     transform="translate(0,-263.13332)">
    <g
       id="g827"
       transform="matrix(1.003111,0,0,1.003111,-0.05267679,-0.9206777)">
      <circle
         style="opacity:0.25;fill:#000000;fill-opacity:1;stroke:none;stroke-width:0.19692777;stroke-miterlimit:4;stroke-dasharray:none;stroke-dashoffset:0;stroke-opacity:1"
         id="circle1103"
         cx="16.933331"
         cy="280.3764"
         r="15.565252" />
      <circle
         r="15.565252"
         cy="279.85538"
         cx="16.933331"
         id="path1075"
         style="opacity:1;fill:#1ed760;fill-opacity:1;stroke:#0c5928;stroke-width:0.19692777;stroke-miterlimit:4;stroke-dasharray:none;stroke-dashoffset:0;stroke-opacity:1" />
      <path
         style="fill:#191515;fill-opacity:1;stroke-width:0.06741948"
         d="m 22.140751,286.68971 c -2.376593,-1.31843 -4.517779,-1.89094 -7.354415,-1.96641 -1.848522,-0.0491 -3.621266,0.12097 -5.4554999,0.52361 -0.8421025,0.18484 -1.2564976,0.0217 -1.4120705,-0.55611 -0.057306,-0.21292 -0.046475,-0.31004 0.062229,-0.55582 0.1636273,-0.36991 0.3160789,-0.44912 1.2222716,-0.63506 3.9771138,-0.81606 7.6780068,-0.70346 10.7871118,0.32818 1.093008,0.36268 2.682599,1.10799 3.29853,1.54656 0.453003,0.32257 0.423021,1.07887 -0.05553,1.40034 -0.319575,0.21468 -0.590015,0.19357 -1.092683,-0.0853 z m 1.321769,-4.15561 c -1.881546,-1.08182 -4.526266,-1.89263 -7.092984,-2.17454 -1.245853,-0.13684 -3.420842,-0.13667 -4.604299,3.4e-4 -0.916433,0.10609 -2.1983633,0.35046 -2.8066338,0.53499 -0.4875439,0.14791 -0.9067046,0.12981 -1.1717989,-0.0506 -0.3828276,-0.26055 -0.5049622,-0.48477 -0.5049622,-0.92702 0,-0.72808 0.3052085,-0.96217 1.6965622,-1.30122 1.6144727,-0.39342 2.6646297,-0.52439 4.5397457,-0.56615 2.89797,-0.0646 5.097436,0.2485 7.652111,1.08915 1.747301,0.57497 3.670783,1.50358 4.080087,1.96973 0.457011,0.52051 0.28721,1.35035 -0.342989,1.67624 -0.385318,0.19926 -0.781586,0.13044 -1.444839,-0.25091 z m 1.31468,-4.89265 c -2.108082,-1.05849 -4.290022,-1.65921 -7.31756,-2.01461 -1.42107,-0.16682 -4.665839,-0.1671 -6.031494,-5.1e-4 -1.172577,0.14303 -2.1674457,0.32642 -3.0338787,0.55925 -0.8222029,0.22094 -1.2434511,0.19805 -1.6018793,-0.087 -0.4880264,-0.38818 -0.6808777,-1.05616 -0.4585365,-1.58829 0.2486115,-0.595 0.7685697,-0.83519 2.5943855,-1.19848 5.690159,-1.13216 12.429864,-0.38125 17.028806,1.89729 0.444968,0.22046 0.930386,0.48395 1.078712,0.58553 0.774349,0.53033 0.787415,1.71044 0.02452,2.21529 -0.209649,0.13875 -0.375846,0.18775 -0.68972,0.20338 -0.4019,0.02 -0.446652,0.004 -1.593352,-0.57182 z"
         id="path1079"
         inkscape:connector-curvature="0" />
    </g>
  </g>
</svg>
