<?xml version="1.0" encoding="UTF-8" standalone="no"?>
<!-- Created with Inkscape (http://www.inkscape.org/) -->

<svg
   xmlns:dc="http://purl.org/dc/elements/1.1/"
   xmlns:cc="http://creativecommons.org/ns#"
   xmlns:rdf="http://www.w3.org/1999/02/22-rdf-syntax-ns#"
   xmlns:svg="http://www.w3.org/2000/svg"
   xmlns="http://www.w3.org/2000/svg"
   xmlns:xlink="http://www.w3.org/1999/xlink"
   xmlns:sodipodi="http://sodipodi.sourceforge.net/DTD/sodipodi-0.dtd"
   xmlns:inkscape="http://www.inkscape.org/namespaces/inkscape"
   width="128"
   height="128"
   viewBox="0 0 33.866666 33.866668"
   version="1.1"
   id="svg8"
   inkscape:version="0.92.2 5c3e80d, 2017-08-06"
   sodipodi:docname="gcstar 2.svg">
  <defs
     id="defs2">
    <linearGradient
       inkscape:collect="always"
       id="linearGradient1475">
      <stop
         style="stop-color:#00c287;stop-opacity:1"
         offset="0"
         id="stop1471" />
      <stop
         style="stop-color:#8ef458;stop-opacity:1"
         offset="1"
         id="stop1473" />
    </linearGradient>
    <linearGradient
       inkscape:collect="always"
       id="linearGradient1296">
      <stop
         style="stop-color:#0f4e3f;stop-opacity:1"
         offset="0"
         id="stop1292" />
      <stop
         style="stop-color:#303c41;stop-opacity:1"
         offset="1"
         id="stop1294" />
    </linearGradient>
    <linearGradient
       inkscape:collect="always"
       xlink:href="#linearGradient1296"
       id="linearGradient1298"
       x1="58.785938"
       y1="293.08301"
       x2="58.28083"
       y2="268.43655"
       gradientUnits="userSpaceOnUse"
       gradientTransform="matrix(1.1482356,0,0,1.1482356,-49.98555,-41.481159)" />
    <linearGradient
       inkscape:collect="always"
       xlink:href="#linearGradient1475"
       id="linearGradient1477"
       x1="11.090308"
       y1="288.10312"
       x2="24.050911"
       y2="271.50381"
       gradientUnits="userSpaceOnUse"
       gradientTransform="translate(0.3321652,-0.18545102)" />
  </defs>
  <sodipodi:namedview
     id="base"
     pagecolor="#ffffff"
     bordercolor="#666666"
     borderopacity="1.0"
     inkscape:pageopacity="0.0"
     inkscape:pageshadow="2"
     inkscape:zoom="1.979899"
     inkscape:cx="67.820521"
     inkscape:cy="67.664278"
     inkscape:document-units="mm"
     inkscape:current-layer="layer1"
     showgrid="false"
     units="px"
     inkscape:window-width="1600"
     inkscape:window-height="803"
     inkscape:window-x="0"
     inkscape:window-y="0"
     inkscape:window-maximized="1" />
  <metadata
     id="metadata5">
    <rdf:RDF>
      <cc:Work
         rdf:about="">
        <dc:format>image/svg+xml</dc:format>
        <dc:type
           rdf:resource="http://purl.org/dc/dcmitype/StillImage" />
        <dc:title />
      </cc:Work>
    </rdf:RDF>
  </metadata>
  <g
     inkscape:label="Layer 1"
     inkscape:groupmode="layer"
     id="layer1"
     transform="translate(0,-263.13332)">
    <g
       id="g1524"
       transform="matrix(1.0030984,0,0,1.0030984,-0.05246661,-0.91694211)">
      <path
         id="path1318"
         d="m 16.934533,264.80874 c 8.597263,0 15.566536,6.96919 15.566536,15.56644 0,8.59729 -6.969273,15.56647 -15.566536,15.56647 -8.5972638,0 -15.5689346,-6.96918 -15.5689346,-15.56647 0,-8.59725 6.9716708,-15.56653 15.5689346,-15.56653 z m 0,0"
         inkscape:connector-curvature="0"
         style="opacity:0.25;fill:#000000;fill-opacity:1;stroke:none;stroke-width:0.23224968;stroke-linecap:round" />
      <path
         style="fill:url(#linearGradient1298);fill-opacity:1;stroke:none;stroke-width:0.19612895;stroke-linecap:round;stroke-miterlimit:4;stroke-dasharray:none;stroke-opacity:1"
         inkscape:connector-curvature="0"
         d="m 16.934533,264.28982 c 8.597263,0 15.566536,6.96918 15.566536,15.56644 0,8.59728 -6.969273,15.56647 -15.566536,15.56647 -8.5972638,0 -15.5689346,-6.96919 -15.5689346,-15.56647 0,-8.59726 6.9716708,-15.56654 15.5689346,-15.56654 z m 0,0"
         id="path1247" />
      <g
         style="opacity:0.25;fill:#000000;stroke:none"
         id="g1490"
         transform="translate(0.3321652,0.34371565)">
        <path
           id="path1484"
           d="m 16.601158,268.52727 c -6.38484,0 -11.521522,5.13927 -11.521522,11.52152 0,3.96173 1.9808978,7.44461 5.008458,9.51709 l 1.002214,-1.46277 c -2.5617935,-1.75322 -4.2391155,-4.70229 -4.2391155,-8.05432 0,-5.40097 4.3490155,-9.74999 9.7499655,-9.74999 5.400971,0 9.747394,4.34902 9.747394,9.74999 0,3.35203 -1.67473,6.3011 -4.239137,8.05432 l 1.002214,1.46277 c 3.030174,-2.07248 5.011072,-5.55536 5.011072,-9.51709 0,-6.38225 -5.139295,-11.52152 -11.521521,-11.52152 z m 0,0"
           inkscape:connector-curvature="0"
           style="fill:#000000;fill-opacity:1;stroke:none;stroke-width:0.17189555;stroke-linecap:round" />
        <path
           id="path1486"
           d="m 22.864331,285.32954 a 0.44085173,0.44085173 0 0 1 -0.6227,0.0549 l -6.098675,-5.14139 c -0.188482,-0.15692 -0.212028,-0.43687 -0.05242,-0.62528 a 0.44294504,0.44294504 0 0 1 0.62275,-0.0523 l 6.098717,5.1412 a 0.44294504,0.44294504 0 0 1 0.05233,0.62281 z m 0,0"
           inkscape:connector-curvature="0"
           style="fill:#000000;fill-opacity:1;stroke:none;stroke-width:0.25119755;stroke-linecap:round;stroke-linejoin:round" />
        <path
           id="path1488"
           d="m 16.598316,278.2753 c 0.978499,0 1.771278,0.7927 1.771278,1.77128 0,0.9785 -0.792779,1.77128 -1.771278,1.77128 -0.978498,0 -1.773873,-0.79278 -1.773873,-1.77128 0,-0.97858 0.795375,-1.77128 1.773873,-1.77128 z m 0,0"
           inkscape:connector-curvature="0"
           style="fill:#000000;fill-opacity:1;stroke:none;stroke-width:0.25119755;stroke-linecap:round;stroke-linejoin:round" />
      </g>
      <path
         id="path1316"
         d="m 16.933323,268.34182 c -6.38484,0 -11.5215218,5.13927 -11.5215218,11.52152 0,3.96173 1.9808978,7.44461 5.0084578,9.51709 l 1.002214,-1.46277 c -2.5617933,-1.75322 -4.2391153,-4.70229 -4.2391153,-8.05432 0,-5.40097 4.3490153,-9.74999 9.7499653,-9.74999 5.400971,0 9.747394,4.34902 9.747394,9.74999 0,3.35203 -1.67473,6.3011 -4.239137,8.05432 l 1.002214,1.46277 c 3.030174,-2.07248 5.011072,-5.55536 5.011072,-9.51709 0,-6.38225 -5.139295,-11.52152 -11.521521,-11.52152 z m 0,0"
         inkscape:connector-curvature="0"
         style="fill:url(#linearGradient1477);fill-opacity:1;stroke:none;stroke-width:0.17189555;stroke-linecap:round" />
      <path
         id="path1324"
         d="m 23.196496,285.14409 a 0.44085173,0.44085173 0 0 1 -0.6227,0.0549 l -6.098675,-5.14139 c -0.188482,-0.15692 -0.212028,-0.43687 -0.05242,-0.62528 a 0.44294504,0.44294504 0 0 1 0.62275,-0.0523 l 6.098717,5.1412 a 0.44294504,0.44294504 0 0 1 0.05233,0.62281 z m 0,0"
         inkscape:connector-curvature="0"
         style="fill:#06c57c;fill-opacity:1;stroke:none;stroke-width:0.25119755;stroke-linecap:round;stroke-linejoin:round" />
      <path
         id="path1326"
         d="m 16.930481,278.08985 c 0.978499,0 1.771278,0.7927 1.771278,1.77128 0,0.9785 -0.792779,1.77128 -1.771278,1.77128 -0.978498,0 -1.773873,-0.79278 -1.773873,-1.77128 0,-0.97858 0.795375,-1.77128 1.773873,-1.77128 z m 0,0"
         inkscape:connector-curvature="0"
         style="fill:#3cd961;fill-opacity:1;stroke:none;stroke-width:0.25119755;stroke-linecap:round;stroke-linejoin:round" />
    </g>
  </g>
</svg>
