<?xml version="1.0" encoding="UTF-8" standalone="no"?>
<svg
   xmlns:dc="http://purl.org/dc/elements/1.1/"
   xmlns:cc="http://creativecommons.org/ns#"
   xmlns:rdf="http://www.w3.org/1999/02/22-rdf-syntax-ns#"
   xmlns:svg="http://www.w3.org/2000/svg"
   xmlns="http://www.w3.org/2000/svg"
   xmlns:xlink="http://www.w3.org/1999/xlink"
   xmlns:sodipodi="http://sodipodi.sourceforge.net/DTD/sodipodi-0.dtd"
   xmlns:inkscape="http://www.inkscape.org/namespaces/inkscape"
   width="128"
   height="128"
   viewBox="0 0 33.866 33.866"
   version="1.1"
   id="svg14"
   sodipodi:docname="system-help.svg"
   inkscape:version="0.92.4 (5da689c313, 2019-01-14)">
  <metadata
     id="metadata20">
    <rdf:RDF>
      <cc:Work
         rdf:about="">
        <dc:format>image/svg+xml</dc:format>
        <dc:type
           rdf:resource="http://purl.org/dc/dcmitype/StillImage" />
        <dc:title />
      </cc:Work>
    </rdf:RDF>
  </metadata>
  <defs
     id="defs18">
    <linearGradient
       inkscape:collect="always"
       id="linearGradient938">
      <stop
         style="stop-color:#edf1f4;stop-opacity:1"
         offset="0"
         id="stop934" />
      <stop
         style="stop-color:#fefeff;stop-opacity:1"
         offset="1"
         id="stop936" />
    </linearGradient>
    <linearGradient
       inkscape:collect="always"
       id="linearGradient920">
      <stop
         style="stop-color:#3c4040;stop-opacity:1"
         offset="0"
         id="stop916" />
      <stop
         style="stop-color:#57686f;stop-opacity:1"
         offset="1"
         id="stop918" />
    </linearGradient>
    <linearGradient
       inkscape:collect="always"
       xlink:href="#linearGradient920"
       id="linearGradient922"
       x1="18.976589"
       y1="30.654734"
       x2="18.399971"
       y2="2.9769087"
       gradientUnits="userSpaceOnUse" />
    <linearGradient
       inkscape:collect="always"
       xlink:href="#linearGradient938"
       id="linearGradient940"
       x1="13.005116"
       y1="31.073328"
       x2="13.005116"
       y2="4.5620017"
       gradientUnits="userSpaceOnUse" />
    <linearGradient
       inkscape:collect="always"
       xlink:href="#linearGradient938"
       id="linearGradient833"
       x1="-29.719507"
       y1="12.253495"
       x2="-29.681763"
       y2="7.4417644"
       gradientUnits="userSpaceOnUse" />
    <linearGradient
       inkscape:collect="always"
       xlink:href="#linearGradient938"
       id="linearGradient838"
       gradientUnits="userSpaceOnUse"
       x1="13.005116"
       y1="31.073328"
       x2="13.005116"
       y2="4.5620017" />
    <linearGradient
       inkscape:collect="always"
       xlink:href="#linearGradient938"
       id="linearGradient840"
       gradientUnits="userSpaceOnUse"
       x1="-29.719507"
       y1="12.253495"
       x2="-29.681763"
       y2="7.4417644" />
  </defs>
  <sodipodi:namedview
     pagecolor="#ffffff"
     bordercolor="#666666"
     borderopacity="1"
     objecttolerance="10"
     gridtolerance="10"
     guidetolerance="10"
     inkscape:pageopacity="0"
     inkscape:pageshadow="2"
     inkscape:window-width="1600"
     inkscape:window-height="838"
     id="namedview16"
     showgrid="false"
     inkscape:zoom="3.5283972"
     inkscape:cx="82.368739"
     inkscape:cy="48.700937"
     inkscape:window-x="-8"
     inkscape:window-y="-8"
     inkscape:window-maximized="1"
     inkscape:current-layer="svg14" />
  <g
     id="g836"
     transform="matrix(1.003613,0,0,1.003613,-0.0613293,-0.0614302)">
    <g
       aria-label="?"
       style="font-style:normal;font-weight:normal;font-size:7.44067526px;line-height:1.25;font-family:sans-serif;letter-spacing:0px;word-spacing:0px;opacity:0.25;fill:#000000;fill-opacity:0.99215686;stroke:none;stroke-width:0.18601689"
       id="g973"
       transform="matrix(2.6336501,0,0,2.6336501,95.478595,-9.0647809)">
      <path
         d="m -29.799109,11.243408 c 0.10417,-0.639898 0.297627,-0.937525 0.706864,-1.4137287 0.223221,-0.2604236 0.558051,-0.7812709 0.558051,-1.1607453 0,-0.3869151 -0.06697,-0.5580507 -0.267864,-0.8035929 -0.178577,-0.2157796 -0.669661,-0.4315592 -1.09378,-0.4315592 -0.513406,0 -1.21283,0.319949 -1.21283,1.0714572 0,0.252983 0.07441,0.4687626 0.372034,0.4687626 0.208339,0 0.290186,-0.1785762 0.290186,-0.3050677 0,-0.2678643 -0.282745,-0.3571524 -0.282745,-0.5580507 0,-0.2455422 0.379474,-0.4538812 0.691983,-0.4538812 0.572932,0 0.818474,0.4985253 0.818474,0.9449658 0,0.5431693 -0.312508,1.190508 -0.483644,1.5848641 -0.04464,0.104169 -0.22322,0.617576 -0.22322,1.056576 z m -0.44644,0.900321 c 0,0.282746 0.238101,0.379475 0.394355,0.379475 0.178577,0 0.409238,-0.11161 0.409238,-0.379475 0,-0.215779 -0.178577,-0.401796 -0.409238,-0.401796 -0.215779,0 -0.394355,0.171135 -0.394355,0.401796 z"
         style="font-style:normal;font-variant:normal;font-weight:normal;font-stretch:normal;font-family:'.Times LT MM';-inkscape-font-specification:'.Times LT MM';fill:#000000;fill-opacity:0.99215686;stroke-width:0.18601689"
         id="path971"
         inkscape:connector-curvature="0" />
    </g>
    <path
       style="opacity:0.25;fill:#000000;fill-opacity:1;stroke:#4d4d4d;stroke-width:0.10651419;stroke-miterlimit:4;stroke-dasharray:none"
       inkscape:connector-curvature="0"
       id="path969"
       d="M 31.373027,11.483704 A 15.53572,15.53572 0 1 0 2.6823753,23.401669 15.53572,15.53572 0 0 0 31.373027,11.483704 m -5.736684,2.382992 A 9.3237805,9.3237805 0 1 1 8.4175458,21.015028 9.3237805,9.3237805 0 0 1 25.634828,13.863048 m 0,0" />
    <path
       d="M 31.373027,10.920067 A 15.53572,15.53572 0 1 0 2.6823753,22.838032 15.53572,15.53572 0 0 0 31.373027,10.920067 m -5.736684,2.382992 A 9.3237805,9.3237805 0 1 1 8.4175458,20.451391 9.3237805,9.3237805 0 0 1 25.634828,13.29941 m 0,0"
       id="path8"
       inkscape:connector-curvature="0"
       style="fill:url(#linearGradient838);fill-opacity:1;stroke:#4d4d4d;stroke-width:0.19999605;stroke-miterlimit:4;stroke-dasharray:none" />
    <path
       inkscape:connector-curvature="0"
       id="path917"
       d="M 31.31367,10.788669 A 15.53572,15.53572 0 0 0 31.111707,10.344696 C 30.950637,9.9839946 30.78504,9.6269446 30.599245,9.2850232 A 15.53572,15.53572 0 0 0 30.38135,8.9133804 C 30.164743,8.5405256 29.942701,8.172617 29.698694,7.823644 A 15.53572,15.53572 0 0 0 29.569746,7.6450267 C 29.273851,7.2344466 28.96358,6.837245 28.633425,6.4613498 28.273422,6.0514687 27.893628,5.662257 27.498237,5.2945666 l -3.932805,5.0483204 a 9.3237805,9.3237805 0 0 1 2.073183,2.960852 l 0.0015,0.0036 a 9.3237805,9.3237805 0 0 1 0.752648,3.119533 l 6.046621,0.762734 c 0.06318,-1.64104 -0.137851,-3.276431 -0.588024,-4.84815 A 15.53572,15.53572 0 0 0 31.721084,11.948779 C 31.597835,11.558292 31.468021,11.169264 31.313595,10.788542 Z M 17.471472,1.1562812 c -1.080795,-0.04226 -2.158026,0.033237 -3.217905,0.2152774 a 15.53572,15.53572 0 0 0 -0.133835,0.020571 c -0.463252,0.083741 -0.921315,0.1958569 -1.375487,0.321664 a 15.53572,15.53572 0 0 0 -0.258661,0.068044 C 12.093075,1.8979407 11.707755,2.0400636 11.324572,2.187459 A 15.53572,15.53572 0 0 0 10.90559,2.344103 C 8.8162628,3.2254027 7.028122,4.5312984 5.5763318,6.0976234 L 10.854506,10.14084 a 9.3237805,9.3237805 0 0 1 5.975986,-2.3969848 z m 10.825952,26.0618008 -4.605437,-3.56263 a 9.3237805,9.3237805 0 0 1 -6.559932,2.720687 L 16.40228,32.15938 c 1.04421,0.0358 2.102021,-0.03165 3.15566,-0.20694 a 15.53572,15.53572 0 0 0 0.289619,-0.05678 c 0.411768,-0.07661 0.822215,-0.172003 1.231369,-0.283701 a 15.53572,15.53572 0 0 0 0.481557,-0.143104 c 0.339776,-0.104971 0.677191,-0.224553 1.013296,-0.355214 a 15.53572,15.53572 0 0 0 0.580593,-0.236889 c 0.333773,-0.146063 0.657497,-0.305696 0.975304,-0.473039 a 15.53572,15.53572 0 0 0 0.450231,-0.239595 c 0.377459,-0.215251 0.743225,-0.444431 1.096442,-0.687609 a 15.53572,15.53572 0 0 0 0.222655,-0.149449 c 0.878566,-0.62769 1.680831,-1.336124 2.398373,-2.109022 z M 7.7836674,16.889813 7.6456522,16.905535 1.4364598,16.120527 c -0.038016,1.057933 0.030645,2.128968 0.210473,3.1958 a 15.53572,15.53572 0 0 0 0.034362,0.18289 c 0.0783,0.432527 0.1813364,0.863496 0.2984181,1.293165 a 15.53572,15.53572 0 0 0 0.1388823,0.476735 c 0.1250213,0.40585 0.2621291,0.809875 0.4238985,1.210367 a 15.53572,15.53572 0 0 0 0.077842,0.19764 c 0.2138485,0.508141 0.4503039,0.999872 0.7121188,1.471761 0.8175528,1.473555 1.8575148,2.767592 3.0452852,3.866835 L 10.286394,23.415468 A 9.3237805,9.3237805 0 0 1 8.4198369,20.456395 9.3237805,9.3237805 0 0 1 7.7837463,16.889818 Z"
       style="fill:url(#linearGradient922);fill-opacity:1;stroke:#4d4d4d;stroke-width:0.10651419;stroke-miterlimit:4;stroke-dasharray:none" />
    <g
       transform="matrix(2.6336501,0,0,2.6336501,95.478595,-9.6284185)"
       id="text928"
       style="font-style:normal;font-weight:normal;font-size:7.44067526px;line-height:1.25;font-family:sans-serif;letter-spacing:0px;word-spacing:0px;fill:url(#linearGradient833);fill-opacity:1;stroke:#666666;stroke-width:0.07593874;stroke-miterlimit:4;stroke-dasharray:none"
       aria-label="?">
      <path
         inkscape:connector-curvature="0"
         id="path930"
         style="font-style:normal;font-variant:normal;font-weight:normal;font-stretch:normal;font-family:'.Times LT MM';-inkscape-font-specification:'.Times LT MM';fill:url(#linearGradient840);fill-opacity:1;stroke:#666666;stroke-width:0.07593874;stroke-miterlimit:4;stroke-dasharray:none"
         d="m -29.799109,11.243408 c 0.10417,-0.639898 0.297627,-0.937525 0.706864,-1.4137287 0.223221,-0.2604236 0.558051,-0.7812709 0.558051,-1.1607453 0,-0.3869151 -0.06697,-0.5580507 -0.267864,-0.8035929 -0.178577,-0.2157796 -0.669661,-0.4315592 -1.09378,-0.4315592 -0.513406,0 -1.21283,0.319949 -1.21283,1.0714572 0,0.252983 0.07441,0.4687626 0.372034,0.4687626 0.208339,0 0.290186,-0.1785762 0.290186,-0.3050677 0,-0.2678643 -0.282745,-0.3571524 -0.282745,-0.5580507 0,-0.2455422 0.379474,-0.4538812 0.691983,-0.4538812 0.572932,0 0.818474,0.4985253 0.818474,0.9449658 0,0.5431693 -0.312508,1.190508 -0.483644,1.5848641 -0.04464,0.104169 -0.22322,0.617576 -0.22322,1.056576 z m -0.44644,0.900321 c 0,0.282746 0.238101,0.379475 0.394355,0.379475 0.178577,0 0.409238,-0.11161 0.409238,-0.379475 0,-0.215779 -0.178577,-0.401796 -0.409238,-0.401796 -0.215779,0 -0.394355,0.171135 -0.394355,0.401796 z" />
    </g>
  </g>
</svg>
