<?xml version="1.0" encoding="UTF-8" standalone="no"?>
<!-- Created with Inkscape (http://www.inkscape.org/) -->

<svg
   xmlns:dc="http://purl.org/dc/elements/1.1/"
   xmlns:cc="http://creativecommons.org/ns#"
   xmlns:rdf="http://www.w3.org/1999/02/22-rdf-syntax-ns#"
   xmlns:svg="http://www.w3.org/2000/svg"
   xmlns="http://www.w3.org/2000/svg"
   xmlns:sodipodi="http://sodipodi.sourceforge.net/DTD/sodipodi-0.dtd"
   xmlns:inkscape="http://www.inkscape.org/namespaces/inkscape"
   width="128"
   height="128"
   viewBox="0 0 33.866666 33.866668"
   version="1.1"
   id="svg8"
   inkscape:version="0.92.3 (2405546, 2018-03-11)"
   sodipodi:docname="timetable.svg">
  <defs
     id="defs2" />
  <sodipodi:namedview
     id="base"
     pagecolor="#ffffff"
     bordercolor="#666666"
     borderopacity="1.0"
     inkscape:pageopacity="0.0"
     inkscape:pageshadow="2"
     inkscape:zoom="4"
     inkscape:cx="28.931703"
     inkscape:cy="76.539555"
     inkscape:document-units="mm"
     inkscape:current-layer="layer1"
     showgrid="false"
     units="px"
     inkscape:window-width="1600"
     inkscape:window-height="837"
     inkscape:window-x="0"
     inkscape:window-y="30"
     inkscape:window-maximized="1" />
  <metadata
     id="metadata5">
    <rdf:RDF>
      <cc:Work
         rdf:about="">
        <dc:format>image/svg+xml</dc:format>
        <dc:type
           rdf:resource="http://purl.org/dc/dcmitype/StillImage" />
        <dc:title />
      </cc:Work>
    </rdf:RDF>
  </metadata>
  <g
     inkscape:label="Layer 1"
     inkscape:groupmode="layer"
     id="layer1"
     transform="translate(0,-263.13332)">
    <g
       id="g858"
       transform="matrix(1.0386859,0,0,1.0386859,-1.64538,-11.694291)">
      <g
         transform="translate(0.12958926,0.01450469)"
         id="g1767">
        <rect
           style="opacity:0.25;fill:#000000;fill-opacity:1;stroke:none;stroke-width:0.47076741;stroke-miterlimit:4;stroke-dasharray:none;stroke-dashoffset:0;stroke-opacity:1"
           id="rect1901"
           width="28.577274"
           height="24.61356"
           x="2.473424"
           y="268.84125"
           ry="1.1324556" />
        <rect
           ry="1.1324556"
           y="268.31488"
           x="2.5567899"
           height="24.61356"
           width="28.577274"
           id="rect1883"
           style="opacity:1;fill:#3a424a;fill-opacity:1;stroke:none;stroke-width:0.47076741;stroke-miterlimit:4;stroke-dasharray:none;stroke-dashoffset:0;stroke-opacity:1" />
        <rect
           ry="0"
           y="267.17587"
           x="3.4390492"
           height="25.013943"
           width="26.646011"
           id="rect1897"
           style="opacity:0.25;fill:#000000;fill-opacity:1;stroke:none;stroke-width:0.45826426;stroke-miterlimit:4;stroke-dasharray:none;stroke-dashoffset:0;stroke-opacity:1" />
        <rect
           style="opacity:1;fill:#f4f4f4;fill-opacity:1;stroke:none;stroke-width:0.20141868;stroke-miterlimit:4;stroke-dasharray:none;stroke-dashoffset:0;stroke-opacity:1"
           id="rect1881"
           width="26.646011"
           height="25.013943"
           x="3.5224154"
           y="266.64951"
           ry="0" />
        <path
           inkscape:connector-curvature="0"
           id="path1903"
           d="m 3.4393012,267.17587 4.2e-6,8.60582 26.6460056,10e-6 -2e-6,-8.60584 z"
           style="opacity:0.25;fill:#000000;fill-opacity:1;stroke:none;stroke-width:0.45826426;stroke-miterlimit:4;stroke-dasharray:none;stroke-dashoffset:0;stroke-opacity:1" />
        <path
           style="opacity:1;fill:#cb1f28;fill-opacity:1;stroke:none;stroke-width:0.45826426;stroke-miterlimit:4;stroke-dasharray:none;stroke-dashoffset:0;stroke-opacity:1"
           d="m 3.5226704,266.64949 4.7e-6,8.60583 26.6460049,1e-5 5e-6,-8.60582 z"
           id="rect1892"
           inkscape:connector-curvature="0" />
        <g
           transform="matrix(1.0924711,-9.8226198e-4,9.8226198e-4,1.0924711,-2.3206434,-23.976947)"
           id="g1911"
           style="font-style:normal;font-weight:normal;font-size:5.62844658px;line-height:1.25;font-family:sans-serif;letter-spacing:0px;word-spacing:0px;fill:#ffffff;fill-opacity:1;stroke:none;stroke-width:0.14071116"
           aria-label="JUL">
          <path
             id="path1905"
             style="font-style:normal;font-variant:normal;font-weight:normal;font-stretch:normal;font-family:arial;-inkscape-font-specification:arial;fill:#ffffff;stroke-width:0.14071116"
             d="m 12.475604,270.81732 0.480947,-0.0659 q 0.01924,0.4617 0.17314,0.6321 0.153903,0.17039 0.425981,0.17039 0.200624,0 0.346282,-0.0907 0.145658,-0.0935 0.200623,-0.2501 0.05496,-0.1594 0.05496,-0.50568 v -2.77574 h 0.533164 v 2.74551 q 0,0.50568 -0.123672,0.78326 -0.120924,0.27757 -0.387506,0.42323 -0.263833,0.14566 -0.621107,0.14566 -0.530416,0 -0.813487,-0.30506 -0.280323,-0.30506 -0.26933,-0.90693 z"
             inkscape:connector-curvature="0" />
          <path
             id="path1907"
             style="font-style:normal;font-variant:normal;font-weight:normal;font-stretch:normal;font-family:arial;-inkscape-font-specification:arial;fill:#ffffff;stroke-width:0.14071116"
             d="M 18.205737,267.93165 H 18.7389 v 2.32778 q 0,0.60736 -0.137413,0.96464 -0.137414,0.35727 -0.497436,0.58263 -0.357275,0.22261 -0.939907,0.22261 -0.566142,0 -0.926165,-0.19513 -0.360023,-0.19513 -0.513926,-0.56339 -0.153903,-0.37102 -0.153903,-1.01136 v -2.32778 h 0.533164 v 2.32503 q 0,0.52492 0.09619,0.77501 0.09894,0.24734 0.335288,0.38201 0.2391,0.13466 0.582633,0.13466 0.588128,0 0.83822,-0.26658 0.250093,-0.26658 0.250093,-1.0251 z"
             inkscape:connector-curvature="0" />
          <path
             id="path1909"
             style="font-style:normal;font-variant:normal;font-weight:normal;font-stretch:normal;font-family:arial;-inkscape-font-specification:arial;fill:#ffffff;stroke-width:0.14071116"
             d="m 19.607351,271.9606 v -4.02895 h 0.533164 v 3.5535 h 1.984247 v 0.47545 z"
             inkscape:connector-curvature="0" />
        </g>
        <path
           inkscape:connector-curvature="0"
           d="m 13.51483,279.4687 -0.0012,-1.28547 7.051476,-0.006 9.35e-4,1.04026 q -1.039264,1.10807 -2.063013,2.94431 -1.016319,1.83624 -1.571856,3.77607 -0.400015,1.36757 -0.510008,2.99492 l -1.374629,10e-4 q 0.02113,-1.28548 0.502476,-3.10637 0.481342,-1.82089 1.378907,-3.5084 0.904989,-1.69496 1.921915,-2.85502 z"
           style="font-style:normal;font-variant:normal;font-weight:normal;font-stretch:normal;font-size:medium;line-height:1.25;font-family:Arial;-inkscape-font-specification:Arial;letter-spacing:0px;word-spacing:0px;fill:#363636;fill-opacity:1;stroke:none;stroke-width:0.380438"
           id="path1915" />
      </g>
      <g
         transform="matrix(0.45624994,0,0,0.45624994,44.384181,158.94732)"
         id="g1739">
        <g
           style="opacity:0.25;fill:#000000;stroke:none;stroke-width:0.1511811;stroke-miterlimit:4;stroke-dasharray:none;stroke-opacity:1"
           transform="matrix(0.74051451,0,0,0.74051451,-57.957099,265.14763)"
           id="g1047">
          <circle
             id="circle1045"
             r="21"
             cy="24"
             cx="24"
             style="fill:#000000;stroke:none;stroke-width:0.1511811;stroke-miterlimit:4;stroke-dasharray:none;stroke-opacity:1" />
        </g>
        <g
           id="g929"
           transform="matrix(0.74051451,0,0,0.74051451,-57.957099,264.55522)"
           style="stroke:#666666;stroke-width:0.1511811;stroke-miterlimit:4;stroke-dasharray:none;stroke-opacity:1">
          <circle
             style="fill:#e0e0e0;stroke:#666666;stroke-width:0.1511811;stroke-miterlimit:4;stroke-dasharray:none;stroke-opacity:1"
             cx="24"
             cy="24"
             r="21"
             id="circle927" />
        </g>
        <path
           inkscape:connector-curvature="0"
           style="fill:#3e3a39;stroke-width:0.74051452"
           d="m -40.18475,296.39734 c -7.758371,0 -14.069776,-6.3114 -14.069776,-14.06977 0,-7.75838 6.311405,-14.06978 14.069776,-14.06978 7.75837,0 14.069775,6.3114 14.069775,14.06978 0,7.75837 -6.311405,14.06977 -14.069775,14.06977 z"
           id="path931" />
        <g
           id="g1043"
           transform="matrix(1.119518,0,0,1.119518,-4.0753914,-35.571146)">
          <path
             id="path933"
             d="m -31.924064,284.48157 c -0.241432,0.24143 -0.633677,0.24143 -0.875771,0 l -0.06019,-0.0602 c -0.241432,-0.24144 -0.241432,-0.63368 0,-0.87577 l 7.539302,-7.5446 c 0.241433,-0.24143 0.633678,-0.24143 0.875771,0 l 0.06019,0.0602 c 0.241432,0.24144 0.241432,0.63368 0,0.87578 z"
             style="fill:#dcdddd;stroke-width:0.66145831"
             inkscape:connector-curvature="0" />
          <path
             id="path935"
             d="m -31.971689,283.37429 c 0.296333,0.16139 0.405474,0.53247 0.243417,0.82881 l -0.04829,0.0893 c -0.161396,0.29634 -0.532474,0.40548 -0.828807,0.24342 l -5.680604,-3.08372 c -0.296334,-0.1614 -0.405474,-0.53247 -0.243417,-0.82881 l 0.04829,-0.0893 c 0.161396,-0.29634 0.532474,-0.40548 0.828808,-0.24342 z"
             style="fill:#dcdddd;stroke-width:0.66145831"
             inkscape:connector-curvature="0" />
          <g
             transform="matrix(0.66145833,0,0,0.66145833,-48.211814,268.08534)"
             id="g943">
            <circle
               id="circle941"
               r="1.5"
               cy="24"
               cx="24"
               style="fill:#ffffff" />
          </g>
        </g>
      </g>
    </g>
  </g>
</svg>
