<?xml version="1.0" encoding="UTF-8" standalone="no"?>
<!-- Created with Inkscape (http://www.inkscape.org/) -->

<svg
   xmlns:osb="http://www.openswatchbook.org/uri/2009/osb"
   xmlns:dc="http://purl.org/dc/elements/1.1/"
   xmlns:cc="http://creativecommons.org/ns#"
   xmlns:rdf="http://www.w3.org/1999/02/22-rdf-syntax-ns#"
   xmlns:svg="http://www.w3.org/2000/svg"
   xmlns="http://www.w3.org/2000/svg"
   xmlns:xlink="http://www.w3.org/1999/xlink"
   xmlns:sodipodi="http://sodipodi.sourceforge.net/DTD/sodipodi-0.dtd"
   xmlns:inkscape="http://www.inkscape.org/namespaces/inkscape"
   width="128"
   height="128"
   viewBox="0 0 33.866666 33.866668"
   version="1.1"
   id="svg8"
   inkscape:version="0.92.3 (2405546, 2018-03-11)"
   sodipodi:docname="uget.svg">
  <defs
     id="defs2">
    <linearGradient
       inkscape:collect="always"
       id="linearGradient972">
      <stop
         style="stop-color:#ffffff;stop-opacity:1"
         offset="0"
         id="stop968" />
      <stop
         style="stop-color:#d5ffd5;stop-opacity:1"
         offset="1"
         id="stop970" />
    </linearGradient>
    <linearGradient
       id="linearGradient1108"
       inkscape:collect="always">
      <stop
         id="stop1104"
         offset="0"
         style="stop-color:#19b22f;stop-opacity:1" />
      <stop
         id="stop1106"
         offset="1"
         style="stop-color:#80f29d;stop-opacity:1" />
    </linearGradient>
    <linearGradient
       osb:paint="solid"
       id="linearGradient6987">
      <stop
         id="stop6985"
         offset="0"
         style="stop-color:#77d2fb;stop-opacity:1;" />
    </linearGradient>
    <linearGradient
       gradientTransform="matrix(0.24698165,0,0,0.24698165,9.6333785,227.52856)"
       gradientUnits="userSpaceOnUse"
       y2="185.78969"
       x2="26.181116"
       y1="274.68945"
       x1="30.510128"
       id="linearGradient1110"
       xlink:href="#linearGradient1108"
       inkscape:collect="always" />
    <linearGradient
       inkscape:collect="always"
       xlink:href="#linearGradient972"
       id="linearGradient974"
       x1="82.928078"
       y1="282.97076"
       x2="82.928078"
       y2="292.93027"
       gradientUnits="userSpaceOnUse"
       gradientTransform="matrix(0.98776294,0,0,0.98776294,-57.369301,-1.1054513)" />
  </defs>
  <sodipodi:namedview
     id="base"
     pagecolor="#ffffff"
     bordercolor="#666666"
     borderopacity="1.0"
     inkscape:pageopacity="0.0"
     inkscape:pageshadow="2"
     inkscape:zoom="3.959798"
     inkscape:cx="49.613417"
     inkscape:cy="48.663379"
     inkscape:document-units="mm"
     inkscape:current-layer="layer1"
     showgrid="false"
     inkscape:window-width="1600"
     inkscape:window-height="837"
     inkscape:window-x="0"
     inkscape:window-y="30"
     inkscape:window-maximized="1"
     units="px" />
  <metadata
     id="metadata5">
    <rdf:RDF>
      <cc:Work
         rdf:about="">
        <dc:format>image/svg+xml</dc:format>
        <dc:type
           rdf:resource="http://purl.org/dc/dcmitype/StillImage" />
        <dc:title />
      </cc:Work>
    </rdf:RDF>
  </metadata>
  <g
     inkscape:label="Layer 1"
     inkscape:groupmode="layer"
     id="layer1"
     transform="translate(0,-263.13332)">
    <g
       id="g860"
       transform="matrix(0.99840831,0,0,0.99840831,0.00198067,0.47104842)">
      <g
         transform="matrix(0.05012282,0,0,0.04657828,-58.879699,299.52737)"
         id="g1178" />
      <g
         transform="matrix(0.05012282,0,0,0.04657828,-58.879699,299.52737)"
         id="g1180" />
      <g
         transform="matrix(0.05012282,0,0,0.04657828,-58.879699,299.52737)"
         id="g1182" />
      <g
         transform="matrix(0.05012282,0,0,0.04657828,-58.879699,299.52737)"
         id="g1184" />
      <g
         transform="matrix(0.05012282,0,0,0.04657828,-58.879699,299.52737)"
         id="g1186" />
      <g
         transform="matrix(0.05012282,0,0,0.04657828,-58.879699,299.52737)"
         id="g1188" />
      <g
         transform="matrix(0.05012282,0,0,0.04657828,-58.879699,299.52737)"
         id="g1190" />
      <g
         transform="matrix(0.05012282,0,0,0.04657828,-58.879699,299.52737)"
         id="g1192" />
      <g
         transform="matrix(0.05012282,0,0,0.04657828,-58.879699,299.52737)"
         id="g1194" />
      <g
         transform="matrix(0.05012282,0,0,0.04657828,-58.879699,299.52737)"
         id="g1196" />
      <g
         transform="matrix(0.05012282,0,0,0.04657828,-58.879699,299.52737)"
         id="g1198" />
      <g
         transform="matrix(0.05012282,0,0,0.04657828,-58.879699,299.52737)"
         id="g1200" />
      <g
         transform="matrix(0.05012282,0,0,0.04657828,-58.879699,299.52737)"
         id="g1202" />
      <g
         transform="matrix(0.05012282,0,0,0.04657828,-58.879699,299.52737)"
         id="g1204" />
      <g
         transform="matrix(0.05012282,0,0,0.04657828,-58.879699,299.52737)"
         id="g1206" />
      <circle
         style="opacity:0.25;fill:#000000;fill-opacity:1;stroke:none;stroke-width:0.18356016;stroke-miterlimit:4;stroke-dasharray:none;stroke-opacity:1"
         id="circle966"
         cx="16.933334"
         cy="280.35269"
         r="15.588956" />
      <circle
         r="15.588956"
         cy="279.82999"
         cx="16.933334"
         id="path1102"
         style="opacity:1;fill:url(#linearGradient1110);fill-opacity:1;stroke:#008000;stroke-width:0.2;stroke-miterlimit:4;stroke-dasharray:none;stroke-opacity:1" />
      <path
         id="path964"
         d="m 26.784957,276.85607 v -4.94764 H 13.424746 c -1.554446,0 -2.81475,1.2603 -2.81475,2.81475 v 8.44424 H 9.2026201 v -6.56749 H 7.0817063 v 8.44424 c 0,0.51791 0.4200996,0.93802 0.9380153,0.93802 h 2.8147504 c 0,1.55443 1.035828,2.81475 2.590274,2.81475 h 10.544757 c 1.554447,0 2.814752,-1.26032 2.814752,-2.81475 v -7.74057 h -6.344449 v 2.11105 h 2.591684 l -4.691485,6.56754 -4.690782,-6.56754 h 2.568457 v -6.31137 h 4.222126 v 2.81477 z"
         inkscape:connector-curvature="0"
         style="opacity:0.25;fill:#000000;stroke:none;stroke-width:0.26596063;stroke-miterlimit:4;stroke-dasharray:none;stroke-opacity:1" />
      <path
         style="fill:url(#linearGradient974);fill-opacity:1;stroke:#008000;stroke-width:0.15000001;stroke-miterlimit:4;stroke-dasharray:none;stroke-opacity:1"
         inkscape:connector-curvature="0"
         d="m 26.784957,276.33337 v -4.94763 H 13.424746 c -1.554446,0 -2.81475,1.26029 -2.81475,2.81475 v 8.44423 H 9.2026201 v -6.56748 H 7.0817063 v 8.44423 c 0,0.51792 0.4200996,0.93802 0.9380153,0.93802 h 2.8147504 c 0,1.55444 1.035828,2.81475 2.590274,2.81475 h 10.544757 c 1.554447,0 2.814752,-1.26031 2.814752,-2.81475 v -7.74056 h -6.344449 v 2.11105 h 2.591684 l -4.691485,6.56753 -4.690782,-6.56753 h 2.568457 v -6.31138 h 4.222126 v 2.81477 z"
         id="path954" />
    </g>
  </g>
</svg>
