<?xml version="1.0" encoding="UTF-8" standalone="no"?>
<!-- Created with Inkscape (http://www.inkscape.org/) -->

<svg
   xmlns:dc="http://purl.org/dc/elements/1.1/"
   xmlns:cc="http://creativecommons.org/ns#"
   xmlns:rdf="http://www.w3.org/1999/02/22-rdf-syntax-ns#"
   xmlns:svg="http://www.w3.org/2000/svg"
   xmlns="http://www.w3.org/2000/svg"
   xmlns:xlink="http://www.w3.org/1999/xlink"
   xmlns:sodipodi="http://sodipodi.sourceforge.net/DTD/sodipodi-0.dtd"
   xmlns:inkscape="http://www.inkscape.org/namespaces/inkscape"
   width="128"
   height="128"
   viewBox="0 0 33.866666 33.866668"
   version="1.1"
   id="svg8"
   inkscape:version="0.92.2 5c3e80d, 2017-08-06"
   sodipodi:docname="virtualbox.svg">
  <defs
     id="defs2">
    <linearGradient
       inkscape:collect="always"
       id="linearGradient1258">
      <stop
         style="stop-color:#1894d7;stop-opacity:1"
         offset="0"
         id="stop1254" />
      <stop
         style="stop-color:#4fcbf1;stop-opacity:1"
         offset="1"
         id="stop1256" />
    </linearGradient>
    <linearGradient
       id="linearGradient1705"
       inkscape:collect="always">
      <stop
         id="stop1701"
         offset="0"
         style="stop-color:#1793d7;stop-opacity:1" />
      <stop
         id="stop1703"
         offset="1"
         style="stop-color:#4fcbf1;stop-opacity:1" />
    </linearGradient>
    <linearGradient
       inkscape:collect="always"
       xlink:href="#linearGradient1705"
       id="linearGradient1607"
       x1="17.668953"
       y1="290.79819"
       x2="17.211363"
       y2="268.01346"
       gradientUnits="userSpaceOnUse"
       gradientTransform="matrix(1.0664497,0,0,1.0664497,-2.9127229,-17.956299)" />
    <linearGradient
       inkscape:collect="always"
       xlink:href="#linearGradient1258"
       id="linearGradient1615"
       x1="19.132969"
       y1="290.39728"
       x2="18.486862"
       y2="268.01346"
       gradientUnits="userSpaceOnUse"
       gradientTransform="matrix(1.0664497,0,0,1.0664497,-2.9127229,-17.956299)" />
  </defs>
  <sodipodi:namedview
     id="base"
     pagecolor="#ffffff"
     bordercolor="#666666"
     borderopacity="1.0"
     inkscape:pageopacity="0.0"
     inkscape:pageshadow="2"
     inkscape:zoom="0.7"
     inkscape:cx="172.41116"
     inkscape:cy="-195.86484"
     inkscape:document-units="mm"
     inkscape:current-layer="layer1"
     showgrid="false"
     units="px"
     inkscape:window-width="1600"
     inkscape:window-height="803"
     inkscape:window-x="0"
     inkscape:window-y="0"
     inkscape:window-maximized="1" />
  <metadata
     id="metadata5">
    <rdf:RDF>
      <cc:Work
         rdf:about="">
        <dc:format>image/svg+xml</dc:format>
        <dc:type
           rdf:resource="http://purl.org/dc/dcmitype/StillImage" />
        <dc:title />
      </cc:Work>
    </rdf:RDF>
  </metadata>
  <g
     inkscape:label="Layer 1"
     inkscape:groupmode="layer"
     id="layer1"
     transform="translate(0,-263.13332)">
    <path
       id="path1707"
       d="m 32.472845,295.12378 c 0,0.45147 -0.366406,0.81787 -0.817869,0.81787 H 2.2116908 c -0.4514637,0 -0.8178691,-0.3664 -0.8178691,-0.81787 V 265.6805 c 0,-0.45147 0.3664054,-0.81787 0.8178691,-0.81787 H 31.654976 c 0.451463,0 0.817869,0.3664 0.817869,0.81787 z"
       inkscape:connector-curvature="0"
       style="opacity:0.25;fill:#000000;fill-opacity:1;stroke:none;stroke-width:0.21328995;stroke-miterlimit:4;stroke-dasharray:none;stroke-opacity:1" />
    <path
       style="fill:url(#linearGradient1607);fill-opacity:1;stroke:#0f5f8c;stroke-width:0.21328995;stroke-miterlimit:4;stroke-dasharray:none;stroke-opacity:1"
       inkscape:connector-curvature="0"
       d="m 32.472845,294.55945 c 0,0.45147 -0.366406,0.81787 -0.817869,0.81787 H 2.2116908 c -0.4514637,0 -0.8178691,-0.3664 -0.8178691,-0.81787 v -29.44328 c 0,-0.45147 0.3664054,-0.81787 0.8178691,-0.81787 H 31.654976 c 0.451463,0 0.817869,0.3664 0.817869,0.81787 z"
       id="path1550" />
    <rect
       style="fill:#ffffff;stroke:#0f5f8c;stroke-width:0.10664497;stroke-miterlimit:4;stroke-dasharray:none;stroke-opacity:1"
       x="3.0295599"
       y="265.93402"
       width="27.807547"
       height="27.807547"
       id="rect1552" />
    <rect
       style="fill:url(#linearGradient1615);fill-opacity:1;stroke:#0f5f8c;stroke-width:0.10664497;stroke-miterlimit:4;stroke-dasharray:none;stroke-opacity:1"
       x="4.665298"
       y="267.56976"
       width="24.53607"
       height="24.53607"
       id="rect1554" />
    <g
       id="g1558"
       transform="matrix(0.81786903,0,0,0.81786903,-2.6938877,260.19014)"
       style="fill:#ffffff;fill-opacity:1;stroke:none;stroke-width:0.1303937;stroke-miterlimit:4;stroke-dasharray:none;stroke-opacity:1">
      <path
         style="fill:#ffffff;fill-opacity:1;stroke:none;stroke-width:0.1303937;stroke-miterlimit:4;stroke-dasharray:none;stroke-opacity:1"
         inkscape:connector-curvature="0"
         d="m 16.048,35 c -0.449,0 -0.845,-0.273 -0.964,-0.708 L 12.238,24 H 8 v -2 h 5 c 0.45,0 0.845,0.301 0.964,0.734 l 2.031,7.365 4.038,-16.343 c 0.108,-0.438 0.498,-0.75 0.95,-0.76 0.456,0 0.854,0.287 0.98,0.721 L 25.09,24.449 28.098,13.727 C 28.22,13.296 28.613,13 29.062,13 c 0.002,0 0.003,0 0.005,0 0.449,0 0.843,0.303 0.96,0.737 L 33.891,28 H 40 v 2 H 33.125 C 32.674,30 32.278,29.697 32.16,29.262 L 29.045,17.76 26.071,28.315 C 25.95,28.744 25.56,29 25.113,29 c -0.002,0 -0.003,0 -0.005,0 -0.444,0 -0.836,-0.249 -0.96,-0.677 l -3.065,-10.5 -4.064,16.433 C 16.909,34.698 16.516,35 16.062,35 c -0.005,0 -0.01,0 -0.014,0 z"
         id="path1556" />
    </g>
  </g>
</svg>
