<?xml version="1.0" encoding="UTF-8" standalone="no"?>
<!-- Created with Inkscape (http://www.inkscape.org/) -->

<svg
   xmlns:osb="http://www.openswatchbook.org/uri/2009/osb"
   xmlns:dc="http://purl.org/dc/elements/1.1/"
   xmlns:cc="http://creativecommons.org/ns#"
   xmlns:rdf="http://www.w3.org/1999/02/22-rdf-syntax-ns#"
   xmlns:svg="http://www.w3.org/2000/svg"
   xmlns="http://www.w3.org/2000/svg"
   xmlns:xlink="http://www.w3.org/1999/xlink"
   xmlns:sodipodi="http://sodipodi.sourceforge.net/DTD/sodipodi-0.dtd"
   xmlns:inkscape="http://www.inkscape.org/namespaces/inkscape"
   width="128"
   height="128"
   viewBox="0 0 33.866665 33.866665"
   version="1.1"
   id="svg4942"
   inkscape:version="0.92.3 (2405546, 2018-03-11)"
   sodipodi:docname="vocal.svg"
   inkscape:export-filename="/Users/balasakthi/Desktop/d.png"
   inkscape:export-xdpi="96"
   inkscape:export-ydpi="96"
   style="enable-background:new">
  <defs
     id="defs4936">
    <linearGradient
       id="linearGradient6211"
       osb:paint="solid">
      <stop
         style="stop-color:#666666;stop-opacity:1;"
         offset="0"
         id="stop6209" />
    </linearGradient>
    <linearGradient
       inkscape:collect="always"
       id="linearGradient4722">
      <stop
         style="stop-color:#b5b5d9;stop-opacity:1"
         offset="0"
         id="stop4718" />
      <stop
         style="stop-color:#717195;stop-opacity:1"
         offset="1"
         id="stop4720" />
    </linearGradient>
    <linearGradient
       inkscape:collect="always"
       id="linearGradient4712">
      <stop
         style="stop-color:#d9d9d9;stop-opacity:1"
         offset="0"
         id="stop4708" />
      <stop
         style="stop-color:#9e9e9e;stop-opacity:1"
         offset="1"
         id="stop4710" />
    </linearGradient>
    <linearGradient
       inkscape:collect="always"
       id="linearGradient927">
      <stop
         style="stop-color:#4d4d4d;stop-opacity:1"
         offset="0"
         id="stop923" />
      <stop
         style="stop-color:#1a1a1a;stop-opacity:1"
         offset="1"
         id="stop925" />
    </linearGradient>
    <linearGradient
       id="linearGradient6987"
       osb:paint="solid">
      <stop
         style="stop-color:#77d2fb;stop-opacity:1;"
         offset="0"
         id="stop6985" />
    </linearGradient>
    <radialGradient
       inkscape:collect="always"
       xlink:href="#linearGradient4722"
       id="radialGradient995"
       gradientUnits="userSpaceOnUse"
       gradientTransform="matrix(0.42209253,1.6383025e-8,-3.113128e-8,0.77953593,-1.7747433,119.88706)"
       cx="45.080494"
       cy="197.81818"
       fx="45.080494"
       fy="197.81818"
       r="12.209988" />
    <linearGradient
       inkscape:collect="always"
       xlink:href="#linearGradient927"
       id="linearGradient1000"
       gradientUnits="userSpaceOnUse"
       gradientTransform="matrix(0.42208924,0,0,0.38216255,-1.6911569,200.11282)"
       x1="31.906157"
       y1="198.38533"
       x2="56.32613"
       y2="198.38533" />
    <linearGradient
       inkscape:collect="always"
       xlink:href="#linearGradient927"
       id="linearGradient1096"
       x1="58.177284"
       y1="192.12115"
       x2="60.816216"
       y2="192.12115"
       gradientUnits="userSpaceOnUse"
       gradientTransform="matrix(1.1923316,0,0,0.28732957,-65.006957,216.77535)" />
    <radialGradient
       inkscape:collect="always"
       xlink:href="#linearGradient4712"
       id="radialGradient4699"
       gradientUnits="userSpaceOnUse"
       gradientTransform="matrix(0.42209253,1.6383025e-8,-3.113128e-8,0.77953596,-1.7746953,119.88711)"
       cx="44.750381"
       cy="202.28694"
       fx="44.750381"
       fy="202.28694"
       r="12.209988" />
    <radialGradient
       inkscape:collect="always"
       xlink:href="#linearGradient4712"
       id="radialGradient4783"
       cx="64.085434"
       cy="250.51729"
       fx="64.085434"
       fy="250.51729"
       r="35.404301"
       gradientTransform="matrix(0.2436509,0,0,0.2902784,0.43004546,213.07707)"
       gradientUnits="userSpaceOnUse" />
  </defs>
  <sodipodi:namedview
     id="base"
     pagecolor="#ffffff"
     bordercolor="#666666"
     borderopacity="1.0"
     inkscape:pageopacity="0.0"
     inkscape:pageshadow="2"
     inkscape:zoom="3.6203868"
     inkscape:cx="62.328108"
     inkscape:cy="37.357595"
     inkscape:document-units="mm"
     inkscape:current-layer="layer1"
     showgrid="false"
     units="px"
     width="128px"
     inkscape:window-width="1600"
     inkscape:window-height="837"
     inkscape:window-x="0"
     inkscape:window-y="30"
     inkscape:window-maximized="1"
     inkscape:measure-start="-293.521,100.415"
     inkscape:measure-end="-294.709,409.978" />
  <metadata
     id="metadata4939">
    <rdf:RDF>
      <cc:Work
         rdf:about="">
        <dc:format>image/svg+xml</dc:format>
        <dc:type
           rdf:resource="http://purl.org/dc/dcmitype/StillImage" />
        <dc:title />
      </cc:Work>
    </rdf:RDF>
  </metadata>
  <g
     inkscape:label="Layer 1"
     inkscape:groupmode="layer"
     id="layer1"
     transform="translate(0,-263.13332)">
    <g
       id="g846"
       transform="matrix(0.99970165,0,0,0.99970165,0.0050542,0.0835777)">
      <circle
         r="0"
         cy="271.97745"
         cx="5.932899"
         id="path1084"
         style="opacity:1;fill:url(#linearGradient1096);fill-opacity:1;stroke:none;stroke-width:1.23887599;stroke-linecap:round;stroke-linejoin:round;stroke-miterlimit:4;stroke-dasharray:none;stroke-opacity:1" />
      <path
         sodipodi:nodetypes="ccccccccccscccccccccccccccccscccccccccccccccccccccccccc"
         inkscape:connector-curvature="0"
         d="m 9.1986549,275.29233 c -0.3013841,0.006 -0.5988842,0.16631 -0.7564679,0.48075 -0.08482,0.16924 -0.095021,0.40343 -0.1232678,2.85723 -0.032444,2.81652 -0.00553,3.50907 0.1704825,4.37841 0.3442202,1.70008 1.2395374,3.32606 2.4792973,4.5028 0.581418,0.55186 0.857765,0.73832 1.807816,1.22023 0.98575,0.50003 1.716966,0.76186 2.57058,0.92044 0.318028,0.0591 0.612246,0.1252 0.653852,0.14693 0.06385,0.0334 0.07411,0.19783 0.0656,1.06712 -0.01966,2.00678 -0.0704,3.06766 -0.150462,3.14772 -0.06143,0.0614 -0.336399,0.0736 -1.660125,0.0736 -1.730808,0 -1.788257,0.008 -2.053846,0.29062 -0.367676,0.39125 -0.218486,1.12023 0.280026,1.36805 0.21551,0.10712 0.219289,0.10732 4.506194,0.0943 l 4.290514,-0.0131 0.190752,-0.14556 c 0.228651,-0.17442 0.378818,-0.48127 0.380249,-0.77738 0.0014,-0.27426 -0.09992,-0.4708 -0.335174,-0.65036 l -0.185214,-0.14139 -1.682785,-0.0252 c -1.36142,-0.0204 -1.691006,-0.0386 -1.725977,-0.0953 -0.04788,-0.0776 -0.103871,-1.54398 -0.119363,-3.12619 -0.0085,-0.8693 0.0017,-1.03372 0.0656,-1.06712 0.04161,-0.0218 0.335702,-0.0878 0.653725,-0.14681 0.853616,-0.15859 1.584954,-0.42041 2.570704,-0.92044 0.938689,-0.47615 1.218373,-0.66347 1.775583,-1.18913 1.259512,-1.18819 2.165085,-2.82299 2.51153,-4.53403 0.175574,-0.8671 0.201898,-1.55377 0.168845,-4.38483 -0.03046,-2.60887 -0.03444,-2.69425 -0.137368,-2.87776 -0.275287,-0.49078 -0.901981,-0.60339 -1.334145,-0.23973 -0.296384,0.2494 -0.298843,0.2738 -0.332905,3.49738 -0.02395,2.26788 -0.04836,3.04503 -0.106268,3.37889 -0.483036,2.78499 -2.590109,4.93802 -5.416776,5.5353 -0.598786,0.12653 -1.973052,0.12653 -2.57184,0 -2.827834,-0.59752 -4.933764,-2.7501 -5.417282,-5.53781 -0.05823,-0.33571 -0.08374,-1.12793 -0.110927,-3.44035 -0.03443,-2.92674 -0.03811,-3.00918 -0.1415223,-3.19355 -0.1731285,-0.30864 -0.4782575,-0.45907 -0.7796341,-0.4538 z m 12.5563821,7.61943 c -0.0012,2.5e-4 -0.0025,0.002 -0.0035,0.006 -0.0099,0.035 -0.0073,0.0777 0,0.12289 0.0052,-0.0106 0.01072,-0.02 0.0155,-0.0315 0.01037,-0.025 -0.0028,-0.0989 -0.01197,-0.0971 z m 0.05717,0.15639 c -0.01477,0.0165 -0.02893,0.0328 -0.0452,0.05 0.0034,0.0145 0.006,0.0283 0.0095,0.0428 0.01237,-0.0307 0.02387,-0.0618 0.03576,-0.0928 z m -5.767688,2.72868 c 0.01866,0.0201 0.03771,0.0396 0.05867,0.0572 0.01091,0.009 -0.0094,-0.0293 -0.02127,-0.037 -0.01194,-0.008 -0.02453,-0.0141 -0.03739,-0.0202 z"
         style="fill:url(#radialGradient4783);fill-opacity:1;stroke:#4d4d4d;stroke-width:0.2;stroke-miterlimit:4;stroke-dasharray:none"
         id="path4630" />
      <rect
         style="opacity:1;fill:url(#radialGradient995);fill-opacity:1;fill-rule:evenodd;stroke:#4d4d4d;stroke-width:0.2;stroke-miterlimit:4;stroke-dasharray:none;stroke-dashoffset:0;stroke-opacity:1"
         id="rect993"
         width="10.307489"
         height="22.251244"
         x="11.783079"
         y="264.2869"
         ry="4.870471"
         rx="5.1537447" />
      <rect
         style="opacity:1;fill:url(#linearGradient1000);fill-opacity:1;fill-rule:evenodd;stroke:none;stroke-width:1.5819881;stroke-miterlimit:4;stroke-dasharray:none;stroke-dashoffset:0;stroke-opacity:1"
         id="rect998"
         width="10.307408"
         height="2.6483836"
         x="11.776092"
         y="274.60403"
         ry="0" />
      <path
         inkscape:connector-curvature="0"
         id="rect4695"
         d="m 11.78307,277.2108 v 4.45685 c 0,2.69824 2.298577,4.87047 5.153752,4.87047 2.855174,0 5.153752,-2.17223 5.153752,-4.87047 v -4.45685 z"
         style="opacity:1;fill:url(#radialGradient4699);fill-opacity:1;fill-rule:evenodd;stroke:#4d4d4d;stroke-width:0.2;stroke-miterlimit:4;stroke-dasharray:none;stroke-dashoffset:0;stroke-opacity:1" />
    </g>
  </g>
</svg>
