<?xml version="1.0" encoding="UTF-8" standalone="no"?>
<!-- Created with Inkscape (http://www.inkscape.org/) -->

<svg
   xmlns:dc="http://purl.org/dc/elements/1.1/"
   xmlns:cc="http://creativecommons.org/ns#"
   xmlns:rdf="http://www.w3.org/1999/02/22-rdf-syntax-ns#"
   xmlns:svg="http://www.w3.org/2000/svg"
   xmlns="http://www.w3.org/2000/svg"
   xmlns:xlink="http://www.w3.org/1999/xlink"
   xmlns:sodipodi="http://sodipodi.sourceforge.net/DTD/sodipodi-0.dtd"
   xmlns:inkscape="http://www.inkscape.org/namespaces/inkscape"
   width="128"
   height="128"
   viewBox="0 0 33.866666 33.866668"
   version="1.1"
   id="svg8"
   inkscape:version="0.92.2 5c3e80d, 2017-08-06"
   sodipodi:docname="timetable.svg">
  <defs
     id="defs2">
    <linearGradient
       inkscape:collect="always"
       id="linearGradient915">
      <stop
         style="stop-color:#ed343f;stop-opacity:1"
         offset="0"
         id="stop911" />
      <stop
         style="stop-color:#f27039;stop-opacity:1"
         offset="1"
         id="stop913" />
    </linearGradient>
    <linearGradient
       inkscape:collect="always"
       xlink:href="#linearGradient915"
       id="linearGradient917"
       x1="17.961367"
       y1="266.87518"
       x2="17.961367"
       y2="275.06796"
       gradientUnits="userSpaceOnUse" />
  </defs>
  <sodipodi:namedview
     id="base"
     pagecolor="#ffffff"
     bordercolor="#666666"
     borderopacity="1.0"
     inkscape:pageopacity="0.0"
     inkscape:pageshadow="2"
     inkscape:zoom="2"
     inkscape:cx="44.386873"
     inkscape:cy="27.919476"
     inkscape:document-units="mm"
     inkscape:current-layer="layer1"
     showgrid="false"
     units="px"
     inkscape:window-width="1600"
     inkscape:window-height="803"
     inkscape:window-x="0"
     inkscape:window-y="0"
     inkscape:window-maximized="1" />
  <metadata
     id="metadata5">
    <rdf:RDF>
      <cc:Work
         rdf:about="">
        <dc:format>image/svg+xml</dc:format>
        <dc:type
           rdf:resource="http://purl.org/dc/dcmitype/StillImage" />
        <dc:title />
      </cc:Work>
    </rdf:RDF>
  </metadata>
  <g
     inkscape:label="Layer 1"
     inkscape:groupmode="layer"
     id="layer1"
     transform="translate(0,-263.13332)">
    <g
       id="g930"
       transform="rotate(-8.9999995,16.906005,280.89719)">
      <rect
         ry="1.1324556"
         y="268.85574"
         x="2.6030133"
         height="24.61356"
         width="28.577274"
         id="rect1901"
         style="opacity:0.25;fill:#000000;fill-opacity:1;stroke:none;stroke-width:0.47076741;stroke-miterlimit:4;stroke-dasharray:none;stroke-dashoffset:0;stroke-opacity:1" />
      <rect
         style="opacity:1;fill:#3a424a;fill-opacity:1;stroke:none;stroke-width:0.47076741;stroke-miterlimit:4;stroke-dasharray:none;stroke-dashoffset:0;stroke-opacity:1"
         id="rect1883"
         width="28.577274"
         height="24.61356"
         x="2.6863792"
         y="268.32938"
         ry="1.1324556" />
      <rect
         style="opacity:0.25;fill:#000000;fill-opacity:1;stroke:none;stroke-width:0.45826426;stroke-miterlimit:4;stroke-dasharray:none;stroke-dashoffset:0;stroke-opacity:1"
         id="rect1897"
         width="26.646011"
         height="25.013943"
         x="3.5686386"
         y="267.19037"
         ry="0" />
      <rect
         ry="0"
         y="266.664"
         x="3.6520047"
         height="25.013943"
         width="26.646011"
         id="rect1881"
         style="opacity:1;fill:#f4f4f4;fill-opacity:1;stroke:none;stroke-width:0.20141868;stroke-miterlimit:4;stroke-dasharray:none;stroke-dashoffset:0;stroke-opacity:1" />
      <path
         style="opacity:0.25;fill:#000000;fill-opacity:1;stroke:none;stroke-width:0.45826426;stroke-miterlimit:4;stroke-dasharray:none;stroke-dashoffset:0;stroke-opacity:1"
         d="m 3.5688905,267.19037 4.2e-6,8.60582 26.6460053,10e-6 -2e-6,-8.60584 z"
         id="path1903"
         inkscape:connector-curvature="0" />
      <path
         inkscape:connector-curvature="0"
         id="rect1892"
         d="m 3.6522597,266.66399 4.7e-6,8.60583 26.6460046,1e-5 5e-6,-8.60582 z"
         style="opacity:1;fill:url(#linearGradient917);fill-opacity:1;stroke:none;stroke-width:0.45826426;stroke-miterlimit:4;stroke-dasharray:none;stroke-dashoffset:0;stroke-opacity:1" />
      <g
         aria-label="JUL"
         style="font-style:normal;font-weight:normal;font-size:5.62844658px;line-height:1.25;font-family:sans-serif;letter-spacing:0px;word-spacing:0px;fill:#ffffff;fill-opacity:1;stroke:none;stroke-width:0.14071116"
         id="g1911"
         transform="matrix(1.0924711,-9.8226198e-4,9.8226198e-4,1.0924711,-2.1910541,-23.962442)">
        <path
           inkscape:connector-curvature="0"
           d="m 12.475604,270.81732 0.480947,-0.0659 q 0.01924,0.4617 0.17314,0.6321 0.153903,0.17039 0.425981,0.17039 0.200624,0 0.346282,-0.0907 0.145658,-0.0935 0.200623,-0.2501 0.05496,-0.1594 0.05496,-0.50568 v -2.77574 h 0.533164 v 2.74551 q 0,0.50568 -0.123672,0.78326 -0.120924,0.27757 -0.387506,0.42323 -0.263833,0.14566 -0.621107,0.14566 -0.530416,0 -0.813487,-0.30506 -0.280323,-0.30506 -0.26933,-0.90693 z"
           style="font-style:normal;font-variant:normal;font-weight:normal;font-stretch:normal;font-family:arial;-inkscape-font-specification:arial;fill:#ffffff;stroke-width:0.14071116"
           id="path1905" />
        <path
           inkscape:connector-curvature="0"
           d="M 18.205737,267.93165 H 18.7389 v 2.32778 q 0,0.60736 -0.137413,0.96464 -0.137414,0.35727 -0.497436,0.58263 -0.357275,0.22261 -0.939907,0.22261 -0.566142,0 -0.926165,-0.19513 -0.360023,-0.19513 -0.513926,-0.56339 -0.153903,-0.37102 -0.153903,-1.01136 v -2.32778 h 0.533164 v 2.32503 q 0,0.52492 0.09619,0.77501 0.09894,0.24734 0.335288,0.38201 0.2391,0.13466 0.582633,0.13466 0.588128,0 0.83822,-0.26658 0.250093,-0.26658 0.250093,-1.0251 z"
           style="font-style:normal;font-variant:normal;font-weight:normal;font-stretch:normal;font-family:arial;-inkscape-font-specification:arial;fill:#ffffff;stroke-width:0.14071116"
           id="path1907" />
        <path
           inkscape:connector-curvature="0"
           d="m 19.607351,271.9606 v -4.02895 h 0.533164 v 3.5535 h 1.984247 v 0.47545 z"
           style="font-style:normal;font-variant:normal;font-weight:normal;font-stretch:normal;font-family:arial;-inkscape-font-specification:arial;fill:#ffffff;stroke-width:0.14071116"
           id="path1909" />
      </g>
      <path
         id="path1915"
         style="font-style:normal;font-variant:normal;font-weight:normal;font-stretch:normal;font-size:medium;line-height:1.25;font-family:Arial;-inkscape-font-specification:Arial;letter-spacing:0px;word-spacing:0px;fill:#363636;fill-opacity:1;stroke:none;stroke-width:0.380438"
         d="m 13.644419,279.4832 -0.0012,-1.28547 7.051476,-0.006 9.35e-4,1.04026 q -1.039264,1.10807 -2.063013,2.94431 -1.016319,1.83624 -1.571856,3.77607 -0.400015,1.36757 -0.510008,2.99492 l -1.374629,10e-4 q 0.02113,-1.28548 0.502476,-3.10637 0.481342,-1.82089 1.378907,-3.5084 0.904989,-1.69496 1.921915,-2.85502 z"
         inkscape:connector-curvature="0" />
    </g>
  </g>
</svg>
