<?xml version="1.0" encoding="UTF-8" standalone="no"?>
<!-- Created with Inkscape (http://www.inkscape.org/) -->

<svg
   xmlns:dc="http://purl.org/dc/elements/1.1/"
   xmlns:cc="http://creativecommons.org/ns#"
   xmlns:rdf="http://www.w3.org/1999/02/22-rdf-syntax-ns#"
   xmlns:svg="http://www.w3.org/2000/svg"
   xmlns="http://www.w3.org/2000/svg"
   xmlns:xlink="http://www.w3.org/1999/xlink"
   xmlns:sodipodi="http://sodipodi.sourceforge.net/DTD/sodipodi-0.dtd"
   xmlns:inkscape="http://www.inkscape.org/namespaces/inkscape"
   width="128"
   height="128"
   viewBox="0 0 33.866666 33.866668"
   version="1.1"
   id="svg8"
   inkscape:version="0.92.2 5c3e80d, 2017-08-06"
   sodipodi:docname="s.svg">
  <defs
     id="defs2">
    <linearGradient
       inkscape:collect="always"
       id="linearGradient2166">
      <stop
         style="stop-color:#d5dbff;stop-opacity:1"
         offset="0"
         id="stop2162" />
      <stop
         style="stop-color:#ebf1ff;stop-opacity:1"
         offset="1"
         id="stop2164" />
    </linearGradient>
    <linearGradient
       inkscape:collect="always"
       id="linearGradient2145">
      <stop
         style="stop-color:#0095ed;stop-opacity:1"
         offset="0"
         id="stop2141" />
      <stop
         style="stop-color:#0082e1;stop-opacity:1"
         offset="1"
         id="stop2143" />
    </linearGradient>
    <linearGradient
       inkscape:collect="always"
       id="linearGradient2137">
      <stop
         style="stop-color:#ff782d;stop-opacity:1"
         offset="0"
         id="stop2133" />
      <stop
         style="stop-color:#fe473a;stop-opacity:1"
         offset="1"
         id="stop2135" />
    </linearGradient>
    <linearGradient
       inkscape:collect="always"
       xlink:href="#linearGradient2137"
       id="linearGradient2139"
       x1="191.95992"
       y1="231.87236"
       x2="192.57664"
       y2="243.63277"
       gradientUnits="userSpaceOnUse"
       gradientTransform="matrix(1.1778895,0,0,1.1778895,-108.90907,-41.669543)" />
    <linearGradient
       inkscape:collect="always"
       xlink:href="#linearGradient2145"
       id="linearGradient2147"
       x1="194.77318"
       y1="237.23222"
       x2="194.84169"
       y2="240.89153"
       gradientUnits="userSpaceOnUse"
       gradientTransform="matrix(1.1778895,0,0,1.1778895,-108.90907,-41.669543)" />
    <linearGradient
       inkscape:collect="always"
       xlink:href="#linearGradient2166"
       id="linearGradient2168"
       x1="121.58558"
       y1="253.13274"
       x2="120.57157"
       y2="226.48541"
       gradientUnits="userSpaceOnUse" />
  </defs>
  <sodipodi:namedview
     id="base"
     pagecolor="#ffffff"
     bordercolor="#666666"
     borderopacity="1.0"
     inkscape:pageopacity="0.0"
     inkscape:pageshadow="2"
     inkscape:zoom="3.959798"
     inkscape:cx="121.42547"
     inkscape:cy="63.502467"
     inkscape:document-units="mm"
     inkscape:current-layer="layer1"
     showgrid="false"
     units="px"
     inkscape:window-width="1600"
     inkscape:window-height="803"
     inkscape:window-x="0"
     inkscape:window-y="0"
     inkscape:window-maximized="1" />
  <metadata
     id="metadata5">
    <rdf:RDF>
      <cc:Work
         rdf:about="">
        <dc:format>image/svg+xml</dc:format>
        <dc:type
           rdf:resource="http://purl.org/dc/dcmitype/StillImage" />
        <dc:title></dc:title>
      </cc:Work>
    </rdf:RDF>
  </metadata>
  <g
     inkscape:label="Layer 1"
     inkscape:groupmode="layer"
     id="layer1"
     transform="translate(0,-263.13332)">
    <g
       id="g2183"
       transform="matrix(0.98844658,0,0,0.98844658,-102.18596,43.656709)">
      <circle
         style="opacity:0.25;fill:#000000;fill-opacity:1;stroke:none;stroke-width:0.23217425;stroke-miterlimit:4;stroke-dasharray:none;stroke-dashoffset:0;stroke-opacity:1"
         id="circle2175"
         cx="120.51161"
         cy="239.48779"
         r="15.745975" />
      <circle
         r="15.745975"
         cy="238.95863"
         cx="120.51161"
         id="path1340"
         style="opacity:1;fill:url(#linearGradient2168);fill-opacity:1;stroke:#8b8ea6;stroke-width:0.2;stroke-miterlimit:4;stroke-dasharray:none;stroke-dashoffset:0;stroke-opacity:1" />
      <path
         id="path2173"
         d="m 117.1985,231.97965 c -0.17042,-0.002 -0.3433,0.0317 -0.51008,0.10471 -0.62817,0.27634 -0.9106,1.00313 -0.63547,1.63007 l 0.87286,1.98677 c -0.32869,0.2033 -0.64642,0.42365 -0.95321,0.65374 l -1.7153,-1.11391 c -0.5746,-0.37252 -1.33789,-0.2106 -1.71164,0.36522 -0.37252,0.5746 -0.2106,1.3379 0.36522,1.71041 l 1.11756,0.72557 c -1.2113,1.18695 -2.00382,2.22659 -2.00382,2.22659 -0.11201,0.14731 -0.16799,0.32261 -0.16799,0.4979 0,0.17531 0.056,0.35062 0.16799,0.49792 0,0 1.07131,1.40607 2.62834,2.81459 1.55702,1.40972 3.60467,2.91685 5.85925,2.91685 2.25339,0 4.30223,-1.50713 5.85927,-2.91685 1.55703,-1.40852 2.62711,-2.81459 2.62711,-2.81459 0.11202,-0.1473 0.168,-0.32261 0.168,-0.49792 0,-0.17529 -0.056,-0.35059 -0.168,-0.4979 0,0 -0.79251,-1.04208 -2.00624,-2.23024 l 1.11268,-0.72192 c 0.57461,-0.37251 0.73774,-1.13581 0.364,-1.71041 -0.37252,-0.57582 -1.13581,-0.73774 -1.71042,-0.36522 l -1.71164,1.11026 c -0.30678,-0.23009 -0.62574,-0.45165 -0.95564,-0.65496 l 0.87042,-1.9819 c 0.27634,-0.62694 -0.007,-1.35373 -0.63426,-1.63007 -0.16678,-0.073 -0.34086,-0.10707 -0.5113,-0.10471 -0.47112,0.004 -0.91669,0.27877 -1.11877,0.74016 l -0.87165,1.98312 c -0.42851,-0.1059 -0.86677,-0.16557 -1.31356,-0.16557 -0.44921,0 -0.89112,0.0609 -1.32207,0.168 l -0.87164,-1.98555 c -0.2033,-0.46139 -0.64888,-0.73651 -1.12,-0.74016 z m 0,0"
         style="opacity:0.25;fill:#000000;fill-opacity:1;fill-rule:nonzero;stroke:none;stroke-width:0.31164992"
         inkscape:connector-curvature="0" />
      <path
         inkscape:connector-curvature="0"
         style="fill:url(#linearGradient2139);fill-opacity:1;fill-rule:nonzero;stroke:none;stroke-width:0.31164992"
         d="m 117.1985,231.45048 c -0.17042,-0.002 -0.3433,0.0317 -0.51008,0.10471 -0.62817,0.27634 -0.9106,1.00313 -0.63547,1.63007 l 0.87286,1.98677 c -0.32869,0.2033 -0.64642,0.42365 -0.95321,0.65374 l -1.7153,-1.11391 c -0.5746,-0.37252 -1.33789,-0.2106 -1.71164,0.36522 -0.37252,0.5746 -0.2106,1.3379 0.36522,1.71041 l 1.11756,0.72557 c -1.2113,1.18695 -2.00382,2.22659 -2.00382,2.22659 -0.11201,0.14731 -0.16799,0.32261 -0.16799,0.4979 0,0.17531 0.056,0.35062 0.16799,0.49792 0,0 1.07131,1.40607 2.62834,2.81459 1.55702,1.40972 3.60467,2.91685 5.85925,2.91685 2.25339,0 4.30223,-1.50713 5.85927,-2.91685 1.55703,-1.40852 2.62711,-2.81459 2.62711,-2.81459 0.11202,-0.1473 0.168,-0.32261 0.168,-0.49792 0,-0.17529 -0.056,-0.35059 -0.168,-0.4979 0,0 -0.79251,-1.04208 -2.00624,-2.23024 l 1.11268,-0.72192 c 0.57461,-0.37251 0.73774,-1.13581 0.364,-1.71041 -0.37252,-0.57582 -1.13581,-0.73774 -1.71042,-0.36522 l -1.71164,1.11026 c -0.30678,-0.23009 -0.62574,-0.45165 -0.95564,-0.65496 l 0.87042,-1.9819 c 0.27634,-0.62694 -0.007,-1.35373 -0.63426,-1.63007 -0.16678,-0.073 -0.34086,-0.10707 -0.5113,-0.10471 -0.47112,0.004 -0.91669,0.27877 -1.11877,0.74016 l -0.87165,1.98312 c -0.42851,-0.1059 -0.86677,-0.16557 -1.31356,-0.16557 -0.44921,0 -0.89112,0.0609 -1.32207,0.168 l -0.87164,-1.98555 c -0.2033,-0.46139 -0.64888,-0.73651 -1.12,-0.74016 z m 0,0"
         id="path2121" />
      <path
         inkscape:connector-curvature="0"
         style="fill:#dce2ff;fill-opacity:1;fill-rule:nonzero;stroke:none;stroke-width:0.31164992"
         d="m 120.51221,235.29009 c 2.73181,0 4.94745,2.21442 4.94745,4.94744 0,2.73303 -2.21564,4.94745 -4.94745,4.94745 -2.73302,0 -4.94865,-2.21442 -4.94865,-4.94745 0,-2.73302 2.21563,-4.94744 4.94865,-4.94744 z m 0,0"
         id="path2123" />
      <path
         inkscape:connector-curvature="0"
         style="fill:url(#linearGradient2147);fill-opacity:1;fill-rule:nonzero;stroke:none;stroke-width:0.31164992"
         d="m 120.51221,237.76381 c 1.36591,0 2.47372,1.10783 2.47372,2.47372 0,1.36591 -1.10781,2.47373 -2.47372,2.47373 -1.36711,0 -2.47372,-1.10782 -2.47372,-2.47373 0,-1.36589 1.10661,-2.47372 2.47372,-2.47372 z m 0,0"
         id="path2125" />
    </g>
  </g>
</svg>
