<?xml version="1.0" encoding="UTF-8" standalone="no"?>
<!-- Created with Inkscape (http://www.inkscape.org/) -->

<svg
   xmlns:osb="http://www.openswatchbook.org/uri/2009/osb"
   xmlns:dc="http://purl.org/dc/elements/1.1/"
   xmlns:cc="http://creativecommons.org/ns#"
   xmlns:rdf="http://www.w3.org/1999/02/22-rdf-syntax-ns#"
   xmlns:svg="http://www.w3.org/2000/svg"
   xmlns="http://www.w3.org/2000/svg"
   xmlns:xlink="http://www.w3.org/1999/xlink"
   xmlns:sodipodi="http://sodipodi.sourceforge.net/DTD/sodipodi-0.dtd"
   xmlns:inkscape="http://www.inkscape.org/namespaces/inkscape"
   width="128"
   height="128"
   viewBox="0 0 33.866665 33.866665"
   version="1.1"
   id="svg4942"
   inkscape:version="0.92.2 5c3e80d, 2017-08-06"
   sodipodi:docname="applications-development.svg">
  <defs
     id="defs4936">
    <linearGradient
       inkscape:collect="always"
       id="linearGradient1011">
      <stop
         id="stop1009"
         offset="0"
         style="stop-color:#97b2cc;stop-opacity:1" />
      <stop
         id="stop1007"
         offset="1"
         style="stop-color:#708699;stop-opacity:1" />
    </linearGradient>
    <linearGradient
       inkscape:collect="always"
       id="linearGradient1434">
      <stop
         id="stop1432"
         offset="0"
         style="stop-color:#717880;stop-opacity:1" />
      <stop
         id="stop1430"
         offset="1"
         style="stop-color:#000000;stop-opacity:1;" />
    </linearGradient>
    <linearGradient
       id="linearGradient1316"
       inkscape:collect="always">
      <stop
         id="stop1312"
         offset="0"
         style="stop-color:#0b77e7;stop-opacity:1" />
      <stop
         id="stop1314"
         offset="1"
         style="stop-color:#57c6fa;stop-opacity:1" />
    </linearGradient>
    <linearGradient
       id="linearGradient6987"
       osb:paint="solid">
      <stop
         style="stop-color:#77d2fb;stop-opacity:1;"
         offset="0"
         id="stop6985" />
    </linearGradient>
    <linearGradient
       inkscape:collect="always"
       xlink:href="#linearGradient1316"
       id="linearGradient1014"
       gradientUnits="userSpaceOnUse"
       gradientTransform="matrix(0.18408779,0,0,0.18408779,229.81255,161.60871)"
       x1="-285.80493"
       y1="576.80786"
       x2="-299.31662"
       y2="484.03067" />
    <linearGradient
       inkscape:collect="always"
       xlink:href="#linearGradient1011"
       id="linearGradient1016"
       gradientUnits="userSpaceOnUse"
       x1="94.049179"
       y1="191.1839"
       x2="106.5265"
       y2="195.74367"
       gradientTransform="matrix(0.26585343,0,0,0.26585343,161.94123,198.14956)" />
    <linearGradient
       inkscape:collect="always"
       xlink:href="#linearGradient1434"
       id="linearGradient1018"
       gradientUnits="userSpaceOnUse"
       gradientTransform="matrix(0.17379249,0,0,0.17817161,272.46369,84.669717)"
       x1="-109.20533"
       y1="544.98846"
       x2="-99.211632"
       y2="544.9848" />
  </defs>
  <sodipodi:namedview
     id="base"
     pagecolor="#ffffff"
     bordercolor="#666666"
     borderopacity="1.0"
     inkscape:pageopacity="0.0"
     inkscape:pageshadow="2"
     inkscape:zoom="3.4465442"
     inkscape:cx="74.544125"
     inkscape:cy="48.005472"
     inkscape:document-units="mm"
     inkscape:current-layer="layer1"
     showgrid="false"
     units="px"
     width="128px"
     inkscape:window-width="1600"
     inkscape:window-height="814"
     inkscape:window-x="0"
     inkscape:window-y="0"
     inkscape:window-maximized="1"
     inkscape:measure-start="-293.521,100.415"
     inkscape:measure-end="-294.709,409.978" />
  <metadata
     id="metadata4939">
    <rdf:RDF>
      <cc:Work
         rdf:about="">
        <dc:format>image/svg+xml</dc:format>
        <dc:type
           rdf:resource="http://purl.org/dc/dcmitype/StillImage" />
        <dc:title></dc:title>
      </cc:Work>
    </rdf:RDF>
  </metadata>
  <g
     inkscape:label="Layer 1"
     inkscape:groupmode="layer"
     id="layer1"
     transform="translate(0,-263.13332)">
    <g
       id="g1046"
       transform="matrix(0.99701628,0,0,0.99702035,-162.52975,21.5026)"
       style="stroke-width:1.0029906">
      <path
         sodipodi:nodetypes="ccccc"
         inkscape:connector-curvature="0"
         id="path1030"
         d="m 163.33167,252.55973 26.93195,-4.28515 3.5712,21.7756 -27.20866,4.30393 z"
         style="opacity:0.25;fill:#000000;fill-opacity:1;fill-rule:nonzero;stroke:none;stroke-width:0.30089718;stroke-linecap:round;stroke-linejoin:round;stroke-miterlimit:4;stroke-dasharray:none;stroke-dashoffset:0;stroke-opacity:1" />
      <path
         style="opacity:1;fill:url(#linearGradient1014);fill-opacity:1;fill-rule:nonzero;stroke:#357999;stroke-width:0.10029906;stroke-linecap:round;stroke-linejoin:round;stroke-miterlimit:4;stroke-dasharray:none;stroke-dashoffset:0;stroke-opacity:1"
         d="m 163.33167,252.03056 26.93195,-4.28515 3.5712,21.7756 -27.20866,4.30393 z"
         id="path998"
         inkscape:connector-curvature="0"
         sodipodi:nodetypes="ccccc" />
      <path
         sodipodi:nodetypes="ssccscsssssscssscsssscsssccsscssccccscscscsccccccscccsccsssscsscccsssssscsssscsssssscscs"
         style="fill:none;fill-opacity:1;stroke:#ffffff;stroke-width:0.20059812;stroke-linecap:round;stroke-linejoin:round;stroke-miterlimit:4;stroke-dasharray:none;stroke-opacity:1"
         d="m 171.65083,268.88644 c 0.50521,-0.63427 1.03294,-1.29334 1.17274,-1.46455 0.13977,-0.17111 0.2527,-0.32621 0.25089,-0.34442 -0.003,-0.0331 -1.93669,-0.9166 -2.01864,-0.92228 -0.0246,-7.4e-4 -0.0512,0.0478 -0.0603,0.11084 -0.0204,0.14089 -0.22735,2.25725 -0.33854,3.46192 -0.0237,0.25706 -0.0133,0.32626 0.0474,0.31624 0.0143,-0.002 0.44091,-0.5235 0.9461,-1.1578 z m 16.58217,-1.84916 c 0.24768,-0.46676 0.27665,-1.39301 0.0683,-2.18469 -0.23698,-0.90062 -0.59054,-1.49261 -1.15329,-1.93113 -0.4174,-0.32525 -0.73113,-0.35934 -1.04258,-0.11328 -0.4856,0.38363 -0.94086,0.7805 -1.00283,0.8742 -0.18488,0.27948 -0.10423,0.67148 0.23321,1.13353 0.34114,0.46727 0.66847,0.71217 1.35684,1.01514 0.71021,0.3126 1.02325,0.58958 1.25336,1.10888 0.0739,0.16658 0.13232,0.23172 0.1996,0.22209 0.012,-10e-4 0.052,-0.0579 0.0873,-0.12483 z m -14.50169,-1.46789 c 0.85542,-2.36225 1.95934,-5.30044 2.65476,-7.06586 0.15157,-0.38502 0.27408,-0.71022 0.27203,-0.72261 -0.007,-0.0402 -1.99405,-0.85092 -2.04023,-0.8324 -0.0467,0.0175 -1.21086,3.00047 -2.02594,5.18791 -0.2584,0.69341 -0.64898,1.68423 -0.86801,2.2018 -0.21903,0.51758 -0.4313,1.01935 -0.47174,1.11506 -0.0425,0.10033 -0.0593,0.1837 -0.0397,0.19708 0.0939,0.0643 2.10691,0.92877 2.1329,0.9159 0.0159,-0.008 0.1903,-0.45689 0.3859,-0.997 z m 11.6591,-2.71529 c 0.42459,-0.3439 0.79575,-0.65632 0.82485,-0.69429 0.0518,-0.0677 0.0482,-0.0749 -0.17424,-0.34496 -0.12497,-0.15179 -0.42877,-0.52289 -0.67531,-0.82469 -0.24648,-0.3018 -0.47099,-0.5494 -0.49885,-0.55024 -0.0739,-0.002 -1.67431,1.32379 -1.67602,1.38863 -7.4e-4,0.0539 1.1997,1.5401 1.3215,1.63503 0.035,0.0272 0.0732,0.0421 0.0848,0.0327 0.0107,-0.009 0.36859,-0.29831 0.79316,-0.64218 z m 3.24293,-2.3162 c 0.008,-0.0257 -0.0658,-0.53157 -0.16858,-1.12367 l -0.18524,-1.07681 -1.99472,0.31981 c -1.74034,0.28023 -1.99219,0.32673 -1.97596,0.36727 0.009,0.0258 0.37172,0.48784 0.8033,1.0274 l 0.78472,0.981 0.13281,-0.0122 c 0.0731,-0.007 0.68476,-0.10826 1.35956,-0.22464 0.96986,-0.16757 1.23021,-0.22281 1.24367,-0.25946 z m -6.31341,0.99576 c 0.002,-0.0174 -0.3287,-0.45192 -0.73656,-0.96571 l -0.74163,-0.93424 -2.43031,0.40155 -2.43034,0.40156 -0.40219,1.13381 c -0.22118,0.62359 -0.39302,1.14431 -0.38181,1.15716 0.0299,0.0329 7.1164,-1.15628 7.12287,-1.19397 z m -10.46893,1.54657 c 0.0465,-0.12347 0.23814,-0.63209 0.42615,-1.13045 0.18801,-0.49835 0.33935,-0.92113 0.33632,-0.93949 -0.004,-0.0214 -0.67654,0.0803 -2.044,0.31208 l -2.03827,0.34655 0.026,0.2314 c 0.0161,0.12704 0.0986,0.60184 0.1865,1.05483 l 0.16049,0.82348 1.43131,-0.23649 1.43131,-0.23649 z m 11.95089,-2.4038 c 0.75652,-0.59554 0.74486,-0.58536 0.73519,-0.64392 -0.009,-0.0571 -0.576,-0.75991 -2.49009,-3.08893 -2.10394,-2.56009 -3.03074,-3.68872 -3.64714,-4.44144 -0.60759,-0.74196 -0.74449,-0.87632 -0.96408,-0.94619 -0.17297,-0.0549 -0.42997,-0.0254 -0.58409,0.067 -0.14663,0.0882 -0.64692,0.5018 -0.77434,0.64046 -0.20434,0.22232 -0.23337,0.60008 -0.0664,0.86647 0.0899,0.14366 0.0342,0.074 2.02286,2.49064 3.13199,3.80445 4.73516,5.71911 4.82118,5.75797 0.021,0.009 0.10551,-0.037 0.18757,-0.10206 0.0819,-0.0658 0.42364,-0.33574 0.75951,-0.60016 z m -6.81895,-3.84713 c 0.28106,-0.71157 0.31919,-0.83425 0.31432,-1.01158 -0.0101,-0.36834 -0.23966,-0.57834 -0.89459,-0.81901 -0.37135,-0.13648 -0.42999,-0.14828 -0.63094,-0.12656 -0.27442,0.0307 -0.39945,0.10899 -0.55186,0.35084 -0.11419,0.18105 -0.49729,1.23681 -0.48149,1.32655 0.006,0.032 0.38085,0.20282 0.99192,0.45139 0.54056,0.2199 0.99312,0.39887 1.00569,0.3977 0.012,-0.001 0.12381,-0.25738 0.24695,-0.56935 z"
         id="path1000"
         inkscape:connector-curvature="0" />
      <path
         sodipodi:nodetypes="ccccc"
         inkscape:connector-curvature="0"
         id="path1002"
         d="m 164.74529,252.842 24.43571,-3.88797 3.2402,19.75728 -24.68677,3.90501 z"
         style="opacity:1;fill:none;fill-opacity:1;fill-rule:nonzero;stroke:#ffffff;stroke-width:0.20059812;stroke-linecap:round;stroke-linejoin:round;stroke-miterlimit:4;stroke-dasharray:none;stroke-dashoffset:0;stroke-opacity:1" />
      <path
         sodipodi:nodetypes="cscssssssssssssscc"
         inkscape:connector-curvature="0"
         id="path1036"
         d="m 179.26707,247.59674 c 6.08544,-4.8699 7.36686,-2.93868 11.95653,-1.98161 0.55805,0.11637 -0.17873,1.35075 1.86314,1.8532 1.53396,0.47496 1.64218,-0.47636 1.94302,-0.36632 0.95401,0.34894 1.73433,0.38566 1.63003,0.65309 -0.57915,1.48496 -1.34434,4.19698 -1.34434,4.19698 -0.11282,0.32148 -1.20652,-0.22708 -1.50902,-0.36417 -0.52317,-0.2371 0.0391,-0.9565 -1.33192,-1.39777 -0.58305,-0.18767 -1.77022,-0.72096 -2.46783,0.59863 -1.1178,2.11444 -1.35467,4.07346 -1.4201,4.08723 0,0 -0.33389,-0.0132 -0.36037,0.0757 -0.57548,1.93146 -0.99988,3.09192 -1.27905,4.02874 -0.30493,1.02322 -3.32687,0.16642 -2.98043,-0.91868 0.43646,-1.36706 0.78222,-2.25975 1.27879,-4.05579 0.0345,-0.12478 -0.25928,-0.19005 -0.17682,-0.41313 0.6198,-1.67667 0.92559,-2.57034 1.24854,-4.07715 0.49036,-2.28789 -3.57347,-2.54915 -7.05017,-1.91897 z"
         style="opacity:0.25;fill:#000000;fill-opacity:1;stroke:none;stroke-width:0.10029906;stroke-linecap:butt;stroke-linejoin:miter;stroke-miterlimit:4;stroke-dasharray:none;stroke-opacity:1" />
      <path
         style="fill:url(#linearGradient1016);fill-opacity:1;stroke:#4d4d4d;stroke-width:0.10029906;stroke-linecap:butt;stroke-linejoin:miter;stroke-miterlimit:4;stroke-dasharray:none;stroke-opacity:1"
         d="m 179.26707,247.06757 c 6.08544,-4.8699 7.36686,-2.93868 11.95653,-1.98161 0.55805,0.11637 -0.17873,1.35075 1.86314,1.8532 1.53396,0.47496 1.64218,-0.47636 1.94302,-0.36632 0.95401,0.34894 1.73433,0.38566 1.63003,0.65309 -0.57915,1.48496 -1.34434,4.19698 -1.34434,4.19698 -0.11282,0.32148 -1.20652,-0.22708 -1.50902,-0.36417 -0.52317,-0.2371 0.0391,-0.9565 -1.33192,-1.39777 -0.58305,-0.18767 -1.77022,-0.72096 -2.46783,0.59863 -1.1178,2.11444 -1.35467,4.07346 -1.4201,4.08723 0,0 -0.33389,-0.0132 -0.36037,0.0757 -0.57548,1.93146 -0.99988,3.09192 -1.27905,4.02874 -0.30493,1.02322 -3.32687,0.16642 -2.98043,-0.91868 0.43646,-1.36706 0.78222,-2.25975 1.27879,-4.05579 0.0345,-0.12478 -0.25928,-0.19005 -0.17682,-0.41313 0.6198,-1.67667 0.92559,-2.57034 1.24854,-4.07715 0.49036,-2.28789 -3.57347,-2.54915 -7.05017,-1.91897 z"
         id="path1006"
         inkscape:connector-curvature="0"
         sodipodi:nodetypes="cscssssssssssssscc" />
      <rect
         transform="matrix(0.93208867,0.3622302,-0.30545869,0.95220533,0,0)"
         ry="1.252678"
         y="173.73903"
         x="253.64655"
         height="17.052588"
         width="4.5560484"
         id="rect1034"
         style="opacity:0.25;fill:#000000;fill-opacity:1;fill-rule:nonzero;stroke:none;stroke-width:0.74915063;stroke-linecap:round;stroke-linejoin:round;stroke-miterlimit:4;stroke-dasharray:none;stroke-dashoffset:0;stroke-opacity:1" />
      <rect
         style="opacity:1;fill:url(#linearGradient1018);fill-opacity:1;fill-rule:nonzero;stroke:none;stroke-width:0.74915063;stroke-linecap:round;stroke-linejoin:round;stroke-miterlimit:4;stroke-dasharray:none;stroke-dashoffset:0;stroke-opacity:1"
         id="rect1008"
         width="4.5560484"
         height="17.052588"
         x="253.48462"
         y="173.2449"
         ry="1.252678"
         transform="matrix(0.93208867,0.3622302,-0.30545869,0.95220533,0,0)" />
    </g>
  </g>
</svg>
