<?xml version="1.0" encoding="UTF-8" standalone="no"?>
<!-- Created with Inkscape (http://www.inkscape.org/) -->

<svg
   xmlns:dc="http://purl.org/dc/elements/1.1/"
   xmlns:cc="http://creativecommons.org/ns#"
   xmlns:rdf="http://www.w3.org/1999/02/22-rdf-syntax-ns#"
   xmlns:svg="http://www.w3.org/2000/svg"
   xmlns="http://www.w3.org/2000/svg"
   xmlns:xlink="http://www.w3.org/1999/xlink"
   xmlns:sodipodi="http://sodipodi.sourceforge.net/DTD/sodipodi-0.dtd"
   xmlns:inkscape="http://www.inkscape.org/namespaces/inkscape"
   width="128"
   height="128"
   viewBox="0 0 33.866666 33.866668"
   version="1.1"
   id="svg8"
   inkscape:version="0.92.1 r15371"
   sodipodi:docname="applications-java.svg">
  <defs
     id="defs2">
    <pattern
       inkscape:isstock="true"
       inkscape:stockid="Stripes 1:1"
       id="Strips1_1"
       patternTransform="translate(0,0) scale(10,10)"
       height="1"
       width="2"
       patternUnits="userSpaceOnUse"
       inkscape:collect="always">
      <rect
         id="rect1755"
         height="2"
         width="1"
         y="-0.5"
         x="0"
         style="fill:black;stroke:none" />
    </pattern>
    <linearGradient
       id="linearGradient897"
       inkscape:collect="always">
      <stop
         id="stop893"
         offset="0"
         style="stop-color:#d9d9d9;stop-opacity:1" />
      <stop
         id="stop895"
         offset="1"
         style="stop-color:#969998;stop-opacity:1" />
    </linearGradient>
    <linearGradient
       inkscape:collect="always"
       id="linearGradient846">
      <stop
         style="stop-color:#d9d9d9;stop-opacity:1"
         offset="0"
         id="stop842" />
      <stop
         style="stop-color:#787a79;stop-opacity:1"
         offset="1"
         id="stop844" />
    </linearGradient>
    <linearGradient
       inkscape:collect="always"
       xlink:href="#linearGradient897"
       id="linearGradient848"
       x1="-133.26918"
       y1="126.92522"
       x2="-121.78141"
       y2="152.32561"
       gradientUnits="userSpaceOnUse" />
    <linearGradient
       inkscape:collect="always"
       xlink:href="#linearGradient846"
       id="linearGradient856"
       x1="-126.82896"
       y1="88.590752"
       x2="-75.684265"
       y2="105.44576"
       gradientUnits="userSpaceOnUse" />
  </defs>
  <sodipodi:namedview
     id="base"
     pagecolor="#ffffff"
     bordercolor="#666666"
     borderopacity="1.0"
     inkscape:pageopacity="0.0"
     inkscape:pageshadow="2"
     inkscape:zoom="1.979899"
     inkscape:cx="71.507205"
     inkscape:cy="77.196036"
     inkscape:document-units="mm"
     inkscape:current-layer="layer1"
     showgrid="false"
     inkscape:window-width="1366"
     inkscape:window-height="669"
     inkscape:window-x="0"
     inkscape:window-y="28"
     inkscape:window-maximized="1"
     showguides="false"
     units="px" />
  <metadata
     id="metadata5">
    <rdf:RDF>
      <cc:Work
         rdf:about="">
        <dc:format>image/svg+xml</dc:format>
        <dc:type
           rdf:resource="http://purl.org/dc/dcmitype/StillImage" />
        <dc:title />
      </cc:Work>
    </rdf:RDF>
  </metadata>
  <g
     inkscape:label="Layer 1"
     inkscape:groupmode="layer"
     id="layer1"
     transform="translate(0,-263.13332)">
    <g
       id="g2917"
       transform="matrix(0.18402109,0,0,0.18402109,33.149924,255.31012)"
       style="stroke-width:5.17539024">
      <path
         style="opacity:1;fill:#2b3b5e;fill-opacity:1;stroke:none;stroke-width:1.36932194px;stroke-linecap:butt;stroke-linejoin:miter;stroke-opacity:1"
         d="m -149.47048,142.94298 c 0,0 -3.54132,0.53454 -4.81085,1.80407 -1.26953,1.26953 -6.08039,1.80407 -7.01583,2.60588 -0.93544,0.8018 -3.60814,2.13815 -5.61266,3.20723 -2.00452,1.06908 -8.21854,0.80181 -7.21627,2.6727 1.00226,1.87088 5.17073,8.62178 8.19454,9.8502 3.02381,1.22842 4.23349,3.04555 7.50754,4.64917 3.27405,1.60362 5.94675,6.88219 9.88897,8.48581 3.94223,1.60361 2.53906,1.60361 5.54584,4.34313 3.00679,2.73951 4.74404,3.20723 5.94675,4.81085 1.20271,1.60361 2.8609,3.7914 4.93977,4.83083 2.07887,1.03944 6.14212,3.96875 8.31548,5.10268 2.17336,1.13393 3.1183,2.17336 5.57515,3.77976 2.45684,1.6064 3.40178,3.49628 6.42559,5.95313 3.02381,2.45684 5.29167,3.21279 7.9375,5.38616 2.64584,2.17336 6.898069,5.85863 8.693454,7.18155 1.795389,1.32291 3.9159,4.60628 5.681108,2.51023 2.265584,-2.69021 3.758505,-2.18776 6.225142,-3.92765 2.456847,-1.79538 6.52009,-3.96875 8.787948,-6.99256 2.267857,-3.0238 12.588414,-9.8593 13.323406,-11.3961 0.734988,-1.5368 13.296656,-8.55262 14.365734,-10.02261 1.069078,-1.46998 3.674957,-4.14268 6.280835,-6.08038 2.605879,-1.9377 3.40242,-2.69175 5.386795,-3.92018 1.984375,-1.22842 3.401785,-3.30729 5.527903,-4.53571 2.126115,-1.22842 8.598957,-6.56733 9.260415,-7.41778 0.661458,-0.85045 6.685474,-4.90653 8.556361,-6.51015 1.8708866,-1.60362 4.2763124,-2.6727 5.3453904,-4.14268 1.0690781,-1.46998 0.4613437,-1.67864 0.4613437,-1.67864 0,0 -1.2284226,-1.84264 -2.9765625,-2.07888 -1.7481396,-0.23623 -3.8742556,-1.27566 -5.7641366,-2.03162 -1.889881,-0.75595 -2.267857,-0.0472 -4.204985,-0.99218 -1.937128,-0.94495 -5.575149,-3.59078 -8.787947,-4.39398 -3.212796,-0.8032 -5.338914,-2.07887 -5.5279,-2.36235 -0.188989,-0.28348 -15.562032,-7.30937 -16.363842,-7.97755 -0.801806,-0.66817 -2.405424,-0.73499 -3.00678,-1.13589 -0.601358,-0.40091 -7.082644,-4.14268 -8.552624,-4.40995 -1.469983,-0.26727 -3.073601,0.60136 -4.877671,-0.80181 -1.804069,-1.40316 -14.165283,-7.684 -14.165283,-7.684 z"
         id="path996"
         inkscape:connector-curvature="0"
         sodipodi:nodetypes="cscscssccccsccccsccccscssssccccscccsccc" />
      <path
         sodipodi:nodetypes="cscscssccccsccccsccccscssssccccscccsccc"
         inkscape:connector-curvature="0"
         id="path994"
         d="m -149.47048,141.88464 c 0,0 -3.54132,0.53454 -4.81085,1.80407 -1.26953,1.26953 -6.08039,1.80407 -7.01583,2.60588 -0.93544,0.8018 -3.60814,2.13815 -5.61266,3.20723 -2.00452,1.06908 -8.21854,0.80181 -7.21627,2.6727 1.00226,1.87088 5.17073,8.62178 8.19454,9.8502 3.02381,1.22842 4.23349,3.04555 7.50754,4.64917 3.27405,1.60362 5.94675,6.88219 9.88897,8.48581 3.94223,1.60361 2.53906,1.60361 5.54584,4.34313 3.00679,2.73951 4.74404,3.20723 5.94675,4.81085 1.20271,1.60361 2.8609,3.7914 4.93977,4.83083 2.07887,1.03944 6.14212,3.96875 8.31548,5.10268 2.17336,1.13393 3.1183,2.17336 5.57515,3.77976 2.45684,1.6064 3.40178,3.49628 6.42559,5.95313 3.02381,2.45684 5.29167,3.21279 7.9375,5.38616 2.64584,2.17336 6.898069,5.85863 8.693454,7.18155 1.795389,1.32291 3.9159,4.60628 5.681108,2.51023 2.265584,-2.69021 3.758505,-2.18776 6.225142,-3.92765 2.456847,-1.79538 6.52009,-3.96875 8.787948,-6.99256 2.267857,-3.0238 12.588414,-9.8593 13.323406,-11.3961 0.734988,-1.5368 13.296656,-8.55262 14.365734,-10.02261 1.069078,-1.46998 3.674957,-4.14268 6.280835,-6.08038 2.605879,-1.9377 3.40242,-2.69175 5.386795,-3.92018 1.984375,-1.22842 3.401785,-3.30729 5.527903,-4.53571 2.126115,-1.22842 8.598957,-6.56733 9.260415,-7.41778 0.661458,-0.85045 6.685474,-4.90653 8.556361,-6.51015 1.8708866,-1.60362 4.2763124,-2.6727 5.3453904,-4.14268 1.0690781,-1.46998 0.4613437,-1.67864 0.4613437,-1.67864 0,0 -1.2284226,-1.84264 -2.9765625,-2.07888 -1.7481396,-0.23623 -3.8742556,-1.27566 -5.7641366,-2.03162 -1.889881,-0.75595 -2.267857,-0.0472 -4.204985,-0.99218 -1.937128,-0.94495 -5.575149,-3.59078 -8.787947,-4.39398 -3.212796,-0.8032 -5.338914,-2.07887 -5.5279,-2.36235 -0.188989,-0.28348 -15.562032,-7.30937 -16.363842,-7.97755 -0.801806,-0.66817 -2.405424,-0.73499 -3.00678,-1.13589 -0.601358,-0.40091 -7.082644,-4.14268 -8.552624,-4.40995 -1.469983,-0.26727 -3.073601,0.60136 -4.877671,-0.80181 -1.804069,-1.40316 -14.165283,-7.684 -14.165283,-7.684 z"
         style="opacity:1;fill:#55617a;fill-opacity:1;stroke:none;stroke-width:1.36932194px;stroke-linecap:butt;stroke-linejoin:miter;stroke-opacity:1" />
      <path
         style="opacity:1;fill:#667594;fill-opacity:1;stroke:none;stroke-width:1.36932194px;stroke-linecap:butt;stroke-linejoin:miter;stroke-opacity:1"
         d="m -149.47048,140.29713 c 0,0 -3.54132,0.53454 -4.81085,1.80407 -1.26953,1.26953 -6.08039,1.80407 -7.01583,2.60588 -0.93544,0.8018 -3.60814,2.13815 -5.61266,3.20723 -2.00452,1.06908 -8.21854,0.80181 -7.21627,2.6727 1.00226,1.87088 5.17073,8.62178 8.19454,9.8502 3.02381,1.22842 4.23349,3.04555 7.50754,4.64917 3.27405,1.60362 5.94675,6.88219 9.88897,8.48581 3.94223,1.60361 2.53906,1.60361 5.54584,4.34313 3.00679,2.73951 4.74404,3.20723 5.94675,4.81085 1.20271,1.60361 2.8609,3.7914 4.93977,4.83083 2.07887,1.03944 6.14212,3.96875 8.31548,5.10268 2.17336,1.13393 3.1183,2.17336 5.57515,3.77976 2.45684,1.6064 3.40178,3.49628 6.42559,5.95313 3.02381,2.45684 5.29167,3.21279 7.9375,5.38616 2.64584,2.17336 6.898069,5.85863 8.693454,7.18155 1.795389,1.32291 3.9159,4.60628 5.681108,2.51023 2.265584,-2.69021 3.758505,-2.18776 6.225142,-3.92765 2.456847,-1.79538 6.52009,-3.96875 8.787948,-6.99256 2.267857,-3.0238 12.588414,-9.8593 13.323406,-11.3961 0.734988,-1.5368 13.296656,-8.55262 14.365734,-10.02261 1.069078,-1.46998 3.674957,-4.14268 6.280835,-6.08038 2.605879,-1.9377 3.40242,-2.69175 5.386795,-3.92018 1.984375,-1.22842 3.401785,-3.30729 5.527903,-4.53571 2.126115,-1.22842 8.598957,-6.56733 9.260415,-7.41778 0.661458,-0.85045 6.685474,-4.90653 8.556361,-6.51015 1.8708866,-1.60362 4.2763124,-2.6727 5.3453904,-4.14268 1.0690781,-1.46998 0.4613437,-1.67864 0.4613437,-1.67864 0,0 -1.2284226,-1.84264 -2.9765625,-2.07888 -1.7481396,-0.23623 -3.8742556,-1.27566 -5.7641366,-2.03162 -1.889881,-0.75595 -2.267857,-0.0472 -4.204985,-0.99218 -1.937128,-0.94495 -5.575149,-3.59078 -8.787947,-4.39398 -3.212796,-0.8032 -5.338914,-2.07887 -5.5279,-2.36235 -0.188989,-0.28348 -15.562032,-7.30937 -16.363842,-7.97755 -0.801806,-0.66817 -2.405424,-0.73499 -3.00678,-1.13589 -0.601358,-0.40091 -7.082644,-4.14268 -8.552624,-4.40995 -1.469983,-0.26727 -3.073601,0.60136 -4.877671,-0.80181 -1.804069,-1.40316 -14.165283,-7.684 -14.165283,-7.684 z"
         id="path992"
         inkscape:connector-curvature="0"
         sodipodi:nodetypes="cscscssccccsccccsccccscssssccccscccsccc" />
      <rect
         transform="matrix(0.91593517,0.40132626,-0.42277531,0.90623454,0,0)"
         ry="3.8242173"
         y="46.767799"
         x="11.646195"
         height="18.8123"
         width="9.1179771"
         id="rect887"
         style="opacity:1;fill:#f1473e;fill-opacity:1;stroke:none;stroke-width:4.41045284;stroke-miterlimit:4;stroke-dasharray:none;stroke-opacity:1" />
      <path
         sodipodi:nodetypes="assaaaaaaa"
         inkscape:connector-curvature="0"
         transform="scale(0.26458333)"
         id="rect888"
         d="m -25.167969,187.74219 c -3.180488,0.53396 -6.466431,2.44594 -8.167969,5.18554 -2.93175,4.72032 -5.367441,10.55963 -6.857421,15.94727 -1.336364,4.83218 0.08825,11.00795 3.576171,14.60938 2.613982,2.69906 7.367391,4.42123 10.857422,3.02929 3.177574,-1.26732 3.670715,-5.78212 5.273996,-8.80413 1.989689,-3.75035 4.057425,-7.51055 5.376953,-11.54575 1.184805,-3.62321 3.669541,-7.68681 2.229911,-11.21652 -1.463917,-3.58926 -6.052729,-4.99818 -9.597656,-6.56641 -0.843221,-0.37303 -1.782084,-0.79133 -2.691407,-0.63867 z"
         style="opacity:1;fill:#ff4b42;fill-opacity:1;stroke:none;stroke-width:16.66711807;stroke-miterlimit:4;stroke-dasharray:none;stroke-opacity:1" />
      <path
         sodipodi:nodetypes="cscscssccccsccccsccccscssssccccscccsccc"
         inkscape:connector-curvature="0"
         id="path841"
         d="m -149.47048,138.70962 c 0,0 -3.54132,0.53454 -4.81085,1.80407 -1.26953,1.26953 -6.08039,1.80407 -7.01583,2.60588 -0.93544,0.8018 -3.60814,2.13815 -5.61266,3.20723 -2.00452,1.06908 -8.21854,0.80181 -7.21627,2.6727 1.00226,1.87088 5.17073,8.62178 8.19454,9.8502 3.02381,1.22842 4.23349,3.04555 7.50754,4.64917 3.27405,1.60362 5.94675,6.88219 9.88897,8.48581 3.94223,1.60361 2.53906,1.60361 5.54584,4.34313 3.00679,2.73951 4.74404,3.20723 5.94675,4.81085 1.20271,1.60361 2.8609,3.7914 4.93977,4.83083 2.07887,1.03944 6.14212,3.96875 8.31548,5.10268 2.17336,1.13393 3.1183,2.17336 5.57515,3.77976 2.45684,1.6064 3.40178,3.49628 6.42559,5.95313 3.02381,2.45684 5.29167,3.21279 7.9375,5.38616 2.64584,2.17336 6.898069,5.85863 8.693454,7.18155 1.795389,1.32291 3.9159,4.60628 5.681108,2.51023 2.265584,-2.69021 3.758505,-2.18776 6.225142,-3.92765 2.456847,-1.79538 6.52009,-3.96875 8.787948,-6.99256 2.267857,-3.0238 12.588414,-9.8593 13.323406,-11.3961 0.734988,-1.5368 13.296656,-8.55262 14.365734,-10.02261 1.069078,-1.46998 3.674957,-4.14268 6.280835,-6.08038 2.605879,-1.9377 3.40242,-2.69175 5.386795,-3.92018 1.984375,-1.22842 3.401785,-3.30729 5.527903,-4.53571 2.126115,-1.22842 8.598957,-6.56733 9.260415,-7.41778 0.661458,-0.85045 6.685474,-4.90653 8.556361,-6.51015 1.8708866,-1.60362 4.2763124,-2.6727 5.3453904,-4.14268 1.0690781,-1.46998 0.4613437,-1.67864 0.4613437,-1.67864 0,0 -1.2284226,-1.84264 -2.9765625,-2.07888 -1.7481396,-0.23623 -3.8742556,-1.27566 -5.7641366,-2.03162 -1.889881,-0.75595 -2.267857,-0.0472 -4.204985,-0.99218 -1.937128,-0.94495 -5.575149,-3.59078 -8.787947,-4.39398 -3.212796,-0.8032 -5.338914,-2.07887 -5.5279,-2.36235 -0.188989,-0.28348 -15.562032,-7.30937 -16.363842,-7.97755 -0.801806,-0.66817 -2.405424,-0.73499 -3.00678,-1.13589 -0.601358,-0.40091 -7.082644,-4.14268 -8.552624,-4.40995 -1.469983,-0.26727 -3.073601,0.60136 -4.877671,-0.80181 -1.804069,-1.40316 -14.165283,-7.684 -14.165283,-7.684 z"
         style="fill:#9bb1e0;fill-opacity:1;stroke:none;stroke-width:1.36932194px;stroke-linecap:butt;stroke-linejoin:miter;stroke-opacity:1" />
      <path
         inkscape:connector-curvature="0"
         id="path1002"
         transform="scale(0.26458333)"
         d="M -67.802734,546.2832 -345.02344,734.51953 -620.28516,547.44336 c -3.50903,1.89411 -7.25237,3.84228 -10.55468,5.60352 -7.57614,4.04061 -31.0635,3.03048 -27.27539,10.10156 3.78806,7.07104 19.54408,32.58567 30.97265,37.22851 11.42858,4.64285 16.00064,11.51134 28.375,17.57227 12.37436,6.06092 22.47527,26.01134 37.375,32.07226 14.89977,6.06089 9.59673,6.05998 20.96094,16.41407 11.36425,10.35405 17.93089,12.12266 22.47656,18.18359 4.54568,6.06089 10.81278,14.32926 18.66992,18.25781 7.85715,3.9286 23.21346,14.99944 31.42774,19.28516 8.21427,4.28572 11.78653,8.21372 21.07226,14.28516 9.2857,6.07143 12.85659,13.21622 24.28516,22.50195 11.42857,9.28569 20.00001,12.14116 30,20.35547 10.00003,8.21427 26.07171,22.14452 32.85742,27.14453 6.78572,4.99997 14.79905,17.40841 21.4707,9.48633 8.56284,-10.16773 14.20658,-8.26779 23.5293,-14.84375 9.28572,-6.78569 24.64341,-15.00112 33.21485,-26.42969 8.57142,-11.42854 47.57754,-37.26389 50.35546,-43.07227 2.77791,-5.80837 50.25432,-32.32499 54.29493,-37.88086 4.04061,-5.55583 13.88929,-15.65687 23.73828,-22.98046 9.84899,-7.32359 12.86133,-10.17353 20.36133,-14.81641 7.5,-4.64285 12.85685,-12.49973 20.89257,-17.14258 8.03571,-4.64285 32.500005,-24.82086 35.000004,-28.03515 2.499998,-3.2143 25.266821,-18.54455 32.33789,-24.60547 7.071068,-6.06093 16.162516,-10.10238 20.203125,-15.65821 4.040611,-5.55583 1.744141,-6.34375 1.744141,-6.34375 0,0 -4.642857,-6.96454 -11.25,-7.85742 -6.607142,-0.89284 -14.642299,-4.82056 -21.785156,-7.67773 -5.779914,-2.31196 -7.820946,-1.00141 -12.267578,-2.3086 z"
         style="opacity:0.03999999;fill:url(#Strips1_1);fill-opacity:1;stroke:none;stroke-width:5.17538977px;stroke-linecap:butt;stroke-linejoin:miter;stroke-opacity:1" />
      <path
         sodipodi:nodetypes="aaaaaaaaaaa"
         inkscape:connector-curvature="0"
         id="path901"
         d="m -149.47048,138.70962 c -1.49383,3.25144 2.53453,6.97398 5.14494,9.42125 6.16453,5.77926 14.66645,9.20753 22.98518,10.69078 10.64868,1.89868 22.095801,0.80059 32.339608,-2.67269 5.616915,-1.90448 10.289824,-5.97479 14.967095,-9.6217 1.540868,-1.20143 2.723695,-2.82284 4.276312,-4.00905 2.161221,-1.65118 6.899579,-1.55697 6.949006,-4.27631 0.06421,-3.53281 -5.750673,-4.12928 -8.819893,-5.87993 -2.319006,-1.32274 -4.601178,-2.93721 -7.216277,-3.4745 -10.045186,-2.06384 -20.56296,0.0422 -30.735991,1.33634 -13.48552,1.71546 -34.21464,-3.86703 -39.88998,8.48581 z"
         style="opacity:0.25;fill:#000000;fill-opacity:1;stroke:none;stroke-width:1.36932194px;stroke-linecap:butt;stroke-linejoin:miter;stroke-opacity:1" />
      <path
         sodipodi:nodetypes="aaaaaaaaaaaaaaaaaaaaaaaccaaaaaaaaa"
         inkscape:connector-curvature="0"
         id="path839"
         d="m -84.146947,143.02195 c 0.23176,0.46491 1.012163,0.5198 1.511903,0.37797 0.846404,-0.24022 1.190773,-1.29896 1.842635,-1.88988 0.672423,-0.60956 1.34109,-1.24543 2.126115,-1.70089 1.333104,-0.77345 2.843461,-1.19551 4.299479,-1.70089 3.883341,-1.34789 8.104793,-1.76714 11.811757,-3.54353 2.757628,-1.32146 5.341479,-3.09216 7.559524,-5.19717 2.47677,-2.35055 4.721145,-5.06662 6.236607,-8.12649 1.518503,-3.06602 2.650102,-6.48444 2.689722,-9.90566 0.03876,-3.347 -0.64692,-6.90153 -2.406242,-9.7491 -1.32703,-2.147881 -3.456045,-3.890404 -5.764136,-4.913692 -2.467981,-1.094174 -5.34276,-1.276448 -8.031993,-1.039434 -2.302266,0.202909 -4.663538,0.839908 -6.614583,2.078869 -0.90327,0.573598 -1.755447,1.377331 -2.173364,2.362347 -1.257009,2.96272 -0.365428,6.42636 -0.566965,9.6384 -0.118609,1.89036 -1.26278,3.99493 -0.377976,5.66964 0.279276,0.5286 0.949193,0.86769 1.545534,0.90995 0.40845,0.029 0.877896,-0.14975 1.135896,-0.46772 0.385342,-0.47491 0.340293,-1.19252 0.334087,-1.80407 -0.01015,-0.99977 -0.605094,-1.93781 -0.605917,-2.93764 -0.0012,-1.41461 0.229162,-2.88686 0.850445,-4.15774 0.755486,-1.5454 1.88805,-3.02238 3.354538,-3.9215 1.602189,-0.98232 3.602114,-1.26772 5.480656,-1.32292 1.59952,-0.047 3.222793,0.29823 4.724702,0.85045 2.57664,0.76676 3.468513,2.88563 3.701732,5.27533 0.191002,2.04506 -0.197995,4.14062 -0.7684,6.11379 -0.48147,1.66552 -1.30158,3.23088 -2.204974,4.71063 -1.166492,1.9107 -2.498419,3.75743 -4.10927,5.31198 -1.785742,1.72333 -3.852982,3.18333 -6.046973,4.34313 -1.781529,0.94177 -3.751299,1.48577 -5.679477,2.07134 -2.062363,0.62632 -4.250077,0.81454 -6.280833,1.5368 -0.929272,0.3305 -1.953787,0.59429 -2.672696,1.26953 -1.540554,1.44697 -2.147626,3.64594 -3.073598,5.54584 -0.684007,1.40344 -2.524471,2.91507 -1.827935,4.31233 z"
         style="fill:#333333;fill-opacity:1;stroke:none;stroke-width:1.36932194px;stroke-linecap:butt;stroke-linejoin:miter;stroke-opacity:1" />
      <path
         style="opacity:1;fill:#ad7712;fill-opacity:1;stroke:none;stroke-width:1.36932194px;stroke-linecap:butt;stroke-linejoin:miter;stroke-opacity:1"
         d="m -55.09003,149.02232 37.984781,-86.551333 9.5007462,5.606811 -37.7526392,85.574732 z"
         id="path851"
         inkscape:connector-curvature="0"
         sodipodi:nodetypes="ccccc" />
      <path
         sodipodi:nodetypes="ccccc"
         inkscape:connector-curvature="0"
         id="path849"
         d="M -53.754583,151.33811 -14.432554,63.272796 -9.2465082,66.00756 -48.242148,154.4117 Z"
         style="opacity:1;fill:#f9f847;fill-opacity:1;stroke:none;stroke-width:1.36932194px;stroke-linecap:butt;stroke-linejoin:miter;stroke-opacity:1" />
      <path
         sodipodi:nodetypes="ccaaaaaassc"
         inkscape:connector-curvature="0"
         id="path837"
         d="m -158.18303,93.554313 c -8.71128,13.494577 -0.0502,36.848087 8.88244,47.247027 3.99093,4.59337 8.89655,8.68048 14.46311,11.13812 6.46542,2.85449 13.81401,3.93114 20.87766,3.69744 6.4518,-0.21346 12.94719,-1.9163 18.804314,-4.63021 4.338953,-2.01046 8.432569,-4.8475 11.622768,-8.40996 4.469838,-4.99141 7.626439,-11.18659 9.921875,-17.4814 2.370455,-6.50053 4.714345,-13.55488 3.779763,-20.41072 -0.596505,-4.3758 -1.777798,-9.767021 -5.811385,-11.906248 -14.619392,-7.753445 -22.972558,3.051504 -40.729585,4.239132 -12.05501,0.806265 -33.76545,-11.559092 -41.81096,-3.483181 z"
         style="fill:url(#linearGradient848);fill-opacity:1;stroke:none;stroke-width:1.36932194px;stroke-linecap:butt;stroke-linejoin:miter;stroke-opacity:1" />
      <path
         inkscape:connector-curvature="0"
         transform="scale(0.26458333)"
         id="ellipse857"
         d="m -439.35352,346.25977 a 159.05043,70.995396 0 0 0 -157.04687,60.33984 171.22084,69.052777 0 0 0 7.57617,6.09961 171.22084,69.052778 0 0 0 0.22656,0.16016 171.22084,69.052777 0 0 0 8.79297,5.5996 171.22084,69.052778 0 0 0 0.56446,0.31836 171.22084,69.052777 0 0 0 9.79687,5.04493 171.22084,69.052778 0 0 0 1.02344,0.4707 171.22084,69.052777 0 0 0 10.59765,4.45508 171.22084,69.052778 0 0 0 1.54883,0.58203 171.22084,69.052777 0 0 0 11.1875,3.84961 171.22084,69.052778 0 0 0 2.21875,0.67969 171.22084,69.052777 0 0 0 11.48047,3.21093 171.22084,69.052778 0 0 0 3.07031,0.75977 171.22084,69.052777 0 0 0 11.49219,2.57031 171.22084,69.052778 0 0 0 4.00195,0.7793 171.22084,69.052777 0 0 0 11.26954,1.95508 171.22084,69.052778 0 0 0 5.02343,0.74023 171.22084,69.052777 0 0 0 10.82422,1.38086 171.22084,69.052778 0 0 0 6.0957,0.62695 171.22084,69.052777 0 0 0 10.17383,0.85938 171.22084,69.052778 0 0 0 7.16797,0.4375 171.22084,69.052777 0 0 0 9.40039,0.40429 171.22084,69.052778 0 0 0 12.96094,0.26172 171.22084,69.052777 0 0 0 14.58594,-0.29492 171.22084,69.052778 0 0 0 8.47461,-0.41601 171.22084,69.052777 0 0 0 8.51758,-0.51954 171.22084,69.052778 0 0 0 8.16601,-0.73828 171.22084,69.052777 0 0 0 8.51367,-0.8789 171.22084,69.052778 0 0 0 7.77735,-1.04102 171.22084,69.052777 0 0 0 8.41406,-1.23828 171.22084,69.052778 0 0 0 7.30859,-1.31836 171.22084,69.052777 0 0 0 8.25391,-1.60937 171.22084,69.052778 0 0 0 6.80469,-1.57422 171.22084,69.052777 0 0 0 7.9082,-1.95703 171.22084,69.052778 0 0 0 6.33789,-1.82813 171.22084,69.052777 0 0 0 7.42773,-2.27734 171.22084,69.052778 0 0 0 5.78711,-2.05078 171.22084,69.052777 0 0 0 6.9043,-2.59375 171.22084,69.052778 0 0 0 5.17969,-2.24219 171.22084,69.052777 0 0 0 6.30273,-2.89649 171.22084,69.052778 0 0 0 4.5,-2.38671 171.22084,69.052777 0 0 0 5.64453,-3.1836 171.22084,69.052778 0 0 0 3.85547,-2.53711 171.22084,69.052777 0 0 0 4.83399,-3.39844 171.22084,69.052778 0 0 0 5.94336,-4.96093 171.22084,69.052777 0 0 0 0.0332,-0.0293 159.05043,70.995396 0 0 0 -156.92188,-59.61523 z"
         style="opacity:1;fill:#f1f1f1;fill-opacity:1;stroke:none;stroke-width:21.06708145;stroke-miterlimit:4;stroke-dasharray:none;stroke-opacity:1" />
      <ellipse
         style="opacity:1;fill:#333333;fill-opacity:1;stroke:none;stroke-width:0.51753902;stroke-miterlimit:4;stroke-dasharray:none;stroke-opacity:1"
         id="ellipse828"
         cx="-116.39196"
         cy="100.22224"
         rx="45.302181"
         ry="18.270214" />
      <ellipse
         ry="16.208948"
         rx="43.431293"
         cy="99.448685"
         cx="-115.99498"
         id="path826"
         style="opacity:1;fill:url(#linearGradient856);fill-opacity:1;stroke:none;stroke-width:5.1406064;stroke-miterlimit:4;stroke-dasharray:none;stroke-opacity:1" />
      <path
         sodipodi:nodetypes="ccccc"
         inkscape:connector-curvature="0"
         style="opacity:0.52600002;fill:#4e3001;fill-opacity:1;stroke:none;stroke-width:5.1406064;stroke-miterlimit:4;stroke-dasharray:none;stroke-opacity:1"
         d="m -116.24562,90.556229 c -18.71405,0.01528 -35.72403,6.088404 -40.9185,14.113571 6.38785,6.3006 23.11881,9.92653 41.16913,9.9294 17.769086,-0.006 34.15393,-3.39933 40.728331,-9.56031 -4.998348,-8.162026 -22.022794,-14.476333 -40.978961,-14.482661 z"
         id="path858" />
      <path
         sodipodi:nodetypes="ccccac"
         inkscape:connector-curvature="0"
         id="path845"
         d="m -59.011531,170.7087 3.921501,-21.68638 9.732888,4.63021 -12.803944,17.19791 c 0,0 -0.372684,0.46611 -0.604801,0.39923 -0.190298,-0.0548 -0.245644,-0.54097 -0.245644,-0.54097 z"
         style="opacity:1;fill:#bb9d55;fill-opacity:1;stroke:none;stroke-width:1.36932194px;stroke-linecap:butt;stroke-linejoin:miter;stroke-opacity:1" />
      <path
         inkscape:connector-curvature="0"
         id="path2869"
         transform="scale(0.26458333)"
         d="m -179.41406,576.93555 -35.22852,57.36914 1.9082,1.9082 41.30665,-55.47851 z"
         style="opacity:1;fill:#a68c4c;fill-opacity:1;stroke:none;stroke-width:5.17538977px;stroke-linecap:butt;stroke-linejoin:miter;stroke-opacity:1" />
      <path
         inkscape:connector-curvature="0"
         id="path2860"
         transform="scale(0.26458333)"
         d="m -208.21484,563.23438 -12.29102,67.97265 4.43359,-0.47265 15.17969,-64.01563 z"
         style="opacity:1;fill:#ab8f4f;fill-opacity:1;stroke:none;stroke-width:5.17538977px;stroke-linecap:butt;stroke-linejoin:miter;stroke-opacity:1" />
      <path
         inkscape:connector-curvature="0"
         transform="scale(0.26458333)"
         id="ellipse871"
         d="m -439.35352,346.25977 a 159.05043,70.995396 0 0 0 -152.50976,51.28906 164.14977,61.262166 0 0 0 153.45703,39.58203 164.14977,61.262166 0 0 0 152.35547,-38.5957 159.05043,70.995396 0 0 0 -153.30274,-52.27539 z"
         style="opacity:1;fill:#4e3001;fill-opacity:1;stroke:none;stroke-width:19.4290638;stroke-miterlimit:4;stroke-dasharray:none;stroke-opacity:1" />
      <path
         inkscape:connector-curvature="0"
         id="path905"
         transform="scale(0.26458333)"
         d="m -434.19727,361.97266 a 211.80751,163.13295 0 0 0 -145.24804,45.07617 164.14977,61.262165 0 0 0 141.03906,30.08203 164.14977,61.262165 0 0 0 145.55859,-33.0957 211.80751,163.13295 0 0 0 -141.34961,-42.0625 z"
         style="opacity:1;fill:#331f02;fill-opacity:1;stroke:none;stroke-width:19.4290638;stroke-miterlimit:4;stroke-dasharray:none;stroke-opacity:1" />
      <path
         inkscape:connector-curvature="0"
         id="path876"
         transform="scale(0.26458333)"
         d="m -219,622.88477 -4.03516,22.3125 c 0,0 0.2085,1.8378 0.92774,2.04492 0.87729,0.25277 2.28515,-1.50781 2.28515,-1.50781 l 12.33985,-16.57422 -1.26758,-0.39063 c -4.65427,-1.43209 -8.30939,-4.19284 -10.25,-5.88476 z"
         style="opacity:1;fill:#000000;stroke:none;stroke-width:5.17538977px;stroke-linecap:butt;stroke-linejoin:miter;stroke-opacity:1" />
      <path
         inkscape:connector-curvature="0"
         id="path898"
         transform="scale(0.26458333)"
         d="m -439.58984,386.61719 a 167.59479,70.995394 0 0 0 -129.57032,26.19336 164.14977,61.262165 0 0 0 130.75391,24.32031 164.14977,61.262165 0 0 0 129.62695,-23.79688 167.59479,70.995394 0 0 0 -130.81054,-26.71679 z"
         style="opacity:1;fill:#221202;fill-opacity:1;stroke:none;stroke-width:19.4290638;stroke-miterlimit:4;stroke-dasharray:none;stroke-opacity:1" />
      <g
         id="text912"
         style="font-style:normal;font-weight:normal;font-size:14.35334587px;line-height:1.25;font-family:sans-serif;letter-spacing:0px;word-spacing:0px;fill:#2b3b5e;fill-opacity:1;stroke:none;stroke-width:1.36932194"
         transform="matrix(0.84693645,-0.4145412,0.3634764,1.0028191,0,0)"
         aria-label="main () {     public sta  ">
        <path
           inkscape:connector-curvature="0"
           id="path938"
           style="font-style:normal;font-variant:normal;font-weight:normal;font-stretch:normal;font-family:'Nanum Pen Script';-inkscape-font-specification:'Nanum Pen Script';fill:#2b3b5e;fill-opacity:1;stroke-width:1.36932194"
           d="m -184.50461,98.202552 q 0.0144,0.229653 0.0431,0.574134 0.0431,0.330126 0.0861,0.703313 0.0431,0.358834 0.0861,0.717671 0.0574,0.35883 0.10047,0.66025 0.15789,-0.31577 0.38754,-0.77508 0.22966,-0.459307 0.47366,-0.875554 0.25836,-0.4306 0.51672,-0.717667 0.27272,-0.301421 0.48802,-0.301421 0.22965,0 0.41624,0.229654 0.20095,0.2153 0.34448,0.531074 0.14354,0.315773 0.24401,0.674607 0.11483,0.358834 0.18659,0.631547 0.0574,-0.18659 0.14354,-0.416247 0.10047,-0.244007 0.20094,-0.488014 0.11483,-0.25836 0.24401,-0.502367 0.14353,-0.244007 0.30142,-0.4306 0.1866,-0.200947 0.4019,-0.287067 0.2153,-0.100473 0.31577,-0.100473 0.12918,0 0.30142,0.08612 0.18659,0.07177 0.37319,0.200946 0.18659,0.129181 0.34448,0.315774 0.17224,0.17224 0.27271,0.358834 0.20095,0.38754 0.31577,0.846847 0.12918,0.459307 0.1866,0.875557 0.0574,0.41624 0.0718,0.74637 0.0287,0.31577 0.0431,0.44495 0,0.1866 -0.0431,0.28707 -0.0431,0.0861 -0.15788,0.14354 -0.15789,0.0718 -0.27272,0.0574 -0.11482,-0.0287 -0.18659,-0.10047 -0.0718,-0.0718 -0.11483,-0.15789 -0.0431,-0.10047 -0.0574,-0.17224 -0.0431,-0.33013 -0.10047,-0.67461 -0.0431,-0.34448 -0.10048,-0.66025 -0.0574,-0.33013 -0.14353,-0.60284 -0.0718,-0.28707 -0.15789,-0.50237 -0.0287,-0.05741 -0.10047,-0.143534 -0.0574,-0.100473 -0.14353,-0.186593 -0.0718,-0.08612 -0.14354,-0.143534 -0.0718,-0.05741 -0.10047,-0.07177 -0.14353,0 -0.30142,0.272714 -0.15789,0.25836 -0.30142,0.631547 -0.14353,0.37319 -0.27271,0.78944 -0.11483,0.40189 -0.17225,0.68896 0,0.37318 -0.14353,0.55978 -0.14353,0.17224 -0.30142,0.17224 -0.15789,0 -0.34448,-0.11483 -0.17224,-0.12918 -0.22965,-0.28707 -0.0861,-0.22965 -0.1866,-0.51672 -0.10047,-0.28706 -0.2153,-0.58848 -0.10047,-0.30142 -0.2153,-0.588493 -0.10047,-0.287067 -0.20094,-0.516721 -0.20095,0.272714 -0.4019,0.602844 -0.18659,0.33013 -0.37318,0.67461 -0.17224,0.34448 -0.34448,0.68896 -0.15789,0.33012 -0.30142,0.58849 -0.10048,0.15788 -0.2153,0.28706 -0.11483,0.11483 -0.27272,0.11483 -0.11483,0 -0.24401,-0.10047 -0.12918,-0.11483 -0.244,-0.27272 -0.11483,-0.15789 -0.2153,-0.35883 -0.0861,-0.20095 -0.12918,-0.4019 -0.11483,-0.61719 -0.20095,-1.349213 -0.0718,-0.746374 -0.14353,-1.449688 -0.0144,-0.244007 0.0574,-0.444954 0.0861,-0.2153 0.31577,-0.287067 0.24401,-0.04306 0.37319,0.07177 0.12918,0.114827 0.15789,0.358834 z" />
        <path
           inkscape:connector-curvature="0"
           id="path940"
           style="font-style:normal;font-variant:normal;font-weight:normal;font-stretch:normal;font-family:'Nanum Pen Script';-inkscape-font-specification:'Nanum Pen Script';fill:#2b3b5e;fill-opacity:1;stroke-width:1.36932194"
           d="m -172.8627,97.527944 q 0.0574,0.401894 0.0861,0.861201 0.0431,0.444954 0.0574,0.904261 0.0287,0.459307 0.0287,0.889904 0,0.4306 -0.0144,0.77508 0.45931,0.31578 0.54543,0.55978 0.10047,0.24401 0.0287,0.4306 -0.0861,0.25837 -0.31578,0.27272 -0.2153,0 -0.50236,-0.15789 -0.20095,0.14354 -0.45931,0.31578 -0.25836,0.15788 -0.54543,0.31577 -0.28706,0.14353 -0.57413,0.25836 -0.28707,0.11483 -0.53108,0.15789 -0.4593,0.0718 -0.83249,-0.17224 -0.35883,-0.24401 -0.48801,-0.73202 -0.0861,-0.33013 -0.0431,-0.67461 0.0431,-0.35884 0.2153,-0.67461 0.17224,-0.33013 0.4593,-0.58849 0.30142,-0.25836 0.70332,-0.40189 0.10047,-0.04306 0.27271,-0.07177 0.1866,-0.02871 0.37319,-0.01435 0.20095,0 0.40189,0.07177 0.20095,0.07177 0.37319,0.244 0,-0.244 -0.0143,-0.531066 0,-0.301421 -0.0144,-0.602841 -0.0144,-0.30142 -0.0431,-0.55978 -0.0144,-0.272714 -0.0431,-0.459308 -0.0287,-0.2153 -0.17224,-0.25836 -0.12918,-0.05741 -0.33012,0.01435 -0.34448,0.114826 -0.80379,0.444953 -0.45931,0.330127 -0.87556,0.703314 -0.12918,0.12918 -0.30142,0.114827 -0.15788,-0.01435 -0.27271,-0.12918 -0.11483,-0.114827 -0.12918,-0.25836 -0.0144,-0.157887 0.11483,-0.330127 0.244,-0.25836 0.54542,-0.531074 0.30142,-0.272714 0.63155,-0.488014 0.33013,-0.229653 0.67461,-0.373187 0.34448,-0.143533 0.68896,-0.157887 0.50237,-0.01435 0.77508,0.229654 0.27271,0.229653 0.33013,0.60284 z m -1.66499,3.085966 q -0.18659,0.0431 -0.4019,0.1866 -0.20094,0.12918 -0.37318,0.33012 -0.15789,0.1866 -0.24401,0.4306 -0.0718,0.22966 0,0.45931 0.0287,0.0861 0.11483,0.12918 0.10047,0.0431 0.2153,0.0144 0.34448,-0.0718 0.77508,-0.27272 0.44495,-0.2153 0.70331,-0.45931 0,-0.0861 -0.0861,-0.2153 -0.0861,-0.14353 -0.20094,-0.27271 -0.11483,-0.14353 -0.25836,-0.24401 -0.12918,-0.10047 -0.24401,-0.0861 z" />
        <path
           inkscape:connector-curvature="0"
           id="path942"
           style="font-style:normal;font-variant:normal;font-weight:normal;font-stretch:normal;font-family:'Nanum Pen Script';-inkscape-font-specification:'Nanum Pen Script';fill:#2b3b5e;fill-opacity:1;stroke-width:1.36932194"
           d="m -168.88144,96.982517 q -0.0287,0.143534 -0.20095,0.157887 -0.17224,0.01435 -0.28707,0.01435 -0.35883,0.01435 -0.74637,0.07177 -0.37319,0.05741 -0.78944,0.17224 -0.17224,0.05741 -0.37318,-0.04306 -0.20095,-0.100473 -0.24401,-0.401893 0,-0.114827 0.0861,-0.186594 0.0861,-0.07177 0.20095,-0.12918 0.18659,-0.08612 0.44495,-0.143533 0.25836,-0.07177 0.51672,-0.100474 0.27272,-0.02871 0.51672,-0.01435 0.24401,0 0.4019,0.04306 0.22965,0.07177 0.35883,0.2153 0.14353,0.143533 0.11483,0.34448 z m -0.33013,4.779663 q 0.10047,0.22966 0.10047,0.50237 0.0144,0.25836 -0.14353,0.35883 -0.20095,0.12918 -0.4306,-0.0143 -0.22965,-0.14353 -0.34448,-0.38754 -0.15789,-0.30142 -0.24401,-0.73202 -0.0861,-0.44496 -0.12918,-0.87556 -0.0431,-0.4306 -0.0574,-0.803784 0,-0.373187 0,-0.55978 0.0143,-0.200947 0.11482,-0.373187 0.10048,-0.17224 0.25836,-0.200947 0.25837,0.01435 0.41625,0.244007 0.15789,0.2153 0.14354,0.545427 0,0.25836 0.0144,0.574134 0.0144,0.31577 0.0574,0.63155 0.0431,0.31577 0.10048,0.61719 0.0574,0.28707 0.14353,0.47366 z" />
        <path
           inkscape:connector-curvature="0"
           id="path944"
           style="font-style:normal;font-variant:normal;font-weight:normal;font-stretch:normal;font-family:'Nanum Pen Script';-inkscape-font-specification:'Nanum Pen Script';fill:#2b3b5e;fill-opacity:1;stroke-width:1.36932194"
           d="m -166.89799,98.102078 q 0.0431,0.2153 0.0861,0.488014 0.0574,0.25836 0.11483,0.545427 0.0574,0.272714 0.10047,0.559781 0.0431,0.287067 0.0718,0.54543 0.17224,-0.37319 0.37318,-0.789437 0.20095,-0.416247 0.4306,-0.760728 0.24401,-0.358833 0.50237,-0.588487 0.27271,-0.229653 0.58849,-0.229653 0.47366,0 0.78943,0.34448 0.33013,0.34448 0.54543,0.861201 0.22965,0.502367 0.35883,1.062144 0.12918,0.55978 0.2153,0.99038 0.0861,0.38754 -0.34448,0.57414 -0.20094,0.10047 -0.30142,0.0287 -0.10047,-0.0718 -0.11482,-0.14353 -0.0718,-0.17224 -0.1866,-0.60284 -0.10047,-0.4306 -0.244,-0.87555 -0.12919,-0.444957 -0.30143,-0.775084 -0.17224,-0.330127 -0.38754,-0.30142 -0.25836,0.01435 -0.4593,0.38754 -0.17224,0.30142 -0.35884,0.674604 -0.17224,0.35884 -0.34448,0.74638 -0.17224,0.37318 -0.34448,0.76072 -0.15788,0.37319 -0.30142,0.68897 -0.10047,0.10047 -0.25836,0.14353 -0.14353,0.0287 -0.30142,-0.0287 -0.14353,-0.0431 -0.22965,-0.14353 -0.0861,-0.10047 -0.0861,-0.20095 -0.12918,-1.11956 -0.27271,-2.03817 -0.12918,-0.918618 -0.34449,-1.880292 -0.10047,-0.330127 -0.0431,-0.51672 0.0718,-0.200947 0.43061,-0.157887 0.50236,0.08612 0.61719,0.631547 z" />
        <path
           inkscape:connector-curvature="0"
           id="path946"
           style="font-style:normal;font-variant:normal;font-weight:normal;font-stretch:normal;font-family:'Nanum Pen Script';-inkscape-font-specification:'Nanum Pen Script';fill:#2b3b5e;fill-opacity:1;stroke-width:1.36932194"
           d="m -154.4662,95.819896 q -0.63155,0.660254 -1.06215,1.636282 -0.4306,0.976027 -0.55978,2.023821 -0.11482,0.947321 0.0718,1.865931 0.18659,0.90427 0.78943,1.60758 0.15789,0.20095 0.30142,0.35883 0.15789,0.14354 0.24401,0.28707 0.10047,0.14353 0.11483,0.30142 0.0143,0.14353 -0.0861,0.31577 -0.0574,0.10048 -0.15789,0.12918 -0.0861,0.0144 -0.18659,0 -0.10048,-0.0144 -0.20095,-0.0574 -0.0861,-0.0431 -0.12918,-0.0718 -0.45931,-0.31577 -0.81814,-0.78943 -0.34448,-0.48801 -0.57414,-1.0765 -0.22965,-0.58849 -0.34448,-1.23439 -0.10047,-0.66025 -0.0574,-1.33486 0.0431,-0.688961 0.20095,-1.349215 0.15788,-0.674607 0.41624,-1.263094 0.25837,-0.588487 0.60285,-1.062148 0.35883,-0.488014 0.77508,-0.789434 0.0861,-0.07177 0.27271,-0.05741 0.18659,0.01435 0.30142,0.100473 0.12918,0.100474 0.14353,0.25836 0.0144,0.143534 -0.0574,0.200947 z" />
        <path
           inkscape:connector-curvature="0"
           id="path948"
           style="font-style:normal;font-variant:normal;font-weight:normal;font-stretch:normal;font-family:'Nanum Pen Script';-inkscape-font-specification:'Nanum Pen Script';fill:#2b3b5e;fill-opacity:1;stroke-width:1.36932194"
           d="m -150.53989,97.642771 q 0.0861,0.918614 -0.0287,1.851582 -0.10048,0.918617 -0.28707,1.751107 -0.18659,0.81814 -0.41625,1.49275 -0.22965,0.66025 -0.37319,1.06215 -0.0287,0.0718 -0.10047,0.22965 -0.0718,0.15789 -0.18659,0.31577 -0.10048,0.14354 -0.24401,0.24401 -0.14353,0.0861 -0.31577,0.0287 -0.14354,-0.0431 -0.20095,-0.15789 -0.0431,-0.11483 -0.0431,-0.24401 0,-0.12918 0.0287,-0.25836 0.0431,-0.14353 0.0861,-0.244 0.37318,-0.99038 0.63154,-1.93771 0.25836,-0.94732 0.45931,-2.066877 0.20095,-1.148268 0.0431,-1.937702 -0.11483,-0.60284 -0.4306,-0.918614 -0.31577,-0.330127 -0.84685,-0.574134 -0.2153,-0.100473 -0.35883,-0.315773 -0.12918,-0.229654 -0.0287,-0.459307 0.11483,-0.17224 0.28707,-0.200947 0.17224,-0.04306 0.35883,0 0.1866,0.02871 0.35884,0.114827 0.17224,0.08612 0.28706,0.143533 0.22966,0.143534 0.44496,0.330127 0.2153,0.186594 0.40189,0.444954 0.1866,0.25836 0.30142,0.588487 0.12918,0.315774 0.17224,0.717667 z" />
        <path
           inkscape:connector-curvature="0"
           id="path950"
           style="font-style:normal;font-variant:normal;font-weight:normal;font-stretch:normal;font-family:'Nanum Pen Script';-inkscape-font-specification:'Nanum Pen Script';fill:#2b3b5e;fill-opacity:1;stroke-width:1.36932194"
           d="m -141.77582,95.647656 q 0.12918,0.12918 0.0287,0.330127 -0.0431,0.08612 -0.15789,0.143534 -0.11483,0.05741 -0.22965,0.02871 -0.20095,-0.02871 -0.51673,-0.08612 -0.30142,-0.05741 -0.54542,-0.08612 -0.53108,-0.07177 -0.54543,0.459307 -0.0144,0.25836 0,0.617194 0.0144,0.358834 0.0431,0.760727 0.0431,0.387541 0.0861,0.775081 0.0574,0.373187 0.11483,0.645901 0.10047,-0.01435 0.22965,0 0.12918,0 0.25836,0.05741 0.12918,0.04306 0.2153,0.157887 0.10047,0.114827 0.12918,0.30142 0.0431,0.315776 0.0431,0.875556 0,0.55978 -0.0287,1.19132 -0.0144,0.6172 -0.0574,1.23439 -0.0287,0.60284 -0.0718,1.00474 0.25836,-0.0574 0.51672,-0.11483 0.27272,-0.0574 0.50237,-0.10047 0.24401,-0.0431 0.4306,-0.0718 0.20095,-0.0287 0.30142,-0.0287 0.14354,0 0.17224,0.22966 0.0144,0.11482 -0.0143,0.2153 -0.0144,0.0861 -0.0718,0.12918 -0.12918,0.0718 -0.4306,0.17224 -0.30142,0.10047 -0.6459,0.18659 -0.33013,0.10047 -0.63155,0.17224 -0.30142,0.0718 -0.41624,0.0718 -0.15789,0 -0.27272,-0.0718 -0.11482,-0.0718 -0.18659,-0.17224 -0.0718,-0.10047 -0.10047,-0.20095 -0.0287,-0.11482 -0.0287,-0.20094 0,-0.31578 0.0144,-0.84685 0.0287,-0.53107 0.0431,-1.11956 0.0287,-0.58849 0.0431,-1.14827 0.0287,-0.57413 0.0287,-0.97603 -0.0861,0.15789 -0.22965,0.30142 -0.14354,0.12918 -0.31578,0.1866 -0.17224,0.0574 -0.40189,0 -0.22965,-0.0574 -0.34448,-0.27272 -0.0861,-0.15788 -0.0574,-0.28706 0.0287,-0.129182 0.12918,-0.229656 0.10047,-0.100473 0.25836,-0.17224 0.15788,-0.08612 0.31577,-0.17224 -0.15789,-0.488014 -0.30142,-1.047794 -0.14353,-0.559781 -0.18659,-1.119561 -0.0431,-0.559781 0.0574,-1.076501 0.10047,-0.516721 0.4306,-0.918614 0.17224,-0.215301 0.48801,-0.244007 0.33013,-0.04306 0.67461,0.02871 0.35883,0.05741 0.68896,0.200947 0.34448,0.143534 0.54543,0.287067 z" />
        <path
           inkscape:connector-curvature="0"
           id="path952"
           style="font-style:normal;font-variant:normal;font-weight:normal;font-stretch:normal;font-family:'Nanum Pen Script';-inkscape-font-specification:'Nanum Pen Script';fill:#2b3b5e;fill-opacity:1;stroke-width:1.36932194"
           d="m -166.89036,122.92238 q -0.0144,0.15788 -0.14354,0.28706 -0.12918,0.14354 -0.28706,0.12918 -0.24401,-0.0144 -0.37319,-0.18659 -0.12918,-0.17224 -0.12918,-0.28707 0,-0.54542 -0.0287,-1.13391 -0.0287,-0.60284 -0.0718,-1.23439 -0.18659,0.0287 -0.34448,-0.0287 -0.14353,-0.0718 -0.20094,-0.2153 -0.10048,-0.24401 0.0287,-0.43061 0.12918,-0.18659 0.41625,-0.35883 -0.0718,-0.53107 -0.14353,-1.04779 -0.0574,-0.51672 -0.12918,-1.00474 -0.0144,-0.0861 0.0144,-0.15788 0.0287,-0.0718 0.0718,-0.12918 0.0431,-0.0718 0.15788,-0.12918 0.1866,-0.0718 0.41625,0.11482 0.24401,0.1866 0.33013,0.47366 0.0431,0.27272 0.0861,0.63155 0.0574,0.34448 0.10047,0.76073 0.30142,-0.1866 0.55978,-0.4019 0.27272,-0.2153 0.45931,-0.4593 0.20095,-0.24401 0.30142,-0.50237 0.10047,-0.27271 0.0574,-0.55978 -0.0287,-0.24401 -0.2153,-0.4306 -0.18659,-0.20095 -0.58848,-0.2153 -0.35884,-0.0144 -0.71767,0.0574 -0.34448,0.0718 -0.68896,0.1866 -0.33013,0.11482 -0.66026,0.27271 -0.31577,0.15789 -0.61719,0.31577 -0.20095,0.11483 -0.40189,0.10048 -0.1866,-0.0287 -0.24401,-0.14354 -0.12918,-0.28706 0.0143,-0.51672 0.15789,-0.22965 0.47366,-0.4306 0.27272,-0.15789 0.6459,-0.31577 0.38754,-0.17224 0.80379,-0.28707 0.4306,-0.12918 0.8612,-0.17224 0.44496,-0.0574 0.84685,0.0144 0.40189,0.0574 0.71767,0.27272 0.33012,0.20094 0.53107,0.60284 0.24401,0.66025 0.12918,1.22003 -0.10047,0.54543 -0.4306,1.00474 -0.31577,0.44495 -0.78943,0.81814 -0.45931,0.35883 -0.93297,0.6459 0.0718,0.77508 0.10047,1.53581 0.0287,0.76072 0.0144,1.33486 z" />
        <path
           inkscape:connector-curvature="0"
           id="path954"
           style="font-style:normal;font-variant:normal;font-weight:normal;font-stretch:normal;font-family:'Nanum Pen Script';-inkscape-font-specification:'Nanum Pen Script';fill:#2b3b5e;fill-opacity:1;stroke-width:1.36932194"
           d="m -162.60141,117.10927 q -0.0861,0.38754 -0.17224,0.8612 -0.0861,0.45931 -0.12918,0.88991 -0.0287,0.4306 0,0.77508 0.0431,0.34448 0.1866,0.48801 0.244,0.0431 0.55978,-0.20094 0.31577,-0.25836 0.61719,-0.6459 0.30142,-0.38754 0.54543,-0.8325 0.24401,-0.4593 0.34448,-0.80378 0.0574,-0.17224 0.10047,-0.35884 0.0431,-0.18659 0.0431,-0.38754 0,-0.11482 0.14354,-0.2153 0.15788,-0.11482 0.25836,-0.12918 0.0718,-0.0144 0.15788,0.0287 0.10048,0.0431 0.17224,0.12918 0.0861,0.0718 0.14354,0.18659 0.0718,0.10048 0.0718,0.2153 0.0287,0.4306 0.0861,0.94732 0.0574,0.51672 0.12918,1.03344 0.0861,0.51672 0.17224,1.00474 0.0861,0.48801 0.17224,0.87555 0.0431,0.15789 -0.0861,0.35884 -0.12918,0.20094 -0.28706,0.244 -0.12918,0.0287 -0.27272,-0.0287 -0.12918,-0.0574 -0.20094,-0.22966 -0.0718,-0.20094 -0.14354,-0.48801 -0.0574,-0.30142 -0.11482,-0.6172 -0.0431,-0.33012 -0.0861,-0.61719 -0.0431,-0.30142 -0.0574,-0.50237 -0.2153,0.38754 -0.51672,0.78944 -0.28706,0.38754 -0.63154,0.71767 -0.33013,0.31577 -0.70332,0.50236 -0.35883,0.17224 -0.74637,0.12918 -0.57414,-0.0718 -0.87556,-1.0765 -0.11482,-0.40189 -0.11482,-0.88991 0.0144,-0.48801 0.0718,-0.96167 0.0718,-0.48801 0.15789,-0.91861 0.10047,-0.4306 0.17224,-0.70332 0.0287,-0.11482 0.11483,-0.20094 0.0861,-0.10048 0.20094,-0.0718 0.2153,0.0431 0.38754,0.25836 0.1866,0.2153 0.12918,0.44495 z" />
        <path
           inkscape:connector-curvature="0"
           id="path956"
           style="font-style:normal;font-variant:normal;font-weight:normal;font-stretch:normal;font-family:'Nanum Pen Script';-inkscape-font-specification:'Nanum Pen Script';fill:#2b3b5e;fill-opacity:1;stroke-width:1.36932194"
           d="m -157.08748,114.06636 q 0.0144,0.22966 0.0144,0.55978 0.0144,0.33013 0.0287,0.71767 0.0144,0.38754 0.0431,0.78943 0.0287,0.38755 0.0861,0.74638 0.2153,-0.35883 0.48802,-0.54543 0.28706,-0.18659 0.57413,-0.22965 0.44495,-0.0574 0.77508,0.10047 0.33013,0.15789 0.54543,0.44496 0.2153,0.27271 0.31577,0.61719 0.10047,0.33013 0.10047,0.6459 0,0.67461 -0.35883,1.24874 -0.34448,0.57413 -0.81814,1.01909 -0.45931,0.44495 -0.91861,0.74637 -0.44496,0.30142 -0.64591,0.4306 -0.28706,0.11483 -0.55978,0.0574 -0.27271,-0.0574 -0.35883,-0.17224 -0.0718,-0.17224 -0.0431,-0.28707 0.0287,-0.12918 0.11483,-0.22965 0.0861,-0.10048 0.20094,-0.17224 0.12918,-0.0861 0.2153,-0.15789 -0.34448,-1.57887 -0.53107,-3.18644 -0.18659,-1.62193 -0.15789,-3.28692 0,-0.28707 0.11483,-0.33013 0.12918,-0.0431 0.2153,-0.0431 0.20095,0.0287 0.35883,0.15789 0.15789,0.12918 0.20095,0.35883 z m 2.09559,3.80364 q 0,-0.48801 -0.24401,-0.67461 -0.244,-0.20094 -0.50236,-0.17224 -0.2153,0.0287 -0.38754,0.15789 -0.17224,0.12918 -0.30142,0.31577 -0.12918,0.1866 -0.20095,0.41625 -0.0574,0.22965 -0.0431,0.44495 0.0287,0.35884 0.0718,0.77508 0.0574,0.41625 0.12918,0.74638 0.22965,-0.15789 0.48801,-0.35884 0.25836,-0.2153 0.47366,-0.47366 0.22965,-0.25836 0.37319,-0.54542 0.14353,-0.30142 0.14353,-0.63155 z" />
        <path
           inkscape:connector-curvature="0"
           id="path958"
           style="font-style:normal;font-variant:normal;font-weight:normal;font-stretch:normal;font-family:'Nanum Pen Script';-inkscape-font-specification:'Nanum Pen Script';fill:#2b3b5e;fill-opacity:1;stroke-width:1.36932194"
           d="m -151.89314,114.6405 q 0.0718,1.56451 0.24401,3.24385 0.17224,1.66499 0.37319,3.18645 0.0431,0.63154 -0.34448,0.6459 -0.0861,0 -0.17224,-0.0574 -0.0861,-0.0718 -0.15789,-0.17224 -0.0718,-0.10047 -0.14353,-0.2153 -0.0574,-0.11482 -0.0718,-0.20094 -0.11483,-0.73202 -0.2153,-1.55017 -0.10047,-0.81814 -0.18659,-1.63628 -0.0718,-0.83249 -0.12918,-1.62193 -0.0574,-0.78943 -0.0718,-1.44968 0.0287,-0.34448 0.10047,-0.57414 0.0718,-0.244 0.30142,-0.22965 0.24401,0.0144 0.34448,0.20095 0.11483,0.17224 0.12918,0.4306 z" />
        <path
           inkscape:connector-curvature="0"
           id="path960"
           style="font-style:normal;font-variant:normal;font-weight:normal;font-stretch:normal;font-family:'Nanum Pen Script';-inkscape-font-specification:'Nanum Pen Script';fill:#2b3b5e;fill-opacity:1;stroke-width:1.36932194"
           d="m -147.68783,115.5017 q -0.0287,0.14353 -0.20095,0.15788 -0.17224,0.0144 -0.28706,0.0144 -0.35884,0.0143 -0.74638,0.0718 -0.37318,0.0574 -0.78943,0.17224 -0.17224,0.0574 -0.37319,-0.0431 -0.20095,-0.10047 -0.24401,-0.40189 0,-0.11483 0.0861,-0.18659 0.0861,-0.0718 0.20095,-0.12918 0.18659,-0.0861 0.44495,-0.14354 0.25837,-0.0718 0.51673,-0.10047 0.27271,-0.0287 0.51672,-0.0144 0.244,0 0.40189,0.0431 0.22965,0.0718 0.35883,0.2153 0.14354,0.14353 0.11483,0.34448 z m -0.33013,4.77966 q 0.10048,0.22966 0.10048,0.50237 0.0144,0.25836 -0.14354,0.35883 -0.20094,0.12918 -0.4306,-0.0144 -0.22965,-0.14353 -0.34448,-0.38754 -0.15788,-0.30142 -0.244,-0.73202 -0.0861,-0.44496 -0.12918,-0.87556 -0.0431,-0.4306 -0.0574,-0.80378 0,-0.37319 0,-0.55978 0.0144,-0.20095 0.11483,-0.37319 0.10047,-0.17224 0.25836,-0.20095 0.25836,0.0144 0.41625,0.24401 0.15788,0.2153 0.14353,0.54543 0,0.25836 0.0144,0.57413 0.0144,0.31577 0.0574,0.63155 0.0431,0.31577 0.10047,0.61719 0.0574,0.28707 0.14353,0.47366 z" />
        <path
           inkscape:connector-curvature="0"
           id="path962"
           style="font-style:normal;font-variant:normal;font-weight:normal;font-stretch:normal;font-family:'Nanum Pen Script';-inkscape-font-specification:'Nanum Pen Script';fill:#2b3b5e;fill-opacity:1;stroke-width:1.36932194"
           d="m -143.32172,117.66905 q -0.10048,0.0574 -0.24401,0.0431 -0.14353,-0.0287 -0.24401,-0.18659 -0.22965,-0.30142 -0.55978,-0.30142 -0.30142,0 -0.54542,0.14353 -0.22966,0.12918 -0.41625,0.35884 -0.17224,0.2153 -0.28707,0.48801 -0.11482,0.27271 -0.15788,0.54543 -0.0718,0.50236 0.17224,0.84684 0.244,0.34448 0.76072,0.34448 0.41625,0.0144 0.93297,-0.15788 0.53107,-0.1866 0.99038,-0.47366 0.20095,-0.0861 0.37319,-0.10048 0.17224,-0.0144 0.28707,0.17224 0.14353,0.22966 -0.0718,0.47366 -0.2153,0.22966 -0.57414,0.41625 -0.35883,0.20095 -0.76072,0.35884 -0.38754,0.14353 -0.78944,0.2153 -0.40189,0.0574 -0.80378,0 -0.38754,-0.0574 -0.73202,-0.27272 -0.54543,-0.37319 -0.66026,-1.06215 -0.11483,-0.68896 0.10047,-1.42098 0.0861,-0.27271 0.24401,-0.54542 0.15789,-0.28707 0.37319,-0.51672 0.22965,-0.22966 0.50237,-0.38754 0.27271,-0.17224 0.60284,-0.22966 0.53107,-0.0861 1.01908,0.11483 0.48802,0.18659 0.6459,0.70331 0.0287,0.11483 0,0.24401 -0.0287,0.11483 -0.15788,0.18659 z" />
        <path
           inkscape:connector-curvature="0"
           id="path964"
           style="font-style:normal;font-variant:normal;font-weight:normal;font-stretch:normal;font-family:'Nanum Pen Script';-inkscape-font-specification:'Nanum Pen Script';fill:#2b3b5e;fill-opacity:1;stroke-width:1.36932194"
           d="m -134.7438,117.06621 q -0.0287,-0.15788 -0.0574,-0.30142 -0.0287,-0.14353 -0.14353,-0.18659 -0.24401,-0.0718 -0.51672,-0.0143 -0.27271,0.0574 -0.50237,0.18659 -0.22965,0.11483 -0.38754,0.27271 -0.15788,0.14354 -0.17224,0.25836 -0.0431,0.2153 0.11483,0.41625 0.15789,0.20095 0.45931,0.40189 0.50236,0.30142 1.04779,0.6172 0.54543,0.31577 0.91862,0.6459 0.37318,0.33012 0.50236,0.73202 0.14354,0.38754 -0.0574,0.88991 -0.15789,0.38754 -0.58849,0.63154 -0.4306,0.24401 -0.94732,0.38754 -0.51672,0.12918 -1.03344,0.1866 -0.51672,0.0431 -0.87555,0.0431 -0.0861,0 -0.2153,-0.0574 -0.11483,-0.0718 -0.22966,-0.15788 -0.10047,-0.0861 -0.18659,-0.17224 -0.0718,-0.10048 -0.0718,-0.17224 0,-0.25836 0.22966,-0.35884 0.22965,-0.10047 0.47366,-0.10047 0.34448,0 0.73202,-0.0287 0.40189,-0.0431 0.76072,-0.11482 0.35884,-0.0861 0.6459,-0.2153 0.28707,-0.12918 0.4019,-0.33013 0.10047,-0.17224 -0.12918,-0.4019 -0.2153,-0.244 -0.58849,-0.50236 -0.35883,-0.25836 -0.78943,-0.50237 -0.41625,-0.24401 -0.71767,-0.44495 -0.30142,-0.20095 -0.51672,-0.47366 -0.2153,-0.28707 -0.27271,-0.70332 -0.0144,-0.37318 0.15788,-0.71766 0.17224,-0.34448 0.44496,-0.60285 0.28706,-0.27271 0.6459,-0.4306 0.35883,-0.15788 0.71766,-0.15788 0.6172,0.0287 1.01909,0.34448 0.4019,0.30142 0.47366,0.90426 0,0.20095 -0.0718,0.33013 -0.0574,0.12918 -0.21531,0.15788 -0.20094,0.0287 -0.33012,-0.0431 -0.11483,-0.0861 -0.12918,-0.2153 z" />
        <path
           inkscape:connector-curvature="0"
           id="path966"
           style="font-style:normal;font-variant:normal;font-weight:normal;font-stretch:normal;font-family:'Nanum Pen Script';-inkscape-font-specification:'Nanum Pen Script';fill:#2b3b5e;fill-opacity:1;stroke-width:1.36932194"
           d="m -129.29177,117.51117 q 0.27271,-0.0144 0.54542,0.12918 0.27272,0.14353 0.27272,0.44495 -0.0287,0.24401 -0.27272,0.31577 -0.22965,0.0574 -0.37318,0.0574 -0.28707,0 -0.6172,0.0144 -0.33012,0.0143 -0.6746,0.0431 -0.0287,0.47366 -0.0574,0.88991 -0.0144,0.41624 -0.0287,0.74637 -0.0144,0.31578 -0.0144,0.51672 0,0.20095 0.0144,0.2153 0.31577,-0.0574 0.6746,-0.18659 0.37319,-0.14353 0.73202,-0.30142 0.37319,-0.17224 0.71767,-0.34448 0.35883,-0.1866 0.67461,-0.34448 0.14353,-0.0718 0.25836,-0.0431 0.12918,0.0287 0.15789,0.12918 0.0287,0.15788 -0.0431,0.38754 -0.0718,0.22965 -0.25836,0.41625 -0.21531,0.17224 -0.57414,0.40189 -0.34448,0.2153 -0.74637,0.41625 -0.4019,0.20094 -0.81814,0.35883 -0.4019,0.14353 -0.71767,0.17224 -0.47366,0.0431 -0.71767,-0.25836 -0.244,-0.30142 -0.27271,-0.76073 -0.0287,-0.4593 -0.0144,-1.06215 0.0287,-0.60284 0.0574,-1.27744 -0.27272,0.0287 -0.53108,0.0574 -0.244,0.0144 -0.47366,0.0431 -0.18659,0 -0.41624,-0.0861 -0.2153,-0.0861 -0.2153,-0.33013 0,-0.0861 0.0718,-0.22965 0.0718,-0.14353 0.31578,-0.2153 0.58848,-0.10047 1.30615,-0.17224 0.0431,-0.67461 0.10048,-1.30616 0.0574,-0.63154 0.10047,-1.14826 0.0143,-0.17224 0.10047,-0.30142 0.0861,-0.12918 0.1866,-0.12918 0.244,-0.0144 0.4593,0.12918 0.22966,0.12918 0.22966,0.30142 -0.0574,0.48801 -0.11483,1.1052 -0.0431,0.6172 -0.0861,1.2631 0.28707,-0.0287 0.54543,-0.0287 0.27271,-0.0143 0.51672,-0.0287 z" />
        <path
           inkscape:connector-curvature="0"
           id="path968"
           style="font-style:normal;font-variant:normal;font-weight:normal;font-stretch:normal;font-family:'Nanum Pen Script';-inkscape-font-specification:'Nanum Pen Script';fill:#2b3b5e;fill-opacity:1;stroke-width:1.36932194"
           d="m -123.10257,116.04712 q 0.0574,0.4019 0.0861,0.86121 0.0431,0.44495 0.0574,0.90426 0.0287,0.4593 0.0287,0.8899 0,0.4306 -0.0144,0.77508 0.45931,0.31578 0.54543,0.55978 0.10047,0.24401 0.0287,0.43061 -0.0861,0.25836 -0.31577,0.27271 -0.2153,0 -0.50237,-0.15789 -0.20095,0.14354 -0.45931,0.31578 -0.25836,0.15788 -0.54542,0.31577 -0.28707,0.14353 -0.57414,0.25836 -0.28706,0.11483 -0.53107,0.15789 -0.45931,0.0718 -0.83249,-0.17224 -0.35884,-0.24401 -0.48802,-0.73202 -0.0861,-0.33013 -0.0431,-0.67461 0.0431,-0.35884 0.2153,-0.67461 0.17224,-0.33013 0.45931,-0.58849 0.30142,-0.25836 0.70331,-0.40189 0.10048,-0.0431 0.27272,-0.0718 0.18659,-0.0287 0.37318,-0.0143 0.20095,0 0.4019,0.0718 0.20094,0.0718 0.37318,0.244 0,-0.244 -0.0144,-0.53107 0,-0.30142 -0.0143,-0.60284 -0.0144,-0.30142 -0.0431,-0.55978 -0.0144,-0.27271 -0.0431,-0.45931 -0.0287,-0.2153 -0.17224,-0.25836 -0.12918,-0.0574 -0.33013,0.0143 -0.34448,0.11483 -0.80379,0.44496 -0.4593,0.33013 -0.87555,0.70331 -0.12918,0.12918 -0.30142,0.11483 -0.15789,-0.0144 -0.27272,-0.12918 -0.11482,-0.11483 -0.12918,-0.25836 -0.0143,-0.15789 0.11483,-0.33013 0.24401,-0.25836 0.54543,-0.53107 0.30142,-0.27272 0.63155,-0.48802 0.33012,-0.22965 0.6746,-0.37318 0.34448,-0.14354 0.68896,-0.15789 0.50237,-0.0143 0.77508,0.22965 0.27272,0.22966 0.33013,0.60284 z m -1.66499,3.08597 q -0.18659,0.0431 -0.40189,0.1866 -0.20095,0.12918 -0.37319,0.33012 -0.15788,0.1866 -0.244,0.4306 -0.0718,0.22966 0,0.45931 0.0287,0.0861 0.11482,0.12918 0.10048,0.0431 0.2153,0.0144 0.34448,-0.0718 0.77508,-0.27272 0.44496,-0.2153 0.70332,-0.45931 0,-0.0861 -0.0861,-0.2153 -0.0861,-0.14353 -0.20095,-0.27271 -0.11483,-0.14353 -0.25836,-0.24401 -0.12918,-0.10047 -0.24401,-0.0861 z" />
      </g>
      <path
         inkscape:connector-curvature="0"
         id="path987"
         transform="scale(0.26458333)"
         d="m -99.613281,529.83594 -75.039059,61.28711 -38.07032,47.10156 -6.34765,7.85156 v 0.002 c -5.3e-4,10e-4 -0.0302,0.0815 -0.0684,0.20704 l -0.002,0.002 c -0.0576,0.18991 -0.12995,0.47973 -0.13477,0.74609 -0.003,0.17759 0.0234,0.34399 0.10547,0.46289 0.0411,0.0595 0.0963,0.10778 0.16797,0.13868 0.0874,0.0377 0.19442,0.0539 0.31445,0.0547 0.84004,0.006 2.32617,-0.77929 2.32617,-0.77929 l 17.44531,-9.77539 h 0.002 l 50.97461,-28.56446 77.642575,-63.21093 c -0.363419,-0.1585 -0.734786,-0.32437 -1.130859,-0.51758 -6.324636,-3.08522 -17.446542,-10.95975 -28.185547,-15.00586 z"
         style="opacity:0.25;fill:#000000;fill-opacity:1;stroke:none;stroke-width:5.17538977px;stroke-linecap:butt;stroke-linejoin:miter;stroke-opacity:1" />
      <path
         sodipodi:nodetypes="cccccccccsccccccccccccccccsscssscsccccccc"
         inkscape:connector-curvature="0"
         id="path2846"
         transform="scale(0.26458333)"
         d="m -49.888672,203.7793 c -0.08387,-0.002 -0.160406,0.005 -0.228516,0.0234 -1.089777,0.29651 -2.283267,1.4271 -3.003906,2.51563 -0.761064,1.14962 -0.82584,2.62956 -1.205078,3.95508 -0.401408,1.40296 -0.308204,3.02523 -1.130859,4.23047 -1.001144,1.46664 -3.404736,1.61747 -4.291016,3.15625 -1.130472,1.96276 0.201219,4.69479 -0.738281,6.75586 -0.736399,1.61587 -2.908708,2.28183 -3.617188,3.91015 -0.6532,1.50123 0.482113,4.14118 -0.365234,4.89844 -0.847363,0.75727 -0.659028,0.58847 -2.503906,4.77734 -1.844878,4.18888 -2.162772,6.67458 -1.123047,7.26953 0.01016,0.006 0.02474,0.008 0.03516,0.0137 2.84e-4,0.003 0.002,0.043 0.002,0.043 0,1e-5 2.271981,1.01056 4.166016,1.51563 0.385039,0.10268 0.681309,0.21841 0.951172,0.33984 0.174994,0.14831 0.350662,0.28187 0.52539,0.46289 2.281799,2.36379 5.302998,2.71257 6.541016,2.96094 0.607484,0.12187 1.039863,0.002 1.912109,0.17188 0.825167,0.348 1.831508,0.74476 3.259766,1.25 0.475127,0.23679 0.993523,0.50778 1.585937,0.83593 2.011709,1.11433 3.218631,1.68004 4.214844,2.13086 0.235892,0.25006 0.427306,0.47429 0.708985,0.68555 0.960687,0.72051 3.07399,2.56421 6.101562,2.85352 0.620624,0.20743 1.157832,0.36314 1.931641,0.87109 1.638693,1.07571 3.908203,2.0957 3.908203,2.0957 0,0 1.24572,0.61424 1.40904,0.47406 1.131024,0.22413 1.609809,-2.3874 3.442522,-6.41937 1.894035,-4.16688 1.894532,-3.91435 1.894532,-5.05078 0,-1.13642 2.724096,-2.04776 3.408203,-3.53516 0.742015,-1.6133 -0.208293,-3.67885 0.505859,-5.30468 0.910919,-2.07379 3.834713,-2.89998 4.544922,-5.05079 0.556797,-1.68621 -0.93037,-3.57894 -0.503906,-5.30273 0.35045,-1.41654 1.619811,-2.42795 2.398437,-3.66211 0.735653,-1.16604 1.796436,-2.20162 2.146485,-3.53516 0.331449,-1.26268 0.378143,-2.90391 -0.126953,-3.91406 -0.440204,-0.88044 -3.446564,-1.54741 -4.660157,-1.87695 -2.470613,-1.44919 -7.822304,-4.54119 -9.523437,-4.92383 -0.654937,-0.14731 -1.987082,-0.58946 -3.47461,-1.10742 -2.017026,-1.08673 -3.947768,-2.16805 -4.691406,-2.69922 -1.659223,-1.18514 -9.428455,-3.6326 -11.03125,-4.14648 -1.111166,-0.73458 -2.5647,-1.64716 -3.375,-1.66797 z"
         style="fill:#535667;fill-opacity:1;stroke:none;stroke-width:5.17538977px;stroke-linecap:butt;stroke-linejoin:miter;stroke-opacity:1" />
      <path
         inkscape:connector-curvature="0"
         id="path2853"
         transform="scale(0.26458333)"
         d="m -39.085938,207.99219 -20.222656,41.70703 c 1.413484,0.57492 2.720834,0.76521 3.433594,0.9082 0.607484,0.12187 1.039863,0.002 1.912109,0.17188 0.825167,0.348 1.831508,0.74476 3.259766,1.25 0.475127,0.23679 0.993524,0.50778 1.585937,0.83593 2.011709,1.11433 3.218631,1.68004 4.214844,2.13086 0.235892,0.25006 0.427306,0.47429 0.708985,0.68555 0.881431,0.66107 2.742955,2.25425 5.380859,2.73828 l 18.832031,-41.36133 c -2.644703,-1.51158 -6.040821,-3.36689 -7.335937,-3.6582 -0.654937,-0.14731 -1.987082,-0.58946 -3.47461,-1.10742 -2.017026,-1.08673 -3.947768,-2.16805 -4.691406,-2.69922 -0.589456,-0.42103 -2.022214,-1.00519 -3.603516,-1.60156 z"
         style="fill:#686c81;fill-opacity:1;stroke:none;stroke-width:5.17538977px;stroke-linecap:butt;stroke-linejoin:miter;stroke-opacity:1" />
    </g>
  </g>
</svg>
