<?xml version="1.0" encoding="UTF-8" standalone="no"?>
<!-- Created with Inkscape (http://www.inkscape.org/) -->

<svg
   xmlns:osb="http://www.openswatchbook.org/uri/2009/osb"
   xmlns:dc="http://purl.org/dc/elements/1.1/"
   xmlns:cc="http://creativecommons.org/ns#"
   xmlns:rdf="http://www.w3.org/1999/02/22-rdf-syntax-ns#"
   xmlns:svg="http://www.w3.org/2000/svg"
   xmlns="http://www.w3.org/2000/svg"
   xmlns:xlink="http://www.w3.org/1999/xlink"
   xmlns:sodipodi="http://sodipodi.sourceforge.net/DTD/sodipodi-0.dtd"
   xmlns:inkscape="http://www.inkscape.org/namespaces/inkscape"
   width="128"
   height="128"
   viewBox="0 0 33.866665 33.866665"
   version="1.1"
   id="svg4942"
   inkscape:version="0.92.2 5c3e80d, 2017-08-06"
   sodipodi:docname="applications-system.svg"
   style="enable-background:new">
  <defs
     id="defs4936">
    <linearGradient
       inkscape:collect="always"
       id="linearGradient2403">
      <stop
         style="stop-color:#50657e;stop-opacity:1;"
         offset="0"
         id="stop2399" />
      <stop
         style="stop-color:#444646;stop-opacity:1"
         offset="1"
         id="stop2401" />
    </linearGradient>
    <linearGradient
       id="linearGradient1425"
       inkscape:collect="always">
      <stop
         style="stop-color:#cbccc9;stop-opacity:1"
         offset="0"
         id="stop1423" />
      <stop
         style="stop-color:#b1b2af;stop-opacity:1"
         offset="1"
         id="stop1421" />
    </linearGradient>
    <linearGradient
       inkscape:collect="always"
       id="linearGradient1142">
      <stop
         style="stop-color:#1b1a19;stop-opacity:1"
         offset="0"
         id="stop1138" />
      <stop
         style="stop-color:#4f5150;stop-opacity:1"
         offset="1"
         id="stop1140" />
    </linearGradient>
    <linearGradient
       inkscape:collect="always"
       id="linearGradient1132">
      <stop
         style="stop-color:#d5e8ef;stop-opacity:1"
         offset="0"
         id="stop1128" />
      <stop
         style="stop-color:#777776;stop-opacity:1"
         offset="1"
         id="stop1130" />
    </linearGradient>
    <linearGradient
       id="linearGradient6987"
       osb:paint="solid">
      <stop
         style="stop-color:#77d2fb;stop-opacity:1;"
         offset="0"
         id="stop6985" />
    </linearGradient>
    <linearGradient
       inkscape:collect="always"
       xlink:href="#linearGradient1132"
       id="linearGradient1134"
       x1="-468.81375"
       y1="180.3156"
       x2="-466.79233"
       y2="321.19791"
       gradientUnits="userSpaceOnUse"
       gradientTransform="matrix(0.216019,0,0,0.21585227,117.37597,226.32228)" />
    <linearGradient
       inkscape:collect="always"
       xlink:href="#linearGradient1142"
       id="linearGradient1144"
       x1="-467.31821"
       y1="166.99652"
       x2="-467.2738"
       y2="217.44534"
       gradientUnits="userSpaceOnUse"
       gradientTransform="matrix(0.216019,0,0,0.21585227,117.87341,232.28333)" />
    <linearGradient
       inkscape:collect="always"
       xlink:href="#linearGradient2403"
       id="linearGradient2405"
       x1="-488.19037"
       y1="122.44934"
       x2="-488.09128"
       y2="264.24469"
       gradientUnits="userSpaceOnUse"
       gradientTransform="matrix(0.216019,0,0,0.21585227,125.11589,238.48843)" />
    <linearGradient
       inkscape:collect="always"
       xlink:href="#linearGradient1425"
       id="linearGradient1048"
       gradientUnits="userSpaceOnUse"
       gradientTransform="matrix(0.216019,0,0,0.21585225,108.93665,206.5725)"
       x1="-425.94724"
       y1="286.10971"
       x2="-424.59305"
       y2="389.85007" />
  </defs>
  <sodipodi:namedview
     id="base"
     pagecolor="#ffffff"
     bordercolor="#666666"
     borderopacity="1.0"
     inkscape:pageopacity="0.0"
     inkscape:pageshadow="2"
     inkscape:zoom="4.1377247"
     inkscape:cx="53.445893"
     inkscape:cy="53.803482"
     inkscape:document-units="mm"
     inkscape:current-layer="layer1"
     showgrid="false"
     units="px"
     width="128px"
     inkscape:window-width="1600"
     inkscape:window-height="814"
     inkscape:window-x="0"
     inkscape:window-y="0"
     inkscape:window-maximized="1"
     inkscape:measure-start="-293.521,100.415"
     inkscape:measure-end="-294.709,409.978"
     showguides="false" />
  <metadata
     id="metadata4939">
    <rdf:RDF>
      <cc:Work
         rdf:about="">
        <dc:format>image/svg+xml</dc:format>
        <dc:type
           rdf:resource="http://purl.org/dc/dcmitype/StillImage" />
        <dc:title />
      </cc:Work>
    </rdf:RDF>
  </metadata>
  <g
     inkscape:label="Layer 1"
     inkscape:groupmode="layer"
     id="layer1"
     transform="translate(0,-263.13332)">
    <rect
       style="opacity:1;fill:url(#linearGradient1134);fill-opacity:1;fill-rule:nonzero;stroke:url(#linearGradient2405);stroke-width:0.50128531;stroke-linecap:round;stroke-linejoin:round;stroke-miterlimit:4;stroke-dasharray:none;stroke-dashoffset:0;stroke-opacity:1"
       id="rect1126"
       width="32.836212"
       height="30.721842"
       x="0.51522726"
       y="264.70572"
       ry="1.4207363" />
    <ellipse
       style="opacity:1;fill:url(#linearGradient1144);fill-opacity:1;fill-rule:nonzero;stroke:none;stroke-width:0.6815446;stroke-linecap:round;stroke-linejoin:round;stroke-miterlimit:4;stroke-dasharray:none;stroke-dashoffset:0;stroke-opacity:1"
       id="path1136"
       cx="16.933336"
       cy="280.06665"
       rx="13.25119"
       ry="13.240963" />
    <path
       inkscape:connector-curvature="0"
       id="path840"
       d="m 16.9238,268.85908 c -0.515592,0 -0.503052,-0.0166 -0.674057,0.89564 -0.06322,0.33727 -0.129514,0.62784 -0.147266,0.64558 -0.06214,0.0621 -0.815673,0.15777 -0.937717,0.11906 -0.0791,-0.0251 -0.235056,-0.27305 -0.435621,-0.6927 -0.352324,-0.73718 -0.360381,-0.74169 -0.968196,-0.53886 -0.301202,0.10052 -0.314675,0.11513 -0.332496,0.35639 -0.01022,0.13836 0.0073,0.4631 0.03902,0.72172 0.03172,0.25861 0.03523,0.51375 0.0078,0.56695 -0.06199,0.11999 -0.843122,0.44721 -0.952956,0.39918 -0.0442,-0.0193 -0.274473,-0.27516 -0.511817,-0.56852 -0.389044,-0.48085 -0.447905,-0.52937 -0.596812,-0.49278 -0.234123,0.0575 -0.700079,0.33833 -0.741844,0.4471 -0.01935,0.0504 0.06709,0.36209 0.192193,0.6927 0.125103,0.33061 0.227532,0.65355 0.227532,0.71751 0,0.13047 -0.611269,0.62235 -0.773373,0.62235 -0.05634,0 -0.3607551,-0.16936 -0.6764224,-0.37648 -0.3156552,-0.20712 -0.6052251,-0.37661 -0.643449,-0.37661 -0.094388,0 -0.6705109,0.57274 -0.6705109,0.66658 0,0.0413 0.1834626,0.34913 0.4076404,0.68417 0.4598533,0.68735 0.4597282,0.64438 -7.87e-4,1.18942 -0.2407375,0.28492 -0.21319,0.28657 -1.1815392,-0.0688 l -0.4919792,-0.18063 -0.1519951,0.18837 c -0.083596,0.10356 -0.1999281,0.31297 -0.2585355,0.46535 l -0.1065405,0.27697 0.3407732,0.28788 c 0.1874383,0.15829 0.4498515,0.38737 0.5831499,0.50905 l 0.2423767,0.22132 -0.1678902,0.41888 c -0.092293,0.23038 -0.2007225,0.44478 -0.2409319,0.47663 -0.044828,0.0355 -0.3495697,0.0324 -0.7876929,-0.008 -0.8259907,-0.0766 -0.8119286,-0.0838 -0.9486204,0.48556 -0.105492,0.43941 -0.089111,0.45981 0.6609209,0.81714 0.3690702,0.17583 0.5972972,0.32314 0.622167,0.40142 0.051382,0.16177 -0.06821,0.89867 -0.1544911,0.95196 -0.036818,0.0227 -0.3554311,0.0914 -0.7082138,0.15266 -0.3527782,0.0612 -0.6767296,0.14005 -0.7199059,0.17511 -0.1059089,0.086 -0.1059089,0.88947 0,0.97546 0.043176,0.0351 0.3671277,0.11374 0.7199059,0.17498 0.3527827,0.0612 0.6713957,0.13006 0.7082138,0.1528 0.086281,0.0533 0.2058727,0.79018 0.1544911,0.95195 -0.024862,0.0783 -0.2530968,0.22558 -0.622167,0.40142 -0.7472528,0.35601 -0.7698044,0.3831 -0.664862,0.80048 0.1297088,0.51586 0.1566271,0.54563 0.4917167,0.54332 0.1628787,-0.001 0.4939764,-0.0279 0.7358016,-0.0593 0.3239653,-0.0422 0.4598418,-0.0373 0.5162828,0.0181 0.1480609,0.14551 0.3855154,0.8214 0.3269792,0.93069 -0.03059,0.0571 -0.2842979,0.29446 -0.5638385,0.52744 -0.4533868,0.37787 -0.5039424,0.44123 -0.4680706,0.58703 0.057223,0.23258 0.3386733,0.69822 0.4471826,0.73982 0.050406,0.0193 0.3623708,-0.0672 0.6932378,-0.19217 0.330867,-0.12501 0.6537897,-0.22723 0.7178043,-0.22723 0.130573,0 0.6230863,0.6108 0.6230863,0.77278 0,0.0563 -0.1696249,0.36034 -0.3768999,0.67577 -0.2072798,0.31542 -0.3768993,0.60477 -0.3768993,0.64295 0,0.0953 0.5736984,0.66999 0.6688032,0.66999 0.042215,0 0.3302797,-0.16948 0.6401639,-0.37661 0.3098821,-0.20711 0.612968,-0.3766 0.673533,-0.3766 0.161132,0 0.781124,0.49857 0.781124,0.62811 0,0.0609 -0.102169,0.38113 -0.227269,0.71174 -0.125102,0.33061 -0.211795,0.64234 -0.192457,0.6927 0.04177,0.10877 0.507985,0.38972 0.742108,0.44724 0.148907,0.0366 0.207631,-0.0119 0.596681,-0.49279 0.23734,-0.29335 0.464616,-0.54809 0.505247,-0.56602 0.1067,-0.0472 0.899398,0.28024 0.958211,0.39577 0.02738,0.0537 0.02706,0.29525 -9.22e-4,0.53689 -0.02794,0.24164 -0.05217,0.56077 -0.05412,0.70924 -0.003,0.25064 0.01263,0.27658 0.217942,0.3623 0.121615,0.0508 0.345167,0.10932 0.496841,0.13009 l 0.275745,0.0377 0.316206,-0.66133 c 0.20332,-0.42541 0.35993,-0.67532 0.439169,-0.70045 0.122044,-0.0387 0.875707,0.057 0.937848,0.11906 0.01777,0.0178 0.08405,0.30818 0.147266,0.64545 0.0632,0.33713 0.143232,0.67667 0.177874,0.75453 0.05646,0.12659 0.107603,0.14124 0.496315,0.14124 0.279652,0 0.457429,-0.0291 0.501307,-0.0819 0.0374,-0.045 0.115391,-0.36751 0.173407,-0.71659 0.05803,-0.34907 0.124854,-0.66604 0.14858,-0.70439 0.05499,-0.0889 0.790211,-0.2093 0.956371,-0.1566 0.07841,0.0249 0.210145,0.22036 0.350495,0.52009 0.123678,0.26415 0.28044,0.56093 0.348392,0.65949 0.111206,0.1613 0.148416,0.17514 0.372039,0.1394 0.136637,-0.0218 0.344627,-0.0797 0.462159,-0.12877 0.201514,-0.0841 0.213578,-0.10652 0.211636,-0.39065 -0.001,-0.16574 -0.02776,-0.49898 -0.05925,-0.74062 -0.04212,-0.32316 -0.03748,-0.4587 0.01774,-0.5126 0.116307,-0.11363 0.857204,-0.39526 0.94179,-0.35797 0.04149,0.0183 0.267625,0.27104 0.502751,0.5617 0.235122,0.29065 0.475635,0.52826 0.534149,0.52783 0.125383,-7.6e-4 0.736498,-0.34075 0.801618,-0.44605 0.02476,-0.04 -0.06488,-0.39657 -0.199419,-0.79234 l -0.244741,-0.71961 0.341823,-0.3073 c 0.18795,-0.16902 0.373052,-0.3073 0.411319,-0.3073 0.03827,0 0.346232,0.18361 0.684436,0.40798 0.338199,0.22438 0.652702,0.40798 0.698755,0.40798 0.10819,0 0.65895,-0.54924 0.65895,-0.65713 0,-0.0453 -0.169622,-0.34039 -0.376899,-0.65581 -0.207277,-0.31543 -0.377034,-0.61952 -0.377031,-0.67577 0,-0.15518 0.502525,-0.77291 0.628735,-0.77291 0.06093,0 0.381556,0.10235 0.712418,0.22736 0.330872,0.125 0.643526,0.2111 0.694946,0.19139 0.11146,-0.0427 0.474872,-0.65725 0.475952,-0.80428 5.38e-4,-0.0567 -0.239713,-0.30516 -0.533361,-0.55225 -0.612329,-0.51523 -0.631052,-0.57478 -0.357457,-1.13337 0.14142,-0.28872 0.19473,-0.34377 0.32606,-0.33605 0.08636,0.005 0.432567,0.03 0.769301,0.0553 l 0.612182,0.0458 0.09577,-0.22893 c 0.05267,-0.12596 0.112883,-0.35342 0.133734,-0.50552 l 0.03797,-0.27658 -0.66276,-0.31714 c -0.418833,-0.20036 -0.676981,-0.36148 -0.701251,-0.43791 -0.05163,-0.16252 0.07062,-0.8969 0.1583,-0.95104 0.03838,-0.0237 0.355584,-0.0905 0.70493,-0.14847 0.349331,-0.058 0.671961,-0.13591 0.717016,-0.17327 0.111549,-0.0925 0.111549,-0.89135 0,-0.98386 -0.04506,-0.0374 -0.367685,-0.11543 -0.717016,-0.1734 -0.349346,-0.058 -0.666549,-0.12477 -0.70493,-0.14847 -0.08828,-0.0545 -0.209657,-0.78897 -0.157512,-0.95313 0.02514,-0.0792 0.275254,-0.2358 0.700989,-0.43897 l 0.661972,-0.31583 -0.03784,-0.27566 c -0.02077,-0.15155 -0.07937,-0.37494 -0.130187,-0.49646 -0.08771,-0.20978 -0.10766,-0.22077 -0.393978,-0.21882 -0.165851,0.001 -0.49937,0.0277 -0.741188,0.0592 -0.515359,0.0671 -0.520363,0.0639 -0.74237,-0.46876 -0.106577,-0.25568 -0.138891,-0.40908 -0.101024,-0.47978 0.03063,-0.0572 0.282449,-0.29299 0.559504,-0.5239 0.277055,-0.2309 0.503146,-0.46672 0.503146,-0.52415 -7.6e-4,-0.14805 -0.36395,-0.76265 -0.475952,-0.80559 -0.05142,-0.0197 -0.364074,0.0664 -0.694946,0.19139 -0.330862,0.125 -0.65149,0.22735 -0.712418,0.22735 -0.12621,0 -0.628735,-0.61772 -0.628735,-0.77291 0,-0.0562 0.169754,-0.36047 0.377031,-0.6759 0.207277,-0.31542 0.376899,-0.61041 0.376899,-0.65568 0,-0.10874 -0.551363,-0.65713 -0.660657,-0.65713 -0.04688,0 -0.320107,0.15764 -0.607323,0.35035 -0.770095,0.51671 -0.680497,0.50242 -1.11362,0.17709 -0.219864,-0.16514 -0.382155,-0.3351 -0.382155,-0.40011 0,-0.0622 0.10243,-0.38349 0.227532,-0.7141 0.1251,-0.33061 0.211264,-0.64316 0.191538,-0.69454 -0.04327,-0.11267 -0.658451,-0.47472 -0.808056,-0.47558 -0.05852,-2.1e-4 -0.299027,0.2373 -0.534149,0.52796 -0.235126,0.29065 -0.460552,0.5431 -0.501175,0.56104 -0.106674,0.0472 -0.899278,-0.28023 -0.958211,-0.39578 -0.02729,-0.0536 -0.02769,-0.26689 -0.001,-0.47401 0.02685,-0.20711 0.05108,-0.52637 0.05399,-0.70937 0.0051,-0.32093 -0.002,-0.33583 -0.208221,-0.4219 -0.117534,-0.0491 -0.325527,-0.10707 -0.462159,-0.1289 -0.223628,-0.0357 -0.260693,-0.0218 -0.371907,0.13954 -0.06795,0.0985 -0.224709,0.39521 -0.348393,0.65936 -0.140344,0.29972 -0.27221,0.49535 -0.350625,0.52021 -0.166156,0.0527 -0.901243,-0.0677 -0.956241,-0.1566 -0.02372,-0.0383 -0.09069,-0.35544 -0.14871,-0.70452 -0.05803,-0.34907 -0.136144,-0.67144 -0.173539,-0.71646 -0.04387,-0.0528 -0.221589,-0.0819 -0.501175,-0.0819 z m -0.315681,3.51353 c 0.17319,7.6e-4 0.350674,0.01 0.530471,0.0264 0.179796,0.0165 0.361855,0.0402 0.544265,0.0698 0.364817,0.0593 0.730945,0.14234 1.082223,0.23904 0.351281,0.0967 0.687793,0.20695 0.993549,0.32068 0.305756,0.11374 0.580722,0.23091 0.808974,0.3413 0.151518,0.0733 0.300908,0.15401 0.447708,0.24114 0.1468,0.0871 0.291077,0.18063 0.432338,0.27973 0.14126,0.0991 0.27944,0.20373 0.41434,0.31295 0.1349,0.10921 0.266522,0.22306 0.39424,0.34051 0.255434,0.23489 0.495633,0.48442 0.71741,0.74101 0.221778,0.25659 0.425114,0.52023 0.606666,0.78354 0.181548,0.26331 0.341333,0.52625 0.476083,0.78131 0.13475,0.25505 0.244422,0.50223 0.325797,0.73405 0.04069,0.1159 0.07425,0.22797 0.100367,0.33526 0.02612,0.10729 0.04485,0.20984 0.05557,0.30664 0.01073,0.0968 0.01353,0.18781 0.008,0.27225 -0.0055,0.0844 -0.01937,0.16227 -0.04191,0.23248 -0.0255,0.0794 -0.05843,0.15159 -0.09734,0.21711 -0.03892,0.0655 -0.08385,0.12441 -0.133341,0.17722 -0.0495,0.0528 -0.103564,0.0995 -0.160796,0.14085 -0.05723,0.0413 -0.117591,0.0772 -0.179714,0.10816 -0.124251,0.062 -0.255516,0.10468 -0.382286,0.13271 -0.126765,0.028 -0.249068,0.0415 -0.355618,0.0452 -0.538294,0.0187 -1.008132,0.01 -1.671679,-0.007 -0.663547,-0.0165 -1.520806,-0.0404 -2.833906,-0.0513 v -1.4e-4 c -0.01955,0.002 -0.103643,0.008 -0.229635,-0.005 -0.06299,-0.006 -0.136413,-0.0168 -0.217548,-0.0345 -0.08114,-0.0177 -0.169903,-0.0426 -0.263528,-0.0773 -0.09363,-0.0347 -0.192097,-0.0792 -0.29256,-0.13613 -0.100466,-0.057 -0.20299,-0.12645 -0.304646,-0.21108 -0.101656,-0.0846 -0.202458,-0.18443 -0.299655,-0.30205 -0.0972,-0.11761 -0.19076,-0.25307 -0.277847,-0.40903 -0.431794,-0.77324 -0.807693,-1.41591 -1.163804,-2.0487 -0.178055,-0.3164 -0.351077,-0.63024 -0.523771,-0.95682 -0.172694,-0.32657 -0.345031,-0.66586 -0.521406,-1.03282 -0.05635,-0.11725 -0.110022,-0.25386 -0.140566,-0.4001 -0.01528,-0.0731 -0.02468,-0.14872 -0.02588,-0.22539 -0.0013,-0.0767 0.006,-0.15446 0.02391,-0.23221 0.018,-0.0777 0.04682,-0.15546 0.08907,-0.23182 0.04225,-0.0764 0.09787,-0.15143 0.169467,-0.22395 0.0716,-0.0725 0.159194,-0.14251 0.265235,-0.20871 0.106041,-0.0662 0.23054,-0.1286 0.376111,-0.18601 0.09069,-0.0358 0.185645,-0.0662 0.284285,-0.0918 0.09864,-0.0256 0.200935,-0.0462 0.306353,-0.0623 0.210837,-0.0323 0.43408,-0.0464 0.664994,-0.0454 z m -4.721032,2.4341 c 0.06598,10e-4 0.129994,0.008 0.191799,0.0214 0.0618,0.013 0.121441,0.0317 0.178795,0.0549 0.114709,0.0463 0.22028,0.11058 0.315549,0.1847 0.09527,0.0741 0.180168,0.158 0.253807,0.24337 0.07364,0.0854 0.135943,0.17215 0.185757,0.25216 0.287604,0.46198 0.516974,0.87803 0.837875,1.46745 0.320902,0.58942 0.733329,1.3522 1.38687,2.50762 0.01155,0.0161 0.05868,0.0869 0.111796,0.20346 0.02656,0.0583 0.05468,0.12793 0.08053,0.20793 0.02585,0.08 0.04941,0.17039 0.06713,0.26989 0.01773,0.0995 0.0295,0.20815 0.03179,0.32489 0.0022,0.11674 -0.0052,0.24159 -0.02588,0.37333 -0.02071,0.13173 -0.05473,0.27045 -0.105753,0.41494 -0.05103,0.14448 -0.119075,0.29473 -0.207827,0.44972 -0.440037,0.76845 -0.797187,1.42195 -1.155921,2.05317 -0.179368,0.31561 -0.35905,0.62566 -0.549783,0.94172 -0.190735,0.31606 -0.3925,0.63813 -0.615729,0.97781 -0.07133,0.10854 -0.160566,0.22456 -0.269571,0.32516 -0.0545,0.0503 -0.113902,0.0968 -0.178531,0.13652 -0.06463,0.0398 -0.134438,0.0727 -0.209667,0.0962 -0.07522,0.0235 -0.155818,0.0376 -0.242114,0.0391 -0.0863,0.002 -0.178301,-0.009 -0.276139,-0.0354 -0.09784,-0.0261 -0.201625,-0.0674 -0.311477,-0.1268 -0.109852,-0.0595 -0.225794,-0.137 -0.34813,-0.2355 -0.07621,-0.0614 -0.150059,-0.12919 -0.221621,-0.20268 -0.07156,-0.0735 -0.140874,-0.15261 -0.207827,-0.23681 -0.133903,-0.16839 -0.258538,-0.35675 -0.374272,-0.55946 -0.115734,-0.20271 -0.222489,-0.41975 -0.3204112,-0.64545 -0.097918,-0.22569 -0.1870065,-0.4601 -0.2674685,-0.69743 -0.080462,-0.23732 -0.1523508,-0.47753 -0.2157089,-0.71515 -0.063364,-0.23761 -0.1182561,-0.47258 -0.1648689,-0.69913 -0.046615,-0.22655 -0.084987,-0.44471 -0.1152111,-0.64886 -0.030221,-0.20415 -0.052288,-0.39431 -0.066473,-0.56472 -0.014109,-0.16967 -0.0208,-0.34124 -0.020757,-0.51378 2.55e-5,-0.17254 0.0068,-0.34609 0.019837,-0.51982 0.013031,-0.17374 0.03231,-0.34761 0.057146,-0.52088 0.02484,-0.17326 0.055304,-0.3458 0.090777,-0.51693 0.070944,-0.34226 0.1619894,-0.67862 0.2683887,-1.00236 0.1063992,-0.32374 0.2280547,-0.63486 0.360478,-0.92676 0.1324241,-0.2919 0.2755699,-0.56462 0.4245879,-0.81137 0.14902,-0.24675 0.304,-0.46753 0.460188,-0.65581 0.07809,-0.0941 0.156508,-0.18026 0.234626,-0.25729 0.07812,-0.077 0.155957,-0.14495 0.232918,-0.2032 0.07696,-0.0582 0.153037,-0.10672 0.227664,-0.14453 0.07463,-0.0378 0.147745,-0.065 0.218862,-0.0807 0.08047,-0.0177 0.158564,-0.0256 0.23397,-0.0245 z m 5.046303,4.94186 a 0.87357881,0.84723091 0 0 1 0.873609,0.84721 0.87357881,0.84723091 0 0 1 -0.873609,0.8472 0.87357881,0.84723091 0 0 1 -0.873608,-0.8472 0.87357881,0.84723091 0 0 1 0.873608,-0.84721 z m 4.337828,1.71791 c 0.359118,-10e-4 0.713702,4.7e-4 1.078938,0.009 0.365233,0.009 0.741117,0.0239 1.142786,0.0491 0.128343,0.008 0.272013,0.028 0.4125,0.0731 0.07024,0.0226 0.139643,0.0514 0.205988,0.0881 0.06634,0.0367 0.129643,0.0813 0.187465,0.13547 0.05782,0.0542 0.110209,0.11804 0.154884,0.19296 0.04467,0.0749 0.08161,0.16098 0.108512,0.25991 0.02691,0.0989 0.04382,0.21062 0.04834,0.33684 0.0045,0.12622 -0.0034,0.26694 -0.02588,0.42373 -0.01401,0.0977 -0.03466,0.19659 -0.06135,0.29627 -0.02669,0.0997 -0.05947,0.20012 -0.09761,0.30113 -0.07627,0.20204 -0.174102,0.40614 -0.288751,0.60948 -0.114651,0.20334 -0.246064,0.4059 -0.389248,0.60515 -0.143182,0.19925 -0.29819,0.39515 -0.460057,0.58493 -0.161869,0.18978 -0.330601,0.37352 -0.501307,0.54844 -0.170703,0.17492 -0.343435,0.34099 -0.51313,0.49567 -0.169694,0.15468 -0.336301,0.29796 -0.495132,0.42701 -0.158835,0.12906 -0.309845,0.24392 -0.447971,0.34196 -0.137533,0.0976 -0.280385,0.18969 -0.427477,0.27632 -0.147086,0.0866 -0.298462,0.1678 -0.453094,0.24363 -0.154636,0.0758 -0.312502,0.14636 -0.472668,0.21161 -0.160166,0.0652 -0.322513,0.12525 -0.486199,0.1801 -0.327379,0.10969 -0.659811,0.19875 -0.989214,0.26805 -0.3294,0.0693 -0.655876,0.11877 -0.971216,0.14925 -0.315337,0.0305 -0.619556,0.0419 -0.904743,0.0352 -0.285187,-0.007 -0.551236,-0.0317 -0.790189,-0.0742 -0.11947,-0.0212 -0.232194,-0.0467 -0.337094,-0.0765 -0.1049,-0.0298 -0.202015,-0.0639 -0.290327,-0.10212 -0.08831,-0.0383 -0.167801,-0.0807 -0.237516,-0.1272 -0.06971,-0.0465 -0.12969,-0.097 -0.178795,-0.15149 -0.05556,-0.0617 -0.101187,-0.12631 -0.1382,-0.19296 -0.03701,-0.0666 -0.06541,-0.13532 -0.08631,-0.20504 -0.0209,-0.0697 -0.03429,-0.14046 -0.04151,-0.21134 -0.0072,-0.0709 -0.0082,-0.14188 -0.0042,-0.212 0.0081,-0.14025 0.03618,-0.27714 0.07462,-0.40286 0.03844,-0.12573 0.08714,-0.24031 0.136493,-0.33618 0.249309,-0.48433 0.488848,-0.8945 0.830125,-1.47205 0.341277,-0.57754 0.784292,-1.32246 1.440863,-2.47611 0.0079,-0.0182 0.04466,-0.0952 0.117313,-0.20031 0.03633,-0.0526 0.08168,-0.11213 0.136887,-0.17499 0.05521,-0.0628 0.120234,-0.12901 0.196135,-0.19453 0.0759,-0.0655 0.162638,-0.13029 0.261032,-0.19087 0.09839,-0.0606 0.208493,-0.11699 0.331183,-0.165 0.122689,-0.048 0.25793,-0.0878 0.40672,-0.11565 0.148788,-0.0278 0.311085,-0.0435 0.487776,-0.0435 0.876033,0 1.612396,-0.015 2.33063,-0.0176 z"
       style="fill:#000000;fill-opacity:1;stroke-width:0.24771465;opacity:0.25" />
    <path
       style="fill:url(#linearGradient1048);fill-opacity:1;stroke-width:0.24771465"
       d="m 16.9238,268.32991 c -0.515592,0 -0.503052,-0.0166 -0.674057,0.89564 -0.06322,0.33727 -0.129514,0.62784 -0.147266,0.64558 -0.06214,0.0621 -0.815673,0.15777 -0.937717,0.11906 -0.0791,-0.0251 -0.235056,-0.27305 -0.435621,-0.6927 -0.352324,-0.73718 -0.360381,-0.74169 -0.968196,-0.53886 -0.301202,0.10052 -0.314675,0.11513 -0.332496,0.35639 -0.01022,0.13836 0.0073,0.4631 0.03902,0.72172 0.03172,0.25861 0.03523,0.51375 0.0078,0.56695 -0.06199,0.11999 -0.843122,0.44721 -0.952956,0.39918 -0.0442,-0.0193 -0.274473,-0.27516 -0.511817,-0.56852 -0.389044,-0.48085 -0.447905,-0.52937 -0.596812,-0.49278 -0.234123,0.0575 -0.700079,0.33833 -0.741844,0.4471 -0.01935,0.0504 0.06709,0.36209 0.192193,0.6927 0.125103,0.33061 0.227532,0.65355 0.227532,0.71751 0,0.13047 -0.611269,0.62235 -0.773373,0.62235 -0.05634,0 -0.3607551,-0.16936 -0.6764224,-0.37648 -0.3156552,-0.20712 -0.6052251,-0.37661 -0.643449,-0.37661 -0.094388,0 -0.6705109,0.57274 -0.6705109,0.66658 0,0.0413 0.1834626,0.34913 0.4076404,0.68417 0.4598533,0.68735 0.4597282,0.64438 -7.87e-4,1.18942 -0.2407375,0.28492 -0.21319,0.28657 -1.1815392,-0.0688 l -0.4919792,-0.18063 -0.1519951,0.18837 c -0.083596,0.10356 -0.1999281,0.31297 -0.2585355,0.46535 l -0.1065405,0.27697 0.3407732,0.28788 c 0.1874383,0.15829 0.4498515,0.38737 0.5831499,0.50905 l 0.2423767,0.22132 -0.1678902,0.41888 c -0.092293,0.23038 -0.2007225,0.44478 -0.2409319,0.47663 -0.044828,0.0355 -0.3495697,0.0324 -0.7876929,-0.008 -0.8259907,-0.0766 -0.8119286,-0.0838 -0.9486204,0.48556 -0.105492,0.43941 -0.089111,0.45981 0.6609209,0.81714 0.3690702,0.17583 0.5972972,0.32314 0.622167,0.40142 0.051382,0.16177 -0.06821,0.89867 -0.1544911,0.95196 -0.036818,0.0227 -0.3554311,0.0914 -0.7082138,0.15266 -0.3527782,0.0612 -0.6767296,0.14005 -0.7199059,0.17511 -0.1059089,0.086 -0.1059089,0.88947 0,0.97546 0.043176,0.0351 0.3671277,0.11374 0.7199059,0.17498 0.3527827,0.0612 0.6713957,0.13006 0.7082138,0.1528 0.086281,0.0533 0.2058727,0.79018 0.1544911,0.95195 -0.024862,0.0783 -0.2530968,0.22558 -0.622167,0.40142 -0.7472528,0.35601 -0.7698044,0.3831 -0.664862,0.80048 0.1297088,0.51586 0.1566271,0.54563 0.4917167,0.54332 0.1628787,-10e-4 0.4939764,-0.0279 0.7358016,-0.0593 0.3239653,-0.0422 0.4598418,-0.0373 0.5162828,0.0181 0.1480609,0.14551 0.3855154,0.8214 0.3269792,0.93069 -0.03059,0.0571 -0.2842979,0.29446 -0.5638385,0.52744 -0.4533868,0.37787 -0.5039424,0.44123 -0.4680706,0.58703 0.057223,0.23258 0.3386733,0.69822 0.4471826,0.73982 0.050406,0.0193 0.3623708,-0.0672 0.6932378,-0.19217 0.330867,-0.12501 0.6537897,-0.22723 0.7178043,-0.22723 0.130573,0 0.6230863,0.6108 0.6230863,0.77278 0,0.0563 -0.1696249,0.36034 -0.3768999,0.67577 -0.2072798,0.31542 -0.3768993,0.60477 -0.3768993,0.64295 0,0.0953 0.5736984,0.66999 0.6688032,0.66999 0.042215,0 0.3302797,-0.16948 0.6401639,-0.37661 0.3098821,-0.20711 0.612968,-0.3766 0.673533,-0.3766 0.161132,0 0.781124,0.49857 0.781124,0.62811 0,0.0609 -0.102169,0.38113 -0.227269,0.71174 -0.125102,0.33061 -0.211795,0.64234 -0.192457,0.6927 0.04177,0.10877 0.507985,0.38972 0.742108,0.44724 0.148907,0.0366 0.207631,-0.0119 0.596681,-0.49279 0.23734,-0.29335 0.464616,-0.54809 0.505247,-0.56602 0.1067,-0.0472 0.899398,0.28024 0.958211,0.39577 0.02738,0.0537 0.02706,0.29525 -9.22e-4,0.53689 -0.02794,0.24164 -0.05217,0.56077 -0.05412,0.70924 -0.003,0.25064 0.01263,0.27658 0.217942,0.3623 0.121615,0.0508 0.345167,0.10932 0.496841,0.13009 l 0.275745,0.0377 0.316206,-0.66133 c 0.20332,-0.42541 0.35993,-0.67532 0.439169,-0.70045 0.122044,-0.0387 0.875707,0.057 0.937848,0.11906 0.01777,0.0178 0.08405,0.30818 0.147266,0.64545 0.0632,0.33713 0.143232,0.67667 0.177874,0.75453 0.05646,0.12659 0.107603,0.14124 0.496315,0.14124 0.279652,0 0.457429,-0.0291 0.501307,-0.0819 0.0374,-0.045 0.115391,-0.36751 0.173407,-0.71659 0.05803,-0.34907 0.124854,-0.66604 0.14858,-0.70439 0.05499,-0.0889 0.790211,-0.2093 0.956371,-0.1566 0.07841,0.0249 0.210145,0.22036 0.350495,0.52009 0.123678,0.26415 0.28044,0.56093 0.348392,0.65949 0.111206,0.1613 0.148416,0.17514 0.372039,0.1394 0.136637,-0.0218 0.344627,-0.0797 0.462159,-0.12877 0.201514,-0.0841 0.213578,-0.10652 0.211636,-0.39065 -0.001,-0.16574 -0.02776,-0.49898 -0.05925,-0.74062 -0.04212,-0.32316 -0.03748,-0.4587 0.01774,-0.5126 0.116307,-0.11363 0.857204,-0.39526 0.94179,-0.35797 0.04149,0.0183 0.267625,0.27104 0.502751,0.5617 0.235122,0.29065 0.475635,0.52826 0.534149,0.52783 0.125383,-7.6e-4 0.736498,-0.34075 0.801618,-0.44605 0.02476,-0.04 -0.06488,-0.39657 -0.199419,-0.79234 l -0.244741,-0.71961 0.341823,-0.3073 c 0.18795,-0.16902 0.373052,-0.3073 0.411319,-0.3073 0.03827,0 0.346232,0.18361 0.684436,0.40798 0.338199,0.22438 0.652702,0.40798 0.698755,0.40798 0.10819,0 0.65895,-0.54924 0.65895,-0.65713 0,-0.0453 -0.169622,-0.34039 -0.376899,-0.65581 -0.207277,-0.31543 -0.377034,-0.61952 -0.377031,-0.67577 0,-0.15518 0.502525,-0.77291 0.628735,-0.77291 0.06093,0 0.381556,0.10235 0.712418,0.22736 0.330872,0.125 0.643526,0.2111 0.694946,0.19139 0.11146,-0.0427 0.474872,-0.65725 0.475952,-0.80428 5.38e-4,-0.0567 -0.239713,-0.30516 -0.533361,-0.55225 -0.612329,-0.51523 -0.631052,-0.57478 -0.357457,-1.13337 0.14142,-0.28872 0.19473,-0.34377 0.32606,-0.33605 0.08636,0.005 0.432567,0.03 0.769301,0.0553 l 0.612182,0.0458 0.09577,-0.22893 c 0.05267,-0.12596 0.112883,-0.35342 0.133734,-0.50552 l 0.03797,-0.27658 -0.66276,-0.31714 c -0.418833,-0.20036 -0.676981,-0.36148 -0.701251,-0.43791 -0.05163,-0.16252 0.07062,-0.8969 0.1583,-0.95104 0.03838,-0.0237 0.355584,-0.0905 0.70493,-0.14847 0.349331,-0.058 0.671961,-0.13591 0.717016,-0.17327 0.111549,-0.0925 0.111549,-0.89135 0,-0.98386 -0.04506,-0.0374 -0.367685,-0.11543 -0.717016,-0.1734 -0.349346,-0.058 -0.666549,-0.12477 -0.70493,-0.14847 -0.08828,-0.0545 -0.209657,-0.78897 -0.157512,-0.95313 0.02514,-0.0792 0.275254,-0.2358 0.700989,-0.43897 l 0.661972,-0.31583 -0.03784,-0.27566 c -0.02077,-0.15155 -0.07937,-0.37494 -0.130187,-0.49646 -0.08771,-0.20978 -0.10766,-0.22077 -0.393978,-0.21882 -0.165851,10e-4 -0.49937,0.0277 -0.741188,0.0592 -0.515359,0.0671 -0.520363,0.0639 -0.74237,-0.46876 -0.106577,-0.25568 -0.138891,-0.40908 -0.101024,-0.47978 0.03063,-0.0572 0.282449,-0.29299 0.559504,-0.5239 0.277055,-0.2309 0.503146,-0.46672 0.503146,-0.52415 -7.6e-4,-0.14805 -0.36395,-0.76265 -0.475952,-0.80559 -0.05142,-0.0197 -0.364074,0.0664 -0.694946,0.19139 -0.330862,0.125 -0.65149,0.22735 -0.712418,0.22735 -0.12621,0 -0.628735,-0.61772 -0.628735,-0.77291 0,-0.0562 0.169754,-0.36047 0.377031,-0.6759 0.207277,-0.31542 0.376899,-0.61041 0.376899,-0.65568 0,-0.10874 -0.551363,-0.65713 -0.660657,-0.65713 -0.04688,0 -0.320107,0.15764 -0.607323,0.35035 -0.770095,0.51671 -0.680497,0.50242 -1.11362,0.17709 -0.219864,-0.16514 -0.382155,-0.3351 -0.382155,-0.40011 0,-0.0622 0.10243,-0.38349 0.227532,-0.7141 0.1251,-0.33061 0.211264,-0.64316 0.191538,-0.69454 -0.04327,-0.11267 -0.658451,-0.47472 -0.808056,-0.47558 -0.05852,-2.1e-4 -0.299027,0.2373 -0.534149,0.52796 -0.235126,0.29065 -0.460552,0.5431 -0.501175,0.56104 -0.106674,0.0472 -0.899278,-0.28023 -0.958211,-0.39578 -0.02729,-0.0536 -0.02769,-0.26689 -0.001,-0.47401 0.02685,-0.20711 0.05108,-0.52637 0.05399,-0.70937 0.0051,-0.32093 -0.002,-0.33583 -0.208221,-0.4219 -0.117534,-0.0491 -0.325527,-0.10707 -0.462159,-0.1289 -0.223628,-0.0357 -0.260693,-0.0218 -0.371907,0.13954 -0.06795,0.0985 -0.224709,0.39521 -0.348393,0.65936 -0.140344,0.29972 -0.27221,0.49535 -0.350625,0.52021 -0.166156,0.0527 -0.901243,-0.0677 -0.956241,-0.1566 -0.02372,-0.0383 -0.09069,-0.35544 -0.14871,-0.70452 -0.05803,-0.34907 -0.136144,-0.67144 -0.173539,-0.71646 -0.04387,-0.0528 -0.221589,-0.0819 -0.501175,-0.0819 z m -0.315681,3.51353 c 0.17319,7.6e-4 0.350674,0.01 0.530471,0.0264 0.179796,0.0165 0.361855,0.0402 0.544265,0.0698 0.364817,0.0593 0.730945,0.14234 1.082223,0.23904 0.351281,0.0967 0.687793,0.20695 0.993549,0.32068 0.305756,0.11374 0.580722,0.23091 0.808974,0.3413 0.151518,0.0733 0.300908,0.15401 0.447708,0.24114 0.1468,0.0871 0.291077,0.18063 0.432338,0.27973 0.14126,0.0991 0.27944,0.20373 0.41434,0.31295 0.1349,0.10921 0.266522,0.22306 0.39424,0.34051 0.255434,0.23489 0.495633,0.48442 0.71741,0.74101 0.221778,0.25659 0.425114,0.52023 0.606666,0.78354 0.181548,0.26331 0.341333,0.52625 0.476083,0.78131 0.13475,0.25505 0.244422,0.50223 0.325797,0.73405 0.04069,0.1159 0.07425,0.22797 0.100367,0.33526 0.02612,0.10729 0.04485,0.20984 0.05557,0.30664 0.01073,0.0968 0.01353,0.18781 0.008,0.27225 -0.0055,0.0844 -0.01937,0.16227 -0.04191,0.23248 -0.0255,0.0794 -0.05843,0.15159 -0.09734,0.21711 -0.03892,0.0655 -0.08385,0.12441 -0.133341,0.17722 -0.0495,0.0528 -0.103564,0.0995 -0.160796,0.14085 -0.05723,0.0413 -0.117591,0.0772 -0.179714,0.10816 -0.124251,0.062 -0.255516,0.10468 -0.382286,0.13271 -0.126765,0.028 -0.249068,0.0415 -0.355618,0.0452 -0.538294,0.0187 -1.008132,0.01 -1.671679,-0.007 -0.663547,-0.0165 -1.520806,-0.0404 -2.833906,-0.0513 v -1.4e-4 c -0.01955,0.002 -0.103643,0.008 -0.229635,-0.005 -0.06299,-0.006 -0.136413,-0.0168 -0.217548,-0.0345 -0.08114,-0.0177 -0.169903,-0.0426 -0.263528,-0.0773 -0.09363,-0.0347 -0.192097,-0.0792 -0.29256,-0.13613 -0.100466,-0.057 -0.20299,-0.12645 -0.304646,-0.21108 -0.101656,-0.0846 -0.202458,-0.18443 -0.299655,-0.30205 -0.0972,-0.11761 -0.19076,-0.25307 -0.277847,-0.40903 -0.431794,-0.77324 -0.807693,-1.41591 -1.163804,-2.0487 -0.178055,-0.3164 -0.351077,-0.63024 -0.523771,-0.95682 -0.172694,-0.32657 -0.345031,-0.66586 -0.521406,-1.03282 -0.05635,-0.11725 -0.110022,-0.25386 -0.140566,-0.4001 -0.01528,-0.0731 -0.02468,-0.14872 -0.02588,-0.22539 -0.0013,-0.0767 0.006,-0.15446 0.02391,-0.23221 0.018,-0.0777 0.04682,-0.15546 0.08907,-0.23182 0.04225,-0.0764 0.09787,-0.15143 0.169467,-0.22395 0.0716,-0.0725 0.159194,-0.14251 0.265235,-0.20871 0.106041,-0.0662 0.23054,-0.1286 0.376111,-0.18601 0.09069,-0.0358 0.185645,-0.0662 0.284285,-0.0918 0.09864,-0.0256 0.200935,-0.0462 0.306353,-0.0623 0.210837,-0.0323 0.43408,-0.0464 0.664994,-0.0454 z m -4.721032,2.4341 c 0.06598,0.001 0.129994,0.008 0.191799,0.0214 0.0618,0.013 0.121441,0.0317 0.178795,0.0549 0.114709,0.0463 0.22028,0.11058 0.315549,0.1847 0.09527,0.0741 0.180168,0.158 0.253807,0.24337 0.07364,0.0854 0.135943,0.17215 0.185757,0.25216 0.287604,0.46198 0.516974,0.87803 0.837875,1.46745 0.320902,0.58942 0.733329,1.3522 1.38687,2.50762 0.01155,0.0161 0.05868,0.0869 0.111796,0.20346 0.02656,0.0583 0.05468,0.12793 0.08053,0.20793 0.02585,0.08 0.04941,0.17039 0.06713,0.26989 0.01773,0.0995 0.0295,0.20815 0.03179,0.32489 0.0022,0.11674 -0.0052,0.24159 -0.02588,0.37333 -0.02071,0.13173 -0.05473,0.27045 -0.105753,0.41494 -0.05103,0.14448 -0.119075,0.29473 -0.207827,0.44972 -0.440037,0.76845 -0.797187,1.42195 -1.155921,2.05317 -0.179368,0.31561 -0.35905,0.62566 -0.549783,0.94172 -0.190735,0.31606 -0.3925,0.63813 -0.615729,0.97781 -0.07133,0.10854 -0.160566,0.22456 -0.269571,0.32516 -0.0545,0.0503 -0.113902,0.0968 -0.178531,0.13652 -0.06463,0.0398 -0.134438,0.0727 -0.209667,0.0962 -0.07522,0.0235 -0.155818,0.0376 -0.242114,0.0391 -0.0863,0.002 -0.178301,-0.009 -0.276139,-0.0354 -0.09784,-0.0261 -0.201625,-0.0674 -0.311477,-0.1268 -0.109852,-0.0595 -0.225794,-0.137 -0.34813,-0.2355 -0.07621,-0.0614 -0.150059,-0.12919 -0.221621,-0.20268 -0.07156,-0.0735 -0.140874,-0.15261 -0.207827,-0.23681 -0.133903,-0.16839 -0.258538,-0.35675 -0.374272,-0.55946 -0.115734,-0.20271 -0.222489,-0.41975 -0.3204112,-0.64545 -0.097918,-0.22569 -0.1870065,-0.4601 -0.2674685,-0.69743 -0.080462,-0.23732 -0.1523508,-0.47753 -0.2157089,-0.71515 -0.063364,-0.23761 -0.1182561,-0.47258 -0.1648689,-0.69913 -0.046615,-0.22655 -0.084987,-0.44471 -0.1152111,-0.64886 -0.030221,-0.20415 -0.052288,-0.39431 -0.066473,-0.56472 -0.014109,-0.16967 -0.0208,-0.34124 -0.020757,-0.51378 2.55e-5,-0.17254 0.0068,-0.34609 0.019837,-0.51982 0.013031,-0.17374 0.03231,-0.34761 0.057146,-0.52088 0.02484,-0.17326 0.055304,-0.3458 0.090777,-0.51693 0.070944,-0.34226 0.1619894,-0.67862 0.2683887,-1.00236 0.1063992,-0.32374 0.2280547,-0.63486 0.360478,-0.92676 0.1324241,-0.2919 0.2755699,-0.56462 0.4245879,-0.81137 0.14902,-0.24675 0.304,-0.46753 0.460188,-0.65581 0.07809,-0.0941 0.156508,-0.18026 0.234626,-0.25729 0.07812,-0.077 0.155957,-0.14495 0.232918,-0.2032 0.07696,-0.0582 0.153037,-0.10672 0.227664,-0.14453 0.07463,-0.0378 0.147745,-0.065 0.218862,-0.0807 0.08047,-0.0177 0.158564,-0.0256 0.23397,-0.0245 z m 5.046303,4.94186 a 0.87357881,0.84723091 0 0 1 0.873609,0.84721 0.87357881,0.84723091 0 0 1 -0.873609,0.8472 0.87357881,0.84723091 0 0 1 -0.873608,-0.8472 0.87357881,0.84723091 0 0 1 0.873608,-0.84721 z m 4.337828,1.71791 c 0.359118,-0.001 0.713702,4.7e-4 1.078938,0.009 0.365233,0.009 0.741117,0.0239 1.142786,0.0491 0.128343,0.008 0.272013,0.028 0.4125,0.0731 0.07024,0.0226 0.139643,0.0514 0.205988,0.0881 0.06634,0.0367 0.129643,0.0813 0.187465,0.13547 0.05782,0.0542 0.110209,0.11804 0.154884,0.19296 0.04467,0.0749 0.08161,0.16098 0.108512,0.25991 0.02691,0.0989 0.04382,0.21062 0.04834,0.33684 0.0045,0.12622 -0.0034,0.26694 -0.02588,0.42373 -0.01401,0.0977 -0.03466,0.19659 -0.06135,0.29627 -0.02669,0.0997 -0.05947,0.20012 -0.09761,0.30113 -0.07627,0.20204 -0.174102,0.40614 -0.288751,0.60948 -0.114651,0.20334 -0.246064,0.4059 -0.389248,0.60515 -0.143182,0.19925 -0.29819,0.39515 -0.460057,0.58493 -0.161869,0.18978 -0.330601,0.37352 -0.501307,0.54844 -0.170703,0.17492 -0.343435,0.34099 -0.51313,0.49567 -0.169694,0.15468 -0.336301,0.29796 -0.495132,0.42701 -0.158835,0.12906 -0.309845,0.24392 -0.447971,0.34196 -0.137533,0.0976 -0.280385,0.18969 -0.427477,0.27632 -0.147086,0.0866 -0.298462,0.1678 -0.453094,0.24363 -0.154636,0.0758 -0.312502,0.14636 -0.472668,0.21161 -0.160166,0.0652 -0.322513,0.12525 -0.486199,0.1801 -0.327379,0.10969 -0.659811,0.19875 -0.989214,0.26805 -0.3294,0.0693 -0.655876,0.11877 -0.971216,0.14925 -0.315337,0.0305 -0.619556,0.0419 -0.904743,0.0352 -0.285187,-0.007 -0.551236,-0.0317 -0.790189,-0.0742 -0.11947,-0.0212 -0.232194,-0.0467 -0.337094,-0.0765 -0.1049,-0.0298 -0.202015,-0.0639 -0.290327,-0.10212 -0.08831,-0.0383 -0.167801,-0.0807 -0.237516,-0.1272 -0.06971,-0.0465 -0.12969,-0.097 -0.178795,-0.15149 -0.05556,-0.0617 -0.101187,-0.12631 -0.1382,-0.19296 -0.03701,-0.0666 -0.06541,-0.13532 -0.08631,-0.20504 -0.0209,-0.0697 -0.03429,-0.14046 -0.04151,-0.21134 -0.0072,-0.0709 -0.0082,-0.14188 -0.0042,-0.212 0.0081,-0.14025 0.03618,-0.27714 0.07462,-0.40286 0.03844,-0.12573 0.08714,-0.24031 0.136493,-0.33618 0.249309,-0.48433 0.488848,-0.8945 0.830125,-1.47205 0.341277,-0.57754 0.784292,-1.32246 1.440863,-2.47611 0.0079,-0.0182 0.04466,-0.0952 0.117313,-0.20031 0.03633,-0.0526 0.08168,-0.11213 0.136887,-0.17499 0.05521,-0.0628 0.120234,-0.12901 0.196135,-0.19453 0.0759,-0.0655 0.162638,-0.13029 0.261032,-0.19087 0.09839,-0.0606 0.208493,-0.11699 0.331183,-0.165 0.122689,-0.048 0.25793,-0.0878 0.40672,-0.11565 0.148788,-0.0278 0.311085,-0.0435 0.487776,-0.0435 0.876033,0 1.612396,-0.015 2.33063,-0.0176 z"
       id="path1007"
       inkscape:connector-curvature="0" />
  </g>
</svg>
