<?xml version="1.0" encoding="UTF-8" standalone="no"?>
<svg
   xmlns:dc="http://purl.org/dc/elements/1.1/"
   xmlns:cc="http://creativecommons.org/ns#"
   xmlns:rdf="http://www.w3.org/1999/02/22-rdf-syntax-ns#"
   xmlns:svg="http://www.w3.org/2000/svg"
   xmlns="http://www.w3.org/2000/svg"
   xmlns:sodipodi="http://sodipodi.sourceforge.net/DTD/sodipodi-0.dtd"
   xmlns:inkscape="http://www.inkscape.org/namespaces/inkscape"
   width="16"
   height="16"
   version="1.1"
   id="svg7"
   sodipodi:docname="folder-saved-search-symbolic.svg"
   inkscape:version="0.92.3 (2405546, 2018-03-11)">
  <metadata
     id="metadata11">
    <rdf:RDF>
      <cc:Work
         rdf:about="">
        <dc:format>image/svg+xml</dc:format>
        <dc:type
           rdf:resource="http://purl.org/dc/dcmitype/StillImage" />
      </cc:Work>
    </rdf:RDF>
  </metadata>
  <sodipodi:namedview
     pagecolor="#ffffff"
     bordercolor="#666666"
     borderopacity="1"
     objecttolerance="10"
     gridtolerance="10"
     guidetolerance="10"
     inkscape:pageopacity="0"
     inkscape:pageshadow="2"
     inkscape:window-width="1600"
     inkscape:window-height="833"
     id="namedview9"
     showgrid="false"
     inkscape:zoom="41.7193"
     inkscape:cx="9.9053636"
     inkscape:cy="4.2321007"
     inkscape:window-x="0"
     inkscape:window-y="28"
     inkscape:window-maximized="1"
     inkscape:current-layer="svg7" />
  <defs
     id="defs3">
    <style
       id="current-color-scheme"
       type="text/css">.ColorScheme-Text { color:#565656; }</style>
  </defs>
  <path
     class="ColorScheme-Text"
     d="m 6.2734161,0.00895249 c 3.4547101,0 6.3089979,2.82257871 6.3089979,6.27341091 0,1.3115991 -0.443941,2.5182612 -1.14062,3.5288506 l 4.206037,4.206037 a 1.1468936,1.1468936 0 1 1 -1.60394,1.639642 L 9.8378542,11.450856 C 8.8257932,12.147672 7.5874105,12.555832 6.2734161,12.555832 2.8185917,12.555832 5.2099297e-6,9.7332526 5.2099297e-6,6.2824204 5.2099297e-6,2.8315882 2.8185917,0.00900952 6.2734161,0.00900952 Z m 0,2.28124031 c -2.2212437,0 -3.9921706,1.7734363 -3.9921706,3.9921706 0,2.2186203 1.7709269,3.9921706 3.9921706,3.9921706 2.2212437,0 3.9921699,-1.7735503 3.9921699,-3.9921706 0,-2.2187343 -1.7709262,-3.9921706 -3.9921699,-3.9921706 z"
     id="path5"
     inkscape:connector-curvature="0"
     style="color:#565656;opacity:0.8;fill:currentColor;stroke-width:1.14062011" />
</svg>
