<?xml version="1.0" encoding="UTF-8" standalone="no"?>
<svg
   xmlns:dc="http://purl.org/dc/elements/1.1/"
   xmlns:cc="http://creativecommons.org/ns#"
   xmlns:rdf="http://www.w3.org/1999/02/22-rdf-syntax-ns#"
   xmlns:svg="http://www.w3.org/2000/svg"
   xmlns="http://www.w3.org/2000/svg"
   xmlns:sodipodi="http://sodipodi.sourceforge.net/DTD/sodipodi-0.dtd"
   xmlns:inkscape="http://www.inkscape.org/namespaces/inkscape"
   width="16"
   height="16"
   version="1.1"
   id="svg15"
   sodipodi:docname="user-home-symbolic.svg"
   inkscape:version="0.92.3 (2405546, 2018-03-11)">
  <metadata
     id="metadata19">
    <rdf:RDF>
      <cc:Work
         rdf:about="">
        <dc:format>image/svg+xml</dc:format>
        <dc:type
           rdf:resource="http://purl.org/dc/dcmitype/StillImage" />
      </cc:Work>
    </rdf:RDF>
  </metadata>
  <sodipodi:namedview
     pagecolor="#ffffff"
     bordercolor="#666666"
     borderopacity="1"
     objecttolerance="10"
     gridtolerance="10"
     guidetolerance="10"
     inkscape:pageopacity="0"
     inkscape:pageshadow="2"
     inkscape:window-width="1600"
     inkscape:window-height="833"
     id="namedview17"
     showgrid="false"
     inkscape:zoom="29.5"
     inkscape:cx="4.2644141"
     inkscape:cy="9.0828919"
     inkscape:window-x="0"
     inkscape:window-y="28"
     inkscape:window-maximized="1"
     inkscape:current-layer="svg15" />
  <defs
     id="defs3">
    <style
       id="current-color-scheme"
       type="text/css">.ColorScheme-Text { color:#565656; }</style>
  </defs>
  <g
     class="ColorScheme-Text"
     id="g13"
     transform="translate(-1.6e-5,-0.49994715)"
     style="color:#565656;fill:currentColor">
    <path
       d="M 8,1 0,7.1289 0.0019531,7.1308532 0,7.1328063 l 0.076172,0.097656 1.125,1.498 0.79883,-0.61133 v 7.8827997 h 12 V 8.1171323 l 0.79883,0.61133 1.2012,-1.5996 -8,-6.1289 z m 0,2.5195 5,3.8301 V 15 H 9 V 11 H 7 v 4 H 3 V 7.3496 Z"
       id="path5"
       inkscape:connector-curvature="0"
       style="opacity:0.8" />
    <path
       d="m 12.156,2 c -0.08659,0 -0.15634,0.069665 -0.15634,0.15615 v 0.55087 l 1.9903,1.5436 v -2.0945 c 0,-0.086487 -0.06975,-0.15615 -0.15633,-0.15615 z"
       id="path7"
       inkscape:connector-curvature="0"
       style="opacity:0.8" />
    <path
       d="M 8,3.5195 3,7.3496 V 15 h 4 v -4 h 2 v 4 h 4 V 7.3496 Z M 7,7 H 9 V 9 H 7 Z"
       id="path9"
       inkscape:connector-curvature="0"
       style="opacity:0.1" />
    <path
       d="m 6,6 v 3.9988 h 4 V 6 Z M 7,7 H 9 V 9 H 7 Z"
       id="path11"
       inkscape:connector-curvature="0"
       style="opacity:0.55" />
  </g>
</svg>
