<?xml version="1.0" encoding="UTF-8" standalone="no"?>
<!-- Created with Inkscape (http://www.inkscape.org/) -->

<svg
   xmlns:osb="http://www.openswatchbook.org/uri/2009/osb"
   xmlns:dc="http://purl.org/dc/elements/1.1/"
   xmlns:cc="http://creativecommons.org/ns#"
   xmlns:rdf="http://www.w3.org/1999/02/22-rdf-syntax-ns#"
   xmlns:svg="http://www.w3.org/2000/svg"
   xmlns="http://www.w3.org/2000/svg"
   xmlns:xlink="http://www.w3.org/1999/xlink"
   xmlns:sodipodi="http://sodipodi.sourceforge.net/DTD/sodipodi-0.dtd"
   xmlns:inkscape="http://www.inkscape.org/namespaces/inkscape"
   width="24"
   height="24"
   viewBox="0 0 6.3499997 6.3499997"
   version="1.1"
   id="svg4942"
   inkscape:version="0.92.2 5c3e80d, 2017-08-06"
   sodipodi:docname="emblem-downloads.svg">
  <defs
     id="defs4936">
    <linearGradient
       inkscape:collect="always"
       id="linearGradient1108">
      <stop
         style="stop-color:#19b22f;stop-opacity:1"
         offset="0"
         id="stop1104" />
      <stop
         style="stop-color:#80f29d;stop-opacity:1"
         offset="1"
         id="stop1106" />
    </linearGradient>
    <linearGradient
       id="linearGradient6987"
       osb:paint="solid">
      <stop
         style="stop-color:#77d2fb;stop-opacity:1;"
         offset="0"
         id="stop6985" />
    </linearGradient>
    <linearGradient
       inkscape:collect="always"
       xlink:href="#linearGradient1108"
       id="linearGradient1110"
       x1="30.510128"
       y1="274.68945"
       x2="26.181116"
       y2="185.78969"
       gradientUnits="userSpaceOnUse"
       gradientTransform="translate(38.176647,17.504385)" />
  </defs>
  <sodipodi:namedview
     id="base"
     pagecolor="#ffffff"
     bordercolor="#666666"
     borderopacity="1.0"
     inkscape:pageopacity="0.0"
     inkscape:pageshadow="2"
     inkscape:zoom="15.697957"
     inkscape:cx="-0.048838253"
     inkscape:cy="14.226184"
     inkscape:document-units="mm"
     inkscape:current-layer="layer1"
     showgrid="false"
     units="px"
     width="128px"
     inkscape:window-width="1600"
     inkscape:window-height="814"
     inkscape:window-x="0"
     inkscape:window-y="0"
     inkscape:window-maximized="1"
     inkscape:measure-start="-293.521,100.415"
     inkscape:measure-end="-294.709,409.978" />
  <metadata
     id="metadata4939">
    <rdf:RDF>
      <cc:Work
         rdf:about="">
        <dc:format>image/svg+xml</dc:format>
        <dc:type
           rdf:resource="http://purl.org/dc/dcmitype/StillImage" />
        <dc:title />
      </cc:Work>
    </rdf:RDF>
  </metadata>
  <g
     inkscape:label="Layer 1"
     inkscape:groupmode="layer"
     id="layer1"
     transform="translate(0,-290.64999)">
    <g
       id="g1327"
       transform="matrix(0.04753012,0,0,0.04753012,-0.04437329,282.92792)">
      <circle
         r="63.11787"
         cy="229.26665"
         cx="67.73333"
         id="path1102"
         style="opacity:1;fill:url(#linearGradient1110);fill-opacity:1;stroke:none;stroke-width:1.03115261;stroke-miterlimit:4;stroke-dasharray:none;stroke-opacity:1" />
      <g
         transform="matrix(0.18625986,0,0,0.17308808,-162.30298,156.95877)"
         id="g1178" />
      <g
         transform="matrix(0.18625986,0,0,0.17308808,-162.30298,156.95877)"
         id="g1180" />
      <g
         transform="matrix(0.18625986,0,0,0.17308808,-162.30298,156.95877)"
         id="g1182" />
      <g
         transform="matrix(0.18625986,0,0,0.17308808,-162.30298,156.95877)"
         id="g1184" />
      <g
         transform="matrix(0.18625986,0,0,0.17308808,-162.30298,156.95877)"
         id="g1186" />
      <g
         transform="matrix(0.18625986,0,0,0.17308808,-162.30298,156.95877)"
         id="g1188" />
      <g
         transform="matrix(0.18625986,0,0,0.17308808,-162.30298,156.95877)"
         id="g1190" />
      <g
         transform="matrix(0.18625986,0,0,0.17308808,-162.30298,156.95877)"
         id="g1192" />
      <g
         transform="matrix(0.18625986,0,0,0.17308808,-162.30298,156.95877)"
         id="g1194" />
      <g
         transform="matrix(0.18625986,0,0,0.17308808,-162.30298,156.95877)"
         id="g1196" />
      <g
         transform="matrix(0.18625986,0,0,0.17308808,-162.30298,156.95877)"
         id="g1198" />
      <g
         transform="matrix(0.18625986,0,0,0.17308808,-162.30298,156.95877)"
         id="g1200" />
      <g
         transform="matrix(0.18625986,0,0,0.17308808,-162.30298,156.95877)"
         id="g1202" />
      <g
         transform="matrix(0.18625986,0,0,0.17308808,-162.30298,156.95877)"
         id="g1204" />
      <g
         transform="matrix(0.18625986,0,0,0.17308808,-162.30298,156.95877)"
         id="g1206" />
      <g
         transform="translate(38.176647,15.479648)"
         style="fill:#ffffff;fill-opacity:1"
         id="g1289">
        <path
           id="path1173"
           style="fill:#ffffff;fill-opacity:1;stroke-width:0.17955323"
           d="m 15.308202,159.30758 v 26.48211 H -3.6906381 l 33.2475801,30.8963 33.247069,-30.8963 H 43.805682 v -26.48211 z"
           inkscape:connector-curvature="0" />
        <path
           style="opacity:1;fill:#ffffff;fill-opacity:1;stroke:none;stroke-width:1.00041962;stroke-miterlimit:4;stroke-dasharray:none;stroke-opacity:1"
           d="m 15.264016,221.15326 c -3.13739,0 -5.6632196,2.52584 -5.6632196,5.66322 v 27.7766 c 0,3.13739 2.5258296,5.66322 5.6632196,5.66322 h 28.58534 c 3.13739,0 5.66322,-2.52583 5.66322,-5.66322 v -27.7766 c 0,-3.13738 -2.52583,-5.66322 -5.66322,-5.66322 z m 0,6.47248 h 28.58534 v 20.49487 h -28.58534 z"
           id="rect1277"
           inkscape:connector-curvature="0" />
        <path
           style="fill:#ffffff;fill-opacity:1;stroke:none;stroke-width:0.26458332px;stroke-linecap:butt;stroke-linejoin:miter;stroke-opacity:1"
           d="m 20.737351,268.26643 h 17.63867 l -4.29049,-4.76721 h -8.96235 z"
           id="path1284"
           inkscape:connector-curvature="0" />
      </g>
    </g>
  </g>
</svg>
