<?xml version="1.0" encoding="UTF-8" standalone="no"?>
<!-- Created with Inkscape (http://www.inkscape.org/) -->

<svg
   xmlns:osb="http://www.openswatchbook.org/uri/2009/osb"
   xmlns:dc="http://purl.org/dc/elements/1.1/"
   xmlns:cc="http://creativecommons.org/ns#"
   xmlns:rdf="http://www.w3.org/1999/02/22-rdf-syntax-ns#"
   xmlns:svg="http://www.w3.org/2000/svg"
   xmlns="http://www.w3.org/2000/svg"
   xmlns:xlink="http://www.w3.org/1999/xlink"
   xmlns:sodipodi="http://sodipodi.sourceforge.net/DTD/sodipodi-0.dtd"
   xmlns:inkscape="http://www.inkscape.org/namespaces/inkscape"
   width="24"
   height="24"
   viewBox="0 0 6.3499997 6.3499997"
   version="1.1"
   id="svg4942"
   inkscape:version="0.92.2 5c3e80d, 2017-08-06"
   sodipodi:docname="emblem-readonly copy.svg">
  <defs
     id="defs4936">
    <linearGradient
       inkscape:collect="always"
       id="linearGradient1231">
      <stop
         style="stop-color:#cee4ea;stop-opacity:1"
         offset="0"
         id="stop1227" />
      <stop
         style="stop-color:#767574;stop-opacity:1"
         offset="1"
         id="stop1229" />
    </linearGradient>
    <linearGradient
       id="linearGradient6987"
       osb:paint="solid">
      <stop
         style="stop-color:#77d2fb;stop-opacity:1;"
         offset="0"
         id="stop6985" />
    </linearGradient>
    <linearGradient
       inkscape:collect="always"
       xlink:href="#linearGradient1231"
       id="linearGradient1233"
       x1="93.850731"
       y1="312.10172"
       x2="96.539238"
       y2="392.4646"
       gradientUnits="userSpaceOnUse"
       gradientTransform="matrix(0.05503268,0,0,0.05503268,-2.1083579,275.07607)" />
  </defs>
  <sodipodi:namedview
     id="base"
     pagecolor="#ffffff"
     bordercolor="#666666"
     borderopacity="1.0"
     inkscape:pageopacity="0.0"
     inkscape:pageshadow="2"
     inkscape:zoom="13.868575"
     inkscape:cx="11.724289"
     inkscape:cy="3.2295584"
     inkscape:document-units="mm"
     inkscape:current-layer="layer1"
     showgrid="false"
     units="px"
     width="128px"
     inkscape:window-width="1600"
     inkscape:window-height="806"
     inkscape:window-x="36"
     inkscape:window-y="0"
     inkscape:window-maximized="0"
     inkscape:measure-start="-293.521,100.415"
     inkscape:measure-end="-294.709,409.978" />
  <metadata
     id="metadata4939">
    <rdf:RDF>
      <cc:Work
         rdf:about="">
        <dc:format>image/svg+xml</dc:format>
        <dc:type
           rdf:resource="http://purl.org/dc/dcmitype/StillImage" />
        <dc:title />
      </cc:Work>
    </rdf:RDF>
  </metadata>
  <g
     inkscape:label="Layer 1"
     inkscape:groupmode="layer"
     id="layer1"
     transform="translate(0,-290.64999)">
    <circle
       style="opacity:1;fill:url(#linearGradient1233);fill-opacity:1;fill-rule:nonzero;stroke:#b2b2b2;stroke-width:0.00473311;stroke-linecap:round;stroke-linejoin:round;stroke-miterlimit:4;stroke-dasharray:none;stroke-dashoffset:0;stroke-opacity:1"
       id="path1201"
       cx="3.175"
       cy="293.82498"
       r="2.9976337" />
    <path
       style="color:#000000;display:inline;overflow:visible;visibility:visible;fill:#525253;fill-opacity:1;stroke:none;stroke-width:0.26458332;marker:none;enable-background:accumulate"
       id="path2932"
       inkscape:connector-curvature="0"
       d="m 3.1750003,291.85949 c -1.0855136,0 -1.9654963,0.87998 -1.9654963,1.9655 0,1.08551 0.8799827,1.96549 1.9654963,1.96549 1.0855138,0 1.9654957,-0.87998 1.9654957,-1.96549 0,-1.08552 -0.8799819,-1.9655 -1.9654957,-1.9655 z m 0,0.49137 c 0.814135,0 1.4741222,0.65999 1.4741222,1.47413 0,0.81413 -0.6599872,1.47411 -1.4741222,1.47411 -0.8141352,0 -1.4741222,-0.65998 -1.4741222,-1.47411 0,-0.81414 0.659987,-1.47413 1.4741222,-1.47413 z m 0,0.24569 c -0.1361107,0 -0.245687,0.10958 -0.245687,0.24569 v 0.5528 l -0.4836964,-0.27641 c -0.1178752,-0.068 -0.2697644,-0.0257 -0.3378198,0.0921 -0.068055,0.11787 -0.025742,0.26976 0.092133,0.33781 l 0.4760186,0.27641 -0.4760186,0.27639 c -0.1178753,0.068 -0.1601879,0.21994 -0.092133,0.33782 0.068056,0.11787 0.2199446,0.16019 0.3378198,0.0921 l 0.4836964,-0.27639 v 0.55279 c 0,0.13612 0.1095763,0.24569 0.245687,0.24569 0.1361105,0 0.245687,-0.10957 0.245687,-0.24569 v -0.55279 l 0.4836964,0.27639 c 0.1178752,0.0681 0.2697643,0.0257 0.3378196,-0.0921 0.068052,-0.11788 0.025742,-0.26976 -0.092133,-0.33782 l -0.4760186,-0.27639 0.4760186,-0.27641 c 0.1178751,-0.068 0.1601878,-0.21994 0.092133,-0.33781 -0.068055,-0.11788 -0.2199444,-0.16019 -0.3378196,-0.0921 l -0.4836964,0.27641 v -0.5528 c 0,-0.13611 -0.1095765,-0.24569 -0.245687,-0.24569 z" />
  </g>
</svg>
