<?xml version="1.0" encoding="UTF-8" standalone="no"?>
<!-- Created with Inkscape (http://www.inkscape.org/) -->

<svg
   xmlns:osb="http://www.openswatchbook.org/uri/2009/osb"
   xmlns:dc="http://purl.org/dc/elements/1.1/"
   xmlns:cc="http://creativecommons.org/ns#"
   xmlns:rdf="http://www.w3.org/1999/02/22-rdf-syntax-ns#"
   xmlns:svg="http://www.w3.org/2000/svg"
   xmlns="http://www.w3.org/2000/svg"
   xmlns:xlink="http://www.w3.org/1999/xlink"
   xmlns:sodipodi="http://sodipodi.sourceforge.net/DTD/sodipodi-0.dtd"
   xmlns:inkscape="http://www.inkscape.org/namespaces/inkscape"
   width="24"
   height="24"
   viewBox="0 0 6.3499997 6.3499997"
   version="1.1"
   id="svg4942"
   inkscape:version="0.92.2 5c3e80d, 2017-08-06"
   sodipodi:docname="emblem-important.svg">
  <defs
     id="defs4936">
    <linearGradient
       inkscape:collect="always"
       id="linearGradient911">
      <stop
         style="stop-color:#ffffff;stop-opacity:1"
         offset="0"
         id="stop907" />
      <stop
         style="stop-color:#e6e6e6;stop-opacity:1"
         offset="1"
         id="stop909" />
    </linearGradient>
    <linearGradient
       inkscape:collect="always"
       id="linearGradient891">
      <stop
         style="stop-color:#fee543;stop-opacity:1"
         offset="0"
         id="stop887" />
      <stop
         style="stop-color:#e2ab02;stop-opacity:1"
         offset="1"
         id="stop889" />
    </linearGradient>
    <linearGradient
       id="linearGradient6987"
       osb:paint="solid">
      <stop
         style="stop-color:#77d2fb;stop-opacity:1;"
         offset="0"
         id="stop6985" />
    </linearGradient>
    <linearGradient
       inkscape:collect="always"
       xlink:href="#linearGradient911"
       id="linearGradient913"
       x1="214.53346"
       y1="37.630035"
       x2="215.87173"
       y2="182.73833"
       gradientUnits="userSpaceOnUse"
       gradientTransform="matrix(0.03699996,0,0,0.03699996,-4.7285714,289.77298)" />
    <linearGradient
       inkscape:collect="always"
       xlink:href="#linearGradient891"
       id="linearGradient1052"
       gradientUnits="userSpaceOnUse"
       gradientTransform="matrix(0.03699996,0,0,0.03699996,4.5630008,289.50863)"
       x1="-38.792336"
       y1="96.124184"
       x2="-39.963066"
       y2="181.73692" />
  </defs>
  <sodipodi:namedview
     id="base"
     pagecolor="#ffffff"
     bordercolor="#666666"
     borderopacity="1.0"
     inkscape:pageopacity="0.0"
     inkscape:pageshadow="2"
     inkscape:zoom="15.439328"
     inkscape:cx="22.247181"
     inkscape:cy="6.8255286"
     inkscape:document-units="mm"
     inkscape:current-layer="layer1"
     showgrid="false"
     units="px"
     width="128px"
     inkscape:window-width="1600"
     inkscape:window-height="806"
     inkscape:window-x="25"
     inkscape:window-y="9"
     inkscape:window-maximized="0"
     inkscape:measure-start="-293.521,100.415"
     inkscape:measure-end="-294.709,409.978" />
  <metadata
     id="metadata4939">
    <rdf:RDF>
      <cc:Work
         rdf:about="">
        <dc:format>image/svg+xml</dc:format>
        <dc:type
           rdf:resource="http://purl.org/dc/dcmitype/StillImage" />
        <dc:title />
      </cc:Work>
    </rdf:RDF>
  </metadata>
  <g
     inkscape:label="Layer 1"
     inkscape:groupmode="layer"
     id="layer1"
     transform="translate(0,-290.64999)">
    <g
       id="g855"
       transform="translate(3.657175e-4,-6.4148008e-6)">
      <path
         style="fill:url(#linearGradient913);fill-opacity:1;stroke:#808080;stroke-width:0.05;stroke-linecap:butt;stroke-linejoin:miter;stroke-miterlimit:4;stroke-dasharray:none;stroke-opacity:1"
         d="m 2.6123222,291.43202 c 0,0 -1.5161159,2.66934 -2.44024838,4.26998 -0.12872397,0.22296 0.0208943,0.77385 0.50820444,0.8151 0.65004414,0.055 3.61714274,0.0602 4.91914874,0.0111 0.374185,-0.0141 0.7138007,-0.34981 0.6003255,-0.7733 -0.1120699,-0.41825 -1.1788805,-2.04812 -2.4133206,-4.27229 -0.2888624,-0.52046 -0.8608551,-0.51429 -1.1741097,-0.0506 z"
         id="path897"
         inkscape:connector-curvature="0"
         sodipodi:nodetypes="sssssss" />
      <path
         inkscape:connector-curvature="0"
         id="path1046"
         d="m 3.1626916,291.3302 c -0.1325664,0.001 -0.2692258,0.0763 -0.3713733,0.25366 0,0 -1.5345196,2.66773 -2.3642769,4.10492 -0.11557825,0.20018 -0.0932269,0.56491 0.34431747,0.60193 0.58365953,0.0494 3.59548813,0.021 4.76536063,0.021 0.234614,0 0.526873,-0.14305 0.4249859,-0.52329 -0.100625,-0.37554 -1.3249803,-2.32534 -2.4202611,-4.22242 -0.08353,-0.14468 -0.228511,-0.23737 -0.3787527,-0.23574 z m 0.01629,0.92939 c 0.1168773,0 0.1971128,0.0619 0.2407247,0.18579 0.022678,0.0646 0.034015,0.14479 0.034015,0.24073 0,0.0315 -8.769e-4,0.0628 -0.00262,0.0942 -0.00174,0.0296 -0.00523,0.0654 -0.010457,0.10725 l -0.1177427,0.99172 -0.1229815,1.05974 h -0.068029 l -0.049732,-0.57567 c -0.013955,-0.16399 -0.052323,-0.47709 -0.1151235,-0.93937 -0.055821,-0.40296 -0.083727,-0.64631 -0.083727,-0.73004 0,-0.10823 0.020924,-0.20759 0.062791,-0.29831 0.041866,-0.0907 0.1194965,-0.13607 0.2328844,-0.13607 z m -0.00524,3.10859 c 0.083732,0 0.1535061,0.0296 0.2093284,0.089 0.055822,0.0575 0.083746,0.12472 0.083746,0.20147 0,0.0768 -0.028799,0.14305 -0.086367,0.19887 -0.057567,0.0541 -0.1282153,0.0812 -0.2119484,0.0812 -0.07501,0 -0.141284,-0.0262 -0.1988504,-0.0785 -0.057566,-0.0523 -0.086347,-0.11956 -0.086347,-0.20148 0,-0.0785 0.027906,-0.14654 0.083727,-0.2041 0.055822,-0.0575 0.1247212,-0.0864 0.2067111,-0.0864 z"
         style="fill:url(#linearGradient1052);fill-opacity:1;stroke:none;stroke-width:0.00978958px;stroke-linecap:butt;stroke-linejoin:miter;stroke-opacity:1" />
    </g>
  </g>
</svg>
