<?xml version="1.0" encoding="UTF-8" standalone="no"?>
<!-- Created with Inkscape (http://www.inkscape.org/) -->

<svg
   xmlns:osb="http://www.openswatchbook.org/uri/2009/osb"
   xmlns:dc="http://purl.org/dc/elements/1.1/"
   xmlns:cc="http://creativecommons.org/ns#"
   xmlns:rdf="http://www.w3.org/1999/02/22-rdf-syntax-ns#"
   xmlns:svg="http://www.w3.org/2000/svg"
   xmlns="http://www.w3.org/2000/svg"
   xmlns:xlink="http://www.w3.org/1999/xlink"
   xmlns:sodipodi="http://sodipodi.sourceforge.net/DTD/sodipodi-0.dtd"
   xmlns:inkscape="http://www.inkscape.org/namespaces/inkscape"
   width="128"
   height="128"
   viewBox="0 0 33.866666 33.866668"
   version="1.1"
   id="svg8"
   inkscape:version="0.92.4 (5da689c313, 2019-01-14)"
   sodipodi:docname="folder-bookmark.svg">
  <defs
     id="defs2">
    <linearGradient
       inkscape:collect="always"
       id="linearGradient4825">
      <stop
         style="stop-color:#815297;stop-opacity:1"
         offset="0"
         id="stop4821" />
      <stop
         style="stop-color:#9b64d6;stop-opacity:1"
         offset="1"
         id="stop4823" />
    </linearGradient>
    <linearGradient
       inkscape:collect="always"
       id="linearGradient4819">
      <stop
         style="stop-color:#7e5094;stop-opacity:1"
         offset="0"
         id="stop4815" />
      <stop
         style="stop-color:#9a61d6;stop-opacity:1"
         offset="1"
         id="stop4817" />
    </linearGradient>
    <linearGradient
       inkscape:collect="always"
       id="linearGradient4813">
      <stop
         style="stop-color:#7f5195;stop-opacity:1"
         offset="0"
         id="stop4809" />
      <stop
         style="stop-color:#9a61d6;stop-opacity:1"
         offset="1"
         id="stop4811" />
    </linearGradient>
    <linearGradient
       osb:paint="solid"
       id="linearGradient6088">
      <stop
         id="stop6086"
         offset="0"
         style="stop-color:#51b3e3;stop-opacity:1;" />
    </linearGradient>
    <linearGradient
       osb:paint="solid"
       id="linearGradient6987">
      <stop
         id="stop6985"
         offset="0"
         style="stop-color:#77d2fb;stop-opacity:1;" />
    </linearGradient>
    <linearGradient
       gradientTransform="matrix(0.24804987,0,0,0.25202557,0.204541,221.75109)"
       gradientUnits="userSpaceOnUse"
       y2="264.51837"
       x2="64.662956"
       y1="207.35561"
       x1="64.662956"
       id="linearGradient1327"
       xlink:href="#linearGradient941"
       inkscape:collect="always" />
    <linearGradient
       gradientTransform="matrix(0.2390156,0,0,0.24387238,-14.20425,250.57521)"
       gradientUnits="userSpaceOnUse"
       y2="172.26628"
       x2="123.07384"
       y1="84.320671"
       x1="123.07384"
       id="linearGradient7011-3-5"
       xlink:href="#linearGradient1052"
       inkscape:collect="always" />
    <linearGradient
       gradientTransform="matrix(0.24885348,0,0,0.27188195,1.008872,261.56334)"
       gradientUnits="userSpaceOnUse"
       y2="110.65087"
       x2="70.726562"
       y1="113.65864"
       x1="70.726562"
       id="linearGradient1033-6"
       xlink:href="#linearGradient4825"
       inkscape:collect="always" />
    <linearGradient
       gradientTransform="matrix(0.25035429,0,0,0.25190856,0.908842,263.56932)"
       gradientUnits="userSpaceOnUse"
       y2="107.45322"
       x2="60.902935"
       y1="111.36977"
       x1="60.902935"
       id="linearGradient986-2"
       xlink:href="#linearGradient4819"
       inkscape:collect="always" />
    <linearGradient
       gradientTransform="matrix(0.25042541,0,0,0.25190856,0.905482,263.56932)"
       gradientUnits="userSpaceOnUse"
       y2="103.91254"
       x2="59.245655"
       y1="107.43008"
       x1="59.245655"
       id="linearGradient994-9"
       xlink:href="#linearGradient4813"
       inkscape:collect="always" />
    <linearGradient
       inkscape:collect="always"
       id="linearGradient1052">
      <stop
         style="stop-color:#9d66d7;stop-opacity:1"
         offset="0"
         id="stop1040" />
      <stop
         id="stop1042"
         offset="0.33128312"
         style="stop-color:#9d68d6;stop-opacity:1" />
      <stop
         id="stop1044"
         offset="0.5047847"
         style="stop-color:#a16cd9;stop-opacity:1" />
      <stop
         style="stop-color:#a471da;stop-opacity:1"
         offset="0.60396028"
         id="stop1046" />
      <stop
         id="stop1048"
         offset="0.80198014"
         style="stop-color:#9d66d7;stop-opacity:1" />
      <stop
         style="stop-color:#9052d2;stop-opacity:1"
         offset="1"
         id="stop1050" />
    </linearGradient>
    <linearGradient
       id="linearGradient849"
       inkscape:collect="always">
      <stop
         id="stop845"
         offset="0"
         style="stop-color:#8c6dae;stop-opacity:1" />
      <stop
         style="stop-color:#8a58a2;stop-opacity:1"
         offset="0.16504955"
         id="stop853" />
      <stop
         id="stop1065"
         offset="0.29030523"
         style="stop-color:#7b4e90;stop-opacity:1" />
      <stop
         id="stop855"
         offset="0.34926009"
         style="stop-color:#664a89;stop-opacity:1" />
      <stop
         style="stop-color:#4b346c;stop-opacity:1"
         offset="0.38956389"
         id="stop861" />
      <stop
         style="stop-color:#51336d;stop-opacity:1"
         offset="0.44399697"
         id="stop857" />
      <stop
         id="stop847"
         offset="1"
         style="stop-color:#663e83;stop-opacity:0" />
    </linearGradient>
    <linearGradient
       inkscape:collect="always"
       id="linearGradient941">
      <stop
         style="stop-color:#5e38ae;stop-opacity:1"
         offset="0"
         id="stop937" />
      <stop
         style="stop-color:#7e60cc;stop-opacity:1"
         offset="1"
         id="stop939" />
    </linearGradient>
    <linearGradient
       inkscape:collect="always"
       xlink:href="#linearGradient849"
       id="linearGradient1038"
       x1="9.8772163"
       y1="267.67224"
       x2="10.445393"
       y2="282.20334"
       gradientUnits="userSpaceOnUse" />
  </defs>
  <sodipodi:namedview
     id="base"
     pagecolor="#ffffff"
     bordercolor="#666666"
     borderopacity="1.0"
     inkscape:pageopacity="0.0"
     inkscape:pageshadow="2"
     inkscape:zoom="2.5600001"
     inkscape:cx="34.78801"
     inkscape:cy="27.242259"
     inkscape:document-units="mm"
     inkscape:current-layer="layer1"
     showgrid="false"
     inkscape:window-width="1600"
     inkscape:window-height="837"
     inkscape:window-x="-8"
     inkscape:window-y="-8"
     inkscape:window-maximized="1"
     units="px" />
  <metadata
     id="metadata5">
    <rdf:RDF>
      <cc:Work
         rdf:about="">
        <dc:format>image/svg+xml</dc:format>
        <dc:type
           rdf:resource="http://purl.org/dc/dcmitype/StillImage" />
        <dc:title />
      </cc:Work>
    </rdf:RDF>
  </metadata>
  <g
     inkscape:label="Layer 1"
     inkscape:groupmode="layer"
     id="layer1"
     transform="translate(0,-263.13331)">
    <g
       id="g890"
       transform="translate(3.3333333e-7,3.3397849e-6)">
      <path
         inkscape:connector-curvature="0"
         style="opacity:0.25;fill:#000000;fill-opacity:1;stroke:none;stroke-width:0.19041908;stroke-miterlimit:4;stroke-dasharray:none;stroke-opacity:1"
         d="m 3.026502,267.67223 c -1.034929,0 -1.868199,0.84313 -1.868199,1.89071 v 2.26485 1.5523 0.74923 6.32164 1.51413 9.57926 0.68762 c 0,0.46147 0.363962,0.83287 0.816237,0.83287 h 0.673921 28.569746 0.673919 c 0.452277,0 0.816237,-0.3714 0.816237,-0.83287 v -0.68762 -9.57926 -1.51413 -7.07087 -1.5523 c 0,-0.872 -0.6937,-1.57379 -1.555201,-1.57379 H 12.463351 c -0.922975,-0.0867 -0.962826,-2.29325 -2.586135,-2.58177 z"
         id="path1228" />
      <path
         id="path7028-3"
         d="m 3.026502,267.16841 c -1.034929,0 -1.868199,0.84312 -1.868199,1.89072 v 2.26485 1.55228 0.74925 6.32162 1.51414 9.57926 0.68763 c 0,0.46146 0.363962,0.83287 0.816237,0.83287 h 0.673921 28.569746 0.673919 c 0.452277,0 0.816237,-0.37141 0.816237,-0.83287 v -0.68763 -9.57926 -1.51414 -7.07087 -1.55228 c 0,-0.87201 -0.6937,-1.5738 -1.555201,-1.5738 H 12.463351 c -0.922975,-0.0867 -0.962826,-2.29324 -2.586135,-2.58177 z"
         style="fill:url(#linearGradient1038);fill-opacity:1;stroke:#573866;stroke-width:0.19994003;stroke-miterlimit:4;stroke-dasharray:none;stroke-opacity:1"
         inkscape:connector-curvature="0" />
      <path
         style="fill:url(#linearGradient7011-3-5);fill-opacity:1;stroke:#573866;stroke-width:0.19994003;stroke-miterlimit:4;stroke-dasharray:none;stroke-opacity:1"
         d="m 2.648576,271.35589 c -0.825609,0 -1.490204,0.67821 -1.490204,1.5206 v 7.07049 11.09367 0.68761 c 0,0.46146 0.364035,0.83289 0.81631,0.83289 h 0.673894 28.56957 0.673897 c 0.452278,0 0.816309,-0.37143 0.816309,-0.83289 v -0.68761 -11.09367 -7.07049 c 0,-0.84239 -0.664592,-1.5206 -1.490206,-1.5206 z"
         id="rect5176-9"
         inkscape:connector-curvature="0" />
      <path
         sodipodi:nodetypes="csasccsaaascc"
         inkscape:connector-curvature="0"
         id="path1020-0"
         d="m 1.257726,291.42575 -0.0025,0.23008 c -0.002,0.18203 0.02726,0.37488 0.138218,0.51284 0.138573,0.1723 0.290852,0.30781 0.588556,0.30593 l 0.756743,-0.005 h 28.393603 0.669764 c 0.295013,0 0.291401,-0.0227 0.420899,-0.0834 0.0948,-0.0445 0.178294,-0.1163 0.243997,-0.19782 0.05306,-0.0659 0.09079,-0.14527 0.114247,-0.22651 0.02856,-0.099 0.02789,-0.19192 0.02928,-0.30757 l 0.0028,-0.22925 z"
         style="fill:url(#linearGradient1033-6);fill-opacity:1;stroke:none;stroke-width:0.19041908;stroke-miterlimit:4;stroke-dasharray:none;stroke-opacity:1" />
      <path
         inkscape:connector-curvature="0"
         id="path966-9"
         d="m 1.250796,289.73829 v 0.893 h 31.363827 v -0.893 z"
         style="fill:url(#linearGradient994-9);fill-opacity:1;stroke:none;stroke-width:0.19041906;stroke-miterlimit:4;stroke-dasharray:none;stroke-opacity:1" />
      <path
         sodipodi:nodetypes="ccsccsccc"
         inkscape:connector-curvature="0"
         id="path973-3"
         d="m 1.254058,290.74592 v 0.12152 0.68735 c 0,0.0288 -8.58e-4,0.06 0.0019,0.0881 l 31.350093,-0.004 c 0.0028,-0.0281 0.0029,-0.0553 0.0029,-0.0842 v -0.68734 -0.12152 z"
         style="fill:url(#linearGradient986-2);fill-opacity:1;stroke:none;stroke-width:0.19041908;stroke-miterlimit:4;stroke-dasharray:none;stroke-opacity:1" />
      <g
         transform="matrix(0.51049916,0,0,0.51168467,-398.36281,-0.41734786)"
         id="layer1-4-9-22"
         inkscape:label="Capa 1"
         inkscape:transform-center-x="5.4653607"
         inkscape:transform-center-y="-9.4924686"
         style="stroke-width:4.08449793">
        <g
           transform="translate(0.41988239,0.03484499)"
           inkscape:label="Capa 1"
           id="layer1-3-65-0-7"
           style="stroke-width:4.08449793" />
      </g>
      <g
         transform="matrix(0.51049916,0,0,0.51168467,-398.36281,-0.39353836)"
         id="layer1-4-3"
         inkscape:label="Capa 1"
         inkscape:transform-center-x="5.4653607"
         inkscape:transform-center-y="-9.4924686"
         style="stroke-width:4.08449793">
        <g
           transform="translate(0.41988239,0.03484499)"
           inkscape:label="Capa 1"
           id="layer1-3-65-7"
           style="stroke-width:4.08449793" />
      </g>
      <g
         transform="matrix(0.51049916,0,0,0.51168467,-429.55714,-41.939311)"
         id="layer1-4-9-2"
         inkscape:label="Capa 1"
         inkscape:transform-center-x="5.4653607"
         inkscape:transform-center-y="-9.4924686"
         style="stroke-width:4.08449793">
        <g
           transform="translate(0.41988239,0.03484499)"
           inkscape:label="Capa 1"
           id="layer1-3-65-0-2"
           style="stroke-width:4.08449793" />
      </g>
      <g
         transform="matrix(0.51049916,0,0,0.51168467,-429.55714,-41.9155)"
         id="layer1-4-7"
         inkscape:label="Capa 1"
         inkscape:transform-center-x="5.4653607"
         inkscape:transform-center-y="-9.4924686"
         style="stroke-width:4.08449793">
        <g
           transform="translate(0.41988239,0.03484499)"
           inkscape:label="Capa 1"
           id="layer1-3-65-3"
           style="stroke-width:4.08449793" />
      </g>
      <g
         transform="matrix(0.51049916,0,0,0.51168467,-398.36281,-0.41735076)"
         id="layer1-4-9"
         inkscape:label="Capa 1"
         inkscape:transform-center-x="5.4653607"
         inkscape:transform-center-y="-9.4924686"
         style="stroke-width:4.08449793">
        <g
           transform="translate(0.41988239,0.03484499)"
           inkscape:label="Capa 1"
           id="layer1-3-65-0"
           style="stroke-width:4.08449793" />
      </g>
      <g
         transform="matrix(0.51049916,0,0,0.51168467,-398.36281,-0.39354116)"
         id="layer1-4"
         inkscape:label="Capa 1"
         inkscape:transform-center-x="5.4653607"
         inkscape:transform-center-y="-9.4924686"
         style="stroke-width:4.08449793">
        <g
           transform="translate(0.41988239,0.03484499)"
           inkscape:label="Capa 1"
           id="layer1-3-65"
           style="stroke-width:4.08449793" />
      </g>
      <path
         inkscape:connector-curvature="0"
         d="m 16.963543,273.58552 c -0.300873,0 -0.564163,0.0159 -0.601564,0.0362 -0.11147,0.0606 -0.160622,0.21172 -0.182277,0.56094 -0.03022,0.48717 -0.0939,1.16849 -0.112032,1.19831 -0.0086,0.0142 -0.06609,0.0362 -0.12767,0.0488 -0.06158,0.0127 -0.300788,0.077 -0.531576,0.14312 -0.230788,0.0661 -0.450576,0.12022 -0.488379,0.12022 -0.04689,0 -0.127049,-0.0865 -0.252265,-0.2722 -0.378543,-0.56152 -0.653954,-0.94559 -0.725132,-1.01104 -0.135309,-0.12441 -0.293428,-0.0895 -0.70924,0.15641 -0.20827,0.12319 -0.40588,0.25501 -0.439156,0.29291 -0.111781,0.12733 -0.07335,0.27122 0.269826,1.01 l 0.330329,0.71122 -0.252522,0.26764 c -0.138906,0.14724 -0.341771,0.35291 -0.450693,0.45701 l -0.198042,0.18923 -0.71552,-0.34135 c -0.943914,-0.45017 -0.902167,-0.45826 -1.289908,0.25057 -0.310343,0.56734 -0.337724,0.51244 0.574517,1.14909 0.650663,0.4541 0.620108,0.41353 0.535166,0.71098 -0.03782,0.13242 -0.111809,0.40276 -0.164332,0.60065 -0.06244,0.2353 -0.11407,0.36527 -0.149333,0.3756 -0.02966,0.009 -0.326227,0.041 -0.65899,0.072 -1.158912,0.10755 -1.082873,0.0511 -1.066229,0.79158 0.0155,0.68992 -0.01421,0.65795 0.673475,0.72321 0.803756,0.0763 1.086626,0.10981 1.107761,0.13128 0.01075,0.0109 0.05624,0.15894 0.101136,0.32886 0.04489,0.1699 0.112563,0.41956 0.150359,0.5548 0.0378,0.13524 0.06923,0.2788 0.06973,0.31896 7.68e-4,0.0551 -0.132634,0.16701 -0.543498,0.45596 -0.631666,0.44424 -0.803838,0.59267 -0.803838,0.69338 0,0.0928 0.19658,0.4795 0.39019,0.76749 0.225569,0.33555 0.172954,0.34484 1.435525,-0.25512 0.157981,-0.0751 0.313779,-0.1365 0.346224,-0.1365 0.03245,0 0.25968,0.20442 0.505042,0.45427 l 0.446206,0.45427 -0.334302,0.71683 c -0.18384,0.39427 -0.334302,0.75687 -0.334302,0.80565 0,0.1414 0.108683,0.24609 0.49607,0.4781 0.40635,0.24339 0.548425,0.27269 0.669374,0.13818 0.03909,-0.0435 0.243931,-0.33391 0.455306,-0.64545 0.211374,-0.31154 0.408368,-0.58669 0.437747,-0.61147 0.04425,-0.0373 0.151756,-0.0186 0.626816,0.10914 0.315356,0.0848 0.596882,0.17164 0.625663,0.19301 0.04091,0.0303 0.06466,0.21346 0.1087,0.83861 l 0.05628,0.79966 0.09639,0.0841 c 0.09223,0.0806 0.117993,0.0841 0.606948,0.0841 0.699369,0 0.6539,0.0582 0.719108,-0.92 0.02744,-0.41169 0.0638,-0.78342 0.08088,-0.82609 0.0229,-0.0573 0.09275,-0.0956 0.265853,-0.146 0.655415,-0.19098 0.922044,-0.25477 0.989831,-0.23691 0.0475,0.0125 0.185274,0.18913 0.379039,0.48592 0.167451,0.25648 0.370542,0.55327 0.451205,0.65953 0.207067,0.27276 0.26442,0.2725 0.753974,-0.005 0.213537,-0.12091 0.418178,-0.25023 0.454666,-0.2873 0.0904,-0.0918 0.06403,-0.26506 -0.09024,-0.59232 -0.419494,-0.88997 -0.508375,-1.0835 -0.508375,-1.10755 0,-0.0548 0.882787,-0.92365 0.938559,-0.92365 0.03186,0 0.203248,0.0696 0.380832,0.15473 1.08403,0.51948 1.167637,0.54519 1.296319,0.39853 0.12551,-0.14306 0.464998,-0.76027 0.484147,-0.88015 0.01682,-0.10533 0.0028,-0.13165 -0.135874,-0.25527 -0.08508,-0.0758 -0.269507,-0.21631 -0.409801,-0.31205 -0.556153,-0.37948 -0.79102,-0.56433 -0.79102,-0.6228 0,-0.0331 0.02461,-0.15195 0.0546,-0.26398 0.03001,-0.11204 0.09299,-0.35383 0.139976,-0.53737 0.04699,-0.18354 0.108229,-0.35702 0.136003,-0.3855 0.02987,-0.0306 0.152652,-0.061 0.300717,-0.0745 0.137673,-0.0125 0.483746,-0.0433 0.768973,-0.0685 0.491342,-0.0433 0.523533,-0.0508 0.613613,-0.14235 0.09458,-0.0961 0.09511,-0.0991 0.09511,-0.58321 0,-0.3995 -0.01044,-0.50226 -0.05846,-0.57356 -0.10204,-0.15149 -0.08189,-0.14714 -1.059819,-0.22518 -0.410181,-0.0328 -0.597093,-0.0615 -0.632072,-0.097 -0.02732,-0.0278 -0.113025,-0.28639 -0.190481,-0.57487 -0.07746,-0.28848 -0.148414,-0.55081 -0.157665,-0.58282 -0.01724,-0.0596 0.171831,-0.21225 0.84178,-0.67945 0.433811,-0.30252 0.485409,-0.35225 0.511579,-0.49399 0.019,-0.1029 0.0047,-0.15543 -0.07832,-0.29004 -0.05579,-0.0904 -0.159106,-0.27089 -0.229576,-0.40114 -0.136472,-0.25221 -0.260996,-0.37794 -0.374424,-0.37794 -0.03836,0 -0.392645,0.15207 -0.787302,0.33797 -0.639663,0.30129 -0.724477,0.33269 -0.781277,0.28925 -0.151112,-0.11553 -0.807043,-0.82906 -0.807043,-0.87792 0,-0.0296 0.140095,-0.35591 0.31123,-0.72518 0.199315,-0.43006 0.3111,-0.71389 0.3111,-0.78963 0,-0.15319 -0.09241,-0.24004 -0.535806,-0.50337 -0.44034,-0.26151 -0.557773,-0.27213 -0.733978,-0.0663 -0.06578,0.0768 -0.213743,0.28194 -0.328917,0.45582 -0.385805,0.58243 -0.515922,0.75526 -0.568622,0.75526 -0.101055,0 -1.100178,-0.28671 -1.141473,-0.32755 -0.03927,-0.0388 -0.147812,-1.07617 -0.148308,-1.41725 -1.31e-4,-0.10627 -0.0247,-0.1764 -0.0896,-0.25474 l -0.08961,-0.1081 z m 0.01333,4.2718 c 0.458712,0.004 0.899183,0.11407 1.340413,0.33198 0.65578,0.32387 1.174509,0.84384 1.487568,1.49083 0.213025,0.44026 0.294594,0.78289 0.317638,1.33559 0.01741,0.41732 0.01088,0.49058 -0.07422,0.83587 -0.136928,0.55563 -0.308786,0.9076 -0.650017,1.3309 -0.410076,0.5087 -0.954133,0.87023 -1.599601,1.06313 -0.39457,0.11792 -1.114918,0.1533 -1.465904,0.072 -0.804738,-0.18637 -1.43747,-0.57341 -1.893396,-1.1582 -0.809543,-1.03836 -0.944032,-2.36864 -0.356862,-3.52919 0.421387,-0.83287 1.176541,-1.44833 2.04478,-1.66626 0.292485,-0.0734 0.57437,-0.10911 0.849599,-0.10667 z"
         style="fill:url(#linearGradient1327);fill-opacity:1;stroke:none;stroke-width:0.15000001;stroke-miterlimit:4;stroke-dasharray:none;stroke-opacity:1"
         id="path1152" />
    </g>
  </g>
</svg>
