<?xml version="1.0" encoding="UTF-8" standalone="no"?>
<!-- Created with Inkscape (http://www.inkscape.org/) -->

<svg
   xmlns:osb="http://www.openswatchbook.org/uri/2009/osb"
   xmlns:dc="http://purl.org/dc/elements/1.1/"
   xmlns:cc="http://creativecommons.org/ns#"
   xmlns:rdf="http://www.w3.org/1999/02/22-rdf-syntax-ns#"
   xmlns:svg="http://www.w3.org/2000/svg"
   xmlns="http://www.w3.org/2000/svg"
   xmlns:xlink="http://www.w3.org/1999/xlink"
   xmlns:sodipodi="http://sodipodi.sourceforge.net/DTD/sodipodi-0.dtd"
   xmlns:inkscape="http://www.inkscape.org/namespaces/inkscape"
   width="128"
   height="128"
   viewBox="0 0 33.866666 33.866668"
   version="1.1"
   id="svg8"
   inkscape:version="0.92.2 5c3e80d, 2017-08-06"
   sodipodi:docname="accessories-dictionary.svg">
  <defs
     id="defs2">
    <linearGradient
       inkscape:collect="always"
       id="linearGradient908">
      <stop
         style="stop-color:#b55252;stop-opacity:1"
         offset="0"
         id="stop904" />
      <stop
         style="stop-color:#964643;stop-opacity:1"
         offset="1"
         id="stop906" />
    </linearGradient>
    <linearGradient
       osb:paint="solid"
       id="linearGradient6987">
      <stop
         id="stop6985"
         offset="0"
         style="stop-color:#77d2fb;stop-opacity:1;" />
    </linearGradient>
    <linearGradient
       inkscape:collect="always"
       xlink:href="#linearGradient908"
       id="linearGradient918"
       gradientUnits="userSpaceOnUse"
       x1="-30.290506"
       y1="265.14398"
       x2="-34.30764"
       y2="291.64374"
       gradientTransform="translate(0.3023306,0.07709435)" />
  </defs>
  <sodipodi:namedview
     id="base"
     pagecolor="#ffffff"
     bordercolor="#666666"
     borderopacity="1.0"
     inkscape:pageopacity="0.0"
     inkscape:pageshadow="2"
     inkscape:zoom="0.70710678"
     inkscape:cx="309.03631"
     inkscape:cy="188.00023"
     inkscape:document-units="mm"
     inkscape:current-layer="layer1"
     showgrid="false"
     inkscape:window-width="1600"
     inkscape:window-height="814"
     inkscape:window-x="0"
     inkscape:window-y="0"
     inkscape:window-maximized="1"
     showguides="true"
     units="px" />
  <metadata
     id="metadata5">
    <rdf:RDF>
      <cc:Work
         rdf:about="">
        <dc:format>image/svg+xml</dc:format>
        <dc:type
           rdf:resource="http://purl.org/dc/dcmitype/StillImage" />
        <dc:title />
      </cc:Work>
    </rdf:RDF>
  </metadata>
  <g
     inkscape:label="Layer 1"
     inkscape:groupmode="layer"
     id="layer1"
     transform="translate(0,-263.13332)">
    <rect
       style="opacity:0.25;fill:#000000;fill-opacity:1;stroke:none;stroke-width:0.20000252;stroke-linecap:round;stroke-miterlimit:4;stroke-dasharray:0.05000063, 0.05000063;stroke-dashoffset:0;stroke-opacity:1"
       id="rect1035"
       width="25.178579"
       height="29.787546"
       x="-41.00621"
       y="264.70871"
       ry="1.5395004"
       transform="matrix(0.98807433,-0.15397767,0.16098341,0.98695711,0,0)" />
    <rect
       transform="matrix(0.98807433,-0.15397767,0.16098341,0.98695711,0,0)"
       ry="1.5395004"
       y="264.18585"
       x="-40.921021"
       height="29.787546"
       width="25.178579"
       id="rect914"
       style="opacity:1;fill:url(#linearGradient918);fill-opacity:1;stroke:none;stroke-width:0.20000252;stroke-linecap:round;stroke-miterlimit:4;stroke-dasharray:0.05000063, 0.05000063;stroke-dashoffset:0;stroke-opacity:1" />
    <rect
       style="opacity:1;fill:#ffffff;fill-opacity:1;fill-rule:nonzero;stroke:none;stroke-width:0.20000002;stroke-miterlimit:4;stroke-dasharray:none;stroke-opacity:1"
       id="rect924"
       width="21.548615"
       height="0.15000001"
       x="-35.53788"
       y="270.02255"
       transform="rotate(-8.8911827)" />
    <path
       inkscape:connector-curvature="0"
       id="path916"
       d="m 6.1254459,266.41324 -2.507664,0.39128 c -0.8427514,0.13108 -1.4106563,0.91465 -1.2733538,1.75641 l 4.2996482,26.36016 c 0.1372505,0.84176 0.9262325,1.41376 1.7689399,1.28245 l 2.5730548,-0.4005 z"
       style="opacity:1;fill:#803b39;fill-opacity:1;stroke:none;stroke-width:0.2;stroke-linecap:round;stroke-miterlimit:4;stroke-dasharray:0.05, 0.05;stroke-dashoffset:0;stroke-opacity:1" />
    <g
       aria-label="A"
       style="font-style:normal;font-weight:normal;font-size:13.80104542px;line-height:1.25;font-family:sans-serif;letter-spacing:0px;word-spacing:0px;fill:#ffffff;fill-opacity:1;stroke:none;stroke-width:0.26458332"
       id="text932"
       transform="rotate(-8.8911827,63.864174,792.18604)">
      <path
         inkscape:connector-curvature="0"
         d="m 96.346184,279.90589 h -3.537865 l -0.619969,1.4421 q -0.229119,0.53237 -0.229119,0.79518 0,0.2089 0.195425,0.37063 0.202164,0.15499 0.862565,0.20217 v 0.24933 h -2.877464 v -0.24933 q 0.572798,-0.10109 0.741267,-0.26282 0.343679,-0.32346 0.761484,-1.31406 l 3.214404,-7.52049 h 0.235857 l 3.18071,7.60135 q 0.384111,0.91648 0.694095,1.19277 0.316724,0.26955 0.876043,0.30325 v 0.24933 h -3.605253 v -0.24933 q 0.545842,-0.027 0.734528,-0.18195 0.195425,-0.15499 0.195425,-0.37737 0,-0.29651 -0.269552,-0.9367 z m -0.188686,-0.49867 -1.549922,-3.69286 -1.590355,3.69286 z"
         style="font-style:normal;font-variant:normal;font-weight:normal;font-stretch:normal;font-family:'Times New Roman';-inkscape-font-specification:'Times New Roman, ';fill:#ffffff;stroke:none;stroke-width:0.26458332"
         id="path987" />
    </g>
    <g
       aria-label="a"
       style="font-style:normal;font-weight:normal;font-size:13.80104542px;line-height:1.25;font-family:sans-serif;letter-spacing:0px;word-spacing:0px;fill:#ffffff;fill-opacity:1;stroke:none;stroke-width:0.26458332"
       id="text936"
       transform="rotate(-8.8911827,63.864174,792.18604)">
      <path
         inkscape:connector-curvature="0"
         d="m 104.24633,282.07578 q -0.95017,0.73453 -1.19277,0.84909 -0.36389,0.16847 -0.77496,0.16847 -0.64019,0 -1.05799,-0.43802 -0.41107,-0.43802 -0.41107,-1.15234 0,-0.4515 0.20217,-0.7817 0.27629,-0.45823 0.95691,-0.86256 0.68735,-0.40433 2.27771,-0.98387 v -0.24259 q 0,-0.92322 -0.29651,-1.26689 -0.28977,-0.34368 -0.84909,-0.34368 -0.42454,0 -0.67388,0.22912 -0.25607,0.22912 -0.25607,0.52562 l 0.0135,0.39085 q 0,0.30999 -0.16173,0.47846 -0.155,0.16847 -0.41107,0.16847 -0.24934,0 -0.41107,-0.17521 -0.15499,-0.17521 -0.15499,-0.47846 0,-0.57953 0.59301,-1.06473 0.59302,-0.48519 1.66449,-0.48519 0.82213,0 1.34775,0.27629 0.39759,0.2089 0.58628,0.65366 0.1213,0.28977 0.1213,1.18603 v 2.09577 q 0,0.88278 0.0337,1.08494 0.0337,0.19543 0.10782,0.26281 0.0809,0.0674 0.18195,0.0674 0.10782,0 0.18869,-0.0472 0.14151,-0.0876 0.54584,-0.49193 v 0.37737 q -0.75475,1.01082 -1.4421,1.01082 -0.3302,0 -0.52563,-0.22912 -0.19542,-0.22912 -0.20216,-0.7817 z m 0,-0.43802 v -2.35184 q -1.01756,0.40433 -1.31407,0.5728 -0.53236,0.29651 -0.76148,0.61997 -0.22912,0.32346 -0.22912,0.70757 0,0.48519 0.28977,0.80866 0.28977,0.31672 0.66714,0.31672 0.51215,0 1.34776,-0.67388 z"
         style="font-style:normal;font-variant:normal;font-weight:normal;font-stretch:normal;font-family:'Times New Roman';-inkscape-font-specification:'Times New Roman, ';fill:#ffffff;stroke:none;stroke-width:0.26458332"
         id="path990" />
    </g>
    <g
       aria-label="Dictionary"
       style="font-style:normal;font-weight:normal;font-size:3.43659949px;line-height:1.25;font-family:sans-serif;letter-spacing:0px;word-spacing:0px;fill:#ffffff;fill-opacity:1;stroke:none;stroke-width:0.26458332"
       id="text950"
       transform="rotate(-8.8911827,63.864174,792.18604)">
      <path
         inkscape:connector-curvature="0"
         d="m 90.944954,267.9137 v -0.0621 h 0.08558 q 0.14431,0 0.204719,-0.0923 0.03692,-0.0554 0.03692,-0.24835 V 266.041 q 0,-0.21311 -0.04699,-0.26681 -0.06544,-0.0738 -0.194651,-0.0738 h -0.08558 v -0.0621 h 0.926271 q 0.51012,0 0.775248,0.11579 0.266807,0.11578 0.427897,0.38594 0.162769,0.27016 0.162769,0.62423 0,0.47488 -0.288621,0.7937 -0.323859,0.35575 -0.98668,0.35575 z m 0.649396,-0.16445 q 0.21311,0.047 0.35742,0.047 0.389302,0 0.64604,-0.27351 0.256739,-0.27352 0.256739,-0.74169 0,-0.47153 -0.256739,-0.74337 -0.256738,-0.27184 -0.659464,-0.27184 -0.151023,0 -0.343996,0.0487 z"
         style="font-style:normal;font-variant:normal;font-weight:normal;font-stretch:normal;font-family:'Times New Roman';-inkscape-font-specification:'Times New Roman, ';fill:#ffffff;stroke-width:0.26458332"
         id="path966" />
      <path
         inkscape:connector-curvature="0"
         d="m 93.868077,265.52754 q 0.07048,0 0.11914,0.0503 0.05034,0.0487 0.05034,0.11914 0,0.0705 -0.05034,0.12082 -0.04866,0.0503 -0.11914,0.0503 -0.07048,0 -0.120818,-0.0503 -0.05034,-0.0503 -0.05034,-0.12082 0,-0.0705 0.04866,-0.11914 0.05034,-0.0503 0.122496,-0.0503 z m 0.139276,0.80378 v 1.23502 q 0,0.14432 0.02014,0.19298 0.02181,0.047 0.06209,0.0705 0.04195,0.0235 0.151022,0.0235 v 0.0604 h -0.746722 v -0.0604 q 0.112428,0 0.151022,-0.0218 0.0386,-0.0218 0.06041,-0.0722 0.02349,-0.0503 0.02349,-0.19298 V 266.974 q 0,-0.25002 -0.0151,-0.32386 -0.01175,-0.0537 -0.03692,-0.0738 -0.02517,-0.0218 -0.0688,-0.0218 -0.04699,0 -0.114106,0.0252 l -0.02349,-0.0604 0.463135,-0.18794 z"
         style="font-style:normal;font-variant:normal;font-weight:normal;font-stretch:normal;font-family:'Times New Roman';-inkscape-font-specification:'Times New Roman, ';fill:#ffffff;stroke-width:0.26458332"
         id="path968" />
      <path
         inkscape:connector-curvature="0"
         d="m 95.735721,267.32974 q -0.06209,0.30373 -0.243314,0.46817 -0.181226,0.16277 -0.401048,0.16277 -0.261772,0 -0.456423,-0.21982 -0.194652,-0.21982 -0.194652,-0.59402 0,-0.36246 0.214788,-0.58899 0.216465,-0.22653 0.51851,-0.22653 0.226534,0 0.372522,0.12081 0.145989,0.11914 0.145989,0.24835 0,0.0638 -0.04195,0.10404 -0.04027,0.0386 -0.114106,0.0386 -0.099,0 -0.149344,-0.0638 -0.02853,-0.0352 -0.0386,-0.13424 -0.0084,-0.099 -0.06712,-0.15102 -0.05873,-0.0504 -0.162769,-0.0504 -0.167802,0 -0.270162,0.12418 -0.13592,0.16445 -0.13592,0.43461 0,0.27519 0.134242,0.48663 0.13592,0.20975 0.36581,0.20975 0.164447,0 0.295333,-0.11243 0.09229,-0.0772 0.179549,-0.28023 z"
         style="font-style:normal;font-variant:normal;font-weight:normal;font-stretch:normal;font-family:'Times New Roman';-inkscape-font-specification:'Times New Roman, ';fill:#ffffff;stroke-width:0.26458332"
         id="path970" />
      <path
         inkscape:connector-curvature="0"
         d="m 96.40022,265.87154 v 0.50508 h 0.359098 v 0.11747 H 96.40022 v 0.99674 q 0,0.14935 0.04195,0.20137 0.04363,0.052 0.11075,0.052 0.05537,0 0.107394,-0.0336 0.05202,-0.0352 0.08055,-0.10236 h 0.06544 q -0.05873,0.16444 -0.166124,0.24834 -0.107394,0.0822 -0.2215,0.0822 -0.07719,0 -0.151022,-0.0419 -0.07383,-0.0436 -0.109072,-0.1225 -0.03524,-0.0806 -0.03524,-0.24667 v -1.03366 h -0.243314 v -0.0554 q 0.09229,-0.0369 0.187939,-0.12417 0.09733,-0.0889 0.172837,-0.20976 0.0386,-0.0638 0.107394,-0.23324 z"
         style="font-style:normal;font-variant:normal;font-weight:normal;font-stretch:normal;font-family:'Times New Roman';-inkscape-font-specification:'Times New Roman, ';fill:#ffffff;stroke-width:0.26458332"
         id="path972" />
      <path
         inkscape:connector-curvature="0"
         d="m 97.297965,265.52754 q 0.07048,0 0.11914,0.0503 0.05034,0.0487 0.05034,0.11914 0,0.0705 -0.05034,0.12082 -0.04866,0.0503 -0.11914,0.0503 -0.07048,0 -0.120818,-0.0503 -0.05034,-0.0503 -0.05034,-0.12082 0,-0.0705 0.04866,-0.11914 0.05034,-0.0503 0.122496,-0.0503 z m 0.139276,0.80378 v 1.23502 q 0,0.14432 0.02014,0.19298 0.02182,0.047 0.06209,0.0705 0.04195,0.0235 0.151023,0.0235 v 0.0604 h -0.746722 v -0.0604 q 0.112427,0 0.151022,-0.0218 0.0386,-0.0218 0.06041,-0.0722 0.02349,-0.0503 0.02349,-0.19298 V 266.974 q 0,-0.25002 -0.0151,-0.32386 -0.01175,-0.0537 -0.03692,-0.0738 -0.02517,-0.0218 -0.0688,-0.0218 -0.04698,0 -0.114105,0.0252 l -0.02349,-0.0604 0.463136,-0.18794 z"
         style="font-style:normal;font-variant:normal;font-weight:normal;font-stretch:normal;font-family:'Times New Roman';-inkscape-font-specification:'Times New Roman, ';fill:#ffffff;stroke-width:0.26458332"
         id="path974" />
      <path
         inkscape:connector-curvature="0"
         d="m 98.61186,266.33132 q 0.349029,0 0.560461,0.26513 0.179549,0.22653 0.179549,0.52018 0,0.2064 -0.099,0.41783 -0.099,0.21143 -0.273518,0.31883 -0.172837,0.10739 -0.385947,0.10739 -0.347351,0 -0.55207,-0.27687 -0.172837,-0.23325 -0.172837,-0.52355 0,-0.21143 0.104037,-0.4195 0.105716,-0.20976 0.276875,-0.30876 0.171159,-0.10068 0.362454,-0.10068 z m -0.05202,0.10907 q -0.08894,0 -0.179549,0.0537 -0.08893,0.052 -0.14431,0.18458 -0.05538,0.13256 -0.05538,0.34064 0,0.3356 0.132564,0.57892 0.134242,0.24331 0.352386,0.24331 0.162768,0 0.268484,-0.13424 0.105716,-0.13424 0.105716,-0.46146 0,-0.40944 -0.176193,-0.64436 -0.11914,-0.16109 -0.303723,-0.16109 z"
         style="font-style:normal;font-variant:normal;font-weight:normal;font-stretch:normal;font-family:'Times New Roman';-inkscape-font-specification:'Times New Roman, ';fill:#ffffff;stroke-width:0.26458332"
         id="path976" />
      <path
         inkscape:connector-curvature="0"
         d="m 100.02644,266.65685 q 0.27016,-0.32553 0.51515,-0.32553 0.12585,0 0.21647,0.0638 0.0906,0.0621 0.14431,0.2064 0.0369,0.10068 0.0369,0.30876 v 0.6561 q 0,0.14599 0.0235,0.19801 0.0185,0.042 0.0587,0.0654 0.0419,0.0235 0.1527,0.0235 v 0.0604 h -0.76015 v -0.0604 h 0.0319 q 0.1074,0 0.14935,-0.0319 0.0436,-0.0336 0.0604,-0.0973 0.007,-0.0252 0.007,-0.15774 v -0.62926 q 0,-0.20975 -0.0554,-0.30372 -0.0537,-0.0956 -0.1829,-0.0956 -0.19969,0 -0.39769,0.21815 v 0.81048 q 0,0.15606 0.0185,0.19298 0.0235,0.0487 0.0638,0.0722 0.0419,0.0218 0.1678,0.0218 v 0.0604 h -0.760144 v -0.0604 h 0.03356 q 0.117461,0 0.157734,-0.0587 0.04195,-0.0604 0.04195,-0.22822 v -0.57052 q 0,-0.27688 -0.01342,-0.33729 -0.01175,-0.0604 -0.0386,-0.0822 -0.02517,-0.0218 -0.0688,-0.0218 -0.04698,0 -0.112428,0.0252 l -0.02517,-0.0604 0.463135,-0.18794 h 0.07216 z"
         style="font-style:normal;font-variant:normal;font-weight:normal;font-stretch:normal;font-family:'Times New Roman';-inkscape-font-specification:'Times New Roman, ';fill:#ffffff;stroke-width:0.26458332"
         id="path978" />
      <path
         inkscape:connector-curvature="0"
         d="m 102.1676,267.6922 q -0.2366,0.1829 -0.29701,0.21143 -0.0906,0.0419 -0.19297,0.0419 -0.15942,0 -0.26346,-0.10907 -0.10235,-0.10907 -0.10235,-0.28695 0,-0.11242 0.0503,-0.19465 0.0688,-0.1141 0.23828,-0.21478 0.17115,-0.10069 0.56717,-0.245 v -0.0604 q 0,-0.22988 -0.0738,-0.31546 -0.0722,-0.0856 -0.21144,-0.0856 -0.10571,0 -0.1678,0.0571 -0.0638,0.0571 -0.0638,0.13089 l 0.003,0.0973 q 0,0.0772 -0.0403,0.11914 -0.0386,0.0419 -0.10236,0.0419 -0.0621,0 -0.10236,-0.0436 -0.0386,-0.0436 -0.0386,-0.11914 0,-0.14431 0.14766,-0.26513 0.14767,-0.12081 0.41448,-0.12081 0.20471,0 0.3356,0.0688 0.099,0.052 0.14599,0.16276 0.0302,0.0722 0.0302,0.29534 v 0.52186 q 0,0.21983 0.008,0.27017 0.008,0.0487 0.0268,0.0654 0.0201,0.0168 0.0453,0.0168 0.0268,0 0.047,-0.0118 0.0352,-0.0218 0.13592,-0.12249 v 0.094 q -0.18794,0.2517 -0.35909,0.2517 -0.0822,0 -0.13089,-0.0571 -0.0487,-0.0571 -0.0503,-0.19465 z m 0,-0.10908 v -0.58563 q -0.25338,0.10069 -0.32722,0.14264 -0.13256,0.0738 -0.18961,0.15437 -0.0571,0.0805 -0.0571,0.1762 0,0.12082 0.0722,0.20136 0.0722,0.0789 0.16612,0.0789 0.12753,0 0.33561,-0.16781 z"
         style="font-style:normal;font-variant:normal;font-weight:normal;font-stretch:normal;font-family:'Times New Roman';-inkscape-font-specification:'Times New Roman, ';fill:#ffffff;stroke-width:0.26458332"
         id="path980" />
      <path
         inkscape:connector-curvature="0"
         d="m 103.27006,266.33132 v 0.34567 q 0.19298,-0.34567 0.39602,-0.34567 0.0923,0 0.1527,0.0571 0.0604,0.0554 0.0604,0.12921 0,0.0654 -0.0436,0.11075 -0.0436,0.0453 -0.10404,0.0453 -0.0587,0 -0.13256,-0.0571 -0.0722,-0.0587 -0.1074,-0.0587 -0.0302,0 -0.0654,0.0336 -0.0755,0.0688 -0.15606,0.22653 v 0.73666 q 0,0.12753 0.0319,0.19297 0.0218,0.0453 0.0772,0.0755 0.0554,0.0302 0.15941,0.0302 v 0.0604 h -0.787 v -0.0604 q 0.11746,0 0.17452,-0.0369 0.0419,-0.0269 0.0587,-0.0856 0.008,-0.0285 0.008,-0.16277 v -0.5957 q 0,-0.26848 -0.0117,-0.31882 -0.0101,-0.052 -0.0403,-0.0755 -0.0285,-0.0235 -0.0722,-0.0235 -0.052,0 -0.11746,0.0252 l -0.0168,-0.0604 0.46482,-0.18794 z"
         style="font-style:normal;font-variant:normal;font-weight:normal;font-stretch:normal;font-family:'Times New Roman';-inkscape-font-specification:'Times New Roman, ';fill:#ffffff;stroke-width:0.26458332"
         id="path982" />
      <path
         inkscape:connector-curvature="0"
         d="m 103.88086,266.37662 h 0.71652 v 0.0621 h -0.0352 q -0.0755,0 -0.1141,0.0336 -0.0369,0.0319 -0.0369,0.0806 0,0.0654 0.0554,0.18122 l 0.3742,0.77525 0.34399,-0.84908 q 0.0285,-0.0688 0.0285,-0.13592 0,-0.0302 -0.0118,-0.0453 -0.0134,-0.0185 -0.0419,-0.0285 -0.0285,-0.0118 -0.10068,-0.0118 v -0.0621 h 0.50005 v 0.0621 q -0.0621,0.007 -0.0957,0.0268 -0.0336,0.0201 -0.0738,0.0755 -0.0151,0.0235 -0.0571,0.12921 l -0.62591,1.53371 q -0.0906,0.22318 -0.23828,0.33729 -0.14598,0.1141 -0.2819,0.1141 -0.099,0 -0.16277,-0.0571 -0.0638,-0.0571 -0.0638,-0.13088 0,-0.0705 0.0453,-0.11411 0.047,-0.0419 0.12753,-0.0419 0.0554,0 0.15102,0.0369 0.0671,0.0252 0.0839,0.0252 0.0503,0 0.10907,-0.052 0.0604,-0.052 0.12082,-0.20137 l 0.10907,-0.2668 -0.55207,-1.15952 q -0.0252,-0.052 -0.0805,-0.12921 -0.0419,-0.0587 -0.0688,-0.0789 -0.0386,-0.0269 -0.12418,-0.047 z"
         style="font-style:normal;font-variant:normal;font-weight:normal;font-stretch:normal;font-family:'Times New Roman';-inkscape-font-specification:'Times New Roman, ';fill:#ffffff;stroke-width:0.26458332"
         id="path984" />
    </g>
  </g>
</svg>
