<?xml version="1.0" encoding="UTF-8" standalone="no"?>
<svg
   xmlns:dc="http://purl.org/dc/elements/1.1/"
   xmlns:cc="http://creativecommons.org/ns#"
   xmlns:rdf="http://www.w3.org/1999/02/22-rdf-syntax-ns#"
   xmlns:svg="http://www.w3.org/2000/svg"
   xmlns="http://www.w3.org/2000/svg"
   xmlns:sodipodi="http://sodipodi.sourceforge.net/DTD/sodipodi-0.dtd"
   xmlns:inkscape="http://www.inkscape.org/namespaces/inkscape"
   width="16"
   height="16"
   version="1.1"
   viewBox="0 0 16 16"
   id="svg9"
   sodipodi:docname="user-trash.svg"
   inkscape:version="0.92.3 (2405546, 2018-03-11)">
  <metadata
     id="metadata13">
    <rdf:RDF>
      <cc:Work
         rdf:about="">
        <dc:format>image/svg+xml</dc:format>
        <dc:type
           rdf:resource="http://purl.org/dc/dcmitype/StillImage" />
      </cc:Work>
    </rdf:RDF>
  </metadata>
  <sodipodi:namedview
     pagecolor="#ffffff"
     bordercolor="#666666"
     borderopacity="1"
     objecttolerance="10"
     gridtolerance="10"
     guidetolerance="10"
     inkscape:pageopacity="0"
     inkscape:pageshadow="2"
     inkscape:window-width="1534"
     inkscape:window-height="846"
     id="namedview11"
     showgrid="false"
     inkscape:zoom="7.375"
     inkscape:cx="-15.652325"
     inkscape:cy="7.7394184"
     inkscape:window-x="66"
     inkscape:window-y="28"
     inkscape:window-maximized="1"
     inkscape:current-layer="svg9" />
  <defs
     id="defs3">
    <style
       id="current-color-scheme"
       type="text/css">.ColorScheme-Text { color:#dedede; } .ColorScheme-Highlight { color:#5294e2; }</style>
    <style
       type="text/css"
       id="current-color-scheme-3">.ColorScheme-Text { color:#dedede; }</style>
  </defs>
  <g
     id="g981"
     transform="translate(3.2964652e-5)">
    <path
       style="opacity:0.8;fill:#dedede;fill-opacity:1;stroke-width:0.01632693"
       inkscape:connector-curvature="0"
       id="path4"
       d="m 13.46721,5.2258607 -0.69716,9.9659583 c 0,0.445725 -0.349396,0.808183 -0.780427,0.808183 H 4.010652 c -0.431031,0 -0.7804273,-0.362458 -0.7804273,-0.808183 L 2.5330648,5.2258607 V 4.4176777 H 13.468843 v 0.808183 z M 5.6564065,6.8422268 c 0,-0.4473579 -0.351029,-0.8081831 -0.7804272,-0.8081831 -0.431031,0 -0.7804273,0.3608252 -0.7804273,0.8081831 v 6.7332262 c 0,0.445725 0.3493963,0.808183 0.7804273,0.808183 0.4310309,0 0.7804272,-0.362458 0.7804272,-0.808183 z m 3.1249744,0 c 0,-0.4473579 -0.3493963,-0.8081831 -0.7804272,-0.8081831 -0.431031,0 -0.7804273,0.3608252 -0.7804273,0.8081831 v 6.7332262 c 0,0.445725 0.3493963,0.808183 0.7804273,0.808183 0.4310309,0 0.7804272,-0.362458 0.7804272,-0.808183 z m 3.1233421,0 c 0,-0.4473579 -0.351029,-0.8081831 -0.780428,-0.8081831 -0.431031,0 -0.780427,0.3608252 -0.780427,0.8081831 v 6.7332262 c 0,0.445725 0.349396,0.808183 0.780427,0.808183 0.431031,0 0.780428,-0.362458 0.780428,-0.808183 z" />
    <path
       style="opacity:0.8;fill:#dedede;fill-opacity:1;stroke-width:0.01632693"
       inkscape:connector-curvature="0"
       id="path6"
       d="M 1.883253,3.7090889 C 1.8995799,3.3580599 1.8783549,3.011929 1.94203,2.682125 2.0252973,2.2494614 2.319182,1.9653728 2.7698053,1.9327189 c 0.5289925,-0.039185 1.0596178,-0.029389 1.5886103,-0.039185 0.1534731,-0.00327 0.3053136,0 0.5061348,0 0,-0.2938848 -0.0049,-0.5338906 0,-0.7738965 0.014694,-0.64491373 0.3853156,-1.08900622 1.0155351,-1.10043507 1.5037102,-0.0244904 3.0090532,-0.02612309 4.5127635,-0.0016327 0.635118,0.01142885 0.977983,0.41633672 0.997575,1.05798507 0.0065,0.2547001 0.0016,0.5094002 0.0016,0.8179792 0.4245,0 0.795122,0.01796 1.160845,-0.00327 1.369829,-0.080002 1.696368,0.6236887 1.520037,1.81882 -4.040915,0 -8.0850958,0 -12.189686,0 z M 5.8049816,1.9261881 c 1.5086083,0 2.9666032,0.0049 4.4262304,-0.00163 0.453889,-0.00163 0.243272,-0.3624579 0.279191,-0.5763407 0.04245,-0.2579655 -0.01633,-0.43266362 -0.354295,-0.42776554 -1.0743116,0.0163269 -2.1469909,0.006531 -3.2213028,0.006531 -0.3689887,0 -0.7379773,0 -1.1298236,0 0,0.34939624 0,0.64328104 0,0.99920804 z" />
  </g>
</svg>
