<?xml version="1.0" encoding="UTF-8" standalone="no"?>
<!-- Created with Inkscape (http://www.inkscape.org/) -->

<svg
   xmlns:dc="http://purl.org/dc/elements/1.1/"
   xmlns:cc="http://creativecommons.org/ns#"
   xmlns:rdf="http://www.w3.org/1999/02/22-rdf-syntax-ns#"
   xmlns:svg="http://www.w3.org/2000/svg"
   xmlns="http://www.w3.org/2000/svg"
   xmlns:sodipodi="http://sodipodi.sourceforge.net/DTD/sodipodi-0.dtd"
   xmlns:inkscape="http://www.inkscape.org/namespaces/inkscape"
   id="svg7384"
   sodipodi:docname="network-workgroup.svg"
   version="1.1"
   inkscape:version="0.92.3 (2405546, 2018-03-11)"
   height="16"
   width="16">
  <metadata
     id="metadata90">
    <rdf:RDF>
      <cc:Work
         rdf:about="">
        <dc:format>image/svg+xml</dc:format>
        <dc:type
           rdf:resource="http://purl.org/dc/dcmitype/StillImage" />
        <dc:title>Gnome Symbolic Icon Theme</dc:title>
      </cc:Work>
    </rdf:RDF>
  </metadata>
  <sodipodi:namedview
     inkscape:cy="10.591021"
     pagecolor="#ffffff"
     borderopacity="1"
     showborder="true"
     inkscape:bbox-paths="false"
     guidetolerance="10"
     inkscape:window-width="1600"
     showguides="true"
     inkscape:object-nodes="true"
     inkscape:snap-bbox="true"
     inkscape:pageshadow="2"
     inkscape:guide-bbox="true"
     inkscape:snap-nodes="true"
     bordercolor="#666666"
     objecttolerance="10"
     id="namedview88"
     showgrid="false"
     inkscape:window-maximized="1"
     inkscape:window-x="0"
     inkscape:snap-global="true"
     inkscape:window-y="28"
     gridtolerance="10"
     inkscape:window-height="846"
     inkscape:snap-to-guides="true"
     inkscape:current-layer="layer13"
     inkscape:zoom="5.656854"
     inkscape:cx="-4.9531222"
     inkscape:snap-grids="true"
     inkscape:pageopacity="1">
    <inkscape:grid
       spacingx="1"
       spacingy="1"
       id="grid4866"
       empspacing="2"
       enabled="true"
       type="xygrid"
       snapvisiblegridlinesonly="true"
       visible="true"
       originx="0"
       originy="0" />
  </sodipodi:namedview>
  <title
     id="title9167">Gnome Symbolic Icon Theme</title>
  <defs
     id="defs7386">
    <style
       type="text/css"
       id="current-color-scheme">.ColorScheme-Text { color:#dedede; }</style>
  </defs>
  <g
     inkscape:label="status"
     transform="translate(-442,-176)"
     inkscape:groupmode="layer"
     id="layer9"
     style="display:inline" />
  <g
     inkscape:label="devices"
     transform="translate(-442,-176)"
     inkscape:groupmode="layer"
     id="layer10" />
  <g
     inkscape:label="apps"
     transform="translate(-442,-176)"
     inkscape:groupmode="layer"
     id="layer11" />
  <g
     inkscape:label="actions"
     transform="translate(-442,-176)"
     inkscape:groupmode="layer"
     id="layer12" />
  <g
     inkscape:label="places"
     transform="translate(-442,-176)"
     inkscape:groupmode="layer"
     id="layer13">
    <g
       id="g948"
       transform="matrix(0.46376812,0,0,0.46376812,236.66666,103.30435)">
      <path
         sodipodi:nodetypes="sssss"
         inkscape:connector-curvature="0"
         style="opacity:0.1;fill:#dedede;fill-opacity:1;stroke:none;stroke-width:0.99999994"
         d="m 460,158.66668 c -8.46836,0 -15.33332,6.86496 -15.33333,15.33332 10e-6,8.46836 6.86497,15.33332 15.33333,15.33332 8.46836,0 15.33332,-6.86496 15.33333,-15.33332 -10e-6,-8.46836 -6.86497,-15.33332 -15.33333,-15.33332 z"
         id="circle4403" />
      <path
         transform="translate(442,156)"
         inkscape:connector-curvature="0"
         id="path4149"
         d="M 15.140625,2.9472656 A 15.333333,15.333333 0 0 0 11.5625,4.1035156 C 9.5282445,6.5699418 8.3125705,9.4207689 7.6953125,12.425781 a 1.9887379,1.9887379 0 0 0 -1.1835937,1.125 C 5.4946337,13.503019 4.4628927,13.400003 3.4238281,13.271484 a 15.333333,15.333333 0 0 0 -0.4433593,1.650391 c 1.2160235,0.155808 2.4270401,0.276996 3.625,0.324219 a 1.9887379,1.9887379 0 0 0 0.6035156,0.679687 c -0.00786,0.08528 -0.018591,0.170197 -0.023437,0.25586 -0.1345689,2.378324 0.024866,4.789352 0.3398437,7.152343 A 1.9887379,1.9887379 0 0 0 7.3515625,23.462891 C 5.7614827,22.611163 4.2546263,21.585063 2.8632812,20.384766 a 15.333333,15.333333 0 0 0 0.6933594,2.710937 C 4.5438429,23.800499 5.5698981,24.436028 6.6289062,25 a 1.9887379,1.9887379 0 0 0 1.4980469,1.921875 c 0.2308327,1.161585 0.4915185,2.28765 0.7617188,3.388672 a 15.333333,15.333333 0 0 0 2.0898441,1.306641 C 10.55057,30.018259 10.13775,28.339009 9.7910156,26.599609 a 1.9887379,1.9887379 0 0 0 0.125,-0.101562 c 2.2251874,0.837723 4.5379564,1.374854 6.8710934,1.640625 a 1.9887379,1.9887379 0 0 0 0.78125,0.892578 c -0.05813,1.404906 -0.02264,2.83724 0.107422,4.287109 A 15.333333,15.333333 0 0 0 18,33.333984 a 15.333333,15.333333 0 0 0 1.394531,-0.07617 c -0.128537,-1.371446 -0.1896,-2.724248 -0.146484,-4.041015 a 1.9887379,1.9887379 0 0 0 1.076172,-0.880859 c 1.547532,-0.01373 3.082559,-0.153655 4.589843,-0.414063 a 1.9887379,1.9887379 0 0 0 1.470704,0.654297 1.9887379,1.9887379 0 0 0 0.380859,-0.03906 c 0.361546,0.392901 0.75014,0.772791 1.126953,1.158203 a 15.333333,15.333333 0 0 0 1.230469,-1.167968 c -0.32815,-0.335757 -0.668737,-0.66839 -0.984375,-1.007818 A 1.9887379,1.9887379 0 0 0 28.296875,27.125 c 0.909107,-0.278313 1.800043,-0.603442 2.667969,-0.972656 a 15.333333,15.333333 0 0 0 1.27539,-2.503906 c -1.333115,0.734415 -2.755254,1.329697 -4.234375,1.792968 a 1.9887379,1.9887379 0 0 0 -1.621093,-0.84375 1.9887379,1.9887379 0 0 0 -0.607422,0.09766 c -1.20821,-1.620115 -2.221927,-3.315529 -2.945313,-5.15039 a 1.9887379,1.9887379 0 0 0 0.722657,-1.53125 1.9887379,1.9887379 0 0 0 -0.423829,-1.228516 c 1.927821,-2.721516 4.600476,-4.967998 8.054688,-6.576172 A 15.333333,15.333333 0 0 0 30.234375,8.7792969 C 26.644313,10.500776 23.844708,12.907571 21.802734,15.798828 21.65952,14.958986 21.591941,14.0755 21.560547,13.169922 a 1.9887379,1.9887379 0 0 0 1.332031,-1.875 1.9887379,1.9887379 0 0 0 -0.002,-0.02734 c 1.935847,-1.178163 3.803001,-2.643927 5.591797,-4.4335936 a 15.333333,15.333333 0 0 0 -1.304688,-1.09375 c -1.618975,1.6075352 -3.292913,2.93693 -5.019531,4.0136718 A 1.9887379,1.9887379 0 0 0 21.732422,9.4902344 C 21.964065,7.6571821 22.40902,5.6918169 23.109375,3.5625 A 15.333333,15.333333 0 0 0 21.480469,3.0839844 C 20.731663,5.371745 20.254231,7.5097045 20.019531,9.515625 a 1.9887379,1.9887379 0 0 0 -1.103515,1.779297 1.9887379,1.9887379 0 0 0 0.0078,0.167969 c -2.793378,1.218305 -5.711211,1.869756 -8.740234,2.064453 A 1.9887379,1.9887379 0 0 0 9.390625,12.605469 c 0.776838,-3.6969954 2.503488,-7.0411288 5.75,-9.6582034 z m 4.621094,9.9746094 a 1.9887379,1.9887379 0 0 0 0.07617,0.05078 c 0.02769,1.246945 0.159467,2.437208 0.380859,3.580078 a 1.9887379,1.9887379 0 0 0 -0.640625,1.460938 1.9887379,1.9887379 0 0 0 0.324219,1.089844 c -0.933069,1.984398 -1.589207,4.119757 -1.966797,6.363281 A 1.9887379,1.9887379 0 0 0 16.849609,26.40625 C 14.72826,26.154991 12.628066,25.660976 10.603516,24.912109 A 1.9887379,1.9887379 0 0 0 9.2089844,23.097656 C 8.9056052,20.820003 8.756132,18.516338 8.8828125,16.277344 c 0.00119,-0.02108 0.00449,-0.04148 0.00586,-0.0625 a 1.9887379,1.9887379 0 0 0 1.2265625,-0.998047 c 3.329859,-0.207456 6.559451,-0.932547 9.646484,-2.294922 z m 1.482422,7.199219 c 0.811402,2.075321 1.939734,3.972104 3.285156,5.753906 a 1.9887379,1.9887379 0 0 0 -0.107422,0.408203 c -1.301493,0.209151 -2.627051,0.31954 -3.962891,0.333985 a 1.9887379,1.9887379 0 0 0 -0.847656,-0.994141 c 0.327367,-1.938467 0.862994,-3.784827 1.632813,-5.501953 z m -20.2226566,0.830078 -0.0410157,0.04297 c 0.0179335,0.01684 0.0367119,0.03205 0.0546875,0.04883 a 17.25,17.25 0 0 1 -0.013672,-0.0918 z"
         style="color:#000000;font-style:normal;font-variant:normal;font-weight:normal;font-stretch:normal;font-size:medium;line-height:normal;font-family:sans-serif;text-indent:0;text-align:start;text-decoration:none;text-decoration-line:none;text-decoration-style:solid;text-decoration-color:#000000;letter-spacing:normal;word-spacing:normal;text-transform:none;writing-mode:lr-tb;direction:ltr;baseline-shift:baseline;text-anchor:start;white-space:normal;clip-rule:nonzero;display:inline;overflow:visible;visibility:visible;opacity:0.55;isolation:auto;mix-blend-mode:normal;color-interpolation:sRGB;color-interpolation-filters:linearRGB;solid-color:#000000;solid-opacity:1;fill:#dedede;fill-opacity:1;fill-rule:nonzero;stroke:none;stroke-width:1.70000005;stroke-linecap:butt;stroke-linejoin:miter;stroke-miterlimit:4;stroke-dasharray:none;stroke-dashoffset:0;stroke-opacity:1;color-rendering:auto;image-rendering:auto;shape-rendering:auto;text-rendering:auto;enable-background:accumulate" />
      <path
         inkscape:connector-curvature="0"
         style="opacity:0.8;fill:#dedede;fill-opacity:1;stroke:none;stroke-width:0.99999994"
         d="M 460,156.75 A 17.25,17.25 0 0 0 442.75,174 17.25,17.25 0 0 0 460,191.25 17.25,17.25 0 0 0 477.25,174 17.25,17.25 0 0 0 460,156.75 Z m 0,1.91668 A 15.333333,15.333333 0 0 1 475.33333,174 15.333333,15.333333 0 0 1 460,189.33332 15.333333,15.333333 0 0 1 444.66667,174 15.333333,15.333333 0 0 1 460,158.66668 Z"
         id="path4401" />
    </g>
  </g>
  <g
     inkscape:label="mimetypes"
     transform="translate(-442,-176)"
     inkscape:groupmode="layer"
     id="layer14" />
  <g
     inkscape:label="emblems"
     transform="translate(-442,-176)"
     inkscape:groupmode="layer"
     id="layer15"
     style="display:inline" />
</svg>
