<?xml version="1.0" encoding="UTF-8" standalone="no"?>
<!-- Created with Inkscape (http://www.inkscape.org/) -->

<svg
   xmlns:osb="http://www.openswatchbook.org/uri/2009/osb"
   xmlns:dc="http://purl.org/dc/elements/1.1/"
   xmlns:cc="http://creativecommons.org/ns#"
   xmlns:rdf="http://www.w3.org/1999/02/22-rdf-syntax-ns#"
   xmlns:svg="http://www.w3.org/2000/svg"
   xmlns="http://www.w3.org/2000/svg"
   xmlns:xlink="http://www.w3.org/1999/xlink"
   xmlns:sodipodi="http://sodipodi.sourceforge.net/DTD/sodipodi-0.dtd"
   xmlns:inkscape="http://www.inkscape.org/namespaces/inkscape"
   width="128"
   height="128"
   viewBox="0 0 33.866666 33.866668"
   version="1.1"
   id="svg8"
   inkscape:version="0.92.2 5c3e80d, 2017-08-06"
   sodipodi:docname="atom.svg">
  <defs
     id="defs2">
    <linearGradient
       inkscape:collect="always"
       id="linearGradient4392">
      <stop
         style="stop-color:#f6f6f6;stop-opacity:1"
         offset="0"
         id="stop4388" />
      <stop
         style="stop-color:#b2b2b2;stop-opacity:1"
         offset="1"
         id="stop4390" />
    </linearGradient>
    <linearGradient
       inkscape:collect="always"
       id="linearGradient4342">
      <stop
         style="stop-color:#f8f8f8;stop-opacity:1"
         offset="0"
         id="stop4338" />
      <stop
         style="stop-color:#d8d8d8;stop-opacity:1"
         offset="1"
         id="stop4340" />
    </linearGradient>
    <linearGradient
       id="linearGradient4861"
       inkscape:collect="always">
      <stop
         id="stop4857"
         offset="0"
         style="stop-color:#09a372;stop-opacity:1" />
      <stop
         id="stop4859"
         offset="1"
         style="stop-color:#a7dc94;stop-opacity:1" />
    </linearGradient>
    <linearGradient
       osb:paint="solid"
       id="linearGradient6987">
      <stop
         id="stop6985"
         offset="0"
         style="stop-color:#77d2fb;stop-opacity:1;" />
    </linearGradient>
    <linearGradient
       inkscape:collect="always"
       xlink:href="#linearGradient4861"
       id="linearGradient1747"
       gradientUnits="userSpaceOnUse"
       gradientTransform="matrix(0.26079937,0,0,0.26079937,79.282137,255.58782)"
       x1="-246.2551"
       y1="148.67415"
       x2="-245.41519"
       y2="61.378811" />
    <linearGradient
       inkscape:collect="always"
       xlink:href="#linearGradient4392"
       id="linearGradient4394"
       x1="118.02655"
       y1="85.481728"
       x2="122.40987"
       y2="206.82208"
       gradientUnits="userSpaceOnUse"
       gradientTransform="matrix(0.25527431,0,0,0.25527431,-14.232874,242.41669)" />
    <linearGradient
       inkscape:collect="always"
       xlink:href="#linearGradient4342"
       id="linearGradient1110"
       x1="12.476757"
       y1="270.46066"
       x2="12.414674"
       y2="288.87363"
       gradientUnits="userSpaceOnUse" />
  </defs>
  <sodipodi:namedview
     id="base"
     pagecolor="#ffffff"
     bordercolor="#666666"
     borderopacity="1.0"
     inkscape:pageopacity="0.0"
     inkscape:pageshadow="2"
     inkscape:zoom="1.979899"
     inkscape:cx="64.720486"
     inkscape:cy="78.98761"
     inkscape:document-units="mm"
     inkscape:current-layer="layer1"
     showgrid="false"
     units="px"
     inkscape:window-width="1600"
     inkscape:window-height="814"
     inkscape:window-x="0"
     inkscape:window-y="0"
     inkscape:window-maximized="1" />
  <metadata
     id="metadata5">
    <rdf:RDF>
      <cc:Work
         rdf:about="">
        <dc:format>image/svg+xml</dc:format>
        <dc:type
           rdf:resource="http://purl.org/dc/dcmitype/StillImage" />
        <dc:title />
      </cc:Work>
    </rdf:RDF>
  </metadata>
  <g
     inkscape:label="Layer 1"
     inkscape:groupmode="layer"
     id="layer1"
     transform="translate(0,-263.13332)">
    <circle
       r="16.56675"
       cy="280.06665"
       cx="16.933334"
       id="circle4865"
       style="opacity:1;fill:url(#linearGradient4394);fill-opacity:1;stroke:#999999;stroke-width:0.1;stroke-miterlimit:4;stroke-dasharray:none;stroke-opacity:1" />
    <circle
       style="opacity:1;fill:url(#linearGradient1747);fill-opacity:1;stroke:none;stroke-width:0.23838352;stroke-miterlimit:4;stroke-dasharray:none;stroke-opacity:1"
       id="path4855"
       cx="16.933334"
       cy="280.06665"
       r="15.287234" />
    <path
       inkscape:connector-curvature="0"
       d="m 12.476757,270.98984 c -0.533038,0.0157 -0.907479,0.18655 -1.300178,0.57826 -0.550495,0.5491 -0.786244,1.24262 -0.82889,2.44016 -0.02511,0.70448 0.01789,1.2862 0.155028,2.09858 0.04903,0.29041 0.08309,0.53445 0.07545,0.54209 -0.0076,0.008 -0.292243,0.0861 -0.6320021,0.17466 -1.613678,0.4207 -2.636195,0.91856 -3.34605,1.62936 -0.334677,0.33512 -0.528736,0.65002 -0.641305,1.03973 -0.09276,0.32112 -0.06307,0.88029 0.06305,1.18649 0.29455,0.71511 0.901568,1.32821 1.877404,1.89653 0.287644,0.16753 0.405776,0.21629 0.558104,0.22892 0.18538,0.0154 0.199337,0.01 0.340032,-0.13074 0.126474,-0.12648 0.146878,-0.16906 0.146762,-0.30696 -1.83e-4,-0.23185 -0.09944,-0.36493 -0.390157,-0.52606 -1.177682,-0.65272 -1.788391,-1.3964 -1.659332,-2.02055 0.166843,-0.80685 1.444172,-1.58273 3.4034121,-2.06757 0.392067,-0.097 0.48238,-0.10907 0.529683,-0.0698 0.03136,0.026 0.05736,0.0693 0.05736,0.0966 0,0.0825 0.32245,1.09584 0.537953,1.68982 l 0.20257,0.5581 -0.311091,0.61392 c -1.313498,2.59196 -1.9886191,5.13018 -1.7838721,6.7076 0.113761,0.87642 0.441968,1.50091 0.9741011,1.85415 0.590034,0.39164 1.31686,0.43806 2.208136,0.14159 0.763622,-0.25401 1.957366,-0.95454 2.100646,-1.233 0.08949,-0.17392 0.06188,-0.35235 -0.07855,-0.50953 -0.08146,-0.0912 -0.137525,-0.11605 -0.290422,-0.13074 -0.186542,-0.0179 -0.196075,-0.0136 -0.644406,0.28009 -1.431153,0.93744 -2.508698,1.10566 -2.991549,0.46715 -0.533873,-0.70598 -0.471387,-2.27544 0.1695,-4.27467 0.289155,-0.90201 1.061694,-2.69615 1.147734,-2.66495 0.01902,0.007 0.255494,0.44913 0.525031,0.98288 0.558297,1.10554 0.95532,1.7959 1.552876,2.7001 1.4942,2.26097 3.163375,3.96509 4.579567,4.67516 0.746562,0.37432 1.333492,0.48897 1.897558,0.37001 0.391051,-0.0825 0.695311,-0.24855 0.976169,-0.53279 1.123114,-1.13666 1.105255,-3.83929 -0.04806,-7.32203 -0.415697,-1.25527 -1.160449,-3.005 -1.359609,-3.19412 -0.252764,-0.24003 -0.665734,-0.13249 -0.794266,0.2067 -0.05535,0.14607 -0.02627,0.2513 0.207222,0.74724 1.132702,2.40594 1.802246,4.7714 1.867069,6.59805 0.05988,1.68734 -0.37678,2.59984 -1.243851,2.59984 -1.749205,0 -4.555516,-2.96381 -6.634736,-7.00784 -0.418944,-0.81483 -0.915125,-1.91143 -0.907955,-2.00659 0.01045,-0.13879 1.078251,-1.81666 1.633492,-2.56677 l 0.210323,-0.28371 h 0.849561 c 4.116618,1.8e-4 8.350231,1.13225 9.843325,2.6324 0.449575,0.45169 0.610733,0.86249 0.495062,1.26039 -0.140515,0.48335 -0.642977,0.92725 -1.548744,1.36839 -0.322228,0.15693 -0.588973,0.31131 -0.631486,0.36535 -0.167486,0.21293 -0.113334,0.53022 0.114723,0.67335 0.207635,0.13034 0.41234,0.0882 1.021125,-0.21032 1.129591,-0.55381 1.767785,-1.18355 1.994194,-1.96733 0.09184,-0.31794 0.06161,-0.87425 -0.0646,-1.18442 -0.159097,-0.39102 -0.325946,-0.63289 -0.687814,-0.99787 -1.58311,-1.59677 -5.551474,-2.788 -9.737389,-2.92282 -0.52216,-0.0168 -0.752252,-0.0371 -0.762227,-0.0672 -0.03972,-0.1198 1.572405,-1.75897 2.315104,-2.35386 0.89594,-0.71764 1.789023,-1.23294 2.413804,-1.39268 0.346358,-0.0886 0.751414,-0.0952 0.982369,-0.0165 0.347255,0.11832 0.601414,0.50467 0.711068,1.08159 0.06988,0.36765 0.05074,1.20955 -0.03979,1.74408 -0.05236,0.30912 -0.05265,0.3506 0.0021,0.48576 0.146828,0.36706 0.630629,0.42747 0.864544,0.108 0.16346,-0.22324 0.29223,-1.59056 0.213424,-2.26653 -0.08513,-0.73024 -0.308488,-1.25941 -0.69763,-1.65106 -0.440999,-0.44379 -0.882314,-0.60316 -1.593186,-0.57516 -0.497178,0.0196 -0.865253,0.11245 -1.43247,0.3607 -1.401124,0.6132 -3.275091,2.22539 -4.775935,4.1088 -0.170434,0.21388 -0.342641,0.39745 -0.382924,0.40772 -0.04028,0.0103 -0.329115,0.0362 -0.641305,0.0574 -0.535432,0.0363 -1.325639,0.11701 -1.647444,0.16847 -0.182279,0.0292 -0.18647,0.0195 -0.300241,-0.68781 -0.07122,-0.44304 -0.0844,-0.66147 -0.08423,-1.40354 1.83e-4,-0.78741 0.0088,-0.91234 0.08165,-1.19889 0.138729,-0.54526 0.374044,-0.9189 0.678511,-1.07694 0.175503,-0.0911 0.584353,-0.10625 0.869198,-0.032 0.44396,0.11564 0.955535,0.39198 1.528588,0.82579 0.356801,0.2701 0.55826,0.2839 0.807704,0.0553 0.128307,-0.11759 0.135393,-0.13595 0.135393,-0.35037 0,-0.22532 -5.29e-4,-0.22731 -0.185002,-0.39687 -0.253011,-0.23264 -0.844114,-0.62344 -1.24282,-0.82166 -0.510352,-0.25373 -0.886266,-0.3613 -1.337386,-0.3824 -0.08312,-0.004 -0.162597,-0.005 -0.238744,-0.003 z m 12.504147,1.42524 c -0.0208,0.003 -0.04148,0.0116 -0.06201,0.0243 0.04752,0.004 0.09377,0.0127 0.137459,0.03 2.65e-4,-0.002 7.94e-4,-0.003 0.0011,-0.005 -0.02471,-0.0177 -0.05123,-0.0323 -0.07648,-0.0491 z m -11.793079,4.91184 c 0.04965,0.003 0.07752,0.01 0.07752,0.0207 0,0.0218 -0.0865,0.16087 -0.192236,0.30903 -0.105743,0.14815 -0.316095,0.46963 -0.467156,0.71468 -0.258268,0.41896 -0.34585,0.51093 -0.384472,0.40256 -0.07295,-0.20469 -0.384381,-1.22702 -0.384474,-1.26245 -1.45e-4,-0.0514 0.05041,-0.064 0.457854,-0.11679 0.396761,-0.0514 0.744019,-0.0766 0.892969,-0.0677 z m 3.170348,2.00815 c -0.261776,0.0141 -0.524531,0.1138 -0.745691,0.31264 -0.682535,0.61366 -0.452757,1.70715 0.428398,2.03864 0.243766,0.0917 0.624596,0.068 0.894003,-0.0553 0.500105,-0.22896 0.778946,-0.76208 0.683162,-1.30586 -0.11272,-0.63993 -0.683964,-1.02123 -1.259872,-0.99012 z"
       style="fill:#000000;fill-opacity:1;stroke-width:1;opacity:0.25"
       id="path1112" />
    <path
       id="path967"
       style="fill:url(#linearGradient1110);stroke-width:1;fill-opacity:1"
       d="m 12.476757,270.46067 c -0.533038,0.0157 -0.907479,0.18655 -1.300178,0.57826 -0.550495,0.5491 -0.786244,1.24262 -0.82889,2.44016 -0.02511,0.70448 0.01789,1.2862 0.155028,2.09858 0.04903,0.29041 0.08309,0.53445 0.07545,0.54209 -0.0076,0.008 -0.292243,0.0861 -0.6320021,0.17466 -1.613678,0.4207 -2.636195,0.91856 -3.34605,1.62936 -0.334677,0.33512 -0.528736,0.65002 -0.641305,1.03973 -0.09276,0.32112 -0.06307,0.88029 0.06305,1.18649 0.29455,0.71511 0.901568,1.32821 1.877404,1.89653 0.287644,0.16753 0.405776,0.21629 0.558104,0.22892 0.18538,0.0154 0.199337,0.01 0.340032,-0.13074 0.126474,-0.12648 0.146878,-0.16906 0.146762,-0.30696 -1.83e-4,-0.23185 -0.09944,-0.36493 -0.390157,-0.52606 -1.177682,-0.65272 -1.788391,-1.3964 -1.659332,-2.02055 0.166843,-0.80685 1.444172,-1.58273 3.4034121,-2.06757 0.392067,-0.097 0.48238,-0.10907 0.529683,-0.0698 0.03136,0.026 0.05736,0.0693 0.05736,0.0966 0,0.0825 0.32245,1.09584 0.537953,1.68982 l 0.20257,0.5581 -0.311091,0.61392 c -1.313498,2.59196 -1.9886191,5.13018 -1.7838721,6.7076 0.113761,0.87642 0.441968,1.50091 0.9741011,1.85415 0.590034,0.39164 1.31686,0.43806 2.208136,0.14159 0.763622,-0.25401 1.957366,-0.95454 2.100646,-1.233 0.08949,-0.17392 0.06188,-0.35235 -0.07855,-0.50953 -0.08146,-0.0912 -0.137525,-0.11605 -0.290422,-0.13074 -0.186542,-0.0179 -0.196075,-0.0136 -0.644406,0.28009 -1.431153,0.93744 -2.508698,1.10566 -2.991549,0.46715 -0.533873,-0.70598 -0.471387,-2.27544 0.1695,-4.27467 0.289155,-0.90201 1.061694,-2.69615 1.147734,-2.66495 0.01902,0.007 0.255494,0.44913 0.525031,0.98288 0.558297,1.10554 0.95532,1.7959 1.552876,2.7001 1.4942,2.26097 3.163375,3.96509 4.579567,4.67516 0.746562,0.37432 1.333492,0.48897 1.897558,0.37001 0.391051,-0.0825 0.695311,-0.24855 0.976169,-0.53279 1.123114,-1.13666 1.105255,-3.83929 -0.04806,-7.32203 -0.415697,-1.25527 -1.160449,-3.005 -1.359609,-3.19412 -0.252764,-0.24003 -0.665734,-0.13249 -0.794266,0.2067 -0.05535,0.14607 -0.02627,0.2513 0.207222,0.74724 1.132702,2.40594 1.802246,4.7714 1.867069,6.59805 0.05988,1.68734 -0.37678,2.59984 -1.243851,2.59984 -1.749205,0 -4.555516,-2.96381 -6.634736,-7.00784 -0.418944,-0.81483 -0.915125,-1.91143 -0.907955,-2.00659 0.01045,-0.13879 1.078251,-1.81666 1.633492,-2.56677 l 0.210323,-0.28371 h 0.849561 c 4.116618,1.8e-4 8.350231,1.13225 9.843325,2.6324 0.449575,0.45169 0.610733,0.86249 0.495062,1.26039 -0.140515,0.48335 -0.642977,0.92725 -1.548744,1.36839 -0.322228,0.15693 -0.588973,0.31131 -0.631486,0.36535 -0.167486,0.21293 -0.113334,0.53022 0.114723,0.67335 0.207635,0.13034 0.41234,0.0882 1.021125,-0.21032 1.129591,-0.55381 1.767785,-1.18355 1.994194,-1.96733 0.09184,-0.31794 0.06161,-0.87425 -0.0646,-1.18442 -0.159097,-0.39102 -0.325946,-0.63289 -0.687814,-0.99787 -1.58311,-1.59677 -5.551474,-2.788 -9.737389,-2.92282 -0.52216,-0.0168 -0.752252,-0.0371 -0.762227,-0.0672 -0.03972,-0.1198 1.572405,-1.75897 2.315104,-2.35386 0.89594,-0.71764 1.789023,-1.23294 2.413804,-1.39268 0.346358,-0.0886 0.751414,-0.0952 0.982369,-0.0165 0.347255,0.11832 0.601414,0.50467 0.711068,1.08159 0.06988,0.36765 0.05074,1.20955 -0.03979,1.74408 -0.05236,0.30912 -0.05265,0.3506 0.0021,0.48576 0.146828,0.36706 0.630629,0.42747 0.864544,0.108 0.16346,-0.22324 0.29223,-1.59056 0.213424,-2.26653 -0.08513,-0.73024 -0.308488,-1.25941 -0.69763,-1.65106 -0.440999,-0.44379 -0.882314,-0.60316 -1.593186,-0.57516 -0.497178,0.0196 -0.865253,0.11245 -1.43247,0.3607 -1.401124,0.6132 -3.275091,2.22539 -4.775935,4.1088 -0.170434,0.21388 -0.342641,0.39745 -0.382924,0.40772 -0.04028,0.0103 -0.329115,0.0362 -0.641305,0.0574 -0.535432,0.0363 -1.325639,0.11701 -1.647444,0.16847 -0.182279,0.0292 -0.18647,0.0195 -0.300241,-0.68781 -0.07122,-0.44304 -0.0844,-0.66147 -0.08423,-1.40354 1.83e-4,-0.78741 0.0088,-0.91234 0.08165,-1.19889 0.138729,-0.54526 0.374044,-0.9189 0.678511,-1.07694 0.175503,-0.0911 0.584353,-0.10625 0.869198,-0.032 0.44396,0.11564 0.955535,0.39198 1.528588,0.82579 0.356801,0.2701 0.55826,0.2839 0.807704,0.0553 0.128307,-0.11759 0.135393,-0.13595 0.135393,-0.35037 0,-0.22532 -5.29e-4,-0.22731 -0.185002,-0.39687 -0.253011,-0.23264 -0.844114,-0.62344 -1.24282,-0.82166 -0.510352,-0.25373 -0.886266,-0.3613 -1.337386,-0.3824 -0.08312,-0.004 -0.162597,-0.005 -0.238744,-0.003 z m 12.504147,1.42524 c -0.0208,0.003 -0.04148,0.0116 -0.06201,0.0243 0.04752,0.004 0.09377,0.0127 0.137459,0.03 2.65e-4,-0.002 7.94e-4,-0.003 0.0011,-0.005 -0.02471,-0.0177 -0.05123,-0.0323 -0.07648,-0.0491 z m -11.793079,4.91184 c 0.04965,0.003 0.07752,0.01 0.07752,0.0207 0,0.0218 -0.0865,0.16087 -0.192236,0.30903 -0.105743,0.14815 -0.316095,0.46963 -0.467156,0.71468 -0.258268,0.41896 -0.34585,0.51093 -0.384472,0.40256 -0.07295,-0.20469 -0.384381,-1.22702 -0.384474,-1.26245 -1.45e-4,-0.0514 0.05041,-0.064 0.457854,-0.11679 0.396761,-0.0514 0.744019,-0.0766 0.892969,-0.0677 z m 3.170348,2.00815 c -0.261776,0.0141 -0.524531,0.1138 -0.745691,0.31264 -0.682535,0.61366 -0.452757,1.70715 0.428398,2.03864 0.243766,0.0917 0.624596,0.068 0.894003,-0.0553 0.500105,-0.22896 0.778946,-0.76208 0.683162,-1.30586 -0.11272,-0.63993 -0.683964,-1.02123 -1.259872,-0.99012 z"
       inkscape:connector-curvature="0" />
  </g>
</svg>
