<?xml version="1.0" encoding="UTF-8" standalone="no"?>
<!-- Created with Inkscape (http://www.inkscape.org/) -->

<svg
   xmlns:osb="http://www.openswatchbook.org/uri/2009/osb"
   xmlns:dc="http://purl.org/dc/elements/1.1/"
   xmlns:cc="http://creativecommons.org/ns#"
   xmlns:rdf="http://www.w3.org/1999/02/22-rdf-syntax-ns#"
   xmlns:svg="http://www.w3.org/2000/svg"
   xmlns="http://www.w3.org/2000/svg"
   xmlns:xlink="http://www.w3.org/1999/xlink"
   xmlns:sodipodi="http://sodipodi.sourceforge.net/DTD/sodipodi-0.dtd"
   xmlns:inkscape="http://www.inkscape.org/namespaces/inkscape"
   width="128"
   height="128"
   viewBox="0 0 33.866666 33.866668"
   version="1.1"
   id="svg8"
   inkscape:version="0.92.2 5c3e80d, 2017-08-06"
   sodipodi:docname="beatbox.svg">
  <defs
     id="defs2">
    <linearGradient
       inkscape:collect="always"
       id="linearGradient959">
      <stop
         style="stop-color:#eaeded;stop-opacity:1"
         offset="0"
         id="stop955" />
      <stop
         style="stop-color:#afaeb0;stop-opacity:1"
         offset="1"
         id="stop957" />
    </linearGradient>
    <linearGradient
       inkscape:collect="always"
       id="linearGradient3580">
      <stop
         style="stop-color:#fd7e00;stop-opacity:1"
         offset="0"
         id="stop3576" />
      <stop
         style="stop-color:#e33530;stop-opacity:1"
         offset="1"
         id="stop3578" />
    </linearGradient>
    <linearGradient
       osb:paint="solid"
       id="linearGradient6987">
      <stop
         id="stop6985"
         offset="0"
         style="stop-color:#77d2fb;stop-opacity:1;" />
    </linearGradient>
    <linearGradient
       inkscape:collect="always"
       xlink:href="#linearGradient3580"
       id="linearGradient3582"
       x1="63.91666"
       y1="66.022942"
       x2="74.183769"
       y2="83.525063"
       gradientUnits="userSpaceOnUse"
       gradientTransform="matrix(1.1090981,0,0,1.1090981,-57.567137,198.56325)" />
    <linearGradient
       inkscape:collect="always"
       xlink:href="#linearGradient959"
       id="linearGradient961"
       x1="50.179356"
       y1="91.685593"
       x2="50.878483"
       y2="117.30058"
       gradientUnits="userSpaceOnUse"
       gradientTransform="matrix(1.1090981,0,0,1.1090981,-39.77355,163.30806)" />
    <linearGradient
       id="linearGradient2831"
       inkscape:collect="always">
      <stop
         id="stop2827"
         offset="0"
         style="stop-color:#f6f6f6;stop-opacity:1" />
      <stop
         id="stop2829"
         offset="1"
         style="stop-color:#d2d2d2;stop-opacity:1" />
    </linearGradient>
    <linearGradient
       inkscape:collect="always"
       xlink:href="#linearGradient2831"
       id="linearGradient1364"
       x1="16.310616"
       y1="271.92776"
       x2="19.971811"
       y2="287.90512"
       gradientUnits="userSpaceOnUse" />
  </defs>
  <sodipodi:namedview
     id="base"
     pagecolor="#ffffff"
     bordercolor="#666666"
     borderopacity="1.0"
     inkscape:pageopacity="0.0"
     inkscape:pageshadow="2"
     inkscape:zoom="0.64000001"
     inkscape:cx="171.41624"
     inkscape:cy="71.458417"
     inkscape:document-units="mm"
     inkscape:current-layer="layer1"
     showgrid="false"
     inkscape:window-width="1600"
     inkscape:window-height="814"
     inkscape:window-x="0"
     inkscape:window-y="0"
     inkscape:window-maximized="1"
     units="px" />
  <metadata
     id="metadata5">
    <rdf:RDF>
      <cc:Work
         rdf:about="">
        <dc:format>image/svg+xml</dc:format>
        <dc:type
           rdf:resource="http://purl.org/dc/dcmitype/StillImage" />
        <dc:title />
      </cc:Work>
    </rdf:RDF>
  </metadata>
  <g
     inkscape:label="Layer 1"
     inkscape:groupmode="layer"
     id="layer1"
     transform="translate(0,-263.13332)">
    <circle
       r="16.61875"
       cy="280.06665"
       cx="16.933334"
       id="circle3590"
       style="opacity:1;fill:url(#linearGradient961);fill-opacity:1;fill-rule:nonzero;stroke:#999999;stroke-width:0.1;stroke-linecap:round;stroke-miterlimit:4;stroke-dasharray:0.025, 0.025;stroke-dashoffset:0;stroke-opacity:1" />
    <circle
       r="15.138472"
       cy="280.06665"
       cx="16.933332"
       id="circle2071"
       style="opacity:1;fill:url(#linearGradient3582);fill-opacity:1;stroke:none;stroke-width:1;stroke-linecap:round;stroke-miterlimit:4;stroke-dasharray:0.25000001, 0.25000000999999999;stroke-dashoffset:0;stroke-opacity:1" />
    <path
       sodipodi:nodetypes="ccscccssscccssccccccc"
       inkscape:connector-curvature="0"
       id="path1366"
       d="m 10.330231,290.69923 c 0,0 1.618881,0.0241 2.722661,-1.03849 1.103782,-1.06263 0.796925,-2.23348 0.829909,-3.39798 0.05291,-1.86805 -0.111215,-9.03195 -0.111215,-9.03195 0,0 -0.0067,-0.70722 0.713324,-0.8508 0.855798,-0.1729 8.354847,-1.62029 8.354847,-1.62029 0,0 0.515097,-0.12076 0.515097,0.36226 0,0.48301 0.145137,6.65842 -0.04906,7.60749 -0.06459,0.31567 -0.464442,0.51536 -0.78491,0.57962 -1.003004,0.20111 -2.101243,0.17915 -3.188703,0.96603 -1.459948,1.2272 -0.874055,3.38937 0.639631,4.15916 1.851406,0.68503 4.236342,-0.27694 4.511351,-2.2754 0.122643,-0.60377 0.226235,-10.67886 0.07359,-15.93951 -0.0075,-0.25662 -0.171699,-0.55547 -0.588682,-0.50717 -0.416985,0.0483 -10.64536,2.07697 -10.64536,2.07697 0,0 -0.613212,0.16906 -0.662269,0.72453 -0.04906,0.55546 -0.128519,12.18116 -0.128519,12.18116 0,0 0.05495,0.59459 -0.729976,0.7395 -0.784911,0.1449 -2.1840485,0.17185 -3.1887006,0.99018 -1.8974594,1.80111 -0.6582464,4.33027 1.7169896,4.27469 z"
       style="fill:#000000;fill-opacity:1;stroke:none;stroke-width:0.22749858px;stroke-linecap:butt;stroke-linejoin:miter;stroke-opacity:1;opacity:0.25" />
    <path
       style="fill:url(#linearGradient1364);fill-opacity:1;stroke:none;stroke-width:0.22749858px;stroke-linecap:butt;stroke-linejoin:miter;stroke-opacity:1"
       d="m 10.330231,290.17006 c 0,0 1.618881,0.0241 2.722661,-1.03849 1.103782,-1.06263 0.796925,-2.23348 0.829909,-3.39798 0.05291,-1.86805 -0.111215,-9.03195 -0.111215,-9.03195 0,0 -0.0067,-0.70722 0.713324,-0.8508 0.855798,-0.1729 8.354847,-1.62029 8.354847,-1.62029 0,0 0.515097,-0.12076 0.515097,0.36226 0,0.48301 0.145137,6.65842 -0.04906,7.60749 -0.06459,0.31567 -0.464442,0.51536 -0.78491,0.57962 -1.003004,0.20111 -2.101243,0.17915 -3.188703,0.96603 -1.459948,1.2272 -0.874055,3.38937 0.639631,4.15916 1.851406,0.68503 4.236342,-0.27694 4.511351,-2.2754 0.122643,-0.60377 0.226235,-10.67886 0.07359,-15.93951 -0.0075,-0.25662 -0.171699,-0.55547 -0.588682,-0.50717 -0.416985,0.0483 -10.64536,2.07697 -10.64536,2.07697 0,0 -0.613212,0.16906 -0.662269,0.72453 -0.04906,0.55546 -0.128519,12.18116 -0.128519,12.18116 0,0 0.05495,0.59459 -0.729976,0.7395 -0.784911,0.1449 -2.1840485,0.17185 -3.1887006,0.99018 -1.8974594,1.80111 -0.6582464,4.33027 1.7169896,4.27469 z"
       id="path4534"
       inkscape:connector-curvature="0"
       sodipodi:nodetypes="ccscccssscccssccccccc" />
  </g>
</svg>
