<?xml version="1.0" encoding="UTF-8" standalone="no"?>
<!-- Created with Inkscape (http://www.inkscape.org/) -->

<svg
   xmlns:osb="http://www.openswatchbook.org/uri/2009/osb"
   xmlns:dc="http://purl.org/dc/elements/1.1/"
   xmlns:cc="http://creativecommons.org/ns#"
   xmlns:rdf="http://www.w3.org/1999/02/22-rdf-syntax-ns#"
   xmlns:svg="http://www.w3.org/2000/svg"
   xmlns="http://www.w3.org/2000/svg"
   xmlns:xlink="http://www.w3.org/1999/xlink"
   xmlns:sodipodi="http://sodipodi.sourceforge.net/DTD/sodipodi-0.dtd"
   xmlns:inkscape="http://www.inkscape.org/namespaces/inkscape"
   width="128"
   height="128"
   viewBox="0 0 33.866666 33.866668"
   version="1.1"
   id="svg8"
   inkscape:version="0.92.2 5c3e80d, 2017-08-06"
   sodipodi:docname="folder copy.svg">
  <defs
     id="defs2">
    <linearGradient
       inkscape:collect="always"
       xlink:href="#linearGradient7009"
       id="linearGradient7011"
       x1="123.07384"
       y1="84.320671"
       x2="124.11147"
       y2="132.42918"
       gradientUnits="userSpaceOnUse"
       gradientTransform="matrix(0.25255681,0,0,0.25768595,-15.968322,248.84654)" />
    <linearGradient
       inkscape:collect="always"
       id="linearGradient7009">
      <stop
         style="stop-color:#63c4f2;stop-opacity:1"
         offset="0"
         id="stop7005" />
      <stop
         style="stop-color:#7cd4fa;stop-opacity:1"
         offset="1"
         id="stop7007" />
    </linearGradient>
    <linearGradient
       inkscape:collect="always"
       id="linearGradient4675">
      <stop
         style="stop-color:#4fb3e3;stop-opacity:1"
         offset="0"
         id="stop4671" />
      <stop
         style="stop-color:#5cc0ed;stop-opacity:1"
         offset="1"
         id="stop4673" />
    </linearGradient>
    <linearGradient
       osb:paint="solid"
       id="linearGradient6088">
      <stop
         id="stop6086"
         offset="0"
         style="stop-color:#51b3e3;stop-opacity:1;" />
    </linearGradient>
    <linearGradient
       osb:paint="solid"
       id="linearGradient6987">
      <stop
         id="stop6985"
         offset="0"
         style="stop-color:#77d2fb;stop-opacity:1;" />
    </linearGradient>
    <linearGradient
       gradientTransform="matrix(0.06812537,0,0,0.06812537,-87.566695,266.70672)"
       gradientUnits="userSpaceOnUse"
       y2="331.74103"
       x2="1528.7832"
       y1="115.09379"
       x1="1535.6074"
       id="linearGradient4669"
       xlink:href="#linearGradient4675"
       inkscape:collect="always" />
  </defs>
  <sodipodi:namedview
     id="base"
     pagecolor="#ffffff"
     bordercolor="#666666"
     borderopacity="1.0"
     inkscape:pageopacity="0.0"
     inkscape:pageshadow="2"
     inkscape:zoom="0.90509668"
     inkscape:cx="-259.67605"
     inkscape:cy="-75.95549"
     inkscape:document-units="mm"
     inkscape:current-layer="layer1"
     showgrid="false"
     inkscape:window-width="1600"
     inkscape:window-height="814"
     inkscape:window-x="0"
     inkscape:window-y="0"
     inkscape:window-maximized="1"
     units="px" />
  <metadata
     id="metadata5">
    <rdf:RDF>
      <cc:Work
         rdf:about="">
        <dc:format>image/svg+xml</dc:format>
        <dc:type
           rdf:resource="http://purl.org/dc/dcmitype/StillImage" />
        <dc:title />
      </cc:Work>
    </rdf:RDF>
  </metadata>
  <g
     inkscape:label="Layer 1"
     inkscape:groupmode="layer"
     id="layer1"
     transform="translate(0,-263.13331)">
    <path
       id="path3726"
       style="opacity:0.25;fill:#000000;fill-opacity:1;stroke-width:0.07295433"
       d="m 1.839255,271.34745 c -0.87238339,0 -1.57463018,0.71666 -1.57463018,1.60675 v 7.47097 11.72207 0.72653 c 0,0.4876 0.38465877,0.88009 0.86255748,0.88009 h 0.7120727 30.188153 0.712078 c 0.477897,0 0.862556,-0.39249 0.862556,-0.88009 v -0.72653 -11.72207 -7.47097 c 0,-0.89009 -0.702246,-1.60675 -1.574634,-1.60675 z m 0.3993405,-4.42484 c -1.0935623,0 -1.97401229,0.89107 -1.97401229,1.998 v 2.39332 2.43155 8.27983 c 0,0.92145 0.73293882,1.66319 1.64324119,1.66319 H 31.95898 c 0.910304,0 1.643103,-0.74174 1.643103,-1.66319 v -10.71138 c 0,-0.92143 -0.732793,-1.66317 -1.643103,-1.66317 l -19.749002,-8e-5 c -0.975266,-0.0917 -1.017482,-2.4232 -2.7327582,-2.72807 z"
       inkscape:connector-curvature="0" />
    <path
       inkscape:connector-curvature="0"
       d="m 1.839255,270.80428 c -0.87238339,0 -1.57463018,0.71663 -1.57463018,1.60674 v 7.47098 11.72205 0.72655 c 0,0.4876 0.38465877,0.88007 0.86255748,0.88007 h 0.7120727 30.188153 0.712078 c 0.477897,0 0.862556,-0.39247 0.862556,-0.88007 v -0.72655 -11.72205 -7.47098 c 0,-0.89011 -0.702246,-1.60674 -1.574634,-1.60674 z m 0.3993405,-4.42484 c -1.0935623,0 -1.97401229,0.89105 -1.97401229,1.99798 v 2.39332 2.43157 8.27983 c 0,0.92142 0.73293882,1.66316 1.64324119,1.66316 H 31.95898 c 0.910304,0 1.643103,-0.74174 1.643103,-1.66316 v -10.7114 c 0,-0.92141 -0.732793,-1.66317 -1.643103,-1.66317 l -19.749002,-8e-5 c -0.975266,-0.0915 -1.017482,-2.42318 -2.7327582,-2.72805 z"
       style="fill:#97ddff;fill-opacity:1;stroke-width:0.07295433"
       id="path7028" />
    <path
       inkscape:connector-curvature="0"
       id="rect5176"
       d="m 1.8392858,270.80428 c -0.87238343,0 -1.57463021,0.71663 -1.57463021,1.60674 v 7.47098 11.72205 0.72655 c 0,0.4876 0.38465878,0.88007 0.86255751,0.88007 h 0.7120727 30.1881532 0.712076 c 0.4779,0 0.862556,-0.39247 0.862556,-0.88007 v -0.72655 -11.72205 -7.47098 c 0,-0.89011 -0.702244,-1.60674 -1.574632,-1.60674 z"
       style="fill:url(#linearGradient7011);fill-opacity:1;stroke-width:0.07295433" />
    <rect
       style="fill:#5ebae5;fill-opacity:1;stroke:none;stroke-width:0.14778438;stroke-linecap:round;stroke-linejoin:round;stroke-miterlimit:4;stroke-dasharray:none;stroke-opacity:1"
       id="rect5180"
       width="30.427078"
       height="0.26995665"
       x="1.7198211"
       y="291.00845"
       ry="0.13497832" />
    <rect
       ry="0.13497832"
       y="291.84982"
       x="1.7198211"
       height="0.26995665"
       width="30.427078"
       id="rect5182"
       style="fill:#5ebae5;fill-opacity:1;stroke:none;stroke-width:0.14778438;stroke-linecap:round;stroke-linejoin:round;stroke-miterlimit:4;stroke-dasharray:none;stroke-opacity:1" />
    <path
       style="fill:#90d3f2;fill-opacity:1;stroke-width:0.07295433"
       d="m 2.2390733,266.37944 c -1.0935605,0 -1.97438151,0.89084 -1.97438151,1.99777 v 0.36196 c 0,-1.10693 0.88081921,-1.99777 1.97438151,-1.99777 h 7.238172 c 1.7152727,0.30487 1.7576317,2.63664 2.7329017,2.72822 h 19.748535 c 0.91031,0 1.643295,0.74153 1.643295,1.66293 v -0.36196 c 0,-0.92141 -0.732985,-1.66292 -1.643295,-1.66292 H 12.210147 c -0.97527,-0.0915 -1.017629,-2.42336 -2.7329017,-2.72823 z"
       id="path3721"
       inkscape:connector-curvature="0" />
    <path
       id="path5248"
       style="fill:url(#linearGradient4669);fill-opacity:1;stroke-width:0.03569827"
       d="m 17.047125,274.54753 c -0.12439,0.002 -0.25758,0.0323 -0.3848,0.0915 -0.3441,0.16019 -0.67561,0.40385 -0.7712,0.56696 -0.15377,0.26239 -0.11815,0.49131 0.1445,0.93113 0.0821,0.13744 0.40571,0.69165 0.71931,1.23158 0.48223,0.83028 1.27594,2.19419 3.46375,5.95259 v 1.4e-4 c 0.19617,0.33699 0.35991,0.57999 0.39066,0.57999 0.0291,0 0.20835,-0.0899 0.39837,-0.19985 0.19001,-0.10993 0.54225,-0.31266 0.78278,-0.45053 0.2518,-0.14433 0.43736,-0.27324 0.43736,-0.3039 0,-0.0448 -0.63116,-1.20438 -0.71439,-1.31248 -0.0151,-0.0197 -0.0987,-0.16426 -0.18588,-0.32133 -0.14039,-0.2531 -1.78352,-3.12278 -2.10536,-3.67691 -0.0684,-0.11781 -0.27394,-0.47931 -0.45666,-0.80327 -0.18272,-0.32396 -0.41624,-0.73354 -0.51893,-0.91025 -0.10268,-0.1767 -0.28009,-0.48198 -0.39424,-0.67832 -0.26363,-0.45344 -0.313,-0.51759 -0.47329,-0.61552 -0.0919,-0.0562 -0.20759,-0.0833 -0.33198,-0.0816 z m -1.65496,2.58238 c -0.15648,-0.007 -0.34473,0.065 -0.48167,0.18867 -0.11703,0.10573 -0.46042,0.65738 -0.69629,1.11848 -0.0755,0.14755 -0.094,0.1294 0.42765,0.421 0.19633,0.10974 0.52565,0.30038 0.73181,0.42365 0.20616,0.12327 0.40806,0.22518 0.44854,0.22646 0.0558,0.002 0.11415,-0.0688 0.24136,-0.29206 0.0923,-0.16198 0.22906,-0.39941 0.30391,-0.52757 0.15825,-0.27098 0.21994,-0.43285 0.21994,-0.57667 0,-0.13136 -0.0885,-0.34405 -0.18681,-0.44867 -0.0999,-0.10634 -0.79815,-0.49512 -0.94351,-0.52531 -0.0208,-0.004 -0.0426,-0.007 -0.0649,-0.008 z m -1.3492,1.68943 c -0.0108,-0.001 -0.0187,5.1e-4 -0.024,0.004 -0.0451,0.0285 -1.29791,2.16724 -1.53188,2.61524 -0.0814,0.15584 -0.75519,1.34119 -0.91318,1.6064 -0.54898,0.92159 -1.5930999,2.79802 -1.5783299,2.83652 0.0102,0.0265 0.1360099,0.11111 0.2796899,0.18801 0.14369,0.0769 0.50224,0.27886 0.79675,0.4488 0.29451,0.16994 0.53928,0.30938 0.54394,0.30989 0.0118,0.001 0.1794,-0.26496 0.31401,-0.49896 0.0621,-0.10799 0.26234,-0.45333 0.44495,-0.76748 0.18261,-0.31414 0.48516,-0.8363 0.67233,-1.16026 0.34539,-0.59777 0.55308,-0.95584 1.14949,-1.98122 0.18272,-0.31415 0.43893,-0.75591 0.56935,-0.9817 0.13042,-0.22579 0.39382,-0.6803 0.58532,-1.01004 0.19149,-0.32973 0.34308,-0.62632 0.33677,-0.65903 -0.007,-0.0348 -0.3443,-0.25083 -0.81271,-0.52026 -0.5343,-0.30731 -0.75697,-0.42325 -0.83254,-0.42964 z m -3.91575,3.17489 c -0.8954799,-0.002 -1.8102699,-0.009 -1.8395899,0.0204 -0.017,0.017 -0.005,0.41801 0,0.90753 l -7e-5,0.8902 h 0.4999 c 0.27488,0.01 0.84511,7.8e-4 1.2672399,0 h 0.76748 l 0.10711,-0.13453 c 0.0589,-0.0922 0.24359,-0.4028 0.41048,-0.69017 0.16689,-0.28739 0.36373,-0.61755 0.43736,-0.73368 0.0736,-0.11614 0.13385,-0.22038 0.13385,-0.23935 -0.67176,-0.0142 -1.24892,-0.004 -1.78376,-0.0204 z m 13.65009,0.0204 c -0.86889,-0.001 -1.73538,-0.0159 -1.7513,0 -0.03,0.03 -0.0373,-0.0133 0.53436,0.97651 l 0.47421,0.8211 0.28381,1.2e-4 c 0.3667,0.0231 2.18891,0.0266 2.23204,0 0.0498,-0.0308 0.0501,-1.76681 6e-5,-1.79773 -0.66301,-0.0233 -1.21727,7.7e-4 -1.77318,0 z m -6.83157,0 c -1.79497,-0.002 -2.19494,-0.0397 -2.23243,0 -0.0424,0.0449 -0.22131,0.35766 -0.7905,1.3826 -0.12388,0.22309 -0.21912,0.40246 -0.21182,0.41513 0.014,0.0226 6.44714,0.0358 6.46978,0.0131 0.007,-0.007 -0.15872,-0.31525 -0.36777,-0.67682 -0.20905,-0.36157 -0.44258,-0.76898 -0.51893,-0.90546 -0.0763,-0.13647 -0.14396,-0.22234 -0.15022,-0.22859 -0.006,-0.006 -0.99537,0.002 -2.19811,0 z m 5.43234,1.20856 c -0.0278,0 -0.32595,0.1585 -0.66263,0.35221 -0.8284,0.47662 -0.94746,0.5502 -0.96533,0.59676 -0.008,0.022 0.0779,0.19898 0.19187,0.39332 0.11399,0.19433 0.32252,0.5501 0.46344,0.79062 0.14092,0.24052 0.27283,0.43736 0.29313,0.43736 0.0203,0 0.33644,-0.17142 0.70254,-0.38081 0.36609,-0.20939 0.72634,-0.41411 0.8006,-0.45505 0.0914,-0.0504 0.13019,-0.0939 0.12002,-0.13452 -0.0344,-0.13742 -0.89699,-1.59989 -0.94364,-1.59989 z m 0.94444,2.04722 c -0.14229,0.004 -0.31211,0.0917 -0.75563,0.35341 -0.61681,0.36398 -0.65494,0.41754 -0.59318,0.8328 0.0457,0.30709 0.22737,0.69884 0.47875,1.03253 0.15051,0.1998 0.42349,0.42602 0.75456,0.62537 0.24215,0.14579 0.54021,0.41424 0.6589,0.59343 0.0628,0.0948 0.1478,0.28502 0.18895,0.42273 0.0411,0.1377 0.0906,0.27044 0.1099,0.29498 0.0466,0.0592 0.081,0.0563 0.14996,-0.0126 0.0942,-0.0942 0.18721,-0.30353 0.29272,-0.65943 0.0904,-0.30476 0.0996,-0.38657 0.0978,-0.87179 -0.002,-0.56061 -0.0395,-0.84478 -0.16313,-1.23158 -0.2072,-0.6485 -0.68768,-1.25505 -1.07737,-1.35998 -0.0504,-0.0136 -0.0948,-0.0213 -0.14223,-0.0198 z m -13.4498399,0.91571 c -0.0347,0 -0.0712,0.028 -0.0813,0.0624 -0.0101,0.0344 -0.0844,0.31147 -0.16513,0.61579 -0.0807,0.30433 -0.19323,0.71404 -0.25002,0.91038 -0.2723,0.94157 -0.42817,1.52011 -0.42817,1.58924 0,0.0478 0.0191,0.0716 0.0516,0.0644 0.0284,-0.006 0.45067,-0.39711 0.93846,-0.86833 0.4877799,-0.47121 1.0293199,-0.992 1.2033599,-1.15733 l 0.31642,-0.30058 -0.099,-0.0789 c -0.16357,-0.13043 -1.4182299,-0.83706 -1.4862499,-0.83706 z"
       inkscape:connector-curvature="0"
       sodipodi:nodetypes="cccccccsscscccccccccccccccccscccccccscsscccccsccccccccccccccccccccccccccccccccccsscccscccsccccccccccccccscccscccccs" />
  </g>
</svg>
