<?xml version="1.0" encoding="UTF-8" standalone="no"?>
<!-- Created with Inkscape (http://www.inkscape.org/) -->

<svg
   xmlns:osb="http://www.openswatchbook.org/uri/2009/osb"
   xmlns:dc="http://purl.org/dc/elements/1.1/"
   xmlns:cc="http://creativecommons.org/ns#"
   xmlns:rdf="http://www.w3.org/1999/02/22-rdf-syntax-ns#"
   xmlns:svg="http://www.w3.org/2000/svg"
   xmlns="http://www.w3.org/2000/svg"
   xmlns:xlink="http://www.w3.org/1999/xlink"
   xmlns:sodipodi="http://sodipodi.sourceforge.net/DTD/sodipodi-0.dtd"
   xmlns:inkscape="http://www.inkscape.org/namespaces/inkscape"
   width="128"
   height="128"
   viewBox="0 0 33.866666 33.866668"
   version="1.1"
   id="svg8"
   inkscape:version="0.92.2 5c3e80d, 2017-08-06"
   sodipodi:docname="folder copy.svg">
  <defs
     id="defs2">
    <linearGradient
       inkscape:collect="always"
       xlink:href="#linearGradient7009-7"
       id="linearGradient7011"
       x1="123.07384"
       y1="84.320671"
       x2="124.11147"
       y2="132.42918"
       gradientUnits="userSpaceOnUse"
       gradientTransform="matrix(0.25255681,0,0,0.25768595,-15.968322,248.84654)" />
    <linearGradient
       id="linearGradient7009-7"
       inkscape:collect="always">
      <stop
         id="stop7005-9"
         offset="0"
         style="stop-color:#404040;stop-opacity:1" />
      <stop
         id="stop7007-3"
         offset="1"
         style="stop-color:#595959;stop-opacity:1" />
    </linearGradient>
    <linearGradient
       osb:paint="solid"
       id="linearGradient6987">
      <stop
         id="stop6985"
         offset="0"
         style="stop-color:#77d2fb;stop-opacity:1;" />
    </linearGradient>
  </defs>
  <sodipodi:namedview
     id="base"
     pagecolor="#ffffff"
     bordercolor="#666666"
     borderopacity="1.0"
     inkscape:pageopacity="0.0"
     inkscape:pageshadow="2"
     inkscape:zoom="1.28"
     inkscape:cx="-88.224126"
     inkscape:cy="91.23343"
     inkscape:document-units="mm"
     inkscape:current-layer="layer1"
     showgrid="false"
     inkscape:window-width="1600"
     inkscape:window-height="814"
     inkscape:window-x="0"
     inkscape:window-y="0"
     inkscape:window-maximized="1"
     units="px" />
  <metadata
     id="metadata5">
    <rdf:RDF>
      <cc:Work
         rdf:about="">
        <dc:format>image/svg+xml</dc:format>
        <dc:type
           rdf:resource="http://purl.org/dc/dcmitype/StillImage" />
        <dc:title />
      </cc:Work>
    </rdf:RDF>
  </metadata>
  <g
     inkscape:label="Layer 1"
     inkscape:groupmode="layer"
     id="layer1"
     transform="translate(0,-263.13331)">
    <path
       id="path3726"
       style="opacity:0.25;fill:#000000;fill-opacity:1;stroke-width:0.07295433"
       d="m 1.839255,271.34745 c -0.87238339,0 -1.57463018,0.71666 -1.57463018,1.60675 v 7.47097 11.72207 0.72653 c 0,0.4876 0.38465877,0.88009 0.86255748,0.88009 h 0.7120727 30.188153 0.712078 c 0.477897,0 0.862556,-0.39249 0.862556,-0.88009 v -0.72653 -11.72207 -7.47097 c 0,-0.89009 -0.702246,-1.60675 -1.574634,-1.60675 z m 0.3993405,-4.42484 c -1.0935623,0 -1.97401229,0.89107 -1.97401229,1.998 v 2.39332 2.43155 8.27983 c 0,0.92145 0.73293882,1.66319 1.64324119,1.66319 H 31.95898 c 0.910304,0 1.643103,-0.74174 1.643103,-1.66319 v -10.71138 c 0,-0.92143 -0.732793,-1.66317 -1.643103,-1.66317 l -19.749002,-8e-5 c -0.975266,-0.0917 -1.017482,-2.4232 -2.7327582,-2.72807 z"
       inkscape:connector-curvature="0" />
    <path
       inkscape:connector-curvature="0"
       d="m 1.839255,270.80428 c -0.87238339,0 -1.57463018,0.71663 -1.57463018,1.60674 v 7.47098 11.72205 0.72655 c 0,0.4876 0.38465877,0.88007 0.86255748,0.88007 h 0.7120727 30.188153 0.712078 c 0.477897,0 0.862556,-0.39247 0.862556,-0.88007 v -0.72655 -11.72205 -7.47098 c 0,-0.89011 -0.702246,-1.60674 -1.574634,-1.60674 z m 0.3993405,-4.42484 c -1.0935623,0 -1.97401229,0.89105 -1.97401229,1.99798 v 2.39332 2.43157 8.27983 c 0,0.92142 0.73293882,1.66316 1.64324119,1.66316 H 31.95898 c 0.910304,0 1.643103,-0.74174 1.643103,-1.66316 v -10.7114 c 0,-0.92141 -0.732793,-1.66317 -1.643103,-1.66317 l -19.749002,-8e-5 c -0.975266,-0.0915 -1.017482,-2.42318 -2.7327582,-2.72805 z"
       style="fill:#666666;fill-opacity:1;stroke-width:0.07295433"
       id="path7028" />
    <path
       inkscape:connector-curvature="0"
       id="rect5176"
       d="m 1.8392858,270.80428 c -0.87238343,0 -1.57463021,0.71663 -1.57463021,1.60674 v 7.47098 11.72205 0.72655 c 0,0.4876 0.38465878,0.88007 0.86255751,0.88007 h 0.7120727 30.1881532 0.712076 c 0.4779,0 0.862556,-0.39247 0.862556,-0.88007 v -0.72655 -11.72205 -7.47098 c 0,-0.89011 -0.702244,-1.60674 -1.574632,-1.60674 z"
       style="fill:url(#linearGradient7011);fill-opacity:1.0;stroke-width:0.07295433" />
    <rect
       style="fill:#333333;fill-opacity:1;stroke:none;stroke-width:0.14778438;stroke-linecap:round;stroke-linejoin:round;stroke-miterlimit:4;stroke-dasharray:none;stroke-opacity:1"
       id="rect5180"
       width="30.427078"
       height="0.26995665"
       x="1.7198211"
       y="291.00845"
       ry="0.13497832" />
    <rect
       ry="0.13497832"
       y="291.84982"
       x="1.7198211"
       height="0.26995665"
       width="30.427078"
       id="rect5182"
       style="fill:#333333;fill-opacity:1;stroke:none;stroke-width:0.14778438;stroke-linecap:round;stroke-linejoin:round;stroke-miterlimit:4;stroke-dasharray:none;stroke-opacity:1" />
    <path
       style="fill:#4d4d4d;fill-opacity:1;stroke-width:0.07295433"
       d="m 2.2390733,266.37944 c -1.0935605,0 -1.97438151,0.89084 -1.97438151,1.99777 v 0.36196 c 0,-1.10693 0.88081921,-1.99777 1.97438151,-1.99777 h 7.238172 c 1.7152727,0.30487 1.7576317,2.63664 2.7329017,2.72822 h 19.748535 c 0.91031,0 1.643295,0.74153 1.643295,1.66293 v -0.36196 c 0,-0.92141 -0.732985,-1.66292 -1.643295,-1.66292 H 12.210147 c -0.97527,-0.0915 -1.017629,-2.42336 -2.7329017,-2.72823 z"
       id="path3721"
       inkscape:connector-curvature="0" />
  </g>
</svg>
