<?xml version="1.0" encoding="UTF-8" standalone="no"?>
<!-- Created with Inkscape (http://www.inkscape.org/) -->

<svg
   xmlns:osb="http://www.openswatchbook.org/uri/2009/osb"
   xmlns:dc="http://purl.org/dc/elements/1.1/"
   xmlns:cc="http://creativecommons.org/ns#"
   xmlns:rdf="http://www.w3.org/1999/02/22-rdf-syntax-ns#"
   xmlns:svg="http://www.w3.org/2000/svg"
   xmlns="http://www.w3.org/2000/svg"
   xmlns:xlink="http://www.w3.org/1999/xlink"
   xmlns:sodipodi="http://sodipodi.sourceforge.net/DTD/sodipodi-0.dtd"
   xmlns:inkscape="http://www.inkscape.org/namespaces/inkscape"
   width="128"
   height="128"
   viewBox="0 0 33.866666 33.866668"
   version="1.1"
   id="svg8"
   inkscape:version="0.92.2 5c3e80d, 2017-08-06"
   sodipodi:docname="folder-bookmarks.svg">
  <defs
     id="defs2">
    <linearGradient
       inkscape:collect="always"
       xlink:href="#linearGradient7009-7"
       id="linearGradient7011"
       x1="123.07384"
       y1="84.320671"
       x2="124.11147"
       y2="132.42918"
       gradientUnits="userSpaceOnUse"
       gradientTransform="matrix(0.25255681,0,0,0.25768595,-15.968322,248.84654)" />
    <linearGradient
       id="linearGradient1325"
       inkscape:collect="always">
      <stop
         id="stop1321"
         offset="0"
         style="stop-color:#8b83d4;stop-opacity:1" />
      <stop
         id="stop1323"
         offset="1"
         style="stop-color:#a095eb;stop-opacity:1" />
    </linearGradient>
    <linearGradient
       osb:paint="solid"
       id="linearGradient6088">
      <stop
         id="stop6086"
         offset="0"
         style="stop-color:#51b3e3;stop-opacity:1;" />
    </linearGradient>
    <linearGradient
       id="linearGradient7009-7"
       inkscape:collect="always">
      <stop
         id="stop7005-9"
         offset="0"
         style="stop-color:#a79ee5;stop-opacity:1" />
      <stop
         id="stop7007-3"
         offset="1"
         style="stop-color:#b6adf9;stop-opacity:1" />
    </linearGradient>
    <linearGradient
       osb:paint="solid"
       id="linearGradient6987">
      <stop
         id="stop6985"
         offset="0"
         style="stop-color:#77d2fb;stop-opacity:1;" />
    </linearGradient>
    <linearGradient
       gradientTransform="matrix(0.25824977,0,0,0.26238895,-0.48342851,220.23329)"
       gradientUnits="userSpaceOnUse"
       y2="264.51837"
       x2="64.662956"
       y1="207.35561"
       x1="64.662956"
       id="linearGradient1327"
       xlink:href="#linearGradient1325"
       inkscape:collect="always" />
  </defs>
  <sodipodi:namedview
     id="base"
     pagecolor="#ffffff"
     bordercolor="#666666"
     borderopacity="1.0"
     inkscape:pageopacity="0.0"
     inkscape:pageshadow="2"
     inkscape:zoom="3.6203867"
     inkscape:cx="56.935821"
     inkscape:cy="82.755969"
     inkscape:document-units="mm"
     inkscape:current-layer="layer1"
     showgrid="false"
     inkscape:window-width="1600"
     inkscape:window-height="814"
     inkscape:window-x="0"
     inkscape:window-y="0"
     inkscape:window-maximized="1"
     units="px" />
  <metadata
     id="metadata5">
    <rdf:RDF>
      <cc:Work
         rdf:about="">
        <dc:format>image/svg+xml</dc:format>
        <dc:type
           rdf:resource="http://purl.org/dc/dcmitype/StillImage" />
        <dc:title />
      </cc:Work>
    </rdf:RDF>
  </metadata>
  <g
     inkscape:label="Layer 1"
     inkscape:groupmode="layer"
     id="layer1"
     transform="translate(0,-263.13331)">
    <path
       id="path3726"
       style="opacity:0.25;fill:#000000;fill-opacity:1;stroke-width:0.07295433"
       d="m 1.839255,271.34745 c -0.87238339,0 -1.57463018,0.71666 -1.57463018,1.60675 v 7.47097 11.72207 0.72653 c 0,0.4876 0.38465877,0.88009 0.86255748,0.88009 h 0.7120727 30.188153 0.712078 c 0.477897,0 0.862556,-0.39249 0.862556,-0.88009 v -0.72653 -11.72207 -7.47097 c 0,-0.89009 -0.702246,-1.60675 -1.574634,-1.60675 z m 0.3993405,-4.42484 c -1.0935623,0 -1.97401229,0.89107 -1.97401229,1.998 v 2.39332 2.43155 8.27983 c 0,0.92145 0.73293882,1.66319 1.64324119,1.66319 H 31.95898 c 0.910304,0 1.643103,-0.74174 1.643103,-1.66319 v -10.71138 c 0,-0.92143 -0.732793,-1.66317 -1.643103,-1.66317 l -19.749002,-8e-5 c -0.975266,-0.0917 -1.017482,-2.4232 -2.7327582,-2.72807 z"
       inkscape:connector-curvature="0" />
    <path
       inkscape:connector-curvature="0"
       d="m 1.839255,270.80428 c -0.87238339,0 -1.57463018,0.71663 -1.57463018,1.60674 v 7.47098 11.72205 0.72655 c 0,0.4876 0.38465877,0.88007 0.86255748,0.88007 h 0.7120727 30.188153 0.712078 c 0.477897,0 0.862556,-0.39247 0.862556,-0.88007 v -0.72655 -11.72205 -7.47098 c 0,-0.89011 -0.702246,-1.60674 -1.574634,-1.60674 z m 0.3993405,-4.42484 c -1.0935623,0 -1.97401229,0.89105 -1.97401229,1.99798 v 2.39332 2.43157 8.27983 c 0,0.92142 0.73293882,1.66316 1.64324119,1.66316 H 31.95898 c 0.910304,0 1.643103,-0.74174 1.643103,-1.66316 v -10.7114 c 0,-0.92141 -0.732793,-1.66317 -1.643103,-1.66317 l -19.749002,-8e-5 c -0.975266,-0.0915 -1.017482,-2.42318 -2.7327582,-2.72805 z"
       style="fill:#cac3ff;fill-opacity:1;stroke-width:0.07295433"
       id="path7028" />
    <path
       inkscape:connector-curvature="0"
       id="rect5176"
       d="m 1.8392858,270.80428 c -0.87238343,0 -1.57463021,0.71663 -1.57463021,1.60674 v 7.47098 11.72205 0.72655 c 0,0.4876 0.38465878,0.88007 0.86255751,0.88007 h 0.7120727 30.1881532 0.712076 c 0.4779,0 0.862556,-0.39247 0.862556,-0.88007 v -0.72655 -11.72205 -7.47098 c 0,-0.89011 -0.702244,-1.60674 -1.574632,-1.60674 z"
       style="fill:url(#linearGradient7011);fill-opacity:1.0;stroke-width:0.07295433" />
    <rect
       style="fill:#9e94e9;fill-opacity:1;stroke:none;stroke-width:0.14778438;stroke-linecap:round;stroke-linejoin:round;stroke-miterlimit:4;stroke-dasharray:none;stroke-opacity:1"
       id="rect5180"
       width="30.427078"
       height="0.26995665"
       x="1.7198211"
       y="291.00845"
       ry="0.13497832" />
    <rect
       ry="0.13497832"
       y="291.84982"
       x="1.7198211"
       height="0.26995665"
       width="30.427078"
       id="rect5182"
       style="fill:#9e94e9;fill-opacity:1;stroke:none;stroke-width:0.14778438;stroke-linecap:round;stroke-linejoin:round;stroke-miterlimit:4;stroke-dasharray:none;stroke-opacity:1" />
    <path
       style="fill:#aca6d9;fill-opacity:1;stroke-width:0.07295433"
       d="m 2.2390733,266.37944 c -1.0935605,0 -1.97438151,0.89084 -1.97438151,1.99777 v 0.36196 c 0,-1.10693 0.88081921,-1.99777 1.97438151,-1.99777 h 7.238172 c 1.7152727,0.30487 1.7576317,2.63664 2.7329017,2.72822 h 19.748535 c 0.91031,0 1.643295,0.74153 1.643295,1.66293 v -0.36196 c 0,-0.92141 -0.732985,-1.66292 -1.643295,-1.66292 H 12.210147 c -0.97527,-0.0915 -1.017629,-2.42336 -2.7329017,-2.72823 z"
       id="path3721"
       inkscape:connector-curvature="0" />
    <path
       id="path1152"
       style="fill:url(#linearGradient1327);fill-opacity:1;stroke-width:0.1393787"
       d="m 16.96471,274.19917 c -0.313245,0 -0.587362,0.0165 -0.626301,0.0377 -0.116054,0.0631 -0.167227,0.22042 -0.189772,0.584 -0.03146,0.50721 -0.09776,1.21654 -0.116639,1.24759 -0.009,0.0148 -0.06881,0.0377 -0.13292,0.0508 -0.06411,0.0132 -0.313156,0.0802 -0.553435,0.14901 -0.240278,0.0688 -0.469103,0.12516 -0.508461,0.12516 -0.04882,0 -0.132273,-0.09 -0.262638,-0.28339 -0.394109,-0.58461 -0.680845,-0.98447 -0.75495,-1.05261 -0.140873,-0.12953 -0.305494,-0.0932 -0.738404,0.16284 -0.216834,0.12825 -0.42257,0.26549 -0.457214,0.30495 -0.116378,0.13257 -0.07637,0.28238 0.280921,1.05153 l 0.343912,0.74047 -0.262905,0.27865 c -0.144618,0.15329 -0.355825,0.36742 -0.469226,0.4758 l -0.206186,0.19701 -0.744942,-0.35539 c -0.982728,-0.46868 -0.939265,-0.4771 -1.34295,0.26088 -0.3231035,0.59067 -0.3516105,0.53351 0.598142,1.19634 0.677418,0.47277 0.645607,0.43053 0.557172,0.74021 -0.03937,0.13787 -0.116407,0.41932 -0.171089,0.62535 -0.06501,0.24498 -0.118761,0.38029 -0.155474,0.39105 -0.03088,0.009 -0.339642,0.0427 -0.686088,0.0749 -1.2065665,0.11198 -1.1274005,0.0532 -1.1100725,0.82414 0.01614,0.71828 -0.01479,0.685 0.701169,0.75294 0.8368065,0.0794 1.1313075,0.11433 1.1533115,0.13668 0.01119,0.0114 0.05855,0.16548 0.105295,0.34238 0.04674,0.17689 0.117192,0.43682 0.156542,0.57762 0.03935,0.1408 0.07208,0.29026 0.0726,0.33207 8e-4,0.0574 -0.138087,0.17388 -0.565846,0.47471 -0.657641,0.46251 -0.836892,0.61704 -0.836892,0.7219 0,0.0966 0.204663,0.49921 0.406234,0.79905 0.234845,0.34934 0.180066,0.35902 1.494555,-0.26562 0.164477,-0.0782 0.326681,-0.14211 0.36046,-0.14211 0.03378,0 0.270359,0.21283 0.52581,0.47295 l 0.464554,0.47295 -0.348049,0.74631 c -0.191399,0.41048 -0.348048,0.78799 -0.348048,0.83878 0,0.14721 0.113152,0.2562 0.516468,0.49776 0.42306,0.25339 0.570977,0.2839 0.696899,0.14386 0.0407,-0.0453 0.253962,-0.34764 0.474029,-0.67199 0.220065,-0.32435 0.42516,-0.61082 0.455747,-0.63662 0.04607,-0.0388 0.157996,-0.0194 0.652591,0.11363 0.328323,0.0883 0.621426,0.1787 0.65139,0.20095 0.04259,0.0316 0.06732,0.22223 0.11317,0.87309 l 0.05859,0.83254 0.100358,0.0876 c 0.09602,0.0839 0.122845,0.0876 0.631906,0.0876 0.728127,0 0.680789,0.0606 0.748678,-0.95783 0.02857,-0.42862 0.06642,-0.81563 0.08421,-0.86006 0.02384,-0.0596 0.09656,-0.0995 0.276785,-0.152 0.682366,-0.19883 0.959959,-0.26525 1.030533,-0.24665 0.04945,0.013 0.192893,0.19691 0.394625,0.5059 0.174337,0.26703 0.385779,0.57602 0.469759,0.68665 0.215582,0.28398 0.275293,0.2837 0.784978,-0.005 0.222317,-0.12588 0.435373,-0.26052 0.473362,-0.29911 0.09412,-0.0956 0.06666,-0.27596 -0.09395,-0.61668 -0.436744,-0.92656 -0.529279,-1.12805 -0.529279,-1.15309 0,-0.0571 0.919087,-0.96163 0.977152,-0.96163 0.03317,0 0.211606,0.0725 0.396492,0.16109 1.128606,0.54084 1.215651,0.56761 1.349624,0.41492 0.130671,-0.14894 0.484119,-0.79153 0.504056,-0.91634 0.01751,-0.10967 0.0029,-0.13707 -0.141461,-0.26577 -0.08858,-0.0789 -0.28059,-0.22521 -0.426653,-0.32488 -0.579022,-0.39509 -0.823547,-0.58754 -0.823547,-0.64841 0,-0.0345 0.02562,-0.1582 0.05685,-0.27484 0.03124,-0.11664 0.09681,-0.36838 0.145732,-0.55946 0.04892,-0.19109 0.112679,-0.37171 0.141595,-0.40136 0.0311,-0.0319 0.158929,-0.0635 0.313083,-0.0776 0.143334,-0.013 0.503637,-0.0451 0.800593,-0.0713 0.511546,-0.0451 0.545061,-0.0529 0.638845,-0.1482 0.09847,-0.10002 0.09902,-0.10321 0.09902,-0.60719 0,-0.41593 -0.01087,-0.52292 -0.06086,-0.59715 -0.106236,-0.15772 -0.08526,-0.15319 -1.103399,-0.23444 -0.427048,-0.0341 -0.621646,-0.064 -0.658063,-0.10102 -0.02844,-0.0289 -0.117673,-0.29816 -0.198314,-0.59851 -0.08064,-0.30034 -0.154516,-0.57345 -0.164148,-0.60678 -0.01795,-0.0621 0.178897,-0.22098 0.876394,-0.70739 0.45165,-0.31496 0.50537,-0.36674 0.532616,-0.5143 0.01978,-0.10713 0.0049,-0.16183 -0.08154,-0.30197 -0.05808,-0.0941 -0.165648,-0.28203 -0.239016,-0.41763 -0.142084,-0.26259 -0.271728,-0.39349 -0.38982,-0.39349 -0.03994,0 -0.408791,0.15833 -0.819677,0.35187 -0.665966,0.31368 -0.754267,0.34637 -0.813403,0.30115 -0.157326,-0.12029 -0.840229,-0.86316 -0.840229,-0.91403 0,-0.0308 0.145856,-0.37054 0.324028,-0.75499 0.207511,-0.44775 0.323893,-0.74325 0.323893,-0.8221 0,-0.15949 -0.09621,-0.24991 -0.557839,-0.52407 -0.458447,-0.27227 -0.580709,-0.28332 -0.764159,-0.069 -0.06848,0.08 -0.222533,0.29354 -0.342443,0.47457 -0.401669,0.60638 -0.537136,0.78631 -0.592003,0.78631 -0.105211,0 -1.145418,-0.2985 -1.188411,-0.34102 -0.04088,-0.0404 -0.15389,-1.12042 -0.154407,-1.47552 -1.36e-4,-0.11064 -0.02572,-0.18366 -0.09328,-0.26522 l -0.09329,-0.11255 z m 0.01388,4.44746 c 0.477574,0.004 0.936157,0.11876 1.395531,0.34563 0.682746,0.33719 1.222805,0.87854 1.548737,1.55213 0.221785,0.45836 0.306708,0.81508 0.3307,1.39051 0.01813,0.43448 0.01133,0.51075 -0.07727,0.87024 -0.142559,0.57848 -0.321483,0.94492 -0.676746,1.38563 -0.426939,0.52962 -0.993367,0.90601 -1.665377,1.10685 -0.410795,0.12276 -1.160764,0.1596 -1.526183,0.075 -0.837829,-0.19404 -1.496579,-0.59699 -1.971253,-1.20583 -0.842832,-1.08106 -0.982851,-2.46604 -0.371536,-3.67431 0.438714,-0.86712 1.224921,-1.50789 2.128862,-1.73478 0.304512,-0.0764 0.597988,-0.11359 0.884535,-0.11105 z"
       inkscape:connector-curvature="0" />
  </g>
</svg>
