<?xml version="1.0" encoding="UTF-8" standalone="no"?>
<!-- Created with Inkscape (http://www.inkscape.org/) -->

<svg
   xmlns:osb="http://www.openswatchbook.org/uri/2009/osb"
   xmlns:dc="http://purl.org/dc/elements/1.1/"
   xmlns:cc="http://creativecommons.org/ns#"
   xmlns:rdf="http://www.w3.org/1999/02/22-rdf-syntax-ns#"
   xmlns:svg="http://www.w3.org/2000/svg"
   xmlns="http://www.w3.org/2000/svg"
   xmlns:xlink="http://www.w3.org/1999/xlink"
   xmlns:sodipodi="http://sodipodi.sourceforge.net/DTD/sodipodi-0.dtd"
   xmlns:inkscape="http://www.inkscape.org/namespaces/inkscape"
   width="128"
   height="128"
   viewBox="0 0 33.866666 33.866668"
   version="1.1"
   id="svg8"
   inkscape:version="0.92.2 5c3e80d, 2017-08-06"
   sodipodi:docname="folder-publicshare.svg">
  <defs
     id="defs2">
    <linearGradient
       inkscape:collect="always"
       xlink:href="#linearGradient7009"
       id="linearGradient7011"
       x1="123.07384"
       y1="84.320671"
       x2="124.11147"
       y2="132.42918"
       gradientUnits="userSpaceOnUse"
       gradientTransform="matrix(0.25255681,0,0,0.25768595,-15.968322,248.84654)" />
    <linearGradient
       inkscape:collect="always"
       id="linearGradient7009">
      <stop
         style="stop-color:#63c4f2;stop-opacity:1"
         offset="0"
         id="stop7005" />
      <stop
         style="stop-color:#7cd4fa;stop-opacity:1"
         offset="1"
         id="stop7007" />
    </linearGradient>
    <linearGradient
       inkscape:collect="always"
       id="linearGradient6570">
      <stop
         style="stop-color:#51b1e3;stop-opacity:1"
         offset="0"
         id="stop6566" />
      <stop
         style="stop-color:#5cc0ee;stop-opacity:1"
         offset="1"
         id="stop6568" />
    </linearGradient>
    <linearGradient
       osb:paint="solid"
       id="linearGradient6088">
      <stop
         id="stop6086"
         offset="0"
         style="stop-color:#51b3e3;stop-opacity:1;" />
    </linearGradient>
    <linearGradient
       osb:paint="solid"
       id="linearGradient6987">
      <stop
         id="stop6985"
         offset="0"
         style="stop-color:#77d2fb;stop-opacity:1;" />
    </linearGradient>
    <linearGradient
       gradientTransform="matrix(0.25824977,0,0,0.26238895,-0.27827726,220.75645)"
       gradientUnits="userSpaceOnUse"
       y2="257.8244"
       x2="65.296364"
       y1="207.59541"
       x1="66.650986"
       id="linearGradient6564"
       xlink:href="#linearGradient6570"
       inkscape:collect="always" />
  </defs>
  <sodipodi:namedview
     id="base"
     pagecolor="#ffffff"
     bordercolor="#666666"
     borderopacity="1.0"
     inkscape:pageopacity="0.0"
     inkscape:pageshadow="2"
     inkscape:zoom="2.56"
     inkscape:cx="90.917321"
     inkscape:cy="70.365787"
     inkscape:document-units="mm"
     inkscape:current-layer="layer1"
     showgrid="false"
     inkscape:window-width="1600"
     inkscape:window-height="814"
     inkscape:window-x="0"
     inkscape:window-y="0"
     inkscape:window-maximized="1"
     units="px" />
  <metadata
     id="metadata5">
    <rdf:RDF>
      <cc:Work
         rdf:about="">
        <dc:format>image/svg+xml</dc:format>
        <dc:type
           rdf:resource="http://purl.org/dc/dcmitype/StillImage" />
        <dc:title />
      </cc:Work>
    </rdf:RDF>
  </metadata>
  <g
     inkscape:label="Layer 1"
     inkscape:groupmode="layer"
     id="layer1"
     transform="translate(0,-263.13331)">
    <path
       id="path3726"
       style="opacity:0.25;fill:#000000;fill-opacity:1;stroke-width:0.07295433"
       d="m 1.839255,271.34745 c -0.87238339,0 -1.57463018,0.71666 -1.57463018,1.60675 v 7.47097 11.72207 0.72653 c 0,0.4876 0.38465877,0.88009 0.86255748,0.88009 h 0.7120727 30.188153 0.712078 c 0.477897,0 0.862556,-0.39249 0.862556,-0.88009 v -0.72653 -11.72207 -7.47097 c 0,-0.89009 -0.702246,-1.60675 -1.574634,-1.60675 z m 0.3993405,-4.42484 c -1.0935623,0 -1.97401229,0.89107 -1.97401229,1.998 v 2.39332 2.43155 8.27983 c 0,0.92145 0.73293882,1.66319 1.64324119,1.66319 H 31.95898 c 0.910304,0 1.643103,-0.74174 1.643103,-1.66319 v -10.71138 c 0,-0.92143 -0.732793,-1.66317 -1.643103,-1.66317 l -19.749002,-8e-5 c -0.975266,-0.0917 -1.017482,-2.4232 -2.7327582,-2.72807 z"
       inkscape:connector-curvature="0" />
    <path
       inkscape:connector-curvature="0"
       d="m 1.839255,270.80428 c -0.87238339,0 -1.57463018,0.71663 -1.57463018,1.60674 v 7.47098 11.72205 0.72655 c 0,0.4876 0.38465877,0.88007 0.86255748,0.88007 h 0.7120727 30.188153 0.712078 c 0.477897,0 0.862556,-0.39247 0.862556,-0.88007 v -0.72655 -11.72205 -7.47098 c 0,-0.89011 -0.702246,-1.60674 -1.574634,-1.60674 z m 0.3993405,-4.42484 c -1.0935623,0 -1.97401229,0.89105 -1.97401229,1.99798 v 2.39332 2.43157 8.27983 c 0,0.92142 0.73293882,1.66316 1.64324119,1.66316 H 31.95898 c 0.910304,0 1.643103,-0.74174 1.643103,-1.66316 v -10.7114 c 0,-0.92141 -0.732793,-1.66317 -1.643103,-1.66317 l -19.749002,-8e-5 c -0.975266,-0.0915 -1.017482,-2.42318 -2.7327582,-2.72805 z"
       style="fill:#97ddff;fill-opacity:1;stroke-width:0.07295433"
       id="path7028" />
    <path
       inkscape:connector-curvature="0"
       id="rect5176"
       d="m 1.8392858,270.80428 c -0.87238343,0 -1.57463021,0.71663 -1.57463021,1.60674 v 7.47098 11.72205 0.72655 c 0,0.4876 0.38465878,0.88007 0.86255751,0.88007 h 0.7120727 30.1881532 0.712076 c 0.4779,0 0.862556,-0.39247 0.862556,-0.88007 v -0.72655 -11.72205 -7.47098 c 0,-0.89011 -0.702244,-1.60674 -1.574632,-1.60674 z"
       style="fill:url(#linearGradient7011);fill-opacity:1;stroke-width:0.07295433" />
    <rect
       style="fill:#5ebae5;fill-opacity:1;stroke:none;stroke-width:0.14778438;stroke-linecap:round;stroke-linejoin:round;stroke-miterlimit:4;stroke-dasharray:none;stroke-opacity:1"
       id="rect5180"
       width="30.427078"
       height="0.26995665"
       x="1.7198211"
       y="291.00845"
       ry="0.13497832" />
    <rect
       ry="0.13497832"
       y="291.84982"
       x="1.7198211"
       height="0.26995665"
       width="30.427078"
       id="rect5182"
       style="fill:#5ebae5;fill-opacity:1;stroke:none;stroke-width:0.14778438;stroke-linecap:round;stroke-linejoin:round;stroke-miterlimit:4;stroke-dasharray:none;stroke-opacity:1" />
    <path
       style="fill:#90d3f2;fill-opacity:1;stroke-width:0.07295433"
       d="m 2.2390733,266.37944 c -1.0935605,0 -1.97438151,0.89084 -1.97438151,1.99777 v 0.36196 c 0,-1.10693 0.88081921,-1.99777 1.97438151,-1.99777 h 7.238172 c 1.7152727,0.30487 1.7576317,2.63664 2.7329017,2.72822 h 19.748535 c 0.91031,0 1.643295,0.74153 1.643295,1.66293 v -0.36196 c 0,-0.92141 -0.732985,-1.66292 -1.643295,-1.66292 H 12.210147 c -0.97527,-0.0915 -1.017629,-2.42336 -2.7329017,-2.72823 z"
       id="path3721"
       inkscape:connector-curvature="0" />
    <path
       id="path6492"
       style="fill:url(#linearGradient6564);fill-opacity:1;stroke-width:0.13855428"
       d="m 23.225484,275.20998 c -0.11562,0.003 -0.23319,0.0213 -0.35045,0.0567 -0.58603,0.17683 -0.97126,0.74754 -0.92043,1.36353 0.0437,0.52939 0.35924,0.95657 0.86585,1.17234 0.2243,0.0955 0.72722,0.0668 0.9909,-0.0565 0.52218,-0.24427 0.85846,-0.90044 0.74347,-1.45099 -0.13857,-0.66347 -0.70499,-1.10062 -1.32934,-1.08501 z m -12.6245,0.0172 c -0.300394,0 -0.363817,0.012 -0.54529,0.10251 -0.5627458,0.28077 -0.8739168,0.92329 -0.7249248,1.49708 0.11669,0.44941 0.391086,0.77718 0.7953858,0.95024 0.177702,0.0762 0.251639,0.0868 0.530479,0.0768 0.26519,-0.01 0.36021,-0.0297 0.52328,-0.11078 0.24628,-0.12243 0.50455,-0.39725 0.63124,-0.67187 0.0829,-0.17975 0.0958,-0.25471 0.0958,-0.55335 0,-0.32366 -0.008,-0.35961 -0.12131,-0.57261 -0.14736,-0.27611 -0.37028,-0.4919 -0.64164,-0.62115 -0.17523,-0.0835 -0.24972,-0.0968 -0.54303,-0.0968 z m 6.33334,0 c -0.29753,0 -0.36467,0.0124 -0.53822,0.099 -0.27973,0.13959 -0.52007,0.38705 -0.65019,0.66956 -0.0924,0.20054 -0.10898,0.27999 -0.10823,0.51593 0.002,0.6114 0.35384,1.11934 0.89841,1.29655 0.26459,0.0861 0.72624,0.0547 0.97529,-0.0664 0.58639,-0.28514 0.88719,-1.02312 0.67127,-1.64665 -0.11363,-0.32815 -0.37192,-0.61616 -0.68369,-0.76244 -0.19811,-0.093 -0.26504,-0.10549 -0.56464,-0.10549 z m -0.005,2.92543 c -0.96327,5.2e-4 -1.09024,0.008 -1.18614,0.0645 -0.0832,0.0494 -0.31313,0.43071 -1.02066,1.69166 -0.50235,0.89528 -0.92939,1.62237 -0.94899,1.61573 -0.0196,-0.007 -0.44073,-0.73098 -0.93578,-1.60963 -0.69871,-1.24011 -0.92667,-1.61582 -1.01892,-1.67932 -0.1169,-0.0805 -0.13708,-0.0818 -1.22338,-0.0818 H 9.4909852 l -0.124379,0.1181 c -0.07841,0.0745 -0.510324,0.80354 -1.1686565,1.97234 -1.213877,2.15509 -1.178567,2.08835 -1.182536,2.23037 -0.01054,0.37689 0.386274,0.6056 0.687282,0.3962 0.08654,-0.0602 0.274517,-0.35643 0.711985,-1.12203 0.6476325,-1.13341 0.7023635,-1.22287 0.7310605,-1.19512 0.01061,0.0103 0.02309,1.7853 0.02776,3.94454 0.0064,2.973 0.01893,3.95312 0.05178,4.03797 0.02386,0.0616 0.08776,0.14743 0.141998,0.19078 0.178154,0.14239 0.498239,0.0833 0.628699,-0.1162 0.04203,-0.0643 0.05378,-0.48908 0.0686,-2.47702 l 0.01787,-2.39946 0.496046,-0.0102 c 0.30058,-0.006 0.51339,0.004 0.54009,0.027 0.034,0.0287 0.045,0.57681 0.0482,2.3996 0.005,2.60275 -0.006,2.48091 0.22527,2.60244 0.21439,0.11264 0.520621,0.0137 0.597611,-0.19309 0.0298,-0.08 0.0781,-4.79721 0.0786,-7.68867 4e-5,-0.17497 0.0141,-0.31824 0.0311,-0.31824 0.017,0 0.20532,0.30685 0.41838,0.68176 0.63248,1.11294 0.87216,1.51275 0.96208,1.60461 0.0596,0.0609 0.13671,0.0913 0.2581,0.10197 0.24588,0.0215 0.3629,-0.0651 0.55757,-0.41316 0.48122,-0.8605 1.08425,-1.89349 1.14183,-1.95593 0.0644,-0.0698 0.0663,0.005 0.0709,2.78116 0.003,1.56907 0.003,3.34823 0,3.95362 -0.005,1.22406 0.005,1.29392 0.21686,1.42495 0.14302,0.0886 0.32312,0.0945 0.45575,0.0149 0.20716,-0.12433 0.19787,-0.0127 0.21726,-2.61328 l 0.0179,-2.39946 0.52782,-0.01 c 0.29028,-0.006 0.52831,0.003 0.52887,0.0182 7.8e-4,0.0155 0.009,1.08958 0.0194,2.38685 0.02,2.57701 0.014,2.50851 0.22887,2.62142 0.21113,0.11093 0.49055,0.0372 0.58627,-0.15458 0.041,-0.0821 0.0531,-0.7903 0.0703,-4.07539 0.0114,-2.18683 0.0284,-3.98369 0.0376,-3.99308 0.0197,-0.02 0.0561,0.0369 0.31749,0.49817 0.10764,0.18995 0.28064,0.49258 0.38448,0.67254 0.10383,0.17995 0.2764,0.48272 0.38342,0.67268 0.25713,0.4564 0.38658,0.58156 0.60107,0.58156 0.23687,0 0.34563,-0.12533 0.78939,-0.90889 0.83419,-1.47296 0.87384,-1.53954 0.90001,-1.51294 0.011,0.0111 0.0277,1.80813 0.0372,3.99321 0.0189,4.32789 0.008,4.114 0.2222,4.22672 0.21055,0.11062 0.50883,0.0279 0.61336,-0.17017 0.0336,-0.0635 0.046,-0.65035 0.0518,-2.43431 0.004,-1.29284 0.0185,-2.36851 0.0318,-2.39037 0.0258,-0.0424 0.89808,-0.0578 1.00104,-0.0176 0.0508,0.0198 0.0566,0.2622 0.0566,2.36665 0,2.57012 -0.005,2.50882 0.2118,2.63891 0.21286,0.12775 0.51271,0.0363 0.62884,-0.19187 0.0485,-0.0952 0.056,-0.26357 0.0512,-1.13776 -0.003,-0.56427 -0.004,-2.34015 -0.002,-3.94644 0.003,-2.28545 0.0136,-2.91736 0.0479,-2.90576 0.0437,0.0148 0.13697,0.16213 0.38594,0.60935 0.59883,1.07567 0.95221,1.65083 1.05269,1.71309 0.21031,0.1303 0.50467,0.0586 0.61015,-0.14861 0.11949,-0.23476 0.082,-0.362 -0.31014,-1.05126 -0.20044,-0.35231 -0.43798,-0.77306 -0.52782,-0.93504 -1.03578,-1.8676 -1.38789,-2.46618 -1.48721,-2.52828 -0.0982,-0.0614 -0.20035,-0.0671 -1.19869,-0.0671 -1.28422,0 -1.22938,-0.0151 -1.46946,0.40638 -0.27426,0.48151 -0.41366,0.72842 -0.92003,1.62915 -0.74151,1.31902 -0.73553,1.30888 -0.77724,1.30888 -0.0213,0 -0.43124,-0.69937 -0.91123,-1.55417 -0.47999,-0.8548 -0.89798,-1.58452 -0.92884,-1.62156 -0.1359,-0.16316 -0.1964,-0.17095 -1.33187,-0.17017 z"
       inkscape:connector-curvature="0" />
  </g>
</svg>
